<svg width="21" height="20" viewBox="0 0 21 20" fill="none" xmlns="http://www.w3.org/2000/svg">
<g id="icon_topbar btn">
<g id="Subtract">
<path d="M6.33333 2.5H3.83333C3.3731 2.5 3 2.8731 3 3.33333V5.83333H4.66667V4.16667H6.33333V2.5Z" fill="currentColor"/>
<path d="M8.83333 4.16667V2.5H12.1667V4.16667H8.83333Z" fill="currentColor"/>
<path d="M16.3333 5.83333V4.16667H14.6667V2.5H17.1667C17.6269 2.5 18 2.8731 18 3.33333V5.83333H16.3333Z" fill="currentColor"/>
<path d="M16.3333 11.6667V8.33333H18V11.6667H16.3333Z" fill="currentColor"/>
<path d="M14.6667 15.8333H16.3333V14.1667H18V16.6667C18 17.1269 17.6269 17.5 17.1667 17.5H14.6667V15.8333Z" fill="currentColor"/>
<path d="M8.83333 15.8333H12.1667V17.5H8.83333V15.8333Z" fill="currentColor"/>
<path d="M4.66667 14.1667V15.8333H6.33333V17.5H3.83333C3.3731 17.5 3 17.1269 3 16.6667V14.1667H4.66667Z" fill="currentColor"/>
<path d="M4.66667 8.33333V11.6667H3V8.33333H4.66667Z" fill="currentColor"/>
</g>
</g>
</svg>
