<svg width="24" height="24" viewBox="0 0 24 24" fill="none" xmlns="http://www.w3.org/2000/svg">
<g id="&#231;&#188;&#150;&#232;&#190;&#145;&#229;&#153;&#168;-&#229;&#183;&#166;&#230;&#160;&#143;">
<g id="Union">
<path d="M17.1437 6.07599V14.5H15.0917V6.07599H17.1437Z" fill="currentColor"/>
<path fill-rule="evenodd" clip-rule="evenodd" d="M8.34402 13.012H11.488L11.992 14.5H14.164L11.116 6.07599H8.74002L5.69202 14.5H7.84002L8.34402 13.012ZM9.91602 8.34399L10.96 11.428H8.88402L9.91602 8.34399Z" fill="currentColor"/>
<path fill-rule="evenodd" clip-rule="evenodd" d="M12 19H21C21.5523 19 22 18.5523 22 18V3C22 2.44772 21.5523 2 21 2H3C2.44772 2 2 2.44772 2 3V18C2 18.5523 2.44772 19 3 19H5.9375L5.97363 21.8539C5.98425 22.6929 6.96109 23.1466 7.60897 22.6135L12 19ZM11.2829 17H20V4H4V17H7.91234L7.94709 19.7451L11.2829 17Z" fill="currentColor"/>
</g>
</g>
</svg>
