<svg width="24" height="24" viewBox="0 0 24 24" fill="none" xmlns="http://www.w3.org/2000/svg">
<g id=" Photograph">
<g id="Mask group">
<mask id="mask0_927_154254" style="mask-type:alpha" maskUnits="userSpaceOnUse" x="2" y="1" width="22" height="21">
<rect id="Rectangle 240647785" x="2" y="1" width="22" height="21" fill="#D9D9D9"/>
</mask>
<g mask="url(#mask0_927_154254)">
<rect id="Rectangle 240647786" x="16.5059" y="-7" width="2" height="29" transform="rotate(45 16.5059 -7)" fill="#1A1A1E"/>
<rect id="Rectangle 240647793" x="13.5059" y="-9" width="2" height="29" transform="rotate(45 13.5059 -9)" fill="#1A1A1E"/>
<rect id="Rectangle 240647787" x="19.335" y="-4.17188" width="2" height="29" transform="rotate(45 19.335 -4.17188)" fill="#1A1A1E"/>
<rect id="Rectangle 240647788" x="22.1631" y="-1.34375" width="2" height="29" transform="rotate(45 22.1631 -1.34375)" fill="#1A1A1E"/>
<rect id="Rectangle 240647789" x="24.9912" y="1.48438" width="2" height="29" transform="rotate(45 24.9912 1.48438)" fill="#1A1A1E"/>
<rect id="Rectangle 240647791" x="30.6484" y="7.14062" width="2" height="29" transform="rotate(45 30.6484 7.14062)" fill="#1A1A1E"/>
<rect id="Rectangle 240647790" x="27.8203" y="4.3125" width="2" height="29" transform="rotate(45 27.8203 4.3125)" fill="#1A1A1E"/>
<rect id="Rectangle 240647792" x="33.4766" y="9.96875" width="2" height="29" transform="rotate(45 33.4766 9.96875)" fill="#1A1A1E"/>
</g>
</g>
<g id="Group 1321317716">
<path id="Union" fill-rule="evenodd" clip-rule="evenodd" d="M1 7.00003H4.92081L6.80249 4.64888C6.94886 4.25857 7.32198 4 7.73882 4H12.3528C12.7697 4 13.1428 4.25857 13.2892 4.64888L15.1708 7.00003H19.1109C19.6631 7.00003 20.1109 7.44774 20.1109 8.00003V21C20.1109 21.5523 19.6631 22 19.1109 22H1C0.447716 22 0 21.5523 0 21V8.00003C0 7.44774 0.447715 7.00003 1 7.00003Z" fill="#F7F9FB"/>
</g>
<g id="Group 1321317717">
<g id="Union_2">
<path fill-rule="evenodd" clip-rule="evenodd" d="M5.54582 14C5.54582 11.5147 7.56053 9.5 10.0458 9.5C12.5311 9.5 14.5458 11.5147 14.5458 14C14.5458 16.4853 12.5311 18.5 10.0458 18.5C7.56053 18.5 5.54582 16.4853 5.54582 14ZM10.0458 11.5C8.6651 11.5 7.54582 12.6193 7.54582 14C7.54582 15.3807 8.6651 16.5 10.0458 16.5C11.4265 16.5 12.5458 15.3807 12.5458 14C12.5458 12.6193 11.4265 11.5 10.0458 11.5Z" fill="#1A1A1E"/>
<path fill-rule="evenodd" clip-rule="evenodd" d="M5.54582 14C5.54582 11.5147 7.56053 9.5 10.0458 9.5C12.5311 9.5 14.5458 11.5147 14.5458 14C14.5458 16.4853 12.5311 18.5 10.0458 18.5C7.56053 18.5 5.54582 16.4853 5.54582 14ZM10.0458 11.5C8.6651 11.5 7.54582 12.6193 7.54582 14C7.54582 15.3807 8.6651 16.5 10.0458 16.5C11.4265 16.5 12.5458 15.3807 12.5458 14C12.5458 12.6193 11.4265 11.5 10.0458 11.5Z" fill="black" fill-opacity="0.2"/>
<path fill-rule="evenodd" clip-rule="evenodd" d="M1 7.00003H4.92081L6.80249 4.64888C6.94886 4.25857 7.32198 4 7.73882 4H12.3528C12.7697 4 13.1428 4.25857 13.2892 4.64888L15.1708 7.00003H19.1109C19.6631 7.00003 20.1109 7.44774 20.1109 8.00003V21C20.1109 21.5523 19.6631 22 19.1109 22H1C0.447716 22 0 21.5523 0 21V8.00003C0 7.44774 0.447715 7.00003 1 7.00003ZM14.2098 9.00003H18.1109V20H2V9.00003H5.88182L8.28281 6H11.8088L14.2098 9.00003Z" fill="#1A1A1E"/>
<path fill-rule="evenodd" clip-rule="evenodd" d="M1 7.00003H4.92081L6.80249 4.64888C6.94886 4.25857 7.32198 4 7.73882 4H12.3528C12.7697 4 13.1428 4.25857 13.2892 4.64888L15.1708 7.00003H19.1109C19.6631 7.00003 20.1109 7.44774 20.1109 8.00003V21C20.1109 21.5523 19.6631 22 19.1109 22H1C0.447716 22 0 21.5523 0 21V8.00003C0 7.44774 0.447715 7.00003 1 7.00003ZM14.2098 9.00003H18.1109V20H2V9.00003H5.88182L8.28281 6H11.8088L14.2098 9.00003Z" fill="black" fill-opacity="0.2"/>
</g>
</g>
</g>
</svg>
