<svg width="24" height="24" viewBox="0 0 24 24" fill="none" xmlns="http://www.w3.org/2000/svg">
<g id="&#231;&#188;&#150;&#231;&#187;&#132; 62">
<g id="&#231;&#188;&#150;&#231;&#187;&#132; 108">
<path id="&#231;&#159;&#169;&#229;&#189;&#162;" d="M19.4294 11.292L13.0688 4.93132L15.6791 2.32098C16.2981 1.70197 17.3017 1.70197 17.9207 2.32098L22.0398 6.44003C22.6588 7.05903 22.6588 8.06264 22.0398 8.68165L19.4294 11.292Z" fill="currentColor"/>
<path id="&#231;&#159;&#169;&#229;&#189;&#162;_2" fill-rule="evenodd" clip-rule="evenodd" d="M11.111 18.7313C10.977 18.8653 10.8094 18.9608 10.6258 19.0078L4.06081 20.6877C3.82746 20.7474 3.61539 20.5353 3.6751 20.302L5.35499 13.737C5.40198 13.5534 5.49749 13.3858 5.63151 13.2517L14.5015 4.38174L19.981 9.86126L11.111 18.7313Z" stroke="currentColor" stroke-width="1.25349"/>
<path id="&#231;&#159;&#169;&#229;&#189;&#162;_3" fill-rule="evenodd" clip-rule="evenodd" d="M4.17969 18.8608L5.48224 20.1634L4.61724 21.0284L3.54146 20.8208L3.31469 19.7258L4.17969 18.8608Z" fill="currentColor"/>
<path id="&#232;&#183;&#175;&#229;&#190;&#132; 4" d="M5.93908 13.6283L8.88935 15.2673C8.9756 15.3153 9.04671 15.3864 9.09463 15.4726L10.7337 18.4229" stroke="currentColor" stroke-width="1.25349" stroke-linecap="square"/>
<rect id="&#231;&#159;&#169;&#229;&#189;&#162;_4" x="12.7886" y="10.8887" width="1.25349" height="5.81191" rx="0.626747" transform="rotate(45 12.7886 10.8887)" fill="currentColor"/>
</g>
</g>
</svg>
