<svg xmlns="http://www.w3.org/2000/svg" width="22" height="22" viewBox="0 0 22 22" fill="none">
    <path fill-rule="evenodd" clip-rule="evenodd" d="M8.19248 4.58333C8.19248 4.07707 8.60289 3.66666 9.10915 3.66666H12.7758C13.2821 3.66666 13.6925 4.07707 13.6925 4.58333V5.50158L17.662 5.50219C17.979 4.95426 18.5714 4.58562 19.25 4.58562C20.2625 4.58562 21.0833 5.40644 21.0833 6.41896C21.0833 7.43148 20.2625 8.25229 19.25 8.25229C18.5714 8.25229 17.9789 7.88356 17.6619 7.33552L15.7773 7.33523C17.3091 8.68434 18.2756 10.6603 18.2756 12.862H19.1923C19.6985 12.862 20.1089 13.2724 20.1089 13.7786V17.4453C20.1089 17.9516 19.6985 18.362 19.1923 18.362H15.5256C15.0193 18.362 14.6089 17.9516 14.6089 17.4453V13.7786C14.6089 13.2724 15.0193 12.862 15.5256 12.862H16.4423C16.4423 10.8216 15.337 9.03939 13.6925 8.08141V8.25C13.6925 8.75626 13.2821 9.16666 12.7758 9.16666H9.10915C8.60289 9.16666 8.19248 8.75626 8.19248 8.25V8.04824C6.51618 8.99787 5.38497 10.7978 5.38497 12.862H6.35893C6.86519 12.862 7.27559 13.2724 7.27559 13.7786V17.4453C7.27559 17.9516 6.86519 18.362 6.35893 18.362H2.69226C2.186 18.362 1.77559 17.9516 1.77559 17.4453V13.7786C1.77559 13.2724 2.186 12.862 2.69226 12.862H3.55164C3.55164 10.6595 4.51883 8.68287 6.05166 7.33373L4.22297 7.33344C3.90596 7.88137 3.31351 8.25 2.63497 8.25C1.62245 8.25 0.801636 7.42919 0.801636 6.41666C0.801636 5.40414 1.62245 4.58333 2.63497 4.58333C3.31361 4.58333 3.90612 4.95206 4.2231 5.50011L8.19248 5.50072V4.58333ZM11.8592 7.33333H10.0258V5.5H11.8592V7.33333ZM3.60893 16.5286V14.6953H5.44226V16.5286H3.60893ZM16.4423 14.6953V16.5286H18.2756V14.6953H16.4423Z" fill="black"/>
</svg>