<svg width="28" height="28" viewBox="0 0 28 28" fill="none" xmlns="http://www.w3.org/2000/svg">
<g id="&#229;&#175;&#185;&#232;&#177;&#161;&#231;&#177;&#187;&#229;&#158;&#139;">
<path id="Union" fill-rule="evenodd" clip-rule="evenodd" d="M10.5968 6.22268C10.5968 5.60903 11.0942 5.11157 11.7079 5.11157H16.1523C16.766 5.11157 17.2635 5.60903 17.2635 6.22268V7.33571L22.075 7.33645C22.4592 6.6723 23.1773 6.22546 23.9998 6.22546C25.2271 6.22546 26.2221 7.22039 26.2221 8.44769C26.2221 9.67499 25.2271 10.6699 23.9998 10.6699C23.1772 10.6699 22.459 10.223 22.0748 9.55868L19.7905 9.55832C21.6472 11.1936 22.8187 13.5887 22.8187 16.2574H23.9298C24.5435 16.2574 25.041 16.7549 25.041 17.3685V21.813C25.041 22.4266 24.5435 22.9241 23.9298 22.9241H19.4854C18.8718 22.9241 18.3743 22.4266 18.3743 21.813V17.3685C18.3743 16.7549 18.8718 16.2574 19.4854 16.2574H20.5965C20.5965 13.7842 19.2568 11.624 17.2635 10.4628V10.6671C17.2635 11.2808 16.766 11.7782 16.1523 11.7782H11.7079C11.0942 11.7782 10.5968 11.2808 10.5968 10.6671V10.4226C8.5649 11.5736 7.19374 13.7554 7.19374 16.2574H8.37429C8.98794 16.2574 9.4854 16.7549 9.4854 17.3685V21.813C9.4854 22.4266 8.98794 22.9241 8.37429 22.9241H3.92985C3.3162 22.9241 2.81874 22.4266 2.81874 21.813V17.3685C2.81874 16.7549 3.3162 16.2574 3.92985 16.2574H4.97152C4.97152 13.5877 6.14388 11.1918 8.00185 9.5565L5.78525 9.55615C5.401 10.2203 4.68288 10.6671 3.86041 10.6671C2.63311 10.6671 1.63818 9.6722 1.63818 8.44491C1.63818 7.21761 2.63311 6.22268 3.86041 6.22268C4.683 6.22268 5.4012 6.66963 5.78541 7.33393L10.5968 7.33468V6.22268ZM15.0412 9.55602H12.819V7.33379H15.0412V9.55602ZM5.04096 20.7019V18.4796H7.26318V20.7019H5.04096ZM20.5965 18.4796V20.7019H22.8187V18.4796H20.5965Z" fill="#545458"/>
</g>
</svg>
