<svg width="36" height="36" viewBox="0 0 36 36" fill="none" xmlns="http://www.w3.org/2000/svg">
  <!-- <path d="M0 1C0 0.447716 0.447715 0 1 0H35C35.5523 0 36 0.447715 36 1V35C36 35.5523 35.5523
  36 35 36H1C0.447716 36 0 35.5523 0 35V1Z" fill="currentColor" fill-opacity="0.1"/> -->
  <path fill-rule="evenodd" clip-rule="evenodd"
    d="M18.0001 24.6667C21.682 24.6667 24.6667 21.682 24.6667 18.0001C24.6667 14.3182 21.682 11.3334 18.0001 11.3334C14.3182 11.3334 11.3334 14.3182 11.3334 18.0001C11.3334 21.682 14.3182 24.6667 18.0001 24.6667ZM18.0001 26.3334C22.6025 26.3334 26.3334 22.6025 26.3334 18.0001C26.3334 13.3977 22.6025 9.66675 18.0001 9.66675C13.3977 9.66675 9.66675 13.3977 9.66675 18.0001C9.66675 22.6025 13.3977 26.3334 18.0001 26.3334Z"
    fill="currentColor" />
</svg>
