<svg width="28" height="28" viewBox="0 0 28 28" fill="none" xmlns="http://www.w3.org/2000/svg">
<g id="&#229;&#175;&#185;&#232;&#177;&#161;&#231;&#177;&#187;&#229;&#158;&#139;">
<g id="Union">
<path fill-rule="evenodd" clip-rule="evenodd" d="M3.82086 12.1998C3.60703 12.5702 3.87432 13.0332 4.30199 13.0332H13.63C14.0577 13.0332 14.325 12.5702 14.1111 12.1998L9.44713 4.12153C9.23329 3.75116 8.69871 3.75116 8.48488 4.12153L3.82086 12.1998ZM8.966 7.73264L7.18874 10.8109H10.7433L8.966 7.73264Z" fill="#545458"/>
<path d="M22.5605 12.9219L19.8107 10.172L17.0608 12.9219L15.4895 11.3506L18.2393 8.60069L15.4895 5.85083L17.0608 4.27949L19.8107 7.02935L22.5605 4.27949L24.1319 5.85083L21.382 8.60069L24.1319 11.3506L22.5605 12.9219Z" fill="#545458"/>
<path fill-rule="evenodd" clip-rule="evenodd" d="M15.3663 16.3785C15.3663 15.7648 15.8638 15.2674 16.4774 15.2674H23.1441C23.7577 15.2674 24.2552 15.7648 24.2552 16.3785V23.0451C24.2552 23.6588 23.7577 24.1563 23.1441 24.1563H16.4774C15.8638 24.1563 15.3663 23.6588 15.3663 23.0451V16.3785ZM17.5885 21.934V17.4896H22.033V21.934H17.5885Z" fill="#545458"/>
<path fill-rule="evenodd" clip-rule="evenodd" d="M13.6882 19.434C13.6882 22.042 11.574 24.1563 8.96601 24.1563C6.358 24.1563 4.24379 22.042 4.24379 19.434C4.24379 16.826 6.358 14.7118 8.96601 14.7118C11.574 14.7118 13.6882 16.826 13.6882 19.434ZM11.466 19.434C11.466 20.8147 10.3467 21.934 8.96601 21.934C7.5853 21.934 6.46601 20.8147 6.46601 19.434C6.46601 18.0533 7.5853 16.934 8.96601 16.934C10.3467 16.934 11.466 18.0533 11.466 19.434Z" fill="#545458"/>
</g>
</g>
</svg>
