<svg width="36" height="36" viewBox="0 0 36 36" fill="none" xmlns="http://www.w3.org/2000/svg">
  <!-- <path d="M0 1C0 0.447716 0.447715 0 1 0H35C35.5523 0 36 0.447715 36 1V35C36 35.5523 35.5523
  36 35 36H1C0.447716 36 0 35.5523 0 35V1Z" fill="currentColor" fill-opacity="0.1"/> -->
  <path fill-rule="evenodd" clip-rule="evenodd"
    d="M11.3334 23.8333V12.1667H24.6667V23.8333H11.3334ZM9.66675 11.3333C9.66675 10.8731 10.0398 10.5 10.5001 10.5H25.5001C25.9603 10.5 26.3334 10.8731 26.3334 11.3333V24.6667C26.3334 25.1269 25.9603 25.5 25.5001 25.5H10.5001C10.0398 25.5 9.66675 25.1269 9.66675 24.6667V11.3333ZM19.7021 16.2743L23.4167 21.3333L12.5834 21.3333L15.107 18L16.753 20.2156L19.7021 16.2743Z"
    fill="currentColor" />
</svg>
