<svg width="36" height="36" viewBox="0 0 36 36" fill="none" xmlns="http://www.w3.org/2000/svg">
  <!-- <path d="M0 1C0 0.447716 0.447715 0 1 0H35C35.5523 0 36 0.447715 36 1V35C36 35.5523 35.5523
  36 35 36H1C0.447716 36 0 35.5523 0 35V1Z" fill="currentColor" fill-opacity="0.1"/> -->
  <path fill-rule="evenodd" clip-rule="evenodd"
    d="M10.5 10.6667C10.5 10.1145 10.9477 9.66675 11.5 9.66675H24.5C25.0523 9.66675 25.5 10.1145 25.5 10.6667V14.0001H23.8333V11.3334H18.8333V24.6667H21.8889V26.3334H14.1111V24.6667H17.1667V11.3334H12.1667V14.0001H10.5V10.6667Z"
    fill="currentColor" />
</svg>
