<svg width="28" height="28" viewBox="0 0 28 28" fill="none" xmlns="http://www.w3.org/2000/svg">
<rect width="28" height="28" rx="2" fill="#C793ED"/>
<path d="M7.6556 11.1511L7.77237 11.5836C7.85058 11.8733 8.05715 12.1111 8.33297 12.2292L8.71933 12.3945C8.85378 12.452 8.91613 12.6076 8.8586 12.7421C8.82561 12.8192 8.75803 12.8761 8.67643 12.8955L8.48722 12.9405C8.12517 13.0266 7.84313 13.3104 7.75921 13.6729L7.6556 14.1205C7.62483 14.2534 7.49217 14.3362 7.35929 14.3054C7.26739 14.2842 7.19564 14.2124 7.17437 14.1205L7.07076 13.6729C6.98683 13.3104 6.70479 13.0266 6.34275 12.9405L6.15354 12.8955C6.01127 12.8617 5.92336 12.7189 5.9572 12.5767C5.9766 12.4951 6.03352 12.4275 6.11064 12.3945L6.49699 12.2292C6.77282 12.1111 6.97939 11.8733 7.05759 11.5836L7.17437 11.1511C7.21025 11.0182 7.34706 10.9396 7.47995 10.9755C7.56558 10.9986 7.63247 11.0655 7.6556 11.1511Z" fill="#4C084D"/>
<path d="M14.0469 5.25C16.3021 5.25 18.1302 7.07817 18.1302 9.33333C18.1302 10.995 17.1376 12.4249 15.713 13.0624L15.9138 15.8667H19.3552C20.2573 15.8667 20.9886 16.5979 20.9886 17.5V19.1333C20.9886 19.3588 20.8057 19.5417 20.5802 19.5417H7.51356C7.28804 19.5417 7.10522 19.3588 7.10522 19.1333V17.5C7.10522 16.5979 7.83649 15.8667 8.73856 15.8667H12.18L12.3816 13.0627C11.0074 12.4482 10.035 11.0965 9.96733 9.51046L9.96356 9.33333C9.96356 7.07817 11.7917 5.25 14.0469 5.25Z" fill="#747A7A" fill-opacity="0.1"/>
<path d="M14.0469 5.25C16.3021 5.25 18.1302 7.07817 18.1302 9.33333C18.1302 10.995 17.1376 12.4249 15.713 13.0624L15.9138 15.8667H19.3552C20.2573 15.8667 20.9886 16.5979 20.9886 17.5C20.9886 17.9204 20.9886 19.5417 20.9886 19.5417H7.10522C7.10522 19.5417 7.10522 17.9204 7.10522 17.5C7.10522 16.5979 7.83649 15.8667 8.73856 15.8667H12.18L12.3816 13.0627C11.0074 12.4482 10.035 11.0965 9.96733 9.51046L9.96356 9.33333C9.96356 7.07817 11.7917 5.25 14.0469 5.25Z" fill="#4C084D"/>
<path d="M20.9998 20.3579H6.99976V21.7579H20.9998V20.3579Z" fill="#4C084D"/>
</svg>
