<svg width="20" height="20" viewBox="0 0 20 20" fill="none" xmlns="http://www.w3.org/2000/svg">
<g id="eye-off" clip-path="url(#clip0_448_37561)">
<path id="Vector" d="M14.9016 16.0802C13.436 17.0098 11.7356 17.5021 9.99996 17.4993C5.50663 17.4993 1.7683 14.266 0.984131 9.99932C1.34249 8.05825 2.31882 6.28507 3.76746 4.94432L1.15996 2.33932L2.33913 1.16016L18.8383 17.6602L17.6591 18.8385L14.9016 16.0802ZM4.9458 6.12432C3.8133 7.15398 3.02439 8.50664 2.6858 9.99932C2.94604 11.138 3.46852 12.2003 4.21163 13.1015C4.95475 14.0027 5.89799 14.718 6.96626 15.1904C8.03453 15.6628 9.19834 15.8794 10.365 15.8228C11.5317 15.7662 12.6691 15.438 13.6866 14.8643L11.9966 13.1743C11.2772 13.6275 10.4251 13.8227 9.58016 13.728C8.73519 13.6333 7.9475 13.2542 7.34627 12.653C6.74505 12.0518 6.36599 11.2641 6.27127 10.4191C6.17654 9.57416 6.37178 8.72208 6.82496 8.00266L4.9458 6.12432ZM10.7616 11.9393L8.05996 9.23766C7.91168 9.6151 7.87679 10.0276 7.95955 10.4246C8.04232 10.8216 8.23914 11.1858 8.5259 11.4726C8.81265 11.7593 9.17685 11.9561 9.57384 12.0389C9.97083 12.1217 10.3834 12.0868 10.7608 11.9385L10.7616 11.9393ZM17.3391 13.826L16.1466 12.6343C16.7037 11.8404 17.1003 10.9453 17.3141 9.99932C17.0877 9.00743 16.6618 8.07194 16.0626 7.24973C15.4633 6.42753 14.7031 5.73576 13.8282 5.21649C12.9533 4.69722 11.9819 4.3613 10.9731 4.22913C9.96428 4.09696 8.93913 4.17131 7.95996 4.44766L6.64496 3.13266C7.68413 2.72432 8.81663 2.49932 9.99996 2.49932C14.4933 2.49932 18.2316 5.73266 19.0158 9.99932C18.7605 11.3874 18.1865 12.6973 17.3391 13.826ZM9.76913 6.25599C10.2996 6.22321 10.8309 6.30354 11.3279 6.49167C11.8249 6.6798 12.2763 6.97142 12.6521 7.3472C13.0279 7.72298 13.3195 8.17435 13.5076 8.67137C13.6957 9.1684 13.7761 9.69973 13.7433 10.2302L9.76913 6.25599Z" fill="#545458"/>
</g>
<defs>
<clipPath id="clip0_448_37561">
<rect width="20" height="20" fill="white"/>
</clipPath>
</defs>
</svg>
