<svg width="28" height="28" viewBox="0 0 28 28" fill="none" xmlns="http://www.w3.org/2000/svg">
<g id="Subtract">
<path id="Subtract_2" fill-rule="evenodd" clip-rule="evenodd" d="M4 0C1.79086 0 0 1.79086 0 4V24C0 26.2091 1.79086 28 4 28H24C26.2091 28 28 26.2091 28 24V4C28 1.79086 26.2091 0 24 0H4ZM11 13.4907V16.4944H17V13.4907H21L14.7526 6.34193C14.3889 5.92578 13.7571 5.88361 13.3415 6.24774C13.3081 6.27701 13.2767 6.30848 13.2474 6.34193L7 13.4907H11ZM17 16.995H11V17.9963H17V16.995ZM11 18.4969H17V19.4981H11V18.4969ZM17 19.9988H11V21H17V19.9988Z" fill="#28BE44"/>
</g>
</svg>
