<svg width="124" height="124" viewBox="0 0 124 124" fill="none" xmlns="http://www.w3.org/2000/svg">
<path id="&#232;&#183;&#175;&#229;&#190;&#132;" d="M76 0.5C80.1421 0.5 83.5 3.85786 83.5 8V36C83.5 38.4853 85.5147 40.5 88 40.5H116C120.142 40.5 123.5 43.8579 123.5 48V76C123.5 80.1421 120.142 83.5 116 83.5H88C85.5147 83.5 83.5 85.5147 83.5 88V116C83.5 120.142 80.1421 123.5 76 123.5H48C43.8579 123.5 40.5 120.142 40.5 116V88C40.5 85.5147 38.4853 83.5 36 83.5H8C3.85787 83.5 0.5 80.1421 0.5 76V48C0.5 43.8579 3.85786 40.5 8 40.5H36C38.4853 40.5 40.5 38.4853 40.5 36V8C40.5 3.85786 43.8579 0.5 48 0.5H76Z" stroke="#D9D9DE"/>
</svg>
