<svg width="28" height="28" viewBox="0 0 28 28" fill="none" xmlns="http://www.w3.org/2000/svg">
<g id="Subtract">
<path id="Subtract_2" fill-rule="evenodd" clip-rule="evenodd" d="M4 0C1.79086 0 0 1.79086 0 4V24C0 26.2091 1.79086 28 4 28H24C26.2091 28 28 26.2091 28 24V4C28 1.79086 26.2091 0 24 0H4ZM14 7C14.9514 7.00001 15.8589 7.18483 16.7222 7.55422C17.5852 7.92364 18.3292 8.41943 18.9543 9.0456C19.5794 9.66973 20.0764 10.4144 20.4458 11.2778C20.8154 12.1411 21 13.0492 21 14C21 14.9509 20.8155 15.857 20.4458 16.7222C20.0764 17.5856 19.5794 18.3283 18.9543 18.9524C18.3292 19.5786 17.5852 20.0764 16.7222 20.4458C15.8589 20.8133 14.9514 21 13.9999 21C13.0485 21 12.1412 20.8133 11.2779 20.4458C10.4146 20.0764 9.67075 19.5786 9.04569 18.9524C8.42062 18.3283 7.92383 17.5856 7.55422 16.7222C7.18461 15.857 7 14.9508 7 14C7 13.0491 7.18452 12.1411 7.55422 11.2778C7.92383 10.4144 8.42064 9.66971 9.04569 9.0456C9.67084 8.41941 10.4146 7.92364 11.2779 7.55413C12.1412 7.1848 13.0485 7 14 7ZM14.6363 8.30668V10.1811C14.6363 10.358 14.5741 10.5077 14.4493 10.6323C14.3255 10.7567 14.1751 10.8189 13.9994 10.8189C13.8237 10.8189 13.6738 10.7567 13.5497 10.6323C13.4249 10.5077 13.3629 10.358 13.3629 10.1811V8.30667C12.7062 8.3806 12.0843 8.56147 11.4961 8.84922C10.9079 9.13697 10.3918 9.50442 9.94709 9.94775C9.50303 10.393 9.13669 10.9083 8.84847 11.4976C8.56027 12.0847 8.37965 12.707 8.30676 13.3623H10.1813C10.357 13.3623 10.507 13.4264 10.6309 13.5508C10.7559 13.6753 10.8177 13.825 10.8177 14C10.8177 14.177 10.7558 14.3248 10.6309 14.4511C10.5069 14.5736 10.357 14.6359 10.1813 14.6359H8.30667C8.37946 15.293 8.56017 15.9153 8.84837 16.5025C9.13659 17.0917 9.50293 17.6069 9.947 18.0522C10.3912 18.4974 10.9078 18.863 11.496 19.1508C12.0843 19.4386 12.7071 19.6194 13.3627 19.6933V17.8189C13.3627 17.642 13.4248 17.4922 13.5497 17.3677C13.6738 17.2433 13.8236 17.1811 13.9994 17.1811C14.175 17.1811 14.3254 17.2433 14.4492 17.3677C14.574 17.4922 14.6362 17.642 14.6362 17.8189V19.6933C15.2929 19.6194 15.9145 19.4385 16.5029 19.1508C17.0912 18.863 17.6071 18.4956 18.0512 18.0522C18.496 17.607 18.8623 17.0917 19.1503 16.5024C19.4387 15.9153 19.6189 15.293 19.692 14.6358H17.8179C17.6419 14.6358 17.492 14.5736 17.3681 14.4511C17.2431 14.3247 17.1813 14.177 17.1813 14C17.1813 13.825 17.2431 13.6752 17.3681 13.5508C17.492 13.4264 17.6419 13.3623 17.8179 13.3623H19.692C19.6191 12.707 19.4386 12.0847 19.1503 11.4975C18.8623 10.9083 18.496 10.3931 18.0512 9.94775C17.6075 9.50256 17.0912 9.13697 16.503 8.8492C15.9146 8.56139 15.292 8.38061 14.6363 8.30668Z" fill="#28BE44"/>
</g>
</svg>
