<svg width="18" height="18" viewBox="0 0 18 18" fill="none" xmlns="http://www.w3.org/2000/svg">
<g id="&#231;&#188;&#150;&#231;&#187;&#132; 32&#229;&#164;&#135;&#228;&#187;&#189;">
<path id="&#229;&#189;&#162;&#231;&#138;&#182;&#229;&#164;&#135;&#228;&#187;&#189;" fill-rule="evenodd" clip-rule="evenodd" d="M16.875 9C16.875 4.65076 13.3492 1.125 9 1.125C4.65076 1.125 1.125 4.65076 1.125 9C1.125 13.3492 4.65076 16.875 9 16.875C13.3492 16.875 16.875 13.3492 16.875 9ZM1.78125 9C1.78125 5.01319 5.01319 1.78125 9 1.78125C12.9868 1.78125 16.2188 5.01319 16.2188 9C16.2188 12.9868 12.9868 16.2188 9 16.2188C5.01319 16.2188 1.78125 12.9868 1.78125 9ZM10.4446 7.29585L8.95196 12.507L8.8729 12.8153C8.84325 12.945 8.82843 13.0379 8.82843 13.0929C8.82843 13.1465 8.85074 13.1966 8.89363 13.2433C8.93652 13.2899 8.98284 13.3124 9.0326 13.3124C9.11495 13.3124 9.1973 13.2761 9.27966 13.2018C9.49755 13.0203 9.76005 12.6936 10.0654 12.22L10.3125 12.367C9.5799 13.6529 8.8027 14.2959 7.97745 14.2959C7.66176 14.2959 7.41127 14.206 7.22426 14.0279C7.03725 13.8499 6.94461 13.6235 6.94461 13.3504C6.94461 13.1689 6.98578 12.9408 7.06814 12.6608L8.07868 9.15733C8.17647 8.8203 8.22451 8.56622 8.22451 8.39511C8.22451 8.28795 8.17819 8.19289 8.08554 8.10992C7.99289 8.02696 7.86765 7.98548 7.70809 7.98548L7.44559 7.99239L7.53995 7.69857L10.0054 7.29585H10.4446ZM10.1064 4.13667C9.881 3.91008 9.60295 3.79585 9.27418 3.79585C8.94917 3.79585 8.67488 3.91008 8.44944 4.13667C8.224 4.36514 8.11127 4.64042 8.11127 4.96252C8.11127 5.28462 8.224 5.5599 8.4532 5.78836C8.6824 6.01495 8.95481 6.12918 9.27418 6.12918C9.59732 6.12918 9.87349 6.01682 10.1027 5.78836C10.33 5.5599 10.4446 5.28462 10.4446 4.96252C10.4446 4.64042 10.3319 4.36514 10.1064 4.13667Z" fill="#333333"/>
</g>
</svg>
