<svg width="56" height="56" viewBox="0 0 56 56" fill="none" xmlns="http://www.w3.org/2000/svg">
<rect width="56" height="56" fill="white"/>
<rect x="-0.795518" y="0.477995" width="26.3136" height="33.2201" rx="1.96875" transform="matrix(-0.970296 -0.241922 -0.241922 0.970296 51.7767 20.6958)" fill="#1A1A1E" stroke="#1A1A1E" stroke-width="1.3125"/>
<rect x="2.34356" y="12.9748" width="26.3136" height="33.2201" rx="1.96875" transform="rotate(-18.473 2.34356 12.9748)" fill="white" stroke="#1A1A1E" stroke-width="1.3125"/>
<path d="M41.5931 49.3256H15.0803C13.993 49.3256 13.1116 48.4441 13.1116 47.3568V12.6448C13.1116 11.5575 13.993 10.676 15.0803 10.676H36.9286C36.9864 10.676 37.0419 10.6989 37.0829 10.7397L43.4974 17.1192C43.5387 17.1603 43.5619 17.2161 43.5619 17.2743V47.3568C43.5619 48.4441 42.6805 49.3256 41.5931 49.3256Z" fill="white" stroke="#1A1A1E" stroke-width="1.3125"/>
<path d="M36.6394 10.6333L43.7542 17.7481H36.6394V10.6333Z" fill="#1A1A1E"/>
<mask id="path-5-outside-1_3684_46683" maskUnits="userSpaceOnUse" x="20.2756" y="17.0811" width="16" height="16" fill="black">
<rect fill="white" x="20.2756" y="17.0811" width="16" height="16"/>
<path d="M34.2893 25.0879C34.2893 28.4054 31.5999 31.0947 28.2825 31.0947C24.965 31.0947 22.2756 28.4054 22.2756 25.0879C22.2756 21.7704 24.965 19.0811 28.2825 19.0811C31.5999 19.0811 34.2893 21.7704 34.2893 25.0879Z"/>
</mask>
<path d="M34.2893 25.0879C34.2893 28.4054 31.5999 31.0947 28.2825 31.0947C24.965 31.0947 22.2756 28.4054 22.2756 25.0879C22.2756 21.7704 24.965 19.0811 28.2825 19.0811C31.5999 19.0811 34.2893 21.7704 34.2893 25.0879Z" fill="#28BE44"/>
<path d="M32.9768 25.0879C32.9768 27.6805 30.8751 29.7822 28.2825 29.7822V32.4072C32.3248 32.4072 35.6018 29.1302 35.6018 25.0879H32.9768ZM28.2825 29.7822C25.6899 29.7822 23.5881 27.6805 23.5881 25.0879H20.9631C20.9631 29.1302 24.2401 32.4072 28.2825 32.4072V29.7822ZM23.5881 25.0879C23.5881 22.4953 25.6899 20.3936 28.2825 20.3936V17.7686C24.2401 17.7686 20.9631 21.0455 20.9631 25.0879H23.5881ZM28.2825 20.3936C30.8751 20.3936 32.9768 22.4953 32.9768 25.0879H35.6018C35.6018 21.0455 32.3248 17.7686 28.2825 17.7686V20.3936Z" fill="#1A1A1E" mask="url(#path-5-outside-1_3684_46683)"/>
<path d="M25.6077 25.0879L27.9439 27.4241L34.8589 20.5091" stroke="#1A1A1E" stroke-width="1.3125" stroke-linecap="square" stroke-linejoin="round"/>
<rect x="17.782" y="36.7827" width="18.8217" height="1.3125" fill="#1A1A1E"/>
<rect x="17.782" y="42.3767" width="15.0574" height="1.3125" fill="#1A1A1E"/>
<path d="M42.5205 2.64966V7.94175" stroke="#1A1A1E" stroke-width="1.3125"/>
<path d="M52.5723 12.5603H47.3765" stroke="#1A1A1E" stroke-width="1.3125"/>
<path d="M49.8533 5.29565L46.1112 9.03773" stroke="#1A1A1E" stroke-width="1.3125"/>
</svg>
