<svg width="20" height="20" viewBox="0 0 20 20" fill="none" xmlns="http://www.w3.org/2000/svg">
<path fill-rule="evenodd" clip-rule="evenodd" d="M13.8611 7.54356L13.9449 8.53954L14.863 8.9347C15.6819 9.28717 16.25 10.0998 16.25 11.0413C16.25 12.2368 15.3347 13.2184 14.1667 13.3237V14.9943C16.2559 14.886 17.9167 13.1576 17.9167 11.0413C17.9167 9.41055 16.9305 8.0101 15.5219 7.40382C15.283 4.56363 12.902 2.33301 10 2.33301C7.09802 2.33301 4.71702 4.56363 4.47805 7.40382C3.06952 8.0101 2.08333 9.41055 2.08333 11.0413C2.08333 13.1576 3.74405 14.886 5.83333 14.9943V13.3237C4.66531 13.2184 3.75 12.2368 3.75 11.0413C3.75 10.0998 4.31811 9.28717 5.13699 8.9347L6.05505 8.53954L6.13885 7.54356C6.3058 5.5593 7.97164 3.99967 10 3.99967C12.0284 3.99967 13.6942 5.5593 13.8611 7.54356ZM10.8333 12.0116L12.357 13.5353L13.5355 12.3567L10.8839 9.70509C10.3957 9.21694 9.60427 9.21694 9.11612 9.70509L6.46447 12.3567L7.64298 13.5353L9.16667 12.0116V17.5H10.8333V12.0116Z" fill="#36363A"/>
</svg>
