<svg width="40" height="40" viewBox="0 0 40 40" fill="none" xmlns="http://www.w3.org/2000/svg">
<g id=" Photograph">
<path id="Union" fill-rule="evenodd" clip-rule="evenodd" d="M25.1473 13.1385L26.0147 14.2223H27.4028H30.8334V30.1111H9.16672V14.2223H12.5973H13.9854L14.8527 13.1385L17.4535 9.88888H22.5466L25.1473 13.1385ZM7.72227 11.3334H12.5973L15.3152 7.93726C15.5266 7.37349 16.0656 7 16.6677 7H23.3324C23.9345 7 24.4734 7.37349 24.6848 7.93726L27.4028 11.3334H32.2778C33.0755 11.3334 33.7222 11.9801 33.7222 12.7778V31.5556C33.7222 32.3533 33.0755 33 32.2778 33H7.72228C6.92453 33 6.27783 32.3533 6.27783 31.5556V12.7778C6.27783 11.9801 6.92453 11.3334 7.72227 11.3334ZM20 15.6667C16.4102 15.6667 13.5 18.5768 13.5 22.1666C13.5 25.7565 16.4102 28.6666 20 28.6666C23.5899 28.6666 26.5 25.7565 26.5 22.1666C26.5 18.5768 23.5899 15.6667 20 15.6667ZM16.3889 22.1666C16.3889 20.1723 18.0057 18.5555 20 18.5555C21.9944 18.5555 23.6111 20.1723 23.6111 22.1666C23.6111 24.161 21.9944 25.7778 20 25.7778C18.0057 25.7778 16.3889 24.161 16.3889 22.1666Z" fill="currentColor"/>
</g>
</svg>
