<svg width="17" height="18" viewBox="0 0 17 18" fill="none" xmlns="http://www.w3.org/2000/svg">
<g id="Group 1321317488">
<g id="Group 1321317352">
<path id="Subtract" fill-rule="evenodd" clip-rule="evenodd" d="M8.64481 0.797863C8.56904 0.744788 8.46816 0.744788 8.39238 0.797863L0.343785 6.43546C0.285004 6.47663 0.25 6.54388 0.25 6.61565V17.0267C0.25 17.1482 0.348497 17.2467 0.47 17.2467H4.16431C4.28581 17.2467 4.38431 17.1482 4.38431 17.0267V10.0249C4.38431 9.90338 4.4828 9.80489 4.60431 9.80489H12.4329C12.5544 9.80489 12.6529 9.90338 12.6529 10.0249V17.0267C12.6529 17.1482 12.7514 17.2467 12.8729 17.2467H16.5672C16.6887 17.2467 16.7872 17.1482 16.7872 17.0267V6.61565C16.7872 6.54388 16.7522 6.47663 16.6934 6.43546L8.64481 0.797863ZM10.7792 17.2467C10.9007 17.2467 10.9992 17.1482 10.9992 17.0267V11.6786C10.9992 11.5571 10.9007 11.4586 10.7792 11.4586H6.25803C6.13652 11.4586 6.03803 11.5571 6.03803 11.6786V17.0267C6.03803 17.1482 6.13652 17.2467 6.25803 17.2467H10.7792Z" fill="#97999C"/>
</g>
<g id="Mask group">
<mask id="mask0_624_1404" style="mask-type:alpha" maskUnits="userSpaceOnUse" x="0" y="0" width="17" height="18">
<path id="Subtract_2" fill-rule="evenodd" clip-rule="evenodd" d="M8.64481 0.797863C8.56904 0.744788 8.46816 0.744788 8.39238 0.797863L0.343785 6.43546C0.285004 6.47663 0.25 6.54388 0.25 6.61565V17.0267C0.25 17.1482 0.348497 17.2467 0.47 17.2467H4.16431C4.28581 17.2467 4.38431 17.1482 4.38431 17.0267V10.0249C4.38431 9.90338 4.4828 9.80489 4.60431 9.80489H12.4329C12.5544 9.80489 12.6529 9.90338 12.6529 10.0249V17.0267C12.6529 17.1482 12.7514 17.2467 12.8729 17.2467H16.5672C16.6887 17.2467 16.7872 17.1482 16.7872 17.0267V6.61565C16.7872 6.54388 16.7522 6.47663 16.6934 6.43546L8.64481 0.797863ZM10.7792 17.2467C10.9007 17.2467 10.9992 17.1482 10.9992 17.0267V11.6786C10.9992 11.5571 10.9007 11.4586 10.7792 11.4586H6.25803C6.13652 11.4586 6.03803 11.5571 6.03803 11.6786V17.0267C6.03803 17.1482 6.13652 17.2467 6.25803 17.2467H10.7792Z" fill="#97999C"/>
</mask>
<g mask="url(#mask0_624_1404)">
<rect id="Rectangle 240647613" x="5.21112" y="10.6317" width="6.61488" height="9.92232" fill="#545458"/>
</g>
</g>
</g>
</svg>
