<svg width="20" height="20" viewBox="0 0 20 20" fill="none" xmlns="http://www.w3.org/2000/svg">
<g id="Frame">
<path id="Subtract" fill-rule="evenodd" clip-rule="evenodd" d="M10 18.3337C10 18.3336 10 18.3336 10 18.3335C10 15.1118 12.6117 12.5002 15.8334 12.5002C16.4125 12.5002 16.9718 12.5846 17.4999 12.7417V5.83366L13.3334 1.66699H3.33214C2.87297 1.66699 2.50006 2.03703 2.50006 2.49349V17.5072C2.50006 17.9542 2.87069 18.3337 3.32789 18.3337H10Z" fill="#36363A"/>
<path id="Union" fill-rule="evenodd" clip-rule="evenodd" d="M6.66669 7.5H8.42756L9.5993 8.67391L8.71886 9.5587L6.66669 7.5ZM13.121 7.7913L10.9189 10L13.4102 12.5H11.6493L10.0384 10.8848L8.42756 12.5H6.66669L11.6493 7.5H13.4102L13.121 7.7913Z" fill="#F7F9FB"/>
<path id="Vector" d="M15 18.3335L18.3334 15.8335L15 13.3335V14.896C13.1591 14.896 11.6667 16.2951 11.6667 18.021C11.6667 18.1063 11.6703 18.1908 11.6775 18.2743C12.1799 17.3804 13.1807 16.771 14.3334 16.771H15V18.3335Z" fill="#36363A"/>
</g>
</svg>
