<svg width="24" height="24" viewBox="0 0 24 24" fill="none" xmlns="http://www.w3.org/2000/svg">
<path fill-rule="evenodd" clip-rule="evenodd" d="M5.33984 9.15466L12.0001 5.30936L18.6604 9.15466V16.8453L12.0001 20.6906L5.33984 16.8453V9.15466ZM11.5001 3.28864C11.8095 3.11001 12.1907 3.11 12.5001 3.28864L20.1604 7.71129C20.4698 7.88992 20.6604 8.22005 20.6604 8.57731V17.4226C20.6604 17.7799 20.4698 18.11 20.1604 18.2886L12.5001 22.7113C12.1907 22.8899 11.8095 22.8899 11.5001 22.7113L3.83984 18.2886C3.53044 18.11 3.33984 17.7799 3.33984 17.4226V8.57731C3.33984 8.22005 3.53044 7.88992 3.83984 7.71129L11.5001 3.28864ZM13.5001 13C13.5001 13.8284 12.8285 14.5 12.0001 14.5C11.1717 14.5 10.5001 13.8284 10.5001 13C10.5001 12.1715 11.1717 11.5 12.0001 11.5C12.8285 11.5 13.5001 12.1715 13.5001 13ZM15.5001 13C15.5001 14.933 13.9331 16.5 12.0001 16.5C10.0671 16.5 8.5001 14.933 8.5001 13C8.5001 11.067 10.0671 9.49997 12.0001 9.49997C13.9331 9.49997 15.5001 11.067 15.5001 13Z" fill="#545458"/>
</svg>
