<svg width="24" height="24" viewBox="0 0 24 24" fill="none" xmlns="http://www.w3.org/2000/svg">
<path d="M11 18H13V16H11V18ZM12 6C9.79 6 8 7.79 8 10H10C10 8.9 10.9 8 12 8C13.1 8 14 8.9 14 10C14 12 11 11.75 11 15H13C13 12.75 16 12.5 16 10C16 7.79 14.21 6 12 6Z" fill="#545458"/>
<path fill-rule="evenodd" clip-rule="evenodd" d="M12 20.0625C16.4183 20.0625 20 16.4808 20 12.0625C20 7.64422 16.4183 4.0625 12 4.0625C7.58172 4.0625 4 7.64422 4 12.0625C4 16.4808 7.58172 20.0625 12 20.0625ZM12 22.0625C17.5228 22.0625 22 17.5853 22 12.0625C22 6.53965 17.5228 2.0625 12 2.0625C6.47715 2.0625 2 6.53965 2 12.0625C2 17.5853 6.47715 22.0625 12 22.0625Z" fill="#545458"/>
</svg>
