<svg width="20" height="20" viewBox="0 0 20 20" fill="none" xmlns="http://www.w3.org/2000/svg">
<g id="icon_template">
<path id="Vector" d="M8.44675 9.21759H3.22115C2.82175 9.21759 2.5 8.89344 2.5 8.49106V3.22653C2.5 2.82414 2.82175 2.5 3.22115 2.5H8.44675C8.84615 2.5 9.1679 2.82414 9.1679 3.22653V8.49106C9.1679 8.89344 8.84615 9.21759 8.44675 9.21759ZM3.94231 7.76453H7.72559V3.95306H3.94231V7.76453ZM16.7788 9.21759H11.5533C11.1538 9.21759 10.8321 8.89344 10.8321 8.49106V3.22653C10.8321 2.82414 11.1538 2.5 11.5533 2.5H16.7788C17.1783 2.5 17.5 2.82414 17.5 3.22653V8.49106C17.5 8.89344 17.1783 9.21759 16.7788 9.21759ZM12.2744 7.76453H16.0577V3.95306H12.2744V7.76453ZM8.44675 17.5H3.22115C2.82175 17.5 2.5 17.1759 2.5 16.7735V11.5089C2.5 11.1066 2.82175 10.7824 3.22115 10.7824H8.44675C8.84615 10.7824 9.1679 11.1066 9.1679 11.5089V16.7735C9.1679 17.1759 8.84615 17.5 8.44675 17.5ZM3.94231 16.0469H7.72559V12.2355H3.94231V16.0469ZM16.7788 17.5H11.5533C11.1538 17.5 10.8321 17.1759 10.8321 16.7735V11.5089C10.8321 11.1066 11.1538 10.7824 11.5533 10.7824H16.7788C17.1783 10.7824 17.5 11.1066 17.5 11.5089V16.7735C17.5 17.1759 17.1783 17.5 16.7788 17.5ZM12.2744 16.0469H16.0577V12.2355H12.2744V16.0469Z" fill="currentColor"/>
</g>
</svg>
