<svg width="20" height="20" viewBox="0 0 20 20" fill="none" xmlns="http://www.w3.org/2000/svg">
<g id="icon_topbar btn">
<g id="Union">
<path d="M4.81473 4.81498H3.33325C3.33325 4.00016 3.99992 3.3335 4.81473 3.3335V4.81498Z" fill="#545458"/>
<path d="M4.81473 10.7409H3.33325V9.25942H4.81473V10.7409Z" fill="#545458"/>
<path d="M7.7777 16.6668H6.29621V15.1853H7.7777V16.6668Z" fill="#545458"/>
<path d="M4.81473 7.77794H3.33325V6.29646H4.81473V7.77794Z" fill="#545458"/>
<path d="M9.25918 3.3335H10.7407V4.81498H9.25918V3.3335Z" fill="#545458"/>
<path d="M15.1851 4.81498V3.3335C15.9999 3.3335 16.6666 4.00016 16.6666 4.81498H15.1851Z" fill="#545458"/>
<path d="M4.81473 15.1853V16.6668C3.99992 16.6668 3.33325 16.0002 3.33325 15.1853H4.81473Z" fill="#545458"/>
<path d="M4.81473 13.7039H3.33325V12.2224H4.81473V13.7039Z" fill="#545458"/>
<path d="M6.29621 3.3335H7.7777V4.81498H6.29621V3.3335Z" fill="#545458"/>
<path d="M10.7407 16.6668H9.25918V15.1853H10.7407V16.6668Z" fill="#545458"/>
<path d="M16.6666 10.7409H15.1851V9.25942H16.6666V10.7409Z" fill="#545458"/>
<path d="M16.6666 15.1853C16.6666 16.0002 15.9999 16.6668 15.1851 16.6668V15.1853H16.6666Z" fill="#545458"/>
<path d="M16.6666 7.77794H15.1851V6.29646H16.6666V7.77794Z" fill="#545458"/>
<path d="M16.6666 13.7039H15.1851V12.2224H16.6666V13.7039Z" fill="#545458"/>
<path d="M13.7036 16.6668H12.2221V15.1853H13.7036V16.6668Z" fill="#545458"/>
<path d="M13.7036 4.81498H12.2221V3.3335H13.7036V4.81498Z" fill="#545458"/>
<path d="M9.25 10.7502V9.25024H10.75V10.7502H9.25Z" fill="#545458"/>
</g>
</g>
</svg>
