<svg width="20" height="20" viewBox="0 0 20 20" fill="none" xmlns="http://www.w3.org/2000/svg">
<g id="&#229;&#155;&#190;&#231;&#137;&#135;&#231;&#188;&#150;&#232;&#190;&#145;">
<g id="Vector">
<path fill-rule="evenodd" clip-rule="evenodd" d="M4.97239 7.71018L13.222 15.9598L16.1683 13.0135L7.91867 4.7639L4.97239 7.71018ZM3.20463 7.12093C2.87919 7.44636 2.87919 7.974 3.20463 8.29944L12.6327 17.7275C12.9582 18.053 13.4858 18.053 13.8112 17.7275L17.936 13.6027C18.2615 13.2773 18.2615 12.7497 17.936 12.4242L8.50793 2.99614C8.18249 2.6707 7.65485 2.6707 7.32942 2.99614L3.20463 7.12093Z" fill="currentColor"/>
<path fill-rule="evenodd" clip-rule="evenodd" d="M4.97239 7.71018L6.74016 9.47795L9.68644 6.53167L7.91867 4.7639L4.97239 7.71018ZM3.20463 7.12093C2.87919 7.44636 2.87919 7.974 3.20463 8.29944L6.15091 11.2457C6.47634 11.5712 7.00398 11.5712 7.32942 11.2457L11.4542 7.12093C11.7796 6.79549 11.7796 6.26785 11.4542 5.94241L8.50793 2.99614C8.18249 2.6707 7.65485 2.6707 7.32942 2.99614L3.20463 7.12093Z" fill="currentColor"/>
<path d="M13.1956 4.24955C14.1642 4.3414 14.9241 5.1096 15.0159 6.06986C15.0326 6.23686 15.2748 6.23686 15.2915 6.06986C15.3833 5.10125 16.1515 4.3414 17.1118 4.24955C17.2788 4.23285 17.2788 3.9907 17.1118 3.974C16.1432 3.88215 15.3833 3.11395 15.2915 2.15369C15.2748 1.98669 15.0326 1.98669 15.0159 2.15369C14.9241 3.1223 14.1559 3.88215 13.1956 3.974C13.0286 3.9907 13.0286 4.23285 13.1956 4.24955Z" fill="currentColor"/>
<path d="M5.86173 13.9741C4.89312 13.8822 4.13327 13.114 4.04142 12.1537C4.02472 11.9867 3.78257 11.9867 3.76587 12.1537C3.67402 13.1223 2.90582 13.8822 1.94556 13.9741C1.77856 13.9908 1.77856 14.2329 1.94556 14.2496C2.91417 14.3415 3.67402 15.1097 3.76587 16.0699C3.78257 16.2369 4.02472 16.2369 4.04142 16.0699C4.13327 15.1013 4.90147 14.3415 5.86173 14.2496C6.02873 14.2329 6.02873 13.9908 5.86173 13.9741Z" fill="currentColor"/>
</g>
</g>
</svg>
