<svg width="22" height="22" viewBox="0 0 22 22" fill="none" xmlns="http://www.w3.org/2000/svg">
<g id="Frame">
<path id="Vector" d="M17.2683 2.75C17.7698 2.75 18.1763 3.16041 18.1763 3.66667V5.27725L16.3604 7.11058V4.58333H3.64936V12.0083L7.28109 8.34213L11.2106 12.3099L10.006 13.5265L10.0003 17.4121L13.8558 17.4178L15.063 16.1984L16.2692 17.4167H16.3604V14.8885L18.1763 13.0552V18.3333C18.1763 18.8396 17.7698 19.25 17.2683 19.25H2.74143C2.24 19.25 1.8335 18.8396 1.8335 18.3333V3.66667C1.8335 3.16041 2.24 2.75 2.74143 2.75H17.2683ZM18.8828 7.15698L20.1668 8.45334L13.1048 15.5833L11.8188 15.5814L11.8208 14.287L18.8828 7.15698ZM13.1827 6.41667C13.9348 6.41667 14.5445 7.03227 14.5445 7.79167C14.5445 8.55106 13.9348 9.16667 13.1827 9.16667C12.4305 9.16667 11.8208 8.55106 11.8208 7.79167C11.8208 7.03227 12.4305 6.41667 13.1827 6.41667Z" fill="#1A1A1E"/>
</g>
</svg>
