<svg width="24" height="24" viewBox="0 0 24 24" fill="none" xmlns="http://www.w3.org/2000/svg">
<path fill-rule="evenodd" clip-rule="evenodd" d="M1 6.75C1 6.33579 1.33579 6 1.75 6H22.25C22.6642 6 23 6.33579 23 6.75V17.25C23 17.6642 22.6642 18 22.25 18H1.75C1.33579 18 1 17.6642 1 17.25V6.75ZM2 7H22V17H2V7ZM7.0089 9C7.5414 9 7.9614 9.1275 8.2614 9.3825C8.5389 9.6225 8.6814 9.945 8.6814 10.35C8.6814 10.65 8.6064 10.905 8.4639 11.115C8.3214 11.31 8.1189 11.4525 7.8489 11.5575C8.2014 11.625 8.4639 11.7675 8.6439 11.985C8.8164 12.195 8.9064 12.4875 8.9064 12.8475C8.9064 13.3875 8.7189 13.785 8.3514 14.04C8.0364 14.25 7.5864 14.355 7.0164 14.355H4.5564V9H7.0089ZM12.7689 11.0175C12.4314 10.5825 11.9439 10.3725 11.3064 10.3725C10.7289 10.3725 10.2714 10.5675 9.9414 10.965C9.5964 11.355 9.4314 11.835 9.4314 12.4125C9.4314 13.0575 9.6114 13.56 9.9714 13.9275C10.3089 14.28 10.7664 14.46 11.3439 14.46C11.8614 14.46 12.2889 14.31 12.6339 14.0175C12.9039 13.7775 13.0839 13.47 13.1739 13.11H12.3189C12.2139 13.3275 12.1014 13.485 11.9739 13.5825C11.8089 13.7025 11.5989 13.7625 11.3364 13.7625C11.0289 13.7625 10.7889 13.665 10.6239 13.4775C10.4589 13.29 10.3614 13.0125 10.3314 12.6525H13.2339C13.2339 11.955 13.0764 11.4075 12.7689 11.0175ZM19.6539 10.8C19.3839 10.515 18.9564 10.3725 18.3864 10.3725C17.8914 10.3725 17.5014 10.455 17.2164 10.635C16.8789 10.83 16.6689 11.145 16.5864 11.5725L17.4339 11.64C17.4789 11.4375 17.5914 11.2875 17.7564 11.19C17.8989 11.1 18.0864 11.0625 18.3264 11.0625C18.8814 11.0625 19.1589 11.31 19.1589 11.82V11.97L18.3114 11.9925C17.7414 12.0075 17.2989 12.1275 16.9839 12.3525C16.6389 12.585 16.4739 12.9225 16.4739 13.3575C16.4739 13.68 16.5939 13.9425 16.8339 14.1525C17.0664 14.355 17.3814 14.46 17.7864 14.46C18.1239 14.46 18.4164 14.4 18.6639 14.2875C18.8814 14.1825 19.0689 14.04 19.2189 13.845V14.355H20.0139V11.88C20.0139 11.4075 19.8939 11.0475 19.6539 10.8ZM15.1239 10.4775V9.225L14.2689 9.5775V10.4775H13.5714V11.1825H14.2689V13.3725C14.2689 13.6875 14.3439 13.92 14.4939 14.085C14.6514 14.265 14.8989 14.355 15.2364 14.355H15.8889V13.65H15.3789C15.2889 13.65 15.2289 13.6275 15.1839 13.5825C15.1389 13.53 15.1239 13.4625 15.1239 13.3725V11.1825H15.9864V10.4775H15.1239ZM6.73494 9.71997H5.37744V11.25H6.71994C7.09494 11.25 7.35744 11.1825 7.51494 11.0625C7.66494 10.935 7.74744 10.7325 7.74744 10.455C7.74744 10.2 7.66494 10.0125 7.51494 9.89997C7.34994 9.77997 7.09494 9.71997 6.73494 9.71997ZM6.85494 11.97H5.37744V13.635H6.83244C7.16244 13.635 7.42494 13.5825 7.61244 13.4775C7.85244 13.3425 7.97244 13.1325 7.97244 12.8325C7.97244 12.525 7.88244 12.3075 7.70994 12.1725C7.52994 12.0375 7.24494 11.97 6.85494 11.97ZM10.605 11.3101C10.77 11.1451 10.9875 11.0701 11.2725 11.0701C11.8725 11.0701 12.21 11.3776 12.285 12.0076H10.29C10.3425 11.7001 10.4475 11.4676 10.605 11.3101ZM18.3713 12.6075L19.1588 12.585V12.78C19.1588 13.08 19.0388 13.3275 18.8138 13.5225C18.5888 13.71 18.3113 13.8075 17.9813 13.8075C17.7938 13.8075 17.6438 13.755 17.5238 13.665C17.4038 13.575 17.3513 13.4625 17.3513 13.3275C17.3513 12.8625 17.6888 12.6225 18.3713 12.6075Z" fill="#545458"/>
</svg>
