<svg width="24" height="24" viewBox="0 0 24 24" fill="none" xmlns="http://www.w3.org/2000/svg">
<path d="M16.9442 12H7.05585C6.74347 12 6.48285 12.3563 6.45541 12.8209L6.00118 20.5105C5.98656 20.758 6.10912 20.9764 6.27493 20.9983C6.28373 20.9994 6.29257 21 6.30141 21H17.6986C17.8651 21 18 20.7985 18 20.55C18 20.5368 17.9996 20.5236 17.9988 20.5105L17.5447 12.8209C17.5172 12.3563 17.2566 12 16.9442 12Z" fill="black" fill-opacity="0.1"/>
<path d="M17.4719 12C17.8605 12 18.1848 12.3563 18.219 12.8209L18.784 20.5105C18.785 20.5236 18.7855 20.5368 18.7855 20.55C18.7855 20.7985 18.6176 21 18.4105 21H5.81155L5.7786 20.9983C5.57229 20.9764 5.4198 20.758 5.438 20.5105L6.00316 12.8209C6.03731 12.3563 6.36159 12 6.75026 12H17.4719ZM18.0003 20.1L17.4719 12.9H6.75026L6.22102 20.1H18.0003Z" fill="#97999C"/>
<path fill-rule="evenodd" clip-rule="evenodd" d="M21 5.1C21 4.76863 20.7314 4.5 20.4 4.5H3.6C3.26863 4.5 3 4.76863 3 5.1V14.7C3 14.8657 3.13431 15 3.3 15H4.2C4.36569 15 4.5 14.8657 4.5 14.7V10.8C4.5 10.6343 4.63431 10.5 4.8 10.5H19.206C19.3717 10.5 19.506 10.6343 19.506 10.8V14.7C19.506 14.8657 19.6403 15 19.806 15H20.7C20.8657 15 21 14.8657 21 14.7V5.1ZM18 9C18.8284 9 19.5 8.32843 19.5 7.5C19.5 6.67157 18.8284 6 18 6C17.1716 6 16.5 6.67157 16.5 7.5C16.5 8.32843 17.1716 9 18 9Z" fill="#545458"/>
</svg>
