<svg width="24" height="24" viewBox="0 0 24 24" fill="none" xmlns="http://www.w3.org/2000/svg">
<g clip-path="url(#clip0_3026_18259)">
<path fill-rule="evenodd" clip-rule="evenodd" d="M8.06756 7.09473C7.34249 7.80138 6.68463 8.54243 6.09644 9.28873C6.04172 9.35815 5.9877 9.4275 5.93439 9.49673L7.45382 10.7717C7.56939 10.6241 7.68646 10.4776 7.80484 10.3324C8.35812 9.65402 8.95158 8.99029 9.57193 8.35704L8.06756 7.09473ZM11.1088 9.64666C10.4977 10.2634 9.90761 10.9186 9.35475 11.5965C9.22953 11.75 9.10686 11.9039 8.98684 12.058L10.4545 13.2896C10.7185 12.9612 10.9909 12.6378 11.2694 12.321C11.6992 11.8321 12.146 11.356 12.6014 10.8991L11.1088 9.64666ZM6.27794 12.3958L4.77949 11.1385C4.03419 12.3032 3.50633 13.366 3.18973 14.178C3.62417 14.5274 4.11129 14.9139 4.64559 15.3358C5.07358 14.3577 5.633 13.3648 6.27794 12.3958ZM6.27756 16.6221C6.63495 15.6989 7.16051 14.704 7.82038 13.6901L9.26191 14.8997C8.83769 15.5266 8.45644 16.1612 8.13417 16.7925C7.97442 17.1055 7.82667 17.4226 7.69451 17.7418C7.29503 17.4251 6.90707 17.1186 6.53242 16.823C6.4467 16.7554 6.36174 16.6884 6.27756 16.6221ZM12.5811 8.2712C13.5679 7.42066 14.5749 6.69287 15.5413 6.14683L16.9753 7.29878C16.4021 7.66276 15.8084 8.08982 15.2147 8.55944C14.8357 8.85917 14.4518 9.18011 14.0678 9.51871L12.5811 8.2712ZM13.8788 4.81139C12.921 5.41489 11.9588 6.14956 11.0304 6.97004L9.58253 5.75513C10.5072 5.0165 11.5168 4.34727 12.6078 3.79046L13.8788 4.81139ZM9.91554 17.7018C10.1685 17.2062 10.4674 16.7006 10.8031 16.1928L12.3525 17.493C11.7879 18.3861 11.3008 19.3366 10.9317 20.339C10.3888 19.8971 9.85621 19.4673 9.33713 19.051C9.48096 18.6263 9.67384 18.1753 9.91554 17.7018ZM15.2131 13.949C14.6267 14.5412 14.0531 15.1785 13.5154 15.8579L11.987 14.5755C12.2387 14.2612 12.5009 13.9493 12.7715 13.6415C13.2122 13.1402 13.6718 12.6536 14.1395 12.1897L15.6839 13.4856C15.5256 13.6376 15.3685 13.7921 15.2131 13.949ZM17.1916 12.1399L15.6186 10.82C15.8995 10.5778 16.1791 10.3466 16.4554 10.1281C17.2515 9.49837 17.9952 8.99323 18.6375 8.63396L20.2269 9.91068C19.2567 10.5381 18.2184 11.2858 17.1916 12.1399ZM1.02775 14.3251C1.86851 11.3866 5.74202 4.74204 12.3459 1.6946C12.6796 1.54065 13.0707 1.59695 13.3571 1.82705L22.5394 9.20284C23.1092 9.66059 23.0167 10.5605 22.3857 10.9295C18.9008 12.9671 13.8269 17.0105 12.5049 21.988C12.2927 22.7868 11.2803 23.2115 10.6421 22.6863C8.35512 20.8045 6.20831 19.1134 4.42381 17.7077L4.42364 17.7076C3.20178 16.7451 2.14979 15.9164 1.33898 15.2519C1.06326 15.026 0.929692 14.6678 1.02775 14.3251Z" fill="#545458"/>
</g>
<defs>
<clipPath id="clip0_3026_18259">
<rect width="24" height="24" rx="1" fill="white"/>
</clipPath>
</defs>
</svg>
