<svg width="24" height="24" viewBox="0 0 24 24" fill="none" xmlns="http://www.w3.org/2000/svg">
<rect width="24" height="24" fill="white" fill-opacity="0.01"/>
<path d="M18.2843 15.5725C18.2901 15.5812 18.2963 15.5896 18.3029 15.5978L22.2825 20.5478C22.2899 20.5625 22.295 20.5841 22.2922 20.6093C22.2898 20.6322 22.2822 20.6464 22.2769 20.6536H2.05904C2.05225 20.6444 2.04297 20.6251 2.04297 20.5961C2.04297 20.5754 2.04802 20.5586 2.0538 20.5472L5.99035 15.5962C5.99644 15.5885 6.00223 15.5806 6.00771 15.5725C6.08816 15.4532 6.19587 15.4038 6.289 15.4038H18.003C18.0961 15.4038 18.2038 15.4532 18.2843 15.5725Z" fill="black" fill-opacity="0.1" stroke="#97999C" stroke-width="0.75" stroke-linejoin="round"/>
<path d="M5.92485 18.6411L6.89365 17.3782H17.4501L18.4546 18.6411H5.92485Z" fill="#97999C" stroke="#97999C" stroke-width="0.75" stroke-linejoin="round"/>
<path fill-rule="evenodd" clip-rule="evenodd" d="M10.5 1.3C10.5 1.13431 10.6343 1 10.8 1H13.2C13.3657 1 13.5 1.13431 13.5 1.3V8.69796C13.5 8.76413 13.4781 8.82843 13.4378 8.88088L12.2378 10.4409C12.1177 10.597 11.8823 10.597 11.7622 10.4409L10.5622 8.88088C10.5219 8.82843 10.5 8.76413 10.5 8.69796V1.3Z" fill="#545458"/>
<path fill-rule="evenodd" clip-rule="evenodd" d="M3.01772 10.3805C3.08029 10.1465 3.29313 9.99359 3.52228 10.0002L3.6376 10.0172L6.49445 11.0676C6.76381 11.1399 6.92298 11.4198 6.84999 11.6928C6.78742 11.9267 6.57458 12.0797 6.34542 12.0731L6.23011 12.0561L3.37325 11.0057C3.1039 10.9334 2.94472 10.6535 3.01772 10.3805Z" fill="#545458"/>
<path fill-rule="evenodd" clip-rule="evenodd" d="M6.55736 8.14295C6.75134 7.96658 7.03529 7.95503 7.24086 8.09935L7.33634 8.18445L8.98319 9.8204C9.18711 10.0491 9.16895 10.4013 8.94264 10.6071C8.74866 10.7834 8.46471 10.795 8.25914 10.6507L8.16366 10.5656L6.51681 8.9296C6.31289 8.70091 6.33105 8.34872 6.55736 8.14295Z" fill="#545458"/>
<path fill-rule="evenodd" clip-rule="evenodd" d="M21.1073 10.3805C21.0447 10.1465 20.8319 9.99359 20.6027 10.0002L20.4874 10.0172L17.6305 11.0676C17.3612 11.1399 17.202 11.4198 17.275 11.6928C17.3376 11.9267 17.5504 12.0797 17.7796 12.0731L17.8949 12.0561L20.7517 11.0057C21.0211 10.9334 21.1803 10.6535 21.1073 10.3805Z" fill="#545458"/>
<path fill-rule="evenodd" clip-rule="evenodd" d="M17.5676 8.14295C17.3737 7.96658 17.0897 7.95503 16.8841 8.09935L16.7887 8.18445L15.1418 9.8204C14.9379 10.0491 14.9561 10.4013 15.1824 10.6071C15.3763 10.7834 15.6603 10.795 15.8659 10.6507L15.9613 10.5656L17.6082 8.9296C17.8121 8.70091 17.7939 8.34872 17.5676 8.14295Z" fill="#545458"/>
</svg>
