<svg width="142" height="134" viewBox="0 0 142 134" fill="none" xmlns="http://www.w3.org/2000/svg">
<rect y="83.4294" width="31.0942" height="31.0942" rx="1" fill="#D6DAE1"/>
<rect y="48.4766" width="31.0942" height="31.0942" rx="1" fill="#D6DAE1" fill-opacity="0.8"/>
<rect y="13.5237" width="31.0942" height="31.0942" rx="1" fill="#D6DAE1" fill-opacity="0.5"/>
<rect x="34.9531" y="83.4294" width="31.0942" height="31.0942" rx="1" fill="#D6DAE1" fill-opacity="0.8"/>
<rect x="34.9531" y="48.4766" width="31.0942" height="31.0942" rx="1" fill="#D6DAE1" fill-opacity="0.5"/>
<rect x="34.9531" y="13.5237" width="31.0942" height="31.0942" rx="1" fill="#D6DAE1" fill-opacity="0.3"/>
<rect x="69.9058" y="83.4294" width="31.0942" height="31.0942" rx="1" fill="#D6DAE1" fill-opacity="0.5"/>
<rect x="69.9058" y="48.4766" width="31.0942" height="31.0942" rx="1" fill="#D6DAE1" fill-opacity="0.3"/>
<rect x="69.9058" y="13.5237" width="31.0942" height="31.0942" rx="1" fill="#D6DAE1" fill-opacity="0.15"/>
<rect x="35" y="83.5237" width="50" height="50" rx="1" fill="#D6DAE1"/>
<rect x="41.0347" y="89.1348" width="38.4755" height="38.4755" rx="1" fill="#F4F4F5"/>
<path d="M56.381 99.3217C56.459 99.1937 56.6448 99.1937 56.7227 99.3217L68.4358 118.565C68.5169 118.698 68.421 118.869 68.265 118.869H44.8388C44.6828 118.869 44.5868 118.698 44.6679 118.565L56.381 99.3217Z" fill="white"/>
<path d="M69.314 109.651C69.3926 109.527 69.5729 109.527 69.6515 109.651L75.3216 118.561C75.4063 118.694 75.3107 118.868 75.1529 118.868H63.8126C63.6548 118.868 63.5591 118.694 63.6438 118.561L69.314 109.651Z" fill="white"/>
<rect x="80" y="83.5237" width="50" height="50" rx="1" fill="#D6DAE1"/>
<rect x="86" y="89.1348" width="38.4755" height="38.4755" rx="1" fill="#F4F4F5"/>
<path fill-rule="evenodd" clip-rule="evenodd" d="M109.245 109.949C109.115 109.887 109.087 109.711 109.19 109.609C110.375 108.434 111.109 106.806 111.109 105.005C111.109 101.426 108.207 98.5237 104.628 98.5237C101.048 98.5237 98.1464 101.426 98.1464 105.005C98.1464 106.806 98.8804 108.434 100.066 109.609C100.168 109.711 100.14 109.887 100.01 109.949C98.9366 110.467 97.9564 111.163 97.1115 112.007C96.1244 112.994 95.3415 114.166 94.8073 115.456C94.2986 116.684 94.025 117.996 94 119.324C93.998 119.434 94.0877 119.524 94.1982 119.524L115.057 119.524C115.168 119.524 115.258 119.434 115.256 119.324C115.231 117.996 114.957 116.684 114.448 115.456C113.914 114.166 113.131 112.994 112.144 112.007C111.299 111.163 110.319 110.467 109.245 109.949Z" fill="white"/>
<path fill-rule="evenodd" clip-rule="evenodd" d="M98.8 24.4762C98.8 35.0803 107.396 43.6766 118 43.6766C122.16 43.6766 126.01 42.3537 129.155 40.1056L102.371 13.322C100.123 16.466 98.8 20.3167 98.8 24.4762ZM105.629 9.79238C108.971 6.97467 113.287 5.27656 118 5.27656C128.604 5.27656 137.2 13.873 137.2 24.4762C137.2 29.1893 135.502 33.5057 132.684 36.847L105.629 9.79238ZM118 48.4766C104.745 48.4766 94 37.7312 94 24.4762C94 11.2219 104.745 0.476562 118 0.476562C131.255 0.476562 142 11.2219 142 24.4762C142 37.7312 131.255 48.4766 118 48.4766Z" fill="#D9D9DE"/>
</svg>
