<svg width="20" height="20" viewBox="0 0 20 20" fill="none" xmlns="http://www.w3.org/2000/svg">
<g id=" Photograph">
<path id="Union" fill-rule="evenodd" clip-rule="evenodd" d="M12.9696 6.04144L13.47 6.66669H14.2708H16.25V15.8334H3.74998V6.66669H5.72914H6.52998L7.03038 6.04144L8.5308 4.16667H11.4692L12.9696 6.04144ZM2.91665 5.00002H5.72914L7.29721 3.04073C7.41918 2.71548 7.73011 2.5 8.07748 2.5H11.9225C12.2698 2.5 12.5808 2.71548 12.7028 3.04073L14.2708 5.00002H17.0833C17.5435 5.00002 17.9166 5.37312 17.9166 5.83336V16.6667C17.9166 17.1269 17.5435 17.5 17.0833 17.5H2.91665C2.45641 17.5 2.08331 17.1269 2.08331 16.6667V5.83336C2.08331 5.37312 2.45641 5.00002 2.91665 5.00002ZM9.99998 7.5C7.9289 7.5 6.24998 9.17892 6.24998 11.25C6.24998 13.3211 7.9289 15 9.99998 15C12.0711 15 13.75 13.3211 13.75 11.25C13.75 9.17892 12.0711 7.5 9.99998 7.5ZM7.91665 11.25C7.91665 10.0994 8.84938 9.16667 9.99998 9.16667C11.1506 9.16667 12.0833 10.0994 12.0833 11.25C12.0833 12.4006 11.1506 13.3333 9.99998 13.3333C8.84938 13.3333 7.91665 12.4006 7.91665 11.25Z" fill="#545458"/>
</g>
</svg>
