<svg width="18" height="18" viewBox="0 0 18 18" fill="none" xmlns="http://www.w3.org/2000/svg">
<rect opacity="0.01" width="18" height="18" fill="black"/>
<path fill-rule="evenodd" clip-rule="evenodd" d="M16.1893 15.2403L13.6229 12.6739C15.7692 10.0565 15.6198 6.17881 13.1659 3.72666C10.5643 1.12334 6.33853 1.12334 3.72642 3.72666C1.1231 6.33877 1.1231 10.5645 3.72642 13.1661C6.17856 15.62 10.0563 15.7694 12.6737 13.6231L15.2401 16.1895C15.2963 16.2388 15.386 16.2388 15.4334 16.1895L16.1893 15.4337C16.2385 15.3862 16.2385 15.2966 16.1893 15.2403ZM11.1972 7.78717H9.12294V5.4317C9.12294 5.35436 9.05965 5.29108 8.98231 5.29108H7.92762C7.85028 5.29108 7.787 5.35436 7.787 5.4317V7.78717H5.71278C5.63544 7.78717 5.57215 7.85045 5.57215 7.9278V8.98248C5.57215 9.05983 5.63544 9.12311 5.71278 9.12311H7.787V11.4786C7.787 11.5559 7.85028 11.6192 7.92762 11.6192H8.98231C9.05965 11.6192 9.12294 11.5559 9.12294 11.4786V9.12311H11.1972C11.2745 9.12311 11.3378 9.05983 11.3378 8.98248V7.9278C11.3378 7.85045 11.2745 7.78717 11.1972 7.78717ZM4.67562 12.2346C6.7639 14.3212 10.1459 14.3212 12.2342 12.2346C14.3207 10.1463 14.3207 6.76432 12.2342 4.67604C10.1459 2.58951 6.7639 2.58951 4.67562 4.67604C2.5891 6.76432 2.5891 10.1463 4.67562 12.2346Z" fill="#545458"/>
</svg>
