<svg width="236" height="120" viewBox="0 0 236 120" fill="none" xmlns="http://www.w3.org/2000/svg">
<circle cx="118" cy="60" r="15.5" stroke="currentColor" stroke-width="5"/>
<path d="M108.1 49.1995L127.9 69.8995" stroke="currentColor" stroke-width="5"/>
<path fill-rule="evenodd" clip-rule="evenodd" d="M118 29C100.879 29 87 42.8792 87 60C87 77.1208 100.879 91 118 91C135.121 91 149 77.1208 149 60C149 42.8792 135.121 29 118 29ZM81 60C81 39.5655 97.5655 23 118 23C138.435 23 155 39.5655 155 60C155 80.4345 138.435 97 118 97C97.5655 97 81 80.4345 81 60Z" fill="#FFF5ED"/>
<path d="M84 60C84 66.7246 85.9941 73.2981 89.73 78.8894C93.466 84.4807 98.7761 88.8385 104.989 91.4119C111.201 93.9853 118.038 94.6586 124.633 93.3467C131.228 92.0348 137.287 88.7966 142.042 84.0416C146.797 79.2866 150.035 73.2284 151.347 66.6331C152.659 60.0377 151.985 53.2015 149.412 46.9888C146.839 40.7761 142.481 35.466 136.889 31.73C131.298 27.9941 124.725 26 118 26" stroke="currentColor" stroke-width="6" stroke-linecap="round"/>
</svg>
