<svg width="236" height="120" viewBox="0 0 236 120" fill="none" xmlns="http://www.w3.org/2000/svg">
<path fill-rule="evenodd" clip-rule="evenodd" d="M118.599 39.4884C118.532 39.4498 118.45 39.4498 118.383 39.4884L100.811 49.6339C100.744 49.6725 100.703 49.7439 100.703 49.8211V70.112C100.703 70.1893 100.744 70.2606 100.811 70.2993L118.383 80.4447C118.45 80.4833 118.532 80.4833 118.599 80.4447L136.172 70.2993C136.239 70.2606 136.28 70.1892 136.28 70.112V49.8211C136.28 49.7439 136.239 49.6725 136.172 49.6339L118.599 39.4884ZM118.491 68.6149C123.267 68.6149 127.14 64.7427 127.14 59.9662C127.14 55.1897 123.267 51.3176 118.491 51.3176C113.714 51.3176 109.842 55.1897 109.842 59.9662C109.842 64.7427 113.714 68.6149 118.491 68.6149Z" fill="#28BE44"/>
<path d="M127.14 59.9663C127.14 64.7428 123.267 68.6149 118.491 68.6149C113.714 68.6149 109.842 64.7428 109.842 59.9663C109.842 55.1898 113.714 51.3176 118.491 51.3176C123.267 51.3176 127.14 55.1898 127.14 59.9663Z" fill="#BEEBC7"/>
<path fill-rule="evenodd" clip-rule="evenodd" d="M118.491 66.4528C122.073 66.4528 124.977 63.5487 124.977 59.9663C124.977 56.3839 122.073 53.4798 118.491 53.4798C114.909 53.4798 112.004 56.3839 112.004 59.9663C112.004 63.5487 114.909 66.4528 118.491 66.4528ZM118.491 68.6149C123.267 68.6149 127.14 64.7428 127.14 59.9663C127.14 55.1898 123.267 51.3176 118.491 51.3176C113.714 51.3176 109.842 55.1898 109.842 59.9663C109.842 64.7428 113.714 68.6149 118.491 68.6149Z" fill="white"/>
<path fill-rule="evenodd" clip-rule="evenodd" d="M118 26.4865C99.491 26.4865 84.4865 41.491 84.4865 60C84.4865 78.509 99.491 93.5135 118 93.5135C136.509 93.5135 151.514 78.509 151.514 60C151.514 41.491 136.509 26.4865 118 26.4865ZM78 60C78 37.9086 95.9086 20 118 20C140.091 20 158 37.9086 158 60C158 82.0914 140.091 100 118 100C95.9086 100 78 82.0914 78 60Z" fill="#BEEBC7"/>
<path d="M81.2433 60C81.2433 67.2698 83.3991 74.3764 87.438 80.421C91.4768 86.4656 97.2175 91.1768 103.934 93.9589C110.65 96.7409 118.041 97.4688 125.171 96.0505C132.301 94.6323 138.851 91.1315 143.991 85.991C149.132 80.8505 152.632 74.301 154.051 67.1709C155.469 60.0408 154.741 52.6503 151.959 45.9338C149.177 39.2174 144.466 33.4768 138.421 29.4379C132.376 25.399 125.27 23.2433 118 23.2433" stroke="currentColor" stroke-width="6.48649" stroke-linecap="round"/>
</svg>
