<svg width="18" height="18" viewBox="0 0 18 18" fill="none" xmlns="http://www.w3.org/2000/svg">
<rect opacity="0.01" width="18" height="18" fill="black"/>
<path fill-rule="evenodd" clip-rule="evenodd" d="M4.78897 3.1H13.211L13.9888 2.32218L13.211 3.1L14.9 4.78897L14.9 13.211L13.211 14.9H4.78897L4.01115 15.6778L4.78897 14.9L3.1 13.211V4.78897L2.32218 4.01115L3.1 4.78897L4.78897 3.1ZM2.32218 4.01115C2.11589 4.21744 2 4.49723 2 4.78897V13.211C2 13.5028 2.11589 13.7826 2.32218 13.9888L4.01115 15.6778C4.21744 15.8841 4.49723 16 4.78897 16H13.211C13.5028 16 13.7826 15.8841 13.9888 15.6778L15.6778 13.9888C15.8841 13.7826 16 13.5028 16 13.211V4.78897C16 4.49723 15.8841 4.21744 15.6778 4.01115L13.9888 2.32218C13.7826 2.11589 13.5028 2 13.211 2H4.78897C4.49723 2 4.21744 2.11589 4.01115 2.32218L2.32218 4.01115ZM9 11.25C10.2426 11.25 11.25 10.2426 11.25 9C11.25 7.75736 10.2426 6.75 9 6.75C7.75736 6.75 6.75 7.75736 6.75 9C6.75 10.2426 7.75736 11.25 9 11.25Z" fill="#545458"/>
</svg>
