<svg width="21" height="20" viewBox="0 0 21 20" fill="none" xmlns="http://www.w3.org/2000/svg">
<g id="save parameter">
<path id="Union" fill-rule="evenodd" clip-rule="evenodd" d="M3.83333 2.50061C3.3731 2.50061 3 2.87371 3 3.33394V16.6673C3 17.1275 3.3731 17.5006 3.83333 17.5006H8.83333V15.8339H4.66667V4.16728H6.23497L7.25464 6.20662C7.3958 6.48894 7.68436 6.66728 8 6.66728H13C13.3156 6.66728 13.6042 6.48894 13.7454 6.20662L14.765 4.16728H16.3333V9.16728H18V3.33394C18 2.87371 17.6269 2.50061 17.1667 2.50061H14.25H6.75H3.83333ZM12.9016 4.16728H8.09836L8.51503 5.00061H12.485L12.9016 4.16728ZM14.8393 10.2447L18.1726 13.578L18.7618 14.1673L18.1726 14.7565L14.8393 18.0899L13.6607 16.9114L15.5715 15.0006H9.66667V13.3339H15.5715L13.6607 11.4232L14.8393 10.2447Z" fill="#B0B2B5"/>
</g>
</svg>
