<svg width="21" height="20" viewBox="0 0 21 20" fill="none" xmlns="http://www.w3.org/2000/svg">
<g id=" close shot 2">
<path id="Union" fill-rule="evenodd" clip-rule="evenodd" d="M17.1667 17.5H13V15.8333H16.3333V12.5H18V16.6667C18 17.1269 17.6269 17.5 17.1667 17.5ZM16.3333 4.16667H13V2.5H17.1667C17.6269 2.5 18 2.8731 18 3.33333V7.5H16.3333V4.16667ZM8 4.16667V2.5H3.83333C3.3731 2.5 3 2.8731 3 3.33333V7.5H4.66667V4.16667H8ZM3.83333 17.5H8V15.8333H4.66667V12.5H3V16.6667C3 17.1269 3.3731 17.5 3.83333 17.5ZM10.0833 7.5C8.93274 7.5 8 8.43274 8 9.58333C8 10.7339 8.93274 11.6667 10.0833 11.6667C11.2339 11.6667 12.1667 10.7339 12.1667 9.58333C12.1667 8.43274 11.2339 7.5 10.0833 7.5ZM6.33333 9.58333C6.33333 7.51227 8.01227 5.83333 10.0833 5.83333C12.1544 5.83333 13.8333 7.51227 13.8333 9.58333C13.8333 10.3171 13.6226 11.0017 13.2583 11.5798L14.4225 12.744L13.244 13.9225L12.0798 12.7583C11.5017 13.1226 10.8171 13.3333 10.0833 13.3333C8.01227 13.3333 6.33333 11.6544 6.33333 9.58333Z" fill="#545458"/>
</g>
</svg>
