<svg width="20" height="20" viewBox="0 0 20 20" fill="none" xmlns="http://www.w3.org/2000/svg">
<path fill-rule="evenodd" clip-rule="evenodd" d="M13.8611 7.54393L13.9449 8.53991L14.8629 8.93507C15.6818 9.28753 16.2499 10.1002 16.2499 11.0417C16.2499 12.2371 15.3346 13.2188 14.1666 13.324V14.9947C16.2559 14.8863 17.9166 13.158 17.9166 11.0417C17.9166 9.41092 16.9304 8.01046 15.5219 7.40419C15.2829 4.56399 12.9019 2.33337 9.99992 2.33337C7.09793 2.33337 4.71694 4.56399 4.47797 7.40419C3.06944 8.01046 2.08325 9.41092 2.08325 11.0417C2.08325 13.158 3.74397 14.8863 5.83325 14.9947V13.324C4.66523 13.2188 3.74992 12.2371 3.74992 11.0417C3.74992 10.1002 4.31803 9.28753 5.13691 8.93507L6.05497 8.53991L6.13877 7.54393C6.30572 5.55966 7.97156 4.00004 9.99992 4.00004C12.0283 4.00004 13.6941 5.55966 13.8611 7.54393ZM9.16667 15.8807V10.8333H10.8333V15.8807L12.357 14.357L13.5355 15.5355L10.8839 18.1872C10.3957 18.6753 9.60427 18.6753 9.11612 18.1872L6.46447 15.5355L7.64298 14.357L9.16667 15.8807Z" fill="#36363A"/>
</svg>
