<svg width="20" height="20" viewBox="0 0 20 20" fill="none" xmlns="http://www.w3.org/2000/svg">
<g id="infomation">
<path id="Vector" d="M9.99996 18.3333C5.39746 18.3333 1.66663 14.6025 1.66663 9.99999C1.66663 5.39749 5.39746 1.66666 9.99996 1.66666C14.6025 1.66666 18.3333 5.39749 18.3333 9.99999C18.3333 14.6025 14.6025 18.3333 9.99996 18.3333ZM9.99996 16.6667C11.7681 16.6667 13.4638 15.9643 14.714 14.714C15.9642 13.4638 16.6666 11.7681 16.6666 9.99999C16.6666 8.23188 15.9642 6.53619 14.714 5.28594C13.4638 4.0357 11.7681 3.33332 9.99996 3.33332C8.23185 3.33332 6.53616 4.0357 5.28591 5.28594C4.03567 6.53619 3.33329 8.23188 3.33329 9.99999C3.33329 11.7681 4.03567 13.4638 5.28591 14.714C6.53616 15.9643 8.23185 16.6667 9.99996 16.6667ZM9.16663 5.83332H10.8333V7.49999H9.16663V5.83332ZM9.16663 9.16666H10.8333V14.1667H9.16663V9.16666Z" fill="#97999C"/>
</g>
</svg>
