<svg width="200" height="140" viewBox="0 0 200 140" fill="none" xmlns="http://www.w3.org/2000/svg">
<g clip-path="url(#clip0_56_30703)">
<line x1="1.00482" y1="139.868" x2="199.745" y2="139.868" stroke="#28282C" stroke-width="0.749963"/>
<path d="M76.6936 78.8166L66.4911 92.3418C66.1109 92.8459 66.0871 93.5342 66.4316 94.0634L72.198 102.92C72.6073 103.549 73.4179 103.779 74.096 103.458L86.7767 97.4636L89.7983 83.6027L76.6936 78.8166Z" fill="#28282C" stroke="#28282C" stroke-width="1.12494"/>
<path d="M74.8379 77.9962L68.4093 99.5472C68.2378 100.122 68.4254 100.744 68.8864 101.128L71.7963 103.553C72.292 103.966 72.9964 104.016 73.5453 103.677L84.921 96.6432L87.9426 82.7823L74.8379 77.9962Z" fill="#28282C" stroke="#28282C" stroke-width="1.12494"/>
<path d="M72.9438 76.5667L62.7413 90.0919C62.3611 90.596 62.3372 91.2843 62.6818 91.8135L68.4482 100.671C68.8574 101.299 69.6681 101.529 70.3462 101.208L83.0269 95.2138L86.0485 81.3528L72.9438 76.5667Z" fill="white" stroke="#28282C" stroke-width="1.12494"/>
<path d="M139.373 97.1202V92.9954L137.123 93.7454L135.248 97.1202H139.373Z" fill="#28282C"/>
<path d="M132.681 78.8166L142.883 92.3418C143.264 92.8459 143.288 93.5342 142.943 94.0634L137.177 102.92C136.767 103.549 135.957 103.779 135.279 103.458L122.598 97.4636L119.576 83.6027L132.681 78.8166Z" fill="#28282C" stroke="#28282C" stroke-width="1.12494"/>
<path d="M133.7 63.1458C130.224 29.6931 105.335 17.1987 101.013 15.2714C100.604 15.0889 100.158 15.1212 99.783 15.3663C96.3919 17.5823 79.4606 30.2002 76.0406 63.1458C75.0591 90.3587 87.5743 105.318 90.0384 107.99C90.3035 108.278 90.6743 108.426 91.0654 108.426H104.87H118.675C119.066 108.426 119.437 108.278 119.702 107.99C122.166 105.318 134.681 90.3587 133.7 63.1458Z" fill="#28282C" stroke="#28282C" stroke-width="1.12494"/>
<path d="M128.181 76.5667L138.384 90.0919C138.764 90.596 138.788 91.2843 138.443 91.8135L132.677 100.671C132.268 101.299 131.457 101.529 130.779 101.208L118.098 95.2138L115.077 81.3528L128.181 76.5667Z" fill="white" stroke="#28282C" stroke-width="1.12494"/>
<path d="M129.2 60.8959C125.71 27.3085 104.409 16.7377 100.869 15.204C100.541 15.0618 100.2 15.0618 99.872 15.204C96.3319 16.7375 75.0274 27.3082 71.5407 60.8959C70.5593 88.1088 83.0745 103.068 85.5385 105.74C85.8037 106.028 86.1744 106.176 86.5656 106.176H100.37H114.175C114.566 106.176 114.937 106.028 115.202 105.74C117.666 103.068 130.181 88.1088 129.2 60.8959Z" fill="url(#paint0_linear_56_30703)" stroke="#28282C" stroke-width="1.12494"/>
<path d="M85.7507 26.2487H114.999" stroke="#28282C" stroke-width="1.12494" stroke-linecap="round" stroke-linejoin="round"/>
<path d="M100.778 68.3032C108.664 68.3032 115.056 61.9109 115.056 54.0256C115.056 46.1403 108.664 39.748 100.778 39.748C92.893 39.748 86.5007 46.1403 86.5007 54.0256C86.5007 61.9109 92.893 68.3032 100.778 68.3032Z" fill="url(#paint1_linear_56_30703)"/>
<path d="M99.2501 48.7475H104.159L101.159 53.2098H105.25L98.7047 61.4969L100.068 55.4409H96.2502L99.2501 48.7475Z" fill="white"/>
<path d="M97.4087 112.682L94.9562 108.267H113.971L111.786 112.2C111.621 112.497 111.307 112.682 110.967 112.682H97.4087Z" fill="#28282C" stroke="#28282C" stroke-width="1.12494"/>
<path d="M93.3908 110.7L91.2062 106.768H110.221L108.036 110.7C107.871 110.997 107.557 111.182 107.217 111.182H94.2103C93.8698 111.182 93.5561 110.997 93.3908 110.7Z" fill="#F4F5F8" stroke="#28282C" stroke-width="1.12494"/>
<path d="M36.1053 72.7097C37.1267 70.2368 40.6293 70.2368 41.6507 72.7097L69.0791 139.118H8.67688L36.1053 72.7097Z" fill="#F0F1F5"/>
<path fill-rule="evenodd" clip-rule="evenodd" d="M127.748 113.619C131.312 113.619 134.123 116.178 134.123 119.244H134.873C134.873 115.683 131.641 112.869 127.748 112.869C124.566 112.869 121.825 114.75 120.931 117.383C120.251 116.04 118.857 115.119 117.249 115.119C114.971 115.119 113.124 116.966 113.124 119.244H113.874C113.874 117.38 115.385 115.869 117.249 115.869C119.11 115.869 120.619 117.375 120.624 119.234L120.624 119.244H121.374L121.374 119.232C121.381 116.171 124.19 113.619 127.748 113.619ZM64.3767 124.494C64.3767 121.428 67.188 118.869 70.7514 118.869C74.3108 118.869 77.1198 121.422 77.126 124.484L77.126 124.494H77.876L77.876 124.484C77.8814 122.624 79.3903 121.119 81.2508 121.119C83.1147 121.119 84.6256 122.63 84.6256 124.494H85.3756C85.3756 122.216 83.5289 120.369 81.2508 120.369C79.6425 120.369 78.2492 121.289 77.569 122.632C76.6748 120 73.9335 118.119 70.7514 118.119C66.8593 118.119 63.6267 120.933 63.6267 124.494H64.3767ZM18.254 140.243C18.254 128.646 27.6555 119.244 39.2529 119.244C46.9619 119.244 53.7007 123.398 57.3529 129.59C58.2625 129.203 59.2376 128.994 60.2518 128.994C61.8105 128.994 63.2767 129.489 64.555 130.36C66.9655 128.116 70.198 126.744 73.7512 126.744C78.6546 126.744 82.9475 129.358 85.3118 133.269C86.8622 132.003 88.8426 131.243 91.0004 131.243C95.9707 131.243 99.9999 135.273 99.9999 140.243L87.2505 140.243L69.2514 140.243H60.2519H51.2523H18.254Z" fill="#28282C"/>
<path fill-rule="evenodd" clip-rule="evenodd" d="M181.746 140.243C181.746 128.646 172.344 119.244 160.747 119.244C153.038 119.244 146.299 123.398 142.647 129.59C141.737 129.203 140.762 128.993 139.748 128.993C138.189 128.993 136.723 129.489 135.445 130.36C133.034 128.116 129.802 126.744 126.249 126.744C121.345 126.744 117.052 129.358 114.688 133.269C113.138 132.003 111.157 131.243 108.999 131.243C104.029 131.243 99.9998 135.273 99.9998 140.243L112.749 140.243L139.748 140.243H181.746Z" fill="#28282C"/>
<path d="M99.9999 135.743C102.485 135.743 104.5 137.758 104.5 140.243H95.5001C95.5001 137.758 97.5147 135.743 99.9999 135.743Z" fill="#28282C"/>
<path d="M143.498 52.4974V78.7461" stroke="#28282C" stroke-width="1.12494" stroke-linecap="round"/>
<path d="M126.999 20.999L126.999 28.4986" stroke="#28282C" stroke-width="1.12494" stroke-linecap="round"/>
<path d="M75.2513 12.7494L75.2513 29.2486" stroke="#28282C" stroke-width="1.12494" stroke-linecap="round"/>
<path d="M63.2519 40.498L63.2519 61.4969" stroke="#28282C" stroke-width="1.12494" stroke-linecap="round"/>
<path d="M149.873 20.999L151.594 25.6519L156.247 27.3736L151.594 29.0954L149.873 33.7483L148.151 29.0954L143.498 27.3736L148.151 25.6519L149.873 20.999Z" fill="#28282C"/>
<circle cx="55.0021" cy="32.9983" r="1.31243" stroke="#28282C" stroke-width="0.374981"/>
<circle cx="141.248" cy="114.744" r="1.31243" stroke="#28282C" stroke-width="0.374981"/>
<path d="M53.5022 74.9963L54.9201 78.8281L58.7519 80.246L54.9201 81.6639L53.5022 85.4958L52.0843 81.6639L48.2524 80.246L52.0843 78.8281L53.5022 74.9963Z" fill="#28282C"/>
<path d="M159.997 122.994V110.245" stroke="#28282C" stroke-width="1.12494" stroke-linecap="round" stroke-linejoin="round"/>
<path d="M157.827 92.6344C158.434 90.4299 161.56 90.4299 162.166 92.6343L166.059 106.79C167.16 110.793 164.148 114.744 159.997 114.744C155.846 114.744 152.834 110.793 153.935 106.79L157.827 92.6344Z" fill="#F0F1F5"/>
<rect x="98.3126" y="111.557" width="10.1245" height="26.6237" fill="#28282C" stroke="#28282C" stroke-width="1.12494"/>
<rect x="95.3128" y="111.557" width="10.1245" height="26.6237" fill="white" stroke="#28282C" stroke-width="1.12494"/>
<path d="M98.5001 122.994V131.618" stroke="#28282C" stroke-width="0.749963"/>
<path d="M102.25 110.995L102.25 128.994" stroke="#28282C" stroke-width="0.749963"/>
<path d="M94.7503 132.743C90.6084 132.743 87.2507 136.101 87.2507 140.243H102.25C102.25 136.101 98.8922 132.743 94.7503 132.743Z" fill="#28282C"/>
<path d="M105.25 132.743C101.108 132.743 97.7501 136.101 97.7501 140.243H112.749C112.749 136.101 109.392 132.743 105.25 132.743Z" fill="#28282C"/>
</g>
<defs>
<linearGradient id="paint0_linear_56_30703" x1="100.37" y1="60.6919" x2="100.37" y2="106.176" gradientUnits="userSpaceOnUse">
<stop stop-color="#F1FBF3"/>
<stop offset="1" stop-color="white"/>
</linearGradient>
<linearGradient id="paint1_linear_56_30703" x1="100.778" y1="25.8737" x2="100.778" y2="71.9964" gradientUnits="userSpaceOnUse">
<stop stop-color="#50F36F"/>
<stop offset="1" stop-color="#28BE44"/>
</linearGradient>
<clipPath id="clip0_56_30703">
<rect width="200" height="140" fill="white"/>
</clipPath>
</defs>
</svg>
