<svg width="20" height="20" viewBox="0 0 20 20" fill="none" xmlns="http://www.w3.org/2000/svg">
<path fill-rule="evenodd" clip-rule="evenodd" d="M16.6665 9.99984C16.6665 13.6817 13.6817 16.6665 9.99984 16.6665C6.31794 16.6665 3.33317 13.6817 3.33317 9.99984C3.33317 6.31794 6.31794 3.33317 9.99984 3.33317C13.6817 3.33317 16.6665 6.31794 16.6665 9.99984ZM18.3332 9.99984C18.3332 14.6022 14.6022 18.3332 9.99984 18.3332C5.39746 18.3332 1.6665 14.6022 1.6665 9.99984C1.6665 5.39746 5.39746 1.6665 9.99984 1.6665C14.6022 1.6665 18.3332 5.39746 18.3332 9.99984ZM7.49984 6.6665H9.1665V13.3332H7.49984V6.6665ZM10.8332 6.6665H12.4998V13.3332H10.8332V6.6665Z" fill="#545458"/>
</svg>
