<svg width="20" height="20" viewBox="0 0 20 20" fill="none" xmlns="http://www.w3.org/2000/svg">
<path fill-rule="evenodd" clip-rule="evenodd" d="M16.6665 10.0001C16.6665 13.682 13.6817 16.6667 9.99984 16.6667C6.31794 16.6667 3.33317 13.682 3.33317 10.0001C3.33317 6.31818 6.31794 3.33341 9.99984 3.33341C13.6817 3.33341 16.6665 6.31818 16.6665 10.0001ZM18.3332 10.0001C18.3332 14.6025 14.6022 18.3334 9.99984 18.3334C5.39746 18.3334 1.6665 14.6025 1.6665 10.0001C1.6665 5.39771 5.39746 1.66675 9.99984 1.66675C14.6022 1.66675 18.3332 5.39771 18.3332 10.0001ZM7.55202 7.77097V7.74755V7.28985V6.56816C7.55202 6.24741 7.89924 6.04694 8.17702 6.20732L8.80202 6.56816L9.19839 6.79701L9.21868 6.80872L13.0796 9.0378L13.0998 9.04951L13.4962 9.27836L14.1212 9.6392C14.399 9.79958 14.399 10.2005 14.1212 10.3609L13.4962 10.7217L13.0998 10.9506L13.0796 10.9623L9.21868 13.1914L9.19839 13.2031L8.80202 13.4319L8.17702 13.7928C7.89924 13.9532 7.55202 13.7527 7.55202 13.4319V12.7102V12.2525V12.2291V7.77097ZM11.4129 10L9.21868 11.2669V8.73322L11.4129 10Z" fill="#545458"/>
</svg>
