<svg width="95" height="12" viewBox="0 0 95 12" fill="none" xmlns="http://www.w3.org/2000/svg">
<g id="xtool_logo">
<g id="TOOL">
<path d="M34.3388 0V3H28.3232V12H25.3154V3H19.2947V0H34.3388Z" fill="#F7F9FB"/>
<path d="M94.5 9V12H79.4609V0H82.4687V9H94.5Z" fill="#F7F9FB"/>
<path fill-rule="evenodd" clip-rule="evenodd" d="M49.3787 0H43.358C41.7626 0 40.2325 0.632141 39.1043 1.75736C37.9762 2.88258 37.3424 4.4087 37.3424 6C37.3424 7.5913 37.9762 9.11742 39.1043 10.2426C40.2325 11.3679 41.7626 12 43.358 12H49.3787C50.9742 12 52.5043 11.3679 53.6324 10.2426C54.7606 9.11742 55.3944 7.5913 55.3944 6C55.3944 4.4087 54.7606 2.88258 53.6324 1.75736C52.5043 0.632141 50.9742 0 49.3787 0ZM52.3866 6C52.3866 6.79565 52.0697 7.55871 51.5056 8.12132C50.9415 8.68393 50.1765 9 49.3787 9H43.358C42.5603 9 41.7952 8.68393 41.2312 8.12132C40.6671 7.55871 40.3502 6.79565 40.3502 6C40.3502 5.20435 40.6671 4.44129 41.2312 3.87868C41.7952 3.31607 42.5603 3 43.358 3H49.3787C50.176 3.00134 50.9403 3.31784 51.5041 3.88016C52.0679 4.44248 52.3852 5.20476 52.3866 6Z" fill="#F7F9FB"/>
<path fill-rule="evenodd" clip-rule="evenodd" d="M64.4171 0H70.4327C72.0282 0 73.5583 0.632141 74.6864 1.75736C75.8146 2.88258 76.4484 4.4087 76.4484 6C76.4484 7.5913 75.8146 9.11742 74.6864 10.2426C73.5583 11.3679 72.0282 12 70.4327 12H64.4171C62.8216 12 61.2915 11.3679 60.1634 10.2426C59.0352 9.11742 58.4014 7.5913 58.4014 6C58.4014 4.4087 59.0352 2.88258 60.1634 1.75736C61.2915 0.632141 62.8216 0 64.4171 0ZM73.2129 7.14884C73.3639 6.78456 73.4412 6.39415 73.4405 6C73.4405 5.20435 73.1236 4.44129 72.5596 3.87868C71.9955 3.31607 71.2304 3 70.4327 3H64.4171C63.6194 3 62.8543 3.31607 62.2902 3.87868C61.7262 4.44129 61.4093 5.20435 61.4093 6C61.4093 6.79565 61.7262 7.55871 62.2902 8.12132C62.8543 8.68393 63.6194 9 64.4171 9H70.4327C70.8279 9.00067 71.2193 8.92352 71.5845 8.773C71.9498 8.62247 72.2816 8.40152 72.5611 8.12281C72.8405 7.8441 73.062 7.51312 73.2129 7.14884Z" fill="#F7F9FB"/>
</g>
<path id="X" fill-rule="evenodd" clip-rule="evenodd" d="M4.25558 0L7.0808 2.81788L4.95555 4.94267L0 0H4.25558ZM16.2869 0L15.5869 0.698145L10.2712 6L16.2869 12H12.0313L8.14596 8.12479L4.25558 12H0L12.0313 0H16.2869Z" fill="#28BE44"/>
</g>
</svg>
