<svg width="44" height="44" viewBox="0 0 44 44" fill="none" xmlns="http://www.w3.org/2000/svg">
<g id="&#229;&#155;&#190;&#230;&#160;&#135;&#230;&#140;&#137;&#233;&#146;&#174;">
<g id="1:1">
<rect id="&#231;&#159;&#169;&#229;&#189;&#162;" opacity="0.01" x="10" y="34" width="24" height="24" transform="rotate(-90 10 34)" fill="black"/>
<path id="&#232;&#183;&#175;&#229;&#190;&#132;" d="M13.4001 16.3853C13.4001 16.1908 13.4773 16.0043 13.6149 15.8667L15.8668 13.6148C16.0044 13.4772 16.1909 13.4 16.3854 13.4H27.6148C27.8093 13.4 27.9958 13.4772 28.1333 13.6148L30.3853 15.8667C30.5228 16.0043 30.6001 16.1908 30.6001 16.3853V27.6147C30.6001 27.8092 30.5228 27.9957 30.3853 28.1332L28.1333 30.3852C27.9958 30.5227 27.8093 30.6 27.6148 30.6H16.3854C16.1909 30.6 16.0044 30.5227 15.8668 30.3852L13.6149 28.1332C13.4773 27.9957 13.4001 27.8092 13.4001 27.6147V16.3853Z" stroke="#1A1A1E" stroke-width="1.46667" stroke-linejoin="round"/>
<circle id="&#230;&#164;&#173;&#229;&#156;&#134;&#229;&#189;&#162;" cx="22.0002" cy="21.9999" r="3" transform="rotate(-90 22.0002 21.9999)" fill="#1A1A1E"/>
</g>
</g>
</svg>
