<svg width="20" height="20" viewBox="0 0 20 20" fill="none" xmlns="http://www.w3.org/2000/svg">
<g id="eye-off" clip-path="url(#clip0_927_155399)">
<path id="Vector" d="M14.9019 16.0841C13.4362 17.0137 11.7358 17.506 10.0002 17.5032C5.50687 17.5032 1.76854 14.2699 0.984375 10.0032C1.34273 8.06216 2.31907 6.28898 3.76771 4.94823L1.16021 2.34323L2.33937 1.16406L18.8385 17.6641L17.6594 18.8424L14.9019 16.0841ZM4.94604 6.12823C3.81355 7.15789 3.02464 8.51055 2.68604 10.0032C2.94629 11.1419 3.46876 12.2042 4.21188 13.1054C4.95499 14.0066 5.89823 14.7219 6.9665 15.1943C8.03477 15.6667 9.19858 15.8833 10.3653 15.8267C11.532 15.7701 12.6694 15.4419 13.6869 14.8682L11.9969 13.1782C11.2774 13.6314 10.4254 13.8267 9.58041 13.7319C8.73544 13.6372 7.94774 13.2581 7.34652 12.6569C6.74529 12.0557 6.36623 11.268 6.27151 10.423C6.17679 9.57806 6.37203 8.72599 6.82521 8.00656L4.94604 6.12823ZM10.7619 11.9432L8.06021 9.24156C7.91193 9.61901 7.87703 10.0315 7.9598 10.4285C8.04256 10.8255 8.23939 11.1897 8.52614 11.4765C8.81289 11.7632 9.1771 11.96 9.57409 12.0428C9.97108 12.1256 10.3836 12.0907 10.761 11.9424L10.7619 11.9432ZM17.3394 13.8299L16.1469 12.6382C16.7039 11.8443 17.1005 10.9492 17.3144 10.0032C17.0879 9.01133 16.6621 8.07585 16.0628 7.25364C15.4636 6.43143 14.7034 5.73967 13.8284 5.2204C12.9535 4.70113 11.9821 4.3652 10.9733 4.23303C9.96452 4.10086 8.93938 4.17521 7.96021 4.45156L6.64521 3.13656C7.68437 2.72823 8.81687 2.50323 10.0002 2.50323C14.4935 2.50323 18.2319 5.73656 19.016 10.0032C18.7607 11.3913 18.1868 12.7012 17.3394 13.8299ZM9.76937 6.2599C10.2998 6.22712 10.8311 6.30745 11.3282 6.49558C11.8252 6.6837 12.2765 6.97532 12.6523 7.3511C13.0281 7.72689 13.3197 8.17825 13.5079 8.67528C13.696 9.1723 13.7763 9.70364 13.7435 10.2341L9.76937 6.2599Z" fill="currentColor"/>
</g>
<defs>
<clipPath id="clip0_927_155399">
<rect width="20" height="20" fill="white"/>
</clipPath>
</defs>
</svg>
