<svg width="20" height="20" viewBox="0 0 20 20" fill="none" xmlns="http://www.w3.org/2000/svg">
<g id="&#230;&#150;&#185;&#229;&#144;&#145;&#230;&#160;&#161;&#229;&#135;&#134;_direction-adjustment-two 2 1">
<path id="Vector" d="M7.65625 4.53125L10 2.1875M10 2.1875L12.3438 4.53125M10 2.1875V6.09375" stroke="#36363A" stroke-width="1.5" stroke-linecap="round" stroke-linejoin="round"/>
<path id="Vector_2" d="M7.65625 15.4688L10 17.8125M10 17.8125L12.3438 15.4688M10 17.8125V13.9062" stroke="#36363A" stroke-width="1.5" stroke-linecap="round" stroke-linejoin="round"/>
<path id="Vector_3" d="M15.4688 7.65625L17.8125 10M17.8125 10L15.4688 12.3438M17.8125 10H13.9062" stroke="#36363A" stroke-width="1.5" stroke-linecap="round" stroke-linejoin="round"/>
<path id="Vector_4" d="M4.53125 7.65625L2.1875 10M2.1875 10L4.53125 12.3438M2.1875 10H6.09375" stroke="#36363A" stroke-width="1.5" stroke-linecap="round" stroke-linejoin="round"/>
<path id="Vector_5" d="M10 11.5625C10.8629 11.5625 11.5625 10.8629 11.5625 10C11.5625 9.13706 10.8629 8.4375 10 8.4375C9.13706 8.4375 8.4375 9.13706 8.4375 10C8.4375 10.8629 9.13706 11.5625 10 11.5625Z" stroke="#36363A" stroke-width="1.5" stroke-linecap="round" stroke-linejoin="round"/>
</g>
</svg>
