<?xml version="1.0" encoding="UTF-8"?>
<svg width="54px" height="60px" viewBox="0 0 54 60" version="1.1" xmlns="http://www.w3.org/2000/svg" xmlns:xlink="http://www.w3.org/1999/xlink">
    <title>39</title>
    <g id="页面-1" stroke="none" stroke-width="1" fill="none" fill-rule="evenodd">
        <g id="植物" transform="translate(-721.000000, -402.000000)" fill="#545458">
            <path d="M762.672103,426.725589 C762.77111,426.646384 762.944687,426.555804 763.271197,426.675033 C763.489011,426.752974 763.787716,426.901694 763.974354,427.167537 C764.114226,427.365128 764.161834,427.612855 764.095689,427.79865 C764.058614,427.904397 763.97646,428.020256 763.854282,428.142855 C763.550943,428.444509 763.042851,428.667379 762.694011,428.481163 C762.501896,428.378364 762.356125,428.139906 762.323263,427.874064 C762.268494,427.414421 762.414265,426.931607 762.672103,426.725589 M752.630745,428.54183 C752.130657,430.143207 751.443932,431.173295 750.533494,431.691499 C749.017643,432.557699 747.014764,431.921109 745.600446,431.235226 C744.887179,430.888915 743.991487,430.397253 743.387758,429.667554 C742.25108,428.294104 742.24771,426.051081 743.378489,424.449705 C744.624706,422.689497 747.313047,421.723447 749.63064,422.199942 C750.664941,422.413122 752.471071,423.112486 752.953464,425.397639 C753.135467,426.257942 753.032669,427.257275 752.630745,428.54183 M749.423358,441.150193 C749.868676,441.014533 750.366658,441.073937 750.613542,441.290487 C750.709178,441.373906 750.827986,441.524311 750.769846,441.870623 C750.731507,442.099812 750.637135,442.420425 750.409631,442.651299 C750.239424,442.823191 749.999281,442.90998 749.808009,442.881331 C749.69847,442.863215 749.573764,442.805075 749.427993,442.704383 C749.077046,442.460027 748.769073,441.998278 748.890409,441.622475 C748.958239,441.414772 749.166784,441.229398 749.423358,441.150193 M745.826687,414.813642 L745.817418,414.813642 L745.816154,414.813642 C745.655216,414.812378 745.498912,414.742863 745.428976,414.640907 C745.313538,414.473228 745.382211,414.133236 745.580645,413.884245 C745.670383,413.772178 745.738213,413.724992 745.777815,413.705191 C745.816154,413.686654 745.862919,413.677385 745.913054,413.677385 C745.989731,413.677385 746.074835,413.698871 746.150669,413.741002 C746.29644,413.820207 746.431679,413.975668 746.530685,414.177473 C746.630956,414.382648 746.574922,414.472385 746.550487,414.511145 C746.441369,414.68388 746.130868,414.813642 745.826687,414.813642 M757.490907,437.289364 C757.758014,436.951478 758.161202,436.72271 758.480972,436.72271 C758.504143,436.72271 758.527736,436.723974 758.550908,436.726923 C758.675614,436.741248 758.859724,436.797281 759.008865,437.115787 C759.147474,437.412385 759.200137,437.713196 759.157164,437.961344 C759.11377,438.200644 758.971791,438.408768 758.792315,438.493029 C758.692045,438.540215 758.51594,438.582767 758.378173,438.563808 C757.951392,438.562966 757.436138,438.358633 757.321964,437.979038 C757.25919,437.770914 757.325335,437.500016 757.490907,437.289364 M742.878402,438.92613 C742.730103,439.094651 742.558632,439.208403 742.395587,439.246742 C742.257821,439.28171 742.108679,439.253483 742.029474,439.184389 C741.995349,439.154055 741.943107,439.090017 741.886231,438.958149 C741.760261,438.6645 741.783433,438.319031 741.939736,438.187584 C742.003775,438.133657 742.102781,438.104166 742.207686,438.104166 C742.257821,438.104166 742.30922,438.110907 742.358091,438.123967 C742.698926,438.214126 742.935278,438.442473 742.986677,438.610994 C742.999316,438.653967 743.02965,438.755502 742.878402,438.92613 M735.369923,433.121404 C735.313047,433.214091 735.199716,433.337112 734.890058,433.337112 L734.88753,433.337112 C734.586719,433.335848 734.318348,433.262541 734.130868,433.12983 C733.954763,433.005124 733.84059,432.812167 733.84059,432.641539 C733.84059,432.539583 733.875558,432.416563 733.94423,432.273741 C734.098006,431.947651 734.425781,431.626196 734.753134,431.626196 C734.776727,431.626196 734.801163,431.627882 734.824334,431.631673 C735.015606,431.659901 735.208142,431.817047 735.315153,432.031912 L735.315153,432.032755 C735.504319,432.410243 735.526227,432.868622 735.369923,433.121404 M735.0847,425.499595 C735.043834,425.52066 734.950304,425.57248 734.75187,425.464205 C734.556385,425.356773 734.407243,425.215214 734.332251,425.062702 C734.270741,424.935469 734.262315,424.786748 734.313714,424.692376 C734.345312,424.634658 734.40935,424.571041 734.501615,424.504053 C734.66803,424.382718 734.864358,424.317416 735.027403,424.317416 C735.121775,424.317416 735.204772,424.339745 735.265018,424.385246 C735.363182,424.458974 735.425956,424.616963 735.420058,424.779165 C735.407419,425.130532 735.237212,425.412806 735.0847,425.499595 M758.894692,419.8082 C759.021926,419.649368 759.36571,419.613979 759.666521,419.73405 C759.771425,419.774917 759.84726,419.820418 759.892761,419.868025 C759.964804,419.945966 759.995138,420.095529 759.966068,420.233717 C759.933627,420.397183 759.824088,420.572445 759.660623,420.726221 C759.494207,420.883367 759.391409,420.855561 759.348015,420.842501 C759.147474,420.788574 758.930924,420.524838 758.843293,420.229504 C758.798213,420.073621 758.818015,419.904257 758.894692,419.8082 M774.394885,419.054487 C774.228049,418.766736 773.860672,418.672364 773.578819,418.836673 C772.782555,419.298001 771.928993,419.657794 771.042991,419.904678 C770.291806,420.113645 769.744111,420.168836 769.25919,420.079519 C768.766686,419.988939 768.281344,419.718041 767.857091,419.314853 C767.953991,419.322436 768.05089,419.330441 768.145684,419.330441 C769.690605,419.330441 771.021926,418.422531 771.552347,418.005019 C771.94416,417.696624 772.48048,417.203277 772.626251,416.48369 C772.691553,416.160129 772.483008,415.845415 772.158604,415.780113 C771.845154,415.713547 771.52075,415.923356 771.455448,416.246918 C771.40447,416.501806 771.200137,416.763015 770.81338,417.067196 C769.852386,417.822173 768.762473,418.213564 767.862568,418.12172 C767.794738,418.114558 767.76314,418.09897 767.735334,418.104025 C767.730699,417.906012 767.989801,417.33641 768.456185,416.792506 C769.031686,416.123476 769.825423,415.622124 770.597673,415.180176 C770.884159,415.016289 770.983587,414.65144 770.818857,414.365374 C770.654549,414.078466 770.286329,413.979881 770.005319,414.143768 C769.140382,414.639222 768.243848,415.208825 767.551224,416.014779 C767.395341,416.19594 767.070937,416.59997 766.832479,417.076044 C766.840063,416.957236 766.84554,416.839692 766.867869,416.707824 C767.027543,415.776321 767.501089,414.912648 768.201717,414.275636 C768.445231,414.054031 768.462926,413.676121 768.24132,413.432607 C768.019714,413.189094 767.644332,413.170978 767.397448,413.393005 C766.501756,414.207385 765.895499,415.312887 765.690324,416.507283 C765.603115,417.02633 765.601851,417.48513 765.686954,417.910647 C765.780062,418.380401 765.985659,418.844256 766.313012,419.328335 C766.379999,419.427341 766.452042,419.52087 766.524085,419.613979 C766.486168,419.648526 766.445722,419.679702 766.416652,419.725203 C765.378981,421.360283 763.451937,422.234068 761.887635,422.812518 C759.334533,423.75666 756.665994,424.344801 753.954061,424.561772 C753.86348,424.284133 753.75689,424.01829 753.627971,423.767614 C755.308553,423.336199 756.933101,422.600181 758.36427,421.621492 C758.565654,421.798018 758.793579,421.929465 759.035829,421.995188 C759.162641,422.029735 759.289875,422.046588 759.415845,422.046588 C759.794597,422.046588 760.161974,421.89239 760.477952,421.596214 C760.824264,421.270546 761.052611,420.882525 761.135608,420.475966 C761.243883,419.959448 761.101482,419.415123 760.76486,419.054487 C760.594653,418.87122 760.377682,418.730083 760.103834,418.623072 C759.447443,418.36397 758.496981,418.391355 757.959397,419.065862 C757.637942,419.471157 757.539779,420.032333 757.69861,420.568653 C757.703666,420.585927 757.711249,420.601515 757.716305,420.618367 C756.297775,421.594528 754.669856,422.314116 752.99433,422.698345 C752.964418,422.705086 752.941667,422.723623 752.913861,422.734577 C752.720904,422.516763 752.510252,422.315801 752.279799,422.133376 C753.287558,421.02324 754.068655,419.736157 754.555261,418.389669 C754.615929,418.413262 754.668171,418.440647 754.731366,418.463398 C755.156883,418.614224 755.514992,418.701434 755.858776,418.737245 C755.976741,418.749463 756.095549,418.755361 756.21562,418.755361 C757.03632,418.755361 757.889461,418.473088 758.653285,417.942666 C759.323579,417.477546 759.921831,416.840535 760.534828,415.938523 C760.719359,415.666361 760.649423,415.295192 760.376418,415.109818 C760.107205,414.925287 759.735193,414.994381 759.546449,415.268229 C759.019398,416.044692 758.51931,416.582697 757.972458,416.962292 C757.332497,417.406346 756.633132,417.619104 755.981375,417.549168 C755.828021,417.53358 755.658235,417.49482 755.476653,417.444263 C755.483815,417.440472 755.492663,417.435837 755.499825,417.432046 C756.04752,417.130813 756.678212,416.769334 757.23012,416.281886 C757.853229,415.731242 758.288436,415.08454 758.488976,414.41256 C758.582084,414.096582 758.402609,413.764173 758.086631,413.670223 C757.767283,413.575429 757.438666,413.75659 757.344294,414.072147 C757.207791,414.529683 756.895184,414.98427 756.439333,415.387036 C756.055946,415.725765 755.602202,416.00551 755.161518,416.25408 C755.392392,415.355438 755.703736,414.449635 756.271654,413.749849 C756.478935,413.493696 756.439333,413.117893 756.184022,412.91019 C755.928712,412.70333 755.55333,412.740405 755.343521,412.997822 C754.483218,414.059086 754.131851,415.374397 753.855476,416.582697 C753.807447,416.53214 753.754363,416.482848 753.71476,416.429342 C753.383615,415.981075 753.316207,415.411472 753.318313,415.01334 C753.323369,414.444579 753.460714,413.856439 753.601851,413.303267 C753.683584,412.983497 753.491048,412.659093 753.171699,412.57736 C752.85193,412.496891 752.526683,412.688585 752.445371,413.008354 C752.285697,413.632305 752.129393,414.301336 752.124759,415.005335 C752.120125,415.838253 752.337939,416.576377 752.756294,417.140503 C752.94883,417.400026 753.195292,417.628794 753.487677,417.835233 C753.043623,419.134535 752.287804,420.382016 751.297739,421.442438 C751.28173,421.459711 751.275832,421.481619 751.26235,421.500578 C750.834726,421.297509 750.37382,421.134465 749.872047,421.030824 C749.663923,420.987851 749.452849,420.957096 749.241355,420.93266 C750.262174,417.186847 750.284082,413.126741 749.295282,409.379242 C749.945775,409.168169 750.566356,408.834917 751.104361,408.379909 C752.359847,407.316538 753.155268,405.675559 753.287137,403.879119 C753.310308,403.54966 753.063003,403.264015 752.734386,403.240001 C752.435681,403.207561 752.120125,403.462028 752.095689,403.791488 C751.988257,405.271107 751.345768,406.611275 750.332532,407.468629 C750.095759,407.669591 749.837079,407.835584 749.567865,407.9763 C750.016975,406.208087 750.230577,404.39311 750.18002,402.568443 C750.170751,402.238983 749.859408,401.987465 749.567023,401.988305 C749.236721,401.997997 748.976776,402.273109 748.986045,402.602147 C749.039972,404.486218 748.805305,406.362706 748.291315,408.178105 C748.288787,408.184424 748.28668,408.191586 748.285416,408.197906 C748.229383,408.112802 748.179248,408.018852 748.13164,407.927429 C747.393516,406.490361 747.051838,404.879716 747.14284,403.269071 C747.161799,402.940033 746.909859,402.65818 746.580821,402.639643 C746.22524,402.635009 745.96993,402.873888 745.951392,403.201662 C745.849437,404.991362 746.223555,406.779797 747.026981,408.382858 C746.866043,408.35126 746.708054,408.308709 746.554278,408.253939 C746.15404,408.111539 745.734421,407.87603 745.271829,407.534352 C744.743514,407.143382 744.349595,406.755782 744.069849,406.350488 C743.845715,406.025663 743.577766,405.513357 743.568497,404.915948 C743.563863,404.589438 743.296756,404.327808 742.962241,404.327808 C742.633624,404.332442 742.369888,404.604183 742.374522,404.933643 C742.385055,405.64354 742.631096,406.36734 743.086947,407.028366 C743.443791,407.544463 743.926184,408.024329 744.563196,408.494083 C745.121424,408.907382 745.642577,409.196817 746.15404,409.378821 C746.647387,409.554505 747.171067,409.639608 747.700225,409.639608 C747.842205,409.639608 747.984605,409.632024 748.127006,409.620228 C749.103167,413.276725 749.065671,417.252991 748.017888,420.895164 C747.901187,420.901062 747.784486,420.90696 747.667785,420.917914 C747.758786,419.160234 747.532546,417.361688 747.006338,415.679421 C747.234263,415.538706 747.42722,415.35923 747.561616,415.146893 C747.842205,414.701153 747.856529,414.17031 747.602061,413.651264 C747.390988,413.223219 747.086807,412.892074 746.723221,412.693219 C746.25431,412.435802 745.704087,412.413052 745.254134,412.632972 C745.032529,412.741248 744.834516,412.905977 744.649142,413.138116 C744.208458,413.690024 743.956518,414.607203 744.445231,415.3171 C744.734245,415.737982 745.256662,416.002561 745.805621,416.007196 L745.82795,416.007196 C745.838062,416.007196 745.848173,416.00551 745.859127,416.00551 C746.376488,417.649017 746.586719,419.414702 746.462013,421.127302 C746.158253,421.20398 745.859548,421.296245 745.568849,421.406627 C744.717815,417.935504 742.958449,414.757187 740.45464,412.2024 C740.390181,412.137519 740.313503,412.094125 740.232192,412.064633 C740.443265,411.651756 740.589457,411.20728 740.654759,410.745109 C740.770197,409.931572 740.661922,409.053153 740.323615,408.060982 C739.975196,407.037214 739.281309,405.629637 737.954622,404.735209 C737.683303,404.554048 737.311291,404.621457 737.125918,404.896568 C736.941808,405.169994 737.013851,405.540742 737.28812,405.725273 C738.33843,406.433906 738.90382,407.595863 739.193256,408.445633 C739.46921,409.256643 739.561476,409.954322 739.473002,410.578694 C739.435927,410.839482 739.351245,411.091 739.245498,411.334092 C738.323263,409.405784 737.140242,407.949758 735.716235,407.011935 C735.439859,406.830775 735.070376,406.906188 734.888794,407.182563 C734.708054,407.457675 734.783889,407.82758 735.059001,408.009162 C736.21885,408.772564 737.240091,409.999823 738.04436,411.586453 C736.476688,411.502614 734.950304,410.778392 733.91516,409.591579 C733.698189,409.342589 733.319437,409.318153 733.072131,409.533861 C732.823983,409.750832 732.798284,410.127899 733.014834,410.376047 C734.279167,411.824911 736.15102,412.691534 738.065004,412.772003 C737.652969,413.063124 737.18153,413.271669 736.681863,413.353823 C735.311783,413.576693 733.782028,412.902607 732.957958,411.709474 C732.770056,411.437312 732.397202,411.372431 732.127989,411.557383 C731.856248,411.744442 731.788418,412.116454 731.97632,412.387774 C732.924253,413.761224 734.529421,414.591193 736.137539,414.591193 C736.38358,414.591193 736.630464,414.571392 736.875242,414.531368 C737.935664,414.357791 738.892445,413.794929 739.583805,413.012146 C739.590967,413.020151 739.593495,413.030683 739.601078,413.038688 C742.013043,415.497839 743.696574,418.57083 744.472616,421.926095 C743.886161,422.263138 743.35616,422.673909 742.909999,423.149561 C741.712654,422.47379 740.656023,421.53049 739.855125,420.409822 C739.813837,420.351682 739.761174,420.308709 739.706404,420.27037 C739.91832,419.553311 739.839958,418.724606 739.46584,417.926235 C739.0913,417.128285 738.496841,416.480741 737.972317,415.90861 C737.749869,415.665097 737.370695,415.650772 737.129288,415.871957 C736.886617,416.094827 736.870607,416.472736 737.093477,416.715408 C737.581768,417.248778 738.087755,417.800265 738.385195,418.433485 C738.640927,418.978652 738.684742,419.537301 738.535179,419.981777 C738.418478,419.563843 738.200664,419.15897 737.978215,418.877539 C737.566602,418.357229 737.128445,417.854613 736.674701,417.383596 C736.44509,417.145559 736.068445,417.140503 735.830829,417.367165 C735.592793,417.595933 735.58563,417.973421 735.813977,418.211458 C736.241179,418.654248 736.653636,419.128215 737.042078,419.61777 C737.121283,419.718883 737.195854,419.841904 737.257786,419.968295 C736.333024,419.866761 735.430591,419.472842 734.745129,418.854368 C734.500352,418.634447 734.123706,418.655091 733.9021,418.898183 C733.680915,419.143382 733.700717,419.520449 733.945494,419.741634 C734.78094,420.494504 735.832936,420.97142 736.937595,421.127724 C736.61614,421.181229 736.256768,421.198503 735.8342,421.173646 C734.837395,421.114242 734.092529,420.854719 733.618141,420.403081 C733.381368,420.175998 733.003459,420.184003 732.773848,420.422882 C732.546344,420.662183 732.555613,421.039671 732.794492,421.267175 C733.477847,421.918932 734.47718,422.288416 735.761735,422.365515 C735.926465,422.375205 736.082348,422.379839 736.234017,422.379839 C736.836903,422.379839 737.34626,422.301898 737.812643,422.139274 C738.305569,421.968225 738.728979,421.68553 739.063494,421.341746 C739.908209,422.454831 740.975793,423.402344 742.17988,424.107606 C741.878226,424.609801 741.660833,425.152861 741.523488,425.711932 C739.857652,425.738053 738.17033,425.44651 736.608978,424.876065 C736.610242,424.85837 736.613191,424.841097 736.614033,424.821717 C736.632571,424.26391 736.398326,423.744442 735.985448,423.432677 C735.299986,422.914474 734.369747,423.123862 733.799723,423.538003 C733.55958,423.712845 733.384739,423.903274 733.266774,424.119824 C733.02663,424.559244 733.024524,425.109046 733.260875,425.588911 C733.444985,425.964714 733.762227,426.284484 734.179739,426.511567 C734.440948,426.654389 734.708054,426.72601 734.969263,426.72601 C735.21404,426.72601 735.451656,426.663657 735.673262,426.53853 C735.891497,426.414245 736.079399,426.230136 736.230647,426.008108 C737.857301,426.598777 739.611611,426.910541 741.355809,426.91012 C741.341906,427.279182 741.360865,427.646559 741.416056,428.006353 C741.371819,428.007617 741.327582,428.002561 741.283345,428.014358 C737.489503,429.03602 733.242759,428.199732 730.113735,425.845064 C730.627726,423.66608 730.020205,421.297509 728.508988,419.642627 C728.287382,419.399535 727.910737,419.38184 727.665959,419.603867 C727.422445,419.825894 727.405172,420.203804 727.62762,420.446896 C728.723853,421.647613 729.25259,423.371588 729.057526,424.988974 C728.969473,424.897973 728.87805,424.807392 728.785364,424.715548 C728.307184,424.238632 727.807096,423.784466 727.299003,423.339569 C726.945529,423.02949 726.316944,422.242494 725.799583,422.264402 C725.639908,422.271143 725.486554,422.3672 725.410719,422.508337 C725.342047,422.636413 725.336991,422.788504 725.342889,422.933854 C725.362269,423.398131 726.0056,423.796263 726.331268,424.079379 C726.904242,424.577782 727.467525,425.086717 728.005109,425.622615 C728.098638,425.715302 728.19301,425.808832 728.280642,425.903204 C728.117176,425.939436 727.925061,425.961344 727.700085,425.970191 C726.179599,426.035915 724.6292,425.584277 723.363182,424.718076 C723.101974,424.5386 722.747236,424.594212 722.552593,424.846995 C722.359215,425.098092 722.396289,425.4562 722.636854,425.663061 L722.766194,425.773021 C722.826862,425.824841 722.895535,425.862337 722.967578,425.885509 C724.298898,426.719691 725.861093,427.169222 727.431714,427.169222 C727.536619,427.169222 727.641945,427.166694 727.746849,427.162903 C727.89557,427.157004 728.065776,427.144365 728.244831,427.11993 C728.07968,427.335637 727.901889,427.531122 727.700085,427.676893 C727.079925,428.124739 726.290402,428.235964 725.736808,428.250709 C724.696609,428.291576 723.604589,427.99877 722.696258,427.460764 C722.41272,427.293928 722.045765,427.385351 721.878928,427.669731 C721.709564,427.953269 721.804357,428.319382 722.087474,428.487903 C723.134414,429.108484 724.372626,429.446791 725.59188,429.446791 C725.651705,429.446791 725.709845,429.445527 725.769249,429.444263 C726.80355,429.416457 727.712724,429.140082 728.399449,428.644628 C729.02003,428.196782 729.432486,427.602323 729.709283,427.019238 C732.107345,428.718778 735.051838,429.635957 737.998017,429.635957 C739.21053,429.635957 740.421778,429.483023 741.593425,429.167467 C741.636819,429.15567 741.670944,429.129971 741.709283,429.109748 C741.801127,429.34947 741.909824,429.581187 742.037058,429.80195 C740.30592,430.731768 738.387302,431.366252 736.445512,431.644312 C736.424447,431.595863 736.406752,431.546991 736.38358,431.499805 C736.103413,430.938628 735.574255,430.536283 735.001703,430.450337 C734.026806,430.299932 733.213268,431.027524 732.865692,431.760171 C732.722449,432.060982 732.647878,432.355474 732.646614,432.638168 C732.646614,433.195554 732.950796,433.75673 733.440772,434.104306 C733.832585,434.381945 734.331409,434.529402 734.890058,434.531087 C735.541815,434.531087 736.071815,434.25429 736.384423,433.750411 C736.550838,433.48204 736.639312,433.159321 736.659113,432.818908 C738.786276,432.508828 740.886055,431.800195 742.770126,430.761681 C742.8843,430.877118 743.003108,430.984972 743.124864,431.088191 C741.789752,433.818241 739.421603,435.995118 736.582014,437.077027 C736.523453,437.035739 736.457308,437.005826 736.386529,436.98771 C735.327792,435.75666 733.492592,435.173997 731.374698,435.444474 C730.158814,435.59825 728.993909,435.968997 727.910737,436.545762 C727.620458,436.700802 727.510077,437.06186 727.665116,437.353402 C727.819735,437.644523 728.181635,437.751113 728.472756,437.599444 C729.426588,437.091351 730.453727,436.764841 731.523839,436.628759 C732.368975,436.520906 733.353562,436.57399 734.200804,436.894602 C732.346224,437.082504 730.546414,437.923426 729.270284,439.273705 C729.044044,439.513427 729.054577,439.890916 729.293456,440.117577 C729.533599,440.34466 729.910245,440.333285 730.137749,440.094406 C731.429467,438.728117 733.343872,437.973562 735.234684,438.048975 C733.921059,440.008881 732.152425,441.590877 730.181986,442.554821 C729.886231,442.70017 729.763631,443.057436 729.908139,443.353613 C730.011779,443.565107 730.224117,443.688128 730.444459,443.688128 C730.532932,443.688128 730.62267,443.669169 730.70651,443.62746 C732.789436,442.607905 734.657498,440.961449 736.071815,438.930343 C736.27699,439.784747 736.138381,440.716671 735.871275,441.429518 C735.404891,442.671943 734.522681,443.750481 733.669119,444.792787 C733.460573,445.048097 733.497648,445.424322 733.752958,445.632867 C733.863761,445.723869 733.997736,445.768106 734.130868,445.768106 C734.303603,445.768106 734.474652,445.693535 734.592617,445.549449 C735.464295,444.483129 736.453095,443.275672 736.988151,441.848294 C737.471387,440.56121 737.493716,439.24927 737.086315,438.16062 C740.110013,436.985182 742.64542,434.682756 744.114086,431.79219 C744.311256,431.910577 744.505899,432.017166 744.695064,432.11533 C744.683268,432.146085 744.663888,432.172206 744.657568,432.205911 C744.32221,433.891548 743.65023,435.539267 742.715778,436.986446 C742.698926,436.981391 742.682917,436.97465 742.666064,436.970016 C742.129744,436.827615 741.560984,436.946001 741.170014,437.274197 C740.511516,437.829897 740.510252,438.780359 740.789155,439.428745 C740.905435,439.700908 741.05247,439.912402 741.239951,440.079239 C741.519696,440.324859 741.887495,440.455463 742.273409,440.455463 C742.404856,440.455463 742.537567,440.440296 742.670699,440.408698 C743.077678,440.312641 743.458958,440.07334 743.772409,439.717339 C744.154952,439.285923 744.281765,438.770247 744.129253,438.265946 C744.056367,438.025803 743.918601,437.801248 743.736176,437.604921 C744.707703,436.092018 745.413387,434.379418 745.786241,432.623002 C745.940017,432.686197 746.092108,432.74518 746.242513,432.799528 C746.390391,437.108625 746.186901,441.975528 743.932925,446.010777 C743.858776,446.011198 743.787997,446.028893 743.718903,446.05712 C742.196732,445.62402 740.450427,446.02805 738.390672,447.311763 C738.110926,447.485762 738.025823,447.854403 738.199821,448.134149 C738.376769,448.415158 738.747516,448.497734 739.022628,448.324578 C740.25747,447.554856 741.33011,447.148719 742.27383,447.089736 C741.108082,448.184284 740.295387,449.670223 740.055665,451.244214 C740.00553,451.569882 740.229242,451.874064 740.555753,451.923777 C740.875101,451.975598 741.186445,451.750622 741.235738,451.42369 C741.468719,449.893935 742.348823,448.46108 743.590405,447.53379 C743.777043,448.348592 743.813275,449.232909 743.685199,450.050239 C743.512464,451.159111 743.143823,452.258293 742.7874,453.321664 C742.682074,453.634693 742.850174,453.972578 743.162782,454.077483 C743.225556,454.098548 743.289594,454.10866 743.35279,454.10866 C743.602202,454.10866 743.835604,453.951092 743.91818,453.70168 C744.291455,452.591123 744.676105,451.44307 744.86485,450.235191 C744.970176,449.564054 744.979023,448.855 744.901924,448.160691 C745.222958,448.515007 745.489643,448.939682 745.672489,449.411963 C746.056297,450.404555 746.081997,451.583785 745.742426,452.645892 C745.642577,452.960185 745.816154,453.295964 746.129604,453.396235 C746.190272,453.416036 746.25094,453.424883 746.311607,453.424883 C746.564811,453.424883 746.799056,453.263524 746.880789,453.009899 C747.301672,451.692482 747.266703,450.223816 746.785996,448.980969 C746.410192,448.008179 745.754644,447.178631 744.955851,446.629251 C747.299986,442.458342 747.575519,437.539618 747.449549,433.148789 C747.681688,433.19766 747.908771,433.23305 748.13164,433.258328 C748.924534,435.384228 749.31424,437.698029 749.261577,439.962959 C749.198382,439.977704 749.135186,439.989922 749.071148,440.009723 C748.444248,440.203102 747.940368,440.680861 747.754995,441.255098 C747.439017,442.230838 748.047801,443.198573 748.748429,443.685179 C749.043342,443.889511 749.326458,444.01169 749.613366,444.058876 C749.706474,444.074464 749.800004,444.081626 749.893112,444.081626 C750.386038,444.081626 750.881912,443.871395 751.258137,443.490537 C751.612875,443.132007 751.85049,442.641188 751.94739,442.068636 C752.060721,441.395392 751.865657,440.799668 751.400538,440.392267 C751.145227,440.168555 750.815768,440.019835 750.455553,439.943157 C750.501054,437.693816 750.136204,435.402765 749.400186,433.270124 C749.521101,433.257064 749.637381,433.233892 749.754082,433.212406 C754.195047,441.768246 756.194555,451.738404 755.377225,461.340763 C755.349419,461.669801 755.592933,461.958395 755.921971,461.986201 C755.938402,461.987886 755.955676,461.988728 755.97337,461.988728 C756.279658,461.988728 756.539603,461.753641 756.566566,461.442297 C757.396956,451.681949 755.382702,441.551696 750.900871,432.836603 C750.975021,432.799949 751.052119,432.770037 751.124162,432.72917 C751.548837,432.487342 751.930538,432.168415 752.275586,431.775338 C753.994927,433.035458 755.511621,434.623774 756.683268,436.403362 C756.639452,436.451812 756.594372,436.498576 756.553927,436.550397 C756.146948,437.066073 756.003283,437.746479 756.179388,438.324086 C756.474722,439.306988 757.525033,439.75652 758.384072,439.757362 C758.738388,439.757362 759.039199,439.697116 759.301672,439.573253 C759.835885,439.322155 760.220535,438.797632 760.332181,438.169047 C760.419391,437.672329 760.335551,437.133903 760.089931,436.608958 C759.799653,435.990484 759.301672,435.61131 758.68741,435.540531 C758.346154,435.501771 757.990995,435.56581 757.652267,435.707368 C756.403101,433.819926 754.792034,432.136395 752.964418,430.800441 C753.229418,430.337428 753.460714,429.802372 753.665468,429.203699 C756.905295,430.167221 760.038532,431.48843 762.984711,433.138678 C762.857056,433.322787 762.739933,433.516166 762.641769,433.722605 C762.226785,434.594704 762.097445,435.642487 762.28029,436.673418 C762.354861,437.105254 762.474933,437.463362 762.644297,437.765859 C762.833041,438.104166 763.089615,438.384333 763.33987,438.634587 C763.829846,439.128356 764.360268,439.590105 764.917653,440.007617 C765.024664,440.088086 765.150634,440.127267 765.27534,440.127267 C765.456079,440.127267 765.635555,440.04427 765.753099,439.887967 C765.950269,439.624652 765.896763,439.250534 765.633027,439.052942 C765.122828,438.669556 764.635379,438.246145 764.186691,437.793665 C764.010586,437.616296 763.811309,437.408172 763.687446,437.184038 C763.583805,436.999086 763.50797,436.764841 763.455307,436.466979 C763.35925,435.918441 763.382,435.371588 763.504178,434.869394 C764.491715,436.598847 766.191676,437.898148 768.131781,438.366638 C768.178546,438.378435 768.226153,438.38349 768.271654,438.38349 C768.540867,438.38349 768.786066,438.199802 768.852211,437.926375 C768.929309,437.606606 768.732139,437.283466 768.411527,437.206788 C766.695556,436.791383 765.194871,435.604569 764.395236,434.030157 C764.287804,433.818241 764.285697,433.741563 764.286961,433.724711 C764.312239,433.655196 764.319823,433.584417 764.31898,433.514481 C764.365745,433.533439 764.410403,433.55619 764.462645,433.562931 C766.006302,433.755888 767.498982,434.323384 768.780168,435.204752 C768.882544,435.276795 769.000509,435.310499 769.118053,435.310499 C769.307219,435.310499 769.493435,435.219919 769.610136,435.05224 C769.796774,434.780499 769.72768,434.408488 769.45636,434.22185 C768.408577,433.500578 767.233561,432.968892 766.015992,432.646173 C766.778131,432.55138 767.480024,432.586348 768.102711,432.747708 C768.790279,432.927183 769.380526,433.264226 769.807307,433.72092 C770.032283,433.961063 770.409771,433.975387 770.651178,433.749147 C770.891322,433.524171 770.904382,433.146682 770.678984,432.905696 C770.097585,432.283852 769.310589,431.829686 768.403522,431.592492 C767.6338,431.393215 766.781502,431.349821 765.868957,431.461888 C765.485149,431.509495 765.176334,431.57564 764.89406,431.670433 C764.501405,431.803144 764.134449,432.00874 763.803304,432.268264 C763.762859,432.225712 763.722835,432.182739 763.668908,432.152826 C760.615719,430.432221 757.364937,429.058349 754.003353,428.058595 C754.026525,427.961273 754.048433,427.860582 754.069919,427.758205 C754.128481,427.76621 754.187463,427.773372 754.24771,427.763261 C756.5,427.341114 758.87784,427.364707 761.12676,427.822664 C761.130131,427.887545 761.130973,427.952426 761.138978,428.017307 C761.216919,428.667379 761.598199,429.248357 762.132413,429.534001 C762.404996,429.679772 762.691904,429.742968 762.976285,429.742968 C763.63394,429.742968 764.278535,429.407189 764.699418,428.986306 C764.951357,428.733102 765.121564,428.476107 765.219307,428.199732 C765.415213,427.652036 765.312836,426.992696 764.951357,426.479548 C764.659815,426.067512 764.219131,425.746479 763.673543,425.550994 C763.033582,425.320119 762.412159,425.406486 761.926816,425.792822 C761.661816,426.005159 761.457063,426.303021 761.318032,426.644699 C758.99749,426.177894 756.553506,426.149245 754.222853,426.55791 C754.235492,426.288697 754.232964,426.014428 754.207264,425.736789 C756.973967,425.500859 759.696012,424.895445 762.30262,423.931501 C764.012692,423.299545 766.119633,422.329704 767.356582,420.456165 C767.873943,420.864409 768.449865,421.144576 769.042219,421.253694 C769.274357,421.296245 769.503968,421.314361 769.728944,421.314361 C770.336464,421.314361 770.904382,421.182493 771.364867,421.054417 C772.347348,420.780148 773.294018,420.381594 774.177914,419.86971 C774.462294,419.70498 774.560036,419.339288 774.394885,419.054487" id="39"></path>
        </g>
    </g>
</svg>
