<?xml version="1.0" encoding="UTF-8"?>
<svg width="26px" height="60px" viewBox="0 0 26 60" version="1.1" xmlns="http://www.w3.org/2000/svg" xmlns:xlink="http://www.w3.org/1999/xlink">
    <title>34</title>
    <g id="页面-1" stroke="none" stroke-width="1" fill="none" fill-rule="evenodd">
        <g id="植物" transform="translate(-340.000000, -402.000000)" fill="#545458">
            <path d="M353.09726,401.99136 C353.13834,401.980251 353.196988,402.005053 353.203706,402.051817 C353.268038,402.498526 353.397219,402.934125 353.466719,403.375667 C353.762544,402.786859 354.23018,402.305529 354.950237,402.480957 C354.989767,402.490258 355.010436,402.525912 355.013278,402.563375 C355.026971,402.739837 354.90089,402.780658 354.858002,403.006984 L354.856451,403.019385 L354.946362,402.950919 C354.976073,402.927666 355.027746,402.951952 355.034722,402.98709 C355.117139,403.379284 355.080194,403.807133 354.954113,404.228781 C355.425624,403.829094 356.075665,403.849246 356.686692,403.889292 C356.754383,403.893684 356.801405,403.963442 356.765493,404.026224 L356.659458,404.213677 C356.345129,404.775535 356.054867,405.32739 355.521219,405.720825 C356.143614,405.682329 356.890282,405.847164 357.022047,406.544743 C357.032382,406.598999 356.996469,406.671083 356.931103,406.664107 C355.812135,406.547844 354.401733,407.4888 353.397994,406.714746 L353.311701,406.741616 C353.218691,407.202793 352.835539,407.578969 352.395289,407.743546 L352.382629,407.88642 C352.389863,407.913549 352.398131,407.940677 352.40459,407.968063 C352.412599,408.0032 352.393739,408.026711 352.369194,408.040405 C352.320622,408.563589 352.268175,409.085998 352.21056,409.606857 C352.320622,409.435563 352.458588,409.283646 352.642025,409.19141 C352.687239,409.168674 352.764748,409.195027 352.75648,409.256776 C352.694215,409.725446 352.430426,410.23597 352.097397,410.585018 C351.855569,412.632284 351.583772,414.668956 351.416611,416.718806 C351.498254,416.373891 351.608833,416.040604 351.732847,415.713258 C351.707528,415.705507 351.685567,415.68768 351.688926,415.657193 C351.874172,414.025892 352.387538,412.305455 353.406262,410.986514 C353.891619,410.358297 354.448781,409.800284 355.01531,409.251058 L355.440987,408.839827 C355.937383,408.359741 356.428998,407.874627 356.874005,407.343342 C356.918444,407.290119 357.016621,407.332491 357.011713,407.400182 C356.767043,410.781632 354.569927,413.435792 352.227353,415.692848 C352.187824,415.731085 352.112382,415.678638 352.148294,415.631874 C353.082017,414.40646 354.320091,413.426232 355.136517,412.105999 C355.584425,411.381956 355.997804,410.615809 356.289359,409.81211 L356.354438,409.625976 C356.461917,409.330409 356.555186,409.030192 356.633986,408.725582 C356.732681,408.479879 356.761101,408.228751 356.726222,407.973747 C356.087808,409.582313 354.791086,410.743653 353.84367,412.171881 C352.586477,414.066971 351.426687,416.181928 351.309391,418.490915 C351.308874,418.499958 351.303448,418.504866 351.299573,418.511326 C351.282004,418.905329 351.269345,419.29959 351.263661,419.695143 C351.361063,419.406294 351.517889,419.14018 351.745507,418.923931 C351.796404,418.875617 351.876497,418.911013 351.879597,418.979479 C351.9044,419.528499 351.685308,420.230729 351.262627,420.618014 C351.265986,420.915648 351.273478,421.214057 351.285621,421.512983 C351.334452,422.72832 351.417128,423.939783 351.520215,425.149437 C351.61245,424.978142 351.726646,424.828034 351.841618,424.736315 C351.885281,424.701178 351.962273,424.706603 351.977,424.772227 C352.083704,425.260533 351.926361,425.8527 351.624077,426.270731 C351.720187,427.273436 351.826633,428.275108 351.94548,429.275746 C352.380304,428.493424 352.886953,427.751407 353.466719,427.055895 C353.647314,426.744826 353.815767,426.419806 353.976727,426.087035 C354.217779,424.659581 353.551462,423.57575 353.384818,422.213662 C353.227733,420.929341 353.381459,419.623577 353.060314,418.3607 C353.043521,418.294043 353.140407,418.249604 353.173736,418.313161 C353.75531,419.423604 354.909416,419.986318 355.111714,421.316885 C355.201882,421.913445 355.213509,422.489077 355.132383,423.055924 C355.581159,421.520734 355.869491,419.927411 356.00074,418.429425 C355.987305,418.445443 355.968703,418.453969 355.94855,418.454744 L355.945192,418.466629 C355.911604,418.571782 355.776222,418.542329 355.763821,418.442084 C355.737468,418.22971 355.700522,418.023795 355.644199,417.822531 C355.59356,417.811938 355.547313,417.792561 355.500291,417.774217 C355.494349,417.788685 355.483756,417.800312 355.465154,417.799278 C354.890555,417.761299 354.276427,417.46599 353.989386,416.940739 C353.732316,416.470519 353.745234,415.850965 354.22398,415.525429 C354.259117,415.501401 354.293996,415.546873 354.277719,415.579426 C354.146471,415.844506 353.94779,416.086334 353.986803,416.405412 C354.018323,416.666358 354.134586,416.912578 354.321124,417.09989 C354.59628,417.37608 354.93396,417.568044 355.306519,417.671647 C354.459348,417.085939 354.409484,415.122124 355.114297,414.524273 C355.171654,414.475443 355.247096,414.509547 355.254588,414.582405 C355.263373,414.666373 355.281458,414.752924 355.303677,414.839734 C355.510626,414.347553 356.101501,415.18749 356.235591,415.431901 C356.366323,414.924735 356.704261,414.512389 357.204968,414.317325 C357.251215,414.299498 357.294103,414.344195 357.296428,414.386824 C357.313739,414.692467 357.322264,415.052883 357.302112,415.424409 C357.480899,415.15752 357.692756,414.941012 358.03612,414.857303 C358.083659,414.845935 358.119313,414.879264 358.124222,414.924477 C358.226534,415.871634 357.729702,416.941256 356.918444,417.493118 C356.922319,417.507328 356.928003,417.521022 356.922836,417.53859 C356.907334,417.591813 356.891316,417.630826 356.86703,417.663638 C356.814582,417.782226 356.756709,417.897714 356.697802,418.012686 C357.611889,417.539107 358.602193,416.682376 358.244102,415.623348 C358.220591,415.553073 358.328329,415.525687 358.353648,415.59312 C358.776071,416.722939 357.65271,417.984007 356.547177,418.283191 L356.461534,418.432621 C356.446961,418.457385 356.432033,418.481958 356.416445,418.506158 C356.376399,418.56894 356.335578,418.630947 356.292948,418.692954 C356.255227,418.747727 356.19322,418.751086 356.146456,418.728092 C356.099434,419.516356 355.949325,420.315213 355.761754,421.103736 C355.902303,420.90273 356.087033,420.685447 356.301474,420.5666 C356.360897,420.533788 356.426521,420.575643 356.430397,420.64075 C356.446932,420.892654 356.343845,421.124405 356.18056,421.31301 L356.108337,421.394467 C355.96766,421.548828 355.783755,421.722256 355.59356,421.773412 C355.47368,422.233091 355.346689,422.687313 355.225817,423.131713 L355.136517,423.463104 C354.867819,424.474852 354.558301,425.484533 354.055269,426.394486 C354.148796,426.295275 354.249558,426.201231 354.345927,426.104087 C354.466582,425.945969 354.60894,425.811103 354.763699,425.690448 C354.885646,425.576252 355.00811,425.45973 355.131091,425.342175 C355.125665,425.323056 355.128507,425.301612 355.149435,425.292311 L355.217642,425.259241 C356.20743,424.3095 357.238813,423.26494 358.333754,422.322691 C358.329879,422.311323 358.327812,422.298663 358.333237,422.284195 C358.355715,422.22193 358.385168,422.160698 358.417464,422.099983 C358.276656,421.627437 358.452601,421.093143 358.783564,420.734278 C358.815601,420.699399 358.878641,420.707925 358.901119,420.749263 C359.103933,421.123113 358.983536,421.598501 358.749976,421.972868 C359.127444,421.662575 359.51318,421.368041 359.907183,421.09521 C359.900465,421.072474 359.906666,421.047413 359.930952,421.03062 C359.970482,421.003492 360.019312,420.98799 360.07331,420.980756 C360.558773,420.654185 361.057155,420.362494 361.57078,420.1217 C361.551144,420.086821 361.551919,420.051942 361.560187,420.019647 C360.751512,419.289255 360.841939,417.953262 361.15094,417.003263 C361.162567,416.968125 361.192795,416.943064 361.230258,416.943064 C361.246793,416.943581 361.262811,416.942806 361.279347,416.940222 C361.299241,416.937897 361.316809,416.94849 361.332311,416.961925 C361.372357,416.963733 361.41292,416.977168 361.430489,417.014372 C361.502314,417.165515 361.583956,417.309939 361.662498,417.456173 C361.710812,416.862455 361.830176,416.278297 362.087505,415.713258 C362.115925,415.650476 362.197309,415.669595 362.230121,415.713258 C362.789476,416.452434 363.062824,417.221838 362.931317,417.97729 C363.274165,417.378405 363.756528,416.906377 364.503712,416.896559 C364.558227,416.895784 364.591297,416.947973 364.580446,416.997579 C364.448164,417.626692 364.164224,418.136441 363.784431,418.568424 C363.945132,418.487815 364.104284,418.418057 364.250259,418.366901 L364.298545,418.351168 C364.667731,418.238321 365.665416,418.081774 365.629657,418.718791 C365.598395,419.274787 364.755616,419.58353 364.337327,419.757667 L364.045894,419.881423 C364.833641,419.839051 365.643608,420.003628 365.942275,420.648501 C365.955969,420.67873 365.959586,420.723426 365.929616,420.746937 C365.546722,421.043279 364.948354,421.178145 364.33991,421.162385 C364.749674,421.493605 365.007003,421.963309 365.217052,422.451614 C365.243405,422.512071 365.213951,422.58803 365.139026,422.587771 C363.824477,422.581312 362.871636,421.554062 362.262158,420.477724 L362.207902,420.470489 C362.193175,420.469198 362.179482,420.465064 362.166822,420.45938 C362.148737,420.480049 362.123417,420.494259 362.085955,420.482116 C361.964008,420.442328 361.856787,420.387813 361.760418,420.315989 L361.670249,420.320639 C361.63227,420.320639 361.604108,420.303329 361.583956,420.279043 C361.185561,420.506402 360.804476,420.753913 360.434759,421.015118 L360.478288,421.025902 L360.555931,421.047413 C360.695964,421.088751 360.919964,421.157734 360.949418,421.32722 C360.981971,421.519183 360.71069,421.662058 360.555673,421.685311 C360.275091,421.727165 359.996318,421.626921 359.733563,421.536235 C359.103675,422.029966 358.502982,422.564002 357.909264,423.122324 C357.301337,423.693563 356.670932,424.244909 356.048537,424.804006 L356.265451,424.669764 L356.915022,424.258922 C357.60315,423.828852 358.307162,423.433966 359.103675,423.300335 C360.556965,423.056958 361.965041,423.239879 363.406188,423.47783 C363.491448,423.49204 363.499198,423.61838 363.42944,423.656617 C362.332691,424.258344 361.20468,425.163647 359.911316,425.274484 C358.183387,425.422268 356.586964,425.361811 354.939644,426.008493 C354.891847,426.027353 354.863686,425.952686 354.90554,425.928142 C355.847971,425.376317 356.827057,425.212372 357.900705,425.180452 L358.025011,425.17734 C359.741831,425.141686 361.031835,424.878156 362.519229,423.975179 C363.418354,423.42916 362.158908,423.361438 361.305296,423.358924 L361.019488,423.360126 C360.893766,423.361384 360.78988,423.363117 360.721542,423.363117 C359.736663,423.363117 358.710964,423.438301 357.827622,423.924023 C357.603466,424.047107 357.384334,424.177701 357.166638,424.309933 L356.7321,424.574838 C356.369811,424.794511 356.004873,425.007854 355.620688,425.187674 L355.606478,425.200334 C355.950876,425.047642 356.310258,424.920269 356.644838,424.785145 L357.200754,424.562546 C358.405431,424.086752 359.616628,423.6736 360.937274,423.720175 C360.999798,423.721983 360.997215,423.809051 360.937274,423.815252 C359.587153,423.954034 358.407697,424.263017 357.158578,424.732316 L356.949706,424.812015 C356.389575,425.028781 355.792499,425.224104 355.26544,425.517862 C355.018703,425.750905 354.774809,425.986532 354.540216,426.230684 C354.132003,426.654916 353.751951,427.100591 353.398769,427.563061 C353.681935,427.407009 354.075938,427.378073 354.364271,427.446539 C354.416718,427.459199 354.445397,427.527406 354.415685,427.573137 C354.172049,427.947504 353.612435,428.406356 353.134206,428.174347 C353.066773,428.141276 353.10992,428.055758 353.168827,428.048007 C353.40497,428.01752 353.614502,428.045682 353.830493,427.912884 C353.971301,427.826332 354.082914,427.714978 354.1829,427.589155 C353.897668,427.55531 353.516066,427.601815 353.306792,427.7651 C353.285865,427.781635 353.263387,427.778535 353.244527,427.769751 C352.779216,428.400414 352.363769,429.061564 352.002836,429.750359 C352.125042,430.755906 352.256032,431.760162 352.389347,432.764159 C352.494759,432.426996 352.701965,432.103267 352.907105,431.860148 C352.964979,431.790907 353.062123,431.852914 353.068065,431.926805 C353.113795,432.493395 352.875843,433.182448 352.506127,433.634324 L352.828046,436.015911 C353.023627,437.457574 353.262354,438.931792 353.506248,440.426419 C353.596417,440.020273 353.785538,439.631438 354.029691,439.334062 C354.080588,439.273089 354.16559,439.317269 354.189101,439.376434 C354.461415,440.061095 354.16559,441.002827 353.729474,441.623672 C353.726718,441.630906 353.722928,441.636877 353.718029,441.642427 L353.706738,441.654417 C354.041834,443.715634 354.367371,445.808113 354.586721,447.901884 C354.635551,447.316951 354.697817,446.731243 354.771709,446.14631 L354.729595,446.19049 C354.697817,446.221493 354.660871,446.211417 354.63891,446.186356 C354.60584,446.247588 354.57587,446.31037 354.541249,446.370569 C354.50172,446.439293 354.395016,446.377544 354.435062,446.30882 C354.605323,446.014803 354.748198,445.710194 354.879962,445.401192 C355.118431,443.744312 355.449652,442.093892 355.842105,440.45949 L355.837971,440.424094 C355.451202,439.961883 355.191289,439.127889 355.448102,438.58171 C355.474713,438.525129 355.549897,438.540114 355.579867,438.58171 C355.840555,438.943418 355.955526,439.419322 355.980329,439.890317 C356.139997,439.249319 356.308191,438.610905 356.484136,437.976108 C356.226807,437.479535 356.010299,436.83027 356.12527,436.303985 C356.137155,436.250504 356.215181,436.228027 356.251868,436.270398 C356.471476,436.52566 356.617968,436.857656 356.701936,437.210063 C356.799597,436.869541 356.901908,436.532378 357.003187,436.193923 C356.967533,436.206324 356.932654,436.222084 356.897258,436.23216 C356.846102,436.24637 356.795721,436.174029 356.841968,436.137083 C356.916893,436.077918 356.993369,436.022112 357.070103,435.967597 L357.135468,435.74773 C357.134693,435.735071 357.136243,435.722153 357.143736,435.710268 L357.148903,435.702517 C357.32304,435.130244 357.500793,434.561071 357.683197,433.996807 C357.67958,433.978722 357.682422,433.959344 357.690173,433.941259 C357.688364,433.933508 357.689139,433.925499 357.689656,433.918006 C357.680355,433.912839 357.671571,433.906122 357.66692,433.89372 C357.597162,433.714158 357.533863,433.534079 357.478316,433.351675 C356.497829,433.316538 355.558423,432.295231 355.567207,431.340581 C355.567465,431.298468 355.595885,431.26178 355.635673,431.250154 C356.011591,431.144483 356.439181,431.296142 356.793655,431.563031 L356.745536,431.428745 C356.546362,430.861969 356.374466,430.209249 356.634503,429.647789 C356.849719,429.183769 357.611114,429.882899 357.754764,430.072795 C357.946469,430.325215 358.072808,430.614065 358.1498,430.917899 C358.332462,430.343301 358.63578,429.813141 359.069571,429.423788 C359.109359,429.387876 359.175241,429.391235 359.203144,429.44084 C359.532298,430.031199 359.545475,430.753322 359.33956,431.422223 C359.783169,430.947869 360.320046,430.605539 361.035194,430.625691 C361.095134,430.6275 361.134405,430.69209 361.103918,430.745313 C360.7218,431.41008 360.186989,432.010515 359.575962,432.50838 C360.074602,432.335535 360.59081,432.199378 361.083766,432.182843 C361.154299,432.180259 361.203905,432.281796 361.144481,432.329593 C360.630856,432.74504 359.640036,433.399989 358.831619,433.365369 C358.76832,433.446494 358.697787,433.520645 358.613303,433.575417 C358.577132,433.598928 358.53476,433.553198 358.555688,433.517803 C358.581007,433.474656 358.608652,433.433835 358.636555,433.393272 C358.371217,433.627607 358.102778,433.858325 357.804886,434.052872 L357.800752,434.054422 C357.68113,434.469611 357.569259,434.884283 357.45558,435.298955 C357.708517,435.02199 358.027853,434.787655 358.372767,434.722289 C358.454668,434.707046 358.507632,434.780937 358.474562,434.854829 C358.25237,435.350369 357.760706,435.836091 357.237522,436.095228 C357.080954,436.686362 356.928778,437.277754 356.783578,437.869146 C356.785904,438.082037 356.767302,438.291052 356.724672,438.484049 C356.716404,438.521512 356.656981,438.521512 356.648455,438.484049 L356.644321,438.461313 C356.401718,439.480554 356.172551,440.50057 355.966894,441.524202 C356.940404,439.202039 358.661358,437.170017 361.107277,436.47528 C361.194862,436.450218 361.249377,436.543746 361.215789,436.616862 C360.319529,438.579385 359.124086,440.290521 357.892212,442.049712 C357.043233,443.261691 356.24205,444.537486 355.250454,445.642503 C355.04764,447.02991 354.880996,448.426877 354.757499,449.83857 L354.777392,450.167208 L354.833476,450.046451 C355.065675,449.562809 355.384644,449.082621 355.516051,448.99605 C355.589943,448.947736 355.665385,449.026795 355.652208,449.10017 L355.61732,449.287664 C355.485179,449.982116 355.299759,450.744519 354.833199,451.285918 C354.88823,452.798373 354.857227,454.302043 354.707635,455.785562 L354.758999,455.673644 L354.907267,455.336477 L354.974357,455.188163 C355.145495,454.819949 355.348014,454.474214 355.711632,454.222984 C355.776739,454.177771 355.843655,454.240553 355.851664,454.303335 C355.969219,455.199595 355.278099,456.304612 354.573286,456.884895 C354.325,458.608948 353.899218,460.301224 353.233159,461.94286 C353.201897,462.020885 353.081242,461.992982 353.104494,461.907206 C353.717847,459.626122 354.123735,457.387152 354.323449,455.131129 C353.652482,454.685453 353.469561,453.699542 353.362599,452.96295 C353.349164,452.868647 353.426673,452.809224 353.513999,452.84617 C353.979827,453.044592 354.25705,453.617382 354.393982,454.196631 C354.408709,453.965655 354.424727,453.734679 354.434545,453.503186 C354.202536,452.12663 353.765644,450.835592 353.263646,449.566256 C352.531704,449.373518 351.786587,448.781609 351.507555,448.076796 C351.477585,448.001612 351.563878,447.933146 351.632861,447.95149 C351.934284,448.031065 352.174715,448.255131 352.379571,448.483788 L352.572421,448.701698 C352.725331,448.874942 352.882819,449.061157 352.993657,449.25958 L353.187429,449.369901 C352.858275,448.549341 352.504318,447.73679 352.162246,446.915455 C352.084737,446.801001 351.999477,446.695847 351.910601,446.594569 C351.932562,446.634357 351.955814,446.672853 351.977,446.713416 C351.993793,446.74597 351.949097,446.785241 351.923519,446.754496 C351.752999,446.546255 351.586614,446.33569 351.42152,446.124607 C350.537145,445.406618 349.384589,445.001763 348.48187,444.304959 C347.386671,443.460114 346.75885,442.077357 345.822285,441.08111 C345.765445,441.020654 345.805492,440.921184 345.889201,440.919634 C347.991498,440.874937 350.070025,442.835134 351.344528,444.804633 C351.215347,444.433882 351.093141,444.059515 350.983596,443.67843 L350.929856,443.4844 C350.407705,442.667974 349.98089,441.7991 349.392082,441.020912 C348.910235,440.384048 348.399452,439.763461 347.866192,439.164576 L347.870584,439.206173 C347.878335,439.293241 347.742695,439.307709 347.721509,439.226583 C347.711174,439.187829 347.70549,439.147266 347.696448,439.108253 C347.668803,439.107995 347.641675,439.096627 347.622556,439.076733 C347.575276,439.12143 347.482523,439.118846 347.454879,439.037462 L347.444544,439.006717 C347.180756,438.985273 346.901724,438.867718 346.642845,438.718642 C346.631994,438.72381 346.620109,438.726135 346.607449,438.722001 C346.082973,438.554065 345.642465,438.266766 345.072258,438.221294 L344.974357,438.213817 C344.718049,438.196139 344.385257,438.193726 344.204935,438.378379 C343.997211,438.590495 344.063869,438.874952 344.159205,439.127889 C344.797102,438.469323 346.224556,438.607288 346.975099,438.922491 C347.02393,438.942901 347.006619,439.010592 346.953397,439.001808 L346.61331,438.945522 C345.815195,438.817343 344.67159,438.689189 344.210102,439.350856 C344.17419,439.402528 344.082213,439.419064 344.050693,439.350856 C343.766494,438.743962 343.835218,438.089271 344.61444,438.016671 C344.703058,438.008662 344.804336,438.005045 344.912849,438.006853 L344.824532,437.9686 C344.167303,437.674894 343.639693,437.2296 344.17574,436.739068 C344.554177,436.392168 345.227454,436.774124 345.570293,437.011615 L345.659775,437.074681 C345.409163,436.591801 345.165527,436.03503 345.177929,435.493502 C345.179221,435.433562 345.240969,435.401783 345.292383,435.427878 C345.826419,435.698125 346.323767,436.097037 346.6847,436.586117 C346.66093,435.905848 346.932469,435.229197 347.575276,434.967475 C347.628757,434.945773 347.690764,435.000029 347.688438,435.053768 C347.67087,435.478517 347.669836,435.925484 347.652526,436.373485 L347.804691,436.096131 C347.880464,435.957335 347.953725,435.81692 348.015267,435.668413 C348.044979,435.596847 348.130497,435.597622 348.160467,435.668413 C348.412629,436.268754 348.235012,436.894103 348.00846,437.49904 L347.951023,437.649823 L347.816503,437.997456 C347.794691,438.054826 347.773416,438.111884 347.753029,438.168588 C347.7861,438.43651 347.818137,438.704691 347.845265,438.97313 C348.88905,440.066779 349.964097,441.258864 350.692162,442.584006 C350.216259,440.658687 349.931801,438.657411 349.977531,436.671119 C349.132944,434.369107 348.786996,431.91983 349.368054,429.508273 C349.388206,429.424305 349.527722,429.418363 349.543741,429.508273 C349.759473,430.712501 350.192489,431.783931 350.202565,433.025105 C350.206699,433.556815 350.190939,434.080516 350.15296,434.602409 C350.187839,434.370916 350.22556,434.140457 350.270515,433.910514 C350.397887,433.263057 350.562206,432.630327 350.761662,432.013357 C350.749002,432.009223 350.737634,432.001989 350.734276,431.986746 L350.723941,431.914146 C350.398663,431.599202 350.310819,431.000059 350.397112,430.584353 C350.411839,430.514079 350.497099,430.506586 350.544121,430.54534 C350.880767,430.825406 350.917196,431.313453 350.859065,431.738717 C351.034235,431.229485 351.228007,430.729295 351.452782,430.24409 C351.199845,429.315534 350.868107,428.432192 350.495549,427.568744 L350.487539,427.571845 C350.491156,427.603882 350.473329,427.637211 350.433025,427.637986 C349.941102,427.64832 349.455122,427.258709 349.230863,426.842487 C349.19986,426.784614 349.238098,426.702713 349.309406,426.705813 C349.68584,426.723382 350.124281,426.979161 350.380319,427.297722 C349.650961,425.655311 348.769428,424.084208 347.941117,422.434304 C347.603179,422.013689 347.267307,421.585841 346.927044,421.161609 C346.912059,421.167035 346.89449,421.165743 346.883122,421.147916 L346.855219,421.105545 C346.840751,421.12518 346.811039,421.133965 346.784686,421.113554 C345.678377,420.246231 344.341351,419.835176 343.216181,419.012549 C342.269024,418.320137 341.46009,417.488985 340.68061,416.615202 C340.64444,416.574898 340.701279,416.517024 340.740034,416.55552 L340.968526,416.784584 C341.956463,417.780078 342.924287,418.802463 344.201318,419.43678 C345.081301,419.874188 346.066179,420.227112 346.754199,420.950527 L346.738956,420.927275 C346.258918,420.335366 345.764154,419.7556 345.222367,419.226215 C343.926937,417.961271 342.572858,417.260334 340.895826,416.620628 C340.852163,416.604093 340.868698,416.540794 340.915462,416.550095 C343.147715,416.990345 344.769716,418.429683 346.185801,420.082687 C345.706797,419.364697 345.194464,418.668668 344.54339,418.099237 C343.430881,417.126243 342.252747,416.792697 340.843895,416.485762 C340.789898,416.474136 340.802816,416.389652 340.856814,416.390427 C343.616643,416.435898 345.473496,418.543104 346.751357,420.762956 C347.093946,421.188221 347.426975,421.619945 347.756646,422.046243 C347.092654,420.661936 346.58523,419.237325 346.171333,417.780676 C346.163841,417.793852 346.152731,417.80522 346.133354,417.807546 C345.606294,417.876529 345.136591,417.379956 345.228051,416.857805 C345.237094,416.806132 345.301426,416.790114 345.342247,416.811558 C345.516642,416.903018 345.672952,417.028582 345.804458,417.175332 L345.880191,417.259232 C345.969316,417.359567 346.056304,417.469263 346.090466,417.596463 C346.102609,417.640385 346.048869,417.692058 346.007273,417.660537 C345.876283,417.561843 345.797482,417.411734 345.687937,417.291854 C345.592342,417.1867 345.487447,417.097824 345.371959,417.019281 C345.378935,417.40295 345.758211,417.707559 346.133354,417.708593 C346.142138,417.708593 346.146272,417.713243 346.152731,417.716085 C345.885067,416.766086 345.6559,415.802652 345.45231,414.826816 C345.387978,414.824749 345.326746,414.757058 345.363433,414.678516 L345.369892,414.664823 L345.369892,414.661981 L345.375059,414.653196 L345.403996,414.590931 L345.384619,414.498437 C345.338727,414.492785 345.295803,414.464386 345.285096,414.411161 L345.281791,414.373648 L345.27404,414.36693 C345.190588,414.264877 345.102487,414.17135 345.008443,414.084798 C345.011026,414.101334 345.016194,414.117352 345.017744,414.134146 C345.088794,414.233874 345.162427,414.328176 345.241744,414.399484 C345.283341,414.436688 345.238386,414.493528 345.191622,414.485261 C345.175345,414.482419 345.160102,414.473634 345.144342,414.46795 C345.135816,414.479577 345.124189,414.488103 345.107654,414.486036 C343.876039,414.348845 342.642358,413.792074 342.287626,412.504653 C342.273416,412.453497 342.314237,412.389423 342.371594,412.394332 C342.758104,412.428177 343.281547,412.558134 343.761068,412.780584 C343.294982,412.081455 343.180527,411.133005 343.731873,410.470822 C343.76701,410.428709 343.830309,410.448086 343.856921,410.487099 C344.102623,410.840539 344.452188,411.241001 344.751114,411.668333 C344.698149,411.053946 344.858851,410.430776 345.30246,409.988976 C345.334755,409.95668 345.389011,409.964689 345.412264,410.003186 C345.722557,410.512418 345.915296,411.076166 345.962834,411.644305 C346.208279,411.217232 346.482402,410.841831 346.822149,410.482965 C346.852635,410.45067 346.917743,410.464104 346.926527,410.51061 C347.039948,411.115695 346.947196,411.692877 346.723196,412.223296 C347.026255,411.837044 347.401914,411.560337 348.038778,411.621052 C348.077274,411.624928 348.122746,411.654381 348.11732,411.699853 C348.035419,412.405441 347.622814,412.943869 347.088779,413.387736 C346.766084,413.656433 346.322992,413.941407 345.872924,414.106243 C346.214738,414.056895 346.560427,413.946833 346.872013,413.826694 L347.006601,413.774067 C347.18953,413.70051 347.38109,413.611013 347.517919,413.476871 C347.714016,413.284649 347.622814,413.196289 347.551506,412.98314 C347.536263,412.937668 347.587935,412.911315 347.623848,412.927334 C348.135923,413.154693 347.519211,413.686662 347.278675,413.804475 C346.857286,414.011165 346.36278,414.175742 345.880675,414.229482 C345.84683,414.361246 345.754852,414.509288 345.634456,414.607724 C345.603194,414.665856 345.570382,414.722954 345.535761,414.779277 C346.000297,416.855738 346.598665,418.847972 347.400881,420.783108 C347.388738,420.363527 347.473481,419.938262 347.737269,419.606008 C347.786358,419.543743 347.869809,419.602133 347.875751,419.663365 L347.885472,419.764624 C347.923946,420.205987 347.928677,420.87431 347.585868,421.164968 C347.580185,421.169619 347.572692,421.171944 347.565199,421.174011 C347.919415,421.996121 348.30825,422.80893 348.746692,423.611921 L348.976893,424.03021 C348.942272,423.772364 348.959583,423.505475 349.024948,423.254605 C349.042775,423.186397 349.129585,423.166504 349.178933,423.213784 C349.375219,423.404524 349.447947,423.680789 349.468114,423.948471 L349.477796,424.134164 C349.486435,424.338059 349.487511,424.584421 349.413526,424.769385 C349.420502,424.786179 349.41921,424.801939 349.411976,424.816407 L349.604637,425.167032 C350.437265,426.691067 351.23059,428.276603 351.586614,429.958599 C351.631827,429.867139 351.678849,429.777487 351.725096,429.687318 C351.477068,427.68785 351.262627,425.683731 351.131896,423.67522 C351.123111,423.669794 351.113035,423.66721 351.106318,423.655584 C350.769155,423.07246 350.512859,422.438696 350.446201,421.764369 C350.43845,421.687377 350.541795,421.657149 350.590368,421.704429 C350.78879,421.896651 350.951042,422.16199 351.063946,422.449547 C351.031651,421.757652 351.008657,421.065499 351.001164,420.372828 C350.992897,419.614276 351.010982,418.858565 351.046636,418.104921 C351.013889,418.056478 350.988844,417.998153 350.967577,417.945859 L350.876932,417.72032 C350.759688,417.421085 350.64992,417.093862 350.641523,416.780813 C350.640232,416.737149 350.680795,416.692969 350.726008,416.69607 C350.892135,416.708213 351.021058,416.801998 351.116136,416.932213 C351.224906,415.419758 351.40111,413.914021 351.599532,412.409833 C351.336519,411.915327 351.160574,411.332461 351.189769,410.771298 C351.193903,410.694047 351.284071,410.67622 351.326959,410.734093 C351.56827,411.05963 351.68195,411.541993 351.65043,411.944006 C351.646296,411.994386 351.578863,412.005238 351.562328,411.95589 C351.462858,411.661874 351.456658,411.361915 351.350212,411.0834 C351.391292,411.462676 351.52409,411.814824 351.629502,412.182733 C351.822499,410.732543 352.031773,409.28287 352.225286,407.829839 L352.223995,407.824155 C351.973641,407.844307 351.714762,407.642009 351.561811,407.464514 C351.422295,407.302004 351.342461,407.093506 351.298798,406.879323 L351.127835,406.782937 C350.757908,406.571032 350.39775,406.336176 350.175179,406.020009 C349.656387,405.283934 349.654578,404.405242 349.255149,403.62137 C349.224663,403.562205 349.283828,403.508724 349.340926,403.534819 C349.856359,403.768378 350.350865,404.099341 350.765796,404.505745 C350.503816,403.757527 350.559622,402.93025 350.843046,402.102198 C350.862423,402.045875 350.934248,402.020297 350.979203,402.066027 C351.440897,402.539347 351.831542,403.105937 352.089646,403.719806 C352.110573,402.978305 352.300987,402.207351 353.09726,401.99136 Z M355.654275,454.490648 C355.130057,454.883618 354.984858,455.638812 354.661646,456.209793 C354.65002,456.307454 354.637877,456.404598 354.625217,456.502001 L354.798939,456.270811 C355.203214,455.730881 355.586003,455.181284 355.654275,454.490648 Z M353.595125,453.135794 C353.690978,453.749406 353.853746,454.388853 354.257309,454.860365 C354.22586,454.744568 354.199804,454.622344 354.174693,454.497897 L354.120711,454.229357 L354.089748,454.086529 C354.003277,453.707801 353.880357,453.351211 353.595125,453.135794 Z M351.78607,430.17769 C351.747057,430.2583 351.709853,430.339942 351.672132,430.421326 C351.705202,430.628792 351.734397,430.836773 351.752741,431.047081 C351.75765,431.103145 351.666965,431.114513 351.655338,431.060516 C351.626143,430.92565 351.592815,430.793369 351.560778,430.66057 C350.841238,432.292905 350.413389,434.054163 350.314953,435.882337 C350.289375,436.362634 350.282916,436.842413 350.289375,437.322709 C350.409772,436.966169 350.572541,436.620738 350.787498,436.322846 C350.835812,436.25593 350.942774,436.258513 350.967835,436.346615 C351.062784,436.680145 350.959721,437.025483 350.830658,437.337923 L350.664633,437.730147 C350.567259,437.955611 350.459206,438.185554 350.325546,438.382771 C350.405845,439.702281 350.602051,441.013913 350.904082,442.302124 L350.970232,442.57724 L350.950511,442.438417 C350.862253,441.787232 350.840769,441.126986 350.956848,440.491429 L350.983854,440.355628 C351.163416,439.522925 351.449165,438.731819 351.676007,437.913326 C351.772635,437.591406 351.855053,437.266128 351.92326,436.936715 C351.939279,436.771105 351.964082,436.606528 352.001544,436.444793 C352.030223,436.321296 352.205134,436.376327 352.187049,436.495949 C352.153203,436.721241 352.105923,436.941883 352.052958,437.160457 C352.195058,437.444398 352.256548,437.755467 352.230454,438.095988 C352.463238,439.453426 352.381854,440.82559 352.366094,442.194653 L352.357937,443.165703 C352.347181,444.073488 352.309757,444.982196 352.095588,445.864953 C352.089388,445.891306 352.066135,445.90164 352.043399,445.900607 L352.045208,445.905516 C352.809961,447.801639 353.957608,449.804725 354.468132,451.876793 C354.466324,450.603065 354.400441,449.314869 354.264284,448.002387 C354.177474,447.165551 354.076455,446.330522 353.969493,445.495494 C353.326686,445.367605 352.856725,444.743918 352.83063,444.092069 C352.828046,444.034454 352.893412,443.980198 352.949735,444.001383 C353.342446,444.147617 353.672892,444.485038 353.890692,444.874649 C353.756602,443.859801 353.610368,442.845727 353.460001,441.832171 C353.448633,441.817186 353.440883,441.798842 353.446825,441.778173 L353.450184,441.766546 C353.056697,439.122205 352.629624,436.481222 352.270758,433.834814 C352.105923,432.617667 351.941087,431.398454 351.78607,430.17769 Z M355.371885,449.471695 C355.178371,449.785089 354.934477,450.259701 354.803745,450.603324 C354.809688,450.72062 354.813822,450.837659 354.818989,450.954697 C355.056683,450.478018 355.238053,449.988937 355.371885,449.471695 Z M351.814748,448.246281 C351.975191,448.524021 352.203326,448.739496 352.460655,448.924225 L352.316605,448.732116 C352.171046,448.541832 352.016659,448.362738 351.814748,448.246281 Z M346.824991,441.218301 L346.720682,441.193218 C345.865424,440.995497 346.260935,441.303498 346.595304,441.688709 L346.634993,441.735209 C346.667684,441.77422 346.699242,441.813831 346.728363,441.853615 L346.911013,442.101885 C347.817797,443.325431 348.641813,444.283709 350.021711,445.057828 L350.374003,445.255782 C350.610721,445.390111 350.849161,445.530373 351.077381,445.683841 C350.75882,445.27692 350.435608,444.873874 350.083977,444.490205 C349.518938,443.873235 348.779762,443.458563 348.249602,442.806973 C348.211364,442.759951 348.275438,442.692777 348.317035,442.739282 C348.931938,443.431694 349.757665,443.883828 350.379544,444.578565 C350.805842,445.054469 351.236533,445.547167 351.597465,446.081719 C351.734397,446.202116 351.863579,446.328972 351.97855,446.468488 L351.815523,446.063892 C351.102701,444.827885 350.320895,443.717959 349.212261,442.745999 L348.974344,442.538336 C348.351486,441.99935 347.61715,441.415541 346.824991,441.218301 Z M351.912668,437.692168 C351.697968,438.430826 351.432113,439.152175 351.262369,439.909953 C350.954659,441.28625 351.075056,442.560495 351.37269,443.929042 C351.377082,443.950227 351.370623,443.967021 351.360288,443.980456 C351.469834,444.333379 351.589714,444.682686 351.71502,445.030183 C351.585322,443.857475 351.531066,442.677533 351.66929,441.503017 C351.674199,441.460645 351.740856,441.458578 351.736981,441.503017 C351.619426,442.876214 351.86022,444.22435 351.924294,445.587988 L351.996635,445.780468 C352.076986,444.063132 352.181365,442.354321 352.19635,440.63311 C352.204359,439.687761 351.959431,438.669037 351.912668,437.692168 Z M353.03887,444.254062 C353.115862,444.716014 353.447083,445.167632 353.886041,445.33996 L353.776173,445.131113 C353.590152,444.782844 353.382062,444.443097 353.03887,444.254062 Z M360.801376,436.762062 C358.348998,437.645921 356.685659,439.88825 355.810326,442.330294 C355.728684,442.761243 355.651433,443.19245 355.577025,443.624432 C355.767696,443.154729 355.979295,442.692777 356.257035,442.257435 C357.086121,440.958647 357.985223,439.712822 358.79209,438.399048 C358.827227,438.342208 358.909386,438.391555 358.880966,438.45072 C358.205606,439.845879 357.150712,440.992492 356.363481,442.319184 C355.990663,442.947264 355.726358,443.617198 355.466962,444.288166 C355.413223,444.614995 355.358708,444.941565 355.309103,445.269427 C356.229103,444.098413 357.07194,442.876568 357.938502,441.663955 L358.264771,441.209775 C358.782186,440.494398 359.290618,439.768201 359.744885,439.010136 L359.912608,438.724326 C359.917987,438.714967 359.924713,438.702404 359.932653,438.686948 L359.959979,438.632212 L359.999512,438.549921 C360.079146,438.381896 360.196072,438.124305 360.316146,437.85652 L360.801376,436.762062 Z M347.814984,442.117739 C347.775713,442.083377 347.832553,442.027312 347.872341,442.060641 C348.18806,442.328821 348.533491,442.571165 348.797796,442.893602 C348.827766,442.930548 348.782553,442.975244 348.745607,442.945533 C348.422395,442.685362 348.129153,442.388761 347.814984,442.117739 Z M358.464072,439.615781 C358.49921,439.579868 358.553983,439.62534 358.531763,439.667712 C358.228704,440.245411 357.751767,440.726482 357.404785,441.278086 C357.377916,441.320974 357.311775,441.282995 357.336836,441.238557 C357.653589,440.671709 358.004704,440.080834 358.464072,439.615781 Z M354.06147,439.611027 C353.744459,440.06497 353.554304,440.704676 353.646023,441.260156 L353.740606,441.060309 L353.803976,440.927407 L353.865508,440.794377 C354.035559,440.416959 354.16194,440.033956 354.06147,439.611027 Z M355.535428,438.803902 C355.428208,439.219349 355.601569,439.732199 355.816785,440.136537 L355.805568,439.95153 C355.779405,439.550776 355.734264,439.152984 355.535428,438.803902 Z M346.344953,438.327223 C346.655505,438.556391 347.037623,438.780391 347.400881,438.876502 L347.354376,438.731819 C347.332931,438.745254 347.30787,438.749904 347.283326,438.745512 C347.263432,438.752488 347.239921,438.752488 347.214601,438.741895 C347.079478,438.683763 346.963731,438.602379 346.855477,438.512211 C346.695034,438.423592 346.52684,438.355901 346.344953,438.327223 Z M347.429817,437.990835 C347.41845,438.030623 347.406048,438.069894 347.393388,438.108907 C347.415349,438.224136 347.442477,438.338074 347.475548,438.451237 C347.501126,438.520737 347.52567,438.59127 347.548406,438.662319 L347.585868,438.701332 C347.581735,438.636741 347.574759,438.571634 347.565975,438.507302 C347.553056,438.495934 347.544272,438.481466 347.549439,438.459763 L347.554607,438.441678 C347.529287,438.286143 347.490533,438.133709 347.429817,437.990835 Z M346.899916,437.759859 C346.904825,437.884389 346.923427,438.009954 346.962181,438.127767 C347.018504,438.183573 347.070693,438.243255 347.122883,438.303454 C347.131667,438.28976 347.146394,438.283301 347.161379,438.282785 C347.129342,438.191841 347.100405,438.100639 347.072244,438.009695 C347.021088,437.923661 346.966057,437.839434 346.899916,437.759859 Z M345.835462,437.458866 L345.663237,437.316956 C345.338426,437.054801 344.900757,436.74594 344.509028,436.796941 C344.119417,436.847839 344.029248,437.228148 344.315514,437.473593 C344.485517,437.619826 344.678772,437.737123 344.882104,437.831942 C345.04048,437.905059 345.211516,437.97895 345.386169,438.044574 C345.598543,438.074286 345.816084,438.122083 346.014507,438.19365 C346.02975,438.168588 346.055328,438.148694 346.084782,438.146628 C346.252976,438.13681 346.41006,438.159546 346.55991,438.204242 L346.503587,438.122858 L346.418328,438.033206 C346.216288,437.94898 346.047061,437.74229 345.916588,437.535342 C345.888943,437.510539 345.864398,437.482894 345.835462,437.458866 Z M350.812043,436.647349 C350.584942,437.034635 350.458861,437.457574 350.303843,437.880514 L350.306427,437.940454 C350.515184,437.517515 350.819794,437.104909 350.812043,436.647349 Z M345.334755,435.629659 C345.359945,436.040861 345.531497,436.472782 345.708745,436.839159 L345.860849,437.150072 C345.878666,437.185777 345.897616,437.223055 345.917621,437.261219 C346.110101,437.403835 346.312657,437.566087 346.473617,437.748749 C346.568436,437.804555 346.658088,437.866304 346.742573,437.933737 C346.723971,437.802489 346.720095,437.669949 346.731205,437.545418 C346.737922,437.471526 346.820857,437.429155 346.878988,437.484186 C346.892682,437.497621 346.905083,437.511831 346.918001,437.526041 C346.847468,437.382908 346.791662,437.229957 346.752649,437.07003 C346.688575,436.927931 346.613133,436.789707 346.517797,436.657684 C346.203112,436.220276 345.797224,435.894222 345.334755,435.629659 Z M348.088642,435.950028 C347.997182,436.219501 347.864125,436.465462 347.644258,436.662334 L347.637283,436.665435 C347.621006,436.926381 347.599045,437.186552 347.556932,437.440522 C347.59672,437.415978 347.663377,437.43458 347.67087,437.496329 L347.722542,437.920044 L347.874081,437.496118 C348.052985,436.981408 348.200255,436.449657 348.088642,435.950028 Z M347.490274,435.511587 C347.508876,435.050668 347.248964,435.310839 347.109189,435.562743 C346.884931,435.966564 346.824215,436.448927 346.895265,436.910879 C347.013337,437.119378 347.106606,437.340795 347.168354,437.572804 L347.168354,437.545418 C347.174038,437.47411 347.264207,437.420112 347.320272,437.482377 L347.334223,437.499688 L347.388405,437.067577 C347.414367,436.85129 347.437,436.634483 347.448936,436.416373 C347.465472,436.115122 347.477873,435.813096 347.490274,435.511587 Z M356.256519,436.546071 C356.256712,436.807857 356.345847,437.054238 356.442503,437.297422 L356.507161,437.459205 L356.538651,437.539992 C356.505839,437.193269 356.444865,436.856106 356.256519,436.546071 Z M351.465778,434.418558 C351.45596,434.332007 351.568089,434.309012 351.620537,434.354484 C351.867553,434.565739 352.031856,434.839517 352.163395,435.132635 L352.198494,435.213023 C352.306231,435.467252 352.45479,435.748092 352.51008,436.024799 L352.514988,436.028157 C352.550384,436.046243 352.548059,436.086806 352.528682,436.113934 L352.531524,436.128402 C352.536432,436.172582 352.479334,436.184983 352.451948,436.161214 C352.433604,436.145454 352.420944,436.122976 352.404668,436.105149 C351.801391,435.843945 351.534502,435.015376 351.465778,434.418558 Z M349.432128,430.031974 C349.070937,432.05237 349.306047,434.065531 349.868244,436.013844 L349.872895,435.958813 C349.867727,435.954937 349.862818,435.950287 349.861527,435.942536 C349.651995,434.931046 349.509895,433.889328 349.541157,432.855102 C349.543482,432.776043 349.666204,432.775785 349.663621,432.855102 C349.636234,433.791925 349.802362,434.701103 349.900798,435.625525 C349.973914,434.760527 350.048323,433.891137 350.014736,433.025105 C349.989545,432.38383 349.946533,431.75013 349.776891,431.130831 L349.719258,430.93599 L349.433049,430.033713 L349.432128,430.031974 Z M358.210515,434.960241 C357.882653,435.093298 357.596646,435.375172 357.36877,435.651103 C357.390472,435.678231 357.393831,435.720086 357.35456,435.74463 L357.326657,435.764007 L357.318131,435.794494 L357.462987,435.693208 C357.750018,435.488883 358.017851,435.269833 358.210515,434.960241 Z M351.692362,434.698882 C351.771162,435.088492 351.935998,435.504973 352.208829,435.790464 C352.150439,435.651723 352.105225,435.504715 352.054328,435.37915 C351.95615,435.136806 351.84893,434.901955 351.692362,434.698882 Z M357.677513,433.340307 C357.672863,433.342374 357.669504,433.34625 357.66382,433.346767 C357.639534,433.349092 357.614731,433.3478 357.590962,433.349092 C357.635658,433.506693 357.686814,433.662744 357.741329,433.817762 L357.7837,433.685997 L357.677513,433.340307 Z M352.860083,432.20532 C352.6366,432.510188 352.498117,432.89644 352.456004,433.263315 L352.464789,433.325839 C352.546689,433.155837 352.6397,432.990484 352.706099,432.814798 C352.782833,432.612242 352.834247,432.412527 352.860083,432.20532 Z M360.671419,432.475568 C360.123174,432.641178 359.566144,432.836759 359.008856,432.946304 C359.038567,432.963356 359.058461,433.000819 359.040118,433.034923 C359.012473,433.086595 358.98302,433.13956 358.951499,433.192266 C359.557101,433.143435 360.169162,432.830816 360.671419,432.475568 Z M356.081349,431.416023 C355.763304,431.354532 355.700781,431.415764 355.798183,431.731225 C356.033035,432.489778 356.690309,432.991001 357.431552,433.187873 C357.383755,433.011153 357.342675,432.832625 357.316839,432.649446 C357.189983,432.471951 357.085863,432.270686 356.997244,432.072522 C356.896224,431.950058 356.788746,431.83302 356.661114,431.732258 C356.494212,431.600752 356.295015,431.457102 356.081349,431.416023 Z M360.886635,430.788718 C360.187248,430.817913 359.657604,431.237236 359.214771,431.762228 C359.025908,432.198603 358.744292,432.595706 358.396795,432.895149 C358.367858,432.975241 358.327553,433.050425 358.289316,433.126383 C358.32807,433.138268 358.367341,433.148602 358.406871,433.157387 C358.465002,433.105456 358.524684,433.056884 358.586433,433.010378 C358.521067,433.010637 358.521842,432.917626 358.576357,432.895149 L358.812672,432.798808 C358.852747,432.782617 358.893109,432.766398 358.933672,432.750207 L359.209001,432.549699 C359.392668,432.416058 359.574842,432.280504 359.745189,432.13117 C360.196032,431.736392 360.572208,431.29485 360.886635,430.788718 Z M357.073461,429.745191 C356.634503,429.522741 356.646646,430.230396 356.669124,430.410733 C356.724155,430.854342 356.847652,431.331796 357.039099,431.777989 C357.281702,432.02395 357.462555,432.317966 357.521204,432.595965 C357.522754,432.602682 357.519654,432.607074 357.519395,432.612758 C357.591995,432.707319 357.668729,432.797229 357.75063,432.880939 L357.684766,432.597457 C357.641744,432.408221 357.602588,432.218066 357.579852,432.024467 C357.570034,431.942049 357.701799,431.907945 357.736678,431.981837 C357.805403,432.129103 357.85165,432.279212 357.88472,432.431646 C357.90358,432.376356 357.9258,432.322875 357.950086,432.270686 C357.94621,431.963235 357.975922,431.651908 358.039221,431.344198 C358.021394,431.140608 357.98729,430.93986 357.915723,430.747122 C357.757606,430.319531 357.490717,429.957565 357.073461,429.745191 Z M359.338201,430.467715 C359.335463,430.488781 359.201155,429.511881 359.068538,429.653989 C358.661616,430.089847 358.375351,430.659795 358.217233,431.263072 C358.250561,431.524018 358.25082,431.790648 358.224467,432.05237 C358.241519,432.06968 358.254437,432.091641 358.256762,432.122128 C358.262704,432.201962 358.258312,432.27947 358.25547,432.357754 L358.315927,432.285671 C358.380259,432.209713 358.516158,432.270944 358.510991,432.36628 C358.508924,432.40736 358.49859,432.447923 358.493681,432.488744 C358.717681,432.232965 358.922821,431.962976 359.063887,431.636923 C359.209535,431.299088 359.347305,430.918266 359.341501,430.54235 L359.338201,430.467715 Z M350.541537,430.803703 C350.520351,431.072659 350.588042,431.329988 350.699397,431.571815 L350.696292,431.445626 C350.689136,431.214648 350.668333,430.987995 350.541537,430.803703 Z M349.495943,426.918187 C349.697208,427.185851 349.981924,427.353528 350.296868,427.469275 C350.026104,427.27912 349.81993,427.008614 349.495943,426.918187 Z M351.840584,424.965741 C351.721738,425.103707 351.615551,425.295153 351.548635,425.493576 L351.59392,425.961939 L351.622811,425.898454 C351.74642,425.622482 351.857144,425.351297 351.845495,425.038648 L351.840584,424.965741 Z M353.231609,418.698122 C353.322277,418.876323 353.348802,418.944919 353.371471,419.203453 L353.376292,419.261869 C353.494622,420.780266 353.525884,422.155531 353.901543,423.64835 C354.09454,424.416204 354.189876,425.087946 354.088339,425.841074 C354.182383,425.638776 354.277978,425.438286 354.365562,425.230304 C354.394499,424.510248 354.524714,423.803884 354.480534,423.078402 C354.425244,422.174391 354.211062,421.332387 354.011864,420.454988 C354.00308,420.415458 354.063278,420.385488 354.080847,420.426309 C354.623925,421.700554 354.841208,423.384045 354.543058,424.79393 C354.600414,424.646663 354.652087,424.496038 354.705826,424.346704 C354.687482,424.337403 354.673531,424.319576 354.68154,424.290898 C355.114297,422.687499 355.272932,420.906347 354.024007,419.606783 C353.768745,419.340928 353.404712,419.037352 353.231609,418.698122 Z M349.162656,423.488682 C349.112792,423.797683 349.14457,424.10901 349.246882,424.401735 L349.265009,424.211361 C349.287827,423.957538 349.294937,423.706326 349.162656,423.488682 Z M350.658317,422.051669 C350.723769,422.399827 350.839643,422.733695 350.979628,423.05908 L351.033014,423.180407 L351.013779,423.095679 L350.953279,422.819941 C350.898305,422.577228 350.833437,422.342204 350.705037,422.125444 L350.658317,422.051669 Z M362.498818,420.508985 L362.394698,420.495034 L362.490358,420.636387 C363.091979,421.505971 363.911154,422.324354 364.988917,422.398133 C364.760783,421.921971 364.469092,421.532101 364.102734,421.148691 C363.477496,421.091852 362.869052,420.877411 362.498818,420.508985 Z M358.815084,420.930892 C358.596251,421.207598 358.468361,421.580157 358.515641,421.930755 L358.6328,421.740951 C358.785982,421.487136 358.910988,421.227699 358.815084,420.930892 Z M360.199908,421.182795 C360.08752,421.265213 359.976165,421.349956 359.865586,421.435215 C360.031972,421.462344 360.197066,421.502906 360.36526,421.505748 C360.476872,421.507815 360.570141,421.483013 360.666769,421.426173 L360.713006,421.399743 C360.741751,421.382309 360.761157,421.365027 360.740144,421.346597 C360.635507,421.25462 360.465504,421.222325 360.332706,421.199072 C360.291368,421.191838 360.245896,421.187187 360.199908,421.182795 Z M356.245667,420.816179 C356.164283,420.884386 356.088841,420.963962 356.02115,421.038629 C355.963019,421.102444 355.905404,421.167552 355.856057,421.237826 C355.838488,421.262371 355.822469,421.286657 355.808259,421.312752 C355.804901,421.318952 355.801284,421.322053 355.797667,421.324636 L355.807226,421.323086 C355.84133,421.321536 355.85709,421.35409 355.853731,421.383026 C355.910829,421.338846 355.966377,421.292858 356.013916,421.23886 C356.126304,421.110454 356.213372,420.974038 356.245667,420.816179 Z M361.657202,420.510949 C361.631624,420.443258 361.742978,420.396494 361.77424,420.46186 C361.833147,420.584841 361.930033,420.687927 362.047588,420.757944 C362.15145,420.819692 362.287348,420.849146 362.356848,420.952491 C362.379067,420.98582 362.355556,421.028966 362.321194,421.040076 C362.178061,421.086323 362.00935,420.969801 361.90368,420.881958 C361.783025,420.781971 361.711975,420.656149 361.657202,420.510949 Z M365.754704,420.627832 C365.379045,420.056076 364.460307,419.955056 363.660675,420.041091 C363.34909,420.166655 363.023294,420.283952 362.704475,420.345184 C362.714551,420.367919 362.716101,420.392464 362.713776,420.416233 C363.112688,420.653669 363.524518,420.828838 364.000939,420.893946 L364.029091,420.896148 C364.295803,420.909341 365.910732,420.864837 365.754704,420.627832 Z M347.718409,419.935162 C347.575017,420.223495 347.554607,420.550323 347.558224,420.876377 C347.604729,420.732727 347.663119,420.591145 347.685855,420.440261 C347.711174,420.272067 347.718409,420.103873 347.718409,419.935162 Z M351.717604,419.182293 C351.452782,419.498529 351.319725,419.896666 351.293372,420.310305 L351.397792,420.146759 C351.449134,420.064395 351.497686,419.980375 351.53675,419.89124 C351.638545,419.658972 351.701069,419.427738 351.717604,419.182293 Z M365.165637,418.426066 C364.793078,418.336414 364.391841,418.460945 364.056228,418.624488 C363.794249,418.751861 363.482405,418.917472 363.201823,419.120028 C363.157643,419.154907 363.113721,419.189786 363.06825,419.223631 C362.99565,419.281763 362.927959,419.342736 362.864401,419.406552 C362.935709,419.420504 362.981698,419.507313 362.942944,419.575521 C362.832881,419.769035 362.673213,419.910101 362.490809,420.019647 C362.607847,420.00647 362.725402,419.994327 362.842699,419.979859 C362.892305,419.973658 362.92615,419.998202 362.944752,420.033081 L363.069064,419.995265 L363.443312,419.884949 C364.025582,419.713547 364.603354,419.530997 365.106731,419.168083 L365.148769,419.136104 C365.390478,418.942579 365.675129,418.549046 365.165637,418.426066 Z M362.436553,419.779628 C362.286186,419.829233 362.133752,419.871605 361.976926,419.901575 L361.968141,419.952989 C361.987519,419.954281 362.004571,419.964615 362.011805,419.983217 C362.162688,419.932578 362.308405,419.867471 362.436553,419.779628 Z M361.215531,417.135544 C361.229483,417.192384 361.241626,417.259042 361.234133,417.289012 C361.209847,417.378147 361.18892,417.46754 361.171351,417.557967 C361.11942,417.845783 361.080924,418.141609 361.092034,418.43485 C361.113478,418.989296 361.228966,419.5347 361.631237,419.937746 C361.652164,419.930253 361.675933,419.926378 361.703578,419.931545 C361.670249,419.197278 361.611601,418.457844 361.645188,417.730554 C361.553986,417.653045 361.463042,417.577086 361.401035,417.470899 C361.336445,417.370654 361.280638,417.266018 361.233616,417.15673 C361.22509,417.151821 361.22199,417.142779 361.215531,417.135544 Z M362.277918,416.06644 C362.133752,415.862592 361.887016,416.814916 361.884949,416.82861 C361.731998,417.78481 361.798139,418.746694 361.813899,419.709353 L361.853945,419.681708 C361.937913,419.341445 362.110758,419.012549 362.335533,418.765813 C362.366278,418.731967 362.405808,418.730159 362.437845,418.746436 L362.504435,418.618756 C362.754861,418.127097 362.940794,417.609258 362.755631,417.043309 C362.640659,416.692453 362.489776,416.368207 362.277918,416.06644 Z M364.389774,417.12521 C364.437571,416.906894 363.618562,417.35722 363.542603,417.432403 C363.329196,417.643744 363.150409,417.884538 363.009084,418.149876 C362.7825,418.574624 362.601647,419.024434 362.424927,419.472176 L362.569678,419.362189 C363.365935,418.760637 364.15324,418.203379 364.389774,417.12521 Z M343.224423,418.096421 C343.167325,418.061025 343.219256,417.971115 343.277129,418.006252 C343.697485,418.258931 344.176231,418.429967 344.544398,418.760671 C344.573076,418.786249 344.53613,418.830946 344.50461,418.812602 C344.081412,418.568191 343.640128,418.352975 343.224423,418.096421 Z M356.291545,415.966887 L356.266078,415.887911 C356.233524,415.794384 355.5052,414.473634 355.361292,414.936103 C355.356642,414.95083 355.347082,414.958581 355.335973,414.962973 C355.421818,415.245025 355.556952,415.538905 355.684713,415.835884 L355.738851,415.963325 L355.791096,416.090993 C356.020447,416.665779 356.162165,417.242817 355.80981,417.75949 L355.81291,417.769566 C355.845722,417.778092 355.854506,417.816847 355.835646,417.836482 L355.887577,417.97884 L355.912121,417.881696 C355.899978,417.862835 355.89817,417.837257 355.918322,417.820205 L355.930982,417.808838 C355.992214,417.568044 356.057579,417.328283 356.153174,417.097048 C356.174876,417.045118 356.221381,417.024449 356.263494,417.030908 C356.373212,416.689938 356.400557,416.334564 356.291545,415.966887 L356.291545,415.966887 Z M350.823152,416.890358 C350.851314,417.117459 350.931148,417.346627 351.001423,417.559001 L351.064721,417.739855 C351.072472,417.596722 351.081773,417.453847 351.090816,417.311231 C351.059554,417.118493 350.99548,416.947973 350.823152,416.890358 Z M355.119981,414.758608 C354.55055,415.471172 354.712802,417.389515 355.615004,417.720994 C355.571858,417.609898 355.528453,417.499061 355.484014,417.388998 C355.448619,417.301672 355.589685,417.245865 355.634123,417.325699 C355.679336,417.408375 355.717057,417.492085 355.750128,417.577086 C355.872912,416.94053 355.742605,416.444579 355.490441,415.845294 L355.451719,415.754596 C355.310653,415.428284 355.18173,415.105331 355.119981,414.758608 Z M357.154329,414.548301 C356.904584,414.608278 356.714097,414.744666 356.583074,414.957051 L356.457525,415.175347 L356.469839,415.144142 C356.469539,415.143887 356.468162,415.145886 356.465857,415.14981 L356.354492,415.36038 C356.341512,415.384674 356.32846,415.408791 356.315942,415.431385 C356.328602,415.43991 356.338161,415.452829 356.334802,415.472464 L356.3131,415.594153 C356.547693,416.119921 356.628044,416.804065 356.348237,417.31304 L356.34617,417.409409 C356.809156,416.903276 357.063902,416.34573 357.122292,415.571934 C357.148386,415.231929 357.158979,414.889598 357.154329,414.548301 Z M357.983175,415.083628 C357.985188,414.922041 357.655936,415.225075 357.512981,415.365124 L357.448087,415.430609 C357.388664,415.520778 357.334408,415.613013 357.280151,415.704991 C357.223828,416.288373 357.07992,416.871498 356.765493,417.305547 C357.148386,417.03685 357.476249,416.712605 357.691206,416.257887 C357.867151,415.886103 357.977472,415.498042 357.983175,415.083628 Z M346.130822,415.019374 C346.168543,414.983461 346.240626,414.996121 346.252769,415.051411 C346.352497,415.513621 346.30935,416.044815 346.071398,416.459745 C346.052021,416.493332 345.990273,416.481189 345.994665,416.438818 C346.036778,416.033705 346.155366,415.654687 346.129272,415.249316 C345.962886,415.494503 345.897779,415.867578 345.996732,416.129816 C346.020759,416.193632 345.914314,416.238329 345.886152,416.176063 C345.724159,415.82469 345.856441,415.279803 346.130822,415.019374 Z M356.664215,407.838365 C356.364067,408.161676 356.044031,408.470529 355.719504,408.776708 L355.300993,409.169821 C354.556885,409.869366 353.823796,410.581322 353.285607,411.446399 C352.557892,412.6161 352.126383,413.881043 351.888673,415.2202 L351.859775,415.387673 L351.967508,415.143209 C353.113052,412.627879 355.298529,410.537027 356.546442,408.077556 L356.664215,407.838365 Z M344.285079,414.671953 C344.23444,414.615889 344.309882,414.543547 344.36698,414.590311 C344.459474,414.666786 344.573412,414.737578 344.693292,414.759538 C344.801288,414.779432 344.903599,414.753596 345.009786,414.766256 C345.060167,414.772198 345.092721,414.828263 345.052416,414.869342 C344.822732,415.106003 344.451981,414.857716 344.285079,414.671953 Z M342.498191,412.586554 C342.862224,413.638865 343.924095,414.154298 344.970205,414.358921 C344.786768,414.192794 344.627616,413.908595 344.529697,413.755128 C344.503344,413.714048 344.519104,413.662117 344.551658,413.628788 C344.046042,413.040755 343.267854,412.681373 342.498191,412.586554 Z M347.795685,411.76138 L347.763622,411.762118 C346.754458,411.839369 346.55836,412.936635 345.939065,413.553863 C345.932348,413.659792 345.920463,413.764687 345.899277,413.868032 C346.237216,413.731617 346.567403,413.584092 346.871754,413.351049 C347.163704,413.127307 347.457721,412.86791 347.651493,412.550383 L347.711415,412.44909 C347.842879,412.218973 348.06573,411.771249 347.795685,411.76138 L347.795685,411.76138 Z M343.897742,410.816511 C343.638346,410.464104 343.511231,411.288281 343.517949,411.474302 C343.526475,411.728014 343.561095,411.985085 343.655656,412.222521 C343.755642,412.474166 343.886374,412.717802 344.051726,412.931726 C344.318873,413.084935 344.556825,413.270439 344.730961,413.486689 L344.778242,413.5102 C344.809504,413.523376 344.813896,413.556705 344.803303,413.580216 C344.836632,413.62853 344.866602,413.678394 344.892955,413.72955 C344.936876,413.756678 344.978731,413.786131 345.019811,413.816618 L345.037379,413.767271 C345.01361,413.64119 345.009993,413.512525 345.04513,413.37921 C345.05779,413.331155 345.096544,413.304027 345.138658,413.298084 C345.151834,413.120072 345.136332,412.948778 345.098353,412.782651 C344.979248,412.573894 344.885462,412.346018 344.825005,412.108324 C344.571552,411.660065 344.209069,411.239967 343.897742,410.816511 Z M345.830036,411.638879 L345.820354,411.563567 C345.758195,411.141445 345.456247,409.736722 345.108946,410.456612 C344.892696,410.904871 344.83844,411.423147 344.917241,411.919978 C345.132457,412.264375 345.296259,412.623499 345.335013,412.988566 L345.34018,412.997092 C345.350773,413.012335 345.347931,413.025253 345.340956,413.036363 C345.352065,413.177946 345.344573,413.320303 345.312019,413.463178 L345.337855,413.515626 C345.376093,413.293175 345.439133,413.075376 345.548421,412.864552 C345.571157,412.820888 345.613528,412.809262 345.654349,412.814688 C345.780947,412.436962 345.871891,412.051743 345.830036,411.638879 Z M346.863228,410.967395 C346.833411,410.624421 346.588573,410.883523 346.368982,411.193093 L346.323989,411.257681 L346.234896,411.391713 C346.140333,411.537885 346.063148,411.668879 346.029492,411.724656 C346.014765,411.749459 345.989962,411.751009 345.969293,411.742483 C345.992288,412.177307 345.930797,412.612907 345.756403,413.028095 L345.754077,413.256229 C345.780172,413.220059 345.821252,413.207657 345.859231,413.212049 C346.124311,412.930176 346.373631,412.635384 346.548284,412.27936 C346.747223,411.873989 346.903016,411.427797 346.863228,410.967395 Z M352.5671,409.423678 C352.411049,409.549759 352.279801,409.730613 352.176456,409.907591 L352.137701,410.247597 C352.29737,409.979933 352.479257,409.73113 352.5671,409.423678 Z M351.410101,408.360232 C351.903056,408.297708 351.981082,408.925271 351.968681,409.403242 L351.981857,409.417968 C352.008468,409.446388 351.991675,409.479975 351.965064,409.49341 C351.95938,409.612515 351.948787,409.718186 351.938969,409.794403 C351.93251,409.846075 351.86456,409.846334 351.85836,409.794403 C351.848025,409.709401 351.846733,409.568852 351.840533,409.412026 C351.578295,409.137128 351.367212,408.817017 351.34396,408.426373 C351.341634,408.387101 351.375997,408.364624 351.410101,408.360232 Z M351.483992,408.493805 C351.515254,408.774645 351.655803,409.024224 351.831748,409.243832 C351.807462,408.894009 351.736671,408.5261 351.483992,408.493805 Z M353.364381,407.385817 C353.407786,407.386334 353.433881,407.425863 353.425613,407.465909 C353.393576,407.621702 353.192829,407.749592 353.063131,407.825292 C352.891836,407.925278 352.73346,407.975659 352.534004,407.964033 C352.434793,407.958349 352.43996,407.826067 352.534004,407.813666 C352.718733,407.789379 352.887186,407.684226 353.032385,407.572872 C353.133664,407.495363 353.228483,407.384525 353.364381,407.385817 Z M351.462083,406.971042 C351.515306,407.104357 351.590231,407.229146 351.690992,407.335591 C351.790204,407.44152 351.907759,407.542281 352.0496,407.586978 L352.130467,407.609972 L352.135635,407.605064 C351.967182,407.522904 351.862804,407.352643 351.790204,407.161197 C351.6866,407.097381 351.575504,407.03434 351.462083,406.971042 Z M352.96472,406.572646 L352.919507,406.591765 C352.801435,406.774944 352.714367,406.975434 352.6366,407.182382 C352.715142,407.016772 352.812028,406.870022 352.932683,406.736965 C352.949735,406.684001 352.956711,406.628194 352.96472,406.572646 Z M349.455381,403.742542 C349.578103,403.810233 349.691007,404.525381 349.732345,404.676006 L349.776929,404.835761 C349.906668,405.291734 350.072038,405.768935 350.440517,406.085633 C350.698363,406.307308 350.983854,406.48687 351.267794,406.669274 L351.258742,406.569795 C351.257546,406.553298 351.256685,406.536906 351.256426,406.520716 C351.255651,406.448374 351.365714,406.449149 351.368039,406.520716 C351.370881,406.598741 351.380699,406.67625 351.396459,406.752208 C351.50988,406.826359 351.622526,406.9018 351.731814,406.981893 C351.692026,406.84341 351.662831,406.70467 351.633636,406.588665 C351.625368,406.554819 351.645521,406.526658 351.671615,406.510898 C351.542692,406.067806 351.398526,405.639441 351.152823,405.248021 C351.116394,405.197899 351.084099,405.146743 351.051545,405.095587 C351.008657,405.036164 350.963443,404.977774 350.914871,404.920159 C350.504074,404.435987 350.010343,404.049735 349.455381,403.742542 Z M353.078743,402.4552 L353.062898,402.344542 C353.014843,401.901192 352.337932,402.987348 352.329665,403.023002 C352.253706,403.350606 352.223736,403.680018 352.201775,404.013565 C352.456779,404.758682 352.51026,405.560382 352.25629,406.34322 C352.242338,406.385592 352.193508,406.395151 352.158887,406.380166 C352.210818,406.541643 352.244922,406.710095 352.274634,406.880615 C352.319072,406.619668 352.370228,406.359756 352.427068,406.100618 C352.450062,405.994948 352.618514,405.993914 352.640733,406.100618 L352.649589,406.159735 L352.768702,405.864729 C353.135722,404.94297 353.421819,404.077943 353.204544,403.01228 L353.180195,402.901055 L353.126666,402.680756 C353.108688,402.60572 353.091645,402.529806 353.078743,402.4552 L353.078743,402.4552 Z M355.368009,405.821328 C354.831132,406.187428 354.232247,406.45535 353.610368,406.648605 C354.46864,406.924896 355.179405,406.629422 356.053781,406.499085 L356.318523,406.46325 C356.431036,406.449312 356.545394,406.438965 356.65769,406.444455 L356.741465,406.451733 C357.136243,406.501338 356.331185,405.978671 356.263494,405.959294 C355.984721,405.878943 355.706206,405.844322 355.416323,405.849489 C355.391004,405.849748 355.377052,405.837088 355.368009,405.821328 Z M356.374342,404.045785 L356.211125,404.040241 C355.728458,404.029608 355.241412,404.074172 354.883321,404.439605 C354.574578,405.275924 353.930738,406.06083 353.187919,406.464651 C353.187687,406.480411 353.191046,406.497721 353.189754,406.513223 C353.246077,406.500305 353.308084,406.523816 353.325911,406.578589 L353.342446,406.571871 C353.347355,406.570063 353.351231,406.567738 353.356656,406.566704 L353.540347,406.492628 C354.435639,406.137781 355.426608,405.816936 355.972836,405.000251 C356.12372,404.774959 356.251351,404.540366 356.386733,404.305773 L356.416253,404.257243 C356.517036,404.098806 356.58355,404.057456 356.374342,404.045785 Z M354.603773,403.414938 L354.608902,403.385658 C354.656242,403.158166 354.938268,402.393589 354.396308,402.620473 C354.028399,402.774664 353.824355,403.068743 353.636812,403.382597 L353.496947,403.61982 C353.519166,403.852863 353.520975,404.088231 353.478604,404.328767 C353.347097,405.072335 353.076333,405.766555 352.71075,406.421246 C352.772757,406.360617 352.834879,406.300332 352.897957,406.241004 L352.995724,406.15074 L353.222078,405.947264 C353.448052,405.743367 353.669921,405.535256 353.86098,405.296335 C354.351094,404.683757 354.506887,404.178917 354.603773,403.414938 Z M351.354346,402.762314 L351.263178,402.645787 C350.961835,402.270086 350.895897,402.306915 350.813141,402.775508 L350.805325,402.820704 C350.756236,403.112654 350.711281,403.423464 350.738668,403.721873 C350.773288,404.098307 350.861132,404.44503 351.007882,404.766433 C351.322567,405.128399 351.576796,405.537387 351.729747,405.986163 L351.718896,405.88566 C351.713987,405.815644 351.81294,405.774823 351.859187,405.827529 C351.983459,405.96937 352.06691,406.126196 352.1284,406.291548 C352.271792,405.01317 352.169997,403.825218 351.354346,402.762314 Z M354.852901,403.159471 L354.835782,403.164585 C354.800128,403.399695 354.778168,403.634547 354.75414,403.871723 C354.722361,404.195193 354.628317,404.512204 354.457023,404.789944 C354.126577,405.325272 353.702346,405.824428 353.207839,406.22644 C353.654548,405.921314 354.044676,405.54643 354.344118,405.075177 C354.550033,404.75119 354.747681,404.407568 354.8425,404.031908 L354.855495,403.965914 C354.893682,403.755291 354.986364,403.142592 354.852901,403.159471 Z" id="34"></path>
        </g>
    </g>
</svg>
