<?xml version="1.0" encoding="UTF-8"?>
<svg width="60px" height="45px" viewBox="0 0 60 45" version="1.1" xmlns="http://www.w3.org/2000/svg" xmlns:xlink="http://www.w3.org/1999/xlink">
    <title>grass-patch-svgrepo-com</title>
    <g id="页面-1" stroke="none" stroke-width="1" fill="none" fill-rule="evenodd">
        <g id="形状库素材-植物" transform="translate(-800.000000, -246.000000)" fill="#545458" fill-rule="nonzero">
            <g id="grass-patch-svgrepo-com" transform="translate(800.000000, 246.133060)">
                <path d="M0,44.757594 L4.56246228,3.28505331 C5.4073627,16.7934017 5.07543754,32.3838262 9.02635285,40.3983102 C10.4325085,29.7384832 10.9977872,19.2878696 10.3520418,9.1410179 C12.2631261,18.1392074 14.8139207,26.9261718 15.3067793,36.3971032 C16.2341581,29.376383 16.8959968,22.3979079 19.297928,15.1317642 C19.2033796,23.3152283 17.1434319,30.8107021 20.8891571,34.8984108 C22.7016697,28.4952726 24.5282639,22.1082277 24.8380608,14.2023738 C27.5075438,21.967411 27.1414202,31.2512573 27.9702273,39.9376383 C29.0263528,31.3940857 29.8873466,7.57191712 33.8583786,0 C33.4681151,15.6889962 33.3735667,28.1090324 37.2983303,34.4216455 C41.1768256,29.5674915 41.5107624,20.0563267 41.6012875,11.0319855 C44.3391672,18.7829411 46.1778314,27.6141621 46.3528465,38.4389459 C47.4351237,29.406558 48.6964393,20.3741702 51.7984309,11.343794 C51.0762422,22.4260712 51.6374975,31.0440555 54.2486421,35.7171595 C55.9766647,28.7447194 57.4492054,21.7722792 57.9038423,14.7978274 C60.2152484,25.1880909 59.5353048,34.8300141 60,44.7596057 L0,44.7596057 L0,44.757594 Z" id="路径"></path>
            </g>
        </g>
    </g>
</svg>
