<?xml version="1.0" encoding="UTF-8"?>
<svg width="38px" height="61px" viewBox="0 0 38 61" version="1.1" xmlns="http://www.w3.org/2000/svg" xmlns:xlink="http://www.w3.org/1999/xlink">
    <title>5</title>
    <g id="页面-1" stroke="none" stroke-width="1" fill="none" fill-rule="evenodd">
        <g id="植物" transform="translate(-409.000000, -158.000000)" fill="#545458">
            <path d="M432.062128,216.167425 C431.870241,215.83954 431.710025,215.494888 431.628053,215.105525 C431.752873,215.468807 431.907501,215.824636 432.062128,216.167425 M413.741573,181.145244 C413.788147,181.137792 413.836585,181.152696 413.870118,181.169463 C413.871981,181.176915 413.866392,181.188093 413.870118,181.195545 C413.786284,181.20486 413.706176,181.221627 413.626068,181.240256 C413.646561,181.188093 413.693135,181.152696 413.741573,181.145244 M411.401669,168.763873 C411.565611,168.691216 411.733279,168.605519 411.88977,168.514233 C411.88977,168.514233 411.887907,168.519822 411.886044,168.523548 C411.651308,168.791817 411.401669,169.052635 411.116632,169.285507 C411.191152,169.104798 411.295479,168.929678 411.401669,168.763873 M415.617595,162.023607 C415.781537,161.816816 416.008821,161.839172 416.264049,161.984485 C416.23983,162.016155 416.2212,162.0441 416.200708,162.075771 C416.079614,161.997525 415.902631,162.016155 415.811345,162.157742 C415.74614,162.258343 415.710744,162.364533 415.690251,162.466997 C415.664169,162.39434 415.643676,162.327273 415.628772,162.25648 C415.598965,162.258343 415.574746,162.262069 415.546801,162.262069 C415.546801,162.170783 415.563568,162.090675 415.617595,162.023607 M419.83911,161.44422 C419.816754,161.418138 419.798124,161.392057 419.770179,161.365975 C419.775768,161.09398 419.809302,160.829436 419.906177,160.607742 C419.973244,160.829436 419.922944,161.12565 419.83911,161.44422 M421.418917,159.968739 C421.428232,160.071203 421.422643,160.171804 421.411466,160.279857 C421.376069,160.28172 421.338809,160.292898 421.303413,160.307802 C421.186045,160.359965 421.076129,160.430758 420.96435,160.505278 C421.100348,160.304076 421.253112,160.119641 421.418917,159.968739 M424.476069,159.799208 C424.416454,159.735867 424.345661,159.679977 424.256238,159.633403 C424.327031,159.530939 424.409002,159.435927 424.498425,159.361407 C424.520781,159.502994 424.502151,159.650169 424.476069,159.799208 M426.549567,160.382321 C426.542115,160.389773 426.534663,160.395362 426.527211,160.400951 C426.480637,160.400951 426.434062,160.408403 426.391214,160.419581 C426.441514,160.222105 426.467596,160.024629 426.447103,159.851371 C426.447103,159.83833 426.437788,159.830879 426.434062,159.819701 C426.555156,159.743318 426.674387,159.676251 426.810385,159.625951 C426.823425,159.883042 426.71351,160.13827 426.549567,160.382321 M434.232501,159.713511 C434.28839,159.638992 434.353595,159.586828 434.443018,159.57565 C434.696383,159.527213 434.858463,159.693018 434.959064,159.965013 C434.921804,159.972465 434.886407,159.987369 434.851011,159.992958 C434.811888,159.855097 434.66285,159.752633 434.50077,159.799208 C434.385265,159.842056 434.292116,159.89422 434.208282,159.965013 C434.234364,159.89422 434.262309,159.823427 434.295842,159.756359 C434.273486,159.747044 434.251131,159.732141 434.232501,159.713511 M438.621684,161.267237 C438.532261,161.479617 438.308703,161.673367 438.042297,161.857802 C438.038571,161.824268 438.036708,161.792598 438.032982,161.760927 C438.213691,161.559725 438.407441,161.380879 438.621684,161.267237 M439.985386,161.9938 C439.951853,161.977033 439.922045,161.958403 439.882922,161.947225 C439.763692,161.913691 439.63142,161.891336 439.499148,161.880158 C439.730158,161.81309 439.966756,161.772105 440.192177,161.764653 C440.130699,161.85035 440.059906,161.924869 439.985386,161.9938 M442.630819,163.618319 C442.630819,163.528896 442.610327,163.441336 442.571204,163.344461 C442.692298,163.314653 442.815254,163.292297 442.934485,163.296023 C442.85624,163.420843 442.746324,163.521444 442.630819,163.618319 M443.839894,165.399329 L443.800771,165.399329 C443.765375,165.371384 443.722526,165.358343 443.679678,165.33785 C443.845483,165.216757 444.001973,165.078896 444.104437,164.929858 C444.111889,164.920543 444.111889,164.909365 444.117478,164.898187 C444.251613,164.916817 444.38761,164.948487 444.521745,164.996925 C444.367118,165.19999 444.121204,165.319221 443.839894,165.399329 M443.394642,167.856601 C443.361108,167.793259 443.327574,167.73737 443.288452,167.685207 C443.338752,167.690795 443.389053,167.690795 443.439353,167.696384 C443.711348,167.729918 443.981481,167.782082 444.234846,167.873368 C443.975892,167.923668 443.690856,167.906901 443.394642,167.856601 M444.029918,169.000471 C444.178957,169.119702 444.290735,169.272466 444.348488,169.456901 C444.095122,169.441998 443.841757,169.386108 443.588392,169.304137 C443.789594,169.281781 443.944221,169.186769 444.029918,169.000471 M443.998247,173.786469 C443.82499,173.764114 443.646144,173.751073 443.467298,173.738032 C443.696444,173.667239 443.927454,173.594582 444.156601,173.531241 C444.480759,173.451133 444.823548,173.384065 445.158885,173.380339 C444.832863,173.581541 444.430459,173.704498 443.998247,173.786469 M443.743019,177.147287 C443.741156,177.128657 443.743019,177.110027 443.73743,177.096987 C443.702033,176.959126 443.601432,176.880881 443.482202,176.843621 C443.402093,176.778417 443.275411,176.754198 443.146865,176.757924 C443.20648,176.685268 443.254918,176.603297 443.290315,176.515737 C443.3313,176.521325 443.36856,176.528777 443.409545,176.532503 C443.670363,176.700172 443.882743,176.91814 443.994521,177.169643 C443.910687,177.169643 443.82499,177.158465 443.743019,177.147287 M443.80636,179.395905 C443.94981,179.444343 444.067178,179.516999 444.164053,179.632504 C443.979618,179.692119 443.784005,179.729379 443.586529,179.736831 C443.715074,179.662311 443.80636,179.554259 443.80636,179.395905 M443.251192,179.476013 C443.133824,179.421987 442.984786,179.384727 442.839473,179.351194 C443.046264,179.338153 443.260507,179.321386 443.463572,179.334427 C443.50642,179.414535 443.389053,179.457384 443.251192,179.476013 M442.481781,180.763333 C442.388632,180.62361 442.27499,180.489475 442.152033,180.375833 C442.286168,180.414956 442.427754,180.454078 442.57493,180.467119 C442.73142,180.571446 442.865555,180.696266 442.928896,180.852756 C442.781721,180.852756 442.630819,180.819223 442.481781,180.763333 M441.498127,183.259728 C441.386348,183.244824 441.272706,183.233646 441.160927,183.226194 C441.304377,183.181483 441.453415,183.138634 441.595002,183.101374 C441.805519,183.051074 442.017899,183.008225 442.234004,183.008225 C442.027213,183.136771 441.768259,183.21129 441.498127,183.259728 M441.824149,183.965798 C441.699329,183.909908 441.548427,183.868923 441.399389,183.837252 C441.611769,183.820485 441.829738,183.813033 442.040254,183.827937 C442.083103,183.909908 441.958283,183.947168 441.824149,183.965798 M441.008163,185.29224 C440.915014,185.148791 440.799509,185.012793 440.672826,184.897288 C440.81255,184.930822 440.954136,184.971807 441.105038,184.988574 C441.26898,185.091038 441.403115,185.228899 441.470182,185.390978 C441.315555,185.390978 441.159064,185.34813 441.008163,185.29224 M438.530398,188.461171 C438.349689,188.440678 438.163391,188.422048 437.980819,188.412733 C438.21928,188.340077 438.457742,188.267421 438.69434,188.211531 C439.029677,188.125834 439.379917,188.055041 439.728295,188.051315 C439.394821,188.263695 438.975651,188.384789 438.530398,188.461171 M439.059485,189.619945 C438.852694,189.526796 438.612369,189.459729 438.36273,189.407565 C438.71297,189.387072 439.074389,189.364717 439.413451,189.394524 C439.480518,189.526796 439.284905,189.590137 439.059485,189.619945 M437.727453,191.786592 C437.576552,191.549993 437.390254,191.332025 437.183463,191.132686 C437.410747,191.19789 437.649208,191.257505 437.889533,191.28545 C438.155939,191.46057 438.373908,191.680402 438.478235,191.944945 C438.234184,191.944945 437.980819,191.881604 437.727453,191.786592 M412.331296,183.449752 C412.47102,183.444163 412.616332,183.421807 412.757919,183.390136 L412.757919,183.393862 C412.508279,183.537312 412.253051,183.669584 411.981056,183.766459 C412.085383,183.650954 412.210202,183.544764 412.331296,183.449752 M410.958279,175.446385 C411.142714,175.427756 411.332738,175.401674 411.517173,175.364414 C411.517173,175.36814 411.513447,175.36814 411.513447,175.36814 C411.189289,175.56189 410.863267,175.727696 410.507438,175.858104 C410.645298,175.709066 410.798063,175.573068 410.958279,175.446385 M443.31267,168.823488 C443.189714,168.696805 443.040675,168.583163 442.871144,168.473247 C443.128235,168.558945 443.396505,168.639053 443.636829,168.752695 C443.646144,168.875651 443.487791,168.866336 443.31267,168.823488 M443.556721,170.68088 C443.54368,170.688332 443.528776,170.692058 443.513872,170.701373 C443.463572,170.68088 443.409545,170.669702 443.355519,170.665976 C443.485928,170.451733 443.593981,170.228176 443.646144,170.010207 C443.64987,169.995303 443.642418,169.985988 443.644281,169.971084 C443.815675,169.928236 443.985207,169.896565 444.164053,169.892839 C444.080219,170.203957 443.847346,170.457322 443.556721,170.68088 M444.590675,174.894943 C444.566457,174.831602 444.510567,174.781301 444.436048,174.807383 C444.408103,174.820424 444.378296,174.831602 444.354077,174.844643 C444.348488,174.840917 444.342899,174.837191 444.335447,174.837191 C444.352214,174.785027 444.35594,174.732864 444.344762,174.676974 C444.519882,174.673248 444.695002,174.669522 444.866397,174.676974 C444.935327,174.799931 444.778836,174.863272 444.590675,174.894943 M442.932622,176.616338 C442.880459,176.560448 442.826432,176.504559 442.772406,176.452395 C442.811528,176.444943 442.852514,176.441217 442.889774,176.437491 C442.934485,176.448669 442.971745,176.457984 443.01273,176.467299 C442.992238,176.5176 442.964293,176.5679 442.932622,176.616338 M416.142955,189.049873 C416.373965,189.034969 416.614289,188.997709 416.841573,188.956724 C416.841573,188.958587 416.83971,188.958587 416.832258,188.962313 C416.431717,189.195185 416.019998,189.407565 415.57102,189.567782 C415.744277,189.37962 415.943616,189.213815 416.142955,189.049873 M414.516573,189.869584 L414.53334,189.590137 L414.566873,189.11694 L414.58364,188.638154 L414.607859,187.90414 C414.646981,187.946988 414.712186,187.963755 414.77739,187.960029 C414.818376,188.006603 414.855635,188.058767 414.909662,188.096027 C414.924566,188.103478 414.939469,188.105341 414.948784,188.11093 C414.905936,188.302817 414.917114,188.496567 415.021441,188.677277 C415.103412,188.813274 415.228232,188.895245 415.369818,188.958587 C415.045659,189.221267 414.75876,189.515618 414.516573,189.869584 M414.6712,191.294765 C414.581777,191.227698 414.501669,191.194164 414.432739,191.158767 L414.486765,190.292481 C414.561284,190.374452 414.676789,190.428479 414.820239,190.402397 C414.982318,190.378178 415.144397,190.342782 415.297162,190.303659 C415.047522,190.603599 414.83328,190.931484 414.6712,191.294765 M439.882922,186.097048 C439.987249,186.199512 440.100891,186.294524 440.236889,186.369043 C440.236889,186.391399 440.236889,186.410029 440.242478,186.428659 C440.099028,186.354139 439.964894,186.266579 439.834485,186.17343 C439.851252,186.147348 439.869881,186.124993 439.882922,186.097048 M445.445784,174.785027 C445.669341,174.859546 445.872406,174.98064 446.023308,175.165075 C445.723368,175.265676 445.395483,175.31784 445.065736,175.340196 C445.28743,175.219102 445.427154,175.040256 445.445784,174.785027 M442.397947,183.891278 C442.53767,183.939716 442.666216,184.017961 442.763091,184.135329 C442.569341,184.202396 442.366276,184.232204 442.161348,184.239656 C442.297346,184.165137 442.388632,184.053358 442.397947,183.891278 M439.996564,189.500714 C440.2313,189.580822 440.434365,189.703779 440.592718,189.897529 C440.279737,189.999993 439.944401,190.052157 439.607201,190.06706 C439.834485,189.951556 439.983523,189.759669 439.996564,189.500714 M437.222585,210.224515 C437.151792,210.148133 437.069821,210.075477 436.999028,210.023313 C436.849989,209.917123 436.712129,209.850056 436.613391,209.810933 L436.607802,209.719647 L436.525831,208.45282 L436.445722,207.59026 C436.51279,207.648012 436.592898,207.692724 436.682321,207.703902 C436.782922,207.71508 436.90029,207.707628 436.991576,207.648012 C437.084725,207.59026 437.148066,207.497111 437.166696,207.398373 C437.185326,207.294046 437.172285,207.197171 437.12571,207.1152 C437.105218,207.068625 437.069821,207.038818 437.026972,207.016462 C436.989713,206.994106 436.943138,206.99038 436.904016,206.99038 C436.82577,206.997832 436.751251,207.02764 436.70654,207.079803 C436.667417,207.128241 436.658102,207.189719 436.659965,207.234431 C436.663691,207.279142 436.676732,207.312676 436.684184,207.338757 C436.699088,207.357387 436.70654,207.361113 436.70654,207.361113 C436.70654,207.361113 436.699088,207.355524 436.689773,207.338757 C436.682321,207.312676 436.673006,207.279142 436.674869,207.234431 C436.676732,207.193445 436.686047,207.139419 436.728895,207.098433 C436.766155,207.053721 436.835085,207.035092 436.907742,207.035092 C436.978535,207.02764 437.045602,207.064899 437.082862,207.139419 C437.114533,207.210212 437.127573,207.301498 437.11267,207.383469 C437.090314,207.471029 437.03815,207.549274 436.959905,207.59026 C436.88166,207.636834 436.784785,207.648012 436.686047,207.64056 C436.594761,207.634971 436.507201,207.584671 436.441996,207.519467 C436.441996,207.519467 436.440133,207.515741 436.43827,207.515741 L436.408463,207.189719 C436.363751,206.768685 436.30041,206.351378 436.251972,205.932207 L436.119701,204.676558 C436.065674,204.25925 436.047044,203.836353 436.011648,203.411593 L435.966936,202.783769 C435.952032,202.578841 435.955758,202.364598 435.950169,202.155944 C435.942717,201.733048 435.929677,201.304562 435.929677,200.889117 C435.937129,200.760572 435.942717,200.633889 435.946443,200.509069 C435.98184,200.605944 436.026552,200.704682 436.08803,200.797831 C436.158823,200.896569 436.235206,200.991581 436.346984,201.0661 C436.404737,201.101497 436.468078,201.129442 436.537008,201.14062 C436.604076,201.149935 436.686047,201.14062 436.751251,201.090319 C436.885386,200.97854 436.859304,200.829502 436.864893,200.704682 C436.851852,200.577999 436.82577,200.456906 436.769881,200.348853 C436.728895,200.238937 436.656239,200.143925 436.583583,200.061954 C436.510927,199.981845 436.432681,199.914778 436.358162,199.858889 C436.222165,199.762014 436.102934,199.702398 436.004196,199.661413 C436.006059,199.650235 436.006059,199.639057 436.007922,199.633468 C436.080578,198.800715 436.250109,197.964237 436.322766,197.118444 C436.38797,196.431004 436.462489,195.743564 436.510927,195.054261 C436.540734,195.12878 436.576131,195.203299 436.626432,195.277818 C436.699088,195.37283 436.769881,195.471568 436.885386,195.538636 C436.943138,195.574032 437.002754,195.601977 437.071684,195.613155 C437.146203,195.628059 437.226311,195.613155 437.28779,195.56658 C437.421924,195.454802 437.397706,195.305763 437.405158,195.177217 C437.390254,195.057987 437.366035,194.931304 437.312009,194.825114 C437.265434,194.711472 437.192778,194.618323 437.120121,194.540078 C437.049328,194.456244 436.972946,194.394765 436.894701,194.338876 C436.879797,194.327698 436.864893,194.320246 436.849989,194.310931 C436.965494,194.284849 437.073547,194.193563 437.071684,194.098551 C437.064232,193.986773 437.049328,193.87872 437.03815,193.77253 C437.360446,193.861953 437.706961,193.889898 438.046023,193.830282 C438.174569,193.809789 438.282622,193.709188 438.290074,193.597409 C438.295663,193.198732 438.195062,192.76652 438.023667,192.358527 C438.32547,192.425594 438.629136,192.44795 438.886227,192.390198 C439.001732,192.369705 439.120963,192.278419 439.115374,192.16664 C439.091155,191.821989 438.930939,191.523912 438.696203,191.264957 C439.022225,191.209068 439.301672,191.0917 439.465615,190.858827 C439.569942,190.709789 439.625831,190.57938 439.648187,190.456423 C440.14374,190.47319 440.639293,190.421027 441.101312,190.219825 C441.23731,190.163935 441.276432,190.026075 441.222406,189.916159 C440.967177,189.422469 440.408283,189.090858 439.767418,188.906423 C439.696624,188.843082 439.61279,188.776015 439.515915,188.725714 C439.709665,188.669825 439.8941,188.591579 440.065494,188.500293 C440.067357,188.515197 440.067357,188.528238 440.071083,188.546868 C440.104617,188.751796 440.432502,188.869164 440.60017,188.701495 C440.842358,188.455582 440.866576,188.14819 440.726853,187.863154 C440.726853,187.794224 440.704497,187.727156 440.648608,187.674993 C440.473487,187.501736 440.268559,187.389957 440.058043,187.30426 C440.078535,187.244644 440.08785,187.186892 440.091576,187.127276 C440.171684,187.043442 440.244341,186.954019 440.303956,186.857144 C440.315134,186.838514 440.31886,186.819885 440.324449,186.803118 C440.344942,186.812433 440.365434,186.823611 440.38779,186.831062 C440.479076,186.872048 440.607622,186.795666 440.603896,186.709969 C440.602033,186.639175 440.590855,186.575834 440.583403,186.51063 C440.780879,186.562793 440.993259,186.583286 441.201913,186.546026 C441.282021,186.534848 441.347225,186.471507 441.352814,186.398851 C441.354677,186.164115 441.295062,185.895846 441.188872,185.640618 C441.37517,185.685329 441.561468,185.69837 441.716096,185.662973 C441.786889,185.651795 441.861408,185.595906 441.857682,185.528839 C441.839052,185.312733 441.740314,185.137613 441.596865,184.975533 C441.801793,184.938274 441.971324,184.865617 442.071925,184.727757 C442.138992,184.634608 442.170663,184.5545 442.183704,184.476254 C442.489233,184.487432 442.794762,184.457625 443.06862,184.340257 C443.15618,184.297408 443.178536,184.2173 443.146865,184.146507 C442.990375,183.840978 442.651312,183.643502 442.258223,183.52986 C442.215375,183.488874 442.161348,183.449752 442.103596,183.421807 C442.222826,183.386411 442.336468,183.337973 442.442658,183.282084 C442.442658,183.291399 442.440795,183.296987 442.442658,183.304439 C442.465014,183.432985 442.66249,183.507504 442.766817,183.406903 C442.917718,183.256002 442.928896,183.060389 442.843199,182.885269 C442.841336,182.846146 442.824569,182.80516 442.794762,182.775353 C442.686709,182.6673 442.565615,182.59837 442.433343,182.546206 C442.448247,182.508946 442.453836,182.467961 442.453836,182.430701 C442.502274,182.380401 442.550711,182.331963 442.582382,182.276074 C442.623367,182.207144 442.617778,182.119583 442.532081,182.069283 C442.481781,182.046927 442.420302,182.017119 442.358824,181.991038 C442.46874,181.99849 442.576793,181.994764 442.68112,181.974271 C442.757502,181.96123 442.817117,181.903478 442.824569,181.832684 C442.824569,181.599812 442.763091,181.346446 442.656901,181.104259 C442.839473,181.137792 443.020182,181.152696 443.17481,181.1173 C443.236288,181.104259 443.307081,181.04278 443.303355,180.979439 C443.288452,180.781963 443.189714,180.597528 443.046264,180.454078 C443.241877,180.414956 443.405819,180.3423 443.50642,180.202576 C443.566036,180.120605 443.601432,180.036771 443.610747,179.965977 C443.901372,179.977155 444.199449,179.941759 444.465856,179.816939 C444.547827,179.783405 444.570183,179.70516 444.536649,179.634367 C444.382021,179.347468 444.052274,179.155581 443.670363,179.045665 C443.651733,179.030761 443.63124,179.01772 443.610747,179.002816 C443.707622,178.978597 443.784005,178.907804 443.808223,178.822107 C443.821264,178.818381 443.832442,178.810929 443.845483,178.80534 C443.845483,178.810929 443.84362,178.818381 443.845483,178.829559 C443.867839,178.94879 444.063452,179.021446 444.160327,178.926434 C444.305639,178.769944 444.316817,178.581782 444.23112,178.415977 C444.229257,178.378718 444.214353,178.341458 444.186408,178.315376 C444.080219,178.212912 443.957262,178.145845 443.830579,178.095544 C443.841757,178.056422 443.849209,178.017299 443.849209,177.98004 C443.89392,177.933465 443.942358,177.883165 443.975892,177.831001 C444.009425,177.763934 444.001973,177.6801 443.920002,177.635388 C443.910687,177.633525 443.899509,177.627936 443.890195,177.62421 C444.063452,177.635388 444.236709,177.635388 444.385747,177.601854 C444.495663,177.579499 444.61862,177.491939 444.611168,177.383886 C444.58136,177.046686 444.421144,176.757924 444.190134,176.512011 C444.510567,176.456121 444.77511,176.331301 444.93719,176.104018 C445.037791,175.96802 445.089954,175.833885 445.11231,175.716518 C445.594822,175.727696 446.073608,175.671806 446.520724,175.476193 C446.651132,175.412852 446.693981,175.282443 446.636229,175.172527 C446.386589,174.69933 445.835147,174.378897 445.207322,174.207503 C445.140255,174.142299 445.056421,174.082683 444.963272,174.037972 C445.153296,173.978356 445.330279,173.901974 445.496084,173.810688 C445.497947,173.821866 445.497947,173.834907 445.501673,173.849811 C445.535207,174.051013 445.857502,174.166517 446.015856,174.000712 C446.25618,173.756662 446.271084,173.456722 446.133224,173.182864 C446.133224,173.115796 446.109005,173.046866 446.056841,173.002154 C445.883584,172.832623 445.684245,172.72457 445.477454,172.638873 C445.49981,172.579258 445.507262,172.517779 445.505399,172.456301 C445.576192,172.37433 445.648849,172.296085 445.704738,172.208524 C445.775531,172.100472 445.758764,171.958885 445.626493,171.886229 C445.501673,171.819161 445.36195,171.763272 445.216637,171.707383 C445.214774,171.679438 445.205459,171.653356 445.196144,171.631 C445.32469,171.454017 445.388031,171.249089 445.319101,171.005039 C445.2688,170.783344 445.102995,170.651072 444.903656,170.591457 C444.767659,170.479678 444.557142,170.440555 444.359666,170.444281 C444.504978,170.263572 444.609305,170.054918 444.663332,169.814594 C444.750892,169.794101 444.808644,169.727034 444.797466,169.641337 C444.754618,169.216577 444.441637,168.819762 444.029918,168.506781 C443.994521,168.435988 443.953536,168.372647 443.89392,168.305579 C444.052274,168.314894 444.206901,168.313031 444.357803,168.290675 C444.35594,168.301853 444.352214,168.313031 444.348488,168.326072 C444.313091,168.488151 444.519882,168.668861 444.68755,168.590615 C444.93719,168.476973 445.037791,168.259005 445.013572,168.011228 C445.032202,167.966517 445.034065,167.914353 445.00612,167.860327 C444.931601,167.685207 444.816096,167.541757 444.685687,167.422526 C444.719221,167.383404 444.74344,167.340555 444.760207,167.292118 C444.836589,167.256721 444.91856,167.219461 444.985627,167.171024 C445.065736,167.103956 445.09368,166.997767 445.019161,166.908343 C444.944642,166.81892 444.858945,166.738812 444.769522,166.649389 C444.776973,166.628896 444.776973,166.602815 444.776973,166.582322 C444.926012,166.48731 445.030339,166.356901 445.056421,166.163151 C445.07505,165.984305 444.993079,165.837129 444.862671,165.729076 C444.799329,165.607983 444.65588,165.516697 444.501252,165.458944 C444.68755,165.354617 444.851493,165.213031 444.966998,165.008103 C445.000531,164.948487 444.976312,164.846023 444.907382,164.801312 C444.573909,164.585206 444.223668,164.490194 443.867839,164.460386 C443.88088,164.428716 443.890195,164.404497 443.901372,164.376552 C443.933043,164.264773 443.832442,164.121324 443.728115,164.072886 C443.549269,163.998367 443.364834,163.961107 443.189714,163.94993 C443.402093,163.717057 443.552995,163.448788 443.601432,163.165615 C443.618199,163.014713 443.510146,162.901071 443.361108,162.852634 C442.992238,162.746444 442.576793,162.811648 442.204197,162.986768 C442.181841,162.975591 442.159485,162.960687 442.13154,162.955098 C442.103596,162.798607 441.984365,162.668199 441.768259,162.696143 C441.721685,162.703595 441.67511,162.718499 441.62481,162.727814 C441.662069,162.653295 441.706781,162.57505 441.731,162.498667 C441.814834,162.273247 441.595002,161.9938 441.330459,162.0944 C441.164653,162.154016 440.928055,162.245302 440.670963,162.368259 C440.644882,162.364533 440.6188,162.360807 440.590855,162.360807 C440.795783,162.120482 440.952273,161.85035 441.000711,161.546684 C441.02493,161.395783 440.903836,161.203896 440.723127,161.185266 C440.236889,161.136828 439.765555,161.243018 439.322165,161.40696 C439.391095,161.192718 439.405999,160.956119 439.322165,160.699028 C439.271865,160.549989 439.091155,160.466155 438.942117,160.469881 C438.740915,160.47547 438.57511,160.533222 438.414893,160.596564 C438.414893,160.561167 438.424208,160.52577 438.418619,160.486648 C438.407441,160.292898 438.202513,160.1569 438.0069,160.162489 C437.584004,160.179256 437.280338,160.328294 437.023246,160.536948 C437.079136,160.162489 436.982261,159.819701 436.559364,159.570061 C436.184905,159.353955 435.797405,159.523487 435.538451,159.810386 C435.348427,159.240314 434.99446,158.867717 434.292116,159.029797 C433.969821,159.10059 433.78166,159.318559 433.666155,159.59428 C433.591635,159.551431 433.518979,159.514172 433.433282,159.476912 C433.369941,159.45083 433.302873,159.432201 433.237669,159.413571 C433.179917,159.277573 433.105397,159.147165 433.00107,159.033523 C432.872525,158.88821 432.676912,158.880758 432.54464,159.007441 C432.404917,159.143439 432.322945,159.326011 432.28196,159.516035 C432.1944,159.558883 432.112429,159.616636 432.037909,159.672525 C431.736106,159.460145 431.445481,159.281299 431.270361,159.160205 C431.033763,158.9944 430.741274,159.180698 430.834424,159.443379 C430.845601,159.465734 430.858642,159.495542 430.867957,159.519761 C430.305337,159.473186 429.763209,159.605458 429.711046,160.017177 C429.448366,159.953835 429.187548,159.916576 428.954676,159.901672 C428.621202,159.883042 428.187128,159.927754 427.851791,160.048847 C427.764231,159.989232 427.658041,159.965013 427.546262,159.968739 C427.417716,159.916576 427.248185,159.935205 427.095421,159.989232 C427.168077,159.78803 427.201611,159.57565 427.156899,159.346503 C427.145721,159.281299 427.058161,159.217958 426.978053,159.227273 C426.58869,159.281299 426.255216,159.435927 425.964591,159.642717 C425.95155,159.616636 425.947824,159.586828 425.934783,159.558883 C425.886346,159.45083 425.720541,159.402393 425.605036,159.439653 C425.424327,159.502994 425.258521,159.583102 425.118798,159.693018 C425.124387,159.380037 425.072223,159.072645 424.919459,158.832321 C424.837488,158.700049 424.68286,158.687008 424.537548,158.744761 C424.183581,158.903114 423.909723,159.227273 423.743918,159.59428 C423.717836,159.601732 423.693617,159.605458 423.669399,159.616636 C423.544579,159.519761 423.369459,159.499268 423.226009,159.657621 C423.192475,159.694881 423.166394,159.732141 423.13286,159.773126 C423.11423,159.693018 423.099326,159.609184 423.067656,159.530939 C422.985685,159.305518 422.637307,159.232862 422.495721,159.484364 C422.406297,159.635266 422.285204,159.868138 422.165973,160.134544 C422.147343,160.149448 422.124987,160.1569 422.10822,160.168078 C422.110083,159.855097 422.059783,159.540254 421.893978,159.281299 C421.813869,159.147165 421.594038,159.074508 421.450588,159.180698 C421.044458,159.460145 420.755696,159.851371 420.52655,160.261227 C420.437126,160.048847 420.29554,159.862549 420.068256,159.717237 C419.934122,159.638992 419.738509,159.693018 419.62673,159.791756 C419.479554,159.927754 419.386405,160.078655 419.306297,160.225831 C419.285804,160.19416 419.269037,160.168078 419.23923,160.141996 C419.105095,160.004136 418.861045,160.032081 418.719458,160.160626 C418.406477,160.449388 418.268617,160.758643 418.209001,161.080939 C418.011525,160.762369 417.711585,160.561167 417.232799,160.648727 C416.804313,160.719521 416.614289,161.101432 416.604975,161.488932 C416.092655,161.177814 415.580335,161.121924 415.14626,161.697586 C414.948784,161.965855 414.948784,162.252754 415.04007,162.53779 C414.956236,162.552694 414.872402,162.569461 414.788568,162.597405 C414.719638,162.623487 414.673063,162.660747 414.615311,162.690554 C414.475587,162.616035 414.326549,162.560146 414.170058,162.53779 C413.976308,162.515434 413.823544,162.634665 413.806777,162.815374 C413.784421,163.018439 413.842174,163.212189 413.940912,163.389172 C413.905515,163.473006 413.881296,163.56243 413.862666,163.653716 C413.488207,163.685386 413.149145,163.733824 412.931176,163.754317 C412.648003,163.78785 412.541813,164.119461 412.785863,164.253595 C412.811945,164.268499 412.838027,164.277814 412.860383,164.290855 C412.402089,164.620603 412.072342,165.07517 412.303351,165.421685 C412.059301,165.540915 411.835743,165.686228 411.647582,165.824088 C411.342053,166.049509 410.986224,166.43142 410.833459,166.783524 C410.770118,166.865495 410.753351,166.953055 410.766392,167.035026 C410.764529,167.06856 410.757077,167.102093 410.75894,167.133764 C410.412426,167.560387 410.032377,168.38755 410.47763,168.771324 C410.576368,168.855159 410.688147,168.879377 410.811104,168.890555 C410.622942,169.186769 410.47763,169.501613 410.39007,169.848127 C410.339769,170.045603 410.561464,170.207683 410.775707,170.095904 C410.889349,170.034426 410.999265,169.963632 411.103592,169.892839 C410.950827,170.295243 410.868856,170.71814 410.885623,171.161529 C410.894938,171.308705 411.055154,171.450291 411.234,171.38695 C411.39608,171.323608 411.537666,171.245363 411.675527,171.163392 C411.74632,171.230459 411.85251,171.260267 411.94007,171.154077 C411.941933,171.150351 411.947522,171.146625 411.949385,171.142899 C411.962426,171.183885 411.969878,171.226733 411.990371,171.277034 C412.044397,171.416758 412.217654,171.498729 412.38346,171.403717 C412.564169,171.301253 412.726248,171.187611 412.87715,171.060928 C412.94608,171.154077 413.042955,171.226733 413.173363,171.241637 C413.178952,171.301253 413.191993,171.34969 413.225527,171.403717 C413.231116,171.414895 413.238568,171.416758 413.24602,171.424209 C413.251609,171.563933 413.26465,171.696205 413.285142,171.834065 C413.024325,172.011048 412.865972,172.232743 412.931176,172.491698 C412.659181,172.528957 412.392774,172.588573 412.167354,172.663092 C411.779854,172.795363 411.291753,173.058044 411.032798,173.369162 C410.982498,173.41201 410.947101,173.456722 410.932197,173.512611 C410.906116,173.561049 410.88376,173.60576 410.868856,173.652335 C410.39007,173.952275 409.747341,174.6304 410.058459,175.152034 C410.125527,175.26195 410.224265,175.321566 410.339769,175.375592 C410.060322,175.601013 409.819998,175.858104 409.620659,176.163633 C409.503291,176.344342 409.663507,176.575352 409.911284,176.532503 C410.041692,176.512011 410.173964,176.478477 410.293195,176.452395 C410.015611,176.789595 409.795779,177.169643 409.667233,177.609306 C409.626248,177.752756 409.730575,177.946506 409.929914,177.939054 C410.10876,177.937191 410.274565,177.909246 410.434781,177.868261 C410.47763,177.96141 410.576368,178.021025 410.693736,177.946506 C410.699325,177.94278 410.703051,177.939054 410.70864,177.939054 C410.706777,177.987492 410.697462,178.032203 410.701188,178.082504 C410.70864,178.240857 410.848363,178.374992 411.043976,178.339595 C411.250767,178.300472 411.448243,178.240857 411.636404,178.170064 C411.675527,178.281843 411.744457,178.386169 411.867414,178.442059 C411.85251,178.497948 411.846921,178.555701 411.865551,178.615316 C411.867414,178.626494 411.874866,178.635809 411.876729,178.645124 C411.830154,178.809066 411.78358,178.974871 411.757498,179.148129 C411.733279,179.274811 411.874866,179.388453 412.009,179.392179 C412.498964,179.410809 412.905094,179.246867 413.257198,179.002816 C413.178952,179.321386 413.195719,179.6176 413.409962,179.824391 C413.5087,179.913814 413.611164,179.962251 413.713628,179.980881 C413.61489,180.346026 413.644698,180.71117 413.870118,181.055821 C413.866392,181.089355 413.866392,181.1173 413.870118,181.14897 C413.832859,181.126615 413.786284,181.1173 413.741573,181.121026 C413.708039,181.121026 413.674505,181.126615 413.646561,181.152696 C413.620479,181.173189 413.599986,181.20486 413.588808,181.232804 C413.586945,181.23653 413.588808,181.243982 413.586945,181.247708 C413.477029,181.27379 413.376428,181.299872 413.283279,181.329679 C412.983339,181.420966 412.603291,181.625893 412.403952,181.862492 C412.366693,181.894163 412.340611,181.925833 412.32757,181.968682 C412.305214,181.99849 412.292173,182.035749 412.280996,182.069283 C411.910262,182.302156 411.40912,182.818201 411.645719,183.220605 C411.692294,183.300713 411.766813,183.35474 411.856236,183.393862 C411.645719,183.563394 411.451969,183.759007 411.297342,183.995605 C411.207919,184.131603 411.329012,184.306723 411.519036,184.280641 C411.617774,184.262012 411.718375,184.239656 411.81525,184.2173 C411.597282,184.476254 411.422161,184.768742 411.32156,185.09849 C411.291753,185.215858 411.368135,185.363033 411.522762,185.359307 C411.656897,185.355581 411.78358,185.335089 411.906536,185.307144 C411.94007,185.381663 412.012726,185.422649 412.109601,185.370485 L412.118916,185.366759 C412.118916,185.400293 412.111464,185.433827 412.113327,185.471086 C412.118916,185.595906 412.22138,185.69837 412.372282,185.674151 C412.534361,185.644344 412.685262,185.599632 412.828712,185.543743 C412.856657,185.633166 412.90882,185.711411 413.003832,185.757985 C412.992654,185.800834 412.990791,185.843682 412.998243,185.89212 C413.001969,185.899572 413.003832,185.907024 413.007558,185.914476 C412.970299,186.041158 412.934902,186.164115 412.912546,186.29825 C412.893916,186.395125 413.001969,186.477096 413.10257,186.484548 C413.477029,186.506904 413.791873,186.380221 414.065731,186.195786 C414.00239,186.443562 414.013568,186.668983 414.173784,186.823611 C414.201729,186.853418 414.229674,186.866459 414.255755,186.883226 L414.220359,188.096027 C414.205455,188.550594 414.205455,189.008887 414.170058,189.457866 L414.147703,189.84164 C414.08995,189.856544 414.024746,189.877036 413.950227,189.916159 C413.898063,189.944104 413.840311,189.975774 413.784421,190.022349 C413.732258,190.06706 413.674505,190.117361 413.635383,190.184428 C413.588808,190.251496 413.560864,190.326015 413.540371,190.402397 C413.531056,190.488094 413.495659,190.57938 413.573904,190.665077 C413.65215,190.745186 413.765791,190.724693 413.836585,190.693022 C413.920419,190.661351 413.980034,190.603599 414.034061,190.54771 C414.065731,190.512313 414.08995,190.476916 414.112306,190.437794 L414.08995,190.821568 C414.060142,191.279861 414.037787,191.738154 414.00239,192.18527 L413.998664,192.233707 C413.985623,192.274693 413.972582,192.308227 413.955816,192.343623 C413.929734,192.406965 413.890611,192.470306 413.840311,192.524332 C413.788147,192.570907 413.722943,192.606304 413.65215,192.611893 C413.581356,192.619344 413.5087,192.611893 413.449085,192.580222 C413.389469,192.544825 413.350347,192.488936 413.337306,192.421868 C413.320539,192.354801 413.331717,192.284008 413.357799,192.233707 C413.385743,192.181544 413.437907,192.149873 413.488207,192.157325 C413.544097,192.157325 413.592534,192.174092 413.624205,192.2039 C413.65215,192.233707 413.661465,192.278419 413.663328,192.308227 C413.663328,192.339897 413.657739,192.365979 413.650287,192.37902 C413.644698,192.399513 413.640972,192.403239 413.640972,192.403239 C413.640972,192.403239 413.646561,192.399513 413.654013,192.37902 C413.661465,192.365979 413.672642,192.339897 413.674505,192.308227 C413.674505,192.274693 413.670779,192.229981 413.637246,192.188996 C413.605575,192.149873 413.547823,192.12938 413.491933,192.125654 C413.462126,192.118203 413.424866,192.125654 413.396921,192.142421 C413.367114,192.161051 413.342895,192.18527 413.322402,192.215078 C413.288868,192.278419 413.279553,192.351075 413.294457,192.42932 C413.309361,192.50384 413.354073,192.580222 413.423003,192.619344 C413.495659,192.662193 413.581356,192.665919 413.657739,192.654741 C413.741573,192.647289 413.816092,192.608167 413.868255,192.552277 C413.920419,192.500114 413.953953,192.440498 413.985623,192.37902 L413.871981,193.543383 C413.858941,193.690559 413.840311,193.834008 413.821681,193.975595 L413.819818,193.975595 C413.754614,193.988636 413.654013,194.012854 413.547823,194.070607 C413.493796,194.098551 413.434181,194.133948 413.380154,194.174934 C413.326128,194.219645 413.272101,194.271809 413.229253,194.338876 C413.182678,194.400354 413.154734,194.482325 413.134241,194.560571 C413.124926,194.636953 413.091392,194.733828 413.167775,194.821388 C413.247883,194.907085 413.359662,194.877277 413.432318,194.84747 C413.514289,194.813936 413.573904,194.758047 413.627931,194.70402 C413.678231,194.644405 413.713628,194.592241 413.750888,194.536352 C413.732258,194.659309 413.713628,194.782265 413.70245,194.907085 L413.637246,195.583347 L413.611164,196.268924 C413.607438,196.57259 413.618616,196.866941 413.626068,197.159429 C413.609301,197.261893 413.581356,197.377398 413.52733,197.487314 C413.495659,197.550655 413.462126,197.610271 413.409962,197.658708 C413.357799,197.705283 413.294457,197.740679 413.223664,197.751857 C413.149145,197.75372 413.076488,197.751857 413.016873,197.716461 C412.959121,197.681064 412.919998,197.625174 412.906957,197.561833 C412.89019,197.494766 412.899505,197.425835 412.92745,197.369946 C412.951669,197.317783 413.003832,197.284249 413.059722,197.291701 C413.115611,197.291701 413.162186,197.310331 413.191993,197.342001 C413.223664,197.369946 413.236705,197.416521 413.236705,197.444465 C413.236705,197.476136 413.229253,197.500355 413.221801,197.517122 C413.216212,197.535751 413.20876,197.546929 413.20876,197.546929 C413.20876,197.546929 413.218075,197.535751 413.225527,197.517122 C413.236705,197.507807 413.240431,197.479862 413.242294,197.444465 C413.242294,197.416521 413.238568,197.36622 413.20876,197.32896 C413.173363,197.291701 413.119337,197.267482 413.061585,197.265619 C413.03364,197.265619 412.998243,197.267482 412.968436,197.27866 C412.936765,197.295427 412.914409,197.325235 412.893916,197.351316 C412.856657,197.416521 412.849205,197.494766 412.862246,197.569285 C412.87715,197.641941 412.925587,197.716461 412.99638,197.75372 C413.065311,197.798432 413.152871,197.805884 413.225527,197.794706 C413.309361,197.787254 413.385743,197.748131 413.437907,197.694105 C413.495659,197.638215 413.532919,197.569285 413.562727,197.500355 C413.592534,197.429561 413.61489,197.358768 413.629794,197.287975 C413.631657,197.310331 413.629794,197.332686 413.631657,197.351316 L413.637246,197.602819 L413.654013,197.869225 L413.694998,198.400175 C413.708039,198.580884 413.715491,198.752278 413.735984,198.932987 L413.791873,199.462074 C413.803051,199.573853 413.819818,199.681905 413.830996,199.791821 C413.778832,199.810451 413.722943,199.829081 413.661465,199.858889 C413.609301,199.890559 413.547823,199.92223 413.495659,199.965079 C413.441633,200.006064 413.385743,200.060091 413.342895,200.130884 C413.29632,200.194225 413.266513,200.268745 413.242294,200.348853 C413.236705,200.430824 413.205034,200.518384 413.283279,200.60967 C413.359662,200.693504 413.473303,200.667422 413.547823,200.633889 C413.626068,200.605944 413.689409,200.550055 413.741573,200.490439 C413.793736,200.43455 413.836585,200.373071 413.868255,200.313456 C413.875707,200.298552 413.879433,200.289237 413.885022,200.279922 C413.894337,200.360031 413.903652,200.445728 413.91483,200.525836 L413.985623,201.054923 L414.067594,201.580283 C414.093676,201.757266 414.12721,201.932387 414.151429,202.105644 L414.220359,202.63473 L414.294878,203.163817 C414.311645,203.3408 414.347042,203.517783 414.354493,203.694767 C414.358219,203.869887 414.386164,204.045007 414.376849,204.223853 L414.363808,204.488397 C414.361945,204.575957 414.345179,204.669106 414.332138,204.751077 L414.332138,204.747351 L414.294878,204.883348 L414.337727,204.898252 L414.388027,204.767844 L414.388027,204.764118 C414.40852,204.691461 414.42715,204.60949 414.442054,204.534971 L414.471861,204.294646 C414.49608,204.132567 414.488628,203.974214 414.49608,203.817723 L414.497943,203.694767 C414.516573,203.730163 414.527751,203.769286 414.548243,203.800957 C414.600407,203.873613 414.658159,203.948132 414.743856,204.002158 C414.784842,204.026377 414.831417,204.04687 414.88358,204.058048 C414.941332,204.0655 414.999085,204.058048 415.045659,204.018925 C415.14626,203.935091 415.125768,203.821449 415.129494,203.730163 C415.120179,203.633288 415.101549,203.543865 415.062426,203.458168 C415.02703,203.37806 414.974866,203.307267 414.918977,203.245788 C414.866813,203.186173 414.805335,203.137735 414.747582,203.091161 C414.635804,203.011053 414.531477,202.964478 414.460683,202.93467 L414.456957,202.86574 L414.397342,201.910031 L414.334001,201.267302 C414.386164,201.308288 414.443917,201.339959 414.51471,201.347411 C414.587366,201.354862 414.673063,201.351136 414.743856,201.304562 C414.812787,201.271028 414.863087,201.192783 414.876128,201.118264 C414.891032,201.045608 414.881717,200.971088 414.844457,200.907747 C414.829554,200.874213 414.801609,200.849995 414.773664,200.833228 C414.743856,200.814598 414.70846,200.814598 414.682378,200.814598 C414.6209,200.818324 414.561284,200.842543 414.53334,200.877939 C414.499806,200.917062 414.492354,200.963636 414.49608,200.99717 C414.497943,201.03443 414.507258,201.058648 414.516573,201.071689 C414.525888,201.090319 414.53334,201.094045 414.53334,201.094045 C414.53334,201.094045 414.525888,201.082867 414.520299,201.071689 C414.51471,201.054923 414.505395,201.026978 414.505395,200.99717 C414.507258,200.971088 414.516573,200.924514 414.548243,200.892843 C414.578051,200.861172 414.628352,200.846269 414.682378,200.846269 C414.734542,200.835091 414.784842,200.870487 414.812787,200.924514 C414.838869,200.97854 414.848183,201.045608 414.831417,201.107086 C414.822102,201.174153 414.781116,201.233769 414.721501,201.271028 C414.660022,201.298973 414.589229,201.304562 414.516573,201.298973 C414.443917,201.295247 414.382438,201.25985 414.332138,201.207687 C414.330275,201.203961 414.330275,201.203961 414.328412,201.203961 L414.306056,200.963636 C414.276248,200.645067 414.229674,200.335812 414.188688,200.020968 L414.088087,199.070848 C414.047102,198.75973 414.034061,198.439297 414.007979,198.124453 L413.972582,197.649393 C413.961404,197.498492 413.966993,197.336412 413.959541,197.176196 C413.955816,196.859489 413.946501,196.537194 413.946501,196.226076 C413.950227,196.131064 413.953953,196.036052 413.959541,195.94104 C413.989349,196.015559 414.017294,196.090078 414.065731,196.157145 C414.117895,196.229802 414.17751,196.304321 414.263207,196.36021 C414.30233,196.386292 414.350767,196.406785 414.401068,196.412374 C414.456957,196.423552 414.516573,196.412374 414.561284,196.37884 C414.665611,196.293143 414.646981,196.183227 414.650707,196.090078 C414.63953,195.989477 414.622763,195.898191 414.58364,195.81622 C414.544518,195.732386 414.488628,195.665318 414.440191,195.601977 C414.386164,195.542362 414.324686,195.492061 414.268796,195.454802 C414.168195,195.376556 414.076909,195.333708 414.006116,195.302037 L414.006116,195.281544 C414.060142,194.651857 414.186825,194.024032 414.242715,193.388756 C414.291152,192.87271 414.347042,192.351075 414.386164,191.831303 C414.410383,191.889056 414.432739,191.948671 414.471861,192.000835 C414.525888,192.075354 414.58364,192.149873 414.667474,192.2039 C414.70846,192.229981 414.756897,192.248611 414.807198,192.259789 C414.859361,192.267241 414.92084,192.259789 414.969277,192.220667 C414.997222,192.196448 415.013989,192.174092 415.023304,192.146147 C415.174205,192.136832 415.315792,192.118203 415.453652,192.086532 C415.505816,192.200174 415.630635,192.278419 415.777811,192.18527 C415.785263,192.181544 415.792715,192.177818 415.798304,192.174092 C415.794578,192.229981 415.781537,192.287734 415.785263,192.351075 C415.794578,192.552277 415.965972,192.721808 416.20816,192.680823 C416.467114,192.636111 416.709301,192.563455 416.942174,192.477758 C416.990612,192.619344 417.087487,192.740438 417.242114,192.813094 C417.223484,192.883888 417.217895,192.958407 417.234662,193.032926 C417.236525,193.044104 417.24584,193.053419 417.247703,193.064597 C417.188088,193.273251 417.128472,193.480042 417.091213,193.694285 C417.061405,193.854501 417.234662,193.996087 417.407919,194.005402 C418.018977,194.042662 418.529434,193.837734 418.978412,193.530342 C418.872222,193.930883 418.890852,194.307205 419.153533,194.560571 C419.276489,194.677938 419.406898,194.74128 419.533581,194.765499 C419.382679,195.287133 419.423665,195.823672 419.846561,196.311773 C419.960203,196.445907 420.230336,196.445907 420.360744,196.334129 C420.399867,196.300595 420.429675,196.265198 420.466934,196.229802 L420.448304,196.544645 C420.3831,196.563275 420.310444,196.581905 420.228473,196.630343 C420.168857,196.656424 420.105516,196.699273 420.044037,196.749573 C419.982559,196.796148 419.922944,196.852037 419.876369,196.926557 C419.824206,196.999213 419.790672,197.081184 419.766453,197.176196 C419.757138,197.267482 419.719879,197.36622 419.807439,197.468684 C419.894999,197.554381 420.019819,197.532025 420.103653,197.498492 C420.191213,197.461232 420.25828,197.392302 420.319759,197.336412 C420.355155,197.295427 420.379374,197.254441 420.409182,197.211593 L420.381237,197.641941 C420.351429,198.146809 420.327211,198.659129 420.286225,199.16586 L420.280636,199.221749 C420.265732,199.266461 420.254554,199.30372 420.235925,199.342843 C420.202391,199.40991 420.159542,199.480704 420.103653,199.536593 C420.047763,199.594345 419.973244,199.633468 419.896862,199.635331 C419.814891,199.646509 419.73292,199.635331 419.667715,199.596208 C419.598785,199.562675 419.555936,199.491881 419.541033,199.424814 C419.524266,199.346569 419.535444,199.273913 419.565251,199.212434 C419.596922,199.156545 419.652811,199.121148 419.71429,199.124874 C419.773905,199.124874 419.827932,199.145367 419.863328,199.177038 C419.896862,199.212434 419.90804,199.262735 419.90804,199.296268 C419.90804,199.333528 419.906177,199.361473 419.894999,199.37824 C419.887547,199.396869 419.880095,199.406184 419.880095,199.406184 C419.880095,199.406184 419.887547,199.396869 419.896862,199.37824 C419.90804,199.363336 419.915492,199.337254 419.919218,199.296268 C419.922944,199.262735 419.913629,199.208708 419.878232,199.16586 C419.840973,199.121148 419.779494,199.100655 419.71429,199.096929 C419.682619,199.085752 419.64536,199.096929 419.6081,199.113696 C419.576429,199.1286 419.546622,199.160271 419.529855,199.195667 C419.488869,199.262735 419.479554,199.346569 419.492595,199.432266 C419.509362,199.514237 419.561525,199.596208 419.643497,199.646509 C419.719879,199.693083 419.82048,199.694946 419.902451,199.685631 C419.993737,199.674454 420.075708,199.633468 420.137187,199.573853 C420.191213,199.510511 420.232199,199.441581 420.265732,199.37824 L420.144638,200.684189 C420.127872,200.842543 420.107379,200.99717 420.085023,201.15366 C420.08316,201.157386 420.08316,201.15366 420.081297,201.157386 C420.006778,201.174153 419.896862,201.203961 419.773905,201.263576 C419.718016,201.295247 419.652811,201.33437 419.591333,201.382807 C419.529855,201.436834 419.470239,201.488997 419.423665,201.563516 C419.371501,201.636173 419.341694,201.72187 419.313749,201.811293 C419.304434,201.902579 419.2709,201.999454 419.354735,202.105644 C419.444158,202.195067 419.567114,202.165259 419.649086,202.131726 C419.740372,202.092603 419.807439,202.032988 419.868917,201.973372 C419.924807,201.910031 419.963929,201.846689 420.003052,201.781485 C419.986285,201.921209 419.963929,202.060932 419.947162,202.198793 L419.876369,202.9533 L419.848424,203.718985 L419.867054,204.717543 C419.842836,204.831185 419.814891,204.954142 419.757138,205.075236 C419.719879,205.146029 419.680756,205.213096 419.623004,205.268986 C419.567114,205.330464 419.492595,205.367724 419.416213,205.37145 C419.334242,205.378901 419.255997,205.37145 419.187066,205.33419 C419.119999,205.29693 419.07715,205.229863 419.060384,205.160933 C419.047343,205.086413 419.058521,205.008168 419.086465,204.954142 C419.119999,204.8908 419.174025,204.857267 419.235504,204.860993 C419.293256,204.860993 419.349146,204.883348 419.382679,204.916882 C419.41435,204.954142 419.423665,204.99699 419.427391,205.032387 C419.427391,205.064058 419.421802,205.097591 419.41435,205.112495 C419.408761,205.131125 419.401309,205.138577 419.401309,205.138577 C419.401309,205.138577 419.408761,205.131125 419.416213,205.112495 C419.423665,205.097591 419.436706,205.07151 419.440432,205.032387 C419.442295,204.989538 419.43298,204.944827 419.39572,204.898252 C419.362186,204.857267 419.296982,204.834911 419.235504,204.827459 C419.203833,204.827459 419.16471,204.831185 419.127451,204.849815 C419.097643,204.868445 419.065972,204.898252 419.049206,204.929923 C419.00822,204.99699 418.998905,205.086413 419.013809,205.166522 C419.030576,205.255945 419.080876,205.33419 419.159122,205.378901 C419.237367,205.423613 419.339831,205.434791 419.421802,205.423613 C419.513088,205.410572 419.596922,205.367724 419.656537,205.304382 C419.718016,205.241041 419.762727,205.170248 419.794398,205.097591 C419.827932,205.019346 419.848424,204.941101 419.868917,204.868445 L419.868917,204.90943 L419.876369,205.205644 L419.896862,205.501858 L419.941574,206.103601 C419.95834,206.295488 419.963929,206.494827 419.990011,206.694166 L420.053352,207.282868 C420.06453,207.407688 420.079434,207.526919 420.092475,207.651738 C420.034723,207.672231 419.973244,207.692724 419.906177,207.729983 C419.840973,207.756065 419.779494,207.800777 419.718016,207.841762 C419.6584,207.895789 419.593196,207.955404 419.550348,208.029923 C419.498184,208.096991 419.46465,208.188277 419.444158,208.273974 C419.43298,208.361534 419.39572,208.465861 419.479554,208.566462 C419.57084,208.654022 419.693797,208.629803 419.775768,208.594407 C419.867054,208.55901 419.934122,208.491943 419.9956,208.432327 C420.055215,208.370849 420.098064,208.300056 420.137187,208.229262 C420.144638,208.219947 420.146501,208.210633 420.15209,208.199455 C420.163268,208.287015 420.172583,208.378301 420.181898,208.469587 L420.263869,209.060152 L420.358881,209.648854 C420.390552,209.84633 420.425949,210.045669 420.453893,210.23383 L420.532139,210.828121 L420.608521,211.416823 C420.632739,211.616162 420.675588,211.809912 420.675588,212.007388 C420.681177,212.204864 420.709122,212.400477 420.699807,212.599816 L420.688629,212.899756 C420.688629,212.991042 420.66441,213.095369 420.649506,213.188518 L420.649506,213.184792 L420.608521,213.337556 L420.636465,213.343145 L420.634602,213.346871 L420.636465,213.343145 L420.655095,213.350597 L420.658821,213.350597 L420.66441,213.33383 L420.714711,213.207148 L420.714711,213.203422 C420.737066,213.121451 420.759422,213.026439 420.774326,212.944467 L420.805997,212.678061 C420.835804,212.501078 420.830215,212.322232 420.835804,212.141523 L420.83953,212.012977 C420.856297,212.048373 420.869338,212.089359 420.891694,212.122893 C420.951309,212.20859 421.018377,212.292424 421.111526,212.348313 C421.1581,212.378121 421.212127,212.404203 421.271742,212.411655 C421.327631,212.419107 421.398425,212.411655 421.452451,212.370669 C421.562367,212.279383 421.541874,212.1527 421.543737,212.048373 C421.536285,211.942184 421.515792,211.837857 421.469218,211.750297 C421.431958,211.653422 421.368617,211.573313 421.307139,211.509972 C421.24566,211.442905 421.182319,211.383289 421.118978,211.340441 C420.997884,211.243566 420.880516,211.195128 420.796682,211.157869 L420.792956,211.081486 L420.724026,210.015861 L420.655095,209.296751 C420.710985,209.341462 420.779915,209.380585 420.854434,209.388037 C420.940131,209.401077 421.035143,209.391763 421.111526,209.345188 C421.191634,209.296751 421.241934,209.218505 421.260564,209.134671 C421.277331,209.048974 421.266153,208.96514 421.228893,208.894347 C421.206538,208.862676 421.178593,208.832868 421.146922,208.812375 C421.111526,208.795609 421.072403,208.791883 421.040732,208.795609 C420.977391,208.799335 420.915913,208.823553 420.878653,208.866402 C420.843256,208.911113 420.835804,208.961414 420.835804,208.994948 C420.83953,209.035933 420.848845,209.063878 420.85816,209.080645 C420.869338,209.103 420.874927,209.103 420.874927,209.103 C420.874927,209.103 420.869338,209.103 420.861886,209.076919 C420.854434,209.060152 420.846982,209.028481 420.846982,208.994948 C420.848845,208.961414 420.85816,208.914839 420.891694,208.879443 C420.92709,208.844046 420.984843,208.827279 421.044458,208.823553 C421.102211,208.819827 421.1581,208.855224 421.189771,208.914839 C421.221441,208.972592 421.230756,209.048974 421.215853,209.119767 C421.200949,209.194287 421.154374,209.261354 421.087307,209.296751 C421.02024,209.335873 420.941994,209.345188 420.85816,209.335873 C420.781778,209.332147 420.707259,209.293025 420.653232,209.235272 L420.651369,209.231546 L420.625288,208.961414 C420.589891,208.607448 420.534001,208.25907 420.498605,207.905104 L420.381237,206.84693 C420.334663,206.498553 420.319759,206.140861 420.29554,205.792483 L420.252691,205.259671 C420.237788,205.090139 420.245239,204.905704 420.237788,204.736173 C420.235925,204.376618 420.224747,204.018925 420.224747,203.674274 C420.228473,203.568084 420.234062,203.461894 420.235925,203.355704 C420.269458,203.433949 420.302992,203.517783 420.355155,203.596029 C420.412908,203.674274 420.478112,203.761834 420.574987,203.817723 C420.621562,203.851257 420.675588,203.869887 420.73334,203.877339 C420.792956,203.892243 420.85816,203.877339 420.915913,203.840079 C421.025828,203.745067 421.00161,203.62211 421.005336,203.517783 C421.00161,203.411593 420.977391,203.307267 420.932679,203.21598 C420.891694,203.119105 420.830215,203.042723 420.772463,202.975656 C420.709122,202.904863 420.643917,202.852699 420.582439,202.806125 C420.468797,202.724153 420.368196,202.675716 420.288088,202.638456 C420.289951,202.629141 420.289951,202.62169 420.291814,202.616101 C420.351429,201.917483 420.491153,201.207687 420.552631,200.505343 C420.606658,199.927819 420.669999,199.350295 420.709122,198.767182 C420.738929,198.830523 420.766874,198.895728 420.805997,198.962795 C420.869338,199.04104 420.932679,199.121148 421.025828,199.177038 C421.072403,199.208708 421.122703,199.232927 421.184182,199.244105 C421.240071,199.251557 421.310865,199.244105 421.363028,199.203119 C421.474807,199.10997 421.456177,198.987014 421.459903,198.880824 C421.452451,198.770908 421.426369,198.67217 421.387247,198.580884 C421.344398,198.485872 421.286646,198.411352 421.225167,198.340559 C421.163689,198.271629 421.096622,198.217602 421.035143,198.171028 C420.932679,198.094646 420.843256,198.046208 420.766874,198.0164 L420.880516,196.268924 L420.91405,195.76033 C420.973665,195.687674 421.037006,195.613155 421.094759,195.538636 C421.204675,195.631785 421.353713,195.696989 421.571682,195.739838 C421.657379,195.751016 421.741213,195.752879 421.823184,195.751016 C421.86417,195.946629 421.931237,196.142242 422.044879,196.326677 C422.128713,196.4664 422.322463,196.4664 422.417475,196.352758 C422.534843,196.213035 422.637307,196.063996 422.734182,195.909369 C422.931658,196.276376 423.412307,196.382566 423.829615,196.244706 C423.971201,196.198131 424.097884,196.131064 424.218978,196.052818 C424.386646,196.304321 424.666093,196.375114 424.925048,196.255883 C425.090853,196.177638 425.236166,196.045367 425.364711,195.894465 C425.45786,195.909369 425.558461,195.909369 425.673966,195.887013 C425.748485,195.872109 425.811827,195.842302 425.878894,195.81622 C425.973906,195.898191 426.100589,195.927999 426.255216,195.879561 C426.480637,195.819946 426.648305,195.642963 426.78244,195.42872 C426.808522,195.467842 426.840192,195.506965 426.871863,195.546088 C426.761947,195.993203 426.616635,196.431004 426.557019,196.896749 C426.396803,198.157987 426.409844,199.547771 426.510445,200.814598 C426.534663,201.149935 426.575649,201.481545 426.616635,201.813156 C426.625949,201.943564 426.635264,202.075836 426.648305,202.195067 C426.668798,202.480103 426.709784,202.720428 426.730276,202.886233 C426.754495,203.05949 426.773125,203.156365 426.773125,203.156365 C426.855096,203.931365 426.853233,204.657928 426.795481,205.438517 C426.693017,206.735152 426.780577,208.059731 426.795481,209.363818 C426.707921,209.730825 426.668798,210.107147 426.724687,210.49651 C426.85137,211.409371 427.367416,212.355765 427.233281,213.294708 L426.348365,215.846992 C426.081959,216.631307 425.938509,217.428663 425.912428,218.272593 L425.849086,218.272593 C425.632981,218.272593 425.694459,218.656367 425.884483,218.656367 L429.645842,218.656367 C430.832561,218.656367 432.041635,218.755105 433.23208,218.689901 C433.334544,218.686175 433.394159,218.581848 433.358763,218.457028 C433.178054,217.773314 432.758883,217.220009 432.367657,216.644348 C432.209304,216.309011 432.054676,215.973674 431.916816,215.632749 C431.791996,215.321631 431.655998,215.010513 431.568438,214.682629 C431.473426,213.361775 431.413811,212.089359 430.767356,210.962256 C430.445061,210.403361 430.124628,209.941342 429.940193,209.309791 C429.878714,208.728541 429.886166,208.141702 429.85077,207.556726 C429.824688,207.154322 429.798606,206.753781 429.772524,206.351378 L429.774387,206.351378 C429.768798,206.243325 429.763209,206.137135 429.753895,206.02163 C429.770661,205.635993 429.791154,205.248493 429.809784,204.860993 C429.839592,204.235031 429.698005,203.65937 429.684964,203.042723 C429.684964,203.031545 429.683101,203.024093 429.679375,203.012916 L429.679375,202.942122 C429.711046,202.929081 429.740854,202.901137 429.74458,202.852699 C429.746443,202.819166 429.729676,202.798673 429.709183,202.780043 C429.709183,202.77818 429.703594,202.770728 429.701731,202.767002 L429.703594,202.767002 C429.703594,202.746509 429.68869,202.742783 429.675649,202.731605 L429.675649,202.720428 C429.675649,202.638456 429.671923,202.554622 429.668197,202.468925 C429.673786,202.463336 429.681238,202.454021 429.684964,202.446569 C429.694279,202.413036 429.68869,202.379502 429.668197,202.357146 C429.668197,202.35342 429.664471,202.349694 429.664471,202.349694 C429.664471,202.312435 429.664471,202.277038 429.662608,202.239778 C429.698005,202.217423 429.722224,202.165259 429.711046,202.128 C429.718498,202.100055 429.709183,202.07211 429.684964,202.057206 C429.679375,202.057206 429.684964,202.057206 429.684964,202.064658 C429.684964,202.057206 429.684964,202.057206 429.683101,202.05348 C429.675649,202.049754 429.675649,202.049754 429.673786,202.044165 L429.673786,202.046028 C429.666334,202.036714 429.660745,202.036714 429.655157,202.029262 C429.60113,200.624574 429.500529,199.199393 429.694279,197.805884 C429.774387,197.219045 429.869399,196.635932 429.945782,196.052818 C429.981178,196.004381 430.005397,195.944766 430.016575,195.875835 C430.020301,195.85348 430.022164,195.831124 430.02589,195.810631 C430.100409,195.901917 430.165613,195.996929 430.245722,196.090078 C430.456238,196.308047 430.793438,196.157145 430.867957,195.929862 C430.905217,195.901917 430.93875,195.872109 430.970421,195.842302 C431.20702,196.071448 431.499508,196.177638 431.87583,196.036052 C432.658282,195.74729 432.857621,195.044946 432.768198,194.271809 C433.148246,194.549393 433.580458,194.68539 434.027573,194.525174 C434.472825,194.374273 434.623727,194.083648 434.603234,193.742722 C434.679616,193.763215 434.757862,193.787434 434.832381,193.794885 C434.972104,193.834008 435.108102,193.874994 435.2441,193.901075 C435.408042,193.927157 435.560806,193.82283 435.629737,193.694285 C435.778775,193.806063 435.940855,193.901075 436.102934,193.996087 C436.071263,194.504681 436.047044,195.013275 436.004196,195.527458 L436.00047,195.583347 C435.98184,195.635511 435.966936,195.683948 435.942717,195.732386 C435.905458,195.81622 435.853294,195.894465 435.786227,195.965258 C435.721023,196.0286 435.629737,196.075174 435.538451,196.0789 C435.439713,196.093804 435.348427,196.0789 435.268318,196.039778 C435.190073,195.996929 435.136047,195.913095 435.11928,195.823672 C435.098787,195.743564 435.111828,195.650415 435.147225,195.579621 C435.180758,195.506965 435.251552,195.467842 435.322345,195.475294 C435.396864,195.475294 435.458342,195.499513 435.499328,195.538636 C435.538451,195.579621 435.551491,195.635511 435.555217,195.676496 C435.555217,195.721208 435.547766,195.756604 435.536588,195.77896 C435.529136,195.799453 435.517958,195.806905 435.517958,195.806905 C435.517958,195.806905 435.529136,195.799453 435.540314,195.77896 C435.551491,195.756604 435.566395,195.721208 435.566395,195.676496 C435.571984,195.635511 435.564532,195.574032 435.517958,195.527458 C435.476972,195.467842 435.402453,195.439898 435.322345,195.436172 C435.285085,195.432446 435.240374,195.436172 435.199388,195.460391 C435.160265,195.480883 435.126732,195.51628 435.102513,195.557266 C435.054076,195.635511 435.042898,195.743564 435.061527,195.838576 C435.080157,195.94104 435.139773,196.039778 435.236648,196.093804 C435.327934,196.149693 435.443439,196.157145 435.54404,196.145968 C435.655818,196.13479 435.752693,196.0789 435.82535,196.004381 C435.896143,195.929862 435.942717,195.85348 435.98184,195.771508 L435.830939,197.332686 C435.816035,197.520848 435.78809,197.709009 435.763871,197.899033 L435.758282,197.899033 C435.672585,197.917662 435.540314,197.953059 435.396864,198.027578 C435.324208,198.061112 435.251552,198.111412 435.178895,198.163576 C435.104376,198.221328 435.029857,198.290259 434.97583,198.383408 C434.914352,198.467242 434.877092,198.567843 434.851011,198.675896 C434.836107,198.782086 434.796984,198.901316 434.895722,199.02241 C435.000049,199.1286 435.147225,199.100655 435.247826,199.055944 C435.355878,199.011232 435.435987,198.936713 435.508643,198.869646 C435.573847,198.793264 435.622285,198.715018 435.670722,198.636773 C435.648366,198.804441 435.622285,198.970247 435.599929,199.134189 L435.516095,200.039598 L435.482561,200.945007 C435.473246,201.36604 435.482561,201.774033 435.497465,202.176437 C435.471383,202.297531 435.435987,202.431665 435.368919,202.5658 C435.329797,202.645908 435.283222,202.731605 435.212429,202.798673 C435.147225,202.862014 435.059664,202.904863 434.968378,202.916041 C434.871503,202.927218 434.770902,202.916041 434.696383,202.869466 C434.618138,202.826617 434.564112,202.750235 434.543619,202.660812 C434.526852,202.578841 434.53803,202.487555 434.575289,202.416762 C434.608823,202.342242 434.677753,202.301257 434.75041,202.308709 C434.821203,202.312435 434.886407,202.336653 434.92553,202.375776 C434.968378,202.416762 434.979556,202.468925 434.983282,202.509911 C434.983282,202.554622 434.97583,202.586293 434.964652,202.616101 C434.959064,202.629141 434.946023,202.638456 434.946023,202.638456 C434.946023,202.638456 434.959064,202.63473 434.972104,202.616101 C434.979556,202.590019 434.99446,202.554622 434.99446,202.509911 C434.998186,202.463336 434.988871,202.405584 434.946023,202.357146 C434.905037,202.304983 434.826792,202.277038 434.75041,202.269586 C434.711287,202.269586 434.666575,202.269586 434.627453,202.290079 C434.58833,202.312435 434.552934,202.345968 434.530578,202.392543 C434.48214,202.472651 434.470962,202.573252 434.489592,202.675716 C434.508222,202.77818 434.567837,202.869466 434.66285,202.927218 C434.754136,202.986834 434.873366,202.988697 434.972104,202.975656 C435.080157,202.968204 435.180758,202.916041 435.251552,202.841521 C435.327934,202.75955 435.378234,202.675716 435.417357,202.586293 C435.456479,202.502459 435.480698,202.416762 435.503054,202.332927 C435.50678,202.398132 435.508643,202.465199 435.510506,202.534129 L435.516095,202.716702 L435.540314,203.07812 L435.592477,203.78419 C435.611107,204.018925 435.624148,204.251798 435.648366,204.488397 L435.722886,205.19074 C435.741516,205.339779 435.758282,205.488817 435.773186,205.63413 C435.706119,205.656486 435.6316,205.682567 435.549628,205.725416 C435.476972,205.75895 435.402453,205.805524 435.327934,205.863277 C435.255277,205.91544 435.180758,205.988096 435.126732,206.084971 C435.067116,206.165079 435.027994,206.269406 435.000049,206.377459 C434.988871,206.479923 434.94416,206.60288 435.046624,206.723974 C435.149088,206.832027 435.299989,206.798493 435.40059,206.753781 C435.504917,206.716522 435.585025,206.638277 435.657681,206.56562 C435.728475,206.491101 435.780638,206.405404 435.827213,206.325296 C435.834665,206.306666 435.840254,206.295488 435.847705,206.280584 C435.860746,206.388637 435.870061,206.498553 435.884965,206.606606 L435.978114,207.312676 L436.091756,208.011294 C436.129016,208.251618 436.171864,208.480765 436.201672,208.709912 L436.294821,209.415981 L436.38797,210.122051 C436.415915,210.354924 436.464352,210.587796 436.469941,210.816943 C436.477393,211.060994 436.510927,211.29014 436.497886,211.526739 L436.482982,211.878842 C436.482982,211.999936 436.458763,212.115441 436.441996,212.229083 L436.441996,212.225357 L436.391696,212.396751 L436.38797,212.404203 L436.38797,212.407929 L436.415915,212.415381 L436.417778,212.415381 L436.447585,212.426559 L436.447585,212.422833 L436.449448,212.426559 L436.455037,212.404203 L436.516516,212.249575 L436.518379,212.245849 C436.540734,212.1527 436.568679,212.039059 436.591035,211.936595 L436.626432,211.623614 C436.658102,211.401919 436.65065,211.198854 436.658102,210.984611 L436.663691,210.831847 C436.684184,210.872832 436.700951,210.92127 436.728895,210.962256 C436.799689,211.060994 436.877934,211.163458 436.989713,211.230525 C437.045602,211.265921 437.108944,211.297592 437.176011,211.305044 C437.244941,211.314359 437.326912,211.305044 437.390254,211.254744 C437.528114,211.142965 437.50017,210.993926 437.505759,210.869107 C437.494581,210.748013 437.466636,210.623193 437.41261,210.51514 C437.369761,210.399635 437.297105,210.308349 437.222585,210.224515" id="5"></path>
        </g>
    </g>
</svg>
