<?xml version="1.0" encoding="UTF-8"?>
<svg width="61px" height="61px" viewBox="0 0 61 61" version="1.1" xmlns="http://www.w3.org/2000/svg" xmlns:xlink="http://www.w3.org/1999/xlink">
    <title>tree-svgrepo-com2</title>
    <g id="页面-1" stroke="none" stroke-width="1" fill="none" fill-rule="evenodd">
        <g id="形状库素材-植物" transform="translate(-398.000000, -68.000000)" fill="#545458" fill-rule="nonzero">
            <g id="tree-svgrepo-com2" transform="translate(398.529910, 68.638147)">
                <path d="M9.52550066,21.2964473 C9.3028159,20.2946789 7.76844071,20.7195957 7.99070806,21.7196944 C8.73838205,25.0813577 11.2084715,27.3898076 14.1734971,28.7828917 C14.432809,30.3248845 14.9189797,31.8147019 15.8969561,33.0719212 C17.5991275,35.2599502 19.9364826,36.8815627 22.1984964,38.4419213 C24.3179669,39.9039813 26.4586207,41.336197 28.5992744,42.7675779 C28.7351392,43.3368119 28.8569167,43.9089677 28.959911,44.4828975 C29.4384641,47.1493753 29.2813117,56.3136774 29.1834306,59.0057211 C29.1809262,59.0815842 29.1893786,59.1492036 29.2034659,59.2139011 C29.0194954,59.68348 29.2536587,60.3340033 29.9106518,60.3340033 L32.6694801,60.3340033 C32.744404,60.3340033 32.8125451,60.3233595 32.8764079,60.3076026 C33.276176,60.3097939 33.6776138,60.0538212 33.6776138,59.538328 L33.6776138,41.2977959 C34.8608483,39.7519421 36.1823478,38.33924 37.643573,37.0390282 C39.337605,35.5314712 41.3799602,34.3631588 42.7559308,32.52314 C43.5083006,31.5170932 44.0676212,30.4037738 44.4347276,29.2380702 C44.4670764,29.2282612 44.5031818,29.2188697 44.5348001,29.2087476 C45.8362641,28.7948921 48.5696308,28.1409252 48.8918663,26.5115907 C49.3274268,24.3108309 48.6857733,21.713329 48.2980055,19.5321871 C48.1187307,18.5228012 46.5847729,18.9518919 46.7632129,19.9554342 C46.9957067,21.2642029 47.1779033,22.5754759 47.3086549,23.8983319 C47.3614565,24.4313561 47.3976662,24.96605 47.4218756,25.5008482 C47.475512,26.6801174 45.9045096,27.0139358 45.1240694,27.3166577 C45.0316146,27.35245 44.9380118,27.3852162 44.8451396,27.4192346 C45.0933903,25.5923639 44.8805145,23.7041349 44.1776071,21.9355964 C43.8034048,20.9938298 42.2633947,21.4038243 42.6428145,22.3588435 C43.3950799,24.2512465 43.5186313,26.1748504 43.1013322,27.9728159 C42.3064916,28.1899701 41.5026769,28.3725841 40.6958359,28.5463283 C40.9125727,28.2870164 41.1305617,28.0298959 41.3498028,27.7787233 C42.0216137,27.0093443 40.9006767,25.8790157 40.2245874,26.6534035 C39.5454719,27.4308175 38.885244,28.2444412 38.2431731,29.0822744 C36.6670576,29.454807 34.9998437,30.157297 33.6765703,31.1893271 L33.6765703,26.7312493 C33.6765703,26.4932249 33.5888112,26.3128023 33.4569117,26.1850768 C33.6736485,26.0322028 33.8949767,25.8862159 34.1078525,25.7405421 C35.3834375,24.8690037 36.6049688,23.9379852 37.6995051,22.8454316 C39.635005,20.91421 40.6797659,18.315456 40.2892849,15.5970115 C40.1436111,14.5840776 38.6105925,15.0166119 38.7544924,16.0201542 C39.3280047,20.0124098 35.7435524,22.6993404 32.8480244,24.6782503 C31.5353948,25.5752503 30.8457399,26.5724273 30.5485487,27.735522 C30.2082605,27.4012862 29.8123533,27.0854161 29.3538355,26.7806072 C26.7375505,25.0418087 25.1303384,22.1390805 24.6364458,19.087235 C24.4730323,18.0760751 22.9393876,18.5065224 23.1016532,19.5103778 C23.4839948,21.8716293 24.4751193,23.9496725 25.9601366,25.8141095 C26.6898622,26.7303101 27.6006366,27.4796537 28.5504382,28.1549082 C29.157969,28.5870251 29.5982253,29.0026547 29.9115909,29.4602332 L29.9043907,30.7609668 C29.7285595,30.6353284 29.5518935,30.5102117 29.3726187,30.3901038 C28.5688039,29.8523838 27.6270373,29.5722017 26.6934101,29.3695523 C25.4919142,29.1085708 24.2449213,29.0332295 22.9983458,28.9706189 C21.4690838,27.3531805 19.8383928,25.8183879 18.3253052,24.2511422 C17.6113365,23.5116075 16.4869559,24.6380752 17.2000897,25.3763576 C18.3138266,26.5301652 19.4829737,27.6609112 20.6243635,28.8189971 C20.5009164,28.8075185 20.3765302,28.798127 20.2535005,28.7845613 C18.7224646,28.6142607 17.1267311,28.2646853 15.6422356,27.6878337 C15.5519721,26.9810653 15.5000054,26.2568702 15.4596216,25.5228662 C15.3050779,22.7056014 15.4574302,19.8777972 15.8065882,17.0810895 C15.9334789,16.064399 14.3402498,16.0767124 14.2151331,17.0810895 C13.8395743,20.0890034 13.734806,23.099526 13.90135,26.1266403 C13.915333,26.3829261 13.9324466,26.6405684 13.9519602,26.8989411 C11.8066107,25.702141 10.1040219,23.8983319 9.52550066,21.2964473 Z M39.1816005,30.4539666 C40.3210076,30.1674191 41.4701194,29.9426473 42.5071583,29.7187103 C41.9400114,30.9648684 41.0978998,32.1161716 39.99992,33.1051048 C38.4808844,34.4734577 36.7872698,35.6116127 35.3072614,37.0327671 C35.0403318,37.2890529 34.7852983,37.5572346 34.5307865,37.8255207 C35.8420596,35.2909424 37.4382105,32.7640861 39.1816005,30.4539666 Z M33.6774051,33.2290736 C34.3918955,32.3546133 35.4562744,31.7227688 36.6730056,31.2386851 C35.5925566,32.8046786 34.5859882,34.4348479 33.6774051,36.0884961 L33.6774051,33.2290736 Z M32.219738,28.2077097 C32.3666791,28.0285393 32.6401011,27.8637693 32.9990838,27.7087039 L32.9990838,30.7009651 C32.8372626,30.5332732 32.632041,30.3705902 32.3995393,30.2117682 C31.9010556,29.5463227 31.6685539,28.8846338 32.219738,28.2077097 Z M28.5709953,31.7644048 C29.0367132,32.0372823 29.4642388,32.3395868 29.8959383,32.6304127 L29.8478326,41.2582469 C29.3768971,39.5607713 28.7728099,37.8982533 28.099225,36.2714232 C27.2481393,34.2164415 25.994781,32.4027191 24.564235,30.7120263 C25.980798,30.8107422 27.3205588,31.0313399 28.5709953,31.7644048 Z M16.6312731,29.7097362 C18.4602308,30.2401516 20.3816434,30.4415488 22.2915774,30.5714656 C24.1130218,32.5678021 25.7415215,34.7080385 26.7846128,37.226338 C27.2252865,38.2906125 27.6220285,39.3802443 27.9681603,40.4858418 C24.5165466,38.2667162 20.9956439,36.0095025 18.0950028,33.1876463 C16.9816834,32.1044843 16.3596478,30.8561348 15.9948372,29.5094868 C16.2063564,29.5799237 16.41798,29.6476474 16.6312731,29.7097362 Z" id="形状"></path>
                <path d="M53.950066,18.0505091 C54.3086156,17.2931305 54.5533184,16.3696253 54.6947138,15.2482709 C55.108152,11.9759319 54.4060793,9.3575599 52.5493643,7.24330693 C50.9843099,5.46109842 48.3045796,4.3545618 45.5555603,4.3545618 C43.6789143,4.3545618 41.9779951,4.87777706 40.692288,5.83957903 C39.0921718,1.57653294 34.5813967,0.020870174 31.0808424,0 L31.0340932,0 C28.7337827,0 26.3167035,0.992794176 24.7270223,2.59155385 C23.6298773,3.69422949 22.9750756,5.01364189 22.806862,6.44460537 C21.1626053,5.42833225 19.0035858,4.85607208 16.7582681,4.85607208 C15.975741,4.85607208 15.2247278,4.92723937 14.5264117,5.06727824 C13.0388901,5.36572173 11.7739488,6.25510419 10.8692268,7.63921413 C9.81246555,9.25665261 9.38160081,11.3522268 9.68140086,13.3387543 C6.22644791,13.390721 1.82075418,15.0664916 0.527742553,19.6552168 C-0.054744003,21.7256424 -0.448877238,24.6131353 0.984590661,26.6119762 C2.07797908,28.1374816 3.64856402,28.9744799 5.77262597,29.1600158 C5.06930111,31.5817908 5.22895794,35.1039457 6.76802892,37.0883862 C8.84826351,39.7692644 12.002686,41.2462466 15.6500619,41.2462466 C15.8825556,41.2462466 16.1150494,41.2402986 16.3482736,41.22882 C17.1312182,41.1896884 17.5365169,40.4884506 17.52076,39.8481536 C17.502916,39.1384634 17.0192497,38.6228657 16.3712308,38.6228657 L16.3061158,38.6246397 C15.9432879,38.6429011 15.5168058,38.6615799 15.1020111,38.6615799 C14.1594097,38.6615799 13.4262405,38.5671423 12.7255244,38.356771 C11.8259156,38.0855631 10.8909318,37.3855774 10.0667686,36.7682377 L9.70227103,36.496195 C7.76259706,35.0661707 7.19033689,30.9529724 8.62724837,28.7761089 C8.82948035,28.4704652 8.8950127,28.1234986 8.81205376,27.79855 C8.73671243,27.5048023 8.54554164,27.2446556 8.27944692,27.0700766 C8.07001472,26.7580675 7.73828331,26.5817145 7.35124593,26.5817145 L7.28999197,26.5829667 C7.07628139,26.5927757 6.86340562,26.5991411 6.65136465,26.5991411 C5.18930461,26.5991411 4.17094447,26.2781578 3.34886832,25.5585542 C1.9553668,24.3392143 2.4944434,22.0239815 2.88784618,20.3337061 C3.59920606,17.2785214 6.88438014,15.9105858 9.82498765,15.9105858 C10.2519914,15.9105858 10.6675166,15.9408476 11.0592497,16.0004319 C11.6460147,16.0911128 12.1610906,15.7704426 12.4118457,15.2144612 C12.6208605,14.7512477 12.5885117,14.2450416 12.3338956,13.894214 C11.806402,12.2942021 11.9703372,10.6542238 12.7873001,9.38375197 C13.49866,8.27805015 14.6248146,7.59778683 15.9587318,7.46703519 C18.2377548,7.24737661 21.5820958,8.02646021 23.0722262,10.0700676 C23.2957458,10.3766505 23.6005547,10.5451772 23.9309295,10.5451772 C24.3089927,10.5451772 24.6747425,10.3237446 24.9110973,9.96018618 C25.3210918,9.70515265 25.6174483,9.19080721 25.4228339,8.53183147 C25.0034478,7.11067697 25.1729136,5.87902366 25.9273704,4.86953334 C26.9479219,3.50368481 29.0417221,2.65520788 31.391495,2.65520788 C34.8212994,2.65520788 38.6058967,4.5285147 38.8114679,8.64254774 C38.8527909,9.46211947 39.476496,9.8913146 40.0725482,9.8913146 C40.6004592,9.8913146 41.1509101,9.53965217 41.2390866,8.86606731 C42.2971,7.21461044 44.2543049,6.96510751 45.33778,6.96510751 C47.2025301,6.96510751 49.2691991,7.67907616 50.480817,8.74136802 C51.7547324,9.85896583 52.3954468,11.4993615 52.3852204,13.6170581 C52.3801072,14.7171249 52.2218069,17.3329925 50.867437,17.8626776 C50.2968464,18.0857797 49.9750283,18.6763013 50.0669615,19.3319378 C50.1457464,19.894389 50.5016872,20.3141925 50.9687617,20.4095692 C51.1603499,20.5117287 51.3749996,20.5534691 51.621059,20.5240421 C53.3891801,20.3082445 55.0641159,21.0277438 56.2208453,22.4863602 C57.4334024,24.0165614 57.8732413,26.1393711 57.3980275,28.1646128 C56.9637191,30.014545 54.1772379,31.1043855 52.8373727,31.62854 C51.409331,32.1872345 49.7961709,32.4710689 48.0430763,32.4710689 C47.7710336,32.4710689 47.4988865,32.4642861 47.2268438,32.4514509 L47.1655899,32.4501987 C46.5146491,32.4501987 46.0296263,32.967466 46.0130345,33.6801824 C45.9981123,34.3196445 46.4043503,35.0195258 47.1868774,35.0557356 C47.4469198,35.0676316 47.7066491,35.0741013 47.9642914,35.0741013 C50.494487,35.0741013 52.904679,34.5066413 55.3335499,33.3399986 C56.9212483,32.5770894 59.6307187,30.8604132 59.9402234,27.9368149 C60.4368291,23.2451998 57.7865258,18.9561703 53.950066,18.0505091 Z" id="路径"></path>
            </g>
        </g>
    </g>
</svg>
