<?xml version="1.0" encoding="UTF-8"?>
<svg width="61px" height="59px" viewBox="0 0 61 59" version="1.1" xmlns="http://www.w3.org/2000/svg" xmlns:xlink="http://www.w3.org/1999/xlink">
    <title>flower-of-fruit-tree-svgrepo-com</title>
    <g id="页面-1" stroke="none" stroke-width="1" fill="none" fill-rule="evenodd">
        <g id="形状库素材-植物" transform="translate(-484.000000, -399.000000)" fill="#545458" fill-rule="nonzero">
            <g id="flower-of-fruit-tree-svgrepo-com" transform="translate(484.660798, 399.240556)">
                <path d="M3.12609885,26.5875351 L3.17241143,26.7448692 L3.19569636,26.8233433 L3.20148543,26.8430261 L3.22103963,26.9034897 L3.23377559,26.9384815 L3.33566326,27.2193158 L3.43755092,27.5001501 L3.4886234,27.6405029 L3.51409532,27.7107437 L3.54844381,27.7896037 C3.90569387,28.6552629 4.3178758,29.4056553 4.80917504,30.1379086 C5.31398211,30.8530519 5.87114812,31.5296015 6.49636789,32.1339806 C7.65212395,33.2466402 8.99042873,34.1364849 10.413254,34.803386 C10.4355097,34.7690375 10.4567363,34.7337885 10.479378,34.6998259 C10.6445596,34.4480656 10.8285234,34.1986209 11.0258664,33.9541934 C11.1328999,33.8214307 11.2427637,33.6899545 11.3580305,33.5614371 C11.4761276,33.4262301 11.6051596,33.2907658 11.7442259,33.1525999 C11.7536171,33.1434661 11.7622364,33.1340749 11.7716275,33.124941 C11.866697,33.031544 11.9666549,32.9367319 12.0740744,32.8393468 C12.1611678,32.7604868 12.2519919,32.6802117 12.348605,32.5974923 C12.3640426,32.5843704 12.3803806,32.5716344 12.3959468,32.5585125 C12.280294,32.5164453 12.1650271,32.4738634 12.0493744,32.4320534 C11.8898533,32.3713325 11.7349634,32.2998053 11.5776293,32.2344531 L11.3424643,32.1343665 L11.1130884,32.0224444 C9.8824604,31.4404497 8.75101845,30.6591823 7.80083877,29.7020558 C7.32549164,29.2229779 6.90932169,28.6920557 6.53264608,28.1364334 C6.36000309,27.8486522 6.17488143,27.5682038 6.03002599,27.2651138 C5.86368665,26.9697425 5.74456042,26.666781 5.61141176,26.3669071 C5.54747468,26.2129178 5.49382928,26.0393743 5.43452345,25.8765084 L5.36261031,25.6714466 L5.34755873,25.6283502 L5.34009726,25.6073809 C5.3402259,25.6075095 5.33675246,25.5961886 5.33739569,25.5973465 L5.33315037,25.5821662 L5.31604045,25.5214453 L5.28207789,25.4001321 C5.1859793,25.078131 5.11329428,24.7493117 5.0493572,24.4193346 C4.92469918,23.7584799 4.86230585,23.0846319 4.86423554,22.4106553 C4.86513606,21.0624448 5.10557552,19.7155207 5.55532209,18.4450124 C6.00545459,17.1745041 6.69216717,15.9882589 7.5757082,14.9795453 C7.92742648,14.5789415 8.31285002,14.2090841 8.72516059,13.8728034 C9.3493512,13.3636223 10.0361924,12.9333013 10.7716618,12.6051253 L11.2362027,12.4169161 C11.3921217,12.3565811 11.5529293,12.3098826 11.7110353,12.2553367 C11.8700418,12.19706 12.0276332,12.1682433 12.1858678,12.1224453 C12.3383134,12.0769046 12.5136579,12.0453863 12.6860436,12.0123243 C13.3413666,11.8816199 14.0135421,11.8342782 14.6844313,11.8585923 C15.9252223,11.9112085 17.1594525,12.2106965 18.2980986,12.72914 C18.3069752,12.6195336 18.3162377,12.5100558 18.3278158,12.400964 C18.3296169,12.3838541 18.3320612,12.3682879 18.3339909,12.3513066 C18.3482706,12.226134 18.3634508,12.103663 18.3799175,11.9836362 C18.3857066,11.9406684 18.3920102,11.8980866 18.3981852,11.8557621 C18.4483572,11.5104761 18.5085635,11.1855162 18.5786756,10.8739355 C18.5957856,10.7981629 18.6118663,10.7212326 18.630134,10.6471325 C18.6900831,10.4038628 18.7583942,10.1623942 18.8312078,9.92285526 C18.5867803,9.8335749 18.3401659,9.7491831 18.0902066,9.67495433 C17.2586386,9.42846851 16.3972247,9.26611721 15.5226889,9.21157128 C14.6490536,9.15651078 13.7624251,9.19549053 12.8904622,9.34523452 L12.5956055,9.39412002 L12.5213767,9.40685598 L12.4372422,9.42641018 L12.2688445,9.46590451 L11.9321778,9.54630829 L11.7639088,9.58721773 L11.6055455,9.63546 C11.3953379,9.70222729 11.1821714,9.76101853 10.974408,9.83601918 L10.355106,10.072342 C9.53949005,10.4149264 8.7623393,10.8510365 8.04668136,11.3688368 C7.3317953,11.8880522 6.67672965,12.4843266 6.09074692,13.1379772 C4.91620854,14.4448923 4.02391959,15.9809261 3.43472071,17.6143449 C2.83896088,19.2468632 2.54513332,20.982041 2.5527039,22.7201777 C2.55619688,23.5891817 2.63750118,24.4605014 2.81040146,25.3161262 C2.89762348,25.744003 2.99719552,26.1695641 3.12609885,26.5875351 Z" id="路径"></path>
                <path d="M47.8824432,40.8173312 L47.8510536,40.9028808 L47.8470656,40.9112428 L47.8349729,40.9367147 L47.8110447,40.9879158 C47.746979,41.1211931 47.6836851,41.2693934 47.6191048,41.3903207 L47.4276795,41.7276306 L47.2015197,42.0721447 C46.8844072,42.5229204 46.5218827,42.947967 46.1183201,43.3411093 C45.7142428,43.7332224 45.2813489,44.1042376 44.8202815,44.4478512 C44.3581849,44.789921 43.8760195,45.1125653 43.3812468,45.4220877 C43.1339891,45.5772348 42.8809424,45.7256923 42.6267378,45.8731207 L42.4347979,45.9824698 L42.3388279,46.0371444 L42.3164435,46.0498804 L42.3091107,46.0537397 L42.2590674,46.0803695 L41.8600074,46.2934073 L41.4606901,46.5065738 C41.3283133,46.575914 41.2039126,46.6262146 41.0752665,46.6873215 C40.8187463,46.8029743 40.5696876,46.9289188 40.2986303,47.0264325 C40.0318185,47.1267764 39.7700238,47.2488615 39.4972941,47.3255345 C39.2262369,47.4073534 38.9583959,47.5103989 38.6827074,47.5654594 C38.4085627,47.6306829 38.1359617,47.7088997 37.8588581,47.7442774 L37.4444892,47.8137463 C37.3063234,47.8289265 37.1679002,47.8366453 37.0290912,47.8488666 C36.4741121,47.9058568 35.9232498,47.8727948 35.3767614,47.8132317 L34.9742279,47.7347576 L34.771739,47.6975789 C34.7051004,47.68227 34.6407774,47.6596283 34.5750392,47.6412319 L34.1808678,47.5257078 C34.0527363,47.4786233 33.9280783,47.422405 33.8004614,47.3717185 L33.609808,47.2940162 C33.547286,47.2654568 33.488752,47.2296932 33.4279025,47.1980463 L33.0640915,47.002633 L32.7213784,46.7704268 L32.6673471,46.73402 L32.5489927,46.6541308 C32.4947041,46.6110344 32.4427311,46.5649791 32.3892143,46.5204676 L32.0678565,46.2526265 L31.7710701,45.9542963 L31.622098,45.8045524 C31.5735984,45.7534799 31.5316598,45.6961037 31.4858618,45.6419438 L31.2157051,45.3129958 C30.9578984,44.9722125 30.7285225,44.6075009 30.5247472,44.2255508 C30.5069941,44.3167609 30.4885977,44.4061699 30.4696867,44.4954502 C30.4438288,44.617278 30.4169418,44.7374334 30.3887683,44.8556591 C30.3397542,45.0617501 30.2870093,45.262052 30.2305337,45.4583659 C30.2247446,45.4786919 30.2190842,45.4995326 30.2130378,45.5199873 C30.413983,46.0291683 30.6539078,46.5281863 30.9446479,47.0082934 L31.230628,47.4405441 C31.2796422,47.5121999 31.3245397,47.5865573 31.3774132,47.6557689 L31.5414369,47.8598015 C31.6514293,47.9956518 31.7605211,48.1330457 31.8738583,48.2674809 L32.2464172,48.6444138 C32.3094538,48.7066784 32.3710752,48.7706155 32.4359128,48.8313365 L32.6420038,49.0012779 C32.7801696,49.1138432 32.917435,49.22911 33.0590743,49.3385878 L33.5088208,49.6357602 C33.5844647,49.6842597 33.6585648,49.7366187 33.7371676,49.780487 L33.977607,49.9041158 C34.1384146,49.9850342 34.2984502,50.0708411 34.4627312,50.1463563 L34.9683102,50.3420269 C35.0532166,50.3731593 35.1370938,50.4089229 35.2230294,50.4360672 L35.4832803,50.508109 C35.6569525,50.5563513 35.832297,50.6009914 36.0076416,50.6460175 C36.7128792,50.7720907 37.4322679,50.8624002 38.1387919,50.8272798 C38.3154229,50.8203329 38.4935977,50.8176314 38.6697141,50.8060532 L39.1921457,50.7452036 C39.5443786,50.7132994 39.8828463,50.6402285 40.2236297,50.5696018 C40.5686584,50.5078517 40.8924605,50.3974734 41.2253964,50.3060061 C41.5612913,50.2196846 41.8741584,50.087951 42.1975746,49.975643 C42.5186751,49.8678376 42.8360449,49.7112754 43.1545725,49.5705366 C43.3098483,49.4984948 43.4806902,49.4265817 43.62323,49.3535108 L44.0436453,49.1344265 L44.4638033,48.9152137 L44.5162909,48.8876834 L44.5996535,48.8411136 L44.7056579,48.7793635 L44.9179238,48.6557346 C45.2003019,48.4886234 45.4825513,48.3190679 45.7619705,48.139864 C45.902452,48.0525133 46.0419043,47.9619465 46.1800702,47.8684208 C46.3190079,47.776053 46.4582029,47.6851002 46.5946964,47.5868146 C46.8683265,47.3938456 47.1366821,47.1885265 47.4032367,46.9805058 C47.934159,46.5594473 48.4487431,46.1009528 48.9213887,45.5889416 C49.393777,45.0778309 49.8390209,44.5245242 50.2083637,43.9094675 L50.4744037,43.440424 L50.7248776,42.9195362 C50.7477766,42.8736096 50.7620563,42.8364308 50.7756928,42.8005386 L50.8186605,42.6900316 L50.9043388,42.4688891 L50.961329,42.3200456 L51.0014666,42.1827803 L51.079812,41.908121 C51.2722665,41.1729089 51.3265551,40.4137686 51.2488529,39.6851174 C51.173209,38.9556943 50.9844853,38.2538015 50.6958036,37.6083843 C50.4105953,36.9612947 50.0438254,36.362576 49.6126039,35.8216194 C49.597295,35.8018079 49.5806997,35.7830256 49.5648762,35.7634714 C49.3437337,35.8488924 49.1180885,35.9272378 48.8897418,36.0006947 C48.7236597,36.0538255 48.5560339,36.104512 48.3864784,36.1512106 C48.3261434,36.1678059 48.2656798,36.1841439 48.2048302,36.1999674 C48.112591,36.2240242 48.0197086,36.2471805 47.9264402,36.269179 C47.769878,36.3063577 47.6119006,36.3408348 47.4525082,36.372739 C47.6391736,36.718411 47.7965077,37.077848 47.9165344,37.4468049 C48.2692819,38.5045326 48.2989991,39.6453657 47.9499824,40.6337533 L47.8824432,40.8173312 Z" id="路径"></path>
                <path d="M41.0159607,5.34279882 L41.0190482,5.34640091 L41.0217498,5.350003 L41.3114606,5.72564945 C41.4229968,5.86342936 41.5107334,5.99992281 41.5818746,6.11042976 C41.6014288,6.14117617 41.621369,6.17179393 41.6414377,6.20215439 L41.6449112,6.20742888 L41.6481273,6.21270337 L41.9049048,6.60996235 C41.9988165,6.74890008 42.0707296,6.88050498 42.1340234,6.99718694 C42.1524198,7.03076356 42.1704303,7.06421153 42.189084,7.0976595 L42.1920428,7.10319128 L42.1950017,7.10872306 L42.4203895,7.52103363 C42.5037522,7.66601772 42.5656309,7.80251117 42.6204341,7.92330981 C42.635743,7.95727236 42.6513092,7.99123492 42.6671327,8.02494018 L42.6697056,8.03034331 L42.6722785,8.03587509 L42.8673059,8.46413777 C42.9411487,8.61941355 42.9936363,8.76516951 43.0402062,8.8939442 C43.0517843,8.92584842 43.0631052,8.95762399 43.0749406,8.98914227 L43.0764844,8.9931303 L43.0780281,8.99724697 L43.2361341,9.43335706 C43.3009717,9.60059692 43.3454832,9.75793103 43.3848489,9.89712605 L43.4059469,9.9718694 L43.5316341,10.4153123 C43.5574919,10.4998328 43.5775607,10.5807511 43.5964717,10.6602544 C43.7683428,10.4634259 43.9402139,10.2667261 44.1133715,10.0683539 C44.2337842,9.92427036 44.3666755,9.79099306 44.4980231,9.65617201 L44.8918087,9.25145156 C45.0249573,9.11856019 45.1496153,8.97743548 45.2895822,8.85161965 L45.7016355,8.46851174 C45.8385149,8.34115215 45.9755229,8.21404986 46.1118878,8.08733351 C46.2483812,7.9607458 46.3937512,7.8453503 46.5332035,7.72455167 C46.8173827,7.48874347 47.0886972,7.24225765 47.3754492,7.02214427 C47.6598856,6.79958662 47.9408485,6.57985918 48.2171803,6.36360518 C48.7827083,5.94923627 49.3232789,5.54091373 49.8544584,5.1809621 C50.1180542,4.99854201 50.3743171,4.82101047 50.622604,4.64939665 C50.8733351,4.4818995 51.1155756,4.31993413 51.348039,4.16465836 C51.8116793,3.85191983 52.2422577,3.5746876 52.6224067,3.32575751 C53.0030704,3.07849982 53.3349771,2.8627604 53.60835,2.68510022 C54.1556103,2.33119495 54.4684774,2.12896337 54.4684774,2.12896337 C54.4684774,2.12896337 54.1652587,2.34521737 53.6343365,2.72343674 C53.3694543,2.91318965 53.0475819,3.14359471 52.6784964,3.40770504 C52.3104401,3.67323047 51.892855,3.96963096 51.4445235,4.30230963 C51.2196503,4.46761979 50.9855145,4.64000549 50.7430167,4.81818026 C50.5036064,5.00034306 50.2563487,5.18855222 50.0017582,5.38203587 C49.4894896,5.76437191 48.9710461,6.19404969 48.4290603,6.63003113 C48.1652072,6.85619088 47.8968516,7.08621 47.6255371,7.31918799 C47.3521643,7.54959305 47.095644,7.8048268 46.8262592,8.04964022 C46.6941397,8.17481282 46.5561025,8.29471093 46.4274565,8.42528667 C46.2990677,8.5558624 46.1704217,8.68682407 46.0415184,8.81804304 L45.6542938,9.21182857 C45.5229462,9.3409892 45.4067788,9.48520142 45.2823781,9.62105164 L44.9152223,10.0340054 C44.7928799,10.1713994 44.669251,10.307121 44.5579722,10.4533915 C44.3579276,10.70438 44.1591695,10.9538246 43.9614405,11.2022402 C44.8951535,10.9129152 45.8217909,10.7649723 46.7255294,10.7649723 C46.8252301,10.7649723 46.9260886,10.7667733 47.025532,10.7703754 L47.0553778,10.7715332 L47.0849664,10.7742348 L47.5502792,10.8169453 L47.7841577,10.8398443 L47.8999391,10.851551 L47.9408485,10.8556677 L47.9815007,10.8628719 L48.1199238,10.8875719 L48.1302155,10.8895016 L48.1405072,10.89156 C48.2058594,10.9046819 48.2696678,10.9160027 48.3334763,10.9273236 C48.5459995,10.9654028 48.786439,11.0084992 49.0882426,11.0999666 C49.1296666,11.1120593 49.1721198,11.1236374 49.214573,11.1353442 C49.335629,11.1685349 49.4731516,11.2063568 49.6147909,11.2580725 L49.6996973,11.2890762 C49.9034726,10.8555391 50.1328485,10.4303639 50.3687853,9.97971681 C50.5351247,9.70171271 50.7027505,9.42139298 50.8710195,9.14004408 C50.9541248,8.99390218 51.048937,8.85908112 51.1433632,8.72168715 L51.429086,8.30513126 C51.5273716,8.1672227 51.6180671,8.01979434 51.7248433,7.88703162 L52.0411839,7.48025283 C52.1482174,7.3432448 52.2549936,7.20636541 52.3615125,7.07012925 C52.4693179,6.93312121 52.5884442,6.80563298 52.70191,6.67261297 C52.9346307,6.41184744 53.1559019,6.13911783 53.4016158,5.88800075 C53.6473297,5.63315294 53.8903421,5.38139264 54.1289805,5.13362036 C54.6301855,4.65029717 55.1162103,4.17057608 55.6096965,3.73639568 C55.8548958,3.51666824 56.0936629,3.30285852 56.3243253,3.09612432 C56.561034,2.8920917 56.7898953,2.69487731 57.0092368,2.50563898 C57.4476625,2.1245894 57.8612595,1.78264822 58.2248132,1.47659928 C58.5906826,1.17170816 58.9094675,0.905796791 59.1720341,0.686841225 C59.6989683,0.24970197 60,0 60,0 C60,0 59.6098166,0.026758377 58.9263201,0.0734568907 C58.5843789,0.0977709929 58.1689809,0.127230937 57.6926046,0.161193492 C57.2154564,0.197085738 56.6769441,0.233492569 56.0865874,0.287266615 C55.7905728,0.313124469 55.4823369,0.340140138 55.1631661,0.367927684 C54.8420655,0.402147531 54.5101587,0.437525193 54.1687322,0.473932023 C53.4838206,0.541085258 52.755684,0.652492731 51.992813,0.762227806 C51.6091905,0.830796147 51.2188784,0.900522303 50.8241923,0.971020335 C50.4261615,1.04010326 50.0238853,1.14392062 49.6133758,1.2338442 C49.4085713,1.2827297 49.2002933,1.32453966 48.9940737,1.38152986 C48.7870822,1.43967787 48.5789329,1.49795453 48.3709123,1.55635983 C48.1608333,1.61643753 47.9502397,1.67664388 47.7397748,1.73685023 C47.5272515,1.79499824 47.3214179,1.87463014 47.1103097,1.94397036 L46.4776285,2.16292593 C46.2658771,2.23664011 46.052196,2.30971106 45.8472628,2.39731902 C45.4289059,2.57009065 45.01235,2.7423477 44.5990103,2.9133183 C43.7942006,3.2919236 42.9743394,3.6738737 42.2330809,4.09982075 C42.0435853,4.20479592 41.8558907,4.30912787 41.6699972,4.41230199 C41.5767288,4.46466093 41.4843609,4.51701987 41.3921217,4.56899287 C41.3038705,4.62315286 41.2160053,4.67705555 41.128526,4.7305723 C40.9928044,4.81496411 40.8591412,4.89781216 40.7257352,4.9809175 C40.8119281,5.07946037 40.8857709,5.17478709 40.9524095,5.26136588 C40.9740221,5.28889613 40.99512,5.3159118 41.0159607,5.34279882 Z" id="路径"></path>
                <path d="M1.11227369,57.5886586 C1.28890471,57.5537955 1.4841894,57.5153303 1.69696996,57.4733917 C1.90987916,57.4351838 2.14041287,57.3940171 2.38651275,57.3500202 C2.87845522,57.2652424 3.43317696,57.1775058 4.03897117,57.0919562 C5.25004503,56.9178981 6.66618067,56.762365 8.21314934,56.5859913 C9.76281958,56.4064014 11.4550296,56.2018542 13.2291872,55.8440896 C14.1145293,55.668745 15.0199401,55.446316 15.9221348,55.1798901 C16.3740684,55.051244 16.8230431,54.8972547 17.2709886,54.7466102 C17.715718,54.5827151 18.1607046,54.4225508 18.5938559,54.2380724 C19.0311238,54.063757 19.4535974,53.8652561 19.8731121,53.6729303 C20.285294,53.4697982 20.6964468,53.2709114 21.0845719,53.0565871 C21.3884339,52.8911483 21.6866354,52.7262241 21.9728728,52.5571832 C21.791096,52.5676035 21.6090618,52.574679 21.4271563,52.574679 L21.4270277,52.574679 C21.3015978,52.574679 21.1764252,52.5722348 21.0513812,52.5672176 C20.4885548,52.543418 19.9101622,52.4693179 19.2817263,52.3402859 C18.746816,52.231966 18.1973688,52.0773334 17.6031527,51.8673831 L17.4669165,51.8177257 C17.3772502,51.7851783 17.2874553,51.7527595 17.1961166,51.7171245 L16.7934545,51.5555451 L16.2118457,51.2950368 L16.0250517,51.2024117 C15.7232481,51.0563984 15.4298064,50.9018945 15.1439549,50.7413443 C14.9934391,50.8158303 14.8425372,50.8898018 14.6909922,50.9619722 C13.2478409,51.6540879 11.7721421,52.2552509 10.3920274,52.8173055 C9.01165533,53.3780736 7.72596678,53.9033354 6.639165,54.3894888 C6.09524953,54.6312147 5.60009091,54.8605906 5.16398082,55.0698977 C4.94644036,55.1756447 4.74292232,55.2749595 4.55458452,55.3665555 C4.36791911,55.4613676 4.19643393,55.548461 4.0415441,55.6271923 C3.73060661,55.7824681 3.49286872,55.9170319 3.32755856,56.0028388 C3.16314891,56.0905754 3.07554096,56.1372739 3.07554096,56.1372739 C3.07554096,56.1372739 3.16121922,56.086716 3.32151219,55.9922898 C3.48296298,55.899536 3.71516908,55.7549379 4.01954562,55.5864115 C4.17121931,55.5011192 4.33910239,55.4068217 4.52177978,55.3039048 C4.70638685,55.2042042 4.90591686,55.0963988 5.11908335,54.9812606 C5.54683145,54.7532998 6.03298485,54.5023113 6.5676378,54.2371718 C7.6357859,53.7040626 8.90179161,53.1232258 10.2570777,52.5045669 C11.6114632,51.8851362 13.0548718,51.2242815 14.4481085,50.4818652 C14.4928773,50.4581943 14.5368742,50.4336229 14.5812571,50.4098234 C14.0732339,50.0951552 13.594542,49.7583598 13.1513564,49.4000806 C12.7449635,49.0917161 12.3788369,48.7430853 12.0246743,48.4056467 L11.8498443,48.2369917 L11.1478229,47.4485201 C10.7280508,47.9595022 10.265697,48.4748583 9.75921749,48.9827529 C8.69698711,50.0596489 7.46996115,51.1166048 6.28513109,52.1186288 C5.09618436,53.121682 3.96062573,54.0723763 3.01687836,54.9173235 C2.54410415,55.3386393 2.11738523,55.7313956 1.74559816,56.0837572 C1.56099109,56.2607741 1.38821945,56.4263416 1.22856971,56.579559 C1.07187883,56.7352207 0.92792391,56.8781465 0.797991406,57.0073071 C0.538126399,57.2629268 0.342713059,57.4750641 0.206605546,57.6134873 C0.0717844921,57.7537114 0,57.8284548 0,57.8284548 C0,57.8284548 0.101373082,57.8060704 0.291511934,57.7638745 C0.482422662,57.7238656 0.756953319,57.656841 1.11227369,57.5886586 Z" id="路径"></path>
                <path d="M23.2980557,28.0005832 C23.1978405,27.9909347 23.0980111,27.981029 22.998825,27.9715092 C22.8000669,27.9516977 22.6036244,27.9320149 22.4105267,27.9125893 C22.3136562,27.9028122 22.2176863,27.893421 22.1224882,27.8837726 C22.0278047,27.8720658 21.9349223,27.8553418 21.8422971,27.8415767 C21.6571754,27.8126313 21.4761705,27.7843292 21.2997967,27.7567989 C21.1236803,27.727339 20.9500081,27.7070129 20.7857272,27.6718926 C20.6213175,27.6362576 20.4624396,27.6017805 20.3101227,27.5685898 C20.0864073,27.5175173 19.8740126,27.4766079 19.6798858,27.4314531 C19.8171511,26.7927255 19.4870453,26.1262103 18.8629834,25.8630005 C18.1569739,25.565185 17.3429017,25.8959339 17.0450861,26.6018148 C16.9358657,26.8606506 16.9119375,27.1338948 16.9592792,27.3909296 C17.0410981,27.8350157 17.336984,28.2309883 17.7841577,28.419712 C18.1421796,28.5707425 18.5276032,28.5596789 18.8597672,28.4203552 C18.929622,28.3910239 18.9969039,28.3559036 19.0612269,28.3155087 C19.0913301,28.2965977 19.1204041,28.276143 19.1490922,28.2549164 C19.3208347,28.1279428 19.4646609,27.959931 19.5650048,27.7575708 C19.7578453,27.8292267 19.9703685,27.8983096 20.1949845,27.9801285 C20.3455004,28.0331306 20.5025772,28.0883198 20.6649285,28.1454386 C20.8277944,28.2017856 21.0000515,28.2446247 21.1755247,28.2971123 C21.3517697,28.3477989 21.5327747,28.3996432 21.7177677,28.452774 C21.8105215,28.4785032 21.9037899,28.5077059 21.9992453,28.5317627 C22.0950866,28.5537612 22.1915711,28.5757597 22.2890848,28.5982727 C22.4846268,28.6429129 22.6832563,28.6881963 22.8843301,28.7342516 C22.936689,28.746087 22.9895625,28.7579225 23.042436,28.7696292 C23.0911929,28.7805642 23.1395638,28.7914991 23.1887066,28.8025626 C23.2878927,28.8200585 23.3874647,28.8374257 23.4875514,28.8550502 C23.4903816,28.8261049 23.4950128,28.79806 23.498229,28.7692433 C23.5282035,28.5118226 23.5738728,28.2607055 23.6343365,28.016664 C23.6236589,28.016278 23.6129812,28.0156348 23.6023036,28.0151202 C23.5001587,28.0102316 23.3989142,28.0054717 23.2980557,28.0005832 Z" id="路径"></path>
                <path d="M22.0056776,22.7824424 C21.7504438,22.558341 21.4892924,22.3428589 21.2325149,22.1275054 C21.1828575,22.0858241 21.1322996,22.0438855 21.0830282,22.0022041 C20.7862417,21.77836 20.4946012,21.5582466 20.2106793,21.344051 C20.1909965,21.329128 20.1705418,21.3138192 20.1508589,21.2990249 C19.8377345,21.0875308 19.5350303,20.8831122 19.2478923,20.6892426 C19.1063817,20.5899279 18.9617835,20.503735 18.8213021,20.4215302 C18.6815925,20.3384249 18.5465141,20.2580211 18.4168389,20.1810907 C18.1564593,20.0291598 17.9247678,19.8796731 17.7038825,19.7726396 C17.4869853,19.659817 17.2978756,19.5615314 17.1423426,19.4804844 C16.8315337,19.318905 16.6540022,19.2265371 16.6540022,19.2265371 C16.6540022,19.2265371 16.8233004,19.3335706 17.1195722,19.5207506 C17.2673865,19.6142763 17.4469764,19.7276134 17.6529387,19.8578032 C17.8623745,19.981818 18.0805582,20.1502157 18.3253716,20.3222155 C18.4469421,20.4090515 18.5737871,20.4996184 18.7048774,20.5934013 C18.8366109,20.6860265 18.9719466,20.7828969 19.1034228,20.893018 C19.3697202,21.1073423 19.6504258,21.333502 19.9409086,21.5675092 C20.1777459,21.7796465 20.4221734,21.9987307 20.6698171,22.2202592 C20.712013,22.2578238 20.7533083,22.2950025 20.7956329,22.3329531 C21.0713214,22.6096708 21.3565296,22.8843301 21.6305457,23.1690237 C21.7635657,23.3152943 21.8965857,23.4613076 22.0289625,23.6069349 C22.0968876,23.6809064 22.1645554,23.7548778 22.2306795,23.8297498 C22.2938447,23.9014057 22.3557235,23.9738334 22.4149006,24.0483195 C22.6625443,24.3471642 22.9078723,24.6389334 23.1236117,24.9380355 C23.3501574,25.2286469 23.5486582,25.5238896 23.7382825,25.801765 C23.8360535,25.9386444 23.9181297,26.0802837 24.0032933,26.2134324 C24.0753351,26.3314008 24.1484061,26.4426796 24.2132437,26.5543444 C24.2223776,26.5704251 24.2331838,26.5863772 24.2419317,26.6023294 C24.3878164,26.8555048 24.5212223,27.086939 24.6272266,27.2974039 C24.7400492,27.5050386 24.8223827,27.6945343 24.8963542,27.8453074 C24.9318605,27.9264831 24.9636361,28.0625906 24.9901371,28.0625906 C24.9894939,28.0625906 24.989108,28.0625906 24.9884647,28.0625906 C24.9897512,28.0625906 24.9907804,28.0618187 24.9919382,28.0632338 C25.0114924,28.1083886 25.0274445,28.1447954 25.0396659,28.176185 C25.0275731,28.1454386 25.0114924,28.1090318 24.9919382,28.063877 C24.9907804,28.0623333 24.9896226,28.0624619 24.9884647,28.0624619 C24.989108,28.0624619 24.9894939,28.0624619 24.9901371,28.0624619 C24.989108,28.0624619 24.9879502,28.0609182 24.986921,28.0606609 C24.980746,28.0531994 24.9743137,28.0449661 24.9681387,28.0375046 C24.9466548,27.9944082 24.9224693,27.9049992 24.8960969,27.8449215 C24.8222541,27.6944056 24.7399206,27.5064537 24.6269694,27.298819 C24.520965,27.0883541 24.3876877,26.8560193 24.2418031,26.6028439 C24.2330552,26.5867632 24.2222489,26.5704251 24.2129864,26.5543444 C24.1724629,26.6262575 24.1336118,26.7025446 24.0959185,26.7762588 C24.0959185,26.7762588 24.0959185,26.7762588 24.0959185,26.7761302 C23.999434,26.9652398 23.9124692,27.1588521 23.8364394,27.3601832 C23.8363108,27.3599259 23.8361821,27.3597973 23.8360535,27.3594113 C23.755907,27.5719346 23.6890111,27.7915334 23.6331787,28.016278 C23.8559936,28.0263124 24.080095,28.0389197 24.305097,28.0471531 C24.3061261,28.0471531 24.3074126,28.053714 24.3084418,28.053714 C24.3081845,28.053714 24.3076699,28.0618187 24.3074126,28.0618187 C24.3071553,28.0618187 24.3067694,28.0618187 24.3065121,28.0618187 C24.3066407,28.0618187 24.3169324,28.055901 24.317061,28.0561583 C24.3165465,28.0579593 24.3251657,28.0534567 24.3251657,28.0534567 L24.3251657,28.0540999 C24.017573,28.0459952 23.8661567,28.0606609 23.6432131,28.0506265 C23.5827494,28.2946681 23.5320629,28.5232721 23.5020884,28.8307361 C23.50003,28.8307361 23.4950128,28.8410278 23.4926972,28.8551789 C23.4912821,28.8640554 23.4885805,28.8742185 23.4874227,28.8854107 C23.4911534,28.8860539 23.4941123,28.8713883 23.497843,28.8720315 C23.9132411,28.9429155 24.3352001,29.0194599 24.7621763,29.0646146 C24.9171948,29.0841688 25.0718274,29.0998636 25.2265886,29.1194178 C25.2251735,29.1180027 25.2233724,29.116459 25.2219573,29.1150439 C25.1240577,29.0207463 24.9999142,28.89403 24.8634208,28.7384969 C25.0019726,28.8963456 25.127917,29.0210036 25.2264599,29.1156871 C25.2847366,29.1230199 25.3432705,29.1303527 25.4012899,29.1376856 C25.6148423,29.1558247 25.8276229,29.1737065 26.038731,29.1915883 C26.0422045,29.1919742 26.0459352,29.1922315 26.0494087,29.1926174 C26.0782254,29.195319 26.1067848,29.19712 26.1353442,29.199693 C26.1599156,29.2018799 26.184487,29.2038096 26.2089298,29.2057393 C26.2124032,29.2059966 26.2161339,29.2062539 26.219736,29.2066399 C26.5804595,29.2354566 26.9369377,29.2463915 27.2838961,29.2609285 C27.4866423,29.2725066 27.6857863,29.268004 27.881071,29.2698051 C27.9890051,29.2695478 28.0953953,29.2703196 28.2007564,29.2705769 C28.2861774,29.2707056 28.3708265,29.2707056 28.4541891,29.2685186 C28.5371658,29.2655597 28.6187274,29.2629868 28.6996458,29.2605425 C28.6807348,29.2644019 28.6625957,29.26839 28.6435561,29.272378 C28.5608367,29.2914176 28.4752871,29.3081416 28.3883224,29.3240937 C28.1552157,29.3666755 27.9084726,29.4015386 27.6531102,29.4454069 C27.4766079,29.4661189 27.2950883,29.4874742 27.1097093,29.509344 C27.0739457,29.5138466 27.037153,29.51732 27.0011321,29.521694 C26.8507449,29.5393185 26.6982993,29.555142 26.5422516,29.5622175 C26.3787425,29.5728951 26.2120173,29.5835728 26.0442628,29.594379 C26.0142883,29.5964374 25.9853429,29.5982384 25.9552398,29.6000395 C25.9467491,29.600554 25.9383871,29.6004254 25.9298965,29.6006827 C25.8965772,29.6024837 25.8628719,29.6024837 25.8292953,29.6033842 C25.8237635,29.6036415 25.8183604,29.6037702 25.8128286,29.6038988 C25.660769,29.6077582 25.5074229,29.6078869 25.3535622,29.6109744 C25.151202,29.6095593 24.9481985,29.6229384 24.7439086,29.6091733 C24.5400046,29.5995249 24.3353288,29.5896191 24.1306529,29.579842 L23.8247326,29.5647904 L23.5202274,29.5313425 C23.4981003,29.5288982 23.4764878,29.5267112 23.454232,29.5241383 C23.4547466,29.6270551 23.4571909,29.7293287 23.4623367,29.8305732 C23.4718565,30.014537 23.4906389,30.1954133 23.5155962,30.373974 C23.5248587,30.4404841 23.5354077,30.5063508 23.5468572,30.5719603 C23.2391358,30.5651421 22.8858738,30.5726035 22.4917023,30.5908713 C22.0931569,30.6059229 21.6517723,30.6225182 21.171408,30.6406573 C20.9312258,30.6450313 20.6812666,30.6733334 20.4214016,30.690572 C20.1607647,30.7044657 19.8940814,30.7455038 19.6173638,30.7803669 C18.6814638,30.9162171 17.6350569,31.1323425 16.5729552,31.5744989 C16.0621017,31.7263013 15.5327233,31.9208141 15.0030875,32.1755332 L14.3693771,32.4954759 L14.245491,32.5676464 C14.2179607,32.5841131 14.1848987,32.6031527 14.1518366,32.6221923 C14.1061673,32.6483074 14.0602407,32.6742939 14.0132848,32.7050404 C13.8860539,32.7869879 13.7676996,32.867649 13.6528186,32.94831 C13.5241726,33.0386195 13.401187,33.1288004 13.2859201,33.2192386 C13.2038439,33.2836903 13.1239548,33.3485279 13.047539,33.4138801 C13.0148629,33.4420535 12.9860462,33.4682973 12.9545279,33.4958276 C12.9060284,33.5382808 12.8566283,33.5809913 12.8109589,33.622158 C12.5582981,33.8501188 12.3479618,34.0613556 12.1630975,34.2728497 C12.1250182,34.3154315 12.0889973,34.3585279 12.0519473,34.4013671 C11.8172969,34.6729389 11.6045163,34.9506857 11.4159212,35.2326778 C11.402928,35.2518461 11.3891629,35.2710143 11.3762983,35.2903112 C10.3578075,36.82017 9.77980086,38.6887538 9.74629359,40.5548933 C9.74210757,41.0608582 9.77362585,41.5633496 9.84039314,42.0438426 C9.90535939,42.5126288 10.020369,43.0131905 10.1822057,43.5318914 C10.3323356,44.0159864 10.5334094,44.4977658 10.7800238,44.9644937 L10.8339265,45.0697262 C10.8420312,45.0831053 10.8507792,45.0980283 10.8597844,45.1142377 C10.8610708,45.1164247 10.8621,45.1183544 10.8632578,45.12067 L10.8640297,45.1201554 L11.2255251,45.7232481 C11.2659199,45.7909159 11.3058002,45.8580691 11.3517269,45.9277953 L11.8302901,46.5676807 L11.9769466,46.7637373 L12.6362576,47.501651 L12.7659328,47.6248939 C13.1157214,47.9582158 13.4463417,48.272884 13.8069366,48.5459995 L13.8205731,48.5568058 C14.3770959,49.0071956 14.9958833,49.4225937 15.6656146,49.7993979 C15.8726061,49.915694 16.0846148,50.028002 16.3012547,50.1367079 C16.3664783,50.1695126 16.4309299,50.2027033 16.497054,50.2347361 L16.8106931,50.3889828 L17.2069229,50.5611112 L17.5911886,50.7152291 C17.6691481,50.7455896 17.7504524,50.7750495 17.8316281,50.8043808 L17.9674783,50.8539096 C18.5063766,51.0441771 19.0084821,51.185945 19.4950214,51.2843592 C20.0681395,51.4019417 20.5906997,51.4693522 21.0939631,51.4905788 C21.6261718,51.5116768 22.1789638,51.4809304 22.7085996,51.3979537 L22.7385741,51.3933224 C22.863618,51.3736396 22.9818438,51.3549859 23.0917075,51.3282275 C23.1443237,51.3153629 23.1957821,51.304428 23.2469833,51.2933644 C23.3309891,51.2752253 23.4104924,51.2582441 23.4785461,51.2365029 L23.8683436,51.1189204 C23.8719457,51.1175053 23.8755478,51.1162188 23.8791499,51.1149324 L24.2423177,50.9771525 C24.2601995,50.9699483 24.2841277,50.9610717 24.3083131,50.9521951 C24.3333991,50.9429326 24.3584851,50.9339274 24.3906466,50.9193904 L24.5629036,50.8429746 L24.599825,50.8265079 C24.6362319,50.8095267 24.6804861,50.7897152 24.7249976,50.770161 C24.8083603,50.7328536 24.8915943,50.6961895 24.9682673,50.6557946 L25.1056613,50.5815659 C25.2967007,50.4787777 25.4773197,50.3816499 25.6381273,50.2698565 L25.6554945,50.2581497 C26.4383056,49.7584885 27.1486891,49.0774363 27.7221932,48.2843335 C27.7558984,48.2378923 27.7907615,48.1923516 27.8234376,48.1451385 C28.1390063,47.6996372 28.3806036,47.233038 28.5559482,46.8759166 C28.7750324,46.3961955 28.9451024,45.9647167 29.0693745,45.5702879 C29.2467774,45.0294599 29.3894459,44.451196 29.5030403,43.8199298 C29.5319857,43.6589936 29.5593873,43.4953559 29.5846019,43.3269582 C29.5977238,43.2397362 29.6095593,43.1505845 29.621652,43.0614328 C29.6276984,43.0158921 29.6343879,42.9716378 29.6403057,42.9254539 C29.669251,42.6914468 29.6916354,42.4522938 29.7108037,42.2099246 C29.7280423,41.993156 29.7409069,41.7720135 29.7505553,41.5468829 C29.7536428,41.4743265 29.7558298,41.4004837 29.7581454,41.3270268 C29.8188664,40.7340972 29.8443383,40.1528744 29.848069,39.5883755 C29.8487123,39.5326718 29.8474258,39.4783832 29.8478117,39.4229367 C29.8501274,38.7354523 29.8183518,38.0704809 29.756859,37.4353554 C29.7436084,37.2995051 29.7289428,37.1658419 29.7138912,37.0326932 C29.6913781,36.8348356 29.6673213,36.6390364 29.6391478,36.4470965 C29.638376,36.4416933 29.6377327,36.4361615 29.6369609,36.4310157 C29.6253827,36.3507406 29.6140619,36.27098 29.6026124,36.1916054 C29.5934785,36.1112016 29.5844733,36.0314411 29.5754681,35.9520665 C29.5663342,35.8648445 29.5560425,35.7782657 29.5466513,35.6923301 C29.6207515,35.6951603 29.6952375,35.6972187 29.7698522,35.6977333 C29.7829741,35.6977333 29.7958387,35.6986338 29.8089606,35.6986338 C29.8298013,35.6986338 29.8503847,35.6973473 29.8710967,35.69709 C29.8748274,35.69709 29.8786868,35.6967041 29.8822889,35.6967041 C29.9202395,35.6961895 29.9579327,35.6950317 29.9957547,35.6940025 C30.1341778,35.6902718 30.2718291,35.6830676 30.4083225,35.6711035 C31.7246289,35.5551934 32.9453512,35.0623504 33.9315517,34.29562 C33.9402997,34.3037247 33.9489189,34.3119581 33.9576669,34.3200628 C34.1068963,34.4734089 34.2568976,34.6276555 34.4066416,34.7817734 C34.7142343,35.0846062 34.9913378,35.4140687 35.2734586,35.7325963 C35.3435707,35.8126142 35.4136828,35.8921174 35.4835376,35.9712347 C35.5513341,36.0517672 35.614242,36.1355157 35.6792082,36.2169487 C35.8086261,36.3808437 35.9365003,36.5429378 36.0621875,36.7022016 C36.1249668,36.7819621 36.1876174,36.8612081 36.2493675,36.9396822 C36.3102171,37.0187995 36.3639911,37.1016475 36.420724,37.1810221 C36.5327747,37.3415724 36.6426384,37.4986492 36.749672,37.6516094 C36.8546471,37.805856 36.9650254,37.9516119 37.0577792,38.1007127 C37.1495039,38.2508426 37.2378837,38.3959554 37.3229187,38.5351504 C37.4900299,38.8157274 37.6568838,39.0671018 37.7814132,39.3018808 C37.8665769,39.464618 37.9435072,39.6117891 38.0125902,39.7439086 C37.6899459,39.9321178 37.5439326,40.3311778 37.6889167,40.6875273 C37.8474086,41.0779681 38.2929099,41.2659199 38.683222,41.1072994 C39.0736627,40.9485502 39.2616146,40.5033062 39.1028654,40.1129941 C38.9549224,39.7485399 38.5574062,39.5644474 38.1872915,39.6703231 C38.1342893,39.5281692 38.0749835,39.3689054 38.009374,39.1930463 C37.9134041,38.9409 37.7784544,38.6688136 37.6450484,38.3640511 C37.5767374,38.2122488 37.5055961,38.0541428 37.4317533,37.8905051 C37.3563667,37.7272532 37.2641275,37.566703 37.1770341,37.3968902 C37.0881397,37.2277206 36.9964151,37.0539198 36.9028894,36.8762597 C36.8549044,36.7877512 36.8103929,36.6962838 36.7586772,36.6077754 C36.7283167,36.5574748 36.697313,36.5062736 36.6666953,36.4553298 C36.7534027,36.5305877 36.8395955,36.6063603 36.9242446,36.6836765 C37.2970609,37.0137823 37.6715495,37.3433734 38.0240397,37.6841568 C38.202729,37.8526831 38.3798746,38.0196657 38.5547046,38.1849759 C38.7245174,38.3553032 38.8921432,38.5237009 39.0569387,38.6892683 C39.2217343,38.8553504 39.3838283,39.0188595 39.5423203,39.1786379 C39.6951518,39.3439481 39.8446385,39.5055275 39.9900085,39.6631189 C40.2797194,39.9795882 40.5606823,40.2735444 40.7966192,40.5644131 C41.0388597,40.8507792 41.2606455,41.1133457 41.4574739,41.3459378 C41.6431101,41.5875351 41.8052042,41.7981286 41.9388674,41.9714148 C42.205422,42.3192738 42.3579962,42.5181605 42.3579962,42.5181605 C42.3579962,42.5181605 42.2193158,42.3096253 41.9765607,41.9446565 C41.8544756,41.7622364 41.7066613,41.5404506 41.5368485,41.2861174 C41.3554576,41.0397602 41.1509104,40.7620134 40.9278381,40.4587947 C40.7100404,40.1505588 40.4486316,39.8374343 40.1791182,39.4998671 C40.0433966,39.331598 39.903687,39.1589551 39.7612758,38.9824527 C39.6128183,38.8110962 39.461016,38.6358802 39.3065121,38.4578341 C39.1517509,38.2799166 38.9941595,38.0989117 38.8348957,37.9158483 C38.6698428,37.7376736 38.5029889,37.5575691 38.3343339,37.3757922 C38.0016552,37.0079932 37.6471068,36.6504859 37.2930728,36.2919493 C36.9440561,35.9280097 36.572655,35.5874836 36.2177206,35.2402679 C36.0139452,35.0472989 35.8101699,34.8596043 35.607681,34.674354 C35.5290783,34.6023122 35.4516334,34.5319428 35.3738025,34.4610588 C35.2994451,34.3580134 35.2238012,34.2558684 35.1451985,34.1561677 C35.027616,34.0006347 34.9102908,33.8453589 34.7932229,33.6902118 C34.7753411,33.6666695 34.757588,33.6429987 34.7397062,33.6194564 C34.7291572,33.6065918 34.7188655,33.5941132 34.7083165,33.5815058 C34.8201099,33.4601926 34.9279153,33.3352773 35.0296744,33.2056021 C35.9118003,33.6653831 36.9010883,34.0738343 37.9790135,34.422851 C38.1880634,34.4932204 38.3965986,34.549696 38.6084786,34.6163346 L38.7672278,34.6652201 L38.8518769,34.6901774 L38.9335672,34.7123046 C39.042659,34.7417645 39.1521368,34.7714817 39.2622578,34.8014563 C39.7011981,34.9283013 40.1567338,35.0262009 40.6198595,35.133749 C41.550485,35.329291 42.529996,35.4792923 43.5544044,35.5465742 C43.8114392,35.555708 44.070275,35.564456 44.330526,35.5737185 C44.3706636,35.574619 44.4111871,35.5741044 44.4515819,35.5741044 C44.6759406,35.5741044 44.906603,35.5603393 45.1362362,35.5558367 C45.4164272,35.553907 45.6634276,35.5209736 45.9214916,35.4991038 C46.0498804,35.4877829 46.1787837,35.4695152 46.3079443,35.457937 L46.3322584,35.4422422 L46.3325157,35.4422422 C46.336761,35.4422422 46.3817872,35.4484172 46.3820444,35.4484172 C46.3820444,35.4484172 46.3815299,35.4619251 46.3802434,35.4621824 L46.4311872,35.4543349 L46.5332035,35.4385115 L46.7377508,35.4067359 C46.7619362,35.4028765 46.7862503,35.397988 46.8103071,35.3939999 C46.9632673,35.3690426 47.1166134,35.3406118 47.2700881,35.3097368 C47.3170439,35.3003456 47.363871,35.2904399 47.4110841,35.2804055 C47.5154161,35.2580211 47.6198767,35.2342216 47.7242086,35.2090069 C47.8460364,35.179547 47.9677356,35.148286 48.0893061,35.1150953 C48.3131502,35.0534739 48.5366084,34.986192 48.7589087,34.9104195 C49.1746928,34.7685229 49.5868747,34.6019263 49.990566,34.4067702 C50.5225173,34.1635005 51.0315697,33.8588667 51.5325174,33.5315912 C52.0189281,33.1846328 52.5049529,32.8197926 52.9441505,32.3939742 C53.1742982,32.1919999 53.3757579,31.9597938 53.5886671,31.7363356 C53.6944142,31.623899 53.7881972,31.5009134 53.8886697,31.382945 C53.9856688,31.2625323 54.0903867,31.1471368 54.1791525,31.0193912 C54.3626017,30.7684028 54.5484953,30.5226889 54.7216528,30.2355509 L54.8515853,30.0257292 C54.8958396,29.9547166 54.9390647,29.8842186 54.9694251,29.8250414 L55.1732005,29.451196 L55.2241443,29.3575417 L55.2370089,29.3341281 L55.2654397,29.2764947 L55.2907829,29.222206 L55.3915128,29.0047942 C55.4573796,28.8591669 55.5301932,28.7150833 55.5844819,28.5659826 L55.7586686,28.1199667 C55.8106416,27.9698368 55.8591412,27.818549 55.9068688,27.6667467 C56.0903181,27.0585082 56.2327293,26.4390775 56.3189221,25.814115 C56.3708951,25.5020197 56.3958525,25.1883807 56.4249265,24.8742271 L56.446539,24.4028679 C56.4555442,24.2455338 56.4576026,24.088457 56.4552869,23.9313802 C56.4635203,23.302301 56.4151494,22.6755375 56.3434935,22.0525047 C56.1718797,20.8106845 55.874836,19.5819861 55.385981,18.4227566 C54.9169375,17.2583813 54.2645735,16.1609019 53.4550039,15.1916826 C53.0540142,14.7033422 52.5926895,14.2649165 52.1115533,13.8573658 C51.8577346,13.6668411 51.6167806,13.4642235 51.3475244,13.2973696 C51.2143758,13.2124632 51.0875308,13.1198381 50.9494936,13.0430364 L50.5361538,12.8155902 C50.4014614,12.7359583 50.2532612,12.6799973 50.1125224,12.6120721 C49.9693394,12.5491642 49.8309162,12.4775084 49.6825873,12.4279797 L49.2584413,12.2728325 L49.2449335,12.267944 C49.0994348,12.2149418 48.9343819,12.1757048 48.7806499,12.13055 C48.4492577,12.0296915 48.2032865,12.0006175 47.9301709,11.9462002 L47.7917478,11.9215002 L47.6759663,11.9097934 L47.4450467,11.8871517 C47.2918293,11.8732579 47.1389978,11.8589782 46.9862949,11.8450844 C46.8990729,11.8419969 46.8117222,11.8404532 46.7252721,11.8404532 C45.5920291,11.8404532 44.5156476,12.1031484 43.5544044,12.4836834 C43.3147368,12.5790101 43.0817588,12.6821842 42.8544413,12.7908901 C42.854184,12.7869021 42.8534121,12.7829141 42.8531548,12.7787974 C42.8217652,12.4354411 42.7759672,12.0918275 42.7187197,11.7485999 C42.7124161,11.7115498 42.7079134,11.6746284 42.7016098,11.6375784 L42.6080841,11.1771542 C42.5769518,11.0231649 42.5455621,10.8689183 42.498735,10.7187883 L42.3698316,10.26351 C42.326092,10.111579 42.2862117,9.95797563 42.2278064,9.81041861 L42.0654551,9.36234445 C42.00988,9.21324368 41.9602226,9.06105541 41.8911397,8.91710049 L41.6921243,8.48021853 C41.6238132,8.33523444 41.5627064,8.18613367 41.4815307,8.04719595 L41.2498392,7.62317859 C41.1709792,7.48243982 41.099066,7.33732708 41.0070841,7.20379249 L40.7432311,6.79521265 C40.6535648,6.65987701 40.5711027,6.51913824 40.4672853,6.39319377 L40.1683119,6.00545459 C40.0673248,5.8769372 39.9718694,5.74404583 39.8585322,5.62517689 L39.7992264,5.55931011 L39.5290697,5.25930754 C39.4185628,5.13786568 39.3115293,5.01282172 39.1886723,4.90257206 L38.8296212,4.56166005 C38.7099804,4.44767965 38.5913687,4.3324128 38.4582201,4.2332267 L38.0688085,3.92409026 C37.9391333,3.82065884 37.8094581,3.71684148 37.6685906,3.62807571 L37.2534499,3.35097214 L37.0454292,3.21306358 C36.9758317,3.16726559 36.8941415,3.12661344 36.8187549,3.08338837 L36.356401,2.82995566 L36.1241949,2.70491171 C36.0475218,2.66400226 35.9852572,2.64148921 35.9146305,2.60971363 L35.5033491,2.43166751 L35.2977727,2.34264445 L35.2721721,2.33158089 C35.271143,2.33119495 35.1899673,2.29761833 35.1885522,2.29761833 C35.1882949,2.29761833 35.1903533,2.29851886 35.1948559,2.30044855 L35.1332344,2.27935059 L35.0103774,2.23741198 C34.8460965,2.18248012 34.6822014,2.12394617 34.5171485,2.07403151 L34.0186451,1.94628599 C33.3527732,1.79782845 32.680469,1.70134392 32.0163981,1.69478297 C31.902289,1.69143818 31.7885659,1.68989442 31.6749715,1.68989442 C30.4651841,1.68989442 29.2833129,1.87630254 28.1608762,2.206151 C27.5431179,2.3749346 26.9491591,2.61087145 26.3702519,2.86816353 L25.9408314,3.07193887 C25.7971338,3.14217961 25.6490622,3.22567089 25.5045927,3.30247258 L25.2873095,3.42031235 L25.1019305,3.53364952 L24.9177094,3.64827314 L24.8257275,3.70539198 L24.7556154,3.74861706 L24.7072445,3.78180773 C23.6671412,4.47405209 22.7323991,5.30356178 21.9733874,6.24705186 C21.202669,7.18089349 20.6183586,8.22665718 20.1873944,9.28875891 C20.0511582,9.63584593 19.9335758,9.98537723 19.8300157,10.3354231 C19.7741833,10.5245328 19.7213098,10.7138998 19.6747399,10.9031381 C19.6439935,11.0276675 19.6164633,11.1523255 19.5906054,11.2768549 C19.5226803,11.6036158 19.4709646,11.9299908 19.4296692,12.2543075 C19.4186056,12.3405003 19.4071562,12.4270791 19.3976363,12.5131433 C19.4003379,12.5148157 19.4047119,12.5163595 19.4047119,12.5180319 C19.4047119,12.5181605 19.4047119,12.5182892 19.4047119,12.5184178 C19.4047119,12.5198329 19.4045832,12.5211194 19.4045832,12.5225345 C19.40394,12.6482217 19.3762811,12.7733943 19.3668899,12.8981809 C19.5617887,13.0164067 19.7449807,13.1390063 19.9308742,13.2703539 C20.5571231,13.712639 21.0961501,14.2407311 21.5574748,14.8220825 C21.5574748,14.8224685 21.5574748,14.822983 21.5574748,14.8234976 C21.0961501,14.2417602 20.5555794,13.7128963 19.9290731,13.2703539 C19.7431796,13.1390063 19.5544559,13.0164067 19.3596858,12.8981809 C19.350166,13.0260551 19.3445055,13.1535433 19.3388451,13.2806456 C19.3037247,14.0831396 19.3466925,14.8668513 19.4456213,15.6177583 C19.5777408,16.6060172 19.8082745,17.5358708 20.1076339,18.4028165 C20.726164,20.1198552 21.5173372,21.5767717 22.2579525,22.834544 C22.3414438,22.9742536 22.4241632,23.1108757 22.5061107,23.2460827 C22.487457,23.2288442 22.4693179,23.2114769 22.4505356,23.1942384 C22.3029786,23.0585168 22.1543924,22.9204796 22.0056776,22.7824424 Z M20.1012016,12.9816722 L20.0470416,12.9442362 L20.1012016,12.9816722 L20.1346495,13.0053431 L20.1619225,13.0264411 L20.2704997,13.1105756 C20.4154838,13.222369 20.5492757,13.3330046 20.6830676,13.4575339 C21.0046827,13.7378537 21.2505253,14.0458323 21.5579893,14.3682193 C21.5579893,14.3682193 21.5579893,14.3683479 21.5579893,14.3684766 C21.2503967,14.0459609 21.0044254,13.7378537 20.6828103,13.4575339 C20.5490184,13.3331332 20.4093088,13.2224976 20.2643247,13.1105756 L20.158835,13.0264411 L20.1331058,13.0053431 L20.1012016,12.9816722 Z M29.3334848,35.7193458 C29.3381161,35.803609 29.3435192,35.8881294 29.3477646,35.9734217 C29.3522672,36.0531823 29.3565125,36.1334574 29.3610151,36.2142471 C29.3666755,36.2956801 29.3724646,36.3777562 29.3783823,36.4600897 C29.4028251,36.7844064 29.4165902,37.1169564 29.4254668,37.4560674 C29.4303553,37.6541823 29.4312558,37.855642 29.430098,38.0585168 C29.4291975,38.2056879 29.4273965,38.3529876 29.4232798,38.502217 C29.4132454,38.8517483 29.3938198,39.20694 29.363588,39.5668917 C29.3509807,39.7033851 29.3354145,39.8412937 29.319977,39.9792022 C29.3111004,40.0579336 29.3018379,40.1367936 29.2918035,40.2157823 C29.2560399,40.5006046 29.2124289,40.787228 29.1609705,41.0755238 C29.1187746,41.3109461 29.0729766,41.5470116 29.0185593,41.7835916 C29.0145713,41.8005729 29.0101973,41.8176828 29.0060807,41.8346641 C28.8330517,42.5634439 28.6101081,43.2981415 28.295054,44.0026072 C28.1388777,44.3651318 27.9504112,44.7144058 27.7501093,45.0568616 C27.6406316,45.2217858 27.5418314,45.3949434 27.4210328,45.5524061 C27.3626275,45.6324239 27.307181,45.7148861 27.246846,45.7934888 L27.0603093,46.0250517 C26.8031458,46.3259548 26.5305449,46.6165662 26.2211511,46.8640812 L26.107814,46.9600511 L25.9880445,47.0479164 C25.9075121,47.1055498 25.8301958,47.1678145 25.7474764,47.2221031 C25.5792074,47.3272069 25.415441,47.4390003 25.2370089,47.5276375 C25.0651378,47.6269522 24.8811739,47.7055549 24.7008122,47.7904613 C24.6105027,47.8311135 24.5222515,47.8590297 24.4333571,47.8947933 C24.3452345,47.9287558 24.2608427,47.9637475 24.146991,47.9955231 L23.8274342,48.0930368 L23.5577921,48.1556874 C23.3645657,48.1962109 23.1695383,48.2324891 22.9705229,48.2508855 C22.1771628,48.33502 21.3503546,48.2637501 20.5358965,48.0693659 C20.2840076,48.008645 20.0327619,47.9380183 19.7828026,47.8591583 C19.6288133,47.8106588 19.4752099,47.7598436 19.3226357,47.7045258 C19.1860136,47.654997 19.054666,47.6026381 18.9246048,47.5497646 C18.8618256,47.5242927 18.798789,47.4988207 18.736653,47.4730915 L18.4245577,47.3338965 L18.1426942,47.1945729 C17.9507543,47.0966732 17.7519962,47.0107377 17.5654594,46.9040901 L17.0054632,46.584276 C16.821242,46.4744123 16.6473126,46.349497 16.4675941,46.2334583 C16.2841448,46.1219221 16.1160044,45.9913464 15.9468349,45.8621858 C15.5976895,45.6158286 15.2906114,45.3247026 14.973113,45.0464412 L14.531857,44.5973379 L14.4216074,44.4851585 L14.3264093,44.3696344 L14.134984,44.1392293 L13.9418863,43.9098534 C13.8783351,43.8234033 13.8154272,43.7266615 13.7514901,43.6364806 L13.5942847,43.409549 L13.5607081,43.3611781 L13.46551,43.2239127 L13.4417105,43.1895642 C13.4406813,43.1877632 13.4410672,43.1885351 13.4402954,43.1873773 L13.4379797,43.1833892 L13.3992573,43.1177797 C13.1841611,42.7727511 13.010103,42.4050807 12.8558564,42.0308493 C12.5464627,41.2813575 12.37189,40.481951 12.3091107,39.6831877 C12.2041355,38.3136219 12.4432885,36.9455999 12.9562003,35.7461042 C13.0423932,35.5443872 13.1356615,35.3466582 13.2371633,35.1552329 C13.2881071,35.0569473 13.3417525,34.961106 13.396813,34.8660366 C13.5291898,34.6376899 13.6723728,34.4183484 13.824947,34.2085267 C13.8690726,34.1463906 13.9148706,34.0856697 13.9610546,34.025592 C14.0280791,33.9381127 14.0966475,33.8525631 14.1672742,33.7694577 C14.2538529,33.6673128 14.3431333,33.5687699 14.4335715,33.4720281 C14.4634174,33.4402525 14.4927487,33.4078337 14.5227232,33.3764441 C14.5893618,33.3082616 14.6574156,33.2420089 14.7263699,33.1773 C14.9159941,32.9993825 15.1130799,32.834201 15.3095224,32.6811122 C15.4476882,32.5797391 15.5993619,32.4674311 15.7352121,32.3822674 C15.8814827,32.2935017 16.0263381,32.2055078 16.1697785,32.1184144 C16.2423348,32.0762185 16.3115464,32.0283622 16.3857752,31.9911835 C16.4603899,31.954262 16.5346187,31.9177266 16.6084615,31.8813197 C16.7565331,31.8081201 16.9029323,31.7356924 17.0476591,31.6641652 C17.1963739,31.6011287 17.3459892,31.5443957 17.4931603,31.4867623 C17.6413606,31.4322164 17.7839004,31.3659637 17.9332584,31.3254402 C18.124941,31.2633041 18.3137934,31.2074718 18.5017453,31.1549842 C18.8897418,31.0461496 19.2696335,30.9572552 19.6375612,30.8951192 C19.9102908,30.8495785 20.1740152,30.7982487 20.4314359,30.7743205 C20.6885994,30.746533 20.9353425,30.7083251 21.1761679,30.6998345 C21.6560176,30.6699886 22.096759,30.642587 22.4949185,30.6180156 C22.8893472,30.590228 23.2428666,30.5791645 23.5507166,30.5837957 C23.570528,30.6977761 23.5935557,30.8103414 23.6196708,30.9217489 C23.6762751,31.164504 23.7458726,31.40147 23.8300071,31.6313605 C23.8502045,31.6862923 23.8719457,31.740195 23.8935583,31.794355 C23.9147849,31.8477431 23.9353682,31.9015172 23.9580099,31.9541334 C24.1933035,32.4980489 24.5053988,32.998482 24.8804021,33.4452697 C24.8998276,33.4685546 24.9195105,33.491325 24.9393219,33.5140953 C24.8212249,33.5861371 24.7000403,33.6581789 24.5810427,33.7412842 C24.2882443,33.9366976 23.9793652,34.1406015 23.67486,34.3725504 C23.6694569,34.3762811 23.6641824,34.3805264 23.6587792,34.3842572 C23.4802185,34.5112308 23.3038448,34.6482388 23.1274711,34.7892349 C23.0011407,34.8903507 22.874553,34.9931389 22.7470647,35.0968276 C22.589216,35.2198132 22.4388288,35.354377 22.2885702,35.4897126 C22.1614679,35.6031784 22.0338511,35.7170302 21.9062342,35.8307533 C21.8825633,35.8519799 21.8588924,35.8730778 21.8352216,35.8941758 C21.5403648,36.1725658 21.2563144,36.4616335 20.9720066,36.7396376 C20.7039083,37.0332078 20.4397979,37.3221468 20.1844355,37.6016947 C19.9445107,37.8935926 19.7126905,38.175842 19.4928344,38.4434258 C19.3805264,38.5747734 19.2812117,38.7107522 19.1861422,38.8428717 C19.0903009,38.9742193 18.9978044,39.1010643 18.9087814,39.2227635 C18.7331795,39.4677056 18.5627235,39.6844741 18.4353639,39.8941672 C18.3027299,40.0994863 18.1872057,40.2784329 18.091879,40.4259899 C17.9017402,40.7203321 17.7932915,40.8883438 17.7932915,40.8883438 C17.7932915,40.8883438 17.9156339,40.7299805 18.1298296,40.4523624 C18.2367344,40.3140679 18.3665383,40.1459275 18.5153818,39.9530871 C18.6585648,39.7562586 18.8466453,39.5546703 19.0406436,39.3270954 C19.1385432,39.2141442 19.2406882,39.0964331 19.3463066,38.9747339 C19.4507672,38.8521342 19.5599876,38.7264471 19.6819441,38.6060344 C19.9204539,38.3610923 20.1718282,38.1026424 20.4319505,37.8354446 C20.7051947,37.5827741 20.9873155,37.3216323 21.2743248,37.0562355 C21.5757425,36.8076913 21.8758737,36.5496274 22.1850102,36.3032702 C22.3429875,36.1846585 22.5009648,36.0659182 22.658299,35.9475639 C22.8148612,35.8286949 22.9709088,35.7107265 23.1339034,35.6048508 C23.3414094,35.4634688 23.5456994,35.3237592 23.7502466,35.1915111 C23.86204,35.119212 23.9738334,35.048714 24.08627,34.9825899 C24.287987,34.8538152 24.4902186,34.7376478 24.6880762,34.6267549 C24.7948524,34.5671918 24.9005995,34.5085292 25.0037736,34.4516677 C25.1492723,34.3671472 25.2979871,34.2987075 25.43834,34.2265371 C25.4872254,34.2027376 25.5341813,34.1784235 25.581523,34.1543667 C25.5893704,34.1611849 25.5976038,34.1677459 25.6054512,34.1744355 C26.1461505,34.6352456 26.7684114,35.0056175 27.4492063,35.2659971 C27.3680306,35.3381676 27.2868549,35.4100807 27.2065798,35.4823798 C27.1286203,35.5518486 27.0511754,35.6210602 26.9738591,35.6900145 C26.9631815,35.6991484 26.9522466,35.7075104 26.9413117,35.7163869 C26.8726147,35.7729912 26.8027599,35.8281803 26.7341915,35.8838841 C26.5744132,36.0118869 26.4164358,36.1384746 26.2612887,36.2628753 C26.1835865,36.3252687 26.1062702,36.3871474 26.0298545,36.4483829 C25.9525382,36.5084606 25.8720058,36.5622347 25.7944322,36.618453 C25.6379986,36.7298605 25.4850385,36.8389523 25.3360663,36.9450853 C25.1858078,37.0495459 25.0437825,37.158895 24.8984125,37.2513915 C24.752142,37.3427302 24.6108886,37.4309814 24.475167,37.5158878 C24.2019228,37.6826131 23.9569808,37.8486951 23.7281195,37.9736104 C23.6728017,38.0033276 23.6192849,38.0321444 23.5674405,38.0601892 C23.3069323,37.6314119 22.7673908,37.4417877 22.2877984,37.6368151 C21.755461,37.8531977 21.4993268,38.460407 21.7155808,38.992873 C21.9319634,39.5252103 22.5391727,39.7813446 23.07151,39.564962 C23.5750307,39.3602861 23.8309076,38.8062076 23.6742168,38.2962547 C23.7318502,38.2738703 23.791542,38.2508426 23.8532921,38.2269145 C24.0997779,38.130044 24.365432,37.9947084 24.6633762,37.8605305 C24.8117051,37.7918335 24.966209,37.7203063 25.126116,37.6462062 C25.2855085,37.5708196 25.442328,37.4788377 25.6085387,37.3917444 C25.7737202,37.3028499 25.943533,37.2113826 26.1169478,37.1177283 C26.203398,37.0702579 26.2926783,37.0251031 26.3792571,36.9740307 C26.4649354,36.9214144 26.5515142,36.8682836 26.6388648,36.8147669 C26.8138234,36.7072188 26.9916123,36.5979983 27.1717167,36.4873627 C27.2615117,36.4315303 27.3534936,36.3772417 27.4431599,36.3187077 C27.4919167,36.2852597 27.5410595,36.2512972 27.589945,36.2175919 C27.629568,36.190319 27.6686764,36.1633033 27.708428,36.1360303 C27.9743394,35.951166 28.2486128,35.7687459 28.5141382,35.5730752 C28.7054349,35.6107685 28.9000763,35.6395852 29.0970334,35.6604259 C29.1227626,35.6631275 29.1481059,35.6668582 29.1738351,35.6690452 C29.2017513,35.6717468 29.2301821,35.6729046 29.2582269,35.6752202 C29.282541,35.6772785 29.3067265,35.6786936 29.3312979,35.6804947 C29.3320697,35.6804947 29.3328416,35.6806233 29.3336135,35.6806233 C29.3325843,35.6937452 29.3325843,35.7064812 29.3334848,35.7193458 Z M22.1339377,16.0142454 L22.127634,15.8652733 C22.127634,15.8154873 22.1312361,15.765444 22.1327799,15.7155293 C22.1344523,15.6720469 22.1361247,15.6275354 22.1379257,15.5837957 C22.1441007,15.4272335 22.1502757,15.2705426 22.1564507,15.1121793 C22.1565794,15.1102497 22.156708,15.10832 22.1568367,15.1065189 C22.1663565,14.9063457 22.2017341,14.7064297 22.2228321,14.5047127 C22.2351821,14.4030824 22.2474035,14.3011947 22.2598822,14.1989211 C22.2607827,14.1941612 22.2619405,14.1894013 22.262841,14.18477 C22.2827812,14.0886714 22.3029786,13.9920583 22.3230474,13.8953164 C22.3441453,13.7939433 22.3652433,13.692313 22.3862126,13.5904253 C22.4071819,13.4885376 22.4259642,13.3858781 22.4597981,13.2864347 C22.4664877,13.263793 22.4734346,13.240894 22.4801242,13.2183809 C22.5331264,13.0405921 22.5865145,12.8621601 22.6401599,12.6824415 C22.6864724,12.5624148 22.7321418,12.4417448 22.778583,12.3212034 C22.884716,12.0457723 22.9963808,11.7712416 23.140593,11.509061 C23.529104,10.7460613 24.0227189,10.0176674 24.6411204,9.38923147 C25.2536042,8.7573221 25.9603856,8.20272901 26.7449978,7.75504078 L26.7738145,7.73715898 C26.7776739,7.73510064 26.78565,7.73085532 26.78565,7.73085532 L26.8057187,7.720435 L26.8856079,7.67836774 L27.0459009,7.59423323 L27.205422,7.50919819 L27.353365,7.44114444 C27.4531943,7.39624697 27.5476205,7.34839064 27.6511805,7.30503692 L27.9666206,7.17690546 C28.3919245,7.01712708 28.8270054,6.87278622 29.2736644,6.76871157 C29.3843,6.73899433 29.4960934,6.71339377 29.6090447,6.69306769 L29.9467405,6.62668634 C30.1739295,6.5952967 30.3999605,6.55348674 30.6284359,6.53753463 C31.0837143,6.4849184 31.5418228,6.47629911 31.994271,6.49881217 L32.332996,6.52132523 L32.667733,6.56480759 C32.7802983,6.57484198 32.8888755,6.59928473 32.9986106,6.6196108 C33.1074452,6.6425098 33.2197532,6.65563169 33.3249856,6.68817914 L33.6460862,6.77269959 C33.750804,6.80589027 33.8530776,6.84448409 33.9571523,6.87960446 L34.0348545,6.90636283 L34.0730624,6.91948473 L34.0848978,6.92475922 L34.2557398,7.00053174 L34.5976809,7.15194813 C34.6524842,7.17767734 34.7162926,7.20173415 34.763763,7.2278493 L34.9057882,7.30645203 L35.1909965,7.46134186 C35.2864519,7.50778309 35.3816499,7.57107694 35.4767194,7.63488538 L35.7626995,7.82180808 C35.8604705,7.88059932 35.9493649,7.95212652 36.0387739,8.0227532 L36.2404909,8.17995866 L36.3085447,8.23283219 C36.4010412,8.29972813 36.4836319,8.3787168 36.5684097,8.45526119 L36.8230002,8.6843798 C37.4850127,9.31384489 38.0496402,10.0467414 38.5033748,10.8388151 C38.9533787,11.6330758 39.2978928,12.4843266 39.5144041,13.3604062 C39.6242678,13.7976741 39.7078877,14.2402165 39.7540716,14.6846885 C39.7899639,14.9063457 39.7882915,15.1289033 39.8025712,15.3508178 L39.8108046,15.5171571 L39.8131202,15.5585811 L39.8141493,15.5794218 C39.8141493,15.5794218 39.8146639,15.6079812 39.8154358,15.5853395 L39.8138921,15.673462 L39.8078457,16.0247944 C39.8060446,16.0546403 39.8033431,16.085258 39.801542,16.1152325 C39.5263682,16.3426788 39.2590417,16.5730838 39.0027788,16.8050326 C38.3980137,17.3489481 37.8414909,17.8924776 37.3341109,18.4456556 C37.0773334,18.7178707 36.8258304,18.9842966 36.5801165,19.2448048 C36.3381333,19.5084006 36.1169907,19.7795864 35.8934039,20.0362353 C35.6717468,20.2945566 35.4562646,20.5463169 35.2461856,20.7910016 C35.040352,21.0386453 34.850985,21.2886045 34.6617467,21.5253133 C34.5715658,21.6367207 34.4838292,21.7467131 34.3978936,21.8558049 C33.7562072,22.6693625 33.2297876,23.4131939 32.7714217,24.0279934 C32.7585571,24.0460038 32.7455639,24.0619559 32.732442,24.0797091 C31.8461994,23.6744741 30.8515082,23.4497294 29.8107617,23.4497294 C29.4778257,23.4497294 29.1509361,23.4727571 28.8318939,23.5170113 C28.8410278,23.2320603 28.8468169,22.944665 28.8547929,22.6573984 C28.854407,22.2968036 28.8596815,21.9376238 28.854021,21.5834613 C28.8432148,21.2287841 28.8432148,20.8814398 28.8239179,20.5442585 C28.8029486,20.2070772 28.7951012,19.8826319 28.7655126,19.574396 C28.7365672,19.2664174 28.7161125,18.9759346 28.6851088,18.7083508 C28.6699286,18.5911543 28.6553916,18.4792322 28.6411118,18.3710409 C29.3484078,18.1999417 29.8097325,17.5066682 29.6803146,16.7807185 C29.5457508,16.0263381 28.8250757,15.523718 28.0705666,15.6582818 C27.3163149,15.7928456 26.8135662,16.5135207 26.9481299,17.2680297 C27.0633968,17.9151193 27.6105284,18.3754149 28.2398648,18.4088629 C28.2383211,18.5108792 28.2366487,18.6162403 28.2348476,18.7263613 C28.2271289,18.9900857 28.2055163,19.2761945 28.1898215,19.5773549 C28.1750272,19.8786439 28.1363048,20.1965283 28.1089032,20.5240611 C28.0800865,20.8517226 28.0305577,21.1900617 27.9909347,21.5327747 C27.9711233,21.6850916 27.9484815,21.8384377 27.9255826,21.9922984 C27.8970231,22.1844956 27.8675632,22.3772074 27.8397756,22.5697905 C27.8315423,22.6175182 27.8235662,22.6649886 27.8153329,22.7128449 C27.7807271,22.9139186 27.7459927,23.1140919 27.711001,23.3131073 C27.6941483,23.4095918 27.6776816,23.5064623 27.6595425,23.602175 C27.6466779,23.668299 27.6343279,23.733008 27.6218492,23.7986175 C27.1880548,23.9432156 26.7774166,24.1315534 26.3939228,24.3569413 C26.373468,24.3689054 26.3530133,24.3808695 26.3326872,24.3930908 C26.3092737,24.4072419 26.2852169,24.4203638 26.2619319,24.4347722 C26.0175044,24.5867031 25.785427,24.7551008 25.5666001,24.9376496 C25.1244436,24.2102848 24.5908198,23.3403803 24.0427877,22.3136562 C23.9017916,22.0451719 23.7578367,21.7672965 23.6149109,21.4790007 C23.4825342,21.1856877 23.3316323,20.8907023 23.2040155,20.57642 C23.1385346,20.4202437 23.0721533,20.2617518 23.0048714,20.1015875 C22.9378468,19.9412945 22.8827863,19.774312 22.8219367,19.6073294 C22.7919622,19.5238381 22.761859,19.4397036 22.7314986,19.3551831 L22.7087282,19.291632 L22.6992084,19.2648736 L22.6896886,19.2320689 L22.651738,19.1005926 C22.6007942,18.9247335 22.5494644,18.7469447 22.4974914,18.5673548 C22.4384429,18.3876363 22.4123277,18.2061167 22.3716756,18.023568 C22.3368125,17.8399901 22.2894708,17.6589851 22.2637415,17.4697467 C22.21923,17.0897263 22.1522054,16.7066184 22.1473169,16.3109032 C22.1441007,16.2368031 22.1408846,16.1621884 22.1376684,16.0877023 C22.135996,16.0632595 22.1350955,16.0389454 22.1339377,16.0142454 Z M22.3659899,14.7218673 C22.4349854,14.4483658 22.5786089,14.1765367 22.7250485,13.9071519 C22.3744383,13.8180002 22.0350927,13.7327078 21.6741567,13.648316 C21.6746261,13.6467723 21.6750954,13.6454858 21.6765035,13.6438134 C22.0444799,13.7294917 22.4091708,13.8163278 22.7658826,13.9070232 C22.6166268,14.1823257 22.5077359,14.4598153 22.4410871,14.7396204 C22.4044772,14.8927092 22.38054,15.0464412 22.3678673,15.2004305 C22.3537866,15.1954133 22.3392365,15.1903961 22.3251558,15.1853789 C22.3387671,15.0364068 22.3824174,14.887692 22.4185579,14.7396204 C22.4011917,14.7337027 22.3833561,14.727785 22.3659899,14.7218673 Z M46.7025017,14.6134186 C46.7017299,14.61329 46.7037882,14.6135473 46.7064898,14.6140619 L46.7217986,14.6181785 L46.7642518,14.629628 C46.9868095,14.6918927 47.2340672,14.748497 47.4119847,14.8245268 C47.5089838,14.8623487 47.6044391,14.889493 47.7032393,14.9343905 L47.9989966,15.0681824 C48.0804295,15.1008585 48.156588,15.14537 48.2333897,15.1880805 C48.2515287,15.1981149 48.2695392,15.2084066 48.2876783,15.2179264 C48.3814612,15.2727296 48.4811619,15.316212 48.5703136,15.3797631 C48.9417148,15.6074666 49.2891877,15.8767228 49.6187789,16.1695212 C49.9380784,16.4758274 50.2432268,16.80053 50.5155705,17.1586806 C51.6014717,18.5934699 52.27339,20.3963156 52.5032805,22.2410998 C52.6190619,23.1633633 52.6321838,24.1010643 52.5175602,25.0126502 C52.4675169,25.4698582 52.3754063,25.9181897 52.2562801,26.3545571 L52.1635263,26.6804175 L52.0541771,26.9990737 C52.0207292,27.1068791 51.9735161,27.2074803 51.9323493,27.3110404 L51.8690555,27.4658016 L51.853232,27.5045241 C51.8419112,27.5289668 51.8600503,27.4928173 51.8540039,27.5042668 L51.8439695,27.5248501 L51.8038319,27.6073122 L51.6427671,27.9363888 C51.6158801,27.9942795 51.588993,28.0407208 51.5623633,28.0862615 L51.4824741,28.2262284 C51.3849604,28.4137943 51.2583727,28.6023894 51.1371881,28.7909845 C51.0794261,28.8873404 51.0080275,28.9736619 50.9429326,29.0647433 C50.8753934,29.1537663 50.8135147,29.2475493 50.7417302,29.3328416 C50.5967461,29.5026544 50.4598667,29.6795427 50.3040764,29.8389352 C50.0083191,30.1734149 49.6713951,30.4650554 49.3316409,30.7493632 C48.9791508,31.0166897 48.6208715,31.2773266 48.2360912,31.4898498 C47.8580005,31.7136939 47.4602269,31.8962427 47.0609096,32.0679851 C46.6561892,32.2242901 46.2478666,32.3692742 45.8311821,32.4688462 C45.7314814,32.4936749 45.6319094,32.5187609 45.5327233,32.5435896 C45.4231168,32.5636584 45.3138963,32.5839844 45.2048045,32.6040532 C44.9875213,32.6431616 44.7666361,32.6903747 44.5636326,32.7077419 C44.4995669,32.7145602 44.4360157,32.7227935 44.3724646,32.7306409 C44.2611858,32.7445347 44.1493924,32.7564988 44.0370844,32.7667905 C44.0056947,32.7696207 43.9748197,32.7742519 43.9431728,32.7763103 C43.7868678,32.7851868 43.6323639,32.7941921 43.4776027,32.80294 C43.4707845,32.8033259 43.4642235,32.8037119 43.4575339,32.8040978 C43.4103208,32.8067994 43.3628505,32.8095009 43.3160233,32.8122025 C43.1577887,32.8165765 43.0007118,32.8157506 42.8438923,32.81529 C42.7468932,32.8147754 42.6501514,32.8138749 42.5536668,32.8118166 C41.9837649,32.7993379 41.4232541,32.7592003 40.877023,32.6965497 C40.0882941,32.5902881 39.3377731,32.4495493 38.6119521,32.2765204 C37.9136614,32.1095378 37.2529353,31.9034469 36.6392936,31.663136 C36.595554,31.6458975 36.5523289,31.628273 36.5091039,31.6106485 C36.4799012,31.598813 36.4518564,31.586463 36.4226537,31.5743703 C36.2832014,31.5167369 36.1460647,31.4575597 36.0121442,31.3963242 C36.0169041,31.3819158 36.021664,31.3673788 36.0264239,31.3528418 C36.0291255,31.3440939 36.0316984,31.3350886 36.0344,31.3263407 C36.0369729,31.3187506 36.0389026,31.3110318 36.0414755,31.3033131 C36.2215799,30.7346976 36.3203801,30.1294179 36.3203801,29.4968653 C36.3203801,28.7844235 36.1949502,28.1128912 35.9686618,27.4935891 C35.9707202,27.492174 35.9723926,27.4908876 35.9744509,27.4896011 C36.2689217,27.2676867 36.5895076,27.0615957 36.9147248,26.8493298 C37.0750178,26.7395947 37.2439301,26.6407945 37.4137428,26.5418657 C37.5832983,26.4419077 37.7537543,26.3416925 37.9238244,26.2414772 C38.2697536,26.0506951 38.6235302,25.8727776 38.9688162,25.6897143 C39.3238793,25.5267198 39.6734106,25.3662982 40.0114924,25.211151 C40.3581935,25.0737571 40.6931878,24.9406084 41.0110721,24.8145353 C41.1693068,24.7482826 41.3274128,24.6956663 41.4803729,24.6461376 C41.633333,24.5953224 41.7811474,24.5464369 41.9230439,24.4992238 C42.2077376,24.4074992 42.4663162,24.3111433 42.7028963,24.2546677 C42.9378039,24.1912452 43.143123,24.1359274 43.3119066,24.0903867 C43.6503744,23.9993053 43.8436007,23.947075 43.8436007,23.947075 C43.8436007,23.947075 43.6466436,23.98271 43.3021295,24.0453606 C43.1292292,24.0767502 42.9194075,24.1147008 42.6789681,24.1583118 C42.4364703,24.1952332 42.1709449,24.269462 41.8772459,24.3376444 C41.7307181,24.3730221 41.5780152,24.4098148 41.4199093,24.4476368 C41.2614173,24.4845582 41.0977796,24.5241812 40.9332413,24.577312 C40.6018491,24.6775273 40.2520605,24.7834029 39.8905651,24.8928807 C39.5344729,25.0215268 39.1664165,25.1541608 38.7923138,25.2892392 C38.4264445,25.4450295 38.0505407,25.5963173 37.6801688,25.7617561 C37.4974914,25.84975 37.3145567,25.9376152 37.1323939,26.0252232 C36.9497165,26.1120593 36.767811,26.1991527 36.5936243,26.2976955 C36.277541,26.4680229 35.9654457,26.6352627 35.6704603,26.814724 C35.4482886,26.3889056 35.1740152,25.9953773 34.85716,25.6381273 C34.8277001,25.6050652 34.7981115,25.5720032 34.7682656,25.5395844 C34.7379051,25.5069083 34.7066441,25.4748754 34.6755118,25.4427139 C34.6531274,25.419429 34.6312576,25.3955008 34.6084872,25.3726018 C34.742665,25.2500021 34.8781293,25.1290749 35.0110207,25.0072471 C35.0856354,24.9395792 35.1597355,24.8720401 35.2338356,24.8048868 C35.2346075,24.804115 35.2353794,24.8033431 35.2361513,24.8026999 C35.3139821,24.7387628 35.391427,24.6749543 35.4683574,24.6117891 C35.6231186,24.4852014 35.7759501,24.3602861 35.9262086,24.2373005 C35.9897598,24.1853275 36.0522818,24.1339977 36.1149324,24.0827966 C36.1267678,24.0732768 36.1386032,24.0636283 36.1500527,24.0539799 C36.225182,23.9951886 36.3028842,23.9414146 36.3778849,23.8857109 C36.5291726,23.7753326 36.6771156,23.6671412 36.8213278,23.5620374 C36.8722716,23.5256306 36.9215431,23.4888378 36.9713291,23.4521737 C37.0077359,23.4254153 37.0444,23.3998147 37.0801636,23.3739569 C37.1349669,23.3342053 37.1897701,23.2944536 37.2447019,23.25869 C37.3862126,23.1676086 37.5228347,23.0796147 37.6540536,22.9953516 C37.8483092,22.8732665 38.0273845,22.7520819 38.1968113,22.6468495 C38.5513598,23.1955248 39.2560828,23.4333914 39.8834896,23.1782863 C40.5933584,22.8898618 40.934785,22.0801636 40.6463606,21.3704234 C40.4209727,20.8157017 39.8774432,20.4876543 39.3119152,20.5075944 C39.1536806,20.5131262 38.9937735,20.5445158 38.8384978,20.6075524 C38.8314222,20.6103826 38.8251186,20.6141133 38.8181717,20.6170722 C38.2998568,20.8375715 37.9827443,21.3380046 37.9737391,21.8698274 C37.9724526,21.9278467 37.9772125,21.986252 37.9835162,22.0446573 C37.9885333,22.073474 37.9925214,22.1021621 37.9972813,22.1307215 C38.0057719,22.1789638 38.0136193,22.2272061 38.0273845,22.2750624 C38.0331735,22.2950025 38.0408923,22.3149427 38.0477105,22.3346255 C38.0092454,22.3521214 37.9693651,22.3715469 37.9298708,22.3903292 C37.7769106,22.4630143 37.6167463,22.5425175 37.4447465,22.6227926 C37.404609,22.6419609 37.362799,22.6620297 37.3218896,22.6817125 C37.2156279,22.7326564 37.1075652,22.7845007 36.9955145,22.8381461 C36.9208998,22.8742957 36.847057,22.9145619 36.7724423,22.9561145 C36.6920385,23.0008834 36.6108629,23.0469387 36.5272429,23.0920934 C36.5018997,23.1061158 36.4747554,23.1211674 36.4494121,23.1353185 C36.3131759,23.2108337 36.1755247,23.2868635 36.0338854,23.3654663 C35.9500081,23.412808 35.863558,23.4582201 35.7791662,23.5085207 C35.6960609,23.5607509 35.612055,23.6133672 35.5274059,23.6666266 C35.3575931,23.7731456 35.1849501,23.8815942 35.0101202,23.9913293 C34.9228981,24.0465184 34.8350329,24.1022221 34.7467817,24.1581832 C34.6611034,24.2181322 34.5754252,24.2783386 34.488975,24.3388022 C34.2925325,24.4781259 34.0914588,24.616549 33.8929579,24.7593461 C33.5412396,24.5005103 33.1598041,24.2769235 32.7557269,24.0902581 C32.7680769,24.0744346 32.780041,24.0598976 32.792391,24.0436882 C33.2629782,23.440081 33.8041921,22.7057693 34.4735375,21.9192274 C34.5637184,21.8130945 34.6562149,21.7060609 34.7511557,21.5981269 C34.9491419,21.3699088 35.1431402,21.1258673 35.3617098,20.890445 C35.5823378,20.657467 35.809398,20.4177995 36.0426333,20.1716996 C36.1589293,20.0488426 36.2770264,19.9243132 36.3964099,19.7983688 C36.5172086,19.673968 36.6320895,19.5405621 36.76601,19.4231083 C37.0260037,19.1812537 37.2924296,18.9337387 37.5642587,18.6810779 C38.1605331,18.1178655 38.8125113,17.5534953 39.5185207,17.0172986 C39.587861,16.9645537 39.6569439,16.9115516 39.7273133,16.8593213 C39.9195105,16.717296 40.1150524,16.5774578 40.3152257,16.440707 C40.5074229,16.3093594 40.70438,16.1817426 40.9041673,16.0564413 C40.9579413,16.022736 41.0127445,15.9899313 41.0670332,15.9568693 C41.1561849,15.9023233 41.2436642,15.846491 41.3343596,15.7933601 C42.0552921,15.3750032 42.8285834,15.0088766 43.6449712,14.7685658 C44.459558,14.5263253 45.3178844,14.423923 46.1567852,14.5182206 L46.4688805,14.5735384 L46.6246709,14.6004254 L46.7025017,14.6134186 Z M32.7894699,28.5254814 C32.785103,28.5303633 32.7807361,28.5358555 32.7741858,28.539517 C32.4160997,28.1916781 32.0722061,27.818209 31.7403214,27.4477911 C32.0798481,27.8102759 32.4248335,28.1709298 32.7894699,28.5254814 Z M31.8013892,27.3045217 C32.0186427,27.5956065 32.2730148,27.8873227 32.5175614,28.1784075 C32.3188673,27.9428877 32.1278153,27.7199963 31.9444053,27.5109962 C31.8930942,27.4446971 31.8254072,27.3689266 31.7762795,27.3032589 C31.7315188,27.2236999 31.6911249,27.1586636 31.6485476,27.0866817 C31.7009504,27.1605579 31.7457112,27.2325398 31.8013892,27.3045217 Z M31.371081,26.2780425 C31.371081,26.2690501 31.3792588,26.2562783 31.3825298,26.2446795 C31.3874365,26.232429 31.3956142,26.2196572 31.4078808,26.2044093 C31.4242362,26.184991 31.4414094,26.1650514 31.4733025,26.1412021 C31.590244,26.0383763 31.8985441,25.8942377 32.4456337,25.7262498 C32.4456337,25.7263801 32.4472692,25.7265104 32.4472692,25.7266408 C31.9026329,25.8946287 31.5910617,26.0385066 31.4749381,26.1412021 C31.396432,26.2010209 31.5084668,26.246895 31.5117378,26.2780425 C31.5019246,26.3089293 31.6344037,26.3245682 31.6344037,26.3245682 L31.6344037,26.3246985 C31.6344037,26.3248289 31.5035601,26.3404678 31.5158267,26.3710939 C31.5411776,26.4017201 31.4553116,26.4485065 31.5346355,26.508195 C31.5967861,26.5870412 31.7219053,26.6915612 31.9656014,26.8139356 C31.9557881,26.8153692 31.9484282,26.8166724 31.9386149,26.8179756 C31.7595228,26.7293552 31.6286793,26.6506394 31.5460843,26.5836527 C31.5289111,26.569708 31.5141912,26.5566756 31.5011068,26.5437735 C31.4880224,26.5317837 31.4741203,26.5191422 31.4643071,26.5080647 C31.4242362,26.4782204 31.4086985,26.4520253 31.4005208,26.4290882 C31.3956142,26.4157952 31.3907076,26.4038053 31.3858009,26.3929884 C31.3825298,26.3859509 31.3808943,26.3766979 31.3759877,26.3710939 C31.3629033,26.3403374 31.3555434,26.3249592 31.3555434,26.3246985 L31.3555434,26.3246985 L31.3555434,26.3246985 L31.3555434,26.3245682 C31.3579967,26.3245682 31.3612678,26.3089293 31.371081,26.2780425 Z M31.8095111,26.9385282 C31.8902988,27.1994506 31.9907376,27.4658317 32.084626,27.7300294 C32.0016549,27.5226015 31.9208671,27.305348 31.8455381,27.0782691 C31.8302539,27.0346 31.8160615,26.9876558 31.8007773,26.9450785 C31.8029608,26.9439868 31.8051442,26.9418033 31.8095111,26.9385282 Z M32.4757931,31.4226433 L32.4757931,31.4780726 L32.4757931,31.4226433 L32.4177737,31.4226433 L32.3883138,31.4894988 C32.1853103,31.124103 31.9910548,30.8024671 31.7991149,30.4910419 C31.9910548,30.8024671 32.1855676,31.1102457 32.3883138,31.4756415 L32.4177737,31.4224002 L32.4757931,31.4226433 L32.4757931,31.4775864 L32.4757931,31.505301 C32.6252798,31.5211032 32.9363459,31.5563543 33.1868198,31.5823672 C33.1845042,31.5877157 33.1825745,31.5376348 33.1802588,31.5434695 C32.9261829,31.5174566 32.7010523,31.4226433 32.447105,31.4226433 L32.4757931,31.4226433 Z M22.7315341,16.0029601 C22.3701728,15.6370752 22.0088116,15.2720373 21.6398082,14.9112342 C22.0928745,15.2720373 22.4225757,15.6362283 22.7315341,16.0029601 Z M25.1211291,28.8860987 C24.9430033,28.7109302 24.7616535,28.5641674 24.5770797,28.3725867 C24.4908378,28.2810572 24.4041929,28.1819529 24.315936,28.0623333 C24.314727,28.0623333 24.313115,28.0623333 24.311503,28.0623333 C24.3111,28.0623333 24.310294,28.0623333 24.309085,28.0623333 C24.310294,28.0623333 24.311906,28.0623333 24.313518,28.0623333 C24.318354,28.0623333 24.323593,28.0623333 24.329235,28.0623333 C24.6012597,28.4394979 24.8644184,28.5897325 25.1211291,28.844437 C25.215028,28.9369133 25.3085239,29.0461175 25.4008108,29.1540591 C25.3081209,29.0675796 25.215431,28.9798375 25.1211291,28.8860987 Z M25.6731298,29.0105367 C25.4060319,29.1426355 25.1371216,29.3511552 24.866399,29.4679698 C24.8657193,29.4450436 24.8648131,29.3631641 24.86436,29.3631641 C24.8636804,29.3577055 24.8625477,29.2277901 24.8616415,29.2277901 C24.8607353,29.2277901 24.8598291,29.2277901 24.8586964,29.2277901 C24.8605088,29.2277901 24.8625477,29.3697145 24.86436,29.3806318 C24.8577902,29.3839069 24.8516735,29.3926407 24.8451036,29.3980994 C24.8292454,29.311853 24.812481,29.2212398 24.7963962,29.1339017 C24.8181446,29.1917632 24.8401196,29.2288819 24.8616415,29.2288819 C24.8625477,29.2288819 24.8636804,29.2288819 24.86436,29.2288819 C25.1359889,29.2288819 25.4053522,29.0236374 25.6731298,28.8893551 C25.7372423,28.8489613 25.8009018,28.8566033 25.8647878,28.8314937 C25.8729434,28.8478695 25.8801929,28.8707958 25.888122,28.8849882 C25.8163069,28.9264738 25.7451714,28.9646842 25.6731298,29.0105367 Z" id="形状"></path>
            </g>
        </g>
    </g>
</svg>
