<?xml version="1.0" encoding="UTF-8"?>
<svg width="61px" height="51px" viewBox="0 0 61 51" version="1.1" xmlns="http://www.w3.org/2000/svg" xmlns:xlink="http://www.w3.org/1999/xlink">
    <title>52</title>
    <g id="页面-1" stroke="none" stroke-width="1" fill="none" fill-rule="evenodd">
        <g id="植物" transform="translate(-242.000000, -559.000000)" fill="#545458">
            <path d="M281.457636,597.071174 C281.799898,597.585072 281.648118,598.342291 281.717782,598.9272 C281.791485,599.545763 282.03817,600.107115 282.257932,600.68462 L282.33554,600.892527 C282.827066,602.240008 283.052793,603.512989 282.211825,604.820379 C281.586131,605.793166 280.628566,606.013933 279.609291,606.193065 L279.095761,606.28245 L278.889151,606.320681 C277.615341,606.56501 276.667304,607.289584 275.619986,608.000696 C274.459928,608.789213 273.291456,609.242198 271.868895,609.232438 C270.576912,609.223688 269.415843,608.85181 268.197563,608.479931 C266.9776,608.10738 265.864994,608.113101 264.636617,608.440219 C264.153882,608.568644 263.679762,608.727437 263.201679,608.872834 L262.744879,609.007531 C262.298411,609.144434 261.743393,609.357748 261.398415,608.85955 C261.235529,608.624308 261.247307,608.265218 261.274567,607.941801 C261.754812,607.810214 262.239095,607.714972 262.759725,607.706559 L263.338981,607.699839 C263.911707,607.690279 264.467253,607.655825 265.027342,607.449105 C265.636918,607.224057 266.179269,606.870821 266.715877,606.504819 L267.118217,606.229728 C267.588599,605.910203 268.066351,605.602996 268.592663,605.385432 C270.010849,604.79884 271.617162,604.65682 272.866404,603.700369 C274.030837,602.80887 274.585458,601.359386 274.859739,599.961729 C275.499505,599.732544 276.169559,599.561581 276.791151,599.311867 C278.331838,598.692631 279.877573,597.823007 281.457636,597.071174 Z M288.740058,587.782964 L289.514173,587.847682 C290.631917,587.942118 291.745689,588.055647 292.827691,588.382681 C294.380877,588.852203 295.464859,589.631241 296.190355,591.059989 L296.251665,591.184053 C296.901526,592.53594 297.857304,593.574507 298.014469,595.137069 C298.168942,596.674391 297.44807,597.928345 297.228981,599.398358 C297.134413,600.031729 297.38581,600.841785 297.116576,601.425684 C296.850372,602.003526 296.108971,602.186605 295.567812,602.415116 C294.383523,602.915217 293.285388,603.635753 292.381101,604.552828 C291.512823,605.432884 290.914116,606.746069 289.807568,607.358911 C289.18074,607.706239 288.495451,607.769951 287.799846,607.789416 L287.372907,607.797842 C286.779767,607.80751 286.186276,607.820519 285.622001,607.983869 C284.940841,608.181082 284.119679,608.812434 283.386692,608.611182 C282.814235,608.454354 282.511011,607.880551 281.88538,607.799444 C281.299125,607.724059 280.774793,608.019879 280.247769,608.226516 C279.849304,608.382671 279.461271,608.496422 279.064826,608.253102 C278.821843,608.104351 278.553619,607.86507 278.356069,607.602568 C278.536119,607.531557 278.72189,607.470643 278.91742,607.425547 C279.130884,607.376568 279.345034,607.336496 279.558472,607.299031 L280.06864,607.210892 C280.871974,607.069045 281.648863,606.892044 282.322547,606.334143 C283.183757,605.620674 283.567751,604.695185 283.654915,603.601762 C283.712127,602.885938 283.608809,602.149922 283.370538,601.473137 C283.133949,600.799381 282.717311,600.206394 282.488799,599.529609 C282.18894,598.642486 282.426202,597.608294 281.981294,596.827181 C284.244536,595.79871 286.584846,595.093319 289.087369,595.777508 C289.341794,595.846835 289.689105,595.641209 289.654778,595.345389 C289.44242,593.503833 288.765298,591.703 287.436969,590.389478 C287.544999,590.244092 287.648654,590.092312 287.744568,589.92808 C288.142024,589.24591 288.357747,588.471864 288.740058,587.782964 Z M249.018735,594.066194 C249.24691,594.233792 249.47946,594.394995 249.716385,594.549131 L249.960436,594.705467 C250.906516,595.301661 251.97221,595.849635 253.098291,595.912798 C254.063829,595.966981 254.795133,595.670824 255.376677,594.979904 C255.480332,595.007837 255.583314,595.037453 255.684613,595.07279 C256.325388,595.294571 256.938566,595.588035 257.542658,595.894288 C258.575841,596.417946 259.587148,596.989394 260.668456,597.411754 C261.400625,597.697623 262.154958,597.856485 262.915528,597.995195 L263.647069,598.125669 C263.982759,598.185841 264.31867,598.248732 264.653444,598.323445 C265.716242,598.560033 266.994427,599.415858 268.042754,598.767679 C268.304247,599.247588 268.911704,599.549802 269.346179,599.862449 C270.023301,600.351107 270.837395,601.187413 271.686489,601.329433 C272.298745,601.431892 272.79522,601.118313 273.276998,600.789065 L273.421191,600.690221 C273.541153,600.608126 273.660829,600.527555 273.781797,600.454762 C273.929875,600.365915 274.084347,600.288174 274.241176,600.215144 L274.153519,600.448798 C273.76691,601.459421 273.283691,602.437689 272.36462,603.072382 C271.37788,603.753879 270.163302,603.965227 269.042282,604.324653 C267.893666,604.693166 266.980629,605.334278 265.952495,605.937697 C265.446336,606.234863 264.888687,606.517558 264.312864,606.64679 C263.95327,606.727391 263.586187,606.739927 263.218053,606.743461 L262.849806,606.746182 C262.604392,606.748911 262.359465,606.75639 262.116931,606.786118 C260.888218,606.936215 259.792775,607.643626 258.556658,607.734492 C257.948191,607.779252 257.338714,607.670885 256.889095,607.232035 C256.512168,606.864195 256.292743,606.348277 255.976394,605.931639 C255.395523,605.16567 254.645036,604.904178 253.701037,605.076823 L253.530294,605.110227 C252.933945,605.233362 252.350466,605.40501 251.770635,605.09466 C251.118754,604.746003 251.001637,604.091093 250.629422,603.521665 C250.288842,603.001372 249.626192,602.816947 249.293352,602.315837 C248.90431,601.730591 249.182967,600.893612 249.466335,600.32553 C249.788742,599.679034 250.217159,599.084701 250.71524,598.562726 C251.14635,598.11075 251.688855,597.77892 251.973233,597.210165 C252.042224,597.072183 251.961454,596.858479 251.780731,596.874297 C250.632706,596.97646 249.7026,598.256153 249.111929,599.179881 L249.063495,599.256001 C248.979696,599.387925 248.89758,599.526581 248.818492,599.669611 L248.642177,599.301714 C248.554671,599.117777 248.471114,598.933258 248.404883,598.745468 C248.173679,598.089212 248.027283,597.412763 248.092909,596.713093 C248.184112,595.737459 248.617241,594.915625 249.018735,594.066194 Z M287.07687,590.819578 C287.984859,592.00555 288.605105,593.323111 288.732317,594.799518 C285.482288,594.287951 282.392728,595.663723 279.507291,597.085384 L278.186783,597.739829 C277.527483,598.064518 276.863592,598.380404 276.181338,598.654265 C275.371282,598.979364 274.515794,599.208212 273.730979,599.595572 C273.364822,599.776967 273.051165,600.023316 272.710248,600.243414 C272.176494,600.588706 271.826827,600.630773 271.262447,600.261924 C270.82427,599.975527 270.410324,599.640332 269.984935,599.335088 C269.586133,599.048692 268.830598,598.680515 268.621605,598.21878 C268.826896,597.954259 269.004253,597.661467 269.204159,597.40435 C269.653105,596.826844 270.209072,596.391696 270.807106,595.983808 C271.317976,595.988856 271.812019,596.036981 272.221254,596.335494 C271.903222,596.593621 271.634325,596.901557 271.453939,597.281175 C271.363409,597.471994 271.592931,597.676948 271.757163,597.515408 C272.632507,596.653526 273.547227,596.1403 274.709642,595.747892 C275.268301,595.559092 275.829988,595.37837 276.394705,595.207407 C276.684467,595.120242 276.995768,595.006491 277.311108,594.918654 C277.550389,595.110819 277.901401,595.191589 278.393762,595.088944 C279.12574,594.936154 279.705264,594.380861 280.250461,593.90802 C281.168184,593.11197 282.096486,592.810962 283.251977,592.592121 L283.39174,592.566229 C284.818339,592.307092 286.120419,591.830885 287.07687,590.819578 Z M256.450245,581.354684 C256.62491,581.781755 256.808325,582.20849 257.070491,582.58609 C257.381118,583.03369 257.806507,583.348356 258.219107,583.693984 C259.024114,584.369087 259.443781,585.332269 259.963738,586.227469 C258.964546,586.35098 258.015836,586.693242 257.184242,587.27445 C256.508417,587.746449 256.171503,588.126825 256.562757,588.861452 L256.600342,588.929224 C257.085635,589.771588 257.056019,590.762703 257.867421,591.411891 C258.682861,592.064445 259.800852,592.169446 260.72937,592.595844 C261.738995,593.059262 262.483088,593.932587 263.48127,594.386245 C264.497289,594.848317 265.351095,594.354947 266.367114,594.192734 C267.764098,593.969943 267.960638,595.374331 269.04935,595.814191 C269.313535,595.920875 269.598585,595.961596 269.891377,595.97674 C269.304184,596.373619 268.824358,596.891793 268.369716,597.469828 L268.178507,597.71528 C267.849454,598.128201 267.547998,598.390039 266.916686,598.316041 C266.572404,598.275656 266.235526,598.091231 265.911773,597.978153 C265.279374,597.756783 264.630755,597.622366 263.973951,597.506356 L263.727282,597.463581 C262.332654,597.225646 261.064229,596.902566 259.787727,596.281647 C258.633726,595.719959 257.526168,595.064376 256.331782,594.587497 C255.730382,594.347206 255.114175,594.226388 254.49864,594.039944 C253.590315,593.764316 253.860221,592.716326 253.634402,591.986368 C253.573151,591.788369 253.49455,591.597213 253.411536,591.40784 L253.243459,591.029971 C253.132597,590.777643 253.029225,590.522487 252.964011,590.252506 C252.773528,589.464662 252.872472,588.67177 253.047473,587.89234 C253.086512,587.7186 253.12818,587.54545 253.171163,587.372594 L253.434317,586.336635 L253.558007,585.816888 C253.713489,585.123949 253.735028,584.415193 253.879404,583.723937 C254.119461,582.572913 254.998775,582.065482 255.936474,581.60487 L256.450245,581.354684 Z M260.313068,586.784782 C260.362203,586.856129 260.412348,586.926466 260.464512,586.995793 C260.886535,587.553779 261.38327,588.110419 261.933516,588.590327 C261.635676,588.578885 261.341876,588.635424 261.065239,588.795617 C260.922208,588.878407 260.939372,589.12913 261.1137,589.164803 L261.393885,589.218747 C261.992835,589.328849 262.542476,589.40828 263.110065,589.717741 C263.687907,590.032744 264.200123,590.454431 264.761474,590.79703 C265.797165,591.42956 266.980658,591.698412 268.167357,591.884875 L268.577405,591.94766 C269.253088,592.052983 269.879013,592.181845 270.437583,592.630508 L270.87793,592.986318 C271.122093,593.180717 271.370266,593.366735 271.646441,593.529747 C272.221254,593.868644 272.843519,594.128118 273.390399,594.514468 C273.733671,594.757114 274.027808,595.057646 274.378821,595.269667 L274.336754,595.283801 C273.747806,595.490101 273.109387,595.734431 272.562843,596.088136 C272.162359,595.650295 271.62894,595.49313 271.015425,595.453082 C270.489747,595.418082 269.9358,595.498178 269.426276,595.3326 C269.075097,595.218555 268.841178,594.985224 268.623494,594.725674 L268.399082,594.450577 C268.359855,594.402735 268.320025,594.355085 268.279006,594.308168 C267.770155,593.727297 267.181544,593.469843 266.40346,593.55869 C265.937687,593.611863 265.505231,593.779797 265.049217,593.877394 C264.295028,594.038598 263.774734,593.875375 263.178046,593.436862 C262.409049,592.871135 261.715437,592.289592 260.826294,591.905598 C259.983931,591.541796 258.871324,591.444536 258.182087,590.797703 C257.755353,590.397892 257.686698,589.827117 257.509004,589.301103 C257.38684,588.939657 256.95573,588.459749 257.192319,588.111765 C257.449436,587.733492 258.176029,587.441038 258.587956,587.26469 C259.118346,587.037524 259.675995,586.899206 260.244077,586.806657 C260.269654,586.802618 260.292203,586.794541 260.313068,586.784782 Z M265.936677,582.659456 C266.514332,583.852757 267.368798,584.922943 268.229204,585.927685 L268.551605,586.301508 C269.761135,587.6958 270.9323,589.256679 272.335341,590.461834 C273.663671,591.603383 276.465715,592.583729 276.487254,594.62317 C275.97874,594.764854 275.471235,594.91125 274.968442,595.07279 L274.462058,594.631 C274.178348,594.386193 273.888606,594.147301 273.582564,593.938645 C273.029963,593.562055 272.414092,593.291812 271.847356,592.93878 C271.285332,592.58844 270.846145,592.064782 270.265947,591.745404 C270.204697,591.71175 270.141763,591.682807 270.07883,591.654538 C270.071426,591.645451 270.066715,591.636028 270.057292,591.627614 C269.901286,591.486566 269.774863,591.324843 269.654179,591.158726 L269.474476,590.908288 C269.383797,590.783456 269.28964,590.660731 269.181947,590.54698 C268.831607,590.176447 268.466123,589.84529 268.157515,589.435719 C267.801454,588.962879 267.500922,588.440566 267.330969,587.870465 C267.155967,587.2832 267.217891,586.716127 267.170775,586.117756 C267.089668,585.091978 266.338171,583.84913 265.936677,582.659456 Z M248.174688,578.941345 C248.190842,579.096827 248.200939,579.254665 248.202958,579.416205 L248.208225,579.756868 C248.226583,580.771919 248.279588,581.727135 248.68152,582.692437 C249.083687,583.658311 249.727491,584.442116 250.511633,585.123613 C250.920867,585.479337 251.351977,585.811504 251.738327,586.193478 C252.012945,586.465404 252.235735,586.777378 252.483766,587.069159 C252.348476,587.646328 252.229341,588.226189 252.182561,588.823214 C252.14083,589.36168 252.163379,589.910916 252.29362,590.437604 C252.454487,591.086119 252.837471,591.653192 253.004396,592.296995 C253.25209,593.251091 253.005742,594.216628 254.115656,594.638651 C254.25734,594.692498 254.403399,594.735912 254.550804,594.774951 C252.565546,595.828326 249.811626,593.740759 248.415652,592.489497 C247.618385,591.77502 247.00588,590.887896 246.217363,590.172072 C245.934668,589.915628 245.627742,589.695866 245.277739,589.54072 C244.668599,589.269804 243.930227,589.258362 243.518636,588.657635 C242.711946,587.481759 243.205316,586.186411 243.291471,584.918659 C243.360462,583.903313 242.291606,582.537291 243.27498,581.78815 C243.633397,581.515215 244.079651,581.372521 244.446818,581.110019 C244.789754,580.864343 245.027352,580.537225 245.312739,580.234001 C246.097891,579.400051 247.169102,579.300435 248.174688,578.941345 Z M295.328842,577.08027 C295.334926,577.270416 295.147135,577.65441 295.094971,577.838498 C294.880258,578.595717 294.720737,579.376157 294.622804,580.15727 C294.496264,581.162856 294.521505,582.214884 294.172175,583.179412 C293.858854,584.044661 293.262166,584.6013 292.376052,584.854716 C291.580468,585.081545 290.784884,585.132363 290.034397,585.513328 C288.679144,586.201219 288.043753,587.377095 287.477354,588.720905 C286.703645,590.556403 285.372623,591.454295 283.445923,591.813722 L282.923169,591.908725 C282.34228,592.014836 281.764225,592.133462 281.219028,592.371371 C280.547156,592.664431 280.045614,593.139547 279.497419,593.601901 L279.197095,593.853537 C278.919839,594.085035 278.584875,594.342958 278.246357,594.36538 L278.178375,594.365716 C278.092557,594.346533 278.006739,594.335427 277.921257,594.331389 C277.451109,594.177926 277.540965,593.558017 277.687024,593.134984 C278.014816,592.184591 278.835304,591.513527 279.654446,590.993234 C281.153739,590.040821 282.726734,589.215958 284.207517,588.230228 L284.564931,587.989563 C287.652989,585.88639 290.479541,583.324562 291.981962,579.835872 C292.099752,579.562264 291.724172,579.319954 291.570709,579.595245 C291.335466,580.017268 291.083396,580.425157 290.818875,580.822612 C291.033252,580.131692 291.155416,579.41082 291.211619,578.676487 C291.926096,578.186819 292.55341,577.588448 293.265868,577.094742 C293.624958,576.846037 294.001548,576.617526 294.440062,576.546852 L294.518717,576.534697 C294.889915,576.480329 295.308439,576.472476 295.328842,577.08027 Z M283.683185,580.161645 C284.32295,580.249818 284.485163,580.485734 284.17016,580.869391 C283.912706,581.327761 283.538809,581.730938 283.198902,582.129739 C282.447404,583.011142 281.629945,583.834659 280.746524,584.584137 C279.888679,585.31174 278.971267,585.972034 278.003037,586.545164 C277.012932,587.131083 275.923547,587.521471 274.935461,588.103015 C274.715363,588.23292 274.873537,588.522346 275.098347,588.489028 C276.988028,588.208016 278.879728,586.905264 280.357482,585.762705 C281.044699,585.23097 281.714753,584.649762 282.349471,584.030526 C282.284518,584.230432 282.236729,584.435385 282.214181,584.646733 C282.143171,585.305682 282.215191,585.971361 282.186921,586.632665 L282.17187,587.026297 C282.145175,587.675403 282.084291,588.422495 281.695907,588.913743 C280.134691,589.814665 278.242318,590.646259 277.308752,592.227668 C277.077211,592.619739 276.914662,593.156186 276.889758,593.661671 C276.631967,592.926328 275.97773,592.31988 275.34234,591.847376 C274.693488,591.364439 273.992808,590.957224 273.338571,590.482027 C272.765105,590.065389 272.266687,589.57774 271.790817,589.059803 C276.123571,588.204274 279.410546,584.857118 282.221591,581.634714 L282.743224,581.032614 C282.869226,580.88669 282.996304,580.738827 283.134108,580.60281 L283.239623,580.503234 C283.373567,580.37131 283.521645,580.257559 283.683185,580.161645 Z M299.98492,581.144009 C300.386414,581.901228 301.002285,582.562868 301.663926,583.065661 C301.930466,583.268259 302.2522,583.435857 302.481048,583.682879 C302.887591,584.121392 302.893648,584.639666 302.821965,585.19496 C302.718526,585.996842 302.445332,586.831515 302.147078,587.591196 L302.077872,587.765127 C301.790465,588.478461 301.656677,589.067492 301.641211,589.817882 L301.639695,589.981253 C301.641041,590.771453 301.466039,591.533719 300.95315,592.161706 C300.302615,592.95729 299.040248,592.833779 298.402838,593.489026 C298.132932,592.821664 297.764419,592.184254 297.351819,591.529008 C296.900517,590.812511 296.637005,590.009523 296.045028,589.385238 C295.488052,588.7973 294.729824,588.399171 293.989096,588.093592 C293.437841,587.86609 292.861682,587.70354 292.273071,587.589453 C292.948426,586.933933 293.87657,586.788686 294.806208,586.676238 L295.048591,586.647334 C295.331025,586.613748 295.611573,586.579355 295.883152,586.530693 L296.182879,586.475312 C297.352591,586.250658 298.551784,585.899084 299.135153,584.769235 C299.692465,583.688936 299.817659,582.373395 299.98492,581.144009 Z M267.443374,577.701863 C266.993081,578.244031 266.738319,578.951441 266.729569,579.653803 C266.335815,579.505725 265.916148,579.605678 265.645905,579.971835 L265.62302,580.006835 C264.160747,581.516561 266.552212,584.642695 266.635337,586.268527 C266.701299,587.556808 266.841301,588.573163 267.630154,589.647404 C267.978138,590.121591 268.402853,590.500873 268.79829,590.9303 C268.927522,591.069965 269.031513,591.231505 269.138533,591.384968 L268.628486,591.29111 C268.543902,591.274994 268.459729,591.258092 268.376267,591.239582 C268.054533,591.168235 267.730443,591.098908 267.4077,591.025205 C267.126928,590.78328 266.926157,590.482673 266.73424,590.173243 L266.590851,589.940295 C266.494883,589.784933 266.396681,589.630481 266.287353,589.483172 C265.957206,589.037927 265.555376,588.656289 265.179122,588.25143 C264.664887,587.698492 264.204834,587.098775 264.158055,586.31497 C264.115314,585.597127 264.343826,584.887361 264.417529,584.178268 C264.478417,583.593617 264.391338,583.078649 264.245232,582.52563 L264.207527,582.386521 C263.957476,581.484253 264.135843,580.953527 264.588492,580.162991 C264.923687,579.578418 265.219844,578.815142 265.700088,578.336916 C266.11841,577.920615 266.80832,577.708593 267.443374,577.701863 Z M260.962257,571.456325 C261.808322,571.947676 262.526838,572.693452 262.995304,573.550286 C263.012804,573.814471 263.014487,574.083705 262.989246,574.362361 C262.876842,575.617324 262.569916,576.836278 262.615685,578.103357 C262.63857,578.734372 262.65607,579.328704 262.585733,579.95972 C262.571935,580.079865 262.558473,580.199674 262.546694,580.318473 C262.18222,579.152693 262.070152,577.96874 262.020007,576.736661 C262.010584,576.505121 261.633994,576.425697 261.593272,576.678776 C261.371828,578.054222 261.617167,579.39433 262.0927,580.694053 C262.55006,581.943968 263.098286,583.25749 263.77608,584.417885 C263.712474,584.88063 263.611848,585.342028 263.574829,585.815879 C263.513915,586.590934 263.694637,587.295652 264.141228,587.932725 C264.587146,588.569125 265.195613,589.065187 265.683598,589.66625 C265.973697,590.023321 266.18841,590.414382 266.442162,590.775828 C266.382258,590.759001 266.322017,590.74352 266.262449,590.72501 C265.630713,590.52972 265.095653,590.198192 264.559993,589.83491 L264.291662,589.651106 C263.981371,589.437066 263.613867,589.189034 263.222133,588.985427 L262.728638,588.542545 C262.132017,588.002523 261.563993,587.456447 261.075335,586.786128 C260.481675,585.971361 260.090614,585.055968 259.539023,584.220335 C259.019739,583.433165 258.160885,583.017199 257.617707,582.266039 C257.262992,581.775361 257.060058,581.16925 256.828517,580.615976 C256.595967,580.059672 256.288368,579.495965 256.118415,578.918124 C255.854566,578.021577 256.912653,576.80195 257.289916,575.980789 C257.505742,575.511262 257.63453,575.027293 257.754356,574.540022 L257.85669,574.121812 C257.925878,573.842813 257.999423,573.563774 258.091894,573.286774 C258.467138,572.16037 259.67936,570.711222 260.962257,571.456325 Z M267.000148,580.895642 C267.35419,581.650168 267.832752,582.383155 268.380305,583.00744 C268.732664,583.409607 269.103533,583.783168 269.386901,584.240191 C269.608345,584.597598 269.767866,584.990679 269.999743,585.342365 C270.485651,586.0804 271.201468,586.543423 271.944694,586.97651 L272.583735,587.346111 C272.89565,587.529298 273.202189,587.719562 273.488332,587.935081 C272.829048,588.210372 272.155965,588.454028 271.483891,588.720232 C270.439603,587.544693 269.381516,586.375547 268.37694,585.16568 C267.923955,584.620147 267.493182,584.05543 267.106832,583.460425 C267.03986,582.905804 266.909282,582.36229 266.911894,581.794544 C266.913321,581.489974 266.953706,581.192135 267.000148,580.895642 Z M280.053921,565.838437 C281.47379,565.964304 282.513367,567.386192 283.475875,568.318748 C284.403047,569.216978 285.510942,570.091312 286.144986,571.23589 C286.807636,572.432295 286.765905,573.849135 286.774992,575.175109 C286.778245,575.63359 286.795409,576.091997 286.815751,576.550379 L286.857493,577.467125 C286.883907,578.078286 286.903252,578.689462 286.890089,579.300771 C286.832204,582.008921 285.55301,584.337788 284.802859,586.873292 C284.081987,587.396951 283.340922,587.896042 282.586059,588.370902 C282.770148,587.680655 282.744571,586.798917 282.753321,586.348287 C282.755415,586.239739 282.755002,586.130426 282.75349,586.020664 L282.745422,585.607562 C282.733849,584.986599 282.743224,584.363894 283.024237,583.79562 C283.398134,583.040757 283.989774,582.379453 284.425595,581.657235 C284.429634,581.650841 284.43199,581.644447 284.434682,581.637716 L284.547424,581.485935 L284.615227,581.386743 C284.963215,580.858786 285.258005,580.101628 284.707281,579.604332 C284.544395,579.456927 284.365018,579.381878 284.180593,579.356974 C284.339777,578.787209 284.06314,578.013837 283.893523,577.520803 C283.580876,576.610458 283.103997,575.765739 282.574954,574.965107 L282.354615,574.635572 C281.210477,572.94526 279.967012,571.451848 278.129577,570.459152 C277.27678,569.998764 276.323695,569.65751 275.343013,569.474432 C274.658487,569.139236 274.026462,568.654953 273.361793,568.280382 C272.990587,568.071054 272.615344,567.867109 272.236061,567.671579 C273.496746,567.315518 274.730171,566.849744 275.991865,566.493347 L276.502213,566.349867 C277.649475,566.031379 278.877782,565.734256 280.053921,565.838437 Z M270.567825,581.666322 C270.802731,582.27075 271.447208,582.772197 272.04356,583.10571 C273.481602,583.910381 274.873537,583.945717 276.47985,583.904659 C277.364954,583.882448 278.470493,584.001247 279.401367,583.758264 C279.119009,584.039613 278.831266,584.31524 278.536455,584.582117 C277.522119,585.501212 276.414898,586.337518 275.249454,587.055698 C274.860076,587.295652 274.458918,587.500269 274.05103,587.688059 C273.300206,586.872956 272.245485,586.500404 271.36913,585.84785 C270.82326,585.441308 270.518017,584.926736 270.200995,584.360337 C270.305323,583.673119 270.182148,582.987584 270.360515,582.287577 C270.415035,582.0732 270.486045,581.867237 270.567825,581.666322 Z M291.879654,561.80465 C292.423841,562.144894 292.766777,562.769178 293.262839,563.175384 C293.715824,563.545916 294.234771,563.820534 294.797132,563.981064 C295.361512,564.142604 295.972672,564.125104 296.527292,564.320298 C297.219497,564.564036 297.352537,565.093826 297.457718,565.681549 L297.482698,565.823598 C297.507688,565.966526 297.533521,566.111739 297.567542,566.256085 C297.748601,567.0234 298.025912,567.76682 298.328799,568.494086 C298.539137,568.998899 298.777072,569.48924 299.151643,569.895445 C299.595205,570.3767 300.260547,570.66276 300.602474,571.231852 C301.344211,572.46494 300.442953,574.08808 300.04718,575.287177 C299.575349,576.717142 299.197076,578.17504 298.798274,579.626207 C298.429761,580.965642 298.435819,582.472675 297.908795,583.758264 C297.388143,585.029207 296.269079,585.445509 295.069356,585.772009 L294.868745,585.825725 L294.509368,585.919744 C293.389686,586.212537 292.269444,586.529534 291.556574,587.473346 C290.710845,587.364643 289.848626,587.342431 289.00357,587.366326 C289.689441,586.416605 290.68796,585.952515 291.815374,585.720637 L292.272266,585.628685 C292.917662,585.496264 293.547409,585.334112 294.063135,584.879957 C294.747324,584.277211 295.119202,583.363501 295.262906,582.481425 C295.462138,581.256751 295.301271,580.005153 295.526418,578.783507 C295.670794,578.001048 296.422291,576.783441 295.6469,576.134589 C294.371407,575.067079 292.385476,576.748777 291.248638,577.85297 C291.272196,576.325408 291.062531,574.770922 290.858587,573.341967 C290.750124,572.581864 290.624848,571.826211 290.462626,571.076493 L290.31272,570.418274 C290.198754,569.937449 290.055482,569.493004 289.564248,569.258372 C289.163764,569.06688 288.699,568.947744 288.230534,568.857215 C287.931685,568.335575 287.677933,567.788695 287.592788,567.187296 C287.509999,566.60205 287.647981,566.016468 287.568557,565.425837 C287.49822,564.901169 287.323218,564.442463 286.999802,564.020776 C286.69927,563.628706 286.286334,563.315385 286.013398,562.902449 C287.140076,562.80969 288.198131,562.502188 289.260771,562.091974 L289.778875,561.887928 C290.456463,561.626499 291.225439,561.396313 291.879654,561.80465 Z M285.14041,569.07462 C285.636808,569.127065 286.129702,569.199375 286.620647,569.294081 L286.914993,569.353613 C287.570913,569.492269 288.486306,569.597269 289.070542,569.936503 C289.577074,570.230441 289.615183,571.179735 289.712274,571.7449 L289.723769,571.808347 C289.836089,572.39393 289.934212,572.981594 290.029212,573.570063 L290.12358,574.158753 C290.351755,575.589391 290.640844,576.995462 290.53719,578.452014 C290.42815,579.980585 289.906511,581.301174 289.376794,582.716668 L289.372419,582.732149 C288.255775,584.036584 286.98533,585.201354 285.622337,586.258094 C285.762695,585.881191 285.91509,585.507821 286.070535,585.135395 L286.405028,584.337846 C286.878078,583.202929 287.319853,582.059631 287.476008,580.834728 C287.629807,579.629909 287.565191,578.412302 287.50495,577.203445 C287.445383,575.995597 287.484085,574.781355 287.401632,573.575527 C287.335334,572.60797 287.151918,571.635028 286.646433,570.793338 C286.256381,570.144149 285.702434,569.598616 285.14041,569.07462 Z M254.756768,568.562741 C254.75071,569.129477 254.69619,569.698568 254.540035,570.301651 L254.456412,570.628515 C254.155737,571.820444 253.931203,572.945942 254.138204,574.198129 C254.344841,575.447034 254.805566,576.886759 255.543602,577.957634 C255.416726,578.248406 255.336292,578.545909 255.421774,578.876729 C255.586006,579.513129 255.930624,580.147846 256.200867,580.758669 C255.365235,581.027566 254.505035,581.452281 253.890173,582.078585 C253.063627,582.919602 253.124205,584.005958 252.932039,585.093661 C252.867087,585.460827 252.783961,585.823619 252.696797,586.185065 C252.478297,585.897953 252.203627,585.643307 251.93163,585.403315 L251.815395,585.301307 C251.027214,584.61207 250.20437,583.99317 249.663212,583.075085 C249.08945,582.1014 248.933875,581.079189 248.916871,579.97676 L248.915416,579.832507 C248.909695,578.719228 248.77003,577.788017 248.340267,576.754498 L248.056731,576.079732 L247.771175,575.405976 C247.657761,575.136743 247.476365,574.898472 247.564539,574.621498 C247.668972,574.294316 248.118294,574.063266 248.407262,573.867896 L248.462768,573.829279 C249.316574,573.214081 250.289515,572.786337 251.13659,572.171139 C251.895155,571.620221 252.075205,570.808482 252.600883,570.084245 C253.142378,569.338469 253.955126,568.953466 254.756768,568.562741 Z M274.466322,577.607294 C274.354927,578.002394 274.277522,578.40658 274.197089,578.81043 C273.119819,578.796296 271.637354,579.351589 270.914126,580.172414 C270.382054,580.717275 270.025993,581.396415 269.823059,582.139163 C269.716712,582.527531 269.622143,582.998017 269.620124,583.453694 C269.479281,583.269942 269.330109,583.092437 269.174312,582.915359 L269.016369,582.738206 C268.525355,582.194019 268.0091,581.547859 267.699482,580.855593 C268.801655,580.686649 269.817674,580.037797 270.666768,579.348224 C270.838853,579.208671 271.001515,579.047729 271.162756,578.882238 L271.404551,578.632694 C271.647282,578.383948 271.895818,578.14391 272.177167,577.969413 C272.552074,577.736526 273.920452,577.315513 274.466322,577.607294 Z M263.387038,572.131764 C263.72257,572.558835 264.116997,572.899751 264.52926,573.266245 C265.084554,573.760625 265.187536,574.444477 265.50826,575.082223 C265.922879,575.90574 266.566683,576.661949 267.364286,577.142531 C266.352642,577.081616 265.296575,577.764796 264.797484,578.600428 C264.381519,579.295723 263.879735,580.015922 263.584588,580.772804 C263.279682,581.55459 263.584252,582.248539 263.759253,583.019892 C263.783484,583.126912 263.799975,583.232923 263.811754,583.338933 C263.565742,582.753687 263.292807,582.178201 263.039728,581.595648 C263.04343,581.578484 263.046122,581.560648 263.046122,581.541128 C263.034343,580.475974 263.228864,579.434378 263.177373,578.368215 C263.119488,577.172819 263.335211,576.031943 263.487664,574.851692 C263.608483,573.917117 263.583915,573.042782 263.387038,572.131764 Z M273.176022,571.565028 C274.020068,571.653538 274.848633,571.940608 275.576236,572.374747 C275.96898,572.609316 276.383936,572.891338 276.675717,573.249082 C277.052644,573.71149 277.062403,574.175917 277.111202,574.74097 C277.228655,576.099588 277.980152,576.963154 278.848429,577.948547 C279.917622,579.162116 280.829986,581.14098 280.203009,582.772534 C279.23175,583.21273 278.25578,583.180085 277.18827,583.210374 C276.116722,583.240663 274.967432,583.38403 273.912711,583.148451 C273.643478,583.088546 273.232224,582.964026 272.807172,582.785659 C273.710786,582.363636 274.27382,581.064249 274.545746,580.172077 C274.919644,578.943028 274.959019,577.665516 275.63614,576.538438 C276.15778,575.670498 276.343214,574.865154 275.772103,573.955146 C275.183829,573.017541 273.990789,572.45518 272.973087,572.12436 C272.837125,572.079936 272.75972,572.203111 272.780586,572.312823 C272.745585,572.370035 272.736162,572.442728 272.775201,572.504315 C273.049146,572.936435 273.508525,573.194562 273.778095,573.634085 C274.126415,574.200821 274.060116,574.680729 273.760258,575.152224 C273.643478,574.891068 273.452322,574.647412 273.288427,574.435727 C273.126045,574.22623 272.947305,574.036608 272.75571,573.856315 L272.639238,573.749182 C272.225965,573.377304 272.049617,573.032685 272.047262,572.457199 C272.046589,572.303736 271.826827,572.184601 271.717451,572.3209 C271.440141,572.666192 271.430718,573.047493 271.595959,573.396823 C271.315284,573.294178 271.031243,573.193552 270.747202,573.094946 C270.943742,572.956964 271.106291,572.774558 271.258072,572.566239 C271.455958,572.29465 271.610094,571.983685 271.882693,571.777049 C272.257937,571.493344 272.73347,571.519258 273.176022,571.565028 Z M274.064828,579.437407 C274.039587,579.54611 274.013674,579.654476 273.984731,579.76217 C273.840018,580.299627 273.631026,580.812516 273.336216,581.285693 C273.072367,581.709736 272.660104,582.036517 272.459862,582.489839 C272.442698,582.529214 272.436977,582.574311 272.441688,582.619071 C271.735624,582.270414 271.093503,581.778053 271.111676,581.18675 C271.142638,580.161308 273.032655,579.553514 274.064828,579.437407 Z M266.585529,580.207414 C266.389999,580.760352 266.3062,581.431416 266.335479,582.084306 L266.319661,582.050652 C266.248045,581.887228 266.179014,581.717126 266.126697,581.544311 L266.088693,581.405595 L266.065316,581.294881 C265.992856,580.909188 265.896136,579.96681 266.585529,580.207414 Z M277.942123,571.05685 C279.564253,571.96181 280.634792,573.238649 281.691869,574.734912 C282.161008,575.398909 282.608608,576.083434 282.965342,576.815749 C283.306931,577.517101 283.756551,578.564418 283.6953,579.397022 C283.407557,579.477456 283.130247,579.643371 282.905437,579.827795 C282.201393,580.404628 281.677061,581.190452 281.104267,581.901564 C281.225759,580.666793 280.695706,579.245579 280.079835,578.332205 C279.880333,578.036317 279.6503,577.7652 279.413644,577.499574 L279.056681,577.102846 C278.819379,576.837893 278.587408,576.568795 278.384675,576.276273 C277.791016,575.419774 277.975441,574.487554 277.61938,573.569806 C277.065293,572.141297 275.013589,571.28156 273.590338,571.045733 L273.496409,571.030936 C272.846211,570.933676 272.113224,570.879829 271.556921,571.295121 C270.981098,571.724548 270.828981,572.518786 270.243736,572.924656 L270.019262,572.84927 C269.759789,572.763789 269.501998,572.712634 269.245217,572.694798 C269.411132,572.501286 269.700558,572.388881 269.888684,572.224313 C270.06032,572.074888 270.202781,571.895051 270.335986,571.710658 L270.517267,571.455162 C271.011534,570.763032 271.446896,570.260929 272.370341,570.072803 C274.240839,569.691501 276.295425,570.137419 277.942123,571.05685 Z M271.439804,577.793065 C270.964271,578.205329 270.55369,578.704756 270.058638,579.096827 C269.281227,579.712362 268.444921,580.083567 267.54299,580.442657 C267.346113,579.806593 267.352507,579.141587 267.732463,578.489706 C268.566076,577.059405 270.143446,577.184935 271.439804,577.793065 Z M270.641864,573.67346 L270.902326,573.782298 C271.278657,573.936207 271.657252,574.062776 272.061396,573.992502 C272.574959,574.512458 273.082463,574.943232 273.391072,575.627421 C273.049482,576.043386 272.774864,576.538102 272.979482,577.040222 C272.547699,577.148252 272.144186,577.309792 271.868222,577.471668 C271.143311,576.876326 270.099696,576.59767 269.152331,576.744065 C268.688073,576.115753 268.559762,575.417271 268.466053,574.702336 L268.419008,574.330431 C268.371112,573.950949 268.318347,573.569469 268.216409,573.193889 C269.096465,573.141725 269.819357,573.330188 270.641864,573.67346 Z M266.693896,560.030404 C267.217218,560.118577 267.727078,560.009538 268.24266,559.930787 C269.189014,559.785738 269.718394,559.901508 270.308015,560.686323 C270.69874,561.207289 271.039656,561.766621 271.37889,562.322924 C271.101916,562.972113 270.892251,563.647215 270.743836,564.30751 C270.405949,564.328039 270.066378,564.339145 269.719067,564.354626 C268.620932,564.402414 267.762078,564.644051 267.053658,565.522761 C266.694905,565.968342 266.419614,566.471135 266.095861,566.940947 C265.777156,567.403355 265.403595,567.821003 265.058977,568.262209 C264.403394,568.109419 263.700695,568.173026 263.218431,568.569808 C263.01516,568.737069 262.860351,568.939667 262.746937,569.160775 C262.535588,569.490586 262.478376,569.861455 262.521454,570.237371 C262.525492,570.33194 262.534242,570.426844 262.549723,570.520403 C262.552079,570.59175 262.552752,570.663433 262.559483,570.733434 C262.608954,571.266852 262.715302,571.772001 262.812226,572.275467 C262.458184,571.825174 262.010584,571.437142 261.560964,571.103966 C260.6836,570.455114 259.811621,570.414729 258.925507,571.067619 C258.073384,571.695269 257.582707,572.595181 257.333666,573.606825 L257.20018,574.163291 C257.067777,574.714404 256.927376,575.250326 256.677747,575.778864 C256.457312,576.245984 256.198848,576.693584 255.952836,577.147579 C255.555044,575.957231 254.936817,574.854385 254.829461,573.553988 C254.711334,572.127052 255.295907,570.860983 255.517351,569.481836 C255.730719,568.150477 255.329225,566.867245 255.383744,565.541608 C255.414033,564.804918 255.588025,564.115345 256.326397,563.820198 C257.099097,563.511253 257.987566,563.569138 258.793247,563.64385 C259.88527,563.745789 260.56819,563.29585 261.267804,562.529501 L261.609369,562.148496 C262.477629,561.186018 263.56293,560.080939 264.802532,559.754776 C265.4985,559.571697 266.034274,559.919681 266.693896,560.030404 Z M266.300142,569.91934 L266.292738,569.958715 C266.157448,570.889252 266.671011,571.52397 267.164381,572.253928 C268.067658,573.590335 267.546019,575.651988 268.553961,576.90224 C268.433142,576.94801 268.315016,576.999164 268.202275,577.061761 L268.145063,577.098107 C267.321882,576.528679 266.574423,575.912808 266.09014,575.010876 C265.88384,574.626883 265.765041,574.241543 265.614943,573.875049 L265.597053,573.57355 C265.538691,572.477055 265.570492,571.475059 266.040332,570.418767 C266.116727,570.246795 266.204228,570.080543 266.300142,569.91934 Z M274.234445,573.263216 C274.698199,573.556681 275.115847,573.899616 275.364888,574.415535 C275.857248,575.436602 275.027337,576.154108 274.656468,577.040222 C274.316561,576.892144 273.862903,576.88373 273.405207,576.953394 C273.378283,576.30959 273.938288,575.955549 274.27584,575.465544 C274.5269,575.100733 274.645362,574.72246 274.604304,574.277216 C274.573006,573.934617 274.436706,573.581921 274.234445,573.263216 Z M265.9286,569.395681 C265.234988,570.435594 264.819359,571.641086 264.967101,572.86879 L264.946908,572.848934 L264.538313,572.473182 C263.905046,571.883202 263.27491,571.219616 263.119825,570.344392 C263.111074,570.296266 263.10569,570.250833 263.100642,570.206073 C263.114776,569.934484 263.167277,569.66626 263.275643,569.398373 C263.764302,568.837022 265.092967,569.22068 265.9286,569.395681 Z M271.680651,568.037269 L272.311447,568.364518 C272.904769,568.668078 273.485977,568.992841 274.061463,569.328709 C273.393764,569.303805 272.727412,569.358662 272.084281,569.508086 C271.269529,569.697369 270.697412,570.120665 270.223908,570.78151 L270.017329,571.079911 C269.780589,571.416491 269.541317,571.712601 269.191034,571.969214 L269.026379,572.089739 C268.818509,572.245474 268.660308,572.39393 268.587615,572.686048 C268.583913,572.700519 268.582903,572.713981 268.580884,572.728115 C268.422709,572.754702 268.264198,572.795087 268.105351,572.848934 C268.088187,572.801818 268.072033,572.754702 268.05285,572.707923 C267.783954,572.060753 267.260295,571.574114 266.970533,570.942426 C266.598991,570.13338 266.974908,569.294046 267.402315,568.576876 C267.705203,568.295863 268.030975,568.039082 268.367517,567.809224 C269.505446,567.031738 270.600492,567.483722 271.680651,568.037269 L271.680651,568.037269 Z M273.722565,564.805928 C274.626179,565.031411 275.4571,565.492809 276.321002,565.835408 C276.115712,565.89262 275.910758,565.951179 275.706814,566.011083 L275.1784,566.167982 C274.030514,566.512588 272.869029,566.894033 271.807644,567.440038 L271.795192,567.449798 C271.596632,567.352201 271.396727,567.25696 271.195475,567.16542 C269.903829,566.579502 268.850454,566.605752 267.711261,567.491866 C267.203419,567.887302 266.719809,568.361489 266.300815,568.88885 C266.138939,568.740771 265.944081,568.611876 265.73105,568.504856 C266.218424,568.023601 266.613457,567.446947 266.987705,566.873757 L267.227141,566.504916 C267.484775,566.110026 267.761165,565.717715 268.155495,565.451751 C268.639218,565.125979 269.213083,565.092175 269.778529,565.078049 L270.4041,565.063619 C270.748658,565.054577 271.091964,565.038815 271.434756,564.986651 C272.240436,564.86314 272.890971,564.598618 273.722565,564.805928 Z M278.253087,559.237848 C278.680107,559.374277 279.086565,559.555362 279.489447,559.744666 L279.972275,559.973443 C280.45556,560.2015 280.943478,560.420403 281.465376,560.567187 C282.361586,560.819257 284.020736,560.812526 284.561222,561.687871 C284.804541,562.081624 284.85233,562.577686 285.042813,562.99769 C285.206978,563.360549 285.449378,563.657439 285.716776,563.944053 L285.806762,564.039286 C286.209602,564.461646 286.552538,564.837899 286.677058,565.42651 C286.775665,565.891274 286.802925,566.375557 286.893454,566.84335 C287.027061,567.535616 287.203746,568.167978 287.551057,568.740098 L287.24979,568.692758 C287.200418,568.684943 287.151582,568.677165 287.103456,568.669424 C286.246622,568.52976 285.381037,568.449326 284.514442,568.404566 C284.483817,568.402884 284.456557,568.406249 284.430644,568.411297 L284.414826,568.396489 C283.577847,567.591482 282.772504,566.710753 281.869563,565.979785 C281.112681,565.366942 280.259211,565.211124 279.306799,565.270692 C278.575831,565.316798 277.854622,565.449395 277.1425,565.621031 C276.171241,564.908909 274.746661,564.339481 273.622949,564.099191 C273.080444,563.983084 272.595824,564.048036 272.06106,564.153037 C271.845,564.195441 271.63096,564.226403 271.418265,564.250634 L271.765665,563.402323 C272.418367,561.821999 273.159546,560.25792 274.766517,559.436744 C275.84345,558.886835 277.116923,558.874383 278.253087,559.237848 Z" id="52"></path>
        </g>
    </g>
</svg>
