<?xml version="1.0" encoding="UTF-8"?>
<svg width="30px" height="61px" viewBox="0 0 30 61" version="1.1" xmlns="http://www.w3.org/2000/svg" xmlns:xlink="http://www.w3.org/1999/xlink">
    <title>22</title>
    <g id="页面-1" stroke="none" stroke-width="1" fill="none" fill-rule="evenodd">
        <g id="植物" transform="translate(-173.000000, -317.000000)" fill="#545458">
            <path d="M177.30275,347.614676 C177.44523,347.32191 177.464747,346.982302 177.410098,346.652452 C177.480362,346.627079 177.552577,346.576333 177.616986,346.509972 C178.159579,347.081842 178.731449,347.610773 179.334547,348.098716 C178.661185,347.913298 177.978064,347.788384 177.30275,347.614676 M186.070118,342.268768 C186.415582,344.150278 186.558061,346.068871 186.599049,347.995272 C186.620518,348.975063 186.620518,349.95095 186.620518,350.93074 C186.587338,350.926836 186.561965,350.915126 186.524881,350.919029 C186.425341,350.93074 186.339463,350.967824 186.261392,351.020522 C186.212598,351.045895 186.169659,351.08493 186.13843,351.123966 C186.101346,351.166905 186.068166,351.211795 186.036938,351.26059 C186.019372,351.229361 185.999854,351.202037 185.982288,351.174712 C185.843712,350.706286 185.58803,350.294462 185.146929,350.32569 C184.791706,349.794808 184.424773,349.281491 184.073453,348.793548 C183.337635,347.768866 183.146361,346.697343 182.845788,345.502857 C182.724778,345.026624 182.580346,344.556247 182.424205,344.089773 C182.48471,343.949245 182.531552,343.810669 182.566684,343.670141 C182.691598,343.689659 182.837981,343.654527 183.00193,343.539373 C183.230287,343.379327 183.337635,343.121693 183.366911,342.8543 C183.724086,343.031911 184.110537,342.977262 184.457953,342.493222 C184.865874,341.927207 184.692166,341.290929 184.295956,340.810793 C184.362316,340.78542 184.424773,340.746384 184.483326,340.707349 C184.889295,341.238231 185.447502,341.915497 186.070118,342.268768 M181.715711,334.617815 C181.785975,333.485786 181.346825,332.195663 180.804232,331.063634 C180.946712,331.137802 181.114564,331.159271 181.323404,331.104622 C181.801589,330.971901 182.195847,330.622534 182.418349,330.197047 C182.279773,331.139754 182.355893,332.105882 183.351297,331.643311 C184.174946,331.262715 184.70778,329.787174 184.491133,328.733217 C184.53212,328.721506 184.577011,328.700036 184.617998,328.678567 C184.830742,329.063066 185.072762,329.431952 185.363576,329.763753 C185.660246,330.109217 186.048649,330.65181 186.499508,330.811856 C186.68883,332.064894 187.059667,333.300367 188.055072,333.839057 C188.076542,335.123324 188.287333,336.411495 188.759662,337.529861 C188.753807,337.549379 188.747952,337.563041 188.744048,337.582559 C188.665977,337.830434 188.607424,338.017805 188.580099,338.095875 C188.119481,339.364528 187.900882,340.668313 187.758402,342.005278 C187.725222,342.340983 187.688139,342.694255 187.654958,343.043622 C187.407083,341.706657 187.014777,340.404824 186.415582,339.065907 C186.409727,339.050293 186.394112,339.046389 186.38045,339.050293 C186.230163,338.693118 186.07207,338.339847 185.912024,338.004142 C185.945205,337.984624 185.974481,337.9573 185.98424,337.926071 C186.458521,336.239739 186.277006,333.827346 185.465068,332.269831 C185.437743,332.217133 185.373335,332.265927 185.353817,332.31277 C185.301119,332.320577 185.226952,332.383034 185.236711,332.435731 C185.336251,333.019312 185.404563,333.610699 185.453358,334.213797 C185.344058,334.143534 185.230855,334.079125 185.113749,334.010813 C184.705828,333.780504 184.383785,333.485786 184.034418,333.179357 C183.450838,332.664089 182.98046,332.146869 182.486661,331.547674 C182.449578,331.506687 182.357844,331.588662 182.383217,331.631601 C182.800897,332.31277 183.173686,332.886591 183.743604,333.458461 C184.272534,333.987392 184.844404,334.38165 185.488489,334.752487 C185.539236,335.593701 185.548994,336.43882 185.547043,337.278082 C185.480682,337.157072 185.414322,337.049725 185.347962,336.930667 C185.076665,336.239739 184.76243,335.562473 184.132007,335.121372 C184.104682,335.105758 184.071502,335.117469 184.044177,335.136986 C183.946588,335.094047 183.841192,335.058915 183.714327,335.043301 C183.657726,335.035494 183.605028,335.027687 183.548426,335.01988 C183.491825,335.047205 183.437175,335.08624 183.384477,335.144794 C183.499632,335.384862 183.626497,335.621026 183.76117,335.855239 C183.076097,335.441463 182.387121,335.039398 181.715711,334.617815 M181.204346,334.287965 C181.221912,334.254785 181.227767,334.225508 181.194587,334.20599 C180.068414,333.598989 178.994938,332.634812 178.169338,331.584758 C178.321576,331.329076 178.432827,331.049972 178.485525,330.774772 C178.85441,330.79429 179.307222,330.538607 179.570711,330.187288 C179.717094,330.239986 179.882995,330.232179 180.048896,330.187288 C180.562212,331.541819 181.003313,332.956855 181.327308,334.369939 C181.28632,334.342614 181.247285,334.31529 181.204346,334.287965 M194.868714,331.303703 L194.884329,331.303703 C194.847245,331.55353 194.909702,331.832633 195.079506,332.035618 C195.259069,332.246409 195.553787,332.277638 195.830939,332.19176 C195.869974,332.340095 195.934383,332.486478 196.039779,332.623102 C196.211535,332.847556 196.443796,332.945144 196.693623,332.952952 C196.545288,333.064203 196.416471,333.196923 196.30522,333.34721 C196.268136,333.255476 196.205679,333.175454 196.11785,333.099335 C195.778241,332.820231 195.413259,332.960759 195.190757,333.237911 C195.1283,333.20473 195.050229,333.185213 194.958496,333.19302 C194.775029,333.208634 194.667682,333.331596 194.595466,333.481882 C194.474456,333.288657 194.292941,333.155936 194.048969,333.29256 C194.025548,333.308174 194.009934,333.327692 193.984561,333.339403 C193.955284,333.255476 193.920152,333.167647 193.87331,333.089576 C193.621531,332.65433 193.05942,332.767533 192.752992,333.044685 C192.524634,333.249621 192.452418,333.634121 192.489502,333.981536 C191.722455,334.303579 190.873433,335.318501 191.084225,336.036754 C191.26574,336.651563 191.773201,337.190252 192.456322,336.979461 C192.565621,336.946281 192.682728,336.87992 192.786172,336.794042 C192.795931,336.805753 192.805689,336.805753 192.815448,336.81356 C192.813497,336.852596 192.815448,336.895535 192.813497,336.93457 C192.803738,337.086808 192.805689,337.239047 192.803738,337.391285 C192.799834,337.600125 192.799834,337.810917 192.803738,338.025612 C192.805689,338.119297 192.803738,338.21103 192.807641,338.306667 C192.840821,339.327445 192.954024,340.33456 193.211658,341.28117 C193.184334,341.372904 193.155057,341.466589 193.12578,341.554419 C192.628078,342.610328 192.120617,343.650624 191.736117,344.774845 C191.56241,345.278403 191.388702,345.781961 191.213042,346.281615 C191.0569,346.346023 190.916372,346.412384 190.816832,346.482647 C190.200071,346.912038 190.19812,347.835227 190.467464,348.467601 C190.369876,348.764271 190.266432,349.058989 190.170795,349.35761 C189.653575,350.938547 189.380326,352.583892 189.007538,354.203865 C189.011441,353.936472 189.013393,353.672982 189.013393,353.413396 C189.013393,353.409493 189.015345,353.409493 189.015345,353.405589 C189.019248,353.393879 189.013393,353.386071 189.013393,353.374361 C189.007538,350.493543 188.839685,347.602966 188.93337,344.720196 C189.032911,343.098272 189.167583,341.49001 189.485722,339.852472 C189.92292,337.619643 190.535776,335.507823 191.336004,333.399908 C191.499953,333.001746 191.66195,332.595777 191.829803,332.180049 C192.63003,332.205422 193.438064,331.865814 194.169979,331.362256 C194.400289,331.391532 194.659875,331.340786 194.868714,331.303703 M195.862167,342.052121 C195.891444,342.016989 195.922672,341.97405 195.955852,341.938918 C195.99684,341.938918 196.039779,341.935015 196.080766,341.931111 C196.006598,341.966243 195.930479,342.009182 195.862167,342.052121 M180.025475,348.024549 C179.363823,347.583448 178.745111,347.095504 178.155675,346.576333 C178.042472,346.457274 177.927318,346.346023 177.821922,346.219158 C177.923414,346.029836 177.993678,345.797575 177.999533,345.577024 C178.163482,345.498953 178.302058,345.34086 178.352804,345.106647 C178.471863,344.562102 178.019051,343.654527 177.453037,343.170487 C177.494024,343.121693 177.529156,343.072899 177.562336,343.018249 C177.73214,342.721579 177.755562,342.381971 177.679442,342.056025 C177.726285,342.100915 177.767272,342.147758 177.816067,342.198504 C177.935125,342.31561 178.056135,342.434669 178.175193,342.547872 C178.171289,342.559582 178.165434,342.567389 178.161531,342.575196 C179.316981,343.732598 180.140629,345.208139 181.083336,346.533394 C181.850383,347.614676 182.55107,348.701814 183.179541,349.845554 C182.174378,349.20342 181.061866,348.660827 180.025475,348.024549 M179.951307,343.004587 C180.023523,343.295401 180.24017,343.441784 180.491949,343.476916 C180.470479,343.54718 180.454865,343.617444 180.452913,343.683804 C180.445106,343.791151 180.458768,343.898499 180.480238,344.003895 C180.263591,343.693563 180.044992,343.383231 179.818587,343.072899 C179.340402,342.422958 179.478978,341.776921 179.311125,341.050861 C179.225247,340.67612 179.119852,340.318946 178.99689,339.967627 C179.080816,339.909073 179.166694,339.848568 179.242813,339.76269 C179.27209,340.170611 179.352113,340.658554 179.810779,340.699542 C179.851767,340.707349 179.892754,340.703445 179.931789,340.699542 C179.705384,341.095752 179.674155,341.597358 180.066462,341.894027 C180.132822,341.946725 180.20699,341.97405 180.283109,341.997471 C179.982536,342.225829 179.857622,342.618135 179.951307,343.004587 M193.879165,343.262221 C194.259761,342.374164 194.609128,341.458782 194.911653,340.541448 C195.104879,339.955916 195.223937,339.368432 195.442536,338.7829 C195.475716,338.697022 195.514751,338.626758 195.561594,338.566253 C195.565498,338.562349 195.569401,338.558446 195.577208,338.554542 C195.639665,338.533073 195.702122,338.5077 195.762627,338.480375 C195.881685,338.437436 195.992936,338.367172 196.100284,338.293005 C196.110042,338.285198 196.11785,338.273487 196.127608,338.259824 C196.588227,338.021708 197.03128,337.674292 197.402117,337.367864 C197.585583,337.344443 197.772954,337.272227 197.940806,337.159024 C197.97789,337.285889 198.034491,337.402996 198.102804,337.508392 C197.981794,337.604028 197.872494,337.723087 197.788568,337.863614 C197.605101,338.162236 197.530934,338.533073 197.607053,338.876585 C197.521175,338.980029 197.450911,339.110798 197.402117,339.264988 C197.374792,339.339155 197.37284,339.409419 197.366985,339.483587 C197.160097,339.69633 196.945402,339.909073 196.738514,340.129624 C195.680652,341.113318 194.730138,342.147758 193.879165,343.262221 M193.740589,336.979461 C193.777673,336.887728 193.824515,336.797946 193.867454,336.710116 C193.986513,336.60472 194.099715,336.477855 194.189497,336.337327 C194.517395,336.477855 194.991676,336.368556 195.305912,336.077741 C195.274683,336.352941 195.344947,336.594961 195.594774,336.706213 C195.592822,336.710116 195.588919,336.717923 195.586967,336.721827 C195.409356,337.024352 195.233696,337.33078 195.075602,337.643064 C194.880425,338.029515 194.679392,338.622854 194.359301,338.999547 C194.107523,339.559706 193.824515,340.199888 193.705457,340.547303 C193.701554,340.52193 193.69765,340.48875 193.695698,340.459474 C193.723023,340.439956 193.750348,340.410679 193.746444,340.385306 C193.623483,339.339155 193.305344,337.974866 193.740589,336.979461 M197.661703,340.121817 C197.979842,340.410679 198.493158,340.574628 198.955729,340.570725 C198.918645,340.625374 198.887417,340.683928 198.85814,340.738577 C198.456075,340.840069 198.050106,340.931803 197.64804,341.029392 C197.325998,341.105511 197.005907,341.136739 196.697526,341.179678 C197.058605,340.869346 197.361129,340.490702 197.661703,340.121817 M196.424278,336.632045 C196.453555,336.805753 196.521867,336.969702 196.631166,337.096567 C196.326689,337.348346 196.022213,337.592318 195.715784,337.830434 C195.711881,337.832386 195.707977,337.832386 195.704074,337.83629 C195.858264,337.463501 196.014406,337.090712 196.176403,336.723779 C196.260329,336.702309 196.346207,336.671081 196.424278,336.632045 M181.581038,344.878289 C181.723518,344.858772 181.84648,344.806074 181.955779,344.729955 C182.047512,345.266692 182.135342,345.797575 182.240738,346.332361 C181.797685,345.828803 181.401475,345.305728 181.018927,344.770942 C181.182876,344.858772 181.372199,344.907566 181.581038,344.878289 M178.813423,342.245347 C178.786098,342.241443 178.752918,342.237539 178.723641,342.237539 C178.696317,342.214118 178.66704,342.1946 178.639715,342.171179 C178.659233,342.137999 178.670944,342.104819 178.641667,342.083349 C178.229843,341.722271 177.796549,341.394373 177.373014,341.046957 C177.429615,341.009874 177.480362,340.970838 177.531108,340.920092 C177.792645,340.668313 177.85315,340.38921 177.810211,340.104251 C178.058087,340.215502 178.30401,340.240875 178.540175,340.184273 C178.641667,340.869346 178.708027,341.55637 178.813423,342.245347 M186.585386,327.79051 C186.606856,327.76904 186.624422,327.741715 186.64394,327.718294 C186.762998,327.564104 186.868394,327.368927 186.811792,327.171798 C186.772757,327.021511 186.624422,327.005897 186.487798,327.037125 C186.376547,326.016347 186.333608,324.976052 186.323849,323.914287 C186.327752,323.910384 186.333608,323.910384 186.335559,323.908432 C186.335559,324.12703 186.370691,324.326111 186.433148,324.480301 C186.686879,325.0834 187.410987,325.136097 187.9204,324.87456 C188.01994,324.821862 188.117529,324.759405 188.211214,324.689141 C188.191696,325.389828 188.788939,326.180296 189.397892,326.344245 C189.294448,326.672143 189.284689,327.025415 189.462301,327.253772 C189.911209,327.827594 190.951504,327.277193 191.429689,326.730697 C191.642432,326.832189 191.862983,326.797057 192.067919,326.677999 C192.069871,326.687758 192.069871,326.703372 192.073774,326.715082 C192.214302,327.497744 192.573428,328.175009 192.954024,328.856178 C192.686631,329.303135 192.436804,329.75985 192.196736,330.228275 C191.769298,330.92701 191.369184,331.639408 190.974926,332.353757 C190.590426,332.986132 190.239107,333.651687 189.946341,334.330904 C189.657478,334.941809 189.38423,335.593701 189.148065,336.267063 C188.732338,334.391409 188.574244,332.627005 188.568389,330.696701 C188.566437,330.679135 188.556678,330.675232 188.543015,330.671328 C188.492269,330.634244 188.379066,330.704508 188.3615,330.778676 C188.219021,331.428616 188.123384,332.135158 188.082397,332.851459 C188.012133,332.712883 187.955532,332.576259 187.891123,332.435731 C187.916496,332.468912 187.934062,332.502092 187.959435,332.53332 C188.000422,332.58797 188.10777,332.490381 188.082397,332.439635 C187.264604,330.92701 186.821551,329.385109 186.585386,327.79051 M184.450146,327.124955 C184.5653,327.124955 184.688262,327.091775 184.820983,327.005897 C185.488489,326.562844 185.359672,325.97536 184.994691,325.471803 C185.265987,325.405442 185.5002,325.212217 185.646583,324.894078 C185.744172,324.685238 185.750027,324.45688 185.693426,324.232426 C185.781256,324.21486 185.869085,324.177777 185.954963,324.142645 C185.849568,325.202458 185.818339,326.318872 185.898362,327.423576 C185.859326,327.49384 185.822243,327.564104 185.802725,327.640223 C185.771497,327.741715 185.759786,327.893954 185.820291,327.989591 C185.857375,328.055951 185.908121,328.091083 185.968626,328.104745 C186.044745,328.760541 186.157948,329.406579 186.3258,330.03505 C186.109154,329.835969 185.869085,329.646647 185.673908,329.469035 C185.363576,329.182125 185.084472,328.863985 184.826838,328.530232 C185.326492,328.034482 184.860018,327.509454 184.450146,327.124955 M192.567573,326.1842 C192.577332,326.211525 192.587091,326.242753 192.600753,326.260319 C192.782268,326.574555 193.297536,326.664336 193.732782,326.574555 C193.779625,326.648722 193.838178,326.72289 193.910393,326.781443 C193.490762,327.132762 193.240935,327.718294 193.397077,328.202334 C193.348283,328.264791 193.299488,328.331151 193.254597,328.393608 C193.006722,327.710487 192.637837,327.072257 192.452418,326.340342 C192.491454,326.289596 192.532441,326.23885 192.567573,326.1842 M194.26952,353.979411 C194.388578,353.959893 194.51154,353.916954 194.628646,353.836931 C194.837486,353.688596 195.009242,353.475853 195.1283,353.231881 C195.395693,353.425107 195.756771,353.452432 196.141271,353.204556 C196.443796,353.017186 196.623359,352.677578 196.715092,352.302837 C196.840006,352.377004 196.97663,352.398474 197.111302,352.378956 C197.234264,352.87861 197.552403,353.257254 198.184778,353.200653 C198.733226,353.15381 199.037703,352.712709 199.145051,352.181827 C199.238736,352.189634 199.340228,352.181827 199.451479,352.150599 C200.265369,351.941759 200.649868,350.87609 200.417607,350.132464 C200.372716,349.999744 200.265369,349.970467 200.142407,349.999744 C200.335633,349.480572 200.171684,349.04923 199.685692,348.87357 C199.997976,348.23534 200.199009,347.470245 199.22117,347.358994 C198.807394,347.316055 198.360438,347.503425 197.960324,347.780577 C197.932999,347.643953 197.868591,347.509281 197.745629,347.378512 C197.577776,347.196997 197.347467,347.181383 197.111302,347.251646 C197.456766,346.533394 197.612908,345.692179 197.011762,345.321342 C196.853668,345.225705 196.70143,345.204236 196.55895,345.235464 C196.590179,344.64798 196.342304,344.04293 195.616244,344.243963 C195.069747,344.402057 194.654019,344.809977 194.525202,345.297921 C194.035307,345.221802 193.434161,345.588735 193.168719,346.053257 C193.162864,346.053257 193.157009,346.053257 193.153105,346.049354 C193.871358,344.688967 194.710621,343.229041 195.899251,342.292189 C196.428182,341.878413 197.378695,341.815956 198.030588,341.624683 C198.233572,341.564178 198.430702,341.493914 198.627831,341.419746 C198.571229,341.872558 198.70395,342.3039 199.15481,342.518595 C199.673981,342.770374 200.466402,342.178986 200.727939,341.642248 C201.395446,341.298736 201.555491,340.330656 201.317375,339.583127 C201.405205,339.546043 201.493035,339.495297 201.571106,339.42113 C202.07076,338.940994 201.867775,338.322281 201.502793,337.848 C201.59843,337.678196 201.664791,337.504488 201.664791,337.344443 C201.666742,337.248806 201.655032,337.166831 201.629659,337.096567 C202.025869,336.706213 202.240564,336.046513 202.22495,335.554666 C202.205432,334.812992 201.543781,334.750535 201.032416,335.01988 C201.020705,334.783715 200.969959,334.543647 200.856756,334.366036 C200.864563,334.350422 200.872371,334.338711 200.880178,334.327 C200.901647,334.291868 200.921165,334.246978 200.932876,334.202087 C201.270532,334.168907 201.623803,334.028379 201.815077,333.84296 C202.150782,333.518966 202.094181,333.114949 201.869727,332.886591 C202.158589,332.383034 202.021965,331.631601 201.459854,331.576951 C201.733103,331.147561 201.834595,330.601064 201.516456,330.20095 C201.338844,329.972593 201.08121,329.939413 200.846997,330.011628 C200.782589,329.810596 200.620592,329.625177 200.359054,329.539299 C199.996024,329.414386 199.564682,329.511974 199.230929,329.728621 C199.090401,329.232871 198.366293,328.938153 197.882253,329.217256 C197.815893,328.780059 197.556307,328.290164 197.173759,328.426788 C196.959064,328.028626 196.607745,327.772944 196.145174,328.163299 C195.899251,328.376042 195.63381,328.844468 195.620147,329.22116 C195.274683,329.451469 194.948737,329.910136 194.817968,330.316105 C194.614984,330.46444 194.404192,330.604968 194.183642,330.735736 C193.523942,331.122188 192.803738,331.332979 192.110858,331.614035 C192.557814,330.811856 192.930603,329.988207 193.449775,329.22116 C193.564929,329.051356 193.670325,328.873744 193.765962,328.694181 C193.765962,328.694181 193.769866,328.698085 193.773769,328.700036 C194.661826,329.322652 196.387194,328.202334 196.314979,327.175701 C196.486735,327.0098 196.611648,326.738504 196.672153,326.517953 C196.763887,326.1842 196.631166,325.827025 196.420374,325.5245 C196.447699,325.417153 196.469169,325.309805 196.476976,325.192699 C196.482831,325.110724 196.476976,325.040461 196.463314,324.976052 C196.662394,324.788682 196.816585,324.562276 196.880993,324.312449 C196.957112,324.019683 196.925884,323.738627 196.779501,323.541498 C196.791212,323.523932 196.802922,323.504415 196.810729,323.482945 C196.978582,322.987195 197.04299,322.419228 196.531626,322.132318 C196.406712,322.062054 196.285702,322.05815 196.170547,322.097186 C196.166644,321.663892 195.928527,321.254019 195.413259,321.14472 C194.652067,320.99053 194.320266,321.361367 194.103619,321.884442 C193.738637,321.388692 193.233128,321.304766 192.669065,321.892249 C192.493406,322.073764 192.407528,322.376289 192.405576,322.688573 C192.173315,322.407518 191.866886,322.188919 191.57412,322.144028 C191.460917,322.128414 191.35357,322.136221 191.252077,322.16745 C191.255981,322.155739 191.261836,322.151835 191.26574,322.144028 C191.927391,320.939784 191.006154,320.324975 189.960003,320.481117 C190.157132,319.917054 190.387442,318.997769 189.596973,318.952878 C189.310063,318.935312 189.038766,318.986058 188.798698,319.095358 C188.917756,318.505922 188.816264,317.877451 188.178034,317.719357 C187.239231,317.481241 186.839117,318.125326 186.751287,318.878711 C186.528785,318.769411 186.286765,318.804543 186.054504,318.952878 C186.044745,318.956782 186.031083,318.960685 186.01742,318.964589 C185.853471,318.080435 184.405255,317.973088 184.204222,318.757701 C183.786543,318.630835 183.312262,318.915794 183.10147,319.323715 C182.611575,319.056322 181.924551,319.216368 181.768409,319.899488 C181.666916,320.350348 181.750843,321.082263 182.057271,321.560448 C181.906985,321.652181 181.764505,321.767336 181.631784,321.876635 C181.356584,321.482377 181.056011,321.334042 180.794473,321.378933 C180.854978,320.609934 180.683222,319.803851 180.142581,319.501327 C179.461412,319.110972 179.373582,319.981463 179.42628,320.783642 C179.057395,320.64897 178.659233,320.830484 178.403551,321.213032 C178.124447,321.624856 178.264975,322.136221 178.473814,322.553901 C178.003437,322.612454 177.542818,322.887654 177.499879,323.406826 C177.476458,323.678122 177.538915,323.965033 177.650166,324.228523 C177.378869,324.251944 177.105621,324.396375 176.914347,324.677431 C176.75235,324.909692 176.71917,325.21612 176.779675,325.495224 C176.648906,325.51279 176.529848,325.557681 176.428355,325.627944 C176.137541,325.692353 175.899425,325.940228 175.72962,326.164682 C175.40953,326.578458 175.450517,327.175701 175.885762,327.484081 C175.956026,327.532876 176.041904,327.575815 176.137541,327.612898 C174.997705,327.653886 173.551441,328.877648 174.3868,329.835969 C174.851322,330.372707 175.756945,330.220468 176.520089,329.832065 C176.516185,330.023339 176.566931,330.20095 176.684038,330.349285 C176.227323,330.802097 176.071181,331.856055 176.463487,332.269831 C176.900685,332.722642 177.474506,332.465008 177.903896,331.96145 C179.406762,334.071318 181.73718,335.427801 184.10273,336.454434 C184.301811,336.801849 184.493085,337.151217 184.651178,337.512295 C185.176206,338.71654 185.56656,339.955916 185.853471,341.218714 C185.623162,341.021584 185.385045,340.832262 185.178157,340.637085 C185.063003,340.525834 184.947848,340.408727 184.832693,340.293573 C184.879536,340.195984 184.912716,340.090588 184.926379,339.967627 C185.01616,339.243518 184.649227,338.954656 184.182753,339.021016 C184.413062,338.591626 184.506747,338.091972 184.046129,337.867518 C183.925119,337.807013 183.792398,337.773833 183.665533,337.764074 C183.696761,337.582559 183.687002,337.402996 183.601124,337.24295 C183.405947,336.891631 182.921907,336.909197 182.523745,337.090712 C182.527649,336.686695 182.398832,336.288533 182.090451,336.077741 C181.444414,335.648351 180.810088,336.302195 180.505611,336.842837 C180.488045,336.856499 180.466575,336.872113 180.452913,336.891631 C180.220652,336.581299 179.736612,336.65937 179.320884,336.950184 C179.473123,336.235835 179.553145,335.20725 178.901253,335.215057 C178.442586,335.222864 178.20447,335.433656 178.087363,335.740085 C177.847295,335.377055 177.517445,335.185781 177.056827,335.593701 C176.684038,335.923551 176.775771,336.565685 176.951431,337.14341 C176.646954,336.961895 176.319056,336.84674 176.08094,336.969702 C175.944316,336.735489 175.727669,336.620334 175.405626,336.751103 C174.794721,337.002882 174.943056,337.851904 175.187027,338.492086 C174.500003,338.492086 173.996445,339.512863 174.396559,340.297476 C174.1116,340.303332 173.857869,340.414583 173.729052,340.680024 C173.410913,341.331916 173.922278,341.87451 174.533183,342.151661 C174.478533,342.233636 174.435594,342.327321 174.412173,342.419054 C174.23261,343.113886 175.071873,343.311015 175.778415,343.328581 C175.552009,343.500337 175.376349,343.716984 175.350976,343.990232 C175.323652,344.304468 175.405626,344.556247 175.557864,344.73581 C174.829853,344.91147 174.156491,345.348667 173.855918,345.9908 C173.656837,346.427998 173.918374,346.915941 174.314584,347.206756 C173.816882,347.548316 173.906664,348.137752 174.131118,348.602274 C174.798624,349.970467 175.81745,348.877474 176.166818,347.962092 C176.397127,348.209967 176.715266,348.239244 177.04902,347.942574 C177.983919,348.32317 179.010552,348.516396 179.996198,348.610081 C181.163359,349.474717 182.426156,350.228101 183.751411,350.93074 C183.79435,351.022473 183.843144,351.116158 183.888035,351.207892 C183.958299,351.356227 184.016852,351.508465 184.087116,351.658752 C183.792398,352.037396 183.76117,352.44922 183.870469,352.874707 C183.77288,352.816153 183.647967,352.798588 183.489873,352.839575 C183.132698,352.929356 183.105374,353.327518 183.175638,353.715921 C182.736488,353.608574 182.439819,354.12189 182.476902,354.695712 C180.954519,354.237045 180.538791,356.33325 181.506871,356.768495 C181.526389,356.79582 181.545906,356.821193 181.565424,356.844615 C181.514678,356.866084 181.467835,356.891457 181.411234,356.899264 C180.972085,356.957817 180.765197,357.519928 180.716403,357.879055 C180.638332,358.470442 181.095047,358.739787 181.610315,358.755401 C182.065078,358.767112 182.392976,358.275265 182.660369,357.894669 C182.769669,358.056666 182.896534,358.16011 183.037062,358.208904 C182.515938,358.880315 182.189992,359.739095 182.802849,360.43783 C183.525005,361.253672 184.342798,360.312917 184.723394,359.598567 C185.172302,360.152871 185.461165,359.364355 185.543139,358.692944 C185.748075,358.813954 185.974481,358.837376 186.124768,358.57779 C186.339463,359.867912 186.493653,361.177552 186.593193,362.489144 C186.68883,363.71681 186.741528,364.952283 186.768853,366.183852 C186.841069,369.544807 186.790323,372.929182 186.698589,376.299896 L186.700541,376.299896 C186.698589,376.323317 186.692734,376.346738 186.692734,376.366256 C186.716155,376.973258 187.360241,377.699318 188.109722,377.668089 C188.785035,377.64662 189.325677,377.221133 189.407651,376.692202 C189.411555,376.692202 189.41741,376.696106 189.421314,376.692202 C189.45059,375.458681 189.520854,374.215401 189.407651,372.983832 C189.405699,372.950652 189.386182,372.946748 189.364712,372.954556 C189.38423,372.054788 189.405699,371.158924 189.421314,370.255252 C189.436928,369.431604 189.536468,368.6021 189.393989,367.782355 C189.43888,365.721282 189.271027,363.658257 189.397892,361.591328 C189.491578,360.164582 189.729694,358.735883 189.940485,357.320847 C190.051737,356.559656 190.270335,355.691116 190.262528,354.888937 C190.584571,353.436818 190.90271,351.961277 191.32039,350.524771 C191.457014,350.848765 191.773201,351.174712 192.136231,351.34842 C192.101099,351.459671 192.077678,351.580681 192.067919,351.707546 C191.599493,351.914434 191.234512,352.443365 191.175958,352.921549 C191.107646,353.48366 191.513615,353.870111 192.034739,353.9677 C191.755635,354.455643 191.581927,354.955298 191.601445,355.275388 C191.7166,357.248632 194.16022,355.593528 194.26952,353.979411" id="22"></path>
        </g>
    </g>
</svg>
