<?xml version="1.0" encoding="UTF-8"?>
<svg width="59px" height="61px" viewBox="0 0 59 61" version="1.1" xmlns="http://www.w3.org/2000/svg" xmlns:xlink="http://www.w3.org/1999/xlink">
    <title>20</title>
    <g id="页面-1" stroke="none" stroke-width="1" fill="none" fill-rule="evenodd">
        <g id="植物" transform="translate(-800.000000, -238.000000)" fill="#545458">
            <path d="M822.078248,254.056222 C822.06707,254.108386 822.054029,254.160549 822.042851,254.208987 C822.037262,254.208987 822.031673,254.212713 822.027947,254.212713 C822.024221,254.197809 822.020495,254.188494 822.014906,254.177316 C822.013043,254.17359 822.01118,254.169864 822.01118,254.168001 C821.981372,254.10466 821.953427,254.041318 821.91803,253.968661 C821.910578,253.959346 821.904989,253.944442 821.901263,253.935127 C821.929208,253.823348 821.960879,253.715294 821.990687,253.609103 C822.031673,253.815896 822.059618,253.959346 822.078248,254.056222 L822.078248,254.056222 Z M827.795775,263.477379 C828.006293,263.404723 828.09199,263.378641 828.09199,263.378641 L827.954129,263.633871 C827.901965,263.581707 827.849801,263.529543 827.795775,263.477379 L827.795775,263.477379 Z M821.392666,254.492162 C821.381488,254.488436 821.374036,254.48471 821.360995,254.477258 C821.357269,254.477258 821.355406,254.473532 821.355406,254.473532 C821.46346,254.50334 821.569651,254.525696 821.668389,254.555504 C821.657211,254.600216 821.649759,254.650517 821.640444,254.697091 C821.57524,254.637476 821.513761,254.579723 821.442967,254.520107 C821.442967,254.520107 821.422474,254.510792 821.392666,254.492162 L821.392666,254.492162 Z M824.869012,259.891117 C824.837341,259.835227 824.801944,259.779337 824.770273,259.725311 C824.665946,259.535285 824.570933,259.341534 824.479646,259.147783 C824.444249,259.076989 824.408853,259.004332 824.373456,258.935401 C824.308251,258.77891 824.254224,258.618693 824.196471,258.456612 C824.619371,257.933111 824.623097,257.929385 824.623097,257.929385 L824.420031,258.927949 L825.073941,259.768159 L825.81355,259.185043 L825.407417,259.976815 C825.407417,259.976815 826.482364,261.565948 827.104604,262.793661 C826.463734,262.106216 825.804235,261.329348 825.243474,260.491001 C825.111201,260.29725 824.988244,260.09232 824.869012,259.891117 L824.869012,259.891117 Z M821.906852,257.99459 C822.087563,259.503614 822.534681,260.956749 823.225852,262.182599 C823.276153,262.273886 823.333905,262.361446 823.387932,262.454596 C823.389795,262.45087 823.389795,262.45087 823.393521,262.45087 C823.96546,263.417763 824.611919,264.321315 825.323582,265.168977 L825.319856,265.168977 C825.342212,265.193196 825.364568,265.223004 825.383198,265.24536 C825.385061,265.24536 825.386924,265.241634 825.388787,265.241634 C825.75766,265.6813 826.139573,266.100474 826.536391,266.510332 C826.536391,266.510332 826.532665,266.510332 826.532665,266.514058 C826.623952,266.605345 826.715238,266.698495 826.806525,266.791644 C826.808388,266.791644 826.810251,266.787918 826.813977,266.787918 C827.445532,267.423199 828.101305,268.034261 828.785024,268.62483 C828.857681,268.684446 828.928475,268.747788 829.002994,268.811129 L829.002994,268.807403 C829.530221,269.252659 830.0649,269.690462 830.607032,270.113362 C830.696455,270.186018 830.784016,270.258675 830.87344,270.325743 C831.123081,270.52322 831.372722,270.713246 831.626089,270.906997 C831.629815,270.970339 831.63913,271.035543 831.63913,271.102611 C831.63913,271.102611 831.642856,271.087707 831.648445,271.065351 C831.650308,271.057899 831.654034,271.05231 831.655897,271.041132 C831.661486,271.020639 831.668938,270.994558 831.678253,270.961024 C831.678253,270.957298 831.680116,270.953572 831.681979,270.94612 C831.756498,271.00201 831.829155,271.057899 831.901812,271.115652 L831.901812,271.117515 C832.071344,271.246062 832.24274,271.376471 832.412272,271.503155 C832.434628,271.521785 832.456984,271.538552 832.483066,271.560908 C833.613903,272.410433 834.754055,273.313984 835.85881,274.264111 C835.856947,274.264111 835.855084,274.267837 835.853221,274.267837 C835.989219,274.383342 836.121492,274.493259 836.251901,274.610628 C836.253764,274.606902 836.255627,274.606902 836.255627,274.606902 C837.295178,275.514179 838.299331,276.469895 839.242006,277.475911 C839.240143,277.475911 839.23828,277.479637 839.236417,277.4815 C839.255047,277.496404 839.268088,277.51876 839.286718,277.535527 C839.288581,277.531801 839.290444,277.531801 839.290444,277.531801 C839.508414,277.760949 839.724521,277.99755 839.931313,278.23415 C839.927587,278.237876 839.923861,278.241602 839.920135,278.241602 C840.072901,278.412997 840.229392,278.58253 840.374706,278.757651 C840.374706,278.757651 840.380295,278.757651 840.380295,278.753925 C840.888892,279.355672 841.367681,279.977912 841.818526,280.613192 C841.818526,280.613192 841.816663,280.616918 841.812937,280.616918 C841.928442,280.778999 842.043948,280.941079 842.153865,281.108749 C842.155728,281.108749 842.155728,281.108749 842.159453,281.105023 C842.198576,281.160912 842.233973,281.216802 842.273096,281.278281 L842.265644,281.278281 C842.457532,281.570771 842.651284,281.866987 842.831994,282.170655 C842.91024,282.299201 842.992212,282.431474 843.068594,282.565609 C843.32755,283.02018 843.584643,283.508284 843.830559,284.015018 C843.826833,284.018744 843.823107,284.018744 843.819381,284.018744 C843.923708,284.244166 844.033625,284.467726 844.137952,284.7006 L844.14913,284.7006 C844.411812,285.287443 844.655865,285.900368 844.877561,286.528196 L844.870109,286.528196 C844.875698,286.546826 844.885013,286.56173 844.888739,286.578497 L844.896191,286.578497 C845.302323,287.727964 845.628347,288.93891 845.827687,290.153581 C845.822098,290.153581 845.816509,290.149855 845.812784,290.149855 C845.84818,290.369689 845.889166,290.587659 845.915248,290.807492 C845.915248,290.807492 845.918974,290.807492 845.918974,290.811218 C845.999083,291.446499 846.036343,292.079917 846.030754,292.707745 C845.753168,292.948072 845.462541,293.184672 845.136517,293.361656 C844.756466,293.566585 844.318663,293.691406 843.910667,293.819952 C843.901352,293.823678 843.892037,293.827404 843.882722,293.83113 C843.616314,293.83113 843.355495,293.866527 843.096539,293.931732 C843.003389,293.950362 842.912103,293.98017 842.822679,294.011841 C842.830131,294.015567 842.837583,294.015567 842.843172,294.019293 C842.805912,294.032334 842.766789,294.047238 842.727666,294.060279 C842.707174,294.064005 842.684818,294.075183 842.668051,294.078908 C842.662462,294.082634 842.658736,294.082634 842.65501,294.082634 C842.502244,294.138524 842.351342,294.194414 842.198576,294.248441 C841.907949,294.343454 841.630363,294.464548 841.345325,294.561424 C841.254039,294.596821 841.159026,294.634081 841.069602,294.67134 C841.009987,294.697422 840.929878,294.717915 840.888892,294.770079 C840.883303,294.777531 840.88144,294.784983 840.88144,294.788709 C840.53306,295.155719 840.074764,295.373689 839.676083,295.677357 C839.666768,295.677357 839.65559,295.681083 839.650001,295.695987 C839.650001,295.699713 839.648138,295.701576 839.646275,295.701576 C839.644412,295.705302 839.640686,295.705302 839.638823,295.709028 C839.627645,295.71648 839.62392,295.725795 839.627645,295.736973 C839.569893,295.858067 839.523318,295.988477 839.541948,296.120749 C839.575482,296.40765 839.786,296.605128 839.998381,296.77466 C840.151147,296.897617 840.305775,297.026164 840.456678,297.152848 C840.493937,297.184518 840.529334,297.216189 840.568457,297.244134 L840.57032,297.244134 C840.676511,297.333558 840.786427,297.424845 840.90007,297.506816 C841.209327,297.73969 841.539077,297.953935 841.92099,298.05081 C842.304767,298.140234 842.697859,298.14396 843.092813,298.140234 C844.001954,298.134645 844.914821,298.08807 845.825824,298.035906 C845.898481,298.028454 845.967412,298.024728 846.038206,298.021002 C846.857923,297.968839 847.67764,297.90736 848.495494,297.85147 C848.501083,297.85147 848.508535,297.847744 848.510398,297.840292 C848.907216,297.877552 849.304033,297.922264 849.698988,297.965113 C850.106983,298.009825 850.514979,298.054536 850.921111,298.091796 C851.353326,298.130919 851.796718,298.183083 852.22707,298.134645 C852.614572,298.08807 853.005801,297.965113 853.376537,297.847744 C853.799436,297.713609 854.227925,297.603692 854.650824,297.48446 C854.725344,297.463967 854.798001,297.441612 854.87252,297.424845 L855.148243,297.898045 L855.151969,297.898045 L855.151969,297.901771 C855.163147,297.903634 855.174325,297.90736 855.18364,297.911086 C855.409062,298.013551 855.641937,298.095522 855.876674,298.171905 C855.887852,298.175631 855.897167,298.183083 855.908345,298.186809 C855.912071,298.186809 855.91766,298.190535 855.921386,298.190535 L855.958645,298.186809 L855.956782,298.186809 L858.168156,298.028454 L858.168156,298.024728 L858.352592,298.013551 L858.453194,297.922264 C858.477412,297.903634 858.505357,297.879415 858.535165,297.85147 L858.548206,297.840292 C858.633904,297.765772 858.805299,297.668897 858.857463,297.573884 C858.902175,297.491912 858.972969,297.089506 858.946887,296.934877 L858.950613,296.897617 L858.151389,296.185954 C858.041472,296.079763 857.85331,295.846889 857.687503,295.768643 L857.659558,295.740699 L857.624162,295.736973 L857.620436,295.736973 L857.50493,295.722069 L857.21244,295.692261 C856.95721,295.196705 856.759733,294.67134 856.48401,294.190688 C856.411353,294.067731 856.333107,293.94291 856.247409,293.83113 C856.217602,293.792008 856.180342,293.758474 856.144945,293.717488 C856.089055,293.654146 856.033165,293.581489 855.966097,293.523736 C855.971686,293.527462 855.975412,293.534914 855.977275,293.53864 C855.964234,293.527462 855.956782,293.510696 855.941879,293.499518 C855.774209,293.354204 855.589773,293.229384 855.403473,293.108289 C855.392295,293.100837 855.384843,293.093385 855.373666,293.087796 C855.36994,293.08407 855.368077,293.080344 855.362488,293.080344 C855.364351,293.080344 855.364351,293.080344 855.364351,293.08407 C855.325228,293.057988 855.289831,293.033769 855.252571,293.007687 C855.209722,292.985331 855.170599,292.962975 855.129613,292.936894 C855.120298,292.935031 855.114709,292.931305 855.105394,292.925716 C854.829671,292.759909 854.552085,292.595966 854.272636,292.437611 C854.185076,292.385448 854.093789,292.338873 854.006228,292.288572 C853.961517,292.264353 853.916805,292.238271 853.873956,292.215915 C853.553521,291.983041 853.225634,291.763208 852.882843,291.573182 C852.79342,291.526608 852.705859,291.487485 852.614572,291.442773 C852.614572,291.442773 852.614572,291.439047 852.612709,291.439047 C852.469259,291.368253 852.327671,291.297459 852.186084,291.226666 C852.072441,291.176365 851.960662,291.135379 851.847019,291.088804 C851.828389,291.081352 851.819074,291.068311 851.813485,291.053407 C851.725924,291.014284 851.640227,290.973299 851.550803,290.934176 C851.532173,290.926724 851.515406,290.934176 851.506091,290.947217 C851.403627,290.902505 851.308614,290.844752 851.189382,290.839163 C850.993768,290.827985 850.798154,290.848478 850.604402,290.848478 L850.468404,290.848478 C850.257886,288.529051 849.66918,286.246884 848.838285,284.24044 C848.674341,283.852938 848.501083,283.47475 848.325962,283.098426 C848.31851,283.087248 848.314784,283.07607 848.309195,283.066755 C846.21519,278.668227 842.951226,274.973911 839.165623,271.920465 C839.146993,271.905561 839.130226,271.89252 839.111596,271.877616 C838.768806,271.598167 838.411111,271.328033 838.051553,271.061625 C838.051553,271.065351 838.04969,271.065351 838.04969,271.065351 C837.166631,270.409578 836.253764,269.778023 835.327857,269.157646 C835.288734,269.127838 835.249611,269.101756 835.208625,269.075674 C834.19702,268.395682 833.181688,267.715689 832.181261,267.020793 C832.183124,266.994711 832.183124,266.964903 832.183124,266.935095 C832.183124,266.912739 832.181261,266.882931 832.181261,266.858712 C832.181261,266.672413 832.179398,266.484251 832.170083,266.290499 C832.16822,266.225294 832.162631,266.154501 832.160768,266.08557 C832.14959,265.927216 832.140275,265.766998 832.13096,265.604918 C832.123508,265.528535 832.117919,265.448426 832.110467,265.370181 C832.103015,265.288209 832.097426,265.211826 832.088111,265.13358 C832.086248,265.129854 832.086248,265.126128 832.082522,265.122402 C832.015455,264.487122 831.909264,263.822033 831.747183,263.134588 L831.298202,262.955741 L831.462146,262.635306 C831.462146,262.635306 831.095136,260.481686 829.932628,258.900005 L829.379319,258.860882 L829.571207,258.352284 C829.571207,258.352284 829.492962,258.233053 829.371867,258.05048 C828.948967,257.413336 827.983937,255.960201 827.706351,255.568972 L826.998413,255.719875 L827.058029,255.313742 C827.058029,255.313742 826.882908,255.16284 826.532665,254.965362 C826.528939,254.965362 826.519624,254.957911 826.510309,254.954185 C826.435789,254.911336 826.351955,254.874076 826.258805,254.825638 C826.23086,254.812597 826.206641,254.803282 826.178696,254.788378 C826.165655,254.784652 826.15634,254.7772 826.145162,254.773474 C826.577377,254.382246 827.261095,253.8811 828.088264,253.728335 L828.101305,252.815468 L828.596862,253.517817 C828.596862,253.517817 828.617355,253.502913 828.62667,253.499187 C828.831599,253.391133 830.212077,252.644073 830.936781,252.591909 L830.877166,251.781507 L831.34664,252.250981 C831.34664,252.250981 832.702899,251.930546 833.479767,251.92682 L833.766668,251.166719 L833.878448,251.639919 C833.878448,251.639919 834.107596,251.569126 834.483921,251.502058 C834.584522,251.479702 834.692576,251.464798 834.809945,251.449894 C834.81926,251.449894 834.832301,251.446168 834.839753,251.446168 C834.955258,251.427538 835.076353,251.41636 835.206762,251.403319 L835.225392,251.403319 C835.359528,251.390278 835.502978,251.382826 835.652018,251.375374 L835.676237,251.375374 C835.806646,251.371648 835.944508,251.371648 836.084232,251.375374 C836.115903,251.375374 836.147574,251.375374 836.179245,251.3791 C836.317106,251.382826 836.460557,251.394004 836.60587,251.405182 L836.644993,251.405182 C836.801485,251.427538 836.961702,251.449894 837.121919,251.479702 C837.155453,251.483428 837.19085,251.494606 837.226247,251.502058 C837.352931,251.526277 837.477751,251.559811 837.604435,251.593344 C837.647284,251.604522 837.691995,251.619426 837.732981,251.630604 C837.893199,251.682768 838.051553,251.734932 838.208045,251.802 C838.208045,251.802 838.206182,251.794548 838.200593,251.781507 C838.196867,251.774055 838.196867,251.766603 838.193141,251.757288 C838.187552,251.742384 838.1801,251.72748 838.172648,251.706987 C838.167059,251.693946 838.16147,251.679042 838.152155,251.664138 C838.14284,251.639919 838.131662,251.6157 838.118621,251.585893 C838.107443,251.5654 838.099991,251.552359 838.088813,251.526277 C838.066457,251.479702 838.038512,251.427538 838.006841,251.371648 C837.991937,251.345566 837.969581,251.315758 837.954677,251.287814 C837.932322,251.250554 837.909966,251.21702 837.885747,251.176034 C837.863391,251.1425 837.837309,251.103377 837.811227,251.06798 C837.787008,251.028857 837.759063,250.991598 837.727392,250.950612 C837.699447,250.909626 837.669639,250.870503 837.634243,250.823928 C837.596983,250.77549 837.550408,250.717738 837.503833,250.665574 C837.449806,250.602232 837.392053,250.535164 837.328712,250.468096 C837.284,250.417796 837.239288,250.369358 837.187124,250.315331 C837.142412,250.270619 837.092111,250.225907 837.041811,250.173744 C836.99151,250.125306 836.93562,250.076868 836.883456,250.026567 C836.827566,249.978129 836.77354,249.929691 836.713924,249.881254 C836.644993,249.821638 836.570473,249.765748 836.495954,249.704269 C836.417708,249.644653 836.337599,249.585038 836.251901,249.523559 C836.149437,249.449039 836.043246,249.374519 835.929604,249.3 C835.862536,249.257151 835.789879,249.216165 835.720948,249.16959 C835.624073,249.111837 835.52906,249.052222 835.428458,248.994469 C835.350213,248.949757 835.270104,248.908771 835.189995,248.862196 C835.150872,248.843566 835.121065,248.823073 835.081942,248.806306 L835.081942,248.810032 C834.306936,248.405763 833.358673,248.029438 832.173809,247.72577 C831.424886,247.96237 831.273983,248.169163 831.273983,248.169163 L831.424886,247.96237 C831.424886,247.96237 829.835752,247.887851 828.568917,248.226915 C828.572643,248.223189 828.574506,248.223189 828.574506,248.223189 C828.557739,248.226915 828.546561,248.232504 828.529794,248.23623 C828.393795,248.277216 828.25966,248.314476 828.138565,248.364777 C828.12925,248.368503 828.116209,248.372229 828.106894,248.372229 C827.974622,248.424393 827.853527,248.484009 827.736159,248.551076 C827.706351,248.56598 827.680269,248.586473 827.654187,248.605103 C827.570352,248.657267 827.492107,248.713157 827.426902,248.776498 C827.398957,248.798854 827.372875,248.819347 827.348656,248.843566 C827.264821,248.929264 827.192165,249.020551 827.141864,249.123015 L827.013317,248.757869 L825.46517,249.478847 L825.634702,249.09507 L825.632839,249.09507 L825.66451,249.024277 L825.027366,248.875237 L825.705496,248.746691 L827.141864,245.803161 L826.538254,245.428699 L827.445532,245.678341 C827.445532,245.678341 828.67697,243.962524 829.982929,243.055246 L829.614056,242.585771 L830.128242,242.971411 C830.128242,242.971411 831.784443,241.294717 832.563175,241.00409 L832.356382,240.36322 L832.766241,240.843873 C832.766241,240.843873 834.357237,238.492775 835.599854,238.425707 C835.599854,238.425707 833.891489,238.064287 830.314542,238.237545 L830.281008,238.690252 L830.018326,238.453652 C830.018326,238.453652 827.393368,239.213753 826.480501,240.035334 C826.402255,240.162017 826.34264,240.268208 826.28675,240.366946 C826.28675,240.366946 826.288613,240.36322 826.288613,240.359494 C826.281161,240.374398 826.275572,240.383713 826.266257,240.398617 C826.245764,240.43774 826.23086,240.467548 826.21223,240.501082 C826.17497,240.575602 826.139573,240.635217 826.113492,240.687381 C826.102314,240.7116 826.091136,240.73023 826.081821,240.752586 C826.057602,240.80475 826.037109,240.847599 826.022205,240.877407 C826.018479,240.892311 826.014753,240.899762 826.009164,240.907214 C825.996123,240.937022 825.990534,240.955652 825.990534,240.955652 L825.802372,240.320372 C825.802372,240.320372 824.502002,241.086062 823.425192,242.762756 C823.570506,243.3999 823.503438,243.578747 823.503438,243.578747 L823.112209,242.990041 C823.112209,242.990041 822.847664,243.211737 822.54027,243.794854 L822.54027,243.789265 C822.530955,243.807895 822.52164,243.824662 822.512325,243.843292 C822.488106,243.89173 822.460161,243.94762 822.430354,244.005372 C822.417313,244.037043 822.400546,244.07244 822.385642,244.107837 C822.361423,244.161864 822.335341,244.217754 822.312985,244.273643 C822.296218,244.30904 822.281314,244.344437 822.26641,244.379834 C822.232876,244.471121 822.195616,244.567996 822.16022,244.664872 C822.147179,244.703995 822.134138,244.743118 822.12296,244.782241 C822.098741,244.85676 822.074522,244.935006 822.04844,245.011389 C822.035399,245.059827 822.020495,245.111991 822.007454,245.160428 C821.981372,245.244263 821.957153,245.337413 821.93666,245.428699 C821.923619,245.469685 821.912441,245.508808 821.901263,245.555383 C821.873319,245.685792 821.843511,245.818065 821.815566,245.965241 C821.804388,246.017405 821.795073,246.073295 821.785758,246.132911 C821.77458,246.190664 821.761539,246.246553 821.752224,246.306169 C821.174696,244.810186 820.306541,243.159573 820.306541,243.159573 L819.319155,243.090643 L819.63959,242.794427 C819.287484,241.939313 818.793791,241.488468 818.793791,241.488468 L818.190181,241.555536 L818.665244,241.011542 C817.020221,239.439176 815.7627,239.062851 815.7627,239.062851 L815.013777,239.573311 C815.013777,239.573311 815.080845,239.388875 815.354705,238.856059 C811.641759,237.86122 808.912474,238.751731 807.450024,239.882568 C807.43512,239.886294 807.412764,239.89002 807.412764,239.89002 C807.412764,239.89002 807.427668,239.89002 807.446298,239.886294 C807.220876,240.059552 807.023398,240.2384 806.857592,240.422836 C808.750393,240.27566 810.652509,241.425127 810.652509,241.425127 L811.63617,241.22206 L811.222585,241.618878 L813.225303,243.172614 L814.624411,242.837276 C814.624411,242.837276 814.439975,242.999356 813.871762,243.377544 C814.333784,243.752005 815.850261,245.650396 815.850261,245.650396 L817.42449,245.227496 C817.42449,245.227496 817.430079,245.456644 816.554472,246.017405 C816.630855,246.039761 816.699786,246.065843 816.764991,246.091925 C816.824607,246.11987 816.874907,246.144089 816.923345,246.170171 C816.93266,246.17576 816.945701,246.179486 816.956879,246.186938 C816.997865,246.211157 817.036988,246.235376 817.074248,246.261457 C817.0817,246.268909 817.094741,246.276361 817.105919,246.28195 C817.139452,246.306169 817.167397,246.328525 817.195342,246.352744 C817.202794,246.362059 817.213972,246.369511 817.221424,246.376963 C817.245643,246.399319 817.266136,246.419812 817.284766,246.440305 C817.294081,246.447757 817.297807,246.458935 817.305259,246.464524 C817.322026,246.483154 817.33693,246.501784 817.349971,246.518551 C817.35556,246.527865 817.361149,246.535317 817.364875,246.542769 C817.37419,246.557673 817.381642,246.572577 817.389094,246.581892 C817.39282,246.589344 817.396545,246.594933 817.400271,246.602385 C817.403997,246.609837 817.407723,246.617289 817.411449,246.624741 C817.415175,246.632193 817.418901,246.639645 817.418901,246.639645 L818.19577,246.483154 L817.491558,246.952628 C818.165962,247.515252 818.911159,249.249699 819.099321,249.711721 C819.103047,249.722899 819.110499,249.737803 819.116088,249.748981 C819.121677,249.765748 819.130992,249.786241 819.136581,249.797419 C819.140307,249.808597 819.145896,249.825364 819.145896,249.825364 L819.781177,249.840268 L819.455153,250.17747 C820.058763,250.630177 820.789056,251.999477 821.275298,253.027849 C821.234312,252.977549 821.187737,252.929111 821.143025,252.876947 C821.13371,252.869495 821.126258,252.862043 821.11508,252.850865 C821.029383,252.757715 820.938096,252.666429 820.839357,252.575142 C820.820727,252.558375 820.802097,252.543471 820.78533,252.524841 C820.576675,252.338542 820.340075,252.148517 820.068078,251.960354 C820.045722,251.94545 820.021503,251.930546 820.00101,251.911916 C819.859423,251.818767 819.714109,251.72748 819.557618,251.636193 C819.54644,251.630604 819.531536,251.619426 819.516632,251.611974 C819.365729,251.522551 819.205512,251.438716 819.037843,251.353018 C819.01735,251.343703 818.99872,251.332525 818.974501,251.32321 C818.797517,251.233787 818.609354,251.149952 818.410014,251.064254 C818.398836,251.056802 818.387658,251.053076 818.37648,251.047487 C818.378343,251.051213 818.382069,251.051213 818.382069,251.053076 C817.458024,250.661848 816.314146,250.326509 814.894545,250.093635 L814.806985,250.695382 L814.404578,250.173744 C814.404578,250.173744 812.990566,250.052649 810.047037,251.157404 L810.408457,251.967806 L809.558932,251.237513 C809.558932,251.237513 806.874359,252.226762 805.942862,252.629169 L805.989437,253.398585 L805.490155,253.020397 C805.490155,253.020397 804.931257,253.260724 804.195374,253.797266 C804.191648,253.797266 804.186059,253.804718 804.182333,253.808444 C804.016527,253.927675 803.839543,254.063674 803.656969,254.220165 C803.645791,254.22948 803.634613,254.240658 803.623435,254.24811 C803.442725,254.404601 803.256426,254.570408 803.075715,254.756707 C803.064537,254.766022 803.053359,254.780926 803.040319,254.792104 C802.855882,254.982129 802.669583,255.183333 802.488872,255.405029 C802.48142,255.416207 802.473969,255.427385 802.46838,255.438563 C802.283943,255.663985 802.10137,255.9099 801.931837,256.174445 C802.034302,256.466935 802.024987,256.640194 801.974686,256.748247 C801.954193,256.789233 801.924385,256.820904 801.896441,256.845123 C801.888989,256.848849 801.881537,256.852575 801.874085,256.852575 C801.848003,256.871205 801.823784,256.88052 801.797702,256.887972 C801.788387,256.891698 801.780935,256.891698 801.77162,256.891698 C801.749264,256.89915 801.728771,256.89915 801.712004,256.89915 L801.695237,256.89915 L801.667292,256.89915 C801.667292,256.89915 799.07028,260.040156 800.83826,264.343671 C802.105096,262.15838 803.792968,261.211979 803.792968,261.211979 L803.52656,260.375495 L803.969952,260.757409 L804.994599,259.747667 L805.708125,259.045318 L805.471525,258.37464 L805.9913,258.607515 L808.755982,256.804137 L808.858447,256.737069 L808.690777,255.595054 L809.234771,256.418497 C809.234771,256.418497 809.912901,255.934119 810.430813,255.798121 L810.505333,255.276482 L810.840672,255.641629 C810.840672,255.641629 813.104209,254.480984 814.227594,254.374794 L814.438112,253.661267 L814.657945,254.0674 C814.657945,254.0674 815.665825,253.789814 816.85814,253.901593 C816.908441,253.909045 816.960605,253.912771 817.010906,253.916497 C817.167397,253.93699 817.323889,253.961209 817.485969,253.99288 L817.839938,253.461927 L817.942403,253.901593 C817.942403,253.901593 818.328042,253.948168 818.872036,254.03014 C818.858995,254.03014 818.844091,254.037592 818.832913,254.037592 C818.674559,254.052496 818.518068,254.078578 818.354124,254.113975 C818.324316,254.121426 818.298234,254.121426 818.2647,254.130741 L818.274015,254.134467 C817.33693,254.35989 816.299242,254.929966 815.311856,256.168856 L815.734755,256.275047 L814.961613,256.584304 L815.056626,256.927095 C815.056626,256.927095 813.607217,258.87206 813.178728,260.164977 L813.780475,260.390399 L813.15451,260.675437 L813.432096,260.762998 C813.432096,260.762998 813.314727,260.805847 813.163825,260.967927 L813.161962,260.967927 C813.158236,260.971653 813.15451,260.979105 813.150784,260.982831 C813.128428,261.010776 813.102346,261.038721 813.074401,261.077844 C813.065086,261.089022 813.055771,261.1002 813.044593,261.111378 C813.014785,261.159815 812.981251,261.208253 812.94958,261.264143 C812.936539,261.292088 812.919772,261.321896 812.904868,261.351704 C812.888102,261.388964 812.869472,261.426224 812.850842,261.465346 C812.834075,261.504469 812.819171,261.539866 812.802404,261.580852 C812.7875,261.625564 812.770733,261.674002 812.753966,261.722439 C812.739062,261.765288 812.724158,261.808137 812.71298,261.854712 C812.685035,261.945999 812.660816,262.044737 812.63846,262.150928 C812.629145,262.19564 812.621693,262.245941 812.612378,262.294378 C812.601201,262.372624 812.58816,262.45087 812.575119,262.534705 C812.567667,262.59432 812.562078,262.653936 812.556489,262.715415 C812.549037,262.808565 812.541585,262.90544 812.535996,263.004179 C812.53227,263.063795 812.528544,263.119685 812.526681,263.184889 C812.521092,263.337655 812.519229,263.496009 812.522955,263.665542 L812.521092,263.665542 C812.521092,263.682309 812.521092,263.699075 812.522955,263.717705 L812.848979,263.814581 L812.3143,264.483396 L812.673857,264.677147 C812.673857,264.677147 812.459613,267.875907 813.333357,270.618233 C814.676575,267.352405 815.527963,266.866164 815.527963,266.866164 L815.300678,266.409731 L815.710536,266.612797 L816.112943,265.832203 L816.856277,264.388383 L816.502309,264.151783 L817.37419,263.855567 L818.056045,262.830921 L817.638735,262.350268 L818.458452,262.747086 L820.634428,259.458903 L820.269281,258.611241 L820.954863,259.27074 L821.906852,257.99459 Z" id="20"></path>
        </g>
    </g>
</svg>
