<?xml version="1.0" encoding="UTF-8"?>
<svg width="48px" height="61px" viewBox="0 0 48 61" version="1.1" xmlns="http://www.w3.org/2000/svg" xmlns:xlink="http://www.w3.org/1999/xlink">
    <title>30</title>
    <g id="页面-1" stroke="none" stroke-width="1" fill="none" fill-rule="evenodd">
        <g id="植物" transform="translate(-807.000000, -321.000000)" fill="#545458">
            <path d="M810.548316,321.265997 C811.564408,323.609125 816.632906,327.634393 816.632906,327.634393 C817.037227,328.360699 816.905213,329.001908 816.905213,329.001908 C816.717542,331.414953 818.595633,334.63618 818.595633,334.63618 L820.025245,336.437454 C819.327918,334.958164 819.843093,332.139879 819.843093,332.139879 C820.076302,329.621959 819.653582,328.313321 819.653582,328.313321 C822.37525,329.462256 825.099413,331.649976 825.36078,331.862383 L825.381229,331.879071 C825.702294,332.852385 825.242316,336.50967 825.242316,336.50967 C825.180679,339.260799 826.440559,341.579089 826.440559,341.579089 C825.627778,339.642121 826.392721,336.882253 826.392721,336.882253 C826.863955,334.376833 826.614567,332.919591 826.511873,332.483293 L826.474597,332.343189 C828.409265,333.126992 829.296103,334.648139 829.296103,334.648139 C832.352657,335.330747 834.368281,338.437899 834.368281,338.437899 C834.334501,339.046938 834.321385,339.719854 834.319316,340.357246 L834.32152,341.098705 C834.330935,342.166231 834.363681,342.989842 834.363681,342.989842 L834.401155,343.298122 C834.819235,346.442207 836.340207,349.848115 836.340207,349.848115 C836.203042,348.697728 836.105833,347.269517 836.036959,345.809255 L836.000607,344.973028 C835.889176,342.185302 835.872516,339.451133 835.870309,338.468974 L835.870109,338.087395 C836.279351,338.471255 836.917165,339.204617 837.580358,340.004852 L837.986096,340.498608 L838.424743,341.040511 C839.403573,342.25795 840.243121,343.353684 840.243121,343.353684 C840.810274,344.27686 840.820393,346.127812 840.820393,346.127812 C841.083501,345.245114 840.797855,344.021572 840.797855,344.021572 L843.278056,347.00867 C844.052659,349.220705 843.467107,351.234029 843.467107,351.234029 C842.914674,352.88765 843.451468,356.093697 843.451468,356.093697 C845.458352,353.232173 844.967556,349.52291 844.967556,349.52291 C848.669619,355.020546 847.711682,362.811949 847.220316,365.548584 C847.481616,365.83358 847.73688,366.125306 847.988232,366.422505 C849.122998,367.7845 850.148289,369.24815 851.010288,370.809315 C851.194647,371.115845 851.347507,371.437977 851.507726,371.75687 L851.629878,371.995139 C851.835028,372.39256 852.036499,372.791821 852.203011,373.206261 L852.732446,374.440382 L853.183684,375.704862 C853.507969,376.543862 853.705299,377.41782 853.956907,378.281659 C854.182297,379.151018 854.330409,380.036476 854.51946,380.917794 L851.777531,381.265997 C851.670816,380.448616 851.606419,379.619276 851.467046,378.803734 C851.302374,377.994173 851.192899,377.166212 850.95785,376.37091 L850.641845,375.165308 L850.249024,373.982704 C850.152245,373.662927 850.033092,373.352571 849.908051,373.044099 L849.813425,372.81298 C849.651053,372.430278 849.515359,372.032397 849.330908,371.658895 C848.65198,370.133148 847.80838,368.679617 846.848406,367.303823 C846.712584,367.110833 846.573638,366.91872 846.431671,366.72809 C836.501328,369.596988 829.075773,359.731204 829.075773,359.731204 C833.049008,358.409368 837.070797,357.705862 838.749819,357.447171 L839.564653,357.329658 C837.911492,356.378423 828.697211,359.115753 828.697211,359.115753 C827.906969,358.643355 826.365582,357.267101 826.365582,357.267101 C828.994357,357.474551 837.163568,353.878902 837.163568,353.878902 C834.868277,353.592796 832.583566,354.76022 832.583566,354.76022 C829.670533,356.075771 826.419208,356.250904 825.648193,356.274145 L825.477825,356.277688 C821.420358,353.870623 818.163253,348.075819 818.163253,348.075819 C819.937849,348.660911 829.415237,345.107121 829.415237,345.107121 C827.081308,344.455332 824.3127,345.75891 824.3127,345.75891 C821.314728,347.270837 818.260914,347.037884 817.494582,346.948018 L817.311834,346.923574 C815.333468,345.180257 813.275066,340.71433 813.275066,340.71433 C814.751466,341.184231 816.666195,341.290108 817.294944,341.312827 L817.505025,341.318741 C819.950728,341.54551 823.230832,339.817833 823.230832,339.817833 C821.347682,339.389593 818.625531,340.189035 818.625531,340.189035 C815.248832,341.000896 812.77277,339.537706 812.77277,339.537706 C812.094247,338.837978 811.658792,337.403134 811.473974,336.683585 L811.372137,336.252083 C814.359235,337.290713 817.985702,335.740587 817.985702,335.740587 C815.204214,336.788417 811.09247,335.355585 811.09247,335.355585 C811.087411,334.62928 809.019349,331.499589 809.019349,331.499589 C810.41456,332.033419 813.139115,331.88492 814.19005,331.802393 L814.617742,331.764537 L814.291158,331.371255 C811.457693,331.70198 808.569951,330.478438 808.569951,330.478438 C806.410162,326.818537 807.500709,322.582895 807.785207,321.642578 L807.845732,321.453295 L811.675129,327.562637 L811.608139,327.431974 C810.420599,325.066509 810.468199,322.432721 810.523648,321.562579 L810.548316,321.265997 Z" id="30"></path>
        </g>
    </g>
</svg>
