<?xml version="1.0" encoding="UTF-8"?>
<svg width="48px" height="61px" viewBox="0 0 48 61" version="1.1" xmlns="http://www.w3.org/2000/svg" xmlns:xlink="http://www.w3.org/1999/xlink">
    <title>tree-of-gross-trunk-with-long-thin-branches-with-leaves-all-along-of-its-extension-svgrepo-com</title>
    <g id="页面-1" stroke="none" stroke-width="1" fill="none" fill-rule="evenodd">
        <g id="形状库素材-植物" transform="translate(-805.000000, -69.000000)" fill="#545458" fill-rule="nonzero">
            <g id="tree-of-gross-trunk-with-long-thin-branches-with-leaves-all-along-of-its-extension-svgrepo-com" transform="translate(805.678684, 69.419343)">
                <path d="M39.8416516,13.1402087 C39.8885957,12.895608 39.6844433,12.5451169 39.0829033,12.0484845 C39.5741792,12.4540883 39.804533,12.8200605 39.8416516,13.1402087 Z" id="路径"></path>
                <path d="M44.001911,4.44857492 C43.9353159,4.14205963 44.04558,3.77878226 44.4364173,3.35685073 C43.7246131,3.81410089 43.685311,4.17863965 44.001911,4.44857492 Z" id="路径"></path>
                <path d="M45.5430935,1.3253338 C45.2428694,1.59826484 44.9557459,1.66267657 44.6817231,1.64302554 C44.8585824,1.74237244 45.121688,1.6954283 45.5430935,1.3253338 Z" id="路径"></path>
                <path d="M42.2344427,14.4340323 C41.9396772,14.7146054 41.6525537,14.7844758 41.3828979,14.7680999 C41.5597572,14.8641717 41.8195875,14.8139523 42.2344427,14.4340323 Z" id="路径"></path>
                <path d="M36.8036606,26.3782487 C36.8440544,26.1314078 36.6235261,25.7795814 36.0067019,25.2865245 C36.5099868,25.6895938 36.7578082,26.0551683 36.8036606,26.3782487 Z" id="路径"></path>
                <path d="M10.4975996,25.0525574 C10.3093513,24.8025525 9.96945841,24.678096 9.40587541,24.7785346 C9.86603802,24.6988387 10.2256853,24.8091029 10.4975996,25.0525574 Z" id="路径"></path>
                <path d="M3.06210053,14.1009607 C3.15598881,14.4950731 3.07192605,14.7789214 2.92235984,15.0060001 C3.09594398,14.903378 3.18328192,14.6490063 3.06210053,14.1009607 Z" id="路径"></path>
                <path d="M14.4611303,27.4217573 C14.4644055,27.1080156 14.6587324,26.7420847 15.1052476,26.3300331 C14.5582938,26.8331123 14.3879848,27.1844787 14.4611303,27.4217573 Z" id="路径"></path>
                <path d="M8.92809843,16.2424131 C8.65735083,16.2795317 8.3669522,16.2325875 8.05253563,15.9749406 C8.49468393,16.3232007 8.76106463,16.3559524 8.92809843,16.2424131 Z" id="路径"></path>
                <path d="M9.267618,17.927951 C9.69884906,18.3427806 9.8451401,18.7064756 9.81238837,19.0196752 C10.0995118,18.7339605 10.0219994,18.3683479 9.267618,17.927951 Z" id="路径"></path>
                <path d="M33.7053512,3.05398322 C33.5252167,2.9131508 33.3811092,2.7100901 33.3549078,2.36947215 C33.4040354,2.84000528 33.5372257,3.0168646 33.7053512,3.05398322 Z" id="路径"></path>
                <path d="M30.1208936,13.1523748 C30.3615466,12.8248575 30.7145044,12.5573851 31.2126178,12.3979933 C30.6075475,12.5945037 30.2729252,12.8576092 30.1208936,13.1523748 Z" id="路径"></path>
                <path d="M33.2141024,4.20750144 C33.0165003,4.77144933 32.6660569,5.09041694 32.2719444,5.29922563 C32.8025224,5.26140988 33.1977265,4.94655268 33.2141024,4.20750144 Z" id="路径"></path>
                <path d="M46.5454847,0 C45.9903165,0.300036538 45.4670265,0.655568716 44.9555982,1.02476299 C45.0197783,0.767724979 44.7677179,0.547436945 44.5292138,0.709158016 C44.3966173,0.798967753 44.4666223,1.01798489 44.5778254,1.02677523 C44.5165048,0.990766613 44.5959356,0.721125587 44.7035378,0.676750257 C44.8520205,0.615535602 44.8568922,0.97424501 44.8452424,1.02645751 C44.7872049,1.28836727 44.5065495,1.43907394 44.3075489,1.58099027 C43.0596384,2.47347453 42.0435598,3.92377469 41.2838838,5.23438258 C41.2391908,5.17602744 41.1932268,5.12413266 41.1400612,5.07721555 C40.7846349,4.75864516 39.9581312,4.4611504 39.8700159,5.20388116 C39.8214043,5.61162584 40.5541797,5.77228784 40.5266437,5.3788407 C40.4387403,5.84165739 39.8923625,5.40574126 39.9895857,5.08918312 C40.0721938,4.82155434 40.5146762,4.84093545 40.6980024,4.96696562 C40.954405,5.14298423 40.9987803,5.5175798 40.9484741,5.79982384 C40.8830232,6.16795903 40.6438836,6.52380894 40.504509,6.86927988 C40.304873,7.36376297 40.1347852,7.87063726 39.9950929,8.38524282 C39.7149671,9.4167839 39.5562114,10.4807327 39.5218973,11.5489179 C39.1255907,11.3820073 38.3545825,11.2847841 38.2430617,11.8580625 C38.0956382,12.614879 39.0338746,12.6226102 39.0088804,12.234988 C38.9906642,12.3986154 38.5758237,12.2673958 38.4285061,12.1185955 C37.9261859,11.6120389 38.8883574,11.5226528 39.2137059,11.7098976 C39.5329117,11.8933298 39.5235918,12.3295636 39.5319585,12.6487694 C39.5420198,13.0341676 39.5734744,13.4188244 39.6120248,13.802528 C37.2031539,13.2887697 36.1382519,15.4945096 36.1382519,15.4945096 C38.1261396,15.9738479 39.1954897,15.0994738 39.6861602,14.4713352 C39.7422912,14.9061922 39.8110253,15.3395666 39.8838898,15.7718819 C39.1696483,16.5817581 38.5632207,17.5325975 38.0739271,18.4219045 C38.0275395,18.3645026 37.9805165,18.3136669 37.9263977,18.2679147 C37.5640874,17.9573933 36.7312292,17.677797 36.6592119,18.4224341 C36.6197084,18.8311319 37.355661,18.9756959 37.3196524,18.583202 C37.2419162,19.0476073 36.6861125,18.6239764 36.7764518,18.3054061 C36.8533408,18.0360828 37.2959291,18.0455085 37.4820089,18.1676201 C37.7422242,18.3377079 37.7947544,18.7114562 37.7506968,18.9947593 C37.6932948,19.3644831 37.4618865,19.7252048 37.3303491,20.073853 C37.1417275,20.5728901 36.9828659,21.0833653 36.854188,21.6009362 C36.7297465,22.1029388 36.6351709,22.6120371 36.5681313,23.1247363 C36.3700839,23.0725238 36.1553031,23.0809965 35.9332146,23.1830915 C34.9749617,23.6234557 36.171401,24.7353808 36.4300277,24.1585015 C36.1970307,24.4128918 35.6713048,24.1967342 35.7060426,23.8460737 C35.7568783,23.4471194 36.1065855,23.273113 36.4734498,23.3969191 C36.4957963,23.4043327 36.5149656,23.4150294 36.5359354,23.4238197 C36.487006,23.8723388 36.4552337,24.3227643 36.4506797,24.7742489 C36.0511958,24.6161287 35.2778577,24.5357447 35.1790458,25.1116709 C35.0481439,25.8712409 35.9862744,25.8586379 35.9529134,25.4716512 C35.9382982,25.6355963 35.5210218,25.5134847 35.3698915,25.3679675 C34.8565568,24.8724253 35.816822,24.7622813 36.1457714,24.9421126 C36.3731552,25.0662364 36.4396653,25.3190381 36.4649772,25.5688744 C36.0829681,25.8219939 35.4658439,25.9840326 35.1051222,26.1470246 C34.5775959,26.3858465 34.0431856,26.6029573 33.5081399,26.8217626 C32.5300822,24.8837575 30.6389942,25.0794749 30.6389942,25.0794749 C30.8671194,26.3871174 31.5830555,27.0569836 32.28247,27.4047846 C31.6962708,27.7532209 31.1821948,28.2013164 30.8477383,28.824901 C30.4138344,28.2503517 29.5904019,27.8193073 28.8608037,27.9407835 C28.0820644,28.0704145 27.6184004,29.0500608 28.1965506,29.6726922 C28.5750647,29.9880854 29.4098293,29.8029587 29.2818928,29.2043683 C29.3185368,29.7488399 28.5420215,29.7446036 28.3089187,29.3816578 C27.8762857,28.7072376 28.6771598,28.130676 29.2899418,28.377335 C30.0175277,28.6702758 30.4685887,29.272467 30.3908524,30.0658216 C30.2991363,31.0003513 30.0674103,32.0038268 29.7871785,32.8977938 C29.4958264,33.8261807 29.1963194,34.8733962 28.7172988,35.7242587 C28.5199927,36.0744955 28.2214389,36.3258145 27.9304045,36.5947141 C27.4526548,37.0363493 27.0294476,37.5313619 26.6792108,38.0802816 C26.3541801,38.5898036 26.1020138,39.1382996 25.8962352,39.7055413 C25.6324191,39.6352185 25.3371484,39.6660377 25.112624,39.807954 C24.8426653,39.9783595 24.6877223,40.6701487 24.4123623,40.7331638 C23.5642533,40.1819141 22.5917028,39.7806298 21.8598806,39.0661764 C21.7429585,38.9517961 21.6342972,38.8204705 21.535803,38.6781306 C21.6291077,38.5292243 21.7231537,38.3806358 21.8125398,38.2295055 C22.1353465,37.6828099 22.4369717,37.1127087 22.67071,36.5186724 C22.6804535,36.4987618 22.6891379,36.4787452 22.6955983,36.4574578 C22.7604138,36.2884291 22.8165449,36.1167527 22.8689692,35.9440172 C25.2046578,36.1314738 26.0304202,33.928064 26.0304202,33.928064 C24.5898636,33.7170958 23.6778923,34.1489874 23.1143574,34.6563913 C23.1415757,34.3102849 23.1431643,33.9625899 23.1153105,33.6155303 C23.0887277,33.2843569 23.0475296,32.9601734 23.1247363,32.632389 C23.3127225,31.8363867 23.7229031,31.0214269 24.0703863,30.2837797 C24.4050546,29.5736685 24.8318627,28.8240538 25.3061174,28.1963388 C25.7085667,27.6635171 26.3285504,27.5485013 26.9430269,27.7811806 C27.4605979,27.9773216 27.6264494,28.7867742 26.9770233,28.9569679 C26.6273161,29.048684 26.1467069,28.6102261 26.478198,28.2955743 C26.0595448,28.5913745 26.4687722,29.1796918 26.8810709,29.200132 C27.5907585,29.1449541 27.8611409,28.2780995 27.4549848,27.7559745 C27.0745643,27.2669986 26.3224078,27.0647149 25.7290069,27.1726349 C25.9552258,26.2963545 25.6953282,25.4323594 25.3245453,24.6367807 C25.087418,24.1280001 24.8458425,23.6230321 24.6265076,23.1057789 C24.5201763,22.8552012 24.3068782,22.5068708 24.1825425,22.1837463 C25.9649693,24.3670338 28.2876312,22.962168 28.2876312,22.962168 C26.2695598,20.82548 24.3095259,22.0654474 24.1722695,22.1565281 C24.1184684,22.0116463 24.0820361,21.8719541 24.0857429,21.7504779 C24.1042767,21.1476512 24.6607158,20.3303614 25.3451974,20.6352697 C25.6414212,20.7675485 25.7580256,21.0730922 25.5629436,21.347605 C25.3853364,21.5835674 24.9387236,21.4182454 24.9397826,21.1292233 C24.7714953,21.6315436 26.1398229,21.6257186 25.7995414,20.8103352 C25.4391375,19.9466578 24.0940037,20.3086504 23.8246804,21.0657846 C23.5896712,20.294141 23.4804803,19.5296992 23.5397886,18.8021132 C26.2610872,19.2927836 27.1315427,17.1652037 27.1315427,17.1652037 C25.3232745,16.5754036 24.1941924,17.4804909 23.64379,18.1451677 C23.8265867,17.3848563 24.2249056,16.6786637 24.903774,16.0671525 C25.3681793,15.6507234 26.1738193,15.1545458 26.5595351,15.9982066 C26.691708,16.2878642 26.4992736,16.6366183 26.1692652,16.6317465 C25.8656278,16.6272984 25.7984823,16.1129047 26.1118633,16.0768961 C25.3752751,16.1611986 25.998542,16.9088011 26.4142298,16.7983394 C27.1948755,16.5909721 26.6541107,15.1980739 25.9819145,15.2061229 C26.8171027,14.5744893 27.6660589,13.9600128 28.4672507,13.2853807 C28.8464003,12.9657512 29.2175009,12.6339424 29.5632896,12.2777747 C29.7500049,12.08587 29.9917922,11.8117808 30.29257,11.8800913 C30.5991729,11.9494608 31.1413144,12.5509107 30.5439949,12.5774936 C30.3687177,12.5852248 30.0384975,12.4307055 30.1201523,12.3195024 C29.8848254,12.5444503 30.4672119,13.0719766 30.8059047,12.5221038 C31.0629427,12.105357 30.5323451,11.727796 30.1937582,11.6055785 C30.6075396,11.1263461 30.980017,10.6116347 31.3099195,10.0710817 C33.0420401,11.7734422 35.1151835,10.5199186 35.1151835,10.5199186 C33.7752391,9.10117893 32.4613481,9.17150165 31.6890691,9.40545178 C31.6919286,9.39962685 31.6955295,9.39411965 31.6988126,9.38829473 C31.904909,8.99198808 32.0880234,8.58329023 32.2458259,8.16527251 C32.3559699,7.87328496 32.4108301,7.51838823 32.5795411,7.2542544 C32.6408617,7.15798429 32.7279178,7.06213782 32.8293774,6.99075602 C33.0435228,7.01077258 33.2448533,7.01056076 33.4344281,6.99393325 C33.5517739,7.08925019 33.6363941,7.23021335 33.5738027,7.36111528 C33.4542329,7.61126929 32.86994,7.56943574 33.0785782,7.23476738 C32.8383795,7.46162169 33.3808388,7.77817983 33.5824871,7.49985438 C33.7391246,7.28369674 33.7050223,7.10799586 33.5844993,6.9767762 C35.3815413,6.72916398 36.0380632,4.97819184 36.0380632,4.97819184 C34.3896097,4.73714589 33.4312509,5.33594808 32.8984292,5.92871352 C32.8879443,5.89535259 32.8767181,5.86421573 32.8659155,5.83180797 C33.0357915,4.81318763 33.1077028,3.71810192 32.9058428,2.7478814 C32.8636915,2.5472922 32.7764235,2.29512595 32.8893211,2.10099712 C32.9116677,2.06244672 33.1183995,1.84406502 33.1751661,1.96617661 C33.2163642,2.05460954 33.1119392,2.26568361 33.0539017,2.25329241 C33.1274017,2.3109062 33.2946299,2.21569517 33.2641285,2.08542869 C33.2093742,1.85052539 32.9287188,1.84300594 32.8223875,2.03777022 C32.7167975,1.52019925 32.5961686,1.00400508 32.4248099,0.503908877 C32.7008054,1.64855939 32.8113731,2.84182154 32.7259056,4.01919754 C32.4229036,4.04832216 32.1249852,3.51295869 31.8965423,3.97937624 C31.7772902,4.22698846 32.0443895,4.46316265 32.204416,4.35005322 C32.0469312,4.36562165 31.7633104,4.05287619 32.0014968,3.94495623 C32.5203387,3.70931158 32.6950864,4.31859863 32.6724222,4.69224102 C32.6616196,4.8704837 32.6429798,5.04999726 32.6185151,5.22961674 C31.6402456,3.294577 29.7508521,3.48997672 29.7508521,3.48997672 C30.1037366,5.5121785 31.6196995,6.01809963 32.4394252,6.14423571 C32.3313993,6.58078728 32.1946725,7.01405572 32.0313628,7.43567431 C30.052795,5.66076702 28.2185794,6.93695491 28.2185794,6.93695491 C29.4782457,8.50057631 31.0127425,8.25561178 31.8074739,7.97622725 C31.6399279,8.35505912 31.4567076,8.72224115 31.2625787,9.06961843 C31.0409139,8.79828288 30.2978654,8.39816356 30.2206587,9.04102335 C30.1885687,9.30907576 30.6386764,9.57151506 30.7558104,9.25654554 C30.5137053,9.64713317 29.9925335,8.84530591 30.6435482,8.81162725 C31.3157444,8.7765718 30.981182,9.60815913 30.7790041,9.87038662 C30.2560319,10.5474546 29.6988514,11.1634138 29.1012142,11.7445294 C27.0842019,9.82982396 25.1853826,11.1523994 25.1853826,11.1523994 C25.7567547,11.8617693 26.3847874,12.1979203 26.9749052,12.3285045 C26.934978,12.365784 26.8983339,12.4169375 26.8666675,12.4869425 C26.7711387,12.6979106 27.033578,13.1078794 27.2581024,12.8858968 C26.9492755,13.0622331 26.9392143,12.7263998 27.0556068,12.5251751 C27.1136443,12.424351 27.1774007,12.381882 27.2403099,12.3744685 C27.2668927,12.3776457 27.2931578,12.3806111 27.3197407,12.3832588 C27.4578443,12.43473 27.5722246,12.649299 27.5731778,12.8314602 C27.5767787,13.3642819 26.8456978,13.6545749 26.4732204,13.8895842 C25.917099,14.2405623 25.3735806,14.6352803 24.8499729,15.0325401 C24.7809211,15.0850704 24.7141992,15.1407778 24.6457828,15.1948967 C22.5933974,13.1451589 20.6343166,14.5078734 20.6343166,14.5078734 C21.897266,16.075837 23.4369523,15.8252593 24.2296715,15.5449216 C23.8812351,15.8548076 23.5565221,16.1902173 23.2871988,16.5719087 C23.1740893,16.7314057 22.9124973,17.3490595 22.7634851,17.2757713 C22.5638491,17.1775949 22.3667549,17.06385 22.1483732,17.0122729 C21.7341681,16.9147319 21.1783645,17.3781841 21.4940753,17.7962018 C21.6710471,18.0304696 22.0379114,18.0318464 22.1286743,17.7595577 C22.0492436,17.9378004 21.7666818,17.9151362 21.6435111,17.7625231 C21.3745055,17.4299729 21.8162466,17.1130971 22.1364056,17.1905156 C22.8805132,17.3703469 22.6361841,18.3002166 22.557071,18.828696 C22.463025,19.4551401 22.5580242,20.1285014 22.7022705,20.7705139 C20.8171133,19.2953254 19.1267203,20.4717482 19.1267203,20.4717482 C20.4748196,22.1453018 22.1379942,21.7473007 22.8717228,21.4523477 C22.8794541,21.481896 22.8871853,21.5119737 22.8953402,21.5410984 C23.1604272,22.5211683 23.5315278,23.4696777 23.9398021,24.3984883 C23.3882347,24.2572075 22.4872778,24.5361684 22.8292538,25.2769928 C23.010356,25.6698045 23.8228799,25.5239696 23.6200667,25.0728027 C23.6007915,25.5565891 23.1347976,25.4506814 22.9689461,25.10807 C22.6892438,24.5305553 23.6705847,24.4635157 23.9712566,24.7542323 C24.4029365,25.1719323 24.5264249,25.8233707 24.44244,26.4251383 C22.4658845,24.6570091 20.6345284,25.930867 20.6345284,25.930867 C21.9467249,27.5599394 23.5573693,27.2261183 24.3189517,26.9351898 C24.2868616,27.0223518 24.2522298,27.1079253 24.2110317,27.1869324 C23.8162078,27.9475616 23.1477183,28.5217932 22.6175443,29.182975 C22.3818997,29.2050038 22.0769914,28.6954818 21.8177293,28.6304545 C21.4190927,28.5310071 20.9219619,28.7860329 20.8439079,29.212841 C20.753145,29.7077477 21.7110802,30.0090551 21.7493129,29.497415 C21.6579146,29.8405559 21.2438154,29.7323183 21.098616,29.4922255 C20.901204,29.1665593 21.302806,28.7474825 21.643617,28.8229947 C21.8665528,28.8725595 22.0306038,29.0792913 22.1582226,29.2540391 C22.2249444,29.3454374 22.2865827,29.440013 22.3501274,29.5337413 C22.2386065,29.684448 22.1333343,29.8400264 22.0351578,29.9998411 C21.69297,30.5564921 21.4442987,31.16938 21.3299184,31.8139343 C21.280989,32.0898239 21.2618197,32.3668784 21.2540885,32.6442507 C21.2498522,32.487825 21.2492167,32.3312934 21.24085,32.1746559 C21.1837658,31.1253224 21.0910965,29.9255998 20.6108051,28.9731718 C20.3236893,28.403812 19.6991515,27.4405814 20.4753491,26.9587013 C20.8091702,26.7510163 21.4282008,26.9454628 21.2476281,27.4227889 C21.1650201,27.641806 20.8529101,27.7728138 20.6963785,27.6007138 C20.9005685,27.8752266 21.3163622,27.7368052 21.4291539,27.4048905 C21.631014,26.8128664 20.8272804,26.4952492 20.3943297,26.7606539 C20.1662045,26.9006639 19.9849964,27.1034771 19.7954216,27.2892392 C19.653823,27.4282961 19.1261908,26.8257871 18.9386282,26.687048 C18.6436753,26.4686663 18.3271171,26.2849164 18.0016628,26.1183236 C19.6353951,25.7673455 20.2388572,24.1576542 20.2388572,24.1576542 C18.1297052,23.8491451 17.1475171,24.9140471 16.7462328,25.5829602 C16.6947616,25.5645322 16.6435023,25.5437743 16.5917134,25.5258759 C15.8493004,25.2711679 15.0857058,25.0268388 14.3241235,24.8369463 C14.106695,24.7825097 13.8120597,24.7390875 13.5298157,24.6626222 C13.4834281,24.4055842 13.429627,24.1502407 13.36873,23.8964858 C13.4569512,23.74938 13.4626702,23.5124645 13.3537971,23.3941655 C13.3031732,23.3390935 13.2536084,23.3024495 13.2049967,23.2745957 C13.1527842,23.0944467 13.1016308,22.9138741 13.0420048,22.7359491 C12.9422397,22.4381367 12.8287066,22.1448782 12.7085014,21.8544793 C14.3953994,23.276608 16.3109521,22.1173422 16.3109521,22.1173422 C14.6331622,20.3407404 12.9959349,20.8984504 12.4122775,21.1894848 C12.252251,20.8728207 12.0214781,20.5517086 11.9398232,20.2104739 C11.8921648,20.0111556 11.891847,19.7629079 11.9839868,19.5675082 C12.309653,19.5813821 12.6049236,19.5571293 12.8690575,19.5017395 C12.9105733,19.8077069 12.4441557,20.1955409 12.3362358,19.7658734 C12.3316818,20.1602737 13.0537605,19.956825 12.9814256,19.5529989 C12.9768715,19.5270515 12.969458,19.5053404 12.9633153,19.481723 C14.4443287,19.1246022 14.9599934,17.8578401 14.9599934,17.8578401 C12.8246821,17.161391 11.635974,18.548782 11.2299239,19.1642117 C10.7026094,18.413326 10.0862265,17.6547091 9.39719097,17.0194747 C12.0206308,17.490764 12.933873,15.0526626 12.933873,15.0526626 C10.3027019,14.6676881 9.42250292,16.4218375 9.24065938,16.8755461 C8.95248451,16.6224267 8.65244797,16.3910183 8.34033795,16.1943477 C8.13328838,16.0640812 7.84447806,15.9298962 7.77129583,15.671905 C7.75668057,15.6207516 7.74047669,15.262254 7.89245425,15.3147842 C8.00270418,15.3526991 8.09727976,15.6177861 8.03828917,15.656972 C8.14875091,15.6417213 8.20615288,15.4191033 8.06847286,15.3370248 C7.82128427,15.1892836 7.58235648,15.4241868 7.66115182,15.6769885 C7.3257421,15.4633727 6.98482519,15.2576999 6.63638883,15.0661129 C6.66064169,15.0168658 6.67430379,14.9847758 6.67430379,14.9847758 C6.53916555,14.9407182 6.40889907,14.9070395 6.28117438,14.8790799 C6.19274144,14.8343868 6.10462623,14.7886347 6.01449877,14.7465893 C6.07412481,14.7816448 6.13046771,14.8224192 6.1894583,14.8584279 C4.88372216,14.6043553 3.98149439,15.1523218 3.4347988,15.6939338 C2.96711036,14.4754656 2.68168909,13.185192 2.57535775,11.8879285 C2.56752058,12.5189266 2.62396939,13.1492893 2.69789297,13.7753097 C2.50439958,13.5944194 2.18943006,13.7075288 2.214742,13.9944328 C2.22893363,14.1538239 2.45419933,14.1992583 2.51615534,14.1062713 C2.45525841,14.142174 2.25784644,13.9419026 2.27119081,13.8262513 C2.29004238,13.6668602 2.60564735,13.836948 2.64546865,13.8723212 C2.84605785,14.0502461 2.8411861,14.3688165 2.8687221,14.6118747 C2.92029915,15.0659011 3.02980772,15.5257523 3.17204178,15.9823205 C2.90886112,16.304174 2.7821955,16.5656601 2.7821955,16.5656601 C3.00576667,16.6194612 3.21387532,16.6515513 3.41478224,16.6732624 C3.61314738,17.1801367 3.84582662,17.6755729 4.09598063,18.1481331 C2.01309372,15.9742715 0,17.3758541 0,17.3758541 C1.72089436,19.5121185 3.95607654,18.2732101 4.11419675,18.181494 C4.2700929,18.474117 4.42980172,18.7596442 4.59120507,19.0299207 C4.51834057,19.0409351 4.45087736,19.0558681 4.38383778,19.0794855 C3.93267094,19.2350639 3.27095958,19.8125787 3.87728121,20.2510366 C4.20983141,20.491553 4.70664447,19.9295008 4.34941777,19.7622725 C4.7110926,20.0640036 4.06452604,20.329726 3.83534176,20.0905864 C3.64153065,19.8883027 3.87357444,19.5111653 4.07289275,19.4119298 C4.3512182,19.2731907 4.70029001,19.4168016 4.92227257,19.5979037 C5.21235378,19.8341838 5.40680033,20.2161929 5.64106819,20.5059564 C5.9764779,20.9207969 6.33656411,21.3158327 6.71825549,21.6882042 C6.90624167,21.8715304 7.10005278,22.0492436 7.29841792,22.2216613 C5.60611864,22.3979976 4.84421859,23.9755989 4.84421859,23.9755989 C6.75299322,24.4357679 7.81440027,23.6479204 8.33038263,23.028678 C8.63073689,23.2432471 8.93638653,23.4499789 9.25305058,23.6398714 C8.91467545,23.9049584 8.45450646,24.5314025 8.90175471,24.9076926 C9.49123702,25.4045057 9.95437143,24.5884868 9.60339328,24.4215762 C9.73757835,24.5172109 9.42123202,24.8156588 9.21937193,24.8724253 C8.53234863,25.0651774 8.9221949,24.180848 9.24394252,23.9876723 C9.55954749,23.7977798 9.9361553,24.0181738 10.2194584,24.165915 C10.6200014,24.3752946 11.033571,24.5590444 11.4503178,24.7343217 C9.84221517,24.9704959 9.1172769,26.4745972 9.1172769,26.4745972 C11.3145441,27.0041357 12.3914137,25.8802431 12.8023356,25.2632248 C12.8175863,25.268732 12.8324134,25.2748746 12.8476641,25.2803818 C12.95103,26.5228911 12.9432988,27.750785 12.8207636,29.0205126 C12.478258,28.7615682 11.4129324,28.7404926 11.6958119,29.4531455 C11.7979069,29.7101836 12.3672668,29.8245639 12.3631364,29.4476383 C12.2584995,29.8591957 11.961958,29.589237 11.8854926,29.3225613 C11.7428349,28.8270192 12.3217264,28.8883397 12.5773876,29.1320334 C13.0343794,29.5672081 12.6865785,30.4255901 12.5767522,30.9416784 C10.6925482,29.4654308 9.00247294,30.6419596 9.00247294,30.6419596 C10.184403,32.1089932 11.6086498,31.9838102 12.4364245,31.7320676 C12.3599591,32.1884239 12.2921782,32.6459452 12.236153,33.1026193 C10.2674346,31.3613906 8.44868154,32.6268818 8.44868154,32.6268818 C9.78555454,34.2864556 11.432843,33.9088947 12.1755738,33.6150008 C12.1085342,34.3064722 12.0964607,35.0063103 12.2012035,35.6936514 C10.3426291,35.737709 9.50977087,37.4630514 9.50977087,37.4630514 C10.2956061,37.6523085 10.9344414,37.6271025 11.4548718,37.4917524 C11.2477164,37.8558631 11.3096724,38.4073246 11.801296,38.4672683 C12.148991,38.5096314 12.4546406,38.1955092 12.295779,37.8919777 C12.3829411,38.1079235 12.1291862,38.3317065 11.8961893,38.3110545 C11.3877264,38.2663614 11.4816665,37.6241371 11.813899,37.4136985 C12.5852248,36.9238753 13.1811675,37.9045807 13.5694252,38.4109254 C13.7613299,38.6609735 13.9897728,38.8879338 14.2367496,39.0995374 C12.9670221,41.2061476 14.7008372,42.9321255 14.7008372,42.9321255 C15.5580542,41.5946171 15.4614664,40.5127698 15.1729738,39.7824303 C15.5083835,39.9944575 15.8512067,40.1884804 16.1792029,40.3692649 C16.8775583,40.7540276 17.6038734,41.085201 18.3415206,41.3882029 C18.3819773,41.7992308 18.647488,42.1757327 19.0250489,42.3163781 C18.7437581,42.7519765 18.6960996,43.3018493 19.3326049,43.5239378 C19.8199922,43.6939197 20.3683823,42.8754649 19.8128964,42.6758289 C20.2124862,43.093423 19.7350542,43.4056389 19.3033744,43.2639344 C18.8227652,43.1061319 18.9899935,42.6621668 19.3021035,42.3730387 C19.3931841,42.3775928 19.4880774,42.3699674 19.5860421,42.3459263 C19.7013756,42.3014451 19.8031529,42.2161894 19.8816305,42.111129 C20.6046624,42.1086931 21.271881,42.5629312 21.7081148,43.1515663 C21.7463475,44.8033029 20.3093917,46.4644653 19.829418,48.0181314 C19.8037883,48.1008453 19.7889612,48.1846183 19.7685211,48.2679677 C17.9319755,46.9321538 16.312223,48.0585881 16.312223,48.0585881 C17.4435291,49.4627125 18.796606,49.408276 19.6362423,49.1801508 C19.5915493,50.2081969 19.8618257,51.2479988 20.3128867,52.1696077 C20.2279487,53.2115277 20.3226302,53.7973032 20.3226302,53.7973032 L19.6252279,54.4279836 C19.6252279,54.4279836 19.4534456,55.3743749 19.6252279,56.0050553 C19.7970102,56.6357357 19.6252279,57.0562952 19.6252279,57.0562952 C19.6252279,57.0562952 19.931513,57.1613557 19.5487626,57.6869756 C19.1660121,58.2125956 19.5487626,58.8935822 19.5487626,58.8935822 C19.5487626,58.8935822 17.9047572,59.368896 17.5890463,59.368896 C17.2733354,59.368896 16.0120805,60 16.0120805,60 L36.1972425,60 C36.1972425,60 36.3021971,59.048737 35.2508512,58.8935822 C34.1996113,58.7382156 33.6476203,58.8028193 32.925012,58.2976395 C32.2019801,57.792142 31.5360325,57.4766429 31.7638399,57.0562952 C31.9915415,56.6357357 31.2203216,56.3203426 31.7638399,55.7947226 C32.3072524,55.2691027 31.7638399,54.2176509 31.7638399,54.2176509 C31.7638399,54.2176509 31.4267357,53.8765222 31.1791235,53.4117992 C31.3498467,53.0357209 31.4215462,52.6723516 31.4159331,52.3206321 C31.4272652,52.3102531 31.4399742,52.3059109 31.4509886,52.2930961 C32.6059121,50.9123773 33.0542195,49.2052509 32.723046,47.4382867 C33.0701056,46.714937 33.3203655,45.9475298 33.4175888,45.142843 C33.4860052,44.5768722 33.5222256,44.0093128 33.5689309,43.4422829 C34.1830897,45.9617214 36.7261456,45.8709585 36.7261456,45.8709585 C36.0533139,43.2521786 34.0405379,43.1574971 33.5949842,43.1694647 C33.6338523,42.736514 33.6802399,42.3039869 33.7595648,41.8745311 C33.8893017,41.1743753 34.2159211,40.5667828 34.6913408,40.0434928 L35.5702689,39.513107 C37.3990832,39.4078347 37.6904353,40.1101087 36.4446429,41.6202467 C36.0427232,41.6562554 36.0395459,42.2873594 36.4446429,42.2509271 C38.8849683,42.0328632 38.1998514,38.6465701 36.056703,38.7950527 C36.1876049,38.6978294 36.3159651,38.5960521 36.4424189,38.4922626 C38.1528284,40.0502709 40.1460114,38.8462061 40.1460114,38.8462061 C39.1131995,37.7528149 38.0962736,37.5440708 37.3300314,37.6131227 C37.4204765,37.5011782 37.5092272,37.3884924 37.5864339,37.2693462 C37.932858,36.7335592 38.448205,35.7082666 39.2564926,36.1345452 C39.6041876,36.3177655 39.7493871,36.9503522 39.2460077,37.0356079 C39.0152348,37.0746879 38.7444288,36.8719805 38.8140102,36.649998 C38.6801428,36.9648616 39.0098335,37.253566 39.3533981,37.1832433 C39.9661801,37.0582722 39.834325,36.2042324 39.3864413,35.9646692 C39.150479,35.8387449 38.8838034,35.7849438 38.6278244,35.7152565 C38.4806127,35.6753293 38.5953108,35.2193966 38.6679634,34.9044271 C40.3396107,36.2469132 42.2079286,35.1181489 42.2079286,35.1181489 C40.8493445,33.6799222 39.5174492,33.7717442 38.7497242,34.0133197 C38.7517364,33.357645 38.6602322,32.7022881 38.5307071,32.0600638 C38.4575248,31.6970122 38.3786236,31.3315247 38.2941092,30.9673081 C40.9674316,31.490598 41.8963481,29.013099 41.8963481,29.013099 C39.4070933,28.6488824 38.4867554,30.1969354 38.2403081,30.7494559 C38.1596064,30.4149994 38.0756216,30.081496 37.9800929,29.7548766 C37.8322457,29.25065 37.4068145,28.4132378 37.830763,27.9390889 C38.065984,27.6759083 38.6379916,27.5683061 38.5355788,28.0735917 C38.4807186,28.3454568 38.2068413,28.6381857 38.0695849,28.2366896 C38.0955323,28.6128738 38.6538777,28.453165 38.7348971,28.1887134 C38.9597392,27.4556203 37.8997089,27.5619516 37.5789145,27.8474788 C37.4966242,27.3869921 37.431385,26.9309535 37.3805493,26.4766094 C37.5516962,26.3768443 37.7236903,26.278562 37.8916599,26.172972 C38.0403544,26.0793496 38.1927556,25.9810672 38.3456863,25.8809844 C40.089139,27.6692361 42.2083522,26.3888119 42.2083522,26.3888119 C41.1527701,25.2713797 40.1134978,25.0778863 39.3422778,25.1601766 C39.7412322,24.8341927 40.1065079,24.4741064 40.3835624,24.0655145 C40.7416364,23.5375646 41.2796475,22.523816 42.0780858,22.967887 C42.4219681,23.1587327 42.55287,23.7942849 42.048008,23.8684203 C41.8162819,23.9028403 41.5502417,23.6937785 41.624483,23.4733845 C41.4838376,23.7854945 41.806962,24.080977 42.1517975,24.0188092 C42.7672272,23.9072884 42.6544355,23.0508128 42.2116354,22.8016119 C41.9786384,22.6703923 41.7132337,22.6107662 41.4588434,22.5355718 C41.2686331,22.4791229 41.5385919,21.7253778 41.568352,21.4939694 C41.6089146,21.1841894 41.6232121,20.8733503 41.6189758,20.5622993 C43.3933536,22.6425385 45.6641208,21.2703983 45.6641208,21.2703983 C43.8061818,19.3032685 41.9985491,20.1976591 41.6156927,20.4232425 C41.5994888,19.9053538 41.5334024,19.3884183 41.4423218,18.8786845 C41.3375791,18.2931208 41.2137729,17.7032148 41.0747161,17.1201929 C42.7668036,18.5695399 44.6979247,17.401166 44.6979247,17.401166 C43.1596153,15.7719878 41.6551963,16.1058089 40.965843,16.3968432 C40.9526045,16.3044917 40.9049461,16.2451834 40.8319757,16.208963 C40.7509563,15.9600799 40.6641119,15.6806953 40.6430363,15.4171969 C40.8952026,15.1219262 41.1583832,14.8370345 41.4354378,14.5648517 C41.5252475,14.6112393 41.5750241,14.7126989 41.5342497,14.8934833 C41.4733527,15.1640775 41.1933328,15.4509815 41.0646549,15.0460963 C41.0821297,15.4227041 41.6441819,15.2752806 41.7309203,15.0127354 C41.8295204,14.7152406 41.7093151,14.5547905 41.5115854,14.4860564 C42.0436657,13.9711331 42.6150378,13.4969843 43.2194531,13.0734594 C42.6711689,13.3855694 42.155822,13.7527514 41.6525486,14.1328542 C41.7112215,13.8745453 41.4541834,13.6596585 41.2192801,13.8265691 C41.0886959,13.9192383 41.1635727,14.1366668 41.2749876,14.1431272 C41.2130316,14.1084954 41.2862138,13.8372657 41.3928629,13.7902427 C41.5400746,13.7257449 41.5526776,14.0844543 41.5422987,14.1366668 C41.5173044,14.2620616 41.4408391,14.3628857 41.346793,14.4503655 C41.0742925,14.4225117 40.7417423,14.510627 40.5826689,14.6460829 C40.4364104,13.7081642 40.3570855,12.7897326 40.3373867,11.867806 C42.0935483,13.7642953 44.2703753,12.4478625 44.2703753,12.4478625 C42.5524464,10.6292153 40.8773042,11.2569303 40.3318795,11.5401275 C40.3283845,10.883182 40.3552851,10.2230593 40.413852,9.55096897 C40.4481661,9.15720411 40.8276334,8.15679989 41.3893679,8.73103149 C41.9335217,9.28715287 40.8276334,9.56939691 40.9311053,9.0307503 C40.7790218,9.40185091 41.3868261,9.53571826 41.5753419,9.27444394 C42.0277796,8.64768212 41.0517342,8.39816356 40.6377409,8.45683643 C40.6556393,8.38259513 40.6776681,8.30708293 40.6968374,8.23220618 C43.3147701,8.63211369 44.1550418,6.5699847 44.1550418,6.5699847 C42.6509405,6.07963201 41.6167518,6.62315037 40.994544,7.20257144 C41.4345905,5.86410982 42.0746967,4.53570943 42.9416572,3.47440828 C43.224219,3.12830189 43.8701501,2.73517248 44.1349194,3.36129885 C44.26042,3.65752271 43.7260097,3.69543767 43.6209493,3.53890608 C43.6513448,3.78450606 44.1015584,3.79816815 44.1994172,3.47673825 C44.3760712,2.88238419 43.6811048,3.11146257 43.4391057,2.84086837 C44.3149625,1.7393223 45.3768991,0.781387073 46.5454847,0 Z M27.4680115,12.481452 C27.879284,12.5141097 28.2552194,12.4042451 28.5597356,12.2597704 C28.309183,12.6317837 28.0525634,12.9961651 27.7845551,13.3514946 C27.7649707,13.0838438 27.6321373,12.71822 27.4680115,12.481452 Z M12.5616349,19.7285181 C12.3761617,20.0054433 12.1912591,20.2831292 12.0269012,20.603419 C11.8488469,20.2428077 11.6531013,19.8745885 11.4699107,19.5116949 C11.8368625,19.5908163 12.2072383,19.6752633 12.5616349,19.7285181 Z M12.4768812,24.2180216 C11.1453036,23.7273512 9.92249321,23.1293963 8.73611506,22.3983154 C8.73643278,22.3976799 8.7380214,22.3937613 8.7380214,22.3937613 C8.73187875,22.391855 8.72605383,22.3905841 8.7202289,22.3885719 C8.46001366,22.227804 8.20075159,22.0629056 7.94318404,21.8888993 C7.61582332,21.6675522 6.9259405,20.8496269 7.7007613,20.6379174 C8.45132923,20.4327742 8.16029485,21.5362266 7.73994715,21.1842953 C7.99041888,21.4973585 8.40271759,21.0316823 8.26630846,20.7396947 C7.93863001,20.0397507 7.24609951,20.7711493 7.09602828,21.161631 C5.78351405,19.9553422 4.527025,18.3989226 3.86234822,16.7263221 C3.85874736,16.7175318 3.85588785,16.7082119 3.85260471,16.6991038 C5.61077858,16.7075765 6.39174202,15.5292473 6.60821738,15.1224558 C7.59019365,15.7660569 8.50089404,16.5260506 9.28471699,17.4010601 C9.05881585,17.6853164 8.35167008,17.4973302 8.56274414,18.0800345 C8.67945443,18.3954276 9.12754995,18.3555004 9.14375383,18.1086295 C9.04780144,18.2709861 8.51212025,18.264208 8.62004021,17.9611001 C8.84784769,17.3203585 9.51580761,17.6752552 9.81785639,18.0045223 C11.0354773,19.3299572 11.8916352,21.1376959 12.4076176,22.843975 C11.9908708,22.8096609 11.0309233,23.1155224 11.5193696,23.7147482 C11.7228183,23.9645845 12.3217264,23.7957676 12.1483555,23.4340928 C12.2828583,23.9656435 11.1624607,23.7484268 11.6732535,23.1615922 C12.0799391,22.6939038 12.4322941,23.1683703 12.5984633,23.5893535 C12.4937206,23.7989448 12.4435203,24.0511111 12.4768812,24.2180216 Z M13.145148,24.6404961 C12.8580245,24.373068 12.7816039,24.0612876 12.8875011,23.7649484 C13.0578101,23.9459716 13.1877253,24.114839 13.2554122,24.2564379 C13.3514839,24.4575017 13.4257211,24.6565944 13.5163342,24.8566726 C13.4093453,24.7824235 13.2313942,24.7209874 13.145148,24.6404961 Z M40.9691878,15.0590844 C41.1742174,14.7793284 41.4973457,14.5852561 41.7861257,14.540387 C41.6343148,14.6893199 41.4767791,14.8241975 41.339174,14.9555612 C41.1186665,15.1663918 40.9070641,15.4004678 40.6944015,15.6321112 C40.7556772,15.425335 40.8432441,15.2309924 40.9691878,15.0590844 Z M24.9734696,40.6416595 C25.0620905,40.3959536 25.1838552,40.1001534 25.4467481,39.9606729 C25.5906086,39.8845253 25.7709391,39.8793358 25.9382021,39.9218048 C25.8268914,40.2138983 25.7280541,40.5101221 25.6397896,40.8081464 C25.6251778,40.7927898 25.6087842,40.7831522 25.5953604,40.7647243 C25.6062895,40.7883417 25.6209012,40.8068755 25.6346814,40.8263625 C25.5727893,41.0362716 25.5164806,41.2469221 25.4631417,41.4576784 C25.4557765,41.4520653 25.4497179,41.4459226 25.4423527,41.4407332 C25.2504991,41.2965928 25.0511614,41.1598659 24.846478,41.0305526 C24.8884125,40.9002861 24.926902,40.7699137 24.9734696,40.6416595 Z M21.9735865,33.4295564 C22.1595435,34.2021531 22.5486636,34.9773975 21.6354226,35.7477702 C21.631452,35.7508415 21.6254961,35.7545483 21.6215254,35.7577255 C21.4534362,35.7724467 21.2813762,35.7868501 21.1251988,35.8028422 C21.5990253,35.0142534 21.9087331,34.2220638 21.9735865,33.4295564 Z M16.0425036,26.3326869 C15.6266735,26.4507903 15.2933559,26.7321399 15.0409168,27.0945025 C15.1400406,26.8690324 15.1650939,26.5823145 15.0635192,26.2267843 C15.0384659,26.1386948 14.9894486,26.0759829 14.9507794,26.0027783 C15.3151413,26.1116091 15.6792309,26.221416 16.0425036,26.3326869 Z M14.7557249,26.15042 C14.3817356,26.2607148 14.0222535,26.4464743 13.7473554,26.6581627 C13.7264552,26.2936097 13.6903103,25.9313786 13.6640007,25.5664386 C14.027417,25.763421 14.3920627,25.9561465 14.7557249,26.15042 Z M13.7277572,36.6467148 C13.5965375,36.4082107 13.4856522,36.1577389 13.3969015,35.8943465 C13.3984901,35.8906397 13.402091,35.8823789 13.402091,35.8823789 C13.3984901,35.881108 13.3953129,35.8804726 13.3913943,35.8793076 C13.2121984,35.3419319 13.1217533,34.7538264 13.1444175,34.1072598 C13.1719535,33.3632581 13.4140585,32.2601235 14.4578849,32.6284705 C14.8162766,32.755242 14.9559689,33.2094802 14.6784907,33.4889706 C14.4228295,33.7459027 13.9256987,33.3770261 14.1544593,33.0779428 C13.6161305,33.7806404 14.7744431,33.8652607 15.0242793,33.4165297 C15.4938741,32.5742457 13.8491274,31.8837275 13.2986191,32.4679144 C13.4181889,31.4800073 13.552374,30.4927356 13.6456787,29.5017572 C15.3049348,30.7864177 17.1389386,29.6780935 17.1389386,29.6780935 C15.8023833,28.2631665 14.492199,28.3292529 13.7189668,28.5619322 C13.7516923,28.0301696 13.7708616,27.4967124 13.7537046,26.9642085 C13.7436433,26.6450027 13.7086938,26.2100397 14.0167793,26.0081796 C14.1586956,25.9151926 14.4338439,25.8717705 14.6490483,25.9008951 C14.7226542,25.9254657 14.7958364,25.9504599 14.8694423,25.9754541 C14.9760913,26.0500132 14.9952606,26.1769965 14.8244315,26.3708076 C14.6856924,26.5279746 14.2794304,26.6832353 14.2517885,26.5208788 C14.2501999,26.796027 14.7191592,26.844321 14.924832,26.583788 C14.6334799,27.1859792 14.7657586,28.1549289 15.4800002,28.1127776 C15.9926994,28.0825939 16.4198252,27.0025471 15.5532883,27.1820606 C15.922059,27.1055953 16.0384516,27.7138233 15.6958401,27.8324399 C15.3237863,27.9611177 14.9751382,27.6379933 15.0165481,27.2597969 C15.1383419,26.159204 16.2370285,26.420796 16.9191801,26.719244 C19.1212131,27.688829 19.9583077,29.6828594 20.0108379,31.9824334 C19.4223088,31.2249815 17.7624172,31.3172271 17.6764202,32.4310585 C17.5954008,33.482722 19.1487491,32.9777541 18.770235,32.4711975 C18.8794258,32.7984523 18.4348253,33.1528195 18.1453795,32.9519126 C17.8213019,32.7131966 17.8394121,32.3234563 18.1258925,32.0628174 C18.7880275,31.4612616 19.7242516,32.1798454 19.970593,32.8564898 C20.1335849,33.3046912 19.9041888,34.1167915 19.8642616,34.5954943 C19.8422328,34.8596282 19.8136377,35.1221734 19.7845131,35.3848245 C17.9411894,34.0310062 16.3123289,35.1643246 16.3123289,35.1643246 C16.4416422,35.3246689 16.573815,35.4640435 16.7076824,35.5881673 C15.1288103,35.4283526 14.2187453,36.0572325 13.7277572,36.6467148 Z M19.3702155,42.621208 C18.9527166,42.5189483 18.7250028,42.0591889 18.6816961,41.5294838 C19.0441418,41.7376845 19.4078611,41.9385225 19.7734203,42.1334294 C19.6321783,42.2587998 19.4940499,42.4271192 19.3702155,42.621208 Z M18.9356628,40.1733356 C18.4825897,40.0047305 17.6736666,39.8577306 17.346094,39.5215796 C16.8437738,39.0059149 16.6032574,37.8504618 17.4326206,37.5155817 C17.7917537,37.3708058 18.1507808,37.5240543 18.2247044,37.9193019 C18.2800941,38.2674205 17.7677126,38.5139736 17.520524,38.273669 C17.8121939,38.8342386 18.9419114,37.6545326 17.9596174,37.270829 C16.9189682,36.864567 16.1147051,38.3195271 16.5414073,39.1784386 C15.7153271,38.7565023 14.9924011,38.239355 14.4257949,37.6169353 C15.9674934,37.438375 16.6894662,36.1592216 16.8856073,35.742263 C17.8973437,36.5611414 18.9820504,36.4724967 19.6824181,36.272437 C19.6698151,36.3787683 19.6571061,36.4850997 19.6445031,36.591431 C19.540184,37.4749131 19.5485507,38.3836013 19.9099078,39.1944307 C19.8181918,39.3816755 19.7267934,39.5679672 19.6363482,39.7519288 C19.384182,39.8498935 19.1434538,39.9944575 18.9356628,40.1733356 Z M20.8519569,40.9413891 C20.4361632,40.7733086 20.021005,40.6051037 19.6072236,40.4321748 C20.0648508,40.2525325 20.5509672,40.3076062 20.9962032,40.6693771 C21.2778118,40.8981258 21.5562432,41.1564625 21.8301205,41.4244962 C21.5166337,41.2354057 21.1870489,41.0767735 20.8519569,40.9413891 Z M22.1525934,47.9918663 C22.1421851,47.978416 22.135284,47.9643303 22.1224999,47.9506682 C22.1363022,47.9721675 22.1398093,47.9916545 22.1490862,48.0123065 C22.1269121,48.1312408 22.1020228,48.2489043 22.0760022,48.3656146 C21.947596,48.4847608 21.7291357,48.54534 21.5414477,48.505201 C21.067872,48.4044827 21.0391361,47.712164 21.4102131,47.4821325 C21.6493768,47.3340735 21.9772369,47.3615036 22.2479647,47.3962413 C22.2204733,47.5964069 22.1890223,47.7951957 22.1525934,47.9918663 Z M22.2179545,47.0600903 C21.93857,47.0950398 21.5584672,47.0578662 21.372811,47.1734115 C20.9570174,47.4329913 20.7638417,48.071403 21.065255,48.492492 C21.2774941,48.7887159 21.7474066,48.693293 21.9940656,48.4714164 C21.898431,48.9050026 21.7756839,49.3195253 21.6152338,49.69518 C21.1187384,49.2307747 20.778457,48.6265712 20.6355875,47.9344643 C20.8964381,47.0930276 21.3100077,46.2492609 21.7701767,45.3629192 C21.9597515,44.9976436 22.1088696,44.6180703 22.2073638,44.2337313 C22.2816051,44.5260365 22.3278867,44.8242726 22.359659,45.1250505 C22.3277808,45.7202518 22.2912427,46.3871527 22.2179545,47.0600903 Z M26.2423415,49.0549679 C26.1438474,48.6689343 26.024913,48.2912674 25.8820435,47.9671898 C25.6490466,47.4387103 25.352505,47.2862032 24.9803453,47.1426983 C24.9136234,46.8471099 24.846478,46.5519451 24.7795443,46.2563567 C24.9104462,46.0848921 25.0012091,45.8966941 24.9008086,45.6994939 C24.6966185,45.2986333 24.3640683,44.863988 24.0162674,44.4652455 C23.9690326,44.2480288 23.9258222,44.0316593 23.8925672,43.8189967 C23.8627012,43.6299514 23.8658785,43.4511792 23.8947913,43.28268 C24.3490294,43.7729268 24.7933123,44.2896505 25.1266038,44.833063 C25.3365129,45.1759921 25.4111779,45.5587426 25.5046944,45.9440348 C25.6586842,46.5759861 25.8852208,47.1865441 26.1943654,47.7596107 C26.3035562,47.9616826 26.4258796,48.1559173 26.5531807,48.3464453 C26.459876,48.5909862 26.3567219,48.8284313 26.2423415,49.0549679 Z M27.7291799,43.4866583 C27.6922181,43.9710801 27.6173413,44.4741418 27.5186353,44.9722257 C27.3451585,44.3745885 27.1524065,43.7846826 26.8551236,43.2338566 C26.7832122,43.0999892 26.7015574,42.9725823 26.6191612,42.8451753 C26.7154313,42.5567886 26.8181618,42.2707319 26.9267172,41.9873228 C27.4605979,42.3025042 27.779486,42.8222992 27.7291799,43.4866583 Z M30.5779401,47.968143 L29.8606784,46.8888375 C30.116799,46.8491221 30.3977254,46.8311178 30.6250712,46.9385082 C31.0524763,47.1397329 31.0862123,47.8320516 30.5779401,47.968143 Z M33.1513368,41.707197 C32.9082786,42.6191682 32.9306252,43.6131121 32.8593493,44.5462649 C32.7475107,46.0039786 32.1839758,47.3257068 31.3617084,48.5076368 L30.6947016,48.1022221 C30.7867354,48.0685435 30.8671194,48.0099765 30.9219796,47.9185782 C31.1887611,47.4749308 30.9449615,46.853888 30.5096808,46.6284104 C30.3223301,46.531399 29.965527,46.5909191 29.6881548,46.5843528 L29.3670426,46.0181702 L29.3670426,46.0181702 C29.3683135,45.1578819 29.2979908,44.284567 29.5063112,43.4466252 C29.7413204,42.5027757 30.6010792,41.5059723 31.6416224,41.4577843 C32.14013,41.4345905 32.9658924,42.2692492 32.2593821,42.5656848 C31.840623,42.7412798 31.3395737,42.4684616 31.7045316,42.020472 C31.1669441,42.2641656 31.7787729,43.0361269 32.2512272,42.8273828 C33.1421228,42.4339357 32.5559237,41.4727173 31.9504493,41.1638904 C32.5594186,40.8815405 33.1616099,40.5820335 33.7507745,40.2599681 C33.4854756,40.686988 33.2917704,41.1803061 33.1513368,41.707197 Z M37.6524144,32.8520416 C34.9372585,32.640438 34.272264,34.8139819 34.272264,34.8139819 C36.1808268,35.2487331 37.229525,34.1724989 37.6981666,33.458681 C37.744766,35.5848841 36.4993972,37.1534832 34.6848804,38.2720804 C35.0413658,37.3816084 34.1229341,35.995912 33.1182936,36.4842524 C32.1697842,36.9453746 33.3904764,38.0307168 33.6366059,37.4485421 C33.409328,37.7081219 32.8789422,37.5034023 32.9061605,37.1521064 C32.9482058,36.752093 33.2936768,36.5706731 33.6635065,36.6861125 C34.5171226,36.9533176 34.3700168,38.1247628 33.910801,38.6788719 C33.6064222,39.046054 32.7897679,39.258293 32.3564995,39.4657662 C31.7513428,39.7553179 31.1368663,40.0170158 30.5229193,40.2852801 C29.5629718,40.7049923 28.6484588,41.2729754 28.1590593,42.2363119 C27.9076344,41.9179533 27.5322974,41.6525486 27.1237055,41.501736 C27.3433581,40.9825764 27.5893817,40.4790912 27.8813692,40.0103437 C28.2618956,39.399468 28.753731,38.8871924 29.256369,38.385084 C30.7947844,39.2290625 32.3429433,38.2924147 32.3429433,38.2924147 C31.6873746,37.5981897 31.0375249,37.2606618 30.4545029,37.1241468 C30.6331692,36.9114841 30.8049515,36.6928906 30.95587,36.4566105 C31.3768532,35.7979705 31.6545432,35.0593701 31.8042967,34.2935515 C31.8474011,34.0738989 31.8805502,33.8521281 31.9043795,33.6299338 C32.0360227,33.5991146 32.1666069,33.5656478 32.2988857,33.5394886 C32.5520051,33.4891824 32.8633738,33.4401471 33.0990184,33.5772976 C33.4594223,33.7869949 33.4729785,34.4796313 33.0361092,34.6059792 C32.7143616,34.6992839 32.2631948,34.4590852 32.4609245,34.084066 C32.0810335,34.5641457 33.1649989,35.0745149 33.4860052,34.5666874 C33.7623184,34.1287591 33.5323928,33.5028445 33.1023016,33.2678353 C32.8219638,33.1147987 32.1423541,33.3153879 31.9534147,33.1056906 C31.9984255,32.4520282 31.9641114,31.7835388 32.0068981,31.1253224 C33.6161658,30.8272981 34.1726049,29.4689258 34.1726049,29.4689258 C33.5290037,29.2589108 32.9725646,29.2398474 32.4965095,29.3305044 C32.9042541,28.6762066 33.5824871,28.1424317 34.347988,28.1235802 C34.8470251,28.1116126 35.653936,28.9642756 34.9413889,29.244931 C34.5188172,29.4115238 34.0239104,29.1275853 34.398506,28.6875387 C33.855729,28.9192648 34.4507185,29.7047823 34.9274091,29.5064171 C35.8266714,29.1327747 35.2618656,28.1589533 34.6632753,27.8367821 C35.310795,27.5539026 35.9509012,27.2509007 36.5769217,26.9225868 C36.605199,27.1627854 36.6352768,27.4028782 36.6709677,27.641806 C36.855353,28.8784903 37.1305012,30.0988648 37.3797021,31.3236875 C36.7843949,30.7856763 35.2002273,31.6056138 35.7356967,32.4077588 C36.0208003,32.8348846 37.1687339,32.6575951 36.5757567,32.0006496 C36.8282406,32.2803518 36.3618231,32.6879906 36.0863571,32.4520282 C35.7875915,32.1961552 35.890322,31.7319617 36.2373815,31.5768069 C37.2071784,31.1434326 37.5491544,32.1193721 37.6524144,32.8520416 Z M40.5565097,19.74448 C40.7800809,22.1404301 39.444267,23.8410961 37.4602978,25.0049159 C37.639176,24.5855214 37.5303028,24.0495224 37.2600264,23.6508858 C37.2674399,23.3549797 37.2784543,23.0578027 37.2978354,22.7576602 C37.3234651,22.3632599 37.6809036,21.3547008 38.2548175,21.916753 C38.8112566,22.4609068 37.7117227,22.767086 37.8030152,22.2265331 C37.6591925,22.6008109 38.2697505,22.7213339 38.4525472,22.4560351 C38.8910051,21.8195297 37.9096643,21.5914045 37.4971537,21.6591855 C37.8747147,19.9168978 38.583555,18.0463558 39.690926,16.627828 C39.7656968,16.5318756 39.8682155,16.4324282 39.9822781,16.3501379 C40.0878681,16.9396203 40.2000244,17.5278317 40.3063557,18.1169962 C39.7226983,17.5660643 38.121056,18.3509464 38.6389447,19.1644235 C38.9145166,19.5980096 40.0659452,19.4457144 39.487795,18.7758481 C39.7340304,19.0610576 39.2590344,19.4583174 38.988652,19.216636 C38.6953935,18.9540908 38.808503,18.4923332 39.1587398,18.3449096 C40.1800078,17.9159834 40.4855515,19.003232 40.5565097,19.74448 Z" id="形状"></path>
                <path d="M30.0214463,31.1763699 C27.9288159,28.9605688 25.897612,30.3760253 25.897612,30.3760253 C27.6825805,32.59225 30.0214463,31.1763699 30.0214463,31.1763699 Z" id="路径"></path>
                <path d="M31.631773,16.0289199 C30.8737915,13.0768484 28.4111196,13.3322978 28.4111196,13.3322978 C28.8997778,16.1351453 31.631773,16.0289199 31.631773,16.0289199 Z" id="路径"></path>
                <path d="M37.5326328,19.1520323 C34.8275381,18.2698211 33.6407363,20.732493 33.6407363,20.732493 C36.6033986,21.4468405 37.5326328,19.1520323 37.5326328,19.1520323 Z" id="路径"></path>
                <path d="M17.0457398,17.4768901 C15.3268577,19.7440564 17.2654983,21.6716826 17.2654983,21.6716826 C18.9101391,19.1056447 17.0457398,17.4768901 17.0457398,17.4768901 Z" id="路径"></path>
                <path d="M18.1621129,14.4461292 C17.556109,17.2261006 20.1257478,18.1596771 20.1257478,18.1596771 C20.538576,15.1399306 18.1621129,14.4461292 18.1621129,14.4461292 Z" id="路径"></path>
                <path d="M30.3137516,19.784619 C30.7266857,16.7648725 28.3502227,16.0710711 28.3502227,16.0710711 C27.7441129,18.8512544 30.3137516,19.784619 30.3137516,19.784619 Z" id="路径"></path>
                <path d="M32.0122994,21.5648217 C31.4061896,24.3447931 33.9758283,25.2783696 33.9758283,25.2783696 C34.3886566,22.2586231 32.0122994,21.5648217 32.0122994,21.5648217 Z" id="路径"></path>
            </g>
        </g>
    </g>
</svg>
