<?xml version="1.0" encoding="UTF-8"?>
<svg width="51px" height="61px" viewBox="0 0 51 61" version="1.1" xmlns="http://www.w3.org/2000/svg" xmlns:xlink="http://www.w3.org/1999/xlink">
    <title>grass-leaf-plant-7-svgrepo-com</title>
    <defs>
        <rect id="path-1" x="0" y="0" width="50.8729579" height="60"></rect>
    </defs>
    <g id="页面-1" stroke="none" stroke-width="1" fill="none" fill-rule="evenodd">
        <g id="形状库素材-植物" transform="translate(-324.000000, -157.000000)">
            <g id="grass-leaf-plant-7-svgrepo-com" transform="translate(324.125086, 157.776201)">
                <mask id="mask-2" fill="white">
                    <use xlink:href="#path-1"></use>
                </mask>
                <g id="SVGID_23_"></g>
                <g id="编组" mask="url(#mask-2)" fill="#545458" fill-rule="nonzero">
                    <g transform="translate(0.882894, 0.853085)">
                        <path d="M42.7717217,53.2270509 C42.8707952,53.3796066 42.968992,53.5312856 43.0724494,53.6899787 C43.4468247,52.7334366 43.8299676,51.7549756 44.2131104,50.7773914 C44.1149136,51.7085075 43.5257328,52.5554549 43.9597276,53.5698629 C44.030745,53.4409796 44.0894877,53.3340153 44.1683958,53.2402022 C44.1456001,53.4164304 44.102639,53.5786305 44.041266,53.8109712 C44.4147646,53.4330888 44.460356,53.2910542 44.40249,52.8035772 C44.3665429,52.8290031 44.3305959,52.8553058 44.2946489,52.8807318 C44.3419937,52.7167782 44.3893386,52.5537014 44.4366835,52.3897478 C44.4621095,52.3932548 44.4884122,52.3976386 44.5138382,52.4011456 C44.460356,53.1726919 44.405997,53.9433615 44.3525148,54.7149078 C44.373557,54.7210451 44.3954759,54.7271824 44.4165181,54.7324429 C44.4621095,54.6184645 44.5120846,54.5062396 44.5532922,54.3913844 C44.8636643,53.522518 45.0398925,52.634363 44.9031183,51.6927258 C44.9618611,51.8742146 45.0302481,52.0539498 45.077593,52.2389456 C45.1266914,52.4318321 45.1573779,52.6299793 45.1924482,52.8105912 C45.5150948,52.4388462 45.843002,52.0618406 46.1700324,51.684835 C45.7921501,52.4230646 45.1415963,53.0183827 45.326592,54.031914 C45.4037467,53.9363474 45.4589824,53.8670836 45.5475349,53.757489 C45.4958062,54.071368 45.4519683,54.3343952 45.4011164,54.6447672 C45.9894205,54.0626005 46.1647719,53.2901774 46.5137212,52.6124441 C46.330479,53.4295818 46.1481135,54.2467195 45.9596107,55.0892831 C46.0648216,55.0962972 46.142853,55.1015577 46.2769968,55.1103253 C46.4383201,54.4624017 46.5935062,53.8083409 46.7653506,53.1586638 C46.8968641,52.6606658 47.0424058,52.1661747 47.1984686,51.6760675 C47.2317854,51.5708566 47.3405033,51.493702 47.4246719,51.4209311 C46.756583,53.5777537 46.547038,55.8222521 46.14636,58.0369407 C34.1242657,58.0369407 22.1153228,58.0369407 10.1125172,58.0369407 C10.1125172,57.7519946 10.1125172,57.4714323 10.1125172,57.19087 C10.123915,57.1899933 10.1353129,57.1891165 10.1458339,57.1882398 C10.1581085,57.2908204 10.1703831,57.3934009 10.181781,57.4959815 C10.5640471,56.4622848 10.3509951,55.4189438 10.2457843,54.3773563 C10.3790513,54.7499781 10.5123184,55.1225999 10.6455855,55.4952217 C10.6789023,55.4847006 10.7113423,55.4750563 10.7446591,55.4645352 C10.7832364,55.0200193 10.824444,54.587778 10.6359412,54.1441389 C10.4798784,53.7776544 10.3992168,53.3752228 10.2861151,52.9885729 C10.3141713,52.9789286 10.3431043,52.970161 10.3711605,52.9605167 C10.4535757,53.2682585 10.5359909,53.5760002 10.6184061,53.8828652 C10.6490926,53.8758512 10.6797791,53.8679604 10.7104656,53.8609463 C10.6797791,53.5251483 10.6394482,53.1902271 10.6227898,52.8535523 C10.6175293,52.7413274 10.672765,52.6255955 10.6745185,52.5054797 C10.6753953,52.6369933 10.6920537,52.7763977 10.7297542,52.9105415 C10.9813835,53.8109712 11.2391501,54.7096473 11.4890259,55.6109536 C11.5503989,55.8327732 11.589853,56.0624836 11.6398282,56.2886869 C11.6854195,55.999357 11.615279,55.7170412 11.6468422,55.4487535 C11.7494228,54.5790104 11.4802584,53.8337668 11.0506473,53.1262238 C10.9191338,52.908788 10.8069088,52.6782009 10.6850396,52.4537511 C10.4500687,52.0250168 10.2150978,51.5962825 9.98012684,51.1684251 C10.7034515,51.9031476 11.2750972,52.7553555 11.7275039,53.7004998 C11.7573136,53.6952392 11.7871234,53.6891019 11.8169331,53.6838414 C11.7932607,53.486571 11.8283309,53.2480931 11.7353947,53.0999211 C11.3084139,52.421311 10.8454862,51.7672502 10.4570827,51.1956045 C10.9673554,51.4849344 11.3776778,52.0732384 11.8300845,52.6387468 C11.6713914,51.9636438 11.5135751,51.2885408 11.3548821,50.6134378 C11.376801,50.6073005 11.3995967,50.6002864 11.4215156,50.5941491 C11.6731449,51.3648187 11.925651,52.136365 12.2053365,52.99208 C12.2728468,52.7413274 12.3158079,52.5835111 12.3692901,52.4388462 C12.3482479,52.7009966 12.3158079,52.9499956 12.2798609,53.2296812 C12.5174621,53.3015752 12.5779583,53.1604173 12.5490253,52.9736681 C12.5192156,52.7772745 12.4429377,52.5887717 12.3868253,52.3967618 C12.3771809,52.1828331 12.3675366,51.9689043 12.3578923,51.7549756 C12.3745507,51.7523453 12.391209,51.7497151 12.4069907,51.7479615 C12.532367,52.0767455 12.6577432,52.4055294 12.8059152,52.7930561 C12.9049887,52.6685566 12.9742526,52.5817576 13.0978753,52.4248181 C12.8637812,51.5489377 12.6165356,50.6265891 12.3719204,49.7138849 C10.7174796,49.0440424 9.14107023,49.1457463 7.7005582,50.1917176 C6.31265161,51.2026186 5.23950083,52.5344127 4.57754917,54.2072654 C4.55475349,54.2651314 4.5258205,54.3203671 4.50039454,54.3764795 C4.47584534,54.3694655 4.45129614,54.3615747 4.42674694,54.3545606 C4.52494374,53.9468685 4.58807026,53.5242716 4.72659789,53.1323611 C5.5411053,50.8238595 7.08945846,49.4675161 9.40409738,49.2176404 C10.2422772,49.1273344 11.0962387,49.2036122 11.9423094,49.204489 C12.0010521,49.204489 12.0606716,49.204489 12.2272555,49.204489 C11.7520531,47.95511 11.3075372,46.7609668 10.8367186,45.5782214 C10.7735921,45.4204051 10.5850893,45.3029196 10.4342871,45.2029693 C9.2050735,44.3884619 7.87327936,43.8238303 6.49063331,43.3863284 C6.40558787,43.359149 6.32141918,43.3319695 6.2451413,43.2749803 C7.75316363,43.4012333 9.17964754,43.8624076 10.6315574,44.4445743 C10.4640968,44.063185 10.2966362,43.6826724 10.091475,43.2153608 C10.2449075,43.4038636 10.340474,43.521349 10.4614665,43.6703978 C10.4754946,43.5388842 10.4833855,43.4547155 10.4939065,43.3582722 C10.5149487,43.3880819 10.5342374,43.4073706 10.546512,43.431043 C10.6008709,43.5336236 10.6596136,43.6353275 10.7060818,43.7422918 C11.0059327,44.4217786 11.340854,45.0144665 12.0825905,45.3116872 C12.6393313,45.5352603 13.1119034,45.9990648 13.6563696,46.3383698 C13.4748809,46.0972616 13.301283,45.8482626 13.1110267,45.6159219 C12.0501505,44.3191981 11.066429,42.9374288 9.90647924,41.7494228 C7.14118713,38.9183739 3.95242131,36.8255545 0.160446562,35.9119736 C0.120992489,35.9023293 0.0832919309,35.8830406 0.0464681299,35.8655055 C0.0298097437,35.8576146 0.0166583862,35.841833 0,35.8278049 C4.34871555,36.0434872 11.402227,38.7061987 15.0109595,45.8903469 C15.0477833,45.785136 15.0784698,45.7000906 15.1082795,45.6141684 C14.9250373,46.4944326 15.507204,47.1046556 15.7807523,47.919163 C15.8210831,47.5456644 15.8517696,47.2703627 15.8815793,46.9959377 C15.8991145,46.9959377 15.9166496,46.9959377 15.933308,46.9968144 C15.933308,47.2352924 15.9464594,47.4746471 15.9306777,47.7122483 C15.9052518,48.0883771 16.0683286,48.3382529 16.3278487,48.5749774 C16.8004208,49.0054651 17.2449367,49.4701464 17.7157553,49.933951 C17.6982202,49.8208493 17.6868223,49.695473 17.6578894,49.5753573 C17.1029021,47.2756232 16.5715872,44.9688751 15.969255,42.6831692 C15.8438788,42.20709 15.4879154,41.7792325 15.1784201,41.3811848 C13.6572464,39.4181255 11.900225,37.7277377 9.84335272,36.4257533 C8.46070667,35.5507496 6.94917731,35.0334629 5.33857439,34.8712628 C5.20793757,34.8581115 5.07817751,34.8256714 4.92737528,34.7976152 C5.62878102,34.6608411 6.83519888,34.8063828 7.84697665,35.0974662 C9.95996142,35.7050589 11.7722185,36.8913113 13.4196452,38.3826753 C14.063185,38.9657188 14.6549961,39.6127656 15.2538212,40.214221 C14.8338545,38.7921209 14.4393138,37.3068942 13.9553438,35.8558611 C13.4740041,34.4127188 12.9032352,33.0037701 12.4297864,31.5483532 C12.7348979,32.1524388 13.0426396,32.754771 13.3442441,33.361487 C14.4042435,35.499021 15.0854838,37.795248 15.8149458,40.0704328 C15.9753923,40.5719379 16.1121665,41.0848409 16.3076833,41.5705643 C16.4067569,41.8160563 16.5908759,42.0343689 16.7741181,42.2255019 C17.0204869,42.4823918 17.3019259,42.6998276 17.6210656,42.9812666 C17.4159044,42.3149312 17.2352924,41.7108455 17.0441593,41.1102668 C16.2594617,38.6369349 15.4844083,36.1600959 14.470877,33.7770699 C13.3258322,31.0854254 11.9756262,28.5252944 10.152848,26.2834264 C8.52383318,24.2791595 6.6852734,22.5265219 4.5135459,21.1982348 C4.37326475,21.1123126 4.23824415,21.0184996 4.0672765,20.9071514 C5.13516673,20.9097817 9.44618172,23.8302598 11.3557588,25.7652629 C13.4704971,27.9071806 15.0618114,30.4304878 16.2936552,33.2545226 C17.8534062,33.2185756 19.4578718,33.0493614 20.7773914,34.343455 C20.5582021,33.4360113 20.3390128,32.5276909 20.1163165,31.6035889 C18.3207178,31.5352018 16.82497,30.6917614 15.3984861,29.6659555 C15.1784201,29.5072625 14.9986849,29.2836894 14.8250869,29.0373206 C16.3725633,29.0662536 17.9139024,28.9838384 19.4455972,29.7396031 C19.143116,28.8067335 19.107169,27.8659731 18.5968963,27.09355 C18.4662595,27.4994886 18.2812637,27.6082064 17.9209165,27.4915977 C16.8477657,27.1435251 15.9613642,26.4877108 15.2073531,25.6153374 C15.1415963,25.5390595 15.0907444,25.4478768 14.987287,25.2970746 C16.3296022,25.4583979 17.6675337,25.3645849 18.6021568,26.5710027 C18.5732238,25.8222521 18.1602712,24.9034106 17.7595932,24.7666365 C17.5991466,24.7911857 17.4273022,24.8665868 17.2791303,24.8315165 C16.5838618,24.6684397 15.8894701,24.4948417 15.2055996,24.2861735 C14.4130111,24.0441886 13.6318204,23.760996 12.846246,23.4944618 C12.7725984,23.4699126 12.7015811,23.4357191 12.6323173,23.3331385 C12.9312915,23.2840401 13.2285121,23.2270509 13.5283631,23.1875968 C14.5471549,23.053453 15.5668235,23.0297805 16.5873689,23.1744455 C17.0038285,23.2331882 17.3220914,23.4778034 17.5956396,23.8004501 C17.6982202,23.9205658 17.796417,24.0441886 17.9445889,24.1423854 C17.7780051,23.5856446 17.6105445,23.0297805 17.4439606,22.4730397 C17.4141509,22.4818073 17.3834644,22.4905749 17.3536546,22.4993424 C17.37382,22.6291025 17.3939854,22.7588626 17.4167811,22.9008972 C17.1730426,23.1209633 16.947716,22.9912032 16.7539527,22.8447848 C16.0227372,22.2897975 15.3037964,21.7155215 14.5769647,21.1535202 C13.3310927,20.1899641 12.0878511,19.2176404 10.6017477,18.6933396 C10.2545518,18.5705936 9.90209545,18.4636292 9.55577637,18.323348 C10.8910775,18.2426864 12.14221,18.6319666 13.391589,19.08525 C14.6488588,19.5411637 15.8877166,20.0198732 16.9784025,20.8931233 C16.7557062,20.2618581 16.5330099,19.6297162 16.2875179,18.9318175 C16.2673525,19.0335213 16.2568314,19.0545635 16.2594617,19.0738522 C16.2901482,19.2535874 16.4576088,19.4806675 16.2471871,19.5972762 C16.088494,19.6849519 15.8438788,19.695473 15.6711576,19.6332233 C15.3572785,19.5209983 15.0495368,19.359675 14.7733583,19.1641582 C14.2420434,18.7862758 13.7352778,18.3698162 13.1767835,17.9366981 C14.1692726,17.547418 15.0153433,17.8016775 15.8386182,18.2681123 C15.8622907,18.2444399 15.8850864,18.2207675 15.9087588,18.1962183 C15.6308268,17.7543326 15.3528948,17.312447 15.0749627,16.8714382 C15.0591811,16.8819593 15.0425227,16.8924803 15.0267411,16.9030014 C15.0714557,17.0494199 15.1170471,17.1958383 15.1591314,17.3352427 C14.6918199,17.6280796 13.0329953,17.0660783 12.4157582,16.4102639 C12.6744016,16.3392466 12.9084958,16.2752433 13.1794137,16.2007189 C12.8444925,16.0244908 12.539381,15.8763188 12.2465441,15.7062279 C11.961598,15.5405208 11.6889266,15.3502645 11.373294,15.1468568 C12.0326154,14.7444253 12.6516059,14.7479323 13.2846246,15.1082795 C13.0207207,14.7277669 12.6884297,14.5471549 12.2553117,14.5927463 C11.8975948,14.6304469 11.5381243,14.6593798 11.1804074,14.6918199 C11.1821609,14.6655171 11.1839144,14.6392144 11.1847912,14.612035 C11.0979922,14.5340036 11.0111933,14.4559722 10.9454365,14.3972294 C10.9629716,14.2034661 10.9787533,14.0263612 10.9954116,13.8483795 C11.2277523,13.8483795 11.4565859,13.8483795 11.6845428,13.8483795 C11.250548,13.5537891 10.6376947,13.6160388 10.362393,13.0040623 C10.4097378,12.9295379 10.4754946,12.8243271 10.5666774,12.6796622 C10.185288,12.4245258 9.81529649,12.1772803 9.41900225,11.9124996 C9.60575153,11.7336412 9.31203788,11.3794313 9.67939913,11.2891253 C9.27083029,10.9901511 8.70181489,11.1128971 8.30201362,10.7262472 C8.50805155,10.3395973 8.78510682,10.5850893 9.02446152,10.5666774 C8.80877926,10.1589853 8.41599205,10.1537248 8.02671187,10.0827074 C8.01619078,9.94067276 8.00654645,9.80915919 7.99514861,9.66098723 C8.11789461,9.62504018 8.21258439,9.59698396 8.29149253,9.57418827 C8.35724932,9.44618172 8.41862232,9.3278195 8.51243534,9.14633077 C8.68427974,9.39445305 8.79825818,9.55840664 8.92363445,9.7372651 C8.98676097,9.58733963 9.04638045,9.44530497 9.12265833,9.26293947 C9.63030073,9.62591694 9.40146711,10.3097875 9.74164889,10.6946839 C9.79951486,10.5105649 9.85299705,10.340474 9.91086302,10.1537248 C10.33346,10.3799281 10.3194319,11.0559079 10.8805564,11.1120203 C10.831458,10.983137 10.7893737,10.8726656 10.7358915,10.7323845 C10.8174299,10.7192331 10.8700354,10.7113423 10.9252711,10.7025747 C10.9550808,10.6035012 10.9883976,10.4956601 11.0217144,10.3878189 C11.0611684,10.3816816 11.1014993,10.3755443 11.1409533,10.369407 C11.3364702,10.8525002 11.5328638,11.3355934 11.7362714,11.8379753 C11.8230704,11.5670573 11.9019785,11.3206885 11.9922845,11.0392495 C12.3289593,11.4048572 12.6165356,11.7178595 12.9234006,12.0510273 C12.7997779,12.1273051 12.7252535,12.1720198 12.5893562,12.2561884 C12.7936406,12.3920858 12.9646082,12.5060642 13.1513575,12.6305638 C13.1680159,12.4446912 13.1811673,12.3096706 13.1978256,12.1255516 C13.644095,12.2912587 13.78876,12.6480989 13.9299179,13.0338721 C13.8738054,13.1566181 13.817693,13.2811176 13.7589502,13.4100009 C13.6458486,13.4100009 13.546775,13.4100009 13.4485782,13.4100009 C13.4441944,13.795774 13.6800421,14.2394132 14.185931,14.8075518 C14.1333255,14.3209516 13.979893,13.8369816 14.0658152,13.3424906 C14.1122834,13.3284625 14.1578747,13.3144343 14.2043429,13.3004062 C14.5208522,14.0351287 14.8382383,14.7689745 15.1617617,15.5203554 C15.1617617,14.3945992 15.1617617,13.2986527 15.1617617,12.203583 C15.1731595,12.200076 15.1836806,12.1974457 15.1950785,12.1939387 C15.2529444,12.4306631 15.2994126,12.6708946 15.3713067,12.9023585 C15.7737382,14.1990823 16.1963352,15.4887921 16.5803548,16.7907765 C16.7197592,17.2624719 16.7785019,17.7631002 16.8574101,18.2532075 C16.8731917,18.3505275 16.814449,18.4609989 16.7741181,18.6345968 C16.6610165,18.475027 16.5970132,18.384721 16.5338867,18.2944151 C16.514598,18.3031826 16.4944326,18.3119502 16.4751439,18.319841 C16.7609668,19.1702955 17.0476664,20.0207499 17.3334892,20.8712044 C17.312447,19.3544145 17.8332408,18.0348949 18.5153579,16.7574597 C18.6328433,18.1550107 18.9239267,19.5455475 18.5022065,20.9071514 C18.1006517,20.9343309 18.0541836,20.8773417 17.9437122,20.3512874 C17.8498992,20.7274162 17.7517024,21.1210802 17.6236958,21.6331064 C17.8437619,22.3967618 18.0988982,23.2849169 18.3733232,24.2397054 C18.5863752,22.4195575 19.7577228,21.3884911 20.9457287,20.3758366 C21.2999386,20.0742321 21.6830815,19.8094514 22.0872666,19.576234 C21.768127,20.1706754 21.4481106,20.76424 21.1456294,21.3271181 C21.3358857,21.9215595 21.5103603,22.4633954 21.6874653,23.0166292 C22.3976386,22.017126 23.1165795,21.0044715 23.8355204,19.9918169 C23.8565625,20.0084753 23.8784815,20.0251337 23.8995236,20.0417921 C23.7066371,20.6423708 23.4935851,21.2359354 23.3252477,21.8444048 C22.8921296,23.4120466 22.4783003,24.984949 22.0600871,26.5569746 C22.0329076,26.6586784 22.0057281,26.7796709 22.0337844,26.8743607 C22.2442061,27.5985621 22.4669024,28.3183798 22.6869685,29.0425812 C23.1525265,28.7751702 23.5970424,28.5200339 24.0406815,28.2657743 C24.0661075,28.2868165 24.0915334,28.3087354 24.1178362,28.3297776 C23.8118479,28.960166 23.5058597,29.5905544 23.2007482,30.2209428 C23.2279276,30.2411082 23.2542304,30.2612736 23.2814098,30.2814391 C24.0687378,29.328404 24.829763,28.342929 25.9949733,27.7178011 C25.959903,27.9133179 25.9502586,28.0290499 25.9178186,28.1360143 C25.6372563,29.0513487 25.3470497,29.9631762 25.0743782,30.8802642 C25.0252798,31.0450945 24.9954701,31.2449952 25.0340474,31.4071953 C25.3575708,32.7495105 25.6995061,34.0874419 26.0361808,35.4262501 C26.0440717,35.4560599 26.0659906,35.4823626 26.0984306,35.5402285 C26.5841541,35.2324868 27.068124,34.9256218 27.5696291,34.6082357 C27.5766432,34.4819826 27.5889178,34.3530993 27.5897945,34.224216 C27.6003156,32.8722565 27.6011924,31.5202969 27.6231113,30.1683374 C27.6292486,29.7851945 27.6011924,29.4379987 27.3232604,29.1548061 C27.2390917,29.0688839 27.1935003,28.9408773 27.1566765,28.7935821 C27.2943274,28.9014233 27.432855,29.0092644 27.6388929,29.169711 C27.6388929,28.4472631 27.6590584,27.7984628 27.6266183,27.151416 C27.616974,26.9585294 27.4574042,26.7735336 27.2978344,26.6104568 C27.3197533,26.8164947 27.3460561,27.0216559 27.3627144,27.2285706 C27.3828799,27.4688021 27.3215069,27.6616886 26.9664202,27.7581319 C25.7784142,26.7638893 24.6254786,25.6302423 23.5681094,24.3589444 C25.1068182,24.5439401 26.5762633,24.8832452 27.6590584,26.2536166 C27.6590584,25.1620539 27.6590584,24.0871497 27.6590584,23.0972908 C27.0786451,22.3581845 26.4964784,21.6979864 26.0046176,20.9676477 C25.5162638,20.2425695 25.1182161,19.4491042 24.7184148,18.652132 C25.8958997,19.0992781 26.8778677,19.8226028 27.6722097,20.789666 C27.6722097,19.4885583 27.6722097,18.1786831 27.6722097,16.8223398 C27.5512172,16.8609171 27.4837069,16.8819593 27.3916474,16.9108922 C27.2890668,16.7495689 27.1891165,16.5908759 27.0637402,16.3936055 C27.1040711,16.6469883 27.1382646,16.8591636 27.1715814,17.0678318 C27.0111348,17.4264255 26.7717801,17.4869217 26.5078762,17.1721659 C25.9844522,16.5479148 25.472426,15.9087588 25.0016074,15.2397931 C24.6658094,14.7619604 24.4054125,14.2245083 24.1555367,13.6739048 C25.2532367,14.0009352 26.1387614,14.6777917 27.032177,15.3984861 C27.2320776,15.6895695 27.4135664,15.9596107 27.5968086,16.2349125 C27.5836572,15.745682 27.4118128,15.4773943 27.0505889,15.3783207 C26.6411433,14.4042435 26.2159161,13.4371803 25.8257591,12.4543356 C25.223427,10.9357922 24.4913347,9.50229418 23.4874478,8.23976386 C23.2796563,7.97849022 23.0455621,7.74088903 22.8421545,7.47084782 C24.7131543,8.53260075 26.1703247,10.0678026 27.3127393,11.9458164 C27.3127393,11.2461642 27.3127393,10.546512 27.3127393,9.84685975 C27.2802993,9.86790192 27.248736,9.88982085 27.216296,9.91086302 C27.035684,9.73989537 26.8270158,9.59260017 26.6788438,9.39532981 C25.9949733,8.48437911 25.7135342,7.37878832 25.4014087,6.29073268 C25.3847503,6.23198995 25.3900108,6.16623316 25.3847503,6.10047637 C26.0230295,6.15045153 26.5254113,6.68439664 27.15843,7.9811205 C27.15843,7.71020253 27.15843,7.4673408 27.15843,7.21045095 C27.068124,7.21045095 26.9813251,7.21045095 26.8962796,7.21045095 C26.5780168,6.80451238 26.9655434,6.16447964 26.4614081,5.83481895 C26.4096794,5.91109682 26.3579507,5.98825145 26.2597539,6.13379314 C25.9677938,6.00666335 25.663559,5.87427302 25.3584476,5.74100593 C25.3637081,5.71207295 25.3689686,5.68313996 25.3742292,5.65420697 C25.4548908,5.63053453 25.5355525,5.60773884 25.6267352,5.58055937 C25.6477774,5.43589444 25.6688196,5.28684572 25.692492,5.12639916 C25.775784,5.14218079 25.8564456,5.15796242 25.9581495,5.17725107 C25.9581495,5.04924453 25.9581495,4.9414034 25.9581495,4.81164334 C25.7223018,4.73273519 25.4803168,4.64418272 25.4548908,4.28997282 C25.5399363,4.30838472 25.6092001,4.32416635 25.6732034,4.33819446 C25.6100769,4.07429056 25.5487039,3.81652395 25.47944,3.52631733 C25.5714995,3.58155303 25.6390098,3.62188386 25.7372067,3.68501037 C26.0177689,3.98486133 26.2676447,4.26191659 26.4956016,4.51442266 C26.4956016,4.23561388 26.4956016,3.90244615 26.4956016,3.64467955 C26.2562469,3.62451413 26.0414414,3.60697899 25.8266359,3.58944384 C25.844171,3.38340591 25.8625829,3.17736797 25.8801181,2.97133004 C25.9151884,2.96168571 25.9502586,2.95291814 25.9853289,2.94327381 C25.7056434,2.66358827 25.4259579,2.3847795 25.1252301,2.08492854 C25.1699448,1.98234796 25.2146594,1.87889061 25.2541135,1.78946138 C25.6653126,1.67197592 25.8064705,1.99286904 26.0098781,2.29710378 C25.9520122,1.56238127 25.3838735,1.38352281 24.9709209,1.03018967 C25.0375544,0.91007394 25.1024345,0.793465237 25.1830961,0.64704679 C25.2812929,0.656691118 25.3961481,0.667212204 25.5276617,0.679486805 C25.4847006,0.577782973 25.4391092,0.46731157 25.3882573,0.347195838 C25.4890844,0.248999036 25.5855277,0.155186019 25.7450975,0 C25.8511851,0.274424993 25.9432446,0.512026186 26.0239062,0.71806412 C26.0852792,0.559371073 26.1571733,0.372621796 26.2290674,0.18587252 C26.266768,0.184995762 26.3044685,0.183242248 26.3430459,0.182365491 C26.3912675,0.341058538 26.4394891,0.498874828 26.4956016,0.683870591 C26.548207,0.678610048 26.6192244,0.672472747 26.7077768,0.664581933 C26.7033931,1.19940381 26.2457258,1.64128942 26.4789432,2.22783996 C26.5376859,1.70967648 26.6656925,1.25200924 27.1557997,0.926732326 C27.1847327,1.17573136 27.2075284,1.3694947 27.2347079,1.59920507 C27.2539966,1.6088494 27.313616,1.6395359 27.3960312,1.682497 C27.2504895,1.95253821 27.1110851,2.21205833 26.967297,2.47771576 C27.0216559,2.59870824 27.0672473,2.70304235 27.1154689,2.81000672 C27.2399684,2.5811731 27.3521934,2.37513517 27.4644183,2.16909723 C27.5082561,2.16997399 27.552094,2.17085075 27.5959318,2.1717275 C27.6564281,2.38214922 27.7169243,2.59257094 27.7844346,2.82491159 C27.8633428,2.82491159 27.9676769,2.82491159 28.0781483,2.82491159 C27.9036736,3.1931496 27.7335827,3.55086653 27.5634918,3.90946021 C27.5827805,3.91910454 27.6011924,3.92962562 27.620481,3.93926995 C27.8519449,3.78671421 28.0825321,3.6332817 28.3455592,3.45968378 C28.5401993,3.87263641 28.3771225,4.2084344 28.3402987,4.55387673 C28.0299266,4.68100652 27.8475612,4.89756554 27.8650963,5.27544788 C28.0018704,5.1684835 28.1281234,5.06940994 28.3131192,4.92474501 C28.4104393,5.38679604 28.4963615,5.79010433 28.591928,6.24338779 C29.1092147,5.65683724 29.6212409,5.07730076 30.1323903,4.49776427 C30.151679,4.51091563 30.1718444,4.52319023 30.1911331,4.53634158 C30.0377006,4.94052664 29.8719935,5.33945115 29.7334658,5.74889675 C29.4651781,6.54060847 29.2240699,7.34371803 28.9496449,8.13279949 C28.7804308,8.61939971 28.5787766,9.09372534 28.3727387,9.56454394 C28.281556,9.7740889 28.1351375,9.94505655 27.8256422,9.93102844 C27.7818044,9.7740889 27.7344595,9.60575153 27.6914984,9.45144227 C27.5678756,9.69605752 27.6581816,12.4341701 27.801093,12.7804892 C28.6971388,11.5065611 29.599322,10.2238653 30.5015051,8.94029284 C30.519917,8.95081392 30.5383289,8.96133501 30.5567408,8.97185609 C30.3077418,9.88456031 30.0806617,10.8042786 29.8053599,11.7073385 C29.4397522,12.9084958 29.046965,14.1008855 28.6436567,15.2880147 C28.5673788,15.5124646 28.3587106,15.6825555 28.2631441,15.9026215 C28.1553029,16.1507438 28.1070813,16.4286758 28.0807786,16.7144986 C28.6690826,15.9359383 29.41871,15.3941023 30.1525557,14.8303475 C30.2446152,14.7593302 30.3112488,14.6348306 30.3621007,14.5208522 C31.3063682,12.4262793 32.4242336,10.4509454 33.8498407,8.68427974 C34.9615688,7.30251045 36.2004267,6.0732969 37.7031885,5.18601865 C38.2774644,4.84671362 38.8876874,4.57754917 39.481252,4.27594471 C39.4944034,4.30224742 39.5075547,4.32942689 39.5207061,4.35572961 C39.1279189,4.63190812 38.7254873,4.89318175 38.344098,5.18601865 C36.9149838,6.28021159 35.7708157,7.65321332 34.8265482,9.23225297 C33.6253909,11.2417804 32.8187743,13.431043 32.1471783,15.687816 C31.8894117,16.5531753 31.6114797,17.4123973 31.3440687,18.2742496 C31.3160125,18.3636789 31.2958471,18.4548616 31.2625303,18.5811147 C31.5439694,18.4382032 31.7868311,18.3154572 32.0296928,18.1918345 C32.0516118,18.2102464 32.0735307,18.2286583 32.0954496,18.2470702 C31.7929684,18.7889061 31.5141596,19.3482772 31.1783616,19.8646871 C30.9872286,20.1584008 30.9337464,20.4547447 30.9547886,20.7835287 C31.0599994,22.414297 31.1731011,24.0433118 31.278312,25.6740801 C31.3852763,27.3381652 31.4861034,29.0022503 31.5895607,30.6663354 C31.5939445,30.7417366 31.5992051,30.8171377 31.6044656,30.8960458 C31.9402636,30.6978987 31.9402636,30.6978987 31.8894117,29.8579653 C31.9200982,29.9605459 31.953415,30.061373 31.9797177,30.1648303 C32.0060204,30.2691645 32.0253091,30.3752521 32.0463512,30.4725721 C32.8319257,30.0368238 33.6201303,29.599322 34.408335,29.1626969 C34.4206096,29.1837391 34.433761,29.205658 34.4460356,29.2267002 C33.5394687,30.0701406 32.6329018,30.9127042 31.7087997,31.7719262 C31.7561446,32.3768887 31.8034895,32.9809744 31.8499576,33.5806763 C32.6460531,32.9143408 33.4351346,32.2541427 34.2557793,31.5676418 C34.0234386,31.2914633 33.7437531,30.9591723 33.4544232,30.6154835 C33.8480872,30.5295613 34.4802291,30.7382295 35.6664816,31.343192 C36.3898062,31.7123067 36.907093,32.3085016 37.2867288,33.0642663 C37.1972996,32.3409416 37.527837,31.5729024 37.0245784,30.8460707 C37.0131806,31.0415875 37.0061665,31.1757314 36.9930152,31.4098255 C36.823801,31.343192 36.6572172,31.3282871 36.5634042,31.2318438 C36.1671099,30.823275 35.7988719,30.3840196 35.408715,29.9693135 C34.7283514,29.2459888 34.0453576,28.5261712 33.3500891,27.8195049 C33.1615863,27.6274951 32.9239852,27.490721 32.7091796,27.3285209 C32.7249613,27.2960809 32.7398661,27.2636409 32.7556478,27.2312009 C33.5613876,27.6231113 34.3680042,28.0158985 35.2131981,28.4270976 C34.8204109,27.064617 34.4267469,25.6986293 34.0322062,24.3335184 C34.0383435,24.3273811 34.0444808,24.3212438 34.0506181,24.3142298 C34.1374171,24.4694158 34.2277231,24.6219715 34.3101382,24.7789111 C34.3943069,24.9393576 34.4775989,25.1015577 34.5494929,25.2681416 C35.0483678,26.4307216 35.5437356,27.5959318 36.0434872,28.7576351 C36.0846947,28.8540784 36.1408072,28.9478914 36.2056872,29.0285531 C36.5975977,29.5186603 36.9947687,30.0052605 37.3831721,30.48397 C37.3831721,29.996493 37.3831721,29.4520268 37.3831721,28.840927 C37.278838,29.018032 37.2086974,29.1372709 37.1043633,29.3143759 C36.5230733,28.7357162 36.4511792,27.952772 36.1899056,27.2662712 C36.2127013,27.2312009 36.235497,27.1970073 36.2582927,27.161937 C36.4958939,27.2732852 36.7326183,27.3855101 36.9860011,27.5047491 C36.0636526,26.1624339 35.5700383,24.5869012 34.9203612,23.0823859 C36.1022299,23.6873484 37.0649093,24.5316655 37.737382,25.7880586 C37.8829237,24.7806646 38.0275886,23.7741474 38.1713768,22.7772745 C37.921501,22.4099132 38.098606,22.0381682 38.1371833,21.6769442 C38.1748838,21.3253646 38.2564222,20.9790455 38.2616828,20.612561 C38.2108309,20.7107578 38.1608557,20.8080779 38.1082503,20.9097817 C37.7978782,20.825613 37.7198469,20.5573253 37.6812695,20.2960517 C37.5883333,19.6621562 37.4971505,19.0256305 37.4550662,18.3864746 C37.3822954,17.280007 37.3542391,16.1700324 37.0561417,15.0942514 C37.0894585,15.0802233 37.1218985,15.0661952 37.1552152,15.0521671 C37.6628576,16.2261449 38.1705,17.4001227 38.6825262,18.5837449 C38.7877371,18.164655 38.903469,17.7078645 39.0367361,17.1747962 C38.8841804,17.2589648 38.8184236,17.2957886 38.7579273,17.3291054 C38.4221294,17.1186837 38.3730309,16.6075343 38.6272905,16.0350118 C38.9806237,16.1279481 39.0849578,16.4602391 39.2638162,16.814449 C39.2980098,16.4874185 39.3251892,16.2217611 39.3523687,15.9631177 C38.7570506,15.7877663 38.6465792,15.5554257 38.6895403,14.6383377 C39.2164713,14.7602069 39.2164713,14.7602069 39.5084315,15.3151942 C39.5759418,15.196832 39.6346845,15.0942514 39.6934272,14.990794 C39.6609872,14.987287 39.6285472,14.9829032 39.596984,14.9793962 C39.568051,14.6891896 39.5382412,14.3981062 39.506678,14.0859807 C39.484759,14.0859807 39.4216325,14.0859807 39.2874887,14.0859807 C39.4330304,13.8632843 39.5531461,13.6791653 39.6855364,13.4766344 C39.7135927,13.5555426 39.7372651,13.6195458 39.78461,13.7510594 C39.8109127,13.5932431 39.8258176,13.5046907 39.8354619,13.4424409 C39.9739895,13.5222258 40.1081334,13.5985037 40.2414005,13.6747815 C40.2659497,13.6432183 40.2904989,13.611655 40.3150481,13.5809685 C40.1598621,13.2556916 39.9336587,12.9461963 40.1028728,12.5271064 C40.1695064,12.5455183 40.250168,12.5665605 40.3448578,12.5928632 C40.4097378,12.7997779 40.4728644,13.001432 40.5289768,13.182044 C40.5771985,12.9856504 40.6306807,12.7708449 40.6859164,12.5446416 C40.8112926,12.571821 40.9059824,12.5919864 41.073443,12.6288102 C40.9550808,12.4911594 40.8831867,12.4078674 40.7902505,12.3009031 C40.88231,12.3131777 40.9594646,12.3236987 41.0331122,12.3333431 C41.1462139,12.0860976 40.4982903,11.6442119 41.2391501,11.5223427 C41.2137242,11.4504486 41.1830377,11.3610194 41.1418301,11.2435339 C41.5802087,11.5048076 41.589853,11.9431861 41.6880498,12.3657831 C41.6713914,12.0887278 41.6889266,11.8020282 41.6275536,11.5372476 C41.5661806,11.2759739 41.4241459,11.037496 41.3057837,10.7621942 C41.4548324,10.7008212 41.5451384,10.6639974 41.6407049,10.6245434 C41.6407049,10.5614168 41.6407049,10.4895228 41.6407049,10.4176287 C41.6661309,10.4079843 41.6915568,10.3974632 41.7169828,10.3878189 C41.8169331,10.6578601 41.9168834,10.9270246 42.0168337,11.1970658 C42.0396294,11.1970658 42.0633019,11.1970658 42.0860976,11.1970658 C42.0641786,10.8840635 42.0431365,10.5701844 42.0220943,10.2641962 C42.1939387,10.1958091 42.3561388,10.1309291 42.5534091,10.0528977 C42.5884794,10.1870415 42.6288102,10.3378438 42.6682643,10.4877692 C42.7612006,10.459713 42.8672882,10.427273 42.9409358,10.4044773 C43.0689423,10.6140223 43.1706462,10.7797294 43.2907619,10.976123 C43.124178,11.0708128 42.9707455,11.1584885 42.784873,11.2645761 C42.8865768,11.3031534 42.9514569,11.3285794 43.0671888,11.373294 C42.7927638,11.5775784 42.5560394,11.7529298 42.319315,11.9282813 C42.3324663,11.951077 42.3464944,11.9738726 42.3596458,11.9966683 C42.506941,11.954584 42.6533594,11.9124996 42.8295876,11.8616477 C42.8629044,11.9852705 42.8865768,12.0729462 42.9216471,12.203583 C42.5858491,12.4832686 42.2526814,12.7603238 41.9046088,13.0505304 C42.0106964,13.0803402 42.0860976,13.1013824 42.1790338,13.1276851 C42.1939387,13.2223748 42.2079668,13.3126808 42.2228717,13.4073706 C42.3201917,13.456469 42.420142,13.5073209 42.5244761,13.5599264 C42.1991992,14.2271386 41.5205892,14.4761376 41.0427565,14.9522167 C41.0585382,14.9732589 41.0743198,14.9943011 41.0901014,15.01622 C41.3461145,14.9066254 41.6030044,14.796154 41.8590174,14.6865593 C41.8739223,14.7181226 41.8888272,14.7496858 41.9037321,14.7812491 C41.8493731,14.8531432 41.7958909,14.9250373 41.7371482,15.0030687 C41.8178099,15.0714557 41.8984715,15.1398428 42.0168337,15.2406698 C41.7801093,15.4642429 41.5784552,15.6764182 41.3540053,15.8543999 C41.2786042,15.9140193 41.1391998,15.9113891 41.0348657,15.8956074 C40.5263466,15.8184528 40.2536751,16.056054 40.1993161,16.6846889 C40.6815326,16.2682292 41.2075869,16.117427 41.8344682,16.233159 C41.5188357,16.8845895 41.0103165,17.3045562 40.4807552,17.7885262 C40.7744688,17.7622235 41.0094398,17.7411813 41.2523015,17.7192624 C41.134816,18.2777567 39.9292749,19.4087734 39.390946,19.4368296 C39.3786714,19.2790134 39.3655201,19.1194436 39.3514919,18.9414618 C39.2620627,18.9888067 39.1612356,19.0414122 39.0796972,19.0843733 C38.9148669,19.627086 38.7552971,20.1487565 38.6001111,20.6713037 C38.5860829,20.7195254 38.5983575,20.7773914 38.5983575,20.8720811 C39.3234357,20.1680451 40.1081334,19.6682935 41.1593652,19.5429173 C40.9015986,19.933951 40.6964374,20.2539673 40.4833855,20.5669696 C40.0827074,21.1561505 39.6881667,21.7505918 39.2682,22.323991 C39.1121372,22.5361662 38.8894409,22.692229 38.7061987,22.8658269 C38.5755619,22.7711372 38.5098051,22.7229155 38.4563229,22.685215 C38.3747845,23.4094164 38.2923693,24.1415086 38.2055703,24.9183155 C39.4154952,22.8737177 41.1584885,21.681328 43.243417,20.9702779 C41.4592162,22.230178 40.2326329,23.9670339 39.3848087,25.9853289 C40.2361399,25.9853289 41.1093901,25.9853289 41.9826402,25.9853289 C41.9896543,26.0037408 41.9966683,26.0230295 42.0045591,26.0414414 C41.925651,26.0975538 41.8511266,26.1650641 41.7660812,26.2071485 C40.5701844,26.8086039 39.3751644,27.4118128 38.1731303,27.9992401 C37.9565713,28.1053278 37.8610048,28.2421019 37.8548675,28.4893474 C37.8487302,28.7304556 37.8127831,28.9706871 37.8171669,29.234591 C38.3327001,28.1439051 39.3357103,28.0158985 40.2852383,27.7230616 C40.0923518,28.5752696 38.8008884,30.0420843 38.2336266,30.0271795 C38.2231055,29.8702399 38.2117076,29.7080399 38.2003098,29.5335652 C38.0363562,29.7185609 37.8715258,29.9035567 37.6707485,30.1297601 C37.6707485,31.1117281 37.6707485,32.1515621 37.6707485,33.1896426 C37.701435,33.1896426 37.7198469,33.1922728 37.7207236,33.1896426 C38.0933454,31.9490312 39.145454,31.6395359 40.1116404,31.2248298 C40.4185054,31.0933162 40.7551802,31.0380805 41.1584885,30.9258556 C41.0611684,31.0915627 41.0173306,31.198527 40.94719,31.2800655 C40.2028232,32.1471783 39.4549493,33.0107841 38.7079522,33.8752667 C38.6807727,33.9068299 38.6500862,33.9480375 38.6150159,33.9585586 C38.4589532,34.0059035 38.3002601,34.0436041 38.1415671,34.0856884 C38.1301692,33.9357629 38.1100038,33.7849607 38.1117573,33.6350352 C38.1126341,33.5447292 38.1485811,33.4553 38.1845282,33.2930999 C37.9872578,33.5298244 37.8399626,33.7069293 37.6707485,33.910337 C37.6707485,35.7269778 37.6707485,37.5664144 37.6707485,39.362013 C37.9022124,39.177894 38.1573487,39.0007891 38.3809218,38.7859836 C38.5036678,38.6676214 38.58959,38.4940234 38.6641143,38.3309466 C39.3453546,36.8518573 40.1502177,35.4534296 41.1164041,34.1672268 C42.1571149,32.7819505 43.3670398,31.6123564 44.929421,30.9197183 C44.9644913,30.9039366 45.0021919,30.8960458 45.0583044,30.9197183 C44.7812491,31.1424146 44.4954263,31.3537131 44.2288921,31.588684 C42.9067423,32.7530175 41.9405559,34.2031739 41.228629,35.8576146 C40.2808545,38.0609054 39.6206564,40.362393 39.1463308,42.7296373 C39.0937253,42.9917877 39.0200777,43.2495543 38.9359091,43.5941199 C39.6732618,42.7533098 40.4842622,42.1527311 41.3294561,41.5951135 C41.4434346,41.5197124 41.5258497,41.3759242 41.5986206,41.2479177 C42.3096706,39.9924014 43.1417132,38.8412193 44.1754099,37.8653885 C44.9110091,37.1709969 45.7193793,36.5975977 46.6417278,36.210071 C45.4028699,37.0675395 44.4112576,38.1854049 43.5371307,39.4391677 C42.6717713,40.6797791 41.9957916,42.022971 41.5021773,43.4775112 C42.7769822,41.5714411 44.398983,40.1905486 46.5961364,39.5768185 C43.7010843,41.402227 41.6468422,43.9071222 40.5289768,47.2572113 C41.8835666,45.781629 43.6397113,45.3414969 45.4554753,45.0521671 C44.7891399,45.3327293 44.0947482,45.5571792 43.4634831,45.9105123 C42.8190665,46.2717363 42.2167344,46.731157 41.6328141,47.2010989 C41.0506473,47.6692872 40.5281001,48.2172604 40.1361896,48.8906099 C40.8419791,48.2996756 41.6126487,47.8639273 42.4955432,47.6876991 C45.723763,47.0441593 48.1462431,49.0037116 48.8046877,52.0329076 C49.0677149,53.2437093 48.836251,54.3633282 48.5223719,55.4960984 C48.3119502,56.2553701 48.0892539,57.0102581 47.8709413,57.7668995 C47.8481457,57.8449309 47.8165824,57.920332 47.7201391,57.9738142 C47.8595435,57.4503902 47.9963176,56.9252126 48.139229,56.4026653 C48.3207178,55.7372067 48.4943157,55.0691177 48.6950931,54.4097963 C48.9318175,53.6373732 48.8029342,52.905281 48.5092206,52.1933542 C47.8779554,50.6660432 46.9398252,49.4026361 45.6238127,48.4794108 C44.9039951,47.9743987 44.1017623,47.770991 43.2504311,47.7631002 C42.542888,48.8774586 42.0974954,50.089137 41.802905,51.3665722 C41.7713417,51.5024695 41.8546337,51.6681766 41.8897039,51.8408978 C41.9572143,51.7900459 41.9843937,51.7698805 41.9975451,51.7602361 C42.0492738,51.9276968 42.1010024,52.0969109 42.1579916,52.2827834 C42.5534091,51.9136686 42.9295379,51.5629658 43.3056668,51.2122629 C43.3223252,51.2315516 43.3389835,51.2508402 43.3556419,51.2701289 C43.0163369,51.6751907 42.6770319,52.0802525 42.3324663,52.4923284 C42.4052372,52.6282257 42.4692404,52.7483415 42.532367,52.8649502 C42.9768828,52.2643715 43.4108776,51.6769442 43.8457492,51.0895169 C43.8667914,51.1079288 43.8887103,51.125464 43.9097525,51.1438759 C43.5239793,51.7453313 43.1373294,52.3467867 42.7427887,52.9613935 C42.7568168,53.028027 42.7734752,53.1078119 42.7620773,53.2103925 C42.6928135,53.2103925 42.6507292,53.1884736 42.5788351,53.1516498 C42.4832686,53.334892 42.387702,53.5181343 42.290382,53.7040068 C42.4850221,53.9600199 42.6726481,54.2063886 42.8593974,54.4527574 C42.8769325,54.4457433 42.8953444,54.4387293 42.9128796,54.4317152 C42.8655347,54.0275302 42.8190665,53.6277289 42.7717217,53.2270509 Z M42.2293274,53.6356197 C42.3419439,53.3085893 42.021064,53.1279773 41.5597992,52.9070345 C41.4132434,53.3138498 41.2867427,53.6645527 41.160242,54.0152556 C41.20498,54.0205161 41.2497181,54.0257767 41.2944562,54.031914 C41.4117008,53.7960663 41.5289453,53.5610954 41.6693303,53.277026 C41.8451972,53.4243212 41.9485575,53.5102434 41.9840394,53.6154543 C41.8066299,53.7671333 41.6292203,53.9188123 41.4533534,54.0696145 C41.5767688,54.190607 41.6693303,54.2800362 41.8020018,54.4089195 C41.936216,54.132741 42.0488325,53.8986469 42.2293274,53.6356197 Z M39.7828565,50.4161674 C39.6846597,51.374463 39.5855861,52.3336353 39.4865126,53.2971915 C39.6355613,53.4173072 39.7583073,53.5163807 39.8959581,53.6277289 C40.0528977,52.9640237 40.1186545,52.349417 40.0169506,51.717275 C39.9538241,51.3236111 39.9292749,50.9220563 39.9275214,50.5424204 C40.0792004,51.1500132 40.2308794,51.7576059 40.3965865,52.421311 C40.6578601,51.8680773 40.9033521,51.3472835 41.1514744,50.8229827 C41.2303826,50.9290703 41.3049069,51.0281439 41.3426075,51.0798726 C41.9054856,49.9786656 42.4718707,48.872198 43.0347488,47.7701143 C42.0983722,47.7850191 41.2496712,48.1444896 40.488646,48.8406348 C40.0213344,49.2684923 39.7986381,49.7515855 39.7828565,50.4161674 Z M33.3386913,35.1456878 C34.4223632,35.5831896 35.3070111,36.3415846 36.1013531,37.2060672 C36.542362,37.6865301 36.8790367,38.2748341 37.249905,38.7973814 C37.249905,38.7956279 37.2630564,38.7368852 37.2639331,38.6772657 C37.2718239,37.2051904 37.2700704,35.7322384 37.2911126,34.2601631 C37.2972499,33.8305521 37.1394336,33.4965076 36.9027092,33.177368 C36.84572,33.5517433 37.2376304,34.0085338 36.6826431,34.3162755 C35.7979951,33.5719087 35.1851419,32.5618844 34.3381945,31.6868808 C33.5701552,32.7381126 32.812637,33.7735628 32.0700237,34.7897244 C32.0910658,35.1167548 32.1007102,35.3885496 32.1278896,35.6585908 C32.2357308,36.7405091 32.3418184,37.8233042 32.4645644,38.903469 C32.5031417,39.2427741 32.505772,39.6416986 32.6767396,39.8977117 C33.2080545,40.6920537 33.6253909,41.5390011 33.9550516,42.4411842 C34.1242657,42.9032352 34.282082,43.3705468 34.4451588,43.8352281 C34.4679545,43.8343513 34.4907502,43.8325978 34.5135459,43.8317211 C34.6275243,42.8821931 34.7415028,41.9317883 34.8537277,40.9962884 C34.9738434,41.7783558 34.9115937,42.5770816 34.8169039,43.3766841 C34.7704357,43.7738551 34.7309817,44.1719029 34.6880206,44.5699506 C34.7178303,44.5752112 34.7476401,44.5804717 34.7783266,44.5857322 C34.9449104,44.192945 35.1062337,43.7975275 35.2807084,43.4082474 C35.4560599,43.0180904 35.6340416,42.6270567 35.8330654,42.2500511 C36.0268288,41.8844434 36.2486483,41.5363708 36.4581933,41.1804074 C36.4739749,41.1909285 36.4906333,41.2014496 36.5064149,41.2119707 C35.961072,42.5113248 35.415729,43.8106789 34.8826607,45.0828536 C35.0746705,45.7272701 35.2500219,46.3138206 35.4201128,46.886343 C35.5411053,46.886343 35.6366718,46.8819593 35.7322384,46.8872198 C35.8321887,46.8924803 35.9312622,46.9073852 36.0382266,46.9179063 C36.4345209,46.0516702 36.8825438,45.2187509 36.3950668,44.2131104 C36.4257533,44.214864 36.4564398,44.2166175 36.4871263,44.218371 C36.5826928,44.5050706 36.6782593,44.7926469 36.7799632,45.1003887 C37.2402607,43.4021101 37.2569191,41.6854195 37.2376304,39.9669755 C37.2358769,39.81705 37.1578455,39.668878 37.0964725,39.4540725 C37.0543882,39.8074057 37.0210714,40.0792004 36.9781103,40.4386708 C36.7896075,40.3571324 36.6484496,40.3325832 36.5572669,40.2475378 C36.4380279,40.1361896 36.3477219,39.9836339 36.2635532,39.8372154 C35.3447117,38.2336266 34.4425286,36.6168863 33.3386913,35.1456878 Z M28.1553029,40.1537248 C28.1421516,41.2663296 28.1281234,42.3780577 28.1158488,43.4906625 C28.1062045,44.3577754 28.0579829,45.2161206 28.3797528,46.0604378 C28.6690826,46.8205863 28.8488178,47.6272029 29.0750212,48.413654 C29.1583131,48.7047374 29.2372213,48.9975743 29.3362948,49.3587983 C29.7597685,48.3908583 30.2612736,47.5947628 30.3638542,46.5347634 C30.5006283,45.1205541 30.9153345,43.7361545 31.2134319,42.3394804 C31.2511325,42.1641289 31.3063682,41.9931613 31.3528363,41.8195634 C31.3686179,41.8239472 31.3852763,41.8283309 31.401058,41.8335915 C31.1844989,43.5406377 30.9679399,45.2485607 30.7645323,46.8512728 C31.0310664,46.0972616 31.3160125,45.2441769 31.6351521,44.405997 C31.7920917,43.9947979 31.798229,43.5914896 31.7482538,43.1636321 C31.624631,42.1053862 31.5194202,41.04451 31.4071953,39.9845106 C31.3011076,38.9832539 31.19502,37.9819973 31.0880556,36.9816173 C31.0582459,36.9710962 31.0284362,36.9605752 30.9986264,36.9509308 C30.1849958,39.015694 29.3722419,41.0804571 28.530555,43.2188678 C28.588421,42.6533594 28.6410264,42.1685127 28.6874945,41.6827893 C28.7164275,41.3820615 28.8163778,41.0550311 28.7409767,40.7849899 C28.6252448,40.3711605 28.3858901,39.9967852 28.1553029,39.5154455 C28.1561797,39.7732121 28.1561797,39.9319052 28.1553029,40.1537248 Z M18.3794605,37.6786393 C18.6056639,39.5084315 19.0887571,41.2680831 19.6411141,43.055791 C19.688459,42.5314902 19.7051173,42.0633019 19.7770114,41.6038811 C19.9944472,40.2159745 20.4941988,38.9385393 21.1929743,37.7505334 C21.3735862,37.4427916 21.4437268,37.159599 21.3376392,36.7896075 C21.1570272,36.1600959 21.038665,35.5112956 20.9097817,34.9396499 C20.4941988,34.7257211 20.1382354,34.5416021 19.7331736,34.3329339 C19.7796417,34.4407751 19.8015606,34.4968875 19.8278633,34.5503697 C19.9400883,34.7809568 20.0786159,35.0010229 20.1619078,35.2430079 C20.2960517,35.6305345 20.1057954,35.8681357 19.724406,35.7997487 C19.547301,35.7681854 19.3693193,35.7024286 19.2062425,35.6208902 C18.7406845,35.3894263 18.2830172,35.1421808 17.8428851,34.9124704 C18.0147295,35.8111465 18.1874507,36.7185902 18.3794605,37.6786393 Z M30.704036,31.2116784 C30.5997019,29.4327381 30.4962446,27.6537978 30.3910337,25.8678435 C30.0622498,26.3053453 29.7571383,26.721805 29.4388754,27.12599 C29.3064851,27.2943274 29.111845,27.4845837 28.9198352,27.3215069 C28.80498,27.2241868 28.7655259,26.9585294 28.7778005,26.7752871 C28.7962124,26.4982319 28.8891487,26.2264372 28.9680568,25.869597 C28.6953853,26.2518631 28.4700587,26.5578514 28.2570068,26.8743607 C28.201771,26.9567759 28.1570564,27.0690008 28.1561797,27.1671976 C28.1482889,28.0062542 28.1517959,28.8444341 28.1517959,29.5572376 C29.0478417,30.830289 29.8798843,32.0130345 30.7505041,33.2483853 C30.7741766,32.9844814 30.7960955,32.7460034 30.8162609,32.5145396 C30.7049128,32.4540433 30.6189906,32.4066984 30.4971213,32.3409416 C30.5839203,32.1883859 30.6593214,32.0559956 30.7426133,31.9087004 C30.732969,31.7061694 30.7224479,31.4887337 30.704036,31.2116784 Z M30.0780314,37.2227255 C30.2393547,36.8606248 30.361224,36.4695911 30.5716457,36.1425607 C31.0661367,35.3710144 30.6409095,34.6520735 30.5655084,33.910337 C29.6501739,34.2356139 28.8102405,34.6134962 28.1158488,35.3648771 C28.1158488,36.2056872 28.1167256,37.0763071 28.114971,37.9478037 C28.1140953,38.4580764 28.6234912,39.9748663 28.9031768,40.3439811 C29.2819359,39.3374638 29.6712161,38.3028904 30.0780314,37.2227255 Z M21.5138674,41.5775784 C21.3955052,42.0133267 21.287664,42.4517053 21.1526434,42.8813163 C21.1175731,42.9935412 20.9974574,43.149604 20.9132887,43.1513575 C20.7984335,43.1539878 20.6651664,43.0470234 20.5704767,42.9523336 C20.4880615,42.8707952 20.4486074,42.7410352 20.3898647,42.633194 C20.4223047,43.0943683 20.5555718,43.5248561 20.6143145,43.9676184 C20.7247859,44.8057983 21.3104597,45.2126136 21.8785984,45.6816787 C21.9759184,45.2669726 22.0662244,44.8768156 22.1574071,44.4875354 C22.1775726,44.4919192 22.197738,44.496303 22.2187801,44.5006868 C22.1574071,44.9487097 22.0951574,45.3958559 22.0346611,45.8377415 C22.2424526,46.0543005 22.4476138,46.269106 22.6536517,46.4839115 C22.7448344,46.0692054 22.8517988,45.6527457 22.9236929,45.229272 C22.9640237,44.9899173 22.99208,44.7295204 22.9491189,44.4945495 C22.8018237,43.6879329 22.6063068,42.8909606 22.4616419,42.0834673 C22.4099132,41.7932607 22.2845369,41.6117719 22.0513195,41.4863957 C21.9075313,41.409241 21.7672502,41.3233188 21.6208318,41.2391501 C21.5840079,41.3469913 21.5541982,41.438174 21.5138674,41.5775784 Z M18.8809656,25.9493819 C19.0992781,26.7735336 19.3184674,27.5985621 19.5122308,28.3280241 C19.6525119,27.7370898 19.7436947,27.0383143 19.9865564,26.4044189 C20.3162171,25.5460736 20.7651168,24.7403338 21.1535202,23.9065377 C21.2219072,23.7592425 21.2955548,23.5795073 21.2780197,23.4269515 C21.2131397,22.8772248 21.1105591,22.3318818 21.0123623,21.7207821 C20.922933,21.9171757 20.86156,22.0513195 20.800187,22.1863401 C20.4661426,22.9263232 20.1356051,23.6680597 19.7971768,24.4054125 C19.688459,24.6412602 19.5253821,24.8104743 19.1738025,24.7780343 C19.11769,24.4159336 19.0589473,24.0415583 18.9870532,23.583891 C18.8450186,24.0599702 18.7292866,24.4501271 18.594266,24.9025338 C18.6749277,25.194494 18.7722477,25.5460736 18.8809656,25.9493819 Z M18.7319169,48.1629015 C18.6179385,47.5789812 18.4566151,47.0011982 18.3996259,46.4111407 C18.2786334,45.1626385 17.4956893,44.3367332 16.8319841,43.4266593 C16.9240436,43.8720519 17.0397756,44.3069235 17.1406026,44.7461788 C17.525499,46.4269223 17.9139024,48.1076658 18.2847707,49.7927931 C18.4601222,50.5897653 18.5679633,51.41041 19.1624047,51.9794254 C19.1624047,51.6225853 19.2027355,51.2297981 19.1545138,50.8501622 C19.0422889,49.9690212 18.8871029,49.0940176 18.7319169,48.1629015 Z M32.1471783,49.3552912 C32.0770377,47.7008505 32.0068972,46.0472864 31.9332496,44.3227051 C30.9293626,46.3655493 30.8171377,48.4364497 31.2248298,50.5687231 C31.4580472,50.1408657 31.6982786,49.6981033 31.9393869,49.2562177 C31.9639361,49.269369 31.989362,49.2833971 32.0139112,49.2965485 C31.7622819,49.8287401 31.5106526,50.3600549 31.2344741,50.9430985 C31.2344741,51.2420727 31.2344741,51.6138177 31.2344741,52.0644709 C31.5378321,51.2561008 31.8148873,50.5292691 32.0822983,49.7971768 C32.1252594,49.6788146 32.1270129,49.5429173 32.1471783,49.3552912 Z M29.0785282,31.4387585 C28.7944589,31.0424643 28.5103896,30.64617 28.2263203,30.2498758 C28.2087851,30.2656574 28.1903732,30.2814391 28.1728381,30.2972207 C28.1728381,31.6614548 28.1728381,33.025689 28.1728381,34.3951837 C28.9549055,34.195283 29.7729199,34.1347868 30.310372,33.2913464 C29.93512,32.7249613 29.5212906,32.0998334 29.0785282,31.4387585 Z M20.4135371,49.6525119 C20.6029167,51.3288716 20.7922962,53.0052313 20.9816758,54.681591 C21.0176228,54.6772072 21.0535699,54.6719467 21.0895169,54.6675629 C21.0325277,54.1222199 20.9746617,53.576877 20.9176725,53.0324108 C20.9317006,53.0297805 20.9457287,53.0262735 20.9597568,53.0236432 C21.0553234,53.4059093 21.1500132,53.7881755 21.2350586,54.1301108 C21.9259432,51.9960838 21.4595084,49.8603034 21.0737353,47.7341672 C21.0123623,48.0252506 20.9501125,48.3224713 20.8729579,48.6924628 C20.6336032,48.6065406 20.4670193,48.5460444 20.3039425,48.4873016 C20.3355057,48.8187158 20.3723295,49.2053658 20.4135371,49.6525119 Z M33.1949031,46.2243914 C33.2299734,46.4707601 33.2641669,46.7171289 33.2992372,46.9634977 C33.5701552,46.4251688 33.8103866,45.8982377 33.9857381,45.3493877 C34.0734138,45.0749627 34.0962095,44.7505626 34.0576322,44.4621095 C33.9901219,43.9614811 33.8708829,43.4652366 33.7384926,42.9777596 C33.4824795,42.0334921 33.1405442,41.1242949 32.6767396,40.2300026 C32.8520911,42.2368998 33.022182,44.2008358 33.1949031,46.2243914 Z M28.7418535,23.5558348 C28.5498436,23.7154046 28.3569571,23.8758512 28.169331,24.031914 C28.169331,24.7561154 28.169331,25.4697957 28.169331,26.2658912 C28.2727884,26.0844025 28.3367917,25.9686705 28.4034252,25.8555689 C28.5708858,25.5714995 28.7059064,25.2549902 28.9163281,25.0130052 C29.2828126,24.591285 29.7010258,24.2221703 30.086799,23.818862 C30.1797352,23.7215419 30.2928369,23.57337 30.2884531,23.4532542 C30.2639039,22.7527253 30.2069147,22.053073 30.1639536,21.3911214 C29.7080399,22.0890201 29.2398515,22.8053307 28.7418535,23.5558348 Z M12.9996785,47.0730923 C12.6244265,46.7355408 12.2482976,46.3979893 11.8730456,46.0604378 C11.8555104,46.0770962 11.838852,46.0937546 11.8213169,46.110413 C12.1553614,47.1406026 12.4894059,48.1699155 12.8155595,49.175556 C13.4336733,49.3693193 14.0324985,49.5569454 14.6304469,49.7445714 C14.6295701,49.7472017 14.6374609,49.7261595 14.6365842,49.7051173 C14.6348306,49.6726773 14.6260631,49.6419908 14.6208025,49.6095508 C14.4419441,48.5223719 13.7940205,47.7718678 12.9996785,47.0730923 Z M24.5246515,36.7597978 C24.2405822,35.5086653 23.9565128,34.2584096 23.6584154,32.9467808 C23.519011,33.1598328 23.4155537,33.3185259 23.3120963,33.4763422 C23.266505,33.787591 23.1709384,34.0777976 23.0841395,34.3715112 C23.0481924,34.4925037 22.9894497,34.6275243 23.0087383,34.7423795 C23.0806324,35.1623462 23.1323611,35.5972178 23.2814098,35.9882515 C23.5532045,36.7028085 23.8890025,37.3901862 24.2063886,38.1064968 C24.5465704,37.7970015 24.7727738,37.4787386 24.5825175,36.9991525 C24.558845,36.9412865 24.5483239,36.8755297 24.5246515,36.7597978 Z M27.5371891,39.0981091 C27.5371891,37.9697227 27.5371891,36.8413362 27.5371891,35.6787562 C27.1505392,36.0364731 26.7928223,36.3670106 26.4447497,36.6896572 C26.7559985,38.322179 27.0672473,39.9485636 27.3776193,41.5749481 C27.5424497,40.7806061 27.5179005,39.9704825 27.5371891,39.0981091 Z M35.0457375,53.4339656 C35.0457375,53.5347926 35.0457375,53.6364965 35.0457375,53.8276295 C35.1079873,53.7004998 35.1334132,53.6575387 35.1509484,53.6110705 C35.6243972,52.3713359 36.0978461,51.1307245 36.5686647,49.8892363 C36.6063653,49.7901628 36.6405588,49.6831984 36.6466961,49.5771108 C36.6914107,48.8353742 36.7282345,48.0936377 36.7685653,47.3475173 C36.3380776,47.9954409 35.9505509,48.6863255 35.783967,49.4683929 C35.5069118,50.76424 35.2921063,52.074992 35.0457375,53.4339656 Z M25.5671158,42.2018295 C25.5390595,42.1492241 25.5110033,42.0957419 25.4829471,42.0431365 C25.4610281,42.2062133 25.4768098,42.355262 25.4943449,42.5043107 C25.562732,43.0864775 25.6828477,43.6668907 25.6898618,44.2499342 C25.7056434,45.6124149 26.1659409,46.8109419 26.7796709,47.9647544 C26.8261391,48.0515533 26.8918958,48.1269544 26.9944764,48.2724961 C26.9944764,48.0822398 27.0023672,47.9779057 26.9935997,47.8744484 C26.9409942,47.2791303 26.8857585,46.6838121 26.8278926,46.0893708 C26.8094807,45.897361 26.8147412,45.6930765 26.7524915,45.5168484 C26.3693486,44.4244089 25.9704241,43.3389835 25.5671158,42.2018295 Z M13.6309437,50.1934711 C13.481895,50.1338516 13.333723,50.0742321 13.1408364,49.9962007 C13.3319695,50.6748108 13.5038139,51.2859105 13.6747815,51.8961335 C13.7002075,51.8952567 13.7247567,51.89438 13.7501827,51.89438 C13.817693,51.746208 13.88608,51.5971593 13.9483298,51.4603852 C14.1508607,52.1004179 14.3568986,52.7492182 14.5927463,53.4935851 C14.8136891,53.0552065 14.9855335,52.7141479 15.131952,52.4221878 C14.9960546,51.8259929 14.8759389,51.2946781 14.7602069,50.7879124 C14.3656662,50.5783675 14.0202239,50.3942485 13.6309437,50.1934711 Z M34.4819826,49.8953736 C34.5034177,50.2706257 34.5248529,50.6467545 34.546288,51.0220066 C34.9126334,50.0470526 35.2419546,49.0738522 35.5644555,48.0971447 C35.5858906,48.0313879 35.5664042,47.9454657 35.5430204,47.8762019 C35.3734882,47.3966157 35.1951871,46.9205366 35.0256549,46.4409504 C34.9301712,46.1700324 34.8463795,45.8947307 34.7577161,45.6220592 C34.4322922,47.0239939 34.5092637,48.4294357 34.4819826,49.8953736 Z M23.1490195,33.8708829 C23.143759,33.8480872 23.1393752,33.8252915 23.1341146,33.8024958 C23.125347,33.8086331 23.1157027,33.8130169 23.1086887,33.8209077 C22.9640237,33.9883684 22.8377707,34.1803782 22.6703101,34.3153988 C22.5352895,34.4241167 22.3345121,34.5398486 22.1933542,34.5065318 C22.085513,34.4811059 21.9662741,34.2312301 21.9575065,34.0734138 C21.9399714,33.7770699 21.9978373,33.4754654 22.0320309,33.094076 C21.7593594,33.5026449 21.526142,33.852471 21.2718824,34.2338604 C21.4270684,34.9650758 21.587515,35.7217173 21.7584826,36.5309641 C21.8742146,36.2872256 21.9575065,36.0917088 22.0565801,35.9049595 C22.4125435,35.2386241 22.7728907,34.5749189 23.1490195,33.8708829 Z M23.4068691,48.6381039 C23.3602259,48.7047374 23.2902612,48.7678639 23.2704379,48.8388813 C23.0220631,49.7375574 22.871639,50.6371102 23.1806498,51.5506912 C23.301922,51.9092849 23.3660563,52.2810299 23.4570104,52.6466376 C23.6459152,52.2854137 23.7811803,51.9373411 23.8767987,51.5822544 C24.1473289,50.5731069 24.3385658,49.5657129 23.4068691,48.6381039 Z M28.8786276,18.5302627 C29.0136482,18.190081 29.1486688,17.8490224 29.2871964,17.4991963 C28.9943595,17.5754742 28.7523746,17.6386007 28.4244674,17.7245229 C28.4884706,17.3615454 28.5314317,17.1178069 28.5849139,16.8188327 C28.3929041,17.0432826 28.2377181,17.2247713 28.100944,17.3834644 C28.100944,18.496946 28.100944,19.572727 28.100944,20.6485081 C28.1132186,20.6520151 28.1263699,20.6546454 28.1386445,20.6581524 C28.3779992,19.9646375 28.6173539,19.2702458 28.8786276,18.5302627 Z M38.4019639,48.4978227 C38.7745857,46.9556069 39.1472075,45.413391 39.5268434,43.8422422 C39.2918725,44.185931 39.0884648,44.5480317 38.8263144,44.8522664 C38.4852559,45.2476839 38.4300202,45.7123652 38.4142385,46.2059795 C38.4063477,46.4549785 38.3896893,46.7048543 38.3712774,46.9529766 C38.3248093,47.586872 38.2748341,48.2198907 38.2266125,48.8537861 C38.2432709,48.8572932 38.2599293,48.8616769 38.2774644,48.865184 C38.3134115,48.7599731 38.3502353,48.6538855 38.4019639,48.4978227 Z M33.1199159,53.3647018 C33.2560296,53.8890025 32.7858185,54.4238244 33.1838481,55.0059912 C34.1531429,54.2186632 34.4439313,50.8624368 33.6664332,49.5543151 C33.4540133,49.8611801 33.1838481,50.1733057 33.1611625,50.4880615 C33.0931056,51.4244381 33.1261029,52.3625683 33.1199159,53.3647018 Z M18.3943654,53.1700617 C18.6907093,53.4532542 18.98793,53.7364468 19.3053161,54.0406815 C18.9642575,52.9649005 17.6140515,50.7054973 17.0783529,50.3442733 C17.4229184,51.1675483 17.3913552,52.1188298 18.0497998,52.7728907 C18.1541339,52.8938832 18.2593448,53.0157524 18.3943654,53.1700617 Z M16.4330596,53.7960663 C16.4137709,53.4085396 16.3944823,53.0201362 16.3743169,52.6326095 C16.3839612,52.6326095 16.3936055,52.6326095 16.4032498,52.6326095 C16.5873689,53.4015256 16.7706111,54.1704416 16.9573604,54.949002 C17.1695356,53.5575883 16.6434813,51.8049508 15.7562031,51.432329 C16.0727124,52.8553058 16.3865915,54.2686384 16.7013473,55.681971 C16.7653506,55.6162142 16.7986673,55.5504574 16.7872695,55.4952217 C16.6759213,54.9463717 16.5575591,54.3992752 16.4330596,53.7960663 Z M28.1544262,47.3492708 C28.1263699,48.8818424 28.2605138,49.630593 28.7199345,50.4740334 C28.8865184,50.1969781 29.0487185,49.9269369 29.2503726,49.5893854 C28.9189584,48.8081948 28.5743928,47.9954409 28.2289505,47.182687 C28.2087851,47.1914545 28.1886197,47.2002221 28.169331,47.2089897 C28.1649472,47.2396762 28.1605635,47.2703627 28.1544262,47.3492708 Z M29.4883706,52.7711372 C29.6562091,53.3419061 29.8251032,53.9135517 29.9929416,54.4843207 C29.9918861,53.8030803 29.9707743,53.1314843 29.9222173,52.4607651 C29.9042723,52.2082591 29.8219364,51.95926 29.7649346,51.6865885 C29.8937164,51.6225853 29.7480452,50.8089546 29.4271465,50.1811965 C29.2761974,50.3486571 29.1062477,50.5047199 28.982744,50.6862086 C28.9162419,50.7852822 28.8803519,50.9378379 28.9141307,51.0465558 C29.0883027,51.6068036 29.2888645,52.1609142 29.4883706,52.7711372 Z M21.3253646,31.0319432 C21.5883917,30.584797 21.8505421,30.1376509 22.0942806,29.7238215 C21.9917,29.3713651 21.9057778,29.0750212 21.8259929,28.8041032 C21.5086068,29.4809598 21.2184002,30.1683374 20.8676973,30.8188912 C20.69936,31.1310167 20.6213286,31.4238536 20.6748108,31.7675424 C20.7168951,32.0349534 20.7598562,32.3023643 20.7905427,32.4952509 C20.9492358,32.0524885 21.1245872,31.5623813 21.3253646,31.0319432 Z M24.9718372,45.3642926 C24.7568201,45.1293217 24.542991,44.8943508 24.345793,44.6786685 C24.5370513,45.8991145 24.7306855,47.1292048 24.9243196,48.3601718 C24.8958091,48.3689394 24.8672985,48.3785837 24.838788,48.3873513 C25.0193548,48.4995762 25.1987336,48.6126779 25.4375095,48.7617266 C25.3959316,48.0331414 25.388804,47.3799573 25.3127758,46.731157 C25.2593186,46.2866411 25.1096382,45.8491393 24.9718372,45.3642926 Z M39.8871906,44.409504 C39.690797,45.3625391 39.4952801,46.3155741 39.2988865,47.2677324 C39.3234357,47.272993 39.3479849,47.2773767 39.3725341,47.2826373 C39.9178771,45.6702809 40.4640968,44.0570477 41.0094398,42.4446912 C40.5359909,42.9847737 40.1072566,43.7194962 39.8871906,44.409504 Z M21.9548762,47.0836134 C21.7093842,46.8442587 21.4638922,46.604904 21.3262413,46.4707601 C21.5410468,47.4036298 21.7909226,48.4873016 22.013619,49.4526113 C22.1284742,48.9177894 22.2722623,48.2461934 22.4274483,47.5193617 C22.2801531,47.3843411 22.1328579,47.2501973 21.9548762,47.0836134 Z M26.9048246,49.7910395 C26.5506492,49.02037 26.1955008,48.2497004 25.905544,47.619312 C25.9473834,48.0690885 26.0602525,48.6854488 26.0485764,49.3000555 C26.0359273,50.0049683 26.5185399,50.3793436 26.9972605,50.9001374 C26.9661242,50.4854312 26.942772,50.1645381 26.9048246,49.7910395 Z M17.5588158,36.4546863 C17.7183856,36.9255049 17.8788322,37.3954467 18.038402,37.8662653 C18.067335,37.8574977 18.0971447,37.8487302 18.1260777,37.8399626 C17.9042581,36.7808399 17.6833153,35.7217173 17.4685098,34.6967881 C17.2028524,34.5249437 16.9819096,34.3811556 16.76009,34.2373674 C16.7416781,34.2487652 16.7223895,34.2601631 16.7039776,34.2715609 C16.9827863,34.9834877 17.2607184,35.6962913 17.5588158,36.4546863 Z M22.3713359,38.5045445 C22.3976386,38.9227577 22.4248181,39.3409709 22.4572581,39.8468597 C22.9526259,39.2831049 23.3682088,38.8114095 23.7925593,38.3283163 C23.6663062,38.0354794 23.5382997,37.7365052 23.4094164,37.4384078 C23.389251,37.6821463 23.457638,37.9171172 23.4181839,38.1301692 C23.3857439,38.3020136 23.2507233,38.5264635 23.1113189,38.5790689 C22.9912032,38.6246603 22.7869188,38.4817488 22.6492679,38.3791682 C22.5642225,38.3160417 22.5326592,38.1705 22.4633954,38.0328492 C22.4309554,38.1968028 22.4055294,38.3239325 22.3713359,38.5045445 Z M33.9078153,48.1558874 C33.5070541,48.807318 34.0074396,49.5236286 34.4014082,50.2811468 C35.0104747,49.1641582 34.7433006,48.0199901 34.8519816,46.8802057 C34.5508446,47.2878978 34.2497077,47.6955899 33.9078153,48.1558874 Z M22.013619,31.4343747 C21.6550253,31.9867317 21.3516673,32.5627612 21.2762662,33.2755648 C21.7321799,32.6179969 22.1661747,31.9937458 22.5966625,31.3738785 C22.569483,31.1722243 22.5431803,30.9767075 22.5028495,30.6847473 C22.3090861,30.9723237 22.1679282,31.1801151 22.013619,31.4343747 Z M18.1532572,53.6899787 C18.1383523,53.6908554 18.1216939,53.6899787 18.1076658,53.6943625 C18.103282,53.696116 18.099775,53.7145279 18.1024052,53.7241722 C18.1821901,54.0362977 18.261975,54.3484233 18.3443902,54.6587953 C18.4452173,55.0375544 18.5477979,55.4163135 18.6503785,55.7950726 C18.6854488,55.7941959 18.7196423,55.7941959 18.7547126,55.7933191 C18.7634801,55.6258585 18.7722477,55.4592746 18.781892,55.2760324 C18.8301137,55.3742292 18.8695678,55.4566444 18.926557,55.5732531 C19.0221235,55.3917643 19.0948944,55.2514832 19.2053658,55.0401847 C18.8730748,54.6079434 18.529386,54.1643043 18.1532572,53.6899787 Z M25.6128034,41.2102171 C25.7898869,41.2102171 25.9669704,41.2102171 26.2405247,41.2102171 C25.9273249,40.2861151 25.6418769,39.4409212 25.3551073,38.5957273 C25.0868391,39.0691761 25.1066618,39.5250899 25.2639226,39.9862641 C25.3973959,40.3737908 25.4912237,40.7674548 25.6128034,41.2102171 Z M23.3318596,40.2782243 C23.4796073,39.9511939 23.627355,39.6241634 23.803551,39.2366368 C23.2244902,39.4295233 22.9143118,39.8617646 22.7408689,40.2922524 C22.6316641,40.5640471 22.8601682,40.976123 22.937254,41.3259491 C22.9583608,41.318935 22.9794676,41.3127977 23.0005744,41.3057837 C23.1042731,40.9787533 23.2088895,40.6517228 23.3318596,40.2782243 Z M29.6852442,49.5227518 C29.8566841,49.9681445 30.028124,50.4135371 30.2011813,50.8589298 C30.2626409,50.8598065 30.3241005,50.8598065 30.3871774,50.8606833 C30.5165661,50.0496829 30.647572,49.2386825 30.7769607,48.4268054 C30.7235879,48.4215448 30.6718324,48.4162843 30.6184596,48.410147 C30.3095443,48.7634801 30.0022463,49.1168133 29.6852442,49.5227518 Z M37.6398836,41.2496712 C37.6126231,41.557413 37.5866608,41.8651547 37.5594003,42.1737733 C37.5840645,42.1764035 37.6100269,42.1799106 37.6346911,42.1825408 C37.9722015,41.1900517 38.309712,40.1984394 38.6511168,39.1971827 C38.0760509,39.5592834 37.6645478,40.1624923 37.6476723,40.6639974 C37.6424798,40.8375953 37.6437779,41.01207 37.6398836,41.2496712 Z M27.7600392,54.529912 C27.7099326,53.6233451 27.3728519,52.7649999 26.6683228,51.9803022 C26.9325212,52.9982173 27.1967196,54.0213929 27.460918,55.0445685 C27.5064695,55.0454452 27.5505026,55.046322 27.596054,55.0471988 C27.6507158,54.8937663 27.7053775,54.7403338 27.7600392,54.529912 Z M28.4326458,6.65546366 C28.4869185,6.56603443 28.5411912,6.47748195 28.6017261,6.37753164 C28.4597821,6.39945057 28.3585426,6.41523219 28.2395601,6.43452085 C28.1581511,6.28897916 28.0850917,6.1592191 28.0120322,6.02858228 C27.9786336,6.02069147 27.945235,6.0119239 27.9118365,6.00403308 C27.863826,6.15132829 27.7980725,6.29686998 27.7719799,6.44767221 C27.7312753,6.6791361 27.7312753,6.91586054 27.686396,7.14644767 C27.6477788,7.34108776 27.5705446,7.52959055 27.5100096,7.72072362 C27.5465394,7.73299822 27.5841128,7.74439606 27.6206425,7.75667066 C27.8867875,7.40333752 28.1539762,7.05088114 28.4326458,6.65546366 Z M32.0365525,51.6699302 C31.8089742,52.2135196 31.5813958,52.7562323 31.3554666,53.2954379 C31.5187293,53.4313353 31.66715,53.5549581 31.8980266,53.7487214 C32.0959208,52.8623199 32.2707274,52.0706082 32.4471831,51.2788965 C32.3977095,51.2745127 32.3482359,51.2701289 32.3004115,51.2666219 C32.2146573,51.3832306 32.1289032,51.500716 32.0365525,51.6699302 Z M35.5968611,54.1704416 C35.4435475,54.6929889 35.2902339,55.2146594 35.1369202,55.7363299 C35.1801362,55.750358 35.224381,55.7643861 35.267597,55.7784142 C35.5876006,55.1269837 35.9086331,54.4746763 36.2286367,53.8232458 C36.1771892,53.7908057 36.1257417,53.7592425 36.0742941,53.7268025 C35.9209805,53.8591928 35.7676669,53.9907064 35.5968611,54.1704416 Z M14.1749775,54.4930882 C14.0337317,54.0380513 13.8924859,53.5830143 13.7468262,53.1165795 C12.7978311,53.5058597 12.9192142,54.1511529 13.7777237,54.7517316 C13.8991068,54.6710699 14.0028342,54.6018061 14.1749775,54.4930882 Z M21.8178441,40.4754946 C21.780885,40.5649239 21.7453474,40.6534763 21.7041237,40.7534267 C22.0495496,40.8945846 22.3651239,41.0234679 22.7958402,41.1988193 C22.5996724,40.6701347 22.4319347,40.214221 22.2343454,39.6802759 C22.0751367,39.9915247 21.9628377,40.210714 21.8178441,40.4754946 Z M23.6816703,53.7294327 C23.5365688,54.1643043 23.3931946,54.6000526 23.2480931,55.0349242 C24.0167858,53.9381009 24.3346273,52.7991934 24.3398095,51.6304761 C24.1307942,52.3125932 23.9217789,52.9938335 23.6816703,53.7294327 Z M27.0980697,53.5163807 C27.4984649,52.6773241 27.1566641,51.8645702 26.1703247,51.4875647 C26.333087,52.2740158 26.4893388,53.0271502 26.6423353,53.7802847 C26.7106955,53.7802847 26.7758004,53.7794079 26.8441605,53.7794079 C26.9060102,53.7075138 26.9646046,53.6356197 27.0980697,53.5163807 Z M29.0536348,53.6847181 C29.2369354,54.2291843 29.4188881,54.7736505 29.6021887,55.3181167 C29.6372314,55.3128562 29.6722742,55.3067189 29.7073169,55.3014583 C29.4040623,54.2116492 29.1008078,53.1209633 28.7975532,52.0311541 C28.7369023,52.0390449 28.6762513,52.0478125 28.6156004,52.0557033 C28.758467,52.5808808 28.9026814,53.1051816 29.0536348,53.6847181 Z M33.9480375,51.86194 C33.9480375,52.1617909 33.9480375,52.4616419 33.9480375,52.7614928 C35.3113012,52.1223369 35.4009896,51.1587807 34.199165,50.6870854 C34.1184455,51.0570769 34.0332415,51.4279452 33.9480375,51.86194 Z M34.0022195,54.2046351 C33.7937124,54.775404 33.5822686,55.3452962 33.3737616,55.9160651 C33.4677366,55.9186954 33.5587749,55.9213257 33.6527499,55.9248327 C34.9096656,55.078762 34.3017648,54.1748254 34.4192336,53.2928077 C34.331132,53.2901774 34.2459671,53.2875471 34.1578656,53.2849169 C34.1079413,53.5707397 34.0550804,53.8574393 34.0022195,54.2046351 Z M12.138703,13.2267586 C12.355262,13.6467253 12.8190665,14.1184207 13.1864278,14.2350294 C12.7313908,13.6309437 12.3219452,13.0864775 11.8747991,12.4929129 C11.9747494,12.7638308 12.0510273,12.9716223 12.138703,13.2267586 Z M40.4368177,52.685215 C40.4045184,52.7913026 40.3722191,52.8982669 40.33346,53.0262735 C40.686599,52.6247187 41.0472746,52.2678785 41.3272019,51.8698308 C41.4456327,51.7014934 41.3982604,51.4446036 41.4251765,51.2280445 C41.3907239,51.226291 41.3562713,51.2236608 41.3218187,51.2219072 C41.0343549,51.6953561 40.7468911,52.1679282 40.4368177,52.685215 Z M24.2142778,41.6898033 C24.1575863,41.896718 24.1025145,42.1027559 24.0231464,42.3938393 C24.4523821,42.0799603 24.7811928,41.838852 25.1148629,41.5942368 C25.0516923,41.3601426 24.9885218,41.1269252 24.9010549,40.8051553 C24.646753,41.1391998 24.4556216,41.3925826 24.2142778,41.6898033 Z M14.2622463,15.6660879 C14.1043076,15.4577227 13.946369,15.2493574 13.8189097,15.0811 C13.6554293,15.1593593 13.5325881,15.2170755 13.3801911,15.2894653 C13.7126936,15.5839157 14.0470433,15.8783661 14.3804694,16.1728165 C14.4109488,16.1375999 14.4414282,16.1023832 14.4719076,16.0671665 C14.4118724,15.9458647 14.3518373,15.8265194 14.2622463,15.6660879 Z M21.0618931,46.3515212 C20.8225241,45.8736885 20.5815378,45.3958559 20.3421689,44.9180232 C20.2499795,44.9338048 20.1594074,44.9487097 20.067218,44.9644913 C20.3567251,45.5738376 20.6462321,46.182307 20.9357392,46.7916533 C21.0101376,46.7828857 21.0845361,46.7741181 21.1589345,46.7653506 C21.1314394,46.6443581 21.1039444,46.5233656 21.0618931,46.3515212 Z M25.5193886,54.2712687 C25.706882,54.4790601 25.895705,54.6868516 26.0831984,54.8937663 C26.1377177,54.8736008 26.192237,54.8543122 26.2467564,54.8341468 C25.9502244,54.3300114 25.6536924,53.8267528 25.3571604,53.3226174 C25.2893436,53.3392758 25.2228566,53.3550574 25.1550399,53.3717158 C25.266738,53.6557851 25.3784362,53.9407312 25.5193886,54.2712687 Z M44.1703962,53.3322617 C44.1560013,53.2831633 44.1392072,53.2349417 44.1248123,53.1858433 C44.0624344,53.1840898 44.0000564,53.1823363 43.9352793,53.1805828 C43.7649396,53.6356197 43.596999,54.0897799 43.4266593,54.5448169 C43.5082304,54.5492007 43.5898016,54.5535845 43.6713727,54.558845 C44.6718188,54.1064383 44.7150035,54.0108718 44.1703962,53.3322617 Z M42.240311,54.4913347 C42.1359891,54.6342461 42.0316672,54.7771576 41.9203904,54.9323436 C42.0919421,55.0244031 42.2797215,55.1234766 42.5857325,55.2865535 C42.7572842,54.8052138 43.3113495,54.4115498 42.8013312,53.9047842 C42.5880508,54.1283572 42.4373636,54.2861735 42.240311,54.4913347 Z M39.5623043,17.3529717 C39.4564592,17.6355543 39.3521262,17.9181368 39.2462811,18.2007194 C39.3082761,18.2138832 39.368759,18.227047 39.430754,18.2393332 C39.7331685,17.9040955 40.035583,17.5688578 40.3379976,17.2336201 C40.2865871,17.2046597 40.2366887,17.176577 40.1852782,17.1476167 C39.993245,17.2029046 39.8027238,17.2573149 39.5623043,17.3529717 Z M13.1580922,54.248473 C12.909546,54.0003507 12.6609999,53.7531052 12.3670205,53.4593915 C11.720266,53.9933366 12.2013231,54.4045358 13.0111025,54.86571 C13.0859336,54.6351229 13.1393844,54.468539 13.1580922,54.248473 Z M44.6289218,54.8034603 C44.6708628,54.6026829 44.7128038,54.4019055 44.7730941,54.1204664 C43.4257386,54.920069 43.3969041,55.0051144 44.2960149,55.4855773 C44.413974,55.2541135 44.513584,55.0568431 44.6289218,54.8034603 Z M36.613848,52.3739662 C36.2972172,52.7913026 35.9822356,53.208639 35.6656048,53.6259754 C35.9640953,53.5952889 36.2955681,53.544437 36.3433925,53.4479937 C36.5297429,53.0683578 36.6270409,52.6738171 36.7573213,52.2854137 C36.7309354,52.2924277 36.7029004,52.2976883 36.6814618,52.3082094 C36.6682689,52.3143467 36.6649707,52.327498 36.613848,52.3739662 Z M39.3887334,53.0832627 C39.5212028,52.7097642 39.6569031,52.3362656 39.821682,51.8715843 C38.5745315,52.5273987 38.3871358,53.1972411 39.3047284,53.3270012 C39.3305761,53.2594909 39.3531928,53.1963644 39.3887334,53.0832627 Z M29.7184262,55.0252798 C29.6438837,54.8928895 29.5740002,54.7604992 29.4994578,54.6281088 C29.1500402,55.1094485 28.1949654,55.5802671 28.8518705,56.057223 C29.0615211,56.0589765 29.2711716,56.06073 29.4808222,56.0633603 C29.5646824,55.7363299 29.6485426,55.4101762 29.7184262,55.0252798 Z M41.5924833,52.4423532 C41.6932571,52.5764971 41.7940309,52.7097642 41.9643867,52.934214 C42.2955007,52.685215 42.494649,52.5352895 42.6841997,52.3923781 C42.4610577,52.197738 42.2643088,52.0267703 41.9859811,51.7830318 C41.832421,52.0372914 41.7268484,52.2135196 41.5924833,52.4423532 Z M24.0723986,52.9903264 C23.8135865,52.6904755 23.5547744,52.3906245 23.2959623,52.0916503 C23.1924375,52.0942806 23.0889126,52.0960341 22.9806821,52.0986644 C23.1218524,52.7009966 23.2677283,53.3033288 23.4088985,53.9056609 C23.5406574,53.9065377 23.6771219,53.9082912 23.8088808,53.909168 C23.9029943,53.6233451 23.9971078,53.3375223 24.0723986,52.9903264 Z M15.2669726,54.194114 C15.5368002,54.4755531 15.8035264,54.7569921 16.073354,55.0375544 C16.1694995,55.0296636 16.2625436,55.0226496 16.358689,55.0147587 C16.126079,54.5193909 15.8965704,54.0240231 15.6639604,53.5286553 C15.5771193,53.5295321 15.4902782,53.5304089 15.4003357,53.5312856 C15.3476107,53.7338165 15.2979872,53.9354707 15.2669726,54.194114 Z M23.5622605,46.269106 C23.3944597,46.5023234 23.2286805,46.7346641 23.0709881,46.9538533 C23.4611757,47.1520005 23.7502784,47.2984189 24.1627046,47.5070871 C23.9423396,47.0424058 23.7704953,46.6767981 23.5622605,46.269106 Z M26.4010656,55.4101762 C26.1251699,55.0936669 25.8492742,54.7771576 25.5733784,54.4597715 C25.4843798,54.4659088 25.3983478,54.4720461 25.3093492,54.4773066 C25.5229459,54.9288365 25.7335759,55.3803665 25.9471726,55.8327732 C26.0836372,55.8301429 26.2201018,55.8266359 26.3595329,55.8240056 C26.3773327,55.7038899 26.398099,55.5837741 26.4010656,55.4101762 Z M20.8933929,42.5963702 C20.8856191,42.5858491 20.8856191,42.5735745 20.8622974,42.564807 C20.8467497,42.5586697 20.7767848,42.5525324 20.7728978,42.5542859 C19.5640596,42.8874536 19.47466,43.3994798 20.5552292,43.8045416 C20.6640635,43.4178917 20.7767848,43.030365 20.8933929,42.5963702 Z M15.0668708,53.2481807 C14.5982759,53.5848088 14.5982759,53.5848088 14.8986573,53.9242266 C15.2162033,53.5504021 15.49942,53.2165637 15.7826367,52.8827254 C15.7277098,52.865987 15.6744994,52.8492486 15.6195725,52.8325102 C15.451359,52.9580483 15.2831454,53.0826564 15.0668708,53.2481807 Z M41.0707267,52.7150247 C40.4992975,53.1498963 40.4992975,53.1498963 40.975865,53.511997 C41.2468986,53.1121957 41.484053,52.7597393 41.7212075,52.4081597 C41.6760352,52.4002689 41.6308629,52.3923781 41.5856906,52.3844872 C41.4275877,52.479177 41.2649675,52.5747435 41.0707267,52.7150247 Z M11.8248239,55.0998042 C11.9100157,55.38212 11.9920522,55.6644358 12.0961754,56.0142619 C12.4621844,55.8748575 12.6735862,55.7941959 12.9165404,55.7021364 C12.6294127,55.41456 12.3422849,55.1278604 12.0551572,54.8420376 C11.9794312,54.8481749 11.9037052,54.8534354 11.8279792,54.8595727 C11.8248239,54.9218225 11.8248239,54.984949 11.8248239,55.0998042 Z M11.5452977,12.7824591 C11.467489,12.5559687 11.3908773,12.3294782 11.322645,12.1290587 C11.0964011,12.2300832 10.8929014,12.3213311 10.5780752,12.4630913 C10.9910601,12.7498706 11.3094774,12.9698433 11.6697917,13.2207751 C11.6278947,13.0301321 11.6063477,12.9356253 11.5452977,12.7824591 Z M43.425575,55.1787123 C43.8064997,54.9034106 43.724873,54.6500278 42.5367507,54.3975217 C42.5367507,54.8087208 42.5367507,55.169068 42.5367507,55.5294152 C42.604773,55.5329222 42.6682604,55.5364293 42.7362827,55.5399363 C42.953954,55.4364789 43.1716252,55.3330216 43.425575,55.1787123 Z M41.7840152,55.4452465 C41.7840152,55.2935675 41.7840152,55.1427653 41.7840152,54.9910863 C40.8111921,55.3251308 40.2067998,55.6582985 41.204461,56.1063214 C41.4404224,55.8538154 41.6018696,55.6775872 41.7840152,55.4452465 Z M41.4236176,13.2596003 C41.3142541,13.5989972 41.2048906,13.938394 41.0936084,14.2789693 C41.1530868,14.2907539 41.2125652,14.303717 41.2720436,14.3155016 C41.5598424,13.9737478 41.8476411,13.6308156 42.1853249,13.2313172 C41.8533971,13.2207111 41.6807178,13.2148188 41.4236176,13.2596003 Z M42.3257511,53.3679144 C42.349145,53.4186696 42.372539,53.4694248 42.4323234,53.60158 C42.6974546,53.3602532 42.8820066,53.1936228 43.0743567,53.0183736 C42.9157979,52.8651502 42.757239,52.7138421 42.5466937,52.5098635 C42.3179531,52.7253339 42.156795,52.8756843 41.9826402,53.0394418 C42.0762159,53.1237146 42.1827882,53.2204369 42.3257511,53.3679144 Z M11.6706685,57.0435748 C11.5489689,56.8129877 11.4308488,56.5824006 11.298411,56.3298945 C11.0406944,56.8164947 10.8116129,57.2575036 10.578952,57.6976357 C10.6183254,57.7020195 10.6576987,57.70728 10.6934927,57.7116638 C11.0084798,57.5065026 11.3198874,57.3004647 11.6706685,57.0435748 Z M27.4321647,5.11427836 C27.6386051,4.77239263 27.8418695,4.43166583 28.0864219,4.02256188 C26.8541315,4.24971308 26.7080353,4.54176463 27.4321647,5.11427836 Z M39.8918419,55.1208464 C39.6894511,55.3908876 39.4837423,55.6609288 39.2813514,55.93097 C39.9913785,55.5522109 40.6416836,55.1699448 40.260127,54.7192916 C40.1506369,54.8359003 40.0444646,54.9516322 39.8918419,55.1208464 Z M38.6076723,54.5360493 C38.6076723,54.6850981 38.6076723,54.8350235 38.6076723,55.0112517 C39.9913695,54.6587953 40.1183755,54.0345442 38.6009878,53.8337668 C38.6009878,54.0757518 38.6009878,54.2756525 38.6076723,54.5360493 Z M31.6763354,54.906585 C31.7553776,54.6264498 32.6499914,54.3445131 31.9565759,54.0652787 C31.8308269,54.064378 31.705078,54.064378 31.5793291,54.0634772 C31.4284304,54.4237797 31.2775317,54.7831814 31.126633,55.1434839 C31.1733397,55.1470869 31.2200464,55.1506899 31.2667532,55.1551937 C31.3781308,55.0867362 31.4895084,55.0191795 31.6763354,54.906585 Z M17.3694362,55.7852994 C17.4952887,55.9119422 17.616107,56.0376607 17.7923004,56.2160699 C19.4887912,55.812107 17.4046749,55.4728522 17.5556978,55.1243534 C17.4751523,55.3258726 17.3946067,55.5273918 17.3694362,55.7852994 Z M14.7572997,53.7215419 C14.8028631,53.7390771 14.8509578,53.7566122 14.8965211,53.7741474 C14.904115,53.7636263 14.9268967,53.7522284 14.9218341,53.7434609 C14.6459226,53.2998217 14.370011,52.8570594 14.0940994,52.414297 C14.0055039,52.4221878 13.9194398,52.4309554 13.8308443,52.4388462 C14.1194124,52.8535523 14.4105118,53.2673817 14.7572997,53.7215419 Z M40.0730631,15.1535048 C40.1602801,15.3036999 40.2474971,15.4550158 40.3347142,15.6052109 C40.3978713,15.6074526 40.4610285,15.6085735 40.5211781,15.6108152 C40.7347094,15.2622281 40.9512483,14.9125201 41.1647796,14.563933 C41.0474877,14.5493619 40.9301959,14.5347907 40.8159115,14.5190987 C40.5723053,14.7096447 40.3256917,14.8990698 40.0730631,15.1535048 Z M45.4572289,55.5576916 C45.4780015,55.5972245 45.496466,55.6367574 45.5172386,55.6762903 C45.5910968,55.6823723 45.662647,55.6874406 45.7365052,55.6935226 C46.0065492,55.3468494 46.2765932,54.9991625 46.5489453,54.6524893 C46.4612387,54.635257 46.3735321,54.6190384 46.2858255,54.6018061 C46.0111653,54.9008371 45.7365052,55.1998681 45.4572289,55.5576916 Z M45.3490599,55.9178092 C45.3979089,55.8334493 45.446758,55.7490894 45.5261378,55.6170909 C44.3049109,55.8929974 44.3629192,56.2552488 44.5125194,56.7088074 C44.8178262,56.4160289 45.0529123,56.1927232 45.3490599,55.9178092 Z M43.5675704,55.8307083 C43.1470431,56.0832621 42.7860243,56.3358159 43.4168153,56.6658463 C43.9365237,56.2915435 44.6307906,55.9846555 43.7381617,55.5741298 C43.6865876,55.6838046 43.6667514,55.7321017 43.5675704,55.8307083 Z M43.9977779,55.0436917 C43.7736719,55.1972144 43.5495659,55.350737 43.3766841,55.4688313 C43.6584174,55.7351996 43.8729189,55.93596 44.0842188,56.1354082 C44.2122794,56.1235988 44.34034,56.1131015 44.4684006,56.1012921 C44.333937,55.7680036 44.2026749,55.433403 43.9977779,55.0436917 Z M26.6192115,42.0703159 C26.507501,41.9624748 26.3957904,41.8555104 26.2840799,41.7476693 C26.2333024,41.7538066 26.1825249,41.7599439 26.1317474,41.7660812 C26.4262569,42.1720198 26.7207665,42.5779583 27.0152761,42.9838969 C27.0838257,42.9768828 27.1549142,42.9698688 27.2234639,42.9628547 C27.0305093,42.6822924 26.832477,42.4017301 26.6192115,42.0703159 Z M15.8067678,55.6441987 C15.6847883,55.5480904 15.5628088,55.4510489 15.4377798,55.3549405 C15.3584931,55.3633383 15.2792065,55.3708031 15.2029693,55.3792009 C15.4530272,55.7347086 15.7030852,56.0911493 15.9531432,56.446657 C16.0659742,56.4401254 16.1818547,56.4326606 16.2946858,56.426129 C16.1361124,56.1825923 15.9805886,55.9399886 15.8067678,55.6441987 Z M12.4311049,56.5071817 C12.2933154,56.7408229 12.155526,56.9744641 12.0142035,57.2081054 C12.2155881,57.224794 12.4205057,57.240092 12.6218903,57.2567806 C12.7844112,56.9035373 12.943399,56.5489033 13.1059199,56.19566 C12.9928619,56.185925 12.8798039,56.1747992 12.7632128,56.1650641 C12.6678201,56.2554611 12.5724274,56.3472487 12.4311049,56.5071817 Z M24.7396023,43.1251702 C25.0372261,43.3303442 25.3388719,43.5355181 25.6364958,43.7406921 C25.7008469,43.7378292 25.7611761,43.7340121 25.8255272,43.7311492 C25.6043202,43.3704247 25.3790914,43.0097002 25.1578845,42.6489757 C25.0332042,42.64993 24.9125459,42.6508843 24.7878656,42.6518385 C24.7556901,42.7930746 24.7194926,42.9343106 24.7396023,43.1251702 Z M40.3509951,53.9527773 C40.4789306,54.1208442 40.6026017,54.2889111 40.7305372,54.4555415 C40.8840598,54.4469227 41.041847,54.4383039 41.1953696,54.429685 C41.2763954,54.0849325 41.3616858,53.7401799 41.4427116,53.3954273 C41.3147761,53.385372 41.1911051,53.3753168 41.0631695,53.363825 C40.8584727,53.5390742 40.6580404,53.712887 40.3509951,53.9527773 Z M25.274025,49.8480449 C25.1513938,49.768972 25.0257716,49.6886237 24.9031405,49.6095508 C24.8612664,49.6184784 24.8164013,49.627406 24.7745273,49.6363336 C25.0108166,49.9908864 25.2500969,50.3467145 25.4863862,50.7012673 C25.6120084,50.6859629 25.7376306,50.669383 25.8662438,50.6540786 C25.6987475,50.4015554 25.5312513,50.1503076 25.274025,49.8480449 Z M13.577267,54.9286996 C13.4205078,54.8756608 13.269347,54.8211486 13.1069892,54.7666365 C12.9222372,54.989105 12.7542808,55.1953672 12.5639302,55.4281489 C12.776675,55.5577994 13.023011,55.7080762 13.269347,55.8583529 C13.3981136,55.8524597 13.5268801,55.8465665 13.6556467,55.8392 C13.6556467,55.560746 13.6556467,55.2808187 13.577267,54.9286996 Z M16.0570976,54.1051283 C16.0146585,54.0929981 15.9722194,54.0808679 15.9297803,54.0687378 C15.8873412,54.0760159 15.826714,54.082081 15.8085258,54.0917851 C15.1658769,54.4423474 14.1837153,54.7892706 16.0631603,55.1604542 C16.0631603,54.8280872 16.0631603,54.4945072 16.0570976,54.1051283 Z M14.2006257,54.5845385 C14.463997,54.8486968 14.7231204,55.112855 14.9864917,55.3770133 C15.0756981,55.3708221 15.1691524,55.363599 15.2583588,55.3574078 C14.9907396,55.0003814 14.7231204,54.643355 14.4555011,54.2852968 C14.3577989,54.2904561 14.2643446,54.2945836 14.1666423,54.2997429 C14.1666423,54.3750693 14.1666423,54.4493638 14.2006257,54.5845385 Z M41.1769004,55.0479561 C41.3351993,55.1977705 41.4934982,55.3490682 41.651797,55.4988825 C41.7937202,55.4988825 41.9411019,55.4973992 42.083025,55.4973992 C42.1430695,55.1399214 42.2085724,54.7824436 42.2686169,54.4234824 C42.0284392,54.4175492 41.7937202,54.411616 41.5535426,54.407166 C41.4279952,54.5925798 41.3024478,54.7779936 41.1769004,55.0479561 Z" id="形状"></path>
                        <path d="M35.5823129,19.7436947 C35.5691615,19.6805681 35.5612707,19.6393606 35.5533799,19.598153 C35.567408,19.5867551 35.5823129,19.5753573 35.596341,19.5639594 C35.7392524,19.7270363 35.8865476,19.8866061 36.0233217,20.0549434 C36.733495,20.9308239 37.3217991,21.890873 37.766315,22.9491189 C37.9662156,23.4243212 37.9986556,23.9047842 37.8531139,24.4019055 C37.5260835,24.4562644 37.5190695,24.1625508 37.398077,23.9845691 C37.3454715,24.0783821 37.2911126,24.1739486 37.1946693,24.3466698 C37.0754303,24.2361984 36.9281351,24.1643043 36.8842973,24.0476956 C36.6423123,23.4085396 36.4020808,22.7667534 36.2056872,22.1100622 C35.9751001,21.3367624 35.7909811,20.547681 35.5823129,19.7436947 Z" id="路径"></path>
                        <path d="M9.79776135,55.0296636 C9.89157436,55.7003829 10.0081831,56.3395388 10.066049,56.9848321 C10.0967355,57.3276442 10.0230879,57.681854 9.99678522,58.0351872 C9.80740568,58.0351872 9.6758921,58.0351872 9.51982932,58.0351872 C9.46810065,57.3557004 9.41286495,56.6762136 9.36639682,55.9976035 C9.28398165,54.8052138 9.22611567,53.6101938 9.11652103,52.4195575 C9.07531344,51.9732881 8.92100418,51.5384166 8.81228629,51.0719818 C9.09547886,51.5094836 9.73551159,54.0897799 9.79776135,55.0296636 Z" id="路径"></path>
                        <path d="M46.8021744,55.6092001 C46.7811322,56.0879095 46.7574597,56.5394395 46.7355408,56.9506386 C46.9231668,56.1606804 47.1204372,55.3295146 47.3177076,54.4992255 C47.3352427,54.5027326 47.3527779,54.5071163 47.3711898,54.5106234 C47.2124967,55.6758336 47.0538037,56.8401672 46.8933571,58.0246661 C46.6645235,58.0246661 46.4541018,58.0246661 46.2612152,58.0246661 C46.424292,57.1216062 46.5882456,56.2150393 46.7451851,55.3514335 C46.7548295,55.3961481 46.7776252,55.4890844 46.8021744,55.6092001 Z" id="路径"></path>
                        <path d="M47.9712833,56.5429465 C47.8169771,57.0497121 47.6678144,57.5292983 47.5186517,58.0097612 C47.3244831,58.0097612 47.212611,58.0097612 47.0827367,58.0097612 C47.4337833,57.1067013 47.7758287,56.2246836 48.1178742,55.3435427 C48.1371625,55.3435427 48.1551649,55.3435427 48.1744531,55.3426659 C48.108873,55.7336996 48.0432928,56.1247333 47.9712833,56.5429465 Z" id="路径"></path>
                        <path d="M8.99286462,54.3799866 C9.24840119,55.6004325 9.49992411,56.7928223 9.75144702,57.985212 C9.69659362,57.9913493 9.64174022,57.9966099 9.58554893,58.0027472 C9.27649684,56.5447 8.96878263,55.0866528 8.65973054,53.6277289 C8.69852929,53.6224684 8.73866593,53.6180846 8.77746467,53.612824 C8.84837273,53.8591928 8.91928078,54.1055616 8.99286462,54.3799866 Z" id="路径"></path>
                    </g>
                </g>
            </g>
        </g>
    </g>
</svg>
