<?xml version="1.0" encoding="UTF-8"?>
<svg width="52px" height="61px" viewBox="0 0 52 61" version="1.1" xmlns="http://www.w3.org/2000/svg" xmlns:xlink="http://www.w3.org/1999/xlink">
    <title>grass-leaf-plant-17-svgrepo-com</title>
    <defs>
        <rect id="path-1" x="0" y="0" width="50.8729579" height="60"></rect>
    </defs>
    <g id="页面-1" stroke="none" stroke-width="1" fill="none" fill-rule="evenodd">
        <g id="形状库素材-植物" transform="translate(-398.000000, -236.000000)">
            <g id="grass-leaf-plant-17-svgrepo-com" transform="translate(398.959609, 236.821397)">
                <mask id="mask-2" fill="white">
                    <use xlink:href="#path-1"></use>
                </mask>
                <g id="SVGID_17_"></g>
                <path d="M43.5818453,43.0514072 C43.6002572,43.1373294 43.6511091,43.2355262 43.633574,43.3074203 C43.4775112,43.9395622 43.308297,44.5664436 43.1303153,45.2450536 C43.7852529,44.6216793 44.4112576,44.0263612 45.0469065,43.4213987 C45.2696028,42.1088932 45.4107607,40.7586872 45.8324809,39.5277201 C45.1310752,44.6558728 44.4270392,49.8085747 43.7177426,55.0007306 C43.9991817,55.0007306 44.2122337,55.0007306 44.46737,55.0007306 C45.0258643,51.7795248 45.778122,48.6135547 47.0029517,45.6457317 C46.0955081,48.7082444 45.254698,51.7926762 44.8312242,55.0796388 C45.1512406,55.1287372 45.4414472,55.172575 45.7649706,55.2225502 C46.207733,53.5681094 46.5251191,51.8593097 47.2230178,50.2355554 C46.8083117,51.9531227 46.4137709,53.5865213 46.0165999,55.2321945 C47.0713388,55.5241547 48.0831166,55.804717 49.0940176,56.0844025 C49.0913873,56.1071982 49.0896338,56.1299939 49.0870035,56.1536663 C48.8292369,56.1291171 48.5697168,56.1133355 48.312827,56.0800187 C46.6618932,55.8678435 45.0048222,55.7529883 43.3468744,55.8397872 C42.1904317,55.9002835 41.0331122,56.0221527 39.8854371,56.2097788 C37.8618815,56.5403162 35.8488471,56.9602829 33.827045,57.306602 C32.2506356,57.5775199 30.6724727,57.8370401 29.0890493,58.0229126 C27.2119122,58.2429786 25.3295146,58.3481895 23.4436099,58.133384 C22.0828828,57.978198 20.7177719,57.8808779 19.359675,57.6958822 C18.1120496,57.5257913 16.8723149,57.2715317 15.6281965,57.0567262 C14.2692229,56.822632 12.911126,56.580647 11.5503989,56.3614578 C10.5202093,56.1957507 9.48914282,55.9984803 8.45369261,55.927463 C7.22535582,55.8424175 5.99000497,55.8292662 4.75991466,55.8739808 C3.64117252,55.9143116 2.52506064,56.0747582 1.39842768,56.1562966 C2.3663676,55.8704737 3.33343075,55.5846509 4.37852529,55.2760324 C3.79548178,52.9158021 3.21068475,50.5459275 2.62501096,48.1760528 C3.50176813,50.4266885 4.02519216,52.8290031 4.56001403,55.2129059 C4.73361195,55.2129059 4.87740012,55.2129059 5.04836777,55.2129059 C5.0580121,55.0857761 5.07116346,54.9682906 5.07554724,54.8508052 C5.11675483,53.7548587 5.16409972,52.6589122 5.19040243,51.5629658 C5.19566297,51.3499138 5.12902943,51.1272175 5.0702867,50.9203028 C4.70117193,49.6130578 4.32416635,48.3093199 3.95329807,47.0029517 C3.92436508,46.9021247 3.91559751,46.79253 3.93663968,46.6750446 C4.5196832,47.9980711 4.85723471,49.4368296 5.29824356,50.8887395 C5.54461233,46.7320338 5.53146097,42.6314405 5.48060905,38.5290937 C5.50866528,38.5264635 5.53584476,38.5247099 5.56390098,38.5220797 C5.5840664,38.6860333 5.60949236,38.8499868 5.62176696,39.0148172 C5.63579507,39.1936757 5.64894643,39.3742876 5.64105562,39.5522693 C5.60423181,40.4097378 5.78835082,41.189175 6.16974019,41.8993483 C6.22409913,42.0010521 6.30739106,42.1053862 6.39682029,42.1474706 C6.96232867,42.4175118 7.48662945,42.7357746 7.90045884,43.3275857 C8.17225356,43.7168659 8.54049157,44.0009352 8.85349388,44.3490078 C8.96484204,44.4726306 9.04024315,44.644475 9.18841512,44.7663442 C8.97974691,44.0061958 8.77195546,43.2460473 8.56328725,42.4850221 C8.52909373,42.4981734 8.4949002,42.5113248 8.45982991,42.5244761 C8.5194494,42.8348482 8.57819213,43.146097 8.63781161,43.456469 C8.62466026,43.4608528 8.6115089,43.4643598 8.59835754,43.4687436 C8.29149253,42.3315896 7.98550428,41.1953123 7.67863927,40.0581582 C8.1222784,40.7420288 8.24677792,41.7134758 8.94116959,42.1641289 C8.91135985,41.7538066 8.87979659,41.3259491 8.84911009,40.8972148 C8.86576848,40.8945846 8.88330362,40.8919543 8.89996201,40.889324 C8.92714148,41.1541047 8.96221177,41.4180086 8.97974691,41.683666 C9.00341935,42.048397 9.05953181,42.355262 9.33483356,42.5998773 C9.70307157,42.9269077 10.0239647,43.3363533 10.3667767,43.7080983 C10.4316568,43.7782389 10.5053044,43.8352281 10.5745682,43.8974779 C10.6043779,43.8781892 10.6333109,43.8597773 10.6631207,43.8404886 C10.0388696,41.7397785 9.41461846,39.6399451 8.8017652,37.5760587 C8.91925066,37.8110296 9.06654587,38.0845778 9.19542917,38.3704007 C9.32606599,38.6597305 9.45319578,38.954321 9.55752988,39.2594324 C10.0309788,40.6482158 10.514072,42.0326154 10.9559576,43.4363036 C11.1716398,44.1210509 11.4776281,44.7225064 11.8309612,45.2985358 C12.4306631,46.2761201 12.9172633,47.334366 13.3074203,48.4618757 C13.3345998,48.5390303 13.3679165,48.6126779 13.4389339,48.6705439 C12.5402578,43.9711255 11.4074875,39.3672736 9.8047754,34.9510477 C9.82494082,34.9387731 9.84510623,34.9273753 9.86527165,34.9151007 C9.95820791,35.1000964 10.0546512,35.2833387 10.1432037,35.4718415 C10.2370167,35.6734956 10.3211854,35.8821638 10.4132449,36.0855715 C11.3084139,38.047754 12.2027063,40.0108133 13.1005056,41.9712424 C14.2157407,44.4042435 15.0284946,46.9898004 15.6474852,49.6744308 C15.7009674,49.9076482 15.7676009,50.1373586 15.8447555,50.363562 C15.536137,47.2694859 14.8592805,44.2806207 14.164012,41.2943858 C15.1757898,43.947453 15.778122,46.7627203 16.3515212,49.5999065 C16.333986,49.4289388 16.3217114,49.2562177 16.2989157,49.0861268 C16.2734898,48.8993775 16.2357892,48.7161353 16.2068562,48.5302627 C15.8824561,46.4435807 15.3572785,44.4244089 14.8557734,42.3982231 C14.4568489,40.7893737 14.0474033,39.1840313 13.644095,37.5769354 C13.637081,37.5471257 13.6432183,37.5120554 13.6432183,37.3779116 C14.9197767,40.7157261 15.9113891,44.0780898 16.7074846,47.5404039 C16.240173,44.7488091 15.7728614,41.9563375 15.3064266,39.1647427 C15.3116872,39.1603589 15.316071,39.1568519 15.3213315,39.1524681 C15.4677499,39.6408218 15.6150452,40.1282988 15.7597101,40.6184061 C16.3208347,42.5253529 16.731157,44.4822749 17.0117193,46.482158 C17.2098664,47.8928603 17.4194114,49.3009323 17.5991466,50.7151416 C17.7648537,52.0162492 17.8972441,53.3234942 18.0445393,54.6281088 C18.0480463,54.6596721 18.0594441,54.6903586 18.0848701,54.7192916 C17.8630505,48.8581699 17.1142999,43.0759564 16.395359,37.2797148 C16.453225,37.495397 16.5137212,37.7102025 16.5672034,37.9276383 C16.6250694,38.1608557 16.6881959,38.3940731 16.72765,38.6325511 C17.0415291,40.5254698 17.3808341,42.4140047 17.6508753,44.3165678 C17.8797089,45.9280475 18.0208668,47.557939 18.2119999,49.1773095 C18.3189643,50.0786159 18.4504778,50.9764152 18.6135547,51.8715843 C18.4417103,49.7322968 18.258468,47.5938861 18.1015285,45.4519683 C17.9428354,43.2933922 17.8104451,41.131309 17.6649034,38.9394161 C17.7937867,39.6434521 17.9559868,40.3194319 18.0366484,41.0094398 C18.1751761,42.2027063 18.258468,43.4047403 18.3750767,44.6023906 C18.5285092,46.1744162 18.6950931,47.7446883 18.8511559,49.3167139 C18.9502294,50.3144636 19.0396586,51.3139667 19.1361019,52.3125932 C19.1483765,52.4405997 19.1799398,52.5650992 19.2036122,52.6913523 C19.2255312,52.688722 19.2474501,52.685215 19.269369,52.6825847 C19.049303,49.2360523 18.8292369,45.7903966 18.6100476,42.3438642 C18.9958208,44.2025894 19.1799398,46.1042757 19.3403864,48.0050852 C19.4999562,49.9067715 19.5771108,51.8198556 19.7016103,53.7276792 C19.8804688,49.756846 19.4508578,45.8254669 19.1834468,41.8800596 C19.760353,45.7921501 20.1049186,49.7375574 20.2706257,53.7101441 C20.2951749,53.7101441 20.3206009,53.7101441 20.3451501,53.7092673 C20.3793436,52.5475641 20.4424701,51.3858608 20.4389631,50.2241576 C20.4345793,49.0589473 20.3828506,47.8919835 20.3162171,46.7294035 C20.2495835,45.5624397 20.1382354,44.398983 20.0461759,43.2337727 C20.0768624,43.2276354 20.1075489,43.2214981 20.1382354,43.2162375 C20.3784668,44.8522664 20.6186983,46.4882953 20.8720811,48.2172604 C20.912412,47.861297 20.9360844,47.5842418 20.9755385,47.3115703 C21.164918,46.0279978 21.1044218,44.7435485 21.0079785,43.456469 C20.9045211,42.0729462 20.8028173,40.6894234 20.7133881,39.3041471 C20.6835783,38.8482333 20.6204518,38.5001607 20.1978549,38.3160417 C19.7559693,38.1240319 19.4666394,37.643569 19.1974749,37.1736271 C18.6626531,36.2407575 18.4197913,35.1491948 18.1059123,34.0962095 C17.951603,33.578046 17.8043078,33.0554987 17.677178,32.5145396 C18.6100476,33.3316772 19.3912383,34.3408247 20.1566473,35.4981442 C19.9488558,34.6284011 19.7963001,33.8515942 19.5683432,33.1107344 C19.4797907,32.8231581 19.2413128,32.5873104 19.0387819,32.3760119 C17.4913055,30.7592717 15.9455826,29.1390245 14.3779408,27.552094 C13.7300172,26.8962796 13.0312418,26.3193734 12.355262,25.7056434 C12.3061636,25.6609288 12.2596955,25.6118304 12.1579916,25.5101265 C13.3135576,25.9318467 14.3191981,26.5525908 15.2459304,27.3443025 C16.4918023,28.407809 17.706111,29.5291814 18.9291872,30.6330187 C19.139609,30.8223982 19.3263582,31.0521086 19.5683432,31.3116287 C19.5201216,30.7759301 19.4920653,30.2954672 19.4324459,29.8211415 C19.1045387,27.2092819 18.4162843,24.7324429 17.5421574,22.3353888 C16.8188327,20.3521641 16.04904,18.3943654 15.2994126,16.4251688 C15.2888915,16.3979893 15.2836309,16.3673028 15.3081801,16.3103136 C15.4852851,16.5908759 15.6676506,16.8679311 15.8377415,17.1546307 C16.0139697,17.4509747 16.1875676,17.7499489 16.3462606,18.0603209 C17.7946635,20.890493 18.9765321,23.8758512 19.7305433,27.1031943 C19.8453985,27.5933016 19.9321974,28.0974369 19.9874331,28.6024491 C20.0163661,28.8672297 19.9839261,29.1635737 19.9146623,29.41871 C19.7919163,29.8719935 19.8988807,30.2586434 20.0523132,30.7198176 C20.2329252,29.6633252 20.4012625,28.6743432 20.5704767,27.6844843 C20.6037934,27.6853611 20.637987,27.6862378 20.6713037,27.6879913 C21.1219569,29.5212906 21.3858608,31.3870298 21.2596078,33.3956805 C23.1314843,35.3429582 24.5693661,37.7794663 25.7336996,40.4825087 C25.8485548,39.8451062 25.223427,34.4223632 24.8078441,31.9946226 C24.3300114,29.2003975 23.7583657,26.4412427 22.9982173,23.7434609 C22.237192,21.0430488 21.2815267,18.4496011 20.21539,15.9148961 C19.1483765,13.3766841 17.8797089,10.9927814 16.5382705,8.66586784 C16.5566824,8.63956513 16.5742175,8.61413917 16.5926294,8.58783646 C16.6575094,8.6237835 16.7320338,8.64482567 16.785516,8.6974311 C17.5167314,9.41724874 18.200602,10.2001929 18.7503288,11.1383231 C19.3947453,12.2377765 20.056697,13.3284625 20.6318497,14.4831516 C21.5761171,16.3787006 22.3836105,18.3680627 23.0648508,20.431949 C23.1086887,20.5652161 23.1358681,20.7072508 23.1639244,20.8475319 C23.1919806,20.9878131 23.2112693,21.1298477 23.2498466,21.3586814 C23.4725429,20.0233802 23.6829646,18.7626034 23.8942631,17.5018266 C23.9240728,17.5044568 23.9538826,17.5070871 23.9836923,17.5097174 C24.0310372,17.8805857 24.0889032,18.2497004 24.1222199,18.6223222 C24.2239238,19.7349271 24.3186136,20.8484087 24.4115498,21.962767 C24.5325423,23.4129234 24.500979,24.8499284 24.1353713,26.1913669 C24.7403338,28.9233422 25.2760324,31.6114797 25.6039396,34.3539761 C25.8257591,36.210071 26.0046176,38.0740568 26.205395,39.9345355 C26.2904404,40.7183564 26.3272642,41.5188357 26.4885875,42.2781074 C26.64202,42.9996785 26.9287196,43.6782886 27.154923,44.37005 C27.7765438,41.6310606 28.4209603,38.8911944 29.2293304,36.2144548 C29.3170062,35.9251249 29.2854429,35.5472426 29.2302072,35.23161 C28.9189584,33.4658211 28.6112166,31.6974019 28.2491159,29.9465178 C27.7239384,27.4083058 26.9252126,24.981442 26.1966274,22.5273987 C26.0791419,22.1328579 25.9485051,21.7453313 25.8240056,21.3542976 C25.8450478,21.3411462 25.8669667,21.3271181 25.8880089,21.3139667 C26.2194231,22.1091855 26.5674957,22.8938832 26.8778677,23.7013765 C27.1970073,24.5334191 27.4959815,25.378613 27.7739136,26.2334512 C28.046585,27.0751381 28.2955841,27.9308531 28.5288015,28.7909519 C28.7655259,29.664202 28.9873455,30.5444662 29.1837391,31.4317445 C29.3766257,32.3049946 29.5300582,33.1913961 29.7299588,34.06903 C29.8228951,32.9239852 29.8974194,31.7754333 30.0131514,30.6338954 C30.1700909,29.0811585 30.3533331,27.5328053 30.5348219,25.9844522 C30.6374025,25.111202 30.7697928,24.2432124 30.8653593,23.3690855 C30.8837712,23.1998714 30.8153842,22.9982173 30.7505041,22.8342637 C30.1043341,21.197358 29.964053,19.4368296 29.8956659,17.6535056 C29.8386767,16.1682789 29.7536312,14.6848058 29.6808604,13.2004559 C29.90268,13.6677675 30.1341438,14.1552445 30.3656077,14.6435982 C30.1946401,10.7350148 29.7264518,6.87815998 28.985592,3.0704036 C30.7548879,7.98199725 31.5229272,13.120671 31.2686676,18.5355233 C31.5246807,17.9165327 31.7465003,17.3185843 32.0130345,16.7513224 C32.2786919,16.1866908 32.5881872,15.6536225 32.9397668,15.131952 C32.9222316,15.4230353 32.9187246,15.716749 32.8836543,16.0043253 C32.6925213,17.5737207 32.505772,19.1448695 32.2900897,20.7090043 C32.198907,21.3683257 32.0139112,21.9995908 31.6772365,22.5414268 C31.3843996,23.0122454 31.3852763,23.5873981 31.3195195,24.132741 C31.1520589,25.5136336 30.9959961,26.8962796 30.8495777,28.2806792 C30.7391063,29.3205132 30.6479235,30.3629775 30.5532338,31.4054417 C30.5041354,31.9455242 30.4655581,32.4873601 30.422597,33.0283193 C30.4471462,33.0370868 30.4725721,33.0458544 30.4971213,33.0537452 C30.6058392,32.7696759 30.7189409,32.4873601 30.8223982,32.2006605 C31.892042,29.2477424 32.9125873,26.2658912 34.0418505,23.3480434 C35.3271765,20.0286407 36.9535611,16.9599906 38.75179,14.0263612 C40.4974136,11.1804074 42.3859485,8.49928398 44.5182219,6.08820177 C45.5861122,4.88003039 46.7101149,3.76216501 48.0085922,2.94415057 C48.0857469,2.89505217 48.1655318,2.85209107 48.2628518,2.83893971 C47.7560862,3.49738434 47.247567,4.15407546 46.7416781,4.81339685 C45.7509425,6.10661367 44.7119853,7.34985534 43.7834994,8.70882894 C42.6419616,10.3790513 41.59336,12.145717 40.5044276,13.8702984 C39.2866119,15.7991642 38.2783412,17.9007511 37.2244791,19.9646375 C36.3468451,21.6839583 35.6375486,23.5102434 34.9598153,25.3575708 C33.9383932,28.1395213 33.0204284,30.9732005 32.1796183,33.8472105 C31.3887834,36.5476225 30.6873776,39.2795979 30.1543093,42.0755765 C30.0526054,42.6068913 29.9561621,43.1443435 29.9140778,43.6861794 C29.8816378,44.0938715 29.9307362,44.5129614 29.9587924,44.9250373 C30.061373,46.4435807 30.1709676,47.9612473 30.2753018,49.4806675 C30.3331677,50.3267382 30.3840196,51.1736856 30.4690651,52.0197563 C30.5663851,51.2359354 30.64617,50.4486074 30.7645323,49.6700471 C31.0293129,47.926177 31.2721747,46.1744162 31.5983283,44.4480814 C32.1270129,41.6503492 32.8249116,38.9122366 33.6508168,36.2249759 C33.7016688,36.0592688 33.7525207,35.8909314 33.8209077,35.7357454 C33.884911,35.5910805 33.9725867,35.4630739 34.0611392,35.3078879 C33.910337,33.6288979 34.2154485,31.989362 34.5959611,30.3770056 C34.9685829,28.7997194 35.4130988,27.248736 35.8269281,25.6872315 C35.8462168,25.6153374 35.8725195,25.5460736 35.9242482,25.3891341 C36.0557618,26.5999357 36.1714937,27.7186779 35.9742233,28.8488178 C36.7720724,26.9620364 37.766315,25.255867 38.780723,23.5610954 C39.8345851,21.7988135 41.0506473,20.2232808 42.3280825,18.7152585 C43.0873542,17.8183359 43.9272876,17.0502966 44.861034,16.4462109 C44.922407,16.4067569 44.9899173,16.3813309 45.1310752,16.3120671 C44.7084782,16.882836 44.348131,17.3869714 43.9737557,17.8753251 C42.6349475,19.6218254 41.3820615,21.4542479 40.2256188,23.3918812 C39.2243622,25.0682409 38.2511617,26.7700266 37.4541894,28.6024491 C36.8299383,30.0368238 36.3345705,31.5579975 35.7830903,33.0414706 C35.7234708,33.2010404 35.6761259,33.368501 35.6077388,33.5806763 C36.5274571,32.7451267 37.5550165,32.3742584 38.683403,32.0893123 C38.4116083,32.5399655 38.1818979,32.9406435 37.9364059,33.3264167 C37.3893094,34.1865155 36.8623783,35.0711635 36.2688137,35.8804103 C36.0084169,36.235497 35.6191367,36.4634538 35.2614198,36.6835199 C35.0413537,36.8185405 34.8879212,36.9781103 34.8098898,37.2525353 C34.5337113,38.2169682 34.2513955,39.1787708 33.9883684,40.1484642 C33.4211065,42.2386533 33.000263,44.3761873 32.6793699,46.5426542 C32.4864833,47.8455154 32.2857059,49.1492533 32.1550691,50.4626355 C32.0498583,51.5164976 32.0410907,52.5861414 31.9981296,53.6487711 C31.9841015,54.006488 31.9954993,54.3650817 32.0112809,54.7298127 C32.2857059,52.8009469 32.5390888,50.8668206 32.8406932,48.9440921 C33.1431744,47.0134728 33.5043984,45.0968817 34.0164246,43.2293889 C33.6543239,46.0472864 33.032703,48.8081948 32.8424467,51.6602858 C33.4982611,47.82535 34.3303037,44.0491569 35.26405,40.304527 C34.5915773,44.5559225 33.6508168,48.7389309 33.1501885,53.0306573 C34.0243154,48.3663091 34.7564076,43.6537394 36.4108484,39.2699535 C36.145191,40.5202093 35.8646287,41.7652044 35.6191367,43.0207207 C35.3710144,44.2902651 35.1597159,45.5703305 34.9685829,46.8556565 C35.4236198,45.2757401 35.8514773,43.6835491 36.3407078,42.1202911 C36.8351989,40.5403747 37.3910629,38.990268 37.9714762,37.455943 C37.2928661,40.1791507 36.5704182,42.8874536 35.9487974,45.6308268 C35.3245463,48.3873513 34.7774498,51.1736856 34.6126195,54.0503259 C34.6915276,53.6443873 34.7739428,53.2393255 34.8493439,52.8316334 C34.9256218,52.421311 35.0027764,52.0109887 35.0659029,51.5971593 C35.3640004,49.6656633 35.8190373,47.79291 36.4099717,45.9675015 C37.1534617,43.6677675 38.2879855,41.6459655 39.3479849,39.571558 C40.0651723,38.1678698 40.8130461,36.787854 41.5495222,35.3999474 C41.6126487,35.2807084 41.6915568,35.1728673 41.8020282,35.0913289 C41.2838647,36.488003 40.7657013,37.8846772 40.2238653,39.3436011 C40.8095391,38.6974311 41.3820615,38.1538417 42.1606219,37.8662653 C41.7687115,38.2836017 41.4329135,38.6465792 41.0909782,39.0025426 C40.3273227,39.7986381 39.8293246,40.8200602 39.474238,41.9554607 C38.9052226,43.7738551 38.3484817,45.59751 37.7873572,47.4202882 C37.7277377,47.612298 37.6742555,47.8069381 37.6172663,48.0007014 C37.6383084,48.0147295 37.6602274,48.0296344 37.6812695,48.0436625 C37.7943712,47.832364 37.9188707,47.6280796 38.0196978,47.4071368 C38.6439489,46.0350118 39.4672239,44.8584037 40.3299529,43.7133589 C40.5114417,43.4722506 40.6131455,43.1276851 40.7201099,42.8146828 C41.2715901,41.2014496 41.7985212,39.575065 42.3666598,37.9705994 C42.5700675,37.3954467 42.8672882,36.8711459 43.1723997,36.3512289 C42.2693398,38.437911 41.7564369,40.7060818 41.1374463,42.9558407 C41.9414326,41.8809364 42.9672385,41.2400269 43.979893,40.5815823 C43.4941696,41.3829383 43.3766841,42.3464944 43.1452202,43.2732268 C43.6625069,42.3009031 44.3805711,41.6652541 45.3046731,41.228629 C45.0390157,41.4679838 44.8312242,41.6713914 44.6102814,41.8493731 C44.2323991,42.1527311 43.8650378,42.4622264 43.6940702,43.0137066 C43.6879329,43.0329953 43.6458486,43.0347488 43.5976269,43.0733261 C43.1425899,43.7238799 43.023351,44.4910425 42.9251542,45.2687261 C43.0785867,44.8434988 43.210977,44.4086273 43.3363533,43.9711255 C43.4196452,43.6668907 43.4994301,43.3582722 43.5818453,43.0514072 Z M35.5665313,50.9983342 C35.4876231,51.432329 35.4095917,51.865447 35.3306836,52.2994418 C35.3455885,52.3029488 35.3613701,52.3073326 35.376275,52.3108396 C35.4718415,51.8882427 35.5682848,51.4656457 35.6980448,51.0158693 C35.9707163,49.9839261 36.2442645,48.9528597 36.513429,47.919163 C36.5484993,47.7858959 36.5598971,47.6438612 36.5826928,47.5062104 C36.5555133,47.5009498 36.5292106,47.4956893 36.5020312,47.4904287 C36.3845457,47.915656 36.2609229,48.3373762 36.1513283,48.7652337 C35.9637023,49.4990794 35.783967,50.2346787 35.5665313,50.9983342 Z M11.6196627,50.8983838 C11.7494228,51.1622878 11.8791829,51.4253149 12.0089429,51.6892188 C12.0334921,51.6734372 12.0580413,51.6567788 12.0825905,51.6409972 C11.9659818,51.3262413 11.8502499,51.0106088 11.7310109,50.645001 C11.3198118,49.5481778 10.9077359,48.4513546 10.4965368,47.3554081 C10.4728644,47.3694362 10.4483152,47.3825876 10.4246427,47.3966157 C10.456206,48.7363007 11.0260981,49.7989304 11.6196627,50.8983838 Z M6.16272613,48.1567642 C6.66598474,49.8813455 7.16924336,51.6059269 7.67250197,53.3305082 C7.68653009,53.1367449 7.676009,52.9499956 7.64970629,52.7667534 C7.53309758,51.9364643 7.45944998,51.0912704 7.28322179,50.2811468 C6.90183242,48.5337698 6.46696087,46.8048046 6.05400824,45.0688254 C6.0917088,45.0547973 6.1285326,45.0398925 6.16623316,45.0258643 C6.58181606,46.6461116 6.9965222,48.2672356 7.43139375,49.9620072 C7.43139375,49.8401379 7.43840781,49.7945466 7.43051699,49.753339 C7.13855686,48.3259783 6.85711781,46.8951106 6.54323874,45.4756408 C6.43539761,44.9855335 6.07855744,44.7944004 5.68401672,44.6278166 C5.719087,45.4309261 5.73925242,46.1814303 5.79098109,46.9293041 C5.80939299,47.1984686 5.90232925,47.460619 5.9260017,47.7578397 C5.993512,48.3750767 6.07592717,48.9896835 6.12677909,49.6086741 C6.22760616,50.8431481 6.29511646,52.0828828 6.40821814,53.3156034 C6.46170032,53.9056609 6.5870766,54.4851974 6.6791361,55.0629804 C6.91059999,55.0629804 7.08595143,55.0629804 7.26480989,55.0629804 C7.26480989,54.9945933 7.27094719,54.9481252 7.26393313,54.9051641 C6.98249408,53.2331882 6.69930152,51.5612123 6.41786247,49.8892363 C6.31878891,49.3061928 6.22322237,48.7213958 6.16272613,48.1567642 Z M23.580384,45.0241108 C23.5654791,44.98378 23.5461905,44.9452027 23.5356694,44.9031183 C23.1718152,43.5055674 22.8290031,42.0983722 22.2564807,40.7998948 C22.0758687,40.3904492 21.9110384,39.9704825 21.7085075,39.4821288 C22.1898472,39.8889441 22.4625186,40.4000935 22.7194085,40.9235175 C23.5952889,42.7068416 24.1818394,44.6453517 24.6719467,46.63033 C24.8709706,47.4360698 25.0217728,48.2593448 25.1752053,48.9861765 C25.2216734,48.4048865 25.2812929,47.7411813 25.3260075,47.0757226 C25.3996551,45.9815296 25.4356022,44.8811994 25.5425666,43.792267 C25.6302423,42.8997282 25.537306,42.1071397 25.1673145,41.3049069 C24.3519303,39.5347342 23.461145,37.8364556 22.3678289,36.3108981 C22.0793757,35.9084666 21.7611129,35.5375983 21.468276,35.1658532 C21.342023,35.9400298 21.1789461,36.6756291 21.1123126,37.4243797 C21.0597072,38.0161908 21.1079288,38.6264138 21.1438759,39.2252389 C21.193851,40.0713096 21.2674986,40.91475 21.3437765,41.7581904 C21.4121635,42.5113248 21.497209,43.2627057 21.5769939,44.0149633 C21.6278458,44.4936727 21.6839583,44.9715054 21.7383172,45.449338 C21.9040243,44.8364848 22.0057281,44.2192477 22.1328579,43.6090248 C22.262618,42.9838969 22.2757694,42.387702 22.0250168,41.7941374 C21.897887,41.492533 21.8295,41.1541047 21.7269194,40.8358418 C21.6769442,40.6789023 21.6111874,40.5289768 21.5533214,40.3764211 C21.5813777,40.3553789 21.6094339,40.3343367 21.6383669,40.3132946 C21.7619897,40.517579 21.901394,40.7104656 22.0057281,40.9287781 C22.786042,42.5569162 23.2138995,44.3525148 23.5821375,46.1682789 C23.9170588,47.8192127 24.1143291,49.5025864 24.1888535,51.2034953 C24.2379519,52.3108396 24.2633779,53.4199375 24.2817898,54.5290353 C24.2888038,54.9674139 24.2493497,55.4066692 24.2309378,55.8459245 C24.28442,55.8231289 24.2993249,55.7968261 24.3054622,55.7678932 C24.6596721,54.1055616 24.862203,52.4414765 24.6359996,50.706374 C24.3870006,48.7985504 24.0731215,46.915276 23.580384,45.0241108 Z M22.4327089,45.0626881 C22.4081597,45.1924482 22.3783499,45.3204547 22.3608148,45.4519683 C22.2608645,46.1858141 22.0758687,46.9231668 22.0881433,47.6543823 C22.1021714,48.468013 22.3152234,49.2737528 22.4116667,50.0882602 C22.5975392,51.6567788 22.7623696,53.2288044 22.9359675,54.7990765 C22.9736681,55.1418885 23.0078616,55.4855773 23.0464389,55.8275126 C23.0850162,56.1659409 23.1262238,56.5026157 23.1665546,56.8410439 C23.2901774,54.7561154 23.4059093,52.6746939 23.4102931,50.5932724 C23.4146769,48.5171114 22.9622702,46.514598 22.5528246,44.49981 C22.5160008,44.6690242 22.479177,44.8391151 22.4327089,45.0626881 Z M43.8615308,47.7499489 C44.1070228,46.5373937 44.3516381,45.3239618 44.6023906,44.0851039 C44.5313733,44.1350791 44.4629862,44.1648888 44.4147646,44.2210013 C43.9860303,44.7198761 43.5590496,45.2205044 43.1382062,45.7299003 C43.0706959,45.8114388 43.0172137,45.9306777 42.9926645,46.0437794 C42.7533098,47.1704124 42.4701172,48.287401 42.3070404,49.4315691 C42.2202414,50.0417921 42.3421106,50.6976065 42.3710436,51.3323786 C42.3763042,51.4437268 42.3859485,51.555075 42.3938393,51.6664231 C42.506941,51.2394424 42.5858491,50.8133384 42.6787854,50.3916182 C42.7752287,49.9541164 42.878686,49.5183681 42.9900342,49.0861268 C43.0952451,48.6793115 43.214484,48.2777567 43.3267089,47.8744484 C43.3345998,47.8797089 43.3433673,47.8849695 43.3512581,47.89023 C42.9795131,49.8918666 42.6077681,51.89438 42.2351463,53.8960166 C42.3280825,53.7671333 42.3649063,53.6189613 42.3999766,53.4716661 C42.5946167,52.6536517 42.7787357,51.8312535 42.9856504,51.0184996 C43.2627057,49.9418418 43.5555426,48.872198 43.8615308,47.7499489 Z M28.6454102,51.1456294 C28.8260222,52.1319812 29.0075109,53.1174562 29.2030277,54.1844697 C29.6905047,50.948359 29.5695122,47.7815121 29.4371219,44.5489084 C29.0750212,46.233159 28.7243183,47.85779 28.3779992,49.482421 C28.3560803,49.5858784 28.3367917,49.7042406 28.3569571,49.8033141 C28.4420025,50.2346787 28.5428296,50.6616594 28.6454102,51.1456294 Z M8.57556186,52.4835608 C8.531724,51.8707075 8.49840722,51.2569775 8.44317152,50.6458778 C8.36864716,49.8243563 8.27746442,49.0045884 8.19329573,48.1848204 C8.14507409,47.7148786 8.14858111,47.2326621 7.84259286,46.8565333 C7.63217114,46.5978899 7.46208025,46.2892714 7.26130286,46.0165999 C7.14644767,45.8605372 7.00616653,45.7325306 6.87728322,45.5922495 C6.95531461,46.236666 7.0763071,46.8346144 7.19028553,47.4343163 C7.38229535,48.4478476 7.62428033,49.4526113 7.74614957,50.4792939 C7.92150101,51.9548762 8.19066546,53.3980185 8.52207967,54.8271327 C8.54487535,54.9262063 8.61238566,55.0094982 8.65885379,55.0998042 C8.68164947,55.0831458 8.70444516,55.0656107 8.72724085,55.0489523 C8.67638893,54.2151562 8.62641377,53.3804834 8.57556186,52.4835608 Z M26.0019873,53.6689365 C25.9537657,54.5079931 25.9493819,55.3435427 26.1159657,56.1948739 C26.2071485,56.2229301 26.295701,56.2501096 26.4315983,56.2921939 C26.3798697,54.9919631 26.3298945,53.7531052 26.2799193,52.5142473 C26.2939475,52.511617 26.3079756,52.5089868 26.3228804,52.5072332 C26.4026653,53.3191104 26.4824502,54.1309875 26.5604816,54.9323436 C26.5815238,54.8385306 26.6104568,54.7263056 26.6323757,54.6114504 C26.8778677,53.2893006 27.0348073,51.9373411 27.4705556,50.6765643 C27.494228,50.6081772 27.5056259,50.518748 27.4933513,50.4477307 C27.3521934,49.6753076 27.2057749,48.9055148 27.0479586,48.0699652 C26.4912178,49.9041412 26.1633106,51.7304264 26.0019873,53.6689365 Z M29.147792,39.7732121 C29.1065844,39.9082327 29.0601163,40.0406231 29.0259228,40.178274 C28.6261215,41.799398 28.2631441,43.4363036 27.8133676,45.0355087 C27.6231113,45.7106117 27.7519946,46.4102639 27.5634918,47.0652015 C27.5415729,47.1406026 27.5661221,47.2431832 27.5836572,47.3282287 C27.6529211,47.6605196 27.7274454,47.9919338 27.8028465,48.3356226 C27.8151211,48.3101967 27.8221352,48.3023059 27.8238887,48.2917848 C28.2499927,46.1586346 28.6997691,44.034252 29.3292808,41.9747494 C29.3643511,41.8598942 29.3511997,41.7073385 29.3266505,41.5819622 C29.176725,40.7884969 29.0750212,40.0029225 29.4423824,39.2471578 C29.4897273,39.148961 29.4932344,39.0174475 29.5169068,38.9008388 C29.4993717,38.8947015 29.4818365,38.8876874 29.4643014,38.8815501 C29.3669813,39.1629892 29.2687845,39.4461817 29.147792,39.7732121 Z M9.77233539,52.2257942 C9.6452056,51.4770436 9.53210392,50.7239092 9.38568548,49.9812958 C9.23926703,49.233422 8.93503229,48.5767309 8.56328725,47.9691381 C8.54049157,47.977029 8.51769588,47.9849198 8.4949002,47.9936873 C8.82543765,50.3398895 9.1559751,52.6860917 9.49089634,55.0638571 C9.67852237,55.104188 9.81880352,55.1339977 10.0283485,55.1787123 C9.93891925,54.1695648 9.85562732,53.2279276 9.77233539,52.2257942 Z M40.524593,53.2603677 C40.6938072,52.5721133 40.8542537,51.8803519 41.033989,51.1964813 C41.2759739,50.2776398 41.5258497,49.3640588 41.3934594,48.316334 C40.2729637,50.4065231 40.0441301,52.7956864 39.6197796,55.1664377 C39.8231873,55.1278604 39.9801268,55.0980507 40.1519712,55.0656107 C40.2729637,54.4702925 40.3904492,53.8907561 40.524593,53.2603677 Z M25.9739311,44.7882631 C25.9406143,45.0749627 25.9046673,45.3616623 25.873104,45.6492387 C25.7705234,46.5899991 25.681971,47.5333898 25.562732,48.47152 C25.4750563,49.1676652 25.4952217,49.843645 25.6723266,50.5240085 C25.9493819,49.2869042 26.1966274,48.0550604 26.5069994,46.8486425 C26.6841044,46.1603881 26.7191747,45.5282462 26.4640383,44.8671713 C26.3114826,44.4743841 26.2071485,44.0526639 26.0616068,43.5783383 C26.0300435,44.0158401 26.0046176,44.3718035 25.9739311,44.7882631 Z M43.3714236,41.7608206 C43.4231522,41.5872227 43.4748809,41.4145016 43.5283631,41.2373966 C42.0983722,42.0115732 41.6591168,43.5914896 41.3785545,45.0495368 C41.618786,44.7917702 41.951077,44.3682965 42.3368501,44.041266 C42.8339714,43.6186691 43.0663121,43.0259812 43.214484,42.3464944 C43.2539381,42.1641289 43.3030365,41.9852705 43.3714236,41.7608206 Z M11.9738726,48.0138528 C11.8195634,47.6535056 11.6556098,47.2984189 11.5118216,46.9310577 C11.069936,45.8017944 10.5622936,44.7303972 9.82669433,43.8492562 C9.68378291,43.6774118 9.53210392,43.5169653 9.35412222,43.3170646 C9.40059035,44.3314727 9.56016015,44.7987842 10.0441301,45.3634158 C9.99415495,45.131952 9.95119385,44.929421 9.89858842,44.6856826 C10.1914253,45.2047228 10.4570827,45.6851857 10.730631,46.1586346 C11.4977935,47.4877985 12.196569,48.8660607 12.7147324,50.3749598 C12.7392816,50.4459771 12.7839963,50.5073501 12.8190665,50.5722302 C12.8444925,50.5564485 12.8707952,50.5397902 12.8962212,50.5240085 C12.7138557,49.6402373 12.3079171,48.872198 11.9738726,48.0138528 Z M7.13329631,44.5120846 C7.37177426,45.2196277 7.64970629,45.8964842 8.12052489,46.5224888 C8.08808487,46.0806032 8.07318,45.7246398 8.03372593,45.3721834 C7.9933951,45.009206 7.92150101,44.6523658 7.87590964,44.2902651 C7.77069878,43.456469 7.07718386,42.6033843 6.28634889,42.2789841 C6.57743227,43.052284 6.84308969,43.7607037 7.13329631,44.5120846 Z M9.33483356,48.0620744 C9.31642166,47.6491218 9.31379139,47.2344156 9.27609083,46.8240933 C9.23839027,46.4164012 9.24978812,45.9525967 9.09109507,45.6211825 C8.82368413,45.0635649 8.43966449,44.5909928 8.10474326,44.0833504 C8.18014437,44.9083789 8.29499956,45.6799252 8.41949908,46.4479645 C8.46333694,46.7171289 8.48613262,47.0125961 8.59660403,47.2379227 C8.80877926,47.6684104 9.0761902,48.0568139 9.33658708,48.4899319 C9.33658708,48.3514043 9.33658708,48.2339188 9.33483356,48.0620744 Z M41.434667,52.4388462 C41.2531782,53.3085893 41.0550311,54.1748254 40.9997954,55.0726247 C41.0234679,55.0796388 41.0480171,55.0866528 41.0716895,55.0945436 C41.1427068,54.7929392 41.2137242,54.4913347 41.2847415,54.1897303 C41.2978929,54.1923605 41.3110442,54.1958676 41.3241956,54.1984978 C41.2873718,54.4860742 41.250548,54.7745273 41.2128474,55.071748 C41.3303329,55.071748 41.4180086,55.071748 41.492533,55.071748 C41.9344186,53.3077125 42.0983722,51.5059766 42.1264284,49.6700471 C41.9019785,50.576614 41.6775287,51.4823041 41.434667,52.4388462 Z M41.8905807,45.3134407 C41.3820615,45.9648713 41.0944852,46.72765 41.0480171,47.6868223 C41.5758249,47.0047053 42.0562878,46.3857147 42.532367,45.7640939 C42.5735745,45.7106117 42.6033843,45.6343338 42.6200427,45.561563 C42.7550633,44.9820265 42.8857001,44.4007365 43.0408861,43.7194962 C42.6349475,44.2850045 42.2763539,44.7821258 41.8905807,45.3134407 Z M29.2199545,56.0879095 C29.3009951,54.1958676 29.0834651,52.3310051 28.3683176,50.5020896 C28.2545765,50.8992606 28.0967606,51.3078294 28.1578965,51.6962329 C28.3569435,52.9543794 28.6370311,54.2046351 28.8815746,55.4583979 C28.9427104,55.7714002 28.9924722,56.086156 29.047921,56.4000351 C29.0735128,56.4000351 29.0991045,56.3991583 29.1246963,56.3991583 C29.1559751,56.3149896 29.1844104,56.2308209 29.2199545,56.0879095 Z M38.8263144,47.586872 C38.4905164,48.4127773 38.2397639,49.2772598 38.0416167,50.1697986 C38.7509133,48.5276325 39.7898705,47.1046556 40.156355,45.1749131 C39.6083818,45.9175264 39.2164713,46.7206359 38.8263144,47.586872 Z M43.8852033,51.0833796 C43.9167665,50.8983838 43.9518368,50.7133881 43.9807698,50.5275156 C44.2323991,48.8792121 44.4796446,47.2300319 44.7339042,45.5826051 C44.8224567,45.009206 44.9241605,44.438437 45.0241108,43.8404886 C44.5980068,44.1973288 43.7002075,49.8988807 43.7931438,51.6295993 C43.8264605,51.4147938 43.8492562,51.2753894 43.8852033,51.0833796 Z M5.69366105,42.9216471 C5.69366105,43.4143847 5.69366105,43.9071222 5.69366105,44.3753105 C6.09580299,44.5418944 6.45970848,44.6918199 6.78537753,44.8259637 C6.70099364,44.2104802 6.68253467,43.5564193 6.50717441,42.9321682 C6.33840665,42.3315896 6.00746361,41.7608206 5.74903797,41.1777771 C5.73057899,41.189175 5.71343852,41.2005728 5.69497954,41.2119707 C5.69366105,41.7590671 5.69366105,42.3070404 5.69366105,42.9216471 Z M43.1680159,53.2279276 C43.359149,52.0285238 43.5511588,50.82912 43.7422918,49.6297162 C43.7168659,49.6235789 43.6914399,49.6165649 43.6651372,49.6104276 C43.1092732,51.3656954 42.7392816,53.1779525 42.5735745,55.0945436 C42.6998276,55.0585966 42.7918871,55.0322939 42.8567671,55.013882 C42.9637315,54.4133033 43.0636818,53.8495485 43.1680159,53.2279276 Z M42.2956425,47.6307099 C42.3955928,47.2326621 42.4955432,46.8346144 42.5963702,46.4365666 C42.568314,46.4164012 42.5402578,46.3962358 42.5113248,46.3769471 C42.1974457,46.8994944 41.8774293,47.4167811 41.5758249,47.9498495 C41.5162054,48.0559371 41.49604,48.226028 41.5074378,48.3601718 C41.5591665,48.962504 41.6293071,49.5622059 41.680159,50.0452991 C41.860771,49.3368793 42.0720694,48.5100973 42.2956425,47.6307099 Z M41.3873221,43.889587 C41.4592162,43.6809188 41.5311103,43.4713739 41.6293071,43.1846743 C40.6938072,44.185931 40.4386708,45.5221089 40.0774469,46.7898998 C40.3132946,46.489172 40.5394979,46.1840606 40.7499196,45.8640442 C40.8630213,45.691323 40.9822603,45.5054505 41.0427565,45.3002893 C41.1725166,44.8548967 41.2663296,44.3937224 41.3873221,43.889587 Z M40.0579442,51.1149429 C40.2679321,50.3390128 40.2898539,49.9909402 40.1629381,49.5341497 C39.4568249,50.5047199 39.0414642,51.5699798 39.1741489,52.7781512 C39.3737528,52.7544788 39.5445122,52.4379694 40.0579442,51.1149429 Z M5.61018417,49.5271356 C5.60823936,49.7059941 5.62379783,49.8866061 5.60434975,50.0645878 C5.48377164,51.1307245 5.65296995,52.168805 6.66232536,53.1349914 C6.37449376,51.3437765 6.08860696,49.5525616 5.80077536,47.7613467 C5.73854151,47.7613467 5.67630765,47.7613467 5.61212898,47.7613467 C5.61212898,48.3277318 5.61212898,48.894117 5.61018417,49.5271356 Z M5.35571281,54.3764795 C5.35571281,54.6272321 5.35571281,54.8788614 5.35571281,55.1524096 C5.7470471,55.133121 6.03372221,55.1190928 6.44629169,55.0989274 C6.12017979,54.0284069 5.80771908,53.0078616 5.49677517,51.988193 C5.44975438,51.9934535 5.4027336,51.9978373 5.35571281,52.0030979 C5.35419601,52.7728907 5.35419601,53.5418067 5.35571281,54.3764795 Z M14.8601572,51.9434784 C14.8768156,52.0022211 14.893474,52.0618406 14.9110091,52.1205833 C14.6944501,49.8243563 13.8325978,47.7911564 13.2337727,45.6501154 C13.2951457,46.0648216 13.3898355,46.4672531 13.4959231,46.8644241 C13.9430692,48.5442908 14.3937224,50.2224041 14.8601572,51.9434784 Z M37.4436684,47.2826373 C37.5287138,46.9249204 37.6137592,46.5672034 37.6988047,46.2094865 C37.6742555,46.1989654 37.6497063,46.1884443 37.6260338,46.1770465 C37.6084987,46.1954584 37.5813192,46.2103633 37.5743052,46.2340357 C37.1420639,47.6596429 36.7106994,49.08525 36.2845954,50.5126107 C36.2582927,50.6002864 36.2810883,50.7107578 36.2810883,50.8107081 C36.3082678,50.8168454 36.336324,50.8229827 36.3635035,50.82912 C36.7150831,49.6621562 37.0675395,48.4951924 37.4436684,47.2826373 Z M9.59470721,46.2822574 C9.79856718,46.9494696 10.0904243,47.5903791 10.5729417,48.1769296 C10.6213401,47.2651021 10.6404062,46.3620423 9.4979104,45.7141187 C9.53310924,45.8991145 9.56244161,46.0630681 9.59470721,46.2822574 Z M28.0457083,54.1266037 C28.0457083,54.8779846 28.0457083,55.6284888 28.0457083,56.4202005 C28.3985191,56.4649151 28.7402352,56.508753 29.1374248,56.5596049 C28.7912707,55.6004325 28.469525,54.7061402 28.1477793,53.8118479 C28.123371,53.8127247 28.0989627,53.8136014 28.0745544,53.8144782 C28.0656787,53.9004004 28.0590219,53.9845691 28.0457083,54.1266037 Z M11.4859254,54.3203671 C11.5409489,54.4790601 11.6134799,54.6359996 11.6472443,54.7981997 C11.7122721,55.1138323 11.9298651,55.1822194 12.2800147,55.1199696 C11.9561263,54.3615747 11.6384906,53.6189613 11.3221054,52.876348 C11.2770862,52.8842388 11.2333175,52.8912529 11.1882982,52.8991437 C11.2770862,53.3568109 11.3658741,53.8144782 11.4859254,54.3203671 Z M14.070199,46.5014466 C14.5112079,48.1269544 14.9522167,49.7524622 15.4055002,51.4235614 C15.4291726,50.8720811 14.192945,46.4128942 13.8887103,45.9464594 C13.9553438,46.14636 14.0070725,46.2989157 14.070199,46.5014466 Z M38.4510267,54.894643 C38.7179163,53.8758512 38.9848058,52.8579361 39.2516954,51.8391443 C38.7282697,52.8877459 38.3946577,53.9863226 38.159979,55.1120788 C38.204844,55.143642 38.2508595,55.1743286 38.2957245,55.2058918 C38.3451911,55.1199696 38.3958081,55.0340474 38.4510267,54.894643 Z M40.7018007,49.4228015 C41.1474306,48.865184 41.3657352,48.2084929 41.2087724,47.8104451 C40.6206131,48.4031329 39.7383741,48.9090218 40.4077211,49.69898 C40.4997337,49.6086741 40.5755088,49.5359032 40.7018007,49.4228015 Z M7.11664105,45.3090569 C7.25785626,45.3932256 7.39907148,45.4765175 7.59495065,45.5922495 C7.2134418,44.8084286 6.85926493,44.0824736 6.50508805,43.3556419 C6.49711622,43.6063945 6.51305988,43.8422422 6.58822282,44.0605547 C6.72943803,44.4735073 6.67705174,44.9601075 7.11664105,45.3090569 Z M9.88955997,49.0387819 C9.95309917,49.1887074 10.0166384,49.3377561 10.0865315,49.5034632 C10.2602053,49.514861 10.4232893,49.5262589 10.6139069,49.5385335 C10.9464287,48.8388813 10.2199638,48.312827 9.60575153,47.7657305 C9.69894236,48.1716691 9.78789724,48.5758541 9.88955997,49.0387819 Z M39.4337236,49.5262589 C38.7271366,50.4240582 38.6072309,50.6546454 38.7271366,50.890493 C39.5707587,49.9032645 39.8805151,49.3912383 39.7491898,49.139609 C39.6492684,49.2684923 39.5636215,49.3789637 39.4337236,49.5262589 Z M12.5858028,53.3199871 C12.6734589,53.5260251 12.7597869,53.732063 12.8474429,53.9372242 C12.935099,54.1423854 13.0240832,54.3466698 13.1117392,54.5509542 C13.152911,54.5395564 13.1940828,54.5272818 13.2339265,54.5158839 C12.9191615,53.7417073 12.6043966,52.9675308 12.2896316,52.1933542 C12.2404911,52.2065055 12.1913505,52.2187801 12.14221,52.2319315 C12.2803347,52.5800041 12.4171313,52.9271999 12.5858028,53.3199871 Z M10.9095318,51.3472835 C10.2843196,51.9145454 11.3987025,52.3538007 11.5665835,52.9184324 C12.1194332,52.3187305 11.6707856,51.8417746 10.9095318,51.3472835 Z M10.1546015,51.0640909 C10.2297806,51.2447029 10.3049596,51.4261917 10.4177282,51.6909723 C11.9320492,51.0430488 10.992311,50.4828009 10.5519765,49.9216764 C10.4230981,50.2820236 10.2942198,50.6423708 10.1546015,51.0640909 Z M10.8312489,52.8465383 C10.7439115,52.7430809 10.653663,52.6405003 10.5663257,52.537043 C10.4848108,52.544057 10.403296,52.5510711 10.3246924,52.5589619 C10.6012606,53.0876465 10.88074,53.6163311 11.1573082,54.1458924 C11.2446455,54.1397551 11.3290716,54.1344945 11.4164089,54.1283572 C11.2213555,53.7189117 11.0292134,53.3103428 10.8312489,52.8465383 Z M38.8621729,42.3895949 C39.1594045,42.0500325 39.4547899,41.7113497 39.7520214,41.3717873 C39.6670981,41.3471558 39.5803287,41.3225243 39.4954054,41.2978929 C39.2147892,41.6444929 38.9323269,41.9902132 38.6609416,42.3385726 C38.6517108,42.3508883 38.7440188,42.3904746 38.8621729,42.3895949 Z M13.3943747,51.7567291 C13.1032014,51.4410965 12.8146752,51.1245872 12.5235019,50.8089546 C12.4732083,51.2999386 12.9284975,51.7242891 13.6114312,52.1205833 C13.5452554,52.017126 13.4764327,51.9127919 13.3943747,51.7567291 Z M40.6130832,47.5545858 C40.9148862,47.2108439 41.2147036,46.8680623 41.5165066,46.5243204 C41.4529691,46.5041568 41.3914172,46.483033 41.3278797,46.4628693 C41.0240912,46.7614831 40.7083894,47.055296 40.434384,47.3625513 C40.3867309,47.4134404 40.5277047,47.5248205 40.6130832,47.5545858 Z M12.8107559,42.1737733 C12.9531537,42.420142 13.0939147,42.6665108 13.2363125,42.9128796 C13.2755947,42.9032352 13.3148768,42.8935909 13.3557957,42.8830698 C13.031718,42.3123009 12.7076402,41.741532 12.3835625,41.1707631 C12.3442803,41.1804074 12.3033614,41.1900517 12.2640793,41.1996961 C12.4392122,41.5074378 12.6143451,41.8151796 12.8107559,42.1737733 Z M11.2409203,50.5284041 C11.1061405,50.3688386 10.9732862,50.2092731 10.8385063,50.0488061 C10.7788181,50.0659346 10.7210554,50.0830631 10.6613672,50.1001916 C10.9578827,50.4472691 11.2543983,50.7934451 11.5509139,51.1405226 C11.6183038,51.1224926 11.6856937,51.1035611 11.7530836,51.0855311 C11.5990496,50.9133446 11.4469409,50.7411581 11.2409203,50.5284041 Z M37.2024471,45.8921004 C37.1039957,46.0253675 37.0055444,46.1577578 36.907093,46.2910249 C36.9683516,46.301546 37.0296102,46.3129439 37.0886811,46.3234649 C37.3927865,45.958734 37.6947041,45.594003 37.9988094,45.229272 C37.9594289,45.2205044 37.9200483,45.2108601 37.87848,45.2020925 C37.6684503,45.4160213 37.4540451,45.62995 37.2024471,45.8921004 Z" id="形状" fill="#545458" fill-rule="nonzero" mask="url(#mask-2)"></path>
            </g>
        </g>
    </g>
</svg>
