<?xml version="1.0" encoding="UTF-8"?>
<svg width="34px" height="60px" viewBox="0 0 34 60" version="1.1" xmlns="http://www.w3.org/2000/svg" xmlns:xlink="http://www.w3.org/1999/xlink">
    <title>43</title>
    <g id="页面-1" stroke="none" stroke-width="1" fill="none" fill-rule="evenodd">
        <g id="植物" transform="translate(-248.000000, -475.000000)" fill="#545458">
            <path d="M270.2542,484.733369 L270.2542,484.728438 C270.272075,484.73152 270.289951,484.733986 270.308134,484.736759 C270.289951,484.735527 270.272075,484.734602 270.2542,484.733369 M276.79226,511.315542 C272.928104,512.713825 266.431651,513.864627 266.267074,519.086076 C266.227009,521.253615 267.363018,521.54147 268.831569,522.279906 C267.650872,524.332489 266.420864,526.951534 266.503152,529.351453 C265.814951,527.514916 265.210272,525.647867 264.7187,523.73952 C263.730625,519.899712 263.227342,515.952344 262.916681,512.0059 C262.834084,510.957111 262.761042,509.904623 262.69817,508.851211 C262.953664,507.721674 263.719838,506.740071 264.635487,505.939071 C264.783729,506.211824 264.862935,506.509849 264.992994,506.834071 C267.993894,513.330216 273.873648,506.792773 277.285989,504.244304 C276.175869,504.120409 275.559478,503.38074 274.819192,502.640762 C272.557653,500.461512 268.733871,498.735 265.81526,500.58479 C264.073955,501.718333 261.937852,504.167563 264.347016,505.69498 C263.650802,506.301509 262.982943,507.05104 262.641462,507.866834 C262.511404,505.452122 262.438053,503.030322 262.440519,500.621157 C262.442368,498.961216 262.521882,497.292029 262.725599,495.642258 C263.168785,495.333446 263.217171,494.427968 263.306548,493.801098 C263.406712,493.119678 263.500403,492.438566 263.592553,491.75807 C263.560809,492.264127 263.543859,492.767719 263.553413,493.266071 C263.594403,493.965366 263.635701,495.610206 264.663533,495.610206 C265.681811,495.610206 265.938846,493.95797 265.980144,492.873738 C266.036544,492.998557 266.094177,493.123376 266.159822,493.244805 C266.521644,493.864586 267.605876,495.61976 268.483617,495.61976 C269.964188,495.575688 269.69051,493.114747 269.390328,491.826181 C269.507442,492.002469 269.624556,492.178141 269.745061,492.352579 C271.018833,494.243359 275.254056,496.176053 272.951835,492.393261 C272.787259,492.116193 272.610355,491.846214 272.424821,491.581782 C272.888039,491.92542 273.373447,492.239163 273.873032,492.524552 C274.448741,492.854013 276.298839,493.963825 276.915538,493.223848 C277.86139,492.072429 274.448741,489.400374 273.79136,488.906645 C273.687498,488.822199 273.582403,488.739911 273.478233,488.656698 C274.833985,489.281411 276.602103,489.875612 277.737804,488.887537 C279.217759,487.592499 277.86139,486.667296 276.566044,486.050905 C275.853496,485.720828 275.100883,485.475812 274.32762,485.288738 C275.414318,485.34637 276.48992,485.224017 277.097373,484.573724 C278.042917,483.586574 277.220343,482.64103 276.19282,482.229897 C275.300285,481.893347 274.292178,481.835715 273.255408,481.92879 C273.338004,481.897662 273.421525,481.869925 273.503197,481.836639 C275.353295,481.137652 275.969994,479.493429 273.420909,479.534111 C272.723771,479.547363 272.005367,479.692215 271.302065,479.931375 C271.617041,479.675264 271.903971,479.394806 272.146212,479.08168 C273.626475,477.23189 272.06454,476.122078 270.172836,476.944035 C269.265817,477.315103 268.359106,477.944438 267.607725,478.723556 C268.224732,477.058684 268.53601,475.430487 267.459483,475.258514 C266.322858,475.083151 265.534802,476.082321 265.05864,477.272264 C264.934745,476.08078 264.539947,475.12599 263.594403,475.011649 C262.665193,474.904397 262.241424,475.550992 262.10551,476.404077 C261.556922,475.749161 260.898308,475.378094 260.140764,475.669647 C259.589402,475.877679 259.33175,476.323946 259.263639,476.870377 C258.654336,476.599473 258.017296,476.73662 257.42741,477.684013 C256.820881,478.680717 257.105038,479.608386 257.744235,480.347747 C256.383244,479.837375 255.068173,479.650609 254.508182,480.397983 C253.806113,481.360169 254.630844,482.018475 255.76901,482.465667 C255.115019,482.531929 254.479212,482.75198 253.973155,483.111028 C251.053002,485.281649 255.707679,485.633917 257.467784,485.549471 C255.709836,485.903279 253.836932,486.814305 253.398062,488.538351 C252.682123,491.640648 255.442323,490.841496 257.226775,489.822294 C257.027372,490.40201 256.888684,490.994978 256.83136,491.602123 C256.709314,492.899626 257.393817,495.139591 259.138203,494.534604 C259.993446,494.238119 260.543267,493.376097 260.960564,492.524244 C260.946695,492.842302 260.946387,493.147415 260.963029,493.431264 C261.004327,494.130251 261.209894,495.44563 262.032159,495.692494 C262.174546,495.739648 262.299057,495.757215 262.408774,495.751051 C262.255293,496.943152 262.167149,498.147888 262.122153,499.357864 C261.96713,503.554254 262.189031,507.816598 262.44206,512.0059 C262.638996,515.263219 263.023933,518.534098 263.68871,521.739331 C263.462495,521.359018 263.215322,520.98641 262.959828,520.6175 C261.829059,518.985604 260.578709,517.43723 259.33175,515.893787 C259.171489,515.695309 259.01061,515.496523 258.849116,515.297428 C259.443317,514.676723 260.419064,514.461294 260.922347,513.741349 C262.238034,511.808963 260.757771,508.807447 259.15423,507.656645 C256.073815,505.397571 252.0081,505.723026 248.802866,503.838102 C249.122157,505.26289 249.163147,506.726202 249.163147,508.149758 C249.163147,511.480427 248.094633,516.414021 252.246951,517.647419 C254.316484,518.256414 257.303824,517.661288 258.646323,515.827216 C260.521693,518.075503 262.864596,520.541375 264.042827,523.323148 C264.71531,526.137898 265.618939,528.889776 266.818128,531.52269 C265.940695,530.438767 264.866017,529.456239 263.668986,528.683901 C264.01848,528.282014 264.192302,527.701066 264.252708,527.185763 C264.499265,524.677976 261.29249,523.116041 259.195528,522.869176 C255.824485,522.458043 252.493816,524.102575 249.081167,523.691442 C249.862443,524.801562 250.643718,525.952981 251.301099,527.103783 C253.110207,530.310557 255.207786,533.023911 259.277816,532.613394 C260.733732,532.459297 264.437626,531.270586 263.570363,529.245742 C264.952929,530.126873 266.207901,531.293393 267.360552,532.662397 C267.74179,533.43227 268.1483,534.191664 268.585013,534.937497 C268.667609,535.079267 268.867936,534.955064 268.801058,534.811137 C268.227198,533.567568 267.680459,532.314445 267.167622,531.048377 C266.423638,528.095248 267.684466,525.074315 269.192158,522.441401 C269.725645,522.75237 270.262521,523.043307 270.830834,523.362905 C273.585794,524.842552 276.422733,524.431419 278.683964,522.005304 C281.685172,518.839828 280.575052,512.96069 281.315338,508.931341 C280.245899,510.24672 278.272831,510.740449 276.79226,511.315542" id="43"></path>
        </g>
    </g>
</svg>
