<?xml version="1.0" encoding="UTF-8"?>
<svg width="60px" height="60px" viewBox="0 0 60 60" version="1.1" xmlns="http://www.w3.org/2000/svg" xmlns:xlink="http://www.w3.org/1999/xlink">
    <title>crest-like-flower-1-svgrepo-com</title>
    <g id="页面-1" stroke="none" stroke-width="1" fill="none" fill-rule="evenodd">
        <g id="形状库素材-植物" transform="translate(-800.000000, -394.000000)" fill="#545458" fill-rule="nonzero">
            <g id="crest-like-flower-1-svgrepo-com" transform="translate(800.000000, 394.974297)">
                <path d="M27.3650872,25.3075166 C27.733055,25.1426342 28.1190697,25.0138455 28.5213734,24.9197441 L28.5213734,17.3215595 C28.5213734,16.5049989 29.1828953,15.8426568 30.0002761,15.8426568 C30.8158991,15.8426568 31.4791787,16.5049989 31.4791787,17.3215595 L31.4791787,24.9197441 C31.9178105,25.0221657 32.3382782,25.1680638 32.7387069,25.3555634 L42.9241509,11.3344646 C43.8773517,8.40208895 42.2717697,5.2503388 39.339394,4.2979583 C37.9818973,3.85674844 36.5809242,3.96456068 35.3703802,4.49553595 C34.9154595,1.94015153 32.6844493,0 30.0003933,0 C27.3000483,0 25.0617725,1.95831555 24.6231407,4.5317468 C23.4015812,3.94452166 21.9626394,3.80588919 20.5725646,4.25811465 C17.705345,5.18869833 16.1377317,8.26790959 17.0692528,11.1332542 L27.3650872,25.3075166 Z" id="路径"></path>
                <path d="M23.5318934,31.9226177 C23.5102137,31.7032433 23.4974403,31.4794157 23.4974403,31.25301 C23.4974403,31.070901 23.5047059,30.8896124 23.520995,30.7111363 L16.2862079,28.3605951 C15.5086707,28.1086426 15.0828124,27.2740353 15.3365227,26.4975528 C15.5884752,25.7200156 16.422145,25.2959151 17.199565,25.5469301 L24.4289615,27.8966509 C24.6609922,27.5152066 24.9292337,27.1598949 25.2300533,26.8354035 L15.0410937,12.8116095 C12.5454748,11.0001295 9.05493638,11.5519641 7.2407611,14.0466455 C6.40345845,15.2002365 6.07170144,16.5675769 6.202248,17.883355 C3.63233237,17.525348 1.09686978,19.0469068 0.268590546,21.6004162 C-0.565079302,24.1668163 0.603980356,26.9024346 2.91643567,28.115791 C1.97952389,29.0945387 1.40495497,30.4220354 1.40495497,31.8827741 C1.40495497,34.8965949 3.84807403,37.3397139 6.86189483,37.3397139 L23.5318934,31.9226177 Z" id="路径"></path>
                <path d="M23.0026759,43.4091914 C22.5224427,44.0688382 21.5963121,44.2156738 20.9366653,43.7345031 C20.2751435,43.2550902 20.1283079,42.3309518 20.6104161,41.66943 L25.0850927,35.5092496 C24.7968122,35.1766723 24.541344,34.8150326 24.3239618,34.4272601 L7.82986123,39.7854111 C5.33611729,41.5986489 4.7833452,45.0910623 6.59564548,47.586564 C7.43283095,48.740155 8.63095303,49.4777313 9.92305927,49.7578087 C8.78669484,52.0938187 9.45184948,54.9738117 11.624852,56.5531438 C13.8069951,58.1389212 16.7700739,57.8697422 18.638624,56.0465435 C19.2801068,57.2391578 20.3639714,58.1978664 21.7539289,58.6490371 C24.6192735,59.5805583 27.6984848,58.0110699 28.630006,55.144905 L28.630006,37.6087758 C28.2332101,37.5235807 27.8470782,37.402995 27.4792275,37.2480735 L23.0026759,43.4091914 Z" id="路径"></path>
                <path d="M52.2919797,39.9449029 L35.6165906,34.5268692 C35.4135051,34.8765559 35.1779588,35.2055004 34.9133501,35.5091324 L39.3880267,41.6693128 C39.8701349,42.3308346 39.7234165,43.254973 39.0618947,43.7343859 C38.4003729,44.2155566 37.4761173,44.0688382 36.9957669,43.4073164 L32.5193325,37.247136 C32.1187866,37.4167059 31.694686,37.5461978 31.2561715,37.6313929 L31.2561715,54.9790851 C32.2093723,57.9132186 35.3592474,59.51716 38.2933809,58.565717 C39.6491198,58.1235697 40.720211,57.2127906 41.3871234,56.0719731 C43.2575486,57.8717343 46.2007055,58.1308353 48.373708,56.5531438 C50.5576089,54.9664289 51.217373,52.0648735 50.0610867,49.726051 C51.3949116,49.4840594 52.6400258,48.7483581 53.4991252,47.5666422 C55.2697069,45.1282106 54.729591,41.7146642 52.2919797,39.9449029 Z" id="路径"></path>
                <path d="M59.7317273,21.6002991 C58.8980574,19.0349537 56.3425558,17.5098793 53.7582262,17.8878081 C53.9393976,16.5439051 53.6276796,15.132971 52.7668223,13.9504348 C50.9961235,11.5120033 47.5835146,10.9717702 45.1459033,12.744344 L34.846319,26.9204814 C35.1163183,27.221301 35.3591303,27.5484877 35.5694813,27.8964166 L42.7988778,25.5466957 C43.576415,25.2956807 44.4099676,25.7197812 44.6637951,26.4973184 C44.9138727,27.2739181 44.4898893,28.1074707 43.7141099,28.3603608 L36.4793228,30.7109019 C36.4937369,30.8894952 36.5010025,31.0706667 36.5010025,31.2527756 C36.5010025,31.5182046 36.4845963,31.7810556 36.4538932,32.0374612 L52.9444781,37.3956122 C56.02908,37.3956122 58.5300896,34.8946027 58.5300896,31.8108211 C58.5300896,30.3845355 57.9936065,29.0842262 57.1147024,28.0973926 C59.4036031,26.8760675 60.5617643,24.1549804 59.7317273,21.6002991 Z" id="路径"></path>
                <path d="M34.8101082,31.2520725 C34.8101082,28.5952039 32.6570274,26.4411857 30.0001589,26.4411857 C27.3432904,26.4411857 25.1884519,28.5952039 25.1884519,31.2520725 C25.1884519,33.9098785 27.3434076,36.0637795 30.0001589,36.0637795 C32.6570274,36.0637795 34.8101082,33.9098785 34.8101082,31.2520725 Z" id="路径"></path>
            </g>
        </g>
    </g>
</svg>
