<?xml version="1.0" encoding="UTF-8"?>
<svg width="61px" height="48px" viewBox="0 0 61 48" version="1.1" xmlns="http://www.w3.org/2000/svg" xmlns:xlink="http://www.w3.org/1999/xlink">
    <title>roses-group-svgrepo-com</title>
    <g id="页面-1" stroke="none" stroke-width="1" fill="none" fill-rule="evenodd">
        <g id="形状库素材-植物" transform="translate(-399.000000, -404.000000)" fill="#545458" fill-rule="nonzero">
            <g id="roses-group-svgrepo-com" transform="translate(399.258585, 404.220202)">
                <path d="M0.329609992,20.8432133 C0.33045805,20.8440613 0.331306109,20.8440613 0.332275318,20.8451517 C0.39793926,20.892643 0.46638968,20.9344401 0.536657367,20.9700586 C0.943361894,21.1761367 1.35188369,21.3813668 1.7623439,21.5801759 C1.76416117,21.581024 1.76513038,21.581024 1.76597844,21.5821144 C1.79687199,21.5939872 1.82788669,21.6067081 1.8591437,21.6185809 C2.58677772,21.903165 3.31283677,22.1993796 4.01321177,22.5442971 C4.02145005,22.5478105 4.02956718,22.5515661 4.03780546,22.5553218 C4.81850369,22.9145351 5.61180165,23.2547276 6.21634606,23.9076114 C6.2765582,23.9724272 6.33580113,24.0362739 6.39601327,24.1010898 C6.39686133,24.1019379 6.39770939,24.1037551 6.3996478,24.1046032 C7.33614646,24.9409098 8.11963117,25.9313207 8.98961783,26.8541293 C9.87971559,27.7971701 11.0032717,28.0433493 12.2052126,27.7679727 C13.2266382,27.5345144 14.2114762,27.1395615 15.2129119,26.8166936 C15.2101254,26.7838616 15.2074601,26.7519989 15.2046736,26.7190457 C14.4668629,26.4173793 13.7090622,26.1546024 12.9959664,25.801689 C11.155801,24.8909955 9.45483838,23.7455111 7.97497666,22.3175021 C7.30985666,21.6756431 6.69162216,20.9852025 6.12754224,20.2528436 C5.55679901,19.5117618 5.09169961,18.7107101 4.5692957,17.9378867 C4.42718536,17.7272048 4.27756365,17.4709701 3.94827473,17.5803696 C2.99529951,17.8949992 2.04959336,18.2269535 1.21789048,18.8088426 C0.758242884,19.1298932 0.300533708,19.4407672 0.0387259975,19.967896 C0.0378779392,19.968744 0.0378779392,19.9698344 0.0378779392,19.9706825 C-0.0132478608,20.1412633 -0.016034338,20.3216574 0.0505988136,20.4859384 C0.108751382,20.6270796 0.211851041,20.7438693 0.329609992,20.8432133 Z" id="路径"></path>
                <path d="M5.20109913,12.2234276 C5.25307299,12.2488694 5.31146786,12.271767 5.36889352,12.2772188 C5.86864216,12.3273754 6.37105612,12.357542 6.86898749,12.424054 C7.3194276,12.4851142 7.76635432,12.576341 8.21146377,12.6702332 C8.52233771,12.7368664 8.82703294,12.8317277 9.1753426,12.9246507 C9.16165252,12.7997438 9.16528705,12.741349 9.14796243,12.6911924 C8.68455915,11.3493218 8.12423492,10.0307123 7.81796472,8.64013905 C7.73679343,8.27183944 7.67658129,7.87216169 7.83371438,7.52930383 C8.03349268,7.09376532 8.54511414,6.87048369 9.02450937,6.87084714 C9.48924532,6.87133175 9.89183071,7.19153433 10.344815,7.17905576 C10.8009492,7.16645603 11.2192842,6.80057946 11.4438985,6.42937223 C11.7459284,5.93010819 11.853753,5.33804235 12.1045359,4.811277 C12.4280096,4.13210346 13.0080815,3.59067881 13.6871339,3.27520113 C14.5508207,2.87394841 15.0980606,3.05991547 15.9788297,3.13006201 C16.3241106,3.15756333 16.6875641,3.0985627 16.9698464,2.89769404 C18.1709392,2.04285128 16.6274731,1.421588 15.9473304,1.16462634 C14.8039055,0.732480063 13.5017726,0.776215641 12.3519267,1.1602649 C10.8113682,1.67479398 9.51093138,2.73922829 8.40191344,3.92578299 C7.29289549,5.1123377 6.34101063,6.4371259 5.25392105,7.644034 C4.84733767,8.09556447 4.41616061,8.5382509 4.13787634,9.07834288 C3.55489683,10.2100161 4.06215684,11.6554709 5.20109913,12.2234276 Z" id="路径"></path>
                <path d="M15.1294387,4.25398155 C14.3105779,4.26040256 13.5544733,4.54135216 13.0821049,5.20053576 C12.5449205,5.95106735 12.3488979,6.16441458 13.1076678,6.85303792 C13.3767445,7.09558259 13.6839839,7.2963301 13.9730507,7.51609835 C13.9656604,7.53524024 13.9575433,7.55426098 13.949305,7.57352402 C13.3801368,7.44679988 12.8112108,7.31995459 12.2157527,7.1886267 C12.0835768,7.34903087 11.9212342,7.54783996 11.7270289,7.78408477 C12.8742094,8.08138978 13.8983004,8.53546442 15.1185351,8.71888732 C14.9872072,8.39880589 14.9116089,8.18170296 14.8121438,7.97574595 C14.5167772,7.35920757 14.4219158,6.74460761 14.8961015,6.1810123 C15.1094488,5.92744287 15.3665316,5.68598856 15.6519638,5.52534209 C16.2383355,5.19617432 16.8575392,4.92443221 17.5049712,4.60883337 C17.38382,4.54765202 17.2770858,4.48489571 17.1647786,4.4382525 C16.5065642,4.16735845 15.8126103,4.24949896 15.1294387,4.25398155 Z" id="路径"></path>
                <path d="M21.4100373,5.04376613 C21.4083412,5.04291807 21.407372,5.04182698 21.4055547,5.04182698 C21.0687544,5.0415854 20.7341348,5.10191869 20.3911558,5.10640129 C19.9873589,5.11173194 19.5836832,5.0820499 19.1801286,5.10131294 C18.0543918,5.15510406 16.7023446,5.57392371 15.8232716,6.30470766 C15.5837557,6.5038802 15.3855523,6.76750518 15.3229172,7.07268502 C15.2415036,7.4695763 15.4066326,7.89299969 15.6944879,8.17831073 C16.299638,8.7782514 17.2876259,8.78939731 18.0745029,8.66327892 C18.3130496,8.6251163 18.5654075,8.55496976 18.7176945,8.36742773 C18.889608,8.15565546 18.8806429,7.82685114 18.7191483,7.60696174 C18.5576538,7.38719349 18.2673756,7.27973239 17.9964815,7.3117163 C17.5536739,7.36381131 17.3342691,7.70049046 17.1026281,8.03450427 C17.0398718,7.88585177 17.0608309,7.71151521 17.1296448,7.56577034 C17.1984587,7.41990431 17.3107658,7.29899543 17.4311901,7.19165548 C17.7488485,6.90840401 18.1359265,6.70365851 18.5490521,6.60007425 C18.8339997,6.5287162 19.1526273,6.50969546 19.4057121,6.65859027 C19.5956772,6.77029166 19.7289435,6.97334105 19.7560813,7.19189778 C19.7900037,7.46521486 19.6190593,7.75488734 19.5025119,7.98822452 C19.5016638,7.99016294 19.5016638,7.99088985 19.5016638,7.99185906 C19.4980293,8.12052161 19.5937387,8.14317689 19.7151322,8.12233888 C19.7159803,8.12233888 19.7177975,8.12149082 19.720584,8.12040046 C19.7214321,8.12124852 19.7225224,8.11955241 19.7232494,8.11955241 C20.2151232,7.93273728 20.6853109,7.69406944 21.1636158,7.47648192 C21.4812742,7.33194855 22.2725126,7.16112538 21.9433448,6.6468386 C21.8810731,6.5495542 21.7948135,6.47044248 21.7209112,6.38175981 C21.5683819,6.19870037 21.4721879,5.97117845 21.4393559,5.73566054 C21.4285734,5.65751803 21.4542575,5.51795186 21.468311,5.38298944 C21.4834549,5.2356696 21.4850299,5.09368041 21.4100373,5.04376613 Z" id="路径"></path>
                <path d="M12.2759649,13.989085 C12.2139355,14.2908726 12.178317,14.5571629 12.521296,14.7879559 C13.0848913,15.1682495 13.6065683,15.6140858 14.1253377,16.057378 C14.4801895,16.360256 14.5448843,16.3391757 14.8603619,15.9963178 C15.355628,15.4592546 15.8799703,14.9439986 16.4279371,14.4606054 C17.0890591,13.8787163 17.8112414,13.3653987 18.462429,12.7735752 C18.9867713,12.2984202 19.4528399,11.7566321 19.9315082,11.2333802 C20.7056643,10.3843527 21.3522482,9.44700594 21.8183168,8.39371754 C21.9227491,8.15771503 21.9166916,7.89081897 21.9398314,7.6380976 C21.9209318,7.84381231 20.8286328,8.29946191 20.6400004,8.39080991 C20.162907,8.62160291 19.6678833,8.81532366 19.1615925,8.97209329 C18.1469513,9.28587486 17.0867573,9.44991357 16.0249883,9.46420941 C13.8062255,9.4942549 12.0342683,8.79763559 10.1346177,7.77887527 C9.72512668,7.55910702 9.08859835,7.74701251 8.93267678,8.14172307 C8.77493793,8.5429758 8.72575055,8.96615688 8.8633783,9.38570344 C9.04668004,9.94372579 9.24548913,10.4955694 9.43605995,11.0499573 C9.68332952,11.7722606 9.92672225,12.4963813 10.176536,13.2177154 C10.1984644,13.280714 10.2357789,13.3563124 10.2896912,13.3882963 C10.743887,13.6564039 11.2034134,13.9162731 11.7051005,14.2036438 C12.0798211,12.5658009 11.3731462,11.2863232 10.5478644,10.0241702 C11.0111465,10.3168714 11.4406275,10.624232 11.8435763,10.9634553 C12.3972372,11.430372 12.6442645,12.0459412 12.5513415,12.7636408 C12.4976715,13.176524 12.3590746,13.5786248 12.2759649,13.989085 Z M10.1939818,8.70798371 C10.4264709,8.80005861 10.6801615,8.85930154 10.8870877,8.99147748 C11.9859289,9.69185248 13.1305653,10.2608996 14.40447,10.5946711 C15.5499545,10.8956107 16.6916833,10.9229908 17.8461329,10.8007493 C18.3284358,10.7496235 18.8018946,10.6146611 19.3471961,10.5034443 C19.0845403,11.1436071 18.579461,11.4436986 18.0924333,11.6316041 C17.4267075,11.8896561 16.6888968,12.1166934 15.989491,12.0948862 C14.8030574,12.0584197 13.6722323,11.7464554 12.745668,10.8682305 C11.9478875,10.111399 11.0503995,9.45839415 10.1939818,8.70798371 Z" id="形状"></path>
                <path d="M15.6874611,16.8056078 C15.6948513,16.8000348 15.7018781,16.7942195 15.709026,16.788162 C15.8679763,16.655986 15.9834334,16.4508771 16.114519,16.2925325 C16.6112389,15.6916226 17.1719266,15.0987087 17.8108779,14.6475417 C18.3739886,14.2500447 19.078725,14.0251881 19.6995037,13.7104373 C21.0348321,13.0335656 22.3324824,12.1735134 23.1577643,10.8934299 C23.7503147,9.97413474 24.0591291,8.90061409 24.2646015,7.82648769 C24.3710934,7.27040375 24.450084,6.68512238 24.2750205,6.14660536 C24.1100126,5.63995111 22.9400556,4.57769752 22.4239516,5.22440254 C22.0926031,5.63958765 22.6498985,6.47625773 22.6838209,6.92379021 C22.7505752,7.80795156 22.534926,8.70871062 22.1387617,9.49728368 C21.5116831,10.7450197 20.4811712,11.7402767 19.4138292,12.6405512 C18.6102334,13.3182709 17.7721095,13.9574645 17.0115224,14.6849774 C16.3539138,15.3138732 15.4914385,16.0164289 15.3746487,16.9818827 C15.3815543,16.9302723 15.6415448,16.841105 15.6874611,16.8056078 Z" id="路径"></path>
                <path d="M16.2648676,17.6686888 C17.4725026,18.3025518 18.7144234,18.8659048 19.9613114,19.423806 C20.3729832,19.608077 20.8293597,19.749945 21.2789517,19.7855634 C21.7104922,19.8198492 22.1359752,19.7564872 22.5102112,19.5391419 C23.0307978,19.2367486 23.3583907,18.6874491 23.5879721,18.1308806 C23.953243,17.24575 24.1195835,16.2816289 24.0873573,15.3253826 C24.0643386,14.642211 23.9848634,13.1522938 23.3911015,12.682106 C23.1285669,12.4743317 23.0459417,12.6795618 22.7720189,12.8822478 C21.7482914,13.6394427 20.5372642,14.0805542 19.390447,14.6097425 C18.911173,14.8309646 15.1846837,17.1049723 16.2648676,17.6686888 Z" id="路径"></path>
                <path d="M6.3428279,14.7107826 C7.26248654,14.9185569 8.17427036,15.1769724 9.04522623,15.5415163 C9.48391467,15.7251815 9.9114572,15.9356211 10.3202213,16.1790138 C10.7205048,16.4171971 11.0176887,16.7285556 11.3658772,17.0339777 C11.4316623,17.0916457 11.5658978,17.1510098 11.4641308,17.2244274 C11.4104608,17.2631958 10.7755074,16.9222763 10.6859767,16.8853252 C10.4135077,16.7725335 10.1389791,16.6650724 9.86251212,16.5628208 C9.30945696,16.3583176 8.74864813,16.175137 8.18153943,16.0136425 C7.08875574,15.7024051 5.98615881,15.506019 4.86647956,15.3359227 C4.66476284,15.3053926 4.24364132,15.3165385 4.07596808,15.1826665 C4.08505442,15.2374268 4.08699284,15.2692896 4.09607918,15.2930352 C4.09777529,15.2966697 4.09971371,15.3003043 4.10153098,15.30406 C4.60721602,16.3138551 5.33254817,17.2252755 6.02880403,18.1050754 C6.71015829,18.9659757 7.43888267,19.7895614 8.21013111,20.5711077 C8.99700805,21.368646 9.82810518,22.1223275 10.6985764,22.8276697 C11.1382341,23.1839753 11.5880684,23.5279235 12.0471103,23.8591509 C12.4850718,24.1748709 12.9341793,24.4220193 13.3888597,24.7017574 C14.3354139,25.2836465 15.3649566,25.6865954 16.4375081,25.9729968 C18.7862661,26.6024983 22.287293,25.6561864 23.5018337,23.376848 C23.7709104,22.8717687 24.0465294,21.4001453 23.4241757,20.9688471 C23.3491832,20.9168732 23.2612274,20.8800432 23.1586123,20.8618706 C18.4214799,20.019991 14.657676,17.4936253 10.735891,14.8395663 C10.266309,14.5660069 9.78667148,14.3101356 9.29419191,14.0776465 C8.250111,13.5845612 7.14121421,13.2119002 5.995124,13.0521017 C4.90645945,12.9004205 3.79562424,12.8956956 2.74415311,13.2597549 C2.3651922,13.3909616 2.12446479,13.5167165 1.87247033,13.8198368 C2.56400129,14.0622603 3.36299336,14.1350722 4.08384291,14.2670058 C4.83849364,14.4051182 5.59399243,14.5416556 6.3428279,14.7107826 Z" id="路径"></path>
                <path d="M33.748922,15.0905916 C33.2317276,14.3418773 32.5240835,13.7946374 31.8218913,13.2375842 C31.1590731,12.7116669 29.717374,11.6543805 28.8587756,12.1893842 C28.4450443,12.447315 28.1908691,12.8914553 27.9537762,13.317544 C27.6221854,13.9130021 24.3435921,20.2476341 23.9782001,20.0682092 C25.1428265,20.6445253 25.225815,21.645961 24.8645422,22.7948377 C24.9539518,22.7829649 24.9895702,22.7849033 25.0186465,22.7729094 C26.3417386,22.242146 27.3296053,21.2445872 28.3929493,20.3498857 C28.9593311,19.8727923 29.5318916,19.400545 30.1311053,18.9673083 C31.3457671,18.0909007 32.6955125,17.4807833 34.125581,17.041368 C34.6372025,16.8844772 34.7547192,16.5853549 34.4729215,16.1257073 C34.2540013,15.7673421 33.9886802,15.4372051 33.748922,15.0905916 Z" id="路径"></path>
                <path d="M18.878341,3.73533333 C19.5243191,3.75738285 20.4107823,3.69353617 20.5286624,3.66506564 C21.3345601,3.46964878 22.0074338,2.99837067 22.8403482,2.86583128 C23.8107692,2.71160582 24.8050569,2.81034403 25.661717,3.31905786 C26.4203657,3.76961911 27.1645974,4.24647018 27.9114945,4.71617332 C27.9845486,4.76184732 28.033736,4.8420494 28.1686984,4.9852501 C27.8266886,4.9232207 27.5795402,4.91049982 27.3552894,4.8311458 C26.6694525,4.58775307 26.0065132,4.26670243 25.3057748,4.07952385 C24.873992,3.96455137 24.4088926,4.05274943 23.9695984,4.05989735 C24.0135763,4.28317899 24.1459945,4.36980208 24.3031276,4.53262928 C24.4855813,4.72162513 24.6482873,4.92964171 24.7883381,5.15183298 C25.0686819,5.59609438 25.2592527,6.09766028 25.3381222,6.61727771 C25.4220799,7.17033287 25.378829,7.74095495 25.2203632,8.2771701 C25.0539015,8.83967505 24.7311547,9.33554685 24.5094481,9.87588113 C24.3399576,10.2890067 24.1659844,10.701163 24.0338085,11.1261614 C23.7947772,11.8894138 24.059856,12.5853062 24.3781202,13.2655701 C24.436515,13.3895078 24.5104173,13.5072667 24.581533,13.6359293 C24.7828863,13.0575535 24.9296004,12.5066791 25.2292072,11.9634372 C25.5283295,11.4209222 25.8828179,10.9119661 26.2204662,10.393439 C26.7766713,9.53908084 27.3002868,8.61978565 27.4031441,7.60562908 C27.4437298,7.20631477 27.5230838,6.74969596 28.0183498,6.72267924 C28.1537968,7.15676394 28.2785826,7.58842561 28.2785826,8.04770975 C28.281369,8.06515552 28.2822171,8.0833282 28.2840344,8.10065282 C28.3974319,9.17647534 27.44797,10.0273201 26.8969745,10.8391542 C26.2782554,11.7510592 25.7489458,12.7280223 25.3730137,13.7655611 C25.3204341,13.9107002 25.2708833,14.0569297 25.2244824,14.2040072 C25.0320943,14.8150938 24.8951934,15.4421723 24.7867631,16.0731277 C24.731397,16.3953898 24.6835423,16.7187424 24.639201,17.0425795 C24.6020076,17.3140793 24.4722546,17.7261145 24.5301649,17.9879222 C24.6188476,17.9704764 24.6881461,17.7961398 24.7246126,17.7131513 C24.9617054,17.1741497 25.1623318,16.6160061 25.4360123,16.0962676 C26.0532776,14.9204953 26.6799927,13.749448 27.3064655,12.5790064 C27.923125,11.4271009 28.7274477,10.4101579 29.4459954,9.32343173 C30.1844119,8.20666011 30.8141557,6.95201844 30.8336611,5.61329785 C30.8532875,4.2744561 30.114023,2.85165659 28.8418144,2.4341696 C27.0995392,1.86221486 25.1826852,1.46023523 23.3537869,1.33242073 C21.4684322,1.20072939 18.6848625,1.23634784 18.1946849,3.56766009 C18.1716661,3.67548464 18.4790267,3.72188555 18.878341,3.73533333 Z" id="路径"></path>
                <path d="M30.3508736,3.62557036 C30.3473602,3.61466675 30.3432411,3.60449005 30.3394854,3.59370759 C30.1346187,3.15223268 29.8350118,2.76939493 29.3905081,2.54175186 C29.2253791,2.45718833 29.0526175,2.39564353 28.8754945,2.33131225 C28.8326069,2.32295282 28.789356,2.31507799 28.7448935,2.30865698 C28.7302342,2.30671856 28.7155749,2.30417438 28.7011579,2.30235712 C28.93922,2.36620379 29.1718303,2.44725393 29.3906293,2.55956108 C29.8430078,2.79120215 30.1456435,3.17428219 30.3508736,3.62557036 Z" id="路径"></path>
                <path d="M59.987361,16.2925325 C59.987361,16.2918056 59.9874822,16.2909575 59.9868764,16.2899883 C59.8210204,15.7939954 59.4747704,15.4517433 59.1262184,15.110945 C58.4951419,14.493922 57.741218,14.0917001 56.9760272,13.7177064 C56.711433,13.588438 56.5661727,13.7659245 56.430968,13.907308 C55.9344904,14.4263196 55.4842926,14.9593848 54.9509851,15.4179421 C54.4238563,15.8710475 53.8481459,16.2947132 53.2501436,16.6197618 C51.8473341,17.3818028 50.3413037,17.8788861 48.7682767,18.2442781 C48.1493153,18.3880845 47.4771685,18.4582311 46.8277982,18.5742939 C46.8231944,18.5962223 46.8187118,18.6173026 46.8138658,18.6392309 C47.6436302,18.9765158 48.4693967,19.3763147 49.2960113,19.7154169 C50.1714497,20.0747513 51.2212247,20.1700973 52.0623774,19.6805254 C52.85301,19.2201509 53.584642,18.6508614 54.4261582,18.2274381 C54.4278543,18.2271958 54.4287024,18.2259842 54.4294293,18.2254996 C54.4843107,18.1901235 54.5384653,18.1551108 54.593468,18.1196135 C55.1454328,17.7606425 55.8329657,17.6606928 56.5001453,17.5538375 C56.5071721,17.552626 56.5144412,17.5517779 56.5213468,17.5506875 C57.1147453,17.4475879 57.7475179,17.3494554 58.3632082,17.2782185 C58.389498,17.2751897 58.4160301,17.2715552 58.4420777,17.2686476 C58.4430469,17.2680418 58.4437738,17.2684053 58.4451064,17.2679207 C58.7966872,17.1947454 59.1466929,17.1139375 59.4948814,17.0285259 C59.5549724,17.0137455 59.6139731,16.9932709 59.6715199,16.9675869 C59.6723679,16.9669811 59.6730948,16.9672234 59.6738217,16.9666177 C59.7780118,16.9082228 59.8725097,16.8315341 59.9315103,16.7245576 C60.000203,16.6006199 60.0138931,16.4465156 59.987361,16.2925325 Z" id="路径"></path>
                <path d="M46.9952291,2.356754 C47.2223876,2.51570435 47.5293847,2.58451823 47.8268108,2.59093924 C48.5859442,2.6071735 49.0687316,2.51073715 49.7813429,2.82100534 C50.3417883,3.06500382 50.8011936,3.45280877 51.0298059,3.93062904 C51.2072923,4.30135167 51.2570855,4.71338684 51.4796402,5.06993478 C51.6452539,5.33501357 51.9768447,5.60566532 52.3662246,5.6288052 C52.7525757,5.65182392 53.1207542,5.43581136 53.5180089,5.44356504 C53.9278634,5.45168216 54.3481368,5.61669008 54.4856434,5.93495424 C54.5938314,6.18549489 54.5136293,6.47892306 54.4151334,6.73988271 C54.042957,7.72472069 53.4861461,8.65915978 52.9805822,9.57930303 C52.9620461,9.61322536 52.9609557,9.65550713 52.9399966,9.74322058 C53.2426323,9.70324069 53.5085591,9.65708209 53.776909,9.63139804 C54.1608371,9.59481038 54.5469459,9.55870733 54.9322067,9.54332113 C55.3581742,9.52635996 55.7858379,9.53435594 56.2099882,9.52708687 C56.2588122,9.52623881 56.3104226,9.51266988 56.3557331,9.49619332 C57.2930798,9.15345662 57.9109509,8.07254575 57.5032771,7.12805111 C57.3243368,6.71395636 56.9745734,6.3701293 56.6723011,6.03126943 C55.878882,5.14165628 55.1010914,4.18007933 54.2708424,3.33747284 C53.4055806,2.45936905 52.2878398,1.76480931 51.0792355,1.41444008 C50.0814344,1.1252522 49.0080349,1.06140553 47.9919399,1.26857406 C47.3943011,1.390331 46.0278369,1.67976118 46.9952291,2.356754 Z" id="路径"></path>
                <path d="M48.5396644,4.72429045 C48.9060256,5.13681024 48.7814822,5.54872426 48.4849041,5.94379828 C48.3855601,6.07609537 48.3052369,6.2174788 48.1701533,6.42379927 C49.1728005,6.37315808 50.1536405,6.16913948 51.13969,5.99492408 C50.9905529,5.82276824 50.8657672,5.67823488 50.7640002,5.56168744 C50.244625,5.62395915 49.7482686,5.67871948 49.2519122,5.72887608 C49.2463393,5.71542829 49.2406452,5.70185936 49.235678,5.68841158 C49.4988183,5.557326 49.7768603,5.43871899 50.0241299,5.28715886 C50.7229299,4.85864712 50.5710063,4.69618338 50.163696,4.15984708 C49.8058154,3.68832667 49.1766773,3.46298547 48.4755754,3.40665017 C47.8907787,3.35952235 47.3013782,3.2512132 46.7202159,3.37636237 C46.6212354,3.39768498 46.525526,3.4306381 46.4175803,3.46068359 C46.9488282,3.7321834 47.4598439,3.96430907 47.9385122,4.22890326 C48.1713648,4.35792927 48.3746565,4.53868684 48.5396644,4.72429045 Z" id="路径"></path>
                <path d="M42.7019946,4.18940797 C42.6329384,4.24053377 42.554069,4.28354244 42.4943414,4.34205846 C42.1783792,4.65184204 42.8375627,4.86955072 43.0971897,5.0058458 C43.4883869,5.21119706 43.8718304,5.42599811 44.2776869,5.60445381 C44.2784138,5.60457496 44.2791407,5.60590762 44.2801099,5.60530187 C44.2824118,5.60614993 44.2838656,5.60699798 44.2845925,5.60724029 C44.3863595,5.63437815 44.4678942,5.62674563 44.4755268,5.54157634 C44.4755268,5.54097059 44.4756479,5.54036483 44.4751633,5.53903217 C44.3920536,5.36917821 44.2670256,5.15486176 44.3151226,4.97361959 C44.3536487,4.82860162 44.4814632,4.70611777 44.6513171,4.65123629 C44.8776275,4.57793982 45.148037,4.62409842 45.3862202,4.70078712 C45.7313799,4.81188276 46.0475845,4.98597701 46.2992156,5.20538181 C46.3945615,5.28837037 46.4821538,5.37971836 46.5307355,5.48378723 C46.5794382,5.5878561 46.58489,5.70706886 46.5209222,5.80168794 C46.3464645,5.55672024 46.182547,5.31090449 45.8078263,5.23385233 C45.5787295,5.18660337 45.3233428,5.23033895 45.1698442,5.36227259 C45.0167091,5.49432738 44.9858156,5.71542829 45.1177492,5.87486325 C45.2344178,6.01624669 45.4450997,6.08808934 45.6460895,6.13606521 C46.3093923,6.29501556 47.1552698,6.37231002 47.7152306,6.01479287 C47.9815209,5.84481776 48.1525864,5.57065263 48.1110315,5.29685095 C48.0789265,5.08629019 47.9267606,4.88711764 47.7366744,4.74173622 C46.947859,4.13876678 45.9448483,3.79142633 44.9529836,3.62435884 C44.6110949,3.56669088 44.2644814,3.54076453 43.9215024,3.48806376 C43.6300126,3.44311667 43.3501534,3.35964351 43.0643578,3.31518102 C43.062904,3.31493872 43.0619347,3.31542332 43.0602386,3.31578678 C42.9931209,3.34001701 42.984398,3.43693796 42.9869422,3.53967417 C42.9893652,3.63368749 43.0011168,3.7321834 42.9863364,3.78427841 C42.9424797,3.94116919 42.8444684,4.08400644 42.7019946,4.18940797 Z" id="路径"></path>
                <path d="M50.6955497,10.4305113 C51.1434457,10.2761646 51.5534213,10.1341755 51.9592778,9.98285763 C52.0072536,9.9648061 52.0446893,9.91464951 52.0678292,9.8722466 C52.3332715,9.38606689 52.5933831,8.89177006 52.8573715,8.39517135 C53.0601786,8.01378742 53.2708605,7.63131313 53.4687004,7.24047941 C53.6173529,6.94668779 53.6071762,6.6411445 53.5021381,6.35074511 C53.398675,6.06494946 52.8663367,5.9149643 52.5020351,6.05586312 C50.8608,6.69105879 49.1085904,7.0451837 47.3418426,6.85497634 C46.4357529,6.75757079 45.5397188,6.55197722 44.6962642,6.23807451 C44.2751427,6.08142602 43.8669844,5.89800313 43.477241,5.68792698 C43.3232578,5.60481726 42.4269814,5.16455386 42.4256487,5.02123201 C42.4272237,5.19738583 42.4031146,5.37959721 42.4749573,5.55357031 C42.7955233,6.33027056 43.27928,7.03936844 43.8798264,7.6892234 C44.2506702,8.09059727 44.6117007,8.49972482 45.0256743,8.86778212 C45.5403245,9.32512784 46.122456,9.7349823 46.6461925,10.1856647 C47.0806407,10.5595373 47.4926759,10.9546113 47.8772097,11.3643446 C48.1222986,11.6255465 48.1760897,11.6468692 48.5002903,11.4750768 C48.9742337,11.2238092 49.4509636,10.9685437 49.9582236,10.7595579 C50.2666746,10.6323491 50.2551652,10.4452917 50.2245139,10.2327925 C50.1827168,9.9442104 50.0936707,9.65587058 50.0774364,9.36837882 C50.0493293,8.86887248 50.3045949,8.467014 50.8106434,8.18267217 C51.178943,7.97574595 51.5682017,7.78929428 51.9849618,7.61035398 C51.194208,8.33774569 50.5431416,9.30428984 50.6955497,10.4305113 Z M50.0472698,8.05534228 C49.2011499,8.57605007 48.1649438,8.71464702 47.187496,8.63093156 C46.594461,8.58004806 45.9729554,8.36718543 45.4224444,8.13287904 C45.0199802,7.96157126 44.6091565,7.71175752 44.4302162,7.25368489 C44.8878042,7.38234745 45.2842109,7.51670411 45.6911578,7.59617929 C46.6604884,7.78553859 47.6661644,7.85907736 48.6485793,7.74677021 C49.7236749,7.62380176 50.7804767,7.30989904 51.7706454,6.87242211 C51.9566124,6.79028161 52.1779556,6.76072072 52.3835492,6.70596038 C51.5969146,7.19638038 50.780719,7.60393296 50.0472698,8.05534228 Z" id="形状"></path>
                <path d="M42.1885559,3.30052173 C41.7980856,2.78223696 40.7343782,3.33589787 40.5583455,3.6654291 C40.3712881,4.01555602 40.3951549,4.43922171 40.4442211,4.84362437 C40.5392036,5.62504951 40.7194766,6.42610114 41.1584073,7.11835901 C41.8005086,8.13130407 42.8533124,8.83858469 43.9032086,9.38739955 C44.4097417,9.65211489 44.9976884,9.87079278 45.4510361,10.1884512 C45.9655652,10.548876 46.4032844,10.9977411 46.7853953,11.4481812 C46.886193,11.5669094 46.9703931,11.7158042 47.096875,11.8197519 C47.1025691,11.8243556 47.1082632,11.8290805 47.1140784,11.8335631 C47.1509084,11.8617914 47.3665575,11.9463549 47.3689805,11.9818522 C47.3372389,11.319034 46.6497059,10.7667058 46.1319058,10.2847664 C45.5330555,9.72734978 44.8600606,9.21148803 44.2228054,8.69065909 C43.4009158,8.01887577 42.5973199,7.22787968 42.1242246,6.27260259 C41.8397616,5.69810367 41.7264852,5.03516439 41.8466672,4.43461797 C41.907364,4.1307708 42.4390965,3.63308173 42.1885559,3.30052173 Z" id="路径"></path>
                <path d="M40.2680673,12.1023976 C40.4236254,12.5035292 40.663747,12.9023589 41.0871704,13.1406633 C41.3917445,13.311971 41.7510789,13.3804215 42.1227708,13.3850252 C42.5100911,13.3896289 42.9108592,13.3243285 43.2760089,13.2305574 C44.3718214,12.9488809 46.0785992,12.7885979 46.5601752,12.3610554 C46.9674855,11.9995402 44.8548511,10.4008292 44.1037138,10.0225952 C43.2041662,9.56948978 42.1752292,9.15042784 41.3425571,8.53340485 C41.1247273,8.37203147 41.0686343,8.21550414 40.8305722,8.33338425 C40.2920552,8.600038 40.1160225,9.63515373 40.0464818,10.1107933 C39.9495608,10.7767613 40.0205554,11.4642943 40.2680673,12.1023976 Z" id="路径"></path>
                <path d="M55.6220415,10.0673 C54.6531955,10.1076433 53.6870148,10.2869471 52.7541507,10.5520259 C52.3203083,10.6752366 51.8931292,10.8116529 51.4741884,10.959215 C47.8850846,12.4475573 44.2739312,13.6342332 40.4375578,14.0200997 C40.3494809,14.0289437 40.2704903,14.0497817 40.2026456,14.0826137 C39.6389292,14.3554462 39.7651687,15.4031616 39.9616759,15.7523193 C40.9872207,17.5746755 43.9087815,18.0990178 45.8295124,17.9360695 C46.7601958,17.8572 47.6694355,17.7068514 48.5136169,17.4383804 C48.9191099,17.3093544 49.3172127,17.2037105 49.7103483,17.050212 C50.1225046,16.8893232 50.5271496,16.7187424 50.9239197,16.537379 C51.7095852,16.1780446 52.4642359,15.7755804 53.1844797,15.3215057 C53.8904276,14.8765174 54.5635436,14.3818571 55.2003142,13.8326788 C55.8510173,13.2715065 56.5312812,12.6667198 57.0323625,11.9383589 C57.0341797,11.9358147 57.035997,11.9331494 57.0376931,11.9303629 C57.0472641,11.9130383 57.0512621,11.8885658 57.0633772,11.8471321 C56.9126651,11.9338763 56.5610844,11.8827505 56.3902612,11.8851735 C55.4444339,11.8987425 54.4914587,11.936057 53.550962,12.0423066 C53.0610266,12.0976727 52.5721816,12.1695154 52.0887884,12.2543212 C51.8472129,12.296603 51.6066067,12.3425193 51.3673331,12.3918278 C51.2887059,12.408062 50.7251106,12.576341 50.6823443,12.5436302 C50.601173,12.481722 50.7195377,12.4551899 50.7795075,12.4222367 C51.0974082,12.2479002 51.3723003,12.0621754 51.7292117,11.9365416 C52.0937556,11.8082425 52.471505,11.7029621 52.8565234,11.6157333 C53.6207451,11.4428506 54.4101662,11.3420528 55.2004354,11.2727543 C55.8437482,11.216419 56.4885148,11.1804371 57.1309795,11.1382765 C57.7444891,11.0981754 58.4163936,11.1079887 59.0112459,10.9650303 C58.8273384,10.7003149 58.6377368,10.5830406 58.3324358,10.4528031 C57.4852256,10.0918937 56.5487269,10.0286528 55.6220415,10.0673 Z" id="路径"></path>
                <path d="M31.4604973,10.7937225 C32.5931397,11.2279284 33.6557568,11.7556629 34.6460465,12.436048 C35.1130844,12.7570986 35.5804856,13.1438132 36.0097243,13.5064187 C36.8225276,14.1931036 37.6903335,14.9180723 38.7059439,15.2998197 C38.7298107,15.3087849 38.7605831,15.3076945 38.8361814,15.3176289 C38.6115671,14.5013122 38.7570697,13.7813107 39.7941238,13.4314261 C38.4298403,12.247779 37.6953007,9.92058592 36.9242946,8.32526712 C36.7614674,7.98858797 36.5785291,7.63022277 36.2519055,7.38876846 C35.5745492,6.88805061 34.2899832,7.51815792 33.6958578,7.86537722 C33.0665985,8.23319222 32.4344317,8.61191082 31.9417098,9.19331536 C31.7135821,9.46251329 31.465101,9.72201913 31.2526019,10.0118128 C30.9798905,10.3837469 31.0602138,10.640224 31.4604973,10.7937225 Z" id="路径"></path>
                <path d="M37.5261737,7.85144483 C37.961591,8.74117913 38.3979776,9.65441677 38.8441774,10.5504509 C39.0380193,10.9395885 39.1676511,11.3475046 39.3299936,11.7412459 C39.3550719,11.8018215 39.4012305,11.9285457 39.4754962,11.9459914 C39.5440678,11.7654762 39.4637446,11.46805 39.452114,11.2745716 C39.4380605,11.0437786 39.4210993,10.8127432 39.3978383,10.5814656 C39.3520432,10.1287237 39.2818966,9.67513362 39.1638954,9.22469351 C39.135546,9.11614205 39.1044101,9.00783289 39.0704878,8.90000834 C38.8290335,8.12803299 38.4543129,7.37338226 38.0029036,6.63339082 C37.6010451,5.97457068 36.8730476,5.20174727 37.0508976,4.422624 C37.0538052,4.41002428 37.0559859,4.39669765 37.0596204,4.38421908 C37.0951177,4.04354194 37.2325032,3.74502542 37.3788538,3.44917423 C37.7891929,3.5589372 37.8209345,3.90603535 37.8244479,4.20467302 C37.8330496,4.96320059 38.2015915,5.71288412 38.6059942,6.39811522 C38.8513253,6.81402724 39.1128907,7.2189145 39.3256322,7.63628033 C39.5389794,8.05437307 39.6228161,8.45732191 39.7511152,8.88304717 C39.8208982,8.7993317 39.8924986,8.72385451 39.9508935,8.64268322 C40.2709749,8.19733147 40.5452612,7.74156071 40.3991529,7.18135763 C40.3178604,6.86975678 40.2009495,6.56009435 40.0879155,6.24861466 C39.9398687,5.84118322 39.7042297,5.44744187 39.6056126,5.02522999 C39.5117204,4.62264461 39.517778,4.20939792 39.6293582,3.83031586 C39.7340328,3.47413138 39.931267,3.15017311 40.1996169,2.88400395 C40.3336101,2.7508588 40.4857759,2.63200949 40.6529646,2.52987904 C40.7970133,2.44192328 40.9148934,2.40363951 40.9683211,2.254987 C40.5989312,2.17648103 40.2146396,2.03231112 39.8445227,2.03521875 C39.2434917,2.0398225 38.6649948,2.14377021 38.0757154,2.18580968 C37.8828427,2.19949976 37.6761588,2.15964102 37.3874555,2.13565309 C37.5106663,2.05726827 37.5577941,2.00820204 37.6218831,1.98954476 C38.2776745,1.79764128 38.9346773,1.60137636 39.6028261,1.42752441 C40.3573557,1.23113834 41.1987507,1.34877614 42.0067079,1.61215882 C42.7001773,1.83822693 43.2363924,2.25704657 43.9073277,2.49317023 C44.0054602,2.52769832 44.7546591,2.68083342 45.3069873,2.73595721 C45.6483914,2.77000069 45.914924,2.76818342 45.9024454,2.69440235 C45.6115614,0.970057537 43.0696884,0.659425899 41.6851727,0.463766735 C40.1467949,0.24642151 38.58661,0.0817770497 37.0293326,0.0854697552 C35.9508448,0.0880769113 35.2055227,1.03984062 35.1375569,2.04236667 C35.0640181,3.12400445 35.4479462,4.20721719 35.9877959,5.15050032 C36.5020827,6.04980556 37.0748855,6.92924201 37.5261737,7.85144483 Z" id="路径"></path>
                <path d="M36.5670197,0.0770925761 C36.7558944,0.023984357 36.9536132,0.0186307059 37.1549664,0.0372614118 C37.1428513,0.033406783 37.130615,0.0304087384 37.1183788,0.0267682556 C37.0815488,0.0154185152 37.0449611,0.00749511157 37.0089792,0 C36.8580249,0.00792340366 36.7108262,0.0134912008 36.5683524,0.0533223651 C36.1849089,0.160609534 35.9089265,0.542431931 35.7052713,1.05338439 C35.7015157,1.0664473 35.6972754,1.07843948 35.6933985,1.09171654 C35.8980229,0.567272873 36.1766706,0.186307059 36.5670197,0.0770925761 Z" id="路径"></path>
                <path d="M18.1648817,36.6200052 C18.165972,36.6209744 18.1671835,36.6208532 18.1682739,36.6217013 C18.2499298,36.6641042 18.335826,36.7002073 18.4251144,36.7294047 C18.9417031,36.8985317 19.4286097,37.08462 19.8945571,37.2790676 C19.8966167,37.2799157 19.8977071,37.2799157 19.8985551,37.2807637 C19.9347793,37.2917885 19.9708824,37.3037825 20.006622,37.3150495 C20.8459574,37.5792803 21.6176904,37.9415223 22.2815989,38.3409578 C22.2892314,38.3455615 22.297712,38.3499229 22.305708,38.3545267 C23.0592684,38.7910344 23.778543,39.2649778 24.1818553,40.1870595 C24.2218351,40.2785287 24.2616939,40.3696343 24.3021584,40.4625573 C24.3027641,40.46389 24.3031276,40.4664341 24.3047026,40.4677668 C25.0814028,41.902318 25.6420905,43.45693 26.3090278,44.9382455 C26.9173279,46.2893235 28.2812479,47.5837028 29.8168392,47.2499313 C30.8815158,47.0185325 31.9568537,46.6137664 33.0313435,46.2757546 C33.0244379,46.2192982 33.0180169,46.164659 33.0113536,46.1086871 C32.203881,45.4444152 31.3656359,44.7752972 30.6651398,44.0279155 C29.0783015,42.3344643 27.6209739,40.4328753 26.6266862,38.2625729 C26.2265238,37.3889517 25.9030501,36.5102422 25.6314292,35.6220829 C25.356416,34.7233834 25.1894697,33.8176571 24.8357082,33.0246015 C24.739393,32.8083466 24.6465912,32.5456908 24.1839148,32.6503655 C22.723195,32.980987 21.3231719,33.4647437 20.0278234,34.1439173 C19.2711131,34.5406874 18.4709096,35.0337727 17.9527459,35.6844757 C17.951171,35.6856872 17.9508075,35.6868987 17.9506864,35.6877468 C17.8336543,35.8912808 17.7887072,36.0960263 17.8483136,36.2669706 C17.8995606,36.4148962 18.0221656,36.5278091 18.1648817,36.6200052 Z" id="路径"></path>
                <path d="M40.4503998,18.3768175 C39.2683277,17.6305262 37.858976,17.0184704 36.4369034,17.5057404 C35.0247651,17.9896183 33.905207,19.1819882 32.7948564,20.2002639 C31.5765601,21.3175202 30.3138013,22.3342209 28.9095379,23.1585336 C28.3437619,23.4907301 27.6443561,23.8029367 27.2072426,24.2680361 C26.2350044,25.3027884 26.5850102,26.8763 27.821358,27.5958169 C27.881449,27.6307084 27.9509898,27.6653577 28.0246497,27.6835303 C28.6655395,27.8403 29.2903161,27.9917389 29.8665111,28.1819463 C30.3878247,28.3542233 30.872066,28.5588476 31.3315924,28.7692872 C31.6526431,28.9161225 31.9459501,29.0882783 32.2763294,29.2729127 C32.3173996,29.1636344 32.3472028,29.1151739 32.3502316,29.0676826 C32.4377027,27.735383 32.3498681,26.2978031 32.1319172,25.0126313 C32.0698877,24.646997 32.0435979,24.2205449 32.2604586,23.9364453 C32.5360775,23.575536 33.1670329,23.5344657 33.7364434,23.7180097 C34.2881659,23.8962231 34.7308524,24.3788895 35.2442911,24.5446243 C35.7616066,24.7118129 36.2669282,24.5103385 36.5437587,24.2044318 C36.915814,23.7932446 37.0034063,23.1506588 37.2178439,22.5916672 C37.4943109,21.8713022 37.9838828,21.314976 38.6259841,21.0685545 C39.4426642,20.7551364 40.05472,21.165112 40.9724403,21.5198427 C41.3321381,21.6588031 41.699832,21.6784296 41.9670915,21.4516345 C43.192778,20.4116728 41.2151061,18.8593626 40.4503998,18.3768175 Z" id="路径"></path>
                <path d="M42.2242955,23.7147387 C41.5929766,23.1467819 40.8965996,23.04344 40.2171838,22.8385733 C39.4029267,22.5929998 38.6771099,22.7443177 38.2192796,23.3769692 C37.6980872,24.0969707 37.5090913,24.2461078 38.1433178,25.2428186 C38.3676898,25.5951262 38.6229553,25.9149653 38.8459947,26.2461927 C38.8354545,26.2631538 38.823824,26.2796304 38.8124358,26.296107 C38.3124448,25.9572471 37.7964619,25.6200834 37.2360166,25.272016 C37.0836084,25.3883211 36.8935222,25.5293411 36.6582466,25.6885338 C37.6382385,26.4078084 38.5844293,27.1629437 39.5726595,27.8709512 C39.5546079,27.5121014 39.5445524,27.2677395 39.5071167,27.0234987 C39.3957787,26.2941685 39.4078939,25.6124508 39.920848,25.133419 C40.151641,24.9181334 40.4170832,24.7183551 40.7017885,24.6190111 C41.2864641,24.4151137 41.897793,24.2692476 42.5465576,24.0487525 C42.4327966,23.9296609 42.33212,23.8117808 42.2242955,23.7147387 Z" id="路径"></path>
                <path d="M46.2075041,26.2749055 C46.2611741,26.0865154 46.2977617,25.897035 46.2375496,25.8082311 C46.2359746,25.8064139 46.2352477,25.8050812 46.2336728,25.8044755 C45.9095933,25.7070699 45.5755795,25.6896241 45.2472598,25.5933089 C44.8609087,25.4799114 44.4808574,25.3159939 44.0952332,25.2193152 C42.9983304,24.9440597 41.7570153,25.0400115 40.7684217,25.5953685 C40.5171541,25.7366308 40.2908437,25.9658488 40.1729636,26.2717556 C40.0195862,26.6696161 40.0650179,27.1628225 40.2375372,27.5569273 C40.600385,28.3854803 41.4186401,28.7639566 42.1316148,28.9224223 C42.3476274,28.9703982 42.5881125,28.9908728 42.7864369,28.8519124 C43.0104455,28.6949004 43.1196027,28.3441677 43.0499408,28.0509819 C42.9802788,27.7576749 42.7542107,27.5386335 42.5060931,27.4795117 C42.1003578,27.3827119 41.8133506,27.6695979 41.5097458,27.9301941 C41.5009017,27.7541615 41.5694733,27.5792192 41.6708768,27.4483759 C41.7721592,27.3175326 41.9037294,27.2261846 42.038813,27.1505863 C42.3954821,26.9511714 42.7931003,26.8477083 43.19193,26.8653964 C43.4670643,26.8776326 43.7623097,26.9600155 43.9477922,27.2162502 C44.0868738,27.408396 44.144784,27.6869226 44.0969293,27.9415824 C44.0370806,28.26021 43.7844804,28.5189889 43.5986345,28.7270055 C43.5971807,28.7285805 43.5968172,28.7295497 43.5963326,28.7305189 C43.5469029,28.8654813 43.6197148,28.9216954 43.7322642,28.9404739 C43.7329912,28.9408373 43.7349296,28.9404739 43.7375949,28.9403527 C43.7380795,28.9416854 43.7395333,28.9399893 43.7402602,28.9403527 C44.2346782,28.9092169 44.7363653,28.8038153 45.2447156,28.7102866 C45.5824851,28.6481361 46.3760254,28.6995042 46.2568126,27.9911332 C46.2341574,27.85714 46.1819412,27.7364734 46.143294,27.6072051 C46.0636976,27.3401879 46.045525,27.0308889 46.0824761,26.7215899 C46.0948335,26.619096 46.1583167,26.4474248 46.2075041,26.2749055 Z" id="路径"></path>
                <path d="M34.7983336,31.1585098 C34.5900747,31.3741589 34.4226438,31.5728468 34.5952842,31.8789959 C34.8793837,32.3825002 35.0715295,32.9265902 35.2582235,33.4720128 C35.3857957,33.844795 35.4495212,33.8498833 35.8889365,33.6980809 C36.5780445,33.46014 37.2774503,33.2702961 37.9755234,33.1183725 C38.8165549,32.935313 39.6677631,32.8346364 40.5043121,32.6264987 C41.1770646,32.45931 41.8694436,32.2159173 42.5012471,31.9389657 C43.6556967,31.432796 44.5715997,30.7988119 45.447765,29.9015662 C45.6429396,29.7016668 45.7513699,29.398183 45.8749441,29.125714 C45.7742675,29.3474207 44.624785,29.4940136 44.4242798,29.5276937 C43.9177467,29.6131053 43.4177558,29.6415758 42.9301223,29.6181936 C41.9570359,29.5714292 40.9977609,29.3234328 40.1071785,28.9271472 C38.1164222,28.0408052 36.550422,26.4706858 34.9362036,25.056488 C34.5084188,24.6816463 33.7473471,24.6239783 33.5164329,24.9451501 C33.2818842,25.2712891 33.1624291,25.651825 33.2373006,26.0856674 C33.3372503,26.6630739 33.34985,27.2229135 33.3399156,27.7660343 C33.3270736,28.4733149 33.2667403,29.1570922 33.1841152,29.8282698 C33.1768461,29.8869069 33.179148,29.9608092 33.2182798,30.0040601 C33.5487803,30.3678771 33.8854594,30.717156 34.1850663,31.1231336 C35.2696117,30.0887448 35.3337007,28.6282673 34.8809587,27.2823988 C35.2537409,27.7129701 35.5700666,28.1362723 35.8116421,28.5721743 C36.1437175,29.1715092 36.0812035,29.7629693 35.6514802,30.2944595 C35.404453,30.600972 35.0811004,30.8656874 34.7983336,31.1585098 Z M34.8437653,25.9637893 C35.0779505,26.1394585 35.3366083,26.2933205 35.5188197,26.4945526 C36.3894121,27.4566142 37.2610949,28.4438752 38.2631363,29.2746088 C39.0771511,29.9494209 40.0273399,30.4603155 41.0281698,30.7994177 C41.444203,30.9403165 41.8947642,31.0062227 42.3951186,31.1079897 C41.8630226,31.5643662 41.296762,31.6123421 40.8088862,31.5764814 C40.1413431,31.5274151 39.431276,31.4057793 38.8761613,31.1180453 C37.9240341,30.6243542 37.1206806,29.8294813 36.6817499,28.8446433 C36.2156813,27.7991086 35.5274214,26.8896266 34.8437653,25.9637893 Z" id="形状"></path>
                <path d="M36.1236064,34.6578406 C36.1324504,34.6561445 36.1412945,34.6543272 36.1501385,34.6521465 C36.3476149,34.6062302 36.5483624,34.4876232 36.7374794,34.4132363 C37.454331,34.131681 38.2198853,33.9023418 38.9718707,33.8118419 C39.6346889,33.7320032 40.3219795,33.8364356 40.9902495,33.8357086 C42.6081024,33.8340125 44.0805739,33.4830375 45.3957912,32.7097295 C46.4376914,32.097068 47.2771479,30.9840521 47.9071341,29.8898146 C48.2553226,29.2852701 48.5830365,28.5989487 48.6215626,27.8959084 C48.6577868,27.2341806 47.8492238,25.6186295 47.1672638,26.3374195 C46.7295446,26.7988844 46.9808121,28.0013099 46.8361576,28.531104 C46.564052,29.527936 45.986282,30.4308757 45.2174566,31.1129569 C44.1373938,32.0708993 42.7379765,32.5894264 41.3373476,32.8893967 C40.3320351,33.1046824 39.3021289,33.3060357 38.3169274,33.5219271 C37.4149569,33.7195247 36.4485339,33.9755171 35.7791736,34.6818285 C35.8120055,34.6424544 36.067998,34.6687442 36.1236064,34.6578406 Z" id="路径"></path>
                <path d="M44.001341,36.6971785 C44.3039767,36.1339466 44.9728524,34.8877855 44.668036,34.3215249 C44.5331947,34.0712265 44.3387471,34.235871 44.0042487,34.2934178 C42.7881331,34.5021613 41.5079285,34.4258361 40.2563156,34.4082691 C39.4567178,34.3971232 35.8405972,34.7546404 36.1444444,35.5823453 C36.4681604,36.4644471 37.6402981,37.6055701 38.4735759,38.5446129 C38.7676098,38.8759614 39.1420882,39.1862296 39.5444312,39.3931558 C39.9306612,39.5917226 40.347179,39.6947011 40.7687851,39.6428484 C41.3551569,39.5705211 41.8541786,39.2183346 42.2914132,38.8328316 C42.9864576,38.2196854 43.5775542,37.4855092 44.001341,36.6971785 Z" id="路径"></path>
                <path d="M41.0807494,41.1223467 C37.0335729,38.7426951 35.6444535,35.0321977 32.9453262,31.3275157 C32.6299697,30.9622448 32.272816,30.5854647 31.872169,30.2754388 C30.8478357,29.4829889 29.7732247,28.9460468 28.5392999,28.5420076 C27.0749455,28.0626124 25.4884708,28.0305073 23.9715368,28.2219262 C23.3728076,28.2975245 22.9392076,28.43491 22.4523009,28.745057 C23.4809957,29.0025033 24.5407051,29.1509135 25.5660075,29.3705606 C26.545636,29.5805156 27.4680811,29.8425656 28.2923938,30.1307843 C29.2139909,30.4531676 30.1222613,30.8764698 30.9119247,31.4519379 C31.2730764,31.7151995 31.5921886,32.0093545 31.8605385,32.3266495 C32.1233154,32.6372811 32.2374398,32.9854696 32.3934826,33.3485597 C32.4229223,33.4170102 32.5128165,33.5067832 32.3820943,33.541917 C32.3130382,33.5604532 31.9083932,33.0884481 31.8438196,33.0321128 C31.6474336,32.8610474 31.4408708,32.6964029 31.2234044,32.5380583 C30.788714,32.2211268 30.3028977,31.9078298 29.7848552,31.6660121 C28.6482148,31.1352487 27.4477277,30.7774893 26.2078665,30.4959339 C25.9650795,30.440689 25.4019688,30.4141569 25.2244824,30.2682909 C25.216971,30.3228089 25.2076423,30.3544294 25.2112769,30.3784173 C25.2124884,30.382173 25.2134576,30.3859287 25.2146691,30.3895632 C25.524695,31.3836087 26.0326819,32.3354935 26.4966909,33.2826535 C26.9565808,34.2212117 27.262003,35.2219205 27.6452042,36.1933107 C28.0617219,37.248901 28.5492343,38.2733554 29.0787861,39.2602529 C29.3570704,39.7789012 29.6845421,40.3128144 30.0464207,40.8927652 C30.3918227,41.4460626 30.7825353,41.9235194 31.1923897,42.4562212 C32.0339058,43.5499741 33.083802,44.4762961 34.2429765,45.2235566 C36.616934,46.7539383 39.7660168,46.2751488 41.2653838,43.9053105 C41.5578428,43.4432399 41.9464958,42.0011773 41.3474032,41.3324228 C41.2748336,41.2519784 41.1827587,41.1821953 41.0807494,41.1223467 Z" id="路径"></path>
                <path d="M56.5833762,38.2601499 C55.9042026,37.4673366 54.9724289,36.8707881 54.1206149,36.2828414 C53.1514054,35.6138446 51.8498782,34.6750441 50.6215264,35.0451609 C50.0328528,35.2226474 49.5348002,35.6154196 49.0797564,35.96276 C47.1000249,37.473273 44.5007262,39.9575992 42.1190151,40.6969848 C43.0887092,41.4738062 43.3155042,42.6661762 42.8358666,43.7816152 C42.9410259,43.8030589 42.9834288,43.8190509 43.0174723,43.8171125 C44.5123567,43.7337604 45.9112895,43.0870554 47.2965321,42.5806435 C48.0723843,42.2971497 48.9148696,42.008931 49.8219286,41.7513636 C52.0654062,41.1142295 54.4254313,40.7736735 56.7409939,40.4178525 C57.6876692,40.2723499 57.9766148,39.9252518 57.5823888,39.4079362 C57.275634,39.0053509 56.8971577,38.6265111 56.5833762,38.2601499 Z" id="路径"></path>
                <path d="M43.2605015,22.7993203 C43.2411173,22.948094 43.5454491,23.1063174 43.9446423,23.241401 C44.5904992,23.4598366 45.4841104,23.615637 45.6055039,23.6059449 C46.4359952,23.5389483 47.2028822,23.0057619 48.0652364,22.9788664 C49.1131941,22.9463979 50.1910762,23.3300837 50.8914512,24.1593635 C51.5261623,24.9107432 52.1479101,25.68393 52.792071,26.4228311 C52.8516774,26.4910392 52.8751807,26.6048002 52.9642268,26.8068804 C52.6264573,26.697602 52.3740994,26.6582279 52.1704443,26.5292018 C51.5479695,26.1341278 50.9784378,25.6031222 50.3237368,25.2389417 C49.9205456,25.0144486 49.4283084,25.0759934 48.9897411,25.0211119 C48.9779894,25.3546411 49.0847236,25.4969937 49.192427,25.7493517 C49.3175762,26.0421741 49.4119529,26.3525634 49.4742247,26.671191 C49.5986469,27.3089309 49.5929528,27.9814411 49.4525386,28.6316595 C49.3031592,29.3235539 49.001735,29.987099 48.595394,30.5590537 C48.1690629,31.1591155 47.60256,31.6468702 47.1358856,32.112333 C46.7793377,32.4682752 46.4122496,32.8068928 46.0729051,33.153264 C45.4627878,33.77586 45.3388501,34.4331051 45.3060181,35.0909561 C45.2998394,35.2110169 45.3136507,35.3302297 45.3198294,35.4574384 C45.8081898,35.0311074 46.2304017,34.6001726 46.794845,34.1909239 C47.3584404,33.782281 47.9568061,33.3857531 48.5340915,32.9599067 C49.5660572,32.1987138 50.5124903,31.2213872 51.0741472,30.06088 C51.3003365,29.5933576 51.5746227,29.0348506 52.106961,29.0352141 C52.0626197,29.5830598 52.0030133,30.1124904 51.7911199,30.6539151 C51.7860316,30.6745108 51.7791259,30.6969238 51.7727049,30.7166714 C51.3561872,31.9818532 50.0727115,32.7755146 49.021725,33.497818 C48.016049,34.1889855 46.9947445,34.980345 46.0553382,35.7820024 C45.9312794,35.8878886 45.8094013,36.0012861 45.6907943,36.1121394 C45.1986782,36.5725139 44.7605955,37.0482746 44.3661272,37.5369985 C44.1646528,37.7864488 43.9748089,38.0394125 43.793809,38.2960107 C43.6421278,38.5109329 43.3431266,38.8133262 43.304964,39.0586574 C43.4038234,39.075982 43.5430261,38.9511963 43.6135361,38.8935283 C44.071851,38.517475 44.5198681,38.1147685 45.0400913,37.7628243 C46.2711085,36.9295465 47.4851645,36.0716749 48.6722038,35.1755196 C49.9651293,34.1995257 51.2968231,33.2535772 52.4970679,32.1961697 C53.8465709,31.0075554 55.0985473,29.492681 55.6485736,27.7367157 C56.1199729,26.2321391 55.8986297,24.1736594 54.5089044,23.2722945 C52.7259225,22.1157853 50.7515216,21.1458489 48.7006743,20.4485027 C46.3588219,19.6522971 43.6542429,19.7828981 43.2605015,22.7993203 Z" id="路径"></path>
                <path d="M55.8031625,25.1273615 C55.8027991,25.1123387 55.8014664,25.0982852 55.801103,25.0833836 C55.717751,24.4690259 55.5027076,23.8977981 55.0800111,23.5067221 C54.9231203,23.361583 54.7507222,23.2460047 54.5742049,23.1237632 C54.5296213,23.1049848 54.4838261,23.0858429 54.4373041,23.0703355 C54.4221602,23.0653683 54.4066528,23.0590685 54.3911455,23.0541013 C54.6344171,23.1860349 54.8669062,23.3403815 55.0750439,23.5327696 C55.504646,23.929782 55.7230816,24.5007676 55.8031625,25.1273615 Z" id="路径"></path>
            </g>
        </g>
    </g>
</svg>
