<?xml version="1.0" encoding="UTF-8"?>
<svg width="54px" height="61px" viewBox="0 0 54 61" version="1.1" xmlns="http://www.w3.org/2000/svg" xmlns:xlink="http://www.w3.org/1999/xlink">
    <title>38</title>
    <g id="页面-1" stroke="none" stroke-width="1" fill="none" fill-rule="evenodd">
        <g id="植物" transform="translate(-642.000000, -396.000000)" fill="#545458">
            <path d="M684.6606,396.78453 C685.053619,396.783698 685.45166,397.005111 685.773525,397.475561 C686.022144,397.838444 686.225977,398.233974 686.394235,398.648757 C687.633143,398.240252 688.918092,397.96359 690.220201,397.835095 L690.46078,397.81371 C690.831215,397.785655 691.241844,397.78251 691.654154,397.896204 C692.217104,398.051486 692.724386,398.418554 693.044996,398.904491 C693.240877,399.198732 693.337144,399.497576 693.33254,399.791399 C693.32668,400.237154 693.093548,400.581203 692.875902,400.868328 C692.70304,401.096438 692.464467,401.337523 692.199525,401.590327 C692.679602,401.745191 692.940358,402.03692 693.071783,402.315256 C693.20051,402.584988 693.216467,402.855051 693.219306,403.08282 L693.21995,403.166168 C693.221205,403.262016 693.21995,403.358701 693.235018,403.452038 C693.27771,403.709028 693.499123,403.978155 693.910139,404.27407 L694.174244,404.456558 C694.530012,404.698062 694.934331,404.97263 695.23778,405.37695 C696.095808,406.515825 695.742551,408.111338 694.950236,409.097442 C694.36594,409.8253 693.590367,410.309981 692.825257,410.70886 C693.007326,411.011053 693.042903,411.342963 692.896829,411.659806 C692.753266,411.969533 692.485813,412.124815 692.325927,412.217733 L691.83958,412.497448 C689.814292,413.654196 687.798176,414.687969 685.591874,415.079778 C685.022227,415.181486 684.45551,415.230457 683.899676,415.230457 C681.728238,415.230457 679.726313,414.477485 678.43383,413.119708 C678.120755,412.790309 677.861672,412.438309 677.657001,412.072496 C674.89164,413.620713 672.587941,416.510383 671.081997,420.283612 C671.500129,420.131678 671.946303,420.011136 672.364853,419.916544 C674.049936,419.535663 675.860584,419.503853 677.594219,419.824463 C679.620001,420.199902 681.504314,421.04328 683.044997,422.262098 C683.371466,422.521181 683.698353,422.819189 683.8754,423.24318 C684.125693,423.842125 683.961203,424.522269 683.484056,424.86255 C683.195063,425.06925 682.859351,425.104764 682.637241,425.11954 L682.195486,425.14384 C681.724166,425.166459 681.191657,425.181904 680.611546,425.181904 L680.205844,425.179412 C677.453596,425.145556 673.772557,424.754225 670.510258,423.24904 C670.381344,423.189187 670.266243,423.126823 670.157839,423.063203 C669.113556,426.917213 668.866193,430.984264 668.775368,434.208356 C668.569441,441.604555 669.017708,449.994391 669.94396,456.102293 C669.994186,456.42667 669.770261,456.728863 669.447141,456.777415 C669.417424,456.782019 669.386869,456.78453 669.357152,456.78453 C669.069608,456.78453 668.815967,456.574418 668.772019,456.280596 C667.834886,450.107819 667.382014,441.637201 667.589197,434.17529 L667.612897,433.43545 C667.621844,433.184373 667.631889,432.929057 667.64319,432.670184 C667.523484,430.957058 666.981462,429.017079 666.106692,427.171691 C666.003278,427.541786 665.756621,427.960428 665.444566,428.425588 L665.133982,428.880631 C664.196011,430.283611 663.376071,431.367656 662.553202,432.293489 C661.23435,433.77683 659.719199,435.070987 658.05044,436.139964 L657.963508,436.193251 C657.763981,436.3094 657.417114,436.471456 657.042571,436.471456 C656.948816,436.471456 656.851712,436.460992 656.755446,436.436716 C656.486736,436.36933 656.265323,436.200236 656.132225,435.960406 C655.971501,435.672025 655.988662,435.370251 656.022146,435.140048 C656.274491,433.341633 657.436627,431.868563 658.33109,430.89192 L658.419601,430.795917 C660.745484,428.288383 662.854558,426.71589 664.688226,426.122386 C665.015951,426.016074 665.290519,425.99138 665.516537,426.03742 C664.260049,423.811571 662.513021,421.845641 660.427804,420.753225 C660.446639,421.128665 660.401436,421.517498 660.28466,421.91512 C660.00172,422.885738 659.276792,423.745858 658.24381,424.335177 C657.342671,424.849575 656.357823,425.092334 655.429479,425.277752 C653.563164,425.65068 651.680107,425.836935 649.795376,425.836935 C648.126617,425.836935 646.456183,425.690442 644.794121,425.397457 C644.634653,425.369833 644.493183,425.276915 644.404032,425.142142 C644.313625,425.00695 644.28349,424.840786 644.319485,424.682992 C644.5007,423.880046 645.16389,423.447898 645.773391,423.118719 L646.290856,422.844302 C646.464136,422.749291 646.626952,422.638375 646.789349,422.525785 C645.52685,422.113875 644.44321,421.232123 643.454704,420.28169 L643.194645,420.02829 C642.725832,419.561747 641.83771,418.574851 642.125864,417.424915 C642.16144,417.281352 642.250592,417.156206 642.373645,417.074588 C642.671234,416.87787 642.753689,416.359286 642.776709,416.067138 L642.787801,415.875181 L642.796381,415.681654 C642.813542,415.238409 642.834469,414.736567 643.027839,414.253979 C643.430903,413.247785 644.4191,412.71204 645.127705,412.396454 L645.467862,412.24638 C645.574949,412.198107 645.665542,412.154113 645.687307,412.131511 C645.72665,412.087564 645.809942,411.808391 645.837985,411.717147 L645.943459,411.347149 L646.011534,411.103235 C646.151632,410.613575 646.325117,410.114339 646.706476,409.631093 C647.317978,408.85259 648.222883,408.410601 649.104768,408.419391 L649.003479,408.112175 C648.959531,407.973635 648.851545,407.644236 649.017291,407.308559 C649.156379,407.031929 649.406736,406.905443 649.517183,406.856346 L649.541735,406.845642 C650.456685,406.444671 651.608116,406.575259 652.785916,407.210199 C653.078902,407.369248 653.360636,407.547852 653.639477,407.730581 L653.848197,407.86816 C654.298557,408.165331 654.725059,408.446178 655.181279,408.650012 C655.57627,408.825803 656.001398,408.94655 656.448753,409.064179 L656.674247,409.122973 C657.410895,409.314251 658.173075,409.511806 658.870379,409.931612 C659.495693,410.30747 660.057387,410.852004 660.636661,411.644738 C661.732425,413.141473 662.313791,414.737823 662.319651,416.258416 L662.317978,416.482914 C662.29948,417.514452 662.117967,418.818672 661.169475,419.796001 C664.347526,421.541355 666.740377,425.024111 667.957521,428.537839 C668.204884,426.312408 668.620504,423.99071 669.316553,421.749374 C669.331621,421.650597 669.360501,421.555586 669.402774,421.465179 C669.442537,421.342125 669.473928,421.216142 669.515783,421.093506 C671.005403,416.696219 673.497869,413.26076 676.571701,411.33794 C675.787773,410.438292 675.56702,409.074218 675.484329,408.017807 L675.474681,407.887413 C675.412317,406.987531 675.377577,406.175962 675.581411,405.357278 C675.786082,404.536083 676.233512,403.727025 676.947977,402.883647 C677.85584,401.81015 678.94163,400.943018 680.007974,400.113805 L683.838149,397.137791 C684.003895,397.009296 684.281812,396.794161 684.6606,396.78453 Z M659.23117,420.658214 C659.052867,421.171357 658.63055,421.592 658.450992,421.753141 C657.021644,423.036416 655.025997,423.82915 652.348113,424.177384 C651.547985,424.280975 650.736521,424.34242 649.940849,424.39563 L648.643107,424.48167 C648.425461,424.497574 648.192748,424.505108 647.950826,424.513061 C647.754526,424.519339 647.552366,424.526454 647.349788,424.537755 C649.969911,424.772562 652.598825,424.633185 655.197602,424.114601 C656.028006,423.948437 656.901101,423.735813 657.655328,423.305544 C658.409137,422.875274 658.952834,422.247031 659.145785,421.582373 C659.241633,421.256322 659.269676,420.947851 659.23117,420.658214 Z M658.988411,419.994812 C656.105437,421.700823 652.770012,422.98033 649.067936,423.796922 C648.77629,423.860876 648.479287,423.903936 648.187641,423.941747 L647.652705,424.010165 C647.128026,424.080582 646.627858,424.169989 646.199193,424.382055 C646.618894,424.286625 647.069673,424.251702 647.508268,424.232436 L648.290322,424.204485 C648.404115,424.199776 648.515031,424.194126 648.62218,424.186592 L649.03419,424.15813 L649.447142,424.130925 C650.387624,424.069398 651.360335,424.006615 652.310444,423.883143 C654.926382,423.54328 656.870128,422.773985 658.251762,421.532984 C658.709238,421.121968 659.116905,420.52093 658.988411,419.994812 Z M656.566261,418.660475 C654.51997,418.515238 652.475771,419.138459 650.915416,420.374856 C650.47558,420.723927 650.072336,421.116663 649.657716,421.532771 L649.125117,422.067691 C648.471323,422.717327 647.778562,423.356069 646.945887,423.829987 C647.188541,423.778505 647.436611,423.740679 647.684974,423.707326 L647.933246,423.675124 C648.28734,423.630757 648.653571,423.584298 649.003479,423.507285 C652.671652,422.697809 655.973594,421.429602 658.82685,419.742008 C658.348447,419.140552 657.500046,418.729117 656.566261,418.660475 Z M649.333297,409.625652 C648.75193,409.510132 648.074298,409.807721 647.638587,410.363974 C647.395105,410.673207 647.271823,411.015501 647.159621,411.400486 L646.973093,412.058265 C646.713591,412.925501 646.528174,413.077853 645.777713,413.406834 L645.609875,413.480499 C644.784075,413.847567 644.313625,414.233889 644.128207,414.695968 C644.024407,414.956399 644.000968,415.269413 643.986458,415.602967 L643.981296,415.72895 C643.975437,415.872931 643.969577,416.015657 643.959113,416.157545 C643.898842,416.927259 643.66278,417.505695 643.256368,417.884483 C643.257623,418.259504 643.543493,418.714049 644.140764,419.295834 L644.376031,419.522414 C645.442166,420.535158 646.610051,421.438796 647.935758,421.568561 C648.084762,421.425696 648.233393,421.280226 648.382645,421.131781 L648.607112,420.906833 C648.661105,420.85284 648.718028,420.798429 648.772021,420.744017 C648.234603,420.38532 647.819819,419.760006 647.576223,418.926254 C646.801487,416.27432 647.896833,413.238158 650.181698,411.6845 C649.949821,410.999333 649.727989,410.312493 649.502391,409.625652 C649.446724,409.631093 649.390219,409.637371 649.333297,409.625652 Z M650.586436,412.856022 C648.92228,414.163154 648.121175,416.561446 648.715098,418.594762 L648.74772,418.700274 C648.867884,419.067562 649.150908,419.722097 649.672741,419.870922 L649.685716,419.877618 C649.848532,419.731963 650.006744,419.582122 650.178768,419.445675 C651.043911,418.759252 652.046338,418.24025 653.11113,417.90248 C652.824423,417.763103 652.587942,417.606565 652.451076,417.432867 C651.984812,416.841037 651.728659,416.122387 651.522314,415.544788 C651.205053,414.656624 650.895744,413.755486 650.586436,412.856022 Z M650.296799,408.242344 C650.945432,410.254254 651.611285,412.233877 652.295414,414.177258 L652.639005,415.145909 C652.82526,415.66826 653.036209,416.259671 653.382769,416.699567 C653.673243,416.998412 655.565926,417.506532 656.128876,417.453795 C656.153989,417.452958 656.176172,417.463421 656.200448,417.465933 L656.50199,417.470738 C656.552216,417.472118 656.602396,417.474304 656.652482,417.478071 C658.011096,417.57643 659.219869,418.210533 659.888293,419.173199 C659.911313,419.206264 659.929311,419.241004 659.950657,419.274906 C660.023485,419.223843 660.094638,419.171943 660.159932,419.115857 C659.930985,417.916711 658.842337,417.066217 658.343425,416.734307 C657.956266,416.477248 657.538588,416.251289 657.12527,416.035842 L656.878081,415.907671 C656.300063,415.60757 655.701536,415.297843 655.160351,414.907754 C653.788553,413.91769 652.865149,412.485128 652.015214,411.040043 L651.685548,410.47489 C651.250256,409.72443 650.799478,408.956809 650.296799,408.242344 Z M650.459615,407.814167 C650.428224,407.817934 650.39767,407.827979 650.366278,407.83342 C650.874974,408.525231 651.326628,409.271519 651.758816,410.010036 L652.278483,410.901674 C653.135413,412.360479 654.007423,413.709977 655.334049,414.667088 C655.857656,415.04462 656.446137,415.349325 657.014947,415.643984 C657.513858,415.902229 658.029512,416.169683 658.507915,416.487781 C659.440026,417.107654 660.077059,417.879042 660.350373,418.685588 C660.458358,416.852338 659.644279,414.968444 658.195258,413.834173 C657.762373,413.494677 657.273728,413.215425 656.790452,412.950434 L656.58384,412.837606 C656.218864,412.638376 655.841751,412.43203 655.483472,412.203502 C654.599494,411.63685 653.8216,410.919163 653.078537,410.195989 L652.205581,409.341849 C651.651088,408.804855 651.07586,408.273177 650.459615,407.814167 Z M650.944714,407.820864 C651.533794,408.290836 652.085665,408.811239 652.618515,409.330939 L653.281411,409.979714 C654.01603,410.693715 654.782046,411.401077 655.643358,411.953209 C655.904847,412.121466 656.179992,412.277716 656.453782,412.428492 L656.726566,412.577686 C657.285749,412.882809 657.863766,413.197977 658.378164,413.600204 C659.855228,414.757076 660.708651,416.653945 660.65717,418.525702 C660.985732,417.975308 661.13641,417.246612 661.133562,416.262601 C661.12762,414.659554 660.339072,413.246948 659.679855,412.344135 C659.196848,411.684081 658.745233,411.24 658.258878,410.947852 C657.808556,410.676974 657.293231,410.515368 656.745913,410.368129 L656.376658,410.271056 C655.822916,410.127494 655.249502,409.97849 654.699528,409.732801 C654.152483,409.49046 653.666127,409.169014 653.19484,408.858031 C652.875068,408.647082 652.556551,408.435295 652.220874,408.253226 C651.918262,408.089573 651.444882,407.879879 650.944714,407.820864 Z M664.106734,407.63373 C664.710283,407.551276 665.240586,407.817892 665.679646,408.092461 C667.122806,408.994018 668.404825,410.242134 669.387162,411.7012 L669.547881,411.942506 C670.284111,413.061013 671.171557,414.605159 671.22962,415.973341 C671.259756,416.729661 670.905662,417.659261 670.053076,417.916251 C669.899886,417.962291 669.757579,417.982382 669.623225,417.982382 C668.99715,417.982382 668.558385,417.540643 668.255703,417.177247 L667.967022,416.821324 C666.919307,415.588833 666.03931,414.325351 665.34847,413.061164 L665.203336,412.790268 C665.182827,412.751342 663.314419,408.613975 663.648003,407.961873 C663.736317,407.789849 663.915457,407.660936 664.106734,407.63373 Z M691.338986,411.15336 C690.173742,410.983847 688.963295,411.064209 687.83321,411.386492 C687.477275,411.487949 687.122947,411.614585 686.776013,411.743472 L686.517288,411.840201 C686.147709,411.978741 685.765572,412.122303 685.380925,412.24159 C684.418678,412.538761 683.413321,412.685253 682.407963,412.685253 C681.312199,412.685253 680.218109,412.507369 679.178431,412.163321 C679.218611,412.208943 679.25084,412.256658 679.293113,412.301443 C680.64503,413.723258 682.982214,414.338526 685.383436,413.912442 C687.57036,413.524028 689.540476,412.458818 691.702706,411.208609 C691.661269,411.175962 691.607695,411.140385 691.544075,411.106064 L691.4792,411.073835 C691.448646,411.125317 691.397583,411.163405 691.338986,411.15336 Z M683.563999,409.029637 C682.757871,409.988116 682.017038,410.662401 681.21384,411.171358 L681.043503,411.276024 C680.674218,411.496682 680.139362,411.77682 679.548848,411.964091 C681.411396,412.519926 683.432574,412.531645 685.293029,411.957813 C685.576492,411.870546 685.859484,411.768916 686.137238,411.665639 L686.413069,411.562283 C686.847524,411.399467 687.295373,411.23121 687.752011,411.10146 C688.790434,410.805126 689.896662,410.717231 690.974847,410.823124 L690.855142,410.76369 C690.818728,410.752389 690.782314,410.740669 690.747156,410.722253 L690.710323,410.691699 C688.487404,409.651602 686.047675,409.079863 683.594971,409.036333 L683.563999,409.029637 Z M685.353719,399.231379 C684.91359,402.424265 682.972717,405.245437 681.181396,407.608765 L680.519884,408.473384 C680.077476,409.049727 679.63758,409.622722 679.116067,410.113263 C678.990837,410.231127 678.861588,410.327025 678.734108,410.416601 L678.63892,410.482843 C678.414158,410.638543 678.23753,410.774153 678.128288,410.953293 C678.819315,411.069231 679.826765,410.646077 680.579318,410.169767 C681.399258,409.649928 682.158926,408.91621 683.044997,407.790728 C684.357151,406.120295 685.169138,404.578775 685.524487,403.076598 C685.846771,401.715892 685.779384,400.370672 685.353719,399.231379 Z M684.627116,398.224766 C684.538802,398.286292 684.452162,398.36205 684.368871,398.439063 C683.033277,399.668345 681.760466,400.9918 680.583503,402.372179 C679.925961,403.145659 679.177594,404.073585 678.6272,405.096521 C677.718946,406.784115 677.346855,408.732885 677.547341,410.635613 C677.606356,410.695048 677.661605,410.759086 677.728573,410.806382 C677.905558,407.286817 680.030042,404.237327 682.272932,401.312669 L682.961287,400.420898 C683.519632,399.700155 684.093465,398.958484 684.627116,398.224766 Z M684.907963,398.334426 C684.468318,398.941491 684.004832,399.552842 683.54215,400.153692 L682.772379,401.149407 C680.515332,404.074722 678.306221,407.110806 678.039137,410.576598 C678.134567,410.481482 678.244593,410.398139 678.357033,410.318267 L678.582455,410.160814 C678.695345,410.081139 678.808118,409.996697 678.912651,409.898128 C679.353228,409.482456 679.739968,408.999167 680.110445,408.519485 L680.900597,407.488537 C682.782155,405.01064 684.827926,402.048093 685.118075,398.713632 L685.122261,398.705261 C685.057386,398.577185 684.983302,398.455805 684.907963,398.334426 Z M683.220788,399.120044 L680.494978,401.238483 C679.556484,401.973181 678.619308,402.744868 677.85372,403.650012 C677.258123,404.351921 676.89231,405.004022 676.732424,405.643985 C676.595365,406.1947 676.597653,406.789767 676.635072,407.442878 L676.65834,407.804959 C676.689313,408.252808 676.771768,409.395031 677.213338,410.19488 C677.109956,408.384651 677.50423,406.556843 678.365606,404.956307 C678.929812,403.909513 679.68948,402.965264 680.359161,402.180064 C681.261136,401.121132 682.220871,400.096103 683.220788,399.120044 Z M692.000295,402.824631 C691.947139,402.713715 691.679267,402.617449 691.089111,402.686091 C690.900764,402.899552 690.753015,403.100456 690.707812,403.254482 C690.647541,403.462083 690.825843,404.125904 691.883519,405.288217 L692.054502,405.475222 C692.273675,405.719776 692.454756,405.951954 692.563245,406.252975 C692.725642,406.701242 692.673323,407.146161 692.59338,407.559689 C692.438935,408.357027 692.186968,409.131763 691.84878,409.873015 L692.147019,409.723768 C692.845393,409.367138 693.549977,408.946659 694.026077,408.354097 C694.519548,407.741339 694.779049,406.738912 694.288927,406.089322 C694.103928,405.842378 693.814291,405.645659 693.507075,405.43764 L693.218694,405.237991 C692.540224,404.749543 692.162692,404.229704 692.06517,403.647082 C692.046021,403.531562 692.039351,403.413453 692.036153,403.294872 L692.032266,403.056835 C692.029764,402.959635 692.022717,402.872167 692.000295,402.824631 Z M691.340241,399.040101 C691.032188,398.955973 690.661353,398.983597 690.337395,399.015407 C689.136156,399.133856 687.949985,399.382894 686.806925,399.756659 C686.790602,399.780935 686.764233,399.797258 686.744561,399.819023 C686.976856,400.928599 686.965974,402.136116 686.67843,403.349912 C686.328941,404.826138 685.598152,406.317432 684.454255,407.890343 C686.621507,408.028046 688.761554,408.547885 690.753434,409.414703 C691.061068,408.74879 691.289597,408.051904 691.428137,407.33409 C691.477107,407.086308 691.511847,406.833086 691.447809,406.656039 C691.407,406.543658 691.313454,406.425627 691.203192,406.301946 L691.006657,406.086811 C689.804581,404.764192 689.334131,403.729118 689.569356,402.921316 C689.745367,402.322878 690.315758,401.740523 690.911773,401.17545 L691.316745,400.793381 C691.569992,400.552791 691.79554,400.329989 691.930815,400.152189 L691.993631,400.067812 C692.063734,399.970852 692.145439,399.845287 692.146462,399.773401 C692.147624,399.734894 692.124604,399.660811 692.057218,399.560359 C691.890216,399.30881 691.629878,399.120044 691.340241,399.040101 Z" id="38"></path>
        </g>
    </g>
</svg>
