<?xml version="1.0" encoding="UTF-8"?>
<svg width="50px" height="61px" viewBox="0 0 50 61" version="1.1" xmlns="http://www.w3.org/2000/svg" xmlns:xlink="http://www.w3.org/1999/xlink">
    <title>fruit-fruits-grape-svgrepo-com</title>
    <g id="页面-1" stroke="none" stroke-width="1" fill="none" fill-rule="evenodd">
        <g id="形状库素材-植物" transform="translate(-582.000000, -478.000000)" fill="#545458" fill-rule="nonzero">
            <g id="fruit-fruits-grape-svgrepo-com" transform="translate(582.637099, 478.029544)">
                <path d="M49.1589977,26.7938512 C49.1575012,21.2251569 44.6368498,16.7152303 39.0616707,16.7144821 C36.3814544,16.7139832 33.9404273,17.7622755 32.132915,19.4660311 C31.3991353,18.6404666 30.5316691,17.9371156 29.5644367,17.3876538 C30.6129785,17.4572407 31.7832348,17.5258299 33.0310593,17.5834448 C33.2902018,17.5949179 33.5313863,17.4432734 33.6333971,17.2043336 C33.7351586,16.9653938 33.6770448,16.6857993 33.4882375,16.5079662 C33.1991652,16.2343577 32.9420181,15.9836954 32.718542,15.7624641 C34.0381981,15.6582085 36.1228108,15.4097909 38.2178989,14.8169308 C38.432396,14.7558241 38.5972595,14.5872194 38.6521308,14.3709764 C38.7067528,14.155731 38.6443989,13.9287631 38.4850226,13.7723798 C37.6824043,13.0465814 36.5717582,12.7515231 35.7606598,12.5881562 C37.9480316,11.1113685 40.2920361,8.14008458 40.3516463,8.11639013 L40.3523946,8.1158913 L40.3538911,8.11364656 C40.463135,7.98120706 40.5077803,7.81734124 40.4930648,7.65921197 C40.5384584,7.57091898 40.565894,7.47215054 40.5643975,7.36639847 C40.5591598,7.02170659 40.2755747,6.74660157 39.9318805,6.75158988 C39.8607971,6.81120012 35.5109952,6.72614952 32.9552371,7.82257896 C33.1063827,7.32973443 33.2839664,6.69597028 33.2949406,6.01132541 C33.2956889,5.7052929 33.2562813,5.38230015 33.157014,5.05631442 C33.0924155,4.84331379 32.9180742,4.68019622 32.7005841,4.63056259 C32.4835928,4.58043012 32.2553779,4.65001697 32.1037334,4.81363338 C30.5456363,6.49020269 29.3212569,7.78441843 28.6605559,8.47928932 C28.4747415,8.1306068 28.2208368,7.58812863 27.9055759,6.76156649 C27.8105487,6.5131489 27.5666206,6.35152782 27.3007439,6.36100559 C27.0358649,6.36948571 26.8031605,6.54831645 26.7263406,6.80197176 C26.0207449,9.11704412 25.325874,11.4548133 24.8113303,13.1999718 C24.5773788,9.0611751 23.6400763,3.02382954 19.2433843,0.182989835 C18.6562608,-0.175918711 17.8885606,0.00939682005 17.5296521,0.59652032 C17.1699953,1.18464148 17.3550614,1.95234162 17.9431826,2.31125017 C19.3810615,3.11785909 20.384459,4.7420512 21.0708498,6.6358612 C20.5939678,6.42784888 20.0781771,6.26672663 19.5464238,6.15448977 C19.0483415,5.51299374 18.3609531,4.86750707 17.456324,4.22975228 C15.7647898,3.03355674 14.1952196,2.50379874 12.8037319,2.5030505 C9.55335235,2.51302711 7.66353299,5.36633758 7.65829527,8.12437142 C7.6538058,9.84758138 8.38933137,11.6281569 10.0107799,12.7360594 C10.2951133,12.9306033 10.6827046,12.8572752 10.8774979,12.5739395 C11.0717924,12.2893567 10.999462,11.9010171 10.7151286,11.7072215 C9.47453713,10.8569649 8.90936217,9.51236729 8.90587036,8.12437142 C8.92357884,5.86691398 10.3891429,3.75436681 12.8039813,3.75012675 C13.8722268,3.7493785 15.1956242,4.15941718 16.7372598,5.24786533 C17.0901824,5.49777941 17.3969632,5.74220636 17.666581,5.98064734 C15.8191623,6.09887017 13.983466,7.21026452 13.9794754,9.72761265 C13.9824684,11.5268943 15.2899031,12.4918819 16.6167922,12.4948749 C18.4290435,12.481157 20.5306164,11.0866764 20.5760099,8.81151043 C20.5747629,8.45359955 20.5171479,8.08895445 20.4001722,7.71932105 C20.8695717,7.91710734 21.2868434,8.153553 21.6063443,8.39498696 C22.2480898,10.9407684 22.434403,13.6596441 22.3974895,15.4402196 C22.3974895,15.7691983 22.3927506,16.0610141 22.3862658,16.3136718 C20.4293538,16.7466566 18.6869388,17.7455647 17.3388494,19.130817 C15.5061461,17.2467342 12.9354231,16.0719884 10.0980753,16.0719884 C4.52214791,16.0727366 0.000748245752,20.5824138 0,26.1521057 C0.000498830501,30.0731629 2.2437396,33.4667068 5.5163171,35.1332995 C4.94989507,36.3935948 4.63388594,37.7920661 4.63438477,39.2581289 C4.63513302,44.5340097 8.69262032,48.8561266 13.8595067,49.2983398 C13.8470359,49.5043568 13.8383064,49.7111221 13.8383064,49.9198826 C13.8395534,55.4893252 18.3602049,59.9992518 23.9356334,60 C29.5110619,59.9992518 34.0317133,55.4893252 34.0329604,49.9198826 C34.0329604,49.6886747 34.0232332,49.4599609 34.00752,49.2324942 C38.893066,48.5278961 42.6485114,44.3339787 42.6490102,39.2581289 C42.649509,38.2552302 42.4986128,37.2842566 42.2240066,36.3666579 C46.250317,35.0415147 49.1577506,31.2596312 49.1589977,26.7938512 Z M19.3282118,8.81151043 C19.3251925,10.1743154 17.8361834,11.2455539 16.6162934,11.2477986 C15.7747664,11.1832001 15.2821712,10.9477521 15.2263022,9.72786206 C15.2736911,7.78566551 16.3556545,7.28932916 17.9870796,7.21625049 C18.2569469,7.20801979 18.5340473,7.2294695 18.8116465,7.26962535 C19.1895106,7.85550178 19.3304302,8.37727848 19.3282118,8.81151043 Z M27.4239551,8.80028675 C27.8277584,9.61986526 28.0676958,9.86104981 28.1597301,9.94734749 C28.4103924,10.1665835 28.7892541,10.1501221 29.0197138,9.90943637 C29.0209609,9.90818929 30.1637816,8.71748088 31.9361264,6.82192498 C31.7834842,7.42476164 31.5253394,8.04181497 31.4954096,8.70201714 C31.4954096,8.87935138 31.5218476,9.07314703 31.6039052,9.26494736 C31.6872099,9.46098775 31.8630477,9.59891438 32.0728059,9.63458076 C32.2818159,9.67049656 32.4935694,9.59816613 32.6372326,9.44078511 C33.0313087,8.93098034 34.9543003,8.41693551 36.6667854,8.23610945 C37.4434645,8.14008458 38.1842278,8.08296849 38.7661136,8.0487986 C38.4032144,8.45958551 37.9093722,9.00106602 37.356668,9.5600056 C36.2395371,10.7118052 34.7884392,11.9164809 34.0509183,12.0930669 C33.8478943,12.1491853 33.6862732,12.3040722 33.6221735,12.5046021 C33.5583232,12.7048825 33.5999755,12.9253656 33.7336621,13.0882337 C34.4260388,13.7195037 35.4104808,13.8135333 36.2627327,14.0095737 C33.614691,14.5542966 31.308847,14.5852241 31.3046069,14.5909606 C31.0584341,14.5947019 30.8377016,14.7416074 30.7406791,14.9688247 C30.6431577,15.1950444 30.6875536,15.4564315 30.8549113,15.6372576 C30.8591513,15.6417471 31.0716531,15.8724562 31.4472725,16.2540615 C28.9830498,16.1158855 26.9597933,15.9487772 25.8127325,15.8455193 C26.6979073,15.0289338 29.424016,12.6759503 33.1634988,10.9514933 C33.2892041,10.8941278 33.343826,10.7462245 33.2854629,10.6212675 C33.2280974,10.4955622 33.0801941,10.4409403 32.9544888,10.499054 C29.0848112,12.2846178 26.2888663,14.7236495 25.4296307,15.5212795 C25.8107372,14.2173366 26.5791856,11.6014694 27.4239551,8.80028675 Z M23.3150882,18.6746365 C23.370209,18.6866085 23.4245815,18.7003263 23.4824459,18.7050652 C23.7094137,18.7230231 23.9246591,18.6743871 24.1164594,18.5826023 C24.269351,18.5731245 24.4232402,18.5668891 24.5788753,18.5666397 C28.7800258,18.5736233 32.1748168,21.9649225 32.1818004,26.1523552 C32.1748168,30.3390396 28.7797764,33.7303387 24.5788753,33.7373223 C20.3784731,33.7303387 16.9836821,30.3390396 16.9759502,26.1523552 C16.9831833,22.3941662 19.7185203,19.2794685 23.3150882,18.6746365 Z M2.49365368,26.1521057 C2.50138555,21.9646731 5.89642594,18.5733739 10.097327,18.5663903 C12.3794766,18.5663903 14.4157027,19.566296 15.8129269,21.1530759 C14.967908,22.6266212 14.4825459,24.3318732 14.4822965,26.1521057 C14.4825459,27.97159 14.9676586,29.6765926 15.8121787,31.1496391 C14.4171992,32.7361695 12.3792271,33.7373223 10.097327,33.7373223 C5.89642594,33.7300893 2.50138555,30.3387901 2.49365368,26.1521057 Z M7.1287867,39.2581289 C7.1287867,38.0811384 7.39915283,36.9747323 7.87578537,35.9835561 C8.5908589,36.1439301 9.33386693,36.2314749 10.097327,36.2314749 C12.9354231,36.2314749 15.503652,35.0564796 17.3376023,33.1721474 C18.4704464,34.3364178 19.8816379,35.2280773 21.4651753,35.7403762 C22.0188772,36.7924098 22.3338886,37.983617 22.3346369,39.2581289 C22.326905,43.4455616 18.9318646,46.8361125 14.7317118,46.8440938 C10.531559,46.8361125 7.13577032,43.4455616 7.1287867,39.2581289 Z M23.9358828,57.5055981 C19.7354805,57.4976168 16.3399413,54.1073153 16.3329577,49.9198826 C16.3329577,49.6779498 16.345179,49.4397583 16.3668782,49.2045597 C19.5232282,48.6910137 22.1879807,46.7183885 23.642321,44.0005105 C25.1874485,46.8877414 28.0976257,48.9359395 31.5128687,49.2851208 C31.5300783,49.4941308 31.5390573,49.7058844 31.5390573,49.9198826 C31.5308266,54.1073153 28.136285,57.4976168 23.9358828,57.5055981 Z M40.1558554,39.2581289 C40.1481235,43.4455616 36.7530831,46.8361125 32.5529303,46.8440938 C28.3517798,46.8361125 24.9572382,43.445811 24.9492569,39.2581289 C24.9497558,38.1582077 25.1842061,37.1201414 25.6034731,36.1800953 C27.8801356,35.9508827 29.9318254,34.9651936 31.5071321,33.4809235 C33.355798,35.5607972 36.0582122,36.874218 39.0616707,36.874218 C39.2978669,36.874218 39.5318184,36.8632437 39.7637746,36.8472811 C40.0176793,37.6037576 40.1553565,38.4128606 40.1558554,39.2581289 Z M39.0614212,34.379816 C36.6538158,34.379816 34.5150801,33.2671746 33.1196017,31.5265056 C34.1040437,29.9709026 34.6762023,28.128971 34.6764517,26.1521057 C34.6762023,24.4959885 34.2738955,22.9351478 33.5653068,21.5568792 C34.9520556,20.1097719 36.895998,19.208884 39.0614212,19.208884 C43.2618235,19.216117 46.6571133,22.6071668 46.6643463,26.7938512 C46.6571133,30.9812838 43.2618235,34.3718347 39.0614212,34.379816 Z" id="形状"></path>
                <path d="M24.5791247,32.4239016 C26.6986555,32.4239016 28.57351,31.3653833 29.699121,29.7491725 C29.777188,29.6356885 29.7500017,29.4805523 29.6367672,29.4014876 C29.5240315,29.3226724 29.3681469,29.3506069 29.2898306,29.4633426 C28.2522631,30.9518528 26.5305496,31.9248217 24.5788753,31.9248217 C24.4409487,31.9248217 24.3297095,32.0368092 24.3297095,32.1747358 C24.3297095,32.3126624 24.4411981,32.4239016 24.5791247,32.4239016 Z" id="路径"></path>
                <path d="M30.2019421,28.2639047 C30.3323863,28.305557 30.4733059,28.2337254 30.5157065,28.1022836 C30.7095022,27.4991975 30.8150048,26.8557062 30.8150048,26.1887698 C30.8150048,26.0508431 30.7030174,25.9391051 30.5650907,25.9391051 C30.4271641,25.9391051 30.3159249,26.0510926 30.3159249,26.1887698 C30.3159249,26.8035784 30.2191518,27.3951913 30.0405705,27.949392 C29.9986687,28.0805845 30.0702509,28.2215041 30.2019421,28.2639047 Z" id="路径"></path>
            </g>
        </g>
    </g>
</svg>
