<?xml version="1.0" encoding="UTF-8"?>
<svg width="44px" height="61px" viewBox="0 0 44 61" version="1.1" xmlns="http://www.w3.org/2000/svg" xmlns:xlink="http://www.w3.org/1999/xlink">
    <title>6</title>
    <g id="页面-1" stroke="none" stroke-width="1" fill="none" fill-rule="evenodd">
        <g id="植物" transform="translate(-488.000000, -157.000000)" fill="#545458" fill-rule="nonzero">
            <path d="M528.614118,202.750621 C529.398417,202.532657 530.456569,202.316556 531.160762,201.634718 C531.056437,201.614226 530.950249,201.593733 530.847787,201.575104 C529.240067,201.526667 527.719905,200.710698 526.19788,200.084749 C525.933342,199.972972 525.670667,199.840703 525.417307,199.693531 C525.845784,199.652546 526.268672,199.570577 526.69156,199.468115 L526.697149,199.468115 C526.734408,199.460663 526.769804,199.447622 526.807063,199.436445 C527.125626,199.360064 527.444189,199.266917 527.76089,199.171907 C528.146519,199.056404 528.869341,198.592531 529.458031,198.37643 C529.472935,198.37643 529.489701,198.370841 529.506468,198.370841 C529.759828,198.195724 530.016914,198.018744 530.27959,197.85108 C529.934945,197.834313 529.594026,197.795191 529.254971,197.744892 C528.025428,197.711359 526.656164,197.21209 525.581246,196.817146 C524.560352,196.442694 523.546911,195.924796 522.555825,195.429253 C522.431008,195.371501 522.22981,195.278354 522.004394,195.166578 C521.996942,195.1554 521.987627,195.147948 521.978312,195.136771 C522.496211,195.252273 523.012246,195.349146 523.524556,195.403172 C524.314444,195.485141 525.12855,195.406897 525.920301,195.321202 C526.56488,195.252273 527.256032,194.918806 527.926692,194.771634 C528.20427,194.784674 528.474397,194.767908 528.72962,194.689664 C528.81159,194.66172 528.886108,194.527588 528.915915,194.397182 C528.649514,194.361786 528.379387,194.29472 528.107397,194.209025 L528.09622,194.209025 C526.903936,194.209025 525.411718,193.344619 524.485835,192.770832 C524.102068,192.530512 523.714576,192.305096 523.328947,192.075954 C524.20453,192.16165 525.078251,192.169101 525.979916,192.075954 C525.51418,191.76298 525.074525,191.39598 524.66654,190.945147 C524.25483,190.814741 523.844982,190.660117 523.444449,190.404894 C523.043916,190.157122 522.675053,189.883269 522.315505,189.594513 C523.541322,189.616868 524.770865,189.417533 525.853235,189.125051 C525.910987,189.106422 525.972464,189.056122 526.028352,188.992782 C525.924027,188.933168 525.817839,188.869828 525.713515,188.799036 C525.720966,188.799036 525.726555,188.79531 525.730281,188.79531 C525.314845,188.527046 524.910586,188.215935 524.523094,187.863838 C523.535733,187.608615 522.537196,186.664103 521.74917,185.911473 C521.102729,185.294839 520.48982,184.652124 519.945841,183.938616 C520.359414,184.130499 520.786029,184.300027 521.212643,184.432296 C522.233536,184.758311 524.266007,185.399164 525.087565,184.17521 C525.087565,184.17521 525.091291,184.164032 525.093154,184.164032 C523.373657,183.208342 521.592683,182.37188 520.47678,180.317054 C520.450699,180.285384 520.424617,180.261165 520.39481,180.229495 C519.701795,179.415389 519.131735,178.450384 518.604521,177.440669 C519.032999,177.65677 519.45775,177.841201 519.858283,177.995826 C520.705922,178.333019 521.706323,178.80248 522.529744,178.193298 C522.563277,178.172805 522.593084,178.129958 522.619165,178.079658 C521.972724,177.504009 521.311379,176.950714 520.707785,176.313588 C520.454425,176.132882 520.208516,175.948451 519.973785,175.736075 C519.31244,175.143659 518.716298,174.409659 518.144374,173.636538 C518.339983,173.711055 518.541181,173.781847 518.746105,173.837735 C519.377643,174.018441 520.124684,174.098548 520.556886,173.399944 C520.558749,173.392492 520.558749,173.38504 520.562475,173.381314 C518.345572,172.200208 516.266527,169.824955 514.845101,167.734732 C514.368188,167.028676 513.880096,166.281636 513.406909,165.497337 C513.375239,165.441448 513.343569,165.383697 513.311898,165.331535 C513.110701,164.992479 512.913229,164.655286 512.721345,164.305053 C512.624472,164.133662 512.535051,163.94923 512.440041,163.772251 C512.315224,163.535657 512.192269,163.306515 512.073041,163.069921 C511.942635,162.809109 511.825269,162.540845 511.704178,162.274444 C511.62966,162.110505 511.551417,161.952155 511.480625,161.78449 C511.339041,161.467789 511.216087,161.138048 511.093133,160.813896 C511.044696,160.698394 510.996259,160.581028 510.955275,160.4618 C510.823006,160.100389 510.709366,159.737115 510.599452,159.368252 C510.571508,159.278831 510.541701,159.194998 510.51562,159.105577 C510.407569,158.718084 510.314422,158.325003 510.23059,157.930059 C510.204508,157.810831 510.169112,157.693465 510.146757,157.570511 C509.183615,160.899592 507.672768,163.839317 505.843357,166.458616 C504.969637,167.704925 504.015809,168.846909 503.019135,169.931143 C502.693119,170.283239 502.352201,170.570132 502.007556,170.830944 C501.795181,171.041457 501.579079,171.253833 501.355526,171.458756 C501.228846,171.572396 501.053729,171.751239 500.850668,171.946848 C500.832039,171.963614 500.813409,171.980381 500.79478,171.99901 C500.757521,172.034406 500.714673,172.073528 500.675551,172.11265 C500.591719,172.190893 500.506024,172.263548 500.414739,172.341792 C500.394247,172.362284 500.368166,172.382776 500.342085,172.405132 C500.235897,172.49269 500.122257,172.578386 500.010481,172.656629 C499.980673,172.671533 499.949003,172.690162 499.922922,172.712517 C499.801831,172.785172 499.684465,172.852238 499.570826,172.900675 C500.20609,173.3217 500.861846,173.304934 501.526917,173.16335 C501.407688,173.273263 501.290323,173.377588 501.17482,173.494954 C501.046277,173.62536 500.964308,173.921568 501.17482,173.99236 C501.305226,174.035207 501.431907,174.061289 501.558587,174.076192 C501.629379,174.08737 501.70017,174.094822 501.774688,174.098548 L501.784003,174.098548 L501.789592,174.098548 C501.901368,174.102273 502.015008,174.109725 502.126785,174.098548 C501.17482,174.540065 500.148338,174.597816 499.112542,174.661157 C498.715735,174.808329 498.318928,174.946187 497.912806,174.959228 C497.884862,175.056101 497.894177,175.154837 497.974283,175.210725 C499.028709,175.961491 500.411013,176.339669 501.653597,176.050913 C501.22512,176.399283 500.791054,176.723435 500.37748,177.041999 C499.999303,177.330755 499.578278,177.507734 499.155389,177.653044 C498.309613,178.193298 497.448933,178.793166 496.524913,179.026034 C497.197436,179.357638 498.689653,180.087911 499.941552,180.147526 C499.47209,180.454911 498.995176,180.738079 498.495907,180.991439 C497.862506,181.310003 497.132233,181.818586 496.414999,182.016058 C495.912004,182.237749 495.403421,182.425906 494.878071,182.533957 C494.850127,182.655048 494.86503,182.787317 494.956314,182.858109 C495.394106,183.21952 496.046136,183.342474 496.686989,183.310804 C495.818857,183.556713 494.924644,183.702022 494.062101,183.875276 C493.821782,183.95352 493.577736,184.041078 493.339279,184.136088 C493.33369,184.136088 493.329965,184.139814 493.322513,184.14354 C493.110137,184.229235 492.905213,184.311205 492.694701,184.408078 C492.670482,184.499362 492.683523,184.599961 492.771081,184.665164 C494.222315,185.73822 495.889649,186.429372 497.566298,186.518793 C497.268227,186.673417 496.968294,186.822453 496.657182,186.943544 C496.506283,187.003158 496.405685,187.355255 496.608745,187.413006 C497.065167,187.53596 497.523451,187.63097 497.981735,187.705488 C497.99105,187.705488 498.000364,187.709214 498.013405,187.71294 L498.015268,187.71294 C498.121456,187.724118 498.225781,187.750199 498.335694,187.765102 C497.903491,188.009148 497.463837,188.23829 497.007415,188.426447 C496.442943,188.663041 495.887786,188.79531 495.330766,188.892183 C494.941411,189.080341 494.550193,189.25732 494.14966,189.357919 C493.659706,189.473422 493.164163,189.501366 492.670482,189.56098 C492.672345,189.609417 492.689112,189.657853 492.720782,189.695112 C493.691376,190.723457 495.116528,191.144482 496.508146,191.166838 C496.128106,191.354995 495.740614,191.524523 495.338218,191.651203 C495.181731,191.703365 495.082995,192.07968 495.289781,192.131842 C496.042411,192.308822 496.822984,192.534238 497.590517,192.54169 C496.837887,193.059588 496.051725,193.506695 495.271152,193.92772 C494.70668,194.235106 494.138482,194.505233 493.572147,194.741827 C491.942071,195.58574 490.198356,196.101775 488.452778,196.221004 C488.730357,196.476227 489.026565,196.68674 489.332087,196.878623 C489.330224,196.878623 489.330224,196.878623 489.328361,196.874897 C489.337676,196.882349 489.346991,196.889801 489.358169,196.891664 C489.958036,197.258663 490.604478,197.508298 491.271412,197.651745 C491.304945,197.659196 491.336615,197.664785 491.372011,197.670374 C491.489376,197.696455 491.608605,197.715085 491.72597,197.731851 C491.82098,197.741166 491.917853,197.756069 492.012863,197.767247 C492.100422,197.774699 492.193569,197.782151 492.28299,197.787739 C492.420848,197.795191 492.558706,197.798917 492.690975,197.798917 C492.754315,197.798917 492.815792,197.802643 492.877269,197.802643 C493.084056,197.795191 493.28898,197.784014 493.492041,197.763521 C492.631361,198.380156 491.688711,198.808633 490.760965,199.231521 C490.65664,199.278094 490.500153,199.546358 490.630559,199.673038 C490.652914,199.697257 490.680859,199.71216 490.703214,199.736379 C491.375737,200.358602 492.322112,200.485282 493.264761,200.347424 C493.216325,200.379094 493.164163,200.410764 493.110137,200.44616 C492.18798,201.031124 491.027366,201.256541 490.176001,202.003581 C490.088442,202.074373 489.963625,202.333322 490.088442,202.450687 C490.716255,203.058007 491.582523,203.234987 492.422711,203.201454 C492.0613,203.374708 491.696163,203.546098 491.334752,203.7119 C490.515057,204.088215 489.060098,204.285687 488.305605,205.122149 C488.212458,205.220885 488.128626,205.327073 488.059697,205.450027 C487.994494,205.567392 487.994494,205.757413 488.104407,205.828204 C489.220311,206.56593 490.760965,206.32561 491.986782,206.336788 C492.204747,206.34424 492.4283,206.329336 492.651853,206.31257 C492.12464,206.614367 491.593701,206.940382 491.139143,207.387488 C491.027366,207.497402 490.904412,207.797336 491.088843,207.90725 C491.949523,208.443777 493.262899,208.067463 494.138482,207.79361 C494.622847,207.642712 495.101624,207.484361 495.582263,207.320422 C495.135157,207.93892 494.866893,208.492214 495.170553,208.68596 C495.908279,209.162874 497.271953,208.378574 498.257451,207.901661 C498.233232,207.991082 498.214603,208.089818 498.199699,208.199732 C498.192248,208.31896 498.223918,208.430737 498.309613,208.486625 C498.684065,208.751163 498.995176,208.732534 499.382669,208.456818 C499.874486,208.100996 500.386795,207.765666 500.912145,207.480635 C500.424054,208.086092 500.084998,208.762341 500.409151,209.192681 C500.785465,209.693813 501.523191,209.280239 501.949805,209.080904 C501.627516,209.446041 501.299638,209.805589 500.999704,210.165137 C500.861846,210.334665 500.83949,210.688624 501.061181,210.748239 C502.329845,211.087294 503.866774,209.908051 504.945418,209.159148 C505.131713,209.028742 505.316144,208.900199 505.498713,208.758615 C505.269571,209.449767 505.03484,210.567533 505.867575,210.459482 C506.312819,210.401731 506.758063,209.930406 507.098981,209.591351 C507.665316,209.017564 508.235377,208.447503 508.783082,207.845772 C508.727194,208.535062 508.749549,209.228077 508.781219,209.919229 C508.738372,211.221426 508.695524,212.519898 508.64895,213.814644 C508.594925,215.440994 508.07889,217.592694 509.753676,217.570681 C510.318148,217.562887 511.767518,217.607597 512.55368,217.056166 C512.568584,217.044988 512.581625,217.033811 512.592802,217.022633 C512.654279,216.981648 512.706442,216.931349 512.756741,216.882912 C512.775371,216.860557 512.792137,216.841927 512.808904,216.827024 C512.849888,216.776724 512.887147,216.724562 512.92068,216.664948 C512.931858,216.642592 512.946761,216.620237 512.957939,216.599745 C512.997061,216.519638 513.030594,216.433943 513.049223,216.338933 C513.220614,215.506197 513.011965,214.908192 512.859203,214.082908 C512.564858,212.538528 512.548092,211.074254 512.475437,209.494478 C512.454944,209.110711 512.412097,208.728808 512.358071,208.348767 C512.648691,208.991483 512.985883,209.583899 513.440442,210.094345 C513.609969,210.297406 513.837249,210.094345 513.915492,209.868929 C514.155812,209.174051 514.126005,208.199732 514.176304,207.365133 C514.183756,207.376311 514.193071,207.391214 514.202386,207.406118 C514.858142,208.585361 515.672248,209.425549 516.575776,210.250833 C516.76207,210.416635 517.03406,210.045909 517.000527,209.809315 C516.957679,209.501929 516.931598,209.252295 516.769522,209.000797 C516.596268,208.728808 516.467725,208.389752 516.35036,208.045107 C517.089948,208.728808 518.131334,209.919229 519.073983,209.734797 C519.265866,209.703127 519.414902,209.477711 519.403724,209.224351 C519.342247,207.978041 518.576577,206.655351 518.258014,205.476108 C518.250562,205.429534 518.233796,205.382961 518.222618,205.341976 C519.070257,205.852423 519.949567,206.277174 520.867998,206.62927 C521.896343,207.018625 522.926551,207.188153 523.988429,207.285026 C524.696347,207.353955 525.456428,207.292478 526.181113,207.417295 C526.56488,207.368859 526.952372,207.31297 527.338001,207.247767 C526.555565,206.681433 525.74891,206.16726 524.93853,205.662402 C525.510454,205.653088 526.080514,205.608377 526.644986,205.539448 C527.283976,205.461204 527.924829,205.24324 528.548915,205.051357 C528.759427,204.988017 529.174864,204.743971 529.435676,204.846433 C529.54559,204.766326 529.655503,204.676905 529.754239,204.581895 C529.759828,204.526007 529.739336,204.473844 529.683448,204.440311 C529.62197,204.399327 529.560493,204.373245 529.497153,204.356479 C528.597351,203.989479 527.691961,203.523743 526.801474,203.043104 C527.405067,203.043104 527.965813,202.955545 528.515382,202.832591 C528.541463,202.795332 528.573133,202.761799 528.614118,202.750621" id="6"></path>
        </g>
    </g>
</svg>
