<?xml version="1.0" encoding="UTF-8"?>
<svg width="60px" height="61px" viewBox="0 0 60 61" version="1.1" xmlns="http://www.w3.org/2000/svg" xmlns:xlink="http://www.w3.org/1999/xlink">
    <title>29</title>
    <g id="页面-1" stroke="none" stroke-width="1" fill="none" fill-rule="evenodd">
        <g id="植物" transform="translate(-720.000000, -318.000000)" fill="#545458">
            <path d="M753.100855,318.569132 C754.057087,331.866212 749.306789,338.109359 747.540379,339.945777 C763.954598,324.594895 776.549497,327.405923 776.549497,327.405923 C765.238847,338.238986 755.668511,340.423641 750.660895,340.703566 C773.984103,342.76894 779.488606,356.046991 779.488606,356.046991 C765.177764,353.859647 756.01052,348.299372 751.160045,344.452304 C769.418229,362.667244 764.961102,377.984554 764.961102,377.984554 C752.706578,364.643068 748.782094,352.102362 747.525316,345.464014 C749.590923,367.897757 739.962453,378.569132 739.962453,378.569132 C738.571896,363.000066 745.092132,345.184732 746.601663,341.313536 C736.400081,361.353442 723.131674,362.360561 723.131674,362.360561 C728.842353,350.922693 738.860396,344.58308 743.903642,341.974482 C730.908815,347.593573 722.024144,344.025016 720.668942,343.409458 L720.488422,343.323827 C733.51648,335.049811 744.041267,339.152697 746.420151,340.279667 C745.623667,338.70309 744.710054,337.187866 743.695706,335.73859 C742.307901,333.822654 740.798769,331.995605 739.169608,330.276259 C737.530065,328.567293 735.80423,326.942024 734.000538,325.40694 C732.197496,323.878992 730.317244,322.410735 728.377302,321.098193 L728.947606,320.245657 C730.928423,321.643193 732.77818,323.152325 734.579277,324.739314 C736.373237,326.329548 738.087392,328.008668 739.712013,329.771485 C741.326252,331.545331 742.819812,333.427529 744.187504,335.399262 C745.19062,336.894207 746.090509,338.457362 746.868847,340.080796 L746.867649,340.061406 C745.877682,324.16504 753.100855,318.569132 753.100855,318.569132 Z" id="29"></path>
        </g>
    </g>
</svg>
