<?xml version="1.0" encoding="UTF-8"?>
<svg width="61px" height="59px" viewBox="0 0 61 59" version="1.1" xmlns="http://www.w3.org/2000/svg" xmlns:xlink="http://www.w3.org/1999/xlink">
    <title>4</title>
    <g id="页面-1" stroke="none" stroke-width="1" fill="none" fill-rule="evenodd">
        <g id="形状库素材-植物" transform="translate(-157.000000, -557.000000)" fill="#545458">
            <path d="M190.776091,558.069339 C190.858515,558.078372 190.942068,558.086275 191.029009,558.123536 C196.753538,560.580454 202.256765,564.271477 206.62073,568.811582 L207.467554,568.183803 C207.809671,567.929756 208.355026,568.127348 208.549231,568.467207 C208.776179,568.866908 208.611331,569.292578 208.265827,569.547754 L207.695632,569.971166 C210.989212,573.670093 213.512748,577.88276 214.829276,582.412703 C215.397213,582.272695 215.933535,582.146236 216.534215,582.215111 C216.956498,582.262533 217.33023,582.538033 217.324709,583.00548 C217.320068,583.397277 216.962144,583.8444 216.534215,583.795849 C216.054348,583.740523 215.668197,583.833109 215.224461,583.942631 C215.649002,585.821451 215.860143,587.747693 215.831916,589.712325 L216.170645,589.721358 C217.189092,589.721358 217.187963,591.302095 216.170645,591.302095 L215.757395,591.290804 C215.497703,594.498573 214.594424,597.792154 212.895131,601.120736 C211.452143,603.943482 209.47622,606.6138 207.111888,608.833608 L207.684383,609.724759 C207.778182,609.87426 207.869137,610.02556 207.954196,610.180623 C208.443095,611.073739 207.076886,611.870883 206.589116,610.977766 C206.38362,610.602905 206.14538,610.249498 205.912786,609.891573 C203.207465,612.129447 200.065184,613.76551 196.649661,614.401193 C196.711762,615.209627 195.407653,615.499806 195.100538,614.620238 L194.914237,614.643949 C190.324451,615.023326 186.134367,614.428291 182.092194,613.295805 L181.955573,613.888582 C181.727495,614.879931 180.203212,614.457648 180.432419,613.467428 L180.575815,612.840779 C175.764726,611.326658 171.120744,609.114754 166.217069,606.936723 C166.042059,606.858815 165.944956,606.742518 165.882856,606.616059 C161.387915,605.257753 158.083044,601.185095 157.46091,595.312653 C156.42214,585.494013 161.450015,573.495083 168.283319,566.569193 L168.775161,566.080491 C174.066774,560.926065 183.307104,555.144123 190.776091,558.069339 Z M196.470135,562.729129 C197.02678,563.65386 197.462612,564.715213 197.775373,566.031742 C199.132549,571.741593 197.488582,577.872598 195.225868,583.148875 C191.341769,592.209891 184.457656,601.830939 175.139206,605.842626 C173.502013,606.547184 171.88966,606.948013 170.345053,607.073343 C172.377431,607.994688 174.388355,608.900225 176.410571,609.721079 C176.643165,609.142981 176.938989,608.571657 177.276589,608.085016 C177.852429,607.253999 179.223155,608.045497 178.641669,608.883288 C178.345845,609.308958 178.100831,609.804633 177.897593,610.305952 C182.74933,612.159932 187.718492,613.433555 193.260108,613.170475 C193.746749,613.146764 194.225487,613.103859 194.700837,613.045145 C194.631962,612.661252 194.570991,612.2751 194.539376,611.882174 C194.456952,610.865985 196.038819,610.875018 196.120114,611.882174 C196.146083,612.189289 196.20028,612.490758 196.257864,612.789969 C202.950031,611.407953 208.358413,606.572024 211.530051,600.322463 C211.736676,599.914859 211.917331,599.508383 212.100245,599.101908 C211.930881,599.250949 211.701674,599.331115 211.417141,599.250949 C210.712583,599.049969 210.001251,598.89867 209.27637,598.797051 C208.854087,598.738338 208.618106,598.194113 208.724241,597.824898 C208.852958,597.376645 209.270725,597.212926 209.696395,597.272768 C210.421276,597.375516 211.132608,597.525686 211.837165,597.725537 C212.224446,597.836189 212.385907,598.142174 212.387036,598.453805 C213.41,596.004791 213.984711,593.587391 214.186819,591.224188 C213.836799,591.199347 213.487907,591.176765 213.139016,591.140634 C212.136377,591.03337 212.128473,589.451503 213.139016,589.558767 C213.513877,589.599415 213.889867,589.624255 214.265856,589.649095 C214.430705,578.554573 206.349747,568.787871 196.470135,562.729129 Z M185.347385,606.359753 C185.913064,605.517446 187.281531,606.310073 186.712465,607.156897 C186.235986,607.865971 185.809187,608.839253 185.613853,609.672528 C185.381258,610.665006 183.858104,610.241594 184.08957,609.252504 C184.210383,608.734247 184.461043,608.230669 184.671055,607.745157 L184.914164,607.178313 C185.040361,606.893591 185.17802,606.612445 185.347385,606.359753 Z M199.902594,606.045864 C200.280842,605.946503 200.808131,606.172323 200.874748,606.597993 C200.967334,607.20319 201.250738,607.760964 201.395262,608.353741 C201.628308,609.304352 200.23181,609.72739 199.905941,608.885627 L199.870979,608.773766 C199.726455,608.180989 199.443051,607.623214 199.349336,607.018018 C199.284977,606.597993 199.449826,606.165548 199.902594,606.045864 Z M190.988361,606.599122 C191.285314,605.628097 192.810726,606.044735 192.513774,607.019147 C192.366991,607.499014 192.250694,607.983397 192.194239,608.481329 C192.146816,608.903612 191.870187,609.277344 191.402741,609.271698 C191.012072,609.268311 190.56382,608.909258 190.612372,608.481329 C190.686892,607.840001 190.799802,607.216739 190.988361,606.599122 Z M175.142593,563.099473 C170.632973,565.980932 167.007438,569.782607 164.389059,574.457075 C159.952831,582.375443 153.77892,600.924273 165.979959,605.275819 C171.793687,607.348843 178.51521,602.780511 182.556254,598.926898 C186.408738,595.250553 189.569085,590.765774 192.070038,586.076628 C194.580024,581.372803 196.804348,575.62795 196.733215,570.202632 C196.666598,565.046039 195.000048,562.169096 190.56382,559.654593 C185.514492,557.333167 179.41736,560.369313 175.142593,563.099473 Z M189.799421,562.068606 C193.202524,564.329061 194.617284,566.438217 194.984241,570.523296 C195.496852,576.209436 192.929282,582.259145 190.143796,587.095074 L189.891045,587.528058 C185.759768,594.514532 175.531224,607.551034 166.156098,602.78164 C156.057671,597.645256 161.712258,581.870803 165.973947,574.593601 L166.105288,574.371263 C170.171172,567.54925 181.171979,557.622216 189.799421,562.068606 Z M203.180367,600.470375 C203.582326,600.241168 204.004609,600.409404 204.262044,600.753779 C204.5669,601.159408 204.812691,601.608859 205.092301,602.032589 L205.386626,602.445169 C205.649706,602.779382 205.721968,603.234408 205.386626,603.561847 C205.107738,603.836218 204.534156,603.900577 204.269947,603.561847 C203.767498,602.921648 203.386992,602.202412 202.896963,601.550923 C202.640658,601.211064 202.842767,600.662322 203.180367,600.470375 Z M167.279296,575.508283 L166.940503,576.106205 C163.36668,582.598169 157.650305,598.38484 167.760547,601.755289 C172.501632,603.336027 178.17761,599.138039 181.361668,596.053342 C184.292807,593.211401 186.740693,589.825235 188.778716,586.296802 C190.898034,582.626102 192.566841,578.57151 193.216073,574.36223 C193.964665,569.512752 193.082839,566.144652 189.002277,563.433686 C181.169344,559.397795 170.878278,569.378117 167.279296,575.508283 L167.279296,575.508283 Z M192.83105,597.776346 C193.417052,598.325088 193.99628,598.880605 194.648899,599.349181 C195.470883,599.935183 194.680514,601.305908 193.851755,600.713132 C193.087356,600.165519 192.398605,599.53774 191.714372,598.895283 C190.970296,598.1975 192.090362,597.080822 192.83105,597.776346 Z M198.17959,592.868155 C197.24018,592.502327 197.652301,590.974657 198.599614,591.343872 C199.326754,591.627276 200.001955,592.036009 200.738127,592.291186 C201.695603,592.622012 201.280094,594.148553 200.316973,593.815469 C199.577414,593.559163 198.907858,593.152688 198.17959,592.868155 Z M176.377827,590.900136 L176.38575,592.389417 C176.390247,593.408993 174.809509,593.406735 174.803863,592.389417 L174.797059,590.900136 C174.791443,589.88169 176.37331,589.883948 176.377827,590.900136 Z M171.774492,590.838036 L170.813629,592.626528 C170.331504,593.524161 168.967553,592.725889 169.448549,591.829384 L170.409412,590.040892 C170.890408,589.143259 172.254359,589.942661 171.774492,590.838036 Z M179.966102,589.226812 C180.051913,589.711196 180.163694,590.185417 180.30596,590.65738 C180.600655,591.635179 179.074114,592.04843 178.782807,591.077405 C178.64054,590.605442 178.52763,590.132349 178.441819,589.646837 C178.266808,588.649843 179.789962,588.226431 179.966102,589.226812 Z M206.154037,589.170464 L206.259419,589.172616 L207.658372,589.330689 C208.080655,589.378112 208.453257,589.653612 208.448741,590.121058 C208.444224,590.512856 208.0863,590.958849 207.658372,590.911427 L206.259419,590.753354 C205.837136,590.705931 205.463404,590.430431 205.467921,589.962985 C205.472061,589.602802 205.77411,589.198028 206.154037,589.170464 L206.154037,589.170464 Z M179.974005,576.386704 L180.024815,576.41719 C180.071108,576.435255 180.116272,576.438643 180.162565,576.465741 C182.66126,577.966313 182.010899,580.939229 180.814055,583.199685 C179.728991,585.252386 176.963829,588.675812 174.229152,587.515099 C168.627695,585.137218 174.884029,574.541757 179.974005,576.386704 Z M168.556561,587.172982 C168.01911,587.267826 167.521178,587.4259 167.009696,587.609943 C166.048834,587.955447 165.638971,586.427777 166.589672,586.08566 C167.101153,585.901617 167.599086,585.743543 168.136537,585.648699 C169.132402,585.471431 169.556943,586.995714 168.556561,587.172982 Z M182.87466,584.988177 L183.814069,585.644183 C184.641699,586.22341 183.85133,587.593007 183.015797,587.009263 L182.077516,586.353257 C181.247629,585.774029 182.037998,584.404433 182.87466,584.988177 Z M174.945001,580.39952 C174.591754,580.944391 174.370405,581.52908 174.172875,582.137232 L174.075595,582.443189 C173.658957,583.776654 173.356359,585.373199 175.039845,585.799998 C176.965075,586.288392 178.507168,584.146407 179.360226,582.569219 L179.448975,582.402541 C180.178372,581.012621 180.975516,578.900077 179.433167,577.887276 C177.740649,577.385956 175.794083,579.092024 174.945001,580.39952 Z M202.237285,582.062625 L202.353867,582.077361 C202.841638,582.169947 203.303439,582.376572 203.793468,582.469158 C204.79272,582.659975 204.36705,584.183129 203.372314,583.993441 C203.005639,583.924001 202.654207,583.790415 202.295154,583.688902 L201.932713,583.601644 C200.973431,583.418459 201.327358,582.007393 202.237285,582.062625 L202.237285,582.062625 Z M167.021763,581.213074 L167.127123,581.214729 L169.240795,581.449582 C169.664207,581.495875 170.036809,581.773633 170.032293,582.238822 C170.027777,582.632877 169.668723,583.076613 169.240795,583.029191 L167.127123,582.796596 C166.70484,582.749174 166.332237,582.471416 166.336754,582.006227 C166.340517,581.678789 166.589703,581.315282 166.920304,581.229998 L167.021763,581.213074 Z M184.487012,580.390487 C185.054949,580.389358 185.601432,580.419844 186.164853,580.488719 C186.587135,580.539528 186.960867,580.809383 186.955222,581.279088 C186.950705,581.668627 186.592781,582.121395 186.164853,582.069457 C185.601432,582.000582 185.054949,581.968967 184.487012,581.971225 C183.468565,581.974613 183.469694,580.393875 184.487012,580.390487 Z M209.703169,578.844752 C210.665161,578.501506 211.075024,580.029176 210.123194,580.369035 C209.532299,580.580741 208.876324,580.698355 208.287912,580.936851 L207.944034,581.096174 C207.044142,581.571524 206.24587,580.206444 207.145761,579.731094 C207.942905,579.308811 208.858604,579.146221 209.703169,578.844752 Z M170.392475,576.612524 L172.208066,577.88276 C173.037953,578.461987 172.246455,579.831584 171.409793,579.24784 L169.594203,577.977604 C168.766574,577.399505 169.556943,576.02878 170.392475,576.612524 Z M186.516002,577.588065 C186.140859,577.654117 185.772703,577.718264 185.410103,577.819089 L185.049303,577.933569 C184.08957,578.281331 183.679707,576.752532 184.629279,576.410415 C185.106887,576.236534 185.595787,576.151852 186.094848,576.064911 C187.091842,575.89103 187.516383,577.414184 186.516002,577.588065 Z M204.447216,573.359591 C205.465663,573.3483 205.463404,574.929038 204.447216,574.940329 C203.925572,574.945974 203.399412,574.974202 202.896963,575.120985 C201.916906,575.406647 201.502527,573.880105 202.476939,573.596702 C203.108105,573.412659 203.792339,573.366366 204.447216,573.359591 Z M174.669501,572.029513 L175.505034,573.854136 C175.926187,574.773222 174.563365,575.576011 174.139953,574.652409 L173.304421,572.827786 C172.883267,571.90757 174.246089,571.10591 174.669501,572.029513 Z M184.28942,571.926765 L183.189678,573.622671 C182.637549,574.474011 181.269081,573.680255 181.824598,572.824398 L182.925469,571.129621 C183.477598,570.278281 184.844936,571.072037 184.28942,571.926765 Z M179.077501,571.149945 L179.163313,572.858271 C179.212993,573.876718 177.632255,573.871073 177.581446,572.858271 L177.496763,571.149945 C177.445954,570.131498 179.026692,570.137144 179.077501,571.149945 Z" id="4"></path>
        </g>
    </g>
</svg>
