<?xml version="1.0" encoding="UTF-8"?>
<svg width="56px" height="61px" viewBox="0 0 56 61" version="1.1" xmlns="http://www.w3.org/2000/svg" xmlns:xlink="http://www.w3.org/1999/xlink">
    <title>branches-with-leaves-svgrepo-com</title>
    <g id="页面-1" stroke="none" stroke-width="1" fill="none" fill-rule="evenodd">
        <g id="形状库素材-植物" transform="translate(-802.000000, -314.000000)" fill="#545458" fill-rule="nonzero">
            <g id="branches-with-leaves-svgrepo-com" transform="translate(802.924786, 314.690935)">
                <path d="M48.81559,59.0648227 L48.6525164,58.8085641 C44.8396997,55.5415449 46.8498317,52.7670747 46.8498317,52.7670747 C49.7640794,54.1504271 48.8144806,59.0648227 48.81559,59.0648227 Z M10.6918611,23.7810154 C10.6918611,23.7810154 8.0793551,23.0211145 7.43704471,25.6979625 C7.43704471,25.6979625 9.27855637,26.3924121 10.6918611,23.7810154 Z M16.4870761,33.5521207 C16.4870761,33.5521207 15.204674,35.1207336 17.2891321,37.3571719 C17.2891321,37.3571719 18.8876974,35.0563917 16.4870761,33.5521207 Z M6.96557335,59.1779758 C6.96557335,59.1779758 9.33402359,60.070998 11.1511297,56.7130126 C11.1511297,56.7130126 7.79092556,55.7367896 6.96557335,59.1779758 Z M7.2895019,51.5046408 C7.2895019,51.5046408 7.51358947,52.9135081 9.66571756,52.8669157 C9.66571756,52.8669157 9.20644899,50.9477499 7.2895019,51.5046408 Z M10.2126243,50.590541 C10.2126243,50.590541 9.21754243,51.1551973 9.85874348,52.7581999 C9.85874348,52.7581999 11.1699885,51.8729431 10.2126243,50.590541 Z M13.5883593,19.2770772 C13.5883593,19.2770772 13.1279814,17.3590208 11.2121436,17.9148024 C11.2121436,17.9148024 11.4362312,19.3247791 13.5883593,19.2770772 Z M14.1341567,17.0018119 C14.1341567,17.0018119 13.1390748,17.5664682 13.7813852,19.1694708 C13.7813852,19.1683615 15.0926303,18.2831047 14.1341567,17.0018119 Z M0,36.0714418 C0,36.0714418 2.76892357,37.0620863 4.89442739,33.3380172 C4.89442739,33.3380172 0.965129608,32.2541878 0,36.0714418 Z M25.9764079,38.0272159 C25.9764079,38.0272159 24.143771,37.4947306 23.6933772,39.3717413 C23.6933772,39.3717413 24.9846541,39.8587435 25.9764079,38.0272159 Z M4.89664973,32.9020449 C4.89775543,32.9020449 4.64815294,29.7992087 1.35450946,30.1863699 C1.35450946,30.1863699 1.35007211,32.4372296 4.89664973,32.9020449 Z M42.4690308,42.2715675 C42.4690308,42.2715675 42.4657028,44.434789 45.6983323,44.8807455 C45.6983323,44.8807455 45.4709167,41.8988278 42.4690308,42.2715675 Z M31.2191695,9.90977332 C31.2191695,9.90977332 32.2464224,7.44813815 29.7104611,6.52849166 C29.7104611,6.52849166 28.830751,8.24575676 31.2191695,9.90977332 Z M40.5021632,32.2863588 C40.5021632,32.2863588 39.0134231,34.3142403 41.7401915,36.9533706 C41.7401915,36.9533706 43.5750471,33.9980771 40.5021632,32.2863588 Z M50.3475946,45.497541 C50.3475946,45.497541 49.4068705,47.3335059 51.9616906,49.1140036 C51.9616906,49.1140036 53.0599416,46.4815294 50.3475946,45.497541 Z M50.4740591,45.2545945 C50.4729505,45.2545945 51.6810265,46.741116 54.1504271,45.2390637 C54.1504271,45.2390637 52.3266649,43.3187886 50.4740591,45.2545945 Z M43.1867766,14.5656917 C43.1867766,14.5656917 44.0043634,13.2355878 42.1839293,11.7413009 C42.1839293,11.7413009 41.1988315,13.6626854 43.1867766,14.5656917 Z M43.0769515,14.7420774 C43.0769515,14.7409681 42.253818,13.5484229 40.3024812,14.53463 C40.3024812,14.53463 41.5649151,16.0921495 43.0769515,14.7420774 Z M44.3005584,28.3492956 C44.3005584,28.3492956 45.8591872,25.0268092 42.4279851,23.6123951 C42.4279851,23.6123951 41.1178494,25.9198314 44.3005584,28.3492956 Z M47.3290685,23.4914765 C47.3290685,23.4914765 45.0915209,20.922235 42.6032615,23.306216 C42.6032615,23.306216 44.0720334,25.2841771 47.3290685,23.4914765 Z M29.6605406,1.71393706 C29.6605406,1.71393706 25.8721296,1.05942388 25.3928928,4.91883297 C25.3928928,4.91883297 28.0885996,5.60329845 29.6605406,1.71393706 Z M25.0356839,4.82675739 C25.0356839,4.82675739 26.6275931,2.79443849 23.9130274,0 C23.9130274,0 21.9372851,2.97304293 25.0356839,4.82675739 Z M18.6136893,23.9451984 C18.6136893,23.9451984 14.4691787,25.1510557 15.8869208,29.2811448 C15.8880302,29.2811448 18.9431646,28.6432718 18.6136893,23.9451984 Z M24.3867174,46.2108494 C24.3867174,46.2108494 25.9963761,44.7831232 24.1903635,42.0851976 C24.1892542,42.0851976 22.1236549,44.2262323 24.3867174,46.2108494 Z M29.6128388,19.7674075 C29.6128388,19.7674075 30.5457974,17.4965795 27.3420109,15.639537 C27.3431202,15.639537 26.2992272,18.8699479 29.6128388,19.7674075 Z M50.0147913,41.2676108 C50.0147913,41.2676108 51.0442628,40.1771253 49.6254114,38.4154864 C49.6254114,38.4154864 48.3219317,40.0284732 50.0147913,41.2676108 Z M21.5035314,59.6993677 C21.627778,59.800318 21.7786488,59.8979403 21.9173169,59.996672 L18.7434826,59.996672 C18.6968901,59.9412047 18.6636098,59.8702067 18.6625005,59.7803498 L18.6591724,59.7803498 C18.6591724,59.3710017 18.4361942,59.059276 18.1854824,58.763081 C17.949192,58.5800392 17.7084643,58.3992161 17.4666272,58.2372518 C17.1626669,58.0342418 17.1770883,57.6748142 17.3445993,57.4473986 C17.1526828,57.2410605 16.9585475,57.0280664 16.7932552,56.7995415 C16.7810524,56.7984321 16.7677403,56.7962134 16.7555375,56.7939947 L16.7555375,56.7962134 C16.7422253,56.7939947 16.7311319,56.7906667 16.7189291,56.788448 C16.502607,56.7518397 16.2995969,56.6985911 16.0821654,56.6331398 C15.7438154,56.5321895 15.3533262,56.5987501 15.0449284,56.4977998 C14.8319343,56.4279111 14.6056281,56.3613504 14.3915246,56.2748216 C14.3449321,56.3025552 14.2950116,56.3225234 14.2417631,56.3347262 L14.2351071,56.3402729 C13.9688644,56.5932034 13.6959657,56.8106349 13.3731465,56.9859113 C13.2000887,57.0802056 12.923862,57.0480346 12.8162556,57.1434382 C12.8229117,57.5849573 12.3669711,57.857856 12.1916947,58.2272677 C12.1750545,58.2616574 12.1229154,58.2372518 12.1317901,58.2017528 C12.1905854,57.9665718 12.2072255,57.7447029 12.3348001,57.5305994 C12.3969234,57.4252117 12.4490626,57.3220427 12.5111859,57.2244204 C12.485671,57.2177643 12.4590467,57.2099989 12.4346411,57.1955774 C11.8733129,56.8683208 11.0856784,56.5954221 10.450024,56.5477203 C10.3867914,56.5432829 10.3856821,56.4478793 10.450024,56.4489886 C10.8693562,56.4578634 11.4229191,56.6642015 11.8211737,56.5776726 C12.0951817,56.517768 12.2981918,56.5000185 12.5233887,56.5665792 C12.7863033,56.3491477 13.0924823,56.2126983 13.3431942,55.9730799 C13.3709278,55.9464556 13.397552,55.918722 13.4241763,55.8909884 C13.4086455,55.8821137 13.3931147,55.8721296 13.3798025,55.8621455 C13.3276634,55.8244278 13.2855083,55.7789446 13.2522279,55.7290241 C12.9671264,55.6957438 12.79185,55.3917835 12.6254484,55.181008 C12.5489036,55.0833857 12.5167326,54.9469364 12.5400288,54.8282365 C12.5278261,54.7760973 12.52117,54.7228488 12.52117,54.6673816 C12.3991421,54.5819621 12.2848796,54.4876678 12.1683985,54.3978109 C12.1206967,54.446622 12.0519173,54.4699183 11.9609511,54.4366379 C11.8134083,54.3833894 11.6780683,54.3135007 11.5538217,54.2280812 C11.4894797,54.2014569 11.4251377,54.1737233 11.3619051,54.1448804 C11.2176903,54.1470991 11.0756943,54.1537551 10.9647598,54.1382243 C10.8560441,54.1238028 10.810561,54.0505861 10.8083423,53.969604 C10.6630182,53.9185741 10.5210221,53.8619976 10.382354,53.7954369 C10.2692009,53.808749 10.1660319,53.8475761 10.0229265,53.8475761 C9.72451281,53.8475761 9.51484673,53.6811744 9.19202751,53.737751 C9.12546685,53.7499538 9.06889029,53.6922679 9.06556225,53.6356913 C8.81263173,53.609067 8.55970122,53.5713493 8.30898939,53.5491624 C8.24575676,53.5436157 8.24575676,53.4559775 8.30898939,53.4504308 C8.70613467,53.4160411 9.10771734,53.3394964 9.50597197,53.3328403 C9.7167474,53.3295123 9.96967792,53.2807011 10.182672,53.3306216 C10.275857,53.2862478 10.3723699,53.2485301 10.4844137,53.2596236 C10.9270421,53.3039973 11.3142033,53.5291942 11.7268794,53.6789557 C11.7779093,53.6789557 11.8278298,53.6789557 11.8788596,53.6800651 C11.9875753,53.6811744 12.0907444,53.7488444 12.189476,53.8198425 C12.2061162,53.8298266 12.2205377,53.84092 12.2338498,53.8531228 C12.2848796,53.8908405 12.3336908,53.9274489 12.3813926,53.9540731 C12.5910587,54.072773 12.9405022,54.0927412 13.1113412,54.2646896 L13.1146692,54.2691269 C13.159043,54.2669083 13.2067448,54.2735643 13.258884,54.2957512 C13.5018304,54.3967015 13.7303554,54.4943239 13.9511149,54.6285545 C14.1652184,54.6207891 14.3837592,54.6241171 14.6045187,54.6374293 C14.6244869,54.6329919 14.6455645,54.6296639 14.6677514,54.6274452 L14.6644233,54.5963835 C14.6400177,54.4133417 14.7065784,54.2657989 14.830825,54.1903635 C14.6078468,54.0539141 14.3859779,53.9185741 14.1519062,53.8032023 C14.12861,53.7921089 14.1452502,53.7577192 14.1685464,53.7632659 C14.4836002,53.8331546 14.7687017,53.9684946 15.0360537,54.1382243 C15.0615686,54.1382243 15.0881929,54.1382243 15.1170358,54.1426617 C15.2701254,54.1648486 15.3522168,53.9840254 15.3899345,53.7233295 C15.3843878,53.6955959 15.3777318,53.670081 15.3755131,53.641238 C15.3677477,53.505898 15.3577636,53.370558 15.3466701,53.2363273 C15.3411234,53.2174685 15.3355767,53.199719 15.3322486,53.1797508 C15.2068927,52.4120845 15.1281293,51.6421995 14.862996,50.9067041 C14.8030914,50.7403025 14.8796361,50.519543 14.9506342,50.358688 C14.9173538,50.3387198 14.8774174,50.3065488 14.8286063,50.2610657 C14.6355804,50.0780239 14.6588766,49.7785009 14.8286063,49.5932404 L14.8419184,49.5710535 C14.7764671,49.2948268 14.7198905,49.0174907 14.6755168,48.7390452 C14.5623636,48.4894427 14.4325704,48.2631365 14.3737751,48.177717 C14.0221129,47.6707466 13.8823355,47.5686869 13.9278187,46.8786747 C13.9500055,46.5236845 14.0831269,46.1919905 14.1519062,45.8469844 C14.1718744,45.7471434 14.1763118,45.6450838 14.1763118,45.5430241 C14.1596716,45.5241652 14.1419221,45.5075251 14.1263913,45.4853382 C13.7192619,44.9184632 13.658248,44.0687054 13.2899456,43.4707688 C12.9870946,43.2733055 12.6953371,43.0469992 12.4113449,42.8905817 C12.0918537,42.7153053 11.7701438,42.5167326 11.487261,42.2771142 C11.3175313,42.2382872 11.1555671,42.2316311 11.013571,42.2737862 C10.77839,42.3436749 10.578708,42.2238657 10.443368,42.0419332 C10.1604852,41.6625374 9.64131198,41.4750582 9.1543098,41.0856784 C9.06001553,41.0091336 9.02007913,40.8649188 9.03450061,40.7362349 C8.62071516,40.578708 8.25574086,40.3324335 7.8918759,40.0218171 C7.38490552,39.5891728 6.53958511,39.5913915 5.92389898,39.4150057 C5.50900418,39.2951965 5.12517102,39.1210295 4.72913508,38.9501904 C4.70583885,38.9402063 4.72247901,38.903598 4.74577525,38.910254 C5.66542174,39.1631846 6.98554154,39.4982066 7.94068705,39.4294272 C8.57079466,39.3839441 9.06445291,40.0750656 9.7367156,40.0972525 C10.0262545,40.1072366 10.2703102,40.4777576 10.0872684,40.7229228 C10.2337019,40.8094516 10.3934475,40.8704656 10.5920201,40.8704656 C10.6685649,40.8704656 10.7440003,40.8915431 10.8116703,40.9259328 C10.8338572,40.9226047 10.8549347,40.9214954 10.8771216,40.9226047 C10.9092926,40.9248234 11.1367082,40.9192767 11.0291018,40.9447916 C11.0501793,40.9403543 11.0701475,40.9336982 11.0912251,40.9270421 L11.1111933,40.9159487 C11.077913,40.6574714 11.0069149,40.4233998 10.8682469,40.1893281 C10.7595311,40.0062863 10.7750619,39.7189661 10.9470103,39.5758607 C11.0002588,39.5303775 11.045742,39.4837851 11.0878971,39.4360833 C11.0213364,39.3196021 10.9736346,39.2009023 10.9736346,39.0766557 C10.9736346,38.8448027 10.9758533,38.575232 11.0080243,38.3100987 C10.7828273,37.9451244 10.7484377,37.4592316 10.8471693,37.0055097 C10.1893281,36.5307104 9.51151869,35.8662131 9.58362608,35.0697038 C9.006767,34.7435566 8.55082646,34.2299301 8.02388788,33.8427689 C7.51580816,33.8261288 7.03989942,33.6763673 6.53736642,33.5942758 C5.96050734,33.4999815 5.44577155,33.379063 4.9720815,33.0229634 C4.87224051,32.947528 4.95655068,32.7911105 5.07192249,32.8521244 C5.55004992,33.1017269 6.00599046,33.1494287 6.53736642,33.0662279 C6.5994897,33.0573531 6.66050364,33.0407129 6.72151758,33.0218541 C6.39647968,31.778279 6.30218541,30.4304256 5.8296047,29.2389898 C5.8096365,29.1868506 5.89505602,29.1524609 5.92057094,29.201272 C6.21343786,29.7559442 6.47635248,30.3339127 6.68823725,30.9251932 C6.91010613,31.5464261 7.05321155,32.4039493 7.76541064,32.6080686 C8.78046075,32.8987169 9.29630588,34.0002958 10.2924971,34.316459 C10.5276781,34.390785 10.7384536,34.6659025 10.6375032,34.9243797 C10.5920201,35.0419702 10.585364,35.1551233 10.6053322,35.2627297 C10.6208631,35.2594017 10.6363939,35.257183 10.6530341,35.257183 C10.6896424,35.257183 10.7251414,35.260511 10.7606405,35.2649484 C10.8882151,35.1407018 11.1178494,35.1284991 11.2676108,35.257183 C11.3352808,35.2549643 11.3962948,35.2560737 11.4772769,35.2760419 C11.5316348,35.289354 11.5815553,35.3082128 11.6325851,35.3270717 C12.3103946,34.4562364 13.2311504,33.6131346 13.3709278,32.7999852 C13.4985024,32.0589432 13.597234,31.3633842 13.8512739,30.6622786 C13.964427,30.3505528 13.6349517,29.9811411 13.6660134,29.6605406 C13.7114965,29.1801945 13.7270273,28.7020671 13.664904,28.2239397 C13.6604667,28.196206 13.6771068,28.1795659 13.6981844,28.1695818 C13.5794845,27.6981104 13.3154606,27.4274304 12.8140369,27.1367822 C12.1650704,26.7607144 11.815627,25.8233184 11.8755316,25.0889324 C11.8722035,25.0767297 11.8688755,25.0656362 11.8666568,25.0534334 C11.6947084,24.9036719 11.6603188,24.6451947 11.6669748,24.3989202 C11.5993048,24.3135007 11.5338535,24.2236438 11.4739489,24.1304589 C11.2698295,24.0627889 11.0867877,23.9363236 10.9370262,23.7621566 C10.6652368,23.4448841 10.4666642,22.971194 10.0950338,22.7726214 C10.0562068,22.7526532 10.0839404,22.6905299 10.1249861,22.7027327 C10.3867914,22.7814961 10.6840957,22.9268202 10.8804497,23.1209555 C11.145583,23.3838701 11.4306845,23.7654846 11.851126,23.7044707 L11.8710942,23.7044707 C12.015309,23.0233332 12.4235477,22.3577266 12.7973967,21.7453685 C12.8018341,21.7254003 12.8051621,21.7098695 12.8073808,21.7009947 C12.9194246,21.1818215 13.4341604,20.6670858 13.2688681,20.1223977 C13.0636394,19.4456976 13.9433495,19.4767592 14.2983397,19.2493436 C14.3427135,19.2205007 14.3815405,19.2815146 14.3515882,19.318123 C13.7658544,20.0303221 13.2688681,21.0187479 13.0281404,22.0171579 C13.0181563,22.0748438 13.0037348,22.1325297 12.9904227,22.1902156 C12.9027845,22.6062197 12.85952,23.0211145 12.8772695,23.4171505 C12.8817069,23.5225382 12.788522,23.6146138 12.6864623,23.6245979 C12.6698221,23.6800651 12.653182,23.7355323 12.6365418,23.7909995 C12.6509633,23.9008246 12.6653848,24.0117591 12.6864623,24.1204748 C12.7153053,24.2657989 12.5954961,24.3634212 12.4657028,24.3290315 C12.4701401,24.3678586 12.4756869,24.404467 12.4812336,24.4421847 C12.5777466,24.5586658 12.6476352,24.6995526 12.7019931,24.9014532 C12.7230707,24.9791073 12.7108679,25.0711829 12.6742595,25.1510557 C12.7064305,25.1954295 12.7386015,25.248678 12.7763192,25.3241134 C12.8617387,25.4938431 12.8151462,25.6546981 12.7141959,25.7645232 C12.9282994,26.0895611 13.1767925,26.3868654 13.4441445,26.51444 C13.796916,26.6830603 14.0054728,26.8106349 14.1796398,27.1622971 C14.4691787,27.7469216 14.3416041,28.6820989 14.299449,29.4286876 C14.3127612,29.4763895 14.328292,29.5229819 14.3404948,29.5695744 C14.3937433,29.7792405 14.5590356,30.0210775 14.6366897,30.2573679 C14.7908886,30.1919166 14.9550716,30.1486521 15.1148171,30.1053877 C15.2923122,30.0587953 15.4276523,29.8879562 15.5574455,29.764819 C15.5984913,29.7259919 15.6583959,29.7858965 15.6195688,29.8269423 C15.5352587,29.9145805 15.4520578,30.003328 15.3644196,30.0865289 C15.2878749,30.1586362 15.2435011,30.2473838 15.1780498,30.3283659 C15.0393817,30.499205 14.9295566,30.6301076 14.7099064,30.6966683 C14.6855009,30.7044337 14.6622046,30.7044337 14.6400177,30.7033243 C14.4436638,31.4643346 14.4913656,32.2941242 14.2739341,33.0495877 C14.0454092,33.8427689 13.593906,34.5693895 13.2156196,35.2993381 C12.9604704,35.791887 12.5899493,36.2500462 12.4257664,36.7869689 C12.3037385,37.1852235 12.257146,37.4592316 12.0230744,37.7676293 C12.0652294,37.9451244 12.0663388,38.1381504 12.0485893,38.3345043 C12.050808,38.3899715 12.050808,38.4465481 12.0463706,38.5053433 C12.0430426,38.5386237 12.0352772,38.5696853 12.0241837,38.5996376 C12.2660208,38.6795104 12.4579374,38.9601745 12.3603151,39.2108864 C12.3314721,39.2852124 12.3026291,39.3539918 12.2748955,39.4205525 C12.3869393,39.6169064 12.4878897,39.8221351 12.5999334,40.044004 C12.8783789,40.5931295 13.3709278,41.1866287 13.7603077,41.6703029 C14.3149798,42.3592057 14.9761491,42.891691 15.5907259,43.4985024 C15.6306623,43.4019894 15.6705987,43.3054765 15.7083164,43.2111822 C16.0311356,42.4057982 16.3728137,41.5826646 16.9873905,40.9614318 C16.8875495,40.6020042 16.8808934,40.2392486 16.9995932,39.8665089 C17.0816847,39.609141 17.1915098,39.3528824 17.2569611,39.0921865 C17.3601302,38.6784011 17.5686869,38.6207152 17.2159154,38.533077 C16.9607662,38.4698443 16.8753467,38.0582776 17.1382613,37.9406871 C18.2032319,37.4625596 19.3724809,37.1541619 20.2599564,36.3498872 C20.4219206,36.2034538 20.7924417,35.6543283 21.0143105,35.6543283 C21.5368117,35.6543283 21.4170026,34.825648 21.4036904,34.5083756 C21.4014717,34.4628924 21.4658137,34.4584551 21.4791258,34.4983915 C21.6333247,34.9521133 21.6189032,35.353696 21.5512332,35.824058 C21.5434678,35.8717598 21.4868912,35.9094775 21.4414081,35.9072588 C20.9666087,35.8839626 20.5960877,36.5373664 20.2810339,36.7858596 C20.0425249,36.9744481 19.8029065,37.160818 19.5411012,37.3183449 C19.0496616,37.6134305 18.551566,37.898532 18.0501424,38.1769774 C18.0800947,38.2313353 18.1011722,38.2923492 18.110047,38.3633473 C18.2243094,39.2685723 17.6130607,40.040676 17.8238361,40.9403543 C17.8371482,40.9336982 17.849351,40.9259328 17.8637725,40.9192767 C17.8804127,40.910402 17.8970528,40.9303702 17.8837407,40.9447916 C17.8659912,40.9647598 17.8504604,40.9836187 17.8338202,41.0035869 C17.8560071,41.1289428 17.8260548,41.2753763 17.7273232,41.3596864 C17.6640905,41.4140443 17.6052953,41.4695115 17.5476094,41.5271974 C17.3934105,41.9820286 17.3767703,42.4867803 17.1227305,42.923862 C16.8032393,43.4740968 16.5247938,44.0409718 16.2585512,44.6189402 L16.2441297,44.6511112 C16.2862848,45.0005547 16.302925,45.333358 16.2751914,45.6750361 C16.3717043,45.874718 16.3639389,46.1309766 16.1731317,46.3717043 L16.1587102,46.3883445 C16.1287579,46.5214658 16.0965869,46.6579152 16.0588692,46.7965832 C16.5159191,47.8304922 16.6667899,48.9276338 16.6934142,50.0724772 C17.1781977,50.654883 17.4155974,51.6532929 17.6940428,52.2545576 C18.1544207,53.2485301 18.216544,54.3390156 18.5315978,55.377362 C18.6380949,55.4361572 18.7201864,55.5315608 18.7556854,55.6591355 C18.8921347,56.1527937 19.1605961,56.5832193 19.3991051,57.0313944 C19.4290574,57.0369412 19.4579004,57.0447066 19.485634,57.0558 C19.4956181,56.9814739 19.5899124,56.9393189 19.6620197,56.9947861 C20.3808749,57.5561143 20.5472766,58.4491366 21.0276227,59.165773 C21.1707281,59.3199719 21.3093961,59.4808268 21.4447362,59.6461191 C21.4647044,59.6638687 21.4824539,59.6827275 21.5035314,59.6993677 Z M50.0669304,42.1739452 C49.7452206,42.3980328 49.9415745,42.9771105 49.9471213,43.3886773 C49.9493399,43.5373294 49.8062345,43.5661724 49.7097216,43.5206893 C49.6708945,43.5450948 49.6187553,43.5495322 49.5721629,43.5373294 C49.7341271,43.697075 49.7818289,43.9178346 49.7108309,44.2007174 C49.788485,44.5435048 49.8794512,44.8796361 49.9770735,45.2179862 C50.026994,45.3899345 49.8872167,45.5907259 49.7019561,45.5796324 C49.620974,45.5751951 49.5200237,45.5818511 49.4168546,45.5896165 C49.4201827,45.6051474 49.42462,45.6195688 49.4279481,45.6350997 C49.4811966,45.8636246 49.3236697,46.0566505 49.0951448,46.0721813 C48.9720075,46.0799468 48.8644011,46.0854935 48.7590134,46.0843841 C48.7079836,46.2452391 48.5726436,46.3506268 48.4029139,46.3550642 C47.9025996,46.3683763 47.6574345,46.7222571 47.2536331,46.7677403 C47.2281182,47.0228895 47.1571201,47.2369929 47.0606072,47.5176571 C47.0373109,47.5853271 46.9818437,47.6629812 46.9041896,47.6740746 C46.4804201,47.8083053 46.2285989,48.0767666 46.1453981,48.480568 C46.0732907,48.6724846 45.774877,48.7678882 45.6661613,48.5460193 C45.6417557,48.5626595 45.6129128,48.5826277 45.5763044,48.6081426 C45.4853382,48.6491883 45.3910439,48.6824687 45.2945309,48.7068742 C45.1292386,48.7612321 44.9284473,48.7379359 44.7598269,48.7290611 C44.3804312,48.7090929 44.0210036,48.5682062 43.6538106,48.4938801 C43.8690234,48.5915024 44.0520652,48.7212957 44.1718744,48.9254151 C44.3815405,49.0352402 44.598972,49.1273158 44.7842325,49.2105166 C44.930666,49.2770772 45.0061014,49.488962 44.9572902,49.6365048 C44.6034094,50.7181156 46.1820064,51.2472729 46.7666309,52.0526569 C46.7899272,52.0537662 46.8154421,52.0604223 46.8398477,52.0770625 C47.543172,52.5463151 48.2021225,53.0754724 48.9265244,53.509226 L48.9165403,53.5269756 C48.280886,53.1131901 47.5964205,52.7936989 46.911955,52.4730984 C46.8487224,52.5984543 46.641275,52.5940169 46.5880265,52.4387087 C46.3228932,51.6721518 45.2801095,51.3193802 44.7964353,50.6815072 C44.5080058,50.3010021 44.1696557,50.1379285 44.1696557,49.7485486 C43.7858226,49.5544133 43.4097548,49.3192323 43.1246533,49.0086159 C42.8295677,48.9132123 42.4557187,48.8333395 42.2993011,48.7956218 C41.5593684,48.6203454 40.8571534,48.3907111 40.0917058,48.3174944 C39.7899641,48.2886514 39.4915505,48.2764486 39.1975742,48.2376216 C39.1077173,48.4373036 38.9146914,48.5848464 38.671745,48.5038642 C38.2091484,48.3496653 37.8874385,49.1239877 37.6844285,49.4523537 C37.5113708,49.7330178 37.0753984,50.091336 37.1475058,50.4319047 C37.2240506,50.7946604 36.8956847,51.192915 36.5373664,51.1174796 C36.4841179,51.2017897 36.4286507,51.2805532 36.3742928,51.3548793 C36.2866546,51.4735791 36.197907,51.592279 36.0958474,51.6932293 C36.0658951,51.8540842 36.0148652,52.0204859 35.9471952,52.1879969 C35.8895093,52.4997227 35.8329327,52.8114484 35.7519506,53.1154088 C35.7097955,53.3317309 35.5555966,53.4260252 35.3903043,53.4293533 C35.3470399,53.5258662 35.3004474,53.6157231 35.2471989,53.6989239 C35.0952187,54.2480494 34.8910994,54.7716599 34.3730355,54.8692823 C34.1800096,55.1166661 33.9592501,55.3396443 33.7041009,55.4949525 C33.6996635,55.5559664 33.6952261,55.6169804 33.6896794,55.6824317 C33.6730392,55.8699109 33.5510114,56.0296565 33.3912658,56.0917798 C33.3957031,56.1028732 33.4001405,56.1139666 33.4023592,56.1250601 C33.4800133,56.5100026 33.3890471,56.9714898 33.0706652,57.2377325 C32.9053729,57.3764005 32.7190031,57.4596014 32.5326332,57.4662574 C32.5270865,57.5372555 32.5048996,57.6060348 32.4616352,57.6670488 C32.3817624,57.7790926 32.306327,57.8789336 32.2242355,57.9687904 C32.1887365,58.0275857 32.1410346,58.0752875 32.0822394,58.1085678 C32.0079133,58.1729098 31.9258218,58.2294864 31.8304182,58.2827349 C31.7760603,58.5656177 31.4987243,58.7198166 31.240247,58.66324 C31.0927042,58.8207669 30.9385053,58.9694191 30.7454794,59.0725881 L30.7288393,59.0792442 C30.8087121,59.262286 30.8331176,59.4597493 30.7876345,59.6549939 C30.8442111,59.7626003 30.8464298,59.8868469 30.7920719,60 L26.1594498,60 C26.2126983,59.8746441 26.3069926,59.764819 26.4201457,59.6827275 C26.5554857,59.5851052 26.6830603,59.5052324 26.817291,59.4519839 C26.8605554,58.8329697 26.7862293,58.1773472 26.9038198,57.5771919 L26.8727582,57.5605517 C26.6941538,57.4784602 26.5954221,57.2577007 26.5920941,57.0724402 C26.5798913,56.4035055 26.5554857,55.7501017 26.4323485,55.0911511 C26.3946308,54.8914691 26.414599,54.6418667 26.5876567,54.5020893 C26.6287024,54.4688089 26.6653108,54.4333099 26.7041379,54.3989202 C26.6985911,54.3456717 26.6997005,54.2902045 26.714122,54.2358466 C26.7573864,54.0705543 26.7873387,53.8986059 26.8095256,53.7222202 C26.6220464,53.4127131 26.4767223,53.0799098 26.3935214,52.7382317 C26.350257,52.5607366 26.450098,52.3732574 26.617609,52.3155715 C26.6164996,52.3000407 26.6153903,52.2856192 26.614281,52.2700884 C26.5399549,52.2101838 26.4789409,52.1236549 26.4656288,52.0437821 C26.4234737,51.798617 26.346929,51.5800762 26.2592908,51.3471139 C26.1594498,51.0830899 26.3236327,50.8667677 26.5421736,50.7791295 C26.4678475,50.4773879 26.385756,50.1823023 26.2992272,49.8960914 C25.8432866,49.3769182 25.4882964,48.7701069 25.3906741,48.1566394 C24.949155,48.0379396 24.6230078,47.7827904 24.4244352,47.3934105 C24.3645306,47.346818 24.304626,47.2991162 24.2425027,47.2514144 C24.1160374,47.1537921 23.9962282,47.0694819 23.873091,46.9940465 C23.6334726,46.9141737 23.3927449,46.8343009 23.1531265,46.7544281 C23.1331583,46.7477721 23.1420331,46.7156011 23.1620013,46.7222571 C23.3428244,46.7821617 23.5236475,46.8431757 23.7044707,46.9030803 C23.5835521,46.8431757 23.4559775,46.7921458 23.3095441,46.7588655 C23.0599416,46.7022889 22.8768998,46.6312909 22.671671,46.4782014 C22.6439374,46.4571238 22.6672337,46.4149688 22.6994047,46.4304996 C23.2540768,46.6911955 23.8841844,46.4216248 24.4144511,46.6845394 C24.8692823,46.9097363 25.2675369,47.1870724 25.6413859,47.507673 C25.6946345,47.5132197 25.747883,47.5220944 25.8000222,47.5365159 C25.8377399,47.5476094 25.8743483,47.5642495 25.9087379,47.5864364 C25.9231594,47.539844 25.9486743,47.4965795 25.9775173,47.4533151 C25.979736,47.4022852 25.9775173,47.3512554 25.9619865,47.2957882 C25.8610361,46.9285952 26.1073106,46.7078357 26.3358355,46.4637799 C26.6065155,46.1764597 26.9326628,45.9024517 27.2000148,45.5962726 C27.2088895,45.5674296 27.216655,45.5385867 27.2266391,45.5097437 C27.2543727,45.4320896 27.2987464,45.3677477 27.351995,45.3156085 C27.6881263,44.6222682 28.1817846,44.0010354 28.3071405,43.2089635 C28.360389,42.8750508 28.7109418,42.753023 29.0038087,42.8084902 C29.1236179,42.6698221 29.2290057,42.5278261 29.3144252,42.3636431 C29.2911289,42.2970824 29.2711607,42.2283031 29.2534112,42.1595237 C28.9782938,41.4750582 28.9716378,40.614207 28.8207669,39.8653995 C28.5645084,39.6912325 28.3770292,39.4360833 28.2439079,39.1487631 C28.1950967,39.1287949 28.1451762,39.1088267 28.0941464,39.0932959 C27.9244167,39.0411567 27.7735458,38.9845801 27.6415339,38.8958326 C27.5849573,38.942425 27.4828976,38.9335503 27.4507266,38.8636616 C27.422993,38.803757 27.4307584,38.7593832 27.4141183,38.7050253 L27.4063528,38.703916 C27.1733905,38.671745 26.9371002,38.4465481 26.7218874,38.3622379 C26.2604001,38.1825241 25.9409089,37.7998003 25.7101653,37.3793588 C25.6957438,37.3538439 25.7312428,37.334985 25.747883,37.3571719 C25.9741893,37.6688977 26.7119033,38.4853751 27.1789372,38.208039 C27.3764005,38.0915579 27.6459712,38.1059794 27.8733868,38.0427467 C27.7591244,37.7753947 27.6892357,37.4858559 27.6404245,37.1874422 C27.6093629,37.1186629 27.5771919,37.0509929 27.5450209,36.9811042 C27.4385238,36.7547979 27.358651,36.5173982 27.3031838,36.2733425 L27.2754502,36.2500462 C27.0413785,35.9760382 26.9825833,35.7342011 26.955959,35.4446622 C26.8006508,35.3525866 26.7085752,35.1495766 26.7596051,34.9731908 C26.8394779,34.6947454 26.8006508,34.4129719 26.817291,34.1300891 C26.7651518,34.0746219 26.7418556,33.9991865 26.7429649,33.920423 C25.7378989,33.4001405 24.7738786,32.5392893 24.2624709,31.5353326 C24.2358466,31.4854121 24.307954,31.443257 24.3379063,31.4909588 C24.7494731,32.1410346 25.4117517,32.5958658 26.050734,33.008542 C26.111748,33.0484783 26.1938394,33.1039456 26.2848057,33.1649595 C26.4989091,33.1161484 26.7607144,33.1083829 26.9415376,33.1871464 C27.023629,33.1804903 27.1035018,33.182709 27.1822653,33.1926931 C27.2510446,33.0739933 27.3453389,32.9697149 27.4695855,32.8820767 C27.5572237,32.8199534 27.651518,32.8132973 27.7347188,32.841031 C27.8034981,32.7722516 27.8767149,32.7079096 27.961025,32.6524424 L27.9754465,32.6468957 C28.4258403,31.5264579 28.8518286,30.4015827 28.5301187,29.1014311 C28.5134785,29.0326517 28.6177569,29.0038087 28.6366158,29.0725881 C28.8562659,29.86466 28.8740155,30.6644973 28.6832082,31.4676626 C28.4624487,32.3928558 27.8977924,33.3457826 27.8556373,34.2998188 C27.8356691,34.7446659 27.7724365,35.2083719 27.8123729,35.6587657 C27.9332914,36.0137559 28.0264764,36.4009171 28.1407388,36.7725474 C28.1740192,36.800281 28.1950967,36.8413268 28.1873313,36.8979033 L28.1873313,36.9200902 C28.196206,36.9467145 28.2050808,36.9722294 28.2139556,36.9977443 C28.2261583,37.0132752 28.2405798,37.028806 28.2594387,37.0476648 C28.2716415,37.060977 28.2860629,37.0742891 28.2993751,37.0864919 C28.3049218,37.0876012 28.3149059,37.0898199 28.3304367,37.096476 C28.4103095,37.1186629 28.4801982,37.1752394 28.5323374,37.2384721 C28.6210849,37.3460785 28.6554746,37.4825278 28.5800392,37.6101024 C28.5656177,37.6333987 28.5467589,37.6566949 28.524572,37.6766631 C28.5545243,37.7243649 28.5878046,37.769848 28.6221943,37.8153311 C28.6465999,37.8253152 28.6721148,37.8364087 28.6943017,37.8508302 C28.9294827,37.7276929 29.2423178,37.7765041 29.2911289,38.1059794 C29.294457,38.1803054 29.3077691,38.2513035 29.3288467,38.3211922 C29.6405724,38.1503531 30.064342,38.401065 30.1087157,38.7937729 C30.1153718,38.8514588 30.1264653,38.9080354 30.1375587,38.9657213 C30.1841512,38.9524091 30.2285249,38.939097 30.2784454,38.9291129 C30.4958769,38.8869578 30.7044337,38.9479717 30.8486484,39.0810931 L30.8719447,39.0555782 C31.1858891,38.6928225 31.3112451,38.269053 31.4155234,37.8131125 C31.4598972,37.6189772 31.6662353,37.4592316 31.8659172,37.4692157 C31.9579928,37.4736531 32.0489591,37.466997 32.138816,37.4525755 C32.1554561,37.3749214 32.1687683,37.2983767 32.1754243,37.2218319 C32.1898458,37.0443368 32.2874681,36.8757165 32.4727286,36.8313427 C32.5592575,36.8102651 32.6435677,36.7836409 32.7278778,36.7581259 C32.7467367,36.7403764 32.7678142,36.7237363 32.7911105,36.7082055 C33.1083829,36.5040861 33.2692379,35.9760382 33.3258144,35.4768332 C32.9941205,34.9998151 32.7212218,34.4850793 32.2752653,34.1012462 C32.2564065,34.0857153 32.2719373,34.0546537 32.2941242,34.0546537 L32.3140924,34.055763 C32.1698776,33.9647968 32.0567245,33.8394409 32.0001479,33.6697112 C31.3711497,33.8993455 30.9684576,33.5798543 30.570203,33.0939615 C30.5591096,33.0806493 30.5746404,33.0562438 30.5901712,33.0684465 C30.9673483,33.3579854 31.3955552,33.5798543 31.8614799,33.4101246 C31.8858854,33.3812817 31.9213845,33.3624228 31.9701956,33.3635322 C32.0145694,33.3624228 32.0611619,33.3402359 32.1033169,33.3291425 C32.1920645,33.3047369 32.2652812,33.346892 32.3163111,33.4156713 C32.3251858,33.4267648 32.3362793,33.4345302 32.345154,33.4445143 C31.9602115,31.903635 32.1665496,30.2717894 30.9884258,28.9649817 C30.9640203,28.9383574 30.9961913,28.8895463 31.0283622,28.9128425 C32.3163111,29.8513479 32.3895278,31.3534001 32.7578301,32.7922198 C32.8266095,33.0595718 32.8687646,33.4644825 33.0529157,33.6952261 C33.07954,33.7163037 33.1017269,33.7384906 33.118367,33.7628961 C33.1616315,33.7995045 33.2082239,33.8316755 33.2648005,33.8505343 C33.3868284,33.8904707 33.5521207,33.9292978 33.7218504,33.9758902 C33.8560811,33.9370632 34.0069519,33.9503753 34.1511667,34.0313575 C34.1866657,34.0102799 34.223274,33.9925304 34.2632104,33.9792183 C34.3974411,33.917095 34.5560774,33.884924 34.7025108,33.9248604 C34.7613061,33.9415006 34.8078985,33.9659061 34.8445069,33.9958584 C35.1118589,33.3768443 35.6066265,32.9286692 36.0703324,32.4627445 C36.0936287,32.4106053 36.1147062,32.3584661 36.1357838,32.3052176 C36.1291277,32.138816 36.1280183,31.971305 36.162408,31.8470584 C36.1801575,31.7827164 36.2112192,31.7316866 36.2456088,31.6839848 C36.2123285,31.4343823 36.2467182,31.2069667 36.3709648,30.9529268 C36.3343564,30.5413601 36.3798395,30.0865289 36.6028177,29.7470695 C36.4142292,29.4819362 36.2101098,29.2412084 36.0758792,28.9416855 C35.7896683,28.3038124 36.1990164,27.5294901 35.4324594,27.0890804 C35.154014,26.9293348 35.0819066,26.6386865 35.1284991,26.3424916 C35.1040935,26.2892431 35.0796879,26.2371039 35.0552823,26.1838553 C34.8678031,26.0107976 34.8311948,25.7867101 34.8877713,25.5792627 C34.8167733,25.4661095 34.757978,25.3518471 34.7180416,25.2342566 C34.3053655,25.0279185 34.0513257,24.6673816 34.0768406,24.1803794 C34.0457789,24.1138187 34.0258107,24.0417113 34.0158266,23.9640572 C34.0047332,23.9585105 33.9936398,23.9507451 33.9825463,23.9451984 C33.6441963,23.8398107 33.4023592,23.4526495 33.5166217,23.1109714 C33.2803313,23.0310986 33.118367,22.7748401 33.1061643,22.5241282 C33.0462597,22.4520209 33.0041046,22.3677107 32.9808083,22.2778538 C32.8887328,22.2190585 32.8132973,22.1280923 32.7722516,21.998299 C32.7633768,21.9672374 32.7545021,21.9395038 32.7456273,21.9095515 C32.0977702,21.4935473 31.3877898,21.1851496 30.6545132,20.8634397 C30.4359723,20.7680361 29.4153755,20.4241393 29.6816182,20.1534593 C29.5629183,20.2754872 29.1491329,20.2721592 28.9938246,20.3021115 C28.5489776,20.3864216 28.1618164,20.4796066 27.7380468,20.6637577 C27.725844,20.6693044 27.7147506,20.6515549 27.7269534,20.6448989 C28.0176016,20.4884813 29.201272,19.8705765 29.4586399,20.1334911 C29.3388308,20.0103539 29.4586399,19.8006878 29.6261509,19.8461709 C30.4492845,20.0680398 31.3644936,20.5239803 32.1443627,20.9344377 C32.0800207,20.8046445 32.0289909,20.6626484 31.971305,20.5517139 C31.9280405,20.4696225 31.9812891,20.3997338 32.0478497,20.3853123 L32.0345376,20.3686721 C31.6340643,19.9160596 31.5952372,19.2970454 31.0172688,18.9919757 C30.7610102,18.8566357 30.7332766,18.551566 30.8397737,18.3152757 C30.8508671,18.2864327 30.8652886,18.2586991 30.8774914,18.2309655 C30.8186962,18.1599675 30.7721037,18.0756573 30.7299486,17.9747069 C30.3461154,17.8027586 30.0865289,17.5254225 30.0399364,17.1560108 C30,17.1005436 29.9611729,17.0450764 29.9234552,16.9918278 C29.5573716,16.4804201 29.3388308,15.9645749 29.2855822,15.365529 C28.8252043,15.1259106 28.7198166,14.6644233 28.3836852,14.3937433 C27.8290131,13.9477869 27.2732315,13.4862996 26.8627741,12.8994564 L26.8605554,12.8928004 C26.7318715,12.795178 26.6187183,12.6764782 26.5233147,12.5466849 C26.186074,12.4224383 25.9819547,12.0630108 25.7367896,11.8012055 C25.4272825,11.4717302 25.0989165,11.1600044 24.8027216,10.8183264 C24.6341012,10.6241911 24.4909958,10.0362386 24.1903635,10.0173797 C23.5547092,9.97744333 23.0022557,9.76777724 22.3610546,9.93085087 C22.3055874,9.94527234 22.2834005,9.86207152 22.3377584,9.84654069 C23.0466294,9.65129608 23.7211108,9.87316496 24.4377473,9.90533595 C24.4599342,9.90644529 24.4821211,9.91753873 24.4932145,9.93750693 C24.6762563,10.2913878 25.2630995,10.6230818 25.815553,10.9791813 C26.115076,10.2237178 25.4250638,9.24971342 25.5870281,8.43878268 C25.6247458,8.25352217 25.341863,7.7643013 25.2897238,7.58569685 C25.1410716,7.08094516 24.9192028,6.69156528 24.642976,6.24893688 C24.5852901,6.15464261 24.3612025,5.61328255 24.304626,5.59886107 C24.0195245,5.52564434 23.8043117,5.38475761 23.5680213,5.2094812 C22.9878342,4.77905558 22.5696114,4.16336945 22.0160485,3.71519432 L22.0160485,3.71519432 C22.0005177,3.70188219 22.0204859,3.68191399 22.0382354,3.69633547 C22.7526532,4.04023222 23.6545502,5.30044744 24.4621529,5.189513 C24.5653219,5.17509152 24.646304,5.1994971 24.7062086,5.28824465 C25.0512147,5.79743372 25.4727656,6.30107606 25.71904,6.86462301 C25.9076286,7.29504863 26.018563,7.70550605 26.2592908,8.11707281 C26.3691159,8.30344267 26.2493067,8.61960581 26.2714935,8.79710091 C26.3136486,9.13877898 26.4035055,9.45716082 26.4878157,9.78885479 C26.5843287,10.1671412 26.6131716,10.5132567 26.614281,10.8893244 C26.6874977,10.9758533 26.756277,11.0734756 26.8960544,11.1478016 C27.0458159,11.2265651 27.1478756,11.4462153 27.084643,11.6103983 C26.8960544,12.0985098 27.4396332,12.4202197 27.8145916,12.3725178 C28.0420072,12.3436749 28.2239397,12.5832933 28.228377,12.7863033 C28.2294864,12.827349 28.2305957,12.8695041 28.2317051,12.9105499 C28.6543653,13.1146692 29.0492919,13.4030988 29.4020634,13.6992937 C29.4874829,13.7714011 29.5717931,13.9178346 29.6561032,14.0886736 C29.7237733,14.0842362 29.7925526,14.0764708 29.8580039,14.0675961 C29.8713161,14.0431905 29.8879562,14.0210036 29.9112524,14.0021447 C29.9767038,13.9500055 30.0421551,13.9089598 30.1076064,13.8723514 C30.4492845,13.5572976 30.7432607,13.155715 30.8830381,12.7031025 C30.6201235,12.5267167 30.5513442,12.2848796 30.531376,11.9565137 C30.5003143,11.4373405 30.5812965,11.152239 30.1231372,10.7994675 C29.8169582,10.5642865 29.6727434,10.3191214 29.7603816,9.93196021 C29.7692564,9.89091447 29.8313797,9.90866398 29.8236142,9.94970972 C29.6727434,10.7340162 30.4781274,10.7284695 30.8564139,11.1500203 C31.0660799,11.384092 31.1881078,11.6647561 31.2291536,11.9598417 C31.2934955,11.9387642 31.3644936,11.9332175 31.4421477,11.9531857 C31.4621159,11.9587324 31.4798654,11.9642791 31.4976149,11.9687165 L31.4987243,11.9676071 C31.575269,11.5072292 31.53977,11.0701475 31.5741597,10.5775986 C31.5841438,10.4256185 31.5564102,10.1649225 31.6873128,10.0362386 C31.6495951,10.0728469 32.2297822,9.66128018 32.1842991,9.71896609 C32.3107643,9.5592205 32.3695596,9.45383278 32.5514921,9.3717413 C32.6014126,9.35066376 32.6735199,9.40058425 32.6346929,9.45494213 C32.3939652,9.79107348 32.2375476,9.88314906 32.2164701,10.2558888 C32.1720963,11.0512887 32.3018896,11.8433606 32.1277225,12.627667 C32.0789114,12.8484266 31.8004659,12.9748918 31.5996746,12.8772695 C31.5797064,12.9160966 31.5597382,12.9549236 31.53977,12.99486 C31.5175831,13.0469992 31.4931775,13.0991384 31.4676626,13.1512776 C31.3534001,13.4130829 31.2824021,13.6837629 31.3656029,13.9832859 C31.4343823,14.231779 31.2291536,14.4225863 30.9984099,14.4126022 L30.9939726,14.4381171 C31.0494398,14.5435048 31.0483304,14.6755168 30.9784417,14.7753578 C30.9218652,15.0360537 30.8153681,15.3511075 30.670044,15.5463521 C30.6611692,15.5585549 30.6500758,15.568539 30.637873,15.5785231 C30.6289983,15.868062 30.6167955,16.1997559 30.8608512,16.4049847 C30.9540362,16.4837481 30.9961913,16.6235255 30.9884258,16.7488814 C31.0605332,16.837629 31.13375,16.9263765 31.208076,17.0173428 C31.2912769,17.1194024 31.3656029,17.2136967 31.4277262,17.3091003 C31.5763784,17.482158 31.6928595,17.6330289 31.639611,17.6119513 C31.9335872,17.7295418 32.1022076,18.0346115 31.9335872,18.3341345 C31.9191658,18.3585401 31.906963,18.3829457 31.8936509,18.4062419 C32.345154,18.8311208 32.4838221,19.4323855 32.9652775,19.8938727 C33.182709,20.1035388 33.318049,20.3120956 33.414562,20.5306364 C33.4711386,20.5639167 33.5266058,20.5994157 33.5765263,20.6393521 C33.8338942,20.8423622 33.9703435,21.0542469 34.1500573,21.2971934 C34.1988685,21.3293643 34.2476796,21.3648634 34.2942721,21.4047998 C34.4029878,21.499094 34.4628924,21.6355434 34.4784233,21.7786488 C34.5638428,21.9472692 34.6348408,22.1225456 34.7269164,22.2878379 C34.786821,22.3577266 34.8356321,22.4342713 34.8733499,22.5152535 C35.0719225,22.7992456 35.3048848,23.0277706 35.5589247,23.2784824 C36.2666864,23.9773694 36.6549569,25.0290278 36.9300743,25.9908294 C37.3183449,26.1306068 37.5235736,26.4434419 37.6289613,26.8195097 C37.9562179,26.5100026 38.3522538,26.2315571 38.6817291,26.2315571 C38.8758644,26.2315571 38.871427,26.4256924 38.9967829,26.1805273 C39.0600155,26.054062 39.1088267,25.8909884 39.209777,25.7889287 C39.4283179,25.5703879 39.7422623,25.3851274 40.0162704,25.2331472 C40.0262545,25.1987575 40.0351292,25.1654772 40.0417853,25.1299782 C40.0639722,25.010169 40.1959842,24.8703916 40.3191214,24.8526421 C40.5420996,24.8215804 40.7306882,24.678475 40.8915431,24.4810117 C41.0745849,24.1637392 41.2254558,23.8253892 41.3685612,23.5203195 C41.4295751,23.3894169 41.487261,23.2363273 41.5460563,23.0765817 C41.5660245,23.0144585 41.5848833,22.9556632 41.6015235,22.903524 C41.7069112,22.5773768 41.790112,22.2512295 41.8655475,21.9239729 C41.8622194,21.7642273 41.8611101,21.5967163 41.8666568,21.4258773 C41.7091299,21.0864179 41.5626964,20.7414118 41.3951854,20.4063898 C41.245424,20.1068668 41.0723662,19.8250934 40.9348075,19.524461 C40.8260918,19.5144769 40.7373442,19.4701032 40.6718929,19.3713715 C40.6053322,19.2715305 40.3712606,19.2437969 40.2669822,19.1273158 C40.250342,19.1084569 40.2425766,19.082942 40.2392486,19.0563177 C39.0200791,18.6414229 37.8120031,18.2209814 36.561772,17.8715379 C36.5273823,17.8615538 36.5418038,17.8094146 36.5761935,17.8182894 C37.8419554,18.1255778 39.2829938,18.3474467 40.5121473,18.8943534 C40.5953481,18.88326 40.6763303,18.8821506 40.7617498,18.8854787 C40.7728432,18.8610731 40.781718,18.8355582 40.7939208,18.8100433 C40.8449506,18.7035462 40.9447916,18.6580631 41.0479607,18.6569537 C41.1600044,18.5404726 41.2909071,18.4350849 41.3974041,18.3296971 C41.6492253,18.077876 41.815627,17.7206671 41.854454,17.3634582 C41.8566727,17.3423807 41.8877343,17.3412713 41.8877343,17.3634582 C41.8932811,17.7406353 41.7102392,18.0723293 41.6614281,18.4395222 C41.6248197,18.7068742 41.6115076,19.0052879 41.4783863,19.2415782 C41.6214917,19.6642384 41.8178457,20.0724772 42.0042155,20.4751692 C42.0463706,20.3431572 42.0974004,20.2155826 42.1650704,20.0991014 C42.3225973,19.8306401 42.4945457,19.7418925 42.559997,19.3991051 C42.5688718,19.3491846 42.6110269,19.3025922 42.653182,19.2781866 C43.0547646,19.0418962 42.8384425,19.1716895 42.820693,18.7412639 C42.8062715,18.3918204 43.1546056,18.0967348 43.3920053,17.9059276 C43.9045224,17.4932515 43.6427172,16.6889768 43.7569796,16.1221018 C43.3321007,15.5075251 43.6549199,14.4591946 43.8113375,13.7913693 C43.9821765,13.06253 44.228451,12.1107126 44.9706024,11.7645971 C45.0227416,11.7390822 45.1037237,11.7956588 45.0604593,11.854454 C44.4869282,12.6232297 44.1075324,13.2799615 44.1574529,14.2816995 C44.1763118,14.663314 44.3183079,15.1214732 44.3149798,15.5385867 C44.3371667,15.5319306 44.3582443,15.5263839 44.3815405,15.5219465 C45.5186185,15.2956403 46.6556965,15.1547535 47.7994305,14.9761491 C47.874866,14.9639463 47.9081463,15.0704434 47.8316015,15.0926303 C46.8209888,15.3854972 45.2002367,15.1880339 44.4824908,16.0832748 C44.1496875,16.4992789 44.6766261,17.3457087 44.3870872,17.8404763 C44.0509559,18.4117886 43.1745738,18.0911881 43.3376475,19.1605961 C43.3509596,19.2493436 43.3287727,19.3236697 43.2511186,19.3735902 C42.9371741,19.5754909 42.7363828,20.194505 42.7796472,20.5650261 C42.820693,20.9211256 42.6298857,21.2672411 42.4424065,21.5900603 C42.4224383,21.7054321 42.3947047,21.8230226 42.3636431,21.9395038 L42.3647524,21.9428318 C42.4013608,22.3776948 42.1273527,22.7504345 42.0330585,23.1686573 C41.9554044,23.5103354 41.8600007,23.8398107 41.6991458,24.1526458 C41.6270384,24.2935325 41.5527123,24.4144511 41.4783863,24.5264948 C41.3585771,24.8215804 41.2176903,25.0966979 41.0413046,25.3019266 C40.952557,25.4062049 40.8627001,25.4894058 40.742891,25.5504197 C40.7573124,25.5626225 40.7584218,25.5914654 40.7329069,25.6502607 C40.5554118,26.0518434 40.2780757,26.3935214 39.9563658,26.6930444 C39.5070813,27.1112672 39.0799837,27.2577007 38.9013793,27.8567467 C38.9324409,27.9721185 38.9302222,28.1030211 38.8725363,28.2372518 C38.8226158,28.3526236 38.771586,28.463558 38.7172281,28.5711644 C38.6318086,28.7852679 38.5774507,29.0004807 38.5630292,29.2556299 C38.5541545,29.4098288 38.4909219,29.5340754 38.3977369,29.6250416 C38.4587509,29.7526162 38.475391,29.9057057 38.4188145,30.0765448 C38.3566912,30.264024 38.2823651,30.4404097 38.233554,30.6323263 C38.2091484,30.7288393 38.1614466,30.8087121 38.0993233,30.8763821 C38.1314943,30.9873165 38.1481345,31.0982509 38.1481345,31.2102947 C38.2024923,31.5209111 38.2457568,31.8304182 38.2646156,32.1476907 C38.2779277,32.3728876 38.1314943,32.6025219 37.9417964,32.7112377 C37.5912436,32.9131383 37.4736531,33.884924 37.3094701,34.255445 C37.2329253,34.4307214 37.1009134,34.5283437 36.9533706,34.5693895 C36.9589173,34.5982324 36.9633547,34.6281847 36.9633547,34.658137 C36.9666827,34.9310358 36.8845912,35.2094812 36.6593943,35.3647894 C36.5883963,35.4757238 36.5162889,35.5855489 36.4475095,35.6964834 C36.5795215,35.7009208 36.7070961,35.7674814 36.7747661,35.8884 C37.1009134,36.4752431 37.4603409,36.864623 38.072699,37.1563806 C38.1991643,37.2162852 38.2801464,37.3782495 38.2779277,37.5135895 C38.2745997,37.6944126 38.2590689,37.8497208 38.2246792,38.0061384 C38.2890212,38.0771364 38.3533632,38.1492438 38.4165958,38.2224605 C38.5863255,38.3788781 38.7272122,38.5519358 38.839256,38.739415 C39.1054987,39.0833118 39.7100913,39.979662 40.0362386,40.8371852 C40.0939245,40.810561 40.1604852,40.7695152 40.2337019,40.717376 L40.2403579,40.6951891 C40.2603261,40.4245091 40.4921791,40.2037496 40.7717339,40.2680916 C40.9603224,40.0950338 41.145583,39.9208668 41.2920164,39.7888548 C41.0734756,39.5226121 41.1300521,39.0267352 41.1622231,38.7139001 C41.2054876,38.2868025 41.2997818,38.0127944 41.6015235,37.7132715 L41.6248197,37.6966313 C41.6314758,37.2795178 41.8688755,37.028806 42.2238657,36.764782 C43.2089635,36.0326147 43.8523832,34.7635248 43.287727,33.5720889 C43.2777429,33.5510114 43.3043671,33.5254964 43.3221166,33.5454646 C43.8690234,34.1389639 43.7658544,34.8633658 43.4519099,35.5689088 C43.2599933,36.0015531 43.059202,36.4530562 42.6964464,36.7736568 C42.3192693,37.1075694 42.1084939,37.3882336 41.9753726,37.8874385 C41.9565137,37.9573272 41.9110306,37.9950449 41.8600007,38.0072477 C41.7934401,38.2324446 41.8167363,38.604075 41.8333765,38.8081944 C41.8355952,38.8337093 41.8411419,38.8603335 41.8466886,38.8858485 C41.9809193,38.8570055 42.1351181,38.8936139 42.2338498,38.9834708 C42.5256074,38.6484488 42.9249713,38.3877528 43.355397,38.3156455 C43.3709278,38.2391007 43.3886773,38.1625559 43.4119735,38.0871205 C43.4352698,37.9961543 43.5195799,37.9473431 43.6049994,37.9429057 C43.8523832,37.6234146 44.33162,37.4004363 44.6599859,37.3194542 C45.4531672,37.1242096 46.1831158,37.9850608 46.9873905,37.9151721 C47.0739193,37.9074067 47.0916688,38.0482935 47.0073587,38.066043 C46.3295492,38.204711 45.9434974,37.8541582 45.3022963,37.763192 C44.6744074,37.6744444 44.3582443,38.1902895 43.9133972,38.5020153 C43.9122878,38.5286396 43.9089598,38.5585919 43.9045224,38.5918722 C43.8845542,38.7516178 43.7847132,38.8891765 43.6083275,38.8880672 C43.2411345,38.8858485 42.7896313,39.1764967 42.7519136,39.5680953 C42.7286174,39.8143697 42.5189513,40.0140517 42.2837703,39.9852087 C42.2826609,40.0029583 42.2804423,40.0207078 42.2793329,40.0384573 C42.3802833,40.4455867 42.0452613,40.6585808 41.7424102,40.6363939 C41.6503347,40.7706246 41.5682432,40.9070739 41.5327441,41.0512887 C41.4717302,41.2997818 41.1555671,41.487261 40.9070739,41.3996228 C40.9203861,41.4905891 40.9059646,41.587102 40.8504974,41.6747402 C40.7717339,41.7978775 40.6940798,41.9210147 40.6153163,42.0441519 C40.5665052,42.121806 40.5054913,42.1728359 40.4389306,42.2072255 C40.4067596,42.6132456 40.1061273,42.9582517 39.8920238,43.4119735 C39.8376659,43.5284547 39.7145287,43.6072181 39.5825167,43.6360611 C39.5547831,43.7603077 39.5270495,43.8845542 39.5004252,44.0088008 C39.4982066,44.1485782 39.470473,44.2794808 39.4172244,44.4092741 C39.3861628,44.5656917 39.3584292,44.7209999 39.3362423,44.8740894 C39.3340236,44.8940576 39.3273675,44.9129165 39.3218208,44.9317753 C39.3883815,44.995008 39.4283179,45.0837555 39.4150057,45.198018 C39.4105684,45.2324076 39.4039123,45.265688 39.3983656,45.3000777 L39.4016936,45.3000777 C39.3983656,45.3189365 39.3928188,45.3377954 39.3894908,45.3566542 C39.3617572,45.5197278 39.3240395,45.6783641 39.2807751,45.8370003 C39.2275265,46.0488851 39.1687313,46.2596605 39.1043893,46.470436 C39.0489221,46.6834301 39.006767,46.8997522 38.9879081,47.1216211 L39.0001109,47.1227305 C39.0522501,47.1327146 39.1287949,47.143808 39.2119957,47.1604482 C39.6978885,47.047295 40.2037496,47.108309 40.685205,47.2769293 C40.6896424,47.2636172 40.6918611,47.2491957 40.6962985,47.2358836 C40.7395629,47.0783567 40.952557,47.0550605 41.0357579,47.1915098 C41.1932848,47.4510964 41.448434,47.5065636 41.719114,47.5309692 C41.8921717,47.4777207 42.0452613,47.3867544 42.2427245,47.378989 C42.5721998,47.3656769 42.9027845,47.3989572 43.2322597,47.41116 C43.9777392,47.440003 44.795326,47.5132197 45.53304,47.3823171 C45.6051474,47.3701143 45.7438154,47.3523648 45.8780461,47.3179751 C45.7060977,47.0106867 45.8636246,46.6911955 45.9235292,46.3617202 C46.0056207,45.9046703 46.0022926,45.5385867 45.8414377,45.0837555 C45.832563,45.0604593 45.87139,45.0438191 45.8813741,45.0671153 C46.0200422,45.3810598 46.4693266,45.9889805 46.6357283,46.5292312 C46.6789927,46.5225752 46.7211478,46.5159191 46.7644122,46.5081537 C46.7755057,46.4560145 46.7888178,46.4105314 46.8065673,46.3816884 C46.9907185,46.067744 47.3967385,45.8991236 47.7018082,45.7371593 C48.0113153,45.5729764 48.1266871,45.7415967 48.2065599,45.5607736 C48.2709019,45.4165588 48.445069,45.3877159 48.580409,45.4087934 C48.6214547,45.4110121 48.6625005,45.4087934 48.7035462,45.4087934 L48.6991088,45.3799504 C48.6636098,45.1225826 48.8355582,44.9406501 49.0973635,44.9816958 C49.1727989,44.9938986 49.2604371,44.9972266 49.3514033,44.9994453 C49.2327035,44.4214769 49.1372999,43.8379618 49.2837333,43.258884 C49.3025922,43.1812299 49.3702622,43.1457309 49.4434789,43.1368561 C49.4767592,43.1335281 49.5111489,43.1290907 49.5455386,43.1246533 L49.5599601,43.126872 C49.5766002,43.1035758 49.5987871,43.0780609 49.6287394,43.0458899 C49.6231927,42.7419295 49.6065525,42.4424065 49.5610694,42.1317901 C49.5488666,42.0496986 49.5799283,41.9775912 49.6631291,41.950967 C49.7662981,41.9088119 49.8705765,41.8666568 49.9737455,41.8245017 C49.9759642,40.9547757 51.5379211,41.5260881 51.5767481,40.4478053 C51.5778575,40.4278371 51.595607,40.4123063 51.6155752,40.417853 C51.9284103,40.3956662 52.2412454,40.3734793 52.5540805,40.3512924 C52.5662833,40.3446363 52.5773768,40.3634952 52.565174,40.3701512 C52.3677107,40.4855231 52.1391857,40.6186444 51.89513,40.5543024 C51.5567799,40.4644455 51.6499649,40.8183264 51.5345931,40.9647598 C51.2217579,41.3619051 50.2055985,41.3020005 50.4385608,41.9443109 L50.4352328,41.9432016 C50.4995748,42.1528677 50.2089265,42.3026291 50.0669304,42.1739452 Z M39.1043893,41.7812373 C39.0001109,41.3441556 38.8880672,40.9037459 38.5031247,40.7329069 C38.3799874,40.678549 38.272381,40.4943978 38.2890212,40.3601671 C38.3444884,39.8964612 38.301224,39.4926598 38.10487,39.1543098 C38.033872,39.0589062 37.9617646,38.9646119 37.8885479,38.8725363 C37.7842695,38.7660393 37.6600229,38.6673076 37.5102614,38.5785601 C37.3915616,38.5086714 37.296158,38.3566912 37.299486,38.2102577 L37.299486,38.2102577 C36.76811,37.6855378 36.1635174,37.2795178 35.4413342,37.0532116 C35.3847576,37.1164442 35.3204156,37.1741301 35.2483082,37.2229412 C35.2083719,37.3294383 35.1517953,37.4303886 35.0697038,37.5224642 C34.9987058,37.602337 34.9143956,37.6511482 34.8245387,37.6788818 C34.8267574,37.8841105 34.6625744,38.0238879 34.4717672,38.0571682 C34.4584551,38.0738084 34.4451429,38.0893392 34.4307214,38.10487 C34.3430832,38.4421107 34.2576637,38.7815701 34.0435603,39.0600155 C33.8993455,39.2474947 33.7052102,39.3196021 33.5266058,39.3029619 C33.5254964,39.377288 33.4988722,39.4482861 33.4556077,39.5104093 C33.4833413,39.6890138 33.4578264,39.8676182 33.3280331,40.0362386 C33.1350072,40.2880598 32.9308878,40.3335429 32.7822357,40.6308472 C32.5958658,41.0013682 32.312983,41.4184817 31.974633,41.7779093 C32.0855674,42.0552453 31.7904818,42.4468439 31.4721,42.3292534 C31.4543505,42.3225973 31.4388197,42.3148319 31.4210701,42.3081759 C31.4188515,42.3281441 31.4188515,42.3470029 31.4144141,42.3680805 C31.3423067,42.6975557 31.2269349,42.991532 31.0538772,43.2611027 C30.8575232,43.6127649 30.6289983,43.9466775 30.4614873,44.3094331 C30.4415191,44.4214769 30.4193322,44.53463 30.3971453,44.6466738 C30.3738491,44.766483 30.3172725,44.8563399 30.2440558,44.9195725 C30.1908072,45.0349443 30.1120438,45.1137078 30.0199682,45.1614096 C30.0166402,45.1858152 30.0144215,45.2102208 30.0122028,45.2346263 C30.0022187,45.3710757 29.9933439,45.5075251 29.9889066,45.6439744 C29.9866879,45.7060977 29.9744851,45.7604556 29.9578449,45.8114854 C29.9656103,45.8536405 29.971157,45.8969049 29.9700477,45.9434974 C29.9545169,46.4171874 29.7426321,46.8742373 29.6461191,47.3357246 C29.6339164,47.3934105 29.6039641,47.5209851 29.568465,47.68184 C29.5862145,47.7450727 29.6095108,47.8038679 29.6416818,47.8571164 L29.6450098,47.8659912 C29.6561032,47.8837407 29.6671967,47.9025996 29.6771808,47.9236771 C29.971157,48.548238 30.0144215,49.047443 29.7825685,49.7108309 C29.7404134,49.8328588 29.6594313,49.9426839 29.5573716,50.0247754 C29.5340754,50.1301631 29.4952483,50.2333321 29.4397811,50.3365011 C29.497467,50.6748512 29.5529342,51.0143105 29.6050734,51.3548793 C29.697149,51.4580483 29.7448508,51.6055911 29.7082424,51.7708834 C29.6849462,51.8773805 29.6671967,51.9894243 29.6538846,52.1036867 L29.6738528,52.0737344 C29.7104611,52.0215952 29.7858965,52.065969 29.7592723,52.1236549 C29.6427911,52.3754761 29.6283696,52.6849832 29.6782901,52.9589912 C29.9212365,53.0588322 30.0698887,53.2163591 30.1442148,53.4149318 C30.2163222,53.2718264 30.4448471,53.2152498 30.5779684,53.3372777 C30.6500758,53.3272936 30.7244019,53.3372777 30.7920719,53.3783234 C30.9440521,53.470399 31.0927042,53.5602559 31.2391377,53.6556595 C31.3633842,53.5813334 31.4865215,53.5081167 31.6018933,53.4471028 C31.671782,53.3805421 31.7549828,53.3284029 31.8492771,53.2929039 C31.9080723,53.2019377 31.9868358,53.1265022 32.0789114,53.0688163 C32.0700366,53.0122398 32.074474,52.9523352 32.0999889,52.8902119 C32.2331102,52.5696114 32.4272455,52.3388677 32.7001442,52.1524979 C32.8199534,51.8330067 33.1571941,51.6155752 33.5044189,51.6643863 C33.4212181,51.3393484 33.5909477,51.0431535 33.8505343,50.8590023 C34.3142403,50.5306364 34.7102762,50.2433162 35.0552823,49.7840476 C35.2638391,49.5067115 35.1684355,49.2138446 35.3359465,48.9287431 C35.560034,48.5460193 35.930555,48.3596494 36.1224716,47.9125837 C36.2578116,47.5975299 36.4042451,47.4011759 36.6638317,47.1804164 C36.6871279,47.1604482 36.7115335,47.1460267 36.7359391,47.1304959 C36.7492512,47.0583885 36.7803128,46.9873905 36.8224679,46.9297045 C36.8624043,46.8487224 36.9300743,46.7865991 37.0210406,46.7621935 C37.0720704,46.7111637 37.128647,46.6667899 37.1874422,46.6268535 C37.1275376,46.4626706 37.1508339,46.267426 37.3061421,46.0976963 C37.7387864,45.6240062 37.769848,44.8774174 37.9883889,44.2983397 L37.9961543,44.2816995 C38.0139038,44.2295603 38.0316533,44.1785305 38.0527308,44.1275006 C38.0627149,43.5872499 38.3378323,42.99486 38.7061347,42.4557187 C38.8093037,42.2094442 38.9413157,41.9809193 39.1043893,41.7812373 Z" id="形状"></path>
            </g>
        </g>
    </g>
</svg>
