<?xml version="1.0" encoding="UTF-8"?>
<svg width="52px" height="61px" viewBox="0 0 52 61" version="1.1" xmlns="http://www.w3.org/2000/svg" xmlns:xlink="http://www.w3.org/1999/xlink">
    <title>grass-leaf-plant-15-svgrepo-com</title>
    <defs>
        <rect id="path-1" x="0" y="0" width="50.8729579" height="60"></rect>
    </defs>
    <g id="页面-1" stroke="none" stroke-width="1" fill="none" fill-rule="evenodd">
        <g id="形状库素材-植物" transform="translate(-804.000000, -157.000000)">
            <g id="grass-leaf-plant-15-svgrepo-com" transform="translate(804.817188, 157.776201)">
                <mask id="mask-2" fill="white">
                    <use xlink:href="#path-1"></use>
                </mask>
                <g id="SVGID_19_"></g>
                <g id="编组" mask="url(#mask-2)" fill="#545458" fill-rule="nonzero">
                    <g transform="translate(1.668469, 1.499255)">
                        <path d="M6.10836719,41.0962387 C6.72998802,41.7213666 7.41035158,42.2912587 7.96183184,42.9838969 C8.90346904,44.1657656 9.78548675,45.4063769 10.6517228,46.6566327 C11.2724669,47.5526785 11.8257007,48.5057135 12.4104977,49.4324459 C12.6410848,49.7971768 12.8760558,50.1584008 13.1408364,50.5695999 C13.1408364,50.4117836 13.1618786,50.3127101 13.1373294,50.2294181 C12.6901832,48.6986001 12.4429377,47.088874 11.7012012,45.6729111 C11.3250723,44.954847 10.9445597,44.221878 10.459713,43.5923664 C9.54788555,42.4087442 8.6115089,41.2365199 7.59096356,40.1677529 C6.14343747,38.6527165 4.57141187,37.2902358 2.89680568,36.0750504 C2.87313324,36.0575153 2.86436567,36.0163077 2.87137972,35.9558114 C6.19867317,37.5707981 9.00429611,39.9441798 11.441681,43.0242277 C11.4206389,42.8453693 11.4302832,42.7392816 11.3952129,42.655113 C11.0296052,41.7757255 10.6841628,40.885817 10.2808545,40.0274717 C9.73463483,38.867522 9.16035889,37.7233539 8.56504077,36.5923371 C8.17400707,35.8506006 7.74790309,35.1281527 7.29461963,34.4311307 C7.00616653,33.9883684 6.63442149,33.6113628 6.30739106,33.1975334 C5.96457901,32.7626618 5.6331648,32.3172692 5.29473653,31.8780139 C4.70906275,31.1178654 4.1225122,30.3603472 3.53596166,29.6001987 C3.50965894,29.5651284 3.48774001,29.5265511 3.40094105,29.3924073 C3.56314113,29.444136 3.64994009,29.4458895 3.70254552,29.4932344 C4.46269398,30.1639536 5.26141976,30.7917117 5.96457901,31.5281877 C7.08945846,32.7065494 8.17926762,33.9287489 9.23137622,35.1860186 C10.4220124,36.6081188 11.5951135,38.0538913 12.7033346,39.5531461 C14.2139872,41.5959903 15.352018,43.8983546 16.2989157,46.3024228 C16.79253,47.554432 17.2133735,48.8494023 17.5535553,50.1610311 C17.8402548,51.2666219 17.9612473,52.4221878 18.1146798,53.5716164 C18.1365988,53.4760499 18.1585177,53.3796066 18.1865739,53.2586141 C18.4452173,53.2586141 18.6977234,53.2586141 19.0247538,53.2586141 C18.9721483,53.0262735 18.9256802,52.8386475 18.8888564,52.6492679 C18.6573925,51.4612619 18.4408335,50.2706257 18.1944647,49.0861268 C17.8639273,47.493059 17.5325131,45.8991145 17.1633983,44.315691 C16.7697343,42.6244265 16.3366163,40.943683 15.9105123,39.2620627 C15.7667241,38.6956776 15.5098343,38.2064471 15.0854838,37.8110296 C13.8597773,36.6659847 12.6744016,35.4709647 11.4320367,34.3487156 C10.6867931,33.6762428 9.86614841,33.1037204 9.07794371,32.4873601 C8.42300611,31.9753339 7.7803431,31.4422655 7.1069936,30.9609259 C6.4643306,30.5015051 5.79711839,30.0797849 5.1255224,29.6712161 C4.46269398,29.2679078 3.80074232,28.8470643 3.1010901,28.5331853 C2.09544963,28.0825321 1.05561563,27.7230616 0,27.3557004 C0.188502791,27.3557004 0.377005582,27.3539469 0.565508373,27.3565771 C0.755764678,27.3592074 0.947774498,27.3513166 1.13627729,27.3723588 C2.15243885,27.4889675 3.14580472,27.7309525 4.10760733,28.1018207 C5.84095625,28.7716632 7.50241108,29.6151036 9.03761288,30.7259549 C10.2580589,31.6088494 11.4785048,32.4952509 12.6542362,33.4465324 C13.3994798,34.0497414 14.0623082,34.7748195 14.7637139,35.4429085 C14.8189496,35.4955139 14.889967,35.5297075 14.9951778,35.5297075 C11.9168834,31.0249291 8.59748078,26.7489844 4.98085747,22.7386971 C6.74839992,23.8320133 8.21696817,25.3549405 9.76006079,26.7682731 C11.3277026,28.2044013 12.7953941,29.7553848 14.156998,31.4387585 C13.979893,30.9521583 13.7843762,30.4725721 13.6283134,29.9780811 C13.1934419,28.6024491 12.7796125,27.2189263 12.3491247,25.840664 C11.7476693,23.9135517 11.1593652,21.9811789 10.5254698,20.067218 C9.93804249,18.2917848 9.3216822,16.5259959 8.67551217,14.7759885 C7.71633983,12.1799106 6.60899553,9.6574802 5.39556361,7.19203904 C5.27106409,6.93865622 5.14831809,6.68351989 5.09045211,6.38366894 C5.46833445,6.98074057 5.88128708,7.55501651 6.21796183,8.17839086 C6.93777947,9.51281527 7.66724143,10.8454862 8.30201362,12.229009 C9.29976328,14.4033667 10.2773475,16.5926294 11.163749,18.8222229 C12.5279832,22.2520969 13.7615805,25.743344 14.8399918,29.2942105 C15.5387673,31.5974516 16.1796768,33.9208581 16.8547798,36.2328667 C16.8977409,36.3810387 16.9933074,36.5257036 17.0967648,36.6344215 C18.1374755,37.7233539 19.1913376,38.7973814 19.9777888,40.1353129 C20.0286407,40.2212351 20.0768624,40.308034 20.1996084,40.3869422 C20.1303446,39.7320046 20.1171932,39.0630388 19.9804191,38.4256364 C19.5683432,36.4932636 19.1369787,34.5643978 18.655639,32.6504369 C18.4075167,31.6658386 18.045416,30.7136803 17.7210159,29.7527545 C17.4001227,28.8005962 17.0608177,27.855452 16.7627203,26.8910191 C17.4816612,27.6985124 18.0725955,28.5963118 18.6118012,29.544963 C19.2193939,30.6128533 19.5201216,31.7842008 19.7524622,32.9941257 C20.0496829,34.5451092 20.4073998,36.083818 20.6721805,37.6409387 C20.8343806,38.5957273 20.8755882,39.5759418 20.9632639,40.5447585 C20.9974574,40.918257 21.009732,41.2943858 21.1017915,41.6740217 C21.1631645,41.1330625 21.2429494,40.5929801 21.28065,40.0502674 C21.3262413,39.3926995 21.3402695,38.7316246 21.3621884,38.0723032 C21.3876143,37.278838 21.3998889,36.484496 21.4305754,35.690154 C21.4533711,35.0913289 21.342023,34.556507 21.100038,33.9962592 C20.7335535,33.148435 20.5099804,32.22784 20.2250343,31.3379314 C20.1584008,31.13014 20.0908905,30.9223485 20.0233802,30.7145571 C20.0628343,30.6926382 20.1022883,30.671596 20.1417424,30.6496771 C20.6099307,31.3659877 21.0789958,32.0822983 21.5471841,32.7977321 C21.5708566,32.7898413 21.5936523,32.7828272 21.6173247,32.7749364 C21.5927755,32.6811234 21.5866382,32.5750358 21.5410468,32.4952509 C21.164918,31.8297922 20.7835287,31.1687173 20.4003858,30.5085192 C19.7235292,29.3441856 19.0037116,28.2079083 18.3785837,27.0111348 C17.7937867,25.8906392 17.2992957,24.7131543 16.7837625,23.5496975 C16.5715872,23.0718649 16.4093871,22.5668527 16.2463103,22.0644709 C18.6407341,24.4545109 20.1163165,27.5740129 21.9382178,30.5514803 C21.9382178,30.3138791 21.9417249,30.180612 21.9373411,30.0482216 C21.9259432,29.6229944 21.8680773,29.1925066 21.9110384,28.7742935 C21.9513692,28.3771225 22.082006,27.9869655 22.2003682,27.6038227 C22.2731391,27.3697285 22.3967618,27.1540462 22.4616419,27.0093813 C21.7847853,25.7275623 21.1508899,24.5255282 20.522255,23.3331385 C20.6248356,24.7824181 20.728293,26.2422188 20.8317503,27.7020195 C20.7852822,27.710787 20.738814,27.7186779 20.6923459,27.7274454 C19.5446708,23.9871993 18.3969956,20.2469533 17.2501973,16.5067072 C17.283514,16.4926791 17.3159541,16.478651 17.3492708,16.4654996 C17.5956396,16.7837625 17.8437619,17.1002718 18.0883771,17.4202882 C18.3294853,17.7359207 18.5591957,18.0629512 18.8099483,18.3698162 C19.0405354,18.652132 19.1387322,19.0764825 19.4938189,19.2237777 C18.3364994,16.5444078 17.7622235,13.6940702 17.1406026,10.860391 C17.1721659,10.8489932 17.2046059,10.8375953 17.2361692,10.8253207 C17.467633,11.4863957 17.7078645,12.1439635 17.9305608,12.8085455 C18.5285092,14.5962533 19.1922144,16.3480141 20.0032148,18.038402 C20.6493848,19.3842242 21.1806997,20.7940497 21.768127,22.1731888 C22.1153228,22.9876962 22.4730397,23.7960663 22.8605664,24.5974223 C22.9447351,24.0301604 22.8614431,23.4795569 22.6746939,22.9657772 C21.7839086,20.5169945 20.8913698,18.070842 20.3284917,15.50019 C20.2180203,14.9951778 20.1364819,14.4822749 20.0444224,13.9720022 C20.0391618,13.9421925 20.0663413,13.9062454 20.1031651,13.8080486 C21.3244878,16.2033492 22.5738668,18.5267557 23.2323114,21.1535202 C23.2919309,20.7730076 23.3541807,20.370576 23.4181839,19.9681445 C23.4821872,19.5657129 23.5523278,19.1641582 23.6066867,18.7599731 C23.6180846,18.6731742 23.5952889,18.5662098 23.5558348,18.4890551 C23.1788292,17.7446883 22.7763977,17.0161031 22.4186808,16.2612152 C21.988193,15.3528948 21.562089,14.4393138 21.193851,13.4994301 C20.6432475,12.0948651 20.1426192,10.6657509 19.6244557,9.24628109 C19.5797411,9.12441184 19.5648362,8.990268 19.6042903,8.80439548 C19.9541164,9.25241839 20.3109565,9.69342724 20.6511383,10.149341 C20.9965806,10.6122688 21.3402695,11.0787036 21.655902,11.5661806 C21.9794254,12.0641786 22.2687553,12.5893562 22.6071836,13.084724 C22.3020721,11.8949645 22.4335856,10.7218634 22.5905252,9.54788555 C23.0622205,12.0659321 23.6680597,14.554169 23.8968934,17.1669053 C24.3037087,16.0990151 24.5281585,15.0170968 24.4404828,13.9079989 C24.3519303,12.7910103 24.1222199,11.687173 23.974048,10.575445 C23.8767279,9.84335272 23.7794079,9.10863021 23.7443376,8.37127744 C23.6855949,7.13066604 23.6768273,5.88654762 23.6470176,4.64418272 C23.6452641,4.57404214 23.6522781,4.50477833 23.6969927,4.42587018 C24.5641056,6.6668615 25.1103253,8.99202151 25.2611275,11.4530789 C25.4899611,10.6929304 25.7135342,9.94417979 25.9397376,9.19630593 C26.4806967,7.41035158 26.9874624,5.60160154 27.9545255,4.02168513 C28.5445831,3.058129 29.2214396,2.1594529 29.8614724,1.23272058 C29.906187,1.1687173 29.9693135,1.1196189 30.0718941,1.09243943 C29.1565596,2.97308355 28.32101,4.88441418 27.7870649,6.95268434 C29.1162288,5.28421545 30.5725224,3.78233042 32.3839027,2.76879913 C34.1812549,1.76403542 36.0566385,1.03808049 38.1319227,1.14153783 C37.8469766,1.23535085 37.5506327,1.29935412 37.2805915,1.42999094 C36.4748517,1.81927112 35.6375486,2.16032966 34.8896747,2.65745097 C33.8349359,3.35885671 32.8082532,4.12952626 31.8438203,4.97121314 C30.9162112,5.78046001 30.0429611,6.67738259 29.2161791,7.61025221 C28.1816056,8.77809276 27.2145425,10.0169506 26.2308209,11.2373966 C26.0510857,11.4600929 25.934477,11.7441623 25.7600023,12.0510273 C27.1102084,10.9305316 28.3595873,9.80302189 29.693135,8.81316305 C31.0328199,7.81804366 32.4435222,6.92462811 34.1821317,6.68790367 C32.5855569,7.73036795 31.133647,8.85700091 29.7431101,10.0713096 C28.1965105,11.4223924 26.6516644,12.781366 25.34968,14.4287927 C24.9963468,14.8759389 24.7008797,15.3599088 24.6623024,15.9806529 C27.2960809,13.2513078 29.9105708,10.5272233 33.1668469,8.70444516 C33.1896426,8.72899436 33.2124383,8.75442032 33.2361107,8.77896952 C33.0993366,8.97273285 32.9730836,9.17614051 32.8240348,9.35762925 C32.0603793,10.2878686 31.3291639,11.2566853 30.5120262,12.1281819 C29.5765263,13.1250548 28.5568577,14.0263612 27.5836572,14.980273 C26.4956016,16.0464097 25.4452465,17.1625216 24.3194903,18.1786831 C23.8951398,18.561826 23.851302,18.9677646 23.8399041,19.4727767 C23.8267528,20.0645878 23.7750241,20.6555221 23.7732706,21.2674986 C24.86571,19.1895841 26.1755852,17.2975422 27.6879913,15.5659468 C26.6087033,18.8344975 24.927083,21.742701 23.1989947,24.6070667 C23.1709384,25.1243534 23.1428822,25.631119 23.1157027,26.1387614 C23.1393752,26.1598036 23.1621709,26.1817225 23.1858433,26.2027647 C25.0805155,23.4883245 27.0102581,20.8115849 29.6107198,18.8292369 C29.4309846,19.0589473 29.2389748,19.2790134 29.0750212,19.5209983 C28.2684046,20.7072508 27.458281,21.8926265 26.6691995,23.092907 C25.7906888,24.4299617 24.9367274,25.7863051 24.0634772,27.1277435 C23.609317,27.8256422 23.1428822,28.5156501 22.6685566,29.1977672 C22.3055791,29.7194377 22.2389456,30.310372 22.2556039,30.9302394 C22.2836602,30.9477745 22.3117164,30.9661864 22.3397726,30.9837215 C23.0727416,29.6983955 23.7829149,28.3964111 24.5448169,27.1312505 C25.324254,25.8389105 26.1545431,24.5833942 26.9629132,23.3112196 C26.9944764,23.3147266 27.0260397,23.3182336 27.0584797,23.3217407 C27.0663705,23.4129234 27.1075781,23.5207645 27.0768916,23.5917819 C26.2921939,25.3882573 25.5443201,27.2066517 24.6956191,28.9671801 C23.8197387,30.7864512 22.8395242,32.5461028 21.9215595,34.3417015 C21.8224859,34.5363416 21.7777713,34.8116433 21.8110881,35.0299559 C21.901394,35.6156297 21.9127919,36.177631 21.7882924,36.7676886 C21.6918491,37.2236023 21.7435778,37.7154631 21.713768,38.1897887 C21.6734372,38.8324517 21.6173247,39.474238 21.5726101,40.1177777 C21.5664728,40.2054534 21.5883917,40.2957594 21.6541485,40.3878189 C21.9601368,39.387439 22.237192,38.3756612 22.5782506,37.3893094 C23.4953386,34.7379957 24.4150568,32.0875588 25.3838735,29.4581641 C25.9116813,28.0255429 26.4991086,26.6148406 27.1356343,25.2365783 C27.5661221,24.3054622 28.1307537,23.4479937 28.6348891,22.5572084 C28.6752199,22.5817576 28.7164275,22.6063068 28.7567583,22.630856 C28.6164772,22.9780518 28.4630447,23.3199871 28.3367917,23.6733203 C27.8966596,24.9060409 27.4863372,26.151036 27.0260397,27.374989 C26.4754362,28.8391735 25.9134348,30.299851 25.3075956,31.7386095 C24.0994243,34.6099892 22.934214,37.5006576 21.9759184,40.485139 C21.8785984,40.7876202 21.8295,41.1076366 21.7576059,41.4197621 C21.7909226,41.4285297 21.8242394,41.438174 21.8575562,41.4469416 C22.2617412,40.3764211 22.6659263,39.3050238 23.0701113,38.2345033 C23.8819885,36.0811877 24.8604495,34.0304527 26.1861063,32.1918929 C26.5026157,31.7526376 26.8427974,31.3212731 27.0891662,30.8364263 C27.2890668,30.4445159 27.3600842,29.9754508 27.4968583,29.5432095 C28.1263699,27.5450799 28.7690329,25.5513341 29.3871467,23.5488208 C30.5435894,19.8024374 31.9507847,16.171786 33.5447292,12.6235497 C34.3864161,10.7499196 35.3289301,8.93766257 36.4310138,7.24026069 C37.188532,6.07505041 38.0819476,5.01154397 38.9481837,3.93576292 C39.9415495,2.70216559 41.1321858,1.70529269 42.3456177,0.746997107 C42.7252535,0.447146155 43.1522343,0.217435778 43.5835988,0 C43.0329953,0.490107257 42.4736242,0.969693427 41.932665,1.47295204 C40.3834351,2.91258731 38.9271415,4.45743344 37.6812695,6.21708507 C36.5546366,7.80927609 35.6007248,9.52772014 34.776573,11.3277026 C34.097963,12.8111757 33.4167227,14.2946489 32.8047462,15.8114388 C32.1752345,17.3711898 31.6044656,18.9616273 31.0512318,20.5564485 C30.4567905,22.2705088 29.8930356,23.9977204 29.3511997,25.7328229 C28.7199345,27.7537481 28.1026975,29.779934 27.5249145,31.8192711 C26.8375369,34.2417512 26.1676944,36.6703685 25.5478271,39.1138908 C24.9437414,41.4951632 24.3887541,43.8913406 23.8556858,46.2927784 C23.4102931,48.3014291 23.0262735,50.3267382 22.6177046,52.3450332 C22.5966625,52.446737 22.594909,52.5537014 22.5826344,52.6738171 C23.0438086,52.7763977 23.4751732,52.8719642 23.9337172,52.9736681 C23.9679107,52.5896484 23.9985972,52.1924774 24.0380513,51.7961832 C24.2475962,49.6823217 24.6044364,47.5965164 25.0585966,45.5308765 C25.5250314,43.4091241 25.9748078,41.2812345 26.4763129,39.1691265 C26.9857089,37.0210714 27.548587,34.8879212 28.0895461,32.7486337 C28.1123418,32.657451 28.1482889,32.5688985 28.2342111,32.4926206 C27.7747903,34.9948856 27.3144928,37.4971505 26.855072,39.9994155 C26.8962796,40.0108133 26.938364,40.0213344 26.9795716,40.0327323 C27.1461554,39.3900693 27.3250139,38.75179 27.4775696,38.10562 C28.0641202,35.6182599 28.5857907,33.1098577 29.2416051,30.6444165 C29.7939621,28.5673788 30.5067656,26.5394395 31.401058,24.6035596 C32.3234065,22.60543 33.2510156,20.6073005 34.2689306,18.6670369 C34.9115937,17.4430838 35.6682351,16.2761201 36.4739749,15.171406 C37.4761084,13.7984043 38.5378613,12.4701172 39.6548499,11.2067101 C40.8972148,9.80126838 42.2991495,8.58958997 43.8106789,7.53046731 C44.8776924,6.7834702 45.9675015,6.09959961 47.1809335,5.67437239 C47.280007,5.6393021 47.3808341,5.6086156 47.5149779,5.65508373 C47.3431335,5.76467838 47.1774264,5.88654762 46.9994447,5.98211415 C45.6203057,6.7282345 44.3945992,7.72598416 43.1899348,8.75617383 C41.8493731,9.90209545 40.7078353,11.2672064 39.607505,12.6770319 C38.4519391,14.156998 37.4278867,15.7386679 36.5248268,17.4106438 C35.4902534,19.3263582 34.4775989,21.2569775 33.5052752,23.2112693 C32.9423971,24.3414092 32.4777158,25.5294152 31.9718269,26.692872 C31.9490312,26.7446006 31.9560452,26.8121109 32.0077739,26.9032937 C32.3444487,26.4964784 32.6758629,26.0835257 33.0195517,25.6828477 C33.7419996,24.8411608 34.4521729,23.9863226 35.2018003,23.1744455 C35.776953,22.5519479 36.3757781,21.9452319 37.0166876,21.406903 C37.7899874,20.7581027 38.5992343,20.1531403 39.4304001,19.5946459 C40.7560569,18.7029839 42.1492241,17.9463425 43.6318204,17.4123973 C44.3796943,17.1432329 45.1275682,16.8425052 45.9797761,16.8591636 C45.3476342,17.1835637 44.738288,17.4500979 44.1710261,17.7981705 C43.1671391,18.4154075 42.17465,19.056317 41.2067101,19.7384341 C40.5237163,20.2197738 39.8591343,20.7458281 39.2418973,21.3236111 C38.0591519,22.4300786 36.8992022,23.5663559 35.7611713,24.7271824 C34.5556302,25.9581495 33.5000146,27.335535 32.5110325,28.7804308 C31.6447964,30.0569892 31.0258059,31.4668147 30.5646316,32.9573019 C29.9245989,35.0264488 29.2863197,37.0999795 28.7628956,39.206827 C28.3008446,41.0655522 27.9957331,42.9707455 27.6248648,44.8566502 C27.6038227,44.9644913 27.6108367,45.0802233 27.6511675,45.2126136 C27.7598854,44.9250373 27.8510682,44.6269398 27.981705,44.3516381 C28.6006956,43.0479002 29.1495455,41.6941871 29.8781308,40.4667271 C30.7680393,38.9665956 31.4825964,37.3717743 32.263787,35.8120233 C32.7889645,34.7625449 33.3676243,33.7455066 33.9199813,32.7126867 C34.3943069,31.8262852 34.8484671,30.9258556 35.3429582,30.0534822 C36.1399304,28.6471637 36.9535611,27.2504895 37.7794663,25.8634597 C38.1854049,25.1813426 38.6106321,24.5106234 39.0674226,23.8679604 C39.755677,22.9000205 40.5158255,21.9917 41.1769004,21.0035947 C41.806412,20.0628343 42.6489757,19.3929918 43.4547155,18.6530087 C39.4058509,23.6724435 36.7966216,29.6343923 34.0769208,35.5253237 C36.0303358,33.7595347 38.1100038,32.26028 40.4860157,31.2914633 C39.9748663,31.6693456 39.4426747,32.0174182 38.9569512,32.4303709 C37.9241313,33.3080048 36.9000789,34.2005436 35.9005757,35.1228921 C35.3683841,35.6147529 34.834439,36.1311629 34.4065815,36.7256042 C33.6227606,37.8136599 33.0914458,39.0726832 32.6039688,40.3474881 C32.2804454,41.192682 31.9727036,42.0457667 31.6597013,42.8962212 C31.624631,42.990911 31.6044656,43.0926148 31.6079726,43.2136073 C33.9366397,40.2115907 36.6352982,37.7549171 39.9240144,36.1399304 C39.943303,36.1679867 39.9634685,36.1960429 39.9827571,36.2249759 C39.4970336,36.6028582 38.9981588,36.9632054 38.5273402,37.3630067 C37.2148347,38.4756115 35.9523044,39.6522197 34.8423298,41.008563 C34.03659,41.9931613 33.213315,42.9672385 32.4689482,44.0061958 C31.4028115,45.4931759 30.7820674,47.218634 30.400678,49.05281 C30.2937137,49.5674665 30.1499255,50.0724786 30.0263027,50.5827513 C30.0105211,50.6467545 30.0122746,50.7160184 29.996493,50.8913698 C30.2849461,50.3749598 30.5111494,49.9497326 30.7548879,49.53678 C31.3265336,48.5670865 31.8534647,47.5588158 32.4934974,46.6461116 C33.5534968,45.1328287 34.653827,43.6493556 35.8067627,42.2211182 C36.2924862,41.618786 36.9535611,41.1856679 37.5392349,40.6806558 C37.5944706,40.6333109 37.6786393,40.6262969 37.7873572,40.6508461 C37.4945203,40.983137 37.1806412,41.2961393 36.9114768,41.6503492 C36.119765,42.694567 35.2921063,43.7142356 34.5766724,44.8189496 C33.3562264,46.702224 32.1822486,48.6223222 31.0477248,50.5687231 C30.584797,51.3621884 30.2893299,52.2705088 29.8947891,53.1139492 C29.5905544,53.7653798 29.2547564,54.400152 28.9259725,55.0384312 C28.8742438,55.1383815 28.7891984,55.2164129 28.6611918,55.378613 C28.1526726,52.5975392 28.7453605,50.0768624 29.6098431,47.5816115 C28.4498933,49.6402373 27.645907,51.8777216 26.6122103,53.9714177 C26.6446503,54.035421 26.6542946,54.0739983 26.6770903,54.0959172 C27.2022679,54.6105737 27.183856,54.8999036 26.6165941,55.3707222 C25.9563959,55.9186954 25.1743286,56.0852792 24.3887541,56.2115323 C22.6983663,56.4815735 20.9983342,56.5376859 19.294795,56.3746091 C18.2654821,56.2764123 17.2519508,56.0782652 16.2813806,55.6837245 C16.0253675,55.5793904 15.7868896,55.3908876 15.5747143,55.1971242 C15.2810007,54.9279598 15.3993629,54.4808136 15.7965339,54.2475962 C15.9631177,54.1493994 16.1200573,54.0336675 16.2787503,53.9275799 C15.6413479,52.4344624 14.9644913,51.0640909 14.0395125,49.843645 C14.4007365,51.591022 14.6172955,53.3419061 14.3253354,55.2435924 C11.9756262,50.2039922 9.29625625,45.5212321 5.98649794,41.2593155 C6.02770553,41.1804074 6.06803636,41.1383231 6.10836719,41.0962387 Z M10.9612181,39.239267 C12.6928135,42.6489757 14.4235322,46.059561 16.1551276,49.4692697 C16.1893211,49.4508578 16.2226379,49.4324459 16.2568314,49.414034 C16.233159,49.3246047 16.2182541,49.2316685 16.1840606,49.1474998 C15.839495,48.3049361 15.5159716,47.4518514 15.138966,46.6268229 C14.4892889,45.2029693 13.8527632,43.7677178 13.1224245,42.3929626 C12.5060642,41.2330128 11.7652044,40.1519712 11.0620452,38.9911448 C10.9094894,38.8175468 10.8525002,38.5229564 10.4974136,38.4510623 C10.6789023,38.75179 10.8104159,38.9718561 10.9612181,39.239267 Z M24.89815,39.0472572 C25.0638571,38.4177456 25.2295643,37.7873572 25.4101762,37.0973493 C25.3146097,37.152585 25.2751556,37.1604758 25.2602508,37.1859017 C24.6763305,38.131046 24.064354,39.0577783 23.5207645,40.030102 C22.818482,41.286495 22.2293012,42.6095216 21.778648,44.0009352 C21.7277961,44.1578747 21.645381,44.3148143 21.6392437,44.4743841 C21.5787474,46.0174767 21.6366134,47.5588158 21.4866879,49.1062922 C21.3507905,50.5073501 21.4577549,51.9373411 21.4577549,53.3541807 C21.4884414,53.3568109 21.5191279,53.3585645 21.5498144,53.3611947 C21.5647193,53.2586141 21.5796242,53.1569103 21.594529,53.0543297 C21.6155712,53.0718649 21.6366134,53.0894 21.6567788,53.1069351 C21.7286729,53.0183827 21.800567,52.9289534 21.8715843,52.8395242 C21.8864892,52.8886226 21.901394,52.937721 21.9119151,52.9736681 C22.0863898,51.9917 22.2354385,51.0079785 22.4379694,50.0374083 C22.9798054,47.4369465 23.5347926,44.8399918 24.1029313,42.2456674 C24.3352719,41.1900517 24.6140807,40.1484642 24.89815,39.0472572 Z M20.8431481,53.0920303 C20.8720811,53.0210129 20.9317006,52.9464886 20.9246866,52.8807318 C20.8685741,52.3879943 20.760733,51.8987638 20.7414443,51.4042727 C20.6677967,49.5043399 20.5976561,47.6035304 20.5809977,45.7027209 C20.5757372,45.1451033 20.4547447,44.6821755 20.1706754,44.2446737 C20.1057954,44.1456001 20.0488061,44.0403893 19.9856796,43.940439 C19.5420405,43.2416635 19.078236,42.5630535 18.4303124,42.0256013 C19.3070696,45.6527457 20.1373586,49.2553409 20.208376,52.9868194 C20.4529912,53.02452 20.6274659,53.0508227 20.8431481,53.0920303 Z M23.7776544,38.8456031 C24.3107227,38.0258351 24.8525587,37.2130812 25.3724757,36.3827922 C25.5636087,36.0776807 25.7477277,35.7497735 25.8555689,35.4025777 C26.1624339,34.4109653 26.4298448,33.4053248 26.7095304,32.4031914 C26.7314493,32.3234065 26.7296958,32.2366075 26.7446006,32.1015869 C25.5513341,33.2282199 21.8987638,41.3759242 21.5822544,43.4038636 C22.2415758,42.0299851 22.9964637,40.459713 23.7776544,38.8456031 Z M20.5538183,43.2039629 C20.5354064,43.1110267 20.5038431,43.0189672 20.5012128,42.9251542 C20.4854312,42.3236987 20.302189,41.7827396 20.0724786,41.2391501 C19.7358038,40.4430546 19.2430663,39.7775959 18.7143817,39.141947 C18.3926119,38.7552971 18.0199901,38.4203758 17.6105445,38.0021627 C17.8130754,38.8876874 17.9700149,39.6741386 18.1795599,40.4430546 C18.2891545,40.8481164 18.4531081,41.2487945 18.659146,41.6056346 C18.9204197,42.0597948 19.2500804,42.4683637 19.5490546,42.8970979 C19.8980039,43.3968495 20.2460765,43.8974779 20.6204518,44.4340532 C20.5976561,44.0105795 20.5774907,43.6388345 20.5538183,43.2039629 Z M28.2955841,47.6044072 C29.2117953,45.868428 30.0429611,44.0877342 30.7469971,42.2342695 C31.068767,41.3873221 31.4790893,40.5798287 31.8455738,39.7530467 C31.9034398,39.6215332 31.9437706,39.481252 32.0235555,39.2576789 C30.6040857,40.5061811 27.0856592,48.7889061 27.2960809,49.7077476 C27.6345092,48.9984511 27.956279,48.3268551 28.2955841,47.6044072 Z M14.5383874,49.543794 C14.868048,50.1101792 15.196832,50.6756875 15.5264927,51.2420727 C15.5554257,51.2210305 15.5843587,51.2008651 15.6124149,51.1798229 C15.1188006,49.814712 14.5182219,48.5144811 13.7265102,47.3299822 C13.6888097,47.3501476 13.6502323,47.3711898 13.6125318,47.3913552 C13.9123827,48.0936377 14.2122337,48.7959202 14.5383874,49.543794 Z M32.8678727,36.4380279 C33.0782944,35.8111465 33.2887161,35.1842651 33.4991379,34.556507 C33.4658211,34.5416021 33.4325043,34.5258205 33.3991875,34.5109156 C32.8582284,35.6305345 32.318146,36.7492767 31.7771868,37.8688956 C31.8078733,37.892568 31.8394365,37.9162405 31.870123,37.9390362 C32.2418681,37.4945203 32.5969547,37.0342228 32.8678727,36.4380279 Z" id="形状"></path>
                        <path d="M32.0945729,50.4161674 C32.3391881,49.8857293 32.5548704,49.352661 32.8389397,48.8669375 C33.8209077,47.1879475 34.8072595,45.5098343 35.8339422,43.8632843 C36.2319899,43.2241284 36.7413859,42.6673876 37.2060672,42.07733 C37.2542888,42.0168337 37.3375807,41.9887775 37.4331473,41.9940381 C36.3091446,44.0263612 35.1728673,46.0499167 34.065523,48.0936377 C32.9599322,50.1338516 32.2217027,52.359938 31.4282374,54.6570418 C31.1713476,53.7206652 31.5895607,51.2727592 32.0945729,50.4161674 Z" id="路径"></path>
                        <path d="M10.6780255,51.7479615 C10.1589853,50.5809977 9.70131806,49.4070199 9.12090481,48.3101967 C8.06879621,46.3190812 6.94391677,44.373557 5.85147734,42.4078674 C5.81114651,42.3342198 5.78484379,42.2518047 5.75240378,42.1728965 C5.77782973,42.1509776 5.80325569,42.1290587 5.82868165,42.1071397 C5.9260017,42.2053365 6.02945904,42.2965193 6.11888827,42.4017301 C7.67162522,44.2306456 8.91135985,46.3041763 10.0283485,48.4653827 C10.5184557,49.4131572 10.9734927,50.3898647 11.3575123,51.3928749 C11.5530292,51.9031476 11.5775784,52.4984657 11.6371979,53.060467 C11.6775287,53.4409796 11.6450887,53.8311366 11.6450887,54.2817898 C11.1260485,53.4997224 11.04451,52.5721133 10.6780255,51.7479615 Z" id="路径"></path>
                        <path d="M6.5013082,41.389023 C6.45669144,41.490447 6.39255484,41.558063 6.30332131,41.6496263 C5.98960967,41.338311 5.6996007,41.0030484 5.40959172,40.6677858 C5.44166002,40.6311605 5.47372832,40.5945351 5.50579662,40.5579098 C5.83205672,40.8227391 6.15692254,41.0889771 6.5013082,41.389023 Z" id="路径"></path>
                    </g>
                </g>
            </g>
        </g>
    </g>
</svg>
