<?xml version="1.0" encoding="UTF-8"?>
<svg width="61px" height="61px" viewBox="0 0 61 61" version="1.1" xmlns="http://www.w3.org/2000/svg" xmlns:xlink="http://www.w3.org/1999/xlink">
    <title>flower-with-circular-petals-variant-svgrepo-com</title>
    <g id="页面-1" stroke="none" stroke-width="1" fill="none" fill-rule="evenodd">
        <g id="形状库素材-植物" transform="translate(-640.000000, -397.000000)" fill="#545458" fill-rule="nonzero">
            <g id="flower-with-circular-petals-variant-svgrepo-com" transform="translate(640.653300, 397.866705)">
                <path d="M53.8052979,20.1420402 C54.2013812,19.0112531 54.4265685,17.8017345 54.4265685,16.5382977 C54.4265685,10.4959282 49.5110681,5.57968153 43.4673926,5.57968153 C42.2028365,5.57968153 40.9914521,5.80617477 39.8601053,6.20281779 C39.3393947,5.12221742 38.6436836,4.10542321 37.7492778,3.21139058 C35.6798684,1.14048862 32.927621,0 30.0003731,0 C27.0731252,0 24.3208779,1.13936921 22.2514684,3.21027118 C21.3559433,4.10523665 20.6604187,5.12109801 20.140641,6.20169839 C19.0083613,5.80505536 17.7979098,5.57856212 16.5324208,5.57856212 C10.4896781,5.57856212 5.57343151,10.4938759 5.57343151,16.5371783 C5.57343151,17.8017345 5.79936505,19.0103203 6.19451553,20.1411074 C5.10197482,20.6696538 4.08760599,21.3718948 3.20458086,22.2562259 C-1.06819362,26.5286273 -1.06819362,33.4810743 3.20458086,37.7538487 C4.08760599,38.6368739 5.10197482,39.3402343 6.19451553,39.8687807 C5.79936505,40.9999409 5.57343151,42.2094596 5.57343151,43.4730829 C5.57343151,49.5148928 10.4887453,54.4320722 16.5324208,54.4320722 C17.7979098,54.4320722 19.0083613,54.2050193 20.140641,53.8080031 C20.6604187,54.8880438 21.3559433,55.9052111 22.2514684,56.7998035 C24.3208779,58.8692129 27.0731252,60.0100747 30.0003731,60.0100747 C32.9274345,60.0100747 35.6798684,58.8701457 37.7490913,56.7998035 C38.6436836,55.9042783 39.3392081,54.8880438 39.8599187,53.8080031 C40.991079,54.2050193 42.2026499,54.4320722 43.4672061,54.4320722 C49.5101353,54.4320722 54.4263819,49.515639 54.4263819,43.4730829 C54.4263819,42.2085268 54.2011947,40.9999409 53.8051113,39.8687807 C54.8985849,39.3402343 55.9122074,38.6389261 56.7959788,37.7538487 C61.0680071,33.4810743 61.0680071,26.5286273 56.7959788,22.2562259 C55.912394,21.3728277 54.8987715,20.6705867 53.8052979,20.1420402 Z M38.0612191,52.9947543 C37.6371506,53.8632272 37.0718503,54.6815133 36.3502063,55.4031573 C34.5959098,57.156521 32.2985146,58.0337625 30.0003731,58.0337625 C27.7020451,58.0337625 25.4037171,57.1567076 23.6503534,55.4031573 C22.9277765,54.6815133 22.3626628,53.86416 21.9385943,52.9947543 C21.6400859,52.3843047 21.4169509,51.7466161 21.2652713,51.0954947 C20.804449,49.1169438 21.0218004,47.0167507 21.9182585,45.1561106 C22.3818793,46.2747708 23.1354264,47.2872739 24.3275943,47.920858 C24.4831918,48.0038806 24.6318863,48.0938063 24.8029689,48.1624632 C25.28506,48.3564936 25.7012926,48.5883974 26.0790923,48.8385847 C29.1936542,50.9070613 28.8999966,54.5499831 28.8999966,54.5499831 C28.8999966,54.5499831 28.9018623,56.1091297 29.7675366,56.5283474 L29.7675366,56.6318925 C29.8505592,56.6318925 29.9277983,56.6231238 30.001306,56.609691 C30.0748137,56.6231238 30.1511199,56.6318925 30.2341425,56.6318925 L30.2341425,56.5283474 C31.1007497,56.1091297 31.101496,54.5499831 31.101496,54.5499831 C31.101496,54.5499831 30.8089577,50.9070613 33.9235197,48.8385847 C34.3003865,48.5883974 34.7166191,48.3564936 35.199643,48.1624632 C35.3707257,48.0928734 35.5194201,48.0038806 35.6740848,47.920858 C36.8662527,47.2872739 37.6207327,46.2727185 38.0843535,45.1561106 C38.9809981,47.0167507 39.1983495,49.1167572 38.7375272,51.0954947 C38.5839819,51.7484818 38.3608469,52.3841181 38.0612191,52.9947543 Z M38.783796,40.2019907 C38.3964813,40.5363201 37.9964801,40.8540449 37.5714788,41.1428518 C37.2892018,41.336136 36.9925591,41.5100171 36.6942372,41.6820326 C36.3899452,41.8577794 36.0761383,42.016362 35.757294,42.167855 C35.3582256,42.3583407 34.9487094,42.5262516 34.5283723,42.6769984 C33.8793031,42.9087155 33.21251,43.0982683 32.5218362,43.2305449 C32.4522464,43.2430449 32.3817238,43.2499479 32.3121341,43.262448 C31.5597063,43.3917394 30.7897413,43.4749486 30.0003731,43.4749486 C29.211005,43.4749486 28.4412265,43.391926 27.6884256,43.262448 C27.6188359,43.2499479 27.5473804,43.2430449 27.4787235,43.2305449 C26.7880497,43.100134 26.1214432,42.9098349 25.4721874,42.6769984 C25.0520369,42.5260651 24.6423341,42.3581541 24.2423328,42.167855 C23.9236751,42.016362 23.6106145,41.8577794 23.3052031,41.6820326 C23.0076275,41.5111365 22.7121042,41.336136 22.4279615,41.1428518 C22.0048259,40.8540449 21.6038918,40.5363201 21.2165772,40.2019907 C20.7104189,39.7672878 20.2389622,39.2939655 19.8022071,38.78874 C19.4678777,38.4012388 19.1510857,38.0003047 18.8620922,37.5762362 C18.668808,37.2941458 18.4939941,36.9967568 18.3219786,36.6989947 C18.1471646,36.3947027 17.9876492,36.0827615 17.8369025,35.7639172 C17.6466034,35.3637294 17.477573,34.9542132 17.3268263,34.5340626 C17.096042,33.8848069 16.9055563,33.2182003 16.7742126,32.5275265 C16.7617126,32.4579367 16.7538767,32.3862947 16.7423095,32.3178244 C16.6118987,31.5653967 16.5298089,30.795245 16.5298089,30.0060635 C16.5298089,29.2166953 16.6118987,28.4467302 16.7423095,27.6943025 C16.7538767,27.6247128 16.7617126,27.5536305 16.7742126,27.4846004 C16.9046235,26.7939266 17.0949226,26.12732 17.3268263,25.4780643 C17.477573,25.0579137 17.6466034,24.648211 17.8369025,24.2482097 C17.9876492,23.9299252 18.1471646,23.6163048 18.3219786,23.3125725 C18.4938075,23.0149969 18.668808,22.7177945 18.8620922,22.4347713 C19.1508991,22.0116356 19.4688105,21.6107015 19.8022071,21.2232003 C20.2378428,20.7176017 20.7102323,20.2455853 21.2165772,19.80939 C21.602959,19.47618 22.003893,19.1578954 22.4279615,18.868902 C22.7109848,18.6756178 23.0066947,18.5017366 23.3052031,18.3302809 C23.6106145,18.1554669 23.9234886,17.996138 24.2423328,17.8448316 C24.6423341,17.6549056 25.0518503,17.4853156 25.4721874,17.3353151 C26.1214432,17.1039711 26.7880497,16.9140451 27.4787235,16.7821417 C27.5473804,16.7696417 27.6188359,16.7623656 27.6884256,16.7507984 C28.4410399,16.6198278 29.211005,16.537738 30.0003731,16.537738 C30.7897413,16.537738 31.5595198,16.6198278 32.3121341,16.7507984 C32.3817238,16.7623656 32.4522464,16.7696417 32.5218362,16.7821417 C33.21251,16.9131123 33.8791165,17.1028517 34.5283723,17.3353151 C34.9487094,17.4855021 35.3582256,17.6550922 35.757294,17.8448316 C36.0761383,17.996138 36.3901318,18.1554669 36.6942372,18.3302809 C36.9918128,18.5017366 37.2884555,18.6765506 37.5714788,18.868902 C37.9953607,19.1577088 38.3955485,19.4752471 38.783796,19.80939 C39.2890214,20.2446525 39.7614109,20.7176017 40.1972332,21.2232003 C40.531376,21.6095821 40.8492875,22.0116356 41.1380943,22.4347713 C41.3313785,22.7177945 41.5061925,23.0148104 41.6772751,23.3125725 C41.8522757,23.6174242 42.0114179,23.9299252 42.1630975,24.2482097 C42.3524638,24.648211 42.5226136,25.0577272 42.6722409,25.4780643 C42.9041446,26.1271335 43.0935109,26.7939266 43.225974,27.4846004 C43.2382874,27.5536305 43.245377,27.6247128 43.2567576,27.6943025 C43.3881013,28.4467302 43.4703777,29.2166953 43.4703777,30.0060635 C43.4703777,30.795245 43.3882879,31.5653967 43.2567576,32.3178244 C43.2451904,32.3862947 43.2382874,32.4579367 43.225974,32.5275265 C43.0944437,33.2182003 42.9050774,33.8846203 42.6722409,34.5340626 C42.5226136,34.9542132 42.3524638,35.3637294 42.1630975,35.7639172 C42.0114179,36.0827615 41.8520891,36.3958221 41.6772751,36.6989947 C41.5061925,36.9967568 41.3313785,37.2941458 41.1380943,37.5762362 C40.8492875,38.0003047 40.5304432,38.4012388 40.1972332,38.78874 C39.7614109,39.2939655 39.2880886,39.7672878 38.783796,40.2019907 Z M8.91000905,21.2700288 C9.58146636,21.1134985 10.2665431,21.0254385 10.953299,21.0254385 C12.2883778,21.0254385 13.6204715,21.331223 14.8493932,21.9230159 C13.7316658,22.3868233 12.7182298,23.1407436 12.0844592,24.3314189 C12.0014366,24.4870164 11.9124438,24.6353378 11.8437868,24.8067936 C11.6495698,25.2892577 11.4176661,25.7056769 11.1674788,26.0829169 C9.09918874,29.1980386 5.4560804,28.9038212 5.4560804,28.9038212 C5.4560804,28.9038212 3.89600092,28.9058735 3.47771604,29.7713612 L3.37435751,29.7713612 C3.37435751,29.8543839 3.38219335,29.9316229 3.39655907,30.0051306 C3.38200678,30.0780786 3.37435751,30.1555042 3.37435751,30.2385269 L3.47771604,30.2385269 C3.89600092,31.1055072 5.4560804,31.1055072 5.4560804,31.1055072 C5.4560804,31.1055072 9.09918874,30.8137152 11.1674788,33.9273443 C11.4176661,34.3042111 11.6495698,34.7204438 11.8437868,35.2034677 C11.9133766,35.3745503 12.0021828,35.5234314 12.0844592,35.6788423 C12.7180433,36.8710102 13.7325987,37.6245573 14.8493932,38.0872453 C13.6204715,38.6794113 12.2881912,38.9848227 10.953299,38.9848227 C10.2663565,38.9848227 9.58146636,38.8958299 8.91000905,38.7402324 C8.25888762,38.5887394 7.62231848,38.364485 7.01168225,38.0669094 C6.1432094,37.6420947 5.32492327,37.0777272 4.60327924,36.3551504 C1.09655192,32.8482365 1.09655192,27.1620248 4.60327924,23.6551109 C5.32492327,22.9329071 6.14227656,22.3677934 7.01168225,21.9437249 C7.62231848,21.6457763 8.25795478,21.4220815 8.91000905,21.2700288 Z M21.9385943,7.01755913 C22.3626628,6.14908628 22.9277765,5.33117329 23.6503534,4.60915612 C25.4037171,2.85579246 27.7020451,1.97836436 30.0003731,1.97836436 C32.2985146,1.97836436 34.5959098,2.85467306 36.3502063,4.60915612 C37.0718503,5.33117329 37.636964,6.14815345 38.0612191,7.01755913 C38.3606603,7.62819536 38.5839819,8.26532421 38.7354749,8.91588593 C39.1962973,10.8957428 38.9789458,12.9955628 38.0824878,14.8556432 C37.6186804,13.7373561 36.8642004,12.7244799 35.6720326,12.0907092 C35.5175545,12.0071269 35.3686734,11.9183206 35.1977774,11.8502234 C34.7147535,11.6556333 34.2983343,11.4237296 33.9214674,11.1735422 C30.8059727,9.10525219 31.0996303,5.46270355 31.0996303,5.46270355 C31.0996303,5.46270355 31.097578,3.90243751 30.2320903,3.48415262 L30.2320903,3.38023439 C30.1490676,3.38023439 30.0727614,3.38807024 29.9992537,3.40299566 C29.9259326,3.38788367 29.848507,3.38023439 29.7654843,3.38023439 L29.7654843,3.48508546 C28.8988772,3.90337035 28.8981309,5.46363639 28.8981309,5.46363639 C28.8981309,5.46363639 29.1908557,9.10599846 26.0772266,11.174475 C25.6994269,11.4246624 25.2830077,11.6565661 24.8011032,11.8511563 C24.6290878,11.9201863 24.4813261,12.0097388 24.3257286,12.0918286 C23.1335607,12.7255993 22.3800136,13.7397815 21.9163928,14.8567626 C21.0199348,12.9964956 20.8025833,10.8966757 21.2634057,8.91737847 C21.4167644,8.2642048 21.6400859,7.62819536 21.9385943,7.01755913 Z M51.0896178,38.7422846 C50.4181605,38.8978821 49.7342032,38.9866884 49.0474473,38.9866884 C47.7114357,38.9866884 46.3791554,38.6814636 45.1502337,38.089111 C46.267961,37.6256767 47.281397,36.8710102 47.9151676,35.6788423 C47.9981903,35.5243642 48.0881159,35.3754831 48.1556535,35.2045871 C48.3508033,34.722496 48.5825205,34.305144 48.8328944,33.9282771 C50.9011844,30.8137152 54.5431733,31.1073728 54.5431733,31.1073728 C54.5431733,31.1073728 56.1034394,31.1055072 56.5215377,30.2394597 L56.6260156,30.2394597 C56.6260156,30.1564371 56.6183664,30.079198 56.6028812,30.00625 C56.6183664,29.9327423 56.6260156,29.856063 56.6260156,29.7724806 L56.5215377,29.7724806 C56.1034394,28.9058735 54.5431733,28.9051272 54.5431733,28.9051272 C54.5431733,28.9051272 50.9011844,29.199158 48.8328944,26.0842229 C48.5825205,25.7069829 48.3508033,25.2905637 48.1556535,24.807913 C48.0869965,24.6364572 47.9970709,24.4881358 47.9151676,24.3330981 C47.281397,23.1409302 46.2670282,22.3870099 45.1502337,21.9232025 C46.3791554,21.3304768 47.7114357,21.0256251 49.0474473,21.0256251 C49.7343897,21.0256251 50.4183471,21.1136851 51.0896178,21.2702154 C51.7407392,21.4215218 52.3782412,21.6459628 52.9879446,21.9439115 C53.8573503,22.36798 54.6747036,22.9332803 55.3972805,23.6552974 C58.9041944,27.1620248 58.9041944,32.848423 55.3972805,36.3553369 C54.6747036,37.0779138 53.8584697,37.6420947 52.9879446,38.067096 C52.3782412,38.3665372 51.7416721,38.5896722 51.0896178,38.7422846 Z M43.4692583,7.55804589 C48.4289752,7.55804589 52.4489504,11.5783942 52.4489504,16.5382977 C52.4489504,17.5584501 52.2711513,18.5336397 51.9580907,19.4470754 C51.0211475,19.1896119 50.0461444,19.0470742 49.0481936,19.0470742 C47.3265464,19.0470742 45.6716905,19.4509933 44.1744844,20.1967046 C43.8334385,17.2231879 46.057326,15.3285924 46.057326,15.3285924 C46.057326,15.3285924 47.0328888,14.3509775 46.7530372,13.5457511 L46.8177762,13.4804524 C46.7666566,13.4293328 46.7116191,13.3853028 46.6575145,13.3491087 C46.6207606,13.2935115 46.5782232,13.2399665 46.5261708,13.1886604 L46.4603124,13.2539591 C45.656392,12.9742941 44.6778441,13.9496702 44.6778441,13.9496702 C44.6778441,13.9496702 42.781383,16.1744906 39.8069335,15.8321388 C41.0106686,13.4043327 41.2599231,10.6259659 40.5558164,8.04946533 C41.4696252,7.73584495 42.4472402,7.55804589 43.4692583,7.55804589 Z M7.55179587,16.5371783 C7.55179587,11.5774614 11.5725173,7.55711305 16.5324208,7.55711305 C17.5536926,7.55711305 18.5301882,7.73584495 19.4460493,8.04927876 C18.7408232,10.6248465 18.9911971,13.4043327 20.1947456,15.8319522 C17.2202961,16.174304 15.323835,13.9494837 15.323835,13.9494837 C15.323835,13.9494837 14.34622,12.9741075 13.5404339,13.2537726 L13.4756949,13.1884738 C13.4243888,13.2395934 13.381105,13.2942578 13.3441646,13.3489221 C13.2881943,13.3851162 13.2350225,13.4280268 13.1839029,13.4802658 L13.2486419,13.5455645 C12.9695366,14.3498581 13.9443531,15.3284059 13.9443531,15.3284059 C13.9443531,15.3284059 16.1682406,17.2239342 15.8281276,20.196518 C14.3316677,19.4517396 12.6749461,19.0468876 10.9553512,19.0468876 C9.95646753,19.0468876 8.98165106,19.1894253 8.04452128,19.4468888 C7.72959493,18.5336397 7.55179587,17.5573307 7.55179587,16.5371783 Z M16.531488,52.4537079 C11.5715845,52.4537079 7.55086303,48.4339193 7.55086303,43.4730829 C7.55086303,42.4538634 7.72866209,41.478114 8.0415362,40.5652381 C8.97959882,40.8221419 9.95348244,40.9652393 10.9523661,40.9652393 C12.6728939,40.9652393 14.3288692,40.5613202 15.8253291,39.8156089 C16.1652555,42.7881927 13.941368,44.683721 13.941368,44.683721 C13.941368,44.683721 12.9656187,45.661336 13.2458434,46.4661893 L13.1831567,46.5318611 C13.2342762,46.5829807 13.2883809,46.6266375 13.3434184,46.6632048 C13.3801722,46.7193617 13.4227096,46.7714141 13.474762,46.8236531 L13.5395011,46.7577946 C14.3441677,47.0380194 15.3229021,46.0620835 15.3229021,46.0620835 C15.3229021,46.0620835 17.2193632,43.838196 20.1938128,44.1801747 C18.9900777,46.6070479 18.7408232,49.3863476 19.4451164,51.9628481 C18.5301882,52.2759088 17.5535061,52.4537079 16.531488,52.4537079 Z M52.447831,43.4749486 C52.447831,48.4348521 48.4280424,52.4555736 43.4672061,52.4555736 C42.4470536,52.4555736 41.4694386,52.2759088 40.5545104,51.9628481 C41.2597365,49.3872804 41.0095492,46.6070479 39.8058141,44.1801747 C42.7802636,43.838196 44.6767247,46.0620835 44.6767247,46.0620835 C44.6767247,46.0620835 45.6543397,47.0378328 46.459193,46.7577946 L46.5248648,46.8236531 C46.5759844,46.7714141 46.6196412,46.7173094 46.6562085,46.6632048 C46.7114326,46.6266375 46.7644178,46.5839135 46.8166568,46.5318611 L46.7507984,46.4661893 C47.0310231,45.6622689 46.0550872,44.683721 46.0550872,44.683721 C46.0550872,44.683721 43.8311997,42.7881927 44.1722456,39.8156089 C45.6687054,40.5603873 47.3244942,40.9652393 49.0459547,40.9652393 C50.0440922,40.9652393 51.0196549,40.8221419 51.9558519,40.5652381 C52.2702185,41.478114 52.447831,42.4549828 52.447831,43.4749486 Z" id="形状"></path>
                <path d="M40.367383,31.5961803 C40.4466743,31.0764026 40.5017118,30.5480427 40.5017118,30.0069963 C40.5017118,29.4659498 40.4466743,28.93759 40.367383,28.4172525 C40.3461143,28.2776999 40.3296963,28.1351621 40.3035768,27.9974751 C40.2330542,27.6385188 40.1470465,27.2855326 40.0418223,26.9400091 C39.9731653,26.7135159 39.888277,26.4952316 39.804135,26.2754548 C39.7250302,26.0678049 39.6408882,25.8629536 39.548164,25.6620201 C39.4584249,25.4653777 39.3684993,25.2683622 39.2670064,25.0786228 C39.0940581,24.75698 38.9095426,24.4433596 38.7067435,24.1424258 C37.9502113,23.0235791 36.9843501,22.0571581 35.8645705,21.3008125 C35.5653158,21.0980134 35.2522551,20.913871 34.9313586,20.7414824 C34.7410595,20.6396164 34.5431111,20.5487579 34.3449762,20.4588323 C34.1449756,20.3676006 33.9421764,20.2834586 33.7352728,20.2052867 C33.5149363,20.1211447 33.2947864,20.0351369 33.0668006,19.9661069 C32.7218368,19.8605095 32.3682909,19.7739421 32.0089615,19.704912 C31.8707148,19.6782328 31.7296696,19.6623746 31.5895572,19.6405461 C31.0708989,19.5614414 30.5423524,19.5067771 30.0003731,19.5067771 C29.4583938,19.5067771 28.9309668,19.5612549 28.4102563,19.6405461 C28.2710767,19.6623746 28.1281658,19.6782328 27.9910385,19.704912 C27.6317091,19.7754346 27.279096,19.8614424 26.9331994,19.9661069 C26.7061465,20.0351369 26.4848771,20.1211447 26.2647272,20.2052867 C26.0580101,20.284578 25.8550244,20.3676006 25.6550238,20.4588323 C25.4580083,20.5485714 25.2598733,20.6394298 25.0686414,20.7414824 C24.7479314,20.9129382 24.4358036,21.0980134 24.1354295,21.3008125 C23.0167693,22.0571581 22.0507216,23.0228328 21.2941893,24.1424258 C21.0913902,24.4433596 20.9057553,24.7567934 20.7339264,25.0786228 C20.6315007,25.2685487 20.5417616,25.4655643 20.451836,25.6620201 C20.3600447,25.8629536 20.2760892,26.0678049 20.1967979,26.2754548 C20.1128424,26.4952316 20.0277675,26.7137025 19.9581777,26.9400091 C19.8529535,27.2855326 19.7658264,27.6385188 19.697356,27.9974751 C19.6701171,28.136095 19.6548186,28.2775133 19.632617,28.4172525 C19.5535123,28.9366571 19.4994076,29.465017 19.4994076,30.0069963 C19.4994076,30.548789 19.5535123,31.076216 19.632617,31.5961803 C19.6548186,31.7362927 19.6703037,31.8784573 19.697356,32.0153981 C19.7669458,32.3749141 19.8538864,32.72846 19.9581777,33.0743566 C20.0277675,33.3002901 20.1128424,33.5187609 20.1967979,33.7389109 C20.2760892,33.9454414 20.3600447,34.1504793 20.451836,34.3514128 C20.5415751,34.5484283 20.6315007,34.7454439 20.7339264,34.9348101 C20.9059419,35.2573858 21.0913902,35.5704464 21.2941893,35.8710071 C22.0507216,36.9907867 23.0158365,37.9568344 24.1354295,38.7131801 C24.4358036,38.9161658 24.7479314,39.1004947 25.0686414,39.2725102 C25.2598733,39.374003 25.4580083,39.4656078 25.6550238,39.5546006 C25.8550244,39.6463919 26.058943,39.7303474 26.2647272,39.8087059 C26.4850637,39.8926614 26.7061465,39.9786691 26.9331994,40.0471395 C27.279096,40.1534831 27.6317091,40.2394908 27.9910385,40.3090806 C28.1290987,40.3352 28.2710767,40.351618 28.4102563,40.3738196 C28.930034,40.4531109 29.4583938,40.5070289 30.0003731,40.5070289 C30.5421659,40.5070289 31.0697794,40.4531109 31.5895572,40.3738196 C31.7296696,40.351618 31.8716476,40.3352 32.0089615,40.3090806 C32.3682909,40.2383714 32.7218368,40.1523637 33.0668006,40.0471395 C33.2947864,39.9786691 33.5149363,39.8926614 33.7352728,39.8087059 C33.9419899,39.7294146 34.144789,39.6463919 34.3449762,39.5546006 C34.5431111,39.4656078 34.7410595,39.374003 34.9313586,39.2725102 C35.2522551,39.1004947 35.5651292,38.9161658 35.8645705,38.7131801 C36.9834172,37.9566479 37.9503979,36.9907867 38.7067435,35.8710071 C38.9095426,35.570633 39.0940581,35.2575723 39.2670064,34.9348101 C39.3684993,34.7454439 39.4582384,34.5484283 39.548164,34.3514128 C39.6408882,34.1504793 39.7250302,33.9454414 39.804135,33.7389109 C39.888277,33.5185744 39.9731653,33.2993573 40.0418223,33.0743566 C40.1479793,32.72846 40.233987,32.3749141 40.3035768,32.0153981 C40.3295097,31.8764051 40.3459277,31.7355464 40.367383,31.5961803 Z" id="路径"></path>
            </g>
        </g>
    </g>
</svg>
