<?xml version="1.0" encoding="UTF-8"?>
<svg width="52px" height="61px" viewBox="0 0 52 61" version="1.1" xmlns="http://www.w3.org/2000/svg" xmlns:xlink="http://www.w3.org/1999/xlink">
    <title>grass-leaf-plant-20-svgrepo-com</title>
    <defs>
        <rect id="path-1" x="0" y="0" width="50.8729579" height="60"></rect>
    </defs>
    <g id="页面-1" stroke="none" stroke-width="1" fill="none" fill-rule="evenodd">
        <g id="形状库素材-植物" transform="translate(-575.000000, -238.000000)">
            <g id="grass-leaf-plant-20-svgrepo-com" transform="translate(575.353784, 238.857873)">
                <mask id="mask-2" fill="white">
                    <use xlink:href="#path-1"></use>
                </mask>
                <g id="SVGID_33_"></g>
                <g id="编组" mask="url(#mask-2)" fill="#545458" fill-rule="nonzero">
                    <g transform="translate(0.746997, 7.636555)">
                        <path d="M32.0314464,19.424555 C32.0945729,19.2562177 32.1568226,19.0887571 32.2322237,18.8862261 C32.141041,18.6056639 32.234854,18.3268551 32.3935471,18.0480463 C32.502265,17.85779 32.5688985,17.6429845 32.6758629,17.431686 C32.6977818,17.4246719 32.6942748,17.4220417 32.6942748,17.4220417 C32.7012888,17.4509747 32.7091796,17.4799076 32.7047959,17.464126 C33.364994,16.9862934 34.0339597,16.5014466 34.7537774,15.9797761 C34.773066,16.1261946 34.7800801,16.1788 34.7914779,16.2673525 C35.448169,15.7062279 36.0829412,15.164392 36.7326183,14.6094047 C36.8264313,13.7773621 36.9228746,12.9269077 37.0193179,12.07733 C37.0342228,12.0782067 37.0491276,12.0790835 37.0640325,12.0790835 C37.0324692,12.7953941 37.0017827,13.5125815 36.9675892,14.2990326 C37.3428413,13.9684952 37.6663647,13.6835491 37.9907648,13.398603 C38.0030394,13.4100009 38.015314,13.4222755 38.0275886,13.4336733 C37.7856036,13.6844259 37.5541398,13.9456995 37.2998802,14.1824239 C37.0736768,14.3937224 36.9632054,14.6357074 36.9535611,14.9443259 C36.9246281,15.897361 36.8842973,16.850396 36.8965719,17.8200894 C36.9307654,17.7666072 36.9693427,17.7157553 36.997399,17.6587661 C37.5436187,16.540024 38.2090774,15.4958062 38.9218809,14.4770143 C39.0621621,14.2771137 39.0718064,13.9772628 39.1121372,13.7186194 C39.3926995,11.8879504 39.658357,10.055528 39.9424263,8.22573575 C40.1958091,6.59759769 40.4491919,4.96858287 40.737645,3.34570535 C40.9375457,2.22257942 41.196189,1.11085133 41.4732443,0 C41.3268258,3.42636701 41.1909285,6.85010375 40.8200602,10.2703335 C43.1390829,7.45418944 45.7623404,5.00979046 48.9870532,3.26855072 C49.0212467,3.30274425 49.0554403,3.33693778 49.0887571,3.37113131 C49.0133559,3.39743402 48.933571,3.41496917 48.865184,3.45266973 C48.8003039,3.48774001 48.7468218,3.54385247 48.6889558,3.59207412 C47.1072859,4.89931905 45.601017,6.28371862 44.3113072,7.88555396 C43.3091738,9.13054914 42.4280328,10.4579595 41.6485957,11.8546337 C41.279481,12.5165853 40.8691586,13.1566181 40.4763714,13.8054184 C40.4377941,13.8694216 40.3939562,13.9343017 40.3378438,13.9816465 C39.9415495,14.3174445 39.7398954,14.7312739 39.71973,15.2608353 C39.7004413,15.7500658 39.6110121,16.2357892 39.5794488,16.7416781 C41.925651,13.6195458 44.9373119,11.3969664 48.5723471,10.0037993 C48.3926119,10.1247918 48.2163837,10.2510448 48.0331414,10.3667767 C46.6127948,11.2689599 45.2178742,12.203583 43.9702487,13.3442441 C42.2447906,14.922407 40.8507467,16.7495689 39.759184,18.8143321 C39.5049245,19.2956717 39.2147178,19.7594763 38.9218809,20.2197738 C38.7956279,20.4187977 38.7298711,20.612561 38.7403922,20.8501622 C38.8140398,22.4888213 38.8789198,24.1283572 38.9499372,25.7670164 C38.9525674,25.8327732 38.9964053,25.8958997 39.0078031,25.9257094 C38.9709793,26.1562966 38.9367858,26.3684718 38.9025923,26.5859076 C39.4961569,26.4026653 40.0520209,26.2299442 40.607885,26.0580998 C40.6140223,26.0773884 40.6192828,26.0958003 40.6254201,26.115089 C40.0642955,26.3386621 39.5031709,26.5631119 38.9455534,26.7849315 C38.9911448,27.8975363 39.0341059,28.956659 39.080574,30.0824152 C39.3102844,29.8114972 39.5075547,29.5712657 39.7118391,29.3371716 C40.5921033,28.3280241 41.4627232,27.3109858 42.3622761,26.3193734 C42.5981237,26.0598533 42.7278838,25.7968261 42.7839963,25.4566444 C43.2714732,22.4905749 43.7545664,19.5236286 44.2779905,16.5636964 C44.4761376,15.4405705 44.7768653,14.3358564 45.0477833,13.2285121 C44.3867084,17.3142005 43.7265102,21.3990122 43.0654353,25.4847006 C43.0943683,25.4987287 43.1233013,25.5118801 43.153111,25.5259082 C43.5309934,25.2225502 43.9097525,24.920069 44.2876348,24.616711 C44.2999094,24.6307391 44.312184,24.6447672 44.3244586,24.6587953 C44.0123331,24.9516322 43.7124821,25.2584972 43.3845749,25.5320455 C43.1013824,25.7678932 42.9760061,26.0563463 42.9295379,26.4114329 C42.6507292,28.5559809 42.3605225,30.6996522 42.0790835,32.8433235 C41.9379256,33.9155975 41.7985212,34.9878715 41.6757752,36.0618991 C41.5837157,36.8702692 41.5214659,37.6830231 41.4434346,38.4931467 C41.3969664,38.9701026 41.3452377,39.4461817 41.318935,39.9240144 C41.7134758,38.2134611 42.1080165,36.5029079 42.503434,34.7923547 C42.5420113,34.8002455 42.5805886,34.8081363 42.6191659,34.8160271 C42.2141041,37.1867785 41.809919,39.5566531 41.4013502,41.9484467 C41.9957916,41.2391501 42.5691908,40.5552795 43.1653856,39.8433527 C42.7077184,42.694567 42.6209194,45.5212321 42.8409855,48.3277318 C43.3161879,44.8996113 43.9237806,41.4653535 44.954847,38.1187714 C44.0316217,41.7625742 43.1452202,45.409884 43.3223252,49.2167636 C44.0026887,45.6308268 45.0661952,42.1728965 46.6934565,38.8973317 C46.2524476,40.1396966 45.7789987,41.3724172 45.3791975,42.6279335 C44.9706286,43.9106292 44.6076512,45.2091066 44.2727299,46.5119677 C43.9395622,47.8051846 43.7010843,49.1194436 43.7098518,50.4670193 C44.9855335,46.9547301 46.9363182,43.8562703 49.3780869,41.0524009 C46.9906771,44.247304 44.8242102,47.5570623 43.8255838,51.5401701 C42.6077681,51.5401701 41.3496215,51.5401701 40.0905982,51.5401701 C40.0792004,51.5524447 40.0678026,51.565596 40.0564047,51.5778706 C40.0941053,51.5857615 40.1318058,51.5936523 40.1686296,51.6024198 C40.1624923,51.6138177 40.1572318,51.6243388 40.1510945,51.6357366 C39.2331297,51.6646696 38.315165,51.6839583 37.398077,51.7260426 C36.7992518,51.7532221 36.203057,51.8137183 35.6051086,51.8593097 C34.8265482,51.9180524 34.0471111,51.9803022 33.267674,52.0337844 C32.0498583,52.1179531 30.8329193,52.1994915 29.6151036,52.2783996 C29.1346407,52.3090861 28.6524242,52.3467867 28.1710845,52.3520472 C27.1654441,52.3625683 26.1580501,52.3774732 25.1532864,52.3476634 C23.9871993,52.3134699 22.8228658,52.2293012 21.6567788,52.1749423 C20.9615104,52.1425023 20.2636117,52.1460093 19.5700967,52.0951574 C18.2786334,52.0013444 16.9889236,51.8856124 15.7000906,51.7663734 C15.3853348,51.7374405 15.0749627,51.6567788 14.745302,51.5971593 C15.0013151,51.5971593 15.2476839,51.5971593 15.4940527,51.5971593 C15.4940527,51.5787474 15.4931759,51.5594587 15.4931759,51.5410468 C14.6094047,51.5410468 13.7265102,51.5410468 12.813806,51.5410468 C11.8888272,45.4432007 10.1844113,39.607505 7.33758073,34.1286495 C8.99815881,36.7615513 10.0642955,39.6767689 11.3846918,42.4692404 C11.4066107,42.4613496 11.4285297,42.452582 11.4504486,42.4446912 C11.131309,40.9936581 10.8121694,39.5435018 10.4930298,38.0924687 C10.5079347,38.0880849 10.5237163,38.0837011 10.5386212,38.0801941 C10.6920537,38.6106321 10.8595143,39.13844 10.9954116,39.6732618 C11.2268755,40.5833358 11.4083643,41.5074378 11.6678844,42.4087442 C11.9633516,43.4327966 12.3210685,44.4393138 12.6524827,45.4537218 C12.7305141,45.6921998 12.813806,45.9280475 12.9023585,46.1893211 C12.8216968,44.4191484 12.8252038,42.6700178 12.4332934,40.9550808 C12.8857001,42.4701172 13.0215975,44.0605547 13.5914896,45.5484116 C13.5625566,44.8233334 13.5231026,44.0982553 13.5090744,43.3731771 C13.4950463,42.6454686 13.5055674,41.9168834 13.546775,41.1865447 C13.7414151,42.1807873 13.7212497,43.1934419 13.828214,44.1938218 C13.9351784,45.193325 14.0509104,46.1910746 14.1622585,47.1905778 C14.1868077,47.189701 14.2122337,47.1879475 14.2367829,47.1870708 C14.2025894,46.0639448 14.1806704,44.9408189 14.131572,43.8185697 C14.0772131,42.5770816 14.0000585,41.3320864 13.6914399,40.123915 C13.0487769,37.6032382 12.2184879,35.1439343 11.1321858,32.7784435 C9.99503171,30.303358 8.67025163,27.9334834 7.07280007,25.7223018 C6.62828419,25.1068182 6.16009586,24.5088699 5.68313996,23.8758512 C3.64467955,24.555338 1.76578894,25.4978519 0,26.7858082 C0.539205658,26.0817722 2.84595377,24.4124266 5.09132887,23.5286553 C4.65558056,22.9815589 4.22596955,22.44323 3.79723529,21.9040243 C3.81214016,21.890873 3.82704504,21.8768448 3.84194991,21.8636935 C4.31364526,22.3976386 4.78534062,22.9324605 5.26317328,23.4734196 C6.84571996,22.8325102 8.46333694,22.50811 10.1949323,22.7159015 C8.90522255,20.9694012 7.49627378,19.3403864 6.06540608,17.7140018 C6.0917088,17.7280299 6.1223953,17.738551 6.14519099,17.7578397 C7.7312447,19.1361019 9.32518923,20.5082269 10.7350148,22.0723617 C11.189175,22.5756203 11.6293071,23.0481924 12.268463,23.3375223 C12.8515066,23.6023029 13.2749803,24.093287 13.6388345,24.6193413 C13.8729287,24.9577695 14.099132,25.3014583 14.3288424,25.6425169 C14.3533916,25.6355028 14.3779408,25.6284888 14.4016132,25.6214747 C14.3297191,25.1541631 14.2578251,24.6859748 14.2122337,24.3905076 C13.8580238,24.0240231 13.5862291,23.7978198 13.3828214,23.5216413 C12.6638805,22.5431803 12.1194143,21.4603852 11.6021276,20.3679458 C10.3878189,17.803431 8.77896952,15.5273694 6.73174153,13.5608031 C6.34596838,13.1899348 6.01017038,12.7673379 5.82342111,12.5595464 C9.29274922,14.9101324 12.1343192,18.139229 14.1008855,22.1731888 C14.0570477,21.7505918 14.0149633,21.3279949 13.9684952,20.9053979 C13.9211503,20.4792939 13.8694216,20.0549434 13.8168162,19.6121811 C13.3030365,19.3053161 13.2916387,18.7450682 13.2127305,18.2400561 C13.1671391,17.9489727 13.062805,17.7122483 12.8997282,17.4869217 C11.9694889,16.2033492 11.037496,14.9215302 10.1151474,13.6300669 C11.2593155,14.7645907 12.257942,16.0244908 13.2188678,17.3308589 C13.3249554,17.0108426 13.424029,16.7109916 13.5266096,16.3988661 C14.1692726,17.0625712 14.4007365,19.0221235 13.9001081,19.6235789 C13.9483298,20.0356548 14.0000585,20.4696496 14.0500336,20.9045211 C14.1499839,21.7768945 14.2569483,22.6483912 14.341117,23.522518 C14.3630359,23.7469679 14.3104305,23.977555 14.2587018,24.1993746 C14.3209516,24.5676126 14.3761873,24.9376041 14.4472046,25.3040886 C14.5454014,25.8073472 14.6576263,26.3070988 14.7584534,26.8094807 C14.7838794,26.9348569 14.8119356,27.0654938 14.8005377,27.19087 C14.7637139,27.6090832 14.8855832,27.9878423 15.0407692,28.3674782 C15.9455826,30.5804132 16.8907268,32.7793202 17.6219423,35.0702867 C17.6675337,34.3408247 17.7192624,33.6122395 17.7587164,32.8827776 C17.8718181,30.7846977 17.9752754,28.685741 18.0927609,26.5876611 C18.1269544,25.9783149 18.2119999,25.3715989 18.2461934,24.7622527 C18.2558377,24.5956688 18.1839437,24.4133033 18.1120496,24.255487 C18.0348949,24.0853961 17.9147792,23.9354707 17.8130754,23.7767776 C17.8314873,23.7618728 17.8498992,23.7478446 17.8674343,23.7329398 C18.0313879,23.9144285 18.1944647,24.0950405 18.40664,24.3291346 C18.4478476,23.887249 18.4960692,23.5023526 18.5162346,23.1157027 C18.5767309,21.95926 18.6319666,20.8028173 18.6731742,19.6454979 C18.6784347,19.4982026 18.6100476,19.3403864 18.5495514,19.1992285 C18.3628021,18.7643569 18.3145805,18.312827 18.3610486,17.8481457 C18.3882281,17.5824882 18.4311892,17.3194611 18.4723968,17.009089 C17.2414297,15.3327293 15.6150452,14.0149633 14.0605547,12.6182892 C14.8733086,13.0496537 15.6273198,13.5730777 16.3523979,14.1324488 C17.0792296,14.6926966 17.7718678,15.2976591 18.5030833,15.9026215 C18.4496011,13.759827 18.3961189,11.6038811 18.3417599,9.44793524 C18.3671859,9.44705848 18.3934886,9.44618172 18.4189146,9.44530497 C18.4960692,11.6889266 18.5741006,13.9316714 18.6503785,16.1568811 C19.1615279,16.7399246 19.6586492,17.3071865 20.1776895,17.8989976 C20.2057457,17.4816612 20.2311716,17.0985183 20.2574744,16.7162522 C20.2995587,16.7066078 20.3407663,16.6960867 20.3828506,16.6864424 C20.5669696,17.0266242 20.7922962,17.3510243 20.9246866,17.709618 C21.1079288,18.2076161 21.219277,18.7327936 21.3674489,19.2439431 C21.4016425,19.363182 21.4253149,19.5253821 21.5112371,19.5832481 C22.0714849,19.9637607 22.3432797,20.5529415 22.6475144,21.1140661 C22.9727913,21.7155215 23.2559839,22.3388959 23.5637256,22.9491189 C23.6303592,23.0815092 23.725049,23.2007482 23.8197387,23.3454131 C23.8434112,23.3015752 23.8662069,23.2787796 23.8670836,23.2551071 C23.9354707,21.0377882 24.3554374,18.8757051 24.8893825,16.7320338 C25.0778853,15.9753923 25.2839232,15.2222579 25.5162638,14.4778911 C25.6319958,14.1061461 25.6197212,13.7738551 25.4601514,13.4257825 C25.1962475,12.8523833 24.949002,12.2719701 24.6938656,11.6941871 C24.652658,11.6012508 24.613204,11.5074378 24.5728731,11.4145016 C24.5930385,11.405734 24.6123272,11.3969664 24.6324926,11.3881988 C24.9568928,12.0755765 25.2821697,12.7629541 25.6065698,13.4503317 C25.6355028,13.4503317 25.6644358,13.4512085 25.692492,13.4512085 C25.7459742,13.0636818 25.8687202,12.6708946 25.8415408,12.2895052 C25.6056931,8.98237718 25.4969752,5.67261887 25.5425666,2.35760002 C25.5434433,2.31551568 25.5478271,2.27255458 25.5513341,2.23047023 C25.5723763,2.22696321 25.5942952,2.22345618 25.6153374,2.22082591 C25.7266856,2.92486191 25.8476781,3.62802116 25.9467516,4.33468744 C26.0475787,5.05538183 26.1247333,5.77958325 26.2185463,6.50203115 C26.3114826,7.22447906 26.418447,7.94429669 26.5078762,8.6667446 C26.5964287,9.38919251 26.6700763,10.1133939 26.7700266,10.8437326 C27.1803489,9.09372534 27.4205804,7.29988018 28.0422012,5.59809451 C27.952772,6.40208084 27.8519449,7.20606716 27.7774206,8.011807 C27.6687027,9.18578484 27.5669989,10.3597627 27.4863372,11.5354941 C27.3863869,12.9900342 27.3600842,14.4507116 27.2048982,15.8982377 C27.1207295,16.6890727 27.2276938,17.428179 27.4100593,18.1751761 C27.559108,18.7853991 27.732706,19.3894848 27.9019201,20.0172429 C28.7699097,18.3461437 29.8071134,16.7995441 31.2686676,15.5720841 C29.8097437,17.2335389 28.7821843,19.1361019 28.0544758,21.2236608 C28.6006956,22.41079 29.3257737,23.4646521 30.490984,24.2055119 C30.8828945,22.5764971 31.3379314,20.9711547 32.0279393,19.446474 C31.7412397,20.4021393 31.411579,21.3393927 31.1248794,22.2897975 C30.9179648,22.9727913 30.7680393,23.6733203 30.6181138,24.2677616 C31.1090978,24.9691674 31.5430926,25.5864044 31.9709501,26.1975042 C32.1778648,25.5522109 32.4216033,24.8893825 32.8678727,24.3221206 C32.5838034,25.0507058 32.3006108,25.779291 32.0331999,26.4640383 C32.4864833,27.5643686 32.9152176,28.6024491 33.3509659,29.6615717 C33.8717597,28.6682059 34.3609902,27.6932519 34.8914282,26.7410936 C35.2167051,26.1580501 35.4192361,25.5522109 35.4578134,24.8885057 C35.4630739,24.7929392 35.4849928,24.6973727 35.4998977,24.6026829 C35.5656545,24.1800859 35.6524535,23.7583657 35.6927843,23.3331385 C35.7392524,22.8465383 35.7638016,22.356431 35.7638016,21.8672005 C35.7638016,21.2736359 36.0005261,20.6897156 35.8251746,20.0873835 C35.7944881,19.9821726 35.8313119,19.8524125 35.8549844,19.7375574 C36.0101704,18.9975743 36.1890288,18.2628518 36.3240494,17.5193617 C36.4853728,16.6276997 36.610749,15.7290236 36.7641815,14.7593302 C36.080311,15.3958559 35.4543063,15.9780226 34.8291785,16.5619429 C34.7993687,16.5899991 34.773066,16.6268229 34.7564076,16.6645235 C34.4600637,17.3545314 33.9918754,17.9139024 33.4535465,18.4268054 C33.1265161,18.7389309 32.7863343,18.9940673 32.3146389,18.9633808 C32.2146886,19.1264576 32.1235059,19.2755063 32.0314464,19.424555 Z M25.5347089,39.1691265 C25.5858496,39.0665459 25.6698663,38.9639653 25.680825,38.8613847 C25.7319656,38.3195488 25.7758004,37.7777128 25.8050236,37.2367537 C25.8232881,36.9298887 25.8086765,36.6221469 25.8086765,36.3152819 C25.6954366,36.3161586 25.5821967,36.3161586 25.4689567,36.3170354 C25.4689567,36.6966712 25.4835683,37.0763071 25.4616509,37.455943 C25.4543451,37.6242803 25.3630226,37.7926177 25.3411052,37.9609551 C25.3228407,38.098606 25.348411,38.2371336 25.3520639,38.3747845 C25.3593697,38.6500862 25.3630226,38.925388 25.3337994,39.2594324 C25.3264936,39.965222 24.3146403,40.6604904 24.910063,41.3741707 C25.0525261,41.3391004 25.1475015,41.3013999 25.1548073,41.2619458 C25.2790059,40.6675045 25.3995516,40.0721863 25.494527,39.4768682 C25.5091386,39.383932 25.4032045,39.2883654 25.5347089,39.1691265 Z M36.950875,41.3391004 C36.8578216,41.4548324 36.7647681,41.5696876 36.6534363,41.7099687 C36.7082714,41.7844931 36.7763998,41.8765526 36.8461899,41.9686121 C36.8744383,41.9668586 36.9043483,41.9659818 36.9325967,41.9642283 C37.0206651,41.709092 37.1070719,41.4539556 37.2051104,41.1690096 C37.0671918,41.2295058 36.9841084,41.2663296 36.9126566,41.2470409 C37.0156801,40.9568343 37.1170419,40.6675045 37.2167421,40.3851886 C36.960845,40.2475378 36.7431664,40.1318058 36.5786612,40.0432534 C36.429111,40.43078 36.2795608,40.8191834 36.1250256,41.2207382 C36.2380191,41.3312096 36.3643059,41.4539556 36.4989011,41.5854692 C36.660083,41.4741211 36.7896931,41.3838151 36.950875,41.3391004 Z M27.7453149,34.4793524 C28.1471867,33.7761931 28.2070931,33.0467312 28.0985128,32.3041178 C28.0573272,32.2979805 28.0173896,32.2909665 27.976204,32.2848292 C27.77402,32.899436 27.5730841,33.5149195 27.3122418,34.1575825 C27.0776086,34.7230909 26.8417273,35.2877225 27.3896209,35.8795336 C27.5331465,35.4034544 27.7927407,34.9677061 27.7453149,34.4793524 Z M36.0597631,38.75179 C36.1217283,39.3593828 36.4189677,39.8503668 36.9698771,40.2247421 C36.838201,39.4979104 36.7074932,38.7702019 36.5738807,38.0319724 C36.444141,38.1792676 36.317306,38.3248093 36.1885346,38.4212526 C36.3085922,38.1477044 36.5138519,37.8785399 36.5293432,37.5997311 C36.5593576,37.0806909 36.4789965,36.5563901 36.444141,36.0338428 C36.4199359,36.0303358 36.3957307,36.0277055 36.3724938,36.0241985 C36.218549,36.5975977 36.0336216,37.1666131 35.9213096,37.7470263 C35.8603126,38.0600286 35.8322347,38.4037175 36.0597631,38.75179 Z M32.2708011,39.2287459 C32.1384107,38.9411696 32.0060204,38.6535932 31.8745068,38.3651401 C31.8517111,38.3686472 31.8289155,38.3721542 31.8061198,38.3747845 C31.8841512,39.1296724 31.9613058,39.8845603 32.0410907,40.6587369 C32.2620335,40.9682322 32.4891136,41.2856183 32.7153169,41.6030044 C32.5838034,40.9980419 32.8222813,40.3711605 32.6022153,39.8056522 C32.6434229,39.8608879 32.6846304,39.9170003 32.725838,39.972236 C32.751264,39.9608382 32.7758132,39.9494403 32.8012392,39.9380425 C32.6986586,39.6557267 32.5952012,39.3725341 32.5355817,39.0989859 C32.5934477,39.1822778 32.6504369,39.264693 32.7083029,39.3479849 C32.6960283,38.0907151 33.0537452,36.8737762 33.0072771,35.6331648 C32.9774673,35.625274 32.9485344,35.6165064 32.9187246,35.6086156 C32.7591548,35.8488471 32.5987082,36.0890785 32.4259871,36.2863489 C32.660958,35.8462168 32.8959289,35.4052079 33.1308998,34.9641991 C32.9695765,34.6134962 32.8082532,34.2627933 32.6478066,33.9129672 C32.1173686,35.1193851 31.8262852,36.5020312 31.9481544,37.2069439 C32.1112313,36.9184908 32.2804454,36.6186399 32.4400152,36.3696408 C32.321653,36.6431891 32.2120583,36.9202443 32.083175,37.188532 C31.8999328,37.5707981 31.7429932,37.9478037 32.0498583,38.3826753 C32.1401642,38.6676214 32.2295935,38.9525674 32.2708011,39.2287459 Z M25.9441213,37.1376801 C25.8897624,38.6115089 25.8345267,40.0844609 25.7801678,41.5582897 C25.7880586,41.5565362 25.7968261,41.5547827 25.804717,41.553906 C25.9090511,40.983137 26.0133852,40.4123681 26.1168425,39.8415992 C26.1484058,39.845983 26.1790923,39.8503668 26.2106555,39.8556273 C26.2106555,40.1598621 26.2106555,40.4640968 26.2106555,40.7683315 C26.3395388,40.091475 26.5815238,39.4426747 26.5894146,38.744776 C26.5937984,38.3870591 26.728819,38.0293421 26.6051962,37.6611041 C26.6165941,37.4261332 26.6236081,37.192039 26.6411433,36.9570681 C26.6841044,36.3827922 26.7086536,35.8067627 26.7875617,35.2377473 C26.8305228,34.9256218 26.855072,34.6275243 26.8086039,34.336441 C26.8506883,34.3925534 26.8918958,34.4495426 26.9567759,34.5380951 C27.3293977,33.0169214 27.681854,31.5325715 28.0614899,30.0552357 C28.2175527,29.4485197 28.4341117,28.8567087 28.6226145,28.2578835 C28.6462869,28.2657743 28.6699594,28.2727884 28.6936318,28.2806792 C28.505129,29.0443347 28.2841862,29.8009761 28.136891,30.5725224 C27.9895958,31.3388082 27.8387936,32.1138615 27.956279,32.90645 C28.8830114,30.151679 29.7246982,27.3741123 30.4567905,24.551831 C29.5011252,23.8951398 28.656808,23.1648011 27.9808282,22.1766958 C27.9299763,22.4046527 27.8984131,22.5572084 27.862466,22.7088874 C27.616974,23.7373236 27.3872636,24.76839 26.8454277,25.6995061 C26.7156677,25.9230792 26.6341292,26.1948739 26.6016892,26.4526405 C26.5262881,27.0576029 26.4850805,27.6678259 26.44738,28.2771722 C26.360581,29.6773534 26.2878102,31.0792881 26.2027647,32.4794693 C26.172955,32.9634392 26.1247333,33.4447789 26.508753,33.8331823 C26.5219043,33.8463337 26.5201508,33.8735132 26.47982,33.8892948 C26.3789929,33.7726861 26.2781658,33.6560774 26.1212263,33.4745887 C26.0659906,34.5372183 26.0116316,35.5200631 25.9660403,36.5029079 C25.9572727,36.7019318 25.9783149,36.9018324 25.9441213,37.1376801 Z M28.3666014,38.5159424 C28.3806295,38.4370342 28.414823,38.3554958 28.4060555,38.2792179 C28.3674782,37.9337756 28.317503,37.58921 28.2719116,37.2446445 C28.2771722,37.2446445 28.2824327,37.2437677 28.2868165,37.2437677 C28.4665517,37.8285647 28.6462869,38.412485 28.8435573,39.0542713 C29.1539293,38.3879358 29.0890493,37.7549171 29.0557325,37.1280358 C29.0232925,36.5230733 28.7874448,35.9926352 28.4332349,35.5086653 C28.3402987,35.3824123 28.2675278,35.2412543 28.2298273,35.112371 C28.6646988,35.6191367 29.0592396,36.1504515 29.2591402,36.8097729 C29.3669813,35.719087 29.725575,34.7195838 30.2314639,33.7726861 C30.3734986,33.5079054 30.5856738,33.2799486 30.765409,33.083555 C30.2919601,33.8805272 29.9921092,34.7415028 29.7764269,35.6410556 C29.6177339,36.3021305 29.4932344,36.9614519 29.454657,37.643569 C29.4292311,38.0950989 29.3143759,38.5404916 29.2398515,38.9893912 C29.3161294,38.986761 29.3354181,38.9771166 29.3433089,38.9604583 C29.7264518,38.2257357 30.1113482,37.4910132 30.4901073,36.7527837 C30.5330684,36.6694918 30.5541105,36.5704182 30.5628781,36.4757284 C30.6707192,35.325423 30.7750533,34.1742409 30.8767572,33.0239355 C30.8802642,32.9888652 30.8460707,32.9494111 30.855715,32.87401 C30.9284858,32.5864336 31.0336967,32.3023643 31.0696437,32.0095274 C31.2923401,30.2060379 31.4799661,28.3972879 31.9200982,26.6113335 C31.6193705,26.1212263 31.3203963,25.6337493 31.0065172,25.1225999 C29.8939124,26.7779174 29.4309846,28.6085864 28.9557822,30.4453926 C29.4415057,30.1560628 29.9044335,29.880761 30.3664845,29.606336 C30.3840196,29.6335155 30.400678,29.660695 30.4182132,29.6887512 C30.3375515,29.7492475 30.2533828,29.8044832 30.1779817,29.8702399 C29.8150042,30.1858725 29.4371219,30.487477 29.1013239,30.8294123 C28.9452611,30.9881053 28.8286524,31.2151854 28.7672794,31.4317445 C28.5261712,32.2944735 28.3236403,33.1677236 28.0877926,34.0322062 C27.9834585,34.4162259 27.9290996,34.7792033 28.1491656,35.1150013 C28.0842856,35.0562586 28.0202823,34.9975159 27.9141947,34.9001958 C27.8519449,35.7629249 27.7818044,36.5677879 27.7458573,37.3744045 C27.7388433,37.5322208 27.8484379,37.7031885 27.9282228,37.8557442 C28.0492153,38.0863314 28.1921267,38.3046439 28.2780489,38.5264635 C28.0904229,38.2660666 27.9036736,38.0065465 27.7160476,37.7461496 C27.6853611,37.7584242 27.6555513,37.7706988 27.6248648,37.7829734 C27.6590584,37.9653389 27.678347,38.1512114 27.7300757,38.3283163 C27.8291493,38.6632376 27.949265,38.9920215 28.0571061,39.3251892 C28.1474121,39.6057515 28.2315808,39.8889441 28.3297776,40.2072069 C28.472689,39.8985884 28.5963118,39.629424 28.7050297,39.3953298 C28.6682059,39.2173481 28.6655756,39.0691761 28.6050793,38.9508139 C28.5410761,38.8236841 28.4209603,38.7254873 28.3297776,38.6106321 C28.313996,38.5887132 28.3192565,38.5492591 28.3666014,38.5159424 Z M20.6143145,29.6703393 C20.5932724,29.7843177 20.5590788,29.8974194 20.5520648,30.0122746 C20.4985826,30.8653593 20.4433469,31.7193208 20.403016,32.5732823 C20.3846041,32.9704533 20.399509,33.368501 20.399509,33.8138937 C20.453868,33.6885174 20.4924453,33.5955811 20.5345296,33.5026449 C20.7721308,32.9800976 20.9729082,32.4356314 21.2596078,31.9420171 C21.4980857,31.5316948 21.6313528,31.1608265 21.4016425,30.7408598 C21.4402198,30.7846977 21.4787971,30.8294123 21.5664728,30.9293626 C21.6436274,29.6773534 21.7163983,28.4972382 21.7882924,27.3451793 C21.0886401,26.9445013 21.0807493,26.2860566 20.9834293,25.6609288 C20.8536692,26.2878102 20.760733,26.909431 20.6555221,27.5284215 C20.6011632,27.8493147 20.6265891,28.1553029 20.6835783,28.476196 C20.7335535,28.7541281 20.6590291,29.0531023 20.6388637,29.3433089 C20.6116843,29.3433089 20.5845048,29.3433089 20.5573253,29.3433089 C20.5915188,29.444136 20.6248356,29.5440863 20.6143145,29.6703393 Z M33.7244644,34.2329836 C33.6955315,34.3013707 33.6788731,34.3794021 33.6341585,34.4355145 C33.3535962,34.7870941 33.3641173,35.1255224 33.5833065,35.5191864 C33.949791,36.1785078 34.0742906,36.9167373 34.1768711,37.6575971 C34.2110647,37.9039659 34.2943566,38.1433206 34.3548529,38.3853055 C34.401321,38.0635357 34.3662507,37.7522869 34.4074583,37.4524359 C34.5293275,36.5642809 34.6836368,35.6787562 34.4889967,34.7835871 C34.3951837,34.3548529 34.2724377,33.9322559 34.1637198,33.4544232 C33.9164743,32.4952509 33.668352,31.5360786 33.4211065,30.5769062 C33.4000643,30.5751527 33.3781454,30.5733992 33.3571032,30.5716457 C33.0274425,31.2958471 32.6986586,32.0200485 32.3891633,32.7012888 C32.505772,32.9634392 32.5925709,33.1607096 32.6820002,33.3623637 C32.8520911,33.2106847 33.0186749,33.061636 33.209808,32.8906684 C33.0370868,33.1896426 32.8792705,33.4623141 32.7091796,33.7569045 C32.8906684,34.1005933 33.0668966,34.433761 33.2589064,34.7976152 C33.4386416,34.5643978 33.5850601,34.3732648 33.7244644,34.2329836 Z M19.0896338,19.4166642 C19.5850016,20.0251337 20.0794926,20.6327264 20.6011632,21.2736359 C20.6511383,20.9308239 20.6958529,20.6257124 20.7396908,20.3241079 C20.2136365,19.5753573 19.695473,18.8371277 19.1492533,18.0585674 C19.0808662,18.5364 19.023877,18.9370781 18.9125289,19.3430166 C18.868691,19.4000058 18.7880293,19.4561183 18.7853991,19.514861 C18.7187655,21.193851 18.659146,22.8737177 18.5968963,24.6246018 C18.8529094,25.017389 19.1553906,25.4838238 19.4552415,25.9441213 C19.8024374,24.4922115 20.1434959,23.0622205 20.489815,21.6129409 C20.3863577,21.4586317 20.2723792,21.2911711 20.1619078,21.1210802 C19.7901628,20.5494345 19.4184177,19.9777888 19.0896338,19.4166642 Z M33.0818014,29.7922086 C33.0844317,29.7211912 33.1054739,29.6440366 33.0853085,29.5791566 C32.9590554,29.1723412 32.8424467,28.7611421 32.6855072,28.3657246 C32.4899904,27.8738639 32.2576497,27.3960312 32.0410907,26.9120613 C32.0042669,26.9138148 31.9665663,26.916445 31.9297425,26.9181986 C31.6956484,28.4805798 31.4615542,30.0429611 31.22746,31.6053424 C31.252886,31.6114797 31.2791887,31.617617 31.3046147,31.6237543 C31.5992051,31.0827951 31.8096268,30.4883537 32.3102551,30.0631265 C31.2581465,31.5395856 31.1345238,33.245755 31.0547389,34.9677061 C31.1774849,34.7616682 31.3011076,34.5547535 31.4238536,34.3487156 C31.3379314,34.7029254 31.1573195,35.0211883 31.068767,35.3622468 C30.981968,35.6971681 30.9661864,36.0566385 30.9626794,36.4055879 C30.9582956,36.7527837 31.0082707,37.1008563 31.0336967,37.4480521 C31.0898092,37.2446445 31.1152351,37.0429903 31.1608265,36.8465967 C31.2809422,36.3275565 31.4142093,35.8120233 31.534325,35.2938598 C31.7315954,34.4425286 31.7824473,33.5605109 32.1033404,32.7337288 C32.2418681,32.3768887 32.3330508,32.0016366 32.4417687,31.6333986 C32.5487331,31.2712979 32.6513137,30.9074437 32.7565245,30.5900576 C32.7565245,30.6601981 32.7565245,30.7312155 32.7565245,30.8013561 C32.9266154,30.5769062 33.0590058,30.3401818 33.1764912,30.0964433 C33.2264664,29.9912324 33.2615367,29.8649794 33.0818014,29.7922086 Z M24.2791595,35.2535289 C24.4632785,34.888798 24.4659088,34.5056551 24.2993249,34.1488149 C24.1739486,33.881404 23.9617734,33.6569541 23.8013268,33.4053248 C23.6023029,33.0914458 23.3585645,32.7889645 23.2358185,32.4461525 C22.840401,31.3405617 22.4923284,30.2191893 22.1258439,29.1039542 C22.0890201,28.9917293 22.049566,28.8812579 22.0109887,28.7699097 C21.6900956,30.9468977 21.6015431,33.1151182 21.6287226,35.3394512 C21.8724611,34.7879709 22.0960341,34.2829588 22.3196072,33.7770699 C22.3450332,33.787591 22.3704591,33.798112 22.3958851,33.8077564 C22.3809802,33.8673759 22.3695824,33.9278721 22.3520472,33.9866148 C22.1486396,34.6599643 21.92682,35.3289301 21.7479615,36.0084169 C21.677821,36.2767046 21.7050004,36.5704182 21.6462577,36.8544875 C21.619955,36.9035859 21.5699798,36.9535611 21.5699798,37.0026595 C21.5726101,37.6733787 21.5726101,38.3405909 21.7725107,38.9981588 C21.9276968,39.5075547 22.0109887,40.0388696 22.1389952,40.6184061 C22.3757197,39.994155 22.8412777,39.4786217 22.5177543,38.7903674 C22.5098635,38.7728322 22.5168776,38.748283 22.5607154,38.7105825 C22.6133209,38.289739 22.6729404,37.8688956 22.7141479,37.4471754 C22.7395739,37.1859017 22.7702604,36.9176141 22.7386971,36.6589707 C22.656282,35.9794839 22.6141976,35.3035041 22.7649999,34.6248941 C22.7255458,35.5130491 22.7781512,36.3880527 23.118333,37.2437677 C23.1840898,37.2060672 23.2279276,37.181518 23.2384487,37.2016834 C23.3182336,37.6295409 23.3980185,38.0573984 23.490078,38.5510127 C23.7303095,38.0775638 23.9617734,37.6821463 24.1336178,37.2630564 C24.255487,36.9658357 24.3265044,36.6388053 24.3650817,36.3187889 C24.3957682,36.0697899 24.345793,35.8111465 24.3238741,35.5568869 C24.3151065,35.470088 24.28442,35.3850425 24.2791595,35.2535289 Z M13.0829705,36.8001286 C13.1925651,37.1131309 13.3021597,37.4252565 13.4117544,37.7382588 C13.4231522,37.7347517 13.4336733,37.7321215 13.4450712,37.7286144 C13.3144343,36.610749 13.1846743,35.4920069 13.0540375,34.3741415 C13.0803402,34.3697577 13.1066429,34.3662507 13.1329456,34.3618669 C13.7501827,37.0754303 13.9579741,39.8705322 14.6970804,42.5604232 C14.738288,42.3421106 14.7610837,42.1299354 14.7759885,41.9160067 C14.8242102,41.2119707 14.9189,40.5070579 14.9066254,39.8047754 C14.8417453,36.0540082 14.7505626,32.3041178 14.6646404,28.5542274 C14.6602566,28.35345 14.6216793,28.1535494 14.5988836,27.9536488 C14.5787182,27.9659234 14.557676,27.978198 14.5375106,27.9904726 C14.373557,27.8072303 14.2017126,27.6301254 14.0482801,27.4381156 C13.117164,26.2772891 12.1685127,25.1296139 11.2742204,23.9407312 C10.9778765,23.5470672 10.6447088,23.3839904 10.1844113,23.3287547 C9.0823275,23.1972411 8.0056697,23.3515504 6.93251892,23.5689862 C6.57655551,23.6408803 6.2267294,23.7417073 5.84270976,23.8372739 C8.16085571,26.2843031 11.3960897,31.6447964 13.0829705,36.8001286 Z M41.2207382,36.7887307 C41.6582401,33.329047 42.0948651,29.8693632 42.5306134,26.4263378 C41.1865447,27.584534 40.275594,29.1548061 39.1200281,30.5321916 C39.3628898,35.4166058 39.4575796,40.3106643 40.1151474,45.1661455 C40.1607388,44.8136891 40.1589853,44.4533419 40.2422772,44.1131601 C40.3238156,43.7782389 40.3448578,43.4678668 40.2308794,43.1425899 C40.1081334,42.7936406 40.0002923,42.4403074 39.8863138,42.0887278 C39.8959581,42.0852208 39.9056025,42.0817138 39.9152468,42.0782067 C40.0134436,42.2842447 40.1125172,42.4902826 40.210714,42.6963205 C40.3422275,38.4256364 40.5666774,34.1742409 40.9489435,29.9324897 C40.8253207,34.0023965 40.701698,38.0714265 40.5780752,42.1413333 C40.614899,42.1439635 40.6517228,42.145717 40.6885466,42.1483473 C40.8630213,40.3808049 41.0366192,38.6132624 41.2207382,36.7887307 Z M19.1308414,26.8103574 C19.1922144,26.0624836 18.8055645,25.4829471 18.4224216,24.8955198 C18.3058129,25.9695473 18.2084929,27.035684 18.1444896,28.104451 C18.0313879,29.9973697 17.9253003,31.8911652 17.8420084,33.7858374 C17.803431,34.6713622 17.6315866,35.5507496 17.9437122,36.4450419 C18.1742993,37.1034866 18.2321653,37.8233042 18.3759535,38.564164 C18.529386,37.9749832 18.6705439,37.4357775 18.810825,36.8974486 C18.839758,36.9018324 18.8695678,36.9053395 18.8985007,36.9097232 C18.6240758,38.1240319 18.3899816,39.3392173 18.6679136,40.6192828 C18.7380542,40.3851886 18.8152088,40.185288 18.8555396,39.9783733 C19.0624543,38.928895 19.3246047,37.8987053 19.7059941,36.8956951 C19.8480288,36.5230733 19.8857293,36.1092439 19.9549931,35.7120729 C19.9716515,35.6147529 19.9523629,35.4920069 19.9041412,35.4052079 C19.5236286,34.7134465 19.1413625,34.0216851 18.7398077,33.3413216 C18.558319,33.0335798 18.3321156,32.751264 18.1260777,32.4575503 C18.9563667,33.1238858 19.5122308,33.9945057 20.0181196,34.9256218 C20.3206009,33.0931993 20.2434462,31.2344741 20.4766636,29.4581641 C19.6586492,28.7339627 19.3412631,27.8309028 19.1308414,26.8103574 Z M26.3737324,21.439343 C26.3535669,20.5178712 26.3334015,19.5972762 26.3141129,18.7012304 C25.6653126,18.1339685 25.6898618,17.3203378 25.443493,16.5917526 C25.071748,18.7661104 24.6719467,20.9106584 24.3528071,23.0674811 C24.2063886,24.0582167 24.1283572,25.0770085 24.1757021,26.0747582 C24.2826665,28.3113657 24.4878277,30.5427127 24.6535348,32.7758132 C24.6833445,33.177368 24.7149078,33.5789228 24.7455943,33.9804775 C24.7789111,33.9874916 24.8113511,33.9945057 24.8446679,34.000643 C24.9025338,33.8419499 24.9910863,33.6876406 25.0130052,33.5245638 C25.0524593,33.2282199 25.020896,32.9204781 25.0735015,32.628518 C25.3233773,31.2511325 25.5899114,29.8755005 25.8564456,28.501622 C25.9362305,28.0930532 26.0844025,27.6932519 26.1203495,27.2820528 C26.1878598,26.5140135 26.1975042,25.7415904 26.2299442,24.9709209 C26.2790426,23.8153549 26.3263875,22.659789 26.3737324,21.439343 Z M14.9434492,31.5325715 C15.0039454,34.3408247 15.0661952,37.1490779 15.1240611,39.9573312 C15.1337055,40.4185054 15.1740363,40.8638981 15.3064266,41.315428 C15.5694538,42.2141041 15.7684777,43.1311921 15.9552269,43.8834497 C15.9552269,43.149604 15.958734,42.261449 15.9508431,41.373294 C15.9499664,41.2733437 15.8894701,41.1742701 15.8561534,41.0743198 C15.875442,41.073443 15.8938539,41.073443 15.9131426,41.0725663 C15.839495,40.46322 15.7667241,39.8547506 15.6930765,39.2454043 C15.7123652,39.2427741 15.7307771,39.2401438 15.7500658,39.2375135 C15.785136,39.4216325 15.8210831,39.6066283 15.8596604,39.8074057 C16.0429027,39.4172487 15.969255,38.9508139 16.3620423,38.6439489 C16.0946313,37.2078207 15.8237134,35.7559108 15.5492884,34.2829588 C16.4014963,36.3801619 16.5444078,38.6167694 17.0266242,40.8384721 C17.2300319,40.362393 17.3545314,39.9257679 17.3720665,39.4654704 C17.4185346,38.2871087 17.4562352,37.1087471 17.4948125,35.9303855 C17.4983195,35.8356957 17.4904287,35.7366221 17.4693866,35.6445626 C17.0897507,33.9953824 16.6057808,32.3786422 15.9429523,30.819768 C15.6097846,30.0368238 15.2696028,29.2573867 14.9416956,28.4972382 C14.9416956,29.4870971 14.9416956,30.4787094 14.9434492,31.5325715 Z M36.9439168,26.2062717 C37.033346,26.7700266 37.1227752,27.3329047 37.2122045,27.8905223 C37.6383084,27.5345588 38.0924687,27.154923 38.5448754,26.7779174 C38.4975305,25.0664874 38.4501856,23.367332 38.4037175,21.6681766 C37.827688,22.4739165 37.2972499,23.277026 36.8132799,24.1064383 C36.5739252,24.5167607 36.3380776,24.9603998 36.242511,25.418067 C36.0505012,26.3360318 35.9382763,27.2715317 35.8234211,28.2035246 C35.6857702,29.3187597 35.5788059,30.4375018 35.4613204,31.5553672 C35.4525528,31.6421662 35.4604436,31.7298419 35.4604436,31.8350528 C36.0899553,31.1152351 36.5248268,30.3489494 36.448549,29.3082386 C36.2074407,29.0837888 36.235497,28.721688 36.3012538,28.3552036 C36.3827922,27.9036736 36.4608236,27.4503902 36.5581436,27.0014905 C36.6282842,26.6779671 36.7282345,26.360581 36.8150335,26.0405646 C36.8378291,26.0431949 36.8606248,26.0458252 36.8834205,26.0493322 C36.8992022,26.0852792 36.9158605,26.1212263 36.9439168,26.2062717 Z M23.0332875,27.2364614 C22.4642721,25.3593243 21.6366134,23.5996727 20.6642897,21.9049011 C20.6397405,21.9092849 20.6151913,21.9145454 20.5906421,21.9189292 C20.2522138,23.3585645 19.9129088,24.7990765 19.6007832,26.1256101 C19.9637607,26.692872 20.2565976,27.1522927 20.5397902,27.5950551 C20.6984832,26.5271649 20.8370108,25.4084227 21.1596575,24.2414589 C21.2648683,24.3992752 21.3437765,24.4843207 21.3858608,24.5860245 C21.5980361,25.0962972 21.8233627,25.602186 21.9978373,26.1256101 C22.1258439,26.5113832 22.1705585,26.9208288 21.9355876,27.2855598 C22.4914516,28.1561797 23.0350411,29.0101412 23.5795073,29.8632259 C23.5996727,29.8535816 23.6189613,29.8439372 23.6391267,29.8342929 C23.5672327,28.956659 23.2840401,28.1263699 23.0332875,27.2364614 Z M34.1146214,29.2968408 C34.5863167,28.6454102 35.0255721,27.9685536 35.6112459,27.4109361 C35.6305345,27.425841 35.6506999,27.4398691 35.6699886,27.4547739 C34.9466639,28.4376187 34.2233393,29.4204635 33.4956308,30.4085688 C33.7735628,31.4641845 34.0488646,32.505772 34.3215361,33.5429757 C34.6099892,33.1387907 34.895812,32.7538943 35.1623462,32.3567233 C35.2412543,32.2401146 35.2982436,32.0910658 35.3131484,31.9507847 C35.4437853,30.7268317 35.5656545,29.5020019 35.6848935,28.2771722 C35.7716924,27.3925242 35.8514773,26.5069994 35.9373995,25.5872812 C34.9712131,26.9050472 34.4714616,28.440249 33.6262676,29.7887015 C33.6499401,29.8027296 33.6727358,29.8167578 33.6964082,29.8316626 C33.8287986,29.6668323 33.9611889,29.5020019 34.1146214,29.2968408 Z M38.55715,18.4908087 C38.6062484,17.648245 38.6562235,16.8056814 38.7053219,15.9631177 C38.5475056,16.2226379 38.4221294,16.4926791 38.2914925,16.76009 C37.8013853,17.7683608 37.3156618,18.778385 36.8141567,19.7805185 C36.6405588,20.1268375 36.4222463,20.4468539 35.9882515,20.4994593 C35.9242482,21.0798726 35.8619984,21.6383669 35.8006254,22.1968612 C36.119765,21.4542479 36.4476722,20.7204021 37.0964725,20.1627846 C37.2507818,20.5564485 37.1876553,20.9167957 37.1315428,21.2745127 C37.0438671,21.8338837 36.9456703,22.3932548 36.6177631,22.8754713 C36.416109,23.1726919 36.1934126,23.4453634 35.7585411,23.4278283 C35.6647281,24.15466 35.5726686,24.86571 35.4814858,25.5767601 C35.8015022,25.1541631 36.0846947,24.7157846 36.3485986,24.2668849 C37.0421136,23.0876465 37.7294912,21.9040243 38.4142385,20.7195254 C38.4598299,20.6406172 38.4808721,20.5397902 38.4852559,20.4477307 C38.5124353,19.8164655 38.531724,19.1843236 38.55715,18.4908087 Z M37.004413,38.8719058 C37.0114271,38.8973317 37.0184411,38.9227577 37.0263319,38.9534442 C37.0868282,38.7938744 37.1446942,38.6421954 37.2025601,38.4896397 C37.220972,38.8920712 37.1639828,39.2813514 37.1762574,39.668878 C37.1955461,40.2992664 37.2700704,40.4702341 37.5120554,40.7411521 C37.7347517,39.5058012 37.9583248,38.2686968 38.192419,36.9675892 C38.1652395,36.6782593 38.1477044,36.3082678 38.0907151,35.9444136 C37.9846275,35.2622965 38.1038665,34.5608908 37.9022124,33.888418 C37.8504837,33.7148201 37.8180437,33.5359617 37.769822,33.361487 C37.6251571,32.8336792 37.4769851,32.3058714 37.3217991,31.7500073 C36.9272584,32.2243329 36.8597481,32.7363591 36.8728994,33.3246632 C36.9746033,33.2071777 37.0394833,33.1265161 37.1105006,33.0528685 C37.1841482,32.9765906 37.2656866,32.9073268 37.343718,32.8354327 C37.0237017,33.3535962 36.697548,33.8437034 36.6195166,34.466201 C36.545869,35.0588889 36.5055382,35.6419324 36.6519566,36.2416343 C36.8387059,35.9444136 37.0123038,35.6664816 37.1867785,35.3885496 C37.213958,35.3990706 37.2402607,35.4104685 37.2674402,35.4209896 C36.8588713,35.9794839 36.549376,36.5563901 36.9263816,37.2665634 C37.065786,36.9035859 37.2043136,36.5432387 37.3428413,36.1837683 C37.2998802,36.4915101 37.2314931,36.7931145 37.1105006,37.0710466 C36.9255049,37.4962738 36.8544875,37.9258848 36.9386562,38.3826753 C36.9667125,38.528217 36.9824941,38.6772657 37.004413,38.8719058 Z M37.5830727,31.7315954 C37.6365549,31.8973025 37.6891604,32.0630096 37.7566707,32.2708011 C38.0845778,31.9262355 38.376538,31.6184937 38.6886635,31.2905866 C38.6553468,29.90268 38.6229067,28.5042523 38.58959,27.1049478 C38.5615337,27.09355 38.5334775,27.0830289 38.5054213,27.0716311 C38.1170179,27.4197037 37.7198469,27.7581319 37.3463483,28.1211094 C37.2244791,28.2394716 37.1341731,28.411316 37.0815676,28.5761464 C36.9772335,28.898793 36.8360756,29.1863693 36.5467458,29.3801327 C36.5221966,29.6747231 36.4985241,29.9631762 36.4748517,30.2507525 C36.4941403,30.2551363 36.513429,30.2586434 36.5335944,30.2630272 C36.6931642,30.0306865 36.852734,29.7983459 37.0421136,29.5212906 C37.1166379,29.942134 37.1806412,30.306865 37.2490283,30.6943917 C37.3647602,30.5392057 37.4506824,30.4252272 37.5357279,30.310372 C37.55677,30.3200164 37.5769354,30.3287839 37.5979776,30.3384283 C37.3744045,30.64617 37.2700704,30.9653096 37.4498057,31.3239033 C37.5050414,31.437005 37.5401116,31.5606278 37.5830727,31.7315954 Z M23.8916328,25.4882076 C23.8916328,24.8990268 23.8916328,24.3107227 23.8916328,23.7434609 C23.3147266,22.934214 22.5554549,22.3713359 21.8373908,21.7549756 C21.8058275,21.9803022 21.8347605,22.1889704 21.7996902,22.3862408 C21.7093842,22.9008972 21.868954,23.3261244 22.1293509,23.7697636 C22.8982669,25.0805155 23.547944,26.4500102 23.974048,27.9159482 C23.9477453,27.1277435 23.9205658,26.3395388 23.8916328,25.4882076 Z M32.9409386,40.1475875 C33.1378763,40.5026741 33.334814,40.8586375 33.5476481,41.2409036 C33.6589223,40.9410527 33.7543002,40.6622439 33.8655744,40.3904492 C34.0121738,40.0327323 34.0245376,39.6846597 33.9362248,39.30064 C33.670403,38.1354298 33.3754379,36.9728498 33.3250996,35.7690622 C33.3180346,35.5875734 33.252683,35.408715 33.2147085,35.2289797 C33.1785002,35.23161 33.1431751,35.2342403 33.1069668,35.2368706 C33.0972524,35.3771517 33.081356,35.5174329 33.0787067,35.6585908 C33.0725247,36.0092936 33.0928367,36.36175 33.0663428,36.7106994 C33.0283683,37.2008066 32.9250422,37.6865301 32.9073797,38.1766373 C32.8853014,38.8149166 32.9179772,39.4558261 32.9409386,40.1475875 Z M42.6272232,45.3450039 C42.8311473,43.6853026 43.0350714,42.0247246 43.243738,40.3290762 C43.0291434,40.5614168 42.8880564,40.799018 42.6485641,40.9515738 C42.3652044,41.131309 42.2478295,41.3285794 42.2347878,41.586346 C42.2122613,42.0256013 42.1707651,42.4639799 42.1589091,42.9032352 C42.1458674,43.3889587 42.1553523,43.8746822 42.1553523,44.2990326 C42.1849924,44.160505 42.2300454,43.9544671 42.2750984,43.7493059 C42.3426779,43.9930444 42.3486059,44.2341526 42.3414923,44.4752608 C42.3082954,45.5782214 42.2667992,46.6820586 42.2430871,47.7850191 C42.2395302,47.9752754 42.309481,48.1664085 42.3462347,48.3566648 C42.3735037,48.3549113 42.399587,48.3540345 42.4268559,48.352281 C42.489693,47.3694362 42.5525301,46.3865915 42.6272232,45.3450039 Z M41.5426846,45.8289739 C41.579323,45.991174 41.6149973,46.1524973 41.6516357,46.3146974 C41.6738116,46.3111903 41.6969516,46.3076833 41.7191275,46.3041763 C41.5841439,45.5834819 41.4481961,44.8627875 41.3132124,44.1412164 C41.3324958,44.1377093 41.3517792,44.1333255 41.3710625,44.1298185 C41.487727,44.4805214 41.6043914,44.8312242 41.7200917,45.1792968 C41.8878571,43.879066 42.0536941,42.5902329 42.2262804,41.2444107 C41.8425411,41.7853698 41.3421375,42.2114738 41.299714,42.8672882 C41.2495773,43.6572464 41.1666587,44.4463278 41.1377337,45.2362861 C41.1078444,46.0507935 41.2920007,46.8407517 41.5773947,47.608791 C41.6024631,47.6061607 41.6275315,47.6026537 41.6525999,47.6000234 C41.5475055,46.8100652 41.4433752,46.020107 41.3382808,45.2301488 C41.3517792,45.2275185 41.3652775,45.225765 41.3797401,45.2231347 C41.4327694,45.4081305 41.4838703,45.5922495 41.5426846,45.8289739 Z M16.0907377,44.9925476 C16.0109725,43.6774118 15.5474097,42.413128 15.1832643,41.1295555 C15.0826908,41.8151796 14.9231605,42.5113248 15.0422302,43.1794137 C15.2792137,44.4971798 15.6699475,45.7991642 15.9971003,47.1072859 C16.0283127,47.1037788 16.0595252,47.1002718 16.0907377,47.0967648 C16.0918937,46.4164012 16.0918937,45.7360376 16.0907377,44.9925476 Z M36.0182184,33.0791712 C36.0682307,32.6048455 36.1182431,32.1296432 36.1712562,31.6281381 C35.5541035,32.0866821 35.3350493,32.6618348 35.2910384,33.3150189 C35.2600307,33.7718093 35.2170201,34.2285998 35.1450022,34.6810065 C35.0489785,35.2763246 35.0019668,35.8584914 35.4190701,36.4827425 C35.4990899,36.0934623 35.5651062,35.7760762 35.6311226,35.4578134 C35.9241951,34.7073092 35.8991889,33.9129672 36.0182184,33.0791712 Z M27.0195051,19.0098489 C26.9533404,18.6652833 26.886035,18.319841 26.8198703,17.9752754 C26.6419101,18.2523307 26.4342899,18.5477979 26.4308676,18.8458953 C26.4217414,19.6148114 26.5141438,20.3846041 26.5449446,21.1552737 C26.5654785,21.6865885 26.5483669,22.2179034 26.5483669,22.7492182 C26.5848716,22.7509717 26.6202355,22.7527253 26.6567401,22.7544788 C26.677274,22.7308063 26.7057932,22.7088874 26.7183417,22.6825847 C26.975015,22.1539001 27.238533,21.6269691 27.4792355,21.0939007 C27.5305702,20.980799 27.5328517,20.8405179 27.5009102,20.7221557 C27.3560323,20.1671684 27.1906206,19.6165649 27.0195051,19.0098489 Z M21.583966,31.9148377 C21.3145636,32.4487828 21.0665781,32.9906187 20.7678683,33.5149195 C20.5255188,33.9401467 20.5525718,34.3329339 20.8197198,34.7388725 C21.1105391,35.1807581 21.2762385,35.6524535 21.3032915,36.152205 C21.3134363,36.3433381 21.3449981,36.5327177 21.3664151,36.722974 C21.3968496,36.7238507 21.426157,36.7238507 21.4565916,36.7247275 C21.4701181,36.6133793 21.4904078,36.5020312 21.4949166,36.390683 C21.5152064,35.8777801 21.524224,35.3640004 21.5490226,34.8510974 C21.595238,33.877897 21.6482168,32.9055733 21.693305,31.9323728 C21.693305,31.9148377 21.6335631,31.8964258 21.583966,31.9148377 Z M36.6273151,44.225385 C36.5635592,44.647982 36.6096805,45.0460298 37.1522836,45.3108104 C37.9892489,43.78876 37.7789902,42.2632025 37.0803887,40.7876202 C36.9352423,41.8853202 36.7819569,43.0251045 36.6273151,44.225385 Z M26.1894722,31.2625303 C26.2390445,30.2218196 26.2874901,29.1811088 26.3370624,28.140398 C26.3077697,28.136891 26.2773503,28.133384 26.2480576,28.1290002 C25.9089383,29.6054593 25.5709455,31.0827951 25.2453459,32.5013882 C25.547286,32.7652921 25.7669813,32.9573019 26.0508952,33.2054242 C26.1004675,32.5198001 26.1432799,31.9218517 26.1894722,31.2625303 Z M37.1876553,31.2905866 C37.0938422,30.9048134 37.0000292,30.5181635 36.9044627,30.1271298 C36.3880527,30.7882047 35.9365228,32.4680714 36.0794342,33.2615367 C36.4915101,32.6951515 36.8842973,32.1550691 37.2569191,31.6430429 C37.2288628,31.5088991 37.2113277,31.4256072 37.1876553,31.2905866 Z M34.3454733,42.4823918 C34.1071851,43.3617792 33.861829,44.2402899 33.6336378,45.1214309 C33.5750754,45.3476342 33.5336779,45.5861122 33.5468039,45.8166993 C33.5690172,46.2270217 33.6376766,46.6347137 33.6871516,47.0441593 C33.7265298,47.0476664 33.7648982,47.0502966 33.8042763,47.0538037 C33.9355368,46.3217114 34.0667972,45.5896192 34.1879607,44.9136394 C34.1899801,44.9329281 34.2000771,45.012713 34.2162322,45.1442266 C34.4898598,44.5813485 34.5958778,44.0491569 34.5363058,43.488909 C34.55549,43.5406377 34.5746742,43.5923664 34.6180911,43.7063448 C34.6796826,43.2179911 34.5817421,42.8225736 34.3454733,42.4823918 Z M38.8784167,40.5728147 C38.7537924,39.8626414 38.6305227,39.1533448 38.507253,38.4545694 C38.3487634,39.084081 38.1604723,39.7337581 38.0263657,40.3878189 C37.8624576,41.1830377 37.7324149,41.9826402 38.3839833,42.7401584 C38.7456647,42.0536575 39.1926867,41.3811848 38.8784167,40.5728147 Z M26.302766,33.6253909 C26.3236786,33.2185756 25.7545576,33.0344566 25.3557248,32.6951515 C25.2451869,33.4623141 25.0315798,34.1479382 25.5110754,34.8186574 C25.4737315,34.8239179 25.3721561,34.8335623 25.3736499,34.8388228 C25.4558064,35.4297571 25.2646057,36.054885 26.0159649,36.5897069 C25.9831022,36.1188883 26.2803596,35.6594675 25.7739764,35.1886489 C25.923352,35.2552825 25.996546,35.2877225 26.1339716,35.3482187 C26.192228,34.7651752 26.2489908,34.2233393 26.302766,33.6253909 Z M17.8506844,41.5302335 C17.9072477,41.8493731 17.963811,42.167636 18.0289445,42.542888 C18.5345861,41.7844931 19.0059469,41.0751965 18.837971,40.3132946 C18.5894353,39.1919221 18.2963346,38.07318 18.0220883,36.9535611 C17.9672391,36.9561914 17.9123898,36.9588216 17.8575406,36.9614519 C17.9123898,37.6628576 17.9672391,38.3642634 18.0220883,39.0656691 C18.049513,39.0656691 18.0752235,39.0656691 18.1026482,39.0656691 C18.1266447,38.867522 18.1506413,38.6693749 18.1763519,38.4712278 C18.2174888,38.470351 18.2603398,38.4685975 18.3014767,38.4677207 C18.354612,38.8982085 18.4077472,39.3286963 18.4625964,39.7819797 C18.2877644,39.75217 18.2157748,39.7398954 18.1043622,39.7214835 C17.9072477,40.3018967 17.656998,40.8770494 17.8506844,41.5302335 Z M16.3205425,44.7172458 C16.5529787,44.9197767 16.7854149,45.1231844 17.0178511,45.3257153 C17.1921783,44.5234825 17.2502873,43.7422918 17.3247395,42.961978 C17.3810327,42.3719204 17.0886715,41.9782564 16.2406426,41.5372476 C16.2406426,42.391209 16.2370108,43.2574451 16.2442744,44.1236812 C16.2442744,44.3042932 16.2787767,44.4849052 16.3205425,44.7172458 Z M32.982286,43.3836982 C33.1011485,43.0891078 33.0403562,42.8225736 32.9260304,42.5279832 C32.7019156,41.9484467 32.4297113,41.405734 31.9551685,40.9498203 C32.1792833,42.0536575 32.4043055,43.1566181 32.6284204,44.2604553 C32.6538261,44.2578251 32.6792319,44.2551948 32.7046376,44.2534413 C32.7953724,43.9807698 32.8861071,43.7080983 32.982286,43.3836982 Z M21.4621593,37.9925183 C20.0743078,39.2217319 20.62374,40.7043283 21.7279561,41.7871234 C21.7279561,41.1111436 21.7279561,40.4579595 21.7279561,39.8047754 C21.7279561,39.1428237 21.7279561,38.4808721 21.7279561,37.7557939 C21.5959496,37.860128 21.5406496,37.9048426 21.4621593,37.9925183 Z M25.3990115,36.3845457 C25.0142862,37.5576468 25.2099465,40.7271239 25.7023949,41.073443 C26.0189689,40.7718386 25.9464206,40.4930298 25.6012671,40.2738405 C25.9903893,39.8038986 25.9244363,39.3681503 25.7991258,38.9131134 C26.5927592,38.4729813 26.3817099,36.6089955 25.4385832,36.1688634 C25.4297895,36.2302364 25.4187974,36.2837186 25.3990115,36.3845457 Z M26.6777607,44.525236 C26.7923451,44.1122834 26.9120602,43.7002075 27.0198037,43.2863781 C27.1497801,42.7866265 27.3686877,42.2763539 26.5289719,41.8739223 C25.9269761,43.4056171 26.0381401,44.958354 26.11681,46.5119677 C26.1920595,46.3576585 26.2655988,46.2024725 26.3066439,46.0455329 C26.4314897,45.5589327 26.5460741,45.070579 26.6777607,44.525236 Z M30.0922551,39.2857352 C30.2681303,38.5948505 30.5047137,37.914487 30.4877512,37.185025 C30.1511778,37.7970015 29.8654921,38.4300202 29.5307043,39.0367361 C29.2691233,39.5119385 29.428036,39.9029722 29.6905097,40.3588859 C29.8297814,39.9853874 29.9511978,39.6601105 30.0922551,39.2857352 Z M20.5564842,34.282082 C20.4660465,34.5591373 20.3625334,34.834439 20.2884398,35.1141246 C20.2513931,35.2561592 20.206719,35.4262501 20.2677372,35.5507496 C20.5488569,36.1294094 20.8648442,36.6966712 21.1688457,37.2674402 C21.2756276,37.1508315 21.3399146,37.0464974 21.3279289,36.9474238 C21.2527457,36.300377 21.2701795,35.6410556 20.9345793,35.0273256 C20.8060052,34.7941082 20.7046713,34.5512465 20.5564842,34.282082 Z M35.9529034,46.4348131 C35.8582312,47.3860946 35.8897886,48.3338691 36.3742876,49.2719993 C36.5394999,49.301809 36.7121375,49.3324955 36.9441772,49.3745799 C37.1520848,48.1444896 36.7715396,46.9836631 36.2387764,45.8307274 C36.1942248,45.8324809 36.1496731,45.8351112 36.1051215,45.8368647 C36.0587135,46.0174767 36.0141619,46.1972119 35.9529034,46.4348131 Z M37.9211292,32.902943 C38.0429541,33.2799486 38.1658203,33.6560774 38.2793153,34.0085338 C38.9800691,33.2922232 38.9082236,32.4671947 38.8249245,31.7219511 C38.495893,31.9639361 38.1356244,32.22784 37.7847269,32.4856066 C37.8336651,32.628518 37.8711497,32.7407429 37.9211292,32.902943 Z M21.2544147,37.5103019 C20.9486659,36.9877546 20.641616,36.4652074 20.3358672,35.9417833 C20.0444301,36.5677879 20.1342031,37.6269106 20.5050048,38.7491598 C20.7639155,38.3169185 20.9942029,37.9364059 21.2544147,37.5103019 Z M21.4640367,22.6080603 C21.5299161,22.6825847 21.5957956,22.7579858 21.7096729,22.8877459 C21.7341424,22.4151737 21.7548474,22.0223865 21.7717878,21.6830815 C21.4555665,21.2692521 21.1760494,20.9018909 20.8777096,20.5117339 C20.8061834,20.8492854 20.7421862,21.1500132 20.6800713,21.4437268 C20.9388834,21.8303767 21.1864019,22.201245 21.4640367,22.6080603 Z M21.0013281,41.6336909 C20.8182012,41.2224917 20.6350743,40.8121694 20.4214262,40.33346 C20.1484314,40.9261478 19.9381746,41.4390508 20.092476,41.9826402 C20.2399949,42.4955432 19.9330877,43.0365023 20.3875138,43.5783383 C21.4862753,43.0251045 20.8215924,42.4604729 20.6588129,41.9028553 C20.7859844,41.9949148 20.9131559,42.0869743 21.0403274,42.1790338 C21.0708485,42.1720198 21.1013697,42.1650057 21.1318908,42.1588684 C21.0928916,42.0019289 21.0555879,41.8449893 21.0013281,41.6336909 Z M23.3033746,40.7455358 C23.3439872,40.3869422 23.2361101,40.0511442 22.9632444,39.6846597 C22.7132234,40.2361399 22.4619332,40.737645 22.2626778,41.2496712 C22.1548007,41.5276032 22.2576012,41.802905 22.4987383,42.0641786 C22.7652582,41.8274542 23.0051261,41.6161557 23.3021055,41.3531286 C23.3008363,41.2137242 23.3008363,41.0103165 23.3033746,40.7455358 Z M18.7543604,42.3140544 C18.2234136,43.1469737 18.3289633,43.9702487 18.8902955,44.7908934 C19.0118376,44.6891896 19.1109903,44.5857322 19.1477727,44.4770143 C19.2725132,44.1000088 19.3892575,43.7221264 19.4788148,43.3424906 C19.5123988,43.2013327 19.5076011,43.0487769 19.4452308,42.9120028 C19.3844598,42.781366 19.2069445,42.6682643 19.1141887,42.5411345 C19.0246315,42.4175118 18.9782536,42.2851214 18.8982917,42.1290587 C18.8359215,42.1948154 18.8023375,42.232516 18.7543604,42.3140544 Z M19.8501528,37.7514101 C19.502918,38.4098548 19.1877356,39.0726832 19.3172809,39.7854867 C19.6297922,39.6066283 19.9035735,39.4251396 20.1426313,39.2261157 C20.2588214,39.1296724 20.3856957,38.9981588 20.3790181,38.8859339 C20.3456301,38.3528655 20.2681701,37.8215507 20.2054007,37.2893591 C20.1773548,37.2893591 20.1493089,37.2893591 20.121263,37.2902358 C20.0424674,37.4287635 19.9623363,37.5672911 19.8501528,37.7514101 Z M12.7989011,48.7959202 C12.8322179,48.9467224 12.8655347,49.0984014 12.8988514,49.2492036 C12.6814157,47.0003215 12.0475202,44.8601572 11.2479177,42.7235 C11.7660812,44.7566999 12.2754771,46.7504457 12.7989011,48.7959202 Z M31.226381,48.8239764 C31.3439644,48.9195429 31.4591482,49.0159862 31.5767316,49.1115527 C31.6655191,49.1045387 31.7567063,49.0966479 31.8454938,49.0896338 C32.2966303,48.0611977 32.4934026,47.0318847 31.7207114,45.998188 C31.5935293,46.0955081 31.5071414,46.1945816 31.4855445,46.2954087 C31.367961,46.8924803 31.2527772,47.489552 31.1639897,48.0875004 C31.1303945,48.3189643 31.1639897,48.5504281 31.226381,48.8239764 Z M16.2115403,40.8989683 C16.4804122,41.2663296 16.7492841,41.6328141 17.018156,42.0001754 C17.07065,41.9896543 17.1218637,41.9800099 17.1743578,41.9694889 C16.9592603,41.0550311 16.7428824,40.1405734 16.5277849,39.2261157 C16.494496,39.2269924 16.4624874,39.2287459 16.4291985,39.2296227 C16.356219,39.4444282 16.2768378,39.6592337 16.2115403,39.874916 C16.1155146,40.1984394 15.9772377,40.5228395 16.2115403,40.8989683 Z M35.1855832,34.7493936 C35.3174101,34.0769208 35.4505961,33.4044481 35.5892183,32.7004121 C34.3375419,33.5990882 34.1798931,34.3285501 35.0252164,35.2386241 C35.078219,35.0834381 35.1271445,34.9431569 35.1855832,34.7493936 Z M38.4171753,35.1000964 C38.5314729,35.5884502 38.6478872,36.0768039 38.7791178,36.6352982 C39.8670618,35.563901 39.1283605,34.5389719 39.170693,33.5245638 C38.6796365,34.0129176 37.9938508,34.4811059 38.4171753,35.1000964 Z M38.7189418,44.4787679 C38.9381036,44.8820762 39.159276,45.2862612 39.3784378,45.6895695 C39.4206616,45.6869392 39.4628855,45.684309 39.5051093,45.6816787 C39.3764271,44.5164684 39.247745,43.3512581 39.1190628,42.1860479 C38.5218972,42.9198936 38.0976482,43.6563696 38.7189418,44.4787679 Z M14.0219197,48.4417103 C14.1646862,47.1072859 13.6180944,45.8438788 13.0715026,44.5804717 C13.0320719,44.5839787 12.9926411,44.5874858 12.9532104,44.5918695 C13.265937,45.9867902 13.5786637,47.3817108 13.8913903,48.7766315 C13.9281017,48.7740012 13.9661728,48.7722477 14.0028842,48.7696174 C14.0096826,48.6784347 14.0151213,48.5881287 14.0219197,48.4417103 Z M36.7122591,43.1802905 C37.3242449,42.4350469 36.699949,41.8230704 35.8663822,41.2330128 C35.9631041,42.1308122 36.059826,43.0294883 36.1583065,43.9272876 C36.2075467,43.9290411 36.2550283,43.9307946 36.3042686,43.9334249 C36.4344035,43.7002075 36.5645384,43.4669901 36.7122591,43.1802905 Z M28.075924,40.4877692 C27.5496503,41.1076366 27.346866,41.7529298 27.5448221,42.4438145 C28.6408233,41.9493234 28.8162479,41.2075869 28.2384734,40.2080837 C28.1934102,40.2852383 28.1451282,40.3632697 28.075924,40.4877692 Z M39.2177002,39.8547506 C39.319557,40.0371161 39.4214138,40.2186048 39.5260999,40.4009703 C39.5798577,40.3992168 39.6336155,40.3965865 39.6902026,40.394833 C39.5289293,39.0507642 39.3704854,37.7066955 39.2092121,36.3626268 C39.113014,36.3626268 39.0168159,36.3626268 38.9234472,36.3635035 C38.2330844,37.5085484 38.7932968,38.6535932 39.2177002,39.8547506 Z M19.9186165,41.3995967 C19.7882961,41.1593652 19.6579758,40.9191338 19.4985049,40.6236666 C18.6119836,41.7809861 18.6034099,42.3114241 19.471069,42.7594471 C19.6271105,42.3096706 19.7745782,41.8835666 19.9186165,41.3995967 Z M24.3011035,39.051641 C23.7283959,39.6031213 24.4248822,40.0520209 24.8331673,40.5263466 C25.0345387,39.7986381 25.3615362,39.0744367 25.0419284,38.2888623 C24.2456802,38.4598299 24.4840004,38.7719555 24.3011035,39.051641 Z M28.1389261,45.6343338 C28.2161992,45.3064266 28.2772044,44.9776427 28.3768461,44.651489 C28.4764879,44.3244586 28.4459853,44.0254844 27.6895215,43.7948973 C27.2868875,44.2131104 27.2055473,44.612035 27.5126065,45.0232341 C27.5471761,45.0688254 27.5593772,45.1179238 27.5695447,45.1652687 C27.6468179,45.5843587 27.7220575,46.0034486 27.7993307,46.4234153 C27.8908385,46.4216617 27.9803127,46.420785 28.0718204,46.4190315 C28.0941889,46.1779233 28.1165575,45.936815 28.1389261,45.6343338 Z M22.3538145,44.0070725 C22.3150293,43.9807698 22.274628,43.9544671 22.2358428,43.9290411 C22.2035218,43.940439 22.1712008,43.9527136 22.1372637,43.9641114 C22.1178711,43.9027384 22.0968624,43.8404886 22.0774698,43.7791156 C21.8786955,44.6891896 22.4572418,45.5124646 23.0406363,46.3410001 C23.1085105,46.1446065 23.1683044,45.9429523 23.0971981,45.7553263 C22.8838794,45.1819271 22.618847,44.615542 22.3538145,44.0070725 Z M24.4408489,43.8448724 C24.5141685,43.9193968 24.5874881,43.9939212 24.6608077,44.0693223 C24.8563265,43.3994798 25.6314192,42.7690914 25.0134399,42.0492738 C24.1562991,42.600754 23.8979349,43.1671391 24.4408489,43.8448724 Z M21.5349095,39.6303007 C21.5349095,40.5044276 21.5349095,41.3785545 21.5349095,42.2526814 C21.6218918,42.2544349 21.7056525,42.2561884 21.7926348,42.257942 C22.0890188,41.896718 22.6721221,41.5328638 22.6237986,41.1742701 C22.5335948,40.4903995 22.0825757,39.8100359 21.7829701,39.1279189 C21.7024309,39.1287956 21.6218918,39.1305491 21.5413527,39.1314259 C21.5381311,39.2787211 21.5381311,39.4260163 21.5349095,39.6303007 Z M33.923194,41.8037817 C34.0813964,41.254055 33.3241579,40.8902008 32.8548833,40.4667271 C32.8406628,40.8156764 32.9046548,41.1541047 32.9170977,41.4934097 C32.9313182,41.8502499 33.0468593,42.1851711 33.5179114,42.4920361 C33.6423403,42.2710933 33.7596589,42.0615484 33.923194,41.8037817 Z M33.5189515,36.2758278 C33.6661981,37.1324196 34.3491181,39.1515913 34.5522169,39.3357103 C34.5598332,38.4940234 33.8413709,36.2004267 33.4605605,35.8900547 C33.4770623,36.0110471 33.4910254,36.1171348 33.5189515,36.2758278 Z M35.1473405,45.4221586 C34.5524535,46.2647222 34.2292045,47.1151767 34.4383656,47.980536 C35.1228931,47.4737703 35.4434257,46.9433323 35.4651568,46.3997428 C35.4787387,46.0499167 35.3700835,45.6992138 35.3103232,45.348511 C35.3103232,45.3476342 35.2179663,45.3467575 35.1717879,45.3502645 C35.1609224,45.3511412 35.1636387,45.3704299 35.1473405,45.4221586 Z M24.0213523,41.860771 C24.0580339,41.9826402 24.0964624,42.1036327 24.1488648,42.2772306 C24.491227,42.0896046 24.7707065,41.9370488 25.1025883,41.7538066 C24.7654662,41.2382734 24.4265974,40.7218634 24.0894754,40.2054534 C24.0632742,40.2089605 24.037073,40.2124675 24.0108718,40.2159745 C24.0126185,40.7455358 24.0126185,41.2750972 24.0213523,41.860771 Z M22.3470698,43.2548149 C22.1654597,43.8887103 22.7819781,44.4612327 23.388938,45.1012655 C23.3459251,44.2245083 23.7282621,43.3898355 22.3422905,42.6480989 C22.3446802,42.8295876 22.3446802,43.0110764 22.3470698,43.2548149 Z M29.0313042,44.1876845 C28.8549164,44.6304469 28.991617,45.0583044 29.5141659,45.4809013 C29.772133,45.2169974 30.0918359,44.9408189 30.0455341,44.6751615 C29.974979,44.2683461 29.6486616,43.8685449 29.4325865,43.4661133 C29.3840798,43.4669901 29.3355732,43.4687436 29.2870666,43.4696204 C29.2098969,43.6905632 29.1349321,43.9106292 29.0313042,44.1876845 Z M35.7770647,36.9614519 C36.089601,36.2091943 36.4035775,35.4578134 36.7161137,34.7055557 C35.4645285,35.4937604 35.6647245,36.4871263 35.6243972,37.4462986 C35.6704855,37.3025104 35.7165738,37.1578455 35.7770647,36.9614519 Z M36.7096278,33.917351 C36.8006041,33.5833065 36.8902426,33.2501388 36.9879084,32.8897916 C36.0420217,33.4579303 35.9109087,34.1812549 35.896192,34.9378964 C36.1597559,34.6134962 36.4233198,34.2899728 36.7096278,33.917351 Z M29.4709095,42.9838969 C29.6338478,43.2302657 29.7967861,43.4766344 29.9647123,43.7335243 C30.782729,43.1995792 30.4102986,42.7050881 29.8932189,42.1895549 C29.7036785,42.3377269 29.5291017,42.474501 29.3511997,42.6130286 C29.3894403,42.7252535 29.4243557,42.8287109 29.4709095,42.9838969 Z M20.4005282,39.968729 C20.3322092,39.8573808 20.2612626,39.7460327 20.1929436,39.6346845 C18.8738621,40.2247421 19.6647855,40.8218137 19.9065295,41.4153783 C20.5187726,40.9691089 20.7000806,40.5061811 20.4005282,39.968729 Z M19.0991234,48.2707426 C19.0133997,48.5100973 18.9251548,48.7485753 18.8318672,49.0063419 C19.2529218,49.0536868 19.5353058,49.0861268 19.9235837,49.1299646 C19.9235837,48.4206681 19.9235837,47.7666072 19.9235837,47.1125464 C19.8756793,47.1090394 19.8277748,47.1055323 19.7798704,47.1020253 C19.555476,47.4737703 19.3336029,47.8446386 19.0991234,48.2707426 Z M32.3048147,44.0316217 C32.3989884,44.3139375 32.4896741,44.5962533 32.5890796,44.8785691 C32.6832532,45.1494871 32.7861466,45.4204051 32.8838081,45.691323 C32.8663686,44.4822749 32.3239982,43.3144343 31.7920917,42.145717 C31.8025554,42.4981734 31.8932411,42.8444925 32.0048543,43.1890581 C32.0903081,43.4512085 32.2036653,43.7116053 32.3048147,44.0316217 Z M38.2282799,46.5277494 C38.3243781,47.0029517 38.3677773,47.4807844 39.0032656,47.9682614 C39.5829549,47.5097174 39.3814586,46.8521495 38.2282799,45.5089575 C38.2251799,45.8280971 38.2251799,46.14636 38.2282799,46.5277494 Z M28.3968813,39.7644446 C28.2461831,39.5548996 28.095485,39.3462314 27.9170267,39.0998626 C27.4470864,39.5890931 27.1793989,40.6008709 27.4133776,40.8112926 C27.7326197,40.5614168 28.0736734,40.3071573 28.3770526,40.0450069 C28.4524017,39.9827571 28.4048128,39.8924511 28.3968813,39.7644446 Z M29.9414111,40.9647251 C29.8303241,40.7297542 29.7192372,40.4947833 29.6081503,40.2606891 C29.5315386,40.2633194 29.4530116,40.2659497 29.3763999,40.2677032 C29.1887013,40.6210363 29.0010027,40.9734927 28.8496946,41.2584388 C29.1101743,41.402227 29.3304329,41.5232195 29.5851668,41.6635006 C29.7039149,41.4372972 29.8169171,41.2268755 29.9414111,40.9647251 Z M22.7079169,38.3853055 C22.5411877,38.7097057 22.8951667,38.9928983 23.2491458,39.3243125 C24.3803396,38.748283 23.2773615,38.2581758 23.22093,37.7514101 C23.1568034,37.7505334 23.0901117,37.7487798 23.0259851,37.7479031 C22.9285126,37.9425432 22.8336051,38.1371833 22.7079169,38.3853055 Z M36.020714,39.8871906 C35.4582384,40.3001432 35.7679159,40.6578601 36.4567906,41.0567846 C36.5958295,40.8270743 36.7348684,40.6569834 36.7959612,40.4816319 C36.8844406,40.2150978 36.7643615,39.9757431 36.020714,39.8871906 Z M28.8340668,43.1197943 C28.7927281,42.7235 28.7532685,42.3280825 28.7119298,41.9317883 C28.663075,41.9309115 28.6160993,41.9300348 28.5672445,41.929158 C28.2797529,42.1483473 27.9922613,42.3675366 27.7423503,42.5586697 C28.1200353,42.8076687 28.4545027,43.0286115 28.7983652,43.2565684 C28.8115184,43.2232516 28.8227926,43.1943186 28.8340668,43.1197943 Z M26.4956016,41.3434842 C26.7027647,41.5880995 26.913216,41.8335915 27.1203791,42.0782067 C27.2749293,42.0711927 27.4327679,42.0633019 27.5873181,42.0562878 C27.3571369,41.3715405 27.1269557,40.6867931 26.8934862,40.0020458 C26.8573149,40.0002923 26.8244319,39.9985387 26.7882605,39.9967852 C26.6797465,40.427273 26.5679443,40.8586375 26.4956016,41.3434842 Z M17.2994495,45.6343338 C17.0371936,45.4116375 16.7718882,45.1889412 16.5096322,44.9662448 C16.4089992,44.9723821 16.3083661,44.9785194 16.207733,44.9846567 C16.207733,45.5440278 16.207733,46.1025221 16.207733,46.6618932 C16.2412774,46.6680305 16.2717722,46.6732911 16.3053166,46.6794284 C16.6346612,46.3480141 16.9609564,46.0165999 17.2994495,45.6343338 Z M21.3137002,43.8930941 C21.1847434,43.604641 21.0557866,43.3170646 20.9056314,42.9786364 C20.7501766,43.301283 20.6265194,43.5555426 20.5169945,43.7834994 C20.8491024,44.0588012 21.1600119,44.3165678 21.472688,44.5743344 C21.5186178,44.5664436 21.5627811,44.557676 21.608711,44.5497852 C21.5115517,44.348131 21.4143925,44.1473537 21.3137002,43.8930941 Z M32.2805132,34.2356139 C32.4263124,34.0856884 32.5356617,33.9199813 32.7258345,33.7884677 C33.1315365,33.5079054 32.9683048,33.2396177 32.7813016,32.9634392 C32.7337584,32.9581787 32.6862152,32.9520414 32.638672,32.9467808 C32.3882778,33.4772189 32.1362988,34.007657 31.8859047,34.5389719 C31.925524,34.5459859 31.9667281,34.5538767 32.0063474,34.5608908 C32.0824166,34.466201 32.1600704,34.3715112 32.2805132,34.2356139 Z M31.1282319,41.2519787 C31.0343382,41.0652876 30.9404445,40.8776488 30.8296981,40.6587369 C30.0737333,40.8387943 29.9485417,41.0662352 30.0929935,41.3164203 C30.208555,41.5154311 30.4469006,41.6973838 31.1306394,41.7504534 C31.133047,41.587454 31.133047,41.4500418 31.1282319,41.2519787 Z M19.4903118,42.7787357 C19.6322981,42.8935909 19.7711291,43.0084461 19.9131153,43.1233013 C20.0456358,43.1162872 20.1750011,43.1083964 20.3075216,43.1013824 C20.3990238,42.6726481 20.4905261,42.2430371 20.5820283,41.8143028 C20.4274211,41.8090423 20.2759691,41.8037817 20.1213618,41.7976444 C19.9194258,42.106263 19.7174898,42.4148815 19.4903118,42.7787357 Z M23.4671195,41.8555104 C23.1329205,41.9826402 22.8019045,42.10977 22.5186311,42.2176111 C22.8496472,42.5253529 23.1424691,42.7936406 23.4321081,43.062805 C23.4925822,43.059298 23.5530563,43.0549142 23.6103476,43.0514072 C23.6103476,42.6463454 23.6103476,42.2412836 23.4671195,41.8555104 Z M23.0893644,47.4422071 C23.2804363,46.7337873 22.4791039,46.1165503 22.2041943,45.4502148 C22.1457029,45.4563521 22.0852617,45.4616126 22.0267703,45.4677499 C22.3757691,46.1367157 22.7267176,46.8056814 23.0893644,47.4422071 Z M20.5878811,48.099775 C20.5878811,47.3229681 20.5878811,46.5452845 20.5878811,45.7684777 C20.3258691,45.7684777 20.0638571,45.7684777 19.8018452,45.7684777 C19.8018452,46.5444078 19.8018452,47.3194611 19.8236795,48.0953912 C19.8236795,48.106789 20.1730288,48.1181869 20.5878811,48.099775 Z M19.0210262,44.6935734 C18.8609355,44.5340036 18.6953245,44.3744338 18.5352338,44.214864 C18.4193061,44.2157407 18.3033784,44.2174942 18.1874507,44.218371 C18.1874507,44.7426718 18.1874507,45.2678493 18.1874507,45.7605868 C19.3798501,45.4668732 19.4902574,45.1135401 19.0210262,44.6935734 Z M31.0344098,24.7993528 C30.9752298,24.7751323 30.9144923,24.7509118 30.8148207,24.7096473 C30.6232641,25.07744 30.4426092,25.4263946 30.2603969,25.7753491 C30.2977738,25.7843197 30.3335933,25.7932902 30.3709702,25.8013637 C30.6933458,25.5510853 31.0172788,25.3008068 31.3521134,25.0406607 C31.2617859,24.9671022 31.1776879,24.8971318 31.0344098,24.7993528 Z M28.5749998,44.1606588 C28.9520918,43.7426672 28.3914417,43.4340236 27.9345418,43.0689423 C27.8028589,43.2232641 27.7030991,43.3414305 27.6073297,43.4534241 C27.9165851,43.6879932 28.2058885,43.9102166 28.5749998,44.1606588 Z M31.5387121,39.4584563 C31.5262057,39.4295233 31.516826,39.3997136 31.4980664,39.3471082 C30.2411776,39.7057018 30.2005319,40.1011193 30.9071411,40.5342374 C31.1166225,40.1914253 31.326104,39.8486133 31.5387121,39.4584563 Z M35.0869451,38.4607067 C35.4012685,38.6851565 35.7195706,38.9096063 36.033894,39.1331794 C36.1651936,38.8596312 36.2129389,38.5922202 36.1532573,38.3256861 C36.1094907,38.1266622 35.9224882,37.9293918 35.8031249,37.7321215 C35.7315069,37.7294912 35.6598889,37.7277377 35.588271,37.7251074 C35.4052472,37.9530643 35.2222235,38.1801444 35.0869451,38.4607067 Z M27.1505146,35.9558114 C27.0724512,36.0724201 26.9861707,36.1881521 26.9245417,36.3047608 C26.8588041,36.4318906 26.7930665,36.5598971 26.7766321,36.6879037 C26.7643063,36.7931145 26.8218267,36.8992022 26.8464783,37.0052898 C26.9574105,37.0052898 27.064234,37.0052898 27.1751662,37.0052898 C27.5860261,36.5511296 28.3255739,36.1031066 27.4750939,35.6270275 C27.4011392,35.7208405 27.3189672,35.8137768 27.1505146,35.9558114 Z M28.0414783,39.362013 C27.7695791,39.2541719 27.4935602,39.1463308 27.221661,39.0376129 C27.1310279,39.0428734 27.0403949,39.0472572 26.9497618,39.0525178 C26.9497618,39.4531958 26.9497618,39.852997 26.9497618,40.2536751 C27.0857114,40.2571821 27.221661,40.2615659 27.3617303,40.2650729 C27.5965523,39.9801268 27.8354941,39.6951808 28.0414783,39.362013 Z M19.1939679,45.8272204 C19.1939679,45.9315545 19.1939679,46.0350118 19.1939679,46.1393459 C20.0244189,45.7614636 20.1799341,45.3458807 20.2856844,44.8671713 C19.4272407,45.1661455 19.3432625,45.4730105 19.1939679,45.8272204 Z M28.8277757,41.6275536 C28.8277757,41.9888284 28.8277757,42.3492264 28.8277757,42.7105012 C29.0017402,42.7131319 29.1757048,42.7166394 29.3496693,42.71927 C29.5552638,42.4360376 29.8438868,42.153682 29.9190078,41.8678189 C29.9387765,41.7888996 29.3496693,41.7003347 28.8277757,41.6275536 Z M37.5338698,45.2248882 C37.8080188,44.7566999 38.0821679,44.2876348 38.3584927,43.8194465 C37.8232493,44.3691732 37.1987987,44.9092556 37.2727754,45.5247392 C37.348928,45.4414472 37.4250805,45.3590321 37.5338698,45.2248882 Z M33.426367,42.629687 C33.4789504,42.7822427 33.5315337,42.9347985 33.588162,43.0864775 C34.2515213,42.6857995 34.9431948,42.293889 34.1908482,41.8695385 C33.9522007,42.106263 33.7216428,42.3421106 33.426367,42.629687 Z M20.5932723,44.661118 C20.7234757,44.951447 20.8505033,45.2427702 21.0061121,45.589773 C22.0350359,45.1532853 21.8667243,44.7824198 20.6885431,44.4980565 C20.6694889,44.5348448 20.6504348,44.5706388 20.5932723,44.661118 Z M30.3469315,46.1638951 C30.4961863,45.8649209 31.1508125,45.5852354 30.5354639,45.2511909 C30.2579023,45.6387176 29.9803408,46.0253675 29.7027793,46.4128942 C29.7708604,46.4181547 29.8363231,46.4234153 29.9044042,46.4286758 C30.0458035,46.3532747 30.1924397,46.2778736 30.3469315,46.1638951 Z M24.7683546,35.2526032 C24.5713455,35.5762779 25.1831107,35.7737744 25.8225263,36.0041869 C25.8225263,35.6212632 25.8225263,35.2822276 25.8225263,34.9431921 C25.749944,34.9333173 25.6808179,34.9234424 25.6082356,34.9124704 C25.3697509,35.0101214 25.1312662,35.1077725 24.7683546,35.2526032 Z M22.0232633,42.9586247 C22.3849362,42.7517449 22.749958,42.5439695 23.1149798,42.3361941 C22.8805621,42.1740935 22.6595398,42.0209487 22.4385174,41.8669083 C22.351448,41.8713862 22.2643786,41.8758641 22.1773092,41.880342 C22.1170303,42.2260373 22.0534027,42.5717326 22.0232633,42.9586247 Z M27.29015,46.3383698 C27.5190583,46.6601397 27.7444449,46.9827863 27.9733532,47.3045562 C28.0226565,47.3019259 28.0719599,47.2984189 28.1212632,47.2957886 C27.7690966,46.6022737 27.41693,45.9087588 27.068285,45.2152439 C27.0541984,45.2143671 27.0436334,45.2143671 27.0295467,45.2134904 C27.110545,45.5694538 27.1880217,45.9245404 27.29015,46.3383698 Z M23.0310375,37.773329 C23.2742285,37.97586 23.5147762,38.1775141 23.7579673,38.380045 C23.853129,38.3695239 23.9482908,38.3590028 24.0460959,38.347605 C23.7553239,37.9732297 23.464552,37.5988544 23.1737801,37.2236023 C23.0997654,37.2262326 23.0283941,37.2288628 22.9543794,37.2306164 C22.9755265,37.3954467 22.9966735,37.5594003 23.0310375,37.773329 Z M20.1733057,47.7841424 C20.1733057,48.0480463 20.1733057,48.3119502 20.1733057,48.5758541 C20.5402692,48.5758541 20.9072327,48.5758541 21.2650221,48.5758541 C21.2650221,48.1585177 21.2650221,47.742058 21.2650221,47.3247216 C20.9897995,47.3238449 20.723751,47.3229681 20.4485283,47.3220914 C20.3659615,47.457112 20.2742206,47.5930093 20.1733057,47.7841424 Z M20.3669415,46.4488412 C20.3375079,46.4453342 20.3053986,46.4391969 20.2759651,46.4391969 C20.2572347,46.4391969 20.2197738,46.4479645 20.2197738,46.4514715 C20.4552421,46.8696847 20.6960619,47.2878978 20.9342059,47.7052342 C21.0599674,47.6964667 21.1857288,47.6868223 21.3114903,47.6780548 C21.0144792,47.2817605 20.7174681,46.886343 20.3669415,46.4488412 Z M30.951016,42.7859036 C31.0356649,42.3943915 30.8789077,42.0308445 29.8850671,41.6941871 C29.819229,42.1685191 30.3051763,42.5073277 30.951016,42.7859036 Z M20.9055745,42.4823918 C21.1478095,42.78838 21.3900445,43.0943683 21.6322794,43.4003565 C21.7384646,43.395096 21.8479681,43.3889587 21.9541533,43.3836982 C21.685372,42.9996785 21.4132725,42.6156589 21.1444912,42.2316392 C21.0515792,42.236023 20.9553488,42.2404068 20.8624368,42.2447906 C20.8790282,42.3079171 20.8956197,42.3710436 20.9055745,42.4823918 Z M41.3259491,48.6897254 C41.565833,48.7818719 41.8057169,48.8740184 42.0504963,48.9661649 C42.1728861,48.9608993 42.2952758,48.9556338 42.4176656,48.9503683 C42.2854846,48.5914358 42.1533037,48.2325033 42.0211228,47.8744484 C41.9525846,47.8762035 41.8840463,47.8779587 41.815508,47.8797139 C41.6441624,48.1324585 41.4728168,48.3852032 41.3259491,48.6897254 Z M16.2885485,48.1637782 C16.0543104,47.8420084 15.8200724,47.5211152 15.5858344,47.1993454 C15.4561669,47.2037291 15.3264995,47.2072362 15.196832,47.21162 C15.4101559,47.5842418 15.6234798,47.9577403 15.8368037,48.3303621 C15.9037289,48.3294853 15.970654,48.3277318 16.0375792,48.3268551 C16.1128699,48.287401 16.1839779,48.2479469 16.2885485,48.1637782 Z M41.1303846,47.6500251 C41.2714207,47.7500667 41.4063248,47.8501083 41.5657569,47.9666617 C42.5100857,47.5159887 42.3383895,47.1439892 41.0751965,46.8749452 C41.0751965,47.118736 41.0751965,47.3547565 41.1303846,47.6500251 Z M17.7965404,42.2105971 C17.9336169,41.9160067 18.0706934,41.6214163 18.2077699,41.3268258 C17.801436,41.6047579 17.5272829,41.8853202 17.3804153,42.167636 C17.228652,42.4517053 17.1992784,42.7375281 17.1160534,43.023351 C17.1650093,43.023351 17.2139652,43.0242277 17.2580255,43.0242277 C17.4342667,42.7717217 17.6056124,42.5209691 17.7965404,42.2105971 Z M23.4804337,40.2262548 C23.5298966,40.2379504 23.5793595,40.2505457 23.6358885,40.2595424 C23.6535538,40.2622414 23.7242151,40.2514454 23.7312812,40.2442481 C24.0139262,39.8915797 24.2930382,39.5380117 24.5721502,39.1853433 C24.4449599,39.1799453 24.3142366,39.1736477 24.1870463,39.1682497 C23.946798,39.5047241 23.7100828,39.8420982 23.4804337,40.2262548 Z M20.0602415,40.1012399 C20.0876199,40.1539909 20.1149984,40.2078887 20.1389546,40.2606397 C20.1902892,40.2617864 20.2450461,40.26408 20.2963808,40.2652267 C20.498297,39.9108776 20.7036355,39.5553817 20.9055517,39.2010325 C20.8131494,39.1918584 20.720747,39.1826843 20.6283447,39.1735102 C20.35456,39.3214424 20.0807753,39.4705213 19.8138352,39.6150132 C19.8959706,39.7675324 19.9678391,39.9028502 20.0602415,40.1012399 Z M35.3485872,37.1315428 C35.0804463,37.3998305 34.802729,37.6681182 34.5345881,37.9372826 C34.8984936,37.9381594 35.2623991,37.9399129 35.6263045,37.9407897 C35.6263045,37.3972002 35.6263045,36.8536108 35.6263045,36.3100213 C35.5305399,36.3091446 35.4251989,36.3082678 35.3294343,36.3073911 C35.3294343,36.5607739 35.3294343,36.8150335 35.3485872,37.1315428 Z M28.7120437,45.0977584 C28.7120437,45.4616639 28.7120437,45.8255694 28.7120437,46.1894749 C30.4296198,45.8090751 29.8799954,45.4307371 28.7120437,45.0977584 Z M20.5422155,44.9426913 C20.5816367,44.9833764 20.6254379,45.0240615 20.6779995,45.0742398 C21.6854286,44.5575392 21.6766684,44.3907303 20.2969284,43.9825233 C20.384531,44.3527576 20.4502329,44.6144983 20.5422155,44.9426913 Z M20.9118241,46.1568362 C20.8616126,46.0869 20.8068363,46.0169638 20.7566247,45.9482129 C20.2590734,46.3334548 20.3731907,46.6973603 21.1217999,47.0399294 C21.2633053,47.0340026 21.4048107,47.0292611 21.5463161,47.0233343 C21.3545991,46.7542576 21.1674468,46.4863663 20.9118241,46.1568362 Z M25.0773036,35.3676612 C25.9419186,35.0798033 25.9379342,34.7261055 25.6550418,34.2759447 C24.9139431,34.6219867 24.336205,34.9083134 25.0773036,35.3676612 Z M15.9800475,46.8880772 C15.7997049,46.6607666 15.6193624,46.4324133 15.4390198,46.2051027 C15.3456282,46.2134444 15.2490161,46.2217861 15.1556244,46.2301277 C15.4261382,46.5856916 15.696652,46.9412554 15.9671659,47.2968192 C16.0605575,47.2895202 16.1539492,47.2822213 16.2473409,47.2749223 C16.1668308,47.1654379 16.0895411,47.0559534 15.9800475,46.8880772 Z M35.1456878,40.4299033 C35.164592,40.4684806 35.1787701,40.5070579 35.1976743,40.5456352 C35.2780171,40.546512 35.3536338,40.5482655 35.4339766,40.5491422 C35.7033612,40.185288 35.9680197,39.8214338 36.2374043,39.4575796 C36.100349,39.4540725 35.9632937,39.4505655 35.8262383,39.4470585 C35.5993882,39.759184 35.377264,40.0713096 35.1456878,40.4299033 Z" id="形状"></path>
                        <path d="M34.5179297,13.3161879 C34.2715609,13.6151621 34.0383435,13.8939708 33.8024958,14.1771634 C33.3351843,13.5537891 33.5929509,12.9663618 33.8016191,12.4192653 C34.0094105,11.8765526 34.3320572,11.3776778 34.6091124,10.8621445 C34.6476897,10.7911272 34.7143233,10.7358915 34.7949849,10.6420785 C35.0290791,11.5889762 34.8642488,12.4508285 34.5179297,13.3161879 Z" id="路径"></path>
                        <path d="M32.7001637,17.4246719 C32.7884459,17.1476167 32.8477211,16.8644241 32.9650104,16.5926294 C33.1945442,16.0630681 33.4556074,15.5405208 33.7027976,15.0153433 C33.7318046,15.0214806 33.7608116,15.0276179 33.7898187,15.0337552 C33.4429956,15.8210831 33.0961726,16.6075343 32.7203425,17.4071368 C32.6925966,17.4211649 32.6976413,17.4237952 32.7001637,17.4246719 Z" id="路径"></path>
                        <path d="M28.6526194,25.4706725 C28.7178366,25.2076453 28.7807246,24.9735512 28.842448,24.7403338 C28.8925255,24.7350732 28.9437675,24.7306894 28.993845,24.7254289 C29.1592172,25.0340474 29.3804898,25.3338984 29.4736572,25.6539147 C29.597104,26.0773884 29.6460169,26.515767 29.6774609,26.9506386 C29.7007527,27.2610106 29.5435327,27.5389426 29.1231148,27.7405968 C29.0380995,28.3893971 28.9507551,29.057486 28.8634107,29.725575 C28.8354604,29.7238215 28.8075102,29.7229447 28.7783954,29.7211912 C28.8284729,29.2039045 28.8575877,28.6839875 28.9391092,28.169331 C28.9787053,27.9194552 28.9647302,27.7011427 28.836625,27.461788 C28.5710979,26.9681737 28.5745917,26.4394891 28.5978835,25.9151884 C28.6060357,25.7766607 28.6328213,25.6381331 28.6526194,25.4706725 Z" id="路径"></path>
                        <path d="M24.6607027,35.5375983 C24.5592864,35.6825067 24.4220761,35.8448478 24.2629917,36.0017412 C24.0541935,36.2076638 23.8294868,36.4081387 23.5689862,36.6293147 C23.6266543,36.3242443 23.726082,35.9995621 23.8135784,35.7162824 C23.837441,35.7391627 23.9309031,35.8295943 24.0541935,35.9472643 C24.2510604,35.8088931 24.4340074,35.6803277 24.6607027,35.5375983 Z" id="路径"></path>
                    </g>
                </g>
            </g>
        </g>
    </g>
</svg>
