<?xml version="1.0" encoding="UTF-8"?>
<svg width="52px" height="61px" viewBox="0 0 52 61" version="1.1" xmlns="http://www.w3.org/2000/svg" xmlns:xlink="http://www.w3.org/1999/xlink">
    <title>11</title>
    <g id="页面-1" stroke="none" stroke-width="1" fill="none" fill-rule="evenodd">
        <g id="植物" transform="translate(-84.000000, -238.000000)" fill="#545458">
            <path d="M134.911862,289.4559 C135.226707,289.426092 135.258378,289.021824 135.098161,288.809443 C134.578387,288.142494 134.310117,288.257999 133.551881,287.728911 C131.718702,286.434135 129.881796,285.195248 128.197656,283.704858 C127.752402,283.313631 127.322052,282.900048 126.889839,282.495779 C129.699224,283.637791 132.750797,284.315918 135.493114,284.230221 C135.990532,284.220906 135.681276,283.591216 135.480073,283.434725 C133.941246,282.255454 132.089436,281.519574 130.518938,280.344029 C128.372777,278.751175 126.345847,277.016734 124.434422,275.142568 C124.004072,274.742026 123.586762,274.320991 123.180631,273.886915 C123.657556,274.395511 124.222041,274.77556 124.874087,275.019611 C125.364052,275.259937 126.036591,275.51144 126.56009,275.669794 C128.078425,276.128089 129.442131,276.392633 131.005178,275.986502 C131.06293,275.973461 131.105779,275.947379 131.13745,275.915708 C131.251092,275.815107 131.245503,275.634397 131.152354,275.485358 C130.250668,273.994968 128.229327,272.992681 126.994166,271.824588 C124.918798,269.851685 122.828527,267.830343 121.146249,265.501609 C120.345164,264.389406 119.538491,263.273476 118.754173,262.151958 C118.724365,262.107246 118.800748,262.12215 118.93302,262.166862 C119.298166,262.287956 120.086209,262.643787 120.190537,262.692224 L120.181222,262.692224 C121.641804,263.353585 123.040907,264.022397 124.669158,264.022397 C124.725048,264.022397 124.769759,264.007493 124.803293,263.983274 C124.82006,263.972097 124.833101,263.957193 124.844279,263.944152 C124.855457,263.932974 124.864772,263.916207 124.874087,263.897577 C124.920661,263.800702 124.900168,263.664704 124.793978,263.569691 C121.448053,260.56283 118.50267,257.406929 115.687696,253.876568 C114.957405,252.967431 114.223388,252.028485 113.660766,250.99639 C113.286306,250.312674 113.504275,250.457987 113.826572,250.733709 C113.826572,250.737435 113.828435,250.737435 113.828435,250.741161 C113.984926,250.873433 114.163773,251.037376 114.309086,251.147292 C114.346345,251.173374 114.379879,251.199456 114.409687,251.221811 C115.460412,251.909254 116.321112,252.48678 117.539506,252.738283 C117.589806,252.749461 117.630792,252.738283 117.662463,252.719653 C117.671778,252.715927 117.682956,252.712201 117.692271,252.708475 L117.694134,252.708475 L117.692271,252.704749 C117.789146,252.632093 117.789146,252.456972 117.718352,252.34333 C114.990939,247.801367 112.190869,243.464332 110.37073,238.447307 C110.337197,238.34298 110.251499,238.27405 110.163939,238.231201 C110.13972,238.21816 110.111775,238.206982 110.081967,238.195804 L110.074515,238.195804 C110.050297,238.192078 110.027941,238.188352 109.999996,238.192078 C109.972051,238.188352 109.949695,238.192078 109.927339,238.195804 L109.916162,238.195804 C109.884491,238.206982 109.858409,238.21816 109.832327,238.231201 C109.744767,238.27405 109.664658,238.34298 109.627398,238.447307 C108.610207,241.245514 107.287486,243.833204 105.841808,246.363141 C104.699797,248.363989 103.485129,250.338755 102.277914,252.34333 C102.186627,252.497958 102.216435,252.786721 102.458623,252.738283 C103.675154,252.48678 104.541443,251.909254 105.586579,251.221811 C106.01134,250.9405 106.937245,249.897227 106.341089,250.99639 C105.778467,252.028485 105.040724,252.967431 104.310433,253.876568 C101.495459,257.406929 98.550076,260.56283 95.2078767,263.569691 C95.027167,263.731771 95.0644267,264.022397 95.3326969,264.022397 C96.9609478,264.022397 98.3563253,263.353585 99.8150443,262.692224 C99.565404,262.804004 101.372502,261.971248 101.243956,262.151958 C100.457775,263.273476 99.6585534,264.389406 98.8537429,265.501609 C97.1714654,267.830343 95.0774676,269.851685 93.0058257,271.824588 C91.7725281,272.992681 89.745598,273.994968 88.8495011,275.485358 C88.7265439,275.679109 88.7414478,275.92316 88.9929511,275.986502 C90.5541344,276.392633 91.9159782,276.128089 93.4361758,275.669794 C93.9596752,275.51144 94.6396656,275.259937 95.1240423,275.019611 C95.7779509,274.77556 96.340573,274.395511 96.8212237,273.886915 C96.4150925,274.320991 95.9940574,274.742026 95.5655703,275.142568 C93.6541453,277.016734 91.6197632,278.751175 89.4829167,280.344029 C87.9049665,281.519574 86.0568831,282.255454 84.5180556,283.434725 C84.3205789,283.591216 84.00946,284.220906 84.5050147,284.230221 C87.249195,284.315918 90.3044941,283.637791 93.112016,282.495779 C92.676077,282.900048 92.2494529,283.313631 91.8023359,283.704858 C90.1181954,285.195248 88.277564,286.434135 86.4425215,287.728911 C85.6880116,288.257999 85.4197414,288.142494 84.901831,288.809443 C84.7397511,289.021824 84.7695589,289.426092 85.0881297,289.4559 C89.0134439,289.873209 92.9592511,289.444722 96.6889516,288.237506 C96.6852257,288.237506 96.6814997,288.241232 96.6777737,288.248684 C95.7779509,288.91936 94.6359396,289.169 93.8739778,290.009207 C93.6578713,290.249533 93.5255992,290.771169 93.9801681,290.841962 C94.9787293,290.99659 96.0164132,290.90903 97.0559601,290.704101 C99.9529054,290.428379 102.745523,289.010646 104.286214,286.508654 C104.819028,287.317191 105.426362,288.067974 106.095175,288.770321 C106.218132,288.897004 106.344815,289.031139 106.47895,289.167137 C106.193913,291.935536 106.093312,294.735606 106.885081,297.1016 C107.157077,297.900821 108.777876,298.783877 109.230582,297.653044 C110.067063,295.581402 109.62181,293.07941 109.457867,290.886674 C109.405703,290.161972 109.362854,289.433544 109.308828,288.710705 C110.333471,289.392558 111.434496,289.949592 112.574644,290.277477 C114.37429,290.797251 116.732832,291.611376 118.552971,291.046891 C118.871541,290.948153 118.87713,290.573692 118.640531,290.365038 C118.07232,289.869483 117.526465,289.336669 116.99365,288.790813 C117.429589,288.967797 117.87298,289.144781 118.327549,289.303135 C120.684228,290.120986 123.478709,291.23319 126.016098,290.841962 C126.47253,290.771169 126.336532,290.249533 126.122288,290.009207 C125.364052,289.169 124.222041,288.91936 123.324081,288.248684 C123.316629,288.241232 123.31104,288.237506 123.305451,288.237506 C127.033289,289.444722 130.984685,289.873209 134.911862,289.4559" id="11"></path>
        </g>
    </g>
</svg>
