<?xml version="1.0" encoding="UTF-8"?>
<svg width="52px" height="61px" viewBox="0 0 52 61" version="1.1" xmlns="http://www.w3.org/2000/svg" xmlns:xlink="http://www.w3.org/1999/xlink">
    <title>grass-leaf-plant-13-svgrepo-com</title>
    <defs>
        <rect id="path-1" x="0" y="0" width="50.8729579" height="60"></rect>
    </defs>
    <g id="页面-1" stroke="none" stroke-width="1" fill="none" fill-rule="evenodd">
        <g id="形状库素材-植物" transform="translate(-724.000000, -157.000000)">
            <g id="grass-leaf-plant-13-svgrepo-com" transform="translate(724.701837, 157.776201)">
                <mask id="mask-2" fill="white">
                    <use xlink:href="#path-1"></use>
                </mask>
                <g id="SVGID_21_"></g>
                <g id="编组" mask="url(#mask-2)" fill="#545458" fill-rule="nonzero">
                    <g transform="translate(0.918842, 0.540082)" id="路径">
                        <path d="M6.06540608,32.2488821 C5.75854108,32.0980799 5.47271824,31.9595523 5.18601865,31.8219014 C6.37051758,32.0489815 7.45155917,32.541719 8.52997048,33.0362101 C9.93190519,33.6788731 11.163749,34.5985913 12.4306631,35.4569366 C13.4959231,36.1785078 14.5454014,36.9263816 15.5755911,37.6979279 C16.2445568,38.199433 16.8766987,38.75179 17.5044568,39.3050238 C17.9901803,39.7328813 18.5153579,40.1440804 18.8906099,40.6578601 C19.3044393,41.2242453 19.5946459,41.8870737 19.8901131,42.5288599 C21.1964813,45.3669229 22.2529737,48.2970453 22.9824356,51.3315019 C23.3366455,52.8044539 23.5453137,54.313353 23.7943128,55.8099775 C23.9065377,56.4850805 23.9582664,57.1707046 24.0310372,57.8519449 C24.0459421,57.9939796 24.0336675,58.1395213 24.0336675,58.3017214 C23.6049332,58.3017214 23.1788292,58.3017214 22.7316831,58.3017214 C22.6475144,57.7958325 22.5598387,57.2881901 22.4783003,56.7796709 C22.0469357,54.0661075 21.3367624,51.4235614 20.464389,48.8187158 C19.6525119,46.3979893 18.7275331,44.0228541 17.6561358,41.7038314 C17.3589152,41.0602917 17.0415291,40.4263962 16.7302803,39.7889938 C16.6943332,39.7153462 16.6522489,39.6390683 16.5943829,39.5838326 C16.0297513,39.048134 15.4607359,38.5168191 14.8513897,38.011807 C18.0690885,44.470877 20.5853815,51.1517667 21.8110881,58.3025981 C21.2508402,58.3025981 20.7493351,58.3025981 20.2259111,58.3025981 C20.1996084,58.2491159 20.1610311,58.1886197 20.1408657,58.1237397 C19.7007336,56.6691995 18.9055148,55.411053 17.9857965,54.2151562 C16.5715872,52.3765964 14.9925476,50.6870854 13.3214484,49.081743 C12.3736739,48.1707923 11.4215156,47.2624719 10.423766,46.4076336 C9.68378291,45.7737382 8.86664523,45.229272 8.08370108,44.6453517 C8.0179443,44.5962533 7.95218751,44.5462782 7.91185668,44.4656165 C11.3846918,46.2208844 14.3288424,48.6512552 16.9538533,51.4849344 C14.4910425,45.8596604 11.2330128,40.7779759 6.6607242,36.5634042 C7.03509951,36.7799632 7.42262618,36.9772335 7.78209662,37.2165882 C8.7894906,37.8864307 9.72323699,38.6474559 10.5929801,39.4891428 C11.8072888,40.6631207 12.8795628,41.9537072 13.9229038,43.275857 C14.8987345,44.5129614 15.8026712,45.7939036 16.4576088,47.222141 C17.182687,48.8029342 17.8349943,50.4161674 18.5127276,52.0180027 C18.6968466,52.4528743 18.8564164,52.8973902 19.0922641,53.3270012 C19.0843733,53.2261741 19.0940176,53.1200865 19.0650846,53.0253967 C18.410147,50.8606833 17.6561358,48.7319169 16.7539527,46.6557559 C16.0990151,45.1468568 15.5142181,43.604641 14.7935237,42.1281819 C13.8124324,40.1195312 12.7235,38.1617325 11.6950639,36.1750007 C11.2724669,35.3578631 10.5728147,34.8361925 9.83896893,34.336441 C8.65008621,33.5298244 7.38843265,32.8591051 6.06540608,32.2488821 Z"></path>
                        <path d="M45.7412982,8.62816729 C46.6040272,8.15559517 47.4369465,7.67250197 48.4040097,7.44892889 C47.919163,7.90396586 47.4299325,8.35374229 46.9512231,8.81491656 C46.1323319,9.60399801 45.3204547,10.39834 44.5059473,11.192682 C43.2416635,12.4262793 42.2044598,13.8475027 41.1014993,15.2161206 C39.4681007,17.2414297 38.1661163,19.475407 36.9097232,21.7348102 C35.8988222,23.5532045 34.9449104,25.4031622 33.9988894,27.2557501 C33.5298244,28.1745916 33.1379139,29.1320104 32.7091796,30.0701406 C31.5185434,32.6758629 30.5356986,35.3613701 29.7010258,38.0959757 C29.2968408,39.419879 29.0294298,40.7841132 28.7120437,42.0817138 C28.7137972,42.0957419 28.7006459,42.0466435 28.7032761,41.9975451 C28.8093638,40.0037993 28.8619692,38.0056697 29.0408277,36.018938 C29.2074115,34.1698571 29.6764766,32.3698746 30.1674606,30.577783 C31.0810416,27.2425987 32.4137125,24.0801356 34.1190052,21.0754888 C34.8423298,19.8006839 35.6270275,18.5556887 36.4608236,17.3483941 C37.2990034,16.1349622 38.1985563,14.9601075 39.2725838,13.9307946 C40.1747669,13.0663121 41.04451,12.1658825 41.9721191,11.3294561 C43.1189175,10.2957594 44.3682965,9.39445305 45.7412982,8.62816729 Z"></path>
                        <path d="M18.933571,23.2849169 C19.7340503,24.2037584 20.5494345,25.0831458 21.2938013,26.0177689 C21.9776719,26.8761142 22.5843879,27.794079 23.2252974,28.685741 C23.2594909,28.7339627 23.2954379,28.7813075 23.3866207,28.9049303 C23.4067861,27.5187772 23.5365462,26.2334512 24.0126253,24.9910863 C24.0661075,25.3277611 24.1555367,25.663559 24.1669346,26.0019873 C24.2098957,27.3539469 24.2274308,28.7067832 24.2572406,30.0587427 C24.2598708,30.1709676 24.2651314,30.2902066 24.3054622,30.3927872 C24.6763305,31.3528363 25.0419382,32.3155157 25.4382325,33.2650437 C25.631119,33.7270947 25.6784639,34.1935295 25.6872315,34.6871438 C25.7459742,38.131046 25.8213753,41.5749481 25.8906392,45.0179735 C25.8967765,45.3134407 25.8915159,45.6089079 25.8915159,45.904375 C25.8634597,45.9052518 25.8354035,45.9061285 25.8073472,45.9070053 C25.7030131,44.7084782 25.5828974,43.510828 25.4987287,42.3105474 C25.3216238,39.7793494 25.0901599,37.2630564 24.1195897,34.8747699 C23.4515007,33.2299734 22.5642225,31.7061694 21.5805009,30.2349709 C20.1627846,28.1140953 18.6205687,26.0844025 16.7986673,24.2861735 C15.4773943,22.9824356 14.1289418,21.7032469 12.7436654,20.4670193 C11.3934594,19.2614782 9.89683491,18.2409329 8.36777041,17.2686092 C7.82681123,16.9249204 7.30601748,16.5514218 6.77557939,16.1910746 C6.78960751,16.1533741 6.80275886,16.1156735 6.81678698,16.0788497 C7.11050063,16.1297016 7.40772131,16.1682789 7.69792793,16.233159 C9.80652892,16.7039776 11.7152293,17.6377239 13.5134582,18.7915364 C15.4949294,20.0619575 17.283514,21.5769939 18.933571,23.2849169 Z"></path>
                        <path d="M36.2653067,37.2104509 C38.0416167,35.5647777 39.9696058,34.1795014 42.1948154,33.2282199 C41.6845428,33.5833065 41.1400766,33.8998159 40.6701347,34.3013707 C39.4584563,35.3376976 38.2678201,36.4003273 37.0920887,37.4761084 C36.5704182,37.953941 36.0724201,38.4650905 35.625274,39.0113102 C35.4227431,39.2585557 35.3306836,39.6180261 35.2579127,39.9415495 C34.8046293,41.9677353 34.3627437,43.9965514 33.9340094,46.0279978 C33.4859865,48.1506269 33.0134144,50.269749 32.6329018,52.4055294 C32.3155157,54.1888535 32.2155654,55.999357 32.2304702,57.8124909 C32.2322237,57.9659234 32.2304702,58.1202326 32.2304702,58.2929538 C31.8657393,58.2929538 31.534325,58.2929538 31.1766081,58.2929538 C31.1695941,58.2061548 31.1546892,58.1167256 31.1573195,58.0281731 C31.2195692,56.3754859 31.2081714,54.7149078 31.372125,53.0718649 C31.5124061,51.6681766 31.8403133,50.2820236 32.1112313,48.8932402 C32.4075752,47.3746968 32.7302218,45.8614139 33.0467312,44.3472543 C33.2659204,43.2986527 33.4956308,42.2526814 33.7192039,41.2058334 C33.7341088,41.1356928 33.7306017,41.0620452 33.7376158,40.9594646 C33.3877897,41.2330128 33.3237864,41.6144022 33.245755,41.9782564 C32.8845311,43.673028 32.5311979,45.3686764 32.1813718,47.0660783 C31.8911652,48.4785341 31.6097262,49.8936201 31.3247801,51.3069527 C31.2932168,51.3034457 31.2616536,51.3008154 31.2309671,51.2973084 C31.3168893,50.4380863 31.3344244,49.5665897 31.5010083,48.7231493 C31.8885349,46.7697343 32.3479557,44.8294707 32.7749364,42.8839466 C32.7933483,42.7980244 32.7775667,42.7050881 32.7775667,42.5122015 C32.5469796,42.8664114 32.3549698,43.1399597 32.1857556,43.4257825 C31.8867814,43.9307946 31.559751,44.4261624 31.3274104,44.9609843 C31.1757314,45.3099337 31.1161119,45.720256 31.1073443,46.1042757 C31.06526,47.9568635 31.0608762,49.8103282 31.0301897,51.6629161 C30.9942426,53.8171085 30.9442675,55.9713008 30.9004296,58.1254932 C30.8995529,58.1667008 30.8907853,58.2070316 30.881141,58.2798024 C30.606716,58.2798024 30.332291,58.2798024 29.9903557,58.2798024 C30.0263027,54.5728731 30.061373,50.8650671 30.0981968,47.1125464 C29.5537306,48.2365491 29.0259228,49.3316188 28.7804308,50.5923956 C28.5761464,50.0040915 28.6006956,49.4561183 28.7401,48.9090218 C29.0434579,47.7218926 29.5879241,46.6364673 30.1402811,45.5475349 C31.0626297,43.727387 32.1094777,41.987024 33.3395681,40.3553789 C34.2022971,39.2147178 35.1719905,38.1705 36.2653067,37.2104509 Z"></path>
                        <path d="M24.3589444,18.836251 C24.6482742,19.6104276 24.9612766,20.3504106 25.2155361,21.1105591 C25.7661396,22.7562323 26.2281907,24.429085 26.486834,26.1466522 C26.7358331,27.801093 26.8883888,29.4669316 26.8813748,31.1424146 C26.8796212,31.4922407 26.8813748,31.8429436 26.8813748,32.2629102 C26.8208785,32.0568723 26.7823012,31.899056 26.728819,31.7465003 C26.0835257,29.9044335 25.4487535,28.0579829 24.7850484,26.2229301 C23.941608,23.8916328 23.0911535,21.5638425 22.2135196,19.2456966 C21.1228337,16.3681796 19.9593769,13.5204723 18.4723968,10.8147997 C17.5719672,9.17526376 16.456732,7.68039279 15.319578,6.19954993 C15.2888915,6.1592191 15.2643423,6.11450449 15.1871877,5.993512 C15.3300991,6.06540608 15.3993629,6.09258556 15.4607359,6.13291639 C16.5137212,6.82467779 17.4237952,7.67250197 18.2610983,8.60975538 C20.2671187,10.8525002 21.8295,13.3889587 23.2910542,15.9938042 C23.7872987,16.8766987 24.1555367,17.8139521 24.3589444,18.836251 Z"></path>
                        <path d="M39.6723851,42.9049887 C40.9997954,41.3145512 42.4683637,39.8915744 44.0105795,38.5457521 C44.5883625,38.0416167 45.2319023,37.6120057 45.8482626,37.152585 C45.8999912,37.1140077 45.9727621,37.1017331 46.0543005,37.0991028 C41.5986206,41.7389017 37.8197972,46.817956 35.502528,52.8684572 C36.8255545,51.1596575 38.3291931,49.6227022 39.997662,48.2497004 C41.6556098,46.8845895 43.398603,45.6378408 45.3090569,44.6260631 C44.9566005,44.9057486 44.5944998,45.1757898 44.2516878,45.4677499 C43.1811673,46.3787006 42.0711927,47.2501973 41.0629219,48.2251512 C39.7670748,49.4771605 38.5624105,50.8203525 37.3060175,52.1118158 C36.0566385,53.396265 35.0781775,54.8674635 34.2794517,56.454394 C33.9901219,57.02867 33.8358126,57.6704562 33.6131163,58.2999679 C33.2974837,58.2999679 32.9345062,58.2999679 32.4750855,58.2999679 C32.5934477,57.5889178 32.657451,56.8971564 32.8266651,56.2316977 C33.5052752,53.5724932 34.5670281,51.0605839 35.8479703,48.6328433 C36.9211211,46.5961364 38.2160914,44.7119853 39.6723851,42.9049887 Z"></path>
                        <path d="M18.8055645,34.346962 C19.9216764,36.1881521 20.8352573,38.1064968 21.7672502,40.0169506 C22.1083087,40.7157261 22.5721133,41.3548821 22.9622702,42.0308619 C24.0310372,43.879066 25.0708712,45.7412982 25.530292,47.8551597 C25.5802671,48.0857469 25.6346261,48.3154572 25.6802174,48.5460444 C25.692492,48.6056639 25.681971,48.6687904 25.6609288,48.7380542 C25.1217231,47.4115206 24.7613759,46.0095859 23.916182,44.8049215 C24.400152,49.2974253 24.8832452,53.789929 25.3689686,58.2999679 C25.0121285,58.2999679 24.6719467,58.2999679 24.3203671,58.2999679 C24.2511033,57.5626151 24.1914838,56.8392904 24.1152059,56.118596 C24.0108718,55.1392583 23.8881258,54.161674 23.7829149,53.1823363 C23.6566619,52.0057281 23.5409299,50.8273665 23.4190607,49.6498816 C23.2963147,48.4618757 23.1665546,47.2747465 23.0499459,46.0858638 C22.9780518,45.3511412 22.8781015,44.615542 22.8737177,43.8799427 C22.8684572,42.9926645 22.4695327,42.2702166 22.0372914,41.5503989 C21.8636935,41.2619458 21.6664231,40.9866441 21.4296987,40.7244937 C22.2670018,42.8330947 21.9653973,45.0951282 22.3976386,47.2563346 C21.8023205,45.2108601 20.8019406,43.3477511 19.8331239,41.4662302 C20.6108075,42.1562381 21.0553234,43.0706959 21.5840079,43.9264108 C21.6085571,43.9176433 21.6331064,43.9088757 21.6585323,43.8992314 C21.6348599,43.7484291 21.619955,43.5958734 21.5857615,43.4468247 C21.5489377,43.2872549 21.4945787,43.1311921 21.4481106,42.9742526 C20.5897653,40.0432534 19.4780372,37.2148347 18.0103457,34.5258205 C16.7977906,32.3041178 15.4195283,30.1928866 13.8624076,28.1965105 C12.568314,26.5376859 11.221615,24.923576 9.71446942,23.4488704 C9.03585937,22.7851653 8.33006985,22.1477628 7.63392466,21.5015928 C7.56904463,21.4410965 7.48487594,21.4016425 7.40947482,21.3516673 C7.43577754,21.3227343 7.46208025,21.2946781 7.48838297,21.2657451 C7.92500804,21.6068036 8.37829149,21.930327 8.79475115,22.2933045 C9.69342724,23.0762486 10.6017477,23.8521787 11.4565859,24.6807143 C12.7471725,25.9327235 13.8930941,27.3118625 14.9995616,28.7278253 C16.3936055,30.5111494 17.619312,32.4005611 18.8055645,34.346962 Z"></path>
                        <path d="M1.87363007,21.594529 C3.76128825,22.2599877 5.40608469,23.298945 6.97548002,24.4737996 C8.87979659,25.8994067 10.6227898,27.5056259 12.2088436,29.2626472 C13.1925651,30.3524564 14.063185,31.5501067 14.9092556,32.751264 C16.3348628,34.776573 17.5246223,36.9404097 18.5416606,39.1954292 C18.6924628,39.5303504 18.8160856,39.8775462 18.9160359,40.2457843 C18.5495514,39.903849 18.1927112,39.5522693 17.8148289,39.2234854 C17.2361692,38.71935 16.6452348,38.2292428 16.0569308,37.7365052 C15.4835316,37.2551656 15.196832,36.5765555 14.8171961,35.9628255 C13.6581232,34.0891954 12.4911594,32.2217027 11.131309,30.4822164 C10.1055031,29.169711 9.05514803,27.8756174 7.84873016,26.7200514 C6.36438028,25.2988281 4.68451355,24.1283572 2.93713651,23.0525762 C2.1778648,22.5852646 1.39492065,22.1547769 0.635648946,21.6874653 C0.401554783,21.5436771 0.21042172,21.3306251 0,21.1491364 C0.0131513575,21.125464 0.0254259579,21.1026683 0.0385773154,21.0789958 C0.642663004,21.24821 1.24587194,21.4183008 1.87363007,21.594529 Z"></path>
                        <path d="M28.4832101,17.1029021 C28.3929041,17.467633 28.259637,17.828857 28.2193062,18.1988485 C28.1070813,19.2307917 27.9895958,20.2662419 27.9545255,21.3025689 C27.9089342,22.6641728 27.9247158,24.0284069 27.9404974,25.3917643 C27.9860888,29.3064851 28.0351872,33.2212058 28.100944,37.1359266 C28.1395213,39.4154952 28.2105386,41.6941871 28.2701581,43.9737557 C28.3131192,45.6281965 28.3508198,47.2826373 28.4104393,48.9362013 C28.5024988,51.4630155 28.6085864,53.9889529 28.7164275,56.5148903 C28.7409767,57.0961803 28.7997194,57.6757167 28.8444341,58.2876933 C28.4569074,58.2876933 28.0991905,58.2876933 27.7186779,58.2876933 C27.6914984,57.671333 27.6546746,57.06111 27.6397697,56.4491335 C27.5442032,52.5878949 27.4424993,48.7266563 27.3635912,44.8654178 C27.3092323,42.2009527 27.2820528,39.535611 27.2539966,36.8702692 C27.2285706,34.433761 27.1882398,31.9972528 27.2101587,29.5616214 C27.2312009,27.2504895 27.2794225,24.9384809 27.400415,22.630856 C27.4959815,20.8072011 27.7204314,18.9896835 27.891399,17.1695356 C27.9019201,17.059941 27.9448812,16.9538533 27.9746909,16.8389982 C28.1377678,16.9257971 28.2903235,17.0073355 28.4639214,17.0967648 C28.4867171,17.1055323 28.4832101,17.1029021 28.4832101,17.1029021 Z"></path>
                        <path d="M26.1317474,46.2612152 C26.0852792,41.9519537 26.0624836,37.6742555 25.9783149,33.397434 C25.9528889,32.1252594 25.7547418,30.855715 25.6363796,29.5852939 C25.6293655,29.5142765 25.6249817,29.4432592 25.6758336,29.357337 C25.9300932,30.1341438 26.1352544,30.9319929 26.4517637,31.6833738 C26.8910191,32.7249613 26.8664699,33.8042493 26.8831283,34.8905515 C26.9436245,38.75179 26.999737,42.6130286 27.0768916,46.4733904 C27.1207295,48.6582693 27.1961306,50.8431481 27.2680247,53.0271502 C27.3215069,54.6701932 27.3907707,56.3132361 27.4521437,57.956279 C27.4556507,58.0597364 27.4530204,58.1640705 27.4530204,58.292077 C27.1084549,58.292077 26.7691498,58.292077 26.3535669,58.292077 C26.2790426,54.2949411 26.205395,50.2934214 26.1317474,46.2612152 Z"></path>
                        <path d="M30.2788088,11.0155771 C30.2542596,11.5013005 30.2560131,11.9598445 30.1920098,12.4104977 C30.1657071,12.5954935 30.0236724,12.784873 29.8886518,12.9321682 C29.2915802,13.5862291 28.6769734,14.225385 28.0711342,14.8724318 C27.9536488,14.9978081 27.8484379,15.1345822 27.681854,15.3327293 C27.7186779,14.5103311 27.7353362,13.7659643 27.7879417,13.0242277 C27.894906,11.499547 28.0097612,9.97574305 28.1430283,8.45369261 C28.2605138,7.10874711 28.3806295,5.76292486 28.5507204,4.42411667 C28.714674,3.13089985 28.9408773,1.84469708 29.1486688,0.557617559 C29.1784785,0.372621796 29.2573867,0.195516848 29.3134991,0.0140281147 C29.3520765,0.00964432884 29.3906538,0.00438378584 29.4292311,0 C29.5230441,0.289329865 29.6598182,0.573399188 29.7027793,0.86974311 C29.8702399,2.02706257 30.0736476,3.18525879 30.1429114,4.35046907 C30.2525061,6.18552182 30.2691645,8.02583511 30.3156326,9.86439489 C30.3252769,10.2370167 30.2919601,10.6122688 30.2788088,11.0155771 Z"></path>
                        <path d="M34.4635707,33.0563755 C34.5100389,33.1405442 34.5556302,33.2247129 34.6082357,33.3211562 C34.9422802,33.0353333 35.0062834,32.7056726 34.953678,32.2699243 C34.8283017,31.2362276 34.8388228,30.1981471 35.0667797,29.1688342 C35.5989713,26.7682731 36.2828419,24.4141801 37.3375807,22.1845866 C37.7557939,21.2999386 38.2818482,20.4652658 38.7596809,19.6077973 C38.7842301,19.5648362 38.8184236,19.5271356 38.9087296,19.507847 C38.7596809,20.0654645 38.5974808,20.6195751 38.4642137,21.1806997 C37.9548178,23.3199871 37.4576965,25.4619049 36.9518076,27.6011924 C36.7238507,28.5647485 36.5195663,29.5361955 36.242511,30.4857235 C36.0741737,31.0635064 35.8120233,31.6202472 35.3324371,32.0367069 C35.2491452,32.108601 35.1974165,32.2164421 35.1237689,32.3172692 C35.2009235,32.4391384 35.2719408,32.5513634 35.354356,32.6811234 C34.7642984,33.5447292 34.7134465,34.5687816 34.6310314,35.567408 C34.5416021,36.6458193 34.3320572,37.6961744 34.0707835,38.7403922 C34.0199316,38.9437999 33.8840343,39.1252886 33.787591,39.3172984 C33.7604115,39.3085308 33.7341088,39.2988865 33.7069293,39.2901189 C33.7832072,38.8368355 33.8629921,38.3844288 33.9348862,37.9311453 C34.0190549,37.398077 34.1049771,36.8650086 34.1707338,36.3301867 C34.188269,36.1890288 34.13391,36.0391034 34.1128679,35.8935617 C34.0769208,35.8900547 34.0418505,35.8865476 34.0059035,35.8830406 C34.1663501,35.1369202 34.3346874,34.3925534 34.4828594,33.6438028 C34.5179297,33.4649443 34.4863664,33.2729345 34.4758453,33.0704036 C34.466201,33.0537452 34.4635707,33.0563755 34.4635707,33.0563755 Z"></path>
                        <path d="M10.4176287,31.6763597 C11.5144519,33.0958296 12.5981237,34.4968875 13.6817956,35.8979455 C13.6598767,35.9207412 13.6388345,35.9426601 13.6169156,35.9654558 C13.3284625,35.7646784 13.0417629,35.5621475 12.7506795,35.3648771 C12.1185376,34.9361429 11.4618465,34.5398486 10.8612678,34.0716603 C10.5640471,33.8401964 10.3422275,33.4956308 10.1335593,33.1729842 C8.73600842,31.014408 7.35073209,28.8470643 5.9628255,26.6823509 C5.91548061,26.6078265 5.88041032,26.5254113 5.88742438,26.396528 C5.9566882,26.4429962 6.03822661,26.4789432 6.09346231,26.5385627 C6.90796972,27.429348 7.7435193,28.3025981 8.52207967,29.2231931 C9.18490809,30.0043838 9.77934945,30.8434404 10.4176287,31.6763597 Z"></path>
                        <path d="M22.920793,40.8805564 C22.7613095,38.315165 22.8585555,35.7822135 23.1172299,33.2369875 C23.3340886,33.6946547 23.5577544,34.1496917 23.761971,34.6108659 C23.8154563,34.7309817 23.8290708,34.8721396 23.8271259,35.0027764 C23.8067042,36.2293597 23.7444667,37.4568197 23.7639159,38.6825262 C23.787255,40.1642458 23.8786662,41.6450887 23.9350689,42.9988018 C23.6841742,42.5586697 23.3506204,41.9931613 23.0423505,41.4162551 C22.9606639,41.2654528 22.9596914,41.0795803 22.920793,40.8805564 Z"></path>
                        <path d="M30.2621504,40.9927814 C30.3296607,39.0419967 30.7057895,37.1639828 31.137154,35.2824619 C31.1617032,36.2740743 31.2125552,37.2665634 31.2029108,38.2581758 C31.1906362,39.6092586 31.13014,40.9594646 31.0977,42.3105474 C31.0863021,42.7769822 31.0459713,43.2127305 30.7776836,43.6353275 C30.4488997,44.1508607 30.209545,44.7225064 29.9824649,45.1687758 C30.0701406,43.8545168 30.1648303,42.4385539 30.2621504,40.9927814 Z"></path>
                        <path d="M24.5492007,8.97185609 C24.584271,8.64044189 24.7201683,8.44229477 25.1261069,8.45719964 C25.2006313,8.62202999 25.3093492,8.79650466 25.3619546,8.98676097 C25.93097,11.037496 26.5210276,13.0838472 27.035684,15.1486103 C27.183856,15.7421749 27.1110851,16.3900985 27.12599,17.0134728 C27.1277435,17.0985183 27.0532192,17.1853172 27.0146418,17.2721162 C26.9857089,17.2659789 26.9558991,17.2598416 26.9269661,17.2545811 C26.9269661,16.8837128 26.9269661,16.5119677 26.9269661,16.1393459 C26.8313996,16.1656487 26.7226817,16.1963352 26.5341789,16.2480638 C26.4394891,15.8999912 26.3430459,15.5808516 26.2658912,15.2573282 C25.9756846,14.037759 25.721425,12.8094222 25.3952714,11.6003741 C25.1874799,10.8297045 24.8744776,10.0862145 24.613204,9.32957302 C24.5781337,9.22260864 24.5702429,9.10775346 24.5492007,8.97185609 Z"></path>
                        <path d="M37.9407897,29.1267499 C38.6036181,28.2868165 39.2497881,27.461788 39.8994652,26.6393898 C39.9897712,26.5254113 40.0888447,26.4131864 40.2036999,26.3272642 C40.2852383,26.266768 40.4439314,26.1931204 40.4912763,26.2281907 C40.5842125,26.2965777 40.6946839,26.4561475 40.6701347,26.5429465 C40.6122688,26.754245 40.5088114,26.9664202 40.3746676,27.1408949 C39.694304,28.0281731 39.0244615,28.9259725 38.3002601,29.7773037 C37.6672414,30.5207938 36.971973,31.2125552 36.2907327,31.9139609 C36.1863986,32.021802 36.0110471,32.0621329 35.8690125,32.1331502 C35.8435865,32.1129848 35.8181606,32.0919426 35.7927346,32.0717772 C35.8576146,31.9446474 35.9049595,31.805243 35.990005,31.6921413 C36.5607739,30.9293626 37.1394336,30.1718444 37.7154631,29.4125727 C37.7847269,29.3222667 37.8548675,29.2319607 37.9407897,29.1267499 Z"></path>
                        <path d="M24.6798375,18.8835959 C24.500979,18.2497004 24.3247509,17.6403542 24.1397551,17.0011982 C24.4019055,17.3527779 24.6289856,17.7087413 24.9077944,18.0208668 C25.468919,18.6495017 26.0694976,19.2430663 26.6279919,19.8743315 C26.8349066,20.1084256 26.999737,20.392495 27.12599,20.6783178 C27.2276938,20.9097817 27.1636906,21.1552737 26.912938,21.2955548 C26.6569249,21.439343 26.3675951,21.4893182 26.1633106,21.258731 C25.8099775,20.8606833 25.4733027,20.4415934 25.1857264,19.9944472 C24.9709209,19.663033 24.8464214,19.2728761 24.6798375,18.8835959 Z"></path>
                        <path d="M30.5365754,18.0839933 C30.3130023,18.3101967 30.1244995,18.561826 29.8728702,18.7021071 C29.7203145,18.7871526 29.4458895,18.7529591 29.270538,18.6749277 C29.057486,18.5802379 29.0267995,18.3417599 29.1425315,18.1339685 C29.3459392,17.7701143 29.5388257,17.3948622 29.786948,17.0616945 C30.455037,16.1656487 31.1494286,15.2897682 31.8350528,14.405997 C31.8648625,14.3674197 31.9087004,14.3402402 31.9963761,14.3323494 C31.9271123,14.5410176 31.8648625,14.7523161 31.7877079,14.9574773 C31.4326212,15.8964842 31.075781,16.8337376 30.7136803,17.7701143 C30.6742263,17.8744484 30.6023322,17.9656311 30.5365754,18.0839933 Z"></path>
                        <path d="M26.7586288,17.8928603 C26.7147909,17.9989479 26.6744601,18.0813631 26.6464038,18.139229 C26.1378847,18.4338194 25.688985,18.2119999 25.508373,17.6912061 C25.2926908,17.0730923 25.1410118,16.4330596 24.9735512,15.7991642 C24.8578192,15.3616623 24.7771576,14.9145162 24.6544115,14.4787679 C24.5325423,14.0465266 24.3773563,13.6239296 24.3010784,13.1627554 C24.5430634,13.5914896 24.7771576,14.0254844 25.0296636,14.4489581 C25.5311687,15.290645 26.050209,16.1218108 26.5464535,16.9670047 C26.7060233,17.2387994 26.8778677,17.5246223 26.7586288,17.8928603 Z"></path>
                        <path d="M38.3195488,31.188006 C37.8610048,31.6439197 37.42701,32.0928194 36.9702195,32.5189233 C36.8001286,32.6776164 36.5932139,32.8292954 36.3757781,32.899436 C36.1109975,32.9836046 35.961072,33.1256393 35.8558611,33.3693778 C35.7927346,33.5157962 35.6656048,33.6350352 35.5665313,33.7683023 C35.4569366,33.7341088 35.3718912,33.7069293 35.2649268,33.6736125 C35.3043809,33.8594851 35.3429582,34.0409738 35.3806587,34.2233393 C35.350849,34.2294766 35.3201625,34.2356139 35.2903527,34.2408744 C35.1202619,34.0462343 35.1430575,33.7849607 35.2175819,33.5675249 C35.3675074,33.1300231 35.5682848,32.725838 36.0434872,32.5075255 C36.2889792,32.3944238 36.4932636,32.176988 36.6949177,31.9849782 C37.4875062,31.2300903 38.2520385,30.4453926 39.0656691,29.7141772 C39.5654207,29.2652775 40.1344361,28.8935325 40.6753953,28.4902242 C40.7350148,28.4455095 40.8139229,28.4270976 40.9261478,28.4516468 C40.0616653,29.3582138 39.1989362,30.2656574 38.3195488,31.188006 Z"></path>
                        <path d="M27.5442032,15.9876669 C28.1535494,15.3222083 28.7699097,14.6628869 29.3704884,13.9904141 C30.1534325,13.113657 30.9127042,12.2167344 31.7061694,11.3496215 C32.1471783,10.8674051 32.635532,10.4290265 33.1168717,9.98188035 C31.4668147,12.0659321 30.0385773,14.3244586 28.1097115,16.1446065 C27.9466347,16.1042757 27.768653,16.0604378 27.5687524,16.0034486 C27.5459567,15.9902972 27.5442032,15.9876669 27.5442032,15.9876669 Z"></path>
                        <path d="M31.1038373,17.9051349 C31.1774849,17.8104451 31.2406114,17.735044 31.3037379,17.6587661 C30.8574685,18.7117515 30.6637052,19.8734547 29.8939124,20.767747 C29.7229447,20.9667709 29.5098927,21.1561505 29.2766753,21.2666219 C29.1355174,21.3332554 28.8891487,21.2902943 28.7409767,21.2070024 C28.5577345,21.103545 28.4849636,20.9001374 28.5577345,20.6634129 C28.7313324,20.0979046 29.1530526,19.7217757 29.5598679,19.3368793 C30.0640033,18.8581699 30.58129,18.3943654 31.1038373,17.9051349 Z"></path>
                        <path d="M36.3126516,35.1456878 C36.2512786,35.1676067 36.2144548,35.1921559 36.1750007,35.19917 C35.9347693,35.2421311 35.6752491,35.3640004 35.4972674,35.0816845 C35.3587398,34.8624953 35.4332642,34.4811059 35.6884005,34.2715609 C35.9224947,34.0795511 36.1802613,33.9085835 36.4494257,33.7683023 C37.4059678,33.271181 38.3712774,32.7915948 39.33308,32.3058714 C39.4593331,32.2418681 39.5890931,32.1857556 39.75217,32.1848789 C39.4575796,32.4005611 39.1410702,32.5916942 38.874536,32.8371862 C38.3695239,33.3027442 37.9057194,33.8121402 37.401584,34.278575 C37.0666628,34.5880703 36.6922875,34.8546044 36.3126516,35.1456878 Z"></path>
                        <path d="M33.1896426,32.4882368 C33.458807,31.595698 33.4395184,30.700529 33.4894935,29.812374 C33.5096589,29.4634246 33.5587573,29.115352 33.6297747,28.77254 C33.8603618,30.3699915 34.0918257,31.9674431 34.3197826,33.5473595 C34.1891457,33.7928515 33.9962592,33.8664991 33.7577812,33.823538 C33.480726,33.7744396 33.2194523,33.4903703 33.1826285,33.1686004 C33.1580793,32.9537949 33.1817518,32.7328521 33.1896426,32.4882368 Z"></path>
                        <path d="M32.4014379,31.9525382 C32.5890639,32.7451267 32.7775667,33.5122892 32.9520414,34.2829588 C32.996756,34.4793524 33.0081538,34.6871438 33.0072771,34.888798 C33.0064003,35.1386738 32.8214046,35.2710641 32.6083526,35.2877225 C32.4426455,35.3008738 32.1796183,35.2631733 32.115615,35.1570857 C31.9411404,34.8651255 31.7938452,34.5345881 31.7351024,34.2022971 C31.5746559,33.2825788 31.9937458,32.4671947 32.2795686,31.6307683 C32.29272,31.592191 32.3023643,31.5527369 32.3348043,31.437005 C32.3611071,31.6509337 32.379519,31.7894614 32.4014379,31.9525382 Z"></path>
                        <path d="M24.9402344,11.8221936 C25.4934682,12.9742526 25.8625829,14.1543677 26.0054943,15.4002396 C25.9800684,15.4116375 25.9546424,15.4221586 25.9292165,15.4335564 C25.660052,14.8461291 25.3593243,14.2700997 25.1278604,13.6686442 C24.4632785,11.9388023 23.7154046,10.2510448 22.7281761,8.67463542 C22.6939825,8.62027647 22.6834614,8.5501359 22.6983663,8.46772072 C23.5944121,9.47949849 24.3142298,10.6052547 24.9402344,11.8221936 Z"></path>
                        <path d="M36.9895081,35.4893766 C37.1245287,35.4420317 37.2385072,35.4069615 37.42701,35.3499722 C36.5914604,36.6537101 35.3710144,37.4822457 34.4100886,38.5264635 C34.5012713,38.0810708 34.5950843,37.6198965 34.6915276,37.1587223 C34.8046293,36.6125026 35.2491452,36.3442149 35.6708654,36.0943391 C36.0768039,35.8532309 36.5335944,35.6962913 36.9895081,35.4893766 Z"></path>
                        <path d="M31.8692463,37.1753807 C31.5509834,36.2731975 31.4317445,35.3631236 31.4107023,34.4320075 C31.650057,35.224596 32.3146389,35.7304848 32.7135634,36.4055879 C32.87401,36.6773826 33.0142911,36.9693427 33.1045971,37.2691937 C33.1738609,37.4997808 33.1422977,37.7636847 32.8547213,37.8688956 C32.574159,37.9714762 32.3356811,37.8557442 32.1559459,37.6453225 C32.0428442,37.5129322 31.9709501,37.3472251 31.8692463,37.1753807 Z"></path>
                        <path d="M28.4884706,17.1064091 C28.2684046,16.8512728 28.2684046,16.5628197 28.4604144,16.3164509 C28.8146243,15.8614139 29.2047812,15.4335564 29.5809101,14.9951778 C29.7334658,14.8180729 29.8877751,14.6427215 30.1017038,14.4954263 C30.0561125,14.7102318 30.0245492,14.929421 29.9614227,15.138966 C29.8027296,15.6667738 29.6598182,16.2015957 29.4529035,16.7109916 C29.263524,17.1765497 29.0189087,17.247567 28.5042523,17.0950113 C28.4832101,17.1029021 28.4867171,17.1055323 28.4884706,17.1064091 Z"></path>
                        <path d="M31.6768265,39.4944034 C31.7242279,39.1664962 31.7653922,38.8666452 31.8078039,38.567671 C31.8190306,38.567671 31.8315046,38.567671 31.8427313,38.5667943 C31.8427313,39.0218313 31.8427313,39.477745 31.8427313,39.932782 C31.8801534,39.9345355 31.9163281,39.9354122 31.9537502,39.9371657 C32.0285945,39.539118 32.1046862,39.1401935 32.1757882,38.7623111 C32.5113399,39.7153462 32.8157066,41.3995967 31.3624806,42.5218459 C31.4660152,41.5232195 31.5695497,40.5228395 31.6768265,39.4944034 Z"></path>
                        <path d="M27.6891516,15.9894205 C28.0539995,16.7513224 27.6095672,17.4790309 27.5372177,18.222521 C27.4741704,18.8695678 27.3398071,19.5104772 27.2385179,20.1417424 C26.596675,19.5955227 26.6907293,19.8226028 26.8809049,18.9169126 C27.0845169,17.948096 27.4049216,16.9976912 27.6819166,16.0130929 C27.688118,15.9876669 27.6901851,15.9902972 27.6891516,15.9894205 Z"></path>
                        <path d="M34.6686326,33.0519917 C34.1901806,31.3686179 34.0857671,29.6685858 34.0699068,27.9641699 C34.1108792,27.9606628 34.1518516,27.956279 34.192824,27.952772 C34.5153165,29.4309846 34.837809,30.9083204 35.1616233,32.3953006 C35.0016987,32.4593039 34.8734947,32.509279 34.7294304,32.5662682 C34.7175352,32.7030423 34.70564,32.8468305 34.6778845,33.0239355 C34.6633459,33.0563755 34.6673109,33.0537452 34.6686326,33.0519917 Z"></path>
                        <path d="M33.3438776,39.5899699 C33.1424737,39.9301517 32.9526039,40.2475378 32.7574107,40.5622936 C32.666912,40.7078353 32.5666536,40.8481164 32.4708315,40.9910279 C32.4424397,40.983137 32.414048,40.9743695 32.3856563,40.9664787 C32.5870602,40.0099366 32.7875769,39.0542713 32.9872063,38.10562 C33.3660587,38.0547681 33.5062429,38.1757606 33.4725277,38.5150656 C33.4388125,38.8657685 33.3944504,39.2155946 33.3438776,39.5899699 Z"></path>
                        <path d="M38.6623608,31.2186925 C38.7491598,31.1134816 38.8201771,31.0240524 38.8903177,30.9337464 C38.9113599,30.9504048 38.932402,30.9679399 38.954321,30.9845983 C38.7114592,31.4904872 38.5457521,32.0586258 38.2011865,32.4820995 C37.9451735,32.7968554 37.4576965,32.9257387 37.0719233,33.1344069 C37.0026595,33.1721074 36.9255049,33.1949031 36.7747026,33.2562761 C37.4322705,32.5461028 38.0389865,31.8894117 38.6623608,31.2186925 Z"></path>
                        <path d="M35.8264135,35.9189876 C35.6382869,36.1337931 35.4341185,36.2907327 34.9630727,36.1723705 C34.614528,35.7041821 35.1059906,35.2982436 35.2489085,34.8212877 C35.6907873,35.1649765 36.1428746,35.4560599 35.8264135,35.9189876 Z"></path>
                    </g>
                </g>
            </g>
        </g>
    </g>
</svg>
