<?xml version="1.0" encoding="UTF-8"?>
<svg width="52px" height="61px" viewBox="0 0 52 61" version="1.1" xmlns="http://www.w3.org/2000/svg" xmlns:xlink="http://www.w3.org/1999/xlink">
    <title>grass-leaf-plant-svgrepo-com</title>
    <defs>
        <rect id="path-1" x="0" y="0" width="50.8729579" height="60"></rect>
    </defs>
    <g id="页面-1" stroke="none" stroke-width="1" fill="none" fill-rule="evenodd">
        <g id="形状库素材-植物" transform="translate(-730.000000, -238.000000)">
            <g id="grass-leaf-plant-svgrepo-com" transform="translate(730.172956, 238.857873)">
                <mask id="mask-2" fill="white">
                    <use xlink:href="#path-1"></use>
                </mask>
                <g id="SVGID_5_"></g>
                <g id="编组" mask="url(#mask-2)" fill="#545458" fill-rule="nonzero">
                    <g transform="translate(1.348453, 3.087939)">
                        <path d="M6.26004618,52.074992 C6.30476079,52.1346115 6.34859865,52.1951077 6.39331327,52.2547272 C6.41347868,52.2398223 6.43276734,52.2240407 6.45293275,52.2091358 C6.15658883,50.8457784 5.37101441,49.8173423 4.740626,48.6565158 C3.41146214,50.1426192 2.09281936,51.6173247 0.774176579,53.0911535 C0.756641436,53.0718649 0.739983049,53.0525762 0.722447906,53.0332875 C2.42861735,50.6870854 4.13391004,48.3408832 5.87778005,45.9420756 C5.75240378,45.4721337 5.60335506,44.9171464 5.45255282,44.3525148 C4.50653184,44.2341526 3.72183418,44.6111582 3.06075927,45.3897186 C2.39530058,46.1735395 1.94289388,47.1370956 1.51415963,48.1199404 C0.856591753,49.627086 0.373498553,51.2122629 0,52.8596896 C0.0236724435,52.6212117 0.0377005582,52.381857 0.0727708449,52.1460093 C0.109594646,51.897887 0.161323319,51.652395 0.213928749,51.4086565 C0.623374346,49.514861 1.18186866,47.6938364 2.06651664,46.0420259 C2.28833621,45.6281965 2.57766607,45.2678493 2.84156998,44.8654178 C2.84770728,44.8470059 2.84595377,44.8513897 2.84595377,44.8513897 C3.52456381,44.0965017 4.27857498,43.5897361 5.23687056,43.7940205 C5.13428997,43.2179911 5.00102288,42.6524827 4.94315691,42.0755765 C4.90457959,41.6906801 4.97472017,41.2908788 5.00628343,40.853377 C5.10272671,40.669258 5.18952567,40.5289768 5.27632463,40.3895724 C5.64982319,40.0792004 6.01893795,40.0476371 6.37665488,40.4509454 C6.84659672,40.9805068 7.26568665,41.5793319 7.68477657,42.1702662 C8.23713359,42.9488266 8.51594237,43.889587 8.73074787,44.868048 C8.72461057,44.1412164 8.60887863,43.4485782 8.30990443,42.7629541 C8.29324605,42.665634 8.27921793,42.6130286 8.26431306,42.5595464 C7.82768799,41.1900517 7.7619312,39.7258673 7.5348511,38.3028904 C7.21308122,36.2828419 6.95005407,34.2487652 6.64581933,32.2243329 C6.38980624,30.523424 6.14519099,28.8181313 5.83043516,27.1321273 C5.64193237,26.1229798 5.32805331,25.1480258 5.06765643,24.1467691 C5.23248678,24.3650817 5.42800362,24.5763802 5.5779291,24.8280095 C6.40997165,26.2255604 6.90446269,27.8177514 7.2481515,29.4616711 C7.6269106,31.2756817 7.91273344,33.1186252 8.20732384,34.9563083 C8.40021042,36.1548353 8.53698454,37.3673905 8.72110355,38.5720548 C8.76669492,36.271444 8.81140953,33.9708332 8.85700091,31.6474267 C8.75179005,31.6746062 8.67375866,31.6947716 8.53961481,31.7298419 C8.46509045,31.5685186 8.35286553,31.4124558 8.31516498,31.2327206 C8.11263407,30.274425 7.90133559,29.3170062 7.74264255,28.346436 C7.39193968,26.205395 7.09033521,24.0520794 6.72911126,21.9136686 C6.54148523,20.8019406 6.25653915,19.7173919 5.79273461,18.7152585 C5.81290002,18.6950931 5.83306544,18.6749277 5.85323085,18.6547623 C6.03910337,18.8844726 6.25303212,19.0905106 6.40646462,19.3482772 C7.07893737,20.4801707 7.49189,21.7646199 7.84083935,23.0797557 C8.31779525,24.8736008 8.60887863,26.7121606 8.6912938,28.5963118 C8.69392407,28.6594383 8.70181489,28.7225648 8.71145922,28.7848146 C8.71935003,28.8356665 8.73513166,28.8847649 8.76844843,29.0232925 C8.98062367,28.3385452 8.89382471,27.7020195 8.95344419,27.1067013 C8.61413917,26.7700266 8.48788614,25.6916153 8.71935003,25.2067686 C8.79738142,25.2216734 8.88067335,25.2374551 8.95782798,25.2514832 C9.02621504,23.6873484 9.09372534,22.1275974 9.16298916,20.547681 C8.50454452,20.302189 7.94780372,19.8883596 7.73212146,19.0194932 C7.61200573,18.5337698 7.69003712,17.9980711 7.93991291,17.5561855 C7.95832481,17.9410819 7.88818424,18.3268551 8.13893679,18.6977234 C8.20381682,18.1462431 8.0670427,17.6149283 8.33708391,17.0967648 C8.39845691,17.5316363 8.33182336,17.9559868 8.60624836,18.2821405 C8.66323757,17.2501973 8.78247655,16.24368 9.14107023,15.2248882 C9.14107023,15.8123155 9.11827454,16.3313558 9.14720753,16.8451355 C9.17701727,17.3562849 9.06917614,17.8963673 9.28748868,18.3768302 C9.32080545,18.384721 9.35412222,18.3934886 9.38743899,18.4013794 C9.41812549,18.3066897 9.47248444,18.2128766 9.47511471,18.1164334 C9.4979104,17.2712394 9.51281527,16.4260455 9.5285969,15.5808516 C9.53122717,15.4651197 9.5285969,15.348511 9.54788555,15.2283952 C9.90560248,16.2252681 10.0257182,17.2756232 9.99853874,18.3917351 C10.2729637,18.2426864 10.2378934,17.9638776 10.2571821,17.731537 C10.2773475,17.4860449 10.2615659,17.2361692 10.2615659,16.9038782 C10.6341877,17.5176082 10.4702341,18.1725458 10.5658006,18.8160856 C10.8358418,18.4469708 10.7823596,18.0576906 10.7876202,17.6789315 C10.9962884,17.9244235 11.0927317,18.4943157 10.9734927,18.9388316 C10.7271239,19.8559196 10.156355,20.3197241 9.36201303,20.5292691 C9.36201303,21.7926762 9.36201303,23.0701113 9.36201303,24.3256276 C9.37516439,24.2931876 9.40146711,24.223047 9.43040009,24.15466 C9.86439489,23.1569103 10.4413011,22.8228658 11.3592659,23.0516994 C11.6407049,23.12184 11.9186369,23.2165298 12.1956922,23.3112196 C12.6244265,23.4593915 12.9120028,23.8232458 13.1443435,24.2581173 C13.7414151,25.3724757 14.0623082,26.6130871 14.2587018,27.9063039 C14.6716544,30.6189906 14.8461291,33.3571032 14.8461291,36.112751 C14.8461291,36.9912617 14.8461291,37.8706491 14.8601572,38.748283 C14.8627875,38.8911944 14.9153929,39.0542713 14.9864103,39.17088 C15.2888915,39.6627407 15.6281965,40.1230383 15.9096356,40.6306807 C16.0297513,40.8472397 16.0411491,41.1514744 16.0534237,41.4337902 C16.1446065,41.5582897 16.2357892,41.683666 16.3445071,41.831838 C16.3734401,41.5924833 16.3988661,41.373294 16.4356899,41.0646755 C16.3278487,40.9594646 16.1700324,40.8577608 16.0762194,40.6999445 C15.9815296,40.5403747 15.9175264,40.3290762 15.9052518,40.1344361 C15.8991145,40.0414998 16.0437794,39.9345355 16.1402227,39.8074057 C16.2506941,39.9915247 16.3155741,40.0993658 16.417278,40.2694567 C16.417278,40.1133939 16.4146477,40.0169506 16.417278,39.9205074 C16.4830347,38.037233 16.5496683,36.1548353 16.6171786,34.2715609 C16.6908262,32.2085513 16.7706111,30.1464184 16.8354911,28.0825321 C16.8416284,27.8992898 16.7627203,27.710787 16.7188824,27.526668 C16.5829851,26.9506386 16.4286758,26.3807464 16.3111903,25.7994564 C15.6062776,22.3011953 14.9373119,18.7924131 14.1973288,15.3046731 C13.889587,13.8518865 13.4704971,12.4280328 13.0373791,11.0199608 C12.8155595,10.2983897 12.4517053,9.63994506 12.1299354,8.90259228 C12.3482479,9.10775346 12.564807,9.2787211 12.748926,9.49089634 C13.5257328,10.3843119 14.0807201,11.4636 14.521729,12.6349475 C14.683929,13.0654353 14.8452524,13.4959231 15.0311249,13.9176433 C14.3630359,10.1353129 14.0605547,6.23549698 12.5832189,2.67410936 C12.8041617,2.95204138 13.0505304,3.20630096 13.2425403,3.51141246 C14.0403893,4.77920332 14.5173452,6.24338779 14.8768156,7.75228687 C15.2564515,9.34798492 15.5852354,10.9647251 15.8631674,12.5911097 C16.0586843,13.7352778 16.1297016,14.9110091 16.2603384,16.0718356 C16.2910249,16.3418768 16.3366163,16.6101645 16.3971125,16.8784522 C16.4199082,16.1507438 16.4321828,15.4212818 16.4663764,14.6944501 C16.5479148,12.9935412 16.5864921,11.2856183 16.7425549,9.59435368 C16.9143993,7.72686092 17.3063097,5.90671304 17.9498495,4.18739223 C18.135722,3.69027092 18.4522313,3.26416693 18.7187655,2.81351375 C18.7696174,2.72759155 18.8643072,2.68024666 18.9528597,2.60309203 C18.2812637,4.34345501 18.0761025,6.18464506 17.893737,8.02057457 C17.6929596,10.0467604 17.5561855,12.0825905 17.4115206,14.1157904 C17.280007,15.9613642 17.160768,17.8078148 17.0643248,19.6568957 C17.0239939,20.4214279 17.0573107,21.1912207 17.0827367,21.9653973 C17.2458135,21.2946781 17.399246,20.6204518 17.5745974,19.9541164 C18.1243242,17.8630505 18.7687407,15.8193296 19.7322968,13.9465763 C20.0303942,13.3670398 20.3547944,12.7945173 20.9685244,12.5420113 C20.9352076,12.6752784 20.9281936,12.7953941 20.8799719,12.8813163 C20.2925446,13.9255341 20.0032148,15.1196774 19.7393109,16.3129439 C19.0677149,19.3535377 18.4329427,22.4055294 17.7815121,25.4513838 C17.7148786,25.7626326 17.6307099,26.0677441 17.5439109,26.4237075 C18.0620744,28.2105386 18.558319,30.0762779 18.648625,31.9902388 C18.7932899,32.0410907 18.9598737,32.0402139 18.9975743,32.1235059 C19.0896338,32.3277903 19.1229506,32.5715288 19.1860771,32.8240348 C19.1948447,32.8257884 19.3044393,32.8047462 19.3614285,32.8617354 C19.4236783,32.9239852 19.4675161,33.0572522 19.4666394,33.1589561 C19.4648859,33.4009411 19.4315691,33.6420493 19.4105269,33.8910483 C19.5060935,34.1023468 19.605167,34.3215361 19.7121314,34.5582605 C19.8638104,33.8822807 19.7296665,33.2185756 19.6972265,32.5583774 C19.6568957,31.7359792 19.5850016,30.9162112 19.5394102,30.0929363 C19.8769617,31.343192 19.940965,32.6478066 20.060204,33.9541748 C20.3363825,34.0935792 20.3565479,34.3592366 20.3179706,34.6836368 C20.2872841,34.9387731 20.3118333,35.2035538 20.3118333,35.4586901 C20.5205015,35.4998977 20.6862086,35.5323377 20.8361341,35.5612707 C20.9027676,35.9093433 20.9027676,35.9093433 20.4380863,36.4581933 C20.4941988,36.668615 20.551188,36.8807903 20.6081772,37.0903352 C20.6984832,37.0473741 20.8019406,36.997399 20.9799223,36.9123535 C21.0228834,37.091212 21.1272175,37.2893591 21.0825028,37.3866791 C20.9930736,37.5813192 20.8212292,37.7198469 20.645001,37.8259345 C20.5450507,38.0389865 20.4459771,38.2520385 20.3135868,38.5343543 C20.3135868,38.7061987 20.3135868,38.9683491 20.3135868,39.2603092 C20.4380863,39.1971827 20.5441739,39.1428237 20.6546454,39.0858345 C20.6222053,38.8833036 20.5888886,38.6746354 20.5441739,38.3993337 C20.6642897,38.4685975 20.7274162,38.5045445 20.7887892,38.5396148 C20.8887395,38.4519391 20.9869363,38.3651401 21.0632142,38.2976298 C21.1175731,38.0170675 21.1710553,37.7636847 21.2122629,37.5076716 C21.2333051,37.3761581 21.2306748,37.2385072 21.2403191,37.1043633 C21.2534705,36.9219978 21.2762662,36.7405091 21.2788965,36.5581436 C21.2815267,36.3915598 21.3139667,36.1732472 21.2420727,36.0662828 C20.9895666,35.6875237 20.9369612,35.2403776 20.8887395,34.7949849 C20.5275156,31.4238536 20.0365315,28.0842856 19.2816436,24.804337 C19.1203203,24.1046848 19.0186165,23.3857439 18.8923634,22.6738171 C18.8800888,22.6036765 18.8906099,22.5265219 18.8906099,22.3573078 C18.9844229,22.5414268 19.0501797,22.6518982 19.1010317,22.7728907 C19.6928427,24.1792092 20.0382851,25.6916153 20.4056463,27.1943771 C20.890493,29.1784785 21.2201537,31.2037876 21.4481106,33.2510156 C21.5454306,34.1286495 21.558582,35.0203115 21.5997896,35.9601952 C21.5892685,36.7422626 21.5892685,37.4682176 21.5892685,38.1766373 C21.7619897,38.1135108 21.8522956,38.2695736 21.836514,38.4966537 C21.8154718,38.8175468 21.713768,39.1349329 21.7155215,39.4531958 C21.7260426,41.3057837 21.7540988,43.1592483 21.7830318,45.0118362 C21.7900459,45.4353099 21.8242394,45.8579069 21.8487886,46.3278487 C22.0548265,45.7886431 22.1021714,38.109127 21.9180524,37.3849256 C21.833007,37.3849256 21.7409475,37.3849256 21.5848847,37.3849256 C21.5848847,36.8948184 21.5848847,36.4222463 21.5848847,35.9496741 C21.623462,35.9277552 21.6629161,35.9058363 21.7260426,35.870766 C21.7505918,36.2127013 21.7768945,36.5669112 21.8023205,36.9202443 C21.8154718,36.9228746 21.8277464,36.9255049 21.8408978,36.9281351 C21.8549259,36.8544875 21.8812286,36.7808399 21.8812286,36.7071923 C21.8768448,35.0132975 21.8698308,33.3194026 21.8610632,31.6255078 C21.8601865,31.4562937 21.8356373,31.2879563 21.8347605,31.1187421 C21.8137183,28.9785779 21.8084578,26.8384137 21.7707572,24.6991262 C21.7435778,23.1972411 21.6734372,21.6971096 21.619955,20.1961014 C21.616448,20.0935208 21.5892685,19.9909402 21.5743636,19.8962504 C20.8782184,19.6963498 20.5652161,19.1746793 20.69936,18.4566151 C20.7528422,18.6442412 20.8063243,18.832744 20.8843557,19.1045387 C20.9053979,18.5697168 20.9220563,18.135722 20.9387147,17.7008505 C20.9615104,17.702604 20.984306,17.7034807 21.0071017,17.7052342 C21.067598,18.0787328 21.1280942,18.4531081 21.1894672,18.8266067 C21.2254143,18.8204694 21.2613613,18.8134553 21.2981851,18.807318 C21.2981851,18.193588 21.2981851,17.579858 21.2981851,16.9652512 C21.3087062,16.9591139 21.3183505,16.9520998 21.3288716,16.9459625 C21.4630155,17.4877985 21.5971593,18.0296344 21.7313032,18.5714703 C21.7654967,18.565333 21.7996902,18.5591957 21.8338837,18.5521817 C21.8119648,18.2532075 21.7900459,17.9533565 21.7690037,17.6543823 C21.7917994,17.6429845 21.8145951,17.6315866 21.8373908,17.6210656 C21.9496157,17.9682614 22.0618406,18.316334 22.1740655,18.6635298 C22.1916007,18.6635298 22.2100126,18.6635298 22.2275477,18.6644066 C22.2161499,18.4241751 22.204752,18.1839437 22.1951077,17.977029 C22.6475144,18.4005027 22.4853143,19.2053658 21.7733875,19.8603034 C21.8584329,20.331122 21.9452319,20.8063243 22.0346611,21.2981851 C22.0890201,21.096531 22.1223369,20.8887395 22.1986147,20.7072508 C22.3108396,20.4372096 22.4300786,20.1619078 22.5878949,19.9321974 C22.8044539,19.6174416 22.9324605,19.6113043 23.2507233,19.8076979 C23.2507233,19.6814449 23.2516001,19.5709735 23.2507233,19.4605021 C23.2358185,17.6280796 23.2480931,15.7947804 23.1884736,13.9641114 C23.1718152,13.4626063 22.9684075,12.9558407 22.7956864,12.4797615 C22.6396236,12.048397 22.4081597,11.6573633 22.2056288,11.2391501 C21.7269194,11.5039308 21.342023,11.2461642 21.0246369,10.8796797 C20.6748108,10.4746179 20.6046702,9.95031709 20.7993103,9.38831575 C20.8413946,9.68027589 20.883479,9.96872899 20.9255633,10.2571821 C20.9623871,10.2536751 20.9983342,10.250168 21.035158,10.246661 C20.9992109,9.70131806 20.9290703,9.15159131 21.1552737,8.58432943 C21.2122629,9.08671128 21.2631148,9.53736447 21.3148435,9.99240144 C21.5664728,9.96434521 21.5103603,9.77058187 21.5015928,9.61101207 C21.4709063,9.02446152 21.4375895,8.43791098 21.4060262,7.85136043 C21.4340825,7.84434638 21.4612619,7.83733232 21.4893182,7.83031826 C21.6436274,8.55101265 21.7988135,9.27170705 21.9531227,9.99240144 C22.1039249,9.6022445 22.0346611,9.22085513 21.9443551,8.777216 C22.2415758,9.15685186 22.2819067,9.58909314 22.327498,10.0187042 C22.3555543,10.0187042 22.3844872,10.0178274 22.4125435,10.0178274 C22.4230646,9.7740889 22.4335856,9.53122717 22.44323,9.31203788 C22.6808312,9.70394833 22.6413771,10.3457346 22.3616916,10.8112926 C22.6720636,11.3934594 22.9719145,11.9554607 23.2717655,12.5183388 C23.2893006,12.5165853 23.305959,12.5157086 23.3234942,12.5139551 C23.2936844,10.0993658 23.2647514,7.68477657 23.2349417,5.25089868 C22.5037262,5.10886401 21.9925768,4.65645732 21.6865885,3.8954321 C21.4805506,3.38252915 21.5629658,2.87664027 21.7619897,2.36899787 C21.8102113,2.73548236 21.8558027,3.08618523 21.9022708,3.4368881 C21.9320805,3.43513458 21.9610135,3.43250431 21.9908233,3.4307508 C22.0250168,2.88716135 21.9312038,2.31814595 22.1898472,1.76666569 C22.2564807,2.25589619 22.1740655,2.73285209 22.4537511,3.12826957 C22.47567,2.72496128 22.4712862,2.31639244 22.5256451,1.9200982 C22.5782506,1.5352018 22.6913523,1.16170325 22.7781512,0.783820908 C22.8044539,0.789081451 22.8307566,0.794341994 22.8561826,0.800479294 C22.8956367,1.57027209 22.9359675,2.34006488 22.9754216,3.10635064 C23.2568606,3.17210743 23.2516001,2.97746734 23.2516001,2.79422509 C23.2524768,1.86310898 23.2516001,0.932869626 23.2963147,0 C23.6119473,1.03281994 23.7452144,2.09983342 23.8039571,3.19139609 C24.0599702,2.62062717 24.0415583,2.03144636 24.002981,1.437005 C24.3142298,2.05336529 24.309846,2.73811263 24.306339,3.42812052 C24.5404331,3.24838531 24.5921618,2.82666511 24.4773066,2.1226291 C25.1664377,3.21682205 24.6921121,4.70555572 23.3796066,5.21056785 C23.7916825,7.56027706 23.6435105,9.95733115 23.6926089,12.3754274 C24.0836426,11.8651547 24.5483239,11.7345179 25.0358009,12.0641786 C25.2584972,12.2141041 25.4645352,12.474501 25.5899114,12.7454189 C26.1492825,13.9448227 26.4710524,15.2590817 26.7752871,16.5777245 C27.2724085,18.7327936 27.5731362,20.9360844 27.8721104,23.1393752 C27.8773709,23.1753222 27.8580822,23.2165298 27.8466844,23.2743958 C27.8782477,23.2840401 27.9220855,23.2980682 27.9878423,23.3191104 C27.9606628,23.3664553 27.9378671,23.4059093 27.8957828,23.4778034 C27.9799515,23.4479937 28.0404477,23.4260748 28.0737645,23.4138002 C28.0737645,21.8935032 28.0939299,20.4012625 28.0693807,18.9098986 C28.0316802,16.5978899 28.0851623,14.2946489 28.3981647,12.0089429 C28.8128708,8.97887015 29.5361955,6.06277581 30.6803636,3.31677236 C30.9758307,2.60747582 31.3747552,1.95516848 31.7666657,1.31162872 C31.9464009,1.01616156 32.2217027,0.80486308 32.4531666,0.554987287 C32.4715785,0.57252243 32.4899904,0.590934331 32.5075255,0.608469474 C32.4952509,0.674226262 32.4970044,0.751380893 32.4689482,0.80486308 C31.7491305,2.14805506 31.3914136,3.67185902 30.9951194,5.17199053 C30.3761288,7.51819271 30.003507,9.93278195 29.7246982,12.3666598 C29.4862203,14.4498349 29.2696613,16.5365169 29.0522255,18.623199 C29.0162785,18.9651343 29.0232925,19.3132069 29.0732677,19.6718006 C29.1995207,19.2877809 29.3257737,18.9037613 29.4520268,18.5197416 C30.2884531,15.9596107 31.4352515,13.6177923 32.8669959,11.4811351 C33.513166,10.517579 34.2022971,9.59961423 35.0255721,8.84823333 C35.2438846,8.64920946 35.4946372,8.50191425 35.7892276,8.2879855 C32.4689482,13.8808195 30.4778327,20.0610807 29.2644007,26.6209779 C29.6159804,26.4894643 29.9184616,26.6648157 30.0946898,27.090043 C30.4918608,28.0483385 30.8671128,29.0189087 31.249379,29.9859719 C31.3870298,30.3349212 31.4790893,30.7250782 31.8245317,30.8969226 C31.9262355,30.2446152 32.0270626,29.5949382 32.1296432,28.9461379 C32.4610574,26.8541953 32.9660695,24.8201187 33.5122892,22.7983166 C34.4232399,19.4289388 35.5209399,16.1560043 36.9307654,13.0426396 C37.6988047,11.3461145 38.5501359,9.7127159 39.6276705,8.27308063 C39.9161236,7.88730748 40.2580589,7.5594003 40.575445,7.20431365 C40.5982406,7.22623257 40.6210363,7.2481515 40.643832,7.27007043 C40.6376947,7.32442938 40.6447088,7.39018616 40.6227898,7.43139375 C39.4873893,9.5285969 38.5860829,11.7748488 37.8864307,14.1236812 C36.7571675,17.9209165 35.7041821,21.7514686 34.6161265,25.566239 C34.2794517,26.7463542 33.9331327,27.9229623 33.5920741,29.1013239 C33.5841833,29.1285034 33.5824298,29.1574364 33.603472,29.1986439 C33.8156472,28.6629453 34.0120408,28.1176024 34.2426279,27.5941783 C35.3604933,25.0524593 36.6817664,22.6834614 38.4282667,20.7054973 C39.4952801,19.4973259 40.6184061,18.3601718 41.9966683,17.6841921 C42.4104977,17.4816612 42.8523833,17.3650525 43.2819943,17.2089897 C43.30479,17.2493205 43.3284625,17.2896513 43.3512581,17.3299822 C43.3039133,17.3983692 43.2662127,17.4834147 43.20747,17.5316363 C42.3210685,18.261975 41.5416314,19.1422392 40.7902505,20.0610807 C39.3506152,21.8216091 38.1441973,23.8048339 37.0561417,25.8906392 C36.4529328,27.0479586 35.9207412,28.259637 35.3552328,29.4467662 C35.2903527,29.5826636 35.2219657,29.7150539 35.2079376,29.8316626 C35.3429582,31.0573691 35.4779788,32.2830757 35.6086156,33.4623141 C37.8373323,28.598942 41.0725663,24.1055616 42.1404565,23.1332379 C42.0492738,23.2603677 41.961598,23.3901277 41.8669083,23.5128737 C40.452699,25.3426659 39.2191016,27.3443025 38.098606,29.4415057 C37.2385072,31.0512318 36.4608236,32.7267148 35.6559605,34.3794021 C35.5902037,34.5152994 35.5814361,34.7038022 35.5779291,34.8686326 C35.567408,35.2991203 35.5744221,35.7296081 35.5744221,36.2197153 C35.7208405,35.9628255 35.8400795,35.7383757 35.9698396,35.5244469 C37.4217494,33.1422977 39.1024929,31.0538621 41.2628226,29.599322 C42.7541865,28.595435 44.341117,27.9615396 46.0604378,27.8808779 C46.1989654,27.8747406 46.3374931,27.8800012 46.4356899,27.8800012 C45.7763685,28.017652 45.074086,28.1219861 44.3875851,28.3148727 C42.7533098,28.7751702 41.3075372,29.7089166 40.0090598,30.9837215 C38.8762896,32.0954496 37.827688,33.3115118 36.9351492,34.708186 C36.4546863,35.4586901 36.0092936,36.2442645 35.5814361,37.0403601 C35.4665809,37.253412 35.4516761,37.5602771 35.4297571,37.8285647 C35.1982932,40.6412017 34.5486162,43.3232019 33.7481369,45.9648713 C33.4737119,46.8714382 33.2895929,47.8183359 33.0686501,48.7476985 C33.0414706,48.8625537 33.0432241,48.9870532 33.0318263,49.1062922 C33.451793,48.4574919 33.8831575,47.8367478 34.2645469,47.1730426 C34.3943069,46.947716 34.3995675,46.6163018 34.4565567,46.3322325 C34.7204606,45.0135897 34.9457872,43.6809188 35.2622965,42.3815647 C35.3903031,41.8555104 35.6840167,41.3680334 35.9637023,40.9200105 C36.3372008,40.3211854 36.8834205,40.1502177 37.4980273,40.2668264 C37.0070433,40.3474881 36.6168863,40.6578601 36.3108981,41.1102668 C36.1083672,41.409241 35.9251249,41.738025 35.78046,42.0817138 C35.379782,43.0321185 35.2614198,44.0824736 35.0913289,45.1126633 C35.0176813,45.5598095 34.9484175,46.0069556 34.863372,46.540024 C36.274951,44.8145659 37.7549171,43.3635327 39.6811526,42.6367011 C39.4417979,42.1632522 39.2261157,41.6950639 38.9771166,41.254055 C38.6325511,40.6429553 38.228366,40.127422 37.5287138,40.250168 C38.383552,39.7986381 39.0533945,40.4149984 39.4996639,41.1584885 C39.7477862,41.5714411 39.9283982,42.04489 40.1475875,42.506941 C41.127802,42.2859982 42.1273051,42.2833679 43.1215478,42.665634 C44.2131104,43.0856007 45.1819271,43.7729783 46.0367654,44.6681474 C46.7767484,45.442324 47.4509747,46.3068066 48.1532572,47.1335886 C48.1874507,47.1739194 48.2102464,47.2274016 48.2190139,47.2922816 C47.738551,46.7469387 47.2677324,46.1875676 46.7749949,45.6580063 C45.6457317,44.4393138 44.4182716,43.4100009 42.9277844,42.9234006 C42.0326154,42.6305638 41.131309,42.6191659 40.1958091,42.8313411 C40.672765,44.6944501 40.9428062,46.5961364 41.0629219,48.532893 C40.7034515,46.6592629 40.3737908,44.7759885 39.7460327,42.9120028 C39.2497881,43.1697694 38.7605576,43.3880819 38.2993833,43.6703978 C37.0789374,44.4182716 36.1188883,45.5641932 35.1570857,46.7118684 C34.827425,47.1055323 34.7309817,47.5631996 34.6608411,48.0883771 C34.527574,49.0834965 34.3346874,50.067218 34.1672268,51.0553234 C34.1567057,51.1149429 34.1523219,51.1763159 34.1689803,51.2438262 C34.3241664,50.7379373 34.4793524,50.2329252 34.6547038,49.663033 C34.556507,50.3740831 34.4679545,51.0149925 34.3785253,51.6550253 C34.4030745,51.6611626 34.4276237,51.6672999 34.4521729,51.6743139 C34.527574,51.2920478 34.6029751,50.9089049 34.6783762,50.5266388 C34.6967881,50.5292691 34.7143233,50.5318993 34.7327352,50.5345296 C34.6924044,51.0220066 34.6520735,51.5086068 34.6117427,51.9960838 C34.6257708,52.0004676 34.6397989,52.0057281 34.653827,52.0101119 C34.711693,51.8286232 34.7879709,51.652395 34.8239179,51.464769 C34.9080866,51.0237601 35.1369202,50.6695502 35.2842154,50.2715025 C35.5770523,49.4771605 35.7743227,48.6319666 36.0373499,47.8209662 C36.2223456,47.251074 36.4503025,46.7013473 36.6914107,46.1586346 C36.3635035,47.3720665 35.8558611,48.5153579 35.7971184,49.8366309 C35.8155303,49.8129585 35.8339422,49.7901628 35.8795336,49.7322968 C35.8348189,50.1145629 35.7944881,50.4600053 35.7541573,50.8063243 C35.7646784,50.8089546 35.7751995,50.8115849 35.7857205,50.8142152 C35.9654558,50.3127101 36.145191,49.811205 36.3249262,49.3096999 C36.336324,49.3167139 36.3485986,49.3228512 36.3599965,49.3298653 C36.1557121,50.2048689 35.9514277,51.0789958 35.7471432,51.9539995 C35.776953,51.9653973 35.8067627,51.9776719 35.8365725,51.9890698 C36.2276062,50.9580033 36.5037847,49.8734547 36.8159102,48.8003039 C36.6335447,50.2539673 36.4511792,51.706754 36.2696905,53.1604173 C36.2986235,53.1683082 36.3275565,53.1753222 36.3573662,53.183213 C36.6256539,52.0565801 36.8939416,50.9299471 37.1613525,49.8033141 C37.1788877,49.8085747 37.1964228,49.8129585 37.213958,49.818219 C37.0999795,50.4924453 36.9860011,51.1666715 36.8711459,51.840021 C36.8878043,51.8461583 36.9053395,51.8522956 36.9219978,51.8584329 C37.2069439,50.951866 37.4927668,50.0444224 37.7777128,49.1378555 C37.7838501,49.1413625 37.7908642,49.1448695 37.7970015,49.1483765 C37.4936435,50.7195254 37.1902855,52.2897975 36.8869276,53.8609463 C36.9062162,53.8670836 36.9263816,53.8723442 36.9456703,53.8784815 C37.3200456,52.6518982 37.6952977,51.4253149 38.069673,50.1996084 C38.0959757,50.2101295 38.1214016,50.2215273 38.1477044,50.2320484 C38.0626589,50.5573253 37.9776135,50.8826022 37.8934448,51.2078791 C37.6979279,51.9601368 37.4796154,52.7053804 37.314785,53.4681591 C37.2244791,53.8863723 37.0175644,54.0538329 36.7019318,54.129234 C34.8975655,54.5605985 33.0765409,54.8455446 31.2449952,55.0270333 C27.6599351,55.3838735 24.067861,55.4803168 20.4731566,55.3707222 C18.4496011,55.3093492 16.4260455,55.2093988 14.405997,55.0612269 C13.0698191,54.9630301 11.7345179,54.7955695 10.4079843,54.5755034 C9.01657071,54.3440395 7.63743169,54.0082415 6.25215536,53.725049 C5.83218868,53.6391267 5.40959172,53.5751235 4.95806178,53.4953386 C4.79147792,52.6931058 4.63190812,51.9206827 4.47146155,51.1491364 C4.49162697,51.1403688 4.51179238,51.132478 4.5319578,51.1237104 C4.71958383,51.778648 4.90808662,52.4344624 5.10974077,53.1384984 C5.29385978,52.5107403 4.98524125,51.9741649 5.0027764,51.3595581 C5.076424,51.5024695 5.12902943,51.6050501 5.18251162,51.7076307 C5.19566297,51.7014934 5.20881433,51.6953561 5.22108893,51.6892188 C5.03083263,51.0684747 4.83969956,50.4486074 4.62577082,49.7524622 C5.16322296,50.5643394 5.42975714,51.4568782 5.74188269,52.3345121 C5.70944267,51.775141 5.6761259,51.2157699 5.64456264,50.6695502 C5.90408277,50.8352573 5.89706871,51.2280445 6.00666335,51.5883917 C6.13028612,52.1626677 6.25478563,52.6878452 6.38016191,53.2138995 C6.40558787,53.2042552 6.43101382,53.1946109 6.45731654,53.1858433 C6.39419002,52.814975 6.32755648,52.4449835 6.26004618,52.074992 Z M19.5231784,43.5003069 C19.7160372,43.517842 19.9100721,43.5353772 20.0123814,43.5450215 C20.1135147,43.1513575 20.215824,42.7541865 20.3134294,42.3780577 C19.8148186,42.6174124 19.5984404,43.0338721 19.4349807,43.5187188 C19.1057094,44.1175439 19.1398125,44.3113072 19.6631187,44.770728 C19.7054535,44.5340036 19.7477884,44.3042932 19.7960031,44.0386358 C19.686638,43.9588509 19.5584574,43.8667914 19.4467404,43.7861297 C19.459676,43.6686442 19.4690838,43.5871058 19.5231784,43.5003069 Z M18.6453513,47.5009498 C18.6601829,47.5605693 18.6898462,47.6201888 18.686668,47.6789315 C18.6389949,48.4057632 18.5870842,49.1317182 18.5362329,49.8576731 C18.5796684,49.8646871 18.6241633,49.8717012 18.6675988,49.8778385 C18.8985485,48.9782856 19.1284388,48.077856 19.3593885,47.1774264 C19.1294982,47.1932081 18.957875,47.2046059 18.8243903,47.2133735 C18.7322223,47.3185843 18.6686582,47.3904784 18.6072128,47.5167314 C18.1071749,48.4154075 18.2512536,49.3544145 18.4588965,50.2942982 C18.502332,50.0382851 18.5012726,49.782272 18.502332,49.5253821 C18.5044508,49.1062922 18.4980944,48.6863255 18.5161042,48.2681123 C18.5266982,47.9998246 18.5733119,47.731537 18.6453513,47.5009498 Z M20.152989,47.0231172 C20.0305221,46.5277494 19.9071273,46.0315048 19.7846604,45.536137 C19.7558992,45.5405208 19.727138,45.5457813 19.6983768,45.5501651 C19.6139488,46.0420259 19.5304486,46.5330099 19.4627207,46.9310577 C19.6065266,47.1406026 19.7113658,47.2931584 19.819916,47.4518514 C19.6492045,47.619312 19.5387987,47.7262764 19.4348873,47.828857 C19.4552985,48.0568139 19.4738541,48.2654821 19.4933374,48.4916854 C19.6937379,47.9559868 19.8830051,47.4483444 20.0713444,46.9459625 C20.0945389,46.9801561 20.1242279,47.0257474 20.1390723,47.1151767 C20.0453666,47.4325628 19.9488774,47.7490721 19.8570272,48.067335 C19.6965213,48.6214455 19.5350875,49.175556 19.3820038,49.7331736 C19.2428368,50.2399392 19.1463477,50.7545957 19.2307757,51.3595581 C19.4933374,50.3907414 19.7382714,49.485928 19.9832053,48.5802379 C19.9980498,48.5854984 20.013822,48.590759 20.0286665,48.5960195 C20.0286665,49.229915 20.0286665,49.8638104 20.0286665,50.4977058 C20.0639222,50.4994593 20.1001056,50.5020896 20.1353612,50.5038431 C20.1901002,49.7191455 20.2680338,48.9362013 20.2903005,48.1497501 C20.2995783,47.7937867 20.1984503,47.4343163 20.152989,47.0231172 Z M5.65946752,47.5842418 C5.63579507,47.5772277 5.59897127,47.5535553 5.59108046,47.5640763 C5.32980682,47.8998743 5.07116346,48.2383026 4.80199901,48.590759 C5.34120466,49.3640588 5.90057574,50.1662916 6.46170032,50.9702779 C6.47222141,50.2004851 6.1408072,49.5788643 5.81991408,48.9519829 C5.84007949,48.9414618 5.86024491,48.9309408 5.88041032,48.9204197 C5.99526551,49.0957711 6.11099746,49.2711225 6.26267645,49.5034632 C6.22935968,49.3737031 6.21620832,49.3149604 6.19954993,49.2579712 C6.04524067,48.7363007 5.89093141,48.2146302 5.77256919,47.7052342 C5.9996493,48.2374258 6.22935968,48.7678639 6.452056,49.3026858 C6.70456206,49.9102785 6.95005407,50.5213783 7.19817635,51.1307245 C7.22184879,51.1263407 7.24464447,51.1210802 7.26831692,51.1166964 C7.27620773,50.9816758 7.31215478,50.8387644 7.28760558,50.7133881 C7.19203904,50.2241576 7.08069088,49.7393109 6.96934272,49.2553409 C6.89481837,48.9318175 6.80889616,48.6118012 6.7282345,48.2900313 C6.74313938,48.2847707 6.75716749,48.2786334 6.77207236,48.2733729 C6.88955782,48.5776076 7.00792004,48.8809656 7.1254055,49.1852003 C7.14907794,49.1738025 7.17187363,49.1624047 7.19554607,49.1518836 C6.94567028,48.3014291 6.69667125,47.4509747 6.44679545,46.6005202 C6.40997165,46.5899991 6.37227109,46.579478 6.33544729,46.568957 C6.12940936,46.8407517 5.92074115,47.1099161 5.72171728,47.3878481 C5.6884005,47.4334395 5.69979835,47.5228687 5.65946752,47.5842418 Z M15.9236637,45.3686764 C16.0034486,45.536137 16.0832335,45.7035976 16.1919514,45.9315545 C16.2007189,45.1608849 15.9517199,44.7137388 15.5098343,44.4805214 C15.2976591,44.2692229 15.0854838,44.0588012 14.8768156,43.850133 C14.8847064,43.6589999 14.8908437,43.4941696 14.896981,43.3240787 C15.2187509,43.3039133 15.3704299,43.5125815 15.5168484,43.7905135 C15.7018441,44.1429699 15.9324312,44.460356 16.1437297,44.7926469 C16.1788,44.7759885 16.2138703,44.7593302 16.2489406,44.7426718 C16.1998422,44.4252857 16.2305287,44.0324985 16.084987,43.8054184 C15.8245901,43.4021101 15.4659964,43.0864775 15.1337055,42.7568168 C14.8531432,42.478008 14.8040448,42.2623257 14.98378,41.8669083 C15.4353099,41.8257007 15.4502148,41.8441126 15.5826051,42.5279832 C15.8403717,42.8366017 16.0358886,43.0715726 16.2585849,43.3381068 C16.236666,43.0084461 16.2182541,42.7278838 16.2007189,42.452582 C15.9262939,42.1878014 15.6501154,41.9475699 15.4046234,41.6687611 C15.3099337,41.56092 15.2853845,41.3636496 15.196832,41.1172809 C15.4396937,41.1172809 15.5817284,41.1172809 15.7316539,41.1172809 C15.4405705,40.5254698 15.1512406,39.936289 14.8461291,39.3137914 C14.8461291,40.3527486 14.8408686,41.3557588 14.8470059,42.358769 C14.8592805,44.2753602 14.9039951,46.1928281 14.8838297,48.1085425 C14.8741853,49.0326446 15.0609346,49.8883596 15.2722331,50.7519654 C15.2985358,50.7467049 15.3239618,50.7423211 15.3502645,50.7370605 C15.2345325,49.9207996 15.1188006,49.1045387 15.0030687,48.2882778 C15.0214806,48.2812637 15.0407692,48.2751264 15.0591811,48.2681123 C15.2660958,49.0037116 15.4730105,49.7393109 15.6799252,50.4749101 C15.691323,50.4731566 15.7027209,50.4705263 15.713242,50.4687728 C15.6001403,49.8164655 15.4861618,49.1641582 15.3730602,48.5118508 C15.3827045,48.507467 15.3923488,48.50396 15.4028699,48.4995762 C15.5045737,48.8090715 15.6062776,49.1185668 15.7088582,49.4280621 C15.7623404,49.2842739 15.7728614,49.1422392 15.7597101,49.0028348 C15.6799252,48.1497501 15.4572289,47.3457638 15.1775433,46.5610661 C15.1047725,46.355905 15.0521671,46.1402227 14.990794,45.929801 C15.0223573,45.9140193 15.0539206,45.897361 15.0863606,45.8815793 C15.5142181,46.9836631 15.9420756,48.0857469 16.3699331,49.1878306 C16.4006196,49.1834468 16.4321828,49.179063 16.4628693,49.1746793 C16.4812812,49.0992781 16.5242423,49.0194932 16.5154748,48.9493527 C16.4295526,48.229535 16.3541514,47.5070871 16.2357892,46.7942835 C16.1516205,46.3059298 16.0069556,45.8307274 15.9236637,45.3686764 Z M9.29274922,40.6499693 C9.49352661,39.2576789 9.66011047,37.8574977 9.90209545,36.4757284 C10.3308297,34.033083 10.9971652,31.6868808 12.0597948,29.5309349 C12.4657334,28.7076599 12.8953444,27.8966596 13.5608031,27.3241371 C13.5485285,27.2443522 13.5388842,27.161937 13.5231026,27.0812754 C13.3512581,26.1659409 13.149604,25.2663881 12.7331443,24.4545109 C12.4043604,23.8144782 11.9502002,23.4444867 11.340854,23.2814098 C10.8866937,23.1595406 10.5254698,23.2822866 10.2291259,23.6864716 C9.6636175,24.4571412 9.37516439,25.411053 9.33308005,26.3956513 C9.2296227,28.7944589 9.22523892,31.1994038 9.17087997,33.6017184 C9.11827454,35.9400298 9.04901073,38.2783412 8.99552854,40.6166525 C8.97974691,41.3233188 8.99289827,42.0308619 8.99289827,42.7384049 C9.00517287,42.7384049 9.01744747,42.7384049 9.03059883,42.7375281 C9.11476751,42.0597948 9.19718269,41.3820615 9.29274922,40.6499693 Z M31.159073,43.3039133 C31.1906362,42.69106 31.220446,42.0782067 31.2537627,41.4662302 C31.310752,40.4211357 31.3598504,39.3742876 31.4326212,38.3300698 C31.534325,36.8650086 31.6526873,35.4008242 31.7666657,33.9366397 C31.8105036,33.368501 31.7842008,32.8284186 31.5115294,32.32516 C31.3800158,32.083175 31.3133822,31.7885846 31.2265833,31.5132829 C30.9872286,30.7575182 30.7645323,29.9929859 30.5137797,29.2433586 C30.2919601,28.5805301 30.0894292,27.8975363 29.664202,27.371482 C29.5326884,27.2084052 29.3582138,27.0961803 29.2039045,26.9611597 C29.1679574,26.9751878 29.1328872,26.9892159 29.0969401,27.003244 C29.0276763,27.3416723 28.960166,27.681854 28.8873952,28.0194056 C28.7769238,28.5261712 28.6778502,29.0381974 28.5419528,29.5353187 C28.4832101,29.7492475 28.3332846,29.90268 28.1097115,29.8106205 C28.1588099,30.1271298 28.2079083,30.4436391 28.2587603,30.7680393 C28.129877,30.8127539 28.017652,30.8513312 27.9054271,30.8907853 C28.2473624,30.8671128 28.6006956,30.7338457 28.9540287,31.0924394 C28.7374697,31.1143584 28.5796534,31.13014 28.4139463,31.1467984 C28.5577345,31.8201479 28.7032761,32.4566736 28.8295292,33.0993366 C29.4906041,36.4608236 29.8544583,39.8801765 30.2121752,43.3030365 C30.3866499,44.9776427 30.6996522,46.6320835 30.949528,48.2952918 C30.9661864,48.2891545 30.9828448,48.2830172 30.9995032,48.2768799 C31.0512318,46.6390975 31.1038373,45.0013151 31.159073,43.3039133 Z M23.7294327,14.124558 C23.674197,19.0159862 23.6198381,23.9074144 23.5654791,28.6971388 C24.0345442,27.8063536 24.5439401,26.8392904 25.0656107,25.8494316 C24.9051641,25.5022357 24.7245521,25.1120788 24.5448169,24.7219219 C24.5597218,24.7096473 24.5746266,24.6964959 24.5895315,24.6842213 C24.8087208,25.010375 25.0279101,25.3374054 25.2462226,25.6618055 C25.627612,25.1497793 26.0133852,24.6316159 26.3991583,24.1143291 C26.4307216,24.1493994 26.4614081,24.1844697 26.4929713,24.21954 C26.454394,24.216033 26.4158167,24.2116492 26.3632113,24.2072654 C26.2229301,23.2331882 26.0712511,22.259111 25.9432446,21.28065 C25.6547915,19.0703452 25.3873805,16.8547798 25.0901599,14.6462285 C24.9831955,13.8545168 24.8139814,13.0750796 24.6728235,12.290382 C24.255487,12.4043604 23.7741474,13.3582722 23.7294327,14.124558 Z M24.8867522,42.4657334 C25.0989274,41.9712424 25.3111027,41.4767513 25.5232779,40.9822603 C25.530292,40.9866441 25.537306,40.9910279 25.5443201,40.9954116 C25.1752053,42.0878511 24.8052138,43.1794137 24.4352223,44.2736067 C25.3707222,46.1481135 26.1107052,48.0945144 26.5815238,50.1838268 C26.606073,50.1785662 26.6297454,50.1733057 26.6542946,50.1680451 C26.6262384,48.8906099 26.5981822,47.6131747 26.5692492,46.3357395 C26.5832773,46.333986 26.5973054,46.3322325 26.6113335,46.330479 C26.696379,47.0774761 26.7814244,47.8244732 26.8655931,48.5714703 C26.8831283,48.5679633 26.9015402,48.565333 26.9190753,48.561826 C26.9322267,48.5171114 26.945378,48.47152 26.9594061,48.4268054 C26.9769413,48.4320659 26.9944764,48.4382032 27.0120116,48.4434638 C27.0120116,49.0256305 27.0120116,49.6069205 27.0120116,50.1890873 C27.0313002,50.1917176 27.0505889,50.1943478 27.0698775,50.1969781 C27.1531695,49.7322968 27.2364614,49.2676155 27.3197533,48.8029342 C27.3443025,48.8064412 27.3697285,48.8090715 27.3942777,48.8125785 C27.3942777,49.5087237 27.3942777,50.2048689 27.3942777,50.9010141 C27.4170734,50.9010141 27.4389923,50.9010141 27.461788,50.9001374 C27.4793231,50.4906918 27.5135167,50.0812462 27.5108864,49.6718006 C27.497735,47.7876494 27.4661718,45.9034983 27.4609112,44.0193471 C27.4600345,43.6826724 27.4030453,43.4021101 27.2373382,43.1425899 C26.6569249,42.2298857 26.082649,41.3110442 25.4978519,40.4027238 C25.1936172,39.9301517 24.8718473,39.4733612 24.5676126,39.0235848 C24.038928,40.524593 23.7723938,42.0966186 23.5312856,43.6739048 C23.2866704,45.2766169 23.1244703,46.8889733 23.2603677,48.5451676 C23.5356694,46.4093871 24.1125756,44.4244089 24.8867522,42.4657334 Z M32.1875091,39.7083321 C32.0586258,40.026595 31.8543414,40.3317065 31.8140106,40.6657509 C31.71143,41.5328638 31.6763597,42.413128 31.6220008,43.2881316 C31.5387088,44.6269398 31.4527866,45.9666248 31.3835228,47.3071865 C31.3353012,48.2321653 31.2967239,49.1606511 31.5571207,50.0645878 C31.624631,49.543794 31.6851273,49.0221235 31.7201976,48.4986995 C31.8122571,47.1274513 31.9884853,45.7763685 32.3400649,44.4647397 C32.8915451,42.4017301 33.6499401,40.4465617 34.5380951,38.5703013 C34.7862174,38.0460005 34.8607417,37.5304673 34.9001958,36.9553146 C35.0343397,34.9913786 34.9606921,33.032703 34.8712628,31.0065172 C34.7634217,31.3388082 34.6731157,31.6088494 34.5871935,31.8797674 C34.0707835,33.5114125 33.5482363,35.1404273 33.0432241,36.7773329 C32.7460034,37.7321215 32.4794693,38.7009381 32.1875091,39.7083321 Z M13.7493059,32.8792705 C13.8615308,32.6784931 13.9737557,32.4785925 14.1219277,32.2146886 C13.9649882,30.7206944 13.8010346,29.1662039 13.6379577,27.6117135 C13.6142853,27.6064529 13.5906129,27.6020691 13.5660637,27.5968086 C12.297396,29.6221177 11.6126487,31.9683198 11.0453868,34.3329339 C11.5565362,35.0203115 12.0440132,35.6761259 12.5376275,36.3407078 C12.8348482,35.1465646 13.214484,33.9988894 13.7493059,32.8792705 Z M27.523161,29.8711167 C27.4346085,29.5633749 27.3171231,29.263524 27.2627641,28.9478914 C27.1382646,28.2263203 27.0514656,27.4951048 26.9348569,26.7717801 C26.8506883,26.2527399 26.7428471,25.7389602 26.6437736,25.2155361 C25.7301926,26.8647164 24.8955198,28.5586112 24.2370751,30.364731 C25.0393079,30.891662 25.4803168,31.8254084 25.992343,32.6118596 C26.5464535,32.0402139 27.1023176,31.4676915 27.6836076,30.8679896 C27.6450302,30.5988251 27.5933016,30.2577666 27.523161,29.8711167 Z M11.4355437,42.4026069 C11.4662302,42.293889 11.5074378,42.1878014 11.5240962,42.0764532 C11.5907298,41.6310606 11.6354444,41.1795306 11.7143525,40.7367683 C11.9554607,39.3900693 12.2097203,38.0460005 12.4666102,36.6563404 C12.0142035,35.9444136 11.5433849,35.2018003 11.0524009,34.4285005 C10.4386708,36.0487477 9.81178946,41.8897039 10.1011193,43.2057165 C10.3904492,42.0431365 10.6710115,40.9094894 11.1383231,39.8617646 C11.0708128,40.4176287 10.9691089,40.9620949 10.8963381,41.5118216 C10.7490429,42.6244265 10.6131455,43.7370313 10.1738902,44.7549464 C10.1309291,44.8540199 10.1055031,44.9758892 10.1055031,45.0881141 C10.1002426,46.0244908 10.1028728,46.9617442 10.1028728,47.8981208 C10.1256685,47.8998743 10.149341,47.9007511 10.1721367,47.9025046 C10.1809042,47.7183856 10.188795,47.5333898 10.1975626,47.3492708 C10.2300026,46.7074846 10.1949323,46.0472864 10.3106643,45.4274191 C10.5105649,44.3542683 10.9682322,43.3968495 11.4355437,42.4026069 Z M22.9912032,39.600491 C22.9912032,39.3269427 22.9912032,39.0525178 22.9912032,38.7789695 C23.0736184,39.0358594 23.1227168,39.2927492 23.1411287,39.5522693 C23.1586638,39.813543 23.1446357,40.0774469 23.1446357,40.340474 C23.6110705,38.0126838 24.4641552,35.899699 25.4268346,33.8515942 C24.9244528,32.9581787 24.4369758,32.0919426 23.9205658,31.1731011 C23.8100944,31.5299413 23.7127744,31.830669 23.6233451,32.1340269 C23.4295818,32.7880878 23.2507233,33.4456557 22.8956367,34.0137943 C22.7904258,34.1821317 22.7395739,34.4425286 22.7395739,34.6599643 C22.7457112,36.7466464 22.7649999,38.8333285 22.7869188,40.9200105 C22.7930561,41.4811351 22.818482,42.0422597 22.8386475,42.6025075 C22.8412777,42.665634 22.8710875,42.7278838 22.8886226,42.7901336 C22.9184324,42.7875033 22.9491189,42.7857498 22.9789286,42.7831195 C23.0516994,41.7467925 22.9727913,40.7034515 22.9912032,39.600491 Z M17.6315866,33.090569 C17.612298,32.0419674 17.5859953,30.9924891 17.7894029,29.9622994 C17.8805857,29.4976181 18.0594441,29.0557325 17.8911068,28.5551042 C17.7937867,28.2648976 17.7543326,27.945758 17.6780548,27.6441535 C17.5973931,27.3250139 17.5027033,27.0111348 17.4141509,26.6955022 C17.3632989,27.1198527 17.4001227,27.5503405 17.0538037,27.8002163 C16.9363182,31.686004 16.8197095,35.5577637 16.7039776,39.4076044 C16.8004208,39.4076044 16.911769,39.4076044 17.066955,39.4076044 C16.9398252,40.0765701 16.8074349,40.676272 16.7136219,41.2856183 C16.6189321,41.9011018 16.5636964,42.5253529 16.4874185,43.1759067 C16.5628197,43.1706462 16.6250694,43.1662624 16.6452348,43.1653856 C16.7153754,42.9470731 16.7723646,42.7690914 16.8284771,42.5963702 C16.9705117,42.6384546 17.0441593,42.6594967 17.1020253,42.6770319 C17.0608177,42.4929129 17.0196101,42.3123009 16.9652512,42.0685624 C17.1072859,42.1211678 17.1695356,42.1439635 17.2642254,42.1790338 C17.2081129,42.1010024 17.1721659,42.0562878 17.1414794,42.0071894 C17.1055323,41.9493234 17.0748458,41.8879504 17.0169799,41.7836163 C17.1458632,41.6301838 17.2712394,41.4802584 17.3966157,41.3303329 C17.4308092,41.347868 17.4650028,41.3645264 17.4991963,41.3820615 C17.5386504,39.1191513 17.5772277,36.856241 17.6166818,34.5933308 C17.5956396,34.5942076 17.5737207,34.5959611 17.5526785,34.5968378 C17.4720168,34.4767221 17.3913552,34.3557296 17.3150773,34.2435047 C17.3615454,34.0611392 17.399246,33.9120905 17.4369465,33.765672 C17.5176082,33.7156969 17.5859953,33.6736125 17.6578894,33.6288979 C17.6499985,33.4623141 17.6421077,33.3044978 17.6315866,33.090569 Z M12.7331443,43.857147 C13.1934419,42.9663618 13.6528626,42.0755765 14.1797937,41.0550311 C14.1797937,40.7727153 14.1797937,40.3185551 14.1797937,39.8266943 C13.7650875,39.0910951 13.333723,38.3256861 12.9032352,37.5611538 C12.8804395,37.5699214 12.8567671,37.578689 12.8339714,37.5865798 C12.5840956,39.2953795 12.3631528,41.0103165 12.0764532,42.7103487 C11.7923839,44.3937224 11.4425578,46.0604378 11.1216647,47.7341672 C11.1707631,47.6403542 11.1944355,47.5395271 11.2198615,47.4395768 C11.409241,46.6855657 11.5942368,45.933308 11.9800099,45.2757401 C12.2412836,44.832101 12.4683637,44.3577754 12.7331443,43.857147 Z M24.8806149,50.5897653 C24.8665868,50.9176725 24.8525587,51.2455797 24.8394073,51.5734869 C24.8665868,51.5778706 24.8937663,51.5822544 24.9209457,51.5866382 C24.9753047,51.2201537 25.0296636,50.8536692 25.0962972,50.4047696 C25.0962972,50.7090043 25.0962972,50.9343309 25.0962972,51.1596575 C25.4084227,50.583628 25.3812432,49.9637607 25.2874302,49.3377561 C25.262881,49.1729257 25.2146594,49.0124792 25.1901102,48.8476488 C25.1664377,48.6854488 25.1585469,48.5206184 25.143642,48.3566648 C25.1532864,48.3566648 25.1620539,48.3566648 25.1716983,48.3566648 C25.3891341,49.0405354 25.6065698,49.724406 25.8292662,50.424935 C25.8652132,50.3696993 25.8915159,50.3293684 25.9336003,50.2662419 C25.9336003,50.6020399 25.9336003,50.9036444 25.9336003,51.2727592 C26.0177689,51.1351083 26.06073,51.0658445 26.1212263,50.9658941 C26.1580501,51.2254143 26.1878598,51.4367127 26.2176696,51.648888 C26.241342,51.3078294 26.263261,50.9685244 26.2360815,50.6353567 C26.1957507,50.1233305 26.1887366,49.5858784 26.0484554,49.1097992 C25.7319461,48.0305111 25.3523103,46.9775258 24.9788117,45.9245404 C24.8174884,45.4686267 24.6070667,45.0390157 24.4150568,44.5892393 C23.9328404,46.088494 23.7566122,47.619312 23.6312359,49.1869539 C23.6654295,49.1308414 23.6873484,49.0948944 23.7382003,49.0107257 C23.7382003,49.3859777 23.7382003,49.7077476 23.7382003,50.0444224 C23.7872987,50.0391618 23.8320133,50.034778 23.880235,50.0295175 C23.912675,50.2364322 23.9433615,50.4363328 23.9784318,50.6660432 C24.0362977,49.8655639 24.0924102,49.0957711 24.1485227,48.3259783 C24.2063886,48.5714703 24.2020049,48.8134553 24.2072654,49.0554403 C24.2116492,49.2790134 24.2256773,49.5025864 24.2379519,49.7752579 C24.3834936,48.6074174 24.5202677,47.5053336 24.6579186,46.4023731 C24.6807143,46.4058801 24.7026332,46.4093871 24.7254289,46.4128942 C24.6535348,47.4132741 24.5825175,48.4145308 24.5106234,49.4149107 C24.5316655,49.4201713 24.5535845,49.4263086 24.5746266,49.4315691 C24.7219219,48.8660607 24.8683403,48.2996756 25.0366777,47.6517521 C24.8402841,48.962504 24.6561651,50.1873338 24.4729228,51.4130403 C24.5947921,51.1526434 24.6693164,50.8852325 24.7254289,50.612561 C24.7815413,50.334629 24.8192419,50.0505597 24.8648333,49.7682439 C24.8700938,49.7691206 24.8753544,49.7691206 24.8797381,49.7699974 C24.8797381,50.0216267 24.8797381,50.2750095 24.8806149,50.5897653 Z M22.5212836,31.1283865 C22.5512724,31.1345238 22.6045859,31.1503054 22.6068073,31.1450449 C22.8389432,30.6523073 23.2465694,30.1648303 23.2665619,29.6633252 C23.3820745,26.7454774 23.4076206,23.8249993 23.4609341,20.9045211 C23.4631555,20.7572259 23.4720411,20.6002864 23.424281,20.464389 C23.3798531,20.3372593 23.281001,20.1557705 23.1788168,20.1373586 C23.0488651,20.1145629 22.8156186,20.1952246 22.7611944,20.2969284 C22.5912576,20.6178216 22.369118,20.9694012 22.3713394,21.3078294 C22.3935533,24.5649823 22.4557524,27.8221352 22.5212836,31.1283865 Z M26.2264372,36.0741737 C26.0852792,35.8611217 25.9441213,35.6480697 25.7915656,35.4183593 C25.4575211,36.2661835 25.1225999,37.1131309 24.7832949,37.9741064 C25.86609,38.9622118 26.6499109,40.2475378 27.4188269,41.6442119 C27.4407458,41.4986703 27.4574042,41.4399275 27.4574042,41.3811848 C27.4530204,40.4939065 27.4495134,39.6066283 27.4389923,38.71935 C27.4381156,38.6299208 27.4100593,38.531724 27.3732355,38.4536926 C27.0014905,37.6689949 26.6253617,36.8895578 26.2264372,36.0741737 Z M5.63404156,43.1592483 C5.70418213,43.4029868 5.71645673,43.7256335 5.85586112,43.8755589 C6.20919426,44.2569483 6.61951661,44.561183 7.04825087,44.9311746 C7.31390829,44.5138382 7.58482626,44.0894877 7.85925125,43.6598767 C7.82681123,43.4748809 7.80401555,43.2968992 7.76368472,43.1259316 C7.5287138,42.1343192 6.95005407,41.4495719 6.32492621,40.8147997 C5.91109682,40.394833 5.50778853,40.5912266 5.42625011,41.2373966 C5.40783821,41.3820615 5.39556361,41.5363708 5.41485227,41.6792822 C5.47622527,42.1571149 5.55513341,42.6314405 5.63404156,43.1592483 Z M32.0419674,48.8792121 C32.021802,49.1764328 32.0016366,49.4736534 31.9814712,49.7699974 C31.992869,49.7708741 32.0051436,49.7726276 32.0165415,49.7735044 C32.0805448,49.4587486 32.1454248,49.1439928 32.2094281,48.8301137 C32.22784,48.832744 32.2471286,48.8353742 32.2655405,48.8380045 C32.2655405,49.3438934 32.2655405,49.8489055 32.2655405,50.3547944 C32.2971038,50.3618085 32.328667,50.3688225 32.3602303,50.3758366 C32.3935471,50.2092527 32.4330011,50.0426688 32.4601806,49.8743315 C32.5969547,49.0387819 32.6837537,48.1856972 32.87401,47.3685595 C33.3351843,45.3853348 33.8621153,43.4231522 34.3250431,41.4408043 C34.5144227,40.6306807 34.6073589,39.7872403 34.744133,38.9587047 C34.1190052,40.5298536 33.5280708,42.1080165 32.9914955,43.7116053 C32.444399,45.3467575 32.1787416,47.0687085 32.0419674,48.8792121 Z M12.9856504,37.3928164 C13.3854517,38.0021627 13.7852529,38.6106321 14.1946985,39.2348832 C14.1946985,38.6588538 14.1946985,38.0933454 14.1946985,37.4936435 C13.979893,37.1937926 13.7510594,36.8728994 13.521349,36.5511296 C13.5336236,36.5371014 13.5458982,36.5230733 13.5572961,36.509922 C13.7554432,36.7633048 13.9527136,37.0158109 14.1508607,37.2691937 C14.1780402,37.2560423 14.2052196,37.2420142 14.2323991,37.2288628 C14.192945,35.6884005 14.1543677,34.1488149 14.1149136,32.6083526 C14.0772131,32.6004618 14.0403893,32.5925709 14.0026887,32.5846801 C13.7028378,33.8410732 13.3977263,35.0957127 13.1075197,36.3556127 C13.0329953,36.6808896 13.0093229,37.0237017 12.9856504,37.3928164 Z M14.1526142,44.4550954 C14.1526142,43.8369816 14.1526142,43.2188678 14.1526142,42.6217962 C13.0584213,43.9202735 12.7129789,45.7044744 12.2211182,47.3966157 C12.0825905,47.8726949 12.0177105,48.3803373 11.9186369,48.8739515 C11.9563375,48.8853494 11.9940381,48.897624 12.0317386,48.9090218 C12.2123506,48.2558377 12.3929626,47.6035304 12.5814654,46.9231668 C12.7252535,47.2230178 12.8488763,47.4825379 12.9742526,47.7438116 C13.3644095,46.6592629 13.7519362,45.5826051 14.1526142,44.4550954 Z M29.1749715,48.5951428 C29.1977672,48.4609989 29.2188094,48.3268551 29.2424818,48.1927112 C29.2661543,48.0620744 29.2933337,47.9323143 29.3196364,47.8016775 C29.2617705,48.7836456 29.2109185,49.7585995 29.2933337,50.7370605 C29.3713651,49.8988807 29.3389251,49.0475495 29.6361458,48.1488734 C29.2223164,47.1695356 28.7804308,46.1226876 28.3385452,45.0767163 C28.3218868,45.0811 28.3043516,45.0854838 28.2876933,45.0898676 C28.2876933,45.9797761 28.2876933,46.8696847 28.2876933,47.7911564 C28.3262706,47.6605196 28.3569571,47.5570623 28.3999182,47.4106438 C28.4341117,47.9726452 28.465675,48.4811643 28.4963615,48.9888067 C28.5130198,48.9870532 28.530555,48.9852997 28.5472134,48.9835462 C28.5770231,48.6451179 28.6059561,48.3075664 28.6357658,47.9691381 C28.6550545,47.9682614 28.6752199,47.9682614 28.6945086,47.9673846 C28.7392232,48.8239764 28.7839378,49.6814449 28.8268989,50.5091037 C28.8286524,50.5038431 28.8444341,50.464389 28.8567087,50.4328258 C28.8724903,50.4757869 28.8891487,50.5205015 28.9145746,50.5915188 C28.9996201,49.9155391 29.079405,49.2807669 29.1749715,48.5951428 Z M27.5994389,34.2987404 C27.5994389,33.8445802 27.5994389,33.3895432 27.5994389,33.0590058 C27.4574042,32.7679224 27.3592074,32.567145 27.2312009,32.3041178 C26.8822515,33.0239355 26.5324254,33.7455066 26.1825993,34.4670778 C26.4175702,34.3776485 26.5271649,34.4030745 26.692872,34.6845135 C26.977818,35.1676067 27.2443522,35.6664816 27.5179005,36.1583423 C27.5442032,36.1557121 27.5705059,36.1539586 27.5968086,36.1513283 C27.5976854,35.5533799 27.5976854,34.9554315 27.5994389,34.2987404 Z M28.2684046,35.3490955 C28.2684046,35.6138761 28.2587603,35.8786568 28.2701581,36.1425607 C28.281556,36.4143554 28.2771722,36.697548 28.3394219,36.9553146 C28.5235409,37.7189701 28.7374697,38.4712278 28.9382471,39.2287459 C29.086419,39.788117 29.231084,40.3492416 29.3775024,40.9094894 C29.4090657,40.8998451 29.4406289,40.889324 29.4721922,40.8796797 C29.0802817,38.2459012 28.689248,35.6129994 28.2973376,32.9792209 C28.2876933,32.9800976 28.2780489,32.9818511 28.2684046,32.9827279 C28.2684046,33.7507672 28.2684046,34.5196832 28.2684046,35.3490955 Z M28.8400503,43.0207207 C29.1539293,44.2315223 29.4555338,45.4467078 29.7851945,46.6513721 C29.9921092,47.4071368 30.2384779,48.1471199 30.4673116,48.894117 C30.4410089,46.669784 29.8693632,44.6628869 28.9215887,42.8041617 C28.898793,42.810299 28.8759973,42.8164363 28.8523249,42.8234503 C28.8470643,42.8734255 28.840927,42.9225239 28.8400503,43.0207207 Z M13.8333849,48.3610486 C13.8256295,48.2128766 13.8167661,48.0647047 13.8090107,47.9165327 C13.8234136,47.9165327 13.8389245,47.9174095 13.8533274,47.9174095 C13.9563636,48.2786334 14.0593998,48.6398574 14.162436,49.0010813 C14.2089685,48.9975743 14.2555009,48.9940673 14.3020334,48.991437 C14.3463501,48.1260777 14.3895588,47.2615951 14.4338754,46.3962358 C14.0992848,46.8977409 13.8533274,47.431686 13.5685929,47.9463425 C13.3314988,48.3742 13.2749951,48.8046877 13.4256717,49.3044393 C13.4256717,49.0440424 13.4256717,48.8248531 13.4256717,48.6047871 C13.4367509,48.6004033 13.44783,48.5960195 13.4578013,48.5916357 C13.6084779,49.0080954 13.7591545,49.424555 13.9098311,49.8410147 C13.9397448,49.8331239 13.9685506,49.8261098 13.9984644,49.818219 C13.9452844,49.3482772 13.8921044,48.8792121 13.8333849,48.3610486 Z M33.4780957,49.0948944 C33.2159453,49.5341497 32.9923722,50.9281936 33.1037204,51.5340328 C33.2860859,50.8089546 33.4579303,50.1259608 33.6297747,49.4429669 C33.6595844,49.449981 33.6885174,49.4578718 33.7183271,49.4648859 C33.642926,50.1785662 33.5684017,50.8922465 33.4930006,51.6059269 C33.5087822,51.6094339 33.5236871,51.6138177 33.5394687,51.6173247 C33.7577812,50.396002 33.975217,49.175556 34.1961598,47.9393284 C33.9576819,48.3224713 33.7288482,48.6898325 33.4780957,49.0948944 Z M17.9227235,45.1249379 C17.5016202,45.9525967 17.5622218,46.8030511 17.5855301,47.6947132 C18.4727995,47.305433 18.9389656,45.4826548 18.4821228,44.5489084 C18.3111952,44.7198761 18.1309444,44.9004881 17.9227235,45.1249379 Z M8.02711449,45.1126633 C7.93495661,44.9039951 7.84368486,44.6962036 7.74709631,44.4761376 C7.60177041,44.6865593 7.46441972,44.8873367 7.32618289,45.0863606 C7.6912699,45.8184528 8.05458463,46.547038 8.41789937,47.2756232 C8.35587003,46.5522986 8.30270202,45.8280971 8.02711449,45.1126633 Z M9.30616131,46.2743665 C9.25491276,47.3966157 9.70333757,48.500453 10.3727718,49.5999065 C10.491284,47.7113715 10.0909047,45.8333577 9.6777133,43.9562206 C9.55279496,43.9579741 9.43107965,43.9588509 9.30616131,43.9606044 C9.30616131,44.7102318 9.30616131,45.4607359 9.30616131,46.2743665 Z M18.5502381,41.286495 C18.6016372,41.3303329 18.6530363,41.3741707 18.7157432,41.4267762 C18.6047212,41.6030044 18.4988391,41.7573136 18.4083767,41.9203904 C18.3220262,42.0746997 18.2510955,42.2377765 18.1760528,42.3929626 C18.4032368,42.5262297 18.5697698,42.6244265 18.8103175,42.7664611 C18.781534,43.0347488 18.7506946,43.3223252 18.7106033,43.6861794 C18.8894721,43.5581728 19.059089,43.4371803 19.2677693,43.2881316 C19.1063762,43.1829208 19.0231097,43.1303153 18.9305913,43.0698191 C18.9552629,42.7962709 19.0015221,42.5341205 18.9963822,42.2719701 C18.9912423,42.01245 18.9768505,41.7362714 18.8853602,41.5013005 C18.7979817,41.2768507 18.6047212,41.0962387 18.4320203,40.8595143 C18.3734253,41.0068095 18.3436138,41.0830874 18.3096904,41.1681328 C18.3857611,41.2067101 18.448468,41.2373966 18.5502381,41.286495 Z M17.9963176,39.9257679 C18.0062524,40.2475378 18.0316411,40.5622936 18.3727335,40.8130461 C18.3881875,40.6429553 18.3981223,40.5307303 18.4124724,40.3676535 C18.6199979,40.3536254 18.8286273,40.3395973 19.0880341,40.3220621 C18.9368054,40.1116404 18.7921999,39.9099863 18.6762947,39.7495397 C18.7303838,39.5040477 18.7745382,39.3050238 18.8164848,39.116521 C18.3705258,38.8157933 18.291048,39.3172984 18.0614453,39.3444779 C18.0371604,39.5417483 18.0172909,39.7074554 17.9963176,39.9257679 Z M18.7285992,30.6742263 C18.6158037,30.3208931 18.5049529,29.96756 18.3921574,29.6151036 C18.3415938,29.6142268 18.2910303,29.6133501 18.2404668,29.6124733 C18.1082238,30.332291 17.9798702,31.0529854 17.8417929,31.772803 C17.7912294,32.0340766 17.8904117,32.2550194 18.2346326,32.379519 C18.4310524,32.2067978 18.6313617,32.0331999 18.9211295,31.7789403 C18.878345,31.5080223 18.8141682,31.1187421 18.7285992,30.6742263 Z M18.1906578,38.4659672 C18.1906578,38.6369349 18.1906578,38.8079025 18.1906578,38.9788702 C18.2262089,38.9797469 18.2617601,38.9806237 18.2973112,38.9815004 C18.2973112,38.6991846 18.2973112,38.4168688 18.2973112,38.1222784 C18.5283937,38.1327995 18.6631918,38.1389368 18.9372319,38.1512114 C18.6987429,37.9925183 18.555057,37.8908145 18.4010021,37.7970015 C18.2454658,37.7023117 18.0810417,37.6155128 17.8514406,37.4866295 C17.958094,37.3244294 18.0632662,37.1666131 18.1639944,37.0123038 C18.4113711,37.0728001 18.5402441,37.1043633 18.6765235,37.1385569 C18.76392,36.2959932 18.6705983,36.1530818 17.8455154,35.8611217 C17.8455154,36.6046117 17.8455154,37.3428413 17.8455154,38.0819476 C17.9447623,38.0915919 18.0440093,38.1003595 18.1639944,38.1117573 C18.1728822,38.224859 18.18177,38.3177952 18.1906578,38.4659672 Z M11.9913973,46.5838618 C12.0505538,46.6031505 12.1108935,46.6233159 12.1724164,46.6434813 C12.2883632,46.2901482 12.4019438,45.9482129 12.5143413,45.6054008 C11.5264267,46.5426542 11.177403,47.6175585 11.5974146,48.7371774 C11.7169108,48.2155069 11.8671685,47.5816115 12.0044117,46.9450858 C12.0257081,46.8425052 11.9913973,46.7302803 11.9913973,46.5838618 Z M16.9636428,46.5601894 C17.1768469,46.6399743 17.3900509,46.7197592 17.5709938,46.7881462 C17.5303168,46.3348628 17.5303168,46.3348628 16.716775,45.933308 C16.7911159,45.7702312 16.8710674,45.5948797 16.9510189,45.4186515 C17.0323731,45.3835813 17.1137273,45.3476342 17.1950814,45.3125639 C17.3605951,45.5124646 17.5261088,45.7123652 17.7252862,45.9534734 C17.8276803,45.3222083 17.7912112,45.0986352 17.5513566,44.9925476 C17.270825,44.868048 16.9776694,44.868048 16.6873192,44.9986849 C16.6873192,45.5370138 16.6873192,46.0630681 16.6873192,46.5908759 C16.7630627,46.579478 16.8303903,46.5698337 16.9636428,46.5601894 Z M12.6554941,49.2684923 C12.6986067,49.1799398 12.7417193,49.0922641 12.8125471,48.9458456 C12.8341034,49.0826198 12.8448815,49.1624047 12.8633584,49.2772598 C13.6301466,48.1120496 13.331438,47.7858959 12.7894511,47.4071368 C12.5969841,48.2444399 12.4152953,49.0343981 12.2351463,49.8243563 C12.2674807,49.8287401 12.2998152,49.8322471 12.3321496,49.8366309 C12.4368516,49.6639098 12.5430934,49.4911886 12.6554941,49.2684923 Z M28.360754,42.4403074 C28.1341713,43.0987521 28.6971949,43.5871058 29.3031319,44.1043926 C28.9512421,43.214484 28.290376,42.3929626 28.5324075,41.4486951 C28.6697303,41.499547 28.7658563,41.5337405 28.8757146,41.5740714 C28.6748799,41.1839144 28.4894941,40.820937 28.3023918,40.4570827 C28.2714941,40.4614665 28.2405965,40.4649736 28.2114154,40.4693573 C28.2629114,41.1085133 28.316124,41.7459158 28.360754,42.4403074 Z M16.5891789,43.9895374 C16.5725016,44.2288921 16.5558244,44.4682468 16.5391472,44.7076015 C16.6687164,44.2885116 17.0907783,44.2604553 17.5449119,44.2595786 C17.4179084,44.1157904 17.337088,44.0254844 17.2729449,43.9527136 C17.3922512,43.7808692 17.4974459,43.6309437 17.6308637,43.4371803 C17.3460681,43.3416138 17.1190013,43.2662127 16.8534487,43.1776602 C16.8534487,43.4345501 16.8534487,43.6458486 16.8534487,43.8632843 C16.7816083,43.8843265 16.6905251,43.9106292 16.5891789,43.9895374 Z M21.5967861,43.7799924 C21.7455029,44.1780402 21.8908398,44.5760879 22.0395566,44.9741357 C22.1037752,44.9732589 22.1679938,44.9723821 22.2355923,44.9715054 C22.2355923,44.0272379 22.2355923,43.0829705 22.2355923,42.1308122 C21.8300011,42.1308122 21.4446894,42.1308122 21.1438759,42.1308122 C21.2959726,42.6726481 21.4446894,43.1969489 21.5967861,43.7799924 Z M8.40069941,49.4868048 C8.35100063,49.1404857 8.35762713,48.7853991 8.23669344,48.4487243 C8.10416337,48.0752258 7.8573261,47.7192624 7.66018762,47.3554081 C7.60054909,47.3676827 7.53925393,47.3799573 7.4796154,47.3922319 C7.48292865,48.3838443 8.25822958,49.2649852 8.57133188,50.21539 C8.51997647,49.9900634 8.47027769,49.7656136 8.40069941,49.4868048 Z M13.9567263,49.1597744 C13.8573986,49.0282608 13.7580708,48.8967472 13.6275258,48.7266563 C12.733576,49.2395593 12.8527693,50.1601543 13.8602365,50.7011135 C14.1071369,50.1820732 14.2405199,49.7016103 13.9567263,49.1597744 Z M18.8404546,34.2452582 C18.8151114,34.1321565 18.7804312,34.0199316 18.7657588,33.9059532 C18.7110709,33.4526697 18.4309619,33.1273928 17.9014224,32.9108338 C17.8640745,33.6455563 18.3656031,34.1347868 18.9911799,34.5749189 C18.9431612,34.4811059 18.8951425,34.3881696 18.8404546,34.2452582 Z M11.1757685,44.9636146 C11.0825921,45.1740363 10.9692275,45.3818277 10.9024511,45.5957565 C10.8341218,45.810562 10.8046159,46.0315048 10.7688983,46.2506941 C10.7347337,46.4558553 10.7114396,46.66277 10.6850396,46.8688079 C10.7285219,46.8731917 10.7735572,46.8775755 10.8170395,46.8810825 C11.136945,45.8903469 11.4568505,44.8996113 11.7767561,43.9079989 C11.7643326,43.9053687 11.753462,43.9027384 11.7410385,43.9001081 C11.5640034,44.2402899 11.3885212,44.5804717 11.1757685,44.9636146 Z M19.3471604,38.9330376 C19.0660164,39.3734398 19.0909454,39.6892617 19.4302572,39.9384222 C19.5327432,39.8914314 19.6379991,39.8411621 19.7584894,39.7854289 C19.9094485,39.8575543 20.0562528,39.9274941 20.2459904,40.0171044 C20.0714872,39.6269715 19.9149883,39.2750869 19.7584894,38.925388 C19.6283045,38.925388 19.5202787,38.925388 19.3471604,38.9330376 Z M17.5505244,47.5062104 C17.290115,47.37382 17.0297055,47.2414297 16.666277,47.0564339 C16.8064975,47.2896513 16.9181015,47.4728936 17.0268439,47.6578894 C17.2572061,48.0445393 17.4861375,48.4311892 17.7579935,48.8879797 C17.7036223,48.3926119 17.6564052,47.9638776 17.5505244,47.5062104 Z M19.489443,33.97171 C18.6253686,34.0716603 18.4692777,34.3259199 19.1177981,35.1272759 C19.2776054,34.989625 19.4522786,34.8388228 19.6269517,34.6880206 C19.6882731,34.7002952 19.7495945,34.711693 19.8109159,34.7239676 C19.7328705,34.4793524 19.654825,34.2347371 19.489443,33.97171 Z M19.8797458,48.2567145 C19.5164844,48.9502294 19.1512908,49.6446211 18.7880293,50.338136 C18.85759,50.3512874 18.9271507,50.3644387 18.9967114,50.3775901 C19.1165104,50.2618581 19.2285804,50.1434959 19.3599728,50.0321478 C19.9937481,49.4938189 19.7715403,48.872198 19.8797458,48.2567145 Z M20.0326529,35.9119736 C20.100776,35.7830903 20.1688991,35.654207 20.2370222,35.5253237 C20.3191193,35.5752988 20.4012164,35.625274 20.4815667,35.6752491 C20.5112614,35.4192361 20.5392093,35.1623462 20.575891,34.830932 C20.1758861,35.1106175 19.8492445,35.3385744 19.4841745,35.5937107 C19.6064468,35.8435865 19.7322125,36.0960926 19.8562315,36.3485986 C19.8894197,36.3424613 19.9226079,36.3372008 19.9557961,36.3310635 C19.96977,36.206564 19.983744,36.0811877 20.0326529,35.9119736 Z M18.8232307,45.8049156 C19.0992203,45.72021 19.3752099,45.6342767 19.6930908,45.5360672 C19.7103401,45.4587273 19.7448388,45.3089578 19.7928906,45.0965799 C19.6203971,44.9811837 19.4491357,44.8670152 19.2261263,44.7172458 C19.031455,45.1051732 18.8638899,45.4390854 18.7012532,45.7766804 C18.698789,45.7791356 18.7542333,45.8221023 18.8232307,45.8049156 Z M18.7301634,46.6598242 C18.9857767,46.6947099 19.2430392,46.7295956 19.5052491,46.7655073 C19.5266876,46.8650341 19.5481262,46.9604567 19.5679156,47.0486969 C19.6503715,46.7049704 19.7344766,46.3581657 19.8218798,45.9990485 C19.5728629,45.9857098 19.3518811,45.9733972 19.0517415,45.9569804 C18.9214611,46.1816852 18.7895316,46.4094682 18.7301634,46.6598242 Z M6.64143554,46.3374931 C6.75276736,46.4225385 6.88736254,46.4988164 6.97210766,46.5935062 C7.17981627,46.8232165 7.36426152,47.0608177 7.55701512,47.2949119 C7.61517353,47.283514 7.67499361,47.2721162 7.73315202,47.2615951 C7.57529348,46.8197095 7.4190966,46.3778239 7.23465135,45.8605372 C6.96712265,46.0569308 6.80760244,46.1744162 6.64143554,46.3374931 Z M8.92385285,50.8782184 C8.93205912,50.886986 8.93698289,50.8975071 8.94847167,50.9053979 C8.95667794,50.9115352 8.98129676,50.9185493 8.98293801,50.9176725 C9.01412185,50.8878628 9.07484827,50.854546 9.06992451,50.825613 C8.95996045,50.056697 8.55457057,49.3447701 8.09337804,48.6442412 C8.05562919,48.6512552 8.01623908,48.6582693 7.97849022,48.6652833 C8.28868734,49.3868545 8.59888445,50.1093024 8.92385285,50.8782184 Z M20.2774046,41.172062 C20.0474037,41.0934809 19.8158275,41.0148998 19.5811006,40.9349154 C19.5102099,41.2576593 19.4298671,41.6281133 19.3605518,41.9452443 C19.7827452,41.9761154 20.148226,42.0041801 20.4522683,42.0266319 C20.4034324,41.7810658 20.351446,41.5102416 20.2774046,41.172062 Z M21.5522541,40.488646 C21.5827917,40.2580589 21.615874,40.0274717 21.6464115,39.7968846 C21.529351,39.7889938 21.4122905,39.7819797 21.29523,39.7740889 C21.0305714,40.1633691 20.7633681,40.5526493 20.554695,40.8577608 C20.727741,41.0147003 20.8371671,41.1155274 21.0000339,41.2654528 C21.2417893,40.9349154 21.381753,40.737645 21.5522541,40.488646 Z M34.953678,52.7027501 C35.1613704,52.4274483 35.4294179,52.1617909 35.5661043,51.8742146 C35.7737967,51.4375895 35.8909565,50.9860596 36.0453945,50.5406669 C35.9939152,50.5345296 35.944211,50.5283923 35.8927317,50.5231318 C35.5696546,51.2350586 35.2448024,51.9469854 34.953678,52.7027501 Z M30.4079229,48.9239267 C30.2354237,48.7897829 30.0597882,48.6547623 29.887289,48.5206184 C29.8057439,48.5285092 29.7241988,48.5355233 29.6457901,48.5434141 C29.761835,49.0221235 29.8778799,49.5008329 29.9907885,49.9795423 C30.1193788,49.9821726 30.2479691,49.9848029 30.3765594,49.9883099 C30.5051497,49.876085 30.7466486,49.7629833 30.7372395,49.6525119 C30.7184214,49.4228015 30.5678767,49.1965982 30.4079229,48.9239267 Z M21.2087026,40.2229886 C21.3858728,40.514072 21.4390238,40.8156764 22.2982992,41.0629219 C22.2982992,40.546512 22.2982992,40.059035 22.2982992,39.5329807 C20.9296596,39.697811 21.2574244,39.9485636 21.2087026,40.2229886 Z M19.9452596,37.4288958 C20.0302753,37.5784867 20.1173151,37.7280776 20.2084034,37.8865845 C20.9047224,37.4695132 20.9350852,37.3119969 20.4715472,36.794868 C20.2185243,36.8562895 19.9715739,36.9157296 19.6902125,36.983095 C19.7671314,37.1178259 19.840002,37.2476035 19.9452596,37.4288958 Z M17.498851,42.3779722 C17.3216995,42.7348389 17.2069252,43.0811474 18.1400898,43.2944227 C18.2473788,42.9407235 18.3496776,42.6007499 18.469442,42.2027063 C18.0752174,42.2512739 17.8007572,42.2850601 17.498851,42.3779722 Z M17.0176212,48.5223719 C17.0774412,48.7950434 17.1372613,49.0668381 17.1970814,49.3395096 C17.2291279,49.3386328 17.2611744,49.3377561 17.2932208,49.3360026 C17.318858,49.233422 17.3423588,49.1317182 17.3893602,48.9449689 C17.5581383,49.1352252 17.6521413,49.2413128 17.7461443,49.3474004 C17.7910094,49.3395096 17.8358744,49.3316188 17.8807395,49.3246047 C17.5581383,48.807318 17.2334007,48.2900313 16.9107996,47.7727445 C16.8702074,47.7780051 16.8296152,47.7832656 16.789023,47.7885262 C16.8531159,48.0147295 16.9172089,48.2418096 17.0176212,48.5223719 Z M18.9185422,44.6541193 C18.7649654,45.0056989 18.6113885,45.3564018 18.4285589,45.7719847 C19.3134541,45.53263 19.726649,45.0276179 19.4194953,44.4261624 C19.2403223,44.4866587 19.0648059,44.5471549 18.9185422,44.6541193 Z M18.9153129,41.2268755 C18.8733238,40.8384721 18.8397326,40.4500687 18.7977435,40.0616653 C18.4702285,40.062542 18.1427136,40.0634188 17.8235965,40.0651723 C17.8235965,40.5763217 17.8235965,41.0874711 17.8235965,41.5986206 C18.0839288,41.6003741 18.3358634,41.6030044 18.5961958,41.6047579 C18.7221631,41.4969167 18.8481304,41.3899524 18.9153129,41.2268755 Z M20.6502633,50.3688225 C19.8821754,50.8799719 19.189285,51.3928749 19.7962355,51.9285735 C20.0003428,51.9320805 20.2044501,51.9347108 20.4031861,51.9382178 C20.5482097,51.4121635 20.687862,50.8861092 20.6502633,50.3688225 Z M25.2663881,51.9434784 C25.3108945,51.92682 25.3580189,51.9110384 25.3972893,51.8935032 C25.4129975,51.8864892 25.4103794,51.8715843 25.4260876,51.8645702 C25.4391777,51.8593097 25.467976,51.8610632 25.5438987,51.8575562 C25.5438987,51.9697811 25.5438987,52.0793757 25.5438987,52.1889704 C25.577933,52.1907239 25.6145854,52.1916007 25.6486197,52.1933542 C25.7402506,51.9724114 25.8318815,51.7523453 25.9601647,51.4446036 C26.0622677,51.7988135 26.1381904,52.0600871 26.2114951,52.3213607 C26.2612376,52.3187305 26.3083621,52.3161002 26.3581045,52.3134699 C26.2350574,51.901394 26.1120102,51.4884414 25.988963,51.0763655 C25.9104222,51.0728585 25.8318815,51.0702282 25.7533407,51.0667212 C25.5857871,51.3464068 25.4182335,51.6269691 25.2663881,51.9434784 Z M21.3408256,43.2812714 C21.447178,43.0616361 21.7113436,42.8226213 21.6049912,42.6262415 C21.5192231,42.4686209 20.9840305,42.3613872 20.5380366,42.1895549 C20.5380366,42.6171977 20.5380366,42.9233951 20.5380366,43.2593079 C20.7816179,43.2709356 20.9737383,43.2786874 21.3408256,43.2812714 Z M21.8883965,45.4545986 C21.722001,45.0521671 21.5556056,44.6497355 21.3851517,44.2464272 C21.1903473,44.2525645 20.9914844,44.2587018 20.79668,44.2648391 C20.8737901,44.4612327 20.9509002,44.6567496 21.0564192,44.9162697 C21.23499,44.8154426 21.2918079,44.7812491 21.4216776,44.7084782 C21.4216776,45.0591811 21.4216776,45.3660461 21.4216776,45.6720344 C21.5109629,45.6737879 21.5961899,45.6746646 21.6854752,45.6764182 C21.7463516,45.6185522 21.8031696,45.5589327 21.8883965,45.4545986 Z M6.23900129,45.0916171 C6.36774976,45.3371669 6.49826191,45.5827166 6.63935613,45.8501699 C6.82101493,45.7371939 6.99738269,45.6276764 7.17904149,45.5147005 C6.83159699,45.273762 6.50355294,45.0478101 6.08732501,44.7584534 C6.15258109,44.9129307 6.18079993,44.9751828 6.23900129,45.0916171 Z M20.464168,50.3241079 C20.429656,50.273256 20.3951441,50.2215273 20.4124,50.2434462 C20.4124,50.6695502 20.4124,51.1675483 20.4124,51.6646696 C20.7747756,51.6629161 21.1371511,51.6602858 21.4995267,51.6585323 C21.1630351,51.2297981 20.8179155,50.8019406 20.464168,50.3241079 Z M18.8065473,43.7015393 C18.8453903,43.7050161 18.880349,43.7119697 18.9191919,43.7108108 C18.9424977,43.7096519 18.9891093,43.6945857 18.985225,43.6922679 C18.7405142,43.476706 18.4919191,43.2623031 18.2433239,43.0479002 C18.126795,43.051377 18.010266,43.0548538 17.893737,43.0594895 C17.893737,43.4199182 17.893737,43.7803469 17.893737,44.1396166 C17.9558858,44.1396166 18.0219189,44.1384577 18.0840677,44.1384577 C18.2743983,43.9889551 18.4608447,43.8406115 18.8065473,43.7015393 Z M19.9437027,37.7773092 C19.7229731,37.6618854 19.5052264,37.5480648 19.1323724,37.3524856 C19.0488531,37.7484533 18.9891964,38.0354096 18.926557,38.323969 C19.2874796,38.3640467 19.58278,38.3961088 20.0182735,38.4442021 C20.0182735,38.2181639 20.0182735,38.011363 19.9437027,37.7773092 Z M24.2352824,50.4994593 C24.0362716,50.9965806 23.8372608,51.4928252 23.63825,51.9899465 C23.8145167,51.9917 23.9907834,51.9934535 24.1670502,51.9952071 C24.3546889,51.4288219 24.5423277,50.8633136 24.7299665,50.2969284 C24.6446761,50.2942982 24.5650718,50.2916679 24.4797814,50.2890376 C24.4001771,50.3425198 24.3262588,50.396002 24.2352824,50.4994593 Z M18.1358275,47.8159802 C18.0504419,47.9129331 17.9681057,48.0085579 17.8735716,48.1174639 C18.2486586,48.1174639 18.5871517,48.1174639 18.9652881,48.1174639 C18.9652881,47.7761365 18.9652881,47.4653559 18.9652881,47.0257474 C18.6359435,47.3524655 18.4285783,47.5569963 18.1358275,47.8159802 Z M18.6942181,34.8328585 C18.4452756,34.7400626 18.1963332,34.6490863 17.8981208,34.5380951 C17.8981208,34.962045 17.8981208,35.3204919 17.8981208,35.6298116 C18.245603,35.4514979 18.5930852,35.2731842 18.9898373,35.0675776 C18.9172291,35.0020746 18.8549935,34.9438497 18.6942181,34.8328585 Z M29.1291917,48.5828682 C29.1291917,48.4723968 29.1291917,48.3619254 29.1291917,48.251454 C28.9326827,48.251454 28.7361738,48.2523307 28.5396648,48.2523307 C28.5396648,48.7757547 28.5396648,49.3000555 28.5396648,49.8234796 C28.7361738,49.8234796 28.9326827,49.8243563 29.1291917,49.8243563 C29.1291917,49.4298156 29.1291917,49.0352749 29.1291917,48.5828682 Z M20.2766053,41.7543508 C20.2766053,41.6155837 20.2766053,41.4768166 20.2766053,41.3392775 C19.9381732,41.3380495 19.588824,41.3368214 19.2503918,41.3355934 C19.2503918,41.6978615 19.2503918,42.0601297 19.2503918,42.4223978 C19.3158948,42.4236258 19.392315,42.4248538 19.457818,42.4273099 C19.7307471,42.2259134 20.0036762,42.0269729 20.2766053,41.7543508 Z M9.25774611,49.6034135 C9.34072694,49.7095011 9.42630092,49.8155887 9.50928174,49.9216764 C9.56633106,49.9146623 9.62338037,49.9067715 9.68042969,49.8997574 C9.37184475,49.4938189 9.06325981,49.0870035 8.75467486,48.681065 C8.7002187,48.688079 8.64316938,48.6950931 8.58871321,48.7012304 C8.79875843,48.9861765 9.01139679,49.2711225 9.25774611,49.6034135 Z" id="形状"></path>
                        <path d="M24.313353,8.70181489 C24.1783324,8.19154222 24.2633779,7.73825876 24.4264547,7.29549639 C24.4510039,7.58307274 24.4746763,7.86451179 24.4983488,8.1468276 C24.5176374,8.14507409 24.5369261,8.14332057 24.5570915,8.14156706 C24.6149575,7.70757226 24.6728235,7.2727007 24.7306894,6.83870591 C24.7613759,6.84221294 24.7920624,6.84571996 24.8236257,6.84922699 C24.8508052,7.2665634 24.7184148,7.71020253 24.891136,8.1038665 C24.9191922,8.10298974 24.9463717,8.10211298 24.9744279,8.10035947 C25.071748,7.28322179 25.1699448,6.46608411 25.2672648,5.64894643 C25.2909373,5.64806967 25.3154865,5.64631616 25.3391589,5.6454394 C25.3751059,6.49940088 25.4119297,7.35336236 25.4496303,8.24677792 C25.6872315,8.07318 25.6433936,7.78560365 25.6661893,7.54887921 C25.6907385,7.29286612 25.6714499,7.03071573 25.6714499,6.69228746 C25.9441213,7.26744016 25.8774878,7.82242745 25.8967765,8.43528071 C26.1107052,8.08370108 26.1071982,7.75404039 26.0353041,7.36388345 C26.4920946,8.28973902 26.1861063,9.1252886 25.2137826,9.73200456 C25.0024841,10.33346 24.7762808,10.9261478 24.5904083,11.5372476 C24.5123769,11.7923839 24.3896309,11.8432358 24.1090686,11.8572639 C24.4229477,11.0541544 24.7122775,10.3132946 24.9717976,9.64871263 C24.7534851,9.34009411 24.5360493,9.0332291 24.313353,8.70181489 Z" id="路径"></path>
                        <path d="M5.27369436,40.3659 C5.19040243,40.5281001 5.10360347,40.6683812 5.00803694,40.827951 C4.81076658,40.3317065 4.63278487,39.8109127 4.43200748,39.3023935 C4.06903001,38.383552 3.69202443,37.4717246 3.32115615,36.5563901 C3.30362101,36.513429 3.28608586,36.4704679 3.28608586,36.4143554 C4.08656516,37.6216501 4.65558056,38.9999123 5.27369436,40.3659 Z" id="路径"></path>
                        <path d="M2.84946079,44.8965294 C2.44965953,45.2325387 2.04810474,45.5714199 1.64654996,45.913173 C2.01128094,45.0688419 2.40669842,44.7242169 2.83630944,44.8448357 C2.84595377,44.9166325 2.84770728,44.9022731 2.84946079,44.8965294 Z" id="路径"></path>
                        <path d="M8.69195057,42.5542859 C8.75161602,42.6112751 8.7774173,42.6647573 8.80805631,42.7384049 C8.71936443,42.7121022 8.59197063,42.6770319 8.53553034,42.6147821 C8.22430245,42.2728468 7.93081294,41.9247742 7.71633983,41.5477687 C8.03079288,41.8818131 8.34524593,42.2158576 8.69195057,42.5542859 Z" id="路径"></path>
                        <path d="M15.4296364,46.6566327 C15.6404705,47.0695853 15.8426403,47.4588655 16.04481,47.8481457 C15.9437251,47.8551597 15.8397521,47.8621738 15.7386673,47.8691878 C15.4758466,47.3825876 15.2159141,46.8951106 14.9530935,46.4085104 C15.0339614,46.4014963 15.1119411,46.3944823 15.192809,46.3874682 C15.2679006,46.4690066 15.3458804,46.5514218 15.4296364,46.6566327 Z" id="路径"></path>
                    </g>
                </g>
            </g>
        </g>
    </g>
</svg>
