<?xml version="1.0" encoding="UTF-8"?>
<svg width="47px" height="61px" viewBox="0 0 47 61" version="1.1" xmlns="http://www.w3.org/2000/svg" xmlns:xlink="http://www.w3.org/1999/xlink">
    <title>6</title>
    <g id="页面-1" stroke="none" stroke-width="1" fill="none" fill-rule="evenodd">
        <g id="形状库素材-植物" transform="translate(-324.000000, -556.000000)" fill="#545458">
            <path d="M345.226406,556.592938 L345.602845,556.521302 C347.556494,556.135183 348.654332,555.738376 349.306065,557.937256 C350.100065,560.611676 350.366085,563.418091 350.284858,566.200137 C352.786669,566.239736 355.1707,566.416406 357.549655,567.334278 C360.297179,568.395314 362.860927,569.745724 365.772938,570.344777 C366.261319,570.445297 366.501956,571.20579 366.086679,571.532732 C365.682572,571.849519 365.268311,572.11554 364.849988,572.356177 C373.45582,577.491964 370.332434,589.674415 366.911804,597.466649 L366.796406,597.72763 C363.743262,604.583242 358.47565,612.199349 351.393615,615.389564 C346.082343,617.781718 341.761032,614.609779 338.040806,610.851985 C329.616485,602.339329 316.290076,580.494171 331.340542,571.913486 C331.059291,571.612944 330.797332,571.280926 330.579033,570.878849 C330.314027,570.391483 330.649091,569.836089 331.192301,569.80969 C332.790382,569.732191 334.22552,569.120475 335.644687,568.44233 L336.735682,567.915464 C337.500643,567.548526 338.271899,567.197105 339.072397,566.934232 C341.214776,566.231613 343.410969,565.952393 345.647775,565.861012 C345.776724,563.013983 345.490396,560.232952 344.729902,557.467151 C344.635475,557.122949 344.848698,556.660966 345.226406,556.592938 Z M340.802546,572.313532 C338.169755,573.457827 334.840438,574.105617 332.509204,572.829328 C332.461483,572.877049 332.416808,572.927816 332.346749,572.966399 C322.776653,578.17895 326.006846,589.311234 330.007001,597.130562 L330.26326,597.62508 C333.432153,603.664355 338.630722,611.994249 345.398,614.533628 C352.103447,617.05005 359.317314,607.680916 362.404138,602.876849 L362.814414,602.225445 C367.592718,594.472981 373.822495,578.475786 363.369615,573.1583 C363.329001,573.137993 363.308694,573.107533 363.276203,573.08418 C360.3713,574.116786 357.22779,573.660896 354.236582,572.487156 C354.74527,574.5412 354.496511,576.569861 353.970562,578.753869 C353.858874,579.217882 353.319725,579.383383 352.926787,579.178283 C350.679827,578.001498 348.888758,576.674441 348.069374,574.515817 C346.447867,576.756684 343.993777,578.054296 341.288897,578.935616 C340.857375,579.075733 340.373055,578.698025 340.389301,578.250257 C340.463421,576.132247 340.221769,574.140139 340.802546,572.313532 Z M347.281363,606.357993 L347.372847,606.363143 C347.673389,606.337759 347.973931,606.475846 348.056174,606.860662 C348.225737,607.654662 348.595323,608.437494 348.581108,609.261954 C348.570954,609.912791 348.300873,610.724052 347.570839,610.853001 C346.753486,610.99718 346.213322,610.22044 346.228552,609.479238 C346.245813,608.613149 346.525033,607.709491 346.685458,606.860662 C346.75308,606.504276 347.008216,606.358432 347.281363,606.357993 L347.281363,606.357993 Z M354.811905,599.123657 L354.903664,599.128806 C355.204206,599.103423 355.503733,599.24151 355.585976,599.626326 C355.755539,600.420326 356.125125,601.203157 356.11091,602.027618 C356.100757,602.678454 355.83169,603.489715 355.101657,603.618664 C354.284303,603.762843 353.74414,602.986104 353.75937,602.244902 C353.775615,601.378812 354.054835,600.475155 354.21526,599.626326 C354.282882,599.269939 354.538018,599.124095 354.811905,599.123657 L354.811905,599.123657 Z M340.510764,598.48602 L340.602523,598.491169 C340.90205,598.465786 341.202592,598.603873 341.284835,598.988689 C341.454398,599.782689 341.823984,600.56552 341.810784,601.389981 C341.799615,602.040817 341.529534,602.852078 340.7995,602.981027 C339.983162,603.125206 339.442999,602.348467 339.457213,601.607265 C339.474474,600.741175 339.753694,599.837518 339.914119,598.988689 C339.981741,598.632302 340.236877,598.486458 340.510764,598.48602 L340.510764,598.48602 Z M347.748395,591.184395 L347.839906,591.18982 C348.140448,591.163421 348.44099,591.301508 348.523233,591.686324 C348.692796,592.480324 349.062382,593.263156 349.048167,594.088631 C349.038013,594.738453 348.767931,595.549714 348.037898,595.678662 C347.22156,595.823857 346.681397,595.046102 346.695611,594.3049 C346.712872,593.43881 346.992092,592.535153 347.152517,591.686324 C347.219225,591.329938 347.475092,591.184094 347.748395,591.184395 Z M335.231216,590.082745 L335.322727,590.08817 C335.623269,590.061771 335.923811,590.199858 336.005039,590.584674 C336.174601,591.378674 336.544187,592.161506 336.530988,592.986982 C336.519819,593.636803 336.250752,594.448064 335.520719,594.577013 C334.703366,594.722207 334.163202,593.944452 334.178432,593.20325 C334.195693,592.337161 334.473898,591.433503 334.635338,590.584674 C334.702046,590.228288 334.957913,590.082444 335.231216,590.082745 Z M358.856273,590.082745 L358.947785,590.08817 C359.248327,590.061771 359.54887,590.199858 359.630097,590.584674 C359.79966,591.378674 360.169246,592.161506 360.156046,592.986982 C360.144878,593.636803 359.875811,594.448064 359.145778,594.577013 C358.328424,594.722207 357.788261,593.944452 357.802476,593.20325 C357.820752,592.337161 358.099972,591.433503 358.259381,590.584674 C358.327003,590.228288 358.582961,590.082444 358.856273,590.082745 L358.856273,590.082745 Z M342.611892,582.246657 C342.919542,582.209089 343.227191,582.346161 343.300296,582.743161 C343.444475,583.542238 343.789693,584.337253 343.757202,585.159683 C343.731818,585.81255 343.448537,586.610612 342.719518,586.734484 C341.899119,586.874602 341.369109,586.08974 341.398554,585.347522 C341.431045,584.483463 341.743771,583.584882 341.92958,582.743161 C342.013853,582.360376 342.31338,582.222289 342.611892,582.246657 Z M353.087211,581.514593 C353.097365,581.044488 353.581684,580.785575 353.990869,580.886094 C354.250797,580.924677 354.460974,581.093225 354.487373,581.392752 C354.704656,582.139031 355.076273,582.846726 355.135163,583.631588 C355.184915,584.288517 354.98083,585.117039 354.262981,585.318077 C353.461874,585.543484 352.86282,584.809389 352.811037,584.07834 C352.751132,583.256926 352.978569,582.358345 353.078073,581.543023 L353.087211,581.514593 Z M333.227054,579.947915 C333.636238,579.84435 334.12665,580.103263 334.136803,580.575398 L334.145941,580.603828 L334.178181,580.823029 C334.366044,581.959836 334.958774,584.149185 333.362095,584.396144 C332.526465,584.525092 332.027931,583.718908 332.080729,582.969583 C332.139619,582.135984 332.505143,581.261772 332.736642,580.457618 C332.76101,580.157076 332.967125,579.987513 333.227054,579.947915 Z M362.738708,579.292668 L362.830466,579.298094 C363.129993,579.271695 363.430536,579.410797 363.512778,579.794598 C363.682341,580.588598 364.051927,581.371429 364.038727,582.196905 C364.027559,582.846726 363.758492,583.657987 363.028459,583.786936 C362.211106,583.932131 361.670942,583.154376 361.686172,582.414189 C361.702418,581.547084 361.981638,580.643427 362.142062,579.794598 C362.209684,579.438212 362.46482,579.292367 362.738708,579.292668 L362.738708,579.292668 Z M347.936364,558.314964 C347.972916,557.597115 347.681512,557.392015 347.061136,557.69865 L346.275258,557.841813 C346.978893,560.696965 347.254051,563.579531 347.050982,566.530124 C347.046921,566.589691 347.03248,566.642489 347.01458,566.692429 L346.978893,566.792084 L346.937264,566.867219 C346.833698,567.077396 346.641798,567.242897 346.34024,567.248989 C342.770286,567.333263 339.655206,568.102895 336.438591,569.586314 L335.550803,569.99523 C334.537338,570.455964 333.584681,570.849066 332.51225,571.064657 C334.911512,573.343093 339.852183,571.465719 342.217938,569.967069 C342.932741,569.51321 343.590685,570.505202 343.078951,571.082934 C341.816538,572.50611 341.755617,574.362923 341.790943,576.170966 L341.814846,577.246081 C344.344071,576.302825 346.495588,574.929062 347.724156,572.341962 C348.05922,571.635282 348.983185,572.077972 349.048167,572.700379 C349.305049,575.133147 350.903203,576.42162 352.802914,577.49484 C353.239513,575.467195 353.390799,573.627389 352.447543,571.567253 C352.148017,570.91134 352.757224,570.27878 353.420244,570.594552 C356.718087,572.168338 360.568277,573.058796 363.846827,571.324586 C362.144093,570.831128 360.527663,570.148816 358.881788,569.445181 C355.72914,568.094772 353.041521,567.636851 349.563962,567.611467 C349.428312,567.610655 349.319305,567.572153 349.226543,567.515716 L349.159855,567.470334 C348.974047,567.363723 348.83799,567.177915 348.852205,566.891587 C348.944263,565.082016 348.893521,563.289292 348.627954,561.501292 L348.518156,560.83099 C348.389208,560.11111 348.329302,558.93534 347.936364,558.314964 Z" id="6"></path>
        </g>
    </g>
</svg>
