<?xml version="1.0" encoding="UTF-8"?>
<svg width="60px" height="60px" viewBox="0 0 60 60" version="1.1" xmlns="http://www.w3.org/2000/svg" xmlns:xlink="http://www.w3.org/1999/xlink">
    <title>1</title>
    <g id="页面-1" stroke="none" stroke-width="1" fill="none" fill-rule="evenodd">
        <g id="植物" transform="translate(-80.000000, -158.000000)" fill="#545458">
            <path d="M114.758359,158.88343 C115.010176,158.976493 115.349581,159.211886 115.181703,159.545817 C115.112363,159.689973 115.002877,159.784861 114.895216,159.887047 L114.98691,159.856483 L115.081342,159.828655 C115.358705,159.744716 115.647017,159.660777 115.942628,159.668076 C116.402467,159.682674 116.581294,159.94544 116.61049,160.277546 C116.716326,160.408928 116.820337,160.538486 116.931647,160.664395 C116.959019,160.695416 116.962668,160.715488 116.962668,160.730086 C116.968143,160.711838 116.980916,160.680818 117.032009,160.626075 C117.128721,160.51294 117.21631,160.39798 117.303898,160.281195 L117.524897,159.934761 C117.680204,159.698894 117.859842,159.474652 118.114091,159.390713 C118.69254,159.208237 119.738127,159.615158 119.975346,160.297618 C120.073883,160.582281 120.099429,160.806726 120.033738,161.096863 L119.996587,161.248346 C119.968275,161.375024 119.97717,161.440374 120.119502,161.562176 C120.480804,161.870561 120.727146,162.036614 121.168738,161.892458 C121.924188,161.646115 122.405925,161.784797 122.778176,162.498278 C122.989848,162.48368 123.19787,162.447184 123.405893,162.427112 C123.486182,162.102305 123.674133,161.828591 124.048208,161.897932 C124.453305,161.970922 124.688699,162.523824 124.807308,162.888776 C124.975186,163.407008 124.916794,164.100416 124.537244,164.470842 C124.363891,164.64237 124.172292,164.708061 123.973393,164.750031 L124.211068,164.876851 C124.287252,164.921102 124.358417,164.969002 124.418634,165.025569 C124.477027,165.085786 124.535419,165.151478 124.582863,165.224468 C124.699647,165.144179 124.821906,165.076662 124.964237,165.040167 C125.334663,164.939805 125.688667,165.043817 126.011649,165.297458 C126.257992,165.489058 126.548128,165.746349 126.785347,166.032836 L126.874076,166.140953 L126.987895,166.308375 C127.042638,166.395963 127.095556,166.485376 127.137525,166.578439 L127.140719,166.591213 L127.192952,166.734912 L127.239712,166.923319 C127.248227,166.986577 127.253499,167.049024 127.252823,167.112823 L127.244046,167.237405 L127.239712,167.266373 C127.225114,167.36856 127.201392,167.467097 127.155773,167.567459 C126.767099,168.415972 126.035371,167.972555 125.407654,168.255393 C125.203281,168.35028 125.708739,168.676912 125.783554,168.687861 C125.989752,168.726181 126.1923,168.731655 126.400323,168.760851 C126.785347,168.813769 127.135701,168.919605 127.392992,169.266309 C127.542622,169.461559 127.429487,169.758994 127.237887,169.857531 C127.146649,169.904975 127.057236,169.939646 126.967823,169.967017 L127.127821,170.072092 C127.316284,170.185335 127.499841,170.25614 127.56087,170.182339 C127.739696,169.970666 127.799913,169.665932 127.97509,169.445136 C128.533466,168.749903 129.453145,169.034565 130.102759,169.510827 C130.763322,169.998038 130.974994,171.038151 130.079037,171.319164 L129.913028,171.345411 C129.821673,171.362885 129.75423,171.391789 129.874664,171.454196 C130.003614,171.519887 130.137429,171.570169 130.273408,171.618019 L130.478659,171.68959 C130.825364,171.806374 131.186666,171.924984 131.442132,172.224244 C131.555495,172.351977 131.501209,172.525814 131.416186,172.644292 L131.378266,172.691382 C131.287028,172.791744 130.984118,173.344646 131.246883,173.446833 C131.305275,173.472379 131.358193,173.46873 131.411111,173.457781 C131.493226,173.43999 131.566102,173.3873 131.634359,173.316648 L131.847457,173.071845 L131.858177,173.061809 C131.900147,173.01254 131.945766,172.968746 131.991385,172.93955 C132.458523,172.649413 133.12456,172.837363 133.578925,173.1275 C133.686586,173.196841 133.746803,173.330048 133.723081,173.461431 L133.779649,173.514349 C134.029641,172.997942 134.631811,172.841013 135.24858,173.236985 C135.66645,173.5034 136.038701,173.859228 136.19198,174.359212 C136.354384,174.90664 135.983958,175.459542 136.197455,175.948578 C136.644521,175.733256 137.071514,175.822669 137.325156,176.437613 C137.446959,176.733224 137.579025,176.994963 137.735213,177.257472 L137.899955,177.52152 C138.080606,177.793409 138.268556,178.132814 138.217463,178.477694 C138.188267,178.647396 137.817841,179.234969 137.874408,179.442991 L137.877602,179.455537 L137.883532,179.466713 C137.894481,179.490435 137.909079,179.508683 137.938275,179.515982 C138.306876,179.614519 138.509425,179.857212 138.724746,180.192967 C139.159039,180.873602 139.33969,181.552413 138.956491,182.194728 C139.142616,182.585227 139.160864,183.065138 139.055028,183.473884 L138.990823,183.696775 C138.978185,183.737663 138.964398,183.779836 138.949191,183.822413 C139.221081,183.888105 139.45465,184.043209 139.587857,184.333346 C139.710116,184.590637 139.746611,184.849753 139.68092,185.123467 L139.609935,185.400964 C139.570243,185.575424 139.580061,185.676392 139.732496,185.865161 L139.806828,185.951907 C140.2101,186.400798 139.921788,186.816843 139.49297,187.037639 C139.312319,187.136176 139.100647,187.117928 138.903573,187.06866 C138.783138,187.037639 138.606137,186.948226 138.485703,186.966473 C138.551394,186.955525 138.779489,187.154424 138.854304,187.194568 C139.253926,187.400766 139.593331,187.698202 139.405381,188.194536 C139.193709,188.749263 138.381691,189.044874 137.693757,189.037575 C137.826965,189.378805 137.930976,189.716385 137.513106,189.939006 C137.297784,190.052141 137.011297,190.110533 136.764955,190.048492 C136.593427,190.240091 136.379931,190.391546 136.188331,190.482784 C135.93104,190.601394 135.629955,190.657961 135.361715,190.51198 C135.263178,190.456021 135.172751,190.393574 135.082865,190.328423 L134.905842,190.196334 L134.79865,190.094065 C134.772092,190.073678 134.767249,190.105667 134.699327,190.218194 C134.646409,190.305783 134.533274,190.387897 134.418314,190.391546 L134.60444,190.732776 C134.686554,190.953572 134.739472,191.15977 134.67743,191.387865 L134.641611,191.491268 C134.607278,191.583317 134.554563,191.712672 134.498604,191.825807 C134.79239,192.236378 134.87268,192.818476 134.544223,193.236346 C134.529625,193.256418 134.513202,193.274666 134.494954,193.291089 L134.473057,193.31846 C134.449335,193.347656 134.421964,193.376852 134.394593,193.406048 L134.255911,193.519184 C134.22489,193.539256 134.18657,193.553854 134.1519,193.568452 L134.095332,193.597648 C134.038765,193.612246 133.976723,193.619545 133.907382,193.615896 C133.823443,193.613463 133.747614,193.585078 133.670704,193.558855 L133.553379,193.524658 C133.533306,193.517359 133.520533,193.513709 133.50411,193.513709 C133.474914,194.117705 132.967631,194.712576 132.374584,194.654184 C132.126417,194.630462 131.976787,194.539224 131.799785,194.349449 C131.697599,194.241788 131.608185,193.811145 131.480452,194.050188 C131.347245,194.292881 131.173893,194.575719 130.922076,194.692504 C130.911127,194.763669 130.916602,194.825711 130.980468,194.87498 C131.141047,194.991764 131.279729,195.110373 131.391039,195.28555 C131.976787,196.208879 131.002365,197.154104 130.177574,197.415044 C130.108233,197.488035 130.024294,197.544602 129.933056,197.573798 C129.881963,197.657737 129.821746,197.741676 129.750581,197.816491 C129.692188,198.24531 129.338185,198.635808 128.971408,198.778139 C128.57726,198.933244 128.099174,198.933244 127.679479,198.778139 L127.493353,198.765366 C127.148474,198.723397 126.792646,198.612086 126.476963,198.42961 C126.241569,198.628509 125.997051,198.81281 125.767131,199.040905 C125.352911,199.449651 124.893072,199.87482 124.338345,200.044522 C123.949671,200.161307 123.659534,199.980656 123.435089,199.681395 C123.287284,199.71789 123.135829,199.739787 122.989848,199.736138 C122.796423,199.87482 122.586576,199.980656 122.336584,200.060945 C122.217975,200.876612 121.467999,201.710527 120.783714,201.830961 C120.679703,201.847384 120.584815,201.847384 120.495402,201.834611 C120.466206,201.830961 120.440659,201.812714 120.411463,201.805415 C120.358545,201.792642 120.303802,201.776219 120.256359,201.747023 C120.227162,201.7306 120.199791,201.706878 120.174244,201.684981 C120.1341,201.659434 120.09578,201.626588 120.062934,201.591918 L120.024158,201.54493 L119.988119,201.495206 C119.957098,201.456886 119.929727,201.420391 119.902355,201.374772 L119.842138,201.257987 L119.80838,201.186822 L119.780096,201.115656 C119.760024,201.070037 119.743601,201.026243 119.727178,200.978799 L119.67791,200.823694 L119.618377,200.600846 L119.563406,200.359521 L119.522805,200.143059 L119.458939,200.17773 C119.420619,200.258019 119.385948,200.338308 119.345804,200.416773 C118.997275,201.132079 118.50459,201.69228 117.893295,202.155769 C117.378713,202.546267 116.878729,202.967786 116.344075,203.334563 C115.917081,203.6247 115.35688,203.832722 114.982805,204.195849 C114.886092,204.285263 114.807628,204.381975 114.738287,204.478687 C114.703616,204.549853 114.670771,204.621018 114.643399,204.694009 C114.243777,206.631903 114.136116,208.693881 114.331366,210.681043 C114.360562,210.998552 114.397057,211.31606 114.433552,211.631743 C114.506542,211.732105 114.574059,211.836116 114.625152,211.949251 C115.039372,212.551422 115.54483,213.107973 115.716358,213.761237 C115.842266,213.803206 115.964525,213.847001 116.070361,213.905393 C116.165249,213.96196 116.26561,214.016703 116.365972,214.067796 L116.921293,214.191461 C117.737393,214.386245 118.578036,214.679433 118.975378,215.440015 C119.061141,215.600594 118.860418,215.781245 118.725386,215.7484 C118.041101,215.600594 117.479075,215.755699 116.834935,215.93635 L116.886028,215.972845 C116.917049,215.994742 116.876905,216.042186 116.847708,216.027588 C116.842234,216.025763 116.83676,216.022114 116.831286,216.014814 C116.915225,216.160795 116.973617,216.319549 116.973617,216.505675 C116.973617,216.644356 116.867781,216.76479 116.730924,216.744718 C115.521109,216.556768 114.271149,217.22098 113.08323,216.810409 C113.063158,216.80311 113.043086,216.795811 113.024838,216.784863 C112.997467,216.877926 112.970095,216.969164 112.926301,217.062226 C112.867909,217.175361 112.767547,217.266599 112.637989,217.246527 C112.223769,217.175361 111.652619,216.976463 111.200079,216.649831 C111.190955,216.668078 111.165408,216.664429 111.163584,216.644356 L111.096068,216.722821 C110.842426,217.034855 110.550465,217.359662 110.161791,217.469148 C110.09245,217.491045 110.021284,217.476447 109.98114,217.397982 C109.906325,217.246527 109.864355,217.069525 109.847932,216.881575 L109.79319,216.896173 L109.815087,216.965514 C109.816911,216.983762 109.787715,217.003834 109.780416,216.983762 L109.747571,216.907122 C109.430062,216.987411 109.103431,217.012958 108.791397,216.954565 C107.655423,216.738271 106.66569,216.717493 105.645649,217.203787 L105.408293,217.324992 C105.300633,217.370611 105.189322,217.290321 105.233116,217.153464 L105.276911,217.034855 L105.262313,217.065876 C105.238591,217.091422 105.191147,217.076824 105.214869,217.038504 C105.309756,216.892524 105.406469,216.73377 105.490407,216.571366 L105.309756,216.606036 L105.298808,216.620635 L105.023269,216.660779 C104.953928,216.671728 104.886412,216.686326 104.817071,216.693625 C104.616348,216.711872 104.41015,216.726471 104.207602,216.715522 L103.859175,216.700982 C103.3396,216.673772 102.63247,216.603117 102.127376,216.343271 L102.100005,216.356044 C102.079933,216.370643 102.072634,216.35422 102.072634,216.339622 C101.891982,216.346921 101.713156,216.359694 101.53433,216.399839 C100.986902,216.505675 100.485093,216.76844 99.9267168,216.799461 C99.8354788,216.80676 99.7916846,216.715522 99.8208807,216.635233 C99.8525099,216.546428 99.8890051,216.461678 99.9287443,216.379901 L100.018867,216.208695 L100.133143,216.023026 L100.273421,215.82504 L100.400926,215.671532 L100.566751,215.496583 L100.598228,215.465562 C100.680342,215.385273 100.764281,215.310457 100.850045,215.241117 L100.882891,215.208271 C101.07449,215.056816 101.273389,214.916309 101.474113,214.792226 C101.842714,214.56778 102.211315,214.376181 102.610938,214.244798 C102.610938,214.224726 102.616412,214.197354 102.640134,214.193705 C102.680278,214.190055 102.709474,214.171808 102.74232,214.159034 C102.795238,213.89262 102.849981,213.622555 102.921147,213.363439 C103.04523,212.898126 103.256902,212.589742 103.475873,212.184645 C103.745938,211.681011 103.625504,210.956582 103.702143,210.390907 L103.806155,209.616981 C103.839,209.359005 103.865459,209.100802 103.871846,208.841686 L103.88572,208.18477 C103.899293,207.188258 103.861561,206.151991 103.519668,205.21589 C103.329893,204.68671 103.079901,204.1922 102.828084,203.694041 C102.693052,203.520688 102.55437,203.350986 102.406564,203.184933 C101.842714,202.557216 101.22777,201.982417 100.645672,201.374772 C100.200431,201.104707 99.7515399,200.82187 99.3245462,200.508011 L99.0565347,200.448478 L98.5903159,200.328921 C98.481365,200.305577 98.3811458,200.308428 98.3172792,200.416773 C98.1968451,200.624796 98.0180187,200.872963 97.7972228,201.015294 L97.7716762,201.073686 C97.7370058,201.143027 97.6932116,201.203244 97.6475926,201.263461 C97.6056231,201.214193 97.5727775,201.1631 97.5362823,201.112006 C97.4669414,201.12113 97.3976006,201.12113 97.3227854,201.101058 C96.9377613,200.997047 97.1056391,200.787199 96.9815555,200.497063 C96.9359365,200.586476 96.8811937,200.670415 96.8173272,200.747055 C96.6768207,200.887561 96.5782837,201.059088 96.5180667,201.263461 C96.5399638,201.356524 96.5472628,201.445937 96.5436133,201.537175 L96.5234387,201.697725 C96.5124464,201.764248 96.4958046,201.818553 96.4542001,201.898478 C96.3538383,202.101026 96.1750119,202.272553 95.9870617,202.380214 C95.5874395,202.608309 95.0473108,202.79261 94.5765229,202.659402 C94.1808819,202.547428 94.0503136,202.305972 93.9509499,201.962018 L93.8867639,201.717826 C93.7692494,201.257987 93.7884378,201.534118 93.5600774,201.578913 L93.507214,201.584619 C93.1842317,201.599217 92.8685483,201.648486 92.545566,201.659434 C92.4397299,201.661259 92.3576158,201.599217 92.3411929,201.486082 C92.2225836,200.743405 91.7755176,201.23609 91.4707828,201.482432 C91.3430497,201.582794 91.2080175,201.652135 91.0547377,201.695929 C90.718982,201.80359 90.2792151,201.677682 89.9799546,201.482432 C89.3029689,201.042666 89.8321491,200.146709 89.7628082,199.548188 C89.6879931,198.947842 89.1369158,199.241628 88.8413049,198.936893 C88.5913128,198.677778 88.5876633,198.287279 88.6898498,197.966122 C88.7445926,197.78912 88.8084592,197.564675 88.9580894,197.458839 C89.1332663,197.33658 89.3923821,197.340229 89.2847213,197.062866 C89.2348446,196.938782 89.1841568,196.809833 89.1283327,196.685208 L89.0402036,196.502665 C89.0274303,196.482592 89.0201313,196.46252 89.0110075,196.440623 C88.8697711,196.565436 88.6904338,196.658718 88.5135927,196.737811 L88.1752678,196.882215 C87.7391503,197.070165 87.3486519,197.190599 86.923483,196.867617 C86.6844395,196.679666 86.5950263,196.354859 86.7592546,196.106692 C86.8266304,195.997206 87.1474425,195.791322 86.9380594,195.817704 L86.8742145,195.829329 C86.7154604,195.863999 86.5585311,195.884071 86.3979523,195.840277 C86.0202272,195.734441 85.7319152,195.493573 85.6151307,195.079353 C85.5038203,194.685205 85.4052833,194.208942 85.5457898,193.818444 C85.5841097,193.707134 85.6333782,193.623195 85.6862963,193.550204 C85.0421563,193.491812 84.2739327,193.101314 84.3560468,192.323966 C84.4016658,191.927994 84.6060388,191.637857 84.8505566,191.358669 L85.0361565,191.160806 C85.135438,191.054518 85.2315663,190.938244 85.2666017,190.816715 C85.2655589,190.819843 85.2432149,190.810757 85.2108055,190.795584 L85.0946168,190.737937 C85.0326601,190.706112 84.9733368,190.674384 84.9545678,190.663435 C84.7082253,190.526578 84.6242864,190.356876 84.6279359,190.183524 L84.5914408,190.25104 C84.3669954,190.647013 83.7921962,190.875107 83.3688521,190.794818 C82.9491575,190.718178 82.8323729,190.156152 82.8487958,189.791201 C82.8597443,189.515662 82.9199614,189.316763 83.0184984,189.147061 C82.9856527,189.15436 82.9509823,189.158009 82.9199614,189.15436 C82.4929677,189.139762 82.0148808,189.07772 81.6608775,188.776634 C81.2959257,188.466425 81.2119868,188.019359 81.3762151,187.581417 C81.4875254,187.282157 81.7429917,187.136176 81.9893342,186.982896 C81.9656123,186.937277 81.9418905,186.893483 81.9254676,186.851514 L81.6417564,186.851914 C81.30541,186.851108 80.9575343,186.829819 80.6736828,186.619769 C80.4291651,186.440943 80.2612873,186.105187 80.3908452,185.804102 C80.4747841,185.607028 80.9382729,185.216529 80.7229513,185.02128 C80.4784336,184.796835 80.0569142,184.723844 80.0112953,184.315098 C79.9656763,183.917301 80.0532647,183.597968 80.3652985,183.384471 C80.4857326,183.296883 80.6444867,183.300532 80.7886427,183.27681 C80.8433854,183.265862 80.8944787,183.245789 80.9473967,183.214769 L81.2344246,183.005597 L81.4145351,182.895436 C81.4674531,182.879013 81.5185463,182.86624 81.5696396,182.855291 L81.4925435,182.776826 L81.3944627,182.656392 L81.3707408,182.612598 L81.356599,182.591385 L81.3228409,182.504709 L81.3068743,182.446545 C81.3014,182.417349 81.294101,182.380854 81.294101,182.340709 C81.2746369,181.85735 81.4599062,181.392735 81.7038082,181.003253 L81.7977345,180.860829 C81.8141573,180.831633 81.8378792,180.806086 81.8597763,180.78054 L81.9585414,180.678581 L82.1083997,180.563622 L82.2229034,180.497702 L82.2703471,180.475805 C82.3104918,180.459382 82.3506365,180.444784 82.3889564,180.43931 L82.4400497,180.432011 C82.4655963,180.424712 82.4966172,180.424712 82.5221639,180.424712 L82.5696076,180.432011 C82.6006285,180.43931 82.6243504,180.444784 82.6517218,180.459382 C82.6681446,180.461207 82.6809179,180.468506 82.6936912,180.475805 C82.7320112,180.501352 82.7666816,180.526898 82.801352,180.570692 C82.9053633,180.70025 83.3378312,180.382742 83.5002348,180.390041 C83.642566,180.39734 83.7666496,180.424712 83.8870837,180.464856 C83.9181046,180.276906 83.9746722,180.099905 84.0732092,179.953924 C84.2155404,179.751376 84.4053153,179.636416 84.6206369,179.588972 C84.3815935,179.017822 84.4089648,178.302517 85.0585791,178.172959 L85.2313309,178.152874 C85.3858497,178.131811 85.5563734,178.080079 85.5257175,177.871874 C85.5092946,177.766038 85.4819232,177.647428 85.4965213,177.541592 C85.5092946,177.379189 85.5640374,177.25328 85.642502,177.116423 C85.7775342,176.881029 86.0676709,176.780668 86.3194877,176.80074 C86.5074379,176.815338 86.6899138,176.871906 86.8760392,176.91205 C86.9672772,176.930298 87.0767627,176.959494 87.1680007,176.943071 C87.3285795,176.749647 87.3285795,176.579944 87.1680007,176.426664 L87.0337856,176.290174 C86.8288519,176.076084 86.6306921,175.81902 86.7501309,175.506986 C86.839544,175.267942 87.2391663,175.107364 87.1716502,174.793505 C87.1132579,174.539863 87.0074219,174.30447 86.9362563,174.058127 C86.824946,173.674928 86.930782,173.366543 87.2026711,173.1275 C87.2446406,173.087355 87.2847853,173.061809 87.3285795,173.032612 L87.4168522,172.993836 L87.483684,172.97308 L87.574922,172.957797 L87.6725466,172.958253 L87.8005078,172.972623 L87.9198015,172.997942 C87.9289253,172.997942 87.9380491,173.001591 87.9453481,173.005241 L88.1405973,173.05086 C88.1825668,173.061809 88.2281858,173.069108 88.27198,173.078231 C88.3023926,173.083097 88.3295613,173.083097 88.3534859,173.079313 L88.3978884,173.069108 L88.4252598,173.053597 L88.4471569,173.032612 C88.471487,173.014365 88.4909511,172.988818 88.5055492,172.958676 L88.5274463,172.895755 C88.5402196,172.841013 88.5456939,172.777146 88.5493434,172.711455 L88.5548177,172.487009 L88.56482,172.378876 C88.5673882,172.362926 88.5706322,172.348328 88.57489,172.335554 L88.6759361,172.011432 C88.7135717,171.903999 88.7582783,171.799988 88.8194077,171.707837 C89.0256055,171.399453 89.377784,171.096543 89.7792311,171.240699 C90.218998,171.399453 90.2810398,171.899437 90.6952602,172.096511 C90.757302,172.123882 90.817519,172.13848 90.8740866,172.145779 C90.757302,171.946881 90.6843116,171.737033 90.6952602,171.512588 C90.6970849,171.428649 90.7135078,171.353834 90.7317553,171.280844 L90.764601,171.189606 C90.7737248,171.164059 90.7810238,171.134863 90.7937972,171.11479 C90.8777361,170.943263 91.0036445,170.789983 91.158749,170.671374 C91.2080175,170.634879 91.3649468,170.556414 91.5127523,170.492548 C91.5309999,170.410433 91.5510722,170.326495 91.5820931,170.253504 C91.6623825,170.049131 91.7864661,169.935996 91.9360964,169.859356 L91.9725916,169.707901 C91.9506945,169.784541 91.7207748,169.545498 91.7025272,169.52725 C91.4196896,169.213391 91.4434114,168.742604 91.5802684,168.397724 C91.8339099,167.749935 92.545566,167.961607 92.9816834,167.733512 C92.7608875,167.520015 92.5254936,167.264549 92.5291431,166.981711 C92.5291431,166.558367 92.6897219,166.206188 92.9889824,165.945248 C93.0254776,165.916052 93.052849,165.912402 93.0765709,165.919701 L92.9232911,165.655111 C92.848476,165.510955 92.8211046,165.3595 92.8229293,165.195272 C92.8247541,164.896011 92.863074,164.635071 93.0254776,164.397852 C93.2809439,164.007354 93.7061128,163.945312 94.1495293,164.047498 C94.249891,164.003704 94.3575518,164.000055 94.4506145,164.069395 C94.4779859,164.094942 94.5108316,164.116839 94.5436772,164.138736 L94.552801,163.934363 C94.5655743,163.719042 94.5655743,163.490947 94.6312657,163.290223 C94.8100921,162.755569 95.4524073,162.609588 95.8374315,162.295729 C96.2924808,161.922794 96.8613994,161.596369 97.4239028,161.938926 L97.5362823,162.016541 C97.932255,162.323101 98.2643612,162.182594 98.7041281,162.186244 C98.9012021,162.189893 99.2260093,162.3304 99.3665157,162.496453 C99.6749,162.866879 99.5197955,163.257378 99.4139594,163.657 C99.326371,164.000055 99.963212,163.815754 100.105543,163.775609 C100.340937,163.709918 100.623775,163.698969 100.829973,163.872321 C101.010624,164.027426 101.11281,164.189829 101.182151,164.406976 C101.229595,164.308439 101.287987,164.22085 101.353678,164.146035 C101.225945,163.689845 100.96318,163.193511 101.096387,162.74827 C101.236894,162.268358 101.587248,161.967273 102.061685,161.928953 C102.271532,161.910705 102.680278,161.972747 102.813486,161.770199 C102.887693,161.652198 102.952167,161.526898 103.013398,161.399705 L103.103622,161.208173 C103.397409,160.560383 103.988631,159.615158 104.734957,160.379732 C104.992248,160.642498 105.119981,160.896139 105.262313,161.237369 C105.469032,161.749084 105.792182,161.740006 106.19962,161.667432 L106.295126,161.649765 C106.685625,161.576774 107.227578,161.576774 107.493993,161.990995 C107.725737,162.348647 107.820625,162.983664 108.196525,163.208109 C108.552353,163.417956 108.997595,163.450802 109.382619,163.591308 C109.734797,163.713567 110.149018,163.945312 110.218358,164.381429 C110.258503,164.605875 110.216534,164.850392 110.12712,165.076662 C110.486598,165.032868 110.787683,164.888712 110.763961,164.425223 C110.73659,163.84495 110.273101,163.494596 110.397185,162.876003 C110.495722,162.40339 110.805931,161.921654 111.198254,161.678961 C111.339855,161.591372 111.511821,161.558673 111.682385,161.543491 L111.883574,161.532753 L112.007193,161.532781 C112.167657,161.531498 112.214189,161.50789 112.125232,161.241019 C111.962828,160.751983 112.055891,160.155287 112.245666,159.710046 C112.683608,158.682706 113.824083,158.531251 114.758359,158.88343 Z" id="1"></path>
        </g>
    </g>
</svg>
