<?xml version="1.0" encoding="UTF-8"?>
<svg width="41px" height="61px" viewBox="0 0 41 61" version="1.1" xmlns="http://www.w3.org/2000/svg" xmlns:xlink="http://www.w3.org/1999/xlink">
    <title>27</title>
    <g id="页面-1" stroke="none" stroke-width="1" fill="none" fill-rule="evenodd">
        <g id="植物" transform="translate(-569.000000, -318.000000)" fill="#000105">
            <path d="M598.615302,318.569132 C597.633895,320.558319 596.704245,322.485529 595.834594,324.435157 C594.956701,326.375883 594.153972,328.331445 593.432669,330.31272 L593.150147,331.051495 C593.056853,331.298083 592.985316,331.551923 592.899933,331.801148 L592.385659,333.297819 C592.095226,334.310544 591.736882,335.310412 591.479745,336.33929 C590.920436,338.171101 590.535925,340.04143 590.038142,341.964349 C590.418037,341.487934 590.81976,341.02948 591.23975,340.590296 C591.555408,340.260108 591.881112,339.939846 592.216034,339.629787 C592.216582,338.803302 592.278417,337.984814 592.382692,337.174986 C592.426427,336.888399 592.472653,336.602105 592.522738,336.316397 L592.600929,335.888311 C592.677081,335.45876 592.769716,335.033825 592.88345,334.614823 C593.063164,333.892013 593.272183,333.176469 593.516322,332.472759 L593.641345,332.121911 C593.786068,331.712139 593.937383,331.304676 594.10617,330.904135 L594.627038,329.707788 C595.372736,328.135295 596.252936,326.621812 597.297309,325.220084 C597.508821,324.941585 597.7197,324.663297 597.943786,324.394165 L598.400032,323.862361 C598.44776,323.807295 598.495854,323.752534 598.544754,323.69836 L598.998371,323.221007 C599.616159,322.597944 600.268562,321.998617 601.021513,321.520605 C600.300869,323.131339 599.59605,324.653393 598.888922,326.177096 L596.773804,330.710293 L596.24931,331.844334 C596.058765,332.215535 595.898549,332.600911 595.719542,332.978705 L595.176586,334.110768 C595.061864,334.365268 594.942599,334.618303 594.82055,334.870751 L594.635609,335.249095 C594.545282,335.438981 594.445394,335.626229 594.35078,335.815126 L594.170223,336.196974 L594.076171,336.387092 C593.952438,336.640932 593.824162,336.893894 593.692712,337.146562 L593.165715,338.151784 C592.945503,338.569867 592.718633,338.988224 592.466823,339.402435 C593.020693,338.903369 593.599515,338.432323 594.198806,337.989914 C594.515619,337.75738 594.836823,337.531479 595.163389,337.313813 C595.171049,336.470405 595.362661,335.637021 595.625588,334.835367 C595.899538,334.013847 596.267442,333.227271 596.693037,332.482892 C597.544886,330.989188 598.610027,329.645811 599.784287,328.432321 C600.961185,327.219161 602.252145,326.132921 603.633104,325.176898 C605.021974,324.233403 606.482382,323.382542 608.110918,322.821785 C607.066545,324.182305 605.954591,325.39052 604.842308,326.586538 C603.72508,327.773984 602.59994,328.928135 601.486997,330.079978 C600.375703,331.233798 599.270013,332.3774 598.210146,333.564846 C597.214352,334.668393 596.282229,335.792975 595.372336,337.076371 L595.242148,337.261547 C595.867889,336.848124 596.513493,336.465249 597.185727,336.124116 C597.581789,335.888308 597.985856,335.675761 598.373329,335.425794 C598.912329,335.077011 599.448361,334.726249 599.974833,334.365598 C600.497349,333.997034 601.030743,333.656822 601.558534,333.313972 C601.824243,333.146504 602.092918,332.984309 602.36456,332.829368 C602.632576,332.667503 602.90257,332.511243 603.175532,332.358938 L606.450734,330.534583 L608.097401,329.60823 C608.654532,329.298676 609.206718,328.984177 609.776705,328.64924 C609.474404,329.242633 609.064633,329.768446 608.635082,330.26393 C608.203553,330.76205 607.729497,331.214348 607.241266,331.650822 C606.254914,332.510583 605.177905,333.251996 604.054413,333.902751 C602.935866,334.566362 601.720728,335.044704 600.472954,335.416893 L599.319765,335.740064 C598.744614,335.900258 598.170961,336.057008 597.595817,336.204204 C596.469381,336.771715 595.399682,337.47869 594.392318,338.247051 C593.364099,339.035275 592.401812,339.908553 591.525568,340.858642 C589.949498,342.567336 588.661023,344.546801 587.82549,346.703789 L587.848482,346.659768 L587.937844,346.500166 C588.342671,345.747216 588.769914,344.999869 589.293749,344.315159 C589.417372,344.138789 589.549567,343.968683 589.678136,343.79594 C589.803078,343.620229 589.941866,343.454738 590.085929,343.293863 L590.957888,342.333554 C592.185553,341.112812 593.594204,340.055912 595.155158,339.293072 C595.480701,339.134559 595.807617,338.982456 596.146399,338.854696 L596.351176,338.781105 C596.556556,338.709898 596.754354,338.626493 596.96369,338.567154 L597.590709,338.39474 C598.430691,338.195623 599.297045,338.059472 600.160433,338.141229 C598.674312,338.98187 597.37511,339.895696 596.132939,340.871828 C594.894065,341.845323 593.750134,342.897608 592.643455,343.998353 C592.111709,344.571307 591.551611,345.117559 591.046238,345.722821 L590.649323,346.161932 C590.51515,346.306654 590.380978,346.453024 590.259991,346.609944 C590.012414,346.919168 589.755277,347.223117 589.492865,347.526407 C589.399653,347.643355 589.292348,347.751402 589.195566,347.86696 L588.85725,348.303863 L588.731014,348.461332 C588.479481,348.778138 588.218058,349.091648 587.950372,349.405487 L587.501946,349.974157 C587.276037,350.259429 587.04545,350.545244 586.800583,350.827729 C586.683431,351.80819 586.650448,352.798996 586.69603,353.786025 C586.815769,353.327737 586.964898,352.878599 587.134456,352.441684 C587.555106,351.380498 588.103995,350.386564 588.735299,349.453947 C589.054743,348.988463 589.392648,348.54177 589.76253,348.100021 C590.169334,347.639811 590.5646,347.248501 591.002722,346.855213 C592.74664,345.313049 594.931976,344.288786 597.166762,343.899454 C598.28465,343.700997 599.415065,343.647591 600.523062,343.737919 C601.076896,343.781105 601.625785,343.859565 602.164455,343.978903 C602.702135,344.094944 603.233882,344.242304 603.737937,344.455925 C601.569413,344.515594 599.502425,344.896355 597.598621,345.561286 C595.697454,346.238084 593.991118,347.256413 592.570929,348.590889 C592.222146,348.919893 591.860835,349.2845 591.568094,349.631965 C591.247991,350.005474 590.935801,350.407333 590.63284,350.809522 C590.025601,351.616867 589.454295,352.450914 588.946284,353.314302 C588.150293,354.689243 587.457598,356.115003 587.270481,357.748545 C587.464094,358.559033 587.700199,359.359819 587.971677,360.149144 C587.966526,359.822728 587.966862,359.493615 587.978063,359.163844 C587.988942,358.833851 587.997513,358.500891 588.060809,358.176503 C588.150184,357.595124 588.258835,357.011661 588.44256,356.446026 L588.515084,356.234787 C588.624203,355.918311 588.720465,355.596889 588.869143,355.293599 L589.31254,354.384718 C589.980437,353.210458 590.866242,352.143668 591.945229,351.324126 C592.078083,351.219952 592.217531,351.123361 592.353352,351.024792 C592.497415,350.934464 592.640488,350.844466 592.787518,350.761061 C593.071688,350.582054 593.384208,350.443266 593.689147,350.306126 C594.313199,350.055912 594.96725,349.858774 595.646356,349.855147 C594.709784,350.799962 593.946943,351.706535 593.248717,352.646734 C592.55115,353.58067 591.949515,354.542297 591.383483,355.534583 C591.127005,356.047209 590.833275,356.540055 590.600863,357.073121 C590.502491,357.283841 590.38703,357.487599 590.288912,357.70043 L590.219113,357.862004 C590.107357,358.133317 589.984723,358.402981 589.856813,358.673635 C589.718355,358.940662 589.617148,359.222853 589.49814,359.503067 C589.381109,359.783281 589.25353,360.064483 589.119687,360.347994 L588.901187,360.86916 C588.789781,361.131425 588.672885,361.396134 588.54035,361.662921 C588.609306,361.833796 588.680069,362.004108 588.752355,362.173792 L588.87211,362.451244 L588.884637,362.498386 C589.085402,363.251336 589.39034,364.037912 589.722311,364.781303 C590.056259,365.531946 590.433724,366.264127 590.845473,366.977189 C591.665675,368.405948 592.627961,369.751963 593.678597,371.021825 C594.739783,372.284105 595.889318,373.47254 597.127203,374.563395 C598.361462,375.657877 599.670224,376.668624 601.037998,377.593329 L600.366143,378.569132 C598.975294,377.591351 597.646093,376.52522 596.394362,375.373378 C595.139335,374.225161 593.975953,372.977386 592.905208,371.654448 L593.049644,371.83149 C591.002964,371.565752 588.995181,371.076984 587.021711,370.486782 C584.760222,369.795478 582.544227,368.940003 580.407351,367.901894 C578.271793,366.864773 576.212058,365.641723 574.318473,364.184942 C572.434779,362.727502 570.698773,361.01688 569.445394,358.999012 C570.360868,359.7546 571.267442,360.47854 572.215882,361.143141 C573.15707,361.814994 574.130236,362.433442 575.109995,363.033099 C577.077094,364.224172 579.112434,365.294259 581.184696,366.304017 C583.256958,367.313445 585.367791,368.25727 587.500052,369.178679 L592.703967,371.399544 C592.209463,370.767239 591.736394,370.117723 591.290363,369.45006 C589.181911,368.126322 587.233526,366.611888 585.346033,365.031187 C583.369044,363.362103 581.481723,361.591153 579.679125,359.733172 C577.87356,357.879476 576.174806,355.90941 574.607588,353.829236 L574.145632,353.197564 C573.915704,352.881349 573.688553,352.56333 573.469591,352.237952 C573.109269,351.690382 572.758508,351.137866 572.41335,350.584362 C572.086984,350.013056 571.775123,349.433179 571.478096,348.850994 C571.194256,348.256611 570.952943,347.639152 570.726135,347.030924 C572.039969,348.550417 573.403155,349.959697 574.780281,351.358249 L576.022502,352.616735 C577.818177,354.429882 579.600665,356.252259 581.382824,358.086834 C583.161026,359.923388 584.914504,361.78961 586.636994,363.696382 C587.967877,365.179001 589.281539,366.681414 590.536262,368.257457 C590.370759,367.982589 590.210743,367.704099 590.05593,367.422563 C589.846972,367.044736 589.647155,366.661746 589.45755,366.273508 C587.764812,364.754537 586.209475,363.110456 584.711761,361.419728 C582.920043,359.383399 581.237442,357.253446 579.669235,355.036792 L579.08602,354.202043 C578.892301,353.923272 578.700355,353.643141 578.513436,353.359136 L577.40379,351.648185 L576.935007,350.87041 C576.389511,349.962459 575.853055,349.049744 575.36845,348.102329 C575.101423,347.600142 574.838517,347.096353 574.596711,346.579514 L574.454295,346.267754 C574.172103,345.642712 573.874747,345.030528 573.629148,344.387685 L573.338865,343.616173 C573.195074,343.230713 573.05527,342.84473 572.928284,342.453881 C572.739717,341.78961 572.558402,341.127976 572.409065,340.462716 C573.874747,342.771677 575.419218,344.941189 576.958086,347.129823 L581.603039,353.668031 C583.146192,355.854686 584.679455,358.054857 586.182718,360.286347 C586.920912,361.39071 587.652605,362.501093 588.366309,363.629141 C588.289799,363.397921 588.218782,363.162319 588.153921,362.920442 L588.102017,362.718271 L588.002643,362.476025 C587.214459,360.52999 586.604672,358.49797 586.286121,356.41498 L585.982283,356.1438 C585.872835,356.045726 585.769568,355.942706 585.66799,355.837914 L585.363835,355.521396 C584.947471,355.104373 584.590116,354.642185 584.216937,354.185272 C583.507502,353.249688 582.879164,352.251798 582.31577,351.219623 C581.763585,350.182503 581.284254,349.10879 580.860637,348.015957 C580.658554,347.466738 580.461086,346.914553 580.284057,346.357752 C580.10505,345.800621 579.951756,345.237227 579.793188,344.675151 C579.207707,342.415311 578.833869,340.109318 578.682224,337.793105 C578.541128,335.478211 578.570468,333.144196 579.001997,330.844466 C579.48314,332.825576 579.905979,334.771351 580.335665,336.703654 L580.520425,337.531023 C581.007337,339.73515 581.52293,341.914553 582.084676,344.073186 L582.299782,344.881026 C582.37206,345.150031 582.446152,345.418377 582.525766,345.684909 C582.664554,346.224897 582.836638,346.753018 582.987624,347.289379 C583.308715,348.354191 583.657829,349.408454 584.01881,350.464035 C584.392648,351.513023 584.793518,352.554429 585.222739,353.597812 C585.450207,354.111098 585.665147,354.637899 585.907779,355.153163 C585.999657,355.366565 586.098567,355.576018 586.199492,355.785576 C586.170551,355.555334 586.145715,355.324348 586.124697,355.092834 C585.942027,353.164669 586.045983,351.200741 586.466444,349.308585 C586.39749,348.730918 586.311483,348.170179 586.182389,347.616735 C585.981294,346.764226 585.759101,345.933475 585.461745,345.124152 C585.168345,344.316148 584.849231,343.52199 584.484624,342.7486 C584.34666,342.459321 584.210179,342.170041 584.065169,341.886325 L583.916944,341.604669 C583.816726,341.417091 583.720794,341.229513 583.61728,341.046879 L583.514767,340.865601 C583.462424,340.774779 583.409531,340.685605 583.360952,340.606733 L583.293881,340.499639 L583.2652,340.442937 L583.13038,340.167192 L582.708892,339.279152 C582.656626,339.167969 582.605552,339.056289 582.55797,338.943144 L582.294678,338.283601 C582.132706,337.876361 581.975275,337.46768 581.849297,337.048066 C581.45469,335.888311 581.180081,334.692953 580.978327,333.491661 C580.7802,332.289379 580.684597,331.072923 580.691191,329.859433 C580.702069,328.647591 580.794705,327.429816 581.099643,326.248963 C581.37623,327.429816 581.653147,328.571439 581.95413,329.702184 C582.253134,330.83095 582.566314,331.943893 582.918065,333.037715 C583.074655,333.589241 583.279375,334.126262 583.450141,334.669547 C583.649917,335.20492 583.823649,335.747216 584.037271,336.274347 C584.430559,337.341137 584.893406,338.37496 585.356582,339.408124 L585.373873,339.438835 C585.479098,339.632084 585.564215,339.801907 585.654598,339.985694 C585.759101,340.201953 585.862945,340.416893 585.953602,340.636449 C586.138873,341.074571 586.310957,341.51599 586.461283,341.964661 C586.75831,342.863653 586.986766,343.78605 587.121269,344.723282 C587.226504,345.385795 587.266709,346.060916 587.256242,346.73217 C587.387611,346.394971 587.530431,346.062547 587.683302,345.735063 C587.427125,343.765935 587.330782,341.850162 587.147972,339.937233 L586.90501,336.861147 L586.770507,335.327884 L586.715783,334.561088 L586.638972,333.79594 C586.468866,331.752358 586.274035,329.709766 586.08283,327.653328 L585.90027,325.590003 C585.779687,324.210839 585.665697,322.820686 585.58438,321.396982 C586.658752,323.258919 587.355989,325.282061 587.910812,327.326631 C588.420142,329.248979 588.7733,331.211891 588.963224,333.191463 L588.99903,333.587593 C589.105181,334.642844 589.129576,335.705678 589.150675,336.765875 L589.139253,337.473523 C589.124689,338.29882 589.10053,339.123075 589.011557,339.946134 C588.879272,341.562282 588.61044,343.171689 588.184454,344.744621 C588.65678,343.877258 589.199841,343.049366 589.800356,342.267144 C589.452771,340.202204 589.380859,338.07153 589.650774,335.983584 L589.745057,335.151185 C589.765628,334.928069 589.814471,334.711071 589.857322,334.492428 L589.887802,334.328016 C589.93824,334.053736 589.993541,333.780446 590.050408,333.50732 L590.22241,332.687612 L590.399407,332.042573 C590.636321,331.182041 590.882857,330.322016 591.21041,329.491529 C591.976217,327.39652 592.98169,325.391839 594.209025,323.537814 C595.438009,321.691371 596.861824,319.95042 598.615302,318.569132 Z" id="27"></path>
        </g>
    </g>
</svg>