<?xml version="1.0" encoding="UTF-8"?>
<svg width="61px" height="49px" viewBox="0 0 61 49" version="1.1" xmlns="http://www.w3.org/2000/svg" xmlns:xlink="http://www.w3.org/1999/xlink">
    <title>floral-design-svgrepo-com</title>
    <g id="页面-1" stroke="none" stroke-width="1" fill="none" fill-rule="evenodd">
        <g id="形状库素材-植物" transform="translate(-242.000000, -487.000000)" fill="#545458" fill-rule="nonzero">
            <g id="floral-design-svgrepo-com" transform="translate(242.813017, 487.087481)">
                <path d="M26.4551858,34.915993 C26.564601,13.8472961 10.4375234,21.3664496 6.5577693,7.02409476 C2.24214826,24.2865789 24.8049899,20.9556943 26.4551858,34.915993 Z" id="路径"></path>
                <path d="M26.4533921,34.915993 C23.2642092,20.830136 4.25646348,29.5672058 5.12819741,10.0715761 C0.466393966,28.7259646 23.8328093,26.5376614 26.4533921,34.915993 Z" id="路径"></path>
                <path d="M53.1166119,7.02588845 C49.2368578,21.3682433 33.1133676,13.8490898 33.2174017,34.9177867 C34.8693913,20.9556943 57.4322329,24.2865789 53.1166119,7.02588845 Z" id="路径"></path>
                <path d="M33.2191954,34.915993 C35.8397782,26.5394551 59.2079872,28.7259646 54.5461838,10.0697824 C55.4179177,29.5672058 36.4083783,20.8283423 33.2191954,34.915993 Z" id="路径"></path>
                <path d="M29.8362938,21.8166661 C31.1582442,21.660615 35.4200545,16.9916368 35.4200545,13.9082816 C35.4200545,10.8267201 32.9196489,8.32452088 29.8416748,8.32452088 C26.7583196,8.32452088 24.2615015,10.8267201 24.2615015,13.9082816 C24.2615015,16.9916368 28.5089623,21.9709236 29.8362938,21.8166661 Z" id="路径"></path>
                <path d="M21.5315035,41.9149761 C24.5646353,41.9149761 26.8300673,38.3150378 26.465948,34.9177867 C25.861474,37.5186389 24.1628485,40.5786761 21.5315035,41.9149761 Z" id="路径"></path>
                <path d="M33.215608,34.915993 C32.8532824,38.3150378 35.120508,41.9131824 38.1500525,41.9131824 C35.5205012,40.5786761 33.8218756,37.5186389 33.215608,34.915993 Z" id="路径"></path>
                <path d="M8.08420051,6.72096095 C9.02409471,4.64027915 10.2043435,3.14434068 10.2043435,3.14434068 C10.2043435,3.14434068 9.85816112,5.01516061 8.91647323,7.0976361 C8.71737351,7.53529675 8.50571795,7.94246466 8.29944346,8.32452088 C9.16759,7.92273405 10.8608345,6.96849033 11.6195659,5.30035751 C12.6599068,3.00443277 11.5173255,0.245735695 11.5173255,0.245735695 C11.5173255,0.245735695 8.69584921,1.20536049 7.65550832,3.50307892 C6.90036432,5.17121174 7.291389,7.07252442 7.56223637,7.98910063 C7.71111274,7.58193272 7.88689448,7.1586216 8.08420051,6.72096095 Z" id="路径"></path>
                <path d="M37.409258,35.2245079 C36.1518805,35.7769648 35.4164671,37.036136 35.1079522,37.6836585 C35.3931491,37.5294011 35.7052514,37.3805247 36.0352906,37.2352357 C37.6047704,36.5464583 39.0110243,36.3007226 39.0110243,36.3007226 C39.0110243,36.3007226 37.8792051,37.1742502 36.3097253,37.861234 C35.9778924,38.0047293 35.6586154,38.1267003 35.3518942,38.2361154 C36.0388779,38.4495647 37.4630688,38.7652543 38.7204463,38.2145911 C40.453152,37.4540661 41.1975339,35.3410978 41.1975339,35.3410978 C41.1975339,35.3410978 39.1437574,34.4657765 37.409258,35.2245079 Z" id="路径"></path>
                <path d="M59.459104,2.45376957 C59.459104,2.45376957 56.6394214,3.41518805 55.5990805,5.70931911 C54.8439365,7.37745193 55.2349612,9.2787646 55.5058086,10.1953408 C55.654685,9.78817291 55.828673,9.36486178 56.0277727,8.92540744 C56.9658732,6.84651933 58.1479157,5.35058086 58.1479157,5.35058086 C58.1479157,5.35058086 57.7999396,7.22319448 56.8600455,9.30208259 C56.6627394,9.73974324 56.4492902,10.1469111 56.241222,10.5289674 C57.1093685,10.1289742 58.8044067,9.17293682 59.5631381,7.504804 C60.603479,5.21246664 59.459104,2.45376957 59.459104,2.45376957 Z" id="路径"></path>
                <path d="M49.4646566,10.5325548 C49.1920156,10.0357023 48.9175808,9.502976 48.6592893,8.93078851 C47.4162613,6.2205211 46.9463142,3.77751368 46.9463142,3.77751368 C46.9463142,3.77751368 48.4978571,5.72187494 49.7444724,8.43214236 C50.0063514,9.00074247 50.2287691,9.55858043 50.4296625,10.089513 C50.7776386,8.88953361 51.2852532,6.39989022 50.2879609,4.22593648 C48.910406,1.23405955 45.2154021,0 45.2154021,0 C45.2154021,0 43.7481627,3.60711301 45.1203365,6.60078363 C46.1158351,8.77294368 48.323869,10.0123843 49.4646566,10.5325548 Z" id="路径"></path>
                <path d="M4.99187688,9.35051225 C5.28962962,8.33528303 5.71832181,6.22769586 4.87349326,4.385575 C3.71118136,1.85108932 0.575809129,0.807161042 0.575809129,0.807161042 C0.575809129,0.807161042 -0.665425185,3.86181716 0.496886716,6.39630284 C1.34530266,8.23304263 3.21432889,9.28773306 4.17754107,9.72360002 C3.9461549,9.30566997 3.71476874,8.85365979 3.49593841,8.37115685 C2.44304167,6.07523211 2.04125484,4.00531246 2.04125484,4.00531246 C2.04125484,4.00531246 3.35782419,5.65371468 4.41430831,7.94784573 C4.63493233,8.43034866 4.82147621,8.90029576 4.99187688,9.35051225 Z" id="路径"></path>
                <path d="M22.370951,38.7724291 C21.1942895,37.6424036 20.4606698,36.4926476 20.4606698,36.4926476 C20.4606698,36.4926476 21.644506,37.1724565 22.8247548,38.3006883 C23.0704905,38.5356618 23.2964956,38.7778102 23.5045638,39.0074026 C23.4417846,38.3258 23.1978426,36.9554199 22.2525673,36.0531932 C20.9503475,34.8065778 18.821219,34.9213741 18.821219,34.9213741 C18.821219,34.9213741 18.8015055,37.0522792 20.1019316,38.2988946 C21.0454132,39.202915 22.4211743,39.3912526 23.1045707,39.423539 C22.8624224,39.2280267 22.6184803,39.0091963 22.370951,38.7724291 Z" id="路径"></path>
                <path d="M30.4587046,39.0163711 C30.4587046,42.0907578 29.8380874,44.5821949 29.8380874,44.5821949 C29.8380874,44.5821949 29.2264387,42.0943452 29.2264387,39.0163711 C29.2264387,38.3670549 29.2515504,37.7464377 29.2928053,37.1688692 C28.4497705,38.1464309 26.9125771,40.2576054 26.9125771,42.7257245 C26.9125771,46.1175946 29.8380874,48.8673232 29.8380874,48.8673232 C29.8380874,48.8673232 32.7725663,46.1175946 32.7725663,42.7257245 C32.7725663,40.2576054 31.2281981,38.1464309 30.3833696,37.1688692 C30.4246245,37.7464377 30.4587046,38.3706423 30.4587046,39.0163711 Z" id="路径"></path>
            </g>
        </g>
    </g>
</svg>
