<?xml version="1.0" encoding="UTF-8"?>
<svg width="56px" height="61px" viewBox="0 0 56 61" version="1.1" xmlns="http://www.w3.org/2000/svg" xmlns:xlink="http://www.w3.org/1999/xlink">
    <title>tree-svgrepo-com</title>
    <g id="页面-1" stroke="none" stroke-width="1" fill="none" fill-rule="evenodd">
        <g id="形状库素材-植物" transform="translate(-162.000000, -68.000000)" fill="#545458" fill-rule="nonzero">
            <g id="tree-svgrepo-com" transform="translate(162.311364, 68.805148)">
                <path d="M55.0051077,32.9992478 C53.8255699,30.494919 50.5620102,30.143633 48.8344251,31.94539 C48.5500999,31.2386974 47.9845398,30.6247197 47.3005109,30.3712993 C45.9499658,29.8706396 44.4799218,30.7236154 43.9761715,31.9999886 C43.0799288,30.8410541 41.2585988,30.3877819 39.9719239,31.2376673 C38.7068825,32.0731303 38.4256477,33.8017455 39.1004052,35.0503044 C37.9497119,34.7000486 36.7990187,34.350823 35.6565668,33.9768734 C34.3431076,33.5462649 32.5001442,33.3484734 32.122074,31.9052136 C32.0128766,31.486967 31.9953638,31.0316344 32.0314195,30.5608495 C33.1470872,31.2654817 34.7129365,30.2569511 35.0817352,29.0053018 C37.0637709,29.521414 39.488777,28.8167818 39.9822256,26.6225324 C40.2068013,25.6243034 39.702021,24.6178332 38.9273376,24.0759669 C40.1006944,22.2453654 39.2240248,19.3011566 37.2512607,18.349285 C34.7675352,17.150174 32.1138327,19.379449 31.8995585,21.8477221 C30.4655702,20.8340406 28.0055385,21.4274151 27.1443213,22.9499976 C25.8215907,25.2884699 28.2527778,28.1183306 30.7292922,27.61252 C29.8093557,28.2017738 29.1242966,29.0423877 28.7070802,30.0900645 C28.7008992,30.1044868 28.7039897,30.1178789 28.699869,30.1333314 C27.475004,28.001922 25.6299802,26.180592 23.5696521,24.667281 C24.0404371,24.5312994 24.4916489,24.3149649 24.8480857,24.0852383 C25.8679481,23.430054 26.6683856,22.3339595 26.6642649,21.0833403 C26.6570538,18.9787152 24.0311656,17.1151485 22.199534,18.5223525 C21.9306611,18.7283854 22.1727497,19.1878385 22.4735576,18.9910772 C24.1455138,17.8960128 26.3871508,19.9656124 25.5671402,21.7447057 C25.2024621,22.5358716 24.4185073,23.0509537 23.6057079,23.2878914 C23.0329367,23.4558081 22.4488337,23.3909078 21.8925451,23.5289498 C20.7573043,22.8201969 19.5921888,22.1917968 18.4456162,21.6664132 C18.1437781,21.5283712 17.8769657,21.9600099 18.1808641,22.1196854 C19.3315573,22.726452 20.3679023,23.4073904 21.339347,24.1388069 C21.3527391,24.2531551 21.3887949,24.3613223 21.4732683,24.4303433 C21.6576677,24.5817774 21.8709116,24.6703715 22.0934271,24.730121 C24.353607,26.563813 26.2635311,28.6993431 28.3197385,30.9801262 C28.6081844,31.2994771 29.0676376,30.9337689 28.9512291,30.5732115 C29.1366586,30.6484134 29.365355,30.6185387 29.4673412,30.4094154 C29.9247341,29.4771169 30.6685125,28.724067 31.5709362,28.2203168 C31.0774876,29.7964678 31.0568844,31.5158115 31.243344,33.1661343 C31.2701283,33.4030721 31.3824162,33.565838 31.6090523,33.6472209 C34.9663569,34.8463319 38.395773,36.1062225 41.8931799,36.9282934 C41.1442506,36.8633931 40.4015023,36.7861308 39.6608144,36.699597 C39.294076,36.3998192 38.8830405,36.3956986 38.490548,36.5512534 C35.8316947,36.1865753 33.2140478,35.6364677 30.608763,34.734044 C30.3738856,34.652661 30.0895603,34.8700257 30.1050128,35.117265 C30.5830089,42.7641727 32.6804229,50.1442678 36.216976,56.927898 C36.1222009,57.1071466 36.028456,57.2884554 35.9553144,57.4862469 C35.770915,56.412816 34.9591457,55.4053156 33.943404,55.0097326 C32.5403206,54.4637456 31.1568103,55.0365168 30.2966233,56.1017065 C29.0696979,54.0269561 25.9884773,54.6893516 25.2313067,56.5374658 C24.9006241,56.1181891 24.4782568,55.7586618 24.0229243,55.4794874 C27.1752263,49.1573707 28.4176041,42.5931654 27.5708093,35.6282264 C27.6985496,35.4180729 27.8221693,35.2079195 27.9365175,35.0008565 C28.115766,34.6763548 27.7335752,34.2993148 27.4420387,34.4600204 C27.4337974,34.3796676 27.4255561,34.3003449 27.4131942,34.218962 C27.3987719,34.131398 27.3513843,34.0706184 27.2916348,34.0294118 C25.8123192,29.1248008 21.8904847,24.0615446 16.7829315,22.7614776 C16.3945596,22.6625818 16.2317937,23.1560304 16.5253904,23.373395 C16.9240639,23.6700822 17.3237676,23.957498 17.7224411,24.2438836 C17.432965,24.1779531 17.1033125,24.478761 17.2794705,24.8259263 C18.0541539,26.35675 16.1411393,28.8116309 14.5103896,27.662998 C13.4173855,26.8924353 13.4616826,25.3307067 14.1714656,24.3314476 C14.5649883,24.7507243 15.0914021,25.0010542 15.6940481,25.0113558 C16.1411393,25.0195971 16.1864665,24.4025289 15.7950041,24.2644869 C14.801926,23.9142311 14.6515221,22.8995195 14.6350394,21.9950355 C14.6288585,21.6581719 14.2137023,21.4809837 13.9705836,21.7199817 C13.5101003,22.1732539 13.4843462,22.8758258 13.690379,23.4795019 C12.723055,23.6978967 11.7567611,22.8552225 11.3673591,21.9940053 C10.9264489,21.0194702 11.0583099,19.7915146 11.5383663,18.8509749 C12.6427022,16.6886606 15.0481352,16.2899871 17.1496698,17.0976357 C17.232083,17.1295708 17.3031643,17.1223596 17.3608535,17.0945452 C17.4618096,17.105877 17.5627656,17.0595196 17.546283,16.9328094 C17.3031643,15.0846952 19.6529685,12.9285618 21.389825,14.2152367 C22.0511903,14.7055948 22.3149123,15.5657818 22.2489818,16.3620986 C22.1717195,17.2954272 21.6834218,17.7919662 21.0292676,18.3832804 C21.0199961,18.3925519 21.0220565,18.4049138 21.0138152,18.4141853 C20.4709187,18.1617951 19.8548806,18.0608391 19.2676871,18.1823984 C19.0904989,18.2194843 19.1265546,18.5182319 19.310954,18.5027794 C20.7531837,18.3822502 21.8946054,19.5391244 22.0470697,20.9257252 C22.0862159,21.2831922 22.5755438,21.2893731 22.6085091,20.9257252 C22.689892,20.0418445 22.250012,19.266131 21.5865864,18.7561998 C23.505782,17.8888017 23.1812803,14.5284066 21.659728,13.4426137 C19.6004301,11.9746299 16.8025046,14.0535009 17.0466534,16.3322238 C14.2075214,14.7045646 10.5875249,16.6680573 10.11674,19.8780484 C9.91585798,21.2461063 10.2640534,22.7068789 11.3426352,23.6319662 C11.8587474,24.0749367 12.4624235,24.3129046 13.0650694,24.3159951 C12.0771421,25.7108372 12.6190084,28.1677784 14.230185,28.918768 C16.7952934,30.1137583 19.4036688,26.6936137 17.9665899,24.4262226 C17.9634994,24.4200417 17.9583486,24.4190115 17.954228,24.4128305 C19.6158826,25.6047303 21.2497227,26.7780871 22.6486855,28.3377555 C24.3948135,30.2847655 25.7432982,32.6139664 26.75904,35.0152788 C26.7600702,35.0173391 26.7621305,35.0183693 26.7631606,35.0214598 C26.7672813,35.0812093 26.7672813,35.1409588 26.771402,35.2007083 C25.7566904,36.3637635 24.6276306,37.5566935 23.2544219,38.2087873 C21.1302237,39.2183481 18.1736529,38.0109958 18.274609,35.5283005 C19.3222858,35.8115956 20.4245613,35.8888579 21.446484,35.6045326 C21.7483221,35.5210893 21.6926933,35.0472139 21.3712821,35.0533949 C20.3524498,35.0709076 19.4273625,35.0441234 18.5239087,34.8628145 C18.6434077,34.5671574 18.3075742,34.3518531 18.0943303,34.5527351 C17.9459867,34.4806236 17.7646778,34.4847443 17.6317866,34.6341181 C17.2145702,34.4929856 16.7983839,34.3085863 16.3739563,34.0634072 C16.0298815,33.8645856 15.7218625,34.3930597 16.0628468,34.5949719 C16.4563695,34.8277889 16.8818272,35.0389726 17.3258279,35.2171909 C17.2660784,35.3768664 17.2279623,35.5365418 17.1991177,35.6962172 C16.1390789,36.9499268 14.7298145,38.0635342 13.0691901,37.9481558 C11.3622083,37.8296869 9.99518061,35.9166723 10.6864207,34.3621548 C10.8574279,34.3065259 11.0263748,34.2498669 11.1912011,34.1911476 C11.353967,34.3683358 11.5146726,34.545524 11.680529,34.7237424 C12.0369657,35.1069634 12.5592589,34.5506748 12.2440287,34.1602426 C11.6290208,33.3989514 11.0480083,32.6407507 10.3207124,31.9845362 C10.022995,31.7166935 9.49040023,32.0669493 9.7376396,32.4347179 C9.99621077,32.8189691 10.2846567,33.1692248 10.5823741,33.5132996 C10.5051118,33.5132996 10.4268193,33.5369934 10.361919,33.5946826 C10.2619931,33.6812164 10.1754593,33.7739311 10.0940764,33.867676 C8.38297389,34.0345626 6.5781265,33.5977731 6.42978288,31.4169158 C6.34633959,30.1920508 6.85833112,29.1876408 7.52072659,28.2234073 C7.69997514,27.9617456 7.40431806,27.6897823 7.14574688,27.7361397 C5.87555462,27.9627758 3.36092421,27.5970675 2.80772612,26.0559421 C2.30912673,24.6652207 2.69234775,23.160151 3.7709295,22.4369759 C4.07791838,22.5564749 4.39314858,22.6584612 4.72280107,22.7223313 C5.16268111,22.801654 5.35429162,22.1794349 4.94016568,22.0310913 C5.06790602,22.0176991 5.18534472,21.9878244 5.3233867,21.9898847 C5.57371656,21.9950355 5.63758673,21.5984224 5.38313622,21.5448538 C4.87835584,21.4387469 4.39108825,21.4758328 3.94914788,21.621086 C1.71060142,20.4024019 0.369327845,17.3974134 1.79095422,15.0517299 C3.02509073,13.0150956 5.400649,12.5875775 7.52175676,13.1078104 C7.54442037,13.1273835 7.56605381,13.1469566 7.58768725,13.1665297 C7.32190493,13.6311337 7.12823409,14.1359141 7.04376064,14.6345135 C6.97473965,15.0403981 7.56399348,15.221707 7.67216071,14.807581 C7.82462498,14.2265685 8.09143747,13.7763868 8.43036144,13.394196 C8.45508537,13.4034674 8.48186964,13.4096484 8.50659358,13.4189199 C8.83624607,13.5507809 9.12057134,13.1387153 9.00313264,12.8533598 C9.37708219,12.5587329 9.80047961,12.3011919 10.2465406,12.0405604 C10.5380771,11.8705834 10.4350607,11.3287171 10.0642016,11.365803 C9.36369006,11.434824 8.7579536,11.7850797 8.26759552,12.2723473 C8.04817058,12.1435768 7.81947416,12.0415906 7.58665709,11.9509361 C5.89306741,9.3600736 6.06407464,5.47532501 8.74971229,3.58806449 C11.0892148,1.94392269 13.8613862,2.41985848 15.8928697,4.0032206 C15.9371668,4.58011246 16.1596822,5.14979317 16.5758685,5.61954798 C16.7901426,5.86266669 17.232083,5.53198403 17.031201,5.26826204 C16.9374561,5.14567252 16.8632842,5.00144955 16.8035347,4.84383446 C17.1455492,5.21572367 17.4576889,5.61851781 17.7203807,6.05530736 C17.8975689,6.34890411 18.3827762,6.15935393 18.2828503,5.81836963 C17.9974949,4.84692495 17.4432666,4.01455241 16.7262724,3.33773463 C16.8900685,2.66503752 17.3227374,2.07681385 18.0644555,1.95628466 C19.5705553,1.71213578 20.8366269,2.74229982 21.4475142,3.99806978 C21.6185214,4.34832555 22.1593576,4.24015833 22.2541327,3.89299305 C23.0823845,0.878733076 26.6889888,1.22692852 27.5615378,3.7539209 C27.519301,3.90844551 27.4842755,4.06400028 27.456461,4.22367571 C26.7322557,4.17010718 25.9905376,4.25355046 25.3497756,4.4358895 C24.8635382,4.57393148 25.0685408,5.28680499 25.5568386,5.18687908 C26.2851645,5.03750529 26.9125344,5.09004366 27.5223915,5.23838728 C27.613046,5.30431778 27.7284243,5.33625287 27.8386519,5.32492106 C28.3691864,5.48047583 28.8976605,5.69268962 29.4797032,5.89769227 C29.8732259,6.03676441 30.1245859,5.5041696 29.8670449,5.2322063 C29.4642508,4.80674855 28.9460782,4.53375508 28.3815483,4.37510982 C28.3815483,4.31123965 28.3691864,4.25458063 28.3660959,4.19277078 C29.0161294,2.43016012 30.7828607,0.988960628 32.7535645,1.37012132 C34.9096979,1.78733776 35.6720192,3.55612941 36.1252914,5.43720894 C35.9965209,5.77098209 35.9161681,6.12844901 35.9110173,6.50548905 C35.9068966,6.82174941 36.3807721,6.88664974 36.4621551,6.57966086 C36.531176,6.32211985 36.6290416,6.0944536 36.7402993,5.8853303 C36.8670095,5.84000308 36.9823879,5.76068045 37.0256548,5.61645748 C37.0483184,5.54228567 37.05862,5.4670837 37.0751027,5.39188172 C37.8065191,4.54714721 38.948971,4.38335113 39.9698636,5.12918989 C40.7095214,5.35479582 41.0237214,5.82970144 40.9124637,6.55493692 C40.876408,7.5150498 40.4076833,8.20113905 39.50732,8.61423483 C38.8006274,8.9016506 39.0818622,10.0544042 39.8297613,9.78553134 C41.190608,9.29620342 43.3529223,9.64027821 43.9895637,11.1896449 C44.8075139,13.180952 43.6248856,14.5634321 42.0920015,15.5328165 C41.7386553,14.807581 41.334831,14.1111901 40.8691968,13.450855 C40.5714794,13.0284877 39.9059934,13.3962563 40.1655948,13.8618904 C40.612686,14.6643882 40.9845752,15.4916099 41.2730211,16.3641589 C41.5151097,17.0986658 41.6016434,17.9495813 42.0167995,18.6047657 C42.2970042,19.0477362 42.8666849,18.8190398 42.9274646,18.3575263 C43.0078174,17.7538502 42.7966337,17.1069072 42.5504245,16.5145628 C43.1705833,16.3404651 43.7052384,15.9778474 44.1512994,15.517364 C45.2092779,15.3762316 46.3517298,15.7553319 46.930682,16.6752684 C47.6930034,17.8857112 47.1171417,19.2805533 46.0941888,20.0706891 C45.573956,19.9460392 45.0145769,19.9305868 44.4304739,20.0603875 C44.0719768,20.1397101 44.1502693,20.7114511 44.5170077,20.7011495 C44.6066319,20.698059 44.6869847,20.7227829 44.7745487,20.7269036 C44.4943441,20.9731128 44.6334162,21.545884 45.0774169,21.5376427 C45.5275986,21.5294014 45.9468753,21.4181437 46.3300964,21.2368348 C47.5704139,22.048604 48.2750461,23.6639013 47.9113982,25.1782424 C47.4303116,27.1829416 45.6841835,28.4108971 44.0585847,29.4565136 C43.2746298,29.9602639 43.9638096,31.1470128 44.7900011,30.7071328 C47.2562138,29.3967641 49.7007931,26.6987645 49.2094049,23.6906855 C48.9961609,22.3864978 48.2647444,21.2574381 47.2520932,20.5929823 C48.4295707,19.4515605 48.890054,17.5045505 48.0051431,16.0478985 C47.3252348,14.9281102 46.0900682,14.4532046 44.8806556,14.5294367 C45.4091297,13.5342983 45.5852878,12.3362175 45.2504845,11.2638167 C44.71995,9.5661064 43.1705833,8.56890761 41.5151097,8.40202104 C42.4474081,7.02881238 42.5380626,5.09313415 41.0752296,3.92183764 C39.8070977,2.9060959 38.1969513,3.1553956 37.1142489,4.06090979 C36.7722344,2.00779286 34.7108762,0.182342187 32.6979357,0.0164857765 C30.6499696,-0.152461126 28.8801477,0.994111448 27.9880257,2.67533916 C26.7940656,0.284328426 23.1462547,0.236940881 21.7575936,2.80513983 C20.6944643,1.34745771 18.7618766,0.335836628 17.0888902,1.49992199 C16.6036829,1.83781579 16.2699098,2.29623879 16.0762389,2.79689851 C13.7697016,1.12494228 10.3165918,0.823104218 8.00696402,2.4878493 C5.14619849,4.55229803 4.56930663,8.75124665 6.30101237,11.6490981 C4.0058069,11.4214318 1.52105124,12.7060464 0.502219006,14.8250938 C-0.812270306,17.5591492 0.594933769,20.7330846 3.08277992,22.111444 C2.24525656,22.7676585 1.72605388,23.8575721 1.85482439,25.0216575 C2.11339556,27.3436472 4.42920432,28.2501915 6.48438157,28.3717509 C5.42434278,29.7439294 5.22140046,31.7269952 5.97445037,33.3165383 C6.71410815,34.878267 8.16869977,34.9740722 9.63565336,34.6506007 C9.08760609,36.2298422 10.2475708,38.2180588 11.7969375,38.8948765 C13.9273167,39.8240845 15.9103825,38.5817067 17.2619577,36.9076901 C17.6802043,38.4261519 19.2831396,39.701495 20.8479587,39.9507947 C23.3811321,40.354619 25.4064346,38.6754516 26.8404229,36.7222606 C27.079421,43.0670409 26.0327743,49.3376494 23.4491229,55.1941319 C23.1091688,55.049909 22.7630337,54.9376211 22.4230796,54.9067162 C20.3143338,54.717166 18.5960202,56.3458553 18.5074261,58.3969119 C18.2972726,57.3409938 17.2351735,56.6487236 16.1854363,56.6559347 C15.1727851,56.664176 13.828421,57.3832305 13.9149548,58.560708 C13.9458597,58.9727736 14.4393083,59.1036045 14.6741857,58.7667408 C15.0697687,58.1991204 15.461231,57.8911014 16.1854363,57.8334122 C16.8663747,57.7788135 17.6080928,57.9302476 17.8955086,58.629729 C18.0397316,58.9820451 18.4785815,58.8831494 18.5074261,58.5493762 C18.5424516,58.7193533 18.7938117,58.7409867 18.8504707,58.5627683 C19.3150747,57.0741813 20.9334624,55.6453438 22.5930566,55.9677851 C24.0579499,56.2521104 24.5781827,57.3564463 24.9778864,58.57307 C24.1877506,58.6565133 23.4068862,58.9016923 22.7444907,59.2540084 C22.3705412,59.4528301 22.6991635,59.9946964 23.0731131,59.816478 C23.8787013,59.433257 24.6441132,59.3323009 25.4177664,59.3755678 C25.4713349,59.3899901 25.5207828,59.3972012 25.5764117,59.3879297 C26.2099626,59.4394379 26.8507246,59.5785101 27.5265122,59.7453967 C27.8695568,59.8298701 28.0251116,59.3920504 27.7572689,59.1994097 C27.274122,58.8522444 26.7188636,58.6637244 26.1409416,58.5844018 C26.1399114,58.5782208 26.1419717,58.5720398 26.1399114,58.5648287 C25.892672,57.5758712 26.1038557,56.1449734 27.3266604,55.7947176 C28.4577805,55.4702159 29.4663111,56.5148022 29.6620422,57.50582 C29.7763905,58.0837421 30.5541643,57.970424 30.7231112,57.50582 C31.2721886,55.9935392 32.775198,55.4887589 34.0144853,56.4138462 C34.8159529,57.0123715 34.9004264,57.6119269 34.9498743,58.4525408 C34.3091122,58.4700536 33.6765915,58.5473159 33.1100013,58.642091 C32.630975,58.7224438 32.7370819,59.5424543 33.2253797,59.496097 C34.075265,59.4157442 34.9241202,59.414714 35.7678245,59.5630576 C36.4734869,59.6866773 37.1472141,59.9308262 37.8631781,59.9977869 C38.3422044,60.0431141 38.433889,59.3796884 38.0918746,59.1540825 C37.4748063,58.7461375 36.7217564,58.5565874 35.9398619,58.4865362 C35.9511937,58.4370883 35.9491334,58.3866103 35.9573747,58.3371624 C36.1829806,58.5112601 36.5785636,58.4782949 36.7052738,58.1218581 C37.9857677,54.5245253 42.3196678,55.1014172 43.7052384,58.2217841 C43.916422,58.6977198 44.5870588,58.3392228 44.4994949,57.8869807 C43.7042082,53.7869279 38.7748733,53.4995121 36.6331623,56.2840455 C34.2648152,50.9158607 32.4074294,45.3127985 31.4710103,39.5098845 C31.1547499,37.5505125 30.476902,36.2638376 32.6721816,36.2277819 C33.862021,36.2082087 35.3135222,36.9427157 36.531176,37.1662613 C36.8484666,37.2249806 37.1657571,37.2630967 37.4830476,37.3125446 C37.2821656,37.5402108 37.1163092,37.7812692 37.0060817,37.9976037 C36.4405216,39.1081205 36.4168278,40.5544708 37.0957059,41.6237811 C38.5317546,43.8860213 41.5182002,43.2514403 43.0325413,41.4960407 C43.5084771,43.0876442 45.4503363,44.3732889 47.0110348,44.2053722 C49.078574,43.9828567 50.3796712,41.8318742 49.9696659,39.8879547 C53.5360938,40.0744144 56.6451289,36.4832625 55.0051077,32.9992478 Z M31.4370149,27.2128164 C31.2690981,27.285958 31.1248752,27.3869141 30.9703506,27.474478 C31.1516594,27.2385705 31.0301001,26.7842681 30.6695427,26.821354 C28.9656514,26.9954518 27.0722099,24.9145204 28.2249634,23.3033438 C29.1284173,22.0393326 30.9219329,22.2206414 32.0066956,23.0890697 C32.0108163,23.1045222 32.0128766,23.1199746 32.0169972,23.1354271 C31.3535716,23.3785458 30.7375335,23.7782495 30.3244377,24.2119485 C30.0174488,24.5343899 30.4841131,24.9969335 30.8106751,24.6981859 C31.2845506,24.2665472 31.8490805,23.9729505 32.4846917,23.8678737 C33.077036,23.7700081 33.6405358,23.9173216 34.2297896,23.9028993 C34.5872565,23.894658 34.6758506,23.4537478 34.4038873,23.2621373 C33.943404,22.9386658 33.3891757,22.8665543 32.8277363,22.9376356 C32.3507704,20.7166019 35.0498002,18.1834286 37.146184,19.6359599 C38.5235133,20.5898918 38.6502235,22.3174769 37.9950391,23.6927458 C37.5088017,23.6206344 36.9926895,23.7246809 36.5157236,24.0924495 C36.2478809,24.2984823 36.4786377,24.7455735 36.7897472,24.5611741 C37.0380168,24.4138607 37.3171912,24.3561715 37.5932752,24.3716239 C37.5870942,24.3798653 37.5829735,24.3891367 37.5778227,24.3963479 C37.340885,24.7064273 37.8013683,25.1421866 38.1104175,24.9289427 C38.2237356,24.8506502 38.3226313,24.7630863 38.4215271,24.6744922 C38.56575,24.7816292 38.6934904,24.9134902 38.7934163,25.0700752 C39.2508091,25.79119 38.8954025,26.6905232 38.3298425,27.2385705 C37.0987964,28.4315004 35.4845294,27.7474715 34.0938079,27.3312852 C33.4489252,27.1386446 33.1687206,28.0039823 33.661139,28.3573286 C33.811543,28.4654958 33.9743089,28.5592408 34.1411955,28.6457745 C34.0340584,28.9146474 33.8259653,29.1351025 33.5323685,29.2679936 C33.1172124,29.4554835 32.6773324,29.3431956 32.2714478,29.18249 C32.2652668,29.1804297 32.2611461,29.1814598 32.2559953,29.1793995 C32.4630583,28.278006 32.7473835,27.3838236 32.8967573,26.6256229 C32.9554767,26.3258451 32.5722557,26.1496871 32.4002183,26.4164996 C32.2219999,26.6925835 32.0705658,26.9789691 31.9345841,27.2705055 C31.7996326,27.1747003 31.6234746,27.1314334 31.4370149,27.2128164 Z M49.6585564,39.1101808 C49.342296,39.1266635 49.2361891,39.4058379 49.3216927,39.6211422 C49.55554,41.1385738 48.387334,42.8548271 46.7555541,42.8579221 C44.9733703,42.8610081 44.4479867,41.277646 44.135847,39.8560196 C44.010167,39.2842786 43.288022,39.41923 43.1056829,39.8560196 C43.0510842,39.9868504 43.0109078,40.1187114 42.9810331,40.2505724 C41.9900153,41.604208 39.1962104,42.583894 38.1876798,40.731659 C37.8363939,40.0878065 37.8868719,39.2214385 38.2175546,38.5796464 C38.5018799,38.0285086 39.0200524,37.8750141 39.4279973,37.5515426 C41.127768,37.7112181 42.8337196,37.748304 44.5510031,37.6154128 C44.650929,37.6082017 44.707588,37.5525728 44.7436438,37.4876725 C44.8404792,37.5020948 44.9373146,37.5237282 45.03415,37.5371203 C45.3339277,37.5803872 45.4441553,37.196136 45.1587999,37.082818 C43.4404862,36.3998192 41.6789057,35.83941 39.9101141,35.2975437 C39.3198301,34.2591384 39.4784754,32.6922589 40.5632381,32.0576778 C41.8457923,31.3066882 43.2972934,32.2338359 43.8309184,33.4473691 C43.9730811,33.7698105 44.5458523,33.6142557 44.5056759,33.2650301 C44.4716804,32.9683428 44.374845,32.6984399 44.2481349,32.4439893 C44.3511513,32.4491402 44.4541677,32.4079336 44.5108267,32.2977061 C44.9764608,31.3891014 46.0849173,30.8894718 47.0481207,31.3633473 C47.9309713,31.7970463 48.0339877,32.7025605 47.98557,33.5637777 C47.5261168,33.4731232 47.056362,33.4308865 46.6133915,33.4751835 C46.2157482,33.5153599 46.1982354,34.1231567 46.6133915,34.1087344 C47.7712959,34.0706184 48.5799746,34.5362525 49.4927,35.1790749 C49.8563479,35.4355857 50.2014528,34.8968099 49.9428817,34.596002 C49.6400134,34.2457462 49.2392796,34.0067482 48.8107314,33.8213187 C48.946713,33.5617173 49.0023419,33.2825429 49.0177943,33.0002779 C50.4548732,31.0172122 53.6195371,31.6291296 54.3355011,34.0479548 C55.2410153,37.1137229 52.3369829,38.9690484 49.6585564,39.1101808 Z" id="形状"></path>
            </g>
        </g>
    </g>
</svg>
