<?xml version="1.0" encoding="UTF-8"?>
<svg width="61px" height="60px" viewBox="0 0 61 60" version="1.1" xmlns="http://www.w3.org/2000/svg" xmlns:xlink="http://www.w3.org/1999/xlink">
    <title>olive-1-svgrepo-com</title>
    <g id="页面-1" stroke="none" stroke-width="1" fill="none" fill-rule="evenodd">
        <g id="形状库素材-植物" transform="translate(-493.000000, -476.000000)" fill="#545458" fill-rule="nonzero">
            <g id="olive-1-svgrepo-com" transform="translate(493.130750, 476.921976)">
                <path d="M20.3701147,18.9317759 C20.979138,20.5979476 21.4025364,23.773494 21.681677,26.7989234 C22.3583176,26.9101343 23.0150362,27.0740796 23.6458565,27.2907592 C23.496794,24.7153299 23.2296065,22.7143536 23.0865206,21.7634943 C26.7715983,25.7377907 29.7761682,29.4756027 29.7761682,29.4756027 L30.6515587,28.6003294 C27.5595669,23.2747441 22.5946847,17.8310338 20.5926537,15.7256435 C32.6494882,18.9438462 42.6935104,22.4700176 42.6935104,22.4700176 L42.6935104,20.7193538 C19.7043726,8.89583963 0,6.26990245 0,6.26990245 L0,11.304394 C4.86058534,11.9988471 10.1334363,13.107675 15.2621466,14.3615811 C16.8499198,15.5507997 18.6223805,17.1802917 20.3701147,18.9317759 Z" id="路径"></path>
                <path d="M36.1260893,14.1507609 C40.0666357,17.4345886 56.0491337,16.1210341 52.5467513,12.6187689 C49.0434315,9.11544898 38.0963625,11.5238862 36.1260893,14.1507609 Z" id="路径"></path>
                <path d="M37.2318704,0.0570907164 C32.347496,-0.76662012 24.8233563,7.54255855 24.7417938,10.8253316 C29.856676,11.2159175 42.1171823,0.879864053 37.2318704,0.0570907164 Z" id="路径"></path>
                <path d="M12.4523422,25.6077126 C13.3594905,21.9741974 7.5382022,15.8170497 5.06812438,15.5627529 C4.47503851,19.3949008 11.5453111,29.2401731 12.4523422,25.6077126 Z" id="路径"></path>
                <path d="M59.8564379,27.7637279 C58.0878444,23.1357598 47.1108926,20.8674788 44.2394477,22.4621661 C46.4978849,27.0682202 61.6258518,32.3897039 59.8564379,27.7637279 Z" id="路径"></path>
                <path d="M19.5951538,28.8188841 C13.2472249,28.8188841 8.10046775,34.7097818 8.10046775,43.5982182 C8.10046775,52.4855999 13.2471077,58.3764976 19.5951538,58.3764976 C25.9429656,58.3764976 31.0896056,52.4855999 31.0896056,43.5982182 C31.0896056,34.7097818 25.9429656,28.8188841 19.5951538,28.8188841 Z M13.5751155,39.9855624 C11.7141782,38.657125 13.7936702,33.636696 15.7639434,33.8552506 C17.7342166,34.0747428 15.1081622,41.080445 13.5751155,39.9855624 Z" id="形状"></path>
                <path d="M33.5507771,28.9997043 C32.1060898,29.7806417 30.9365587,30.8913447 30.0890588,32.2506024 C32.1576523,35.1866176 33.3599959,39.1141562 33.3599959,43.599976 C33.3599959,45.5901711 33.1235115,47.4759521 32.6704647,49.2097409 C36.6575346,54.1229434 42.2205417,55.5814589 46.6150724,53.2099357 C51.8163218,50.4050533 53.4258919,43.3050151 49.4983533,36.0201722 C45.5708147,28.7423606 38.7530812,26.1948219 33.5507771,28.9997043 Z M36.799683,37.2522815 C35.6144487,38.1554454 33.4107381,32.9819695 34.8115973,32.7821648 C36.5135111,32.5397039 37.9850344,36.350055 36.799683,37.2522815 Z" id="形状"></path>
            </g>
        </g>
    </g>
</svg>
