<?xml version="1.0" encoding="UTF-8"?>
<svg width="61px" height="62px" viewBox="0 0 61 62" version="1.1" xmlns="http://www.w3.org/2000/svg" xmlns:xlink="http://www.w3.org/1999/xlink">
    <title>14</title>
    <g id="页面-1" stroke="none" stroke-width="1" fill="none" fill-rule="evenodd">
        <g id="植物" transform="translate(-318.000000, -237.000000)" fill="#545458" fill-rule="nonzero">
            <path d="M358.64158,252.6253 C358.910568,252.670445 359.254798,252.77014 359.599028,252.971411 C359.286776,252.852906 358.965118,252.736282 358.64158,252.6253 M353.391603,258.699171 C353.122615,258.430183 352.925106,258.262771 352.784028,258.159314 L352.780266,258.159314 C352.797195,258.155552 352.812243,258.155552 352.829173,258.155552 C352.974013,258.131098 353.113209,258.095358 353.244882,258.046451 C353.286265,258.035165 353.325767,258.012593 353.363388,257.993782 C353.455558,257.959924 353.542086,257.91666 353.626733,257.867753 C353.666235,257.84518 353.705736,257.820727 353.743357,257.796273 C353.824242,257.743604 353.901364,257.68153 353.974725,257.621337 C354.006702,257.593121 354.03868,257.568668 354.066896,257.538571 C354.136494,257.470854 354.20233,257.399374 354.264405,257.326014 C354.313312,257.425709 354.360338,257.538571 354.40172,257.660839 C354.41865,257.724794 354.431817,257.784987 354.444984,257.837656 C354.446865,257.84518 354.448746,257.852704 354.448746,257.860229 C354.45627,257.856466 354.458152,257.852704 354.463795,257.852704 C354.668828,258.546807 354.777928,259.468516 354.840002,260.215288 C354.334003,259.632166 353.848695,259.124286 353.391603,258.699171 M334.366787,266.428356 C334.400645,266.430237 334.438266,266.430237 334.470244,266.433999 C334.513508,266.437761 334.547366,266.445285 334.588749,266.452809 C334.556771,266.449047 334.519151,266.449047 334.487173,266.445285 C334.447671,266.437761 334.41005,266.430237 334.366787,266.428356 M336.059721,262.600444 C336.059721,262.600444 335.512339,263.764806 335.487885,264.564247 L335.809543,264.321593 C335.809543,264.321593 336.11239,261.804765 338.437352,259.722456 C338.437352,259.722456 337.017169,261.178379 336.701154,263.266331 C336.701154,263.266331 338.076193,262.350266 338.657434,262.218593 L338.657434,262.19414 C338.657434,262.107612 338.676244,261.829218 338.68753,261.708832 C338.691293,261.674973 338.696936,261.637353 338.702579,261.601613 C338.730794,261.477464 338.760891,261.353316 338.802274,261.231048 C338.807917,261.204714 338.809798,261.189666 338.819203,261.167093 C338.869991,261.022253 338.930184,260.883056 339.001664,260.745741 C339.026117,260.696834 339.058095,260.647927 339.08631,260.600901 C339.140861,260.506849 339.189768,260.41844 339.249961,260.333793 C339.342132,260.20024 339.44747,260.070448 339.569737,259.935013 C339.569737,259.935013 339.003545,261.178379 338.979091,261.816051 C338.979091,261.816051 340.801817,260.883056 340.869534,260.783361 C340.939133,260.681785 341.044471,259.513661 342.007562,258.654027 C342.007562,258.654027 341.240099,259.891749 341.021898,260.804053 C341.021898,260.804053 341.94925,260.30934 342.378127,260.132522 C342.378127,260.132522 342.641472,259.263483 343.247166,258.573142 C343.247166,258.573142 342.793836,259.297341 342.684736,259.884225 C342.684736,259.884225 343.207664,259.592664 343.866028,259.419609 C343.899886,259.410204 343.928102,259.404561 343.965723,259.397036 C344.007105,259.38575 344.048488,259.381988 344.091752,259.374464 C344.221544,259.350011 344.370146,259.327438 344.530034,259.310509 C344.586465,259.306747 344.646658,259.302985 344.703089,259.301104 C344.678636,259.3312 344.654182,259.363178 344.63161,259.397036 C344.624086,259.406442 344.618443,259.413966 344.610919,259.423371 C343.995819,259.598308 343.107969,259.912441 341.909748,260.503087 C341.872127,260.521897 341.834507,260.54447 341.796886,260.561399 C341.721644,260.600901 341.648284,260.63664 341.573042,260.674261 C340.878939,261.027896 340.092666,261.46994 339.206697,262.022965 C339.206697,262.022965 339.407968,262.026727 339.707053,262.100088 C339.550927,262.062467 339.385395,262.03237 339.206697,262.022965 L336.65601,263.619966 C336.65601,263.619966 336.727489,263.631253 336.842232,263.650063 C336.793325,263.672635 336.735013,263.704613 336.667296,263.744115 L336.669177,263.744115 C336.650366,263.757282 336.637199,263.761044 336.610865,263.779855 C336.198917,264.028152 335.525506,264.530389 334.874667,265.030745 C334.946146,264.773043 335.380666,263.298309 336.059721,262.600444 M331.87253,251.235213 C331.731453,251.314217 331.590375,251.396983 331.447416,251.48351 C331.573445,251.406388 331.716404,251.325503 331.87253,251.235213 M334.782496,266.486668 C334.744875,266.481025 334.709135,266.469739 334.667753,266.462215 C334.701611,266.469739 334.737351,266.473501 334.77121,266.481025 C334.805068,266.486668 334.840808,266.494192 334.876548,266.501716 C334.848332,266.494192 334.814474,266.49043 334.782496,266.486668 M340.079498,262.227998 C340.000495,262.197902 339.923372,262.167805 339.838726,262.145233 C339.915848,262.164043 339.994852,262.19414 340.079498,262.227998 M323.816045,283.660543 C323.814164,283.664305 323.814164,283.668067 323.814164,283.67183 C323.276188,283.87122 322.854835,284.085658 322.551988,284.266238 C322.5012,284.292572 322.497438,284.296334 322.516248,284.281286 C322.841668,284.081896 323.268663,283.858052 323.816045,283.660543 M337.195867,237.768864 C336.766991,237.699265 336.332471,237.642834 335.89607,237.608975 C335.824591,237.601451 335.753111,237.593927 335.679751,237.590165 C335.245231,237.554425 334.812593,237.537496 334.37243,237.537496 C334.332928,237.537496 334.295307,237.533734 334.253924,237.533734 C334.291545,237.533734 334.323523,237.537496 334.359262,237.537496 C333.905932,237.537496 333.446959,237.546901 332.987986,237.582641 C332.987986,237.582641 335.860331,239.015992 336.970143,240.53587 C336.970143,240.53587 337.995309,239.260527 338.967805,239.268051 C338.967805,239.268051 337.812848,239.905723 337.257942,241.214925 C337.257942,241.214925 338.856824,242.896573 339.374109,243.227635 C339.374109,243.227635 340.49897,242.283354 340.781126,241.944768 L340.506494,242.462053 C340.506494,242.462053 341.520373,241.854478 341.896581,241.303334 C341.896581,241.303334 341.505325,242.082083 340.946657,242.864595 C340.888345,242.94548 340.828151,243.024483 340.767958,243.105368 C340.760434,243.112892 340.754791,243.124178 340.747267,243.131702 C340.681431,243.216349 340.613713,243.302877 340.544115,243.383762 C340.523423,243.406334 340.500851,243.43455 340.478278,243.459003 C340.42749,243.515434 340.374821,243.573746 340.324033,243.630177 C340.29958,243.654631 340.277007,243.679084 340.254435,243.705419 C340.179193,243.78066 340.105833,243.85214 340.02871,243.917976 C340.02871,243.917976 342.001919,245.323111 342.316052,245.86485 C342.316052,245.86485 343.595158,244.899878 344.610919,244.905521 C344.610919,244.905521 343.162519,245.650412 342.596327,246.203437 C342.596327,246.203437 343.747522,246.841109 344.040964,247.397896 C344.040964,247.397896 346.185347,246.096218 347.434356,245.975832 C347.434356,245.975832 345.024747,246.658648 344.217782,247.772223 C344.217782,247.772223 345.615393,248.577307 345.837355,249.040042 C345.837355,249.040042 347.065673,247.853107 348.303396,247.518283 C348.303396,247.518283 346.469384,248.541567 345.874976,249.529112 C345.874976,249.529112 347.360996,250.202524 347.688296,250.725452 C347.688296,250.725452 348.820681,249.741669 349.460234,249.593067 C349.460234,249.593067 348.446355,250.693474 347.977976,250.953058 C347.977976,250.953058 348.566741,251.306693 349.196889,251.776952 C349.189365,251.780714 349.185603,251.780714 349.18184,251.784476 C349.159268,251.795763 349.138577,251.805168 349.117885,251.818335 C348.969283,251.897339 348.828205,251.987628 348.700295,252.091086 C348.696533,252.094848 348.692771,252.09861 348.689009,252.102372 C348.675841,252.111777 348.664555,252.121182 348.651388,252.13623 L348.651388,252.128706 C348.647626,252.13623 348.641983,252.147517 348.632577,252.151279 C348.593076,252.187019 348.553574,252.222758 348.515953,252.258498 C348.416258,252.211472 348.320325,252.173851 348.224392,252.128706 C347.202989,251.632112 345.794091,251.086611 343.856622,250.61259 C343.542489,250.537348 343.23588,250.462107 342.929271,250.392508 C342.8371,250.369936 342.744929,250.347364 342.650877,250.326672 C342.560587,250.305981 342.468416,250.28717 342.378127,250.266479 C342.25774,250.240144 342.141116,250.21381 342.02261,250.187475 C341.909748,250.161141 341.793124,250.138568 341.6765,250.115996 C341.522254,250.084018 341.364247,250.052041 341.210002,250.023825 C341.174262,250.016301 341.134761,250.008777 341.100902,250.001253 C340.993683,249.980561 340.888345,249.963632 340.779244,249.944821 C340.606189,249.914725 340.433134,249.884628 340.26384,249.858294 C340.15474,249.841364 340.047521,249.828197 339.938421,249.813149 C339.908324,249.809387 339.876346,249.801863 339.84625,249.7981 C339.697648,249.777409 339.547165,249.764242 339.398563,249.745431 C339.287581,249.736026 339.1766,249.72474 339.0675,249.713454 C338.952757,249.702168 338.838013,249.694643 338.72327,249.687119 C338.695055,249.683357 338.66872,249.679595 338.640504,249.679595 L338.642386,249.679595 C338.601003,249.679595 338.55962,249.679595 338.516356,249.675833 C338.424185,249.672071 338.330133,249.660785 338.236081,249.660785 C337.968974,249.649498 337.699986,249.645736 337.434759,249.653261 L337.393376,249.653261 C337.131912,249.660785 336.868567,249.679595 336.603341,249.702168 C336.51117,249.713454 336.424642,249.72474 336.328709,249.737907 C336.148129,249.76048 335.969431,249.781171 335.78697,249.813149 C335.681632,249.831959 335.574413,249.852651 335.469075,249.873342 C335.301662,249.910963 335.132369,249.941059 334.966838,249.984323 C334.853975,250.012539 334.739232,250.040754 334.62637,250.076494 C334.462719,250.12352 334.299069,250.172427 334.131657,250.226977 C334.016914,250.266479 333.90217,250.305981 333.787427,250.347364 C333.618134,250.407557 333.446959,250.475274 333.279547,250.546754 C333.166684,250.593779 333.053822,250.638924 332.94096,250.693474 C332.750975,250.77624 332.564752,250.870292 332.372886,250.968106 C332.275073,251.017013 332.17914,251.064039 332.081326,251.116708 C331.793527,251.270953 331.501966,251.438365 331.206643,251.624588 C330.574614,252.015844 329.923775,252.478579 329.248483,253.016556 C329.248483,253.016556 326.097744,255.745942 325.40176,258.366228 C325.40176,258.366228 326.803133,257.867753 327.043906,257.581835 C327.043906,257.581835 327.495355,255.932165 330.345128,254.214777 C330.345128,254.214777 328.817725,255.693273 328.592,256.276395 C328.592,256.276395 329.158193,256.08641 329.477969,256.280157 C329.477969,256.280157 330.62164,253.372072 334.534199,251.035823 C334.534199,251.035823 331.656211,253.210303 330.205931,256.033734 C330.205931,256.033734 331.026063,256.003644 331.633639,255.992358 C331.633639,255.992358 333.868312,252.501152 336.699273,251.684781 C336.699273,251.684781 333.317167,253.360786 332.404864,255.917117 C332.404864,255.917117 333.243807,255.877615 333.802475,256.127793 C333.802475,256.127793 335.013864,253.955194 336.808374,252.924385 C336.808374,252.924385 334.983767,254.391595 334.351738,255.787325 C334.351738,255.787325 334.957432,255.57853 335.122964,255.729013 C335.122964,255.729013 335.62332,255.159058 336.291088,254.927691 L335.745587,255.653771 C335.745587,255.653771 336.718084,255.661295 336.932522,255.86821 C336.932522,255.86821 338.014119,253.319403 341.526017,252.038417 C341.526017,252.038417 338.982853,253.174563 337.434759,255.836232 C337.434759,255.836232 338.740199,255.700797 339.251842,255.877615 C339.251842,255.877615 339.998614,254.848687 340.720932,254.547721 C340.720932,254.547721 339.91961,255.241824 339.716458,255.779801 C339.716458,255.779801 340.749148,255.589816 341.413154,255.956618 C341.413154,255.956618 341.76867,255.313303 342.63771,254.848687 C342.63771,254.848687 341.941726,255.461905 341.870246,255.911473 C341.870246,255.911473 342.596327,255.877615 342.993226,256.253822 L343.348742,255.939689 L343.352504,256.210558 C343.352504,256.210558 343.65347,256.257584 343.696734,256.362922 C343.696734,256.362922 343.787024,256.112744 343.988295,255.764752 C344.249759,255.332114 344.68616,254.767802 345.160182,254.353974 C345.257996,254.267446 345.359572,254.190324 345.470553,254.11132 C345.365215,254.231707 345.26552,254.353974 345.173349,254.485647 L345.180873,254.485647 C345.041676,254.688799 344.919409,254.90888 344.834762,255.14401 C344.676755,255.571006 344.701208,256.060075 344.772688,256.502119 C344.808428,256.724082 344.881788,256.932877 344.983364,257.126624 C344.983364,257.126624 344.979602,257.126624 344.97584,257.122862 C344.983364,257.136029 344.992769,257.143553 344.998412,257.158601 L345.000293,257.158601 L344.992769,257.158601 C344.800903,257.162364 344.6128,257.162364 344.422815,257.164245 L344.375789,257.164245 C344.281737,257.164245 344.185804,257.164245 344.099276,257.168007 C342.735524,257.198103 341.191192,257.354229 339.840607,257.835775 C339.746555,257.867753 339.650622,257.903492 339.55657,257.937351 C339.55657,257.937351 339.55657,257.941113 339.558451,257.941113 C336.255349,259.169431 331.584732,261.86872 329.244721,268.258606 C329.244721,268.258606 329.257888,268.2492 329.28046,268.23039 L329.286103,268.23039 C329.308676,268.209699 329.350059,268.181483 329.397085,268.145743 C329.842891,267.827848 331.204762,266.902377 332.534656,266.531813 C332.534656,266.531813 332.61554,265.211324 333.715947,263.604918 C333.715947,263.604918 333.083919,265.043912 333.097086,265.978788 C333.097086,265.978788 334.103441,265.390023 334.767448,265.117272 C333.896527,265.788803 333.10461,266.433999 333.10461,266.433999 C333.569227,266.379449 333.971769,266.386973 334.338571,266.424594 C334.334809,266.428356 334.332928,266.430237 334.329166,266.433999 C333.968007,266.398259 333.569227,266.386973 333.10461,266.433999 C333.10461,266.433999 333.027488,266.481025 332.897696,266.565672 L332.897696,266.56191 C332.890172,266.569434 332.877005,266.576958 332.86948,266.584482 C332.845027,266.59953 332.822455,266.612698 332.801763,266.629627 C332.76038,266.655961 332.718997,266.684177 332.671971,266.716155 C332.65128,266.729322 332.634351,266.740608 332.611778,266.755656 C332.393578,266.904258 332.109541,267.107411 331.776597,267.365113 C331.755906,267.37828 331.737096,267.395209 331.718285,267.410258 C331.624233,267.481737 331.530182,267.555098 331.430487,267.634101 C331.402271,267.656674 331.375936,267.677365 331.343959,267.703699 C331.251788,267.782703 331.150212,267.863588 331.048636,267.948234 C331.018539,267.972688 330.988443,267.99526 330.960227,268.023476 C330.849246,268.115647 330.73074,268.219104 330.612235,268.324442 C330.595306,268.335728 330.574614,268.350777 330.553923,268.369587 C330.279291,268.616003 329.989612,268.88311 329.688645,269.174671 C329.651025,269.210411 329.607761,269.253675 329.57014,269.291295 C329.462921,269.396634 329.353821,269.507615 329.244721,269.620477 C329.193933,269.669384 329.141263,269.723934 329.090475,269.772841 C328.988899,269.883822 328.889204,269.991041 328.781985,270.102023 C328.731197,270.162216 328.678528,270.220528 328.623978,270.276959 C328.51864,270.393584 328.411421,270.515851 328.302321,270.64 C328.255295,270.692669 328.206388,270.747219 328.161243,270.80365 C328.005117,270.98611 327.850872,271.16669 327.698507,271.358556 C327.698507,271.358556 327.679697,271.358556 327.581883,271.384891 L327.446448,271.612496 L327.448329,271.612496 L327.1041,272.206904 C327.1041,272.206904 327.113505,272.203142 327.124791,272.19938 C327.130434,272.191856 327.147363,272.188094 327.15865,272.182451 C327.168055,272.178688 327.173698,272.174926 327.184984,272.169283 C327.207557,272.161759 327.23201,272.150473 327.258345,272.139187 C327.265869,272.135425 327.275274,272.131663 327.280917,272.129781 C327.316657,272.114733 327.354278,272.101566 327.401304,272.082756 C327.401304,272.082756 327.367445,272.126019 327.314776,272.195618 C326.893423,272.756167 324.959716,275.399025 324.207301,277.242442 C324.207301,277.242442 324.301353,277.182249 324.472528,277.097602 C324.528959,277.067506 324.592914,277.035528 324.666275,277.00355 C324.660631,277.014837 324.653107,277.026123 324.647464,277.035528 C324.602319,277.101364 324.555293,277.16532 324.510148,277.233037 C324.51391,277.229275 324.519554,277.229275 324.525197,277.225513 C324.352141,277.485096 324.182848,277.744679 324.026722,278.019311 C322.698709,280.346155 322.079848,282.910009 322.079848,282.910009 C322.183305,282.836649 322.288643,282.78398 322.393981,282.720024 L321.767595,284.843716 C321.767595,284.843716 321.788287,284.823025 321.816502,284.798571 C321.818383,284.794809 321.824026,284.791047 321.827788,284.787285 C321.863528,284.751545 321.918078,284.710162 321.987677,284.65185 C321.961342,284.751545 321.940651,284.843716 321.919959,284.945292 C321.895506,285.035582 321.872933,285.129634 321.852242,285.221805 C321.227737,288.07722 321.444057,290.667409 321.444057,290.667409 C321.459105,290.631669 321.489202,290.582763 321.524941,290.528212 C321.536228,290.511283 321.551276,290.488711 321.566324,290.471781 C321.585135,290.445447 321.605826,290.419112 321.622755,290.39654 C321.620874,290.41535 321.620874,290.432279 321.618993,290.449209 C321.611469,290.515045 321.605826,290.579 321.602064,290.646718 C321.602064,290.642956 321.603945,290.642956 321.605826,290.639194 C321.596421,290.750175 321.585135,290.855513 321.581372,290.966494 C321.555038,291.440516 321.562562,291.910775 321.587016,292.360343 C321.491083,292.145905 321.363172,291.931467 321.21457,291.722671 C321.176949,291.671883 321.14121,291.621095 321.10547,291.57595 C321.022704,291.472493 320.928652,291.378442 320.827076,291.28439 C320.781931,291.237364 320.748073,291.184695 320.693523,291.143312 C320.684117,291.132026 320.669069,291.124501 320.657783,291.116977 C320.650259,291.109453 320.642735,291.105691 320.637092,291.101929 C320.492252,290.989067 320.34365,290.878085 320.187523,290.780271 C319.993777,290.667409 319.788743,290.528212 319.576186,290.460495 C319.5649,290.456733 319.555495,290.468019 319.557376,290.479305 C319.557376,290.483068 319.555495,290.483068 319.555495,290.483068 C319.555495,290.483068 319.557376,290.484949 319.559257,290.484949 C319.559257,290.484949 319.557376,290.488711 319.559257,290.492473 C319.591234,290.518807 319.660833,290.590287 319.668357,290.59593 C319.882795,290.855513 320.142379,291.079356 320.347412,291.352107 C320.548683,291.617333 320.734905,291.90137 320.875983,292.206098 C321.018942,292.512707 321.118637,292.823079 321.199522,293.140974 C321.218332,293.221859 321.23338,293.304624 321.252191,293.38739 C321.060325,293.144736 320.8346,292.91713 320.582541,292.73467 C320.321077,292.550328 320.038921,292.399845 319.769933,292.217384 C319.768052,292.217384 319.766171,292.213622 319.76429,292.20986 C319.760528,292.206098 319.756766,292.206098 319.751123,292.206098 L319.749242,292.206098 C319.736074,292.192931 319.722907,292.221146 319.730431,292.232433 C319.741718,292.238076 319.74548,292.2456 319.751123,292.253124 C320.046446,292.781696 320.385032,293.27829 320.740549,293.76736 C320.7255,293.752311 320.714214,293.742906 320.697285,293.725977 C320.776288,293.831315 320.853411,293.934772 320.930533,294.041991 C320.921128,294.036348 320.909842,294.032586 320.900437,294.025062 C320.795099,293.961106 320.684117,293.902794 320.571255,293.850125 C320.558088,293.846363 320.544921,293.838839 320.533634,293.835077 C320.390676,293.771122 320.240193,293.71469 320.085947,293.675189 C320.069018,293.671427 320.05397,293.671427 320.040803,293.667665 C320.016349,293.663902 319.988133,293.66014 319.965561,293.656378 C319.803792,293.62252 319.636379,293.588661 319.470848,293.575494 C319.248886,293.558564 319.004351,293.517182 318.784269,293.55104 C318.769221,293.554802 318.76734,293.569851 318.774864,293.577375 L318.770565,293.581137 L318.778626,293.581137 C318.780507,293.581137 318.778626,293.584899 318.780507,293.584899 C318.82189,293.599947 318.914061,293.630044 318.923466,293.631925 C319.230075,293.774884 319.559257,293.861411 319.860223,294.017538 C320.159308,294.16614 320.443345,294.342957 320.702928,294.555514 C320.966273,294.768072 321.190117,295.003201 321.398912,295.253379 C321.425246,295.287238 321.451581,295.324859 321.476034,295.356836 C320.939939,295.121707 320.283456,295.067157 319.786862,295.157446 C319.76429,295.161209 319.760528,295.178138 319.766171,295.20071 L319.762409,295.204472 L319.769933,295.204472 C319.773695,295.215759 319.777457,295.225164 319.788743,295.228926 C320.294743,295.336145 320.806385,295.480985 321.265358,295.723639 C321.355648,295.772546 321.444057,295.825215 321.530584,295.881646 C321.570086,295.9061 321.609588,295.926791 321.647209,295.951244 C321.746904,296.018962 321.842837,296.090441 321.931246,296.173207 C322.123111,296.348143 322.271713,296.543771 322.424077,296.750686 C322.194591,296.720589 321.951937,296.786425 321.75819,296.899288 C321.647209,296.963243 321.464748,297.081748 321.30486,297.224707 L321.302979,297.224707 C321.289812,297.235993 321.280406,297.251042 321.265358,297.262328 C321.23338,297.292424 321.207046,297.32064 321.180711,297.352618 C321.161901,297.373309 321.143091,297.395881 321.129923,297.416573 C321.12428,297.424097 321.114875,297.431621 321.109232,297.441026 L321.109232,297.437264 C321.107351,297.441026 321.107351,297.444788 321.103589,297.448551 C321.094184,297.463599 321.088541,297.478647 321.077254,297.495576 C321.065968,297.512506 321.052801,297.535078 321.047158,297.55577 C321.043396,297.559532 321.043396,297.563294 321.043396,297.567056 C321.041515,297.572699 321.041515,297.580223 321.037753,297.587747 C321.032109,297.606558 321.028347,297.619725 321.024585,297.638535 C321.020823,297.662989 321.018942,297.687442 321.022704,297.713777 L321.022704,297.747636 C321.024585,297.75516 321.026466,297.766446 321.030228,297.777732 C321.043396,297.819115 321.062206,297.869903 321.101708,297.911286 C321.348124,298.197204 322.029059,298.101271 322.350717,298.084341 C322.461698,298.073055 322.567036,298.065531 322.676137,298.054245 C323.108775,298.054245 323.545176,298.016624 323.972172,297.967717 C324.004149,297.967717 324.047413,297.965836 324.094439,297.962074 C324.267494,297.956431 324.53084,297.945145 324.762207,297.898119 C324.769732,297.894357 324.777256,297.894357 324.78478,297.894357 C324.850616,297.877427 324.908928,297.858617 324.969122,297.837925 C324.974765,297.834163 324.982289,297.830401 324.991694,297.826639 C325.044363,297.802186 325.089508,297.77397 325.127129,297.740111 C325.12901,297.736349 325.136534,297.736349 325.138415,297.732587 C325.151582,297.751398 325.168512,297.766446 325.191084,297.77397 C325.287017,297.815353 325.369783,297.804067 325.475121,297.789018 C325.486407,297.789018 325.497693,297.785256 325.508979,297.781494 C325.518385,297.781494 325.52779,297.785256 325.535314,297.781494 L325.556005,297.781494 C325.60115,297.77397 325.616199,297.77397 325.663225,297.758922 C325.717775,297.743873 325.761039,297.706253 325.796778,297.672394 C325.815589,297.655465 325.826875,297.638535 325.830637,297.623487 C325.830637,297.619725 325.832518,297.615963 325.832518,297.612201 L325.834399,297.612201 L325.832518,297.612201 L325.830637,297.606558 C325.832518,297.595272 325.832518,297.583985 325.828756,297.572699 C325.826875,297.567056 325.823113,297.559532 325.819351,297.55577 C325.813708,297.546365 325.809946,297.535078 325.80054,297.527554 C325.798659,297.52003 325.791135,297.512506 325.785492,297.504982 C325.783611,297.50122 325.78173,297.50122 325.779849,297.497458 C325.770444,297.491814 325.76292,297.486171 325.753514,297.474885 C325.742228,297.463599 325.729061,297.452313 325.717775,297.441026 C325.708369,297.431621 325.695202,297.427859 325.683916,297.420335 L326.872732,297.232231 C326.900947,297.2849 326.931044,297.341331 326.955498,297.388357 L330.072377,296.889882 C330.046043,296.839094 330.017827,296.786425 329.987731,296.731875 L330.992205,296.568225 C331.061803,296.635942 331.189714,296.660396 331.283766,296.63218 C331.539587,296.626537 331.791646,296.587035 332.039943,296.555058 C332.064396,296.551296 332.090731,296.54189 332.109541,296.526842 C332.115184,296.52308 332.120827,296.511794 332.126471,296.508032 C332.126471,296.508032 332.128352,296.508032 332.128352,296.50427 C332.137757,296.515556 332.145281,296.526842 332.156567,296.530604 C332.220522,296.556939 332.275073,296.551296 332.350314,296.54189 C332.355957,296.54189 332.363481,296.538128 332.371005,296.534366 L332.393578,296.534366 L332.399221,296.534366 C332.43308,296.530604 332.444366,296.530604 332.476344,296.519318 C332.512083,296.508032 332.54218,296.481697 332.568514,296.462887 C332.581682,296.447838 332.587325,296.436552 332.587325,296.421504 L332.589206,296.421504 L332.587325,296.421504 C332.589206,296.415861 332.587325,296.408337 332.587325,296.404575 L332.587325,296.39705 C332.581682,296.380121 332.572276,296.363192 332.557228,296.348143 C332.555347,296.348143 332.555347,296.348143 332.555347,296.344381 C332.549704,296.340619 332.54218,296.333095 332.536537,296.329333 C332.529013,296.319928 332.519607,296.312404 332.512083,296.30488 C332.489511,296.284188 332.453771,296.276664 332.423674,296.26914 C332.391697,296.261616 332.355957,296.246567 332.322098,296.240924 C332.27131,296.240924 332.229928,296.272902 332.196069,296.308642 C332.192307,296.312404 332.192307,296.316166 332.188545,296.319928 C332.188545,296.319928 332.186664,296.319928 332.186664,296.316166 C332.184783,296.321809 332.181021,296.329333 332.177259,296.333095 C332.156567,296.276664 332.128352,296.223995 332.098255,296.173207 C332.085088,296.152515 332.068158,296.137467 332.05311,296.120538 C332.036181,296.094203 332.021132,296.073512 332.000441,296.05282 C331.99856,296.05282 331.99856,296.056583 331.99856,296.056583 C331.812337,295.874122 331.550873,295.79888 331.325148,295.877884 C331.306338,295.859074 331.285647,295.838382 331.266836,295.821453 C331.263074,295.702947 331.264955,295.586323 331.276241,295.464056 C331.29129,295.343669 331.317624,295.221402 331.347721,295.101015 C331.357126,295.063395 331.368412,295.029536 331.379699,294.993796 C331.407914,294.886577 331.441773,294.78312 331.479394,294.683425 C331.659973,294.192474 331.94401,293.739144 332.250619,293.31591 C332.258143,293.308386 332.2525,293.2971 332.250619,293.285814 L332.2525,293.282052 C332.2525,293.27829 332.250619,293.27829 332.248738,293.274528 C332.246857,293.272647 332.246857,293.272647 332.243095,293.268885 C332.231809,293.263241 332.220522,293.255717 332.207355,293.263241 C331.774716,293.53223 331.319505,294.017538 331.076851,294.555514 C331.07497,294.512251 331.071208,294.472749 331.069327,294.431366 C331.058041,294.100303 331.069327,293.771122 331.123877,293.432535 C331.176546,293.101472 331.276241,292.777934 331.396628,292.4638 C331.518895,292.144024 331.70888,291.856225 331.842434,291.547735 C331.846196,291.536449 331.895103,291.451802 331.919556,291.416062 C331.921437,291.4123 331.919556,291.408538 331.919556,291.408538 L331.919556,291.404776 L331.917675,291.404776 C331.917675,291.389728 331.904508,291.382204 331.893222,291.389728 C331.70888,291.511995 331.550873,291.707623 331.396628,291.867511 C331.375936,291.893846 331.357126,291.922061 331.334554,291.942753 C331.225453,292.068782 331.121996,292.192931 331.035469,292.322722 C331.027944,292.334009 331.016658,292.345295 331.005372,292.360343 C330.913201,292.492016 330.839841,292.634975 330.775885,292.781696 C330.768361,292.794863 330.762718,292.80803 330.755194,292.823079 C330.73074,292.883272 330.704406,292.941584 330.681833,292.998015 C330.644213,293.09771 330.612235,293.193643 330.585901,293.289576 C330.572733,293.137212 330.557685,292.982967 330.542637,292.834365 L330.542637,292.894558 C330.484324,292.288864 330.407202,291.690694 330.27741,291.098167 C330.27741,291.086881 330.279291,291.079356 330.279291,291.069951 C330.279291,291.053022 330.251076,291.045498 330.247314,291.062427 L330.245433,291.062427 C330.243552,291.066189 330.23979,291.069951 330.23979,291.073713 L330.23979,291.083119 C330.160786,291.397252 330.046043,291.700099 329.976444,292.014232 C329.906846,292.326485 329.889917,292.651904 329.906846,292.9698 C329.93318,293.413724 330.017827,293.870817 330.157024,294.305336 C330.111879,294.226333 330.068615,294.160496 330.019708,294.077731 C329.89556,293.846363 329.767649,293.596185 329.645382,293.330959 C329.639739,293.319673 329.634095,293.308386 329.628452,293.2971 L329.634095,293.2971 C329.673597,293.300862 329.698051,293.304624 329.728147,293.304624 C329.803389,293.31591 329.856058,293.323435 329.856058,293.323435 C329.773292,293.157903 329.69617,292.998015 329.619047,292.838127 C329.596475,292.78922 329.573902,292.740313 329.549449,292.691406 C329.500542,292.584187 329.447873,292.476968 329.402728,292.371629 C329.374512,292.315198 329.353821,292.256886 329.323724,292.200455 C329.284222,292.106403 329.24284,292.01047 329.203338,291.922061 C329.178884,291.859987 329.154431,291.803556 329.129977,291.747125 C329.092357,291.658716 329.054736,291.568426 329.018996,291.48378 C328.998305,291.427348 328.977613,291.37656 328.955041,291.32201 C328.921182,291.237364 328.889204,291.150836 328.855346,291.066189 C328.832773,291.017282 328.817725,290.966494 328.797034,290.911944 C328.765056,290.834822 328.73684,290.755818 328.708625,290.676814 C328.689814,290.627907 328.671004,290.582763 328.654075,290.531974 C328.62774,290.456733 328.599525,290.377729 328.575071,290.30625 C328.558142,290.264867 328.543093,290.221603 328.529926,290.18022 C328.505473,290.108741 328.481019,290.037262 328.458447,289.967663 C328.44528,289.930042 328.432112,289.886779 328.420826,289.851039 C328.400135,289.783321 328.377562,289.719366 328.356871,289.657292 C328.347466,289.623433 328.334298,289.583931 328.324893,289.551954 C328.306083,289.491761 328.291034,289.440973 328.274105,289.388303 C328.2647,289.352564 328.253414,289.313062 328.242127,289.281084 C328.232722,289.241583 328.221436,289.205843 328.21015,289.168222 C328.114217,288.835278 328.057786,288.607673 328.040856,288.524907 C328.048381,288.524907 328.055905,288.528669 328.063429,288.528669 C328.148076,288.551242 328.225198,288.571933 328.294796,288.592624 C328.304202,288.592624 328.315488,288.596387 328.324893,288.600149 C328.398254,288.622721 328.46409,288.641531 328.512997,288.660342 C328.520521,288.660342 328.522402,288.664104 328.529926,288.667866 C328.575071,288.682914 328.610811,288.697963 328.637145,288.703606 C328.64467,288.707368 328.652194,288.71113 328.655956,288.71113 C328.671004,288.716773 328.689814,288.724297 328.689814,288.724297 C328.633383,288.543718 328.584476,288.361257 328.53745,288.182558 C328.520521,288.118603 328.505473,288.054648 328.490424,287.990692 C328.462209,287.879711 328.432112,287.766849 328.40954,287.65963 C328.39261,287.584388 328.379443,287.512909 328.362514,287.44331 C328.345584,287.341734 328.323012,287.242039 328.304202,287.146106 C328.291034,287.070865 328.275986,286.999385 328.266581,286.927906 C328.249652,286.835735 328.236484,286.743564 328.221436,286.655156 C328.21015,286.583676 328.198864,286.508435 328.191339,286.440717 C328.178172,286.352308 328.166886,286.265781 328.1556,286.181134 C328.148076,286.113417 328.13867,286.045699 328.133027,285.979863 C328.121741,285.893335 328.116098,285.81057 328.110455,285.725923 C328.102931,285.667611 328.097288,285.603655 328.091644,285.547224 C328.086001,285.460697 328.080358,285.377931 328.072834,285.297046 C328.070953,285.244377 328.067191,285.189827 328.063429,285.137158 C328.059667,285.046868 328.057786,284.96034 328.054024,284.875694 C328.054024,284.838073 328.052143,284.798571 328.050262,284.762831 C328.046499,284.640564 328.044618,284.531464 328.044618,284.424245 C328.044618,284.384743 328.046499,284.349003 328.046499,284.313263 C328.046499,284.247427 328.046499,284.177829 328.048381,284.113873 C328.050262,284.068729 328.052143,284.019822 328.054024,283.974677 C328.054024,283.931413 328.055905,283.89003 328.057786,283.850528 C328.057786,283.795978 328.061548,283.754595 328.063429,283.707569 C328.06531,283.679354 328.067191,283.651138 328.069072,283.622923 C328.070953,283.572135 328.074715,283.52699 328.078477,283.478083 C328.080358,283.47244 328.080358,283.461153 328.080358,283.451748 C328.089763,283.348291 328.099169,283.269287 328.104812,283.216618 C328.204507,283.226024 328.304202,283.229786 328.40954,283.242953 L328.388848,282.609043 L328.385086,282.507467 L328.360633,281.771981 C328.370038,281.775743 328.379443,281.775743 328.385086,281.779506 C328.411421,281.78703 328.432112,281.794554 328.454685,281.802078 C328.494186,281.815245 328.531807,281.82465 328.563785,281.839699 C328.57319,281.843461 328.584476,281.843461 328.592,281.850985 C328.625859,281.862271 328.655956,281.871676 328.674766,281.879201 C328.678528,281.879201 328.680409,281.882963 328.680409,281.882963 C328.702982,281.890487 328.714268,281.89613 328.714268,281.89613 C328.751889,279.672743 329.477969,278.130292 329.938824,277.370353 C330.034756,277.210465 330.119403,277.090078 330.185239,276.999788 C330.220979,276.947119 330.251076,276.907618 330.271767,276.881283 C330.275529,276.877521 330.279291,276.869997 330.283053,276.866235 C330.301864,276.8399 330.315031,276.824852 330.315031,276.824852 C330.281172,276.811685 330.249195,276.800398 330.213455,276.787231 L330.220979,276.787231 C330.220979,276.787231 331.003491,274.125563 332.623065,272.161759 L332.739689,272.001871 L332.897696,271.776146 C332.897696,271.776146 334.720422,268.732627 336.458501,267.190176 C337.359518,266.368163 338.631099,265.393785 339.088191,265.047674 C339.131455,265.011934 339.161552,264.995005 339.187886,264.972433 C339.233031,264.938574 339.261247,264.919764 339.261247,264.919764 L341.463942,263.377313 C341.463942,263.377313 342.338625,262.813001 343.439032,262.258095 C343.459723,262.246809 343.480415,262.235523 343.502987,262.226117 C343.452199,262.508273 343.414578,262.788548 343.410816,263.074465 C343.401411,263.866382 343.623374,264.662061 343.803953,265.429525 C343.822764,265.504766 343.933745,265.489718 343.926221,265.412595 C343.843455,264.733541 343.732474,264.07894 343.715545,263.396123 C343.706139,262.927744 343.770095,262.489463 343.867909,262.051181 C344.227187,261.880006 344.593989,261.720118 344.964554,261.580921 C344.966435,261.584683 344.968316,261.588446 344.968316,261.592208 C344.973959,261.597851 344.97584,261.601613 344.979602,261.609137 C345.032271,261.690022 345.086821,261.769025 345.143252,261.844267 C345.160182,261.864958 345.173349,261.887531 345.192159,261.906341 C345.254233,261.983463 345.318189,262.054943 345.384025,262.107612 C346.260589,262.852503 347.74849,262.944674 348.724748,262.350266 C348.974926,262.197902 349.249558,261.955248 349.413208,261.70507 C349.509141,261.562111 349.590026,261.405985 349.6521,261.246097 C349.655862,261.242335 349.655862,261.23481 349.659624,261.231048 C349.685959,261.155807 349.708531,261.082446 349.727341,261.007205 C349.732985,260.984632 349.738628,260.963941 349.744271,260.94325 C349.746152,260.924439 349.749914,260.905629 349.753676,260.888699 C349.909802,260.924439 350.06969,260.954536 350.233341,260.954536 C350.415801,260.954536 350.596381,260.928201 350.771317,260.888699 C350.763793,260.896224 350.760031,260.903748 350.750626,260.909391 C350.598262,261.024134 350.46847,261.155807 350.35937,261.287479 C350.372537,261.291242 350.376299,261.291242 350.383824,261.291242 C350.346203,261.326981 350.314225,261.366483 350.274723,261.409747 C350.21453,261.477464 350.152456,261.545182 350.090382,261.618542 C350.054642,261.663687 350.01514,261.70507 349.9794,261.748334 C349.911683,261.829218 349.847728,261.911984 349.781892,261.992869 C349.744271,262.039895 349.708531,262.083158 349.672791,262.130184 C349.573096,262.261857 349.473401,262.395411 349.375587,262.542132 C348.553574,263.751639 347.951642,265.517934 347.951642,265.517934 C347.951642,265.517934 347.925307,265.640201 348.369232,266.054029 C348.811276,266.465977 348.897804,266.748132 348.897804,266.748132 C348.848897,265.96374 349.650219,264.60563 350.118597,263.881431 C349.420732,265.151131 349.255201,267.126221 349.255201,267.126221 C349.505379,267.637863 350.137408,268.162673 350.137408,268.162673 C350.445898,267.920019 350.094144,268.059216 350.934968,266.292921 C351.775792,264.524746 353.532681,262.850622 353.532681,262.850622 C351.457896,264.972433 350.750626,267.895565 350.780723,268.46552 C350.807057,269.033593 351.88113,270.098261 351.88113,270.098261 C352.127546,268.66491 353.461201,267.193938 353.461201,267.193938 C352.547017,268.234152 352.366437,270.421799 352.366437,270.421799 C352.402177,270.592974 353.363388,271.512801 353.363388,271.512801 C354.413007,268.2492 357.044579,266.270349 357.044579,266.270349 C354.580419,268.525713 354.136494,272.329171 354.136494,272.329171 C354.281334,272.517275 354.860694,273.0703 354.860694,273.0703 C354.894552,272.564301 355.421243,271.569232 355.421243,271.569232 C355.191756,272.009395 355.206805,272.577468 355.206805,272.577468 C356.136037,270.679501 357.529886,269.592261 357.529886,269.592261 C356.324141,270.875129 355.645086,273.736188 355.645086,273.736188 C355.90467,273.882909 356.186825,274.309904 356.186825,274.309904 C356.658966,272.767453 358.056577,271.584281 358.056577,271.584281 C357.148036,272.445796 356.463338,274.928766 356.463338,274.928766 C356.982504,275.222208 357.104772,275.884333 357.104772,275.884333 C357.605128,274.560082 358.581386,273.6854 358.581386,273.6854 C357.661559,274.674826 357.413262,276.529529 357.413262,276.529529 C357.522362,276.896331 357.851544,278.591146 357.851544,278.591146 C358.018956,278.512143 358.739394,277.336494 358.829683,276.967811 C358.918092,276.601008 359.702485,275.470505 359.702485,275.470505 C359.401519,276.680012 358.160034,279.01438 358.160034,279.01438 C358.385758,279.420684 358.468524,280.801366 358.468524,280.801366 C359.241631,280.489114 359.764559,278.784893 359.764559,278.784893 C359.418448,280.274675 358.472286,281.38825 358.472286,281.38825 C358.808992,282.029684 358.739394,283.575897 358.739394,283.575897 C358.940665,283.553324 359.330039,283.229786 359.330039,283.229786 C359.256679,283.389674 358.718702,284.627397 358.718702,284.627397 C358.887996,285.043106 358.652866,286.214993 358.652866,286.214993 C358.722464,286.062629 358.799587,285.893335 358.876709,285.70335 C358.886115,285.677016 358.89552,285.658205 358.904925,285.631871 C358.944427,285.535938 358.98581,285.432481 359.02343,285.3215 C359.019668,285.329024 359.019668,285.34031 359.017787,285.342191 C359.027192,285.3215 359.036598,285.293284 359.046003,285.270712 C359.064813,285.218043 359.083624,285.161612 359.106196,285.10518 C359.123125,285.058154 359.138174,285.018653 359.151341,284.975389 C359.153222,284.971627 359.155103,284.967865 359.155103,284.964103 C359.164508,284.937768 359.175794,284.907671 359.1852,284.879456 C359.205891,284.823025 359.228463,284.759069 359.247274,284.695114 C359.275489,284.619873 359.301824,284.535226 359.330039,284.45246 C359.350731,284.388505 359.371422,284.32455 359.392114,284.258713 C359.401519,284.236141 359.407162,284.206044 359.416567,284.181591 C359.418448,284.177829 359.418448,284.174067 359.420329,284.166542 C359.43914,284.113873 359.456069,284.05368 359.472998,283.997249 C359.49369,283.929532 359.516262,283.859933 359.536954,283.788454 C359.561407,283.694402 359.591504,283.60035 359.617838,283.504417 C359.636649,283.432938 359.65734,283.361458 359.67615,283.29186 L359.678031,283.288098 C359.681794,283.276812 359.683675,283.265525 359.685556,283.254239 C359.71189,283.16583 359.734463,283.068016 359.760797,282.973965 C359.779608,282.902485 359.796537,282.832887 359.815347,282.761407 C359.847325,282.63914 359.877421,282.511229 359.907518,282.377676 C359.916923,282.340055 359.926328,282.302434 359.937615,282.264813 L359.937615,282.257289 C359.941377,282.242241 359.945139,282.225311 359.948901,282.212144 C359.994046,282.018397 360.035429,281.82465 360.07493,281.627141 C360.078693,281.619617 360.080574,281.612093 360.082455,281.600807 C360.108789,281.469134 360.135124,281.335581 360.161458,281.198265 C360.16522,281.185098 360.168982,281.166287 360.172744,281.149358 C360.178388,281.109856 360.189674,281.066592 360.195317,281.028971 C360.206603,280.963135 360.217889,280.89918 360.231057,280.831462 C360.253629,280.688504 360.281845,280.547426 360.306298,280.400705 C360.321346,280.323582 360.328871,280.244579 360.342038,280.169337 C360.349562,280.122311 360.357086,280.077166 360.366491,280.028259 C360.368372,280.01133 360.370253,279.994401 360.372134,279.97559 C360.385302,279.90223 360.396588,279.826988 360.407874,279.751747 C360.41916,279.6671 360.428566,279.580572 360.441733,279.497807 C360.460543,279.360491 360.479354,279.225056 360.492521,279.080216 C360.505688,278.993688 360.515093,278.903399 360.524498,278.81499 C360.524498,278.807466 360.52638,278.799942 360.52638,278.792417 C360.530142,278.771726 360.533904,278.754797 360.535785,278.728462 C360.548952,278.617481 360.558357,278.508381 360.567762,278.3974 C360.577168,278.301467 360.586573,278.209296 360.595978,278.113363 C360.607264,277.974166 360.61855,277.833088 360.627956,277.69201 C360.63548,277.613007 360.639242,277.534003 360.644885,277.456881 L360.644885,277.445594 C360.644885,277.434308 360.648647,277.421141 360.648647,277.404212 C360.656171,277.261253 360.665576,277.112651 360.671219,276.964049 C360.674982,276.869997 360.680625,276.775945 360.684387,276.680012 C360.69003,276.529529 360.695673,276.373403 360.697554,276.221039 C360.699435,276.130749 360.701316,276.034816 360.703197,275.940764 C360.703197,275.782757 360.703197,275.615345 360.701316,275.447932 L360.701316,275.197754 C360.697554,275.051033 360.691911,274.906193 360.686268,274.75571 C360.684387,274.727495 360.684387,274.70116 360.684387,274.674826 C360.682506,274.656015 360.682506,274.637205 360.682506,274.620276 C360.678744,274.560082 360.678744,274.499889 360.674982,274.439696 C360.658052,274.074775 360.631718,273.70421 360.59974,273.333646 C360.595978,273.30543 360.592216,273.273452 360.590335,273.245237 C360.579049,273.126732 360.567762,273.010107 360.556476,272.891602 C360.548952,272.820122 360.539547,272.748643 360.530142,272.677163 C360.507569,272.487179 360.484997,272.304718 360.458662,272.114733 C360.447376,272.031968 360.432328,271.952964 360.422922,271.875841 C360.41916,271.847626 360.413517,271.823172 360.409755,271.796838 C360.385302,271.640712 360.362729,271.486467 360.332633,271.334102 C360.313822,271.232526 360.295012,271.127188 360.27432,271.023731 C360.247986,270.863843 360.212246,270.705836 360.178388,270.545948 C360.155815,270.44061 360.131362,270.33339 360.106908,270.226171 C360.073049,270.068164 360.033548,269.9158 359.995927,269.757793 C359.96583,269.648693 359.937615,269.541473 359.907518,269.430492 C359.866135,269.280009 359.824752,269.123883 359.779608,268.971519 C359.775845,268.963995 359.775845,268.958352 359.773964,268.950828 C359.770202,268.935779 359.764559,268.922612 359.760797,268.907564 C359.732582,268.817274 359.706247,268.728865 359.67615,268.640456 C359.629124,268.488092 359.580218,268.335728 359.527548,268.183364 C359.489928,268.074264 359.452307,267.963283 359.412805,267.854183 C359.371422,267.733796 359.326277,267.617172 359.281132,267.498666 C359.27737,267.489261 359.273608,267.476094 359.269846,267.464808 L359.267965,267.464808 C359.25856,267.438473 359.247274,267.41402 359.23975,267.393328 C359.198367,267.286109 359.158865,267.17889 359.11372,267.073552 C359.049765,266.911783 358.982047,266.755656 358.910568,266.595768 C358.867304,266.494192 358.825921,266.394497 358.778895,266.296683 C358.701773,266.125509 358.613364,265.950572 358.526836,265.777517 C358.485453,265.696632 358.449714,265.610104 358.40645,265.52922 C358.276658,265.273399 358.137462,265.019459 357.992622,264.76928 C357.262779,263.493937 356.544222,262.410459 355.853882,261.484988 C356.476505,261.592208 356.973099,261.928913 356.973099,261.928913 C357.377522,260.969584 356.783114,258.362466 356.783114,258.362466 C357.15556,258.89668 357.612652,261.864958 357.612652,261.864958 L357.945596,261.936438 C357.945596,261.936438 358.178844,261.212238 357.945596,259.976396 C357.712347,258.744316 357.791351,257.88092 357.791351,257.88092 C358.585149,259.103595 358.705535,262.06811 358.705535,262.06811 C360.374015,261.917627 361.318296,262.156519 361.318296,262.156519 C361.871322,261.05235 361.03426,258.561856 361.03426,258.561856 C362.012399,260.354485 361.854392,262.190378 361.854392,262.190378 C362.789268,262.019203 363.154189,262.145233 363.154189,262.145233 C363.428821,261.498156 362.920941,259.972634 362.920941,259.972634 C363.451393,260.629116 363.519111,262.141471 363.519111,262.141471 C364.235786,262.235523 365.654089,262.457485 365.654089,262.457485 C365.921196,261.659925 365.469747,260.010255 365.469747,260.010255 C366.103657,260.843555 366.118705,262.243047 366.118705,262.243047 C366.944481,262.096326 367.736398,262.271262 367.736398,262.271262 C367.781542,261.357078 367.283067,260.824744 367.283067,260.824744 C368.349616,261.755858 368.182203,262.457485 368.182203,262.457485 C368.182203,262.457485 368.35714,262.634303 369.457547,262.668161 C370.559835,262.70202 370.725367,263.087633 370.725367,263.087633 C370.762987,262.23176 370.437568,261.552706 370.437568,261.552706 C370.881493,262.051181 371.359276,263.226829 371.359276,263.226829 C371.359276,263.226829 372.796389,263.262569 374.252313,263.273855 C374.417844,263.273855 374.572089,263.283261 374.722572,263.302071 C374.758312,263.302071 374.795932,263.309595 374.831672,263.313357 C374.968988,263.330287 375.100661,263.347216 375.222928,263.37355 C375.228571,263.37355 375.234214,263.377313 375.241738,263.377313 C375.375292,263.403647 375.499441,263.433744 375.616065,263.465721 C375.638637,263.473245 375.663091,263.478889 375.689425,263.486413 C375.785358,263.516509 375.881291,263.548487 375.967819,263.578584 C375.977224,263.582346 375.98851,263.586108 375.996035,263.58987 C376.088205,263.627491 376.167209,263.657587 376.242451,263.691446 C376.263142,263.700851 376.283833,263.710256 376.302644,263.71778 C376.515201,263.813713 376.633706,263.892717 376.633706,263.892717 C376.439959,263.627491 376.212354,263.358502 375.973462,263.087633 C375.980986,263.095157 375.98851,263.098919 375.994154,263.104562 C375.943366,263.048131 375.888815,262.995462 375.841789,262.93715 C375.730808,262.820525 375.623589,262.70202 375.506965,262.581634 C375.439247,262.513916 375.367768,262.44808 375.29817,262.380362 C375.168378,262.250571 375.040467,262.126422 374.905033,262.000393 C374.850483,261.947724 374.794051,261.898817 374.73762,261.851791 C374.214692,261.383412 373.642856,260.924439 373.023995,260.476752 C372.954396,260.425964 372.892322,260.375176 372.822724,260.330031 C372.664717,260.215288 372.497304,260.106188 372.333654,259.998969 C372.226435,259.923727 372.121097,259.852248 372.010115,259.777006 C371.861513,259.681073 371.71103,259.588902 371.558666,259.49485 C371.581239,259.506137 371.596287,259.513661 371.596287,259.513661 C371.596287,259.513661 371.568072,259.49485 371.530451,259.477921 C371.404421,259.400799 371.280273,259.319914 371.152362,259.242791 C370.998117,259.150621 370.836348,259.062212 370.680222,258.971922 C370.537263,258.889156 370.399947,258.808272 370.255107,258.729268 C370.100862,258.644621 369.942855,258.561856 369.782967,258.475328 C369.630603,258.394443 369.474476,258.31544 369.320231,258.236436 C369.164105,258.159314 369.006098,258.08031 368.849972,258.005068 C368.684441,257.924184 368.518909,257.848942 368.349616,257.769939 C368.195371,257.698459 368.039245,257.628861 367.883118,257.561144 C367.706301,257.48214 367.531364,257.410661 367.354547,257.3373 C367.200302,257.273345 367.044176,257.203746 366.888049,257.143553 C366.701827,257.068312 366.513723,256.996832 366.323738,256.929115 C366.175136,256.872684 366.024653,256.814372 365.87417,256.761702 C365.669137,256.690223 365.467866,256.624387 365.264714,256.556669 C365.119874,256.507762 364.980677,256.462617 364.837718,256.417473 C364.608232,256.344112 364.376864,256.280157 364.145496,256.212439 C364.02511,256.182343 363.910367,256.146603 363.788099,256.112744 C363.438226,256.018693 363.086472,255.932165 362.730956,255.85128 C362.390488,255.776039 362.053782,255.712083 361.718958,255.653771 L361.72272,255.653771 C361.707671,255.653771 361.694504,255.650009 361.683218,255.650009 C361.513924,255.621794 361.348393,255.601102 361.1791,255.574768 C360.994758,255.552195 360.812297,255.522099 360.631718,255.499526 C360.456781,255.480716 360.283726,255.465667 360.11067,255.446857 C359.939496,255.43369 359.770202,255.414879 359.600909,255.403593 C359.425972,255.390426 359.254798,255.382902 359.083624,255.373497 C358.921854,255.365972 358.761966,255.358448 358.602078,255.354686 C358.430903,255.347162 358.265372,255.347162 358.096079,255.3434 L357.637105,255.3434 L357.533648,255.3434 C357.787588,255.055601 358.056577,254.846806 358.331208,254.820471 C358.331208,254.820471 357.217634,253.291188 355.944171,252.708066 C355.944171,252.708066 358.248443,253.547009 359.106196,254.937096 L360.067406,254.073699 C360.067406,254.073699 359.634768,253.390883 358.861661,252.913099 C359.102434,252.971411 359.339445,253.035367 359.582099,253.091798 C359.600909,253.09556 359.617838,253.091798 359.625362,253.084274 C359.661102,253.063582 359.664864,253.003389 359.617838,252.977054 C359.952663,253.174563 360.293131,253.469886 360.560238,253.904406 C360.560238,253.904406 361.376609,252.901813 361.818653,252.550059 C361.818653,252.550059 360.498164,250.817623 358.923735,249.956108 C358.923735,249.956108 361.703909,251.082849 362.360391,252.09861 L362.858866,251.583205 C362.858866,251.583205 361.923991,250.198762 360.071168,249.482086 C360.071168,249.482086 363.007468,249.596829 364.632685,250.874054 L366.36324,249.679595 C366.36324,249.679595 366.177017,249.164191 365.181948,248.581069 C365.181948,248.581069 366.154445,248.853819 366.594608,249.384272 L367.1608,249.043804 C367.1608,249.043804 366.423433,247.96597 364.536752,247.254937 C364.536752,247.254937 367.542651,247.798557 368.142702,248.622452 C368.142702,248.622452 368.528314,248.38356 368.983526,248.114572 C369.48012,247.817368 370.055717,247.482543 370.305895,247.375324 C370.305895,247.375324 369.976714,246.331348 368.930857,245.629721 C368.983526,245.64665 369.036195,245.669222 369.090745,245.693676 C369.387949,245.853564 369.978595,246.24482 370.599337,247.104454 C370.599337,247.104454 372.484137,246.017214 372.952515,246.005928 C372.952515,246.005928 372.67036,245.319349 372.091,244.920569 L372.092881,244.920569 C372.3092,245.061647 372.794508,245.415282 373.078545,245.86485 C373.078545,245.86485 373.84977,245.714367 374.440416,245.379543 C375.362125,244.856614 377.008033,244.367544 378.770565,244.553767 C378.770565,244.553767 378.668989,244.516146 378.48841,244.459715 L378.494053,244.459715 C378.484648,244.459715 378.47148,244.455953 378.462075,244.452191 C378.394358,244.433381 378.315354,244.407046 378.228826,244.386355 C378.196849,244.375068 378.16299,244.363782 378.12725,244.356258 C378.025674,244.329924 377.910931,244.296065 377.784902,244.265968 C377.752924,244.258444 377.720946,244.25092 377.688969,244.239634 C377.551653,244.207656 377.406813,244.171916 377.245044,244.136177 C377.222471,244.132415 377.198018,244.12489 377.179207,244.121128 C377.015557,244.08727 376.840621,244.049649 376.656279,244.019552 C376.618658,244.012028 376.581037,244.004504 376.541536,243.993218 C376.345908,243.963121 376.142756,243.9255 375.926436,243.893523 C375.87941,243.885999 375.830503,243.880355 375.783477,243.872831 C375.561515,243.840854 375.330147,243.808876 375.087493,243.78066 C375.040467,243.776898 374.99156,243.773136 374.944534,243.765612 C374.688713,243.739278 374.427249,243.712943 374.148855,243.694133 C374.122521,243.690371 374.094305,243.690371 374.067971,243.686609 C373.829079,243.673441 373.578901,243.658393 373.324961,243.647107 L373.345652,243.647107 L373.30615,243.647107 C373.277935,243.647107 373.2516,243.647107 373.221504,243.645226 C373.185764,243.645226 373.150024,243.641464 373.112404,243.641464 C372.817081,243.63394 372.50859,243.630177 372.192576,243.63394 C372.134264,243.63394 372.077833,243.63394 372.015759,243.637702 C371.703506,243.641464 371.381849,243.654631 371.054548,243.673441 C370.992474,243.677203 370.932281,243.679084 370.872088,243.682847 C370.529739,243.705419 370.183628,243.733635 369.826231,243.773136 C369.78861,243.78066 369.747227,243.784423 369.707725,243.788185 C369.344685,243.829567 368.979764,243.880355 368.605437,243.936787 C368.580983,243.944311 368.55653,243.944311 368.533958,243.948073 C368.153988,244.012028 367.770256,244.08727 367.379,244.171916 C367.315045,244.183203 367.256733,244.198251 367.194659,244.207656 C366.812808,244.292303 366.427195,244.390117 366.034058,244.501098 C365.966341,244.516146 365.89298,244.534957 365.825263,244.557529 C365.663494,244.602674 365.503606,244.6497 365.343717,244.698607 C365.328669,244.702369 365.313621,244.706131 365.298572,244.713655 C365.072848,244.781373 364.849004,244.852852 364.62328,244.929975 C364.564968,244.948785 364.508537,244.971357 364.452105,244.990168 C364.418247,245.001454 364.386269,245.01274 364.350529,245.027789 C364.29786,245.046599 364.247072,245.061647 364.190641,245.08422 C363.850173,245.210249 363.505943,245.33816 363.157951,245.479238 C358.160034,247.540855 355.219972,250.076494 353.636138,251.833383 C353.636138,251.833383 353.636138,251.837145 353.634257,251.837145 C353.374674,252.121182 353.154592,252.386409 352.964607,252.6253 C352.938273,252.535011 352.893128,252.446602 352.853626,252.360074 C352.840459,252.341264 352.832935,252.314929 352.82353,252.290476 C352.761455,252.175732 352.688095,252.068513 352.601567,251.968818 C352.594043,251.957532 352.586519,251.951889 352.577114,251.944365 C352.56959,251.840908 352.560184,251.733688 352.547017,251.624588 C352.531969,251.348076 352.490586,251.032061 352.392772,250.676545 C352.392772,250.672783 352.390891,250.672783 352.38901,250.672783 C352.383367,250.650211 352.379605,250.627638 352.373962,250.608828 C352.362675,250.55804 352.351389,250.509133 352.338222,250.454583 C352.278029,250.198762 352.20843,249.929773 352.120022,249.649498 C352.110616,249.606235 352.093687,249.559209 352.08052,249.517826 C351.986468,249.21686 351.877368,248.906489 351.7551,248.584831 C351.630952,248.259412 351.48235,247.932111 351.324343,247.610453 C351.314937,247.589762 351.305532,247.56719 351.296127,247.55026 C351.288603,247.537093 351.284841,247.525807 351.281079,247.514521 L351.279198,247.510758 C351.126834,247.211673 350.95754,246.912588 350.776961,246.617266 C350.75815,246.585288 350.741221,246.551429 350.718648,246.521333 C350.705481,246.494998 350.690433,246.472426 350.677266,246.449853 C350.677266,246.449853 350.673503,246.442329 350.671622,246.438567 C350.500448,246.163935 350.314225,245.893066 350.120478,245.625959 C350.092263,245.586457 350.064047,245.543193 350.033951,245.505572 C350.007616,245.467951 349.981282,245.434093 349.954947,245.394591 C349.951185,245.390829 349.949304,245.387067 349.945542,245.383305 C349.759319,245.135008 349.559929,244.888592 349.356777,244.645938 C349.321037,244.598912 349.281535,244.557529 349.245796,244.510503 C349.202532,244.463477 349.164911,244.41457 349.121647,244.367544 C349.117885,244.36002 349.114123,244.356258 349.110361,244.350615 C348.910971,244.12489 348.704057,243.904809 348.4915,243.682847 C348.448236,243.641464 348.404972,243.5982 348.361708,243.553055 C348.303396,243.492862 348.246965,243.430787 348.183009,243.370594 C348.179247,243.366832 348.173604,243.359308 348.16608,243.355546 C347.959166,243.152394 347.74849,242.956766 347.53217,242.761138 C347.481382,242.717874 347.436237,242.67461 347.389211,242.635108 C347.308327,242.563629 347.233085,242.49215 347.148439,242.422551 C347.140914,242.415027 347.131509,242.411265 347.125866,242.403741 C346.917071,242.226923 346.700752,242.051987 346.482551,241.880812 C346.433644,241.84131 346.386618,241.805571 346.339592,241.769831 C346.232373,241.688946 346.127035,241.606181 346.017935,241.525296 C346.012292,241.521534 346.004768,241.517772 345.997243,241.510248 C345.788448,241.354122 345.570248,241.199877 345.350166,241.051275 C345.305021,241.021178 345.263639,240.992962 345.218494,240.964747 C345.081178,240.872576 344.945743,240.778524 344.808428,240.693877 C344.806546,240.690115 344.804665,240.690115 344.804665,240.690115 L344.802784,240.690115 C344.582703,240.550919 344.362622,240.415484 344.14254,240.287573 C344.1068,240.266882 344.076704,240.248071 344.040964,240.231142 C343.657232,240.00918 343.264095,239.796622 342.861553,239.595351 C342.850267,239.587827 342.838981,239.584065 342.825814,239.578422 C342.421391,239.379032 342.007562,239.192809 341.588091,239.019754 C341.561756,239.008468 341.539184,238.997181 341.51473,238.987776 C341.100902,238.814721 340.679549,238.662357 340.254435,238.519398 C340.207409,238.50623 340.164145,238.48742 340.117119,238.474253 C339.70141,238.336937 339.280057,238.216551 338.851181,238.109331 C338.792869,238.096164 338.736437,238.079235 338.678125,238.067949 C338.254892,237.964492 337.827896,237.874202 337.395257,237.802722 C337.32754,237.789555 337.263585,237.778269 337.195867,237.768864" id="14"></path>
        </g>
    </g>
</svg>
