<?xml version="1.0" encoding="UTF-8"?>
<svg width="60px" height="61px" viewBox="0 0 60 61" version="1.1" xmlns="http://www.w3.org/2000/svg" xmlns:xlink="http://www.w3.org/1999/xlink">
    <title>8</title>
    <g id="页面-1" stroke="none" stroke-width="1" fill="none" fill-rule="evenodd">
        <g id="形状库素材-植物" transform="translate(-481.000000, -557.000000)" fill="#545458">
            <path d="M512.580581,557.543829 C517.519867,557.257828 521.856014,559.487023 526.686896,559.63233 C530.492556,559.7465 533.477117,557.141352 537.17322,559.174497 C541.193089,561.386418 540.853553,564.907804 540.093464,568.564309 L539.587799,570.911667 C539.318751,572.207165 539.102277,573.488207 539.112954,574.702745 C539.145244,578.242009 540.133563,581.663644 540.01478,585.229432 C539.899457,588.669519 539.240963,592.109605 538.249184,595.398618 C536.39825,601.541877 533.548617,606.817906 528.276048,610.584357 C522.655202,614.597599 516.137144,617.258101 509.186624,617.499126 C506.227435,617.602917 503.237108,617.285779 500.344806,616.651502 C498.798324,616.311299 497.217246,615.660877 495.616562,615.666643 C493.910934,615.673563 492.329855,616.455453 490.70034,616.846398 C485.975555,617.981177 481.674006,615.730071 482.049959,610.362937 C482.183734,608.445114 483.100552,606.700277 483.402698,604.836656 C483.75328,602.66743 482.822623,600.498203 482.331347,598.417776 C481.507941,594.926947 481.578288,591.401522 482.029201,587.850725 C482.85722,581.348812 485.033366,574.430583 489.347601,569.363288 C495.647699,562.536164 503.10564,558.091614 512.580581,557.543829 Z M521.295544,560.256227 C517.247705,559.270215 513.512392,558.806617 509.379214,559.545837 C501.599521,560.937787 495.78378,564.766512 490.489299,570.504986 C485.607675,576.237695 483.497263,584.704713 483.315053,592.076162 C483.222794,595.7492 484.459057,598.874455 484.975704,602.427558 C485.36319,605.09498 484.096943,607.204238 483.750974,609.80362 C483.354262,612.78818 484.750825,615.666643 488.142475,615.689708 C489.620917,615.698934 491.140874,615.004689 492.553582,614.620663 C494.328403,614.13746 495.814917,613.966782 497.637021,614.311598 L500.238043,614.813058 C504.303687,615.591114 508.163859,616.215982 512.453726,615.582457 C518.95218,614.621817 525.908466,611.353561 530.573283,606.673752 C534.721452,602.512897 536.827251,595.922185 537.831715,590.277122 C538.867316,584.449849 537.308148,579.132303 537.537641,573.370764 C537.588383,572.10221 537.83431,570.925915 538.111662,569.75899 L538.393424,568.592119 C538.580162,567.812193 538.756606,567.024152 538.874235,566.203437 C539.362052,562.801407 537.670263,560.742891 534.437758,560.313889 C532.283523,560.027888 531.362092,560.676003 529.413133,561.076174 C526.705348,561.630878 523.91453,560.895117 521.295544,560.256227 Z M527.239293,596.875907 C528.280661,596.875907 528.278354,598.490429 527.239293,598.490429 L527.103212,598.490429 C526.062998,598.490429 526.065305,596.875907 527.103212,596.875907 L527.239293,596.875907 Z M519.157455,596.716761 C519.629126,595.790717 521.022228,596.608357 520.55171,597.532095 L520.412169,597.803104 C519.940498,598.730301 518.547396,597.912661 519.017914,596.98777 L519.157455,596.716761 Z M532.849759,594.342259 C533.889973,594.342259 533.88882,595.957935 532.849759,595.957935 C531.808392,595.957935 531.810699,594.342259 532.849759,594.342259 Z M526.08145,591.764789 C527.121664,591.764789 527.119357,593.378159 526.08145,593.378159 C525.040083,593.378159 525.042389,591.764789 526.08145,591.764789 Z M519.785965,590.302493 C520.826179,590.302493 520.823873,591.917016 519.785965,591.917016 C518.744598,591.917016 518.745751,590.302493 519.785965,590.302493 Z M530.271136,588.058307 C531.312503,588.058307 531.310197,589.672829 530.271136,589.672829 C529.230922,589.672829 529.232076,588.058307 530.271136,588.058307 Z M524.247814,584.635519 C525.288028,584.635519 525.286874,586.251195 524.247814,586.251195 C523.206447,586.251195 523.208753,584.635519 524.247814,584.635519 Z M507.551343,565.649886 C508.547735,565.34428 508.97097,566.902294 507.980345,567.206747 C503.400867,568.610229 500.151064,570.61339 497.234544,574.413284 C494.735494,577.668854 492.787687,581.097408 492.042701,585.174077 C491.855877,586.19584 490.300169,585.761072 490.485839,584.745076 C491.315012,580.215186 493.571884,576.437204 496.393839,572.859883 C499.470658,568.961964 502.876147,567.082198 507.551343,565.649886 Z M511.608408,565.009843 C512.649775,565.009843 512.647469,566.624366 511.608408,566.624366 C510.568194,566.624366 510.569347,565.009843 511.608408,565.009843 Z" id="8"></path>
        </g>
    </g>
</svg>
