<?xml version="1.0" encoding="UTF-8"?>
<svg width="42px" height="61px" viewBox="0 0 42 61" version="1.1" xmlns="http://www.w3.org/2000/svg" xmlns:xlink="http://www.w3.org/1999/xlink">
    <title>8</title>
    <g id="页面-1" stroke="none" stroke-width="1" fill="none" fill-rule="evenodd">
        <g id="植物" transform="translate(-648.000000, -157.000000)" fill="#545458">
            <path d="M650.059453,164.749817 C650.126522,164.738639 650.191729,164.718146 650.253209,164.693926 C650.333319,164.662255 650.428334,164.647351 650.519622,164.634309 C650.368717,164.701379 650.214085,164.760996 650.063179,164.801982 C650.050138,164.760996 650.031508,164.718146 650.011014,164.675296 C650.024056,164.697653 650.040823,164.718146 650.059453,164.749817 M666.336767,160.664188 C666.351671,160.744298 666.360986,160.787148 666.364712,160.807641 C666.359123,160.792737 666.351671,160.783422 666.336767,160.787148 C666.342356,160.783422 666.353534,160.792737 666.321863,160.679092 C666.306958,160.606433 666.286465,160.539364 666.265972,160.472295 C666.299506,160.528186 666.323726,160.593392 666.336767,160.664188 M679.661174,171.551749 C679.260622,171.74923 679.031469,171.643037 678.625328,171.616955 C678.588068,171.616955 678.547081,171.616955 678.50982,171.620681 C678.420395,171.58342 678.329106,171.555475 678.234091,171.531255 C678.489327,171.324459 678.763193,171.216403 679.066867,171.074812 C679.08736,171.069223 679.107854,171.058045 679.128347,171.046867 C679.568023,171.046867 680.03937,170.873605 680.430607,170.739466 C680.695157,170.644452 680.957845,170.541985 681.220532,170.441381 C681.313684,170.407847 681.406836,170.374312 681.499987,170.340778 C681.516755,170.337051 681.531659,170.329599 681.539111,170.325873 C681.688153,170.450696 681.826018,170.549437 681.978787,170.629548 C681.634126,170.733877 681.278286,170.789768 680.928036,170.903413 C680.488361,171.046867 680.07663,171.346815 679.661174,171.551749 M677.792553,171.464186 C677.432988,171.44183 677.062244,171.492132 676.741803,171.579694 C676.413909,171.672846 676.240647,171.868464 675.869903,171.831203 C675.592312,171.797669 675.260692,171.70638 674.998004,171.551749 C675.415324,171.328185 676.000316,171.279746 676.443717,171.203362 C676.559225,171.181005 676.674733,171.154923 676.786515,171.125114 C677.138628,171.102758 677.490742,170.994702 677.798142,170.817714 C677.947185,170.771138 678.092501,170.711521 678.234091,170.629548 C678.304887,170.758097 678.416669,170.858701 678.565711,170.933222 C678.440888,170.98725 678.323517,171.043141 678.222913,171.125114 C678.073871,171.2518 677.936006,171.365445 677.792553,171.464186 M674.347806,171.520077 C674.304956,171.568516 674.195037,171.613229 674.070214,171.646763 C673.934213,171.557338 673.779581,171.548023 673.572785,171.605777 C673.33059,171.672846 673.239302,171.87219 672.954258,171.764134 C672.689707,171.661667 672.454965,171.492132 672.205319,171.357993 C671.938905,171.216403 671.685533,171.106484 671.406078,171.035689 L671.407941,171.035689 C672.026468,170.80281 672.352498,170.301654 672.536939,169.705484 C672.542528,169.701757 672.546254,169.698031 672.546254,169.694305 C672.836887,169.386905 673.265384,169.528495 673.593278,169.299342 C673.719964,169.21178 673.833609,169.109313 673.945391,169.010572 C674.019912,169.235999 674.17827,169.416713 674.427916,169.515454 C674.634713,169.603017 674.854551,169.634688 675.079978,169.638414 C675.119101,169.949541 675.327761,170.156337 675.599764,170.322147 C675.597901,170.456286 675.635161,170.581109 675.694778,170.696617 C675.651929,170.726425 675.610942,170.754371 675.575544,170.774864 C675.346391,170.92577 675.033402,170.948126 674.813564,171.106484 C674.636576,171.236896 674.491259,171.354267 674.347806,171.520077 M671.132212,170.223407 C671.098678,169.882472 670.973854,169.550852 670.834127,169.228547 C670.785688,169.116765 670.750291,169.010572 670.727934,168.908106 C670.722345,168.759063 670.71303,168.611884 670.709304,168.466567 C670.703715,168.328703 670.716756,168.203879 670.740975,168.088371 C670.742838,168.07533 670.746564,168.0567 670.750291,168.039933 C670.75588,168.023165 670.759606,168.004535 670.765195,167.982179 C670.768921,167.971 670.77451,167.956096 670.778236,167.941192 C670.822949,167.794012 670.882566,167.648696 670.951498,167.486612 C670.998074,167.372967 671.003663,167.290994 671.016704,167.205294 C671.04465,167.121458 671.068869,167.033895 671.093088,166.942607 C671.130349,166.93888 671.165747,166.935154 671.203007,166.931428 C671.243994,166.923976 671.288707,166.92025 671.329694,166.912798 C671.365091,166.907209 671.398626,166.899757 671.434023,166.888579 C671.482462,166.882989 671.527175,166.871811 671.573751,166.860633 C671.57934,166.856907 671.588655,166.856907 671.596107,166.853181 C671.566299,166.903483 671.540216,166.953785 671.514134,167.009676 C671.368817,167.348748 671.545805,167.648696 671.875562,167.745573 C671.983618,167.779108 672.093537,167.78656 672.207182,167.782834 C672.13825,168.300757 672.087948,168.820543 671.931453,169.321699 C671.899781,169.427892 671.858795,169.535948 671.812219,169.649593 C671.754465,169.735292 671.704163,169.822855 671.666902,169.910417 C671.562573,170.05946 671.428434,170.167516 671.240268,170.206639 C671.203007,170.214091 671.16761,170.217817 671.132212,170.223407 M670.742838,170.301654 C670.480151,170.363134 670.230505,170.44697 670.005078,170.644452 C669.664143,170.9444 669.528141,171.305828 669.092192,171.512625 C668.721448,171.693339 668.287362,171.875916 668.030263,172.218714 C668.020948,172.233618 668.011633,172.250386 668.000455,172.263427 C667.99114,172.24666 667.979961,172.229892 667.965057,172.214988 C667.957605,172.207536 667.953879,172.198221 667.946427,172.190769 C667.858864,171.901999 667.707959,171.616955 667.59804,171.391528 C667.594314,171.384076 667.586862,171.38035 667.583136,171.372897 C667.601766,170.845659 667.639027,170.316558 667.324174,169.863841 C667.318585,169.856389 667.312996,169.847074 667.307407,169.835896 C667.326037,169.800498 667.340941,169.761374 667.368887,169.724114 C667.523518,169.440933 667.650205,169.1503 667.797384,168.865256 C667.871906,168.729255 667.959468,168.61561 668.063798,168.522458 C668.168128,168.526184 668.270594,168.518732 668.386102,168.481471 C668.60594,168.403224 668.805285,168.256044 668.952464,168.071604 C669.190932,168.067878 669.448031,167.937466 669.561676,167.723217 C669.656691,167.546229 669.686499,167.350611 669.660417,167.179212 C669.964091,167.145677 670.221189,166.972415 670.429849,166.730221 C670.468973,166.773071 670.517411,166.810331 670.580755,166.843866 C670.659002,166.884853 670.739112,166.910935 670.821086,166.927702 C670.826675,166.931428 670.834127,166.927702 670.839716,166.931428 C670.554672,167.449351 670.346013,168.03248 670.385136,168.596979 C670.379547,168.662185 670.375821,168.718076 670.377684,168.781419 C670.386999,169.116765 670.567713,169.476331 670.686947,169.780005 C670.759606,169.960719 670.754017,170.133981 670.742838,170.301654 M665.200317,170.929496 C664.973027,170.955578 664.751326,170.990976 664.525899,171.026373 C664.110443,171.087854 663.773234,170.966756 663.396902,170.810262 C662.806321,170.573657 662.249274,170.419025 661.612117,170.400395 C661.211565,170.389216 660.811013,170.404121 660.412324,170.389216 C660.239062,170.076227 660.160815,169.8508 660.35457,169.468878 C660.464489,169.25463 660.540873,169.062737 660.49616,168.822406 C660.488708,168.777693 660.475667,168.729255 660.464489,168.67709 C660.50175,168.647281 660.544599,168.617473 660.578134,168.580212 C660.751396,168.371552 660.883671,168.162893 660.963782,167.956096 C661.30658,167.930014 661.647514,167.849903 661.973545,167.719491 C662.11141,168.026891 662.264178,168.323114 662.504509,168.557856 C662.918103,168.96586 663.599972,168.909969 664.08995,169.172656 C664.429022,169.349644 664.715929,169.524769 664.997247,169.791183 C665.217084,170.001706 665.399662,170.186146 665.684706,170.292339 C665.708925,170.301654 665.733144,170.301654 665.757364,170.299791 C665.999558,170.545711 666.238026,170.793494 666.441097,171.069223 C666.036819,170.955578 665.556156,170.895961 665.200317,170.929496 M659.948429,170.363134 C659.913031,170.355682 659.879497,170.355682 659.844099,170.351956 C659.674563,170.329599 659.516205,170.296065 659.367163,170.249489 C659.350396,170.204776 659.333628,170.156337 659.316861,170.111625 C659.333628,170.104172 659.344806,170.092994 659.359711,170.087405 C659.389519,170.068775 659.421191,170.052008 659.449136,170.029651 C659.527384,169.977486 659.603768,169.91228 659.668974,169.843348 C659.967059,169.532222 660.095609,169.213643 660.095609,168.909969 C660.12728,168.902517 660.155226,168.88016 660.186897,168.865256 C660.190623,168.883886 660.192486,168.908106 660.196212,168.928599 C660.272597,169.267671 659.879497,169.582523 659.840373,169.904828 C659.818017,170.05946 659.872045,170.214091 659.948429,170.363134 M672.77727,168.356648 C672.825709,168.332429 672.870421,168.304483 672.91886,168.26536 C672.924449,168.263496 672.930038,168.256044 672.935627,168.248592 C672.974751,168.324977 673.021327,168.403224 673.099574,168.481471 C673.237439,168.617473 673.427468,168.662185 673.615634,168.669638 C673.325001,168.794461 673.038094,168.805639 672.725105,168.913695 C672.721379,168.913695 672.713927,168.917421 672.708338,168.921147 C672.736283,168.734844 672.760502,168.544814 672.77727,168.356648 M672.902093,167.712039 C672.866695,167.834999 672.853654,167.959822 672.877873,168.082782 C672.849928,168.103276 672.825709,168.123769 672.7959,168.142399 C672.808941,167.997083 672.823846,167.859218 672.836887,167.719491 C672.85738,167.719491 672.879737,167.715765 672.902093,167.712039 M667.122967,168.159167 C667.273872,168.22251 667.419189,168.304483 667.566368,168.379004 C667.43223,168.541088 667.312996,168.718076 667.203077,168.909969 C667.232885,168.658459 667.24779,168.40695 667.122967,168.159167 M668.278047,166.875537 C668.272458,166.923976 668.268731,166.972415 668.268731,167.02458 C668.251964,167.04321 668.231471,167.069293 668.216567,167.089786 C668.136456,167.046936 668.054483,167.009676 667.970646,166.968689 C668.074976,166.93888 668.179306,166.910935 668.278047,166.875537 M658.221398,168.975175 C658.254933,168.950955 658.29033,168.921147 658.325728,168.898791 C658.383482,168.932325 658.435647,168.971449 658.487812,169.014299 C658.398386,169.014299 658.30896,168.999394 658.221398,168.975175 M669.241234,166.683645 C669.185343,166.666878 669.125726,166.651973 669.058657,166.65011 C669.045616,166.646384 669.032575,166.65011 669.01767,166.65011 C669.095918,166.627754 669.176028,166.616576 669.252413,166.599809 C669.252413,166.620302 669.254276,166.638932 669.252413,166.6557 C669.248686,166.666878 669.246823,166.67433 669.241234,166.683645 M677.054792,169.897376 C676.969093,169.910417 676.888982,169.91228 676.805146,169.904828 C676.782789,169.89365 676.764159,169.886198 676.747392,169.886198 C676.749255,169.811676 676.73435,169.748333 676.71572,169.686853 C676.725035,169.653319 676.736213,169.610469 676.749255,169.571345 C676.868489,169.634688 676.997038,169.72784 677.114409,169.800498 C677.103231,169.830307 677.09019,169.856389 677.079011,169.889924 C677.073422,169.89365 677.062244,169.89365 677.054792,169.897376 M663.277668,167.985905 C663.234818,168.071604 663.13794,168.107002 663.087638,168.188975 C662.767197,168.060426 662.573442,167.803327 662.407632,167.520147 C662.718758,167.354337 662.959089,167.164307 663.186379,166.884853 C663.210599,166.884853 663.236681,166.879263 663.262764,166.875537 C663.294435,166.871811 663.329833,166.864359 663.36523,166.864359 C663.314928,166.994771 663.294435,167.132636 663.30375,167.266774 C663.234818,167.287268 663.167749,167.354337 663.186379,167.423269 C663.229229,167.590942 663.361504,167.814506 663.277668,167.985905 M664.635818,168.339881 C664.637681,168.466567 664.635818,168.662185 664.658175,168.848489 C664.64886,168.844763 664.637681,168.829858 664.628366,168.822406 C664.29302,168.522458 663.970716,168.438622 663.599972,168.339881 C663.59252,168.315661 663.583205,168.285853 663.57389,168.25977 C663.665178,168.107002 663.676357,167.971 663.646548,167.827547 C663.909236,167.971 664.266938,167.902068 664.546393,167.834999 C664.576201,167.827547 664.607873,167.816369 664.635818,167.81078 C664.637681,167.985905 664.633955,168.166619 664.635818,168.339881 M666.243615,168.218784 C666.394521,168.608157 666.379617,168.829858 666.288328,169.213643 C666.223122,169.491235 666.185861,169.822855 666.301369,170.087405 C666.336767,170.167516 666.379617,170.245763 666.426192,170.320284 C666.422466,170.333325 666.420603,170.351956 666.416877,170.36686 C666.027504,170.001706 665.593417,169.677538 665.259934,169.263945 L665.258071,169.263945 C665.041959,168.829858 664.920862,168.215058 664.898506,167.734395 C665.135111,167.669189 665.369853,167.594668 665.608321,167.508968 C665.617636,167.523873 665.623225,167.535051 665.630678,167.546229 C665.77972,167.760478 665.960434,167.881575 666.167231,167.95237 C666.193313,168.039933 666.208218,168.134947 666.243615,168.218784 M682.668108,163.27057 C682.723999,163.281748 682.781753,163.300378 682.839507,163.309693 C682.919618,163.330187 683.003454,163.356269 683.085428,163.382352 C683.113373,163.389804 683.139456,163.400982 683.167401,163.415886 C683.133867,163.475503 683.107784,163.533257 683.087291,163.589148 C682.960605,163.490408 682.813425,163.408434 682.662519,163.341365 C682.666245,163.317146 682.666245,163.292926 682.668108,163.27057 M650.452553,168.207606 C650.618363,168.26536 650.754364,168.311935 650.929489,168.323114 C651.093436,168.328703 651.268561,168.263496 651.425056,168.272812 C651.646757,168.285853 651.846101,168.347333 652.052898,168.332429 C652.075254,168.501965 652.146049,168.665911 652.282051,168.809365 C652.45345,168.988216 652.65652,169.098135 652.872632,169.176382 C652.781343,169.424166 652.798111,169.675675 653.027264,169.886198 C653.321623,170.156337 653.75012,170.197324 654.176755,170.122803 C654.336975,170.525218 654.819501,170.584835 655.296437,170.502861 C655.615016,170.44697 655.924279,170.344504 656.229816,170.210365 C656.255899,170.223407 656.285707,170.238311 656.315516,170.249489 C656.656451,170.379901 657.006701,170.292339 657.323416,170.143296 C657.420294,170.193598 657.520898,170.230859 657.625228,170.264393 C657.714653,170.292339 657.807805,170.316558 657.902819,170.329599 C657.938217,170.337051 657.973615,170.340778 658.010875,170.34823 C658.074218,170.355682 658.135698,170.363134 658.200905,170.36686 L658.325728,170.36686 L658.398386,170.36686 C658.484086,170.44697 658.569785,170.528944 658.662937,170.596013 C659.184586,170.972346 659.700646,171.099032 660.332214,171.166101 C660.915343,171.227581 661.504061,171.151197 662.076012,171.290924 C662.728073,171.44183 663.273942,171.849834 663.950222,171.911314 C664.21291,171.931807 664.471872,171.929944 664.732696,171.926218 C665.023329,171.922492 665.327003,172.05663 665.608321,172.1237 C665.9269,172.201947 666.055449,172.239208 666.27715,172.483265 C666.385206,172.608088 666.5417,172.67702 666.703784,172.712418 C666.713099,172.893132 666.726141,173.07012 666.737319,173.248971 C666.75036,173.502343 666.748497,173.69051 666.83606,173.863772 C666.815566,174.092925 666.795073,174.323941 666.795073,174.549368 C666.79321,175.821819 666.791347,186.597598 666.888224,187.868186 C666.983239,189.110829 666.677702,201.665804 666.660935,202.912172 C666.647893,204.056074 666.677702,209.332182 666.569646,210.464905 C666.465316,211.580862 666.685154,212.698681 666.79321,213.799733 C666.834197,214.185381 666.839786,214.572892 666.845375,214.958539 C666.843512,214.962265 666.843512,214.965992 666.843512,214.965992 C666.845375,215.124349 666.850964,215.278981 666.858416,215.439202 C666.871457,215.770821 667.000006,216.510445 666.664661,216.739598 C666.318137,216.976203 665.848652,217.220261 665.561745,217.570511 C666.075942,217.501579 666.58455,217.436372 667.096884,217.373029 C667.240338,217.26311 667.37075,217.147602 667.471354,217.002286 C667.506751,217.110342 667.55519,217.212809 667.612944,217.30596 C667.82533,217.279878 668.035852,217.261247 668.248238,217.235165 C668.335801,217.114068 668.374924,216.970614 668.309718,216.85138 C668.164402,216.592419 668.21284,216.130387 668.222156,215.845343 C668.238923,215.375859 668.253827,214.91569 668.305992,214.449932 C668.408459,213.514689 668.115963,212.639064 668.086154,211.707548 C668.054483,210.764854 668.095469,209.822159 668.054483,208.877602 C668.015359,207.869701 667.70237,202.748225 667.804836,201.734736 C667.899851,200.853521 668.250101,188.589179 668.46435,187.724732 C668.561228,187.339085 668.66742,177.44452 668.639475,177.049557 C668.609666,176.649005 668.382376,176.254042 668.319033,175.851627 C668.183032,175.007674 668.263142,174.109692 668.302266,173.260149 C668.322759,172.770172 668.693503,172.408743 669.120137,172.112521 C669.194659,172.086439 669.263591,172.067809 669.332523,172.041726 C669.597074,171.950437 669.859761,171.846108 670.081462,171.682161 C670.280806,171.721285 670.431712,171.665394 670.632919,171.551749 C671.057691,171.311417 671.514134,171.587146 671.897918,171.827477 C672.238853,172.038 672.581651,172.278331 672.991518,172.315592 C673.075355,172.321181 673.142424,172.30814 673.209493,172.285783 C673.548565,172.32677 673.960295,172.267153 674.269559,172.201947 C674.562055,172.14233 674.796797,172.14233 675.085567,172.218714 C675.249514,172.263427 675.372474,172.261564 675.527105,172.201947 C675.534558,172.201947 675.540147,172.198221 675.547599,172.194495 C675.715272,172.257838 675.890397,172.300688 676.074837,172.315592 C676.453033,172.352852 676.797694,172.147919 677.201972,172.201947 C677.671456,172.257838 678.150255,172.293235 678.59552,172.108795 C678.63837,172.090165 678.67563,172.060356 678.709165,172.024959 C678.899194,172.071535 679.083634,172.175864 679.284842,172.101343 C679.776682,171.91504 680.270386,171.628133 680.708198,171.343089 C681.13297,171.072949 681.647167,171.058045 682.131555,170.936948 C682.116651,170.959304 682.096158,170.976072 682.083116,171.000291 C681.982513,171.203362 681.898676,171.421336 682.003006,171.643037 C682.086842,171.831203 682.319721,171.95789 682.528381,171.911314 C682.984824,171.812573 683.394691,171.689613 683.808284,171.473501 C684.054205,171.343089 684.216288,171.113936 684.242371,170.845659 C684.650375,170.836344 685.058379,170.82144 685.470109,170.817714 C685.540904,170.817714 685.606111,170.82144 685.671317,170.825166 C685.818496,170.912728 685.991758,170.922044 686.161294,170.884783 C686.384858,170.910865 686.612148,170.912728 686.867383,170.836344 C687.271661,170.707795 687.661035,170.024062 687.519445,169.619784 C687.668487,169.606743 687.811941,169.571345 687.953531,169.511728 C688.393207,169.327288 688.730416,168.936051 688.918582,168.501965 C689.168228,167.926288 689.160776,167.192253 688.706196,166.793564 C688.635401,166.419094 688.311233,166.355751 687.992655,166.454492 C687.901366,166.381834 687.811941,166.303586 687.724378,166.225339 C687.605144,166.126598 687.497088,166.044625 687.375991,165.985008 C687.368539,165.951473 687.357361,165.917939 687.346183,165.889993 C687.294018,165.688786 687.223223,165.530428 687.107715,165.364618 C687.103989,165.357166 687.098399,165.345988 687.09281,165.338536 C687.465417,164.89886 687.519445,164.328772 687.152427,163.84811 C687.107715,163.790356 687.053687,163.736328 686.997796,163.695341 C686.979165,163.680437 686.962398,163.674848 686.945631,163.659944 C686.900918,163.633861 686.859931,163.611505 686.815219,163.589148 C686.789136,163.57797 686.763054,163.566792 686.736971,163.55934 C686.697847,163.546299 686.658724,163.536983 686.614011,163.529531 C686.580476,163.518353 686.545079,163.510901 686.507818,163.507175 C686.49664,163.507175 686.487325,163.503449 686.476147,163.503449 C686.114718,163.469914 685.716029,163.566792 685.442164,163.734465 C685.099366,163.941261 684.831089,164.21699 684.564675,164.502034 C684.53673,164.351129 684.445441,164.213264 684.288947,164.103345 L684.285221,164.103345 C684.240508,163.967344 684.193932,163.829479 684.160397,163.691615 C684.180891,163.652491 684.203247,163.617094 684.223741,163.57797 L684.225604,163.57797 C684.227467,163.574244 684.22933,163.570511 684.233056,163.566792 C684.244234,163.550025 684.253549,163.529531 684.261001,163.510901 C684.275905,163.479229 684.29081,163.451284 684.305714,163.419612 C684.313166,163.404708 684.316892,163.389804 684.324344,163.378626 C684.335522,163.341365 684.348564,163.309693 684.359742,163.278022 C684.363468,163.263118 684.369057,163.24635 684.37092,163.233309 C684.380235,163.201638 684.383961,163.168103 684.38955,163.138294 C684.391413,163.119664 684.393276,163.10476 684.395139,163.08613 C684.397003,163.056321 684.395139,163.028376 684.393276,162.996704 C684.391413,162.978074 684.391413,162.961306 684.38955,162.942676 C684.383961,162.914731 684.374646,162.883059 684.365331,162.853251 C684.359742,162.838346 684.356016,162.819716 684.348564,162.801086 C684.335522,162.77314 684.316892,162.741469 684.300125,162.709797 C684.288947,162.694893 684.281495,162.678125 684.268453,162.661358 C684.238645,162.616645 684.197658,162.571933 684.151082,162.52722 C683.828778,162.225409 683.273594,162.106175 682.854412,162.022338 C682.705369,161.99253 682.556327,161.98694 682.418462,161.99253 C682.003006,162.027927 681.64903,162.240313 681.457137,162.665084 C681.42174,162.737743 681.401246,162.819716 681.390068,162.897963 C681.324862,162.871881 681.259656,162.847661 681.198176,162.819716 C681.226121,162.737743 681.250341,162.661358 681.267108,162.575659 C681.343492,162.251491 681.287602,161.899378 681.07149,161.632964 C680.719377,161.204467 680.125069,161.388907 679.799039,161.033068 C679.655585,160.870984 679.586653,160.593392 679.482323,160.4015 C679.333281,160.123908 679.133936,159.92829 678.867522,159.766206 C678.807905,159.732671 678.744562,159.706589 678.681219,159.687959 C678.664452,159.684232 678.643959,159.67678 678.621602,159.674917 C678.576889,159.667465 678.528451,159.661876 678.481875,159.65815 L678.427847,159.65815 C678.364504,159.65815 678.303024,159.663739 678.241544,159.67678 L678.243407,159.67678 C677.906198,159.747576 677.58203,159.969276 677.360329,160.198429 C677.360329,160.198429 677.358466,160.198429 677.358466,160.194703 C677.334247,160.21706 677.31189,160.246868 677.287671,160.271088 C677.187067,160.386596 677.093916,160.507693 677.006353,160.634379 C676.926243,160.748024 676.849858,160.863532 676.7772,160.984629 C676.760433,161.008848 676.747392,161.029342 676.732487,161.055424 C676.689638,161.020027 676.646788,160.984629 676.602075,160.956684 C676.568541,160.938053 676.535006,160.926875 676.499608,160.910108 C676.507061,160.910108 676.51265,160.911971 676.518239,160.911971 C676.467937,160.885888 676.413909,160.863532 676.359881,160.843039 C676.279771,160.807641 676.205249,160.764791 676.125139,160.736846 C675.987274,160.682818 675.843821,160.641831 675.705957,160.595255 C675.407871,160.511419 675.109786,160.412678 674.79866,160.416404 C674.498712,160.42013 674.262107,160.271088 673.952843,160.32139 C673.749773,160.356787 673.468455,160.559858 673.298919,160.394048 C673.172233,160.271088 673.118205,160.030757 673.052999,159.872399 C672.963573,159.650698 672.836887,159.469984 672.712064,159.272502 C672.622638,159.130912 672.536939,159.063843 672.533212,158.890581 C672.529486,158.767621 672.516445,158.633482 672.462417,158.519837 C672.181099,157.919941 671.663176,158.186354 671.176925,158.093203 C670.910511,158.042901 670.659002,157.828652 670.414945,157.71687 C670.137353,157.588321 669.856035,157.560376 669.55795,157.573417 C668.961779,157.595773 668.268731,158.190081 667.946427,158.655839 C667.860727,158.771347 667.789932,158.901759 667.735904,159.028445 C667.70237,159.026582 667.665109,159.022856 667.629711,159.015404 C667.158364,158.93343 666.724278,159.0005 666.401973,159.384284 C666.217533,159.607848 666.11134,159.80533 666.124381,160.097826 C666.126244,160.120182 666.12997,160.140675 666.133696,160.161169 C666.057312,160.034483 665.956708,159.92829 665.807666,159.853768 C665.61391,159.76248 665.42947,159.691685 665.218947,159.643246 C664.958123,159.583629 664.678668,159.661876 664.427159,159.561272 C664.486776,159.587355 664.3545,159.371243 664.320966,159.292996 C664.238992,159.095514 664.114169,158.9148 663.961401,158.767621 C663.605561,158.411781 663.070871,158.365206 662.599524,158.381973 C662.407632,158.389425 662.208287,158.482577 662.020121,158.475124 C661.807735,158.467672 661.593487,158.436001 661.377375,158.424823 C660.911617,158.400603 660.347118,158.508659 660.017361,158.873813 C659.771441,159.147679 659.674563,159.399189 659.272148,159.268776 C658.784034,159.110419 658.374167,159.056391 657.867422,159.188666 C657.479911,159.28927 657.006701,159.63952 656.706753,159.907796 C656.518586,160.073606 656.406804,160.299033 656.376996,160.531912 C656.308064,160.595255 656.246584,160.664188 656.194419,160.744298 C656.12176,160.870984 656.153432,161.115041 656.35464,161.068466 C656.382585,161.061013 656.406804,161.055424 656.43475,161.051698 C656.43475,161.051698 656.438476,161.055424 656.438476,161.05915 C656.363955,161.100137 656.281981,161.142987 656.200008,161.18211 C655.853484,161.061013 655.505097,160.96041 655.134353,160.930601 C655.048654,160.926875 654.962954,160.938053 654.882844,160.956684 C654.582896,160.846765 654.251276,160.843039 653.914067,161.023753 C653.573132,161.20633 653.343979,161.53795 653.230334,161.903104 C653.206115,161.979488 653.191211,162.057736 653.176306,162.135983 C653.088744,162.154613 653.003044,162.191874 652.915482,162.244039 C652.580136,162.456425 652.369613,162.827168 652.252242,163.194185 C652.177721,163.430791 652.24479,163.466188 652.021226,163.566792 C651.760402,163.687889 651.490262,163.699067 651.207081,163.719561 C650.72083,163.754958 650.156331,163.782904 649.711066,164.006468 C649.424159,164.149921 649.217363,164.366033 649.107444,164.673433 C649.073909,164.772174 649.075772,164.85601 649.094402,164.934258 C648.8224,165.096341 648.617466,165.431687 648.77955,165.657114 C648.77955,165.66084 648.77955,165.66084 648.77955,165.66084 C648.77955,165.664566 648.785139,165.668292 648.788865,165.672018 C648.826126,165.714868 648.867113,165.752129 648.934182,165.78939 C648.937908,165.78939 648.94536,165.793116 648.950949,165.794979 C648.934182,165.830376 648.928593,165.865774 648.92114,165.897445 L648.913688,165.897445 L648.913688,165.921665 C648.909962,165.944021 648.908099,165.960788 648.909962,165.981282 C648.909962,166.01109 648.913688,166.033447 648.924867,166.059529 C648.928593,166.07816 648.934182,166.094927 648.941634,166.107968 C648.956538,166.137777 648.980757,166.15827 649.008703,166.180626 C649.019881,166.189941 649.031059,166.204846 649.04969,166.210435 C649.098129,166.243969 649.161472,166.2626 649.245308,166.28123 C649.396214,166.307313 649.576928,166.331532 649.746464,166.322217 C649.571339,166.488027 649.453968,166.698549 649.422296,166.9631 C649.39994,167.132636 649.467009,167.345022 649.640271,167.415817 C649.832163,167.490338 650.016603,167.538777 650.212222,167.562996 C650.139564,167.827547 650.174961,168.114454 650.452553,168.207606" id="8"></path>
        </g>
    </g>
</svg>
