<?xml version="1.0" encoding="UTF-8"?>
<svg width="38px" height="48px" viewBox="0 0 38 48" version="1.1" xmlns="http://www.w3.org/2000/svg" xmlns:xlink="http://www.w3.org/1999/xlink">
    <title>动物-4</title>
    <g id="V1.4" stroke="none" stroke-width="1" fill="none" fill-rule="evenodd">
        <g id="形状汇集备份" transform="translate(-263.000000, -635.000000)" fill="#3D4242" fill-rule="nonzero">
            <g id="dolphin-svgrepo-com" transform="translate(263.500000, 635.000000)">
                <path d="M36.6275519,14.8580136 C35.7268744,13.9665328 34.7261216,13.4712656 32.6245408,12.8274184 C32.6245408,12.8274184 32.6245408,0 22.4168624,0 C18.8141523,0 15.4616305,0.841954103 12.4593722,2.32775546 C11.3085065,1.78296163 6.70504365,-0.0495267119 1.35101626,1.2381678 C0.400301114,1.48580136 0.250188196,2.77349587 1.1508657,3.16970956 C2.8021078,3.96213695 4.55342517,5.54699173 4.55342517,8.76622801 C1.70127973,12.4807314 0,17.0867156 0,22.1384402 C0,34.3715381 10.0075278,44.2273537 22.3668247,44.2273537 C22.3668247,44.2273537 25.9194971,45.3169414 27.7208521,47.6446969 C28.2712661,48.3380708 29.3720942,47.9418571 29.3220566,47.099903 C29.2219813,45.5150482 28.5214543,43.5339798 26.5199488,41.5033846 C28.571492,39.4727894 29.2219813,37.4917209 29.3220566,35.9068661 C29.3720942,35.064912 28.2712661,34.6686983 27.7208521,35.3620723 C25.9194971,37.7393545 22.4168624,38.9279956 22.4168624,38.9279956 C16.2121951,38.9279956 11.2584688,33.9753244 11.4085817,27.7844854 C11.5586947,21.7917532 16.7125715,17.1362423 22.7170882,17.1362423 L35.4766862,17.1362423 C36.7776648,17.185769 37.4781918,15.7494944 36.6275519,14.8580136 Z M8.95673742,23.9709286 C8.95673742,23.9709286 4.15312405,24.1195087 4.15312405,19.3649444 L4.15312405,18.5229903 C4.15312405,16.8886088 5.50414031,15.5513875 7.15538241,15.5513875 L8.95673742,15.5513875 L8.95673742,23.9709286 Z M19.6147546,27.8835388 L19.6147546,19.9592649 C17.613249,20.7021656 15.9119693,22.0889135 14.8611788,23.8718751 C15.26148,28.0321189 19.6147546,27.8835388 19.6147546,27.8835388 Z" id="形状"></path>
            </g>
        </g>
    </g>
</svg>