<?xml version="1.0" encoding="UTF-8"?>
<svg width="48px" height="44px" viewBox="0 0 48 44" version="1.1" xmlns="http://www.w3.org/2000/svg" xmlns:xlink="http://www.w3.org/1999/xlink">
    <title>动物-27</title>
    <g id="V1.4" stroke="none" stroke-width="1" fill="none" fill-rule="evenodd">
        <g id="形状汇集备份" transform="translate(-117.000000, -987.000000)" fill="#3D4242" fill-rule="nonzero">
            <g id="animal-sea-tortoise-svgrepo-com" transform="translate(117.000000, 987.500000)">
                <polygon id="路径" points="21.0070102 20.9376328 18.0637179 26.0122168 21.044446 31.1514452 26.8935948 31.1514452 29.8093833 26.1240136 26.8011513 20.9376328"></polygon>
                <path d="M23.9694024,10.8565316 C16.4784274,10.8565316 10.385564,17.6670074 10.385564,26.0365535 C10.385564,34.4060997 16.4784274,41.2127729 23.9694024,41.2127729 C31.4603773,41.2127729 37.5494207,34.4060997 37.5494207,26.0365535 C37.5494207,17.6670074 31.4565574,10.8565316 23.9694024,10.8565316 Z M36.4320774,26.4403908 L30.5454928,26.4403908 L27.5926506,31.5317063 L30.5638287,36.6545834 L33.1652331,36.6545834 C32.9234285,36.9181043 32.673602,37.1728793 32.4142256,37.4151056 L30.5454928,37.4151056 L29.2849004,39.5886778 C28.8872978,39.7854243 28.4792298,39.9604767 28.0625078,40.1130579 L29.847965,37.0329432 L26.8756409,31.9119673 L21.0627818,31.9119673 L18.0919857,37.0348445 L19.877443,40.1149592 C19.4607243,39.9623697 19.0526567,39.7873175 18.6550503,39.5905791 L17.3944579,37.4170069 L15.5238151,37.4170069 C15.2644387,37.1747806 15.0149942,36.9200056 14.7728077,36.6564847 L17.374212,36.6564847 L20.3453902,31.5336076 L17.3929299,26.4403908 L11.5063453,26.4403908 L10.8412873,27.5872582 C10.7985035,27.1256212 10.7767297,26.6575199 10.7729097,26.1840948 L10.8076715,26.1240136 L10.7694717,26.0589889 L10.7694717,26.044539 C10.7694717,25.5714942 10.7912456,25.1037731 10.8302094,24.6421362 L11.4139018,25.6486872 L17.3379222,25.6486872 L20.2793046,20.5741032 L17.2997225,15.4348749 L14.7728077,15.4348749 C15.0146122,15.171354 15.2644387,14.916579 15.5238151,14.6743527 L17.2810046,14.6743527 L18.4957573,12.580255 C18.8828992,12.3819291 19.2803553,12.2042234 19.6864441,12.0478895 L17.9705104,15.0063206 L20.9500925,20.145549 L26.8015333,20.145549 L29.7811154,15.0063206 L28.0132301,11.9581479 C28.4100787,12.1009843 28.7992201,12.2642087 29.179087,12.4471636 L30.4706213,14.6739725 L32.4134616,14.6739725 C32.672838,14.9161988 32.9222825,15.1709737 33.1644691,15.4344946 L30.4522854,15.4344946 L27.5372609,20.4619262 L30.5454928,25.648307 L36.339634,25.648307 L37.0818555,24.3683482 C37.1276953,24.8246615 37.1543078,25.2856647 37.1616931,25.7513577 L37.0379258,25.9646842 L37.165131,26.1837146 C37.1613111,26.6567593 37.1395372,27.125241 37.0967535,27.5868779 L36.4320774,26.4403908 Z" id="形状"></path>
                <ellipse id="椭圆形" cx="20.3419522" cy="4.34646204" rx="1" ry="1"></ellipse>
                <path d="M47.1948627,18.8153958 L43.1456871,11.4421336 C42.1784109,9.67798161 40.5466054,8.36870593 38.6093989,7.80245251 C36.6721924,7.23619908 34.5883445,7.45937396 32.8164692,8.42286072 L29.4930892,10.2329034 C29.1760311,10.0922068 28.855153,9.96672067 28.5342749,9.85644496 L28.5342749,6.34625502 C29.4368352,5.93101386 29.9509697,4.96808513 29.7917676,3.99108213 C29.6325654,3.01407914 28.8390205,2.2623031 27.850881,2.15235566 C27.8080973,2.08352841 27.7607296,2.01241959 27.7053399,1.93560685 C27.7015199,1.93180424 27.7015199,1.93180424 27.7015199,1.92800163 L27.6977,1.92800163 C27.5502459,1.71475837 27.3840609,1.51497048 27.2011029,1.33099175 C26.2508457,0.383853875 24.9289414,-0.097250363 23.5890772,0.0164026405 C22.2492129,0.130055644 21.0281391,0.826866127 20.2525647,1.92039641 C20.2487447,1.92419902 20.2487447,1.92419902 20.2487447,1.92800163 C20.246635,1.92800163 20.2449248,1.92970412 20.2449248,1.93180424 C20.1891531,2.00557489 20.1402574,2.0797258 20.0951817,2.15159514 C19.1058248,2.2595395 18.3101934,3.01096526 18.1499067,3.98878969 C17.9896201,4.96661411 18.5040198,5.93083435 19.4075858,6.34625502 L19.4075858,9.85264235 C19.0867077,9.96672067 18.7772896,10.0884042 18.4793314,10.217693 L15.1826912,8.42286072 C13.4108159,7.45937396 11.3269679,7.23619908 9.38976147,7.80245251 C7.452555,8.36870593 5.82074946,9.67798161 4.85347328,11.4421336 L0.805061619,18.8153958 C-0.934875803,21.9989855 0.238352578,25.9837673 3.42938584,27.7287153 C3.63427656,27.840657 3.8641603,27.8995012 4.09788182,27.8998328 C4.60759087,27.8967219 5.07613281,27.6206526 5.32409445,27.1773367 L12.391052,14.2978943 C12.7251523,13.7021596 13.3291446,13.3051101 14.0107222,13.2331633 C10.6835222,16.4615798 8.7926336,21.0741466 8.7926336,26.0365535 C8.78767725,28.3716838 9.22305181,30.6869949 10.0761459,32.8622398 L8.65511443,34.4593363 C7.62923536,35.6073005 7.10426205,37.1143634 7.19599021,38.6481055 C7.28771838,40.1818475 7.98861189,41.6162604 9.14407149,42.6349493 C9.40902651,42.8701828 9.75168098,43 10.1067057,43 C10.5268634,43 10.9270441,42.8214646 11.2068591,42.5094631 L14.2704807,39.0795083 C19.6881471,44.3229405 28.3193145,44.3043725 33.7141638,39.0376796 L36.8159851,42.5094631 C37.0724781,42.7983038 37.4340383,42.9734723 37.8206391,42.9961973 C37.8511989,42.9961973 37.8817587,43 37.9123185,43 C38.2673038,43 38.6098846,42.8699975 38.8749528,42.6349493 C40.0297783,41.6160722 40.7305313,40.1821279 40.8229527,38.6487753 C40.915374,37.1154227 40.3918874,35.608358 39.3677298,34.4593363 L37.8893987,32.8052006 C38.7267864,30.6462093 39.1529751,28.3508687 39.1461711,26.0365535 C39.1461711,21.0741466 37.2514625,16.4539745 33.9204425,13.2255581 C34.6287499,13.27715 35.2633851,13.6802122 35.6088724,14.2978943 L42.6758299,27.1773367 C42.8525868,27.5006113 43.1514067,27.7404956 43.5062345,27.8439626 C43.8610623,27.9474295 44.2426759,27.9059579 44.5667185,27.7287153 C47.7603982,25.9860875 48.9357732,21.999817 47.1948627,18.8153958 Z M27.5983806,2.89766736 L27.5983806,2.89766736 C28.402182,2.89766736 29.0537918,3.54631484 29.0537918,4.34646204 C29.0537918,5.14660925 28.402182,5.79525672 27.5983806,5.79525672 L27.5983806,5.79525672 C26.7945791,5.79525672 26.1429693,5.14660925 26.1429693,4.34646204 C26.1429693,3.54631484 26.7945791,2.89766736 27.5983806,2.89766736 L27.5983806,2.89766736 Z M18.8850117,4.34646204 C18.8842405,3.75936496 19.239022,3.22968518 19.7837586,3.0046575 C20.3284953,2.77962982 20.955778,2.90362433 21.3728147,3.31876501 C21.7898513,3.7339057 21.9144121,4.3583367 21.6883567,4.9005969 C21.4623013,5.44285709 20.9302025,5.79602568 20.3404242,5.79525798 C19.537059,5.79420929 18.8860651,5.14617499 18.8850117,4.34646204 L18.8850117,4.34646204 Z M38.3822744,26.0365535 C38.3898022,28.3271514 37.9553677,30.5978864 37.1024834,32.7253458 C37.095113,32.7383569 37.0899504,32.7524897 37.0872035,32.7671745 C36.5994106,33.9538543 35.9778684,35.0815767 35.2345146,36.1286824 C35.177215,36.2085372 35.1237353,36.2921946 35.0664357,36.3720494 C35.0435158,36.4024703 35.016776,36.4328912 34.9938561,36.4633121 C34.8525169,36.6534426 34.7111778,36.8397706 34.5621987,37.0184933 C34.5583787,37.0222959 34.5583787,37.0222959 34.5583787,37.0260985 C34.2107608,37.4443857 33.847863,37.8423923 33.4696853,38.2201182 C30.9898396,40.7806539 27.5730631,42.2309211 24.0001197,42.2395593 C20.4271763,42.2481206 17.0033946,40.8143179 14.5111392,38.2657496 C14.1238882,37.8856552 13.7566783,37.4858452 13.4109858,37.0679272 C12.3545907,35.7788608 11.4983119,34.339418 10.8707011,32.7975954 C9.99567114,30.6502752 9.5493309,28.3538068 9.55654094,26.0365535 C9.55654094,20.9828839 11.5964967,16.3132779 15.1528954,13.2179528 C16.1893492,12.3077058 17.3556662,11.5554811 18.6137946,10.9858203 C19.0362522,10.7947684 19.4685059,10.6259531 19.9087668,10.4800731 C19.9316866,10.4724679 19.9507865,10.4686653 19.9737064,10.4610601 C23.060087,9.46687156 26.4086155,9.65951681 29.35939,11.0010308 C30.6101303,11.5719406 31.7697885,12.3227401 32.8011893,13.2293607 C36.3499479,16.3246858 38.3822744,20.9942917 38.3822744,26.0365535 Z" id="形状"></path>
                <ellipse id="椭圆形" cx="27.6010545" cy="4.34646204" rx="1" ry="1"></ellipse>
            </g>
        </g>
    </g>
</svg>