<?xml version="1.0" encoding="UTF-8"?>
<svg width="50px" height="34px" viewBox="0 0 50 34" version="1.1" xmlns="http://www.w3.org/2000/svg" xmlns:xlink="http://www.w3.org/1999/xlink">
    <title>动物-13</title>
    <g id="V1.4" stroke="none" stroke-width="1" fill="none" fill-rule="evenodd">
        <g id="形状汇集备份" transform="translate(-186.000000, -782.000000)" fill="#3D4242">
            <g id="动物-13" transform="translate(186.000000, 782.500000)">
                <path d="M45.9382944,0.000380548356 C46.0159403,-0.00671817112 46.0634181,0.0870863362 46.0139621,0.148946606 C45.741954,0.491713346 45.5011031,0.829916624 45.3072355,1.11437245 C45.586662,1.25837505 45.8571865,1.42874432 46.1113905,1.63257898 C46.358176,1.83032902 46.5194027,2.11377075 46.7172268,2.35766246 C47.6470001,3.50562681 49.3171301,4.20586478 49.9847864,5.57439649 C50.1405729,5.89434592 49.0485839,6.64376787 49.0485839,6.64376787 C49.0485839,6.64376787 48.7676736,6.75836149 47.4837952,6.4161018 C47.2834983,6.41001718 47.0822123,6.37857999 46.8829045,6.34004409 C46.0599562,6.36083319 45.6588678,6.91808267 44.5545148,6.4703563 C44.3116857,6.37198833 44.1049595,6.24370432 43.9284015,6.10020878 C43.5901223,5.72296255 43.4625257,5.35027977 43.4625257,5.35027977 C43.4368086,5.67377856 43.6395783,6.0353062 43.8285003,6.29643767 C43.6732084,6.71830443 43.7632184,7.32270968 43.7632184,7.8409162 C43.7642075,9.05834659 43.6158394,10.275777 43.3260271,11.4561926 C43.1623276,12.1204299 42.7004084,12.6939051 42.5302796,13.3312687 C42.2394782,14.4244715 42.5095081,15.4471941 42.2028807,16.3943661 C42.9917044,16.9014175 43.8512501,17.271058 44.6469975,17.7588414 C45.8561974,18.5011646 45.4313701,20.1445182 45.2251385,21.2980601 C44.9620324,22.7720585 45.4338429,24.3733268 44.8210828,25.7874931 C44.400212,26.7579895 42.8789446,28.2188046 41.7434343,27.7259506 C40.9921972,27.3994095 41.6677665,25.5953207 42.249864,25.2642161 C42.6257298,25.2743571 43.1415561,25.2677655 43.2696472,25.2094545 C43.2958589,25.1977924 43.3195978,25.1830879 43.3413585,25.1663552 L43.3591626,25.1622988 C43.8868584,25.0137327 43.6440293,24.5685416 43.5742963,24.2247607 C43.3977383,23.3531394 44.1608448,22.3451212 44.1390842,21.4060621 C44.1014976,19.7916104 43.2904188,18.8256775 41.6682611,18.9270878 C39.8769638,19.0391462 37.9417495,18.2623434 36.4907097,17.222381 C36.2449133,17.0464342 35.9738943,16.8786002 35.6860602,16.7320623 L35.1316582,16.5819751 C35.1702339,16.5926232 35.7587606,16.7629925 36.3472873,17.4769208 C36.4031726,17.5448657 36.4738947,17.6138247 36.5564863,17.6837978 C36.6128661,17.7314606 36.6746862,17.7796305 36.7414518,17.8278004 C36.7444192,17.8303357 36.7478811,17.8323639 36.7508484,17.8348991 C36.7696417,17.8480825 36.788435,17.8612658 36.8077229,17.8749562 C36.8136576,17.8790126 36.8200869,17.883069 36.8260216,17.8871254 L36.8769613,17.9216049 C36.8843797,17.9266754 36.8922927,17.9317459 36.8997111,17.9368164 L36.9491671,17.9687607 C36.9575746,17.9743383 36.9659822,17.9794088 36.9743897,17.9849863 L37.0243403,18.0164235 C37.0332423,18.0220011 37.0421444,18.0270716 37.0510465,18.0326492 C37.0678616,18.0432972 37.0851712,18.0539453 37.1024808,18.0640863 L37.1158339,18.0721992 L37.129187,18.080312 C37.1479803,18.0914671 37.1672682,18.1026223 37.1860615,18.1137774 C37.1939744,18.1183408 37.2013928,18.1229043 37.2093058,18.1269607 C37.8581689,18.5026858 38.6974376,18.8647205 39.3418496,19.1217955 C38.8621262,20.0355022 38.3631149,20.9431241 38.052531,21.9126064 C37.7182083,22.9581464 37.3398697,24.0675748 37.276566,25.1562142 C37.2221644,26.091724 37.1855669,27.0525864 37.2083167,27.9926596 C37.2152405,28.2948623 37.1924908,28.5996001 37.2340338,28.9002816 C37.2750823,29.1963996 37.4224613,29.4549958 37.6242419,29.6659292 C38.003075,30.0619364 38.068357,30.4746762 38.1514431,31.0116436 C38.274094,31.8087284 37.3685542,31.7184733 36.8126685,31.7417976 C36.5683557,31.7519386 36.2874455,31.7443329 36.0639042,31.6429226 C35.7473857,31.499427 35.7463966,31.2935642 35.7577714,30.9827417 C35.7859614,30.2267281 35.9511445,30.1268389 35.7988199,29.3819804 C35.2543091,29.0508759 35.3853676,28.5519373 35.6291858,28.0033077 C35.775081,26.5607465 36.4279006,24.4133839 36.2552991,22.9850201 C36.1885334,22.4333482 35.8329446,21.8740705 35.8705312,21.3132717 C35.9185035,20.596808 36.4160311,19.9275002 36.4897206,19.1750359 C36.5114813,18.9504122 36.5273072,18.7268025 36.537693,18.504207 C36.3121735,18.5954762 36.0836867,18.6816749 35.8507488,18.7622961 C34.6469891,19.1795994 33.5070277,19.8053008 32.2454045,19.9761771 C30.858163,20.3407471 29.4288838,20.4497631 27.973393,20.0811368 C26.439267,19.6922284 25.1914915,18.7202108 23.7815002,18.0377197 C23.5164159,17.9094357 23.2483642,17.7877433 22.9773452,17.6711215 C23.1276915,16.8512194 23.2745759,15.8513141 23.3804118,14.6845888 C23.0886213,15.8158205 22.7533094,16.8623746 22.5426267,17.4895971 C22.5352083,17.4870619 22.5277899,17.4835125 22.5203715,17.4809772 C22.4644862,17.6848119 22.4021716,17.8886466 22.3349114,18.0909601 L22.1925732,18.4915839 C21.896287,19.2802957 21.5129523,20.039631 21.0500439,20.7185004 C20.7087973,21.2194672 19.8200725,21.6438692 19.380903,22.0505244 C19.3180939,22.1575122 19.2547901,22.2645001 19.1895082,22.3684456 C18.7805069,23.0174714 18.3309516,23.5113394 18.2503383,24.3479742 C18.1904965,24.9736756 18.2988052,25.6303072 18.293365,26.260065 C18.2874303,26.9745004 18.1830781,27.7168237 18.2513274,28.4292309 C18.3482612,29.4418125 18.7251161,29.6897606 19.2913876,30.2921377 C19.8294692,30.8640917 21.1553852,32.6266023 19.7018726,32.9663267 C19.2666596,33.067737 18.3843641,32.9364107 18.0208623,32.6220388 C17.7196751,32.3614144 18.1242254,30.966516 17.8700214,30.9746289 C17.6177957,30.9827417 17.4629983,30.7439205 17.439754,30.4878595 C17.2780328,28.7096303 17.4130477,26.9116261 16.5950451,25.322527 C15.9659644,24.1010402 16.2706135,23.6021016 16.697419,22.392277 C16.8314449,22.0130026 16.9135419,21.6139531 16.951623,21.2067909 C16.9610197,20.8356292 16.9605251,20.4700452 16.9486557,20.1095317 C16.926895,19.8691893 16.8912867,19.6303681 16.8438089,19.3945892 C16.8378742,19.402702 16.832434,19.4103078 16.8264993,19.4184206 C16.6796149,18.8419032 16.3304553,17.6386702 15.843808,16.9967432 C16.0421267,18.1477498 16.3250152,19.0837667 16.4036502,20.0071073 C15.9629971,20.62571 15.5406426,21.2534396 15.2157165,21.9298462 C14.7414332,22.9170752 14.2152211,23.961094 14.0035493,25.0294513 C13.8215511,25.9482284 13.6534006,26.8938793 13.5475648,27.8278679 C13.5129455,28.1285494 13.4491473,28.4272027 13.4491473,28.7304194 C13.4491473,29.0295797 13.5856459,29.1167926 13.7567637,29.3545997 C14.0772388,29.8013119 14.2582478,30.3413217 14.2666554,30.8848808 C14.2790194,31.6915995 13.196427,31.5399912 12.6425195,31.4832014 C12.3991958,31.4578488 12.1222421,31.410186 11.9145268,31.2773385 C11.620758,31.0902366 11.6484534,30.8858949 11.7023604,30.5796358 C11.8334189,29.8357914 12.0104715,29.7607478 11.96151,29.0006778 C11.4679389,28.5945296 11.6662575,28.1199295 11.9827761,27.611357 C12.3245172,26.2042894 13.2651708,24.1715203 13.2894043,22.7330156 C13.2992955,22.1772872 13.0233309,21.5723749 13.1375743,21.0222242 C13.282975,20.319958 13.8670507,19.7287361 14.0431141,18.9945256 C14.460523,17.25179 14.4906912,15.5333929 14.5050334,13.7754457 C14.3329264,13.0174039 14.3161114,12.2537845 14.4303548,11.4840804 C14.575261,10.5034431 15.0683375,9.59632812 15.7607219,8.84082155 C15.055479,7.97376367 13.6261998,8.00773611 12.798306,8.66487471 C11.2617072,9.88331921 12.1098781,12.6579044 11.6202634,14.3671747 C11.2983047,15.4928287 10.5757522,16.4567334 9.75725492,17.2578746 C9.01937102,17.9799158 8.02332665,18.761282 6.94765809,18.7399859 C7.46793548,18.2177229 8.03371242,17.5119074 8.52629444,16.580961 L8.525,16.581 L8.42363616,16.7179928 C7.63305346,17.7223273 6.04494384,18.7016306 5.84322099,18.8240127 L5.82451174,18.8353115 C4.0366764,19.5005629 1.89028488,18.9843846 0.238453609,18.1548485 C0.0524989515,18.061044 -0.0172340451,17.8703927 0.00353748581,17.685319 C1.02777178,17.5930356 2.03914751,17.3222702 2.9377635,16.7989931 C4.13163197,16.1028116 4.97980282,14.9801998 5.57080233,13.7282899 C5.84961067,13.1378919 6.07302247,12.5214482 6.28966667,11.9026183 L6.54950351,11.1603914 C6.94372286,10.0498757 7.37903827,8.96229205 8.13905375,8.03562394 C9.44073636,6.44804603 11.526297,5.70217344 13.4758535,6.3441005 C14.2147265,6.58748517 14.9051327,6.97943589 15.5841639,7.36023149 C15.9357962,7.55696743 16.2978144,7.78716876 16.5821865,8.08430087 C17.9798138,7.00580256 19.816116,6.46122937 21.3947524,6.86940574 C22.3418353,7.11431156 23.1994028,7.62491231 24.0465845,8.12232973 C26.5174076,9.5724967 29.8749772,10.4192725 32.6000042,9.14201007 C32.7394702,9.07660044 32.8739906,9.0051062 33.0055436,8.9310767 C33.9091052,9.00459915 34.8181069,8.61416958 34.8181069,8.61416958 L33.607918,8.54875995 C34.2829927,8.06452587 34.8532207,7.46671228 35.3744872,6.81616534 L36.534231,6.56618901 L35.5708277,6.56618901 C36.6460017,5.16774127 37.5342319,3.56596593 38.7562903,2.32064771 C40.1588632,0.892283945 42.2938798,0.251370987 44.1944749,0.705181982 C44.5945742,0.42376846 45.2266222,0.0642690236 45.9382944,0.000380548356 Z M46.6465541,0.605850614 C46.7054068,0.600273049 46.7410151,0.671767295 46.7039231,0.718416023 C46.4848329,0.993744928 46.2904707,1.26856678 46.1396299,1.49166939 C45.9553787,1.27160909 45.7337302,1.08375594 45.6443186,1.01113283 L45.6040211,0.979040438 L45.6124286,0.955209022 C45.8968008,0.792952577 46.2568406,0.64083716 46.6465541,0.605850614 Z" id="40"></path>
            </g>
        </g>
    </g>
</svg>