<?xml version="1.0" encoding="UTF-8"?>
<svg width="48px" height="36px" viewBox="0 0 48 36" version="1.1" xmlns="http://www.w3.org/2000/svg" xmlns:xlink="http://www.w3.org/1999/xlink">
    <title>边框-1</title>
    <g id="V1.4" stroke="none" stroke-width="1" fill="none" fill-rule="evenodd">
        <g id="形状汇集备份" transform="translate(-47.000000, -641.000000)" fill="#3D4242" fill-rule="nonzero">
            <g id="dolphin-3-svgrepo-com" transform="translate(47.000000, 641.500000)">
                <path d="M36.1022797,24.8209144 C34.8609365,25.7398676 33.3146248,26.7579796 31.6784068,27.6157073 C32.9064375,28.3046845 34.7414991,29.3461838 35.4208113,29.7957731 C36.4773733,30.4960638 37.8523101,31.2661363 37.3569353,28.4278961 C37.1384042,27.1741039 36.6768732,25.9536816 36.1022797,24.8209144 Z" id="路径"></path>
                <path d="M45.5624939,6.80226288 C44.3478695,7.41851104 42.5564016,8.50136613 41.3270584,9.03062462 C40.3392152,7.16980614 38.09681,6.29848333 35.3210613,6.650435 C32.9225625,6.95399569 31.3489695,8.54120074 29.9249077,9.53868235 C28.6505645,10.4306355 25.3788786,13.0844386 22.4809737,14.1994275 C19.2858815,15.6456428 16.3858204,15.4148111 14.3871651,14.9090351 C13.3431656,14.643978 8.79151158,12.6790572 12.0891662,6.09275037 C13.7099155,2.85473797 13.4998218,0.731714543 12.8879159,0.266533691 C12.0891662,-0.341158116 9.39141755,1.63441068 7.74263709,3.00285809 C6.09376288,1.9385418 1.74713997,-0.189425306 0.79735918,0.0135506027 C-0.375921505,0.262921005 -0.395515246,3.73528264 1.69735875,6.0926553 C3.49585788,8.11946719 5.06035713,9.5044569 5.19451331,11.0581971 C5.69401307,16.8338362 6.98944995,20.2251025 9.89016731,23.5221538 C11.9141351,25.821153 14.4368526,27.2289597 17.0762888,27.9869583 C17.2379138,27.3521713 17.3847262,26.7609268 17.4977886,26.3027811 C17.6389761,25.7293148 17.7261635,25.362437 17.7268198,25.3616764 L18.5452569,25.5639868 C18.0218509,27.607246 16.9315389,31.7919722 16.5479141,32.7416333 C16.0357581,34.0105417 15.5088834,35.6448067 18.2354133,34.7371669 C22.8433173,33.2032965 26.5020968,29.0833134 27.9984398,24.1498104 L28.6469083,24.2531523 C28.4452521,25.5191135 27.9128461,26.8506735 27.1449403,28.1529517 C28.4298771,27.8508171 29.5967828,27.4425835 30.5739386,26.9667548 C33.3945935,25.593839 36.0697485,23.6226435 37.4685915,22.4064993 C43.5644949,17.0362416 45.5624939,12.7802124 47.3608993,9.94330318 C49.1601484,7.1057285 46.7068996,6.22166621 45.5624939,6.80226288 Z" id="路径"></path>
            </g>
        </g>
    </g>
</svg>