<?xml version="1.0" encoding="UTF-8"?>
<svg width="38px" height="48px" viewBox="0 0 38 48" version="1.1" xmlns="http://www.w3.org/2000/svg" xmlns:xlink="http://www.w3.org/1999/xlink">
    <title>动物-8</title>
    <g id="V1.4" stroke="none" stroke-width="1" fill="none" fill-rule="evenodd">
        <g id="形状汇集备份" transform="translate(-190.000000, -705.000000)" fill="#3D4242">
            <g id="动物-8" transform="translate(190.000000, 705.000000)">
                <path d="M31.1995173,8.17397627 C30.1834589,8.17397627 29.3595647,7.34151936 29.3595647,6.31411504 C29.3595647,6.1058043 29.3937964,5.90614041 29.4560358,5.71905378 L30.3515053,5.46829481 C30.2293605,5.63965987 30.1577852,5.85111493 30.1577852,6.07829156 C30.1577852,6.65920341 30.6245808,7.13085038 31.1995173,7.13085038 C31.6460851,7.13085038 32.0257455,6.84629004 32.1743421,6.44774835 C32.1611163,6.44932051 32.1494464,6.45167874 32.1362205,6.45167874 C31.9526142,6.45167874 31.8032396,6.30075171 31.8032396,6.11523724 C31.8032396,5.92893668 31.9526142,5.77879573 32.1362205,5.77879573 C32.1580043,5.77879573 32.1790101,5.78115396 32.2000159,5.78508435 C32.1128807,5.48323029 31.8965988,5.23640171 31.6149654,5.11298742 L32.3890681,4.89524373 C32.7874003,5.23640171 33.040248,5.74578044 33.040248,6.31411504 C33.040248,7.34151936 32.2163537,8.17397627 31.1995173,8.17397627 L31.1995173,8.17397627 Z M27.5709596,11.2679804 C27.5413959,11.3599516 27.4130271,11.3599516 27.3834634,11.2679804 L26.5587911,8.6904297 L26.9322276,8.40901367 C27.2558726,8.16611548 27.6985504,8.16611548 28.0221953,8.40901367 L28.3956318,8.6904297 L27.5709596,11.2679804 Z M25.0004718,41.9305361 C24.7281744,42.0641694 24.4356492,42.1553545 24.1586838,42.2779827 C23.9602957,41.6412593 23.8723825,40.9196394 23.7883593,40.2160994 C24.3601839,40.1146953 24.9195606,39.9024541 25.4408157,39.660342 C25.4983871,39.8694388 25.5528466,40.0793218 25.5948582,40.293135 C25.729451,40.9762371 25.6563197,41.6098162 25.0004718,41.9305361 L25.0004718,41.9305361 Z M22.3202871,4.89524373 L23.0943898,5.11298742 C22.8127565,5.23640171 22.5964745,5.48323029 22.5093394,5.78508435 C22.5303452,5.78115396 22.551351,5.77879573 22.5731348,5.77879573 C22.756741,5.77879573 22.9061156,5.92893668 22.9061156,6.11523724 C22.9061156,6.30075171 22.756741,6.45167874 22.5731348,6.45167874 C22.5599089,6.45167874 22.547461,6.44932051 22.5350131,6.44774835 C22.6836097,6.84629004 23.0632701,7.13085038 23.5098379,7.13085038 C24.0847745,7.13085038 24.5515701,6.65920341 24.5515701,6.07829156 C24.5515701,5.85111493 24.4792168,5.63965987 24.3570719,5.46829481 L25.2525415,5.71905378 C25.3155589,5.90614041 25.3497906,6.1058043 25.3497906,6.31411504 C25.3497906,7.34151936 24.5258963,8.17397627 23.5098379,8.17397627 C22.4930015,8.17397627 21.6691073,7.34151936 21.6691073,6.31411504 C21.6691073,5.74578044 21.9219549,5.23640171 22.3202871,4.89524373 L22.3202871,4.89524373 Z M36.0798653,16.3539069 C36.0798653,15.5560375 35.9639444,14.8100492 35.6309635,14.0491254 C35.4520252,13.6403647 35.2357432,13.2481116 34.9720037,12.8888738 C34.9735597,12.880227 34.9751157,12.8723662 34.9774497,12.8637193 C35.1050405,12.9541183 35.2201834,13.0429452 35.3104305,13.1152644 C35.6091797,13.3534461 36.0471896,13.2897738 36.1677784,12.8857295 C36.4587477,11.9125646 36.1880062,10.8144132 35.9406046,9.85854203 C35.899371,9.69975422 35.8472455,9.54568288 35.788118,9.39554192 C36.106317,9.60463875 36.536547,9.31850625 36.5637767,8.94276083 C36.7162633,6.8117026 35.5936199,4.42752715 34.0026249,2.93397841 C35.1703918,2.40180341 35.9740583,2.22886619 36.4851994,2.1887762 C36.4562099,1.60060578 35.7391045,1.68411394 35.5640561,1.70533805 C34.8272971,1.79652313 34.1022079,1.93251467 33.3810087,2.07793916 C33.5513891,1.75486098 33.2993195,1.34531419 32.9227711,1.32173185 C31.972842,1.2619899 31.1053802,0.695227451 30.1896829,0.460976122 C29.2981033,0.233013419 28.3606221,0.0026924809 27.4355889,7.48772209e-06 C25.5816324,-0.0028100671 23.8529327,0.790342924 22.0308739,1.01280308 C21.6247617,1.06232601 21.3042287,1.64009355 21.6698853,1.91679311 C21.4777211,1.89556899 21.2863349,1.87434488 21.0933927,1.85626508 C20.3939773,1.78866235 18.8535519,1.41920555 18.2109299,1.71319883 C18.0662233,1.78001549 17.9627503,1.89871331 17.9067348,2.03234662 C18.315181,2.04335171 19.0223763,2.23829913 20.2337108,2.93240625 C20.0563285,3.10534348 19.8875041,3.29478834 19.7272376,3.50231301 C18.1735863,5.52410636 17.3932597,8.37049584 18.0802272,10.8765134 C18.1798102,11.2381094 18.5898124,11.3332249 18.8566638,11.1657902 C18.7127352,11.4204796 18.5960363,11.6916766 18.4972312,11.9377191 C18.1572484,12.7890419 17.9798661,13.7111117 18.0203217,14.6261068 C16.2690603,15.2997759 14.8453337,16.7249359 13.7141324,18.1893997 C10.6636232,22.1394431 9.24767655,27.0429995 6.5402621,31.2115726 C5.75448952,32.4221332 4.88002578,33.5902455 3.82506773,34.5759877 C2.86580279,35.4721169 1.73537946,36.1292784 0.591730256,36.7542106 C-0.00110014832,37.0788609 -0.10690715,37.67235 0.0914809778,38.1699376 C0.208179876,38.2147441 0.325656767,38.2564062 0.447801614,38.2894215 C1.63346242,38.615644 4.75515782,39.2000977 7.51197493,39.2956017 C8.12347716,39.2673029 8.71086161,39.1572519 9.23056071,38.9143537 C10.5515922,36.0207996 11.2416717,33.7175902 11.2416717,33.7175902 C11.2416717,33.7175902 10.5119146,38.3428748 10.1890477,38.9945337 C12.6599523,38.625863 15.7197975,37.3484858 17.4780609,35.914679 C18.1790322,32.9904678 18.2638334,32.3914761 18.2638334,32.3914761 L18.2117079,35.613611 C18.2117079,35.613611 20.323958,34.1145597 21.3112307,32.83168 C20.0205409,34.8070947 18.1113469,36.2298964 16.0660042,37.3288338 C13.9304143,38.474936 11.5684286,39.5447885 9.12241973,39.6815661 C8.51791944,39.7153675 7.90641721,39.7153675 7.30502889,39.6917852 C6.19950132,41.5194172 4.81089172,43.4023748 3.17010521,44.800022 C2.96393716,44.9761035 3.28669682,45.3248222 3.47730502,45.5024758 C4.02734582,46.015785 4.70497743,46.2523945 5.45574034,46.1753589 C5.81283897,46.1384132 6.05635067,45.9552569 6.37999562,45.8326287 C6.37999562,45.8326287 6.9331484,45.4270123 7.42717373,44.6967456 C7.23267557,45.142452 7.03506543,45.5205556 6.84912519,45.8373452 C7.00939168,45.8923707 7.16499021,45.9867001 7.32292272,46.0676661 C7.98810644,46.4041076 9.51031564,46.4000004 9.83895097,46.0731687 C10.2103128,45.7959451 10.5606688,45.4141731 10.890019,44.9278526 C10.7110807,45.3366133 10.5298084,45.6887764 10.3570941,45.9890583 C10.6301695,45.9788393 10.9024669,45.965476 11.1732084,45.9245999 C12.4203306,45.7343689 12.9003521,44.6220682 13.3546998,43.5608625 C13.4682867,43.2967402 13.5748717,43.0286875 13.6767887,42.7590626 C13.1524217,42.762731 12.5561236,42.6430616 11.8878945,42.4000544 C13.1673657,42.3200566 15.0165937,42.0533935 17.4355787,41.6000652 C18.5124458,41.3982556 20.3971602,41.0037504 23.0897219,40.4165493 C22.6109971,40.6754311 22.2764602,40.8415557 22.0861114,40.914923 C22.2160361,41.3881421 22.3630767,41.8574308 22.4587698,42.3432272 C22.6237043,43.1772563 22.5334571,43.9507573 21.7336807,44.3422243 C21.2248735,44.5921972 20.6538269,44.7101089 20.1901433,45.0496948 C19.6447704,45.4498086 19.4370464,46.0527306 19.5195136,46.719325 C19.5329988,46.8304241 19.5967942,46.9580308 19.7108998,47.1021452 C20.3272156,46.5146058 21.1538278,46.0138945 22.1907365,45.6000112 C23.3417957,45.1405646 24.5683154,44.800022 26.153368,46.4000004 C26.4206371,46.6697862 27.0551505,47.2955204 27.2947722,47.6146682 C27.6005233,48.0218568 28.583906,48.2710436 28.5924639,47.4959704 C28.5955759,47.2349924 28.5776821,46.9826613 28.5411164,46.7358327 C28.8180818,47.0589109 29.112163,47.5439212 29.3525628,47.6099517 C29.6606479,47.6948482 30.0356403,47.521911 30.0091886,47.1320161 C29.9368353,46.076313 29.4863775,45.222632 28.5014388,44.7902889 C27.6137492,44.4011802 26.6233645,44.4145435 25.7185591,44.0891071 C25.306223,43.9405383 24.9911359,43.706287 24.7452903,43.4146519 C25.3723523,43.2377843 25.9714067,43.1104396 26.0009704,43.1080814 C26.9874651,43.0349761 28.4625392,42.7496297 29.0981592,43.7455909 C29.2739855,44.0207183 29.3611207,44.3500851 29.5571748,44.6118491 C29.8076885,44.9451463 30.6136889,45.1495267 30.6206908,44.5143754 C30.6230248,44.3005621 30.6082429,44.0938236 30.5786792,43.8918014 C30.8050751,44.1567098 31.0462528,44.5536794 31.2430849,44.6079188 C31.4951545,44.6778797 31.8024616,44.5355996 31.7806778,44.2164518 C31.7223284,43.3509796 31.3527819,42.652156 30.5452255,42.2976347 C29.8185804,41.979273 29.007134,41.989492 28.265707,41.7230114 C27.1422856,41.3189672 26.890216,40.1555713 26.7361735,38.9701653 C27.423141,38.5763401 28.0992166,38.1550021 28.7410605,37.7045792 C29.6054104,37.0969407 30.3608412,36.3635297 30.9349998,35.4799777 C31.0711485,35.0775056 31.3696273,34.033541 31.7010521,32.8001841 C31.7819634,33.5029381 31.7010521,34.4001625 31.7010521,35.2001517 C32.599115,35.4477842 34.8711573,32.000195 35.2116255,28.9515975 C35.3796719,30.4137031 35.1356748,31.3925564 34.8711573,32.000195 C36.5008482,31.9390667 37.9570837,28.9889487 37.9991731,24.8946475 C38.0412625,20.8003463 36.4641936,16.9301023 36.0798653,16.3539069 Z" id="33"></path>
            </g>
        </g>
    </g>
</svg>