<?xml version="1.0" encoding="UTF-8"?>
<svg width="44px" height="48px" viewBox="0 0 44 48" version="1.1" xmlns="http://www.w3.org/2000/svg" xmlns:xlink="http://www.w3.org/1999/xlink">
    <title>动物-7</title>
    <g id="V1.4" stroke="none" stroke-width="1" fill="none" fill-rule="evenodd">
        <g id="形状汇集备份" transform="translate(-119.000000, -705.000000)" fill="#3D4242" fill-rule="nonzero">
            <g id="hawk-bird-animal-shape-svgrepo-com" transform="translate(119.000000, 705.000000)">
                <path d="M2.79779555,22.1363343 C2.85615474,22.2475181 2.90810265,22.3620988 2.97451706,22.5041025 C2.99934026,22.5572089 2.97887345,22.57643 2.92824068,22.5473498 C2.41846077,22.253649 1.94665545,21.9818203 1.47715161,21.7110688 C1.42651884,21.6819886 1.35270679,21.6924277 1.31218413,21.7347637 C1.29845739,21.7489309 1.28497724,21.763181 1.2712505,21.7773482 C1.23064565,21.8196014 1.22291922,21.8939172 1.25349615,21.9439582 C1.48117921,22.3181886 1.68609397,22.7119715 1.96112195,23.0465999 C2.22636861,23.3690495 2.55671453,23.6547139 2.90382845,23.8879348 C3.97328126,24.6063213 5.04174772,25.33175 6.15846326,25.9695241 C6.61695283,26.2311623 7.1961062,26.2798777 7.72224312,26.4184846 C11.7293828,27.4751449 10.7210016,27.0377833 13.3492203,29.6110833 C13.5715607,29.8288114 13.7292127,30.1614514 13.8026138,30.4683253 C13.8529177,30.6785969 13.7493507,30.961196 13.6373175,31.1693963 C13.0672057,32.2294534 12.1302529,32.9460173 11.2462344,33.7120421 C11.18319,33.7667227 11.1822037,33.904004 11.1683947,34.0050802 C11.0711568,34.719987 10.9426844,35.4332369 10.8970656,36.1515405 C10.8709272,36.5648758 10.9242725,37.0047229 11.0443609,37.4008255 C11.2062871,37.9342095 11.4545192,38.4429872 11.6895999,38.9510192 C11.9388183,39.4891256 12.2121202,39.631875 12.8170831,39.5321244 C12.874456,39.5226796 12.9183486,39.4658449 12.9173623,39.4070219 C12.9022382,38.2824252 13.6061652,37.5397638 14.3566973,36.7947827 C15.1716712,35.9859247 16.1244056,35.9453285 17.1304852,36.0960315 C17.1881869,36.1048135 17.2505737,36.1572571 17.268328,36.2130147 C17.6761026,37.4914627 17.3615383,38.7772842 17.3310436,40.0577205 C17.3149332,40.7290486 17.2841097,41.4036907 17.3283311,42.0722847 C17.3917043,43.0258805 17.1177449,43.8519711 16.5462357,44.5926441 C16.2424391,44.9860955 15.9513007,45.0293428 15.6451204,44.6429336 C15.3784764,44.3063168 15.1853157,43.9010179 15.0103203,43.5030926 C14.8114881,43.0511495 14.5622697,42.9379773 14.2782001,43.2100545 C14.2359513,43.2505678 14.2500069,43.3036742 14.3030233,43.3280319 C14.6132312,43.4720241 14.7205792,43.6687084 14.4684018,44.0453414 C14.3929458,44.1578508 14.4660181,44.4762408 14.5793664,44.5928926 C14.8536547,44.8741661 15.1793154,45.1046529 15.5177165,45.3723391 C15.5633353,45.4085442 15.5538828,45.4480633 15.4965922,45.4575082 C14.6830156,45.5930497 13.9878015,45.3462415 13.3311372,44.933569 C12.6765279,44.5222221 12.0835656,44.7665448 11.965532,45.4646332 C11.9558329,45.5223792 11.9927389,45.5460741 12.0429607,45.5166626 C12.2146683,45.4162492 12.3954174,45.3105335 12.577235,45.2040721 C12.627539,45.1746606 12.6989674,45.1665413 12.7368598,45.1857624 C12.7747521,45.2053148 12.7918489,45.2668719 12.7811634,45.3243693 C12.7047211,45.7381188 12.956241,45.8212167 13.2922585,45.8676123 C13.6024664,45.9101969 13.9009202,46.0342223 14.2094842,46.0984305 C14.4697169,46.1528626 14.7352923,46.1819427 15.0207592,46.2932093 C15.0750908,46.3141702 15.0730359,46.3479727 15.0173892,46.3647911 C14.8406677,46.4192231 14.6646037,46.4746493 14.4868137,46.5264302 C14.050517,46.6538524 13.6000827,46.7454838 13.180554,46.9144964 C12.8311386,47.0554231 12.5893179,47.3154043 12.6168535,47.7200404 C12.6208811,47.7784492 12.6631299,47.8593101 12.7043923,47.9009005 C12.7292155,47.925921 12.7540387,47.9509415 12.7788619,47.9758791 C12.8201244,48.0174695 12.8596607,48.003965 12.8670583,47.9454734 C12.906348,47.6280776 12.9315,47.4779547 13.5066258,47.5479623 C14.2078403,47.6334629 15.0482949,47.2448167 15.7019179,46.8502882 C16.3867754,46.4372843 17.0067802,46.2624722 17.7643812,46.4849227 C18.1493875,46.5977634 18.5534633,46.6478044 18.95121,46.7116813 C19.0491055,46.7272569 19.1970583,46.7241915 19.2530339,46.6640429 C19.7309217,46.152614 20.0612676,46.3879061 20.3674479,46.8702549 C20.398929,46.9195502 20.4375611,46.9154906 20.4498905,46.858076 C20.556581,46.3672766 20.2788406,46.1121007 19.9445492,45.992052 C19.6148609,45.8737432 19.2004284,45.8111919 18.8744388,45.9048117 C18.2707911,46.0782982 17.8522488,45.8865848 17.5007785,45.5401089 C17.4591873,45.4992642 17.4525294,45.4242027 17.4836817,45.3744931 C18.2496667,44.1647273 18.9955136,42.987107 19.7409496,41.8100666 C19.7725129,41.7606884 19.7715265,41.6931662 19.7386481,41.6596951 C19.7060985,41.6262239 19.7228665,41.6181047 19.7758829,41.642131 C19.8737784,41.6863726 19.9801401,41.7343423 20.119298,41.797225 C20.1725611,41.8212513 20.2141523,41.7931653 20.2128371,41.7343423 C20.2060971,41.4757696 20.2000967,41.250668 20.1940142,41.0174471 C20.1922881,40.9586241 20.2288654,40.9397344 20.2754705,40.9748626 C20.3838049,41.0569662 20.4860568,41.1343475 20.5870758,41.2111488 C20.6336809,41.2462769 20.7175209,41.2651666 20.7745649,41.253402 C20.7765376,41.2530706 20.7785926,41.2524078 20.7805653,41.2519935 C20.8376093,41.2398975 20.8778032,41.1827315 20.8708165,41.1245713 C20.8312802,40.8048557 20.7916617,40.4847259 20.7517966,40.1608679 C20.7447278,40.1027077 20.7856614,40.0612002 20.8440206,40.0624429 C21.3165657,40.0732962 21.5969364,39.7768613 21.4869581,39.3569809 C21.3091681,38.6812618 21.0600318,38.0248466 20.8799403,37.3497075 C20.8117998,37.0952772 20.8215811,36.8197203 20.8075256,36.5395239 C20.8044843,36.4810323 20.8460755,36.447644 20.9017222,36.4648767 C20.9496425,36.4797895 20.9962477,36.4942053 21.0472092,36.509781 C21.1029382,36.5270137 21.1354056,36.494951 21.1203637,36.4385306 C21.0958693,36.3482248 21.0734298,36.2661211 21.051319,36.1849288 C21.0358662,36.1280942 21.0707173,36.0838526 21.1287477,36.0859238 C21.3990083,36.0944573 21.656282,36.1024937 21.9399405,36.1113586 C21.9982997,36.1130156 22.0583029,36.1603225 22.0737557,36.2170743 C22.6187155,38.1803548 23.0822191,40.1358474 21.5347962,41.9587811 C21.4969038,42.0034369 21.4268728,42.0112248 21.3795279,41.9770908 C21.1742843,41.8293705 20.9331211,41.6559669 20.614858,41.427137 C20.5675953,41.3930031 20.531018,41.4128869 20.5334017,41.4713786 C20.5407994,41.6714597 20.539402,41.7437871 20.5508273,41.8134634 C20.5856784,42.0213324 20.7191648,42.36408 20.6514353,42.40973 C20.4710149,42.5314357 20.2338793,42.5672266 20.0082512,42.6209958 C19.9516181,42.6345002 19.9012319,42.5997035 19.8955604,42.5412119 C19.8921903,42.5097292 19.8891491,42.4783293 19.88619,42.4468465 C19.8801897,42.3884377 19.8439413,42.376176 19.8050625,42.4198376 C19.7144825,42.5209138 19.6196282,42.6270438 19.5045538,42.7552117 C19.465675,42.7987905 19.4800593,42.8451032 19.5364458,42.8586077 C19.7721841,42.9151109 19.9687149,42.9616722 20.18974,43.0147786 C20.2463731,43.0282831 20.2588669,43.0732703 20.2098781,43.1050844 C19.7638001,43.3917431 19.0072677,42.9373974 18.8418892,43.7868515 C18.8307927,43.8442661 18.8727127,43.8879277 18.9307431,43.8845309 C19.3995894,43.8581848 19.8811761,43.8923187 20.3094175,43.7557002 C21.2098752,43.4687101 21.8936642,43.6742593 22.4926268,44.3881719 C22.7341188,44.6759076 22.9699393,45.0906513 23.5383249,44.8259478 C23.5913414,44.8012587 23.6295626,44.8252021 23.6261925,44.8836937 C23.6150961,45.0811237 23.6057257,45.2416857 23.5979993,45.3836066 C23.5946292,45.4420982 23.6355629,45.4708469 23.6845517,45.4390328 C23.9923759,45.2400287 24.090929,44.8332385 23.8163942,44.4530429 C23.6416454,44.2113715 23.3472191,44.0521351 23.0923292,43.8770744 C22.9064839,43.7496522 22.6730471,43.6864381 22.5027369,43.5438544 C21.9060758,43.0439416 21.9390364,42.8836282 22.487284,42.3526468 C23.0382442,41.8189315 23.5262421,41.2191852 24.0496666,40.6558098 C24.1221635,40.5777657 24.2240866,40.5276419 24.3833825,40.4276428 C24.4327824,40.3964914 24.4820178,40.3238325 24.4941006,40.266418 C24.5273078,40.1092528 24.5718581,39.895253 24.6205181,39.6643519 C24.632601,39.6069373 24.6782198,39.5912788 24.7224412,39.6295552 C24.8194326,39.7137301 24.9086153,39.7911114 25.0088123,39.8779375 C25.053116,39.916131 25.0993923,39.9008867 25.115174,39.8445492 C25.1369559,39.7674165 25.1553678,39.7085935 25.1510936,39.6511789 C25.1138588,39.1610423 25.3462271,38.7854863 25.6202687,38.4136585 C25.6762442,38.3376028 25.6339954,38.1719042 25.6084325,38.0535953 C25.5377439,37.7243521 25.4548902,37.3978429 25.3706393,37.0492958 C25.3569126,36.9922126 25.3901198,36.9624697 25.4447801,36.9826849 C25.5212225,37.0111023 25.6000485,37.0401824 25.6989303,37.0767189 C25.7536729,37.097017 25.7841676,37.0676055 25.7673996,37.0115165 C25.6533115,36.6325637 25.5533611,36.3010007 25.4423964,35.9328183 C25.4252997,35.8766464 25.4491365,35.8604908 25.4947553,35.8966131 C25.5527857,35.9422631 25.6014458,35.9807881 25.646407,36.0162476 C25.6923546,36.0524527 25.7560566,36.072668 25.7888528,36.0611519 C25.8217312,36.0500501 25.8371841,35.9942096 25.8234573,35.9374579 C25.7627145,35.6832761 25.701725,35.4286801 25.6406533,35.1731728 C25.6268444,35.1160896 25.6553664,35.0437622 25.704684,35.0126108 C26.0900191,34.7726792 26.5236033,34.5843627 26.6563499,34.0387999 C26.6845432,33.9231422 26.9981211,33.7165988 27.1168944,33.6551246 C27.9053189,33.2460975 28.7423213,32.9222395 29.5861459,32.6383977 C29.8102124,32.5630048 30.1200093,32.7005347 30.3776117,32.7813956 C31.2431361,33.0534728 32.0885225,33.4070737 32.9692532,33.6072377 C33.6526311,33.7627459 34.3190767,33.5419525 34.9065319,33.1130415 C35.6286242,32.5860369 36.3932119,32.1161984 37.098454,31.568233 C37.9389086,30.9152146 38.7346485,30.2036217 39.5523349,29.5208604 C40.0470729,29.1074423 40.5557842,28.7109254 41.0413163,28.2869854 C41.5256154,27.8641225 41.997092,27.4254353 42.4562391,26.9748178 C42.6152063,26.8189782 42.7181979,26.6056412 42.8506158,26.4210529 C42.9858283,26.2321565 43.1138897,26.0363835 43.265788,25.8616543 C43.4371668,25.6645557 43.6732338,25.5127758 43.8013775,25.293805 C43.8809433,25.1578492 43.869107,24.9678757 43.8336805,24.7803877 C43.8225841,24.7225589 43.8340093,24.6343244 43.8604764,24.5818807 C44.115613,24.0738487 44.032184,23.9784891 43.516075,23.5637454 C42.9721015,23.1267152 42.4456358,23.1131279 41.8527557,23.3693809 C39.7399884,24.2813862 37.6245087,25.1866808 35.5133853,26.1027458 C32.7839011,27.2868284 32.782175,27.3560904 29.8407893,27.2164893 C28.1337417,27.1353798 26.4399277,27.1414278 24.7499769,27.3000014 C24.6919465,27.3053866 24.6852886,27.2854199 24.7348528,27.2546828 C25.0319916,27.0704259 25.3230478,26.8764757 25.6081037,26.6726663 C25.6557774,26.6385324 25.7372337,26.5921368 25.7905789,26.5685247 C26.2853169,26.3504653 26.7731505,26.1145933 27.2692037,25.8985222 C27.4238144,25.8312486 27.6007825,25.8075537 27.7701886,25.784273 C28.5646956,25.6757404 29.2022082,25.3441774 29.5462809,24.5660565 C29.5831047,24.4828758 29.6790275,24.4240528 29.7528395,24.3602588 C29.8984087,24.2341621 30.1140912,24.1411223 30.1814919,23.982963 C30.3333902,23.624971 30.4725481,23.301113 30.8367588,23.0841306 C30.9229825,23.0330954 30.8796652,22.7610183 30.8733361,22.5122217 C30.87161,22.4533987 30.9182973,22.3908475 30.9709028,22.365827 C31.2304779,22.2420501 31.3321544,22.0287959 31.2345055,21.5937541 C31.167187,21.2932596 31.5342745,20.9183664 31.5966613,20.5573919 C31.6959542,19.9824176 31.9481316,19.414154 31.6677609,18.7980036 C31.5379733,18.5120077 31.5748794,18.1496248 31.5313155,17.8227842 C31.4313651,17.0747376 31.3773623,16.3148436 31.203682,15.5843611 C31.1342264,15.2926486 30.8770349,15.0458405 30.7036834,14.8299352 C30.6671062,14.7842852 30.6731065,14.7116263 30.7140401,14.6703674 C30.8605957,14.522647 31.0125762,14.3695415 31.1650499,14.2156903 C31.2063123,14.1740999 31.2063123,14.1068262 31.1650499,14.0653187 C30.9967124,13.8953119 30.8264021,13.7238967 30.6442557,13.540054 C30.6029933,13.4984636 30.6089936,13.438315 30.6579824,13.4068323 C30.8052778,13.3122184 30.9859447,13.203023 31.1402267,13.0640846 C31.2438759,12.9707963 31.3347025,12.8027779 31.3303461,12.6719588 C31.3277159,12.5968973 31.1311029,12.501952 31.0073978,12.4633442 C30.8222923,12.4051839 30.6284741,12.3747782 30.4084352,12.3321937 C30.3511446,12.3210919 30.3434181,12.2835611 30.3902699,12.2490958 C30.7548916,11.9830666 31.0895117,11.7389925 31.4215837,11.4966582 C31.4688465,11.4621101 31.5047661,11.388457 31.5017249,11.3320366 C31.4986836,11.2756162 31.4507633,11.2177874 31.3943768,11.2028745 C31.0808811,11.1200252 30.7652483,11.0365959 30.4295596,10.9476986 C30.3731731,10.9327857 30.3631452,10.8895384 30.4077777,10.8516762 C30.6455708,10.6481154 30.8947071,10.4446375 31.1267465,10.2229327 C31.4359681,9.92749201 31.3993908,9.69427116 30.9862735,9.58747838 C30.6746682,9.50670029 30.3195813,9.48640221 30.0055924,9.54994764 C29.3948757,9.67331028 28.7973104,9.86402943 28.14977,10.0441439 C28.0937123,10.0597195 28.0857392,10.0434811 28.1319334,10.0079387 C31.0079732,7.80638358 31.1648855,7.68103255 31.2082028,7.09686196 C31.2126414,7.03837033 31.1726941,7.01136145 31.1200886,7.03671334 C29.5780907,7.7797061 28.0203112,8.53040384 26.462285,9.28118443 C26.4095974,9.30653632 26.400227,9.29328043 26.4418182,9.25210431 C27.9696784,7.72088308 29.6743423,6.37143326 30.6736819,4.33516253 C30.6994914,4.28238751 30.6814083,4.26722609 30.6338168,4.30102861 C29.0170205,5.45909649 27.4515145,6.57996501 25.8874881,7.70058499 C25.8398144,7.73471891 25.779729,7.74316954 25.7529331,7.71914324 C25.7261372,7.69544833 25.7335349,7.63869654 25.7693723,7.59238377 C26.2076417,7.02784847 26.6560211,6.471101 27.0776047,5.89413829 C27.7096923,5.02910849 28.3459719,4.16482432 28.9281666,3.26566059 C29.1423695,2.93467753 29.2382923,2.52639606 29.3745733,2.14404642 C29.3943004,2.08895162 29.3778611,2.01090755 29.3365987,1.96931719 L29.3365987,1.96931719 C29.2954185,1.92772683 29.2289219,1.92838962 29.1883992,1.97072563 C27.7614758,3.45364571 26.3344702,4.93689719 24.9075467,6.41981727 C24.8669419,6.46207042 24.8293783,6.48435689 24.8230492,6.47018966 C24.8170489,6.45602242 24.8361184,6.4035788 24.8662843,6.35320641 C25.6111449,5.09911617 26.3733489,3.85521639 27.0904273,2.58530193 C27.5193263,1.82607071 27.4686935,0.982747422 27.3335632,0.14878611 C27.3268231,0.106864351 27.2940269,0.0690022094 27.2319689,0.0186298194 C27.1866788,-0.0182381305 27.1437725,0.00172855697 27.1371146,0.0598887836 C26.8778683,2.29665488 25.1943288,3.58040518 23.8682599,5.11883431 C23.8300387,5.16307585 23.8180381,5.15561941 23.8408064,5.10160165 C24.4645922,3.61901296 24.9779888,2.12929924 24.5339657,0.597415208 C24.5176087,0.540911968 24.4860454,0.539917776 24.4655786,0.595012578 C24.1252047,1.49956152 23.8237096,2.50286685 23.357247,3.42025743 C22.8820717,4.35488067 22.2425042,5.2049976 21.6281709,6.07574402 C21.5943062,6.12379663 21.5698117,6.11493175 21.5735106,6.05652297 C21.6780639,4.40459027 21.9419954,2.74859795 20.9423271,1.25656444 C20.9097774,1.20784904 20.8859406,1.21671392 20.8913655,1.27512269 C20.9205451,1.59790366 20.960739,1.92076749 20.9658352,2.24387986 C20.9872883,3.6078283 20.6841493,4.89364984 20.1871098,6.16936375 C19.4955944,7.9449905 18.8332586,9.74257232 18.6397691,11.6676593 C18.6162611,11.9002173 18.5525591,12.1283844 18.4911587,12.4065924 C18.4784183,12.464007 18.4442247,12.4698064 18.4140588,12.4197654 C18.2684896,12.1790881 18.1390308,11.9647569 17.973077,11.69036 C17.942911,11.640319 17.9016486,11.6440472 17.8788803,11.6981478 C17.7919991,11.9022885 17.7001861,12.0500089 17.7108716,12.1892786 C17.7568191,12.7969784 17.7876427,13.4169399 17.934938,14.0037617 C18.1743751,14.9563632 18.5100638,15.8841928 18.7857493,16.8279295 C18.8276693,16.9715902 18.846821,17.1159138 18.9182493,17.2231208 C18.950799,17.2717533 18.9732385,17.3404354 18.9538402,17.3887366 C18.9343598,17.4370377 18.9185781,17.4759769 18.9185781,17.4759769 C18.900495,17.5320659 18.8824119,17.5881549 18.8639178,17.6446581 C18.8458346,17.7004157 18.7871466,17.7288331 18.7328151,17.7078722 C18.6409199,17.6724127 18.5496823,17.6365389 18.463212,17.5970198 C18.3012036,17.5227039 18.0433546,17.5246923 17.9732414,17.4057207 C17.5935778,16.7594131 17.0828115,16.7914758 16.4812186,17.0325673 C16.4272158,17.054191 16.3917071,17.0261051 16.4020638,16.9683591 C16.4785062,16.5424307 16.5697438,16.1513819 16.5942382,15.7561906 C16.6069786,15.55031 16.5237962,15.3383815 16.4644506,15.1281099 C16.4483402,15.0716895 16.3926935,15.0402067 16.3370468,15.0574394 C16.1281044,15.1230561 15.9165318,15.1817962 15.7179461,15.2711078 C15.6063239,15.3211488 15.5143465,15.4171712 15.3852987,15.5303434 C15.341406,15.5688683 15.3031027,15.5509728 15.3048288,15.4924812 C15.324227,14.7572763 15.6971505,14.0555425 15.2712928,13.3409671 C15.2411268,13.2905947 15.1774249,13.2818127 15.1321349,13.3186806 C14.9450567,13.4717862 14.7763082,13.6100617 14.5895587,13.7631672 C14.5442687,13.8003666 14.5070339,13.7827197 14.5063763,13.7238967 C14.5007048,13.2084082 14.4953621,12.7314446 14.4899371,12.2568837 C14.4892796,12.1980606 14.4476884,12.1345152 14.3970556,12.1148799 C14.3464228,12.0953275 14.272282,12.1128915 14.2310196,12.1544819 C13.8879333,12.500295 13.5445182,12.8461081 13.201514,13.1921697 C13.1602516,13.2337601 13.110934,13.2513241 13.0915357,13.2317717 C13.0721375,13.2122192 13.0660549,13.149668 13.0784665,13.0921706 C13.2146654,12.4569648 13.3507821,11.8218418 13.4873097,11.1867189 C13.4997213,11.1293043 13.4692266,11.0583025 13.4192514,11.0278968 C13.4018258,11.0174577 13.3844002,11.0066045 13.3668925,10.9960826 C13.3169173,10.9656769 13.2411325,10.9724706 13.1961713,11.0099185 C12.960433,11.2076798 12.7055431,11.3888713 12.5140263,11.6230863 C11.9596961,12.301788 11.4369292,13.0062558 10.9029837,13.7016102 C10.8673928,13.747923 10.8030333,13.7668126 10.7597982,13.7431177 C10.716563,13.7195056 10.6981511,13.6562916 10.718207,13.6011968 C10.8033621,13.3689702 10.8821881,13.1336781 10.9837824,12.9092392 C11.3331978,12.1402318 11.7061213,11.3816634 12.0421387,10.6069393 C12.106827,10.457562 12.090059,10.2723109 12.0481391,10.0738868 C12.0360562,10.0163893 11.9854235,9.9971683 11.9381607,10.0316336 C10.6610807,10.9649313 10.1580409,12.5117282 9.01913241,13.593409 C8.97688364,13.6335909 8.95403313,13.6194237 8.96817085,13.562589 C9.04601051,13.2529811 9.10436971,12.9349225 9.22437594,12.6427958 C9.64086333,11.6300457 10.0986953,10.634611 10.5118127,9.62086666 C10.5933512,9.42070269 10.5859535,9.18416787 10.5580891,8.94415337 C10.551349,8.88599314 10.5021135,8.85898426 10.4504122,8.88632454 C9.68812606,9.29394322 9.30048949,10.0065303 8.84306847,10.640659 C8.39468901,11.2619461 8.00902514,11.9288832 7.59952442,12.578919 C7.56837212,12.6286286 7.51535566,12.6577087 7.48149089,12.6442043 C7.44762612,12.630617 7.43381718,12.5738652 7.45033859,12.5177762 C7.91951364,10.9240037 8.3886887,9.33023123 8.85786375,7.73645875 C8.87463175,7.68003836 8.8444658,7.61549873 8.79144935,7.59180383 C8.77468135,7.58434739 8.75758457,7.57689095 8.74081658,7.56943451 C8.68747134,7.5457396 8.60733019,7.55626147 8.56269774,7.59412361 C7.08777181,8.84382284 6.74805553,10.8405744 5.57528229,12.351829 C5.53936261,12.3981418 5.51158035,12.3872885 5.51223792,12.3284655 C5.51560795,12.0252369 5.49078475,11.715629 5.55851429,11.4279762 C5.84225506,10.2226013 6.17999863,9.03006812 6.46028716,7.82427903 C6.53040039,7.52312174 6.49785076,7.19785528 6.49752197,6.88012812 C6.49752197,6.8213051 6.45428685,6.75809106 6.3992155,6.73878717 C6.39757157,6.73812438 6.39559887,6.73746158 6.39354397,6.73679879 C6.33855481,6.71757774 6.26309884,6.73779298 6.22356254,6.78112318 C6.04347099,6.97847027 5.8456251,7.1647984 5.70843989,7.38882298 C4.79326906,8.88359051 4.35565729,10.5665917 3.87333087,12.2303719 C3.78447694,12.5373286 3.72143257,12.8519904 3.6292086,13.24917 C3.61581064,13.3063361 3.58490493,13.30965 3.56147905,13.2559637 C3.19562443,12.4146288 3.13521033,11.6381649 3.25365484,10.8377576 C3.39051127,9.90951371 3.53098432,8.98201551 3.67219713,8.05443446 C3.70104795,7.8658694 3.73557029,7.67788428 3.76910627,7.48998201 C3.77946298,7.43215318 3.74189938,7.37299876 3.68559509,7.35783733 C3.67449862,7.35477191 3.66381313,7.35212073 3.65271667,7.3490553 C3.59633018,7.33381103 3.52128518,7.35891437 3.48273524,7.40282451 C3.32779568,7.57863078 3.14499166,7.74391519 3.06690542,7.94938152 C2.71773659,8.87050032 2.38180134,9.79940696 2.10134841,10.7435579 C1.88065202,11.4872134 1.73878163,12.254481 1.56707409,13.0127181 C1.55400491,13.0698012 1.51044101,13.1225763 1.46950737,13.1302812 C1.42857374,13.1380691 1.38764011,13.0974729 1.37794097,13.0393955 C1.17434136,11.8197706 0.97115272,10.6002285 0.767635299,9.38060362 C0.757936165,9.32277479 0.702864811,9.272071 0.644916596,9.26767999 C0.634806482,9.26701719 0.624778563,9.2663544 0.614750645,9.2653602 C0.556720234,9.26096919 0.493675863,9.30222815 0.472880262,9.35690871 C0.365203436,9.63950776 0.232128031,9.9173844 0.181084283,10.2097597 C-0.0895051144,11.7609476 -0.0432287381,13.319592 0.229415561,14.8616665 C0.683713132,17.4276758 1.59017118,19.8377626 2.79779555,22.1363343 Z" id="路径"></path>
            </g>
        </g>
    </g>
</svg>