<?xml version="1.0" encoding="UTF-8"?>
<svg width="50px" height="38px" viewBox="0 0 50 38" version="1.1" xmlns="http://www.w3.org/2000/svg" xmlns:xlink="http://www.w3.org/1999/xlink">
    <title>动物-14</title>
    <g id="V1.4" stroke="none" stroke-width="1" fill="none" fill-rule="evenodd">
        <g id="形状汇集备份" transform="translate(-256.000000, -780.000000)" fill="#3D4242">
            <g id="动物-14" transform="translate(256.000000, 780.000000)">
                <path d="M49.7503199,27.689503 C48.5532299,26.0078275 46.8025529,24.4049259 47.0783399,20.9604672 C47.3554689,17.5160084 46.9870819,11.9884194 42.5650958,10.7058647 C42.5650958,10.7058647 40.3534318,8.38291196 33.4439947,8.70325888 C26.5352287,9.0236058 24.7852227,9.9047057 22.6661586,9.66488314 C20.5470946,9.42447708 19.551309,9.10413016 17.9677146,9.10413016 C17.9677146,9.10413016 16.6364217,8.10049319 14.4670315,7.58233643 C14.4670315,7.58233643 13.3611995,6.3803061 13.4537995,5.57914705 C13.5457285,4.777988 14.7434896,4.93845322 15.0192765,4.29717587 C15.2957345,3.65648204 15.0192765,2.69544129 15.3883346,1.89369873 C15.7567216,1.09312319 16.1022941,1.44089507 16.4706811,0.879558579 C16.8390681,0.319389106 13.9141155,-0.348729692 11.9795805,0.21143978 C10.0443745,0.772776273 9.3082715,1.81434139 9.21567149,2.69544129 C9.21567149,2.69544129 7.37306547,2.37451086 6.54436247,2.69544129 C6.54436247,2.69544129 5.34660145,-0.0283827752 3.41273745,0.0515580767 C1.47753142,0.132082438 -0.457003601,0.850966595 0.0959124088,1.37262442 C0.648157404,1.89369873 1.20174443,1.33352926 1.47753142,1.81434139 C1.75398942,2.29457001 1.93851843,2.93584735 2.21497643,3.8968881 C2.49076342,4.85792886 3.78045344,5.65967141 3.78045344,5.65967141 C3.78045344,5.65967141 3.87305345,7.66227728 4.88628546,8.94366495 C4.88628546,8.94366495 4.33336945,10.545983 4.60982745,11.7474299 C4.88628546,12.9494602 6.26790446,13.1099254 7.09727848,13.029401 C7.09727848,13.029401 8.57082648,14.6317191 9.03114248,16.073572 C9.49280051,17.5160084 9.76925851,19.3581491 11.3347355,20.7200611 C11.5702616,20.9242895 11.8091428,21.1110127 12.046682,21.2831481 C12.6512661,22.6088825 13.383343,24.3944227 13.6376575,25.7668379 C14.0986445,28.2502559 13.799372,31.9351207 13.245785,32.4964572 C12.69354,33.0566267 11.1622848,32.7368633 11.3461428,33.8583693 C11.5306718,34.9798752 14.2355315,34.579004 14.8810475,33.8583693 C15.5258925,33.1371511 15.8338882,31.1853106 16.1251086,29.2112967 C16.2277738,28.5186705 16.3371492,27.8803107 16.4284072,27.2746274 C16.6800376,28.0250211 16.880671,28.7193979 16.9538116,29.2112967 C17.2309406,31.0540208 17.2309406,34.258657 16.9538116,34.8993509 C16.6786956,35.5400447 15.1118766,36.0214403 15.2038056,36.8220159 C15.2957345,37.6231749 17.4147986,38.0240462 18.6125596,37.3827689 C18.6125596,37.3827689 18.9688683,35.7256008 19.1923162,34.4185387 C19.4949438,32.6592565 19.6257916,31.6952982 19.3500046,29.5322271 C19.0728756,27.369156 19.5922409,22.8031913 19.5922409,22.8031913 C19.5922409,22.8031913 24.1403777,22.2418548 27.6410607,20.6401202 C31.1410727,19.0378021 33.3527367,17.3555432 34.8262848,18.1567022 C36.3005038,18.9578613 35.6556588,21.8421506 37.1292068,24.084579 C37.7150025,24.9761821 38.5041156,25.9424744 39.2657172,26.8550838 C39.6220259,28.1236343 39.9347187,29.3845991 39.8937868,29.8531575 C39.8011868,30.8941391 39.4361549,32.1831124 39.1120548,32.422935 C39.1120548,32.422935 37.3452735,32.0162286 37.1607445,32.9766859 C36.9762154,33.9383101 39.163723,34.579004 39.8971419,34.018251 C40.3957057,33.6366355 41.3210348,32.1294295 41.8920682,30.7179192 C42.2477059,32.1055056 42.6241451,34.6612788 41.7357218,35.8609751 C40.7124246,37.242143 40.7124246,37.242143 41.1828058,37.7001982 C41.9652088,38.4628456 44.0386438,37.6231749 44.3151018,36.8220159 C44.5915599,36.0214403 44.2231729,31.2944269 45.1444759,30.2528618 C45.1444759,30.2528618 42.8415538,28.2502559 43.1173408,26.8084031 L43.3937988,25.3665502 C43.3937988,25.3665502 43.2099408,27.2892152 45.1444759,28.5706029 C47.0783399,29.8531575 48.0003139,30.1729209 47.4473979,31.0540208 C47.4473979,31.0540208 50.9480809,29.3717619 49.7503199,27.689503" id="22"></path>
            </g>
        </g>
    </g>
</svg>