<?xml version="1.0" encoding="UTF-8"?>
<svg width="48px" height="50px" viewBox="0 0 48 50" version="1.1" xmlns="http://www.w3.org/2000/svg" xmlns:xlink="http://www.w3.org/1999/xlink">
    <title>动物-18</title>
    <g id="V1.4" stroke="none" stroke-width="1" fill="none" fill-rule="evenodd">
        <g id="形状汇集备份" transform="translate(-187.000000, -844.000000)" fill="#3D4242" fill-rule="nonzero">
            <g id="flying-dragon-fly-legend-myth-svgrepo-com" transform="translate(187.500000, 844.000000)">
                <path d="M42.6677406,7.8984375 C42.6677406,4.609375 44.396318,1.72070312 47,0.083984375 C46.4041423,0.02734375 45.7433891,0 45.1337657,0 C39.4387029,0 34.3788285,2.45117188 30.8489121,6.34765625 C32.0091632,8.19140625 32.6974477,10.4902344 32.6974477,12.9785156 C32.6974477,16.2675781 31.4958996,19.2167969 29.5942678,21.234375 C27.7280335,18.7304688 24.4753975,17.1210938 22.9474059,16.1425781 C22.4459414,15.8203125 22.0310042,15.2890625 22.0310042,14.6601562 C22.0310042,13.7988281 22.7369874,13.0976562 23.6042259,13.0976562 C24.3082427,13.0976562 24.731046,13.6640625 25.1361506,14.1894531 C25.5196234,14.6855469 26.4773222,15.7910156 26.9394561,16.3242188 C27.1616736,16.5800781 27.5215481,16.671875 27.8401255,16.5527344 L28.7093305,16.2304688 L28.0151464,15.9355469 C28.0151464,15.9355469 27.3268619,14.4335938 27.0790795,13.8203125 L29.3209205,14.9355469 L29.2088285,15.8789062 L30.3277824,14.7832031 C30.5578661,14.5566406 30.5558996,14.1875 30.3218828,13.9667969 L29.4231799,13.1132812 C28.8017573,12.3847656 28.7270293,11.3046875 28.2412971,10.2167969 C27.5392469,8.63476562 26.5756485,7.70703125 26.5756485,7.70703125 C26.5756485,8.86132812 26.1862762,9.63085937 26.1862762,9.63085937 C26.1862762,9.63085937 24.8045941,8.9 23.0028619,9.11582031 C21.3484226,9.12617187 19.8060753,8.13808594 19.1685272,6.56621094 C19.1685272,6.56640625 19.1685272,6.56640625 19.1685272,6.56660156 L19.1683305,6.56601562 C19.1683305,6.56601562 18.677682,8.70195312 20.5352636,10.0451172 C20.5069456,10.0640625 20.4788243,10.0830078 20.4507029,10.1027344 C19.2953682,10.4785156 17.9937238,10.1236328 17.202,9.15976562 C17.202,9.15976562 17.0183264,10.5544922 17.9138828,11.3904297 C18.1886067,11.646875 18.4900753,11.7572266 18.7764017,11.7880859 C18.2428828,12.5642578 17.8704226,13.4775391 17.850364,14.4414062 C17.7933347,17.0957031 18.631272,18.1203125 20.450113,20.0058594 C20.7584644,20.3253906 20.8847155,20.7304687 20.8847155,21.0488281 C20.8847155,21.8632812 20.2219958,22.5234375 19.401954,22.5234375 C18.9850502,22.5234375 18.5018745,22.2982422 18.1925397,22.0277344 C16.0675105,20.1685547 14.320251,16.7597656 14.320251,12.9785156 C14.320251,10.4960938 15.0046025,8.203125 16.162887,6.36132812 C12.6329707,2.45703125 7.57112971,0 1.87016736,0 C1.26054393,0 0.595857741,0.02734375 0,0.083984375 C2.60368201,1.72070312 4.33225941,4.609375 4.33225941,7.8984375 C4.33225941,10.7460938 3.03238494,13.2949219 0.993096234,14.9921875 C5.0539749,15.6796875 8.14732218,19.1914062 8.14732218,23.421875 C8.14732218,23.9023437 8.10405858,24.3730469 8.02736402,24.8320312 C8.33807531,24.8085937 8.65468619,24.8046875 8.9732636,24.796875 C13.592636,24.6894531 18.8314644,26.8046875 19.6731381,31.5644531 C20.2632929,34.9009766 21.3743808,38.3707031 23.4181925,41.6521484 C24.7725397,43.8267578 25.1975063,45.6501953 23.4980335,46.9957031 C22.1216611,48.0855469 19.2029414,48.1070312 17.9418075,43.1023438 C18.9061925,43.1443359 19.7944728,43.4880859 20.506159,44.046875 L17.5776067,38.4849609 L14.8545565,44.1490234 C15.5275021,43.5798828 16.375272,43.2068359 17.3081925,43.1169922 C17.3253013,44.8404297 17.6192971,46.9869141 18.7921339,48.1675781 C19.9085314,49.2914063 21.4056485,50 22.9120084,50 C24.4852301,50 25.9339707,49.38125 27.1361088,48.2519531 C28.6086444,46.86875 30.0619079,44.5962891 28.3191715,39.9447266 C26.9229372,36.2181641 26.6904937,33.7814453 27.495,31.0613281 C28.6660669,27.1015625 33.4195565,24.796875 38.0267364,24.796875 C38.3453138,24.796875 38.6599582,24.8085937 38.972636,24.8320312 C38.8959414,24.3710937 38.8526778,23.9023437 38.8526778,23.421875 C38.8526778,19.1914062 41.9460251,15.6796875 46.0069038,14.9921875 C43.9676151,13.2949219 42.6677406,10.7460938 42.6677406,7.8984375 Z" id="路径"></path>
            </g>
        </g>
    </g>
</svg>