<?xml version="1.0" encoding="UTF-8"?>
<svg width="48px" height="42px" viewBox="0 0 48 42" version="1.1" xmlns="http://www.w3.org/2000/svg" xmlns:xlink="http://www.w3.org/1999/xlink">
    <title>动物-29</title>
    <g id="V1.4" stroke="none" stroke-width="1" fill="none" fill-rule="evenodd">
        <g id="形状汇集备份" transform="translate(-258.000000, -988.000000)" fill="#3D4242">
            <g id="动物-29" transform="translate(258.000000, 988.000000)">
                <path d="M46.4602563,0.360130273 C48.4106979,0.960440919 48.0250151,2.7012611 47.841986,4.50663082 C47.5068985,7.81364559 46.1432088,11.0254812 43.9587402,13.5200896 L44.0706327,13.8023325 C44.2153277,14.1814977 44.3409197,14.5561017 44.4366031,14.9163321 C44.9019857,16.6672381 44.4614342,18.5508742 44.6620853,20.3558404 C44.8863661,22.374627 45.6765553,24.2905378 45.9733268,26.299642 C47.5997628,37.3081612 36.9324091,41.385271 26.3803998,41.933942 L26.3803998,41.9976847 C25.8673576,42.0033328 25.3499099,41.9980881 24.8316611,41.9880023 C24.3134123,41.9980881 23.7963651,42.0033328 23.2829223,41.9976847 L23.2829223,41.933942 L22.6497857,41.8967604 C12.3095211,41.2194141 2.09608811,37.0879908 3.68999541,26.299642 C3.98676691,24.2905378 4.77695609,22.374627 5.00123685,20.3558404 C5.20188803,18.5508742 4.76173704,16.6672381 5.22671912,14.9163321 L5.28535692,14.7063275 L5.25279176,14.7518518 C2.44918516,12.2175981 0.662012024,8.61432348 0.197661988,4.85910018 L0.0588082198,3.58926644 C-0.0885957936,2.13792548 -0.0763365287,0.857530522 1.53974367,0.360130273 C3.43491609,-0.222832685 5.49990109,-0.00376771193 7.41309608,0.355289058 C9.70932115,0.786317972 11.9730751,1.75054193 13.5806789,3.45477992 L13.5609047,3.46668902 C16.6808333,1.46454369 20.748101,0.704558249 24.8316611,0.815890311 C28.5056797,0.715723777 32.1665099,1.32086917 35.1360753,2.90140905 L35.0465015,2.85413864 C36.5878458,1.52000461 38.5749099,0.732964403 40.5869039,0.355289058 C42.5000989,-0.00376771193 44.5650839,-0.222832685 46.4602563,0.360130273 Z M20.993977,16.1045276 C17.6802287,17.1151312 14.8787217,20.3292944 14.9143664,23.9315618 C14.9343914,25.9358247 16.0622033,27.9836586 17.906512,28.7360641 C19.1204316,29.2306749 20.5710475,29.371877 21.871075,29.2637565 C22.1398915,29.2414869 22.3971735,29.1789384 22.6505083,29.1011046 L22.8398877,29.0402538 C23.6344824,28.7756007 24.4555102,28.6089822 25.273334,28.761077 L26.251744,28.9472247 C26.9062225,29.0704665 27.5647358,29.1836075 28.225029,29.236323 C30.6696893,29.4311819 33.0434608,27.5237432 33.4163276,25.1212903 C33.7611593,22.8955418 32.8215831,20.4717068 31.4042088,18.7869641 C31.0802032,18.4016841 30.7201525,18.0454513 30.3188501,17.7420685 C27.7191958,15.7797628 24.0994645,15.1576666 20.993977,16.1045276 Z M20.8040192,21.7099282 C23.1285291,21.7099282 23.1285291,25.3408394 20.8040192,25.3408394 C18.4795093,25.3408394 18.4795093,21.7099282 20.8040192,21.7099282 Z M27.5924371,21.7099282 C29.916947,21.7099282 29.916947,25.3408394 27.5924371,25.3408394 C25.2679272,25.3408394 25.2679272,21.7099282 27.5924371,21.7099282 Z M11.9531023,16.8687134 C9.88691579,16.8687134 9.88691579,20.0961899 11.9531023,20.0961899 C14.0192888,20.0961899 14.0192888,16.8687134 11.9531023,16.8687134 Z M36.277226,16.8687134 C34.2110395,16.8687134 34.2110395,20.0961899 36.277226,20.0961899 C38.3434125,20.0961899 38.3434125,16.8687134 36.277226,16.8687134 Z M4.81520397,4.18614239 C3.71702925,4.52422057 3.93410098,5.50456658 4.03743033,6.52081827 C4.23773478,8.49730274 5.09026531,10.4137297 6.45577481,11.850492 L6.7833196,11.1925247 C6.84063621,11.0788532 6.8972829,10.9671563 6.95287997,10.8577803 C7.90872096,8.97850583 9.18437152,7.25087372 10.6947737,5.77373752 L11.050569,5.43445721 C10.2128562,4.77680949 9.17370835,4.38085488 8.12214369,4.18372179 C7.04519553,3.98160106 5.88254009,3.85815009 4.81520397,4.18614239 Z M39.8778563,4.18372179 C39.2045167,4.30995037 38.5362682,4.51769811 37.9225617,4.8232945 L38.1843339,5.04787573 C39.9393183,6.58457645 41.4248438,8.44792474 42.5259263,10.5042871 L42.5547985,10.5599193 C43.3306848,9.35117996 43.8175548,7.95173827 43.9625697,6.52081827 L44.0267845,5.92022683 C44.1001179,5.13811889 44.0633358,4.45660493 43.184796,4.18614239 C42.1174599,3.85815009 40.9548045,3.98160106 39.8778563,4.18372179 Z" id="3"></path>
            </g>
        </g>
    </g>
</svg>