<?xml version="1.0" encoding="UTF-8"?>
<svg width="50px" height="36px" viewBox="0 0 50 36" version="1.1" xmlns="http://www.w3.org/2000/svg" xmlns:xlink="http://www.w3.org/1999/xlink">
    <title>动物-19</title>
    <g id="V1.4" stroke="none" stroke-width="1" fill="none" fill-rule="evenodd">
        <g id="形状汇集备份" transform="translate(-257.000000, -851.000000)" fill="#3D4242">
            <g id="动物-19" transform="translate(257.000000, 851.000000)">
                <path d="M35.8396684,11.8083861 C35.8349724,11.8630109 35.826922,11.9421029 35.8047835,12.0433863 C35.7880119,12.1458077 35.7544688,12.2664373 35.7088501,12.4047062 C35.6967745,12.4394156 35.684699,12.4752631 35.6726234,12.5122486 C35.6578644,12.5480961 35.6424346,12.5850816 35.6263339,12.6232051 C35.596145,12.7005902 35.5552224,12.7785442 35.5136288,12.8604813 C35.4264166,13.0226485 35.3204202,13.1967649 35.1828932,13.3674672 C35.1433123,13.4175398 35.100377,13.4670435 35.0567709,13.5171162 C35.0943393,15.1399261 34.6992008,16.7792372 31.1536883,15.4500352 C30.9973771,15.5336794 30.8564958,15.6224446 30.7384239,15.7180379 C30.600226,15.8267183 30.4895336,15.9416579 30.4056757,16.0531834 C30.3218178,16.1647089 30.2621109,16.2716823 30.2198466,16.3627236 C30.1789239,16.4537648 30.1480642,16.5283048 30.133976,16.5806535 C30.1165336,16.6324332 30.1071415,16.6603146 30.1071415,16.6603146 C30.1071415,16.6603146 30.1057998,16.6312952 30.1037872,16.5772394 C30.1011037,16.5226147 30.1031163,16.4429536 30.1158627,16.3405323 C30.1333052,16.2386799 30.158798,16.1134982 30.2191757,15.9752293 C30.2808951,15.8386675 30.3707908,15.6873114 30.4995965,15.5399385 C30.6284023,15.3925655 30.7941055,15.2497445 30.9846307,15.1188728 C31.1764976,14.989139 31.3911739,14.8707854 31.6192674,14.762674 C31.84669,14.6539935 32.0868591,14.5561242 32.3290408,14.4616689 C32.5712224,14.3672136 32.8154167,14.2767414 33.0508897,14.1822861 C33.1676199,14.1350585 33.2863627,14.0866929 33.3937008,14.0377582 L33.4742044,14.0007727 L33.5614166,13.9586661 C33.6130731,13.9313538 33.6640587,13.9040414 33.7157152,13.877298 C33.9216702,13.7646345 34.1148789,13.6411598 34.2919868,13.5102881 C34.4697655,13.3799853 34.629431,13.2405784 34.7750083,13.1023096 C34.9225983,12.9651787 35.046708,12.8234958 35.1620965,12.690917 C35.2748015,12.5566312 35.3740893,12.4286045 35.4579472,12.3125269 C35.5022242,12.2550572 35.5391216,12.1992944 35.5733357,12.1469457 C35.6082206,12.095166 35.6424346,12.0485074 35.6692691,12.0046938 C35.7256216,11.9176356 35.7698986,11.8465096 35.7994166,11.798144 C35.8289346,11.7503473 35.8470479,11.724742 35.8470479,11.724742 C35.8470479,11.724742 35.8457062,11.7543304 35.8396684,11.8083861 M29.1001757,29.8567405 C29.6200948,30.6101067 26.8474168,30.8616081 26.8474168,30.8616081 C26.8474168,30.8616081 28.5795858,29.1033744 29.1001757,29.8567405 M26.7608754,34.3513321 C26.6662837,34.4588746 26.5488826,34.5465018 26.4180642,34.6216108 C26.2859042,34.6961508 26.1349599,34.7553276 25.9705984,34.7997102 C25.8055661,34.8423858 25.6304707,34.8748192 25.4466542,34.8935965 C25.2601542,34.9123737 25.0810337,34.9192018 24.8797747,34.9169258 C24.6879078,34.9157878 24.4987243,34.9061146 24.3162495,34.8839233 C24.1337747,34.862301 23.9580085,34.8264536 23.793647,34.7797949 C23.4635823,34.6859087 23.1865157,34.5317076 22.9765355,34.3188987 C22.8618179,34.2005451 22.7719222,34.0594312 22.6974564,33.9080752 C23.3528898,33.9080752 24.009665,33.8665376 24.5684941,33.8636926 C24.6650984,33.8631236 24.7596902,33.8648306 24.853611,33.8665376 L24.853611,33.8671066 C24.8650157,33.8671066 24.8764204,33.8671066 24.8871542,33.8665376 C24.8985589,33.8671066 24.9099635,33.8671066 24.9206974,33.8671066 L24.9206974,33.8665376 C25.0152891,33.8648306 25.1098808,33.8631236 25.2064851,33.8636926 C25.7465301,33.8665376 26.3778124,33.9052301 27.0104365,33.9086442 C26.9500588,34.0730874 26.8715678,34.2267195 26.7608754,34.3513321 M20.3125374,29.8567405 C20.8324564,29.1033744 22.5652963,30.8616081 22.5652963,30.8616081 C22.5652963,30.8616081 19.7926183,30.6101067 20.3125374,29.8567405 M19.6410032,16.6603146 C19.6410032,16.6603146 19.6316111,16.6324332 19.6141687,16.5806535 C19.5994097,16.5283048 19.56855,16.4537648 19.5282982,16.3627236 C19.4860338,16.2716823 19.4256561,16.1647089 19.3417982,16.0531834 C19.2586111,15.9416579 19.1479187,15.8267183 19.0097208,15.7180379 C18.8869529,15.6195995 18.7407047,15.5274203 18.5776849,15.4409311 C14.9771616,16.7991524 14.6061742,15.1131827 14.6517929,13.4721646 C14.6222749,13.4374551 14.5927569,13.4021766 14.5652515,13.3674672 C14.4270537,13.1967649 14.3217281,13.0226485 14.233845,12.8604813 C14.1929224,12.7785442 14.1513288,12.7005902 14.1218109,12.6232051 C14.1057101,12.5850816 14.0902803,12.5480961 14.0755213,12.5122486 C14.0627749,12.4752631 14.0506993,12.4394156 14.0392947,12.4047062 C13.9930051,12.2664373 13.9601328,12.1458077 13.9426904,12.0433863 C13.9205519,11.9421029 13.9131724,11.8630109 13.9084763,11.8083861 C13.9024386,11.7543304 13.9010968,11.724742 13.9010968,11.724742 C13.9010968,11.724742 13.9185393,11.7503473 13.9480573,11.798144 C13.9782461,11.8465096 14.0225231,11.9176356 14.0788756,12.0046938 C14.1057101,12.0485074 14.1399242,12.095166 14.1748091,12.1469457 C14.2090231,12.1992944 14.2459206,12.2550572 14.2895267,12.3125269 C14.3740555,12.4286045 14.4733432,12.5566312 14.5853774,12.690917 C14.7014367,12.8234958 14.8255465,12.9651787 14.9731364,13.1023096 C15.1187137,13.2405784 15.2777083,13.3799853 15.4554871,13.5102881 C15.6332659,13.6411598 15.8264745,13.7646345 16.0324295,13.877298 C16.0834151,13.9040414 16.1350716,13.9313538 16.1867281,13.9586661 L16.2732695,14.0007727 L16.353773,14.0377582 C16.461782,14.0866929 16.5805248,14.1350585 16.6965842,14.1822861 C16.9327281,14.2767414 17.1769223,14.3672136 17.419104,14.4616689 C17.6612856,14.5561242 17.9014547,14.6539935 18.1288773,14.762674 C18.3563,14.8707854 18.5716471,14.989139 18.763514,15.1188728 C18.9540392,15.2497445 19.1190716,15.3925655 19.2478773,15.5399385 C19.3766831,15.6873114 19.4672496,15.8386675 19.528969,15.9752293 C19.5893467,16.1134982 19.6148395,16.2386799 19.6316111,16.3405323 C19.6450284,16.4429536 19.647041,16.5226147 19.6443575,16.5772394 C19.6416741,16.6312952 19.6410032,16.6603146 19.6410032,16.6603146 M46.6680935,0.631578947 C44.9990418,-0.210526316 44.1645159,-0.210526316 44.9990418,0.631578947 C45.8335677,1.47368421 47.5026194,3.15789474 46.6251376,5.2437446 C46.2312446,6.18006223 44.9990418,7.36842105 39.4958734,6.02499214 C39.4079903,6.68162699 39.2188068,7.39914567 38.8551989,8.09674908 C39.0524327,7.22730535 38.7760371,6.15529489 38.5070209,5.40306675 C37.8354867,4.63775143 36.7466756,4.08979704 35.6954328,3.79675809 C34.2316091,3.38821058 32.5417044,3.71880404 31.1422836,3.24482064 C29.8025696,2.79132153 28.3085242,1.47368421 24.9704206,1.47368421 C21.6323171,1.47368421 19.9724097,2.79132153 18.6320248,3.24482064 C17.2332748,3.71880404 15.5426993,3.38821058 14.0795465,3.79675809 C12.8518666,4.13930071 11.5732012,4.82893801 10.9674116,5.80592418 C10.7527354,6.50921767 10.5890447,7.37354032 10.7534062,8.09674908 C10.3978487,7.41564689 10.2093361,6.71462944 10.1187696,6.07108176 C10.0483289,6.09099703 9.97788826,6.1109123 9.90811848,6.13139657 C8.40068865,6.56725645 6.72151781,7.08789847 5.0986995,6.8898838 C3.98976247,6.75445997 2.43822185,4.84210526 3.27274773,3.15789474 C3.89507694,1.901932 4.10727361,1.47368421 4.94179949,0.631578947 C5.34046336,0.229294305 3.71481088,0.441899495 2.43822185,1.47368421 C1.04251811,2.60174168 -0.0337478707,4.67893751 0.000809295852,7.26258383 C0.0457118619,10.6196979 5.3965628,11.2234462 8.70928577,10.6595596 C9.12790446,10.5884337 11.0606616,10.4103343 11.613453,10.4120413 C11.647667,10.8075016 11.6825519,11.202393 11.7120699,11.5984223 C11.6496796,11.6029744 10.6158793,11.5483496 10.1858559,11.5073811 C9.42845122,11.4356861 8.59658073,11.3947176 7.9136419,11.7355531 C6.82818508,12.2772485 5.84335776,13.1171038 4.95446389,13.8630728 C4.19773009,14.4986544 2.58967076,15.8625658 4.18364196,16.5715494 C4.8793272,16.8810895 5.77632537,16.6315789 6.96504119,16.838983 C8.15375701,17.046387 7.44537713,17.4736842 8.88572281,17.0404117 C10.1035233,16.6740833 11.0662121,15.3528475 11.7737893,13.0767042 L11.6168073,17.2987412 C11.6597426,18.0731606 11.7965987,18.8373379 12.1179422,19.5759099 C12.7311112,20.9830659 13.9440321,22.107425 15.1281058,23.1919536 C15.9130159,23.9106103 18.4240572,27.0168232 19.5792838,26.8751403 C20.6929169,26.7385785 21.0323737,24.3919908 21.2021021,23.6266755 C21.2067981,23.6044842 21.2108233,23.5828619 21.2155194,23.5606706 C21.2128359,24.7607078 21.0545122,25.960176 20.6533359,27.1306248 C20.4131669,27.8333492 20.1414672,27.4634943 19.6168521,28.0950928 C19.1519439,28.6555653 18.5307244,29.1892945 18.336845,29.8351182 C18.1168018,30.5685691 18.5065734,31.3151072 19.445782,31.7253617 C19.4585284,32.3518392 19.5363485,33.003353 20.2628935,33.4437649 C20.6707784,33.6907142 21.1866722,33.8124819 21.7421471,33.8688136 C21.7709942,33.9922883 22.466843,36 24.9704206,36 C27.4739983,36 27.9261649,33.9883052 27.9436074,33.8756417 C28.5326254,33.823862 29.0827333,33.7038014 29.5120858,33.4437649 C30.2386307,33.003353 30.3164509,32.3518392 30.3291973,31.7253617 C31.267735,31.3151072 31.6581775,30.5685691 31.4374634,29.8351182 C31.2435839,29.1892945 30.6230354,28.6555653 30.1581271,28.0950928 C29.633512,27.4634943 29.3618124,27.8333492 29.1209725,27.1306248 C28.7204671,25.960176 28.5621433,24.7607078 28.558789,23.5606706 C28.5634851,23.5828619 28.5675102,23.6044842 28.5728772,23.6266755 C28.7426056,24.3919908 29.0820624,26.7385785 30.1956955,26.8751403 C31.3509221,27.0168232 33.8619634,23.9106103 34.6468735,23.1919536 C35.8302763,22.107425 37.043868,20.9830659 37.6563662,19.5759099 C38.2427007,18.2307757 38.2172079,16.7997214 38.1219453,15.3794783 C38.1279831,15.3840304 38.1346917,15.3891514 38.1407295,15.3937035 L38.054859,13.0767042 C38.7898601,15.4466207 39.7344356,16.7678565 40.8885856,17.0404117 C42.6198105,17.4492444 42.4436467,16.84069 43.2050765,16.8253268 C43.9665064,16.8099636 44.8956521,16.8810895 45.5913373,16.5715494 C47.1853085,15.8625658 45.5765783,14.4986544 44.8198445,13.8630728 C43.9309506,13.1171038 42.9461233,12.2772485 41.8613374,11.7355531 C41.1777277,11.3947176 40.346528,11.4356861 39.5891234,11.5073811 C39.1591,11.5483496 38.1246288,11.6029744 38.0629094,11.5984223 C38.0821408,11.3344027 38.1150131,10.9389424 38.1615263,10.4120413 C39.8185586,10.5296362 40.7866144,10.6121423 41.0656935,10.6595596 C44.3784165,11.2234462 48.9159459,10.5655072 49.77417,7.26258383 C50.840723,3.15789474 47.8476024,1.22668968 46.6680935,0.631578947 Z" id="26"></path>
            </g>
        </g>
    </g>
</svg>