<?xml version="1.0" encoding="UTF-8"?>
<svg width="48px" height="48px" viewBox="0 0 48 48" version="1.1" xmlns="http://www.w3.org/2000/svg" xmlns:xlink="http://www.w3.org/1999/xlink">
    <title>动物-23</title>
    <g id="V1.4" stroke="none" stroke-width="1" fill="none" fill-rule="evenodd">
        <g id="形状汇集备份" transform="translate(-187.000000, -915.000000)" fill="#3D4242" fill-rule="nonzero">
            <g id="rabbit-face-svgrepo-com" transform="translate(187.000000, 915.000000)">
                <path d="M42.3034804,4.20173101 C41.254687,3.43531931 38.5907036,3.19371562 37.4715106,2.50010502 C34.1427314,0.441673582 29.4891604,-2.33596884 29.231562,3.47851997 C28.9811636,9.15780671 28.274768,13.3850713 27.629972,16.2107144 C26.4260798,16.0664483 25.2144943,15.9959157 24.0019947,15.9995112 C22.4036046,15.9995112 20.9596137,16.117913 19.6364219,16.3219161 C19.2924241,14.0946821 18.9580262,10.9858346 18.7692273,6.70976932 C18.5116289,0.89528051 13.858058,3.67292294 10.5292788,5.73135438 C9.41008576,6.42496497 6.7453024,6.66736867 5.69730894,7.43298037 C2.33732992,9.88741786 -2.00184299,18.4939493 1.01813815,17.6107358 C2.90852635,17.0587274 6.19250585,14.4370874 7.56049731,13.29867 C9.37648597,15.4779032 10.8876765,17.5915355 12.0436693,19.5827659 L12.0532693,19.5995662 C10.2172807,21.355593 9.34128619,23.6540281 9.34128619,26.2780682 C9.34128619,31.2813446 1.72213376,38.6302569 8.51249137,43.5311317 C11.7908709,45.8951679 17.4508356,48 24.0019947,48 C30.5515538,48 36.2099184,45.8951679 39.489098,43.5311317 C46.2778556,38.6302569 38.6595032,31.2813446 38.6595032,26.2780682 C38.6595032,23.1500204 37.403511,20.4891798 34.7675275,18.6555518 C35.4179234,17.1971295 37.0067135,14.1898836 40.441092,10.0682206 C41.8090835,11.206638 45.092263,13.8282781 46.9818512,14.3802865 C50.0018323,15.2627 45.6626594,6.6561685 42.3034804,4.20173101 M8.19089337,12.7658618 L8.19169337,12.7650618 L13.6876591,8.30739372 C14.8084521,9.81861681 16.0452443,13.7330766 16.9244388,16.9267254 C15.2148495,17.4443333 13.8044583,18.1643443 12.6884653,19.0571579 C11.7372712,17.4307331 10.3068802,15.3043006 8.19089337,12.7658618 M34.8803267,25.8404615 C35.5723224,26.5580725 36.1459188,27.4996869 36.3763174,28.4861019 C36.6267158,29.4893173 36.5803161,30.5893341 36.3627175,31.6461502 C36.2579181,32.1757583 36.1067191,32.7053664 35.9123203,33.1949739 L35.8379208,33.3677765 C35.8349126,33.3745729 35.831156,33.3810128 35.8267208,33.3869768 C35.8267208,33.3861768 35.8267208,33.3829767 35.8283208,33.3821767 L35.7923211,33.4269774 C35.7185725,33.5079171 35.637716,33.5820818 35.5507226,33.6485808 C35.3667237,33.793383 35.157925,33.922185 34.9355264,34.0285866 C34.042732,34.4517931 33.0083384,34.5925952 31.9827448,34.5629948 C30.9467513,34.5589947 29.9123578,34.3429914 28.8779642,34.0965876 C29.8470326,34.5715454 30.8795134,34.9043067 31.9435451,35.0846027 C33.0115384,35.2406051 34.1403314,35.2254049 35.2187246,34.8029984 C35.4595231,34.709397 35.6939217,34.5885952 35.9235202,34.4437929 C37.8355083,34.6373959 39.3682987,35.1942044 39.8402958,36.3086214 C41.5338852,40.2974823 33.5731349,47.0327852 24.0011947,47.0327852 C14.4260544,47.0327852 6.46450415,40.2974823 8.15889357,36.3086214 C8.63249062,35.1934044 10.165281,34.6373959 12.0756691,34.4429929 C12.3060677,34.5893952 12.5420662,34.709397 12.7812647,34.8029984 C13.858858,35.2246049 14.9884509,35.2406051 16.0564443,35.0846027 C17.1203568,34.9038198 18.1527692,34.5710806 19.1220251,34.0965876 C18.0876316,34.3429914 17.053238,34.5589947 16.0172445,34.5629948 C14.9916509,34.5925952 13.9564574,34.4517931 13.0644629,34.0285866 C12.8462258,33.9245995 12.6399473,33.7971815 12.4492668,33.6485808 C12.3625796,33.5814231 12.2815115,33.5073098 12.2068683,33.4269774 L12.1716685,33.3821767 C12.1724685,33.3829767 12.1740685,33.3861768 12.1724685,33.3861768 L12.1612686,33.3677765 L12.087669,33.1949739 C11.8913244,32.6932749 11.7405826,32.1749046 11.6372719,31.6461502 C11.4196732,30.5893341 11.3732735,29.4885173 11.6236719,28.4861019 C11.8540705,27.5004869 12.4268669,26.5588725 13.1204626,25.8404615 C13.8164583,25.1124504 14.7196526,24.6716437 15.6676467,24.7004441 C15.8996452,24.7108443 16.1492437,24.7404447 16.3700423,24.7996456 C16.6180408,24.8644466 16.8468393,24.9420478 17.0716379,25.0468494 C17.5336797,25.2582274 17.9489647,25.5595671 18.2932303,25.9332629 C19.0268257,26.6844744 19.5036227,27.7396905 19.7668211,28.8501075 C19.7324069,28.17304 19.5858845,27.5063756 19.3332238,26.8772774 C20.416417,24.6100427 21.6908091,22.598812 22.6756029,21.3027922 C23.6003972,20.0827736 24.3995922,20.0827736 25.3243864,21.3027922 C26.3083803,22.598812 27.5827723,24.6100427 28.6659655,26.8772774 C28.4130205,27.5062879 28.2664875,28.1730004 28.2323683,28.8501075 C28.4963666,27.7388905 28.9731636,26.6852744 29.7059591,25.9332629 C30.0498653,25.5591634 30.4652373,25.2577605 30.9275514,25.0468494 C31.15235,24.9420478 31.3819486,24.8644466 31.629147,24.7996456 C31.8491457,24.7404447 32.0995441,24.7108443 32.3323427,24.7004441 C33.2819367,24.6716437 34.1835311,25.1124504 34.8803267,25.8404615 M34.0707318,18.1979448 C33.0067384,17.5731353 31.7451463,17.0707276 30.2875554,16.702722 C31.0531506,13.6194749 32.7883398,7.12977574 34.3123303,5.07454435 L39.807496,9.53221243 L39.812296,9.53541248 C36.4171172,13.6106747 34.7835274,16.6283208 34.0707318,18.1979448" id="形状"></path>
                <ellipse id="椭圆形" cx="31.8443457" cy="30.0333256" rx="2.61438368" ry="3.20644898"></ellipse>
                <ellipse id="椭圆形" cx="16.1588436" cy="30.0333256" rx="2.61438368" ry="3.20644898"></ellipse>
                <path d="M24.74119,37.7150429 L24.5195914,36.6998274 C25.065188,36.6246262 25.6819842,36.4214231 26.3211802,36.0070168 C27.6715718,35.1294034 28.0635693,34.1133879 27.5555725,33.7029816 C26.8427769,33.1277728 24.6547906,33.0837722 24.0011947,33.0837722 C23.3483987,33.0837722 21.1588124,33.1285728 20.4468169,33.7029816 C19.93962,34.1133879 20.3316176,35.1294034 21.6828091,36.0070168 C22.3220052,36.4238232 22.9404013,36.6246262 23.4851979,36.6998274 L23.2603993,37.7150429 C23.0916003,38.4726545 22.5204039,39.163065 21.7380088,39.6430724 C20.9756136,40.14308 19.9532199,40.403084 18.983626,40.4638849 C17.9132327,40.5014855 16.907639,40.3222827 15.9820447,39.8750759 C15.0660505,39.4414693 14.3052552,38.7358585 13.9172576,37.8374448 C13.9700573,38.7982595 14.6212532,39.7334737 15.5540474,40.3798836 C15.946845,40.6542878 16.4084421,40.8678911 16.8916391,41.0406937 C17.8388331,42.4223148 20.2516181,44.9335532 24.0027947,44.9335532 C27.7547712,44.9335532 30.1683562,42.4191148 31.1139503,41.0390937 C31.5947473,40.866291 32.0515444,40.6526878 32.4499419,40.3782836 C33.3819361,39.7326737 34.033132,38.7974594 34.0891317,37.8374448 C33.7027341,38.7366585 32.9395389,39.4422693 32.0235446,39.8758759 C31.1139503,40.3238828 30.0611568,40.5054855 29.0435632,40.4662849 C28.0179696,40.405484 27.0451757,40.14388 26.2651805,39.6438724 C25.4835854,39.162265 24.908389,38.4734545 24.74119,37.7150429 M26.6627781,42.4831157 L21.3396113,42.4831157 L21.3396113,41.1198949 C21.7634321,40.9911133 22.1738592,40.8217951 22.5652036,40.6142872 C23.1165522,40.304884 23.603688,39.8929549 24.0003947,39.4006687 C24.3972039,39.8927352 24.8846649,40.3041666 25.4363857,40.6126872 C25.8270963,40.8221305 26.2379837,40.9915281 26.6627781,41.1182949 L26.6627781,42.4831157" id="形状"></path>
            </g>
        </g>
    </g>
</svg>