<?xml version="1.0" encoding="UTF-8"?>
<svg width="48px" height="48px" viewBox="0 0 48 48" version="1.1" xmlns="http://www.w3.org/2000/svg" xmlns:xlink="http://www.w3.org/1999/xlink">
    <title>动物-25</title>
    <g id="V1.4" stroke="none" stroke-width="1" fill="none" fill-rule="evenodd">
        <g id="形状汇集备份" transform="translate(-328.000000, -915.000000)" fill="#3D4242" fill-rule="nonzero">
            <g id="fox-svgrepo-com" transform="translate(328.000000, 915.000000)">
                <path d="M32.7672,29.8519708 C34.068551,29.8183672 35.1060271,28.7537538 35.1060271,27.4519669 C35.1060271,26.15018 34.068551,25.0855666 32.7672,25.0519631 C31.465849,25.0855666 30.4283729,26.15018 30.4283729,27.4519669 C30.4283729,28.7537538 31.465849,29.8183672 32.7672,29.8519708" id="路径"></path>
                <path d="M43.4488,22.8111594 C44.4816,17.1855504 42.7752,1.05512442 40.4768,0.187123025 C36.8312,-1.19127919 30.5816,5.36713136 27.2392,9.31913773 C26.1408,9.00873723 25.0552,8.83673695 24.0008,8.83673695 C22.9464,8.83673695 21.86,9.00873723 20.7616,9.31913773 C17.4176,5.36713136 11.1688,-1.19127919 7.5224,0.187123025 C5.2248,1.05432442 3.5176,17.1855504 4.5512,22.8119594 C1.7832,26.9583661 0,31.2983731 0,34.7119786 C14.836,34.7119786 14.1672,48 24,48 C33.8328,48 33.1624,34.7119786 48,34.7119786 C48,31.2983731 46.216,26.9583661 43.4488,22.8111594 M18.3232,24.0215614 C20.2488,26.9743662 17.7728,31.5463735 17.7728,31.5463735 C8.8728,32.446375 7.3224,23.3215603 7.3224,23.3215603 C11.864,21.8719579 16.0728,20.5719558 18.3232,24.0215614 M7.9688,2.95352748 C11.5784,6.12393258 13.1,9.79273849 13.6224,13.0727438 C13.1528,13.4263443 12.6872,13.7967449 12.2272,14.1831456 C11.4657821,12.2777212 10.2751984,10.5735603 8.748,9.20313754 C8.748,9.20313754 9.16,11.5767414 9.0848,14.471146 C8.5288,13.841545 7.808,13.3327442 6.8688,13.1671439 C6.8688,13.1671439 7.5112,16.1999488 6.752,19.8111546 C6.16,20.5471558 5.5992,21.299957 5.0664,22.0615582 C4.8376,15.8975483 6.5032,4.2063295 7.9688,2.95352748 M0.4784,34.1639777 C8.3688,29.7055705 13.9288,31.1783729 17.6592,34.1191777 C17.2548221,34.9711716 16.9097353,35.8500617 16.6264,36.7495819 C16.252,37.9759839 15.9944,39.299186 16.0256,40.6359881 C10.58,33.6255769 0.4784,34.1639777 0.4784,34.1639777 M22.5784,44.4383943 C22.0952,44.9599951 21.3544,45.2399956 20.5976,45.2255955 C19.8392,45.2175955 19.068,44.9295951 18.4376,44.4183942 C17.8032,43.9087934 17.3144,43.1767922 17.0176,42.3423909 C16.4176,40.6551882 16.5568,38.687185 16.988,36.8663821 C17.2059073,35.9751086 17.4836025,35.0995253 17.8192,34.2455779 C19.1864,35.3543796 20.3032,36.6527817 21.1896,37.9223838 C20.5088,38.066384 19.8864,38.2879844 19.5416,38.6359849 C18.9064,39.276786 19.3968,40.8663885 21.092,42.2391907 C21.8184,42.8279917 22.5232,43.1383922 23.1576,43.2791924 C23.06,43.7207931 22.8768,44.1191938 22.5784,44.4383943 M40.0312,2.95352748 C41.4952,4.20552949 43.1608,15.8967483 42.9328,22.0615582 C42.3961945,21.2928304 41.8340132,20.5422758 41.2472,19.8111546 C40.488,16.2007488 41.1304,13.1679439 41.1304,13.1679439 C40.1912,13.3335442 39.4712,13.842345 38.9144,14.471946 C38.8392,11.5775414 39.252,9.20393754 39.252,9.20393754 C37.7248793,10.5746006 36.5340815,12.278676 35.772,14.1839456 C35.3170098,13.8019904 34.8523245,13.4317354 34.3784,13.0735438 C34.9,9.79273849 36.4216,6.12393258 40.0312,2.95352748 M29.6768,24.0215614 C31.9272,20.5711558 36.136,21.8711579 40.6768,23.3215603 C40.6768,23.3215603 39.1264,32.446375 30.2264,31.5463735 C30.2264,31.5471735 27.7512,26.9751662 29.6768,24.0215614 M30.9816,42.3431909 C30.6864,43.1775922 30.196,43.9095934 29.5616,44.4191942 C28.932,44.9303951 28.1616,45.2183955 27.4024,45.2263955 C26.6464,45.2407956 25.904,44.9607951 25.4224,44.4391943 C25.124,44.1207938 24.9408,43.7223931 24.8424,43.2799924 C25.4768,43.1391922 26.18,42.8295917 26.908,42.2399907 C28.6,40.8671885 29.0936,39.277586 28.4584,38.6367849 C28.1112,38.2887844 27.4896,38.067184 26.8096,37.9231838 C27.6968,36.6535817 28.8144,35.3551796 30.18,34.2463779 C30.5128,35.1015792 30.7984,35.9743806 31.0112,36.8671821 C31.4424,38.687185 31.5832,40.6551882 30.9816,42.3431909 M31.9736,40.6367881 C32.0048,39.299186 31.7472,37.9767839 31.3736,36.7503819 C31.0902647,35.8508617 30.7451779,34.9719716 30.3408,34.1199777 C34.0704,31.1783729 39.6312,29.7055705 47.5224,34.1647777 C47.5216,34.1639777 37.4184,33.6255769 31.9736,40.6367881" id="形状"></path>
                <path d="M15.232,29.8519708 C16.5574834,29.8519708 17.632,28.7774525 17.632,27.4519669 C17.632,26.1264814 16.5574834,25.0519631 15.232,25.0519631 C13.9065166,25.0519631 12.832,26.1264814 12.832,27.4519669 C12.832,28.7774525 13.9065166,29.8519708 15.232,29.8519708" id="路径"></path>
            </g>
        </g>
    </g>
</svg>