<?xml version="1.0" encoding="UTF-8"?>
<svg width="61px" height="45px" viewBox="0 0 61 45" version="1.1" xmlns="http://www.w3.org/2000/svg" xmlns:xlink="http://www.w3.org/1999/xlink">
    <title>gun-svgrepo-com的副本</title>
    <g id="页面-1" stroke="none" stroke-width="1" fill="none" fill-rule="evenodd">
        <g id="形状库素材-其他" transform="translate(-803.000000, -79.000000)" fill="#545458" fill-rule="nonzero">
            <g id="gun-svgrepo-com的副本" transform="translate(803.302064, 79.623475)">
                <path d="M58.7887073,13.3561551 L58.7887073,11.6968116 C58.8041088,11.6773981 58.8184748,11.6570785 58.8311584,11.6354647 C60.3895512,8.96312067 60.3895512,5.64288072 58.8311584,2.97040723 C58.7383614,2.8113453 58.5681691,2.71350085 58.3839989,2.71350085 L56.2139489,2.71350085 C55.965455,1.17711009 54.6303184,0 53.0248153,0 L51.9393373,0 C51.65344,0 51.4216418,0.231798151 51.4216418,0.517695479 C51.4216418,1.72845578 50.4365967,2.71350085 49.225707,2.71350085 L35.7720958,2.71350085 C35.4961641,2.2702241 35.1219997,1.8858352 34.6661688,1.59269014 C33.635696,0.929910503 32.3553056,0.838019556 31.2408367,1.34600824 L23.8784304,4.7026163 L22.7361354,4.7026163 C22.5022664,4.7026163 22.2973884,4.85934861 22.2364298,5.08519326 C22.1858251,5.27208133 22.1313376,5.45754574 22.0741323,5.64210417 C20.9682053,4.6803554 18.3788219,3.04469653 14.01219,3.66851959 C13.8047235,3.69815765 13.635696,3.84984243 13.583797,4.05277905 C13.531898,4.25571568 13.6073521,4.46991219 13.7750855,4.59545334 L13.8536458,4.65498832 C15.4397353,5.86303072 16.1687799,7.75481942 15.8038046,9.71546162 C15.4388293,11.6763627 14.0776785,13.1794915 12.1628523,13.7360141 L9.87049674,14.4024176 C9.6951274,14.4534106 9.55949118,14.593059 9.51367514,14.7699814 L8.92984406,17.0289456 C6.58105967,17.910581 4.49086418,19.4288525 2.93518926,21.4098142 C0.982700767,23.8957879 -0.0589025355,27.0064906 0.00257380259,30.1685746 C0.0729803877,33.7932195 1.56239028,37.1874899 4.19629545,39.7261391 C6.81712881,42.2522342 10.2665338,43.6434114 13.9091686,43.6434114 L16.0731357,43.6434114 C16.9177559,43.6434114 17.6754032,43.2075118 18.0999135,42.4775611 C18.5241649,41.7479988 18.5283065,40.8745171 18.1109145,40.141072 C17.6011139,39.2448117 17.3316534,38.2257282 17.3316534,37.1939611 C17.3316534,35.8720257 17.7663882,34.6180378 18.5891357,33.5676337 C20.4954199,31.1330413 23.8838662,30.5740596 26.470014,32.2677003 L28.1592543,33.3744038 C30.4022994,34.8440119 32.7663558,36.3930862 34.4660795,37.5057432 C34.8908486,37.7849105 35.4305462,37.7235636 35.7789552,37.3565175 C36.1329295,36.9835179 36.1639913,36.4285483 35.8537622,36.0061088 L35.792933,35.9236658 C35.4568192,35.466929 35.1969361,34.9751183 35.0105657,34.4646705 C36.3834941,34.1422757 37.4090489,32.9082191 37.4090489,31.4382228 L37.4090489,27.3643476 L39.2006635,25.8398638 L49.3614727,25.8398638 C49.64737,25.8398638 49.8791681,25.6080657 49.8791681,25.3221684 C49.8791681,24.2782354 49.6627714,23.2678233 49.254698,22.3395953 L58.3839989,22.3395953 C58.5681691,22.3395953 58.7383614,22.2417508 58.8311584,22.0826889 C60.3895512,19.4102154 60.3895512,16.0899755 58.8311584,13.4176314 C58.8184748,13.3958882 58.8041088,13.3755687 58.7887073,13.3561551 Z M27.8995006,12.9999806 C27.8995006,12.6223217 27.9432459,12.2516518 28.0258183,11.8923711 L57.7533164,11.8923711 L57.7533164,13.160725 L27.9035128,13.160725 C27.9018303,13.1071436 27.8995006,13.0538209 27.8995006,12.9999806 Z M58.0798528,10.8569802 L28.3906642,10.8569802 C28.6269922,10.3711229 28.944469,9.92253981 29.3379175,9.52909125 C29.4377033,9.42930545 29.5412424,9.33430833 29.6480171,9.24409989 C30.4917313,8.53239803 31.5803155,8.17777663 32.6841717,8.19046017 L32.6863719,8.19046017 C32.7004791,8.19058959 32.7145863,8.19071901 32.7286935,8.19071901 C33.458903,8.19071901 34.1554622,7.97289864 34.7460233,7.56831963 C35.6697215,8.19033074 36.9061077,8.1179828 37.7539635,7.34596942 C38.0156586,7.10808834 38.3535843,6.97711139 38.7052289,6.97711139 C39.0568736,6.97711139 39.3946699,7.10808834 39.6564944,7.34596942 C40.1092191,7.7574079 40.6944738,7.98402909 41.3040602,7.98402909 C41.9030339,7.98402909 42.4781936,7.76530275 42.9276827,7.36745378 C42.9364835,7.36033547 42.9452843,7.35295831 42.9535675,7.3453223 C43.4955946,6.85105254 44.3127769,6.85105254 44.8546747,7.3453223 C45.3062346,7.75714905 45.8916187,7.98402909 46.5028877,7.98402909 C47.1111798,7.98402909 47.6937167,7.75947868 48.1445,7.35140522 C48.3254346,7.18768402 48.544808,7.06667271 48.7828185,7.01283238 C49.24525,6.90825789 49.7138939,7.03664637 50.0523373,7.3453223 C50.060491,7.35282888 50.0689035,7.3599472 50.0775749,7.36693608 C50.5433714,7.78044535 51.1226727,7.98713527 51.7019739,7.98713527 C52.290982,7.98713527 52.87999,7.77345646 53.3494104,7.34596942 C53.6111054,7.10808834 53.9490311,6.97711139 54.3006758,6.97711139 C54.6523205,6.97711139 54.9901168,7.10808834 55.2519412,7.34596942 C55.7046659,7.7574079 56.2899207,7.98402909 56.8995071,7.98402909 C57.4984808,7.98402909 58.0736404,7.76530275 58.5231295,7.36745378 C58.5319304,7.36033547 58.5406018,7.35308773 58.5490143,7.3453223 C58.6700256,7.23505316 58.808768,7.1479509 58.9581232,7.08595686 C58.9951384,8.38058383 58.7047112,9.68258796 58.0798528,10.8569802 Z M52.4156171,1.03539096 L53.0248153,1.03539096 C54.0571001,1.03539096 54.9228163,1.75214035 55.1564264,2.71350085 L51.5907988,2.71350085 C52.0154385,2.25637574 52.3115603,1.67823932 52.4156171,1.03539096 Z M58.0798528,3.74889181 C58.4643711,4.4715947 58.7211481,5.24283154 58.8551018,6.03076405 C58.4943974,6.12938504 58.1581542,6.30798998 57.8754925,6.55894287 C57.8672094,6.56567291 57.8589262,6.5726618 57.8510314,6.57990953 C57.5892069,6.81779061 57.2512812,6.94889699 56.8996365,6.94889699 C56.5479919,6.94889699 56.2101956,6.81792003 55.9483711,6.58003896 C55.4956464,6.16860047 54.9103917,5.94197928 54.3008052,5.94197928 C53.6912188,5.94197928 53.1059641,6.16860047 52.6529805,6.5802978 C52.1108239,7.07379102 51.2932533,7.07379102 50.7510968,6.5802978 C50.7430725,6.57305007 50.7349188,6.56593175 50.7265062,6.55920171 C50.2781819,6.16083504 49.702634,5.94184986 49.1019778,5.94184986 C48.4905794,5.94184986 47.9053247,6.16860047 47.4537648,6.58055665 C47.1932346,6.81804945 46.8556971,6.94889699 46.5031465,6.94889699 C46.1505959,6.94889699 45.812929,6.81804945 45.5525282,6.58055665 C44.6209352,5.73088895 43.2196629,5.72351179 42.2797868,6.55907229 C42.2716331,6.56567291 42.26335,6.5726618 42.2554551,6.57990953 C41.9936306,6.81779061 41.6557049,6.94889699 41.3040602,6.94889699 C40.9524156,6.94889699 40.6146193,6.81792003 40.3527948,6.58003896 C39.9000701,6.16860047 39.3148154,5.94197928 38.7052289,5.94197928 C38.0956425,5.94197928 37.5103878,6.16860047 37.0574042,6.5802978 C36.6318585,6.96753402 36.0374147,7.04958876 35.538874,6.82905048 C36.0392266,6.19888566 36.311405,5.4248015 36.311405,4.60710149 C36.311405,4.31369758 36.2751664,4.02611774 36.2073482,3.74902123 L58.0798528,3.74902123 L58.0798528,3.74889181 Z M31.6702651,2.28808459 C32.4629863,1.92686257 33.3734832,1.99235105 34.1058929,2.46345393 C34.8385614,2.93455682 35.2758847,3.73594942 35.2758847,4.60697206 C35.2758847,5.29317742 35.0070713,5.93680232 34.5190139,6.41929451 C34.0309565,6.9017867 33.3848725,7.15946962 32.6981494,7.15537721 L24.5074304,7.0612369 L24.5074304,5.55383709 L31.6702651,2.28808459 Z M23.4721689,15.6808666 C23.2121563,15.8075726 22.9266473,15.8742259 22.633114,15.8742259 C21.5719676,15.8742259 20.7087104,15.0109687 20.7087104,13.9496929 C20.7087104,12.8884172 21.5719676,12.02516 22.633114,12.02516 C22.9266473,12.02516 23.2122858,12.0918133 23.4721689,12.2185193 L23.4721689,15.6808666 Z M10.4425502,15.3143382 L12.4518558,14.7301189 C14.7158676,14.0721279 16.3903536,12.2230491 16.8218528,9.90480874 C17.184369,7.95723835 16.6089505,6.00306735 15.3038402,4.58121671 C19.0876765,4.38630437 21.1043592,6.09560541 21.7012621,6.70881571 C20.8769615,8.82942581 19.6092547,10.7639244 17.9768314,12.3718865 C15.9035904,14.412901 13.3130423,15.8566242 10.4850013,16.5471006 C10.3548009,16.5789389 10.2260241,16.6150481 10.0971179,16.6505103 L10.4425502,15.3143382 Z M35.0321795,36.6374384 C35.0320501,36.6378267 35.0319207,36.638215 35.0316618,36.6386033 C33.3311616,35.5254286 30.9683994,33.9772602 28.7263897,32.5084287 L27.0371494,31.4015958 C25.578413,30.4464476 23.8279551,30.0765542 22.1079119,30.3603808 C20.3879981,30.6440779 18.84876,31.5563867 17.7737653,32.9291857 C16.8070985,34.1636306 16.296133,35.6384156 16.296133,37.1939611 C16.296133,38.4048508 16.612445,39.6011156 17.2109009,40.6532023 C17.4438639,41.06257 17.4415343,41.5499803 17.204818,41.9571478 C16.9677135,42.3647035 16.5446269,42.6081498 16.0730063,42.6081498 L13.9090392,42.6081498 C10.5358649,42.6081498 7.34155433,41.3198646 4.91459793,38.980787 C2.47961724,36.6338146 1.10267669,33.4970977 1.03757649,30.1486433 C0.980888833,27.2246993 1.94393185,24.3482537 3.74939483,22.0492976 C5.49868785,19.8219128 7.9779315,18.2250811 10.7305184,17.5529829 C13.7400116,16.8182436 16.4968694,15.2818528 18.7032876,13.109732 C20.780023,11.0641878 22.3041185,8.52230297 23.1275131,5.73800726 L23.4720395,5.73800726 L23.4720395,11.1116863 C23.201673,11.0317024 22.9197878,10.9900279 22.6329845,10.9900279 C21.0009495,10.9900279 19.6731901,12.3177874 19.6731901,13.9499518 C19.6731901,15.5821162 21.0009495,16.9098757 22.6329845,16.9098757 C22.9199172,16.9098757 23.2018024,16.8680718 23.4720395,16.7880878 L23.4720395,22.6332581 C23.4720395,22.9191554 23.7038376,23.1509535 23.989735,23.1509535 L29.0856704,23.1509535 C29.0527967,23.3353825 29.0346774,23.5248591 29.0346774,23.7186066 C29.0346774,25.500385 30.4842247,26.949803 32.2660031,26.949803 C34.0477816,26.949803 35.4971995,25.5002556 35.4971995,23.7186066 C35.4971995,23.5248591 35.4790801,23.3353825 35.4462065,23.1509535 L40.7631979,23.1509535 L36.0482863,27.1627052 C33.2929816,29.5060538 32.8145015,33.6240625 34.9589256,36.5380409 L35.019496,36.6200956 C35.0280379,36.6312261 35.0315324,36.6384738 35.0321795,36.6374384 Z M30.0701978,23.7184772 C30.0701978,22.5077169 31.0552428,21.5226718 32.2661326,21.5226718 C33.4768929,21.5226718 34.4619379,22.5077169 34.4619379,23.7184772 C34.4619379,24.9292375 33.4770223,25.9142826 32.2661326,25.9142826 C31.0553723,25.9142826 30.0701978,24.9292375 30.0701978,23.7184772 Z M34.7433054,33.463318 C34.4198752,31.6125567 34.9897285,29.6554089 36.3735285,28.2721266 L36.3735285,31.4382228 C36.3735285,32.4294802 35.6742513,33.259346 34.7433054,33.463318 Z M40.4175067,24.8046023 L42.5060197,23.0273537 C42.671294,22.8867994 42.7313467,22.657978 42.6564102,22.4543943 C42.5814738,22.2506811 42.3875969,22.1154331 42.170553,22.1154331 L35.0698419,22.1154331 C34.512025,21.1437187 33.464727,20.4872809 32.2661326,20.4872809 C31.0675381,20.4872809 30.0201107,21.1437187 29.4622939,22.1154331 L24.5075599,22.1154331 L24.5075599,8.09649844 L29.3688498,8.15240955 C29.0992599,8.34434515 28.8437772,8.55905935 28.6058961,8.79694042 C27.4826263,9.92021018 26.8641097,11.4128557 26.8641097,12.9999806 C26.8641097,16.2778989 29.5308885,18.9448072 32.8089363,18.9448072 L42.466416,18.9448072 C44.1693753,18.9448072 45.7712545,19.6081045 46.9764496,20.8118759 C48.057786,21.8945066 48.702964,23.2965554 48.8233282,24.8046023 L40.4175067,24.8046023 L40.4175067,24.8046023 Z M58.0798528,21.3042043 L48.6967517,21.3042043 C48.4140899,20.8676576 48.084965,20.4567368 47.7086004,20.079984 C47.865721,19.9906815 48.0142996,19.8844245 48.1511006,19.7599187 C48.4115015,19.5224259 48.7490389,19.3917078 49.101719,19.3917078 C49.454399,19.3917078 49.7919365,19.5224259 50.0523373,19.7599187 C50.060491,19.7674253 50.0689035,19.7745436 50.0775749,19.7815325 C50.5433714,20.1950418 51.1226727,20.4017317 51.7019739,20.4017317 C52.290982,20.4017317 52.87999,20.1880529 53.3494104,19.7605658 C53.610976,19.5228142 53.9489017,19.3917078 54.3006758,19.3917078 C54.6524499,19.3917078 54.9902462,19.5226848 55.2519412,19.7605658 C55.7045365,20.1720043 56.2897913,20.3986255 56.8995071,20.3986255 C57.4984808,20.3986255 58.0737699,20.1798992 58.5231295,19.7820502 C58.5320598,19.7749319 58.5408606,19.7674253 58.5492732,19.7597893 C58.6053137,19.7085374 58.6656252,19.6627214 58.7289135,19.6215646 C58.5817586,20.2003482 58.3662678,20.765801 58.0798528,21.3042043 Z M58.931203,18.4252998 C58.5407312,18.5188732 58.176403,18.7057613 57.8752337,18.9734099 C57.86708,18.9800105 57.8587968,18.9869994 57.850902,18.9942471 C57.5892069,19.2321282 57.2512812,19.3632346 56.8996365,19.3632346 C56.5478625,19.3632346 56.2100662,19.2322576 55.9483711,18.9943765 C55.4956464,18.5829381 54.9105211,18.3563169 54.3008052,18.3563169 C53.6910894,18.3563169 53.1059641,18.5828086 52.6529805,18.9946354 C52.1108239,19.4881286 51.2932533,19.4881286 50.7510968,18.9946354 C50.7430725,18.9873876 50.7349188,18.9803988 50.7265062,18.9735393 C50.2783114,18.575302 49.7027634,18.3563169 49.1019778,18.3563169 C48.4905794,18.3563169 47.9053247,18.5830675 47.4540237,18.9946354 C47.273348,19.1591331 47.0585043,19.2709553 46.8251531,19.3251839 C45.5658588,18.4065333 44.0543175,17.9094162 42.466416,17.9094162 L32.8089363,17.9094162 C30.5143805,17.9094162 28.5831175,16.3268212 28.0475615,14.196116 L58.0799822,14.196116 C58.7784828,15.5092506 59.0599798,16.9818354 58.931203,18.4252998 Z" id="形状"></path>
                <path d="M32.2661326,6.05548401 C33.1500976,6.05548401 33.869306,5.33627557 33.869306,4.45231054 C33.869306,3.56834551 33.1500976,2.84913707 32.2661326,2.84913707 C31.3821675,2.84913707 30.6629591,3.56834551 30.6629591,4.45231054 C30.6629591,5.33627557 31.3821675,6.05548401 32.2661326,6.05548401 Z M32.2661326,3.88452802 C32.5792089,3.88452802 32.8339151,4.1392342 32.8339151,4.45231054 C32.8339151,4.76538688 32.5792089,5.02009306 32.2661326,5.02009306 C31.9530562,5.02009306 31.6983501,4.76538688 31.6983501,4.45231054 C31.6983501,4.1392342 31.9530562,3.88452802 32.2661326,3.88452802 Z" id="形状"></path>
                <path d="M11.6694885,18.2963936 C6.32272963,19.3849778 2.44208432,24.1352221 2.44208432,29.591603 C2.44208432,36.4390317 8.01287594,42.0098233 14.8603046,42.0098233 L15.5777011,42.0098233 C15.8355135,42.0098233 16.0542398,41.8200879 16.0903491,41.5647346 C16.1264583,41.3093813 15.9690789,41.0663233 15.7213616,40.9948813 C14.447313,40.6267998 13.4585147,39.7002543 13.0085079,38.4527376 C12.5585011,37.205221 12.7281758,35.8608952 13.4739161,34.7641574 L18.1009489,27.9596974 C19.5630503,25.8095787 19.576381,23.1290809 18.1357639,20.9645961 C16.6951468,18.7999819 14.2174563,17.7777922 11.6694885,18.2963936 Z M17.24481,27.3775488 L12.6177772,34.1820088 C11.6833369,35.556102 11.4708229,37.2408125 12.0345933,38.803994 C12.3296797,39.6219529 12.809454,40.329772 13.4287472,40.884871 C7.82521133,40.1788638 3.47734585,35.3834506 3.47734585,29.591603 C3.47734585,24.6253503 7.00945268,20.301687 11.8759196,19.3108179 C12.2421892,19.2362697 12.6063879,19.1999016 12.964892,19.1999016 C14.6890768,19.1999016 16.2782725,20.0423216 17.2738009,21.5382027 C18.476537,23.3452188 18.4654065,25.5826986 17.24481,27.3775488 Z" id="形状"></path>
                <path d="M12.7285641,22.657978 C11.6203075,22.657978 10.7184819,23.5596741 10.7184819,24.6681896 C10.7184819,25.7765756 11.6203075,26.6782717 12.7285641,26.6782717 C13.8369501,26.6782717 14.7387756,25.7765756 14.7387756,24.6681896 C14.7387756,23.5598035 13.8369501,22.657978 12.7285641,22.657978 Z M12.7285641,25.6428807 C12.1911962,25.6428807 11.7538729,25.2056869 11.7538729,24.6681896 C11.7538729,24.1306922 12.1911962,23.693369 12.7285641,23.693369 C13.2660614,23.693369 13.7033846,24.1306922 13.7033846,24.6681896 C13.7033846,25.2056869 13.2660614,25.6428807 12.7285641,25.6428807 Z" id="形状"></path>
            </g>
        </g>
    </g>
</svg>
