<?xml version="1.0" encoding="UTF-8"?>
<svg width="60px" height="20px" viewBox="0 0 60 20" version="1.1" xmlns="http://www.w3.org/2000/svg" xmlns:xlink="http://www.w3.org/1999/xlink">
    <title>56</title>
    <g id="页面-1" stroke="none" stroke-width="1" fill="none" fill-rule="evenodd">
        <g id="乐符" transform="translate(-478.000000, -569.000000)" fill="#545458">
            <path d="M506.027513,569.210951 L506.137901,569.665606 C506.180713,569.838951 506.222426,570.003469 506.28109,570.231761 C506.511555,571.084364 506.754511,571.928891 507.012199,572.76766 C507.259003,572.70776 507.505719,572.646809 507.752298,572.585054 L508.12206,572.491849 C509.2337,572.209954 510.349736,571.941435 511.460256,571.710288 C511.431223,571.492822 511.403699,571.273847 511.377471,571.053351 L511.567589,571.033195 C511.578902,571.04997 511.582283,571.064145 511.596848,571.084301 L511.620255,571.116941 C511.627927,571.128904 511.63638,571.140998 511.647043,571.150231 L511.690606,571.197435 L511.691907,571.199126 C511.69179,571.199232 511.693708,571.20037 511.700619,571.204327 L511.738071,571.233846 C511.763428,571.254002 511.789696,571.273638 511.815964,571.294315 L511.873577,571.340474 L512.009434,571.453608 C512.027987,571.469203 512.046611,571.484996 512.06512,571.500948 L512.147496,571.572141 L512.242975,571.553744 C513.382698,571.335512 514.514161,571.160385 515.621284,571.055342 L515.84238,571.035276 C516.154735,571.003806 516.465789,570.988982 516.773203,570.967265 C517.081397,570.956472 517.38634,570.937876 517.688551,570.937746 C518.292715,570.924612 518.884135,570.945549 519.45826,570.98183 C520.606119,571.063234 521.685578,571.233066 522.657754,571.486123 C522.844346,571.533762 523.027072,571.583852 523.205814,571.63602 L523.396353,571.622284 C523.656873,571.604949 523.857291,571.597933 524.044516,571.594188 L524.298853,571.590415 C524.362665,571.631563 524.403986,571.657584 524.455468,571.68843 L524.524212,571.729037 C524.693296,571.828275 524.830454,571.903959 524.963309,571.968168 C525.152868,572.011719 525.338437,572.057849 525.520003,572.106038 C525.5919,572.115234 525.663398,572.124974 525.73449,572.135151 C526.419832,572.229557 527.067412,572.356618 527.67189,572.505061 C528.427698,572.588411 529.141056,572.710356 529.805071,572.857802 C530.83114,572.968078 531.780181,573.14498 532.635194,573.358849 L532.762739,573.391203 C533.344406,573.533206 533.876268,573.7098 534.368468,573.869618 L534.911517,574.06908 C535.191194,574.172781 535.453988,574.274142 535.695262,574.382494 C535.892402,574.46741 536.081219,574.542963 536.255082,574.622548 L537.156516,575.055449 L538.116338,575.572747 L538.112047,575.580549 L537.151445,575.065332 L536.24975,574.634381 C536.075887,574.555057 535.88694,574.480024 535.6898,574.395628 C535.297601,574.220205 534.848704,574.063767 534.363006,573.885613 L534.015814,573.773679 C533.662059,573.660363 533.28825,573.544784 532.891063,573.443899 L532.757798,573.410839 C531.932333,573.200208 531.016786,573.023549 530.026844,572.908425 C530.291615,572.970467 530.548144,573.036473 530.795969,573.105562 L530.943615,573.147379 C531.474957,573.292633 531.959875,573.468706 532.408511,573.628135 L532.839405,573.798679 C533.118209,573.909772 533.379213,574.0173 533.617099,574.131128 C533.796554,574.213573 533.968856,574.286915 534.126724,574.364809 L534.946494,574.782496 L535.818799,575.278597 L535.813988,575.2864 L534.941032,574.792639 L534.120872,574.376643 C533.963004,574.299399 533.790702,574.226447 533.611117,574.144262 C533.254159,573.97456 532.845444,573.818773 532.402529,573.64439 L532.059115,573.523244 C531.747551,573.414124 531.418793,573.302939 531.069836,573.20375 L530.938024,573.167145 C530.585603,573.06649 530.214904,572.971963 529.827322,572.886153 C529.49148,572.850307 529.147454,572.821599 528.795752,572.801083 L528.725212,572.796922 C528.789734,572.816893 528.853618,572.837064 528.916856,572.857417 L529.011227,572.88808 C529.489383,573.038926 529.925145,573.213699 530.328528,573.372347 L530.787063,573.572322 C530.773602,573.472544 530.85341,573.403788 531.010326,573.401736 C531.239195,573.398745 531.545048,573.538798 531.693424,573.714741 C531.80005,573.840732 531.796603,573.950964 531.70163,574.004155 L531.698877,574.00558 L531.727611,574.019776 L534.590055,574.622938 L534.575621,574.691599 L534.552763,574.692071 C534.548789,574.692162 534.544541,574.692379 534.53973,574.692899 L534.516583,574.69537 L534.492265,574.698621 L534.456635,574.705383 L534.403058,574.72258 L534.350587,574.738754 L534.323604,574.746475 C534.288233,574.756488 534.250912,574.765981 534.21255,574.775604 C534.135307,574.7942 534.053122,574.812795 533.963655,574.82931 C533.875098,574.846346 533.779779,574.86156 533.678478,574.874434 C533.578347,574.887958 533.468074,574.897191 533.352989,574.903043 C533.330581,574.904076 533.30772,574.904885 533.284409,574.905428 L533.386149,574.967022 L533.381337,574.974955 L533.26644,574.905756 C533.17456,574.907373 533.075855,574.90475 532.970672,574.895501 L532.870672,574.884577 L532.80465,574.873529 C532.795191,574.87192 532.785323,574.870186 532.774573,574.868192 C532.738682,574.86143 532.703571,574.854538 532.669371,574.847516 C532.636601,574.840234 532.607212,574.832561 532.576652,574.825279 C532.456886,574.79446 532.348823,574.760259 532.252074,574.725539 C532.155714,574.690428 532.068848,574.656098 531.992645,574.622678 C531.916051,574.589517 531.849211,574.558048 531.791604,574.529439 L531.727474,574.496931 C531.707538,574.486624 531.689074,574.47687 531.672183,574.467744 L531.64804,574.454536 C531.617038,574.437579 531.592445,574.423202 531.573994,574.412204 L531.531654,574.386656 L531.561303,574.376253 L531.595894,574.391337 C531.613891,574.399244 531.63888,574.409813 531.670593,574.42258 L531.752777,574.454785 C531.773446,574.462612 531.795684,574.470839 531.819332,574.479407 L531.855843,574.492508 C531.918522,574.514875 531.990044,574.538932 532.069108,574.562989 C532.147652,574.587567 532.234258,574.611234 532.324636,574.633601 C532.414883,574.655708 532.509682,574.674823 532.60253,574.688738 C532.625287,574.691599 532.649345,574.69537 532.671061,574.69784 L532.729189,574.702912 L532.780685,574.706312 L532.826588,574.708894 L532.817226,574.707854 L532.859749,574.706683 C532.882517,574.70586 532.905557,574.704423 532.928687,574.702393 L532.599279,574.503951 L531.913351,574.130614 L531.41917,574.026446 C531.401485,574.023325 531.383539,574.019554 531.365334,574.015133 C531.175996,573.968579 530.976645,573.857005 530.865202,573.725274 C530.824953,573.677625 530.800379,573.632258 530.790494,573.591377 C530.640121,573.525585 530.483449,573.458597 530.321896,573.388212 L529.984454,573.256503 C529.716081,573.152551 529.433529,573.046545 529.134183,572.948807 L529.004855,572.907456 C528.884088,572.868157 528.760906,572.829504 528.635369,572.791627 C528.265905,572.771285 527.8886,572.761829 527.504208,572.762695 C528.182202,573.032733 528.768677,573.310134 529.254477,573.571859 L529.330344,573.61305 C529.473778,573.691334 529.61253,573.759995 529.737758,573.834248 L530.392638,574.221375 L531.089,574.672743 L531.083408,574.681065 L530.386396,574.231649 L529.730866,573.846471 C529.630684,573.787381 529.521763,573.731787 529.408764,573.672164 L529.174007,573.546561 C528.691162,573.291685 528.113495,573.02333 527.449678,572.763007 C527.023845,572.764925 526.58949,572.779553 526.147789,572.806109 C526.479206,572.97524 526.77803,573.141628 527.043209,573.299499 L527.121752,573.346599 C527.24711,573.422282 527.367657,573.490813 527.477671,573.560644 L528.049325,573.932037 L528.656739,574.360648 L528.649587,574.370401 L528.041262,573.943871 L527.469218,573.574299 C527.380999,573.518642 527.286206,573.4639 527.187633,573.405746 L527.11304,573.361424 C526.820518,573.185774 526.484869,572.998668 526.107771,572.808594 C525.439587,572.849768 524.754772,572.918177 524.05763,573.011487 C523.223816,573.132814 522.369586,573.278719 521.507164,573.478459 C521.073872,573.568707 520.64201,573.686393 520.203257,573.793155 C519.768404,573.915132 519.32653,574.028137 518.887386,574.164548 C517.123399,574.686397 515.336266,575.339066 513.541459,576.052463 C513.110069,576.22445 512.67825,576.40009 512.246113,576.578523 C512.183347,576.659254 512.110282,576.740279 512.027018,576.820346 C511.524936,577.303313 510.845869,577.566123 510.577077,577.317878 C510.5677,577.309205 510.558943,577.300037 510.550795,577.2904 C510.016364,577.517908 509.481564,577.74803 508.946671,577.979099 L507.243647,578.715774 C505.742524,579.363986 504.241506,580.00443 502.745184,580.600987 C502.407125,580.735344 502.069311,580.867558 501.731844,580.997162 C501.616153,581.122544 501.484653,581.24665 501.338416,581.36666 C500.476686,582.074059 499.429313,582.368303 499.028403,581.97364 C498.481624,582.157083 497.936458,582.330077 497.393405,582.490722 C496.953611,582.627394 496.510956,582.740658 496.075324,582.862635 C495.63579,582.969658 495.203148,583.087474 494.768946,583.177981 C493.904833,583.378112 493.048653,583.524407 492.212888,583.645994 C491.099271,583.794937 490.01672,583.880539 488.98303,583.893463 C488.757953,584.39306 488.4954,584.900531 488.173729,585.417393 L488.089599,585.551455 C487.746815,586.092689 487.326391,586.68964 486.739653,587.194514 C486.168519,587.685933 485.353301,588.182164 484.671763,588.426899 C483.571889,588.821699 481.852505,588.590618 481.896589,587.127413 C481.906732,586.78866 482.022727,586.347436 482.273704,585.959138 C482.535473,585.554064 482.872536,585.21193 483.161614,584.921422 C483.567207,584.513748 484.06994,584.183447 484.542894,584.12558 C484.992571,584.070443 485.539387,584.101782 485.792835,584.370054 C486.127166,584.724282 486.215463,585.108289 486.012862,585.699839 C485.997387,585.744702 485.979051,585.785795 485.953694,585.831179 L485.870078,585.96551 L485.71052,586.220257 C485.530415,586.452768 485.235485,586.714668 484.962922,586.883849 L484.866568,586.942277 C484.457875,587.184808 483.963996,587.410558 483.574359,587.420913 C483.918834,587.624164 484.408303,587.605439 484.951218,587.456023 C486.279963,587.090742 487.297913,586.040282 488.067487,584.933646 C488.309694,584.585381 488.52096,584.238937 488.708352,583.895166 C488.344171,583.895147 487.986452,583.885841 487.635911,583.866839 L487.461242,583.856528 C485.987504,583.770572 484.647706,583.541052 483.486063,583.244562 C482.902835,583.103339 482.369283,582.927265 481.875522,582.767966 L481.436814,582.60796 C481.11652,582.49077 480.81686,582.377938 480.544437,582.256131 C480.346517,582.171475 480.157179,582.096182 479.982666,582.016468 L479.077071,581.583436 L478.116338,581.068089 L478.177977,580.953654 L479.137539,581.470822 L480.034812,581.901903 C480.207895,581.981227 480.396322,582.05652 480.592812,582.141046 C480.983711,582.316859 481.431177,582.473817 481.915184,582.652491 L482.261293,582.764824 C482.653143,582.891212 483.069716,583.020513 483.515451,583.129346 C484.669943,583.426357 486.001548,583.657307 487.467614,583.745604 C487.890204,583.773424 488.323713,583.786813 488.766709,583.786505 C488.906568,583.52365 489.032663,583.262558 489.148376,583.003468 C488.028215,583.035198 487.001032,582.78071 486.489327,582.049888 C486.255889,581.716478 486.115814,581.318554 486.060835,580.885361 C485.800114,580.822497 485.547716,580.755849 485.304016,580.686293 C484.771114,580.541689 484.284506,580.366266 483.834309,580.207227 L483.401898,580.037227 C483.122111,579.926443 482.860182,579.819146 482.621429,579.705665 L482.444012,579.625762 C482.327699,579.57392 482.215663,579.524216 482.109984,579.472374 L481.285923,579.054426 L480.412707,578.560276 L480.476947,578.447272 L481.348992,578.943112 L482.16486,579.358979 C482.322078,579.436353 482.493861,579.509435 482.672665,579.59175 C483.028323,579.761712 483.435737,579.917889 483.877092,580.092792 L484.219315,580.214333 C484.568618,580.337494 484.939645,580.463308 485.336786,580.571858 C485.524995,580.62601 485.718433,580.678429 485.916893,580.728714 L486.047451,580.761305 C486.000782,580.233906 486.075444,579.65966 486.257206,579.089147 C486.395276,578.655668 486.574047,578.234089 486.786384,577.828321 C486.478092,577.718582 486.188031,577.603744 485.912861,577.496292 L485.431308,577.287531 C485.214991,577.192871 485.011329,577.10056 484.82404,577.004222 L484.541675,576.86657 C484.481099,576.836898 484.422113,576.807551 484.365,576.777954 L483.626245,576.375741 L482.844057,575.904608 L482.911158,575.793424 L483.692305,576.266248 L484.423258,576.66638 C484.564741,576.739852 484.718188,576.812284 484.878786,576.891998 C485.197383,577.056888 485.563705,577.209815 485.959415,577.383288 L486.201663,577.478593 C486.406804,577.559084 486.620275,577.641598 486.843285,577.721269 C487.211147,577.042127 487.672492,576.408867 488.193235,575.840238 C488.371113,575.64603 488.551385,575.467392 488.732844,575.302483 C488.666522,575.277308 488.601146,575.251853 488.537116,575.225195 L487.876459,574.939194 L487.685422,574.846596 C487.402851,574.71054 487.139028,574.585912 486.905063,574.454406 L486.495438,574.234249 L485.837178,573.845821 L485.139906,573.396404 L485.210647,573.287171 L485.853393,573.70403 C485.870801,573.715272 485.888544,573.726731 485.906619,573.738408 L486.557597,574.124626 L486.963841,574.344133 C487.247457,574.504602 487.575417,574.654797 487.927564,574.82814 L488.488815,575.072875 C488.599459,575.122978 488.715063,575.16778 488.833223,575.212747 C489.423053,574.694092 490.022928,574.316325 490.591685,574.016563 C490.96896,573.817783 491.353437,573.663102 491.706352,573.533701 L491.804694,573.497965 C491.848488,573.372218 491.885221,573.233986 491.916988,573.08784 C491.592531,572.968494 491.285427,572.84422 490.996498,572.717858 C490.280648,572.405674 489.673213,572.085078 489.181545,571.793845 L489.112095,571.752444 C488.986216,571.676891 488.86528,571.60836 488.754486,571.538529 L488.179191,571.167136 L487.570736,570.740346 L487.645508,570.633974 L488.252793,571.062324 L488.821326,571.431636 C488.908921,571.487293 489.00334,571.542118 489.101521,571.600438 L489.175814,571.644901 C489.675036,571.946333 490.300526,572.281965 491.044223,572.608885 C491.325945,572.732939 491.625059,572.855051 491.94068,572.972346 C492.028357,572.524627 492.076498,572.016827 492.140977,571.570779 C492.231744,570.942688 492.44683,570.3263 492.658014,569.954517 C492.74436,569.802241 492.831357,569.661278 492.921344,569.543462 C493.024994,569.408013 493.137254,569.335546 493.269752,569.299526 L493.387499,569.270685 C493.51956,569.240806 493.686061,569.228909 493.880386,569.448403 C493.89339,569.462967 493.906134,569.478312 493.918878,569.494437 C494.131622,569.760888 494.371935,570.29444 494.468295,570.591841 C494.727204,571.390414 494.733836,572.225658 494.604966,572.839575 C494.539437,573.151871 494.407977,573.415261 494.225299,573.641016 C495.029569,573.814673 495.896882,573.935156 496.807837,573.999788 C497.380011,574.035939 497.96935,574.056745 498.571694,574.043741 C498.872995,574.043611 499.177028,574.025016 499.484311,574.014222 C499.729618,573.996953 499.977172,573.984095 500.225907,573.96353 L500.412664,573.946472 C500.717535,573.920102 501.024385,573.888222 501.332878,573.851399 C501.302988,573.39097 501.275989,572.93014 501.25174,572.468705 L501.227486,571.98452 L501.21327,571.619623 C501.204149,571.368085 501.198198,571.169667 501.18952,570.856211 C502.793819,570.281566 504.401368,569.721356 506.027513,569.210951 Z M499.738805,579.96267 L499.685606,579.97862 C499.162797,580.134398 498.641942,580.280303 498.123577,580.41438 C497.714733,580.525954 497.303938,580.616202 496.899255,580.713731 L496.291466,580.843885 C496.089758,580.886521 495.888717,580.927191 495.687676,580.962237 C494.902168,581.114698 494.125783,581.223048 493.367463,581.306028 C493.216584,581.476062 493.042338,581.637196 492.844621,581.785778 C491.853849,582.530384 490.604039,582.918032 489.355919,582.994886 C489.255754,583.256169 489.148762,583.5194 489.031651,583.784813 C490.045465,583.771742 491.106874,583.688955 492.198974,583.544953 C493.032138,583.425317 493.885717,583.281233 494.74788,583.083312 C495.181042,582.993975 495.612773,582.87733 496.051527,582.771478 C496.486379,582.650411 496.928123,582.538317 497.367397,582.402815 C497.8987,582.246773 498.432198,582.07884 498.967438,581.900941 C498.674148,581.476816 499.034106,580.633534 499.738805,579.96267 Z M487.026826,581.092722 L487.033274,581.106181 C487.241129,581.531324 487.593061,581.859772 488.099216,582.028952 C488.50572,582.164843 488.994019,582.205025 489.499873,582.161332 C489.562227,582.002554 489.62289,581.844425 489.682578,581.687289 L489.784012,581.419144 C489.499263,581.405232 489.219217,581.38523 488.944344,581.358988 C488.272259,581.298341 487.631547,581.206708 487.026826,581.092722 Z M489.785444,581.419213 L489.768404,581.469911 C489.737574,581.561427 489.727898,581.654974 489.721494,581.749133 L489.714234,581.862326 C489.707586,581.956746 489.697056,582.05121 489.664763,582.144297 C490.169056,582.083048 490.684143,581.941175 491.142663,581.730771 C491.307894,581.65494 491.504984,581.547158 491.684345,581.425865 C491.032646,581.450796 490.398161,581.449102 489.785444,581.419213 Z M490.637865,578.742061 L490.577248,578.951834 L490.363014,579.678952 C490.229735,580.129176 490.090473,580.585714 489.923422,581.046293 L489.824582,581.311393 C490.471305,581.343335 491.142491,581.343659 491.832675,581.3143 L491.878036,581.277973 C491.878036,581.277973 491.970625,581.195788 492.012888,581.153005 C492.047608,581.117764 492.081939,581.082914 492.114578,581.046503 L492.187531,580.954695 C492.524463,580.475889 492.725244,579.59149 492.725114,579.59149 L492.730076,579.436894 L492.730076,579.430501 C492.728885,579.372503 492.727065,579.312685 492.721083,579.254817 C492.715231,579.19643 492.692214,579.116845 492.699496,579.079394 L492.680901,578.974972 C492.680901,578.974972 492.671163,578.942293 492.656715,578.896092 C491.956387,578.878408 491.28105,578.827789 490.637865,578.742061 Z M487.433781,578.042351 L487.415832,578.072274 C487.359865,578.16692 487.30696,578.265154 487.25747,578.367427 C487.009485,578.879913 486.817806,579.42712 486.805323,579.951829 C486.796577,580.317765 486.850632,580.661828 486.970668,580.964401 C487.594249,581.086032 488.257163,581.183851 488.954357,581.248194 C489.237979,581.275892 489.527199,581.296911 489.821498,581.311415 L489.768404,581.469911 C490.072787,580.568356 490.36298,579.655914 490.635082,578.741604 L490.521204,578.726076 C490.084391,578.666886 489.662794,578.594446 489.257804,578.511647 C489.129424,578.765679 489.037535,579.042307 488.981145,579.316976 C488.904031,579.692531 488.856957,580.880052 488.612483,581.007881 C488.252663,581.196048 487.903637,580.502157 487.873338,580.212169 C487.81104,579.617276 487.986912,578.916435 488.290471,578.287197 C487.993698,578.210127 487.707887,578.128008 487.433781,578.042351 Z M501.638368,577.597148 L501.449512,577.649769 C500.691684,577.858542 499.937651,578.047181 499.189903,578.209313 L498.909796,578.268857 C498.533202,578.352863 498.155697,578.416452 497.783524,578.488104 C497.40914,578.546882 497.039697,578.614632 496.670775,578.659886 C495.935401,578.765999 495.210431,578.828287 494.504056,578.87094 C494.350367,578.878618 494.197495,578.884952 494.045504,578.889922 L494.047877,578.898899 C494.227929,579.636433 494.038983,580.4827 493.463698,581.192737 L493.69781,581.166286 C494.344685,581.090658 495.003841,580.994682 495.66986,580.866918 C496.070903,580.797737 496.472075,580.706189 496.878578,580.621533 C497.282481,580.525044 497.692366,580.436097 498.10056,580.325433 C498.694267,580.173261 499.291456,580.005454 499.891286,579.824993 C499.916486,579.803328 499.942096,579.781933 499.968059,579.760801 C500.623588,579.227119 501.324241,579.005011 501.798756,579.109953 C501.741655,578.605506 501.688222,578.101313 501.638368,577.597148 Z M505.484861,577.960914 L505.39296,577.996095 C504.629515,578.288078 503.866881,578.573445 503.105914,578.846883 C502.82272,578.948319 502.539754,579.048136 502.257097,579.146036 C502.277778,579.296126 502.299065,579.446297 502.320865,579.596431 C502.330227,579.637134 502.33712,579.679397 502.33959,579.72374 C502.357544,580.050125 502.184815,580.459191 501.849215,580.863368 C502.137666,580.752668 502.426436,580.640031 502.715405,580.525824 C504.038679,580.001191 505.366192,579.442229 506.694559,578.873667 C506.272402,578.966502 505.883669,578.927292 505.653779,578.721915 C505.449984,578.539953 505.403929,578.262254 505.484861,577.960914 Z M496.983,579.548447 C497.136057,579.876146 496.858032,580.214899 496.35777,580.312169 C495.857378,580.409439 495.352694,580.207747 495.236699,579.85482 C495.120573,579.501892 495.4064,579.152216 495.870251,579.079654 C496.334233,579.007222 496.830074,579.220747 496.983,579.548447 Z M507.546172,575.659178 L507.36973,575.722862 C506.081179,576.186902 504.789904,576.635755 503.503054,577.041804 C503.016595,577.194795 502.530767,577.341929 502.046218,577.481551 C502.107055,578.008878 502.173241,578.53587 502.24548,579.062427 C502.523021,578.966909 502.800756,578.869573 503.078735,578.77068 C503.888403,578.481688 504.700231,578.179094 505.513116,577.8693 C505.623357,577.552357 505.866895,577.217916 506.209438,576.946355 C506.74039,576.525417 507.363409,576.369759 507.834933,576.477952 C507.736444,576.2058 507.640208,575.93286 507.546172,575.659178 Z M491.282537,577.455446 L491.022116,577.394731 L490.997278,577.484719 C490.929752,577.727065 490.860829,577.969571 490.790582,578.212067 L490.712102,578.479911 L490.765775,578.287063 C490.826341,578.066743 490.884512,577.847631 490.93993,577.629533 L490.994418,577.411766 L490.929918,577.410206 C490.818734,577.408775 490.70794,577.411766 490.596757,577.426591 L490.488304,577.448958 C490.463466,577.468854 490.381671,577.476396 490.328875,577.494472 C489.883702,577.647308 489.54682,577.990234 489.313625,578.406588 C489.649883,578.475599 489.997592,578.537348 490.356042,578.590235 L490.536158,578.615933 C491.198581,578.710757 491.896586,578.767535 492.622125,578.788824 L492.60185,578.729219 C492.591683,578.700219 492.581654,578.673098 492.572578,578.650914 L492.497415,578.480172 L492.452291,578.390314 L492.390011,578.292896 C492.305461,578.164205 492.150331,577.940784 492.023291,577.828673 C491.979597,577.790052 491.932523,577.750129 491.885579,577.715149 L491.852992,577.693278 C491.850102,577.691311 491.84764,577.689531 491.845787,577.68797 L491.811718,577.672774 L491.803264,577.668334 C491.711196,577.614628 491.590909,577.558321 491.493379,577.517489 C491.496534,577.520094 491.442876,577.50404 491.388817,577.487595 L491.282537,577.455446 Z M501.482774,575.885684 L501.368252,575.910001 C500.789333,576.030616 500.213849,576.137172 499.64348,576.227236 C498.951409,576.33933 498.265841,576.417224 497.593666,576.478602 C496.920841,576.534259 496.2605,576.563128 495.617194,576.565859 C494.330843,576.565859 493.114323,576.451164 492.009506,576.247522 C491.909429,576.228692 491.810278,576.209163 491.712072,576.188977 L491.565551,576.158185 L491.521858,576.328537 C491.623679,576.350383 491.72407,576.377302 491.82381,576.411112 C492.363214,576.593948 492.881162,576.916186 493.262178,577.382898 C493.609098,577.807811 493.878659,578.296253 494.018479,578.787687 C494.17738,578.782941 494.337527,578.776767 494.498594,578.769119 C495.202238,578.728157 495.924608,578.667819 496.657771,578.563787 C497.025523,578.519574 497.393925,578.452733 497.767399,578.394996 C498.064409,578.33861 498.364749,578.287219 498.665487,578.226506 L498.891071,578.179 C499.795339,577.992843 500.709802,577.766417 501.629974,577.511108 C501.576753,576.969264 501.527754,576.427607 501.482774,575.885684 Z M511.421148,575.654334 L511.350796,575.680931 C510.564012,575.979056 509.776035,576.285391 508.987871,576.594119 L508.396704,576.825938 L508.425833,576.903702 C508.443258,576.939073 508.457302,576.974443 508.468876,577.011245 C508.58201,577.397722 508.358212,577.904356 507.816727,578.332447 C507.750604,578.384741 507.682113,578.433983 507.611909,578.479996 L508.116728,578.262485 C508.915835,577.918298 509.715146,577.574341 510.513959,577.235994 C510.356706,576.946431 510.595359,576.370542 511.04457,575.941799 C511.167536,575.824401 511.294904,575.728543 511.421148,575.654334 Z M496.925263,577.491221 C497.091583,577.825162 496.874157,578.135957 496.435403,578.193044 C495.99665,578.250002 495.531888,578.01372 495.402629,577.658972 C495.27337,577.303834 495.498078,576.981335 495.900291,576.945184 C496.301983,576.909163 496.758942,577.156889 496.925263,577.491221 Z M490.04477,575.762558 L489.98658,575.796181 C489.854689,575.873142 489.722413,575.954674 489.590118,576.041621 L489.125101,576.353379 C488.837533,576.547698 488.559121,576.747195 488.268138,577.025419 C487.983121,577.297922 487.720236,577.594233 487.498458,577.938481 C487.768893,578.023159 488.050748,578.104406 488.343378,578.180812 C488.534221,577.808026 488.76882,577.464814 489.023278,577.189529 C489.6567,576.50435 490.469188,576.20942 491.248775,576.286664 L491.288291,576.096305 C490.852848,575.996128 490.437884,575.883438 490.04477,575.762558 Z M507.119745,574.366161 L507.0713,574.381269 C506.002472,574.713681 504.932254,575.031847 503.865475,575.314098 C503.198123,575.491757 502.532118,575.655659 501.86995,575.802195 C501.920488,576.33403 501.97578,576.865438 502.036448,577.396399 C502.516161,577.259422 502.997082,577.114936 503.478737,576.96469 C504.82426,576.543612 506.175118,576.075409 507.523303,575.591856 C507.383846,575.184864 507.249456,574.776251 507.119745,574.366161 Z M511.853419,574.143701 L511.621013,574.220546 C510.606856,574.558295 509.591088,574.917548 508.576982,575.28493 L507.92099,575.523317 C508.043238,575.869285 508.168483,576.214695 508.296888,576.559715 L508.372516,576.761308 L508.576771,576.681559 C509.752538,576.222961 510.928443,575.767451 512.101158,575.334375 C512.011673,574.935398 511.929418,574.539217 511.853419,574.143701 Z M525.268863,572.413835 L525.226757,572.41426 L525.151721,572.426622 C525.014718,572.447387 524.883438,572.457147 524.801196,572.446465 C524.767137,572.442035 524.743805,572.43453 524.73003,572.424827 C524.394456,572.435604 524.054062,572.453605 523.709607,572.478595 C523.671837,572.495396 523.628212,572.512674 523.578824,572.530211 C523.283114,572.635413 522.899757,572.708365 522.788314,572.662591 C522.74408,572.644392 522.747653,572.611171 522.785799,572.571444 L522.795856,572.56142 L522.709274,572.57109 C522.391938,572.607498 522.071599,572.648608 521.748889,572.69578 L521.687754,572.832555 C521.666831,572.880181 521.645245,572.930077 521.622637,572.982954 L521.566852,573.114869 C521.518337,573.193393 521.307754,573.322894 520.982269,573.46684 L520.942662,573.484181 C520.47803,573.685742 519.980109,573.829436 519.895843,573.762466 C519.811187,573.695235 520.162684,573.453882 520.616002,573.263894 C520.956576,573.121241 521.260869,573.043347 521.433431,573.035805 L521.487614,572.922057 C521.522457,572.84941 521.55494,572.782769 521.586262,572.719965 C521.255029,572.770464 520.921537,572.82746 520.586353,572.892501 C520.185181,572.962462 519.783879,573.05492 519.377245,573.140487 C519.040551,573.221761 518.699793,573.297708 518.359337,573.385259 L518.126527,573.446882 C518.038253,573.488957 517.945164,573.527235 517.84798,573.560904 C517.628179,573.636983 517.410302,573.681589 517.20666,573.696953 C516.059157,574.021949 514.900658,574.399084 513.737121,574.806952 C513.730026,574.829073 513.722959,574.849949 513.716014,574.869583 L513.705699,574.898101 C513.688794,574.94408 513.672884,574.983622 513.659391,575.014834 L513.632506,575.073627 C513.624061,575.091417 513.619483,575.100573 513.619483,575.100573 L513.548742,575.084968 L513.557324,575.031002 C513.562117,575.001018 513.568056,574.958424 513.572849,574.905675 L513.576178,574.86404 C513.443722,574.910283 513.311212,574.957396 513.178649,575.004864 C512.907852,575.102189 512.63682,575.201031 512.365594,575.30115 L512.414493,575.469381 C512.439708,575.555143 512.466091,575.643503 512.493731,575.735036 C512.502963,575.758443 512.510766,575.782761 512.516097,575.808639 C512.554225,575.994962 512.485362,576.234887 512.314562,576.484943 C512.716505,576.319932 513.118429,576.157577 513.520003,575.998366 C515.31715,575.28796 517.107145,574.638282 518.873992,574.119294 C519.313786,573.983533 519.756441,573.871309 520.191943,573.749982 C520.631477,573.644 521.063989,573.527094 521.498061,573.437497 C522.361784,573.239057 523.217444,573.094583 524.052558,572.974816 C524.731053,572.88531 525.397824,572.819336 526.048881,572.778985 C525.805711,572.657679 525.545491,572.535169 525.268863,572.413835 Z M494.143539,573.735884 L494.115751,573.765674 C493.771544,574.127396 493.286189,574.385653 492.732917,574.59654 C492.455282,574.702262 492.167114,574.804603 491.874265,574.917477 C491.806853,575.194774 491.738083,575.474879 491.667084,575.758046 L491.59338,576.049212 L491.73747,576.079839 C491.834033,576.099928 491.931523,576.119382 492.029923,576.138159 C493.127457,576.343231 494.336825,576.460527 495.617194,576.463778 C496.257509,576.462478 496.915119,576.435429 497.585603,576.381723 C498.255437,576.322165 498.938795,576.246222 499.629305,576.136338 C500.239271,576.041557 500.85542,575.927894 501.475628,575.798281 C501.424709,575.179696 501.379105,574.560974 501.338565,573.941468 C501.107999,573.969672 500.878222,573.995089 500.649435,574.017512 L500.420986,574.03893 C500.108501,574.07131 499.797187,574.086915 499.489513,574.109541 C499.181059,574.121115 498.875856,574.140621 498.573254,574.141531 C497.96844,574.156226 497.37624,574.13711 496.800945,574.102129 C495.862917,574.038166 494.970057,573.91519 494.143539,573.735884 Z M491.49611,575.065983 C491.23356,575.171705 491.020295,575.262082 490.770359,575.382499 C490.577296,575.475464 490.381718,575.574894 490.184862,575.683629 C490.542678,575.792388 490.918504,575.89406 491.310982,575.985701 C491.374295,575.676352 491.435314,575.369276 491.49611,575.065983 Z M506.684194,572.923706 L506.517363,572.964018 C505.759998,573.145211 505.002736,573.314826 504.248571,573.465325 C503.395327,573.635305 502.545994,573.782047 501.707156,573.894367 C501.753306,574.501948 501.804476,575.109048 501.861644,575.715559 C502.519595,575.571675 503.181431,575.410529 503.844798,575.235684 C504.926835,574.952157 506.012791,574.631776 507.097961,574.296803 C506.954285,573.84086 506.816475,573.383085 506.684194,572.923706 Z M512.114325,575.394357 L511.899966,575.474171 C511.982288,575.461808 512.060233,575.460773 512.1317,575.471186 L512.114325,575.394357 Z M511.649369,572.99316 L511.346152,573.077923 C510.278141,573.379516 509.20724,573.707459 508.139485,574.044912 C507.921734,574.114173 507.703859,574.183141 507.485899,574.251634 C507.619218,574.654396 507.756423,575.05614 507.897638,575.457121 L508.118809,575.377297 C509.358161,574.92887 510.601526,574.489304 511.842134,574.083463 C511.772685,573.720342 511.708677,573.357398 511.649369,572.99316 Z M513.365906,573.662855 C513.170527,573.722464 512.974903,573.783079 512.779167,573.844651 C512.53685,573.9211 512.29437,573.999073 512.05177,574.078386 C512.135202,574.459691 512.228418,574.822988 512.348736,575.243246 C512.619114,575.144132 512.889175,575.046309 513.159013,574.949987 C513.299243,574.900095 513.439416,574.850598 513.579521,574.801533 C513.581496,574.753458 513.582247,574.699613 513.581251,574.641533 C513.579691,574.550896 513.572019,574.447514 513.557974,574.338021 C513.54406,574.228398 513.520003,574.108111 513.487103,573.987304 C513.459578,573.886415 513.421397,573.782636 513.375118,573.681913 L513.365906,573.662855 Z M516.119143,572.90195 L516.103101,572.905887 C515.334971,573.093713 514.561248,573.306321 513.78459,573.536972 C513.826831,573.693609 513.848069,573.839884 513.853424,573.97378 C513.858886,574.110062 513.852774,574.23789 513.83808,574.352455 C513.823385,574.46676 513.802319,574.571182 513.778912,574.66299 C513.772059,574.689531 513.765007,574.715091 513.757866,574.739581 C514.846131,574.360925 515.929988,574.009591 517.004666,573.702447 C516.561826,573.692823 516.216421,573.532448 516.118064,573.248549 C516.080161,573.139117 516.082445,573.021412 516.119143,572.90195 Z M533.625552,574.491338 L531.957888,574.139962 L532.604871,574.494198 L532.946046,574.70051 C532.993915,574.695958 533.04204,574.688635 533.088748,574.678985 C533.163001,574.66312 533.235823,574.645044 533.302923,574.622808 C533.353541,574.60652 533.401965,574.589062 533.44759,574.570983 L533.492261,574.552716 C533.540766,574.53295 533.584459,574.511884 533.625552,574.491338 Z M511.468326,571.771854 L511.380405,571.790231 C510.422083,571.994217 509.459932,572.22553 508.499448,572.46895 L508.139355,572.56077 C507.771358,572.655151 507.402878,572.748064 507.034261,572.83864 C507.17271,573.288366 507.315667,573.736559 507.463229,574.183472 C507.6818,574.115433 507.900155,574.046907 508.118419,573.978071 C509.290795,573.610882 510.467218,573.254865 511.639656,572.932525 C511.577513,572.548075 511.520643,572.161774 511.468326,571.771854 Z M512.438854,572.830732 L512.373444,572.796272 L512.412976,572.785739 C512.220842,572.836621 512.028549,572.888544 511.836132,572.941407 C511.904374,573.348194 511.968408,573.691792 512.03896,574.019569 C512.279967,573.941201 512.520938,573.864344 512.761742,573.788994 C512.954878,573.728727 513.147906,573.669387 513.340786,573.611076 L513.313541,573.5597 C513.308989,573.551257 513.304397,573.542981 513.299716,573.535027 C513.283071,573.510969 513.267336,573.487172 513.252381,573.462985 C513.234046,573.435416 513.206217,573.398355 513.18333,573.366365 L513.170196,573.34777 L513.168376,573.345819 L513.173606,573.35454 L513.157453,573.339057 L513.125983,573.305767 C513.038466,573.21864 512.930143,573.131124 512.810507,573.05271 C512.69074,572.974036 512.565902,572.898223 512.438854,572.830732 Z M505.996823,570.323959 C504.510471,570.810307 503.034912,571.329815 501.570406,571.878062 C501.609118,572.521113 501.652003,573.163488 501.700323,573.805196 C502.535794,573.695687 503.382049,573.551765 504.232706,573.384701 C505.040299,573.225882 505.851705,573.045146 506.663459,572.851586 C506.423395,572.013872 506.201662,571.170928 505.996823,570.323959 Z M520.642921,571.532157 C519.36021,571.530206 518.009879,571.657775 516.627819,571.872601 C515.50435,572.052884 514.36016,572.294385 513.208253,572.581092 C513.329013,572.712568 513.448712,572.858782 513.553423,573.01942 L513.624945,573.134505 L513.674531,573.238888 C513.678871,573.248249 513.683268,573.257977 513.687754,573.268315 C513.70765,573.313959 513.726116,573.360644 513.743801,573.405247 C513.753161,573.432261 513.761018,573.457926 513.768681,573.483357 C514.562802,573.249497 515.353877,573.034404 516.139075,572.845271 C516.278802,572.491916 516.710031,572.132079 517.284649,571.933069 C518.084002,571.656215 518.858778,571.796137 519.014305,572.245554 L519.021979,572.269728 C519.213351,572.238994 519.403855,572.210064 519.594151,572.187166 C520.329135,572.082875 521.053456,572.022406 521.75905,571.981314 C521.842436,571.97735 521.925578,571.973782 522.008466,571.970611 L522.043177,571.915114 L522.105069,571.817675 C522.120788,571.793244 522.13662,571.769024 522.157882,571.736839 L522.5005,571.700427 C522.671532,571.682901 522.824566,571.668298 522.963038,571.656105 C522.813076,571.638963 522.661646,571.622878 522.508858,571.60745 C521.907425,571.562196 521.284276,571.524225 520.642921,571.532157 Z M492.322012,573.230617 L492.317987,573.243626 L492.304205,573.283838 C492.283723,573.340057 492.264194,573.376981 492.246829,573.38314 C492.288701,573.368316 492.330444,573.353621 492.371407,573.338277 L492.500636,573.290045 C492.44057,573.27038 492.381036,573.250596 492.322012,573.230617 Z M518.045299,572.483763 L517.929466,572.505259 C517.7419,572.540549 517.553765,572.577415 517.365793,572.619418 C517.227266,572.648265 517.088506,572.678056 516.949527,572.70875 C516.976072,572.846444 517.045478,572.987422 517.155649,573.109147 C517.417679,573.397965 517.810138,573.468706 518.033156,573.267275 C518.230031,573.088883 518.228383,572.757874 518.045299,572.483763 Z M521.984906,572.008656 L521.923309,572.011035 L521.761001,572.018635 C521.056576,572.061158 520.333556,572.123187 519.599873,572.229169 C519.410981,572.252272 519.221882,572.281339 519.032015,572.312113 C519.09929,572.65458 518.804724,573.061431 518.311685,573.34909 L518.14317,573.393413 C518.552014,573.28262 518.962809,573.193543 519.367362,573.096923 L519.974956,572.968022 C520.176599,572.925824 520.377575,572.885609 520.578551,572.851018 C520.923865,572.784692 521.26739,572.726922 521.608355,572.676105 C521.724813,572.445157 521.828807,572.261706 521.984906,572.008656 Z M493.900412,570.058158 C493.871413,570.099641 493.73019,570.120577 493.702622,570.167262 C493.588317,570.361411 493.373492,570.412906 493.230968,570.627342 C492.949563,571.05049 492.74462,571.735019 492.518872,572.415126 L492.511478,572.440303 C492.491133,572.515735 492.457213,572.681116 492.41856,572.852698 L492.39487,572.955722 C492.381472,573.012626 492.367745,573.068359 492.354015,573.119817 C492.457787,573.155237 492.563232,573.190136 492.67025,573.224344 L492.703398,573.211305 L492.820644,573.159095 L492.795986,573.170786 L492.850395,573.145954 L492.965122,573.095411 C493.223872,572.983652 493.423814,572.908896 493.645071,572.740727 L493.690008,572.705504 C493.955809,572.490679 494.148137,572.189637 494.22161,571.820065 C494.2562,571.646592 494.278307,571.478711 494.245277,571.262325 C494.219009,571.091583 494.186109,570.9172 494.139295,570.736835 C494.086629,570.534363 494.008475,570.283127 493.900412,570.058158 Z M511.766159,572.515256 L511.81132,572.793644 C511.816242,572.823502 511.821136,572.853017 511.826006,572.882207 C511.982362,572.839049 512.138747,572.797122 512.295034,572.75587 C512.216123,572.715947 512.137631,572.67773 512.061349,572.642175 C511.960308,572.595231 511.861218,572.553748 511.766159,572.515256 Z M527.871165,572.555156 L527.969899,572.58085 C528.189813,572.638716 528.403615,572.699291 528.611029,572.761993 L528.704391,572.76738 L528.797442,572.773255 C529.068059,572.789573 529.334124,572.810721 529.595366,572.836225 C529.051055,572.722697 528.4751,572.626717 527.871165,572.555156 Z M525.323927,572.413211 L525.49857,572.492168 C525.705476,572.586997 525.902476,572.682128 526.089378,572.776545 C526.524353,572.75023 526.952393,572.735432 527.372169,572.732747 C527.308195,572.708024 527.243385,572.683307 527.177799,572.65869 C526.979276,572.584369 526.773321,572.511561 526.560239,572.441021 C526.1572,572.419602 525.744709,572.410448 525.323927,572.413211 Z M526.646498,572.445922 L526.747974,572.480834 C526.897405,572.53258 527.043143,572.585369 527.185082,572.638924 C527.267207,572.669998 527.348112,572.701221 527.427782,572.732557 C527.798527,572.731033 528.162824,572.739111 528.519781,572.757129 C528.255406,572.679313 527.980768,572.604961 527.696554,572.535341 C527.569076,572.521259 527.440411,572.50838 527.31057,572.496661 C527.092411,572.475825 526.870975,572.458938 526.646498,572.445922 Z M517.085298,572.220326 C516.967141,572.327391 516.920491,572.489356 516.941655,572.660984 C517.080089,572.630567 517.21818,572.60125 517.35604,572.572864 C517.576133,572.524376 517.796492,572.482774 518.015898,572.442448 C517.999479,572.420504 517.981744,572.398999 517.962805,572.378064 C517.700905,572.088987 517.308186,572.018375 517.085298,572.220326 Z M522.246009,571.998866 L522.104717,572.003927 C521.965698,572.249525 521.869524,572.434178 521.768713,572.652504 C522.133613,572.600468 522.495367,572.555969 522.853084,572.517198 C522.924454,572.469551 523.030467,572.418323 523.153725,572.374813 C523.36738,572.299391 523.575573,572.26584 523.719657,572.270652 L523.686569,572.1932 C523.655881,572.120315 523.631701,572.059318 523.607789,571.993894 C523.163415,571.982351 522.708866,571.984265 522.246009,571.998866 Z M517.689202,570.98209 C517.38764,570.983 517.083347,571.002376 516.775804,571.014079 C516.530289,571.032077 516.282527,571.045663 516.03365,571.066957 L515.846801,571.084561 C514.65566,571.190884 513.434927,571.381364 512.204479,571.621784 C512.273049,571.681893 512.343397,571.74438 512.414927,571.809141 L512.562396,571.943817 C512.637383,572.012971 512.714018,572.084643 512.791261,572.157907 C512.893524,572.254761 512.999033,572.360187 513.103394,572.469457 L513.163824,572.533462 L513.413297,572.472618 C514.493275,572.211887 515.56597,571.991678 516.620406,571.825266 C518.005068,571.613562 519.35787,571.489114 520.642921,571.494316 C521.285446,571.487944 521.909506,571.527606 522.511849,571.57455 C522.716773,571.595743 522.919247,571.618115 523.118922,571.642696 L523.123191,571.642534 L523.042097,571.619628 C522.913442,571.58381 522.782799,571.549104 522.650211,571.515642 C521.679076,571.265836 520.601438,571.099255 519.455659,571.021232 C518.882575,570.986511 518.292325,570.967395 517.689202,570.98209 Z M525.727535,572.162482 C525.946934,572.223603 526.160207,572.287629 526.367101,572.353909 L526.540329,572.410314 C526.736681,572.420993 526.930746,572.434589 527.122368,572.45115 L527.313171,572.468702 C527.371942,572.474125 527.430471,572.479786 527.488756,572.485677 C526.986279,572.368669 526.45521,572.266835 525.898499,572.186446 L525.727535,572.162482 Z M523.720191,571.996872 L523.737728,572.034657 C523.779399,572.122624 523.822758,572.205222 523.884027,572.315645 L523.891439,572.328649 C523.899891,572.358109 523.86666,572.395433 523.792801,572.437266 C524.104072,572.416152 524.411919,572.400962 524.715906,572.391657 C524.724751,572.357286 524.791908,572.313494 524.896028,572.276156 L524.923518,572.266732 C524.722222,572.183644 524.512797,572.101934 524.295693,572.022558 C524.105853,572.011339 523.914009,572.002829 523.720191,571.996872 Z M525.290481,572.107156 L525.294045,572.108601 C525.375947,572.138984 525.463848,572.168871 525.562892,572.200484 L525.646843,572.226698 C525.717195,572.253096 525.689757,572.292889 525.531628,572.342304 C525.489142,572.35561 525.440756,572.368642 525.389238,572.380798 C525.749951,572.380173 526.104569,572.38842 526.452145,572.405722 C526.16012,572.311091 525.854925,572.220902 525.537473,572.137001 C525.455657,572.126477 525.373319,572.116537 525.290481,572.107156 Z M524.383863,572.027881 C524.582404,572.10224 524.774362,572.178466 524.959511,572.25584 L524.971601,572.252117 C525.109608,572.213359 525.264397,572.195995 525.401719,572.196919 L525.304645,572.159952 C525.242648,572.135923 525.185758,572.112963 525.131993,572.090106 C524.957486,572.071862 524.780732,572.056131 524.60194,572.042814 L524.383863,572.027881 Z M525.083417,572.023438 L525.106366,572.033592 C525.131974,572.044635 525.157799,572.055417 525.184041,572.066025 L525.321308,572.081422 C525.242749,572.061637 525.163435,572.042325 525.083417,572.023438 Z M523.77514,571.764695 L523.653467,571.77338 L523.782222,571.815601 C523.952979,571.872203 524.119577,571.930487 524.281898,571.990073 C524.53989,572.005612 524.793904,572.025918 525.043601,572.051135 C524.992904,572.028358 524.944378,572.00503 524.895891,571.980317 C524.681306,571.932073 524.461793,571.887 524.237605,571.845552 C524.085665,571.816028 523.931448,571.789258 523.77514,571.764695 Z M523.632745,571.795877 L523.645104,571.825843 L523.676013,571.898116 C523.685936,571.920977 523.695539,571.942735 523.705012,571.963773 C523.868659,571.968823 524.030844,571.975922 524.191532,571.984862 C524.010401,571.920009 523.824088,571.856842 523.632745,571.795877 Z M523.535391,571.782613 L523.343611,571.798099 C522.977309,571.828544 522.695149,571.858129 522.147869,571.928128 L522.125839,571.966721 C522.626308,571.94947 523.11697,571.9472 523.595859,571.960279 L523.572957,571.895009 C523.561223,571.860798 523.548921,571.823869 523.535391,571.782613 Z M524.465304,571.730858 L524.280184,571.736709 C524.16268,571.741004 524.050565,571.746526 523.905272,571.755914 C523.981141,571.768671 524.05645,571.782019 524.131209,571.796004 L524.242936,571.817464 C524.433699,571.853185 524.621057,571.891525 524.804889,571.932173 C524.702536,571.876531 524.595171,571.812229 524.465304,571.730858 Z" id="56"></path>
        </g>
    </g>
</svg>
