<?xml version="1.0" encoding="UTF-8"?>
<svg width="61px" height="25px" viewBox="0 0 61 25" version="1.1" xmlns="http://www.w3.org/2000/svg" xmlns:xlink="http://www.w3.org/1999/xlink">
    <title>53</title>
    <g id="页面-1" stroke="none" stroke-width="1" fill="none" fill-rule="evenodd">
        <g id="乐符" transform="translate(-239.000000, -573.000000)" fill="#545458">
            <path d="M252.915257,573.463876 L253.017308,573.934414 L253.031726,573.93348 C253.739928,573.873093 254.452877,573.85364 255.162585,573.901868 C255.842741,573.948205 256.555994,574.040878 257.175471,574.345928 C257.705033,574.607399 258.203704,575.022222 258.38574,575.605292 L258.41608,575.714514 C258.943435,575.955023 259.445416,576.351091 259.641795,576.926438 L259.674892,577.034005 C260.198938,577.255759 260.703125,577.631417 260.913846,578.199041 L260.949964,578.304501 C261.470438,578.506298 261.97628,578.8632 262.20024,579.421446 C262.214282,579.456459 262.22732,579.491654 262.239395,579.527017 C262.755536,579.70798 263.262206,580.045531 263.499321,580.594757 C263.723834,581.115493 263.725488,581.686426 263.637228,582.248534 C263.432575,583.55258 262.783861,584.774434 262.174865,585.90582 L261.821153,586.555806 C262.345663,586.289364 262.864996,586.011943 263.379618,585.727645 C264.05824,585.352836 264.726149,584.958663 265.394875,584.566017 L264.958926,583.377163 L267.874274,581.73166 L268.087202,582.356653 L268.299644,582.953423 C268.409865,582.898576 268.520521,582.844519 268.631658,582.791335 C269.357508,582.44402 270.125799,582.126088 270.918425,581.866098 L270.784106,580.919665 L275.127064,580.309566 L275.125961,580.302395 L275.22746,580.288604 L275.228564,580.295223 L275.23408,580.294672 L275.30524,580.801617 L275.299723,580.802169 L275.355083,581.193222 C276.195944,581.237654 277.027955,581.396991 277.831691,581.701872 C278.201357,581.842068 278.539577,582.020677 278.848112,582.24518 L280.315667,580.660952 L280.379104,580.719976 L280.315115,580.788929 C280.257194,580.900358 280.250575,581.008477 280.260504,581.120457 C280.274295,581.272706 280.287534,581.431023 280.282017,581.582169 C280.276501,581.737728 280.253333,581.899906 280.180518,582.048845 C280.110461,582.192268 279.983587,582.326865 279.842922,582.425606 L279.786656,582.460911 L279.765695,582.517728 C279.749407,582.562666 279.727046,582.60942 279.698437,582.656324 C279.787771,582.709499 279.875278,582.766817 279.960629,582.827834 C280.339095,582.946389 280.687829,583.109679 281.008576,583.325876 C281.384278,583.430644 281.731863,583.580701 282.053347,583.784878 C282.653511,583.930769 283.185506,584.198877 283.659629,584.623839 C284.104792,585.023217 284.487621,585.489894 284.898031,585.928437 C285.175444,586.224922 285.469566,586.488845 285.780591,586.716099 C286.596177,586.70986 287.41325,586.589847 288.210398,586.378822 C288.257168,586.355912 288.304946,586.342627 288.35011,586.339031 C288.386126,586.330809 288.422127,586.320574 288.458082,586.310157 L287.716293,583.961336 L289.157142,583.230982 L289.246506,583.536583 L289.672913,584.896343 C289.730282,584.996862 289.699173,585.151426 289.595083,585.279452 L289.552658,585.32606 C289.397651,585.478309 289.18693,585.51582 289.081569,585.409356 C288.97676,585.303444 289.017029,585.092722 289.172036,584.939922 C289.301117,584.813047 289.46826,584.765608 289.581895,584.814702 L289.187481,583.566922 L287.875161,584.254249 L288.517707,586.292703 C289.201009,586.090629 289.867411,585.822935 290.503142,585.504257 L290.479392,585.313373 L290.602404,585.297928 L290.621189,585.444317 C290.708358,585.399489 290.794926,585.353708 290.880859,585.307012 L290.867185,585.198083 L290.871047,585.192015 L290.989646,585.177121 L290.998278,585.242419 C291.479059,584.974695 291.939129,584.678503 292.372023,584.360713 C292.730951,584.097263 293.077013,583.817173 293.408868,583.521751 L293.240284,582.892283 L294.666934,582.250385 C295.672351,581.096349 296.486935,579.780528 297.055464,578.356716 L295.755703,577.881304 L295.775561,577.827796 L295.834585,577.84931 C295.917881,577.855929 295.985731,577.832761 296.051375,577.796905 C296.141841,577.749465 296.235618,577.700922 296.329946,577.665067 C296.427033,577.628659 296.532393,577.601078 296.642719,577.607146 C296.749183,577.613765 296.864473,577.65624 296.961007,577.718023 L296.997415,577.743398 L297.037132,577.741743 C297.105711,577.738377 297.185843,577.749772 297.268961,577.781558 C297.326906,577.615897 297.380998,577.448569 297.431692,577.280003 L297.294742,577.142124 L297.289777,577.148744 L297.065265,576.920922 L298.591065,575.05863 L299.810712,576.281035 C299.913314,576.348333 299.951377,576.519889 299.895111,576.692548 C299.831674,576.887824 299.67115,577.009734 299.536553,576.966155 C299.492369,576.951549 299.456584,576.920626 299.4308,576.878707 C299.319542,577.522672 299.162144,578.160292 298.962876,578.784441 C298.981356,578.847213 298.983735,578.921818 298.967683,578.99888 L298.95238,579.056269 C298.91934,579.157976 298.859964,579.23993 298.791631,579.288804 C298.562596,579.925796 298.289604,580.546808 297.976674,581.144215 L299.458222,582.204956 L299.451603,582.214333 L299.457119,582.217643 L298.085774,584.560954 L297.856298,584.388846 L297.707358,584.282382 L297.700739,584.293415 L297.459126,584.110826 L296.49994,583.417255 C295.338237,584.878085 293.902498,586.075288 292.277357,586.847532 L292.710722,588.47916 L292.642321,588.497915 L292.212382,586.878133 C292.03231,586.962184 291.849941,587.041024 291.665389,587.114435 C291.529657,587.168376 291.392434,587.219793 291.253958,587.26827 L291.254979,587.27551 L291.220344,587.279971 C291.103607,587.320375 290.985996,587.358672 290.867652,587.394612 L290.870495,587.41783 L290.746931,587.433827 C289.817183,587.698857 288.84559,587.817952 287.899984,587.66882 C287.633886,587.626823 287.378351,587.564428 287.132528,587.48288 C287.036439,587.469921 286.940131,587.454037 286.844171,587.435482 C286.574556,587.383209 286.316277,587.310965 286.068455,587.219964 C285.970724,587.203237 285.872977,587.183613 285.775669,587.161323 C285.502229,587.098562 285.241012,587.016246 284.99108,586.915541 C284.892556,586.894944 284.794078,586.871677 284.696136,586.845793 C284.418373,586.772356 284.15381,586.679671 283.90143,586.56889 C283.802267,586.545176 283.703612,586.518311 283.605569,586.48889 L283.514551,586.459654 L282.977266,587.355496 L282.950788,587.413417 L282.944169,587.410107 L282.772061,587.698056 L282.745031,587.681507 L280.800547,586.731606 L280.769655,586.709541 L281.568514,585.377403 C281.1867,585.051939 280.841277,584.675155 280.525836,584.253698 C280.385868,584.067009 280.249422,583.876001 280.110731,583.686394 C279.552912,583.714723 278.9953,583.799696 278.447386,583.932552 C278.486408,583.976603 278.515367,584.026713 278.532257,584.082694 C278.619414,584.372849 278.348014,584.711548 277.925467,584.838974 C277.574081,584.944335 277.229314,584.870417 277.072652,584.675692 L276.336782,588.712498 L276.211563,588.689881 L276.986047,584.442906 L276.987762,584.405591 L276.777532,584.493656 C274.741273,585.37187 272.993582,586.794086 271.283637,588.256409 L271.398067,588.237547 L271.423993,588.389244 L271.057293,588.450338 L270.347669,589.059707 L271.383724,588.88626 L271.409651,589.037958 L270.118292,589.254195 L269.724269,589.586867 L269.672026,592.041014 L269.55453,592.038808 L269.604729,589.68618 C268.758549,590.387102 267.892106,591.060541 267.0016,591.692386 C266.383603,592.130457 265.745311,592.570823 265.084915,592.964414 L265.876833,595.794835 L265.911034,595.778286 L266.072109,596.359149 L263.472843,597.571625 L263.358657,597.127566 L263.352037,597.129772 L263.234541,596.713294 L263.198685,596.730394 L263.058572,596.182077 L263.082843,596.170493 L262.575346,594.358399 C262.538285,594.287698 262.525191,594.203573 262.534257,594.114169 L262.352995,594.159275 C261.46639,594.361291 260.445282,594.314354 260.064341,593.278865 C260.031799,593.190387 260.003801,593.099814 259.97998,593.007568 C259.269603,593.022323 258.589472,592.795133 258.305562,592.006271 L258.088414,592.368681 L257.927338,592.272146 L258.231991,591.762495 L258.216549,591.698358 C258.014525,591.694824 257.815478,591.67258 257.62773,591.624995 L257.49707,591.843532 L257.335994,591.746997 L257.443127,591.56838 C257.030426,591.418005 256.692402,591.121511 256.530619,590.597958 C256.502603,590.507054 256.479426,590.414424 256.460684,590.320459 C255.711769,590.279604 255.01148,589.992464 254.777549,589.155454 C254.751898,589.063625 254.731233,588.970247 254.71513,588.875696 C253.953738,588.80588 253.248469,588.492159 253.037166,587.646203 C252.818722,586.771875 253.05537,585.777291 253.374762,584.961435 C253.912046,583.590642 254.820024,582.417332 255.723589,581.271603 L256.258566,580.59556 L256.383741,580.435751 C255.236216,580.88189 254.118134,581.423631 253.027237,582.014093 C251.977565,582.582154 250.886624,583.229195 249.90194,584.013447 L249.609909,584.252043 L249.605496,584.286795 C249.584396,584.415876 249.552436,584.541233 249.51171,584.663333 L249.428525,584.88909 C249.376154,585.036181 249.395844,585.060769 249.544339,585.184309 L249.592808,585.224561 C250.150503,585.687376 250.931607,586.130332 251.148947,586.867306 C251.527915,588.149838 249.475312,589.576346 248.663317,588.271748 C248.319102,587.719569 248.6236,586.8822 249.348437,586.950602 C250.065552,587.019003 250.313784,587.933049 249.704788,588.332427 C249.981705,588.565765 250.418042,588.233134 250.600079,588.025171 C250.821281,587.771974 250.954775,587.442653 250.911196,587.102851 C250.805284,586.283133 249.811252,585.751916 249.226528,585.283034 C248.841472,585.820191 248.315205,586.152086 247.746425,586.294755 C247.518597,586.634872 247.314701,586.994707 247.139723,587.375906 L247.0978,587.348325 C247.265212,586.983531 247.460206,586.638072 247.677762,586.310382 C246.629865,586.544706 245.452215,586.14527 244.752282,585.211322 C244.256467,584.54937 244.154494,583.715906 244.172267,582.910524 L244.180054,582.688656 C243.929828,583.004122 243.701331,583.339927 243.500089,583.69821 L243.459269,583.666767 C243.67178,583.288458 243.916048,582.935028 244.185689,582.604041 C244.207754,582.197208 244.257747,581.790689 244.312084,581.386341 C244.354008,581.072466 243.711914,580.725492 243.498986,580.51091 C243.367336,580.378595 243.23762,580.235747 243.114271,580.08413 C242.579778,580.574642 242.105111,581.126997 241.717231,581.754828 L241.675859,581.721179 C242.064756,581.092038 242.544892,580.538331 243.084671,580.046864 C242.607521,579.450443 242.232697,578.722096 242.223625,577.967358 C242.221425,577.788864 242.240753,577.599812 242.31504,577.470824 C241.398161,578.084391 240.583348,578.825146 239.961403,579.742493 L239.921134,579.707189 C241.184911,577.84269 243.2833,576.706891 245.328732,575.894344 C247.216426,575.143815 249.218763,574.517664 251.239566,574.167441 L252.915257,573.463876 Z M265.697003,595.564255 L263.337143,596.665302 L263.425403,596.979178 L265.775334,595.84393 L265.697003,595.564255 Z M263.866429,593.614323 L263.743435,593.669505 C263.775448,593.866272 263.67461,594.116834 263.466775,594.309304 C263.230679,594.527197 262.931146,594.601115 262.73256,594.50789 L263.184343,596.120847 L265.534825,594.98615 L264.985524,593.023193 C264.619371,593.238029 264.246441,593.437833 263.866429,593.614323 Z M275.720944,583.790423 L275.754816,584.031392 C275.82763,584.231633 275.702411,584.510204 275.444801,584.691138 C275.153542,584.895792 274.803811,584.899653 274.663146,584.699412 C274.572916,584.571321 274.590726,584.390343 274.691971,584.223163 C272.883123,585.072912 271.266514,586.304502 269.672235,587.552365 L268.836863,588.206656 C267.728645,589.071607 266.590638,589.896289 265.41457,590.653121 L264.894367,590.984347 C263.670059,591.753668 262.37221,592.482867 261.000452,592.849699 C260.696651,592.931065 260.361043,592.993812 260.030247,593.005919 C260.188981,593.625511 260.552866,594.101134 261.258613,594.193462 C261.6854,594.249197 262.121698,594.181561 262.542826,594.061305 C262.572434,593.905268 262.666087,593.739116 262.814201,593.60267 C263.097737,593.340647 263.473947,593.285485 263.654329,593.481312 C263.688016,593.517678 263.712468,593.560181 263.728114,593.606972 C264.149707,593.413519 264.561956,593.192 264.966083,592.955684 L264.681458,591.938412 C264.58336,591.750307 264.653984,591.467644 264.860612,591.242535 L264.920312,591.182683 C265.203848,590.92066 265.580058,590.866601 265.76044,591.061325 C265.940822,591.256601 265.856975,591.627294 265.572887,591.889317 C265.336791,592.107761 265.037257,592.181679 264.839223,592.087903 L265.065374,592.897236 L265.280525,592.768059 C266.68276,591.915243 268.012181,590.919557 269.297471,589.871466 L269.605279,589.615511 L269.611347,589.339146 L269.285887,589.393757 L269.260512,589.241508 L269.614657,589.181932 L269.625138,588.689881 L269.299678,588.745044 L269.274303,588.592795 L269.628448,588.532667 L269.635619,588.201691 C269.593356,587.979683 269.754613,587.713962 270.035222,587.550309 L270.107811,587.511606 C270.474643,587.333431 270.871263,587.39411 270.993724,587.646203 C271.102647,587.870426 270.958021,588.171455 270.666203,588.360261 L271.1804,588.273955 C272.016641,587.555201 272.857998,586.844007 273.746894,586.202044 C274.739561,585.484964 275.839805,584.826302 276.994655,584.351092 C277.038826,584.116733 277.277397,583.887087 277.608834,583.787022 C277.914425,583.694865 278.215111,583.738603 278.391329,583.879841 C278.940459,583.736915 279.497113,583.643428 280.055716,583.611958 C279.962745,583.485281 279.868088,583.359618 279.770355,583.236636 L279.717242,583.17144 C278.372203,583.0773 276.996204,583.320789 275.720944,583.790423 Z M259.904479,591.41009 L259.823019,591.43418 C259.822632,591.50714 259.81545,591.582651 259.80094,591.659258 L259.781908,591.744239 C259.65724,592.225809 259.288202,592.546856 258.957226,592.460251 C258.685186,592.389974 258.5242,592.06703 258.544718,591.687149 L258.49406,591.691793 L258.339421,591.949619 C258.51513,592.452851 258.864628,592.830556 259.481823,592.933547 C259.643057,592.960253 259.806121,592.969985 259.969638,592.966304 C259.849272,592.471883 259.846014,591.932097 259.904479,591.41009 Z M274.440289,583.125069 C274.247698,583.188898 274.057189,583.257176 273.868603,583.329538 C273.842158,583.468813 273.75107,583.615355 273.610582,583.732558 L273.54886,583.77985 C273.264832,583.979263 272.923935,583.987531 272.777229,583.801567 C272.308125,584.025689 271.848752,584.273444 271.397423,584.537434 L271.405238,584.594052 C271.478052,584.793741 271.353936,585.072312 271.095223,585.253797 C270.804516,585.457899 270.454233,585.461761 270.313568,585.26152 C270.305009,585.249336 270.297424,585.236678 270.290792,585.223604 C269.706424,585.603955 269.131823,586.004301 268.560945,586.409207 L267.397117,587.238551 C267.163035,587.404907 266.92778,587.569549 266.691283,587.732251 L266.944783,588.427858 C267.077683,588.638665 267.018812,588.976848 266.795071,589.258881 L266.735716,589.328113 C266.429012,589.658538 265.996536,589.755624 265.769266,589.544903 C265.541444,589.334181 265.605984,588.895086 265.912137,588.564662 C266.167541,588.289952 266.509549,588.176317 266.748404,588.267335 L266.580937,587.807962 C265.767736,588.364416 264.939772,588.897613 264.094277,589.398504 L264.277115,590.035299 C264.405644,590.27636 264.296974,590.65257 264.001302,590.928935 C263.668671,591.241155 263.224611,591.308454 263.010028,591.079529 C262.795446,590.850604 262.891429,590.41206 263.224611,590.099839 C263.501528,589.840575 263.855121,589.750108 264.090114,589.858778 L263.977891,589.467183 L263.830849,589.553177 C262.61209,590.26271 261.321989,590.973845 259.969429,591.391073 C259.908349,591.924254 259.904916,592.484592 260.019568,592.963648 C260.474751,592.946997 260.932115,592.828321 261.362319,592.685315 C262.145077,592.42605 262.897497,592.063079 263.626196,591.662598 C265.083042,590.864394 266.470384,589.920009 267.813595,588.921013 C269.370286,587.7637 270.847543,586.484477 272.466568,585.422595 C273.181193,584.953736 273.947456,584.514684 274.746139,584.14605 C274.796401,584.081203 274.860368,584.020157 274.93565,583.967404 C275.123411,583.834942 275.336158,583.78643 275.501143,583.822903 L275.615824,583.778953 L275.482897,582.833996 C275.130229,582.914344 274.78188,583.012003 274.440289,583.125069 Z M258.131198,590.782473 L257.648499,591.590487 L257.710549,591.604126 C257.874281,591.637384 258.040393,591.653577 258.207357,591.656281 C258.146907,591.374424 258.125039,591.079467 258.131198,590.782473 Z M258.545161,590.091565 L258.196322,590.674113 C258.178888,591.014165 258.193959,591.350265 258.258109,591.655742 L258.296928,591.654324 L258.993633,590.48984 L258.545161,590.091565 Z M258.1904,590.098267 L258.146623,590.109838 C257.942094,590.16101 257.736407,590.205614 257.529615,590.242711 C257.209172,590.300183 256.856936,590.33667 256.512957,590.32303 C256.622533,590.877463 256.903568,591.333178 257.462702,591.535302 L258.156274,590.3743 C258.165503,590.281883 258.176985,590.189761 258.1904,590.098267 Z M260.442853,589.283929 L260.249168,589.371445 C259.719119,589.603361 259.17913,589.811225 258.630314,589.976378 L259.068654,590.365172 L259.274963,590.020405 L259.436038,590.116388 L259.211526,590.492046 L259.514369,590.76124 C259.695984,590.864633 259.808824,591.097149 259.821783,591.374061 L259.912676,591.345918 C259.944345,591.080625 259.992017,590.821163 260.047792,590.575342 C260.148357,590.132516 260.283629,589.703174 260.442853,589.283929 Z M262.252093,588.392003 C261.682479,588.690039 261.098244,588.988157 260.50101,589.259178 C260.407654,589.50127 260.323417,589.747621 260.249688,589.99834 C260.144433,590.356144 260.036541,590.827556 259.976091,591.325195 C260.661993,591.104212 261.327189,590.812842 261.975728,590.494253 C262.650828,590.162127 263.312703,589.800575 263.963421,589.417676 L263.47561,587.724446 C263.071275,587.953783 262.663511,588.176634 262.252093,588.392003 Z M256.553857,588.705568 C256.456156,589.233634 256.4165,589.792896 256.504593,590.280152 C256.978103,590.299014 257.460361,590.216021 257.915754,590.107011 C258.011078,590.084179 258.106074,590.059946 258.200745,590.034417 C258.211886,589.962249 258.224235,589.890537 258.237625,589.819446 L256.893915,588.625877 C256.78086,588.654228 256.667503,588.680842 256.553857,588.705568 Z M256.485427,588.719858 L256.440047,588.729675 C256.229931,588.772961 256.018847,588.809653 255.806885,588.83882 C255.478564,588.883847 255.118391,588.906726 254.768205,588.879836 C254.875175,589.516105 255.212595,590.032566 255.948101,590.207407 C256.113741,590.246899 256.28238,590.269489 256.452351,590.278664 C256.359711,589.775527 256.391049,589.236398 256.485427,588.719858 Z M261.701018,586.674788 C261.363111,586.844501 261.022659,587.0098 260.679957,587.170149 C260.263684,587.365146 259.839975,587.559739 259.409727,587.744488 L258.841936,588.528806 L258.835868,588.524393 L258.784015,588.585624 L258.663799,588.481525 L258.587636,588.699259 C258.494296,588.9772 258.397076,589.325216 258.322082,589.701861 L258.476759,589.839472 L258.683619,589.494705 L258.844694,589.591239 L258.66026,589.899698 C259.228781,589.720972 259.785428,589.500438 260.331328,589.261367 L260.476895,589.19709 C260.778464,588.420291 261.160196,587.678285 261.553068,586.948722 L261.701018,586.674788 Z M258.625297,588.448301 L258.316235,588.181281 L257.993771,588.296805 C257.685354,588.402875 257.374241,588.499246 257.060734,588.582739 L258.270361,589.656226 C258.298435,589.524171 258.329736,589.394764 258.363124,589.269089 C258.43728,588.98981 258.525607,588.716539 258.625297,588.448301 Z M265.991027,586.195708 L265.960681,586.215283 C265.183973,586.715915 264.395594,587.199153 263.593773,587.657185 L264.080187,589.34867 C264.84475,588.894886 265.59402,588.412182 266.331374,587.913742 L266.561402,587.755425 L265.991027,586.195708 Z M264.529209,585.136852 C263.626913,585.662662 262.710036,586.166456 261.776725,586.636913 C261.326856,587.459646 260.877871,588.291323 260.534754,589.16902 C261.534214,588.722873 262.507835,588.215927 263.461232,587.672829 L263.010028,586.108267 L263.136903,586.07186 L263.578921,587.605547 C264.007315,587.359768 264.431658,587.106871 264.852462,586.849102 C265.228619,586.618669 265.601087,586.382007 265.972153,586.143001 L265.414178,584.618914 L264.529209,585.136852 Z M270.95579,588.467226 L269.743186,588.670023 L269.732705,589.162625 L270.245874,589.077092 L270.95579,588.467226 Z M255.293872,585.909682 C254.985277,586.636756 254.614678,587.867704 254.761102,588.836851 C255.243511,588.873819 255.737621,588.809626 256.205159,588.718014 L256.498044,588.656378 C256.51866,588.548305 256.542028,588.441435 256.567546,588.336266 L255.921623,587.762045 L256.016503,587.654477 L256.607477,588.179416 C256.633015,588.083528 256.660145,587.989321 256.688385,587.897193 C256.777287,587.60629 256.881962,587.322635 256.999127,587.044964 L255.40154,585.666157 C255.364479,585.746714 255.32856,585.827875 255.293872,585.909682 Z M258.702833,579.687992 L259.025314,579.611983 C258.416477,579.745141 257.817896,579.926737 257.249941,580.119806 C256.989405,580.208432 256.730378,580.302449 256.472832,580.40133 L256.268596,580.664813 C255.335244,581.860189 254.319147,583.038464 253.666573,584.420289 L253.599132,584.567602 C253.042805,585.820313 252.385165,588.247293 254.196686,588.742837 C254.364431,588.788651 254.535809,588.817694 254.708994,588.833374 C254.58627,588.04835 254.771888,587.187232 255.024678,586.461309 C255.123218,586.178062 255.23715,585.902409 255.363302,585.633029 L255.098044,585.404391 C254.904423,585.297928 254.81175,584.995084 254.889529,584.676796 C254.977238,584.317687 255.247535,584.076074 255.494664,584.136201 C255.719034,584.191036 255.846141,584.478478 255.800251,584.800621 C256.222286,584.066173 256.717182,583.371787 257.210775,582.686526 C257.453792,582.349209 257.702858,582.010002 257.945979,581.664975 L257.867763,581.597063 C257.839102,581.581222 257.812653,581.561102 257.788639,581.537284 L257.556094,581.93852 L257.435287,581.868463 L257.700119,581.411917 C257.62925,581.268488 257.609501,581.072223 257.658696,580.869467 C257.73471,580.558239 257.948283,580.335264 258.164397,580.320119 L258.214253,580.320367 L258.263831,580.328321 C258.282299,580.332824 258.300108,580.3389 258.317216,580.346437 L258.41277,580.181037 L258.533576,580.251093 L258.431494,580.428401 C258.501571,580.502633 258.54948,580.609565 258.56919,580.733287 C258.670512,580.569845 258.769008,580.404234 258.86291,580.23631 L258.850762,580.22958 L259.014043,579.947699 L258.78567,579.751319 C258.755523,579.734743 258.727823,579.713405 258.702833,579.687992 Z M256.565064,588.640437 L256.835117,588.573488 L256.619652,588.381852 C256.600176,588.466796 256.581873,588.553146 256.565064,588.640437 Z M256.93441,587.33674 C256.840373,587.584959 256.74122,587.890536 256.657691,588.223443 L257.00233,588.530738 C257.42587,588.416113 257.843824,588.279484 258.256256,588.129804 L257.037239,587.077548 C257.001684,587.163318 256.967374,587.249702 256.93441,587.33674 Z M258.796702,587.996486 L258.606921,588.072674 L258.429319,588.138806 L258.592049,588.279471 L258.796702,587.996486 Z M257.080489,586.974935 L258.370244,588.088058 L258.6941,587.965595 C258.74432,587.946197 258.794482,587.92665 258.844588,587.906958 C258.946906,587.671309 259.05689,587.439246 259.172494,587.210046 L257.626889,585.875393 C257.426981,586.232722 257.24196,586.598009 257.080489,586.974935 Z M258.944408,587.791043 L259.292063,587.311917 L259.207193,587.239684 C259.115506,587.421482 259.027556,587.605131 258.944408,587.791043 Z M268.828612,584.39805 L269.097231,585.131336 C269.240654,585.35971 269.159565,585.738126 268.887613,586.031591 C268.580908,586.362567 268.148433,586.459654 267.921162,586.248932 C267.693341,586.038211 267.757881,585.599116 268.064585,585.26814 C268.319437,584.993429 268.661446,584.879794 268.9003,584.970813 L268.715072,584.465982 C268.195987,584.777801 267.683423,585.102594 267.173526,585.430824 L266.102475,586.123736 L266.671728,587.679852 L266.869974,587.543726 C267.942668,586.796433 268.991853,586.011248 270.080946,585.290324 L270.269116,585.168602 C270.211326,584.970036 270.336894,584.703904 270.586072,584.52896 C270.828236,584.359059 271.110669,584.327616 271.280018,584.436838 L271.1042,583.184285 C270.324432,583.54273 269.569619,583.956515 268.828612,584.39805 Z M290.69581,587.027424 C289.654436,587.389843 288.529405,587.609357 287.430077,587.51624 C287.751085,587.600767 288.085299,587.652802 288.432856,587.66882 C289.210015,587.704203 289.985827,587.602128 290.74188,587.390581 L290.69581,587.027424 Z M262.259333,579.590193 L262.287949,579.689463 C262.404403,580.14112 262.377588,580.615443 262.287949,581.080188 C262.077021,582.171995 261.547184,583.193367 260.993069,584.150567 L261.083196,584.212877 L261.074921,584.225013 L261.622687,584.697757 L261.567524,584.761746 L259.48004,587.647138 C260.088027,587.392347 260.687433,587.11696 261.279605,586.826624 L261.744596,586.594251 L262.156419,585.840115 C262.701162,584.83679 263.226487,583.802467 263.496563,582.683768 C263.651019,582.044984 263.749208,581.300288 263.483324,580.685224 C263.243684,580.129578 262.781391,579.776579 262.259333,579.590193 Z M282.249119,587.083544 L282.167478,587.219244 L282.812881,587.534774 L282.900038,587.389145 L282.249119,587.083544 Z M290.450975,586.650525 L290.346165,586.690842 C290.139523,586.767 289.930497,586.83694 289.71925,586.900404 C288.781896,587.181895 287.786179,587.352077 286.806748,587.302091 C286.916923,587.348421 287.028847,587.390877 287.142508,587.429058 C287.223343,587.439817 287.305031,587.448546 287.387523,587.45534 C288.500905,587.547521 289.620365,587.36713 290.691046,586.99028 L290.678529,586.892129 L290.550184,586.93201 C290.529038,586.938466 290.50826,586.94435 290.488218,586.948947 L290.450975,586.650525 Z M290.816139,586.984987 L290.862658,587.355659 C290.952091,587.329332 291.040746,587.301497 291.129083,587.272205 L291.080382,586.88543 C290.992762,586.919793 290.904677,586.952986 290.816139,586.984987 Z M288.723563,586.737122 L288.509738,586.789624 L288.485761,586.82151 L288.443337,586.868409 C288.28833,587.02121 288.077608,587.058169 287.972799,586.951705 C287.959809,586.938579 287.949033,586.923877 287.940414,586.907901 C287.400526,587.003953 286.849662,587.058321 286.301486,587.05304 C286.416485,587.117817 286.533646,587.178153 286.652892,587.233567 C287.999509,587.332871 289.358845,587.058667 290.633597,586.534688 L290.588062,586.174463 L290.397751,586.23128 L290.39025,586.170156 C289.850983,586.401369 289.294353,586.591889 288.723563,586.737122 Z M282.764338,586.223557 L282.332414,586.94343 L282.983886,587.249583 L283.466559,586.444208 L283.404557,586.424654 L283.2433,586.367132 C283.189597,586.391469 283.123134,586.40356 283.052287,586.398975 C282.910519,586.389045 282.794678,586.315679 282.764338,586.223557 Z M291.200202,586.837592 L291.249596,587.231274 C291.572048,587.119162 291.890037,586.987787 292.202077,586.839406 L292.09202,586.426909 C291.800793,586.57722 291.503345,586.714418 291.200202,586.837592 Z M259.256906,587.141992 L259.354397,587.225863 L260.319744,585.891478 L260.079634,585.683802 C259.79339,586.162188 259.511827,586.645415 259.256906,587.141992 Z M285.739997,587.025954 L285.835996,587.068385 C285.91609,587.103118 285.997159,587.13574 286.079205,587.166203 C286.161353,587.180155 286.244708,587.192111 286.328951,587.202143 L286.498167,587.220291 C286.392843,587.167549 286.289663,587.111178 286.188282,587.051136 C286.038541,587.047384 285.889001,587.03912 285.739997,587.025954 Z M282.530867,586.041866 C282.523277,586.157362 282.378199,586.243416 282.207195,586.231832 C282.065427,586.222454 281.950137,586.148536 281.919797,586.056414 L281.436572,586.862341 L282.122796,587.197179 L282.223192,587.030036 L282.2767,586.917504 L282.287733,586.922469 L282.748486,586.154374 C282.674849,586.118364 282.602318,586.080851 282.530867,586.041866 Z M258.557291,584.370134 L258.262991,584.823475 C258.330008,584.966036 258.347812,585.158167 258.299687,585.355848 C258.22632,585.654278 258.027183,585.872171 257.819771,585.902511 L259.22241,587.111924 C259.477528,586.614621 259.757899,586.130398 260.042396,585.651781 L259.994836,585.611252 L259.781908,585.462312 L259.797354,585.440247 L258.557291,584.370134 Z M287.714086,586.535227 C287.105088,586.663134 286.476099,586.747426 285.846653,586.764138 C285.963022,586.846092 286.081876,586.923545 286.203077,586.995679 C286.777933,587.013343 287.354463,586.968926 287.925109,586.871183 C287.889921,586.758014 287.940958,586.60241 288.063266,586.48227 L288.104942,586.445881 C287.97533,586.477914 287.845032,586.507713 287.714086,586.535227 Z M285.234951,586.758266 L285.366062,586.834472 C285.438853,586.875543 285.512525,586.914778 285.587082,586.952134 C285.754983,586.970873 285.923103,586.983805 286.091411,586.991361 C285.977614,586.921479 285.866327,586.846129 285.757198,586.766288 C285.583373,586.768901 285.408936,586.766478 285.234951,586.758266 Z M257.725443,582.060429 C257.052636,583.003629 256.331789,583.938064 255.763592,584.956361 L255.782062,584.894688 C255.747485,585.036137 255.6843,585.159551 255.605324,585.25341 C255.550312,585.356212 255.498263,585.460814 255.44814,585.566441 L257.042982,586.942632 C257.205898,586.568229 257.391018,586.204533 257.590167,585.848393 L257.615118,585.865552 C257.421497,585.759639 257.328823,585.456796 257.406051,585.138507 C257.49376,584.779398 257.764609,584.537786 258.011737,584.597913 C258.105998,584.62095 258.183092,584.68504 258.237435,584.775479 C258.330212,584.628992 258.424749,584.48311 258.519683,584.337772 L258.282035,584.133443 C258.087862,584.026428 257.995189,583.723584 258.072968,583.405296 C258.160677,583.046738 258.431525,582.804574 258.678103,582.865253 C258.92468,582.924829 259.053761,583.264631 258.966052,583.62374 L258.947603,583.687713 C259.109497,583.442959 259.272282,583.196548 259.431831,582.947285 L257.983476,581.697118 L257.725443,582.060429 Z M284.665379,586.709769 L284.760459,586.755321 C284.842142,586.793688 284.924913,586.829921 285.008778,586.863971 C285.090954,586.880703 285.174132,586.895603 285.258243,586.908678 L285.431433,586.9335 C285.325562,586.876683 285.221644,586.816051 285.119697,586.751782 C284.968048,586.742556 284.816366,586.728594 284.665379,586.709769 Z M281.606688,585.40967 L280.894323,586.59756 L281.391891,586.840276 L281.920349,585.95988 C281.945172,585.886651 282.025227,585.831109 282.127468,585.812337 L282.145402,585.810661 C281.958109,585.687728 281.778729,585.553865 281.606688,585.40967 Z M293.930225,585.244727 L293.962364,585.366329 C294.012562,585.466243 293.977447,585.612613 293.87328,585.73301 L293.824457,585.782808 C293.665037,585.926231 293.45597,585.95326 293.357781,585.844038 C293.323186,585.805362 293.306874,585.754908 293.307205,585.699504 C293.075473,585.858961 292.837326,586.009656 292.594396,586.151131 C292.522327,586.21425 292.443736,586.257656 292.367186,586.280152 L292.156681,586.393266 L292.267182,586.808159 C293.533189,586.19494 294.699027,585.302889 295.664684,584.284037 C295.938383,583.995249 296.200348,583.694029 296.449731,583.381551 L296.080103,583.1169 C295.440649,583.910758 294.719176,584.62841 293.930225,585.244727 Z M292.031993,585.904383 L291.945283,585.953876 C291.681756,586.100809 291.412948,586.237414 291.139281,586.36303 L291.147412,586.427659 C291.207539,586.41442 291.277596,586.384632 291.338275,586.371945 L291.375785,586.672582 L291.186577,586.731606 L291.195373,586.796953 C291.495364,586.672527 291.790699,586.533157 292.080114,586.380601 L292.02505,586.174463 C291.987265,586.099208 291.991358,586.001487 292.031993,585.904383 Z M290.510402,585.56326 L290.453911,585.591445 C289.835653,585.892077 289.192669,586.141258 288.530214,586.332098 L288.563591,586.438692 C288.610126,586.520227 288.598446,586.636747 288.536823,586.746488 C289.166118,586.595683 289.785361,586.383178 290.383492,586.120492 L290.360792,585.93947 L290.550551,585.879342 L290.510402,585.56326 Z M282.193956,583.878505 L282.217258,583.895316 C282.356467,583.994675 282.490581,584.105059 282.619812,584.22722 C283.061113,584.643698 283.43622,585.125268 283.840562,585.579809 L283.868144,585.609597 L283.962821,585.644663 C284.02273,585.600921 284.110775,585.576256 284.206842,585.582567 C284.377847,585.594703 284.510237,585.69896 284.502514,585.816457 C284.501902,585.82516 284.500538,585.833688 284.498469,585.842014 L284.581397,585.872723 L284.55878,585.933402 L284.470435,585.900267 C284.428419,585.95684 284.349366,585.996691 284.25568,586.006841 C284.531825,586.268889 284.825496,586.49997 285.135978,586.696733 C285.320182,586.709159 285.504667,586.715575 285.68927,586.716114 C285.379407,586.481865 285.087256,586.21168 284.809771,585.90913 C284.376192,585.436386 283.964678,584.923373 283.464904,584.527305 C283.072804,584.216177 282.648144,584.009479 282.193956,583.878505 Z M283.89076,585.833006 L283.722994,586.1122 C283.972745,586.308291 284.235262,586.481481 284.510792,586.629646 C284.68081,586.654642 284.851123,586.673995 285.021797,586.688014 C284.725041,586.492043 284.445261,586.264718 284.180181,586.009168 C284.03639,585.998494 283.9211,585.925127 283.89076,585.833006 Z M283.694544,586.160013 L283.579291,586.352119 C283.691116,586.411573 283.805177,586.467094 283.921493,586.518548 C284.005495,586.538627 284.090486,586.556868 284.176503,586.573289 L284.35216,586.604785 C284.122925,586.473304 283.904028,586.324661 283.694544,586.160013 Z M290.981372,586.100545 L290.969788,586.052001 L290.708868,586.134745 L290.752568,586.483927 C290.840748,586.447481 290.928051,586.409025 291.014903,586.369434 L290.981372,586.100545 Z M281.93083,584.869313 L281.872564,584.966709 C282.208585,585.35433 282.576396,585.694508 282.97713,585.979516 L283.025217,585.972876 L283.080972,585.973119 C283.251976,585.985255 283.383815,586.089512 283.376092,586.207009 L283.370948,586.235308 L283.536279,586.328998 L283.655649,586.129173 C283.306933,585.850243 282.98443,585.526669 282.683801,585.163882 L282.503756,584.943339 C282.449676,585.011335 282.340721,585.053018 282.218779,585.044731 C282.07646,585.035353 281.96117,584.961435 281.93083,584.869313 Z M291.260307,585.754312 L291.285318,585.955467 L291.095559,586.014491 L291.133241,586.313484 C291.456956,586.162542 291.77379,585.994993 292.082431,585.81398 C292.108896,585.772026 292.143045,585.732409 292.183367,585.696202 C292.285487,585.604264 292.405552,585.55391 292.511329,585.549387 C292.786105,585.37389 293.053237,585.186983 293.311588,584.991305 C293.130548,584.972212 292.949728,584.991218 292.778572,585.039215 C292.62853,585.077828 292.410086,585.174915 292.260043,585.307305 C292.107242,585.435834 292.020637,585.578154 292.020085,585.576499 L292.041497,585.531797 C292.070467,585.475 292.129675,585.372029 292.224187,585.269795 C292.361542,585.113684 292.586606,584.982949 292.751543,584.941025 C292.953751,584.884093 293.169932,584.890478 293.367063,584.948137 C293.485072,584.858652 293.60107,584.766546 293.715079,584.672779 L293.581577,584.172466 C292.864847,584.784102 292.086788,585.317559 291.260307,585.754312 Z M246.95217,583.390953 C246.5892,583.903966 246.678012,584.800912 247.343825,585.025975 C247.48449,585.073415 248.038875,584.964193 248.104519,585.050247 C248.262284,585.25821 247.434844,585.281379 247.350997,585.271449 C246.783435,585.207633 246.307227,584.832252 246.113409,584.314714 C245.899333,584.588268 245.701803,584.876428 245.523633,585.180157 C245.816873,585.701601 246.294187,586.076945 247.019469,586.117645 C247.320469,586.134648 247.628456,586.081019 247.916919,585.971109 C248.192099,585.596562 248.496797,585.247504 248.822291,584.919968 L248.725208,584.85348 C248.700242,584.836148 248.676319,584.818721 248.655042,584.800912 L246.95217,583.390953 Z M281.843905,585.015421 L281.635998,585.361796 C281.829843,585.524391 282.032595,585.673687 282.244432,585.808701 L282.23588,585.806527 C282.372795,585.815361 282.484957,585.884663 282.519987,585.972248 C282.602612,586.019508 282.687964,586.064316 282.774666,586.106918 L282.76489,586.127023 C282.784501,586.070118 282.83709,586.023894 282.907586,585.997195 C282.521829,585.719242 282.169085,585.389532 281.843905,585.015421 Z M281.661975,583.760182 L281.519316,583.739582 L281.573376,583.790883 C281.838038,584.054205 282.07747,584.340314 282.313668,584.629688 C282.450981,584.659403 282.548787,584.751131 282.542584,584.852765 C282.541492,584.868268 282.538019,584.883223 282.53242,584.897479 L282.773716,585.189809 C283.055875,585.523074 283.359358,585.822024 283.684714,586.081886 L283.891312,585.736471 L283.897981,585.7207 L283.857009,585.676011 L283.710378,585.621181 L283.732995,585.55995 L283.763969,585.571796 L283.751199,585.557192 C283.324239,585.067347 282.921,584.538889 282.424536,584.123514 C282.297274,584.016767 282.166041,583.921083 282.030998,583.835452 C281.910032,583.805415 281.786992,583.780537 281.661975,583.760182 Z M265.528396,584.552114 L266.083709,586.071055 L267.382906,585.229589 C267.816803,584.950567 268.252749,584.675081 268.694396,584.409337 L268.20429,583.068377 C267.295688,583.527807 266.409309,584.037253 265.528396,584.552114 Z M293.599281,584.844513 L293.436176,584.970735 C293.507823,584.997291 293.57457,585.028734 293.636904,585.063486 L293.706409,585.102652 L293.634146,585.069554 C293.56795,585.041973 293.498445,585.022114 293.42894,585.008323 L293.394786,585.003389 C293.137622,585.199033 292.873574,585.38443 292.60315,585.558785 C292.648548,585.569614 292.688413,585.59213 292.718997,585.626145 C292.805953,585.722906 292.792119,585.885542 292.697093,586.030317 C292.907031,585.902448 293.114151,585.767199 293.316857,585.62594 C293.336824,585.543759 293.38865,585.457421 293.467554,585.386188 C293.576149,585.288858 293.706829,585.245267 293.810886,585.26173 L293.861373,585.223987 L293.732415,584.737455 L293.599281,584.844513 Z M248.858107,584.945764 L248.853477,584.949908 C248.547798,585.258862 248.261349,585.586771 248.000208,585.936032 C248.371411,585.77997 248.704485,585.529399 248.941337,585.21739 C249.026843,585.10483 248.958444,585.021594 248.858107,584.945764 Z M290.888546,585.36849 L290.851587,585.389206 C290.777739,585.42843 290.703508,585.466915 290.628905,585.504648 L290.671358,585.839625 L290.937794,585.756329 L290.888546,585.36849 Z M261.013139,584.31217 L260.246312,585.406337 L260.134903,585.591579 L260.38263,585.804873 L261.290056,584.551025 L261.013139,584.31217 Z M291.006005,585.305808 L291.058048,585.71937 L291.248359,585.662001 L291.252982,585.696032 C291.954023,585.318754 292.615974,584.875706 293.219874,584.388846 C293.335979,584.295284 293.450586,584.199876 293.563646,584.102676 L293.427497,583.592413 C292.685115,584.251956 291.872748,584.82991 291.006005,585.305808 Z M259.468928,582.979309 L259.197184,583.399228 L258.616385,584.280359 L259.858584,585.352539 L260.748358,584.083245 L259.468928,582.979309 Z M280.169841,583.682795 C280.318477,583.885021 280.465551,584.087832 280.617958,584.286795 C280.914775,584.675485 281.240939,585.025066 281.597583,585.329301 L281.810011,584.976151 C281.741315,584.895993 281.673854,584.81384 281.607577,584.729752 L281.098013,584.067782 C281.012301,583.957754 280.925402,583.848718 280.836123,583.741936 L280.782246,583.6789 C280.578433,583.672302 280.374143,583.673742 280.169841,583.682795 Z M294.541193,584.019218 L294.442417,584.114785 C294.229216,584.315654 294.00985,584.509127 293.784688,584.69462 L293.913646,585.18295 C294.216099,584.944217 294.506419,584.692613 294.782535,584.431008 C294.677394,584.460115 294.577616,584.443922 294.517852,584.377814 C294.44019,584.291909 294.454323,584.146969 294.541193,584.019218 Z M245.3177,582.042226 C245.264192,582.324107 245.210684,582.607092 245.174829,582.892834 C245.083407,583.613413 245.151276,584.475855 245.495698,585.128011 C245.676387,584.823353 245.877218,584.534443 246.094645,584.259869 C246.062312,584.163652 246.040016,584.061799 246.028747,583.956371 C245.991236,583.600572 246.042538,583.24753 246.197545,582.923725 C246.29077,582.729553 246.046951,582.642396 245.900218,582.521038 C245.707148,582.360514 245.515182,582.197785 245.3177,582.042226 Z M280.846705,583.681256 L281.008664,583.877466 L281.699147,584.758988 C281.745143,584.816174 281.791772,584.872437 281.839038,584.927754 L281.931382,584.772779 C281.964074,584.676882 282.092563,584.611124 282.241896,584.619096 C282.032358,584.359863 281.817728,584.104476 281.582808,583.871454 L281.42885,583.727446 L281.236067,583.70714 C281.106575,583.695144 280.976747,583.686553 280.846705,583.681256 Z M249.278337,584.544692 L249.208474,584.607139 L249.040478,584.765506 L249.175227,584.876485 C249.222437,584.769331 249.256812,584.65783 249.278337,584.544692 Z M247.982226,582.886564 L247.880007,582.890076 C247.820109,582.89444 247.429891,583.016041 247.24165,583.113139 L247.14408,583.202368 L249.007838,584.737676 C249.100252,584.648999 249.194148,584.561942 249.289347,584.476449 C249.362312,583.972757 249.18246,583.447451 248.748819,583.136653 C248.554892,582.998073 248.322255,582.911883 248.08439,582.89132 L247.982226,582.886564 Z M293.633789,584.127679 L293.767162,584.629713 C293.863681,584.549475 293.958745,584.468051 294.052279,584.385537 C294.366133,584.108406 294.667756,583.816956 294.956083,583.512419 L294.813915,582.978766 C294.443079,583.385595 294.048857,583.76978 293.633789,584.127679 Z M267.968602,582.425055 L265.315277,583.970162 L265.508578,584.499281 C266.38874,583.982906 267.271447,583.471228 268.182971,583.011853 L267.968602,582.425055 Z M273.27084,582.373202 C272.557608,582.575973 271.869968,582.837389 271.200938,583.14016 L271.388862,584.475572 C271.827195,584.222127 272.282401,583.98068 272.750358,583.759111 L272.767204,583.788125 C272.62654,583.587333 272.749001,583.259666 273.039708,583.055013 C273.281872,582.885112 273.564305,582.853669 273.733655,582.963443 L273.636492,582.275647 C273.513922,582.306253 273.392003,582.338795 273.27084,582.373202 Z M268.320864,583.009771 L268.808057,584.341242 C269.1697,584.125532 269.535357,583.916679 269.907019,583.718068 C270.291577,583.512438 270.688953,583.315203 271.096357,583.13119 L270.924749,581.913848 C270.028197,582.210899 269.16468,582.58804 268.320864,583.009771 Z M298.070329,583.662354 L297.73825,584.229426 L297.873398,584.325961 L298.201065,583.75613 L298.070329,583.662354 Z M257.850489,578.237532 L257.671838,578.266552 C257.047096,578.376356 256.431216,578.535092 255.84605,578.706538 L255.656842,578.763907 L255.537691,580.032097 L255.411368,580.019962 L255.424056,579.882055 C255.397394,579.731277 255.331658,579.614209 255.246003,579.509464 L255.192372,579.447925 C255.077772,579.324222 254.96162,579.195866 254.856018,579.063087 L254.831781,579.030163 C253.689996,579.424325 252.573601,579.907603 251.481578,580.436992 C251.334766,580.508207 251.187145,580.580827 251.039079,580.655009 L251.043587,580.675294 C251.171564,580.943937 251.034761,581.347728 250.699372,581.634022 C250.321507,581.956724 249.835524,582.008025 249.613218,581.748209 C249.550326,581.674678 249.515432,581.583975 249.506333,581.484394 C249.141774,581.700237 248.781083,581.929574 248.431061,582.174402 C248.924904,582.375679 249.344668,582.782237 249.534887,583.341859 C249.623778,583.60333 249.649851,583.880607 249.622832,584.153889 L249.617631,584.191364 L249.888561,583.97084 C250.43531,583.536226 251.010266,583.145176 251.584181,582.788577 C253.123091,581.832365 254.767449,580.969177 256.46012,580.336284 C256.975795,579.671774 257.470798,578.983122 257.850489,578.237532 Z M261.031699,579.397214 L261.026637,579.442762 C261.00845,579.582556 260.982248,579.722083 260.950254,579.860541 C260.851419,580.288948 260.70211,580.704446 260.52089,581.108094 L261.486435,581.94183 L261.41693,582.022367 L260.475314,581.207935 C260.204306,581.792061 259.869062,582.351317 259.526656,582.888959 L260.954886,584.120964 C261.433089,583.292364 261.871355,582.433924 262.130735,581.510457 C262.296517,580.919922 262.415208,580.234723 262.226232,579.637846 L262.201895,579.570386 L262.058918,579.527451 C261.962094,579.501213 261.863985,579.480292 261.765558,579.464473 C261.523844,579.42567 261.278767,579.404081 261.031699,579.397214 Z M295.024802,583.53154 L295.122435,583.900105 C295.149006,583.952488 295.151779,584.017757 295.133416,584.085368 C295.447152,583.766291 295.7465,583.430529 296.02978,583.080695 L295.688956,582.836568 L295.652652,582.815729 C295.451245,583.061804 295.241807,583.300651 295.024802,583.53154 Z M294.705405,582.570684 L294.27468,582.772682 C294.01974,583.041147 293.754237,583.299421 293.478978,583.546444 L293.615212,584.058126 C294.03032,583.697739 294.424291,583.313091 294.794642,582.906817 L294.705405,582.570684 Z M296.967898,582.792228 L296.92129,582.859185 C296.796978,583.032663 296.668979,583.202986 296.537417,583.369916 L297.492224,584.052906 L297.81989,583.483627 L297.111601,582.97613 C297.045169,582.946849 296.994191,582.879292 296.967898,582.792228 Z M294.696585,583.868927 L294.731978,583.846416 C294.839933,583.787746 294.954327,583.775851 295.03583,583.815154 L294.974813,583.584446 C294.883382,583.680698 294.790628,583.775543 294.696585,583.868927 Z M281.148633,583.4252 L281.173213,583.44338 L281.310204,583.551793 L281.444567,583.668363 C281.64178,583.696516 281.838697,583.733681 282.035088,583.780402 L281.882022,583.745891 C281.648105,583.612725 281.403378,583.507474 281.148633,583.4252 Z M277.532302,582.577392 L277.511246,582.576797 C276.864858,582.591438 276.217528,582.673369 275.583354,582.811604 L275.714044,583.741892 C276.797998,583.337915 277.925083,583.084701 279.051141,583.075561 L279.083332,583.055564 C279.196245,583.018044 279.324984,582.948201 279.437525,582.847171 L279.400421,582.806542 L279.317774,582.722382 L279.063303,582.678018 C278.915706,582.654608 278.767448,582.635302 278.618703,582.619963 L278.527292,582.71852 C278.435722,582.873527 278.185284,582.940274 277.928225,582.868011 C277.742324,582.815803 277.597703,582.703591 277.532302,582.577392 Z M298.58941,582.775338 L298.10122,583.608846 L298.231956,583.702623 L298.714078,582.864701 L298.58941,582.775338 Z M280.466261,583.260218 L280.52032,583.314277 C280.611514,583.40968 280.699462,583.507734 280.785161,583.607652 C280.973116,583.615413 281.161761,583.631425 281.35017,583.655577 C281.232636,583.553225 281.110783,583.460316 280.985316,583.375938 C280.862904,583.341545 280.738299,583.312054 280.611579,583.286943 L280.466261,583.260218 Z M279.78308,583.17632 L279.86513,583.279239 C279.949835,583.387991 280.032689,583.498212 280.114835,583.609035 C280.316258,583.599107 280.517544,583.59746 280.718815,583.604473 C280.635361,583.509293 280.549492,583.416325 280.46031,583.3266 L280.376466,583.245577 C280.179678,583.214835 279.981741,583.191869 279.78308,583.17632 Z M294.116438,582.846642 L293.383707,583.187403 L293.460576,583.475492 C293.685985,583.272843 293.904748,583.063088 294.116438,582.846642 Z M297.685955,578.186217 L297.574688,578.490482 C297.651037,578.546224 297.710062,578.652326 297.725562,578.779904 C297.750385,578.979042 297.658815,579.154459 297.522012,579.171008 C297.453225,579.179606 297.385972,579.146505 297.332946,579.086149 C296.726073,580.486503 295.884923,581.791575 294.863452,582.924133 L295.005753,583.459687 C295.213992,583.237473 295.415189,583.008396 295.608936,582.77293 C295.552656,582.707412 295.521413,582.605738 295.525892,582.49285 L295.531742,582.431674 C295.562633,582.221504 295.704953,582.068704 295.849479,582.090217 C295.926012,582.10161 295.987696,582.159563 296.024044,582.242779 C296.416675,581.717343 296.773496,581.163303 297.090412,580.586007 C297.020703,580.523483 296.979867,580.409913 296.984945,580.281929 L296.990795,580.220754 C297.015949,580.053059 297.112418,579.921375 297.223714,579.886706 L297.266035,579.878372 L297.309084,579.879848 C297.352276,579.886302 297.390752,579.9077 297.422605,579.940154 L297.466071,579.851368 C297.744912,579.264026 297.983339,578.655996 298.177469,578.031776 L297.847068,577.698552 C297.796523,577.862029 297.742793,578.024621 297.685955,578.186217 Z M297.495595,581.992721 L297.333625,582.25033 C297.441448,582.308331 297.503399,582.47044 297.476227,582.648464 C297.4503,582.823329 297.347698,582.957926 297.230753,582.986059 L297.850781,583.430119 L298.332903,582.591646 L297.495595,581.992721 Z M296.118085,583.069536 L296.487852,583.333573 C296.648279,583.130771 296.803428,582.923287 296.953067,582.711439 C296.948466,582.685716 296.947452,582.659034 296.948538,582.631715 L296.954388,582.570684 C296.985279,582.361066 297.12815,582.207714 297.272125,582.229779 L297.277744,582.231594 C297.335559,582.142339 297.392424,582.052393 297.448323,581.961777 L297.469056,581.973272 C297.365595,581.927671 297.299618,581.789669 297.305992,581.628615 L297.311842,581.567275 C297.343285,581.357657 297.485604,581.205408 297.629579,581.226921 C297.701467,581.237622 297.760253,581.289403 297.797315,581.364613 L297.904371,581.167416 L297.542551,580.908414 C297.131997,581.672536 296.654273,582.397925 296.118085,583.069536 Z M280.100718,582.932445 L280.123667,582.951015 C280.215749,583.024474 280.305179,583.102664 280.392012,583.185811 C280.59271,583.22234 280.792208,583.267125 280.990858,583.321448 L280.836803,583.281013 C280.602922,583.139074 280.357234,583.024476 280.100718,582.932445 Z M273.736971,582.251027 L273.859426,583.120105 C273.876953,583.16854 273.882895,583.221615 273.878156,583.276821 C274.400504,583.076805 274.934974,582.907237 275.475328,582.777861 L275.363531,581.982895 C274.815263,582.031496 274.270251,582.12285 273.736971,582.251027 Z M279.603248,582.784195 L279.549015,582.842026 L279.522427,582.865253 L279.594232,582.946458 L279.72194,583.099364 C279.913609,583.115348 280.105703,583.138693 280.297288,583.170199 C280.180251,583.063233 280.059109,582.965658 279.934005,582.876475 C279.825583,582.842054 279.715302,582.811422 279.603248,582.784195 Z M279.485484,582.898815 L279.480503,582.902764 C279.403552,582.964822 279.321945,583.011986 279.238477,583.048678 L279.171201,583.075515 C279.332372,583.076707 279.49349,583.082969 279.654425,583.094573 C279.599383,583.028165 279.543157,582.962826 279.485484,582.898815 Z M272.103597,581.577204 C271.737686,581.664553 271.37781,581.766749 271.023152,581.881611 L271.192975,583.087883 C271.975938,582.739645 272.794849,582.441266 273.63013,582.226623 L273.574235,581.833159 L272.688873,581.957827 L272.619524,581.465536 C272.44639,581.499076 272.274322,581.536357 272.103597,581.577204 Z M296.079974,582.266558 L296.046601,582.310457 C296.061123,582.370587 296.064346,582.43874 296.053581,582.509454 C296.027655,582.684319 295.925052,582.818916 295.808107,582.847049 L296.068057,583.033218 C296.606815,582.362031 297.086649,581.639684 297.498745,580.877333 L297.148009,580.625648 L297.133103,580.617323 C296.819683,581.19089 296.467319,581.742717 296.079974,582.266558 Z M259.121611,580.040372 L258.971568,580.299636 L258.911198,580.264118 C258.805392,580.451149 258.693698,580.635281 258.578259,580.816719 C258.582737,580.902101 258.574589,580.994115 258.55178,581.08736 C258.478965,581.385238 258.279276,581.603131 258.072416,581.632919 L259.489923,582.856162 C259.835217,582.312275 260.162811,581.754199 260.43019,581.169632 L259.566774,580.424304 L259.416179,580.68412 L259.295373,580.614064 L259.459206,580.331631 L259.121611,580.040372 Z M294.704318,582.299097 L294.763877,582.544206 L294.844046,582.852338 C295.860013,581.726127 296.695341,580.43619 297.297903,579.037842 C297.26336,578.983829 297.238997,578.916119 297.22965,578.841135 C297.209239,578.675095 297.268815,578.526156 297.36866,578.470993 L297.104507,578.374738 C296.535172,579.798413 295.715621,581.132087 294.704318,582.299097 Z M299.050018,581.988166 L298.620301,582.72183 L298.744969,582.811194 L299.169721,582.073668 L299.050018,581.988166 Z M275.465526,581.974351 L275.575354,582.754388 C276.213044,582.607792 276.858466,582.51787 277.503161,582.500789 C277.491164,582.453835 277.490834,582.405544 277.504024,582.35886 C277.560842,582.159171 277.841068,582.064291 278.131776,582.14538 C278.348731,582.206445 278.509386,582.349725 278.553021,582.501628 L278.561394,582.541035 L278.572987,582.542266 L278.790418,582.307007 L278.689506,582.274054 C278.562155,582.234706 278.432293,582.199918 278.300022,582.1691 C277.376434,581.953916 276.416874,581.899307 275.465526,581.974351 Z M279.046487,582.398835 L279.069381,582.418408 C279.160906,582.495405 279.249598,582.577023 279.33551,582.663489 L279.558553,582.715649 L279.596898,582.661265 C279.4201,582.560577 279.236479,582.473732 279.046487,582.398835 Z M278.880863,582.33825 L278.679476,582.554423 C278.866796,582.577152 279.053613,582.606951 279.239716,582.644223 C279.124518,582.533526 279.004805,582.431817 278.880863,582.33825 Z M279.521324,581.645606 L278.920602,582.293768 L279.09567,582.359105 C279.279686,582.432267 279.455967,582.516495 279.624692,582.612791 C279.716327,582.442131 279.68773,582.264062 279.64611,582.097436 L279.521324,581.645606 Z M250.848862,580.474502 L250.403928,578.610958 L249.95633,578.800866 C248.393648,579.475201 246.738942,580.294765 245.390946,581.446145 C245.387011,581.52469 245.380044,581.602637 245.371208,581.680359 C245.35521,581.820472 245.63985,581.971617 245.733075,582.04719 C245.960897,582.231985 246.18927,582.415125 246.414334,582.603782 C246.953085,582.016757 247.728791,581.90694 248.384938,582.155721 L248.42218,582.129328 C248.776264,581.882021 249.139344,581.651056 249.504608,581.434071 C249.502289,581.193153 249.642535,580.909663 249.895651,580.693498 C250.210079,580.424856 250.598976,580.344318 250.848862,580.474502 Z M297.947933,581.198805 L297.822348,581.430075 C297.840695,581.494233 297.845827,581.568658 297.834233,581.646158 C297.808306,581.81992 297.705152,581.955069 297.588207,581.983202 L298.363794,582.538138 L298.788547,581.800613 L297.947933,581.198805 Z M280.006204,581.122664 L279.917944,581.217544 C279.819754,581.392409 279.796034,581.574446 279.807067,581.743244 L279.823765,581.979261 C279.830941,582.097102 279.832993,582.214664 279.814789,582.33183 L279.813686,582.362721 C280.060263,582.163032 280.104945,581.937417 280.112116,581.73166 C280.119839,581.527558 280.063573,581.320146 280.006204,581.122664 Z M275.366074,581.270516 L275.455448,581.905599 C276.541624,581.808016 277.63149,581.887596 278.684014,582.215352 L278.729916,582.229694 C278.280632,581.922048 277.779673,581.712025 277.235934,581.566172 C276.626128,581.40256 275.998571,581.306699 275.366074,581.270516 Z M273.605398,581.317225 L273.730012,582.201377 C274.266487,582.06804 274.809374,581.969695 275.353511,581.915277 L275.26184,581.265094 C274.710084,581.239247 274.155109,581.258405 273.605398,581.317225 Z M273.465564,581.059778 L270.957317,581.412268 L271.016639,581.834221 C271.82492,581.574668 272.657607,581.376287 273.495644,581.26914 L273.465564,581.059778 Z M249.918855,576.581648 C249.426708,576.746211 248.938274,576.922098 248.453699,577.106269 C247.21518,577.577385 245.918719,578.131987 244.745167,578.861263 C245.064861,579.338188 245.268696,579.891024 245.353556,580.467331 C245.398239,580.771346 245.411625,581.079471 245.395627,581.385962 C246.313386,580.610824 247.365887,579.987997 248.409017,579.462818 C249.054137,579.137812 249.714876,578.828137 250.387259,578.541587 L249.918855,576.581648 Z M275.198776,580.816511 L273.567063,581.045988 L273.597225,581.256604 C274.148441,581.19104 274.701635,581.165433 275.251394,581.188325 L275.198776,580.816511 Z M297.571808,580.853681 L297.933043,581.113338 C298.236917,580.537279 298.503106,579.938816 298.728055,579.322871 C298.683001,579.340782 298.637073,579.343683 298.593823,579.329325 C298.460329,579.285746 298.403512,579.092677 298.4675,578.897401 C298.520456,578.735223 298.64016,578.623242 298.756001,578.616071 L298.586689,578.444152 C298.322287,579.275892 297.981051,580.084153 297.571808,580.853681 Z M260.141702,579.431218 L259.620281,580.331631 L260.475503,581.068991 C260.588885,580.813072 260.690385,580.551994 260.776491,580.284743 C260.857029,580.034525 260.92927,579.766478 260.971855,579.494266 L260.985385,579.396099 C260.705928,579.390406 260.424039,579.403312 260.141702,579.431218 Z M244.363676,579.267145 L244.326887,579.132469 C244.002786,579.351882 243.690352,579.586265 243.393727,579.837707 C243.633323,580.258991 243.965504,580.623785 244.361179,580.905323 L244.38545,580.836369 C244.472828,580.31955 244.486481,579.77905 244.363676,579.267145 Z M297.478362,579.943864 L297.458073,579.985003 C297.508443,580.063617 297.531357,580.17739 297.513186,580.298533 C297.487259,580.473399 297.384105,580.607996 297.26716,580.636129 L297.528073,580.822796 C297.93973,580.053327 298.282508,579.243575 298.547412,578.40493 L298.217562,578.072311 C298.016772,578.712058 297.768938,579.338168 297.478362,579.943864 Z M254.486657,577.232602 L254.460364,577.238107 C254.254125,577.289094 254.048559,577.34315 253.843671,577.400053 C253.921198,577.646996 253.807266,577.978478 253.544523,578.237376 L253.47571,578.300541 C253.098397,578.623242 252.612414,578.674544 252.390108,578.414727 C252.272649,578.27745 252.252517,578.080883 252.315472,577.878322 C251.717287,578.085456 251.124363,578.313224 250.537695,578.555438 L251.024802,580.595838 C252.237961,579.967766 253.500955,579.408633 254.788531,578.973152 L254.754381,578.928844 C254.62199,578.742945 254.505045,578.533327 254.457054,578.293921 C254.410717,578.064996 254.437747,577.794147 254.51332,577.55419 L254.548072,577.462619 L254.521594,577.378221 C254.507255,577.332945 254.49544,577.284218 254.486657,577.232602 Z M257.92359,578.225105 C257.551777,578.964731 257.051618,579.652009 256.548927,580.304049 C257.054551,580.116857 257.564343,579.951142 258.076829,579.809792 C258.275925,579.754848 258.47601,579.703346 258.676956,579.65613 C258.572537,579.530083 258.526162,579.324111 258.561221,579.103294 L258.577155,579.024275 C258.653169,578.713047 258.866328,578.490072 259.08269,578.474927 L259.132616,578.475175 L259.18229,578.483129 C259.338551,578.521583 259.447404,578.671912 259.483999,578.868132 L259.434935,579.006623 C259.52496,578.759494 259.607219,578.494272 259.659398,578.223772 L259.676394,578.126253 C259.098808,578.092693 258.508615,578.135465 257.92359,578.225105 Z M259.414467,579.534042 L259.175118,579.947147 L259.512714,580.238406 L259.969585,579.450053 C259.784379,579.472252 259.599153,579.500586 259.414467,579.534042 Z M243.503261,578.090076 L243.429481,578.094784 C242.843102,578.180286 243.063201,579.098745 243.201108,579.440753 C243.250179,579.563261 243.306745,579.682344 243.370221,579.797435 C243.671639,579.54381 243.987886,579.308465 244.314866,579.088379 C244.210036,578.748405 243.937021,578.098452 243.503261,578.090076 Z M260.968597,578.369505 L260.994767,578.47002 C261.057423,578.743374 261.06726,579.023141 261.042069,579.302908 L261.037364,579.348742 C261.387336,579.348819 261.737532,579.380811 262.072285,579.474615 L262.180024,579.509095 C261.953544,578.945817 261.49425,578.575625 260.968597,578.369505 Z M259.723877,578.129186 L259.716885,578.174735 C259.693889,578.313849 259.662757,578.452376 259.625798,578.589593 C259.588439,578.728173 259.545644,578.865169 259.498069,579.000643 C259.498183,579.041118 259.496164,579.083254 259.491095,579.126094 L259.828245,578.542705 L259.949051,578.61221 L259.43328,579.501984 L259.54936,579.481731 C259.694905,579.457853 259.840893,579.436872 259.987226,579.419065 L260.272856,578.926637 L260.393662,578.996142 L260.160046,579.399544 L260.251167,579.390483 L260.342361,579.382281 C260.555879,579.364097 260.773539,579.350564 260.99155,579.348912 C261.027938,579.033134 261.019516,578.714472 260.933125,578.414603 L260.910537,578.346877 L260.766206,578.299083 C260.668374,578.269166 260.569053,578.244519 260.469235,578.224968 C260.224251,578.176761 259.975307,578.145647 259.723877,578.129186 Z M255.457903,578.824912 L255.84605,578.706538 C255.604251,578.777189 255.363575,578.852286 255.124011,578.931437 C255.239568,579.034194 255.36403,579.127517 255.48639,579.217896 L255.504042,579.028137 C255.493923,578.95704 255.478229,578.889341 255.457903,578.824912 Z M254.603787,577.601629 C254.494564,578.053963 254.644607,578.356807 254.819473,578.603384 C254.890929,578.704197 254.975623,578.795903 255.067513,578.881447 C255.191029,578.840949 255.31359,578.802547 255.436334,578.765337 C255.373475,578.592478 255.275757,578.443977 255.164791,578.317641 L254.972294,578.10075 C254.844602,577.956019 254.722386,577.807938 254.630816,577.638037 L254.603787,577.601629 Z M246.976993,575.354302 C245.492678,575.846015 243.924872,576.447536 242.558316,577.312738 C242.610747,577.308873 242.670935,577.315779 242.739948,577.335745 C243.188972,577.467032 243.609863,577.761601 243.977798,578.041828 C244.270119,578.2641 244.51837,578.529649 244.721591,578.825555 C245.409959,578.398188 246.135647,578.031546 246.855636,577.708093 C247.841834,577.265074 248.861767,576.856735 249.901444,576.507708 L249.514477,574.893693 L250.960395,574.284562 C249.610448,574.547544 248.281354,574.922131 246.976993,575.354302 Z M298.767585,575.313481 L298.020131,576.241318 L298.511063,576.736139 L298.562932,576.738885 L298.553554,576.779154 L298.887735,577.115 C298.928422,576.923788 298.96508,576.731445 298.997614,576.538093 L299.047812,576.541954 C299.013165,576.747987 298.97371,576.953325 298.92957,577.157757 L299.095803,577.325264 C299.187006,577.384595 299.227213,577.526738 299.195505,577.679244 L299.180202,577.736778 C299.116213,577.931502 298.956242,578.053963 298.822196,578.009833 C298.787201,577.998503 298.757501,577.97703 298.733823,577.948031 C298.694434,578.0921 298.651804,578.236449 298.606881,578.380111 L298.867981,578.644204 C298.894475,578.661582 298.916665,578.685948 298.93404,578.715506 C299.132172,578.089387 299.287537,577.446574 299.396929,576.7928 C299.37674,576.717494 299.380034,576.625832 299.410231,576.53368 C299.420918,576.500949 299.434325,576.470284 299.44987,576.442118 C299.456463,576.403696 299.461839,576.364448 299.467048,576.325165 L299.516143,576.32682 L299.51215,576.354351 C299.567188,576.293746 299.633571,576.256453 299.698731,576.251798 L298.767585,575.313481 Z M255.827216,576.947432 L255.663043,578.698038 C256.006963,578.598118 256.35221,578.507754 256.698314,578.427966 C257.085308,578.338403 257.475266,578.26154 257.867331,578.202804 C257.954464,578.031172 258.035059,577.85565 258.108272,577.676651 C258.208227,577.433273 258.300591,577.17136 258.362418,576.902952 L258.382174,576.806225 C257.543219,576.726887 256.672988,576.801948 255.827216,576.947432 Z M253.094535,575.717272 C252.067025,575.925856 251.053485,576.207322 250.055126,576.536405 L250.520748,578.485067 C251.122062,578.232142 251.732437,577.998039 252.349047,577.788297 C252.41317,577.637738 252.523233,577.487008 252.672541,577.359465 C252.986417,577.091375 253.375314,577.010285 253.625201,577.140469 L253.276152,575.68109 L253.094535,575.717272 Z M297.34876,577.713132 L297.316835,577.802034 L297.347146,577.817316 C297.424926,577.859791 297.487811,577.912747 297.541319,577.971771 L297.568348,578.039621 L297.543525,578.021969 C297.487417,577.957899 297.402909,577.891745 297.30182,577.848218 C297.24639,578.007021 297.187704,578.164364 297.126004,578.320637 L297.479537,578.450032 C297.496475,578.452463 297.513134,578.45729 297.529314,578.464293 C297.629687,578.199321 297.721863,577.929611 297.80535,577.656746 L297.474139,577.322854 C297.434442,577.453535 297.392635,577.583645 297.34876,577.713132 Z M298.872861,577.18403 L298.539212,576.848107 L298.562932,576.738885 C298.475376,577.166298 298.366549,577.589887 298.237644,578.00777 L298.567562,578.340597 C298.613942,578.191261 298.657855,578.04102 298.699249,577.88994 C298.661566,577.806815 298.657422,577.692553 298.694771,577.577909 C298.724218,577.488655 298.773716,577.414605 298.831584,577.36477 C298.845954,577.305386 298.859611,577.244766 298.872861,577.18403 Z M259.691991,577.098838 L259.715616,577.200566 C259.773705,577.491338 259.771662,577.787014 259.731138,578.080808 C260.087302,578.094316 260.443452,578.139787 260.781985,578.246758 L260.889974,578.283927 C260.676763,577.712319 260.220814,577.324898 259.691991,577.098838 Z M296.818277,577.916978 L296.564939,578.115746 L297.07664,578.303344 C297.13831,578.146914 297.197013,577.989193 297.252676,577.830252 C297.221405,577.818804 297.188514,577.810489 297.154628,577.80518 C297.019874,577.784376 296.913083,577.846653 296.818277,577.916978 L296.818277,577.916978 Z M258.430678,576.810988 L258.422587,576.855994 C258.39467,576.994185 258.358435,577.131505 258.316235,577.267344 C258.217669,577.585286 258.089637,577.893558 257.940422,578.193273 C258.299137,578.140433 258.65992,578.104211 259.021766,578.087613 C259.239761,578.077687 259.461825,578.07253 259.683878,578.079243 C259.73139,577.764899 259.733098,577.446053 259.654547,577.143 L259.63458,577.07504 C259.489451,577.016737 259.339389,576.970298 259.187806,576.935264 C258.939508,576.877681 258.686602,576.837054 258.430678,576.810988 Z M254.710842,577.177672 L254.611255,577.202049 C254.684079,577.486587 254.910459,577.665604 255.120661,577.826693 C255.27622,577.945293 255.427365,578.055067 255.584028,578.176425 L255.697051,576.970403 C255.362865,577.030849 255.032972,577.101682 254.710842,577.177672 Z M296.465095,577.731262 C296.338772,577.778702 296.225689,577.866962 296.118673,577.953016 L296.200314,577.982804 C296.332704,577.997698 296.450201,577.965703 296.550597,577.915505 L296.72698,577.827314 C296.78628,577.799388 296.846821,577.77484 296.910809,577.759395 L296.930116,577.751672 C296.744218,577.651827 296.593624,577.682719 296.465095,577.731262 Z M297.983172,576.287654 L297.332252,577.095788 L297.451087,577.214889 L297.493879,577.066551 L297.546283,577.076481 L297.493327,577.257966 L297.824883,577.592321 C297.892655,577.366722 297.954491,577.138994 298.010202,576.909338 L298.062606,576.91706 C298.004212,577.157674 297.938873,577.396793 297.866823,577.634083 L298.197335,577.967334 C298.314024,577.585454 298.414143,577.197595 298.496807,576.804779 L297.983172,576.287654 Z M253.416779,575.653997 L253.820132,577.3397 C254.039198,577.280852 254.258757,577.225537 254.478686,577.173995 C254.460133,577.025477 254.46702,576.85482 254.51001,576.675448 C254.546638,576.52364 254.604449,576.388778 254.674686,576.265496 L254.754099,576.134189 C254.779091,576.095013 254.81506,576.05274 254.85919,576.079139 L254.836021,576.141473 C254.682669,576.369295 254.553589,576.725094 254.591651,577.091926 L254.599475,577.147626 C254.845968,577.089912 255.091853,577.038733 255.338002,576.992633 C255.459006,576.97003 255.580245,576.948592 255.701691,576.928474 L255.78482,576.039422 C255.756712,575.799504 255.94599,575.528532 256.255001,575.372774 C255.304121,575.35129 254.332055,575.480424 253.416779,575.653997 Z M258.431537,575.779434 L258.452265,575.882211 C258.502264,576.175183 258.490853,576.470634 258.440101,576.762824 C258.802803,576.790004 259.164269,576.849332 259.505847,576.969008 L259.614713,577.01077 C259.415771,576.431051 258.96343,576.025926 258.431537,575.779434 Z M257.249342,575.456752 L257.273805,575.49386 L257.298484,575.544613 C257.411016,575.827597 257.168852,576.189465 256.757889,576.353298 C256.415881,576.488998 256.065046,576.44542 255.891284,576.264486 L255.830748,576.907611 C256.455437,576.809154 257.085336,576.746997 257.716617,576.742195 C257.939213,576.740508 258.16582,576.743914 258.392047,576.759242 C258.450454,576.446617 258.462299,576.127978 258.392212,575.822135 L258.373053,575.752576 L258.226351,575.693524 C258.126757,575.656053 258.02527,575.623732 257.922925,575.596466 C257.702051,575.537476 257.47714,575.491431 257.249342,575.456752 Z M252.930151,574.235602 L249.828904,575.588191 L250.037686,576.462349 C251.097849,576.112343 252.177841,575.824922 253.262902,575.626076 L252.930151,574.235602 Z M253.026158,573.974858 L253.069161,574.175475 L253.063644,574.17713 L253.404219,575.600687 C253.601695,575.565919 253.799317,575.534121 253.996997,575.505447 C254.764507,575.394001 255.540032,575.328143 256.314979,575.344158 L256.350237,575.33003 C256.679592,575.19873 257.017804,575.234305 257.197063,575.398991 C257.557084,575.440917 257.914229,575.514094 258.250039,575.644451 L258.356175,575.689084 C258.114858,574.92064 257.422793,574.434464 256.6768,574.208573 C255.524675,573.860123 254.251811,573.852512 253.026158,573.974858 Z" id="53"></path>
        </g>
    </g>
</svg>
