<?xml version="1.0" encoding="UTF-8"?>
<svg width="61px" height="31px" viewBox="0 0 61 31" version="1.1" xmlns="http://www.w3.org/2000/svg" xmlns:xlink="http://www.w3.org/1999/xlink">
    <title>car-suv-svgrepo-com</title>
    <g id="页面-1" stroke="none" stroke-width="1" fill="none" fill-rule="evenodd">
        <g id="形状库素材-其他" transform="translate(-238.000000, -172.000000)" fill="#545458" fill-rule="nonzero">
            <g id="car-suv-svgrepo-com" transform="translate(238.832551, 172.775810)">
                <path d="M31.8434139,0 L44.8011484,0 L48.0381408,0 C48.2236698,0 48.2920226,0.165999612 48.3701401,0.331999225 L49.6688429,3.0319341 C49.7469604,3.19793371 49.5174903,3.36393862 49.3368437,3.36393862 L27.3077187,3.36393862 C25.8674279,3.36881566 28.328128,0 31.8434139,0 L31.8434139,0 Z M11.6354023,22.3318302 L11.6354023,24.1578259 L13.4613981,24.1578259 C13.2416927,23.2643574 12.5337532,22.5515356 11.6354023,22.3318302 L11.6354023,22.3318302 Z M13.4613981,25.3539996 L11.6354023,25.3539996 L11.6354023,27.1799953 C12.5337532,26.96029 13.2416927,26.2523505 13.4613981,25.3539996 L13.4613981,25.3539996 Z M10.444111,27.1799953 L10.444111,25.3539996 L8.61811525,25.3539996 C8.83782062,26.2523505 9.54576015,26.96029 10.444111,27.1799953 L10.444111,27.1799953 Z M8.61323291,24.1627083 L10.4392286,24.1627083 L10.4392286,22.3367125 C9.54576015,22.5564179 8.83782062,23.2643574 8.61323291,24.1627083 L8.61323291,24.1627083 Z M43.966268,22.3318302 L43.966268,24.1578259 L45.7922637,24.1578259 C45.5725584,23.2643574 44.8646188,22.5515356 43.966268,22.3318302 L43.966268,22.3318302 Z M45.7922637,25.3539996 L43.966268,25.3539996 L43.966268,27.1799953 C44.8646188,26.96029 45.5725584,26.2523505 45.7922637,25.3539996 L45.7922637,25.3539996 Z M42.7749767,27.1799953 L42.7749767,25.3539996 L40.9489809,25.3539996 C41.1638039,26.2523505 41.8717435,26.96029 42.7749767,27.1799953 L42.7749767,27.1799953 Z M40.9440986,24.1627083 L42.7700943,24.1627083 L42.7700943,22.3367125 C41.8717435,22.5564179 41.1638039,23.2643574 40.9440986,24.1627083 L40.9440986,24.1627083 Z M43.7758567,6.23475014 L45.4944409,6.23475014 C47.9746704,6.347044 48.9950798,6.25916185 49.9813128,7.01104245 C51.2018981,7.94356968 51.6803676,12.0642659 52.1881311,13.9683791 C52.2223075,14.09532 52.0758373,14.2124962 51.9440141,14.2124962 L44.3715023,14.2124962 C44.2396791,14.2124962 44.1420323,14.1050847 44.1273853,13.9683791 L43.5317396,6.47398488 C43.5219749,6.347044 43.6440334,6.23475014 43.7758567,6.23475014 L43.7758567,6.23475014 Z M32.2681777,6.27869122 L26.6534849,6.27869122 C24.0902556,6.27869122 19.8719125,10.492152 18.7685033,13.9000264 C18.7147976,14.066026 18.9100912,14.2173786 19.0858555,14.2173786 L31.3795915,14.2173786 C31.5553558,14.2173786 31.672532,14.0757907 31.6969437,13.9000264 L32.5904122,6.59604342 C32.6050592,6.42027912 32.4390596,6.27869122 32.2681777,6.27869122 L32.2681777,6.27869122 Z M34.6995837,6.24939717 L41.5690383,6.24939717 C41.7008615,6.24939717 41.8033907,6.36169102 41.8131554,6.49351425 L42.3355659,13.9732615 C42.3453306,14.1050847 42.2232721,14.2173786 42.0914488,14.2173786 L33.8061152,14.2173786 C33.674292,14.2173786 33.5473511,14.1050847 33.5619982,13.9732615 L34.4554667,6.49351425 C34.4701137,6.35680868 34.5628782,6.24939717 34.6995837,6.24939717 L34.6995837,6.24939717 Z M11.0397567,19.6807187 C13.8422207,19.6807187 16.1173919,21.9558899 16.1173919,24.7583539 C16.1173919,27.560818 13.8422207,29.8359891 11.0397567,29.8359891 C8.23729261,29.8359891 5.96212146,27.560818 5.96212146,24.7583539 C5.96212146,21.9558899 8.23729261,19.6807187 11.0397567,19.6807187 L11.0397567,19.6807187 Z M0.884486257,19.9101888 C1.14325036,19.7930126 1.42642617,19.7393068 1.73401368,19.7441892 C1.71936666,18.1427812 1.82677817,16.7464315 2.19783613,15.7553161 C2.33454169,15.1840822 2.58354111,14.7690832 2.91554034,14.466378 C3.96036143,13.5338507 13.2905161,12.7136174 15.2580997,12.4597356 C17.6748588,10.0966823 20.365029,7.933805 23.2309635,5.88810389 C24.0267851,5.21434076 25.1643707,4.88234154 26.5997791,4.84816515 L49.2587262,4.82853947 C50.9724281,4.8188711 52.2906603,5.55122233 53.1304231,7.19657143 L55.0198892,12.6403822 L55.4495353,12.523206 L55.4495353,10.4042698 C55.3714178,9.69633029 55.6497113,9.3448017 56.1916512,9.25691956 L58.7304688,9.25691956 C59.4286436,9.28621361 59.9217601,9.6377422 59.9999396,10.6483869 L59.9999396,18.1769575 C60.0047599,18.9532499 59.7215841,19.4610134 59.0038799,19.5684249 L56.645709,19.5684249 C56.4113566,19.6221306 56.4845917,19.8027773 56.4650623,20.0517767 L56.4650623,22.6198883 C56.2941804,24.5142369 55.7766522,25.9789393 54.258244,26.1693506 L49.6639606,26.1693506 C49.7616074,23.9430029 49.341726,22.1218895 48.3213166,20.7597162 C44.6156194,15.8090219 36.5744029,18.7579562 37.1163428,26.1839977 L17.3721536,26.1839977 C17.5381532,23.8111797 17.0889778,22.0095957 16.1076272,20.7157751 C12.4116946,15.8383159 3.81389118,18.469898 4.82941822,26.3353503 L1.77795476,26.3353503 C-0.0626880015,26.3353503 -0.663216011,20.5985989 0.884486257,19.9101888 L0.884486257,19.9101888 Z M43.3706223,19.6807187 C46.1730864,19.6807187 48.4482575,21.9558899 48.4482575,24.7583539 C48.4482575,27.560818 46.1730864,29.8359891 43.3706223,29.8359891 C40.5681583,29.8359891 38.2929871,27.560818 38.2929871,24.7583539 C38.2929871,21.9558899 40.5632759,19.6807187 43.3706223,19.6807187 L43.3706223,19.6807187 Z" id="形状"></path>
            </g>
        </g>
    </g>
</svg>
