<?xml version="1.0" encoding="UTF-8"?>
<svg width="50px" height="61px" viewBox="0 0 50 61" version="1.1" xmlns="http://www.w3.org/2000/svg" xmlns:xlink="http://www.w3.org/1999/xlink">
    <title>cross-shield-svgrepo-com</title>
    <g id="页面-1" stroke="none" stroke-width="1" fill="none" fill-rule="evenodd">
        <g id="形状库素材-其他" transform="translate(-240.000000, -237.000000)" fill="#545458" fill-rule="nonzero">
            <g id="cross-shield-svgrepo-com" transform="translate(240.980020, 237.807827)">
                <path d="M24.4067797,0 C16.2711864,12.2033898 8.13559322,11.1864407 0,13.220339 C0,45.7627119 8.13559322,53.8983051 24.4067797,60 C40.6779661,53.8983051 48.8135593,45.7627119 48.8135593,13.220339 C40.6779661,11.1864407 32.5423729,12.2033898 24.4067797,0 Z M24.4067797,4.06779661 C25.0386309,4.06779661 25.5508475,4.58001321 25.5508475,5.21186441 C25.5508475,5.8437156 25.0386309,6.3559322 24.4067797,6.3559322 C23.7749285,6.3559322 23.2627119,5.8437156 23.2627119,5.21186441 C23.2627119,4.58001321 23.7749285,4.06779661 24.4067797,4.06779661 Z M24.4437712,7.90067797 C25.0079615,8.52162041 25.5947988,9.12160221 26.2030932,9.69940678 C30.6457627,14.1975 36.7496186,15.5325 42.8155932,16.8724576 C43.1628814,17.0229661 43.6571186,16.9370339 43.9423729,17.1213559 C43.6013136,25.3637288 43.2404237,33.8563983 39.8345339,41.4958475 C38.2220339,45.495 35.2252119,48.8181356 31.6519068,51.1751695 C29.6876695,52.5561864 27.4764407,53.492161 25.3107203,54.4948729 C24.4735169,55.0761864 23.5695763,54.4379237 22.7375847,54.182161 C17.1891102,51.9134746 12.003178,48.0017797 9.38300847,42.4534322 C5.68830508,34.5697881 5.19457627,25.6962712 4.83025424,17.1068644 C12.1297881,15.9872034 19.1410169,13.5729661 24.2083475,8.15542373 L24.4437712,7.90067797 Z M24.4067797,13.220339 L20.9094915,21.9635593 C18.7154237,21.4915678 16.0741525,20.6122881 12.2033898,19.3220339 C12.2033898,23.3898305 10.1694915,25.4237288 8.13559322,27.4576271 C8.13559322,29.4915254 16.2711864,31.5254237 18.3050847,31.5254237 C19.9796186,30.4090678 21.1932203,29.6011017 22.2007627,29.0974576 C21.634322,32.7255508 19.6588983,40.3411017 16.2711864,43.7288136 C20.3389831,45.7627119 22.3728814,47.7966102 24.4067797,49.8305085 C26.440678,47.7966102 28.4745763,45.7627119 32.5423729,43.7288136 C29.154661,40.3411017 27.1792373,32.7255508 26.6127966,29.0974576 C27.620339,29.6011017 28.8339407,30.4090678 30.5084746,31.5254237 C32.5423729,31.5254237 40.6779661,29.4915254 40.6779661,27.4576271 C38.6440678,25.4237288 36.6101695,23.3898305 36.6101695,19.3220339 C32.7394068,20.6122881 30.0981356,21.4916949 27.9040678,21.9635593 L24.4067797,13.220339 Z M2.54237288,14.2372881 C2.95110895,14.2372881 3.32879666,14.4553462 3.5331647,14.809322 C3.73753274,15.1632978 3.73753274,15.599414 3.5331647,15.9533898 C3.32879666,16.3073657 2.95110895,16.5254237 2.54237288,16.5254237 C1.91052168,16.5254237 1.39830508,16.0132071 1.39830508,15.3813559 C1.39830508,14.7495047 1.91052168,14.2372881 2.54237288,14.2372881 L2.54237288,14.2372881 Z M46.2711864,14.2372881 C46.6799225,14.2372881 47.0576102,14.4553462 47.2619783,14.809322 C47.4663463,15.1632978 47.4663463,15.599414 47.2619783,15.9533898 C47.0576102,16.3073657 46.6799225,16.5254237 46.2711864,16.5254237 C45.6393352,16.5254237 45.1271186,16.0132071 45.1271186,15.3813559 C45.1271186,14.7495047 45.6393352,14.2372881 46.2711864,14.2372881 L46.2711864,14.2372881 Z M4.06779661,33.3050847 C4.47653268,33.3050847 4.8542204,33.5231428 5.05858844,33.8771186 C5.26295649,34.2310944 5.26295649,34.6672106 5.05858844,35.0211865 C4.8542204,35.3751623 4.47653268,35.5932203 4.06779661,35.5932203 C3.43594541,35.5932203 2.92372881,35.0810037 2.92372881,34.4491525 C2.92372881,33.8173013 3.43594541,33.3050847 4.06779661,33.3050847 L4.06779661,33.3050847 Z M44.7457627,33.3050847 C45.1544988,33.3050847 45.5321865,33.5231428 45.7365545,33.8771186 C45.9409226,34.2310944 45.9409226,34.6672106 45.7365545,35.0211865 C45.5321865,35.3751623 45.1544988,35.5932203 44.7457627,35.5932203 C44.1139115,35.5932203 43.6016949,35.0810037 43.6016949,34.4491525 C43.6016949,33.8173013 44.1139115,33.3050847 44.7457627,33.3050847 L44.7457627,33.3050847 Z M12.2033898,49.5762712 C12.835241,49.5762712 13.3474576,50.0884878 13.3474576,50.720339 C13.3474576,51.3521902 12.835241,51.8644068 12.2033898,51.8644068 C11.5715386,51.8644068 11.059322,51.3521902 11.059322,50.720339 C11.059322,50.0884878 11.5715386,49.5762712 12.2033898,49.5762712 L12.2033898,49.5762712 Z M36.6101695,49.5762712 C37.2420207,49.5762712 37.7542373,50.0884878 37.7542373,50.720339 C37.7542373,51.3521902 37.2420207,51.8644068 36.6101695,51.8644068 C35.9783183,51.8644068 35.4661017,51.3521902 35.4661017,50.720339 C35.4661017,50.0884878 35.9783183,49.5762712 36.6101695,49.5762712 L36.6101695,49.5762712 Z M24.4067797,55.9322034 C25.0386309,55.9322034 25.5508475,56.44442 25.5508475,57.0762712 C25.5508475,57.7081224 25.0386309,58.220339 24.4067797,58.220339 C23.7749285,58.220339 23.2627119,57.7081224 23.2627119,57.0762712 C23.2627119,56.44442 23.7749285,55.9322034 24.4067797,55.9322034 L24.4067797,55.9322034 Z" id="形状"></path>
            </g>
        </g>
    </g>
</svg>
