<?xml version="1.0" encoding="UTF-8"?>
<svg width="60px" height="31px" viewBox="0 0 60 31" version="1.1" xmlns="http://www.w3.org/2000/svg" xmlns:xlink="http://www.w3.org/1999/xlink">
    <title>60</title>
    <g id="页面-1" stroke="none" stroke-width="1" fill="none" fill-rule="evenodd">
        <g id="乐符" transform="translate(-800.000000, -570.000000)" fill="#545458">
            <path d="M813.033823,570.180731 L813.056138,570.295967 C812.989866,570.3088 812.923713,570.322039 812.857684,570.335681 L812.901076,570.347978 C812.97878,570.372628 813.04991,570.407371 813.109538,570.450096 C813.210012,570.5224 813.265649,570.609024 813.267996,570.693536 C813.268231,570.86115 813.057657,570.988386 812.783465,570.970779 C812.651299,570.962328 812.523358,570.921481 812.423118,570.855516 C812.355744,570.810912 812.306915,570.758328 812.279215,570.701987 L812.201276,571.063038 C812.158176,571.254033 812.117357,571.515194 812.085494,571.78474 L812.075214,571.874815 C812.065075,571.961504 812.055666,572.047956 812.047033,572.132399 C812.582805,571.86568 813.136879,571.630347 813.706648,571.428627 L813.745822,571.539274 C813.157099,571.747705 812.585268,571.992307 812.033291,572.270039 L812.017136,572.450257 C812.012208,572.508063 812.007748,572.56335 812.003784,572.615359 L811.989649,572.813532 C811.980214,572.964315 811.978261,573.06032 811.978261,573.06032 C811.978026,573.070415 811.969105,573.077457 811.958072,573.076049 C811.947038,573.074405 811.938118,573.065015 811.938352,573.054921 L811.939057,573.0129 C811.93624,572.996702 811.931545,572.976044 811.924502,572.951864 C811.915347,572.918999 811.899383,572.880264 811.879195,572.837539 L811.842808,572.7704 L811.796796,572.697626 C811.762757,572.647624 811.722614,572.594804 811.676837,572.540811 C811.660813,572.521648 811.643917,572.502456 811.626354,572.483184 C810.443583,573.124358 809.359214,573.919886 808.403619,574.837932 L808.451324,574.950086 C808.633348,575.374592 808.824774,575.785497 808.979625,576.101374 L809.01755,576.178316 C809.183755,576.506032 809.304184,576.721066 809.304184,576.721066 L808.977172,576.891262 L808.679783,577.052427 C808.570498,577.111994 808.454582,577.177521 808.342607,577.24936 L808.259531,577.304428 C808.009753,577.472042 807.757862,577.649281 807.567947,577.787082 L807.338358,577.956808 L807.256429,578.025591 L807.165755,577.887087 C807.125988,577.825299 807.074977,577.744878 807.016466,577.650008 L806.937399,577.520402 C806.836766,577.354413 806.719188,577.155085 806.595086,576.937733 C805.496986,578.48959 804.712835,580.250959 804.335176,582.126579 C803.59567,585.799984 804.486405,589.615819 806.600446,592.647612 L806.717806,592.461708 L806.776358,592.370672 L806.951249,592.541807 C807.038578,592.630343 807.156606,592.738885 807.283455,592.845555 L807.93604,593.378704 L807.780164,593.662286 L807.693467,593.827988 C807.672901,593.867696 807.651593,593.909116 807.629786,593.951819 C808.371589,594.785888 809.218354,595.53645 810.158918,596.178737 C810.386938,596.334453 810.6183,596.483243 810.852788,596.625126 C810.848766,596.595799 810.847319,596.566891 810.847923,596.538251 C810.851679,596.368993 810.926095,596.230724 811.053801,596.146212 C811.305095,595.982433 811.678633,596.067885 811.918626,596.336658 L811.949151,596.372749 C812.068641,596.508672 812.140006,596.667365 812.145875,596.827467 C812.149865,596.934984 812.124042,597.03358 812.071458,597.115509 L812.369282,596.9754 C812.455352,596.934206 812.556896,596.885078 812.66961,596.82958 L812.841468,596.743931 C813.110362,596.607847 813.425708,596.439453 813.739833,596.265001 L813.948547,596.14809 C814.335307,595.934684 814.715794,595.703848 815.019716,595.511752 C812.754894,594.345643 810.915318,592.577933 809.67837,590.473052 L809.649976,590.500626 L809.558039,590.582998 C809.542589,590.596588 809.526965,590.609864 809.511001,590.622463 L809.36522,590.733032 C809.162862,590.871302 808.935855,590.974358 808.701571,591.027882 C808.467287,591.084223 808.2269,591.081641 807.998954,591.046428 C807.773826,591.009337 807.567712,590.928347 807.375919,590.832333 C807.184125,590.735379 807.010642,590.617768 806.85547,590.497105 C806.544422,590.254369 806.339717,589.985342 806.187831,589.796835 L806.133002,589.723366 C806.022763,589.572725 805.968102,589.479448 805.968102,589.479448 L806.049032,589.574812 C806.090152,589.621851 806.146433,589.684567 806.216706,589.75904 C806.377512,589.930175 806.611326,590.154834 806.915567,590.368225 C807.228728,590.573165 807.608559,590.764254 808.020317,590.825759 C808.224083,590.857921 808.438178,590.849939 808.649221,590.802519 C808.858856,590.755568 809.06004,590.665658 809.241504,590.54382 L809.37461,590.448276 C809.418039,590.415645 809.456304,590.379258 809.497621,590.345689 C809.520312,590.325842 809.543882,590.304081 809.567751,590.281397 C809.212561,589.652265 808.910544,588.994457 808.666401,588.314654 L808.546869,588.281032 C808.10741,588.153326 807.663961,588.004257 807.24563,587.846503 C806.838098,587.686401 806.453103,587.519726 806.127265,587.365024 L805.890264,587.246107 C805.382797,586.987701 805.056554,586.797155 805.056554,586.797155 C804.785414,586.73025 804.554416,586.47789 804.402766,586.118248 C804.262383,585.756727 804.222006,585.28816 804.292432,584.823582 C804.32295,584.64517 804.358163,584.47826 804.426711,584.328253 C804.525777,584.10195 804.654421,583.914147 804.80349,583.779868 C805.05585,583.55427 805.336615,583.505207 805.593435,583.62094 C805.85589,583.738317 806.051674,584.006171 806.157548,584.339051 C806.262718,584.671697 806.319293,585.073125 806.242294,585.485118 C806.164356,585.88279 806.027495,586.235155 805.815512,586.486107 C805.672078,586.656068 805.507281,586.76382 805.334502,586.800676 L805.51606,586.900939 C805.700935,587.001152 806.01609,587.167354 806.410612,587.357277 C806.742084,587.507754 807.124263,587.670907 807.537664,587.826314 C807.886719,587.953456 808.253106,588.074281 808.619872,588.181791 C808.13583,586.786255 807.89527,585.30063 807.937237,583.783408 C808.060132,579.347381 810.688328,575.198442 814.681978,572.971969 L814.739134,573.07449 C810.780907,575.281215 808.176292,579.392928 808.054568,583.786656 C808.012222,585.317591 808.260345,586.816192 808.757705,588.221186 L808.844067,588.245819 C809.2793,588.36789 809.731904,588.46367 810.15047,588.536443 C810.568801,588.608278 810.951918,588.65922 811.280338,588.69232 L811.596173,588.716747 C811.851083,588.734465 812.055034,588.743718 812.192097,588.74852 L812.38814,588.75359 C812.41725,588.754295 812.435326,588.774014 812.428987,588.797959 C812.422649,588.821904 812.394009,588.840919 812.3649,588.840449 L812.244471,588.837867 C812.206723,588.842374 812.160861,588.849436 812.107848,588.859652 L812.066763,588.867915 C811.971218,588.886461 811.856189,588.920031 811.727544,588.965103 C811.663221,588.987874 811.596317,589.017219 811.525656,589.045624 L811.382491,589.112329 C811.357964,589.123875 811.333236,589.135926 811.308509,589.148915 C811.15944,589.226619 811.003095,589.318877 810.843697,589.426629 C810.68383,589.534381 810.524197,589.661382 810.361983,589.797539 L810.121595,590.015625 L809.893884,590.252491 C809.84847,590.299429 809.807373,590.343624 809.764891,590.387559 C811.001315,592.503852 812.852228,594.278429 815.133933,595.439079 L815.502416,595.202683 C815.619982,595.12605 815.687131,595.080901 815.687131,595.080901 C815.700746,595.07198 815.717649,595.073389 815.724926,595.084657 C815.732203,595.09569 815.727039,595.112123 815.713188,595.121279 L815.655909,595.159074 C815.636424,595.176446 815.612714,595.199452 815.586187,595.228091 C815.5498,595.265887 815.510596,595.315889 815.469984,595.374812 C815.44956,595.404157 815.43078,595.436787 815.409887,595.470592 L815.365509,595.553487 L815.37977,595.560942 C816.487718,596.095934 817.639427,596.471708 818.822788,596.694759 L818.844096,596.673703 L818.906983,596.710242 C819.79137,596.871455 820.693316,596.947547 821.607704,596.941327 C821.565112,596.926288 821.529337,596.905352 821.502209,596.879347 C821.444929,596.823711 821.433661,596.752346 821.46817,596.678633 C821.53977,596.528156 821.778514,596.417353 822.007164,596.42956 C822.117029,596.437072 822.21093,596.459608 822.270088,596.511254 C822.309996,596.544824 822.330654,596.585906 822.331828,596.630978 L822.545806,596.331051 C822.671751,596.151905 822.835609,595.914393 822.98726,595.680931 L823.099871,595.505251 C823.172876,595.389728 823.241201,595.278546 823.301603,595.178582 C822.531531,595.121333 821.760079,594.993503 820.981174,594.792403 C819.847258,594.499635 818.779453,594.05882 817.802161,593.492404 L817.798034,593.5104 C817.80226,593.73412 817.552482,594.012773 817.223358,594.107848 C817.160913,594.12522 817.099408,594.135079 817.040719,594.137662 C816.951748,594.141418 816.869115,594.128037 816.800097,594.098223 C816.684129,594.046577 816.618398,593.95831 816.626145,593.836942 C816.641169,593.590451 816.914657,593.351472 817.234626,593.257805 C817.281894,593.244466 817.327841,593.235403 817.371825,593.23063 C814.690199,591.527733 812.759181,588.850048 812.127537,585.703015 C811.884268,584.490924 811.853587,583.261531 812.017532,582.061706 L811.966288,582.063116 C811.832479,582.093634 811.656648,582.006071 811.574954,581.859115 C811.559226,581.830945 811.547723,581.80207 811.54068,581.7739 C811.530351,581.73094 811.529881,581.689154 811.540445,581.651828 C811.557817,581.588445 811.603359,581.54525 811.668621,581.530695 C811.793071,581.503088 811.953718,581.588772 812.04215,581.718655 L812.064382,581.755102 C812.260656,580.561634 812.65029,579.401761 813.214762,578.322149 C813.169648,578.329175 813.121503,578.330797 813.072447,578.327249 C812.997795,578.322319 812.9215,578.303304 812.849665,578.27889 C812.777596,578.254241 812.709752,578.222315 812.647777,578.18851 C812.585568,578.154706 812.529462,578.118319 812.479459,578.083106 C812.379219,578.01221 812.304098,577.943897 812.253157,577.895538 L812.219708,577.862676 C812.191021,577.833592 812.176627,577.816426 812.176627,577.816426 L812.261608,577.887556 C812.316071,577.931924 812.397296,577.991317 812.498005,578.054935 C812.598714,578.117614 812.721725,578.183815 812.855065,578.226305 C812.9215,578.247668 812.990048,578.261284 813.056483,578.265744 C813.122919,578.269969 813.186537,578.263396 813.243582,578.246494 L813.257214,578.241725 C813.337936,578.090243 813.422117,577.940375 813.509707,577.792253 L813.30187,577.713449 C813.266025,577.700024 813.22967,577.686494 813.192939,577.672925 L812.770389,577.519909 C812.539533,577.437652 812.315966,577.361108 812.138128,577.302316 L811.763461,577.184235 C811.583875,577.168037 811.410627,576.97953 811.382691,576.753697 C811.376587,576.709563 811.3787,576.668951 811.386917,576.631625 C811.398889,576.57458 811.423069,576.523404 811.458282,576.482322 C811.517674,576.413304 811.601246,576.381378 811.692331,576.393115 C811.87896,576.417295 812.040001,576.617305 812.058311,576.831165 C812.066997,576.934222 812.041879,577.025776 811.986242,577.090333 C811.947038,577.132589 811.902905,577.163576 811.851259,577.177427 L812.040116,577.236928 L812.23109,577.300672 C812.435795,577.369742 812.698928,577.461441 812.96509,577.558622 L813.064934,577.595288 C813.223309,577.652766 813.37987,577.711748 813.524549,577.767438 C814.134376,576.741787 814.908054,575.800429 815.828796,574.986861 L815.906517,575.07482 C815.000151,575.875686 814.237769,576.801603 813.635589,577.810179 L814.239406,578.052588 C814.248796,578.056344 814.255839,578.065734 814.2549,578.073481 C814.253961,578.081228 814.245275,578.084045 814.23565,578.080289 L814.195977,578.064091 C814.180718,578.059865 814.161468,578.055874 814.138932,578.052353 C814.108414,578.046954 814.072027,578.044606 814.031649,578.044606 L813.968266,578.047893 L813.900187,578.056813 C813.853706,578.064795 813.804877,578.076533 813.75511,578.092026 C813.705107,578.10752 813.655105,578.128178 813.603694,578.150245 L813.527399,578.186867 L813.452043,578.228418 L813.372461,578.271143 L813.375625,578.269197 C812.74412,579.446494 812.324101,580.723014 812.139617,582.035892 L812.415277,582.032833 C812.545706,582.032118 812.698157,582.032318 812.854865,582.034694 L813.198522,582.04268 C813.595515,582.055187 813.936809,582.077906 813.936809,582.077906 L814.092685,582.512434 L814.160159,582.695232 C814.174285,582.732924 814.187901,582.767987 814.201141,582.799068 L814.262412,582.929357 L813.949522,582.934214 C813.847169,582.936512 813.726805,582.939868 813.599541,582.944753 L813.277818,582.959842 C812.867025,582.982503 812.480398,583.019737 812.480398,583.019737 C812.417484,583.038047 812.340955,583.031944 812.264425,583.000956 C812.188365,582.969969 812.121695,582.917854 812.076388,582.853296 C812.069439,582.843461 812.06315,582.833521 812.05752,582.823544 C811.993428,583.771078 812.052149,584.730899 812.242619,585.679917 C812.895211,588.931318 814.949761,591.677259 817.788576,593.348539 L817.849441,593.108453 C817.861506,593.062547 817.874977,593.012154 817.889804,592.957903 L817.905082,592.902389 C817.988184,592.601904 818.108378,592.206345 818.243831,591.819236 C818.37811,591.43471 818.526944,591.059809 818.652302,590.775053 L818.863345,590.31118 C818.869214,590.298973 818.881891,590.288643 818.891751,590.287666 C818.901375,590.287 818.904662,590.296156 818.899028,590.308363 L818.875083,590.359069 L818.862528,590.403081 C818.860424,590.411367 818.858337,590.420105 818.856303,590.429261 C818.847382,590.466587 818.842218,590.510016 818.840105,590.557906 L818.841044,590.632323 C818.844096,590.657206 818.846913,590.68209 818.852312,590.707444 C818.863345,590.757916 818.879543,590.810031 818.901141,590.862616 C818.922738,590.9152 818.951613,590.966611 818.9826,591.019431 L819.034011,591.097134 C819.052791,591.122253 819.072511,591.146902 819.094578,591.168969 L819.137859,591.218006 C819.144789,591.226405 819.151623,591.235248 819.158431,591.245029 L819.18707,591.290806 L819.210546,591.341043 C819.237777,591.411939 819.250689,591.49692 819.248576,591.588004 C819.247167,591.679088 819.228152,591.776511 819.20186,591.869708 C819.175098,591.964079 819.14012,592.053051 819.100916,592.137327 C819.061947,592.221604 819.018752,592.300011 818.975792,592.370907 C818.890107,592.514106 818.804892,592.625145 818.74456,592.700735 L818.69128,592.764501 L818.644086,592.816704 C818.644086,592.816704 818.676951,592.770692 818.732118,592.692754 C818.787051,592.613877 818.859355,592.498143 818.93471,592.357761 C819.009362,592.217848 819.085892,592.050703 819.131199,591.87769 C819.154205,591.791535 819.166882,591.705381 819.16829,591.624391 C819.169464,591.543401 819.157022,591.468984 819.131434,591.405835 L819.110541,591.360293 L819.085892,591.319446 C819.068755,591.293388 819.04434,591.267565 819.025091,591.245029 C819.003024,591.221319 818.985182,591.19221 818.965698,591.166621 L818.91593,591.082814 C818.884943,591.026474 818.859824,590.968959 818.841279,590.91121 C818.822029,590.85393 818.810526,590.795476 818.804188,590.73984 C818.800666,590.712373 818.80137,590.682795 818.801605,590.655094 L818.809587,590.573165 C818.814908,590.538108 818.821272,590.50566 818.82875,590.476168 L818.841549,590.43127 L818.637278,590.893838 C818.518727,591.174838 818.376232,591.547626 818.245474,591.933092 C818.127792,592.281067 818.02247,592.635507 817.944397,592.921626 L817.919402,593.014366 C817.880751,593.162431 817.850522,593.285926 817.8299,593.37266 C818.806433,593.942562 819.874966,594.385563 821.010517,594.678754 C821.802409,594.883206 822.586506,595.01126 823.369344,595.065855 L823.555363,594.746612 C823.559589,594.738865 823.569918,594.734405 823.578134,594.736283 C823.586351,594.738161 823.589637,594.745673 823.585412,594.75342 L823.567336,594.784877 L823.558085,594.814004 C823.556589,594.819542 823.555128,594.825411 823.55372,594.831593 C823.547382,594.856711 823.544095,594.887229 823.543391,594.921034 L823.545269,594.974558 L823.553016,595.032542 C823.555803,595.047261 823.559139,595.06227 823.563025,595.077522 C824.514086,595.129488 825.46386,595.073039 826.424287,594.9138 L826.579115,594.88724 L826.403862,594.773843 L826.298556,594.702032 C826.223966,594.650395 826.141852,594.59199 826.059707,594.531373 L825.998208,594.485566 C825.710635,594.268419 825.451937,594.037891 825.451937,594.037891 L825.912992,593.679188 C825.988583,593.622065 826.062191,593.563272 826.126375,593.509696 L826.347052,593.321189 L826.457134,593.400801 C826.562429,593.475808 826.731158,593.593176 826.909286,593.705715 L827.034751,593.783236 C827.138334,593.845575 827.237673,593.901533 827.319166,593.945633 L827.511429,594.047516 C827.569883,594.061132 827.606739,594.097753 827.613781,594.151512 C827.620824,594.204801 827.597583,594.268889 827.547111,594.332507 C827.527157,594.358095 827.503917,594.381805 827.478798,594.403637 C827.373394,594.497304 827.226438,594.541438 827.128546,594.518197 C827.006474,594.487209 826.999666,594.354808 827.105305,594.227572 C827.155777,594.165832 827.226203,594.117473 827.299916,594.081086 C827.350153,594.057376 827.399451,594.044464 827.444524,594.042352 L827.297099,593.963474 L827.148588,593.880196 C827.094624,593.849149 827.037344,593.815228 826.980182,593.779662 L826.832432,593.686175 C826.667699,593.579777 826.53861,593.489742 826.53861,593.489742 L826.323941,593.671266 C826.261077,593.723621 826.189463,593.782564 826.116289,593.841403 L825.666736,594.187664 L825.763582,594.266721 L825.812841,594.306156 C825.901548,594.376758 826.021566,594.470072 826.146807,594.560922 L826.271357,594.649172 C826.353625,594.706521 826.432658,594.759836 826.498233,594.802718 L826.621898,594.87965 C827.439371,594.732357 828.265399,594.511025 829.106904,594.218908 L829.292993,594.153502 C829.845457,593.956876 830.372707,593.747039 830.916535,593.504605 L830.919345,593.436218 C830.931031,593.197943 830.933485,592.969609 830.923617,592.775516 L830.917918,592.684992 C829.443119,593.142117 828.013085,593.355631 826.550226,593.311537 C822.56759,593.191671 818.825694,591.010115 817.059628,587.638514 C816.09749,585.801878 815.734812,583.743111 815.963849,581.751503 C815.916157,581.710853 815.868126,581.669238 815.820236,581.627179 L815.662915,581.486214 C815.428964,581.273662 815.207786,581.059694 815.048367,580.892401 L814.716895,580.538392 C814.61642,580.457637 814.557967,580.357632 814.553037,580.255514 C814.549281,580.15504 814.591536,580.060669 814.688489,580.004328 C814.728398,579.982496 814.772531,579.967002 814.819012,579.957377 C815.015736,579.917 815.255184,579.984844 815.414817,580.128513 C815.61694,580.309508 815.60661,580.516795 815.431954,580.629711 C815.346503,580.683705 815.225371,580.704598 815.091796,580.689339 C815.001651,580.679244 814.913149,580.652717 814.833802,580.612809 L815.089214,580.884654 C815.242038,581.043817 815.450265,581.251104 815.675628,581.455574 C815.774208,581.545364 815.873535,581.63281 815.968378,581.714495 C816.032315,581.17431 816.140003,580.639258 816.291091,580.11506 L816.204527,580.001981 C816.020715,579.821455 816.038322,579.601022 816.239036,579.520032 C816.280588,579.507355 816.32613,579.500312 816.374019,579.499608 C816.410585,579.498898 816.448522,579.501708 816.4872,579.507976 C816.708414,578.892149 816.991666,578.2948 817.336711,577.726112 C817.316329,577.718933 817.295732,577.710464 817.275238,577.701162 C817.206455,577.670409 817.139316,577.628623 817.078045,577.584724 C817.016305,577.54059 816.962546,577.494813 816.913013,577.448098 C816.863715,577.401616 816.820521,577.355135 816.782725,577.311236 C816.71733,577.235981 816.668664,577.168314 816.633328,577.116368 L816.602606,577.069808 L816.56417,577.005352 C816.56417,577.005352 816.586941,577.03587 816.626379,577.088455 C816.666288,577.14057 816.727558,577.213344 816.805731,577.295743 C816.883435,577.376732 816.982501,577.469695 817.09706,577.549276 C817.154105,577.58895 817.215141,577.623928 817.276412,577.651394 C817.305421,577.664238 817.33443,577.675149 817.363069,577.683981 C817.398586,577.625047 817.435264,577.566669 817.472603,577.50861 L817.571325,577.572101 L817.485014,577.708803 L817.500367,577.710552 L817.540744,577.71196 L817.567706,577.711369 L817.700846,577.700692 L817.781367,577.699049 C817.834656,577.699284 817.887475,577.702805 817.938417,577.709378 C817.989593,577.715951 818.037952,577.724872 818.085372,577.738957 L818.15439,577.762902 L818.216834,577.789899 C818.24297,577.802262 818.266706,577.814417 818.287765,577.826364 L818.320361,577.846005 L818.123884,577.690778 C817.971271,577.571549 817.745473,577.397876 817.503694,577.221319 L817.025467,576.874782 C816.655067,576.610228 816.339745,576.397341 816.339745,576.397341 C816.173071,576.318229 816.058276,576.118219 816.09255,575.94544 C816.098888,575.91234 816.110626,575.882057 816.126355,575.855765 C816.150534,575.815622 816.184573,575.7844 816.226594,575.76468 C816.29749,575.731345 816.381532,575.734397 816.462756,575.773601 C816.628727,575.853417 816.730141,576.06047 816.698214,576.23184 C816.68272,576.314238 816.639056,576.376683 816.573325,576.40814 C816.528957,576.429502 816.47825,576.434667 816.425196,576.425042 L816.749889,576.649877 C816.906747,576.759789 817.104149,576.899883 817.304432,577.046643 L817.605603,577.268405 C817.766063,577.387313 817.918674,577.503463 818.048342,577.604821 L818.408628,577.889199 C818.41661,577.895303 818.4206,577.904693 818.417549,577.909858 C818.414731,577.915022 818.406046,577.914083 818.398299,577.90798 L818.365668,577.881922 L818.33475,577.863576 C818.328838,577.860246 818.322552,577.856803 818.3159,577.853282 C818.288904,577.838493 818.255803,577.823938 818.218243,577.809383 L818.158615,577.78896 C818.137957,577.783795 818.115656,577.776048 818.093354,577.771353 C818.050159,577.763137 818.003913,577.757033 817.955788,577.753747 C817.907664,577.749991 817.858366,577.75046 817.807659,577.751399 L817.731129,577.755859 L817.6546,577.76431 C817.626195,577.766893 817.60225,577.770179 817.571966,577.770179 L817.525955,577.76924 L817.478769,577.76431 L817.454243,577.759979 C817.107545,578.32592 816.823451,578.921584 816.601899,579.536247 C816.735305,579.580129 816.853151,579.656658 816.937663,579.749855 C817.024052,579.844696 817.061847,579.941649 817.053161,580.020761 C817.041893,580.09823 816.988839,580.162317 816.897754,580.200113 C816.80714,580.234387 816.685537,580.232978 816.555719,580.197765 C816.504015,580.183626 816.45362,580.164658 816.405889,580.141489 L816.39118,580.192297 L816.496762,580.326526 C816.67332,580.548251 816.958698,580.893708 817.278153,581.229925 L817.334865,581.289134 C817.606006,581.571308 817.885128,581.836579 818.09758,582.027434 L818.270991,582.178086 C818.392696,582.282121 818.469194,582.343881 818.469194,582.343881 L818.24477,582.361723 L818.006965,582.383408 C817.940544,582.389856 817.871218,582.397609 817.804212,582.407866 L817.738172,582.419002 C817.620326,582.439348 817.499454,582.46178 817.390233,582.483099 L817.065368,582.55023 L817.004802,582.566662 L816.860094,582.463573 C816.797179,582.41785 816.717091,582.358629 816.626614,582.289419 L816.501813,582.192714 C816.371116,582.090227 816.224018,581.971251 816.072064,581.843482 C815.863679,583.787377 816.225145,585.792615 817.163603,587.584048 C818.909311,590.916784 822.612173,593.075583 826.55376,593.194214 C828.010814,593.238133 829.435707,593.023995 830.907185,592.565407 L830.883676,592.34008 C830.877212,592.28661 830.872864,592.256817 830.872864,592.256817 C830.87169,592.247426 830.883193,592.236863 830.898687,592.233107 C830.914415,592.229585 830.928266,592.23428 830.92944,592.24367 L830.934839,592.282874 C830.940942,592.296725 830.950802,592.313627 830.964183,592.332642 C830.981555,592.3587 831.009725,592.38734 831.045643,592.417623 C831.063719,592.432882 831.08602,592.447202 831.107852,592.46293 L831.184617,592.508003 L831.149501,592.487824 C831.539815,592.359552 831.933685,592.214258 832.332564,592.052191 L832.497912,591.984351 L832.685336,591.905795 C833.897583,591.391778 835.006745,590.804584 836.837594,589.741672 L838.173905,588.960274 C838.145469,588.918103 838.130531,588.874424 838.130033,588.831998 C838.132615,588.6726 838.33779,588.569074 838.625128,588.599357 C838.669436,588.603954 838.71355,588.611332 838.756546,588.621274 L839.180587,588.378501 C839.249996,588.338942 839.318789,588.299838 839.386988,588.261195 L839.601468,587.724431 C839.835987,587.14459 840.07074,586.572731 840.07074,586.572731 C840.074731,586.563106 840.090225,586.557002 840.105249,586.55888 C840.120273,586.560758 840.128959,586.570148 840.124968,586.579773 L840.108066,586.619681 C840.105718,586.63541 840.104779,586.655129 840.105953,586.67837 C840.106423,586.709827 840.114404,586.747387 840.12802,586.789643 L840.154782,586.855609 L840.193516,586.926739 C840.223565,586.975333 840.260656,587.026274 840.305024,587.07839 C840.349158,587.130505 840.403151,587.182151 840.459257,587.235205 L840.549637,587.313847 L840.648234,587.390846 L840.715078,587.445031 C840.725807,587.454126 840.736423,587.463542 840.747065,587.473714 L840.771407,587.497933 C841.421438,587.150771 842.016674,586.852619 842.577331,586.59645 L841.744532,586.419202 L841.269244,586.314865 L840.69495,586.185622 C840.686029,586.183509 840.683681,586.178579 840.68955,586.174589 C840.695654,586.170363 840.707392,586.16872 840.716312,586.170598 L840.752699,586.179049 L840.811857,586.184683 L840.866026,586.187324 C840.886039,586.187852 840.907988,586.188087 840.931816,586.188204 L841.007407,586.186561 L841.091448,586.182336 C841.149902,586.178579 841.213051,586.172945 841.279251,586.165433 C841.345686,586.158156 841.414704,586.148296 841.485834,586.137967 L841.593586,586.121065 L841.778554,586.088895 C841.79117,586.086869 841.804082,586.084913 841.817776,586.083035 L841.87975,586.075523 L841.941256,586.070123 C842.024359,586.064724 842.106288,586.064959 842.18446,586.072236 C842.262399,586.079279 842.331416,586.09266 842.391513,586.108153 C842.45161,586.123882 842.501847,586.142427 842.544572,586.161442 C842.587297,586.180223 842.622041,586.199707 842.65115,586.218488 C842.709604,586.255579 842.743878,586.289853 842.766414,586.313563 C842.779654,586.32793 842.787824,586.338832 842.792241,586.345254 L842.796029,586.351489 L842.752799,586.31638 C842.724393,586.294078 842.678147,586.263326 842.614059,586.229521 C842.549502,586.195716 842.464287,586.158391 842.350196,586.131394 C842.293386,586.117544 842.228594,586.10698 842.159577,586.101346 C842.091029,586.095712 842.017551,586.095712 841.943603,586.100876 L841.888202,586.105571 L841.834208,586.11191 L841.797404,586.117248 L841.611192,586.148062 L841.499919,586.16426 C841.426207,586.174119 841.354137,586.182336 841.28512,586.188439 C841.216337,586.195012 841.150606,586.198534 841.090275,586.200646 L841.00365,586.202055 L840.926417,586.200177 L840.860568,586.196186 C840.850591,586.195423 840.841113,586.194601 840.832134,586.193706 L840.802936,586.190317 C840.802936,586.190317 841.227314,586.28391 841.685272,586.386678 L841.844537,586.422488 L842.604483,586.584156 C843.784689,586.046607 844.812459,585.695448 845.877988,585.467389 L845.912884,585.386045 C845.992398,585.205184 846.05625,585.089323 846.05625,585.089323 C846.061884,585.078994 846.091932,585.071013 846.124798,585.072656 C846.157663,585.074064 846.17926,585.083455 846.173157,585.093784 L846.149212,585.136274 C846.149447,585.152942 846.153672,585.1736 846.163297,585.198014 C846.174565,585.23088 846.20391,585.269614 846.2464,585.312339 C846.267528,585.333702 846.297107,585.355534 846.324808,585.378774 C846.650249,585.320503 846.981015,585.272158 847.322778,585.232446 C848.064381,585.146267 848.814782,585.118273 849.565966,585.145637 L849.138563,584.643761 L848.145321,583.446518 L848.43219,583.470463 C848.583058,583.482566 848.784192,583.505242 848.996847,583.535852 L849.344143,583.58947 C849.488782,583.612526 849.624297,583.634791 849.736245,583.653571 L850.046589,583.718363 L850.951329,584.885792 L851.280156,585.303186 C852.076053,585.420377 852.865939,585.597795 853.640129,585.832083 L853.579864,585.540754 L854.81232,585.406006 L855.015909,585.385098 C855.151167,585.371546 855.284163,585.358829 855.406942,585.347317 L856.048766,585.288629 L856.078969,585.514892 C856.096712,585.639707 856.121606,585.803224 856.15185,585.97152 L856.169664,586.067776 L856.198953,586.211314 C856.268353,586.541798 856.341504,586.829551 856.341504,586.829551 C856.365574,586.857696 856.37092,586.889434 856.358481,586.923153 C857.68427,587.596307 858.918208,588.447417 860,589.455288 L859.959759,589.498228 L859.930763,589.549119 C859.138419,589.094003 858.313518,588.70238 857.465984,588.379544 C856.366985,587.961132 855.245099,587.660042 854.103764,587.471339 C854.068125,587.568577 853.91637,587.676406 853.693954,587.74955 C853.633153,587.769739 853.570943,587.785937 853.508968,587.798379 C853.414832,587.816924 853.3214,587.826079 853.234776,587.824436 C853.08876,587.821854 852.979834,587.788988 852.928658,587.731943 C852.830841,587.622283 852.977677,587.457094 853.257753,587.352385 C852.62077,587.278366 851.977893,587.238416 851.329895,587.231716 L851.322692,587.234362 L851.291018,587.242717 C851.23632,587.255159 851.182092,587.257037 851.137019,587.248351 C851.116521,587.244367 851.099511,587.238415 851.086294,587.230973 C849.274478,587.235236 847.423124,587.497872 845.545131,588.000453 C845.406775,588.07242 845.21598,588.140076 844.986948,588.194877 C844.875205,588.221639 844.760645,588.242532 844.64632,588.25873 C842.974163,588.771494 841.282554,589.470722 839.580428,590.343586 L840.210653,590.765428 C840.295869,590.790312 840.329908,590.841957 840.306433,590.911679 C840.283192,590.981166 840.205723,591.060748 840.088347,591.136104 C840.041631,591.166387 839.991159,591.194322 839.938809,591.219206 C839.716262,591.326019 839.458973,591.380951 839.314364,591.340339 C839.133604,591.290337 839.194405,591.112159 839.439488,590.953935 C839.557334,590.878579 839.701708,590.817543 839.845612,590.781861 C839.942565,590.75815 840.031536,590.747586 840.105953,590.750404 L839.530455,590.369261 C839.008637,590.637862 838.48584,590.922767 837.962317,591.223609 L837.712442,591.368171 L838.362204,591.826044 C838.529492,591.876792 838.482639,592.044811 838.250205,592.217108 L838.217361,592.240619 C838.166655,592.275832 838.111722,592.308932 838.054442,592.33898 C837.967818,592.384523 837.875795,592.422787 837.784711,592.450958 C837.630947,592.498378 837.498311,592.510116 837.410748,592.484058 C837.231866,592.430065 837.301353,592.234046 837.564981,592.050703 C837.693626,591.962436 837.840817,591.893653 837.989181,591.851397 C838.088951,591.823227 838.179801,591.810081 838.255861,591.811489 L837.670656,591.392351 L837.55697,591.45851 L837.235129,591.647952 C836.402285,592.141638 835.54388,592.677376 834.321887,593.459167 L832.735024,594.47812 C827.879583,597.587669 825.472787,598.896642 822.267862,599.927152 C816.112973,601.905936 809.457638,600.691673 804.909963,596.544996 C800.504788,592.528199 798.848126,586.051229 800.826143,580.467385 C800.914659,580.217506 801.009736,579.970552 801.111153,579.726695 C800.999276,579.680082 800.89446,579.536924 800.835687,579.3219 C800.817376,579.254291 800.804464,579.18363 800.797422,579.112265 C800.786623,579.004044 800.789205,578.894648 800.805403,578.792061 C800.83287,578.618578 800.895549,578.485238 800.981234,578.418099 C801.162698,578.28382 801.37069,578.463876 801.466469,578.81272 C801.474055,578.840704 801.48068,578.869083 801.486334,578.89771 C802.415633,576.997587 803.738089,575.310114 805.338934,573.923903 C805.387909,573.771748 805.472156,573.625069 805.591792,573.511986 C805.652593,573.456584 805.716681,573.411277 805.781473,573.376064 C805.896518,573.314351 806.013799,573.284847 806.121598,573.286855 C806.68919,572.853447 807.286438,572.455414 807.908818,572.096511 C807.924081,572.085445 807.939813,572.074872 807.955994,572.064731 C807.976682,572.053492 807.997632,572.043083 808.018777,572.033516 C809.561005,571.159862 811.254524,570.525295 813.033823,570.180731 Z M805.297664,574.11592 L805.229534,574.17641 C803.677315,575.562477 802.400669,577.238342 801.510022,579.118333 C801.512068,579.18868 801.507776,579.258255 801.497457,579.324952 C801.48032,579.435286 801.447689,579.528952 801.40332,579.600552 L801.655554,579.50611 C801.894575,579.418431 802.272044,579.284503 802.648218,579.169545 C802.954102,579.073296 803.283226,578.996766 803.518919,578.939956 L803.916356,578.851923 C803.92692,578.849811 803.936311,578.85967 803.937484,578.87399 C803.938423,578.88831 803.930911,578.901691 803.920347,578.903804 L803.876448,578.913194 C803.86025,578.920706 803.840062,578.931974 803.816586,578.946999 C803.784895,578.966718 803.748508,578.997236 803.7086,579.035501 L803.647094,579.100997 L803.582772,579.180813 C803.540986,579.239501 803.491922,579.304293 803.453892,579.381058 C803.413984,579.456883 803.375954,579.541864 803.337454,579.630601 L803.282053,579.769105 L803.229703,579.915591 L803.192212,580.016779 C803.185778,580.033359 803.178996,580.050105 803.171484,580.067477 L803.136505,580.144007 L803.097771,580.215606 C803.042839,580.307864 802.976404,580.387211 802.904334,580.447073 C802.8325,580.508109 802.754796,580.545904 802.67991,580.569615 C802.604789,580.593559 802.531311,580.600602 802.462763,580.599194 C802.394215,580.59802 802.330597,580.586517 802.272613,580.571258 C802.156879,580.541209 802.06556,580.492381 802.002646,580.456229 C801.979141,580.442319 801.959763,580.429599 801.944722,580.419131 L801.906632,580.390498 C801.906632,580.390498 801.934491,580.404876 801.985018,580.425298 L802.008045,580.434397 C802.072603,580.460689 802.167208,580.48839 802.281064,580.505527 C802.394919,580.521021 802.530372,580.522664 802.668642,580.472661 C802.737659,580.448247 802.806207,580.408339 802.870295,580.354111 C802.934148,580.299648 802.992367,580.228283 803.04143,580.144946 L803.076643,580.080858 L803.107866,580.014657 L803.127663,579.967376 L803.221017,579.720511 L803.281583,579.580363 C803.3229,579.489749 803.366094,579.405942 803.410463,579.330586 C803.455535,579.255465 803.507651,579.192081 803.554836,579.136445 L803.625966,579.061323 L803.69428,579.002635 C803.72738,578.977458 803.757839,578.956902 803.785261,578.941662 L803.815647,578.92634 L803.420557,579.01719 L803.250794,579.058735 C803.071551,579.103972 802.866757,579.159874 802.662426,579.222755 L802.444865,579.291645 C801.86844,579.478345 801.323739,579.693749 801.323739,579.693749 C801.294596,579.717405 801.264087,579.732483 801.233041,579.739499 C801.127397,579.991709 801.028536,580.247562 800.936783,580.506578 C798.974606,586.045706 800.618594,592.473124 804.989049,596.458262 C809.504462,600.575523 816.115752,601.781749 822.231934,599.815409 L822.44599,599.745768 L822.774435,599.635608 C825.673014,598.645064 828.046046,597.336684 832.509867,594.482844 L834.398154,593.271092 L835.047648,592.857782 C835.909749,592.311718 836.587544,591.894058 837.256108,591.49915 L837.565956,591.31723 L837.300789,591.127394 L836.823779,591.417566 C836.494128,591.619423 836.139761,591.838917 835.752099,592.080957 L833.525652,593.479946 L832.923366,593.855272 C830.435954,595.398739 828.844976,596.296324 827.178788,597.042084 L826.992543,597.124678 C826.650339,597.275039 826.303476,597.419817 825.943643,597.563239 C823.812946,598.412495 821.629265,598.874472 819.489742,598.940553 L819.206095,599.237249 C819.003734,599.446976 818.808157,599.645554 818.643381,599.810479 L818.465761,599.987748 L818.207209,600.2382 C818.13068,600.351586 817.983959,600.447366 817.792165,600.506993 C817.60178,600.565681 817.389094,600.582818 817.199413,600.548779 C817.124292,600.532346 817.057387,600.509341 816.999403,600.48117 C816.75479,600.360742 816.674504,600.149933 816.814182,599.961895 C816.989778,599.72456 817.415386,599.631128 817.794513,599.693807 C817.976212,599.726438 818.119881,599.799211 818.199697,599.899451 C818.253221,599.96659 818.27294,600.041242 818.25862,600.117302 L818.494354,599.888499 L818.662351,599.720765 C818.803924,599.578692 818.968914,599.411138 819.136316,599.237996 L819.420293,598.942246 C818.469577,598.968125 817.527804,598.915432 816.603499,598.783721 L816.273075,599.055512 L815.845824,599.401069 C815.753331,599.512812 815.597455,599.589576 815.421155,599.61939 C815.247438,599.6431 815.052827,599.61939 814.8831,599.542626 C814.817839,599.512812 814.760089,599.476895 814.711495,599.436517 C814.637548,599.375012 814.584259,599.302942 814.556323,599.225474 C814.511251,599.089317 814.542238,598.956211 814.638722,598.851042 C814.83521,598.64305 815.253306,598.586709 815.575153,598.740943 C815.729621,598.815829 815.845589,598.919355 815.900991,599.036967 C815.937378,599.117722 815.941604,599.200825 815.914607,599.279937 L816.411815,598.875926 L816.535878,598.77414 C814.897438,598.533437 813.314384,598.044005 811.83469,597.301453 C811.586293,597.390174 811.242466,597.300916 811.033378,597.032172 C810.984549,596.972075 810.944406,596.907987 810.914358,596.842022 C810.905713,596.823039 810.897881,596.80393 810.890878,596.78474 C810.620775,596.624232 810.354568,596.454483 810.092725,596.275668 C809.157044,595.636717 808.313421,594.891541 807.572519,594.064399 L807.515022,594.179479 L807.409454,594.394993 L807.257799,594.716255 C807.11596,595.022491 807.011112,595.264009 807.011112,595.264009 C806.995618,595.350398 806.942798,595.416129 806.861574,595.448525 C806.780584,595.480451 806.680813,595.475052 806.580104,595.432327 C806.539727,595.41519 806.501931,595.392888 806.466953,595.366831 C806.320467,595.257201 806.229617,595.080431 806.25591,594.93418 C806.288306,594.75342 806.486672,594.687689 806.69396,594.778773 C806.793495,594.822203 806.881058,594.894976 806.940686,594.984417 C806.981063,595.044749 807.005243,595.107898 807.01299,595.169168 L807.159228,594.843986 C807.205175,594.743483 807.258536,594.628273 807.314148,594.511256 L807.356199,594.423357 C807.42216,594.28632 807.489413,594.151304 807.54768,594.036128 C807.192515,593.637964 806.861231,593.220585 806.554896,592.787023 L806.440569,592.974454 C806.367257,593.096367 806.274086,593.254581 806.180688,593.422112 L806.051299,593.658918 L805.87698,593.988538 C805.823472,594.091564 805.775891,594.184758 805.738226,594.259158 L805.649072,594.436972 C805.607286,594.618906 805.411267,594.678299 805.206796,594.559514 C805.167358,594.536742 805.130267,594.508572 805.095993,594.476411 C805.044347,594.427582 804.999744,594.369363 804.965705,594.305745 C804.908894,594.197758 804.886123,594.089302 804.911477,593.99587 C804.961479,593.806424 805.155855,593.766751 805.357039,593.888823 C805.454696,593.946807 805.538503,594.0339 805.59367,594.135079 C805.630761,594.203392 805.651654,594.27241 805.656115,594.337906 L805.77416,594.105947 C805.858153,593.942919 805.978815,593.712492 806.108939,593.476183 L806.163387,593.377984 L806.247503,593.23092 L806.395802,592.980723 C806.44403,592.900678 806.49046,592.824792 806.533306,592.755477 C804.380325,589.691808 803.470771,585.825653 804.220108,582.103412 C804.604732,580.193201 805.407101,578.400823 806.530966,576.824974 C806.445551,576.673664 806.357704,576.514945 806.270934,576.353912 L806.162279,576.149711 C805.98275,575.808827 805.813265,575.469375 805.687375,575.194076 L805.392721,574.531051 C805.313736,574.425329 805.280354,574.280216 805.297664,574.11592 Z M818.664744,597.331248 L818.395012,597.179128 L818.157033,597.404993 C817.929713,597.618505 817.564794,597.955754 817.174764,598.294207 C817.023054,598.42986 816.870456,598.560341 816.724855,598.682325 C817.647347,598.807324 818.586875,598.853593 819.535087,598.821632 L819.7374,598.606954 C819.822967,598.515265 819.901975,598.429279 819.971382,598.351956 L820.262241,598.025649 L820.121146,597.981243 C820.072458,597.965143 820.013218,597.94486 819.946733,597.920714 L819.798002,597.862055 C819.640644,597.799156 819.460441,597.724636 819.284728,597.6484 C819.04974,597.546047 818.829306,597.418341 818.664744,597.331248 Z M829.285361,595.227967 L829.233783,595.251754 C825.828658,596.804594 822.40569,597.389322 819.198989,596.879328 C819.309685,596.940636 819.441454,597.005661 819.581628,597.070649 L819.753061,597.148375 C819.961552,597.243685 820.17777,597.332345 820.358155,597.394381 L820.756867,597.526328 L820.397459,597.942546 L820.228014,598.13579 C820.046089,598.34211 819.82965,598.583199 819.604988,598.818946 C821.637903,598.742422 823.709879,598.306471 825.736573,597.51861 L825.900184,597.454204 C827.388735,596.860897 828.655383,596.243824 830.293576,595.301075 C830.220009,595.339996 830.140259,595.376134 830.056157,595.407678 C829.971645,595.440543 829.888543,595.467305 829.809431,595.487259 C829.689941,595.517542 829.579842,595.531862 829.487584,595.528811 C829.331707,595.523177 829.244614,595.468479 829.237571,595.377629 C829.234569,595.33178 829.25165,595.280903 829.285361,595.227967 Z M815.069774,595.538126 L815.049071,595.551112 C814.753184,595.74048 814.360048,595.98074 813.951033,596.209149 L813.630723,596.387046 C813.282117,596.579439 812.931822,596.765058 812.646408,596.905863 L812.263119,597.091411 C812.079113,597.179029 811.966053,597.230539 811.966053,597.230539 L811.961721,597.23359 C813.440188,597.96525 815.021591,598.443608 816.658014,598.672832 L816.875578,598.489658 C817.024863,598.362698 817.181378,598.226877 817.337598,598.087176 L817.705314,597.756678 C817.978461,597.50916 818.229981,597.273824 818.424826,597.087104 L818.721098,596.794616 C817.555912,596.568233 816.421334,596.194224 815.328731,595.666641 L815.314568,595.659507 C815.290502,595.714318 815.267548,595.772328 815.246264,595.833051 C815.213868,595.92437 815.188045,596.021793 815.163396,596.122972 L815.131704,596.277909 L815.092552,596.545415 C815.089475,596.563474 815.085927,596.581915 815.081467,596.601399 L815.058696,596.688493 L815.028413,596.773943 C814.981227,596.887564 814.910801,596.997898 814.822064,597.095086 C814.734266,597.192743 814.625106,597.27655 814.515007,597.342281 C814.405377,597.407543 814.290113,597.456137 814.178605,597.494167 C814.067097,597.532666 813.958171,597.558724 813.856758,597.577739 C813.654166,597.616473 813.481857,597.623751 813.362132,597.626346 C813.242878,597.626803 813.17832,597.61483 813.17832,597.61483 L813.226269,597.614008 C813.257608,597.612893 813.303679,597.61037 813.362602,597.604736 C813.481387,597.592529 813.650175,597.565297 813.844316,597.515999 C814.037518,597.465762 814.257952,597.389701 814.457962,597.264343 C814.557967,597.202368 814.64952,597.127247 814.728163,597.040388 C814.80704,596.953295 814.86878,596.855403 814.910801,596.753754 L814.939441,596.67699 L814.961508,596.600226 L814.973515,596.546928 L815.021839,596.274857 L815.061513,596.115929 C815.090153,596.011933 815.124661,595.912163 815.163865,595.818731 C815.191243,595.75205 815.222106,595.688854 815.254219,595.629745 L815.328731,595.666641 C815.241815,595.624672 815.155492,595.581829 815.069774,595.538126 Z M830.908601,593.636485 L830.840621,593.666589 C830.276909,593.913907 829.727419,594.127753 829.145397,594.329794 C828.333352,594.611684 827.535293,594.82817 826.744942,594.976348 C826.765769,595.035645 826.738675,595.121206 826.660917,595.207903 C826.636972,595.233021 826.609976,595.256966 826.580631,595.278563 C826.536263,595.311429 826.486965,595.33913 826.435788,595.359788 C826.349634,595.394532 826.269583,595.404391 826.211129,595.386785 C826.09164,595.350633 826.101734,595.210485 826.22498,595.078319 L826.241706,595.061267 C825.357566,595.19523 824.481128,595.241948 823.603837,595.197572 C823.61652,595.227237 823.631396,595.257023 823.647152,595.287249 L823.685651,595.35298 L823.73002,595.417772 C823.745748,595.441717 823.760303,595.461671 823.773684,595.487259 L823.791995,595.525994 L823.80561,595.566371 C823.819696,595.621773 823.819461,595.682574 823.804437,595.743141 C823.789882,595.803942 823.758894,595.864508 823.721099,595.920614 C823.683304,595.97719 823.637057,596.029305 823.589402,596.076725 C823.541513,596.12438 823.491276,596.166871 823.442916,596.204666 C823.346198,596.280961 823.255583,596.336832 823.1922,596.375097 L823.105013,596.42396 L823.089378,596.431907 L823.184922,596.36735 C823.24455,596.326268 823.326244,596.264293 823.414746,596.187059 C823.502309,596.11006 823.59621,596.015689 823.662646,595.91052 C823.695746,595.85817 823.72016,595.803472 823.733072,595.749009 C823.745983,595.694781 823.745748,595.641258 823.733072,595.59149 L823.721569,595.555103 L823.706544,595.520594 L823.694146,595.497858 L823.623442,595.385376 L823.587759,595.315889 C823.573204,595.284902 823.560632,595.253914 823.550251,595.223066 L823.541463,595.194264 C823.472526,595.190437 823.403582,595.186048 823.334628,595.181094 L823.243284,595.331281 C823.194655,595.410468 823.141908,595.495126 823.08648,595.582245 L822.957243,595.782133 L822.815725,595.994408 C822.740574,596.105492 822.666581,596.212536 822.599529,596.308359 L822.317728,596.703575 C822.276813,596.799468 822.161411,596.885688 822.021552,596.932863 C824.45728,596.850847 826.975421,596.192099 829.481749,595.007185 L829.56592,594.966794 C829.660414,594.904493 829.770856,594.846182 829.891233,594.79703 L830.011313,594.751632 C830.08372,594.71647 830.155794,594.680752 830.227665,594.644823 L830.546122,594.483551 L830.817354,594.342862 C830.847513,594.172646 830.88009,593.957831 830.900595,593.733237 L830.908601,593.636485 Z M815.539907,595.244832 L815.576327,595.211659 L815.26694,595.412863 C815.241135,595.429387 815.213948,595.446741 815.18547,595.464851 L815.313229,595.528582 L815.29298,595.561207 C815.315751,595.522238 815.340635,595.486086 815.363406,595.451342 L815.412478,595.386933 C815.420425,595.37669 815.428354,595.366752 815.436414,595.357206 C815.47286,595.31407 815.507456,595.276216 815.539907,595.244832 L815.539907,595.244832 Z M836.28316,591.247141 L834.497021,592.346075 L834.063921,592.61019 C833.316881,593.064224 832.688325,593.437603 832.118498,593.762757 C832.094696,593.789905 832.071507,593.814869 832.049662,593.83733 L831.993985,593.892992 C831.955626,593.930733 831.925809,593.958 831.90884,593.973143 L831.893103,593.98695 C831.893103,593.98695 831.925377,593.95245 831.976571,593.892023 L831.996629,593.868165 C832.014518,593.847959 832.033394,593.825197 832.052799,593.8002 C831.658368,594.024456 831.291441,594.225848 830.931685,594.415391 L830.86032,594.45279 L830.817733,594.663165 L830.791874,594.77713 C830.815988,594.89423 830.662895,595.075821 830.414596,595.231484 L830.654199,595.092011 C831.583295,594.548406 832.637292,593.900341 833.913742,593.098013 L835.291472,592.230744 L835.989021,591.795027 C836.430852,591.520303 836.828693,591.275705 837.197028,591.052946 L836.922947,590.85633 L836.28316,591.247141 Z M823.53187,594.859311 L823.541982,594.828776 L823.402371,595.06789 C823.44053,595.070675 823.478631,595.073057 823.516729,595.075267 L823.513342,595.043575 L823.511934,594.98207 L823.517803,594.925025 C823.521715,594.90108 823.526358,594.879013 823.53187,594.859311 Z M830.790206,594.489692 L830.479212,594.64951 L830.514161,594.648485 C830.619095,594.648016 830.697973,594.6675 830.744923,594.704356 L830.78327,594.524851 C830.78552,594.513575 830.787836,594.501847 830.790206,594.489692 Z M832.301337,593.017643 L832.277725,592.980701 L832.203756,593.018572 C831.773382,593.237569 831.367852,593.431849 830.971073,593.608872 C830.955928,593.855843 830.921362,594.103449 830.886617,594.306702 L831.201225,594.138627 C831.518697,593.967035 831.846242,593.784081 832.197159,593.582434 L832.20955,593.560637 C832.278803,593.436218 832.339134,593.294192 832.337726,593.163904 C832.337726,593.111695 832.325556,593.06234 832.301337,593.017643 L832.301337,593.017643 Z M806.835576,592.97456 L806.885774,593.042115 C807.112961,593.34507 807.352765,593.639392 807.604751,593.92409 L807.716546,593.708063 L807.637659,593.647973 C807.616684,593.631591 807.59222,593.612204 807.565129,593.590245 L807.146095,593.24372 L806.835576,592.97456 Z M845.655871,586.228598 L845.652188,586.229425 C845.354514,586.301177 845.059008,586.382004 844.766148,586.472014 L844.494021,586.557417 C843.252651,586.955324 842.138059,587.429605 840.730666,588.167733 L840.710678,588.191121 C840.658328,588.249809 840.602692,588.299812 840.54682,588.345589 C840.436017,588.437143 840.327091,588.504752 840.250796,588.550763 L840.166542,588.598576 C840.140056,588.612753 840.125203,588.619781 840.125203,588.619781 L840.190072,588.575313 C840.203728,588.565641 840.21928,588.554461 840.236476,588.541843 L840.301394,588.49325 C840.359583,588.447941 840.427062,588.39093 840.496818,588.324696 C840.519814,588.302773 840.543163,588.27945 840.566176,588.254857 L840.269493,588.413501 C839.918,588.603198 839.547205,588.809262 839.151533,589.034003 C839.105575,589.10419 839.00846,589.160215 838.884842,589.186118 L838.413737,589.457793 C838.091814,589.644563 837.753787,589.842819 837.397285,590.053619 L836.065617,590.845518 L835.317651,591.286932 C834.166843,591.961812 833.228688,592.489701 832.39012,592.923 L832.396884,592.931263 C832.440078,592.989717 832.453459,593.059674 832.450407,593.130804 C832.44759,593.202169 832.424584,593.276116 832.393597,593.347716 C832.370356,593.401592 832.341306,593.454412 832.309911,593.504788 L832.296627,593.525138 L832.788843,593.237888 C833.467949,592.837709 834.244664,592.36537 835.194975,591.779621 L836.222568,591.146609 L836.673836,590.870587 C836.72266,590.840815 836.771056,590.811337 836.819034,590.782146 L836.573618,590.6065 L837.500859,590.188305 L837.603716,590.142392 L838.624411,589.706425 L838.957542,589.515077 C839.665612,589.111606 840.288475,588.778348 840.90285,588.475304 L841.091077,588.383273 C841.498681,588.185741 841.906001,587.999744 842.335543,587.813548 C843.4039,587.350482 844.496663,586.987824 845.600288,586.726255 C845.603836,586.636177 845.610884,586.542956 845.622455,586.449293 L845.635571,586.355584 C845.641548,586.313276 845.648342,586.270875 845.655871,586.228598 Z M831.209382,592.591333 L831.115711,592.622314 C831.068658,592.637549 831.021655,592.652537 830.974698,592.667279 C830.98877,592.86576 830.998822,593.134702 830.982576,593.418069 L830.978548,593.476851 C831.365956,593.302787 831.762538,593.111888 832.183291,592.897198 C832.16009,592.882392 832.134081,592.869195 832.105789,592.857551 L832.045927,592.835484 C832.025504,592.828441 832.002967,592.823512 831.982074,592.817408 L831.935706,592.807079 L831.691215,592.761302 L831.554588,592.727028 C831.467025,592.702379 831.386739,592.674208 831.315609,592.643221 C831.277238,592.626866 831.241902,592.609365 831.209382,592.591333 Z M838.280745,589.066986 L838.256218,589.047675 L837.274828,589.622815 C835.023928,590.938057 833.825176,591.572431 832.376747,592.160935 C832.014185,592.308245 831.65565,592.441815 831.300073,592.56145 C831.324888,592.571993 831.351355,592.58227 831.378992,592.592279 C831.452236,592.618572 831.535573,592.641343 831.622901,592.663175 L831.760467,592.692519 L832.008853,592.733931 C832.025399,592.737018 832.042015,592.740409 832.059073,592.7444 C832.083957,592.750973 832.110484,592.756372 832.133725,592.763884 L832.202038,592.787594 C832.2374,592.802223 832.269644,592.819172 832.298257,592.838192 L832.511033,592.727685 C833.514406,592.202343 834.66805,591.539938 836.156982,590.654727 L837.193495,590.037845 L837.573169,589.813501 C837.945912,589.593885 838.298196,589.38831 838.632987,589.195451 L838.648838,589.197744 C838.592028,589.191875 838.53733,589.180842 838.486154,589.165583 C838.408451,589.142107 838.338494,589.108538 838.280745,589.066986 Z M830.954338,592.363299 L830.941647,592.337572 L830.961612,592.512575 C830.96267,592.523553 830.963739,592.534978 830.964813,592.546827 C831.00446,592.534812 831.044257,592.522081 831.084091,592.509171 L831.061136,592.490866 L831.024341,592.455044 C831.018568,592.449236 831.01309,592.443446 831.008082,592.437577 C830.985546,592.411167 830.967367,592.386342 830.954338,592.363299 L830.954338,592.363299 Z M837.338502,591.104633 L837.606569,591.29352 L837.903834,591.12184 C838.409279,590.831386 838.914091,590.55572 839.418043,590.295172 L839.099337,590.084224 C838.548203,590.388033 837.988868,590.712368 837.338502,591.104633 Z M838.885,589.942382 L837.157215,590.714188 L836.957001,590.835632 L837.233925,591.030645 L837.541796,590.84568 C837.943682,590.605611 838.312948,590.390704 838.671344,590.188516 L838.988797,590.011061 L838.885,589.942382 Z M816.156168,588.646543 L816.559944,588.73974 L816.972641,588.801011 L816.796811,588.988109 L816.699606,589.09488 C816.63045,589.171633 816.5541,589.258165 816.479622,589.346284 L816.34766,589.505688 C816.246703,589.629824 816.151624,589.75189 816.076691,589.849818 L815.919058,590.059346 C815.89254,590.113048 815.840894,590.164928 815.771173,590.20601 C815.70192,590.247092 815.622808,590.27268 815.547687,590.27761 C815.517639,590.279723 815.490173,590.27808 815.465524,590.273854 C815.362936,590.254369 815.309647,590.184882 815.354016,590.095911 C815.411295,589.984403 815.577501,589.898014 815.732908,589.887684 C815.808029,589.882285 815.86836,589.89637 815.903104,589.927827 C815.926579,589.94919 815.936439,589.976656 815.933622,590.008113 L816.109451,589.77706 C816.172755,589.695384 816.247387,589.600682 816.323313,589.507853 L816.435714,589.372285 C816.593884,589.185266 816.737418,589.029426 816.737418,589.029426 L816.339511,588.96346 C816.255187,588.950689 816.178376,588.931759 816.113163,588.915322 L815.943247,588.872141 L815.775427,589.039638 L815.682448,589.134582 C815.599704,589.219747 815.505515,589.318541 815.412704,589.419821 L815.256698,589.595299 C815.067295,589.812724 814.918548,589.998253 814.918548,589.998253 C814.861033,590.106475 814.689194,590.194742 814.528622,590.189108 C814.497635,590.188169 814.468995,590.183709 814.443407,590.176197 C814.405142,590.164694 814.371103,590.147791 814.351618,590.121968 C814.318283,590.078304 814.315936,590.023842 814.346219,589.969379 C814.407724,589.857871 814.587076,589.780402 814.740605,589.790497 C814.813848,589.795661 814.871128,589.819606 814.907749,589.855758 C814.931459,589.880642 814.940615,589.910925 814.936624,589.944025 L815.115037,589.729461 L815.202079,589.627985 C815.280483,589.537962 815.372321,589.435812 815.468308,589.33294 L815.632976,589.159864 C815.904309,588.880216 816.156168,588.646543 816.156168,588.646543 Z M843.544548,588.053653 L843.395507,588.106248 C842.318818,588.490037 841.246031,588.957548 840.184059,589.506005 L839.860833,589.674396 C839.620895,589.800535 839.386408,589.926451 839.150894,590.05585 L839.469178,590.268785 C841.038179,589.460688 842.598762,588.799273 844.144047,588.294488 C843.87492,588.289483 843.676319,588.241124 843.589695,588.156612 C843.557402,588.124917 843.542892,588.090175 843.544548,588.053653 Z M808.805029,588.353083 L808.812629,588.373215 C809.044504,589.002317 809.326537,589.612018 809.654972,590.196738 L809.74106,590.111639 L809.988725,589.874304 C810.074879,589.802234 810.160095,589.731104 810.244137,589.661382 C810.415507,589.527103 810.588755,589.408553 810.760359,589.307139 C810.930791,589.205021 811.100752,589.122388 811.260854,589.054075 C811.34067,589.020036 811.420017,588.992335 811.493964,588.964869 L811.640659,588.9207 C811.664186,588.913849 811.687323,588.907432 811.710172,588.90172 C811.824028,588.873354 811.926308,588.852324 812.014433,588.84026 L812.076622,588.832937 L811.880413,588.825695 C811.690725,588.816861 811.373442,588.797818 810.972577,588.757816 C810.646739,588.720021 810.262917,588.665088 809.846464,588.588089 C809.638238,588.54912 809.421795,588.504517 809.200657,588.45428 C809.068854,588.422932 808.937311,588.38899 808.805029,588.353083 Z M845.596601,586.848089 L845.480434,586.875905 C844.486805,587.119754 843.502488,587.446191 842.537513,587.854719 L842.382224,587.921243 C841.160934,588.450642 840.119189,588.97884 838.735459,589.777828 L839.040912,589.982422 L839.095756,589.952208 C839.252852,589.865904 839.409512,589.781135 839.567648,589.696806 L839.726348,589.612584 C839.859127,589.542453 839.993375,589.472375 840.130199,589.401715 C841.289269,588.803112 842.461363,588.300431 843.637564,587.897277 C843.653868,587.882503 843.672328,587.867523 843.692752,587.852607 C843.839003,587.748611 844.087842,587.652597 844.394665,587.586866 C844.537285,587.555842 844.682765,587.535545 844.823836,587.524697 C845.087601,587.449644 845.351487,587.379468 845.615329,587.314385 L845.607166,587.217129 C845.599938,587.110681 845.594907,586.984411 845.596601,586.848089 Z M840.751682,587.641612 L840.66677,587.68692 C840.263074,587.904229 839.838035,588.140121 839.386962,588.39616 L839.305913,588.599123 C839.263423,588.705231 839.220933,588.800306 839.20896,588.850544 L839.202793,588.869992 L839.563384,588.667339 C839.976155,588.437039 840.361918,588.227869 840.728134,588.036499 C840.73683,588.02091 840.744876,588.00472 840.752229,587.988294 C840.781339,587.924206 840.795894,587.857302 840.793311,587.791336 C840.791304,587.740057 840.777097,587.689487 840.751682,587.641612 Z M839.04896,588.588978 L838.909069,588.669463 C838.943225,588.683493 838.975633,588.699299 839.005664,588.716734 C839.077263,588.758285 839.128909,588.80594 839.15708,588.856412 L839.183841,588.769319 L839.317681,588.435528 L839.04896,588.588978 Z M854.029961,587.16054 L854.082418,587.349505 C855.245201,587.538298 856.388156,587.843597 857.507757,588.269852 L857.68351,588.337904 L857.845371,588.402531 L857.699845,588.33593 C856.513668,587.801377 855.286145,587.411278 854.029961,587.16054 Z M853.931613,586.805611 L853.99506,587.034239 C855.337785,587.297209 856.648576,587.718465 857.912019,588.303837 L858.059231,588.373186 L857.91895,588.298532 C857.124876,587.880137 856.304218,587.529057 855.464081,587.244943 C855.345619,587.239832 855.248432,587.215605 855.194389,587.172786 L855.176188,587.155858 C855.174137,587.153579 855.172207,587.151276 855.170396,587.14895 C854.761835,587.018676 854.348507,586.904318 853.931613,586.805611 Z M855.990245,587.165749 L855.934441,587.183324 C855.893751,587.195062 855.852643,587.205235 855.811744,587.213703 L855.759496,587.223234 C856.611705,587.526733 857.443109,587.899374 858.246279,588.341531 C857.525669,587.892048 856.770371,587.499389 855.990245,587.165749 Z M856.283129,587.016774 L856.258802,587.036425 C856.226445,587.060282 856.187747,587.083168 856.143842,587.10455 C856.928126,587.44606 857.686987,587.847435 858.410384,588.306096 C857.737301,587.822856 857.024676,587.391835 856.283129,587.016774 Z M840.081454,586.704567 L840.084591,586.675318 L839.641794,587.762694 L839.456751,588.222006 L839.820506,588.017459 C840.118914,587.850809 840.405736,587.693585 840.682598,587.545117 L840.655276,587.516205 L840.62595,587.488965 L840.464656,587.354694 L840.376624,587.271592 C840.320987,587.21572 840.271924,587.159614 840.230842,587.104447 C840.189056,587.049045 840.15619,586.995052 840.132246,586.942467 C840.120038,586.91641 840.111587,586.890587 840.102432,586.866407 C840.096798,586.841289 840.08999,586.818048 840.086703,586.795746 C840.08195,586.762118 840.079969,586.731527 840.081454,586.704567 L840.081454,586.704567 Z M845.825291,585.598724 L845.767928,585.611866 C844.802535,585.828824 843.8609,586.150652 842.798335,586.625585 L842.859142,586.638696 C843.02793,586.653486 843.098591,586.739406 843.021122,586.830725 C843.006332,586.848566 842.986848,586.865233 842.963373,586.880962 C842.92816,586.904672 842.884026,586.9258 842.833789,586.942467 C842.748808,586.970638 842.65608,586.98308 842.572038,586.977211 C842.421594,586.966715 842.342239,586.898843 842.378104,586.818359 C841.89791,587.044157 841.390841,587.30054 840.844804,587.591555 L840.830402,587.568555 C840.875475,587.63499 840.899655,587.708233 840.901298,587.782181 C840.903496,587.844927 840.886983,587.907843 840.860736,587.967745 C842.255251,587.245974 843.372352,586.783199 844.639985,586.388188 L844.731666,586.359817 C845.045219,586.263446 845.361772,586.177522 845.680746,586.101915 C845.719027,585.922139 845.769437,585.748645 845.825291,585.598724 Z M847.348238,587.079282 L847.196914,587.104708 L847.18471,587.110316 L847.192946,587.105215 C846.705073,587.188251 846.216216,587.289264 845.727136,587.407897 L845.746845,587.570198 L845.763747,587.673255 C845.802153,587.718335 845.803851,587.768028 845.773767,587.819266 C847.58021,587.356158 849.362199,587.1154 851.108345,587.113117 C851.143403,587.090173 851.192442,587.071089 851.245241,587.060314 C851.283271,587.053271 851.320596,587.050923 851.353931,587.052801 L851.200637,586.991296 C851.106267,586.954205 850.9741,586.907489 850.835361,586.859365 L850.723678,586.819634 C849.694736,586.808291 848.654572,586.882124 847.609583,587.038476 L847.348238,587.079282 Z M845.628298,587.432883 L845.552041,587.451119 C845.45987,587.474266 845.367694,587.498038 845.275517,587.522433 C845.436308,587.534442 845.563383,587.561377 845.652239,587.599777 L845.63651,587.494842 L845.628298,587.432883 Z M850.766484,586.820013 L850.895458,586.866407 L851.021999,586.910011 C851.238519,586.98736 851.402995,587.059609 851.402995,587.059609 C851.448513,587.070276 851.471555,587.091361 851.472952,587.116184 C852.180513,587.128721 852.882399,587.180943 853.577474,587.273871 C853.64683,587.264858 853.715112,587.261301 853.779874,587.26361 C853.876827,587.266897 853.956409,587.283095 854.013923,587.309622 L853.970082,587.148902 C853.149228,586.987854 852.316111,586.886391 851.474388,586.842913 L851.476473,586.854435 L851.477412,586.879788 L851.467552,586.855374 L851.461194,586.842576 C851.230273,586.830475 850.998665,586.823077 850.766484,586.820013 Z M845.79451,586.801646 L845.698742,586.823872 C845.695243,586.970596 845.700188,587.109006 845.708438,587.227845 L845.713212,587.290473 C846.283534,587.152508 846.853591,587.03837 847.422371,586.94847 C847.487727,586.901558 847.560915,586.846008 847.635671,586.780957 C847.736876,586.69415 847.838637,586.587682 847.890833,586.47936 L847.904696,586.446527 C847.199543,586.523868 846.494982,586.642298 845.79451,586.801646 Z M814.724407,585.413048 C814.909158,585.490987 814.947892,585.662122 814.767132,585.814477 C814.682621,585.887955 814.565479,585.947113 814.437773,585.979274 C814.351618,586.000871 814.267576,586.007914 814.191751,585.999932 L814.361232,586.103733 C814.409319,586.132506 814.466105,586.165991 814.529561,586.202524 C814.71799,586.305816 814.959467,586.431366 815.215083,586.535152 L815.311525,586.572965 C815.595577,586.687056 815.871178,586.784243 816.095132,586.84035 L816.451253,586.931669 C816.460644,586.933781 816.460878,586.940589 816.451488,586.946928 C816.442333,586.953266 816.427309,586.956553 816.417918,586.954205 L816.379184,586.944815 L816.31181,586.940355 C816.274719,586.938711 816.226594,586.93965 816.170723,586.942467 L816.080108,586.94904 L815.977756,586.959839 C815.905921,586.96876 815.827748,586.980263 815.744411,586.994817 C815.661308,587.009137 815.573275,587.027683 815.482661,587.046933 L815.344391,587.078859 L815.203539,587.115011 L815.05494,587.150459 L814.976063,587.165248 L814.898124,587.176517 C814.794129,587.188019 814.691072,587.188019 814.597875,587.175812 C814.503973,587.164075 814.422279,587.138721 814.351853,587.107969 C814.28307,587.076512 814.232598,587.036134 814.187995,586.995991 C814.144096,586.955614 814.110057,586.913358 814.082356,586.873215 C814.026485,586.792695 813.998784,586.719217 813.980942,586.668041 C813.964275,586.616395 813.960988,586.585877 813.960988,586.585877 L813.9731,586.612596 C813.979309,586.625507 813.988019,586.642754 813.999488,586.66358 C814.025311,586.712409 814.069679,586.779783 814.133532,586.853731 C814.198324,586.926739 814.286122,587.006086 814.411715,587.063365 C814.475099,587.091536 814.55468,587.110551 814.637783,587.121349 C814.72159,587.131913 814.813144,587.131679 814.906575,587.121349 L814.976767,587.112194 L815.045784,587.100222 L815.188749,587.06806 L815.334062,587.033786 L815.476792,587.004207 C815.570693,586.986131 815.661543,586.970638 815.747697,586.958665 C815.833617,586.946223 815.914372,586.937772 815.98785,586.931903 L816.092081,586.925565 L816.182695,586.924157 C816.224599,586.924685 816.261485,586.926005 816.292362,586.928415 L816.325191,586.931669 L815.968835,586.836828 C815.768929,586.785287 815.536564,586.697761 815.285423,586.597829 L815.190392,586.559819 C814.900237,586.447607 814.625106,586.296426 814.415002,586.180223 L814.080008,585.974813 C813.881642,585.900866 813.858166,585.697804 814.029302,585.54052 C814.061228,585.510236 814.680743,585.435585 814.724407,585.413048 Z M853.827458,586.409025 L853.833029,586.432812 C853.848011,586.493919 853.863798,586.55665 853.880114,586.619212 L853.896096,586.676935 C854.324762,586.776499 854.74973,586.892716 855.170147,587.025384 C855.196513,586.981891 855.248226,586.937258 855.319921,586.896211 C854.830265,586.710747 854.331901,586.548256 853.827458,586.409025 Z M848.082188,586.427929 L848.077477,586.439625 C848.047429,586.50653 847.993201,586.567801 847.933104,586.627663 C847.873242,586.68776 847.803285,586.742927 847.733798,586.79246 C847.65852,586.847323 847.582063,586.894351 847.51189,586.934975 C848.471739,586.787076 849.427562,586.708753 850.374734,586.701481 L850.247304,586.660294 C850.242139,586.65865 850.242374,586.655599 850.248008,586.653486 C850.253407,586.651373 850.262093,586.651138 850.267258,586.652782 L850.28862,586.659824 L850.311643,586.664293 L850.326181,586.666632 C850.346604,586.670153 850.373366,586.67297 850.404354,586.675553 L850.454356,586.678604 L850.510697,586.680717 L850.593991,586.680943 C850.608563,586.680795 850.623457,586.680561 850.638638,586.680248 C850.68418,586.679074 850.732304,586.676726 850.781837,586.673909 L850.933723,586.662876 C850.961658,586.661467 850.985368,586.659824 851.013304,586.65912 L851.054621,586.658416 L851.094998,586.658885 C851.148053,586.660528 851.198525,586.665928 851.241719,586.674379 C851.285383,586.68283 851.320362,586.694802 851.348767,586.707479 L851.374733,586.720609 C852.2384,586.760074 853.093338,586.860214 853.935764,587.022387 L853.872954,586.792148 C851.989847,586.352956 850.034868,586.232877 848.082188,586.427929 Z M853.729154,585.982204 L853.781412,586.215857 C853.786139,586.236306 853.791029,586.257302 853.796068,586.278749 C854.362302,586.432718 854.921049,586.615781 855.469097,586.827202 C855.504676,586.814017 855.542761,586.801597 855.583015,586.790347 C855.635302,586.775907 855.68858,586.764095 855.741736,586.755073 C855.08828,586.45413 854.415148,586.195653 853.729154,585.982204 Z M856.052367,585.721531 L856.033977,585.59686 L855.321659,585.671252 L854.675463,585.744016 C854.231682,585.795555 853.830089,585.846253 853.728187,585.859201 C854.495701,586.095929 855.246987,586.388616 855.973001,586.73385 L856.044306,586.735415 C856.14032,586.740345 856.218258,586.756543 856.27366,586.782131 L856.139616,586.194777 C856.100459,586.016036 856.07026,585.836534 856.052367,585.721531 Z M850.320312,586.670153 L850.416017,586.70139 L850.483558,586.700958 C850.759905,586.700425 851.035499,586.705955 851.310218,586.717597 C851.28377,586.707007 851.251363,586.697728 851.214488,586.690577 C851.175519,586.683299 851.130681,586.678604 851.083261,586.677431 L851.047109,586.676726 L851.011191,586.677196 L850.935601,586.680717 L850.857193,586.686351 L850.779959,586.690812 C850.729252,586.693159 850.680189,586.694333 850.633473,586.694568 C850.602329,586.694724 850.572437,586.694255 850.544145,586.693298 L850.50295,586.691516 C850.482761,586.690342 850.463981,586.688934 850.44614,586.68776 L850.396372,586.682595 C850.365854,586.678604 850.340031,586.674379 850.320312,586.670153 Z M847.440386,585.96557 L847.316536,585.924735 L847.308293,585.925654 C846.79012,585.991839 846.275691,586.083824 845.76738,586.202137 C845.751477,586.283409 845.738168,586.365878 845.72783,586.447842 C845.716111,586.532898 845.708331,586.618271 845.703602,586.70202 C846.439267,586.532013 847.179701,586.406814 847.920764,586.326706 C847.917845,586.301922 847.910269,586.276956 847.898125,586.252292 C847.867373,586.190552 847.802581,586.130925 847.705158,586.077635 L847.62722,586.038197 C847.600458,586.025285 847.569236,586.014017 847.540596,586.00181 C847.5109,585.989838 847.476039,585.977572 847.440386,585.96557 Z M850.219956,585.820543 L850.172521,585.818317 L850.22688,585.882555 C850.401661,586.040923 850.400615,586.186088 850.237205,586.223799 C851.453084,586.246788 852.659376,586.393108 853.83812,586.663293 L853.776353,586.436339 L853.765743,586.392282 C853.153045,586.22547 852.531478,586.093095 851.905246,585.995929 L851.817085,585.982472 L851.836819,586.007209 C851.926495,586.095007 851.967812,586.174354 851.954196,586.231164 C851.94105,586.28774 851.875319,586.316145 851.770384,586.312154 C851.728363,586.310746 851.682352,586.304173 851.633992,586.293374 C851.428348,586.24478 851.196177,586.136559 851.042883,585.993359 C850.99875,585.95205 850.96598,585.912086 850.944522,585.875085 C850.703543,585.851556 850.46182,585.833405 850.219956,585.820543 Z M847.612715,585.88978 L847.540069,585.898319 C847.595085,585.916113 847.646469,585.932912 847.699055,585.953451 L847.767011,585.980769 L847.798825,585.994768 L847.885449,586.038197 C847.990149,586.098059 848.058227,586.165433 848.088276,586.234451 C848.099522,586.25886 848.105241,586.283476 848.106584,586.308027 C848.742926,586.245237 849.380069,586.216166 850.014888,586.220536 C849.965896,586.211955 849.913993,586.198173 849.860899,586.179519 C849.728968,586.134211 849.603375,586.062846 849.511586,585.984673 C849.437075,585.920581 849.391352,585.855198 849.37563,585.797625 C848.786185,585.796029 848.197373,585.826634 847.612715,585.88978 Z M851.38651,585.438036 L851.71044,585.848466 C852.391862,585.945233 853.068656,586.083643 853.735267,586.262313 L853.668099,585.963288 C852.919729,585.73364 852.15618,585.557478 851.38651,585.438036 Z M845.949334,585.572386 L845.944037,585.585827 C845.887142,585.725326 845.834955,585.895258 845.793814,586.075851 C846.214532,585.979225 846.639393,585.90073 847.067015,585.839806 L846.916152,585.783489 C846.787037,585.732548 846.669426,585.680433 846.567308,585.627848 C846.505192,585.596297 846.450006,585.564324 846.400888,585.532688 L846.345062,585.494993 C846.212312,585.519004 846.080522,585.544761 845.949334,585.572386 Z M849.706066,585.268881 L850.069028,585.696161 C850.351772,585.708081 850.634627,585.727661 850.916986,585.754361 C850.929694,585.69994 850.987688,585.665427 851.090303,585.663765 C851.194299,585.662591 851.3267,585.694283 851.469195,585.761423 C851.516904,585.783569 851.563017,585.807962 851.606703,585.833918 L851.670898,585.842716 L851.344387,585.431983 C850.80015,585.34859 850.253022,585.293999 849.706066,585.268881 Z M847.336326,585.349038 C847.040458,585.383417 846.752835,585.424342 846.470035,585.472953 C846.538741,585.512645 846.617791,585.553183 846.706517,585.594043 C846.813564,585.643107 846.938218,585.691466 847.066863,585.740529 L847.269456,585.811895 C847.973878,585.721272 848.684331,585.677605 849.395819,585.679887 C849.419354,585.651049 849.459689,585.630273 849.516985,585.62104 C849.612295,585.60672 849.738593,585.6255 849.871228,585.67386 L849.911737,585.689571 L850.030714,585.694082 L849.669362,585.267495 C848.888037,585.23325 848.107348,585.25944 847.336326,585.349038 Z M846.120514,585.221608 L846.118225,585.196136 L846.080354,585.272163 C846.060258,585.313932 846.033534,585.371446 846.003587,585.441014 C846.077264,585.426047 846.151384,585.411514 846.225782,585.397537 L846.221986,585.394033 L846.18086,585.345118 C846.174591,585.337249 846.168853,585.329476 846.164001,585.321729 C846.140902,585.28492 846.125765,585.251266 846.120514,585.221608 Z M848.820472,583.915321 L848.550505,583.891376 L849.41504,584.927609 L849.602477,585.14724 C850.148228,585.168188 850.694442,585.218576 851.237925,585.297085 L851.0457,585.052467 L850.353882,584.165803 L850.079075,584.108725 C849.927636,584.078744 849.730772,584.042047 849.533659,584.011785 L849.435291,583.99725 C849.21251,583.966028 848.98879,583.936449 848.820472,583.915321 Z M809.640351,581.764745 C809.785194,581.889399 809.785663,582.113119 809.639412,582.27416 C809.568986,582.351863 809.475554,582.404917 809.376018,582.422759 C809.309113,582.434966 809.244791,582.429566 809.188215,582.407969 L809.430704,582.693813 C809.586819,582.874716 809.800081,583.116319 810.014782,583.342288 L810.320431,583.655449 C810.422314,583.753341 810.522319,583.842782 810.605422,583.917903 L810.885014,584.162517 C810.892526,584.168855 810.89276,584.178715 810.885718,584.184349 C810.878675,584.190218 810.866938,584.189513 810.859425,584.183175 L810.828438,584.156883 L810.795868,584.138311 L810.775384,584.128008 C810.74604,584.112984 810.708479,584.098429 810.664815,584.084109 L810.594154,584.064155 L810.514573,584.046548 C810.458701,584.036219 810.3979,584.027533 810.333343,584.021899 C810.268786,584.015796 810.200707,584.013918 810.130281,584.012744 L810.023234,584.014387 L809.913838,584.020491 C809.873696,584.022369 809.839422,584.024951 809.798809,584.024012 L809.737539,584.02096 L809.677442,584.013448 C809.597391,583.999363 809.518514,583.971662 809.448088,583.931989 C809.377192,583.892785 809.316626,583.840435 809.26498,583.785268 C809.213334,583.729631 809.172017,583.6693 809.137743,583.610142 C809.102765,583.550984 809.076708,583.492295 809.060979,583.438067 C809.030998,583.344703 809.016711,583.262031 809.008067,583.199071 L809.004169,583.169275 C808.996657,583.103544 808.997115,583.065983 808.997115,583.065983 L809.018489,583.167631 C809.032809,583.231954 809.059805,583.322569 809.101591,583.425625 C809.140091,583.527508 809.214743,583.644885 809.311696,583.745125 C809.360524,583.795127 809.418039,583.839261 809.481188,583.874474 C809.544336,583.909218 809.614293,583.933397 809.685893,583.945839 L809.740121,583.953351 L809.793175,583.957107 L809.829884,583.95762 L810.016191,583.952177 L810.126525,583.95476 C810.199299,583.957812 810.269725,583.96415 810.33616,583.973775 C810.40283,583.98293 810.465274,583.996311 810.522319,584.011335 L810.603309,584.03528 L810.67397,584.062746 C810.706718,584.077008 810.735637,584.090873 810.759934,584.104441 L810.785713,584.120026 L810.507999,583.874005 C810.335456,583.722119 810.129107,583.515066 809.924168,583.296511 L809.787298,583.14883 C809.696886,583.050151 809.608885,582.951957 809.527747,582.859852 L809.358646,582.665259 C809.265359,582.555902 809.192316,582.467134 809.149222,582.41414 L809.105817,582.360314 C808.962383,582.241294 808.965434,582.000672 809.111921,581.833058 C809.140091,581.800897 809.171783,581.773665 809.206057,581.751364 C809.257702,581.717794 809.315217,581.696431 809.374844,581.688684 C809.475319,581.676008 809.569455,581.703709 809.640351,581.764745 Z M813.030461,582.059747 L812.715369,582.05513 L812.414314,582.055364 C812.307841,582.056214 812.211829,582.057715 812.136249,582.059172 C812.113029,582.227878 812.093569,582.397251 812.078053,582.567086 C812.095052,582.5536 812.11546,582.542995 812.139301,582.536144 C812.267946,582.499053 812.448941,582.58286 812.544251,582.715027 C812.590028,582.77841 812.609278,582.843906 812.598479,582.900482 C812.590967,582.938512 812.570309,582.969499 812.538852,582.991801 L812.845368,582.966789 C812.934393,582.960111 813.035813,582.953007 813.139767,582.946721 L813.457688,582.930211 C813.709475,582.919259 813.913568,582.915037 813.913568,582.915037 L813.856054,582.787331 C813.82563,582.72498 813.795055,582.647004 813.766614,582.565543 L813.601111,582.079549 L813.329956,582.068446 C813.242637,582.065372 813.139901,582.062208 813.030461,582.059747 L813.030461,582.059747 Z M816.380473,580.231392 L816.377346,580.241372 C816.234859,580.754721 816.134287,581.278229 816.075779,581.806378 L816.228469,581.934177 C816.432076,582.102749 816.575203,582.214063 816.575203,582.214063 L816.801271,582.160069 C816.940245,582.131429 817.100582,582.086122 817.290262,582.061708 L817.785827,581.998559 L817.954011,581.981158 C817.985829,581.978182 818.003678,581.976727 818.003678,581.976727 L817.809836,581.796235 C817.636212,581.631634 817.369141,581.371442 817.106344,581.087841 L817.064899,581.042878 C816.836249,580.7931 816.611825,580.529472 816.460878,580.336035 L816.380473,580.231392 Z M813.621155,577.835054 L813.604326,577.862858 C813.546779,577.960419 813.490725,578.058741 813.436179,578.157788 L813.481152,578.134517 L813.562377,578.099538 C813.616605,578.078176 813.671068,578.060569 813.724826,578.047423 C813.77835,578.033807 813.831639,578.025826 813.881877,578.021366 L813.95512,578.018079 L814.023668,578.0216 C814.052621,578.024417 814.079278,578.028173 814.103223,578.032868 L814.14081,578.041554 L813.81128,577.909356 C813.753352,577.886512 813.689502,577.861521 813.621155,577.835054 Z M808.359277,574.881008 L808.328135,574.910966 C807.704231,575.518912 807.136364,576.179478 806.633285,576.88368 L806.855903,577.269451 C806.891811,577.330561 806.91228,577.36476 806.91228,577.36476 L807.218868,577.13658 C807.407141,577.005822 807.63626,576.823888 807.89848,576.674115 L808.466246,576.353729 C808.514595,576.326698 808.560485,576.301118 808.60321,576.277382 L808.822893,576.162334 C808.885848,576.130078 808.92224,576.112115 808.92224,576.112115 L808.757669,575.768284 C808.651841,575.542878 808.506915,575.226639 808.359277,574.881008 Z M807.653425,572.383983 L807.615766,572.406831 C807.154704,572.688116 806.708461,572.99135 806.278927,573.315068 C806.36137,573.344735 806.431873,573.397786 806.483151,573.473721 C806.662503,573.736645 806.539961,574.141829 806.259196,574.435271 C806.1221,574.576828 805.958008,574.666504 805.796262,574.687631 C805.687337,574.702186 805.588271,574.683406 805.506342,574.634108 L805.705413,575.081548 L805.782307,575.249477 C805.87784,575.455498 805.992906,575.694141 806.118565,575.93666 L806.173042,576.04075 C806.309316,576.302301 806.449031,576.556699 806.569793,576.771445 C807.085974,576.053961 807.669214,575.382118 808.31008,574.765037 L808.26958,574.668003 L808.229247,574.57002 C808.064451,574.168591 807.905992,573.754486 807.805517,573.451185 L807.634382,572.934023 C807.539025,572.777456 807.553133,572.570176 807.653425,572.383983 Z M812.305559,570.459812 L812.228817,570.478642 C810.88632,570.811889 809.600739,571.312163 808.40206,571.9562 C808.429734,571.956966 808.456834,571.959723 808.483485,571.964021 C808.655795,571.991957 808.788195,572.080459 808.859091,572.209808 C808.931395,572.34174 808.927404,572.496442 808.863786,572.640111 C808.797586,572.781668 808.676922,572.918294 808.518698,573.023464 C808.363761,573.12206 808.187696,573.169011 808.022195,573.155395 C807.910687,573.14624 807.81303,573.109384 807.736735,573.049052 L807.939562,573.651429 C808.039943,573.946104 808.193868,574.334112 808.355251,574.721503 C809.302947,573.816829 810.375039,573.031213 811.542362,572.394791 L811.523778,572.375544 L811.436684,572.291972 L811.343487,572.209339 L811.279878,572.15105 C811.269618,572.141312 811.259367,572.131244 811.248881,572.120367 C811.233857,572.1037 811.217425,572.087502 811.203339,572.07013 L811.162492,572.017545 C811.111551,571.944537 811.076103,571.865894 811.057792,571.786313 C811.038777,571.706732 811.040186,571.62762 811.051923,571.554611 C811.063426,571.481134 811.087841,571.413759 811.116481,571.352958 C811.145355,571.291922 811.179864,571.237929 811.215077,571.190274 C811.27504,571.108379 811.337934,571.046145 811.387647,571.000764 L811.411331,570.979465 C811.431314,570.962211 811.448624,570.948291 811.462454,570.937631 L811.498894,570.911152 C811.498894,570.911152 811.471428,570.940262 811.424477,570.989795 C811.378231,571.040501 811.318134,571.117266 811.258741,571.214454 C811.200522,571.311876 811.144416,571.43254 811.127749,571.568697 C811.119063,571.636775 811.122819,571.70814 811.139486,571.779036 C811.156623,571.849697 811.189019,571.919653 811.234327,571.983975 L811.270244,572.03163 L811.309213,572.075764 C811.33574,572.104639 811.370484,572.135861 811.398889,572.162623 L811.492086,572.249482 L811.578006,572.337984 L811.601121,572.363113 C811.733353,572.291589 811.867212,572.221954 812.002245,572.154285 C812.014447,572.032814 812.028326,571.904669 812.044226,571.775749 L812.10268,571.337699 L812.174749,570.970075 L812.253861,570.610902 C812.250282,570.554945 812.269276,570.503511 812.305559,570.459812 Z M811.989385,572.292508 L811.94338,572.315661 C811.854903,572.360934 811.766944,572.40706 811.679515,572.454027 C811.695936,572.474173 811.711643,572.49418 811.726605,572.514049 C811.770973,572.571798 811.807595,572.628843 811.838347,572.682132 L811.87896,572.760071 L811.907835,572.831905 C811.919807,572.866238 811.928478,572.896741 811.934442,572.924207 L811.94023,572.954446 L811.959469,572.657776 C811.967021,572.554297 811.97692,572.429426 811.989385,572.292508 Z" id="60"></path>
        </g>
    </g>
</svg>
