<?xml version="1.0" encoding="UTF-8"?>
<svg width="61px" height="38px" viewBox="0 0 61 38" version="1.1" xmlns="http://www.w3.org/2000/svg" xmlns:xlink="http://www.w3.org/1999/xlink">
    <title>jeep-svgrepo-com</title>
    <g id="页面-1" stroke="none" stroke-width="1" fill="none" fill-rule="evenodd">
        <g id="形状库素材-其他" transform="translate(-720.000000, -169.000000)" fill="#545458" fill-rule="nonzero">
            <g id="jeep-svgrepo-com" transform="translate(720.190649, 169.156734)">
                <path d="M16.2855469,26.4645703 C14.3141016,26.4645703 12.7101563,28.0685156 12.7101563,30.0399609 C12.7101563,32.0114062 14.3141016,33.6152344 16.2855469,33.6152344 C18.2569922,33.6152344 19.8609375,32.0114062 19.8609375,30.0399609 C19.8609375,28.0685156 18.2569922,26.4645703 16.2855469,26.4645703 Z M16.2855469,31.7422266 C15.346875,31.7422266 14.5831641,30.9786328 14.5831641,30.0399609 C14.5831641,29.1012891 15.346875,28.3375781 16.2855469,28.3375781 C17.2242188,28.3375781 17.9879297,29.1012891 17.9879297,30.0399609 C17.9879297,30.9786328 17.2242188,31.7422266 16.2855469,31.7422266 Z" id="形状"></path>
                <path d="M40.7888672,26.4645703 C38.8174219,26.4645703 37.2134766,28.0685156 37.2134766,30.0399609 C37.2134766,32.0114062 38.8174219,33.6152344 40.7888672,33.6152344 C42.7603125,33.6152344 44.3642578,32.0114062 44.3642578,30.0399609 C44.3642578,28.0685156 42.7603125,26.4645703 40.7888672,26.4645703 Z M40.7888672,31.7422266 C39.8500781,31.7422266 39.0864844,30.9786328 39.0864844,30.0399609 C39.0864844,29.1012891 39.8500781,28.3375781 40.7888672,28.3375781 C41.7275391,28.3375781 42.49125,29.1012891 42.49125,30.0399609 C42.4911328,30.9786328 41.7276563,31.7422266 40.7888672,31.7422266 Z" id="形状"></path>
                <path d="M39.3248438,13.7842969 L38.4452344,9.34089844 C38.2951172,8.58222656 37.6248047,8.0315625 36.85125,8.0315625 L27.1122656,8.0315625 C26.2163672,8.0315625 25.4874609,8.76046875 25.4874609,9.65636719 L25.4874609,14.5592578 C25.4874609,15.4551562 26.2163672,16.1840625 27.1122656,16.1840625 L33.7348828,16.1840625 L33.7348828,17.0308594 C33.7348828,17.9125781 34.4521875,18.6297656 35.3339063,18.6297656 L38.8737891,18.6297656 C39.7555078,18.6297656 40.4726953,17.9124609 40.4726953,17.0308594 L40.4726953,15.3176953 C40.4726953,14.5925391 39.9874219,13.9796484 39.3248438,13.7842969 Z M34.093125,14.3110547 L27.3607031,14.3110547 L27.3607031,9.9046875 L36.6475781,9.9046875 L37.4025,13.7185547 L35.3340234,13.7185547 C34.8335156,13.7185547 34.3865625,13.9498828 34.093125,14.3110547 Z M35.6080078,16.7567578 L35.6080078,15.5915625 L38.5998047,15.5915625 L38.5998047,16.7567578 L35.6080078,16.7567578 Z" id="形状"></path>
                <path d="M58.1964844,26.2938281 L57.4766016,26.2938281 L55.850625,18.080625 C55.6139062,16.8840234 54.5565234,16.0154297 53.3364844,16.0154297 L44.0798437,16.0154297 L42.1032422,6.03058594 C41.8665234,4.83398437 40.8091406,3.96539062 39.5891016,3.96539062 L35.6238281,3.96539062 L35.6238281,1.873125 L36.9430078,1.873125 C37.4603906,1.873125 37.8795703,1.45382812 37.8795703,0.9365625 C37.8795703,0.419296875 37.4603906,0 36.9430078,0 L8.431875,0 C7.91460937,0 7.4953125,0.419296875 7.4953125,0.9365625 C7.4953125,1.45382812 7.91460937,1.873125 8.431875,1.873125 L9.75105469,1.873125 L9.75105469,3.96527344 L5.81355469,3.96527344 C4.46226562,3.96527344 3.33867187,5.02183594 3.25558594,6.37078125 L2.02945312,26.2938281 L1.80351562,26.2938281 C0.8090625,26.2938281 0,27.1028906 0,28.0973437 L0,30.6089062 C0,31.6033594 0.8090625,32.4124219 1.80351562,32.4124219 L6.55804687,32.4124219 C7.42652344,32.4124219 8.1534375,31.7951953 8.32371094,30.9764062 L9.31582031,30.9764062 C9.7753125,34.4136328 12.7248047,37.0741406 16.2857812,37.0741406 C19.8467578,37.0741406 22.79625,34.4136328 23.2557422,30.9764062 L33.8189062,30.9764062 C34.2783984,34.4136328 37.2278906,37.0741406 40.7889844,37.0741406 C44.3498437,37.0741406 47.2993359,34.4136328 47.7589453,30.9764062 L50.5898437,30.9764062 C50.76,31.7951953 51.4870312,32.4124219 52.3555078,32.4124219 L58.1964844,32.4124219 C59.1909375,32.4124219 60,31.6033594 60,30.6089062 L60,28.0973437 C60,27.1028906 59.1908203,26.2938281 58.1964844,26.2938281 Z M55.18125,24.3444141 L55.5672656,26.2938281 L53.1472266,26.2938281 L53.1472266,24.3444141 L55.18125,24.3444141 Z M11.6241797,1.873125 L33.7509375,1.873125 L33.7509375,3.96527344 L11.6241797,3.96527344 L11.6241797,1.873125 Z M6.48832031,30.5394141 L1.87300781,30.5394141 L1.87300781,28.1669531 L6.48832031,28.1669531 L6.48832031,30.5394141 Z M16.2855469,35.2010156 C13.4396484,35.2010156 11.1244922,32.8857422 11.1244922,30.0398438 C11.1244922,27.1939453 13.4396484,24.8786719 16.2855469,24.8786719 C19.1314453,24.8786719 21.4467187,27.1940625 21.4467187,30.0398438 C21.4468359,32.8858594 19.1314453,35.2010156 16.2855469,35.2010156 Z M40.7888672,35.2010156 C37.9429687,35.2010156 35.6276953,32.8857422 35.6276953,30.0398438 C35.6276953,27.1939453 37.9430859,24.8786719 40.7888672,24.8786719 C43.6347656,24.8786719 45.9499219,27.1940625 45.9499219,30.0398438 C45.9499219,32.8858594 43.6347656,35.2010156 40.7888672,35.2010156 Z M51.2739844,24.3268359 L51.2739844,26.3115234 C51.2739844,26.4220312 51.2854687,26.5298437 51.3041016,26.6350781 C50.8494141,26.9628516 50.551875,27.4954687 50.551875,28.0974609 L50.551875,29.1035156 L47.7588281,29.1035156 C47.2992187,25.6662891 44.3498437,23.0057812 40.7888672,23.0057812 C37.2278906,23.0057812 34.2783984,25.6662891 33.8187891,29.1035156 L23.2557422,29.1035156 C22.79625,25.6662891 19.8467578,23.0057812 16.2857812,23.0057812 C12.7248047,23.0057812 9.7753125,25.6662891 9.31582031,29.1035156 L8.3615625,29.1035156 L8.3615625,28.0974609 C8.3615625,27.1030078 7.5525,26.2939453 6.55804687,26.2939453 L3.90609375,26.2939453 L5.12507812,6.48609375 C5.14746094,6.12292969 5.44980469,5.83863281 5.81355469,5.83863281 L39.5893359,5.83863281 C39.9176953,5.83863281 40.2023437,6.07242188 40.2659766,6.39457031 L42.2772656,16.5549609 C42.4304297,17.3278125 43.1133984,17.8887891 43.9011328,17.8887891 L53.3366016,17.8887891 C53.6649609,17.8887891 53.9494922,18.1225781 54.0132422,18.4447266 L54.8103516,22.4717578 L53.1291797,22.4717578 C52.10625,22.4714062 51.2739844,23.3036719 51.2739844,24.3268359 Z M58.1269922,30.5394141 L52.425,30.5394141 L52.425,28.1669531 L58.1269922,28.1669531 L58.1269922,30.5394141 Z" id="形状"></path>
                <path d="M29.5042969,18.9921094 C30.0215625,18.9921094 30.4408594,18.5728125 30.4408594,18.0555469 C30.4408594,17.5382813 30.0215625,17.1189844 29.5042969,17.1189844 L26.8774219,17.1189844 C26.3601562,17.1189844 25.9408594,17.5382813 25.9408594,18.0555469 C25.9408594,18.5728125 26.3601562,18.9921094 26.8774219,18.9921094 L29.5042969,18.9921094 Z" id="路径"></path>
                <path d="M32.4672656,24.8349609 L25.8632812,24.8349609 C25.3139062,23.7706641 24.6055078,22.8069141 23.7500391,21.9602344 L23.7492187,9.16582031 C23.7491016,8.64855469 23.3299219,8.22925781 22.8125391,8.22925781 C22.2952734,8.22925781 21.8759766,8.64855469 21.8760937,9.1659375 L21.8769141,22.3606641 C21.8769141,22.6222266 21.98625,22.8719531 22.1786719,23.049375 C23.1351562,23.9309766 23.8898437,24.9762891 24.4219922,26.1564844 C24.5732812,26.4922266 24.9075,26.7082031 25.2757031,26.7082031 L32.4670312,26.7082031 C32.9844141,26.7082031 33.4035938,26.2889062 33.4035938,25.7716406 C33.4038281,25.2542578 32.9845312,24.8349609 32.4672656,24.8349609 Z" id="路径"></path>
                <path d="M10.6877344,17.1191016 L8.06085937,17.1191016 C7.54359375,17.1191016 7.12429687,17.5383984 7.12429687,18.0556641 C7.12429687,18.5729297 7.54359375,18.9922266 8.06085937,18.9922266 L10.6877344,18.9922266 C11.205,18.9922266 11.6242969,18.5729297 11.6242969,18.0556641 C11.6241797,17.5383984 11.2048828,17.1191016 10.6877344,17.1191016 Z" id="路径"></path>
                <path d="M18.5129297,8.0315625 L8.96683594,8.0315625 C8.10996094,8.0315625 7.39757812,8.70152344 7.34507812,9.55664062 L7.0434375,14.4594141 C7.01601562,14.9049609 7.175625,15.3471094 7.48148437,15.6724219 C7.78722656,15.9977344 8.21871094,16.1841797 8.66519531,16.1841797 L18.5131641,16.1841797 C19.4090625,16.1841797 20.1379687,15.4552734 20.1379687,14.559375 L20.1379687,9.65648437 C20.1377344,8.76046875 19.4088281,8.0315625 18.5129297,8.0315625 Z M8.92886719,14.3110547 L9.19992187,9.9046875 L18.2644922,9.9046875 L18.2644922,14.3110547 L8.92886719,14.3110547 Z" id="形状"></path>
            </g>
        </g>
    </g>
</svg>
