<?xml version="1.0" encoding="UTF-8"?>
<svg width="61px" height="22px" viewBox="0 0 61 22" version="1.1" xmlns="http://www.w3.org/2000/svg" xmlns:xlink="http://www.w3.org/1999/xlink">
    <title>59</title>
    <g id="页面-1" stroke="none" stroke-width="1" fill="none" fill-rule="evenodd">
        <g id="乐符" transform="translate(-719.000000, -572.000000)" fill="#545458">
            <path d="M728.394713,589.84264 C728.40139,589.837901 728.40936,589.843717 728.412591,589.855348 L728.42573,589.904242 C728.432623,589.921259 728.441885,589.941936 728.453731,589.96563 C728.469455,589.997723 728.49121,590.033048 728.517273,590.070527 C728.530196,590.089266 728.545274,590.106928 728.560567,590.126745 C728.576721,590.144192 728.592661,590.164654 728.610754,590.182962 C728.646509,590.22001 728.686572,590.256412 728.729867,590.290875 C728.773161,590.325769 728.820332,590.35657 728.869227,590.387372 L728.944399,590.43045 L729.022587,590.468575 L729.076516,590.496608 C729.085387,590.501531 729.094385,590.506844 729.103791,590.512946 C729.117576,590.522855 729.132008,590.53147 729.145577,590.542671 L729.18521,590.577349 C729.23712,590.628398 729.284076,590.695601 729.322201,590.772712 C729.360756,590.849608 729.388758,590.937273 729.409651,591.024077 C729.430759,591.111096 729.443252,591.198762 729.451437,591.281904 C729.459622,591.365046 729.462422,591.44388 729.462853,591.516253 C729.463715,591.660998 729.45316,591.779034 729.444975,591.860453 L729.434244,591.946594 L729.427744,591.986674 C729.427744,591.986674 729.429467,591.965804 729.431446,591.927448 L729.434421,591.857222 C729.438083,591.775157 729.438729,591.65669 729.431836,591.516253 C729.424298,591.376247 729.407712,591.212116 729.365926,591.053155 C729.345463,590.973675 729.317462,590.89721 729.282999,590.828714 C729.248751,590.760434 729.206749,590.701847 729.160009,590.65683 L729.124469,590.624951 C729.112622,590.614828 729.100345,590.607289 729.088283,590.598243 L729.062954,590.582343 L728.931045,590.511654 L728.85458,590.46276 C728.804608,590.428943 728.757222,590.39168 728.713497,590.351616 C728.669556,590.312414 728.629708,590.26912 728.594384,590.226041 C728.576721,590.204502 728.560567,590.181455 728.545274,590.160561 C728.530627,590.137514 728.516411,590.116406 728.504133,590.094866 C728.485717,590.062396 728.469845,590.031742 728.457154,590.003361 L728.444038,589.971661 C728.696265,590.907549 728.948492,591.849898 729.200934,592.79591 C729.283645,592.982226 729.244013,593.27107 729.111545,593.439077 C729.086129,593.471386 729.058774,593.497233 729.030342,593.516404 C728.987478,593.545482 728.942245,593.558836 728.897659,593.554959 C728.822271,593.548497 728.757868,593.494218 728.716512,593.402029 C728.631862,593.21399 728.671279,592.9273 728.804393,592.759939 C728.868365,592.679597 728.944399,592.63781 729.018495,592.64298 C729.068251,592.646642 729.113268,592.671412 729.149885,592.713845 C728.895936,591.761802 728.641986,590.813637 728.388036,589.872364 C728.384805,589.860733 728.387821,589.847378 728.394713,589.84264 Z M729.108745,583.053844 C729.079882,583.027566 729.053389,582.996119 729.030126,582.960363 L729.025995,582.953202 C727.596609,582.95197 726.167222,582.949771 724.737833,582.946414 C724.7188,582.986225 724.695816,583.023852 724.669039,583.057291 C724.643407,583.089169 724.616268,583.115447 724.587836,583.135694 C724.544757,583.16628 724.499524,583.182866 724.454937,583.184158 C724.379765,583.186096 724.315577,583.143879 724.274006,583.065907 C724.254893,583.030008 724.242083,582.98892 724.235231,582.944886 C722.74585,582.941404 721.256151,582.936339 719.766451,582.929777 L719.766451,582.823373 C721.255017,582.8168 722.743582,582.811725 724.232147,582.807931 C724.243138,582.691377 724.288151,582.569911 724.361887,582.477234 C724.425859,582.396677 724.501893,582.349505 724.575774,582.345413 C724.625745,582.342613 724.670547,582.359844 724.707379,582.394307 C724.495755,581.697327 724.28413,581.015455 724.072505,580.351183 L724.036211,580.238211 L723.566128,580.287724 C722.782226,580.372938 721.998324,580.472242 721.214423,580.586872 C721.238618,580.714428 721.191787,580.883001 721.088326,581.004799 C721.062909,581.034954 721.035554,581.060371 721.007122,581.080833 C720.964259,581.112065 720.91881,581.131666 720.874224,581.138344 C720.799051,581.149544 720.734648,581.12262 720.693293,581.063386 C720.625539,580.966496 720.63713,580.805302 720.712824,580.662972 C720.397464,580.711092 720.081957,580.762408 719.766451,580.816329 L719.766451,580.709924 C720.112898,580.647659 720.459344,580.588699 720.805791,580.53293 C720.86428,580.472601 720.930492,580.432185 720.99506,580.419573 C721.045031,580.40988 721.089833,580.41785 721.126666,580.441543 C720.872716,579.773606 720.618766,579.142285 720.364816,578.552536 C720.361586,578.544997 720.364601,578.534227 720.371278,578.527981 C720.378171,578.52195 720.386141,578.523027 720.389371,578.53035 L720.40251,578.560936 C720.409188,578.570844 720.418665,578.582476 720.430512,578.595184 C720.446236,578.612846 720.46799,578.630509 720.494053,578.648386 C720.506977,578.657218 720.522054,578.664756 720.537132,578.673587 L720.587319,578.696635 C720.62329,578.710851 720.663137,578.723344 720.706647,578.733682 C720.749941,578.744021 720.796897,578.750483 720.845792,578.75673 L720.92118,578.763191 L720.999152,578.765561 L721.05324,578.768576 C721.062143,578.769366 721.071166,578.770443 721.080572,578.772023 C721.094357,578.774823 721.108788,578.776761 721.122143,578.780854 L721.161991,578.794424 C721.213901,578.816609 721.260641,578.853226 721.298766,578.901044 C721.337537,578.94843 721.365538,579.007879 721.386431,579.069051 C721.40754,579.130439 721.420033,579.194841 721.428218,579.257306 C721.436403,579.319555 721.439203,579.380081 721.439634,579.436298 C721.440372,579.532672 721.432723,579.616069 721.425369,579.679165 L721.415338,579.752723 L721.404524,579.811515 C721.404524,579.811515 721.406584,579.790555 721.408886,579.752632 L721.411202,579.709203 C721.414863,579.644585 721.415294,579.552181 721.408617,579.444914 C721.401078,579.338294 721.384277,579.215304 721.342706,579.104591 C721.322028,579.04902 721.294243,578.998617 721.259779,578.956615 C721.225316,578.914614 721.183315,578.882951 721.136789,578.86335 L721.101249,578.850642 C721.089187,578.846764 721.077125,578.845041 721.065063,578.842241 L721.039591,578.838508 L720.907825,578.829102 L720.831145,578.818548 C720.781174,578.810363 720.733787,578.799162 720.690062,578.784946 C720.646337,578.771376 720.606489,578.753499 720.571164,578.734544 C720.553502,578.725067 720.537347,578.714082 720.521839,578.704389 C720.507407,578.692758 720.493191,578.682634 720.480914,578.671218 C720.464544,578.656141 720.450184,578.641446 720.438282,578.627134 L720.420604,578.603584 C720.64149,579.120369 720.862212,579.668157 721.082913,580.243918 L721.171335,580.475268 C721.955476,580.354094 722.739617,580.249071 723.523758,580.158898 L723.993994,580.10639 L723.94553,579.954968 C723.942299,579.94506 723.945315,579.932351 723.951992,579.926966 C723.958885,579.921366 723.966854,579.924813 723.970085,579.934721 L723.983224,579.975646 C723.987676,579.984836 723.993372,579.995366 724.000184,580.006918 L724.011225,580.024971 C724.021708,580.042059 724.034871,580.059913 724.050204,580.078341 L724.072613,580.104021 L724.068354,580.098644 C725.454494,579.951275 726.840634,579.849368 728.226774,579.785734 C728.244969,579.730998 728.270549,579.678891 728.30274,579.634246 C728.355081,579.562089 728.416683,579.519871 728.476348,579.515779 C728.516626,579.512979 728.553028,579.528056 728.582322,579.558427 L728.284431,578.465921 C728.185135,578.1036 728.085838,577.743192 727.986541,577.384884 L728.855872,576.647805 L728.875043,576.718062 C729.947069,576.638561 731.018928,576.603212 732.090787,576.605178 L732.068693,576.577586 C732.03466,576.53063 732.004505,576.477643 731.979089,576.420564 C731.940748,576.334191 731.913393,576.23834 731.899177,576.138828 C731.875053,575.970821 731.891854,575.813152 731.946133,575.694901 C732.057061,575.453013 732.292703,575.45689 732.471049,575.704163 C732.556991,575.822845 732.617086,575.979652 732.640564,576.144859 C732.656503,576.256218 732.654134,576.362623 732.635179,576.455889 C733.266931,575.627052 733.898466,574.8148 734.530218,574.031627 C734.537972,574.021934 734.549388,574.025165 734.555419,574.039165 C734.56145,574.052951 734.559942,574.072121 734.552188,574.082029 L734.519448,574.122523 C734.512268,574.135159 734.504323,574.150763 734.495739,574.169208 L734.4824,574.198988 C734.463446,574.24142 734.44406,574.297854 734.424675,574.364626 C734.414982,574.398012 734.406797,574.435491 734.397319,574.473831 L734.380279,574.555553 C734.377407,574.569609 734.374631,574.583969 734.372118,574.59876 C734.356825,574.687071 734.34304,574.784429 734.33227,574.889111 C734.32107,574.993577 734.314393,575.105582 734.308146,575.221464 L734.3019,575.398734 L734.300392,575.581388 L734.297935,575.70804 C734.297281,575.728957 734.296371,575.750257 734.295007,575.772658 C734.292422,575.805829 734.290699,575.839861 734.287038,575.872386 L734.274545,575.969313 C734.253867,576.096826 734.218973,576.217878 734.173525,576.321698 C734.128507,576.42681 734.071643,576.511245 734.012841,576.57974 C733.99226,576.60394 733.971257,576.62587 733.950072,576.645845 C735.049519,576.688777 736.149027,576.768079 737.248534,576.875565 L737.099655,576.339392 L736.894385,575.595389 C737.182151,575.401103 737.469918,575.212418 737.757685,575.029548 L738.016068,575.959114 L738.304571,576.987912 C739.499393,577.12286 740.694358,577.289111 741.889324,577.476875 C741.763495,576.930052 741.63766,576.377049 741.511791,575.818752 C741.507914,575.801305 741.513729,575.784289 741.524714,575.780628 C741.535915,575.776751 741.547977,575.787951 741.551854,575.805398 L741.568009,575.87734 C741.577055,575.903402 741.589979,575.935496 741.606349,575.972544 C741.628104,576.022731 741.65912,576.079595 741.696599,576.140767 C741.715338,576.171353 741.737308,576.201508 741.759279,576.234248 L741.80724,576.297941 C741.815521,576.308822 741.824041,576.319688 741.832944,576.330314 C741.885715,576.394286 741.945164,576.459335 742.009998,576.522661 C742.074831,576.586202 742.145911,576.645866 742.219576,576.706177 L742.333735,576.79298 L742.452633,576.8744 L742.534722,576.932508 C742.548196,576.942512 742.561838,576.95309 742.576054,576.964865 C742.596731,576.983389 742.618486,577.000405 742.638518,577.020437 L742.697751,577.081609 C742.774432,577.169059 742.842065,577.275248 742.894837,577.390484 C742.934475,577.47549 742.964583,577.565673 742.987683,577.655555 C746.37284,578.22207 749.758626,578.939332 753.144413,579.599996 L753.147413,579.596128 L753.166341,579.578028 C753.297097,579.467121 753.553818,579.526698 753.753311,579.697477 L753.782466,579.723777 C754.087744,579.78263 754.393022,579.840918 754.698301,579.898489 C755.218884,579.696138 755.739466,579.521815 756.260049,579.372326 C756.269741,579.369526 756.282881,579.374265 756.289558,579.382881 C756.296235,579.391712 756.293866,579.400758 756.284388,579.403558 L756.244756,579.41519 C756.231617,579.421867 756.215893,579.431344 756.198661,579.443837 C756.174968,579.459992 756.150628,579.48347 756.125858,579.512333 C756.113581,579.526549 756.102596,579.543565 756.090318,579.560581 C756.079979,579.578889 756.067271,579.596983 756.056932,579.61766 C756.036254,579.658801 756.017299,579.70511 756.00136,579.756159 C755.985421,579.806992 755.974005,579.862779 755.963235,579.92072 L755.950743,580.010539 L755.941371,580.128376 C758.671299,580.623469 761.401209,581.044528 764.131119,581.283275 C764.157689,581.24194 764.234858,581.221498 764.347456,581.234194 C764.438352,581.244318 764.538941,581.274042 764.630699,581.317121 L764.648646,581.325791 L764.751807,581.334369 C764.573863,580.924647 764.402022,580.49986 764.237605,580.056418 C764.705441,580.206333 765.173493,580.356032 765.643052,580.501207 C765.775793,580.815535 765.911958,581.12106 766.050808,581.419624 C768.102015,581.530414 770.153371,581.523821 772.204728,581.353904 C772.336259,581.102499 772.463666,580.847396 772.586285,580.586719 C772.589947,580.578965 772.598132,580.571211 772.604593,580.569272 C772.611055,580.567549 772.613209,580.572503 772.609547,580.580257 L772.59447,580.612566 C772.590377,580.624413 772.586285,580.638629 772.582192,580.655214 C772.576377,580.677831 772.57293,580.703032 772.570992,580.730387 C772.569915,580.743957 772.570561,580.757311 772.570561,580.771958 C772.572069,580.785312 772.572069,580.800605 772.574438,580.814606 C772.578746,580.843253 772.585639,580.872116 772.595547,580.900333 C772.605455,580.928765 772.619456,580.955258 772.634533,580.982183 L772.65995,581.021169 L772.689459,581.057571 L772.708972,581.083801 C772.712027,581.0883 772.714947,581.093039 772.717675,581.09828 C772.721337,581.106681 772.726076,581.114435 772.728876,581.123481 L772.736199,581.151052 C772.741369,581.182758 772.739646,581.219702 772.73103,581.2599 L772.723276,581.290627 C772.721763,581.295988 772.720122,581.301394 772.718361,581.306839 C775.067528,581.081763 777.41699,580.6363 779.766451,579.902412 L779.766451,579.976292 C777.412036,580.693446 775.057621,581.128153 772.703207,581.348271 C772.689147,581.382186 772.670984,581.417951 772.651118,581.452819 C772.620317,581.507098 772.583915,581.560085 772.546868,581.609195 C772.50982,581.658736 772.471695,581.704615 772.435293,581.746186 C772.372891,581.817451 772.315077,581.875897 772.270534,581.919627 L772.198449,581.988043 L772.179334,582.004689 L772.24467,581.93681 C772.28861,581.8905 772.349351,581.822651 772.416339,581.740801 C772.48268,581.659167 772.555483,581.561593 772.609978,581.461866 C772.637118,581.41211 772.658227,581.362569 772.671366,581.316475 L772.566451,581.360815 C772.44602,581.371651 772.32559,581.381928 772.205159,581.391657 C772.074934,581.638378 771.940841,581.881471 771.803846,582.121217 C772.770527,582.085829 773.737235,582.032373 774.703961,581.958423 C774.809719,581.855204 774.915516,581.749088 775.021317,581.639997 C775.363817,581.701235 775.706318,581.767606 776.048819,581.841576 C777.288059,581.722262 778.527255,581.566925 779.766451,581.370969 L779.766451,581.44485 C778.58179,581.622983 777.397129,581.765816 776.212468,581.877616 C776.839443,582.017462 777.466356,582.18418 778.093269,582.3928 C777.971846,582.549492 777.850422,582.700451 777.728999,582.846052 L779.766451,582.839527 L779.766451,582.913407 C777.761267,582.905655 775.756084,582.900507 773.7509,582.89743 C773.436149,583.160315 773.121487,583.404507 772.806823,583.636017 C774.08504,583.696601 775.363347,583.78865 776.641654,583.917432 C776.945824,583.621952 777.250006,583.299233 777.554137,582.943993 L777.450125,582.906024 L779.766451,582.913407 L777.677576,582.907394 C777.363008,583.280699 777.048439,583.618399 776.733871,583.927017 C777.744709,584.030021 778.75558,584.15631 779.766451,584.3083 L779.766451,584.382181 C778.738764,584.219682 777.711077,584.085118 776.68339,583.975561 C776.368719,584.28192 776.05401,584.558825 775.739301,584.8135 C776.699172,584.983129 777.658978,585.19369 778.618784,585.449359 C778.653472,585.44949 778.689386,585.453717 778.724805,585.462598 C778.774776,585.475091 778.819578,585.495984 778.856411,585.522908 L778.836085,585.508015 L778.851591,585.51226 C778.599128,585.042413 778.346845,584.606094 778.094561,584.200172 C778.09133,584.195003 778.094346,584.189834 778.101023,584.188757 C778.107916,584.187464 778.115885,584.19048 778.119116,584.195649 L778.132255,584.216758 L778.14912,584.23434 L778.160257,584.244759 C778.17598,584.259621 778.19752,584.276207 778.223798,584.294515 L778.266877,584.322301 L778.317064,584.351379 C778.352819,584.370765 778.393098,584.390581 778.436392,584.410182 C778.479686,584.429998 778.526858,584.448953 778.575537,584.468123 L778.650925,584.49634 L778.728897,584.523048 C778.757545,584.533172 778.781884,584.541357 778.810316,584.553204 L778.851887,584.571943 L778.891735,584.592836 C778.94343,584.622561 778.990601,584.659178 779.028511,584.699456 C779.067066,584.73952 779.095283,584.78346 779.116176,584.825893 C779.137069,584.868325 779.149778,584.910112 779.157963,584.948883 C779.166148,584.987869 779.168948,585.024055 779.169379,585.05658 C779.17024,585.12206 779.159686,585.173108 779.151285,585.208217 C779.14267,585.242896 779.134269,585.26142 779.134269,585.26142 L779.140947,585.204556 C779.144608,585.16837 779.145039,585.115167 779.138362,585.050764 C779.130823,584.986361 779.114022,584.909681 779.072451,584.831493 C779.051989,584.792507 779.023772,584.753951 778.989524,584.718196 C778.955061,584.682656 778.913059,584.650562 778.866534,584.624068 L778.830994,584.604898 L778.794808,584.588313 L778.75601,584.572616 L778.63757,584.529295 L778.56089,584.498493 C778.510918,584.4776 778.463532,584.455845 778.419807,584.433875 C778.375866,584.411905 778.336234,584.389289 778.300909,584.367318 L778.251584,584.334794 C778.236937,584.323593 778.222936,584.31347 778.210659,584.303131 C778.194289,584.289489 778.179929,584.276709 778.168027,584.264982 L778.150348,584.246267 C778.371235,584.604548 778.591957,584.986082 778.812658,585.394187 L778.900136,585.557156 L778.881096,585.520359 C779.176214,585.60151 779.471333,585.686965 779.766451,585.776858 L779.766451,585.850738 C779.487198,585.76351 779.207945,585.680355 778.928691,585.60116 C778.981043,585.695896 778.936923,585.795705 778.818071,585.830491 C778.792654,585.83803 778.765299,585.842338 778.736867,585.843415 C778.693788,585.844923 778.648555,585.839107 778.603969,585.826399 C778.528796,585.804644 778.464393,585.765658 778.422822,585.717409 C778.345139,585.626483 778.371942,585.526667 778.479924,585.477892 C777.549791,585.227926 776.619625,585.021246 775.689437,584.853546 L775.661684,584.875864 C775.609558,584.967622 775.469121,585.020609 775.264927,585.02664 C775.061811,585.032671 774.819492,584.992823 774.582559,584.921528 C774.488,584.893096 774.399904,584.861217 774.319993,584.827185 C774.141104,584.751025 774.003379,584.665427 773.926179,584.581496 C772.409898,584.385385 770.893381,584.28585 769.376864,584.264019 L769.379926,584.267375 L769.396935,584.276055 L769.407928,584.281161 C769.423867,584.288269 769.445406,584.296238 769.471469,584.304423 L769.514763,584.317132 L769.56495,584.329624 L769.641886,584.346026 L769.684063,584.353964 C769.727357,584.361934 769.774529,584.369042 769.823423,584.376365 L769.898596,584.386704 L769.976784,584.396181 C770.005216,584.399843 770.029771,584.402643 770.057987,584.407166 L770.099774,584.41449 L770.139406,584.423106 C770.191316,584.435598 770.238272,584.451753 770.276397,584.470061 C770.314953,584.48837 770.342954,584.509048 770.363847,584.52951 C770.384956,584.549757 770.397664,584.57022 770.405634,584.58939 C770.413819,584.60856 770.416834,584.626653 770.41705,584.643238 C770.417911,584.676194 770.407572,584.702903 770.399172,584.721211 C770.390341,584.73952 770.38194,584.749428 770.38194,584.749428 L770.386393,584.732617 C770.387191,584.728992 770.388025,584.724819 770.388833,584.720134 C770.392279,584.70161 770.392925,584.674471 770.386033,584.642377 C770.378494,584.610068 770.361909,584.572158 770.320338,584.534895 C770.29966,584.516371 770.271658,584.498278 770.237411,584.482124 C770.202948,584.465754 770.16073,584.451753 770.114421,584.440768 L770.078665,584.433014 L770.042694,584.426336 L770.003897,584.420521 L769.885241,584.405012 L769.808776,584.393381 C769.758805,584.385412 769.711418,584.376796 769.667693,584.367749 C769.623753,584.358918 769.58412,584.34901 769.54858,584.339317 L769.523137,584.331994 L769.49947,584.32467 C769.484823,584.319501 769.470823,584.314978 769.45833,584.310024 C769.433775,584.300331 769.413743,584.2915 769.399743,584.28353 C769.650462,584.492893 769.902688,584.70678 770.15513,584.927774 C770.237842,584.972145 770.198209,585.036764 770.065957,585.071873 C770.040325,585.078766 770.01297,585.08415 769.984753,585.088027 C769.941675,585.093843 769.896442,585.096212 769.851855,585.09492 C769.776467,585.092551 769.71228,585.079843 769.670709,585.058949 C769.586059,585.016301 769.625476,584.951037 769.758589,584.913774 C769.822777,584.895896 769.898596,584.88728 769.972691,584.889649 C770.022447,584.891157 770.067465,584.897619 770.104082,584.907958 C769.934782,584.760197 769.765482,584.6155 769.596246,584.472909 L769.34611,584.263498 L768.986034,584.260101 C767.761614,584.253143 766.537194,584.295797 765.312773,584.378275 L765.23488,584.50474 C765.187924,584.697302 764.774152,584.976669 764.308039,585.128306 C764.218435,585.157169 764.131846,585.179355 764.050858,585.194217 C763.928299,585.216833 763.818232,585.222649 763.729059,585.210156 C763.578283,585.189263 763.504403,585.118613 763.52228,585.015009 C763.553007,584.832672 763.862396,584.604755 764.248659,584.460012 C762.457533,584.612948 760.666391,584.845307 758.875248,585.126183 C758.831255,585.287731 758.787184,585.450994 758.743113,585.615743 C758.748929,585.6739 758.707573,585.739164 758.62637,585.801198 C758.545812,585.863016 758.435315,585.914495 758.315125,585.945512 C758.267308,585.958005 758.220782,585.96619 758.176411,585.970713 C757.990526,585.989452 757.848366,585.937112 757.837381,585.833722 C757.823595,585.705563 758.015512,585.553494 758.265154,585.497492 C758.385344,585.470137 758.500795,585.467768 758.59083,585.489307 C758.651355,585.503738 758.695296,585.528078 758.720066,585.559741 L758.835207,585.132363 C758.278313,585.220023 757.721449,585.312239 757.164585,585.408201 L757.043007,585.914495 C757.054423,586.04804 756.863368,586.210878 756.615018,586.281096 C756.567416,586.294451 756.520245,586.303497 756.475228,586.30802 C756.407163,586.314913 756.343622,586.311467 756.289558,586.297035 C756.198015,586.272911 756.143951,586.220355 756.137059,586.150352 C756.123273,586.006253 756.31519,585.837815 756.565047,585.777289 C756.685022,585.74778 756.800688,585.746057 756.890723,585.771043 C756.951249,585.787843 756.994974,585.815629 757.01996,585.851385 C757.05485,585.704893 757.089741,585.559416 757.124632,585.414943 C752.981135,586.130453 748.837528,587.052064 744.69392,587.800581 C744.668655,587.831601 744.639471,587.859839 744.607006,587.884275 C744.507278,587.959233 744.388381,587.989388 744.272068,587.967417 C744.225758,587.958802 744.182464,587.942216 744.143262,587.918954 C744.13488,587.914008 744.126682,587.908759 744.118676,587.903222 C741.800024,588.312703 739.481356,588.662471 737.162678,588.886066 L737.178705,588.9438 C737.211445,589.011218 737.221138,589.101037 737.206922,589.199042 C737.19249,589.296615 737.155873,589.391389 737.103748,589.465484 C737.082855,589.495209 737.060669,589.519764 737.038053,589.539149 C736.943064,589.620784 736.838813,589.61066 736.784534,589.501671 C736.7169,589.366834 736.750501,589.130977 736.85906,588.977401 C736.878081,588.950442 736.898392,588.927441 736.919418,588.908764 C736.659048,588.933166 736.398616,588.955659 736.138185,588.976437 L736.384116,589.864825 C736.450026,590.000954 736.41621,590.235519 736.308297,590.390387 C736.287619,590.420112 736.265434,590.445313 736.242386,590.465129 C736.207277,590.495284 736.17066,590.513593 736.134689,590.517901 C736.073733,590.525224 736.022038,590.492484 735.989083,590.425712 C735.921664,590.288936 735.955051,590.05071 736.063825,589.895842 C736.11595,589.821316 736.177553,589.776729 736.237432,589.769836 C736.277711,589.765313 736.313897,589.778452 736.343406,589.8071 L736.114239,588.978611 C732.835794,589.238566 729.557512,589.226531 726.27923,588.754418 C726.162451,589.078599 726.045558,589.399515 725.928665,589.716634 C725.903033,589.858363 725.834107,589.963045 725.733948,590.010216 C725.634221,590.057172 725.515323,590.041879 725.39901,589.968214 C725.352701,589.938705 725.309406,589.901658 725.270205,589.85901 C725.105213,589.679371 725.011516,589.402805 725.052441,589.171902 C725.103059,588.886505 725.341285,588.769976 725.582957,588.91386 C725.69927,588.983432 725.799428,589.103191 725.864908,589.252244 C725.908848,589.352618 725.933403,589.458161 725.938142,589.560042 L726.135597,589.0199 C726.168509,588.929295 726.201423,588.838405 726.234338,588.747235 C725.607273,588.656816 724.980112,588.548825 724.35295,588.422649 L724.340778,588.45227 C724.288222,588.728621 724.051719,588.827056 723.811124,588.673695 C723.76503,588.644402 723.721305,588.607785 723.681457,588.565567 C723.620931,588.501164 723.568806,588.423838 723.529388,588.338111 C723.513944,588.304522 723.500842,588.270585 723.490137,588.236629 C722.249007,587.954219 721.007729,587.597343 719.766451,587.156674 L719.766451,587.050269 C720.997535,587.476474 722.228619,587.822303 723.459703,588.097456 C723.451962,588.032313 723.453472,587.969557 723.464555,587.910769 C723.515388,587.643465 723.753398,587.538352 723.995286,587.680297 C724.111384,587.749008 724.211542,587.865105 724.277022,588.008558 C724.313639,588.089151 724.336794,588.172886 724.346237,588.254651 L724.348642,588.28399 L724.35769,588.285765 C724.67225,587.479639 724.986992,586.640515 725.301673,585.773756 C724.271514,585.68383 723.241281,585.569945 722.211047,585.429174 C722.206097,585.44754 722.201306,585.468237 722.196744,585.490599 L722.185328,585.561033 C722.182959,585.58645 722.178867,585.612512 722.176928,585.640514 C722.172836,585.696301 722.170682,585.757473 722.171112,585.822737 C722.171328,585.887786 722.175205,585.957143 722.179944,586.028654 L722.189636,586.138074 L722.203206,586.25051 C722.207729,586.29165 722.212253,586.326975 722.214622,586.368546 C722.215484,586.389224 722.216776,586.410333 722.216776,586.43058 L722.215484,586.491321 C722.210314,586.571663 722.194375,586.648774 722.169389,586.715762 C722.144619,586.78318 722.10951,586.838536 722.071816,586.883769 C722.033906,586.929002 721.99212,586.962819 721.95098,586.989312 C721.909624,587.016021 721.868484,587.034545 721.829713,587.048115 C721.751955,587.075685 721.683891,587.082147 721.636289,587.085378 C721.588686,587.087963 721.560901,587.084301 721.560901,587.084301 L721.599128,587.078288 C721.608925,587.076455 721.620442,587.074116 721.633488,587.071162 C721.679152,587.061469 721.743555,587.041653 721.816143,587.006759 C721.8883,586.971219 721.969503,586.918017 722.037137,586.830782 C722.07117,586.787703 722.100032,586.734932 722.122218,586.674837 C722.143973,586.614742 722.157543,586.546246 722.16142,586.47452 L722.163143,586.420241 C722.163574,586.402363 722.162066,586.38427 722.161851,586.366392 L722.159322,586.329137 L722.13988,586.138505 L722.132557,586.0265 C722.129111,585.952835 722.128249,585.881971 722.130834,585.815198 C722.132772,585.748211 722.138588,585.685962 722.146342,585.629313 L722.160127,585.549187 C722.166374,585.524416 722.171543,585.500723 722.17779,585.479399 C722.183435,585.460453 722.189123,585.442825 722.194853,585.426685 L722.179378,585.424838 C721.79419,585.966892 721.40905,586.46793 721.023707,586.920171 C720.959951,587.055223 720.786774,587.043592 720.635998,586.899493 C720.60692,586.871922 720.580426,586.841121 720.557164,586.808381 C720.521839,586.758625 720.494053,586.70413 720.475529,586.648343 C720.444512,586.554216 720.444297,586.467843 720.475098,586.403225 C720.537993,586.27205 720.712463,586.273127 720.8641,586.412056 C720.936904,586.479043 720.993983,586.568217 721.024354,586.663421 C721.045031,586.727393 721.051709,586.788565 721.045247,586.842413 C721.401557,586.42139 721.757696,585.95867 722.113969,585.460758 L722.142977,585.419834 C721.350802,585.310679 720.558626,585.185591 719.766451,585.043225 L719.766451,584.936821 C720.585769,585.076837 721.405087,585.19928 722.224405,585.305562 L722.247577,585.272405 C722.252531,585.265297 722.261147,585.265728 722.266532,585.273482 C722.272132,585.281236 722.272563,585.293083 722.267609,585.300191 L722.260919,585.309754 C723.291335,585.443348 724.32164,585.550869 725.351945,585.635674 C725.439353,585.39348 725.526883,585.149442 725.614405,584.903435 C725.89806,585.170669 726.181784,585.442575 726.465539,585.717949 C728.667466,585.865243 730.869396,585.913301 733.071329,585.889558 C733.385904,584.907328 733.700745,583.927268 734.015586,582.953235 C732.708925,582.954573 731.402054,582.954644 730.095182,582.953947 L730.05951,582.965189 C730.042791,582.969871 730.033648,582.971348 730.033648,582.971348 L730.047839,582.964244 C730.053009,582.961555 730.059524,582.958079 730.067271,582.953779 L729.491665,582.95357 L729.49667,582.939039 C729.432913,583.138925 729.259521,583.189974 729.108745,583.053844 Z M745.664376,585.278867 C745.231801,585.319834 744.799126,585.359914 744.366451,585.398983 L743.782441,585.450885 C743.592889,585.946259 743.403332,586.450733 743.213836,586.963896 C743.16128,587.237662 742.924777,587.416654 742.684397,587.357206 C742.638087,587.345574 742.594362,587.325973 742.554514,587.299049 C742.493988,587.25834 742.441863,587.200829 742.402446,587.13018 C742.335889,587.010636 742.312842,586.867399 742.337828,586.728255 C742.388445,586.443719 742.626456,586.271619 742.868344,586.339253 C742.984656,586.371562 743.084599,586.452765 743.150079,586.568001 C743.194235,586.645759 743.21879,586.732778 743.223313,586.821951 C743.394621,586.359001 743.565964,585.903208 743.737313,585.454834 C743.006353,585.519124 742.275391,585.580224 741.544429,585.63708 C741.510049,585.685952 741.475448,585.729926 741.441788,585.769966 C741.335383,585.897479 741.237378,585.982344 741.168883,586.039424 L741.127027,586.07229 C741.083318,586.105342 741.058171,586.120197 741.058171,586.120197 L741.091654,586.088331 L741.160914,586.0181 C741.225316,585.952189 741.313843,585.849231 741.411417,585.71504 C741.427624,585.692394 741.444086,585.668727 741.460628,585.644028 C741.134797,585.668778 740.808943,585.693127 740.48309,585.716531 C740.399547,585.955281 740.31584,586.195907 740.232134,586.437903 C740.1757,586.754748 739.921966,586.947957 739.663924,586.863091 C739.614383,586.846721 739.567642,586.821089 739.524564,586.787057 C739.45973,586.735793 739.403943,586.66579 739.361726,586.580925 C739.290215,586.437903 739.265444,586.270111 739.292153,586.110073 C739.314428,585.975626 739.370585,585.864867 739.447,585.787397 C738.04458,585.879313 736.641993,585.951647 735.239405,585.997202 C735.191542,586.100212 735.141187,586.196066 735.090458,586.285619 C734.988361,586.465904 734.882387,586.618188 734.781152,586.748932 C734.578897,587.011929 734.392796,587.182306 734.262698,587.296249 L734.205955,587.343489 C734.109071,587.421867 734.052473,587.455641 734.052473,587.455641 L734.090877,587.417542 C734.119394,587.388605 734.162933,587.343288 734.218584,587.281945 L734.247405,587.249939 C734.369964,587.116395 734.538187,586.905955 734.723426,586.627881 C734.839122,586.451279 734.961682,586.243528 735.073342,586.002462 C734.419735,586.022706 733.766412,586.037059 733.113089,586.044786 L732.483757,588.008989 C732.376491,588.669387 731.894439,589.025003 731.404632,588.791516 C731.310289,588.746714 731.221332,588.683173 731.139913,588.603692 C731.016492,588.483287 730.910733,588.326264 730.830176,588.142533 C730.694693,587.83215 730.647521,587.48278 730.698139,587.158397 C730.801528,586.49606 731.286596,586.146475 731.779418,586.37587 C732.016352,586.486367 732.22033,586.712962 732.353874,587.01516 C732.443694,587.218492 732.493665,587.440348 732.503143,587.661773 L733.021016,586.045406 C730.889951,586.069 728.758819,586.021283 726.627686,585.876568 L726.820226,586.063868 L727.121733,586.360361 C726.857476,587.127522 726.593314,587.880428 726.329184,588.61567 C729.577281,589.067157 732.825375,589.079223 736.073468,588.829987 C735.964793,588.435875 735.856134,588.039355 735.74741,587.641095 C736.037331,587.402223 736.327036,587.164212 736.616957,586.927494 C736.757502,587.437009 736.898046,587.942889 737.038682,588.444953 L737.121626,588.740683 L737.613802,588.692908 C739.746452,588.477945 741.8791,588.162471 744.011749,587.796905 C743.932868,587.686921 743.897358,587.538148 743.925498,587.38693 C743.976331,587.114026 744.214127,586.940633 744.456014,586.994051 C744.572327,587.019468 744.672486,587.092055 744.737965,587.198029 C744.782121,587.26954 744.806461,587.350528 744.811199,587.434963 C745.073734,586.751302 745.336427,586.085839 745.599007,585.439118 L745.664376,585.278867 Z M736.705484,587.336097 C736.428918,587.563553 736.152352,587.792302 735.875785,588.021481 L736.097322,588.828379 C736.430833,588.802429 736.764288,588.773961 737.097742,588.742937 L736.836205,587.80725 C736.792619,587.65055 736.749042,587.49349 736.705484,587.336097 Z M725.778427,585.925362 L725.651837,585.803431 L725.346774,585.777697 L725.284088,585.950246 C725.014595,586.690824 724.74501,587.410881 724.475517,588.10651 L724.385365,588.338111 L724.402717,588.294563 C725.029872,588.416671 725.657028,588.52108 726.284183,588.609073 C726.47521,588.078221 726.666262,587.538151 726.857229,586.989959 C726.497629,586.630519 726.138028,586.274715 725.778427,585.925362 Z M757.440624,584.134046 C756.494793,584.215628 755.54893,584.302786 754.60306,584.393326 L753.65744,584.484708 L753.650763,584.491066 C753.614385,584.523264 753.577816,584.552557 753.542204,584.579266 C753.4358,584.660039 753.33758,584.715826 753.269085,584.753736 L753.203833,584.787516 L753.158587,584.808446 C753.158587,584.808446 753.180275,584.795361 753.218107,584.770462 L753.261115,584.741674 C753.325733,584.69881 753.41426,584.632899 753.511834,584.548896 C753.531808,584.531418 753.55217,584.513064 753.57259,584.493834 C753.24512,584.52529 752.917485,584.557712 752.589849,584.590348 C752.504088,584.74309 752.418319,584.897986 752.33255,585.055072 C752.276117,585.251296 752.022383,585.390872 751.76434,585.36007 C751.714584,585.353824 751.667844,585.341762 751.62498,585.3241 C751.560147,585.297391 751.504144,585.258189 751.461927,585.208217 C751.390416,585.124214 751.365861,585.020178 751.392355,584.917866 C751.416688,584.824189 751.481089,584.746273 751.568012,584.692516 L748.867282,584.965211 C747.967017,585.055641 747.066734,585.144953 746.166451,585.231202 L745.709419,585.27445 C745.406855,586.01481 745.104226,586.780274 744.801722,587.5698 C744.795161,587.602441 744.785762,587.634046 744.773729,587.664251 C748.895838,586.935986 753.018259,586.042935 757.14068,585.349405 C757.223497,585.006577 757.30641,584.669495 757.389346,584.337955 L757.440624,584.134046 Z M740.434841,585.719531 L739.980633,585.751858 C740.054367,585.804473 740.1173,585.879679 740.163854,585.971359 C740.211025,586.064625 740.237519,586.167799 740.242473,586.272265 C740.306595,586.087203 740.370718,585.902952 740.434841,585.719531 Z M735.223911,582.952838 L734.107655,582.953159 C733.792804,583.926673 733.477945,584.906465 733.1631,585.888397 C733.822705,585.880818 734.482108,585.866706 735.14151,585.846926 C735.181674,585.751174 735.219523,585.650677 735.254373,585.545309 C735.328253,585.323884 735.384256,585.079627 735.41678,584.824816 C735.449305,584.569789 735.454044,584.302916 735.430996,584.041212 L735.409888,583.846064 C735.401918,583.781662 735.389641,583.720705 735.380163,583.65781 C735.369501,583.595992 735.355555,583.530027 735.340935,583.464655 L735.223911,582.952838 Z M741.429248,582.944261 C739.415113,582.948152 737.400967,582.95122 735.386815,582.952931 L735.440689,583.172742 L735.487322,583.369155 C735.502184,583.433208 735.516292,583.49788 735.529432,583.569283 L735.554433,583.712432 C735.558414,583.736333 735.5621,583.760266 735.565187,583.784246 L735.590173,584.000717 C735.614512,584.292792 735.606758,584.593913 735.568633,584.878449 C735.531801,585.164277 735.460075,585.428566 735.376286,585.663992 C735.354581,585.725414 735.331743,585.78473 735.30804,585.842041 C737.033487,585.787574 738.759178,585.694934 740.48487,585.577108 C740.799678,584.678224 741.114463,583.800044 741.429248,582.944261 Z M741.477642,582.943947 C741.162825,583.798658 740.848008,584.676008 740.533192,585.573533 C740.871795,585.550591 741.210471,585.52641 741.549148,585.501363 C741.600608,585.411601 741.649763,585.311053 741.690999,585.199602 C741.72977,585.095136 741.759279,584.980761 741.77651,584.862079 C741.793526,584.743181 741.796111,584.61933 741.784049,584.498493 L741.772849,584.408459 L741.757125,584.321655 L741.744034,584.262916 L741.66709,583.967547 L741.628104,583.7892 C741.604195,583.670949 741.58524,583.554421 741.571886,583.4422 C741.557885,583.330195 741.550992,583.222283 741.548192,583.122555 C741.5469,583.072584 741.547977,583.024551 741.548408,582.979318 L741.550535,582.944163 L741.477642,582.943947 Z M753.536022,582.916012 L750.860439,582.923022 C750.844669,582.945781 750.825509,582.966965 750.803467,582.98578 C750.782789,583.003227 750.760819,583.017658 750.738418,583.028859 C750.64386,583.075815 750.539824,583.065907 750.484253,582.995042 C750.467923,582.974258 750.457238,582.950056 750.451877,582.924019 L749.960367,582.92522 L750.08685,583.211513 C750.154053,583.300471 750.122606,583.448231 750.015986,583.545805 C749.995308,583.56476 749.973337,583.580483 749.950506,583.592976 C749.915827,583.611931 749.87921,583.623131 749.843239,583.625716 C749.782498,583.629809 749.730373,583.608269 749.696771,583.564544 C749.627845,583.475371 749.659293,583.320502 749.766559,583.223144 C749.818038,583.176188 749.879426,583.149264 749.939305,583.146679 C749.979369,583.144956 750.01577,583.154434 750.045495,583.173388 L749.936255,582.925196 L748.039414,582.929883 C748.044472,582.98994 748.040929,583.051345 748.029835,583.109632 C748.017558,583.176619 747.993218,583.238653 747.965217,583.294009 C747.937,583.349581 747.903184,583.397829 747.868936,583.440262 C747.834688,583.482694 747.798933,583.518665 747.7649,583.549897 C747.697051,583.612146 747.634372,583.653287 747.590647,583.680857 L747.55733,583.700318 C747.533514,583.713584 747.519997,583.719628 747.519997,583.719628 L747.568964,583.682937 L747.585477,583.669872 C747.626833,583.637778 747.683266,583.587376 747.745515,583.52125 C747.807333,583.454908 747.874536,583.370474 747.924077,583.266008 C747.949063,583.213882 747.967802,583.156587 747.978787,583.096708 C747.987026,583.051798 747.989934,583.005313 747.987601,582.958889 L747.985033,582.929993 L747.410676,582.931409 C747.271112,583.236724 747.131697,583.548173 746.992281,583.865234 C746.956311,584.025272 746.794334,584.1194 746.629342,584.072444 C746.597679,584.063397 746.567739,584.049612 746.540384,584.031734 C746.498813,584.004595 746.463273,583.968193 746.436349,583.924252 C746.390685,583.850372 746.374746,583.764215 746.391762,583.683011 C746.426656,583.516727 746.58971,583.425615 746.755563,583.477309 C746.835044,583.50208 746.903754,583.555282 746.948556,583.626793 C746.972681,583.665392 746.988396,583.707023 746.995371,583.749371 L746.998959,583.781015 L747.125826,583.494676 C747.210412,583.304671 747.295014,583.11673 747.379626,582.930863 C745.449289,582.936144 743.518919,582.940557 741.588549,582.944248 L741.588902,582.979318 L741.593497,583.069784 C741.594311,583.085292 741.595292,583.101016 741.596656,583.116955 C741.60441,583.212375 741.616472,583.315118 741.633488,583.421953 C741.650505,583.529004 741.673983,583.639717 741.698753,583.753014 L741.740755,583.924037 L741.789003,584.095706 L741.821185,584.215561 C741.826218,584.235521 741.831077,584.256031 741.835744,584.27793 C741.84199,584.310885 741.849744,584.343625 741.854698,584.377011 L741.867837,584.476739 C741.880546,584.611575 741.876453,584.751151 741.856422,584.883834 C741.837036,585.016947 741.799127,585.140799 741.755186,585.251942 C741.719891,585.341392 741.678759,585.421946 741.636143,585.494723 C742.353226,585.441566 743.070284,585.384382 743.787341,585.324304 C744.020655,584.715588 744.254092,584.120552 744.487462,583.539989 C744.989977,583.90939 745.492276,584.257898 745.994791,584.583574 C745.916384,584.771352 745.837968,584.960839 745.759547,585.152016 C748.036801,584.947172 750.314077,584.721722 752.591361,584.506074 C752.906149,583.947064 753.221086,583.417177 753.536022,582.916012 Z M757.428778,584.336302 C757.346011,584.666261 757.263244,585.001752 757.180477,585.342833 C757.737388,585.249198 758.294253,585.159351 758.851119,585.074064 L758.98301,584.59351 C759.004997,584.514157 759.026985,584.435171 759.048973,584.356549 C758.50898,584.353964 757.968987,584.347718 757.428778,584.336302 Z M744.291884,584.141585 C744.138789,584.528361 743.985655,584.921317 743.832515,585.320235 L744.773507,585.239911 L745.714347,585.156523 L745.730287,585.117537 C745.250819,584.812323 744.771352,584.486647 744.291884,584.141585 Z M765.73232,583.623103 L765.708571,583.624031 C763.305515,583.697335 760.902458,583.850346 758.499402,584.045611 C758.722972,584.053124 758.946589,584.059243 759.17024,584.06469 C759.077232,584.392681 758.984224,584.726923 758.891215,585.067655 C760.728658,584.78704 762.566103,584.556284 764.40355,584.407648 L764.452137,584.393812 C764.680455,584.329624 764.888095,584.305716 765.03564,584.324886 C765.078848,584.330485 765.115304,584.339643 765.144885,584.352078 L765.270994,584.343705 L765.225403,584.417074 C765.391914,584.145246 765.561086,583.881172 765.73232,583.623103 Z M752.541264,584.595174 L752.057574,584.643443 C752.141152,584.671455 752.212606,584.71694 752.264055,584.77549 C752.311442,584.829339 752.337935,584.890296 752.342674,584.953621 C752.408871,584.83284 752.475067,584.713359 752.541264,584.595174 Z M767.150405,583.589913 L766.984282,583.593161 L766.835044,583.687319 L766.736257,583.746879 L766.656496,583.792269 C766.674602,583.780245 766.732438,583.741794 766.817381,583.68258 L766.898197,583.625983 C766.912605,583.615701 766.927452,583.60501 766.942696,583.593932 C766.561215,583.60071 766.1796,583.610014 765.797986,583.62134 C765.642247,583.855166 765.488361,584.093996 765.336614,584.339006 C768.187692,584.153341 771.038462,584.178138 773.889234,584.534237 C773.851938,584.47691 773.845515,584.421309 773.876281,584.371196 C773.97967,584.20448 774.464522,584.147616 774.95756,584.27233 C775.194494,584.332855 775.398256,584.428921 775.531801,584.543295 C775.62162,584.620191 775.671592,584.698595 775.681069,584.76989 C775.984602,584.524572 776.288136,584.258589 776.591644,583.966253 C775.313156,583.8314 774.034652,583.735518 772.756148,583.672562 C772.646009,583.753755 772.535807,583.832848 772.425601,583.910683 C772.31855,584.067705 771.836713,584.116384 771.346476,584.039273 C771.252348,584.024626 771.163391,584.006102 771.081972,583.984778 C770.958551,583.952254 770.852577,583.913052 770.772235,583.868896 C770.636536,583.794154 770.58958,583.714243 770.640198,583.641224 C770.650641,583.626256 770.664979,583.612036 770.682826,583.598637 C769.50563,583.571725 768.328018,583.570349 767.150405,583.589913 Z M753.651847,582.91587 L753.584572,582.915821 C753.269672,583.415604 752.954771,583.943941 752.639871,584.501557 L753.658885,584.405818 C753.706945,584.354344 753.75259,584.296906 753.7912,584.23442 C753.830186,584.172171 753.859695,584.104753 753.876927,584.035396 C753.893728,583.966039 753.896313,583.894313 753.88425,583.824956 L753.87305,583.773046 L753.857542,583.72329 L753.844299,583.689545 L753.767507,583.520173 L753.728305,583.417214 C753.704612,583.348935 753.685442,583.281516 753.672303,583.216252 C753.658086,583.150987 753.651194,583.088092 753.648609,583.030151 C753.647101,583.001073 753.648394,582.973072 753.648825,582.946578 L753.651847,582.91587 Z M766.230933,582.894518 L764.241051,582.896607 L764.296407,582.948517 C764.373605,582.990734 764.344227,583.058094 764.232266,583.106641 L764.207019,583.11674 C764.181602,583.126001 764.154247,583.133971 764.125815,583.140218 C764.082952,583.149695 764.037503,583.155295 763.993132,583.156587 C763.917744,583.158526 763.853341,583.147541 763.811986,583.125355 C763.727336,583.079907 763.766753,583.001288 763.899867,582.952609 C763.963839,582.929131 764.039873,582.915992 764.113968,582.914915 C764.163724,582.914269 764.208742,582.919438 764.245359,582.929131 L764.21071,582.896832 L762.623594,582.898247 C759.645256,582.902351 756.666917,582.908849 753.688579,582.915995 L753.689319,582.946578 C753.692334,582.971995 753.692765,582.998919 753.696857,583.026489 C753.704612,583.082061 753.716889,583.141725 753.733905,583.203759 C753.750706,583.265792 753.773969,583.329764 753.79917,583.395029 L753.841172,583.493464 L753.88942,583.591684 L753.921601,583.660291 C753.926635,583.671715 753.931494,583.683442 753.93616,583.695935 C753.942407,583.714674 753.949946,583.733413 753.9549,583.752583 L753.968039,583.809663 C753.980962,583.886989 753.97687,583.967547 753.956623,584.044873 C753.937237,584.122631 753.899543,584.195649 753.855603,584.261991 C753.822871,584.311329 753.785285,584.356643 753.746269,584.398283 C754.495716,584.328104 755.245096,584.260136 755.994475,584.194869 L757.456348,584.071151 L757.472287,584.008256 C757.643376,584.015678 757.814444,584.022509 757.985505,584.02881 C760.576069,583.82258 763.166636,583.660123 765.757206,583.586048 C765.913454,583.350971 766.071574,583.120944 766.230933,582.894518 Z M772.278648,583.650569 L772.295718,583.660395 C772.385753,583.714028 772.435724,583.771323 772.445202,583.826464 C772.518263,583.774439 772.591323,583.72185 772.664381,583.668625 C772.535792,583.661926 772.40722,583.656085 772.278648,583.650569 Z M767.809444,582.893863 L767.787838,582.924994 L767.762316,582.958425 C767.700498,583.036613 767.621017,583.113724 767.53809,583.186312 C767.455379,583.259115 767.366852,583.327395 767.281125,583.390075 C767.196812,583.451848 767.11465,583.507901 767.039432,583.5573 C768.273037,583.535998 769.506256,583.536898 770.739475,583.564307 C770.930086,583.469586 771.32325,583.431273 771.721477,583.485925 C771.905134,583.511303 772.068991,583.554153 772.19549,583.609358 C772.368211,583.616144 772.54138,583.623586 772.714549,583.631602 C773.029169,583.401488 773.343769,583.158877 773.658368,582.898337 C771.708812,582.89436 769.759128,582.893381 767.809444,582.893863 Z M767.690015,582.894096 L766.296079,582.894522 C766.136834,583.120443 765.978847,583.349856 765.822556,583.584093 C766.212384,583.573276 766.602086,583.564366 766.991788,583.557616 C767.061536,583.50628 767.138235,583.447504 767.218015,583.383613 C767.369652,583.260838 767.532059,583.11717 767.638249,582.973287 C767.658155,582.946665 767.675481,582.920191 767.690015,582.894096 Z M760.752369,582.901596 L761.187649,582.900941 L761.164575,582.906515 C761.064848,582.9287 760.946166,582.932577 760.829853,582.915992 C760.802936,582.912111 760.777037,582.907284 760.752369,582.901596 Z M766.801973,582.192161 L766.684688,582.352244 C766.563116,582.5193 766.442024,582.687766 766.321612,582.858212 L767.707778,582.859213 C767.722891,582.826949 767.733284,582.795812 767.738838,582.765862 C767.750469,582.700598 767.735607,582.642011 767.694682,582.593547 L767.660219,582.558868 C767.647941,582.547668 767.632002,582.538621 767.618217,582.528283 L767.585381,582.509168 L767.400023,582.419724 L767.301588,582.361352 C767.239985,582.321289 767.187213,582.279071 767.145427,582.235346 C767.133021,582.222878 767.121715,582.210193 767.111417,582.197386 L766.801973,582.192161 Z M774.653939,582.007215 L774.443551,582.022016 C773.556401,582.083396 772.669251,582.128564 771.782101,582.159312 C771.729106,582.251606 771.675616,582.343635 771.621749,582.435232 C771.57544,582.552622 771.401832,582.708998 771.23404,582.786325 C771.201731,582.801187 771.171576,582.812388 771.144436,582.819496 C771.10308,582.830481 771.068617,582.832419 771.043416,582.825096 C771.000768,582.812388 770.989998,582.774263 771.012399,582.717183 C771.058494,582.601086 771.231671,582.441048 771.399247,582.361998 C771.479805,582.324089 771.547654,582.310304 771.589871,582.323227 C771.618519,582.332058 771.63295,582.352305 771.633165,582.381814 C771.676298,582.308089 771.719181,582.234081 771.761787,582.159761 C770.451027,582.204971 769.140255,582.218688 767.829476,582.20671 L767.267986,582.199806 L767.290919,582.21757 C767.330558,582.246143 767.375952,582.273687 767.423285,582.301472 L767.525813,582.35489 L767.639972,582.404646 C767.680466,582.423601 767.717514,582.438679 767.753054,582.460433 C767.769424,582.471849 767.788163,582.482404 767.802594,582.494681 L767.842012,582.532806 C767.886383,582.587301 767.90146,582.654288 767.885952,582.727522 C767.878024,582.769638 767.858699,582.813963 767.83199,582.858816 C769.791437,582.859702 771.751029,582.858678 773.710621,582.855672 C774.024985,582.592773 774.339439,582.311966 774.653939,582.007215 Z M762.246236,582.016887 C761.950641,582.262009 761.655026,582.521866 761.359292,582.798387 C761.348501,582.818336 761.330075,582.836682 761.304866,582.852911 L764.167976,582.85678 C763.939758,582.642691 763.711634,582.420644 763.483509,582.189037 C763.480494,582.185806 763.483294,582.182144 763.490187,582.181067 C763.496864,582.179775 763.505049,582.181498 763.508064,582.184729 L763.521203,582.198083 L763.549205,582.214884 C763.559687,582.220771 763.57285,582.227137 763.588183,582.233727 L763.633585,582.25142 L763.65604,582.259255 C763.671979,582.264209 763.688349,582.269809 763.706227,582.274764 C763.741983,582.284887 763.782046,582.295011 763.82534,582.304273 C763.86885,582.31375 763.915806,582.322366 763.9647,582.330766 L764.039873,582.342397 L764.118061,582.352952 C764.146493,582.356829 764.171048,582.359844 764.199264,582.364798 L764.240836,582.372552 L764.280684,582.381814 C764.332594,582.395169 764.379549,582.4124 764.417674,582.432217 C764.45623,582.451818 764.484231,582.474003 764.505124,582.495758 C764.526233,582.517728 764.538941,582.539698 764.546911,582.560592 C764.555096,582.581485 764.557896,582.601301 764.558327,582.619394 C764.559188,582.655796 764.548634,582.68552 764.540449,582.706198 L764.530568,582.726352 C764.526242,582.734044 764.523217,582.738076 764.523217,582.738076 L764.527579,582.719357 C764.528346,582.715339 764.529141,582.710721 764.529895,582.705552 C764.533556,582.684659 764.534203,582.654934 764.52731,582.61961 C764.519771,582.5845 764.503186,582.54336 764.461399,582.503081 C764.440937,582.48305 764.412936,582.463664 764.378472,582.446217 C764.344009,582.42877 764.302008,582.413693 764.255482,582.402062 L764.219942,582.393661 L764.183756,582.386553 L764.026518,582.363506 L763.949838,582.350367 C763.900082,582.341105 763.852695,582.331197 763.80897,582.320212 C763.76503,582.309657 763.725397,582.297811 763.689857,582.285964 C763.672195,582.280148 763.65604,582.273902 763.640532,582.268086 L763.599607,582.250209 C763.575052,582.238146 763.55502,582.227377 763.54102,582.217469 C763.729059,582.407931 763.917946,582.592457 764.107136,582.771409 L764.198403,582.856759 L766.256446,582.858565 C766.415742,582.632643 766.576228,582.410364 766.737465,582.190332 C765.240458,582.161443 763.743347,582.100555 762.246236,582.016887 Z M735.111462,579.905182 C735.106545,579.933987 735.10161,579.96556 735.09677,579.999812 L735.089597,580.053187 C735.073227,580.171008 735.063749,580.318122 735.059441,580.486345 C735.057503,580.570349 735.060088,580.660599 735.060734,580.754726 L735.069062,580.949682 C735.070546,580.983116 735.072365,581.017005 735.07495,581.051324 C735.089812,581.257457 735.113074,581.478882 735.145384,581.710215 C735.177477,581.941979 735.221849,582.181498 735.269451,582.427909 L735.348931,582.799033 C737.392664,582.801694 739.436004,582.804758 741.479344,582.808642 L741.609149,582.457633 C741.614749,582.44234 741.627673,582.437171 741.637796,582.445787 C741.648135,582.454402 741.651797,582.473572 741.646197,582.488865 L741.622503,582.552407 C741.61798,582.572115 741.613214,582.596064 741.608661,582.624072 L741.604195,582.653427 C741.595579,582.708352 741.590625,582.776632 741.588471,582.85482 L745.480737,582.817139 L747.429416,582.821752 C747.576819,582.499366 747.724278,582.183245 747.871736,581.873484 C747.875398,581.865945 747.883583,581.863361 747.89026,581.868099 C747.896722,581.872622 747.899091,581.882531 747.895429,581.890285 L747.880352,581.921732 C747.876475,581.935087 747.872382,581.952103 747.868721,581.972565 C747.86312,582.000136 747.859889,582.034814 747.858597,582.074447 L747.859028,582.137557 L747.863766,582.207561 C747.868936,582.25624 747.876475,582.30858 747.88746,582.363075 C747.89823,582.417785 747.913092,582.474434 747.929246,582.53259 L747.955955,582.620256 L747.986757,582.708352 C747.997742,582.740877 748.00765,582.768232 748.016696,582.801833 L748.022038,582.823389 L749.893744,582.828363 C749.739057,582.473934 749.58437,582.111157 749.429682,581.73994 C749.717449,581.605749 750.005216,581.47802 750.292983,581.356753 C750.486837,581.806496 750.680477,582.243316 750.874332,582.666781 C750.907071,582.709214 750.917841,582.765216 750.904271,582.825311 L750.902764,582.830265 L753.586051,582.836891 L753.70935,582.643088 C753.715166,582.634041 753.727874,582.631026 753.738213,582.636195 C753.748337,582.641364 753.752214,582.652565 753.746398,582.661396 L753.72292,582.698229 C753.716889,582.713306 753.710427,582.733122 753.704612,582.756816 C753.698268,582.779714 753.693925,582.806725 753.691183,582.836969 C755.996757,582.842619 758.302245,582.847802 760.607705,582.851756 C760.502642,582.800201 760.450717,582.728234 760.483283,582.661396 C760.533901,582.556715 760.771912,582.508035 761.013799,582.54853 C761.130112,582.5677 761.230055,582.603886 761.295535,582.64998 C761.339691,582.680997 761.364246,582.714168 761.368769,582.746908 C761.613974,582.518762 761.859041,582.30192 762.10408,582.095059 L762.200621,582.014352 L761.573949,581.977813 C761.155776,581.952592 760.737604,581.925694 760.319431,581.897307 C760.136804,582.068664 759.954133,582.247497 759.771405,582.433509 C759.718849,582.540345 759.482346,582.59527 759.241966,582.55133 C759.195657,582.542929 759.151932,582.531083 759.112084,582.516651 C759.051558,582.494681 758.999648,582.466249 758.960231,582.433078 C758.893459,582.377076 758.870627,582.314396 758.895397,582.257963 C758.946015,582.142296 759.184025,582.094263 759.425913,582.145742 C759.542226,582.170297 759.642169,582.213161 759.707649,582.266363 C759.751805,582.302119 759.776575,582.339597 759.781098,582.37643 C759.945404,582.209856 760.109709,582.049081 760.274015,581.893759 C757.323858,581.692963 754.373708,581.41828 751.423562,581.135669 L749.210952,580.923255 C746.998343,580.711416 744.785735,580.504394 742.573128,580.330014 C742.558928,580.526219 742.471787,580.725383 742.329212,580.855962 C742.286564,580.895164 742.241331,580.925749 742.195021,580.947289 C742.125018,580.979813 742.052861,580.99166 741.983289,580.980244 C741.865683,580.96129 741.769402,580.878578 741.712538,580.746757 C741.650893,580.604059 741.646484,580.427117 741.689274,580.262362 C739.496751,580.098462 737.304107,579.970448 735.111462,579.905182 Z M774.623053,582.119464 C774.349493,582.3812 774.075964,582.625093 773.802442,582.854913 C774.962825,582.853712 776.123056,582.851198 777.283287,582.847883 C776.396505,582.536781 775.509779,582.308695 774.623053,582.119464 Z M750.385171,581.624058 C750.110759,581.74274 749.836131,581.867453 749.561504,581.997982 C749.680323,582.279612 749.799143,582.556482 749.917962,582.82839 L750.454012,582.829354 C750.467301,582.771402 750.501576,582.713397 750.55404,582.66915 C750.60552,582.625425 750.666907,582.601301 750.726786,582.60044 C750.76685,582.599793 750.803251,582.610132 750.832976,582.629302 C750.683708,582.301903 750.534439,581.96675 750.385171,581.624058 Z M747.859459,581.965673 C747.72647,582.24582 747.593482,582.53112 747.460494,582.82155 L747.966826,582.823058 L747.958155,582.792326 L747.908784,582.640503 L747.884014,582.549176 C747.868505,582.48865 747.856658,582.429201 747.848043,582.371906 C747.838996,582.314827 747.834688,582.259901 747.832965,582.209284 C747.832103,582.184083 747.83275,582.159528 747.83318,582.136696 C747.834904,582.113649 747.835981,582.091894 747.838565,582.071647 C747.842442,582.041276 747.847168,582.014056 747.852741,581.990803 L747.859459,581.965673 Z M728.643004,579.920403 C728.625986,580.001703 728.593471,580.08101 728.547428,580.144515 C728.52675,580.172947 728.504349,580.196855 728.481302,580.215379 C728.446408,580.243381 728.409791,580.25932 728.37382,580.261474 C728.312863,580.265135 728.261169,580.229165 728.228213,580.160454 C728.198963,580.099617 728.188688,580.020859 728.195295,579.938886 C726.868283,579.997327 725.541245,580.089192 724.214207,580.220459 C724.237212,580.236241 724.261647,580.250741 724.287361,580.264489 C724.330655,580.287967 724.377826,580.307568 724.426505,580.326954 L724.501893,580.353016 L724.579866,580.374556 L724.633954,580.390958 C724.642857,580.393989 724.65188,580.397387 724.661285,580.40148 C724.67507,580.408157 724.689502,580.413757 724.702856,580.421727 L724.742704,580.446928 C724.794399,580.485268 724.841355,580.539332 724.879479,580.604166 C724.918035,580.668569 724.946252,580.744603 724.967145,580.821068 C724.988254,580.897748 725.000746,580.976367 725.008931,581.051324 C725.017116,581.126282 725.019916,581.198223 725.020347,581.264349 C725.021209,581.396601 725.010439,581.506022 725.002254,581.581625 L724.990434,581.66859 C724.98723,581.688514 724.98513,581.699015 724.985238,581.699015 L724.989569,581.630499 C724.990354,581.615778 724.991161,581.598856 724.991915,581.579902 L724.994078,581.507392 C724.995133,581.440805 724.9941,581.359461 724.989331,581.268226 C724.981792,581.141359 724.964991,580.993383 724.92342,580.853808 C724.902742,580.78402 724.874956,580.718325 724.840493,580.66103 C724.80603,580.603735 724.764028,580.556779 724.717503,580.523178 L724.681963,580.4997 L724.645777,580.481391 L724.620304,580.470941 L724.488539,580.42862 L724.411859,580.397603 C724.362103,580.375417 724.3145,580.350216 724.270775,580.321999 C724.241625,580.303763 724.214198,580.283611 724.188686,580.262694 L724.148336,580.227654 L724.066281,580.235187 C724.297035,580.957892 724.527624,581.701562 724.758213,582.463233 C724.805923,582.55568 724.813065,582.683633 724.7853,582.807139 C726.175402,582.803329 727.565749,582.801171 728.956097,582.799928 L728.948276,582.774047 C728.91726,582.657304 728.917044,582.538837 728.947846,582.439971 C729.010741,582.238146 729.18521,582.183221 729.336848,582.319566 C729.409866,582.385045 729.46673,582.484557 729.497316,582.599793 C729.515264,582.667097 729.522664,582.735211 729.519939,582.799771 L729.533344,582.799464 L729.918835,582.063964 C730.186051,581.552427 730.453236,581.038113 730.720325,580.522747 C730.725279,580.51327 730.733894,580.512408 730.739495,580.520808 C730.74488,580.529424 730.745526,580.544071 730.740356,580.553764 L730.719678,580.593827 C730.715514,580.605315 730.710967,580.619291 730.706101,580.635629 L730.69857,580.661892 C730.688016,580.699155 730.678538,580.746757 730.669707,580.802113 C730.665184,580.829899 730.662168,580.86027 730.658291,580.891502 C730.655922,580.923596 730.651829,580.956766 730.649891,580.991876 C730.645583,581.062094 730.643429,581.138559 730.64386,581.219332 C730.644075,581.30032 730.648168,581.385616 730.652691,581.473497 L730.662599,581.607257 L730.675953,581.743386 L730.684521,581.838431 C730.685742,581.85417 730.686795,581.870253 730.687585,581.887269 L730.689739,581.963734 L730.688231,582.039122 C730.683277,582.139927 730.667338,582.239439 730.642137,582.329258 C730.617582,582.419724 730.582257,582.497912 730.544563,582.564684 C730.506869,582.631672 730.465083,582.685951 730.423727,582.731184 C730.400365,582.756992 730.376934,582.779536 730.353946,582.799525 C731.591159,582.7984 732.828335,582.798499 734.065511,582.799149 C734.3138,582.031201 734.562123,581.267353 734.810446,580.509411 L735.010026,579.902208 C732.887686,579.840915 730.765345,579.838801 728.643004,579.920403 Z M730.691031,580.649183 C730.317134,581.369881 729.943426,582.08849 729.56973,582.800021 L730.281689,582.799499 L730.28889,582.793002 C730.361047,582.72623 730.442251,582.635764 730.5101,582.508251 C730.543917,582.444925 730.572995,582.37126 730.594965,582.290703 C730.616935,582.210145 730.63029,582.121834 730.634382,582.031583 L730.636106,581.963734 L730.634598,581.897177 L730.632125,581.851426 L730.612628,581.618888 L730.60552,581.48082 C730.601858,581.390139 730.601212,581.301828 730.603581,581.218255 C730.60552,581.134682 730.611551,581.055848 730.619305,580.983906 C730.623182,580.947935 730.628351,580.913903 730.632875,580.881594 L730.650537,580.791774 C730.660068,580.750257 730.66972,580.713465 730.679585,580.682398 L730.691031,580.649183 Z M735.062241,580.024971 C734.760683,580.941284 734.459099,581.867197 734.157506,582.799072 L735.192124,582.799679 L735.134829,582.501143 C735.089597,582.245039 735.05341,581.992812 735.028209,581.750494 C735.0015,581.508606 734.988577,581.275765 734.983407,581.061017 C734.980607,580.953751 734.982761,580.850146 734.983623,580.752573 L734.993706,580.56427 C734.995541,580.534163 734.997623,580.504726 735.000208,580.476006 C735.013316,580.328307 735.029589,580.198332 735.049299,580.090422 L735.062241,580.024971 Z M741.966236,577.622773 L742.058273,578.022074 C742.214191,578.695181 742.370137,579.359618 742.526082,580.015063 C742.550442,580.072165 742.565521,580.134155 742.571972,580.198321 C748.489136,580.688857 754.406652,581.424859 760.324168,581.847135 C760.564456,581.620986 760.804743,581.407042 761.045031,581.203608 C761.547546,581.409956 762.050061,581.596702 762.55236,581.766864 C762.466977,581.835087 762.381594,581.904423 762.296208,581.974931 C763.785115,582.062164 765.27402,582.125481 766.762923,582.15603 C766.860631,582.022486 766.958465,581.89034 767.056469,581.758679 C767.064223,581.748125 767.086624,581.737786 767.106225,581.735632 C767.126041,581.733478 767.135734,581.740155 767.12798,581.750709 L767.095671,581.794219 C767.088778,581.809943 767.082747,581.829544 767.078654,581.851945 C767.071762,581.882315 767.073485,581.916994 767.082101,581.954472 C767.086193,581.972996 767.095671,581.99152 767.102994,582.011552 C767.115272,582.02986 767.123456,582.050754 767.138319,582.070354 C767.16154,582.10143 767.190312,582.133048 767.224954,582.164241 C768.74449,582.188608 770.263834,582.177689 771.783178,582.122289 C771.920089,581.882687 772.053983,581.639897 772.184116,581.392771 C770.145326,581.556961 768.106607,581.563405 766.067887,581.456745 L766.187999,581.710646 C766.227201,581.75911 766.228924,581.80025 766.192307,581.826528 C766.155906,581.852806 766.085903,581.861637 765.995006,581.851298 C765.95882,581.846991 765.921341,581.840098 765.883863,581.830621 C765.72641,581.791419 765.569172,581.710431 765.50283,581.627504 C765.42055,581.524761 765.507784,581.458635 765.695824,581.482328 C765.786074,581.493744 765.886663,581.523468 765.978636,581.565686 C766.04067,581.594333 766.093872,581.626212 766.134582,581.658951 C766.102447,581.591305 766.070453,581.523334 766.038607,581.45501 C765.763131,581.440582 765.487659,581.424006 765.212188,581.405449 L764.799137,581.376139 L764.837693,581.465097 C764.917173,581.569994 764.829939,581.636335 764.641253,581.617165 C764.604852,581.613503 764.566942,581.607041 764.528818,581.597564 C764.470877,581.583563 764.412074,581.563532 764.356502,581.538331 C764.262806,581.495683 764.189141,581.443557 764.149724,581.391647 C764.130398,581.366069 764.120841,581.342474 764.120088,581.321678 C761.391227,581.088651 758.662107,580.677891 755.932986,580.195277 L755.931788,580.201594 C755.927695,580.218179 755.92468,580.235411 755.91951,580.25135 L755.901848,580.298737 C755.873416,580.36034 755.829045,580.415911 755.772612,580.460929 C755.716394,580.506592 755.646821,580.539763 755.575741,580.564533 C755.50423,580.589519 755.429489,580.604597 755.357332,580.614074 C755.285174,580.623767 755.214956,580.626998 755.149907,580.627213 C755.019593,580.627859 754.909312,580.614289 754.833062,580.60352 L754.761499,580.591415 L754.713087,580.581119 C754.713087,580.581119 754.737683,580.583784 754.781785,580.586843 L754.8322,580.58995 C754.907588,580.594689 755.014639,580.595766 755.139137,580.587796 C755.262773,580.578965 755.405149,580.559364 755.534386,580.509823 C755.599004,580.485484 755.658453,580.452313 755.708424,580.411603 C755.75818,580.370679 755.796736,580.320922 755.821291,580.265351 L755.837661,580.222703 C755.842615,580.208487 755.845199,580.19384 755.849292,580.179408 C755.447313,580.109154 755.045446,580.036338 754.643579,579.962326 C754.395886,580.05958 754.148157,580.163482 753.900405,580.273967 C753.762122,580.386187 753.486848,580.334923 753.285024,580.145161 C753.246037,580.108759 753.21222,580.069342 753.184219,580.028417 C753.141356,579.966384 753.111847,579.900688 753.098062,579.836285 C753.085009,579.775575 753.086736,579.720124 753.102426,579.673077 C749.740823,579.033231 746.379014,578.339504 743.017205,577.78973 C743.037591,577.897163 743.047499,578.001455 743.05229,578.099777 C743.05789,578.21049 743.055306,578.313879 743.04949,578.407791 C743.038074,578.59583 743.01115,578.745745 742.991118,578.849349 L742.97913,578.905605 C742.973465,578.930811 742.968373,578.951586 742.964221,578.967708 L742.952994,579.008525 C742.953166,579.008525 742.959541,578.970065 742.96815,578.900201 L742.974964,578.842026 C742.987887,578.736052 742.999303,578.58226 743.000811,578.397452 C743.001565,578.235933 742.992589,578.048359 742.956135,577.855074 L742.93989,577.777112 C742.615339,577.724251 742.290787,577.672745 741.966236,577.622773 Z M767.03947,581.884069 L767.050653,581.854745 L766.827449,582.156974 L767.08579,582.162138 C767.072491,582.142105 767.061511,582.12204 767.052376,582.102233 C767.041822,582.080047 767.036437,582.057215 767.029975,582.036107 L767.025492,581.99239 C767.024973,581.985322 767.024734,581.978309 767.025021,581.971273 C767.026475,581.939933 767.031079,581.910653 767.03947,581.884069 L767.03947,581.884069 Z M760.849669,581.415556 C760.689423,581.555447 760.529221,581.700174 760.369023,581.850042 C760.787208,581.879964 761.20542,581.908185 761.623641,581.934593 L762.250976,581.97283 L762.287856,581.941764 C761.808389,581.782157 761.329136,581.607472 760.849669,581.415556 Z M764.366195,580.321784 C764.487677,580.637983 764.61302,580.944808 764.74145,581.243692 L764.782337,581.337583 C765.195026,581.368323 765.60809,581.395589 766.021153,581.418107 C765.916965,581.193169 765.814186,580.964548 765.71327,580.731033 C765.263312,580.597273 764.814646,580.459636 764.366195,580.321784 Z M772.573146,580.657368 C772.461129,580.892874 772.345247,581.123859 772.226163,581.351119 C772.374913,581.339719 772.523769,581.326446 772.672625,581.312294 C772.684512,581.267133 772.687293,581.227108 772.681274,581.193485 L772.675027,581.168283 C772.672658,581.160314 772.668996,581.153637 772.665981,581.146098 L772.658266,581.132273 L772.611701,581.067263 L772.588439,581.025046 C772.574223,580.996183 772.563238,580.965813 772.555699,580.934365 C772.547729,580.903133 772.544283,580.870393 772.543421,580.838084 L772.544498,580.790051 L772.55096,580.743095 C772.554837,580.722705 772.559193,580.703463 772.564219,580.685689 L772.573146,580.657368 Z M777.815626,579.197426 C777.86732,579.196565 777.914492,579.203888 777.952617,579.219181 C777.990957,579.234259 778.019173,579.257952 778.040067,579.284445 C778.061175,579.311154 778.073668,579.34131 778.081853,579.37168 C778.090038,579.402051 778.092838,579.432637 778.093269,579.461715 C778.094131,579.519656 778.083576,579.571351 778.075391,579.607106 L778.066999,579.637891 C778.061893,579.654804 778.05816,579.664186 778.05816,579.664186 L778.062985,579.628509 L778.064837,579.609691 C778.068499,579.575443 778.068929,579.52741 778.062252,579.473562 C778.054713,579.420144 778.038128,579.360695 777.996342,579.313524 C777.975879,579.28983 777.947878,579.27066 777.913415,579.257306 C777.878952,579.243951 777.83695,579.237705 777.790425,579.238782 L777.754885,579.24072 L777.736792,579.242524 L777.693322,579.248722 L777.561461,579.273891 L777.48478,579.285738 C777.435024,579.292415 777.387638,579.296938 777.343697,579.299092 C777.299972,579.301677 777.260124,579.301031 777.224799,579.298662 C777.207137,579.297585 777.190983,579.295431 777.175474,579.293707 L777.134549,579.285307 C777.109994,579.279061 777.089963,579.271953 777.075962,579.264414 L777.200568,579.38794 C777.410756,579.598149 777.620945,579.822967 777.831134,580.064388 C777.914061,580.110698 777.874428,580.239288 777.741961,580.344831 C777.716544,580.365078 777.688974,580.383387 777.660757,580.399111 C777.617894,580.423235 777.572446,580.441543 777.527859,580.453175 C777.452687,580.472775 777.388284,580.470621 777.346928,580.448005 C777.262063,580.401911 777.30148,580.28409 777.434809,580.178332 C777.498781,580.127283 777.574815,580.086789 777.648911,580.064603 C777.698667,580.049526 777.743469,580.044356 777.780301,580.04888 C777.526351,579.75939 777.272402,579.494024 777.018452,579.249121 C777.015221,579.24589 777.018236,579.239859 777.024914,579.235551 C777.031806,579.231243 777.039776,579.230166 777.043007,579.233182 L777.056146,579.24589 L777.073106,579.253501 C777.076513,579.254817 777.080198,579.256157 777.084147,579.257521 C777.099871,579.263121 777.121626,579.267645 777.147688,579.271306 L777.190767,579.275184 L777.240954,579.276261 C777.276925,579.276045 777.316773,579.273891 777.360282,579.269799 C777.403577,579.265706 777.450748,579.258814 777.499427,579.251059 L777.574815,579.23749 L777.652788,579.220904 C777.68122,579.215089 777.70599,579.209488 777.734207,579.20518 L777.775778,579.200011 L777.815626,579.197426 Z M753.86778,579.818049 L753.880266,579.834094 C753.925549,579.896636 753.956865,579.96186 753.97127,580.025402 C753.986563,580.093897 753.980962,580.154854 753.955761,580.204825 C754.160491,580.114918 754.365221,580.029465 754.569951,579.948301 C754.335859,579.905555 754.101819,579.861969 753.86778,579.818049 Z M729.366451,576.838358 L728.915958,576.868168 C729.083497,577.483242 729.250882,578.103018 729.418267,578.726574 C729.450576,578.796147 729.460268,578.889412 729.445837,578.989786 C729.431621,579.089514 729.395004,579.184503 729.342663,579.25709 C729.32177,579.285953 729.2998,579.309862 729.277183,579.328171 C729.181979,579.405282 729.077944,579.387619 729.023449,579.273245 C728.956031,579.131516 728.989417,578.893505 729.097975,578.741652 C729.150316,578.668849 729.211919,578.626201 729.271798,578.622324 C729.311862,578.619739 729.348263,578.635032 729.377772,578.665618 L729.088873,577.594885 C729.040728,577.417121 728.992576,577.239708 728.944399,577.062654 L728.114916,577.760101 C728.284216,578.374189 728.453731,578.994094 728.623031,579.618737 C728.642943,579.661425 728.653773,579.712723 728.656215,579.767636 C730.790617,579.681299 732.925304,579.684362 735.05999,579.750182 L735.098643,579.632307 C735.109628,579.599136 735.134183,579.587936 735.153569,579.607106 C735.172954,579.626061 735.180062,579.667847 735.169292,579.700587 L735.151787,579.753371 C737.346108,579.822551 739.540481,579.95797 741.734853,580.130785 C741.776322,580.036134 741.834685,579.950609 741.90747,579.88518 C742.015167,579.788253 742.138157,579.748405 742.253608,579.771452 C742.331581,579.787176 742.399646,579.830254 742.453494,579.894873 C742.276089,579.146899 742.098685,578.387155 741.921241,577.616342 C740.730906,577.433097 739.540602,577.271082 738.350299,577.138573 C738.374133,577.203762 738.380805,577.28251 738.368974,577.364206 C738.355619,577.457256 738.319648,577.543199 738.268169,577.60674 C738.247491,577.631941 738.225736,577.652188 738.20312,577.667266 C738.108562,577.730376 738.004527,577.703021 737.948955,577.586708 C737.884952,577.453102 737.907496,577.248736 737.996926,577.114507 L738.006365,577.101114 C737.776017,577.076587 737.545669,577.053196 737.31532,577.031005 L737.376437,577.251491 L737.551553,577.878352 C737.618756,578.022451 737.587308,578.247538 737.480688,578.383236 C737.460225,578.409514 737.43804,578.430838 737.415208,578.446993 C737.380529,578.471332 737.343912,578.483825 737.307942,578.482964 C737.2472,578.481456 737.195075,578.441823 737.161474,578.371389 C737.092547,578.227291 737.123995,577.997465 737.231261,577.860905 C737.282741,577.79521 737.344128,577.760316 737.404007,577.762685 C737.444286,577.764193 737.480472,577.782717 737.510197,577.815241 L737.291002,577.029356 C736.106251,576.914969 734.921527,576.83308 733.736803,576.791644 L733.69954,576.809219 L733.657656,576.825505 C733.548235,576.865568 733.454754,576.873538 733.390136,576.876984 L733.346775,576.877311 C733.308973,576.876432 733.288255,576.872676 733.288255,576.872676 L733.328999,576.865998 C733.344812,576.863 733.364935,576.85881 733.388844,576.853075 C733.438909,576.842044 733.505557,576.82085 733.582569,576.786859 C733.184903,576.773752 732.786988,576.765623 732.389073,576.762428 C732.3699,576.765131 732.350326,576.765082 732.33048,576.762462 C731.342474,576.755263 730.354463,576.779046 729.366451,576.838358 Z M756.189615,579.431344 C755.717013,579.570337 755.244493,579.729816 754.771954,579.911931 C755.134351,579.980568 755.496721,580.047739 755.85909,580.113628 L755.872555,579.990077 L755.889571,579.898534 C755.90271,579.83887 755.919726,579.782868 755.940404,579.731819 C755.960435,579.68034 755.985421,579.634461 756.01213,579.594398 C756.025269,579.574366 756.040347,579.556273 756.053916,579.539041 C756.069856,579.523102 756.083641,579.507379 756.098934,579.494239 C756.121873,579.474369 756.144086,579.457528 756.16539,579.444534 L756.189615,579.431344 Z M725.614405,572.865267 C726.116704,573.167249 726.619219,573.507572 727.121733,573.877189 C726.784061,574.942126 726.446545,575.993873 726.109052,577.025186 C726.883334,576.908748 727.657584,576.81917 728.431831,576.753089 L728.763253,576.725993 L728.563722,576.894463 C727.728858,576.961153 726.893993,577.054179 726.059129,577.176569 L725.928665,577.574431 C725.903033,577.724345 725.834107,577.851212 725.733948,577.93177 C725.634221,578.011896 725.515323,578.037098 725.39901,578.004573 C725.352701,577.991649 725.309406,577.969895 725.270205,577.941678 C725.114918,577.828558 725.022786,577.608972 725.046604,577.377916 L725.051795,577.338574 L724.758244,577.391464 C723.094313,577.697812 721.430382,578.127038 719.766451,578.703096 L719.766451,578.596692 C721.5419,577.966385 723.317349,577.507507 725.092797,577.19022 C725.182912,576.968735 725.38174,576.835171 725.582957,576.886462 C725.678842,576.910788 725.763603,576.974198 725.827223,577.067279 L726.063682,577.032419 C726.328173,576.224811 726.592781,575.404703 726.857229,574.575282 C726.377762,574.223543 725.898294,573.898513 725.418827,573.607731 C725.059549,574.730796 724.700056,575.830384 724.340778,576.897877 C724.288222,577.195983 724.051719,577.394577 723.811124,577.350852 C723.76503,577.342667 723.721305,577.326081 723.681457,577.302172 C723.620931,577.265986 723.568806,577.212999 723.529388,577.145796 C723.462832,577.032499 723.439784,576.892708 723.464555,576.749471 C723.515388,576.457612 723.753398,576.239633 723.995286,576.274957 C724.111384,576.292189 724.211542,576.365423 724.277022,576.48109 C724.321178,576.559062 724.345733,576.649959 724.350256,576.744948 C724.771567,575.490922 725.193093,574.192957 725.614405,572.865267 Z M741.590625,575.977067 C741.705099,576.484013 741.819602,576.986455 741.934124,577.484265 C742.257255,577.534842 742.580374,577.587324 742.903494,577.64119 C742.882701,577.575465 742.857683,577.51063 742.828711,577.448641 C742.780678,577.346328 742.720368,577.253493 742.651442,577.176167 L742.598455,577.12038 C742.580577,577.102502 742.562268,577.088071 742.544175,577.071485 L742.505779,577.04054 L742.305518,576.895939 L742.189852,576.801381 C742.114679,576.736978 742.043814,576.668698 741.978765,576.598049 C741.913501,576.528261 741.855129,576.454381 741.80365,576.382224 C741.777803,576.346253 741.75454,576.30899 741.732354,576.274311 L741.692068,576.203119 C741.68571,576.1916 741.679583,576.180184 741.673767,576.168768 C741.647758,576.117235 741.625748,576.069215 741.608371,576.025527 L741.590625,575.977067 Z M726.013689,577.184922 L725.895822,577.201565 C725.920499,577.268813 725.934663,577.341122 725.938142,577.414824 L726.013689,577.184922 Z M737.850089,575.446336 C737.575461,575.621882 737.300834,575.802813 737.026206,575.988483 L737.272745,576.878834 C737.608616,576.910898 737.944354,576.946469 738.280091,576.984462 C738.136648,576.475369 737.993468,575.962541 737.850089,575.446336 Z M734.474,574.178741 C733.846556,574.958899 733.219113,575.767273 732.591454,576.591587 L732.582293,576.609852 C732.996869,576.613786 733.411416,576.624331 733.825963,576.639928 C733.876766,576.599946 733.927516,576.550625 733.975793,576.490352 C734.02878,576.424226 734.077244,576.342807 734.117307,576.249325 C734.157155,576.155414 734.187095,576.047716 734.205188,575.933127 L734.217035,575.846323 C734.220696,575.817245 734.221989,575.788382 734.224573,575.759519 L734.227828,575.699113 L734.235128,575.389041 L734.245251,575.207248 C734.253436,575.088351 734.264852,574.973976 734.27993,574.867356 C734.294146,574.760305 734.3131,574.661655 734.333347,574.572912 C734.343471,574.528541 734.355318,574.487401 734.365657,574.447984 L734.389509,574.375085 C734.393395,574.363477 734.397319,574.352205 734.401412,574.341363 C734.420884,574.289496 734.439804,574.244798 734.458062,574.208701 L734.474,574.178741 Z" id="59"></path>
        </g>
    </g>
</svg>
