<?xml version="1.0" encoding="UTF-8"?>
<svg width="61px" height="22px" viewBox="0 0 61 22" version="1.1" xmlns="http://www.w3.org/2000/svg" xmlns:xlink="http://www.w3.org/1999/xlink">
    <title>54</title>
    <g id="页面-1" stroke="none" stroke-width="1" fill="none" fill-rule="evenodd">
        <g id="乐符" transform="translate(-326.000000, -573.000000)" fill="#545458">
            <path d="M333.500533,573.496115 C333.521427,573.50411 333.54223,573.513285 333.563124,573.524004 C333.907511,573.699423 334.296138,574.294264 334.461291,574.65473 C334.897792,575.607675 335.102553,576.667361 335.199664,577.71115 C335.21509,577.876785 335.220416,578.041528 335.216534,578.205114 L335.774656,578.220877 C335.900203,578.224311 336.026745,578.227627 336.154245,578.230682 L337.238186,578.286914 C337.606374,578.308716 337.982192,578.31989 338.363007,578.352957 C339.125,578.412641 339.913791,578.462241 340.721569,578.547634 C341.951444,578.657984 343.228196,578.809909 344.54057,578.981741 L344.543616,578.107135 C346.649906,578.136296 348.730398,578.269472 350.823244,578.50839 L350.819791,579.351051 L350.817121,579.935527 L351.185526,579.997492 C352.60714,580.242007 354.04446,580.498123 355.484955,580.758068 L355.630575,579.875853 C358.000675,579.474689 360.353696,579.241222 362.75659,579.174997 L362.606959,579.813637 L362.570634,579.97042 C362.418304,580.627259 362.270392,581.285045 362.125568,581.943508 L362.276392,581.969607 C363.339046,582.149264 364.392676,582.322497 365.432151,582.484459 C366.704629,582.237801 367.979912,582.028524 369.268685,581.856053 L369.138053,582.490956 C369.103278,582.660456 369.068645,582.829987 369.03415,582.999546 C369.796487,583.098857 370.546453,583.19109 371.281881,583.272032 L371.281771,581.982961 L371.468181,581.982961 L371.468226,583.292331 C371.892659,583.338079 372.312153,583.379918 372.726269,583.417012 C373.080664,583.454428 373.43132,583.484946 373.777621,583.512462 L373.777506,583.401659 L373.963826,583.401659 L373.963982,583.527035 L374.41438,583.560946 C374.638242,583.577567 374.860058,583.593931 375.079653,583.611144 C375.325603,583.632423 375.569347,583.644612 375.81027,583.656447 L375.810123,583.401659 L375.930945,583.401659 C375.93694,583.409926 375.938212,583.41683 375.946025,583.426823 L375.958198,583.442811 L375.972642,583.459436 L375.989629,583.476423 L375.997079,583.484327 L376.002075,583.487143 L376.066665,583.535017 L376.098561,583.559383 L376.113267,583.571264 C376.142791,583.594701 376.172224,583.619501 376.201839,583.645119 L376.239766,583.678785 L377.283146,583.732874 L377.6342,583.741879 C378.215157,583.757621 378.775306,583.776054 379.312493,583.782565 L379.768435,583.781929 L380.205754,583.78202 C380.528247,583.78202 380.841111,583.781384 381.143619,583.777478 L381.454687,583.767899 L381.454485,583.653477 L381.498907,583.653477 L381.499005,583.766536 L382.753088,583.727968 C383.250001,583.707074 383.705579,583.6711 384.117553,583.647572 L384.701766,583.610871 C384.885269,583.600152 385.056418,583.57844 385.21612,583.564632 L386.683329,583.422372 L386.700408,583.418829 L386.700862,583.420736 L386.702043,583.420555 L386.70286,583.429649 L386.706006,583.439882 L386.706006,583.442357 L386.685873,583.446718 L385.362287,583.898027 C385.217483,583.945901 385.063867,584.003314 384.896261,584.053459 L384.36283,584.214343 L384.19908,584.263284 C383.866891,584.363435 383.506451,584.476296 383.115644,584.585619 L381.634263,584.978607 C381.152378,585.097615 380.639688,585.212361 380.102569,585.33743 L380.102556,585.543742 C380.103192,585.551918 380.103283,585.560276 380.102556,585.568815 C380.09547,585.658114 380.020797,585.758041 379.904881,585.820269 C379.749993,585.903391 379.580117,585.887947 379.525066,585.785749 C379.470378,585.68355 379.551501,585.533295 379.706389,585.450174 C379.822668,585.387764 379.947668,585.381042 380.025793,585.424919 L380.025826,585.355333 L379.93704,585.376137 C379.337474,585.507314 378.703207,585.627409 378.043322,585.762584 L376.68059,585.99993 L376.240448,586.076084 L375.972278,586.115873 C375.84924,586.133716 375.725533,586.152045 375.601145,586.170616 C375.458283,586.242266 375.309285,586.261348 375.19458,586.231581 C374.791631,586.291723 374.38152,586.351748 373.963888,586.403622 L373.963826,586.988059 C373.965279,587.008135 373.965552,587.028484 373.963826,587.049014 C373.946656,587.265948 373.765424,587.508499 373.483629,587.659662 C373.107538,587.861425 372.694655,587.823907 372.56157,587.575814 C372.428485,587.32763 372.625614,586.962986 373.001524,586.761041 C373.284319,586.609333 373.587735,586.592891 373.777506,586.69945 L373.777592,586.426136 L373.745984,586.429827 C373.362989,586.477065 372.97527,586.529391 372.581919,586.573995 L371.386786,586.700903 C370.984168,586.746597 370.576101,586.781118 370.164308,586.817637 C369.834729,586.845689 369.502941,586.877986 369.168478,586.90555 L368.917122,586.925195 C367.928605,587.003416 366.919827,587.070671 365.896911,587.130728 C365.778304,587.283757 365.593755,587.424944 365.369331,587.520763 C364.909029,587.717348 364.454086,587.638496 364.353977,587.329629 C364.342183,587.29322 364.335837,587.255431 364.334573,587.216796 L364.035944,587.23216 L363.719709,587.247971 L363.671744,587.542394 L363.662296,587.600897 L363.662115,587.602078 L363.661297,587.606984 L363.646399,587.699088 C363.644824,587.715561 363.642644,587.732034 363.639535,587.748588 L363.634135,587.773489 C363.572362,588.035208 363.321907,588.315914 362.976612,588.481248 C362.516218,588.701725 362.061457,588.622964 361.961348,588.290841 C361.86133,587.958718 362.153481,587.51186 362.614238,587.307009 L362.637735,587.29683 C361.430297,587.349758 360.212398,587.397425 358.993113,587.443225 L358.383397,587.465985 C357.13436,587.512353 355.885498,587.560087 354.646536,587.612714 C354.49046,587.927779 354.190747,588.244203 353.810077,588.465896 C353.15537,588.847074 352.508658,588.779032 352.366397,588.278759 C352.317897,588.108311 352.334155,587.913346 352.402587,587.716781 C350.958642,587.791781 349.536664,587.877231 348.153393,587.983203 L347.857576,588.006229 C347.522256,588.030793 347.189842,588.062334 346.859684,588.091921 L346.202658,588.149856 C345.930378,588.174229 345.660048,588.199665 345.392182,588.230067 L344.548325,588.3196 C344.380521,588.572585 344.158695,588.824534 343.894995,589.05238 C343.108202,589.73225 342.196681,589.886502 341.9703,589.34653 C341.878045,589.126581 341.864131,588.889674 341.906033,588.651917 C341.537113,588.705925 341.174246,588.761839 340.816955,588.813644 L340.549421,588.853342 L339.764082,588.989334 L338.751452,589.165934 C338.13844,589.291465 337.547591,589.403982 336.986254,589.524504 C337.21463,589.967607 337.416577,590.41057 337.561225,590.87524 L337.586496,590.957447 C337.699383,591.330065 337.797135,591.738861 337.722199,592.180021 C337.649797,592.605621 337.456664,593.121247 337.115275,593.545757 C336.495906,594.315835 335.368724,595.150321 334.391705,594.808842 C334.18322,594.735985 333.960926,594.557842 333.874535,594.302391 C333.784236,594.035857 333.787779,593.72699 333.793412,593.459366 C333.801224,593.083456 333.930221,592.653768 334.221556,592.34154 C334.498718,592.044573 334.900609,591.731709 335.252717,591.687287 C335.717289,591.628693 336.02661,591.732164 336.27116,592.04203 C336.289783,592.065649 336.304045,592.08945 336.316218,592.117975 L336.348468,592.214188 L336.368181,592.273691 L336.401974,592.374334 C336.429682,592.543939 336.398432,592.778677 336.322577,592.9729 C336.204118,593.276044 336.005716,593.639326 335.727373,593.879425 C336.093107,593.736347 336.40261,593.466451 336.68268,593.14314 C337.267074,592.468357 337.375541,591.558199 337.180864,590.728074 C337.088915,590.336144 336.956148,589.947202 336.795283,589.567065 L336.560228,589.621746 C336.409922,589.656539 336.261611,589.690615 336.115442,589.7243 C335.527842,590.078207 334.873907,590.325543 334.200662,590.337266 C334.066596,590.339604 333.933398,590.330429 333.802222,590.310541 L333.695483,590.33881 C333.241176,590.4659 332.828293,590.597623 332.45302,590.708542 L331.921587,590.868881 C331.754617,590.918844 331.601547,590.976076 331.457197,591.023677 L330.118607,591.480015 L329.995711,591.13814 L331.347186,590.686377 C331.492716,590.639229 331.647241,590.582543 331.815664,590.533215 L332.351639,590.375057 C332.609668,590.300423 332.88539,590.216203 333.179872,590.130517 C332.702485,589.923068 332.285339,589.570275 331.998622,589.120785 C331.73163,588.702217 331.542406,588.238877 331.416226,587.755505 L331.126618,587.825088 C330.955651,587.865786 330.79822,587.914659 330.650236,587.954267 L329.275869,588.336899 L329.173126,587.988333 L330.559575,587.611425 C330.708921,587.572362 330.867715,587.524124 331.040135,587.484244 L331.33809,587.41453 C331.228443,586.86252 331.194044,586.292477 331.214009,585.739509 C331.227807,585.357625 331.268641,584.977765 331.332744,584.601727 L331.062509,584.651259 C331.003746,584.661904 330.945841,584.672269 330.888791,584.682276 L330.33174,584.783294 C330.156776,584.814362 329.994984,584.854697 329.843276,584.886128 L328.433389,585.193087 L328.350631,584.839344 L329.772237,584.53838 C329.925126,584.507494 330.08828,584.467977 330.264607,584.437635 L330.825927,584.339161 C331.009212,584.308095 331.201251,584.27345 331.402097,584.23789 C331.54426,583.564366 331.758078,582.905215 332.021515,582.270934 C332.144036,581.975826 332.281556,581.692559 332.424699,581.419901 L331.437756,581.510122 C330.952381,581.560267 330.50843,581.622858 330.106449,581.670551 L329.53668,581.741409 C329.357628,581.762939 329.191567,581.794643 329.036134,581.817899 L327.591091,582.048731 L327.528319,581.690809 L328.984626,581.466881 C329.14124,581.444351 329.308664,581.413465 329.488988,581.392843 L330.062844,581.324893 L330.238884,581.304494 C330.596148,581.262224 330.984475,581.212078 331.403236,581.171277 L332.615176,581.06771 C332.65619,580.993819 332.697286,580.920772 332.738281,580.848504 L332.807218,580.727599 C332.682048,580.08286 332.356255,579.287927 332.129018,578.522892 L330.684121,578.575432 C330.188571,578.59896 329.734355,578.637478 329.323562,578.663187 L328.741075,578.702976 C328.558208,578.714695 328.387786,578.737224 328.228629,578.752031 L326.74843,578.903649 L326.706006,578.542819 L328.196925,578.39856 C328.357081,578.384661 328.528775,578.36295 328.712914,578.35223 L329.299216,578.315439 C329.712553,578.291819 330.169767,578.255846 330.668314,578.234952 L332.037934,578.193019 C331.839284,577.397114 331.797206,576.546792 331.923041,575.739579 C331.971278,575.429622 332.039865,575.1223 332.127256,574.83787 C332.229952,574.503826 332.377802,574.243693 332.572297,574.013369 L332.705726,573.85941 C332.904775,573.633465 333.172561,573.371345 333.500533,573.496115 Z M337.507308,586.585791 L336.956346,586.663988 C336.691169,586.702066 336.43137,586.74045 336.177501,586.781027 C335.945987,586.82173 335.718811,586.860626 335.496391,586.89878 L335.74647,587.388355 C335.828839,587.550242 335.909691,587.711106 335.987456,587.871792 L336.108823,588.125789 L336.033326,587.981139 C335.847644,587.623207 335.666089,587.262738 335.488699,586.900106 L335.091397,586.968603 C334.872932,587.006606 334.659574,587.044521 334.451752,587.083444 L334.064714,587.162903 C334.103248,587.233851 334.144873,587.302039 334.189125,587.366875 C334.263068,587.475169 334.420768,587.649301 334.580244,587.83387 L334.621833,587.882219 C334.857122,588.157125 335.080715,588.444314 335.027789,588.564824 C334.892614,588.872783 334.176043,588.715533 333.96774,588.577179 C333.539634,588.292944 333.232774,587.859696 333.042483,587.372972 L332.943028,587.39331 C332.659298,587.455425 332.391041,587.520248 332.137698,587.581847 C332.164719,587.722814 332.201818,587.861307 332.250712,587.997054 C332.4185,588.463171 332.6566,588.878869 333.007618,589.147765 C333.651514,589.641225 334.491814,589.73652 335.328753,589.386138 C335.704571,589.228888 336.072849,588.994694 336.399249,588.720075 C336.313062,588.544975 336.225494,588.368239 336.139154,588.189256 L336.109187,588.126516 L336.148068,588.200997 C336.227227,588.351769 336.38859,588.453156 336.48204,588.593401 L336.5039,588.629323 C336.817673,588.348617 337.08775,588.030939 337.277612,587.697907 C337.358917,587.555465 337.444309,587.365603 337.495182,587.181555 C337.494247,587.183715 337.494556,587.180758 337.495618,587.174776 L337.513532,587.090257 C337.513532,587.090257 337.528521,586.996689 337.532155,586.950268 C337.535153,586.912386 337.537969,586.874232 337.538696,586.835987 L337.537688,586.818139 L337.534698,586.743509 C337.529015,586.693661 337.519598,586.640675 337.507308,586.585791 Z M344.515363,586.70272 L344.517875,585.949809 L343.631096,585.994052 C343.233293,586.016763 342.841032,586.047559 342.453586,586.073358 C341.67833,586.119688 340.927238,586.198904 340.199766,586.26313 L339.928145,586.28793 L339.129814,586.380408 L338.567732,586.44605 C338.56819,586.640295 338.544562,586.834467 338.494275,587.024941 C338.261444,587.907119 337.57585,588.667568 336.829483,589.226526 L336.831189,589.229707 L336.795689,589.237155 C337.397253,589.109338 338.033518,588.992787 338.69522,588.861427 L339.713482,588.690097 L340.237375,588.602433 L340.503,588.558283 L340.771805,588.520038 C341.170419,588.464681 341.575934,588.404315 341.988812,588.347102 C342.163036,587.867872 342.528325,587.413714 342.894993,587.120326 C343.485201,586.648123 344.120105,586.525031 344.515363,586.70272 Z M351.044083,585.808187 L350.559575,585.80872 C350.384407,586.042528 350.118457,586.284069 349.785723,586.501139 C348.999203,587.014131 348.136646,587.161569 347.860756,586.737059 C347.711267,586.507149 347.763942,586.168841 347.96843,585.83375 C347.82685,585.836316 347.685679,585.839115 347.544907,585.842152 L347.334047,585.846886 C346.910263,585.854244 346.490477,585.872867 346.074415,585.88504 L345.604626,585.900461 C345.448633,585.905803 345.293259,585.911589 345.138554,585.918549 L344.907079,585.929927 L344.906534,586.07246 L344.902628,587.284117 C344.905262,587.32863 344.905898,587.374233 344.902083,587.420836 C344.887819,587.608193 344.824282,587.814594 344.718751,588.0267 L345.365656,587.961989 C345.634491,587.933161 345.905668,587.9093 346.178756,587.886501 L346.589768,587.852613 C346.919638,587.826451 347.251833,587.796102 347.586634,587.770543 L347.838226,587.752413 C349.354778,587.641628 350.918408,587.556825 352.507333,587.484372 C352.673249,587.18527 352.951007,586.903851 353.294724,586.723796 C353.787094,586.465892 354.274377,586.476157 354.546634,586.689639 C354.590327,586.40544 354.634187,586.12127 354.678217,585.837129 C353.969475,585.827136 353.263515,585.818777 352.561983,585.812729 C352.053533,585.809822 351.547264,585.808187 351.044083,585.808187 Z M373.079558,587.052557 C372.812842,587.239603 372.650506,587.467711 372.716458,587.562097 C372.782955,587.656574 373.052941,587.581901 373.319566,587.394854 C373.586281,587.20799 373.748618,586.979792 373.682484,586.885315 C373.616441,586.790929 373.346455,586.865602 373.079558,587.052557 Z M354.978058,585.841354 L354.901811,586.330032 L354.762296,587.230428 C354.758935,587.267311 354.753666,587.304465 354.745036,587.342075 C354.740998,587.360054 354.736511,587.377859 354.731496,587.395743 C355.698875,587.360639 356.671926,587.328527 357.646047,587.297636 L358.376766,587.274669 C360.104126,587.220877 361.831064,587.16456 363.532446,587.096067 C363.593139,586.72116 363.654387,586.346396 363.715885,585.971671 L363.363876,585.969888 C361.638199,585.955023 359.886545,585.92619 358.134231,585.89444 C358.028131,586.224614 357.681376,586.582868 357.212156,586.815002 C356.55754,587.138767 355.910736,587.070181 355.768475,586.626321 C355.693858,586.393467 355.772548,586.112414 355.958701,585.856524 C355.631375,585.851193 355.304457,585.846119 354.978058,585.841354 Z M363.505779,587.258941 L363.38951,587.264737 C363.428095,587.284254 363.463307,587.307826 363.494509,587.335248 L363.505779,587.258941 Z M333.424807,584.269678 L332.60499,584.390373 C332.55243,584.544205 332.503346,584.700581 332.458471,584.85942 L332.345975,585.253554 C332.236972,585.639349 332.142813,586.008473 332.102819,586.436004 C332.077246,586.71001 332.070231,586.977746 332.091489,587.237926 L332.278483,587.193913 C332.46809,587.149557 332.665552,587.104419 332.87099,587.060733 L332.934599,587.048004 C332.836871,586.694343 332.795701,586.324702 332.809489,585.971795 C332.833697,585.352797 333.048916,584.754019 333.424807,584.269678 Z M365.974701,585.971364 L365.817799,585.972262 C365.504449,585.973686 365.18978,585.974339 364.873963,585.974339 C364.55991,585.974339 364.244785,585.973696 363.928655,585.972521 L363.786836,586.835687 L363.745781,587.087269 L364.059938,587.073419 L364.355606,587.059987 C364.42672,586.813843 364.672537,586.562511 365.007139,586.43119 C365.353343,586.295379 365.696003,586.321269 365.887501,586.465074 L365.974701,585.971364 Z M373.777716,585.689349 C373.681151,585.69611 373.584213,585.702445 373.486899,585.708259 C373.098817,585.73415 372.705557,585.765127 372.306936,585.787838 L371.407164,585.832881 C371.32956,585.985913 371.182848,586.134116 370.988075,586.238602 C370.612166,586.440274 370.199828,586.402847 370.066561,586.154935 C370.024199,586.075853 370.015312,585.984981 370.035029,585.891338 L369.859257,585.897122 C369.525899,585.906933 369.19004,585.920872 368.851775,585.929823 L368.45037,585.938648 L368.431656,586.035204 C368.430081,586.048952 368.427941,586.062659 368.424913,586.076487 L368.419665,586.097341 C368.357528,586.315637 368.106891,586.54438 367.76196,586.674014 C367.301294,586.846979 366.847078,586.767037 366.746969,586.481971 C366.689525,586.31839 366.761061,586.126924 366.919367,585.963713 C366.676898,585.966492 366.433333,585.968599 366.188917,585.970205 L366.038937,586.810188 C366.036665,586.832807 366.032941,586.8557 366.027127,586.87832 C366.01845,586.911977 366.006212,586.945641 365.990576,586.979257 C366.868356,586.932487 367.735546,586.880261 368.588239,586.820188 L368.907311,586.797288 C369.242995,586.774759 369.57583,586.745195 369.906328,586.717526 L370.564072,586.663449 C370.83669,586.640684 371.107382,586.616843 371.375612,586.588076 L372.570109,586.468526 C372.884717,586.43466 373.195605,586.39591 373.503376,586.358834 L373.777506,586.326367 L373.777716,585.689349 Z M335.361365,584.495502 C335.343106,584.494957 335.323938,584.496956 335.314581,584.496138 C335.306224,584.497138 335.284058,584.503497 335.27025,584.504859 C335.167415,584.514761 335.040689,584.540288 334.94058,584.566451 C334.94812,584.566814 334.757258,584.637581 334.740543,584.64494 L334.731506,584.648601 C334.731352,584.648546 334.732183,584.648031 334.733496,584.647298 L334.740179,584.643467 C334.725162,584.650656 334.668851,584.677975 334.500898,584.759129 C334.513162,584.787836 334.524881,584.816633 334.537145,584.844704 C334.736055,585.299211 334.941375,585.751493 335.153036,586.200861 L335.242724,586.39032 L335.229824,586.363966 C335.01473,585.919152 334.800749,585.460984 334.583377,584.991775 L334.489997,584.790016 L334.439125,584.829351 C334.352097,584.898301 334.267976,584.972066 334.191032,585.055187 L334.120901,585.142124 C334.088289,585.187001 334.055948,585.232241 334.026697,585.280297 C333.724458,585.77467 333.74127,586.352329 333.924046,586.851149 L334.390615,586.758225 C334.696069,586.702897 335.01326,586.649858 335.340934,586.595639 L335.259394,586.425298 L335.247993,586.401222 L335.305208,586.518324 L335.343358,586.595342 L335.8096,586.518082 C335.914689,586.500595 336.020742,586.482842 336.127719,586.464711 C336.543386,586.400885 336.974763,586.342951 337.419499,586.282775 C337.328987,586.018144 337.2102,585.759804 337.146182,585.626873 L337.100559,585.534385 L337.02154,585.426562 C337.015553,585.418508 337.01101,585.41248 337.008898,585.409839 C336.973742,585.366053 336.937041,585.321449 336.898705,585.27957 C336.859915,585.237419 336.801866,585.190998 336.779519,585.153843 L336.704482,585.080896 L336.577881,584.982875 C336.528122,584.945161 336.473468,584.904849 336.433497,584.878407 L336.342324,584.820245 C336.307029,584.798137 336.277519,584.779933 336.277519,584.779933 L336.190855,584.731241 L336.136735,584.707082 C336.015948,584.654307 335.720418,584.531645 335.534513,584.509311 C335.478099,584.502497 335.418415,584.496956 335.361365,584.495502 Z M375.360345,585.552715 L374.891231,585.596412 C374.586118,585.62454 374.277043,585.652088 373.963996,585.675771 L373.96389,586.305113 C374.335706,586.261042 374.701487,586.210507 375.061605,586.159159 C375.045882,586.143755 375.032673,586.126194 375.022149,586.106607 C374.935848,585.945723 375.063483,585.70944 375.307215,585.578626 C375.324829,585.569182 375.342564,585.560548 375.360345,585.552715 Z M343.062508,583.639305 C342.659618,583.640032 342.261634,583.64948 341.86901,583.654022 C341.124323,583.657725 340.399969,583.692053 339.697576,583.716354 C339.851172,583.743953 339.997819,583.811406 340.112465,583.914197 C340.389083,584.16229 340.37473,584.524209 340.080398,584.751044 C339.785702,584.978062 339.32222,584.983512 339.045512,584.733693 C338.768622,584.483875 338.783248,584.074989 339.077943,583.849426 C339.151617,583.793035 339.235817,583.753382 339.325,583.729498 L339.306777,583.730148 L338.495456,583.778659 L337.448942,583.84234 C337.307326,583.855091 337.166896,583.867332 337.027709,583.879297 C337.259525,584.035035 337.47325,584.210858 337.66097,584.397573 C338.13624,584.870349 338.466754,585.495755 338.548346,586.140817 L339.096293,586.080171 L339.628725,586.021668 L339.89862,585.992326 L340.171332,585.968979 C340.902075,585.909023 341.656437,585.833986 342.434418,585.792289 C342.823136,585.768761 343.216941,585.740236 343.616016,585.719887 L344.518723,585.680288 L344.525508,583.645897 C344.462021,583.645292 344.398705,583.645028 344.335494,583.645028 L344.285803,583.645119 L343.062508,583.639305 Z M377.673778,585.300166 L376.818755,585.400301 C376.754549,585.407745 376.690136,585.415226 376.625512,585.422734 C376.610983,585.445207 376.597188,585.465477 376.584314,585.483501 L376.571753,585.500773 C376.549769,585.531297 376.531146,585.554098 376.518337,585.569451 L376.498351,585.592888 L376.470644,585.573539 L376.493395,585.526832 C376.500481,585.511624 376.508859,585.49281 376.517883,585.470523 C376.522611,585.459169 376.527488,585.446868 376.53247,585.433692 L376.018336,585.492961 L375.930945,585.500874 L375.930945,585.725701 C375.93149,585.734362 375.931752,585.743103 375.931571,585.751952 L375.930945,585.765309 C375.923138,585.863489 375.863446,585.969736 375.765905,586.058329 L376.227366,585.992962 L377.014704,585.861421 L377.582639,585.765898 C377.513838,585.758112 377.457976,585.727654 377.430221,585.67601 C377.37299,585.569088 377.457747,585.41211 377.61972,585.325174 C377.637607,585.31559 377.655687,585.307259 377.673778,585.300166 Z M364.130278,584.759561 L364.066018,585.142756 L363.953425,585.821588 C364.640909,585.828325 365.323485,585.832416 365.999558,585.832779 C366.056581,585.509635 366.114177,585.186678 366.172106,584.863782 C365.497679,584.833001 364.816449,584.797811 364.130278,584.759561 Z M366.386256,584.873543 L366.213355,585.832634 L366.42554,585.832502 C366.64392,585.832093 366.861582,585.831266 367.078479,585.829979 C367.171426,585.765506 367.279854,585.710233 367.399677,585.669378 C367.74588,585.551464 368.088632,585.581896 368.279948,585.716889 C368.329304,585.461368 368.378937,585.205904 368.428853,584.950498 C368.378865,584.949193 368.328702,584.947491 368.278494,584.945631 C367.654656,584.926279 367.023459,584.901898 366.386256,584.873543 Z M358.410156,584.382576 L358.286002,585.071729 L358.172005,585.708905 L358.568975,585.718528 C360.176999,585.756936 361.782407,585.792098 363.365421,585.815273 L363.740871,585.819506 C363.799585,585.462146 363.858528,585.104821 363.917715,584.747532 C363.609901,584.730214 363.300977,584.712206 362.991238,584.693722 C362.515012,584.663877 362.036864,584.632886 361.557312,584.601 L361.555211,584.609274 L361.549374,584.630041 C361.461075,584.920013 361.104878,585.237964 360.614416,585.437819 C359.959527,585.704626 359.313359,585.634495 359.170917,585.247139 C359.081298,585.003316 359.212508,584.70415 359.485315,584.458919 C359.127306,584.433736 358.768806,584.408252 358.410156,584.382576 Z M368.642685,584.956759 L368.569822,585.325735 L368.474702,585.814748 L368.595083,585.812729 C368.934328,585.808877 369.271073,585.797816 369.605411,585.788569 L370.07292,585.776385 C370.146007,585.612754 370.299017,585.451842 370.506606,585.340526 C370.788946,585.188909 371.09209,585.172557 371.281771,585.279025 L371.282048,584.997685 L370.806933,584.995413 L370.754789,584.995503 C370.517035,584.995503 370.277939,584.991743 370.037483,584.98685 L369.554751,584.976336 C369.252786,584.968786 368.948631,584.964454 368.642685,584.956759 Z M379.779427,584.998138 C379.373586,585.063044 378.952764,585.122382 378.519064,585.183785 L378.510074,585.19872 C378.495467,585.222412 378.481673,585.243197 378.469112,585.260842 L378.459929,585.273484 C378.451154,585.285639 378.443196,585.295962 378.436409,585.304474 L378.411146,585.334621 L378.392705,585.321812 L378.401517,585.304098 L378.413885,585.277484 C378.417087,585.270279 378.420539,585.262219 378.424137,585.253317 C378.431121,585.236581 378.43858,585.216687 378.446232,585.194235 L378.172408,585.233068 C378.126478,585.239637 378.080408,585.246256 378.034205,585.252928 L378.034147,585.422921 C378.034692,585.431551 378.034874,585.440272 378.034147,585.449265 C378.026698,585.542561 377.948663,585.647031 377.827388,585.712166 C377.814012,585.719333 377.80053,585.725799 377.787019,585.73157 L378.03015,585.690636 L378.357878,585.626213 C378.90041,585.520509 379.424184,585.422133 379.924049,585.315998 L380.025703,585.292753 L380.025823,584.955156 L379.779427,584.998138 Z M373.777646,584.978778 C373.595879,584.982815 373.412863,584.985596 373.228632,584.98651 C372.835281,584.991052 372.436388,585.0005 372.03259,585.001227 L371.468343,584.998567 L371.468181,585.567362 C371.469453,585.587347 371.469725,585.607787 371.468181,585.628408 C371.465638,585.6604 371.459575,585.692679 371.450192,585.725149 L372.301395,585.68782 C372.699652,585.667471 373.092639,585.638946 373.480631,585.615418 C373.580037,585.610079 373.679052,585.604196 373.777675,585.597871 L373.777646,584.978778 Z M345.120869,583.655024 L344.914438,583.650943 L344.907897,585.662939 L345.03234,585.657242 C345.37394,585.642799 345.718779,585.634813 346.06633,585.625501 C346.399906,585.617725 346.73604,585.605879 347.074547,585.599033 L347.328869,585.594978 C347.601255,585.590269 347.875126,585.586472 348.150342,585.583502 C348.316167,585.38876 348.531379,585.205093 348.785449,585.056278 C349.376929,584.709802 350.010469,584.632676 350.406546,584.768032 L350.410711,583.851128 C349.301003,583.791734 348.205667,583.741376 347.13156,583.705293 L346.809972,583.694901 C346.467311,583.682183 346.126802,583.676849 345.788862,583.669828 L345.120869,583.655024 Z M355.243439,584.156473 L355.184181,584.529784 C355.125801,584.898623 355.067761,585.267515 355.010017,585.636455 C355.382039,585.644126 355.754619,585.652241 356.127588,585.660653 C356.281879,585.507715 356.475776,585.373205 356.696984,585.276754 C357.189263,585.062092 357.676819,585.083803 357.949076,585.275755 C358.003094,584.970837 358.0574,584.665979 358.112004,584.36118 L357.540281,584.319993 C356.773975,584.264666 356.007669,584.209819 355.243439,584.156473 Z M350.799108,583.872169 L350.792993,585.19654 C350.796263,585.229152 350.796263,585.262037 350.792993,585.296195 C350.783209,585.384866 350.753319,585.479177 350.704745,585.577014 C351.320289,585.579729 351.940525,585.585212 352.564254,585.592525 C353.275788,585.60297 353.991694,585.615817 354.710209,585.630288 C354.787655,585.132066 354.86555,584.633855 354.943994,584.135732 C353.988076,584.069379 353.035825,584.005676 352.091324,583.946537 C351.65884,583.920706 351.227969,583.895816 350.799108,583.872169 Z M375.81016,584.909423 L375.79686,584.910202 L375.520606,584.920194 C375.013138,584.936952 374.493965,584.960075 373.963966,584.974213 L373.96399,585.585388 C374.494504,585.548389 375.013605,585.500321 375.521415,585.457154 L375.810123,585.432833 L375.81016,584.909423 Z M376.634369,584.86009 L375.931029,584.902305 L375.931003,585.422533 L376.010523,585.415744 L376.559908,585.355569 L376.562033,585.348611 C376.577476,585.301191 376.592556,585.247048 376.605092,585.187819 C376.618628,585.12877 376.627712,585.06409 376.633526,584.99723 C376.636882,584.952259 376.637328,584.90606 376.634369,584.86009 Z M377.953984,584.771755 L377.659782,584.797738 L376.859888,584.846421 C376.849391,584.914151 376.833342,584.976829 376.814304,585.034657 C376.789504,585.107786 376.762342,585.174101 376.73309,585.232877 C376.713501,585.272859 376.693618,585.309646 376.674183,585.343181 L377.84274,585.213709 L377.953841,585.198185 L377.953984,584.771755 Z M377.962017,585.267411 L377.886447,585.278318 C377.914233,585.283585 377.939692,585.292488 377.961866,585.304944 L377.962017,585.267411 Z M385.290587,583.892254 L386.413258,583.51721 L385.325314,583.820265 C385.176785,583.860054 385.0189,583.90911 384.847297,583.949989 L384.301057,584.081348 C383.915518,584.171919 383.490644,584.281476 383.024346,584.383584 L382.494865,584.492396 L382.49473,584.698083 L382.463844,584.698083 L382.463888,584.498761 L381.510626,584.694631 C381.065151,584.778157 380.594468,584.856961 380.102609,584.941878 L380.102609,585.275356 C380.635259,585.154712 381.143665,585.044021 381.621909,584.928915 L383.104379,584.545103 C383.560684,584.420466 383.975475,584.290833 384.352565,584.18173 L384.886541,584.024208 C385.030281,583.982083 385.16401,583.934551 385.290587,583.892254 L385.290587,583.892254 Z M378.483003,584.742505 L378.477841,584.727029 L378.034278,584.764807 L378.034254,585.187035 L378.466874,585.12799 C378.472237,585.10842 378.477467,585.087475 378.482186,585.065453 C378.491088,585.026299 378.497084,584.98333 378.50099,584.938908 C378.50426,584.894395 378.503352,584.848065 378.496993,584.803188 C378.494994,584.792287 378.49345,584.780659 378.491088,584.770303 C378.48809,584.760946 378.485547,584.75168 378.483003,584.742505 Z M379.622813,584.622501 C379.309502,584.654687 378.98761,584.683261 378.657934,584.711557 C378.658647,584.72673 378.659092,584.74166 378.65933,584.756313 C378.658876,584.772211 378.65724,584.786927 378.656241,584.801917 C378.649973,584.860965 378.637164,584.914926 378.621085,584.963708 C378.607858,585.002589 378.593701,585.038563 378.578614,585.071398 L378.567124,585.095431 C378.563696,585.102451 378.56025,585.109324 378.556797,585.116049 L378.911591,585.067702 C379.204712,585.027513 379.491382,584.98723 379.770887,584.944268 L380.025895,584.901359 L380.025812,584.575601 L379.758159,584.606587 C379.713211,584.61184 379.668095,584.617142 379.622813,584.622501 Z M371.468317,584.18822 L371.468317,584.885575 L372.03259,584.891488 C372.071743,584.89167 372.110988,584.891761 372.150141,584.891761 C372.513332,584.891761 372.872526,584.885765 373.227269,584.883675 L373.250525,584.883675 C373.427396,584.883675 373.603126,584.881967 373.777693,584.879094 L373.777597,584.283677 C373.511512,584.276855 373.242822,584.267833 372.971727,584.254768 C372.573107,584.238144 372.168764,584.226152 371.759879,584.205077 L371.468317,584.18822 Z M381.454485,584.438544 L381.454653,584.404704 L381.388351,584.41447 C380.979297,584.46739 380.549938,584.515544 380.102659,584.566786 L380.10261,584.888572 L380.686443,584.791853 C380.877451,584.760105 381.064768,584.728611 381.248127,584.696654 C381.210641,584.692177 381.180233,584.675382 381.165058,584.64712 C381.133354,584.588072 381.18032,584.501226 381.2698,584.45317 C381.337024,584.417105 381.409336,584.413198 381.454485,584.438544 Z M368.829422,584.015234 L368.709518,584.616563 L368.667736,584.82782 C368.866829,584.834059 369.065024,584.838835 369.262313,584.844019 L369.977279,584.863966 C370.256181,584.871442 370.533253,584.87768 370.808387,584.878588 L371.282053,584.883604 L371.281885,584.177435 L370.51896,584.133311 C370.239951,584.119078 369.959326,584.099477 369.676898,584.078569 L369.251879,584.046737 C369.111546,584.03579 368.970701,584.025503 368.829422,584.015234 Z M373.963926,584.288126 L373.964021,584.875599 C374.417168,584.866116 374.862351,584.850022 375.29917,584.836952 L375.792954,584.822356 L375.810123,584.821367 L375.810186,584.316449 C375.763732,584.316728 375.717169,584.316905 375.670497,584.316905 C375.546496,584.316905 375.421678,584.315633 375.296223,584.311999 C374.860515,584.303088 374.416085,584.298186 373.963926,584.288126 Z M366.577353,583.823975 L366.566294,583.883245 C366.514607,584.166161 366.463118,584.449113 366.41183,584.732104 C366.936937,584.758504 367.457857,584.782122 367.973906,584.802411 L368.454251,584.82068 C368.507858,584.546941 368.561791,584.273268 368.61606,583.999662 C368.39876,583.983712 368.180294,583.967008 367.961179,583.947264 C367.503515,583.908879 367.042072,583.867639 366.577353,583.823975 Z M376.303633,584.336086 L376.272061,584.312645 L375.930945,584.315461 L375.930981,584.815035 L376.624804,584.777352 C376.622894,584.765821 376.621061,584.754234 376.618628,584.743504 C376.614177,584.729424 376.61027,584.715434 376.606546,584.701626 C376.601731,584.685637 376.593464,584.664198 376.586833,584.645666 L376.58438,584.638399 L376.582381,584.63314 L376.583653,584.638853 L376.566666,584.609056 C376.53487,584.556186 376.491084,584.502407 376.438395,584.451807 C376.395808,584.411691 376.351244,584.372621 376.303633,584.336086 Z M377.469102,584.305186 L376.767104,584.30991 C376.798553,584.369586 376.825798,584.433881 376.845373,584.50277 L376.861906,584.568177 L376.867995,584.628406 C376.868486,584.633732 376.868946,584.639285 376.869355,584.645212 C376.870536,584.671284 376.871445,584.697174 376.871808,584.722429 C376.871373,584.736786 376.870384,584.75046 376.86931,584.763957 L377.654241,584.720703 L377.954032,584.696034 L377.953989,584.28925 L377.631798,584.299605 C377.577743,584.301412 377.52351,584.303269 377.469102,584.305186 Z M364.325773,583.597784 L364.208551,584.291078 C364.190939,584.395779 364.17336,584.500485 364.155813,584.605196 C364.84219,584.647497 365.523316,584.686575 366.197871,584.72129 L366.304063,584.131927 L366.363658,583.803749 C365.690539,583.739582 365.010737,583.67049 364.325773,583.597784 Z M378.034147,584.343522 L378.03434,584.689564 L378.441215,584.65722 C378.422075,584.629865 378.398476,584.602526 378.371266,584.576444 C378.335928,584.543195 378.298591,584.510946 378.257621,584.481694 C378.217468,584.45217 378.175862,584.424736 378.134438,584.399845 C378.100553,584.379132 378.06685,584.360782 378.034147,584.343522 Z M381.498995,584.398173 L381.498907,584.521847 C381.494819,584.573355 381.451578,584.631131 381.384626,584.667105 C381.378715,584.670274 381.372766,584.673194 381.366802,584.675868 L381.502541,584.65148 L382.46393,584.459983 L382.463997,584.256094 L381.498995,584.398173 Z M379.466563,584.236054 C379.13513,584.251773 378.794562,584.263247 378.445545,584.274123 L378.451117,584.280931 C378.489816,584.326443 378.526335,584.377225 378.560038,584.43055 C378.593378,584.484147 378.622811,584.544013 378.641706,584.610328 L378.649617,584.640643 L378.977258,584.61399 C379.193917,584.595986 379.407,584.577346 379.616272,584.557094 L379.890364,584.526637 C379.935698,584.521655 379.980857,584.516716 380.025839,584.51181 L380.025804,584.202071 L379.60802,584.227235 C379.561048,584.230131 379.513895,584.233068 379.466563,584.236054 Z M361.827664,583.318836 L361.78239,583.528951 L361.674088,584.038266 L361.590979,584.432498 C362.062746,584.466579 362.533114,584.499774 363.001594,584.53184 C363.316484,584.552481 363.630526,584.572618 363.94357,584.592133 L363.966513,584.4533 L364.112901,583.575092 C363.617702,583.522079 363.119895,583.467253 362.620052,583.411107 C362.356461,583.380711 362.092304,583.349939 361.827664,583.318836 Z M381.454485,584.348983 L381.454686,584.106231 L381.265712,584.123499 C380.893702,584.150812 380.505541,584.173662 380.10266,584.197517 L380.102687,584.503442 L380.684839,584.440029 C380.922867,584.413761 381.155115,584.387333 381.381174,584.359419 L381.454485,584.348983 Z M385.378719,583.784851 L386.365832,583.516394 L385.290793,583.750497 C385.138449,583.78202 384.976203,583.822445 384.800513,583.853695 L384.241373,583.955076 C383.846841,584.024299 383.411429,584.110509 382.934684,584.186817 L382.494889,584.251547 L382.494889,584.453808 L383.017079,584.34979 C383.483559,584.250589 383.908614,584.143758 384.294516,584.05564 L384.84112,583.927642 C384.988363,583.893536 385.125663,583.853358 385.255592,583.818032 L385.378719,583.784851 Z M382.518309,584.009085 L381.499052,584.102178 L381.498907,584.342714 L382.463976,584.206436 L382.463844,584.094157 C382.466117,584.065189 382.486152,584.033438 382.518309,584.009085 Z M358.674091,582.937684 L358.656676,583.031303 C358.585209,583.41939 358.514337,583.807588 358.443953,584.195879 C358.865159,584.228499 359.285991,584.260814 359.706238,584.292689 C359.823312,584.218387 359.955425,584.153947 360.099062,584.103877 C360.591342,583.932365 361.078897,583.96516 361.350973,584.135945 C361.40971,583.851679 361.468987,583.567529 361.528816,583.283497 C360.581914,583.171595 359.62896,583.055564 358.674091,582.937684 Z M373.963964,583.619927 L373.96389,584.196627 C374.416386,584.209367 374.861182,584.216868 375.297313,584.228333 C375.426015,584.232829 375.554053,584.23472 375.681274,584.235384 L375.810123,584.23561 L375.810257,583.738619 C375.567479,583.728073 375.321855,583.717226 375.074112,583.697172 C374.709919,583.670752 374.339595,583.64668 373.963964,583.619927 Z M375.930945,584.101243 L375.931022,584.235491 L376.159408,584.234731 C376.133618,584.217715 376.107733,584.201521 376.081926,584.186 C376.030963,584.15484 375.980273,584.127133 375.930945,584.101243 Z M377.280421,583.806548 L376.33045,583.762767 L376.380891,583.812634 C376.441029,583.8725 376.500623,583.937453 376.55849,584.007038 C376.616629,584.075534 376.67168,584.151933 376.722462,584.232148 L376.724068,584.234742 L377.467921,584.234147 L377.793018,584.225155 C377.846843,584.223745 377.900487,584.22237 377.953949,584.221018 L377.953841,583.878677 L378.034147,583.878677 L378.04414,583.895392 L378.052225,583.906021 L378.061854,583.917104 L378.073209,583.928368 L378.07757,583.933001 L378.08293,583.936635 L378.124263,583.96734 C378.134801,583.975334 378.146066,583.983601 378.155332,583.991413 C378.174954,584.006948 378.194485,584.023481 378.214107,584.040469 C378.253261,584.074808 378.293413,584.111508 378.333112,584.151752 C378.351881,584.170478 378.370609,584.189948 378.389184,584.210135 C378.756999,584.200955 379.115459,584.19122 379.463837,584.176734 L379.747054,584.160915 C379.840723,584.155793 379.933649,584.150801 380.025817,584.145875 L380.025793,584.066813 L380.102556,584.066813 L380.102659,584.141771 L380.40106,584.125782 C380.696675,584.109791 380.983874,584.093535 381.262079,584.074717 L381.454719,584.058255 L381.454662,583.817895 L381.144709,583.829167 C380.569581,583.839978 379.957388,583.838979 379.312038,583.844702 C378.666779,583.840523 377.988453,583.819356 377.280421,583.806548 Z M385.218015,583.732286 L386.300516,583.503404 L385.254274,583.670555 C385.098388,583.693902 384.93169,583.725606 384.752093,583.747227 L384.180235,583.818357 L384.004789,583.839712 C383.648734,583.883935 383.261719,583.936272 382.844204,583.979331 L382.686294,583.993769 C382.689984,583.997595 382.693299,584.00202 382.695948,584.006948 C382.718023,584.0481 382.68541,584.10851 382.623183,584.14185 C382.576398,584.167013 382.526071,584.169739 382.49473,584.152024 L382.494895,584.202066 L382.927416,584.140941 C383.302002,584.083269 383.650958,584.019315 383.974725,583.962079 L384.793154,583.819084 C384.943746,583.793155 385.084794,583.760484 385.218015,583.732286 Z M371.46831,583.399788 L371.468248,584.081965 L371.765329,584.10088 C372.17367,584.124317 372.577558,584.138579 372.975633,584.157566 C373.245376,584.172153 373.512741,584.182716 373.777539,584.191074 L373.777662,583.606447 C373.428381,583.580738 373.07467,583.55202 372.717184,583.516303 C372.306046,583.481823 371.889612,583.442715 371.46831,583.399788 Z M355.502207,582.543741 L355.471962,582.730388 C355.406173,583.137271 355.340887,583.544232 355.276045,583.951261 C355.781656,583.98952 356.288051,584.02842 356.794678,584.06767 L358.1458,584.172747 C358.221951,583.74866 358.29868,583.324686 358.376009,582.900821 L357.733339,582.821086 L357.119314,582.74459 C356.580055,582.677279 356.040789,582.610202 355.502207,582.543741 Z M369.010019,583.1184 L368.993608,583.19916 C368.94657,583.431138 368.899791,583.663169 368.853267,583.895253 L369.057482,583.911447 L369.68537,583.962337 C369.967401,583.984873 370.247642,584.00613 370.526228,584.021937 L371.282007,584.070101 L371.281912,583.380582 C370.538689,583.303163 369.780616,583.214307 369.010019,583.1184 Z M385.312027,583.635896 L386.33867,583.478058 L385.218936,583.592975 C385.059325,583.607783 384.888358,583.630493 384.704855,583.642212 L384.12037,583.682183 L383.953178,583.693184 C383.585896,583.718195 383.18598,583.749934 382.755087,583.770483 L381.499009,583.816282 L381.499059,584.054467 L382.840207,583.939905 C383.257567,583.89926 383.644425,583.84927 384.00044,583.807156 L384.747733,583.719156 C384.901751,583.701559 385.046358,583.676419 385.182757,583.655465 L385.312027,583.635896 Z M333.458927,582.474877 C333.299315,582.767574 333.175133,583.009035 333.041866,583.301641 C332.934306,583.537791 332.831018,583.780486 332.735538,584.029848 L333.688851,583.895211 L333.787399,583.883199 C333.853863,583.824545 333.923423,583.768773 333.995992,583.716159 C333.813397,583.313269 333.631983,582.899569 333.458927,582.474877 Z M350.807603,581.987957 L350.800078,583.638899 C351.233469,583.66529 351.668862,583.692964 352.105859,583.721609 C353.056561,583.78668 354.014829,583.856396 354.976582,583.928691 C355.051414,583.454758 355.126715,582.980783 355.202533,582.506889 C354.002012,582.359137 352.805426,582.214862 351.620574,582.078255 C351.348937,582.047735 351.077916,582.017609 350.807603,581.987957 Z M367.009013,582.856283 L366.745243,582.908199 C366.697147,583.169076 366.64922,583.429983 366.601463,583.69092 C367.061853,583.736979 367.518832,583.780487 367.97208,583.821173 C368.195638,583.842657 368.418445,583.860943 368.640289,583.878521 L368.730134,583.427371 L368.797434,583.091807 C368.416474,583.043914 368.032524,582.994406 367.645862,582.94381 C367.434336,582.915255 367.222038,582.886065 367.009013,582.856283 Z M366.51877,582.954539 L366.203354,583.018301 C365.533381,583.156464 365.107342,583.254013 364.352523,583.439632 L364.350454,583.451803 C364.898388,583.513171 365.443023,583.572193 365.983548,583.628197 L366.387956,583.669566 L366.51877,582.954539 Z M344.921698,581.437673 L344.915375,583.383868 C345.123224,583.388819 345.332097,583.39501 345.541983,583.400751 C345.879265,583.411143 346.219397,583.417582 346.561586,583.429184 L346.818602,583.438996 C347.993484,583.482268 349.194151,583.543455 350.411664,583.615566 L350.419049,581.945614 C349.124303,581.80548 347.84691,581.677118 346.597055,581.569194 L346.285171,581.542644 C345.938804,581.511394 345.594181,581.487818 345.252279,581.462661 L344.921698,581.437673 Z M338.590297,581.173639 C338.47002,581.173639 338.35047,581.17482 338.231557,581.17591 C338.151857,581.176697 338.07248,581.177444 337.993426,581.177854 L337.860008,581.178181 L336.796688,581.185267 C336.102555,581.209885 335.437038,581.224238 334.80486,581.254217 C334.58102,581.268349 334.361196,581.281376 334.145622,581.294144 C333.994704,581.541403 333.842188,581.795788 333.693484,582.055454 C333.867358,582.573805 334.051679,583.077167 334.241632,583.567721 C334.336745,583.518575 334.433947,583.475697 334.533784,583.44054 C335.074846,583.250315 335.669506,583.239868 336.224194,583.456074 C336.336351,583.4998 336.4468,583.54905 336.554902,583.603098 L337.074342,583.561737 C337.191091,583.55233 337.308702,583.542711 337.42714,583.532746 L339.019349,583.445446 L339.293423,583.430911 L339.570222,583.422462 C340.237342,583.404294 340.924582,583.375314 341.629759,583.370195 L341.865194,583.36941 C342.220846,583.367321 342.581039,583.361325 342.945048,583.361325 L343.062508,583.361597 L344.288982,583.374406 C344.367963,583.374684 344.447096,583.375396 344.52638,583.376446 L344.532923,581.408676 C344.264134,581.388872 343.99697,581.370419 343.731386,581.35696 L342.49283,581.285285 C342.084762,581.264209 341.681237,581.252309 341.283344,581.235685 C340.487648,581.197258 339.713028,581.193806 338.964026,581.178453 C338.838753,581.17482 338.714116,581.173639 338.590297,581.173639 Z M362.249957,582.127129 L362.091084,582.10057 C362.013778,582.453282 361.937328,582.806183 361.861529,583.159231 C362.121166,583.191321 362.380015,583.223 362.638312,583.254312 C363.140391,583.313696 363.640398,583.371717 364.137749,583.427877 L364.257229,582.722425 C364.511688,582.668537 364.766122,582.616141 365.020616,582.565235 C364.106297,582.426363 363.181549,582.279172 362.249957,582.127129 Z M358.930559,581.562305 L358.909669,581.672114 C358.841469,582.034405 358.773897,582.39681 358.706866,582.759315 C359.662407,582.883015 360.615654,583.004703 361.562998,583.122328 C361.613271,582.883988 361.663998,582.645793 361.715143,582.407705 L361.792107,582.050649 L361.699727,582.035277 C360.781451,581.881294 359.857274,581.722957 358.930559,581.562305 Z M368.821555,582.971799 L368.911853,582.525567 L368.578006,582.5779 C368.138497,582.647709 367.802999,582.705315 367.40675,582.779855 L367.663395,582.816357 C367.955116,582.856199 368.245293,582.895416 368.533806,582.93378 L368.821555,582.971799 Z M339.069131,581.944353 C339.345749,582.233416 339.331214,582.61523 339.036791,582.825623 C338.742277,583.036106 338.278523,582.9945 338.001996,582.703983 C337.725287,582.413194 337.739732,581.984505 338.034699,581.775566 C338.329304,581.566808 338.792332,581.655199 339.069131,581.944353 Z M355.753961,581.006985 L355.618238,581.831057 L355.534179,582.346551 L356.33861,582.450913 L357.143387,582.555909 C357.565368,582.611078 357.987353,582.666103 358.409013,582.7208 C358.482686,582.317221 358.557025,581.913769 358.63193,581.510413 C358.20275,581.435874 357.773028,581.360846 357.343147,581.285557 L355.753961,581.006985 Z M350.816062,580.164055 L350.80869,581.759373 C351.087245,581.791548 351.366537,581.824228 351.646465,581.857325 C352.833641,582.001198 354.032207,582.152807 355.234535,582.307829 L355.291574,581.951862 L355.452877,580.954264 C354.010238,580.702541 352.571186,580.454565 351.148462,580.21815 L350.816062,580.164055 Z M362.248958,579.991223 C361.216797,580.074799 360.195719,580.181813 359.168555,580.313989 C359.099538,580.671364 359.031239,581.028866 358.963575,581.386482 C359.922259,581.55835 360.877873,581.727602 361.826909,581.892019 C361.96451,581.257656 362.105241,580.624105 362.248958,579.991223 Z M344.928555,579.294763 L344.92247,581.175169 L345.016182,581.182723 C345.357244,581.211357 345.701329,581.236095 346.047274,581.266148 L346.307064,581.289827 C347.65001,581.410347 349.025175,581.555685 350.420049,581.714762 L350.426878,580.101159 C348.841789,579.846023 347.279718,579.607539 345.75828,579.402014 L345.204148,579.330068 C345.112117,579.31822 345.020251,579.30645 344.928555,579.294763 Z M358.84697,580.361046 C357.919824,580.510751 357.002902,580.678787 356.084221,580.866331 L356.731959,580.983776 C357.376666,581.100732 358.021418,581.21737 358.665077,581.332988 L358.693515,581.179491 L358.84697,580.361046 Z M335.197554,578.519809 L335.195786,578.540465 C335.110537,579.396789 334.784632,580.21568 334.349637,580.958117 L334.642108,580.94208 C334.691256,580.939339 334.740602,580.936557 334.790143,580.933722 C335.425592,580.907286 336.094379,580.896658 336.791692,580.876127 L337.859372,580.875128 L337.933705,580.875491 L338.119388,580.875423 L338.231012,580.875128 C338.305503,580.874765 338.380176,580.874492 338.455213,580.874492 C338.624726,580.874492 338.795602,580.875945 338.967841,580.881941 C339.719387,580.901745 340.496823,580.909739 341.294608,580.95289 C341.693592,580.971876 342.098298,580.986229 342.507456,581.009667 L343.748828,581.088791 C344.009023,581.103526 344.270586,581.122996 344.533669,581.143845 L344.539891,579.283737 L344.539891,579.245621 C343.217874,579.079893 341.932503,578.933991 340.695588,578.830247 C339.889718,578.749669 339.103379,578.704702 338.343657,578.649469 C337.964023,578.618673 337.589659,578.60968 337.222743,578.590058 L336.142799,578.540185 C335.821502,578.534314 335.5063,578.526732 335.197554,578.519809 Z M334.116813,578.501849 C333.680149,578.505732 333.258709,578.506479 332.85377,578.509878 C332.864148,578.604667 332.875246,578.699093 332.886901,578.793051 L332.904783,578.933627 C332.915726,579.017822 332.981831,579.271954 333.044599,579.534104 L333.072037,579.650405 C333.135692,579.924988 333.186076,580.181941 333.155056,580.232685 C333.186216,580.181813 333.217466,580.131395 333.247898,580.080431 L333.372044,579.872804 L333.494642,579.664968 L333.574925,579.520531 L333.565213,579.538744 L333.594059,579.485553 C333.799447,579.108714 333.969137,578.858454 334.124903,578.50191 L334.116813,578.501849 Z M346.383174,579.233992 C347.707082,579.426592 349.059093,579.642178 350.427887,579.870293 L350.430256,579.324071 C349.078125,579.25033 347.732537,579.22028 346.383174,579.233992 Z M333.610908,574.433345 C333.578204,574.529094 333.390794,574.718229 333.364813,574.818883 C333.256982,575.235945 332.988177,575.551443 332.898061,575.994122 C332.753854,576.702052 332.75825,577.448249 332.821708,578.181521 L333.199479,578.180991 L333.68767,578.181172 C333.82984,578.181172 333.973735,578.181082 334.119357,578.180627 L334.249214,578.182545 C334.407665,577.719318 334.485906,577.200614 334.453206,576.662183 L334.446726,576.562507 C334.430398,576.330963 334.403412,576.105496 334.319394,575.861945 C334.243812,575.642741 334.161327,575.420992 334.062217,575.201515 C333.950934,574.954967 333.799861,574.657455 333.610908,574.433345 Z" id="54"></path>
        </g>
    </g>
</svg>
