<?xml version="1.0" encoding="UTF-8"?>
<svg width="61px" height="61px" viewBox="0 0 61 61" version="1.1" xmlns="http://www.w3.org/2000/svg" xmlns:xlink="http://www.w3.org/1999/xlink">
    <title>sing-svgrepo-com</title>
    <g id="页面-1" stroke="none" stroke-width="1" fill="none" fill-rule="evenodd">
        <g id="形状库素材-其他" transform="translate(-317.000000, -318.000000)" fill="#545458" fill-rule="nonzero">
            <g id="sing-svgrepo-com" transform="translate(317.683940, 318.403288)">
                <path d="M40.0712186,19.8339844 C42.4247342,22.1875 43.601492,25.2734375 43.601492,28.3544922 C43.601492,31.4404297 42.4247342,34.5214844 40.0712186,36.875 C39.4657498,37.4804687 38.8065701,38.0126953 38.1132108,38.4619141 C34.7391873,38.2177734 30.9891873,35.7324219 27.9081326,32.4902344 C24.7245389,29.140625 22.2831326,25.0244141 21.6825467,21.7041016 C21.6678983,21.6308594 21.6581326,21.5625 21.648367,21.4892578 C22.0536404,20.9082031 22.5126248,20.3515625 23.0350858,19.8339844 C25.3886014,17.4804688 28.4745389,16.3037109 31.5555936,16.3037109 C34.6366483,16.3037109 37.7177029,17.4804688 40.0712186,19.8339844 L40.0712186,19.8339844 Z M53.0887967,18.359375 L55.2372342,18.359375 L55.2372342,19.0771484 C60.6132108,20.3076172 61.2284451,22.890625 58.1083279,26.9580078 C58.4403592,22.9199219 58.0350858,22.0556641 55.2372342,21.8652344 L55.2372342,32.0703125 C55.242117,32.1240234 55.2469998,32.1777344 55.2469998,32.2314453 C55.2469998,33.5595703 53.8553983,34.8730469 52.1366483,35.1708984 C50.4178983,35.46875 49.0262967,34.6337891 49.0262967,33.3056641 C49.0262967,31.4941406 51.5116483,29.9267578 53.0887967,30.4785156 L53.0887967,18.359375 L53.0887967,18.359375 Z M46.3798123,41.6162109 C47.8055936,41.6162109 48.9579373,42.7685547 48.9579373,44.1943359 C48.9579373,45.6201172 47.8055936,46.7724609 46.3798123,46.7724609 C44.9540311,46.7724609 43.8016873,45.6201172 43.8016873,44.1943359 C43.8016873,42.7685547 44.9540311,41.6162109 46.3798123,41.6162109 L46.3798123,41.6162109 Z M35.4960233,5.22949219 L36.5116483,5.22949219 L36.5116483,5.56640625 C39.0458279,6.14746094 39.3387967,7.36328125 37.8690701,9.28222656 C38.0253201,7.37792969 37.8348904,6.96777344 36.5116483,6.87988281 L36.5116483,11.6943359 C36.5165311,11.71875 36.5165311,11.7431641 36.5165311,11.7724609 C36.5165311,12.3974609 35.8573514,13.0175781 35.0516873,13.1591797 C34.2411404,13.3007812 33.5868436,12.9052734 33.5868436,12.2802734 C33.5868436,11.4257812 34.7587186,10.6835937 35.5009061,10.9472656 L35.5009061,5.22949219 L35.4960233,5.22949219 Z M15.6180936,10.6884766 C15.9940701,10.625 16.3456326,10.6347656 16.6581326,10.7080078 L16.6581326,3.3984375 L8.92864044,5.62011719 L8.92864044,14.1064453 C8.93352325,14.1503906 8.93352325,14.1992187 8.93352325,14.2480469 C8.93352325,14.2480469 8.93352325,14.2480469 8.93352325,14.2480469 C8.93352325,15.390625 7.73235138,16.5234375 6.257742,16.7822266 C4.77824982,17.0361328 3.58196075,16.3183594 3.58196075,15.1757812 C3.58196075,14.0332031 4.78313263,12.9003906 6.257742,12.6416016 C6.81438263,12.5439453 7.33196075,12.5878906 7.76164825,12.7392578 L7.76164825,2.29492187 L7.82512482,2.29492187 L17.8251248,0 L17.8251248,11.7675781 C17.8446561,11.8554687 17.8495389,11.9433594 17.8495389,12.03125 C17.8495389,12.03125 17.8495389,12.03125 17.8495389,12.03125 C17.8495389,12.9833984 16.8485623,13.9355469 15.6132108,14.1455078 C14.3778592,14.3603516 13.3768826,13.7597656 13.3768826,12.8027344 C13.3768826,11.8505859 14.382742,10.9033203 15.6180936,10.6884766 L15.6180936,10.6884766 L15.6180936,10.6884766 Z M3.27922638,58.1396484 C2.71282013,58.6669922 2.06340607,59.0771484 1.35051544,59.3798828 C-0.0947970599,60 -0.304757997,60.1074219 0.364187315,58.6523437 C0.715749815,57.890625 1.16008575,57.1923828 1.71672638,56.5722656 C1.09660919,55.9082031 0.779226378,55.2832031 0.68645294,54.5654297 C0.593679503,53.828125 0.754812315,53.0859375 1.07707794,52.1435547 C2.13176544,49.0771484 10.7841092,38.4960937 16.1747342,31.9091797 C17.5565701,30.2197266 18.7137967,28.8037109 19.5145779,27.7929687 C19.5731717,26.5332031 19.8270779,25.2832031 20.2762967,24.0917969 C21.4579373,27.3095703 23.7430936,30.8203125 26.5360623,33.7548828 C29.1141873,36.4697266 32.1464139,38.7207031 35.1737576,39.8486328 C34.1190701,40.1806641 33.0253201,40.3662109 31.9266873,40.4003906 C31.0526639,41.0888672 29.8026639,42.0996094 28.2841092,43.3300781 C21.6532498,48.7011719 10.0712186,58.0761719 7.6249295,58.8183594 C6.75090607,59.0820312 6.023367,59.2285156 5.31047638,59.1455078 C4.58293732,59.0576172 3.93840607,58.7548828 3.27922638,58.1396484 L3.27922638,58.1396484 L3.27922638,58.1396484 Z M19.7050076,30.5566406 C19.1044217,31.2939453 18.4012967,32.1582031 17.6298123,33.1005859 C12.3270779,39.5800781 3.81145294,49.9902344 2.86418732,52.7539062 C2.62981232,53.4375 2.507742,53.9355469 2.55657013,54.3212891 C2.60051544,54.6582031 2.80559357,54.9951172 3.23039825,55.4150391 L4.48528107,56.6699219 C4.86614044,57.0507812 5.19328888,57.2265625 5.53508575,57.265625 C5.94035919,57.3144531 6.44817169,57.2021484 7.09758575,57.0068359 C9.19231232,56.3769531 20.5839139,47.1484375 27.1122342,41.8652344 C27.8886014,41.2353516 28.5966092,40.6640625 29.2118436,40.1660156 C26.9511014,39.7167969 24.7928983,38.6181641 23.0399686,36.8652344 C21.2430936,35.0830078 20.1346951,32.8710937 19.7050076,30.5566406 L19.7050076,30.5566406 L19.7050076,30.5566406 Z" id="形状"></path>
            </g>
        </g>
    </g>
</svg>
