<?xml version="1.0" encoding="UTF-8"?>
<svg width="61px" height="53px" viewBox="0 0 61 53" version="1.1" xmlns="http://www.w3.org/2000/svg" xmlns:xlink="http://www.w3.org/1999/xlink">
    <title>dagger-svgrepo-com</title>
    <g id="页面-1" stroke="none" stroke-width="1" fill="none" fill-rule="evenodd">
        <g id="形状库素材-其他" transform="translate(-468.000000, -161.000000)" fill="#545458" fill-rule="nonzero">
            <g id="dagger-svgrepo-com" transform="translate(468.264564, 161.685917)">
                <path d="M25.2886192,49.9869755 C23.2673089,48.9681965 21.7236544,47.23744 20.9399588,45.1092506 C20.904417,45.0151919 20.8709062,44.9189753 20.8389187,44.8230126 L19.1000384,39.5483625 C18.8531501,38.7981777 18.5152496,38.0769339 18.0962377,37.4055756 C17.1367373,35.8619211 15.7701569,34.6130093 14.1439948,33.7940257 C13.9323944,33.6874005 13.6753513,33.7412208 13.5244258,33.9237531 C13.3735003,34.1061585 13.3685499,34.3686597 13.5127478,34.5566502 C13.5213794,34.5680743 14.3945641,35.7182309 14.8493716,37.3937707 C15.0287305,38.0518008 15.1172041,38.7047536 15.1146654,39.3386662 C6.71652993,46.9339388 0.307717141,50.8706958 0.243488115,50.9097917 C0.0675564368,51.0170516 -0.02612147,51.2198935 0.00637384726,51.42337 C0.0388691645,51.6268466 0.191064029,51.7904656 0.391494131,51.8375584 C0.475144186,51.8572333 1.19257986,52.0157749 2.50368975,52.0157749 C5.12629034,52.0157749 10.1238417,51.3793236 17.1682171,47.7294394 C19.6570284,49.9053564 22.0371835,51.0332993 24.1316082,51.0332993 C24.4805521,51.0332993 24.8220068,51.0019464 25.1544491,50.9391136 C25.3683343,50.8987484 25.532588,50.7264978 25.5629254,50.5110894 C25.5932628,50.295681 25.4828295,50.0848422 25.2886192,49.9869755 Z M18.1354606,39.8659535 L18.3126616,40.4033956 C12.604656,44.9310341 8.65393629,46.9934713 6.30589574,47.9294887 C8.75561109,46.0950265 12.1454058,43.4042619 15.9597975,39.9433837 C16.4788341,39.4725824 17.0101833,38.9828715 17.5445789,38.4828715 C17.7802969,38.9267626 17.9786961,39.389694 18.1354606,39.8659535 Z M17.0062483,37.595597 C16.6967812,37.885897 16.3884565,38.1726428 16.0824166,38.4548189 C16.0341814,38.0152436 15.9505313,37.5714794 15.8294355,37.1270806 C15.6970424,36.6395239 15.5335504,36.1925863 15.3633308,35.7974382 C15.9895003,36.3167286 16.5423015,36.9217 17.0062483,37.595597 Z M2.00762843,50.9801136 C2.49670834,50.6546527 3.12313174,50.2285324 3.86976243,49.7017529 C4.76973039,49.5923351 9.42366911,48.6927479 18.6511968,41.4302984 L19.8498424,45.0662197 C18.9069705,45.6333645 17.9640986,46.1675063 17.0415362,46.6529051 C17.0294774,46.6581095 17.0176724,46.6636946 17.0058675,46.6699144 C9.5125235,50.6137797 4.32977426,51.0480237 2.00762843,50.9801136 Z M18.1315256,47.2203038 C18.8215434,46.8457191 19.5193041,46.4470168 20.2179534,46.0295282 C20.904417,47.5933653 21.9725736,48.9407786 23.3240488,49.9576535 C21.4544257,49.6733195 19.5924186,48.4508101 18.1315256,47.2203038 Z" id="形状"></path>
                <path d="M59.672346,2.01868283 C59.1637181,0.944941081 58.1017813,0.239691148 56.9203988,0.113010185 C47.5066577,-0.896756412 38.7692254,4.95036974 36.1161605,14.0455044 L34.9497563,18.0444594 C34.8521434,18.1166853 34.7571962,18.1900536 34.6645337,18.2643105 C34.642574,18.2474282 34.6199796,18.2318152 34.5982738,18.2145521 L30.6994704,15.1202616 C29.3988961,14.0879006 27.5007126,14.3061016 26.4682246,15.6069298 C25.4357367,16.9077579 25.6541915,18.8059414 26.9550197,19.8384294 L27.0530134,19.9161135 C27.930387,20.6126049 29.2114133,20.4652336 29.9076509,19.5877331 C29.9665486,19.5136031 30.0170687,19.4356652 30.0640346,19.3563309 C30.9838044,19.4762843 31.8469612,19.827513 32.5816601,20.3772677 C32.0834408,21.0309821 31.5692278,21.6933281 31.0467641,22.3528815 C28.8975035,25.0650981 26.6023947,27.7432961 24.2227474,30.3207079 C22.2061337,29.0731924 20.3328295,28.6015025 18.6501813,28.9192204 C18.4364231,28.9595857 18.2720425,29.1318362 18.241705,29.3472447 C18.2113676,29.56278 18.321674,29.7736188 18.5158843,29.8714855 C19.9840126,30.6115156 21.2174383,31.7421242 22.0823723,33.1403113 C22.4489601,33.7357626 22.7457337,34.373864 22.9644424,35.0367177 L24.704719,40.3106062 C24.8862358,40.8595993 25.115607,41.3951374 25.3873745,41.9032575 C26.3560142,43.7047167 27.8335357,45.14365 29.6605087,46.0643083 C29.7331155,46.1008655 29.8111804,46.1185095 29.8883568,46.1185095 C30.0357281,46.1185095 30.1803069,46.0542805 30.2793161,45.9349617 C30.4303685,45.7529372 30.4355728,45.4904359 30.2922634,45.3023185 C30.2835049,45.2907674 29.4070199,44.1294406 28.9562743,42.4658327 C28.7354077,41.6552269 28.6529,40.8589647 28.7068473,40.0949439 C31.7144413,37.6919406 34.7995924,34.9146064 37.8801739,31.8352943 C38.0062202,31.7091211 38.057121,31.526208 38.0138362,31.3531958 C37.6810131,30.020507 37.6944682,28.5880474 38.0519167,27.3193338 C38.2465078,26.6263965 38.5408697,25.9994654 38.9254822,25.4472988 C39.9124005,26.0748647 40.6601736,26.9978078 41.0701732,28.0917322 C41.0035324,28.1554535 40.9391764,28.2223482 40.8802786,28.296605 C40.1837872,29.1742325 40.3310316,30.454878 41.2085321,31.1512425 L41.3066527,31.2291805 C41.859327,31.6677403 42.5197689,31.8806101 43.1758951,31.8806101 C44.0640581,31.8806101 44.9443512,31.4905393 45.5380254,30.7425123 C46.0381487,30.1124078 46.2629502,29.325158 46.1709225,28.5261032 C46.0790217,27.7269215 45.6814618,27.0112629 45.0512303,26.5111397 L41.1525539,23.4168493 C40.8569226,23.1821467 40.5928982,22.9172338 40.3622576,22.6288378 L43.100115,19.6076618 C43.4034893,19.2731886 43.6002382,18.8821023 43.6890926,18.471722 C43.7087675,18.3807098 43.7267923,18.2891897 43.7511638,18.1993199 L44.3627358,15.9382297 L44.3947234,15.9283288 C45.6237064,15.5472704 46.5863802,14.5854852 46.9687079,13.3568829 L46.9834324,13.3094093 L47.028875,13.2953195 C48.2587466,12.9138804 49.2214204,11.9505719 49.6023518,10.7205734 L49.6158069,10.6769078 L49.6595994,10.6633258 C50.8878209,10.2823943 51.8499869,9.32175152 52.2329493,8.09416475 L52.2488162,8.04351775 C53.2401772,7.71475653 54.0572567,6.99402055 54.518411,6.07323527 C55.1278251,6.56726564 55.9008582,6.83839845 56.6906468,6.82456255 C57.6350419,6.8094573 58.534756,6.3943804 59.1592754,5.68557629 C60.0466768,4.67834839 60.25485,3.24830056 59.672346,2.01868283 Z M37.09102,14.3299654 C39.6139767,5.6804989 47.9464869,0.130146387 56.8979314,1.13216996 C57.7838096,1.23130606 58.5042917,1.78689983 58.8254368,2.61832299 C58.8602169,2.70844672 58.8882695,2.79933206 58.9118794,2.8905982 C58.1232333,2.54927044 56.8151698,2.1093143 55.1316332,1.99951567 C52.5796083,1.8327233 48.647548,2.42817461 44.3970082,6.20842087 C39.9838649,10.1324843 38.3127678,13.9560153 37.6930719,16.5306346 C37.1994224,16.7384269 36.711231,16.9703368 36.2470303,17.2242065 L37.09102,14.3299654 Z M31.0976649,23.9144338 C31.1513584,25.0115316 31.0401634,26.8789968 30.1330871,29.3158918 C29.9798768,29.7274145 29.739843,30.1026338 29.4280911,30.4118471 C27.6266319,32.1990896 25.859699,33.8781835 24.1600416,35.4186647 L23.9291472,34.718746 C23.726813,34.1059046 23.4638041,33.5127381 23.1468478,32.9490205 C23.6340237,32.4410273 24.137828,31.9072664 24.6807283,31.3231123 C26.9075461,28.9256941 29.0617571,26.4376444 31.0976649,23.9144338 Z M20.475885,29.8989034 C21.4239613,30.0410705 22.4410901,30.4362186 23.5181322,31.0804129 C23.1963524,31.4240255 22.8863775,31.7520251 22.5849073,32.0678389 C21.9946603,31.2395891 21.284333,30.5076829 20.475885,29.8989034 Z M26.4976735,41.8018366 C26.89206,41.5074747 27.287589,41.2065122 27.6827371,40.9005993 C27.7105358,41.5021435 27.8081487,42.1149848 27.9763374,42.7323959 C28.1087304,43.221095 28.2726033,43.6687941 28.4432037,44.0647039 C27.6744863,43.4288873 27.0178525,42.6667706 26.4976735,41.8018366 Z M27.9023344,39.4388178 C27.2792113,39.9339905 26.6488529,40.420151 26.0217948,40.8900637 C25.8892749,40.597225 25.7699561,40.2976588 25.6691699,39.9923806 L24.5077161,36.4724776 C26.4288748,34.7428636 28.4379994,32.8343984 30.4881239,30.789859 C30.5890371,30.6891997 30.6970586,30.5942525 30.8115538,30.5093331 C33.5054918,28.5097286 35.8225602,27.9282402 36.9083608,27.7594168 C36.6929524,28.9113504 36.7102155,30.1428722 36.9626889,31.3162578 C33.9167606,34.3479693 30.869563,37.0798608 27.9023344,39.4388178 Z M37.1807629,26.6981147 C36.3198909,26.7810031 34.099166,27.161173 31.3536925,28.9038613 C32.3990008,25.6926639 32.1363727,23.5189049 31.9938248,22.7919491 C32.4499017,22.2140148 32.8996318,21.6349381 33.3369223,21.0619542 L33.4294578,21.1629944 C34.3034041,22.1158942 35.5928082,22.4815934 36.7915807,22.1813925 C36.7748253,23.2305089 37.24093,24.2320248 38.0700684,24.8994481 C37.6964992,25.4423484 37.3976946,26.0436387 37.1807629,26.6981147 Z M44.4202373,27.3067672 C44.8378529,27.6381941 45.1014965,28.1125495 45.1624252,28.6422486 C45.223354,29.1719477 45.0744594,29.6937768 44.7429056,30.1113924 C44.0585999,30.9735337 42.8002949,31.1184933 41.9381535,30.4340607 L41.8400329,30.3561227 C41.4010923,30.0076866 41.3274701,29.3670465 41.6757792,28.9281058 C42.0240884,28.4891652 42.6644747,28.4152891 43.103923,28.7638522 C43.3233934,28.9381337 43.6430153,28.9013226 43.8171699,28.6818523 C43.9915783,28.462255 43.9547672,28.14276 43.73517,27.9684785 C43.2182913,27.5582251 42.5619113,27.4429683 41.9669677,27.5951632 C41.4264792,26.249527 40.451112,25.1319927 39.1747822,24.4129069 L39.0455626,24.3401732 C38.0506473,23.779629 37.5841618,22.6238874 37.911019,21.5297091 C37.9704245,21.3308022 37.9027683,21.1156477 37.7400378,20.9866819 C37.5775612,20.8575892 37.3526327,20.8404529 37.1723852,20.943651 C36.1812781,21.510415 34.9496294,21.3186165 34.1778656,20.4769116 L34.0775871,20.3674938 C33.0874954,19.287913 31.7776548,18.5918024 30.3445606,18.3708088 C30.3577618,17.756825 30.096403,17.1437298 29.5793974,16.7334764 C29.3596732,16.559068 29.0403052,16.596006 28.8661506,16.8154763 C28.6917421,17.0350736 28.7285532,17.3545686 28.9481505,17.5288501 C29.3870911,17.8772862 29.4607133,18.5179263 29.1124041,18.956867 C28.7637142,19.3959345 28.123074,19.4693029 27.6841334,19.1209937 L27.5861397,19.0433096 C26.7239983,18.3590039 26.5792926,17.1008258 27.2635983,16.2386844 C27.9481578,15.3765431 29.206082,15.2319643 30.0683504,15.9160161 L33.9670268,19.0103065 C35.203626,19.9918936 36.7597201,20.4365463 38.3118792,20.2661998 C38.4987273,21.8159471 39.2848347,23.2310167 40.5214339,24.2126037 L44.4202373,27.3067672 Z M42.3480261,18.925641 L39.7963821,21.7413095 C39.4806952,21.1039697 39.3031133,20.3979581 39.2857233,19.6665596 C39.2821691,19.515888 39.2118472,19.3746095 39.0936709,19.2809316 C38.9757484,19.1872537 38.8221573,19.1508234 38.674532,19.1815416 C37.6233847,19.4002503 36.5478659,19.2697613 35.5953469,18.828155 C37.1160262,17.7136672 39.323169,16.8930335 40.9966779,16.5458667 C41.7455934,16.3901177 42.2803699,16.8021482 42.5304315,17.2394387 C42.7822702,17.6797756 42.8665549,18.3540534 42.3480261,18.925641 Z M43.1860499,16.4029381 C42.6149701,15.6907068 41.7129711,15.3600415 40.7906627,15.5517131 C40.1966076,15.6749669 39.5384505,15.8553412 38.863538,16.085601 C38.9396989,15.8276695 39.0285533,15.5579329 39.1283241,15.2799457 C42.3537382,14.5322995 43.2121985,15.3088868 43.4064088,15.5852239 L43.1860499,16.4029381 Z M44.1845193,14.9273207 C44.062281,14.7701754 43.8848261,14.5970362 43.626006,14.4392563 C42.751425,13.90613 41.393857,13.8095325 39.5860511,14.1467984 C39.7146361,13.8603065 39.8554068,13.5669601 40.0115366,13.2665053 C42.7452052,11.8885008 45.1059392,12.7390911 45.9660497,13.1513754 C45.6742265,13.9844487 45.018735,14.6380362 44.1845193,14.9273207 Z M46.7265163,12.3260451 L46.6370272,12.3538439 C45.9453593,11.9856059 43.6564704,10.9670808 40.8409288,11.8367114 C41.2480089,11.2002601 41.7185563,10.5436262 42.2675494,9.87201402 C44.942828,8.91746408 47.6555523,10.0485804 48.5985512,10.5192547 C48.2959385,11.3821577 47.6038898,12.0537699 46.7265163,12.3260451 Z M49.3588908,9.69354365 L49.2695287,9.72134237 C48.563771,9.33812611 46.1579751,8.18276526 43.4353499,8.54948 C43.8992967,8.06090782 44.4050051,7.56763906 44.9565369,7.07170467 C47.1375312,6.32443931 50.1515989,7.45593641 51.2212787,7.91493277 C50.9135887,8.76438067 50.2267443,9.42431487 49.3588908,9.69354365 Z M51.881086,7.09518761 C51.2019846,6.78292792 48.8223373,5.77519228 46.4958757,5.80946469 C47.3177787,5.20195458 48.1490749,4.69154961 48.988368,4.27977302 C50.2771374,4.07439246 51.5014239,4.21808269 52.6279705,4.70792421 C53.1355829,4.92879082 53.5088983,5.17428278 53.7311611,5.339425 C53.4208055,6.17008655 52.7357382,6.8287514 51.881086,7.09518761 Z M58.3975395,5.01434489 C57.9552985,5.51624522 57.3433457,5.79854829 56.674653,5.80933775 C56.0109107,5.81746158 55.3853759,5.55737211 54.9272681,5.06981542 L54.6885037,4.81569188 C54.6822838,4.80909127 54.6753024,4.80363307 54.6688288,4.79741326 L54.6695904,4.79665166 C54.605996,4.735596 53.5104215,3.71186657 51.5972597,3.32255744 C52.7257103,3.04558563 53.8652043,2.94010279 55.0123144,3.00940921 C56.939566,3.12568151 58.3462578,3.72747956 58.9229228,4.01739872 C58.834703,4.3773859 58.6583906,4.71820593 58.3975395,5.01434489 Z" id="形状"></path>
                <path d="M34.5274441,23.111571 C34.1190948,23.111571 33.7353708,23.2704934 33.4467209,23.5591432 C33.1580711,23.847793 32.9990218,24.2316439 32.9990218,24.6398664 C32.9990218,25.0480888 33.1580711,25.4319397 33.446594,25.7205895 C33.7352438,26.0092394 34.1190948,26.1682887 34.5274441,26.1682887 C34.9356665,26.1682887 35.3193905,26.0093663 35.6082942,25.7205895 C36.2039994,25.1247574 36.2039994,24.1551022 35.6081673,23.5591432 C35.3193905,23.2704934 34.9356665,23.111571 34.5274441,23.111571 Z M34.8902239,25.0025192 C34.7932457,25.0993705 34.6645337,25.15281 34.5275711,25.15281 C34.3906084,25.15281 34.2617695,25.0994974 34.1649182,25.0025192 C34.06794,24.9056679 34.0146274,24.7768291 34.0146274,24.6398664 C34.0146274,24.5029037 34.06794,24.3740648 34.1649182,24.2772136 C34.1649182,24.2772136 34.1649182,24.2772136 34.1650452,24.2772136 C34.2618964,24.1803623 34.3906084,24.1270496 34.5275711,24.1270496 C34.6645337,24.1270496 34.7933726,24.1803623 34.8900969,24.2772136 C35.0901462,24.4772629 35.0901462,24.8025968 34.8902239,25.0025192 Z" id="形状"></path>
            </g>
        </g>
    </g>
</svg>
