<?xml version="1.0" encoding="UTF-8"?>
<svg width="61px" height="61px" viewBox="0 0 61 61" version="1.1" xmlns="http://www.w3.org/2000/svg" xmlns:xlink="http://www.w3.org/1999/xlink">
    <title>swords-svgrepo-com</title>
    <g id="页面-1" stroke="none" stroke-width="1" fill="none" fill-rule="evenodd">
        <g id="形状库素材-其他" transform="translate(-76.000000, -314.000000)" fill="#545458" fill-rule="nonzero">
            <g id="swords-svgrepo-com" transform="translate(76.235417, 314.928740)">
                <g id="编组" transform="translate(30.000000, 29.918700) scale(-1, 1) rotate(-180.000000) translate(-30.000000, -29.918700) ">
                    <path d="M56.5515283,59.4610936 C55.2738023,58.8090676 54.3089263,57.3617537 54.3089263,56.0840277 C54.3089263,55.8103605 53.565678,55.0016034 50.7230897,52.1590151 L47.1372531,48.5731785 L44.8554683,50.8549632 C42.9648992,52.7455324 42.5736836,53.2022567 42.5736836,53.5022498 C42.5736836,54.6495706 41.1912662,55.392819 40.1088419,54.8454845 C38.8047899,54.1671326 39.0527435,52.1590151 40.4743437,51.7677996 C40.8263765,51.6765772 41.4263628,51.1678132 42.7689853,49.8117217 L44.594658,47.986049 L43.5122337,46.9036247 L42.4432784,45.8340573 L42.4432784,44.0867502 L42.4432784,42.3394431 L44.1777287,42.4306655 L45.8993221,42.5218879 L46.9425636,43.5522726 L47.9858052,44.5955141 L50.0459623,42.535357 C51.1675694,41.4137499 52.0932626,40.3968343 52.0932626,40.292755 C52.0932626,39.9407222 52.6020265,39.2623703 53.0189557,39.0407427 C53.5013937,38.7927892 54.270968,38.8454411 54.753406,39.1582911 C55.209518,39.4582842 55.5229803,40.2278585 55.4182888,40.775193 C55.3007405,41.4400758 54.6230008,42.1049586 53.9838317,42.2096501 C53.5142506,42.2745466 53.2014006,42.535357 51.0757347,44.6481659 L48.7027276,47.0083162 L52.3148902,50.6204788 C55.4966544,53.802243 55.9919492,54.2454982 56.343982,54.2454982 C57.8825183,54.2454982 59.6690082,55.8624001 59.9690014,57.5313417 C60.0865497,58.2090813 59.8643099,58.9529419 59.395341,59.3961971 C59.0561651,59.7090471 58.8737202,59.7874127 58.1825115,59.8265955 C57.4772215,59.865166 57.2690629,59.8131264 56.5515283,59.4610936 Z M46.2109477,45.56039 C46.0021769,44.3347037 46.0413597,44.3867433 45.0244441,44.2171554 C44.5156802,44.1387898 44.0852818,44.0867502 44.072425,44.099607 C44.0203853,44.1516466 44.3595613,45.8989538 44.4244578,45.9773193 C44.4893542,46.0293589 46.2629873,46.3948608 46.3150269,46.355678 C46.3413528,46.3428212 46.2893132,45.9907884 46.2109477,45.56039 Z" id="形状"></path>
                    <path d="M0.885042064,59.3306884 C0.650557613,59.2002832 0.363421301,58.926616 0.23301611,58.7307021 C-0.106159832,58.2090813 -0.0669770517,57.0746174 0.29791259,56.331369 C0.897898914,55.0793567 2.39725249,53.9840756 3.51885958,53.9840756 C4.02762349,53.9840756 4.13170275,53.8928532 7.66549975,50.3590562 L11.2776623,46.7468936 L9.02159129,44.4908226 C7.27428418,42.7435155 6.70062379,42.2482206 6.4398134,42.2482206 C5.97023227,42.2482206 5.25330984,41.7394567 4.97964261,41.2049791 C4.57557018,40.4096911 4.91474613,39.457672 5.73574782,39.0664564 C6.66144101,38.6232012 7.60060327,38.9880909 8.01753254,39.94011 C8.17426366,40.2921428 8.91751203,41.1400826 10.0905465,42.3131171 L11.929076,44.1387898 L12.9459916,43.1218742 L13.9500504,42.1178155 L15.7365403,42.1178155 L17.5101733,42.1178155 L17.4452768,43.786757 L17.3803803,45.4428417 L16.3499957,46.4860832 L15.319611,47.5293248 L17.4452768,49.6549906 C18.6060667,50.8157805 19.6621651,51.7671873 19.7797134,51.7671873 C20.1446031,51.7671873 20.7837722,52.4192133 20.9270342,52.9408341 C21.2270274,54.0361152 20.4445962,55.0273171 19.2580926,55.0273171 C18.7627978,55.0273171 18.6060667,54.9624206 18.1756683,54.5185532 C17.7844528,54.1273376 17.6669044,53.90571 17.6669044,53.5800032 C17.6669044,53.1759307 17.43242,52.9022635 15.2547145,50.724558 L12.8425246,48.3123681 L9.26954482,51.8847357 C5.70942189,55.4448586 5.70942189,55.4448586 5.63166856,56.0968846 C5.34453225,58.4435658 2.55459584,60.347604 0.885042064,59.3306884 Z M14.7073801,45.7563039 L15.4377716,45.6001851 L15.5810336,44.8697935 C15.6593992,44.4657211 15.7634784,44.0353228 15.7898044,43.9177744 C15.8289871,43.7745124 15.7898044,43.68329 15.672256,43.68329 C15.2547145,43.68329 13.9378058,43.99614 13.8594402,44.1136883 C13.8202574,44.1920539 13.7418919,44.5177607 13.6898522,44.8440798 C13.6506694,45.1697867 13.585773,45.5481454 13.5465902,45.6785506 C13.4682246,45.9516056 13.6641385,45.9650747 14.7073801,45.7563039 Z" id="形状"></path>
                    <path d="M35.1405878,38.5319788 L29.7290785,33.1204695 L24.5263399,38.3103512 L19.3364582,43.4873761 L19.4019669,41.8312914 L19.4668634,40.1623498 L17.6803735,40.1623498 L15.9067405,40.1623498 L21.1223359,34.9467544 L26.3385435,29.7305468 L15.1114525,18.4899867 L3.88436145,7.23718197 L2.84111992,5.54191449 C1.74583877,3.7554246 0.546478353,1.48649673 0.402604081,0.886510405 C0.363421301,0.690596503 0.376278151,0.508151682 0.441786862,0.456112052 C0.806676503,0.234484451 4.40598221,2.07301397 6.71409287,3.66358996 C7.61407235,4.27643313 11.3039882,7.90145254 25.8824314,22.4927526 L43.942632,40.5523409 L42.2345077,40.4739754 L40.5135265,40.382753 L40.5918921,42.1692429 C40.618218,43.1469757 40.6310748,43.942876 40.6047489,43.942876 C40.5778108,43.9434881 38.1135812,41.5049723 35.1405878,38.5319788 Z" id="路径"></path>
                    <path d="M33.4061375,25.9751222 L31.7500528,24.3190375 L42.142673,13.9392741 C53.3440504,2.77769179 52.6528416,3.39053496 56.0562334,1.4344571 C57.4772215,0.612843173 58.8339252,0 59.1988149,0 C59.668396,0 59.2637113,1.12160709 57.868437,3.62501941 C56.1731696,6.67637843 56.4082662,6.41556805 45.4548424,17.3818487 C39.8217055,23.0284547 35.1797705,27.6440637 35.1405878,27.6440637 C35.101405,27.6440637 34.3189738,26.9008154 33.4061375,25.9751222 Z" id="路径"></path>
                </g>
            </g>
        </g>
    </g>
</svg>
