<?xml version="1.0" encoding="UTF-8"?>
<svg width="28px" height="61px" viewBox="0 0 28 61" version="1.1" xmlns="http://www.w3.org/2000/svg" xmlns:xlink="http://www.w3.org/1999/xlink">
    <title>telephone-cellphone-svgrepo-com</title>
    <g id="页面-1" stroke="none" stroke-width="1" fill="none" fill-rule="evenodd">
        <g id="形状库素材-其他" transform="translate(-171.000000, -397.000000)" fill="#545458" fill-rule="nonzero">
            <g id="telephone-cellphone-svgrepo-com" transform="translate(171.661411, 397.448314)">
                <path d="M16.1165625,54.7587891 L11.1525,54.7587891 C10.6359375,54.7587891 10.2174609,55.1772656 10.2174609,55.6938281 C10.2174609,56.2103906 10.6359375,56.6288672 11.1525,56.6288672 L16.1166797,56.6288672 C16.6332422,56.6288672 17.0517187,56.2103906 17.0517187,55.6938281 C17.0517187,55.1772656 16.633125,54.7587891 16.1165625,54.7587891 Z" id="路径"></path>
                <path d="M7.81605469,43.0426172 L5.12777344,43.0426172 C4.16226562,43.0426172 3.376875,43.8280078 3.376875,44.7935156 L3.376875,45.9690234 C3.376875,46.9345312 4.16226562,47.7199219 5.12777344,47.7199219 L7.81605469,47.7199219 C8.7815625,47.7199219 9.56695312,46.9345312 9.56695312,45.9690234 L9.56695312,44.7935156 C9.56683594,43.8280078 8.78144531,43.0426172 7.81605469,43.0426172 Z M7.69675781,45.8498437 L5.24683594,45.8498437 L5.24683594,44.9126953 L7.69675781,44.9126953 L7.69675781,45.8498437 Z" id="形状"></path>
                <path d="M8.1075,29.0061328 C8.6240625,29.0061328 9.04253906,28.5876562 9.04253906,28.0710937 C9.04253906,27.5545312 8.6240625,27.1360547 8.1075,27.1360547 L4.83621094,27.1360547 C4.31964844,27.1360547 3.90117187,27.5545312 3.90117187,28.0710937 C3.90117187,28.5876562 4.31964844,29.0061328 4.83621094,29.0061328 L8.1075,29.0061328 Z" id="路径"></path>
                <path d="M7.81605469,37.5269531 L5.12777344,37.5269531 C4.16226562,37.5269531 3.376875,38.3123437 3.376875,39.2778516 L3.376875,40.4534766 C3.376875,41.4189844 4.16226562,42.204375 5.12777344,42.204375 L7.81605469,42.204375 C8.7815625,42.204375 9.56695312,41.4189844 9.56695312,40.4534766 L9.56695312,39.2777344 C9.56683594,38.3123437 8.78144531,37.5269531 7.81605469,37.5269531 Z M7.69675781,40.3341797 L5.24683594,40.3341797 L5.24683594,39.3969141 L7.69675781,39.3969141 L7.69675781,40.3341797 Z" id="形状"></path>
                <path d="M7.81605469,48.5581641 L5.12777344,48.5581641 C4.16226562,48.5581641 3.376875,49.3435547 3.376875,50.3090625 L3.376875,51.4846875 C3.376875,52.4499609 4.16226562,53.2354688 5.12777344,53.2354688 L7.81605469,53.2354688 C8.7815625,53.2354688 9.56695312,52.4500781 9.56695312,51.4846875 L9.56695312,50.3090625 C9.56683594,49.3435547 8.78144531,48.5581641 7.81605469,48.5581641 Z M7.69675781,51.3653906 L5.24683594,51.3653906 L5.24683594,50.4282422 L7.69675781,50.4282422 L7.69675781,51.3653906 Z" id="形状"></path>
                <path d="M10.6008984,10.2977344 L16.6681641,10.2977344 C17.1847266,10.2977344 17.6032031,9.87925781 17.6032031,9.36269531 C17.6032031,8.84613281 17.1847266,8.42765625 16.6681641,8.42765625 L10.6008984,8.42765625 C10.0843359,8.42765625 9.66585937,8.84613281 9.66585937,9.36269531 C9.66585937,9.87914063 10.0843359,10.2977344 10.6008984,10.2977344 Z" id="路径"></path>
                <path d="M7.81605469,32.0112891 L5.12777344,32.0112891 C4.16226562,32.0112891 3.376875,32.7966797 3.376875,33.7621875 L3.376875,34.9378125 C3.376875,35.9030859 4.16226562,36.6885937 5.12777344,36.6885937 L7.81605469,36.6885937 C8.7815625,36.6885937 9.56695312,35.9032031 9.56695312,34.9378125 L9.56695312,33.7621875 C9.56683594,32.7966797 8.78144531,32.0112891 7.81605469,32.0112891 Z M7.69675781,34.8183984 L5.24683594,34.8183984 L5.24683594,33.88125 L7.69675781,33.88125 L7.69675781,34.8183984 Z" id="形状"></path>
                <path d="M22.1405859,32.0112891 L19.4521875,32.0112891 C18.4866797,32.0112891 17.7012891,32.7966797 17.7012891,33.7621875 L17.7012891,34.9378125 C17.7012891,35.9030859 18.4866797,36.6885937 19.4521875,36.6885937 L22.1405859,36.6885937 C23.1060938,36.6885937 23.8914844,35.9032031 23.8914844,34.9378125 L23.8914844,33.7621875 C23.8914844,32.7966797 23.1060938,32.0112891 22.1405859,32.0112891 Z M22.0214063,34.8183984 L19.5714844,34.8183984 L19.5714844,33.88125 L22.0214063,33.88125 L22.0214063,34.8183984 Z" id="形状"></path>
                <path d="M22.4327344,29.0061328 C22.9492969,29.0061328 23.3677734,28.5876562 23.3677734,28.0710937 C23.3677734,27.5545312 22.9492969,27.1360547 22.4327344,27.1360547 L19.1615625,27.1360547 C18.645,27.1360547 18.2265234,27.5545312 18.2265234,28.0710937 C18.2265234,28.5876562 18.645,29.0061328 19.1615625,29.0061328 L22.4327344,29.0061328 Z" id="路径"></path>
                <path d="M22.1405859,43.0426172 L19.4521875,43.0426172 C18.4866797,43.0426172 17.7012891,43.8280078 17.7012891,44.7935156 L17.7012891,45.9690234 C17.7012891,46.9345312 18.4866797,47.7199219 19.4521875,47.7199219 L22.1405859,47.7199219 C23.1060938,47.7199219 23.8914844,46.9345312 23.8914844,45.9690234 L23.8914844,44.7935156 C23.8914844,43.8280078 23.1060938,43.0426172 22.1405859,43.0426172 Z M22.0214063,45.8498437 L19.5714844,45.8498437 L19.5714844,44.9126953 L22.0214063,44.9126953 L22.0214063,45.8498437 Z" id="形状"></path>
                <path d="M22.1405859,37.5269531 L19.4521875,37.5269531 C18.4866797,37.5269531 17.7012891,38.3123437 17.7012891,39.2778516 L17.7012891,40.4534766 C17.7012891,41.4189844 18.4866797,42.204375 19.4521875,42.204375 L22.1405859,42.204375 C23.1060938,42.204375 23.8914844,41.4189844 23.8914844,40.4534766 L23.8914844,39.2777344 C23.8914844,38.3123437 23.1060938,37.5269531 22.1405859,37.5269531 Z M22.0214063,40.3341797 L19.5714844,40.3341797 L19.5714844,39.3969141 L22.0214063,39.3969141 L22.0214063,40.3341797 Z" id="形状"></path>
                <path d="M23.1874219,4.98375 L23.1874219,3.53039062 C23.1874219,1.58367187 21.60375,0 19.6569141,0 C17.7101953,0 16.1265234,1.58367187 16.1265234,3.53039062 L16.1265234,4.89515625 L5.01515625,4.89515625 C2.24988281,4.89515625 0,7.14492187 0,9.9103125 L0,54.9848437 C0,57.7501172 2.24976562,60 5.01515625,60 L22.2539062,60 C25.0192969,60 27.2690625,57.7502344 27.2690625,54.9848437 L27.2690625,9.9103125 C27.2690625,7.46414062 25.5079687,5.42273437 23.1874219,4.98375 Z M17.9963672,3.53039062 L17.9964844,3.53039062 C17.9964844,2.61480469 18.7414453,1.86996094 19.6569141,1.86996094 C20.5725,1.86996094 21.3172266,2.61492187 21.3172266,3.53039062 L21.3172266,4.89515625 L17.9963672,4.89515625 L17.9963672,3.53039062 L17.9963672,3.53039062 Z M25.3989844,54.9848437 L25.3989844,54.9848437 C25.3989844,56.7189844 23.9880469,58.1299219 22.2537891,58.1299219 L5.01515625,58.1299219 C3.28101562,58.1299219 1.87007812,56.7191016 1.87007812,54.9848437 L1.87007812,9.9103125 C1.87007812,8.17617187 3.28089844,6.76523437 5.01515625,6.76523437 L22.2539062,6.76523437 C23.9880469,6.76523437 25.3989844,8.17605469 25.3989844,9.9103125 L25.3989844,54.9848437 L25.3989844,54.9848437 Z" id="形状"></path>
                <path d="M19.7621484,11.2535156 L7.50609375,11.2535156 C5.22914062,11.2535156 3.37675781,13.1058984 3.37675781,15.3828516 L3.37675781,20.0016797 C3.37675781,22.2786328 5.22914062,24.1310156 7.50609375,24.1310156 L19.7621484,24.1310156 C22.0391016,24.1310156 23.8914844,22.2786328 23.8914844,20.0016797 L23.8914844,15.3828516 C23.8914844,13.1058984 22.0391016,11.2535156 19.7621484,11.2535156 Z M22.0214062,20.0017969 C22.0214062,21.2475 21.0078516,22.2610547 19.7621484,22.2610547 L7.50609375,22.2610547 C6.26039062,22.2610547 5.24683594,21.2475 5.24683594,20.0017969 L5.24683594,15.3829687 C5.24683594,14.1372656 6.26039062,13.1237109 7.50609375,13.1237109 L19.7621484,13.1237109 C21.0078516,13.1237109 22.0214062,14.1372656 22.0214062,15.3829687 L22.0214062,20.0017969 Z" id="形状"></path>
                <path d="M13.6345312,31.1657812 C15.3410156,31.1657812 16.7291016,29.7774609 16.7291016,28.0710937 C16.7291016,26.3647266 15.3408984,24.9765234 13.6345312,24.9765234 C11.9281641,24.9765234 10.5398437,26.3647266 10.5398437,28.0710937 C10.5398437,29.7774609 11.9280469,31.1657812 13.6345312,31.1657812 Z M13.6345312,26.8466016 C14.3097656,26.8466016 14.8590234,27.3958594 14.8590234,28.0710937 C14.8590234,28.7464453 14.3097656,29.2957031 13.6345312,29.2957031 C12.9591797,29.2957031 12.4099219,28.7464453 12.4099219,28.0710937 C12.4099219,27.3958594 12.9591797,26.8466016 13.6345312,26.8466016 Z" id="形状"></path>
                <path d="M10.5391406,40.4533594 C10.5391406,41.4188672 11.3245313,42.2042578 12.2899219,42.2042578 L14.9783203,42.2042578 C15.9435938,42.2042578 16.7291016,41.4188672 16.7291016,40.4533594 L16.7291016,39.2777344 C16.7291016,38.3122266 15.9437109,37.5268359 14.9783203,37.5268359 L12.2899219,37.5268359 C11.3246484,37.5268359 10.5391406,38.3122266 10.5391406,39.2777344 L10.5391406,40.4533594 L10.5391406,40.4533594 Z M12.4092188,39.3969141 L14.8590234,39.3969141 L14.8590234,40.3341797 L12.4092188,40.3341797 L12.4092188,39.3969141 Z" id="形状"></path>
                <path d="M10.5391406,34.9376953 C10.5391406,35.9029687 11.3245313,36.6884766 12.2899219,36.6884766 L14.9783203,36.6884766 C15.9435938,36.6884766 16.7291016,35.9030859 16.7291016,34.9376953 L16.7291016,33.7620703 C16.7291016,32.7965625 15.9437109,32.0111719 14.9783203,32.0111719 L12.2899219,32.0111719 C11.3246484,32.0111719 10.5391406,32.7965625 10.5391406,33.7620703 L10.5391406,34.9376953 L10.5391406,34.9376953 Z M12.4092188,33.8813672 L14.8590234,33.8813672 L14.8590234,34.8185156 L12.4092188,34.8185156 L12.4092188,33.8813672 Z" id="形状"></path>
                <path d="M10.5391406,51.4846875 C10.5391406,52.4499609 11.3245313,53.2354688 12.2899219,53.2354688 L14.9783203,53.2354688 C15.9435938,53.2354688 16.7291016,52.4500781 16.7291016,51.4846875 L16.7291016,50.3090625 C16.7291016,49.3435547 15.9437109,48.5581641 14.9783203,48.5581641 L12.2899219,48.5581641 C11.3246484,48.5581641 10.5391406,49.3435547 10.5391406,50.3090625 L10.5391406,51.4846875 L10.5391406,51.4846875 Z M12.4092188,50.4282422 L14.8590234,50.4282422 L14.8590234,51.3653906 L12.4092188,51.3653906 L12.4092188,50.4282422 Z" id="形状"></path>
                <path d="M22.1405859,48.5581641 L19.4521875,48.5581641 C18.4866797,48.5581641 17.7012891,49.3435547 17.7012891,50.3090625 L17.7012891,51.4846875 C17.7012891,52.4499609 18.4866797,53.2354688 19.4521875,53.2354688 L22.1405859,53.2354688 C23.1060938,53.2354688 23.8914844,52.4500781 23.8914844,51.4846875 L23.8914844,50.3090625 C23.8914844,49.3435547 23.1060938,48.5581641 22.1405859,48.5581641 Z M22.0214063,51.3653906 L19.5714844,51.3653906 L19.5714844,50.4282422 L22.0214063,50.4282422 L22.0214063,51.3653906 Z" id="形状"></path>
                <path d="M10.5391406,45.9690234 C10.5391406,46.9345312 11.3245313,47.7199219 12.2899219,47.7199219 L14.9783203,47.7199219 C15.9435938,47.7199219 16.7291016,46.9345312 16.7291016,45.9690234 L16.7291016,44.7935156 C16.7291016,43.8280078 15.9437109,43.0426172 14.9783203,43.0426172 L12.2899219,43.0426172 C11.3246484,43.0426172 10.5391406,43.8280078 10.5391406,44.7935156 L10.5391406,45.9690234 L10.5391406,45.9690234 Z M12.4092188,44.9126953 L14.8590234,44.9126953 L14.8590234,45.8498437 L12.4092188,45.8498437 L12.4092188,44.9126953 Z" id="形状"></path>
            </g>
        </g>
    </g>
</svg>
