<?xml version="1.0" encoding="UTF-8"?>
<svg width="61px" height="61px" viewBox="0 0 61 61" version="1.1" xmlns="http://www.w3.org/2000/svg" xmlns:xlink="http://www.w3.org/1999/xlink">
    <title>suitcase-bag-2-svgrepo-com</title>
    <g id="页面-1" stroke="none" stroke-width="1" fill="none" fill-rule="evenodd">
        <g id="形状库素材-其他" transform="translate(-476.000000, -68.000000)" fill="#545458" fill-rule="nonzero">
            <g id="suitcase-bag-2-svgrepo-com" transform="translate(476.441307, 68.671743)">
                <path d="M60,11 L56,11 L54.5,11 L50.5,11 L49.5,11 L45.5,11 L44.5,11 L44,11 L44,8 L42,8 L42,6.889 C42,3.09 38.91,0 35.111,0 L24.889,0 C21.09,0 18,3.09 18,6.889 L18,8 L16,8 L16,11 L15.5,11 L14.5,11 L10.5,11 L9.5,11 L5.5,11 L4,11 L0,11 L0,15.245 C0,17.458 0.356,19.587 1,21.588 L1,51.384 C1,53.402 2.367,55.152 4.324,55.641 L13.755,58 C19.055,59.325 24.506,59.988 29.958,59.992 C29.973,59.992 29.985,60 30,60 C30.015,60 30.027,59.992 30.042,59.992 C35.494,59.989 40.945,59.325 46.245,58 L55.676,55.642 C57.633,55.152 59,53.402 59,51.385 L59,21.588 C59.644,19.587 60,17.457 60,15.245 L60,11 Z M42,11 L40.5,11 L39.5,11 L36,11 L36,10 L42,10 L42,11 Z M30.5,11 L29.5,11 L26,11 L26,8 L24,8 L24,6.444 C24,6.173 24.175,6.027 24.25,5.976 C24.324,5.925 24.525,5.821 24.777,5.923 C28.146,7.316 31.855,7.316 35.222,5.923 C35.472,5.821 35.675,5.925 35.749,5.976 C35.825,6.027 36,6.173 36,6.444 L36,8 L34,8 L34,11 L30.5,11 Z M20,6.889 C20,4.193 22.193,2 24.889,2 L35.112,2 C37.807,2 40,4.193 40,6.889 L40,8 L38,8 L38,6.444 C38,5.587 37.574,4.791 36.862,4.314 C36.149,3.836 35.25,3.749 34.459,4.076 C31.584,5.264 28.416,5.264 25.541,4.076 C24.749,3.748 23.851,3.836 23.138,4.314 C22.426,4.791 22,5.587 22,6.444 L22,8 L20,8 L20,6.889 Z M18,10 L24,10 L24,11 L20.5,11 L19.5,11 L18,11 L18,10 Z M2,13 L4.153,13 C4.327,13.294 4.633,13.5 5,13.5 C5.368,13.5 5.682,13.296 5.856,13 L9.5,13 L10.5,13 L14.5,13 L15.5,13 L16,13 L19.5,13 L20.5,13 L24.5,13 L25.5,13 L26,13 L29.5,13 L30.5,13 L34,13 L34.5,13 L35.5,13 L39.5,13 L40.5,13 L44,13 L44.5,13 L45.5,13 L49.5,13 L50.5,13 L54.144,13 C54.318,13.296 54.632,13.5 55,13.5 C55.366,13.5 55.673,13.294 55.847,13 L58,13 L58,15.245 C58,25.587 49.587,34 39.245,34 L36,34 L36,28 L24,28 L24,34 L20.755,34 C10.413,34 2,25.587 2,15.245 L2,13 Z M34,36 L34,39 L26,39 L26,36 L26,30 L34,30 L34,36 Z M7,54.25 L7,53.35 C7,52.797 6.553,52.35 6,52.35 C5.447,52.35 5,52.797 5,53.35 L5,53.75 L4.809,53.702 C3.744,53.436 3,52.482 3,51.385 L3,25.938 C3.594,26.92 4.257,27.853 5,28.72 L5,29.35 C5,29.903 5.447,30.35 6,30.35 C6.16,30.35 6.306,30.304 6.441,30.237 C10.168,33.798 15.205,36 20.755,36 L24,36 L24,41 L29,41 L29,57.977 C24.031,57.901 19.071,57.268 14.239,56.06 L7,54.25 Z M57,51.385 C57,52.483 56.256,53.436 55.191,53.702 L54.946,53.763 C54.827,53.343 54.458,53.03 54,53.03 C53.447,53.03 53,53.477 53,54.03 L53,54.25 L45.761,56.06 C40.929,57.267 35.969,57.901 31,57.977 L31,41 L36,41 L36,36 L39.245,36 C44.613,36 49.496,33.934 53.185,30.577 C53.365,30.844 53.654,31.03 54,31.03 C54.553,31.03 55,30.583 55,30.03 L55,29.03 C55,28.94 54.971,28.859 54.949,28.776 C55.712,27.892 56.393,26.942 57,25.938 L57,51.385 L57,51.385 Z" id="形状"></path>
                <path d="M28.568,36 L29,36 L29,37 C29,37.553 29.447,38 30,38 C30.553,38 31,37.553 31,37 L31,36 L31.432,36 C32.297,36 33,35.297 33,34.432 L33,32.569 C33,31.703 32.297,31 31.432,31 L28.569,31 C27.703,31 27,31.703 27,32.568 L27,34.431 C27,35.297 27.703,36 28.568,36 Z M29,33 L31,33 L31,34 L29,34 L29,33 Z" id="形状"></path>
                <path d="M38,32 L38.5,32 C39.053,32 39.5,31.553 39.5,31 C39.5,30.447 39.053,30 38.5,30 L38,30 C37.447,30 37,30.447 37,31 C37,31.553 37.447,32 38,32 Z" id="路径"></path>
                <path d="M42.376,31.688 C42.441,31.688 42.508,31.682 42.575,31.668 C42.916,31.599 43.254,31.52 43.587,31.429 C44.12,31.283 44.435,30.734 44.289,30.201 C44.143,29.667 43.591,29.353 43.061,29.499 C42.771,29.578 42.476,29.647 42.178,29.707 C41.637,29.816 41.286,30.344 41.396,30.886 C41.492,31.36 41.91,31.688 42.376,31.688 Z" id="路径"></path>
                <path d="M46.924,30.002 C47.089,30.002 47.257,29.961 47.411,29.874 C47.714,29.705 48.009,29.528 48.3,29.341 C48.764,29.043 48.899,28.424 48.6,27.959 C48.302,27.495 47.685,27.358 47.218,27.659 C46.962,27.823 46.7,27.98 46.435,28.13 C45.953,28.4 45.781,29.009 46.051,29.49 C46.233,29.818 46.573,30.002 46.924,30.002 Z" id="路径"></path>
                <path d="M53.052,22.919 C53.192,22.985 53.338,23.017 53.483,23.017 C53.856,23.017 54.214,22.807 54.386,22.449 C54.534,22.138 54.673,21.823 54.803,21.504 C55.011,20.992 54.764,20.409 54.252,20.201 C53.742,19.994 53.157,20.239 52.949,20.752 C52.835,21.034 52.712,21.313 52.581,21.586 C52.343,22.083 52.554,22.681 53.052,22.919 Z" id="路径"></path>
                <path d="M50.743,27.015 C51.01,27.015 51.275,26.909 51.472,26.7 C51.707,26.449 51.935,26.191 52.156,25.926 C52.51,25.501 52.452,24.871 52.027,24.518 C51.602,24.164 50.97,24.224 50.619,24.647 C50.424,24.881 50.222,25.11 50.014,25.332 C49.636,25.735 49.657,26.368 50.059,26.746 C50.252,26.925 50.498,27.015 50.743,27.015 Z" id="路径"></path>
                <path d="M54.74,18.363 C54.786,18.369 54.831,18.372 54.875,18.372 C55.368,18.372 55.798,18.008 55.865,17.506 C55.911,17.166 55.947,16.822 55.971,16.477 C56.011,15.926 55.597,15.447 55.046,15.408 C54.506,15.374 54.017,15.782 53.977,16.333 C53.955,16.638 53.922,16.94 53.882,17.239 C53.81,17.786 54.193,18.289 54.74,18.363 Z" id="路径"></path>
                <path d="M16.407,31.429 C16.739,31.518 17.075,31.597 17.415,31.666 C17.482,31.68 17.55,31.687 17.616,31.687 C18.081,31.687 18.498,31.361 18.595,30.887 C18.705,30.346 18.357,29.818 17.816,29.707 C17.515,29.645 17.22,29.576 16.927,29.497 C16.397,29.356 15.846,29.67 15.701,30.203 C15.558,30.736 15.874,31.285 16.407,31.429 Z" id="路径"></path>
                <path d="M7.414,21.576 C7.282,21.302 7.16,21.024 7.046,20.742 C6.839,20.23 6.257,19.982 5.744,20.19 C5.232,20.397 4.985,20.98 5.192,21.492 C5.322,21.813 5.462,22.13 5.611,22.441 C5.783,22.799 6.14,23.008 6.513,23.008 C6.658,23.008 6.805,22.977 6.945,22.909 C7.443,22.671 7.653,22.074 7.414,21.576 Z" id="路径"></path>
                <path d="M8.521,26.694 C8.718,26.903 8.984,27.009 9.25,27.009 C9.495,27.009 9.741,26.919 9.935,26.738 C10.337,26.36 10.358,25.727 9.98,25.324 C9.771,25.102 9.57,24.875 9.376,24.64 C9.022,24.214 8.393,24.154 7.968,24.507 C7.542,24.86 7.484,25.49 7.835,25.915 C8.057,26.183 8.285,26.441 8.521,26.694 Z" id="路径"></path>
                <path d="M11.694,29.337 C11.984,29.525 12.28,29.702 12.583,29.871 C12.737,29.958 12.905,29.999 13.07,29.999 C13.421,29.999 13.76,29.815 13.943,29.487 C14.214,29.006 14.042,28.396 13.559,28.127 C13.293,27.978 13.033,27.821 12.778,27.657 C12.313,27.357 11.694,27.49 11.396,27.955 C11.097,28.419 11.23,29.038 11.694,29.337 Z" id="路径"></path>
                <path d="M5.264,18.354 C5.811,18.278 6.193,17.772 6.116,17.225 C6.074,16.926 6.044,16.625 6.021,16.323 C5.981,15.771 5.499,15.353 4.952,15.398 C4.401,15.437 3.987,15.917 4.027,16.467 C4.051,16.815 4.088,17.16 4.135,17.502 C4.205,18.002 4.633,18.363 5.124,18.363 C5.17,18.363 5.217,18.36 5.264,18.354 Z" id="路径"></path>
                <path d="M21.5,32 L22,32 C22.553,32 23,31.553 23,31 C23,30.447 22.553,30 22,30 L21.5,30 C20.947,30 20.5,30.447 20.5,31 C20.5,31.553 20.947,32 21.5,32 Z" id="路径"></path>
                <path d="M54,48.03 C53.447,48.03 53,48.477 53,49.03 L53,50.03 C53,50.583 53.447,51.03 54,51.03 C54.553,51.03 55,50.583 55,50.03 L55,49.03 C55,48.478 54.553,48.03 54,48.03 Z" id="路径"></path>
                <path d="M54,33.03 C53.447,33.03 53,33.477 53,34.03 L53,35.03 C53,35.583 53.447,36.03 54,36.03 C54.553,36.03 55,35.583 55,35.03 L55,34.03 C55,33.478 54.553,33.03 54,33.03 Z" id="路径"></path>
                <path d="M54,38.03 C53.447,38.03 53,38.477 53,39.03 L53,40.03 C53,40.583 53.447,41.03 54,41.03 C54.553,41.03 55,40.583 55,40.03 L55,39.03 C55,38.478 54.553,38.03 54,38.03 Z" id="路径"></path>
                <path d="M54,43.03 C53.447,43.03 53,43.477 53,44.03 L53,45.03 C53,45.583 53.447,46.03 54,46.03 C54.553,46.03 55,45.583 55,45.03 L55,44.03 C55,43.478 54.553,43.03 54,43.03 Z" id="路径"></path>
                <path d="M6,47.35 C5.447,47.35 5,47.797 5,48.35 L5,49.35 C5,49.903 5.447,50.35 6,50.35 C6.553,50.35 7,49.903 7,49.35 L7,48.35 C7,47.797 6.553,47.35 6,47.35 Z" id="路径"></path>
                <path d="M6,42.35 C5.447,42.35 5,42.797 5,43.35 L5,44.35 C5,44.903 5.447,45.35 6,45.35 C6.553,45.35 7,44.903 7,44.35 L7,43.35 C7,42.797 6.553,42.35 6,42.35 Z" id="路径"></path>
                <path d="M6,32.35 C5.447,32.35 5,32.797 5,33.35 L5,34.35 C5,34.903 5.447,35.35 6,35.35 C6.553,35.35 7,34.903 7,34.35 L7,33.35 C7,32.797 6.553,32.35 6,32.35 Z" id="路径"></path>
                <path d="M6,37.35 C5.447,37.35 5,37.797 5,38.35 L5,39.35 C5,39.903 5.447,40.35 6,40.35 C6.553,40.35 7,39.903 7,39.35 L7,38.35 C7,37.797 6.553,37.35 6,37.35 Z" id="路径"></path>
                <path d="M36,16 L24,16 L24,22 L36,22 L36,16 Z M34,20 L26,20 L26,18 L34,18 L34,20 Z" id="形状"></path>
            </g>
        </g>
    </g>
</svg>
