<svg width="22" height="22" viewBox="0 0 22 22" fill="none" xmlns="http://www.w3.org/2000/svg">
<g id="icon_Help Outline">
<g id="Vector">
<path d="M10.0833 16.5H11.9167V14.6667H10.0833V16.5ZM11 5.5C8.97418 5.5 7.33334 7.14083 7.33334 9.16667H9.16668C9.16668 8.15833 9.99168 7.33333 11 7.33333C12.0083 7.33333 12.8333 8.15833 12.8333 9.16667C12.8333 11 10.0833 10.7708 10.0833 13.75H11.9167C11.9167 11.6875 14.6667 11.4583 14.6667 9.16667C14.6667 7.14083 13.0258 5.5 11 5.5Z" fill="#36363A"/>
<path fill-rule="evenodd" clip-rule="evenodd" d="M11 18.3906C15.0501 18.3906 18.3333 15.1074 18.3333 11.0573C18.3333 7.0072 15.0501 3.72396 11 3.72396C6.94992 3.72396 3.66668 7.0072 3.66668 11.0573C3.66668 15.1074 6.94992 18.3906 11 18.3906ZM11 20.224C16.0626 20.224 20.1667 16.1199 20.1667 11.0573C20.1667 5.99468 16.0626 1.89062 11 1.89062C5.9374 1.89062 1.83334 5.99468 1.83334 11.0573C1.83334 16.1199 5.9374 20.224 11 20.224Z" fill="#36363A"/>
</g>
</g>
</svg>
