<?xml version="1.0" encoding="UTF-8"?>
<svg width="48px" height="50px" viewBox="0 0 48 50" version="1.1" xmlns="http://www.w3.org/2000/svg" xmlns:xlink="http://www.w3.org/1999/xlink">
    <title>植物-9</title>
    <g id="V1.4" stroke="none" stroke-width="1" fill="none" fill-rule="evenodd">
        <g id="形状汇集备份" transform="translate(-1108.000000, -174.000000)" fill="#3D4242">
            <g id="植物-9" transform="translate(1108.500000, 174.000000)">
                <path d="M47,23.3830829 C46.9828176,20.8820425 45.1755378,18.9507611 43.2073679,17.5690566 L43.2573532,17.5690566 C43.3417033,17.5690566 43.6306806,17.4914328 43.5291481,17.3532623 C43.0152371,16.6453328 42.3544943,16.0538391 41.6593867,15.525997 C41.0736219,15.0850935 40.4160032,14.7745981 39.7287058,14.5277543 C39.342882,14.3895838 38.9429999,14.3367996 38.5399937,14.2824629 C38.4509574,14.2715956 38.6993217,14.2327836 38.7805478,14.1955242 C38.8524016,14.1613697 38.9773648,14.0495914 38.8602118,13.9890448 C35.7158261,12.2657953 31.8357198,13.7639356 28.8694067,15.7060843 C28.9350124,15.4297434 29.0021801,15.1565074 29.0709098,14.8832715 C29.0724718,14.8910339 29.0755959,14.9034537 29.07872,14.9127686 C29.1083987,15.0276518 29.4286169,14.8832715 29.4770401,14.8444596 C30.2080746,14.2358886 30.935985,13.6273176 31.6654575,13.0187467 C31.801355,12.9069683 31.8857051,12.7439582 31.9419385,12.5654234 C31.9513108,12.6151026 31.962245,12.661677 31.9731793,12.7129087 C31.9950479,12.8262395 32.3293243,12.6787542 32.3730615,12.6445997 C32.9447679,12.1679893 33.5149124,11.6913789 34.0866189,11.2178734 C34.2162681,11.1076475 34.291246,10.9384275 34.3396693,10.738158 C34.408399,10.7971521 34.6395809,10.7040035 34.683318,10.6760589 C35.6064834,10.1435593 36.5280867,9.61571716 37.4512521,9.08321756 C38.0604475,8.72925281 38.2135274,8.49172383 38.3400526,8.0290857 C38.3728554,8.12378679 38.4072203,8.21693541 38.4431472,8.31318898 C38.4806362,8.41409999 38.7602413,8.29766421 38.8149126,8.2650622 C39.7052752,7.75584975 40.5956378,7.24663731 41.4860003,6.7420823 C42.1201884,6.37725021 42.3748008,6.25149958 42.5450631,5.92392694 C42.5528733,5.97050125 42.5638076,6.02018051 42.5731799,6.06985977 C42.5919243,6.17387573 42.9012082,6.05123005 42.9433832,6.02328546 C43.5760093,5.62585136 44.6522545,5.29672624 44.8053344,4.52359272 C45.0521367,3.28782105 45.2989389,2.05360187 45.5441791,0.814725253 L45.5426171,0.814725253 L45.5426171,0.814725253 C45.5473032,0.788333144 45.537931,0.782123236 45.5113763,0.775913329 C45.5082522,0.772808375 45.5113763,0.769703421 45.5082522,0.766598467 C45.2083406,0.692079573 44.9037429,0.62687554 44.6007072,0.567881416 C44.1149129,0.471627844 43.6259945,0.394003996 43.1339521,0.341219779 C42.9933685,0.324142532 42.8527849,0.307065286 42.7106393,0.291540516 C41.9186853,0.206154283 41.1236071,0.212364191 40.3316531,0.285330608 C39.8458588,0.328799963 39.4053636,0.665687464 39.2444735,0.0353818173 C39.2335392,-0.0174023994 39.105452,0.0027798011 39.0742112,0.00898970895 C37.0154431,0.39710895 33.9319769,0.90321644 32.3074558,2.46811322 C32.2918354,2.36254478 32.277777,2.25542387 32.2637187,2.14985544 C32.2621566,2.13277819 32.2449742,2.12346333 32.2215436,2.12035838 C32.1403176,2.10017618 31.960683,2.1591703 31.9341283,2.17469507 C30.0503086,3.22261702 28.288328,4.88376737 27.580724,6.9439043 C27.540111,6.87093789 27.4979359,6.79486651 27.4541988,6.71724267 C27.3917173,6.60856928 27.0918057,6.73897734 27.0371343,6.81194376 C26.1311513,8.0290857 25.6547293,9.48375661 25.4813429,11.0005266 C25.2579712,10.3407239 24.9861763,9.69955091 24.658148,9.09253242 C24.3941633,8.60350218 23.9974053,7.93593708 23.4569396,7.70306554 C23.3897719,7.67512095 23.2851152,7.69375068 23.2023271,7.7325626 C23.238254,7.42051473 23.2710569,7.04326283 23.1835827,6.95632412 C22.7665181,6.52318305 22.3197748,6.14127371 21.8496009,5.77333667 C20.7561732,4.91792187 19.526848,4.23327953 18.2194209,3.76753644 C18.1350708,3.73803937 17.8320351,3.78616616 17.8382832,3.91191679 C17.8414073,3.94141386 17.8414073,3.96470101 17.8429694,3.99419807 C17.0635116,3.00061282 15.2952828,2.78792347 14.158118,2.54107964 C13.1849674,2.32994277 12.1540212,2.20263966 11.155878,2.23679415 C11.1090168,2.23834663 10.7825505,2.31131305 10.8715867,2.40911909 C10.9684332,2.51158257 11.0637176,2.61870348 11.1605641,2.72427192 C6.33854791,2.96180089 1.71491078,6.16145591 0.00447744836,10.7008986 C-0.0455078179,10.8328591 0.338753917,10.7102134 0.374680827,10.6853738 C1.47748076,9.94328979 2.87863026,9.80667182 4.16575087,9.95881456 C4.2579112,9.97123438 4.50158938,9.93086998 4.50939957,9.80977678 C4.51720977,9.66850137 4.52501997,9.52722597 4.53283017,9.38905552 C5.0592375,9.73681036 5.43100292,10.2910446 5.70748392,10.8499363 C5.74965899,10.9384275 5.93085558,10.8763284 5.99489921,10.8561462 C6.93680907,10.5378885 7.96775518,10.2537852 8.97527071,10.2972545 C9.05493473,10.3003595 9.2986129,10.2755199 9.31891941,10.1715039 C9.35016021,10.0069414 9.37983896,9.84082632 9.41107975,9.67781623 C9.58134206,9.99762649 9.75004234,10.3189892 9.92342873,10.6387995 C9.9499834,10.6946886 10.0452678,10.6822688 10.0952531,10.672954 C11.7353946,10.435425 13.5286161,10.3158843 15.1546993,10.7567877 C15.2546698,10.7831798 15.4905378,10.7474729 15.5327128,10.6356945 C15.5717638,10.5316786 15.6108148,10.43232 15.6498658,10.3298566 C15.7982596,10.6419044 15.9841423,10.9446374 16.1356601,11.2333982 C16.1575287,11.2737626 16.2153241,11.2706576 16.2574992,11.2706576 C17.7429988,11.2861824 19.209754,11.8202344 20.4062763,12.6880691 C20.4968746,12.7532731 20.7327426,12.691174 20.7936621,12.6057878 C20.8467715,12.5343738 20.8983188,12.4660649 20.9498661,12.3946509 C20.9358077,12.6151026 20.9201873,12.8324494 20.9030049,13.0497962 C20.9108151,13.0684259 20.9248734,13.0761883 20.9420559,13.0823982 C22.3603878,13.6801018 23.6678149,14.5867484 24.7909214,15.6626149 C20.9920411,13.3137173 15.8794856,13.5605611 11.8572337,15.2030817 C6.74624024,17.2911633 4.19386758,22.5385354 4.81243525,27.9007908 C4.82805565,28.0234365 5.10297461,27.9271829 5.15295988,27.9038958 C5.74809695,27.6011628 6.34479607,27.2937723 6.93993315,26.9910393 C7.10550934,26.908758 7.24296882,26.60913 7.35855975,26.2442979 C7.37886627,26.2551652 7.4038589,26.2675851 7.43041357,26.2675851 C7.51163963,26.273795 7.59755181,26.2536128 7.66471951,26.2116959 C8.39106791,25.7537152 8.98464295,25.2041383 9.78753129,24.8377538 C9.84532675,24.8098092 9.91718057,24.7741022 9.91718057,24.6995833 C9.88750182,23.8891904 10.0702604,23.2154154 10.3201868,22.5090383 C10.3576757,22.6844682 10.3951647,22.8630031 10.4326536,23.035328 C10.4592083,23.1564212 10.7138208,23.0694825 10.7716162,23.035328 C11.0527833,22.8847378 11.866606,22.6503137 11.9697006,22.3211886 C12.1305906,21.8057663 12.2930428,21.2732667 12.4851736,20.7531869 C12.4820495,20.7857889 12.4789255,20.8168384 12.4758014,20.8509929 C12.460181,21.0046882 12.7522824,20.913092 12.8132019,20.8789375 C13.4833169,20.5032381 14.1784245,20.1353011 14.9250794,19.9474513 C14.987561,19.9319266 15.0875316,19.8915622 15.1094001,19.8217007 C15.2312392,19.3621675 15.420246,18.9119492 15.7732669,18.6045588 C15.7966975,18.823458 15.817004,19.0485672 15.8388726,19.2705714 C15.8482448,19.3590626 15.973208,19.3388804 16.0794267,19.3031734 C15.6076907,19.7502868 15.1671956,20.2346596 14.7766857,20.7593968 C11.7806938,24.8004943 10.804419,32.978943 15.5983185,36.2562218 C15.6889168,36.3214259 15.9638358,36.2655367 16.0028867,36.1506534 C16.409017,34.831048 17.2447082,33.6418506 18.1163263,32.5784039 C18.1381948,32.5504593 18.1366328,32.5349346 18.1178883,32.50699 C17.7773637,31.9977775 17.5867949,31.4388858 17.5805467,30.856707 C17.7773637,31.1796222 18.0038594,31.4854601 18.2772164,31.7711159 C18.3646906,31.8596071 18.6364855,31.7586961 18.6817846,31.6655475 C19.1175936,30.7573484 19.5862055,29.8677791 20.0891823,28.998392 L20.0891823,28.9735524 C19.7892707,28.5109143 19.447184,27.9659949 19.3206588,27.3946833 C19.6330667,27.6943114 19.9782775,27.9628899 20.3219262,28.2174961 C20.4015902,28.2764903 20.712436,28.2299159 20.7280564,28.1103752 C20.7858519,27.6632619 20.8764502,27.2440931 21.0076615,26.8125045 C21.1076321,26.4926942 21.7808711,25.4727169 21.7074553,25.2103482 C21.5122003,24.4915514 21.3341278,23.6951307 21.4231641,22.9390745 C21.6809006,23.2666471 21.9870603,23.5352256 22.3916286,23.7075505 C22.4775408,23.741705 22.7493357,23.6951307 22.7680801,23.5833524 C23.0898603,21.8864951 23.8943107,19.0019929 25.6984664,18.013065 C25.5313281,18.5952439 26.0186845,19.497233 26.1342754,20.0126554 C27.5994685,26.4864843 27.3307977,33.3127255 25.0627163,39.5676552 C24.7596806,40.4013353 24.4129078,41.2489878 24.0317701,42.0904303 C23.9396098,42.043856 23.7599753,42.1183749 23.7021798,42.1571868 C23.1804586,42.5064941 22.7477736,42.9442926 22.4181833,43.4426377 C22.4728546,42.4273178 22.4244314,41.402683 22.2916581,40.4184126 C22.2682275,40.2476401 21.9370751,40.3982304 21.8824037,40.4665394 C21.0810774,41.4585721 20.7452389,42.6912389 20.7452389,43.9456402 C20.632772,43.8447292 20.5109329,43.7515806 20.3687873,43.6646419 C19.7689641,43.3106772 18.9613897,43.2004513 18.2709682,43.2625504 C18.1944283,43.2703128 17.9116991,43.3976159 18.0757133,43.4861071 C18.5974345,43.7733153 19.0160611,44.1893791 19.3409653,44.6753044 C19.0644843,44.5091894 18.7505143,44.3834387 18.3849971,44.3182347 C17.4883864,44.1614345 16.327791,44.5060844 15.8841717,45.3630517 C15.7982596,45.5291667 16.0887989,45.4950122 16.1669009,45.4655152 C17.828911,44.8445244 19.0754186,46.0414841 19.447184,47.5861987 C19.447184,47.5908561 19.4549942,47.5939611 19.4581183,47.600171 C19.4596803,47.6063809 19.4628044,47.6125908 19.4659285,47.6188007 C19.4737387,47.6250106 19.4831109,47.632773 19.4956072,47.6389829 L19.4987313,47.6389829 C19.5284101,47.6560602 19.5737092,47.6622701 19.6221324,47.6591651 C19.7986429,47.66848 19.9735913,47.6777949 20.1516638,47.6855572 C20.1782185,47.6886622 20.2110213,47.6855572 20.2422621,47.6793473 C20.2516344,47.704187 20.2813131,47.7181593 20.31724,47.7243692 C20.3266123,47.7243692 20.3375466,47.7259216 20.3469188,47.7259216 C20.3641012,47.7259216 20.3828457,47.7259216 20.4015902,47.7243692 L20.4172106,47.7243692 C20.4562616,47.7181593 20.4953125,47.7103969 20.5343635,47.704187 C20.5421737,47.704187 20.5437358,47.7072919 20.5499839,47.7072919 C22.6243725,47.6250106 24.7471843,48.0162348 26.749719,48.67759 C26.7403468,48.6946673 26.7434708,48.7070871 26.7575292,48.7179544 C26.7622153,48.7521089 26.8043904,48.7707386 26.9121711,48.7583188 C26.9637184,48.7552139 27.2776884,48.8623348 27.5260527,48.9523784 C27.6260232,48.9896379 27.7244317,49.0206874 27.8212781,49.0594994 C27.9228107,49.0983113 28.0259053,49.1433331 28.1274379,49.1836975 C28.408605,49.2954759 28.6866481,49.4088067 28.9631291,49.5330048 C28.9725013,49.5392147 28.9943699,49.5392147 29.0131143,49.5392147 C29.4582956,49.7193021 29.906601,49.8776547 30.383023,49.9630409 C30.9953425,50.0717143 32.3043317,49.9832231 32.277777,49.1122836 C32.2684048,48.8514674 32.0762739,48.6217008 31.8357198,48.4276412 C33.4352484,48.8980417 35.1066307,49.4802206 36.5499553,48.7800535 C36.618685,48.749004 36.7155315,48.6651702 36.6530499,48.5828889 C35.907957,47.5830938 34.9410545,47.0148872 33.9038602,46.8006454 C35.4690239,46.6096907 37.1185377,46.7059443 38.435337,47.4744204 C38.513439,47.5194422 38.9023869,47.4061114 38.830533,47.333145 C37.9542288,46.4296034 36.9170346,45.8800265 35.8470375,45.6859669 L35.8485995,45.6859669 L35.8376652,45.6859669 C35.8017383,45.6766521 35.7673734,45.6704421 35.7330086,45.6657847 L35.7251984,45.6657847 C35.633038,45.6502599 35.5408777,45.6424976 35.4502794,45.6331827 C35.4362211,45.6300777 35.4221627,45.6300777 35.4065423,45.6269728 L35.3987321,45.6269728 L35.394046,45.6269728 C35.1284993,45.6067906 34.8613905,45.6005807 34.5942817,45.6269728 C34.6723837,45.5540064 34.7536098,45.4888023 34.8270256,45.4158359 C35.2237837,45.0152969 35.6955196,44.4843497 35.7798698,43.8990659 C35.789242,43.8214421 35.709578,43.759343 35.6392862,43.7546856 C34.645829,43.7050063 33.6742404,43.8773313 32.7994983,44.2452683 C33.6086348,43.0793581 34.2818738,41.8156418 34.8160913,40.5472682 C34.8660766,40.4323849 34.5583548,40.5006939 34.5302381,40.5131137 C32.7229583,41.162049 31.3967867,42.5980902 30.5517233,44.2918426 C32.2199816,35.7982411 32.5261413,26.2924247 28.1211897,18.8172481 C27.9040662,18.4539685 27.6635121,18.0922414 27.4026515,17.7506964 C28.3929846,18.0627443 29.3052157,18.6325034 30.0753012,19.3062784 C30.4720593,19.6555857 30.6798106,20.2377645 31.2062179,20.3588577 C31.8185374,20.5001331 32.433981,20.6383036 33.0353662,20.8168384 C33.1244025,20.844783 33.4180659,20.782684 33.3712047,20.6383036 C33.3243436,20.4939232 33.261862,20.3619627 33.2025045,20.2253447 C33.4727373,20.5327352 33.7398461,20.8385731 34.1381662,21.0574724 C35.2409661,21.658281 36.459357,22.2590895 37.3950187,23.106742 C37.4981133,23.2014431 37.7667841,23.1471064 37.7980249,23.0011735 C37.8230175,22.8847378 37.8386379,22.7745119 37.8495722,22.6596286 C38.0057761,22.9763339 38.1916589,23.2573322 38.550928,23.4358671 C39.4631591,23.8954003 40.3379012,24.4247949 41.1673442,25.024051 C41.4844383,25.2538176 42.3919833,26.4989041 42.9777481,26.4523298 C42.9605657,26.7628252 42.9605657,27.1059226 43.0870909,27.2440931 C43.7790744,27.9861771 44.4101384,28.8214097 44.7865899,29.7622107 C44.8428234,29.9065911 45.1364868,29.8305197 45.1942823,29.7187413 C46.1549366,27.7859075 46.6016799,25.5736279 46.4579723,23.4141324 C46.52514,23.4700216 46.5938697,23.5119385 46.6641615,23.5274632 C46.7500737,23.5445405 47,23.5119385 47,23.3830829 L47,23.3830829 Z" id="16"></path>
            </g>
        </g>
    </g>
</svg>