<?xml version="1.0" encoding="UTF-8"?>
<svg width="48px" height="50px" viewBox="0 0 48 50" version="1.1" xmlns="http://www.w3.org/2000/svg" xmlns:xlink="http://www.w3.org/1999/xlink">
    <title>植物-8</title>
    <g id="V1.4" stroke="none" stroke-width="1" fill="none" fill-rule="evenodd">
        <g id="形状汇集备份" transform="translate(-1037.000000, -174.000000)" fill="#3D4242" fill-rule="nonzero">
            <g id="植物-8" transform="translate(1037.500000, 174.000000)">
                <path d="M43.530069,15.7353988 C43.5037851,15.7416088 43.475955,15.7509246 43.4512171,15.7617921 C43.3228892,15.8145788 43.2069307,15.8953113 43.0925183,15.9698338 C43.1296248,15.8859963 43.1682782,15.8006054 43.1821928,15.7167679 C43.3058824,15.7198738 43.4187488,15.7260838 43.530069,15.7353988 M31.5430347,29.4847563 C31.7471215,29.397813 31.9543014,29.318633 32.1599343,29.2394538 C32.2898083,29.5810138 32.6314994,29.7657672 33.0087518,29.8480522 C33.0056597,29.8542622 33.0025675,29.8573672 33.0010215,29.8666822 C32.3269147,29.8294213 31.655901,29.7564513 30.9864325,29.7331638 C31.1673283,29.644668 31.3559545,29.565488 31.5430347,29.4847563 M17.9851463,28.717798 C17.793428,28.474048 17.6805616,28.1247247 17.5676953,27.8390563 C17.3342315,27.2444305 17.0512926,26.6839613 16.7637155,26.1157288 C16.6307494,25.8486905 16.5008755,25.5630221 16.3338951,25.3068513 C16.3292569,25.2509596 16.3292569,25.195068 16.3246187,25.1422813 C16.3369872,25.1329663 16.3509019,25.1267563 16.3648173,25.1189938 C16.7652616,24.8721388 16.9044119,24.4312155 16.8765818,23.9887396 C16.9214187,24.043078 16.9678024,24.0927596 17.0172782,24.1393363 C17.1224142,24.2418046 17.2507413,24.1998855 17.351239,24.106733 C17.3543312,24.109838 17.3620615,24.1144955 17.3682466,24.1176005 C17.3837073,24.3070113 17.4068992,24.4948696 17.4130834,24.6687546 C17.4208146,24.844193 17.4393674,25.0724171 17.5831568,25.195068 C17.7856976,25.3674013 18.0686365,25.1562546 18.2247944,25.024288 C18.29437,24.9621863 18.3546684,24.8907688 18.4118746,24.8193521 C18.6979056,25.0258405 18.943738,25.2152513 19.0457818,25.2944313 C19.8574928,25.926318 20.4852158,26.6342797 20.9645112,27.572018 C21.324756,28.2675588 21.4438075,28.6153297 21.4345302,29.3714197 C21.429892,30.0265947 21.5025597,30.9239672 21.3572243,31.531013 C21.2582734,31.4999622 21.1732371,31.4471755 21.0959312,31.3866263 C21.0340868,31.3338397 20.9768806,31.274843 20.9243126,31.2096355 C20.9196736,31.2065305 20.9150354,31.201873 20.9134893,31.198768 C20.8516449,31.1211405 20.7959847,31.0450655 20.7387785,30.9689913 C20.7032181,30.9208622 20.6676569,30.8742855 20.6305504,30.8308147 C20.6197271,30.8121838 20.6058125,30.7951055 20.590351,30.778028 C20.542422,30.717478 20.489854,30.6615863 20.4341939,30.6150105 C20.0368418,30.2796597 19.6101143,29.9800188 19.1617403,29.7191905 C19.0102214,29.6306955 18.8509714,29.546858 18.6948134,29.4661255 L18.6948134,29.4692305 C18.6824449,29.4630205 18.6700755,29.4537047 18.657707,29.4474947 C18.6221457,29.4102338 18.5881314,29.3714197 18.552571,29.3372638 C18.3608526,29.1369855 18.1552188,28.9398122 17.9851463,28.717798 M31.0884763,28.6122247 C31.1503208,28.467838 31.212166,28.3234505 31.2662801,28.1744063 C31.3729613,27.894948 31.4208911,27.5890963 31.4688209,27.2847963 C31.7332069,27.4788655 32.0671677,27.5984113 32.357837,27.7070897 C32.1150975,27.8297405 31.9079177,27.9570497 31.8414351,28.0036263 C31.7486676,28.0703855 31.5430347,28.3296605 31.6605392,28.4616272 C31.4502672,28.568753 31.2369039,28.6836413 31.0204477,28.7767947 C31.0467317,28.724008 31.0637384,28.6650113 31.0884763,28.6122247 M31.1302219,25.8890572 C31.1085761,25.9775522 31.0822921,26.0644947 31.0637384,26.1529897 C31.0482777,26.2057763 31.0343623,26.258563 31.0219937,26.3097972 C31.0080783,26.3299805 30.9725179,26.3206647 30.9725179,26.2927188 C30.9709718,26.1452272 30.9477799,26.0008405 30.9245881,25.8595588 C30.9910715,25.8704263 31.0621923,25.8797413 31.1302219,25.8890572 M22.8739642,23.7325688 C22.8585027,23.3925613 22.7873819,23.0742888 22.6822459,22.7544646 C22.8554105,22.6535488 22.997653,22.5060571 23.1244348,22.3445921 C23.1337112,22.6038671 23.1924643,22.8833255 23.3810897,23.0230546 C23.3146071,23.4701888 23.1971025,23.935953 23.0440367,24.6656496 L23.0424907,24.6625446 C23.0378525,24.685833 23.0332143,24.7060163 23.0301221,24.7277513 C22.869326,24.4374255 22.8894249,24.0586038 22.8739642,23.7325688 M20.6846645,24.9652913 C20.3367882,24.6314938 19.9796356,24.3085638 19.6178447,23.9887396 C19.5111626,23.8955863 19.4029345,23.7993288 19.2962524,23.7061755 C19.1988476,23.6207855 19.101442,23.5353955 19.0024902,23.451558 C19.0071293,23.4562155 19.0102214,23.4593205 19.0148596,23.4655305 C18.9993981,23.451558 18.9839374,23.439138 18.970022,23.4267171 C18.9947599,23.3506421 19.0179518,23.2730146 19.0442358,23.1891771 C19.1911164,23.4655305 19.4013884,23.6735721 19.6750509,23.6176805 C20.0708561,23.5447105 20.2038222,23.0649738 20.2718517,22.7265188 C20.3074121,22.5510805 20.3414264,22.3632221 20.3692565,22.1722588 C20.59499,22.1505238 20.7990769,22.0185571 20.933589,21.8369088 C20.9011207,22.0309771 20.8841132,22.2312563 20.8485527,22.4066938 C20.7805232,22.7420438 20.59499,23.6332063 21.165506,23.5928396 C21.4113384,23.5742088 21.6277946,23.2823305 21.7700379,23.113103 C21.8504352,23.0121871 21.9246489,22.9035088 21.9942245,22.7948305 C22.0390614,22.9733738 22.083899,23.1503638 22.1210055,23.3273538 C22.1225516,23.3366696 22.1210055,23.3413271 22.1179133,23.3475371 C22.2431491,23.9949496 22.294171,24.6501246 22.3668379,25.3037463 C22.36993,25.3192721 22.373023,25.3301396 22.3745691,25.344113 C22.373023,25.341008 22.3714769,25.3363505 22.3714769,25.3332446 C22.3776612,25.3705063 22.3853915,25.4093196 22.3915758,25.4481338 C22.399307,25.4853946 22.4039452,25.524208 22.4147677,25.5630221 C22.448782,25.7213821 22.4951657,25.8766363 22.5291801,26.0365488 C22.5477337,26.1157288 22.5631952,26.1949088 22.5709256,26.2771938 C22.5910253,26.4743672 22.5554641,26.7119072 22.5369113,26.8966597 C22.5322722,26.8920022 22.5260879,26.8873447 22.5229958,26.8811347 L22.5260879,26.8842397 C22.2957171,26.6063338 22.031331,26.3656888 21.7901368,26.0986505 C21.4360763,25.7074088 21.065009,25.3301396 20.6846645,24.9652913 M26.3047945,24.5911271 C26.3836464,24.3768763 26.4686827,24.1657296 26.558358,23.9623463 C26.5846412,23.9002438 26.6217485,23.8490096 26.6542168,23.7915655 C26.8150129,23.8707455 27.0515689,23.8148538 27.2633861,23.689098 C27.4334595,23.5897346 27.5849784,23.4593205 27.730313,23.3211438 C27.5958008,23.6114705 27.5355025,23.945268 27.9297625,24.027553 C27.9715072,24.033763 28.0132527,24.039973 28.0549974,24.043078 C27.7967964,24.2588821 27.5262261,24.4591613 27.2386482,24.6408088 C26.8722191,24.8783488 26.453222,25.0165255 26.0898843,25.2509596 C26.1501834,25.0413663 26.2182121,24.8348771 26.2908798,24.6314938 C26.295518,24.619073 26.2986102,24.603548 26.3047945,24.5911271 M24.3180364,28.1014363 C24.3551429,28.0331247 24.1139487,27.398133 24.0938489,27.3127422 C24.0026284,26.9478938 24.0969419,26.5271538 24.0350967,26.1560947 C23.9840747,25.8611113 23.9701601,25.5676796 23.9639758,25.277353 C23.9624298,25.109678 23.9624298,24.945108 23.9655219,24.7789855 C23.9686141,24.7060163 23.9701601,24.6314938 23.9717062,24.5569713 C23.9794365,24.353588 23.9887138,24.1502038 23.9979902,23.945268 C24.0088127,23.7263588 24.0242742,23.5214221 24.0428278,23.3118288 C24.0567425,23.1503638 24.0752961,22.9920038 24.0969419,22.8320913 C24.1850703,22.7420438 24.2701066,22.641128 24.3381353,22.5479755 C24.2917524,22.6628638 24.2515529,22.7793046 24.2206307,22.9035088 C24.1804321,23.0634213 24.3149442,23.204703 24.4757395,23.1596788 C24.701473,23.0944721 24.8313461,22.9562955 25.0091498,22.8134613 C25.0493485,22.7793046 25.0880018,22.7482538 25.1282005,22.7156505 C25.1637617,23.0199496 25.35548,23.2512796 25.6183192,23.4205071 C25.8007611,23.5353955 26.0234016,23.5058971 26.2213043,23.4236121 C25.9893873,23.6766771 25.7481931,23.9235321 25.5734824,24.2247263 C25.2085985,24.844193 24.9828658,25.5304188 24.7988779,26.2213022 C24.6427208,26.8004022 24.6102517,27.5735705 24.3180364,28.1014363 M16.9399723,28.6370655 C16.8688507,28.5982513 16.7946377,28.562543 16.7173318,28.5237297 C16.6029194,28.467838 16.4807758,28.407288 16.357087,28.3389763 C16.3385333,28.3296605 16.3199797,28.3203455 16.3029729,28.312583 C16.1715529,28.245823 16.0339486,28.1713013 15.8978904,28.0952263 C15.8855211,28.0859113 15.8700604,28.0797005 15.857691,28.0703855 C15.7401865,28.0067313 15.625774,27.9384188 15.5082695,27.8670022 C15.4742543,27.8483713 15.4386939,27.8235305 15.4031335,27.8033472 C15.285629,27.730378 15.1650315,27.654303 15.0506191,27.5735705 C15.0320654,27.5595972 15.0119665,27.5471772 14.9934128,27.5332047 C14.9733131,27.5192313 14.9578524,27.5068113 14.9408449,27.4912855 C14.9949589,27.4152105 15.0258811,27.322058 14.996505,27.2242472 C14.9624906,27.1248847 14.9161069,27.0301788 14.8635389,26.9370263 C14.8635389,26.9308163 14.865085,26.9215005 14.8681771,26.9152905 C14.8697232,26.8997647 14.8697232,26.8888972 14.8697232,26.8780297 C14.8790004,26.8780297 14.8836386,26.8718188 14.8882769,26.8718188 C15.208323,26.9277105 15.5283684,26.9277105 15.8391382,26.828348 C16.1189849,26.739853 16.2565892,26.5038655 16.3199797,26.243038 C16.516337,26.6622255 16.6261112,27.1248847 16.7791762,27.5595972 C16.7853605,27.568913 16.7869065,27.5797805 16.7915456,27.5890963 C16.8889504,27.980338 17.0064549,28.3622647 17.1517904,28.739533 C17.0806687,28.7038247 17.011094,28.6681163 16.9399723,28.6370655 M29.7711859,28.6836413 C29.4975235,29.0391747 29.1079025,29.2720572 28.7414726,29.5158072 C27.8710102,30.0949072 27.0670296,30.695743 26.3310785,31.442518 C26.0156713,31.7623422 25.6832566,32.0573264 25.4126862,32.4221747 C25.3616643,32.4889347 25.3152806,32.5634572 25.2688969,32.6364264 L25.2688969,32.6333214 L25.2688969,32.6364264 C25.2735359,32.3197072 25.2920887,31.9983297 25.324557,31.6816097 C25.3369264,31.5543013 25.353934,31.4238872 25.3740329,31.2981313 C25.3369264,30.7795805 25.3230109,30.2656872 25.3585722,29.7440313 C25.4065011,29.1059347 25.4899913,28.4538647 25.6384189,27.8204255 C25.6585186,27.4602347 25.7002633,27.0938338 25.7574695,26.7305372 C25.7806614,26.6653305 25.8007611,26.6001238 25.825499,26.5395738 C25.9631033,26.1654105 26.1857438,25.9092397 26.50579,25.679463 C27.1010439,25.2540655 27.8138032,25.024288 28.41215,24.594233 C28.7151886,24.3768763 28.9795747,24.106733 29.223861,23.8179588 C29.2934358,23.7977763 29.3599192,23.777593 29.4264018,23.7558571 C29.250145,23.9530305 29.1063565,24.182808 29.117179,24.4218996 C29.1264554,24.6439138 29.3661035,24.7029105 29.5330839,24.777433 C29.7897396,24.8907688 30.1005085,24.948213 30.4035471,24.9792646 C30.4035471,24.9854746 30.4050932,24.9947896 30.4066393,25.0041046 C30.3154187,25.0631021 30.2272903,25.1267563 30.1484383,25.2043838 C30.0603099,25.2913263 29.9489888,25.4978146 30.0695863,25.606493 C30.2087367,25.7322496 30.3865396,25.7772738 30.5689815,25.8067722 C30.5906273,25.932528 30.610727,26.0613897 30.6138191,26.1918038 C30.632372,26.593913 30.3726249,27.0969388 30.269035,27.4881805 C30.1546226,27.9182363 30.0479406,28.3234505 29.7711859,28.6836413 M0.00536775894,22.4532705 C-0.011639827,22.5153721 0.0115520339,22.5945521 0.0780354791,22.622498 C0.461472144,22.7622271 0.899022874,22.7420438 1.30410533,22.6970196 C1.1695932,22.8771155 1.06291114,23.0742888 1.03044287,23.3149338 C1.02116562,23.3739305 1.03044287,23.4655305 1.10310976,23.4857138 C1.24380616,23.5214221 1.38450339,23.5214221 1.51901469,23.5012396 L1.51746862,23.5043446 C1.52674587,23.5012396 1.53447621,23.5012396 1.54220655,23.4981346 C1.32420422,23.8924813 1.17886961,24.3240896 1.15413168,24.7976163 C1.15103955,24.8690338 1.21443002,24.9031896 1.2731823,24.9156096 C1.634974,24.9854746 2.05860928,24.7184363 2.4080316,24.5569713 C2.38793188,24.6625446 2.37401726,24.765013 2.36319395,24.8752438 C2.30753381,25.3829263 2.31371809,25.9744472 2.44513808,26.4743672 C2.58428842,27.0006805 3.097599,26.843873 3.4485674,26.6249638 C3.49649719,26.593913 3.54133401,26.5659672 3.58462559,26.5333638 C3.57689525,26.6420422 3.57534918,26.7538255 3.58771773,26.8625038 C3.59390201,26.9215005 3.63564752,26.9773922 3.70213014,26.9773922 C3.98506984,26.9649722 4.1644188,26.8035072 4.37932899,26.6653305 C4.22780928,26.9975755 4.09175108,27.3329255 4.09484404,27.7132997 C4.09639011,27.7893747 4.17369521,27.8328455 4.24327079,27.812663 C4.5818698,27.7210622 4.91273847,27.5394147 5.23742286,27.398133 C5.26370686,27.3857122 5.28689872,27.3717397 5.31009058,27.3593188 C5.33019031,27.5192313 5.47552492,27.6356722 5.65178173,27.730378 C5.57911484,27.7738488 5.50644712,27.8204255 5.4353263,27.8670022 C5.14001804,28.0424397 4.79832607,28.2597963 4.6607218,28.5951463 C4.64216897,28.644828 4.62052318,28.7457438 4.67618332,28.7830047 C5.24206107,29.1835622 5.97028185,29.2689522 6.64438857,29.2410063 C6.77580856,29.236348 6.90877379,29.2254805 7.04792412,29.2037447 C7.02782523,29.3527897 7.02318703,29.5095963 7.03555558,29.6664038 C7.06493171,30.1275105 7.31540231,30.951913 7.75449911,31.1739272 C7.99723937,31.2950255 8.28172515,31.0450655 8.43942831,30.8991263 C8.68989891,30.6615863 8.91563242,30.4007588 9.10889682,30.119748 C9.10889682,30.119748 9.10889682,30.116643 9.11044289,30.116643 C9.11817323,30.1507988 9.12590358,30.1896122 9.13827296,30.220663 C9.13208868,30.3262363 9.19393309,30.4178363 9.29133791,30.4395722 C9.38719749,30.5047797 9.52480176,30.5203047 9.71497402,30.467518 C10.0226508,30.3867855 10.290129,30.2066905 10.522046,29.9831238 C10.5405996,30.6041422 10.7122182,31.1180355 11.2378982,31.0388555 C11.9815797,30.9239672 12.5088049,30.0033063 12.7654598,29.3776305 C12.8056592,29.2813722 12.8474039,29.1571688 12.8891494,29.0158863 C12.932441,29.0360697 12.9726396,29.053148 13.0097461,29.068673 C13.3529841,29.2037447 13.7766194,29.2875822 14.0734737,29.0065713 C14.4460879,28.6525905 14.1894322,28.2116672 13.9636995,27.8638972 C13.9559692,27.8514763 13.9482388,27.8421613 13.9405077,27.8297405 C13.9451467,27.8328455 13.9497849,27.8359513 13.9544231,27.8390563 C13.9930757,27.8670022 14.0286369,27.8887372 14.0657434,27.916683 C14.1677872,27.983443 14.2729232,28.0548597 14.3796045,28.1247247 C14.4445418,28.1650913 14.5094784,28.2101147 14.5759618,28.2520338 C14.6192526,28.2830847 14.6656363,28.309478 14.7089271,28.3389763 C15.0181508,28.5423597 15.3320119,28.7457438 15.6103125,28.9367072 C15.6211358,28.9429172 15.6304123,28.9475747 15.6396887,28.9537847 C15.7602862,29.0360697 15.8777907,29.1183547 15.9844728,29.1944297 C16.4297539,29.4335222 16.8858582,29.647773 17.3589694,29.8294213 C17.7099378,29.9691505 18.0701826,30.0824863 18.4118746,30.2486088 C18.6979056,30.3867855 18.9591995,30.5606713 19.2003937,30.7687122 C19.5745531,30.9829638 19.9286136,31.2422388 20.2502059,31.543433 C20.5779824,31.7918414 20.8748367,32.0837197 21.1067537,32.4097547 C21.1500453,32.4718564 21.1979751,32.5324055 21.244358,32.597613 C21.2598195,32.6224539 21.2768271,32.6488472 21.2938338,32.673688 C21.3293942,32.7202639 21.3618633,32.774603 21.3958777,32.8242847 C21.4113384,32.853783 21.4283459,32.8832814 21.4438075,32.9127797 C21.4700915,32.9640139 21.4948286,33.0136955 21.5133822,33.0633772 C21.5272977,33.0959805 21.535028,33.1270314 21.5458505,33.1611872 C21.5659502,33.2310522 21.5860499,33.2993639 21.587596,33.3676764 C21.587596,33.4189105 21.5829578,33.4685922 21.5767727,33.518273 C21.61388,34.2572855 21.6602637,34.9978505 21.6865469,35.739968 C21.6896399,35.8455414 21.692732,35.9495622 21.6942781,36.0551355 C21.8442509,36.8251989 21.7499382,37.6806522 21.6803626,38.4243222 C21.5195665,40.1010731 21.7561225,41.7949022 21.4128844,43.4561273 C21.2582734,44.2137706 21.1639599,44.9729656 21.0943851,45.7399239 C21.0309947,46.4339123 20.854737,47.0642464 20.3352422,47.5517464 C19.0102214,48.7968889 16.9817178,48.5019056 15.3783956,49.1073989 C15.3196433,49.1105039 15.260891,49.1136089 15.2036848,49.1198189 C15.1619393,49.1229239 15.1155556,49.1927889 15.155755,49.2145248 C15.1217407,49.2579956 15.1093713,49.3325181 15.1774008,49.3107823 C15.2516138,49.290599 15.3242815,49.2735215 15.4000414,49.2517856 C15.4541554,49.2611006 15.5051774,49.2673115 15.5592914,49.2766265 L15.5561985,49.2766265 L15.5623836,49.2766265 L15.5623836,49.278179 C15.6025822,49.281284 15.6412356,49.287494 15.6798881,49.2921515 C15.7154485,49.2952573 15.7510098,49.3014673 15.7881162,49.3045723 C15.86233,49.3138873 15.9380891,49.3200973 16.015395,49.3294131 C16.0555944,49.3325181 16.094247,49.3356231 16.1329004,49.3356231 C16.2148445,49.3402806 16.2936957,49.3402806 16.3756398,49.3402806 L16.4776836,49.3402806 C16.5920961,49.3356231 16.7096014,49.3263081 16.828652,49.3045723 C17.0822148,49.2642056 17.3373244,49.2378123 17.5939793,49.2222873 C17.692931,49.2160773 17.7918819,49.2191823 17.8923797,49.2191823 C18.0748208,49.2145248 18.2557166,49.2083139 18.4381586,49.2191823 C18.3005543,49.287494 18.1474885,49.3449381 18.0067921,49.3992773 C17.7640518,49.4955356 17.4888433,49.604214 17.2213651,49.604214 C17.1703432,49.604214 17.0992224,49.6585531 17.063662,49.7206548 C17.0621151,49.7175498 17.060569,49.7175498 17.060569,49.7175498 C17.0543847,49.7299698 17.0543847,49.7392856 17.0497465,49.7517056 C17.0482004,49.7610206 17.0435622,49.7703365 17.0435622,49.7765465 C17.0435622,49.7982823 17.0559308,49.8169131 17.0791226,49.8293331 L17.0760305,49.8293331 C17.0791226,49.8308856 17.0791226,49.8339906 17.0837608,49.8370956 C17.0713923,49.860384 17.0713923,49.8867773 17.1054066,49.8898823 C17.1548825,49.8991981 17.2028123,49.8991981 17.2507413,49.8991981 C17.3543312,49.933354 17.4610132,49.9550898 17.5646032,49.9706148 C17.5970714,49.9737198 17.6264476,49.9768248 17.6573698,49.9783773 C17.7377678,49.9845881 17.8181659,49.9907981 17.898564,49.9876931 C17.924848,49.9876931 17.952678,49.9876931 17.978962,49.9845881 C18.082552,49.9814831 18.1815028,49.9706148 18.2850928,49.9550898 C18.3144689,49.951984 18.343845,49.945774 18.3747672,49.942669 C18.4520732,49.927144 18.5309252,49.9147231 18.6113232,49.8991981 C18.6623452,49.8898823 18.7149132,49.8790148 18.7674812,49.866594 C18.838602,49.8526215 18.9081776,49.8370956 18.9792992,49.8231231 C19.3410901,49.7454956 19.7059731,49.6818415 20.0724022,49.7082348 C20.616635,49.7517056 21.1407689,49.8728048 21.6896399,49.8339906 C21.9725787,49.8138073 22.2508794,49.7796515 22.5291801,49.7299698 C22.527634,49.7299698 22.5260879,49.7315223 22.5260879,49.7315223 C22.7703743,49.689604 23.0162067,49.6368173 23.2589469,49.5762681 C23.2094711,49.6290548 23.155357,49.6725256 23.102789,49.7206548 C23.0795971,49.7392856 23.0579522,49.7610206 23.0347603,49.781204 C23.0254831,49.7905198 23.0177527,49.7982823 23.0131145,49.8075973 C23.0162067,49.8044923 23.0177527,49.8044923 23.0208449,49.8013873 C22.971369,49.863489 22.9389007,49.9876931 23.050221,49.9954556 C23.1491727,50.0047706 23.2465775,49.9985606 23.3408911,49.9876931 C23.339345,49.9876931 23.339345,49.9876931 23.3377989,49.9907981 C23.3470753,49.9876931 23.3563526,49.9845881 23.365629,49.9845881 C23.4553035,49.9737198 23.5403397,49.9550898 23.625376,49.933354 C23.6501139,49.927144 23.6717597,49.9240381 23.6964977,49.9178281 C23.7892643,49.8898823 23.8820317,49.860384 23.9747983,49.8293331 C24.0923029,49.7905198 24.2036231,49.7641265 24.3103052,49.7361806 C24.3072131,49.7361806 24.3072131,49.7361806 24.305667,49.7392856 C24.3226746,49.7361806 24.3350431,49.7299698 24.3520507,49.7268648 C24.3659653,49.7237598 24.3783347,49.7206548 24.3891572,49.7144448 C24.4463634,49.695814 24.4989314,49.6756306 24.5530455,49.6492373 C24.5623227,49.6430273 24.5715991,49.6368173 24.5777834,49.6290548 C24.6318975,49.5964515 24.6860115,49.5607423 24.7339413,49.5079556 C24.8792759,49.3480431 25.324557,49.698919 25.4745306,49.7703365 C25.5410133,49.7982823 25.6105888,49.8200181 25.6832566,49.8308856 C25.7002633,49.8339906 25.7219091,49.8370956 25.7404628,49.8370956 C25.7961229,49.8464115 25.8486909,49.8526215 25.9058971,49.8526215 C25.9151735,49.8526215 25.9213578,49.8557265 25.930635,49.8557265 C25.930635,49.8557265 25.9275421,49.8526215 25.9244499,49.8526215 C26.0234016,49.8526215 26.1208073,49.8495165 26.21512,49.8433056 C26.2754183,49.8370956 26.3542703,49.7548106 26.3434478,49.689604 C26.3295324,49.613529 26.3047945,49.5359015 26.2769644,49.4613798 C26.3295324,49.4846673 26.3821004,49.5079556 26.4331223,49.5327965 L26.4346684,49.5359015 C26.4609524,49.5452173 26.4887824,49.5576373 26.5135204,49.5700581 C26.6959623,49.6430273 26.8907728,49.6663156 27.0855832,49.686499 C27.5401407,49.7330748 28.0008833,49.6368173 28.4430722,49.5576373 C28.959475,49.4675898 29.4743316,49.442749 29.9953726,49.4349865 C30.1716302,49.4349865 30.3463409,49.4287756 30.5210517,49.4287756 C30.5535208,49.4287756 30.5875351,49.4256706 30.6200034,49.4256706 C30.8070835,49.4256706 30.9941637,49.4349865 31.1796969,49.452064 C31.2786486,49.4644848 31.3791464,49.4753523 31.4780973,49.4955356 C31.5059274,49.5017456 31.5337574,49.4893256 31.5631336,49.4722473 L31.5693187,49.4722473 L31.5662265,49.4722473 C31.6079712,49.442749 31.6435316,49.4023823 31.655901,49.357359 C31.655901,49.357359 31.6589931,49.357359 31.6589931,49.360464 C31.6620853,49.354254 31.6605392,49.351149 31.6620853,49.3449381 C31.6620853,49.3402806 31.6620853,49.3356231 31.6636313,49.3325181 C31.6636313,49.3045723 31.6620853,49.281284 31.6435316,49.2642056 C31.1936123,48.8108623 30.6493795,48.6261089 30.0433023,48.4755123 C29.2872515,48.2876539 28.5543925,47.8964123 27.8478184,47.5781398 C27.3113159,47.3374948 26.7407991,46.9788564 26.4408526,46.4509906 C26.37437,46.3345498 26.3310785,46.2103456 26.2986102,46.0845898 C26.1826517,45.8517073 26.1037997,45.5955373 26.0465935,45.3517873 C25.878067,44.5956973 25.8626055,43.8132131 25.8548752,43.0431497 C25.8409597,41.5868606 25.666249,40.1398864 25.5487444,38.6898081 C25.4482466,37.391878 25.353934,36.0784239 25.3786711,34.7727314 C25.6801636,34.1377397 26.1254455,33.5834805 26.5923724,33.0633772 C27.4071755,32.1535847 28.124573,31.5837997 28.8419704,31.1009572 C29.0151351,30.9146522 29.2346835,30.7749222 29.4418634,30.6336405 C29.6273974,30.5078847 29.8175697,30.3836805 30.0108341,30.2656872 C30.2350207,30.2268738 30.4653916,30.2160055 30.7019475,30.2486088 C31.133314,30.3138163 31.5631336,30.3805755 31.9975921,30.4333622 C32.2387863,30.4628605 32.4830727,30.470623 32.7258129,30.4768338 C32.6763371,30.6398513 32.6438688,30.8075263 32.6376845,30.9596755 C32.6361385,31.0559338 32.7289051,31.1521913 32.8232177,31.1459813 C33.2870525,31.1273505 33.7261493,30.945703 34.1466932,30.7267938 C34.061657,30.9301772 33.9936275,31.1366663 33.9688895,31.3400497 C33.9549749,31.4689113 33.9998117,31.5806947 34.1451472,31.5946672 C34.636812,31.6427963 34.9955107,31.2298188 35.3294715,30.9270722 C35.3804934,31.3214188 35.5010901,31.857048 35.8644279,32.030933 C36.4055677,32.2855505 36.700876,31.5449863 36.781274,31.1521913 C36.9065098,31.3974938 37.0812205,31.616403 37.3054071,31.7499222 C37.487849,31.863258 37.7290432,31.610193 37.7970719,31.4689113 C37.8202638,31.4238872 37.8279941,31.3679955 37.8465478,31.3214188 C37.8496399,31.3245238 37.852732,31.3276297 37.8558242,31.3307347 C37.8728318,31.284158 37.8821082,31.2298188 37.8944776,31.1801372 C37.9022079,31.1521913 37.9099382,31.1211405 37.9161233,31.0931947 C37.9377683,30.9829638 37.9532298,30.8680755 37.957868,30.7578447 C38.1650479,31.034198 38.506739,31.2065305 38.8283313,31.0093572 C39.1638382,30.8013155 39.2024915,30.4100738 39.1653842,30.0452255 C39.397302,29.8511572 39.5673746,29.5949872 39.6585951,29.312423 L39.7266246,29.312423 C39.9013354,29.4366272 40.0915076,29.5251222 40.2878642,29.5390955 C40.6280101,29.5716988 40.7934444,29.3683147 40.8831189,29.1090397 C40.938779,29.0873038 40.9959852,29.059358 41.0500993,29.0283072 C41.2248109,29.230138 41.4459053,29.3652097 41.724206,29.296898 C41.9963224,29.233243 42.2019553,28.9972563 42.3070913,28.7488488 C42.3395596,28.6805363 42.3596593,28.6029088 42.378213,28.5299397 C42.4756178,28.6556955 42.5915763,28.7690313 42.7214502,28.8590797 C43.1806467,29.1866672 43.814554,29.293793 44.2722044,28.9056555 C44.6819251,28.559438 44.4376388,27.913578 44.3294107,27.4912855 C44.2923042,27.3484513 44.261382,27.2009588 44.2289129,27.0565722 C44.7731457,27.090728 45.3745847,27.0565722 45.8446037,26.7895338 C46.6547686,26.3268755 45.9234557,25.3270346 45.3977765,24.9652913 C45.3158324,24.9062946 45.0808225,24.7883013 44.8303519,24.6998055 C45.2416186,24.4094796 45.6034103,24.0058171 45.856973,23.5679988 C45.9064489,23.4763988 45.9543779,23.3366696 45.8322351,23.2761205 C45.6482471,23.192283 45.4302448,23.1394963 45.1983278,23.1208655 C45.6590704,22.8165663 46.0656981,22.391168 46.326992,21.9098788 C46.378014,21.815173 46.35173,21.7096005 46.2636016,21.6568138 C46.1120818,21.562108 45.9497396,21.486033 45.7812132,21.4301413 C45.9698394,21.3618296 46.1476423,21.2686771 46.3022541,21.1367105 C46.588286,20.897618 46.5944702,20.5327696 46.3022541,20.309203 C46.1986642,20.230023 46.0796136,20.1679205 45.9574708,20.1213446 C46.4073901,19.8775946 46.7908268,19.4708271 46.9779069,18.9895379 C47.0103752,18.9025946 47.0196516,18.7830488 46.9160625,18.7426829 C46.48315,18.5641396 46.0007616,18.4880646 45.5353808,18.5579296 C45.7595674,18.3203896 45.8848031,18.0331688 45.7873975,17.6558996 C45.618871,17.0209079 44.8566359,17.0845621 44.2861191,17.2382646 C44.3572407,17.0767996 44.4252702,16.9091246 44.4840225,16.7383446 C44.5845195,16.4526754 44.7607771,15.9853588 44.5659666,15.7043479 C44.5458669,15.6732971 44.5242211,15.6500088 44.4994832,15.6329304 C44.4932989,15.6267204 44.4855686,15.6236154 44.4778374,15.6174054 C44.4608306,15.6096429 44.442277,15.5972221 44.4221773,15.5910121 C44.4129009,15.5879071 44.4036244,15.5848021 44.3958933,15.5816971 C44.3773404,15.5785913 44.3572407,15.5739338 44.3386871,15.5739338 L44.3046727,15.5739338 C44.2861191,15.5739338 44.2691123,15.5754863 44.2505587,15.5785913 L44.2381901,15.5785913 L44.2381901,15.5816971 C44.2289129,15.5816971 44.2196365,15.5848021 44.21036,15.5879071 L44.208814,15.5848021 C44.205721,15.5879071 44.2026289,15.5879071 44.1979907,15.5910121 C44.1546999,15.6034321 44.1129544,15.6174054 44.0696636,15.6360363 C44.0619325,15.6406938 44.0542021,15.6469038 44.0449257,15.6500088 C44.0016341,15.6732971 43.9567965,15.6981379 43.9150518,15.7229788 C43.8980442,15.7136629 43.8748523,15.7105579 43.8562995,15.7090054 C43.9227821,15.6670871 43.9598894,15.5910121 43.9475201,15.4792288 C43.8856756,14.9855188 43.4218409,14.5352796 42.9920205,14.2232179 C42.9966587,14.2201129 42.9982048,14.2201129 42.9997509,14.2170079 C43.1497245,14.0865938 43.2904209,13.9391021 43.4187488,13.7916096 C43.6955034,13.4733379 43.9784423,13.1566179 43.6197435,12.7793496 C43.3816415,12.5324946 42.8606005,12.3787921 42.5359161,12.3275579 C42.5158173,12.3244529 42.4910793,12.3182429 42.4678875,12.3151379 C42.5730235,12.1909337 42.6766134,12.0651779 42.7662879,11.9301062 C42.8899767,11.7438004 42.9827441,11.5388637 43.0306739,11.3292704 C43.1249866,11.1740154 43.213115,11.0172079 43.2888749,10.8557437 C43.4883235,10.4318979 43.6197435,9.87142873 43.1651852,9.55315622 C42.8760621,9.35287789 42.4400574,9.31716956 42.0999123,9.32648456 C41.9221086,9.32958956 41.7427588,9.34356206 41.5695941,9.38237622 L41.5695941,9.30009122 C41.5742323,8.82035372 41.6546304,8.32353872 41.5216644,7.85622205 C41.4814657,7.71494038 41.3191235,7.49603121 41.1444128,7.53795038 C40.8042669,7.61557788 40.2476655,7.97887372 40.025025,8.39340372 C40.0080174,8.12636538 39.9755491,7.85622205 39.9322576,7.58763205 C39.9028814,7.41219371 39.7173474,7.25849204 39.5395445,7.25849204 C39.3431879,7.25849204 39.1530157,7.31127871 38.9659356,7.37027538 C39.0772558,7.15291871 39.1839379,6.93245704 39.2643359,6.70267954 C39.3555565,6.44961454 39.0695255,6.20741704 38.8422459,6.19654954 C38.6675352,6.18878704 38.3815041,6.20431204 38.1233024,6.27262454 C38.2779142,5.77580954 38.2315305,5.1020037 38.0954723,4.80236203 C38.0320818,4.66418536 37.8666475,4.5260087 37.7058514,4.58190036 C37.514133,4.64244953 37.3363293,4.73405036 37.170895,4.8458337 C37.1105966,4.6874737 37.0394758,4.53998203 36.9776306,4.41422536 C36.8307499,4.11458369 36.6096554,3.40351702 36.1612814,3.43767369 C35.944826,3.45475119 35.788668,3.64105702 35.6526098,3.79786453 C35.4809912,3.99503786 35.3201951,4.19531619 35.1887751,4.42043536 C35.0635394,4.63002953 34.9599503,4.8427287 34.8764601,5.06784787 C34.7821466,4.82099286 34.6754645,4.58966286 34.5873361,4.41112036 C34.3616034,3.93448869 34.194623,3.41904286 33.8544771,3.00917035 C33.7060504,2.82907452 33.4447565,2.57135202 33.1834634,2.66450452 C33.0458591,2.71418619 32.9453613,2.85857285 32.8696015,2.99985535 C32.7876573,2.83683785 32.6794292,2.69400285 32.5387328,2.57445702 C32.0640756,2.18166285 31.4100686,2.44404285 30.9570564,2.73436952 C30.7885299,2.83994285 30.633918,2.96414619 30.4839452,3.09300785 C30.4545691,3.11163869 30.4298311,3.13803202 30.4066393,3.16287285 C30.321603,3.23428952 30.2350207,3.31036452 30.1515305,3.38488702 C30.1839988,3.22031702 30.2195592,3.05885202 30.2241982,2.89428202 C30.2334746,2.49061952 29.9706346,2.18632035 29.5918362,2.09937785 C29.0816185,1.97983118 28.54357,2.26705285 28.1493109,2.66761035 C27.8122571,2.13042868 26.9356096,2.16458452 26.2352197,2.33691702 C26.4022001,1.72366118 26.1563677,1.04985618 25.3663025,1.08245951 C25.0771785,1.09643201 24.8344391,1.22218868 24.6396278,1.41004701 C24.596337,1.18182201 24.5344926,0.956702842 24.4587328,0.756424508 C24.2237229,0.124537838 23.5959999,-0.232547998 22.9868305,0.171114505 C22.4472359,0.52509534 22.3328235,1.33862951 22.2524255,1.92083451 C22.2323258,2.08695702 22.2122269,2.25152702 22.1998575,2.42386035 C22.1828507,2.40522952 22.1673892,2.38659868 22.1503816,2.37417868 C22.0390614,2.22047618 21.9045492,2.09006202 21.7375688,2.03261785 C21.1979751,1.84320785 20.8872053,2.14905952 20.6738412,2.55272118 C20.4465624,2.07919452 20.1512542,1.60722035 19.6394905,1.64292868 C19.6889655,0.962912842 19.5003401,0.284450339 18.7365589,0.408653673 C18.263447,0.484728673 17.9573162,0.990858676 17.767144,1.38520618 C17.7516833,1.41315201 17.7377678,1.44420285 17.7253993,1.47370118 C17.5398652,0.944282842 17.2043584,0.500254506 16.6678559,0.629115341 C16.0648708,0.775055341 15.9906571,1.38210118 15.9922031,1.97362118 C15.6644266,1.68950535 15.2469756,1.56995951 14.8619929,1.93480785 C14.5249399,2.24686952 14.5079323,2.71108119 14.6099762,3.18150286 C14.3595056,3.07903452 14.0873892,3.09300785 13.8276413,3.30725952 C13.5261488,3.55721952 13.4859502,3.94846119 13.5740786,4.3521237 C13.0561298,4.16737036 12.4840669,4.17979119 12.0341477,4.53687703 C11.8393372,4.6936837 11.724924,4.89085703 11.6599874,5.1082137 C11.5038295,5.39698787 11.3847789,5.70904954 11.2440825,6.0040337 C11.1605923,6.17326121 11.0585484,6.39061787 10.97042,6.62349954 C10.8946602,6.41080121 10.7941624,6.21052204 10.6766578,6.0133487 C10.552969,5.80375537 10.3999032,5.60968704 10.2391071,5.4249337 C10.1123253,5.27899453 9.96544462,5.1020037 9.7582656,5.0880312 C9.33772163,5.05542703 9.12899654,5.72612787 8.98984538,6.0071387 C8.93109311,6.12668454 8.86615656,6.26330871 8.80895036,6.41390621 C8.65279243,6.31143787 8.48117383,6.22604787 8.30182404,6.16394621 C8.15185123,6.11426454 7.99569331,6.24467871 7.93694103,6.37353954 C7.80861318,6.65765621 7.76532242,7.29109538 7.90911097,7.76151705 C7.66482464,7.69631038 7.39580038,7.68233705 7.23191211,7.68699455 C7.01700192,7.69941538 6.74797849,7.92608705 6.83301476,8.16362705 C6.90877379,8.38253622 7.00772551,8.59057705 7.11595364,8.79706622 C6.93969682,8.74117455 6.75880097,8.69149289 6.57326692,8.69149289 C6.40474044,8.69149289 6.23157577,8.83277455 6.2037457,9.00200205 C6.16200018,9.25196206 6.13262405,9.50502706 6.11716253,9.76119789 C5.9053453,9.36995539 5.37966617,9.02684289 5.05961998,8.95232039 C4.89727778,8.91350705 4.74111986,9.11999539 4.70555945,9.25196206 C4.5818698,9.69288539 4.65608359,10.1617546 4.65917573,10.6135462 C4.6607218,10.6414921 4.65917573,10.6663329 4.6607218,10.6942787 C4.4983796,10.6570171 4.32830706,10.6445971 4.16132666,10.6414921 C3.83818834,10.6321762 3.43001374,10.6632279 3.15789735,10.8526379 C2.72653172,11.1507271 2.85176661,11.6832512 3.0403928,12.0822554 C3.11151445,12.2313004 3.19345859,12.3818971 3.28313306,12.5262837 C3.32951678,12.7265629 3.41455305,12.9175262 3.5320576,13.0945162 C3.61863994,13.2202729 3.71449952,13.3413712 3.81499647,13.4578121 C3.79180461,13.4609171 3.77015965,13.4640221 3.75005993,13.4671279 C3.44238312,13.5168087 2.95071833,13.6580912 2.72653172,13.8940779 C2.39102402,14.2527163 2.65695614,14.5492529 2.91670398,14.8504471 C3.0403928,14.9886238 3.17026673,15.1252479 3.31096313,15.2525571 C3.31096313,15.2525571 3.31405527,15.2556621 3.3171474,15.2556621 C2.91361102,15.5506454 2.47606029,15.9729388 2.41730801,16.4418079 C2.39720912,16.6141404 2.49461394,16.7057404 2.66159434,16.6886629 C2.99864812,16.6529546 3.37899181,16.6684796 3.76861358,16.6715846 C3.71759165,16.7771579 3.66966186,16.8858363 3.63100932,16.9883046 C3.57380311,17.1373488 3.50422753,17.3407329 3.49031208,17.5348013 C3.28313306,17.2848413 3.02338522,17.1559796 2.75281572,17.3500479 C2.46369174,17.5534313 2.46678387,17.8530729 2.50698332,18.1604771 C2.38793188,18.0642196 2.27042734,17.9601988 2.16065314,17.8499679 C2.03696349,17.7319746 1.85143026,17.9446738 1.85143026,18.0673246 C1.85143026,18.3731763 1.80040833,18.7333671 1.93955867,19.0205888 C1.96120446,19.0671646 1.99367273,19.1525546 2.03541742,19.2301821 C1.51128435,19.3279929 0.996427694,19.5298238 0.606806754,19.8744896 C0.554238757,19.9241713 0.490848279,20.0530321 0.560423032,20.1182396 C0.80625543,20.3355963 1.09383334,20.5669255 1.40305622,20.723733 C1.28709774,20.8137805 1.17268534,20.9115913 1.05827293,21.0109538 C0.617629235,21.4021955 0.150702369,21.8617496 0.00536775894,22.4532705" id="2"></path>
            </g>
        </g>
    </g>
</svg>