<?xml version="1.0" encoding="UTF-8"?>
<svg width="52px" height="44px" viewBox="0 0 52 44" version="1.1" xmlns="http://www.w3.org/2000/svg" xmlns:xlink="http://www.w3.org/1999/xlink">
    <title>植物-3</title>
    <g id="V1.4" stroke="none" stroke-width="1" fill="none" fill-rule="evenodd">
        <g id="形状汇集备份" transform="translate(-1035.000000, -107.000000)" fill="#3D4242">
            <g id="植物-3" transform="translate(1035.000000, 107.000000)">
                <path d="M33.4540184,33.3495903 C33.7506461,33.7996393 33.6191032,34.4627763 33.6794788,34.9750127 C33.7433544,35.5167219 33.957148,36.0083275 34.147608,36.5140799 L34.2148687,36.6961555 C34.6408582,37.8762173 34.8364883,38.9910349 34.1076493,40.1359866 C33.5653809,40.9879085 32.7354911,41.1812468 31.8521193,41.3381219 L31.4070606,41.416401 L31.2279981,41.449882 C30.1240297,41.6638542 29.3023972,42.2984026 28.3947223,42.9211619 C27.3893382,43.6117085 26.3766623,44.0084118 25.143776,43.9998647 C24.0240575,43.9922018 23.0177983,43.6665278 21.9619554,43.3408539 C20.9046541,43.0145905 19.9403953,43.0196009 18.8758023,43.306076 C18.4574318,43.4185441 18.0465281,43.5576083 17.6321896,43.68494 L17.2362959,43.8029011 C16.8493574,43.9227943 16.3683412,44.1096049 16.0693601,43.6733066 C15.9281921,43.467292 15.9384005,43.1528177 15.9620258,42.8695846 C16.3782379,42.7543461 16.79795,42.6709382 17.2491625,42.66357 L17.7511846,42.6576847 C18.2475466,42.6493126 18.7290197,42.6191398 19.2144304,42.4381034 C19.7427293,42.2410174 20.212767,41.9316697 20.6778274,41.611142 L21.0265221,41.3702293 C21.4341863,41.0904042 21.8482387,40.8213669 22.3043752,40.6308342 C23.5334697,40.1171241 24.9256074,39.9927491 26.0082839,39.1551334 C27.0174598,38.3744001 27.4981308,37.1050086 27.7358413,35.8810052 C28.2903047,35.6802957 28.8710183,35.5305741 29.4097316,35.3118863 C30.7449937,34.7695876 32.0846309,34.0080117 33.4540184,33.3495903 Z M39.7654509,25.215405 L40.4363508,25.2720818 C41.405062,25.3547847 42.3703314,25.454208 43.3080665,25.7406095 C44.6541609,26.1517953 45.5936118,26.8340407 46.2223748,28.0852727 L46.2755102,28.1939215 C46.8387236,29.377842 47.6670645,30.2873712 47.8032741,31.6557912 C47.9371503,33.0021066 47.3123946,34.1002614 47.1225179,35.3876313 C47.0405588,35.9423085 47.2584358,36.6517177 47.0251003,37.16307 C46.7943899,37.6691171 46.1518424,37.8294489 45.6828381,38.0295689 C44.6564537,38.467534 43.7047367,39.0985457 42.9210213,39.9016782 C42.1685144,40.6723908 41.6496347,41.8224176 40.690626,42.3591165 C40.1473756,42.6632896 39.5534584,42.7190859 38.9506003,42.7361322 L38.5805868,42.7435113 C38.0665326,42.7519785 37.5521735,42.7633709 37.0631346,42.9064255 C36.4727959,43.0791358 35.7611227,43.6320447 35.1258669,43.4557976 C34.6297374,43.3184546 34.3669434,42.8159441 33.8247301,42.7449148 C33.3166421,42.6788958 32.8622213,42.9379613 32.4054672,43.1189241 C32.0601307,43.2556776 31.723836,43.3552955 31.3802495,43.1422075 C31.1696643,43.011938 30.9372038,42.8023867 30.7659939,42.5724992 C30.922037,42.5103117 31.0830385,42.456966 31.2524983,42.4174725 C31.4375,42.3745791 31.623097,42.3394863 31.8080767,42.3066758 L32.2502224,42.2294877 C32.9464446,42.1052651 33.6197491,41.9502557 34.2036086,41.4616711 C34.9499903,40.8368487 35.282785,40.026348 35.3583274,39.0687782 C35.4079112,38.4418927 35.3183687,37.7973236 35.1118668,37.2046265 C34.9068233,36.614582 34.5457367,36.0952721 34.3476932,35.502575 C34.0878158,34.7256732 34.2934427,33.8199755 33.9078559,33.1359129 C35.8693321,32.2352255 37.8976005,31.6174766 40.0664536,32.2166577 C40.2869556,32.2773716 40.5879584,32.097293 40.5582081,31.8382275 C40.3741647,30.2254784 39.7873261,28.6483914 38.6361073,27.4980698 C38.7297331,27.3707475 38.8195673,27.2378254 38.902693,27.0939983 C39.2471545,26.4965856 39.4341145,25.8187123 39.7654509,25.215405 Z M5.34030402,30.7179682 C5.53805582,30.8647425 5.73959933,31.005917 5.94493453,31.1409022 L6.15644551,31.2778137 C6.97638132,31.7999327 7.89998233,32.2798237 8.87591956,32.3351382 C9.71271884,32.3825893 10.3465163,32.1232291 10.8505209,31.5181534 C10.940355,31.5426158 11.0296058,31.5685518 11.1173983,31.5994982 C11.6727367,31.7937237 12.2041582,32.0507261 12.7277046,32.3189281 C13.6231295,32.7775242 14.4995958,33.2779715 15.4367293,33.6478546 C16.0712758,33.8982056 16.7250309,34.0373296 17.3841916,34.158806 L18.0181942,34.2730684 C18.3091253,34.3257648 18.6002477,34.380842 18.8903858,34.4462715 C19.8114775,34.653465 20.9192376,35.4029571 21.8277875,34.8353119 C22.0544146,35.2555933 22.5808777,35.5202587 22.9574228,35.7940605 C23.5442615,36.2220049 24.2498096,36.9544029 24.9856913,37.0787779 C25.5163134,37.168506 25.9465917,36.8938879 26.3641321,36.6055478 L26.4890997,36.5189848 C26.5930669,36.4470903 26.6967856,36.3765295 26.8016245,36.312781 C26.929959,36.2349729 27.0638352,36.1668909 27.1997531,36.102935 L27.1237838,36.3075579 C26.7887226,37.1926149 26.369933,38.0493367 25.573405,38.6051718 C24.7182305,39.2019951 23.6655959,39.387084 22.6940454,39.701853 C21.698578,40.0245796 20.9072791,40.5860356 20.0162293,41.1144821 C19.5775587,41.3747265 19.0942626,41.6222976 18.5952164,41.735473 C18.2835677,41.8060602 17.9654294,41.8170388 17.6463796,41.8201335 L17.3272326,41.8225159 C17.1145409,41.8249064 16.9022704,41.8314559 16.6920741,41.8574902 C15.6271894,41.9889387 14.6778057,42.608456 13.6065043,42.6880324 C13.0791662,42.7272312 12.550953,42.6323289 12.1612828,42.2480042 C11.8346132,41.925867 11.6444448,41.4740497 11.3702756,41.109177 C10.8668544,40.4383771 10.2164318,40.2093738 9.39829931,40.360569 L9.25032178,40.3898221 C8.73348678,40.4976586 8.22780496,40.6479796 7.72528408,40.3761896 C7.1603206,40.0708519 7.05881967,39.4973121 6.7362334,38.9986331 C6.44106405,38.5429843 5.86676715,38.3814736 5.57830619,37.9426243 C5.24113645,37.4300931 5.48263865,36.6971057 5.72822422,36.1996056 C6.00764343,35.633434 6.37893848,35.1129452 6.81060908,34.6558228 C7.18423748,34.2600037 7.65440843,33.9694024 7.90086901,33.4713128 C7.96066122,33.3504745 7.89066058,33.1633225 7.73403416,33.1771747 C6.73907915,33.2666445 5.93298781,34.3873411 5.42107244,35.1962988 L5.37909604,35.2629615 C5.30647038,35.3784947 5.23530307,35.4999225 5.16676078,35.6251817 L5.01395405,35.302995 C4.93811536,35.141911 4.8656997,34.9803178 4.80829918,34.8158598 C4.60792235,34.2411411 4.4810462,33.6487388 4.53792172,33.0360002 C4.6169641,32.1815851 4.99234252,31.4618605 5.34030402,30.7179682 Z M38.3240211,27.8747316 C39.1109449,28.9133514 39.6484915,30.0672097 39.7587425,31.3601795 C36.9420502,30.9121725 34.264432,32.1170097 31.7637194,33.3620353 L30.6192797,33.9351679 C30.0478858,34.2195155 29.4725134,34.4961541 28.8812267,34.7359887 C28.1791787,35.0206955 27.4377553,35.2211102 26.7575824,35.5603416 C26.4402462,35.7191998 26.1684104,35.9349403 25.8729493,36.1276921 C25.4103618,36.4300826 25.1073174,36.4669235 24.6181879,36.1439021 C24.2384345,35.893089 23.8796812,35.5995404 23.5110112,35.3322225 C23.165383,35.0814094 22.5105854,34.7589774 22.3294587,34.3546112 C22.507377,34.1229554 22.6610868,33.8665424 22.8343383,33.6413706 C23.2234252,33.1356181 23.7052629,32.7545354 24.2235593,32.3973257 C24.6663134,32.4017466 25.0944839,32.4438926 25.4491538,32.7053159 C25.1735263,32.931372 24.9404825,33.2010477 24.7841478,33.5335003 C24.7056887,33.7006108 24.9046072,33.8800999 25.0469418,33.7386307 C25.8055737,32.9838335 26.598331,32.534374 27.6057568,32.1907217 C28.0899279,32.0253795 28.576724,31.8671108 29.0661451,31.7173892 C29.3172724,31.6410548 29.5870665,31.5414369 29.8603607,31.464513 C30.0677376,31.6328024 30.3719487,31.703537 30.7986609,31.6136451 C31.4330417,31.4798388 31.9352962,30.9935384 32.4078005,30.5794462 C33.2031603,29.8823022 34.0076887,29.6186933 35.0091139,29.4270433 L35.130242,29.4043675 C36.3666282,29.1774273 37.4950969,28.7603878 38.3240211,27.8747316 Z M11.780946,19.5858143 C11.9323224,19.9598235 12.0912822,20.3335381 12.3184926,20.6642224 C12.5877034,21.05621 12.9563734,21.3317802 13.31396,21.6344654 C14.011633,22.2256889 14.3753446,23.0691991 14.8259737,23.8531743 C13.9600075,23.9613393 13.1377917,24.2610772 12.4170768,24.7700717 C11.8313619,25.1834271 11.5393704,25.5165429 11.8784566,26.1598949 L11.9110305,26.219247 C12.3316177,26.95695 12.3059508,27.8249226 13.0091655,28.3934521 C13.7158803,28.9649288 14.6848058,29.0568837 15.4895215,29.4303035 C16.3645294,29.8361434 17.0094103,30.6009613 17.8745015,30.998254 C18.7550512,31.4029149 19.4950163,30.9708444 20.375566,30.8287857 C21.5862853,30.6336761 21.7566202,31.8635741 22.7001705,32.248783 C22.9291309,32.3422116 23.1761748,32.3778736 23.4299271,32.3911364 C22.9210266,32.7387044 22.5051776,33.1924976 22.1111544,33.6987136 L21.9454402,33.9136689 C21.6602611,34.2752866 21.3989986,34.5045922 20.851862,34.4397875 C20.5534842,34.4044202 20.2615232,34.2429095 19.9809374,34.1438811 C19.4328583,33.9500158 18.8707215,33.8322995 18.3014918,33.730703 L18.0877118,33.6932427 C16.8790341,33.4848703 15.7797324,33.2019318 14.6734307,32.6581595 C13.6732966,32.1662593 12.7134128,31.59213 11.6782784,31.1745011 C11.1570653,30.9640656 10.6230188,30.8582585 10.0895556,30.6949794 C9.30234011,30.4535975 9.5362589,29.535816 9.34054879,28.896552 C9.28746497,28.7231539 9.21934398,28.5557487 9.14739888,28.3899044 L9.00173226,28.058984 C8.90565182,27.8380071 8.81606253,27.6145527 8.7595435,27.3781157 C8.59445866,26.6881585 8.68020944,25.9937804 8.83187749,25.3111915 C8.86571113,25.1590384 8.90182344,25.007401 8.93907508,24.8560216 L9.16714226,23.9487766 L9.27433985,23.4936067 C9.40909108,22.8867627 9.42775791,22.2660665 9.55288405,21.6606962 C9.76093403,20.6526826 10.5230056,20.208298 11.3356778,19.8049158 L11.780946,19.5858143 Z M15.1287265,24.3412431 C15.1713102,24.4037254 15.214769,24.4653234 15.2599777,24.5260373 C15.625731,25.0146956 16.0562349,25.5021749 16.5331143,25.9224564 C16.2749869,25.9124356 16.0203596,25.9619499 15.7806074,26.1022402 C15.656648,26.1747431 15.6715231,26.3943152 15.8226078,26.4255563 L16.0654345,26.4727974 C16.5845246,26.5692196 17.0608802,26.6387818 17.5527902,26.9097936 C18.0535865,27.1856586 18.4975072,27.5549522 18.9840116,27.8549848 C19.8816107,28.4089253 20.9073044,28.6443736 21.9357765,28.8076693 L22.2911517,28.8626538 C22.8767435,28.9548909 23.4192121,29.0677421 23.9033064,29.4606605 L24.2849398,29.7722623 C24.4965481,29.9425078 24.7116315,30.1054138 24.9509826,30.2481725 C25.4491538,30.5449631 25.9884504,30.772198 26.4624131,31.1105452 C26.7599158,31.3230438 27.0148347,31.5862355 27.3190459,31.7719138 L27.2825872,31.7842924 C26.7721659,31.9649604 26.2188692,32.1789326 25.7451982,32.4886912 C25.3981117,32.1052507 24.9358158,31.9676129 24.4041026,31.9325403 C23.9485152,31.9018887 23.4684275,31.9720338 23.0268401,31.8270279 C22.7224844,31.7271524 22.5197552,31.5228121 22.3310954,31.2955103 L22.1366054,31.0545928 C22.1026086,31.0126947 22.0680887,30.9709657 22.0325394,30.9298773 C21.5915354,30.4211775 21.0814057,30.195711 20.4070662,30.273519 C20.0033959,30.320086 19.6286008,30.467155 19.2333889,30.552626 C18.5797579,30.6938005 18.1288372,30.5508576 17.6117074,30.1668277 C16.945243,29.6713907 16.3441126,29.1621015 15.5735222,28.8258174 C14.8434739,28.5072169 13.8792151,28.4220406 13.2818763,27.8555743 C12.9120396,27.505438 12.8525391,27.0055801 12.6985377,26.5449209 C12.5926617,26.2283836 12.2190333,25.8081021 12.4240769,25.5033538 C12.6469122,25.1720801 13.2766263,24.9159618 13.6336296,24.7615246 C14.0933004,24.5625835 14.5765965,24.4414505 15.0689343,24.3604004 C15.0911012,24.3568637 15.110643,24.3497902 15.1287265,24.3412431 Z M20.0025209,20.728473 C20.5031551,21.7735113 21.2436927,22.7107303 21.9893771,23.5906372 L22.2687915,23.9180144 C23.3170511,25.1390706 24.3320603,26.5060169 25.5480297,27.5614362 C26.6992485,28.561152 29.1276873,29.4196933 29.1463542,31.2057422 C28.7056418,31.3298225 28.2658045,31.458029 27.8300505,31.5994982 L27.3911844,31.2125992 C27.1453021,30.998208 26.894193,30.7889975 26.6289562,30.6062664 C26.1500352,30.2764663 25.6162803,30.0398001 25.1251092,29.7306309 C24.6380214,29.4238195 24.257393,28.9652235 23.7545551,28.685527 C23.7014712,28.6560543 23.6469291,28.6307077 23.5923869,28.6059506 C23.5859702,28.597993 23.5818868,28.5897406 23.5737201,28.5823724 C23.4385151,28.4588488 23.3289483,28.3172195 23.2243554,28.1717413 L23.0686136,27.9524196 C22.9900249,27.8430975 22.9084224,27.7356202 22.8150882,27.6360023 C22.5114604,27.3115073 22.1947075,27.0214954 21.9272467,26.6628119 C21.6186606,26.2487198 21.3581999,25.7913026 21.2109069,25.2920342 C21.0592388,24.7777346 21.112906,24.2811187 21.0720723,23.7570931 C21.00178,22.8587636 20.3504824,21.7703348 20.0025209,20.728473 Z M4.60879736,17.4723231 C4.62279749,17.6084872 4.63154757,17.7467145 4.63329758,17.8881837 L4.6378625,18.1865202 C4.65377277,19.0754552 4.69971069,19.9119893 5.04805136,20.7573563 C5.3965962,21.6032243 5.95455962,22.2896447 6.63414914,22.886468 C6.98881904,23.197995 7.36244744,23.4888911 7.69728382,23.8234068 C7.93528599,24.0615467 8.12837108,24.3347591 8.34333137,24.5902879 C8.2260803,25.0957456 8.12282936,25.6035612 8.08228733,26.1264078 C8.04612033,26.5979719 8.06566218,27.0789672 8.1785382,27.5402158 C8.31795614,28.1081558 8.64987583,28.6047717 8.79454381,29.1685855 C9.00921244,30.0041381 8.79571049,30.8497114 9.75763592,31.2192997 C9.8804287,31.2664561 10.0070132,31.304476 10.1347644,31.3386643 C8.41420702,32.2611615 6.02747695,30.4329666 4.8176326,29.3371696 C4.12666797,28.7114631 3.5958298,27.9345613 2.91244858,27.3076758 C2.66744635,27.0830934 2.40144393,26.8906363 2.09810783,26.7547669 C1.57018636,26.5175113 0.930263861,26.5074905 0.573552279,25.9814019 C-0.125579088,24.9516239 0.302008139,23.8172176 0.376675486,22.7069789 C0.436467697,21.8177859 -0.489874072,20.6214869 0.362383689,19.9654234 C0.673011518,19.7263993 1.05976504,19.6014349 1.37797627,19.3715474 C1.67518731,19.1563963 1.88110585,18.8699211 2.12844144,18.6043716 C2.80890597,17.8740368 3.73728942,17.7867974 4.60879736,17.4723231 Z M45.4757308,15.8424798 C45.4810029,16.0090009 45.3182514,16.345285 45.2730427,16.506501 C45.0869577,17.1696379 44.9487064,17.8531111 44.8638306,18.5371737 C44.754163,19.4178196 44.7760382,20.3391379 44.4732854,21.183827 C44.2017413,21.9415715 43.6846116,22.4290509 42.9166462,22.6509807 C42.22714,22.8496271 41.5376337,22.8941309 40.8872111,23.2277625 C39.7126587,23.8301856 39.161987,24.8599636 38.6711076,26.0368107 C38.0005598,27.6442547 36.8470076,28.4305877 35.1772008,28.7453567 L34.724147,28.8285564 C34.22071,28.9214835 33.7197291,29.0253706 33.2472248,29.2337203 C32.6649362,29.490369 32.2302659,29.9064536 31.7551637,30.3113613 L31.4948827,30.5317331 C31.2545947,30.7344683 30.9642926,30.9603447 30.6709097,30.9799809 L30.6119925,30.9802757 C30.5376168,30.9634762 30.4632412,30.9537502 30.3891571,30.9502135 C29.9816951,30.8158177 30.0595708,30.2729296 30.1861553,29.9024571 C30.4702412,29.0701465 31.181331,28.4824598 31.8912542,28.026811 C33.190641,27.1927321 34.5539034,26.4703549 35.8372484,25.6070979 L36.1470077,25.3963347 C38.8233249,23.5544734 41.2730032,21.3109419 42.5751015,18.2557089 C42.6771857,18.0160954 42.3516828,17.8038916 42.2186815,18.0449787 C42.0148047,18.4145671 41.7963444,18.7717768 41.5670923,19.1198501 C41.7528856,18.5147744 41.8587616,17.883468 41.9074704,17.2403725 C42.5266843,16.811544 43.070356,16.2875184 43.6878199,15.8551531 C43.9990311,15.6373495 44.3254091,15.4372295 44.7054542,15.3753367 L44.7736224,15.364692 C45.0953272,15.3170789 45.458048,15.3102019 45.4757308,15.8424798 Z M35.3828276,18.5410052 C35.937291,18.6182238 36.0778756,18.8248278 35.8048731,19.1608172 C35.5817461,19.5622361 35.2577015,19.9153197 34.9631155,20.2645718 C34.3118179,21.0364632 33.6033531,21.7576615 32.8377211,22.4140198 C32.094256,23.0512207 31.2991654,23.6294761 30.4600328,24.1313971 C29.6019416,24.6445178 28.657808,24.9864017 27.8014669,25.4956909 C27.6107152,25.6094557 27.7477998,25.8629214 27.9426349,25.8337434 C29.5803581,25.5876459 31.2198314,24.4467556 32.5005514,23.4461556 C33.0961401,22.9804861 33.6768538,22.4714916 34.2269421,21.929193 C34.1706499,22.1042611 34.1292329,22.2837502 34.109691,22.4688391 C34.0481488,23.0459156 34.110566,23.6288867 34.0860658,24.2080263 L34.0730218,24.5527508 C34.0498861,25.1212081 33.9971194,25.775477 33.6605203,26.2056895 C32.3074663,26.9946752 30.6674097,27.7229469 29.858319,29.1078716 C29.6576505,29.4512292 29.5167742,29.9210249 29.4951907,30.3637056 C29.271772,29.719726 28.7047668,29.188627 28.1540951,28.7748295 C27.5917567,28.3518955 26.9845011,27.9952752 26.417496,27.5791199 C25.9204914,27.2142472 25.4885292,26.787187 25.0761088,26.3336013 C28.8311626,25.5843692 31.6798736,22.6530846 34.1161133,19.8310515 L34.5681952,19.30376 C34.6773962,19.1759662 34.7875305,19.0464747 34.906961,18.9273576 L34.9984075,18.8401536 C35.1144918,18.7246204 35.2428263,18.6250025 35.3828276,18.5410052 Z M49.510998,19.4013149 C49.8589595,20.0644518 50.3927143,20.6438862 50.9661362,21.0842091 C51.1971383,21.2616351 51.4759742,21.4084094 51.6743093,21.6247394 C52.0266459,22.0087694 52.0318959,22.4626498 51.9697703,22.9489502 C51.8801237,23.6512018 51.6433552,24.3821697 51.3848687,25.0474638 L51.3248895,25.1997844 C51.0758039,25.8244889 50.9598543,26.3403355 50.94645,26.997492 L50.945136,27.1405653 C50.9463027,27.8325855 50.7946346,28.5001434 50.3501306,29.050105 C49.7863338,29.7468409 48.6922822,29.6386759 48.1398605,30.2125104 C47.9059417,29.6280657 47.5865638,29.0698518 47.2289772,28.4960172 C46.8378486,27.8685423 46.6094715,27.1653224 46.0964252,26.6186028 C45.6137125,26.1037138 44.9565815,25.7550511 44.3146173,25.4874385 C43.8368629,25.2882027 43.3375251,25.1458493 42.8273954,25.0459367 C43.4127028,24.4718627 44.2170944,24.3446621 45.0227808,24.2461858 L45.232846,24.2208729 C45.4776222,24.1914599 45.7207642,24.1613396 45.9561322,24.1187238 L46.2158956,24.0702238 C47.229646,23.8734824 48.2689472,23.5655901 48.7745329,22.5761199 C49.2575373,21.6300445 49.3660383,20.4779546 49.510998,19.4013149 Z M21.3083244,16.3868416 C20.9180709,16.8616477 20.6972772,17.4811649 20.6896938,18.0962613 C20.3484407,17.9665812 19.9847291,18.0541153 19.7505186,18.3747788 L19.7306851,18.4054305 C18.4633819,19.7275782 20.5359841,22.4653023 20.6080264,23.8891311 C20.6651936,25.0173481 20.786528,25.9074253 21.4702009,26.8481956 C21.771787,27.2634667 22.1398737,27.5956246 22.4825851,27.9716969 C22.5945862,28.0940089 22.684712,28.2354781 22.7774628,28.3698739 L22.3354218,28.2876776 C22.2621155,28.2735634 22.1891658,28.2587616 22.1168318,28.2425516 C21.8379959,28.1800693 21.5571184,28.1193554 21.2774075,28.0548101 C21.0340719,27.8429431 20.8600704,27.5796853 20.6937423,27.3087009 L20.5694716,27.1046962 C20.4862991,26.9686369 20.4011912,26.833375 20.3064403,26.7043685 C20.0203127,26.314444 19.6720595,25.980223 19.3459732,25.6256657 C18.9003025,25.1414284 18.5015906,24.6162239 18.4610485,23.9298035 C18.4240065,23.3011496 18.62205,22.6795693 18.6859256,22.0585783 C18.7386953,21.5465686 18.6632271,21.0955831 18.5366015,20.6112748 L18.5039239,20.4894489 C18.2872136,19.6992844 18.4417983,19.2344991 18.8340936,18.5421841 C19.1245962,18.0302423 19.3812652,17.3618003 19.7974774,16.9429925 C20.1600223,16.5784145 20.7579444,16.3927361 21.3083244,16.3868416 Z M15.6913566,10.9172879 C16.4246133,11.3475901 17.0473273,12.0007064 17.453331,12.7510827 C17.4684978,12.9824438 17.4699562,13.2182258 17.448081,13.4622602 C17.3506634,14.5612992 17.084661,15.6288024 17.124328,16.7384515 C17.1441615,17.2910657 17.1593283,17.8115545 17.0983694,18.3641687 C17.086411,18.4693864 17.0747442,18.5743094 17.0645358,18.6783482 C16.7486579,17.657412 16.651532,16.6205605 16.6080733,15.541563 C16.5999066,15.3387905 16.2735286,15.2692348 16.2382366,15.4908699 C16.0463182,16.6954213 16.2589451,17.8690264 16.6710739,19.0072641 C17.0674525,20.1018822 17.5425818,21.2522038 18.1300038,22.2684244 C18.0748783,22.6736747 17.9876692,23.0777462 17.9555856,23.4927225 C17.9027934,24.1714801 18.0594199,24.7886395 18.446465,25.3465588 C18.8329269,25.9038885 19.360265,26.3383169 19.7831856,26.8647003 C20.0346045,27.1774062 20.2206895,27.5198796 20.4406082,27.836417 C20.3886911,27.8216806 20.3364823,27.8081232 20.2848568,27.7919131 C19.7373518,27.620887 19.2736333,27.3305503 18.8093944,27.0124044 L18.5768412,26.8514376 C18.3079221,26.6639909 17.9894192,26.4467767 17.6499161,26.2684665 L17.2222199,25.8806106 C16.7051486,25.4076847 16.2128614,24.9294561 15.7893575,24.342422 C15.2748528,23.6288867 14.9359331,22.8272278 14.4578871,22.0954193 C14.0078413,21.4060516 13.2635012,21.0417683 12.7927469,20.3839365 C12.4853274,19.9542237 12.3094508,19.4234194 12.1087823,18.9388873 C11.9072388,18.4517027 11.6406531,17.9580341 11.4933601,17.4519869 C11.2646913,16.6668328 12.1816997,15.5987402 12.508661,14.879605 C12.6957108,14.4684147 12.8073269,14.0445773 12.9111759,13.6178477 L12.9998654,13.2515986 C13.059828,13.0072637 13.1235672,12.7628945 13.203709,12.520311 C13.5289203,11.5338579 14.5795132,10.2647612 15.6913566,10.9172879 Z M20.9241959,19.1838059 C21.2310321,19.8445851 21.6457859,20.4865017 22.1203318,21.0332212 C22.4257096,21.3854206 22.7471292,21.7125682 22.9927148,22.1128082 C23.1846332,22.4258089 23.3228845,22.7700506 23.5238446,23.0780409 C23.9449648,23.7243784 24.5653399,24.1298727 25.2094693,24.5091495 L25.7633042,24.8328291 C26.0336305,24.9932559 26.2992981,25.1598801 26.5472888,25.3486219 C25.9759086,25.589709 25.39257,25.8030917 24.8101063,26.0362212 C23.9050564,25.0067379 22.9880481,23.9828544 22.1174151,22.9233089 C21.7248282,22.4455556 21.3514915,21.9510028 21.0166551,21.4299245 C20.9586129,20.9442135 20.8454452,20.4682285 20.8477086,19.9710232 C20.8489453,19.7042948 20.8839456,19.4434609 20.9241959,19.1838059 Z M32.2374656,5.99740114 C33.4680185,6.10762924 34.3689851,7.35285309 35.2031593,8.1695431 C36.0067083,8.9561709 36.9668837,9.72187304 37.5163887,10.7242414 C38.0906856,11.7719978 38.0545186,13.0128007 38.0623937,14.1740272 C38.0652132,14.5755444 38.0800883,14.976996 38.0977181,15.3784259 L38.1338947,16.1812693 C38.1567865,16.7164962 38.1735521,17.2517359 38.1621446,17.7870921 C38.1119775,20.1587646 37.0033424,22.1982792 36.3532115,24.4187565 C35.7284558,24.8773525 35.0861999,25.3144335 34.4319856,25.730294 C34.5915288,25.1258078 34.5693619,24.3536217 34.5769453,23.9589815 C34.5787601,23.8639202 34.5784021,23.7681888 34.5770919,23.6720636 L34.5701,23.3102888 C34.5600701,22.7664778 34.5681952,22.2211416 34.8117391,21.7234731 C35.1357837,21.0623993 35.6485384,20.4832597 36.0262501,19.8507744 C36.0297502,19.8451745 36.0317919,19.8395747 36.0341252,19.8336802 L36.1318344,19.700758 L36.1905978,19.6138903 C36.4921867,19.1515293 36.7476721,18.4884454 36.2703774,18.0529364 C36.1292094,17.9238457 35.9737497,17.8581215 35.8139149,17.8363116 C35.9518745,17.3373379 35.7121223,16.660054 35.5651209,16.2282782 C35.2941601,15.4310402 34.8808647,14.6912741 34.4223605,13.9901173 L34.2314005,13.7015262 C33.2398145,12.2212283 32.1621443,10.9133672 30.5697005,10.0440102 C29.8306104,9.64082297 29.0046029,9.34196924 28.1546785,9.18163746 C27.5614231,8.88808883 27.0136681,8.46397591 26.4376212,8.13594416 C26.1159099,7.95262363 25.7906986,7.77401874 25.4619873,7.60278204 C26.5545806,7.2909603 27.6235486,6.88305739 28.7170169,6.57094093 L29.1593185,6.44528816 C30.1536124,6.16637083 31.2181448,5.90616374 32.2374656,5.99740114 Z M24.0161824,19.858732 C24.2197676,20.3880627 24.7783144,20.8272067 25.2951524,21.1192817 C26.5414554,21.8239752 27.7477998,21.8549216 29.1399374,21.8189649 C29.9070278,21.7995128 30.8651615,21.9035517 31.6719188,21.6907584 C31.4272083,21.9371506 31.177831,22.1785325 30.9223287,22.4122514 C30.0432373,23.2171523 29.0836453,23.9495502 28.0735944,24.5784988 C27.736133,24.7886395 27.3884632,24.9678339 27.0349599,25.1322918 C26.3842457,24.4184617 25.470154,24.0921984 24.7106471,23.5207217 C24.2375595,23.1646908 23.9730154,22.7140524 23.6982629,22.2180259 C23.7886804,21.6161923 23.6819294,21.0158323 23.8365141,20.402799 C23.8837646,20.2150576 23.9453068,20.0346843 24.0161824,19.858732 Z M42.486434,2.46479686 C42.9580633,2.7627664 43.2552743,3.30948599 43.6851949,3.66522213 C44.0777818,3.98971715 44.5275359,4.23021482 45.0149153,4.37079985 C45.5040448,4.51226907 46.0337163,4.49694324 46.5143873,4.66788521 C47.1142981,4.8813394 47.2295999,5.34530523 47.3207562,5.8600059 L47.3424059,5.98440589 C47.3640635,6.10957541 47.3864521,6.23674669 47.4159372,6.36315801 C47.5728553,7.0351368 47.8131908,7.68618993 48.0756932,8.32309614 C48.2579865,8.76518745 48.4641968,9.19460547 48.7888247,9.55034161 C49.1732449,9.97180199 49.7498751,10.2223204 50.0462112,10.7207047 C50.6890504,11.8005864 49.9079599,13.2220573 49.5649568,14.2721715 C49.1560364,15.5244688 48.8282001,16.8012285 48.4825719,18.0720937 C48.163194,19.2451093 48.1684441,20.5648992 47.7116899,21.6907584 C47.2604577,22.8037914 46.2906022,23.1683702 45.2508429,23.4543034 L45.0769793,23.5013456 L44.7655197,23.5836834 C43.795129,23.8400972 42.8242519,24.1177087 42.2064314,24.9442557 C41.4734664,24.8490587 40.7262096,24.8296067 39.9938279,24.8505323 C40.58825,24.0188112 41.4536329,23.6123819 42.4307251,23.4093147 L42.8266975,23.3287872 C43.3860407,23.2128189 43.9318221,23.0708131 44.3787845,22.6730853 C44.9717483,22.1452282 45.2940429,21.345043 45.4185857,20.5725621 C45.5912539,19.5000486 45.451836,18.4039569 45.6469628,17.3340959 C45.7720889,16.6488544 46.4233865,15.5825301 45.7513804,15.0142954 C44.6459536,14.0794197 42.924813,15.5521732 41.939554,16.5191743 C41.9599709,15.181406 41.7782609,13.8200595 41.6015093,12.5686463 C41.5075084,11.9029831 41.398936,11.2412176 41.2583429,10.5846488 L41.1284243,10.0082111 C41.0296542,9.58712691 40.9054848,9.19790194 40.479749,8.99242238 C40.1326625,8.82472241 39.7298672,8.72038887 39.3238635,8.64110716 C39.0648612,8.18427947 38.8449425,7.70534722 38.7711501,7.17866911 C38.6993995,6.66613792 38.8189839,6.15331201 38.75015,5.63606518 C38.6891911,5.17658494 38.537523,4.77487131 38.2572288,4.4055777 C37.9967681,4.06222012 37.6388898,3.78782878 37.402346,3.42619809 C38.3788002,3.34496381 39.2957812,3.07566804 40.2167357,2.71642136 L40.6657591,2.53772739 C41.253002,2.30877989 41.9194483,2.10719412 42.486434,2.46479686 Z M36.6457558,8.83150115 C37.075968,8.87742952 37.5031421,8.94075501 37.9286282,9.02369489 L38.1837281,9.07583028 C38.7521916,9.19725802 39.5455322,9.28921301 40.0518701,9.58629837 C40.4908649,9.84371559 40.5238927,10.6750631 40.6080383,11.1700086 L40.6180003,11.2255729 C40.7153449,11.7383989 40.8003848,12.2530484 40.8827176,12.7684025 L40.9645035,13.2839501 C41.1622553,14.5368368 41.4127992,15.7682085 41.3229651,17.0437893 C41.2284642,18.3824418 40.7763767,19.5389526 40.3172892,20.7785766 L40.3134975,20.7921341 C39.3457387,21.9344981 38.244687,22.9545501 37.0634263,23.8799945 C37.1850699,23.5499203 37.3171451,23.2229395 37.4518644,22.8967866 L37.741758,22.1983293 C38.1517346,21.2044216 38.5346063,20.2031742 38.6699409,19.1304602 C38.8032338,18.0753357 38.7472333,17.0090114 38.6950245,15.9503501 C38.643399,14.892573 38.676941,13.829196 38.605482,12.7731872 C38.5480231,11.9258456 38.3890633,11.0737883 37.950976,10.3366747 C37.6129313,9.76814526 37.1328436,9.29039192 36.6457558,8.83150115 Z M10.313266,8.38322056 C10.3080159,8.87954174 10.2607655,9.377926 10.1254309,9.90607775 L10.0529577,10.19233 C9.79237293,11.2361668 9.59777682,12.2218257 9.77717776,13.3184332 C9.95626273,14.4121671 10.355558,15.6730115 10.9951889,16.6108345 C10.8852295,16.8654791 10.8155206,17.1260183 10.8896046,17.4157354 C11.0319392,17.9730652 11.3306086,18.5289213 11.564819,19.0638518 C10.8406041,19.2993391 10.0950973,19.6712853 9.56221747,20.2197732 C8.84587762,20.9562974 8.89837809,21.9076778 8.73183491,22.8602372 C8.67554273,23.181785 8.60350041,23.4995013 8.52795805,23.8160387 C8.33859175,23.5645992 8.10054401,23.3415918 7.8648131,23.1314182 L7.7640761,23.0420841 C7.08098654,22.4384821 6.36785505,21.8964782 5.89885078,21.0924615 C5.40159104,20.2397533 5.2667593,19.3445486 5.25202257,18.3790915 L5.25076154,18.2527616 C5.24580316,17.2778029 5.12476039,16.4622918 4.75229867,15.5571836 L4.50656726,14.9662549 L4.25908584,14.3762103 C4.16079328,14.1404283 4.00358352,13.9317612 4.08000088,13.6892004 C4.17050952,13.40267 4.55992224,13.2003269 4.81036123,13.0292302 L4.8584663,12.9954118 C5.59843137,12.4566499 6.44164739,12.0820512 7.17577907,11.5432892 C7.83320173,11.0608202 7.98924481,10.3499374 8.4448323,9.71568376 C8.91412824,9.06256754 9.61850965,8.72539923 10.313266,8.38322056 Z M27.3948799,16.3040232 C27.2983373,16.6500333 27.2312534,17.0040011 27.1615444,17.3576741 C26.2279109,17.3452955 24.9431075,17.831596 24.3163102,18.5504365 C23.855181,19.0276003 23.5465948,19.6223605 23.3707182,20.2728242 C23.2785507,20.6129398 23.1965916,21.0249689 23.1948416,21.42403 C23.072778,21.2631087 22.9434956,21.1076584 22.8084709,20.952581 L22.6715869,20.7974392 C22.2460413,20.3208648 21.7986206,19.7549879 21.5302848,19.1487334 C22.4855018,19.0007801 23.3660515,18.4325454 24.1019332,17.8286487 C24.2510735,17.706435 24.392047,17.5654898 24.531789,17.4205602 L24.7413453,17.2020211 C24.9517118,16.9841806 25.1671096,16.7739662 25.4109451,16.62115 C25.7358648,16.4171985 26.9217922,16.0484944 27.3948799,16.3040232 Z M17.7928341,11.5088061 C18.0836284,11.8828154 18.4254649,12.1813743 18.7827598,12.5023326 C19.2640142,12.9352874 19.353265,13.5341738 19.6312258,14.0926824 C19.9905624,14.8138807 20.5485259,15.4761335 21.2397822,15.8970044 C20.3630242,15.8436587 19.4477658,16.4419556 19.0152202,17.1737641 C18.6547169,17.7826712 18.219838,18.4133881 17.964044,19.0762304 C17.6997916,19.7608825 17.9637523,20.3686106 18.1154204,21.0441262 C18.1364206,21.1378495 18.1507124,21.2306887 18.1609208,21.3235279 C17.9477105,20.8109967 17.7111667,20.3070126 17.4918314,19.7968392 C17.4950397,19.7818081 17.4973731,19.7661876 17.4973731,19.7490934 C17.4871646,18.8162807 17.6557495,17.904099 17.6111241,16.9704021 C17.560957,15.9235299 17.747917,14.9244035 17.8800432,13.8907941 C17.9847525,13.0723357 17.9634607,12.3066336 17.7928341,11.5088061 Z M26.2766197,11.0124849 C27.0081264,11.0899983 27.7262162,11.3414009 28.3568053,11.7215994 C28.6971834,11.9270245 29.0568117,12.1740062 29.309689,12.4873015 C29.6363586,12.8922572 29.644817,13.2989812 29.6871091,13.7938287 C29.7889017,14.9836438 30.4401993,15.7399146 31.1927061,16.6028769 C32.1193396,17.6656644 32.9100551,19.3986623 32.3666752,20.8275014 C31.5249175,21.213005 30.6790765,21.1844165 29.7539014,21.2109419 C28.8252262,21.2374674 27.8291755,21.3630214 26.9150838,21.1567121 C26.6817484,21.1042506 26.3253285,20.9952014 25.9569501,20.8389958 C26.7400822,20.4694075 27.228045,19.3314644 27.4637138,18.5501417 C27.7877585,17.4737968 27.8218838,16.355011 28.4087224,15.3679685 C28.8608099,14.6078662 29.0215197,13.9025832 28.5265568,13.1056399 C28.0167189,12.284529 26.9827511,11.7920393 26.1007431,11.5023221 C25.9829087,11.4634181 25.9158247,11.5712883 25.9339082,11.6673695 C25.9035746,11.7174732 25.8954079,11.7811344 25.9292415,11.8350695 C26.1666604,12.2134997 26.564789,12.4395557 26.7984161,12.8244698 C27.1002939,13.320791 27.042835,13.7410725 26.7829576,14.1539858 C26.6817484,13.9252772 26.5160802,13.7118945 26.3740372,13.5265108 C26.2333068,13.3430429 26.078398,13.1769722 25.912349,13.0190883 L25.8114071,12.9252667 C25.4532372,12.5995927 25.3004025,12.2977917 25.2983608,11.7938076 C25.2977774,11.6594119 25.1073174,11.5550783 25.0125248,11.674443 C24.7721893,11.9768334 24.7640226,12.3107597 24.9072322,12.6166869 C24.66398,12.526795 24.4178111,12.4386715 24.1716422,12.3523163 C24.3419771,12.231478 24.4828534,12.0717357 24.6143962,11.8892994 C24.7858978,11.6514542 24.9194823,11.379126 25.1557345,11.1981633 C25.4809458,10.949708 25.8930745,10.972402 26.2766197,11.0124849 Z M27.0469184,17.9067515 C27.0250432,18.0019485 27.0025846,18.0968508 26.9775011,18.1911636 C26.8520833,18.6618435 26.6709566,19.1110082 26.4154543,19.5253952 C26.1867855,19.8967518 25.8294906,20.1829323 25.6559474,20.5799303 C25.6410722,20.6144134 25.6361139,20.6539069 25.6401972,20.6931057 C25.028275,20.3877679 24.4717699,19.9565815 24.4875201,19.4387453 C24.5143536,18.5407104 26.1523686,18.0084325 27.0469184,17.9067515 Z M20.5648593,18.5810881 C20.3953995,19.0653255 20.3227738,19.6530122 20.348149,20.2247836 L20.3344406,20.1953108 C20.2723733,20.0521912 20.2125461,19.9032241 20.1672044,19.7518803 L20.1342676,19.6303995 L20.1140082,19.5334418 C20.051209,19.1956695 19.9673849,18.3703785 20.5648593,18.5810881 Z M30.4072406,10.5674463 C31.8130868,11.3599687 32.7408869,12.478165 33.6570202,13.7885236 C34.0636073,14.370021 34.4515275,14.9694969 34.760697,15.610824 C35.0567413,16.2250362 35.4464115,17.1422283 35.3933277,17.8713842 C35.1439504,17.9418241 34.9036149,18.0871248 34.7087798,18.2486355 C34.0986076,18.7537985 33.6441868,19.4419873 33.1477656,20.0647465 C33.2530582,18.9833912 32.793679,17.7387568 32.2599242,16.9388663 C32.0870226,16.6797418 31.8876608,16.4423093 31.6825589,16.2096868 L31.3731911,15.8622502 C31.1675292,15.6302171 30.9664874,15.3945529 30.7907858,15.1383757 C30.2762811,14.3882942 30.4361159,13.5718989 30.1275298,12.7681769 C29.6473216,11.5171546 27.869178,10.7642372 26.635694,10.5577108 L26.5542889,10.5447523 C25.9907838,10.4595761 25.355528,10.4124197 24.8733986,10.7761134 C24.3743524,11.1521858 24.2425178,11.8477428 23.7353049,12.2031842 L23.5407614,12.1371652 C23.3158844,12.0623044 23.0924657,12.0175058 22.869922,12.0018853 C23.013715,11.8324169 23.2645506,11.7339779 23.4275937,11.5898562 C23.5763451,11.4589972 23.6998105,11.3015044 23.8152554,11.1400212 L23.9723651,10.9162697 C24.4007306,10.3101342 24.7780435,9.87041572 25.5783633,9.70566303 C27.1994614,9.37173673 28.9801026,9.76225071 30.4072406,10.5674463 Z M24.7718977,16.4667128 C24.3597689,16.827754 24.0039323,17.2651297 23.5748868,17.6084872 C22.9011306,18.1475439 22.1763324,18.4726284 21.3946586,18.7871027 C21.224032,18.2300676 21.2295737,17.647686 21.5588684,17.0767988 C22.2813333,15.8242067 23.6483874,15.9341401 24.7718977,16.4667128 Z M24.0803497,12.858953 L24.3060832,12.9542679 C24.632237,13.0890546 24.9603525,13.1998975 25.3106109,13.1383547 C25.7556983,13.5937087 26.1955356,13.97096 26.4629964,14.570141 C26.166952,14.9344243 25.9289499,15.3676738 26.1062848,15.8074073 C25.7320731,15.9020148 25.3823615,16.043484 25.1431927,16.185248 C24.514937,15.6638749 23.6104704,15.4198405 22.7894213,15.548047 C22.3870637,14.9977998 22.2758612,14.3861022 22.1946468,13.7599945 L22.1538747,13.4342975 C22.1123649,13.1019644 22.0666345,12.7678822 21.9782889,12.4389662 C22.7410042,12.3932834 23.3675099,12.5583309 24.0803497,12.858953 Z M20.6587769,0.91099328 C21.1123227,0.988211895 21.5542017,0.892720172 22.0010391,0.823753928 C22.8212132,0.696726359 23.2800091,0.798112633 23.7910137,1.48541725 C24.1296418,1.94165548 24.4251028,2.43149265 24.7191055,2.91867727 C24.4790617,3.48720669 24.2973517,4.07843014 24.1687255,4.65668557 C23.8758895,4.67466395 23.5815951,4.68438995 23.2805924,4.69794742 C22.3288754,4.73979873 21.5845353,4.9514131 20.9705714,5.72094671 C20.6596519,6.11116597 20.4210664,6.55148891 20.1404805,6.96292855 C19.8642696,7.36788419 19.5405167,7.73364107 19.2418473,8.12002887 C18.6736755,7.98622257 18.0646699,8.04192607 17.6467078,8.38940984 C17.4705395,8.53588943 17.3363716,8.7133154 17.238079,8.9069514 C17.0549107,9.19578438 17.0053269,9.52057413 17.0426606,9.84978479 C17.0461606,9.93260323 17.053744,10.0157164 17.0671608,10.0976507 C17.0692025,10.1601329 17.0697858,10.2229099 17.0756192,10.2842132 C17.1184946,10.7513563 17.2106621,11.1937424 17.2946629,11.6346548 C16.9878268,11.2403093 16.5999066,10.9004885 16.2102364,10.6087082 C15.4498544,10.0404735 14.6941392,10.0051062 13.9261739,10.5768776 C13.1876672,11.1265445 12.7624133,11.9146459 12.546578,12.8005969 L12.4308901,13.2879243 C12.316141,13.7705637 12.1944602,14.2398988 11.9781145,14.7027684 C11.7870711,15.1118503 11.563069,15.5038379 11.3498588,15.9014253 C11.0051056,14.858974 10.4693091,13.8931519 10.3762666,12.7543247 C10.2738906,11.5046799 10.7805202,10.3959149 10.9724386,9.18812147 C11.157357,8.02217933 10.8093955,6.89838322 10.8566459,5.73745145 C10.8828962,5.09229287 11.0336892,4.48839614 11.6736117,4.22992009 C12.3432845,3.95936021 13.1132915,4.01005335 13.8115478,4.07548286 C14.7579677,4.16475678 15.3498319,3.77072048 15.9561644,3.09958726 L16.2521872,2.76592116 C17.0046792,1.92302723 17.9452737,0.955249947 19.0195953,0.669611426 C19.6227674,0.509279645 20.087105,0.81402792 20.6587769,0.91099328 Z M20.3175238,9.57126727 L20.311107,9.60575039 C20.193856,10.420672 20.6389433,10.9765282 21.0665306,11.6157922 C21.849371,12.7861553 21.3972836,14.5916562 22.2708332,15.686569 C22.1661239,15.7266519 22.063748,15.7714505 21.9660388,15.8262698 L21.916455,15.8581004 C21.2030318,15.3594214 20.5552343,14.82007 20.1355221,14.0302002 C19.9567288,13.6939161 19.8537695,13.356453 19.723685,13.0354948 L19.7081796,12.7714561 C19.6575996,11.8111966 19.6851604,10.9336944 20.092355,10.0086429 C20.158564,9.85803716 20.234398,9.71244176 20.3175238,9.57126727 Z M27.1939197,12.4996801 C27.59584,12.7566825 27.9578017,13.0570099 28.173637,13.5088272 C28.6003492,14.4030305 27.8810926,15.0313896 27.559673,15.8074073 C27.265087,15.6777271 26.8719168,15.6703589 26.4752465,15.7313675 C26.451913,15.1675538 26.9372507,14.8575004 27.229795,14.4283771 C27.4473804,14.1088925 27.550048,13.7776187 27.5144643,13.3876942 C27.4873391,13.0876615 27.369213,12.7787871 27.1939197,12.4996801 Z M19.9955208,9.11267122 C19.3943903,10.0233793 19.0341787,11.0790934 19.1622216,12.1542594 L19.1447214,12.1368705 L18.7906053,11.8078043 C18.2417742,11.2911273 17.6956561,10.7099892 17.5612487,9.94350815 C17.5536653,9.90136211 17.5489985,9.86157389 17.5446235,9.82237513 C17.5568736,9.58453001 17.602374,9.34963216 17.6962916,9.11502904 C18.1197954,8.62342351 19.2713059,8.9594129 19.9955208,9.11267122 Z M24.9806316,7.92303679 L25.5273212,8.20962604 C26.0415342,8.47547028 26.5452471,8.75988236 27.0440017,9.05402044 C26.4653297,9.0322106 25.8878245,9.08025119 25.3304444,9.21111022 C24.6243257,9.37687524 24.1284911,9.74757897 23.7181208,10.3263166 L23.5390857,10.587642 C23.3339112,10.8824037 23.1265424,11.141723 22.8229632,11.3664527 L22.6802623,11.4720029 C22.5001086,11.6083886 22.3630007,11.7383989 22.3000001,11.9942224 C22.2967918,12.0068956 22.2959168,12.0186847 22.2941668,12.0310633 C22.1570822,12.0543468 22.0197059,12.0897141 21.882038,12.1368705 C21.8671629,12.0956086 21.8531627,12.0543468 21.8365376,12.0133797 C21.6034938,11.4466186 21.1496563,11.0204426 20.898529,10.467239 C20.5765261,9.75871398 20.9023207,9.0236635 21.2727408,8.39559912 C21.5352432,8.14950162 21.8175791,7.92462451 22.1092484,7.7233256 C23.0954538,7.04243883 24.0444939,7.43826601 24.9806316,7.92303679 L24.9806316,7.92303679 Z M26.7502907,5.09317705 C27.5334228,5.2906445 28.2535544,5.69471596 29.0022695,5.99474859 C28.8243512,6.04485227 28.6467246,6.09613486 28.469973,6.14859637 L28.0120143,6.28600088 C27.0171798,6.58779148 26.0105589,6.92184353 25.0906922,7.40000949 L25.0799005,7.40855659 C24.9078156,7.32308561 24.734564,7.23967771 24.5601457,7.15951182 C23.4407189,6.64639118 22.5277939,6.66937993 21.5404932,7.44539753 C21.1003642,7.79170239 20.6812354,8.20697349 20.3181071,8.66881155 C20.1778141,8.53913143 20.0089376,8.42625078 19.8243109,8.33252742 C20.2467011,7.91106704 20.5890631,7.40605993 20.9134121,6.90408646 L21.1209231,6.58107251 C21.3442057,6.23524626 21.5837436,5.89167816 21.9254967,5.6587592 C22.3447228,5.37346294 22.842073,5.3438592 23.3321255,5.33148792 L23.8742874,5.3188507 C24.1729041,5.31093258 24.4704366,5.29712851 24.7675226,5.25144574 C25.465779,5.14328073 26.0295758,4.91162489 26.7502907,5.09317705 Z M30.6767431,0.216909927 C31.0468266,0.336387937 31.3990907,0.494974024 31.7482548,0.660757258 L32.1667059,0.86110947 C32.5855531,1.06083171 33.008415,1.25253715 33.4607268,1.3810837 C34.2374422,1.60183463 35.675372,1.59594008 36.1437929,2.36252641 C36.3546698,2.70735763 36.3960869,3.14178602 36.5611717,3.50960599 C36.703448,3.82738122 36.9135286,4.08738396 37.1452736,4.3383866 L37.2232611,4.42178772 C37.5723892,4.79167078 37.8696003,5.12117617 37.9775179,5.63665463 C38.062977,6.04367336 38.0866022,6.46778629 38.1650613,6.87745757 C38.280854,7.48371211 38.4339804,8.03750516 38.7349832,8.53854197 L38.4738851,8.49708363 C38.4310961,8.49023941 38.3887717,8.48342792 38.347063,8.47664919 C37.6044729,8.35433726 36.8542994,8.28389738 36.1032509,8.24469862 C36.0767089,8.24322498 36.0530837,8.24617226 36.0306252,8.25059317 L36.0169167,8.23762516 C35.2915351,7.53263689 34.5935704,6.76133492 33.8110216,6.1211867 C33.1550573,5.58448786 32.4153839,5.44802901 31.5899597,5.50019578 C30.956454,5.54057345 30.3314066,5.6566961 29.7142343,5.80700715 C28.8724767,5.18336368 27.6378404,4.68468468 26.6639566,4.47424922 C26.1937856,4.37256822 25.7737818,4.42945063 25.3103192,4.52140563 C25.1230675,4.5585413 24.9375658,4.58565623 24.7532308,4.60687661 L25.0543101,3.86396438 C25.6199859,2.47998996 26.2623406,1.11024191 27.6550489,0.391093902 C28.5883907,-0.0904908958 29.6920675,-0.101395815 30.6767431,0.216909927 Z" id="52"></path>
            </g>
        </g>
    </g>
</svg>