<?xml version="1.0" encoding="UTF-8"?>
<svg width="48px" height="48px" viewBox="0 0 48 48" version="1.1" xmlns="http://www.w3.org/2000/svg" xmlns:xlink="http://www.w3.org/1999/xlink">
    <title>植物-24</title>
    <g id="V1.4" stroke="none" stroke-width="1" fill="none" fill-rule="evenodd">
        <g id="形状汇集备份" transform="translate(-1108.000000, -385.000000)" fill="#3D4242" fill-rule="nonzero">
            <g id="olive-1-svgrepo-com" transform="translate(1108.000000, 385.500000)">
                <path d="M16.2960917,15.2423236 C16.7833104,16.5837893 17.1220291,19.1404806 17.3453416,21.5763098 C17.886654,21.6658478 18.412029,21.7978432 18.9166852,21.972296 C18.7974352,19.8987701 18.5836852,18.287747 18.4692165,17.5221926 C21.4172786,20.7219722 23.8209346,23.731354 23.8209346,23.731354 L24.521247,23.0266552 C22.0476535,18.7389278 18.0757478,14.3560958 16.474123,12.661007 C26.1195905,15.2520416 34.1548083,18.0910276 34.1548083,18.0910276 L34.1548083,16.6815357 C15.7634981,7.16220533 0,5.04801465 0,5.04801465 L0,9.10137711 C3.88846827,9.66049412 8.106749,10.5532321 12.2097172,11.5627751 C13.4799358,12.520237 14.8979044,13.8321712 16.2960917,15.2423236 Z" id="路径"></path>
                <path d="M28.9008714,11.3930398 C32.0533086,14.0369103 44.839307,12.9793433 42.0374011,10.1596046 C39.2347452,7.33901689 30.47709,9.27809431 28.9008714,11.3930398 Z" id="路径"></path>
                <path d="M29.7854963,0.0459647937 C25.8779968,-0.617220065 19.8586851,6.07265366 19.7934351,8.71567506 C23.8853408,9.030143 33.6937459,0.708394854 29.7854963,0.0459647937 Z" id="路径"></path>
                <path d="M9.96187377,20.6172439 C10.6875924,17.6918335 6.03056176,12.7345998 4.0544995,12.5298607 C3.58003081,15.6151941 9.23624886,23.5418052 9.96187377,20.6172439 Z" id="路径"></path>
                <path d="M47.8851504,22.3530919 C46.4702755,18.6270289 37.6887141,16.8007939 35.3915581,18.0847062 C37.1983079,21.7931257 49.3006814,26.0775508 47.8851504,22.3530919 Z" id="路径"></path>
                <path d="M15.6761231,23.2026176 C10.5977799,23.2026176 6.4803742,27.9454885 6.4803742,35.1017334 C6.4803742,42.2571291 10.5976862,47 15.6761231,47 C20.7543724,47 24.8716844,42.2571291 24.8716844,35.1017334 C24.8716844,27.9454885 20.7543724,23.2026176 15.6761231,23.2026176 Z M10.8600924,32.1931172 C9.3713426,31.1235677 11.0349361,27.0815272 12.6111547,27.2574896 C14.1873733,27.4342069 12.0865298,33.0746276 10.8600924,32.1931172 Z" id="形状"></path>
                <path d="M26.8406217,23.3481994 C25.6848718,23.9769465 24.749247,24.8711941 24.071247,25.9655576 C25.7261218,28.3293979 26.6879967,31.491532 26.6879967,35.1031486 C26.6879967,36.7054915 26.4988092,38.2237688 26.1363718,39.6196743 C29.3260276,43.5753847 33.7764333,44.7496625 37.2920579,42.8403053 C41.4530574,40.5820424 42.7407135,34.8656701 39.5986826,29.0005082 C36.4566518,23.1410072 31.0024649,21.0899365 26.8406217,23.3481994 Z M29.4397464,29.9925021 C28.491559,30.7196562 26.7285905,26.5543948 27.8492778,26.3935284 C29.2108089,26.1983186 30.3880275,29.2661029 29.4397464,29.9925021 Z" id="形状"></path>
            </g>
        </g>
    </g>
</svg>