<?xml version="1.0" encoding="UTF-8"?>
<svg width="30px" height="50px" viewBox="0 0 30 50" version="1.1" xmlns="http://www.w3.org/2000/svg" xmlns:xlink="http://www.w3.org/1999/xlink">
    <title>植物-10</title>
    <g id="V1.4" stroke="none" stroke-width="1" fill="none" fill-rule="evenodd">
        <g id="形状汇集备份" transform="translate(-1187.000000, -174.000000)" fill="#3D4242">
            <g id="植物-10" transform="translate(1187.500000, 174.000000)">
                <path d="M26.5631462,10.9804949 C26.6016472,11.0472515 26.5693064,11.1559251 26.4661238,11.162135 C26.5693064,11.1714499 26.6463083,11.3282503 26.5277254,11.3794822 C26.3752616,11.4477913 25.8886096,11.6030392 25.9286506,11.2630462 C25.9594514,11.0037821 26.270539,10.8330093 26.4938445,10.7553853 C26.637068,10.708811 26.7002096,10.9246056 26.5631462,10.9804949 L26.5631462,10.9804949 Z M25.8146878,12.2597381 C25.7161254,12.3171798 25.5913823,12.3451245 25.5421011,12.2147162 C25.5097603,12.1262248 25.6114028,11.997369 25.6483637,11.9197451 C25.7192054,11.7877843 25.9255705,11.9073252 25.8562688,12.0423909 C25.8485686,12.0532583 25.8408684,12.0641257 25.8331683,12.0796505 C25.8793694,12.1293298 25.8855295,12.2116112 25.8146878,12.2597381 L25.8146878,12.2597381 Z M26.3937421,17.1003695 C26.3721815,17.1174468 26.352161,17.1298666 26.3321405,17.1391815 C26.3290605,17.1826509 26.3306005,17.2261204 26.3028798,17.2618274 C26.2428183,17.3456613 26.1673565,17.3611861 26.0734142,17.367396 C25.9887121,17.370501 25.9363508,17.2913245 25.9563713,17.2214629 C25.9409709,17.2354352 25.9255705,17.2478551 25.90555,17.25717 C25.823928,17.2975344 25.7269056,17.2913245 25.6329633,17.2913245 C25.5451812,17.2913245 25.4820396,17.1888609 25.5313208,17.1143418 C25.5621216,17.0646625 25.5990825,17.0211931 25.6391235,16.985486 C25.6360434,16.9125195 25.6930248,16.833343 25.782347,16.8659451 C25.7977474,16.8690501 25.8100677,16.8706025 25.8254681,16.8737075 C25.9425109,16.833343 26.0764942,16.8442104 26.2104775,16.9125195 C26.2166377,16.9171769 26.2197178,16.9264918 26.227418,16.9295968 C26.3444608,16.8380005 26.5077049,16.9979059 26.3937421,17.1003695 L26.3937421,17.1003695 Z M25.1971326,16.7448517 C25.1386111,16.7448517 25.1093504,16.7060397 25.0954901,16.6656752 C25.1108905,16.6594653 25.1247508,16.6532554 25.1401512,16.6439405 C25.1647918,16.6299682 25.1863523,16.6159959 25.2063728,16.5973661 C25.2310134,16.5787364 25.2479538,16.5601066 25.2648943,16.5383719 C25.3388161,16.5973661 25.3187956,16.7448517 25.1971326,16.7448517 L25.1971326,16.7448517 Z M24.4178734,17.1065794 C24.2530893,17.06311 24.3131508,16.8892323 24.2885102,16.7727963 C24.2592495,16.6268632 24.4871751,16.5663165 24.5179759,16.7122496 C24.5210559,16.7293269 24.524136,16.7510616 24.5256761,16.7696914 C24.604218,16.7044872 24.7335812,16.7790062 24.7181808,16.8799174 C24.7181808,16.8861273 24.7212609,16.8954422 24.725881,16.9063096 C24.727421,16.9233868 24.727421,16.9420166 24.7320411,16.9606464 C24.7382013,17.0010108 24.6997003,17.0569001 24.6642795,17.0770823 C24.5965178,17.1174468 24.4871751,17.1236567 24.4178734,17.1065794 L24.4178734,17.1065794 Z M21.2931364,17.3394514 C21.2808161,17.370501 21.2654158,17.4015506 21.2423152,17.4201803 C21.1745535,17.4853845 21.0775311,17.4683072 20.9989892,17.441915 C20.9373877,17.4170754 20.9019668,17.3611861 20.9158272,17.2975344 C20.9250674,17.25717 20.9466279,17.2214629 20.9543281,17.179546 C20.9651084,17.1360766 21.0205497,17.0895022 21.0698309,17.0926071 C21.0898514,17.0972646 21.1560731,17.1174468 21.1668533,17.1096844 C21.234615,17.0677674 21.2962165,17.1003695 21.3270173,17.1516013 C21.356278,17.2012807 21.356278,17.2742472 21.2885163,17.3146117 C21.3208571,17.2913245 21.2977566,17.3146117 21.2931364,17.3394514 L21.2931364,17.3394514 Z M20.7371828,16.6470455 C20.6879015,16.7262219 20.6401604,16.8240281 20.5616184,16.8799174 C20.4784564,16.9358067 20.3752738,16.9358067 20.2782514,16.9389116 C20.2166499,16.9389116 20.1535084,16.8830224 20.1565885,16.8209232 C20.1642886,16.6889624 20.2335903,16.609786 20.3198325,16.5445818 C20.3244526,16.4685103 20.4091547,16.3939913 20.4969368,16.4452231 C20.5508382,16.4219359 20.5970393,16.4359082 20.6309201,16.4685103 C20.6432404,16.4716153 20.6555607,16.4716153 20.666341,16.4747202 C20.7371828,16.5011124 20.7772237,16.5756314 20.7371828,16.6470455 L20.7371828,16.6470455 Z M20.2474507,17.8331399 C20.1473482,17.8036428 20.1211676,17.7337812 20.1196275,17.6421849 C20.1150074,17.4946993 20.339853,17.4915944 20.3552533,17.6297651 C20.4384154,17.7011791 20.3752738,17.8703994 20.2474507,17.8331399 L20.2474507,17.8331399 Z M18.2438613,18.7211582 C18.2500215,18.7149483 18.2577217,18.7071859 18.2654219,18.700976 C18.3963251,18.6311144 18.5349285,18.5659103 18.6719919,18.5038111 C18.6812321,18.510021 18.6920124,18.5177834 18.7027926,18.5270983 C18.5487889,18.587645 18.393245,18.6497442 18.2438613,18.7211582 L18.2438613,18.7211582 Z M13.1355555,30.6240194 C13.2310379,30.6690413 13.3326804,30.696986 13.4312428,30.6892236 C13.6283677,30.6659364 13.7869916,30.6302293 13.9579358,30.5246607 C14.0241574,30.4811913 14.0903791,30.4299595 14.1504405,30.3740702 C14.1489005,30.8056595 14.167381,31.2388013 14.2274424,31.6766006 C13.9101946,31.1937794 13.5421256,30.8662062 13.1355555,30.6240194 L13.1355555,30.6240194 Z M10.6976755,49.0690297 C10.6714949,49.0503999 10.6422341,49.0364276 10.6129734,49.0224553 C10.5837127,49.0100355 10.555992,49.0007206 10.5221112,48.9914057 C10.4913104,48.9836433 10.4620497,48.9774334 10.4297089,48.9727759 C10.4143085,48.969671 10.3973681,48.969671 10.3804277,48.969671 L10.3326865,48.9634611 L10.2741651,48.9634611 C10.3080459,48.9603561 10.3419267,48.9510412 10.3742675,48.9479363 C10.4143085,48.9448313 10.4512694,48.9448313 10.4928505,48.9479363 C10.512871,48.9479363 10.5313514,48.9479363 10.5498319,48.9541462 C10.5683123,48.9541462 10.5883328,48.9572512 10.6083533,48.9603561 L10.6637947,48.9727759 L10.7207761,48.9851958 C10.7423366,48.9914057 10.7561969,49.0007206 10.7746774,49.0069305 C10.7854577,49.0100355 10.7916178,49.0162454 10.800858,49.0162454 C10.7669772,49.0364276 10.7377165,49.0566098 10.7053757,49.0752396 C10.7022956,49.0721346 10.7007556,49.0690297 10.6976755,49.0690297 L10.6976755,49.0690297 Z M10.8609195,48.8780747 C10.8331988,48.8516825 10.8070182,48.8283953 10.7792975,48.8066606 C10.7623571,48.7942408 10.7515768,48.7833734 10.7330964,48.775611 C10.717696,48.7631912 10.7053757,48.7538763 10.6868952,48.7445614 L10.6406941,48.7228267 C10.6237537,48.7135119 10.6068133,48.7073019 10.5883328,48.6979871 C10.5837127,48.6979871 10.5790926,48.6948821 10.5729324,48.6917771 C10.5867928,48.6948821 10.5991131,48.6917771 10.6114334,48.6948821 C10.6468543,48.704197 10.6868952,48.7135119 10.7207761,48.7274842 C10.757737,48.7352466 10.7962379,48.7538763 10.8270387,48.7694011 C10.8639996,48.7833734 10.8963404,48.8066606 10.9286812,48.8252904 C10.9456216,48.8361577 10.9579419,48.8516825 10.9733423,48.8594449 C10.9825825,48.8687598 10.9887427,48.8749697 10.9964429,48.8796272 C10.9687222,48.9013619 10.9440816,48.9215441 10.9163609,48.9417264 C10.8994205,48.9215441 10.8794,48.8982569 10.8609195,48.8780747 L10.8609195,48.8780747 Z M7.98566871,28.4878075 C7.95024784,28.4769401 7.92098712,28.4660728 7.88402621,28.4598628 C7.86400572,28.521962 7.79932412,28.5561166 7.74234272,28.5436967 C7.75620306,28.4567579 7.73156245,28.3589517 7.67304101,28.2890901 C7.68690135,28.2720128 7.70384177,28.2533831 7.73156245,28.2394107 C7.82550477,28.1897314 7.95486795,28.2332008 8.05035031,28.2626979 C8.19357383,28.3061674 8.13197232,28.5343819 7.98566871,28.4878075 L7.98566871,28.4878075 Z M9.40096357,20.4863276 C9.4671852,20.4180185 9.53956698,20.3559193 9.62426907,20.3124498 C9.75363225,20.2394833 9.87375521,20.4335432 9.74593206,20.5096147 C9.77673282,20.5779239 9.74131195,20.6772825 9.64274952,20.6865974 C9.56112751,20.6928073 9.49798596,20.717647 9.42406414,20.6679677 C9.36246262,20.6276032 9.34398216,20.5422168 9.40096357,20.4863276 L9.40096357,20.4863276 Z M10.1525021,19.7426898 C10.189463,19.7100877 10.232584,19.7069828 10.269545,19.7178501 C10.2818653,19.6976679 10.3003457,19.6821431 10.3249863,19.6743807 C10.4035283,19.6479886 10.47283,19.613834 10.5590721,19.6262538 C10.6607146,19.6448836 10.7238561,19.7240601 10.7762174,19.807894 C10.8039381,19.8451535 10.797778,19.8886229 10.7762174,19.9243299 C10.6283738,20.1960139 10.3342266,20.2627705 10.0493195,20.1742792 C10.0015784,20.1587544 9.95691726,20.11218 9.95999734,20.0593957 C9.97231764,19.9119101 10.0508596,19.8420485 10.1525021,19.7426898 L10.1525021,19.7426898 Z M11.3906926,20.3326321 L11.4676945,20.3326321 C11.6201582,20.3326321 11.6216983,20.5592941 11.4738546,20.568609 C11.4353537,20.4925375 11.366052,20.4428581 11.28751,20.4149135 C11.2982903,20.3714441 11.3290911,20.3326321 11.3906926,20.3326321 L11.3906926,20.3326321 Z M13.9425354,20.3481569 C13.9409954,20.3869689 13.9394553,20.4273333 13.9379153,20.4645928 C13.9363753,20.6524429 13.9456155,20.8418454 13.9471555,21.0312479 C13.9409954,21.1212917 13.9363753,21.2097831 13.9317551,21.2998269 C13.9117347,21.2889595 13.8963343,21.2811971 13.8716937,21.2718822 C13.8316527,21.2563574 13.7854515,21.2470426 13.7361703,21.2501475 C13.7253901,21.2470426 13.7115297,21.2439376 13.6884292,21.2408326 C13.683809,21.2408326 13.6653286,21.2470426 13.640688,21.2501475 C13.6160474,21.2501475 13.5883267,21.2563574 13.559066,21.2625674 L13.5575259,21.2625674 L13.5883267,21.2625674 C13.5667662,21.2687773 13.5390455,21.2749872 13.5174849,21.2811971 C13.4420231,21.3060368 13.3865817,21.3541637 13.3450007,21.4193678 C13.3095798,21.3914232 13.2726189,21.368136 13.235658,21.3479537 C13.2402781,21.3448488 13.2464383,21.3417438 13.2525984,21.3417438 C13.6345278,21.1632087 13.845513,20.7393817 13.9425354,20.3481569 L13.9425354,20.3481569 Z M11.0488041,9.51340166 C11.0518842,9.54134629 11.0457241,9.57394836 11.0149233,9.60655043 C10.919441,9.71211905 10.8485992,9.7385112 10.7130759,9.68883185 C10.7207761,9.67330706 10.7284763,9.65312482 10.7407966,9.62983763 C10.7407966,9.62673267 10.7407966,9.62673267 10.7423366,9.62362771 C10.7746774,9.55066117 10.7777575,9.46993223 10.759277,9.39696569 C10.797778,9.38609833 10.8362789,9.37988841 10.8732398,9.36281114 C10.9825825,9.31623675 11.0780649,9.42956776 11.0488041,9.51340166 L11.0488041,9.51340166 Z M10.5113309,14.1133987 C10.6021932,14.0264599 10.6807351,13.9286537 10.7438766,13.8277425 C10.8193385,13.8789743 10.9025005,13.9239962 10.9856626,13.9690181 C10.8147184,13.9907529 10.6530144,14.0388797 10.5113309,14.1133987 L10.5113309,14.1133987 Z M10.3619472,12.5919687 C10.2818653,12.6773551 10.2741651,12.7953436 10.2033233,12.8869399 C10.1124611,13.0002709 9.96153737,12.9925085 9.83063415,12.9738787 C9.77057267,12.9645638 9.72437153,12.8838349 9.74593206,12.8263931 C9.77673282,12.7565316 9.81215369,12.68667 9.8814554,12.6416481 C9.91995635,12.6183609 9.97539771,12.605941 9.99695825,12.5671291 C10.027759,12.5112398 10.0816603,12.5050299 10.1278615,12.5143447 C10.147882,12.4864001 10.1679025,12.456903 10.1940831,12.4274059 C10.2988057,12.3140749 10.4666698,12.4801902 10.3619472,12.5919687 L10.3619472,12.5919687 Z M10.0600998,14.5201484 C10.0092785,14.5977724 9.97539771,14.6831588 9.94767703,14.7732026 C9.93381669,14.6707389 9.89223567,14.5729327 9.83063415,14.4953087 C9.97231764,14.4502868 10.1047609,14.3943976 10.2233438,14.3198785 C10.1663624,14.3819777 10.1124611,14.4440769 10.0600998,14.5201484 L10.0600998,14.5201484 Z M9.72129146,11.3748247 C9.75825237,11.3794822 9.89839582,11.4322665 9.92149639,11.4384764 L9.92303642,11.4384764 C9.92303642,11.4415813 9.92149639,11.4415813 9.92149639,11.4446863 C9.89993586,11.4788408 9.87991536,11.5192053 9.85373472,11.5533599 C9.88761555,11.4974706 9.81215369,11.5688847 9.81831385,11.5750946 C9.80753358,11.579752 9.80291347,11.582857 9.79983339,11.5859619 C9.78443301,11.5890669 9.76903263,11.5937243 9.75209222,11.5968293 C9.73669184,11.5129954 9.69973093,11.4322665 9.64736964,11.3655098 C9.67201024,11.3686148 9.70743112,11.3717198 9.72129146,11.3748247 L9.72129146,11.3748247 Z M9.53186679,7.90813774 C9.47026527,7.96868444 9.42560417,8.04941338 9.3455222,8.08667289 C9.23771955,8.13324728 9.12837685,8.08977785 9.02673435,8.04475595 C8.99131348,8.02767867 8.96513283,7.9795518 8.96821291,7.94229229 C8.97129299,7.86777327 8.9882334,7.79791169 9.05445503,7.7513373 C9.07601556,7.73270754 9.15147742,7.72339267 9.16225769,7.70942035 C9.22077913,7.61161413 9.3455222,7.6519786 9.37940304,7.72960258 C9.48412562,7.6519786 9.63042922,7.80567408 9.53186679,7.90813774 L9.53186679,7.90813774 Z M26.1427159,16.2061413 C26.1519561,16.1999313 26.1596563,16.2061413 26.1688965,16.2030363 C26.108835,16.2682404 26.0826544,16.3567318 26.0872745,16.4452231 C26.0456935,16.4296983 26.0118127,16.4002012 25.9933322,16.3443119 C25.9640715,16.2449533 26.0641739,16.1875115 26.1427159,16.2061413 L26.1427159,16.2061413 Z M25.2710544,17.5925056 C25.2587341,17.6297651 25.2310134,17.6685771 25.1878924,17.674787 C25.1062704,17.6856543 25.0492889,17.7058366 24.9661269,17.674787 C24.8983652,17.6483948 24.8521641,17.5738758 24.8968252,17.5040142 C24.927626,17.4543349 24.9630468,17.4326002 25.0030878,17.409313 C25.0030878,17.2913245 25.1817322,17.2447501 25.2248533,17.3580811 C25.2618142,17.3860258 25.2864548,17.4263902 25.2772146,17.4683072 C25.2879948,17.5117766 25.2879948,17.5505886 25.2710544,17.5925056 L25.2710544,17.5925056 Z M15.7859608,19.9243299 C15.75362,19.7007729 15.7181991,19.4803208 15.6858583,19.2598687 C15.8922234,17.9092114 16.0138864,16.5507917 16.1555699,15.1923721 C16.2125513,15.201687 16.2710728,15.2094494 16.3265141,15.2063444 C16.5390394,15.201687 16.726924,15.1520076 16.9071084,15.0386766 C17.1565946,14.8772187 17.3429392,14.6862637 17.4846226,14.4440769 C17.5862652,14.4984137 17.6909877,14.5356732 17.8003304,14.5682753 C17.9389338,14.7173133 18.1422188,14.7980423 18.353204,14.8151195 C18.2931426,14.8477216 18.2361612,14.8834286 18.1837999,14.9206881 C17.8727122,15.1520076 17.6678872,15.4764758 17.6447866,15.8335462 C17.2628572,15.7497123 16.9240488,15.9158276 16.7746652,16.2822128 C16.7300041,16.3877814 16.7515646,16.5042173 16.810086,16.6004711 C16.8008458,16.6159959 16.7854454,16.6299682 16.7777452,16.6470455 C16.7746652,16.6501504 16.7746652,16.6501504 16.7746652,16.6532554 C16.7377043,16.5942612 16.6791828,16.5507917 16.5898606,16.5507917 C16.2833931,16.5507917 16.2833931,17.0134307 16.5898606,17.0134307 C16.6252815,17.0134307 16.6576223,17.0072207 16.686883,16.9948009 C16.6822629,17.3829208 16.9764101,17.7617258 17.4214811,17.7508585 C17.7125483,17.7415436 18.0082355,17.6763395 18.2377012,17.5366163 C18.2377012,17.6763395 18.2669619,17.8176151 18.311623,17.9557858 C17.2274363,18.3004363 16.3911957,19.0099194 15.7859608,19.9243299 L15.7859608,19.9243299 Z M13.9101946,22.6303019 C13.9209749,22.9330354 13.9409954,23.2373214 13.9856565,23.5571322 C13.9871965,23.5773145 14.0133772,23.6192314 14.0441779,23.6627008 C14.047258,23.7123802 14.048798,23.7620595 14.0534181,23.8132914 C13.8670736,23.5804194 13.6607085,23.3661772 13.4466432,23.1565925 C13.6576284,23.0432615 13.8193324,22.8678313 13.9101946,22.6303019 L13.9101946,22.6303019 Z M19.2202454,16.8985472 L19.0462211,16.8985472 C18.8937574,16.8985472 18.8937574,16.6656752 19.0462211,16.6656752 L19.4435509,16.6656752 C19.5267129,16.6656752 19.5667539,16.7386418 19.5575137,16.8131608 C19.5513535,16.8690501 19.5205528,16.9032046 19.4758917,16.9327017 C19.448171,16.9513315 19.4112101,16.9451216 19.3834894,16.9606464 C19.3126477,17.0134307 19.2418059,16.9637513 19.2202454,16.8985472 L19.2202454,16.8985472 Z M17.0025908,13.7376987 L17.1227137,13.7376987 C17.2751775,13.7376987 17.2751775,13.9752281 17.1227137,13.9752281 L17.0025908,13.9752281 C16.848587,13.9752281 16.848587,13.7376987 17.0025908,13.7376987 L17.0025908,13.7376987 Z M15.2808284,14.8539315 C15.2839084,14.7918323 15.2885286,14.7359431 15.2916086,14.6738439 C15.2916086,14.6536617 15.2792883,14.6412418 15.263888,14.6334794 C15.2531077,14.1801554 15.2407874,13.7283838 15.2300071,13.2766122 C15.2577278,12.8993597 15.2993088,12.5236596 15.3424299,12.1510645 C15.3439699,12.1448546 15.34859,12.1386447 15.34859,12.1324348 C15.3793908,12.1448546 15.4117316,12.1572744 15.4456124,12.1681418 C15.5287745,12.188324 15.6165566,12.2007439 15.6981787,12.2069538 C15.710499,12.3295997 15.7674804,12.4382732 15.875283,12.5003724 C15.6750781,13.2797172 15.4733331,14.0621669 15.2808284,14.8539315 L15.2808284,14.8539315 Z M14.5061893,15.4795808 C14.4615282,15.4004043 14.4091669,15.3212279 14.3568056,15.2420514 C14.2582432,15.0976708 14.1412003,14.9641576 14.0149172,14.8384067 C13.8963343,14.6738439 13.7654311,14.5170434 13.602187,14.3742153 C13.7330903,14.3012488 13.8532132,14.2003376 13.9517756,14.0792442 C14.170461,13.7997979 14.2782637,13.5094842 14.2674834,13.1803585 C14.4261073,13.1462039 14.5816512,13.0887622 14.7171745,12.9925085 C14.7572155,12.9614589 14.7957164,12.9273043 14.8372975,12.8947023 C14.7341149,13.7563284 14.5985916,14.6179546 14.5061893,15.4795808 L14.5061893,15.4795808 Z M13.5744664,14.3881876 C13.6545483,14.4596017 13.7192299,14.5387782 13.7854515,14.6179546 C13.7038295,14.5449881 13.6175874,14.476679 13.5282652,14.4099224 C13.5436656,14.4006075 13.560606,14.3943976 13.5744664,14.3881876 L13.5744664,14.3881876 Z M11.8280633,12.1262248 C11.8588641,12.0206562 11.9066053,11.925955 12.0113279,11.8793806 C12.0883298,11.8390161 12.1822721,11.8359112 12.2700542,11.812624 C12.3501362,11.7862318 12.4040375,11.845226 12.4117377,11.9073252 C12.4471586,11.9104302 12.4779593,11.9166401 12.5103001,11.925955 C12.5996223,11.9632145 12.6427434,12.0920703 12.5395609,12.1417496 C12.4517787,12.1852191 12.3562964,12.2411083 12.2561939,12.2597381 C12.1530113,12.2737104 12.0498288,12.2737104 11.9435662,12.2737104 C11.8681043,12.2737104 11.8095829,12.2007439 11.8280633,12.1262248 L11.8280633,12.1262248 Z M25.0354286,11.1357429 C25.0138681,11.1823172 24.9769072,11.2211292 24.9183857,11.2211292 L24.6196184,11.2211292 C24.5595569,11.2211292 24.5010354,11.1683449 24.5041155,11.1031408 C24.5056556,11.0177544 24.5210559,10.9183957 24.5949778,10.8625064 C24.6211584,10.8392192 24.6504191,10.8174845 24.68584,10.8066172 C24.6904601,10.8035122 24.6950802,10.8004073 24.6997003,10.8004073 C24.725881,10.7553853 24.7782423,10.7476229 24.8244434,10.7584903 C24.8614043,10.744518 24.9076055,10.7476229 24.9445664,10.7864349 C25.0354286,10.8811362 25.0816297,11.0115445 25.0354286,11.1357429 L25.0354286,11.1357429 Z M18.8937574,8.19689895 C18.9245581,8.25278821 18.9692192,8.2993626 19.0138803,8.34748947 C18.9861596,8.36456675 18.9630591,8.3831965 18.9322583,8.40027378 C18.9260981,8.33351715 18.9137778,8.26210309 18.8937574,8.19689895 L18.8937574,8.19689895 Z M23.4445694,9.03213298 C23.5677725,8.97624371 23.6863554,8.90948709 23.791078,8.82875815 C23.8187986,8.84117799 23.8434392,8.85670278 23.8696199,8.86912262 C23.8218787,8.94208916 23.7849178,9.02437058 23.7556571,9.11286192 C23.6555546,9.07560241 23.550832,9.05076273 23.4445694,9.03213298 L23.4445694,9.03213298 Z M20.9450879,9.97759306 C20.8727061,9.79129551 20.9620283,9.65157234 21.1699334,9.64225747 C21.3223972,9.63294259 21.3223972,9.86736701 21.1699334,9.87357693 C21.1606932,9.87357693 21.1560731,9.87357693 21.151453,9.86736701 L21.152993,9.87357693 C21.1822537,9.93878107 21.1468328,10.0008803 21.0990917,10.0303774 C21.0513505,10.0055377 21.0005292,9.98535546 20.9450879,9.97759306 L20.9450879,9.97759306 Z M20.0611061,12.3327046 C20.0703463,12.3730691 20.0703463,12.4149861 20.056486,12.456903 C19.9948845,12.6649353 19.689957,12.9397242 19.4604913,12.7767138 C19.326508,12.68667 19.284927,12.5143447 19.3311281,12.3684117 C19.3326682,12.3544393 19.3403684,12.3420195 19.3480685,12.3264947 C19.3573088,12.3094174 19.3603888,12.2923402 19.368089,12.2737104 C19.5267129,12.0423909 19.8208602,12.036181 20.0718864,12.1044901 C20.1997095,12.1355397 20.1704488,12.3094174 20.0611061,12.3327046 L20.0611061,12.3327046 Z M7.69614158,9.97759306 C7.7700634,9.91704636 7.92098712,9.86736701 7.95948807,9.85805213 C8.00722924,9.85339469 8.04573019,9.83321246 8.06883076,9.8068203 C8.16277307,9.91704636 8.2736558,10.0148526 8.38761861,10.0924766 C8.14121254,10.0443497 7.91790704,10.0008803 7.69614158,9.97759306 L7.69614158,9.97759306 Z M18.2269209,13.0328729 C18.0467365,13.0623701 17.78339,13.0328729 17.7772299,12.800001 C17.7756898,12.7115097 17.8557718,12.6773551 17.9235335,12.6944324 C17.9712746,12.6804601 18.0236359,12.6928799 18.0528966,12.7363493 C18.0559767,12.7363493 18.0621369,12.7425593 18.0821574,12.7487692 C18.109878,12.7534266 18.1375987,12.761189 18.1637794,12.7705039 C18.2069004,12.7891336 18.2407813,12.8062109 18.2777422,12.8326031 C18.3455038,12.8884923 18.310083,13.0173481 18.2269209,13.0328729 L18.2269209,13.0328729 Z M21.9060715,15.9499821 C21.8891311,15.9065127 21.8660306,15.8645957 21.84447,15.8242313 C21.8275296,15.7978391 21.8090491,15.7745519 21.7905687,15.7528172 C21.7936488,15.7217676 21.8090491,15.696928 21.8321497,15.6798507 L21.8336898,15.6798507 C21.9014514,15.6301713 22.0261945,15.6596684 22.0231144,15.768342 C22.0215744,15.8568334 21.9892336,15.9220375 21.9060715,15.9499821 L21.9060715,15.9499821 Z M12.7459259,30.2327946 C12.7567062,30.2653966 12.7721066,30.2948937 12.790587,30.3243909 C12.8414083,30.4097772 12.9230303,30.4889537 13.0123525,30.5526054 C12.9199502,30.502926 12.8244679,30.4563516 12.7289855,30.4159872 C12.7413058,30.3554404 12.747466,30.2979987 12.7459259,30.2327946 L12.7459259,30.2327946 Z M13.8824739,34.2599267 C13.8701536,34.351523 13.8639935,34.4415668 13.8501331,34.5331631 C13.8593734,34.4291469 13.8670736,34.3266833 13.8716937,34.2226672 C13.8747737,34.2335345 13.8793939,34.2444019 13.8824739,34.2599267 L13.8824739,34.2599267 Z M12.5734417,29.7546308 C12.5811419,29.7546308 12.5919222,29.7546308 12.6011624,29.7577358 C12.6458235,29.7608408 12.6889445,29.7484209 12.7305256,29.7328961 C12.7012648,29.8151775 12.6920246,29.9036689 12.6935647,29.9890553 C12.6627639,29.9036689 12.6227229,29.8244924 12.5734417,29.7546308 L12.5734417,29.7546308 Z M11.2351487,29.1972907 C11.2905901,29.1445063 11.3244709,29.0761972 11.3429514,29.0032307 C11.3552717,28.9970208 11.366052,28.9892584 11.3783723,28.9830485 C11.4060929,28.9861534 11.4353537,28.9970208 11.4630744,28.9970208 C11.5077355,29.0001257 11.5462364,28.9892584 11.5862774,28.9830485 C11.5831973,28.9954683 11.5816573,29.0063357 11.572417,29.0187555 C11.5416163,29.05912 11.5493165,29.1196667 11.5277559,29.1662411 C11.5031153,29.2236828 11.4630744,29.2624948 11.409173,29.2919919 C11.3752922,29.3168316 11.3244709,29.3168316 11.2905901,29.2919919 C11.2536292,29.2687047 11.2074281,29.2655998 11.164307,29.2531799 C11.1889476,29.2361026 11.2120482,29.2190254 11.2351487,29.1972907 L11.2351487,29.1972907 Z M11.7972626,48.0769952 C11.69408,48.2074035 11.5831973,48.3347068 11.4676945,48.4542478 L11.4676945,48.4371705 L11.4738546,48.3502316 L11.4307336,48.4185407 L11.3876125,48.4806399 C11.3706721,48.5039271 11.366052,48.5287668 11.3521916,48.5473965 C11.3460315,48.5598164 11.3429514,48.5753412 11.3383313,48.5862085 C11.2967503,48.6250205 11.2551692,48.66228 11.2135882,48.701092 C11.2074281,48.6917771 11.2012679,48.6778048 11.1966478,48.6684899 C11.1843275,48.6452028 11.1704671,48.6188106 11.1504467,48.5970759 C11.1365863,48.5784461 11.1211859,48.5536065 11.0980854,48.5349767 L11.0703647,48.5070321 C11.0611245,48.4977172 11.0488041,48.4884023 11.0380239,48.4806399 C11.0303237,48.47443 11.0210835,48.471325 11.0133833,48.4651151 C11.1288861,48.4061209 11.2397689,48.3440217 11.3444914,48.2710552 C11.5000353,48.2182709 11.652499,48.1592766 11.7972626,48.0769952 L11.7972626,48.0769952 Z M11.1381263,48.7725061 C11.1365863,48.7631912 11.1335062,48.7538763 11.1319662,48.7414565 L11.1011654,48.66228 C11.0934652,48.6358879 11.0765248,48.6126007 11.0672846,48.5862085 L11.0488041,48.5473965 C11.0457241,48.5411866 11.0395639,48.5349767 11.0380239,48.5334242 C11.0395639,48.5349767 11.041104,48.5349767 11.041104,48.5349767 L11.0703647,48.5660263 C11.0888451,48.5815511 11.1027055,48.6032858 11.1211859,48.6219156 C11.1381263,48.6420978 11.1489066,48.665385 11.1612269,48.6855672 C11.1673871,48.704197 11.1750873,48.7166168 11.1843275,48.7305891 C11.1673871,48.7445614 11.1519867,48.7569813 11.1381263,48.7725061 L11.1381263,48.7725061 Z M10.9979829,48.8361577 C10.9779624,48.8221854 10.962562,48.8066606 10.9471616,48.7973458 C10.9132808,48.778716 10.8794,48.7569813 10.8439791,48.7383515 C10.8070182,48.7228267 10.7685172,48.7073019 10.7330964,48.6948821 C10.6930554,48.6824623 10.6560945,48.6715949 10.6160535,48.665385 C10.5898728,48.6591751 10.5636922,48.66228 10.5375116,48.6591751 C10.6868952,48.6157056 10.8254987,48.5567114 10.962562,48.4915073 L10.9933628,48.5334242 C10.9995229,48.5442916 11.0087632,48.5536065 11.0133833,48.5660263 L11.0318637,48.6032858 C11.042644,48.6281255 11.0580444,48.6514127 11.0672846,48.6778048 L11.0934652,48.7538763 C11.0965453,48.7694011 11.0996254,48.7833734 11.1042455,48.7973458 C11.0765248,48.8190805 11.0488041,48.8392627 11.0226235,48.8594449 C11.0133833,48.8516825 11.0056831,48.8423677 10.9979829,48.8361577 L10.9979829,48.8361577 Z M5.19820006,16.4762727 C5.13659855,16.6361781 4.99337502,16.7821112 4.80857047,16.7790062 C4.66226687,16.7727963 4.51134315,16.6889624 4.4851625,16.5352669 C4.46360197,16.4126211 4.52520349,16.3039475 4.61298565,16.2216661 C4.5945052,16.1657768 4.61760577,16.1005727 4.69306762,16.0834954 C4.830131,16.0539983 4.97797464,16.0586557 5.09963764,16.1409371 C5.15353896,16.185959 5.23824105,16.2325334 5.23824105,16.3132624 C5.23824105,16.3691516 5.21514048,16.4281458 5.19820006,16.4762727 L5.19820006,16.4762727 Z M4.28803765,17.44502 C4.21411583,17.4512299 4.16791469,17.4683072 4.09399287,17.441915 C4.02777124,17.4155229 3.98003006,17.3394514 4.0262312,17.2680373 C4.09399287,17.1593637 4.1725348,17.1671261 4.28803765,17.1702311 C4.36965966,17.176441 4.40508053,17.2447501 4.39892038,17.3099543 C4.40354049,17.370501 4.36657958,17.4388101 4.28803765,17.44502 L4.28803765,17.44502 Z M3.85374695,16.2806603 C3.79830559,16.341207 3.76288472,16.4281458 3.69820312,16.4824826 C3.61658111,16.5601066 3.5226388,16.5818413 3.41483614,16.5849463 C3.32243387,16.5880512 3.2669925,16.4855876 3.31011357,16.4126211 C3.35785474,16.3287872 3.42253633,16.2620305 3.48721793,16.1937214 C3.490298,16.1937214 3.490298,16.1906165 3.490298,16.1906165 C3.49183804,16.1875115 3.49183804,16.1875115 3.49491812,16.1875115 C3.54419933,16.1409371 3.5996407,16.150252 3.63814164,16.1750917 C3.65354202,16.1564619 3.66740236,16.1331747 3.6889629,16.1160974 C3.79214544,16.0027664 3.95846953,16.1719867 3.85374695,16.2806603 L3.85374695,16.2806603 Z M2.4954335,16.9451216 C2.49081339,16.9389116 2.48465324,16.9327017 2.48003312,16.9295968 C2.42613179,16.9327017 2.37069043,16.9125195 2.34758986,16.8535253 C2.31216899,16.7696914 2.36453028,16.6718851 2.46309271,16.6718851 C2.53855456,16.6718851 2.61093635,16.7293269 2.66637771,16.7759013 C2.78034052,16.8799174 2.60939631,17.0444803 2.4954335,16.9451216 L2.4954335,16.9451216 Z M26.9050346,12.8978072 C26.9974369,12.9894035 27.0975394,13.0390829 27.203802,13.0747899 C27.2900441,13.139994 27.3855265,13.1943308 27.4964092,13.2393527 C27.8844988,13.3946007 28.3927113,13.2114081 28.5790559,12.838813 C28.6006164,12.7984485 28.6144767,12.7534266 28.6329572,12.7084047 C28.7238194,12.6214658 28.8116016,12.5236596 28.8947637,12.4087761 C29.0872684,12.1448546 28.9964062,11.7412099 28.7777208,11.5254152 C28.6468175,11.391902 28.4774134,11.3282503 28.3095492,11.3189354 C28.2340874,11.2180243 28.1339849,11.1419528 28.016942,11.0938259 C28.097024,10.9618651 28.1124244,10.8035122 28.0677633,10.6560267 C28.0646832,10.6234246 28.0600631,10.5939275 28.0508229,10.5644304 C28.015402,10.4448894 27.9538005,10.3393208 27.8660183,10.2508295 C27.852158,10.2384096 27.8382976,10.2337522 27.8275174,10.2244373 C27.812117,10.1017914 27.7782362,9.9822505 27.7274149,9.86115709 C27.9091394,9.80992526 28.0677633,9.72609136 28.220227,9.60655043 C28.4034916,9.45906487 28.4881936,9.20135326 28.4958938,8.97624371 C28.5051341,8.72163706 28.3834711,8.53844446 28.2310073,8.34748947 C28.2156069,8.32730723 28.2032866,8.31178244 28.1848062,8.29625764 C28.0862437,8.17671671 27.9722809,8.06493818 27.8352176,8.002839 C27.6611933,7.92366254 27.4902491,7.90658526 27.3208449,7.92055758 C27.1606809,7.8274088 26.9697162,7.83672368 26.8033921,7.92366254 L26.8033921,7.91745262 C26.8187925,7.90658526 26.8341929,7.90037534 26.8480532,7.8957179 C26.8187925,7.90037534 26.7941519,7.90658526 26.7679713,7.91434766 C26.6971295,7.93297741 26.6247477,7.95005469 26.552366,7.9717894 C26.4938445,7.98576172 26.432243,7.99973404 26.3706415,8.01525883 C26.3644813,8.01836379 26.3583212,8.02146875 26.349081,8.02457371 C26.3198202,8.00904891 26.2905595,7.98886668 26.2628388,7.97334188 C26.188917,7.93918733 26.1165352,7.90813774 26.0426134,7.88019311 C26.025673,7.87398319 26.0133527,7.86777327 25.9979523,7.86156335 C26.1504161,7.92676749 26.1196153,7.91434766 25.90401,7.82430384 C25.8300882,7.79480673 25.7530863,7.76841457 25.6730043,7.7513373 C25.6422035,7.74202242 25.6144829,7.74512738 25.5867622,7.74202242 C25.7761868,7.6830282 25.9255705,7.50138808 25.9255705,7.29801325 C25.9255705,7.11792562 25.8085276,6.95646774 25.6529838,6.87884376 C25.6653041,6.82295449 25.6760844,6.76551275 25.6760844,6.70341356 C25.6760844,6.63510446 25.659144,6.56524288 25.6437436,6.49382881 C25.659144,6.46898914 25.6760844,6.43793955 25.6868646,6.40688995 C25.6098628,6.59784495 25.7084252,6.36186805 25.7361459,6.29355894 C25.8177679,6.0839742 25.6422035,5.85265473 25.4450787,5.79366051 C25.3927174,5.77658323 25.3388161,5.76261092 25.2879948,5.74398116 C25.2479538,5.7331138 25.2048328,5.72690388 25.1632518,5.72379893 C25.1078104,5.70827413 25.0477489,5.70051173 24.9784472,5.70672165 C24.9014453,5.71137909 24.8244434,5.72379893 24.7489816,5.73621876 C25.0261884,5.4210654 25.012328,4.90719465 24.6581193,4.65414047 C24.6180783,4.61688096 24.5734172,4.58272641 24.5210559,4.54701938 C24.5703372,4.58583137 24.6196184,4.61998592 24.6735197,4.66035039 C24.6411789,4.63551072 24.6149983,4.60911856 24.5872776,4.58272641 C24.3454916,4.34519703 23.9435417,4.34519703 23.7063759,4.58272641 C23.6570947,4.6293008 23.6124336,4.67898015 23.5723926,4.73331693 C23.5631523,4.73642189 23.550832,4.73642189 23.5415918,4.73642189 L23.5400518,4.73642189 C23.5261914,4.51596979 23.4615098,4.29707016 23.344467,4.11543005 C23.0272191,3.63571385 22.5282469,3.42457662 21.9769133,3.35626752 C21.5518628,3.30348321 21.0913915,3.44320638 20.8234249,3.77077957 C20.8111046,3.76612214 20.7941642,3.76301718 20.7803038,3.7537023 C20.7941642,3.73507254 20.8080245,3.71799527 20.8234249,3.70402295 C20.9281475,3.56585227 20.949708,3.37179231 20.9158272,3.19170468 C20.9435478,3.07682119 20.9450879,2.95262282 20.9142871,2.83618685 C20.8311251,2.55363556 20.5323577,2.28816154 20.21819,2.3145537 C20.0811266,2.33007849 19.9594636,2.33007849 19.8224002,2.35026073 L19.8208602,2.35026073 C19.7885194,2.3067913 19.7484784,2.26021691 19.7084374,2.21674748 C19.7299979,2.20432765 19.7515585,2.18569789 19.7808192,2.16396318 C19.8870818,2.08323424 19.9933444,1.88296437 20.0102848,1.75410856 C20.017985,1.70287673 20.0457057,1.58178332 20.0410856,1.50881678 C20.0256852,1.32407171 20.0102848,1.29146963 19.933283,1.12380184 C19.8639812,0.971658834 19.6760966,0.853670384 19.5190127,0.811753434 C19.40659,0.780703842 19.2910871,0.78691376 19.1802044,0.808648475 C19.1447835,0.802438556 19.1078226,0.802438556 19.0693217,0.799333597 C19.0554613,0.476417838 18.8521763,0.158159517 18.5056678,0.0851929757 C18.2731221,0.0355136281 18.0528966,0.0588008223 17.8434515,0.14729216 C17.7110082,0.0293037097 17.5200435,-0.0265855563 17.3398591,0.012226434 C17.1180936,0.0650107408 16.9425293,0.22957358 16.8840079,0.445368246 C16.8270265,0.647190595 16.8963282,0.861432782 17.0395517,1.00891834 C17.0025908,1.01823322 16.9656299,1.03375802 16.928669,1.04773034 C16.8840079,0.886272455 16.770045,0.738786892 16.5944807,0.692212504 C16.0493073,0.54938438 15.4009513,0.724814576 15.2361673,1.32096675 C15.2146067,1.40324817 15.2115267,1.47931967 15.2115267,1.55073373 C14.8742584,1.2557626 14.4692284,1.03065306 13.9964367,1.05549273 C13.9409954,1.05549273 13.885554,1.06480761 13.8285726,1.07722745 C13.8100922,0.923531966 13.7269301,0.783808801 13.5790865,0.699974902 C13.519025,0.664267871 13.4574235,0.630113319 13.3881218,0.602168686 C13.3280603,0.577329013 13.2695388,0.54938438 13.2063973,0.530754624 C13.1986971,0.524544706 13.1971571,0.524544706 13.1925369,0.524544706 C13.0446933,0.470207919 12.8845294,0.459340562 12.7305256,0.50591495 C12.4856595,0.580433972 12.3085552,0.765179046 12.2330933,0.98718363 C12.2253931,0.977868752 12.2146129,0.971658834 12.2115328,0.971658834 C12.0806296,0.912664609 11.9666668,0.894034853 11.8434637,0.894034853 C11.8419237,0.894034853 11.8419237,0.890929894 11.8419237,0.890929894 C11.7141005,0.808648475 11.5523966,0.814858393 11.4199533,0.886272455 C11.3075305,0.94681916 11.2413089,1.07101753 11.2382288,1.19366342 L11.2382288,1.20918821 C11.2382288,1.21539813 11.2397689,1.21539813 11.2397689,1.21850309 C11.1088656,1.46534735 11.125806,1.79447303 11.2767298,2.03510737 C11.3152307,2.09720655 11.3583518,2.15309582 11.407633,2.2074326 C11.4045529,2.2074326 11.3983928,2.2074326 11.3953127,2.21053756 C11.3706721,2.2074326 11.3475715,2.20432765 11.3229309,2.20432765 C11.0626645,2.20432765 10.8100983,2.28816154 10.5867928,2.41080743 C10.4913104,2.46514422 10.4035283,2.53034836 10.3219062,2.60331491 C10.3034258,2.58934259 10.2849453,2.57381779 10.2664649,2.56139796 C10.0939806,2.46514422 9.9261165,2.46203926 9.73823187,2.49464133 C9.59038823,2.52103349 9.44408463,2.56760787 9.3008611,2.62039218 C9.23617951,2.64833681 9.16841784,2.67007153 9.10219621,2.70112112 C8.85733018,2.81134717 8.70948654,3.1218431 8.70948654,3.37800223 C8.70948654,3.53014523 8.75722771,3.67142088 8.83422961,3.79406677 C8.82652942,3.83443124 8.81882923,3.87945315 8.82036927,3.92447506 C8.82036927,3.92913249 8.82498938,3.93534241 8.82498938,3.94155233 C8.81266908,3.93844737 8.80342885,3.93844737 8.78956851,3.93844737 C8.39993891,3.94155233 8.03803,4.04091103 7.67766113,4.17287179 C7.40199434,4.27688793 7.18176891,4.45076564 7.10168694,4.74107933 C7.00466455,5.08883476 7.15866835,5.47695467 7.47899623,5.65548982 C7.49593665,5.6648047 7.51287707,5.67411958 7.52827745,5.6803295 C7.49747669,5.82160514 7.53597764,5.9768531 7.64378029,6.0839742 C7.68998143,6.12744362 7.7454228,6.15694074 7.79932412,6.18178041 C7.79470401,6.18488537 7.7900839,6.18799033 7.78546378,6.19109529 C7.75158295,6.17401801 7.71462204,6.16470314 7.67150098,6.16159818 C7.61605961,6.13365354 7.56215828,6.09949899 7.49747669,6.0839742 C7.16328846,6.0001403 6.86606114,6.19420025 6.65353591,6.42707219 C6.53187291,6.555928 6.47643154,6.72670075 6.52571276,6.90368343 C6.57653401,7.09153346 6.79059928,7.28559342 7.00620459,7.26075374 C7.09706683,7.25143886 7.19408922,7.22659919 7.28803153,7.19710208 C7.28957157,7.22038927 7.28803153,7.24212399 7.29111161,7.26075374 C7.2218099,7.27006862 7.15712831,7.28559342 7.09090668,7.31198557 C6.59809454,7.49828312 6.36708885,7.90813774 6.31318752,8.40648369 C6.27006646,8.78218376 6.48721181,9.17340862 6.79983951,9.40317561 C6.63351541,9.53513637 6.49953211,9.72298641 6.42407025,9.93567611 C6.11452263,9.85805213 5.79573478,9.82079262 5.480027,9.8068203 C4.79009001,9.7617984 4.261857,10.0210625 3.86452722,10.5613254 C3.58578035,10.9385779 3.68434278,11.427609 3.93228889,11.7877843 C3.57346005,11.773812 3.20847106,11.9942641 3.10990863,12.3684117 C3.0313667,12.6618303 3.15456973,12.9894035 3.42715645,13.139994 C3.490298,13.1710436 3.55805967,13.2005407 3.6242813,13.220723 C3.81832608,13.2828222 4.1032331,13.2238279 4.23413632,13.0623701 C4.24337655,13.0499502 4.25415681,13.0421878 4.26493708,13.0328729 C4.38043992,12.9397242 4.43434125,12.8062109 4.45436175,12.6649353 C4.49440273,12.6012836 4.52674353,12.5360795 4.5498441,12.4584555 C4.56524448,12.4087761 4.56832455,12.3575443 4.56524448,12.3063125 C4.60836554,12.3264947 4.6514866,12.3544393 4.6961477,12.3699641 C4.58064486,12.644753 4.5945052,13.029768 4.84861145,13.2238279 C4.98875491,13.330949 5.09193745,13.3946007 5.25980158,13.4598048 C5.39224484,13.5063792 5.5893697,13.4908544 5.72027292,13.4566999 C5.80651505,13.4334127 5.89737728,13.3868383 5.98053933,13.334054 C6.17612415,13.2859271 6.34244824,13.1617287 6.44717082,12.9956134 C6.49337196,13.0359779 6.54573325,13.0778948 6.59963458,13.1089444 C6.52109264,13.1943308 6.46411124,13.2890321 6.41945014,13.3868383 C6.33166798,13.4334127 6.25158601,13.4877495 6.17920422,13.5498486 C6.10682244,13.5948706 6.0359807,13.6445499 5.96975907,13.7035441 C5.8126752,13.8448198 5.71719285,14.0186975 5.66791163,14.2034426 C5.60169,14.2096525 5.53854845,14.2220723 5.46616666,14.2329397 C5.3337234,14.2593318 5.21360044,14.3183261 5.10271771,14.3912926 C4.56524448,14.2624368 3.9492293,14.357138 3.50877846,14.6412418 C3.4209963,14.5791426 3.32243387,14.5294633 3.20847106,14.4859939 C2.89122325,14.3711104 2.51545399,14.4828889 2.22130675,14.6443468 C1.77007564,14.7949373 1.38198608,15.120958 1.20796179,15.5494424 C1.03547755,15.9717168 1.17716104,16.3505219 1.45744794,16.6191008 C1.44974775,16.6330732 1.44050752,16.6470455 1.43280733,16.6594653 C1.35118532,16.6501504 1.26956331,16.6563604 1.19102138,16.6858575 C1.18024111,16.6889624 1.17100088,16.6951723 1.15868058,16.7013823 C1.05703808,16.6827525 0.950775461,16.6765426 0.852213033,16.6889624 C0.664328406,16.7122496 0.61658723,16.7215645 0.442562945,16.797636 C0.307039607,16.8597352 0.225417597,16.9730662 0.139175473,17.0895022 C0.0483132351,17.2105956 -0.0163683578,17.4294952 0.00365213526,17.5800857 C0.0313728179,17.7772506 0.02983278,17.8176151 0.123775094,17.9992552 C0.188456687,18.1250061 0.310119683,18.241442 0.430242641,18.3128561 C0.664328406,18.4556842 0.916894626,18.4587892 1.17716104,18.4184247 C1.34348513,18.3873751 1.5575504,18.280254 1.68075344,18.1467408 C1.72541454,18.1808953 1.77315571,18.205735 1.81781681,18.2336796 C1.77315571,18.2942263 1.73157469,18.3656404 1.69615382,18.4386069 C1.53598987,18.7739425 1.56987071,19.270736 1.96412042,19.4477187 C2.31216899,19.6014142 2.59553597,19.6293588 2.96668511,19.5734695 C3.03444678,19.6573034 3.11606879,19.7240601 3.21463121,19.7768444 C3.56267979,19.9740093 4.00929078,19.9274349 4.33423879,19.7007729 C4.73310861,19.422879 5.01493555,18.9571351 5.01647559,18.5007061 C5.27366192,18.4246346 5.51544788,18.2864639 5.71873288,18.1001664 C5.80343497,18.0240949 5.87273668,17.9340511 5.93895831,17.8393498 C6.11760271,17.9588907 6.34706836,18.0085701 6.60887481,17.9588907 C7.07704634,17.8703994 7.67920116,17.5862956 7.88556625,17.1329716 C7.97026833,16.9482265 8.00260913,16.7603765 7.99490894,16.5787364 C8.13967251,16.6718851 8.29983645,16.7355368 8.47078066,16.7665864 C8.8419298,16.8240281 9.1868983,16.7634814 9.49952599,16.6159959 C9.52570664,16.6128909 9.55342732,16.606681 9.58268804,16.6004711 C9.75209222,16.5663165 9.89069563,16.4498806 9.98617798,16.3070524 C9.98925806,16.3132624 9.99233813,16.3179198 9.99695825,16.3210248 C10.2633848,16.6687802 10.6453142,16.8923373 11.0965453,16.8985472 C11.4692345,16.9000997 11.8819647,16.7324319 12.1191305,16.4467756 C12.4009574,16.1192024 12.5672815,15.6891656 12.5380208,15.2529188 C12.5195404,15.0091795 12.4702592,14.8477216 12.3701567,14.6272695 C12.3378159,14.554303 12.2931548,14.4984137 12.2423335,14.4394195 C12.2484937,14.4301046 12.2500337,14.4207897 12.2561939,14.4130273 C13.7269301,15.2824159 13.8963343,16.9295968 14.0010569,18.6249045 C14.0118371,18.8003347 14.0149172,18.9742124 14.0179973,19.1449852 C13.9964367,19.3980393 13.9748762,19.6479886 13.9610159,19.8917279 C13.8994144,19.6324638 13.7099897,19.4384038 13.4220026,19.3204154 C13.1062948,19.1946645 12.7644064,19.16051 12.4317582,19.2132943 C12.3778569,19.0269967 12.2808345,18.850014 12.1345309,18.6947661 C11.7279609,18.2616243 11.0857651,18.1964201 10.5298114,18.2709391 C10.0816603,18.3299334 9.76749259,18.7118434 9.72129146,19.1294604 C9.7151313,19.1884546 9.71667134,19.2381339 9.72437153,19.2893658 C9.71359127,19.3204154 9.69665085,19.3545699 9.68587058,19.3887245 C9.66122998,19.4741108 9.64736964,19.5626022 9.63812941,19.6479886 C9.57652789,19.6541985 9.50876622,19.6650658 9.44408463,19.6852481 C9.25465996,19.7473473 9.12991689,19.8265237 8.97745314,19.9507221 C8.84346984,20.0593957 8.77416813,20.2022238 8.71410665,20.3559193 C8.69100608,20.3326321 8.66944555,20.3093449 8.64018483,20.2922676 C8.34757763,20.0951027 8.06729072,19.9740093 7.70384177,20.0267936 C7.28803153,20.0857878 6.95230326,20.4956424 6.84912072,20.8775524 C6.77981902,21.1275016 6.84450061,21.4255777 7.0431655,21.6041129 C7.23721028,21.782648 7.45589567,21.9130563 7.69922166,21.9673931 C7.70230173,21.9673931 7.70692185,21.973603 7.71000192,21.976708 C7.65456056,22.0853816 7.60989946,22.2095799 7.58833893,22.3322258 C7.54367783,22.3322258 7.49747669,22.3353308 7.45589567,22.3477506 C7.31883229,22.3834576 7.17252869,22.3896676 7.03700535,22.4269271 C6.76133856,22.5092085 6.58115412,22.6861912 6.41020991,22.9097482 C6.29008695,23.0618912 6.28084673,23.268371 6.34090821,23.4562211 C6.33012794,23.462431 6.31780764,23.4686409 6.30856741,23.4779558 C6.11760271,23.4065417 5.89583725,23.4096467 5.72951315,23.5245302 C5.72797311,23.5276351 5.72643307,23.5276351 5.72027292,23.5276351 C5.57242928,23.6269938 5.45846647,23.7480872 5.4107253,23.9281749 C5.34912378,24.1501794 5.4107253,24.4094435 5.58628962,24.5709014 L5.59090974,24.5771113 C5.80343497,24.7773812 6.09604218,24.8099833 6.33782813,24.7121771 C6.40096969,24.7354643 6.46873135,24.750989 6.5272528,24.7603039 C6.78597917,24.789801 7.06626607,24.7121771 7.23105013,24.5103547 C7.31729225,24.6982047 7.42971502,24.8177457 7.63916018,24.8922647 C7.64378029,24.8922647 7.64994044,24.8922647 7.65764063,24.8953697 C7.59603912,24.9574688 7.54829794,25.0490651 7.55753817,25.1266891 C7.58217878,25.4185553 7.85322545,25.5241239 8.11657194,25.4620247 C8.26749565,25.4247652 8.38453854,25.2990144 8.46308047,25.1623961 C8.48618104,25.1453189 8.50620153,25.1235842 8.52160191,25.1018494 C8.54470248,25.1297941 8.57088312,25.1592912 8.60168388,25.1887883 C8.86503037,25.4340801 9.25465996,25.5054941 9.59808842,25.3859532 C9.76903263,25.326959 9.90917608,25.2369152 10.026219,25.1204792 C10.4004482,25.2959094 10.8532193,25.3067767 11.2274485,25.0894296 C11.4461339,24.9590213 11.5908975,24.7835911 11.6817597,24.5864262 C11.895825,24.6298956 12.1237506,24.6003985 12.3100952,24.4824101 C12.4717992,24.3799464 12.6119426,24.2122786 12.6550637,24.0182187 C12.6858645,23.8753905 12.6566037,23.7511922 12.6381233,23.6099165 C12.6150227,23.459326 12.4563988,23.3304702 12.3131753,23.2916582 C12.2069127,23.2590561 12.09911,23.2528462 11.9928474,23.2590561 C11.9851472,23.2559512 11.9805271,23.2497413 11.9712869,23.2466363 C11.8634842,23.1721173 11.6987002,23.1395152 11.5831973,23.1798797 C11.5600967,23.1891946 11.5385362,23.196957 11.5185157,23.2062718 C11.4923351,23.1767747 11.4661544,23.1472776 11.4368937,23.1177805 C11.4815548,23.0246317 11.5138956,22.9268255 11.5323761,22.8305718 C11.5893575,22.8088371 11.6463389,22.7808924 11.6987002,22.7482903 C11.7418212,22.7746825 11.7834022,22.7979697 11.8265233,22.8243618 C11.9851472,23.0308416 12.2038326,23.1736698 12.4471586,23.2466363 C12.7028049,23.4375913 12.9476709,23.6378612 13.1678963,23.8660757 C13.8224125,24.5445093 13.9794963,25.5303338 14.1242599,26.4214571 C14.1596808,26.6450142 14.1858614,26.8623613 14.2012618,27.0797085 C14.088839,26.8204444 13.7515707,26.7661076 13.5744664,26.9539576 C13.5113248,26.9446427 13.4466432,26.9446427 13.3819616,26.9508527 C13.3865817,26.9446427 13.3881218,26.9384328 13.3912018,26.9291179 C13.4959244,26.8064721 13.5405855,26.6450142 13.4959244,26.4882137 C13.4543434,26.3391757 13.3141999,26.1684029 13.1494159,26.1451157 C13.113995,26.1420108 13.0816542,26.1358009 13.0462333,26.1342484 C12.8752891,26.0659393 12.705885,26.0628343 12.5334007,26.1280385 C12.4779593,26.0410996 12.3978774,25.9805529 12.2977749,25.9370835 L12.2946948,25.9370835 L12.2946948,25.9339785 C12.3070151,25.9370835 12.3039351,25.9370835 12.2900747,25.9277686 C12.2269332,25.8718793 12.1607115,25.8253049 12.0914098,25.7771781 C11.9143055,25.6591896 11.7094804,25.6653995 11.530836,25.741471 C11.4676945,25.6948967 11.3968527,25.6498747 11.3183108,25.6219301 C11.4045529,25.6560847 11.2721096,25.589328 11.2690296,25.5862231 C11.1904876,25.5458586 11.1027055,25.5117041 11.0195434,25.4806545 C11.2151282,25.556726 10.9502417,25.4527098 10.8824801,25.4247652 C10.8224186,25.3999255 10.7623571,25.3828482 10.7038357,25.362666 C10.4682099,25.2803846 10.1833028,25.3719809 10.0154387,25.5427536 C9.95999734,25.5970904 9.91533624,25.6591896 9.8814554,25.7274987 C9.81215369,25.7942553 9.75825237,25.8780892 9.72591157,25.9836579 C9.7151313,26.0271273 9.71051119,26.0752542 9.70897115,26.1218285 C9.69357077,26.1249335 9.68125047,26.1249335 9.66739013,26.1342484 C9.55958747,26.0410996 9.40096357,26.0209174 9.27314042,26.0938839 C9.1868983,26.1420108 9.10681632,26.20411 9.03443454,26.2724191 C9.00671386,26.2801815 8.98053321,26.2941538 8.95743264,26.3127835 C8.85117003,26.278629 8.73566718,26.2631042 8.62786453,26.2506844 C8.37375827,26.2273972 8.15815296,26.350043 7.97026833,26.5006336 C7.89018636,26.5627328 7.83782507,26.6450142 7.80086416,26.735058 C7.71616208,26.7971572 7.64532033,26.8763336 7.60989946,26.9834547 C7.59911919,27.0160568 7.60373931,27.0486589 7.60373931,27.0766035 C7.50517688,27.0672886 7.40661445,27.0703936 7.30497195,27.1014432 C7.02006493,27.1837246 6.82140004,27.4336738 6.82140004,27.7301974 C6.82140004,27.7395123 6.82448012,27.7426173 6.82448012,27.7519321 C6.80599966,27.838871 6.82140004,27.9304673 6.88300156,27.9956714 C6.73361788,28.1027925 6.65507594,28.2689078 6.65815602,28.444338 C6.65661598,28.447443 6.65507594,28.447443 6.65353591,28.450548 C6.59347443,28.4536529 6.53649302,28.4536529 6.48105166,28.4567579 C6.45333097,28.450548 6.43023041,28.447443 6.40250972,28.447443 C6.42869037,28.447443 6.45179094,28.450548 6.47643154,28.4567579 L6.47489151,28.4567579 C6.45179094,28.4536529 6.42715033,28.450548 6.40096969,28.447443 C6.3162676,28.4412331 6.2269454,28.4536529 6.14378335,28.4800451 C6.13608316,28.4629678 6.11914274,28.450548 6.10836248,28.4334707 C6.10990252,28.4272608 6.11144255,28.4179459 6.11298259,28.4132885 C6.12684293,28.3061674 6.00980005,28.2192285 5.9143177,28.2192285 C5.90045736,28.2192285 5.89275717,28.2269909 5.8819769,28.2269909 C5.79727482,28.1773116 5.69871239,28.1447095 5.59552985,28.1555768 C5.39224484,28.1835215 5.21514048,28.2689078 5.15353896,28.4769401 C5.06729684,28.7781212 5.2890623,29.0358328 5.5693492,29.1196667 C5.63249076,29.1320865 5.69409228,29.1351915 5.74953364,29.1258766 C5.75723383,29.2361026 5.78803459,29.3416713 5.84655603,29.4596597 C5.88967709,29.5419411 5.96051884,29.6102502 6.04060081,29.667692 C6.07140157,29.7794705 6.15918373,29.8710668 6.31010745,29.8710668 C6.36400877,29.8710668 6.40866987,29.8570945 6.44717082,29.8384647 C6.48567177,29.8446747 6.52571276,29.8539895 6.56575374,29.8539895 C6.77981902,29.8617519 6.97540383,29.8105201 7.16790857,29.7142664 C7.24183039,29.6770069 7.30035183,29.6242225 7.35117309,29.5652283 C7.35425316,29.9207462 7.52827745,30.2809214 7.81780458,30.5122409 C7.85476549,30.6271244 7.88710629,30.7420079 7.91482697,30.8631013 C8.03340989,31.380077 8.7972687,31.6036341 9.1868983,31.2651935 C9.25774004,31.4825406 9.44100455,31.6533134 9.67355028,31.7355948 C10.1756026,31.9063676 10.7792975,31.6952304 11.0719047,31.2884807 C11.3337112,31.3692096 11.6186182,31.3878394 11.8788846,31.2946906 C12.0421286,31.2356964 12.177652,31.153415 12.2993149,31.0571612 C13.2264178,31.9979639 13.4081423,33.7507134 13.5575259,34.9305979 C13.5698462,35.0144318 13.5698462,37.9455133 13.5652261,38.0479769 L13.5652261,38.0464244 C13.5482857,38.3724452 13.5344254,38.6984659 13.5251851,39.0260391 C13.5113248,38.883211 13.4959244,38.7481452 13.478984,38.6286043 C13.4682037,38.5602952 13.4635836,40.3891162 13.4635836,40.4527678 C13.4682037,40.6033584 13.4666637,40.7570538 13.4666637,40.9060919 C13.4605035,41.084627 13.4543434,41.2538473 13.4497233,41.4292775 C13.3865817,42.7395703 13.1432557,44.1228296 12.8152277,45.3430786 C12.6042425,46.1410531 12.2792945,46.9235029 11.7449013,47.5646769 C11.6802197,47.6485108 11.610918,47.7214774 11.5385362,47.7897865 C11.2182083,48.0366307 10.8547594,48.2074035 10.4358691,48.2508729 C10.351167,48.2601878 10.3496269,48.3750713 10.4358691,48.3843862 C10.5082508,48.3890436 10.5760125,48.3843862 10.6483943,48.3843862 C10.3265264,48.5303193 9.98155787,48.6358879 9.61656888,48.7305891 C9.59808842,48.7352466 9.60270854,48.7631912 9.62426907,48.7631912 C9.90763605,48.781821 10.1740626,48.7476664 10.4266288,48.6855672 C10.4435692,48.6886722 10.4620497,48.6886722 10.4805302,48.6948821 L10.5298114,48.7073019 C10.5482918,48.7135119 10.5621522,48.7228267 10.5790926,48.7274842 C10.596033,48.7321416 10.6129734,48.7352466 10.6268338,48.7445614 L10.6745749,48.7694011 C10.6899753,48.778716 10.7053757,48.7895834 10.717696,48.7973458 C10.7330964,48.8066606 10.7500368,48.8159755 10.7623571,48.8283953 C10.7900778,48.8485776 10.8162584,48.8718648 10.840899,48.8982569 C10.8609195,48.9168867 10.8794,48.9355164 10.8948004,48.9572512 C10.8716998,48.9758809 10.8470592,48.9851958 10.8224186,49.0007206 C10.8100983,48.9945107 10.797778,48.9883007 10.7854577,48.9836433 C10.7638971,48.9774334 10.7500368,48.969671 10.7284763,48.966566 L10.6699548,48.9510412 L10.6114334,48.9386214 C10.5929529,48.9355164 10.5713924,48.9355164 10.5529119,48.9324115 C10.5328914,48.9293065 10.512871,48.9293065 10.4943905,48.9293065 C10.4512694,48.927754 10.4143085,48.9293065 10.3742675,48.9293065 C10.2957256,48.9355164 10.2171837,48.9479363 10.1401818,48.969671 L10.1432618,48.9836433 L10.1448019,48.9836433 L10.2387442,48.9758809 L10.3326865,48.9758809 L10.3804277,48.9774334 C10.3973681,48.9774334 10.4127685,48.9774334 10.4266288,48.9805383 C10.4589696,48.9851958 10.4897704,48.9883007 10.5205711,49.0007206 C10.5529119,49.0038255 10.5806326,49.0162454 10.6114334,49.0271127 C10.6422341,49.0395326 10.6699548,49.0535049 10.6961355,49.0690297 C10.6992155,49.0721346 10.7007556,49.0752396 10.7007556,49.0752396 C10.4250888,49.2366975 10.1232414,49.3360562 9.79983339,49.3329512 C9.71667134,49.3329512 9.69357077,49.4680169 9.78289297,49.4835417 C9.91995635,49.5068289 10.0570197,49.5130389 10.191003,49.5130389 C10.1971632,49.5518508 10.2125636,49.5860054 10.2356641,49.6077401 C10.9872026,50.2690964 12.6150227,49.8390596 13.4173825,49.4633595 C13.4312428,49.4540446 13.4435631,49.4478347 13.4574235,49.4385198 C13.4574235,49.4416248 13.4543434,49.4416248 13.4543434,49.4416248 C13.4035221,49.5332211 13.519025,49.61395 13.5944868,49.5518508 C13.763891,49.4105752 13.9148147,49.2537748 14.0549582,49.0767921 C14.3013643,48.9044668 14.5523904,48.6917771 14.7695358,48.4573527 C14.818817,48.7305891 14.8665582,49.0007206 14.9296997,49.2692996 C15.022102,49.6776017 15.6196367,49.5642707 15.6365771,49.1777033 C15.6488974,48.9541462 15.6535176,48.7352466 15.6550576,48.5163469 C15.6858583,48.5505015 15.7197392,48.5784461 15.75362,48.6094957 C15.875283,48.8687598 16.0169665,49.1124991 16.1786705,49.3267413 C16.2756929,49.4664645 16.4959183,49.3857355 16.4558773,49.2134103 C16.4466371,49.1637309 16.4281566,49.1124991 16.4142963,49.0597148 L16.4158363,49.0597148 C16.4343168,49.079897 16.4558773,49.086107 16.4774378,49.079897 C16.5914007,49.1264714 16.7115236,49.1699409 16.8455069,49.2009905 C16.9594697,49.3453711 17.0795927,49.4866467 17.2104959,49.6155025 C17.4553619,49.8654517 17.8188109,49.8685567 18.0990978,49.7241761 C18.2500215,49.7583306 18.4009452,49.7769604 18.554949,49.7893802 C18.6612116,49.8514794 18.7720944,49.9073687 18.8860572,49.9523906 C19.2187054,50.0781414 19.123223,49.9306559 19.00156,49.7893802 C19.3141877,49.7676455 19.6314355,49.7039938 19.9502234,49.5860054 C19.9948845,49.5704806 20.0318454,49.5456409 20.0595661,49.5161438 C20.21973,49.5332211 20.3845141,49.539431 20.5554583,49.5332211 C20.6771213,49.5239062 20.7017619,49.3950504 20.6355402,49.3267413 C20.7833839,49.3019016 20.9343076,49.2599847 21.0821512,49.1947805 C21.1052518,49.1854657 21.0913915,49.1544161 21.0698309,49.1544161 C20.261311,49.0985268 19.6345156,49.047295 18.9507388,48.5753412 C18.4779471,48.247768 18.1021779,47.8037588 17.78339,47.3240426 C17.4692223,46.648714 17.1550545,45.9687279 16.9348291,45.2359575 C16.4882181,43.7440246 16.2756929,42.19465 16.1540299,40.6499328 C16.1417096,40.4713976 16.1340094,40.2959674 16.1216891,40.1205372 C16.1524898,40.139167 16.2017711,40.1205372 16.200231,40.0801727 C16.0092663,38.0976563 16.2140914,36.1151398 16.2695327,34.1326233 C16.321894,32.0957701 16.2756929,30.0449445 16.2695327,28.0065388 C16.2664526,27.3622598 16.2433521,26.7164282 16.2140914,26.0690442 C16.2156314,24.9885184 16.1940709,23.9126501 16.1216891,22.8460966 C16.1216891,22.624092 16.117069,22.4036399 16.1216891,22.1831878 C16.1417096,21.3091417 16.3665551,20.5623991 16.9563896,19.8979378 C17.1689149,19.6604084 17.4014606,19.4446137 17.6417065,19.235029 C18.0128557,19.0006046 18.4194257,18.8034397 18.8182955,18.6093797 C19.0292807,18.7382355 19.2818469,18.8158595 19.5313331,18.8329368 C19.6345156,18.8406992 19.7423182,18.8298318 19.8455008,18.8127545 C19.774659,18.9354004 19.7392382,19.0766761 19.7392382,19.2039794 C19.7392382,19.5734695 19.9856442,19.807894 20.3090522,19.9383023 C20.5400579,20.0330035 20.8711661,20.0516333 21.1083319,19.9646944 C21.2315349,19.9243299 21.3501178,19.8653357 21.4687008,19.8109989 C21.5380025,19.7644245 21.6026841,19.7178501 21.6673657,19.6635134 C21.4902613,19.801684 21.6381049,19.691458 21.6781459,19.6650658 C21.9384123,19.497398 22.0800958,19.2132943 22.0231144,18.9121132 C22.1078165,18.8857211 22.1863584,18.850014 22.2618203,18.8034397 C21.9322522,19.2008744 21.9337922,19.8296287 22.2849209,20.2084337 C22.8285543,20.8030334 23.8018582,20.3124498 24.2561694,19.8544684 C24.562637,19.5455249 24.6735197,19.1543 24.6180783,18.7848099 C24.6581193,18.8034397 24.6966203,18.8127545 24.7366612,18.8282793 C24.7905626,18.888826 24.8706445,18.9291905 24.9784472,18.9291905 C25.012328,18.9291905 25.0415888,18.9183231 25.0693094,18.9121132 C25.2756745,18.9385054 25.4851197,18.9291905 25.6945648,18.8826161 C25.8886096,18.8406992 26.0965147,18.7351306 26.2335781,18.5938549 C26.4168426,18.4028999 26.5030848,18.1808953 26.5030848,17.9340511 C26.6170476,18.053592 26.7679713,18.1436358 26.9450756,18.1808953 C27.242303,18.2398896 27.4979493,18.1808953 27.7643758,18.053592 C28.1124244,17.8859242 28.4111917,17.4232853 28.260268,17.0444803 C28.1940464,16.8830224 28.1078043,16.7696914 27.9892214,16.6889624 C28.0215621,16.532162 28.0015417,16.3722566 27.9276198,16.2216661 C27.9476403,16.1906165 27.9645807,16.1595669 27.9707409,16.1300698 C28.0184821,15.959297 27.9476403,15.7403974 27.7797762,15.6596684 C27.7212548,15.6332763 27.6673534,15.6115416 27.6057519,15.6006742 C27.4856289,15.4951056 27.2992844,15.4951056 27.2007219,15.6301713 C27.12064,15.6053317 27.0359379,15.5898069 26.9389155,15.5867019 C26.8880942,15.5835969 26.837273,15.5898069 26.7849117,15.5975693 C26.7849117,15.5618622 26.7787515,15.5277077 26.7741314,15.4951056 C26.7802916,15.4764758 26.7910718,15.4656085 26.7941519,15.4500837 L26.8049322,15.3957469 C26.838813,15.2591287 26.7725914,15.124063 26.6586286,15.0619638 C26.5631462,14.8679038 26.4260829,14.700236 26.2458984,14.5682753 C26.2505185,14.473574 26.2166377,14.3788728 26.1226954,14.3354033 C25.987172,14.2701992 25.8593489,14.2391496 25.7299857,14.2329397 C25.740766,14.2003376 25.7515462,14.1661831 25.7577064,14.1320285 C25.7669466,14.0761392 25.7746468,14.0186975 25.780807,13.9565983 C25.9979523,13.9271012 26.2012373,13.8510297 26.3875819,13.7221739 C26.637068,13.5498486 26.7787515,13.2797172 26.6971295,12.9769837 C26.6940495,12.9707738 26.6863493,12.9614589 26.6863493,12.952144 C26.7541109,12.9304093 26.8218726,12.9055696 26.8880942,12.877625 C26.8957944,12.8838349 26.8988745,12.8915973 26.9050346,12.8978072 L26.9050346,12.8978072 Z" id="9"></path>
            </g>
        </g>
    </g>
</svg>