<?xml version="1.0" encoding="UTF-8"?>
<svg width="32px" height="50px" viewBox="0 0 32 50" version="1.1" xmlns="http://www.w3.org/2000/svg" xmlns:xlink="http://www.w3.org/1999/xlink">
    <title>植物-18</title>
    <g id="V1.4" stroke="none" stroke-width="1" fill="none" fill-rule="evenodd">
        <g id="形状汇集备份" transform="translate(-1045.000000, -314.000000)" fill="#3D4242">
            <g id="植物-18" transform="translate(1045.000000, 314.000000)">
                <path d="M26.1361977,29.627033 C22.9092951,30.8451505 19.85959,32.3767562 19.2482449,36.0375986 C19.070205,37.2210095 19.0805953,38.3824113 18.6430778,39.4557768 C17.8242067,40.4538036 17.0797529,41.4885122 16.474305,42.5731644 C17.1597866,37.8386743 17.2257793,32.926983 16.5622016,28.1566577 C16.5846672,28.1318269 16.6003931,28.099942 16.6020781,28.0607207 C16.6922213,25.4862236 17.6773378,23.4407907 18.9671441,21.3843533 C19.3855659,21.1225017 19.8433024,20.9196232 20.3125527,20.6809095 C22.7728166,19.382092 25.5549003,18.1066945 26.3035664,15.1442169 C27.1019377,11.9974839 25.3021623,8.26214932 24.3442853,5.28866721 C23.0235889,8.42242051 19.9165965,10.4004153 18.6565571,13.5510987 C17.570907,16.2314087 18.4549284,19.0454661 18.003089,21.7604827 C17.1651222,23.1368962 16.4422915,24.6273054 16.249649,26.2049044 C15.8421792,23.9814238 15.2681831,21.799704 14.5169896,19.6924764 C14.3139568,18.5285351 13.9809042,17.3916818 13.8418983,16.2441062 C13.4293738,12.9602398 13.6891323,9.86175741 11.3414771,7.16338871 C8.63381073,4.10074164 4.12721146,2.3222393 0.755686605,0 C1.26088177,1.9895637 2.12187588,3.87924008 2.9045212,5.81349894 C4.65206403,10.458824 6.04970514,14.9410563 10.536647,17.5070884 C11.4613873,18.0178117 13.0926706,18.6490206 13.9171581,19.5513926 C15.471216,23.9673154 16.1727043,28.6199769 16.2718338,33.33274 C15.7433305,32.3186297 14.9792193,31.3900162 14.0864926,30.542949 C14.0258354,30.3330163 13.9654591,30.1267518 13.8932884,29.9292345 C12.3782645,23.9613899 6.873631,23.4252715 1.56051671,21.9515101 C4.04240382,24.1589072 4.33698399,27.8727971 7.52120191,29.6806449 C9.39314799,30.6854437 11.6321258,30.5147323 13.5779275,31.18093 C14.7219882,32.270379 15.683235,33.4958329 16.2847515,34.94561 C16.2552654,39.0333719 15.7986521,43.1510436 15.0805953,47.1829364 C14.7396799,46.4126189 14.3147992,45.7029674 13.8228026,45.0418487 C13.8365628,44.6651549 13.8528503,44.2791497 13.8618366,43.921079 C14.1710194,35.6197084 6.00393148,35.203229 0,32.4154132 C0.829542263,33.7018153 1.52007863,35.0167162 2.13254704,36.3753532 C3.83347374,39.752335 5.26705981,43.3866536 9.21988206,44.5486197 C10.3647852,44.8663404 11.8329121,44.7009902 12.9730413,45.0923567 C13.7124403,45.9202364 14.38697,46.820351 14.9272676,47.8680393 C14.9331648,47.8796082 14.9421511,47.886098 14.9494524,47.8956917 C14.8309464,48.5319797 14.7079472,49.1677032 14.5776467,49.7991943 C14.5358045,50.0012263 14.8278573,50.0864409 14.8865487,49.8849733 C15.4479079,47.9676445 15.9059253,45.9848528 16.2524572,43.9642506 C17.227745,42.4890785 18.2552654,41.094324 19.385285,39.7534636 C19.8843022,39.6863078 20.4021342,39.7441521 20.9702331,39.8175157 C23.6871665,39.9766582 26.9005897,41.1987261 29.2575119,39.0785188 C31.7093513,36.8524986 31.7843302,30.5991004 32,27.4233041 C30.0744173,28.2102695 28.1055883,28.9185102 26.1361977,29.627033" id="48"></path>
            </g>
        </g>
    </g>
</svg>