<?xml version="1.0" encoding="UTF-8"?>
<svg width="50px" height="50px" viewBox="0 0 50 50" version="1.1" xmlns="http://www.w3.org/2000/svg" xmlns:xlink="http://www.w3.org/1999/xlink">
    <title>植物-13</title>
    <g id="V1.4" stroke="none" stroke-width="1" fill="none" fill-rule="evenodd">
        <g id="形状汇集备份" transform="translate(-1036.000000, -244.000000)" fill="#3D4242">
            <g id="植物-13" transform="translate(1036.500000, 244.000000)">
                <path d="M27.0848179,0 C27.8789738,11.0809007 23.9338238,16.2835232 22.4668094,17.8138714 C36.0989151,5.02146987 46.5590525,7.36399321 46.5590525,7.36399321 C37.1654916,16.3915452 29.2172711,18.212091 25.0584167,18.445362 C44.4284781,20.1665074 49,31.2315495 49,31.2315495 C37.1147615,29.4087626 29.5013113,24.7752004 25.4729635,21.5693102 C40.6364932,36.7484268 36.9348223,49.5128518 36.9348223,49.5128518 C26.7573687,38.3949468 23.4980616,27.9443584 22.4543001,22.4124017 C24.1697986,41.1071876 16.1732977,50 16.1732977,50 C15.018432,37.0257786 20.4335262,22.1796671 21.6872005,18.9536707 C13.2147262,35.6535923 2.19523621,36.4928577 2.19523621,36.4928577 C6.9379886,26.961301 15.258033,21.67829 19.4464781,19.5044588 C8.65419773,24.1870343 1.27542608,21.2132369 0.149922679,20.7002719 L0,20.6289131 C10.8198792,13.7338999 19.5607762,17.1529708 21.5364536,18.0921132 C20.874969,16.7782989 20.1162077,15.5156119 19.273786,14.307882 C18.1212061,12.7112687 16.8678631,11.188728 15.5148346,9.75593931 C14.1531847,8.33180142 12.7198689,6.9774106 11.2218923,5.6981736 C9.72445456,4.42488403 8.16289478,3.20133655 6.55176168,2.10755107 L7.02540248,1.39710414 C8.67048254,2.56171805 10.2067168,3.81932805 11.702538,5.14181905 C13.192432,6.46701342 14.6160486,7.86628026 15.9653053,9.33529418 C17.3059404,10.8134996 18.5463513,12.3819977 19.6822271,14.0251089 C20.5153211,15.2708964 21.2626843,16.5735256 21.9090982,17.9263872 L21.9081038,17.9102287 C21.0859303,4.66325681 27.0848179,0 27.0848179,0 Z" id="29"></path>
            </g>
        </g>
    </g>
</svg>