<?xml version="1.0" encoding="UTF-8"?>
<svg width="32px" height="50px" viewBox="0 0 32 50" version="1.1" xmlns="http://www.w3.org/2000/svg" xmlns:xlink="http://www.w3.org/1999/xlink">
    <title>植物-17</title>
    <g id="V1.4" stroke="none" stroke-width="1" fill="none" fill-rule="evenodd">
        <g id="形状汇集备份" transform="translate(-975.000000, -314.000000)" fill="#3D4242">
            <g id="植物-17" transform="translate(975.000000, 314.000000)">
                <path d="M19.7578943,2.34265044 C20.2873207,4.55853645 16.6705589,10.424755 16.6705589,10.424755 C16.6705589,10.424755 16.739044,10.3530091 16.8639281,10.2271622 L17.0071642,10.0839352 C18.2425747,8.8576244 22.5561912,4.79709291 24.5016223,5.85370526 C26.7856708,7.09407628 27.0792336,13.7397365 25.5784886,14.9992296 C24.0777435,16.2587228 17.984133,14.7026936 17.984133,14.7026936 C17.984133,14.7026936 17.9926609,14.7082928 18.0091214,14.7192404 L18.0817055,14.767877 C19.0494859,15.4203708 26.8428635,20.8147295 24.5731132,23.8322353 C22.1545268,27.0476103 16.972847,27.0384774 15.5779309,25.6967875 C14.779996,24.9289815 14.3677437,22.1806004 14.1610453,19.9693435 C14.0591715,22.5925514 14.4244836,25.1138804 15.3612164,27.4409768 C18.0090529,34.0194031 19.128458,39.2808962 18.7203414,43.5025492 C18.8501467,43.4255549 18.9901353,43.3367165 19.1369998,43.2370337 C19.811343,42.7793295 20.4869788,42.193126 21.1180091,41.4668289 C21.6767862,40.823693 22.1654139,40.1166048 22.5743491,39.3425696 C21.9431588,38.8399627 21.5015272,38.0191366 21.2124881,36.9449264 C18.4096465,36.740634 18.170357,28.9244265 20.310119,28.7334989 C22.4933948,28.5386886 23.249167,35.8684177 21.944143,36.8080903 C22.1734654,37.6279785 22.4950602,38.2557222 22.9116387,38.6482792 C23.4951738,37.3357012 23.8639591,35.8466028 23.977895,34.1683585 C22.5600128,32.8951248 21.1817002,26.4329315 24.2232583,26.4656691 C26.5586447,26.4909603 26.080248,33.4486169 24.7089884,34.3002482 C24.5976809,35.8408945 24.2792536,37.2351851 23.7825012,38.4885853 C24.2638142,38.2674148 24.7428358,37.9663566 25.193245,37.5736468 C25.3153257,37.4672052 25.4335702,37.3555032 25.547757,37.238409 C24.8143498,35.7111516 26.6796292,30.3190675 29.1648527,31.2930128 C31.4401499,32.184925 28.0109021,37.5543821 26.1954243,37.6365982 C26.031138,37.8157081 25.8572079,37.9843037 25.6756765,38.1425802 C25.1048129,38.6403137 24.4932576,39.0070224 23.8807389,39.2631316 C23.6785264,39.3476816 23.4993681,39.4113101 23.3494262,39.4572213 C22.8902758,40.3760356 22.3270702,41.2102851 21.6732277,41.9628384 C20.997919,42.7400987 20.2739058,43.3682761 19.5486001,43.8605705 C19.3298633,44.009036 19.1239349,44.1361174 18.9344934,44.2428492 L18.8411636,44.2945242 C18.7419008,44.348505 18.662613,44.388656 18.6058056,44.4156745 C18.2753004,46.5423607 17.528038,48.3905412 16.3640515,50 L15.7673509,49.5562741 C19.1358599,44.8985946 18.8145598,38.006266 14.6761267,27.7245224 C13.4597537,24.7027243 13.1667639,21.3866402 13.5800417,17.956134 C12.7513776,20.0039608 10.7336039,24.5246506 9.02638487,24.680745 C6.81607896,24.8830973 2.22405795,21.6297633 2.7354709,19.569994 C3.15596598,17.8766405 7.78509413,15.4068642 9.41771664,14.5822399 L9.75190206,14.4153928 C9.90046085,14.3421599 9.98363057,14.3025555 9.98363057,14.3025555 C9.98363057,14.3025555 1.44610233,16.0649327 0.459584787,13.5131247 C-0.526651291,10.9616022 0.0418980463,5.19299222 2.48074953,4.9398378 C4.91988248,4.68639798 12.22546,10.4943939 12.22546,10.4943939 C12.22546,10.4943939 9.14009474,2.47878872 11.2763767,0.833998527 C13.41294,-0.810791667 19.2281865,0.126479025 19.7578943,2.34265044 Z M31.96,39.214 L31.870407,39.4526144 C28.1705242,48.9297014 18.5407736,49.3022595 17.4704565,49.3142087 L17.3733646,49.3143536 C19.3377096,44.9938081 21.5233427,44.066768 23.907614,43.4385123 L24.2959902,43.3387632 C24.4260269,43.3060607 24.5566405,43.2737424 24.6878273,43.2413195 L25.0831037,43.1432486 C25.9432466,42.9279639 26.8274575,42.6876117 27.7347541,42.2879629 C31.0071005,40.8466533 31.7897629,39.5913866 31.9578633,39.220891 Z M5.86136641,26.3146898 C5.86136641,26.3146898 18.2318179,30.4008361 16.6291842,46.5202366 L16.6156584,46.5133677 C16.360849,46.3815991 12.5682927,44.3183548 10.555276,37.2585523 C8.5405848,30.1927757 5.86136641,26.3146898 5.86136641,26.3146898 Z M17.9044798,20.6782224 C18.6216401,20.724458 16.9390718,16.8452305 16.3615157,16.6702771 C15.7839596,16.4956091 17.1867566,20.6319868 17.9044798,20.6782224 Z M10.7922653,20.6142916 C11.3380164,20.9179628 12.2955436,17.8224579 11.7945446,17.4480063 C11.2932643,17.0735547 10.2467957,20.3106205 10.7922653,20.6142916 Z M15.1937379,20.1776217 C15.7141575,20.2558227 15.4901153,17.6797553 15.0780578,17.2733383 C14.6657188,16.8672067 14.6730368,20.0994206 15.1937379,20.1776217 Z M8.8006539,19.1749932 C9.20623786,19.6070967 10.9693037,17.2918896 10.6081905,16.7892911 C10.2470772,16.2861217 8.39478848,18.7428897 8.8006539,19.1749932 Z M17.4502454,15.7509259 L17.3728017,15.7512724 C16.6232736,15.8337545 19.3489329,18.7748551 19.9211412,18.4280878 C20.4564328,18.1036925 18.4160172,15.9714861 17.5368934,15.7652385 L17.4502454,15.7509259 Z M7.27908077,17.6911715 C7.69761189,18.0719021 10.273253,15.7452788 10.0711646,15.2555235 C9.8685134,14.7660536 6.86054965,17.3107264 7.27908077,17.6911715 Z M11.4365218,11.7276588 C11.691783,11.5794754 12.6691617,12.2581573 12.6394878,12.6260854 C12.6051496,13.0553348 11.4376533,12.3923385 11.3875534,11.8683345 C11.3848505,11.8397586 11.3862728,11.8152791 11.3913727,11.7946038 C11.1463904,12.175646 10.9850343,12.6507837 10.9425686,13.2214607 C10.7278193,16.1073802 12.9821992,16.2902155 13.3394923,16.3010971 L13.3868048,16.3016992 C15.0667142,16.6079709 18.2887696,14.6061639 16.6408156,12.2205572 C15.9864941,11.27335 14.9902022,10.7421532 14.0120582,10.6420662 C14.1772052,10.9993521 13.9922904,12.135571 13.6974962,12.0932338 C13.4316089,12.0548497 13.579928,10.9482634 13.7907058,10.6247094 C12.8588075,10.5936046 11.9691524,10.9561682 11.4365218,11.7276588 Z M13.2032523,14.5588494 C13.406185,14.9027627 13.0402869,15.9407814 12.7016904,15.854589 C12.363094,15.7678259 13.0008825,14.2149361 13.2032523,14.5588494 Z M14.4903692,14.7415087 C15.0656736,14.888207 15.1841682,15.5452098 14.9587187,15.8132053 C14.7335507,16.0812008 13.9147833,14.5945251 14.4903692,14.7415087 Z M12.1970325,13.8273559 C12.306802,14.1107632 11.5772575,14.8736513 11.2389425,14.6413315 C10.9009089,14.4090117 12.087826,13.5439485 12.1970325,13.8273559 Z M16.3299922,14.5174657 C15.8667089,14.7851757 15.115492,14.0157233 15.2277946,13.7776954 C15.3400971,13.5396674 16.792994,14.2497556 16.3299922,14.5174657 Z M6.83521825,13.6081647 C7.22166292,14.1173276 10.1626392,13.581622 10.0998736,13.1823401 C10.0368265,12.7827728 6.44849211,13.0987164 6.83521825,13.6081647 Z M18.209864,12.8164506 C18.2534903,13.1834817 21.6692897,13.6723808 21.9431503,13.1127012 C22.217011,12.5530216 18.1656747,12.4494195 18.209864,12.8164506 Z M16.711652,12.8995035 C16.5751439,13.4486232 15.5511922,13.0775964 15.6784121,13.000537 C15.6784121,13.000537 16.8481602,12.3500985 16.711652,12.8995035 Z M6.7305151,11.5278461 C6.66634221,12.113783 10.3168793,12.6352183 10.1775566,12.2165289 C10.0385153,11.7978395 6.79525092,10.9421947 6.7305151,11.5278461 Z M15.1225285,11.3254938 C15.3420673,11.6006245 14.5280848,12.4148855 14.5199225,12.1571646 C14.5199225,12.1571646 14.9029896,11.0503632 15.1225285,11.3254938 Z M17.9889178,11.8566329 C18.4648668,12.11521 20.8665656,11.3594571 20.9692985,10.619116 C21.0723129,9.87877486 17.5132503,11.5983412 17.9889178,11.8566329 Z M7.00775327,9.21692019 C6.27342395,9.42469518 10.0449889,11.8814632 10.4708379,11.4701943 C10.8972499,11.05864 7.82060994,8.98631279 7.00775327,9.21692019 Z M17.1901341,11.269269 C17.6339967,11.5469683 21.1505588,8.69405786 20.7199249,8.03648427 C20.2890095,7.37891068 16.7457087,10.9915698 17.1901341,11.269269 Z M15.6170538,10.1011055 C16.0803371,10.1918644 17.2101178,6.83920944 16.9950823,6.29151685 C16.7800468,5.74382426 15.1534891,10.0100613 15.6170538,10.1011055 Z M14.2837775,9.92501051 C14.7538158,9.8807727 15.0183883,7.4020285 14.4343586,7.25276158 C13.850329,7.10378006 13.8137392,9.96924831 14.2837775,9.92501051 Z M12.9949718,9.678135 C13.6561215,9.40871249 12.2983582,4.98264858 12.0441997,4.91757619 C11.2943901,4.72635471 12.3343851,9.94727211 12.9949718,9.678135 Z" id="58"></path>
            </g>
        </g>
    </g>
</svg>