<?xml version="1.0" encoding="UTF-8"?>
<svg width="36px" height="50px" viewBox="0 0 36 50" version="1.1" xmlns="http://www.w3.org/2000/svg" xmlns:xlink="http://www.w3.org/1999/xlink">
    <title>植物-6</title>
    <g id="V1.4" stroke="none" stroke-width="1" fill="none" fill-rule="evenodd">
        <g id="形状汇集备份" transform="translate(-903.000000, -174.000000)" fill="#3D4242" fill-rule="nonzero">
            <g id="植物-6" transform="translate(903.000000, 174.000000)">
                <path d="M33.875114,37.6499849 C34.5295227,37.4683488 35.4124307,37.2882651 36,36.7200684 C35.9129526,36.7029918 35.8243507,36.6859143 35.7388578,36.6703902 C34.3973976,36.6300261 33.1289946,35.9500539 31.8590371,35.4284312 C31.6383101,35.335284 31.4191376,35.2250601 31.2077373,35.1024171 C31.5652529,35.0682631 31.918105,34.9999558 32.2709571,34.914571 L32.2756205,34.914571 C32.3067089,34.908361 32.3362429,34.8974935 32.3673313,34.8881794 C32.633136,34.8245288 32.8989408,34.7469065 33.1631919,34.6677317 C33.4849556,34.5714795 34.0880687,34.1849197 34.5792638,34.0048361 C34.5916995,34.0048361 34.6056889,34.0001786 34.619679,34.0001786 C34.8310793,33.8542482 35.0455884,33.7067653 35.2647618,33.5670457 C34.9771946,33.5530732 34.6927363,33.5204716 34.4098333,33.4785559 C33.3839189,33.4506118 32.2414232,33.0345555 31.3445259,32.7054364 C30.4927054,32.393394 29.6471037,31.9618135 28.8201547,31.5488622 C28.7160091,31.5007357 28.5481321,31.4231134 28.360048,31.329967 C28.3538301,31.320652 28.3460578,31.314442 28.3382855,31.3051279 C28.7704136,31.4013793 29.2009863,31.4821066 29.628451,31.5271281 C30.2875231,31.5954354 30.9668023,31.5302323 31.6274289,31.45882 C32.165257,31.4013793 32.7419451,31.1234909 33.3015349,31.0008479 C33.5331423,31.0117146 33.7585327,30.9977429 33.9714874,30.9325398 C34.039882,30.9092532 34.1020589,30.7974768 34.1269294,30.6888055 C33.904648,30.6593089 33.6792576,30.6034207 33.4523127,30.5320084 L33.4429868,30.5320084 C32.4481609,30.5320084 31.2030739,29.8116721 30.4305295,29.3335177 C30.1103194,29.1332516 29.7870012,28.9454054 29.4652375,28.7544543 C30.1958123,28.8258674 30.9248335,28.8320766 31.6771708,28.7544543 C31.2885669,28.4936434 30.9217246,28.1878109 30.5813073,27.8121178 C30.2377819,27.7034464 29.8958102,27.5745935 29.5616108,27.3619082 C29.2274114,27.1554322 28.919637,26.927222 28.6196349,26.6865927 C29.6424403,26.7052218 30.6683547,26.5391097 31.5714699,26.2953754 C31.6196574,26.2798513 31.670953,26.2379348 31.7175852,26.1851516 C31.6305378,26.1354734 31.5419359,26.0826902 31.4548894,26.023697 C31.4611064,26.023697 31.4657698,26.0205921 31.4688787,26.0205921 C31.1222444,25.7970394 30.7849361,25.5377809 30.4616179,25.2443676 C29.6377769,25.0316824 28.8046109,24.2445913 28.1470925,23.6174014 C27.6077107,23.1035412 27.0963075,22.5679468 26.6424187,21.9733585 C26.9874985,22.1332606 27.3434604,22.2745335 27.6994215,22.3847574 C28.551241,22.6564358 30.2471079,23.1904784 30.932605,22.1705196 C30.932605,22.1705196 30.9357139,22.1612047 30.9372684,22.1612047 C29.5025429,21.3647986 28.0165218,20.6677489 27.0854271,18.9553988 C27.0636655,18.9290072 27.041903,18.9088247 27.0170325,18.8824331 C26.4387899,18.2040134 25.9631394,17.3998448 25.5232391,16.558418 C25.8807554,16.7385017 26.235162,16.8921938 26.5693614,17.0210476 C27.2766202,17.3020409 28.1113415,17.6932573 28.7983931,17.1856071 C28.8263726,17.1685297 28.8512431,17.1328239 28.8730048,17.0909074 C28.333623,16.6112012 27.7818055,16.1501234 27.2781746,15.6191865 C27.0667744,15.4685986 26.8615912,15.3149066 26.6657348,15.1379271 C26.1139173,14.6442485 25.6165043,14.0325835 25.1392985,13.3883179 C25.3025121,13.4504152 25.470389,13.5094084 25.6413749,13.5559816 C26.1683218,13.7065695 26.7916429,13.7733251 27.1522665,13.1911568 C27.153821,13.1849468 27.153821,13.1787368 27.1569299,13.1756318 C25.3071755,12.1913796 23.5724479,10.2120077 22.3864289,8.47016015 C21.988499,7.88178182 21.5812415,7.25925025 21.1864206,6.6056696 C21.1599955,6.55909557 21.1335705,6.51096987 21.1071446,6.46750166 C20.9392685,6.1849558 20.7745005,5.90396243 20.6143951,5.61210242 C20.5335655,5.46927699 20.4589538,5.31558409 20.3796787,5.16810201 C20.2755331,4.9709409 20.1729411,4.77998978 20.0734588,4.58282867 C19.9646498,4.36548595 19.8667211,4.14193326 19.7656844,3.91993305 C19.7035076,3.78331761 19.6382226,3.65135965 19.5791547,3.51163921 C19.4610189,3.24772246 19.3584277,2.97293907 19.2558366,2.70281317 C19.2154214,2.60656178 19.1750062,2.50875705 19.1408097,2.40940067 C19.0304462,2.10822569 18.9356265,1.80549821 18.8439157,1.49811325 C18.8205996,1.42359596 18.795729,1.35373533 18.7739674,1.27921804 C18.6838111,0.956308122 18.6060904,0.628741551 18.5361421,0.299622484 C18.5143796,0.200266099 18.4848457,0.102461376 18.466193,0 C17.6625601,2.7742263 16.4019294,5.22399019 14.8754931,7.40673316 C14.1464727,8.44532105 13.3506113,9.39697169 12.5189997,10.3004975 C12.2469763,10.59391 11.9625188,10.8329868 11.6749516,11.0503295 C11.4977487,11.2257565 11.3174361,11.402736 11.1309064,11.5735047 C11.0252063,11.6682044 10.879091,11.8172398 10.7096596,11.9802469 C10.6941158,11.9942185 10.6785712,12.008191 10.6630274,12.0237151 C10.631939,12.0532117 10.5961872,12.0858132 10.5635443,12.1184148 C10.493596,12.1836171 10.4220932,12.2441628 10.3459263,12.3093659 C10.328828,12.3264425 10.3070664,12.3435192 10.2853047,12.3621491 C10.1967029,12.4351139 10.1018832,12.506527 10.0086187,12.5717294 C9.98374734,12.5841493 9.95732231,12.5996734 9.93556067,12.6183026 C9.83452395,12.6788482 9.73659531,12.7347364 9.64177644,12.7751004 C10.1718323,13.1259536 10.7189864,13.111982 11.2739128,12.9939957 C11.1744297,13.0855896 11.0765019,13.1725268 10.9801278,13.2703315 C10.8728732,13.3790029 10.8044793,13.6258422 10.9801278,13.6848354 C11.0889368,13.7205411 11.1946377,13.742276 11.3003379,13.7546952 C11.3594058,13.7640101 11.4184728,13.7702201 11.4806497,13.7733251 L11.488422,13.7733251 L11.4930854,13.7733251 C11.5863498,13.7764293 11.6811695,13.7826393 11.7744347,13.7733251 C10.9801278,14.1412549 10.1236448,14.1893806 9.25939035,14.2421646 C8.92829985,14.3648076 8.59720935,14.4796889 8.25834655,14.4905564 C8.23503044,14.5712837 8.24280275,14.6535634 8.30964214,14.7001367 C9.18944121,15.3257732 10.3428173,15.6409206 11.3796129,15.4002913 C11.0220974,15.6905988 10.6599185,15.9607247 10.3148378,16.226194 C9.99929196,16.4668233 9.64799429,16.6143054 9.29514132,16.7353967 C8.58943704,17.1856071 7.87129707,17.6854957 7.10030704,17.8795518 C7.66145131,18.1558877 8.90653738,18.7644468 9.9511053,18.8141258 C9.55939243,19.0702793 9.16146172,19.3062519 8.74487828,19.5173847 C8.21637689,19.7828539 7.60704679,20.2066719 7.00859625,20.3712314 C6.5889039,20.5559734 6.16454899,20.7127704 5.72620392,20.8028127 C5.70288781,20.9037216 5.71532268,21.0139454 5.79148884,21.0729386 C6.15677668,21.3741136 6.70082186,21.4765749 7.2355411,21.4501833 C6.51118328,21.6551069 5.76506381,21.7761974 5.04536937,21.9205753 C4.84485039,21.9857785 4.64122164,22.0587433 4.44225628,22.1379181 C4.4375929,22.1379181 4.43448481,22.1410231 4.42826696,22.144128 C4.25106324,22.2155403 4.08007737,22.2838485 3.90442895,22.3645758 C3.88422094,22.4406455 3.89510218,22.5244778 3.96815941,22.5788135 C5.17904981,23.4730243 6.57025118,24.0489826 7.96922487,24.1234999 C7.72051838,24.2523529 7.47025826,24.3765492 7.21067054,24.4774581 C7.08476241,24.5271363 7.00082477,24.8205496 7.17025534,24.8686753 C7.55108781,24.9711367 7.9334739,25.0503115 8.31585999,25.1124096 C8.3236323,25.1124096 8.33140378,25.1155146 8.34228502,25.1186196 L8.34383948,25.1186196 C8.43244134,25.1279346 8.51948873,25.1496687 8.61119868,25.1620878 C8.25057423,25.3654589 7.88373277,25.55641 7.5029003,25.7132071 C7.03191236,25.9103682 6.56869672,26.0205921 6.10392662,26.1013193 C5.77905397,26.2581172 5.45262686,26.4055993 5.11842744,26.4894316 C4.70961632,26.5856838 4.29614182,26.6089704 3.88422094,26.6586486 C3.8857754,26.6990126 3.89976556,26.7393758 3.92619059,26.7704249 C4.73604135,27.6273767 5.92516927,27.9782298 7.08631687,27.9968598 C6.76921654,28.1536568 6.44589835,28.2949298 6.11014447,28.4004961 C5.97957379,28.4439643 5.89718978,28.7575593 6.06972928,28.8010275 C6.69771377,28.9485104 7.34901352,29.1363565 7.98943288,29.1425665 C7.36144839,29.574147 6.70548525,29.9467351 6.05418549,30.2975883 C5.58319754,30.5537425 5.10910067,30.7788477 4.63655825,30.9760088 C3.27644446,31.6792677 1.8215118,32.1092956 0.365024668,32.2086528 C0.596632904,32.4213381 0.84378493,32.5967651 1.09870843,32.7566671 C1.09715397,32.7566671 1.09715397,32.7566671 1.09559951,32.7535621 C1.10337182,32.7597721 1.11114413,32.7659821 1.12047091,32.7675346 C1.62099198,33.0733662 2.16037461,33.2813948 2.71685549,33.4009336 C2.74483498,33.4071428 2.77126001,33.4118003 2.80079396,33.4164577 C2.89872176,33.4381919 2.99820486,33.4537168 3.09613265,33.4676884 C3.17540774,33.4754509 3.25623728,33.48787 3.33551237,33.497185 C3.40857044,33.503395 3.48629106,33.509605 3.56090275,33.5142616 C3.67592964,33.5204716 3.79095653,33.5235766 3.90132003,33.5235766 C3.95417008,33.5235766 4.00546567,33.5266816 4.05676127,33.5266816 C4.2293016,33.5204716 4.40028747,33.5111575 4.56971887,33.49408 C3.85157889,34.0079411 3.06504424,34.3650042 2.29094528,34.7174099 C2.20389789,34.7562206 2.07332721,34.9797733 2.18213625,35.0853397 C2.20078896,35.1055221 2.2241059,35.1179413 2.24275861,35.1381237 C2.80390289,35.6566414 3.59354563,35.7622078 4.38007945,35.6473264 C4.3396651,35.673718 4.29614182,35.7001096 4.25106324,35.7296062 C3.48162767,36.2170748 2.51322674,36.4049218 1.80285908,37.0274533 C1.72980101,37.0864465 1.62565536,37.3022367 1.72980101,37.4000406 C2.25363985,37.9061392 2.97644238,38.0536221 3.6774841,38.025678 C3.37592756,38.1700559 3.07126209,38.3128805 2.76970554,38.4510485 C2.08576291,38.7646434 0.87176442,38.9292029 0.242225469,39.6262526 C0.164504848,39.7085324 0.0945565394,39.7970222 0.0370430961,39.8994835 C-0.0173614222,39.9972874 -0.0173614222,40.1556378 0.074348527,40.2146301 C1.00544402,40.8294001 2.29094528,40.629134 3.31375073,40.6384489 C3.49561783,40.6446589 3.68214749,40.632239 3.86867715,40.6182673 C3.42877761,40.8697641 2.98576916,41.1414425 2.60649199,41.5140298 C2.51322674,41.6056245 2.41063556,41.8555688 2.56452234,41.9471636 C3.28266231,42.3942681 4.37852582,42.080674 5.10910067,41.8524638 C5.5132484,41.7267158 5.91273357,41.5947571 6.31377238,41.4581416 C5.94071306,41.9735551 5.71687714,42.4346322 5.97024702,42.5960867 C6.58579581,42.9935139 7.7236273,42.3399324 8.54591376,41.9425061 C8.52570575,42.0170234 8.51016196,42.0993031 8.49772626,42.1908979 C8.49150924,42.2902543 8.51793427,42.3834015 8.58943704,42.4299747 C8.90187482,42.6504224 9.16146172,42.6348983 9.48478073,42.4051356 C9.89514632,42.1086181 10.3226101,41.8291772 10.7609552,41.5916521 C10.3536986,42.0961981 10.0707947,42.6597374 10.3412637,43.018353 C10.6552551,43.4359618 11.2708039,43.0913178 11.626765,42.9252058 C11.3578513,43.2294858 11.0842742,43.5291082 10.8340133,43.8287307 C10.7189864,43.9700037 10.7003329,44.2649687 10.8853089,44.3146477 C11.9438653,44.5971927 13.2262585,43.614493 14.1262647,42.9904089 C14.2817068,42.8817376 14.4355936,42.7746187 14.5879267,42.6566324 C14.3967337,43.2325907 14.2008772,44.1640598 14.8957003,44.0740175 C15.267206,44.0258918 15.6387117,43.6331221 15.9231691,43.3505771 C16.3957115,42.8724226 16.8713629,42.3973731 17.3283606,41.895932 C17.2817284,42.4703387 17.3003812,43.0478496 17.3268062,43.623808 C17.2910552,44.7089691 17.2553034,45.791026 17.2164427,46.8699779 C17.1713649,48.2252658 16.7407922,50.018344 18.1382114,50 C18.6091994,49.9935049 19.8185345,50.0307631 20.4744976,49.5712386 C20.4869333,49.5619236 20.4978145,49.5526095 20.5071405,49.5432945 C20.5584361,49.5091404 20.6019602,49.4672247 20.643929,49.4268607 C20.6594736,49.4082316 20.673463,49.3927066 20.6874531,49.3802875 C20.7216496,49.3383709 20.752738,49.2949027 20.7807175,49.2452245 C20.7900443,49.2265946 20.8024792,49.2079655 20.8118059,49.1908889 C20.8444488,49.1241332 20.8724283,49.0527209 20.8879721,48.9735461 C21.0309785,48.2796014 20.8568845,47.7812653 20.7294219,47.0935306 C20.4838244,45.8065509 20.469835,44.5863261 20.4092127,43.2698498 C20.3921136,42.9500449 20.3563626,42.6317933 20.311284,42.3150933 C20.5537735,42.8506885 20.8351221,43.3443671 21.2144001,43.7697376 C21.3558511,43.9389546 21.5454905,43.7697376 21.6107755,43.5818914 C21.8112953,43.0028281 21.7864247,42.1908979 21.8283935,41.4954007 C21.8346114,41.5047156 21.8423837,41.5171348 21.850156,41.5295547 C22.3973101,42.5122545 23.0765894,43.2124091 23.8304812,43.9001439 C23.9859224,44.0383118 24.2128672,43.7293743 24.1848878,43.5322132 C24.1491359,43.276059 24.1273743,43.0680312 23.9921402,42.8584501 C23.8475794,42.6317933 23.7403248,42.3492474 23.642397,42.0620441 C24.2594994,42.6317933 25.1284181,43.623808 25.9149519,43.4701151 C26.0750566,43.4437235 26.1994102,43.2558773 26.1900834,43.0447446 C26.1387879,42.0061559 25.499923,40.9039173 25.2341182,39.9212176 C25.2279004,39.8824061 25.213911,39.8435954 25.2045843,39.8094413 C25.911843,40.2348126 26.6455276,40.5887707 27.4118543,40.8821832 C28.2698917,41.2066448 29.1294836,41.3479178 30.0155005,41.428645 C30.6061779,41.4860857 31.2403794,41.434855 31.8450469,41.5388689 C32.165257,41.4985057 32.4885752,41.4519316 32.8103389,41.3975959 C32.1574847,40.9256523 31.4844225,40.497176 30.8082522,40.0764622 C31.285458,40.0687006 31.7611085,40.0314415 32.2320964,39.9740008 C32.7652612,39.9087977 33.2999804,39.7271615 33.8207095,39.5672595 C33.9963579,39.5144763 34.3429931,39.3111052 34.5606111,39.39649 C34.6523219,39.3297343 34.7440319,39.255217 34.8264159,39.1760422 C34.8310793,39.129469 34.813981,39.086 34.7673488,39.0580559 C34.7160524,39.0239027 34.6647568,39.0021677 34.6119067,38.9881961 C33.8611239,38.6823636 33.1056785,38.2942514 32.3626679,37.8937201 C32.8662979,37.8937201 33.3341769,37.8207544 33.79273,37.718293 C33.8144917,37.687244 33.8409167,37.6592999 33.875114,37.6499849" id="6"></path>
            </g>
        </g>
    </g>
</svg>