<?xml version="1.0" encoding="UTF-8"?>
<svg width="48px" height="38px" viewBox="0 0 48 38" version="1.1" xmlns="http://www.w3.org/2000/svg" xmlns:xlink="http://www.w3.org/1999/xlink">
    <title>植物-21</title>
    <g id="V1.4" stroke="none" stroke-width="1" fill="none" fill-rule="evenodd">
        <g id="形状汇集备份" transform="translate(-897.000000, -390.000000)" fill="#3D4242" fill-rule="nonzero">
            <g id="roses-group-svgrepo-com" transform="translate(897.000000, 390.000000)">
                <path d="M0.263687994,16.7439857 C0.26436644,16.7446669 0.265044887,16.7446669 0.265820255,16.7455429 C0.318351408,16.783694 0.373111744,16.817271 0.429325894,16.8458843 C0.754689515,17.0114332 1.08150695,17.1763008 1.40987512,17.3360101 C1.41132894,17.3366914 1.4121043,17.3366914 1.41278275,17.3375673 C1.43749759,17.3471051 1.46230936,17.3573242 1.48731496,17.366862 C2.06942217,17.595477 2.65026941,17.8334353 3.21056941,18.1105179 C3.21716004,18.1133403 3.22365374,18.1163574 3.23024437,18.1193744 C3.85480295,18.4079413 4.48944132,18.6812283 4.97307685,19.2057096 C5.02124656,19.2577782 5.0686409,19.3090682 5.11681061,19.3611367 C5.11748906,19.361818 5.11816751,19.3632779 5.11971824,19.3639591 C5.86891717,20.0357896 6.49570494,20.8314168 7.19169427,21.5727369 C7.90377247,22.3303102 8.80261734,22.5280734 9.76417006,22.306855 C10.5813106,22.1193109 11.369181,21.8020332 12.1703295,21.5426637 C12.1681003,21.5162887 12.1659681,21.4906924 12.1637389,21.4642202 C11.5734903,21.2218824 10.9672498,21.0107857 10.3967731,20.7272796 C8.92464081,19.995692 7.56387071,19.0754895 6.37998133,17.9283266 C5.84788532,17.4127018 5.35329773,16.8580499 4.90203379,16.2697238 C4.44543921,15.6743903 4.07335969,15.0308812 3.65543656,14.4100487 C3.54174829,14.2408015 3.42205092,14.0349604 3.15861978,14.1228443 C2.39623961,14.3755958 1.63967469,14.6422648 0.974312383,15.109714 C0.606594307,15.3676237 0.240426966,15.6173582 0.030980798,16.0408167 C0.0303023514,16.041498 0.0303023514,16.0423739 0.0303023514,16.0430552 C-0.0105982886,16.180088 -0.0128274704,16.325004 0.0404790509,16.4569759 C0.0870011058,16.5703589 0.169480832,16.6641796 0.263687994,16.7439857 Z" id="路径"></path>
                <path d="M4.16087931,9.81945031 C4.20245839,9.83988844 4.24917429,9.85828276 4.29511482,9.86266236 C4.69491373,9.90295467 5.0968449,9.92718845 5.49519,9.98061956 C5.85554208,10.0296711 6.21308346,10.1029564 6.56917102,10.1783828 C6.81787017,10.2319112 7.06162635,10.3081162 7.34027408,10.3827641 C7.32932201,10.2824226 7.33222964,10.2355122 7.31836994,10.1952199 C6.94764732,9.1172546 6.49938794,8.05797559 6.25437178,6.94088586 C6.18943474,6.64501962 6.14126503,6.32394634 6.2669715,6.04851823 C6.42679415,5.69863693 6.83609131,5.51926802 7.2196075,5.51955999 C7.59139625,5.51994929 7.91346456,5.77717774 8.27585199,5.76715332 C8.64075936,5.75703158 8.97542739,5.46311182 9.15511883,5.16490979 C9.39674275,4.76383585 9.48300239,4.28821139 9.68362876,3.8650448 C9.94240769,3.31944409 10.4064652,2.88450124 10.9497071,2.63106845 C11.6406565,2.30872996 12.0784485,2.45812295 12.7830637,2.51447379 C13.0592884,2.53656643 13.3500513,2.48916944 13.5758771,2.32780554 C14.5367514,1.64108442 13.3019785,1.14200478 12.7578643,0.935579676 C11.8431244,0.58842346 10.801418,0.623557577 9.88154133,0.932075997 C8.64909456,1.34541282 7.6087451,2.2005052 6.72153075,3.1537006 C5.83431639,4.10689599 5.0728085,5.17113856 4.20313684,6.14068446 C3.87787014,6.50341258 3.53292849,6.85903602 3.31030107,7.2929083 C2.84391747,8.20201573 3.24972548,9.36319342 4.16087931,9.81945031 Z" id="路径"></path>
                <path d="M12.103551,3.41735246 C11.4484623,3.42251065 10.8435787,3.64820599 10.4656839,4.17774817 C10.0359364,4.78067297 9.87911831,4.95206128 10.4861342,5.5052533 C10.7013956,5.70009679 10.9471872,5.86136336 11.1784405,6.03790987 C11.1725284,6.05328712 11.1660347,6.06856706 11.159444,6.08404164 C10.7041094,5.9822403 10.2489686,5.88034163 9.77260219,5.77484195 C9.66686143,5.90369949 9.53698736,6.06340886 9.38162308,6.25319149 C10.2993675,6.49202562 11.1186403,6.85679756 12.0948281,7.00414674 C11.9897658,6.74701561 11.9292871,6.57261024 11.849715,6.40715873 C11.6134217,5.91187474 11.5375326,5.41814794 11.9168812,4.96539473 C12.087559,4.76169471 12.2932253,4.56772713 12.521571,4.43867495 C12.9906684,4.17424449 13.4860314,3.95594581 14.0039769,3.70241569 C13.907056,3.65326686 13.8216686,3.60285281 13.7318229,3.5653829 C13.2052514,3.3477655 12.6500882,3.41375145 12.103551,3.41735246 Z" id="路径"></path>
                <path d="M17.1280298,4.05181037 C17.1266729,4.0511291 17.1258976,4.05025259 17.1244438,4.05025259 C16.8550035,4.05005853 16.5873079,4.09852609 16.3129247,4.1021271 C15.9898871,4.10640937 15.6669465,4.08256489 15.3441029,4.09803947 C14.4435134,4.14125151 13.3618756,4.47770204 12.6586172,5.06476296 C12.4670045,5.22476431 12.3084419,5.43654226 12.2583337,5.68170248 C12.1932029,6.00053729 12.3253061,6.34068615 12.5555903,6.56988516 C13.0397104,7.0518357 13.8301007,7.06078955 14.4596023,6.95947483 C14.6504396,6.92881763 14.852326,6.87246679 14.9741556,6.72180858 C15.1116864,6.55168549 15.1045143,6.28754701 14.9753187,6.11090318 C14.846123,5.93435668 14.6139005,5.84802992 14.3971852,5.87372356 C14.0429391,5.91557307 13.8674153,6.18603764 13.6821025,6.45436107 C13.6318974,6.334944 13.6486647,6.19489416 13.7037158,6.07781288 C13.7587669,5.96063427 13.8486126,5.8635045 13.9449521,5.77727506 C14.1990788,5.54973056 14.5087412,5.38525229 14.8392417,5.3020399 C15.0671997,5.24471582 15.3221018,5.22943589 15.5245697,5.3490476 C15.6765417,5.43878072 15.7831548,5.60189645 15.8048651,5.77746971 C15.8320029,5.99703361 15.6952475,6.2297363 15.6020095,6.41718314 C15.6013311,6.41874033 15.6013311,6.41932428 15.6013311,6.42010287 C15.5984234,6.52346141 15.674991,6.54166108 15.7721058,6.52492128 C15.7727842,6.52492128 15.774238,6.52424001 15.7764672,6.52336409 C15.7771457,6.52404536 15.778018,6.52268282 15.7785995,6.52268282 C16.1720985,6.37260856 16.5482487,6.18087944 16.9308926,6.00608478 C17.1850194,5.88997674 17.8180101,5.75274931 17.5546759,5.33960713 C17.5048585,5.26145562 17.4358508,5.19790277 17.376729,5.1266613 C17.2547055,4.97960409 17.1777503,4.79682883 17.1514847,4.60763015 C17.1428587,4.5448559 17.163406,4.43273816 17.1746488,4.32431875 C17.1867639,4.20597226 17.1880239,4.09190803 17.1280298,4.05181037 Z" id="路径"></path>
                <path d="M9.8207719,11.2378565 C9.77114837,11.4802916 9.74265361,11.6942107 10.0170368,11.8796137 C10.4679131,12.1851151 10.8852547,12.5432689 11.3002702,12.899379 C11.5841516,13.1426901 11.6359074,13.1257556 11.8882896,12.8503275 C12.2845024,12.4188883 12.7039763,12.0049676 13.1423497,11.6166431 C13.6712473,11.1491939 14.2489931,10.7368303 14.7699432,10.2614005 C15.189417,9.87969413 15.5622719,9.44445931 15.9452066,9.02411513 C16.5645314,8.34206558 17.0817985,7.58906652 17.4546534,6.74292798 C17.5381993,6.55334001 17.5333532,6.33893431 17.5518651,6.13591556 C17.5367455,6.30117243 16.6629062,6.66720958 16.5120003,6.7405922 C16.1303256,6.92599522 15.7343066,7.08161698 15.329274,7.20755478 C14.517561,7.45962503 13.6694058,7.5914023 12.8199906,7.60288658 C11.0449804,7.62702304 9.62741461,7.06740761 8.10769414,6.24900654 C7.78010134,6.07246004 7.27087868,6.22341022 7.14614142,6.54049319 C7.01995035,6.86283167 6.98060044,7.20278588 7.09070264,7.53982036 C7.23734403,7.98809665 7.39639131,8.4314094 7.54884796,8.87676595 C7.74666361,9.45701416 7.9413778,10.0387222 8.14122879,10.6181919 C8.15877148,10.6688006 8.18862314,10.729531 8.23175296,10.7552246 C8.59510959,10.9706036 8.96273075,11.1793645 9.36408039,11.410218 C9.66385688,10.0944891 9.09851699,9.0666459 8.4382915,8.05272007 C8.8089172,8.28785587 9.15250196,8.53476793 9.47486103,8.80727632 C9.91778977,9.18236464 10.1154116,9.67687003 10.0410732,10.2534199 C9.99813723,10.5851015 9.88725967,10.9081213 9.8207719,11.2378565 Z M8.15518541,6.99538754 C8.34117671,7.0693541 8.54412917,7.11694574 8.70967015,7.22312669 C9.58874315,7.78575917 10.5044523,8.24289199 11.523576,8.51102077 C12.4399636,8.75277464 13.3533466,8.77476996 14.2769063,8.67656962 C14.6627486,8.63549871 15.0415157,8.5270793 15.4777569,8.43773548 C15.2676322,8.95199773 14.8635688,9.19307033 14.4739466,9.34402051 C13.941366,9.55132153 13.3511174,9.7337075 12.7915928,9.7161891 C11.8424459,9.68689445 10.9377858,9.43628406 10.1965344,8.73077932 C9.55830997,8.12279365 8.84031959,7.59821501 8.15518541,6.99538754 Z" id="形状"></path>
                <path d="M12.5499689,13.5004546 C12.555881,13.4959777 12.5615025,13.4913061 12.5672208,13.4864399 C12.6943811,13.380259 12.7867467,13.2154887 12.8916152,13.0882857 C13.2889911,12.6055566 13.7375412,12.1292508 14.2487023,11.7668147 C14.6991909,11.4474933 15.26298,11.2668591 15.759603,11.0140103 C16.8278657,10.4702587 17.8659859,9.77935265 18.5262114,8.7510228 C19.0002518,8.01252508 19.2473033,7.15013337 19.4116812,6.28725504 C19.4968747,5.84053594 19.5600672,5.37036165 19.4200164,4.93775459 C19.2880101,4.53074385 18.3520445,3.67740332 17.9391613,4.19692108 C17.6740825,4.53045188 18.1199188,5.20257434 18.1470567,5.56209076 C18.2004601,6.2723644 18.0279408,6.99597148 17.7110093,7.62945615 C17.2093465,8.63180038 16.3849369,9.43132052 15.5310634,10.1545383 C14.8881867,10.6989711 14.2176876,11.2124548 13.6092179,11.7968879 C13.083131,12.302099 12.3931508,12.8664833 12.299719,13.6420617 C12.3052435,13.6006015 12.5132358,13.5289707 12.5499689,13.5004546 Z" id="路径"></path>
                <path d="M13.0118941,14.1937938 C13.9780021,14.7029952 14.9715387,15.1555538 15.9690491,15.6037327 C16.2983865,15.7517632 16.6634877,15.8657301 17.0231614,15.8943435 C17.3683938,15.9218863 17.7087802,15.8709856 18.008169,15.6963856 C18.4246383,15.4534638 18.6867125,15.0121949 18.8703777,14.5650865 C19.1625944,13.8540343 19.2956668,13.0795265 19.2698859,12.3113448 C19.2514709,11.7625324 19.1878907,10.5656367 18.7128812,10.1879206 C18.5028535,10.0210092 18.4367534,10.1858768 18.2176151,10.3487005 C17.3986331,10.9569782 16.4298113,11.3113364 15.5123576,11.7364495 C15.1289384,11.9141639 12.1477469,13.7409433 13.0118941,14.1937938 Z" id="路径"></path>
                <path d="M5.07426232,11.817618 C5.80998923,11.9845294 6.53941629,12.1921224 7.23618098,12.4849716 C7.58713173,12.6325154 7.92916576,12.801568 8.25617704,12.9970927 C8.57640385,13.1884325 8.81415093,13.4385563 9.09270174,13.6839112 C9.14532981,13.7302376 9.25271822,13.7779266 9.17130463,13.8369052 C9.12836865,13.868049 8.62040596,13.5941781 8.54878138,13.5644941 C8.33080617,13.4738851 8.1111833,13.3875583 7.8900097,13.3054165 C7.44756557,13.1411329 6.9989185,12.9939783 6.54523154,12.8642449 C5.67100459,12.6142184 4.78892705,12.4564555 3.89318365,12.3198121 C3.73181027,12.2952863 3.39491306,12.3042402 3.26077446,12.1966967 C3.26804353,12.2406873 3.26959427,12.2662836 3.27686334,12.2853592 C3.27822023,12.2882789 3.27977097,12.2911987 3.28122478,12.2942157 C3.68577282,13.1054148 4.26603853,13.8375864 4.82304322,14.5443564 C5.36812663,15.2359437 5.95110613,15.8975552 6.56810489,16.525395 C7.19760644,17.1660817 7.86248415,17.7715369 8.55886116,18.3381597 C8.91058728,18.6243908 9.27045476,18.9006949 9.63768823,19.1667799 C9.98805745,19.4204073 10.3473434,19.6189491 10.7110877,19.8436712 C11.4683311,20.3111204 12.2919653,20.6348214 13.1500065,20.8648964 C15.0290129,21.3705941 17.8298344,20.610393 18.8014669,18.7793313 C19.0167283,18.3735858 19.2372235,17.191386 18.7393406,16.8449111 C18.6793465,16.8031589 18.6089819,16.7735723 18.5268899,16.7589736 C14.7371839,16.0826662 11.7261408,14.05316 8.58871281,11.9210739 C8.21304721,11.7013154 7.82933718,11.4957662 7.43535353,11.3090006 C6.6000888,10.9128902 5.71297136,10.6135203 4.7960992,10.4851494 C3.92516756,10.3632992 3.03649939,10.3595035 2.19532248,10.6519634 C1.89215376,10.7573658 1.69957184,10.8583885 1.49797626,11.1018942 C2.05120103,11.2966404 2.69039469,11.3551324 3.26707433,11.4611187 C3.87079491,11.5720685 4.47519394,11.6817531 5.07426232,11.817618 Z" id="路径"></path>
                <path d="M26.9991376,12.1227301 C26.5853821,11.5212652 26.0192668,11.0816508 25.457513,10.6341531 C24.9272585,10.2116677 23.7738992,9.3623175 23.0870205,9.79210215 C22.7560354,9.99930585 22.5526953,10.3560972 22.363021,10.6983872 C22.0977484,11.1767367 19.4748737,16.2655388 19.1825601,16.1214013 C20.1142612,16.5843736 20.180652,17.3888573 19.8916337,18.3117848 C19.9631614,18.302247 19.9916562,18.3038042 20.0149172,18.2941691 C21.0733909,17.8677908 21.8636843,17.0664215 22.7143594,16.3476806 C23.1674649,15.964417 23.6255133,15.5850464 24.1048843,15.2370143 C25.0766137,14.5329694 26.15641,14.0428436 27.3004648,13.689848 C27.709762,13.5638128 27.8037753,13.3235188 27.5783372,12.95427 C27.403201,12.6663843 27.1909442,12.4011753 26.9991376,12.1227301 Z" id="路径"></path>
                <path d="M15.1026728,3.0007066 C15.6194553,3.01841965 16.3286259,2.96712968 16.4229299,2.94425844 C17.0676481,2.78727414 17.605947,2.40868214 18.2722785,2.30220922 C19.0486153,2.17831523 19.8440456,2.25763464 20.5293736,2.66629989 C21.1362926,3.02824942 21.7316779,3.41131834 22.3291956,3.78864513 C22.3876389,3.82533644 22.4269888,3.88976521 22.5349588,4.00480267 C22.2613509,3.95497257 22.0636322,3.9447535 21.8842315,3.88100601 C21.335562,3.68548124 20.8052106,3.42757152 20.2446198,3.27720529 C19.8991936,3.18484441 19.5271141,3.25569659 19.1756787,3.26143873 C19.210861,3.44080764 19.3167956,3.51039461 19.4425021,3.64119863 C19.588465,3.79302473 19.7186299,3.96013076 19.8306705,4.13862375 C20.0549455,4.49551241 20.2074022,4.89843552 20.2704977,5.31585997 C20.3376639,5.76014596 20.3030632,6.21854399 20.1762906,6.64930189 C20.0431212,7.10117918 19.7849238,7.49952805 19.6075584,7.93359497 C19.471966,8.26547125 19.3327876,8.59656894 19.2270468,8.93798302 C19.0358218,9.55112688 19.2478848,10.1101584 19.5024961,10.656635 C19.549212,10.7561979 19.6083338,10.8507972 19.6652264,10.9541558 C19.826309,10.489529 19.9436803,10.0469948 20.1833658,9.6105921 C20.4226636,9.17477334 20.7062543,8.76591344 20.976373,8.34936491 C21.4213371,7.66303308 21.8402294,6.92453536 21.9225153,6.10983261 C21.9549838,5.78905132 22.018467,5.42223557 22.4146799,5.40053222 C22.5230375,5.74924563 22.6228661,6.09601255 22.6228661,6.46496943 C22.6250952,6.47898415 22.6257737,6.49358281 22.6272275,6.50750021 C22.7179455,7.37174108 21.958376,8.0552505 21.5175796,8.70742146 C21.0226043,9.43998239 20.5991567,10.2248065 20.298411,11.0582929 C20.2563473,11.1748875 20.2167066,11.2923581 20.1795859,11.41051 C20.0256754,11.9014144 19.9161547,12.4051656 19.8294105,12.9120312 C19.7851176,13.1709141 19.7468338,13.430673 19.7113608,13.6908212 C19.6816061,13.9089252 19.5778037,14.2399256 19.6241319,14.4502437 C19.6950781,14.436229 19.7505168,14.2961791 19.7796901,14.2295119 C19.9693643,13.7965155 20.1298654,13.3481419 20.3488099,12.9306201 C20.8426221,11.9860866 21.3439941,11.0453487 21.8451724,10.1050975 C22.3385,9.17973688 22.9819582,8.36279568 23.5567963,7.4897956 C24.1475295,6.59265908 24.6513246,5.58476735 24.6669288,4.50933248 C24.68263,3.43380029 24.0912184,2.29082226 23.0734515,1.9554423 C21.6796314,1.4959737 20.1461482,1.17305127 18.6830295,1.070374 C17.1747457,0.964582354 14.94789,0.993195735 14.5557479,2.8660096 C14.5373329,2.95262834 14.7832213,2.98990359 15.1026728,3.0007066 Z" id="路径"></path>
                <path d="M24.2806989,2.91253068 C24.2778882,2.90377148 24.2745928,2.89559623 24.2715883,2.88693435 C24.107695,2.53228416 23.8680095,2.22473898 23.5124065,2.04186639 C23.3803033,1.97393394 23.242094,1.92449314 23.1003956,1.87281387 C23.0660855,1.86609848 23.0314848,1.8597724 22.9959148,1.8546142 C22.9841873,1.85305701 22.9724599,1.8510132 22.9609263,1.84955333 C23.151376,1.9008433 23.3374642,1.96595334 23.5125034,2.05617308 C23.8744063,2.24225738 24.1165148,2.5499972 24.2806989,2.91253068 Z" id="路径"></path>
                <path d="M47.9898888,13.0882857 C47.9898888,13.0877018 47.9899857,13.0870205 47.9895011,13.0862419 C47.8568164,12.6877957 47.5798163,12.4128542 47.3009747,12.1390806 C46.7961135,11.6434073 46.1929744,11.3202902 45.5808217,11.0198497 C45.3691464,10.9160046 45.2529382,11.0585849 45.1447744,11.1721625 C44.7475923,11.5891003 44.3874341,12.0173278 43.9607881,12.3857007 C43.539085,12.749694 43.0785167,13.0900375 42.6001149,13.351159 C41.4778672,13.9633296 40.2730429,14.3626517 39.0146214,14.6561822 C38.5194522,14.7717062 37.9817348,14.8280571 37.4622385,14.9212939 C37.4585555,14.9389096 37.4549695,14.9558441 37.4510926,14.9734598 C38.1149042,15.244411 38.7755174,15.5655816 39.436809,15.8379926 C40.1371598,16.1266569 40.9769798,16.2032512 41.6499019,15.8099632 C42.282408,15.4401304 42.8677136,14.9828029 43.5409265,14.6426541 C43.5422834,14.6424594 43.5429619,14.6414862 43.5435434,14.6410969 C43.5874486,14.6126781 43.6307723,14.5845514 43.6747744,14.5560353 C44.1163462,14.2676631 44.6663726,14.1873704 45.2001162,14.1015303 C45.2057377,14.100557 45.2115529,14.0998758 45.2170774,14.0989998 C45.6917962,14.0161767 46.1980143,13.937344 46.6905666,13.8801172 C46.7115984,13.8776841 46.7328241,13.8747644 46.7536621,13.8724286 C46.7544375,13.871942 46.755019,13.8722339 46.7560851,13.8718446 C47.0373497,13.8130607 47.3173544,13.7481453 47.5959052,13.6795316 C47.6439779,13.667658 47.6911785,13.6512102 47.7372159,13.6305774 C47.7378943,13.6300908 47.7384759,13.6302854 47.7390574,13.6297988 C47.8224094,13.5828884 47.8980078,13.5212821 47.9452083,13.4353446 C48.0001624,13.3357817 48.0111145,13.211985 47.9898888,13.0882857 Z" id="路径"></path>
                <path d="M37.5961833,1.893252 C37.7779101,2.02094164 38.0235077,2.07622191 38.2614487,2.08138011 C38.8687553,2.09442158 39.2549853,2.01695134 39.8250743,2.26619918 C40.2734306,2.46221057 40.6409549,2.77374605 40.8238447,3.15759357 C40.9658339,3.45540631 41.0056684,3.78640667 41.1837122,4.07283245 C41.3162031,4.28577828 41.5814757,4.50320104 41.8929797,4.52179001 C42.2020606,4.54028165 42.4966033,4.3667522 42.8144071,4.37298096 C43.1422907,4.3795017 43.4785095,4.51205757 43.5885147,4.76772882 C43.6750651,4.96899573 43.6109035,5.20471548 43.5321067,5.41435229 C43.2343656,6.20550252 42.7889169,6.95616579 42.3844658,7.69534479 C42.3696369,7.72259562 42.3687646,7.75656185 42.3519973,7.82702473 C42.5941058,7.79490767 42.8068473,7.75782707 43.0215272,7.73719429 C43.3286697,7.70780231 43.6375567,7.67879963 43.9457653,7.66643943 C44.2865394,7.65281401 44.6286703,7.65923743 44.9679906,7.65339796 C45.0070497,7.65271669 45.048338,7.64181635 45.0845865,7.62858023 C45.8344639,7.35324944 46.3287607,6.48492094 46.0026217,5.72617974 C45.8594695,5.39352486 45.5796587,5.11731815 45.3378409,4.84510174 C44.7031056,4.1304485 44.0808731,3.35798456 43.4166739,2.6810932 C42.7244645,1.97568578 41.8302718,1.41772487 40.8633884,1.13626264 C40.0651475,0.903949239 39.2064279,0.852659268 38.3935519,1.01908403 C37.9154409,1.11689508 36.8222695,1.34940312 37.5961833,1.893252 Z" id="路径"></path>
                <path d="M38.8317315,3.79516587 C39.1248205,4.12655553 39.0251857,4.45745856 38.7879233,4.77483351 C38.7084481,4.88111178 38.6441895,4.99468938 38.5361226,5.16043287 C39.3382404,5.11975126 40.1229124,4.95585693 40.911752,4.81590441 C40.7924423,4.67760641 40.6926137,4.56149837 40.6112001,4.46787228 C40.1957,4.51789703 39.7986149,4.56188767 39.4015298,4.60217998 C39.3970714,4.59137697 39.3925161,4.58047663 39.3885424,4.56967362 C39.5990547,4.4643686 39.8214882,4.36908799 40.0193039,4.24733514 C40.5783439,3.90309865 40.4568051,3.7725866 40.1309568,3.34173138 C39.8446524,2.96294473 39.3413419,2.7819213 38.7804603,2.73666544 C38.3126229,2.69880624 37.8411025,2.61179821 37.3761727,2.71233434 C37.2969883,2.72946344 37.2204208,2.75593568 37.1340642,2.78007214 C37.5590626,2.99817617 37.9678751,3.18464976 38.3508098,3.3972063 C38.5370918,3.50085681 38.6997252,3.64606485 38.8317315,3.79516587 Z" id="路径"></path>
                <path d="M34.1615957,3.36547854 C34.1063507,3.40654945 34.0432552,3.44109962 33.9954732,3.48810731 C33.7427033,3.73696586 34.2700502,3.91185785 34.4777518,4.02134783 C34.7907095,4.18631272 35.0974643,4.35886892 35.4221495,4.5022278 C35.422731,4.50232512 35.4233126,4.50339569 35.4240879,4.50290907 C35.4259294,4.50359034 35.4270925,4.50427161 35.427674,4.50446626 C35.5090876,4.52626693 35.5743154,4.52013549 35.5804214,4.45171642 C35.5804214,4.4512298 35.5805183,4.45074318 35.5801307,4.44967261 C35.5136429,4.31322377 35.4136205,4.14105687 35.4520981,3.99545953 C35.4829189,3.87896219 35.5851705,3.7805672 35.7210537,3.73647924 C35.902102,3.67759796 36.1184296,3.71467857 36.3089762,3.77628493 C36.585104,3.86553142 36.8380676,4.00538662 37.0393724,4.18164115 C37.1156492,4.24830838 37.1857231,4.32169099 37.2245884,4.40529267 C37.2635506,4.48889435 37.267912,4.58466158 37.2167378,4.66067196 C37.0771716,4.46388198 36.9460376,4.26641072 36.6462611,4.20451239 C36.4629836,4.16655586 36.2586742,4.20168998 36.1358754,4.30767628 C36.0133673,4.4137599 35.9886524,4.59137697 36.0941994,4.71945591 C36.1875342,4.83303351 36.3560798,4.89074689 36.5168716,4.92928737 C37.0475138,5.05697701 37.7242159,5.11906999 38.1721845,4.83186562 C38.3852167,4.69531945 38.5220691,4.47507428 38.4888252,4.25512109 C38.4631412,4.08597124 38.3414085,3.92596989 38.1893395,3.80918058 C37.5582872,3.32479693 36.7558787,3.04576781 35.9623869,2.91155743 C35.688876,2.86523101 35.4115851,2.84440358 35.1372019,2.80206746 C34.9040101,2.7659601 34.6801227,2.69890357 34.4514862,2.66318551 C34.4503232,2.66299086 34.4495478,2.66338015 34.4481909,2.66367213 C34.3944967,2.68313701 34.3875184,2.76099655 34.3895537,2.84352766 C34.3914921,2.91905141 34.4008935,2.99817617 34.3890691,3.04002567 C34.3539837,3.1660608 34.2755747,3.28080629 34.1615957,3.36547854 Z" id="路径"></path>
                <path d="M40.5564398,8.37914618 C40.9147565,8.25515487 41.242737,8.14109064 41.5674222,8.01953244 C41.6058029,8.0050311 41.6357515,7.96473879 41.6542634,7.93067524 C41.8666172,7.54011233 42.0747064,7.14302869 42.2858972,6.74409588 C42.4481429,6.43771859 42.6166884,6.13046539 42.7749603,5.8164968 C42.8938823,5.58048508 42.8857409,5.33503288 42.8017105,5.10174624 C42.71894,4.87215793 42.2930693,4.75167029 42.001628,4.8648586 C40.68864,5.37513055 39.2868723,5.65960983 37.8734741,5.50681049 C37.1486023,5.42856165 36.431775,5.26340211 35.7570114,5.01123453 C35.4201142,4.88539405 35.0935875,4.73804487 34.7817928,4.56928433 C34.6586063,4.50251977 33.9415851,4.14884282 33.940519,4.03370803 C33.9417789,4.17521774 33.9224917,4.32159367 33.9799658,4.46135154 C34.2364186,5.08529842 34.623424,5.65493826 35.1038611,6.17698647 C35.4005361,6.49942228 35.6893606,6.82808685 36.0205394,7.12375845 C36.4322596,7.49115815 36.8979648,7.82040667 37.316954,8.18245352 C37.6645126,8.48279669 37.9941407,8.80017163 38.3017678,9.12932283 C38.4978389,9.33915429 38.5408718,9.35628339 38.8002322,9.21827735 C39.179387,9.0164265 39.5607709,8.81136394 39.9665789,8.64347931 C40.2133396,8.54128867 40.2041322,8.39101976 40.1796112,8.22031272 C40.1461734,7.98848595 40.0749365,7.75685382 40.0619491,7.52590297 C40.0394635,7.12463437 40.2436759,6.80180926 40.6485147,6.57338884 C40.9431544,6.40715873 41.2545614,6.25737644 41.5879694,6.11362827 C40.9553664,6.6979641 40.4345132,7.47441835 40.5564398,8.37914618 Z M40.0378158,6.47110087 C39.3609199,6.88940124 38.531955,7.00074038 37.7499968,6.9334892 C37.2755688,6.89261295 36.7783643,6.72161394 36.3379555,6.5333885 C36.0159842,6.39577177 35.6873252,6.19508881 35.544173,5.82710517 C35.9102434,5.9304637 36.2273687,6.03839649 36.5529262,6.10224131 C37.3283907,6.25435938 38.1329315,6.31343531 38.9188635,6.22321557 C39.77894,6.12443128 40.6243814,5.8722637 41.4165163,5.52082521 C41.5652899,5.45483925 41.7423645,5.43109209 41.9068394,5.38710145 C41.2775316,5.78107071 40.6245752,6.10847007 40.0378158,6.47110087 Z" id="形状"></path>
                <path d="M33.7508447,2.65140925 C33.4384685,2.23505537 32.5875025,2.67982798 32.4466764,2.94455041 C32.2970305,3.22581799 32.3161239,3.5661615 32.3553769,3.89103042 C32.4313629,4.51877295 32.5755813,5.16228203 32.9267259,5.71839379 C33.4404069,6.53212328 34.2826499,7.10030326 35.1225669,7.5411829 C35.5277933,7.75383676 35.9981507,7.92950735 36.3608289,8.18469198 C36.7724522,8.47423214 37.1226275,8.83481913 37.4283162,9.19667133 C37.5089544,9.29204927 37.5763145,9.41166098 37.6775,9.49516534 C37.6820552,9.49886366 37.6866105,9.50265932 37.6912627,9.50626032 C37.7207267,9.52893691 37.893246,9.59686936 37.8951844,9.62538541 C37.8697911,9.0929235 37.3197647,8.64922145 36.9055246,8.2620649 C36.4264444,7.81427523 35.8880485,7.39986784 35.3782443,6.98147014 C34.7207326,6.44180622 34.077856,5.80637506 33.6993797,5.03897199 C33.4718093,4.57745958 33.3811882,4.04490034 33.4773338,3.56246317 C33.5258912,3.31837352 33.9512772,2.91856479 33.7508447,2.65140925 Z" id="路径"></path>
                <path d="M32.2144538,9.72222322 C32.3389003,10.0444644 32.5309976,10.3648564 32.8697363,10.5562935 C33.1133956,10.6939103 33.4008631,10.7488986 33.6982166,10.7525969 C34.0080729,10.7562952 34.3286874,10.7038373 34.6208071,10.6285082 C35.4974571,10.402229 36.8628794,10.2734687 37.2481402,9.93001086 C37.5739884,9.63959478 35.8838809,8.3553017 35.282971,8.05145485 C34.563333,7.68746151 33.7401834,7.35081633 33.0740457,6.85514304 C32.8997818,6.72550691 32.8549074,6.59976376 32.6644578,6.69446042 C32.2336442,6.90867148 32.092818,7.74021134 32.0371854,8.12230703 C31.9596486,8.65729938 32.0164443,9.20961548 32.2144538,9.72222322 Z" id="路径"></path>
                <path d="M44.4976332,8.08736756 C43.7225564,8.11977659 42.9496118,8.26381674 42.2033205,8.47676258 C41.8562466,8.57574151 41.5145034,8.68532881 41.1793507,8.80386996 C38.3080676,9.9995005 35.419145,10.9527932 32.3500462,11.2627715 C32.2795847,11.2698762 32.2163922,11.286616 32.1621165,11.3129909 C31.7111433,11.5321655 31.812135,12.3738271 31.9693407,12.6543161 C32.7897766,14.1182701 35.1270252,14.5394902 36.6636099,14.4085888 C37.4081566,14.3452306 38.1355484,14.224451 38.8108935,14.0087801 C39.1352879,13.9051296 39.4537702,13.8202627 39.7682786,13.6969526 C40.0980037,13.5677058 40.4217197,13.430673 40.7391358,13.2849784 C41.3676681,12.9963141 41.9713887,12.6730024 42.5475837,12.3082305 C43.1123421,11.9507578 43.6508349,11.5533822 44.1602514,11.1122106 C44.6808138,10.6614039 45.2250249,10.1755604 45.62589,9.59044595 C45.6273438,9.58840213 45.6287976,9.586261 45.6301545,9.58402253 C45.6378112,9.57010514 45.6410096,9.55044561 45.6507017,9.51716066 C45.5301321,9.58684494 45.2488675,9.54577404 45.1122089,9.54772052 C44.3555471,9.55862086 43.5931669,9.58859678 42.8407696,9.6739503 C42.4488213,9.71842756 42.0577453,9.77614095 41.6710307,9.84426804 C41.4777703,9.87823426 41.2852853,9.91512022 41.0938665,9.95473126 C41.0309648,9.96777273 40.5800885,10.1029564 40.5458754,10.0766788 C40.4809384,10.026946 40.5756301,10.0056319 40.623606,9.97915969 C40.8779266,9.83910985 41.0978402,9.68991151 41.3833693,9.58898608 C41.6750045,9.48591952 41.977204,9.40134459 42.2852187,9.33127101 C42.8965961,9.19238906 43.528133,9.11141514 44.1603483,9.05574557 C44.6749986,9.01048971 45.1908118,8.98158436 45.7047836,8.94771546 C46.1955913,8.91550107 46.7331149,8.92338435 47.2089967,8.80854153 C47.0618707,8.59588767 46.9101895,8.50167763 46.6659487,8.39705387 C45.9881805,8.10712442 45.2389815,8.05632107 44.4976332,8.08736756 Z" id="路径"></path>
                <path d="M25.1683978,8.6709248 C26.0745118,9.01973553 26.9246054,9.44368072 27.7168372,9.99025468 C28.0904675,10.2481644 28.4643885,10.558824 28.8077794,10.850116 C29.4580221,11.4017508 30.1522668,11.9841401 30.9647551,12.2908094 C30.9838485,12.2980114 31.0084665,12.2971355 31.0689451,12.3051161 C30.8892537,11.6493441 31.0056558,11.0709451 31.8352991,10.7898721 C30.7438723,9.83901252 30.1562406,7.96950768 29.5394357,6.68793969 C29.4091739,6.41747511 29.2628233,6.12958947 29.0015244,5.9356219 C28.4596394,5.53338006 27.4319866,6.03956438 26.9566862,6.31849618 C26.4532788,6.61397312 25.9475453,6.91820927 25.5533678,7.38526917 C25.3708657,7.60152404 25.1720808,7.80999296 25.0020815,8.04279298 C24.7839124,8.34157895 24.848171,8.54761476 25.1683978,8.6709248 Z" id="路径"></path>
                <path d="M30.0209389,6.30730387 C30.3692728,7.02205443 30.7183821,7.75568593 31.0753419,8.47549736 C31.2304154,8.78810341 31.3341208,9.11579474 31.4639949,9.43209911 C31.4840576,9.48076132 31.5209844,9.58256267 31.580397,9.59657739 C31.6352542,9.451564 31.5709956,9.21263254 31.5616912,9.05720543 C31.5504484,8.87180241 31.5368795,8.68620473 31.5182706,8.50041241 C31.4816345,8.13671104 31.4255173,7.7723284 31.3311163,7.4104762 C31.3084368,7.32327352 31.2835281,7.23626548 31.2563902,7.14964675 C31.0632268,6.52949553 30.7634503,5.9232617 30.4023229,5.32880412 C30.0808361,4.79955391 29.4984381,4.17872142 29.640718,3.55282805 C29.6430441,3.54270631 29.6447887,3.53200063 29.6476964,3.52197621 C29.6760942,3.24829994 29.7860025,3.00849256 29.9030831,2.77082632 C30.2313543,2.85900224 30.2567476,3.13783672 30.2595583,3.37774142 C30.2664397,3.98708963 30.5612732,4.58933316 30.8847953,5.13980009 C31.0810603,5.47391484 31.2903126,5.79917306 31.4605058,6.13445569 C31.6311836,6.47032228 31.6982528,6.79402331 31.8008921,7.13602133 C31.8567186,7.06877015 31.9139989,7.00813704 31.9607148,6.94292967 C32.2167799,6.5851651 32.4362089,6.21903062 32.3193223,5.76900249 C32.2542883,5.51868407 32.1607596,5.26992285 32.0703324,5.01970175 C31.951895,4.69239972 31.7633837,4.37609535 31.6844901,4.03691973 C31.6093763,3.71351068 31.6142224,3.38153707 31.7034866,3.07700895 C31.7872263,2.79087515 31.9450136,2.53062964 32.1596935,2.31680788 C32.266888,2.20984834 32.3886208,2.11437309 32.5223717,2.0323286 C32.6376107,1.96167107 32.7319148,1.93091655 32.7746569,1.81149948 C32.4791449,1.74843326 32.1717117,1.63261719 31.8756182,1.63495298 C31.3947934,1.63865131 30.9319958,1.72215566 30.4605723,1.75592724 C30.3062742,1.7669249 30.1409271,1.73490516 29.9099644,1.71563493 C30.008533,1.65266602 30.0462353,1.61324963 30.0975065,1.59826167 C30.6221396,1.44409979 31.1477419,1.28643422 31.6822609,1.14677367 C32.2858846,0.989010784 32.9590005,1.0835128 33.6053663,1.29509609 C34.1601418,1.47670347 34.589114,1.813154 35.1258622,2.0028393 C35.2043681,2.03057676 35.8037273,2.15359483 36.2455899,2.19787744 C36.5187131,2.2252256 36.7319392,2.22376574 36.7219563,2.16449516 C36.4892491,0.779276653 34.4557507,0.529736833 33.3481381,0.37255789 C32.1174359,0.197957876 30.869288,0.0656939854 29.6234661,0.0686604477 C28.7606758,0.0707548554 28.1644182,0.835335521 28.1100455,1.64069512 C28.0512145,2.50960757 28.358357,3.37978523 28.7902367,4.13755319 C29.2016662,4.85999238 29.6599084,5.56647036 30.0209389,6.30730387 Z" id="路径"></path>
                <path d="M29.2536158,0.0619308056 C29.4047155,0.0192673617 29.5628905,0.0149666113 29.7239731,0.0299332227 C29.714281,0.0268366824 29.704492,0.0244282622 29.694703,0.0215037519 C29.665239,0.0123861611 29.6359689,0.00602105054 29.6071834,0 C29.4864199,0.00636511057 29.3686609,0.010837891 29.2546819,0.0428354739 C28.9479271,0.129022512 28.7271412,0.435752029 28.5642171,0.846215646 C28.5612125,0.856709477 28.5578203,0.866343158 28.5547188,0.877009019 C28.7184183,0.455707511 28.9413365,0.149666113 29.2536158,0.0619308056 Z" id="路径"></path>
                <path d="M14.5319053,29.4179613 C14.5327776,29.4187399 14.5337468,29.4186426 14.5346191,29.4193238 C14.5999438,29.4533874 14.6686608,29.4823901 14.7400915,29.5058453 C15.1533624,29.6417102 15.5428877,29.7912005 15.9156457,29.9474062 C15.9172934,29.9480874 15.9181656,29.9480874 15.9188441,29.9487687 C15.9478235,29.9576252 15.9767059,29.9672603 16.0052976,29.9763115 C16.6767659,30.1885761 17.2941523,30.4795761 17.8252791,30.8004547 C17.8313852,30.8041531 17.8381696,30.8076567 17.8445664,30.8113551 C18.4474147,31.162015 19.0228344,31.5427481 19.3454842,32.2834843 C19.3774681,32.3569642 19.4093551,32.4301522 19.4417267,32.5048 C19.4422113,32.5058706 19.4425021,32.5079144 19.443762,32.508985 C20.0651222,33.6614035 20.5136724,34.9102705 21.0472222,36.1002562 C21.5338623,37.1856181 22.6249983,38.2254323 23.8534713,37.9573035 C24.7052126,37.7714138 25.565483,37.4462529 26.4250748,37.1747178 C26.4195503,37.1293646 26.4144135,37.0854713 26.4090829,37.0405074 C25.7631048,36.5068776 25.0925087,35.9693548 24.5321118,35.3689605 C23.2626412,34.0085597 22.0967792,32.4809555 21.3013489,30.7374858 C20.981219,30.0356794 20.7224401,29.3297854 20.5051433,28.6163 C20.2851328,27.8943475 20.1515757,27.1667501 19.8685666,26.5296644 C19.7915144,26.3559403 19.717273,26.144941 19.3471319,26.2290293 C18.178556,26.4946276 17.0585375,26.883244 16.0222587,27.4288448 C15.4168905,27.7475822 14.7767276,28.1436926 14.3621967,28.6664221 C14.3609368,28.6673954 14.360646,28.6683686 14.3605491,28.6690499 C14.2669235,28.8325549 14.2309658,28.9970332 14.2786509,29.1343579 C14.3196485,29.2531911 14.4177325,29.3438974 14.5319053,29.4179613 Z" id="路径"></path>
                <path d="M32.3603198,14.7626551 C31.4146622,14.1631366 30.2871808,13.6714536 29.1495227,14.0628925 C28.0198121,14.4516062 27.1241656,15.4094732 26.2358851,16.227485 C25.2612481,17.1250108 24.2510411,17.9417573 23.1276304,18.6039527 C22.6750095,18.8708163 22.1154849,19.1216213 21.7657941,19.4952498 C20.9880035,20.3264977 21.2680081,21.5905473 22.2570864,22.168557 C22.3051592,22.1965865 22.3607918,22.2244212 22.4197197,22.2390199 C22.9324316,22.3649577 23.4322529,22.4866132 23.8932089,22.6394126 C24.3102598,22.7778079 24.6976528,22.9421889 25.0652739,23.1112414 C25.3221145,23.2291986 25.5567601,23.3674966 25.8210635,23.515819 C25.8539197,23.4280324 25.8777622,23.3891026 25.8801853,23.3509514 C25.9501622,22.2806748 25.8798945,21.1258232 25.7055337,20.0934057 C25.6559102,19.7996806 25.6348784,19.4570986 25.8083668,19.2288728 C26.028862,18.9389434 26.5336263,18.9059504 26.9891548,19.0533969 C27.4305328,19.1965611 27.7846819,19.5843016 28.1954329,19.7174414 C28.6092853,19.8517491 29.0135426,19.6898986 29.235007,19.4441545 C29.5326512,19.1138354 29.602725,18.5976266 29.7742751,18.1485717 C29.9954487,17.5698807 30.3871063,17.122967 30.9007873,16.9250091 C31.5541314,16.6732308 32.043776,17.0025767 32.7779522,17.2875426 C33.0657105,17.3991737 33.3598656,17.4149402 33.5736732,17.2327489 C34.5542224,16.3973161 32.9720849,15.1502982 32.3603198,14.7626551 Z" id="路径"></path>
                <path d="M33.7794364,19.0507691 C33.2743813,18.5945122 32.7172797,18.5114945 32.173747,18.3469189 C31.5223413,18.1496423 30.9416879,18.2712005 30.5754237,18.7794286 C30.1584697,19.3578277 30.0072731,19.4776341 30.5146542,20.2783221 C30.6941518,20.5613415 30.8983643,20.818278 31.0767957,21.084363 C31.0683636,21.0979884 31.0590592,21.1112245 31.0499486,21.1244606 C30.6499559,20.8522442 30.2371696,20.5813903 29.7888133,20.3017773 C29.6668867,20.3952087 29.5148177,20.5084943 29.3265973,20.6363786 C30.1105908,21.2141937 30.8675434,21.8208169 31.6581276,22.3895808 C31.6436864,22.1013058 31.6356419,21.9050025 31.6056933,21.7087965 C31.516623,21.1229034 31.5263151,20.5752589 31.9366784,20.1904381 C32.1213128,20.0174926 32.3336666,19.8570047 32.5614308,19.7771986 C33.0291713,19.6134016 33.5182344,19.496223 34.0372461,19.3190926 C33.9462373,19.2234227 33.865696,19.128726 33.7794364,19.0507691 Z" id="路径"></path>
                <path d="M36.9660033,21.1074288 C37.0089393,20.9560894 37.0382094,20.803874 36.9900397,20.7325352 C36.9887797,20.7310753 36.9881982,20.7300047 36.9869382,20.7295181 C36.7276747,20.6512693 36.4604636,20.6372546 36.1978079,20.5598816 C35.8887269,20.468786 35.5846859,20.337106 35.2761866,20.2594411 C34.3986643,20.0383201 33.4056123,20.115401 32.6147373,20.5615362 C32.4137233,20.6750164 32.232675,20.8591542 32.1383709,21.1048984 C32.015669,21.4245118 32.0520143,21.8207195 32.1900297,22.1373159 C32.480308,22.8029176 33.1349121,23.1069591 33.7052918,23.2342595 C33.8781019,23.2727999 34.07049,23.2892478 34.2291496,23.1776166 C34.4083564,23.0514842 34.4956822,22.76973 34.4399526,22.5342049 C34.3842231,22.2985825 34.2033686,22.1226199 34.0048745,22.0751256 C33.6802862,21.9973634 33.4506805,22.2278276 33.2077966,22.4371724 C33.2007214,22.29576 33.2555786,22.1552236 33.3367015,22.0501132 C33.4177274,21.9450028 33.5229835,21.8716202 33.6310504,21.8108898 C33.9163857,21.6506938 34.2344802,21.5675787 34.553544,21.5817881 C34.7736514,21.5916178 35.0098478,21.6577985 35.1582338,21.8636396 C35.269499,22.0179961 35.3158272,22.241745 35.2775435,22.4463209 C35.2296645,22.7022842 35.0275843,22.9101691 34.8789076,23.0772752 C34.8777445,23.0785404 34.8774538,23.079319 34.8770661,23.0800976 C34.8375223,23.188517 34.8957718,23.2336755 34.9858114,23.2487608 C34.9863929,23.2490528 34.9879437,23.2487608 34.9900759,23.2486635 C34.9904636,23.249734 34.9916267,23.2483715 34.9922082,23.2486635 C35.3877426,23.2236511 35.7890922,23.1389788 36.1957725,23.0638444 C36.4659881,23.013917 37.1008203,23.0551825 37.0054501,22.4861266 C36.9873259,22.3784858 36.945553,22.2815507 36.9146352,22.1777055 C36.8509581,21.9632025 36.83642,21.7147332 36.8659809,21.466264 C36.8758668,21.3839275 36.9266534,21.2460188 36.9660033,21.1074288 Z" id="路径"></path>
                <path d="M27.8386669,25.0305763 C27.6720598,25.2038138 27.538115,25.3634259 27.6762274,25.6093647 C27.903507,26.013845 28.0572236,26.450929 28.2065788,26.8890835 C28.3086365,27.1885508 28.359617,27.1926384 28.7111492,27.0706909 C29.2624356,26.8795457 29.8219602,26.7270383 30.3804187,26.6049935 C31.0532439,26.4579363 31.7342105,26.3770597 32.4034497,26.2098564 C32.9416517,26.0755487 33.4955549,25.8800239 34.0009976,25.6575403 C34.9245574,25.2509188 35.6572797,24.7416201 36.358212,24.0208354 C36.5143517,23.8602501 36.6010959,23.6164525 36.6999553,23.3975698 C36.619414,23.5756735 35.699828,23.6934361 35.5394239,23.7204923 C35.1341974,23.789106 34.7342046,23.8119772 34.3440978,23.7931936 C33.5656287,23.7556264 32.7982087,23.5564033 32.0857428,23.2380551 C30.4931378,22.5260296 29.2403376,21.2647051 27.9489629,20.1286371 C27.606735,19.8275154 26.9978776,19.7811889 26.8131463,20.039196 C26.6255074,20.3011933 26.5299433,20.6068893 26.5898404,20.9554081 C26.6698002,21.4192563 26.67988,21.8689925 26.6719325,22.3052978 C26.6616589,22.8734778 26.6133922,23.4227769 26.5472922,23.9619542 C26.5414769,24.0090592 26.5433184,24.0684271 26.5746239,24.1031719 C26.8390242,24.3954371 27.1083675,24.6760235 27.348053,25.0021576 C28.2156893,24.1712017 28.2669605,22.9979558 27.9047669,21.9167787 C28.2029927,22.2626697 28.4560533,22.6027213 28.6493137,22.9528945 C28.914974,23.4343585 28.8649628,23.9094963 28.5211842,24.3364585 C28.3235624,24.5826893 28.0648804,24.7953432 27.8386669,25.0305763 Z M27.8750122,20.8574997 C28.0623604,20.9986201 28.2692866,21.1222222 28.4150557,21.283878 C29.1115297,22.0567313 29.8088759,22.849828 30.6105091,23.5171816 C31.2617209,24.0592786 32.0218719,24.4696957 32.8225358,24.7421067 C33.1553624,24.855295 33.5158114,24.9082395 33.9160949,24.989992 C33.4904181,25.3566131 33.0374096,25.3951536 32.6471089,25.3663456 C32.1130745,25.3269292 31.5450208,25.2292155 31.100929,24.99807 C30.3392273,24.6014729 29.6965445,23.9629274 29.3453999,23.1717772 C28.972545,22.3318674 28.4219371,21.601253 27.8750122,20.8574997 Z" id="形状"></path>
                <path d="M28.8988851,27.841695 C28.9059603,27.8403324 28.9130356,27.8388725 28.9201108,27.8371207 C29.0780919,27.8002347 29.23869,27.7049541 29.3899836,27.6451969 C29.9634648,27.419015 30.5759083,27.2347799 31.1774966,27.1620785 C31.7077511,27.0979417 32.2575836,27.1818354 32.7921996,27.1812514 C34.0864819,27.1798889 35.2644591,26.89794 36.3166329,26.2767182 C37.1501531,25.7845486 37.8217183,24.8904292 38.3257073,24.011395 C38.6042581,23.5257461 38.8664292,22.9744032 38.8972501,22.4096296 C38.9262295,21.8780436 38.279379,20.5802224 37.733811,21.1576482 C37.3836356,21.528357 37.5846497,22.4943019 37.4689261,22.9199016 C37.2512416,23.7206869 36.7890256,24.4460458 36.1739653,24.9939823 C35.309915,25.7635266 34.1903812,26.1800751 33.0698781,26.4210504 C32.2656281,26.5939959 31.4417031,26.755749 30.653542,26.9291812 C29.9319655,27.0879173 29.1588271,27.2935638 28.6233389,27.8609652 C28.6496044,27.8293348 28.8543984,27.8504542 28.8988851,27.841695 Z" id="路径"></path>
                <path d="M35.2010728,29.479957 C35.4431814,29.0274957 35.9782819,28.0264167 35.7344288,27.5715224 C35.6265558,27.3704501 35.4709977,27.502714 35.2033989,27.5489431 C34.2305065,27.7166331 33.2063428,27.6553187 32.2050525,27.6412066 C31.5653742,27.6322528 28.6724778,27.9194572 28.9155555,28.5843776 C29.1745283,29.2929967 30.1122385,30.2096955 30.7788607,30.9640571 C31.0140879,31.2302394 31.3136705,31.4794872 31.635545,31.6457173 C31.944529,31.8052321 32.2777432,31.8879578 32.6150281,31.846303 C33.0841255,31.7882003 33.4833429,31.5052782 33.8331306,31.1955919 C34.389166,30.703033 34.8620433,30.113247 35.2010728,29.479957 Z" id="路径"></path>
                <path d="M32.8645995,33.0348288 C29.6268584,31.1231825 28.5155628,28.1424274 26.356261,25.1663439 C26.1039757,24.8729108 25.8182528,24.5702318 25.4977352,24.3211786 C24.6782686,23.6845796 23.8185798,23.2532377 22.8314399,22.9286608 C21.6599564,22.543548 20.3907766,22.5177571 19.1772294,22.6715296 C18.6982461,22.7322601 18.351366,22.842626 17.9618408,23.0917765 C18.7847965,23.2985909 19.6325641,23.4178133 20.452806,23.5942625 C21.2365088,23.7629257 21.9744649,23.9734384 22.633915,24.2049732 C23.3711927,24.4639535 24.097809,24.8040051 24.7295398,25.2662961 C25.0184611,25.477782 25.2737509,25.7140857 25.4884308,25.9689784 C25.6986523,26.2185182 25.7899519,26.4982286 25.914786,26.7899099 C25.9383378,26.8448982 26.0102532,26.9170156 25.9056755,26.9452397 C25.8504305,26.9601303 25.5267146,26.5809544 25.4750557,26.5356985 C25.3179469,26.3982764 25.1526966,26.2660125 24.9787235,26.1388095 C24.6309712,25.8842088 24.2423182,25.6325279 23.8278842,25.4382683 C22.9185719,25.01189 21.9581822,24.724491 20.9662932,24.4983091 C20.7720636,24.4539291 20.3215751,24.4326151 20.1795859,24.3154365 C20.1735768,24.3592325 20.1661139,24.3846341 20.1690215,24.4039044 C20.1699907,24.4069214 20.1707661,24.4099385 20.1717353,24.4128582 C20.419756,25.2114051 20.8261455,25.9760831 21.1973528,26.7369654 C21.5652647,27.4909377 21.8096024,28.2948375 22.1161633,29.0751847 C22.4493776,29.9231724 22.8393875,30.7461477 23.2630289,31.5389525 C23.4856563,31.9555983 23.7476337,32.384507 24.0371365,32.850399 C24.3134581,33.2948797 24.6260282,33.6784352 24.9539118,34.1063707 C25.6271247,34.9850156 26.4670416,35.7291581 27.3943812,36.3294552 C29.2935472,37.5588573 31.8128134,37.1742312 33.0123071,35.2704681 C33.2462742,34.8992728 33.5571966,33.7408202 33.0779225,33.2035894 C33.0198669,33.138966 32.946207,33.0829071 32.8645995,33.0348288 Z" id="路径"></path>
                <path d="M45.2667009,30.7355393 C44.7233621,30.0986483 43.9779431,29.6194229 43.2964919,29.1471074 C42.5211243,28.609682 41.4799026,27.855515 40.4972211,28.1528411 C40.0262822,28.2954214 39.6278402,28.6109472 39.2638051,28.8899763 C37.6800199,30.1034172 35.600581,32.0991518 33.6952121,32.6931228 C34.4709673,33.317167 34.6524033,34.2750339 34.2686933,35.1710999 C34.3528207,35.1883263 34.386743,35.2011732 34.4139778,35.199616 C35.6098854,35.1326568 36.7290316,34.613139 37.8372257,34.2063229 C38.4579074,33.9785838 39.1318957,33.747049 39.8575428,33.5401372 C41.652325,33.0283081 43.540345,32.7547291 45.3927951,32.4688873 C46.1501354,32.3520007 46.3812918,32.0731662 46.0659111,31.6575909 C45.8205072,31.3341819 45.5177262,31.0298484 45.2667009,30.7355393 Z" id="路径"></path>
                <path d="M34.6084012,18.3153858 C34.5928939,18.4349002 34.8363593,18.5620059 35.1557138,18.6705226 C35.6723994,18.8459986 36.3872883,18.9711578 36.4844031,18.9633718 C37.1487962,18.9095514 37.7623058,18.4812266 38.4521891,18.4596206 C39.2905553,18.4335377 40.152861,18.7417641 40.713161,19.4079498 C41.2209298,20.0115558 41.7183281,20.6326803 42.2336568,21.226262 C42.2813419,21.2810556 42.3001446,21.3724432 42.3713815,21.5347804 C42.1011659,21.4469938 41.8992795,21.4153633 41.7363554,21.3117128 C41.2383756,20.9943379 40.7827502,20.5677649 40.2589894,20.2752077 C39.9364365,20.0948655 39.5426467,20.1443064 39.1917929,20.1002184 C39.1823915,20.3681525 39.2677789,20.4825087 39.3539416,20.6852355 C39.4540609,20.9204686 39.5295624,21.1698138 39.5793797,21.425777 C39.6789175,21.9380928 39.6743622,22.4783407 39.5620309,23.0006808 C39.4425273,23.5565006 39.201388,24.0895465 38.8763152,24.5490151 C38.5352503,25.0310629 38.082048,25.4228911 37.7087085,25.7968115 C37.4234702,26.0827507 37.1297997,26.3547724 36.8583241,26.6330229 C36.3702302,27.1331732 36.2710801,27.6611581 36.2448145,28.1896298 C36.2398715,28.2860783 36.2509205,28.3818455 36.2558635,28.4840361 C36.6465518,28.1415515 36.9843213,27.7953685 37.435876,27.4666066 C37.8867523,27.1383313 38.3654448,26.8197885 38.8272732,26.4776932 C39.6528458,25.8662038 40.4099922,25.0810877 40.8593178,24.1488171 C41.0402692,23.7732421 41.2596982,23.3245765 41.6855688,23.3248685 C41.6500958,23.7649695 41.6024107,24.1902773 41.4328959,24.6252201 C41.4288252,24.6417653 41.4233008,24.6597703 41.4181639,24.6756342 C41.0849497,25.6919931 40.0581692,26.3295654 39.21738,26.9098136 C38.4128392,27.4650494 37.5957956,28.1007726 36.8442706,28.7447683 C36.7450235,28.8298298 36.647521,28.9209255 36.5526354,29.0099773 C36.1589426,29.3798101 35.8084764,29.7620031 35.4929018,30.1546099 C35.3317223,30.3550008 35.1798471,30.5582142 35.0350472,30.7643474 C34.9137022,30.9370009 34.6745013,31.1799227 34.6439712,31.3770046 C34.7230587,31.390922 34.8344209,31.2906778 34.8908289,31.2443514 C35.2574808,30.9422564 35.6158945,30.61875 36.032073,30.3360226 C37.0168868,29.6666252 37.9881316,28.977471 38.937763,28.2575622 C39.9721034,27.4735167 41.0374585,26.7136076 41.9976543,25.86416 C43.0772567,24.9093101 44.0788378,23.6923655 44.5188589,22.2817453 C44.8959783,21.0730733 44.7189037,19.4194341 43.6071236,18.6953403 C42.180738,17.7662814 40.6012173,16.9871021 38.9605395,16.4269027 C37.0870575,15.7872866 34.9233943,15.8922023 34.6084012,18.3153858 Z" id="路径"></path>
                <path d="M44.64253,20.1855719 C44.6422393,20.1735037 44.6411731,20.162214 44.6408824,20.1502431 C44.5742008,19.656711 44.4021661,19.1978263 44.0640089,18.8836631 C43.9384963,18.7670684 43.8005778,18.6742209 43.6593639,18.5760206 C43.623697,18.5609353 43.5870609,18.5455581 43.5498433,18.5331005 C43.5377282,18.5291102 43.5253223,18.5240494 43.5129164,18.5200591 C43.7075337,18.6260454 43.893525,18.7500367 44.0600351,18.9045879 C44.4037168,19.22352 44.5784653,19.68221 44.64253,20.1855719 Z" id="路径"></path>
            </g>
        </g>
    </g>
</svg>