<?xml version="1.0" encoding="UTF-8"?>
<svg width="40px" height="48px" viewBox="0 0 40 48" version="1.1" xmlns="http://www.w3.org/2000/svg" xmlns:xlink="http://www.w3.org/1999/xlink">
    <title>节日-26</title>
    <g id="V1.4" stroke="none" stroke-width="1" fill="none" fill-rule="evenodd">
        <g id="形状汇集备份" transform="translate(-476.000000, -455.000000)" fill="#3D4242" fill-rule="nonzero">
            <g id="witch-2-svgrepo-com" transform="translate(476.500000, 455.000000)">
                <path d="M16.7428655,25.1283259 C16.3247372,25.1283259 15.9863184,25.4718253 15.9863184,25.8954807 C15.9863184,26.3190423 16.3247372,26.6625417 16.7428655,26.6625417 C17.1602549,26.6625417 17.4985814,26.3190423 17.4985814,25.8954807 C17.4986738,25.4718253 17.1602549,25.1283259 16.7428655,25.1283259 Z" id="路径"></path>
                <path d="M22.2563956,25.1283259 C21.8397451,25.1283259 21.5014186,25.4718253 21.5014186,25.8954807 C21.5014186,26.3190423 21.8398374,26.6625417 22.2563956,26.6625417 C22.6744315,26.6625417 23.0128503,26.3190423 23.0128503,25.8954807 C23.0128503,25.4718253 22.6744315,25.1283259 22.2563956,25.1283259 Z" id="路径"></path>
                <path d="M20.567257,30.3640657 L18.4320041,30.3640657 C18.2354552,30.3640657 18.0761286,30.5257841 18.0761286,30.7252837 C18.0761286,30.9239396 18.2355475,31.0865018 18.4320041,31.0865018 L20.567257,31.0865018 C20.7638059,31.0865018 20.9231325,30.9239396 20.9231325,30.7252837 C20.9230401,30.5257841 20.7638059,30.3640657 20.567257,30.3640657 Z" id="路径"></path>
                <polygon id="路径" points="20.8510892 18.4206203 20.855615 18.4160265 20.855615 16.488249 20.8510892 16.4829053 18.1489108 16.4829053 18.144385 16.488249 18.144385 17.0866541 19.0125069 17.0866541 19.0125069 17.8176214 18.144385 17.8176214 18.144385 18.4160265 18.1489108 18.4206203"></polygon>
                <path d="M39,19.5652118 C39,17.8261527 34.8493816,16.3142494 28.7417714,15.5425009 L20.8252275,0.897935746 C20.6036481,0.354280558 20.0801334,0 19.5003695,0 C18.9198666,0 18.3962595,0.354280558 18.1746802,0.897935746 L10.2582286,15.5424071 C4.15135727,16.3141556 0,17.8260589 0,19.565118 C0,21.138615 3.39416359,22.5249873 8.56077737,23.3467982 C8.52891206,24.4235148 8.53038987,25.450169 8.53038987,26.3605735 C8.53038987,29.2418804 6.28430109,29.2364429 4.84796067,28.537163 C5.06566078,30.3109095 7.24875783,32.7484985 9.21323115,32.7484985 C10.5912904,32.7484985 11.7059297,32.2763745 12.4730986,31.4307511 C12.7773431,32.0415312 13.1522454,32.5691551 13.5286255,33.0150293 C13.8769272,33.4294035 14.227538,33.7790903 14.5287344,34.0732772 C14.7168783,34.2550581 14.8823008,34.4129328 15.016597,34.5469013 C15.016597,35.3501497 15.016597,34.829557 15.016597,35.329431 L15.013549,35.3555872 C15.0036661,35.4249621 14.9376264,35.6081492 14.8132132,35.8107426 C14.6295027,36.1195545 14.3306153,36.4823662 14.0118699,36.7743032 C13.6969113,37.0692401 13.347963,37.2911459 13.1476272,37.358927 C12.7363338,37.5067705 12.1422536,37.6608014 11.4919241,37.871926 C10.516938,38.1916129 9.38853654,38.6475183 8.47035377,39.5640165 C8.01204748,40.0207656 7.61747181,40.5952645 7.34583158,41.2922944 C7.07336008,41.9893242 6.9246553,42.8033539 6.9246553,43.7423521 C6.9246553,44.0011016 6.93610833,44.270726 6.95882969,44.550288 L6.95882969,44.549538 C6.98007323,44.785225 7.0665252,44.9677559 7.15833424,45.1086619 C7.33668762,45.3705051 7.54459723,45.5376611 7.79046812,45.7079107 C8.2221738,45.9967539 8.78826798,46.2624409 9.50685382,46.5242841 C11.6527285,47.3006264 15.1561578,47.9976563 19.4994458,48 C23.0278132,47.99925 26.0068965,47.5355634 28.1466752,46.9486896 C29.2180885,46.6537526 30.0770664,46.330972 30.7160352,45.9975039 C31.036905,45.8289417 31.3025416,45.6617858 31.5279079,45.4615362 C31.6416994,45.3598177 31.7471782,45.2496616 31.840465,45.1087556 C31.9322741,44.9677559 32.0195573,44.785225 32.040062,44.5496317 C32.0627833,44.2715698 32.074144,44.0026953 32.074144,43.7447896 C32.0757142,42.4932295 31.8062906,41.4626378 31.3396717,40.6424206 C30.9914623,40.0270468 30.5390673,39.537954 30.0474179,39.1551735 C29.3106365,38.5789872 28.4956234,38.2317378 27.7505293,37.9721446 C27.0060818,37.7148951 26.3186223,37.5377079 25.8656731,37.3637083 C25.6819626,37.2958334 25.4505928,37.1611149 25.2207007,36.9832715 C24.8747081,36.7174908 24.5339802,36.352429 24.3026103,36.0151172 C24.1864174,35.8464612 24.0984876,35.6847428 24.0452864,35.5561181 C23.9914386,35.4297433 23.980078,35.337306 23.9815558,35.3297122 C23.9815558,34.8298382 23.9815558,35.350431 23.9815558,34.5463388 C24.1165908,34.4131203 24.2828446,34.2552456 24.4694183,34.0734647 C24.9224599,33.6329343 25.4854137,33.0660292 25.9847293,32.3466868 C26.1789691,32.0671249 26.3580614,31.7551255 26.5219138,31.4263449 C27.2898216,32.274312 28.4060311,32.748686 29.7847369,32.748686 C31.7500414,32.748686 33.9323996,30.3110033 34.1516699,28.5373505 C32.7137593,29.2366304 30.4685018,29.2419741 30.4685018,26.360761 C30.4685018,25.4504503 30.4700719,24.4237023 30.4381143,23.3469857 C35.6051899,22.525831 39,21.1387087 39,19.5652118 Z M17.2436589,16.488249 C17.2443978,15.9806875 17.6481174,15.5702508 18.1489108,15.5695008 L20.8510892,15.5695008 C21.3518826,15.5702508 21.7555098,15.9807813 21.7563411,16.488249 L21.7563411,18.4161203 C21.7556022,18.9236818 21.3510513,19.3341185 20.8510892,19.3349622 L18.1489108,19.3349622 C17.6488564,19.3342122 17.2444902,18.9236818 17.2436589,18.4161203 L17.2436589,16.488249 Z M18.5177172,38.6474245 C18.3621775,38.8006117 18.1770816,38.9454552 17.9789625,39.0479237 C17.7809358,39.1495485 17.571456,39.2111422 17.3430417,39.2111422 C17.0828545,39.2096422 16.7823046,39.1350173 16.4104503,38.8938928 C16.0827456,38.6790182 15.7025786,38.3178002 15.289715,37.778645 C15.5424208,37.5244892 15.7768386,37.2527085 15.9780057,36.9676153 C15.9863184,36.9553341 15.9931533,36.9422091 16.0022049,36.9291779 L18.7149126,38.4325499 C18.6566314,38.5026748 18.5913306,38.5757997 18.5177172,38.6474245 Z M22.5887184,38.8938928 C22.2161252,39.1350173 21.9164989,39.2096422 21.656127,39.2111422 C21.420139,39.2111422 21.2053945,39.1464548 21.0005329,39.0378925 C20.7167007,38.8884553 20.4670429,38.6481745 20.2841637,38.4317999 L22.9884664,36.9352716 C23.1933281,37.234896 23.4339342,37.5213955 23.7017876,37.7885824 C23.2921567,38.3224877 22.9142064,38.680612 22.5887184,38.8938928 Z M24.2543044,31.9598751 C23.9613282,32.3088119 23.6509878,32.6192175 23.3634611,32.8986857 C23.0751031,33.1798414 22.8109443,33.422466 22.5864093,33.674278 L22.3815477,33.9061213 L22.3815477,34.2172769 C22.3815477,35.192275 22.3815477,34.7610259 22.3815477,35.3295247 C22.3837644,35.562118 22.4285606,35.7731489 22.4946003,35.9741485 L19.4996305,37.6323015 L16.5023517,35.9733047 C16.5698692,35.7738051 16.6154043,35.5642743 16.617621,35.329431 C16.617621,34.7610259 16.617621,35.192275 16.617621,34.2171832 L16.617621,33.9060275 L16.4120205,33.6741842 C16.188132,33.4223722 15.9248969,33.1797477 15.6365389,32.898592 C15.2048332,32.4804678 14.7229743,31.9890313 14.3223026,31.4098449 C13.9285582,30.8421898 13.6173865,30.1999098 13.4800424,29.4550675 C13.5923561,28.9883809 13.6515609,28.4792256 13.6515609,27.9316329 C13.6515609,26.512167 13.6515609,25.0557636 13.6515609,23.923547 C15.497717,24.0591093 17.4622827,24.1329841 19.5004618,24.1329841 C21.5378097,24.1329841 23.5016365,24.0590155 25.3477925,23.923547 C25.3477925,25.0556698 25.3477925,26.512167 25.3477925,27.9316329 C25.3477925,28.4799756 25.4069973,28.9898809 25.5192187,29.4574112 C25.3370784,30.4518155 24.8339759,31.2713764 24.2543044,31.9598751 Z" id="形状"></path>
            </g>
        </g>
    </g>
</svg>