<?xml version="1.0" encoding="UTF-8"?>
<svg width="46px" height="48px" viewBox="0 0 46 48" version="1.1" xmlns="http://www.w3.org/2000/svg" xmlns:xlink="http://www.w3.org/1999/xlink">
    <title>节日-21</title>
    <g id="V1.4" stroke="none" stroke-width="1" fill="none" fill-rule="evenodd">
        <g id="形状汇集备份" transform="translate(-473.000000, -385.000000)" fill="#3D4242">
            <g id="节日-21" transform="translate(473.000000, 385.000000)">
                <path d="M40.5606165,13.2038701 C40.3524694,13.6698326 40.0257133,14.0776951 39.6547695,14.4239715 C38.8512519,15.1746244 37.7267923,15.734709 36.6069841,15.705659 C35.5150838,15.6754469 34.4092296,15.1630043 34.9232018,13.967305 C34.9232018,13.967305 34.9232018,13.967305 34.9243646,13.967305 C34.9243646,13.966143 34.9243646,13.966143 34.9243646,13.966143 C34.9580868,13.8859649 35.0046001,13.8127588 35.0464621,13.7349047 C35.1720481,13.4943704 35.318565,13.2642942 35.4964785,13.0469999 C35.318565,13.2642942 35.1720481,13.4943704 35.0464621,13.7349047 C35.0046001,13.8127588 34.9580868,13.8859649 34.9243646,13.967305 C34.9232018,13.967305 34.9243646,13.967305 34.9232018,13.967305 C35.2778659,14.3670334 35.7941637,14.6191877 36.3686033,14.6191877 C37.429107,14.6191877 38.293092,13.7593067 38.293092,12.6960755 C38.293092,12.3718771 38.2128565,12.0651088 38.0698281,11.7966865 C39.0140485,11.8199265 39.8664051,12.3068051 40.5245687,12.9691458 C40.5885245,13.0353799 40.5943386,13.12253 40.5606165,13.2038701 Z M28.5078517,14.4181615 C28.4997119,14.6528858 28.3357524,14.853912 28.164816,15.0154302 C26.8182553,16.2773636 24.8856267,15.5511128 23.6762803,14.4239715 C23.6065104,14.3588994 23.5367404,14.2891793 23.4704589,14.2171353 C23.1681223,13.984735 22.9367185,13.6640226 22.8157839,13.2933442 C22.7995042,13.2631322 22.7855502,13.2340821 22.7727591,13.2038701 C22.7495024,13.15739 22.7436882,13.107424 22.7553166,13.0621059 C22.7704334,13.141122 22.7913644,13.2178141 22.8157839,13.2933442 C22.9809062,13.6326486 23.2076586,13.9429029 23.4704589,14.2171353 C23.7960522,14.4692896 24.2018809,14.6191877 24.6449203,14.6191877 C25.7065869,14.6191877 26.5705719,13.7593067 26.5705719,12.6960755 C26.5705719,12.4578652 26.5252214,12.227789 26.4461487,12.0163047 C26.9857033,12.232437 27.4671161,12.5961434 27.8345714,13.0469999 C28.102023,13.3711983 28.5008747,13.9301209 28.5078517,14.3833015 C28.5078517,14.3949215 28.5078517,14.4077035 28.5078517,14.4181615 Z M45.9887212,3.44189691 C45.9619761,2.94456034 45.9549991,2.34148165 45.3480002,2.22992952 C44.7200704,2.11489139 43.9921369,2.27873357 43.3863008,2.44373776 C41.8967117,2.84346622 40.5071262,3.62084511 39.2896399,4.55741819 C38.1314582,5.44983521 37.032581,6.55025047 36.3790688,7.87493199 C35.8534682,7.70179379 35.3139137,7.56583964 34.7638936,7.47868954 C34.0266575,7.3590034 33.2859328,7.33808738 32.539394,7.32530536 C31.842857,7.31600935 31.1474828,7.32879137 30.4555971,7.42175147 C30.289312,7.4426675 30.114887,7.47287953 29.9416249,7.51238758 C29.8253416,7.24745127 29.6997556,6.98948698 29.564867,6.73617069 C29.1113621,5.88558571 28.5648306,5.08496679 28.0008565,4.30177789 C27.0066343,2.92364431 25.8763605,1.60825881 24.3204899,0.849471936 C23.9541974,0.668199728 23.5704625,0.531083571 23.1867276,0.395129415 C22.835552,0.269633271 22.4832136,0.145299128 22.1169212,0.0709310431 C21.7610943,-0.00343704219 21.3668939,-0.0487550942 21.0203696,0.0883610631 C20.7075675,0.212695206 20.4936062,0.483441516 20.3470893,0.779751856 C20.1842926,1.10743623 20.0808005,1.45952264 19.9842854,1.80928504 C19.8807932,2.18228746 19.7621842,2.55180389 19.6714833,2.93061632 C19.4447308,3.86486539 19.3424015,4.8304885 19.338913,5.7891396 C19.3354245,6.89536487 19.464499,8.00159014 19.6761346,9.08341338 C19.8610251,10.0374165 20.0831262,11.0123356 20.4866292,11.9012666 C20.5145372,11.9640147 18.474928,13.964981 18.3156199,14.2182973 C18.1656144,14.4576695 18.029563,14.7167958 18.0051435,14.9980002 C17.973747,15.3837846 18.1586374,15.753301 18.3528306,16.0879574 C19.916841,18.7826385 22.4971676,20.8719169 25.4589034,21.838702 C25.5461159,21.86659 25.6356541,21.8968021 25.6949586,21.9653601 C25.7658914,22.0490242 25.7728684,22.1675484 25.7728684,22.2779385 C25.7728684,23.1215515 25.5891407,23.8570983 25.2054058,24.5972932 C24.8309736,25.316572 24.3228155,25.9626447 23.7704698,26.5529414 C22.5901943,27.8195229 21.1971202,28.8641621 19.8877702,29.9901413 C16.9144061,32.5511923 14.8410747,36.0267383 13.9619729,39.8473987 C13.675916,41.0919021 13.5142822,42.3608075 13.4166042,43.633199 C13.3840449,44.0782455 13.3572997,44.524454 13.334043,44.9695005 C12.4723837,44.6813242 11.5665368,44.7649883 10.6699925,44.7847423 C10.2095106,44.7963623 9.74088886,44.8091443 9.28622113,44.7324523 C8.8524844,44.6604082 8.423399,44.5558281 8.00245343,44.4256839 C7.15358529,44.1653956 6.31634548,43.7796112 5.62213414,43.2160405 C4.99652995,42.7059219 4.48720906,42.0517152 4.07556616,41.3591624 C3.25460601,39.9798668 2.81854361,38.373981 2.83249761,36.7692571 C2.84528877,35.0727352 3.40461148,33.4831174 4.43604441,32.1375198 C5.53841016,30.7012862 7.05939581,29.655485 8.37456001,28.4295736 C9.59553473,27.2942983 10.9560494,26.0358508 11.3235047,24.3358429 C11.6630519,22.7671411 11.1583824,20.978821 9.86298634,19.9794999 C9.24319631,19.5019173 8.48851765,19.234657 7.71872216,19.1231049 C6.98846299,19.0173628 6.215179,19.0324688 5.51980483,19.2997291 C4.79187133,19.5809334 4.21743179,20.092214 3.88835003,20.8033588 C3.48484696,21.6702118 3.4441478,22.6160809 4.06393783,23.3899738 C4.32208677,23.7118482 4.67093669,24.0151305 5.09188226,24.0883366 C5.42677818,24.1464366 5.75004578,24.0697446 6.0674992,23.9663264 C7.48964405,23.5084979 8.78852858,24.0360465 7.33498725,25.5013302 C6.37797563,26.4669533 5.2058399,27.1908801 4.18719813,28.0914312 C2.11386677,29.9250693 0.824284902,32.4280201 0.299847188,35.1273492 C-0.0594682298,36.9726074 -0.128075381,38.8829375 0.271939194,40.7293577 C0.65683694,42.4967617 1.50686791,44.2769477 2.79877545,45.5656072 C3.96160852,46.7264465 5.50701366,47.3957593 7.08497814,47.7792197 C7.41522273,47.8605598 7.74663015,47.9291179 8.08036324,47.989542 L11.4142056,47.989542 L11.4142056,48 L34.6976122,48 L34.6976122,47.989542 L35.2220499,47.989542 C35.220887,47.6595336 35.186002,47.3306872 35.1441401,47.0053269 C35.1220462,45.7375834 35.3232164,44.4663539 35.506944,43.2195265 C35.7511389,41.5636746 35.8627709,39.8985267 35.8534682,38.2252448 C35.8348629,34.8473069 35.3988005,31.4867991 35.1487914,28.1239672 C35.0801842,27.1920421 35.0290196,26.2589551 35.0046001,25.325868 C34.9929718,24.8424754 34.9778549,24.3614069 34.9778549,23.8803383 C34.9778549,23.4957159 34.9999488,23.1064455 34.9778549,22.719499 C35.4104288,22.681153 35.8476541,22.5777349 36.2325518,22.4812887 C37.046535,22.2802625 37.8395871,21.9641981 38.6000799,21.6155977 C39.9873398,20.978821 41.2199428,20.134046 42.4606857,19.257897 C43.4525823,18.5548862 44.8223997,17.5567271 44.6584402,16.1681355 C44.5607622,15.3593826 44.11656,14.5483056 43.6665436,13.8824789 C43.4258372,13.5257445 43.1607112,13.1829541 42.8816313,12.8529457 C43.329322,12.3823352 43.6781719,11.8141165 43.9863227,11.2505459 C44.3572665,10.5696131 44.6723942,9.85730626 44.9991503,9.15429546 C45.4061419,8.28395646 45.6503368,7.36829941 45.7840626,6.41778232 C45.9201141,5.4382152 46.0375602,4.43192204 45.9887212,3.44189691 L45.9887212,3.44189691 Z" id="23"></path>
            </g>
        </g>
    </g>
</svg>