<?xml version="1.0" encoding="UTF-8"?>
<svg width="48px" height="48px" viewBox="0 0 48 48" version="1.1" xmlns="http://www.w3.org/2000/svg" xmlns:xlink="http://www.w3.org/1999/xlink">
    <title>节日-10</title>
    <g id="V1.4" stroke="none" stroke-width="1" fill="none" fill-rule="evenodd">
        <g id="形状汇集备份" transform="translate(-753.000000, -175.000000)" fill="#3D4242" fill-rule="nonzero">
            <g id="节日-10" transform="translate(753.000000, 175.000000)">
                <path d="M46.7878788,22.8686869 L44.891798,22.8686869 L46.3440808,21.368404 C46.809697,20.8872727 46.7972525,20.1199192 46.3162828,19.6544646 C45.8349899,19.1886869 45.0676364,19.2011313 44.6023434,19.6822626 L41.5175758,22.8686869 L39.268202,22.8686869 L40.6972121,21.3582222 C41.1573333,20.8719192 41.136,20.1047273 40.649697,19.6447677 C40.1632323,19.1849697 39.3963636,19.2056566 38.9362424,19.6922828 L35.9306667,22.8686869 L33.8534141,22.8686869 L36.5373737,19.9573333 C36.7534545,19.7229899 36.8581818,19.4262626 36.8568889,19.1308283 C36.8570505,19.1233939 36.8581818,19.1162828 36.8581818,19.1088485 C36.8631919,18.4394343 36.3248485,17.9216162 35.6554343,17.9162828 L31.9445657,17.883798 L33.2625455,16.5656566 L37.5757576,16.5656566 C38.2453333,16.5656566 38.7878788,16.0231111 38.7878788,15.3535354 C38.7878788,14.6839596 38.2453333,14.1414141 37.5757576,14.1414141 L35.6871111,14.1414141 L37.3032727,12.5252525 L41.6161616,12.5252525 C42.2857374,12.5252525 42.8282828,11.9827071 42.8282828,11.3131313 C42.8282828,10.6435556 42.2857374,10.1010101 41.6161616,10.1010101 L39.7275152,10.1010101 L41.0277172,8.80080808 C41.5010909,8.32727273 41.5010909,7.55991919 41.0277172,7.08654545 C40.5543434,6.61349495 39.7869899,6.61317172 39.3134545,7.08654545 L37.9730101,8.4269899 L37.9387475,6.31143434 C37.9280808,5.64880808 37.3874747,5.09090909 36.7272727,5.09090909 C36.7204848,5.09090909 36.7138586,5.09090909 36.7070707,5.09090909 C36.0376566,5.09090909 35.504,5.68856566 35.5148283,6.3579798 L35.5865859,10.8132525 L33.9959596,12.4038788 L33.9385859,10.3256566 C33.9201616,9.65640404 33.3635556,9.13373737 32.6934949,9.14747475 C32.0242424,9.16589899 31.4968889,9.72363636 31.5153131,10.3925657 L31.636202,14.763798 L30.244202,16.155798 L30.2052525,12.5341414 C30.246303,12.1971717 30.1473939,11.8450101 29.9015758,11.5738182 C29.451798,11.0774949 28.6585859,11.0398384 28.1625859,11.4889697 L25.0776566,14.2585859 L25.0776566,11.9883636 L28.2810505,8.98311111 C28.7673535,8.5229899 28.802101,7.75579798 28.3419798,7.26949495 C27.881697,6.7830303 27.094303,6.76185859 26.6083232,7.2219798 L25.0776566,8.6509899 L25.0776566,6.40145455 L28.2910707,3.31684848 C28.7720404,2.85123232 28.797899,2.08387879 28.3322828,1.60290909 C27.8669899,1.12210101 27.0794343,1.10917172 26.5981414,1.57511111 L25.0776566,3.02739394 L25.0776566,1.21212121 C25.0776566,0.542545455 24.5351111,0 23.8655354,0 C23.1959596,0 22.6534141,0.542545455 22.6534141,1.21212121 L22.6534141,2.91361616 L21.3556364,1.5890101 C20.8822626,1.11547475 20.1283232,1.11563636 19.6549495,1.58884848 C19.1814141,2.06222222 19.1612121,2.82973737 19.6345859,3.30294949 L22.6534141,6.34214141 L22.6534141,8.57018182 L21.3556364,7.24557576 C20.8822626,6.7720404 20.1283232,6.77220202 19.6549495,7.24541414 C19.1814141,7.71878788 19.1612121,8.48630303 19.6345859,8.95951515 L22.6534141,11.9987071 L22.6534141,14.1029495 L19.9526465,11.4655354 C19.4711919,10.9999192 18.7172525,11.0128485 18.2522828,11.4944646 C17.9843232,11.7714747 17.8826667,12.1433535 17.9298586,12.4976162 L17.8160808,16.0248889 L16.5121616,14.744404 L16.5121616,10.4242424 C16.5121616,9.75466667 15.9696162,9.21212121 15.3000404,9.21212121 C14.6304646,9.21212121 14.0879192,9.75466667 14.0879192,10.4242424 L14.0879192,12.32 L12.4717576,10.7038384 L12.4717576,6.38383838 C12.4717576,5.71426263 11.9292121,5.17171717 11.2596364,5.17171717 C10.5900606,5.17171717 10.0475152,5.71426263 10.0475152,6.38383838 L10.0475152,8.27959596 L8.77462626,6.97971717 C8.30125253,6.50666667 7.54747475,6.50634343 7.07377778,6.97971717 C6.60040404,7.45325253 6.60719192,8.22060606 7.08056566,8.6939798 L8.39482828,10.0048485 L6.33858586,10.0520404 C5.66917172,10.0628687 5.13632323,10.6472727 5.14715152,11.3163636 C5.15781818,11.9789899 5.69923232,12.5250909 6.35959596,12.5250909 C6.36622222,12.5250909 6.37284848,12.5250909 6.37963636,12.5250909 L10.820202,12.4273131 L12.4043636,14.0114747 L10.3261414,14.0690101 C9.65688889,14.0874343 9.12953535,14.6450101 9.1479596,15.314101 C9.16606061,15.9718788 9.70505051,16.4927677 10.3589495,16.4927677 C10.3702626,16.4927677 10.3817374,16.4926061 10.3930505,16.4922828 L14.7642828,16.3712323 L16.2888081,17.8959192 L12.5325253,17.9799596 C12.2007273,17.9891717 11.7944242,18.0749899 11.5185455,18.3374545 C11.0332121,18.7987071 11.0138182,19.565899 11.4750707,20.0510707 L11.4999596,20.0772525 C11.5258182,20.1073131 11.5528081,20.135596 11.5812525,20.1627475 L14.1532121,22.8686869 L11.9885253,22.8686869 L8.98311111,19.6922828 C8.52282828,19.2056566 7.75563636,19.1846465 7.26949495,19.6447677 C6.78319192,20.1048889 6.76185859,20.8720808 7.2219798,21.3582222 L8.6509899,22.8686869 L6.40161616,22.8686869 L3.31684848,19.682101 C2.85155556,19.2011313 2.08420202,19.1883636 1.60290909,19.654303 C1.12193939,20.1199192 1.10949495,20.8872727 1.57511111,21.3682424 L3.02739394,22.8685253 L1.21212121,22.8685253 C0.542545455,22.8685253 0,23.4110707 0,24.0806465 C0,24.7502222 0.542545455,25.2927677 1.21212121,25.2927677 L2.91361616,25.2927677 L1.5890101,26.6173737 C1.11547475,27.0907475 1.11547475,27.8582626 1.58884848,28.3314747 C1.82561616,28.5682424 2.13575758,28.6865455 2.44606061,28.6865455 C2.75620202,28.6865455 3.06650505,28.5682424 3.30311111,28.3316364 L6.34214141,25.2929293 L8.57018182,25.2929293 L7.24557576,26.6175354 C6.7720404,27.0909091 6.7720404,27.8584242 7.24541414,28.3316364 C7.48218182,28.568404 7.79232323,28.6867071 8.10262626,28.6867071 C8.41276768,28.6867071 8.72307071,28.568404 8.95967677,28.331798 L11.9987071,25.2929293 L14.130101,25.2929293 L11.5031919,28.0239192 C11.0391919,28.5063434 11.0540606,29.273697 11.5364848,29.737697 C11.7614545,29.9539394 12.0478384,30.0649697 12.3368081,30.0743434 C12.3429495,30.0746667 12.3486061,30.0756364 12.3547475,30.075798 L16.2235152,30.1763232 L14.7064242,31.6934141 L10.3353535,31.5723636 C9.66529293,31.5586263 9.10852525,32.0812929 9.09010101,32.7503838 C9.07151515,33.4196364 9.5990303,33.9772121 10.2681212,33.9956364 L12.3465051,34.0531717 L10.7206465,35.6790303 L6.32145455,35.636202 C6.31466667,35.636202 6.3080404,35.636202 6.30141414,35.636202 C5.64105051,35.636202 5.10044444,36.1299394 5.08977778,36.792404 C5.07894949,37.4618182 5.61260606,37.9770505 6.2820202,37.9880404 L8.38060606,38.0187475 L7.08622222,39.3131313 C6.61284848,39.7866667 6.61284848,40.5540202 7.08622222,41.0273939 C7.3229899,41.264 7.63329293,41.382303 7.94343434,41.382303 C8.25357576,41.382303 8.53688889,41.264 8.77365657,41.0273939 L9.88525253,39.8888081 L9.88525253,41.7777778 C9.88525253,42.4473535 10.427798,42.989899 11.0973737,42.989899 C11.7669495,42.989899 12.3094949,42.4473535 12.3094949,41.7777778 L12.3094949,37.4648889 L13.9256566,35.8487273 L13.9256566,37.7373737 C13.9256566,38.4069495 14.468202,38.9494949 15.1377778,38.9494949 C15.8073535,38.9494949 16.349899,38.4069495 16.349899,37.7373737 L16.349899,33.4244848 L17.9161212,31.8850909 L18.011798,35.5560404 C17.9815758,35.8970505 18.1014949,36.2757172 18.3602424,36.5391515 C18.5974949,36.7809293 18.9179798,36.9291313 19.2318384,36.9291313 C19.2331313,36.9291313 19.2345859,36.9291313 19.2357172,36.9291313 C19.2370101,36.9291313 19.238303,36.9291313 19.2394343,36.9291313 C19.6050101,36.9352727 19.9342222,36.6852525 20.132202,36.454303 L22.6527677,33.9500606 L22.6527677,35.9201616 L19.6407273,38.9593535 C19.1673535,39.4327273 19.1809293,40.2002424 19.654303,40.6734545 C19.8909091,40.9100606 20.2078384,41.0283636 20.5179798,41.0283636 C20.8281212,41.0283636 21.1148283,40.9100606 21.351596,40.6732929 L22.6527677,39.3486869 L22.6527677,41.5767273 L19.6407273,44.6159192 C19.1673535,45.0892929 19.1809293,45.8568081 19.654303,46.3300202 C19.8909091,46.5666263 20.2078384,46.6849293 20.5179798,46.6849293 C20.8281212,46.6849293 21.1148283,46.5666263 21.351596,46.3298586 L22.6527677,45.0052525 L22.6527677,46.7878788 C22.6527677,47.4574545 23.1953131,48 23.8648889,48 C24.5344646,48 25.0770101,47.4574545 25.0770101,46.7878788 L25.0770101,44.891798 L26.6042828,46.3440808 C26.8397576,46.5719596 27.1570101,46.6852525 27.4606869,46.6852525 C27.7774545,46.6852525 28.1008485,46.5617778 28.3384242,46.3162828 C28.8040404,45.8351515 28.768,45.067798 28.2870303,44.6023434 L25.0770101,41.5177374 L25.0770101,39.268202 L26.614303,40.6972121 C26.8486465,40.9189495 27.1615354,41.0288485 27.4606869,41.0288485 C27.7821414,41.0288485 28.1095758,40.9018182 28.3481212,40.649697 C28.8082424,40.1633939 28.7633131,39.396202 28.2770101,38.9362424 L25.0770101,35.9309899 L25.0770101,33.8149495 L27.878303,36.4544646 C28.1855354,36.7208081 28.4801616,36.9292929 28.8872727,36.9292929 C28.8901818,36.9292929 28.8927677,36.9292929 28.8956768,36.9292929 C29.5612121,36.9292929 30.1031111,36.3762424 30.1076364,35.7095758 L30.1344646,31.7422222 L31.6932525,33.3010101 L31.572202,37.6720808 C31.5536162,38.3413333 32.0809697,38.8989091 32.7502222,38.9173333 C32.761697,38.9176566 32.7731717,38.9178182 32.7844848,38.9178182 C33.4383838,38.9178182 33.9773737,38.3969293 33.9954747,37.7393131 L34.0530101,35.6609293 L35.6441212,37.2520404 L35.5717172,41.6816162 C35.5608889,42.3510303 36.0945455,42.9090909 36.7639596,42.9090909 C36.7707475,42.9090909 36.7773737,42.9090909 36.784,42.9090909 C37.4443636,42.9090909 37.9849697,42.4004848 37.9956364,41.7380202 L38.029899,39.6378182 L39.3131313,40.9210505 C39.549899,41.1576566 39.860202,41.2759596 40.1703434,41.2759596 C40.4804848,41.2759596 40.7907879,41.1576566 41.0275556,40.9210505 C41.5009293,40.4475152 41.5009293,39.6801616 41.0275556,39.2067879 L39.8813737,38.0606061 L41.7771313,38.0606061 C42.4467071,38.0606061 42.9892525,37.5180606 42.9892525,36.8484848 C42.9892525,36.1789091 42.4467071,35.6363636 41.7771313,35.6363636 L37.4571313,35.6363636 L35.8409697,34.020202 L37.7367273,34.020202 C38.406303,34.020202 38.9488485,33.4776566 38.9488485,32.8080808 C38.9488485,32.1385051 38.406303,31.5959596 37.7367273,31.5959596 L33.4167273,31.5959596 L31.9489293,30.1281616 L35.6651313,29.965899 C35.9793131,29.9528081 36.2972121,29.8092929 36.4930909,29.618101 C36.9721212,29.1503838 36.9811717,28.3830303 36.5136162,27.9041616 L33.9647677,25.2929293 L35.9204848,25.2929293 L38.9596768,28.3319596 C39.1962828,28.5685657 39.5065859,28.6868687 39.8167273,28.6868687 C40.1268687,28.6868687 40.4371717,28.5685657 40.6739394,28.331798 C41.1473131,27.8584242 41.1473131,27.0909091 40.6737778,26.617697 L39.3491717,25.2930909 L41.5772121,25.2930909 L44.616404,28.3321212 C44.8530101,28.5687273 45.1633131,28.6870303 45.4734545,28.6870303 C45.783596,28.6870303 46.093899,28.5687273 46.3306667,28.3319596 C46.8040404,27.8585859 46.8040404,27.0910707 46.3305051,26.6178586 L45.005899,25.2932525 L46.7878788,25.2932525 C47.4574545,25.2932525 48,24.7507071 48,24.0811313 C48,23.4115556 47.4574545,22.8686869 46.7878788,22.8686869 Z M18.6419394,20.2493737 L21.2612525,22.8686869 L17.4978586,22.8686869 L15.131798,20.379798 L18.6419394,20.2493737 Z M18.5869899,27.8130101 L15.1555556,27.723798 L17.4938182,25.2929293 L21.1070707,25.2929293 L18.5869899,27.8130101 Z M22.6532525,30.5532121 L20.3625051,32.8286061 L20.2747475,29.5135354 L22.6534141,27.1214545 L22.6534141,30.5532121 L22.6532525,30.5532121 Z M22.6532525,20.8858182 L20.1834343,18.3891717 L20.2529293,15.1410101 L22.6530909,17.4745859 L22.6530909,20.8858182 L22.6532525,20.8858182 Z M25.0774949,17.5288889 L27.7814949,15.1043232 L27.8052525,18.5541818 L25.0774949,21.2685253 L25.0774949,17.5288889 L25.0774949,17.5288889 Z M27.6759596,32.8964848 L25.0774949,30.5027879 L25.0774949,26.7385859 L27.6866263,29.334303 L27.6759596,32.8964848 Z M29.624404,27.8029899 L27.1143434,25.2929293 L30.5768081,25.2929293 L32.8885657,27.6604444 L29.624404,27.8029899 Z M30.5559596,22.8686869 L26.9596768,22.8686869 L29.5623434,20.2660202 L32.9467475,20.2753939 L30.5559596,22.8686869 Z" id="形状"></path>
            </g>
        </g>
    </g>
</svg>