<?xml version="1.0" encoding="UTF-8"?>
<svg width="52px" height="18px" viewBox="0 0 52 18" version="1.1" xmlns="http://www.w3.org/2000/svg" xmlns:xlink="http://www.w3.org/1999/xlink">
    <title>节日-25</title>
    <g id="V1.4" stroke="none" stroke-width="1" fill="none" fill-rule="evenodd">
        <g id="形状汇集备份" transform="translate(-751.000000, -400.000000)" fill="#3D4242">
            <g id="节日-25" transform="translate(751.000000, 400.000000)">
                <path d="M44.0882714,11.185013 L40.4642419,11.2075472 L41.0706988,6.37235089 L44.4331835,6.21461146 L44.0882714,11.185013 Z M34.4536167,11.2429581 L34.182264,6.69426809 L38.1070699,6.51077528 L37.5169595,11.2252526 L34.4536167,11.2429581 Z M28.1062526,11.2799785 L27.867593,6.98882232 L31.2611361,6.83108289 L31.5243155,11.2606635 L28.1062526,11.2799785 Z M22.1577442,11.3153894 L21.1949326,7.301082 L24.9464651,7.12563713 L25.178586,11.297684 L22.1577442,11.3153894 Z M15.2382509,11.3572387 L14.9472824,7.59241706 L18.2231304,7.43950639 L19.1581528,11.3330949 L15.2382509,11.3572387 Z M8.75521046,11.3958687 L8.35472007,7.90145757 L12.0245198,7.72923187 L12.3073151,11.3749441 L8.75521046,11.3958687 Z M52,5.86211213 L51.8610544,2.98578199 L47.5733551,3.18537065 L47.7466285,0.692121971 L44.8287699,0.495752481 L44.6326114,3.32379505 L41.4335922,3.47348654 L41.8259093,0.354108915 L38.9243972,0 L38.4715979,3.61191094 L34.0106253,3.81954753 L33.8553331,1.19592238 L30.9358398,1.36492891 L31.0894973,3.95636234 L27.7073968,4.11410176 L27.5259501,0.857909327 L24.6064569,1.01564875 L24.7879036,4.25091657 L20.5100123,4.45050523 L19.6599918,0.911025664 L16.8156927,1.57417509 L17.5398447,4.58892963 L14.7249694,4.72091568 L14.4912137,1.70294197 L11.5766244,1.92184566 L11.8038414,4.85773048 L8.02615447,5.03317536 L7.72537801,2.41276938 L4.82059665,2.73468658 L5.1001226,5.16999016 L0,5.40820889 L0.138945648,8.28453903 L5.42868819,8.03827238 L5.81446669,11.4119646 L1.89619943,11.4361084 L1.91254597,14.3140481 L6.14466694,14.2899043 L6.56967716,18 L9.47445852,17.6780828 L9.08541071,14.2721989 L12.5296281,14.2512743 L12.7454025,17.0310292 L15.6599918,16.8121255 L15.460564,14.2335688 L19.8479771,14.2078154 L20.4707805,16.8040776 L23.3167143,16.1409282 L22.8475685,14.19011 L25.3387822,14.1756237 L25.4630159,16.3871948 L28.3825092,16.2294554 L28.2664487,14.1579183 L31.6959542,14.1386032 L31.8790356,17.2064741 L34.7985288,17.0374676 L34.6236208,14.1208978 L37.1557009,14.1064115 L36.8222313,16.7622284 L39.7237434,17.1163373 L40.1029832,14.0887061 L43.8888435,14.0661719 L43.7139354,16.6060985 L46.6301594,16.802468 L46.821414,14.0484664 L51.3739273,14.0211035 L51.3559461,11.1431637 L47.0208418,11.1689171 L47.3739273,6.07779666 L52,5.86211213 L52,5.86211213 Z" id="64"></path>
            </g>
        </g>
    </g>
</svg>