<?xml version="1.0" encoding="UTF-8"?>
<svg width="34px" height="52px" viewBox="0 0 34 52" version="1.1" xmlns="http://www.w3.org/2000/svg" xmlns:xlink="http://www.w3.org/1999/xlink">
    <title>节日-28</title>
    <g id="V1.4" stroke="none" stroke-width="1" fill="none" fill-rule="evenodd">
        <g id="形状汇集备份" transform="translate(-619.000000, -453.000000)" fill="#3D4242">
            <g id="节日-28" transform="translate(619.000000, 453.000000)">
                <path d="M8.81580492,25.5169263 L10.3354267,25.5169263 L12.3475516,43.6955448 C12.3475516,43.6958997 12.8628954,46.0899525 14.0727398,47.412963 C15.2825843,48.7366833 15.6052095,47.8540848 17.0166948,48.8278887 C18.3870121,49.7723624 18.1993708,50.2334148 19.5886638,50.5867978 L19.7193946,50.6186374 C21.1316706,50.9486315 22.9891997,51.8435769 23.2718893,51.9819305 L23.2947199,51.9933559 C23.1981749,51.9491794 22.5807264,51.697424 20.9071121,51.624026 C19.0695047,51.5441769 19.4370975,52.0254007 17.9849273,51.4621985 C16.5331139,50.8993512 15.6458946,51.7847888 14.7583184,51.9451967 C13.8710991,52.1056046 12.5805983,51.9047398 12.1773168,51.4621985 C11.7736784,51.0193023 10.5235058,50.2609135 10.2008806,48.8168873 C9.87825538,47.3732159 11.5213598,45.6552187 11.5213598,45.6552187 L8.81580492,25.5169263 Z M18.6755022,0 L22.291474,8.76246039 L22.3410812,8.75997619 C27.4736926,7.5458514 30.5949729,5.67551146 31.2648222,5.24779235 L31.4009964,5.15860533 C29.949183,6.47274371 27.7075802,7.88376564 24.1851126,8.98710246 C24.8749738,9.12657218 25.6972398,9.37783062 26.5262866,9.83243803 L26.7384236,9.94681425 C28.7045525,10.9888738 30.2735434,11.310986 30.5819423,10.3001762 C30.9017125,9.25326605 30.3114225,9.03323748 29.6479709,9.1308308 L29.6466977,9.1073679 C29.6485791,9.02340908 29.715118,8.75481993 30.5330489,8.98426338 C31.4912886,9.25326605 31.8178395,10.4265152 30.6711639,11.2086813 C29.870668,11.7552038 28.8260618,11.680678 27.9841671,11.486556 C28.2907324,12.1423831 29.0858751,13.3837701 30.7293364,13.4355833 C32.9662996,13.5058505 33.8510207,11.2331683 33.8510207,11.2331683 L33.8917203,11.5542649 C33.9778221,12.2995688 34.1403525,14.1399204 33.752877,14.884223 C33.2610877,15.8278617 30.8767304,16.6174804 29.4513266,15.5382757 L29.4664746,15.564958 C29.5363533,15.6729677 29.8837592,16.0788459 31.2211257,16.2232034 C32.7696552,16.3899992 33.4823572,15.8818042 33.4823572,15.8818042 L33.4099373,15.9571217 C33.0410257,16.3276038 31.2900574,17.9319329 28.787875,17.7591447 C26.694737,17.6139969 25.8835344,16.9209069 25.6026649,16.5702807 C24.8339319,17.1416452 23.8842575,17.591994 22.8164537,17.838284 L23.0609208,18.8599974 L29.7346943,23.8848111 L25.2361427,27.9539201 L27.293949,36.5588117 L27.2529365,36.5961826 C27.099795,36.7316869 26.517624,37.2128859 25.5038074,37.6621485 L24.438145,44.3190774 L24.8096636,44.4376089 L24.0102384,49.8095 L25.4695464,51.4621985 L22.9088873,50.6186374 L22.8664178,43.8176252 L22.8892585,43.8250778 L22.8696298,38.4077614 C22.4178118,38.4744798 21.930662,38.5167111 21.4088943,38.5294869 L21.5181353,39.8645914 C21.5874862,40.7359867 21.6692022,41.8093184 21.7455432,42.9259266 L21.8075362,43.8630505 L21.9981135,43.8176252 L22.4267339,50.6186374 L19.9203216,50.6186374 L21.3485805,49.8095 L19.3871335,44.4376089 L20.417821,44.1930933 L18.9406687,38.2863909 C15.2076382,37.2802925 13.1923014,33.4446976 13.1923014,33.4446976 L18.98064,22.221821 L15.3348494,24.0158686 C15.0316644,24.1626826 14.8304325,24.2580422 14.8082825,24.2634732 L14.7899929,24.2650566 C14.6327522,24.2717289 13.5571744,24.2453458 12.3729633,24.2128008 L9.95534282,24.1431673 L10.3354267,25.5169263 L7.85149819,25.222017 L7.62915804,23.4071362 L8.69196538,22.9354943 L8.31192279,21.5118982 C7.97629485,20.2682978 7.50415586,18.5527383 6.99502824,16.8077093 L6.66357361,15.6860583 C5.79227561,12.7773213 4.87708163,10.0518 4.38506174,9.58614799 C4.01387973,9.23516155 3.40703828,8.54188831 2.76152615,7.77177952 L2.42340019,7.36577989 L1.84109937,6.65633058 C0.85562176,5.4463157 0,4.35230708 0,4.35230708 L1.02640495,2.58994921 L5.87756017,10.2235211 L9.50673676,22.5735118 L9.51994156,22.5678337 L9.73407333,23.342902 L14.4745938,23.0110848 L20.4692127,19.3362528 L21.1337349,18.048021 L21.143014,18.0437623 C20.270427,18.0671847 19.492058,17.9781087 18.8246807,17.7790183 L18.7701638,17.8711691 C18.5838216,18.171307 17.9318766,19.1206363 17.0013487,19.4551392 C15.8907186,19.8547394 14.4745938,19.7844722 14.4745938,19.7844722 C15.5634538,19.6432281 16.0142012,18.6094487 16.0142012,18.6094487 L15.9497647,18.6721214 C15.6346988,18.9656875 14.1944986,20.1622982 12.2993719,19.4785616 C10.1491321,18.7034932 10.8347106,15.4917858 10.8347106,15.4917858 L10.839707,15.4907212 C10.626289,15.4176149 10.4207225,15.327829 10.2315728,15.2114268 C8.52744081,14.1630971 8.27833418,11.6278002 9.9403536,11.0876655 C11.6027299,10.547176 12.3507635,12.2829175 12.3507635,12.2829175 L12.2902621,12.2130209 C12.0738367,11.973836 11.3068986,11.2179902 10.4806794,11.4975575 C9.56597989,11.8073719 9.6177284,14.2280411 11.7287108,14.3845453 C11.4781766,14.2507537 11.2547658,14.0317898 11.0413478,13.7060055 C10.4574818,12.8152447 11.2983059,12.5324015 11.2983059,12.5324015 C10.6173669,14.1087998 13.4389098,14.0356935 14.2565363,13.9835254 C15.4507033,13.5588424 16.1859222,12.8480593 16.643312,11.973048 L16.6929989,11.8751549 C16.9770804,11.298822 17.4388913,10.7746572 17.9467404,10.3526991 C17.7854278,10.3756484 17.6228463,10.3979667 17.4584671,10.4198644 L17.210484,10.4524218 C10.2467904,11.3440592 7.07255123,9.761417 6.4584793,9.40244691 L6.34579497,9.33240536 C11.0502699,10.0247856 15.1855113,9.92080435 18.6755022,9.44064522 L18.6755022,0 Z M24.9345738,26.694434 L27.8210701,24.0626084 L23.5869712,21.0595733 L24.9345738,26.694434 Z" id="25"></path>
            </g>
        </g>
    </g>
</svg>