<?xml version="1.0" encoding="UTF-8"?>
<svg width="48px" height="45px" viewBox="0 0 48 45" version="1.1" xmlns="http://www.w3.org/2000/svg" xmlns:xlink="http://www.w3.org/1999/xlink">
    <title>节日-9</title>
    <g id="V1.4" stroke="none" stroke-width="1" fill="none" fill-rule="evenodd">
        <g id="形状汇集备份" transform="translate(-683.000000, -177.000000)" fill="#3D4242">
            <g id="节日-9" transform="translate(683.000000, 177.000000)">
                <path d="M5.89478757,7.25739822 L11.0445571,9.7898109 L16.7825072,7.93449714 C16.5160543,11.0035708 16.2138145,14.1081896 16.2138145,14.1081896 C16.2138145,14.1081896 18.5753952,10.6240748 20.0780904,10.8352544 C21.58114,11.046434 22.2253041,13.5802406 21.259058,17.5919558 C20.2928118,21.6036711 15.9990932,23.9262981 15.9990932,23.9262981 C15.9990932,23.9262981 16.1149577,24.7351229 15.698625,25.7108702 L15.6750091,25.822045 C15.3052303,27.331652 13.5906402,28.0479094 9.02490068,27.7529699 C8.23440007,27.7017431 7.5105127,27.6181076 6.84615204,27.5132148 C6.93898537,28.3164639 7.58421244,30.8345889 11.9948586,31.711019 C14.8709202,32.2825281 16.7732948,34.9048489 17.3161217,37.5348363 C21.3717335,38.2422531 26.4325673,38.9162157 29.6551594,38.2547984 C28.5085615,37.6825924 27.0873612,36.7549355 25.5141551,35.3421928 C22.0523932,32.2344377 21.44189,30.5132892 22.3879396,29.1928941 C22.8156107,28.2227225 23.4888295,27.7449548 23.4888295,27.7449548 C23.4888295,27.7449548 22.2175089,23.0902918 24.4897996,19.6260404 C26.7624445,16.1614406 29.0666244,14.8629998 30.2624736,15.7826416 C31.4583228,16.7022834 30.5395563,20.791013 30.5395563,20.791013 C30.5395563,20.791013 32.0499048,19.0629273 33.7787018,17.1152284 L34.1269911,16.7232074 L34.4901908,16.3152409 L34.6724111,16.1109109 L37.2873347,21.466021 L42.7113523,23.364198 L44.9223446,28.0986632 C43.5287816,30.2094136 41.8708918,32.1163026 40.2973314,33.6771498 C37.3385831,36.612375 34.9916285,36.7019764 34.7843822,36.7040575 L34.7694964,36.7040572 C34.7694964,36.7040572 33.366721,38.4680689 32.3696485,38.9712757 C32.3469716,38.9824271 32.3186256,38.9886998 32.2874449,38.9921846 C32.0440232,39.0507294 31.6060766,39.0043814 31.01577,38.8193379 C27.930302,39.9334322 22.7139192,39.3783017 17.4518285,38.4774779 C17.4745053,38.7524296 17.4808832,39.0245933 17.4713164,39.2922269 C17.3607668,42.3916184 15.3014259,44.4971417 11.9626149,44.9240311 C11.5639985,44.9749094 11.1781379,45 10.8071589,45 C8.81088796,45 7.2429968,44.2730683 6.41422902,42.9310673 C5.64038173,41.677929 5.70770361,40.1254454 6.58997457,38.8796252 C7.22280024,37.9861195 9.21588222,36.0074434 14.0471129,36.9302215 C14.7394653,37.0626444 15.5182732,37.2110973 16.3548361,37.3633836 C15.7326402,34.8166832 13.7356607,32.9850662 11.8113179,32.6027823 C8.73258199,31.9911979 7.29153942,30.5910005 6.62469848,29.5242996 C6.0028569,28.5293859 5.91781874,27.6330923 5.90718897,27.342459 C3.36950841,26.8162525 1.94759943,25.9711856 1.65634372,25.4770393 C1.63756445,25.4526456 1.62232845,25.428252 1.61488761,25.4045552 C1.29280556,24.3486573 1.61488761,22.1316201 1.61488761,22.1316201 L1.60181569,22.1181658 C1.44354121,21.951439 -0.0970233124,20.2205583 0.00483169437,16.1140472 C0.05939785,13.9165249 0.309197458,11.4196573 0.89135456,8.96913774 L5.89478757,7.25739822 Z M11.7415157,37.6104568 C9.74985103,37.6104568 8.17487336,38.2335411 7.34894018,39.3995591 C6.67891031,40.3456855 6.62363551,41.5176277 7.20508396,42.4588753 C7.9892067,43.7283922 9.67969455,44.2992044 11.8435615,44.0218134 C15.9540938,43.4963037 16.5018813,40.5167897 16.5468807,39.2601666 C16.5582191,38.9374731 16.5479436,38.6214006 16.5171173,38.3136918 C15.6295315,38.1558298 14.7437172,37.9903012 13.8710131,37.8233788 C13.1226772,37.6805015 12.408711,37.6104568 11.7415157,37.6104568 Z M31.9749297,35.2909661 L29.10312,36.9695999 C29.4018165,37.1560373 29.6856314,37.3250507 29.9520843,37.4776854 L33.0782999,35.9712013 L31.9749297,35.2909661 Z M29.552405,33.4283342 L26.5888249,35.1606341 C26.8251602,35.3571775 27.062204,35.5464028 27.2981849,35.7262191 L30.6557751,34.108221 L29.552405,33.4283342 Z M27.2538942,31.6942919 L24.4256666,33.0572018 C24.6141679,33.275351 24.8179051,33.497682 25.0351068,33.7224523 L28.298092,32.4595566 L27.2538942,31.6942919 Z M32.8561377,25.9060196 C31.4452128,27.2389601 31.4002134,29.4444975 32.7555092,30.831801 C34.1108049,32.219453 36.3529778,32.2640586 37.7639027,30.9311181 C39.1748276,29.5981777 39.2201813,27.3926403 37.8648855,26.0049883 C36.5095898,24.6173363 34.2670625,24.5730792 32.8561377,25.9060196 Z M25.0744369,29.4793456 L22.7039981,30.4362749 C22.8102958,30.6871813 22.9431679,30.9548149 23.1072207,31.238827 L26.0647772,30.3104732 L25.0744369,29.4793456 Z M36.4741572,27.3191108 C37.0913926,27.9512556 37.0708417,28.9559269 36.4280949,29.5633295 C35.7853481,30.1703837 34.7638271,30.1501718 34.1462375,29.518027 C33.5286478,28.8858821 33.5491987,27.8808624 34.1919455,27.2738082 C34.8350466,26.6664056 35.8565676,26.6866175 36.4741572,27.3191108 Z M36.4319925,14.1541891 L39.1450643,19.7107214 L44.5694362,21.6088983 L46.4076778,25.5453416 C46.0746117,26.2067589 45.7093019,26.8556308 45.3152917,27.4870787 L43.1634719,22.8787637 L37.7327221,20.9784959 L35.1153182,15.6157191 C35.5688551,15.1090275 36.0149511,14.6134873 36.4319925,14.1541891 Z M9.21021301,23.7813299 L10.5446035,26.9706296 C10.8599534,26.9685387 11.1643192,26.9594782 11.4545119,26.9420542 L10.4946436,23.9918126 L9.21021301,23.7813299 Z M6.36816669,23.2512901 L7.50732377,26.7535259 C7.80318571,26.796389 8.10613417,26.833328 8.41368887,26.8650398 L7.63098343,23.5628322 L6.36816669,23.2512901 Z M12.3332396,23.8768138 L13.7012911,26.6176182 C14.0230188,26.537119 14.3114399,26.445817 14.5690347,26.3475453 L13.6290086,24.0033124 L12.3332396,23.8768138 Z M3.32380039,22.8237037 L4.38500582,26.084442 C4.6812221,26.167729 5.00188684,26.2520614 5.34522843,26.3346515 L4.58697146,23.1348974 L3.32380039,22.8237037 Z M47.9103731,21.5078388 C47.649235,22.6365693 47.2495557,23.7492697 46.7527911,24.8316522 L45.0212014,21.123464 L39.5911603,19.2231962 L36.8777342,13.6656185 C37.6133143,12.8616724 38.2177939,12.2194216 38.540939,11.9145006 C39.9341476,10.5979387 48.9931924,16.8249488 47.9103731,21.5078388 Z M7.3159879,12.5243426 C5.35940146,12.5243426 3.77379401,14.0841444 3.77379401,16.0084574 C3.77379401,17.932422 5.35940146,19.4922237 7.3159879,19.4922237 C9.27222001,19.4922237 10.8581818,17.932422 10.8581818,16.0084574 C10.8581818,14.0841444 9.27222001,12.5243426 7.3159879,12.5243426 Z M7.3159879,14.4211257 C8.20747132,14.4211257 8.92994139,15.1316788 8.92994139,16.0084574 C8.92994139,16.8848876 8.20747132,17.5954407 7.3159879,17.5954407 C6.42450447,17.5954407 5.7020344,16.8848876 5.7020344,16.0084574 C5.7020344,15.1316788 6.42450447,14.4211257 7.3159879,14.4211257 Z M5.89478757,4.72359162 L11.0445571,7.2560043 L16.9982916,5.3309943 C16.9504576,5.94501813 16.8962458,6.60469299 16.838845,7.27761013 L11.0930997,9.13606022 L5.93766098,6.60051121 L1.06780875,8.26659969 C1.25808165,7.54977392 1.4809525,6.8413117 1.73464969,6.14678873 L5.89478757,4.72359162 Z M17.1800607,2.28387494 C17.1800607,2.72400666 17.1279748,3.59799744 17.0478972,4.67654666 L11.0930997,6.60190514 L5.93766098,4.06670461 L2.01917322,5.40731168 C2.46881251,4.30541422 3.00738756,3.25091019 3.65438626,2.28387494 C6.338049,-1.72818879 17.1800607,0.38360711 17.1800607,2.28387494 Z" id="114"></path>
            </g>
        </g>
    </g>
</svg>