<?xml version="1.0" encoding="UTF-8"?>
<svg width="52px" height="42px" viewBox="0 0 52 42" version="1.1" xmlns="http://www.w3.org/2000/svg" xmlns:xlink="http://www.w3.org/1999/xlink">
    <title>节日-27</title>
    <g id="V1.4" stroke="none" stroke-width="1" fill="none" fill-rule="evenodd">
        <g id="形状汇集备份" transform="translate(-540.000000, -458.000000)" fill="#3D4242">
            <g id="节日-27" transform="translate(540.000000, 458.000000)">
                <path d="M33.9006474,20.6177729 C32.5809053,20.0543488 31.2737986,19.4842845 32.1160528,17.6871043 C32.8984547,18.3421637 34.248123,19.0958306 35.4913872,19.7256571 L33.9006474,20.6177729 Z M1.90729173,36.873073 C3.44782216,36.7996984 4.98868511,36.7996984 5.94199846,36.506864 C5.20847588,37.3856993 4.108192,38.6307438 2.86093759,39.5829537 C4.32831528,39.1433701 6.01515121,38.3379093 7.04228234,37.6785338 C5.94199846,38.9972848 5.13499061,39.9491628 4.40180054,40.9013728 C5.94199846,40.0225374 7.48219638,39.4365365 8.65629804,38.6307438 C7.77580493,40.0225374 7.40871112,40.8279982 6.52921555,42 C8.21605148,40.6082063 10.4279247,38.5271561 11.3702651,37.7519084 C12.1237384,37.1323743 11.965795,37.2675031 14.0842322,34.9686531 C14.8353779,34.0821814 15.649036,33.3215423 15.6393932,31.6837278 L28.5817774,24.4252848 C28.5974055,24.4764146 28.6123685,24.5302005 28.6240065,24.5889666 C28.7510262,25.2231093 28.4371344,25.8280349 27.9290553,26.41968 C27.4213087,27.0113251 26.3196948,27.8137977 24.7971201,28.9127569 C23.5974149,29.7786438 19.21091,32.4622956 17.81469,33.0961062 C16.4181374,33.7295848 17.5530026,33.677459 18.7380772,33.3398029 C19.9228192,33.0014829 21.3373274,32.5725236 23.1046314,31.7016565 C22.4276359,32.4622956 22.0043475,33.1807693 21.1581032,33.9835739 C20.3115264,34.7863786 19.0240379,35.9540642 18.2063897,36.6038114 C17.3398621,37.29174 17.2647143,37.7864376 18.3646656,37.152627 C19.4649495,36.5188164 20.6922532,35.6313487 21.8769952,34.9128751 C23.0620698,34.1947334 23.6017376,33.5755313 24.5078342,32.612033 C25.2682903,31.8032521 25.6014678,31.2368399 26.1095469,30.5608638 C26.6172935,29.8845556 27.0402494,29.9688866 26.9554587,30.6026973 C26.8710005,31.2368399 26.7147197,31.8799468 26.418451,32.5134254 C26.1218499,33.1475681 26.2475396,33.3869486 26.8710005,32.8002837 C27.6982917,32.0220479 28.0979717,31.5748279 28.8597578,30.9831828 C29.6218765,30.3915377 29.7488963,30.5183662 29.4948567,31.5326624 C29.2408172,32.5466266 28.3746221,34.3348424 27.9935628,35.0108186 C27.6128359,35.6871267 27.5021093,36.1476271 28.5059645,35.4042526 C29.648145,34.5586184 30.4358671,33.5755313 31.4008184,32.1399121 C32.214144,30.9303929 32.4994397,30.2650412 32.83827,29.50407 C33.1764352,28.7437629 33.0923095,28.7855964 33.5574945,29.081751 C34.0226795,29.3775735 34.7458942,29.7630393 35.5495769,29.9745308 C35.2958699,29.6365428 34.9650199,29.0458937 34.7000075,28.0674548 C34.4476305,27.1354975 34.4459679,26.1663549 34.6152168,25.7012063 C34.7844656,25.2363897 35.1794905,24.0687041 35.6872371,23.3505624 C36.1953162,22.6320888 35.7075204,21.6148045 35.2669413,21.3053695 C35.100685,21.1885013 34.913813,21.0835855 34.7163006,20.984978 L36.2717941,20.1127829 C37.2816346,20.6028324 38.103273,20.9650573 38.2974603,21.0530404 C38.4663766,20.6303894 39.0047144,20.0101912 39.4166974,19.4929168 C39.8925227,18.8956275 40.0747396,18.2641409 40.4976955,17.7574908 C40.8365257,17.7993243 41.1547402,17.8876395 41.6621543,17.8876395 C42.1699009,17.8876395 42.5649257,17.4952015 42.6856278,17.0383532 C42.7351722,16.8501025 42.7554554,16.6608557 42.7524628,16.4779172 L51.8164212,11.3944838 C51.9896602,11.2972043 52.051175,11.0784085 51.9537488,10.9054303 C51.8566552,10.7321201 51.6371969,10.6703659 51.4636254,10.7679774 L42.6071548,15.7348747 C42.5961819,15.7046616 42.5842115,15.6734525 42.5712435,15.6442354 C42.4026596,15.2640819 41.7895066,15.2717181 41.3702083,15.3268321 C40.8651218,15.3932345 40.6250478,15.6867329 40.4554664,16.2358805 C39.5244314,16.109052 36.7313264,15.4755734 35.8002913,15.0947558 C34.8689238,14.7142702 33.516928,13.9735518 32.9227281,13.4894785 C32.5223831,13.1634429 32.3717549,12.5445728 32.413984,12.2487502 C32.4562131,11.9529277 32.414649,11.7567087 32.7112502,11.8835372 C33.0071863,12.0103657 33.6762015,12.2616987 34.261091,12.2753112 C34.6923597,12.2852715 35.0385052,11.9160744 34.6993424,11.7049148 C34.3611772,11.4934233 34.1247608,11.2806037 33.955512,10.8157871 C33.4477654,10.6889586 32.214809,10.3380221 32.0419025,9.10426602 C32.6939595,9.8742015 33.5574945,10.1932649 34.0652411,10.1932649 C34.0652411,9.98210535 34.1922609,9.89777434 34.3615097,9.93993984 C34.5307586,9.98210535 34.8722489,10.1354948 34.9962761,10.2779279 C35.1645274,10.4708268 35.4514857,10.5471895 35.5362764,10.2935325 C35.6210671,10.0402074 35.5223109,9.71848794 35.4378527,9.50699639 C35.3527295,9.29583686 34.7422366,8.88314613 34.4459679,8.62982109 C34.1500318,8.37649605 33.9382213,8.33399853 34.1500318,8.03817597 C34.3106353,7.81439999 34.3242683,7.56605512 34.2298348,7.29314139 C34.8572859,7.5541027 36.6614987,8.13246734 37.4502184,8.21513829 C36.1211659,7.56505909 35.1013501,7.15967262 34.1284185,6.14537642 C34.287692,4.89800791 34.4163743,3.76651153 34.327261,2.88136794 C34.2005737,1.6137467 33.8713863,1.00118484 33.2715338,0.540352392 C32.5888856,0.0161056832 31.4171115,-0.0771896463 29.7911254,0.0519629628 C28.9013219,0.123013498 26.6984266,0.727607075 25.2370341,0.43576866 C26.125175,0.942750753 28.8727258,1.1207091 29.6218765,1.10842467 C30.7261505,1.09049603 31.6528629,1.36208172 31.4413849,2.12272086 C31.216939,2.9308377 30.4794262,4.03411308 30.2140813,4.40430629 C29.9560516,4.76553518 29.7296105,4.92490087 29.4110636,5.24296822 C28.3533413,5.28546574 26.6119733,5.20246277 25.3846696,4.99097123 C26.2392268,5.31435077 27.6381069,5.66462327 28.9369007,5.96376594 C27.6238089,6.15434074 25.4239061,6.5424626 24.4163932,6.68622373 C25.3899898,6.5593952 26.1940051,6.93954877 26.7439808,7.15104031 C25.4318864,7.06637729 23.9083141,7.53119388 22.469865,7.91167946 C23.3161094,7.86918194 24.4163932,8.1650045 25.0937212,8.37649605 C23.6549396,8.29183303 21.9621184,8.71448411 20.7767114,9.30646124 C21.750308,9.01030667 22.469865,9.09463768 23.5701489,9.30646124 C22.5543232,9.7284483 20.607795,10.1510994 19.4649495,10.1510994 C20.396317,10.3204254 21.5384975,10.1510994 22.8083628,10.3200934 C22.0043475,10.6584135 20.607795,10.953904 19.8463414,11.1653956 C20.9885218,11.2918921 22.4276359,10.9117385 23.866085,10.78491 C22.1739289,11.5877146 19.450984,12.1727195 17.9699733,12.299216 C19.3482376,12.5352765 20.1845066,12.4330168 21.3270196,12.3058563 C22.469865,12.1793598 24.289706,11.4612181 25.5163446,11.0385671 C25.0937212,11.4190526 23.9083141,12.1793598 22.8509244,12.6441764 C23.9083141,12.4330168 25.685926,11.6723777 26.5325028,11.3765551 C26.1514435,11.6723777 25.7281551,11.9678682 25.0514921,12.3483538 C24.3741641,12.7288394 22.2770078,13.1863517 21.218953,13.4400088 C22.2770078,13.4400088 23.7819594,13.193656 24.8396817,12.9399989 C25.8977364,12.6863419 27.6327867,11.9257027 28.3942403,11.3343896 C27.8868262,12.0525312 27.1523061,12.8722685 26.3632539,13.531644 C25.6516772,14.1266093 22.8509244,15.5177389 22.0469091,15.855727 C21.2425614,16.193715 16.8121648,17.8404938 15.902078,18.1001271 C14.7994666,18.4145423 14.9876686,18.6761676 15.9612653,18.5918366 C16.9345294,18.5071736 19.053299,18.23758 20.819273,17.8418218 C20.0574868,18.517466 17.1669556,20.0629811 16.5325217,20.4006372 C15.8977554,20.7389572 15.6989129,21.2223665 16.7991968,20.7572179 C17.8991481,20.2927333 20.6922532,19.0247801 21.8347661,18.5599635 C21.4540393,19.0247801 19.6135826,20.3212863 19.1909592,20.6171089 C18.7673383,20.9129314 18.9572029,21.179869 19.5923018,20.8418809 C20.2267357,20.5038928 22.0043475,19.4052656 23.1890896,18.855786 C22.6816755,19.4474311 20.861502,20.9687094 20.3115264,21.3913605 C19.7615507,21.8140116 19.7815014,22.0719848 20.9037311,21.5600225 C21.9321923,21.0915538 23.7004938,19.9879464 25.2204085,18.7289575 C24.7123294,19.6164252 24.2049153,21.0108749 24.2049153,21.6025201 C24.2049153,22.1938332 24.5437455,23.0391353 25.1781794,23.4192889 C25.8132783,23.7997745 26.7017517,23.7997745 27.4213087,23.7997745 C27.6893138,23.7997745 27.907442,23.8216873 28.0813461,23.8814494 L15.2004766,31.1060272 C13.853136,30.5495754 12.3717928,30.7836437 10.0495254,31.379937 C7.4825289,32.0389805 3.00790812,33.5038168 0,34.4560268 C2.49450881,34.6758186 4.4752858,34.7491932 5.79569296,34.6758186 C4.4752858,35.7007392 3.0817259,36.3604467 1.90729173,36.873073 L1.90729173,36.873073 Z" id="6"></path>
            </g>
        </g>
    </g>
</svg>