<?xml version="1.0" encoding="UTF-8"?>
<svg width="40px" height="48px" viewBox="0 0 40 48" version="1.1" xmlns="http://www.w3.org/2000/svg" xmlns:xlink="http://www.w3.org/1999/xlink">
    <title>节日-1</title>
    <g id="V1.4" stroke="none" stroke-width="1" fill="none" fill-rule="evenodd">
        <g id="形状汇集备份" transform="translate(-475.000000, -105.000000)" fill="#3D4242">
            <g id="节日-1" transform="translate(475.500000, 105.000000)">
                <path d="M31.0248392,32.4753701 C31.0248392,32.4753701 31.1329414,28.8084538 35.3622458,30.1524275 C34.9534045,34.3826982 31.0248392,32.4753701 31.0248392,32.4753701 Z M33.5403916,37.9550404 C29.2844459,38.1390764 30.6318802,33.992133 30.6318802,33.992133 C30.6318802,33.992133 34.2863476,33.5892988 33.5403916,37.9550404 Z M33.3795192,18.5688982 C34.1982265,22.9218596 30.5376111,22.5793482 30.5376111,22.5793482 C30.5376111,22.5793482 29.1215242,18.4548982 33.3795192,18.5688982 Z M22.7455467,29.2567859 C22.7455467,29.2567859 24.7031691,33.0116304 23.9198127,33.7856038 C23.1364564,34.5600884 19.7140756,31.1441767 19.7140756,31.1441767 C19.7140756,31.1441767 16.7891696,34.6720436 15.7265921,34.1531645 C14.6640146,33.6337741 16.552472,29.1918621 16.552472,29.1918621 C16.552472,29.1918621 13.282254,28.3258707 13.3596162,27.0054128 C13.4369784,25.6849548 17.8496978,26.0883003 17.8496978,26.0883003 C17.8496978,26.0883003 18.4829407,21.8917695 19.6490094,21.9699848 C20.8145657,22.0482 21.2894979,26.148112 21.2894979,26.148112 C21.2894979,26.148112 24.548957,25.5050086 25.2616114,26.3791793 C25.9742659,27.2533501 22.7455467,29.2567859 22.7455467,29.2567859 Z M5.42922208,38.1349867 C4.61102715,33.7820253 8.27164255,34.1245367 8.27164255,34.1245367 C8.27164255,34.1245367 9.68721712,38.2489867 5.42922208,38.1349867 Z M3.47826009,30.3635576 C7.68450955,28.9500593 7.85357926,32.6144195 7.85357926,32.6144195 C7.85357926,32.6144195 3.9567786,34.5866714 3.47826009,30.3635576 Z M7.78492671,24.3322906 C7.78492671,24.3322906 7.67682456,27.9997181 3.44752014,26.6557445 C3.85584911,22.4249625 7.78492671,24.3322906 7.78492671,24.3322906 Z M5.26937436,18.8531315 C9.52480773,18.6685843 8.17737337,22.8160389 8.17737337,22.8160389 C8.17737337,22.8160389 4.5234183,23.2188731 5.26937436,18.8531315 Z M35.3304812,26.3403273 C31.1242317,27.7543368 30.955162,24.0894654 30.955162,24.0894654 C30.955162,24.0894654 34.8519627,22.1172135 35.3304812,26.3403273 Z M35.3975967,17.2653102 L3.42292819,17.53114 C1.2352686,20.70576 -0.0301925642,24.5602907 0.00054738312,28.7010995 C0.0210406813,30.914643 0.405290023,33.0412806 1.10718549,35.0145549 C1.74760106,36.834466 2.6544295,38.5265743 3.77643758,40.049983 L35.4129667,39.7892654 C37.7030928,36.5686363 39.0351572,32.6271997 38.9992939,28.3790366 C38.968554,24.2382278 37.6364896,20.4041456 35.3975967,17.2653102 L35.3975967,17.2653102 Z M8.1005235,44.3288187 C11.3538346,46.6701649 15.3500278,48.0350982 19.663867,47.9993135 C23.1625854,47.9711969 26.4389514,47.0188108 29.2675389,45.3808909 C30.0462842,44.9300028 30.793265,44.4300385 31.4987467,43.8794643 C31.4982344,43.8794643 31.4982344,43.8794643 31.4982344,43.8794643 C31.4982344,43.8794643 31.4982344,43.8789531 31.4987467,43.8789531 C31.8010229,43.6489081 32.0930524,43.4035269 32.3748352,43.1530335 C32.9025377,42.6878315 33.4046235,42.197069 33.8810927,41.6807459 L5.34417489,41.915903 C6.1792768,42.8054101 7.10659854,43.6131234 8.1005235,44.3288187 M19.3006233,5.24782306 C18.4255595,5.25498001 17.711368,4.55359857 17.7036831,3.68249509 C17.6965104,2.80934676 18.3994305,2.09620746 19.2744944,2.08905051 C20.1475089,2.08189356 20.8622126,2.783275 20.8693853,3.65642333 C20.8765579,4.52752681 20.1736378,5.24066611 19.3006233,5.24782306 Z M25.5961645,10.0547398 C25.1243063,8.38614717 23.6585232,7.03092691 21.7301038,6.41287285 C22.4980902,5.7344959 22.9807073,4.74274663 22.9714854,3.63801973 C22.9550907,1.61260189 21.2951336,-0.0161162442 19.2652724,0.000120348435 C17.2333619,0.0171124685 15.6010707,1.67343599 15.6179776,3.69885384 C15.6266873,4.80358073 16.1262114,5.78715063 16.9054691,6.45274731 C14.9872964,7.10249644 13.5440558,8.48225484 13.1003759,10.1585156 C9.91059407,11.2642649 7.09993822,13.1710818 4.90869231,15.6397196 L33.8810927,15.3994504 C31.6483478,12.9686423 28.8043904,11.1078344 25.5961645,10.0547398 L25.5961645,10.0547398 Z" id="108"></path>
            </g>
        </g>
    </g>
</svg>