<?xml version="1.0" encoding="UTF-8"?>
<svg width="38px" height="48px" viewBox="0 0 38 48" version="1.1" xmlns="http://www.w3.org/2000/svg" xmlns:xlink="http://www.w3.org/1999/xlink">
    <title>节日-20</title>
    <g id="V1.4" stroke="none" stroke-width="1" fill="none" fill-rule="evenodd">
        <g id="形状汇集备份" transform="translate(-758.000000, -315.000000)" fill="#3D4242">
            <g id="节日-20" transform="translate(758.500000, 315.000000)">
                <path d="M26.7013745,0 C26.7013745,0.232175646 26.6458003,0.550015627 26.5695639,0.688869789 L26.536,0.735 L26.6659667,0.644942692 C27.0133666,0.427125671 27.3544484,0.408728453 27.5190611,0.243153495 C27.3236353,0.439739032 26.9572893,0.941360316 26.7137825,1.18638903 C26.827936,1.17982576 26.9554281,1.1332578 27.2221999,1.10044146 C26.7997079,1.30015236 26.41475,1.51674024 26.0418899,1.85209204 L26.0322737,1.8611556 C26.0024945,1.88803375 25.9733357,1.91709966 25.9438667,1.94554049 C23.4802603,4.32488182 23.3220584,7.39305387 25.132074,9.02887057 C27.2612851,10.9531586 30.646495,11.4841583 33.1209585,13.1462281 C37.1771305,15.8706098 37.4510369,20.9402664 36.6215627,23.3552369 C35.6258215,26.2530765 34.2407796,28.1886159 32.3221941,29.6922296 C31.4551858,30.3716842 30.5770103,31.2433488 30.5611901,32.3253506 C30.5435087,33.5389303 30.5624309,34.2290112 30.4823994,35.5075985 C30.2953489,38.4876353 29.9240398,40.622573 29.0902229,43.4663437 C28.6329884,45.0255889 28.2480305,46.9270618 28.1078202,47.6508966 C28.0761799,47.8121655 27.9775363,47.9493691 27.7718739,47.9493691 C27.6976741,47.9492441 27.6113641,47.9491079 27.5162961,47.9489733 L25.8524472,47.948639 C25.7041816,47.9489315 25.5739225,47.9493691 25.4729835,47.9499941 C25.2245135,47.9287416 25.1578206,47.675587 25.2195503,47.5549478 C25.4866323,47.0326991 25.9885355,46.7173497 26.4575575,46.6082744 C26.579466,45.6081572 26.6505018,44.5592843 26.6505018,43.4772825 C26.6505018,38.8329882 24.0764642,35.238192 20.9012595,35.238192 C17.726365,35.238192 15.1523275,38.4510685 15.1523275,43.4772825 C15.1523275,44.9333906 15.2702034,46.3254288 15.4864126,47.6212056 C15.4923064,47.8240419 15.3976955,48 15.215298,48 L12.3332321,47.9949994 C12.1012027,47.9949994 11.9814656,47.8249795 12.0723541,47.6046412 C12.2578535,47.1845919 12.6915128,46.686096 13.2315706,46.3910615 C13.2629007,45.086221 12.8000827,43.4438411 12.5227641,42.3868422 C12.1083373,40.806032 11.8505613,40.1378287 11.2872385,38.6657811 C10.4109242,36.3745751 10.0656719,35.5422901 9.06217565,33.9811697 C7.92467315,32.2125249 6.849831,30.8545533 5.53582483,29.9022542 C4.65175553,29.2615541 3.9308513,28.9349533 3.00273363,28.7249287 C2.06499977,28.5130289 1.59566754,28.2936282 0.807139764,27.9954682 C1.16759188,27.8660781 1.40830689,27.8104465 1.89376951,27.5272884 C1.3900051,27.6241747 0.628154505,27.464781 0.0974027232,27.2822596 C0.462507835,27.1994374 0.826682348,27.0078525 1.21133004,26.7490722 C0.878795907,26.687815 0.692365854,26.5540493 0.36727651,26.3915303 C1.45948985,25.8424034 2.05042038,24.8332226 1.99706603,23.8049771 C1.94340147,22.7764191 1.06491576,21.0040239 0,20.3830136 C2.43568848,20.9333906 2.94689768,21.6869164 4.29998901,23.018635 C5.18591951,22.2044771 6.98631889,22.3116771 7.59772261,22.6401531 C8.39524618,20.654608 10.4652091,19.4375903 11.3235319,19.2619448 C10.3991366,20.0798531 9.88017241,21.9903895 10.0259663,23.0095714 C10.1723806,24.0290659 10.7375645,24.9282338 11.9150828,25.2529593 C11.719657,25.5514318 11.6129482,25.6230027 11.3654088,25.7436418 C11.618842,25.9152244 11.7612237,25.9749189 11.9920123,26.0346134 C11.5065497,26.4046568 11.210309,26.5896785 10.8467548,26.6409345 C11.1749462,26.7984529 11.3350093,26.8253311 11.7137632,26.8819002 C11.3821596,27.2460054 11.2239577,27.3988358 10.8262817,27.6319881 C10.3246887,27.9263976 10.3389578,28.4874009 10.7462501,28.7236786 C11.1098042,28.9343282 11.4910397,28.4464586 11.7770439,27.3578935 C12.1992258,25.748955 12.3946516,24.6253858 12.8298619,23.1567762 C12.98217,22.6426534 13.3717809,21.4981443 13.5454927,20.8774466 C13.663989,21.1640427 13.7744201,21.4822049 13.7744201,21.4822049 C14.221418,20.4570848 14.4081582,18.9403446 14.6318123,18.2708911 C14.7862917,18.8587725 14.9283632,19.6785561 14.9283632,20.1123569 C15.3660551,19.1750596 15.5521749,16.5094347 15.7755188,15.833418 C15.9991728,16.072196 16.1185997,18.6556237 16.1185997,18.982537 C17.00422,17.7698949 17.4245407,15.0617651 17.6854187,14.2266672 C17.9456762,14.7836075 17.8979055,17.1463843 17.8979055,17.8430285 C18.3449033,17.100754 19.046265,13.6119076 19.1948507,12.8958862 C19.3440567,13.3731297 19.3701135,16.9704262 19.6902397,17.2576474 C19.9458443,16.7328984 20.3553079,13.6459741 20.3553079,13.0893464 C20.5414278,13.6462867 20.6537201,16.6728914 21.0256496,17.1545103 C21.5396506,16.6928937 21.7329051,14.1629097 21.8821111,13.5268977 C22.1795927,13.84506 22.0887042,16.9482361 22.572926,17.3829746 C23.2373739,16.9779271 23.4684727,15.0176974 23.8779364,14.3994999 L23.8772383,14.6923752 L23.8769855,14.7845738 L23.8769309,15.3311148 C23.8797986,16.2969801 23.9022232,17.6109057 24.0215589,17.9674181 C24.4766219,17.5586202 24.6419584,15.7743486 24.9586723,15.4364965 C24.9586723,15.906239 25.0613484,18.3199594 25.2961697,18.8143923 C25.5309909,18.6034301 25.8675576,16.712271 25.8675576,16.473493 C26.0536775,16.9110443 25.894545,18.9753487 26.0663956,19.4932219 C26.403893,19.1900613 26.5022263,18.3402743 26.7252599,17.8736571 C26.8968004,18.547486 26.5403809,19.9545259 26.8546132,20.3317576 C27.0398025,20.0442239 27.2929255,19.4466539 27.6344554,19.3078876 C27.5652809,19.6673048 27.3003703,20.6886745 27.5845132,21.2256124 C27.655549,21.0524671 27.9775363,20.7424308 28.2691241,20.569598 C28.1490768,21.0880963 28.0811431,21.7875532 28.4167792,22.5126382 C28.871532,23.4949408 28.9791713,23.8265422 29.2822365,24.8260343 C29.8191923,26.5974919 31.6453382,26.7071922 32.9366998,24.9723014 C35.6100013,21.3812556 34.6673043,17.0016799 32.4450332,15.0348869 C30.3105487,13.1459155 27.3400758,12.5295933 25.1925629,10.8390827 L25.1786039,10.8300191 C24.6596398,10.4509122 24.2991876,10.3559011 24.06995,10.1252491 C24.1940299,10.1252491 24.2725105,10.1743173 24.4502549,10.1743173 C24.2551393,9.98085713 23.7479627,9.74770481 23.4889459,9.48673673 C23.6344296,9.52736649 23.7389669,9.52549127 23.8984096,9.52549127 C23.563704,9.22420596 23.1700605,8.90854397 22.9414433,8.47505567 C23.2237251,8.65726452 23.4027103,8.7116459 23.4027103,8.7116459 C23.2032519,8.35379146 22.6616431,7.49150291 22.6616431,7.19678087 L22.7199013,7.25549076 L22.8036431,7.33993302 C22.8153713,7.35176241 22.8264561,7.36294292 22.8376039,7.37418447 L22.9415266,7.47888135 C22.9635364,7.50103528 22.9890073,7.52666328 23.0196136,7.55744814 C22.7785884,6.84298941 22.574477,6.41481424 22.5015801,6.03164433 C22.7212015,6.25292026 22.7115853,6.259171 22.9098029,6.4588819 C22.7286463,5.92225651 22.6321742,5.13216393 22.6321742,4.77837247 C22.7326789,4.90682502 22.8828156,5.15747939 23.0084465,5.32812439 C22.9172477,4.98464664 22.8958439,4.30644216 22.8958439,3.8638903 C23.0072057,4.02984725 23.1660279,4.24143454 23.2302393,4.42833145 C23.2432677,4.15517443 23.2761488,3.15568231 23.4228733,2.59530414 C23.4228733,2.80220338 23.58852,3.1453686 23.58852,3.51947494 C23.83699,2.89502676 23.7305915,2.10930968 24.0085305,1.82896433 C24.0085305,2.0061726 23.9347029,2.29058093 24.0594032,2.67906395 C24.1837933,2.18244326 24.2864694,1.45985858 24.5647186,1.17982576 L24.5647186,2.0027347 C24.7694505,1.38609993 24.9158648,1.23889518 25.1205966,0.766964879 L25.1205966,1.43110521 C25.4140456,0.914794703 25.7639509,0.649763644 25.9395239,0.17783334 C25.9395239,0.32503809 26.0316533,0.697581748 25.852668,0.877915381 C26.2587195,0.468492401 26.3793872,0.324413017 26.7013745,0 Z M2.72541505,25.0823143 C2.6646159,26.0421143 3.08028357,27.0812986 4.0598944,27.3985233 C4.9430331,27.6841817 5.81159242,27.0922374 5.87208137,26.0183615 C5.55470784,25.6061512 5.05892834,25.3098034 4.51564522,25.1431656 C4.61038062,25.3177909 4.69570816,25.5845517 4.74543586,25.8895964 C4.83663459,26.449037 4.77335384,26.9250303 4.60429497,26.9531586 C4.4349259,26.9809743 4.22367987,26.5502989 4.13248114,25.9908583 C4.0673559,25.5915835 4.0810063,25.2345434 4.15581064,25.0528961 C3.66448944,24.9563516 3.15740681,24.9628942 2.72541505,25.0823143 Z M9.39408939,23.978435 C8.94703116,24.0045828 8.46449898,24.161929 8.02885356,24.4124084 C8.15771669,24.5584352 8.28440244,24.8928243 8.34964682,25.2932766 C8.44084554,25.8524046 8.37725459,26.3283979 8.20819573,26.3565262 C8.03913686,26.3846545 7.82789083,25.9536664 7.7366921,25.3945384 C7.68678613,25.0884001 7.68313937,24.8072503 7.71782212,24.6108049 C7.25633982,24.9455404 6.88015365,25.3864296 6.71024111,25.8795953 C7.1082274,26.8775247 8.1191684,27.1581826 8.86519881,26.6031176 C9.69250156,25.9867953 9.75671291,24.8685393 9.39408939,23.978435 Z" id="67"></path>
            </g>
        </g>
    </g>
</svg>