<?xml version="1.0" encoding="UTF-8"?>
<svg width="40px" height="48px" viewBox="0 0 40 48" version="1.1" xmlns="http://www.w3.org/2000/svg" xmlns:xlink="http://www.w3.org/1999/xlink">
    <title>节日-8</title>
    <g id="V1.4" stroke="none" stroke-width="1" fill="none" fill-rule="evenodd">
        <g id="形状汇集备份" transform="translate(-616.000000, -175.000000)" fill="#3D4242">
            <g id="节日-8" transform="translate(616.000000, 175.000000)">
                <path d="M21.3575827,0.00232198131 C23.3552051,0.121583229 23.3713583,4.02467862 23.3713583,4.02467862 C23.3713583,4.02467862 26.4230858,2.49471527 27.9000755,3.36040181 C29.0200362,4.01633868 27.9667595,6.80980406 25.85565,8.47445757 C32.0257889,12.372549 36.290255,22.9079876 36.1386626,33.8437436 C32.6708764,33.4858598 27.6231681,33.5148148 22.5825068,33.6984663 L21.7427339,33.7304675 C21.3231522,33.7471445 20.9042317,33.7648062 20.4868908,33.7833182 L19.6545872,33.8214364 C11.772881,34.1935741 4.68242711,34.8403673 4.68242711,34.8403673 C4.68242711,34.8403673 5.26270265,14.427929 15.4579077,8.41482695 C14.24724,6.99161492 12.6281843,4.71480927 13.6789759,3.71318159 C15.2636541,2.20323411 18.8645931,4.36619947 18.8645931,4.36619947 C18.8645931,4.36619947 19.3599604,-0.116522269 21.3575827,0.00232198131 Z M23.0064599,12.7791214 L22.3213951,12.9792802 L23.3568618,16.5750485 L22.4427518,18.1025099 L20.4451295,13.9045973 L18.5079784,18.7325929 L17.2066038,16.7856322 L18.0188239,13.1156383 L17.3221619,12.9592643 L16.6578065,15.9649813 L15.0631878,13.5801734 L14.471315,13.9817418 L16.0274144,16.3081702 L13.1330779,15.9111887 L13.0369866,16.6234202 L16.5608868,17.1063031 L17.6990718,18.8084864 L13.1537872,18.4561236 L16.0145746,22.1411294 L14.0422176,22.202845 L11.5682806,19.50654 L11.0447487,19.9935929 L13.0991146,22.2324518 L10.6699097,22.3083454 L10.6922758,23.0264148 L13.060181,22.9521893 L11.070014,25.1418425 L11.5956169,25.6268104 L14.0554716,22.9213315 L16.3069904,22.8508589 L13.4234227,27.0892202 L17.4008574,26.5258568 L16.8802247,27.3952963 L13.3960864,28.1000218 L13.5364957,28.8039134 L16.3811298,28.228457 L14.7326668,30.9831417 L15.343178,31.3534353 L17.0454852,28.5107643 L17.9016091,31.4852065 L18.587088,31.2850478 L17.5462369,27.6734335 L18.3104113,26.3970046 L18.6877354,26.3432119 L20.9848147,31.1703735 L22.8515541,26.5158488 L23.6505202,27.7101293 L22.8896592,31.1486896 L23.5854928,31.3050636 L24.1997317,28.5311971 L25.9857046,31.2028993 L26.5771632,30.8021648 L24.6536803,27.9252999 L27.7741627,28.3527222 L27.8698398,27.6413247 L24.1202078,27.127167 L23.5349621,26.2510555 L28.276157,26.6184302 L25.136622,22.5748067 L27.0791575,22.5139251 L29.6964031,25.0530221 L30.190942,24.5359453 L28.0740339,22.4826503 L31.302619,22.3817369 L31.2802529,21.6640844 L27.9791851,21.7674998 L29.8952127,19.3964527 L29.3410309,18.9431766 L27.036082,21.7966896 L25.3780928,21.8483973 L28.0061072,17.9853336 L22.9136821,18.7067391 L24.0112768,16.8727846 L27.5111542,16.1647231 L27.3707449,15.4599975 L24.5103717,16.0392069 L25.7719843,13.9304512 L25.161059,13.5601575 L23.8580277,15.7373008 L23.0064599,12.7791214 Z M20.670447,18.6341815 L21.677749,20.7504432 L23.9855972,20.4235172 L22.6684835,22.359219 L24.1040546,24.2081854 L21.7800531,24.0280425 L20.9073618,26.2035178 L19.900474,24.0872561 L17.5926258,24.4145991 L18.9093253,22.4784803 L17.4741684,20.6295139 L19.7981699,20.8100738 L20.670447,18.6341815 Z M31.7234327,35.8353231 C31.0971824,37.1535908 30.1330376,39.1172262 29.128731,41.1437831 L28.6246092,42.1596085 C28.2881347,42.8367257 27.9527113,43.5100481 27.6293661,44.1580037 L27.1547855,45.1082154 C26.6148928,46.1883079 26.1288752,47.157682 25.755831,47.900725 C23.3552051,47.9670276 20.8149982,48.0008044 18.3120681,47.9999855 L23.288521,35.8236471 C26.3050426,35.7827814 29.221331,35.7861174 31.7234327,35.8353231 Z M21.1703703,35.8599259 C19.8284055,38.699261 16.6776875,44.9971723 15.1799884,47.9824565 C12.507656,47.9515987 9.98277401,47.8819601 7.84888426,47.7756258 L12.5962919,36.159747 C15.2980316,36.0188019 18.2441415,35.9187225 21.1703703,35.8599259 Z M33.8154896,35.8924517 C36.9173336,35.999203 39.0537085,36.1931068 39.3560647,36.479584 C40.6640663,37.7155642 39.7934459,44.6777523 38.4021928,46.5471515 C37.9494868,47.1547167 34.0507476,47.5617061 28.9537664,47.7868847 Z M10.4280247,36.2840122 C9.12747853,39.020766 6.39508902,44.4909375 4.84810178,47.5758841 C3.06088627,47.419093 1.87051377,47.2210193 1.61827408,46.9824968 C0.123474364,45.5701267 -0.982818249,40.8722343 1.32751503,37.6847064 C1.77359408,37.0692183 5.48512089,36.6009302 10.4280247,36.2840122 Z" id="113"></path>
            </g>
        </g>
    </g>
</svg>