<?xml version="1.0" encoding="UTF-8"?>
<svg width="48px" height="44px" viewBox="0 0 48 44" version="1.1" xmlns="http://www.w3.org/2000/svg" xmlns:xlink="http://www.w3.org/1999/xlink">
    <title>节日-12</title>
    <g id="V1.4" stroke="none" stroke-width="1" fill="none" fill-rule="evenodd">
        <g id="形状汇集备份" transform="translate(-542.000000, -247.000000)" fill="#3D4242">
            <g id="节日-12" transform="translate(542.000000, 247.000000)">
                <path d="M37.3671618,32.9497436 C37.2420757,33.1383969 37.0866496,33.3345535 37.0515191,33.5832329 C37.0318247,34.0152062 37.2527214,34.3962644 37.195235,34.8432442 C36.8950284,34.7167607 36.6001446,34.5961727 36.3127128,34.4600421 C36.3467788,34.2129706 36.3797802,33.966435 36.4149108,33.7198994 C36.5006081,33.1212466 36.9179165,32.0450651 36.6970198,31.359589 C36.7704746,31.3815628 36.8966253,31.2234584 36.8928993,31.1280599 C37.1366841,30.7169886 36.7481188,30.2957343 36.4324761,30.2619696 C36.3015349,30.2319566 36.0274101,30.2742964 35.9135019,30.1805057 C35.7202838,29.9881007 36.0694603,29.6124019 36.1950787,29.5271863 C37.0004201,29.0485857 37.6945148,30.0218654 38.0761604,30.7882695 C38.0676439,31.6013011 37.7983096,32.3285811 37.3671618,32.9497436 Z M36.1626095,30.7904133 C36.2855665,30.7759427 36.402136,30.7861257 36.4979466,30.8697335 C36.5564976,30.9581647 36.5900313,31.0728574 36.6209036,31.1854062 C36.5564976,31.0707136 36.4670743,30.9720993 36.3441174,30.8959949 C36.2845019,30.8590145 36.2238218,30.8247139 36.1626095,30.7904133 Z M36.4032006,36.9800647 C36.3835062,37.0486659 36.3590213,37.1156593 36.3334718,37.1815808 C36.1769811,37.1108358 36.051895,36.9988229 35.9864244,36.8080258 C35.9262767,36.6316992 35.9725851,36.3229938 36.0380557,36.0148243 C36.1083168,36.1402358 36.1791102,36.2629677 36.2536296,36.3749806 C36.3435851,36.5368366 36.3909581,36.6869017 36.3968132,36.8310715 C36.4143785,36.8718034 36.4197013,36.9227184 36.4032006,36.9800647 Z M35.1720342,30.2635774 C35.010753,30.166571 34.8542623,30.0599176 34.7094819,29.9312903 C34.1282308,29.4146375 34.5359582,28.9687296 34.7344991,28.3255932 C34.7813398,28.1728484 34.8287128,28.0179597 34.8728922,27.8625351 C34.9415565,27.903267 35.0150113,27.933816 35.0943212,27.9509663 C35.9119051,27.4621827 36.7704746,27.8218031 37.2750772,28.5721288 C37.2516568,28.611253 37.2277042,28.6503771 37.2037515,28.6895012 C36.9743383,28.7157626 36.7773943,28.571057 36.5399969,28.5973184 C35.8714517,28.6085732 35.1885349,29.4360753 35.1720342,30.2635774 Z M34.0047416,26.6577263 C33.7034704,26.9342749 33.5161074,26.9658958 33.1062509,26.8420921 C33.0471677,26.8238699 33.0061821,26.7692033 33.0061821,26.7064975 C33.0061821,26.0263808 33.1525594,25.6699761 32.5287258,25.4850744 C32.5127574,25.3811007 32.5324518,25.2680158 32.6101649,25.1517154 C33.1876899,24.4898209 33.734875,25.7567995 34.1064073,26.5617918 C34.075535,26.5912689 34.0425335,26.6228898 34.0047416,26.6577263 Z M32.9220816,35.8009814 C32.7815594,35.8084847 32.6410372,35.815452 32.5005149,35.8224193 C32.1912596,35.8379618 31.9256513,35.6037529 31.8985049,35.2934397 C31.8867947,35.1605248 31.8750845,35.02761 31.8633744,34.8946951 C31.8335666,34.5629439 32.0848033,34.2735326 32.4153499,34.2617418 C32.5553399,34.2563823 32.6963944,34.2515588 32.8369166,34.2472712 C33.1408492,34.2381601 33.4006024,34.4680813 33.4277488,34.7730352 C33.4394589,34.9043422 33.4517014,35.0356492 33.4644762,35.1664202 C33.496413,35.4949557 33.2489023,35.7838311 32.9220816,35.8009814 Z M31.6419454,33.4578213 C31.5269726,33.2782791 31.557845,32.9004365 31.5269726,32.6882015 C31.4764059,32.3473392 31.7297718,32.0375619 32.0714963,32.0236273 C32.2641821,32.0155881 32.4595293,32.0086207 32.6554088,32.0021894 C32.9742452,31.9914704 33.2387889,32.2449734 33.2489023,32.5660056 C33.2526283,32.6962407 33.2574188,32.8264758 33.2622093,32.9567109 C33.2744518,33.2750634 33.0333284,33.5451807 32.7176857,33.5612591 C32.3823485,33.5784094 31.8202596,33.7365137 31.6419454,33.4578213 Z M30.4741205,35.976772 C30.3335982,35.9842753 30.193076,35.9912426 30.0525538,35.9987458 C29.7432984,36.0142883 29.4776901,35.7800795 29.4505437,35.4692303 C29.4388336,35.3363154 29.4271234,35.2034006 29.4154132,35.0704857 C29.3856054,34.7387345 29.6368422,34.4493232 29.9673888,34.4375324 C30.1073787,34.4321729 30.2484332,34.4273494 30.3889555,34.4235977 C30.692888,34.4139507 30.9531735,34.6438719 30.9803199,34.9488258 C30.9914978,35.0801328 31.0037402,35.2114398 31.016515,35.3427468 C31.0484519,35.6707463 30.8014734,35.9596217 30.4741205,35.976772 Z M29.2834074,32.8779267 C29.233373,32.5376004 29.4862066,32.227823 29.8279311,32.2138884 C30.0206169,32.2058492 30.2164964,32.198346 30.4118436,32.1919146 C30.7312123,32.1811957 30.9952237,32.4346986 31.0053371,32.7562667 C31.0095953,32.8865019 31.0138536,33.016737 31.0191764,33.1469721 C31.0314189,33.4647886 30.7897632,33.7349059 30.4741205,33.7509843 C30.1393156,33.7681346 29.5772267,33.9267749 29.3983802,33.6475465 C29.2834074,33.4680043 29.314812,33.0901617 29.2834074,32.8779267 Z M27.6455782,11.0638136 C27.5630747,11.0745325 27.4901521,11.0166503 27.4944104,10.9475131 C27.5109111,10.6779318 27.5114434,10.4083505 27.5071851,10.1376973 C27.505056,10.0042465 27.64132,9.89920086 27.8026012,9.91045575 C27.9175739,9.91795901 28.0325467,9.92653416 28.1469871,9.9361812 C28.2976227,9.94904393 28.4141923,10.0610568 28.4040789,10.1853965 C28.3998207,10.2357756 28.3955624,10.2861546 28.3907719,10.3365336 C28.3551091,10.7331343 28.1586973,10.9968202 27.6471751,11.0638136 C27.6466428,11.0638136 27.6461105,11.0638136 27.6455782,11.0638136 Z M27.4933458,8.89698005 C27.4970718,8.73244433 27.7035969,8.6236471 27.8840402,8.6943921 C28.1347446,8.79300634 28.2672827,8.96986884 28.3556413,9.28339781 C28.3556413,9.28393375 28.3561736,9.28500565 28.3561736,9.28607754 C28.3971593,9.43292701 28.2491851,9.56798564 28.0682095,9.55458697 C27.9638824,9.54708371 27.859023,9.5401164 27.7546959,9.53422098 C27.6083186,9.52510988 27.4922813,9.4248878 27.4906844,9.30376379 C27.4896198,9.16816921 27.4896198,9.03257463 27.4933458,8.89698005 Z M26.770508,37.5224431 L23.3436817,37.5224431 C22.4595626,30.9002824 22.6447965,29.1445202 25.341333,29.0941412 C28.0868393,29.0426903 27.6748537,32.3982542 26.770508,37.5224431 Z M24.9682039,24.0342659 C24.9942856,24.3043832 24.790422,24.5423437 24.5210877,24.5568142 C24.4055827,24.5627096 24.2895454,24.5686051 24.1740403,24.5745005 C23.9190776,24.5873632 23.7003101,24.3944223 23.6779543,24.1387756 C23.6683732,24.0294424 23.6587921,23.9195733 23.6486788,23.8102401 C23.6241939,23.5369072 23.8312513,23.2984108 24.1032469,23.2887637 C24.2192842,23.2844762 24.3353215,23.2807245 24.4508266,23.2769729 C24.701531,23.2694696 24.915508,23.4586589 24.9378638,23.710018 C24.9474449,23.8182793 24.9575582,23.9265406 24.9682039,24.0342659 Z M23.9888065,21.456897 C24.1474263,21.4499297 24.3087075,21.4440343 24.4699887,21.4386748 C24.7324033,21.4300997 24.9506386,21.639119 24.9586228,21.9038768 C24.9618165,22.0110662 24.9655425,22.1182556 24.9698007,22.225445 C24.9799141,22.487523 24.7808409,22.709941 24.5210877,22.7233397 C24.2448337,22.7372743 23.7822814,22.8680454 23.6348395,22.6381241 C23.5400934,22.4902028 23.5661752,22.1788176 23.5400934,22.0040989 C23.4985755,21.7232627 23.7072297,21.4681519 23.9888065,21.456897 Z M25.8368868,21.3004005 C25.9955066,21.2934332 26.1567878,21.2875378 26.318069,21.2821783 C26.5804836,21.2736032 26.7987189,21.4826225 26.8067031,21.7473803 C26.8098968,21.8545697 26.8136227,21.9617591 26.817881,22.0689484 C26.8279943,22.3310265 26.6289212,22.5534445 26.369168,22.5668432 C26.092914,22.5807778 25.6303617,22.7110129 25.4829198,22.4816276 C25.3881737,22.3337062 25.4142555,22.0223211 25.3881737,21.8476024 C25.3466558,21.5667661 25.55531,21.3116554 25.8368868,21.3004005 Z M26.984485,23.8895603 C27.0110991,24.1596775 26.8072354,24.397638 26.5379011,24.4121086 C26.4218638,24.418004 26.3063588,24.4238994 26.1903215,24.4297948 C25.9358911,24.4426575 25.7165912,24.2497166 25.6942354,23.993534 C25.6846543,23.8842008 25.6750733,23.7748676 25.6654922,23.6655344 C25.6410073,23.3922015 25.8475324,23.1537051 26.1200604,23.1435221 C26.2355654,23.1397705 26.3516027,23.1354829 26.46764,23.1322672 C26.7178121,23.124764 26.9323214,23.3139532 26.9546773,23.5653124 C26.9642583,23.6730377 26.9738394,23.781299 26.984485,23.8895603 Z M26.3638451,9.8654362 C26.4788179,9.86490026 26.5937906,9.8654362 26.7092956,9.86704404 C26.8711091,9.86865189 26.9983243,9.98388048 26.9860818,10.1173313 C26.9605323,10.3863766 26.9403057,10.655422 26.9355151,10.9255393 C26.9344506,10.9946764 26.8572698,11.0466633 26.7758308,11.029513 C26.7747662,11.029513 26.7742339,11.0289771 26.7737017,11.0289771 C26.2696314,10.9223236 26.0939786,10.6436312 26.089188,10.2454226 C26.0886558,10.1945076 26.0881218,10.1441286 26.0881218,10.0937496 C26.0875912,9.96887397 26.2126773,9.8665081 26.3638451,9.8654362 Z M26.2057576,9.20086197 C26.2062899,9.19979008 26.2068222,9.19871819 26.2068222,9.19818224 C26.3191335,8.89269247 26.4655108,8.72654892 26.7226027,8.64883661 C26.9083688,8.59202623 27.1058451,8.71743782 27.0967963,8.88143759 C27.0893444,9.01649622 27.0792311,9.1520908 27.0675209,9.28714944 C27.0568752,9.4077375 26.9328537,9.49831254 26.7864764,9.4956328 C26.681617,9.49348901 26.5767576,9.49188117 26.4724305,9.49134523 C26.2909226,9.49027333 26.1535941,9.34395981 26.2057576,9.20086197 Z M19.2861022,35.8009814 C19.14558,35.8084847 19.0050577,35.815452 18.8645355,35.8224193 C18.5552801,35.8379618 18.2891395,35.6037529 18.2619932,35.2934397 C18.2508153,35.1605248 18.2391051,35.02761 18.2268626,34.8946951 C18.1970549,34.5629439 18.4482916,34.2735326 18.7788382,34.2617418 C18.9193605,34.2563823 19.060415,34.2515588 19.2009372,34.2472712 C19.5043375,34.2381601 19.764623,34.4680813 19.7917693,34.7730352 C19.8034795,34.9043422 19.815722,35.0356492 19.8284967,35.1664202 C19.8604336,35.4949557 19.6129229,35.7838311 19.2861022,35.8009814 Z M18.0059659,33.4578213 C17.8904609,33.2782791 17.9218655,32.9004365 17.8904609,32.6882015 C17.8404265,32.3473392 18.0932601,32.0375619 18.4349846,32.0236273 C18.6282027,32.0155881 18.8235499,32.0086207 19.018897,32.0021894 C19.3382658,31.9914704 19.6022772,32.2449734 19.6123906,32.5660056 C19.6166488,32.6962407 19.6209071,32.8264758 19.6262299,32.9567109 C19.6384723,33.2750634 19.3968167,33.5451807 19.0811739,33.5612591 C18.7463691,33.5784094 18.1842801,33.7365137 18.0059659,33.4578213 Z M17.5274452,23.0191824 C17.3368885,22.1182556 17.1436704,21.2178647 16.9563074,20.3158659 C16.9057407,20.0704022 17.012197,19.8662064 17.2368196,19.749906 C17.3996977,19.6657623 17.634966,19.5714356 17.8303132,19.5960892 C17.8968483,19.6046643 17.9585929,19.6271741 18.0112888,19.668442 C18.2768971,19.8763894 18.3162859,20.3855391 18.3609975,20.689421 C18.4786316,21.4804787 18.6793017,22.2576018 18.8198239,23.0443719 C18.9097794,23.548698 17.6434825,23.5653124 17.5274452,23.0191824 Z M16.838141,35.976772 C16.6976188,35.9842753 16.5570966,35.9912426 16.4165743,35.9987458 C16.107319,36.0142883 15.8411784,35.7800795 15.814032,35.4692303 C15.8028541,35.3363154 15.7911439,35.2034006 15.7789015,35.0704857 C15.7490937,34.7387345 16.0003304,34.4493232 16.3308771,34.4375324 C16.4713993,34.4321729 16.6124538,34.4273494 16.752976,34.4235977 C17.0569086,34.4139507 17.3166618,34.6438719 17.3438082,34.9488258 C17.3555183,35.0801328 17.3677608,35.2114398 17.3805356,35.3427468 C17.4124724,35.6707463 17.1649617,35.9596217 16.838141,35.976772 Z M15.647428,32.8779267 C15.5968613,32.5376004 15.8502271,32.227823 16.1914194,32.2138884 C16.3846375,32.2058492 16.5799847,32.198346 16.7758641,32.1919146 C17.0947006,32.1811957 17.3592443,32.4346986 17.3693577,32.7562667 C17.3730836,32.8865019 17.3778741,33.016737 17.3826647,33.1469721 C17.3949071,33.4647886 17.1537838,33.7349059 16.838141,33.7509843 C16.5028039,33.7681346 15.9407149,33.9267749 15.7624007,33.6475465 C15.647428,33.4680043 15.6783003,33.0901617 15.647428,32.8779267 Z M47.9771227,31.4222948 C47.763678,30.4168583 46.4888645,30.1960481 45.857579,30.8365047 C45.3556379,31.1821905 45.1091917,31.6843728 44.5199564,31.1441383 C44.0047082,30.7153807 43.1269765,29.9227152 42.8406093,31.1387788 C42.6340842,31.7460067 42.6170512,32.4679273 42.2103883,32.9449201 C41.8931488,32.723574 41.7717886,32.1597578 41.7813697,31.7159937 C41.8079838,31.5536018 42.0038632,31.2132755 42.1555634,31.2014846 C42.2636165,31.1934454 42.4451243,30.8986746 42.2753266,30.863838 C41.5184228,30.7957728 41.2017155,32.1206337 41.4667915,32.8329072 C40.8440225,32.9754691 40.2601101,33.1834165 39.5729351,33.2032465 C39.9162564,31.5745037 40.4011646,30.2249893 41.4439034,29.2002587 C41.6648001,28.3400638 42.6628273,27.5259604 43.3340339,27.6015289 C43.4841372,27.9547179 44.2005877,28.005097 44.3315289,28.3105867 C44.363998,28.4660113 44.3139636,28.5522988 44.4230812,28.6664555 C44.521021,28.7355927 44.6099119,28.7886514 44.6530267,28.9274617 C44.7163682,29.0464419 44.8606164,29.0233962 44.888295,29.1777489 C44.9298129,29.4108858 44.6317355,29.4832387 44.5188918,29.5620229 C44.3954026,29.6488463 44.2250726,29.7678265 44.0808244,29.763003 C43.856734,29.7549638 43.748681,29.4301799 43.6943883,29.2034744 C43.6571286,29.0480497 43.4399579,29.2661802 43.4537972,29.3905198 C43.4809435,29.6343757 43.5213969,29.964519 43.6864041,30.1199437 C43.8540726,30.2769761 44.125536,30.1955122 44.3160927,30.1177999 C44.6961415,30.0073948 45.0022032,29.5716699 45.0948201,29.1102196 C45.1070626,28.914063 44.9670726,28.8293834 44.9191673,28.6627039 C44.8914887,28.5651615 44.8803108,28.500312 44.816437,28.4258153 C44.7435145,28.3405998 44.7003997,28.3491749 44.6993352,28.2210836 C44.7802419,27.6438687 44.1569406,27.5136336 43.8466207,27.2981829 C43.6502089,27.1079218 43.4442161,26.9085495 43.2195935,26.690955 C43.7263252,26.3656352 44.1627957,26.1324983 44.5561515,25.8296883 C45.3386049,26.1442891 45.9778746,25.0911533 46.5729649,24.6018338 C46.8529448,24.3981739 47.1228114,24.6130887 47.3085775,24.8681994 C48.1229678,25.903113 46.5128172,28.045293 46.0678301,26.2605896 C46.0417483,25.9379495 46.2174011,25.8291523 46.4404269,25.8366556 C46.5149463,25.8387994 46.7177454,25.6308519 46.6006436,25.5611788 C46.1551242,25.2958851 45.6994915,26.0923023 45.7814628,26.5923408 C45.8964356,27.2922875 46.6916636,27.5779472 47.15049,27.1641962 C48.3758013,26.1115964 48.1895029,23.8461486 46.6272576,23.9243968 C46.3355675,24.003181 46.0864599,24.2432853 45.847998,24.4812457 C45.2736666,24.7149186 44.8265504,25.1302775 44.1548115,25.1334932 C44.6237512,24.1382397 45.0240267,23.2544631 45.7905116,22.4837714 C44.8531644,22.7394181 44.7695963,23.5165412 44.2229435,24.3686968 C44.1931358,23.6708939 44.1691831,23.1183326 44.1452305,22.5663072 C44.0920023,22.5630915 44.0382419,22.5604118 43.9844815,22.5571961 C43.4064242,25.0568527 44.068582,25.3157151 41.9160368,26.5457134 C41.9543611,25.9583155 42.3887025,25.0573887 42.3296193,24.6189841 C42.417978,23.8488283 42.8065433,23.9849588 43.0822649,23.4452602 C43.1434773,23.3075219 43.0242463,23.3096657 42.959308,23.3830904 C42.8826595,23.4688419 42.8161243,23.5760313 42.7288302,23.6440966 C42.3748632,23.8032728 42.0975447,23.6580312 41.91444,24.2207755 C41.4337901,23.8686583 39.8997557,23.265718 40.6247227,22.3245951 C41.37311,21.3384527 42.0741244,22.1680986 42.6532463,22.8476794 C42.6793281,22.7849736 42.7043453,22.7238756 42.7293625,22.6643855 C43.8077642,22.5893529 43.5719636,20.8989762 44.5657326,20.6535125 C44.6439779,20.6218917 44.8047268,20.3624933 44.6439779,20.4000096 C44.2224112,20.4991598 43.8609923,20.6535125 43.5671731,21.0801263 C43.4468775,21.254845 43.2765476,21.6128576 43.084394,21.8079423 C43.122186,21.7157594 43.1610425,21.6219687 43.2020282,21.5233544 C42.0688015,21.9092363 42.1954845,19.9712521 40.8972507,21.1256818 C40.3468719,20.7955385 40.8450871,20.1518662 41.1745692,19.840481 C41.3129623,19.6813047 41.4455003,19.4862201 41.6461703,19.5441023 C41.9208274,19.6228865 42.1587571,19.9996572 42.4648187,19.9321279 C42.7314916,19.8731738 42.8714816,19.5741154 43.0923783,19.4202986 C43.1706236,19.3661679 43.2249163,19.1464297 43.0886523,19.2278936 C42.5968245,19.7172132 42.4594959,19.6089519 42.0235576,19.1726911 C41.649364,18.870417 41.2778317,19.1346389 40.9393009,19.4272659 C40.3628403,19.830298 39.7917026,20.8234077 40.373486,21.4954852 C40.0216481,21.8095501 39.3461833,22.0962817 39.3637486,22.6123987 C39.4568978,22.9554047 39.8199135,23.1783587 40.0211158,23.4409727 C40.2111402,23.6880442 40.349001,23.9844229 40.4746194,24.2899126 C40.6034314,24.4003177 40.7402277,24.5005398 40.8834113,24.5911148 C41.6546868,25.0793625 41.0462894,26.529635 40.8206022,27.2949672 C40.6981775,26.953569 40.4362951,26.8474515 40.2042205,26.6384322 C39.9455319,26.4063672 40.1999623,25.953492 40.1344917,25.6222768 C40.0961675,25.427728 39.9625649,25.3307216 39.9066754,25.1490356 C39.8502536,24.9646699 39.8651574,24.7588662 39.7422005,24.61952 C39.7315549,24.6077292 39.7182478,24.6029057 39.7028117,24.6034416 C39.6926983,24.781912 39.692166,24.9598463 39.7054731,25.1377807 C39.7107959,25.2063819 39.6895046,25.2599766 39.6565032,25.296421 C39.6565032,25.3007086 39.6570355,25.3049962 39.6570355,25.3087478 C39.6628906,25.3307216 39.669278,25.3521595 39.6761976,25.3730614 C39.7523138,25.6061984 39.9205147,25.6517539 39.8215104,25.9492044 C39.7076022,26.2911386 39.5314171,26.5532167 39.6815204,26.9181965 C39.8028805,27.2145752 40.0732794,27.297111 40.2271086,27.5415028 C40.36976,27.832522 40.1398145,28.246809 40.2483999,28.5555145 C39.9109336,29.085566 39.7139896,29.7490684 39.2258877,30.1017215 C38.8059179,28.4933446 39.1604171,26.720968 38.4567414,25.2321074 C38.2539423,24.7213499 38.0761604,24.1832592 37.946816,23.6312338 C37.8595219,23.3916655 37.7903254,23.1397705 37.7344358,22.8841238 C37.6705621,22.5925686 37.6875951,22.2710005 37.8472795,22.0137459 C37.8659093,21.9837329 37.886136,21.9574715 37.9068949,21.9338898 C37.9601231,21.7484522 38.0921288,21.5940994 38.2470226,21.4654722 C38.4248045,21.1932111 38.641443,20.9488193 38.7452378,20.8169764 C38.9586826,20.5452512 39.1763856,20.3121143 39.2764544,19.9460625 C39.3669422,19.6132395 39.3999437,19.274521 39.5186424,18.951345 C39.6054042,18.7155283 39.6985534,18.4872149 39.7618949,18.2465747 C39.7618949,18.2412153 39.7618949,18.2363917 39.7613626,18.2310323 C38.8777758,18.1597513 39.5388691,19.901043 37.9132823,21.0699433 C37.8962493,20.6395779 37.6471417,20.3501666 37.3320313,20.2585196 C37.1505234,19.9047946 37.3251116,19.7708079 37.583268,19.5955532 C38.0112221,19.1689395 38.0559337,18.4389797 38.0953225,17.8215688 C38.103839,17.677935 37.8999753,17.8322877 37.8930556,17.9341177 C37.8595219,18.4207575 37.8153426,18.9835018 37.4400843,19.2761288 C37.2154617,19.4513835 36.9445306,19.4937233 36.8551073,19.8581672 C36.7816525,20.1572256 36.8221059,20.5902708 37.0174531,20.7858914 C37.2250427,20.9139828 37.45073,21.0034859 37.3879208,21.3700736 C36.8827859,21.7280862 37.161169,22.5797059 37.1712823,23.1504894 C37.233027,23.8756256 37.3080786,24.6023697 37.3778074,25.32697 C37.0201145,25.3709177 36.705004,25.0086175 36.9003512,24.5578861 C36.9631604,24.4056772 36.7481188,24.5235855 36.7108591,24.6141606 C36.4079911,25.3457282 37.0839882,25.6115578 37.4171963,25.9845769 C37.5720901,26.1689427 37.6199954,26.4701449 37.8052292,26.6030597 C37.8802809,26.9862618 37.8983784,27.3946534 37.8797486,27.8105482 C37.4358261,27.4686141 37.0403412,27.1261439 36.6161131,26.8469156 C36.3994746,26.7048896 36.1791102,26.7204321 35.9518261,26.7815301 C35.8262078,26.8474515 35.7245421,26.9508893 35.6047788,27.0393205 C35.4429653,27.1588367 35.2614575,27.206536 35.1550012,26.9953729 C35.1550012,26.9953729 35.1550012,26.9953729 35.1550012,26.9948369 C35.1518075,26.9889415 35.1486138,26.9835821 35.1459524,26.9771507 C34.9388951,26.519452 35.3295894,25.8747078 35.5110973,25.4781071 C35.6718462,25.1275977 35.8480313,24.7931668 36.0183613,24.4501608 C36.1205593,24.2443572 36.2344675,24.0219392 36.2781145,23.7850506 C36.3100514,23.6087241 36.2956798,23.4323975 36.294083,23.256071 C36.290357,22.9002022 36.3733928,22.568987 36.4292824,22.2195495 C36.4750586,21.9333539 36.4734617,21.6755634 36.4207659,21.4183088 C36.1434474,20.9536428 35.5201461,21.0490414 35.6947343,20.2017092 C35.9763111,19.517305 36.0598792,18.4952541 35.3168147,18.3264308 C34.8292451,18.1436729 34.0276297,18.7567962 34.4917789,19.3918934 C34.5758793,19.506586 34.7813398,19.2718413 34.7227889,19.1437499 C34.6551892,18.9963645 34.6147358,18.8586262 34.776017,18.7519727 C34.9942523,18.7015937 35.2566669,18.7653714 35.4062379,18.9652796 C35.731994,19.4240502 35.2236655,19.9771475 35.3067014,20.3791077 C35.2401662,20.6422576 35.2029065,20.9070154 35.2332465,21.1937471 C36.2456454,21.6889621 35.871984,22.1664908 35.8086425,23.2925154 C35.6521518,23.0014962 35.3934632,23.0652738 35.1613886,23.0609863 C34.7520644,22.6858234 35.2273915,21.8304521 34.5945091,21.659485 C34.4300342,21.6101779 34.1516512,21.8133017 34.0255005,21.648766 C33.9648205,21.5694459 33.782248,21.7656025 33.8386698,21.8492102 C34.0084675,22.2141901 34.5806698,21.7109359 34.5370228,22.2892226 C34.276205,24.0835731 35.4898061,23.5015347 35.5765679,24.1982657 C35.3982537,24.9743169 34.7653714,25.4722116 34.605687,26.2713086 C34.3113355,25.6319238 34.1607,24.9850359 33.6560974,24.6382782 C33.081766,23.8943838 31.993251,24.8960687 32.1811462,25.6308519 C32.0454145,25.9454528 31.8633744,26.5023017 31.4881161,26.4117267 C31.0489841,26.3050732 31.2874461,25.579401 31.3215121,25.266408 C31.3928378,24.6125527 31.4114676,22.9500452 32.227987,22.7185162 C32.3594604,22.6815358 32.4515451,22.5362942 32.4291893,22.4001637 C32.3679769,22.0250008 32.0826742,22.1434451 32.1625164,21.6460863 C32.1997761,21.4129494 32.2391649,21.0286754 32.5228707,20.9659696 C32.7576067,20.9145187 33.0109726,21.0061656 33.2611448,21.0340349 C33.7077287,21.083342 33.8253628,21.1798124 33.8913657,20.7708849 C33.9435292,20.4482448 33.6502423,19.8361934 33.5677387,19.5146252 C33.4602179,19.0965866 33.3526971,18.6790839 33.2451763,18.2615813 C33.0642007,17.557347 32.8832251,16.8525767 32.7022495,16.1478065 C32.5856799,15.6949313 32.5585336,14.7039653 32.1907273,14.3861488 C31.9011663,14.1363975 31.9884604,14.2650248 31.7574504,14.5094166 C31.2991563,14.9955205 31.0138536,15.7415587 30.6572252,16.3075186 C29.9551463,17.4228243 29.2530674,18.5375939 28.5515208,19.6528996 C28.4972281,19.7386511 28.5477948,19.8517359 28.6467991,19.8683502 C28.8799383,19.9069384 29.1040287,19.9557096 29.3387647,19.9728599 C29.4436241,19.9803632 29.5628551,20.0232389 29.5937274,20.1245329 C29.6075667,20.1716962 29.5990502,20.2226112 29.5905337,20.2713824 C29.5378379,20.568297 29.492594,21.6396549 29.1476757,21.7264783 C29.0587848,21.7564914 28.9571191,21.7484522 28.8762123,21.7966874 C28.7649656,21.8620729 28.7314319,22.0174975 28.7713529,22.1413013 C28.8261779,22.3138762 29.0151377,22.3797977 29.0257834,22.5534445 C29.0396227,22.7737187 28.8048867,23.0550909 28.6436055,23.1740711 C28.1757303,23.5197569 27.9601564,23.4232864 27.9287518,22.8969865 C27.8537002,21.6407268 27.9649469,20.3437352 27.9830445,19.0847958 C27.9984807,17.9962875 28.0139168,16.9072433 28.029353,15.818735 C28.0415954,14.9810499 27.8201665,13.6004506 28.2901708,12.9015757 C28.4940344,12.5982297 28.7644333,12.3404393 28.934231,12.0167273 C29.2796815,11.3596563 29.0949799,10.3869126 29.0923185,9.66177636 C29.0907217,9.11993398 29.0885925,8.57862756 29.0864634,8.03732113 C29.0853988,7.60159625 29.8417704,8.02660219 29.9370487,7.52977936 C30.0812969,6.77838172 28.7686915,5.71131133 28.4163214,5.13891998 C28.1895696,4.77126036 27.9468494,4.4121759 27.7025323,4.05684307 C27.5316701,3.80762773 27.385825,3.42067403 27.1425725,3.30115786 C27.141508,3.04229547 27.1399111,2.76038737 27.1367174,2.4741917 C27.7035969,2.25070182 29.3020373,1.70939539 29.4313816,2.65587772 C29.5894691,3.80816368 30.1414447,3.51017717 30.8520401,3.29151081 C31.5621032,3.07284445 31.8383571,3.15270055 31.8383571,3.15270055 C31.6802696,2.95386423 31.1277618,2.93403419 31.1277618,2.93403419 C32.1337732,2.41738132 32.9231462,3.15270055 32.9231462,3.15270055 C32.9231462,3.15270055 32.2391649,1.82837561 31.6078794,2.14619216 C30.9765939,2.46400871 29.9769698,2.41094996 30.0296657,1.40444157 C30.0802324,0.444560566 28.1693429,0.35237769 27.0898767,0.621423063 C27.073376,0.320756819 27.0520847,0.10905777 27.0249384,0.0538552337 C26.9019814,-0.193752261 26.7321837,0.333083599 26.7939283,3.31294869 C26.7917992,3.31402058 26.7902024,3.31455653 26.7880732,3.31562842 C26.5591923,3.42710539 26.3361665,4.00485621 26.2014994,4.21655526 C25.9454721,4.61851548 25.6894449,5.0204757 25.4339499,5.42297186 C25.1289528,5.90318034 24.7233545,6.36784635 24.5088452,6.90808089 C24.0771652,7.99444537 25.0927577,7.21571444 25.3573014,7.92048469 C25.4855812,8.2618829 25.2795884,9.02667921 25.2535066,9.39755451 C25.2173115,9.91688711 25.0767892,10.4415792 25.1220331,10.9641275 C25.1768581,11.5992246 25.6032153,11.9722437 25.8102727,12.5516024 C26.198838,13.6395747 25.8576457,15.0887753 25.8294348,16.2287344 C25.8283703,16.2657148 25.8129341,16.3005513 25.7868523,16.3262768 C25.6756056,16.43561 25.3620919,16.8970603 25.1741967,16.7700409 C25.0938222,16.7153743 25.0640145,16.6124725 25.0395295,16.5181458 C24.9101852,16.0154276 24.854828,15.6316895 24.854828,15.1466575 C24.9469126,15.0255335 25.6165224,15.0137427 25.4717419,14.7511287 C24.8894263,13.6963851 24.3422412,12.6218114 23.7679098,11.5627802 C23.480478,11.0332646 23.187191,10.5064288 22.8790002,9.988704 C22.7815928,9.82470423 22.170534,8.63918956 22.0805784,9.23569853 C21.7548223,11.4111072 21.4280017,13.5865159 21.1038425,15.7619246 C21.0942614,15.8246304 21.0889386,15.8985911 21.1357793,15.9409309 C21.1682485,15.970408 21.2161538,15.9736237 21.2603331,15.9741596 C21.6137678,15.9795191 22.1322097,15.7801468 22.3664134,16.1547738 C22.5585669,16.4618714 22.534082,17.2218442 22.5958266,17.5889678 C22.7576401,18.5429534 22.9242441,19.5033704 22.9242441,20.4745062 C22.9300992,20.5222055 22.935422,20.5747283 22.9093402,20.6154603 C22.8752742,20.6695909 22.802884,20.6803099 22.7395425,20.6862053 C22.0827076,20.7446235 22.1465813,20.6910288 21.9459113,20.1352518 C21.9086516,20.0028729 21.5381839,19.9653566 21.441841,20.0259186 C21.2172183,20.1658008 21.3769027,20.6760223 21.4013876,20.9091592 C21.4727133,21.5903478 21.5413776,22.2720723 21.6111064,22.9532609 C21.680303,23.6253384 22.183841,25.2824864 21.744709,25.8613091 C21.4460993,26.2541582 21.1868783,26.1448251 21.0160161,25.8655967 C20.8313145,25.5643945 20.4203934,24.1489586 20.8861394,23.962985 C20.938303,23.9313641 20.9643848,23.8702662 20.9510778,23.8107761 C20.8962528,23.5637045 20.3852629,21.9831969 20.6364996,21.8727919 L20.8440892,21.7816809 C20.9148826,21.750596 20.9473518,21.6680601 20.9170118,21.5967792 C20.8345082,21.4033023 20.7722313,21.2543091 20.584336,21.1556948 C20.4528626,21.0865577 20.1164609,21.3079038 20.0658941,21.0624401 C20.0052141,20.7687411 19.4191725,18.5927965 19.6959587,18.5075809 C19.9988267,18.4137902 21.0399687,18.3591236 20.9574651,17.8413988 C20.9319156,17.6800788 20.8142815,17.5519875 20.7019702,17.4340792 C20.7019702,17.2121971 19.863095,16.5626294 19.6986201,16.3830872 C19.3952198,16.0508001 19.1045943,15.7061862 18.801194,15.3728271 C18.1033734,14.6058871 17.4055528,13.838411 16.7077321,13.0714709 C16.4942874,12.8372621 16.1307393,12.2595113 15.8182903,12.0135116 C15.8145643,12.0001129 15.8113706,11.9872502 15.8081769,11.9738515 C15.7128986,11.6029762 15.4755012,11.0948985 15.48455,10.7143762 C15.4882759,10.564847 15.4361124,10.6334482 15.5415041,10.5503764 C15.6027164,10.5016052 15.7906117,10.4989255 15.8693893,10.4812393 C16.0705916,10.4356838 16.2712616,10.3853048 16.4703347,10.3306382 C16.5075944,10.3204552 16.5469832,10.3086643 16.5709359,10.2786513 C16.6050019,10.2368474 16.5975499,10.1757495 16.5885011,10.1226907 C16.5709359,10.0208608 16.542725,9.90402438 16.4596891,9.84989374 C16.4517049,9.84399833 16.4426561,9.8391748 16.433075,9.83542317 C16.3617494,9.8038023 16.2792458,9.82416829 16.2041941,9.84507022 C16.0216217,9.89598518 15.838517,9.94690014 15.6559445,9.99835105 C15.1013075,10.1532397 15.1188728,9.23677042 15.0257236,8.86428728 C15.0145457,8.81926774 15.0023032,8.77264036 14.9724955,8.73726786 C14.8298441,8.56844456 14.3933735,8.76567304 14.3571784,8.92163361 C14.3231124,9.07116281 14.4316978,9.311803 14.4684252,9.45382894 C14.5189919,9.64944958 14.585527,9.84882185 14.6121411,10.049266 C14.657385,10.3976315 14.3454682,10.2422069 14.0862473,10.3778015 C13.8994166,10.4758798 13.83022,10.9903889 14.1112645,10.9132125 C14.2634969,10.8714086 14.6792085,10.6790037 14.7968427,10.8456832 C14.8303764,10.8928465 14.8426189,10.9518007 14.854329,11.0086111 C14.956527,11.5054339 15.0656447,12.0001129 15.1731655,12.4958639 C15.1353735,12.7488308 15.1279216,13.0141246 15.1055658,13.1438237 C14.9410909,14.0870904 14.7521311,15.0271414 14.5754137,15.9682642 C14.4141325,16.8273872 14.1341526,17.6666801 14.0229058,18.5424175 C13.9792588,18.8870314 13.905804,19.4621024 14.0979575,19.7847425 C14.4295687,20.3421273 14.8649747,19.8972914 15.357867,19.8083242 C15.4355801,19.7938536 15.5090349,19.8469124 15.5212774,19.9251606 C15.5803606,20.305683 16.0194926,21.7591711 15.5776992,21.8824389 C15.4643233,21.9140598 15.3403018,21.9162036 15.2386361,21.9751577 C15.1071626,22.0512622 15.0390306,22.2233012 15.0826777,22.3696147 C15.1689072,22.6600979 15.5973936,22.4971701 15.6224108,22.7115489 L15.8150966,24.3633374 C15.8209517,24.4137164 15.8534208,24.4565921 15.899197,24.4764222 L16.1823706,24.5986181 C16.2265499,24.6179122 16.2579545,24.6586442 16.2654065,24.7068794 L16.3622816,25.3291138 C16.3707981,25.3832444 16.3468455,25.437911 16.3016016,25.46846 C15.6234754,25.9224071 15.7773046,26.2616615 15.8874868,26.9969807 C15.9188914,27.2070719 16.0115083,27.5232806 15.8747121,27.7151497 C15.7698527,27.863071 15.1689072,28.0774498 15.0470148,27.8973716 L14.1831225,26.6234257 C14.1485242,26.5719748 14.0846504,26.549465 14.0260995,26.5676872 C13.5321426,26.7198962 13.4778499,26.772419 13.5731282,27.2912156 C13.6609546,27.7687444 13.8004123,28.2360901 13.8893033,28.7136188 C14.0500522,29.5791732 14.1623635,30.6146227 13.5534338,31.3408308 C12.5825529,32.4984763 13.2532272,34.5286433 13.3575543,35.9253211 C13.3634094,36.0024975 13.3825716,36.1311247 13.4049274,36.2822618 C13.1909503,35.967125 13.000926,35.683609 12.7369145,35.3840147 C12.5745687,35.2130476 12.3584626,35.1155053 12.3387682,34.8196625 C12.200375,34.542578 11.7356936,34.3946566 11.5041513,34.612787 C11.1634913,34.926316 10.7813134,34.9247081 10.3911513,34.7071137 C10.2868242,34.340526 10.1894167,33.9884088 10.091477,33.642723 C10.0733794,32.3548425 11.5355558,32.5842278 11.6271082,31.4265823 C11.6287051,31.3311838 11.4945702,31.3177851 11.4908442,31.4137196 C11.4711498,31.8853529 11.1411355,32.0327384 10.7951527,32.1651173 C10.8606233,32.0418495 10.9095932,31.9062549 10.9197065,31.7642289 C10.9676118,31.6548957 10.6828414,30.4892111 10.5731915,30.8911713 C11.0160494,32.1811957 10.3368586,32.0423854 9.88229048,32.9299136 C9.46391747,31.9882548 9.9781011,30.1896168 9.31754014,29.6547417 C9.16051719,29.5111079 9.24461762,29.2656442 9.43996482,29.2602847 C9.79712549,29.2136574 9.92167929,29.7699703 10.2767108,29.5513039 C10.6705989,29.3739055 10.5380609,28.8181285 10.8622201,28.5346126 C11.2507854,28.1015674 12.050804,28.8856578 12.2520063,27.9836591 C12.707639,27.4214507 12.7821584,27.4863003 12.5229374,26.7381184 C12.510695,26.6427198 12.3792215,26.670589 12.3898672,26.7649157 C12.404771,26.9005103 12.4665156,27.0478957 12.4611928,27.1840262 C12.4553377,27.3351633 12.3701727,27.4536075 12.2232631,27.4278821 C12.0364324,27.3951893 12.037497,27.1786668 11.925718,27.0591506 C11.7128055,26.832445 11.4104698,26.6293211 11.7750824,26.4031515 C12.1716319,26.1576878 12.629926,26.024237 12.9397136,25.6394271 C13.0642674,25.4850744 13.1994668,25.5767213 13.3431828,25.6726558 C13.9414668,26.2316485 14.4796031,25.9256228 14.9921899,26.469073 C14.8947824,25.9824331 14.8261181,25.8714921 14.4535213,25.8597013 C13.847253,25.9400933 12.4276591,24.6211279 13.4246218,24.2824094 C13.6034683,24.2363179 13.8163807,24.2652591 14.0010823,24.3193897 C14.7851325,24.5128666 15.2391683,23.5176131 15.1992473,22.7876533 C14.9693018,23.1488816 14.7925844,23.5594169 14.5152659,23.8788413 C14.1490565,24.2609715 12.932794,23.266254 12.6767667,24.8815981 C12.6017151,25.771806 12.1205329,25.8463026 11.4216477,25.9684985 C11.1901054,26.0092305 11.2502531,25.7669825 11.1384741,25.6019108 C11.0836491,25.5215188 10.9644181,25.438447 10.877124,25.3864601 C10.3038572,25.114735 11.0442603,24.7368924 10.958563,24.2170239 C10.6029992,24.5578861 10.4933493,24.9373366 10.3448428,25.3457282 C10.3352618,25.3714536 10.7291498,25.6672963 10.7685387,25.7037407 C11.1597653,25.9717142 10.9851771,26.4031515 11.0958916,26.8061836 C11.1544425,27.0205624 11.3439346,27.1609805 11.4690207,27.3367711 C11.6654325,27.6111759 11.5488629,27.7146137 11.2880451,27.7880384 C11.1107955,27.8378815 10.9324813,27.8850448 10.7546993,27.933816 C10.6439849,27.964365 10.492817,28.0458289 10.36986,27.984731 C10.2096434,27.9048749 10.1718514,27.6551236 10.0387812,27.5382872 C9.90038804,27.4166272 9.70291172,27.2901437 9.70237944,27.0693336 C9.70131488,27.003948 9.62839236,26.9524971 9.58101933,27.0023402 C9.34308964,27.2617385 9.6640552,27.5607969 9.83012693,27.7596333 C9.90624314,28.0704825 9.97331057,28.3443514 10.0499591,28.6589523 C9.77370512,28.6289392 9.52672665,28.5941027 9.28613555,28.5726648 C9.13017717,28.7377365 8.94654016,28.6986123 8.87787588,28.9783766 C8.81453442,29.237775 8.82997058,29.7287024 8.93376541,29.9795256 C9.08280414,30.3380741 9.14933929,30.7148448 9.05725464,31.146818 C8.61759038,30.8820602 8.45684147,30.3670152 8.39616141,29.8600094 C8.35783716,29.5421928 8.44246987,29.227056 8.427566,28.9092395 C8.41532353,28.6353706 8.2577683,28.4204559 8.16621594,28.1739203 C8.08318007,27.9498944 8.0767927,27.7065745 8.07626042,27.4707578 C8.07519585,27.2488758 8.11085869,27.0312813 8.12256888,26.8110071 C8.14066644,26.4738965 8.08371235,26.1164199 7.95862627,25.802355 C7.84631494,25.5209828 7.56846416,25.3730614 7.44763634,25.104552 C7.33905097,24.862304 7.47850864,24.5627096 7.64245125,24.3890628 C7.96128768,24.0530241 8.46855165,24.0492725 8.76662912,23.6725017 C8.73735365,23.6280182 8.7416119,23.6349855 8.71233643,23.5905019 C8.09116429,23.8563316 7.17723749,23.9404752 7.21769086,24.8933889 C7.14263922,24.8612321 7.05374826,24.8387223 6.97550292,24.8478334 C6.84296491,24.6677553 6.73917008,24.4855333 6.6763609,24.2609715 C6.65027912,24.1698605 6.5177411,24.1945141 6.54275832,24.2877689 C6.58267941,24.4356902 6.62419734,24.5782521 6.65453737,24.7283173 C6.68115143,24.9357287 6.76631642,25.1769049 6.99093908,25.1817284 C7.57378698,25.7064205 8.02941967,26.3908247 7.31988885,26.9444579 L7.41729631,27.4337775 C6.98082574,27.2912156 6.58214713,27.1615164 6.18825905,27.0328892 C6.18027483,26.9578566 6.16217727,26.8822881 6.14940252,26.8104712 C5.66768805,26.1780538 5.80501659,25.9074006 4.94591476,25.5509958 C4.89321892,25.5247344 4.85010415,25.5852964 4.85862064,25.6362114 C4.8543624,25.6410349 4.85010415,25.6447866 4.8458459,25.6496101 C5.11677702,25.9325901 5.43933942,26.206459 5.6181859,26.5730467 C5.7283681,26.7858176 5.67993052,27.0495035 5.77999938,27.2692418 C5.73582004,27.3571371 5.6634298,27.4380651 5.55910269,27.4578951 C5.37386883,27.4932676 5.17373111,27.4712938 4.98264216,27.5045225 C4.80539253,27.5356074 4.66806398,27.4069802 4.5232835,27.3153332 C4.45461922,27.2719215 4.24969097,27.1513335 4.21881866,27.276745 C4.17410704,27.4578951 4.58076987,27.6690582 4.68296785,27.711934 C4.74471247,27.7376594 5.12209983,27.9059468 5.15563355,27.7907182 C5.15190758,27.8041169 5.14818161,27.8169796 5.14445564,27.8298423 C5.51598791,27.7285483 5.91147283,27.7467705 6.28619879,27.7966136 C6.45972245,27.7344437 6.8573365,27.8046528 7.07450722,27.8577115 C7.92509256,27.944535 7.71005096,29.6065065 7.82449142,30.2651853 C7.13891325,30.147277 7.25122458,29.2758272 6.98721311,28.7597103 C6.64761771,28.4670832 7.06439388,30.1644273 7.24749861,30.2067671 C7.49341252,30.4382962 7.76700505,30.6698252 7.9266894,30.9785307 C7.98843402,31.1221645 8.07519585,31.3054583 8.23647705,31.318857 C8.32323889,31.4662424 8.39403229,31.6339938 8.42384003,31.844085 C8.29875395,31.7599414 8.20933071,31.6918761 8.12523029,31.6377454 C7.99162771,31.8617713 7.72335799,31.6843728 7.52109114,31.6736539 C7.30871095,31.7454708 7.07397494,31.6366736 6.87170809,31.6774055 C6.86691756,31.6747258 6.86159475,31.672582 6.85680422,31.6699023 C6.85627194,31.6736539 6.85520738,31.6779415 6.85467509,31.6816931 C6.79878557,31.6988434 6.72852445,31.7047388 6.67689318,31.6811572 C6.32132935,31.2138114 6.65347281,30.6580344 6.48899792,30.1596037 C6.45067367,30.0722444 6.33037813,30.137094 6.36817009,30.2244533 C6.49325617,30.5020738 6.3085546,30.6848318 6.25000367,30.9377987 C6.28513422,30.7861257 6.04081716,30.3696949 5.94287742,30.2517866 C5.85398646,30.1451332 5.76083726,30.0856431 5.63255749,30.0609895 C5.53248863,30.0416954 5.42922608,30.0690287 5.32915721,30.0475908 C5.1540367,30.0111464 5.12263211,29.8685845 4.984239,29.7924801 C4.81550587,29.6997612 4.93526914,30.0272248 4.97412566,30.0808195 C5.04438678,30.1783619 5.13913283,30.2196298 5.24345994,30.2566101 C5.45104961,30.328963 5.70707686,30.3161002 5.82098503,30.5642437 C5.97428201,31.0047921 6.16377411,31.4169353 6.35592762,31.8392615 C5.99557326,31.9276928 5.81672678,31.7519021 5.63628346,31.4233667 C5.58252306,31.3451184 5.48458332,31.4426608 5.53568231,31.520909 C5.73741688,31.8263988 5.82684012,32.0997317 6.19943695,32.116882 C6.68913564,32.1753002 6.65134368,32.4052215 7.2081098,32.2337185 C7.48649286,32.1308166 7.83194335,32.077222 8.08264779,32.2916007 C8.33228767,32.5038357 8.61652582,32.7074956 8.70967503,33.0542533 C8.61812266,33.0853382 8.51858608,33.117495 8.46003515,33.20807 C8.41000072,33.2863183 8.3823221,33.3892201 8.39137088,33.4872984 C8.41106528,33.6872066 8.60428335,33.9005135 8.30567361,33.9717945 C7.74890749,34.1057812 7.25175686,34.299258 6.814754,34.7044339 C6.81049576,34.7081856 6.36071815,34.1631275 6.32186163,34.1036374 C6.25319735,33.9991277 6.19943695,33.8833632 6.16803236,33.7600954 C6.13236952,33.6212851 6.13769234,33.4320959 6.02538101,33.3163313 C5.90561774,33.1935995 5.71506107,33.2150373 5.57400656,33.1437564 C5.35577127,33.0333513 5.1455202,32.9025803 4.94697932,32.7530511 C4.82934518,32.6646198 4.71437244,32.5686853 4.58502812,32.5022279 C4.50678278,32.4614959 4.26033659,32.3987901 4.18688179,32.48079 C4.07190905,32.6099532 4.30717734,32.7278616 4.40085882,32.8082536 C4.45302238,32.8532731 4.67285451,33.2193249 4.72927632,33.2027106 C4.69521032,33.2128936 4.66114432,33.2209328 4.62761061,33.2262922 C4.42374692,33.49105 4.17996213,33.1319656 3.96385597,33.0279919 C3.77489615,33.0740833 3.71581294,32.8270117 3.55878999,32.7562667 C3.42305829,32.6753388 3.26071252,32.6587244 3.13083591,32.5633258 C2.84446864,32.3285811 2.42982159,31.6688304 2.79070824,31.3585171 C2.77899805,31.349406 2.76835243,31.3402949 2.75664224,31.3311838 C3.0776078,31.0267659 2.936021,30.4779562 2.8114672,30.7882695 C2.82903248,30.9426222 2.69383306,31.0573149 2.59057051,31.1698638 C2.57247295,31.1478899 2.55543995,31.1259161 2.5400038,31.1034063 C2.54745573,30.8649099 2.43940265,30.6478514 2.42130509,30.4114988 C2.37180294,30.2298128 2.50061499,29.8793035 2.30473551,29.7978395 C2.30260639,29.7619311 2.2994127,29.7260226 2.29568673,29.6906501 C2.28770251,29.7292383 2.2797183,29.7672906 2.27226636,29.8058787 C1.98323768,30.419538 2.31804254,31.1993408 2.18018171,31.8655229 C2.180714,31.8633791 0.980100552,31.0449881 0.873005577,30.9410144 C0.681863403,30.7550408 0.509510755,30.5433418 0.38176327,30.3010937 C0.328162555,30.1992638 0.0836858059,29.3696179 0.00890029919,29.7597873 C-0.0678546479,30.1596037 0.370638593,30.8263218 0.601648628,31.1055501 C0.938795532,31.5134058 1.39347012,31.7963857 1.80652032,32.0986598 C2.01730367,32.2406858 2.23394211,32.4722149 2.46122618,32.5552866 C2.8199837,33.1164231 3.45286603,33.1507237 3.34268383,33.5167755 C3.43742988,33.5660826 3.52419171,33.642723 3.60563073,33.7424092 C2.92058485,33.8431672 2.42236965,33.6598733 2.18124628,33.2112857 C2.04711142,33.1341094 1.91829937,33.0456781 1.80013295,32.9417044 C1.7985361,32.9475998 1.79747154,32.9529593 1.7958747,32.9593906 C1.25028648,32.5611821 0.728863832,32.1806597 0.207654094,31.8006733 C0.169542761,31.8505164 0.181998141,31.833902 0.143886808,31.884281 C0.787734131,32.6179924 1.85069966,33.1191028 2.24139405,34.0414676 C2.14185747,34.0886309 2.06893495,34.1625916 1.98270539,34.2236895 C1.75861502,34.3083691 1.47969967,34.1041733 1.25028648,34.0441473 C1.16799581,34.0060951 1.12791504,34.1449053 1.20823627,34.1840294 C1.43764946,34.2949705 1.75275992,34.5795583 2.01251314,34.5141728 C2.13440553,34.4836238 2.2344744,34.3973363 2.35743135,34.3587482 C2.36115732,34.3678593 2.36381872,34.3764344 2.36754469,34.3850096 C2.37446435,34.3732187 2.381384,34.3614279 2.38830366,34.350173 C2.53255186,34.3206959 2.75717452,34.3115848 2.71459203,34.0993498 C2.86363076,34.0816636 3.01905686,34.158304 3.17341841,34.2252974 C3.37887895,34.1797419 3.59498511,34.1154282 3.80949443,34.1374021 C4.00909987,33.9717945 4.30664505,34.3024737 4.15068667,34.5211401 C4.01016443,34.6808523 3.91595066,34.8743291 3.81268811,35.0624465 C3.83770533,35.451544 3.51407837,35.7790076 3.29158483,36.0593079 C3.33416733,36.1139744 3.32245714,36.0989679 3.36557192,36.1536345 C3.54867665,36.0330465 3.73178137,35.9124584 3.97290475,35.7527462 C4.00430934,36.2184841 4.03198796,36.6284835 4.0591343,37.0384829 C4.14323473,36.9639863 4.1751716,36.886274 4.16878423,36.8112414 C4.08521608,35.8786937 4.44557044,35.0833484 4.75109985,34.2719247 C4.86394346,33.9723304 4.98849725,33.9192716 5.31904387,33.9342782 C5.57879709,33.9455331 5.58571675,34.1641994 5.64267083,34.3458854 C5.80554888,34.6996104 5.81512994,35.5790994 6.3170711,35.5046028 C6.66252159,35.5715961 6.65187596,36.1118307 7.16605959,36.0019615 C7.47371811,35.9537263 7.5929491,35.7591776 7.65629056,35.4601192 C7.6807755,35.3427468 7.74997205,35.1835705 7.83779845,35.1476621 C8.70009397,34.7290875 9.12538664,35.178747 9.48946697,36.1161182 C9.76518862,36.7362089 10.4278787,36.3540787 10.8936247,36.331033 C11.1650881,36.2886932 11.3135946,36.3503271 11.4088729,36.6199084 C11.6004942,37.2046265 11.8362947,37.7893446 11.9305085,38.3997882 C10.9266262,38.8055001 11.0958916,39.3269765 10.8292187,40.0601519 C10.7552316,40.1727008 10.6785831,40.2820339 10.5971441,40.3843998 L9.8732417,40.5301774 C9.88122592,40.6582687 9.88974242,40.7960071 9.89559751,40.8946213 C9.71462191,41.0302159 9.53471087,41.1411569 9.37502651,41.2644247 C9.32871805,41.2890783 9.28347415,41.3137318 9.23929481,41.3394573 C9.20097056,41.3614311 9.17701791,41.4010912 9.17116282,41.4445029 C9.16104947,41.4552218 9.14987157,41.4654048 9.13975823,41.4766597 C8.58352439,42.1149725 7.69408252,41.5131041 6.99679417,41.9048813 C6.80783435,41.9825936 6.65453737,42.0849595 6.59545416,42.3202402 C6.31281285,43.3417551 4.63133658,42.5962529 3.80896215,43.8091009 C4.3646637,43.9205778 4.86447574,43.5078987 5.4116608,43.555062 C6.10948143,43.565245 6.71681427,43.3814152 7.26985442,42.9537295 C7.61530491,42.6648541 7.96980418,42.797233 8.34027189,42.8047363 C8.3455947,43.0743176 8.61652582,43.302631 9.16903369,43.3696244 C10.6860351,43.5545261 15.2428943,42.605364 17.383197,42.605364 C19.5234996,42.605364 18.087405,44.0229437 19.8311581,43.828395 C21.5749113,43.6338462 24.4992641,43.4709183 24.970333,43.393742 C25.4414018,43.3160297 26.2722928,43.2645788 26.6459542,43.3696244 C27.0196156,43.47467 26.9062397,44.2978845 27.9495108,43.8466172 C28.9922496,43.3953498 29.6235351,43.6617155 30.7280186,43.3696244 C31.8330343,43.0775333 32.9375178,43.8637675 34.5157315,43.828395 C36.0939452,43.7924865 37.2777386,44.2185644 38.6978648,43.8466172 C40.117991,43.47467 41.1436968,43.2645788 42.6431329,43.3696244 C44.142569,43.47467 44.6945446,42.9467622 45.2470525,43.3696244 C45.7995604,43.7924865 48.4822576,43.4961079 45.9640353,42.5935732 C45.6494571,42.4810243 45.2960224,42.3840179 44.9165059,42.3009461 C44.9500396,42.2596782 44.9835733,42.2087633 45.0155102,42.1455215 C44.337384,41.9005938 42.1502406,41.6267249 42.1465146,40.4481775 C41.9506351,40.4085174 41.7739178,40.372073 41.6003941,40.3367005 C41.5125677,40.3543868 41.4194185,40.3206221 41.3299953,40.2198641 C41.2107643,40.0853414 41.1197442,39.9191978 41.0303209,39.7514465 C40.6231258,39.9433155 40.1190556,39.5761918 39.635212,39.5585055 C39.7815893,39.4352377 39.9519193,39.3693163 40.1249107,39.3746757 C40.1504601,39.3752117 40.2063497,39.3033948 40.165364,39.2942837 C39.9891789,39.2551596 39.7901058,39.2776693 39.614453,39.361813 C39.6405348,39.3307281 39.6666165,39.2996432 39.6932306,39.2690942 C39.7757342,39.1747675 39.8651574,39.0713298 39.9615003,39.0011207 C40.0573109,38.9309117 40.1914458,38.8757091 40.2994989,38.9035784 C40.3261129,38.9105457 40.390519,38.8381928 40.3553884,38.8226504 C40.2308346,38.7669119 40.1158619,38.7626243 39.9838561,38.8087158 C39.852915,38.8548072 39.7379422,38.937343 39.6304214,39.0439965 C39.5260943,39.1468983 39.4249609,39.2578393 39.3275534,39.3714601 C39.332344,39.3564535 39.3376668,39.341447 39.3424573,39.3259046 C39.3877012,39.1865584 39.4388002,39.0493559 39.4808504,38.9089378 C39.5090613,38.8146112 39.5404659,38.6613303 39.6155176,38.6093435 C39.6511804,38.5846899 39.665552,38.4892914 39.6096625,38.523592 C39.5362077,38.5680756 39.4686079,38.6281016 39.4153798,38.7074218 C39.3562966,38.7953171 39.3147787,38.9078659 39.2743253,39.0091599 C39.2407916,39.0922317 39.2067256,39.1769113 39.1731919,39.2621269 C39.1710628,39.2230028 39.1705305,39.1833427 39.171595,39.1436826 C39.1747887,39.0300618 39.1907572,38.9159051 39.2189681,38.806572 C39.2482435,38.6918793 39.3020039,38.5905853 39.3328762,38.4775005 C39.3488447,38.4185464 39.2913583,38.4351607 39.2690025,38.4565986 C39.1838375,38.5385985 39.1359322,38.6774087 39.1008016,38.8001406 C39.0843009,38.8580229 39.0715262,38.9164411 39.0614128,38.9759312 C38.970925,38.0187299 39.2865678,37.0701038 39.393024,36.0962882 C39.45743,35.6107203 39.6660843,35.2848645 40.0094056,35.0763811 C40.4485376,34.8823683 40.8647815,34.4707611 41.3156237,34.3876893 C41.390143,34.2912188 41.4742435,34.2097549 41.5647313,34.1534805 C41.6706552,34.0864871 41.7920153,34.0580819 41.9059235,34.0838074 C41.9650067,34.0612976 42.0267513,34.0505787 42.0922219,34.0559381 C42.1262879,34.0586179 42.1523697,34.0725525 42.1720641,34.0939904 C42.1805806,34.0998858 42.1890971,34.107389 42.1976136,34.1170361 C42.7831229,34.7676757 43.5900612,34.1004217 44.2724457,34.2515588 C44.6482362,34.3346305 44.9707986,34.6728131 45.1294184,35.1037144 C45.1374026,35.1240804 45.1443222,35.1449823 45.1507096,35.1669562 C45.2204384,35.3818709 45.2497139,35.6176876 45.225229,35.8545761 C45.2140511,35.9590858 45.1416608,36.0180399 45.0713997,36.0191118 C44.922361,36.3803401 44.6503653,36.633307 44.3618689,36.4387583 C44.2990597,36.391059 44.1276652,36.5904313 44.1888775,36.6515292 C45.0634155,37.411502 46.5580611,34.6186824 44.7328689,33.9551801 C44.7227555,33.9348141 44.7131745,33.9149841 44.7041257,33.8967619 C44.6881573,33.905337 44.6727211,33.9144481 44.657285,33.9230233 C44.1707799,33.6652328 43.5842061,33.8544221 43.1179278,33.5885924 C43.1142018,33.5462526 43.1147341,33.4889062 43.1200569,33.4197691 C42.9295002,33.1946714 43.0359565,32.5070514 43.1030239,32.2112087 C43.2387556,31.6104122 43.6262563,30.9490536 44.1622634,31.3295759 C44.4193553,31.5128698 44.5417799,31.8628432 44.6918832,32.1651173 C44.8015332,32.3853915 45.0229621,32.6806982 45.255569,32.6785544 C45.3061357,32.6651558 45.3529765,32.652293 45.3966235,32.6383584 C45.4237699,32.62228 45.4503839,32.601914 45.476998,32.5756526 C45.639876,32.4143326 45.6169879,32.1393918 45.656909,31.9164379 C45.6883136,31.7368956 45.7734786,31.5857586 45.8889836,31.469994 C46.0848631,31.2722296 46.34781,31.1559291 46.5985144,31.1130534 C46.6395001,31.1017985 46.6826149,31.0959031 46.7267942,31.0975109 C46.7374398,31.096439 46.7486177,31.0948312 46.7592634,31.0942952 C46.7848129,31.0932233 46.8061041,31.0996547 46.8236694,31.1103736 C46.838041,31.1141253 46.8529448,31.1184128 46.8678487,31.1237723 C47.1685876,31.177367 48.0479161,31.4592751 47.6252848,32.0514965 C47.4751816,32.4877573 48.1282906,31.8633791 47.9771227,31.4222948 L47.9771227,31.4222948 Z" id="42"></path>
            </g>
        </g>
    </g>
</svg>