<?xml version="1.0" encoding="UTF-8"?>
<svg width="48px" height="40px" viewBox="0 0 48 40" version="1.1" xmlns="http://www.w3.org/2000/svg" xmlns:xlink="http://www.w3.org/1999/xlink">
    <title>边框-6</title>
    <g id="V1.4" stroke="none" stroke-width="1" fill="none" fill-rule="evenodd">
        <g id="形状汇集备份" transform="translate(-472.000000, -709.000000)" fill="#3D4242">
            <g id="边框-6" transform="translate(472.000000, 709.500000)">
                <path d="M14.9971576,0.00186547085 L15.0630026,0 L14.8916864,0.111039932 C14.787407,0.180439889 14.6468161,0.279450495 14.5025008,0.40159442 L14.2874246,0.597764965 C14.2175946,0.668090256 14.1496268,0.743042209 14.0881764,0.818919496 C14.025795,0.894796783 13.9708621,0.972524735 13.9243088,1.05025269 C13.8777555,1.1298313 13.842375,1.20940992 13.8172362,1.28806321 L13.7170949,1.61898962 C13.7001288,1.67711423 13.6831627,1.73654115 13.6664035,1.79699623 L13.590638,2.06869706 L13.5127776,2.33831589 C13.461569,2.51783045 13.4094293,2.68809168 13.3517032,2.83799559 C13.2967703,2.98975016 13.2371821,3.12207275 13.1692143,3.22293402 L13.0445204,3.40429924 C13.0247956,3.43205922 13.0053467,3.45858543 12.9857943,3.48387786 C12.9271371,3.56160581 12.8656867,3.6291551 12.7977189,3.70410705 L12.6471621,3.86038548 L12.2288376,4.28336536 L12.0295205,4.49763131 C11.9030219,4.62940555 11.7455837,4.77917237 11.533897,4.93074797 L11.4001888,5.02178091 C11.2758915,5.10575486 11.1636398,5.18972881 11.0685402,5.27487388 L10.979347,5.3604527 C10.9216209,5.41504733 10.8713433,5.46964197 10.8266521,5.51960994 C10.782892,5.5723539 10.7456494,5.62232187 10.7149242,5.66673785 L10.7130621,5.67599117 C10.6944408,5.7361378 10.6720952,5.82496975 10.6544049,5.92212969 L10.6078516,6.20990818 L10.782892,6.07295893 L10.9840023,5.92398035 C11.1236622,5.81849242 11.2819434,5.70930315 11.4513974,5.59086056 C11.721779,5.40431347 12.0297012,5.20710656 12.3646764,5.01061029 L12.6208164,4.86354901 C12.9712892,4.66406674 13.9899425,4.17782873 15.0607214,3.68112618 L15.6644712,3.40244857 C15.7808545,3.24329134 15.9177212,3.02028614 16.0629675,2.71029967 C16.3394941,2.12363869 17.0042753,1.72204427 17.4269792,1.66374831 C18.2535913,1.55010588 18.2381523,1.29820572 18.5743863,1.25648781 L18.6466757,1.2510499 C19.0610001,1.23716991 19.3924596,1.05950601 20.0693446,0.949391416 C20.5592878,0.869128856 21.4009423,1.404318 21.8298716,1.70716514 L22.0981375,1.90526016 L21.9567716,1.92731898 C21.6705559,1.97836465 21.0171151,2.12821093 20.6326396,2.47989181 L20.1186878,2.94611969 C19.7068404,3.31065994 19.2603915,3.67172041 18.946479,3.77998434 C18.5678455,3.91030204 18.3773649,3.93202165 17.9041161,3.94956442 L17.3745195,3.96852089 C17.1841601,3.9735813 16.9517937,3.96779797 16.682421,3.90147041 L16.5163967,3.85401096 C16.2324215,3.76240302 15.970792,3.72724037 15.7640953,3.71891238 L14.5862968,4.33333333 L14.2420092,4.50565086 L14.0583823,4.60260517 C13.6840938,4.79877571 13.2790801,5.02733291 12.8871013,5.23368211 C12.5267787,5.44928465 12.1403863,5.66858851 11.7912365,5.87863905 C11.924379,5.83699907 12.0994194,5.78888177 12.2679424,5.76297245 C12.3536004,5.75094313 12.4346032,5.74076447 12.5090885,5.74076447 C12.5835737,5.73983913 12.6515416,5.7444658 12.7027502,5.75834579 C12.7902704,5.78240444 12.8852391,5.77592711 12.9792768,5.76019646 C13.0081399,5.70467649 13.0770387,5.6287992 13.179456,5.54366859 C13.2306646,5.50110328 13.2911839,5.45946331 13.3600828,5.41504733 C13.4299128,5.37248203 13.5062602,5.32806605 13.5909872,5.28920208 C13.927102,5.12634351 14.3870486,5.00142359 14.8823758,5.0384369 L15.2529401,5.06989821 L15.534122,5.10228486 C15.6989207,5.12449285 15.8199593,5.15225283 15.9242387,5.18741547 C16.0285181,5.22442878 16.1151072,5.27069542 16.2082138,5.34379671 C16.3013204,5.41597267 16.4018755,5.51220727 16.5303627,5.64452986 C16.6260297,5.7444658 16.7505016,5.84179924 16.887281,5.93653018 L17.1753586,6.1263969 L17.324562,6.22101217 C17.4251171,6.28300947 17.5247412,6.34963343 17.621572,6.41163072 C18.0042402,6.6651719 18.3152162,6.92056374 18.3924947,7.12876361 C18.4064607,7.16577692 18.3589763,7.18983558 18.2770425,7.20926756 L18.2081436,7.22106556 L18.0409009,7.24130721 L17.7234356,7.27118393 C17.5739655,7.28658276 17.4310971,7.30362183 17.3360035,7.32437302 L17.2333175,7.35165314 L17.1867642,7.35917147 C17.1532458,7.36379814 17.1187964,7.36749947 17.0778295,7.3684248 C16.9996199,7.37212613 16.9074444,7.3656488 16.8068893,7.36102214 L16.4810162,7.33141149 L15.1566264,7.18702531 L14.8779273,7.15203402 C14.8514437,7.14798997 14.8265118,7.14387738 14.8032352,7.13986761 C14.5322949,7.0889743 14.1784899,6.94739839 13.8377197,6.73272119 C13.4941563,6.51434266 13.1636279,6.2219375 12.9708972,5.83514841 C12.6096436,5.81479109 12.1841464,6.04890028 12.06497,6.08776425 C11.9308965,6.1257029 11.5566079,6.10534558 11.4253276,6.09794291 L11.1106273,6.29966546 L10.9356558,6.41947891 C10.9092067,6.43825974 10.8840679,6.45635514 10.8601705,6.47362802 C10.4830888,6.74845185 10.0901789,7.13524094 9.7615126,7.49797139 C9.47230021,7.81455086 9.23156145,8.11271042 9.05301863,8.29140628 L8.9803482,8.36038152 C8.91144931,8.42330415 8.82486017,8.51583743 8.72337397,8.62780269 L8.56602381,8.81286924 C8.51015985,8.87856787 8.45429589,8.94796783 8.39656979,9.02291978 C8.49340066,8.98313047 8.59861112,8.94611716 8.69823519,8.92390918 L9.27053044,8.78157929 C9.30529024,8.77256586 9.33818791,8.76382661 9.36860273,8.75549861 C9.39560365,8.65741334 9.48126172,8.52879208 9.59671391,8.38444017 C9.71589036,8.24378959 9.86765412,8.08925902 10.0371081,7.94860844 C10.373223,7.66730728 10.7661328,7.43967542 11.0203139,7.41284077 C11.1618359,7.39618478 11.2884609,7.39340878 11.4085684,7.40081145 C11.5268138,7.40913944 11.6385417,7.4276461 11.7530628,7.45818208 C11.9082405,7.49827983 12.0679701,7.55647298 12.2554247,7.63413239 L12.8040182,7.87193595 L13.4690175,8.13830166 C13.6068153,8.19382162 13.7343714,8.24749092 13.8535478,8.30578689 C13.9342402,8.34526775 14.0112083,8.38515988 14.0839004,8.42765664 L14.1896626,8.49362944 C14.2573201,8.53927919 14.3249776,8.57752628 14.3904281,8.61001574 L14.4866727,8.65463734 C14.5807104,8.69812798 14.6672995,8.72866396 14.7408537,8.75179728 L14.868927,8.78750827 L14.983862,8.81101858 L14.9652407,8.84247989 L14.9248255,8.89477833 C14.9153769,8.90550533 14.904411,8.9171234 14.8916864,8.92946117 C14.8535127,8.96739981 14.801373,9.00996512 14.7296809,9.06455976 L14.6714893,9.1052744 L14.6049181,9.14876504 C14.5592959,9.17745035 14.5080872,9.21168766 14.448499,9.24592498 C14.2166636,9.38287423 13.9075496,9.44487152 13.5583999,9.4809595 C13.2101812,9.51704748 12.8172713,9.51889814 12.432741,9.51889814 C12.2400104,9.51704748 12.0761428,9.53555413 11.9253101,9.55683679 C11.7754084,9.57719411 11.6459902,9.60495409 11.5193653,9.62438608 C11.3927403,9.6447434 11.2744949,9.65954872 11.1497321,9.65862339 C11.0259003,9.65677272 10.895551,9.63826607 10.7475115,9.59477543 C10.2009758,9.4300662 9.56598873,9.10619973 9.39839684,8.91373051 L9.0245999,9.01453256 C8.98755837,9.02400057 8.95270671,9.03252844 8.92073762,9.03975343 L8.83417083,9.05715709 C8.77621197,9.06617909 8.69939902,9.09133657 8.61315903,9.12677393 L8.52412584,9.16542103 C8.46360655,9.19225568 8.39843193,9.22371699 8.33418837,9.25610364 L8.1442509,9.35789024 C7.83048165,9.79187131 7.53067838,10.2813723 7.32398172,10.6413268 L7.31280893,10.6357748 C6.89289815,11.2788811 6.48974656,12.0487579 6.24673832,12.6511495 L6.68435426,12.4558377 L6.77465276,12.4114884 L6.82935289,12.3551587 L6.88544962,12.2911951 C6.92641653,12.2458538 6.96645237,12.1958858 7.00835034,12.1422165 C7.05024831,12.0876219 7.08842202,12.0265499 7.12938892,11.9636273 L7.18851162,11.8639227 L7.24484111,11.7572781 C7.28860121,11.6656702 7.34260304,11.5851662 7.39660487,11.5129902 C7.45153777,11.4417396 7.50460853,11.3778917 7.56140356,11.3214464 C7.67406255,11.2113318 7.78206621,11.1262012 7.86865535,11.0568012 L7.99528033,10.9577906 C8.19545953,10.797708 8.33698157,10.6996227 8.46919294,10.6191188 C8.60419752,10.5413908 8.73454676,10.4849455 8.9254153,10.4238736 C9.13769836,10.355399 9.47846852,10.341519 9.84717067,10.3618763 C10.2130796,10.3794576 10.6078516,10.4340522 10.9206898,10.4803189 L11.4439489,10.5635988 L11.7176823,10.6098655 L12.0978191,10.6827499 L12.5565728,10.7801267 L12.502571,10.822692 C12.4690526,10.8495267 12.4187751,10.8874653 12.3508072,10.9300306 L12.1954916,11.021947 C12.1664562,11.0382945 12.135731,11.0549505 12.1031437,11.0716065 C12.037969,11.1030678 11.9674149,11.1365854 11.8898261,11.1688693 L11.7679599,11.2159584 C11.262391,11.398249 10.8555152,11.6952808 10.5892303,11.8757207 C10.5417459,11.9081073 10.4914684,11.9358673 10.4402597,11.9617766 L10.2791853,12.0385793 L10.0529707,12.1353622 C10.0112452,12.1537318 9.96727819,12.1736778 9.92072489,12.1958858 L9.77209916,12.2706664 L9.69075158,12.3143284 C9.6078867,12.3596697 9.51850436,12.413339 9.41794923,12.4753363 C9.34346395,12.521603 9.24570201,12.5678696 9.12931876,12.6058082 C9.01293551,12.6428216 8.87793093,12.6752082 8.73547783,12.6964909 C8.45057162,12.7409068 8.12004318,12.7464588 7.81558459,12.6724322 C7.37146609,12.5632429 7.0586279,12.5364083 6.85658658,12.5401096 L6.78861876,12.5576909 C6.74578972,12.5687949 6.68713256,12.5863763 6.61916474,12.6104349 C6.48416016,12.6594775 6.31284401,12.7353548 6.16759771,12.8426934 L6.07971998,13.0898535 C6.05381399,13.1661602 6.03157269,13.2360117 6.01383029,13.2982829 L5.99069517,13.3858638 C5.95957096,13.5052978 5.73657589,14.0515888 5.54162173,14.6794898 L5.49723017,14.8256815 C5.39015757,15.1680547 5.3017063,15.5252331 5.23373848,15.8370703 C5.20115117,15.9934515 5.17508132,16.1378034 5.15552893,16.2627233 L5.13364888,16.4355292 L5.12294162,16.5736351 C5.11456203,16.7753577 5.04473208,17.1140295 4.97397106,17.5035946 C5.11176883,17.4138373 5.31101696,17.276888 5.44043514,17.1556694 C5.39574397,17.0788668 5.37526052,16.9891095 5.36781199,16.8919496 C5.36129453,16.795715 5.36501879,16.6948537 5.38084691,16.5967685 C5.39574397,16.4986832 5.41995169,16.4061499 5.44322834,16.3265713 C5.46650499,16.2469927 5.49443697,16.1803687 5.51398936,16.1378034 C5.54005921,16.0813581 5.59033677,15.9943768 5.65551139,15.8981422 C5.72161708,15.8009823 5.80168876,15.6927183 5.88455364,15.5918571 C6.05307659,15.3892092 6.228117,15.2124706 6.32122361,15.1847107 C6.35613858,15.1743007 6.42195331,15.1614183 6.50801327,15.1463563 L7.05769684,15.0542387 C7.39288061,14.9959428 7.7438925,14.9283935 7.91893292,14.8358602 L8.49504679,14.5402497 C8.61350818,14.4782006 8.72821551,14.4152039 8.84441255,14.3445085 C8.95474388,14.2799665 9.07921577,14.2232321 9.19426062,14.17938 L9.30529024,14.14001 C9.44588121,14.092818 9.54829848,14.0696847 9.54829848,14.0696847 L9.47008893,14.2029326 C9.42167349,14.2871379 9.36208527,14.4037298 9.29691065,14.5323511 C9.17121673,14.7914442 9.03807429,15.1042067 9.00548698,15.3031532 L8.98127926,15.4576838 L8.94682982,15.7898783 C8.94124342,15.8444729 8.93472596,15.9009182 8.92634637,15.9536622 C8.91703571,16.0082568 8.90679398,16.0610008 8.89469012,16.1109688 C8.88072413,16.1600114 8.86768921,16.2072034 8.84906789,16.2525447 C8.81368738,16.3413766 8.76061661,16.4181792 8.68892453,16.4736992 C8.44392115,16.6656396 8.01559277,16.758324 7.71645184,16.9434661 L7.57909382,17.0446295 C7.43850285,17.1751014 7.07538709,17.2676347 6.70202961,17.32408 C6.32774107,17.3796 5.93390014,17.396256 5.72161708,17.3536907 C5.67227058,17.3444373 5.62851048,17.3287067 5.59126784,17.307424 L5.43188313,17.5041429 L5.24118701,17.7488077 L5.20681031,17.7661144 C5.14226124,17.8003372 4.99980814,17.8841377 4.89296831,18.0069756 C4.83710435,18.3761834 4.80731024,18.7574205 4.8138277,19.0914656 L4.82465134,19.2880988 C4.82942306,19.3600434 4.83524222,19.4380027 4.84175968,19.52082 L4.88179552,19.9198697 L4.96489316,20.6682326 C4.98677322,20.8748132 5.00655837,21.083707 5.01866223,21.2872802 C5.06987086,21.67592 5.10804457,22.0858424 5.14063188,22.4615275 C5.16111533,22.3366076 5.20487543,22.176525 5.2579462,22.0303224 C5.30040281,21.9141006 5.35477707,21.8073543 5.41391838,21.7342456 L5.45905646,21.6860987 C5.52423108,21.6278027 5.56240479,21.5482241 5.58940571,21.4658695 C5.54750773,21.4149762 5.50281656,21.3252189 5.46557392,21.2021496 C5.42740022,21.078155 5.4031925,20.9245498 5.39388184,20.7496619 C5.38177798,20.4008114 5.4497458,19.9705317 5.69275404,19.5689373 L5.9743153,19.1103835 L6.02048928,19.0405723 C6.10800949,18.909175 6.17970157,18.8138658 6.25791112,18.7370631 C6.41526128,18.5853086 6.59216382,18.5057299 6.9655213,18.3771087 C7.15359664,18.3141861 7.35377584,18.1985195 7.55581717,18.0643462 L7.708512,17.9608246 L8.16659648,17.6349918 L8.46174442,17.4314186 C8.52567762,17.3894702 8.5883694,17.3499893 8.64926801,17.3140727 L8.73920209,17.263008 C8.8267223,17.2139654 8.90958718,17.1723254 8.98593459,17.1445654 C9.06321307,17.1149548 9.13397409,17.0982988 9.19635552,17.0955228 C9.28573785,17.0908961 9.23732242,17.3314827 9.17307886,17.6109332 L9.076248,18.0347356 C9.04645388,18.1679835 9.02876363,18.2827247 9.02597043,18.35305 C9.02150131,18.4492846 8.98306691,18.5769065 8.91972462,18.7245452 L8.86768921,18.8388497 C8.83789509,18.903623 8.80437672,18.9716864 8.76740995,19.0424915 L8.61944372,19.3164371 L8.52319477,19.4856573 C8.26156522,19.9362944 7.98131434,20.4008114 7.80906713,20.6182646 C7.72340905,20.7256032 7.60609473,20.8375685 7.4617795,20.9439818 C7.31746426,21.0513204 7.15080344,21.1549576 6.9627281,21.2428643 C6.58750849,21.4205282 6.1378036,21.5417467 5.66202886,21.5093601 C5.56892225,21.64816 5.52609322,21.8313759 5.50840296,21.9933091 C5.49071271,22.154317 5.49164377,22.2949676 5.47953991,22.3523382 C5.4581254,22.4763328 5.24491127,22.7585593 5.17787452,22.8538686 L5.21511716,23.1980924 L5.24394572,23.3941259 C5.24863554,23.4240792 5.25329087,23.4525589 5.2579462,23.4793936 C5.31976898,23.8250979 5.43939235,24.2134415 5.57438947,24.5809393 L5.76327367,25.0674702 L5.92272735,25.4596057 C5.99814369,25.6372696 6.05121446,25.7918001 6.0828707,25.9019147 C6.12663081,26.0731013 6.2364966,26.3664318 6.39012249,26.6986262 C6.40129529,26.6357036 6.41453711,26.5723697 6.43205495,26.5110921 L6.66851124,25.8297388 C6.51302321,25.6816855 6.34729346,25.2930458 6.25511792,24.8868247 C6.16201132,24.4815289 6.15270066,24.0586519 6.25325579,23.8513773 C6.37057011,23.6135668 6.49998829,23.4544096 6.6722355,23.305431 C6.85006911,23.1564524 7.07166283,23.0176525 7.38077675,22.8344366 C7.69175281,22.6484447 7.9524513,22.4624528 8.1935974,22.2958929 C8.37585357,22.171667 8.54658781,22.0604536 8.71915508,21.9700601 L8.89282799,21.8868959 C9.1255945,21.7869599 9.29877278,21.656488 9.41143177,21.5510001 L9.5064005,21.457233 C9.51912507,21.4436615 9.53029787,21.4313237 9.53991888,21.4205282 L9.58181685,21.3659335 L9.60602457,21.4020215 L9.63809462,21.4692623 C9.64440518,21.4839649 9.65133645,21.5004152 9.65909533,21.5186134 C9.67864772,21.5741334 9.7009933,21.64816 9.71868356,21.7434693 C9.73637381,21.8378532 9.75685727,21.9553705 9.76709899,22.0978717 C9.77454752,22.1691224 9.77454752,22.2412983 9.76709899,22.3153249 L9.753133,22.4254395 L9.73078742,22.5364795 C9.71402823,22.6114314 9.68888945,22.6863834 9.66095747,22.763186 L9.61789566,22.8776959 L9.54143186,23.0511958 L9.45426081,23.224927 C9.41236283,23.3035803 9.36860273,23.3803829 9.32204943,23.4590362 C9.23173602,23.6135668 9.13118089,23.7690227 9.03155683,23.9207773 C8.93379489,24.0706812 8.85930961,24.2113318 8.80251458,24.3390277 C8.74665062,24.4667236 8.70102839,24.5833155 8.65447508,24.6915795 C8.56323061,24.907182 8.45522695,25.0894726 8.21501192,25.2606591 C7.76251383,25.5836003 7.10890547,25.8769307 6.83144779,25.8954374 L6.76094002,26.1253641 C6.73765593,26.1982063 6.71484853,26.2652744 6.69329249,26.3206463 L6.66199378,26.3941918 C6.6312686,26.4580397 6.61078514,26.561677 6.59588809,26.6838209 C6.5791289,26.8050395 6.57261144,26.9419888 6.56981824,27.07061 C6.80537794,27.5434551 7.09959481,28.0348067 7.32398172,28.3864332 L7.31280893,28.3919852 C7.63868204,28.9741352 8.06364095,29.6002095 8.45607619,30.0879575 L8.62188777,30.287992 L8.67988974,29.8428727 L8.6870624,29.7670297 C8.66099255,29.6763471 8.61816351,29.5680831 8.56136848,29.4477899 C8.53250543,29.3876432 8.49898706,29.3247206 8.45988228,29.2608727 L8.39913022,29.1624404 L8.33139517,29.0619261 C8.26994481,28.9786462 8.22152938,28.8962916 8.1852178,28.8167129 C8.1470441,28.7371343 8.11818105,28.661257 8.09583546,28.5890811 C8.07488648,28.5169051 8.05975666,28.4493558 8.04776918,28.3871272 L7.99434927,28.0690441 C7.95617556,27.8321589 7.94034744,27.6730016 7.93941637,27.5314257 C7.93941637,27.3889245 7.96083089,27.2612286 8.00552206,27.0863407 C8.06045496,26.8920208 8.23270217,26.6329276 8.45615802,26.3701331 C8.56695488,26.2368852 8.68520026,26.1073386 8.80623885,25.9814933 L9.15445754,25.6335682 L9.5175733,25.2865684 L9.77406475,25.0482438 L10.3210833,24.5620329 L10.3349329,24.6275002 C10.3424978,24.6698342 10.3513429,24.7313688 10.3564638,24.8081714 C10.3629813,24.8858994 10.3657745,24.9756566 10.3601881,25.0792939 C10.3536706,25.1829312 10.3443599,25.2948964 10.316428,25.4179657 C10.2168039,25.9046907 10.2735989,26.3719838 10.2987377,26.6690156 C10.3043241,26.7772795 10.2959445,26.8762901 10.2791853,26.9891807 L10.2444945,27.2083818 L10.2298388,27.3389565 C10.2214592,27.4092818 10.2140107,27.4860844 10.2112175,27.5721404 L10.2093554,27.7574125 C10.2096657,27.7906217 10.2102864,27.8250647 10.2112175,27.8608442 C10.2130796,27.9404228 10.2009758,28.0366574 10.1711817,28.1421453 C10.1413875,28.2494839 10.0966964,28.3642252 10.0389703,28.4798918 C9.92072489,28.714001 9.74382234,28.9582888 9.50546944,29.1415047 C9.15725074,29.4098512 8.96172687,29.6254538 8.85279215,29.7772083 L8.83044656,29.837355 L8.80292839,29.9309164 C8.79806616,29.9493202 8.79320392,29.9690607 8.78854859,29.9900349 C8.76061661,30.1149548 8.7364089,30.2842907 8.76154768,30.4499253 L8.91638051,30.6186785 L9.05655767,30.7607 L9.23313262,30.9299416 L9.56505766,31.2836501 C9.7587194,31.4909246 10.0138315,31.7472418 10.2875649,32.003559 C10.5622294,32.2598761 10.8601705,32.5106413 11.1273865,32.7179159 L11.3843607,32.9077804 C11.4247069,32.9365 11.4638117,32.9634375 11.501675,32.988113 L11.6593743,33.0907093 C11.7074406,33.120667 11.7507352,33.1458823 11.7884433,33.1648516 C11.9821051,33.2703395 12.2791151,33.4850167 12.6338513,33.7219019 C12.6077815,33.571998 12.5677456,33.3545448 12.5109506,33.1981636 C12.417844,33.1944622 12.3182199,33.1694783 12.2195269,33.1306143 C12.1208339,33.0926756 12.0267963,33.0362303 11.939276,32.9779344 C11.8796878,32.9403042 11.8254791,32.8989726 11.7769257,32.8586007 L11.7083717,32.7993451 C11.643197,32.7410492 11.5910574,32.6910812 11.5603322,32.6540679 C11.5175031,32.6059506 11.4616392,32.5245213 11.4001888,32.4273614 C11.3406006,32.3292761 11.2791502,32.2136095 11.2232863,32.1025696 C11.1162137,31.8740124 11.0407973,31.6510072 11.0631429,31.5668019 C11.0854885,31.4825966 11.2046649,31.2281301 11.3275657,30.949605 L11.4302598,30.7093314 C11.5114227,30.5110728 11.5760273,30.3242122 11.5826778,30.1973094 C11.5901263,30.0214962 11.6040923,29.8641896 11.6152651,29.712435 C11.6245757,29.5643818 11.6338864,29.4181792 11.6310932,29.2682753 C11.6296966,29.1544594 11.6487253,29.032836 11.6716818,28.9264372 L11.712027,28.7661281 L11.7642356,28.6112891 L11.8208927,28.701629 L11.9913576,28.9483271 L12.051935,29.0295395 C12.0947641,29.0859848 12.1385242,29.1442807 12.1841464,29.200726 L12.3265995,29.3663606 C12.3731528,29.4191046 12.4224993,29.4662965 12.4681216,29.5107125 C12.5137438,29.5542031 12.5565728,29.5939925 12.5975397,29.6245284 C12.7586142,29.7448217 12.9690351,29.8641896 13.1459376,29.9872589 L13.2105303,30.0345665 L13.2688383,30.0825682 C13.3088742,30.1149548 13.3433236,30.1473414 13.3740488,30.1815788 C13.4354992,30.2491281 13.4764661,30.3222293 13.4904321,30.3999573 C13.504398,30.4786106 13.5025359,30.5665172 13.4932253,30.6581251 L13.4757678,30.797619 L13.4541205,30.941277 C13.4233953,31.1355968 13.4019808,31.3299167 13.4494652,31.497402 C13.4950874,31.6639618 13.4094293,31.9804257 13.2800111,32.2968895 C13.151524,32.6115026 12.9811389,32.9251904 12.8386858,33.0704676 C12.8070296,33.1056303 12.7697869,33.1306143 12.7316132,33.1509716 L12.847893,33.3646207 L12.9997603,33.6256673 L13.0036882,33.6986674 C13.0051721,33.7138053 13.0072088,33.7309239 13.010002,33.7496619 C13.0221058,33.8236885 13.0472446,33.9208485 13.0975222,34.0152324 C13.4401545,34.2206563 13.8088566,34.4149762 14.1514889,34.5454481 C14.3944972,34.6379814 14.7613372,34.7545733 15.1765926,34.8674639 C15.5918481,34.9812798 16.0536568,35.0932451 16.4875336,35.209837 L17.7603009,35.4791088 L17.6262963,35.4146097 C17.6027438,35.4025118 17.578743,35.3899684 17.5545353,35.3773222 C17.4828432,35.3375329 17.4102201,35.2958929 17.3422522,35.2505516 C17.2335037,35.1757848 17.1390564,35.1004257 17.0817921,35.027317 L17.0461732,34.9729518 C17.0079995,34.8998505 16.9391006,34.8406292 16.8627532,34.7925119 C16.733335,34.8313759 16.4251522,34.8230479 16.0629675,34.7138586 C15.703576,34.6018934 15.293907,34.3825895 14.9941037,34.0318884 L14.8400295,33.8490838 L14.7743721,33.7681686 C14.7091975,33.6913659 14.6579889,33.6210406 14.6114356,33.560894 L14.531019,33.4447819 L14.4978455,33.3924835 C14.4643271,33.3415901 14.4410505,33.2925475 14.4214981,33.2472062 C14.3814622,33.1528223 14.3628409,33.063065 14.3591167,32.9548011 C14.3572545,32.8437611 14.3693584,32.7132892 14.3944972,32.5393266 C14.4187049,32.3672147 14.4028768,32.1627162 14.3740137,31.9498897 L14.3507371,31.7880721 L14.2967352,31.4603886 L14.2734586,31.2975301 C14.2408713,31.0847035 14.2203878,30.877429 14.2203878,30.7043918 C14.2213189,30.5276532 14.2455266,30.3814506 14.3023216,30.2833654 C14.3228051,30.2482027 14.3796001,30.265784 14.4568786,30.3102 L14.58909,30.3981066 L15.0162077,30.7198554 C15.1357207,30.8066694 15.2440284,30.8794119 15.3115972,30.9116663 C15.5117764,31.0060503 15.7799234,31.3511994 16.0676228,31.7157805 L16.6347985,32.4442839 C16.7023492,32.5331824 16.7597773,32.6116877 16.7994407,32.6772012 C16.8683396,32.7817638 16.92979,32.9131611 16.9800675,33.0676917 C17.0322072,33.2185209 17.0722431,33.3924835 17.0945887,33.5766247 C17.141142,33.9439818 17.1206585,34.3594562 16.930721,34.7462453 C16.986585,34.8082426 17.057346,34.8628372 17.1364866,34.9100292 C17.2156273,34.9562958 17.2994232,34.9942345 17.3794949,35.0293971 C17.5424314,35.0950957 17.6904709,35.1330344 17.7463349,35.159869 C17.7917244,35.182771 17.853873,35.2311775 17.9174619,35.2890831 L18.044276,35.4114439 L18.1895223,35.5596128 C18.4595315,35.6086554 18.7025397,35.6428927 18.8831665,35.6595487 C19.3673209,35.7067407 19.9510993,35.6752794 20.4669098,35.6151327 L20.7314891,35.6369811 C21.3698734,35.6943131 23.0146918,35.8701417 24.0012365,36.230479 C25.2423475,35.7761407 27.533701,35.6151327 27.533701,35.6151327 C28.0495116,35.6752794 28.63329,35.7067407 29.1174443,35.6595487 C29.2999333,35.6428927 29.5401483,35.6086554 29.8101575,35.5596128 L30.0187163,35.3495622 C30.1043743,35.2662823 30.1928256,35.190405 30.255207,35.159869 C30.311071,35.1330344 30.4591105,35.0950957 30.621116,35.0293971 C30.7011877,34.9942345 30.7859147,34.9562958 30.8631932,34.9100292 C30.9423338,34.8628372 31.0130948,34.8082426 31.0698898,34.7462453 C30.8799523,34.3594562 30.8604,33.9439818 30.9060222,33.5766247 C30.9274367,33.3924835 30.9693347,33.2185209 31.0205433,33.0676917 C31.0708209,32.9131611 31.1322712,32.7817638 31.2002391,32.6772012 C31.2682069,32.568012 31.382728,32.4227347 31.5112151,32.2533988 L32.1215104,31.4781439 C32.336381,31.2101832 32.5316635,30.985076 32.6880826,30.9116663 C32.7738737,30.8713482 32.9214191,30.7677676 33.0750722,30.6525192 L33.4115209,30.3981066 L33.5428012,30.3102 C33.6200797,30.265784 33.6768747,30.2482027 33.6992203,30.2833654 C33.7560153,30.3814506 33.7783609,30.5276532 33.780223,30.7043918 C33.780223,30.8341697 33.7687011,30.9832061 33.7491923,31.1393994 L33.7029446,31.4603886 L33.6750126,31.6241725 L33.6265971,31.9498897 C33.5977341,32.1627162 33.582837,32.3672147 33.6070448,32.5393266 C33.6312525,32.7132892 33.6442874,32.8437611 33.6414942,32.9548011 C33.6377699,33.063065 33.6182175,33.1528223 33.5800438,33.2472062 C33.5595604,33.2925475 33.5353527,33.3415901 33.5046275,33.3924835 C33.4729712,33.4433768 33.4338665,33.4979714 33.3891753,33.560894 L33.286758,33.6936621 L33.0877858,33.9374016 C33.0623711,33.9679376 33.0356806,33.9995017 33.0074382,34.0318884 C32.7067039,34.3825895 32.2979659,34.6018934 31.9367123,34.7138586 C31.5754587,34.8230479 31.2663447,34.8313759 31.1378576,34.7925119 C31.0812954,34.8285999 31.0278755,34.8709339 30.9885961,34.920685 L30.9544376,34.9729518 C30.9088154,35.0627091 30.7942943,35.157093 30.6583586,35.2505516 C30.5903908,35.2958929 30.5168366,35.3375329 30.4451445,35.3773222 C30.3743835,35.4152609 30.3036225,35.4522742 30.2393789,35.4791088 L31.5130772,35.209837 L32.3955899,34.9809028 C32.5415949,34.9431355 32.6852894,34.9054025 32.8240182,34.8674639 L33.1669057,34.7704415 C33.4396429,34.6899133 33.6762097,34.6115433 33.8491219,34.5454481 C34.1926853,34.4149762 34.5604564,34.2206563 34.9040197,34.0152324 C34.9533662,33.9208485 34.977574,33.8236885 34.9906089,33.7496619 C35.0017817,33.6747099 35.0008506,33.6256673 35.0008506,33.6256673 L35.0958193,33.4646594 C35.1507522,33.3721261 35.2140647,33.2518329 35.2689976,33.1509716 C35.2298928,33.1306143 35.1945123,33.1056303 35.161925,33.0704676 C35.020403,32.9251904 34.8481558,32.6115026 34.7205997,32.2968895 C34.5921126,31.9804257 34.5036613,31.6639618 34.5502146,31.497402 C34.588947,31.3634138 34.5823923,31.2122514 34.5629665,31.0576542 L34.5464904,30.941277 C34.5315933,30.844117 34.5166963,30.7497331 34.5083167,30.6581251 C34.4980749,30.5665172 34.4962128,30.4786106 34.5092477,30.3999573 C34.5241448,30.3222293 34.5669738,30.2491281 34.625631,30.1815788 C34.6572872,30.1473414 34.6926677,30.1149548 34.7308415,30.0825682 L34.8537422,29.9872589 C35.0315758,29.8641896 35.2410656,29.7448217 35.4030711,29.6245284 C35.443107,29.5939925 35.4868671,29.5542031 35.5315582,29.5107125 C35.5781115,29.4662965 35.626527,29.4191046 35.6740113,29.3663606 L35.8164644,29.200726 L35.9496069,29.0295395 L36.0097916,28.9483271 L36.1995464,28.6702362 L36.2354442,28.6112891 L36.2577897,28.6705104 L36.2876528,28.7661281 L36.303412,28.8259663 C36.3378614,28.9508862 36.3713798,29.1165207 36.3685866,29.2682753 C36.3657934,29.4181792 36.3760351,29.5643818 36.3853458,29.712435 L36.4086569,30.0271853 C36.4122433,30.0821569 36.4154503,30.138705 36.4179331,30.1973094 C36.4239185,30.3242122 36.4883331,30.5110728 36.5694417,30.7093314 L36.6721141,30.949605 C36.7959459,31.2281301 36.9151224,31.4825966 36.9374679,31.5668019 C36.9598135,31.6510072 36.8834661,31.8740124 36.7773246,32.1025696 C36.7214606,32.2136095 36.6609413,32.3292761 36.600422,32.4273614 C36.5389717,32.5245213 36.4821767,32.6059506 36.4393476,32.6540679 C36.4095535,32.6910812 36.3583449,32.7410492 36.2931703,32.7993451 C36.2270646,32.8567158 36.1507172,32.9214891 36.0622659,32.9779344 C35.9728835,33.0362303 35.8788459,33.0926756 35.7810839,33.1306143 C35.683322,33.1694783 35.5836979,33.1944622 35.4896603,33.1981636 C35.4328652,33.3545448 35.3928294,33.571998 35.3658285,33.7219019 L35.9091802,33.3537975 C36.0264293,33.275325 36.1282386,33.2100607 36.2112364,33.1648516 C36.2875839,33.1269129 36.3853458,33.0639903 36.4989358,32.988113 C36.613457,32.9140864 36.7372888,32.8197025 36.8722933,32.7179159 C37.1413714,32.5106413 37.4393125,32.2598761 37.713046,32.003559 L38.0291764,31.6991171 C38.1298954,31.5997289 38.2250429,31.5034795 38.3118778,31.4135076 L38.6813546,31.0190049 C38.7474603,30.949605 38.7977379,30.8987117 38.8219456,30.8755783 L38.943398,30.7607 L39.0118831,30.6932878 C39.081713,30.6229625 39.1571294,30.5387572 39.237201,30.4499253 C39.2580569,30.3174176 39.2467352,30.1825411 39.2270711,30.0699318 L39.1969583,29.9309164 L39.1543362,29.7938643 L39.1468876,29.7772083 C39.0379529,29.6254538 38.841498,29.4098512 38.4951414,29.1415047 C38.2567885,28.9582888 38.0789549,28.714001 37.9607095,28.4798918 C37.9029834,28.3642252 37.8582923,28.2494839 37.8284981,28.1421453 C37.798704,28.0366574 37.7875312,27.9404228 37.7903244,27.8608442 C37.7940487,27.7535056 37.7931176,27.6581963 37.7903244,27.5721404 C37.7866002,27.4860844 37.7791516,27.4092818 37.7717031,27.3389565 C37.7577371,27.1992313 37.7363226,27.0891167 37.7214255,26.9891807 C37.7046664,26.8762901 37.6962868,26.7772795 37.7018732,26.6690156 L37.7230404,26.4166745 C37.7407524,26.1837147 37.7525544,25.8989761 37.7127568,25.5992821 L37.6823208,25.4179657 C37.657182,25.2948964 37.6460092,25.1829312 37.6404228,25.0792939 C37.6366985,25.0102024 37.6371123,24.9472798 37.6394573,24.8899777 L37.6441471,24.8081714 C37.6534577,24.6545662 37.6804586,24.5620329 37.6804586,24.5620329 L38.1040937,24.9367927 L38.3541022,25.1658639 L38.6105936,25.4073758 L38.9572605,25.7424833 L39.194372,25.9814933 C39.3154106,26.1073386 39.434587,26.2368852 39.5453839,26.3701331 C39.7679087,26.6329276 39.941087,26.8920208 39.9941577,27.0863407 C40.040711,27.2612286 40.0611945,27.3889245 40.0630566,27.5314257 C40.0615669,27.6446865 40.051139,27.7691992 40.026529,27.9357591 L39.9811228,28.2170973 C39.9662258,28.3188839 39.9457423,28.4447292 39.9038443,28.5890811 C39.8824298,28.661257 39.8535668,28.7371343 39.8163241,28.8167129 C39.7914957,28.8697653 39.7617016,28.9240515 39.72639,28.9790232 L39.6012479,29.1624404 L39.5416596,29.2608727 C39.5016238,29.3247206 39.4671744,29.3876432 39.4392424,29.4477899 C39.3833784,29.5680831 39.3396183,29.6763471 39.3135485,29.7670297 L39.3414804,30.0140935 L39.3796542,30.287992 C39.8135309,29.7799843 40.3163066,29.0572995 40.6878019,28.3919852 L40.6775602,28.3864332 L40.8770481,28.0644588 C41.0171071,27.8327686 41.1677349,27.5715192 41.3075384,27.3078422 L41.4298616,27.07061 C41.4279994,26.9419888 41.421482,26.8050395 41.4047228,26.6838209 C41.3942483,26.592213 41.3790603,26.511015 41.3591587,26.4492057 L41.337686,26.3941918 C41.2874085,26.2887038 41.2268892,26.0916079 41.1673009,25.8954374 C40.8926365,25.8769307 40.2399592,25.5836003 39.7855989,25.2606591 C39.5453839,25.0894726 39.4373802,24.907182 39.3461358,24.6915795 L39.1971652,24.3390277 C39.1403702,24.2113318 39.066816,24.0706812 38.968123,23.9207773 C38.8684989,23.7690227 38.7688748,23.6135668 38.6785614,23.4590362 L38.6097789,23.3419816 L38.4876929,23.1101858 L38.4318289,22.9935939 C38.3955174,22.9158659 38.3657232,22.8390633 38.3387223,22.763186 C38.3107903,22.6863834 38.2865826,22.6114314 38.2688924,22.5364795 L38.2484089,22.4254395 C38.2409604,22.3875009 38.235374,22.3504876 38.2316497,22.3153249 C38.2251323,22.2412983 38.2251323,22.1691224 38.2335119,22.0978717 C38.2428225,21.9553705 38.263306,21.8378532 38.2809962,21.7434693 C38.2986865,21.64816 38.3219631,21.5741334 38.3415155,21.5186134 L38.379172,21.4303984 L38.4169319,21.3659335 L38.4597609,21.4205282 L38.5370049,21.5013405 C38.5528675,21.5170712 38.5702474,21.5337272 38.5891791,21.5510001 C38.680796,21.6353904 38.8087617,21.7357705 38.9754598,21.8237141 L39.1077829,21.8868959 C39.3405494,21.9877571 39.5640052,22.1302584 39.8070135,22.2958929 L40.1872376,22.5578778 C40.3214274,22.6484447 40.4643461,22.7414407 40.6198341,22.8344366 L40.9013954,23.0048692 C41.0718149,23.1113167 41.2098196,23.2061119 41.3283754,23.305431 C41.5015536,23.4544096 41.6309718,23.6135668 41.746424,23.8513773 C41.8479102,24.0586519 41.8376685,24.4815289 41.7445619,24.8868247 C41.6533174,25.2930458 41.4875876,25.6816855 41.3320996,25.8297388 L41.4839798,26.272684 C41.5024265,26.3241556 41.5208733,26.3742971 41.5387963,26.4210264 C41.5732457,26.508933 41.5927981,26.6042423 41.6095573,26.6986262 C41.7631832,26.3664318 41.8749111,26.0731013 41.9168091,25.9019147 L41.9651947,25.7498196 C41.984829,25.6929228 42.0080089,25.6302814 42.0348534,25.5632577 L42.237751,25.0674702 C42.2661658,24.9974534 42.2948219,24.9253802 42.3227539,24.851662 C42.4968632,24.4102783 42.6663172,23.911524 42.7426647,23.4793936 L42.7836316,23.1980924 L42.8227363,22.8538686 L42.6827507,22.6555021 C42.6082871,22.5457139 42.5330418,22.4231923 42.5192088,22.3523382 C42.5089671,22.2949676 42.5108292,22.154317 42.4922079,21.9933091 C42.4745176,21.8313759 42.4307575,21.64816 42.338582,21.5093601 C41.8618762,21.5417467 41.4121713,21.4205282 41.0369517,21.2428643 C40.8488764,21.1549576 40.6831466,21.0513204 40.5397624,20.9439818 C40.3945161,20.8375685 40.2762707,20.7256032 40.1915437,20.6182646 C40.0183654,20.4008114 39.7381146,19.9362944 39.476485,19.4856573 L39.3807016,19.3164371 L39.2912029,19.1506869 C39.2508567,19.0772771 39.2138209,19.006335 39.1803715,18.9384087 L39.1329217,18.8388497 C39.0569467,18.6819133 39.0042111,18.542151 38.9832956,18.4309334 L38.9737094,18.35305 C38.9709162,18.3003061 38.9613145,18.2225781 38.9437261,18.1307967 L38.8787406,17.8256104 L38.8512742,17.7175778 L38.7909374,17.4495773 C38.7485404,17.2450566 38.7320046,17.0918215 38.8042553,17.0955228 C38.8657057,17.0982988 38.9364667,17.1149548 39.0137452,17.1445654 C39.0646435,17.1630721 39.1188522,17.1877476 39.1752679,17.2166729 L39.2614088,17.263008 C39.348929,17.3111253 39.4429666,17.368496 39.5397975,17.4314186 L39.8340144,17.6349918 L40.138473,17.852445 C40.2408902,17.9255463 40.3433075,17.9977223 40.4457248,18.0643462 C40.646835,18.1985195 40.8460832,18.3141861 41.0350896,18.3771087 C41.407516,18.5057299 41.5853496,18.5853086 41.7417687,18.7370631 C41.8190472,18.8138658 41.8907392,18.909175 41.9801216,19.0405723 L42.0740558,19.1869805 L42.3078568,19.5689373 C42.5490029,19.9705317 42.6188329,20.4008114 42.6076601,20.7496619 C42.5974184,20.9245498 42.5722796,21.078155 42.5341059,21.2021496 C42.4968632,21.3252189 42.4531031,21.4149762 42.4112052,21.4658695 C42.4314558,21.5276354 42.4574675,21.5878399 42.497096,21.6386754 L42.5415544,21.6860987 C42.6169707,21.7545733 42.6886628,21.8850452 42.7426647,22.0303224 C42.7957354,22.176525 42.8404266,22.3366076 42.859979,22.4615275 L42.9348091,21.6809579 C42.949051,21.5487381 42.9645687,21.4168268 42.9819486,21.2872802 C42.993587,21.083707 43.0133721,20.8748132 43.0353685,20.6682326 L43.1180007,19.9198697 L43.1588512,19.52082 L43.1818951,19.1848374 C43.1835826,19.152017 43.184921,19.1208449 43.1858521,19.0914656 C43.1914385,18.7574205 43.1635065,18.3761834 43.1076425,18.0069756 C42.9651894,17.8431917 42.7594238,17.7488077 42.7594238,17.7488077 L42.4888974,17.4043441 C42.462,17.3710663 42.4351025,17.3382684 42.409343,17.307424 C42.3721004,17.3287067 42.3283403,17.3444373 42.2789938,17.3536907 C42.0676418,17.396256 41.6728698,17.3796 41.2976502,17.32408 C40.9709624,17.2746904 40.6542545,17.1976709 40.4847495,17.0917817 L40.421517,17.0446295 C40.1328866,16.7864617 39.5956615,16.6976297 39.3107553,16.4736992 C39.2409253,16.4181792 39.1878545,16.3413766 39.151543,16.2525447 C39.1329217,16.2072034 39.1198867,16.1600114 39.1068518,16.1109688 C39.0938169,16.0610008 39.0826441,16.0082568 39.0733334,15.9536622 L39.0351597,15.6223931 L39.0274784,15.5396914 L39.0184005,15.4576838 C39.0118831,15.4049399 39.0035035,15.3521959 38.9951239,15.3031532 C38.9625366,15.1042067 38.8303252,14.7914442 38.7055623,14.5323511 L38.5688702,14.271841 C38.5554279,14.2470594 38.5426258,14.2239839 38.5305219,14.2029326 L38.4523124,14.0696847 L38.5694198,14.1008033 C38.605421,14.1112218 38.6481466,14.1242793 38.6953206,14.14001 C38.8368427,14.1862766 39.0081588,14.2584526 39.1561983,14.3445085 C39.4466909,14.5212471 39.7278728,14.6498683 40.0807469,14.8358602 C40.2057757,14.9019554 40.421061,14.9553037 40.6556869,15.0016377 L40.941983,15.0542387 C41.2734425,15.1116094 41.5853496,15.1569507 41.6784562,15.1847107 C41.7715628,15.2124706 41.9475343,15.3892092 42.1169883,15.5918571 C42.1989221,15.6927183 42.2771316,15.8009823 42.3441684,15.8981422 C42.4102741,15.9943768 42.4596206,16.0813581 42.4866215,16.1378034 C42.5061739,16.1803687 42.5322437,16.2469927 42.5583136,16.3265713 C42.5825213,16.4061499 42.6039358,16.4986832 42.6197639,16.5967685 C42.6365231,16.6948537 42.6411785,16.795715 42.6327989,16.8919496 C42.6253503,16.9891095 42.6048669,17.0788668 42.5611068,17.1556694 C42.6886628,17.276888 42.888842,17.4138373 43.0257087,17.5035946 L42.9407646,17.0375425 C42.9156746,16.8960556 42.8954219,16.7706905 42.8848436,16.6682214 L42.8776692,16.5736351 C42.873945,16.4949818 42.8618411,16.3876432 42.8441509,16.2627233 C42.8245985,16.1378034 42.7994597,15.9934515 42.7659413,15.8370703 C42.7149654,15.6031924 42.6524676,15.3438101 42.5796263,15.0842976 L42.5033807,14.8256815 C42.3149063,14.187268 42.0798692,13.6039071 42.0196719,13.4208457 L42.0089846,13.3858638 C41.9773284,13.2498398 41.9140159,13.0629226 41.8330131,12.8426934 C41.6859047,12.7353548 41.5155196,12.6594775 41.3814461,12.6104349 L41.2597179,12.570954 L41.1430932,12.5401096 L40.9704678,12.5438688 C40.7764278,12.5549728 40.5171841,12.5905403 40.1840952,12.6724322 C39.8805677,12.7464588 39.5500392,12.7409068 39.2632709,12.6964909 C39.123611,12.6752082 38.9867443,12.6428216 38.8712921,12.6058082 C38.7539778,12.5678696 38.658078,12.521603 38.5826616,12.4753363 L38.3943794,12.3624457 C38.3649991,12.3454813 38.3365498,12.3294422 38.3089282,12.3143284 L38.0789549,12.1958858 C37.9402261,12.1292619 37.8238428,12.0829952 37.7214255,12.0385793 L37.5594201,11.9617766 C37.5091425,11.9358673 37.4579339,11.9081073 37.4104495,11.8757207 L37.1852915,11.7221444 C36.9769291,11.5819709 36.7179219,11.4188449 36.4171348,11.2892441 L36.2317199,11.2159584 C36.106026,11.1706171 35.9952291,11.1187985 35.8956051,11.0716065 C35.8310511,11.0382945 35.773532,11.0049826 35.7224957,10.9741381 L35.6507347,10.9300306 C35.5836979,10.8874653 35.5315582,10.8495267 35.4971088,10.822692 L35.4449691,10.7801267 L35.90317,10.6827499 L36.2829285,10.6098655 L36.5566619,10.5635988 C36.7391509,10.5330629 36.9225709,10.5043775 37.07899,10.4803189 L37.4869012,10.4237033 C37.7034746,10.3962987 37.9335224,10.3724251 38.1525091,10.3618763 C38.5230734,10.341519 38.8619814,10.355399 39.0751956,10.4238736 C39.265133,10.4849455 39.3954823,10.5413908 39.5314179,10.6191188 C39.6364422,10.683522 39.748617,10.7591772 39.8917777,10.8688254 L40.1310244,11.0568012 C40.2194757,11.1262012 40.3256172,11.2113318 40.4382762,11.3214464 C40.4950713,11.3778917 40.5490731,11.4417396 40.6049371,11.5129902 C40.6403176,11.5611076 40.6756981,11.6129262 40.7085957,11.6692687 L40.7557697,11.7572781 C40.7920813,11.8313047 40.8311861,11.898854 40.8712219,11.9636273 C40.9112578,12.0265499 40.9512936,12.0876219 40.9922605,12.1422165 L41.0535945,12.2198288 L41.1142302,12.2911951 C41.1533349,12.3356111 41.1905776,12.377251 41.2268892,12.4114884 L41.2343377,12.416115 C41.3469967,12.474411 41.5881428,12.5771229 41.7548036,12.6511495 C41.5099332,12.0487579 41.1067816,11.2788811 40.6878019,10.6357748 L40.6775602,10.6413268 C40.4708635,10.2813723 40.1691981,9.79187131 39.8554289,9.35789024 L39.6664225,9.25610364 L39.5700572,9.20868033 L39.476485,9.16542103 C39.3850078,9.12378105 39.2998152,9.09046907 39.2299416,9.07134071 L39.165509,9.05715709 C39.0379529,9.03587444 38.8210145,8.97295181 38.6040761,8.91373051 C38.4336911,9.10619973 37.7996351,9.4300662 37.2521683,9.59477543 C37.1050598,9.63826607 36.9747106,9.65677272 36.8508788,9.65862339 C36.726116,9.65954872 36.6078706,9.6447434 36.4803145,9.62438608 L36.2192022,9.57907904 C36.1730627,9.57123085 36.125268,9.56362256 36.0753008,9.55683679 C35.9253992,9.53555413 35.7606005,9.51704748 35.5669387,9.51889814 C35.1824085,9.51889814 34.7894986,9.51704748 34.442211,9.4809595 C34.0930612,9.44487152 33.7830162,9.38287423 33.5521119,9.24592498 L33.3956928,9.14876504 C33.3463463,9.11822906 33.3072415,9.09139441 33.2709299,9.06455976 L33.1521673,8.96921621 C33.1360288,8.95526767 33.121649,8.94210739 33.1089244,8.92946117 C33.0707507,8.89244786 33.0484051,8.86191188 33.0344391,8.84247989 L33.0167489,8.81101858 L33.0847167,8.79806392 C33.1256836,8.78973592 33.1852718,8.7749306 33.2588261,8.75179728 C33.3091036,8.73637507 33.3635193,8.71766278 33.422073,8.69401539 L33.5130071,8.65463734 C33.5763196,8.62749425 33.6421149,8.59541604 33.7095655,8.5567577 L33.8118793,8.49362944 C33.9152276,8.42515482 34.0250934,8.36500819 34.1452009,8.30578689 C34.2662395,8.24749092 34.3947266,8.19382162 34.5297312,8.13830166 L34.9632588,7.9667681 C35.0390825,7.93663695 35.116681,7.90526239 35.1960399,7.87193595 L35.4393827,7.76539255 C35.7717733,7.61918998 36.0138504,7.51832871 36.2456859,7.45818208 C36.3620691,7.4276461 36.472866,7.40913944 36.5929735,7.40081145 C36.71215,7.39340878 36.839706,7.39618478 36.9812281,7.41284077 C37.2335469,7.43967542 37.6264568,7.66730728 37.9635027,7.94860844 C38.1320257,8.08925902 38.2837894,8.24378959 38.4029659,8.38444017 C38.5202802,8.52879208 38.6050072,8.65741334 38.630146,8.75549861 L39.1913029,8.89748578 C39.2297525,8.90694474 39.2673055,8.91588962 39.3033067,8.92390918 C39.4019997,8.94611716 39.5062791,8.98313047 39.6040411,9.02291978 L39.5186158,8.91442451 L39.434587,8.81286924 C39.3796542,8.74717062 39.3275145,8.68332266 39.278168,8.62780269 L39.1358312,8.47570112 C39.092653,8.43070681 39.053781,8.39184284 39.0193316,8.36038152 C38.8596538,8.21788028 38.634394,7.94148049 38.3591458,7.63222596 L38.2381672,7.49797139 C37.910432,7.13524094 37.5184532,6.74845185 37.1413714,6.47362802 L36.9811591,6.36121722 C36.9517443,6.34120262 36.9210191,6.32063967 36.8890525,6.29966546 L36.5724901,6.09794291 L36.3804836,6.10702488 C36.2215816,6.11243979 36.0250232,6.11305668 35.9356409,6.08776425 L35.6693113,5.97619133 C35.4863457,5.90232757 35.2464658,5.82293402 35.0297136,5.83514841 C34.837914,6.2219375 34.5055235,6.51434266 34.1628912,6.73272119 C33.8211899,6.94739839 33.4673848,7.0889743 33.1964446,7.13986761 L33.1221663,7.15203402 L32.7353256,7.19974006 L31.4339366,7.34020215 L31.1927905,7.36102214 L31.0049221,7.36917877 C30.9759556,7.36976139 30.9482305,7.36965858 30.9218503,7.3684248 L30.8657536,7.36518613 L30.7668278,7.35165314 L30.7253954,7.34066482 C30.6409344,7.31224388 30.4643169,7.29043247 30.2773165,7.27118393 L29.9592444,7.24130721 L29.7678112,7.21749274 C29.7523279,7.21502519 29.7378447,7.21235201 29.7244994,7.20926756 C29.6407035,7.18983558 29.5932191,7.16577692 29.6081161,7.12876361 C29.6844636,6.92056374 29.9954396,6.6651719 30.3809009,6.41163072 L30.5259145,6.31632145 L30.8249031,6.1263969 L30.9711968,6.03039362 C31.1639275,5.90639903 31.3426922,5.77777778 31.4711793,5.64452986 C31.5978043,5.51220727 31.6992905,5.41597267 31.7923971,5.34379671 C31.8864347,5.27069542 31.9730239,5.22442878 32.0763722,5.18741547 C32.1797205,5.15225283 32.3026212,5.12449285 32.4655578,5.10228486 L32.7476708,5.06989821 L33.117304,5.0384369 C33.6126311,5.00142359 34.0725778,5.12634351 34.4096237,5.28920208 C34.4952817,5.32806605 34.5706981,5.37248203 34.639597,5.41504733 L34.7670496,5.50127464 C34.7862916,5.51539453 34.8043957,5.52948015 34.8211549,5.54366859 C34.9245032,5.6287992 34.992471,5.70467649 35.0222651,5.76019646 C35.1135096,5.77592711 35.2094094,5.78240444 35.2978607,5.75834579 C35.3500004,5.7444658 35.415175,5.73983913 35.4905913,5.74076447 C35.5650766,5.74076447 35.6470104,5.75094313 35.7308064,5.76297245 C35.9011915,5.78888177 36.0753008,5.83699907 36.2093743,5.87863905 C35.8592935,5.66858851 35.47197,5.44928465 35.1116475,5.23368211 L34.3250691,4.80754924 L33.7590499,4.50565086 L32.7044724,3.96482662 C32.5605679,3.88963422 32.4017487,3.80651055 32.2346534,3.71891238 C32.0692961,3.72557477 31.8693776,3.74941135 31.6515826,3.80558275 L31.4851453,3.85401096 C31.0867654,3.98355755 30.7596702,3.97495485 30.5163347,3.964581 L29.9616012,3.94407186 C29.5823373,3.92659175 29.393971,3.89727027 29.0532008,3.77998434 C28.5997716,3.6236031 27.8698159,2.93978219 27.3661091,2.47989181 C26.8642645,2.02000142 25.9024733,1.90526016 25.9024733,1.90526016 L26.0144847,1.82026005 C26.3523138,1.56978943 27.3722623,0.857662777 27.9321973,0.949391416 C28.5405558,1.04849455 28.8691197,1.20231262 29.2307914,1.24220372 L29.353004,1.2510499 C29.7691906,1.26400456 29.690981,1.54252972 30.5736316,1.66374831 C30.9954045,1.72204427 31.6611167,2.12363869 31.9367123,2.71029967 C32.0819586,3.02028614 32.2197564,3.24329134 32.3361396,3.40244857 L33.9088151,4.1352873 C34.5812854,4.453724 35.1384524,4.72640495 35.3788634,4.86354901 C35.8146023,5.10783686 36.2093743,5.3576767 36.5492134,5.59086056 L36.8708105,5.81705301 L37.2167878,6.07295893 L37.3927592,6.20990818 L37.3462059,5.92212969 L37.3268949,5.82849972 L37.2866177,5.66673785 L37.1730277,5.51960994 C37.1292676,5.46964197 37.07899,5.41504733 37.022195,5.3604527 C36.909536,5.24571144 36.7670829,5.13374617 36.600422,5.02178091 C36.1786491,4.74880774 35.9477448,4.47120792 35.7717733,4.28336536 L35.2739288,3.77977871 C35.2488245,3.75386939 35.2249272,3.72878259 35.2019609,3.70410705 C35.1349241,3.6291551 35.0734738,3.56160581 35.0148166,3.48387786 C34.9552284,3.40800057 34.8993644,3.32101929 34.8313966,3.22293402 C34.7624977,3.12207275 34.7029095,2.98975016 34.6479766,2.83799559 C34.6107339,2.73805965 34.5743189,2.62907601 34.5392832,2.51433475 L34.410322,2.06869706 L34.3342073,1.79699623 C34.2839298,1.61563101 34.2317901,1.44351911 34.1843057,1.28806321 C34.1582358,1.20940992 34.1219243,1.1298313 34.076302,1.05025269 C34.0297487,0.972524735 33.9738848,0.894796783 33.9133655,0.818919496 C33.850053,0.743042209 33.7830162,0.668090256 33.7122552,0.597764965 C33.6424253,0.530215674 33.56794,0.463591715 33.4962479,0.40159442 C33.3901064,0.309986476 33.2839648,0.231391024 33.193535,0.168540688 L32.9376083,0 L33.2149605,0.0111314061 L33.3128279,0.0166559898 C33.3904167,0.0209742093 33.4762817,0.0273487239 33.5687676,0.0360537062 L33.8274746,0.0629226279 L34.068388,0.0944996085 L34.4487284,0.158231903 L34.7038405,0.215602534 C34.7894986,0.235034522 34.8751567,0.257242508 34.9570905,0.280375827 L35.2000987,0.355327781 C35.2764461,0.382162431 35.3527936,0.408997082 35.4235546,0.43860773 C35.4952467,0.468218379 35.5613524,0.499679693 35.6246648,0.530215674 C35.7494277,0.5959143 35.8565003,0.661612926 35.9356409,0.733788882 C36.2494102,1.02156737 36.4421408,1.25937789 36.6097327,1.46480177 C36.6925976,1.56658837 36.7680139,1.66282298 36.8462235,1.75258025 C36.8989839,1.81241844 36.9517443,1.87143411 37.0083669,1.92962726 L37.0966802,2.01630009 C37.1897868,2.10050537 37.2409955,2.16990533 37.2717207,2.23930529 L37.2997906,2.3083968 L37.3480681,2.45583316 C37.3732069,2.53726244 37.4113806,2.62979571 37.4765552,2.75379031 C37.544523,2.8777849 37.6460092,3.02861414 37.7949798,3.22848601 C37.9402261,3.4172539 38.0472987,3.70318172 38.0733685,3.99743754 C38.0985073,4.29539469 38.0426433,4.59890384 37.8750514,4.84411702 C37.6311121,5.20129547 37.516591,5.46871663 37.4625892,5.64638053 L37.4670031,5.81270052 C37.4681756,5.83278367 37.4697274,5.85427195 37.4718999,5.87678838 C37.4774862,5.94433768 37.488659,6.02206563 37.5054182,6.10349491 C37.5231085,6.18399886 37.5454541,6.26912948 37.5761792,6.35426009 L37.840602,6.56245996 C37.9150873,6.61983059 37.9942279,6.68090256 38.0789549,6.74567585 L38.3424466,6.96590505 L38.6329392,7.22407289 L38.955088,7.5294327 C39.4001376,7.97359243 39.9373627,8.55932807 40.5295207,9.38472489 L40.6035232,8.93987973 C40.6167306,8.86674417 40.6306965,8.79559637 40.645904,8.72866396 L40.0770226,8.25952025 C39.8600842,8.07537903 39.658974,7.89678981 39.6133517,7.8005552 C39.5854197,7.74225924 39.5798333,7.64602463 39.5854197,7.52295537 L39.5925234,7.39330597 L39.6208003,7.09267564 C39.6515254,6.76880917 39.6869059,6.38757207 39.659905,6.05630294 C39.6442631,5.85754146 39.5987899,5.6691067 39.5456074,5.48720108 L39.4355181,5.13097018 C39.3433426,4.83856502 39.2744437,4.55448786 39.320997,4.24727739 C39.3433426,4.09459748 39.3805852,3.91138159 39.4159657,3.72446437 L39.5902659,2.88954588 C39.633379,2.69697487 39.6657707,2.57649655 39.6794574,2.6011104 L39.6895055,2.61568624 L40.082609,3.08876077 L40.312203,3.37808148 C40.3523078,3.42938604 40.3929644,3.48202719 40.4336209,3.53569649 C40.5537284,3.69855506 40.6794223,3.86881629 40.7930124,4.04092818 C41.0248478,4.3805253 41.32372,4.70161577 41.5853496,4.99217026 L41.7708936,5.20697759 C41.9453812,5.41556783 42.081375,5.60450922 42.1309543,5.76482312 C42.1598173,5.87308705 42.1775076,5.96376966 42.1868182,6.05630294 C42.1936461,6.11799179 42.1967496,6.18091442 42.19806,6.24973176 L42.2000859,6.54522564 L42.2054396,6.77343583 C42.2073017,6.94184639 42.2203366,7.1454196 42.2333715,7.40081145 C42.2454754,7.64602463 42.2231298,7.82368852 42.1644727,7.96063777 C42.1076776,8.09758702 42.0201574,8.19382162 41.9047052,8.27247491 C41.6700766,8.42978148 41.3209268,8.52046409 40.8591181,8.73143996 C40.8311861,9.00811446 40.7837017,9.38194889 40.7427348,9.68915937 L40.8537644,9.8538686 L41.0807118,10.2073457 L41.1379724,10.3003417 L41.1952329,10.3961136 C41.4512761,10.8273187 41.7231474,11.3214464 41.9726731,11.8368567 C42.2231298,12.3531924 42.4475167,12.8908107 42.634661,13.4015944 L42.7449923,13.1862232 C42.7941061,13.0851306 42.8497373,12.9606734 42.8944284,12.8306641 C42.9353953,12.6992669 42.9707758,12.5623176 42.9800865,12.438323 C42.987535,12.3161791 42.9689137,12.2060645 42.9158429,12.1292619 C42.5964873,11.6952808 42.5257263,11.2178091 42.5424855,10.7912307 C42.5490029,10.5793295 42.5825213,10.3813083 42.6151086,10.2147484 C42.6495581,10.0491138 42.691456,9.9130899 42.719388,9.82980995 C42.7482511,9.74838067 42.7994597,9.67620471 42.859979,9.60773009 C43.0271571,9.42019598 43.2870279,9.25386456 43.4133362,8.94106401 L43.4539991,8.81657057 C43.5247601,8.55100007 43.7137665,8.21880561 43.903704,7.93102712 C44.0715287,7.68164994 44.2350762,7.46911257 44.3257351,7.380821 L44.3599264,7.35084348 C44.4372048,7.29439818 44.5256561,7.18891024 44.5964171,7.09637697 L44.7165246,6.92519041 L44.8180108,7.45910741 C44.8785301,7.77279522 44.9595329,8.18271763 45.0535706,8.57135739 L45.0898821,8.71663464 C45.1252626,8.85049944 45.1627122,8.97408277 45.2019549,9.08957801 L45.3725469,9.5662272 C45.3903061,9.61533838 45.4073756,9.6635585 45.4232038,9.71136736 C45.4697571,9.85571927 45.5051376,9.99544452 45.5209657,10.1388711 C45.538656,10.283223 45.5302764,10.4322016 45.4939648,10.5959855 L45.3997832,11.0162862 C45.3806788,11.0952686 45.3613544,11.1607028 45.3338214,11.2261371 C45.2667847,11.378817 45.1513325,11.5342729 44.8682884,11.843334 C44.6641189,12.064753 44.3886944,12.2403773 44.1153057,12.3938126 L43.7929071,12.5687949 C43.4288603,12.7621895 43.1234707,12.9315254 43.0676067,13.1239946 L42.8832556,13.7745035 C42.8646343,13.8420528 42.8441509,13.9077514 42.8273917,13.9641967 L42.9046702,14.2029326 L42.973569,14.4333405 C43.0182602,14.582319 43.0555028,14.7248203 43.0908834,14.8571429 C43.2175083,15.3383159 43.3078217,15.769521 43.3748585,16.1544594 C43.4262533,16.4609296 43.4669223,16.7383814 43.4949586,16.9906049 L43.5359329,17.3916293 L43.5498989,17.5952025 C43.5582785,17.7256744 43.5666581,17.8478184 43.5703824,17.9625596 C43.5731756,18.0763755 43.5768998,18.1837141 43.5768998,18.2827247 L43.5731756,18.5658766 L43.5731756,18.7990604 L43.7844754,18.5896243 L44.1122628,18.24931 C44.1550918,18.2041743 44.1966794,18.1596555 44.2351635,18.1170902 C43.7072491,17.4184639 43.4353778,16.8355043 43.7863897,16.3376753 C44.156954,15.8093103 44.3375808,15.2892733 44.6029346,14.685031 C44.7107831,14.4297933 44.8897547,14.2336742 45.0784248,14.0495501 L45.1922994,13.9401381 C45.4222727,13.7217596 45.6550392,13.5070824 45.7770089,13.2100505 C45.8086651,13.1369492 45.8431145,13.0656986 45.8784951,13 C45.9138756,12.933376 45.9492561,12.8695281 45.9864987,12.8103068 C46.0591219,12.6918642 46.1336072,12.5900776 46.2006439,12.507723 C46.2459558,12.452203 46.2871296,12.4049082 46.322786,12.3666611 L46.420841,12.2666738 C46.4324793,12.2558011 46.4389968,12.2504805 46.4389968,12.2504805 L46.493309,12.4193751 L46.5944848,12.7603388 L46.6829361,13.1073386 C46.807699,13.608869 46.9287375,14.2612286 46.9669112,14.8423375 C47.0097403,15.4243718 46.906392,16.1044914 46.7071438,16.6800484 C46.6577973,16.8244003 46.6028644,16.9613496 46.5451383,17.0918215 C46.484619,17.2185921 46.4203755,17.3388853 46.3542698,17.4452986 C46.2248516,17.6609011 46.0777432,17.8283864 45.9371522,17.9292476 C45.7015925,18.0976582 45.3850301,18.1772368 45.0963996,18.2142501 C44.8068381,18.2503381 44.5452085,18.2457114 44.4139282,18.2392341 C44.2444742,18.3965407 44.0666406,18.5760552 43.9092904,18.7407645 C43.7528713,18.9073244 43.6299706,19.0600043 43.5768998,19.1719695 C43.5785757,19.6350061 43.5689392,20.3101566 43.4997992,21.0706025 L43.4744826,21.3270695 C43.3897556,22.2329703 43.2351986,23.0315325 43.1271949,23.5376895 L43.3301971,23.3945813 C43.4001686,23.3438582 43.4685312,23.2926022 43.523546,23.248275 L43.6020386,23.1832871 C43.6986035,23.0246586 43.8074812,22.7885288 43.8688664,22.4958754 L43.8953244,22.3449356 C43.9366405,22.0621308 44.0186907,21.8367978 44.1003317,21.6533487 L44.3397921,21.1463983 L44.5198283,20.7602175 C44.5347599,20.729613 44.5495535,20.7003108 44.5647609,20.6719339 C44.608521,20.5877287 44.6541432,20.5118514 44.707214,20.4331981 L44.8228731,20.2726015 C44.8442876,20.2441218 44.867047,20.2145111 44.8915651,20.1833582 C45.0423978,19.9982917 45.3300972,19.7845398 45.6559703,19.5689373 L45.9037502,19.4070041 L46.4779292,19.0434511 C46.5293102,19.010756 46.5789671,18.9788834 46.6261411,18.948039 C46.7685942,18.8555057 46.8980124,18.7259591 47.0125335,18.5797566 C47.1251925,18.43633 47.2182991,18.2790234 47.2965086,18.1309702 C47.3356134,18.0578689 47.368899,17.9875436 47.3969474,17.9231173 L47.5255509,17.5887252 L47.6382099,17.869101 C47.6605554,17.9264716 47.6849701,17.9920674 47.7092467,18.0631467 L47.7452825,18.1735355 C47.7825251,18.2873514 47.8216299,18.4131967 47.8570104,18.5445939 C47.9966703,19.0701829 48.0683624,19.6910812 47.9100811,20.026977 C47.8272163,20.1953876 47.7480757,20.3369635 47.6745214,20.4618834 C47.6000362,20.5877287 47.5264819,20.6978433 47.4585141,20.7977792 C47.3263027,21.0013524 47.2099195,21.1716136 47.1251925,21.3770375 C47.0674664,21.5146036 47.0022918,21.5847233 46.9258064,21.6479887 L46.8021126,21.74532 C46.667108,21.8526586 46.4948608,22.0118158 46.2490593,22.4124849 C46.130814,22.6031034 45.9082892,22.813154 45.6289694,22.9686099 C45.3524427,23.1259164 45.0237764,23.2295537 44.6997655,23.2230764 C44.28998,23.2149797 43.9956759,23.2486821 43.7931508,23.2888491 L43.7072491,23.3084383 L43.6476608,23.338743 C43.607625,23.3600256 43.5545542,23.3905616 43.4921728,23.4285002 C43.3646168,23.5071535 43.212853,23.6163428 43.0806416,23.7505161 L43.0344533,23.9660446 L43.0163981,24.0586519 C42.9521545,24.403801 42.8553237,24.8331554 42.6746968,25.4040857 L42.5546266,25.7642252 C42.3792882,26.2681984 42.1384028,26.8687024 41.7771492,27.582319 C42.0015361,27.4888604 42.2454754,27.3833725 42.4586895,27.3065699 L42.5136224,27.0141647 L42.5909009,26.6310769 L42.634661,26.4413837 C42.6467649,26.3793864 42.663524,26.3210905 42.67749,26.2692718 C42.7072842,26.1647092 42.7408025,26.0823546 42.7743209,26.0397893 C42.8143567,25.9870453 42.901877,25.9306 43.0201223,25.8686027 L43.1148583,25.8215264 L43.4493438,25.6659549 C43.7752169,25.518827 44.1560229,25.3439391 44.4586194,25.1533205 C44.6094521,25.0589366 44.7444566,24.9525233 44.8692195,24.8451847 C44.9930513,24.7359954 45.1103656,24.6258808 45.2276799,24.5185422 C45.4585843,24.3075664 45.7006614,24.1160225 46.019086,24.0040572 L46.2814139,23.9164976 C46.3754516,23.88654 46.4748429,23.856004 46.5758635,23.825468 L47.3618315,23.5951707 C47.6332083,23.5194429 47.8209527,23.4736733 47.8011464,23.4979002 C47.7769387,23.5275109 47.6763836,23.7310841 47.5329994,24.0105346 L47.2825426,24.4732009 C47.1875739,24.6379102 47.0926052,24.8100221 46.9873947,24.9756566 C46.8849774,25.1412912 46.8002504,25.3189551 46.7201788,25.496619 L46.6084508,25.7631148 L46.5032404,26.022208 C46.4371347,26.1906185 46.3691669,26.3479251 46.2984058,26.4820984 C46.229507,26.6190476 46.1531595,26.7310129 46.0693636,26.8105915 C45.9874298,26.8892448 45.9101513,26.9475408 45.8272864,27.003986 L45.7420766,27.057861 L45.1625053,27.3935511 L44.7215524,27.6648735 L44.5861754,27.7498043 C44.4753785,27.8201295 44.3748234,27.8756495 44.2817168,27.9172895 C44.1876791,27.9580041 44.1029521,27.9866894 44.0228805,28.0024201 C43.861806,28.0366574 43.7249393,28.0246281 43.5862105,27.9820628 C43.3087528,27.8960068 43.029433,27.6896576 42.5741417,27.4648018 L42.2715108,27.6077143 L41.770011,27.8351062 C41.7150781,27.859816 41.6610763,27.8839775 41.6086262,27.9071108 L41.515636,28.0798011 L41.308823,28.4438038 L41.1952329,28.6316464 C40.9313609,29.0597238 40.6168299,29.5341293 40.2678911,30.0029895 C39.9187414,30.4712079 39.5314179,30.9338743 39.1431634,31.347498 L39.3230464,31.3264991 C39.4583874,31.3082726 39.6431458,31.2779824 39.829359,31.2299808 C39.9764675,31.1911168 40.125438,31.1392982 40.2483388,31.0791515 C40.3712395,31.0171542 40.4643461,30.9431276 40.5071751,30.8598477 C40.745528,30.3842266 41.1579903,30.0677628 41.5685904,29.8438323 C41.721518,29.7584704 41.8749693,29.6882029 42.016375,29.6302973 L42.1532999,29.5764111 C42.3283403,29.5088618 42.479173,29.4644459 42.5732106,29.4403872 C42.6663172,29.4154032 42.762217,29.4117019 42.859979,29.4191046 C43.1306088,29.4380225 43.4299293,29.5366332 43.7958677,29.4569302 L43.9362913,29.4181792 C44.2230597,29.32287 44.6411083,29.2793793 45.0153968,29.2608727 L45.2561432,29.2533989 C45.4855379,29.2494843 45.6750233,29.256034 45.7719078,29.2711287 L45.8123894,29.2793793 C45.8843142,29.2981173 45.9860914,29.3074863 46.0859046,29.3109997 L46.3434462,29.310725 C46.3845294,29.3094526 46.4101338,29.3080646 46.4101338,29.3080646 L46.2206909,29.460918 L45.6221093,29.9599801 C45.4993873,30.0640615 45.3710343,30.1746573 45.2434857,30.2873258 L44.9362562,30.5637412 C44.829494,30.664294 44.7339045,30.7615568 44.6464533,30.8549811 L44.2907861,31.2476992 C44.2540952,31.2882767 44.2177836,31.3277576 44.1811617,31.3660047 C44.0694338,31.480746 43.9577058,31.5871592 43.8310809,31.6806178 C43.6998005,31.7722258 43.5545542,31.8518044 43.3795138,31.9165777 L42.8947503,32.0954272 C42.8221108,32.1204979 42.7572126,32.1395829 42.6877318,32.1534629 C42.5033807,32.1895509 42.296684,32.1923269 41.8432549,32.1534629 C41.520042,32.124381 41.2034795,32.0178733 40.9091758,31.8993606 L40.5676944,31.7555698 C40.181302,31.5917859 39.85636,31.4566873 39.6431458,31.5205353 L38.7102177,31.7953591 L38.3361619,32.1516122 C38.2155888,32.2638088 38.0994384,32.3686027 37.9886415,32.4634494 C37.5882831,32.8104491 37.2121324,33.0982276 36.867638,33.3415901 C36.5240746,33.5849527 36.2075122,33.7820485 35.9253992,33.9486084 C35.4987382,34.1963663 35.1422563,34.3722952 34.8374922,34.5076251 L34.3127928,34.7323653 L34.6178845,34.8081686 L34.724324,34.8332266 C34.9086751,34.8757919 35.1172339,34.9174318 35.3034471,34.9535198 C35.7538503,34.2603878 36.1682474,33.7909079 36.7683519,33.7524668 L36.8909146,33.7505872 C37.0659551,33.7552139 37.2372712,33.7505872 37.4057942,33.7404086 C37.573386,33.7274539 37.7391158,33.7098726 37.9048456,33.6876646 L38.4094833,33.6090113 C38.5789374,33.57755 38.7549088,33.547014 38.9383289,33.5174034 C39.123611,33.4850167 39.2986514,33.4822407 39.4718297,33.4951954 C39.5860405,33.5038318 39.6990098,33.5182259 39.8107377,33.5348133 L39.9773985,33.560894 C40.3153755,33.616414 40.6440418,33.6710086 41.0034333,33.6016087 C41.3572384,33.5285074 41.6821804,33.5183287 41.914947,33.524806 L42.0727481,33.5327437 C42.2121898,33.5430235 42.2938908,33.558118 42.2938908,33.558118 L42.0330544,33.8136812 L41.8749111,33.9624884 C41.8159436,34.0161577 41.7532518,34.0739396 41.6857323,34.1339149 L41.5806943,34.2252829 C41.1486796,34.603744 40.5555906,35.0608584 39.9792607,35.4078582 C39.4047929,35.7594847 38.6450431,36.0463378 37.9439503,36.1897644 C37.2409955,36.335967 36.6041463,36.3378176 36.261514,36.211047 C35.9756767,36.1046338 35.7522209,35.8918072 35.5855601,35.6789807 C35.4188993,35.4670795 35.3090335,35.257029 35.2559627,35.1496904 L34.7611183,35.0291229 C34.6777707,35.0095539 34.5955265,34.9908416 34.5166963,34.9738771 L34.2467169,34.9218957 C34.1217381,34.90122 34.0139206,34.8896719 33.9329179,34.8924479 L33.581243,35.0325951 C33.3902553,35.1064588 33.1770785,35.184853 32.9441257,35.262581 C32.5568023,35.3921276 32.115477,35.5216741 31.6415644,35.6317887 C31.2445578,35.7272831 30.8594689,35.8008655 30.5029823,35.8558525 L30.241241,35.8936579 C29.817606,35.9547299 29.4442485,35.9815645 29.1528249,36.0037725 L29.3632756,36.1389747 C29.4375672,36.1850489 29.5121865,36.2295241 29.5756927,36.2645831 L29.6611869,36.3091323 C29.6639801,36.310983 29.6677044,36.3128337 29.6695665,36.3146843 C29.8748666,36.3527386 30.176401,36.3801661 30.5255181,36.338696 L30.677911,36.316535 C30.8082603,36.2961777 30.9292988,36.2813723 31.0428889,36.2730443 L31.2067565,36.2647163 C31.2588962,36.2628657 31.3110359,36.2619404 31.3594513,36.261015 L31.5019045,36.263444 L32.0056403,36.2833098 L32.6225631,36.2917224 C32.6611851,36.2923735 32.6983243,36.2934017 32.7346359,36.2952523 C32.9534364,36.305431 33.1294079,36.324863 33.3919685,36.3729803 C33.5204556,36.3951883 33.6712883,36.4442309 33.8379491,36.5090042 C33.9484356,36.5521864 34.0643016,36.6003037 34.1838919,36.6533561 L34.9254343,36.9966546 L35.1991677,37.1252758 L35.4524176,37.2390918 C35.7810839,37.3852943 36.2540655,37.4102783 36.6451132,37.3862197 C36.7917561,37.3771977 36.9279245,37.3629707 37.0390851,37.3474424 L37.3443438,37.2964624 L37.0883006,37.5287209 L36.8621633,37.7124994 C36.7352404,37.8129461 36.5888768,37.9236529 36.4291059,38.0330273 C36.1637521,38.2153178 35.8574314,38.3957577 35.5613524,38.5290056 C35.415175,38.5974802 35.2671355,38.6511495 35.1284066,38.6918642 C34.992471,38.7325788 34.8621218,38.7557122 34.7494628,38.7594135 L34.5308347,38.7649655 C34.4962128,38.7652739 34.4623841,38.7652739 34.4291761,38.7649655 L34.147063,38.7557122 L33.8975374,38.7399815 L33.2644125,38.6835362 C33.1340632,38.6733575 33.004645,38.6687309 32.8677783,38.6733575 C32.6709244,38.6773232 32.5643268,38.6458808 32.4556934,38.601624 L32.3184494,38.5438109 C32.2327913,38.5067976 32.1285119,38.4651577 31.9758171,38.4262937 L31.8959868,38.4069302 L31.6003216,38.3497995 L31.3492096,38.3115524 C31.2188604,38.2976724 31.0717519,38.2541818 30.9274367,38.1977365 C30.8548136,38.1672005 30.7821904,38.1348139 30.7104983,38.0968752 C30.6406684,38.0570859 30.5689763,38.0145206 30.5019395,37.9691793 C30.3687971,37.87387 30.2477585,37.7674568 30.1509276,37.6462382 C30.0522346,37.5259449 29.9777494,37.395473 29.9330582,37.2575984 C29.8247054,36.9062033 29.704947,36.6667445 29.6049702,36.5051276 L29.5597007,36.4364812 L29.4240409,36.3264052 L29.3679011,36.285999 C29.3083129,36.2425084 29.2384829,36.1971671 29.1612044,36.1490498 L28.9963713,36.0576817 C28.9675427,36.043459 28.938059,36.0299903 28.9079545,36.0176525 L28.5532183,36.0361592 L28.443525,36.0435961 L28.0159947,36.0628215 C27.5409683,36.0895538 26.2439317,36.2087538 24.9313715,36.7190547 C26.2106562,37.6008969 26.8968519,39 26.8968519,39 L25.9313364,39 C25.4695276,38.1736778 24.7656417,37.5805395 24.0012365,37.1521105 C23.2340381,37.5805395 22.5310832,38.1736778 22.0683434,39 L21.103759,39 L21.1791512,38.8584032 C21.3893594,38.4810129 22.035398,37.4313118 23.0701705,36.7190547 C21.7576102,36.2087538 20.4597975,36.0895538 19.9846361,36.0628215 L19.5564307,36.0435961 L19.0907942,36.0176525 C19.002343,36.0546658 18.917616,36.1018578 18.8394064,36.1490498 L18.6954015,36.2418572 L18.6327098,36.285999 C18.5731215,36.327639 18.5247061,36.366503 18.4902566,36.3942629 L18.4362548,36.4405296 C18.3291822,36.6006121 18.1904534,36.856004 18.0656905,37.2575984 C18.0228615,37.395473 17.9493073,37.5259449 17.8506143,37.6462382 C17.7528524,37.7674568 17.6318138,37.87387 17.4977403,37.9691793 C17.4316346,38.0145206 17.3618046,38.0570859 17.2901125,38.0968752 C17.2184204,38.1348139 17.1467284,38.1672005 17.0722431,38.1977365 C16.9640067,38.2400705 16.8547228,38.2751174 16.7514617,38.2958507 L16.4003927,38.3497995 L16.1045896,38.4069302 C16.0765197,38.4131334 16.0499326,38.4195079 16.0247938,38.4262937 C15.87303,38.4651577 15.7678196,38.5067976 15.6812304,38.5438109 L15.5452296,38.601624 C15.4368541,38.6458808 15.3290215,38.6773232 15.1328325,38.6733575 C15.0415881,38.6702731 14.9540679,38.6713012 14.8669615,38.6753453 L14.6040215,38.6941261 L14.1021424,38.7399815 L13.8526167,38.7557122 L13.5714348,38.7649655 C13.4718107,38.7658908 13.3656692,38.7640401 13.2520792,38.7594135 C13.137558,38.7557122 13.0081399,38.7325788 12.8712731,38.6918642 C12.7344064,38.6511495 12.5854359,38.5974802 12.4383274,38.5290056 C12.1422484,38.3957577 11.8377898,38.2153178 11.571505,38.0330273 C11.304289,37.8507367 11.0752468,37.6647448 10.9123102,37.5287209 L10.6562671,37.2964624 L10.8583084,37.331625 C10.9830712,37.3529077 11.1599738,37.3741903 11.3545666,37.3862197 C11.7456143,37.4102783 12.2213891,37.3852943 12.5472622,37.2390918 L12.8033053,37.1252758 L13.0751766,36.9966546 L13.6347473,36.7366361 C13.8190984,36.6496548 13.996932,36.5737775 14.1626617,36.5090042 C14.3283915,36.4442309 14.4792242,36.3951883 14.6086424,36.3729803 C14.8702719,36.324863 15.0471745,36.305431 15.266906,36.2952523 L15.9945632,36.2833098 L16.3674261,36.269343 C16.451222,36.2647163 16.5433976,36.261015 16.6411595,36.261015 L16.7938543,36.2647163 C16.8469251,36.266567 16.9009269,36.2684177 16.9595841,36.2730443 C17.0346901,36.2785963 17.1131065,36.2870272 17.1956611,36.2980626 L17.3226998,36.316535 C17.7351621,36.3877856 18.0954847,36.358175 18.3301133,36.3146843 L18.339424,36.3091323 C18.4623247,36.249911 18.692298,36.1074098 18.8468549,36.0037725 L18.3525753,35.9632892 C18.2306832,35.9518768 18.1013943,35.9383052 17.9659846,35.9214779 L17.7584387,35.8936579 C17.3329416,35.8362873 16.8553047,35.7511567 16.3590465,35.6317887 C15.8851339,35.5216741 15.4447397,35.3921276 15.0555541,35.262581 C14.6682306,35.1330344 14.3349089,35.0016371 14.0686241,34.8924479 C13.9336195,34.8878212 13.7231986,34.9229838 13.4839146,34.9738771 C13.2474238,35.0247704 12.9802079,35.0913944 12.7446482,35.1496904 L12.6726112,35.2875307 C12.6119195,35.3972683 12.5258476,35.5377132 12.4141197,35.6789807 C12.249321,35.8918072 12.0240031,36.1046338 11.7390968,36.211047 C11.3964645,36.3378176 10.7577533,36.335967 10.0566605,36.1897644 C9.35556781,36.0463378 8.59488686,35.7594847 8.02041912,35.4078582 C7.52642208,35.1104298 7.02079622,34.7321009 6.6143574,34.3917457 L6.31384405,34.1339149 L6.04224864,33.8848976 L5.70578896,33.558118 L5.80808984,33.543891 C5.87384638,33.5363727 5.96881511,33.5280447 6.0856639,33.524806 C6.31749934,33.5183287 6.64244139,33.5285074 6.99717755,33.6016087 C7.29589457,33.659442 7.5745678,33.6311679 7.8542109,33.5880071 L8.02228125,33.560894 C8.18987313,33.5340594 8.35653395,33.50815 8.52878117,33.4951954 C8.70102839,33.4822407 8.87793093,33.4850167 9.06135094,33.5174034 C9.24570201,33.547014 9.42167349,33.57755 9.59112751,33.6090113 L10.0948342,33.6876646 C10.2624261,33.7098726 10.4272248,33.7274539 10.5948167,33.7404086 C10.7633396,33.7505872 10.9337247,33.7552139 11.1087651,33.7505872 C11.7772706,33.7293046 12.2158027,34.2141789 12.6971638,34.9535198 L13.0853838,34.8753121 L13.2762869,34.8332266 C13.4597069,34.7906613 13.6133328,34.7508719 13.6878181,34.7323653 L13.4937781,34.647654 C13.4774553,34.6409308 13.4629656,34.6352054 13.4503962,34.6305787 L13.1628714,34.5076251 C12.8587619,34.3722952 12.5028038,34.1963663 12.0761428,33.9486084 L11.7200882,33.7330725 C11.5345975,33.6169692 11.3381798,33.4876077 11.1320418,33.3415901 C10.7884784,33.0982276 10.4123278,32.8104491 10.0110383,32.4634494 C9.79037564,32.2737561 9.54736741,32.0442736 9.29039318,31.7953591 L8.83789509,31.6639618 L8.35839609,31.5205353 C8.16721719,31.4637815 7.88923076,31.5642201 7.56040225,31.7022711 L7.43477858,31.7555698 C7.05024831,31.920279 6.60892301,32.1127482 6.15642492,32.1534629 L5.88872236,32.1732947 C5.61316513,32.189448 5.45626326,32.1815313 5.31287909,32.1534629 C5.12759695,32.1164496 4.97397106,32.0424229 4.62016597,31.9165777 C4.44512555,31.8518044 4.29987925,31.7722258 4.17046107,31.6806178 C4.04290503,31.5871592 3.93024604,31.480746 3.81944918,31.3660047 L3.70916958,31.2476992 L3.47867901,30.9921703 C3.35950256,30.857997 3.22449798,30.7145704 3.06435463,30.5637412 L2.94610924,30.4573279 C2.75896497,30.2868816 2.56210037,30.1161022 2.37803978,29.9599801 L1.5904771,29.3080646 L1.75664652,29.3126699 L1.81672614,29.3126913 C1.91029828,29.3126913 2.01801098,29.3080068 2.1064768,29.2951244 L2.18729042,29.2793793 C2.28412129,29.2525447 2.60906334,29.2442167 2.98521401,29.2608727 C3.29712113,29.2762949 3.63877064,29.3090671 3.91048244,29.3747186 L4.06431954,29.4181792 C4.49540312,29.5625311 4.83617329,29.4403872 5.14063188,29.4191046 C5.23839381,29.4117019 5.33336255,29.4154032 5.42740022,29.4403872 L5.564617,29.4792068 C5.61841027,29.4955222 5.67944352,29.5152725 5.74527361,29.5386353 L5.847311,29.5764111 C6.02235141,29.6430351 6.22718594,29.7300164 6.4310894,29.8438323 C6.84168952,30.0677628 7.25415177,30.3842266 7.49343574,30.8598477 C7.53626478,30.9431276 7.63030245,31.0171542 7.75134103,31.0791515 C7.87610388,31.1392982 8.02321231,31.1911168 8.17032075,31.2299808 C8.46919294,31.3067834 8.76247874,31.3382447 8.85465428,31.347498 C8.46919294,30.9338743 8.08093841,30.4712079 7.73271971,30.0029895 C7.38356995,29.5338458 7.06886963,29.0591501 6.81003327,28.6288704 C6.76627317,28.5677984 6.72809946,28.5058011 6.69178789,28.4438038 L6.58564636,28.2587373 C6.51581641,28.1375187 6.45250392,28.0200014 6.39198463,27.9071108 L5.89479536,27.6841056 L5.42553808,27.4648018 C4.97024679,27.6896576 4.69092698,27.8960068 4.41346931,27.9820628 C4.27567153,28.0246281 4.13787376,28.0366574 3.9777304,28.0024201 C3.89765872,27.9866894 3.81200065,27.9580041 3.71796298,27.9172895 C3.65589191,27.8895295 3.59051039,27.8556006 3.52126666,27.8152287 L2.93549509,27.4522765 L2.62524061,27.2695566 L2.45078211,27.1705459 C2.34464058,27.109474 2.25618931,27.0585807 2.17239337,27.003986 C2.08952849,26.9475408 2.01318108,26.8892448 1.9303162,26.8105915 C1.84652026,26.7310129 1.77110391,26.6190476 1.70220502,26.4820984 C1.65565172,26.3926495 1.60909842,26.2929192 1.56392447,26.1864717 L1.39122897,25.7631148 C1.35491739,25.6742829 1.31953688,25.5854509 1.27950104,25.496619 C1.20036043,25.3189551 1.11563342,25.1412912 1.01228509,24.9756566 C0.907074629,24.8100221 0.811174828,24.6379102 0.717137158,24.4732009 L0.467611462,24.0105346 L0.231280717,23.5511936 C0.216281825,23.5235782 0.205516374,23.5053029 0.199464445,23.4979002 C0.174325662,23.4682896 0.460162934,23.5432415 0.830727214,23.6496548 L1.42381628,23.825468 L1.71838229,23.9164976 C1.81253635,23.9464553 1.90145315,23.9758346 1.98152483,24.0040572 C2.29994941,24.1160225 2.54109552,24.3075664 2.77293096,24.5185422 C2.89117634,24.6258808 3.00569747,24.7359954 3.13046031,24.8451847 C3.25522316,24.9525233 3.39022774,25.0589366 3.54106043,25.1533205 C3.76870608,25.2962844 4.03877342,25.4303999 4.29744975,25.5505919 L4.78124039,25.7723681 C4.85479461,25.8056801 4.92090029,25.8380668 4.98048852,25.8686027 C5.09780284,25.9306 5.18625411,25.9870453 5.22628995,26.0397893 C5.2607394,26.0823546 5.29239564,26.1647092 5.32312082,26.2692718 L5.34441896,26.3515108 L5.38794629,26.5348423 L5.48605738,27.0141647 L5.54099027,27.3065699 C5.75420439,27.3833725 5.99907476,27.4888604 6.22159954,27.582319 C5.77189465,26.6902982 5.50840296,25.975016 5.32498295,25.4040857 C5.18951284,24.975888 5.10170168,24.6273267 5.03916023,24.3341986 L4.95310773,23.9037512 C4.94346934,23.858891 4.93207309,23.8075165 4.91903816,23.7505161 C4.78682679,23.6163428 4.63506302,23.5071535 4.50843804,23.4285002 L4.3259491,23.3249786 L4.28777539,23.305431 C4.08573406,23.2591644 3.77010268,23.213823 3.29898327,23.2230764 C2.97776549,23.2295537 2.64723704,23.1259164 2.3716415,22.9686099 C2.09139062,22.813154 1.87072797,22.6031034 1.75062045,22.4124849 C1.50668115,22.0118158 1.33257181,21.8526586 1.1984983,21.74532 L1.07332164,21.6479887 C0.99656042,21.5847233 0.932213412,21.5146036 0.874487318,21.3770375 C0.790691375,21.1716136 0.673377055,21.0013524 0.542096744,20.7977792 L0.400229868,20.5826907 C0.375435925,20.5440324 0.350297142,20.5038318 0.325158359,20.4618834 C0.251604142,20.3369635 0.17246353,20.1953876 0.0905297187,20.026977 C-0.0686825728,19.6910812 0.00300951168,19.0701829 0.144531549,18.5445939 C0.178049926,18.4131967 0.218085765,18.2873514 0.25439734,18.1735355 L0.327296362,17.9609831 L0.413674779,17.737844 C0.45222037,17.6434898 0.476922122,17.5887252 0.476922122,17.5887252 L0.532786084,17.7506584 L0.604129019,17.9231173 C0.632177383,17.9875436 0.664997461,18.0578689 0.704102234,18.1309702 C0.781380715,18.2790234 0.875418384,18.43633 0.986215242,18.5797566 C1.10073636,18.7259591 1.23201667,18.8555057 1.37540084,18.948039 L1.84558919,19.2478468 C2.01225001,19.3514841 2.1798419,19.4615987 2.34370952,19.5689373 C2.67051369,19.7845398 2.9582131,19.9982917 3.10811473,20.1833582 L3.23873985,20.3550589 C3.25791291,20.3816879 3.27601697,20.4075972 3.29339687,20.4331981 C3.34646763,20.5118514 3.39208987,20.5877287 3.43584997,20.6719339 L3.48016182,20.7602175 L3.57644094,20.9624884 C3.61624402,21.0471564 3.65761826,21.1417138 3.70841955,21.2508453 L3.85154186,21.5481807 C3.93119165,21.7154997 4.01938833,21.921585 4.07567055,22.1820246 L4.10528645,22.3449356 C4.15649508,22.707666 4.28498219,22.9982205 4.39764118,23.1832871 L4.40602078,23.1879137 C4.50285165,23.2767457 4.71979003,23.4322016 4.87248486,23.5376895 L4.77668299,23.0620678 C4.6976606,22.6472316 4.61246841,22.1344227 4.55157837,21.5713331 L4.52705936,21.3270695 C4.43395276,20.4628087 4.42091784,19.6864546 4.4246421,19.1719695 C4.37064027,19.0600043 4.24867062,18.9073244 4.09038939,18.7407645 C3.9339703,18.5760552 3.75613669,18.3965407 3.5857516,18.2392341 L3.44428386,18.2434264 C3.3036196,18.2450316 3.11104094,18.2400273 2.90421127,18.2142501 C2.61371867,18.1772368 2.29901835,18.0976582 2.06438971,17.9292476 C1.9219366,17.8283864 1.77482817,17.6609011 1.64447893,17.4452986 C1.58023537,17.3388853 1.51506075,17.2185921 1.45547252,17.0918215 C1.39681536,16.9613496 1.34188247,16.8244003 1.29253597,16.6800484 C1.09328784,16.1044914 0.992732704,15.4243718 1.03276854,14.8423375 C1.06548886,14.3442441 1.1590895,13.7938033 1.26431897,13.3308672 L1.31767475,13.1073386 C1.34839993,12.9814933 1.37819404,12.8639761 1.40705709,12.7603388 L1.56161405,12.2504805 L1.63051294,12.3161791 C1.67241091,12.3596697 1.73199913,12.424443 1.79903589,12.507723 C1.86700371,12.5900776 1.94055792,12.6918642 2.01411214,12.8103068 L2.06904504,12.9023774 L2.12118474,13 C2.15749631,13.0656986 2.19101469,13.1369492 2.22173987,13.2100505 C2.32415713,13.4575771 2.50351666,13.6479129 2.69300584,13.8308589 L2.8073804,13.9401381 C3.03456051,14.1575913 3.26825809,14.3787458 3.39767627,14.685031 L3.71338908,15.422799 C3.85243552,15.7365489 4.00247016,16.0357524 4.21422118,16.3376753 C4.564302,16.8355043 4.29336179,17.4184639 3.76451628,18.1170902 L4.14439122,18.5168339 C4.26542981,18.6426792 4.37436453,18.7481671 4.4274353,18.7990604 L4.4246421,18.2827247 L4.42650423,18.1281942 L4.43115956,17.9625596 C4.43395276,17.8478184 4.44047022,17.7256744 4.44884982,17.5952025 L4.46467794,17.3916293 L4.48516139,17.1751014 C4.51309337,16.8752936 4.56057774,16.5375472 4.6248213,16.1544594 C4.67919555,15.8465086 4.74787098,15.5089473 4.83799818,15.1398801 L4.9097275,14.8571429 C4.93331451,14.7689278 4.95772913,14.6761889 4.98462659,14.5800228 L5.09500964,14.2029326 L5.17228812,13.9641967 L5.1154931,13.7745035 L4.93300415,13.1239946 C4.88883024,12.9742963 4.69427193,12.8385923 4.43869622,12.6946783 L4.20677265,12.5687949 C3.8436569,12.3735497 3.41815972,12.1533205 3.13139138,11.843334 L2.96633342,11.6583944 C2.79979394,11.4653185 2.71892913,11.3448881 2.66678943,11.2261371 C2.60161481,11.0734572 2.58206242,10.9207773 2.50664607,10.5959855 C2.4703345,10.4322016 2.46381704,10.283223 2.47871409,10.1388711 C2.49547328,9.99544452 2.52992272,9.85571927 2.57554496,9.71136736 L2.73941258,9.25702897 C2.79993187,9.09509574 2.85579583,8.91743185 2.91072873,8.71663464 L2.94610924,8.57135739 C3.04014691,8.18271763 3.12114965,7.77279522 3.18260001,7.45910741 L3.28408621,6.92519041 L3.36453031,7.04304079 L3.40419373,7.09637697 C3.45656619,7.16577692 3.51993687,7.24246388 3.58095079,7.30028272 L3.6406845,7.35084348 C3.71889405,7.40913944 3.90603832,7.64602463 4.09690686,7.93102712 C4.25518808,8.17084253 4.41217616,8.44150236 4.50051967,8.6787474 L4.54474962,8.81657057 C4.64809795,9.212613 4.95162547,9.39675422 5.14063188,9.60773009 C5.20115117,9.67620471 5.2523598,9.74838067 5.27936072,9.82980995 L5.34029713,10.0316805 C5.35522398,10.0869784 5.37041897,10.1484946 5.38457118,10.2147484 C5.41902062,10.3813083 5.4497458,10.5793295 5.4581254,10.7912307 C5.47302245,11.2178091 5.40412357,11.6952808 5.08663005,12.1292619 C5.03169715,12.2060645 5.01493796,12.3161791 5.02052436,12.438323 C5.02983502,12.5623176 5.06428446,12.6992669 5.10804457,12.8306641 C5.16216278,12.9931757 5.23446588,13.1470122 5.29017527,13.2571576 L5.3648,13.4001739 L5.51192355,13.014227 C5.61451539,12.7536302 5.72606874,12.489332 5.8444887,12.2273471 L6.02700674,11.8368567 C6.27653244,11.3214464 6.54933479,10.8273187 6.81003327,10.3979643 C6.84355165,10.3313403 6.88079429,10.2684177 6.918968,10.2073457 L7.03442019,10.0269058 C7.10890547,9.90846324 7.18618395,9.79649797 7.25787604,9.68915937 L7.18245969,9.09960396 C7.16681778,8.96832515 7.15266557,8.84210976 7.14149278,8.73143996 C6.67968403,8.52046409 6.3296032,8.42978148 6.09590563,8.27247491 C5.97952237,8.19382162 5.89200217,8.09758702 5.83520714,7.96063777 C5.78902626,7.85107837 5.76489303,7.7154616 5.76423756,7.54004812 L5.7923632,6.87883493 L5.80093227,6.44747291 L5.80168876,6.35796142 C5.80168876,6.24414549 5.80355089,6.14883622 5.81286155,6.05630294 C5.82217221,5.96376966 5.8389314,5.87308705 5.87058765,5.76482312 C5.93669334,5.55107125 6.15456279,5.28642608 6.41433021,4.99217026 C6.67689083,4.70161577 6.97576303,4.3805253 7.2066674,4.04092818 C7.32025746,3.86881629 7.44688244,3.69855506 7.56698996,3.53569649 C7.68895961,3.37468859 7.81092926,3.22293402 7.91893292,3.08876077 L8.31071806,2.61568624 C8.31534359,2.60932735 8.31854646,2.6044416 8.32022238,2.6011104 C8.3345608,2.57649655 8.36669188,2.69697487 8.40990918,2.88954588 L8.5083322,3.34932762 L8.58371407,3.72446437 C8.62002564,3.91138159 8.65540615,4.09459748 8.68054493,4.24727739 C8.7252361,4.55448786 8.65540615,4.83856502 8.56602381,5.13097018 L8.45480239,5.48720108 C8.40148582,5.6691067 8.35634774,5.85754146 8.34070583,6.05630294 C8.31463598,6.38757207 8.34815436,6.76880917 8.37887954,7.09267564 C8.39656979,7.25368354 8.41146685,7.40173678 8.41519111,7.52295537 C8.42077751,7.64602463 8.41426005,7.74225924 8.3881902,7.8005552 C8.35257692,7.87273116 8.23107281,7.99123158 8.0806329,8.12365538 L7.55946,8.56169131 C7.47722759,8.62946451 7.40591553,8.68781713 7.35563797,8.72866396 C7.4012602,8.92946117 7.43477858,9.16819702 7.46922803,9.38472489 C8.06324815,8.55932807 8.59954219,7.97359243 9.04552282,7.5294327 L9.26339227,7.32051312 C9.29846242,7.28740677 9.33291187,7.25522576 9.3667406,7.22407289 L9.6572332,6.96590505 L9.92072489,6.74567585 L10.4244316,6.35426009 C10.4551568,6.26912948 10.4784334,6.18399886 10.4951926,6.10349491 C10.5063654,6.04920872 10.5142278,5.99656757 10.520159,5.94749066 L10.532918,5.81270052 L10.5389527,5.66396185 L10.5380217,5.64638053 C10.4840198,5.46871663 10.3685676,5.20129547 10.1264905,4.84411702 C9.95796753,4.59890384 9.9039657,4.29539469 9.92724235,3.99743754 C9.9533122,3.70318172 10.0613159,3.4172539 10.2065622,3.22848601 L10.3629068,3.01075892 C10.4307256,2.91224429 10.4834612,2.82818706 10.5231246,2.75379031 C10.5727039,2.66079436 10.6060477,2.58549541 10.6306191,2.5193052 L10.6997168,2.3083968 C10.7079929,2.28526348 10.7170967,2.26243861 10.7279591,2.23930529 C10.7517013,2.18725532 10.7864417,2.13520535 10.8416074,2.07690939 L10.9039306,2.01630009 C10.9961062,1.93024415 11.0752468,1.84233753 11.1553184,1.75258025 L11.2717017,1.61320201 L11.5425361,1.28038268 C11.6780835,1.11940715 11.8411151,0.939344946 12.065901,0.733788882 C12.1431795,0.661612926 12.2511832,0.5959143 12.375946,0.530215674 C12.4383274,0.499679693 12.5053642,0.468218379 12.5770563,0.43860773 C12.6487484,0.408997082 12.7232336,0.382162431 12.8023743,0.355327781 C12.8796527,0.329418464 12.9597244,0.304434479 13.0425893,0.280375827 L13.1680504,0.246601182 L13.2949082,0.215602534 C13.3805663,0.195245213 13.4662243,0.176738558 13.5509513,0.158231903 L13.9312918,0.0944996085 L14.1725543,0.0629226279 L14.2874246,0.050893302 C14.387359,0.0397893088 14.4806725,0.0311528697 14.5659857,0.024709812 L14.9971576,0.00186547085 Z" id="21"></path>
            </g>
        </g>
    </g>
</svg>