<?xml version="1.0" encoding="UTF-8"?>
<svg width="48px" height="48px" viewBox="0 0 48 48" version="1.1" xmlns="http://www.w3.org/2000/svg" xmlns:xlink="http://www.w3.org/1999/xlink">
    <title>边框-18</title>
    <g id="V1.4" stroke="none" stroke-width="1" fill="none" fill-rule="evenodd">
        <g id="形状汇集备份" transform="translate(-612.000000, -845.000000)" fill="#3D4242">
            <g id="边框-18" transform="translate(612.000000, 845.000000)">
                <path d="M46.4005423,30.0948588 C46.3898879,30.0948588 46.3792335,30.0945962 46.3685791,30.0945962 L46.3685791,29.8299106 C46.3792335,29.8299106 46.3898879,29.8299106 46.4005423,29.8299106 L46.4005423,30.0948588 Z M46.188494,27.9936542 C46.1500342,27.6546571 46.1193704,27.4141293 46.0965024,27.1725511 C46.0845487,27.0467729 46.1120942,26.9204696 45.9676103,26.8338166 C45.9099207,26.7994179 45.8841942,26.6851935 45.8722405,26.6030044 C45.829623,26.3068086 45.7989591,26.0085121 45.7597198,25.6784429 C46.258657,26.1408549 46.5231977,27.4178054 46.188494,27.9936542 L46.188494,27.9936542 Z M45.4239766,30.5950831 C45.4179997,30.3503539 45.5973053,29.9163011 45.886533,29.5098196 C45.9065425,30.3928927 45.8860133,30.4380573 45.4239766,30.5950831 L45.4239766,30.5950831 Z M44.3073446,32.966225 C44.3304724,32.6117354 44.4422136,32.3719953 44.6992183,32.1944879 C44.82889,32.105209 44.9323155,31.9770676 45.0476947,31.8662567 C45.0279451,31.834484 45.0081955,31.8029738 44.9884459,31.771201 C44.8548763,31.809801 44.7213066,31.8486636 44.5412215,31.900918 C44.6501041,31.2468189 45.2101092,31.1278679 45.6822806,30.8017374 C45.5216851,31.7578092 45.1170782,32.4602239 44.3073446,32.966225 L44.3073446,32.966225 Z M43.9448355,32.3961531 C43.909754,32.3782974 43.8744126,32.3604416 43.8393311,32.3425858 C43.8887051,32.2611845 43.9380791,32.1797831 43.9874531,32.0986444 C44.0113605,32.1109859 44.0352679,32.1233274 44.0591753,32.1356689 C44.0209754,32.2225845 43.9827756,32.3092375 43.9448355,32.3961531 L43.9448355,32.3961531 Z M44.0732079,30.3409009 C44.1971627,30.1310955 44.3517812,29.9396711 44.4765155,29.7301283 C44.6568606,29.4281557 44.8223934,29.1175177 45.033922,28.739658 C44.849679,29.7408943 44.5973519,30.6507511 43.829976,31.4130352 C43.8141244,30.9831836 43.8918234,30.6481253 44.0732079,30.3409009 L44.0732079,30.3409009 Z M44.4915876,26.31101 C44.2218497,25.7590564 44.3647744,25.2840403 44.5243304,24.81165 C44.4980842,25.0466635 44.4559863,25.2811519 44.4500095,25.5166906 C44.4437728,25.7551177 44.4733972,25.9945951 44.4915876,26.31101 L44.4915876,26.31101 Z M43.064679,29.4840863 C42.962293,29.7766059 43.0722151,29.9756452 43.1000204,30.1762601 C43.1688842,30.6762218 43.2525601,31.1740829 43.3274007,31.6732568 C43.3585843,31.8827996 43.3403938,32.0765873 43.1252272,32.1929124 C42.9719079,31.9544853 43.093264,31.6107616 42.8029968,31.3775862 C42.747646,31.4939113 42.6839795,31.5737371 42.673585,31.6603902 C42.6491579,31.8602173 42.6182341,32.0684471 42.6481184,32.2640729 C42.7216597,32.7456537 42.464655,33.0413243 42.1221554,33.3451351 C42.0478345,32.9058305 42.1660723,32.471515 41.9030908,32.0826267 C41.8654106,32.3446865 41.8383848,32.6091095 41.7877115,32.8685434 C41.7076737,33.2781759 41.6107447,33.6841322 41.5231708,34.0921892 C41.405193,34.642042 41.2986491,35.1945207 41.1697569,35.7417477 C41.0574961,36.2175516 40.9234067,36.6878412 40.7921758,37.158656 C40.7713867,37.2324424 40.713957,37.2957253 40.6443137,37.4131008 C40.6014362,37.0165976 40.5655751,36.6844276 40.5250365,36.3091938 C40.3044127,36.4423243 40.3623621,36.5977746 40.3467703,36.7295922 C40.3023337,37.1006247 40.263874,37.4727076 40.2067041,37.8416394 C40.1674648,38.0947713 40.0136258,38.2756923 39.7805285,38.4258909 C39.7561014,38.3200691 39.7384307,38.2436569 39.6963329,38.0608978 C39.5076722,38.737054 39.0869538,39.1051981 38.5789213,39.4654646 C38.6064668,39.3097517 38.6249171,39.2049804 38.6542816,39.040077 C38.5123964,39.1128131 38.4193654,39.1606035 38.3208772,39.2110198 C38.2816379,39.1503627 38.2403196,39.086292 38.1875674,39.0043655 C38.0059231,39.3743476 37.8785901,39.7485312 37.6564071,40.0520793 C37.4542336,40.3288439 37.3123483,40.7211457 36.8872122,40.796245 C36.798339,40.4039432 36.7201202,40.058644 36.6419014,39.7130822 C36.6133165,39.7141325 36.5844716,39.7151829 36.5556268,39.7162332 C36.5350976,39.8047243 36.5054733,39.8924277 36.4955985,39.9822318 C36.4683128,40.2261732 36.4672734,40.4745785 36.4191987,40.7137934 C36.3971103,40.8238165 36.3116153,40.9514327 36.2175449,41.0105143 C35.7833136,41.2833401 35.3358292,41.5348964 34.8579409,41.814812 C34.9078346,41.4487686 34.9559093,41.0955919 35.0042438,40.7424151 C34.9725405,40.7319117 34.9408372,40.7216709 34.9091339,40.7111675 C34.8592402,40.800709 34.7986921,40.8857865 34.7615316,40.9803171 C34.5869036,41.4227727 34.4239694,41.8699548 34.2446638,42.3103097 C34.2041252,42.4093043 34.1253867,42.5521505 34.0463883,42.5652797 C33.6046209,42.6390661 33.3535931,42.9594197 33.1116605,43.2781978 C32.9500256,43.490629 32.7655228,43.5948752 32.5074787,43.6292738 C32.2829569,43.6589459 32.0654515,43.7406099 31.8443079,43.798116 C31.6961859,43.8367159 31.5470245,43.8726901 31.2941776,43.935973 C31.4992096,43.5413079 31.6582459,43.2351339 31.8598997,42.8470333 C31.3905869,43.0576265 31.2237547,43.4796004 30.85293,43.7180275 C30.792122,43.5024453 30.7372909,43.3076073 30.6738843,43.0823094 C30.4194783,43.1915448 30.4096035,43.396361 30.3633478,43.5862099 C30.3061779,43.8217486 30.2419917,44.0564995 30.1614341,44.2844232 C30.1027051,44.4511647 29.9675762,44.5265265 29.7874911,44.5065701 C29.4190051,44.4656068 29.0502593,44.4283198 28.6822931,44.3849933 C28.5266351,44.3666123 28.3725362,44.3372028 28.1781586,44.306743 C28.4801196,43.9819254 28.9161699,43.8288384 29.1830494,43.3559229 C29.0032241,43.4307596 28.9052557,43.4688345 28.809626,43.5118984 C28.2763869,43.7521636 27.7454864,43.9974179 27.2104282,44.2332192 C26.6870638,44.4635062 26.1605811,44.6867034 25.6338385,44.9091128 C25.3181047,45.0425059 25.0031506,45.1798379 24.6809203,45.2951126 C24.2394128,45.4526636 23.8046618,45.4836486 23.3488618,45.2859222 C23.1100476,45.1824637 22.8200403,45.1979562 22.5526411,45.1638202 C22.260295,45.1265331 21.9671694,45.0939726 21.658452,45.0574733 L21.658452,44.5874463 C20.7354181,44.5165483 19.8321338,44.4469633 18.8568674,44.371864 C19.2627736,44.0680533 19.6143684,43.7836738 19.8968397,43.3188985 C19.7679476,43.3538223 19.7042811,43.357761 19.6546472,43.3863828 C19.1471345,43.6812657 18.6437796,43.9837635 18.1349675,44.2768083 C17.8194937,44.4582545 17.7363375,44.4606177 17.5047994,44.1948818 C17.245456,43.8978982 16.9507712,43.6602589 16.6194456,43.4522916 C16.4416992,43.3404304 16.2990344,43.1668618 16.1537709,43.0085231 C15.9102791,42.7427871 15.6330051,42.5629164 15.2593219,42.5679056 C14.9046087,42.5726321 14.5459976,42.5361328 14.1962218,42.5778838 C13.9028363,42.6130702 13.7105375,42.5361328 13.5447448,42.2971805 C13.2594151,41.8849222 12.9564147,41.4852679 12.6521149,41.068283 C12.988118,40.8458736 13.5099232,40.8962899 13.6757159,40.3782098 C13.5099232,40.2750139 13.3540053,40.3309445 13.1996466,40.4039432 C13.0572416,40.4709023 12.9221127,40.5591308 12.7739907,40.6071839 C12.4210966,40.7221961 12.0783371,40.7665729 11.8054808,40.4147091 C11.7121899,40.2944452 11.5768012,40.2080548 11.4609022,40.1061718 C11.4364751,40.1216644 11.4123078,40.1371569 11.3881405,40.1526494 C11.4468696,40.2810534 11.5053388,40.4091948 11.5729032,40.5567676 C11.4260806,40.5567676 11.2878334,40.5583431 11.1495862,40.556505 C10.8678945,40.5528288 10.7174338,40.4254751 10.5680124,40.1568507 C10.1610667,39.4255517 9.64861661,38.7638377 8.98830435,38.2370923 C8.67361007,37.9860611 8.36463279,37.7373932 8.16999529,37.3650478 C8.01563657,37.0693771 7.90441515,36.7878861 7.89661925,36.4347094 C7.87946828,35.6553573 7.54866249,34.9870786 7.02529811,34.416219 C6.92992833,34.3119728 6.84053541,34.2022123 6.73009357,34.0735457 C6.92992833,33.991094 7.10273732,33.9199335 7.27554632,33.8485104 C7.27190824,33.8180505 7.26827015,33.7873281 7.26463207,33.7568682 C6.9915159,33.7187934 6.71943918,33.671003 6.44528355,33.6455322 C6.13006955,33.6166479 5.88865668,33.4921826 5.67712808,33.2401011 C5.47755318,33.0019366 5.2171703,32.8144509 4.97575744,32.6140986 C4.85699998,32.5153667 4.72135141,32.4379041 4.5719301,32.3362838 C4.7003025,32.0960186 4.8180205,31.8875261 4.92534398,31.6735194 C5.38062422,30.764713 5.32709242,29.8653596 4.87545026,28.9712579 C4.63533671,28.4957166 4.39834151,28.0180746 4.17563879,27.5341306 C4.10053834,27.3713279 4.07325271,27.1862055 4.01140528,26.965109 C4.36845725,27.0606899 4.40379864,27.4852898 4.80268858,27.5131238 C4.75097581,27.3702776 4.72966703,27.2626178 4.67717468,27.173864 C4.44225839,26.7776234 4.21098018,26.3784943 3.95397553,25.9969584 C3.77077201,25.7249204 3.66760633,25.4342389 3.63174522,25.1138853 C3.59614397,24.7982582 3.59510452,24.4758039 3.52831969,24.1675292 C3.34121822,23.3062506 3.58834807,22.4830469 3.70788512,21.5787044 C3.85184931,21.7236512 3.96255101,21.8352498 4.07377244,21.947111 C4.21877608,21.6451383 4.21877608,21.6451383 3.78038694,20.6517796 C3.89836481,20.549634 4.02413858,20.4403987 4.20006593,20.2880994 C4.24502226,20.4965919 4.27906433,20.6538802 4.33519477,20.9141019 C4.77878117,19.8375037 5.00330293,18.8055449 5.03942391,17.7108283 C5.15766164,17.7255331 5.23276209,17.7347236 5.34866106,17.7491657 C5.32397406,17.5472379 5.30578364,17.3642162 5.27797828,17.1827701 C5.23380154,16.8915634 5.29175103,16.6560247 5.53602239,16.4551472 C5.96427686,16.1022331 6.36992324,15.7209597 6.82078581,15.31973 C6.89900461,15.5978074 6.959033,15.8107638 7.04270894,16.1085351 C7.26671097,15.706255 7.28827961,15.3517653 7.29373674,15.0043655 C7.29971359,14.6131139 7.34778828,14.2344665 7.41483297,13.848204 C7.48499602,13.4443484 7.43068462,13.0181731 7.43068462,12.5933106 C7.81684126,12.2298931 8.18584694,11.8543967 8.72610243,11.7097124 C8.95088405,11.6495804 9.15383717,11.5059465 9.3469155,11.3452445 C8.97167311,11.314522 8.65697883,11.5161873 8.31317988,11.589711 C7.95352928,11.6666484 7.59283923,11.7401722 7.205903,11.8207858 C7.0528436,11.1997724 7.20824176,10.6740774 7.53359043,10.2024749 C7.61154937,10.0895633 7.82957456,10.0756463 7.99484752,10.0115756 C8.05435618,10.1370912 8.09385538,10.2203306 8.1317954,10.2993687 C8.17987009,10.2872898 8.22144819,10.2891279 8.2305434,10.272585 C8.3836028,10.0000219 8.63125238,9.93962735 8.9181413,9.92623552 C9.60340043,9.89367499 10.28788,9.84798521 10.9720996,9.79966958 C11.1189223,9.78942877 11.2634062,9.7453145 11.4060711,9.6720533 C10.9978261,9.39135001 10.5368289,9.50242344 10.0654371,9.43782755 C10.2190162,9.20570247 10.4087163,9.06338144 10.6579251,8.9961597 C11.3600753,8.80683596 11.9990788,8.49751091 12.5172459,7.97102813 C12.6489966,7.83684723 12.7919213,7.84131117 12.9506977,7.86651933 C13.1908112,7.90433156 13.4298853,7.95501045 13.6712982,7.97417915 C13.8222787,7.98625806 13.9771571,7.95002134 14.1738735,7.93137781 C13.992489,7.53408681 13.6076317,7.52148273 13.3181442,7.31614131 C13.5743692,6.85556735 14.1455484,6.68593748 14.4111286,6.15052681 C14.0519977,6.20068053 13.8433276,6.44724778 13.4896538,6.56619875 C13.6328384,6.25451044 13.7484775,6.0026915 13.8781493,5.7204127 C14.2157115,5.75297323 14.5462574,5.75323581 14.862251,5.82150789 C15.8653228,6.03787788 16.6961053,5.72960317 17.3904596,5.00565652 C17.7246436,4.65720632 18.1024846,4.44635062 18.5881689,4.41142682 C18.8672619,4.39120778 19.1421971,4.31190713 19.4865158,4.2462609 C19.1520719,3.95426646 18.768254,4.00599569 18.4649937,3.80695631 C18.5338575,3.80695631 18.6063593,3.79303931 18.6715849,3.80905699 C19.1013986,3.91592906 19.5267946,4.04302016 19.9592068,4.13702557 C20.7850519,4.31663366 21.5854304,4.23260648 22.3208432,3.79540258 C22.5734301,3.64546658 22.7743044,3.65465705 22.9720602,3.84818215 C23.2903926,4.15960787 23.6775887,4.34945678 24.0964881,4.45028939 C24.6468782,4.58289478 25.13724,4.8404906 25.6273419,5.10780205 C25.7635102,5.181851 25.9033166,5.24933533 26.1101676,5.35489447 C26.0332481,4.84679263 25.5901815,4.70604711 25.3768338,4.34262957 C25.5896617,4.23680784 25.7952135,4.11444327 26.0158373,4.03461745 C26.1021119,4.00310726 26.2343822,4.04328275 26.3245547,4.09133579 C26.5007419,4.18507861 26.6576993,4.31505815 26.831028,4.41536559 C26.9474467,4.48284992 27.0784177,4.5251261 27.288647,4.6157179 C27.1693698,4.33659012 26.9890248,4.27173164 26.8523368,4.16249631 C26.7101916,4.04853445 26.5667472,3.9361481 26.3333901,3.75155089 C26.745533,3.659121 27.0526913,3.57850742 27.3645271,3.52861629 C27.4445649,3.51601221 27.54877,3.58822307 27.6269888,3.64310332 C28.059661,3.94612633 28.4881753,4.25545137 28.9169495,4.56398867 C28.974899,4.60573967 29.0344077,4.65011652 29.0798837,4.7044716 C29.6536616,5.38640467 30.2173047,6.07516494 30.56812,6.91176052 C30.6315266,7.06327203 30.7240379,7.20244204 30.8487722,7.43089093 C30.9922166,7.00287749 30.8209668,6.7274259 30.7113046,6.4522369 C30.6006029,6.17442204 30.4514414,5.91209969 30.3176119,5.64006171 C30.4956182,5.58701955 30.6660884,5.56496242 30.8061546,5.48697469 C30.9750657,5.3927067 30.9412835,5.29896388 30.7050679,5.18316393 C31.0704355,5.14220068 31.4259282,5.10202519 31.7941543,5.06053677 C32.1990211,5.49222639 32.2416387,6.17783564 32.8055417,6.593245 C32.9440488,6.06492412 32.7156291,5.64163722 32.6410483,5.17686189 C32.9323549,5.20443331 33.1981949,5.22937888 33.4959981,5.25773805 C33.879816,5.8162562 34.2753277,6.39184236 34.6708394,6.96716594 C34.654468,6.99394961 34.6380966,7.02073327 34.6217253,7.04751693 C34.3091099,7.00208974 33.9962347,6.95692513 33.5952658,6.89889386 C33.6856982,6.99946389 33.7101253,7.05250604 33.7470259,7.0637972 C34.5237569,7.30432499 35.265926,7.66275342 36.0847548,7.7625357 C36.1764865,7.77382685 36.2767937,7.82581866 36.3466969,7.88883905 C36.612277,8.1283165 36.8669429,8.38013545 37.1735814,8.67318023 L35.9483267,8.67318023 C35.9431294,8.70652852 35.9379321,8.7398768 35.9327349,8.77322509 C36.3308452,8.89375157 36.7258372,9.02688213 37.1278455,9.13139093 C37.7777632,9.30075821 38.4320987,9.45358264 39.0859143,9.60824517 C39.2579437,9.64894583 39.3889148,9.72194444 39.5055933,9.8708301 C39.8405569,10.2996313 40.2462033,10.6753903 40.4462979,11.2010854 C40.5616772,11.5046335 40.7591732,11.7871749 40.6869312,12.1416646 C40.6788755,12.1802646 40.6926482,12.2314686 40.7129175,12.2669176 C41.0312499,12.8272738 40.8781905,13.4826858 41.0704892,14.0679876 C41.0736076,14.0771781 41.0577559,14.0929332 41.0419043,14.1223427 C40.7207134,14.064574 40.4681264,13.7602381 40.0978214,13.7938489 C40.0344148,14.0427795 40.2217762,14.124706 40.3407935,14.2184488 C40.6336593,14.4492609 40.9561494,14.6419983 41.2445975,14.8777995 C41.5200525,15.10336 41.7736789,15.3580674 42.0226278,15.6140877 C42.0847351,15.6781584 42.1026657,15.7944835 42.1226751,15.8905896 C42.2364952,16.4412302 42.4740101,16.9243865 42.8586076,17.3348067 C43.00595,17.4918325 43.1415985,17.6606746 43.2730893,17.8316174 C43.5994774,18.2564798 43.5986978,18.278537 43.3170062,18.8147354 C43.1322435,18.7351722 42.9438427,18.6537708 42.6741047,18.5374457 C42.7819479,18.8782809 43.0620804,18.9205571 43.2117616,19.1132945 C43.1868147,19.4651583 42.7668759,19.6647228 42.7928622,20.0945743 C43.1623876,19.9724723 43.2554186,19.6135187 43.4856573,19.4105406 C44.1885872,19.9716846 44.4952257,20.4687579 44.6035886,21.2615018 C44.3260548,20.8923074 44.0810038,20.5656517 43.8359529,20.2392586 C43.8029503,20.2560641 43.7702075,20.2726069 43.7372049,20.2891498 C44.2140538,21.0393549 44.5089984,21.8428648 44.5562935,22.8330726 C44.1828702,22.519021 43.9786177,22.157179 43.5633564,22.0442674 C43.6353385,22.1608552 43.7034227,22.2803313 43.7803422,22.3935054 C43.9261254,22.6077747 44.0836025,22.8139039 44.2239286,23.0318494 C44.4115498,23.3235812 44.5027617,23.6371076 44.3471037,23.9745293 C43.9978476,24.7307739 43.970562,25.5361218 43.9944694,26.4307487 C43.6828935,26.1411175 43.4154943,25.8927122 43.1480951,25.6440442 C43.1189904,25.669515 43.0896259,25.6949857 43.0605212,25.7204565 C43.1205496,25.8220768 43.1771998,25.9255353 43.241386,26.0245298 C43.5617972,26.5202902 43.890784,27.0105362 44.2023599,27.5118109 C44.3154004,27.6935196 44.4136287,27.8930842 44.4710584,28.098163 C44.5102977,28.2386459 44.5095182,28.4200921 44.4544272,28.5524349 C44.1891069,29.1889408 43.8993595,29.8146807 43.5981781,30.4892614 C43.4308262,30.1741595 43.2645138,29.8608956 43.064679,29.4840863 L43.064679,29.4840863 Z M41.4800335,37.8555564 C41.5530551,37.3227716 41.7076737,37.1255703 42.2687182,36.7723936 C42.2931453,36.7947133 42.3173126,36.8167704 42.3417398,36.8390901 C42.0720018,37.1573431 41.802004,37.4758586 41.4800335,37.8555564 L41.4800335,37.8555564 Z M37.3508081,41.8198011 C37.728909,41.1575619 37.9874728,40.8624164 38.8515178,40.8159389 C38.3980566,41.2720489 38.0490604,41.7751617 37.3508081,41.8198011 L37.3508081,41.8198011 Z M35.8734861,41.7229073 C35.7225056,41.8219018 35.5782815,41.9316623 35.431199,42.0364337 C35.4101501,42.0017724 35.3891012,41.9668487 35.3680522,41.9321874 L36.24587,41.37577 C36.2658794,41.4051795 36.2858889,41.4343264 36.3056385,41.4634733 C36.1614144,41.5496012 36.0138122,41.6307399 35.8734861,41.7229073 L35.8734861,41.7229073 Z M36.2796522,42.1821683 C36.0600678,42.1590608 35.8960942,42.1419928 35.6195998,42.1128459 C35.883101,41.953982 36.0621467,41.845797 36.3012208,41.7016379 C36.2921256,41.9035657 36.2866685,42.0248799 36.2796522,42.1821683 L36.2796522,42.1821683 Z M34.6503102,43.4517664 C34.8392307,42.7338592 35.0972748,42.4531559 36.0743603,42.5752579 C35.7898101,43.023753 35.2594294,43.3420059 34.6503102,43.4517664 L34.6503102,43.4517664 Z M34.8363722,43.9556669 C35.1747141,43.7673935 35.4792737,43.5977637 35.7835734,43.4281338 C35.5873767,43.8254248 35.368572,43.9375486 34.8363722,43.9556669 L34.8363722,43.9556669 Z M33.3213701,43.4486154 C33.4754689,43.2227924 33.5960454,42.9494415 33.9094404,42.8950864 C33.7135036,43.0796836 33.5173069,43.2642808 33.3213701,43.4486154 L33.3213701,43.4486154 Z M31.4025406,44.277596 C31.737764,44.1040274 32.0667508,44.2056478 32.4110694,44.1736124 C32.1571831,44.3356273 32.0407645,44.3466559 31.4025406,44.277596 L31.4025406,44.277596 Z M30.2373142,45.3405398 C30.5405745,45.0855699 30.8004376,45.0792678 31.3812318,45.3234718 C31.0106669,45.3899058 30.6408817,45.4983534 30.2373142,45.3405398 L30.2373142,45.3405398 Z M29.740196,45.7958621 C29.7370776,45.7701288 29.7342191,45.7443955 29.7311008,45.7186621 C29.8550555,45.702907 29.9790102,45.6868894 30.1029649,45.6708717 C30.106603,45.7031696 30.110501,45.735205 30.1141391,45.7675029 C29.9894047,45.776956 29.8646704,45.786409 29.740196,45.7958621 L29.740196,45.7958621 Z M28.9192883,44.9976039 C28.9192883,44.968457 28.9195482,44.9395726 28.919808,44.9104257 L29.5486768,44.9104257 C29.291932,45.1546297 29.1079489,44.9910393 28.9192883,44.9976039 L28.9192883,44.9976039 Z M25.6982845,45.8630838 C26.5792206,45.3350255 27.5134286,45.1551549 28.6053736,45.4327071 C28.0544637,45.5590105 27.5718979,45.4936268 27.1057034,45.5647874 C26.6324926,45.6369982 26.1670777,45.7614635 25.6982845,45.8630838 L25.6982845,45.8630838 Z M26.3749682,46.2871585 C27.1574161,46.1183164 27.8865921,45.9607654 28.6157681,45.8032145 C27.9697483,46.393768 27.2416118,46.5573584 26.3749682,46.2871585 L26.3749682,46.2871585 Z M27.7265164,46.6256305 C27.8348794,46.5912319 27.9429824,46.5565706 28.1293043,46.4972264 C27.9858599,46.6694822 27.9027036,46.7653257 27.7265164,46.6256305 L27.7265164,46.6256305 Z M27.0841347,47.0638847 C26.5657077,46.9945623 26.0459814,46.9039705 25.6244834,46.5300496 C26.2549114,46.6342958 26.8853394,46.7388046 27.5157674,46.8433134 C27.5207048,46.8727229 27.5259021,46.902395 27.5308395,46.9320671 C27.3814182,46.9793324 27.2247207,47.0825283 27.0841347,47.0638847 L27.0841347,47.0638847 Z M21.7488844,46.7905338 C21.8413956,46.7619121 21.9427423,46.6925896 22.0243393,46.7114957 C22.4499951,46.8099651 22.8278362,46.5988468 23.2285451,46.5450169 C23.5590911,46.5009026 23.8891173,46.4549503 24.2196632,46.4097857 C24.223821,46.4415584 24.2279788,46.4735938 24.2321366,46.5053666 C23.4694383,47.0223963 22.6194259,46.9391569 21.7488844,46.7905338 L21.7488844,46.7905338 Z M20.5618295,46.4349938 C20.7078726,46.3914047 20.7863513,46.3612075 20.8671687,46.3446646 C21.1743269,46.282432 21.4934389,46.2569612 21.787604,46.1566538 C22.1631062,46.0282498 22.5074249,46.0408538 22.8517436,46.2259762 C22.429466,46.5770523 21.172248,46.7141216 20.5618295,46.4349938 L20.5618295,46.4349938 Z M20.0013047,45.838926 C19.8204399,45.8050526 19.6416541,45.7572621 19.4597499,45.7328417 C19.1221876,45.6876771 18.8477722,45.5406295 18.6131157,45.2123984 C19.3591828,45.1359862 20.0226135,45.3515684 20.7154086,45.4563398 C20.4690584,45.8843532 20.4085102,45.9156008 20.0013047,45.838926 L20.0013047,45.838926 Z M18.3150527,46.1655817 C18.5743961,46.2538102 18.8337395,46.3417762 19.0928231,46.4297421 C18.7617574,46.5749516 18.5182657,46.4336809 18.3150527,46.1655817 L18.3150527,46.1655817 Z M18.0684426,46.5825665 C17.1256591,46.4457598 16.4372816,45.8701736 15.7520224,45.1819385 C16.2468019,45.2066215 16.6402347,45.330299 16.9894908,45.6309588 C17.3444638,45.9366076 17.7319198,46.2039191 18.1050833,46.488036 C18.0928697,46.5195462 18.0806561,46.5510564 18.0684426,46.5825665 L18.0684426,46.5825665 Z M15.4698111,44.4535279 C15.7387694,44.4902898 15.9102791,44.6189564 16.1366199,44.7337061 C15.836478,44.7975142 15.6506758,44.7037714 15.4698111,44.4535279 L15.4698111,44.4535279 Z M17.7984447,45.6776989 C17.5146742,45.5099071 17.3122408,45.3901684 17.0656307,45.2441712 C17.5162334,45.0973862 17.5162334,45.0973862 17.7984447,45.6776989 L17.7984447,45.6776989 Z M16.3372343,44.4081007 C16.6758359,44.3800042 16.9991057,44.3999606 17.2743008,44.6659591 C16.9089332,44.7993523 16.8873645,44.7935754 16.3372343,44.4081007 L16.3372343,44.4081007 Z M15.0870326,43.2096631 C15.690175,43.1912822 16.1101139,43.5234521 16.5591574,43.7839364 C16.5513615,43.8117704 16.5438255,43.8396044 16.5362894,43.8674384 C16.1818361,43.8164969 15.8216658,43.7894507 15.4747485,43.7059486 C15.2627001,43.6550072 15.1644719,43.4473025 15.0870326,43.2096631 L15.0870326,43.2096631 Z M15.0984666,44.6042517 C15.0358396,44.5538354 14.9732126,44.5036817 14.9105856,44.4535279 C14.9266971,44.4330463 14.9425487,44.4125647 14.9586602,44.3920831 C15.0199879,44.4443375 15.0810558,44.4965919 15.1421236,44.5488463 C15.1275713,44.5672272 15.1130189,44.5858707 15.0984666,44.6042517 L15.0984666,44.6042517 Z M14.1416505,42.8029191 C14.6156409,42.6080811 15.1086013,42.7784987 15.6049399,42.8966619 C15.1057428,42.8646265 14.6068055,42.8328538 14.1416505,42.8029191 L14.1416505,42.8029191 Z M13.2357675,42.3688662 C13.3919453,42.4917559 13.4987491,42.5718443 13.4278064,42.7606429 C13.2409648,42.6994606 13.2357675,42.5697437 13.2357675,42.3688662 L13.2357675,42.3688662 Z M11.4629811,42.9549557 C12.481125,43.0271666 13.0364525,43.7923391 13.8009699,44.277596 C13.0798497,44.4837252 11.8920152,43.8101949 11.4629811,42.9549557 L11.4629811,42.9549557 Z M11.4377744,41.273887 C12.2137258,41.3728815 12.8124505,41.9358636 13.0161832,42.7538157 C12.1778647,42.5595028 11.9600993,41.7969562 11.4377744,41.273887 L11.4377744,41.273887 Z M11.6022678,42.1608989 C11.5895345,42.1779669 11.5770611,42.195035 11.5643278,42.2118404 C11.4775335,42.1459316 11.3904793,42.0800228 11.303685,42.0141139 C11.320836,41.992582 11.3382468,41.9707874 11.3553978,41.9492555 C11.4377744,42.0198908 11.5198912,42.0902636 11.6022678,42.1608989 L11.6022678,42.1608989 Z M11.2407981,41.497872 C11.1662174,41.4125319 11.0918966,41.3269292 11.0173158,41.2415891 C11.0365457,41.2242585 11.0557756,41.2069279 11.0750054,41.1895973 C11.1482869,41.2759877 11.2218281,41.3626407 11.2951095,41.4490312 C11.2769191,41.4653114 11.2589886,41.4815917 11.2407981,41.497872 L11.2407981,41.497872 Z M11.2184499,42.5072484 C11.1571222,42.4085165 11.0955346,42.3097846 11.0339471,42.2110526 C11.0536967,42.1979234 11.0734463,42.1847941 11.092936,42.1719275 C11.1602406,42.2667206 11.227805,42.3615138 11.2951095,42.456307 C11.2696429,42.473375 11.2441764,42.4901804 11.2184499,42.5072484 L11.2184499,42.5072484 Z M10.0779105,40.9049552 C10.5695716,40.8865743 10.6477904,40.9787416 10.7821397,41.7089903 C10.5394275,41.4317006 10.3294581,41.1919605 10.0779105,40.9049552 L10.0779105,40.9049552 Z M9.36068824,39.31973 C9.68135937,39.6960142 9.95395582,40.0158426 10.196668,40.3002221 C9.84585274,40.156063 9.44020637,39.9740916 9.09588769,39.5389884 C9.24868722,39.5875666 9.33340261,39.6143503 9.46333419,39.6553135 C9.42383499,39.5263843 9.40408539,39.4617884 9.36068824,39.31973 L9.36068824,39.31973 Z M8.32487372,40.6793947 C8.31369961,40.650773 8.33760702,40.6077091 8.34670223,40.5649077 C9.24478928,40.7292859 9.66680703,41.4030788 10.0576412,42.1138962 C9.3469155,41.7987943 8.63748909,41.4834298 8.32487372,40.6793947 L8.32487372,40.6793947 Z M8.02577124,38.4398079 C8.34150496,38.8294839 8.50391943,39.2714143 8.52782684,39.7661244 C8.19728092,39.3877395 8.07878332,38.9237519 8.02577124,38.4398079 L8.02577124,38.4398079 Z M8.08346086,40.072561 C7.9301416,39.9916848 7.95638778,39.8275692 7.96574285,39.6671298 C8.03512631,39.7858182 8.10424991,39.9045066 8.17337351,40.023195 C8.14348924,40.0397379 8.11334512,40.0562807 8.08346086,40.072561 L8.08346086,40.072561 Z M7.75265507,39.302662 C7.72121162,39.2275627 7.68976818,39.152726 7.65832474,39.0778893 C7.68171242,39.0694865 7.70510011,39.0610838 7.72822793,39.0526811 C7.75369452,39.1296185 7.77916111,39.2065559 7.8046277,39.2834933 C7.78747673,39.2897953 7.7700659,39.2960973 7.75265507,39.302662 L7.75265507,39.302662 Z M7.08506663,36.69178 C6.78518455,36.6550181 6.68513724,36.5289773 6.61861227,36.3617107 C6.643819,36.3341393 6.66902573,36.3065679 6.69423245,36.2789965 C6.80259539,36.3934835 6.91095832,36.5079705 7.08506663,36.69178 L7.08506663,36.69178 Z M6.66590737,35.8087069 C6.57677431,35.7338702 6.4985555,35.603628 6.48400316,35.4896662 C6.45593794,35.266469 6.47568754,35.0367072 6.47568754,34.8066828 C6.89510667,34.984978 7.24410288,35.5899736 7.33037745,36.288187 C7.10273732,36.1269598 6.87223871,35.9825381 6.66590737,35.8087069 L6.66590737,35.8087069 Z M6.54896895,38.9725927 C6.40292586,38.6606418 6.29014525,38.3329358 6.15735518,38.0146829 C5.98272714,37.5955973 5.80290184,37.1786125 5.62515545,36.7608398 C6.3236676,37.2074968 6.86106459,37.7801945 7.12794405,38.5474677 C7.26073412,38.9290036 7.2841218,39.3496647 7.36545897,39.8002604 C6.93798409,39.6303679 6.71398205,39.3241939 6.54896895,38.9725927 L6.54896895,38.9725927 Z M5.52588773,34.7100515 C5.29434966,34.5039224 5.22054852,34.2452762 5.17793097,33.9622097 C5.57630118,34.0281185 5.62359627,34.1297388 5.52588773,34.7100515 L5.52588773,34.7100515 Z M5.04540076,33.2655718 C4.97211935,33.2293351 4.89909781,33.1928358 4.8258164,33.1565991 C4.845566,33.1295528 4.86505573,33.1027692 4.88480533,33.0757229 C4.9484718,33.1200998 5.01213828,33.1644766 5.07580475,33.2085909 C5.06567009,33.2277596 5.05553542,33.2466657 5.04540076,33.2655718 L5.04540076,33.2655718 Z M4.77670226,35.4744363 C4.74603841,35.4048513 4.72576908,35.3801683 4.72550922,35.3549601 C4.72317045,35.1320255 4.72420991,34.9093535 4.7863172,34.6856311 C4.79307364,34.7552161 4.80710625,34.8245386 4.80528721,34.893861 C4.80034981,35.0732065 4.78813624,35.252552 4.77670226,35.4744363 L4.77670226,35.4744363 Z M4.56621311,35.2194663 C4.14575453,34.646506 3.90226276,34.0084246 3.76297611,33.2710861 C4.17563879,33.5386602 4.5937586,34.5540761 4.56621311,35.2194663 L4.56621311,35.2194663 Z M3.60186096,28.1328242 C3.65227441,28.187967 3.69151374,28.2221031 3.72009869,28.2638541 C4.02829639,28.7128743 4.35494437,29.1506034 4.63429726,29.6169542 C4.8011294,29.8955568 4.84322723,30.226939 4.79151446,30.5872055 C3.77622913,29.1057014 3.51350749,28.5734417 3.60186096,28.1328242 L3.60186096,28.1328242 Z M4.2369665,32.3735708 C3.97788294,32.2149695 4.05532216,32.0511165 4.12470562,31.8885765 C4.15692865,32.0282716 4.18915168,32.1679668 4.2369665,32.3735708 L4.2369665,32.3735708 Z M4.19642785,30.3406383 C4.41263399,30.5748641 4.58544298,30.7618245 4.78735665,30.9805578 C4.72369018,31.2623114 4.6558659,31.5634963 4.57712736,31.9129969 C4.2982942,31.5493167 4.13639946,30.871585 4.19642785,30.3406383 L4.19642785,30.3406383 Z M3.67150428,31.9337411 C3.20868801,31.087955 3.3152319,30.1985799 3.51220817,29.2984387 C3.59744328,29.509557 3.74426596,29.7175243 3.75621967,29.9328439 C3.78792297,30.5060668 3.76349584,31.0824407 3.75569994,31.6575017 C3.75440063,31.7501942 3.72399664,31.8423615 3.67150428,31.9337411 L3.67150428,31.9337411 Z M3.33134342,32.6713421 C3.17412621,32.5103776 3.016909,32.349413 2.8596918,32.188711 C2.87892167,32.1687546 2.89789168,32.1490607 2.91686169,32.1293668 C3.08161493,32.2858675 3.24662803,32.4423681 3.41138127,32.5988687 C3.38487523,32.6230265 3.35810932,32.6471843 3.33134342,32.6713421 L3.33134342,32.6713421 Z M2.76666079,28.3276622 C2.81447561,28.1863915 2.86229043,28.0451208 2.91010525,27.9035876 C2.93427252,27.9151413 2.95869966,27.926695 2.98286693,27.9385114 C2.92907526,28.0750555 2.87554345,28.2118623 2.82175178,28.348669 C2.80330149,28.3415792 2.78511107,28.334752 2.76666079,28.3276622 L2.76666079,28.3276622 Z M2.73963502,30.9831836 C2.52576765,30.709045 2.36153414,30.4317553 2.66635361,30.0646615 C2.91530251,30.3921049 2.80174232,30.6885633 2.73963502,30.9831836 L2.73963502,30.9831836 Z M2.89945086,20.4913402 C3.35732973,21.0438189 3.06446396,22.1632184 2.63413058,22.8154794 C2.53928053,21.9762579 2.33892604,21.1877154 2.89945086,20.4913402 L2.89945086,20.4913402 Z M2.89529305,26.881607 C2.55799068,26.4798521 2.41818431,25.6125341 2.61282181,24.9904704 C2.77133833,25.1868839 2.9062073,25.3488988 3.03405997,25.5161654 C3.06680273,25.5589667 3.08733192,25.6167354 3.09720672,25.6708279 C3.14606099,25.941553 3.03795792,26.5733323 2.89529305,26.881607 L2.89529305,26.881607 Z M3.08967069,23.978468 C3.07148027,23.9490585 3.03276066,23.9128218 3.03977696,23.8923402 C3.05095108,23.8587293 3.09200946,23.8353592 3.1205944,23.8075252 C3.1304692,23.8311579 3.14060386,23.8547905 3.15541606,23.8899769 C3.13592633,23.9162354 3.11279851,23.9472204 3.08967069,23.978468 L3.08967069,23.978468 Z M3.26299941,20.7604897 C3.288466,20.8600094 3.31419245,20.9592665 3.33965904,21.0587862 C3.32406725,21.0635127 3.3082156,21.0679767 3.29262381,21.0727032 C3.2588416,20.982374 3.22531925,20.8920448 3.19153704,20.8017156 C3.21544445,20.7880611 3.239092,20.7741441 3.26299941,20.7604897 L3.26299941,20.7604897 Z M3.78480462,19.6936072 C3.67384305,19.5255528 3.62966631,19.4593814 3.56236176,19.3572359 C3.62576837,19.2682196 3.70372731,19.1584591 3.80403449,19.0171884 C3.86796082,19.1786781 3.91161783,19.2889638 3.95527484,19.399512 C4.11768931,18.8297027 4.3159649,18.3082091 4.79021515,17.8738936 C4.74551868,18.9150428 4.2912779,19.6904561 3.56677943,20.3765906 C3.46205458,20.278909 3.37344125,20.1956695 3.20556965,20.0389063 C3.41579894,19.9133907 3.60004192,19.8038928 3.78480462,19.6936072 L3.78480462,19.6936072 Z M3.5127279,17.5895141 C3.85029013,17.0934912 4.15121166,16.5717349 4.50384595,16.0021882 C4.57764709,16.2487555 4.52359555,16.4391295 4.49656979,16.6255648 C4.41731152,17.1725292 4.2665909,17.6963862 3.98256047,18.1748159 C3.76661419,18.538496 3.76765365,18.5390212 3.31289313,18.4597206 C3.23571378,18.1191479 3.33056383,17.8570882 3.5127279,17.5895141 L3.5127279,17.5895141 Z M3.46465321,15.7750522 C3.71957896,15.670806 3.92045318,15.5888795 4.14003754,15.4990755 C3.90668043,15.7965842 3.6748825,16.0917297 3.44334444,16.3868751 C3.41138127,16.3829364 3.3794181,16.3789976 3.34745493,16.3750588 C3.39007249,16.1576385 3.43243018,15.9402182 3.46465321,15.7750522 L3.46465321,15.7750522 Z M4.16576399,14.7399425 C4.19071086,14.7593737 4.21565772,14.7790676 4.24034472,14.7984989 C4.16966194,15.0453287 3.97112649,15.1965776 3.79805764,15.3669953 C3.77259105,15.350715 3.74712446,15.3344347 3.72165787,15.3184171 C3.86977987,15.1254171 4.01790186,14.9326798 4.16576399,14.7399425 L4.16576399,14.7399425 Z M5.54121965,14.7604241 C6.0994057,14.4684296 6.39746873,14.0254489 6.56793896,13.4062736 C6.63940133,13.5057933 6.69683108,13.5858817 6.80311511,13.7339796 C6.82754225,13.4380464 6.84599253,13.2140614 6.87171898,12.9015854 C7.10195774,13.311743 7.08818499,13.7686408 6.87561693,14.0719264 C6.76075742,14.2357794 6.64044078,14.4096106 6.48478275,14.528299 C5.92087972,14.9589383 5.46248112,15.4812197 5.08645914,16.1277038 C5.03344706,16.0484032 5.02175321,16.0378998 5.01863486,16.0250331 C4.85362175,15.31973 4.91235083,15.0897056 5.54121965,14.7604241 L5.54121965,14.7604241 Z M6.19763397,11.4452893 C6.2228407,11.5645029 6.24804742,11.683979 6.27325415,11.8031926 C6.23635358,11.8102824 6.19919315,11.8173722 6.16229258,11.8247246 C6.14462189,11.70236 6.12695119,11.580258 6.1092805,11.458156 C6.13864504,11.4536921 6.16800957,11.4494907 6.19763397,11.4452893 L6.19763397,11.4452893 Z M6.5528669,11.2564908 C6.58483007,11.2599044 6.61679323,11.2630554 6.64849654,11.266469 C6.62874694,11.4253329 6.60899734,11.5844593 6.58924774,11.7433232 C6.55936348,11.74096 6.52921935,11.7383341 6.49907523,11.7359709 C6.51700578,11.5763192 6.53493634,11.416405 6.5528669,11.2564908 L6.5528669,11.2564908 Z M8.98414654,8.20367838 C9.02026751,8.68683465 8.99973833,8.70889178 8.37216882,8.84701146 C8.53302411,8.56867143 8.67438966,8.31527697 8.98414654,8.20367838 L8.98414654,8.20367838 Z M9.77828833,8.03221042 C9.63198537,8.20709198 9.52544148,8.33444567 9.3786188,8.51011499 C9.42695335,8.07579952 9.42695335,8.07579952 9.77828833,8.03221042 L9.77828833,8.03221042 Z M11.0555157,7.61154936 C11.3055041,7.66091533 11.5256082,7.70450443 11.7457122,7.74783094 C11.7485707,7.78222956 11.7514292,7.81662819 11.7540279,7.85076423 C11.5279469,7.93767984 11.301866,8.02459546 10.9897703,8.14459677 C11.0191349,7.90721999 11.0339471,7.78616834 11.0555157,7.61154936 L11.0555157,7.61154936 Z M12.5484295,6.08986969 C12.3987483,6.87814965 12.3285853,6.94747207 11.4715566,7.10817405 C11.7654618,6.64129804 12.0598868,6.27656758 12.5484295,6.08986969 L12.5484295,6.08986969 Z M12.5424527,5.78710927 C12.1235533,6.10562479 11.7046539,6.42440289 11.2909517,6.73897964 C11.5328843,6.19726693 12.0416964,5.99507653 12.5424527,5.78710927 L12.5424527,5.78710927 Z M16.4827576,4.53510432 C15.7678741,4.85887154 15.107302,5.20574623 14.3139398,5.2167748 C14.6000491,4.4867887 15.610397,4.16722284 16.4827576,4.53510432 L16.4827576,4.53510432 Z M17.4169656,3.94166238 C17.1976411,4.20345956 17.1976411,4.20345956 16.9151699,3.94166238 L17.4169656,3.94166238 Z M22.0378522,3.33062725 C21.546451,3.60581626 20.268444,3.61842033 18.7867043,3.35425989 C19.286681,2.89211042 20.9360324,2.89604919 22.0378522,3.33062725 L22.0378522,3.33062725 Z M24.1084418,3.22375518 C24.3488152,3.37185308 24.6042607,3.49448025 24.8500912,3.62682305 C24.3989688,3.8192978 23.7651626,3.6835414 23.310402,3.29255243 C23.5593509,3.05491307 23.8186944,3.04546002 24.1084418,3.22375518 L24.1084418,3.22375518 Z M25.9001982,2.10383046 C25.6260426,2.53657042 25.2411853,2.28737732 24.8981659,2.36247661 C25.2404057,1.79503058 25.5849842,1.70890272 25.9001982,2.10383046 L25.9001982,2.10383046 Z M26.7663221,3.0998151 C26.3336499,3.275747 25.951911,3.15285725 25.5922604,2.90051313 C26.0098605,2.78865195 26.3812049,2.99084235 26.7663221,3.0998151 L26.7663221,3.0998151 Z M27.2756539,2.73088327 C27.3445176,2.76711999 27.4131215,2.8036193 27.4817253,2.83985602 C27.461456,2.86585192 27.4411867,2.89158525 27.4209174,2.91758116 C27.3634876,2.87057845 27.305798,2.82357575 27.2483682,2.77631046 C27.2574634,2.76134312 27.2665586,2.7461132 27.2756539,2.73088327 L27.2756539,2.73088327 Z M28.6032947,2.28685215 C28.4229497,2.44387794 28.2444237,2.63556494 27.9396042,2.3714045 C28.2064837,2.33753105 28.4047592,2.31206031 28.6032947,2.28685215 L28.6032947,2.28685215 Z M29.5988304,3.42437007 C29.3937984,3.36660139 29.1887664,3.30857012 28.9839942,3.25053885 C29.3488421,3.16441099 29.3488421,3.16441099 29.5988304,3.42437007 L29.5988304,3.42437007 Z M30.2484883,3.11740829 C30.0099339,3.03653213 29.8508977,2.98243963 29.6864043,2.92677163 C29.9363927,2.71434042 29.9363927,2.71434042 30.2484883,3.11740829 L30.2484883,3.11740829 Z M31.316266,4.1278351 C30.8097927,4.35996017 30.3859559,4.27540783 29.9613395,4.17720106 C30.3828376,4.12941061 30.7926417,3.84424337 31.316266,4.1278351 L31.316266,4.1278351 Z M31.5719713,4.68504032 C31.1850351,4.91427696 30.7957601,4.91165111 30.4025872,4.75278723 C30.7970594,4.78613552 31.1785385,4.57948118 31.5719713,4.68504032 L31.5719713,4.68504032 Z M33.7805483,4.34630576 C33.3164327,4.25466362 32.8783034,4.19531942 32.4570652,4.07453036 C32.2018796,4.00126916 31.9698218,3.83872909 31.7351654,3.70244751 C31.686571,3.67408834 31.6722785,3.58480946 31.6416147,3.52231425 C32.4500489,3.18541778 33.353853,3.53413057 33.7805483,4.34630576 L33.7805483,4.34630576 Z M34.3288595,5.28163328 C34.5455854,5.56443725 34.7659493,5.84540312 34.9668235,6.13949824 C35.1271591,6.37451176 35.2609886,6.6281688 35.406512,6.87342312 C34.7051413,6.51236884 34.3969436,5.80023851 33.9172363,5.22333942 C34.1009595,5.07629186 34.225434,5.14666462 34.3288595,5.28163328 L34.3288595,5.28163328 Z M35.4143079,5.08837077 C35.4509486,5.25878839 35.4849907,5.41844003 35.5192926,5.57835425 C35.492007,5.59463451 35.4647213,5.61117737 35.4374357,5.62745763 C35.2960701,5.46780599 35.1552243,5.30789177 34.9613664,5.08837077 L35.4143079,5.08837077 Z M35.6123236,7.07797678 C35.6835261,7.12497949 35.7544687,7.17198219 35.8256712,7.21898489 C35.8098196,7.24524338 35.7939679,7.27176446 35.7781163,7.29828554 C35.710292,7.24393046 35.6424677,7.18983796 35.5746434,7.13548288 C35.5873767,7.11631418 35.5998502,7.09714548 35.6123236,7.07797678 L35.6123236,7.07797678 Z M37.82194,7.03806387 C37.6618643,6.97924485 37.4942525,6.93539317 37.3435319,6.85793061 C37.1286251,6.74738236 36.927491,6.61005044 36.7180413,6.48821103 C36.0956691,6.12663158 35.9322151,5.89818269 35.7438144,5.08968369 C36.882015,5.24539656 37.3448312,6.12952002 37.82194,7.03806387 L37.82194,7.03806387 Z M38.3380282,8.48070548 C38.2486353,8.52245648 38.1696369,8.58731496 38.08778,8.59099115 C37.9310825,8.59781836 37.3705577,8.26512325 37.117451,8.03221042 C37.8138842,8.09628114 38.0638726,8.18792328 38.3380282,8.48070548 L38.3380282,8.48070548 Z M38.887119,8.60280747 C38.9196019,8.68735982 38.9520848,8.77191217 38.9845677,8.85646451 C38.9697555,8.86828083 38.9552032,8.88009716 38.940391,8.89191348 C38.9076482,8.85357608 38.8652905,8.81970262 38.8450212,8.77558835 C38.8242321,8.72963599 38.824492,8.67396799 38.8156567,8.62250134 C38.8395641,8.61593672 38.8634715,8.60937209 38.887119,8.60280747 L38.887119,8.60280747 Z M39.6578731,7.9715533 C39.9491797,8.1753192 40.2358088,8.38670007 40.5162011,8.6056959 C40.6718591,8.72727273 40.8101063,8.85383866 40.7911363,9.10040591 C40.7789228,9.25874463 40.8618191,9.4246983 40.9187291,9.65419753 C40.6050743,9.54286152 40.3623621,9.46513638 40.1274458,9.36824254 C40.0424706,9.33331875 39.9478804,9.26688476 39.9070819,9.18837186 C39.671386,8.73620061 39.4507622,8.27588923 39.2704172,7.76358603 C39.4003488,7.8321207 39.5385959,7.88778871 39.6578731,7.9715533 L39.6578731,7.9715533 Z M40.9925303,11.6385518 C40.9028775,11.4371492 40.8132247,11.2357466 40.7123978,11.0096609 C41.1320768,11.122835 41.1320768,11.122835 40.9925303,11.6385518 L40.9925303,11.6385518 Z M41.4818526,14.1940284 C41.2942314,13.8844407 41.3649142,13.5677633 41.2994287,13.2481975 C41.5366837,13.4916137 41.5735843,13.6861891 41.4818526,14.1940284 L41.4818526,14.1940284 Z M41.4124691,7.95422269 C41.4233834,7.95290977 41.4342976,7.95159684 41.4454717,7.9505465 C41.4540472,8.11912603 41.4626227,8.28796814 41.4711982,8.45654766 C41.4517085,8.45786059 41.4319589,8.45917351 41.4124691,8.46048644 L41.4124691,7.95422269 Z M42.0855147,14.0824298 L42.0855147,14.7570105 C41.8765847,14.6905765 41.8732065,14.6301819 42.0855147,14.0824298 L42.0855147,14.0824298 Z M42.1140996,12.6248208 C42.0862943,12.6363746 42.0582291,12.6479283 42.0304237,12.6594821 C41.9280376,12.4045121 41.8256515,12.1498047 41.7232655,11.8948347 C41.9943027,12.0794319 42.0631665,12.3483189 42.1140996,12.6248208 L42.1140996,12.6248208 Z M43.1465359,14.3807263 C43.5766094,14.5372269 43.6595058,14.6496132 43.5651755,15.0558321 C43.495792,15.3546538 43.5041076,15.6813094 43.3107694,15.9580739 C43.1002803,15.6589897 43.0376533,15.0111927 43.1465359,14.3807263 L43.1465359,14.3807263 Z M43.7959339,14.2100461 C43.379893,13.8025143 43.3557258,13.3267104 43.2463234,12.8472303 C43.5160613,13.0481077 43.7870986,13.7045701 43.7959339,14.2100461 L43.7959339,14.2100461 Z M43.8975404,15.1372334 C43.9058561,15.1359205 43.9141717,15.1346076 43.9227472,15.1332947 L43.9227472,15.7204346 L43.9227472,16.3348833 C43.886886,16.3333078 43.8510249,16.3317323 43.8151638,16.3301568 C43.8427093,15.9326032 43.8702548,15.534787 43.8975404,15.1372334 L43.8975404,15.1372334 Z M43.6984853,17.5745468 C43.7158961,17.3846979 43.7333069,17.194849 43.7507178,17.0050001 C43.976279,17.2218952 43.8502453,17.3994026 43.6984853,17.5745468 L43.6984853,17.5745468 Z M44.3057854,19.8453812 C44.1033521,19.5972385 43.8957214,19.3666889 43.7213532,19.1127693 C43.6763969,19.0473856 43.7361654,18.9082156 43.7517572,18.7674701 C44.0227945,19.0324183 44.1966429,19.3832318 44.3057854,19.8453812 L44.3057854,19.8453812 Z M44.7818547,15.6361448 C45.1030456,16.0250331 45.3678461,16.4273132 45.3842175,16.9769035 C45.3964311,17.3886366 45.5268824,17.7966936 45.6025026,18.2068513 C45.620693,18.3042703 45.6308277,18.4030022 45.6542153,18.5673804 C45.2932654,18.4064158 45.134489,18.1509207 44.9933833,17.8857099 C44.7062346,17.3458353 44.5542146,16.7623716 44.4796339,16.1568507 C44.4481905,15.9013556 44.4227239,15.6450727 44.3829648,15.2824429 C44.5620105,15.4389435 44.6885639,15.5234959 44.7818547,15.6361448 L44.7818547,15.6361448 Z M44.4791142,14.4342936 C44.4915876,14.5128065 44.5043209,14.5913194 44.5167943,14.6700949 C44.4866502,14.6748214 44.4562462,14.6795479 44.4258422,14.6842744 C44.4211647,14.604186 44.4162273,14.5240976 44.4112899,14.4440092 C44.433898,14.4405956 44.4565061,14.4374446 44.4791142,14.4342936 L44.4791142,14.4342936 Z M44.8086206,18.5791967 C44.8335675,18.5545137 44.8585144,18.5298307 44.8834612,18.5051478 C45.1360482,18.7564415 45.3886352,19.0074727 45.6409623,19.2585039 C45.6128971,19.2858128 45.5848319,19.312859 45.5565068,19.3401678 C45.2043922,19.1839298 44.9473876,18.9376251 44.8086206,18.5791967 L44.8086206,18.5791967 Z M46.0476481,20.1531308 C46.1198901,20.4178164 46.1141731,20.7405333 46.0325761,21.0044311 C45.8459943,21.608639 45.5947067,22.1923653 45.3670666,22.7831814 C45.337702,22.8601188 45.2937851,22.9312793 45.2566247,23.0050657 C45.4359303,22.2262388 45.8584678,21.4915262 45.6269297,20.5929605 C45.3309456,20.8542325 45.4473643,21.2591385 45.1674917,21.5167343 C45.1495611,21.4253548 45.1235748,21.354982 45.1240945,21.2848718 C45.1277326,20.7452598 45.0378199,20.223241 44.8655307,19.7122507 C44.8218737,19.5825337 44.8273308,19.4357487 44.8013445,19.2269937 C44.9398515,19.3073447 45.0217084,19.3480454 45.0962892,19.399512 C45.2613023,19.5137365 45.4257956,19.6290113 45.584572,19.7513758 C45.7495851,19.8787295 46.002432,19.98849 46.0476481,20.1531308 L46.0476481,20.1531308 Z M45.442167,27.6798652 C45.7012506,28.2712065 46.125867,28.7590893 45.5679408,29.3501679 C45.4936199,28.9071872 45.4146215,28.4765479 45.3540734,28.0432827 C45.3416,27.9540039 45.3972107,27.8552719 45.442167,27.6798652 L45.442167,27.6798652 Z M45.1685311,24.1242027 C45.5271423,24.6811453 45.533379,24.7042528 45.4463248,25.1088962 C45.2501281,24.8809724 45.1921787,24.6866596 45.1685311,24.1242027 L45.1685311,24.1242027 Z M45.2036126,27.5535619 C44.7145502,26.969573 44.5786418,26.4593705 44.6802482,25.5986171 C44.8813823,26.1279883 45.0705627,26.5904003 45.22752,27.0635784 C45.2706573,27.1935579 45.2163459,27.3563606 45.2036126,27.5535619 L45.2036126,27.5535619 Z M44.7621051,25.1527478 C44.6833666,24.9949343 44.7028563,24.8200527 44.9323155,24.6667031 C45.0773191,25.1398812 45.2090698,25.5686824 45.3405605,25.9977461 C45.3158735,26.0095625 45.2911865,26.0213788 45.2664995,26.0331951 C45.096549,25.7406755 44.9130856,25.4549831 44.7621051,25.1527478 L44.7621051,25.1527478 Z M46.4223708,20.6882789 C46.5863445,20.9955032 46.5736112,21.243646 46.5156617,21.4936268 C46.3077712,22.3921925 46.1235282,23.2981105 45.677603,24.1814462 C45.5630034,22.9278657 46.2043456,21.8940689 46.4223708,20.6882789 L46.4223708,20.6882789 Z M1.8935206,24.9355901 C1.8638962,24.9313887 1.83427181,24.92745 1.80464741,24.9235112 C1.83790989,24.6761562 1.87091251,24.4290638 1.90417499,24.1817088 C1.93275994,24.1856475 1.96134489,24.1895863 1.98992983,24.1932625 C1.95796667,24.4406175 1.92574363,24.6879725 1.8935206,24.9355901 L1.8935206,24.9355901 Z M46.9397583,26.8729417 C46.7607126,26.1684264 46.4883761,25.572096 46.0887065,25.0067506 C46.2901005,24.6577752 46.4972114,24.296721 46.706921,23.9369796 C46.9246863,23.5635838 47.1421917,23.1904507 47.3643747,22.8199433 C47.5722653,22.4738564 47.9168438,22.2154728 48,21.7793192 C47.4789744,22.2288646 47.0717688,22.7897461 46.5263161,23.3101894 C46.6315606,22.8454141 46.7084801,22.4507489 46.8111261,22.0631736 C47.0226547,21.2633399 46.8313954,20.5257388 46.5076059,19.8004792 C46.4210715,19.6066915 46.3324582,19.4021379 46.3059521,19.1946958 C46.1866749,18.2588431 45.9307097,17.3584394 45.6581133,16.4609241 C45.6219923,16.3422357 45.601723,16.2185582 45.5702795,16.0809637 C45.8797766,16.0431515 46.0512862,16.3858248 46.4158742,16.278165 C46.2253945,16.0468276 46.0876671,15.825206 45.8990064,15.6637162 C45.6503174,15.4507599 45.3665468,15.2769286 45.0879735,15.1023097 C44.9450488,15.0127682 44.853577,14.9229641 44.8359063,14.7373166 C44.7420957,13.7473714 44.6352919,12.7584766 44.5279684,11.7695817 C44.5201725,11.697896 44.471838,11.6306743 44.4422136,11.5613519 C44.3289133,12.1878795 44.3203378,12.8117813 44.1444104,13.4112627 C43.8021707,12.8847799 43.4755227,12.3819298 43.1579699,11.8935218 C43.687571,11.8998238 43.7644905,11.88013 44.0035646,11.6325124 C43.5106042,11.4670839 43.0467485,11.2990295 42.5753567,11.1569711 C42.1816641,11.0385453 41.8612528,10.6903577 41.82851,10.2799374 C41.8204543,10.1804177 41.8568351,10.0772219 41.8745058,9.96562326 C42.1231948,10.0664559 42.2393537,10.3742054 42.5647023,10.2342476 C42.5340385,10.1565225 42.5189664,10.0869375 42.4828454,10.0312695 C42.2871685,9.72929682 42.0758998,9.43730238 41.8916568,9.12823992 C41.807721,8.98723181 41.7258641,8.81576385 41.7261239,8.65795031 C41.7269035,7.81190166 41.5426606,6.99473736 41.3797264,6.17389687 C41.3630951,6.08986969 41.3002082,6.01529557 41.2149731,5.8527555 C41.0226744,6.3057145 41.2331636,6.67359599 41.1731352,7.03438768 C41.1110279,7.40857121 41.1102483,7.79299555 41.0808837,8.19737634 C40.3556057,7.86940776 39.7121845,7.45478616 38.9588413,7.3059005 C38.7938282,7.27333997 38.6813074,7.0480421 38.4627625,7.16568015 C38.4396347,7.17828423 38.3471234,7.09399446 38.3097031,7.03885163 C37.994749,6.57538923 37.6839526,6.10930098 37.3757549,5.64137463 C37.333917,5.57782908 37.3131279,5.50010394 37.2814246,5.42658016 C37.6293814,5.30080198 38.0173571,5.45520192 38.3263343,5.16767142 C38.0215149,4.90587424 37.683173,4.87593956 37.3419727,4.85572052 C37.058462,4.83891509 36.7960003,4.79926476 36.5236637,4.66324577 C36.2565244,4.52985262 35.9142846,4.42035471 35.6079059,4.66061992 C35.431199,4.48022407 35.5018818,4.15461876 35.2116146,3.97527325 C35.2253874,4.21212486 35.2365615,4.40092342 35.246956,4.57921859 C35.0019051,4.67427434 34.931742,4.52486351 34.8792497,4.36915065 C34.6900693,3.80984475 34.5107637,3.24686266 34.3189847,2.68834451 C34.2714297,2.54969967 34.293778,2.36510246 34.0612005,2.27135964 C34.0479474,2.41578135 34.0232604,2.53762076 34.0281978,2.65814724 C34.0409311,2.97561242 34.0689963,3.29228985 34.0856276,3.60949245 C34.0903051,3.69877132 34.0765324,3.78883795 34.0700358,3.90279981 C33.9798633,3.85290868 33.9271111,3.83006379 33.881635,3.7967155 C33.8239454,3.75470191 33.7683347,3.70822438 33.7181811,3.6572829 C33.1651923,3.09718925 32.5157943,2.91469272 31.7601123,3.1415661 C31.7465994,3.14576746 31.732047,3.1468178 31.7182743,3.1502314 C31.2344091,3.27075789 30.6624503,3.04703553 30.3867355,2.64554317 C31.0938231,2.09411482 31.7990917,1.54399939 32.5069589,0.992045865 C32.3603961,0.8607534 32.2369611,0.968675806 32.1026119,1.04797645 C31.4864764,1.41244434 30.8664429,1.76955984 30.2508271,2.13455289 C30.0832153,2.23381 29.9361328,2.27188481 29.7342191,2.19074607 C29.2563308,1.99827132 28.7545351,2.02584273 28.257157,2.11958555 C28.0913643,2.15083316 27.92869,2.20098688 27.7647163,2.24221272 C27.4908205,2.00877471 27.1839222,1.86907953 26.9102863,1.68001838 C26.5838982,1.45445793 26.2406189,1.3486362 25.8583602,1.43240079 C25.646052,1.47887832 25.4997491,1.41717087 25.3438312,1.23467434 C25.5956386,0.853926192 25.8513439,0.46766376 26.1608409,0 C26.01064,0.0430639285 25.9487926,0.0420135888 25.9165696,0.0727360256 C25.5228769,0.44744472 25.1089149,0.80482281 24.7513432,1.21235462 C24.4852433,1.51564021 24.2375938,1.8260156 23.9070478,2.06549306 C23.7482715,2.18050526 23.6149617,2.22225626 23.4387744,2.12903861 C22.8106852,1.79608092 22.1290642,1.74697754 21.4386078,1.76457073 C21.1997935,1.77061018 21.0043764,1.69209729 20.7957063,1.5786606 C20.1301968,1.21629339 19.4503948,0.88044727 18.7718921,0.54276305 C18.7004297,0.507314084 18.6016817,0.527270539 18.4488822,0.516767142 C18.6832788,0.915896235 19.0865864,0.948194182 19.3373543,1.1952866 C19.590461,1.44474228 19.8874846,1.64877077 20.1842483,1.88798565 C19.9706408,1.98908084 19.7708061,2.06365496 19.5925399,2.17367805 C19.4090766,2.28685215 19.2466621,2.43442488 19.0535838,2.58357312 C19.0470872,2.19757328 19.3490482,1.90426591 19.2287315,1.44684296 C19.0333144,1.66531362 18.8883108,1.8034333 18.7711125,1.96255977 C18.2661984,2.64685609 17.5702849,3.06068994 16.8169416,3.39732382 C16.4918528,3.54253329 16.159228,3.61474414 15.7793081,3.53150472 C15.9544558,3.18673071 16.2400454,2.93202333 16.2400454,2.50584799 C16.092703,2.54602348 15.9825211,2.57595816 15.8489514,2.61245747 C15.9211933,2.39083579 15.9809619,2.20781409 16.0513848,1.99223186 C15.7878836,2.00352301 15.7242171,2.1815556 15.6439194,2.31862493 C15.4552587,2.64186698 15.2873871,2.97745052 15.101585,3.30253066 C15.0386981,3.41281633 14.9547623,3.51338636 14.8682279,3.60712918 C14.6548802,3.83794133 14.4363353,4.06402696 14.2164911,4.28827449 C14.0920166,4.41536559 13.9605259,4.53536691 13.8324133,4.65825665 C14.0015843,3.86367466 14.2112938,3.10953074 14.1876463,2.30129432 C13.909073,2.35775008 13.794993,2.52212825 13.7326259,2.74059891 C13.6453119,3.04598519 13.5624155,3.35268438 13.4631478,3.6538693 C13.3428312,4.01833718 13.2071826,4.37781595 13.0632184,4.7811464 C12.5073711,4.60180089 12.0001183,4.43821048 11.4928654,4.27488266 C11.476494,4.30770577 11.4601226,4.34052889 11.4434914,4.37308942 C11.7810536,4.78245933 12.3343023,4.91322662 12.7638561,5.30053939 C12.3524927,5.43366995 11.9969999,5.54868215 11.6220174,5.67025897 C11.6087644,5.36776114 11.7641625,5.08863335 11.6087644,4.75803893 C11.5162531,4.87016269 11.4382941,4.93292049 11.4016534,5.01484699 C11.3078428,5.22491493 11.2228676,5.44023458 11.1511454,5.65896782 C10.9559881,6.25451044 10.6761155,6.80331295 10.2925575,7.2972352 C10.1194886,7.52043239 9.91341716,7.67220648 9.63874181,7.63728268 C9.60443988,7.09373188 9.56494068,6.57959059 9.54233258,6.06439895 C9.52804011,5.73538004 9.53999382,5.40531078 9.53739518,5.07550411 C9.53687546,5.02771365 9.52076394,4.98018578 9.50621161,4.90298581 C9.4399465,4.95655314 9.38407593,4.97913544 9.38121743,5.00749461 C9.28376875,5.93652009 9.19151733,6.86607074 9.1000455,7.78196698 C8.60292729,8.06687163 8.27472014,8.45234631 8.03876439,8.9334019 C7.9766571,9.05996783 7.83243305,9.17524262 7.69964298,9.23012287 C7.35740321,9.37165615 6.99983152,9.47485202 6.65005572,9.59800435 C6.61939186,9.60877034 6.59990213,9.65262202 6.5627417,9.69516078 C6.67552231,9.73901246 6.77089208,9.77603694 6.88211351,9.81936345 C6.62978639,10.0443987 6.40396531,10.2371361 6.18801903,10.4406394 C5.97129317,10.6449305 6.02066716,11.0304051 5.67972671,11.2002976 C5.57136378,10.9379753 5.47547427,10.6840556 5.3624338,10.4380135 C5.25407087,10.2022123 5.2418573,9.91967089 5.012658,9.65446011 C4.99108936,9.80597162 4.96276428,9.88606002 4.97185949,9.96168448 C5.03708514,10.5044475 5.04176268,11.057714 5.24731443,11.5773696 C5.31072104,11.7372838 5.3455427,11.9090143 5.39101875,12.0757558 C5.46430016,12.343855 5.40583095,12.5410562 5.14336917,12.6888916 C4.84452654,12.8569459 4.56725256,13.0651758 4.28530104,13.2626396 C4.21149991,13.3146315 4.15510961,13.3918314 4.03713173,13.5120953 C4.24632157,13.5299511 4.37755246,13.5412422 4.50722417,13.5522708 C4.21799649,13.9482489 3.91473619,14.3305725 3.64759687,14.7373166 C3.21960226,15.389315 2.92439772,16.0854276 3.09252918,16.8986532 C3.09980535,16.9341021 3.0839537,16.9742776 3.07251972,17.05883 C2.94128883,16.8771212 2.84669864,16.7169444 2.72326364,16.584339 C2.60814427,16.4603989 2.57929946,16.2230221 2.29370986,16.2406153 C2.31371932,16.3800479 2.32437371,16.5047758 2.35087975,16.62609 C2.41246732,16.9078436 2.47795283,17.1890721 2.54837574,17.4689876 C2.64270607,17.8429086 2.53876081,18.1496078 2.25395079,18.3995886 C2.15676198,18.4849287 2.05411603,18.5650171 1.96628229,18.6590225 C1.90729335,18.7223055 1.87013292,18.8063327 1.82309769,18.8811694 C1.83998879,18.9006007 1.8568799,18.9202945 1.873771,18.9399884 C2.06814864,18.8478211 2.26226641,18.7556538 2.4823705,18.6514076 C2.55019479,19.4388998 2.19756049,20.0488846 1.85428127,20.7421088 C1.67861378,20.4280572 1.54296521,20.1615335 1.38470855,19.9097145 C1.22463285,19.6547446 1.1277039,19.3451569 0.809891265,19.1981094 C0.827561959,19.3840195 0.866281569,19.5610018 0.939303114,19.7224915 C1.09963868,20.0769811 1.26958918,20.4277946 1.44993421,20.772306 C1.73318504,21.313231 1.69264639,21.8998457 1.70901777,22.4930251 C1.20774175,21.8827777 0.713222173,21.2811956 0.048492233,20.8345387 C-0.0640285113,21.1260079 0.0354990754,21.3179575 0.181282303,21.5122704 C0.621230617,22.0994103 1.04558714,22.6986291 1.48787423,23.2839309 C1.64015403,23.485071 1.67627501,23.6859484 1.62923978,23.9296272 C1.57466852,24.2121686 1.55465906,24.5015372 1.51438027,24.786967 C1.50398574,24.8612786 1.47410148,24.9324391 1.44707571,25.0259193 C1.13913788,24.825567 0.977243134,24.4831563 0.581211692,24.3915141 C0.597063344,24.4996991 0.590566766,24.5745358 0.619671438,24.6302038 C0.699969152,24.7827657 0.796638244,24.9266622 0.884471989,25.0750227 C1.1425161,25.5096008 1.59129976,25.8488605 1.54972166,26.4349501 C1.54790261,26.4601582 1.6058521,26.4869419 1.63105882,26.5174017 C1.69004776,26.58935 1.76722711,26.6552588 1.79919028,26.7384982 C1.94419392,27.1153076 2.08997715,27.4929047 2.20691556,27.8789046 C2.26850313,28.0818827 2.32463357,28.3121697 2.29111122,28.5143601 C2.18274829,29.1684592 2.0416426,29.8175691 1.89300088,30.4637906 C1.82309769,30.767864 1.70719872,31.0611713 1.58688209,31.4395562 C1.756053,31.3423998 1.85272209,31.2867318 1.95380885,31.2287005 C2.08789824,31.6286174 2.20925433,31.9972866 2.33528796,32.3641178 C2.45872296,32.7230714 2.33554782,33.1316535 2.61671975,33.4861432 C2.67752773,33.2193569 2.73833571,32.9525706 2.79888382,32.6873598 C3.22090158,32.7908183 3.22687843,32.7908183 3.23389474,33.1776059 C3.24662803,33.8703049 3.24948652,34.5632666 3.2609205,35.2562282 C3.26299941,35.3728159 3.2045302,35.5190757 3.40462483,35.6002144 C3.49583679,35.451854 3.58704876,35.3042812 3.70190827,35.1178459 C3.95189662,35.479688 4.15277084,35.8326021 4.4139333,36.1314238 C4.69484537,36.4528277 4.60285381,36.8952833 4.89312095,37.2334927 C4.92456439,37.0554601 4.95600784,36.8774275 4.99550704,36.6518671 C5.52614759,37.2182628 5.50483881,37.9676802 5.80524061,38.5739888 C6.11785598,39.2052429 6.23089645,39.8921651 6.37044297,40.5743608 C6.40838299,40.5725227 6.44606314,40.5706846 6.48400316,40.5688465 C6.52064387,40.3461745 6.55728457,40.123765 6.59496473,39.8942658 C6.81792731,40.0119039 6.99723289,40.1466099 7.19784724,40.2022779 C7.44315805,40.27055 7.59621745,40.3874003 7.66716009,40.6365934 C7.85218265,41.2867537 8.28849288,41.7242202 8.85993195,42.0435235 C8.9724527,42.1062813 9.07847686,42.1808554 9.18632007,42.2520159 C9.44254513,42.4211206 9.70994432,42.5377083 10.029576,42.5161763 C10.1314423,42.5093491 10.2717684,42.5471613 10.3364744,42.6183219 C10.5768478,42.8830075 10.8377504,43.1448046 11.0090002,43.4541297 C11.3572168,44.0830206 11.9128042,44.532566 12.3236479,45.1039508 C12.3465158,45.1357236 12.4036857,45.1420256 12.4972365,45.1832515 C12.3800382,44.8006652 12.1232934,44.5483211 12.0658636,44.2174641 C12.0897711,44.1938314 12.1136785,44.1701988 12.1375859,44.1465662 C12.7817866,44.5254762 13.4259874,44.9043863 14.0701881,45.2832963 C14.0901976,45.2596637 14.1104669,45.2357684 14.1304764,45.2121358 C13.9519504,45.0293767 13.7734244,44.846355 13.5356496,44.6029388 C13.9137505,44.7024585 14.2326026,44.6410136 14.499482,44.8791781 C14.9526834,45.2838215 15.3778195,45.6976553 15.614295,46.282432 C15.7335722,46.5773149 15.9214532,46.8438386 16.1108934,47.180735 C16.2195162,46.9362684 16.1464947,46.7947352 16.0901044,46.6542522 C16.0308556,46.5061543 15.9645905,46.3606823 15.8803948,46.1655817 C16.5830648,46.4097857 16.9635044,46.9002943 17.2943102,47.4708914 C17.3597958,47.5840655 17.3774664,47.7439797 17.5793801,47.7794287 C17.63655,47.3810873 17.3369278,47.1053731 17.2678042,46.7154345 C18.0894915,46.9940371 18.8737585,46.9822208 19.6616635,46.7411678 C19.78224,46.7041434 19.9482926,46.7395923 20.069129,46.7952603 C20.5885954,47.0336875 21.0976673,47.295222 21.6129759,47.5428396 C21.9409232,47.700128 22.2735481,47.8479633 22.6038341,48 C22.624883,47.9732163 22.645932,47.9461701 22.666721,47.9191238 C22.5593975,47.7899321 22.4518142,47.6604777 22.3187643,47.5005635 C23.0242927,47.4535608 23.5842978,47.1405595 24.134688,46.8028753 C24.4483428,46.610138 24.7388698,46.6390223 25.0187424,46.8995066 C25.2809443,47.1437105 25.532232,47.3999934 25.7939142,47.64446 C25.8458868,47.6930382 25.9241056,47.7127321 26.0784643,47.7896695 C26.0150577,47.529973 25.9734796,47.3600805 25.936579,47.2096194 C26.3539193,47.285769 26.7676214,47.3879145 27.1870405,47.4309785 C27.744447,47.488222 28.2340292,47.3241064 28.5882226,46.8511909 C28.7342657,46.6558277 28.8914829,46.4683421 29.0294703,46.2674646 C29.1276985,46.1243558 29.2459363,46.0332389 29.4187453,46.0484688 C29.531266,46.0581844 29.6435269,46.0865436 29.7518898,46.1198919 C30.5486302,46.3648836 31.3084701,46.2700905 32.0238734,45.8504798 C32.1660185,45.7672403 32.284776,45.7696036 32.4258816,45.8087288 C32.459404,45.8179192 32.5025413,45.7903478 32.5610105,45.7743301 C32.5189127,45.6737601 32.4825318,45.5860567 32.4477102,45.5028173 C32.6296144,45.0818937 32.801124,45.0981739 33.1693501,45.1625072 C33.4333711,45.2084596 33.708826,45.2457467 33.972847,45.2194882 C34.3480894,45.1822011 34.6175675,44.9574284 34.7425616,44.6551932 C34.3348364,44.7077102 33.944262,44.8833795 33.480926,44.7709931 C33.7122042,44.5099837 33.9185356,44.3188219 34.2493414,44.3154083 C34.4632087,44.3133076 34.6768163,44.28206 34.8904238,44.2623661 C35.4475704,44.2106369 35.9132451,44.0071336 36.186881,43.4753991 C36.323569,43.2096631 36.4696121,42.9486537 36.6130566,42.6829178 C36.6767231,42.6763531 36.7331134,42.6647994 36.7889839,42.6661123 C37.8385712,42.6900075 38.6586993,42.2724975 39.1677712,41.3355945 C39.4562193,40.8046478 39.8013176,40.3582534 40.349369,40.0880535 C40.4153742,40.0557555 40.4478571,39.9538726 40.4959318,39.8842876 C40.4795604,39.8640685 40.463189,39.8438495 40.4465578,39.8236305 C40.2815447,39.8680073 40.1162717,39.9126467 39.9509988,39.9570236 C39.9317689,39.9344413 39.912539,39.911859 39.893569,39.8895393 C39.9827021,39.7535203 40.0619603,39.608836 40.1638267,39.4833204 C40.3088303,39.3052878 40.4873563,39.1532511 40.6206661,38.967341 C40.8007513,38.7165724 41.0281315,38.5369643 41.2791593,38.3633957 C41.9815694,37.8768258 42.6372042,37.3443035 42.838858,36.4339216 C42.8669232,36.3065679 42.9778847,36.1886673 43.0724749,36.0873095 C43.617408,35.5035832 44.2431584,35.0309303 44.9689562,34.6971849 C45.0596484,34.6554339 45.1381271,34.5871618 45.2223228,34.5309686 C44.9518052,34.5714067 44.7272835,34.6893073 44.4934066,34.7835753 C44.242119,34.8849331 43.9830354,34.9668596 43.725511,35.0524623 C43.4937131,35.1296623 43.2897205,35.3092703 43.0069894,35.277235 C43.0353145,35.0227902 43.203446,34.9059399 43.3622223,34.7862012 C43.8897445,34.3891727 44.4201252,33.9960831 44.9489467,33.6008928 C45.2867688,33.3485487 45.5733979,33.0505148 45.7592001,32.6637272 C46.027119,32.1054716 46.3025739,31.5506297 46.5603581,30.9876476 C46.7700677,30.5291743 46.9615868,30.0617731 47.1536257,29.5951597 C47.1915657,29.5029924 47.194944,29.3963829 47.2141738,29.296338 C47.1842896,29.2808455 47.1541454,29.2650904 47.1240013,29.2495979 C46.9906915,29.3853543 46.8573817,29.5211107 46.6801551,29.7015066 C46.6198668,29.4670182 46.5907621,29.2677163 46.5167011,29.0870578 C46.4135355,28.8344511 46.4655081,28.6343614 46.589203,28.3967221 C46.8880456,27.8232366 47.147389,27.2284817 47.4147882,26.638716 C47.4488303,26.5633541 47.436097,26.4661977 47.4451922,26.379282 C47.4155678,26.3651025 47.3856835,26.3509229 47.3560591,26.3364807 C47.2263874,26.5037473 47.0964558,26.6710139 46.9397583,26.8729417 L46.9397583,26.8729417 Z" id="59"></path>
            </g>
        </g>
    </g>
</svg>