<?xml version="1.0" encoding="UTF-8"?>
<svg width="50px" height="40px" viewBox="0 0 50 40" version="1.1" xmlns="http://www.w3.org/2000/svg" xmlns:xlink="http://www.w3.org/1999/xlink">
    <title>边框-16</title>
    <g id="V1.4" stroke="none" stroke-width="1" fill="none" fill-rule="evenodd">
        <g id="形状汇集备份" transform="translate(-471.000000, -849.000000)" fill="#3D4242">
            <g id="边框-16" transform="translate(471.000000, 849.000000)">
                <path d="M32.1393823,0 C32.1972843,0.032719355 32.2566101,0.0635555817 32.3133255,0.0983934561 C32.4832345,0.203613253 32.6405665,0.340375449 32.8240018,0.41052198 C33.3987499,0.630612605 33.9853631,0.820337786 34.5629589,1.03383746 C34.7456823,1.10150454 34.9023593,1.1021197 35.0555634,0.992430678 L35.0883479,0.967221797 C35.126791,0.935444006 35.168675,0.907785559 35.2115972,0.881451186 L35.3410757,0.803625022 L35.511061,0.696597954 C36.1210672,0.308920798 35.9409415,0.394279998 36.7378418,0.515741776 C36.9514146,0.548461131 37.1502746,0.676513859 37.3572029,0.761254634 L37.5017204,0.511740128 L37.5845392,0.517860295 C37.610168,0.668275172 37.6469499,0.817983876 37.6588151,0.969575708 L37.6683542,1.08153632 C37.6983671,1.39799262 37.7605557,1.70468955 38.028296,1.91867239 C38.2100702,2.06390867 38.4274398,2.16748073 38.6365039,2.27528983 C38.6652175,2.29035485 38.7371204,2.22373919 38.774377,2.20302477 L38.9288909,2.4795504 C38.9797035,2.57076443 39.0291218,2.66168422 39.07504,2.7543106 C39.1675882,2.94026952 39.2463728,3.13305479 39.3479385,3.36114871 C39.6554834,3.05160949 39.8213582,2.65638792 40.184432,2.47066439 L40.2492157,2.52080268 L40.2217775,2.5999235 C40.2125524,2.62625787 40.2023484,2.65203319 40.1884661,2.67568999 L39.5935473,3.67445419 C39.5622232,3.72718178 39.5240174,3.7872065 39.5228309,3.84464191 L39.5198277,4.07715402 C39.5176425,4.35044786 39.5195087,4.63432655 39.5195087,4.96533867 L39.6210328,4.73857177 C39.7624355,4.42503936 39.9079852,4.15031399 40.2418593,3.99081975 C40.2247735,4.0736774 40.223587,4.13864532 40.1981955,4.19254987 C40.1179871,4.36203142 40.0178452,4.52256812 39.9457051,4.69510975 C39.8837689,4.84387689 39.7810167,5.02136174 39.815663,5.15577002 L39.8635891,5.33945368 C39.9532945,5.67680183 40.0581867,6.01442223 40.2617928,6.30283058 C40.3728506,6.46054258 40.5603201,6.5650562 40.7501626,6.72512211 L40.8002335,6.38945448 L40.8581948,6.40563762 C40.8753993,6.41052198 40.890646,6.41570058 40.9044096,6.42358618 C40.9248176,6.43488495 40.9485479,6.45865945 40.9516329,6.47960925 C41.0176031,6.94521273 41.4274256,7.15353381 41.6958154,7.48967222 L42.4245732,6.65897723 L42.5126127,6.69099041 C42.5059682,6.80633202 42.5149857,6.92473371 42.4903062,7.03607368 C42.373553,7.56005414 42.2465959,8.08168069 42.1248594,8.6044842 C42.1036801,8.69575708 42.0901093,8.78888366 42.0702315,8.88028894 L42.0477359,8.97098805 C41.9956874,9.15267855 42.0513387,9.27900508 42.1830482,9.3993441 L42.2124242,9.42505738 C42.3543315,9.54463603 42.4957641,9.687283 42.577871,9.84923204 C42.8310734,10.3484964 43.2826612,10.6088389 43.7375713,10.8781263 C44.0282675,11.0504325 44.3101836,11.2394515 44.5852179,11.4357677 C44.8892032,11.6523274 45.0182961,11.9774025 45.0954196,12.3269582 L45.1744415,12.7059377 C45.560059,12.4528924 45.811363,12.0958042 46.2779009,12.0160066 L45.7216625,12.9013123 L46.6388389,13.6456188 C46.1912853,13.683046 45.877096,13.3939858 45.4985975,13.2967693 L45.4040305,13.3831985 C45.1925338,13.5807877 45.207527,13.6197348 45.3374687,13.9572765 L45.3744425,13.985241 C45.3826133,13.9906644 45.3906246,13.99428 45.3982183,13.9935267 C45.6975999,13.9633378 45.8710519,14.1086247 45.9747285,14.3593564 L45.9905269,14.3998117 C46.0465304,14.5523451 46.1333833,14.6968752 46.1663685,14.8534102 C46.2358285,15.1790807 46.4139651,15.4040396 46.6995913,15.5512478 L46.7544055,15.5779439 C46.8419704,15.6181957 46.9193312,15.6801036 47.0332367,15.7518978 L47.1409723,14.7813806 L47.2301982,14.7601954 C47.2726755,14.8345789 47.3336624,14.9044901 47.355257,14.9847584 L47.5216855,15.6110817 L47.849322,16.8652975 C47.864984,16.9250868 47.8839683,16.9879362 47.9186145,17.0380745 C48.2169045,17.4721356 48.182021,17.9367975 48.0401137,18.4052257 L48.0259348,18.4484335 C47.9610555,18.6345254 47.863628,18.8034233 48.2069378,18.863532 C48.2860445,18.8773024 48.3363007,19.0575039 48.395516,19.179295 L48.4319187,19.2502098 C48.4470358,19.2814558 48.4633833,19.3180721 48.4874301,19.3689166 C48.5702488,19.2829989 48.6438128,19.2203849 48.7007655,19.1455305 C49.0042762,18.7470135 49.3006678,18.3430824 49.6063142,17.9462131 C49.7000489,17.8247514 49.8153782,17.7200024 49.955387,17.6324369 C49.9708117,17.976814 49.7123886,18.1867828 49.5861434,18.4567763 L49.5327986,18.5735598 L49.4280559,18.808642 C49.3573881,18.9649279 49.2827683,19.1188641 49.1905591,19.2615783 C49.0225485,19.5216854 48.8006701,19.7476608 48.6181841,19.9691638 C48.8661658,20.358736 49.1215039,20.736774 49.3523998,21.1291708 C49.5759394,21.509092 49.7740875,21.9038428 50,22.3228388 C49.7641486,22.3503103 49.6966724,22.2115974 49.6201079,22.105302 L49.6056023,22.0858 C49.3075496,21.6985818 49.0197009,21.3040664 48.7244958,20.9147296 C48.6504573,20.8168069 48.5655028,20.7271229 48.464649,20.6094274 L48.370054,20.7985053 C48.3506545,20.8371094 48.3318218,20.8738566 48.3125278,20.9095837 L48.2434561,21.0345959 C48.2152434,21.0844988 48.1837612,21.1313678 48.150697,21.1348202 C47.8277274,21.1663626 47.9221741,21.3358442 47.9862459,21.528394 C48.1457136,22.0062379 48.1912758,22.4817278 47.8877651,22.9313247 C47.8608075,22.9714353 47.844481,23.020133 47.8307668,23.0684993 L47.8208457,23.1045725 C47.6552081,23.7184723 47.4928928,24.3333137 47.3253568,24.9467428 C47.2987788,25.0453716 47.2517928,25.1383511 47.1948401,25.2838228 C46.95991,24.9502736 47.1305309,24.6101336 46.9781824,24.2914141 L46.6531068,24.4937033 C46.5471213,24.5600541 46.4435385,24.6264933 46.3424474,24.6965221 C46.2866811,24.7353616 46.2503738,24.8135114 46.2237958,24.8805979 C46.091618,25.2167363 45.9653727,25.5556994 45.8248893,25.9252633 L45.3339092,25.9892897 L45.2793767,26.106055 C45.1530989,26.3841044 45.1835909,26.4166291 45.4580187,26.7093509 C45.861434,26.6217854 46.1995909,26.3197787 46.7043346,26.2569293 C46.394654,26.6337904 46.0379875,26.8385806 45.6967456,27.1050433 L46.224745,27.9399753 C45.7783779,27.8917201 45.5531773,27.5584064 45.199121,27.3251339 C45.1447786,27.438357 45.0766726,27.5252163 45.0612479,27.6205496 C44.9833262,28.1022881 44.7378337,28.4544817 44.3266279,28.7062021 L44.2667572,28.7414818 C43.9074803,28.945095 43.5591193,29.1703643 43.2204878,29.4069323 C43.1010904,29.4902607 43.0069731,29.6109442 42.9115358,29.7268843 L42.8635839,29.7842641 C42.6129919,30.0777967 42.3773499,30.3849821 42.1148927,30.6679221 C41.9993261,30.7919732 42.0062078,30.9179074 42.0323112,31.0476078 C42.0758563,31.2615783 42.123139,31.4747837 42.1713708,31.6878126 L42.3161257,32.3269582 C42.3854182,32.640499 42.5109515,32.946272 42.4485408,33.3525569 C42.143369,33.0719708 41.8858952,32.8219855 41.6993749,32.4540693 C41.4518441,32.7512623 41.1276418,32.9333125 41.0531142,33.3055713 L41.037074,33.4077338 C41.0192252,33.4988572 40.9713607,33.5897213 40.8142344,33.5935974 L40.8412869,33.2023774 C40.6322229,33.3817454 40.4395328,33.5347496 40.2632166,33.7044665 C40.1977209,33.7677867 40.1630747,33.8668864 40.12653,33.9549226 C40.0368294,34.1705408 39.9760798,34.401224 39.8607505,34.6017772 L39.8257835,34.6657992 C39.7728957,34.7700033 39.7498904,34.8639636 39.8007129,34.981463 C39.8946849,35.1989643 39.9843855,35.4178779 40.0797813,35.6346731 L40.1133364,35.7080944 C40.1544497,35.7950471 40.2034426,35.8898631 40.2708103,36.0275408 C39.8111542,35.806744 39.6597548,35.4456541 39.4585218,35.0873889 L39.456307,35.2680646 C39.4565179,35.2980901 39.4574935,35.328037 39.4599456,35.3578532 C39.4670647,35.4447125 39.5135761,35.5351027 39.4983887,35.6158418 C39.4153768,36.0595612 39.5889171,36.4091124 39.7958174,36.7464764 L39.9566175,37.0030829 C40.0004058,37.073436 40.0431688,37.1441686 40.0828662,37.2160301 L40.1263806,37.2956882 C40.1543472,37.3496015 40.1786576,37.4063046 40.1898899,37.4728418 C39.7684396,37.3311364 39.6139553,36.9234391 39.3026137,36.6054258 L38.8168542,37.7903843 L38.6896598,37.651739 C38.5031395,37.7440122 38.3016692,37.8195728 38.1274887,37.9358559 C37.848183,38.1220503 37.7359386,38.402401 37.7152932,38.7350085 C37.7001058,38.9762844 37.743295,39.2335668 37.6013877,39.4668393 C37.3700172,39.3997528 37.4917537,39.2048491 37.4032397,39.0438416 C37.1776509,39.3718775 36.8557087,39.4590589 36.5201244,39.5081075 L36.1571611,39.5555817 C36.0442048,39.5720591 35.9058571,39.5386336 35.8038168,39.4833167 C35.5508517,39.3449067 35.3073787,39.1874301 35.0693637,39.0245395 C34.9006412,38.9089625 34.7378513,38.8724769 34.538754,38.9456835 C33.9611582,39.1575355 33.3733585,39.3446713 32.801458,39.5711175 C32.5622565,39.6655093 32.3527178,39.8340493 32.095244,39.9898782 C31.9317421,39.6989349 32.346548,39.5066204 32.2539997,39.210263 L32.0252396,39.2380392 C32.0155101,39.1949626 32.0200189,39.1278762 31.9886949,39.0911552 C31.7141352,38.7705526 30.9576129,38.6408521 30.5644017,38.8374036 C30.3880855,38.9254399 30.2414322,39.0932737 29.9936877,38.9383864 C29.9201238,38.8927205 29.7139074,39.0151239 29.591459,39.0949214 C29.1612285,39.3762137 28.6899445,39.367975 28.2160502,39.2935915 C27.9564011,39.2529865 27.7028493,39.1760921 27.4466059,39.1131741 L27.2480283,39.0675949 C27.1503014,39.0458934 27.0455445,39.0288926 26.9797071,39.1380531 L26.9652256,39.1655388 C26.9602422,39.1766021 26.9464787,39.1949626 26.9433937,39.1937857 C26.6225599,39.0631436 26.3975966,39.3434944 26.1171043,39.3785676 C26.0818055,39.3830989 26.0394209,39.3308605 25.9990122,39.2943914 L25.9875368,39.2846466 L25.5264569,39.9322074 L25.6529395,39.1544754 C25.3911942,39.0800918 25.32997,39.3128935 25.156976,39.4287059 L25.3313938,38.9487436 C25.1330084,38.81716 24.9460135,38.8138645 24.7400345,38.9449773 L24.9353349,39.4953216 C24.7433567,39.3526746 24.7037271,39.1041017 24.4324896,39.175896 L24.5269363,39.8396987 C24.5129354,39.8474666 24.4991718,39.8547637 24.4851709,39.8620608 L23.9396111,39.0090037 L23.8821838,39.0337198 L23.9041914,39.1312065 C23.9083926,39.1472567 23.9132705,39.1630279 23.9194403,39.1782499 L23.9336254,39.2094853 C23.954865,39.2522851 23.9866446,39.3034308 24.0437872,39.4077561 L23.8218404,39.3570082 C23.7755907,39.3462028 23.7370597,39.3358572 23.699935,39.3218384 C23.5411792,39.2615783 23.409476,39.1598894 23.2068191,39.206026 C23.0967105,39.2312129 22.9550406,39.0756194 22.8242865,39.0694992 C22.6838031,39.0631436 22.5338276,39.180133 22.3983275,39.1629494 C22.2205875,39.1408227 22.0895962,39.2185017 21.9355864,39.2552227 C21.4816256,39.3632672 21.0250545,39.4009298 20.5793992,39.1810746 C20.5498571,39.1664721 20.5206655,39.1500473 20.4915221,39.132943 L20.3818692,39.0678488 C20.2380778,38.9848888 20.0864458,38.9197286 19.8919322,39.0047667 C19.8410966,39.0267365 19.7437613,38.9815647 19.6760925,38.9360415 L19.652256,38.9190843 C19.1228328,38.5198611 18.6287678,38.7446596 18.1415845,39.0024128 C18.0853437,39.032072 18.0725293,39.1429412 18.027679,39.2432178 L17.9555085,39.200966 C17.937352,39.1913282 17.9179501,39.1829106 17.8976369,39.1784853 C17.7796973,39.1528276 17.6876237,39.1940211 17.7260668,39.327017 C17.7633234,39.4571883 17.8482779,39.573236 17.8909924,39.7022303 C17.9206553,39.7921497 17.9142482,39.8938386 17.8926536,40 C17.5945161,39.728964 17.2566837,39.5801128 16.902146,39.4586474 L16.8200436,39.4310598 C16.3667947,39.2815865 15.9175799,39.1179898 15.4707382,38.9508621 C15.2754377,38.8781263 15.1052914,38.8901312 14.9389419,39.0167716 C14.8494786,39.085035 14.7431669,39.132584 14.6567885,39.2039075 C13.9966113,39.7502501 13.3430786,39.5850056 12.670087,39.1907256 L12.5466894,39.4786088 C12.3788054,39.4006159 12.3880781,39.2674641 12.376748,39.1467111 L12.3739327,39.1210498 C12.3480667,38.9235568 12.3447444,38.7208851 12.2956227,38.5292768 C12.1767339,38.066498 11.7937267,37.8704172 11.3910233,37.7084682 C11.3599366,37.6959925 11.2963394,37.7635497 11.2469803,37.7943859 L10.6833855,36.6329665 C10.3758406,36.9086094 10.2303738,37.3278409 9.80061794,37.5239216 C9.80916085,37.2461602 10.0134788,37.1101042 10.1003317,36.9194374 C10.1933546,36.7155888 10.3008529,36.5136233 10.4323188,36.3323722 C10.5808705,36.1280527 10.4577102,35.9197317 10.4847628,35.715883 C10.513951,35.4972047 10.5329353,35.2775849 10.5260535,35.0459601 L10.4538227,35.1884126 C10.2965231,35.5070435 10.1474932,35.8320434 9.74366519,36.0148296 L9.84013617,35.7886415 C9.85120708,35.7632687 9.86204554,35.7390186 9.87323269,35.7149414 C9.96791662,35.5113282 10.0728046,35.3117166 10.1587083,35.1043371 C10.2476838,34.8898043 10.2869172,34.6786309 10.1292753,34.4755761 L10.0993825,34.4398282 C10.0284289,34.3605014 9.96839123,34.2357441 9.97171347,34.1335844 C9.98042389,33.8590908 9.82937759,33.7011556 9.63826847,33.5559642 L9.60199524,33.5288648 C9.48453021,33.4424763 9.38082876,33.3374919 9.22159838,33.197905 L9.24796822,33.3688578 C9.25169879,33.3942028 9.25452418,33.4161714 9.25648193,33.4382393 C9.26075339,33.4843759 9.25743115,33.5312187 9.25743115,33.5968928 C9.06782597,33.5895957 9.04172263,33.4544813 9.01965344,33.3438475 C8.98136854,33.1520234 8.88406109,33.0116257 8.73559079,32.8963643 L8.69383629,32.8655329 C8.55169173,32.7657271 8.42402267,32.6461484 8.29113293,32.5359854 L7.59559755,33.3480845 C7.49630994,33.1889602 7.51138343,33.0486671 7.53973071,32.9179253 L7.56190051,32.8215147 C7.68268779,32.2857647 7.80869573,31.7509563 7.94443311,31.2187371 L7.96324424,31.1379824 C8.01566745,30.8857707 7.99529673,30.6672684 7.76211159,30.4924833 L7.72350392,30.4652504 C7.62736651,30.4016065 7.54540053,30.2992151 7.4863496,30.1943456 L7.46247052,30.1493556 C7.20784429,29.6385571 6.74747628,29.366445 6.27880266,29.093156 C5.98715716,28.9232037 5.70500377,28.7341847 5.43257982,28.5345731 C5.17340034,28.3452304 5.04019544,28.0731331 4.96687538,27.7702613 L4.95299026,27.7092921 C4.9259377,27.5819455 4.89366448,27.4557759 4.85474677,27.2907668 C4.46367127,27.5132113 4.24203018,27.8959572 3.77525498,27.9371506 L4.30918695,27.0803272 L3.41218124,26.3543812 C3.85261579,26.2818808 4.16039791,26.6187254 4.54411702,26.6763962 L4.63196669,26.5922311 C4.83791583,26.3904135 4.82097063,26.3491241 4.66846384,25.9775202 C4.2135538,26.0587301 4.08778316,25.7209439 3.95963949,25.3855117 C3.94184176,25.3389043 3.91289078,25.2944153 3.90553438,25.2459248 C3.82722436,24.7297122 3.4703205,24.4606603 3.00947789,24.2565762 C2.95527158,24.3657267 2.94382227,24.4829441 2.94154507,24.6034614 L2.94092767,24.7748576 C2.93953506,24.9349423 2.92689641,25.0968392 2.82817832,25.2499264 C2.77264939,25.1717766 2.71403553,25.1218737 2.69718701,25.0604367 L2.52672428,24.4349416 L2.1910195,23.1824869 L2.16988195,23.0968917 C2.15581954,23.0394215 2.13968293,22.9827184 2.10867533,22.9362679 C1.80635118,22.4859648 1.85072686,22.0121226 2.00592309,21.5328665 L2.02036023,21.4910915 L2.04988972,21.410273 C2.09521926,21.2794868 2.10573642,21.1711791 1.85072686,21.1291708 C1.7622128,21.114812 1.70383624,20.9142588 1.63335722,20.798211 C1.60227052,20.7466604 1.57521796,20.6927558 1.53558835,20.6202554 C0.995011889,21.1609486 0.645464426,21.8327547 0.136449281,22.3706232 L0.0491217412,22.3244866 C0.0640718364,22.2519861 0.0633599271,22.1714824 0.0963450577,22.1079268 L0.379168585,21.563714 C0.521544748,21.292052 0.666347098,21.0216442 0.817983778,20.7551345 C0.915515351,20.5835344 1.05813451,20.4361796 1.18651549,20.2824693 C1.27336842,20.1784264 1.3711373,20.0828576 1.48314436,19.9628082 C0.739436453,19.3510269 0.562882948,18.4238216 0,17.6811628 C0.251541284,17.6053669 0.314901211,17.749897 0.38917708,17.8466427 C0.655668459,18.1945507 0.911718502,18.550462 1.17536224,18.9004884 C1.29330188,19.0570235 1.42002174,19.2069676 1.5552845,19.3759783 C1.60505426,19.3124771 1.64034081,19.2405129 1.67301348,19.1693651 L1.70065532,19.1087976 L1.7286779,19.0499285 C1.80059447,18.9059609 1.89165252,18.79009 2.11864206,18.7936209 C2.10036972,18.6836933 2.09847129,18.5984817 2.07165604,18.5224504 C1.88964457,18.0067086 1.83411564,17.5013241 2.16396695,17.0161831 C2.18432755,16.9862414 2.19708497,16.950622 2.2074162,16.9139519 L2.55506882,15.5868015 C2.61004404,15.3778615 2.66530929,15.1689912 2.72115462,14.9602778 C2.73918966,14.8927205 2.78617567,14.8324604 2.8421792,14.7260637 C3.05314166,15.0323074 2.94113459,15.3602071 3.0410392,15.668334 L3.25922654,15.5586037 C3.56169378,15.4049541 3.83762919,15.2343182 3.91122966,14.8341082 C3.94231636,14.6658036 4.06429016,14.5149179 4.10012292,14.3468487 C4.15778758,14.0737951 4.3125092,13.9749309 4.57733945,14.0031778 C4.61388413,14.006944 4.65185263,13.9958807 4.68721079,13.9921144 L4.73043667,13.913317 C4.88855895,13.6216897 4.86715955,13.5972369 4.5889673,13.2793503 C4.17012734,13.339375 3.83505536,13.6856353 3.35688962,13.6435003 L4.32152671,12.8690637 L3.79495114,12.0176543 C4.23324996,12.099335 4.48645237,12.4067557 4.83077916,12.6668628 C4.88369775,12.5517566 4.94729498,12.463485 4.96485541,12.36721 C5.0559798,11.8688872 5.31108063,11.4976755 5.75934618,11.2429824 C6.11838577,11.0388984 6.4655602,10.8124522 6.80585284,10.5784735 C6.89890956,10.5145816 6.9779218,10.428832 7.05335375,10.3404403 L7.45209183,9.86910657 C7.60577311,9.68571059 7.75701112,9.50038251 7.90124394,9.30971577 C7.9672142,9.22262108 8.00684382,9.07926793 7.98904609,8.97287118 C7.92046549,8.55481669 7.82625616,8.14076384 7.73750481,7.72624022 C7.68506082,7.4823751 7.62027708,7.24086389 7.57068073,6.99629259 C7.55145918,6.90213617 7.55905288,6.80256576 7.55145918,6.64202907 C7.91121067,6.88165715 8.1200374,7.18036839 8.327203,7.47649032 C8.72655022,7.24946126 8.90774916,6.86982195 9.07080839,6.47791472 L9.12193108,6.35391043 L9.19407122,6.38427588 L9.22064917,6.7543106 C9.39886379,6.60083564 9.57731572,6.46595657 9.73156274,6.3075384 C9.81177118,6.22515153 9.85685877,6.1051021 9.90431939,5.99611605 C9.98761278,5.80333078 10.0305646,5.58582946 10.1466059,5.41681869 C10.2614606,5.24898488 10.2842417,5.09880539 10.2118642,4.92814688 C10.0858563,4.630848 9.94893237,4.33825693 9.78780357,3.98022715 C10.2315604,4.18007415 10.3741795,4.53833932 10.5419528,4.89213205 C10.482627,4.37615489 10.6700965,3.83993409 10.3077347,3.36444418 C10.1140953,3.11045725 9.97788335,2.81339375 9.79492266,2.49985288 C10.0647223,2.50317605 10.164255,2.68769656 10.2842394,2.82773032 L10.3070227,2.85341023 C10.4418109,2.99935267 10.5531061,3.16671571 10.7144722,3.37597834 C10.8910257,2.9645148 11.1019881,2.61848997 11.2396239,2.15524039 L11.3200697,2.34190549 C11.5260488,2.24162891 11.7346382,2.17430707 11.9009877,2.05049138 C12.0979771,1.90382891 12.2691113,1.72484701 12.2921242,1.45545655 L12.2946735,1.40387218 C12.2979957,1.1800153 12.3286078,0.955687636 12.3587453,0.733007709 C12.3687121,0.657917966 12.4142743,0.587771435 12.5148908,0.516212558 L12.6273724,0.833519685 C12.861116,0.725239805 13.0846555,0.558818337 13.3290777,0.519272642 L13.4537556,0.498156654 C14.1510785,0.374920889 13.9676221,0.321843441 14.664945,0.764194175 L14.8254608,0.865198818 C15.2466467,1.12826118 15.280953,1.11839155 15.8231333,0.922026717 C16.2486177,0.768316366 16.6812213,0.632024951 17.0984001,0.459012535 C17.3822146,0.341081622 17.6449091,0.173012417 17.943911,0.0129465074 C18.085581,0.294944977 17.6880983,0.477137645 17.7804092,0.761960807 C17.8427013,0.831474725 17.9588037,0.724100549 18.0577384,0.858201895 L18.0772754,0.888365798 C18.2747116,1.23321368 19.0739484,1.34314129 19.4557691,1.14964986 C19.6536799,1.04937327 19.8257246,0.899429177 20.0822493,1.02418643 C20.1336847,1.04943212 20.2274343,1.00754723 20.3107388,0.961491496 L20.3886076,0.916377332 C20.9460325,0.584711352 21.5181703,0.573177191 22.1213948,0.784793739 C22.3515788,0.865532866 22.6054931,0.883893368 22.8503899,0.914494203 C22.9128006,0.922262108 22.9849407,0.872829989 23.048538,0.842229153 C23.0905406,0.821750132 23.1453576,0.755134467 23.1610196,0.764550109 C23.4033654,0.909904078 23.5658273,0.707917966 23.7578655,0.639928647 L23.8189855,0.621030454 L23.8831826,0.599455374 C23.9535743,0.578341163 24.0142569,0.577993759 24.0147405,0.705695739 L24.0141243,0.722650503 L24.4142173,0.207144118 L24.4740177,0.213499676 L24.3824187,0.835167422 C24.6565038,0.881774848 24.7182026,0.659801095 24.8781449,0.529629848 L24.7075239,1.03524981 C24.8987902,1.16706879 25.0815136,1.13081857 25.2965102,1.06043665 L25.094328,0.474077561 C25.2879673,0.594362385 25.2844078,0.903430824 25.5862573,0.768080975 L25.5283553,0.210439593 L25.5822232,0.185958924 L26.096459,0.978285176 L26.1704975,0.944388866 L26.0312006,0.615782969 C26.1244607,0.615782969 26.1966009,0.597657859 26.2535536,0.618843053 C26.2874321,0.631637249 26.3204017,0.647730177 26.3530451,0.664952436 L26.4505805,0.717837803 C26.5700199,0.781313372 26.6929133,0.830805764 26.8479979,0.759371506 C26.8657956,0.75136821 26.9144427,0.826928735 26.9566827,0.84834932 L27.0143328,0.878828 C27.0638275,0.904631799 27.1157436,0.927810611 27.1610007,0.921085153 C27.4417302,0.879185547 27.7253074,0.838698288 27.9974941,0.761019243 C28.5074584,0.615076796 29.0038965,0.576943447 29.4946393,0.824104043 L29.5626636,0.860364273 C29.7431338,0.960273402 29.9189373,1.07626016 30.1562404,0.97687283 C30.2131931,0.952862944 30.3233017,1.02159713 30.3937808,1.06914612 C30.8012302,1.3429059 31.2112899,1.35043842 31.6310791,1.1011593 C31.6847096,1.06914612 31.7554259,1.061849 31.8017,1.02371565 C31.8816712,0.958041547 31.948828,0.877067028 32.053004,0.770434885 L32.3406154,0.813511446 L32.0791074,0.0390749132 L32.1393823,0 Z M26.1780912,39.0605543 L26.1235115,39.0257165 L26.0015377,39.257812 L26.1780912,39.0605543 Z M35.676385,38.9160242 L35.4891529,38.838816 L35.4530828,38.8898958 L35.6597738,38.959807 L35.676385,38.9160242 Z M14.5371878,38.8374036 L14.3594477,38.9051963 L14.3810423,38.9565115 L14.5542736,38.8785971 L14.5371878,38.8374036 Z M23.3869322,38.7827929 L23.6033526,38.9226152 L23.5831956,38.8150472 C23.5566227,38.6954554 23.5294723,38.7094294 23.3869322,38.7827929 Z M28.9595208,38.8454069 L29.0862386,38.8669253 C29.4153445,38.9192548 29.4399287,38.8787351 29.5724747,38.5474019 C29.3187977,38.5116224 29.2027565,38.7187666 28.9595208,38.8454069 Z M20.99729,38.8310481 L20.5457022,38.5184488 L20.4932582,38.5862414 L20.5641361,38.7148206 C20.6777944,38.9112551 20.7203938,38.9005609 20.99729,38.8310481 Z M32.6168362,38.7677279 L33.0800518,38.823751 L33.0876455,38.6966398 C32.9466875,38.7168834 32.814747,38.5057377 32.6168362,38.7677279 Z M16.843062,38.7717295 C17.0867723,38.8536456 17.2479011,38.8324604 17.4218442,38.6966398 C17.2002031,38.5252751 17.0571094,38.6625081 16.843062,38.7717295 Z M12.7182595,38.2406873 C12.8518612,38.70276 13.007532,38.8263403 13.381759,38.7411287 L13.2727128,38.6136679 C13.1175424,38.4356003 12.9650547,38.2888837 12.7182595,38.2406873 Z M37.2347545,38.1961984 L36.620614,38.7380686 C37.0124015,38.8336374 37.2269235,38.643206 37.2347545,38.1961984 Z M31.5546675,38.4796093 C32.0653438,38.7008768 32.2703737,38.7053493 32.4322144,38.4930265 L32.2820611,38.4349155 C32.0453466,38.3462734 31.8116668,38.2888504 31.5546675,38.4796093 Z M17.6373154,38.5106809 L17.6690976,38.5440807 C17.8178312,38.694278 17.9088055,38.6811723 18.5077432,38.4876125 C18.1646029,38.2929442 17.9735739,38.3023598 17.6373154,38.5106809 Z M27.2025287,37.918437 C27.1662213,38.0460189 27.1624245,38.1825458 27.1417791,38.3355499 L28.0081727,38.6055435 L27.8826351,38.4166694 C27.7426247,38.2044865 27.6222651,38.0191059 27.490852,37.8416995 C27.409457,37.7317719 27.2428702,37.7760254 27.2025287,37.918437 Z M22.5335903,37.9005473 C22.4650097,38.0949803 22.3271366,38.2145589 22.1660078,38.3291944 C22.1002748,38.3760372 22.0734595,38.4767846 22.0010821,38.6001295 L22.9163602,38.3207203 C22.9006981,38.1707762 22.9078172,38.0542576 22.8717472,37.9530395 C22.8477796,37.8857176 22.7692322,37.813688 22.7006516,37.7941505 C22.6567506,37.7814394 22.5518626,37.8485259 22.5335903,37.9005473 Z M33.3330169,38.0097687 L33.1609722,38.2206791 L33.3338297,38.3207764 C33.8959378,38.6444412 33.9241864,38.6299972 34.2537529,38.4614841 C34.1227616,38.3826281 34.0083815,38.2552816 33.8977983,38.2588125 C33.6657159,38.2658742 33.4950949,38.1776025 33.3330169,38.0097687 Z M16.7789901,38.0688519 C16.5739603,38.1392338 16.4173402,38.2362149 16.2607202,38.2359795 C16.0473847,38.2357441 15.9061893,38.3122462 15.7540781,38.4965574 C16.0295288,38.643139 16.2366301,38.5612558 16.4315914,38.4500043 L16.5657268,38.3704949 C16.6559664,38.3169291 16.7463978,38.267043 16.8428247,38.2413935 C16.8575375,38.2376273 16.8639446,38.2018478 16.8829289,38.1630083 L16.7789901,38.0688519 Z M25.2412186,38.3094215 L25.0179164,38.039428 L24.7685108,38.4421821 L25.2113184,38.4016948 L25.2412186,38.3094215 Z M14.7873052,38.3692109 L14.9511426,38.4029201 C15.363821,38.4828852 15.4455756,38.4444015 15.7619091,38.1745425 C15.3266952,37.955158 15.0585427,38.0085918 14.7873052,38.3692109 Z M34.271788,38.2126758 C34.5655692,38.5273936 34.9160659,38.4327664 35.3216169,38.3675631 C34.8778601,37.9725769 34.6557444,37.9483317 34.271788,38.2126758 Z M23.5124655,37.6152533 C23.63916,37.677674 23.7441566,37.7667734 23.8450212,37.8594678 L23.9730122,37.9780835 C24.1424262,38.1323944 24.3213527,38.2689931 24.5938557,38.2774083 L24.83282,37.8715942 C24.4597795,37.4563644 24.0399903,37.3680927 23.5124655,37.6152533 Z M25.2405067,37.8892485 L25.4789963,38.2710528 C25.9787566,38.2145589 26.1966009,37.8344024 26.561573,37.5841817 C25.8983109,37.3786853 25.5670358,37.4627199 25.2405067,37.8892485 Z M28.5022378,37.2600483 C28.2336107,37.3582063 27.9842051,37.507915 27.645099,37.6781027 C28.103094,37.8247514 28.4630828,37.9923498 28.8394455,38.0455482 C29.2010954,38.096628 29.5803057,38.0337786 29.9509732,38.0102395 C30.001756,38.006944 30.0482675,37.9415053 30.1643087,37.8544106 L29.4402901,37.5373528 C29.2572835,37.4579424 29.0794644,37.3825824 28.8999578,37.3111281 C28.7777467,37.2624022 28.6142448,37.2188548 28.5022378,37.2600483 Z M21.2165581,37.2913553 C20.8015149,37.4598953 20.392879,37.6427941 19.8995259,37.8555876 C20.0101091,37.9358559 20.0383482,37.9737539 20.0699095,37.9763432 C20.4524421,38.0092979 20.8409073,38.0895663 21.2167954,38.0511976 C21.59387,38.0125934 21.9685716,37.8793621 22.3432732,37.6366739 C22.1240051,37.5269817 21.9287047,37.4476549 21.7538123,37.3365503 C21.5748857,37.2226211 21.3954846,37.2186194 21.2165581,37.2913553 Z M35.8814149,2.11404696 L35.8177761,2.12869107 L35.6684201,2.16224041 C35.4131961,2.22214574 35.168835,2.30564504 35.038277,2.58694757 C35.0233269,2.61872536 34.9877314,2.64202907 34.959967,2.6674513 L34.1454021,3.40926438 C34.0093835,3.53264416 33.8731188,3.65577983 33.7364322,3.77849703 C33.6604952,3.84652504 33.5693708,3.89854646 33.4182087,4.0051786 C33.5373349,3.58029777 33.866237,3.41505326 34.0598763,3.13423174 C33.8538972,3.03489672 33.69087,2.94262343 33.517876,2.87577238 C33.2314512,2.76483781 32.9695799,2.80255704 32.730463,2.99230115 L32.6885017,3.02736421 C32.5679517,3.13305479 32.4222476,3.21144 32.2838999,3.29571 C32.2575593,3.31195198 32.2124717,3.29806391 32.1616888,3.29806391 L32.1412808,3.16365562 C31.8809254,3.05732613 31.64585,2.97330594 31.4243985,2.87216465 L31.3147541,2.8199847 C31.1500657,2.73783323 31.0185998,2.72323898 30.8655393,2.83504973 L30.7958623,2.88592408 C30.7151285,2.94182115 30.6202774,2.98857901 30.4806337,2.95580533 L30.8624544,2.55258047 L30.4837186,2.35132113 C30.1426494,2.59441588 29.8374697,2.86922034 29.4920502,3.05936536 L29.387141,3.11375272 C29.0055576,3.29924086 28.7084542,3.64620726 28.2836816,3.74483611 L28.2324241,3.67986818 L28.6320426,3.11846054 C28.4222666,2.9593362 28.2428655,3.02948273 28.0508873,3.12057906 C27.8577226,3.21238157 27.6745246,3.36044254 27.3669797,3.31101042 L27.9459993,2.78820691 C27.8307649,2.74075207 27.7307179,2.70655446 27.6392974,2.66476408 L27.5722469,2.63167186 C27.4102876,2.54511522 27.281271,2.55476385 27.1270577,2.65044053 L27.0909962,2.67404225 C26.689954,2.94944977 26.2405019,3.15353381 25.8679361,3.47413641 C25.8119325,3.52239157 25.74264,3.56405579 25.672161,3.58500559 C25.5990717,3.60689696 25.5174394,3.59959984 25.4108903,3.60736774 C25.4849289,3.26534455 25.8415954,3.20720297 25.9676034,2.95109751 C25.3052904,2.8541164 24.6709793,2.84164068 24.0072425,2.96216089 C24.1873555,3.19613959 24.4996464,3.27499559 24.5772445,3.57747308 C24.3786218,3.68481139 24.2497663,3.55275702 24.1244702,3.47060554 L23.7218181,3.20852304 C23.5875273,3.12108186 23.4539428,3.03299288 23.3234033,2.94255376 L23.1301702,2.80491967 C22.7720799,2.54198788 22.4823328,2.56482081 22.140379,2.74701348 C22.1187844,2.75878303 22.0995629,2.77502501 22.0613571,2.80138881 L22.5867461,3.27405402 C22.4626366,3.31901371 22.3665289,3.31312894 22.2813371,3.27970341 C22.1413282,3.22509269 22.0067774,3.15541694 21.8724638,3.08691814 C21.6935373,2.99535103 21.5264759,2.98263991 21.3700932,3.12669923 C21.4730827,3.34420055 21.7063517,3.47013476 21.7455067,3.79026658 C20.9325063,3.34372977 20.2208343,2.86517978 19.5046535,2.34990879 L19.1975833,2.53516154 L19.5608943,2.95062673 C19.4282155,2.94769742 19.326099,2.91798584 19.2450449,2.8638065 L19.2156183,2.84234685 C19.0420905,2.70486377 18.887125,2.71861483 18.7034034,2.80737525 L18.6662617,2.82610487 C18.4166188,2.95721768 18.1437202,3.04501854 17.8485152,3.16459719 L17.8198015,3.35714706 C17.6472822,3.25428117 17.5032392,3.18625316 17.3803162,3.09139057 C16.9073711,2.72700524 16.4410705,2.75148591 15.963854,3.18107456 C16.1570187,3.42564585 16.4598175,3.5925381 16.5744349,3.99129053 L16.4999445,3.94780099 C16.4216234,3.90352454 16.3716462,3.87893054 16.3321484,3.84322957 C15.885544,3.44094627 15.4406007,3.03654446 14.9982677,2.62955335 C14.9344332,2.57094098 14.8945662,2.48572942 14.8290706,2.42994174 C14.7388954,2.35367504 14.6411265,2.27929147 14.5343401,2.23080092 C14.4213839,2.17948567 14.2944267,2.15830048 14.1729275,2.12581651 C13.8865027,2.04954981 13.6406567,2.12440417 13.3983702,2.30777379 L13.9508118,2.74418878 C13.7725972,2.89719296 13.6254693,2.84399459 13.4792906,2.82610487 C13.2801933,2.80209498 13.0796721,2.78750074 12.8796256,2.77220032 C12.7529058,2.76254928 12.6596457,2.81056906 12.617643,2.93673866 C12.5046867,3.27617254 12.4121385,3.61960807 12.3948154,4.00965103 C12.6238129,3.91219914 12.69358,3.6426764 13.0193972,3.59512741 L11.419737,5.85299829 L11.4562817,5.91113988 L12.3549485,5.50085329 C12.2726043,5.62490437 12.2519589,5.68516448 12.2092444,5.71600071 C12.0905295,5.80180859 11.9774678,5.89521594 11.8657617,5.99044672 L11.698682,6.13393845 C11.4730466,6.32754908 11.244159,6.51679422 10.9763338,6.65371094 L10.8855677,6.69734597 C10.6774529,6.7910316 10.6214494,6.93744483 10.7028443,7.1773083 C10.9225474,7.03470056 11.1274191,6.8883331 11.3402558,6.76054628 L11.469096,6.68628259 C11.7166031,6.55022656 11.9304132,6.3416701 12.2310763,6.30118284 C11.8441457,6.79550403 11.3674997,7.18852966 10.8661579,7.54743467 L10.7583732,7.62384511 C10.4337426,7.85170364 10.1435209,8.09392103 9.9432371,8.43782734 C9.77119235,8.73300771 9.58894357,9.02253869 9.4069321,9.32124993 L9.69983392,9.41532994 C9.99379141,9.51419277 10.0092892,9.54818313 10.0841951,9.71246984 L9.88763786,9.74390762 C9.85575136,9.74926931 9.82419004,9.75491869 9.79278694,9.76119579 C9.57114584,9.8054493 9.34665711,9.84028718 9.1309486,9.90407815 C9.04765521,9.92832343 8.94490297,10.0076502 8.91951154,10.0841523 C8.75434858,10.5841229 8.3805962,10.9207321 8.00992876,11.258989 C7.86517387,11.390808 7.78211779,11.531101 7.73940323,11.7283587 C7.60959844,12.325075 7.44680851,12.9144942 7.29873138,13.5072089 C7.27310264,13.6110163 7.25601682,13.7169423 7.23774448,13.8085094 C7.44894424,13.9610428 7.72991111,13.7680221 7.90148125,14.0314247 C7.81866246,14.1003943 7.75364142,14.1787795 7.67034803,14.2197375 C7.63543481,14.2368622 7.60003215,14.2531631 7.56445708,14.2691453 L7.45753164,14.3166414 C7.24391436,14.4117431 7.03550292,14.5135644 6.90077408,14.7312423 C6.87965411,14.765374 6.78639399,14.7536044 6.72754282,14.7677279 C6.36114684,14.8548226 6.19194973,15.0763255 6.19693309,15.4550697 C6.19859422,15.604543 6.20167916,15.7551933 6.18767827,15.9039605 C6.1822203,15.9637498 6.13191205,16.0190667 6.06546718,16.1464132 L6.01847498,15.9072156 L6.00970095,15.8599423 C5.99712389,15.7933267 5.98597064,15.726711 5.97434279,15.6600953 L5.90694871,15.6438534 L4.88986763,17.288766 L5.21634849,17.2669334 C5.53847632,17.2465427 5.84815687,17.2425705 6.15089629,17.3638557 C5.9142373,17.4501938 5.70008579,17.5799663 5.43662244,17.573564 L5.37491516,17.5695875 C5.19147987,17.5502854 4.99760324,17.5858295 4.81511716,17.6267875 C4.71568716,17.6491496 4.61839289,17.7214147 4.54103208,17.7929736 C4.39687045,17.926558 4.27050655,18.0805757 4.12733368,18.2141601 L4.03913603,18.2915318 C3.86210792,18.4362973 3.7992226,18.5888307 3.87753262,18.8176308 C3.91192123,18.8062244 3.9424169,18.7801096 3.97176843,18.7499457 L4.02070232,18.6970975 C4.10207946,18.608935 4.18663685,18.5361704 4.3355276,18.7159419 C3.68389329,19.5666451 3.67938453,20.4368858 4.29210113,21.2852351 C4.13975254,21.5048549 4.01896526,21.2824104 3.89960181,21.2838228 C3.83291963,21.4693109 3.93590918,21.5580533 4.03984794,21.6562114 C4.2206729,21.8271053 4.38464934,22.0163597 4.56998306,22.1818396 C4.66609081,22.2675219 4.78592888,22.3442594 4.90837727,22.3793327 C5.03770746,22.4162891 5.1857846,22.4198199 5.32033545,22.4009886 C5.6224223,22.3588536 5.85640315,22.5208027 6.11625004,22.6271994 C5.72683566,22.7938563 5.31274175,22.669099 4.84786498,22.7434826 C5.2930456,23.2641676 5.48051504,23.9067851 5.98976749,24.3429648 C6.08753637,24.1965515 5.9601046,23.9955276 6.16299875,23.883246 C6.28758288,24.1485317 6.25625887,24.4109928 6.22232453,24.6666274 C6.19550928,24.8697699 6.26432717,25.0173601 6.4349481,25.1032778 C6.58183872,25.1769552 6.74700168,25.2143824 6.94965852,25.2831166 C7.03603685,25.7063497 7.64400738,25.5971282 7.84713884,25.9650444 C7.82056089,26.0062379 7.80964495,26.0424881 7.79398294,26.044842 L7.59688075,26.0726181 C7.46349883,26.0906125 7.32428101,26.1080837 7.16797737,26.1281704 L7.27405186,26.5262167 C7.38348248,26.9396306 7.51331149,27.3490669 7.60495892,27.7656432 L7.64732963,27.9745778 C7.70997765,28.3149532 7.84808805,28.5672924 8.11363022,28.7892662 L8.22847477,28.8867121 C8.49496494,29.1171599 8.74591029,29.3717419 8.87249702,29.7054125 L8.89767965,29.7781439 C8.97480316,30.0229506 9.12264299,30.1218149 9.34997935,30.1559466 C9.4990057,30.1785441 9.65016777,30.1886659 9.7980076,30.2169128 C9.88604705,30.2336256 9.96957774,30.2738775 10.0784999,30.31154 C9.9052686,30.6048373 9.56972202,30.5102101 9.38011685,30.6884011 C9.56616248,30.9904078 9.72705398,31.2884129 9.92520206,31.5598187 C10.0711435,31.7594304 10.2493581,31.9442123 10.4418109,32.100512 C10.9083488,32.4790208 11.3974305,32.8299888 11.8646803,33.2075561 C11.9541774,33.279922 12.0313542,33.3672761 12.1064831,33.4571447 L12.2189247,33.5922742 L12.2764012,33.6583299 L12.2163635,33.7287118 L10.7436604,32.8226917 L10.7318136,32.8939528 C10.7056049,33.0656234 10.7108149,33.1903033 10.8791605,33.3045372 C11.3025092,33.5919496 11.707111,33.9071382 12.1147977,34.2171482 C12.1826664,34.2686989 12.2270421,34.3510857 12.2823337,34.4191138 L12.2405684,34.4530101 L11.4242457,34.0697934 C11.6050707,34.36568 11.8098633,34.6135468 12.000655,34.8717707 C12.1409011,35.0622021 12.2578915,35.2693462 12.3943408,35.4628376 C12.5602157,35.6982287 12.7389049,35.9246749 12.9054917,36.1593597 C12.9489181,36.2205614 12.9686143,36.2984758 12.9992264,36.368387 L12.9415617,36.4088742 L12.3732208,35.8907786 L12.6221518,36.9575708 C12.6696124,37.1649503 12.8015529,37.2480433 13.0089558,37.2202672 C13.1831363,37.1969635 13.3563676,37.1621256 13.5317345,37.1489437 C13.6449281,37.1404696 13.760732,37.1621256 13.8751121,37.1705997 L13.8976559,37.2501618 L13.4062012,37.6531513 C13.7504298,37.9634292 14.0964496,37.8914057 14.4401172,37.7951252 L14.5744665,37.7570067 C14.6192035,37.7444175 14.6638913,37.7322102 14.7085206,37.7211793 C14.7512352,37.7105867 14.7854068,37.6609192 14.8210023,37.6267875 L15.8662257,36.6229755 C16.0406875,36.4559001 16.2153953,36.2890602 16.390525,36.1226387 C16.4358499,36.0795622 16.5072781,36.0635556 16.6147764,36.0112988 C16.4904296,36.399694 16.1655616,36.5661155 15.9764311,36.8537633 C16.1176264,36.9154358 16.2377018,36.9547461 16.3447255,37.0164185 C16.724885,37.2355676 17.0687372,37.2176779 17.399775,36.9097864 C17.5200877,36.7977402 17.6826403,36.7297122 17.8157674,36.6475608 C17.8959758,36.7525452 17.9299102,36.8424645 17.9920836,36.8702407 C18.1919877,36.9598776 18.4011561,37.02993 18.604037,37.1134203 L18.7547757,37.1790737 C18.88551,37.2397065 18.9919173,37.2447593 19.1090923,37.1808149 L19.1413425,37.1616548 C19.2493154,37.0924498 19.37034,37.0434885 19.4856693,36.9855823 L19.5250616,37.0470194 L19.1781245,37.4389454 L19.5514022,37.6267875 C19.8892355,37.3871166 20.1943171,37.1124289 20.5401021,36.9245759 L20.6451322,36.8709469 C20.7743042,36.8093529 20.8932985,36.7296076 21.010245,36.6465669 L21.1501181,36.546287 C21.3366925,36.4130067 21.5263493,36.2865023 21.7523885,36.2276231 L21.8079174,36.2890602 L21.3746019,36.9076679 C21.559461,36.9177897 21.695673,36.9526276 21.8174095,36.9248514 C21.9609779,36.8916613 22.0891216,36.7977402 22.2291304,36.7426587 C22.3473073,36.6965221 22.4726034,36.668746 22.5945771,36.6327311 L22.6282742,36.7040546 L22.083189,37.1941388 L22.7058723,37.4441241 L23.1342651,37.1895967 C23.2258983,37.1345942 23.315504,37.0796446 23.4037807,37.0227741 C23.634202,36.8742423 23.8553685,36.7111163 24.0838914,36.5599953 C24.1880675,36.4910257 24.2967523,36.4244101 24.4118443,36.3773318 C24.4652375,36.3554405 24.5390387,36.3832166 24.6249425,36.3902783 C24.5359538,36.7071147 24.2160692,36.7805567 24.0656191,37.0135938 C24.8057674,37.1604778 25.557069,37.1451774 25.9849265,36.982993 C25.8351883,36.7699641 25.5062862,36.705467 25.4593001,36.3384923 C25.7281893,36.3835851 25.9237326,36.5157239 26.1073756,36.6580695 L26.2514026,36.77148 C26.3005971,36.8100417 26.3501081,36.8478647 26.4011561,36.8834226 C26.7068025,37.0962161 27.0504174,37.255105 27.3833537,37.4408286 L27.9856289,37.192491 L27.3714885,36.6407344 C27.5449571,36.662155 27.6296743,36.6574472 27.7020517,36.6849879 C27.854163,36.7431295 28.0008163,36.8165715 28.1479442,36.8874242 C28.3166667,36.9683988 28.4801686,36.9853469 28.6512641,36.871653 C28.5807851,36.6324957 28.3076492,36.50868 28.3546352,36.1963161 L30.5608421,37.6239628 L30.8413344,37.4387101 L30.4680566,37.0493733 L30.5100593,36.9834638 C30.6258632,37.0430177 30.7490235,37.0915083 30.8555726,37.1644795 C31.0072093,37.2685223 31.1410482,37.2762902 31.3071604,37.1842523 L31.4470032,37.107932 C31.5884124,37.0325856 31.7344974,36.9627723 31.8850471,36.9219964 L31.9606931,36.904137 C32.1222965,36.871653 32.1801985,36.7909139 32.2404735,36.6186077 C32.4298413,36.7497205 32.5821899,36.8780086 32.7549466,36.9676926 L32.8867647,37.0369895 C33.0225058,37.1069558 33.1670234,37.1705997 33.2933873,37.1529453 C33.5667605,37.114812 33.8251836,36.9705173 34.2003598,36.829518 C34.0043474,36.6758077 33.8636267,36.5880068 33.7530434,36.4724298 C33.6405617,36.3554405 33.5575057,36.210675 33.4616352,36.0779144 C33.5594041,36.0520214 33.6087631,36.0635556 33.6417483,36.0934502 C34.0714251,36.4811654 34.5237892,36.8487939 34.9263412,37.2611422 L35.0748217,37.4179956 C35.2869706,37.6498558 35.5107475,37.7527217 35.786731,37.8400518 C36.1087513,37.9422115 36.3704966,37.8595892 36.6374626,37.6795151 C36.4822663,37.4850821 36.1951296,37.4556582 36.099971,37.1512976 C36.2527942,37.1512976 36.3726323,37.1430589 36.4908093,37.1529453 L36.6905921,37.1733982 L37.089525,37.2221503 C37.2639427,37.2426293 37.3894761,37.1764844 37.4326652,37.0041782 C37.518569,36.6623904 37.5956925,36.3187195 37.6763755,35.9757547 L37.6213212,35.9557465 L37.1227474,36.4074619 L37.066032,36.3516742 C37.1271748,36.2045884 37.2156201,36.074686 37.3104189,35.9487753 L37.4707078,35.740358 C37.5078049,35.6915342 37.5441028,35.6422056 37.5783693,35.5915965 C37.7461426,35.3439652 37.9075087,35.091626 38.0819265,34.848467 C38.2577681,34.6036603 38.4459495,34.3675631 38.6286729,34.1276996 L38.5733812,34.0648502 L37.7435323,34.4551286 L37.696309,34.3703878 C38.1706779,34.0111811 38.5788392,33.5672336 39.1232125,33.298417 C39.3284797,33.1974342 39.4058405,33.0712646 39.3097327,32.8161007 L38.9284386,33.0684694 C38.8870069,33.0955393 38.8456272,33.1222856 38.8040398,33.1487083 C38.684795,33.2242688 38.5658172,33.3011534 38.4437025,33.3721128 L38.3204161,33.4408286 C38.1588127,33.5262755 38.0287706,33.687283 37.7390235,33.6936386 C38.2311902,33.1555346 38.7114916,32.7075855 39.2641706,32.3730948 C39.9435693,31.9616313 40.2027043,31.2735832 40.6177474,30.6867534 C40.398954,30.505973 40.0534407,30.6194315 39.9288565,30.2670511 L40.3656917,30.2050209 L40.5498565,30.1775095 C40.8608586,30.1268345 41.1360364,30.0398988 41.2290402,29.6555052 C41.267246,29.4975578 41.4053564,29.3549108 41.5213976,29.2259166 C41.6967646,29.030542 41.8868444,28.8464662 42.0823821,28.6706291 C42.188483,28.5754265 42.2411467,28.4681347 42.2760397,28.3373464 L42.2883612,28.2871771 C42.4248105,27.6921085 42.5790575,27.1008062 42.7266601,26.5080916 L42.8208694,26.1260519 L42.6149993,26.1028626 C42.2795156,26.0634705 42.258672,26.0460625 42.1179776,25.9285588 L42.3333302,25.8048902 C42.3679171,25.784985 42.4019404,25.7652342 42.4355336,25.74534 L42.767957,25.5432292 C42.8709839,25.4795432 42.9713873,25.4127498 43.0610201,25.3341964 C43.1293337,25.274466 43.1762085,25.2390654 43.2614189,25.2204253 L43.3004589,25.2134408 C43.6519048,25.1630671 43.8436457,24.889072 43.8322552,24.5364562 L43.8268357,24.421794 C43.8180178,24.242535 43.8184776,24.0604401 43.9834173,23.8943094 L44.084983,24.4091096 L45.1198618,22.7206497 C44.8657102,22.7206497 44.6640025,22.7331254 44.4644306,22.7171188 C44.2684183,22.701583 44.0500994,22.7811452 43.8597823,22.6189607 C44.1625472,22.4635522 44.4548768,22.3781665 44.7724907,22.3950316 L44.8462513,22.4007533 C44.9682251,22.4129936 45.1013522,22.3955746 45.2188172,22.3586183 C45.3184845,22.3270759 45.413643,22.2592832 45.4914784,22.1870182 C45.6647097,22.0264815 45.8142107,21.8391102 45.9950356,21.68846 C46.1784709,21.5356912 46.2548825,21.3775084 46.156639,21.1458836 C46.0040531,21.2214441 45.9506599,21.5305126 45.6886773,21.2849997 C46.3322433,20.4333549 46.3652285,19.5640558 45.7496642,18.7138233 C45.8906223,18.4701936 46.0092738,18.6832225 46.1246031,18.7133526 C46.1941329,18.517978 46.0987371,18.4136998 45.9746276,18.3110693 C45.8305846,18.191726 45.6566414,18.0810922 45.5705004,17.9259695 C45.4115073,17.6385571 45.1625764,17.5820632 44.8799484,17.5641735 C44.7672294,17.5568764 44.6533239,17.5655858 44.5401303,17.5672336 C44.3033018,17.5712352 44.1096625,17.4667216 43.9169724,17.3607956 L43.9302614,17.2765256 L45.21241,17.2765256 C44.7430245,16.7240628 44.5581654,16.0769729 44.0287422,15.6349085 L43.9326344,16.0722651 C43.8393743,15.9896428 43.8042534,15.9121991 43.8011685,15.8333431 C43.795663,15.6838228 43.7922839,15.5332478 43.7999003,15.3836672 L43.807813,15.2717001 C43.8246615,15.0836227 43.7461142,14.9487436 43.5911552,14.8727123 C43.4423662,14.7997411 43.2757794,14.7627847 43.0795298,14.6975814 C43.0376903,14.5229653 42.8799245,14.4349043 42.7044956,14.3557493 L42.5814306,14.3014182 C42.4276582,14.2331548 42.2425617,14.1950215 42.1735065,13.9417407 L42.8505323,13.8261637 L42.7406609,13.4099923 C42.6362179,13.0198905 42.5037954,12.6342943 42.4239934,12.2402726 L42.3932492,12.0708527 C42.3358515,11.7122492 42.1929413,11.4475722 41.9377307,11.2037002 L41.8851833,11.1551815 C41.6306483,10.9276852 41.3722716,10.6630833 41.2205471,10.3650789 L41.1849018,10.2898841 C41.0401469,9.95986583 40.8474568,9.8266345 40.5240127,9.79603366 C40.3987167,9.78402872 40.272946,9.77320073 40.1502603,9.74872006 C40.0871377,9.73577355 40.030185,9.69316777 39.940959,9.64985582 C40.1405309,9.40740305 40.4421431,9.44483022 40.6621231,9.3035956 C40.4578051,8.97710822 40.2781667,8.6623904 40.0691027,8.36815159 C39.9473662,8.19725769 39.7921699,8.042135 39.6274816,7.90984523 C39.1592826,7.53345495 38.67732,7.17377744 38.2027138,6.80515506 C38.0197531,6.66274348 37.8702522,6.49184959 37.8028581,6.2418643 L39.3000033,7.17095275 C39.366791,6.92173902 39.2936657,6.78842486 39.1076153,6.65520403 L39.0736162,6.63167186 C38.6384023,6.34025775 38.2356989,6.00058848 37.8225542,5.67716118 C37.7938406,5.65479903 37.7871961,5.60489613 37.7413966,5.50414877 L38.5952131,5.91278762 C38.4701544,5.66939328 38.2926517,5.49638086 38.1500325,5.29865239 C37.8068922,4.82245631 37.4789394,4.33496145 37.1474269,3.85076208 C37.1025766,3.78508798 37.0722018,3.70952745 37.0349453,3.63867475 L37.0945083,3.58500559 L37.5705383,4.00329547 C37.552266,3.63396693 37.4703964,3.29759313 37.3859165,2.9619255 C37.3496092,2.8173954 37.2475688,2.7594892 37.1040005,2.77337727 C36.9167683,2.79126699 36.7304854,2.82186783 36.5427786,2.83269582 C36.4167707,2.83975755 36.2893389,2.82186783 36.1626191,2.81527688 L36.1384142,2.72465133 L36.6189529,2.34214088 C36.3050009,2.11169305 36.1405499,2.05237451 35.8814149,2.11404696 Z M31.5591763,37.5170953 L31.6463158,37.577997 C32.0744364,37.869952 32.3905825,37.9677956 32.6702294,37.6100747 L32.5231015,37.3454952 L32.9967584,37.4697817 L32.9463128,37.3970591 C32.824324,37.2244519 32.7927305,37.2152455 32.6147005,37.1976696 C32.31997,37.1687165 31.7283734,37.3478491 31.5591763,37.5170953 Z M17.1095533,37.4118755 L17.4588635,37.3652681 L17.3532636,37.5926558 C17.7362708,37.9370329 18.0127289,37.902195 18.4674017,37.4568352 C17.860143,37.1268169 17.3468564,37.1023363 17.1095533,37.4118755 Z M15.9731088,37.2480433 C15.7210929,37.3753899 15.5236567,37.5065027 15.3530358,37.7859118 C15.7320089,37.7254163 16.049995,37.8607662 16.4458166,37.6717472 L15.9731088,37.2480433 Z M34.6858819,37.6689225 L34.1059131,37.224975 L33.6310696,37.671041 C34.0019744,37.8657094 34.332063,37.7249456 34.6441165,37.7743777 L34.6858819,37.6689225 Z M38.3683514,37.5175661 L38.3458076,37.4751957 L38.1626096,37.544636 L38.2041376,37.6121933 L38.3683514,37.5175661 Z M11.8288475,37.5413406 L11.6257161,37.4839051 L11.6110033,37.5260401 L11.7920655,37.6110163 L11.8288475,37.5413406 Z M25.2438289,37.403166 L24.8378033,37.4641323 L24.90968,37.5281533 C25.0497518,37.6484355 25.0721453,37.6201351 25.2438289,37.403166 Z M11.9954343,36.6247278 L11.9556072,36.63449 C11.9477364,36.636648 11.942136,36.6388513 11.9420411,36.6412052 C11.9391935,36.8330489 11.9396681,37.0246572 11.9396681,37.2282705 L11.9945161,37.211649 C12.2233198,37.1356059 12.2099645,37.0356475 11.9954343,36.6247278 Z M38.0266349,37.214147 L38.0266349,36.7756135 L37.9765407,36.8684429 C37.9171074,36.9834768 37.883129,37.0955842 38.0266349,37.214147 Z M38.5695844,35.9133761 C38.3992008,36.3128347 38.3721482,36.7363032 38.3764197,37.1691873 C38.658573,37.2063791 38.7174242,37.0383099 38.7143393,36.8568234 C38.7093559,36.5439887 38.6751843,36.231154 38.6531151,35.9185547 L38.5695844,35.9133761 Z M11.6492091,37.1199906 L11.4906906,35.956688 L11.4133298,35.962102 C11.3874638,36.2951804 11.3506818,36.6280233 11.3390539,36.9615724 C11.3324094,37.1550638 11.3732256,37.1691873 11.6492091,37.1199906 Z M11.44323,35.1523569 C11.6712783,35.3778615 11.6280891,35.7601365 11.9346847,35.9628082 C11.8499675,35.5141529 11.6947713,35.2500441 11.44323,35.1523569 Z M38.3548251,35.4915553 C38.2152909,35.6132525 38.1516936,35.7636674 38.1092164,35.9220856 L38.1846788,35.9500971 L38.3548251,35.4915553 Z M10.8642104,35.4873183 L10.8642104,35.2420408 L10.8150887,35.2434532 L10.8150887,35.4873183 L10.8642104,35.4873183 Z M39.2883755,34.5306891 L39.1984376,34.4937327 L39.1583114,34.5213623 C39.0198233,34.619108 38.9091342,34.7320917 39.0558184,34.9955864 L39.2883755,34.5306891 Z M10.6731814,34.4339434 L10.9325537,34.8632967 L10.9530102,34.7700866 C10.9962998,34.5593622 10.9628737,34.5463879 10.6731814,34.4339434 Z M10.5077812,33.5961867 C10.4548626,33.7783793 10.4947295,33.9106691 10.7061666,33.9502148 L10.5077812,33.5961867 Z M39.9715711,33.3231331 L39.8075946,33.6103101 C39.9858093,33.5924204 40.0688654,33.5236862 39.9715711,33.3231331 Z M9.68196639,32.6289649 L9.60246985,32.3043606 L9.57560777,32.3331169 C9.48456296,32.4332174 9.4330148,32.5279514 9.68196639,32.6289649 Z M40.5214024,32.42135 L40.4236335,32.3855705 L40.3576632,32.5632908 L40.4328883,32.5969517 L40.5214024,32.42135 Z M40.8080645,31.8196905 L40.6578516,32.3297829 L40.7451792,32.357559 C40.7867072,32.1840758 40.9331232,32.037898 40.8080645,31.8196905 Z M8.53887737,31.2717001 C8.34903489,31.5445183 8.41737818,31.7577826 8.81296244,32.0221268 C8.81045381,31.9780078 8.81120931,31.9337014 8.81318453,31.8898013 L8.82213285,31.7323479 C8.83129198,31.5313295 8.81142219,31.3561339 8.53887737,31.2717001 Z M41.5064475,31.2827635 C41.1604596,31.4002236 41.2534824,31.6664509 41.2715175,31.9232625 C41.5558066,31.7624904 41.6248618,31.5624081 41.5064475,31.2827635 Z M41.5861814,30.3322545 L41.5270169,30.3785293 C41.4070397,30.4759089 41.3420914,30.5590616 41.364303,30.7159419 C41.5138039,30.6344966 41.6196411,30.5636439 41.5861814,30.3322545 Z M8.71234593,30.6436768 L8.51135021,30.4162891 L8.43565052,30.4880833 L8.65207094,30.6999353 L8.71234593,30.6436768 Z M7.90670191,28.9196728 L7.775236,28.7970341 L7.73797941,28.8377567 L7.8749033,28.9542753 L7.90670191,28.9196728 Z M42.3253805,28.8299888 L42.2869374,28.7977402 L42.1599803,28.9123757 L42.2060171,28.9542753 L42.3253805,28.8299888 Z M44.1903456,27.9449185 C44.1649085,27.9606716 44.138372,27.9754532 44.1113692,27.9899449 L44.0023724,28.0479813 L43.9488232,28.0788694 C43.799592,28.1698684 43.676055,28.2953343 43.6934329,28.5792974 C43.9093787,28.3540281 44.1286468,28.2127935 44.1903456,27.9449185 Z M5.6838838,27.9070205 L6.27809075,28.5776496 C6.29375276,28.1508857 6.13214935,27.9637498 5.6838838,27.9070205 Z M42.9630139,27.6876361 L42.7451697,28.077679 C42.9706076,28.0103572 43.014746,27.9100806 42.9630139,27.6876361 Z M43.9608735,26.232684 C43.5320668,26.5459895 43.4528075,26.9204967 43.6644819,27.3740952 C43.8725967,27.294533 43.9772474,27.1563585 43.9634838,26.9249691 C43.9513813,26.7173542 43.9608735,26.5087977 43.9608735,26.232684 Z M6.08729906,26.2847055 C6.12647862,26.3947224 6.12417529,26.5106338 6.11548579,26.6267548 L6.10913183,26.7041375 C6.08954258,26.9360042 6.07560575,27.1636556 6.34809517,27.3416113 C6.55905762,26.7208851 6.49569769,26.4278232 6.08729906,26.2847055 Z M43.8275091,25.3344318 C43.5477288,25.4573059 43.5949521,25.7079974 43.5709845,25.9897605 L43.7198386,25.8673105 C43.9711695,25.654948 43.953212,25.6148834 43.8275091,25.3344318 Z M6.22707059,25.3913965 L6.19110252,25.4865437 C6.12491901,25.6712128 6.15581775,25.6927584 6.39270815,25.8579415 L6.39935382,25.714197 C6.40315974,25.5919358 6.38628778,25.4780988 6.22707059,25.3913965 Z M4.30847504,25.0677338 L4.39342955,25.7084682 L4.71639907,25.6644501 C4.82484658,25.3156005 4.61886749,25.1957865 4.30847504,25.0677338 Z M45.6075197,25.6712764 L45.6718288,25.136468 L45.5107288,25.2139065 C45.2245669,25.3559367 45.2352893,25.3961854 45.3130265,25.6879892 L45.6075197,25.6712764 Z M5.12218737,25.51992 C5.11435636,25.5182722 5.07520135,25.5924204 5.08350696,25.6013653 C5.11127142,25.6314953 5.15256216,25.655976 5.19242908,25.6649208 C5.20666727,25.6677455 5.2320587,25.6197258 5.26694225,25.5773554 L5.20317417,25.5486301 C5.1742137,25.5356535 5.14867039,25.5252869 5.12218737,25.51992 Z M44.9770053,24.615783 L44.924324,24.5936562 L44.8417426,24.7704349 L44.9131708,24.7904431 L44.9770053,24.615783 Z M4.24013175,24.2544577 L4.31583144,24.6054258 L4.41929559,24.5943624 L4.42456168,24.5434747 C4.43318524,24.4258996 4.41060436,24.3181016 4.24013175,24.2544577 Z M45.6934234,24.3076561 L45.6321992,24.5632908 L45.6998306,24.5734126 L45.7465793,24.3182487 L45.6934234,24.3076561 Z M46.1094157,24.4112282 L46.2344744,23.9743424 L46.15562,24.0502545 C46.0398313,24.1666197 46.0494655,24.2001196 46.1094157,24.4112282 Z M3.76386443,23.9708115 L3.86922701,24.3530866 L3.96889431,24.3267228 C3.9299766,24.199847 3.96865701,24.0484906 3.76386443,23.9708115 Z M46.9928951,23.6426764 L46.9137609,23.6595127 C46.4908182,23.7449923 46.4917769,23.6776189 46.4404535,24.2676396 C46.9141105,24.2393927 47.0472376,24.0948626 46.9928951,23.6426764 Z M3.0030707,23.6603307 C2.95798311,24.031307 3.13121437,24.2175013 3.5391384,24.2368034 L3.53296977,24.1119437 C3.51164458,23.734333 3.46926342,23.7281661 3.0030707,23.6603307 Z M4.77477563,23.9802272 L4.50875886,23.6101924 L4.43234726,23.6619785 L4.68673618,24.0400165 L4.77477563,23.9802272 Z M45.56789,23.6017184 L45.2204783,23.9696346 C45.4765284,23.9708115 45.5837894,23.8406403 45.56789,23.6017184 Z M2.38964219,21.4156417 C2.25437943,21.8718296 2.36638649,22.2303301 2.65732009,22.4869064 C3.11578967,22.8908374 3.61863494,23.2448655 4.10415708,23.6184311 C4.11958178,23.6299653 4.15138039,23.6198435 4.19528147,23.6198435 L4.21616414,23.2681692 L3.64231969,22.8711587 C3.51782858,22.7845725 3.3950005,22.6982875 3.27312163,22.6107221 C3.12836674,22.5066792 2.99001903,22.3776849 3.00568104,22.1844289 C3.04080189,21.7569587 2.72922293,21.6164303 2.38964219,21.4156417 Z M47.6127308,21.4118755 L47.5305341,21.4560134 C47.2232511,21.6240683 47.0107308,21.7851021 47.0657472,22.1493556 C47.0946982,22.3400224 46.9720125,22.4824339 46.823698,22.5888307 C46.6325504,22.7261814 46.4410023,22.8631348 46.2453496,22.9937327 L46.0481915,23.1219914 C45.861434,23.2401577 45.7840732,23.3698582 45.9340487,23.604543 L46.434521,23.2147355 C46.7211831,22.9906432 47.0227953,22.7827929 47.2904732,22.538457 C47.6030014,22.2538692 47.7368404,21.8965456 47.6127308,21.4118755 Z M46.3521768,21.0404284 L46.3327179,21.0432531 L46.345295,21.2447478 L46.3998747,21.2390985 L46.3521768,21.0404284 Z M3.72565863,21.2438063 L3.73609997,21.0491379 L3.71118315,21.0500794 L3.68294408,21.2386277 L3.72565863,21.2438063 Z M3.07877039,20.7603131 L2.86946906,20.315424 L2.84547318,20.4155971 C2.79670395,20.6310883 2.82692536,20.6449338 3.07877039,20.7603131 Z M47.1656518,20.4208792 L47.0014381,20.7483081 C47.1649399,20.7092332 47.2717263,20.641676 47.1656518,20.4208792 Z M3.17511545,19.5937151 C2.92309956,19.8976049 3.04317493,20.1341729 3.19599812,20.3978109 C3.35617771,20.1111046 3.26623984,19.8721827 3.17511545,19.5937151 Z M46.8021035,19.6101924 C46.7287768,19.8874831 46.7468118,20.1268758 46.8576324,20.3761549 C47.0761885,20.0329547 47.072629,19.9712823 46.8021035,19.6101924 Z M47.4933674,19.7493085 L47.4349495,19.856485 C47.3248059,20.0643303 47.3464458,20.086757 47.5123516,20.2586948 C47.5973061,20.0962749 47.6288674,19.9437415 47.4933674,19.7493085 Z M2.55646627,19.7137645 L2.50241233,19.8267618 C2.41850952,20.0092014 2.43820627,20.0333314 2.56951794,20.1941976 C2.69339016,20.0414288 2.73563011,19.894074 2.55646627,19.7137645 Z M46.9499433,19.2003766 L47.1523628,19.6617431 C47.3267806,19.3451421 47.1008681,19.2921791 46.9499433,19.2003766 Z M2.90103037,19.510622 L3.04507335,19.2055552 L2.96687795,19.235407 C2.85792466,19.2808605 2.78174299,19.3423231 2.90103037,19.510622 Z M3.66751938,18.8661213 L3.66751938,18.691932 L3.62171988,18.7074678 L3.64711131,18.870123 L3.66751938,18.8661213 Z M4.22328323,16.6849879 L4.10819123,16.3721532 L3.56245343,16.7864709 C3.44415784,16.8763707 3.32747063,16.9653419 3.21163596,17.0544222 L3.03842886,17.188254 C2.90981058,17.2882952 2.77478512,17.3873948 2.67203288,17.5109751 C2.435679,17.7957983 2.28024547,18.1102807 2.4207289,18.5521097 L2.5003013,18.5147397 C2.7850357,18.377962 2.98821409,18.2385811 2.97076118,17.9215873 L2.96700063,17.8772436 C2.94232111,17.6564468 3.05954884,17.4954393 3.23372931,17.3716236 C3.41811382,17.241217 3.60321024,17.1122227 3.78878126,16.9832284 L4.22328323,16.6849879 Z M45.8666546,16.342494 L45.78787,16.6969929 L46.7204712,17.3386689 C46.9042455,17.464788 47.0074021,17.6258171 47.035071,17.8471992 L47.0401185,17.8993703 C47.0631369,18.2298594 47.268404,18.4148767 47.6787011,18.5024422 C47.6879559,18.3793327 47.7204664,18.2576355 47.7014822,18.1446478 C47.6554454,17.8685341 47.5455741,17.6133702 47.3201361,17.4316483 C46.8908548,17.0856235 46.4542171,16.7485435 46.0190032,16.4095804 C45.9829332,16.3815689 45.9328622,16.3709763 45.8666546,16.342494 Z M45.6139268,16.353322 L45.3711658,15.9602189 L45.2686508,16.0287177 L45.5446343,16.4001648 L45.6139268,16.353322 Z M4.79803133,15.9682222 C4.52442086,16.0207144 4.44682275,16.1812511 4.42831311,16.3829812 C4.55218532,16.2598717 4.7268404,16.1826634 4.79803133,15.9682222 Z M3.59727766,15.7111752 C3.07829578,15.7584888 2.9643903,15.8964279 3.06927827,16.3432001 L3.50520406,16.221503 L3.54308356,16.0898311 C3.55521568,16.0472548 3.56619095,16.0055317 3.57402196,15.963279 C3.58849744,15.8818337 3.58968396,15.7982699 3.59727766,15.7111752 Z M46.4592005,15.7582534 L46.5529352,16.2172659 L46.7026583,16.2621277 C46.7323648,16.2708315 46.7605754,16.2786088 46.7890518,16.2852939 C46.8678364,16.3036544 46.9480449,16.3161302 47.0308636,16.331666 C47.0562551,15.9291473 46.8638023,15.7377744 46.4592005,15.7582534 Z M3.92309481,15.6092509 L3.76006758,16.0725004 C4.05147579,15.9538634 3.95797837,15.7714353 3.92309481,15.6092509 Z M46.3123099,16.0706173 L46.1554525,15.6419702 L46.1289181,15.7278899 C46.0919861,15.8569445 46.0833987,15.9839506 46.3123099,16.0706173 Z M45.6034855,15.3863355 C45.6397929,15.5045019 45.5714496,15.6704525 45.7769541,15.7554287 C45.7513253,15.5901842 45.8303473,15.4310598 45.6034855,15.3863355 Z M4.40576931,15.3929265 L4.32864581,15.3830401 L4.29969483,15.6826929 L4.34430781,15.6878715 L4.40576931,15.3929265 Z M45.6986441,14.8769493 L45.6620994,14.2727005 L45.3085178,14.3258989 L45.2978571,14.4297295 C45.2732524,14.6988023 45.3131329,14.7155035 45.6986441,14.8769493 Z M4.76362238,14.3028306 L4.40197246,14.3322545 L4.37563182,14.8590596 L4.42878069,14.8298318 C4.64189853,14.7179768 4.85299438,14.6572208 4.76362238,14.3028306 Z M6.47552693,13.9791679 L6.35864686,14.0749137 C6.05785627,14.3251505 6.06976318,14.3641784 6.21805307,14.6408521 C6.48359524,14.5078562 6.43921956,14.2604602 6.47552693,13.9791679 Z M43.582375,14.0987465 L43.7387578,14.6290826 C43.9395162,14.327782 43.9259899,14.286824 43.582375,14.0987465 Z M44.8462513,14.2818808 C44.8139781,14.3411993 44.7819422,14.3758018 44.7892986,14.3918084 C44.8030622,14.4207615 44.838183,14.4504208 44.8687951,14.4570117 C44.8873048,14.4612487 44.9383249,14.412052 44.9347654,14.4031072 C44.9198153,14.3673277 44.8892032,14.3376685 44.8462513,14.2818808 Z M6.37443581,12.6047196 L6.30931548,12.635197 C6.1719319,12.7044773 6.06279356,12.797803 6.06238224,12.9726358 C6.06167033,13.2155593 6.07970536,13.4587183 6.09275703,13.7710822 C6.50756285,13.3852763 6.57519423,13.0371329 6.37443581,12.6047196 Z M43.6015966,12.6703937 C43.6122801,12.7511734 43.6090021,12.8337416 43.6021207,12.9163904 L43.5889313,13.0556329 C43.5661969,13.2996617 43.5630553,13.5359347 43.8505275,13.719767 C44.0391835,13.0950391 43.9748743,12.7852645 43.6015966,12.6703937 Z M7.08302286,12.2885894 L7.29493453,11.8954864 L7.20468779,11.9467148 C7.04180125,12.0423286 7.04674785,12.0718799 7.08302286,12.2885894 Z M43.7864557,11.4736656 C43.7449276,11.8321662 43.8388997,11.9451539 44.2717405,12.0875655 C44.2031599,11.8053316 43.9921975,11.6596246 43.7864557,11.4736656 Z M6.30538061,11.4786088 C6.08872288,11.6283175 5.91952577,11.7789678 5.85782697,12.0176543 C6.05526315,11.8896016 6.37016436,11.857353 6.30538061,11.4786088 Z M42.3590776,11.1678927 L42.1822867,11.0619667 L42.1540477,11.1062202 L42.324194,11.2246219 L42.3590776,11.1678927 Z M7.8829716,11.1342317 L7.80062743,11.0520803 L7.66417815,11.1532984 L7.8829716,11.1342317 Z M8.62501839,9.30642029 C8.48928102,9.35679397 8.40527572,9.43800388 8.4650761,9.67786736 L8.6943109,9.36785735 L8.62501839,9.30642029 Z M41.5940124,9.4900253 L41.3975254,9.30171247 L41.3346401,9.37586065 L41.5330255,9.55781793 L41.5940124,9.4900253 Z M41.2525332,7.97881481 C41.1023203,8.40510799 41.2788739,8.66427352 41.6186919,8.86153122 C41.6127932,8.81435213 41.6098003,8.76622187 41.6077614,8.71786307 L41.6026897,8.57596097 C41.5924453,8.33434328 41.5581125,8.10478995 41.2525332,7.97881481 Z M8.72112615,8.03625022 C8.43778625,8.21349968 8.46744913,8.48961337 8.44514264,8.7621962 C8.81581008,8.56870476 8.8554397,8.48066851 8.72112615,8.03625022 Z M9.36825169,7.68528218 L9.27261854,7.65609369 L9.1081675,8.17842641 L9.20712289,8.20879186 L9.36825169,7.68528218 Z M40.3562394,7.36750427 L40.4233962,7.73895133 L40.4613791,7.6867918 C40.5826764,7.51257679 40.5787575,7.42424374 40.3562394,7.36750427 Z M9.68813627,7.42329194 C9.5452798,7.42258577 9.46459675,7.46260225 9.58158718,7.60736774 L9.68813627,7.42329194 Z M10.2441374,6.35179191 L10.1803029,6.30353675 L10.1433542,6.3265333 C10.0533802,6.38548216 9.98705442,6.45881176 10.0718554,6.62413935 L10.2441374,6.35179191 Z M39.59331,6.28894251 L39.441436,6.00576708 L39.4389489,6.07007699 C39.4348793,6.21187434 39.4515562,6.21998678 39.59331,6.28894251 Z M39.362414,5.56252575 L39.1094489,5.12093215 L39.079843,5.21004493 C39.0127289,5.42140736 39.0476974,5.4355192 39.362414,5.56252575 Z M10.9873707,5.02889425 C10.849023,5.17460131 10.7429485,5.29676926 10.8236316,5.51097511 C10.9636404,5.37138822 11.1719925,5.29159065 10.9873707,5.02889425 Z M38.08074,4.05767081 C38.1846788,4.39781086 38.2992962,4.6753369 38.5740931,4.91472959 C38.4805957,4.56258459 38.2793627,4.20267169 38.08074,4.05767081 Z M39.2383045,4.80974519 L39.2383045,4.36344377 L39.1988007,4.44458742 C39.141856,4.56590287 39.1145998,4.66842748 39.2383045,4.80974519 Z M10.9192647,4.61107515 L10.8222078,4.29753428 L10.8115462,4.46565998 C10.8104186,4.49002766 10.8108172,4.50844465 10.8141395,4.52633437 C10.8212586,4.56470311 10.8485484,4.59954099 10.8670581,4.63626199 L10.9192647,4.61107515 Z M11.6373439,2.80491967 L11.5289518,2.82631521 C11.3648115,2.86146895 11.3446493,2.88925161 11.3352571,3.03772141 C11.3136625,3.37786147 11.3288499,3.71847231 11.3874638,4.0814453 C11.5932055,3.83640322 11.6995173,3.24957335 11.6373439,2.80491967 Z M38.4018111,2.80562585 C38.4065572,3.21450009 38.4542551,3.61207556 38.5982981,3.99717531 C38.650742,3.68575296 38.671862,3.37762608 38.6882359,3.06949921 C38.6974908,2.8988407 38.6533524,2.77031719 38.4018111,2.80562585 Z M37.9466638,2.74348261 C37.9181874,2.79009004 37.8572005,2.84493615 37.8666926,2.88212794 C37.890067,2.97298888 37.9181281,3.06273171 37.947702,3.15209204 L38.0377881,3.41976108 L38.1172847,3.37950921 C38.106606,3.20955688 38.1056568,3.0381922 38.0797908,2.87082916 C38.0724344,2.82280939 37.9931752,2.78538222 37.9466638,2.74348261 Z M12.0001804,2.75854764 L11.9826199,3.11728359 C12.1290359,2.99794033 12.1838529,2.88000942 12.0001804,2.75854764 Z M31.5587017,2.53680927 C32.1989454,2.83222503 32.63938,2.859295 32.9333985,2.59024304 L32.5750708,2.59024304 L32.6289123,2.49833592 C32.6353722,2.48659252 32.6406456,2.47576453 32.6448379,2.46454422 C32.6567031,2.43276643 32.6586015,2.39745778 32.6640595,2.36897546 C32.2893579,2.05896546 31.9343525,2.11545931 31.5587017,2.53680927 Z M17.36062,2.36544459 L17.4887637,2.62319779 L17.0962644,2.55469899 C17.0924675,2.72041429 17.1821681,2.7463073 17.2872934,2.75972459 C17.7213207,2.81527688 18.1126335,2.68181016 18.5238798,2.52221503 C18.1097859,2.160419 17.6294844,1.98505267 17.36062,2.36544459 Z M20.8577939,1.96242822 L20.5764244,1.96549638 C20.4297369,1.96760548 20.2834348,1.96904608 20.1384901,1.96292591 C20.0699095,1.96010122 19.9980067,2.039428 19.8798297,2.10863297 C20.3297564,2.32113676 20.7172035,2.55670609 21.1507987,2.68259454 L21.3260215,2.72856838 C21.3937641,2.74583652 21.4647771,2.76048961 21.5160346,2.73806862 C21.7811021,2.62107927 22.0359657,2.48055082 22.2929649,2.34920261 C21.8418412,2.00361718 21.3511484,1.96192838 20.8577939,1.96242822 L20.8577939,1.96242822 Z M28.819512,1.91019832 C28.4545398,2.02789384 28.0909915,2.15053257 27.7272059,2.27199435 L27.7229344,2.36567999 C27.8825919,2.44552463 28.0461982,2.51859001 28.2031827,2.6025926 L28.3195144,2.66792209 C28.4618962,2.75242747 28.5924129,2.75525216 28.74666,2.7121756 C29.1314793,2.60490148 29.4824623,2.42955461 29.8305427,2.24531187 L30.0625056,2.12181486 C30.0027053,1.98322839 29.9072649,1.96658918 29.8056176,1.9644486 L29.754413,1.96408907 C29.7372632,1.96404034 29.7200773,1.9638969 29.7029914,1.9631613 C29.5798311,1.9579827 29.4568488,1.94909669 29.3338961,1.93926911 L28.9649788,1.90972753 C28.916569,1.90619667 28.8634131,1.89583946 28.819512,1.91019832 Z M34.6505237,2.16842229 C34.292908,2.27670217 33.9414621,2.05990702 33.6320188,2.33201907 C33.7812825,2.49867593 33.8961372,2.72112046 34.1082861,2.68251633 C34.3434535,2.63967516 34.5375675,2.47184135 34.6505237,2.16842229 Z M15.3819868,2.20796799 L15.4376289,2.29659788 C15.7734115,2.81469359 15.9786641,2.8071408 16.3492342,2.31695404 C16.0478593,2.06367328 15.6983118,2.27905608 15.3819868,2.20796799 Z M24.8169207,2.52904137 L25.1548403,2.52904137 L25.1021699,2.45352753 C25.0046304,2.31928072 24.9821052,2.34445199 24.8169207,2.52904137 Z M23.4882606,2.36968163 C24.0314474,2.59612782 24.4498128,2.50715 24.798411,2.10816218 L24.568227,1.73318425 C24.0563642,1.70964515 23.8677083,2.16206673 23.4882606,2.36968163 Z M25.4369937,1.70187724 L25.1928088,2.11851939 C25.572731,2.5097393 25.9595351,2.58694757 26.5086544,2.37156476 C26.1315798,2.16230212 25.9433985,1.73836286 25.4369937,1.70187724 Z M28.0582437,1.3640911 L27.1230322,1.67127641 C27.1467625,1.90690284 27.0575365,2.15123875 27.4467136,2.22632849 C27.4559684,1.84146413 27.8778933,1.75225093 28.0582437,1.3640911 Z M22.8226254,1.62231507 L21.9970479,1.36856353 L22.6130868,2.21785441 L22.6727337,2.1843466 C22.8928559,2.05745143 22.8953497,2.00495227 22.8226254,1.62231507 Z M14.7763893,1.66703937 C15.1468194,1.99705761 15.3043887,2.01965515 15.7714012,1.78850115 C15.4368038,1.52392161 15.09485,1.48837757 14.7763893,1.66703937 Z M24.7910546,1.65173895 L24.9920503,1.93609133 L25.2359979,1.63078915 L25.16178,1.59692272 C25.008999,1.52939446 24.9847829,1.54298829 24.7910546,1.65173895 Z M33.7836555,1.44694874 C33.5641501,1.52250927 33.3641036,1.65456364 33.13653,1.77272995 C33.2122436,1.90521357 33.2810205,1.98473501 33.388364,1.89079861 L33.4089539,1.8711234 C33.5214158,1.75460484 33.6512256,1.71146779 33.8055117,1.72122413 L33.848202,1.72518096 C34.0442143,1.74895545 34.1635778,1.64044018 34.2883992,1.43823927 C34.086217,1.43823927 33.9201048,1.40010593 33.7836555,1.44694874 Z M34.2630078,1.82239746 C34.7485299,2.01777202 35.0033934,1.95657035 35.2644268,1.5820632 C35.2102122,1.58304098 35.1557898,1.5807205 35.1014585,1.57742974 L34.9390371,1.5669746 C34.6967122,1.5539096 34.4622876,1.56833809 34.2630078,1.82239746 Z M15.7977418,1.48602366 C15.9036653,1.62062454 16.0027246,1.69530769 16.1437711,1.72033059 L16.1873935,1.72635791 C16.3148253,1.73953981 16.4455793,1.79156123 16.5590102,1.85417525 L16.6217287,1.88883812 C16.7294325,1.94601138 16.7418691,1.92442266 16.8594359,1.7188254 C16.7691584,1.70007528 16.6853726,1.65854353 16.6027914,1.61164088 L16.4874274,1.54423764 C16.2891675,1.4287405 16.0836348,1.32910712 15.7977418,1.48602366 Z M12.7588384,1.81462955 L13.4171171,1.24545401 C13.0509585,1.13223092 12.855658,1.29676926 12.7588384,1.81462955 Z M36.6255974,1.25792974 L37.2463823,1.7896781 L37.30642,1.72541635 C37.1922772,1.27534867 37.0019601,1.12563997 36.6255974,1.25792974 Z M17.6228399,1.48155123 C18.1026668,1.69552169 18.2198945,1.69269699 18.4261109,1.46295533 L18.1609237,1.39139111 C17.742941,1.28192233 17.7271383,1.30818929 17.6228399,1.48155123 Z M31.5603628,1.53498499 C31.8489234,1.70964515 32.1130417,1.63031837 32.4189254,1.49755782 C32.1982335,1.30383099 31.9020792,1.32572236 31.5603628,1.53498499 Z M13.9183013,1.47660802 L13.7479177,1.47660802 L13.7474431,1.55499323 L13.9225727,1.53427882 L13.9183013,1.47660802 Z M29.0639342,1.17248279 L29.4951139,1.46460307 L29.456038,1.34378423 C29.3516223,1.0321483 29.3103039,1.03741703 29.0639342,1.17248279 Z M20.4389158,1.43141293 C20.704458,1.46813394 20.835212,1.28288119 21.0127147,1.14470664 L20.9124785,1.11252485 C20.6513915,1.03275063 20.6223102,1.07475492 20.4389158,1.43141293 Z M32.6270402,1.2456894 L32.6734635,1.28636854 C32.8246392,1.41479495 32.8682743,1.39590982 33.1562261,1.2035544 C32.9616376,1.06514447 32.8114247,1.2009651 32.6270402,1.2456894 Z M16.8829289,1.22944742 C17.0658896,1.29959395 17.2061357,1.45895369 17.4206577,1.2379215 C17.2296287,1.18213382 17.0851111,1.07008768 16.8829289,1.22944742 Z M26.6550705,1.21744248 L26.4400738,1.04937327 L26.4547866,1.32501618 L26.6550705,1.21744248 Z M23.8983204,0.97451892 L23.9979877,0.75348673 L23.8363843,0.936620962 L23.8983204,0.97451892 Z" id="57"></path>
            </g>
        </g>
    </g>
</svg>