<?xml version="1.0" encoding="UTF-8"?>
<svg width="61px" height="57px" viewBox="0 0 61 57" version="1.1" xmlns="http://www.w3.org/2000/svg" xmlns:xlink="http://www.w3.org/1999/xlink">
    <title>39</title>
    <g id="页面-1" stroke="none" stroke-width="1" fill="none" fill-rule="evenodd">
        <g id="4、动物" transform="translate(-721.000000, -325.000000)" fill="#545458">
            <path d="M727.776026,348.53522 C727.553452,348.683295 726.432735,348.905897 726.432735,348.905897 C726.432735,348.905897 726.366061,347.85074 727.619145,347.323162 C728.291771,347.040741 728.564351,347.046625 728.647694,347.121152 L727.950556,347.513404 C727.908394,347.533017 727.874076,347.551649 727.850544,347.570281 C728.196662,347.891927 727.9986,348.387145 727.776026,348.53522 M781.829267,353.275581 C781.809657,353.032385 781.786125,352.79017 781.757691,352.548935 C780.949755,345.564894 776.31197,340.918673 769.826914,338.716179 C765.643102,337.296228 761.204359,336.725502 757.034275,335.264365 C756.234183,334.982924 755.347807,334.632839 754.493788,334.194498 L754.493788,334.194498 C751.189488,332.867707 749.857963,330.45634 750.699236,329.071691 C750.501174,329.962102 750.911025,330.895661 750.911025,330.895661 C751.356174,331.590928 752.329815,332.439172 753.09755,332.723554 C753.68095,332.939293 754.329063,332.904971 754.939917,332.785334 C755.588031,332.658833 756.227319,332.43623 756.760714,332.04692 C758.120673,331.052562 758.5217,329.02266 757.793185,327.502684 C755.616465,322.959429 749.473606,325.346281 747.61555,328.782406 C746.476204,330.889778 746.29285,333.415879 746.698779,335.777234 C747.322379,339.398697 748.904913,342.770101 751.625813,345.257957 C753.659379,347.116249 756.253793,347.962532 758.455025,349.628621 C760.850397,351.440824 762.987897,353.640375 764.468458,356.271403 C766.626548,360.107625 767.210929,364.858773 765.226388,368.89014 C765.144026,369.055866 765.057741,369.221593 764.968515,369.3883 C765.041073,369.237283 765.111669,369.084305 765.179324,368.929365 C766.352007,366.241461 766.467706,363.405481 765.805866,360.717576 C765.228349,358.36995 764.056646,356.136077 762.479015,354.212082 C760.258173,351.505546 757.034275,349.53252 753.52603,349.125558 C749.500079,348.657798 745.036824,350.138548 741.577605,348.055692 C739.806814,346.989748 738.728259,345.211867 737.422227,343.685028 C736.790783,342.947594 736.133845,342.346469 735.322968,341.799278 C734.278731,341.094205 732.907986,340.632329 732.069654,339.659545 C731.416639,338.901518 731.189162,336.652936 729.80665,337.020672 C729.909603,336.841216 730.023342,336.667645 730.139041,336.497996 C730.515555,335.948844 730.951879,335.440878 731.423502,334.969195 C731.599012,334.792682 731.509786,334.563215 731.346042,334.46221 L730.418485,335.080006 L731.115624,333.513941 C731.053852,333.421762 730.942074,333.359983 730.827355,333.35508 L729.96059,334.528893 L730.201794,332.901048 C730.036088,332.84123 729.836066,332.894184 729.789001,333.110903 C729.578193,334.079765 729.217367,335.00744 728.976163,335.967476 C728.715349,337.006943 728.651616,338.159182 728.583962,339.227087 C728.532975,339.615416 728.514346,340.01061 728.510424,340.39992 C728.462379,340.287147 726.021904,341.750246 725.779719,341.936566 C724.287392,343.082921 723.318653,344.672521 722.82546,346.481782 C722.274416,348.50384 722.082238,351.012289 722.363642,353.097107 C722.430317,353.592324 722.861738,354.069891 723.231389,354.356235 C723.671635,354.695532 724.137375,354.845569 724.700184,354.875968 C726.003274,354.945593 727.35539,355.020121 728.684954,354.926961 C728.684954,354.926961 730.454764,354.512155 732.564809,353.654104 C731.242109,354.545496 730.363577,355.0819 729.782138,355.405508 C730.676358,356.262578 731.07052,357.977698 729.692912,358.08949 C727.533841,358.266003 725.58754,356.555786 723.387289,357.504054 C722.817616,357.750192 722.130282,358.192456 721.936142,358.815156 C721.772398,359.341754 722.10577,359.78794 722.580334,359.998775 C722.991165,360.182153 723.437294,360.237068 723.888326,360.2557 C724.094232,360.296886 724.302099,360.325325 724.504083,360.345918 C724.94433,360.391027 725.387518,360.392988 725.829725,360.399852 C726.4043,360.546947 726.932792,360.812697 727.451479,361.138266 C728.888898,362.038484 730.200813,363.135808 731.567636,364.134088 C732.928576,365.128446 734.368937,366.1787 735.94951,366.804342 C736.232876,366.917114 736.523105,367.003409 736.817256,367.068131 C739.082221,367.047538 742.175712,361.172588 742.175712,361.172588 C742.175712,361.172588 741.599176,363.546692 739.786223,365.783507 C741.877639,364.576352 745.753572,365.129427 745.753572,365.129427 C741.597215,365.307902 739.473442,366.982816 738.43803,368.293918 C738.242909,369.510878 738.259578,370.770987 738.411556,371.979122 C738.518431,372.826386 738.688058,373.666785 738.965541,374.476785 C739.275381,375.382886 739.724451,376.244859 740.282358,377.022498 C740.562783,377.413769 740.871642,377.783466 741.210896,378.123745 C741.349147,378.262994 741.964904,378.710161 741.845282,378.743502 C741.156968,378.937667 740.088219,379.662352 739.568551,380.03401 C739.555805,380.366444 739.634245,380.693974 739.829365,380.962666 C740.341189,381.665777 741.372679,381.690293 742.250231,381.660874 C747.445923,381.486322 752.679855,381.837387 757.874567,381.988404 C758.709956,382.01292 759.573781,382.031552 760.343477,381.712848 C761.114153,381.394143 761.481842,380.837146 761.649508,380.184047 C764.529249,376.270355 768.644426,373.913904 772.632137,371.28974 C778.849515,367.197574 782.427375,360.853884 781.829267,353.275581" id="39"></path>
        </g>
    </g>
</svg>
