<?xml version="1.0" encoding="UTF-8"?>
<svg width="61px" height="54px" viewBox="0 0 61 54" version="1.1" xmlns="http://www.w3.org/2000/svg" xmlns:xlink="http://www.w3.org/1999/xlink">
    <title>animal-sea-tortoise-svgrepo-com</title>
    <g id="页面-1" stroke="none" stroke-width="1" fill="none" fill-rule="evenodd">
        <g id="形状库素材-动物" transform="translate(-561.000000, -160.000000)" fill="#545458" fill-rule="nonzero">
            <g id="animal-sea-tortoise-svgrepo-com" transform="translate(561.737868, 160.083830)">
                <polygon id="路径" points="26.2587627 26.2481324 22.5796473 32.6098044 26.3055574 39.0525168 33.6169935 39.0525168 37.2617291 32.7499566 33.5014392 26.2481324"></polygon>
                <path d="M29.961753,13.6101192 C20.5980342,13.6101192 12.981955,22.1479645 12.981955,32.6403137 C12.981955,43.132663 20.5980342,51.6657412 29.961753,51.6657412 C39.3254717,51.6657412 46.9367759,43.132663 46.9367759,32.6403137 C46.9367759,22.1479645 39.3206967,13.6101192 29.961753,13.6101192 Z M45.5400968,33.1465779 L38.181866,33.1465779 L34.4908132,39.5292251 L38.2047859,45.9514391 L41.4565414,45.9514391 C41.1542857,46.2817979 40.8420026,46.6011924 40.517782,46.9048556 L38.181866,46.9048556 L36.6061255,49.6297201 C36.1091223,49.8763683 35.5990372,50.0958199 35.0781347,50.2871009 L37.3099563,46.4257638 L33.5945511,40.0059334 L26.3284773,40.0059334 L22.6149821,46.4281473 L24.8468037,50.2894844 C24.3259054,50.098193 23.8158209,49.8787416 23.3188129,49.6321037 L21.7430724,46.9072392 L19.4047689,46.9072392 C19.0805484,46.603576 18.7687427,46.2841814 18.4660096,45.9538226 L21.717765,45.9538226 L25.4317377,39.5316086 L21.7411624,33.1465779 L14.3829316,33.1465779 L13.5516091,34.5843301 C13.4981294,34.0056063 13.4709121,33.4187784 13.4661371,32.8252766 L13.5095894,32.7499566 L13.4618396,32.6684395 L13.4618396,32.6503246 C13.4618396,32.0572995 13.489057,31.4709483 13.5377617,30.8922245 L14.2673773,32.1540713 L21.6724028,32.1540713 L25.3491307,25.7923993 L21.6246531,19.3496869 L18.4660096,19.3496869 C18.7682652,19.019328 19.0805484,18.6999335 19.4047689,18.3962703 L21.6012557,18.3962703 L23.1196966,15.7710378 C23.603624,15.5224097 24.1004441,15.2996317 24.6080551,15.1036462 L22.463138,18.8124367 L26.1876156,25.2551491 L33.5019167,25.2551491 L37.2263943,18.8124367 L35.0165376,14.9911431 C35.5125983,15.1702077 35.9990251,15.3748314 36.4738588,15.6041899 L38.0882766,18.3957936 L40.516827,18.3957936 C40.8410476,18.6994568 41.1528532,19.0188513 41.4555864,19.3492102 L38.0653567,19.3492102 L34.4215761,25.6517704 L38.181866,32.1535946 L45.4245425,32.1535946 L46.3523194,30.5489945 C46.4096191,31.1210445 46.4428847,31.6989738 46.4521163,32.2827825 L46.2974073,32.5502159 L46.4564138,32.8247998 C46.4516388,33.4178249 46.4244215,34.0051296 46.3709418,34.5838534 L45.5400968,33.1465779 Z" id="形状"></path>
                <ellipse id="椭圆形" cx="25.4274402" cy="5.44887343" rx="1" ry="1"></ellipse>
                <path d="M58.9935784,23.5876235 L53.9321089,14.3442499 C52.7230136,12.1326487 50.6832567,10.4912959 48.2617486,9.78142124 C45.8402405,9.07154659 43.2354306,9.35132624 41.0205865,10.5591862 L36.8663615,12.8283176 C36.4700388,12.6519355 36.0689412,12.4946218 35.6678437,12.3563764 L35.6678437,7.95588228 C36.796044,7.43532176 37.4387122,6.22816138 37.2397094,5.00335702 C37.0407067,3.77855267 36.0487756,2.83610052 34.8136013,2.69826665 C34.7601216,2.61198245 34.700912,2.522838 34.6316749,2.42654293 C34.6268999,2.42177585 34.6268999,2.42177585 34.6268999,2.41700877 L34.6221249,2.41700877 C34.4378074,2.14967972 34.2300762,1.89921879 34.0013787,1.66857677 C32.8135571,0.481212343 31.1611768,-0.12191638 29.4863465,0.020562911 C27.8115161,0.163042202 26.2851739,1.03658765 25.3157059,2.4074746 C25.3109309,2.41224168 25.3109309,2.41224168 25.3109309,2.41700877 C25.3082938,2.41700877 25.3061559,2.41914306 25.3061559,2.42177585 C25.2364414,2.51425726 25.1753217,2.60721537 25.1189771,2.69731324 C23.882281,2.83263598 22.8877417,3.774649 22.6873834,5.00048314 C22.4870251,6.22631727 23.1300248,7.43509673 24.2594822,7.95588228 L24.2594822,12.3516093 C23.8583846,12.4946218 23.471612,12.6471685 23.0991642,12.8092493 L18.978364,10.5591862 C16.7635198,9.35132624 14.1587099,9.07154659 11.7372018,9.78142124 C9.31569375,10.4912959 7.27593683,12.1326487 6.0668416,14.3442499 L1.00632702,23.5876235 C-1.16859475,27.5786804 0.297940723,32.5741392 4.2867323,34.7616656 C4.54284569,34.9019995 4.83020038,34.9757686 5.12235228,34.9761843 C5.75948859,34.9722844 6.34516601,34.6261945 6.65511807,34.0704386 L15.488815,17.9243291 C15.9064404,17.1774958 16.6614308,16.6797409 17.5134028,16.5895459 C13.3544028,20.6367992 10.990792,26.4192707 10.990792,32.6403137 C10.9845966,35.5677129 11.5288148,38.470266 12.5951824,41.1972274 L10.818893,43.1994022 C9.5365442,44.6385293 8.88032756,46.527835 8.99498777,48.4505865 C9.10964798,50.3733379 9.98576486,52.171567 11.4300894,53.4486302 C11.7612831,53.743527 12.1896012,53.9062702 12.6333821,53.9062702 C13.1585793,53.9062702 13.6588051,53.6824521 14.0085739,53.2913165 L17.8381008,48.9914078 C24.6101839,55.5647537 35.3991431,55.5414762 42.1427047,48.9389699 L46.0199814,53.2913165 C46.3405976,53.653417 46.7925479,53.8730142 47.2757989,53.9015031 C47.3139986,53.9015031 47.3521984,53.9062702 47.3903982,53.9062702 C47.8341298,53.9062702 48.2623557,53.7432946 48.593691,53.4486302 C50.0372229,52.171331 50.9131642,50.3736894 51.0286908,48.4514262 C51.1442175,46.5291629 50.4898593,44.6398551 49.2096623,43.1994022 L47.3617484,41.1257211 C48.408483,38.4191358 48.9412189,35.5416183 48.9327139,32.6403137 C48.9327139,26.4192707 46.5643282,20.6272651 42.4005532,16.5800118 C43.2859374,16.6446892 44.0792314,17.1499818 44.5110905,17.9243291 L53.3447874,34.0704386 C53.5657335,34.4757066 53.9392584,34.7764338 54.3827931,34.9061435 C54.8263278,35.0358532 55.3033449,34.983863 55.7083982,34.7616656 C59.7004977,32.5770478 61.1697166,27.5797228 58.9935784,23.5876235 Z M34.4979757,3.63261488 L34.4979757,3.63261488 C35.5027275,3.63261488 36.3172398,4.44578153 36.3172398,5.44887343 C36.3172398,6.45196533 35.5027275,7.26513198 34.4979757,7.26513198 L34.4979757,7.26513198 C33.4932239,7.26513198 32.6787116,6.45196533 32.6787116,5.44887343 C32.6787116,4.44578153 33.4932239,3.63261488 34.4979757,3.63261488 L34.4979757,3.63261488 Z M23.6062646,5.44887343 C23.6053006,4.71286845 24.0487774,4.04884378 24.7296983,3.76674138 C25.4106191,3.48463898 26.1947225,3.64008273 26.7160183,4.16051729 C27.2373141,4.68095185 27.3930151,5.46375991 27.1104458,6.14355583 C26.8278766,6.82335175 26.1627531,7.26609597 25.4255302,7.26513355 C24.4213237,7.26381888 23.6075814,6.45142092 23.6062646,5.44887343 L23.6062646,5.44887343 Z M47.977843,32.6403137 C47.9872528,35.5118856 47.4442097,38.3585566 46.3781043,41.0256124 C46.3688913,41.0419236 46.362438,41.059641 46.3590044,41.0780503 C45.7492632,42.5657126 44.9723355,43.9794641 44.0431433,45.2921515 C43.9715187,45.3922602 43.9046691,45.4971361 43.8330446,45.5972448 C43.8043947,45.6353815 43.7709699,45.6735181 43.7423201,45.7116548 C43.5656462,45.9500089 43.3889722,46.183596 43.2027484,46.4076489 C43.1979734,46.412416 43.1979734,46.412416 43.1979734,46.417183 C42.763451,46.9415622 42.3098287,47.4405168 41.8371066,47.914047 C38.7372995,51.1240221 34.4663289,52.9421267 30.0001496,52.9529558 C25.5339704,52.9636885 21.2542432,51.1662244 18.138924,47.971252 C17.6548603,47.4947527 17.1958479,46.9935373 16.7637323,46.469621 C15.4432384,44.8536033 14.3728899,43.0490685 13.5883764,41.116187 C12.4945889,38.424233 11.9366636,35.5453016 11.9456762,32.6403137 C11.9456762,26.3048607 14.4956209,20.450883 18.9411192,16.5704776 C20.2366865,15.4293609 21.6945827,14.4863462 23.2672432,13.7722 C23.7953152,13.5326907 24.3356323,13.3210581 24.8859585,13.138178 C24.9146083,13.1286438 24.9384832,13.1238767 24.967133,13.1143426 C28.8251088,11.8679939 33.0107694,12.1095005 36.6992375,13.7912683 C38.2626629,14.5069804 39.7122356,15.4482083 41.0014866,16.5847789 C45.4374349,20.4651843 47.977843,26.3191619 47.977843,32.6403137 Z" id="形状"></path>
                <ellipse id="椭圆形" cx="34.5013182" cy="5.44887343" rx="1" ry="1"></ellipse>
            </g>
        </g>
    </g>
</svg>
