<?xml version="1.0" encoding="UTF-8"?>
<svg width="61px" height="61px" viewBox="0 0 61 61" version="1.1" xmlns="http://www.w3.org/2000/svg" xmlns:xlink="http://www.w3.org/1999/xlink">
    <title>turtle-svgrepo-com</title>
    <g id="页面-1" stroke="none" stroke-width="1" fill="none" fill-rule="evenodd">
        <g id="形状库素材-动物" transform="translate(-401.000000, -158.000000)" fill="#545458" fill-rule="nonzero">
            <g id="turtle-svgrepo-com" transform="translate(401.047687, 158.474264)">
                <path d="M35.4007211,23.1569416 L28.8335337,21.2906135 C28.2172446,21.1151838 27.5660337,21.279012 27.1241196,21.7189338 L20.8892759,27.954715 C20.4484166,28.3955744 20.2845884,29.0469025 20.4600181,29.6641291 L22.3254087,36.2311993 C22.4997837,36.8474884 22.9872837,37.3359259 23.6034556,37.5093634 L30.1716977,39.374754 C30.7870493,39.5501837 31.4382602,39.3863555 31.8801743,38.9444415 L38.1149008,32.7095978 C38.5557601,32.2687384 38.7195883,31.618465 38.5452133,31.0021759 L36.6788852,24.4349885 C36.502518,23.8197541 36.0160727,23.3314338 35.4007211,23.1569416 Z" id="路径"></path>
                <path d="M30.6921274,11.417098 C29.1241587,11.5061605 27.131854,12.1021761 27.131854,12.1021761 C26.814979,12.1632308 26.5416977,12.3541292 26.3759946,12.6274105 C26.2103923,12.9026839 26.1657603,13.2370199 26.2568149,13.5519027 L27.8072055,19.0075667 C27.982518,19.6229182 28.470018,20.110301 29.0853696,20.2857307 L35.6515023,22.1520588 C36.2688461,22.3273713 36.920057,22.1645979 37.3609164,21.7226838 L42.4910335,16.5925667 C42.7449788,16.3378011 42.8631038,15.9762776 42.8108382,15.6119417 C42.7595101,15.2476058 42.5424788,14.9229964 42.2246663,14.7310433 C42.2246663,14.7310433 40.8543929,13.5837777 39.1392367,12.8665902 C36.6672836,11.8366292 33.7552914,11.2397933 30.6921274,11.417098 Z" id="路径"></path>
                <path d="M13.5246276,26.2404963 L18.4289244,27.6329182 C19.0462681,27.8082307 19.6964244,27.6445197 20.1383384,27.2036603 L26.3740024,20.9688167 C26.8139243,20.5270198 26.9777524,19.8756917 26.8024399,19.2594026 L26.5554087,18.3931526 L25.3488462,14.1487386 C25.2490024,13.7950667 24.9942368,13.503387 24.6599009,13.3540902 C24.3235728,13.2049105 23.9447056,13.2155745 23.6279478,13.3831527 C23.6279478,13.3831527 22.3138072,13.9035823 21.0600181,14.7418245 C19.7372056,15.6275276 18.4600963,16.6847933 17.238065,17.9065901 C16.044276,19.1004964 15.0160729,20.3630745 14.1595494,21.6878791 C13.3029088,23.0124494 12.7456823,24.5456135 12.7456823,24.5456135 C12.5895885,24.8604963 12.586776,25.2356135 12.7378307,25.5639729 C12.8890026,25.8925666 13.1786901,26.14159 13.5246276,26.2404963 Z" id="路径"></path>
                <path d="M45.1491976,17.6547542 C44.9564241,17.3369417 44.6318148,17.1199104 44.2674788,17.0675276 C43.9040804,17.0161995 43.542557,17.1344417 43.2887288,17.388387 L38.1576742,22.5194416 C37.7157601,22.9593635 37.5529867,23.6116291 37.7273617,24.227801 L39.5947445,30.7949884 C39.7691195,31.41034 40.2566195,31.8977228 40.8729086,32.072215 L46.3275179,33.6226056 C46.6434554,33.7136603 46.9777913,33.6690705 47.2520101,33.5044806 C47.5262288,33.3387775 47.7160725,33.0645587 47.7772444,32.7486212 C47.7772444,32.7486212 48.37326,30.7543244 48.46326,29.1883478 C48.6385725,26.125301 48.0436116,23.2113166 47.012596,20.740301 C46.2965804,19.0250276 45.1491976,17.6547542 45.1491976,17.6547542 Z" id="路径"></path>
                <path d="M45.7316194,34.5296368 L41.4862679,33.3240119 L40.6209554,33.0779181 C40.0036117,32.9015509 39.3533383,33.0663165 38.9124789,33.5061212 L32.6766977,39.7419024 C32.2358383,40.182879 32.0720102,40.8340899 32.2474399,41.450379 L33.6399789,46.3556133 C33.738768,46.7024883 33.9877914,46.9903008 34.316268,47.1414727 C34.6448617,47.2936992 35.0189242,47.289832 35.3347445,47.1346758 C35.3347445,47.1346758 36.8668539,46.5765117 38.1924789,45.7198711 C39.5162289,44.8632305 40.778807,43.8350274 41.9736507,42.6403008 C43.195682,41.4192071 44.2528304,40.1420977 45.1386507,38.8184649 C45.9778304,37.5664337 46.4972054,36.2505353 46.4972054,36.2505353 C46.6649007,35.9355353 46.6745101,35.5546759 46.5253304,35.2204571 C46.376971,34.8842462 46.0843538,34.6303009 45.7316194,34.5296368 Z" id="路径"></path>
                <path d="M31.3453305,42.0667852 L31.2426743,41.7033868 C31.0682993,41.086043 30.5798618,40.5986602 29.9635727,40.424168 L23.3954478,38.5587774 C23.0059165,38.4483868 22.601854,38.4745196 22.24619,38.6188946 L21.5164634,38.2738946 L21.1957212,37.7699884 C21.3954087,37.3843243 21.4467369,36.9249493 21.3207603,36.4840899 L19.4553697,29.915965 C19.2809947,29.2986213 18.7934947,28.812176 18.1772056,28.6367463 L17.811815,28.53409 L13.0248229,27.1735432 C12.7050182,27.083426 12.3678698,27.1279414 12.0906041,27.2975275 C11.8163854,27.4670978 11.6284166,27.745301 11.5702916,28.0669806 C11.5702916,28.0669806 11.1303698,29.6804181 11.0441198,31.0544416 C10.9221276,33.0051447 11.104237,34.8657306 11.4802916,36.5702228 C9.45107291,38.2215118 7.4984948,40.7526446 6.44521356,44.6248711 C6.60119012,45.0686602 12.059901,40.8136993 12.059901,40.8136993 C12.059901,40.8136993 7.75923699,44.5124883 5.71560419,50.4661992 C7.01509637,49.7665898 12.6093932,45.0765117 12.6093932,45.0765117 C12.6093932,45.0765117 12.1266979,49.164832 4.03138546,53.3520585 C7.41329949,53.8782304 11.195526,52.803621 14.4650572,48.9313945 C13.7818541,50.8190507 11.2565807,55.1486601 11.2565807,55.1486601 C11.2565807,55.1486601 17.3295885,52.0825664 19.5854478,48.6241289 C19.4643931,49.6464726 15.9245103,54.3908085 15.9245103,54.3908085 C15.9245103,54.3908085 20.8326744,51.4120195 23.4908384,48.4370976 C25.1459946,48.7878398 26.9444712,48.9526055 28.826268,48.8363555 C30.1994712,48.7499883 31.8129086,48.3091289 31.8129086,48.3091289 C32.135643,48.2519414 32.4137289,48.0630351 32.5832993,47.7877617 C32.7526153,47.5106133 32.7974008,47.1753398 32.7063461,46.8545977 L31.3453305,42.0667852 Z" id="路径"></path>
                <path d="M46.8916585,18.4959261 C46.8916585,18.4959261 49.7231428,17.5520979 50.5497835,16.9610042 C51.3764241,16.3708479 53.0286506,13.3039339 53.0286506,12.3579964 C53.0286506,11.4142855 53.5005647,10.4713949 51.4937288,8.46444177 C49.4878303,6.45842617 48.5430647,6.92940272 47.6001741,6.92940272 C46.6543538,6.92940272 43.5873226,8.58174646 42.9972835,9.40826989 C42.4061898,10.2349105 41.4632992,13.0673324 41.4632992,13.0673324 C41.4632992,13.0673324 43.8228695,14.4830745 44.6485726,15.309598 C45.4748616,16.1353011 46.8916585,18.4959261 46.8916585,18.4959261 Z" id="路径"></path>
                <path d="M18.4522447,4.6667465 L26.3459946,6.91780116 C26.3459946,6.91780116 27.2026352,9.16311364 27.3819321,10.7242855 C31.5904868,9.27268395 35.189432,10.3540902 35.189432,10.3540902 L34.1166977,5.40807461 C33.3143149,1.71221527 29.6853696,-0.630948767 25.9728696,0.150105913 L18.5762291,1.7082309 C17.8882213,1.85366058 17.3852525,2.44674652 17.35619,3.14729339 C17.3271275,3.84795744 17.7787681,4.47584806 18.4522447,4.6667465 Z" id="路径"></path>
                <path d="M54.5915803,25.8838947 L49.6465022,24.8111604 C49.6465022,24.8111604 50.728846,28.4102228 49.2763069,32.6186603 C50.8374788,32.7979572 53.0827912,33.6545978 53.0827912,33.6545978 L55.3338459,41.5494024 C55.525799,42.2218243 56.1527522,42.6745196 56.853299,42.6444024 C57.5538459,42.6153399 58.1469318,42.1114336 58.2923615,41.423543 L59.849549,34.0277228 C60.6316584,30.3162775 58.2883771,26.6852229 54.5915803,25.8838947 Z" id="路径"></path>
                <path d="M9.74638541,30.2638947 L5.2374792,29.6641291 C3.43302609,29.3627228 1.75372923,30.7358087 1.49204955,31.4451447 L0.113221435,35.1701837 C-0.120450438,35.799129 0.0133776855,36.5055353 0.461033931,37.0045196 C0.907752677,37.5045587 1.59576048,37.7158477 2.24603391,37.5530743 L9.74638541,35.6779571 C8.99544791,33.4219806 9.74638541,30.2638947 9.74638541,30.2638947 Z" id="路径"></path>
                <path d="M29.2745102,49.7919023 C29.2745102,49.7919023 26.1173618,50.5440117 23.8613853,49.7919023 L21.9863853,57.2933085 C21.8245494,57.9435819 22.0338462,58.6315897 22.5348228,59.077371 C23.0338072,59.5259647 23.7402134,59.6607304 24.3691587,59.426121 L28.0940805,58.0482304 C28.8035337,57.7845585 30.1766196,56.1061991 29.8753305,54.3018632 L29.2745102,49.7919023 Z" id="路径"></path>
            </g>
        </g>
    </g>
</svg>
