<?xml version="1.0" encoding="UTF-8"?>
<svg width="32px" height="60px" viewBox="0 0 32 60" version="1.1" xmlns="http://www.w3.org/2000/svg" xmlns:xlink="http://www.w3.org/1999/xlink">
    <title>11</title>
    <g id="页面-1" stroke="none" stroke-width="1" fill="none" fill-rule="evenodd">
        <g id="4、动物" transform="translate(-94.000000, -168.000000)" fill="#545458">
            <path d="M106.742808,227.128382 C105.483285,223.989812 104.750374,220.478745 104.315581,216.943155 C103.410364,209.582722 103.085029,202.159534 103.124513,194.701016 C103.126148,194.383368 103.154301,194.065881 103.281048,193.923915 C103.63991,194.418698 104.105427,193.484145 104.432047,193.113905 C105.491462,191.913811 106.091903,191.192368 107.03415,190.086972 C105.462492,190.21829 104.093044,190.292016 102.953142,191.779912 C100.875665,194.491455 98.7280984,197.10088 96.6022595,199.741602 C96.2904745,200.129103 96.1689846,200.561937 96.152163,201.144803 C95.9624519,207.739428 96.7830925,214.094164 98.483016,220.246598 C98.5383873,220.446802 98.6611622,220.869957 98.7241266,221.065643 C98.9835776,221.870491 99.1451357,222.497883 98.8814794,221.823062 C95.924019,214.603143 93.9853212,206.288152 94.3043489,197.885724 C95.1877204,198.394703 95.8789276,197.931379 96.506119,197.249621 C98.7992401,194.756511 101.126705,192.315026 103.11984,189.344556 C103.383613,188.951408 103.653695,188.846225 104.036738,188.847999 C105.002115,188.852194 105.967726,188.756528 106.946771,188.591009 C106.629729,187.843593 106.143302,187.587409 105.610499,187.45109 C104.190236,187.087465 102.819036,187.465771 101.472718,188.042183 C100.159226,188.604399 98.7375606,189.27067 97.6359747,190.542391 C97.5580576,190.63241 97.3463849,190.281368 97.2377449,190.160859 C96.6923256,189.555892 96.0305563,188.598108 95.5095517,187.952809 C95.4405127,187.867469 95.7058045,187.446896 95.7261307,187.318965 C96.2277437,186.200018 96.2922267,182.740897 96.80447,180.24085 C97.6184521,176.267265 98.8319489,172.05379 100.44975,169.026535 C100.511546,168.911026 100.581286,168.801648 100.704528,168.731472 C99.5371742,171.682744 98.8324162,174.843737 98.3102434,178.092652 C97.7858511,181.355119 97.5644826,184.659853 97.5449741,188.116877 C99.1352063,187.58386 100.663292,187.085045 102.18577,186.555255 C102.86401,186.319237 103.543069,186.066925 104.199231,185.736694 C104.777242,185.445826 105.289252,185.509549 105.820069,185.909473 C106.233952,186.221313 106.67704,186.458783 107.178069,186.774011 C106.991044,185.310797 105.814579,184.583707 105.493098,184.544183 C104.368849,184.405928 103.235022,184.504013 102.107386,184.549991 C101.798988,184.562574 101.333355,184.618876 101.08395,184.867961 C100.817607,185.133824 100.954867,185.430016 100.74191,185.146246 C100.475917,184.792139 100.066473,184.237666 99.8544496,183.829031 C99.7427724,183.613985 99.7213949,183.632538 99.7645004,183.351349 C100.346834,179.551833 101.267236,174.52625 102.448725,170.258893 C102.586219,169.762013 103.070894,168.117632 103.220303,168.097628 C102.984566,169.013145 102.785743,169.936083 102.714017,170.348751 C101.837655,175.38611 100.766792,179.609749 101.103225,183.149693 C101.12028,183.329893 101.439425,183.283754 101.843028,183.259555 C103.123228,183.183088 104.038607,183.215191 105.31133,183.03483 C105.836657,182.96046 106.379273,182.630067 106.495039,182.869957 C106.826449,183.556554 107.697438,184.770844 108.205592,185.478897 C108.262249,184.547248 108.495299,183.933247 109.110458,183.752725 C109.002402,184.24428 108.867712,184.632589 108.854862,185.387426 C108.848437,185.573917 108.854395,185.805741 108.913621,185.881886 C109.035462,185.493739 109.183819,185.074134 109.3629,185.014444 C109.632982,185.52068 110.266481,185.620056 110.629666,185.041062 C110.811433,185.120918 110.982453,185.462926 111.133148,185.713302 C111.481964,185.013476 111.189103,184.135386 111.015513,183.646896 C111.225083,183.662221 111.459184,183.753531 111.6135,183.975514 C111.870731,184.39286 111.915706,184.641462 111.954256,185.378553 C112.312767,184.954593 113.405358,183.786925 113.79985,183.211803 C114.117242,182.748963 113.921574,183.209706 114.364311,183.272945 C115.657126,183.457501 116.821794,183.535904 118.119632,183.648832 C118.306423,183.665125 118.632109,183.614469 118.854062,183.583979 C118.901022,178.305923 117.702945,172.996571 116.59692,168.000027 C116.731377,168.06504 116.886744,168.483194 116.899711,168.523686 C118.333641,173.031578 119.709514,179.180303 120.731664,183.886624 C120.667298,184.224115 120.320117,184.45497 119.774348,185.025575 C119.593281,185.214809 119.422728,185.439695 119.375066,185.497611 C118.620544,185.324671 115.953024,184.840052 115.17584,184.792461 C113.80242,184.70825 113.313657,185.203516 112.788447,187.265889 C113.286439,186.954372 113.774267,186.546543 114.147031,186.248899 C114.764994,185.755246 115.290087,185.959483 115.97335,186.217764 C118.146851,187.03939 120.336472,187.779708 122.600038,188.579717 C122.78017,181.828607 121.3286,174.730326 119.188393,168.790356 C119.252292,168.74954 119.700169,169.457271 119.779955,169.687159 C120.564499,171.481088 121.161318,173.044646 121.733138,174.894393 C122.819304,178.408365 123.673588,182.034134 124.025091,185.852202 C124.139688,186.994703 124.628452,187.740668 124.628452,187.740668 C124.512686,188.007176 123.096978,189.621712 122.657279,190.0368 C122.13347,189.623325 121.893294,189.445707 121.297527,189.054979 C119.394108,188.220286 117.246424,187.18071 114.982974,187.34994 C114.269105,187.403338 113.735017,187.558371 112.952225,188.288526 C113.763053,188.857195 114.602267,188.875425 115.407371,188.757819 C116.134558,188.651506 116.627176,188.983189 117.107061,189.663011 C119.207784,192.638965 121.561417,195.189507 124.066795,197.483219 C124.560464,197.935251 125.039882,198.155459 125.580511,197.681487 C126.57042,201.394372 122.390702,221.041606 120.91168,222.21379 C121.115526,221.608984 121.478476,220.639746 121.540974,220.427927 C123.769028,212.230704 123.849281,202.893884 123.866336,202.41362 C123.933973,200.510474 123.695316,199.786934 122.880166,198.842701 C120.987143,196.650139 119.103583,194.441929 117.214883,192.242429 C117.066175,192.069167 116.888146,191.938171 116.755441,191.745872 C115.413796,189.802073 115.344874,190.417526 112.947552,190.101007 C114.011756,191.383538 114.963349,192.556851 115.942861,193.683703 C116.095775,193.859547 116.19834,193.965698 116.487696,193.566097 C116.777053,194.019097 116.748783,199.054036 116.707546,201.653298 C116.630213,206.524009 116.326255,211.368747 115.594279,216.14347 C115.016735,219.910237 114.302982,223.619734 112.88669,226.990449 C112.780737,227.242599 112.552359,227.772873 112.384143,227.766904 C113.806275,224.24293 114.370969,219.248161 114.671306,214.949668 C115.080166,209.09649 114.930991,202.616728 114.655069,196.763066 C114.636845,196.376694 114.798286,196.604323 114.859382,196.207303 C114.898048,195.955314 114.968139,195.677675 114.927603,195.443431 C114.742798,194.375785 112.737281,191.655047 111.811271,191.296261 C111.937083,191.856864 112.00402,192.367295 112.162073,192.769799 C112.479582,193.578197 112.643477,194.581636 112.542664,195.366318 C111.988366,199.680137 111.247979,203.166845 110.099666,206.863758 C110.070462,206.957488 110.016609,207.036537 109.923739,207.224964 C109.811712,206.87376 109.726202,206.605478 109.601791,206.215072 C109.489063,206.541916 109.412664,206.763253 109.27774,207.154304 C108.99516,206.34268 108.719705,205.650114 108.506747,204.922701 C107.498615,201.478906 107.022702,197.865074 106.796427,194.185261 C106.76804,193.723873 106.977143,193.226348 107.100385,192.7577 C107.221525,192.296796 107.373504,191.851379 107.511932,191.399186 C107.458196,191.333204 107.404577,191.267384 107.350958,191.201563 C107.104941,191.414028 106.812665,191.566641 106.621318,191.849604 C105.918663,192.88805 105.240773,193.959568 104.576901,195.045928 C104.477606,195.208382 104.460901,195.522642 104.479709,195.755433 C104.518959,196.240536 104.546178,196.243117 104.72666,196.532211 C104.489171,202.954219 104.306235,210.040723 104.868009,216.443049 C105.22068,220.462289 105.83876,224.389736 107.273158,227.986306 C107.1894,228.092457 106.908221,227.561377 106.742808,227.128382" id="11"></path>
        </g>
    </g>
</svg>
