<?xml version="1.0" encoding="UTF-8"?>
<svg width="60px" height="39px" viewBox="0 0 60 39" version="1.1" xmlns="http://www.w3.org/2000/svg" xmlns:xlink="http://www.w3.org/1999/xlink">
    <title>2</title>
    <g id="页面-1" stroke="none" stroke-width="1" fill="none" fill-rule="evenodd">
        <g id="4、动物" transform="translate(-160.000000, -96.000000)" fill="#545458">
            <path d="M190,96.0000266 C199.08094,96.0000266 206.883051,100.830761 210.28434,107.737779 C210.868374,107.597077 211.478311,107.52287 212.105056,107.52287 C216.458138,107.52287 220,111.101741 220,115.499743 C220,119.898879 216.458138,123.477183 212.105056,123.477183 C211.478422,123.477183 210.86859,123.403014 210.283712,123.262904 C206.882625,130.169556 199.080692,135.000027 190,135.000027 C180.919308,135.000027 173.117065,130.169556 169.715469,123.262607 C169.130965,123.403035 168.52109,123.477183 167.894382,123.477183 C163.541862,123.477183 160,119.898879 160,115.499743 C160,111.101741 163.541862,107.52287 167.894382,107.52287 C168.521095,107.52287 169.130975,107.597031 169.71588,107.737122 C173.117065,100.830497 180.919308,96.0000266 190,96.0000266 Z M196.886167,104.103229 C193.933451,104.103229 191.353975,105.749859 190.000346,108.182017 C188.646306,105.749859 186.06683,104.103229 183.114114,104.103229 C178.761031,104.103229 175.21917,107.682101 175.21917,112.08067 C175.21917,116.323736 178.515027,119.803509 182.655385,120.044095 C182.300278,120.950695 182.105056,121.938179 182.105056,122.970843 C182.105056,127.369412 185.646918,130.948283 190,130.948283 C194.353082,130.948283 197.894944,127.369412 197.894944,122.970843 C197.894944,121.938179 197.699722,120.950695 197.344071,120.04428 C201.484395,119.803824 204.780549,116.323927 204.780549,112.08067 C204.780549,107.682101 201.238688,104.103229 196.886167,104.103229 Z M190.527153,114.725143 L190.527067,120.12303 C192.025532,119.911238 193.287636,118.80923 193.692316,117.298198 L194.708447,117.576158 C194.134137,119.723821 192.197874,121.223668 190,121.223668 C187.802126,121.223668 185.866425,119.723821 185.292114,117.576158 L186.308245,117.298198 C186.712512,118.809566 187.975035,119.911728 189.473933,120.123171 L189.47397,114.725143 L190.527153,114.725143 Z M212.105056,110.359192 C211.847095,110.359192 211.593561,110.378683 211.34582,110.416282 C211.841132,112.036924 212.105056,113.741157 212.105056,115.499743 C212.105056,117.258421 211.841132,118.962732 211.346318,120.583531 C211.593561,120.620808 211.847095,120.640294 212.105056,120.640294 C214.910363,120.640294 217.193009,118.334931 217.193009,115.499743 C217.193009,112.665122 214.910363,110.359192 212.105056,110.359192 Z M167.894663,110.359192 C165.089356,110.359192 162.807272,112.665122 162.807272,115.499743 C162.807272,118.334931 165.089356,120.640294 167.894663,120.640294 C168.152573,120.640294 168.406065,120.620808 168.653772,120.583217 C168.158321,118.962732 167.894382,117.258421 167.894382,115.499743 C167.894382,113.741157 168.158321,112.036924 168.653161,110.41619 C168.406065,110.378683 168.152573,110.359192 167.894663,110.359192 Z M183.114394,109.776441 C184.373611,109.776441 185.394794,110.807728 185.394794,112.08067 C185.394794,113.353611 184.373611,114.384898 183.114394,114.384898 C181.854617,114.384898 180.833433,113.353611 180.833433,112.08067 C180.833433,110.807728 181.854617,109.776441 183.114394,109.776441 Z M196.886448,109.776441 C198.145664,109.776441 199.166848,110.807728 199.166848,112.08067 C199.166848,113.353611 198.145664,114.384898 196.886448,114.384898 C195.62667,114.384898 194.604925,113.353611 194.604925,112.08067 C194.604925,110.807728 195.62667,109.776441 196.886448,109.776441 Z" id="2"></path>
        </g>
    </g>
</svg>
