<?xml version="1.0" encoding="UTF-8"?>
<svg width="38px" height="61px" viewBox="0 0 38 61" version="1.1" xmlns="http://www.w3.org/2000/svg" xmlns:xlink="http://www.w3.org/1999/xlink">
    <title>giraffe-svgrepo-com</title>
    <g id="页面-1" stroke="none" stroke-width="1" fill="none" fill-rule="evenodd">
        <g id="形状库素材-动物" transform="translate(-644.000000, -238.000000)" fill="#545458" fill-rule="nonzero">
            <g id="giraffe-svgrepo-com" transform="translate(644.361917, 238.947256)">
                <path d="M34.4062328,4.21193667 C33.1070972,4.21193667 31.8880004,3.70721208 30.9697228,2.79010629 C30.3092566,2.02077336 29.3825415,1.54850958 28.3824673,1.46073648 L28.3824673,0.945113496 C28.3824673,0.42316241 27.9593048,0 27.4373538,0 C26.9154027,0 26.4922403,0.42316241 26.4922403,0.945113496 L26.4922403,1.44468186 L26.1035308,1.44468186 L26.1035308,0.945113496 C26.1035308,0.42316241 25.6803684,0 25.1584173,0 C24.6364663,0 24.2133039,0.42316241 24.2133039,0.945113496 L24.2133039,1.64753263 C24.0662341,1.69733712 23.9220941,1.75522752 23.7818212,1.82296163 C23.2970184,1.51546283 22.7818641,1.35093222 22.2847567,1.35093222 C21.7442901,1.35093222 21.2454248,1.55214237 20.8800356,1.91764876 C20.4040219,2.39354534 20.2155851,3.08026141 20.362772,3.80143046 C20.4849981,4.40013906 20.8228483,4.98982426 21.3399948,5.50720505 C21.4081976,5.57529072 21.4778067,5.64044672 21.5489393,5.70255585 L19.6671497,29.2766044 L11.110855,29.2766044 C11.0819098,29.2766044 11.053199,29.2773075 11.024371,29.2783622 L11.0026914,29.2789481 C11.0002305,29.2789481 10.9975352,29.2792997 10.9949571,29.2794169 C8.73828618,29.3098855 6.6924348,30.2259366 5.1892766,31.6961652 C2.20885856,32.2426084 0,34.8659576 0,37.9295784 L0,39.4005102 C0,39.9224612 0.42316241,40.3456236 0.945113496,40.3456236 C1.46706458,40.3456236 1.89022699,39.9224612 1.89022699,39.4005102 L1.89022699,37.9295784 C1.89022699,36.7328643 2.37069386,35.6322436 3.15666736,34.8248249 C2.8198718,35.7375948 2.63530221,36.7234894 2.63530221,37.7518057 C2.63530221,37.9585236 2.6444428,38.1768431 2.66366147,38.4187171 L3.55404862,58.7805516 C3.568697,59.4553146 4.12228858,60 4.80068437,60 L7.52469717,60 C8.20309296,60 8.75656736,59.4553146 8.77133292,58.7804345 L9.01320698,53.2488545 L9.25519822,58.7804345 C9.2698466,59.4553146 9.82343819,60 10.501834,60 L13.2258468,60 C13.9041254,60 14.457717,59.4553146 14.4724825,58.7804345 L15.0213866,46.2272413 L19.3796899,46.2272413 L19.9284768,58.7805516 C19.9431252,59.4554318 20.496834,60 21.1752298,60 L23.8992426,60 C24.5775212,60 25.13123,59.455549 25.1458783,58.7805516 L25.3878696,53.2489717 L25.6297436,58.7804345 C25.6442748,59.4553146 26.1979836,60 26.8763794,60 L29.6005094,60 C30.278788,60 30.8322624,59.455549 30.8470279,58.7805516 L31.6832747,39.6556263 C31.8244851,39.0416834 31.9004223,38.4045375 31.9004223,37.75204 L31.9004223,30.2218351 C31.9004223,30.2019133 31.8998363,30.1819915 31.8985473,30.1619525 L30.6510912,10.4835528 L34.4062328,10.4835528 C36.1353276,10.4835528 37.5419237,9.07683954 37.5419237,7.34762755 C37.5419237,5.61864993 36.1350932,4.21193667 34.4062328,4.21193667 Z M11.4505803,31.166597 L14.6523646,31.166597 C14.8867387,31.4957754 15.0142382,31.8869458 15.0142382,32.2986238 C15.0142382,33.3808462 14.133812,34.2612724 13.0515896,34.2612724 C11.9692501,34.2612724 11.0887066,33.3808462 11.0887066,32.2986238 C11.0885895,31.8868286 11.216089,31.4956582 11.4505803,31.166597 Z M12.6099117,58.1095386 L11.1180034,58.1095386 L10.5975758,46.2102492 C10.7682001,46.2204445 10.9390588,46.2270069 11.1109722,46.2270069 L13.1296362,46.2270069 L12.6099117,58.1095386 Z M28.9846915,58.1095386 L27.492666,58.1095386 L26.9396604,45.4643537 C27.9635236,44.9987695 28.8714888,44.338069 29.6219546,43.5331112 L28.9846915,58.1095386 Z M30.0105468,36.4149359 C29.6514857,36.1335698 29.4195726,35.6970481 29.4195726,35.2065031 C29.4195726,34.7160753 29.6516029,34.2795536 30.0105468,33.9981875 L30.0105468,36.4149359 Z M32.5419041,8.59332581 L29.644103,8.59332581 C29.3831274,8.59332581 29.1336362,8.70137226 28.954926,8.89156683 C28.7762157,9.08199577 28.6842239,9.3376979 28.7008644,9.59808751 L28.9481291,13.4973692 C27.1010269,14.0973668 25.7959149,15.8297429 25.7959149,17.8398522 C25.7959149,20.066406 27.3970414,21.9249925 29.5080488,22.3272956 L29.8214069,27.2693075 C29.2850419,26.6352085 28.48442,26.2316163 27.5908688,26.2316163 C25.9798985,26.2316163 24.6692786,27.542119 24.6692786,29.1530892 C24.6692786,30.7640595 25.9798985,32.0746794 27.5908688,32.0746794 C28.5963336,32.0746794 29.4847286,31.5640955 30.0105468,30.7885516 L30.0105468,31.9136644 C28.579693,32.3249909 27.5293456,33.6448686 27.5293456,35.2061515 C27.5293456,36.7522002 28.5588338,38.0617654 29.9682423,38.4868028 C29.6498451,41.3405416 27.5018066,43.6960012 24.6250991,44.2254522 C24.1918586,44.3051394 23.8711177,44.6735755 23.8520162,45.1136128 L23.283659,58.1094214 L21.7916336,58.1094214 L21.2290186,45.240292 C21.2069875,44.7348643 20.7907391,44.3365456 20.2848426,44.3365456 L11.1109722,44.3365456 C10.3080066,44.3365456 9.52144718,44.1922883 8.77297354,43.9079925 C8.48949809,43.8004148 8.17121808,43.8351022 7.91774251,44.0019766 C7.66438412,44.1687337 7.5062988,44.4470529 7.49305667,44.7502158 L6.90887926,58.1094214 L5.41697103,58.1094214 L4.55154472,38.3191081 C4.55107597,38.3076238 4.55037285,38.2961395 4.54943535,38.2848895 C4.5336151,38.0868434 4.52588076,37.9123519 4.52588076,37.7516885 C4.52588076,34.7488877 6.54688849,32.2110851 9.29937774,31.4219476 C9.23351862,31.706009 9.19859688,31.9993281 9.19859688,32.2985066 C9.19859688,33.0778005 9.43179909,33.8030711 9.83117253,34.4099828 C9.44047094,34.1740853 8.98461334,34.0355702 8.49594338,34.0355702 C7.06614427,34.0355702 5.90306288,35.1986516 5.90306288,36.6285679 C5.90306288,38.0584841 7.06614427,39.2215655 8.49594338,39.2215655 C9.92562529,39.2215655 11.0888239,38.0584841 11.0888239,36.6285679 C11.0888239,36.1882961 10.9778477,35.7738056 10.7834344,35.4102914 C11.420346,35.8756411 12.2042101,36.1513822 13.0517068,36.1513822 C15.1761907,36.1513822 16.9045824,34.4229905 16.9045824,32.2985066 C16.9045824,31.9088597 16.8471608,31.5284706 16.7361846,31.1664798 L20.5399588,31.1664798 C21.0328475,31.1664798 21.442885,30.7878485 21.4820255,30.2966004 L21.6660091,27.9927032 C24.1248276,27.9225081 26.1037652,25.9019691 26.1037652,23.4267444 C26.1037652,21.1992531 24.5012324,19.3401979 22.3888188,18.9388323 L22.6722942,15.3872446 C23.1315503,15.7990398 23.7358838,16.0519295 24.3997484,16.0519295 C25.8295475,16.0519295 26.9927461,14.8888481 26.9927461,13.4589318 C26.9927461,12.0292499 25.8296647,10.8661685 24.3997484,10.8661685 C23.8841255,10.8661685 23.4043617,11.0190976 23.0001836,11.2797216 L23.4746739,5.33587759 C23.5042051,4.9668556 23.3163542,4.62513818 23.0108476,4.4459592 C22.8971762,4.3708423 22.7847938,4.27814735 22.6766302,4.1701009 C22.4297171,3.9231878 22.2615537,3.6509623 22.2150304,3.42326788 C22.1956945,3.32858075 22.204718,3.26635443 22.2170226,3.25416698 C22.2293272,3.24186234 22.2758505,3.24115921 22.2851083,3.24115921 C22.4397952,3.24115921 22.7312393,3.34498693 23.0504568,3.6356108 C23.3769399,3.95963297 23.9001801,4.00463279 24.280452,3.7215089 C24.6200601,3.46861926 25.0244726,3.33490885 25.4500959,3.33490885 L27.9080941,3.33490885 C27.9398518,3.33760415 27.9721954,3.33842446 28.0036015,3.33772134 C28.0231718,3.33736978 28.0425076,3.33631509 28.0638357,3.33502604 C28.6396928,3.3407682 29.1814485,3.59752501 29.5525799,4.04119515 C29.5763688,4.06978879 29.6017984,4.09674181 29.6285171,4.12193702 C30.6067945,5.10126914 31.8321022,5.74157913 33.1648704,5.98755474 C32.8038172,6.80844997 32.5931149,7.68735278 32.5419041,8.59332581 Z M29.3813696,20.3290222 C28.3902016,19.9357424 27.6861419,18.9695353 27.6861419,17.8398522 C27.6861419,16.8363795 28.2416084,15.9522033 29.0748083,15.4942364 L29.3813696,20.3290222 Z M28.6221148,29.1533236 C28.6221148,29.7220323 28.1594603,30.184804 27.5908688,30.184804 C27.0222773,30.184804 26.5593884,29.7221495 26.5593884,29.1533236 C26.5593884,28.5846149 27.0221601,28.1220776 27.5908688,28.1220776 C28.1595775,28.1220776 28.6221148,28.5846149 28.6221148,29.1533236 Z M9.19836251,36.6288022 C9.19836251,37.0163398 8.88324655,37.3315729 8.495709,37.3315729 C8.10817145,37.3315729 7.7930555,37.016457 7.7930555,36.6288022 C7.7930555,36.2411475 8.10817145,35.9260315 8.495709,35.9260315 C8.88324655,35.9260315 9.19836251,36.2412647 9.19836251,36.6288022 Z M21.8177663,26.0904059 L22.2364756,20.8441764 C23.3736587,21.1539017 24.213421,22.1926477 24.213421,23.4266272 C24.213421,24.8082625 23.1621361,25.948258 21.8177663,26.0904059 Z M23.6969777,13.459049 C23.6969777,13.0716286 24.0120937,12.7565127 24.3995141,12.7565127 C24.7870516,12.7565127 25.1022848,13.0716286 25.1022848,13.459049 C25.1022848,13.8465865 24.7871688,14.1618197 24.3995141,14.1618197 C24.0120937,14.1617025 23.6969777,13.8465865 23.6969777,13.459049 Z M34.4350608,8.59180238 C34.4957637,7.79094613 34.7236925,7.02020695 35.1057222,6.3180222 C35.4350178,6.54243538 35.6515795,6.92012922 35.6515795,7.34762755 C35.6515795,8.02473428 35.1083004,8.57633369 34.4350608,8.59180238 Z" id="形状"></path>
                <path d="M17.9684064,35.9228675 C17.9684064,38.4423889 20.0181249,40.4921075 22.5376463,40.4921075 C25.0571677,40.4921075 27.1070035,38.4423889 27.1070035,35.9228675 C27.1070035,33.4033461 25.0571677,31.3536275 22.5376463,31.3536275 C20.0181249,31.3535103 17.9684064,33.4032289 17.9684064,35.9228675 Z M25.2168937,35.9228675 C25.2168937,37.4001273 24.0150234,38.6018805 22.5377635,38.6018805 C21.0605037,38.6018805 19.8587506,37.4001273 19.8587506,35.9228675 C19.8587506,34.4456076 21.0605037,33.2438545 22.5377635,33.2438545 C24.0149062,33.2437373 25.2168937,34.4454904 25.2168937,35.9228675 Z" id="形状"></path>
                <path d="M27.4372366,4.49763868 C27.0392694,4.49763868 26.7166535,4.8203718 26.7166535,5.21845618 C26.7166535,5.61654056 27.0393866,5.93927367 27.4372366,5.93927367 C27.8355553,5.93927367 28.1582884,5.61654056 28.1582884,5.21845618 C28.1582884,4.82025461 27.8355553,4.49763868 27.4372366,4.49763868 Z" id="路径"></path>
                <path d="M15.6204468,37.3315729 C14.1906477,37.3315729 13.0274491,38.4946543 13.0274491,39.9244534 C13.0274491,41.3541353 14.1905305,42.5172167 15.6204468,42.5172167 C17.0501287,42.5172167 18.2130929,41.3541353 18.2130929,39.9244534 C18.2130929,38.4945371 17.0501287,37.3315729 15.6204468,37.3315729 Z M15.6204468,40.6267554 C15.2329092,40.6267554 14.9176761,40.3116394 14.9176761,39.924219 C14.9176761,39.5367987 15.2329092,39.2215655 15.6204468,39.2215655 C16.0078672,39.2215655 16.3228659,39.5366815 16.3228659,39.924219 C16.3228659,40.3116394 16.0078672,40.6267554 15.6204468,40.6267554 Z" id="形状"></path>
            </g>
        </g>
    </g>
</svg>
