<?xml version="1.0" encoding="UTF-8"?>
<svg width="39px" height="60px" viewBox="0 0 39 60" version="1.1" xmlns="http://www.w3.org/2000/svg" xmlns:xlink="http://www.w3.org/1999/xlink">
    <title>20</title>
    <g id="页面-1" stroke="none" stroke-width="1" fill="none" fill-rule="evenodd">
        <g id="4、动物" transform="translate(-807.000000, -165.000000)" fill="#545458">
            <path d="M838.474611,165.361371 C838.708423,165.617942 838.88066,165.914696 838.915969,166.270972 C839.01474,167.269385 838.945015,168.252968 838.506721,169.149467 L838.389353,169.371736 C838.037774,169.990385 837.769945,170.647712 837.412983,171.261096 C837.24559,171.548932 837.04192,171.807007 836.813706,172.046065 L836.089125,172.776453 C835.783189,173.089108 835.417292,173.307214 835.031481,173.511031 L834.215806,173.924028 L832.56722,174.714204 C832.293252,174.847436 832.020586,174.983276 831.750577,175.124481 C831.277678,175.371812 830.771085,175.5449 830.303676,175.80609 C829.912267,176.024842 829.554552,176.274966 829.240111,176.597828 L828.612817,177.227228 C828.509251,177.333134 828.407273,177.440635 828.308523,177.551372 C828.215946,177.655268 828.173855,177.747345 828.226495,177.888953 C828.586041,178.857109 828.533723,179.850944 828.445129,180.857886 C828.375373,181.651772 828.038972,182.31458 827.606764,182.949882 C827.517201,183.081712 827.47285,183.182278 827.543144,183.359234 C827.945749,184.372408 828.018304,185.4306 827.889018,186.502545 C827.730667,187.815267 827.427637,189.095755 827.033429,190.359698 C826.638145,191.627294 826.548043,192.924651 826.85032,194.230067 L826.930049,194.565502 C827.029069,194.954828 827.162213,195.331486 827.467144,195.636584 C827.540022,195.709537 827.436895,195.866939 827.533133,195.991786 C827.713013,196.225149 827.894831,196.450454 828.145759,196.609898 C828.44599,196.800607 828.747944,196.992712 829.080146,197.121749 C829.999032,197.478778 830.943215,197.716868 831.940468,197.671421 C833.40104,197.604807 834.862581,197.569781 836.324229,197.560111 C837.447323,197.552698 838.553517,197.724282 839.648946,197.960224 C840.091595,198.055632 840.477514,198.273201 840.825326,198.562004 L841.932381,199.463654 C842.103757,199.067302 842.246283,198.6789 842.356515,198.27868 L842.504639,197.727505 C842.647058,197.246382 842.885929,197.05664 843.39629,197.073938 C844.070706,197.096716 844.624341,197.400238 845.037603,197.918536 C845.838291,198.922685 846.148964,200.059095 845.933667,201.340873 C845.819129,202.022697 845.647107,202.680133 845.317165,203.2875 C845.196922,203.508937 845.202089,203.710283 845.270016,203.938488 C845.659702,205.247127 845.911492,206.578651 845.833124,207.950572 C845.770257,209.052708 845.643232,210.14872 845.375726,211.223888 C845.355273,211.30583 845.346063,211.390924 845.330681,211.474012 L845.300803,211.596495 C845.206934,211.885728 845.270016,212.104801 845.476916,212.345685 C845.819237,212.744294 845.811702,213.261088 845.816976,213.757575 C845.827418,214.755278 845.514592,215.677556 845.152356,216.589735 C844.819615,217.427672 844.59237,218.300098 844.333799,219.162209 C844.016882,220.21879 843.704056,221.279024 843.248166,222.285536 C842.950303,222.943401 842.591942,223.573761 842.267598,224.219915 C842.077598,224.598646 841.783934,224.828571 841.366366,224.9084 C840.639633,225.04743 839.924741,225.063439 839.248709,224.704369 C838.826082,224.479923 838.756434,224.329827 838.880014,223.873523 C839.072059,223.163764 839.326539,222.473022 839.515247,221.761114 C839.872854,220.41197 840.153816,219.044883 840.501412,217.693913 L840.706395,216.935112 L841.142027,215.424102 C841.271959,214.971128 841.274758,214.971987 840.834691,214.763336 C840.765581,214.820903 840.733171,214.896765 840.709906,214.97607 L840.667406,215.134869 C840.366975,216.129287 839.944906,217.069002 839.456719,217.980468 L839.207373,218.43397 C838.827589,219.108166 838.465138,219.792247 838.092998,220.470848 C837.688886,221.207682 837.188322,221.880374 836.683882,222.549413 C836.500772,222.792231 836.29947,223.022048 836.012049,223.15635 C835.765857,223.271313 835.51213,223.331158 835.238488,223.326538 C834.674089,223.316976 834.129496,223.192021 833.587917,223.052454 C833.46789,223.021511 833.349907,222.958443 833.248287,222.88592 C833.04677,222.742163 833.003064,222.576596 833.114265,222.35677 C833.222775,222.142209 833.338281,221.927648 833.478762,221.733287 C834.069105,220.916193 834.502174,220.01089 834.964524,219.122241 C835.075078,218.909722 835.156783,218.680012 835.231599,218.451591 L835.820112,216.602628 C835.986644,216.100232 836.031749,215.587305 836.005913,215.063313 C835.997947,214.900539 835.958117,214.816197 835.757245,214.826834 C834.738508,214.881015 833.723835,214.824849 832.709892,214.748589 L831.493297,214.653208 C830.858388,214.60443 830.225631,214.547163 829.624846,214.317024 C829.378978,214.222905 829.13903,214.113099 828.878306,214.002864 C828.703377,215.144216 828.381509,216.220781 827.996774,217.279833 C827.954253,217.397034 827.972807,217.451709 828.057545,217.502369 L828.116371,217.53275 C828.847272,217.869963 829.228338,218.401815 829.303266,219.164177 L829.315142,219.344215 C829.320955,219.508709 829.342808,219.672664 829.354434,219.837157 C829.399754,220.478154 829.03009,220.800156 828.410143,220.639746 C827.966955,220.525106 827.526782,220.412185 827.067016,220.374903 C826.90662,220.361902 826.84526,220.400366 826.785838,220.538644 L826.143151,222.022358 L825.497396,223.504783 C825.386196,223.760924 825.276071,224.017065 825.132146,224.257304 C824.949897,224.561579 824.69391,224.731444 824.328228,224.753685 C823.842412,224.783231 823.362193,224.770983 822.889186,224.651185 C822.322526,224.507751 822.117133,224.229047 822.119501,223.641234 C822.120448,223.392056 822.181059,223.159449 822.258948,222.929111 L822.319942,222.75656 C822.658819,221.827191 822.956466,220.884498 823.220958,219.931061 C823.271876,219.747659 823.259927,219.669011 823.048721,219.614646 C822.59423,219.497642 822.151257,219.337017 821.701611,219.200566 C821.356275,219.095703 821.04205,218.933681 820.764748,218.705153 C820.51974,218.50327 820.275163,218.299883 820.04415,218.082636 C818.781113,216.895192 818.359024,215.426465 818.66313,213.751344 C818.903509,212.427556 819.290182,211.137505 819.716899,209.862173 C819.792536,209.635982 819.775122,209.483742 819.633288,209.338371 L819.564792,209.276294 C819.226562,209.001244 818.967775,208.657753 818.738915,208.287079 C818.518021,207.929191 818.21596,207.633082 817.937581,207.320642 C817.345139,206.655654 816.947054,205.897372 816.736658,205.04658 L816.673467,204.759557 C816.572278,204.236854 816.395304,203.731878 816.322104,203.202084 C816.17624,202.145718 816.291208,201.100526 816.44493,200.057054 C816.584119,199.111997 816.905234,198.212819 817.172094,197.300962 C817.287816,196.905899 817.364785,196.514812 817.342717,196.104063 L817.325749,195.742804 L817.318065,195.381303 C817.317396,195.080276 817.292145,194.791812 817.076738,194.571828 L816.986724,194.492654 C816.957659,194.470521 816.929024,194.43528 816.920413,194.401006 C816.823744,194.01658 816.51727,193.974463 816.193033,193.931271 C815.272533,193.808573 814.353647,193.702958 813.420229,193.745398 L812.822642,193.773686 C812.423394,193.788625 812.02378,193.786118 811.631868,193.708545 C810.565612,193.49753 809.554903,193.125137 808.636017,192.531845 C808.165163,192.227785 807.798729,191.835194 807.602593,191.299382 C807.42422,190.812242 807.163604,190.357442 807.060046,189.840326 C806.849809,188.789332 807.186748,188.073986 808.14428,187.575564 C808.332664,187.477506 808.527651,187.396065 808.725317,187.320769 L809.023335,187.211122 C809.584829,187.008917 810.145999,186.80553 810.704694,186.595912 C811.68946,186.226313 812.561734,185.65193 813.410218,185.05015 C814.016062,184.620383 814.441596,184.002487 814.87628,183.408442 C815.280822,182.85544 815.662327,182.285463 816.050184,181.72032 C816.694567,180.781173 817.576206,180.176384 818.665822,179.863837 C818.913843,179.792754 819.167928,179.783144 819.422177,179.789185 L819.612804,179.795934 C819.767279,179.802595 819.886015,179.79357 819.9224,179.607266 C819.941992,179.506916 820.028218,179.437401 820.096898,179.362085 C820.458273,178.96627 820.654623,178.494494 820.758289,177.973402 C820.882623,177.347877 820.904367,176.714294 820.940645,176.081356 C820.950226,175.914499 820.925144,175.750973 820.874549,175.593356 C820.749489,175.203988 820.625942,174.814015 820.470939,174.435631 L820.304228,174.061561 C819.925629,173.283362 819.80657,172.44016 819.713024,171.595669 C819.669965,171.207805 819.771369,170.838206 820.071385,170.551552 C820.354823,170.280799 820.698544,170.217409 821.054106,170.384266 C821.412467,170.552519 821.676529,170.818007 821.837463,171.181482 C822.001842,171.552693 822.165144,171.925193 822.278175,172.315313 C822.486259,173.033453 822.74849,173.736336 822.885311,174.474782 C822.90824,174.59834 822.950761,174.720286 822.999956,174.83643 C823.116109,175.111158 823.254545,175.180673 823.542073,175.084942 C823.896989,174.966864 824.202926,174.767023 824.459667,174.490468 L824.626779,174.309242 C824.884787,174.02206 824.889573,173.9434 824.852045,173.42411 C824.815552,172.91849 824.750533,172.414697 824.690034,171.911011 C824.632335,171.430424 824.630397,170.948979 824.647836,170.466781 C824.656125,170.237178 824.695201,170.012195 824.793054,169.801932 C824.996509,169.364645 825.380275,169.19983 825.833259,169.374852 C826.347064,169.573511 826.639975,169.977384 826.784008,170.49031 C826.872108,170.80404 826.90702,171.12719 826.92865,171.451619 L826.99952,172.747873 C827.164114,172.640324 827.199854,172.504303 827.233332,172.374728 C827.280805,172.190466 827.304918,172.001691 827.300074,171.809586 C827.286123,171.261891 827.280439,170.713853 827.220907,170.169212 L827.165191,169.761427 C827.079395,169.246029 827.068308,168.726012 827.078857,168.205458 C827.084347,167.935672 827.131712,167.674589 827.294907,167.448747 C827.563274,167.077428 827.948009,167.008558 828.326501,167.264807 C828.553638,167.418555 828.71651,167.627744 828.827819,167.87529 C828.958719,168.166349 829.0415,168.471053 829.071965,168.78994 C829.132463,169.422771 829.143981,170.056139 829.111364,170.691119 L829.094683,170.962346 C829.089322,171.098202 829.095045,171.233849 829.141613,171.366711 C829.704614,171.290643 829.99268,171.004526 830.056624,170.454855 C830.138759,169.749501 830.164164,169.03813 830.288713,168.337288 C830.377631,167.836933 830.489585,167.342594 830.67657,166.868669 C830.736853,166.715995 830.802088,166.561064 830.892297,166.42515 C831.181871,165.988508 831.738843,165.981632 832.038966,166.412687 C832.263198,166.73469 832.343826,167.10676 832.351577,167.493979 C832.357605,167.796427 832.352761,168.09909 832.382903,168.409919 L832.442163,168.197265 L832.499486,167.984128 C832.574947,167.688126 832.673768,167.400398 832.819416,167.131471 C832.879377,167.020914 832.946872,166.909282 833.032883,166.818816 C833.402224,166.430093 833.899452,166.522385 834.102369,167.017261 C834.214969,167.291774 834.241773,167.588098 834.224011,167.878083 C834.139507,169.259352 833.611062,170.455607 832.67646,171.474583 C832.608426,171.548718 832.52995,171.615976 832.446953,171.673135 C832.362234,171.731476 832.267719,171.767576 832.162439,171.705045 C832.044779,171.635208 832.027448,171.526155 832.041227,171.408184 C832.062757,171.223707 832.18117,171.088545 832.279991,170.940061 L832.597698,170.466457 C832.913266,169.991607 833.210637,169.506468 833.383816,168.952069 C833.52096,168.512741 833.599436,168.064817 833.609124,167.605719 C833.612461,167.445201 833.632484,167.277914 833.54109,167.126637 C833.368638,167.139315 833.313414,167.278452 833.242151,167.393522 C833.085588,167.646224 832.978559,167.919624 832.892461,168.20107 L832.831365,168.413465 C832.660958,169.039849 832.476341,169.659357 832.051454,170.173143 C831.999944,170.235432 831.978286,170.305518 831.971313,170.380906 L831.968672,170.457971 C831.973516,170.777394 831.924213,171.088653 831.836372,171.396365 C831.779965,171.593843 831.791052,171.800131 831.825715,172.001154 C831.866514,172.238493 831.930672,172.283618 832.159963,172.234517 C832.446523,172.173275 832.723609,172.087645 832.969909,171.916812 L834.043916,171.192334 C834.157807,171.113579 834.281818,171.02956 834.356957,170.918143 L834.671221,170.453663 C834.982413,169.987329 835.273124,169.509181 835.441944,168.962921 C835.543348,168.634257 835.623439,168.309031 835.625269,167.959201 C835.62796,167.397497 835.738945,166.851264 835.945522,166.325552 C836.155759,165.7906 836.56999,165.43196 837.029002,165.134884 C837.427516,164.876917 838.153496,165.00907 838.474611,165.361371 Z M827.306415,177.602632 C826.959249,177.748538 826.667415,177.968256 826.445982,178.27382 L825.626886,179.420221 C825.365947,179.783159 825.243766,180.182519 825.2541,180.632807 C825.263143,181.028085 825.313738,181.415841 825.377358,181.804458 C825.412989,182.022564 825.303188,182.111418 825.091874,182.05297 C824.931479,182.008704 824.787553,181.927478 824.649117,181.835938 C823.788469,181.266605 822.783896,181.04592 821.837883,180.68352 C821.768342,180.656981 821.688036,180.657626 821.612467,180.647849 L820.529366,180.504665 C820.348724,180.481923 820.167935,180.460578 819.98687,180.441883 C819.456487,180.387088 818.935685,180.356897 818.411869,180.570169 C817.579855,180.908932 816.94107,181.457744 816.434908,182.181148 C815.881811,182.971488 815.333559,183.765267 814.775833,184.552384 C814.444815,185.019432 814.085592,185.466604 813.638421,185.829219 C812.786278,186.520176 811.875466,187.118304 810.84441,187.516052 L810.353857,187.705902 L810.399377,187.952509 C810.436679,188.189094 810.417477,188.271128 810.329313,188.454555 C810.045768,189.044624 809.572008,189.414545 808.979835,189.679174 C808.561944,189.865907 808.163753,189.991292 807.69882,189.72849 C807.784132,190.10355 807.967896,190.388256 808.109573,190.682897 L808.188405,190.861676 C808.40467,191.411132 808.791988,191.779872 809.322802,192.034508 C809.627985,192.180951 809.948131,192.236928 810.267631,192.314716 C811.000716,192.493284 811.521841,192.178802 811.941239,191.612478 L812.001338,191.524557 C812.049795,191.440289 812.053731,191.364422 811.926814,191.273929 C811.8281,191.203555 811.820457,191.077419 811.89678,190.965357 C811.972134,190.8548 812.082043,190.837824 812.200456,190.859957 C812.353747,190.888536 812.479265,190.980184 812.607581,191.060336 C812.694669,191.114808 812.680782,191.212365 812.604675,191.242664 C812.365373,191.33775 812.343951,191.552418 812.272042,191.753011 C812.154019,192.082333 811.982507,192.378669 811.704067,192.593074 L811.528836,192.71322 C811.507382,192.73382 811.494671,192.763951 811.508816,192.820229 C811.74069,192.874164 811.988496,192.888884 812.239101,192.894471 L813.420693,192.917133 C814.011407,192.930408 814.601681,192.952502 815.190089,193.009981 L816.293135,193.145602 C816.636533,193.188992 816.978065,193.242617 817.308259,193.370115 C817.75403,193.542236 817.982675,193.87928 818.107224,194.307865 C818.17838,194.552832 818.190113,194.810154 818.175473,195.063394 C818.129938,195.848255 818.083003,196.63376 817.822602,197.387033 C817.777174,197.518327 817.732285,197.6551 817.72109,197.792196 C817.645951,198.719846 817.394377,199.612901 817.203409,200.518311 C817.040968,201.288345 816.908345,202.063214 816.978424,202.857959 C817.083274,204.045726 817.506654,205.134109 818.095275,206.147498 C818.800622,207.361857 819.655401,208.463455 820.749657,209.354638 L821.054095,209.592398 C821.103614,209.629465 821.159268,209.668252 821.189409,209.719501 C821.393833,210.06643 821.709889,210.30119 822.046935,210.484808 L822.55557,210.743002 L823.593411,211.221642 C823.685127,211.264791 823.772365,211.303607 823.874967,211.295734 L823.955109,211.280413 C824.138541,211.22465 824.24113,211.323389 824.275578,211.50518 L824.431572,212.275871 L824.496472,212.662971 C824.651593,213.785628 824.638245,214.915699 824.609933,216.04491 C824.56246,217.947808 824.266535,219.806225 823.598147,221.597384 C823.501694,221.855888 823.429247,222.12331 823.345712,222.38665 C823.989341,222.577144 824.131544,223.227488 824.553095,223.6045 C824.657083,223.514679 824.664511,223.39327 824.707463,223.290556 L825.135376,222.231938 C825.20829,222.056279 825.283883,221.881889 825.364978,221.71009 C825.690593,221.020401 825.974388,220.315378 826.235875,219.601017 L827.042999,217.344094 C827.412125,216.289769 827.763489,215.230503 827.890514,214.112465 L827.953515,213.602709 L828.024106,213.093919 C828.045743,212.944038 828.064043,212.790934 828.148762,212.658136 C828.252105,212.496007 828.393878,212.39759 828.592489,212.42198 C828.790346,212.446369 828.910697,212.574332 828.966566,212.75709 C828.991971,212.840142 829.007796,212.935013 828.994232,213.019247 C828.962368,213.218014 829.042566,213.314712 829.228582,213.37735 C829.808161,213.572679 830.39366,213.736098 831.006501,213.783909 L832.779978,213.927212 L834.329154,214.032456 C834.880705,214.070087 835.432798,214.096027 835.988571,214.017595 C836.4877,213.947256 836.966352,213.808633 837.442421,213.660713 L838.156822,213.439236 C838.241757,213.41388 838.326691,213.380359 838.413563,213.3723 C838.5492,213.359622 838.668152,213.409475 838.731556,213.536793 C838.793024,213.660351 838.775262,213.78176 838.689358,213.893285 C838.60001,214.009322 838.476968,214.070348 838.343484,214.11816 C837.942172,214.261616 837.551882,214.437872 837.143239,214.559186 L836.832856,214.6385 C836.655304,214.675916 836.620994,214.748787 836.650095,214.89238 L836.666217,214.958353 C836.782692,215.377805 836.813264,215.811977 836.717457,216.240131 C836.439617,217.481619 836.048423,218.684213 835.433752,219.805473 C835.238585,220.161534 835.039005,220.515125 834.835873,220.866673 C834.784292,220.95585 834.776667,221.01548 834.841966,221.076652 L834.890128,221.113789 C835.247951,221.349623 835.419973,221.718363 835.563145,222.102896 L835.682527,222.45928 C835.899869,222.365699 836.024095,222.202602 836.142077,222.04144 C836.55437,221.478016 836.965156,220.912873 837.303279,220.300134 C838.087927,218.877822 838.793024,217.41479 839.522018,215.964114 C839.664759,215.680146 839.750555,215.373078 839.822249,215.063324 L839.890269,214.725621 C839.902023,214.669503 839.914957,214.613892 839.930531,214.559424 L839.986628,214.400087 C840.055461,214.240858 840.019898,214.158909 839.92495,214.07034 L839.872736,214.025115 C839.008751,213.316753 838.330459,212.44884 837.729889,211.51528 L837.681213,211.423668 C837.655427,211.377866 837.621014,211.33755 837.548932,211.327365 C837.278089,211.527528 836.97323,211.690517 836.646948,211.794091 C835.968871,212.009404 835.282613,212.184319 834.563738,212.224609 C833.722898,212.271669 832.886255,212.215369 832.048321,212.179484 C831.832056,212.170244 831.617513,212.132424 831.426975,212.018321 C831.32148,211.955253 831.252693,211.864035 831.285418,211.734353 C831.323956,211.581786 831.445383,211.654954 831.536777,211.654632 L833.723711,211.656311 C834.088136,211.654214 834.452466,211.648973 834.816604,211.637656 C835.53512,211.615308 836.227355,211.45535 836.857394,211.103602 L837.090674,210.9626 C837.248809,210.859457 837.426321,210.773611 837.361517,210.525743 C837.343109,210.455154 837.381001,210.375217 837.445375,210.323538 C837.486819,210.290231 837.568309,210.268528 837.574337,210.315695 C837.60534,210.559909 837.880382,210.622763 837.94637,210.815298 C838.012767,211.009209 838.132972,211.154298 838.260686,211.294573 L838.357156,211.399565 C838.648452,211.71813 838.951374,212.026165 839.24633,212.341613 C839.609148,212.729778 840.009169,213.072491 840.438622,213.380754 L840.766109,213.605664 C841.073767,213.808083 841.37529,214.020066 841.67606,214.232585 C842.102239,214.533529 842.194601,214.764851 842.057996,215.277025 C841.858739,216.024389 841.63257,216.764554 841.435358,217.512455 C840.99583,219.179733 840.636393,220.868285 840.092876,222.507844 C840.087494,222.524175 840.108808,222.549316 840.117743,222.570267 C840.805831,222.620657 841.16839,223.169469 841.641827,223.576135 L841.935761,223.033126 L842.229372,222.501075 C842.448867,222.113426 842.646401,221.717074 842.773964,221.288811 C843.031459,220.423778 843.338351,219.573666 843.578898,218.703433 L843.745059,218.046439 C843.998033,216.931733 844.407419,215.862904 844.727027,214.767537 C844.883009,214.233015 844.884732,213.689898 844.846301,213.144954 C844.830782,212.924609 844.788575,212.709413 844.673082,212.514722 L844.59462,212.400491 C844.479307,212.254457 844.416492,212.080298 844.401214,211.896334 L844.398592,211.756809 C844.403113,211.652268 844.24853,211.40107 844.57858,211.527528 C844.663299,211.559976 844.65458,211.447269 844.664591,211.396235 C844.804318,210.687335 844.950074,209.979402 845.074193,209.267709 C845.229421,208.377986 845.312095,207.485468 845.189484,206.579951 C845.064397,205.65692 844.793231,204.772783 844.528739,203.88596 C844.433147,203.565462 844.440037,203.270857 844.607753,202.97045 C844.896896,202.452475 845.04545,201.894101 845.045235,201.296188 C845.04502,200.96602 845.045773,200.636282 845.015632,200.307403 C844.93608,199.438093 844.468025,198.799138 843.79996,198.281162 C843.750334,198.242698 843.692635,198.212185 843.63472,198.187151 C843.410811,198.090215 843.349699,198.094979 843.289211,198.283847 L843.26624,198.363463 C843.197668,198.62143 843.123283,198.877033 843.012082,199.119851 C842.895176,199.37524 842.754372,199.616339 842.543812,199.808015 C842.352602,199.98203 842.254607,200.011185 842.068816,199.904334 L841.983288,199.850239 C841.928818,199.813172 841.880807,199.78384 841.816325,199.776964 C841.271046,199.718395 840.790054,199.496293 840.32878,199.227046 L840.132168,199.109107 C839.924945,198.981896 839.710617,198.871232 839.476159,198.808915 C838.392249,198.520972 837.295851,198.32199 836.167805,198.320916 L833.898136,198.320486 C833.141597,198.3178 832.385206,198.309473 831.629354,198.286212 C830.370192,198.247426 829.170237,197.94111 828.072009,197.28808 C827.539581,196.971449 827.149894,196.543187 826.886264,195.987284 C826.076641,194.280038 825.81484,192.49597 826.223904,190.649801 C826.539098,189.227382 826.959034,187.829352 827.210715,186.390279 C827.344939,185.622864 827.350179,184.865568 827.237107,184.107304 L827.168343,183.695037 C827.155736,183.622992 827.127703,183.558472 827.000371,183.546193 C826.584525,183.506332 826.472248,183.320351 826.637058,182.940115 C826.747505,182.685586 826.890677,182.442338 827.042569,182.20919 C827.364895,181.714314 827.5645,181.180282 827.653716,180.606735 L827.749603,179.829681 C827.816775,179.144634 827.827971,178.460983 827.672957,177.784745 C827.610736,177.513455 827.565094,177.493901 827.306415,177.602632 Z M820.24894,210.044748 L820.207388,210.12993 C820.202113,210.141744 820.197879,210.152978 820.195008,210.164546 L819.783657,211.786014 C819.648128,212.326862 819.518654,212.869119 819.408638,213.415943 C819.306049,213.925861 819.216701,214.445771 819.269018,214.964714 C819.437272,216.635538 820.428605,217.693515 821.893698,218.375769 C822.191884,218.514691 822.505679,218.620951 822.81506,218.734839 L823.095739,218.84956 C823.190483,218.886493 823.288282,218.917221 823.394746,218.927052 C823.449566,218.843167 823.469265,218.75064 823.482092,218.656994 L823.624224,217.429682 C823.647611,217.241019 823.673196,217.052698 823.70305,216.865033 C823.747226,216.587041 823.690358,216.390323 823.488598,216.235001 L823.393131,216.170853 C823.026481,215.954143 822.853921,215.606892 822.827547,215.190019 C822.809031,214.898422 822.81183,214.603817 822.899671,214.322106 L823.087164,213.69693 C823.159065,213.463015 823.237357,213.231206 823.337569,213.006614 L823.445663,212.784616 C823.562892,212.564039 823.649011,212.323585 823.711339,212.039509 C823.13742,211.935628 822.658803,211.624302 822.148584,211.384154 L821.890253,211.271302 C821.590776,211.152149 821.333927,210.968961 821.108942,210.739358 C820.85134,210.476449 820.540452,210.281335 820.24894,210.044748 Z M821.065366,192.724896 C821.392617,193.134893 821.55269,193.608066 821.593166,194.127331 C821.692202,195.396431 821.652588,196.657151 821.483795,197.922598 C821.262255,199.582892 821.143411,201.254898 821.219196,202.932276 C821.248261,203.578 821.340192,204.220716 821.469478,204.854944 C821.617602,205.581034 821.879187,206.266834 822.269412,206.899987 L823.036298,208.12654 C823.154496,208.317786 823.263759,208.514619 823.377005,208.708981 C823.045771,208.666864 822.832197,208.488296 822.642306,208.286843 C821.556565,207.135284 820.867724,205.812033 820.734563,204.200839 C820.60194,202.596844 820.715832,201.008427 820.856744,199.415284 L821.111978,196.879017 C821.198527,195.905382 821.153745,194.926696 821.108318,193.950697 C821.090879,193.576156 820.9631,193.233309 820.763843,192.914423 L820.706295,192.825097 C820.648821,192.731255 820.607969,192.627849 820.731334,192.550733 C820.883441,192.455755 820.980432,192.618421 821.065366,192.724896 Z M837.794554,203.26223 C837.97185,203.499998 837.900802,203.777197 837.620379,203.87325 C837.393779,203.950823 837.156845,203.999924 836.833793,203.994659 L836.703426,203.981964 C836.663373,203.976854 836.618755,203.969367 836.575222,203.957806 C836.215999,203.862506 836.103937,203.503114 836.339687,203.219575 C836.666938,202.825909 837.487002,202.849976 837.794554,203.26223 Z M832.511661,201.677273 C832.889076,201.674694 833.214281,201.952108 833.218695,202.28045 C833.223108,202.607824 832.956033,202.844518 832.586369,202.84065 C832.195283,202.836568 831.900864,202.595898 831.896989,202.277227 C831.893114,201.959844 832.180319,201.679529 832.511661,201.677273 Z M839.335312,200.518623 L839.647815,200.542475 C839.989491,200.506267 840.35711,200.577071 840.701261,200.763912 C840.870269,200.855667 841.023453,200.966224 841.130132,201.129536 C841.388811,201.525458 841.217112,202.017003 840.755624,202.116709 C840.145581,202.248647 839.541567,202.181818 838.977274,201.908057 C838.600398,201.725299 838.442585,201.376221 838.539038,201.034665 C838.629355,200.714381 838.940674,200.511424 839.335312,200.518623 Z M837.034643,200.33623 C837.231747,200.523071 837.196008,200.755682 836.954553,200.909431 C836.717368,201.060565 836.458055,201.145966 836.177611,201.160536 L836.006817,201.160737 C835.781186,201.165894 835.555125,201.133554 835.343381,201.038468 C835.171359,200.961218 835.041427,200.834866 835.043116,200.635455 C835.044872,200.437762 835.16856,200.30808 835.345641,200.234912 C835.58925,200.134347 835.850297,200.0687 836.100579,200.008426 C836.446776,199.925051 836.776179,200.09137 837.034643,200.33623 Z M829.088489,199.649689 C829.269446,199.703839 829.447496,199.774643 829.617042,199.857696 C829.827817,199.960947 829.923194,200.191947 829.863341,200.401135 C829.808548,200.593133 829.640186,200.725287 829.443513,200.730766 C829.183004,200.737965 828.698156,200.370837 828.630876,200.115448 C828.554015,199.823637 828.802575,199.564165 829.088489,199.649689 Z M825.774957,196.413752 C826.001126,196.525169 826.158615,196.825469 826.162706,197.164017 C826.169595,197.269954 826.144083,197.381586 826.08972,197.483441 C825.967001,197.713473 825.72081,197.744094 825.566011,197.538558 C825.377734,197.288542 825.280743,196.999202 825.293769,196.685042 C825.305502,196.401397 825.518431,196.287508 825.774957,196.413752 Z M820.265464,185.73451 C820.383554,185.92769 820.395073,186.139994 820.384631,186.338117 C820.410897,186.74618 820.274184,187.078711 820.007431,187.353654 C819.664787,187.706922 819.245927,187.645573 819.005979,187.218171 C818.729646,186.725981 818.83751,185.957773 819.238284,185.562603 C819.553263,185.252204 820.018734,185.330852 820.265464,185.73451 Z M836.814814,166.087526 C836.715912,166.365692 836.642321,166.650627 836.581325,166.939022 L836.524056,167.228448 C836.498203,167.367496 836.469679,167.506024 836.439761,167.644281 L836.253738,168.472568 C836.162573,168.887078 836.081837,169.303629 836.04599,169.728936 C836.019509,170.043203 835.856745,170.301385 835.67385,170.54979 C834.794472,171.744003 833.578154,172.485028 832.257094,173.085734 C832.188415,173.116999 832.113276,173.135694 832.039537,173.154282 C831.527239,173.284179 831.130232,173.02417 831.03604,172.501252 C830.978556,172.181828 831.029904,171.86971 831.093524,171.558344 C831.210322,170.98611 831.392679,170.431389 831.547154,169.869148 C831.767295,169.067741 831.827578,168.246672 831.841464,167.421091 C831.845447,167.180314 831.81875,166.936637 831.702167,166.71853 C831.593012,166.514284 831.417438,166.502036 831.28503,166.692422 C831.213767,166.795029 831.166617,166.916223 831.119683,167.033442 C830.907,167.564633 830.785744,168.117926 830.754762,168.682023 L830.746789,168.964919 C830.744851,170.103478 830.566693,171.204217 830.234275,172.294856 C829.867948,173.496698 829.133357,174.296278 827.92705,174.659646 C827.410446,174.815329 827.237886,174.746459 826.923338,174.315725 C826.546138,173.799146 826.4316,173.208969 826.411901,172.592362 C826.394892,172.059667 826.372178,171.527831 826.315771,170.997714 C826.280462,170.665612 826.214258,170.344469 825.984645,170.083601 L825.878212,169.968977 C825.784718,169.878993 825.67674,169.814122 825.535644,169.858941 C825.349197,169.918248 825.352426,170.1168 825.337571,170.277533 C825.286007,170.835155 825.289667,171.393744 825.374602,171.947498 C825.545978,173.065105 825.619932,174.190771 825.676663,175.318263 C825.690873,175.598793 825.647921,175.873521 825.597003,176.148894 C825.447264,176.958358 825.085889,177.683912 824.7201,178.409787 C824.358402,179.127282 823.81747,179.691565 823.216254,180.208037 C823.145314,180.268956 823.026901,180.285824 823.013337,180.431408 C823.582581,180.633183 824.142783,180.866976 824.701154,181.236468 L824.701047,180.52918 C824.700185,180.222434 824.719885,179.917192 824.86338,179.639456 C825.237673,178.915192 825.678493,178.23326 826.258071,177.65544 C826.520302,177.393994 826.834952,177.168249 827.196899,177.109924 L827.3549,177.095561 C827.641675,177.089575 827.832278,176.990128 828.006295,176.820225 L828.09229,176.729508 C828.260437,176.539874 828.474549,176.386877 828.623104,176.184564 C829.046915,175.607495 829.651252,175.292584 830.272275,174.995616 L830.498041,174.894567 L830.726874,174.800287 C831.561148,174.460664 832.378198,174.080321 833.224099,173.767343 C833.484392,173.671076 833.732737,173.535377 833.973438,173.395273 C834.313822,173.197151 834.653237,172.998706 835.016119,172.844098 C835.230662,172.752558 835.408282,172.613528 835.565987,172.443985 C836.102721,171.866702 836.601563,171.265673 836.999001,170.57708 C837.633587,169.477738 838.116282,168.331981 838.280768,167.064278 C838.363873,166.424355 838.209721,166.095262 837.644029,165.781318 C837.244654,165.559666 836.967352,165.658619 836.814814,166.087526 Z M820.650544,170.73084 C820.475077,170.824207 820.415009,170.992568 820.425989,171.181128 C820.43557,171.344976 820.456669,171.508824 820.483904,171.670739 C820.655388,172.686814 820.981885,173.659053 821.331096,174.624416 C821.58999,175.340191 821.673848,176.077456 821.598494,176.831481 C821.56071,177.209353 821.484495,177.583464 821.448433,177.961336 C821.392671,178.546786 821.16338,179.059175 820.833761,179.535463 L820.740327,179.653719 C820.693134,179.714396 820.651512,179.782214 820.643762,179.878846 L822.067625,180.066332 C822.219517,180.08782 822.222531,179.978123 822.258055,179.88669 C822.859701,178.340605 823.656945,176.917541 824.873585,175.759858 C824.926441,175.709576 824.936883,175.653813 824.935052,175.590423 L824.909109,174.763552 C824.754203,174.769032 824.710283,174.873358 824.640527,174.937393 C824.346647,175.207071 824.013906,175.416153 823.639075,175.54605 C823.139049,175.71946 822.768739,175.545297 822.556133,175.062992 C822.47895,174.88797 822.423618,174.705749 822.394553,174.517834 C822.278078,173.764131 822.031348,173.043305 821.838873,172.308835 C821.751893,171.977055 821.618194,171.661714 821.487294,171.345943 C821.408818,171.156846 821.301062,170.981716 821.133561,170.85891 L821.009849,170.770408 C820.903649,170.701655 820.788026,170.657703 820.650544,170.73084 Z M824.638761,177.10955 C823.777145,177.79954 823.32696,178.739976 822.957511,179.829219 C823.794045,179.024374 824.289012,178.111121 824.638761,177.10955 Z M827.91663,167.633363 C827.680126,167.656356 827.641911,167.895843 827.60811,168.099123 C827.549463,168.452133 827.546277,168.805899 827.563717,169.160697 L827.580121,169.426993 C827.640297,170.262352 827.665809,171.099107 827.610693,171.935539 C827.588652,172.271442 827.529853,172.611951 827.32439,172.876596 L827.227035,172.985136 C827.019274,173.186052 827.034883,173.372893 827.117449,173.598091 C827.187743,173.789552 827.285273,173.967152 827.391737,174.140348 C827.460632,174.25241 827.557192,174.287651 827.68454,174.25284 C828.509233,174.027427 829.174284,173.605397 829.490232,172.768427 C829.605846,172.462111 829.667421,172.139786 829.735132,171.771906 L829.550947,171.855171 C829.535539,171.861754 829.520885,171.867663 829.506056,171.873116 C828.966739,172.071131 828.608916,171.860545 828.530978,171.288204 C828.500299,171.062684 828.488673,170.833511 828.484905,170.605627 C828.475432,170.047683 828.475432,169.489632 828.472095,168.931473 C828.470265,168.611619 828.429574,168.297567 828.30158,168.002425 L828.23913,167.868157 C828.169596,167.734956 828.07463,167.617892 827.91663,167.633363 Z" id="20"></path>
        </g>
    </g>
</svg>
