<?xml version="1.0" encoding="UTF-8"?>
<svg width="61px" height="59px" viewBox="0 0 61 59" version="1.1" xmlns="http://www.w3.org/2000/svg" xmlns:xlink="http://www.w3.org/1999/xlink">
    <title>butterfly-of-thin-striped-wings-rotated-to-left-svgrepo-com</title>
    <g id="页面-1" stroke="none" stroke-width="1" fill="none" fill-rule="evenodd">
        <g id="形状库素材-动物" transform="translate(-291.000000, -395.000000)" fill="#545458" fill-rule="nonzero">
            <g id="butterfly-of-thin-striped-wings-rotated-to-left-svgrepo-com" transform="translate(291.922686, 395.714502)">
                <path d="M57.8214756,29.1833601 C55.8003147,27.2971932 52.8116964,26.7740913 50.6255428,26.6709708 C52.3054687,25.8666313 53.9403967,25.1804115 55.3540844,24.6873082 C55.9034352,24.4379442 56.269044,24.0835849 56.4865345,23.6336047 C57.2833743,21.9874272 56.0721777,19.0963046 54.6303663,15.6295824 C54.3078805,14.8627412 53.9741452,14.0659013 53.6535343,13.2503123 L53.5954119,13.1040687 C51.9079862,8.85925578 50.9780272,6.52123381 50.1849372,0.99772723 C50.1118154,0.483999869 49.7555811,0.120265899 49.236229,0.0246451129 C47.0369509,-0.38033704 40.8384741,4.29008214 38.8679359,7.83367597 C34.6268728,15.4608399 34.7074943,25.9791263 35.1293507,28.686507 C34.6212481,28.3021489 33.965027,27.8821675 33.3350547,27.8034209 C33.2769323,26.1947418 33.1119396,23.6148555 32.6469601,21.8261843 C32.76133,21.743688 32.8400765,21.606819 32.808203,21.4324517 C32.7650799,21.1737131 32.716332,20.9149745 32.6750838,20.654361 C32.5888376,20.1631326 31.8463703,20.3731234 31.9307416,20.858727 C31.9738647,21.1193405 32.0226126,21.3780791 32.0638608,21.6368177 C32.0957344,21.8168097 32.2138541,21.901181 32.3469733,21.9124305 C32.7969534,23.648604 32.9619462,26.2003666 33.0238185,27.7977962 C32.76133,27.8165453 32.511966,27.9046665 32.2832261,28.0996579 C32.1538568,28.2140278 32.0544862,28.3433971 31.9776146,28.4858908 C30.5226787,27.7152998 28.1434085,26.3222362 26.454108,24.6573096 C26.521605,24.5260654 26.5197301,24.3610726 26.3922357,24.2242037 C26.1878697,24.0048383 25.9797539,23.7835981 25.7753879,23.5623578 C25.4341529,23.1986239 24.888552,23.7460997 25.227912,24.1098337 C25.4341529,24.329199 25.6403938,24.5504393 25.8447598,24.7698046 C25.9628796,24.897299 26.1053733,24.9085485 26.227243,24.8616756 C27.9559168,26.5697253 30.3820599,27.9890377 31.8557449,28.7671285 C31.5163849,29.8620802 32.285101,31.3451398 32.285101,31.3451398 L32.2888508,31.3526395 L32.195105,31.3320154 C30.3726853,29.9483264 20.5931163,24.9591713 11.5935129,25.4728986 C7.54744118,25.7016385 0.640245573,29.2508571 0.0477716828,31.4070121 C-0.0928471202,31.9169896 0.0815201955,32.3950936 0.510876274,32.6875807 C5.13817235,35.8055683 6.83684749,37.6598616 9.92296149,41.0290881 L10.0298318,41.145333 C10.6223057,41.7921794 11.1941555,42.4352761 11.7453812,43.0596236 C14.2352714,45.8701247 16.3145548,48.2156464 18.1425993,48.2156464 C18.6394524,48.2156464 19.1194312,48.0412791 19.5825358,47.656921 C20.643739,46.5957178 21.9749304,45.4220195 23.4336161,44.2595707 C22.5711541,46.2751069 21.7405657,49.1906034 22.5561548,51.8342369 C23.1955016,53.896646 24.7254342,55.4415779 27.1047043,56.4240346 C29.9077058,57.5846085 32.2757264,58.0027151 34.2425147,58.0027151 C38.1835911,58.0027151 40.5141134,56.3265389 41.498445,55.6196951 C41.5996905,55.5465733 41.6840618,55.4865759 41.7553087,55.439703 C42.5221499,54.9278506 42.3590321,53.4991635 41.9165516,50.3193037 C41.6540631,48.4462612 41.2415813,45.4670175 41.6071902,44.3926898 C41.7178103,44.5295588 41.8078063,44.6458037 41.8790532,44.7226753 C43.1127488,46.1119891 44.537686,45.4051452 43.5008567,43.4852298 C43.4614835,43.413983 43.4127356,43.3239869 43.3621128,43.2208665 C44.6183075,43.663347 46.6788417,45.0376614 48.0381568,45.9469963 C50.7080391,47.7300428 51.9211107,48.4987589 52.7179505,48.0319045 C52.7910723,47.9887814 52.8829433,47.9381586 52.9916885,47.8800362 C54.0585165,47.3006867 56.5784054,45.931997 58.2958297,42.3846533 C59.152667,40.6147313 59.8088881,38.2992084 59.9832554,35.2730917 C60.1219993,32.7063299 59.3982811,30.6570452 57.8214756,29.1833601 Z M55.5284517,29.0896142 C55.6240725,29.2433575 55.7234431,29.4121 55.8284385,29.5977168 C52.1892238,28.1371562 48.9043686,28.3058988 46.5700965,28.8121265 C47.0688245,28.5233892 47.5731773,28.2402767 48.0850297,27.9646638 C48.7993732,27.893417 52.6579532,27.6009298 55.5284517,29.0896142 Z M54.8984794,23.5398588 C50.4118022,25.0979152 41.1909585,29.6783383 38.389832,33.746909 C38.3317095,33.634414 38.2735871,33.5219189 38.2098399,33.4112988 C38.3017109,33.0606892 38.6223217,31.8269936 39.0835514,30.1676917 C40.1185058,29.4927215 49.824953,23.2679958 55.3559593,23.0786291 C55.2565887,23.2829951 55.11222,23.4423631 54.8984794,23.5398588 Z M55.498453,22.4561566 C50.3311807,22.5330282 41.8265555,27.689051 39.3385402,29.2696063 C39.5279068,28.6002608 39.7341477,27.8840424 39.9535131,27.1453249 C40.8703477,26.7665916 46.0301203,24.6160614 47.8900383,23.3167436 C49.6805844,22.0680487 53.7416554,20.6693603 55.2678382,20.8437276 C55.4347058,21.471825 55.520952,22.015551 55.498453,22.4561566 Z M55.0859712,20.2250049 C53.0348116,20.1631326 49.1124844,21.7099395 47.5394288,22.808641 C46.3976041,23.6073558 43.8758402,24.7735544 41.974674,25.6078927 C44.1158296,23.8923433 47.715671,20.903725 48.8312468,19.3194198 C49.9880708,17.6844919 53.0104377,17.772613 54.2216343,17.8794833 C54.5609943,18.7231961 54.8609811,19.5144112 55.0859712,20.2250049 Z M53.4885416,16.1076863 C53.6497845,16.4920444 53.8072775,16.8670279 53.9572709,17.2363866 C52.4892106,17.1388909 49.5793389,17.1932635 48.3268941,18.9631855 C47.2000687,20.5587402 43.2758667,23.7798482 41.2284569,25.4110264 C42.314034,23.5492334 44.2358243,20.3093762 45.3157768,18.7794436 C46.6994658,16.8239048 52.5998307,16.1039365 53.4510432,16.0101906 C53.4622927,16.0439392 53.4754172,16.0776877 53.4885416,16.1076863 Z M52.4460875,13.5634235 L52.50421,13.709667 C52.7348248,14.2908914 52.9691895,14.8589914 53.1998043,15.4177168 C51.846114,15.5733349 46.285109,16.3383012 44.8095491,18.4250842 C43.6283511,20.0956356 41.4665714,23.7704737 40.4447414,25.5272712 C41.2397064,22.9586344 42.1377918,20.3468745 42.949631,18.6688235 C43.290866,17.9694793 43.5946026,17.4726262 43.8514663,17.1913886 C45.5726404,15.3314706 50.5674203,13.6477948 52.2642205,13.1153182 C52.3279677,13.2634367 52.3842153,13.4115552 52.4460875,13.5634235 Z M52.0392305,12.5378437 C50.2524342,13.096569 45.2276556,14.7971191 43.4014861,16.773282 C43.0958746,17.1032675 42.7658891,17.635744 42.3984053,18.4007103 C40.5966097,22.1205464 38.4479544,30.0795706 37.7861086,32.5994596 L36.9386459,31.0207791 C37.1692608,29.9764502 38.9748062,21.8374338 40.6472325,18.3819611 C40.8215998,18.021977 40.9903424,17.7219902 41.1478354,17.4913754 C42.722766,15.1946016 49.281227,11.894747 51.3980087,10.8691672 C51.59675,11.4072685 51.8104905,11.9603691 52.0392305,12.5378437 Z M51.1748935,10.2860679 C49.076861,11.2966484 42.3271585,14.6696247 40.6322332,17.1407658 C40.4559909,17.3957546 40.2759989,17.7238651 40.0866322,18.111973 C38.5623244,21.2637091 36.9855189,27.9796632 36.4755413,30.2464383 C36.4024196,30.1226937 36.3330476,30.0045739 36.2730503,29.8995785 C36.3330476,29.5527188 37.8929789,20.8999752 40.2853734,15.9595679 C40.3116223,15.9089451 40.3341213,15.8583223 40.3603701,15.8095745 C40.4334919,15.6577062 40.5141134,15.5095877 40.5966097,15.3614692 C41.2565806,14.8777405 47.2750654,10.4829342 50.8392833,9.33923463 C50.9442787,9.65422074 51.0605236,9.96920686 51.1748935,10.2860679 Z M50.6442919,8.75238549 C47.8337908,9.65797058 43.7127224,12.3972249 41.565942,13.9027835 C44.3595689,10.2523194 49.2156049,7.46806709 50.1118154,6.9730889 C50.2768081,7.5880618 50.4568002,8.17678585 50.6442919,8.75238549 Z M49.2737273,3.1632568 C49.4087214,3.94509734 49.55309,4.65944086 49.7049583,5.33441112 C47.0763242,6.18749852 44.8639217,7.57868721 43.0396271,9.15549272 C44.44769,6.99746283 47.8244162,4.27695772 49.2737273,3.1632568 Z M48.9662409,1.2320919 C49.0281132,1.66144798 49.0918603,2.0739298 49.1593574,2.47141229 C47.6350495,3.62636139 42.6158957,7.58243705 41.8903027,10.124825 L41.9690492,10.147324 C40.6434827,11.4485167 39.5560306,12.8153314 38.6954435,14.0677762 C40.2572497,10.6535517 42.6496442,6.1425005 45.6345127,2.78452349 C47.1606954,1.76456844 48.4900119,1.1458457 48.9662409,1.2320919 Z M39.9460134,8.43739937 C40.7616025,6.97496382 42.1434166,5.5275276 43.5946026,4.31445606 C40.6903556,8.20115978 38.4779531,12.8903281 37.233008,15.8508227 C37.8123574,13.3046849 38.6766943,10.7191738 39.9460134,8.43739937 Z M36.6574083,18.974435 L36.6742826,18.9800598 C36.7136558,18.8806891 40.6284833,8.9586264 49.8455771,5.93625959 C49.8812006,6.0768784 49.9111992,6.2174972 49.9486976,6.35436617 C49.4612191,6.61310476 42.3046595,10.4848091 39.8053946,15.5339616 C39.7791457,15.5845844 39.7547718,15.6370821 39.728523,15.6895798 C38.1217188,19.0175581 36.8823984,23.9842142 36.2149278,27.053454 C36.121182,25.2029105 36.1755546,22.2461658 36.6574083,18.974435 Z M11.659135,26.712219 C14.2652701,26.5641005 16.9670261,26.9109603 19.5131639,27.5015592 C16.3033053,27.3328167 11.1191588,27.2821939 6.35686865,28.2027783 C8.08366755,27.4228127 9.99045852,26.8059649 11.659135,26.712219 Z M1.24584388,31.6957494 C1.37521318,31.228895 2.51141311,30.3026858 4.09759321,29.3727268 C8.41927776,28.1484057 13.5228028,27.9552892 17.2745125,28.0377856 C15.7727037,28.2665255 14.0684038,28.6508836 12.3191059,29.277106 L12.3322303,29.1964845 C9.729845,28.7408796 3.98134833,31.5401312 2.27892336,32.4063431 C1.94706298,32.1738533 1.60582802,31.9376137 1.24584388,31.6957494 Z M2.84889824,32.8113252 C4.48382619,31.9919863 8.4024035,30.1376931 10.956041,29.8114574 C8.74363846,30.7657904 6.52748613,32.1532292 4.61507041,34.1462664 C4.07134437,33.7169103 3.49386982,33.2744298 2.84889824,32.8113252 Z M5.09879909,34.5362492 C11.8335023,27.5559318 22.4699086,28.3490219 22.5749039,28.3583965 L22.5767788,28.3396473 C25.7303899,29.3333535 28.4152715,30.5670491 30.0408249,31.4595098 C26.9865845,30.7226673 21.9786802,29.6745885 18.2832181,29.6745885 C18.2250956,29.6745885 18.1669732,29.6745885 18.1107257,29.6745885 C12.476599,29.7252112 5.87313996,34.4837515 5.42878455,34.8099871 C5.32003934,34.721866 5.21129413,34.6281202 5.09879909,34.5362492 Z M5.91438815,35.2243439 C6.74872638,34.6356198 11.3703977,31.4763841 15.8758242,30.5501749 C13.588425,31.8269936 9.32673777,34.3431327 7.28682766,36.4786636 C6.84622208,36.0586821 6.39624191,35.6424505 5.91438815,35.2243439 Z M7.72930816,36.9136444 C10.3129443,34.200639 16.8920294,30.6945435 17.6119976,30.3120604 C17.7826151,30.3026858 17.9513577,30.2951861 18.1201002,30.2951861 C18.1744729,30.2951861 18.2325953,30.2951861 18.2888428,30.2951861 C22.936763,30.2951861 30.6951711,32.0538586 33.192561,32.6519572 C33.32943,32.8469487 33.4756735,33.0569394 33.6369164,33.2856793 L33.556295,33.2631803 C33.1888112,33.1731843 24.4666956,31.0507778 20.3081288,31.0507778 C19.8787727,31.0507778 19.5019144,31.0732768 19.1963028,31.1201498 C16.2339334,31.5663801 10.2566968,36.1711772 8.4342771,37.6242381 C8.19803751,37.3861236 7.96367283,37.1480091 7.72930816,36.9136444 Z M8.86550809,38.0779681 C10.7085519,36.6192824 16.5357951,32.1513543 19.2900487,31.7332477 C19.5637866,31.6938745 19.9087714,31.6713755 20.3081288,31.6713755 C24.1479596,31.6713755 32.2588522,33.587541 33.2994313,33.8387799 L34.3531349,35.2880911 C31.7976225,34.7818634 23.6961045,33.2556806 19.5637866,33.2556806 C18.7125741,33.2556806 18.0901016,33.3194278 17.6588706,33.4506721 C15.084609,34.2362624 11.3666479,38.0198457 10.0860793,39.3829106 C9.66422289,38.9254308 9.25924074,38.4923249 8.86550809,38.0779681 Z M10.9354169,40.3128696 L10.8322964,40.1966248 C10.7198014,40.0747551 10.614806,39.9585103 10.5060608,39.8403905 C11.7172574,38.5504473 15.4089697,34.7837383 17.8369877,34.041271 C18.2025966,33.9269011 18.783821,33.8725285 19.5619117,33.8725285 C21.4237047,33.8725285 24.1667088,34.200639 26.8253416,34.6018713 C24.7985559,34.7574895 20.5481182,35.108099 18.5307072,35.4399594 C16.0033185,35.8599409 12.8890808,40.5509841 12.1691125,41.6853092 C11.7678802,41.2315792 11.3591482,40.7740993 10.9354169,40.3128696 Z M12.6640907,42.2440345 C12.6415917,42.2177857 12.6190927,42.1915368 12.5965937,42.165288 C13.0465738,41.4471946 16.263932,36.4430402 18.6319527,36.0511824 C20.4768714,35.743696 24.2323309,35.42496 26.3828611,35.2543426 C24.0204652,36.3867927 19.4100434,38.5185737 17.4845033,38.8391846 C15.3452225,39.1954189 14.0290305,41.7903045 13.4778048,43.1589942 C13.2096916,42.8608823 12.9415785,42.5552708 12.6640907,42.2440345 Z M13.9446593,43.6745965 C14.3758903,42.5383966 15.6133357,39.7785182 17.5876237,39.4522826 C19.5000394,39.1354215 23.7579768,37.196757 26.2347426,36.015559 C24.6541873,37.3636246 22.5074069,39.1222971 21.2905855,39.804767 C19.6125345,40.7441006 16.5114211,43.5995998 15.6770829,45.4707673 C15.1371067,44.9626647 14.5558823,44.3495667 13.9446593,43.6745965 Z M16.1570618,45.909498 C16.6651644,44.4601869 19.6931559,41.4134461 21.5943221,40.3466182 C23.5742349,39.2347921 27.7553006,35.5299554 28.4977679,34.8662347 C29.2589844,34.9899792 29.993952,35.1174736 30.6782968,35.2374683 C28.1715323,36.788025 19.8262751,42.1990365 17.5070023,46.8188329 C17.1001452,46.6444656 16.6445403,46.3313544 16.1570618,45.909498 Z M18.7444477,46.749461 C18.5625807,46.8994544 18.3563398,46.9594517 18.1294748,46.9594517 C20.7074862,42.0677923 30.5339282,36.0418079 31.5970063,35.3987112 C33.5806689,35.7568204 34.9643579,36.0418079 34.9999814,36.0493075 L35.6712018,36.1861765 C35.6918259,36.2143003 35.710575,36.2386742 35.7255744,36.2667979 C30.9426602,36.5405359 22.2430436,43.2471153 18.7444477,46.749461 Z M23.7898504,50.2236829 C23.6698557,50.0493156 23.5592355,49.8861977 23.4636148,49.7343294 C23.3717438,46.500097 25.317908,43.1552444 25.6928915,42.5421464 C26.1616209,42.2009114 26.635975,41.870926 27.112204,41.5503151 C25.6422688,43.4271074 24.0598385,46.3088554 23.7898504,50.2236829 Z M24.3729497,51.0111482 C24.5098187,45.341398 27.496562,41.7809299 29.1183656,40.2622469 C29.8645827,39.8085169 30.5995503,39.3922852 31.3082691,39.0304262 C30.5976754,40.4497386 29.4314768,42.890881 28.383398,45.6001366 C27.2396984,48.5662559 27.7159274,52.1735969 28.1527831,54.2247566 C26.4916063,53.3360457 25.2372866,52.0948504 24.3729497,51.0111482 Z M31.1489011,55.2559611 C30.3239374,55.1172172 29.5683457,54.871603 28.8708765,54.5659915 C28.4415204,52.7098233 27.7946739,48.8493684 28.9646223,45.8232518 C30.2151922,42.5815197 31.6382545,39.7335202 32.2326033,38.580446 C33.1156894,38.1754638 33.9369032,37.8661025 34.6718708,37.6823606 C34.1750177,39.0510502 33.2769323,41.6384362 32.7050825,43.9258354 C32.0938594,46.3782273 31.7376251,52.2804672 31.5932565,55.3103337 C31.4432631,55.2915845 31.2970195,55.2822099 31.1489011,55.2559611 Z M37.4486235,54.849104 C35.9449397,55.2709604 34.146894,55.554073 32.2082294,55.3890802 C32.3563479,52.3873375 32.7088323,46.455099 33.3031811,44.0758288 C33.9237788,41.599063 34.9306094,38.7585631 35.3768398,37.5417418 C35.4987094,37.5248675 35.6187041,37.5117431 35.7330741,37.5023685 C35.9355651,38.3235823 36.824276,42.0171695 37.2273832,45.7445053 C37.5348697,48.5268827 37.5011211,52.4810834 37.4486235,54.849104 Z M38.071096,54.6653621 C38.1235937,52.2617181 38.1442178,48.4162625 37.8461059,45.6788832 C37.3867512,41.4359451 36.3049239,37.2211309 36.2936744,37.1780078 L36.2093031,37.2005068 L36.2205526,36.9642672 C37.8592304,39.2854149 39.6422768,41.7884296 40.793476,43.3389863 C39.9178896,44.4189387 40.1841279,46.9125788 40.6828559,50.4955459 C40.8103503,51.4311297 40.9697183,52.5767042 41.0278407,53.4166672 C40.4166177,53.7485275 39.387288,54.2453806 38.071096,54.6653621 Z M51.1973926,46.5038468 C50.4642999,46.0894901 49.5024672,45.4482683 48.7168769,44.9214165 C45.9982467,43.1046216 43.99396,41.8521768 42.6402697,41.8596765 C41.8415549,40.3297439 40.6753563,38.0760932 39.5316567,35.8955643 C40.7616025,36.8817708 43.1164987,38.7060654 45.6176384,40.2697465 C47.9537855,41.7284323 51.4242576,43.3858592 53.6122861,44.3833153 C52.6542034,45.388271 51.7598678,46.0969897 51.1973926,46.5038468 Z M54.045392,43.9070862 C51.891112,42.9283794 48.3156446,41.2315792 45.9419992,39.7466446 C42.769639,37.7611071 39.8260187,35.3537132 39.1791722,34.813737 C39.2372946,34.7143664 39.2954171,34.6112459 39.3704138,34.5081254 C40.6603569,34.6356198 43.6546,34.9637304 46.1557397,35.4849574 C48.555634,35.9874353 54.0510168,38.2523354 56.8202698,39.4279086 C56.1190507,41.2409537 55.0784715,42.7352629 54.045392,43.9070862 Z M57.1540051,38.4135783 C57.1146318,38.5598219 57.0583843,38.692941 57.0115113,38.8373097 C54.2216343,37.650487 48.7543752,35.3968363 46.2794843,34.8831089 C43.971461,34.3993802 41.2453311,34.0825192 39.7997698,33.9344007 C40.2834985,33.3513014 40.9209704,32.7438282 41.6690625,32.1288553 C42.9665053,32.0951068 46.1538648,32.0557335 49.6130874,32.340721 C52.8473198,32.6088341 56.0384292,34.8681096 57.5214889,36.0643069 C57.49524,36.8217735 57.3883697,37.6092388 57.1540051,38.4135783 Z M49.6655851,31.7201233 C46.7669628,31.4820088 44.0633319,31.4688844 42.4771518,31.4913834 C43.1108739,31.0114045 43.8027184,30.5295508 44.539561,30.0551967 C46.6113447,29.2564819 51.118646,28.1165321 56.2859183,30.4639287 C56.8840169,31.7163735 57.4558667,33.3869249 57.5308634,35.267467 C55.8734365,33.9793988 52.8341954,31.9826117 49.6655851,31.7201233 Z" id="形状"></path>
            </g>
        </g>
    </g>
</svg>
