<?xml version="1.0" encoding="UTF-8"?>
<svg width="53px" height="61px" viewBox="0 0 53 61" version="1.1" xmlns="http://www.w3.org/2000/svg" xmlns:xlink="http://www.w3.org/1999/xlink">
    <title>15</title>
    <g id="页面-1" stroke="none" stroke-width="1" fill="none" fill-rule="evenodd">
        <g id="4、动物" transform="translate(-405.000000, -165.000000)" fill="#545458">
            <path d="M426.39121,179.224302 C429.34821,176.101302 433.18021,174.838302 436.90521,175.764302 C438.34321,176.120302 439.28721,176.818302 440.12021,177.435302 C440.30421,177.570302 440.48121,177.698302 440.65721,177.820302 C441.27821,177.669302 442.15121,178.149302 442.51021,178.599302 C442.93121,178.641302 443.36521,178.607302 443.83721,178.492302 C444.47421,178.337302 445.07321,178.186302 445.64821,178.041302 C447.33221,177.616302 448.78221,177.250302 450.37821,176.985302 C450.78221,176.917302 451.16021,177.042302 451.49521,177.356302 C452.72421,178.510302 453.06321,182.185302 453.15221,183.735302 L453.15521,183.759302 C453.15921,183.787302 453.15921,183.816302 453.16021,183.844302 L453.16121,183.887302 C453.21621,184.932302 453.21221,185.917302 453.15021,186.523302 C452.99621,188.033302 449.90521,190.389302 446.91621,192.667302 C445.48921,193.755302 444.14721,194.778302 443.40621,195.512302 C441.75321,197.153302 441.73621,204.737302 441.72721,208.811302 C441.72421,209.903302 441.72221,210.846302 441.69021,211.423302 C441.66721,211.827302 441.61021,212.223302 441.51921,212.603302 C441.44121,214.257302 441.15821,215.567302 440.88521,216.835302 C440.53921,218.441302 440.21221,219.953302 440.40521,221.868302 C440.48621,222.684302 440.01121,223.364302 439.19321,223.601302 C439.02321,223.650302 438.84321,223.675302 438.65921,223.675302 C437.95221,223.675302 437.34521,223.304302 437.03421,222.683302 C436.60721,221.827302 435.80821,220.072302 435.19921,217.823302 C435.08021,217.849302 434.95921,217.873302 434.83721,217.897302 C434.84121,219.984302 435.12121,222.322302 435.47121,223.155302 C435.75021,223.815302 435.59321,224.460302 435.05321,224.881302 C434.71321,225.147302 434.23321,225.299302 433.73621,225.299302 C433.22221,225.299302 432.74121,225.142302 432.34321,224.844302 C431.56521,224.260302 429.68221,221.429302 428.36021,218.123302 C425.28721,217.852302 421.98621,217.138302 419.24821,216.152302 C419.25121,217.075302 419.39221,218.990302 420.38221,220.744302 C420.64121,221.203302 420.59421,221.680302 420.25721,222.022302 C419.96221,222.320302 419.44521,222.505302 418.90821,222.505302 C418.59621,222.505302 418.31321,222.441302 418.09121,222.319302 C417.46221,221.973302 414.39721,219.304302 413.64621,216.133302 C413.14321,216.879302 413.59421,219.065302 414.89521,222.164302 C415.14521,222.758302 415.00321,223.394302 414.53321,223.783302 C414.25921,224.010302 413.88521,224.135302 413.48221,224.135302 C412.97421,224.135302 412.43921,223.951302 411.89021,223.588302 C408.58121,221.400302 405.94421,214.204302 405.39821,208.792302 C405.08521,205.692302 405.47221,203.325302 406.48821,202.106302 C404.52821,197.733302 407.41521,193.045302 411.16921,190.324302 C411.83121,189.844302 412.56221,189.774302 412.94721,190.156302 C413.07721,190.284302 413.45021,190.772302 412.81921,191.655302 C411.08821,193.836302 409.53121,197.032302 409.89821,198.933302 C409.99521,199.440302 410.23721,199.807302 410.61521,200.024302 C412.89821,201.329302 417.34321,200.858302 420.02121,199.619302 C420.01221,199.606302 420.00321,199.593302 419.99421,199.580302 C419.32921,198.612302 421.03921,191.488302 423.14621,187.487302 C422.57721,185.279302 423.93321,181.817302 426.39121,179.224302 Z M436.72321,176.497302 C433.27321,175.641302 429.70421,176.824302 426.93921,179.743302 C424.62221,182.189302 423.32021,185.489302 423.91121,187.420302 L423.92421,187.461302 C425.42721,188.084302 426.73121,189.390302 427.50921,191.056302 C428.97321,194.192302 428.18421,197.669302 425.74921,198.806302 C424.16621,199.546302 422.18521,199.220302 420.63121,197.985302 C420.52446,198.856802 420.589975,199.091302 420.610702,199.141 L420.61621,199.152302 C421.89321,201.011302 424.54221,202.470302 427.20921,202.783302 C429.13821,203.008302 430.80721,202.584302 431.90921,201.586302 C433.36621,200.267302 432.67221,198.846302 431.52221,196.493302 C431.20221,195.837302 430.85721,195.129302 430.53521,194.371302 C430.34121,193.913302 430.14021,193.462302 429.94621,193.025302 C429.23521,191.427302 428.62921,190.066302 428.71621,189.269302 C428.73921,189.059302 428.92321,188.908302 429.13321,188.936302 C429.23321,188.946302 429.32321,188.996302 429.38621,189.075302 C429.44921,189.153302 429.47821,189.252302 429.46721,189.352302 C429.40221,189.944302 430.02421,191.342302 430.62621,192.694302 C430.83221,193.159302 431.03521,193.614302 431.23121,194.075302 C431.54721,194.819302 431.87421,195.491302 432.19121,196.141302 C433.32421,198.461302 434.29421,200.446302 432.41521,202.146302 C431.55421,202.925302 430.38221,203.409302 429.02021,203.548302 C428.51821,205.104302 427.33521,206.428302 425.67921,207.286302 C423.09321,208.626302 419.73921,208.725302 416.23521,207.561302 C411.65221,206.039302 410.66221,203.268302 411.26921,201.127302 C410.88721,201.002302 410.54221,200.851302 410.24121,200.680302 C409.66221,200.349302 409.29721,199.809302 409.15521,199.075302 C409.03221,198.434302 409.09021,197.647302 409.32521,196.734302 C408.91821,196.574302 408.48721,196.630302 408.07021,196.686302 C407.70221,196.734302 407.35221,196.780302 407.06521,196.658302 C406.39221,198.546302 406.46321,200.344302 407.27721,202.007302 L407.39521,202.250302 L407.20421,202.440302 C406.21621,203.428302 405.84121,205.657302 406.15021,208.716302 C406.68121,213.979302 409.28121,220.958302 412.30621,222.958302 C413.14321,223.510302 413.75721,223.446302 414.05121,223.202302 C414.26521,223.025302 414.32021,222.746302 414.19821,222.457302 C412.67021,218.814302 412.31121,216.572302 413.09921,215.604302 C413.29821,215.360302 413.50121,215.121302 413.70321,214.882302 L413.74121,214.838302 C415.20221,213.117302 416.58221,211.492302 416.20521,208.605302 C416.17821,208.399302 416.32421,208.210302 416.53121,208.182302 C416.62821,208.169302 416.72621,208.193302 416.80521,208.253302 C416.88621,208.314302 416.94121,208.406302 416.95421,208.506302 C417.26221,210.864302 416.47821,212.431302 415.72421,213.540302 C417.76121,215.203302 423.09021,216.843302 428.06021,217.335302 C427.19721,214.957302 426.41021,211.663302 427.32521,209.024302 C427.39321,208.827302 427.60921,208.723302 427.80521,208.791302 C427.90121,208.824302 427.97821,208.893302 428.02221,208.984302 C428.06621,209.074302 428.07221,209.176302 428.03821,209.271302 C427.94121,209.552302 427.86221,209.855302 427.80221,210.173302 C428.12321,210.189302 428.40421,210.219302 428.67321,210.270302 C431.60321,210.812302 433.64121,213.120302 433.21621,215.416302 C432.91321,217.051302 431.43121,218.294302 429.41521,218.621302 C430.68521,221.489302 432.31421,223.878302 432.79721,224.240302 C433.38021,224.677302 434.18121,224.603302 434.58821,224.286302 C434.85821,224.075302 434.92121,223.794302 434.77621,223.448302 C434.42621,222.620302 434.06421,220.086302 434.08021,217.633302 C434.07321,217.582302 434.07621,217.545302 434.08421,217.507302 C434.09321,216.404302 434.19921,214.850302 434.63321,213.881302 C434.71921,213.691302 434.94421,213.607302 435.13321,213.692302 C435.22421,213.733302 435.29521,213.807302 435.33121,213.902302 C435.36621,213.996302 435.36321,214.099302 435.32221,214.191302 C435.05621,214.785302 434.89321,215.796302 434.84921,217.125302 C437.55521,216.551302 440.72921,215.087302 440.93621,211.381302 C440.96721,210.833302 440.96921,209.940302 440.97121,208.809302 C440.98221,204.327302 441.00021,196.836302 442.87521,194.976302 C443.64921,194.208302 445.00921,193.171302 446.45021,192.073302 C448.91421,190.194302 452.27821,187.631302 452.39821,186.446302 C452.41421,186.295302 452.42621,186.120302 452.43421,185.923302 C450.64421,188.258302 446.10321,189.930302 445.56221,190.123302 C445.35921,190.191302 445.14721,190.084302 445.08021,189.895302 C445.04621,189.800302 445.05121,189.697302 445.09421,189.606302 C445.13721,189.515302 445.21421,189.446302 445.30821,189.412302 C445.38921,189.383302 447.31121,188.692302 449.12121,187.645302 C450.71021,186.725302 452.56921,185.319302 452.40521,183.842302 L452.40221,183.821302 L452.40721,183.770302 C452.34221,182.610302 452.19921,181.454302 452.00621,180.497302 C451.31921,180.915302 449.76521,181.051302 448.95621,180.434302 C448.49021,180.078302 448.52021,178.813302 448.78021,178.065302 C447.85121,178.267302 446.92521,178.498302 445.83221,178.773302 C445.25621,178.919302 444.65521,179.070302 444.01621,179.226302 C443.48521,179.356302 442.99521,179.402302 442.52021,179.363302 C442.18721,179.711302 441.43121,179.739302 440.95321,179.400302 C440.40021,179.008302 440.13021,178.672302 440.13121,178.376302 C439.97721,178.268302 439.82521,178.156302 439.67221,178.043302 C438.85721,177.440302 438.01521,176.817302 436.72321,176.497302 Z M436.15521,217.567302 C436.08121,217.589302 436.00621,217.611302 435.93021,217.633302 C436.52221,219.817302 437.29621,221.517302 437.71021,222.345302 C437.98121,222.888302 438.54521,223.003302 438.98321,222.875302 C439.15721,222.824302 439.71921,222.609302 439.65321,221.944302 C439.62721,221.690302 439.61121,221.431302 439.60221,221.136302 C438.61021,220.926302 437.76221,220.443302 437.14521,219.736302 C436.62421,219.140302 436.29221,218.411302 436.15521,217.567302 Z M415.28121,214.151302 C414.95921,214.570302 414.62021,214.970302 414.31721,215.327302 L414.27521,215.378302 C414.65921,218.485302 417.83021,221.314302 418.45521,221.657302 C418.77621,221.834302 419.47321,221.741302 419.72021,221.490302 C419.77221,221.438302 419.85821,221.352302 419.72421,221.115302 C418.51421,218.971302 418.46821,216.675302 418.49521,215.870302 C417.11321,215.323302 416.00821,214.732302 415.28121,214.151302 Z M412.73621,193.326102 C412.84721,193.151102 413.08121,193.098102 413.25721,193.208102 C413.34221,193.263102 413.40221,193.347102 413.42421,193.446102 C413.44621,193.544102 413.42821,193.645102 413.37421,193.730102 C412.98321,194.349102 412.61221,195.188102 412.45321,195.818102 C412.41121,195.985102 412.26021,196.102102 412.08721,196.102102 C412.05521,196.102102 412.02321,196.098102 411.99321,196.091102 C411.79221,196.039102 411.67021,195.834102 411.72021,195.632102 C411.90021,194.922102 412.29921,194.017102 412.73621,193.326102 Z M410.49781,188.776902 C410.58781,188.731902 410.68981,188.726902 410.78581,188.758902 C410.88081,188.791902 410.95881,188.860902 411.00281,188.951902 C411.09281,189.138902 411.01481,189.365902 410.82781,189.456902 C408.38681,190.641902 406.57781,192.632902 405.73381,195.061902 C405.68081,195.213902 405.53781,195.315902 405.37781,195.315902 C405.33681,195.315902 405.29581,195.308902 405.25481,195.294902 C405.05681,195.225902 404.95281,195.010902 405.02081,194.813902 C405.92981,192.194902 407.87581,190.050902 410.49781,188.776902 Z M407.58201,189.100602 C407.68901,189.035602 407.83001,189.070602 407.89401,189.178602 C407.95901,189.285602 407.92401,189.425602 407.81601,189.490602 C406.85601,190.066602 406.06301,190.932602 405.58201,191.929602 C405.54301,192.010602 405.46201,192.058602 405.37701,192.058602 C405.34401,192.058602 405.31001,192.051602 405.27801,192.035602 C405.16501,191.981602 405.11701,191.845602 405.17201,191.732602 C405.69001,190.655602 406.54601,189.720602 407.58201,189.100602 Z M434.09921,182.462202 C435.46121,179.878202 439.03821,178.779202 441.78421,180.533202 C442.70021,181.118202 444.25321,185.095202 444.02821,187.524202 C443.75921,190.433202 439.73521,191.411202 436.85221,189.892202 C433.97021,188.373202 432.73721,185.046202 434.09921,182.462202 Z M439.64921,182.171202 C439.07221,181.742202 438.31621,181.802202 437.96021,182.304202 C437.60421,182.806202 437.78321,183.560202 438.36021,183.989202 C438.93721,184.418202 439.69321,184.359202 440.04921,183.857202 C440.40421,183.355202 440.22521,182.600202 439.64921,182.171202 Z M450.92811,166.656602 C450.57611,167.665602 450.32211,168.912602 450.23311,169.570602 C450.18211,169.540602 450.13311,169.512602 450.08311,169.487602 C449.13011,168.269602 448.52011,167.132602 448.62911,166.778602 C448.63311,166.763602 448.63711,166.751602 448.68911,166.736602 C449.47711,166.509602 450.42211,166.586602 450.92811,166.656602 M452.23311,165.758602 C454.51811,166.139602 455.89511,166.961602 455.90811,167.539602 C455.91211,167.739602 455.69611,168.790602 451.00611,169.774602 C450.98911,169.778602 450.97211,169.782602 450.95511,169.789602 C451.03011,169.076602 451.61811,166.327602 452.20011,165.785602 C452.21511,165.772602 452.22611,165.763602 452.23311,165.758602 M456.45911,169.026602 C456.22811,169.136602 455.65511,169.280602 454.84711,169.413602 C455.38511,169.169602 455.80411,168.911602 456.10011,168.640602 C456.21511,168.722602 456.34611,168.845602 456.45911,169.026602 M457.22511,168.856602 L457.22511,168.856602 C457.03611,168.455602 456.77311,168.197602 456.55511,168.037602 C456.63111,167.866602 456.66711,167.694602 456.66311,167.523602 C456.63411,166.190602 454.40411,165.350602 452.32611,165.008602 C452.16111,164.981602 451.90811,165.005602 451.64811,165.269602 C451.50411,165.415602 451.36011,165.639602 451.21811,165.935602 C450.66411,165.844602 449.49911,165.716602 448.47911,166.010602 C448.19311,166.092602 447.99011,166.285602 447.90711,166.554602 C447.69211,167.253602 448.39111,168.451602 449.06911,169.395602 C448.82211,169.504602 448.63611,169.719602 448.56211,169.996602 C448.47211,170.328602 448.56711,170.656602 448.80911,170.852602 C449.00511,171.012602 449.47511,171.212602 450.38611,170.748602 C450.46111,170.710602 450.52811,170.665602 450.58911,170.612602 C451.26611,170.901602 452.28711,171.220602 453.49211,171.220602 C453.53511,171.220602 453.57911,171.220602 453.62411,171.219602 C454.24211,171.207602 454.58311,171.066602 454.63811,170.799602 C454.67611,170.619602 454.56911,170.434602 454.33211,170.260602 C456.87411,169.924602 457.12011,169.496602 457.20411,169.351602 C457.29211,169.197602 457.30011,169.016602 457.22511,168.856602" id="15"></path>
        </g>
    </g>
</svg>
