<?xml version="1.0" encoding="UTF-8"?>
<svg width="55px" height="61px" viewBox="0 0 55 61" version="1.1" xmlns="http://www.w3.org/2000/svg" xmlns:xlink="http://www.w3.org/1999/xlink">
    <title>butterfly-beautiful-side-view-shape-with-ornamental-design-on-wings-svgrepo-com</title>
    <g id="页面-1" stroke="none" stroke-width="1" fill="none" fill-rule="evenodd">
        <g id="形状库素材-动物" transform="translate(-805.000000, -242.000000)" fill="#545458" fill-rule="nonzero">
            <g id="butterfly-beautiful-side-view-shape-with-ornamental-design-on-wings-svgrepo-com" transform="translate(805.249205, 242.260086)">
                <polygon id="路径" points="20.4689906 35.6866695 20.4689906 35.6866695 20.4689906 35.6772944"></polygon>
                <path d="M20.3283644,36.1666736 C20.287114,36.3185498 20.2533637,36.4685511 20.2027383,36.6204274 C20.283364,36.5266766 20.3133642,36.3429251 20.3358644,36.1572985 C20.3321144,36.1591735 20.3302394,36.1629235 20.3283644,36.1666736 Z" id="路径"></path>
                <path d="M24.4608993,31.5203843 C24.2602726,32.4691423 24.0090205,33.382275 23.6752677,34.2616575 C24.0333957,33.3879001 24.2958979,32.4860175 24.4608993,31.5203843 Z" id="路径"></path>
                <path d="M20.5946166,34.4641592 C20.5777415,34.8297873 20.5402412,35.1991654 20.4689906,35.5704185 C20.4858657,35.5235431 20.5027408,35.4766677 20.515866,35.4297923 C20.5739914,35.1166647 20.5983666,34.796037 20.5946166,34.4641592 Z" id="路径"></path>
                <path d="M22.2277554,13.9177355 C22.2183803,13.9346107 22.2071302,13.9514858 22.1958802,13.9664859 C22.1865051,14.0771119 22.2296304,14.0377365 22.2277554,13.9177355 Z" id="路径"></path>
                <path d="M53.4730195,31.722886 L53.7392718,28.5203589 L51.7948803,27.6053512 L50.4317438,24.3690738 L45.5267023,22.5296833 L41.3341669,22.1621802 L33.9616046,24.7909524 C33.9616046,24.7909524 34.8878624,17.1146375 31.1772061,15.2546218 C27.4646747,13.3946061 28.3065568,10.6514579 25.1621552,10.4358311 C22.0196287,10.2202043 22.1527548,9.43457262 21.7383763,8.8045673 C21.3258728,8.17643699 19.5146075,7.59330706 18.5958497,6.31829628 C17.6733419,5.03953548 14.840193,5.93766807 14.4726899,4.13015279 C14.1033118,2.32451253 10.4357808,3.32014594 9.76077505,2.33201259 C9.08576935,1.34387924 7.13200283,1.61013149 6.43637195,0.721373978 C5.74074107,-0.171133565 2.64508991,0.843250008 2.64508991,0.843250008 C2.64508991,0.843250008 0.546947175,-0.647387591 0.205694291,0.335120713 C-0.133683577,1.31387899 -0.420561002,14.0414866 2.52696391,20.8627942 C4.46010525,24.4496995 6.75324963,33.2716491 18.4927239,42.0879736 C16.7133338,41.0829651 15.4420731,40.4079594 15.1795709,40.3760841 C14.5926909,40.3048335 13.2033041,40.0460813 12.001419,40.2335829 C10.7507834,39.052323 7.85763397,36.449801 5.6488653,35.4822928 C4.20322808,34.8466624 2.63383981,35.3585417 1.71133202,36.1535485 C1.05320145,36.7179282 0.755073934,37.3948089 0.91070025,37.9648138 C0.931325424,38.0416894 0.965075709,38.1223151 1.01007609,38.2029408 C0.876949965,38.4879432 0.8338246,38.7785706 0.905075202,39.0335728 C0.996950979,39.3710756 1.30445358,39.8004543 2.26071166,39.9729557 L2.33758731,39.5435771 C1.9344589,39.4723265 1.43382967,39.3035751 1.32695377,38.9191968 C1.29882853,38.817946 1.31007863,38.705445 1.34007888,38.587319 C1.57070583,38.7710706 1.9100837,38.9323219 2.41446296,39.0204477 L2.53258896,38.3773172 C2.12571052,38.3023166 1.82945802,38.1710655 1.67008167,37.998564 C1.7450823,37.9104383 1.82570798,37.8241876 1.92508382,37.7398119 C2.6675901,37.0966814 3.93885084,36.6748029 5.09948565,37.1848072 C6.80200004,37.9310635 9.02764385,39.8135794 10.3701552,41.0360897 C10.2370291,41.2029661 10.1264031,41.3923427 10.0514025,41.6229697 C9.40827207,43.6967372 12.4645479,45.5211276 12.4645479,45.5211276 C12.4645479,45.5211276 12.9576771,45.7330044 13.7864341,46.0948825 L13.5126818,46.0667572 L12.6895498,52.9893157 L10.7526584,54.1274504 L10.94016,54.442453 L13.0345527,53.2124426 L13.8351845,46.4623856 L14.845818,46.5448863 C14.9395688,46.5842616 15.0408197,46.629262 15.1364455,46.6667623 L14.247688,46.7173877 L15.2958218,53.733697 L13.3908057,54.7162053 L13.5576821,55.0424581 L15.6970752,53.9361987 L14.6695665,47.0567656 L15.8902019,46.989265 C16.7920845,47.3755183 17.8270932,47.818022 18.9352276,48.290526 L18.1964713,50.536795 L19.7958599,51.8174308 L19.7171092,53.3118185 L18.3633478,55.5187121 L18.1664711,58.7999899 L18.5339742,58.820615 L18.7008506,55.6705884 L19.6777339,54.0768249 L19.3739813,59.9756248 L19.7396094,60 L20.0771122,53.4318195 L21.6483755,50.8742979 L19.7396094,50.0811662 L19.576483,48.5736534 C25.2259058,50.9792988 32.4147165,54.0036993 33.8997291,54.4499531 C36.4178754,55.1980844 37.5972603,53.2986934 34.9291128,51.7555553 C34.2184818,51.3468019 32.5572177,50.3586685 30.4928253,49.1305331 C33.5641012,49.7942887 37.9853886,50.1411667 42.7929292,48.4761526 C43.0348063,47.814272 50.9154979,42.967356 50.9154979,42.967356 L53.4355192,39.7104535 L53.7748971,38.0941899 L54.4067774,35.0735393 L53.4730195,31.722886 Z M10.6814078,40.7304621 C9.32389636,39.4929517 7.06075223,37.5748105 5.27386213,36.7891788 C3.94072586,36.2022989 2.48758858,36.6748029 1.6382064,37.4116841 C1.6025811,37.4416843 1.58195592,37.4716846 1.55008065,37.5035599 C1.61195618,37.2316826 1.81820792,36.92418 2.14071065,36.6485526 C2.90009206,35.986672 4.20322808,35.5610434 5.38261305,36.0785478 C7.31575439,36.93168 9.89577619,39.176074 11.2457876,40.4248346 C11.0432859,40.5073352 10.8501593,40.6029611 10.6814078,40.7304621 Z M21.110246,51.0486743 L20.1183626,52.664938 L20.168988,51.6580545 L18.623975,50.420544 L19.214605,48.6280289 L19.4002315,50.3361683 L21.110246,51.0486743 Z M29.6771934,24.4703247 C29.750319,24.1703222 29.8478198,23.8609446 30.0765718,23.6396927 C30.5397007,23.1971889 31.2503317,23.1953139 31.7847112,23.5159416 C32.594718,23.9996957 32.7259692,24.856578 32.5178424,25.685335 C32.5178424,25.689085 32.5178424,25.692835 32.5178424,25.692835 C32.5103423,25.7172102 32.5065923,25.7378354 32.4990922,25.7603356 C32.4934672,25.7772107 32.4915922,25.7922109 32.4859671,25.803461 C32.3022156,26.4315913 31.9328374,27.0315964 31.524084,27.4347248 C31.1209556,27.7891028 30.3765743,28.5128589 29.752194,28.3403574 C29.3321905,28.2259814 29.2084394,27.7666026 29.1934393,27.3765993 C29.1709391,26.7690941 29.2890651,26.0828383 29.4859418,25.450958 C29.4315663,25.3965825 29.4915668,25.2653314 29.5196921,25.1359553 C29.5253171,25.1059551 29.5328172,25.0797049 29.5403172,25.0497046 C29.4934418,25.1303303 29.515942,24.9578288 29.5965677,24.8097026 C29.626568,24.6972016 29.6509432,24.5828257 29.6771934,24.4703247 Z M25.2859063,16.7921348 C25.2971564,16.7490094 25.3084065,16.7152592 25.3234066,16.7058841 C25.5502835,16.105879 26.0302876,15.637125 26.7521687,15.5789996 C27.8265527,15.4964989 29.7353189,16.0721287 29.5478173,17.4840157 C29.5271921,17.6227668 29.5009419,17.7765181 29.4634416,17.9415195 C29.4784417,18.0127701 29.392191,18.3952734 29.3621907,18.3146477 C29.045313,19.3721566 28.3571822,20.5684167 27.2171726,20.2815393 C26.2384143,20.0340372 25.5859088,18.9334029 25.2202807,18.0558955 C25.13028,17.6340169 25.1565302,17.1877632 25.2859063,16.7921348 Z M23.5608917,20.8009187 C23.5608917,20.8009187 23.5608917,20.8027937 23.5608917,20.8046687 C23.5627667,20.8140438 23.5627667,20.8252939 23.5646417,20.834669 C23.5646417,20.842169 23.5665167,20.8496691 23.5665167,20.8571692 C23.596517,21.1515467 23.5421415,21.4665493 23.4390157,21.7046763 C23.3283897,21.9221782 23.1352631,22.3534318 22.8465107,22.3853071 C22.651509,22.4078073 22.5202579,22.2353058 22.4471323,22.0740545 C22.3365063,21.8209273 22.2708808,21.5115497 22.2483806,21.2134222 C22.2146303,21.2002971 22.2183803,21.1365465 22.2090053,21.076546 C22.2071302,21.0615459 22.2052552,21.0484208 22.2033802,21.0371707 C22.1977552,21.078421 22.17713,21.0015454 22.1865051,20.9246697 C22.17713,20.8740443 22.1696299,20.8196688 22.1602549,20.7690434 C22.1415047,20.6302922 22.1302546,20.484041 22.1902551,20.3509149 C22.3083811,20.0865377 22.6102587,19.9665366 22.887761,20.009662 C23.3096396,20.0771626 23.5083912,20.4165404 23.5608917,20.8009187 Z M22.293381,19.3740316 C22.1227545,19.4752825 21.9352529,19.3721566 21.8021268,19.2540306 C21.5958751,19.0702791 21.4083735,18.8171519 21.2639973,18.5527747 C21.228372,18.5546497 21.2058718,18.4946492 21.1721215,18.4440238 C21.1627464,18.4327737 21.1552464,18.4196486 21.1496213,18.4083985 C21.1589964,18.4496488 21.110246,18.3877733 21.0877458,18.3146477 C21.0596205,18.2715223 21.0314953,18.2246469 21.0014951,18.1833966 C20.9264944,18.0652706 20.8571188,17.9358945 20.8552438,17.7915183 C20.8552438,17.5008908 21.0783707,17.2665138 21.352123,17.1933882 C21.7646265,17.0790122 22.0852542,17.3077642 22.291506,17.6358919 C22.293381,17.6358919 22.293381,17.637767 22.293381,17.637767 C22.299006,17.647142 22.3065061,17.6546421 22.3102561,17.6640172 C22.3158812,17.6715172 22.3177562,17.6790173 22.3196312,17.6846424 C22.4696325,17.9415195 22.5502581,18.2508971 22.5540082,18.5077743 C22.5408831,18.7515264 22.5427581,19.2240304 22.293381,19.3740316 Z M19.812735,10.3552054 C20.6996175,10.9139601 21.9521281,11.6789666 22.3365063,12.7121003 C22.6965094,13.6683584 22.0721291,14.684617 21.1927467,15.0164948 C19.6383585,15.5302491 17.7352175,14.3789894 18.1120956,12.5714741 C18.2133465,12.082095 18.2827221,11.4820899 18.5639745,11.0583363 C18.8339767,10.6552079 19.3252309,10.0458278 19.812735,10.3552054 Z M20.4183651,17.0227618 C20.3077392,17.1277626 20.1502379,17.0790122 20.0339869,17.0133867 C19.8483603,16.9102608 19.6683588,16.7527595 19.5183575,16.578383 C19.4921073,16.5858831 19.4639821,16.5446327 19.4302318,16.5127574 C19.4227317,16.5071324 19.4152316,16.4977573 19.4077316,16.4921323 C19.4227317,16.5221325 19.3758563,16.4827572 19.3458561,16.4302567 C19.3177308,16.4021315 19.2896056,16.3740063 19.2614804,16.345881 C19.1846047,16.2708804 19.1114791,16.1865047 19.0871039,16.0758788 C19.0402285,15.8602519 19.1677296,15.6465001 19.3608562,15.5489993 C19.6496086,15.397123 19.927111,15.513374 20.1352377,15.7252508 C20.1352377,15.7271258 20.1352377,15.7271258 20.1352377,15.7271258 C20.1427378,15.7327509 20.1483628,15.7402509 20.1539879,15.745876 C20.1577379,15.749626 20.161488,15.755251 20.163363,15.7590011 C20.3152393,15.9277525 20.4296152,16.1433793 20.4727406,16.338381 C20.5027408,16.5221325 20.5814915,16.8727605 20.4183651,17.0227618 Z M16.2839552,9.67457465 C16.2539549,9.63519932 16.3064554,9.56394872 16.3364556,9.48707307 C16.3420807,9.46832291 16.3495807,9.45144776 16.3570808,9.43832265 C16.3195805,9.479573 16.3514558,9.38207218 16.4170813,9.29769647 C16.4452065,9.23394593 16.4714568,9.16644536 16.501457,9.1008198 C16.5764577,8.92831834 16.6683334,8.75019184 16.8295848,8.64331593 C17.1558376,8.42018905 17.5870912,8.49331467 17.8758436,8.74456679 C18.3145973,9.12331999 18.3052223,9.65582449 18.0914705,10.1358285 C18.0877204,10.1377036 18.0877204,10.1377036 18.0877204,10.1395786 C18.0858454,10.1545787 18.0783454,10.1658288 18.0727203,10.1789539 C18.0670953,10.188329 18.0633452,10.1958291 18.0577202,10.2033291 C17.8833437,10.5633322 17.5964663,10.8895849 17.3077138,11.0902116 C17.0264615,11.2645881 16.493957,11.6227161 16.1377039,11.4520897 C15.8958269,11.3358387 15.8695767,11.0489613 15.8995769,10.8108343 C15.9520774,10.4377061 16.0945786,10.0383277 16.2839552,9.67457465 Z M15.9652025,12.9521024 C16.0120779,13.5314822 15.6314497,13.9046104 15.1439455,14.095862 C15.1420705,14.095862 15.1401955,14.097737 15.1383205,14.097737 C15.1251954,14.1014871 15.1120703,14.1052371 15.0989452,14.1108621 C15.0876951,14.1127372 15.080195,14.1183622 15.0708199,14.1221122 C14.6939417,14.2552384 14.2589381,14.2871136 13.9139352,14.2233631 C13.5914324,14.1502375 12.9614271,14.0339865 12.826426,13.6646084 C12.7345502,13.4096062 12.9183017,13.1864793 13.1076783,13.0383531 C13.4039308,12.8096011 13.7901841,12.6239746 14.1764374,12.4964735 C14.1839374,12.4495981 14.2701882,12.434598 14.3470638,12.4008477 C14.3620639,12.3933476 14.3808141,12.3858476 14.3939392,12.3802225 C14.3376887,12.3839726 14.4333145,12.3370972 14.5345654,12.323972 C14.602066,12.2958468 14.6658165,12.2677216 14.7333171,12.2414713 C14.9095686,12.1720958 15.0989452,12.1083452 15.2901968,12.1439705 C15.6783251,12.2170961 15.9333272,12.5714741 15.9652025,12.9521024 Z M16.6345831,27.699102 C16.5933328,27.9166038 16.5314573,28.3422324 16.2839552,28.4416083 C16.1170788,28.5091088 15.9614525,28.3928579 15.8583266,28.2672318 C15.6989502,28.0778552 15.5639491,27.822853 15.4701983,27.5659759 C15.438323,27.5622258 15.4251979,27.5041003 15.4008227,27.4553499 C15.3951977,27.4440998 15.3914476,27.4328497 15.3858226,27.4215996 C15.3914476,27.4591 15.3539473,27.3972244 15.3445722,27.3259738 C15.3239471,27.2865985 15.3014469,27.2415981 15.2826967,27.1984728 C15.2320713,27.0822218 15.1833209,26.9565957 15.2039461,26.8272196 C15.2433214,26.5647174 15.4758234,26.3865909 15.7289505,26.3565906 C16.1152038,26.3097153 16.375831,26.5553423 16.5164571,26.8797201 L16.5164571,26.8797201 C16.5202072,26.8909702 16.5258322,26.9003452 16.5277072,26.9078453 C16.5314573,26.9134704 16.5333323,26.9190954 16.5352073,26.9265955 C16.6345831,27.1778476 16.6683334,27.464725 16.6345831,27.699102 Z M17.1614626,28.7884862 C17.7052172,28.7247357 18.0708453,29.0716136 18.271472,29.5291175 C18.271472,29.5291175 18.273347,29.5309925 18.275222,29.5347425 C18.278972,29.5459926 18.2845971,29.5591177 18.2902221,29.5703678 C18.2939722,29.5797429 18.2958472,29.587243 18.2995972,29.598493 C18.4383484,29.950996 18.4852238,30.3597495 18.4383484,30.6916273 C18.3783479,31.0010049 18.2939722,31.5953849 17.9452192,31.7416362 C17.7108422,31.839137 17.4895904,31.6722606 17.3452142,31.4960091 C17.1164622,31.2222568 16.9270856,30.8660038 16.7939595,30.5041257 C16.7489591,30.5003757 16.730209,30.417875 16.6964587,30.3466244 C16.6870836,30.3334993 16.6795835,30.3147491 16.6739585,30.303499 C16.6795835,30.3541244 16.6308331,30.2678737 16.615833,30.1722479 C16.5858327,30.1141224 16.5577075,30.0503719 16.5314573,29.9884963 C16.4583317,29.82537 16.3908311,29.6453684 16.4170813,29.4653669 C16.4733318,29.0866137 16.8014596,28.8316116 17.1614626,28.7884862 Z M15.7664508,24.744077 C15.7270755,24.9597038 15.6633249,25.3872075 15.4158228,25.4865833 C15.2508215,25.5522088 15.0951951,25.4359579 14.9920693,25.3103318 C14.8289429,25.1190802 14.6958168,24.864078 14.600191,24.6072009 C14.5683157,24.6053258 14.5551906,24.5490754 14.5308154,24.4965749 C14.5251903,24.4853248 14.5214403,24.4721997 14.5158152,24.4628246 C14.5195653,24.500325 14.48394,24.4384494 14.4745649,24.3690738 C14.4539397,24.3259485 14.4351896,24.2828231 14.4145644,24.2378227 C14.363939,24.1215718 14.3170636,23.9978207 14.3358137,23.8684446 C14.3751891,23.6059424 14.607691,23.4259409 14.8608182,23.3959406 C15.2489464,23.3490652 15.5076986,23.5965673 15.6483248,23.917195 C15.6483248,23.91907 15.6501998,23.9209451 15.6501998,23.9209451 C15.6539499,23.9303201 15.6576999,23.9396952 15.6633249,23.9490703 C15.6652,23.9546953 15.6652,23.9621954 15.667075,23.9659454 C15.7664508,24.2190726 15.8002011,24.5097 15.7664508,24.744077 Z M14.6508164,21.8434275 C14.609566,22.0590543 14.5476905,22.4865579 14.3001884,22.5859338 C14.133312,22.6534343 13.9776857,22.5353083 13.8745598,22.4115573 C13.7114334,22.2184307 13.5801823,21.9634285 13.4845565,21.7084264 C13.4526813,21.7046763 13.4395561,21.6484259 13.4151809,21.5959254 C13.4095559,21.5865503 13.4058059,21.5734252 13.4001808,21.5621751 C13.4058059,21.6015505 13.3683055,21.5396749 13.3589305,21.4684243 C13.3383053,21.425299 13.3195551,21.3821736 13.29893,21.3390482 C13.2483045,21.2227973 13.2014291,21.0971712 13.2201793,20.9677951 C13.2595546,20.7052929 13.4920566,20.5252914 13.7451837,20.4952911 C14.131437,20.4484157 14.3920642,20.6959178 14.5326904,21.0184205 C14.5326904,21.0202955 14.5326904,21.0202955 14.5345654,21.0221706 C14.5383154,21.0315456 14.5401904,21.0409207 14.5458155,21.0484208 C14.5476905,21.0559208 14.5495655,21.0596709 14.5514405,21.0671709 C14.6508164,21.3221731 14.6826917,21.6071755 14.6508164,21.8434275 Z M13.5126818,19.0421538 C13.4714314,19.2615307 13.4095559,19.6852843 13.1639288,19.7846601 C12.9970524,19.8521607 12.8395511,19.7340347 12.7364252,19.6102836 C12.5751738,19.415282 12.4401727,19.1640299 12.3445469,18.9071527 C12.3145466,18.9034027 12.3014215,18.8471522 12.2789213,18.7946517 C12.2714213,18.7834016 12.2657962,18.7721515 12.2620462,18.7609014 C12.2657962,18.8002768 12.2320459,18.7365262 12.2207958,18.6671507 C12.2001707,18.6277753 12.1814205,18.5808999 12.1607953,18.5377746 C12.1101699,18.4271486 12.0651695,18.2977725 12.0820447,18.1683964 C12.12142,17.9040192 12.353922,17.7277677 12.6070491,17.6958924 C12.9951774,17.6490171 13.2539296,17.8965191 13.3983058,18.2208969 C13.3983058,18.2227719 13.3983058,18.2227719 13.3983058,18.2227719 C13.4020558,18.232147 13.4058059,18.2415221 13.4095559,18.2490221 C13.4114309,18.2583972 13.4133059,18.2621472 13.417056,18.2677723 C13.5145568,18.5171494 13.546432,18.8077768 13.5126818,19.0421538 Z M11.765167,16.4058815 C11.5870405,16.1958798 11.4407892,15.9127524 11.3376634,15.6315 C11.3001631,15.629625 11.288913,15.5658744 11.2607877,15.509624 C11.2532877,15.4964989 11.2495376,15.4852488 11.2439126,15.4721237 C11.2495376,15.513374 11.2101623,15.4496235 11.1970372,15.3708728 C11.176412,15.3258724 11.1520368,15.277122 11.1314116,15.2302466 C11.0751612,15.1027455 11.0245357,14.9621193 11.0470359,14.8214932 C11.0864113,14.5346157 11.3432884,14.335864 11.6226658,14.3039888 C12.0501694,14.2533634 12.3332968,14.5233656 12.4889231,14.8796186 C12.4889231,14.8814937 12.4907981,14.8814937 12.4907981,14.8833687 C12.4945482,14.8927438 12.4982982,14.9039938 12.5039232,14.9133689 C12.5057983,14.918994 12.5076733,14.924619 12.5114233,14.9321191 C12.6201742,15.2039964 12.6539245,15.5246241 12.6182992,15.7815013 C12.5695488,16.0196283 12.5020482,16.4846322 12.2320459,16.5990082 C12.0501694,16.6740088 11.8776679,16.5427577 11.765167,16.4058815 Z M10.5632818,8.74831682 C10.587657,8.53831505 10.6270324,8.32268822 10.6720328,8.11456147 C10.7189081,7.7995588 10.7282832,7.48080611 10.6101572,7.15830338 C10.5895321,7.10392792 10.7132831,6.68204936 10.7751586,6.45517244 C10.7882837,6.40642203 10.7995338,6.3557966 10.8126589,6.3089212 C12.0595445,6.56767339 15.1233204,7.19017865 15.4008227,8.7220666 C15.8845768,11.4033393 11.8926681,12.4908485 10.6270324,10.1677038 C10.4057805,9.68769976 10.469531,9.21707078 10.5632818,8.74831682 Z M9.24889572,11.9939693 C9.62952394,11.8027176 9.991402,11.962094 10.2557792,12.2433464 C10.2595293,12.2452214 10.2595293,12.2470964 10.2595293,12.2470964 C10.2670293,12.2545965 10.2745294,12.2639715 10.2820295,12.2695966 C10.2839045,12.2733466 10.2895295,12.2789717 10.2932796,12.2845967 C10.4882812,12.5058486 10.6307824,12.794601 10.6832828,13.0477282 C10.7226582,13.2877302 10.820159,13.7508591 10.6007822,13.9458608 C10.4545309,14.0771119 10.2482792,14.0152363 10.0945279,13.9252356 C9.85827587,13.7864844 9.62577391,13.5746076 9.43077226,13.3439807 C9.39702198,13.3533557 9.36139667,13.2989803 9.31827131,13.2539799 C9.30702122,13.2464798 9.29952115,13.2371048 9.29014607,13.2258547 C9.30889623,13.26523 9.25077074,13.2127296 9.21139541,13.145229 C9.17389509,13.1077287 9.13639477,13.0702284 9.10076947,13.032728 C9.00326865,12.9333522 8.90951786,12.8208512 8.8795176,12.6821001 C8.82326713,12.3933476 8.99576858,12.1214703 9.24889572,11.9939693 Z M8.06951076,9.89957655 C8.07701082,9.9052016 8.08451088,9.91270166 8.09388596,9.91832671 C8.09763599,9.92395176 8.10138603,9.92770179 8.10888609,9.93332684 C8.33201297,10.1283285 8.51013948,10.3927057 8.59826522,10.6383328 C8.66764081,10.8727098 8.82326713,11.3170885 8.63576554,11.5383404 C8.50826446,11.6864667 8.29638767,11.6527164 8.13326129,11.5870908 C7.87638412,11.4820899 7.61950695,11.3020884 7.39450505,11.0995867 C7.36262978,11.1145868 7.31950442,11.0620864 7.27262902,11.0283361 C7.25950391,11.018961 7.25012883,11.0114609 7.24075375,11.0020859 C7.26325394,11.0377112 7.19762839,10.9964608 7.15075299,10.9345853 C7.10950264,10.89896 7.07012731,10.8670847 7.02512693,10.8333344 C6.91637601,10.7470837 6.80762509,10.6514579 6.76074969,10.5127067 C6.66512389,10.2389544 6.80012503,9.94645195 7.03262699,9.78520059 C7.38512997,9.54332354 7.76575819,9.65394948 8.06576072,9.89582652 C8.06763574,9.89582652 8.06951076,9.89582652 8.06951076,9.89957655 Z M3.24321996,9.4908231 C2.68634026,8.6151907 2.80446626,7.65893261 2.95821756,6.67829933 C2.97134267,6.59767364 2.99384286,6.51892298 3.00509295,6.4382973 C2.99384286,6.53954815 2.99009282,6.63517396 2.98634279,6.7345498 C3.07259352,6.04641899 3.2357199,5.3151628 3.38759618,4.7226578 C3.34822085,4.84828386 3.31447057,4.97390992 3.27697025,5.10891106 C3.4363466,4.4395304 3.61634812,3.77577479 3.81697481,3.13076934 C3.98385122,2.60013986 5.82511679,3.30702083 6.12511932,3.50952254 C6.85075045,4.00265171 7.46200562,4.75078303 7.60075679,5.64329058 C7.79950847,6.9351765 7.31387937,8.42956413 6.43449694,9.3726971 C5.60948996,10.0608279 3.98947627,10.660833 3.24321996,9.4908231 Z M18.8302267,38.0548145 C18.7777263,38.2741914 18.7271008,38.4879432 18.6746004,38.7110701 C15.1326955,35.1372899 11.8626678,30.9410044 9.93140149,26.2572148 C8.90014278,23.7596937 7.85575895,21.3352982 6.68949909,18.9034027 C5.94886783,17.3658897 5.22136168,15.157121 5.24948692,13.3121054 C5.24761191,13.3196055 5.24386187,13.3327306 5.24386187,13.3439807 C5.23448679,13.2877302 5.22511172,13.2296047 5.21948667,13.1714792 C5.21573664,13.1339789 5.24198686,13.0421031 5.27386213,12.9314772 C5.28323721,12.7777259 5.29073727,12.6239746 5.31323746,12.4833484 C5.31323746,12.4833484 5.31323746,12.4833484 5.31323746,12.4852234 C5.31323746,12.4833484 5.31323746,12.4814734 5.31511248,12.4795984 C5.31511248,12.4758483 5.31511248,12.4720983 5.31511248,12.4702233 C5.32261254,12.4308479 5.33386263,12.4083478 5.3413627,12.3708474 C5.39761317,12.1308454 5.45573866,11.8908434 5.51198914,11.6508414 C5.50261406,11.7145919 5.50448908,11.7783424 5.495114,11.8383429 C5.90761748,10.8783348 6.75699966,11.2439629 7.69263257,12.2770966 C10.3289049,15.1814962 12.0839197,18.9165278 13.0870532,22.6759345 C13.9026851,25.7190853 14.602066,29.0191132 16.2314547,31.7510112 C17.3564642,33.6335272 18.862102,35.5760436 18.8771021,37.8560628 C18.8752271,37.8973132 18.8564769,37.9685638 18.8302267,38.0548145 Z M17.2570884,25.8503364 C16.2352048,23.7446936 15.3445722,21.5621751 14.3058135,19.4734075 C13.8558097,18.5696498 13.4489312,17.7165176 13.6345578,16.7096341 C13.6326828,16.7171342 13.6289327,16.7190092 13.6270577,16.7246342 C13.6326828,16.696509 13.6401828,16.6683838 13.6476829,16.6383835 C13.6476829,16.6233834 13.6476829,16.6121333 13.6514329,16.5990082 C13.657058,16.574633 13.664558,16.5558828 13.6701831,16.5296326 C13.6889333,16.456507 13.7058084,16.3815063 13.7226835,16.3083807 C13.7226835,16.3046307 13.7226835,16.3008807 13.7264336,16.2971306 C13.7583088,16.1621295 13.7901841,16.0271283 13.8220594,15.8940022 C13.8089343,15.9727529 13.8089343,16.0477535 13.8033092,16.1265042 C14.4333145,14.570241 16.1677042,14.3771144 17.6245915,15.5864996 C20.403365,17.8908941 21.9840034,22.015929 22.9702617,25.3890825 C23.7896436,29.2816154 22.8558857,33.612902 20.2008633,36.6241774 C20.2664888,36.3429251 20.3321144,36.0560476 20.399615,35.7747952 C20.407115,35.75042 20.4146151,35.7316699 20.4221152,35.7072947 C20.8589939,32.3435162 18.6577252,28.7397358 17.2570884,25.8503364 Z M22.0777542,37.1023065 C22.0871292,36.9691803 22.1021294,36.8398043 22.1583798,36.7535535 C24.2171472,33.6822776 24.8021522,30.6335018 24.2040221,27.0709717 C23.9602701,25.6272095 23.6921428,24.1403219 23.954645,22.6909347 C23.958395,22.6703095 23.9621451,22.6515593 23.9640201,22.6346842 C23.9640201,22.6271841 23.9640201,22.6215591 23.9658951,22.617809 C23.950895,22.6684345 23.9302698,22.7134349 23.9152697,22.7696853 C23.9396449,22.6665595 23.9621451,22.5653086 23.9865203,22.4621827 C23.9921453,22.4415576 23.9921453,22.4228074 23.9958954,22.4021822 C24.0015204,22.3834321 24.0090205,22.3665569 24.0146455,22.3496818 C24.0202706,22.3159315 24.0296457,22.2821812 24.0371457,22.2484309 C24.0596459,22.1603052 24.0802711,22.0684294 24.1008963,21.9784286 C24.0952712,22.0065539 24.0971462,22.0346791 24.0952712,22.0609293 C24.1440216,21.9184281 24.2115222,21.789052 24.2902729,21.6840512 C24.7984021,20.8027937 25.7509102,20.4577908 26.5740422,21.7459267 C27.8490529,23.7465686 27.9653039,26.4728416 27.862178,28.7847362 C27.5959258,32.5272678 24.3333982,35.0829144 21.9633782,37.6029357 C21.9990035,37.4379343 22.0402538,37.2710579 22.0777542,37.1023065 Z M49.5373612,40.6498365 C48.4367269,42.9223557 44.5910694,45.3186259 42.0185477,44.6267451 C37.55601,43.4267349 32.7447193,43.2711086 28.4153077,41.5648442 C28.4153077,41.5648442 28.5765591,40.719212 28.6140594,40.717337 C32.467217,40.3235837 36.3184995,40.3348338 40.0629062,39.2191994 C42.3035501,38.5310685 46.5298358,35.6097939 48.8454804,37.3273084 C49.9292396,38.1316902 50.1073661,39.4685765 49.5373612,40.6498365 Z M34.8184868,37.3835588 C34.8203619,37.3779338 34.8222369,37.3723088 34.8241119,37.3648087 C34.8278619,37.3573086 34.8297369,37.3479335 34.8316119,37.3385585 C34.835362,37.3216833 34.839112,37.3010581 34.8447371,37.287933 C35.0209885,35.861046 36.0466222,34.5541599 37.0685059,33.6410272 C38.272266,32.5685181 39.5304017,32.1316395 41.1579154,32.2816407 C42.2022992,32.3810166 43.6141862,32.4466421 43.3273088,33.8829043 C43.3160587,33.9391547 43.2991835,33.9935302 43.2879334,34.0479057 C43.2691833,34.1285313 43.2485581,34.211032 43.2316829,34.2916577 C43.2316829,34.2935327 43.2298079,34.2972828 43.2298079,34.3010328 C43.1960576,34.439784 43.1641824,34.5785351 43.1304321,34.7210363 C43.1341821,34.681661 43.1266821,34.6479107 43.1266821,34.6085354 C43.122932,34.6272856 43.115432,34.6441607 43.1060569,34.6591608 C43.0873067,34.7041612 43.0779316,34.7547866 43.0591815,34.796037 C42.644803,35.8366708 41.9060467,36.5566769 40.7079116,37.0235558 C39.6729029,37.4285592 35.1822399,39.5604522 34.8091118,37.5616854 C34.7997367,37.5016848 34.8091118,37.4398093 34.8259869,37.3723088 C34.8222369,37.3760588 34.8203619,37.3816838 34.8184868,37.3835588 Z M51.515503,35.0041637 C49.3967351,37.282308 47.259217,34.5222847 45.845455,32.9735216 C43.8710634,30.8191284 41.2685414,29.8909955 38.5685185,31.4510087 C36.1328729,32.8572706 34.1547312,34.9272881 31.7997113,36.4704261 C29.7953194,37.7810622 27.7665522,39.644828 25.5240333,40.5054602 C25.5634086,40.3442089 25.5990339,40.1829575 25.6365342,40.0198311 C25.6515344,39.8585798 25.6702845,39.7085785 25.722785,39.6560781 C29.4953168,35.9135464 30.9972045,30.536001 35.3022409,27.2472232 C39.3616502,24.4121992 45.2754502,24.5940757 48.9467312,28.0947303 C50.2573673,29.3434909 53.3736437,33.0072719 51.515503,35.0041637 Z" id="形状"></path>
            </g>
        </g>
    </g>
</svg>
