<?xml version="1.0" encoding="UTF-8"?>
<svg width="60px" height="48px" viewBox="0 0 60 48" version="1.1" xmlns="http://www.w3.org/2000/svg" xmlns:xlink="http://www.w3.org/1999/xlink">
    <title>flying-dove-bird-shape-svgrepo-com</title>
    <g id="页面-1" stroke="none" stroke-width="1" fill="none" fill-rule="evenodd">
        <g id="形状库素材-动物" transform="translate(-800.000000, -163.000000)" fill="#545458" fill-rule="nonzero">
            <g id="flying-dove-bird-shape-svgrepo-com" transform="translate(800.000082, 163.680207)">
                <path d="M58.3802781,36.3050885 C59.3289635,35.6866085 59.4261382,35.1190745 58.6681334,34.3478615 C58.3931718,34.0681827 58.0540561,33.8244597 57.7003695,33.656317 C57.2447908,33.4399538 56.7452896,33.316782 56.2524974,33.1490586 C57.3115657,32.6730387 57.4167073,32.5664295 57.7160935,31.6807452 L57.2665949,30.9610023 C55.7085495,30.1658886 54.1620351,30.40154 52.6312448,31.0353247 C51.3491043,31.5660644 50.0920176,32.1610631 48.7986607,32.6623463 C47.1884114,33.2863821 45.5476574,33.4655317 43.8908649,33.4352366 C43.8151797,33.4232863 43.7386559,33.4130133 43.6611887,33.4061995 C41.5053143,33.2248486 39.0720674,32.737717 36.837363,32.0635738 C37.1491188,31.6743508 37.4476664,31.2813539 37.7073232,30.8643517 C38.2462394,29.9991087 38.0771532,29.7095762 37.0413565,29.3580909 C37.6157043,28.7348937 38.1879555,28.1584494 38.7076883,27.5377681 C39.172911,26.9821844 39.6198939,26.4022808 40.0001018,25.7868408 C40.2760068,25.3408014 40.4218213,24.7925556 40.0271472,24.3301632 C39.6011298,23.8315007 39.0173476,23.9081293 38.4524343,24.0542583 C38.3069343,24.0918912 38.1722314,24.1705116 37.9489497,24.2663235 C38.3184652,23.2023283 38.710309,22.2464099 38.9741588,21.2567371 C39.1713386,20.5160287 39.3107587,19.7277289 39.2880112,18.9664744 C39.2363314,17.2334725 38.4626025,16.8078745 36.9399887,17.5781441 C37.0508958,16.3459014 37.2179902,15.1168035 37.2539459,13.8837221 C37.2804672,12.9736131 37.2175709,12.0425387 37.0481703,11.1485731 C36.7723702,9.68969418 36.3241294,9.55666857 35.2467164,10.4959195 C35.1496464,9.62040346 35.078993,8.74362949 34.9447094,7.87628995 C34.8844339,7.48748619 34.7215325,7.10769756 34.5636629,6.74164128 C34.1065118,5.68131504 33.6145582,5.60049333 32.7819165,6.38114084 C32.4914405,5.47952285 32.1950943,4.55536702 31.8948694,3.63236429 C31.8658323,3.54336607 31.8194987,3.45960921 31.7747375,3.37658613 C31.283308,2.47161367 30.9697701,2.43607728 30.3218338,3.22049856 C29.6640436,2.0823906 29.4407619,0.643219165 28.0807349,0 L27.4811238,0.374652101 C26.9982902,1.73384045 27.2014451,3.10718045 27.4383544,4.46815086 C27.4961141,4.79961419 27.5444394,5.12940029 27.5845882,5.45824294 C27.5273526,5.76790223 27.5440201,6.09035043 27.6590154,6.40042903 C27.6662485,6.42013653 27.6731671,6.44015851 27.6804002,6.459866 C27.7698177,7.73183819 27.730822,8.98284496 27.5893054,10.2167649 C27.536787,10.4447639 27.4844783,10.6731822 27.4319599,10.9010763 C27.4097366,10.9977269 27.4264041,11.0802258 27.4648756,11.1465814 C27.0628637,13.6965009 26.2301171,16.1761863 25.1561633,18.6183435 C24.9003851,19.2000292 24.6844413,19.7992209 24.4385169,20.385519 C23.2940145,23.1142736 24.2186944,25.5388199 25.5158251,27.9227981 C25.9537928,28.7281848 26.3549662,29.5586252 26.7022584,30.4067813 C26.8156813,30.6839442 26.9058326,30.9504147 26.9730268,31.2061929 C26.2330522,30.1207081 25.4927632,29.0351186 24.7527886,27.9500531 C24.3264567,27.173389 23.8212948,26.4441068 23.1921225,25.7918725 C22.9521732,25.5434323 22.5728039,25.4291707 22.2575888,25.2533756 C22.1088391,25.5501412 21.9599846,25.8470116 21.805155,26.1553081 C21.3881527,25.6768772 20.9489271,25.1125928 20.4455473,24.6130916 C20.0143934,24.1849777 19.5418328,23.7820223 19.0320585,23.4544375 C18.0290727,22.8094363 17.5795741,23.0168892 17.3148856,24.0480735 C16.4586577,23.3244519 15.5673128,22.5494651 14.6481887,21.8090712 C14.4180932,21.6234224 14.1075953,21.5238366 13.81974,21.4258233 C13.0862647,21.1760202 12.8352038,21.2812667 12.4870729,21.8903122 C11.7424859,21.4712134 11.0303954,20.9793646 10.2494334,20.6520943 C9.09119859,20.16664 8.54767001,20.4604704 8.1776303,21.6448071 C6.85995349,20.7137327 5.41124279,20.1085658 3.81126657,19.9959814 C3.00084816,19.9391651 2.17019812,20.0216641 1.36271487,20.1388608 C0.991417232,20.1927419 0.615507205,20.4353119 0.315701662,20.6820749 C0.130052845,20.834808 -0.0406056946,21.1850354 0.00855822135,21.3933269 C0.0564642119,21.5960625 0.372098649,21.7790906 0.608693443,21.8822405 C0.861431612,21.9926235 1.15693924,22.0173627 1.43714212,22.0477625 C4.80356002,22.4125609 7.43555917,24.2135955 9.74217496,26.4945286 C11.1565024,27.8935513 12.3596031,29.511453 13.6076747,31.0707563 C14.3296191,31.9726887 15.2286164,32.5633895 16.2974336,32.925672 C17.9868274,33.4983425 19.7605021,33.8686967 21.1898198,35.0508321 C21.2171797,35.0734747 21.2552319,35.0837478 21.2996786,35.0867878 C21.3878382,35.2061859 21.4917219,35.3156254 21.6140552,35.4100746 C21.6422536,35.4319835 21.6718149,35.4528441 21.7000134,35.4746481 C21.1602586,35.5307306 20.6205038,35.5889097 20.0901834,35.6859796 C19.0072145,35.8841028 17.9200525,36.1364217 16.8859331,36.5071952 C13.8604129,37.5925751 12.7557448,41.0814311 14.5251216,43.7592397 C14.8672773,44.2767711 15.1358444,44.842523 15.4891118,45.4768319 C16.0484692,46.2962654 15.7692098,47.2457894 16.0241494,47.0311035 C16.2790889,46.8163128 16.5339236,45.9339829 16.6934705,45.685962 C16.8760793,45.1213632 17.1549194,44.7775302 17.8786458,44.6967085 C18.9376093,44.5781491 19.8088274,43.9157465 20.2634626,43.0996675 C20.5342311,43.0218857 20.8049995,42.9435799 21.0756631,42.8657982 C21.1098367,42.8790064 21.1435911,42.8867636 21.1778695,42.8862395 C23.6075524,42.8524851 25.8212913,43.8190959 28.1300037,44.3494163 C30.0041028,44.7796268 31.8988529,45.2317461 33.8076498,45.3776655 C37.5717817,45.6655207 40.3253803,43.9174238 41.9240986,40.4805621 C42.0028238,40.3115807 42.075469,40.1396643 42.1464369,39.9669092 C42.4492825,39.9541203 42.7524425,39.9502417 43.055288,39.9592568 C43.2678774,39.965232 43.4800475,39.9749809 43.6921127,39.9882939 C43.7648627,40.0254027 43.838032,40.0605198 43.9149751,40.0746715 C44.1971697,40.1272947 44.4709782,40.1901909 44.7374487,40.2615782 C44.8931169,40.3470123 45.0590583,40.4180851 45.2366354,40.4676683 C45.7087767,40.5990167 46.2036655,40.7896972 46.6844026,41.0245099 C48.4712856,41.9790656 49.8036382,43.5026229 50.7513801,45.5221172 C50.9656468,45.9788489 51.2957473,46.4155587 51.668827,46.7568758 C52.4903571,47.50922 53.3500443,47.2101482 53.615152,46.1268648 C53.6229092,46.0960457 53.629723,46.0648072 53.6365368,46.033988 C53.6694525,46.0160626 53.7033116,45.9993951 53.7348646,45.9795827 C53.8803646,45.8885928 54.0052137,45.7858622 54.1154918,45.6760034 C54.5278817,45.8920521 54.9435212,46.1092539 55.3610476,46.3278184 L56.200608,45.8030539 C56.6273591,44.972928 56.9028448,44.1175387 56.6663548,43.1598382 C56.7877446,43.1346797 56.9067234,43.0978854 57.0225573,43.0526001 C57.5720611,43.2000918 58.089278,43.2758818 58.5044982,42.7793158 C59.0392213,42.1402897 58.8581849,41.4009441 58.601673,40.7032148 C58.4939107,40.4103279 58.3321625,40.1356808 58.171777,39.8422698 C58.2666455,39.7786397 58.3570065,39.7085104 58.4420213,39.6314624 C58.9988629,39.6780057 59.5407143,39.6621768 59.8735403,39.0895063 C60.1527998,38.6097126 59.9552007,37.7757081 59.4193245,37.214883 C59.1023273,36.8841535 58.7290379,36.6069906 58.3802781,36.3050885 Z" id="路径"></path>
            </g>
        </g>
    </g>
</svg>
