<?xml version="1.0" encoding="UTF-8"?>
<svg width="61px" height="61px" viewBox="0 0 61 61" version="1.1" xmlns="http://www.w3.org/2000/svg" xmlns:xlink="http://www.w3.org/1999/xlink">
    <title>shrimp-svgrepo-com</title>
    <g id="页面-1" stroke="none" stroke-width="1" fill="none" fill-rule="evenodd">
        <g id="形状库素材-动物" transform="translate(-478.000000, -320.000000)" fill="#545458" fill-rule="nonzero">
            <g id="shrimp-svgrepo-com" transform="translate(478.029284, 320.771189)">
                <path d="M20.6256459,32.2638813 C20.1679129,27.0142495 16.3226516,23.0591839 12.0343058,23.4327764 C11.7578614,23.4565654 11.6039947,23.8503142 11.7377052,24.2951565 C12.0471964,25.3425751 13.065201,25.2876143 13.1604741,26.3862437 C13.2575051,27.484873 12.0234074,27.5929195 12.1204384,28.6934239 C12.2157115,29.7920532 13.4479342,29.6840067 13.5432073,30.784511 C13.6384804,31.8831404 12.4061406,31.9911869 12.5012965,33.0898162 C12.5983275,34.1903206 13.8306673,34.082274 13.9258233,35.1826612 C13.9514873,35.4719962 13.8837531,35.6934799 13.7719566,35.8821512 C13.7316442,35.814417 13.6859412,35.7429329 13.6364883,35.6679331 C12.8363345,34.4795384 11.4923153,35.3841059 10.6940366,34.1957112 C9.89575788,33.0073165 11.5875885,32.3646623 10.7874348,31.1781426 C9.98903883,29.9897479 9.00947162,31.5810319 8.37959079,30.2973641 C7.74970997,29.0119385 9.2035335,28.2978001 8.57552767,27.0124917 C7.94564685,25.7270661 6.48994832,26.4412044 5.8600675,25.1557788 C5.23018668,23.8703532 6.40944077,23.2459801 6.05600438,21.8726642 C5.90588767,21.2903613 5.47194373,20.9553233 5.14417133,21.1164556 C0.0813357541,23.5975415 -1.78815053,30.9363855 2.02593899,36.6089457 C5.83815351,42.281506 12.1772741,44.4751318 16.8556187,41.3312355 L16.8409703,41.3092043 C19.3879154,39.5751864 20.9589261,36.1053926 20.6256459,32.2638813 Z" id="路径"></path>
                <path d="M20.5890835,25.4084342 C20.1313505,25.8661672 20.1313505,26.6077273 20.5890835,27.0655775 C21.0468164,27.5234276 21.7883766,27.5233104 22.2443517,27.0655775 C22.7020846,26.6078445 22.7020846,25.8662844 22.2443517,25.4084342 C21.7883766,24.9524591 21.0468164,24.9524591 20.5890835,25.4084342 Z" id="路径"></path>
                <path d="M25.1318426,20.867433 C24.6741096,21.3234081 24.6741096,22.0649682 25.1318426,22.5227012 C25.5878177,22.9804341 26.3293778,22.9804341 26.7871108,22.5227012 C27.2448437,22.0649682 27.2448437,21.3234081 26.7871108,20.867433 C26.3293778,20.4097 25.5878177,20.4097 25.1318426,20.867433 Z" id="路径"></path>
                <path d="M24.1522753,40.4211603 C23.2587235,40.3112387 20.7264268,39.847998 19.9280309,39.0936645 L18.7323706,41.0474083 C18.7323706,41.0474083 23.101224,43.1440032 23.8830965,43.1274798 C24.666844,43.1109565 25.0458272,40.5310818 24.1522753,40.4211603 Z" id="路径"></path>
                <polygon id="路径" points="25.1703971 42.5360364 28.2612077 40.476121 27.0087116 38.9306572 24.9487963 40.549363"></polygon>
                <path d="M28.5926129,41.0656895 C28.2593327,41.3147121 26.1316832,44.7644669 26.1316832,44.7644669 C26.1316832,44.7644669 25.6024661,45.5628628 25.8459809,46.1176266 C26.085863,46.6541093 26.5857833,47.0587565 27.3126951,46.6430937 C28.0414818,46.225556 29.7479608,42.6037706 29.7479608,42.6037706 L28.5926129,41.0656895 Z" id="路径"></path>
                <path d="M24.9487963,45.1105205 C24.9487963,45.1105205 21.1969331,45.480363 20.3125219,45.480363 C19.4299856,45.480363 18.9886588,46.6577421 20.092796,47.3187947 C21.1969331,47.9816051 25.8313325,47.1723108 25.8313325,47.1723108 C25.8313325,47.1723108 24.8023124,46.1414156 24.9487963,45.1105205 Z" id="路径"></path>
                <path d="M28.759253,47.3644977 C28.759253,47.3644977 28.3673792,48.2360184 28.6951516,48.7450793 C29.0174162,49.235859 29.5759301,49.5562486 30.2277249,49.0270315 C30.8813947,48.4996894 31.9818991,44.6509125 31.9818991,44.6509125 L30.5939347,43.3160339 C30.3045997,43.6163845 28.759253,47.3644977 28.759253,47.3644977 Z" id="路径"></path>
                <path d="M28.2117547,49.4189053 C28.2117547,49.4189053 28.1604268,54.1246717 28.9917523,55.1079889 C29.8230778,56.0894311 30.9143243,55.4650581 30.7715904,54.5934202 C30.6306143,53.7217823 30.3888572,49.9590208 30.3888572,49.9590208 C29.3945244,50.270387 28.2117547,49.4189053 28.2117547,49.4189053 Z" id="路径"></path>
                <path d="M33.3862696,51.1199937 C33.9649397,50.9387052 34.2193529,50.0158565 34.2193529,50.0158565 C34.2193529,50.0158565 35.4279038,46.1469234 35.398607,45.7312607 L33.4777928,45.870479 C33.4777928,45.870479 31.8645947,49.5343346 32.027602,50.3565195 C32.1923671,51.1785872 32.825998,51.2902666 33.3862696,51.1199937 Z" id="路径"></path>
                <path d="M34.4042742,51.1601888 C33.6682219,51.8944834 32.2252967,51.6875309 32.2252967,51.6875309 C32.2252967,51.6875309 34.3566962,55.8843536 35.5486065,56.3695083 C36.740634,56.856538 37.4180928,55.7963461 36.8889929,55.0895905 C36.359893,54.3828349 34.4042742,51.1601888 34.4042742,51.1601888 Z" id="路径"></path>
                <path d="M21.8726341,6.05790943 C23.2459501,6.41134581 23.8703231,5.23021673 25.1557487,5.86009755 C26.4411744,6.48997838 25.727036,7.9456769 27.0124616,8.57555773 C28.2978873,9.20543855 29.0120256,7.74974002 30.2973341,8.37774585 C31.5808847,9.00950167 29.9897178,9.98906889 31.1762375,10.7874648 C32.3646322,11.5858607 33.0072864,9.89578793 34.1956811,10.6940667 C35.3840758,11.4923454 34.4795084,12.8382396 35.667903,13.6347605 C35.74302,13.6860885 35.814387,13.7317914 35.8803633,13.7739788 C35.693567,13.8820253 35.4720833,13.9516345 35.1808733,13.9259705 C34.082244,13.8289396 34.1902905,12.5984747 33.0897862,12.5032016 C31.9892818,12.4061706 31.8831103,13.6385105 30.784481,13.5432373 C29.6839766,13.4479642 29.7920232,12.2157415 28.691636,12.1204684 C27.5930067,12.0251953 27.4849601,13.2575351 26.3863308,13.1605042 C25.2877015,13.065231 25.3426622,12.0472264 24.2952436,11.7377352 C23.8502841,11.6058997 23.4566525,11.7578914 23.4328636,12.0343359 C23.059271,16.3226817 27.0144538,20.1678258 32.2639685,20.6256759 C36.1054798,20.9589561 39.5753907,19.3878283 41.3075337,16.8408832 L41.3313227,16.8555316 C44.475219,12.177187 42.2834681,5.83806637 36.6090329,2.02585185 C30.9381133,-1.78812048 23.5975115,0.0813658069 21.1164256,5.14420138 C20.9552933,5.47197378 21.2903313,5.90591772 21.8726341,6.05790943 Z" id="路径"></path>
                <path d="M43.7628384,43.7646263 C43.7628384,43.7646263 45.9051363,41.6223283 46.804196,40.7250265 C47.7032556,39.8259668 48.3331365,38.569838 47.2070853,37.0739443 C46.6413059,36.3250013 45.9015035,36.215197 45.4053332,36.286564 C44.8413116,36.3671887 44.108892,36.9238276 43.7409244,37.24785 C42.6038577,38.2494484 40.3662866,40.3167465 40.3406227,40.3422933 C40.3168337,40.3660823 38.2495355,42.6055284 37.2479371,43.7425951 C36.9237975,44.1088049 36.3671586,44.8412244 36.2866511,45.4052461 C36.2152841,45.9014164 36.3250885,46.6412187 37.0740314,47.2069982 C38.5681673,48.3349243 39.826054,47.7014107 40.7251136,46.8041089 C41.6222983,45.9070414 43.7628384,43.7646263 43.7628384,43.7646263 Z" id="路径"></path>
                <path d="M50.1330136,44.5831784 C50.9551985,43.7628685 51.5319936,42.6147861 50.5010984,41.2506108 C49.9847719,40.5640114 49.3091881,40.4651054 48.8568458,40.5309646 C48.3422771,40.6042066 47.6739589,41.1132675 47.3389209,41.4079931 C46.3007601,42.3217011 44.2553759,44.2113436 44.2334619,44.2332576 C44.2096729,44.2552888 42.3236633,46.3005558 41.4081974,47.3387165 C41.1133546,47.6737545 40.6044109,48.3420727 40.5311689,48.8566414 C40.4651926,49.3088666 40.5659735,49.9845676 41.2508151,50.502769 C42.6149905,51.5317892 43.7630728,50.9549942 44.5833827,50.1346843 C45.4036926,49.3143744 47.3593114,47.3588727 47.3593114,47.3588727 C47.3593114,47.3588727 49.3145787,45.4034883 50.1330136,44.5831784 Z" id="路径"></path>
                <path d="M52.0757418,45.0116145 C50.8635582,44.6819671 48.7250102,46.9598506 47.8423568,47.8423868 C46.9598205,48.7249231 44.6819371,50.8635882 45.0115845,52.0757719 C45.3412319,53.2879556 47.1831792,60.280746 50.2776225,59.991411 C53.3720659,59.7003181 51.8670316,53.6340092 52.7513256,52.7514729 C53.6338619,51.8689366 59.7001709,53.3722131 59.9912637,50.2777698 C60.2807159,47.1832092 53.2896833,45.3412619 52.0757418,45.0116145 Z" id="路径"></path>
                <path d="M39.0936344,19.9280609 C39.8480851,20.7264568 40.3113259,23.2587535 40.4211302,24.1523054 C40.5309346,25.0458573 43.1109264,24.6668741 43.1274498,23.8831266 C43.1439732,23.101254 41.0473782,18.7305257 41.0473782,18.7305257 L39.0936344,19.9280609 Z" id="路径"></path>
                <polygon id="路径" points="38.9306271 27.0106167 40.476091 28.2612377 42.5360063 25.1704272 40.5493329 24.9507013"></polygon>
                <path d="M42.6037405,29.7479909 C42.6037405,29.7479909 46.2255259,28.0413947 46.6430637,27.3144829 C47.0587264,26.5839383 46.6522043,26.085893 46.1175966,25.846011 C45.5628327,25.6024961 44.7644368,26.1317132 44.7644368,26.1317132 C44.7644368,26.1317132 41.3146821,28.2593627 41.0639016,28.5926429 L42.6037405,29.7479909 Z" id="路径"></path>
                <path d="M47.1722808,25.8332376 C47.1722808,25.8332376 47.9815751,21.1969632 47.3187647,20.0929432 C46.6577121,18.9888061 45.4785752,19.4318906 45.4785752,20.3126691 C45.4785752,21.1970804 45.1123654,24.9507013 45.1123654,24.9507013 C46.1413856,24.8023424 47.1722808,25.8332376 47.1722808,25.8332376 Z" id="路径"></path>
                <path d="M43.3160039,30.5939647 L44.6508825,31.9819291 C44.6508825,31.9819291 48.4997766,30.879667 49.0271187,30.22963 C49.5544607,29.577718 49.2358289,29.0193213 48.7451664,28.6951817 C48.2361055,28.3674093 47.3645848,28.761158 47.3645848,28.761158 C47.3645848,28.761158 43.6163545,30.3065047 43.3160039,30.5939647 Z" id="路径"></path>
                <path d="M49.9589907,30.3888873 C49.9589907,30.3888873 53.7217523,30.6306443 54.5933901,30.7716204 C55.465028,30.9144715 56.0911588,29.8249828 55.1060838,28.9917823 C54.1246416,28.1604568 49.4188752,28.2135426 49.4188752,28.2135426 C49.4188752,28.2135426 50.2703569,29.3964295 49.9589907,30.3888873 Z" id="路径"></path>
                <path d="M50.3563723,32.0276321 C49.5324296,31.8646248 45.8703318,33.4778228 45.8703318,33.4778228 L45.7311134,35.3986371 C46.1449012,35.4279338 50.0138343,34.221258 50.0138343,34.221258 C50.0138343,34.221258 50.9366829,33.9667275 51.1179714,33.3881747 C51.2902365,32.826028 51.1785572,32.1923972 50.3563723,32.0276321 Z" id="路径"></path>
                <path d="M51.158401,34.4043043 C51.158401,34.4043043 54.3829221,36.3599231 55.0896776,36.889023 C55.7964332,37.4181229 56.8566252,36.7406641 56.3695955,35.5486366 C55.8825658,34.3566091 51.6876181,32.2253268 51.6876181,32.2253268 C51.6876181,32.2253268 51.8944533,33.6682519 51.158401,34.4043043 Z" id="路径"></path>
                <path d="M10.1025932,19.4043516 C10.3443502,19.3567737 10.6555992,19.3200941 11.0254418,19.3090785 C11.6736038,19.2889223 12.5012965,19.3402503 13.4589498,19.512281 C14.8944921,19.774077 16.6230023,20.3106769 18.4979963,21.2828613 C20.2942407,22.2167256 22.2241955,23.555237 24.1559082,25.4393716 C22.9766541,28.1291678 24.0716506,34.6880143 32.8075996,43.7718919 C34.2944699,45.2587622 35.8434494,44.537241 36.6180563,43.2829872 C37.4621552,41.913304 39.7436714,39.6336628 39.7436714,39.6336628 C39.7436714,39.6336628 42.0233127,37.3521465 43.3929958,36.5080476 C44.6472497,35.7335579 45.3686536,34.1825862 43.8819005,32.6975909 C34.6589219,23.8242986 28.035974,22.8337158 25.4285604,24.1026181 C22.5336867,21.1271196 20.9387699,18.1572462 20.1111944,15.6724103 C19.686391,14.3906175 19.4647902,13.2389024 19.375142,12.2831241 C19.3293218,11.805235 19.3184234,11.3749239 19.3293218,11.0050813 C19.3420952,10.6352387 19.3768998,10.3238725 19.4263528,10.0822327 C19.4592824,9.91371756 19.349478,9.74895246 19.1809629,9.71414788 C19.0124478,9.6812183 18.8476827,9.79102264 18.8128782,9.95953773 C18.7561596,10.243365 18.71948,10.5857858 18.7067066,10.9849251 C18.6829176,11.6825401 18.7396362,12.550428 18.9209247,13.5483936 C19.1937363,15.0444045 19.7486174,16.835141 20.7500986,18.7650959 C21.6912284,20.5742308 23.024232,22.5095762 24.8864527,24.4414061 C24.8242264,24.492734 24.7656328,24.5458198 24.710672,24.6006634 C24.6282895,24.6830459 24.5495397,24.7745691 24.4744228,24.8771078 C21.4587292,21.9693435 18.4392856,20.3452471 15.8904655,19.4975154 C14.5629697,19.0580637 13.3673094,18.8255644 12.3620782,18.7321663 C11.8604001,18.6845883 11.4063,18.6716977 11.0070434,18.6845883 C10.6077869,18.6974789 10.2636083,18.7359163 9.98165605,18.7926348 C9.81138315,18.8255644 9.70333661,18.9904467 9.7362662,19.1588446 C9.76943015,19.3293519 9.93419526,19.4391562 10.1025932,19.4043516 Z" id="路径"></path>
            </g>
        </g>
    </g>
</svg>
