<?xml version="1.0" encoding="UTF-8"?>
<svg width="61px" height="59px" viewBox="0 0 61 59" version="1.1" xmlns="http://www.w3.org/2000/svg" xmlns:xlink="http://www.w3.org/1999/xlink">
    <title>free-illustrations-of-monkeys-svgrepo-com</title>
    <g id="页面-1" stroke="none" stroke-width="1" fill="none" fill-rule="evenodd">
        <g id="形状库素材-动物" transform="translate(-82.000000, -238.000000)" fill="#545458" fill-rule="nonzero">
            <g id="free-illustrations-of-monkeys-svgrepo-com" transform="translate(82.660988, 238.947256)">
                <path d="M12.1007534,24.0547594 C12.1007534,23.6094486 11.7398173,23.247575 11.2945065,23.247575 C10.8491958,23.247575 10.487205,23.6094486 10.487205,24.0547594 C10.487205,24.5000702 10.8490786,24.8611234 11.2945065,24.8611234 C11.7398173,24.8611234 12.1007534,24.5000702 12.1007534,24.0547594 Z" id="路径"></path>
                <path d="M16.2535106,23.247575 C15.8071452,23.247575 15.4462091,23.6094486 15.4462091,24.0547594 C15.4462091,24.5000702 15.8071452,24.8611234 16.2535106,24.8611234 C16.6988214,24.8611234 17.0597574,24.5001873 17.0597574,24.0547594 C17.0596403,23.6094486 16.6987042,23.247575 16.2535106,23.247575 Z" id="路径"></path>
                <circle id="椭圆形" cx="12.4402442" cy="29.0127088" r="1"></circle>
                <path d="M15.0649996,28.4190392 C14.7372275,28.4190392 14.4713301,28.6848194 14.4713301,29.0127088 C14.4713301,29.3404809 14.7372275,29.6063783 15.0649996,29.6063783 C15.392889,29.6063783 15.6597239,29.3404809 15.6597239,29.0127088 C15.6597239,28.6848194 15.392889,28.4190392 15.0649996,28.4190392 Z" id="路径"></path>
                <path d="M58.0853003,47.4913475 C56.6128451,46.5708433 50.1534954,41.2436376 50.1534954,41.2436376 C50.1534954,41.2436376 49.6015444,37.3791605 48.8646723,32.0432829 C48.1876827,27.1345521 46.5795249,24.5674527 46.3264009,24.1872979 C47.0942104,22.4596094 47.5085838,20.6389915 47.5074119,18.7831003 C47.5085838,16.5459997 46.9126877,14.2811257 45.7262861,12.1123451 C44.9575391,10.7049287 44.5293376,9.23024699 44.5323845,7.93286925 C44.5442204,6.56717146 44.9467579,5.41709782 45.9698008,4.37917219 C46.7065557,3.64347194 47.6579973,3.28253585 48.6243216,3.28030929 C49.590646,3.28253585 50.5420876,3.64347194 51.2788425,4.37917219 C51.8053639,4.90663107 52.0604801,5.58151124 52.0625895,6.27139136 C52.061652,6.96115429 51.8053639,7.63603447 51.2788425,8.16349334 C50.638181,8.80427209 50.638181,9.84219772 51.2788425,10.4828593 C51.9196213,11.123638 52.9575469,11.123638 53.5982085,10.4828593 C54.7578914,9.32434819 55.3452329,7.78978387 55.3430063,6.27139136 C55.3451157,4.75288167 54.7578914,3.21843454 53.5982085,2.05992344 C52.2281748,0.689889726 50.4192756,-0.00198257137 48.6243216,4.79321182e-06 C46.8292505,-0.00209975841 45.0203514,0.688835043 43.6504348,2.05992344 C41.9825117,3.71284667 41.2391942,5.85291643 41.2520848,7.93286925 C41.2552489,9.92973645 41.8746996,11.8934397 42.8462973,13.6820655 C43.7966843,15.4268634 44.2259404,17.125724 44.2269951,18.7831003 C44.2259404,19.9768847 43.9760976,21.1578957 43.5265681,22.3261333 C41.9161838,21.5797691 39.6056069,20.9026623 36.5558141,20.994537 C33.1184838,21.0981303 29.2658426,21.175005 25.9363243,21.4441837 C25.8989417,19.1450911 24.0291052,17.2913093 21.7215752,17.2913093 C20.7776335,17.2913093 19.9084573,17.6052533 19.2058038,18.1295482 C17.77495,16.8171705 15.867848,16.0152595 13.7737156,16.0152595 C11.6786457,16.0152595 9.77154373,16.8171705 8.34068994,18.1295482 C7.63803644,17.6052533 6.76886015,17.2913093 5.82491852,17.2913093 C3.49488856,17.2913093 1.60489594,19.1802472 1.60489594,21.5113318 C1.60489594,23.8424165 3.49488856,25.7314716 5.82491852,25.7314716 L5.90929319,25.7270185 C6.19757331,27.0863882 6.82874272,28.3187271 7.70752835,29.3288794 L7.70330962,29.5039569 C7.70330962,32.8570297 10.4208771,35.5745972 13.7738328,35.5745972 C14.5725797,35.5745972 15.3339439,35.4166291 16.0323786,35.1356145 L15.84652,35.5660426 C16.041988,35.6535813 16.1562454,35.7058467 16.1562454,35.7058467 C16.1562454,35.7058467 12.8448911,43.7101904 12.2928229,44.5378825 C11.5123572,45.7082295 8.70174322,49.0601305 4.93230482,51.6206673 C3.67652847,52.4758984 1.85051998,52.2656648 1.25263169,52.5411716 C-1.13927303,53.6453079 0.49759558,54.7578816 1.23341302,54.7578816 C1.96911327,54.7578816 5.48554485,55.1178802 6.77214138,54.749327 C8.06096447,54.3808909 15.9478868,46.5708433 15.9478868,46.5708433 L19.6725597,39.9204787 L22.5043846,45.3653402 L21.4002483,53.9206974 C21.4002483,53.9206974 23.3319595,56.9577168 24.7116026,56.6810382 C26.0923003,56.4056486 24.4360958,54.197376 24.4360958,53.0942944 C24.4360958,51.9901581 26.0923003,43.9858144 26.0923003,43.9858144 L23.6224662,37.193419 C26.385971,37.0032244 30.8986096,36.7065068 34.4416427,36.5323669 L31.8767699,40.5024295 C31.5682164,40.980787 31.3952483,41.5361364 31.3780218,42.1053139 L31.0363044,53.3782386 C31.0363044,53.3782386 29.1964678,54.850811 28.4607676,55.0344431 C27.7238955,55.2180752 28.8292037,57.0580289 28.8292037,57.0580289 L31.0363044,57.2427157 L33.7967624,55.7713152 L35.2692176,44.3626879 L41.1283353,38.6487649 C42.2912995,40.8900843 43.6121147,44.0391345 43.6121147,44.0391345 C44.0360974,44.8518266 44.7141416,45.5020975 45.5448806,45.8908069 L56.4280412,50.9863339 C56.4280412,50.9863339 55.8770277,53.9303068 54.7718367,53.9303068 C53.6687551,53.9303068 53.485123,55.4028791 53.6687551,55.9538926 C53.8525043,56.5070154 54.9565235,56.5070154 56.0606598,56.5070154 C57.1646789,56.5070154 57.1646789,56.3222115 57.3484282,55.771198 C57.5321775,55.2180752 59.0047498,52.8272251 59.7403329,50.9862167 C60.4773222,49.1464973 59.556818,48.4107971 58.0853003,47.4913475 Z M5.74405946,23.6714406 C4.58648586,23.6286673 3.66070822,22.6793351 3.66070822,21.5112146 C3.66070822,20.3163756 4.63031381,19.34677 5.82515289,19.34677 C6.26507305,19.34677 6.67300114,19.4791913 7.01471856,19.7044248 C6.27034647,20.8577797 5.81237951,22.2128135 5.74405946,23.6714406 Z M13.77395,33.8242915 C12.3527055,33.8242915 11.0948198,33.1345286 10.3077916,32.0751578 L17.2390536,32.0751578 C16.4521426,33.1345286 15.1953116,33.8242915 13.77395,33.8242915 Z M17.6182709,26.9751777 C18.0559645,27.7931432 18.4341271,28.9164982 18.2012764,30.1114545 L17.9203791,30.7627801 L13.9032073,30.7627801 L13.6448098,30.7627801 L9.52720875,30.7627801 C8.96986717,29.3298169 9.41306857,27.9405645 9.92986342,26.9751777 C8.83100053,26.4604922 8.06869882,25.3479184 8.06869882,24.0546422 C8.06869882,22.2725789 9.51338067,20.8277798 11.2946237,20.8277798 C12.2908308,20.8277798 13.182507,21.2804734 13.7740672,21.9906268 C14.3656273,21.2804734 15.2562489,20.8277798 16.2535106,20.8277798 C18.0346365,20.8277798 19.4794355,22.2725789 19.4794355,24.0546422 C19.4794355,25.3479184 18.7168994,26.4604922 17.6182709,26.9751777 Z M23.8724261,21.6479719 C23.1088354,21.7398466 22.374307,21.8401587 21.7186455,21.9661347 L21.5937241,22.2554695 C21.3823187,21.3371919 21.0288826,20.473289 20.5334158,19.7044248 C20.8739613,19.4791913 21.2829441,19.34677 21.7219267,19.34677 C22.9178205,19.34677 23.8863714,20.3163756 23.8863714,21.5112146 C23.8863714,21.5582066 23.8755902,21.6020346 23.8724261,21.6479719 Z" id="形状"></path>
            </g>
        </g>
    </g>
</svg>
