<?xml version="1.0" encoding="UTF-8"?>
<svg width="61px" height="61px" viewBox="0 0 61 61" version="1.1" xmlns="http://www.w3.org/2000/svg" xmlns:xlink="http://www.w3.org/1999/xlink">
    <title>rooster-svgrepo-com</title>
    <g id="页面-1" stroke="none" stroke-width="1" fill="none" fill-rule="evenodd">
        <g id="形状库素材-动物" transform="translate(-317.000000, -319.000000)" fill="#545458" fill-rule="nonzero">
            <g id="rooster-svgrepo-com" transform="translate(317.963176, 319.858128)">
                <path d="M53.5906656,13.0350311 C44.4436437,7.53101798 33.8226184,11.8330282 31.6676133,22.3350533 C31.4836128,23.2280554 31.2736123,24.9890596 31.3716125,26.7720639 C28.9896069,27.6240659 26.3136005,28.5360681 23.4495936,28.5360681 C23.0455927,28.5360681 22.6775918,28.5110681 22.325591,28.473068 L25.5815987,26.2510627 L23.5215938,26.0510622 C23.4895937,26.0480622 20.237586,25.7070614 20.2835861,23.5950563 C20.3015861,22.7700543 20.5515867,21.4980513 20.8155873,20.1510481 C20.9988824,19.2416672 21.1645805,18.3288278 21.3125885,17.4130416 C26.8856018,16.8130401 27.9406044,8.58302049 27.9406044,8.58302049 C27.9406044,8.58302049 24.6465965,10.2350244 21.2495884,11.1020265 C21.2815885,10.5820253 21.2895885,10.0330239 21.2425884,9.41902248 C20.9765877,5.99501431 24.6305965,2.91000695 24.6305965,2.91000695 C24.6305965,2.91000695 18.6305821,2.03300485 16.060576,7.07101688 C15.7458323,7.70185725 15.5071587,8.36786056 15.3495743,9.05502161 C15.2315198,8.51882544 15.0740927,7.99206299 14.8785732,7.47901785 C13.6805703,4.35301039 16.2745765,0 16.2745765,0 C16.2745765,0 10.3685624,1.53600367 9.33655995,7.30501744 C9.13017828,8.51665798 9.15733239,9.75658237 9.41656014,10.9580262 C9.3135599,10.8540259 9.22855969,10.7480257 9.11555942,10.6440254 C7.2185549,8.88602121 7.7245561,4.47201067 7.7245561,4.47201067 C7.7245561,4.47201067 3.85754687,8.33301989 4.96354951,13.0710312 C5.14254994,13.838033 5.46655071,14.6020349 5.8805517,15.2620364 C3.04954494,16.0980384 1.73854182,18.9420452 1.67554167,19.0830455 L0.960539959,20.6860494 L2.70454412,20.4830489 C2.70454412,20.4830489 2.93354467,20.4590488 3.28454551,20.4590488 C3.85154686,20.4590488 4.98054955,20.537049 5.8785517,21.0250502 C4.08254741,24.0190573 2.12454274,27.3760653 0.961539961,29.6560708 C-0.53446361,32.5910778 -0.554463657,37.4500894 2.85754449,37.7610901 C4.07254739,37.8720904 5.46455071,37.3680892 6.40955296,36.2280865 L6.60355343,39.806095 L7.82155633,38.2570913 C9.24455973,42.6961019 12.0065663,46.3661107 15.5185747,48.597116 C12.4315673,48.8921167 9.65556071,45.9741097 9.22655969,46.4841109 L17.2615789,56.0701338 C17.74058,55.5001325 15.9175757,53.6991282 17.3985792,49.6191184 C17.8545803,49.8281189 18.3175814,50.0211194 18.7925825,50.1831198 C19.1555834,52.2471247 21.3965887,54.7471307 23.8095945,55.4661324 C21.5505891,58.8531405 17.1665786,59.1591412 17.1665786,59.9991432 L30.1336096,59.9991432 C30.1336096,59.1361411 27.775604,59.3411416 26.1906002,55.4911324 C28.8576065,54.6221304 31.161612,50.7621212 31.4376127,48.5571159 C36.0726238,45.5981088 39.1756312,40.3380963 39.952633,34.346082 C41.5376368,36.5280872 40.5116344,40.6820971 40.5116344,40.6820971 C40.5116344,40.6820971 47.7316516,37.2640889 44.9086449,29.0560694 C49.0496547,29.0560694 51.8606614,36.3600868 51.8606614,36.3600868 C51.8606614,36.3600868 54.6906682,29.32107 52.6406633,23.064055 C56.3716722,22.6860541 59.8026804,28.054067 59.8026804,28.054067 C59.8026804,28.054067 61.721685,17.9270428 53.5906656,13.0350311 M6.39455293,20.1680481 C5.33155039,19.5760467 4.05754735,19.4590464 3.28454551,19.4590464 C2.8615445,19.4590464 2.58954385,19.4900465 2.58954385,19.4900465 C2.58954385,19.4900465 3.84854685,16.6880398 6.54055328,16.1300385 C7.04855449,16.6770398 7.62955588,17.0540407 8.23655733,17.1410409 C7.69455603,18.024043 7.06355453,19.0580455 6.39455293,20.1680481 M7.57255574,29.9510715 C7.72055609,25.15306 9.36756002,17.6290421 9.93356138,16.5480395 C11.1115642,14.2940341 14.6745727,13.1530314 17.0215783,15.0050358 C17.9485805,15.7360376 18.6275821,17.0030406 19.7985849,17.3590414 C19.6614412,18.1966797 19.5094168,19.0318136 19.3425838,19.8640474 C19.0535831,21.3380509 18.8035825,22.610054 18.7825825,23.5650562 C18.7405824,25.5040609 20.1955859,26.5950635 21.6295893,27.1330648 L18.6425822,29.1700696 L20.4465865,31.3450748 L15.9425757,30.8650737 L16.6095773,34.8390832 L12.6045678,31.8860761 L12.0545664,36.3660868 L9.6915608,33.4520798 L7.88655649,35.7490853 C7.88755649,35.7480853 7.52755563,31.402075 7.57255574,29.9510715 M30.32361,47.4861133 L29.9196091,47.7301139 L29.9666092,48.2051151 C29.907609,50.1251196 27.1816025,54.1761293 25.1235976,54.1761293 C22.9075923,54.1761293 20.242586,51.3771226 20.242586,49.6191184 L20.242586,49.0621171 L19.7085847,48.9021167 C14.6245726,47.3691131 10.5375628,42.750102 8.96355906,36.8060878 L9.71056084,35.8550856 L13.113569,40.0520956 L13.7805706,34.6140826 L18.7025823,38.2450913 L17.74958,32.5630777 L23.9585949,33.2230793 L21.104588,29.7840711 C21.7885897,29.9480715 22.5585915,30.0340717 23.4505936,30.0340717 C26.7106014,30.0340717 29.7626087,28.9410691 32.2146146,28.063067 C34.5646202,27.220065 36.596625,26.4930632 37.5686273,27.1780649 C38.2876291,27.6840661 38.6506299,29.1010695 38.6506299,31.3900749 C38.6486299,38.2130912 35.4586223,44.3791059 30.32361,47.4861133" id="形状"></path>
                <ellipse id="椭圆形" cx="6.06855215" cy="17.4690417" rx="1" ry="1"></ellipse>
                <ellipse id="椭圆形" cx="12.3215671" cy="17.4690417" rx="2.00000477" ry="1.50000358"></ellipse>
            </g>
        </g>
    </g>
</svg>
