<?xml version="1.0" encoding="UTF-8"?>
<svg width="37px" height="60px" viewBox="0 0 37 60" version="1.1" xmlns="http://www.w3.org/2000/svg" xmlns:xlink="http://www.w3.org/1999/xlink">
    <title>deer-4-svgrepo-com</title>
    <g id="页面-1" stroke="none" stroke-width="1" fill="none" fill-rule="evenodd">
        <g id="形状库素材-动物" transform="translate(-808.000000, -68.000000)" fill="#545458" fill-rule="nonzero">
            <g id="deer-4-svgrepo-com" transform="translate(808.253504, 68.000307)">
                <path d="M35.9833387,28.8019629 C35.9833387,28.8019629 33.9602355,31.2121322 31.3857711,32.7608655 C31.2712801,32.6727414 31.1574923,32.5837971 31.0357358,32.4964933 C26.9541392,29.5390643 19.6299994,32.7192644 14.9227455,32.264113 C13.2385449,32.1006382 12.0141831,28.8652434 12.6079658,24.7637252 C13.1416319,21.0779837 14.0054117,18.9594909 12.4380458,17.3057588 C13.414793,15.9629217 13.6038144,13.891655 13.6038144,13.891655 C10.4734185,13.1522098 9.217768,15.6632765 9.217768,15.6632765 C9.217768,15.6632765 8.99183293,15.7000729 8.66652394,15.7578458 C8.80667868,15.1248057 9.12800334,14.5094608 9.75061381,13.7611095 C11.9484417,11.1281691 16.4081982,10.629073 16.689328,5.77428158 C16.9977622,0.442776584 12.0614092,-0.533853506 13.0085084,0.2280914 C14.9723153,1.80494939 15.6534017,4.36171869 15.0597362,5.93295174 C15.0597362,5.93295174 13.5229559,4.22636858 12.1023072,3.99152737 C11.749811,3.93305144 11.6633276,4.36816393 12.1440255,4.59808333 C17.5202956,7.17407116 12.5246464,10.7748526 10.8411489,10.0129077 C9.07210551,9.21158825 9.25468166,6.64520968 8.14738892,6.86399638 C7.04091648,7.0834862 10.3420527,11.2066839 8.70906255,13.1946312 C7.98719533,14.073528 7.35415529,15.2337889 7.35415529,15.2337889 C7.21716458,15.5077703 7.14345443,15.7946422 7.10982198,16.0823344 C6.84861386,16.148779 6.61705386,16.2161611 6.46072742,16.2817854 C4.88551004,16.937208 3.67075752,18.3305524 3.21584055,20.2093993 C2.75986891,22.0875431 1.5074996,22.9993692 1.10930077,23.2829599 C0.881725102,23.3406155 0.653329128,23.2829599 0.198294974,23.6820962 C-0.256856366,24.0802951 0.0356404787,25.5521542 1.45066428,25.1050887 C3.724546,25.7869954 7.88383707,23.5899878 7.9406724,24.8206777 C7.9406724,24.8206777 6.44068858,29.3267228 7.06892399,35.8145044 C7.64911304,41.8110413 10.9405229,47.7642193 10.9405229,47.7642193 C10.9405229,47.7642193 8.72511706,56.612366 7.67055812,57.2445858 C6.61705386,57.8776258 6.19471467,59.5641701 6.19471467,59.5641701 C7.03845557,60.197093 10.0951413,59.880573 10.0951413,59.880573 L13.7656486,48.3722987 L13.6573685,42.6650946 C13.6573685,42.6650946 19.3342214,43.2981346 22.7074272,42.8766157 C26.0814533,42.4542765 27.7800678,42.5112291 27.7800678,42.5112291 C27.7800678,42.5112291 30.9208933,49.2095943 30.2935953,50.4651276 C30.010825,51.0307856 27.9907686,57.2668511 27.9907686,57.2668511 C27.9907686,57.2668511 26.7352353,58.4175028 26.526175,59.6737392 C26.526175,59.6737392 28.891462,60.4061532 30.4610545,59.6737392 L30.5651159,57.9991479 C30.5651159,57.9991479 34.071328,49.9338052 33.4327802,48.3722987 C31.5491287,43.7675827 33.5248886,41.4495218 33.6403171,41.0465183 C34.4936672,38.0650661 34.3229269,36.162196 33.2204388,34.5893223 C37.3085978,32.7889902 35.9833387,28.8019629 35.9833387,28.8019629 Z" id="路径"></path>
                <path d="M5.91745203,49.3129526 L4.87097895,43.5577021 L7.37255353,42.6802116 C6.96955006,41.5128023 6.58810886,40.2309021 6.29397141,38.8935728 C5.16992103,39.4151687 3.84618531,40.069771 2.46409085,40.8373409 C1.48335924,41.3822569 1.65644331,42.3333404 1.83597262,42.9293495 C2.42811467,44.9037033 3.92798131,50.2544268 3.92798131,50.2544268 C3.92798131,50.2544268 4.34703929,52.7663138 5.81175005,53.3936117 L7.17310255,50.3594257 L5.91745203,49.3129526 Z" id="路径"></path>
                <path d="M28.2008835,47.1167653 C28.1031502,46.8130186 28.0374087,46.5037641 27.9958076,46.192869 C27.6857329,45.4019791 27.3364007,44.5711287 26.9782795,43.7739108 C26.4446134,43.7906684 25.6346222,43.833207 24.558501,43.9357449 C24.7532645,45.1343258 24.9879885,46.2849774 25.1642366,46.9075879 C25.8941897,49.4739665 23.5072232,55.9656152 22.9985178,56.2765103 C21.3054111,57.3125538 21.1148662,58.9142553 21.1148662,58.9142553 C21.1148662,58.9142553 23.5649961,59.4783898 24.7893578,59.0080042 C25.3165787,58.8052721 25.4472414,57.218922 25.4472414,57.218922 C25.4472414,57.218922 29.1534905,50.0661085 28.2008835,47.1167653 Z" id="路径"></path>
            </g>
        </g>
    </g>
</svg>
