<?xml version="1.0" encoding="UTF-8"?>
<svg width="61px" height="60px" viewBox="0 0 61 60" version="1.1" xmlns="http://www.w3.org/2000/svg" xmlns:xlink="http://www.w3.org/1999/xlink">
    <title>brand-gnu-svgrepo-com</title>
    <g id="页面-1" stroke="none" stroke-width="1" fill="none" fill-rule="evenodd">
        <g id="形状库素材-动物" transform="translate(-639.000000, -320.000000)" fill="#545458" fill-rule="nonzero">
            <g id="brand-gnu-svgrepo-com" transform="translate(639.381031, 320.771189)">
                <path d="M12.6814191,34.1525078 C12.2743294,34.1800078 11.7415588,34.3629077 11.3863785,35.0022072 C11.0967687,35.5240469 10.4137322,35.6060118 10.0968024,35.5022069 C9.56676523,35.327357 8.88919118,35.2071071 8.23347463,35.6743068 C7.57775807,36.1415065 6.87013004,35.7890567 6.99307696,34.9366273 C7.11875687,34.0841928 7.42475667,33.3273883 8.24167112,32.8574587 C10.0257664,31.8301794 8.78536925,31.1170848 9.7634801,30.0870655 C10.7415904,29.0570412 10.5284826,28.7401114 10.4956971,27.3385174 C7.18159583,26.8412677 5.30187459,25.8850134 3.2035815,23.2648801 C1.10528791,20.6447419 0.291106462,18.4863433 0.0752666065,15.1995655 C-0.140573248,11.9127827 0.0452166267,9.78443917 1.46593217,7.055016 C2.88665172,4.32832783 4.38113921,3.01416372 6.97121997,1.65081963 C9.56130073,0.287475549 12.0994705,-0.0376492325 14.44639,0.00333073997 C16.7933089,0.0413307144 18.3561003,0.213730599 19.6811944,0.97051509 C21.0062885,1.72731958 22.2193642,2.67810894 22.9925632,2.68630394 C23.7657627,2.69430393 24.2930678,2.48960407 24.6673711,2.20270426 C24.768471,4.74906755 22.4761866,4.9703724 20.4243399,5.02501737 C18.3724933,5.07966733 17.1129707,4.2299629 15.2223209,4.54686769 C13.3344037,4.86381747 10.2388748,5.7216919 8.73345829,8.34456014 C7.2280423,10.9674234 7.17613134,11.8936228 7.29907825,14.0930063 C7.42475817,16.2923898 9.3181389,17.9344137 10.3864107,17.9508087 C11.4546825,17.9673087 11.6923798,17.6584589 12.6295082,17.0491943 C13.5639045,16.4399247 18.3397073,10.5275487 19.9708022,9.19971956 C21.6018976,7.87189545 23.2084036,7.46207073 24.9460509,7.44021574 C26.6836997,7.41821576 27.1263094,7.47821572 28.5251735,8.05221533 C29.9240326,8.62596995 30.787397,9.68331424 31.9157762,10.3280988 C32.4922558,9.98929903 32.8501706,9.48113437 33.3802102,9.09316963 C35.273589,7.70796556 36.2571633,7.33639581 38.5084568,7.55496567 C39.8035009,7.68066558 41.4345948,8.42106008 42.4072392,9.26529452 C44.139423,10.7734435 45.5710735,12.8690021 46.7295078,14.464581 C47.6311172,15.7049752 48.6911914,17.1912692 50.2048054,17.6557339 C51.8577593,18.1611835 53.1008885,16.021905 53.2839434,14.8334208 C53.3877433,14.1613112 53.5216432,13.5711666 53.5243932,12.8307521 C53.5271232,12.0903376 53.4506432,11.1914632 53.2374934,10.4209937 C53.0243935,9.64779426 52.6582788,8.88005978 52.262119,8.2434702 C51.6173295,7.2079809 50.5627152,6.12331663 49.4671259,5.565957 C48.8523913,5.25175721 47.4043473,4.6834726 46.4890779,4.66434761 C45.3716287,4.63984762 44.5191927,5.01679737 43.4837084,5.08509733 C42.2323843,5.16979727 39.9947508,5.45119708 39.0139064,4.48402773 C38.3882419,3.86929314 38.3117419,3.45946842 38.205192,2.65621396 C38.4811418,2.88296381 38.8663715,3.0332637 39.2106213,3.06331368 C39.9947508,3.12886364 40.7297003,2.48955907 41.3608249,2.11798432 C41.8826695,1.81198452 42.620349,1.26555489 43.3061186,0.989610077 C45.0656289,0.279245555 47.2267574,0.30110554 49.0818912,0.489610413 C50.5709152,0.64261031 52.4998139,1.30378987 53.805783,2.04146937 C55.1172171,2.78461887 56.3822013,4.03321303 57.3084007,5.21350224 C58.4722999,6.69706124 59.1088894,7.97024039 59.5323742,9.82264414 C60.0706088,12.1859526 60.2208787,15.7350202 59.5708741,18.0655486 C59.0572295,19.9015524 57.3523656,22.7238655 55.8988616,24.1063345 C54.4672126,25.4696786 52.8142637,26.1281282 50.9318099,26.4887729 C51.0055599,26.8685227 51.0165099,27.2209925 51.1148598,27.5324572 C51.2542097,27.9750569 51.5165095,28.4668516 52.0601842,28.3111217 C52.276034,28.2482718 52.393484,28.1963718 52.6776488,28.4450216 C52.9617986,28.6936215 52.8142487,29.6608258 52.0110042,30.0925105 C51.6039045,30.3110604 51.1749648,30.3602603 50.5219802,30.3739103 C49.8689957,30.3874103 48.8526363,30.3904103 48.1450068,30.2646104 C47.4373823,30.1416605 47.0138976,29.5788409 46.2297681,29.4914109 C45.0166939,29.354811 44.090493,28.4805116 43.1178437,27.854852 C42.713494,27.5925522 42.576879,27.5898522 42.3419142,27.4587023 C42.4676141,27.843952 42.636964,28.2455618 42.721664,28.6171365 C42.8063639,28.9886863 42.7706639,29.332961 42.8145639,29.6307658 C42.8580639,29.9285656 42.9402638,30.1580705 42.9894138,30.4012303 C43.1834136,30.5760802 43.2462636,30.83838 43.5713634,30.923075 C43.8964632,31.0077749 44.4074028,30.876575 44.7434576,30.832925 C45.0795074,30.7894251 45.3008187,30.6061752 45.5631035,30.6553251 C45.8254034,30.7043251 46.0740182,30.893025 46.2925881,31.0678749 C46.5111379,31.2427248 46.6996878,31.2700747 46.8800027,31.7071994 C47.0576025,32.1470991 47.2215024,33.0459535 47.2461024,33.6442981 C47.2706024,34.2426377 47.2026024,34.7863374 47.0248026,35.264462 C46.8472027,35.7398617 46.6915028,35.9529666 46.2078931,36.4228963 C45.7242934,36.892846 44.9401725,37.5867955 44.158773,38.0703852 C44.3035729,38.283485 44.3664228,38.4801849 44.5931727,38.7124397 C44.8199225,38.9446896 45.2871387,39.2042394 45.4947836,39.4473892 C45.7024334,39.6905391 45.8089834,39.868139 45.8117334,40.1413538 C45.8144684,40.4145536 45.8007334,40.7724833 45.5794835,41.0702881 C45.0248539,41.8134326 44.3691378,41.9473076 43.5713484,42.2970223 C43.7051983,43.1330618 43.8144982,43.7314064 43.6203483,44.5674413 C43.5410984,44.9089411 43.3662485,45.6821605 42.9455038,45.8788754 C42.5247541,46.0755753 41.7160346,45.9799753 41.20239,46.0619253 C40.6887453,46.1438752 40.4018705,46.2203752 40.0029758,46.2996251 C39.7598259,46.6520749 39.3991712,47.0373046 39.2734913,47.3542344 C39.1477914,47.6711842 39.1860413,47.7831841 39.2899913,48.1028439 C39.3937912,48.4252437 39.7489909,48.8924384 39.8500809,49.2694731 C39.9511808,49.6465229 39.9702808,50.0508676 39.8775809,50.4279074 C39.7846809,50.8049571 39.623481,51.0781569 39.3010963,51.4142117 C38.9786965,51.7502615 38.3475769,52.0125563 38.0306471,52.2857711 C37.7136973,52.5562709 37.4022525,52.5890209 37.4869475,53.0398456 C37.6044474,53.6573102 38.5087718,54.6600095 39.1617563,54.8977094 C39.5524561,55.0397593 40.0770307,54.9960593 40.5524254,54.7938594 C40.5194254,55.3211691 40.0633757,55.6763488 39.7655659,56.0287936 C40.5742804,55.7965438 41.3584099,55.353954 41.8993745,54.7692694 C41.7299746,55.2774541 41.153495,56.0970986 40.2874056,56.8129231 C39.4213112,57.5287476 39.4267762,57.3839427 38.9978265,57.6680875 C39.7819559,57.8265374 40.5114404,57.7828374 41.12071,57.6735875 C40.7874103,57.8566374 40.2409606,58.1161872 39.5169361,58.1926921 C38.7929166,58.2691921 38.3475769,58.2146921 37.6945923,58.0560922 C37.0416078,57.8976423 36.4487282,57.3047477 35.6564037,56.897658 C35.7329036,57.1900078 35.7875536,57.5424476 36.1208534,57.8429824 C36.4541532,58.1435322 36.9568928,58.2965321 37.4896625,58.5588069 C36.8093529,58.4823069 36.0935284,58.457707 35.4268839,58.3102071 C34.9323842,58.2009071 34.5990444,58.0861572 34.2383997,57.9058573 C33.8777499,57.7255575 33.5963451,57.4659576 33.2766803,57.2446778 C33.4296802,57.5370276 33.4761302,57.8840024 33.73843,58.1244322 C34.0007298,58.364882 34.4241995,58.455032 34.7684493,58.6216819 C34.4105495,58.6136819 34.0662898,58.6927318 33.694715,58.5971819 C33.3231153,58.5015319 32.9734255,58.356732 32.5881958,58.0726072 C32.200246,57.7884574 31.8040663,57.4360177 31.4734765,57.0781079 C31.1428767,56.7202081 30.735792,56.2557284 30.6128471,55.9251387 C30.4898972,55.5945389 30.686597,55.362314 30.724847,55.0809042 C30.4980972,55.2311541 30.2166674,55.3131541 30.0418075,55.5317039 C29.8669576,55.7502538 29.7112077,55.9470037 29.7904576,56.3267584 C29.8669576,56.7065081 30.2166574,57.1682628 30.4653022,57.5890125 C29.7276177,56.985208 29.317798,56.7557081 29.1402081,56.0262236 C28.9762582,55.3459141 29.3997579,54.7284495 29.7248877,54.2120748 C29.8860876,53.957975 30.1237874,53.7175751 30.2740523,53.4716603 C29.9407025,53.1465605 29.5609578,52.8651207 29.274083,52.493551 C28.9872332,52.1220012 28.8697333,51.6192616 28.5773835,51.2640818 C28.2850337,50.908882 27.8943439,50.6848622 27.5528241,50.3925224 C27.8533739,51.037312 28.3451486,51.8269014 28.4517035,52.3268861 C28.5582535,52.8268857 28.3315036,53.1301405 28.1539037,53.4006254 C27.9763039,53.6711252 27.6921541,53.7312251 27.4216892,53.895125 C27.1511894,54.0590749 26.7304547,53.930625 26.5665248,54.1765248 C26.4053249,54.4224247 26.3616249,54.7912594 26.5175248,55.0344193 L27.1513844,56.0343886 C26.9191346,55.9168887 26.5175248,55.5753889 26.33447,55.3322241 C26.1514201,55.0890742 25.8754703,54.8650244 25.8372203,54.5371696 C25.7992203,54.2093198 25.7798703,53.925165 25.9929702,53.6328252 C26.20607,53.3404754 26.7880297,53.2421255 27.0475845,53.0180906 C27.3071343,52.7940408 27.4546842,52.6465409 27.4382842,52.3569111 C27.4217842,52.0673113 27.1404844,51.8596614 26.8945896,51.6766065 C26.1487101,51.1192469 25.1951907,50.6028672 24.5613292,49.9307577 C24.2034194,49.5510079 24.0312915,49.2422582 23.9602556,48.9799683 C23.8892206,48.7176685 23.9657056,48.5127686 24.1405754,48.1903789 C24.3181653,47.8679791 24.9274359,47.4363044 25.0012059,47.0865896 C25.0749558,46.7368898 24.768956,46.6603899 24.4902912,46.537425 C24.2116114,46.4144751 23.6870382,46.6002749 23.4274834,46.3844251 C23.1679286,46.1685752 23.5039834,45.7177805 23.2116436,45.4691557 C22.9193038,45.2205059 22.2581222,45.3598558 21.9166029,45.0921059 C21.5750832,44.8243561 21.4330133,44.4937663 21.3155293,44.1085311 C21.1980444,43.7232814 21.1843844,43.2970817 21.2636194,43.0184018 C21.3428543,42.739702 21.5832792,42.6878021 21.7280841,42.5430022 C21.872889,42.3982023 21.9985689,42.2780023 21.804584,42.0594025 C21.6105991,41.8408526 20.9767416,42.0729025 20.6133653,41.7944027 C20.2499906,41.5157028 20.4712954,40.8518083 20.2144706,40.5703985 C19.9576457,40.2889987 19.4959146,40.3982986 19.2527527,40.3108487 C19.0095929,40.2206987 18.9139679,40.5375985 18.763698,40.0376488 C18.6134282,39.5376492 18.6106982,38.0459102 18.4085183,37.4885506 C18.2063384,36.9311909 17.8129087,37.4505506 17.6298548,36.898406 C17.4467999,36.3465113 17.6216548,35.4612919 17.5369599,34.6252525 L17.1626551,32.352104 C15.856686,33.2291234 14.9960581,33.5050732 13.5917315,33.7509681 C13.4742466,37.1825508 13.1518568,39.2043444 14.315752,43.0102318 C15.4796488,46.8161198 17.8374967,49.0619483 21.0177225,52.2858911 C16.8206304,49.1410982 14.8179627,46.5865349 13.5639045,43.3106816 C12.3098464,40.0348338 12.5502757,37.2972157 12.6759546,34.1443128 L12.6814191,34.1525078 Z M34.9785192,32.7755037 C35.3009189,32.7890037 35.6943437,32.8711037 35.9211085,33.0186536 C36.1478584,33.1662035 36.3883082,33.2864034 36.5932181,33.4967532 C37.1068627,34.0185979 37.4920975,34.6497225 37.6614924,35.373742 C37.7707923,35.8354917 37.7871923,36.4283563 37.8254422,36.9720559 C37.6696923,36.4720562 37.5658924,35.9474966 37.3445926,35.4994219 C36.9948928,34.7917974 36.4019982,34.1005628 35.6670487,33.780898 C35.4238989,33.6770981 35.262699,33.6961981 35.1288141,33.7153481 C35.188914,33.816448 35.2900139,33.901148 35.2927639,34.0459479 C35.2954989,34.1907478 35.262764,34.4803476 35.0140641,34.6005775 C34.6124144,34.7972774 34.1643647,34.6579775 33.8556349,34.3847276 C33.5468851,34.1115278 33.4348852,33.6415831 33.5987851,33.2372284 C33.7954849,32.7590787 34.5386445,32.7563787 34.9785242,32.7754787 L34.9785192,32.7755037 Z M30.9321969,32.0924642 C30.9731968,31.2673547 31.2709966,30.5733852 32.0086662,30.1690305 C32.3911659,29.9613806 32.9785805,29.6908808 33.5195501,29.6253308 C34.0386548,29.5652309 35.3036439,29.6088308 36.0631834,29.9559306 C36.647863,30.2236804 37.0440228,30.6362352 37.5576674,30.939505 C38.0713121,31.2427548 38.4346918,31.4449546 38.9237465,31.7864744 C39.672356,32.308314 40.1122307,32.8820636 40.6313404,33.2263184 C40.8799902,33.3929683 41.232415,33.3683683 41.5630047,33.4694683 C41.3062049,33.5459682 40.9673951,33.6306681 40.6914503,33.5405182 C40.3444505,33.4285183 39.8608759,33.1115685 39.5903911,32.8848036 C39.1149914,32.4831539 38.8691015,32.286464 38.3499919,31.9859243 C38.0412421,31.8056244 37.5303474,31.5924745 37.1888277,31.3711897 C36.8473279,31.1498898 36.2571633,30.6608301 35.9293085,30.4969003 C35.5140088,30.2865004 34.7654093,30.1718005 34.3009446,30.1854505 C33.66162,30.2044504 32.7381507,30.3084004 32.246366,30.7564701 C31.7545663,31.2018198 31.5687914,31.5925095 31.6808114,32.1717241 C31.8666112,31.9586243 31.9895612,31.6908744 32.172611,31.5324046 C32.5551108,31.2045548 32.9949905,31.1881548 33.4731152,31.2510047 C34.0086198,31.3220547 34.2790996,31.6307545 34.4566895,32.1389541 C34.3364896,32.0515042 34.1178897,31.8602543 33.9457798,31.8001544 C33.5414301,31.6608045 33.2326853,31.7045544 32.8529156,31.9067043 C32.4048659,32.1471541 32.5250658,32.5050439 32.4622158,32.8984736 C32.4322159,33.0815235 32.3638659,33.2290734 32.3146659,33.3929733 C32.1452661,33.3494733 31.9895162,33.2782234 31.8611162,33.1525235 C31.8666162,33.3383233 31.8391163,33.4995232 31.8776162,33.7071531 C31.9156162,33.914803 32.0169661,34.1634028 32.0852661,34.3901876 C31.7738163,34.0787378 31.4541415,33.786383 31.2519617,33.3820233 C31.0497618,32.9776736 30.9131619,32.5295939 30.9350119,32.0869842 L30.9321969,32.0924642 Z M31.4731665,26.0926582 C31.7026664,25.7511584 31.7709663,25.2265638 31.9130662,24.8003491 C31.8556663,25.3413137 31.9649662,25.9341933 31.7026664,26.3248881 C31.4403665,26.7155878 30.9759118,26.6472878 30.5906821,26.7620378 C30.8884819,26.5352879 31.2409317,26.434188 31.4731665,26.0926632 L31.4731665,26.0926582 Z M25.9569502,34.1005978 C26.252,33.860148 27.0498095,34.0540979 27.6481491,34.0950978 C27.2191994,34.2043978 26.7902547,34.3136477 26.3613099,34.4256976 C26.32031,34.5704975 26.33931,34.7398974 26.24111,34.8628473 C26.1427601,34.9857972 25.9569602,35.0349472 25.8149103,35.1196471 C25.8284103,34.7371474 25.6619104,34.3409877 25.9570102,34.1005578 L25.9569502,34.1005978 Z M30.1644624,17.469984 C30.5223621,17.6612339 30.9731818,17.9153337 31.2873766,17.9235337 C31.6015764,17.9315337 31.6835264,17.7186338 31.8693262,17.5956839 C32.161676,18.5464733 32.4949908,19.5901526 32.9895105,20.450782 C33.1971604,20.8114318 33.3310103,20.6447819 33.4867602,21.0081416 C33.6425101,21.3715414 33.71351,22.1091959 33.8638099,22.5736656 C34.0140598,23.0381153 34.2080597,23.376915 34.3829196,23.7812748 C33.9430199,23.1610752 33.3774852,22.3687507 33.1343254,21.8496411 C32.8911756,21.3305364 33.0468755,21.2868214 32.8474256,20.7950318 C32.6479757,20.3032321 32.249081,19.5355126 31.9512762,18.904383 C31.7381763,18.931883 31.4731265,18.972683 31.3092216,18.920883 C31.1452717,18.8689831 31.1780717,18.6968332 31.0332718,18.5848333 C30.8857219,18.4728333 30.6398221,18.5165333 30.4322022,18.3389334 C30.2245523,18.1613335 30.1781024,17.7952338 30.1617024,17.470109 L30.1644624,17.469984 Z M28.2437587,22.1556259 C28.5798085,22.1256259 28.9951032,22.2157258 29.309298,22.1991258 C29.6234978,22.1826258 29.8475326,22.1007759 30.1180174,22.0488759 C30.0690175,21.5762262 30.1152874,20.7073868 29.6781177,20.390457 C29.3967179,20.1855572 28.2382737,20.3414571 27.9268039,20.406957 C27.2301094,20.5572069 26.4186599,20.9725117 25.7465504,21.2320665 C26.3913349,20.7812668 26.9486946,20.3632421 27.724629,20.1310072 C28.1890787,19.9916573 29.276488,19.8086074 29.7573477,19.9397573 C29.9758975,19.9998573 30.0196475,20.0900072 30.1534974,20.2758071 C30.6097471,20.9151317 30.6097471,21.4642963 30.727247,22.2101708 C30.8447469,22.3932207 30.9676968,22.5134206 31.0632968,22.6992205 C31.1588967,22.8850204 31.2108467,23.1828202 31.2381467,23.42324 C31.1179467,23.2510901 31.1916467,23.0325403 30.8610969,22.9041304 C30.5304971,22.7757304 30.0223275,22.8961304 29.5742528,22.9421303 C29.8994026,23.1770802 30.0606025,23.40388 30.0742525,23.9011147 C30.0877524,24.4830643 29.5961028,24.903814 29.0797481,24.944799 C28.3639236,24.9994489 27.9950838,24.843699 27.705479,24.2317045 C27.5797791,23.9639546 27.6699791,23.6415599 27.6589791,23.379275 C26.7983497,23.439375 26.8120146,23.412275 26.1836201,23.9338997 C26.5251198,24.4338993 26.7409747,24.7234941 27.3037993,25.0212989 C27.6207491,25.1906988 27.9786439,25.3518987 28.3720736,25.4201987 C28.7655233,25.4884986 29.4075579,25.5513486 29.8201126,25.4884986 C30.2326623,25.4256487 30.4649022,25.3081987 30.770902,25.0240489 C31.0769018,24.7398991 31.1042018,24.3355494 31.2244517,24.0158846 C31.1969517,24.3246344 31.1616017,24.7153191 31.0468518,24.939354 C30.699852,25.6196585 30.0960624,25.8191084 29.3802379,25.8218731 C28.6917334,25.8245684 27.836569,25.6660885 27.1972444,25.3983387 C26.6835997,25.1852388 25.8339003,24.5841592 25.6317204,24.0623196 C25.4951205,23.7044198 25.6017205,23.2672601 25.5882205,22.8683654 C26.29858,22.3957157 26.4734349,22.5131656 27.3149393,22.3738657 C27.6673891,22.3164657 27.9078139,22.1853658 28.2438687,22.1553159 L28.2437587,22.1556259 Z M24.1072815,18.959008 C24.1264314,18.6748582 24.1591914,18.6830582 24.1837814,18.5437083 C23.5362613,18.3716084 23.2767065,18.7896081 22.8996698,19.5709976 C22.7575999,19.8633474 22.8969373,20.0354473 22.7466699,20.2294472 C22.5964,20.423447 22.3505101,20.393397 22.1018818,20.5791469 C21.853257,20.7649468 21.6100971,21.1173816 21.3805938,21.3086314 C20.9051991,21.6993312 20.2658755,21.939761 19.7167129,22.2020458 C20.0910177,21.926096 20.8205027,21.5053463 21.0554675,21.1037216 C21.1811474,20.8906217 21.1620224,20.488987 21.3560023,20.2950021 C21.5499872,20.1010022 21.6182871,19.9698523 21.869647,19.9207024 C22.1210068,19.8717024 22.0199169,19.5819026 22.1018818,19.3496827 C22.1838468,19.1174329 22.3450416,18.953533 22.5171715,18.7240232 C22.6892964,18.4917733 22.9051363,18.1448036 23.2439245,18.0191236 C23.5827093,17.8934737 24.112749,18.0301236 24.3668393,17.9562737 C24.6236591,17.8825237 24.4761242,17.6967239 24.6619141,17.5847239 C24.847714,17.472724 25.2110737,17.521874 25.4596986,17.4016741 C25.9022983,17.1885742 26.1126831,16.8333844 26.3777029,16.4563497 C26.4157029,17.2732641 26.4077029,17.8606737 26.1127031,18.6311432 C25.7821033,19.4972326 25.4460586,20.0054173 24.5089192,20.5381869 C24.1865244,20.7212368 23.8641311,20.7840868 23.5963803,20.8824367 C23.7521152,20.6693369 23.97615,20.5764369 24.06631,20.2431121 C24.1564699,19.9098124 24.08816,19.2458778 24.11001,18.964463 L24.1072815,18.959008 Z M39.2598013,22.9424853 C38.8144516,22.9724853 38.7079066,22.9124853 38.3499919,23.1637852 C38.5439918,23.464335 38.7379416,23.7648598 38.9292115,24.0681246 C38.9127115,23.472515 38.9702115,23.355035 39.2570613,22.9424803 L39.2598013,22.9424853 Z M38.0931721,22.5107856 C38.7106366,22.2484858 39.2488713,22.0353859 39.9209808,21.991676 C40.1914807,21.975176 40.6094854,22.0161759 40.8799652,22.0301759 C41.112215,21.6886762 41.4072748,21.4209063 41.5165598,21.0302066 C41.5876097,20.7706568 41.5520597,19.5712376 41.4264098,19.2597728 C41.0575601,18.3526984 40.6969203,18.3144484 40.1887407,17.7953388 C39.8198909,17.418289 39.8034909,16.8445494 39.694241,16.2024949 C39.653241,15.967545 39.5384911,15.6669902 39.4838411,15.4238304 C38.8171966,15.3118305 38.1041071,15.2735805 37.3391026,15.3118305 C37.7106523,14.9566307 38.0685871,14.6315259 38.175142,14.0960263 C38.2816919,13.5605216 38.194142,12.9048071 37.8909922,12.4266774 C37.5877424,11.9485777 37.1013977,11.530533 36.656058,11.1398333 C36.2107083,10.7491335 35.5713938,10.4267437 35.150644,10.107079 C35.6998037,9.91037908 36.2598983,9.62077928 36.7981329,9.51693435 C38.199727,9.24373453 39.4073362,9.66173425 40.7570203,10.4786537 C41.5438797,10.9540534 42.1913993,11.4048531 43.0137788,12.2654825 C43.8361582,13.1261119 44.8525175,14.7025609 45.6475735,15.6369602 C46.442633,16.5713546 47.0846875,17.3117691 47.7786521,17.8691287 C48.4726216,18.4264884 49.1010162,18.5849533 49.7594657,18.942863 L50.789485,20.0357223 L51.6227945,19.005703 L52.9642786,19.1587029 L53.2402284,17.6532889 L54.4724276,17.3172391 L54.2702277,15.2872455 L55.1554471,14.6588509 L54.4915325,13.3965967 L55.1663771,12.0168627 L54.2866227,10.4404087 L54.6254225,8.92132975 L53.6063331,8.05250533 L53.4724332,6.44053641 L52.0489842,5.89683678 L51.4779646,4.49251272 L49.8796556,4.47351274 L49.0955262,3.43256344 L48.0190569,3.50906338 L46.8196427,3.37791347 L46.1393382,2.87791381 L45.1557638,3.53089837 L43.9645431,2.90796879 L41.5957647,3.80684818 L43.1394337,2.46262909 L44.7404726,2.20582926 L45.9672133,1.89437947 L47.6228972,2.4380791 L49.0791362,2.06922935 L50.4834602,2.89980379 L51.9697492,2.81785385 L52.6992337,4.12928797 L54.1800628,4.30138785 L54.9805822,5.75762187 L55.9122466,6.26580653 L56.1581464,8.13186528 L56.9859909,8.91872475 L56.6198911,10.5525537 L57.5980005,11.7902178 L56.6827311,13.1153119 L57.6635704,13.9431514 L56.4122463,15.0524056 L57.6799654,16.3720397 L56.1472264,16.8665394 L57.1444658,18.2817935 L55.8931366,18.4976433 L56.7127811,20.0549673 L55.302992,20.0359673 L56.0133515,21.2025965 L54.4669526,21.0167966 L54.8358023,22.6943405 L53.6664431,21.6670512 L53.2647934,23.7025048 L52.4588089,22.2408008 L52.0216592,24.0631496 L51.0271549,22.7189305 L51.0546549,24.6287042 L49.9535956,22.9101803 C50.1858454,23.8855597 50.1393955,24.951099 50.77871,25.8718334 C52.7622487,25.6040835 54.0600228,25.1040989 55.5791018,23.6423949 C56.9615709,22.3118358 58.6172548,19.5332376 59.0653245,17.7737338 C59.5762391,15.7628652 59.5926341,12.0689976 59.0898245,10.022614 C58.6062248,8.05273033 57.9751102,7.11014096 56.849461,5.50363204 C55.7729917,4.36159281 54.7156474,3.15398362 53.3523033,2.33979917 C51.3496397,1.14311997 48.7786814,0.820725191 46.4973329,0.853510169 C45.2323488,0.870010158 44.3853778,1.11305999 43.6285733,1.38900981 C42.3062092,1.86985949 41.2488699,2.91901878 39.9046508,3.43539343 C39.4675011,3.60479332 39.1150564,3.61024332 38.7708066,3.42439344 C39.1096064,4.09923799 39.4757011,4.40523778 40.3199356,4.65113262 C40.9292052,4.8287325 42.3854442,4.71668257 43.3854135,4.62363264 C44.4618778,4.5252827 45.0219739,4.20563292 46.4836729,4.2247329 C47.912592,4.24373289 49.0464312,4.78755253 49.6639008,5.14000229 C50.9425449,5.8694868 51.8578193,6.68093625 52.6528738,7.96505039 C53.0900235,8.66994492 53.3960183,9.46499938 53.6118581,10.2764488 C53.827708,11.0878983 53.9206079,11.9977077 53.9370079,12.7927621 C53.9505079,13.5878166 53.8905079,14.2954461 53.6965581,15.0112707 C53.2430084,16.6860795 52.2403191,18.3882134 50.1802754,18.1259236 C48.9207563,17.9647237 47.0191776,15.5986853 46.382583,14.7298608 C45.0984739,12.978547 43.7761082,11.0387183 42.1641393,9.57974931 C41.180565,8.6917999 39.8336109,8.07706532 38.5112518,7.9568504 C36.0304584,7.73010055 35.2927739,8.20000023 33.4267152,9.7409492 C33.8064649,9.86114912 34.1780547,9.92944907 34.5660244,10.104349 C35.4293839,10.4950487 36.2217083,10.9977634 36.9102079,11.6425529 C37.6314974,12.3201225 37.9566222,12.7490722 37.9839471,13.7162565 C38.0004471,14.3610411 37.4703025,14.8746857 36.9867078,15.3391554 C36.688908,15.6233052 36.2982083,15.8828501 36.0577784,16.1041549 C35.7381286,16.3965047 35.3446839,16.7161595 35.7435786,17.1833592 C35.8938285,17.3582091 36.1561284,17.492109 36.3774382,17.6533089 C36.727138,17.9128587 36.5659381,18.8773131 36.1069384,19.1341329 C35.5167888,19.4619827 34.8118943,19.4237327 34.3255746,18.986583 C34.9403092,18.893683 35.3282739,18.8144331 35.3146139,18.3117384 C35.3066139,18.0193886 34.9348642,17.7789688 34.5714644,17.6123089 C33.694445,17.2134092 33.0332655,17.2708091 32.161706,16.6451296 C31.2819566,16.01127 31.2628317,15.6642852 31.0224018,14.6697809 C30.5989021,14.7132809 30.2054874,14.7244308 29.6399327,14.9129307 C29.0743731,15.1014306 28.4432485,15.5495253 27.9296039,15.6588102 C26.6318298,15.93751 26.3722749,15.8555101 25.6619154,15.6723102 C24.4105908,15.3499104 22.7822273,15.9018101 21.1647929,16.4209197 C20.8970431,16.5056197 19.8069133,16.4236547 19.0746963,16.6804695 C17.9435851,17.0766193 16.3562047,18.0383486 15.4382013,18.8115481 C14.0475352,19.9809123 12.2224574,23.48353 11.1897036,27.5025273 C11.0804187,28.7238014 11.4301335,29.5489109 10.659666,30.1445205 C9.88919901,30.7401301 9.911056,32.2701341 9.64876967,32.6990838 C9.38648485,33.1280335 9.08594605,32.9367836 8.52312243,33.5405832 C7.96029931,34.1443928 7.6761555,34.0433029 7.6893458,35.1798771 C8.17340567,34.8629273 8.88103469,34.4913726 9.49850128,34.4695176 C10.0476639,34.4505176 10.0531284,35.1716821 11.462919,33.778283 C12.2169929,33.0324035 13.665034,33.0105486 14.6677343,32.6826888 C15.6704341,32.354839 17.4818514,31.6772545 19.2960007,29.6500008 C21.11015,27.6227422 21.9762424,25.4889286 22.3286902,22.4043307 C22.3860651,22.9507603 22.4816901,23.5682299 22.2467252,25.0763739 C22.0117604,26.5845229 21.5090437,28.2784567 22.57185,30.3084504 L23.2330305,31.5734345 C22.8395628,31.0351199 22.0690958,30.1581005 21.836863,29.5324359 L21.3013608,28.0898619 C20.1046781,29.9695806 19.8287303,30.3056354 18.1675815,31.6525895 C18.1020115,32.4886239 18.0856165,33.3601833 18.3588313,34.1579728 C18.6320461,34.9557623 18.1976364,35.8792266 18.4052813,36.4038013 C18.6129262,36.9311059 19.0937838,36.6305511 19.2495167,37.1633408 C19.4052516,37.6961104 19.1675518,38.7507197 19.4107116,39.2698294 C19.6538715,39.788939 20.2494826,39.4747292 20.5390909,39.6413791 C20.8287007,39.808029 20.9215906,40.0375288 21.077325,40.2588437 C21.2330599,40.4801435 21.01722,41.0019882 21.3314148,41.1713831 C21.6456146,41.340783 22.1374003,41.1958831 22.4652586,41.359883 C22.7931183,41.5238328 22.8422933,41.9145076 22.7630634,42.2642223 C22.6838284,42.6139221 22.3341137,42.775137 22.1811148,43.1303168 C22.0281149,43.4855165 22.0445098,43.7341214 22.2303147,44.0619811 C22.4160996,44.3898309 22.8231918,44.5701613 23.2302825,44.7340912 C23.6373723,44.8980411 24.2083934,44.8051411 24.6291411,45.034641 C25.0498908,45.2641408 25.4269306,45.7176805 25.6482354,46.0482703 C25.8695353,46.3788701 25.9323852,46.6110949 25.9214352,46.9580797 C25.9104352,47.3050795 25.7684353,47.7066892 25.5826355,48.040009 C25.3968356,48.3760587 24.9870259,48.7831535 25.6261354,49.425213 C26.265455,50.0672676 26.24087,49.7913128 26.6069748,50.2066075 C26.5659748,49.488053 26.270925,48.9006384 26.4867749,48.3596737 C26.7026247,47.8187041 27.3555993,47.7230792 27.699854,47.4799193 C28.0441038,47.2367695 28.2408187,46.9006997 28.5113035,46.6138249 C28.5085685,46.9853747 28.5468035,47.3870244 28.5058035,47.6657042 C28.4211036,48.2339938 28.2517037,48.7394385 29.0986781,48.8323334 C29.4811778,48.8733334 29.8445576,48.6246836 30.2461823,48.4771337 C30.0357825,48.8541834 29.6696977,49.1574382 29.6150578,49.6109779 C29.5604078,50.0645276 29.6260578,50.5590323 29.9401575,51.007107 C30.2516073,51.4552067 30.792587,51.7885014 31.1887517,52.0507913 C31.5849014,52.3130911 31.7952913,52.3349411 32.1012911,52.476991 C32.1147911,52.9223407 32.0275411,53.3895304 32.0792911,53.8102801 C32.1311911,54.2310298 32.262341,54.5971396 32.5027908,54.9441243 C32.7459407,55.2883741 33.1311854,55.487824 33.4972952,55.7446438 C33.2978453,55.2774441 32.8907556,54.8348394 32.8962206,54.3457847 C32.9017206,53.8567351 33.0492205,53.5070103 33.5273501,53.0726006 C34.0054998,52.6382009 35.1256591,52.2611511 35.6529637,51.8376664 C36.1802683,51.4141667 36.3523932,51.1546269 36.5409131,50.7448071 C36.729413,50.3349574 36.677513,49.6710679 36.713013,49.3022281 C36.8878629,49.8186078 36.9124629,49.9798027 36.9671128,50.5207673 C37.0217628,51.0617369 36.650163,51.8212764 36.4944631,52.2229012 C37.1474477,51.9059514 37.5627324,51.4032567 37.7703773,50.911467 C37.9097272,50.993417 37.8386772,51.2229168 37.8905772,51.6600765 C38.122827,51.4278267 38.3878269,51.2502268 38.6227917,51.031682 C38.8577415,50.8131321 39.1145914,50.6218822 39.2320663,50.3158574 C39.3495662,50.0098576 39.3003663,49.6874629 39.2130663,49.3322831 C39.1256164,48.9770833 38.7294666,48.5672786 38.5163668,48.1793139 C38.3032669,47.7913641 38.5543668,47.4115794 38.5408668,46.9443797 C38.114667,46.8706297 37.7512723,46.6547799 37.2622176,46.7258298 C36.7731679,46.7968798 36.2103383,47.3460294 35.7076237,47.3542244 C35.204904,47.3622244 34.9234942,46.8924747 34.5136695,46.7613448 C34.1038697,46.6301949 33.68583,46.6465949 33.2732753,46.5892449 C33.7978449,46.0892453 35.8278386,45.8488354 37.2185027,45.6220656 C38.4397768,45.4226157 39.652851,45.3078658 40.8932502,45.2914658 C41.4451448,45.2834658 42.1582343,45.4663157 42.5407341,45.3543158 C42.9232338,45.2423158 42.8439839,44.982716 42.9560338,44.6958662 C43.2756836,43.8980762 43.1172337,43.1877167 42.9450338,42.3844623 C41.8330495,42.2533124 40.6746153,42.0948625 39.5544311,42.1795624 C38.4588418,42.2642623 37.1610677,42.783367 36.0326884,42.818887 C35.0518441,42.848887 33.5956101,42.6303871 32.7513707,42.1167224 C31.7213513,41.4883279 30.9235619,40.1386438 30.6394171,39.7069641 C30.1776674,39.0020695 29.5957378,37.6168655 29.243288,36.9830059 C28.8908382,36.3491463 28.8115883,36.1715564 28.5165385,35.9092716 C28.2214387,35.6442718 27.819839,35.6251218 27.4701192,35.4830719 C27.8717689,35.5240719 28.3116236,35.395622 28.6750034,35.6060218 C29.224163,35.9202216 29.8388976,37.2261907 30.1804174,37.7917453 C30.5410671,36.5786712 30.4563672,36.1032765 31.5055115,35.4202369 C30.6612771,36.3655613 30.6421521,37.0813858 30.4345072,38.1933701 C31.1366717,39.3436093 32.1093161,41.1768831 33.3879652,41.6850627 C33.8497149,41.8681126 34.6392894,41.9856125 35.139274,42.0457125 C36.688403,42.2369624 38.185622,41.7451627 39.707436,41.3708679 C40.8221502,41.0949181 41.9505295,41.2069181 43.3029486,41.286168 C43.7619483,41.313668 44.8466125,41.0375682 45.0706489,40.5703435 C45.1908488,40.3189937 45.1826488,40.0184489 45.0077989,39.750699 C44.832949,39.4829492 44.3684778,39.3545493 44.119848,39.1141045 C43.8711982,38.8736546 43.7291483,38.5895348 43.5324384,38.324515 C42.4996841,38.5239649 41.6472497,38.5977148 40.8795152,38.6195648 C41.4314098,38.3928149 41.9587195,38.264365 42.5324691,38.0403502 C43.1062237,37.8163003 43.7564733,37.4474756 44.2182079,37.1442058 C44.6799576,36.840956 44.9750124,36.6606061 45.3110687,36.3054313 C45.6444185,35.9502316 46.0733432,35.5841468 46.321968,35.1497321 C46.5706179,34.7153324 46.6061178,34.2289977 46.6197678,33.6907631 C46.6332678,33.1525285 46.6087678,32.398454 46.403918,31.9667743 C46.1990181,31.5350746 45.7973784,31.4012196 45.4749836,31.3001297 C45.1525838,31.1990298 44.9340175,31.4558796 44.6006927,31.4913796 C44.2673929,31.5268796 43.9559081,31.7372794 43.4723134,31.5103796 C42.9887138,31.2836297 42.4177042,30.82188 41.9286495,30.1361055 C41.4395998,29.450336 41.09261,28.3274217 40.5953604,27.4640623 C39.737461,25.9777733 38.6691917,24.5871042 37.6473674,23.2101001 C37.5626674,22.8713004 37.4369675,22.4013857 37.3960175,21.939651 C37.3222676,21.1363965 37.3085676,20.3003571 37.5572174,19.5189626 C37.7484673,18.917888 38.0271671,18.2840285 38.6555467,18.0381336 C38.9068965,17.9397837 39.2238313,17.9015337 39.4506012,17.9834837 C39.677351,18.0654336 39.8959509,18.3195334 39.8085009,18.6146082 C39.712901,18.937008 39.4888511,18.945208 39.3358512,19.1091079 C39.0790014,19.3850577 38.9752015,19.5872576 38.8768515,19.9314874 C39.1555513,19.9259874 39.5325661,19.9069874 39.7593359,19.9669873 C40.0571357,20.0462373 40.3358206,20.2429371 40.4860855,20.6664169 C40.1308857,20.3494671 39.9533158,20.2046672 39.5079761,20.1937672 C39.3030762,20.1882672 39.0571764,20.2620671 38.8331366,20.2948671 C38.7484366,20.5680669 38.6992367,20.9041367 38.5817867,21.1172466 C38.4642868,21.3303464 38.232087,21.2784464 38.144637,21.5270463 C38.0571871,21.7729461 38.0544871,22.1772958 38.0981371,22.5024206 L38.0931721,22.5107856 Z M41.20236,22.1392359 C41.3389599,22.1938858 41.3908598,22.2047858 41.5630097,22.3359357 C41.7351596,22.4670856 41.9728595,22.5982356 42.1121744,22.9124203 C42.2487743,23.2266201 42.2433243,23.7129398 42.2132743,23.9096547 C42.0930744,23.8741547 41.9291245,23.8986547 41.8061746,23.7921548 C41.6832247,23.6856048 41.6067247,23.445155 41.4482748,23.3413551 C41.2898249,23.2375051 41.155925,23.2594051 40.9783251,23.2375051 C41.0684751,23.494355 41.112175,23.7538848 41.0712251,23.9861146 C40.9783251,24.4970293 40.6805253,24.7538541 40.1942007,24.8166891 C39.9811008,24.844189 39.645041,24.7731891 39.4619861,24.7401891 C39.5466861,24.931439 39.691486,25.0980889 39.7789359,25.2893538 C40.1887357,25.2292538 40.4947604,25.2374538 40.7133303,25.1363539 C40.9318802,25.0352539 41.16958,24.8030041 41.4537448,24.7046541 C41.7378946,24.6063042 41.9892444,24.6090042 42.3007092,24.5598542 C42.0548094,24.7702541 41.8963595,24.980604 41.6531897,25.1909788 C41.8307896,25.7100885 42.0110894,26.2319331 42.1886943,26.7510428 C42.5684441,26.9887426 42.9236438,27.1144425 43.4017685,27.4067573 C43.8799182,27.6991071 44.4536478,28.2236718 45.0765789,28.5105466 C45.6995085,28.7974464 46.0683532,28.9531463 46.7213378,29.0761012 C47.3743223,29.1990511 47.887967,29.7263558 48.5300215,29.8110507 C49.1693461,29.8957507 50.3660253,29.9148506 50.857815,29.8657007 C51.4179046,29.8110507 52.1446591,29.5214509 52.2102291,28.9094463 C51.7402794,29.0241962 51.0244749,28.9204463 50.6611001,28.0378869 C50.4999002,27.6444372 50.5791502,26.9231727 50.3332503,26.461438 C50.0873505,25.9996883 49.7458407,25.8494334 49.336016,25.2756838 C48.9261663,24.7046641 48.2568167,23.8030547 47.879777,23.0380503 C47.5027272,22.2730458 47.4153273,21.4042214 47.0983825,20.7184518 C46.7814327,20.0326823 46.300593,19.4780527 45.9290233,18.948018 C45.1175738,17.7923188 44.4618528,17.0027243 43.1258337,16.4207747 C42.4837741,16.1393749 41.7515596,16.0655749 41.0630551,15.8880051 C40.7843553,16.013705 40.3991455,16.1530049 40.3308406,16.4781497 C40.2625406,16.8032995 40.3936905,17.2895991 40.6313904,17.535494 C41.0275401,17.9453437 41.6176997,18.3906584 41.8499295,19.0436429 C41.9974794,19.4616427 42.0411794,20.8687217 41.9127795,21.2484915 C41.7788796,21.6446412 41.4674298,21.882351 41.21062,22.1473659 L41.20236,22.1392359 Z M41.3307599,25.4642686 C41.20506,25.5708186 41.11221,25.6801185 40.9127602,25.7702684 C40.7133103,25.8604184 40.4401105,25.8822684 40.1750757,25.9478683 C40.5466254,26.5270829 40.9373452,27.1117625 41.2925249,27.7183021 C41.6477247,28.3248417 41.9564395,28.9914863 42.2979592,29.6280758 C42.2814592,29.2619761 42.3034592,28.8740013 42.2514593,28.5324816 C42.1995593,28.1909818 42.0438094,27.893162 41.8908095,27.3822473 C41.7378096,26.8713377 41.5493097,26.1746382 41.3334499,25.4615436 L41.3307599,25.4642686 Z M31.3338166,12.7488272 C31.2819166,13.3171168 31.3773166,14.2077962 31.4950165,14.7651558 C31.6371164,15.4318004 31.7709663,15.7787851 32.3119309,16.1804099 C33.3037003,16.9153594 33.9348299,16.7924145 34.6970993,17.2186292 C35.0604991,17.420829 35.5194788,17.7623288 35.6533537,18.1202386 C35.7872536,18.4781383 35.5659038,18.8715831 35.2899539,19.024583 C35.7708036,19.0956329 36.3117783,18.5546333 36.0850084,17.9972936 C35.9730085,17.7240938 35.4456838,17.6011439 35.2844889,17.3251841 C35.1232891,17.0492343 35.1232891,16.7650945 35.199789,16.4836797 C35.3363889,15.97823 36.3390932,15.5165003 36.691543,15.1176056 C37.2352426,14.502871 37.4456175,13.9864913 37.1368927,13.1941669 C36.705193,12.0794526 35.0304041,11.1860382 34.0304348,10.7488935 C33.5714351,10.5494437 33.3146103,10.5357937 32.9567005,10.4264937 C33.688915,10.8554434 34.4593845,11.1969582 34.8309543,12.1559476 C35.139704,12.956467 34.8719542,13.2597368 34.8828542,13.9564364 C34.8883542,14.2788361 35.3145539,14.442736 35.5030488,14.6449359 C35.6669987,14.8225358 35.6532987,14.9536857 35.5220488,15.1995655 C35.5085488,14.9782657 35.4127489,14.8143158 35.243349,14.6941159 C34.9619492,14.494666 34.6614044,14.538366 34.5111345,14.1312912 C34.2843846,13.5110917 34.7351843,12.9264121 34.2297347,12.2297125 C33.8526849,11.7106029 33.3499802,11.1259233 32.6696707,11.1122633 C32.3500209,11.1042633 32.1068511,11.1532632 31.7653313,11.2543132 L31.3090816,10.7051535 L31.2980816,10.6971536 C30.3691523,9.84745413 29.7325577,9.1480196 28.4265886,8.56606999 C27.1206194,7.98412538 26.4785649,7.89396044 24.9840759,7.92675042 C23.4895899,7.95975039 22.0032989,8.08520031 20.271114,9.57969931 C18.5389292,11.0741883 14.0745917,16.7925845 12.9926594,17.516604 C11.9107272,18.2406235 11.6702978,18.4865183 10.3178822,18.4865183 C8.96546663,18.4865183 6.85351255,16.5740096 6.77154761,14.1833762 C6.68958266,11.7927428 6.65406269,10.9430434 8.31794607,8.06062533 C9.98182745,5.17820226 12.9926594,4.29571786 15.2275604,3.99518306 C17.4624614,3.69738326 18.803948,4.48423273 20.4596329,4.48698273 C22.1153173,4.48971773 23.7464127,4.20558292 24.2272714,2.8914038 C23.9923065,3.03075371 23.6753767,3.1892036 22.7874268,3.14275363 C21.8994774,3.09625366 20.6672763,2.06901935 19.2820752,1.37778482 C17.8968736,0.689280279 16.3559397,0.607315334 14.377861,0.571800358 C12.3997823,0.536300382 9.93264848,0.686550281 7.48737163,2.00617939 C5.04209527,3.32580851 3.37548189,4.72740257 1.95749484,7.30928583 C0.539507295,9.8911691 0.329131936,12.0003927 0.555900284,15.1287056 C0.782670131,18.2570235 1.74985098,20.5820869 3.60498273,22.8716304 C5.46284649,25.1611738 7.31797824,26.2813531 10.6648655,26.6966428 L11.369761,23.5901849 L10.1129704,25.3961387 L10.1430203,23.388005 L9.00644461,24.8005291 L8.50645994,22.8852904 L7.58572406,24.4207593 L7.12672437,22.2842158 L5.79070127,23.363415 L6.21418598,21.5984462 L4.44648317,21.7951461 L5.25793262,20.5684069 L3.64619021,20.5873569 L4.58331858,18.950798 L3.15440254,18.7240332 L4.29371027,17.2350092 L2.54240045,16.7158995 L3.99317347,15.3279654 L2.56152544,14.1613362 L3.68170818,13.2897768 L2.63529339,11.8963827 L3.75274414,10.5958786 L3.33472442,8.88008478 L4.28278128,8.05224033 L4.56419109,6.09055665 L5.62699838,5.55505701 L6.54226926,4.02231804 L8.23347213,3.84196816 L9.06951056,2.46496409 L10.7689099,2.55241403 L12.3754153,1.68085961 L14.0420287,2.06880935 L15.9326785,1.49778974 L17.3342725,1.82563952 L19.1620828,2.09338934 L20.9270536,3.50590839 L18.2194899,2.56058402 L16.8561458,3.21356858 L15.7304991,2.52506905 L14.9545676,3.05237369 L13.583027,3.1889736 L12.3535584,3.10972365 L11.457412,4.20531792 L9.62960219,4.2243179 L8.97661763,5.69967691 L7.35098672,6.27069653 L7.19798682,7.96463539 L6.0313576,8.87717478 L6.41932234,10.4727487 L5.41115802,12.1284326 L6.1843575,13.5764766 L5.42481901,14.9015707 L6.43571533,15.5600203 L6.20621549,17.6910989 L7.61327454,18.0462986 L7.93020433,19.6282126 L9.4629423,19.4697627 L10.4137312,20.5544269 L11.5912894,19.4041927 C13.7360289,18.3359184 14.6185143,17.7375788 16.2905917,15.928895 C18.1949024,13.8715814 19.2850312,11.9672727 21.820469,10.5574836 C23.6373503,9.54658433 25.1209103,9.18320957 27.1645589,9.53565434 C29.0825326,9.86625411 29.7245872,11.0164833 31.1371112,12.2295575 C31.2873611,11.9590577 31.3174111,11.8880578 31.5633109,11.6885929 C31.486811,12.0410427 31.3638611,12.4044174 31.3310611,12.7432022 L31.3338166,12.7488272 Z" id="形状"></path>
            </g>
        </g>
    </g>
</svg>
