<?xml version="1.0" encoding="UTF-8"?>
<svg width="55px" height="61px" viewBox="0 0 55 61" version="1.1" xmlns="http://www.w3.org/2000/svg" xmlns:xlink="http://www.w3.org/1999/xlink">
    <title>形状</title>
    <g id="页面-1" stroke="none" stroke-width="1" fill="none" fill-rule="evenodd">
        <g id="形状库素材-动物" transform="translate(-156.000000, -319.000000)" fill="#545458">
            <path d="M167.632929,338.971507 C168.276681,339.308135 168.867423,339.737616 169.386189,340.246161 C169.861406,340.714042 170.212254,341.293193 170.40689,341.93105 C171.119915,344.41687 169.781772,346.463155 168.453396,348.475253 L168.26293,348.768277 C167.178741,350.428747 165.996878,352.255263 164.985945,354.067129 C164.648967,354.672712 164.331524,355.273411 164.043384,355.864343 C160.038291,359.65372 157.50373,364.738412 156.888714,370.217637 C158.510113,368.845308 160.043606,367.590188 161.738262,366.974838 C160.995934,369.24089 161.098492,371.638804 161.787099,374.129508 C164.458501,371.404384 167.144555,369.416705 169.801307,368.645075 C169.840376,371.086942 171.02224,373.230901 173.21992,375.135557 C175.239096,372.462864 177.874725,370.318169 180.902034,368.884378 C180.682266,372.859737 182.010642,376.126955 185.243673,378.519985 C185.590419,375.765559 187.324144,372.869505 189.922291,369.885543 C190.132291,373.406715 190.933224,376.786259 193.023462,379.858128 C197.159984,375.951141 198.498128,372.698574 197.750916,369.978334 C200.083549,371.194341 202.134986,372.886403 203.77256,374.945092 C205.017913,372.776714 205.657682,370.779266 205.013029,368.728098 C206.727219,368.425307 208.377922,369.392286 210.131182,371.003918 C209.763314,367.955337 209.1276,364.945089 208.23141,362.00808 C208.359336,361.88042 208.406304,361.692549 208.353503,361.519707 C207.865129,360.054587 207.376756,358.462489 206.888383,356.889927 C206.155823,354.44806 205.423262,352.040379 204.514888,349.662001 C204.872704,350.148999 205.168032,350.67895 205.39396,351.239447 C205.477561,351.440683 205.684367,351.562185 205.900846,351.53725 C206.117326,351.512315 206.291093,351.346978 206.326753,351.132004 C207.030011,345.569431 205.989776,343.742915 204.158375,340.504999 C203.056024,338.632027 202.077194,336.689048 201.228135,334.688472 C200.783715,333.618934 200.43697,332.686141 200.134179,331.86079 C198.888826,328.373804 198.283243,326.684032 193.516719,323.787978 L193.199276,323.597512 C188.680518,320.978058 183.513829,319.688079 178.29412,319.876107 C173.185734,320.125177 168.526652,322.068903 166.006645,326.224961 L165.982226,326.268915 C162.553845,328.149152 160.307328,330.468926 159.374534,333.330794 C158.441741,336.192662 158.886161,339.606392 160.839655,343.552449 L161.479424,344.856406 L161.743145,343.425472 C161.869687,342.765778 162.032729,342.113611 162.231519,341.471979 C162.372598,341.000094 162.545555,340.538334 162.749195,340.089882 L167.632929,338.971507 Z M179.656682,326.762172 C178.887306,327.089394 178.095804,327.361932 177.288071,327.577755 C177.252886,328.066844 177.499241,328.533291 177.923026,328.779974 C178.346811,329.026656 178.874072,329.010526 179.281985,328.738399 C179.689898,328.466273 179.90728,327.985639 179.842264,327.499616 C179.84341,327.240863 179.776008,326.986423 179.646914,326.762172 L179.656682,326.762172 Z M178.338074,320.823551 C183.378521,320.643491 188.366882,321.894814 192.725554,324.432631 L193.028346,324.613329 C197.487195,327.343336 198.068359,328.920782 199.255106,332.197768 C199.557898,333.028002 199.904643,333.965679 200.363714,335.06452 C201.22359,337.100799 202.213784,339.079555 203.328141,340.988489 C204.876284,343.713612 205.823729,345.38385 205.540472,349.427581 C205.389155,349.197973 205.22615,348.976285 205.052099,348.763393 C204.629714,348.170451 204.063318,347.694812 203.40628,347.381297 C203.225813,347.327493 203.03049,347.382244 202.904282,347.522011 C202.778074,347.661779 202.743471,347.861657 202.815348,348.035717 C204.044336,351.017384 205.097768,354.068423 205.970241,357.173183 L206.517219,358.975281 C206.370707,358.652955 206.20466,358.335512 206.028845,358.027837 C205.4236,356.969865 204.711756,355.976557 203.904421,355.06341 C203.726741,354.864538 203.42238,354.844972 203.220698,355.019457 C203.085779,355.142894 203.031123,355.331362 203.07907,355.50783 C203.538669,356.846538 203.865819,358.227108 204.055817,359.629702 C204.15767,360.464003 204.183823,361.30581 204.133957,362.144825 C203.898115,361.721054 203.625187,361.319016 203.318373,360.943426 C202.747677,360.241977 202.041843,359.662363 201.242786,359.239003 C201.005255,359.116948 200.713734,359.208321 200.588366,359.44412 C200.515383,359.584996 200.515383,359.752547 200.588366,359.893423 C201.046214,360.723843 201.327225,361.64004 201.413717,362.584361 C201.451749,363.066135 201.423816,363.550846 201.330693,364.025062 C201.030291,363.418238 200.656314,362.850711 200.217202,362.33529 C199.590382,361.57519 198.803209,360.963131 197.91208,360.54296 C197.670533,360.43486 197.386833,360.538811 197.27231,360.777379 C197.2387,360.845533 197.223545,360.921308 197.228357,360.997147 C197.220687,361.958263 197.031803,362.909308 196.671611,363.800411 C196.443755,364.341079 196.108084,364.829629 195.685097,365.236228 L192.754856,358.936211 C192.640247,358.694916 192.353036,358.590475 192.110204,358.701792 C191.923633,358.789509 191.812239,358.984936 191.831831,359.190166 C191.881888,360.250237 191.764877,361.311584 191.485086,362.33529 C191.355153,362.796519 191.17842,363.24326 190.957642,363.66855 C190.711295,362.697288 190.384586,361.748199 189.980895,360.8311 C189.47448,359.707397 188.864642,358.633232 188.159263,357.622487 C188.005581,357.404676 187.705632,357.350338 187.485307,357.500394 C187.377845,357.576454 187.305644,357.692681 187.285074,357.82272 C187.163927,358.621229 186.940704,359.400867 186.620886,360.142494 C186.455254,360.512656 186.248862,360.863195 186.005536,361.187613 L184.052042,356.5676 C183.944864,356.324201 183.662631,356.211308 183.417157,356.313646 C183.283247,356.36973 183.181231,356.482485 183.138784,356.621322 L181.908083,360.733426 C181.772568,360.277375 181.669749,359.81224 181.600408,359.341561 C181.443844,358.246531 181.414346,357.137076 181.512501,356.035273 C181.532128,355.767099 181.331284,355.533508 181.063197,355.512714 C180.908616,355.502164 180.758199,355.565593 180.657847,355.683645 C180.104441,356.300715 179.669078,357.014181 179.373425,357.788534 C179.273808,358.054173 179.193825,358.326767 179.134122,358.604118 C179.030251,358.296895 178.951846,357.981644 178.899703,357.661557 C178.739582,356.485257 178.693787,355.296213 178.762958,354.111082 C178.765184,353.920579 178.656426,353.746172 178.484378,353.664345 C178.31233,353.582517 178.108403,353.608208 177.962026,353.730151 C177.321782,354.29834 176.777557,354.966252 176.350394,355.708063 C176.150951,356.057326 175.971589,356.41768 175.813183,356.787368 C175.646009,356.133836 175.534908,355.46723 175.481089,354.794805 C175.398814,353.832079 175.46137,352.862458 175.666671,351.918286 C175.721468,351.658574 175.558801,351.402645 175.300391,351.342005 C175.145065,351.307987 174.982903,351.351716 174.865739,351.459215 C173.950275,352.264893 173.158723,353.201262 172.516663,354.238059 C172.218726,354.746442 171.971713,355.283 171.779219,355.839924 C171.759684,355.737366 171.725498,355.634807 171.725498,355.527365 C171.635509,354.755502 171.627324,353.976291 171.701079,353.202708 C171.717904,352.936374 171.517827,352.70585 171.251776,352.685032 C171.08961,352.673116 170.932151,352.742691 170.831774,352.870614 C169.828412,354.144479 169.006624,355.551381 168.389907,357.05109 C168.065778,357.843284 167.804505,358.659761 167.60851,359.492957 C167.544172,358.624193 167.578578,357.750936 167.711068,356.889927 C167.74298,356.626451 167.558635,356.385717 167.295951,356.347832 C167.142166,356.328001 166.988101,356.382376 166.880834,356.494344 C166.038943,357.36929 165.268128,358.309945 164.575711,359.307375 C164.189896,359.864121 163.813849,360.440402 163.457336,361.045985 C163.503633,360.552406 163.585238,360.062779 163.701523,359.580864 C164.191543,357.810817 164.91586,356.114174 165.855249,354.535967 C166.846647,352.753404 168.023627,350.946423 169.098049,349.29572 L169.273863,348.992929 C169.321724,348.920161 169.369612,348.847361 169.417441,348.774503 L169.703026,348.336453 C170.978824,346.360254 172.086894,344.304544 171.339683,341.667328 C171.102474,340.871602 170.66727,340.149062 170.074796,339.567322 C169.824381,339.469161 169.568346,339.38599 169.308049,339.318252 L169.552236,339.318252 C172.145499,339.01546 172.511779,338.32197 172.902478,337.55034 C173.190618,336.97406 173.503177,336.353825 176.0183,335.96801 C176.449925,335.904462 176.887333,335.889718 177.322257,335.924057 L181.815292,335.924057 C182.220737,335.871356 182.583183,335.644841 182.808241,335.303503 C183.033299,334.962166 183.098691,334.539791 182.987388,334.146378 C183.055715,333.774276 182.851047,333.405874 182.499015,333.267305 C182.153863,333.115085 181.782179,333.03212 181.405059,333.023119 L174.079458,332.476141 C173.527957,332.377732 172.99019,332.213779 172.477593,331.987767 C172.085715,331.815883 171.728292,331.574292 171.422706,331.274742 C170.621774,330.464042 170.709681,329.501946 170.792705,328.652177 C170.885495,327.631476 170.963635,326.727986 169.986888,326.073565 C169.492579,325.782258 168.91419,325.666924 168.345954,325.746355 L167.510835,325.746355 L167.510835,325.707285 C169.96247,322.552393 173.942713,321.038435 178.338074,320.823551 Z M180.154823,326.039379 C178.743423,326.45938 176.604348,327.709616 175.271089,327.206591 C174.791369,326.985172 174.382308,326.635273 174.089225,326.195659 C174.221086,327.055196 174.577598,327.63636 175.163646,327.900082 C176.579929,333.062189 183.954368,330.488461 182.132735,326.351938 C182.816939,326.083127 183.533338,325.918815 184.262043,325.853797 C185.223891,325.77154 186.191893,325.796109 187.14833,325.927053 C184.594137,324.979609 182.679713,325.292168 180.154823,326.039379 Z M189.082288,325.419145 C185.482976,323.680536 180.633429,323.011464 177.170861,326.684032 C180.81901,324.349607 183.929949,324.207979 189.082288,325.419145 Z" id="形状"></path>
        </g>
    </g>
</svg>
