<?xml version="1.0" encoding="UTF-8"?>
<svg width="61px" height="58px" viewBox="0 0 61 58" version="1.1" xmlns="http://www.w3.org/2000/svg" xmlns:xlink="http://www.w3.org/1999/xlink">
    <title>butterfly-svgrepo-com</title>
    <g id="页面-1" stroke="none" stroke-width="1" fill="none" fill-rule="evenodd">
        <g id="形状库素材-动物" transform="translate(-554.000000, -319.000000)" fill="#545458" fill-rule="nonzero">
            <g id="butterfly-svgrepo-com" transform="translate(554.922970, 319.858128)">
                <path d="M55.2466517,35.028239 C54.9616765,34.833256 53.8742711,33.6183617 54.8379373,32.821556 C62.5941376,26.7995798 54.1329986,20.5451239 54.1329986,20.5451239 C54.1329986,20.5451239 54.4123493,20.3163938 54.7216974,20.0595411 C55.0291706,19.9058045 58.2445159,19.1521201 56.6602787,17.3110302 C55.0741667,15.4699404 54.1873689,19.2439871 54.277361,19.4595933 C54.1254992,19.5889571 53.6942867,19.9320522 53.6942867,19.9320522 C53.6942867,19.9320522 49.6390145,17.4010224 46.6280264,19.7520679 C43.620788,22.1031134 36.8207546,23.141773 36.8207546,23.141773 C36.8207546,23.141773 41.8115704,19.3902243 42.0271767,18.3646886 C42.2427829,17.3391528 49.1309337,7.08754454 38.0825198,4.03343522 C34.8896725,-2.16477561 32.6173702,-0.71927635 29.0439311,4.97460334 C26.4904032,9.03924977 28.8901944,19.8270613 30.4706819,25.6653035 C30.078841,25.4553217 29.6457537,25.3315825 29.1489219,25.3409567 C28.9839363,23.7473453 27.619055,23.2355148 26.6947604,23.7979659 C26.2654228,23.0480312 25.6354776,21.7862659 25.5567344,20.693236 C25.6598504,20.6201174 25.7442181,20.5001278 25.7723406,20.3501408 C25.8285858,20.0820392 25.7179704,19.8326859 25.5192377,19.7876898 C25.3242546,19.7483182 25.1161477,19.9283025 25.0617775,20.1982791 C25.0074072,20.4570065 25.1105232,20.6951108 25.2961321,20.7476063 C25.3917488,21.9137548 26.032943,23.2055175 26.4735297,23.9648264 C26.4641555,23.9704509 26.4547813,23.9798251 26.4454071,23.9891993 C25.7592168,23.5298642 24.641814,22.8624223 23.7062704,22.6768134 C23.6406511,22.5193271 23.4381687,22.418086 23.2056889,22.440584 C22.9319627,22.4687066 22.7294803,22.6524406 22.7501035,22.8530481 C22.7726016,23.0536557 23.0069562,23.1942684 23.2788076,23.1661459 C23.4606667,23.1473975 23.5994047,23.0574053 23.6743981,22.9449151 C24.5274489,23.1211498 25.5886066,23.7529698 26.2579234,24.1954313 C26.2447995,24.2160546 26.2298009,24.2291784 26.2185518,24.2479268 C25.4029978,25.4271992 26.5916444,26.7095876 27.0866013,26.7152122 C27.1090994,26.8633243 27.2103406,27.0770557 27.3753262,27.3414077 C22.2532718,25.8640362 9.48375757,22.6036948 4.97289997,25.4346985 C-0.719104889,29.0118874 -2.16460415,31.2823149 4.03360668,34.4732873 C7.087716,45.5273257 17.3393242,38.6391749 18.36486,38.419819 C19.3903958,38.2004631 23.1419445,33.211522 23.1419445,33.211522 C23.1419445,33.211522 22.1032848,40.0115555 19.7522393,43.0206688 C17.4011938,46.0279072 19.9322237,50.0850542 19.9322237,50.0850542 C19.9322237,50.0850542 19.5872537,50.5143919 19.4616396,50.6700034 C19.2479082,50.5781363 15.4719867,51.4705587 17.3130765,53.0529211 C19.1504167,54.6390331 19.9078508,51.421813 20.0634623,51.1162145 C20.3184401,50.8049916 20.549045,50.5275157 20.549045,50.5275157 C20.549045,50.5275157 26.7997513,58.9867799 32.8236023,51.2324544 C33.6222828,50.2650386 34.8353023,51.3505691 35.034035,51.6411689 C35.229018,51.9280189 35.2027703,58.0793588 38.0975185,55.9439196 C40.988517,53.8084803 35.8439645,51.2418286 35.5908615,50.9643527 C35.3396334,50.6868769 35.1334013,49.4607335 35.9939515,48.7576697 C39.8898626,45.6866868 39.1305536,41.488927 37.3194612,37.8611176 C37.7937949,38.2529585 38.275628,38.5304344 38.7593359,38.6091775 C38.8793255,38.6316756 40.4935601,39.1491305 39.9911038,37.4617773 C39.8804884,37.0699364 39.6367596,36.6012272 39.3049135,36.0950212 C43.3170645,38.6241762 48.6603496,40.6977458 52.3669022,35.99378 C53.0718409,35.1332299 54.2923597,35.3394619 54.5754601,35.5925649 C54.8491863,35.8437931 57.4214625,40.9902204 59.5531521,38.0954722 C61.681092,35.1969743 55.5335018,35.223222 55.2466517,35.028239 Z M47.2523471,32.4447137 C46.7986366,32.4915847 46.3280525,32.5759523 45.8349704,32.7015664 C45.2500213,32.832805 44.6144516,33.1796498 43.9995051,33.5152456 L43.9995051,33.5152456 C43.6282874,33.177775 43.3358128,32.637822 43.058337,32.1034934 C42.8258572,31.6554074 42.6008768,31.2204452 42.3196512,30.9035978 C43.7539015,30.6973657 45.3268896,30.4405131 46.8642559,29.9043097 C47.5916926,29.6624558 48.3416274,29.4112276 49.185304,29.073757 C49.3202922,29.0062629 49.5283991,28.8918978 49.7496299,28.7719082 C49.9596116,28.6556684 50.2520862,28.4981821 50.4826911,28.3819422 C50.7526676,28.648169 50.9607745,28.9350191 51.1088866,29.2406175 C50.4245712,29.786195 50.0027329,30.2136578 49.63339,30.5998742 C49.0371919,31.2129459 48.564733,31.6985287 47.2429729,32.4297151 L47.2523471,32.4447137 Z M34.0309972,28.9387687 C34.0628695,28.5862994 34.0703688,28.2263307 34.0778682,27.8944846 C34.0853675,27.6207584 34.0928669,27.3695302 34.1097404,27.1520492 C34.2091067,25.8715355 34.4340872,24.5928968 34.6590676,23.3498799 C34.6665669,23.3217573 34.6721915,23.29176 34.6759411,23.2580129 C34.689065,23.1867691 34.7021888,23.1155253 34.7153127,23.0461563 C34.8428016,22.3262189 34.9796647,21.6062816 35.0884053,20.8675958 C35.1652736,20.24515 35.2777638,19.6433273 35.3996282,19.0452544 C35.470872,19.0808763 35.5458655,19.107124 35.6302331,19.1164982 C35.6677299,19.1221227 35.7014769,19.1239975 35.7427233,19.1239975 C36.3276725,19.1239975 37.1825981,18.5540471 38.3149996,17.4066469 C38.1856358,17.6709989 38.0450231,17.9316012 37.8987858,18.1884539 C36.9913647,19.9358019 36.1964339,21.5575358 35.6189841,23.3686283 C35.5683635,23.428623 35.5177429,23.486743 35.4839958,23.5373636 C34.8221784,24.5479007 34.5896986,27.4595224 34.0309972,28.9387687 Z M39.3817818,29.0268861 C38.6037245,29.3793554 37.7487988,29.6868287 36.8545016,29.8349408 C36.4289136,29.9024349 36.0089502,29.8949356 35.5646138,29.8949356 C35.0790311,29.8930607 34.5840741,29.8911859 34.079743,29.9830529 C34.4603349,29.4824714 35.0471588,28.6275458 35.2646399,27.8138666 C35.3977533,27.3207845 35.4146269,26.6533425 35.4746217,25.9896503 C37.2425929,25.9596529 38.5381052,27.6263829 39.3817818,29.0268861 Z M38.2737532,31.2823149 C39.402405,31.2823149 40.5741781,31.2054466 41.6878312,31.0010893 C42.0403005,31.2129459 42.3252757,31.7528989 42.6252496,32.3284739 C42.8933513,32.8459288 43.172702,33.3708832 43.5457946,33.7589744 C42.7396147,34.1864372 41.9446838,34.522033 41.3128638,34.2951778 C39.2824154,33.648359 36.7420114,32.4503383 35.0659072,31.1023305 C36.0089502,31.2016969 37.115104,31.2823149 38.2737532,31.2823149 Z M50.0777263,28.0369722 C49.9221149,28.1175902 49.7440054,28.2150817 49.5171501,28.3369461 C49.3015439,28.453186 49.1009363,28.5656762 48.9865713,28.6219213 C48.1747669,28.9481429 47.4304566,29.1974962 46.7067696,29.4374753 C46.1986888,29.6155849 45.6887331,29.7543228 45.1806523,29.878062 C45.6062403,29.4693476 45.9980812,28.9968887 46.3786731,28.5263046 C46.8136353,27.9807271 47.2298491,27.4651469 47.6835596,27.0751808 C48.495364,26.3908654 49.2509233,25.9540284 50.0983496,25.5846855 C49.6896351,26.1265134 49.1196847,26.6814651 48.3378777,27.2289175 C49.0484409,27.4145263 49.6202661,27.6976267 50.0777263,28.0369722 Z M50.5426859,24.8741223 C49.380287,25.325958 48.4203705,25.8115408 47.3667122,26.7039631 C46.9055023,27.0995537 46.4799143,27.6151339 46.0749495,28.1250895 C45.6343629,26.6664664 45.8930904,25.0259841 46.7873876,23.8223388 C47.5110746,22.9524145 48.0960237,22.0637418 48.4372441,21.2181903 C50.3420784,21.4019243 51.483854,22.9767874 50.5426859,24.8741223 Z M43.3583109,23.5842345 C43.5701674,23.4117495 43.7895234,23.2261407 44.0220031,23.0124093 C45.3606367,21.7787666 46.7386418,21.244438 47.9047904,21.199442 C47.5823184,21.9268787 47.0686131,22.6993115 46.4311686,23.4679946 L46.4311686,23.4679946 C46.4274189,23.4698695 46.425544,23.475494 46.4217944,23.4792436 C45.2856432,24.8478746 43.7913982,26.1977572 42.4433905,27.2082943 C42.8914765,26.2540023 43.2008246,25.0653557 43.3508115,23.6423545 L43.3583109,23.5842345 Z M42.8127333,24.0060728 C42.5933774,25.6803022 42.1434165,26.9833138 41.4684753,27.8963594 C41.2884909,28.0144741 41.1103814,28.1288392 40.9416461,28.2300804 C40.6023006,28.4213137 40.2273332,28.6219213 39.8261181,28.8169043 C38.9299461,27.3170348 37.5538158,25.4946933 35.5346164,25.5003178 C35.6602305,24.6753896 35.9395812,23.9329542 36.7138889,23.6554783 C38.1106424,23.1567717 39.0330621,26.7002135 42.8127333,24.0060728 Z M39.8204936,15.2393354 C40.20671,14.3225402 40.6116748,13.3926211 41.0860085,12.4908245 C41.4066056,13.1770148 41.6147125,13.8088349 41.7890724,14.118183 C43.2870671,16.1617552 41.8059459,18.23345 39.8917374,19.9508006 C39.8786136,19.6995724 39.8654897,19.4445946 39.8523658,19.2008658 C39.7736227,17.8584826 39.7005041,16.5948425 39.8204936,15.2393354 Z M39.3611586,19.2289884 C39.3836566,19.6002061 39.4042798,19.9789231 39.4230282,20.3613899 C38.3131247,21.2988083 37.1357272,22.1124875 36.3426711,22.7330586 C36.8769997,21.2594367 37.5650648,19.8870561 38.3318731,18.4228085 C38.6787179,17.8134865 38.9843164,17.1647929 39.2730412,16.5086 C39.2599174,17.4197708 39.3086631,18.3084434 39.3611586,19.2289884 Z M38.4556123,9.10486906 C38.2606293,9.57357829 38.0618966,10.0460372 37.8650387,10.5109967 C36.4232891,13.887578 35.0659072,17.0748008 34.608447,20.7982269 C34.5615761,21.1263233 34.4959568,21.4487953 34.4415865,21.7731421 C34.2259803,20.7944772 33.9616283,19.5139636 34.0309972,18.3290667 C34.0609946,18.083463 34.0853675,17.7891136 34.1153649,17.4647668 C34.2259803,16.2254996 34.3890911,14.4556536 34.8952971,13.4488662 C34.9684157,13.3401256 35.0434092,13.2351348 35.1184026,13.1245194 C36.1476881,11.6265247 37.2088458,10.0835339 38.4387388,8.8836383 C38.448113,8.96050662 38.4518627,9.03362525 38.4556123,9.10486906 Z M34.1584861,5.57642599 C34.5934483,5.69454072 35.0809059,6.01138816 35.6246086,6.62258499 C36.9857402,6.34323429 37.9400322,7.35564622 38.3037506,8.34368527 C37.0026137,9.55482992 35.9020845,11.1203187 34.8390519,12.6633095 L34.8296778,12.6558102 C34.6965643,12.8020474 34.5840741,12.9839066 34.4772084,13.1826393 C33.9935005,13.8838283 33.5229164,14.5531451 33.0504575,15.1587174 C33.044833,14.4631529 33.011086,13.784462 32.9679647,13.11702 C32.9285931,12.4102065 32.8798474,11.6790201 32.8798474,10.9403344 C32.8798474,9.35422237 33.5660377,7.32189916 34.1153649,5.69079104 L34.1584861,5.57642599 Z M29.9044812,6.87943765 C31.0481317,5.86702571 31.4455971,8.15432674 31.4455971,8.15432674 C31.4455971,8.15432674 32.1674093,5.64579496 33.6579047,5.52955507 L33.654155,5.53517958 C33.0935788,7.20190959 32.3923898,9.27360438 32.3923898,10.9422092 C32.3923898,11.6958937 32.435511,12.4345794 32.4823819,13.1488923 C32.5555006,14.3731608 32.6304941,15.6368009 32.4767574,16.9735596 C32.4523846,17.2322871 32.3942646,17.6691241 32.3173963,18.2240758 C32.2274041,17.7178698 32.1224133,17.19854 32.0117979,16.6885844 L31.9818005,16.5498464 C31.8618109,15.7455414 30.6112947,11.7296407 29.6251305,11.0472001 C29.5238893,8.77864744 29.5951331,7.151289 29.9044812,6.87943765 Z M31.5018422,16.6360889 L31.5355893,16.7879507 C31.6724524,17.4272701 31.9799257,18.854021 32.0755423,20.0314186 C31.8074407,22.0562424 31.6162073,23.8092149 31.52809,25.2528394 C30.6037954,21.302558 29.8988567,15.7511659 29.6682517,11.7765117 C30.3056963,12.7589262 31.3368566,15.5693067 31.5018422,16.6360889 Z M29.9794747,30.5136317 C29.8969818,31.0029642 29.8932322,31.4847973 29.8988567,31.9553813 C29.8988567,32.3978428 29.9044812,32.821556 29.8369871,33.2452691 C29.688875,34.1376915 29.3814017,34.9944919 29.0289324,35.7706744 C27.6265544,34.9269978 25.9616992,33.6333603 25.9916966,31.8653891 C26.653514,31.8016447 27.3228308,31.786646 27.8159129,31.6535326 C28.6202179,31.441676 29.4545203,30.8717256 29.9607263,30.4911337 C29.964476,30.498633 29.9719753,30.5061324 29.9794747,30.5136317 Z M23.6575246,33.1046563 C23.9350005,32.3284739 24.6774359,32.050998 25.5023641,31.9253839 C25.4948648,33.9445833 27.3190811,35.3207136 28.8208255,36.2168856 C28.6258424,36.6162259 28.4214852,36.9949429 28.2340015,37.3324136 C28.1308855,37.5030237 28.0202701,37.6811332 27.8984057,37.8611176 C26.9891098,38.5285595 25.6804736,38.9822701 24.0081191,39.2035008 C26.7022598,35.4257044 23.1606928,34.5014098 23.6575246,33.1046563 Z M25.2567605,27.9169826 C23.8112612,28.0050999 22.0620384,28.1982081 20.0372145,28.4663098 C18.8579421,28.3688183 17.4293164,28.0613451 16.7956215,27.924482 L16.6418849,27.8907349 C15.5769775,27.7257492 12.766597,26.6945889 11.7823076,26.0552696 C15.7532122,26.2877493 21.3046043,26.9908132 25.2567605,27.9169826 Z M5.52785169,30.0467973 C5.64409158,28.5581768 8.15262337,27.8363646 8.15262337,27.8363646 C8.15262337,27.8363646 5.86532234,27.440774 6.87585943,26.2952487 C7.14958562,25.9859006 8.7788189,25.912782 11.0454967,26.015898 C11.7241877,26.9983125 15.743838,28.2488287 16.5500179,28.372568 L16.686881,28.4044402 C17.1949618,28.5150556 17.7180413,28.6200465 18.2204976,28.7119135 C17.6655458,28.7869069 17.2305837,28.8450269 16.9699814,28.8693998 C15.6332226,29.0231364 14.3677077,28.9462681 13.1471889,28.8731494 C12.4310012,28.831903 11.6960651,28.7869069 10.9405059,28.7869069 C9.271901,28.7869069 7.19833138,29.4843463 5.53160137,30.0467973 L5.52785169,30.0467973 Z M6.62463129,32.0153761 C6.01343445,31.4735482 5.69658702,30.9842158 5.57659745,30.5492536 L5.69283734,30.5098821 C7.32394545,29.95868 9.35439383,29.2743645 10.9442555,29.2743645 C11.6848161,29.2743645 12.4122528,29.3174858 13.1209412,29.3624819 C13.7846334,29.4018534 14.4651992,29.4393502 15.1607637,29.4449747 C14.5589411,29.9193084 13.8858746,30.3861428 13.1846856,30.8698507 C12.9878278,30.9748416 12.8022189,31.085457 12.6597313,31.2223201 L12.6653558,31.2298194 C11.1261147,32.2872274 9.56062589,33.3896316 8.34760641,34.6926432 C7.35581768,34.3326745 6.34715542,33.3708832 6.62463129,32.0153761 Z M10.513043,34.2558062 C10.0480835,34.4507892 9.57562458,34.6476471 9.10691536,34.8426302 C9.03567155,34.8407553 8.96442775,34.8351308 8.88755944,34.8257566 C10.0874551,33.5958636 11.628571,32.5328311 13.1284405,31.5054205 C13.2409307,31.430427 13.3440468,31.3554335 13.4527873,31.28044 C14.4595747,30.7723592 16.2275459,30.6129981 17.468688,30.5023827 C17.7949096,30.4705105 18.0911338,30.4461376 18.3348626,30.418015 C19.5197596,30.3486461 20.7946487,30.6129981 21.778938,30.8267295 C21.4527164,30.8829746 21.1321193,30.9429694 20.8040228,30.9954648 C17.0768471,31.452925 13.8896243,32.8103069 10.513043,34.2558062 Z M14.1202293,38.177965 C13.8108812,38.0036052 13.180936,37.7954983 12.4947457,37.476776 C13.3927925,37.0043171 14.3264613,36.5974775 15.2395069,36.2093863 C16.5987636,36.0912715 17.8624037,36.1643902 19.2029121,36.2431333 C19.4485158,36.2562572 19.7034936,36.2731307 19.9547217,36.2825049 C18.2392459,38.1929637 16.1656763,39.6759597 14.1202293,38.177965 Z M20.3634362,35.8156705 C19.9809694,35.7950473 19.6041272,35.7762989 19.2310347,35.7556757 C18.3123646,35.7013055 17.4236919,35.6544345 16.514396,35.6638087 C17.1705889,35.3750838 17.8155328,35.0694854 18.4286045,34.7245154 C19.8928521,33.959582 21.2671076,33.2733917 22.7388545,32.7334386 C22.112659,33.5264946 21.2989798,34.7038922 20.3634362,35.8156705 Z M18.1905002,34.2914281 C17.9336475,34.4357905 17.67492,34.5726536 17.4086932,34.7038922 C18.5560934,33.5714907 19.1260438,32.7203148 19.1260438,32.131616 C19.1260438,32.0922444 19.124169,32.0584973 19.1204193,32.0191258 C19.1091703,31.9366329 19.0810477,31.8616395 19.0491755,31.7903957 C19.6434988,31.6704061 20.2471963,31.5560411 20.8696421,31.4791727 C21.6102027,31.3666825 22.3301401,31.2354439 23.0482026,31.1042054 C23.1194464,31.0910815 23.1906902,31.0779576 23.2600592,31.0648338 C23.2938063,31.0610841 23.3238036,31.0554596 23.353801,31.0479603 C24.5949431,30.821105 25.8754567,30.5979994 27.1540955,30.498633 C27.3697017,30.4780098 27.6228047,30.4723853 27.894656,30.4667608 C28.2302518,30.4592615 28.5883457,30.4461376 28.9426899,30.4198899 C27.4653184,30.9785913 24.549947,31.2091962 23.5412847,31.8728885 C23.4906641,31.9085104 23.4306693,31.9535065 23.3706746,32.0060019 C21.5595821,32.5834517 19.9378482,33.3821322 18.1905002,34.2914281 Z M23.0144556,40.4127706 C23.2263121,40.1821657 23.411921,39.9628098 23.5881556,39.7490784 L23.6444008,39.7434538 C25.067402,39.5934669 26.2597982,39.2878685 27.2103406,38.8341579 C26.1998035,40.1859154 24.8499209,41.6801604 23.4812899,42.8144367 C23.4775403,42.8181864 23.4719158,42.8200612 23.4700409,42.821936 L23.4700409,42.8238109 C22.7013578,43.4631303 21.928925,43.9768356 21.2014883,44.2974327 C21.2464843,43.1275345 21.7808129,41.7514042 23.0144556,40.4127706 Z M21.2202366,44.8242619 C22.0639132,44.4811667 22.9525859,43.8962176 23.8225103,43.1744054 C25.0280304,42.2782333 26.6685127,42.0195058 28.125261,42.4600925 C27.6171802,42.8706818 27.0997252,43.2906453 26.7041346,43.7518552 C25.8098374,44.8073883 25.3280043,45.7673048 24.8761686,46.9297037 C22.9788337,47.8746215 21.4020958,46.7290962 21.2202366,44.8242619 Z M28.0371436,46.4703687 C27.699673,46.0110336 27.4165726,45.4392084 27.2309638,44.7248955 C26.6853862,45.5048277 26.1285597,46.0804026 25.5867318,46.4834925 C25.9541998,45.6341914 26.3929117,44.8823818 27.079102,44.0705774 C27.4690681,43.6168669 27.9790237,43.2006531 28.5246012,42.7638161 C28.998935,42.385099 29.469519,41.9932581 29.8782335,41.5639205 C29.7563691,42.075751 29.6138815,42.5875814 29.4395216,43.0937874 C29.1976677,43.8174744 28.9501892,44.5617847 28.6258424,45.3735891 C28.5677225,45.489829 28.4552323,45.6866868 28.3408672,45.9041679 C28.217128,46.1347729 28.1196365,46.3128824 28.0371436,46.4703687 Z M29.722622,47.685263 C30.2044551,47.0946894 30.5925463,46.7122226 30.9393912,46.3766268 C31.4305984,45.9022931 31.8636858,45.4748303 32.401764,44.6330285 C32.413013,45.3867129 32.5330025,46.0804026 32.7786062,46.7028484 C31.9424289,47.627143 30.7875294,47.9814872 29.722622,47.685263 Z M33.5154171,40.3902726 C33.1798213,41.0033442 32.8367261,41.638914 32.7036127,42.2257379 C32.5798735,42.7169452 32.4955058,43.1894041 32.4448852,43.6431146 L32.424262,43.6318656 C31.6930756,44.9555004 31.2112425,45.4260845 30.5925463,46.0204078 C30.2082048,46.3916255 29.7769923,46.811589 29.2332896,47.4977793 C28.929566,47.3496672 28.642716,47.1415603 28.3746143,46.8697089 C28.492729,46.6409788 28.6502153,46.3522539 28.7645804,46.1403974 C28.8845699,45.9154169 28.9970601,45.7110597 29.0664291,45.5723218 C29.4057746,44.73052 29.6551279,43.9749607 29.8969818,43.2512737 C30.4331852,41.7139074 30.6900379,40.1427941 30.8962699,38.7085439 C31.2131174,38.9822701 31.6443298,39.212875 32.0961655,39.4472296 C32.6379934,39.7284551 33.1779464,40.01718 33.5154171,40.3902726 L33.5154171,40.3902726 Z M33.7591459,39.9346872 C33.3691798,39.5653443 32.84985,39.282244 32.3305202,39.0160171 C31.7530704,38.717918 31.2131174,38.431068 31.0012608,38.0804735 C31.2037432,36.9611959 31.2824863,35.787548 31.2824863,34.6663955 C31.2824863,33.6221113 31.216867,32.6303226 31.1306245,31.7528989 C31.366854,32.0041271 31.6068331,32.2553552 31.8468122,32.5009589 C32.8817222,34.0870709 33.7703949,36.0556496 34.2953492,37.7017564 C34.5222045,38.339201 34.182859,39.132257 33.7591459,39.9346872 Z M35.034035,38.500437 C35.0096621,38.4273183 35.0002879,38.3579494 34.9815395,38.2848307 C34.6328199,36.9836939 34.0197482,35.4182051 33.2604393,33.9502078 C33.815391,34.5089092 34.3384705,35.0319887 34.8015552,35.4875741 C35.6621053,36.8074592 36.5320297,38.2960797 37.1900974,39.7847003 C36.8919984,39.5990914 36.5863999,39.4303561 36.2789267,39.2653704 C35.8195916,39.0197668 35.3940037,38.7797877 35.034035,38.500437 Z M37.8912864,41.6314146 C37.7188014,42.7638161 37.1619749,45.1954796 35.4052527,45.2461002 C35.412752,44.7811406 35.4221262,44.3180559 35.4352501,43.8699699 C35.4558733,43.3037691 35.4727468,42.7488174 35.4727468,42.1957405 C35.4727468,41.2189505 35.4165017,40.2384108 35.20652,39.2147498 C35.4802462,39.38536 35.7633465,39.5428463 36.0483218,39.6947081 C36.5639019,39.9740588 37.1001053,40.2627837 37.5425668,40.6321265 C37.6719305,40.971472 37.7900452,41.3033181 37.8912864,41.6314146 Z M37.3813308,33.6296107 C37.0982304,33.3052639 36.8057559,32.9846668 36.5245303,32.6809432 C38.2550048,33.7083538 40.276079,34.5426563 41.8940632,34.9776184 C41.9671819,34.9982416 42.034676,35.0113655 42.1077946,35.028239 C42.3852705,35.3919574 42.6252496,35.8175453 42.8727281,36.2750056 C43.0377138,36.5824788 43.2083239,36.8880772 43.3939328,37.1861763 C41.2153723,36.2206353 39.0255628,34.8032586 37.3813308,33.6296107 Z M45.242522,37.8873653 C44.9125507,37.7861241 44.5788297,37.6661345 44.2451087,37.5367708 C43.8757659,37.0943093 43.5851661,36.5599808 43.3076903,36.0387761 C43.1558285,35.7575506 42.9964673,35.4688257 42.827732,35.1988492 C43.851393,35.4032064 44.8263082,35.465076 45.8087227,35.465076 C46.3617996,35.465076 46.9167513,35.4482025 47.4810772,35.4294541 C47.9310381,35.4144554 48.3941228,35.4032064 48.8609572,35.3975819 C48.8065869,37.1599286 46.3730486,37.7148803 45.242522,37.8873653 Z M50.312081,32.7765599 C49.6896351,32.5328311 48.9978203,32.4109667 48.242261,32.3997177 C49.0784383,31.8616395 49.5096508,31.4229276 49.9839845,30.9373449 C50.32333,30.5867504 50.702047,30.1986591 51.2926207,29.7205757 C51.5963442,30.7836082 51.2363756,31.9403826 50.312081,32.7765599 Z" id="形状"></path>
            </g>
        </g>
    </g>
</svg>
