<?xml version="1.0" encoding="UTF-8"?>
<svg width="57px" height="60px" viewBox="0 0 57 60" version="1.1" xmlns="http://www.w3.org/2000/svg" xmlns:xlink="http://www.w3.org/1999/xlink">
    <title>two-golden-carps-svgrepo-com</title>
    <g id="页面-1" stroke="none" stroke-width="1" fill="none" fill-rule="evenodd">
        <g id="形状库素材-动物" transform="translate(-80.000000, -68.000000)" fill="#545458" fill-rule="nonzero">
            <g id="two-golden-carps-svgrepo-com" transform="translate(80.000000, 67.999564)">
                <path d="M44.1665246,44.6934127 C37.5083066,44.6934127 35.7491973,48.4534296 35.3257863,51.0895594 C35.2993891,51.0895594 35.279116,51.0857582 35.2527188,51.0857582 C35.2527188,51.0857582 35.2225204,51.3277677 35.2073156,51.7083097 C31.4549011,50.2604762 28.0754263,48.4648332 25.4996933,45.1609599 C23.9800594,43.2115796 23.1030389,41.2182744 22.6255663,39.1630941 C25.1280207,39.0661636 28.1710897,37.6107277 29.2157852,35.2001356 C29.0077753,35.6801422 25.9459115,35.8604879 25.4243029,35.842749 C24.1540697,35.7973458 22.890383,35.3059356 22.1267649,34.2713766 C22.129299,32.4858701 22.2792351,30.646091 22.4481772,28.7421139 C22.9068549,23.586002 20.3425255,19.7075145 15.3150207,18.2645381 C8.84453957,16.4084983 3.17547733,23.524127 4.99371633,29.6467987 C5.55312575,31.5317698 6.13027409,33.4169521 6.83222838,35.25293 C7.17243546,36.1413541 5.62767144,38.2039255 5.06424964,38.7648132 C3.73488675,40.091642 2.26065604,40.1875166 0.50788209,40.2253174 C0.184146853,40.2039884 0,40.1925849 0,40.1925849 C0,40.1925849 0.149936085,40.2958507 0.410740401,40.4785193 C0.684215372,40.6360578 1.05335379,40.9902026 1.59016721,41.1967343 C4.2186946,42.2135543 7.1118275,42.2426968 9.54754975,40.6789268 C10.2041009,41.6919457 10.9210488,42.6661079 11.6643939,43.5657244 C16.8067792,49.7853266 25.3788997,53.849228 33.5265532,52.8814012 C34.0796273,52.8159361 34.6417821,52.6495282 35.2037256,52.5135298 C35.1973903,53.1688139 35.25293,53.6072185 35.25293,53.6072185 C35.2793272,53.6072185 35.3008673,53.6034173 35.3259974,53.6034173 C35.7494085,56.2395471 37.5072507,59.999564 44.1667358,59.999564 C44.1667358,59.999564 44.8030139,54.800583 40.6271883,52.3471219 C44.8028027,49.8936607 44.1665246,44.6934127 44.1665246,44.6934127 Z M10.2655535,22.7518505 C9.83454009,23.4398671 9.14166643,23.7826083 8.71825538,23.5167358 C8.29484432,23.2508632 8.30117965,22.4783756 8.7321931,21.790359 C9.16320655,21.1023424 9.8560802,20.7596012 10.2794913,21.0254738 C10.7029023,21.2913464 10.6978341,22.063834 10.2655535,22.7518505 Z M16.763699,21.0254738 C17.18711,20.7596012 17.8801949,21.1023424 18.3109971,21.790359 C18.7420106,22.4783756 18.7483459,23.2508632 18.3249349,23.5167358 C17.9015238,23.7826083 17.208439,23.4398671 16.7776367,22.7518505 C16.3466232,22.063834 16.3402879,21.2913464 16.763699,21.0254738 Z M35.3800589,52.3899909 C35.1293911,52.3925251 34.8508479,52.3950592 34.5484416,52.3975933 C34.2473023,52.3711961 33.9208218,52.3420536 33.5744905,52.3105882 C32.8763375,52.2537814 32.0799868,52.1984529 31.2433012,51.9754493 C30.8198901,51.8821088 30.3776843,51.7864454 29.9215407,51.6857137 C29.4755336,51.54338 29.0155889,51.394711 28.5429734,51.2397066 C27.5751466,50.9763682 26.6415305,50.4786226 25.6422381,50.0402179 C24.7122121,49.4757403 23.6865225,48.9792618 22.7945084,48.2521773 C21.8418863,47.6070298 21.0039337,46.7916732 20.1319814,46.0155956 C19.3569597,45.1436433 18.5405472,44.3082248 17.8966667,43.3543356 C17.1708494,42.4610545 16.6743709,41.4364208 16.1098932,40.5053389 C15.6689544,39.5060465 15.17501,38.5711634 14.9104045,37.6058706 C14.7566672,37.1332552 14.6079982,36.6709875 14.4643974,36.2260363 C14.3636657,35.7698927 14.2677911,35.3289539 14.1746618,34.9042758 C13.9529253,34.0688573 13.8961186,33.2661713 13.839523,32.5680182 C13.8080575,32.2189416 13.7791262,31.8939393 13.7525178,31.591533 C13.7550519,31.2916609 13.7588531,31.0156518 13.7613873,30.7675181 C13.7890515,29.7707599 13.8042563,29.201214 13.8042563,29.201214 C13.8042563,29.201214 13.8773238,29.7656916 14.0046638,30.7548474 C14.0323281,31.0006582 14.0637936,31.2764561 14.0980043,31.5737941 C14.1609353,31.8635298 14.2304127,32.1773397 14.3034801,32.5137455 C14.4470809,33.1840232 14.597017,33.9339148 14.8616225,34.7340667 C14.9813602,35.1346705 15.1074332,35.5530133 15.2370962,35.9865609 C15.4083612,36.4023696 15.5861728,36.8359172 15.7675743,37.278123 C16.0851854,38.1840749 16.6471289,39.0359652 17.0842665,39.9759167 C17.6538125,40.8453348 18.1804894,41.7840191 18.8735742,42.62704 C19.4948587,43.5241224 20.2836069,44.3054795 21.0244179,45.1244261 C21.8433646,45.8677712 22.6234546,46.6554636 23.521804,47.277804 C24.366092,47.9696217 25.3022422,48.4975657 26.1729274,49.0671116 C27.1128788,49.5044604 27.9660363,50.0638698 28.870721,50.3812697 C29.314194,50.5652054 29.7452074,50.7404828 30.1622831,50.9130149 C30.5958307,51.0428891 31.0141735,51.1662168 31.4135103,51.2884886 C32.2136622,51.5530942 32.9671438,51.7030302 33.6399556,51.8453639 C33.9776286,51.9196984 34.2927055,51.9864306 34.5824412,52.0521068 C34.8785121,52.0848393 35.149453,52.1163048 35.3965307,52.1441802 C36.3844195,52.2740544 36.9476301,52.3458548 36.9476301,52.3458548 C36.9476301,52.3458548 36.377873,52.3621155 35.3800589,52.3899909 Z" id="形状"></path>
                <path d="M55.5348475,19.7717125 C55.8524586,19.7943085 56.0376613,19.8069791 56.0376613,19.8069791 C56.0376613,19.8069791 55.8877253,19.7024462 55.6269209,19.5210447 C55.353446,19.3635062 54.9843075,19.0093614 54.4462271,18.8028297 C51.8176997,17.7860097 48.9258338,17.7570783 46.4901116,19.3206372 C45.8335605,18.3076183 45.1166126,17.3334561 44.3732675,16.4338396 C39.2308821,10.2142374 30.6574946,6.14906889 22.5111081,7.11816282 C21.958034,7.18362787 21.3971463,7.35003581 20.8339357,7.48603418 C20.8402711,6.83075013 20.7847314,6.39234547 20.7847314,6.39234547 C20.7583342,6.39234547 20.736794,6.39614666 20.7116639,6.39614666 C20.2893087,3.76001688 18.5304106,0 11.8721926,0 C11.8721926,0 11.2359145,5.19898094 15.410473,7.65244211 C11.2359145,10.1056921 11.8721926,15.3048842 11.8721926,15.3048842 C18.5304106,15.3048842 20.2895199,11.5448673 20.7116639,8.90873756 C20.7380611,8.90873756 20.7596012,8.91253876 20.7847314,8.91253876 C20.7847314,8.91253876 20.8149297,8.67052924 20.8301345,8.28998724 C24.582549,9.73908782 27.9620239,11.5334638 30.5377569,14.8373371 C32.0573908,16.7867173 32.9344113,18.7800225 33.4118838,20.8352028 C30.9094294,20.9321333 27.8663605,22.3875692 26.8216649,24.7981613 C27.0296749,24.3181547 30.0915387,24.136542 30.6131473,24.1555479 C31.8833805,24.2009511 33.1470671,24.6910943 33.9106853,25.7269203 C33.9081511,27.5124268 33.758215,29.3522059 33.5880059,31.256183 C33.1331294,36.4097608 35.6974588,40.2907824 40.7249635,41.7324918 C47.1954447,43.5885316 52.865774,36.4729029 51.046268,30.3502312 C50.4881256,28.4652601 49.9097102,26.5813449 49.2077559,24.7453669 C48.8675488,23.8556758 50.4123129,21.7943714 50.9744676,21.2334837 C52.3065758,19.906655 53.7808065,19.8095133 55.5348475,19.7717125 Z M39.2760741,38.973879 C38.8526631,39.2397516 38.1583112,38.8957433 37.7275089,38.2089938 C37.2964955,37.5197102 37.2901601,36.7484896 37.7135712,36.4826171 C38.1369822,36.2167445 38.8300671,36.5607528 39.2608694,37.2462352 C39.6918828,37.9344629 39.6994852,38.7080064 39.2760741,38.973879 Z M42.2775411,29.23099 C42.2498769,30.2277482 42.2346721,30.7972941 42.2346721,30.7972941 C42.2346721,30.7972941 42.1603376,30.2328165 42.0342646,29.2436607 C42.0066003,28.9967941 41.9751348,28.722052 41.939657,28.424714 C41.8767261,28.1337113 41.8085157,27.8199014 41.7354483,27.4834955 C41.5918475,26.8132178 41.4419114,26.0645933 41.1773059,25.2631744 C41.0563012,24.8625705 40.9314952,24.4442277 40.8018322,24.0106801 C40.6305672,23.5936044 40.4527556,23.1613239 40.2713541,22.717851 C39.953743,21.8131662 39.3917995,20.9612758 38.9546619,20.0213244 C38.3838488,19.1506392 37.857172,18.2132219 37.1653542,17.370201 C36.5428027,16.4731186 35.7553215,15.6917616 35.0145105,14.8728149 C34.1942968,14.1330598 33.4129397,13.3430445 32.5171244,12.7219712 C31.6728364,12.0301534 30.7366862,11.5022095 29.866001,10.9326635 C28.9260496,10.4953147 28.0728921,9.93590533 27.1682074,9.61723835 C26.7247344,9.43456974 26.2924539,9.25802528 25.8753782,9.08676026 C25.4430977,8.95688605 25.0247549,8.83229127 24.624151,8.71128652 C23.8239991,8.446681 23.0692505,8.29674492 22.3977057,8.15314416 C22.0612998,8.08007672 21.7462229,8.01207754 21.4552202,7.94766837 C21.1591492,7.91366878 20.8882084,7.88220332 20.6423977,7.85432788 C19.6545089,7.72572073 19.0900312,7.65392035 19.0900312,7.65392035 C19.0900312,7.65392035 19.6608442,7.6374485 20.6576024,7.60978424 C20.9082702,7.60725011 21.1868135,7.60471598 21.4892198,7.60218185 C21.790359,7.62857904 22.1155725,7.65772155 22.4631708,7.68918701 C23.1613239,7.74599378 23.9564075,7.80132231 24.7943601,8.02432584 C25.2177712,8.11766633 25.65871,8.21332977 26.1161206,8.31406148 C26.5608606,8.45766224 27.0220725,8.60633126 27.4946879,8.76006854 C28.4599806,9.02340699 29.3948638,9.51988549 30.3941561,9.95955722 C31.3229151,10.5240349 32.3498717,11.0205134 33.2418859,11.7475978 C34.195775,12.3927453 35.0324606,13.208102 35.9044128,13.9841796 C36.6781675,14.8573989 37.4958471,15.6928174 38.1397276,16.6467066 C38.8655449,17.5401989 39.3620234,18.5646214 39.9265011,19.4957034 C40.368707,20.4937286 40.8613843,21.4286118 41.1259898,22.3951716 C41.2797271,22.867787 41.4283961,23.3287877 41.5719968,23.7737389 C41.6727285,24.2298825 41.7686032,24.6708213 41.8617325,25.0954994 C42.0834689,25.9309179 42.1402757,26.7323368 42.1968713,27.433024 C42.2283368,27.7821006 42.2585352,28.1071029 42.2838765,28.4095092 C42.2838765,28.7055802 42.2800753,28.9815893 42.2775411,29.23099 Z M47.3065241,38.2077267 C46.8755107,38.8957433 46.18137,39.2384845 45.7579589,38.9726119 C45.3345478,38.7067394 45.3408832,37.9342518 45.7731637,37.2449681 C46.2041771,36.5582186 46.8970508,36.2154774 47.3204618,36.48135 C47.7438729,36.7474337 47.7388046,37.5186543 47.3065241,38.2077267 Z" id="形状"></path>
            </g>
        </g>
    </g>
</svg>
