<?xml version="1.0" encoding="UTF-8"?>
<svg width="57px" height="60px" viewBox="0 0 57 60" version="1.1" xmlns="http://www.w3.org/2000/svg" xmlns:xlink="http://www.w3.org/1999/xlink">
    <title>4</title>
    <g id="页面-1" stroke="none" stroke-width="1" fill="none" fill-rule="evenodd">
        <g id="4、动物" transform="translate(-321.000000, -85.000000)" fill="#545458">
            <path d="M351.954379,86 C351.984942,85.3281994 353.030563,85.3265806 353,86 L353.499375,95.8796125 L353.666548,96.0387746 C355.58105,97.8703994 361.066927,103.416544 362.923728,108.507277 C365.188332,114.715791 363.376777,115.731697 357.790828,120.331626 C358.128189,120.595114 358.444463,120.880854 358.737711,121.185067 L370.399249,106.96983 C370.596057,106.729871 371.089525,106.781832 371.215746,107.075367 L372.321943,109.652004 C372.472694,110.001042 372.629399,110.362517 372.78781,110.725805 L373.045704,111.315262 L373.349543,112.003801 C373.994271,113.456878 374.582745,114.727674 374.817981,115.073514 C375.273913,115.743815 376.073271,115.742832 377.100702,114.801506 C377.59417,114.349343 378.331075,115.085519 377.835839,115.539134 L377.741996,115.624007 C376.683536,116.568583 375.277377,117.387456 374.115453,116.137822 C373.233675,115.189281 372.783942,113.336899 372.278736,112.161954 L370.642294,108.355979 L360.84074,120.257868 C360.340076,120.867056 359.867359,121.442552 359.422589,121.984357 C359.857552,122.553591 360.219433,123.168197 360.499196,123.808752 C363.642989,121.188056 367.085925,119.009449 370.824369,117.291755 C371.062616,117.182213 371.401414,117.209278 371.532546,117.477529 L373.538592,121.579764 C373.663438,121.835103 373.795323,122.145177 373.941335,122.467234 L374.045395,122.692925 L374.095849,122.799046 L374.173748,122.957781 L374.227238,123.062825 L374.308588,123.215912 C374.84241,124.193128 375.564882,124.967594 376.687534,124.263197 L376.74596,124.225438 C377.302831,123.855172 377.820634,124.75233 377.268407,125.119554 L377.159755,125.190596 C376.142601,125.844063 375.042968,126.215105 374.167673,125.146939 C373.441557,124.26076 373.02089,122.914236 372.524755,121.859741 L372.163082,121.11064 C371.809881,120.372864 371.387624,119.467924 370.896311,118.39582 L370.443479,118.651985 C366.252842,121.031833 363.064497,123.103013 360.878444,124.865524 C361.046203,125.456044 361.144634,126.059013 361.166845,126.660993 L361.145713,126.658201 C365.674014,127.260089 370.218083,127.569878 374.786929,127.588363 C375.140569,127.589797 375.358256,127.915202 375.288429,128.240449 L373.682044,135.734626 C373.582587,136.220731 373.452341,136.995141 373.291304,138.057855 L375.026087,138.801656 C375.921303,139.187259 375.481851,140.231406 374.634404,139.888432 L374.382057,139.787394 L373.766359,139.546649 C373.434684,139.418419 373.048031,139.270776 372.6064,139.10372 C372.145898,138.929943 371.88274,138.444378 371.988266,137.963442 L374.034783,128.636372 L372.731816,128.579857 C367.787022,128.355097 363.924988,128.058011 361.145713,127.688598 L361.129373,127.685889 C361.011529,128.737768 360.644459,129.762782 359.990366,130.687247 C362.849195,132.871261 365.791725,134.935692 368.817792,136.889622 C369.072741,137.054072 369.19796,137.478036 368.923349,137.699429 C366.913406,139.320317 365.337134,141.234854 364.145221,143.515136 C364.030478,143.734615 363.779396,143.782306 363.556839,143.75216 L363.278199,143.714357 C362.615846,143.624397 362.899481,142.630841 363.555227,142.719845 C363.287546,142.683477 365.127953,140.022298 365.199345,139.932497 C365.699112,139.304135 366.53394,138.449968 367.70383,137.369994 L367.068108,136.93933 C363.860015,134.761412 361.282948,132.940049 359.336906,131.475241 C357.638344,133.24157 354.678389,134.49098 350.128938,134.582747 C345.668423,134.67272 342.974753,133.249289 341.57002,131.206489 L336.180855,133.513243 C334.953846,134.036803 333.626102,134.602524 332.197622,135.210405 L332.801716,136.034547 C334.732421,138.659891 336.244945,140.630072 337.339288,141.94509 C337.571375,142.224061 337.518299,142.551949 337.23394,142.764891 C336.368641,143.412756 335.702939,144.041086 334.995903,144.832957 C334.548134,145.334556 333.815203,144.593862 334.260559,144.094846 C334.67889,143.626301 335.348166,142.995851 336.268387,142.203497 L335.705365,141.502466 C333.637911,138.918962 332.06407,136.845766 330.983841,135.28288 C330.838284,135.07236 330.925296,134.67473 331.170411,134.568824 L341.049786,130.304664 C340.55225,129.261663 340.329175,128.107901 340.32965,126.938624 L326.273288,126.896436 L328.310653,137.615717 C328.360637,137.878396 328.237451,138.186397 327.946576,138.250232 L324.377076,139.035397 C323.722286,139.179344 323.445278,138.184323 324.099907,138.040376 L324.651049,137.91705 C325.353034,137.757536 326.201235,137.556537 327.195652,137.314054 L325.152311,126.562287 C325.090557,126.237369 325.29404,125.9091 325.654892,125.9091 L340.386355,125.909286 C340.433942,125.471139 340.510779,125.03473 340.614191,124.605056 L339.675806,123.957914 C337.119991,122.185939 333.793097,119.808348 329.695342,116.825317 L324.377532,124.886812 C324.259222,125.066186 324.009045,125.21526 323.788243,125.127598 L321.349417,124.159592 C320.731075,123.914268 321.002235,122.901378 321.626872,123.149294 L321.837406,123.23119 C322.224727,123.379543 322.854287,123.611023 323.726087,123.92563 L329.14801,115.760265 C329.291661,115.54265 329.624316,115.400382 329.862065,115.572302 C333.541761,118.235863 337.183566,120.973836 340.925208,123.551834 C341.00992,123.310289 341.102887,123.072607 341.203567,122.83959 L333.925324,107.352863 L331.090647,113.149244 C330.980401,113.375379 330.763145,113.530127 330.513537,113.560835 L328.92941,113.750189 C328.23927,113.8315 327.662469,113.897544 327.199007,113.94832 C326.529949,114.021677 326.53739,112.989734 327.199007,112.917175 L327.963078,112.829891 C328.610039,112.753666 329.436961,112.651728 330.443843,112.524077 L333.454929,105.831682 C333.608605,105.489934 334.201472,105.498386 334.35806,105.831682 L341.799948,121.665548 C342.489112,120.496294 343.381946,119.518282 344.392025,118.892331 C343.146461,118.40325 337.888538,114.38797 340.602325,107.754783 C342.931066,102.062611 350.390393,97.0516892 352.460253,95.7443265 L351.954379,86 Z M351.95236,130.365777 C351.949843,131.267625 351.590534,132.191114 350.531958,132.080245 C349.827628,132.006445 349.102986,131.490628 349.034855,130.754883 L349.030852,130.696344 C349.001906,130.046499 347.984704,130.042893 348.01365,130.696344 C348.072171,132.015009 349.231744,133.008595 350.522676,133.093275 C352.153882,133.200224 352.965315,131.837494 352.969567,130.365777 C352.971293,129.713266 351.954248,129.712325 351.95236,130.365777 Z M347.48152,125.911342 C346.234505,125.987316 345.4861,129.733417 347.654166,129.35306 C349.822232,128.972703 349.09119,125.813128 347.48152,125.911342 Z M353.181551,125.911342 C351.934398,125.987316 351.186172,129.733417 353.354194,129.35306 C355.522216,128.972703 354.791188,125.813128 353.181551,125.911342 Z" id="4"></path>
        </g>
    </g>
</svg>
