<?xml version="1.0" encoding="UTF-8"?>
<svg width="61px" height="39px" viewBox="0 0 61 39" version="1.1" xmlns="http://www.w3.org/2000/svg" xmlns:xlink="http://www.w3.org/1999/xlink">
    <title>40</title>
    <g id="页面-1" stroke="none" stroke-width="1" fill="none" fill-rule="evenodd">
        <g id="4、动物" transform="translate(-803.000000, -335.000000)" fill="#545458">
            <path d="M858.914019,334.958119 C859.007195,334.949729 859.064168,335.060589 859.004821,335.133697 C858.678411,335.538786 858.38939,335.938482 858.156748,336.274658 C858.49206,336.444843 858.81669,336.646189 859.121735,336.887085 C859.417878,337.12079 859.61135,337.455768 859.848739,337.744004 C860.964468,339.100692 862.968625,339.928249 863.769813,341.545608 C863.956757,341.923731 862.646369,342.809414 862.646369,342.809414 C862.646369,342.809414 862.309277,342.944843 860.768622,342.540353 C860.528265,342.533162 860.286722,342.496009 860.047552,342.450467 C859.060014,342.475036 858.578707,343.133605 857.253483,342.604472 C856.962088,342.488219 856.714016,342.33661 856.502147,342.167024 C856.096211,341.721187 855.943095,341.280742 855.943095,341.280742 C855.912235,341.66306 856.155558,342.090321 856.382265,342.398932 C856.195915,342.897503 856.303927,343.611802 856.303927,344.224229 C856.305114,345.663014 856.127072,347.101799 855.779297,348.496839 C855.582857,349.281849 855.028554,349.959594 854.824399,350.712843 C854.475437,352.004813 854.799473,353.213489 854.43152,354.332877 C855.378109,354.932121 856.409565,355.368969 857.364462,355.945442 C858.815503,356.822735 858.30571,358.764885 858.058232,360.128166 C857.742504,361.870168 858.308677,363.762581 857.573365,365.433872 C857.068319,366.580825 855.242798,368.307247 853.880184,367.724782 C852.978699,367.338869 853.789383,365.206759 854.4879,364.815452 C854.938939,364.827437 855.557931,364.819647 855.711641,364.750734 C855.743095,364.736951 855.771582,364.719573 855.797694,364.699798 C855.804816,364.698001 855.811938,364.697401 855.819059,364.695004 C856.452295,364.519426 856.1609,363.99329 856.07722,363.587002 C855.86535,362.556902 856.781079,361.365604 856.754966,360.255805 C856.709862,358.347812 855.736567,357.206252 853.789976,357.3261 C851.640418,357.458533 849.31816,356.540492 847.576911,355.311442 C847.281955,355.103504 846.956732,354.905155 846.611331,354.731973 L845.946048,354.554597 C845.992339,354.567181 846.698571,354.768527 847.404804,355.612263 C847.471866,355.692561 847.556733,355.774058 847.655843,355.856754 C847.723499,355.913083 847.797683,355.970011 847.877802,356.026939 L847.889078,356.035329 C847.91163,356.050909 847.934182,356.066489 847.957327,356.082669 L847.979285,356.097051 C847.999464,356.110834 848.019642,356.124616 848.040413,356.1378 C848.049315,356.143792 848.058811,356.149784 848.067713,356.155777 C848.087297,356.168361 848.107476,356.180945 848.12706,356.193529 L848.157327,356.212705 C848.176912,356.225289 848.19709,356.237274 848.217268,356.249858 C848.22795,356.25645 848.238633,356.262442 848.249316,356.269034 C848.269494,356.281618 848.290265,356.294202 848.311037,356.306187 C848.321719,356.312779 848.332402,356.318771 848.343084,356.325363 L848.411334,356.364913 C848.420829,356.370306 848.429731,356.375699 848.439227,356.380493 C849.217863,356.824533 850.224986,357.252393 850.998281,357.55621 C850.422612,358.636048 849.823799,359.708695 849.451098,360.854449 C849.04991,362.09009 848.595904,363.401236 848.519939,364.687813 C848.454657,365.793419 848.41074,366.928986 848.43804,368.039984 C848.446348,368.397134 848.419049,368.75728 848.4689,369.112631 C848.518159,369.46259 848.695013,369.768204 848.93715,370.01749 C849.39175,370.485499 849.470089,370.973284 849.569792,371.607883 C849.716973,372.549895 848.630325,372.44323 847.963262,372.470795 C847.670086,372.48278 847.332994,372.473791 847.064744,372.353942 C846.684922,372.184356 846.683735,371.941063 846.697384,371.573727 C846.731212,370.680254 846.929432,370.562203 846.746643,369.681913 C846.093229,369.290607 846.2505,368.700951 846.543082,368.052569 C846.718156,366.347719 847.50154,363.809921 847.294418,362.12185 C847.214299,361.469873 846.787592,360.808907 846.832696,360.146143 C846.890263,359.299411 847.487297,358.508409 847.575724,357.619131 C847.601837,357.353666 847.620828,357.089399 847.633291,356.826331 C847.362667,356.934195 847.088483,357.036066 846.808957,357.131346 C845.364445,357.624524 843.99649,358.363991 842.482542,358.565936 C840.817851,358.996793 839.102715,359.12563 837.356125,358.68998 C835.515172,358.23036 834.017841,357.081609 832.32585,356.275026 C832.007749,356.123418 831.686087,355.979599 831.360864,355.841773 C831.541279,354.872795 831.717541,353.691086 831.844544,352.312226 C831.494395,353.649139 831.09202,354.885979 830.839201,355.627244 C830.830299,355.624247 830.821397,355.620053 830.812495,355.617056 C830.745432,355.857953 830.670655,356.098849 830.589943,356.337947 L830.441222,356.753111 C830.082718,357.706096 829.615164,358.624213 829.048101,359.44323 C828.638604,360.035283 827.572134,360.53685 827.04513,361.017444 C826.969759,361.143884 826.893795,361.270325 826.815456,361.39317 C826.324655,362.160202 825.785188,362.743866 825.688452,363.732618 C825.616642,364.472086 825.746612,365.248107 825.740084,365.992368 C825.732962,366.836702 825.60774,367.713996 825.689639,368.555934 C825.805959,369.752624 826.258186,370.045654 826.937712,370.757556 C827.58341,371.433503 829.17451,373.516476 827.430294,373.917969 C826.908038,374.037818 825.849283,373.882614 825.41308,373.511082 C825.051656,373.203071 825.537116,371.554551 825.232071,371.564139 C824.9294,371.573727 824.743643,371.291483 824.71575,370.988864 C824.681503,370.618003 824.658345,370.246413 824.638035,369.875582 L824.598768,369.135368 C824.51806,367.65872 824.394996,366.210034 823.702099,364.884365 C822.947202,363.440787 823.312781,362.85113 823.824948,361.421334 C823.985779,360.9731 824.084295,360.501495 824.129993,360.020302 C824.141269,359.581655 824.140675,359.1496 824.126432,358.723538 C824.100319,358.439496 824.057589,358.157252 824.000616,357.878603 C823.993494,357.888191 823.986966,357.89718 823.979844,357.906768 C823.803583,357.225427 823.384591,355.803421 822.800614,355.044778 C823.038596,356.405062 823.378063,357.511267 823.472425,358.60249 C822.943641,359.333568 822.436815,360.075432 822.046903,360.874824 C821.477763,362.041552 820.846308,363.275395 820.592302,364.538002 C820.373904,365.623833 820.172123,366.741423 820.04512,367.84523 C820.003577,368.200582 819.927019,368.553537 819.927019,368.911885 C819.927019,369.265439 820.090818,369.368508 820.296159,369.649554 C820.680729,370.177488 820.89794,370.815683 820.908029,371.458072 C820.922866,372.41147 819.623755,372.232296 818.959065,372.16518 C818.667077,372.135218 818.334732,372.078889 818.085473,371.921887 C817.732951,371.700766 817.766185,371.459271 817.830874,371.097328 C817.988144,370.218237 818.200607,370.129548 818.141853,369.231282 C817.549568,368.751287 817.78755,368.190395 818.167373,367.589353 C818.577462,365.926451 819.706247,363.524081 819.735327,361.824026 C819.747197,361.167255 819.416039,360.452357 819.553131,359.802177 C819.727612,358.972224 820.428503,358.273505 820.63978,357.4058 C821.140671,355.346198 821.176873,353.31536 821.194083,351.237781 C820.987555,350.341911 820.967377,349.43945 821.104469,348.529797 C821.278356,347.370859 821.870049,346.298812 822.70091,345.405938 C821.854618,344.381231 820.139482,344.42138 819.146009,345.198001 C817.302089,346.637984 818.319895,349.917047 817.732357,351.937099 C817.346006,353.267421 816.478943,354.406584 815.496746,355.353389 C814.611284,356.206713 813.41603,357.130148 812.125227,357.104979 C812.749561,356.487758 813.428493,355.65361 814.019592,354.553398 L814.018032,354.553669 L813.910703,354.697359 C812.962252,355.896569 811.023833,357.070661 810.796362,357.206398 L810.777451,357.217637 C808.632047,358.003845 806.056376,357.393815 804.074177,356.413452 C803.851031,356.302592 803.767352,356.077276 803.792277,355.858552 C805.021359,355.749489 806.235011,355.429493 807.313351,354.811073 C808.745994,353.988311 809.7638,352.661585 810.472999,351.182051 C811.543624,348.949268 811.933536,346.401283 813.554903,344.454339 C815.116923,342.578106 817.619597,341.696618 819.959067,342.455261 C820.845715,342.742898 821.674203,343.206113 822.489041,343.656146 C822.911,343.888652 823.345422,344.160709 823.686668,344.511866 C825.363822,343.237274 827.567386,342.593686 829.461751,343.076077 C830.598251,343.365512 831.627333,343.968951 832.643952,344.556809 C835.608941,346.270647 839.638027,347.271385 842.908061,345.761889 C843.075421,345.684587 843.236845,345.600093 843.394709,345.512604 C844.478984,345.599494 845.569786,345.138076 845.569786,345.138076 L844.117559,345.060774 C844.927649,344.488496 845.611923,343.781987 846.237443,343.013157 L847.629137,342.717729 L846.473052,342.717729 C847.763261,341.065014 848.829138,339.172003 850.295609,337.700259 C851.978698,336.012189 854.540719,335.254744 856.821435,335.791068 C857.301554,335.458487 858.060012,335.033623 858.914019,334.958119 Z M859.763932,335.673676 C859.834555,335.667084 859.877285,335.751578 859.832775,335.806708 C859.569866,336.132097 859.336631,336.456888 859.155622,336.720555 C858.871349,336.386177 858.512891,336.114719 858.512891,336.114719 L858.52298,336.086555 C858.864227,335.894797 859.296275,335.715024 859.763932,335.673676 Z" id="40"></path>
        </g>
    </g>
</svg>
