<?xml version="1.0" encoding="UTF-8"?>
<svg width="44px" height="60px" viewBox="0 0 44 60" version="1.1" xmlns="http://www.w3.org/2000/svg" xmlns:xlink="http://www.w3.org/1999/xlink">
    <title>18</title>
    <g id="页面-1" stroke="none" stroke-width="1" fill="none" fill-rule="evenodd">
        <g id="4、动物" transform="translate(-648.000000, -165.000000)" fill="#545458">
            <path d="M659.647529,165.235774 C659.885739,165.386256 660.106608,165.558365 660.300279,165.7642 C660.907212,166.409198 661.517065,167.049064 662.189347,167.629544 C662.565166,167.953991 662.855595,168.359689 663.043882,168.817293 L663.118274,169.016501 C663.236374,169.366769 663.403395,169.494889 663.774674,169.437152 C665.33828,169.194109 666.912837,169.255878 668.48703,169.287587 C669.54501,169.308849 670.596236,169.388764 671.644177,169.531363 L672.200467,169.603796 C673.405782,169.746025 673.567204,169.602524 674.646168,168.506038 L675.426964,167.697878 C675.558241,167.564415 675.691249,167.432813 675.827726,167.304937 C676.312852,166.850304 676.831985,166.442735 677.485459,166.277045 L677.708397,166.23104 C677.787115,166.218531 677.857312,166.197773 677.927072,166.159024 L677.996986,166.113918 C678.451137,165.78033 678.69245,165.779413 679.134005,166.124549 C679.51003,166.418546 679.834579,166.772296 680.094328,167.171869 C680.954804,168.494857 681.773844,169.84259 682.315977,171.336039 C682.395928,171.556353 682.50837,171.687406 682.718834,171.790048 C683.657314,172.247541 684.513873,172.827263 685.255821,173.556634 L685.528615,173.837217 C686.218602,174.580275 687.018476,175.222707 687.594195,176.070791 L688.123285,176.869637 C688.388104,177.268834 688.660572,177.66274 688.973257,178.029063 C689.048918,178.117776 689.109748,178.219456 689.165992,178.324962 L689.33121,178.643819 C689.781892,179.461476 689.711798,180.231845 689.221689,181.030074 C688.437513,182.30669 687.401802,183.348878 686.223531,184.224089 C685.152773,185.019568 683.995493,185.702507 682.823245,186.348239 C681.679838,186.978207 680.416322,187.275687 679.189678,187.674893 C678.992357,187.739045 678.790289,187.788716 678.560841,187.853601 C678.674379,188.114973 678.885756,188.241993 679.066284,188.377261 C680.725538,189.619602 681.92681,191.21276 682.86249,193.062525 C683.623849,194.567704 684.389771,196.074899 685.042704,197.623335 C686.063446,200.043865 686.550818,202.584084 686.147778,205.23391 C686.09539,205.578312 686.026391,205.916483 685.856815,206.223677 C685.768285,206.383873 685.634121,206.505944 685.438807,206.463054 C685.27708,206.427496 685.210089,206.279214 685.1619,206.130932 C685.085965,205.897787 685.116266,205.65896 685.127948,205.422149 C685.229986,203.348587 685.006014,201.318832 684.34359,199.343696 C684.136776,198.727292 683.876844,198.137647 683.599937,197.550019 C682.686526,195.611358 681.553158,193.794219 680.548478,191.90633 C680.284105,191.409461 679.956224,190.958415 679.588709,190.538128 L679.363635,190.289528 C678.674013,189.552518 678.06489,188.751356 677.466901,187.940297 C677.300611,187.71485 677.395895,187.530094 677.541011,187.357984 C677.801125,187.04969 678.152872,186.870616 678.527437,186.76724 C680.972145,186.093099 683.138485,184.846542 685.199685,183.420911 C686.448233,182.557431 687.469341,181.433862 688.273778,180.124437 C688.447005,179.842353 688.458687,179.616173 688.259357,179.363599 C688.192914,179.279286 688.152574,179.173894 688.08467,179.091047 C686.654316,177.349564 685.189278,175.642597 683.401411,174.258902 L682.567593,173.634844 L682.373111,173.499229 C681.773114,173.109738 681.396359,172.560051 681.088421,171.916152 L680.495895,170.680352 C679.997632,169.652529 679.479546,168.634446 678.877176,167.661437 C678.752687,167.460368 678.61834,167.26553 678.489469,167.069226 C677.92744,167.205228 677.513448,167.533684 677.116432,167.893666 C676.411477,168.533165 675.736457,169.204924 675.141937,169.947249 C674.772666,170.408407 674.243128,170.505551 673.751011,170.700572 C673.696113,170.722291 673.62684,170.721123 673.561367,170.711371 L673.497833,170.699288 C671.766559,170.305548 670.012808,170.243396 668.251391,170.273908 L667.722751,170.285603 C667.29306,170.296967 666.852418,170.304481 666.433132,170.226217 C665.642466,170.078933 664.855117,170.101815 664.088521,170.255471 L663.802054,170.319145 C662.921865,170.533594 662.292845,170.437367 661.905868,169.506986 C661.708363,169.031898 661.299847,168.673015 660.888046,168.347492 C660.257018,167.848943 659.734234,167.23877 659.234632,166.616866 C658.680452,165.926778 658.182311,166.124182 657.717026,166.592672 C657.113196,167.200829 656.759988,167.97358 656.386884,168.728919 C655.57259,170.377248 655.094892,172.116855 655.000339,173.959105 L654.987752,174.19845 C654.970768,174.436415 654.928191,174.668117 654.748438,174.874456 C654.581965,175.065811 654.685829,175.335614 654.686741,175.568209 C654.687836,175.886951 654.633441,176.175816 654.377707,176.3855 C653.373283,177.209976 652.63411,178.263385 651.858786,179.285171 L651.598593,179.624238 C651.190989,180.148081 650.798171,180.683472 650.329966,181.305009 C651.113411,181.268168 651.756487,181.126118 652.394633,180.987 C652.948814,180.866029 653.496787,180.809209 654.061372,180.857598 C655.392974,180.971421 656.7306,181.03319 658.056178,181.194485 C659.12292,181.324438 660.177249,181.561432 661.234134,181.76635 C661.909336,181.89722 662.601148,181.955872 663.250065,182.209179 C663.674096,182.37469 664.059065,182.586757 664.317354,183.071926 C663.945847,183.20889 663.609558,183.177315 663.289411,183.104045 L663.153138,183.07046 C661.128081,182.540385 659.076921,182.13733 656.991444,181.990331 C654.964379,181.847365 652.94279,181.965587 650.963732,182.496212 C650.776632,182.54625 650.589167,182.605453 650.398234,182.628731 C650.212047,182.651459 650.021114,182.63368 649.816126,182.63368 C650.013265,183.067344 650.335259,183.345762 650.673134,183.617398 C652.188733,184.836644 653.922827,185.646787 655.722087,186.32881 C656.567412,186.649201 657.428801,186.927802 658.286539,187.213918 C659.04249,187.465873 659.812277,187.640787 660.608617,187.652582 L660.951568,187.647399 C661.1007,187.640618 661.256769,187.651798 661.400425,187.689739 C662.012286,187.851768 662.267837,188.473855 661.940367,189.015844 C660.413086,191.541583 659.441993,194.274623 658.92213,197.174457 C658.752919,198.118035 658.778291,199.07481 658.846925,200.023703 C658.977804,201.839376 659.156142,203.649916 660.001467,205.310892 C660.060244,205.426365 660.119426,205.542082 660.173605,205.659836 L660.250446,205.838218 C660.459085,206.362978 660.798785,206.566247 661.393488,206.515475 C665.008984,206.206814 668.513498,206.930994 672.0129,207.707778 C673.926428,208.132461 675.818964,208.650989 677.747824,209.005839 C678.515572,209.147156 679.293359,209.122045 680.069138,209.11508 C680.447901,209.111597 680.782855,208.956167 681.105214,208.780392 C681.756503,208.424956 682.403237,208.06166 683.029339,207.663008 L683.494796,207.35696 C683.74341,207.187784 684.000421,207.020256 684.275321,206.903684 C684.588371,206.770982 684.915111,206.784912 685.174495,207.051966 C685.431506,207.316637 685.434061,207.640144 685.320524,207.961268 C685.186907,208.338663 684.933182,208.641275 684.610093,208.866538 C683.559779,209.599516 682.424403,210.16405 681.196482,210.530997 C681.01212,210.585984 680.815894,210.625574 680.624596,210.627957 C678.836288,210.651235 677.05802,210.661499 675.293442,210.218487 L673.467458,209.760242 C671.944334,209.382728 670.415369,209.027258 668.864332,208.777459 C667.779885,208.602784 666.68923,208.466233 665.602227,208.308053 C665.268003,208.259481 664.975397,208.333164 664.678411,208.501241 L663.571978,209.119674 C663.019989,209.430852 662.474176,209.752417 661.954057,210.117861 L661.359719,210.562339 L663.576257,211.035228 C664.1833,211.166904 664.777258,211.345032 665.364768,211.54315 L665.804295,211.695073 C666.152756,211.818244 666.547765,211.966525 666.54813,212.404039 C666.548495,212.817908 666.15659,212.956659 665.832588,213.055819 C664.622007,213.426432 663.611852,214.191302 662.465159,214.713129 C662.566284,214.969369 662.797922,214.997412 662.979911,215.079159 C663.944798,215.512824 664.900923,215.956936 665.709193,216.664803 C665.852119,216.789807 666.039584,216.865506 666.211168,216.954768 C666.436235,217.072074 666.605446,217.227321 666.592121,217.503722 C666.578978,217.780857 666.386403,217.917775 666.159693,218.017301 L665.212124,218.429681 L664.267157,218.847972 C663.959036,218.988189 663.613494,219.076535 663.372364,219.413973 C663.885656,219.698256 664.38325,219.973924 664.928668,220.156115 C665.725439,220.422435 665.827659,220.827323 665.268916,221.484968 L665.196814,221.595492 C665.201012,221.714631 665.309621,221.699785 665.375882,221.717014 L667.250469,222.220909 C668.292997,222.49779 669.34057,222.750014 670.409319,222.879807 C672.016551,223.074828 673.577601,223.503543 675.18246,223.689766 C675.998553,223.784501 676.806466,223.754135 677.613096,223.648184 L678.367877,223.53681 L678.720925,223.496028 C681.203966,223.26325 683.50009,222.423964 685.710421,221.315242 C686.530009,220.904122 687.239527,220.345637 687.785676,219.59598 C687.965839,219.348538 688.196382,219.166714 688.444267,218.98599 C689.090263,218.514934 689.459351,217.826679 689.76948,217.109098 C690.046935,216.467033 690.132179,215.774929 690.236408,215.091623 C690.508022,213.310226 690.373492,211.553389 689.891232,209.819647 C689.737536,209.267577 689.481803,208.771961 689.105961,208.343795 L688.809387,208.000926 L688.221501,207.310368 C687.8278,206.851643 687.425058,206.401263 686.98035,205.98954 L686.638435,205.68847 C686.286871,205.394839 686.23284,205.172874 686.389639,204.910586 C686.572175,204.604675 686.86113,204.558302 687.178195,204.617688 C687.523919,204.682573 687.831675,204.845885 688.109313,205.052453 C689.300362,205.938111 690.281677,207.021723 691.070233,208.279827 C691.277777,208.611032 691.405735,208.981645 691.50832,209.358306 C692.04589,211.327942 692.141539,213.302894 691.800926,215.3332 C691.164422,219.126574 688.813355,221.469022 685.50452,222.991614 C683.297474,224.007225 680.929614,224.495327 678.529992,224.823599 C677.286008,224.993876 676.040745,225.053262 674.789277,224.94677 C674.510909,224.923126 674.228891,224.900215 673.958189,224.836063 C672.757466,224.551963 671.53137,224.48213 670.310932,224.346495 C668.595822,224.15624 666.933099,223.67382 665.247194,223.320253 C662.547665,222.754253 659.901072,221.971787 657.210488,221.372428 C655.926527,221.086496 654.624496,220.897707 653.30987,220.817609 C652.092705,220.743573 650.907648,220.845752 649.813451,221.41413 L649.562583,221.553702 C649.43353,221.630501 649.295715,221.700884 649.152972,221.743591 C648.935754,221.808659 648.720179,222.101557 648.520301,221.938428 C648.277893,221.740842 648.512452,221.46224 648.586379,221.211683 C648.441993,221.106474 648.210355,221.153396 648.114158,220.953793 C648.027453,220.773802 647.989486,220.585563 648.002446,220.38761 C648.038223,219.845254 648.146285,219.317195 648.303083,218.797384 C649.008038,216.459885 650.084637,214.29981 651.403827,212.256307 C652.043799,211.264891 652.865394,210.448333 653.790671,209.720854 C655.578248,208.315385 657.535585,207.259817 659.732591,206.734324 C659.784386,206.593763 659.737354,206.510337 659.674386,206.440685 L659.578343,206.341117 L659.561737,206.320821 C658.445345,204.848817 657.907228,203.164564 657.678328,201.348158 C657.405984,199.186433 657.540331,197.080429 658.300412,195.020064 C658.853679,193.520384 659.344336,191.997609 659.873509,190.488947 C660.044911,190.000112 660.250264,189.523375 660.460728,188.9889 L658.915376,188.534137 L658.137772,188.319708 C655.302801,187.579582 652.738897,186.309931 650.457924,184.455217 C649.91287,184.012022 649.46949,183.49496 649.059879,182.936658 C648.848502,182.648526 648.816193,182.347197 648.993983,182.026073 C649.297541,181.478218 649.559115,180.903237 649.902466,180.382143 C650.567811,179.371847 651.270575,178.385929 651.971879,177.399828 C652.359743,176.854514 652.792801,176.345019 653.305079,175.916938 L653.567977,175.709892 C653.82371,175.520554 653.910049,175.302255 653.908589,174.995794 C653.905851,174.368758 653.921732,173.741173 653.950207,173.114687 C654.03892,171.165762 654.640925,169.381432 655.719531,167.765546 C656.102675,167.191664 656.541127,166.653524 656.97173,166.113001 C657.367104,165.616651 657.822167,165.198017 658.471083,165.046436 C658.895662,164.947459 659.281909,165.004829 659.647529,165.235774 Z M663.174294,208.267344 L662.013668,208.2946 C661.244744,208.320845 660.485474,208.385567 659.735858,208.622744 C658.053604,209.154836 656.517379,209.92887 655.102723,210.99012 C654.14167,211.711184 653.309487,212.528108 652.621873,213.514393 C651.345397,215.345095 650.293988,217.300802 649.341149,219.314061 C649.093629,219.837171 648.907443,220.383009 648.732573,221.024708 L649.14896,220.690563 C649.178684,220.666999 649.207934,220.643978 649.237286,220.621103 C650.018906,220.01203 650.895627,219.616123 651.878768,219.493502 C653.016881,219.351452 654.158828,219.36025 655.294021,219.526861 C657.765745,219.889592 660.213556,220.375128 662.631066,221.010229 L663.384028,221.191686 C663.611651,221.249605 663.688864,221.085194 663.767902,220.931964 C663.8284,220.814789 663.776954,220.752508 663.704767,220.698963 L663.614024,220.63595 C663.335656,220.433231 663.045423,220.242609 662.78896,220.014413 C662.467148,219.727747 662.455831,219.539325 662.662645,219.159181 C662.879863,218.760341 663.232158,218.522247 663.625524,218.328326 C664.142466,218.07337 664.681861,217.859653 665.146598,217.54641 C665.145868,217.407293 665.061171,217.370085 665.00422,217.312899 C664.504618,216.80979 663.909424,216.450802 663.290665,216.127142 L663.024249,215.990277 C662.542901,215.746684 662.064291,215.495027 661.670013,215.118549 C661.348201,214.811354 661.360249,214.58774 661.712726,214.321786 C661.900738,214.179919 662.115036,214.072511 662.319112,213.95209 L664.996006,212.373595 L663.774838,212.078864 C662.75154,211.830139 661.703782,211.671043 660.714435,211.295848 C660.066979,211.050239 659.996155,210.696673 660.451035,210.168614 C660.736522,209.837408 661.096849,209.597481 661.45754,209.36177 C662.025593,208.990608 662.601678,208.631542 663.174294,208.267344 Z M664.253813,196.128438 C664.524332,196.211285 664.613775,196.437099 664.527618,196.963875 C664.356764,198.007896 664.164188,199.048251 663.986215,200.091172 C663.825766,201.030718 663.7606,201.977412 663.784148,202.93107 C663.810068,203.988288 663.802401,205.045323 663.728657,206.21838 C663.302617,205.865546 663.204595,205.462308 663.107121,205.078315 C662.568821,202.958197 662.38811,200.82195 662.903593,198.667924 C663.028995,198.143714 663.186706,197.627202 663.335291,197.108857 C663.376909,196.964242 663.429845,196.821275 663.492637,196.684724 C663.696713,196.241712 663.974168,196.043025 664.253813,196.128438 Z M678.514386,202.171901 C678.72793,202.219373 678.773071,202.38332 678.769035,202.558021 L678.764643,202.633242 C678.702763,203.330112 678.784539,204.0158 678.899537,204.700206 L679.114017,205.990385 C678.810459,205.812777 678.708969,205.597228 678.607296,205.386811 C678.245327,204.63807 678.078671,203.835259 677.986856,203.015586 C677.968054,202.848425 677.989229,202.665868 678.038696,202.504572 C678.105504,202.285724 678.249525,202.113065 678.514386,202.171901 Z M677.339546,199.058699 C677.484662,199.079594 677.570271,199.175088 677.586882,199.314205 C677.598808,199.413182 677.601891,199.513543 677.602729,199.613932 L677.603676,202.455432 C677.333339,202.348391 677.251563,202.196443 677.18731,202.039914 C676.852904,201.225189 676.774961,200.379304 676.906205,199.512342 C676.921903,199.4086 676.960418,199.302658 677.012623,199.211746 C677.081074,199.092057 677.199723,199.038537 677.339546,199.058699 Z M676.308289,195.582655 C676.707131,195.634709 676.511269,195.978379 676.499952,196.211157 C676.443001,197.373217 676.393351,198.53546 676.417263,199.764421 C676.120662,199.61062 676.056986,199.378905 676.004832,199.163635 L675.985382,199.083864 C675.766988,198.216617 675.720799,197.339666 675.840279,196.460221 L675.91781,195.988697 C675.958801,195.770506 676.029008,195.546214 676.308289,195.582655 Z M672.152887,184.7847 C672.456263,184.856366 672.54242,185.09501 672.540822,185.37746 C672.536031,186.265501 671.775767,187.089391 670.891927,187.165273 L670.729835,187.172971 C670.21506,187.165914 669.826203,187.00744 669.468128,186.794061 L669.120997,186.575359 C668.815701,186.389866 668.765646,186.436835 668.398664,186.725926 C668.145486,186.925346 667.875333,187.10552 667.601163,187.275064 C666.81863,187.758767 666.012733,187.490613 665.658065,186.635564 C665.493417,186.238741 665.503822,185.834403 665.636526,185.433914 C665.702786,185.233578 665.84553,185.096843 666.070962,185.128919 C666.304608,185.162461 666.374885,185.333287 666.372877,185.553602 L666.365017,185.863119 C666.363436,186.017796 666.372658,186.172023 666.425447,186.324337 C666.591008,186.801259 666.870288,186.906101 667.306367,186.646745 C667.612246,186.464502 667.865688,186.242938 668.059567,185.942693 L668.15151,185.785831 C668.467663,185.189954 668.789839,185.139366 669.350591,185.527942 L669.875606,185.904827 C669.964176,185.9657 670.054268,186.023864 670.147362,186.076712 C670.803032,186.449341 671.263571,186.259636 671.480606,185.54847 C671.518391,185.424933 671.532082,185.293147 671.576438,185.172542 C671.67373,184.907138 671.835822,184.709734 672.152887,184.7847 Z M669.48596,181.457213 C670.072084,181.48269 670.542114,181.547942 670.993344,181.692374 C671.519961,181.861001 671.633316,182.281469 671.239585,182.679759 L670.728869,183.173122 L669.678353,184.13105 C669.491983,184.30371 669.270567,184.361263 669.024325,184.345867 C668.722045,184.326988 668.424876,184.280249 668.148882,184.149013 C667.605654,183.890574 667.063703,183.629935 666.524309,183.363798 C666.244298,183.22578 665.988382,183.043773 666.005723,182.690389 C666.022699,182.342688 666.278067,182.181942 666.575054,182.061521 C667.545234,181.668363 668.578389,181.605861 669.48596,181.457213 Z M685.241248,180.111881 C685.454085,180.132043 685.669478,180.167052 685.873371,180.228821 C686.318395,180.363905 686.542002,180.643973 686.475923,180.945852 C686.409663,181.249197 686.092597,181.421123 685.684629,181.399128 L684.879233,181.305902 C684.748423,181.290586 684.619085,181.274394 684.490859,181.255844 L684.109158,181.191644 C682.384008,180.85384 680.683318,181.120527 678.974048,181.337176 C677.958097,181.465846 676.982703,181.737723 676.012982,182.034885 L675.04386,182.336108 C674.455181,182.518787 673.933938,182.837279 673.397315,183.124735 L672.727533,183.46658 C672.553788,183.550948 672.375509,183.623795 672.179684,183.652498 L672.077463,183.666085 C672.026602,183.668562 671.977908,183.65895 671.939466,183.611991 C671.86061,183.515397 671.881054,183.394975 671.943847,183.313411 C672.060853,183.16128 672.185525,183.002734 672.339951,182.894043 C673.133071,182.336658 673.959595,181.856987 674.874101,181.498655 C676.57178,180.833456 678.335606,180.580701 680.11467,180.394813 L682.488718,180.162014 C683.404431,180.078958 684.31976,180.025002 685.241248,180.111881 Z M678.163003,178.306803 C678.254636,178.439872 678.289318,178.582655 678.212471,178.732403 C678.149678,178.854474 677.964951,178.925041 677.686401,178.917526 L677.40169,178.845607 C677.348709,178.831895 677.293937,178.816837 677.238834,178.799707 L677.073992,178.741384 C676.444059,178.486427 675.897728,178.629394 675.396301,179.052061 C675.16594,179.246532 674.935397,179.441552 674.69664,179.625209 C674.561015,179.729868 674.411518,179.817297 674.262934,179.903444 C674.076564,180.011402 673.893298,180.011952 673.732301,179.850656 C673.571486,179.689361 673.565097,179.495257 673.674802,179.315815 C674.177507,178.494675 674.774583,177.755649 675.698764,177.396584 C676.520542,177.077476 677.493825,177.332616 678.163003,178.306803 Z M658.914792,177.396655 C659.426624,177.400323 659.873473,177.593328 660.295314,177.86753 C660.808971,178.201484 661.185361,178.673273 661.571242,179.135348 C661.699018,179.288212 661.816023,179.497346 661.692264,179.663774 C661.581259,179.812926 661.390035,179.774876 661.224369,179.71183 L661.155242,179.683752 C660.682291,179.481216 660.201125,179.292244 659.74807,179.050851 C659.170469,178.743262 658.645283,178.788319 658.131021,179.109471 L657.841317,179.300839 L657.505977,179.493497 C657.288029,179.621067 657.064422,179.688334 656.859251,179.481216 C656.682374,179.302509 656.721984,179.081277 656.796094,178.874709 C657.054383,178.156028 658.151973,177.395557 658.914792,177.396655 Z M658.540684,168.653183 C658.685096,168.65664 658.763527,168.766883 658.821037,168.888919 L658.848258,168.95048 C658.864868,168.990254 658.884035,169.030395 658.891884,169.072368 L659.385097,171.69635 C659.41558,172.046435 659.342383,172.239256 659.142871,172.371958 C658.919301,172.520643 658.70899,172.68578 658.503562,172.856965 L657.893552,173.378254 L657.583829,173.632995 C657.147567,173.978497 656.871938,174.045947 656.739781,173.829848 C656.522198,173.473715 656.830137,173.270263 657.028554,173.063329 C657.274704,172.806539 657.525269,172.551296 657.789644,172.313374 L658.058971,172.08181 C658.265807,171.91277 658.336942,171.74752 658.30845,171.515331 L658.290244,171.411518 C658.14312,170.751123 658.180175,170.077532 658.200619,169.407056 C658.203296,169.321398 658.208002,169.23289 658.223226,169.147992 L658.307027,168.839123 C658.340265,168.736666 658.394769,168.649747 658.540684,168.653183 Z M678.161251,168.637274 C678.341232,168.733135 678.398731,168.890764 678.330645,169.073871 C678.265662,169.24873 678.194838,169.421797 678.119038,169.592528 L678.001714,169.846806 C677.812157,170.243051 677.76678,170.598378 678.129895,170.879197 L678.229337,170.94783 C678.311296,170.998601 678.398365,171.087497 678.348168,171.262906 C678.087871,171.377279 677.798734,171.370497 677.512882,171.276836 C677.176468,171.166862 677.013098,170.939949 677.065303,170.587665 C677.150913,170.010117 677.317933,169.451999 677.593198,168.932738 C677.632626,168.858139 677.690125,168.788305 677.753647,168.732585 C677.869558,168.630675 677.999889,168.551494 678.161251,168.637274 Z" id="18"></path>
        </g>
    </g>
</svg>
