<?xml version="1.0" encoding="UTF-8"?>
<svg width="54px" height="60px" viewBox="0 0 54 60" version="1.1" xmlns="http://www.w3.org/2000/svg" xmlns:xlink="http://www.w3.org/1999/xlink">
    <title>octopus-2-svgrepo-com</title>
    <g id="页面-1" stroke="none" stroke-width="1" fill="none" fill-rule="evenodd">
        <g id="形状库素材-动物" transform="translate(-245.000000, -68.000000)" fill="#545458" fill-rule="nonzero">
            <g id="octopus-2-svgrepo-com" transform="translate(245.136135, 67.999564)">
                <path d="M10.8824232,42.61747 C8.65775967,42.5735252 4.13683188,39.4241451 6.41469793,33.4842091 C6.80469372,32.5778908 5.74087707,31.0122827 4.21194825,33.6069031 C2.67938666,36.2032814 1.96888651,41.0811584 6.29012896,45.2834569 C8.26952167,46.0415346 10.8824232,42.61747 10.8824232,42.61747 Z" id="路径"></path>
                <path d="M42.9731708,42.61747 C42.9731708,42.61747 45.5860723,46.0415346 47.5672228,45.2834569 C51.8884652,41.0812756 51.1762073,36.2033986 49.6472785,33.6069031 C48.1147169,31.0122827 47.0509002,32.5778908 47.4426538,33.4842091 C49.7205199,39.4241451 45.1978343,42.5735252 42.9731708,42.61747 Z" id="路径"></path>
                <path d="M26.929672,29.463315 C25.8072622,29.463315 24.8990689,30.3715083 24.8990689,31.4921603 C24.8990689,32.6128123 25.8072622,33.5227634 26.929672,33.5227634 C28.0503239,33.5227634 28.9585173,32.6126951 28.9585173,31.4921603 C28.9585173,30.3716255 28.0502067,29.463315 26.929672,29.463315 Z" id="路径"></path>
                <path d="M52.8974387,48.3577206 C40.3621443,47.7626489 37.3318254,39.0541881 41.0707694,34.1415067 C44.6888945,30.5233817 46.9282062,25.5228106 46.9282062,20.0004093 C46.9282062,14.4780079 44.6888945,9.47743683 41.0707694,5.8593118 C37.4507694,2.23931178 32.4520733,0 26.929672,0 C21.4053956,0 16.4048245,2.23931178 12.7866995,5.8593118 C9.1666995,9.47743683 6.92738771,14.4780079 6.92738771,20.0004093 C6.92738771,25.5228106 9.1666995,30.5233817 12.7866995,34.1415067 C16.5256436,39.0541881 13.4953247,47.7625317 0.958155226,48.3577206 C-0.0599587925,48.4749068 -0.572648575,50.6812893 1.00210006,51.2599549 C3.52160414,52.1883043 14.6653121,52.5874406 18.6477691,46.0854795 C19.9752548,44.2287807 19.707953,52.8529846 9.62442893,57.6301987 C8.43241054,58.1594117 8.69607957,60.5488391 11.4847604,59.8841587 C14.7513268,59.1077999 24.2763412,55.2425291 26.9295548,45.6881009 C29.5827683,55.2424119 39.1059078,59.1077999 42.3743491,59.8841587 C45.1593972,60.5488391 45.424824,58.1592945 44.2310478,57.6301987 C34.1475238,52.8529846 33.8838548,44.2288979 35.2095826,46.0854795 C39.1902819,52.5874406 50.3339898,52.1883043 52.8534939,51.2599549 C54.4300003,50.6812893 53.9173105,48.4749068 52.8974387,48.3577206 Z M19.2319425,22.8679565 C17.9868387,22.8679565 16.9779824,21.8591002 16.9779824,20.6139964 C16.9779824,19.3670177 17.9868387,18.3562864 19.2319425,18.3562864 C20.4789212,18.3562864 21.4877775,19.3670177 21.4877775,20.6139964 C21.4877775,21.858983 20.4789212,22.8679565 19.2319425,22.8679565 Z M26.929672,37.4631506 C23.6319341,37.4631506 20.9586817,34.789781 20.9586817,31.4921603 C20.9586817,28.1945396 23.6320513,25.5229278 26.929672,25.5229278 C30.2255348,25.5229278 32.8989044,28.1944224 32.8989044,31.4921603 C32.8989044,34.7898982 30.2255348,37.4631506 26.929672,37.4631506 Z M34.6236515,22.8679565 C33.3785477,22.8679565 32.3678164,21.8591002 32.3678164,20.6139964 C32.3678164,19.3670177 33.3785477,18.3562864 34.6236515,18.3562864 C35.8687552,18.3562864 36.8794865,19.3670177 36.8794865,20.6139964 C36.8794865,21.858983 35.8687552,22.8679565 34.6236515,22.8679565 Z" id="形状"></path>
            </g>
        </g>
    </g>
</svg>
