<?xml version="1.0" encoding="UTF-8"?>
<svg width="50px" height="61px" viewBox="0 0 50 61" version="1.1" xmlns="http://www.w3.org/2000/svg" xmlns:xlink="http://www.w3.org/1999/xlink">
    <title>bird-svgrepo-com的副本2</title>
    <g id="页面-1" stroke="none" stroke-width="1" fill="none" fill-rule="evenodd">
        <g id="形状库素材-动物" transform="translate(-152.000000, -395.000000)" fill="#545458" fill-rule="nonzero">
            <g id="bird-svgrepo-com的副本2" transform="translate(152.827093, 395.610282)">
                <path d="M47.3140578,40.4308108 L38.2336227,49.5112459 C38.2135209,49.4717356 38.1823286,49.4384638 38.1608405,49.4003398 C38.0759212,49.2509902 37.9812131,49.107423 37.8773369,48.9705788 C37.8322813,48.9109667 37.7899983,48.8506616 37.7387043,48.793129 C37.5757629,48.5994992 37.3962469,48.4204471 37.2021961,48.2580072 C37.0934856,48.1682423 36.979612,48.0849201 36.8611599,48.0084685 C36.8112522,47.9758899 36.7571855,47.9495497 36.7051983,47.9197437 C36.635882,47.8802334 36.5700315,47.8372573 36.4972494,47.801906 L48.0446516,36.2551969 C48.2477394,36.0521091 48.2477394,35.7228388 48.0446516,35.519751 C47.8415638,35.3166632 47.5122934,35.3166632 47.3092057,35.519751 L35.3757117,47.453245 C34.2133704,47.3257848 33.0388972,47.535366 31.9923831,48.0569899 L26.7243444,44.5454263 L27.3003629,44.1988448 C28.794119,43.3160659 30.2245722,42.3303132 31.5813375,41.2487431 C32.4616545,43.3157551 33.8902634,43.2817901 33.9443301,43.2824833 C34.1190508,43.2752329 34.2784205,43.1806269 34.3684524,43.0307132 C34.4584844,42.8807995 34.4671149,42.6956657 34.3914202,42.5380262 C33.9563716,41.5277619 33.9170317,40.3908621 34.2812073,39.3529423 L35.7493265,39.3529423 C36.0996824,39.529163 36.3509104,39.8551217 36.4320921,40.2388046 C36.5665657,41.052578 35.8082454,42.081925 35.5074126,42.4084048 C35.3660661,42.5597028 35.3279751,42.7804516 35.4104435,42.9703698 C35.4929119,43.1602879 35.6802154,43.2831634 35.8872659,43.2831764 C37.6315925,43.2859417 39.1052566,41.9899274 39.3253627,40.2595413 C39.5454688,38.5291552 38.4431909,36.9054796 36.7537197,36.4714638 C41.6689384,31.0918258 44.2669133,25.1340899 44.2669133,19.1756609 C44.2620612,18.8859188 44.1234286,12.1407497 42.2976373,9.2142156 C42.1778695,6.98350582 41.3385962,4.85163984 39.9055318,3.13794885 L39.9055318,3.13794885 C39.8362155,3.05615561 39.762047,2.97505554 39.6864923,2.8953418 L39.6864923,2.8953418 C37.8662463,0.973893998 35.2661919,0 31.9591113,0 C28.6520307,0 26.0519763,0.970428183 24.2317303,2.8953418 L24.2317303,2.8953418 C24.1568687,2.97436238 24.0854729,3.05407612 24.0147703,3.13517619 L24.0147703,3.13517619 C22.5881709,4.84037551 21.7490981,6.95993372 21.6219717,9.17955745 C21.1540866,9.81172209 19.1827311,12.5836809 18.7217777,14.9383556 C17.5295374,15.7368793 11.378409,20.2757106 9.85345045,29.7942247 L0.0902497653,44.4393723 C-0.00364675688,44.579944 -0.0233317641,44.7573925 0.037472726,44.9151257 C0.098277216,45.0728589 0.231977884,45.1911789 0.395934643,45.2323508 C0.93440442,45.3371869 1.49016955,45.3112766 2.01654971,45.156796 L0.0756933426,48.3904013 C-0.00628399662,48.5251977 -0.0226144974,48.6899273 0.0313011891,48.8381954 C0.0852168755,48.9864636 0.203544669,49.1022265 0.352958538,49.1528806 C1.58966021,49.5317411 2.91402407,49.5133168 4.13970794,49.1002002 L3.98443943,49.4107373 C3.85979656,49.6602871 3.95431686,49.9637309 4.19862679,50.0983549 C4.61561904,50.291558 5.07324576,50.3807524 5.53227238,50.3582911 C6.97137613,50.2848592 8.37045194,49.8592812 9.60668443,49.1189156 C12.0168121,47.8282462 14.4851655,46.381615 15.7189957,45.6475554 L15.7189957,46.6956178 C15.7190096,46.8873338 15.8245369,47.0634822 15.9935695,47.1539422 C16.162602,47.2444021 16.3677021,47.23449 16.5272237,47.1281515 L18.6663247,45.7016221 L18.6663247,46.6956178 C18.6667669,46.8879056 18.7734512,47.0642015 18.9435899,47.1537986 C19.0189594,47.1945015 19.1033118,47.2157088 19.1889696,47.2154901 C19.2916082,47.2155204 19.391953,47.1851275 19.4773254,47.1281515 L21.6164264,45.7016221 L21.6164264,46.6956178 C21.6161452,46.8828958 21.7167468,47.0558106 21.8796932,47.148123 C22.0426397,47.2404353 22.2426733,47.2378364 22.4031663,47.1413216 L23.9281249,46.2277328 L30.4632656,50.8954924 C30.475784,51.3442779 30.5221263,51.7914806 30.6018982,52.2332969 L23.7354256,59.0997695 C23.5963403,59.2293706 23.5390878,59.4245549 23.5861283,59.6087514 C23.6331689,59.7929479 23.7769999,59.936779 23.9611965,59.9838196 C24.145393,60.0308601 24.3405773,59.9736076 24.4701784,59.8345223 L30.9055036,53.3998903 C30.9262984,53.4560365 30.9533318,53.4990126 30.9748199,53.5530793 C31.0337387,53.696564 31.094737,53.8303445 31.1612807,53.9613523 C31.1987115,54.0306686 31.2361423,54.1034507 31.2756526,54.1693012 C31.3449689,54.2892184 31.417751,54.4001244 31.4926126,54.5047921 C31.5314297,54.5602451 31.5695537,54.6170845 31.6097571,54.6690717 C31.69663,54.777849 31.7891804,54.8819681 31.8870223,54.980995 C31.9140557,55.0094147 31.9403959,55.0426865 31.9681224,55.0697199 C32.0842014,55.1825431 32.2071243,55.288104 32.336192,55.3858022 L32.3500552,55.397586 L28.6499512,59.0983832 C28.4528357,59.3022768 28.4554994,59.6265273 28.6559381,59.827155 C28.8563767,60.0277828 29.1806245,60.0307522 29.384704,59.8338291 L33.3066201,55.9119129 C33.4908531,55.9789949 33.6819421,56.0254886 33.8764001,56.0505455 C33.8944224,56.0505455 33.9117514,56.0505455 33.9297737,56.0505455 C34.1144456,56.0504198 34.2851893,55.9523355 34.3783288,55.7928716 C34.4714683,55.6334076 34.4730215,55.4365027 34.3824091,55.2755893 C34.331115,55.1831676 34.2809762,55.0847384 34.2319927,54.9803019 L36.3565373,52.8557573 L36.3565373,54.5477682 C36.3565158,54.7434498 36.4663769,54.9225675 36.6408106,55.0112477 C36.8152443,55.0999279 37.0246984,55.0831466 37.1827876,54.9678249 C37.8072906,54.516112 38.1653129,53.7826474 38.137273,53.0124121 C38.221121,52.9614521 38.2886913,52.8876297 38.3320518,52.7996111 C38.6091372,52.1092338 38.6985795,51.3578228 38.5912948,50.621693 L48.0515832,41.1614045 C48.254671,40.9583168 48.254671,40.6290464 48.0515832,40.4259586 C47.8484954,40.2228708 47.5192251,40.2228708 47.3161373,40.4259586 L47.3140578,40.4308108 Z M35.4380963,48.5193297 C35.8441701,48.6086847 36.2229991,48.7938213 36.5429981,49.0593036 C37.0290606,49.4399727 37.3750154,49.9712169 37.5265964,50.5697058 C37.5517078,50.6747648 37.5704573,50.7812432 37.5827426,50.8885608 C37.503722,50.7145768 37.4205425,50.5419793 37.3352834,50.3811654 C36.9887019,49.719888 36.0647157,49.171596 34.5148032,48.7057905 C34.3068543,48.6427127 34.0989054,48.5872596 33.8999677,48.5352724 L33.859071,48.5234886 C34.3793417,48.4117991 34.9172445,48.4103823 35.4380963,48.5193297 L35.4380963,48.5193297 Z M32.4505639,40.6172716 C32.4443254,40.6013288 32.4387801,40.5853861 32.4325416,40.5687502 C32.6423389,40.3959216 32.8502878,40.2219376 33.0563883,40.0467985 C32.9722393,40.60107 32.9741098,41.1650065 33.0619336,41.7187076 C32.7941125,41.3914585 32.5870549,41.0188957 32.4505639,40.6186579 L32.4505639,40.6172716 Z M38.3195753,39.815282 C38.3188567,40.6890861 37.8490868,41.4952377 37.0892106,41.9266565 C37.4048718,41.362959 37.535785,40.7144536 37.4635186,40.0724455 C37.3222206,39.3263784 36.8294136,38.6944289 36.1402704,38.3755825 C36.0641707,38.3340304 35.9788229,38.3123358 35.8921181,38.3125047 L34.968825,38.3125047 C34.9972447,38.2854713 35.0235849,38.2577448 35.0513114,38.2307114 C35.2148978,38.0726703 35.372939,37.9125496 35.5323665,37.7531221 C35.6543632,37.6311254 35.7805188,37.5105151 35.900436,37.3878252 C37.2381513,37.3916471 38.3203447,38.4775616 38.3195753,39.815282 L38.3195753,39.815282 Z M40.4059955,10.0037282 C40.3650988,10.0252163 40.3207364,10.0473975 40.276374,10.0730445 C40.2195346,10.1007711 40.1599226,10.1278044 40.0975379,10.1555309 C40.046937,10.177019 39.9942566,10.1992002 39.9394968,10.2206883 C39.8701805,10.2477216 39.8008642,10.2740618 39.7246162,10.2997088 C39.6650042,10.3205037 39.6033127,10.3412986 39.5388486,10.3614003 C39.4577485,10.3870474 39.3711031,10.4113081 39.2823783,10.4348756 C39.213062,10.4542842 39.1437457,10.4729996 39.0681909,10.4910218 C38.9718412,10.5145894 38.8671736,10.5353843 38.7631992,10.5603381 C38.6834854,10.5762809 38.6065443,10.5929168 38.5226716,10.6081664 C38.4069134,10.6282681 38.2800646,10.6462903 38.1546021,10.6643126 C38.0686499,10.6767895 37.9868566,10.6899596 37.8960523,10.7010502 C37.7497949,10.7183793 37.5903674,10.7322425 37.4309399,10.7454126 C37.3477604,10.7530374 37.2708193,10.7620485 37.1834807,10.768287 C36.9311694,10.7856161 36.6643017,10.7987862 36.3801048,10.8057178 C36.2812203,10.8076415 36.1849744,10.8379589 36.1028396,10.8930564 L34.6028349,11.8932905 C33.8935812,12.3671276 33.0807308,12.663358 32.2329107,12.7569716 C32.3153547,12.706861 32.3822967,12.6348804 32.4263031,12.5490227 L32.5753332,12.2474968 C32.9769737,11.6463737 33.5217243,11.1545023 34.1605969,10.8161153 C34.4075923,10.6908729 34.513295,10.3941743 34.4011245,10.1409745 C32.9565728,6.88310847 32.2072636,6.88310847 31.9611908,6.88310847 C31.7151179,6.88310847 30.9658087,6.88310847 29.5212571,10.1409745 C29.4084315,10.394327 29.5146511,10.69162 29.7624778,10.8161153 C30.3915818,11.1496746 30.9299743,11.6314444 31.3311056,12.2197703 L31.4960784,12.5490227 C31.5397148,12.6349164 31.6064496,12.7069323 31.6887777,12.7569716 C30.8348026,12.6602033 30.0164409,12.3602403 29.3022176,11.8821999 L27.8195419,10.8937495 C27.7374071,10.8386521 27.6411613,10.8083346 27.5422767,10.806411 C27.2580799,10.7994794 26.9912122,10.7863093 26.7389008,10.7689802 C26.6515623,10.7627417 26.573928,10.7537306 26.4900553,10.7461058 C26.3306278,10.7329357 26.1712003,10.7190724 26.024943,10.7010502 C25.9348318,10.6906528 25.8537317,10.6774827 25.7691658,10.6650057 C25.642317,10.6469835 25.514775,10.6289613 25.3976305,10.6081664 C25.3151441,10.5936099 25.2388961,10.5776672 25.1612619,10.5617244 C25.0545148,10.5402364 24.9484608,10.5187483 24.8507249,10.4924081 C24.7814086,10.4750791 24.7120923,10.4570568 24.642776,10.4383414 C24.5512784,10.4140807 24.4618604,10.3891269 24.3779877,10.3627867 L24.2012311,10.304561 C24.1222106,10.2768345 24.0466558,10.2491079 23.97526,10.2206883 C23.9246591,10.2012797 23.8754445,10.181178 23.8290026,10.1610762 C23.7610726,10.1315013 23.6966085,10.1016953 23.6356101,10.0716582 C23.5960998,10.0522496 23.5565896,10.0335342 23.5205451,10.0141257 C23.4609331,9.98224019 23.4061732,9.95035469 23.3534928,9.91916236 L23.2980398,9.88519737 L25.0829345,9.88519737 C26.1170426,9.90741823 27.1493719,9.78895803 28.151567,9.53307057 C30.4195963,8.89466746 30.5138665,7.59221421 30.5152528,7.40020806 L30.5152528,7.40020806 L30.5152528,7.40020806 C30.5152528,7.34544818 30.5152528,7.28306351 30.5097075,7.21513354 C30.5097075,7.19295232 30.5097075,7.16938478 30.5041622,7.14581724 C30.5006964,7.09521634 30.4958442,7.04322912 30.4889126,6.98708292 C30.4854468,6.95658375 30.4805946,6.92469825 30.4757425,6.89281275 C30.4681177,6.83874604 30.4591066,6.783293 30.448016,6.72506731 C30.4410844,6.68832967 30.4334596,6.65575101 30.4251416,6.61554756 C30.4119715,6.55524238 30.3960288,6.49355087 30.3786997,6.42977988 C30.3683022,6.39234907 30.358598,6.35561144 30.3468142,6.31679431 C30.3239398,6.24747801 30.2969064,6.16845743 30.2684868,6.09290266 C30.256703,6.06171033 30.2469987,6.03190432 30.2345218,6.00071199 C30.1910836,5.89257856 30.1402516,5.78282775 30.0820259,5.67145957 C30.0744011,5.65690314 30.0640037,5.64165356 30.0556857,5.62640397 C30.0036985,5.53074748 29.9468591,5.43439782 29.8830881,5.33804817 C29.8595206,5.30269686 29.8317941,5.26873187 29.8068402,5.23199423 C29.7520803,5.15505314 29.6945478,5.07880521 29.63147,5.00255728 C29.5981982,4.96235383 29.5621537,4.9235367 29.5268024,4.88333325 C29.461645,4.8112443 29.3923287,4.73984851 29.3188535,4.66914589 C29.2779569,4.6296356 29.2363671,4.59081847 29.1926978,4.55200134 C29.1115977,4.48268504 29.023566,4.40920977 28.9320685,4.33989347 C28.8870129,4.30523532 28.8440368,4.27057717 28.7934359,4.23661218 C28.6783709,4.15551211 28.5529084,4.07718469 28.4219006,4.0002436 C28.3900151,3.9815282 28.3615954,3.96142648 28.3283236,3.94271107 C28.1504539,3.84386366 27.9676864,3.75409932 27.7807248,3.67376384 C27.7412145,3.65643476 27.6961589,3.64187834 27.6552623,3.62524243 C27.496528,3.56077827 27.3315552,3.4983936 27.1547986,3.44155423 C27.0806302,3.41729353 27.0002233,3.39580548 26.9218959,3.37223794 C26.8262394,3.34451142 26.735435,3.31331908 26.6342332,3.28767205 C26.6785957,3.28281991 26.7236512,3.27519512 26.7680137,3.27103614 C26.8574317,3.26341135 26.9468497,3.25647972 27.0348814,3.25232074 C27.1381627,3.24677544 27.2393645,3.24538911 27.3405663,3.24469595 C27.4417681,3.24400278 27.5353451,3.24469595 27.6296153,3.24469595 C27.7058632,3.24816176 27.7786453,3.25509339 27.8528138,3.26063869 C28.2605334,3.29154717 28.6643876,3.3611772 29.0589174,3.46858759 L29.070008,3.46858759 C29.2003226,3.50463207 29.3257851,3.54483552 29.4470886,3.5864253 L29.4865989,3.5995954 C29.6085956,3.6425715 29.7271265,3.6876271 29.8394189,3.73822799 L29.8512026,3.74308013 C30.4907626,4.00198423 31.0813089,4.36840895 31.5972802,4.82649388 C31.6306078,4.85462287 31.6677045,4.87795414 31.7074931,4.89581018 C31.725584,4.90933158 31.7445744,4.92160584 31.7643325,4.93254782 C31.9542256,5.00884861 32.1712076,4.96680836 32.3188629,4.82510756 C32.3299535,4.81471011 32.3680775,4.7793588 32.4269963,4.7287579 L32.4415527,4.71628097 C32.4720519,4.69063394 32.510869,4.66082793 32.548993,4.62824927 L32.5670152,4.61369285 C32.6120708,4.57834153 32.6619786,4.53952441 32.7188179,4.49793463 L32.7188179,4.49793463 C33.1304964,4.19812573 33.5754577,3.94691918 34.0448387,3.7493186 L34.0892012,3.7306032 C34.1938688,3.6876271 34.3033885,3.64534415 34.4170672,3.60583386 L34.4863835,3.58226632 C34.6007554,3.54344919 34.7172068,3.50601839 34.8392035,3.47205341 C34.8551463,3.46789443 34.8724753,3.46442861 34.8884181,3.45957647 C35.2726344,3.35727712 35.6654777,3.2906817 36.061943,3.26063869 C36.1361115,3.25509339 36.2088936,3.24816176 36.2844483,3.24469595 C36.3814912,3.24053697 36.4819998,3.24469595 36.5825084,3.24469595 C36.6830171,3.24469595 36.7745146,3.24469595 36.8729437,3.25162758 C36.9713729,3.25855921 37.0621772,3.26410451 37.1585269,3.27242247 C37.1994235,3.27658144 37.2417064,3.28351307 37.2832962,3.28836521 C37.1827876,3.31331908 37.0933695,3.34381825 36.9984062,3.37154477 C36.9179993,3.39511231 36.8348198,3.41729353 36.7585718,3.44086107 C36.5873606,3.49631411 36.4272399,3.55661929 36.2733577,3.61900396 C36.227609,3.63771936 36.1770081,3.65435527 36.1347251,3.67307067 C35.9406395,3.75694339 35.7604171,3.84636142 35.5926717,3.93924526 C35.5517751,3.96211964 35.5171169,3.98638034 35.4782998,4.00856156 C35.3556099,4.07787786 35.2370791,4.15412579 35.1317183,4.23106688 C35.0790379,4.26849768 35.0319028,4.30662164 34.9819951,4.34405244 C34.8960429,4.40990293 34.8128633,4.47644658 34.7366154,4.54437655 C34.688094,4.58665949 34.6430384,4.6296356 34.5979828,4.6726117 C34.5286665,4.741928 34.4642023,4.80569899 34.403204,4.87362897 C34.3630005,4.91729824 34.3241834,4.9609675 34.2874458,5.00532994 C34.2292201,5.07464623 34.1758465,5.14396253 34.1252456,5.21743781 C34.0954396,5.25833443 34.0642473,5.29923104 34.0372139,5.34012766 C33.9817609,5.42400038 33.9325463,5.5078731 33.8861044,5.59174582 C33.8708548,5.61877918 33.8528326,5.6465057 33.8389693,5.67353906 C33.78213,5.78167248 33.7336085,5.88841958 33.6906324,5.99378036 C33.6739965,6.03467697 33.6608264,6.0734941 33.64627,6.11369755 C33.6220093,6.17954804 33.5977486,6.24470536 33.5769537,6.30778319 C33.5630904,6.35353195 33.5513067,6.39720121 33.5395229,6.44156365 C33.5242733,6.49701668 33.5104101,6.55177656 33.4979331,6.60515011 C33.4854562,6.65852366 33.4799109,6.69040916 33.4722861,6.73199894 C33.4646613,6.77358872 33.4542639,6.83181441 33.4473322,6.88033582 C33.4417869,6.91845978 33.4355485,6.95519742 33.4320826,6.9912419 C33.4258442,7.04045647 33.4216852,7.08551206 33.4182194,7.12987449 C33.4182194,7.15829418 33.4133672,7.18810018 33.4119809,7.21513354 C33.4085151,7.27543872 33.4064356,7.3301986 33.4064356,7.38079949 L33.4064356,7.40159438 C33.4064356,7.65529204 33.5741811,9.88311788 38.8380608,9.88311788 L40.616717,9.88311788 L40.5522529,9.92262817 C40.5078904,9.9482752 40.4586759,9.97669488 40.4087681,10.0051146 L40.4059955,10.0037282 Z M37.3637031,17.3013482 C37.1356525,17.3956183 36.9117608,17.4815706 36.6878692,17.5661364 C36.5630999,17.6139647 36.4355579,17.6659519 36.3114817,17.7110075 C36.0439208,17.8073572 35.7819052,17.8953889 35.5212759,17.9799547 C35.445028,18.0042154 35.3667005,18.0333283 35.2911458,18.0568958 C34.9496475,18.1636429 34.6132324,18.2604547 34.2819005,18.3473311 L34.2819005,18.3473311 C33.9554207,18.4325902 33.6351794,18.5074518 33.3197902,18.5739954 C33.2386902,18.5913245 33.1596696,18.6038014 33.0792627,18.6197442 C32.8463599,18.6661861 32.6148435,18.7105485 32.3860997,18.746593 C32.2876706,18.7625358 32.1913209,18.7743195 32.0935849,18.7888759 C31.885636,18.818682 31.6846188,18.8464085 31.4849878,18.8685897 C31.3823997,18.8796803 31.2825842,18.8879983 31.1820756,18.8977025 C30.9907626,18.9157248 30.8008359,18.9316675 30.6136819,18.9427581 C30.5131733,18.9489966 30.4133578,18.9531556 30.3142355,18.9573146 C30.1319337,18.9649393 29.9517113,18.9704847 29.7742616,18.971871 C29.6772187,18.971871 29.5801759,18.971871 29.4845194,18.971871 C29.3075318,18.971871 29.1333168,18.967712 28.9618745,18.959394 C28.8717633,18.9559282 28.780959,18.9517693 28.691541,18.9469171 C28.5182502,18.9365197 28.3449595,18.9233496 28.1786004,18.9081 C28.0968071,18.9004752 28.0136276,18.8935436 27.9325275,18.8845324 C27.7578504,18.865817 27.585946,18.8436358 27.4188937,18.8193751 C27.3495774,18.8089777 27.2761021,18.7999666 27.2067858,18.7888759 C27.0224045,18.7597631 26.8421821,18.7271844 26.6647324,18.6918331 L26.5157024,18.6641066 C26.2925039,18.6176647 26.0734644,18.567757 25.8599702,18.5129971 L25.8599702,18.5129971 C25.4198117,18.4000115 25.0032207,18.27039 24.6081178,18.1296779 L24.5145408,18.0943266 C24.3558065,18.0361009 24.1991516,17.9764889 24.0480421,17.9147974 L23.903171,17.8537991 C23.7728564,17.7990392 23.6446213,17.7435862 23.5198519,17.68744 L23.3604244,17.6118852 C23.2460525,17.5578185 23.133067,17.5037518 23.0235472,17.4489919 L22.8648129,17.3665055 C22.7608384,17.3124388 22.6591745,17.25791 22.5598212,17.202919 C22.507834,17.1744993 22.4572331,17.1453865 22.4066322,17.1169668 C22.3116688,17.0622069 22.218785,17.0081402 22.129367,16.9533804 L21.9865754,16.866735 C21.8978505,16.8112819 21.8125915,16.7565221 21.7287188,16.7017622 L21.6004836,16.6178895 C21.5166109,16.5617433 21.436204,16.5062902 21.3578766,16.4508372 C21.3218321,16.4251902 21.2844013,16.4002363 21.2497384,16.3745893 C21.1679499,16.3156704 21.0903156,16.2581379 21.0140677,16.2012985 C20.9870344,16.1805036 20.9579215,16.1597087 20.9315813,16.1389138 C20.840777,16.0695975 20.7541316,16.0002812 20.6730315,15.9351239 L20.6487708,15.9157154 C20.5572733,15.8415469 20.4713211,15.7687648 20.3916074,15.7001417 L20.3874484,15.6966759 C20.3112004,15.6273596 20.241191,15.5677475 20.1753405,15.5081355 L20.1164216,15.4533757 C20.0741387,15.4131722 20.0311626,15.3736619 19.9937318,15.3376174 C19.9715506,15.3168225 19.952142,15.297414 19.9320403,15.2773123 L19.8426223,15.1892806 L19.7934077,15.1386797 L19.7497384,15.0929309 C20.1039447,13.3600234 21.4341245,11.2708302 22.1272875,10.2692097 L22.1411507,10.2830729 L22.1515482,10.2927772 C22.2083875,10.3496166 22.2721585,10.4071491 22.3414748,10.4653748 L22.3726672,10.4924081 C22.4461424,10.5520202 22.5267804,10.6120943 22.6145811,10.6726305 C22.6291375,10.683028 22.6450802,10.6927323 22.6603298,10.7031297 C22.7469752,10.7606622 22.8391659,10.8181948 22.937595,10.8750341 L22.963242,10.8895905 C23.0699891,10.9485094 23.1871337,11.0060419 23.3098235,11.0621881 L23.3895373,11.0982326 C23.5191588,11.1543788 23.6550187,11.2098318 23.8054351,11.2625122 L23.8345479,11.2722165 C23.9766463,11.3221242 24.1298353,11.3692593 24.2906492,11.4108491 L24.3911578,11.4385756 C24.5616759,11.4850175 24.7425914,11.5273005 24.9352907,11.5668108 L25.0378789,11.5869125 C25.2181012,11.6215707 25.4073347,11.6562288 25.6062725,11.682569 C25.6395443,11.6874211 25.6700435,11.6929664 25.7033153,11.6971254 C25.9237412,11.7276246 26.1573371,11.7525785 26.4020236,11.7733733 L26.5635306,11.7865434 C26.8193077,11.805952 27.084096,11.8225879 27.3675997,11.831599 L28.7081769,12.724393 C29.6679784,13.3862295 30.7961892,13.7614984 31.9611908,13.8064204 C32.0450635,13.8064204 32.144879,13.8064204 32.2460808,13.8126589 C32.302227,13.8126589 32.3604527,13.8168178 32.4235305,13.8202837 L32.5240391,13.8265221 C33.9408643,13.9200991 36.7363906,14.4302671 38.2537244,16.9076316 C38.1026149,16.9769479 37.9528916,17.0462642 37.8031684,17.1079557 C37.6534452,17.1696472 37.5092673,17.2424293 37.3637031,17.3027345 L37.3637031,17.3013482 Z M30.6656692,10.1340429 C31.0019188,9.35887871 31.4379037,8.63091667 31.9625771,7.96860171 C32.4872701,8.63090315 32.9232566,9.35886785 33.2594851,10.1340429 C32.7689586,10.4515096 32.3319149,10.8448022 31.9646566,11.2992499 C31.5970191,10.8440219 31.1583959,10.4510399 30.6656692,10.1354292 L30.6656692,10.1340429 Z M27.5415836,4.96720597 C27.9274826,4.96720597 28.2753573,5.19974069 28.4229046,5.55631866 C28.5704519,5.91289664 28.4885951,6.32324824 28.2155249,6.59592154 C27.9424547,6.86859484 27.5319844,6.94985471 27.1756215,6.80178889 C26.8192585,6.65372306 26.5872304,6.30551054 26.5877903,5.91961192 C26.5896994,5.39408853 27.0160569,4.96897048 27.5415836,4.9685923 L27.5415836,4.96720597 Z M36.3835706,4.96720597 C36.7694697,4.96720597 37.1173443,5.19974069 37.2648917,5.55631866 C37.412439,5.91289664 37.3305821,6.32324824 37.0575119,6.59592154 C36.7844417,6.86859484 36.3739715,6.94985471 36.0176085,6.80178889 C35.6612455,6.65372306 35.4292175,6.30551054 35.4297774,5.91961192 C35.4316865,5.39408853 35.8580439,4.96897048 36.3835706,4.9685923 L36.3835706,4.96720597 Z M38.8394471,8.83990758 C38.5808973,8.83990758 38.3382903,8.83366912 38.1095465,8.82396484 C38.0270601,8.81980586 37.9556643,8.81287423 37.8766437,8.80802209 C37.7380111,8.79901097 37.5952195,8.79138617 37.4669844,8.77890924 C37.3720211,8.76989812 37.2888415,8.75742119 37.2001166,8.74633058 C37.1003012,8.73454681 36.9963267,8.7234562 36.904136,8.70959294 C36.8119454,8.69572968 36.7218342,8.67701428 36.6324162,8.66037837 C36.5630999,8.64651511 36.4854656,8.63473134 36.418922,8.62017492 C36.3218791,8.59868686 36.2352338,8.57511932 36.1472021,8.55085862 C36.100067,8.53838168 36.0487729,8.52659791 36.0037173,8.51342782 C35.9059813,8.48500813 35.8179496,8.45450896 35.7319974,8.42331663 C35.7070436,8.41430551 35.6786239,8.40598755 35.6543632,8.39697643 C35.5566272,8.35954563 35.466516,8.32142167 35.3840296,8.28191138 L35.3639279,8.27290026 C34.5709494,7.89166062 34.462816,7.4480363 34.4482596,7.37941317 C34.4485038,7.21515745 34.4626486,7.05121703 34.4905425,6.88934694 C34.496781,6.85330246 34.5099511,6.82003064 34.5175759,6.78675881 C34.5252007,6.75348699 34.5362913,6.72160149 34.5446092,6.68832967 C34.8677032,7.46952565 35.6486609,7.96173469 36.4928079,7.91620792 C37.3369549,7.87068116 38.0604447,7.29733383 38.2976456,6.48591988 C38.5348464,5.67450593 38.2340984,4.80174289 37.5473913,4.30870113 L37.7019666,4.26919084 C37.7657376,4.25394126 37.8302018,4.23730534 37.8939728,4.22344208 C37.9577438,4.20957883 38.0326054,4.19432924 38.1019217,4.18046598 C38.171238,4.16660272 38.2273842,4.15551211 38.2883825,4.1444215 C38.3493809,4.1333309 38.4193903,4.12293345 38.4845477,4.11253601 L38.6599179,4.08480949 L38.8325155,4.06262827 C38.8886617,4.05569664 38.9475805,4.04737869 39.0002609,4.04183338 C39.0279874,4.03836757 39.051555,4.03698124 39.0785883,4.03420859 C39.1513705,4.0265838 39.2248457,4.018959 39.2865372,4.0134137 C40.3733273,5.4078616 41.0459002,7.07992589 41.2273936,8.83852126 L38.8394471,8.83990758 Z M31.9625771,1.03766499 C33.7585558,0.982773283 35.5386997,1.38843611 37.133573,2.21604207 C37.0940627,2.21604207 37.0580182,2.21604207 37.0178148,2.21604207 C36.7640136,2.19926599 36.5095172,2.19556423 36.2553355,2.20495146 C36.1860192,2.20495146 36.1167029,2.21604207 36.0473866,2.22158738 C35.8616189,2.23475747 35.6807034,2.25347287 35.5053331,2.27981307 C35.4173014,2.29229 35.3292697,2.30407377 35.2433175,2.32001652 C35.0395276,2.35698521 34.8429004,2.40065448 34.6534358,2.45102432 C34.5591657,2.47667136 34.471134,2.50509104 34.3810228,2.53281756 C34.2654956,2.56793782 34.1529722,2.60536862 34.0434524,2.64510996 C33.9547275,2.67699546 33.8660027,2.70749463 33.78213,2.74145962 C33.6303273,2.8017648 33.4875357,2.86553579 33.3502894,2.93069311 C33.2622577,2.97228289 33.1811576,3.01317951 33.0993644,3.05615561 C33.0175712,3.09913172 32.9517207,3.13378987 32.8810181,3.17330016 C32.7735778,3.23360534 32.6730692,3.29113787 32.5794922,3.35005672 C32.5101759,3.39511231 32.4353143,3.43947475 32.3715433,3.48245085 C32.3077723,3.52542696 32.2627167,3.55592613 32.2121158,3.5919706 C32.1427995,3.63771936 32.0880396,3.68069547 32.0325866,3.72159208 C32.0117917,3.73753483 31.983372,3.75694339 31.9632703,3.77149982 C31.9369301,3.75139809 31.9001924,3.72644422 31.8710796,3.70218352 L31.732447,3.60306121 C31.6790734,3.56493725 31.6222341,3.52750645 31.5619289,3.48660983 C31.5210323,3.45957647 31.477363,3.43184995 31.4323074,3.40343027 C31.3068449,3.32302336 31.1689055,3.24192329 31.0164096,3.15874374 C30.9748199,3.13517619 30.9366959,3.11299498 30.8930266,3.08942744 C30.8084607,3.04367868 30.7190427,3.00070257 30.6275452,2.95634014 C30.5686263,2.92792046 30.5090143,2.90019394 30.4473228,2.87246742 C30.3509732,2.82879815 30.2553167,2.78582205 30.1527285,2.74423227 C30.0501404,2.70264249 29.9447797,2.66521169 29.8359531,2.62778089 C29.7014794,2.57925948 29.5586879,2.53559021 29.4200553,2.49330727 C29.3223193,2.46488758 29.2238901,2.43785423 29.1226883,2.41290036 C29.0214866,2.38794649 28.9195916,2.36437895 28.8142308,2.34358406 C28.661735,2.31308489 28.5036938,2.28743786 28.34288,2.26594981 C28.2326671,2.25070022 28.1203747,2.23960961 28.0066959,2.22921217 C27.8424163,2.21465575 27.675364,2.20495146 27.5034596,2.20148565 C27.4549382,2.20148565 27.4105758,2.19316769 27.364827,2.19316769 C27.2955107,2.19316769 27.2261944,2.19940616 27.1568781,2.20148565 C27.0875618,2.20356514 27.0348814,2.20564463 26.9738831,2.20841728 C26.9128847,2.21118993 26.8553522,2.20841728 26.7943539,2.21534891 C28.3885922,1.38892539 30.1677121,0.983994275 31.9625771,1.03905132 L31.9625771,1.03766499 Z M24.6330717,4.01826584 C24.7245692,4.02589063 24.8250778,4.03559492 24.9325181,4.04737869 L25.0177771,4.05846929 C25.0988772,4.06817358 25.1806704,4.07787786 25.268009,4.09035479 C25.3179167,4.09728642 25.3719834,4.10629754 25.4239706,4.1146155 C25.4932869,4.1257061 25.5626032,4.13610355 25.6374648,4.14927365 L25.8218462,4.18531812 C25.8911625,4.19918138 25.9604788,4.21235148 26.0297951,4.22829423 C26.0991114,4.24423697 26.1628824,4.25948656 26.2301192,4.27542931 L26.3763766,4.31216695 C25.6904533,4.80594897 25.3910795,5.67901634 25.6296648,6.48981133 C25.8682501,7.30060632 26.5927836,7.87237773 27.4368292,7.91594961 C28.2808748,7.95952149 29.0604327,7.46539528 29.3812381,6.68347753 C29.3853971,6.69942028 29.3909424,6.71536303 29.3944082,6.73130577 C29.406192,6.78190667 29.4242142,6.82904176 29.4339185,6.88172214 C29.4620565,7.0442705 29.4764329,7.20890272 29.4768946,7.37386786 C29.4768946,7.38773112 29.3299441,8.50233721 26.4789647,8.78029557 C26.0713849,8.82049902 25.6090452,8.8433734 25.0836276,8.8433734 L22.6936016,8.8433734 C22.8745315,7.08424953 23.546615,5.41148712 24.6330717,4.01618635 L24.6330717,4.01826584 Z M19.1189601,15.9365103 L19.1300507,15.9476009 C19.2049123,16.0210761 19.2915577,16.1042557 19.3920663,16.1964464 L19.4454399,16.2442746 C19.5376306,16.3281473 19.6388323,16.4168722 19.7504316,16.5118355 C19.7726128,16.5298578 19.7913282,16.5464937 19.8135094,16.5652091 C19.9410514,16.6719562 20.0810703,16.7835554 20.2294072,16.9000068 L20.3278364,16.9734821 C20.466469,17.0802292 20.6189648,17.1890558 20.7797786,17.300655 L20.8553334,17.3533354 C21.0355558,17.4767184 21.2296414,17.6014878 21.4334313,17.7269503 C21.4791801,17.7553699 21.5270083,17.7837896 21.5720639,17.8122093 C21.7703085,17.9314333 21.9775643,18.0506574 22.1959106,18.1684951 L22.2541363,18.2003806 C22.4877322,18.3244567 22.7393504,18.4457603 22.9937412,18.5649843 L23.1781226,18.6481639 C23.4463766,18.7673879 23.7222555,18.8852256 24.0147703,18.9947454 C24.1977653,19.0640617 24.3883851,19.133378 24.5852434,19.1964558 C24.6164358,19.2068532 24.6504008,19.2158643 24.6822862,19.2262618 C24.8493385,19.2803285 25.0184703,19.3337021 25.19592,19.384303 C25.2506799,19.3995525 25.3095988,19.4134158 25.3650518,19.4286654 C25.523093,19.4716415 25.6811341,19.5146176 25.8502659,19.5541279 C25.9237412,19.571457 26.0013754,19.5860134 26.076237,19.6026493 C26.229426,19.6366143 26.3819219,19.6719656 26.5413494,19.7017716 C26.6286879,19.7184075 26.7201854,19.7315776 26.8096035,19.7468272 C26.9627925,19.7738606 27.1145952,19.8008939 27.2726363,19.8237683 C27.3710655,19.8376315 27.4750399,19.848029 27.5755486,19.8605059 C27.7301239,19.8799145 27.8833129,19.9000162 28.0427404,19.9152658 C28.1550328,19.9256632 28.2721774,19.9319017 28.3893219,19.9402197 C28.5432041,19.9520034 28.6956999,19.9644804 28.8544343,19.9721052 C28.9771241,19.9776505 29.1046661,19.9783436 29.2294354,19.9811163 C29.3715339,19.9845821 29.5108596,19.9915137 29.6564238,19.9915137 L29.6994,19.9915137 C30.009937,19.9915137 30.3274056,19.9831958 30.6524991,19.9644804 C30.7044863,19.9644804 30.7592462,19.9554693 30.8119265,19.9520034 C31.0891917,19.9339812 31.3664569,19.9118 31.6513469,19.8826871 C31.770571,19.8702102 31.893954,19.8508016 32.0145643,19.8355521 C32.2398423,19.8064392 32.4651203,19.77594 32.6966367,19.7378161 C32.8352693,19.7149417 32.9794472,19.686522 33.1222388,19.6601818 C33.3412783,19.6192852 33.5623973,19.5763091 33.7869821,19.5264014 C33.9387848,19.4931295 34.092667,19.4570851 34.2465492,19.4189611 C34.4697476,19.3644323 34.6954877,19.3057445 34.9237694,19.2428977 C35.0825037,19.1985353 35.2419312,19.1534797 35.402745,19.1042651 C35.6370341,19.0349488 35.874789,18.9573146 36.1139302,18.8776008 C36.2740509,18.8235341 36.4334784,18.7715469 36.5991443,18.7133212 C36.8556146,18.6218237 37.1169371,18.5206219 37.3789527,18.4173406 C37.5286759,18.3584217 37.6770128,18.3029687 37.8288155,18.2398909 C37.8676326,18.2239481 37.9050634,18.210778 37.9445737,18.1941421 C37.911995,18.2835601 37.8814959,18.3750576 37.8489172,18.4637825 C37.7581129,18.7077759 37.665229,18.9489966 37.571652,19.1881378 C37.4614391,19.473721 37.350533,19.758611 37.2368543,20.0386488 C37.1405046,20.2757106 37.0413823,20.5086133 36.9429532,20.7415161 C36.8265018,21.0187813 36.7093572,21.2877285 36.5894401,21.5559826 C36.4868519,21.7847264 36.3831085,22.0111596 36.2782099,22.2352823 C36.155289,22.4972979 36.0314438,22.7567719 35.9066745,23.0137044 C35.7985411,23.2336681 35.6890213,23.4515523 35.5781153,23.6673571 C35.4491869,23.9189752 35.3188723,24.1685139 35.1864782,24.4138936 C35.0732615,24.6246151 34.9588897,24.832564 34.8433625,25.0377403 C34.7047299,25.278961 34.5702563,25.5167159 34.4316237,25.7523913 C34.3128617,25.9534086 34.1931756,26.1525774 34.0725652,26.3498978 C33.9304668,26.5814143 33.7855958,26.8087717 33.6400315,27.0340497 C33.5166485,27.2246695 33.3932655,27.4145962 33.267803,27.601057 C33.1180798,27.8228692 32.9662771,28.0398292 32.8130881,28.2554029 C32.6855461,28.4363184 32.557311,28.6165408 32.4269963,28.7932974 C32.2703415,29.0012462 32.110914,29.2091951 31.9507933,29.417144 C31.8183992,29.586969 31.6866982,29.7581802 31.5522246,29.9238462 C31.387945,30.1262498 31.2195064,30.3231081 31.0517609,30.5192732 C30.9131283,30.6787007 30.7807342,30.8388213 30.6421016,30.9940898 C30.4688109,31.1881755 30.2955201,31.3753295 30.1152977,31.5631767 C29.9766651,31.7101272 29.8380326,31.8598504 29.6994,32.002642 C29.5164049,32.1891028 29.3292509,32.3679389 29.1448696,32.5474681 C29.006237,32.6819417 28.8676044,32.8198811 28.7234265,32.950889 C28.5286477,33.129725 28.3297099,33.3009363 28.1314653,33.4728407 C27.9928327,33.5941442 27.8542001,33.7196067 27.7107153,33.8381376 C27.5027664,34.0121215 27.2858064,34.1770943 27.0716191,34.3434534 C26.9329865,34.4495073 26.8019787,34.5604134 26.6640392,34.6630015 C26.4235117,34.8425307 26.1788251,35.009583 25.931366,35.1814874 C25.8149146,35.2618944 25.701929,35.3471534 25.5847845,35.4254808 C25.2187944,35.6694742 24.8474901,35.9033012 24.4708715,36.1269618 C21.0949209,38.1552974 17.2407385,39.2504096 13.3026295,39.3002619 C12.8913213,39.2996918 12.5010237,39.1184822 12.2351585,38.8046504 C12.1349232,38.6952325 12.0442492,38.5774259 11.9641317,38.4525236 C11.9294736,38.39915 11.8996676,38.335379 11.8677821,38.2778465 C11.8199538,38.1953601 11.7714324,38.1170327 11.7291495,38.0269215 C11.6958777,37.9576052 11.6681512,37.8792778 11.6369588,37.8064957 C11.599528,37.7170777 11.5600177,37.6325118 11.5253596,37.5382416 C11.4983262,37.4640732 11.476145,37.3829731 11.4511911,37.306032 C11.4179193,37.2034439 11.3818748,37.1043216 11.352762,36.9968813 C11.3278081,36.9102359 11.3077064,36.8173521 11.2834457,36.7279341 C11.2571055,36.6232665 11.229379,36.5199852 11.2058114,36.4132381 C11.1822439,36.306491 11.1663011,36.2052892 11.1461994,36.1054737 C11.1260977,36.0056582 11.1053028,35.9016838 11.0872806,35.7970162 C11.0692583,35.6923486 11.0547019,35.5786698 11.0387592,35.4691501 C11.0228164,35.3596303 11.0061805,35.2612012 10.9930104,35.1572267 C10.9798403,35.0532523 10.9687497,34.9416531 10.9569659,34.8342128 C10.9451822,34.7267725 10.9306257,34.6151733 10.9202283,34.5049604 C10.9098308,34.3947475 10.9015129,34.2762166 10.8925018,34.1618447 C10.884877,34.0585634 10.8744795,33.9538958 10.8682411,33.8520008 C10.8620026,33.7501059 10.8557641,33.6294955 10.8495257,33.5185894 C10.8432872,33.4076834 10.8370487,33.3106405 10.8328898,33.2032003 C10.8287308,33.09576 10.8259581,32.9869334 10.8224923,32.8788 C10.8190265,32.7706666 10.8148675,32.6750101 10.8134812,32.5758878 C10.8134812,32.462209 10.8134812,32.3533825 10.8093222,32.2424764 C10.8093222,32.1530584 10.8093222,32.0615608 10.8093222,31.9742223 C10.8093222,31.866782 10.8093222,31.7662734 10.8093222,31.6629921 C10.8093222,31.5791194 10.8093222,31.4910877 10.8093222,31.4106808 C10.8093222,31.2900704 10.8148675,31.1791644 10.8183333,31.0640993 C10.8183333,31.0086463 10.8183333,30.9497274 10.8231855,30.8963539 C10.8266513,30.7799025 10.8321966,30.6745417 10.8377419,30.5684878 C10.8377419,30.5262048 10.8412077,30.4783766 10.8432872,30.43748 C10.8502188,30.3203354 10.8571505,30.2156678 10.8647752,30.1151592 L10.8682411,30.0520813 C11.6683755,24.4489737 14.6298694,19.3816172 19.1189601,15.9344308 L19.1189601,15.9365103 Z M9.12077717,48.2025542 C7.12862674,49.269332 5.85043419,49.362909 5.20856527,49.2977517 L5.90172826,47.9114257 C6.01534468,47.6845301 5.9485574,47.4087623 5.74371764,47.2589925 C5.53887787,47.1092227 5.25584309,47.1292161 5.07409165,47.3062944 C4.0565683,48.209649 2.67370574,48.5823827 1.34002263,48.3127671 L3.91789578,44.0151566 C4.05226376,43.7931882 4.00239107,43.5061295 3.80102879,43.3424898 C3.5996665,43.1788502 3.30847542,43.1887393 3.11867886,43.3656628 C2.67004934,43.8000065 2.10525542,44.0951631 1.49251849,44.2154807 L9.7626461,31.8078632 L9.7626461,31.8279649 C9.7626461,32.0130394 9.7626461,32.2098977 9.7626461,32.4123013 C9.7626461,32.4587432 9.7626461,32.504492 9.7626461,32.5509339 C9.76611191,32.7519512 9.77165722,32.9578206 9.77928201,33.1706216 L9.77928201,33.2066661 C9.78829313,33.4277851 9.80077006,33.6544494 9.81601965,33.8838863 C9.81948546,33.937953 9.82295128,33.9920198 9.82711026,34.0467796 C9.84166668,34.2464106 9.85830259,34.448121 9.87840432,34.6519109 C9.88256329,34.6900349 9.88533595,34.7281589 9.88949492,34.766976 C9.91352457,34.9980303 9.94194426,35.2313952 9.97475397,35.4670706 C9.98237876,35.519751 9.99069672,35.5717382 9.99901468,35.6244186 C10.0281275,35.8194285 10.0604751,36.0123588 10.0960575,36.2032097 C10.1057618,36.2538106 10.1147729,36.3037183 10.1244772,36.3536261 C10.1695328,36.5809835 10.2201337,36.8048752 10.2762799,37.0232215 C10.2873705,37.0655044 10.2991543,37.1064011 10.310938,37.148684 C10.3601526,37.3295995 10.412833,37.5056629 10.4703655,37.6775674 C10.4883877,37.7295546 10.5050237,37.782235 10.5230459,37.8328359 C10.5923622,38.0345463 10.6720759,38.2307114 10.7580281,38.4150928 C10.7691188,38.4393535 10.7815957,38.4608415 10.7933795,38.4844091 C10.8682666,38.6398997 10.9510933,38.79144 11.0415318,38.9384308 C11.0685652,38.9821001 11.0949054,39.0243831 11.1226319,39.0659728 C11.2232093,39.2208628 11.3358512,39.3675755 11.4595091,39.504745 C11.9201882,40.034415 12.5881742,40.33793 13.2901525,40.3365406 C17.4144915,40.2860792 21.4514116,39.1409775 24.9879711,37.0183694 C25.3779908,36.787315 25.7624652,36.5454012 26.1413943,36.2926277 C26.2689363,36.2073687 26.3923193,36.115178 26.518475,36.0278395 C26.7673205,35.8552419 27.0175524,35.681258 27.2608526,35.5024219 C27.4078031,35.3935953 27.5492084,35.2764508 27.6940794,35.1641584 C27.9117326,34.9950266 28.1307721,34.8272812 28.3442663,34.6505246 C28.4967622,34.5243689 28.6444059,34.3905885 28.7941291,34.260967 C28.9944532,34.0869831 29.1961636,33.9143855 29.3930219,33.7341631 C29.5441314,33.5955305 29.691082,33.4492731 29.840112,33.3064816 C30.0300387,33.1241797 30.2206585,32.9432642 30.4064262,32.7519512 C30.5547631,32.6015348 30.6996341,32.4441868 30.8458915,32.2889183 C31.0261139,32.0982985 31.2070295,31.9076787 31.383786,31.7101272 C31.5279639,31.5486202 31.6693692,31.3808748 31.8121607,31.2145157 C31.9840652,31.0134984 32.1587422,30.8131743 32.3251014,30.6052254 C32.4637339,30.433321 32.6023665,30.2586439 32.7409991,30.0791147 C32.9052788,29.8711658 33.0695584,29.6562853 33.2310654,29.4393253 C33.369698,29.2563302 33.4986263,29.0691762 33.6317136,28.8847949 C33.7890616,28.6636759 33.9457164,28.4411706 34.0995986,28.2131199 C34.2299132,28.0204206 34.3574552,27.8235623 34.4856904,27.6260109 C34.6354136,27.3944944 34.7851368,27.1608985 34.9313942,26.9231436 C35.0561635,26.7198158 35.1795465,26.5144085 35.3015432,26.3069217 C35.445028,26.0643147 35.5871264,25.8217076 35.7264521,25.5714758 C35.8466004,25.3584437 35.9646691,25.1433321 36.0806584,24.926141 C36.219291,24.6733676 36.3542267,24.4173594 36.4854656,24.1581165 C36.5991443,23.9358422 36.7116678,23.7112574 36.823036,23.484362 C36.9519643,23.2214222 37.0792752,22.9554787 37.2049688,22.6865314 C37.3140264,22.4527044 37.4219288,22.2172601 37.5286759,21.9801983 C37.6499794,21.7077853 37.7698966,21.4312133 37.8884275,21.1525617 C37.9917088,20.9092615 38.0963764,20.6673476 38.1948055,20.417809 C38.3098706,20.1349985 38.422163,19.848029 38.5337622,19.5596732 C38.6314982,19.3059755 38.7292342,19.0515847 38.8248907,18.7930349 C38.8609352,18.6939126 38.8997523,18.5996425 38.9357968,18.499827 C38.9517395,18.5532005 38.9697618,18.6031083 38.9843182,18.6578681 C39.0168968,18.7777853 39.0487823,18.8983957 39.0758157,19.0217787 C39.1333482,19.2858738 39.1818696,19.5610595 39.2144483,19.8535743 C39.2241526,19.9325949 39.230391,20.0143881 39.2380158,20.094795 C39.2699013,20.4309791 39.2934689,20.7775606 39.2934689,21.1504822 C39.2934689,27.0624694 28.2139517,36.0534865 27.717647,36.4499757 L15.9567506,44.2903423 C15.8472308,44.3610449 12.4250851,46.4315227 9.12077717,48.2025542 Z M22.3837578,44.2730132 C22.3083562,44.2323927 22.2240251,44.2111908 22.1383781,44.2113217 C22.0357578,44.2114155 21.9354482,44.2417977 21.8500223,44.2986602 L19.7109213,45.7251897 L19.7109213,44.7311939 C19.7109074,44.539478 19.60538,44.3633295 19.4363475,44.2728696 C19.267315,44.1824096 19.0622148,44.1923218 18.9026933,44.2986602 L16.7635923,45.7251897 L16.7635923,45.0091523 L28.3213919,37.3046457 C28.3331757,37.2963277 28.3449595,37.2880098 28.3560501,37.2789986 C28.8454232,36.889441 40.3415313,27.668987 40.3415313,21.1525617 C40.3415313,20.76647 40.3186569,20.4011731 40.2860783,20.043501 C40.2784535,19.9617077 40.2694424,19.8806077 40.2597381,19.8002007 C40.2209209,19.4584714 40.1696269,19.1278326 40.1016969,18.814523 C40.1016969,18.8041255 40.0982311,18.7930349 40.0954584,18.7826375 C40.0183595,18.4330847 39.9190354,18.0888076 39.7980915,17.7519041 L39.7849214,17.7151665 C38.9555394,15.3943721 37.0010478,13.655943 34.5993691,13.10286 L34.6069939,13.0980078 L34.6624469,13.0675086 C34.7483992,13.0210667 34.8239539,12.9780906 34.8911907,12.9385803 L34.9681318,12.8914452 C35.0180396,12.8609461 35.058243,12.835299 35.092208,12.8131178 L35.1358773,12.7846981 L35.1982619,12.741722 L36.5561682,11.8364512 C36.9110677,11.8246674 37.2389338,11.8031794 37.5522434,11.7754528 C37.6555247,11.7657486 37.7491017,11.7539648 37.848224,11.7428742 C38.0513208,11.720693 38.2488722,11.6964323 38.4339468,11.6680126 C38.5351486,11.6520698 38.6321914,11.6354339 38.728541,11.6181048 C38.8969796,11.5876057 39.0571003,11.555027 39.2137551,11.5196757 C39.298321,11.5002671 39.3842732,11.4815517 39.4646801,11.4607568 C39.6275734,11.4184739 39.7779898,11.3727251 39.9228609,11.3262832 C39.9748481,11.3096473 40.0323806,11.2937046 40.0822883,11.2763755 C40.2671318,11.2112182 40.4392673,11.1430571 40.5986948,11.0718924 C40.6388982,11.0538702 40.6728632,11.0344616 40.7109872,11.0164394 C40.8246659,10.9616795 40.9334925,10.9062265 41.0319216,10.8500802 C41.0790567,10.8223537 41.1220328,10.7953204 41.1657021,10.7675939 C41.2447227,10.7183793 41.3195843,10.6691647 41.3875143,10.6199501 C41.4270245,10.5915305 41.4658417,10.5631108 41.5018861,10.5346911 C41.5663503,10.4840902 41.6238828,10.4348756 41.6779495,10.385661 C41.6966649,10.3690251 41.7209257,10.3510029 41.7382547,10.334367 C43.1169559,13.281696 43.2334073,19.1306053 43.2347936,19.1860583 C43.2347936,25.2269738 40.5681956,31.0557813 35.309168,36.5088946 C34.1140616,37.7444529 32.8443481,38.9055984 31.507169,39.9858001 C30.0189266,41.2082159 28.4404966,42.3164999 26.7853428,43.3011987 L25.8031308,43.8903872 L25.8031308,43.8903872 L23.8380137,45.0687643 L23.8380137,45.0687643 L22.6596366,45.7744042 L22.6596366,44.7277281 C22.6594532,44.5366691 22.554622,44.3610635 22.3865304,44.2702405 L22.3837578,44.2730132 Z M24.9006326,45.6447827 L25.7449051,45.1387738 L25.7795633,45.1637276 L31.6714487,49.0939618 C31.6783803,49.0981208 31.6866982,49.0981208 31.6936299,49.1022797 C31.7512859,49.1376022 31.8153646,49.1611605 31.8821702,49.171596 C32.6691413,49.2996479 33.4474335,49.47628 34.2125842,49.7004794 C35.9142993,50.2127268 36.3177202,50.6847708 36.4112972,50.8643 C36.5166579,51.0646242 36.6192461,51.276732 36.7114367,51.493692 C36.7266863,51.5297365 36.7370838,51.5630083 36.7516402,51.5962802 C36.729459,51.5734058 36.7003461,51.5484519 36.6760854,51.5269639 C36.635882,51.4874536 36.5970648,51.4500228 36.5520093,51.4091262 C36.5069537,51.3682295 36.4515006,51.3231739 36.3988202,51.2788115 C36.3461398,51.2344491 36.3003911,51.1970183 36.2456312,51.1554285 C36.1908713,51.1138387 36.1201687,51.0660105 36.0550114,51.0209549 C35.9898541,50.9758993 35.9378668,50.9391616 35.8734027,50.898265 C35.8089385,50.8573684 35.7202137,50.8109265 35.6411931,50.7672572 C35.5621725,50.723588 35.5025605,50.6903161 35.4332442,50.6542717 C35.3465988,50.6112956 35.2509423,50.5738648 35.155979,50.5350476 C35.0776516,50.5017758 35.0034831,50.4657313 34.9203036,50.4373116 C34.8163291,50.3998808 34.7026504,50.3679953 34.5917443,50.3374962 C34.5057921,50.3125423 34.4260784,50.2841226 34.3359672,50.2633277 C34.2091184,50.2328286 34.0704858,50.21342 33.9346258,50.1940114 C33.8472873,50.1801482 33.7668804,50.1607396 33.676076,50.149649 C33.4819904,50.1274678 33.2747346,50.1184567 33.0626268,50.1142977 C33.021037,50.1142977 32.9842994,50.1073661 32.9420164,50.1073661 C32.6630961,50.1075147 32.4339941,50.3277463 32.4228373,50.6064434 L32.4228373,50.6757597 L32.4228373,50.7388375 L32.4228373,50.7769615 C32.4228373,50.8053812 32.4228373,50.834494 32.4228373,50.8691522 L32.4228373,50.928071 C32.4228373,50.9627292 32.4228373,50.9973873 32.4228373,51.038284 L32.4228373,51.1159182 C32.4228373,51.1568148 32.4228373,51.1984046 32.4228373,51.242767 C32.4228373,51.272573 32.4228373,51.3037654 32.4263031,51.3356509 C32.4263031,51.3834791 32.429769,51.4326937 32.4318485,51.4839878 L32.4367006,51.5831101 C32.4367006,51.6378699 32.4429391,51.6940161 32.4464049,51.7522418 C32.4464049,51.7889795 32.451257,51.8215581 32.4540297,51.8624547 C32.4581886,51.9220668 32.4637339,51.9837583 32.4685861,52.0461429 C32.4720519,52.0849601 32.4748246,52.123084 32.4789835,52.1632875 C32.485222,52.2326038 32.4928468,52.3019201 32.4997784,52.3712364 C32.5039374,52.4086672 32.5074032,52.446098 32.5122554,52.4842219 C32.5212665,52.5646289 32.5323571,52.6464221 32.5434477,52.7289085 C32.5476067,52.7601008 32.5510725,52.7906 32.5559246,52.8224855 C32.5718674,52.9361642 32.5898896,53.0519224 32.6099913,53.169067 C32.6155366,53.2002593 32.6217751,53.2314517 32.6273204,53.262644 C32.6432632,53.3499825 32.6592059,53.4380142 32.6772281,53.5267391 C32.6869324,53.5738742 32.698023,53.6210092 32.7084205,53.6653717 C32.7243632,53.738847 32.740306,53.8116291 32.7576351,53.8851043 C32.7708052,53.9391711 32.7853616,53.9925446 32.7992248,54.0466113 C32.8165539,54.1159276 32.833883,54.1852439 32.8532915,54.2504012 C32.8692343,54.3072406 32.8865634,54.36408 32.9038924,54.4209193 C32.9163694,54.4625091 32.9281532,54.5040989 32.9413232,54.5456887 L32.9350848,54.5415297 C32.919142,54.5290528 32.9038924,54.5144963 32.8886429,54.5020194 C32.8290308,54.4541912 32.770112,54.4028971 32.7118863,54.3467509 C32.6869324,54.3231834 32.6626717,54.2975363 32.6377179,54.2725825 C32.5850375,54.2178226 32.5330502,54.1595969 32.481063,54.0972122 C32.4588818,54.0701789 32.4367006,54.0445318 32.4117467,54.0168053 C32.3367823,53.9215143 32.2673517,53.8219971 32.2037978,53.7187452 C32.196173,53.7062683 32.1892414,53.6917119 32.1816166,53.6792349 C32.1233909,53.5808058 32.0674758,53.475445 32.0138712,53.3631526 C31.9951558,53.3236423 31.9778267,53.2820525 31.9598045,53.2404628 C31.9177526,53.14342 31.8777802,53.0410629 31.8398873,52.9333916 C31.8239445,52.888336 31.8073086,52.8439735 31.7927522,52.794759 C31.7435376,52.6394905 31.6970957,52.4772903 31.6589717,52.3005338 C31.5440037,51.7493713 31.4884643,51.1874703 31.4933058,50.6244657 C31.4931351,50.4566826 31.4121051,50.2992676 31.2756526,50.2016362 L24.9006326,45.6447827 Z M33.807777,53.7804367 L33.7703462,53.6293272 C33.7453923,53.5232733 33.7218248,53.4172193 33.7010299,53.3118586 C33.6913256,53.266803 33.6816213,53.2217474 33.6733034,53.1773849 C33.6469632,53.0387523 33.6233956,52.9001197 33.6039871,52.7614871 C33.6039871,52.7427717 33.5991349,52.7240563 33.5963623,52.7053409 C33.5776469,52.5771058 33.5617041,52.4509501 33.5478409,52.3289534 C33.5422956,52.2776594 33.5374434,52.229138 33.5325913,52.1792302 C33.5242733,52.0967438 33.5159554,52.0156438 33.5097169,51.9373164 C33.5055579,51.8867155 33.5013989,51.8368077 33.4979331,51.7882863 C33.4923878,51.7134247 33.4882288,51.6413358 33.4840699,51.5720195 C33.4840699,51.531816 33.4792177,51.4895331 33.4771382,51.4514091 C33.4729793,51.3522868 33.4688203,51.2580166 33.4667408,51.1741439 L33.4667408,51.1685986 L33.4792177,51.1685986 C33.6893842,51.1897168 33.8978332,51.2253848 34.1030644,51.2753457 C34.1495063,51.2864363 34.1959483,51.2968338 34.241697,51.3093107 C34.4214505,51.3562861 34.5978992,51.4151023 34.7698872,51.4853741 L34.8281129,51.5124074 C34.9687251,51.5738959 35.1057301,51.6433241 35.2384654,51.7203563 C35.2668851,51.7376854 35.2966911,51.7536282 35.3244176,51.7709572 C35.4495902,51.8489052 35.5699562,51.9343188 35.6848624,52.0267344 L35.7014983,52.0405976 L33.8424351,53.8989676 C33.8313445,53.8608436 33.8188676,53.8171744 33.807777,53.7776641 L33.807777,53.7804367 Z" id="Path_669"></path>
                <path d="M26.0679191,14.7920982 C26.3224592,14.7915222 26.5391488,14.6067279 26.579907,14.3554716 C26.6206652,14.1042152 26.473504,13.8603979 26.2321987,13.779387 L23.2848697,12.7971751 C23.0138484,12.7108703 22.7237845,12.8583893 22.6338964,13.1282434 C22.5440083,13.3980974 22.6876711,13.6900903 22.9563104,13.783546 L25.9036394,14.765758 C25.95665,14.7832189 26.0121068,14.7920982 26.0679191,14.7920982 Z" id="Path_670"></path>
                <path d="M29.1795277,16.7274092 L26.2321987,15.7451973 C26.0561243,15.6865058 25.8621134,15.7262072 25.7232479,15.8493464 C25.5843824,15.9724855 25.5217594,16.1603547 25.5589683,16.3421853 C25.5961771,16.5240159 25.7275651,16.6721836 25.9036394,16.730875 L28.8509685,17.713087 C28.9038476,17.7311567 28.9593671,17.7402928 29.0152481,17.7401227 C29.2697882,17.7395444 29.4864778,17.5547501 29.527236,17.3034937 C29.5679942,17.0522374 29.420833,16.80842 29.1795277,16.7274092 L29.1795277,16.7274092 Z" id="Path_671"></path>
                <path d="M18.0438643,20.660416 L20.9911933,21.6433211 C21.2635721,21.7342417 21.5580845,21.5871407 21.649005,21.3147619 C21.7399256,21.0423831 21.5928246,20.7478707 21.3204458,20.6569502 L18.3731167,19.6747382 C18.1952084,19.6089287 17.9955786,19.6452426 17.8522426,19.7694885 C17.7089065,19.8937345 17.6446203,20.0861872 17.6845069,20.2716362 C17.7243935,20.4570852 17.8621205,20.6060886 18.0438643,20.660416 Z" id="Path_672"></path>
                <path d="M23.9385224,21.6433211 L26.8858514,22.6255331 C26.9389725,22.6435911 26.9947178,22.6527258 27.0508242,22.6525685 C27.3053643,22.6519905 27.5220539,22.4671962 27.5628121,22.2159398 C27.6035703,21.9646835 27.4564091,21.7208661 27.2151038,21.6398553 L24.2670816,20.6569502 C23.9960603,20.5706455 23.7059965,20.7181645 23.6161084,20.9880185 C23.5262203,21.2578725 23.669883,21.5498654 23.9385224,21.6433211 L23.9385224,21.6433211 Z" id="Path_673"></path>
                <path d="M29.8331804,22.6248399 L32.7805094,23.6070519 C32.8336306,23.6251099 32.8893759,23.6342446 32.9454822,23.6340873 C33.2000223,23.6335093 33.4167119,23.448715 33.4574701,23.1974586 C33.4982284,22.9462023 33.3510671,22.7023849 33.1097619,22.6213741 L30.1624328,21.6391622 C29.9845245,21.5733526 29.7848947,21.6096665 29.6415586,21.7339124 C29.4982226,21.8581584 29.4339364,22.0506111 29.473823,22.2360601 C29.5137096,22.4215091 29.6514366,22.5705126 29.8331804,22.6248399 L29.8331804,22.6248399 Z" id="Path_674"></path>
                <path d="M15.0965353,24.5906502 L18.0438643,25.5728621 C18.0967622,25.5908571 18.1522691,25.5999911 18.2081439,25.5998962 C18.4628144,25.5996572 18.6798195,25.4149672 18.7207661,25.1636099 C18.7617127,24.9122527 18.6145446,24.6682381 18.3731167,24.5871843 L15.4257877,23.6042792 C15.1534089,23.5133587 14.8588966,23.6604597 14.767976,23.9328385 C14.6770555,24.2052173 14.8241565,24.4997296 15.0965353,24.5906502 L15.0965353,24.5906502 Z" id="Path_675"></path>
                <path d="M23.9385224,26.5550741 C23.9914171,26.5730814 24.0469261,26.5822158 24.102802,26.5821084 C24.3581498,26.5825501 24.5760162,26.3974826 24.6168765,26.1454248 C24.6577367,25.8933669 24.5094926,25.6489505 24.2670816,25.5687031 L21.3204458,24.5871843 C21.1425375,24.5213748 20.9429076,24.5576887 20.7995716,24.6819346 C20.6562356,24.8061805 20.5919493,24.9986333 20.6318359,25.1840823 C20.6717225,25.3695313 20.8094496,25.5185347 20.9911933,25.5728621 L23.9385224,26.5550741 Z" id="Path_676"></path>
                <path d="M30.1624328,26.5516082 L27.2151038,25.5687031 C27.0389056,25.5098879 26.8447142,25.5495409 26.7056796,25.6727254 C26.5666449,25.7959099 26.5038898,25.9839111 26.5410533,26.1659109 C26.5782169,26.3479106 26.7096532,26.4962588 26.8858514,26.5550741 L29.8331804,27.5379792 C29.8864174,27.5554899 29.9421103,27.564382 29.9981532,27.5643197 C30.2526933,27.5637434 30.4693829,27.3789491 30.5101411,27.1276928 C30.5508993,26.8764364 30.4037381,26.6326191 30.1624328,26.5516082 L30.1624328,26.5516082 Z" id="Path_677"></path>
                <path d="M12.1492063,28.5167253 L15.0965353,29.4989373 C15.149427,29.516957 15.204938,29.5260918 15.2608149,29.5259731 C15.5162951,29.5267567 15.7344825,29.3417936 15.7755321,29.0896316 C15.8165817,28.8374696 15.6683259,28.5928531 15.4257877,28.5125663 L12.4784587,27.5303544 C12.2060799,27.4394339 11.9115677,27.5865349 11.8206471,27.8589137 C11.7297266,28.1312924 11.8768275,28.4258047 12.1492063,28.5167253 L12.1492063,28.5167253 Z" id="Path_678"></path>
                <path d="M21.155473,30.5116531 C21.4101434,30.5114101 21.6271485,30.3267201 21.6680951,30.0753629 C21.7090418,29.8240056 21.5618736,29.579991 21.3204458,29.4989373 L18.3731167,28.5167253 C18.1007379,28.4258049 17.8062257,28.5729058 17.7153052,28.8452846 C17.6243846,29.1176634 17.7714856,29.4121757 18.0438643,29.5030963 L20.9911933,30.4860014 C21.0442421,30.5032271 21.099698,30.5118847 21.155473,30.5116531 Z" id="Path_679"></path>
                <path d="M27.2151038,30.4811492 L24.2670816,29.4989373 C23.9960603,29.4126325 23.7059965,29.5601515 23.6161084,29.8300055 C23.5262203,30.0998595 23.669883,30.3918525 23.9385224,30.4853082 L26.8858514,31.4675202 C26.9389725,31.4855782 26.9947178,31.4947129 27.0508242,31.4945556 C27.306172,31.4949962 27.5240384,31.3099287 27.5648987,31.0578709 C27.6057589,30.805813 27.4575148,30.5613966 27.2151038,30.4811492 L27.2151038,30.4811492 Z" id="Path_680"></path>
                <path d="M16.4079997,33.4284783 L13.4606706,32.4462663 C13.2836997,32.3847007 13.0872907,32.4231314 12.9465752,32.5468577 C12.8058598,32.6705841 12.7426121,32.8604607 12.781026,33.0438549 C12.8194399,33.227249 12.9535712,33.3757824 13.1321114,33.4326372 L16.0787472,34.4148492 C16.1318684,34.4329072 16.1876137,34.4420419 16.24372,34.4418846 C16.4990679,34.4423252 16.7169343,34.2572577 16.7577945,34.0051999 C16.7986548,33.7531421 16.6504106,33.5087256 16.4079997,33.4284783 L16.4079997,33.4284783 Z" id="Path_681"></path>
                <path d="M22.3026577,34.4086107 L19.3553287,33.4263988 C19.0829499,33.3354783 18.7884377,33.4825793 18.6975171,33.7549581 C18.6065966,34.0273368 18.7536975,34.3218491 19.0260763,34.4127697 L21.9734053,35.3949816 C22.0265264,35.4130397 22.0822717,35.4221744 22.1383781,35.4220171 C22.3937259,35.4224577 22.6115923,35.2373902 22.6524526,34.9853324 C22.6933128,34.7332745 22.5450687,34.4888581 22.3026577,34.4086107 L22.3026577,34.4086107 Z" id="Path_682"></path>
                <path d="M34.0919738,15.7451973 L31.1446448,14.7622922 C30.872266,14.6713716 30.5777537,14.8184726 30.4868331,15.0908514 C30.3959126,15.3632302 30.5430136,15.6577425 30.8153924,15.7486631 L33.7627214,16.730875 C33.8158394,16.7489455 33.8715868,16.7580806 33.9276942,16.7579108 C34.1822343,16.7573324 34.3989239,16.5725381 34.4396821,16.3212818 C34.4804403,16.0700254 34.3332791,15.8262081 34.0919738,15.7451973 L34.0919738,15.7451973 Z" id="Path_683"></path>
            </g>
        </g>
    </g>
</svg>
