<?xml version="1.0" encoding="UTF-8"?>
<svg width="57px" height="61px" viewBox="0 0 57 61" version="1.1" xmlns="http://www.w3.org/2000/svg" xmlns:xlink="http://www.w3.org/1999/xlink">
    <title>squirrel-svgrepo-com</title>
    <g id="页面-1" stroke="none" stroke-width="1" fill="none" fill-rule="evenodd">
        <g id="形状库素材-动物" transform="translate(-719.000000, -404.000000)" fill="#545458" fill-rule="nonzero">
            <g id="squirrel-svgrepo-com" transform="translate(719.615848, 404.461678)">
                <path d="M55.1701172,35.8815234 C54.3227344,33.9016406 53.6576953,33.3983203 53.2310156,33.1921875 C52.9501172,33.05625 52.5779297,32.9238281 52.1432813,32.8154297 C54.03375,32.0266406 54.7327734,30.3958594 54.7441406,30.3679688 C54.7919531,30.25125 54.8165625,30.1262109 54.8165625,29.9998828 C54.8165625,29.0012109 53.836875,26.1697266 52.0653516,23.6619141 C50.3574609,21.2442188 47.3191406,18.2327344 42.5425781,17.6165625 C42.5327344,17.6152734 42.523125,17.6152734 42.5132813,17.6142188 C41.6773828,15.4114453 40.7223047,14.2966406 40.1486719,13.7837109 L40.1486719,12.0977344 C40.1486719,11.5610156 39.7135547,11.1257813 39.1767188,11.1257813 C38.64,11.1257813 38.2047656,11.5608984 38.2047656,12.0977344 L38.2047656,14.0022656 C37.6122656,15.0499219 37.1766797,16.0379297 36.8602734,16.936875 C36.5431641,15.0952734 35.9337891,12.5131641 34.7758594,9.9075 C31.8952734,3.42609375 27.0174609,0 20.6697656,0 C13.0272656,0 8.28351563,3.01757813 5.64996094,5.5490625 C2.77640625,8.31082031 1.73449219,11.0745703 1.69160156,11.1908203 C1.59890625,11.4418359 1.61425781,11.7201563 1.73320312,11.9598047 C1.85214844,12.1995703 2.06519531,12.3796875 2.32113281,12.4575 C2.33695313,12.4623047 3.91945313,12.9493359 5.46234375,13.8871875 C6.75398438,14.6723438 8.29371094,15.9467578 8.29371094,17.5592578 C8.29371094,19.0789453 7.01414063,21.3669141 5.53253906,24.0160547 C3.06773438,28.4234766 0,33.9087891 0,40.3669922 C0,45.4150781 1.88121094,50.3275781 5.29699219,54.1998047 C8.50101563,57.8317969 12.6975,60 16.5228516,60 L39.3305859,60 C39.8673047,60 40.3025391,59.5648828 40.3025391,59.0280469 C40.3025391,54.4896094 37.6584375,52.8725391 35.1837891,52.8725391 L31.8146484,52.8725391 C32.6800781,51.3060938 33.5899219,49.0072266 33.9566016,46.56 C37.3971094,46.4776172 43.2724219,44.0866406 45.5366016,41.8223438 C47.5659375,39.793125 48.5198438,39.7937109 49.2481641,40.0967578 C51.3616406,40.9758984 54.4504688,39.8844141 55.3232813,39.3019922 C55.7330859,39.0287109 55.9407422,38.6912109 55.9407422,38.2991016 C55.9407422,37.7865234 55.3328906,36.2617969 55.1701172,35.8815234 Z M49.9944141,38.3019141 C47.7001172,37.3475391 45.7585547,38.8512891 44.1619922,40.4479687 C42.2873437,42.3226172 37.1003906,44.4485156 34.1221875,44.6092969 C34.1455078,43.1579297 33.9309375,41.7084375 33.3601172,40.3775391 C31.8673828,36.8970703 28.3811719,35.0530078 22.9982812,34.8964453 C22.4617969,34.8834375 22.0141406,35.3032031 21.9985547,35.8396875 C21.9829687,36.3761719 22.4053125,36.8238281 22.9417969,36.8394141 C27.5014453,36.9718359 30.4054687,38.4200391 31.5735937,41.1435937 C33.345,45.27375 30.8289844,51.0603516 29.5310156,52.8725391 L27.9266016,52.8725391 C27.3898828,52.8725391 26.9546484,53.3076562 26.9546484,53.8444922 C26.9546484,54.3812109 27.3897656,54.8164453 27.9266016,54.8164453 L35.1836719,54.8164453 C36.2554687,54.8164453 37.9838672,55.2636328 38.3060156,58.0562109 L16.5228516,58.0562109 C13.246875,58.0562109 9.59542969,56.1339844 6.75503906,52.9141406 C3.65261719,49.3972266 1.94414062,44.9414062 1.94414062,40.3672266 C1.94414062,34.4157422 4.87464844,29.1755859 7.22941406,24.9651562 C8.91035156,21.9597656 10.2378516,19.5857812 10.2378516,17.5594922 C10.2378516,13.9168359 5.97421875,11.7847266 3.93585937,10.9736719 C4.43835937,10.0236328 5.4234375,8.44582031 7.06488281,6.88582031 C10.5146484,3.60667969 15.0921094,1.94402344 20.6695312,1.94402344 C26.2543359,1.94402344 30.3958594,4.87371094 32.9792578,10.6517578 C34.6140234,14.308125 35.0932031,18.0228516 35.2137891,19.2575391 C32.7992578,20.3431641 28.8860156,22.8389062 26.5935937,25.4668359 C22.1233594,24.1121484 17.2228125,25.1688281 13.5846094,28.4130469 C8.34785156,33.0829687 7.07285156,40.8433594 10.1742187,49.1725781 C10.3198828,49.5638672 10.6908984,49.805625 11.0852344,49.805625 C11.1978516,49.805625 11.3124609,49.7859375 11.4242578,49.7443359 C11.9273437,49.5569531 12.1832812,48.9973828 11.9960156,48.4942969 C9.18492187,40.9448437 10.2625781,33.9801562 14.8784766,29.8638281 C18.5286328,26.6088281 23.6521875,25.9127344 27.9316406,28.0905469 C28.4101172,28.3340625 28.9952344,28.1435156 29.2386328,27.6652734 C29.4821484,27.1867969 29.2916016,26.6015625 28.8133594,26.3582812 C28.7216016,26.3116406 28.6289062,26.2685156 28.5365625,26.2239844 C30.8609766,23.8088672 34.2807422,21.8192578 36.0339844,21.0139453 C36.0130078,21.5626172 36.0454687,21.8872266 36.0501562,21.9295312 C36.1053516,22.4266406 36.5261719,22.7941406 37.0149609,22.7941406 C37.0507031,22.7941406 37.0870312,22.7921484 37.1234766,22.7881641 C37.6570312,22.7289844 38.0414062,22.2483984 37.9821094,21.7148437 C37.9792969,21.6883594 37.738125,19.2813281 39.4176562,15.8634375 C40.0149609,16.6610156 40.8621094,18.1951172 41.4691406,20.9507812 C41.5845703,21.4750781 42.1033594,21.8064844 42.6274219,21.6907031 C43.1516016,21.5752734 43.4830078,21.0566016 43.3674609,20.5324219 C43.303125,20.2408594 43.235625,19.9632422 43.1663672,19.6940625 C46.7275781,20.4480469 49.0742578,22.8107812 50.4455859,24.7380469 C52.0141406,26.9422266 52.7098828,29.1012891 52.8471094,29.8114453 C52.7036719,30.0454687 52.3947656,30.4633594 51.8628516,30.7917187 C50.7208594,31.4967187 49.07625,31.4463281 47.1059766,30.6455859 C46.6088672,30.4435547 46.0417969,30.6827344 45.8396484,31.1799609 C45.6375,31.6771875 45.8767969,32.2441406 46.3742578,32.4462891 C46.7987109,32.6187891 47.2033594,32.7588281 47.589375,32.8709766 C46.3282031,33.5980078 43.6843359,34.5290625 38.4720703,34.4457422 C38.4667969,34.4457422 38.4615234,34.445625 38.45625,34.445625 C37.9267969,34.445625 37.4930859,34.8706641 37.4847656,35.4021094 C37.4762109,35.9388281 37.9044141,36.3807422 38.4411328,36.3892969 C38.6712891,36.3929297 38.8958203,36.3946875 39.1173047,36.3946875 C43.4966016,36.3946875 46.2086719,35.6953125 47.8699219,34.9215234 C49.5283594,34.1954297 51.6257812,34.5747656 52.3735547,34.9359375 C52.8030469,35.2058203 53.5369922,36.9045703 53.8589062,37.8851953 C52.9969922,38.2557422 51.1169531,38.7685547 49.9944141,38.3019141 Z" id="形状"></path>
                <path d="M46.89,24.6223828 C46.0682812,24.6223828 45.3997266,25.2909375 45.3997266,26.1126563 C45.3997266,26.9344922 46.0681641,27.6029297 46.89,27.6029297 C47.7117187,27.6029297 48.3802734,26.934375 48.3802734,26.1126563 C48.3802734,25.2909375 47.7117187,24.6223828 46.89,24.6223828 Z" id="路径"></path>
            </g>
        </g>
    </g>
</svg>
