<?xml version="1.0" encoding="UTF-8"?>
<svg width="61px" height="61px" viewBox="0 0 61 61" version="1.1" xmlns="http://www.w3.org/2000/svg" xmlns:xlink="http://www.w3.org/1999/xlink">
    <title>monkey-svgrepo-com</title>
    <g id="页面-1" stroke="none" stroke-width="1" fill="none" fill-rule="evenodd">
        <g id="形状库素材-动物" transform="translate(-242.000000, -236.000000)" fill="#545458" fill-rule="nonzero">
            <g id="monkey-svgrepo-com" transform="translate(242.064586, 236.335277)">
                <path d="M56.6482481,21.491959 C54.9962408,19.4599501 52.741231,18.3859454 50.1252195,18.3859454 C46.8882053,18.3859454 44.9291968,19.7339513 43.8561921,20.8659562 C42.5264919,22.282867 41.7844714,24.1518578 41.780183,26.0949791 C41.780183,29.503994 44.0201928,31.9800049 47.1082063,31.9800049 C48.6062129,31.9800049 50.0852193,31.2690018 51.0632236,30.0779966 C52.0942281,28.819991 52.4712298,27.1699838 52.1222283,25.4319762 C51.9181761,24.4115223 50.9257848,23.7494805 49.9052185,23.9529697 C49.4151378,24.0506857 48.9840412,24.3393016 48.7069722,24.7551865 C48.4299031,25.1710715 48.3296128,25.6800757 48.4282121,26.1699794 C48.5532126,26.7989822 48.4592122,27.3109844 48.1492109,27.6899861 C47.8312095,28.0769878 47.3892075,28.2139884 47.1082063,28.2139884 C45.6221998,28.2139884 45.5451995,26.4499807 45.5451995,26.0959791 C45.5451995,24.6329727 46.5102037,22.1549619 50.1242195,22.1549619 C51.609226,22.1549619 52.7872312,22.7179643 53.7252353,23.8719694 C56.7902487,27.6429859 56.6882482,36.5530249 55.2922421,43.2350542 C53.7362353,50.6900868 51.5212256,53.1200975 49.9342187,53.8441006 C49.099215,54.2261023 48.1502109,54.2641025 47.035206,53.9561011 C47.3782075,52.9410967 47.5902084,51.7830916 47.6652087,50.4690859 C48.3522117,38.4510332 42.3271854,32.2230059 36.769161,29.043992 C37.4331639,27.7639864 37.8431657,26.3869804 37.911166,24.9409741 C40.6341779,24.4309718 42.693187,22.0509614 42.693187,19.1889489 C42.693187,16.2689361 40.5491776,13.8549255 37.7481653,13.4119236 C37.0481622,8.6239026 34.2151498,5.29588803 29.4411289,3.40187973 C30.2541325,2.97187785 30.7831348,2.7558769 30.7831348,2.7558769 C28.4781247,1.94487335 26.480116,1.47287129 24.7501084,1.25787034 C25.6621124,0.572867344 26.270115,0.312866205 26.270115,0.312866205 C12.2110535,-1.67114248 5.28202313,6.14689175 4.84602122,13.4259236 C2.09300917,13.9089257 0,16.3019362 0,19.1879489 C0,22.0499614 2.05900902,24.4299718 4.77902093,24.9399741 C5.02602201,30.1949971 9.57304192,34.6150164 15.8460694,36.2800237 L10.1280444,54.6391041 C8.7680384,55.1241062 7.40503243,56.4201119 6.5300286,57.0601147 C5.80502542,57.588117 2,57.7051175 3.24901423,59.9991276 L11.4990504,59.9991276 C12.3790542,59.7111263 12.9350566,59.2151242 13.242058,58.6341216 L13.243058,58.6351216 L13.2860582,58.5521212 C13.2950582,58.5341212 13.3060583,58.5181211 13.3140583,58.499121 L23.520103,39.075036 C23.9251048,39.2190366 24.3711067,39.3560372 24.8731089,39.4870378 C21.1700927,40.8380437 20.1570883,48.5080773 21.2650931,55.8311093 C18.7780822,56.7711134 13.0780573,57.3161158 14.5200636,59.9991276 L26.4051156,59.9991276 C27.0541185,59.1181237 27.1001187,58.2221198 26.7651172,57.4561164 C26.0831142,52.790096 27.2861195,50.4680858 27.2861195,50.4680858 C26.937118,55.1551064 27.5401206,59.9991276 35.6611562,59.9991276 C39.8311744,59.9991276 42.9641881,59.183124 44.987197,57.2551156 C45.9582013,57.6221172 47.1402064,57.9311185 48.4242121,57.9311185 C49.4092164,57.9311185 50.4542209,57.7491177 51.5012255,57.2691156 C55.0042409,55.6661086 57.4522516,51.3270896 58.9802583,44.0010575 C60.4872649,36.792026 60.7782662,26.5709812 56.6482481,21.491959 M37.9271661,15.555933 C39.494173,16.032935 40.642178,17.4679413 40.642178,19.1889489 C40.642178,20.9609566 39.4231726,22.4389631 37.7811655,22.865965 C37.6003104,21.8383628 37.2623515,20.8447233 36.7791611,19.9199521 C37.4881642,18.5629461 37.8921659,17.0939397 37.9271661,15.555933 M12.4800547,57.8781183 C12.334054,58.3881205 11.9480523,58.7651222 11.3290496,58.9991232 L4.1340181,58.9991232 C4.48301963,58.7461221 5.37202353,58.501121 5.74502516,58.3991206 C6.32402769,58.2391199 6.7820297,58.1131193 7.12103118,57.8661182 C7.35003219,57.6981175 7.61403334,57.4861166 7.9010346,57.2541156 C8.7920385,56.5311124 10.1390444,55.4391076 11.1020486,55.4391076 C11.3310496,55.4391076 11.635051,55.4921078 11.9830525,55.9041097 C12.4560545,56.4661121 12.6560554,57.2601156 12.4800547,57.8781183 M4.9090215,22.865965 C3.2650143,22.4389631 2.04700896,20.9619566 2.04700896,19.1879489 C2.04700896,17.4669413 3.19401399,16.029935 4.76402086,15.554933 C4.80347431,17.0788939 5.1964755,18.5728461 5.91202589,19.9189521 C5.42302375,20.8529562 5.0920223,21.8409605 4.9090215,22.865965 M21.3430935,36.0030225 C15.5850683,36.0030225 10.9170478,32.4960071 10.9170478,28.1689882 C10.9170478,26.6919817 11.4700502,25.3169757 12.4150544,24.1379705 C9.17404018,22.1749619 7.10003109,19.1709488 7.10003109,15.798934 C7.10003109,3.74988126 21.3450935,11.4259149 21.3450935,11.4259149 C21.3450935,11.4259149 35.5911559,3.74988126 35.5911559,15.798934 C35.5911559,19.1699488 33.5151468,22.1749619 30.2711326,24.1379705 C31.2161367,25.3159757 31.7711391,26.6929817 31.7711391,28.1689882 C31.7711391,32.4960071 27.1021187,36.0030225 21.3430935,36.0030225 M25.8391132,58.9991232 L15.3700673,58.9991232 C15.8500694,58.3491204 18.032079,57.7791179 19.3620848,57.4331163 C20.2920889,57.1911153 21.1700927,56.9611143 21.8400956,56.6841131 C22.2699429,56.5044366 22.7312129,56.4119786 23.1971016,56.4121117 C24.3331066,56.4121117 25.4111113,56.9751143 25.8171131,57.7791179 C26.0181139,58.1741196 26.024114,58.5831214 25.8391132,58.9991232 M26.1711146,38.7670346 C25.4321696,38.6161392 24.7026061,38.4224793 23.986105,38.1870321 L24.7511084,36.7310257 C25.5534489,36.6018211 26.3474914,36.4255156 27.1291188,36.2030234 C33.4051463,37.7340301 35.2761545,43.9400573 35.8061568,48.1640758 C34.4271508,44.6450603 31.6031384,39.9200397 26.1711146,38.7670346" id="形状"></path>
                <ellipse id="椭圆形" cx="22.8721002" cy="23.2989669" rx="1" ry="1.46300641"></ellipse>
                <ellipse id="椭圆形" cx="19.8170868" cy="23.2989669" rx="1" ry="1.46300641"></ellipse>
                <ellipse id="椭圆形" cx="27.5241205" cy="18.3179451" rx="2.4900109" ry="3.20101402"></ellipse>
                <ellipse id="椭圆形" cx="15.1700664" cy="18.316945" rx="2.49101091" ry="3.20001401"></ellipse>
                <path d="M14.2820625,28.5969901 C13.8410606,29.6739948 16.9360742,31.8570043 21.3460935,31.8510262 C25.7541128,31.8590044 28.8501263,29.6749948 28.4091244,28.5969901 C27.9871226,27.4809852 14.7040644,27.4789852 14.2820625,28.5969901" id="路径"></path>
            </g>
        </g>
    </g>
</svg>
