<?xml version="1.0" encoding="UTF-8"?>
<svg width="61px" height="56px" viewBox="0 0 61 56" version="1.1" xmlns="http://www.w3.org/2000/svg" xmlns:xlink="http://www.w3.org/1999/xlink">
    <title>octopus-svgrepo-com</title>
    <g id="页面-1" stroke="none" stroke-width="1" fill="none" fill-rule="evenodd">
        <g id="形状库素材-动物" transform="translate(-635.000000, -404.000000)" fill="#545458" fill-rule="nonzero">
            <g id="octopus-svgrepo-com" transform="translate(635.171925, 404.461678)">
                <path d="M59.7733255,38.6826347 C59.8163815,38.6015182 59.8637192,38.5242079 59.9039206,38.4407126 C60.01834,38.2040239 59.7050545,38.0232365 59.5535261,38.2358996 C56.889529,41.9801013 51.8246279,42.4013834 49.447036,38.2851403 C48.4224949,36.5110453 48.0547353,34.4774252 46.9595444,32.7480512 C45.6926055,30.747734 43.7898184,29.6028266 41.5618519,29.1192203 C49.7819684,18.0964237 43.2721956,0.0319587129 28.3919672,4.13487558e-05 C23.7012484,-0.00990783743 19.7453352,1.77631902 16.792554,4.57543094 C16.0753514,4.86825892 15.4271335,5.43417098 14.9661257,5.99270882 C14.5396102,6.50961799 14.0369738,7.31055365 13.9344483,8.07652122 C10.4062399,13.7011495 9.82986121,21.2682906 13.4341906,27.4464613 C9.37598974,27.0149504 6.20317129,29.9627362 5.68340758,34.017131 C5.34657215,36.642354 6.32448913,39.238318 5.52283984,41.8590213 C4.81610393,44.1688179 3.00299684,45.6201124 1.75461243,47.5709509 C0.304031611,49.8381673 -0.510463096,51.7228757 0.354461774,54.3414382 C0.446044853,54.6190419 0.780025743,54.5869284 0.882789094,54.384732 C0.941307114,54.3785471 0.996019083,54.355473 1.02789475,54.2921974 C3.2905915,49.7689448 8.29530941,49.4920547 11.7512028,46.4005905 C15.4226139,43.1164451 13.8944848,35.8911349 18.6054232,33.8085119 C18.9177572,35.2338776 19.7508064,36.6311737 20.4701498,38.1685801 C22.3272644,42.136863 20.6968477,44.9159931 20.2455929,48.6808902 C20.0488677,50.3212978 20.2674777,51.3196723 21.2527689,52.6477459 C21.4230896,52.8772983 21.7256706,52.8328151 21.8631641,52.667014 C21.8672081,52.6658246 21.8683975,52.6658246 21.8724414,52.6646352 C22.0101728,52.6218172 22.0130274,52.4507828 21.9143079,52.3825118 C21.9045549,52.3499225 21.8976565,52.3175711 21.8764853,52.2833166 C21.8700626,52.27285 21.8662566,52.2621454 21.8600717,52.2516788 C22.1892951,51.7714029 24.4684054,49.5960074 24.5649839,49.516794 C25.5338615,48.7232326 26.5762435,48.0091224 27.4835107,47.1408672 C28.6074848,46.0649445 29.5951548,44.8631842 30.1382306,43.3911943 C30.4365297,42.5824087 30.5231174,41.8414183 30.4705463,41.1439597 C30.5402446,41.7410338 30.6527609,42.2986201 30.8618558,42.7753279 C32.7544142,47.0961462 36.482916,49.163545 34.3667521,54.7265628 C34.3282159,54.827661 34.3579507,54.9163896 34.4162308,54.9844227 C34.4264596,55.1311935 34.5737061,55.2710659 34.7511632,55.1866191 C37.7857745,53.7412716 40.1412437,51.1805136 40.4390671,47.6958369 C40.8615386,42.7527294 36.0145339,39.9638463 37.1829913,34.9600799 C38.9744515,35.2942986 41.7721361,38.8087101 42.3561269,40.2409743 C42.6717912,41.0150297 42.8199893,41.8521228 43.1558732,42.6261783 C43.5110252,43.4454305 43.9358756,44.2627798 44.4727665,44.9790308 C46.0182607,47.0404827 48.2433727,48.226543 50.8300594,48.2933868 C56.1473492,48.4306425 59.7916421,43.9730442 60.0004533,38.9295522 C60.0057324,38.789442 59.893454,38.7014271 59.7733255,38.6826347 Z M27.8032189,32.8453433 C30.9501086,34.1177534 30.127526,38.1559725 30.4684054,41.1261188 C30.2376636,38.2078299 27.5872255,36.0419496 27.8032189,32.8453433 Z M48.9579586,47.2464851 C44.5312845,45.8855844 43.9125635,41.7536413 42.5818733,38.0662925 C41.6286956,35.4246559 39.8384248,34.179126 37.1090112,34.4507828 C36.9436859,34.3209013 36.6553776,34.3415967 36.5714066,34.6061172 C36.2233909,35.701546 36.0849459,36.7451173 36.1770047,37.7668039 C36.0825671,37.4977637 35.8948812,37.2655947 35.6855485,37.0607816 C35.5285489,36.9073502 35.2580815,36.8588231 35.0665896,36.9808546 C34.7604404,37.1759146 34.6001106,37.4839668 34.5706137,37.8020099 C34.5204214,38.0260911 34.5249411,38.2575465 34.6310347,38.4742534 C34.8037343,38.8270267 35.184815,39.0544382 35.5773139,38.9776036 C35.9583947,38.9029098 36.2091182,38.5620305 36.2383772,38.1833285 C36.3727784,39.0634776 36.6715533,39.9314949 37.1696701,40.8052212 C37.2864683,41.0100343 37.4035043,41.2081868 37.5203025,41.4063392 C37.0945006,41.0521387 36.5067038,40.723629 36.0328505,41.0126509 C35.4431507,41.3725605 35.6527213,42.2198824 35.8787055,42.7341749 C36.0107279,43.0350908 36.2129243,43.3490899 36.4631721,43.612421 C36.7876378,44.0539228 37.2583987,44.5120761 37.7741184,44.5820122 C38.4066364,44.6676484 38.7242037,44.0660546 38.6989886,43.5129879 C39.2656143,44.6576575 39.6576374,45.849189 39.6014982,47.3278395 C39.5805649,47.299532 39.5660544,47.2678942 39.5410772,47.2414897 C39.4161911,47.1080401 39.2656143,47.0364388 39.108139,47.0071797 C38.9528046,46.8901437 38.7644051,46.8275818 38.5329497,46.866118 C38.5262891,46.8673074 38.5222451,46.8713513 38.5155846,46.8725407 C38.3909364,46.7830985 38.2201399,46.7792925 38.1254644,46.9634102 C37.8131304,47.5695236 37.6278234,48.5246043 37.8381077,49.192804 C38.0198465,49.7703721 38.5341391,49.7851205 38.9539939,49.5591363 C39.0562815,49.5239303 39.1504813,49.4666017 39.2351659,49.3876262 C38.5598299,51.4742931 37.0421674,53.1284976 35.1724454,54.3649881 C37.2838516,49.1183481 32.5945601,46.04639 31.3602105,41.2150852 C30.6304004,38.3593583 31.9520513,32.8458191 27.765872,32.309166 C27.6031634,32.0767591 27.1240768,32.0750939 27.0641315,32.4176384 C26.2860322,36.8578716 31.3459378,39.5059309 28.6786104,44.1281408 C27.0536649,46.944142 22.9210082,48.6666176 21.5089636,51.536855 C20.3609638,48.6452085 22.4542913,45.4731037 22.491876,42.4870196 C22.6062954,42.5821708 22.7266618,42.6718509 22.857019,42.7503507 C23.1581727,42.9325653 23.4778809,42.7429764 23.5930139,42.4511 C23.8546798,41.7867064 23.8159057,41.0492842 23.5337822,40.3970223 C23.305895,39.8703602 22.7782813,39.1051062 22.1352967,39.1112911 C22.0306304,39.1122426 21.9419018,39.1317486 21.8645914,39.1631485 C21.8096416,39.1652894 21.7570705,39.1819409 21.7083055,39.2102484 C20.9045153,37.2977082 19.7244019,35.3409228 19.372818,33.404119 C19.4686829,33.2430756 19.4313361,33.029461 19.3005031,32.904575 C19.2065412,31.983273 19.3188197,31.067918 19.7891048,30.1663599 C19.9280256,29.9001742 19.5552706,29.6853703 19.388518,29.9322878 C18.6601352,31.0124924 18.4286797,32.012532 18.4876735,32.9854535 C13.3483166,34.8102167 14.8174519,41.8868531 11.5092808,45.3746222 C8.2715216,48.7881733 2.8631245,49.128339 0.8413983,53.685846 C0.470784178,50.8531933 2.00961778,48.7091977 3.58484674,46.559731 C3.38717002,46.9217815 3.2568128,47.3256986 3.20923718,47.7360383 C3.16427821,48.1233039 3.64931171,48.31432 3.9409503,48.1561311 C4.7152436,47.7362762 5.14223484,46.9341512 5.17648929,46.069702 C5.17981958,45.9871583 5.15127421,45.9119888 5.11487885,45.8418148 C5.12058793,45.6279624 4.85083413,45.4286205 4.61676206,45.5399475 C4.61105298,45.5425641 4.60748481,45.5473217 4.60177573,45.5501762 C4.52660625,45.5558853 4.45072312,45.5677792 4.38292786,45.6144033 C4.27564482,45.6879076 4.18477538,45.7685483 4.10009076,45.8520436 C4.76448437,44.9328825 5.39985685,43.9996866 5.85872376,42.9972682 C5.9605356,43.1021724 6.10468974,43.1763904 6.31378461,43.1992267 C6.88754666,43.2620265 7.42086942,42.8495458 7.7006141,42.380688 C7.98297543,41.9073106 8.23060656,41.0813977 8.04220709,40.5392735 C7.88425601,40.0851641 7.49080559,39.9364903 7.11210361,40.0299764 C7.00862662,39.9921538 6.88635727,40.0054749 6.78502118,40.1025292 C6.72126985,40.163426 6.6434837,40.2550091 6.55927484,40.368477 C6.67202907,39.0534867 6.50242197,37.7439676 6.49932955,36.4118501 C6.49742653,35.5645282 6.57663994,34.7600244 6.73102285,34.0054749 C7.24127143,34.077552 7.90709231,33.7949528 8.29388214,33.4983188 C9.42570627,32.6303015 10.1950041,31.3973792 10.5439713,30.0205406 C10.5820318,29.8704395 10.5480153,29.6798991 10.4526261,29.5405025 C10.4547671,29.537648 10.4576216,29.5374101 10.4597625,29.5343177 C10.4790306,29.5045829 10.4980609,29.4748481 10.517329,29.4451134 C10.5958288,29.3235577 10.554438,29.1770247 10.4695155,29.074975 C10.4031475,28.9955237 10.3220311,28.9486617 10.2387737,28.907033 C11.2097922,28.3668118 12.3632633,28.0226022 13.7134595,27.9298297 C13.9425362,28.2954484 14.1861234,28.6558337 14.4456484,29.0100343 C14.6433251,29.280026 15.0736466,29.047619 14.9038017,28.7421835 C11.832795,23.2207943 10.6479241,16.9650753 13.2938425,11.0150297 C13.5624069,10.4110572 13.8754545,9.8265906 14.2163339,9.25758612 C14.7598854,9.91056158 15.8208218,9.52329598 16.4866427,9.10130019 C17.5159414,8.44927624 18.3275815,7.48444256 18.7900166,6.35737599 C19.0861749,5.63565375 19.0980688,4.7433729 18.3737299,4.53808407 C21.0336831,2.43857172 24.2947544,1.10859512 27.7123494,1.01011357 C28.7031118,0.981568196 29.6893545,1.05673768 30.6598973,1.2154024 C30.5205007,1.42830332 30.4681675,1.70662073 30.6135111,2.02490166 C31.158252,3.21667108 32.8528957,3.93006758 34.0743999,4.01451432 C34.8912734,4.07112931 35.6869757,3.60988362 35.7628589,2.9597627 C38.3076791,4.33398464 40.4916382,6.37307595 41.963628,8.90124468 C45.7820477,15.4593068 44.5208179,22.8601711 40.8077782,28.9762556 C40.2247389,28.89728 39.9709229,29.7864685 40.5651425,29.8787652 C44.4832331,30.4879711 45.7199615,32.6576575 46.9657293,35.3904014 C46.519232,35.2938229 46.0779681,35.6451689 46.0525151,36.1351978 C46.0199258,36.7598658 46.611053,37.501094 47.1660227,37.7361176 C47.4657491,37.8629067 47.7809376,37.8343613 48.0242869,37.6911586 C48.1118261,37.8707566 48.1988895,38.0503546 48.2926135,38.2318556 C49.0445462,39.6919516 50.024842,40.872065 51.5439317,41.5788009 C51.7442251,41.6720491 51.9459457,41.752214 52.1474285,41.8231017 C51.7896598,42.0074573 51.6807116,42.6466358 52.0915272,43.017012 C53.0071201,43.8424491 54.7648015,43.8752763 55.8835424,43.5755499 C56.2769928,43.4701699 56.7625021,43.290334 56.8531336,42.833608 C56.9399591,42.396388 56.6392812,42.0695435 56.2596277,41.9237242 C56.2015854,41.9013636 56.1337902,41.8930379 56.0724176,41.8756728 C57.4016806,41.4358361 58.5770364,40.5385598 59.4079447,39.2935057 C58.4400186,44.110062 54.4196404,48.9256668 48.9579586,47.2464851 Z" id="形状"></path>
                <path d="M24.1001701,4.16009573 C24.1396578,3.96955535 24.0740035,3.76498016 23.9450735,3.62296692 C23.9179554,3.52757779 23.8720449,3.43647047 23.7873603,3.36177674 C23.4626567,3.07513359 23.0140185,3.22927862 22.6781346,3.40007511 C22.0018471,3.74357113 21.0795936,4.48027969 20.9014229,5.26408812 C20.6973234,6.16279168 21.6326602,6.36689112 22.3027629,6.18705525 C22.5473016,6.20775065 22.80421,6.14280992 23.0080716,6.01863754 C23.4945323,5.72247927 23.9912219,5.02145243 24.0273793,4.37656483 C24.0490263,4.30329836 24.084708,4.23526522 24.1001701,4.16009573 Z" id="路径"></path>
                <path d="M30.0525944,5.07093108 C29.944122,4.4507828 29.2842481,4.14534729 28.7171466,4.07969292 C28.5030563,4.0549536 28.3008599,4.0984853 28.1293498,4.18388354 C27.9578396,4.22527434 27.7991749,4.31114834 27.6711965,4.4583949 C27.3391186,4.67200946 27.2698961,5.1108946 27.4290366,5.4905481 C27.6821389,6.09380703 28.3872097,6.35808963 29.0066443,6.27126411 C29.5982472,6.18848252 30.1663002,5.721052 30.0525944,5.07093108 Z" id="路径"></path>
                <path d="M9.48327278,36.2672202 C9.49112276,36.1646947 9.45544104,36.0766798 9.40501088,35.9972285 C9.40382149,35.9173015 9.41619115,35.8376123 9.40786541,35.758161 C9.36504735,35.3590015 8.98539386,35.0859174 8.60264795,35.2959638 C8.15781586,35.5402646 7.88806206,36.0062679 7.84690914,36.4905877 C7.66731116,36.9052093 7.62473097,37.4023746 7.69371563,37.8098598 C7.76198665,38.213539 8.27033221,38.2449389 8.52676483,38.0298971 C8.71801884,37.8693294 8.87121236,37.6754587 9.00299684,37.4677911 C9.29415967,37.1135906 9.44735318,36.7341749 9.48327278,36.2672202 Z" id="路径"></path>
                <path d="M24.0770959,45.9521902 C24.11587,45.6631683 24.1092094,45.3646313 24.0414142,45.0672836 C23.9529235,44.6795423 23.4590885,44.5943819 23.1917135,44.8429645 C23.02282,44.9999641 22.8995991,45.1824166 22.7985009,45.3743843 C22.3560476,45.905804 22.1928632,46.6420368 22.1493315,47.3123774 C22.125068,47.6889385 22.5687107,47.8868531 22.8677235,47.7246202 C23.3515676,47.4620027 23.7064818,47.0549932 23.9091539,46.5813779 C24.0254763,46.3808466 24.0897034,46.1591442 24.0770959,45.9521902 Z" id="路径"></path>
                <path d="M22.0061289,35.0038494 C21.8648293,34.4474525 21.2308841,33.9904886 20.7232522,34.1874517 C20.565539,34.140114 20.3818971,34.1803154 20.3010185,34.3475437 C19.9834512,35.0040873 20.2065809,35.9161121 20.86027,36.2957656 C21.1816433,36.4824999 21.6050664,36.4439636 21.8500809,36.1516114 C22.1126983,35.8378502 22.1019938,35.3818378 22.0061289,35.0038494 Z" id="路径"></path>
                <path d="M44.8060338,32.3722037 C44.4040197,31.7651387 43.786726,31.1464177 43.0835582,30.9042578 C42.4272525,30.6782736 41.8004436,31.0448438 41.5956305,31.663089 C41.4878718,31.7608569 41.4138917,31.8966854 41.411275,32.0458349 C41.1324818,33.0544382 42.6066126,34.1848351 43.4006498,34.5159614 C43.9694164,34.7531259 44.9511394,35.0821114 45.3027233,34.3518255 C45.5926967,33.7495181 45.1343056,32.8679417 44.8060338,32.3722037 Z" id="路径"></path>
                <path d="M22.5706137,19.5990998 C22.8025449,19.042465 22.7732859,18.3549972 22.5608607,17.8164411 C22.425508,17.4724694 22.1950041,17.0897235 21.7920386,17.0354872 C21.3253217,16.9724495 21.0900602,17.3473455 20.9520909,17.7284262 C20.6920901,18.447056 20.4837089,19.7161359 21.3065293,20.1633467 C21.5353681,20.287757 21.7449387,20.317016 21.9266776,20.279907 C22.0004198,20.2803828 22.0743999,20.2634934 22.1379134,20.2102087 C22.1481421,20.2016451 22.1550406,20.1907027 22.1650315,20.1819012 C22.3622325,20.059394 22.4992503,19.8457794 22.5706137,19.5990998 Z" id="路径"></path>
                <path d="M35.8798949,16.5485507 C35.8344602,16.4431707 35.7523922,16.3870315 35.661047,16.3506361 C35.5663715,16.1826942 35.3403873,16.0958686 35.1674499,16.2733257 C34.6629104,16.7911864 34.415755,17.4560558 34.4029096,18.1770644 C34.3926809,18.7503507 34.5337426,19.6466754 35.1674499,19.8591006 C35.8706177,20.0948378 36.2807196,19.2684492 36.3580299,18.7115765 C36.4626963,17.9534589 36.1746259,17.2312609 35.8798949,16.5485507 Z" id="路径"></path>
                <path d="M30.3661178,20.504464 C30.2890453,20.0936484 29.6137093,20.0938863 29.5363989,20.504464 C29.4800218,20.8032389 29.4669385,21.15625 29.2285846,21.3810449 C28.8398917,21.7478529 28.070356,21.556361 28.2333025,20.9093325 C28.3501007,20.3703007 27.5458347,20.1405104 27.4021563,20.680018 C27.3272247,21.0496806 27.2051932,21.9697932 26.4732423,21.5309081 C26.093113,21.302783 26.2303687,20.4730641 26.2510641,20.1122029 C26.2703322,19.7770327 25.7750699,19.7311222 25.6818217,20.0351304 C25.4108785,20.9193234 25.4601193,22.1905441 26.5534072,22.4726676 C27.0922011,22.6118263 27.4787531,22.3896481 27.7525508,22.0323552 C28.0292031,22.3358877 28.4245565,22.5318992 28.8767628,22.5038296 C29.8463541,22.4434086 30.5373901,21.4186296 30.3661178,20.504464 Z" id="路径"></path>
            </g>
        </g>
    </g>
</svg>
