<?xml version="1.0" encoding="UTF-8"?>
<svg width="60px" height="44px" viewBox="0 0 60 44" version="1.1" xmlns="http://www.w3.org/2000/svg" xmlns:xlink="http://www.w3.org/1999/xlink">
    <title>9</title>
    <g id="页面-1" stroke="none" stroke-width="1" fill="none" fill-rule="evenodd">
        <g id="4、动物" transform="translate(-720.000000, -93.000000)" fill="#545458">
            <path d="M768.877039,98.494054 C770.607148,99.1913025 772.244706,100.054256 773.794514,101.084262 C774.327188,101.438253 774.780405,101.872197 775.185808,102.37035 L775.384672,102.624705 C776.116376,103.597829 776.92248,104.515718 777.708484,105.447378 C777.986472,105.776917 778.351284,105.97042 778.754482,106.101492 L778.92949,106.154057 C779.627293,106.347904 779.958795,106.773617 779.998695,107.490625 C780.003495,107.577145 779.995695,107.668754 779.971995,107.751831 C779.907945,107.977112 779.774744,108.028006 779.572393,107.909153 C779.421192,107.820298 779.308776,107.69159 779.215636,107.54993 L779.149091,107.441677 C779.02759,107.231664 778.869789,107.083323 778.632188,107.020454 C777.195931,106.640994 776.218676,105.683287 775.394722,104.507635 C774.97967,103.915318 774.497567,103.369554 774.038865,102.808223 C773.938965,102.686077 773.821364,102.571565 773.692513,102.480854 L772.90725,101.936823 C771.854506,101.221714 770.772796,100.557874 769.589416,100.06772 L769.140741,99.8922931 C768.178936,99.5387292 767.259131,99.0758927 766.261326,98.8127406 C765.658023,98.6537715 765.05022,98.5828192 764.427867,98.549289 C761.118551,98.3705611 758.034685,99.2315687 755.09227,100.629508 C752.788109,101.724179 750.895699,103.373596 749.277491,105.334962 C748.93999,105.744061 748.629338,106.175463 748.302637,106.593692 C747.819634,107.212204 747.447332,107.889395 747.180331,108.627658 C747.03033,109.042594 746.865629,109.453488 746.685478,109.8563 C746.104826,111.154547 745.833024,112.548296 745.412872,113.89594 C745.363822,114.053263 745.421122,114.168972 745.478872,114.296357 C745.648673,114.670128 745.646873,115.048092 745.511873,115.431743 C745.136421,116.498722 744.716569,117.5419 744.166816,118.538675 C743.378562,119.9676 742.253256,121.036525 740.816849,121.763861 C739.668443,122.34525 738.481037,122.250497 737.338182,121.695303 C736.860429,121.463286 736.617428,121.026196 736.528778,120.513514 C736.381777,119.664331 736.414927,118.827124 736.701729,118.003389 C736.925605,117.360478 737.194689,116.739292 737.54058,116.15733 L737.757584,115.812999 C738.290086,115.015759 738.698988,114.151159 739.119441,113.297636 C739.631243,112.259098 739.635893,111.130148 739.359292,110.031585 C739.223091,109.490312 738.855289,109.02523 738.378887,108.679899 C738.192286,108.544431 738.059835,108.562992 737.952885,108.767317 C737.903835,108.861321 737.841884,108.949338 737.800484,109.046336 C737.132381,110.609831 735.861274,111.501675 734.325867,112.034415 C733.02866,112.484379 732.233806,113.371582 731.767004,114.605014 C731.506028,115.294104 731.430207,115.985836 731.714816,116.676981 L731.801504,116.865458 C731.948625,117.154656 732.050241,117.464451 732.136306,117.779055 L732.240107,118.164908 C732.250107,118.227824 732.235842,118.284889 732.145756,118.330907 C732.013605,118.398566 731.901555,118.345128 731.811254,118.250824 C731.603353,118.033926 731.398602,117.813734 731.198651,117.58965 C730.865949,117.216328 730.488247,116.901832 730.046345,116.663379 C729.108391,116.157133 727.537583,116.039178 726.494027,117.061999 C725.520823,118.015963 724.540568,118.961993 723.615063,119.962361 C723.236611,120.371609 722.789009,120.679518 722.296256,120.930545 C721.978105,121.092658 721.648853,121.212409 721.287801,121.233664 C721.182651,121.239951 721.073,121.250429 720.97535,121.286055 C720.702049,121.385748 720.658998,121.554596 720.858799,121.762214 C721.05695,121.968185 721.284651,122.135387 721.577003,122.189574 C722.365137,122.335341 723.039789,122.668799 723.649512,123.181763 L723.850414,123.359389 C724.733319,124.178334 725.827724,124.480106 727.03583,124.42517 C727.966135,124.382808 728.854439,124.140313 729.743794,123.914733 C730.524098,123.716845 731.248001,123.793785 731.959155,124.135224 C732.232606,124.2665 732.498857,124.420081 732.674208,124.671707 C733.102611,125.286477 733.657613,125.778353 734.182616,126.303909 C734.98287,127.104891 735.751474,127.938656 736.586078,128.704461 C737.641933,129.673544 738.744289,130.588739 739.933645,131.394362 L740.201735,131.567113 C740.245813,131.596674 740.288896,131.627476 740.329947,131.660807 C741.737254,132.803827 743.291711,133.721267 744.879469,134.581227 C746.261214,135.329731 747.734213,135.81196 749.286104,136.029181 L749.88888,136.103205 C750.023853,136.111595 750.141811,136.077362 750.175096,135.836364 C750.200746,135.651798 750.492947,135.641021 750.623448,135.43475 L749.935711,135.555299 L749.605543,135.609437 C749.325792,135.652696 749.04499,135.701345 748.762989,135.716913 C748.257786,135.745054 747.847834,135.65105 747.903335,134.897369 L747.924937,134.624476 C747.955718,134.310254 748.020235,134.013941 748.267686,133.770964 C748.785397,133.262484 748.976549,132.682324 748.894942,131.973147 L748.868889,131.793131 C748.727589,130.977779 749.105291,130.452073 749.863994,130.156888 L749.923228,130.206163 C749.930711,130.213304 749.935145,130.219158 749.933745,130.222601 C749.687743,130.818361 749.765294,131.437771 749.836844,132.043859 C749.919495,132.744251 749.638693,133.280285 749.190491,133.766024 L748.778739,134.179913 L748.671222,134.295522 C748.541968,134.445475 748.548529,134.519882 748.579088,134.924163 C749.254691,134.807556 749.949795,134.822525 750.592098,134.540961 C751.682753,134.063006 752.724209,133.492693 753.636363,132.725241 C754.93627,131.631618 755.858024,130.26631 756.420677,128.663297 C756.637878,128.044934 756.627828,127.411603 756.517278,126.777972 C756.436577,126.315585 756.174226,126.025489 755.688523,125.934927 C754.897419,125.787334 754.217166,126.047792 753.593913,126.487427 C753.129661,126.814945 752.738009,127.22569 752.395857,127.682988 C752.120606,128.050922 751.832004,128.409276 751.539953,128.764187 C751.473152,128.845418 751.396552,128.919863 751.316196,128.989695 L751.193601,129.091256 C751.0859,129.177028 750.9629,129.286899 750.814249,129.202624 C750.637998,129.102782 750.683748,128.923755 750.722449,128.773617 C750.770599,128.586507 750.832699,128.399397 750.9164,128.225459 C751.397152,127.226289 752.022205,126.328458 752.883059,125.619384 C753.641163,124.995183 754.494967,124.587732 755.514673,124.698202 C756.561678,124.811815 757.07978,125.324797 757.276281,126.366928 C757.503233,127.569374 757.299381,128.725418 756.91703,129.859457 C756.441377,131.269971 755.568673,132.410596 754.445617,133.382972 C754.579418,133.491945 754.670018,133.360219 754.749219,133.304236 C754.99432,133.130747 755.237771,132.950672 755.458122,132.747544 C756.646128,131.652574 757.693883,130.432763 758.651638,129.134666 C758.777189,128.96447 758.889839,128.783347 758.99484,128.59953 C759.713794,127.341549 760.429147,126.081622 761.145401,124.822293 C761.180351,124.760921 761.207051,124.693711 761.248451,124.637279 C761.335002,124.519474 761.435952,124.415889 761.602153,124.477262 C761.792504,124.547466 761.814554,124.70404 761.770904,124.869894 C761.721704,125.057005 761.668303,125.246361 761.587003,125.421197 C760.861899,126.979453 760.031645,128.475738 758.95809,129.827573 L758.697932,130.162969 L758.447787,130.505662 C758.181536,130.884373 757.884234,131.240781 757.525883,131.528033 C756.724279,132.171244 755.988075,132.887802 755.206121,133.550473 C754.205901,134.397859 753.099246,135.085683 751.883096,135.580663 L751.473652,135.738468 C751.178151,135.846094 750.888799,135.970335 750.596298,136.167175 C750.742099,136.173911 750.887749,136.18409 751.03355,136.186934 C752.663458,136.219267 754.296066,136.252198 755.922675,136.165229 C757.955635,136.056705 759.985745,135.87214 761.946405,135.256322 C762.217906,135.170999 762.476207,135.078043 762.709159,134.903656 C762.876259,134.778367 763.07186,134.667298 763.271961,134.61326 C764.135366,134.379747 764.875619,133.874099 765.696423,133.548228 C765.905135,133.46542 766.095161,133.348286 766.278719,133.221075 L766.640828,132.960401 C766.94263,132.743204 767.242631,132.525108 767.564983,132.339195 C768.364337,131.878304 769.118991,131.363825 769.745994,130.673462 C770.066845,130.320198 770.453097,130.03085 770.847449,129.759166 C771.511203,129.302017 771.985655,128.649077 772.568858,128.108253 C773.03521,127.675504 773.491512,127.22554 773.901315,126.7404 C774.475217,126.060815 774.850369,125.249504 775.231671,124.456006 C776.258726,122.319953 777.109531,120.118336 777.752734,117.8302 C778.018085,116.886265 778.132536,115.926762 778.289286,114.974744 C778.424287,114.153853 778.631888,113.351673 778.781439,112.536171 C778.890639,111.940711 778.846389,111.336718 778.94614,110.742605 C779.01064,110.358654 779.07439,109.975152 779.192741,109.604674 C779.240441,109.455734 779.320542,109.31368 779.405892,109.181205 C779.476542,109.071484 779.593843,109.011908 779.728544,109.059958 C779.832344,109.096961 779.889968,109.172188 779.908943,109.270848 L779.917057,109.375482 L779.917395,109.401846 C779.859494,110.44233 779.973345,111.487754 779.833244,112.525693 C779.644393,113.925129 779.450742,115.323818 779.255891,116.722506 C779.233991,116.879529 779.206241,117.038648 779.156591,117.188785 C778.751889,118.412787 778.351087,119.637687 777.831934,120.820973 C777.05088,122.601217 776.169626,124.331016 775.250421,126.043152 C774.94622,126.61 774.579532,127.12516 774.141668,127.588161 L773.916765,127.815312 C773.687263,128.036702 773.467962,128.265126 773.280761,128.525734 C770.830799,131.936084 767.612383,134.300561 763.630163,135.661229 C761.176451,136.499484 758.660038,136.90454 756.077325,136.977439 C753.575313,137.048092 751.0787,136.960823 748.601888,136.609056 C746.626678,136.32854 744.730669,135.771549 743.05966,134.616104 C742.857759,134.476445 742.630358,134.36867 742.404757,134.268827 C741.507303,133.871405 740.713499,133.312019 739.933645,132.727187 C738.382787,131.563977 736.921163,130.298769 735.522948,128.960743 L734.582518,128.049687 C734.469417,127.936822 734.361717,127.819878 734.269916,127.691969 C733.690163,126.883502 732.97151,126.197181 732.320507,125.452332 C731.780804,124.834867 731.03485,124.675748 730.241796,124.79011 C729.874894,124.8431 729.529893,124.996381 729.189691,125.148913 C727.859934,125.745122 726.503478,125.841971 725.100821,125.408922 C724.365067,125.181785 723.709139,124.835825 723.177433,124.30295 L723.00486,124.118309 C722.644577,123.706778 722.23158,123.401945 721.733513,123.224366 L721.514753,123.156112 C720.9308,122.99879 720.529998,122.615288 720.211546,122.130447 C719.783294,121.478105 720.025545,120.726969 720.754699,120.436424 C720.841799,120.401696 720.932233,120.371426 721.023911,120.348629 L721.162101,120.320416 C721.933855,120.19827 722.529208,119.770311 723.07086,119.244006 C723.782614,118.552596 724.425517,117.798466 725.08717,117.061101 C725.358822,116.758431 725.645173,116.468485 725.932725,116.180634 C727.137231,114.975193 729.03054,114.9719 730.286496,115.568408 C730.409947,115.627086 730.508498,115.751178 730.693748,115.723186 C730.656848,114.872058 730.878699,114.07856 731.344002,113.368887 C731.970405,112.413576 732.788209,111.683845 733.904365,111.32624 C734.479617,111.141824 735.00102,110.840501 735.523323,110.539777 C736.444027,110.009581 736.94743,109.134203 737.453382,108.26152 C737.716034,107.808862 737.930535,107.696895 738.444437,107.808862 C738.897889,107.907657 739.245891,108.162726 739.537643,108.512847 C740.111546,109.201563 740.412297,109.985331 740.476347,110.883911 C740.559448,112.048636 740.351697,113.116662 739.726944,114.125712 C739.364467,114.711293 739.019709,115.307483 738.653498,115.891296 L738.278686,116.470131 C737.720234,117.301201 737.344782,118.20966 737.256881,119.220206 C737.238281,119.433063 737.238131,119.644123 737.275631,119.854136 C737.422932,120.679668 737.647783,120.854653 738.467837,121.033381 C739.882794,121.341889 740.9937,120.845373 741.961055,119.85713 C742.366432,119.442992 742.724517,118.997981 743.030362,118.511269 L743.207561,118.21415 C743.389962,117.891123 743.591863,117.579172 743.787014,117.263479 C744.087255,116.778085 744.289446,116.275958 744.233934,115.701556 L744.205666,115.507335 C744.141466,115.176973 744.174016,114.832241 744.332717,114.522835 C744.402355,114.387217 744.429298,114.245874 744.447277,114.102784 L744.463517,113.959258 C744.717769,111.653309 745.405372,109.47205 746.358477,107.365934 C746.875829,106.222615 747.664383,105.261915 748.471537,104.326063 C749.998695,102.555399 751.777704,101.072287 753.867814,100.003212 C756.772129,98.5177048 759.841144,97.6176286 763.129311,97.5652377 L763.413279,97.5617227 C763.460462,97.559799 763.507463,97.5564559 763.554113,97.5505682 C765.427022,97.3146593 767.163881,97.8036912 768.877039,98.494054 Z M766.895904,117.445734 C767.013655,117.443879 767.038267,117.510315 767.048678,117.582637 L767.059405,117.668252 C767.220656,118.585243 767.137706,119.502084 767.014555,120.41204 C766.770204,122.215934 766.170951,123.903371 765.274546,125.487973 C765.074745,125.841237 764.869694,126.194951 764.710394,126.566777 C764.07979,128.039411 763.150386,129.330473 762.263431,130.648928 C761.878101,131.221551 761.369341,131.6754 760.88744,132.155831 L760.649423,132.398935 C759.598463,133.505132 758.397751,134.402261 757.07005,135.130807 L756.493116,135.435722 C756.315273,135.524503 756.122476,135.591414 755.861249,135.50946 L757.291056,134.473017 C758.224661,133.805108 759.122566,133.103967 759.95042,132.296997 C760.997275,131.276422 761.848229,130.136096 762.651633,128.91868 C763.520438,127.601872 764.225291,126.201387 765.031995,124.85524 C765.205396,124.565743 765.311447,124.247056 765.405947,123.924178 C765.914543,122.189121 766.356874,120.439395 766.636572,118.65374 L766.746204,117.886198 C766.766454,117.729624 766.789704,117.572002 766.895904,117.445734 Z M761.186426,134.573039 C761.227676,134.637255 761.201726,134.710603 761.149826,134.76464 C760.903525,135.020458 760.633973,135.242745 760.286271,135.351119 C759.94892,135.45635 759.602718,135.505598 759.199516,135.54287 C759.350417,135.242446 759.588318,135.197988 759.800119,135.137364 C760.160571,135.034229 760.500473,134.904449 760.777824,134.641896 C760.827924,134.594445 760.892274,134.559567 760.954675,134.527684 C761.040925,134.483675 761.131076,134.486519 761.186426,134.573039 Z M771.228391,114.924793 C771.378392,114.916111 771.449792,115.032419 771.475442,115.154565 C771.511593,115.326407 771.525843,115.503638 771.539943,115.679223 C771.746044,118.236349 771.254041,120.664295 770.190686,122.989554 C769.735884,123.984383 769.294731,124.985499 768.858079,125.988411 C768.631078,126.509825 768.339677,126.993186 768.03752,127.470159 L767.582923,128.184788 C767.198921,128.798511 766.784319,129.393522 766.411417,130.013681 C766.115466,130.505856 765.747064,130.92199 765.306062,131.286331 C764.92476,131.601276 764.543308,131.920561 764.197406,132.272778 C763.731804,132.746542 763.185201,133.091573 762.536448,133.343798 C763.03445,132.802525 763.528853,132.257959 764.031805,131.721326 C764.358057,131.373151 764.690908,131.030514 765.03171,130.69641 C765.317552,130.416313 765.560577,130.109583 765.759864,129.767638 L765.901115,129.504441 C765.989015,129.326012 766.094515,129.155368 766.205349,128.988249 L766.374067,128.739683 C767.145671,127.616122 767.839874,126.449152 768.347777,125.181441 C768.631578,124.473115 769.03403,123.829156 769.395982,123.162893 C770.134636,121.80351 770.542554,120.344636 770.715289,118.828008 L770.756639,118.412981 C770.826479,117.597719 770.932128,116.784372 770.976816,115.96658 L770.99739,115.352303 C770.99799,115.282548 771.00594,115.2098 771.02709,115.143937 C771.05964,115.042897 771.104041,114.931978 771.228391,114.924793 Z M775.691607,112.433511 L775.699568,112.48628 C775.766259,112.799009 775.783053,113.115833 775.786569,113.433358 L775.786569,114.068336 C775.775619,116.303633 775.465117,118.508992 774.966215,120.67588 C774.515613,122.632906 773.91141,124.554755 772.976455,126.352363 C772.755804,126.77673 772.518653,127.188522 772.217451,127.560947 C772.140051,127.656748 772.0562,127.748058 771.96845,127.834278 C771.90665,127.895051 771.833599,127.957771 771.737149,127.915559 C771.634848,127.870802 771.646998,127.772307 771.658998,127.687284 C771.686148,127.494485 771.731449,127.304681 771.834799,127.136281 L772.148912,126.625323 L772.315102,126.376164 C773.029555,125.360378 773.432907,124.229483 773.626558,123.009522 C773.756909,122.18908 774.03276,121.404713 774.329162,120.631124 C774.437312,120.348662 774.533613,120.065601 774.570363,119.76817 L774.875659,117.370634 C775.074249,115.771773 775.241016,114.169875 775.244316,112.552741 L775.235711,112.331546 C775.233966,112.179252 775.260266,112.035917 775.434967,112.013264 C775.714241,111.977203 775.672439,112.247818 775.691607,112.433511 L775.691607,112.433511 Z M757.976215,120.841795 C758.107616,120.853321 758.205116,120.933704 758.221916,121.077105 C758.240516,121.236224 758.224466,121.392798 758.184116,121.548773 C757.949965,122.45364 757.683263,123.349075 757.363012,124.226998 L757.282497,124.440588 C757.181142,124.689884 757.04096,124.932862 756.727009,125.099232 C757.162744,124.057135 757.291871,122.995759 757.512507,121.961888 L757.600313,121.575568 C757.646063,121.387409 757.676213,121.19491 757.731864,121.010045 C757.764114,120.902718 757.864314,120.832065 757.976215,120.841795 Z M763.196016,119.084289 C763.414567,119.225295 763.427317,119.377678 763.431217,119.533803 C763.447567,120.175517 762.910865,121.572409 762.396212,122.082996 C762.495212,121.050146 762.796864,120.075076 763.196016,119.084289 Z M779.325057,108.238588 C779.411907,108.555179 779.252906,108.843029 778.874604,108.964726 C778.319452,109.143304 777.750949,109.280269 777.194296,109.454506 C776.04904,109.812711 774.870934,110.080353 773.824829,110.710392 C773.428377,110.949145 773.056375,111.21095 772.711824,111.519308 C771.142366,112.923684 769.519658,114.267137 767.806949,115.491289 C766.903945,116.136745 765.90779,116.652871 764.951235,117.223034 C763.763079,117.931359 762.499172,118.486404 761.212766,118.981872 C760.207611,119.368966 759.178906,119.707412 758.0815,119.726871 C757.518698,119.759653 756.989045,119.629125 756.479342,119.41043 C756.217141,119.297864 755.97249,119.146679 755.800139,118.914512 C755.546188,118.572175 755.720939,118.188224 756.143341,118.144066 C756.331262,118.124547 756.513135,118.152545 756.686502,118.215184 L756.814894,118.268457 C757.729599,118.697165 758.644903,118.647768 759.608508,118.395692 C761.93727,117.786461 764.120681,116.857046 766.170141,115.605501 C767.235875,114.954742 768.186555,114.151117 769.150365,113.365905 L770.312888,112.430432 C770.653507,112.159567 770.999235,111.895804 771.365267,111.659416 C772.140921,111.158409 772.780074,110.489452 773.536678,109.959854 C774.595383,109.218897 775.764939,108.737649 776.961345,108.298463 L777.378852,108.153653 L778.221501,107.885024 C778.339252,107.847153 778.458052,107.804791 778.579553,107.787577 C778.934305,107.73773 779.239856,107.927685 779.325057,108.238588 Z M757.147416,112.240147 C757.455367,112.53683 757.647818,113.081995 757.644218,113.699309 C757.630268,114.111102 757.516568,114.529331 757.053215,114.74159 C756.682113,114.911636 756.188311,114.73156 755.833109,114.327552 C755.391357,113.824898 755.303907,113.019275 755.629858,112.451807 C755.97156,111.856945 756.651513,111.762042 757.147416,112.240147 Z M749.00818,97.7814326 C749.531533,97.8757362 750.044235,98.0058154 750.480737,98.3319864 C750.578988,98.4054834 750.688488,98.4783817 750.754789,98.5768766 C750.91919,98.8210183 750.755539,99.1400043 750.475337,99.0772848 C749.757272,98.9165886 749.201144,99.2164578 748.650748,99.5729473 L748.513178,99.6630155 C748.219326,99.8568619 747.919175,100.049361 747.600423,100.195457 C747.09807,100.425528 746.535568,100.298293 746.191316,99.9204795 C746.041315,99.7559719 745.967665,99.5896682 745.961279,99.4009111 C745.959265,99.1780251 746.033065,98.9859749 746.198816,98.8340412 L746.69063,98.3788222 C746.773636,98.3041943 746.857819,98.2309967 746.94417,98.1604435 C747.559323,97.6580894 748.273926,97.649108 749.00818,97.7814326 Z M746.674933,99.6028108 C746.912235,99.836624 747.185986,99.8291396 747.443837,99.682445 C747.92474,99.4089643 748.389742,99.107941 748.908145,98.7897035 C747.98159,98.6052875 747.490337,98.7925476 746.674933,99.6028108 Z M752.211281,93.0164175 C752.695783,93.0764425 753.124936,93.5961605 753.140686,94.1471635 C753.155536,94.668079 752.935635,95.1038219 752.626633,95.5013942 C752.452512,95.7255675 752.249111,95.92033 752.021499,96.0880577 L751.846329,96.2088215 C751.510718,96.4254505 751.247034,96.6853649 751.219086,97.0909219 L751.218726,97.2316421 C751.228176,97.3900124 751.159026,97.5111103 750.999425,97.5479337 C750.839524,97.584757 750.737824,97.4894055 750.654123,97.3629188 C750.260671,96.7676082 749.91492,96.1573287 750.00462,95.5391157 C750.00117,95.0313727 750.03087,94.6652349 750.152521,94.3095753 C750.459572,93.4106967 751.269426,92.8998102 752.211281,93.0164175 Z M752.062758,93.541046 L751.966,93.5415542 C751.501748,93.5707435 751.107246,93.7389932 750.880744,94.176682 C750.564093,94.7883087 750.651543,95.4204427 750.734194,96.1754709 C751.101846,95.7653247 751.449247,95.5288171 751.781949,95.2734487 C752.164601,94.9799098 752.347452,94.5588364 752.446752,94.1045322 C752.512657,93.802393 752.397616,93.6020617 752.150103,93.5520738 L752.062758,93.541046 Z" id="9"></path>
        </g>
    </g>
</svg>
