<?xml version="1.0" encoding="UTF-8"?>
<svg width="54px" height="60px" viewBox="0 0 54 60" version="1.1" xmlns="http://www.w3.org/2000/svg" xmlns:xlink="http://www.w3.org/1999/xlink">
    <title>37</title>
    <g id="页面-1" stroke="none" stroke-width="1" fill="none" fill-rule="evenodd">
        <g id="4、动物" transform="translate(-558.000000, -326.000000)" fill="#545458">
            <path d="M559.994503,368.522638 C560.027552,366.828279 562.360613,364.757206 562.404791,364.762674 C562.585957,364.785631 562.745033,364.826727 562.746745,364.902241 C562.755821,365.323819 562.479792,365.621766 562.479792,365.621766 C562.479792,365.621766 562.480648,365.621766 562.480819,365.621594 C561.612835,366.409613 560.254094,367.800545 559.994503,368.522638 M558.746722,366.073309 C559.067786,365.338202 559.251177,364.352238 560.45615,364.591109 C560.459403,364.591794 561.285778,364.836316 562.105474,364.738713 C561.28749,365.390086 559.552206,367.682565 559.899811,368.632742 C559.705118,368.608426 559.554946,368.542673 559.24039,368.314418 C558.598776,367.771264 558.392611,366.884444 558.746722,366.073309 M599.381372,337.957738 C601.563748,336.132556 603.962734,334.678952 606.614461,333.63083 C607.401281,333.319869 608.186559,332.938874 608.871152,332.448289 C610.782636,331.07876 611.947197,327.920523 611.344283,326.000478 C608.630911,330.479613 590.00238,336.180159 586.765718,339.076237 C584.562452,341.047824 582.757133,343.307597 582.022198,346.241689 C580.866883,350.854216 578.324231,354.477353 574.310852,357.004936 C573.040811,357.804598 571.597652,358.329258 570.233603,358.979947 C571.619399,359.097242 573.047489,359.362312 574.257427,358.263504 C573.540642,360.679957 571.18806,360.102556 569.694901,360.685436 C570.603468,360.948794 571.753817,361.046568 572.626082,361.590407 C573.910336,362.391096 575.03637,363.439048 576.614461,363.70583 C575.401954,364.120387 574.248694,364.007373 573.058277,363.410109 C572.299026,363.029285 571.531556,362.744523 570.615112,362.979798 C572.197826,363.9459 573.183106,365.675533 575.157946,365.913548 C573.80263,366.386667 572.43978,366.647799 571.265287,365.639916 C572.19132,366.80619 572.845775,366.742834 573.684992,367.159617 C572.714439,367.125028 571.755016,366.970061 570.841997,366.672114 C569.930177,366.37451 568.227598,365.740088 567.346429,365.364059 C567.635643,365.319195 568.230338,365.180153 569.165104,365.405326 C568.430339,365.128441 567.139065,365.034262 565.857208,365.024844 C565.927072,364.872446 565.927072,364.872446 566.090086,364.643164 C565.719365,364.75361 565.074841,365.251044 564.074492,365.29899 C563.668326,365.31851 563.138014,365.227243 562.81678,365.362004 C562.871061,365.238715 562.894691,365.057892 562.840924,364.789055 C562.840924,364.41217 561.455299,364.864569 560.672076,364.420389 C560.988516,364.150353 561.547252,363.645898 561.615574,363.554288 C561.548793,363.59624 561.483553,363.634597 561.419854,363.670727 C561.502217,363.448979 561.456327,363.171923 561.417628,362.903942 C561.383039,362.664557 561.669684,362.285445 561.959412,362.09743 C560.95855,362.461645 560.907351,363.311821 560.590055,364.007202 C560.085942,364.11114 559.81505,363.921071 559.887825,363.521754 C560.093648,362.390754 560.679781,361.514379 561.541601,360.810094 C563.315413,359.3606 565.417137,358.586623 567.635129,358.311792 C572.907933,357.658364 576.730044,354.954753 579.656259,350.59805 C581.316029,348.126974 581.206953,345.882612 579.503861,343.692531 C577.847003,341.561868 576.067712,339.509117 574.182427,337.578112 C571.835324,335.173989 569.614079,332.711989 568.325544,329.558204 C568.011159,328.788507 567.81698,327.969838 567.543348,327.096546 C565.64796,330.251358 564.552235,333.582713 564.401378,337.176226 C564.218671,341.532758 565.119019,345.608295 567.797973,349.181774 C568.461504,350.066882 569.052946,351.023908 569.551921,352.011414 C570.853127,354.586771 569.381715,357.516411 566.532897,358.104942 C564.635455,358.496896 562.851369,359.177722 561.360778,360.419852 C560.681665,360.98578 559.924811,361.71849 559.705803,362.514042 C559.393301,363.649152 558.99484,364.690082 558.474632,365.745568 C557.699456,367.319036 558.899977,369.011853 560.182861,368.927093 C560.07447,368.436508 561.049646,367.158761 561.704102,366.677251 C564.012335,364.978269 569.230857,366.073138 570.71751,368.545412 C571.219054,369.379492 571.107238,369.831892 572.542863,370.725562 C572.047141,370.533951 571.569227,370.256039 571.220424,369.756549 C571.33789,370.563403 571.342856,371.387209 571.983955,371.896116 C571.584638,371.735328 571.456041,371.509642 571.163916,370.708438 C571.14491,371.519059 570.96597,371.980877 571.4295,372.551086 C570.824531,372.216666 570.722476,371.531046 570.369049,371.02094 C570.586687,371.628307 570.268363,372.169406 570.541824,372.998862 C570.143876,373.435338 569.849183,374.012053 569.599182,374.450412 C568.948835,374.921819 566.97879,375.873708 565.725187,375.440144 C565.497446,375.323704 565.354465,375.061032 565.140766,375.006579 C564.499837,374.843394 564.052917,375.0511 563.724662,375.542541 C564.178431,375.249389 564.684941,375.41189 564.820387,375.694597 C565.140766,376.36395 565.461315,376.703164 566.067483,376.611726 C565.687515,376.910529 565.093676,377.372518 565.019361,378.129029 C565.23717,377.864301 565.30241,377.756081 565.52724,377.692896 C565.762858,378.277317 566.863549,377.830397 567.13975,377.653684 C567.534957,377.400771 567.902425,377.268407 568.496435,377.023714 C568.79815,378.501291 569.806546,379.502667 570.230692,379.012595 C570.334288,379.172699 570.243192,379.323042 570.198842,379.510372 C570.87162,378.908828 570.515968,378.112933 570.01391,377.485532 C569.760141,377.168407 569.399009,376.757274 569.418016,376.504019 C569.644216,376.126963 570.062883,375.719083 570.325042,375.393054 C572.646973,374.948189 574.793903,374.258459 575.665312,371.814609 C576.921655,373.187048 575.756237,374.661201 576.078671,376.025763 C575.744765,375.685179 576.054698,374.985004 575.678668,373.837737 C575.707093,374.95949 574.699553,376.363779 574.52284,377.341011 C574.321469,376.778679 574.717361,375.996311 574.455716,375.066682 C574.557087,375.939804 573.850576,377.285188 573.785507,377.754198 C573.708794,377.476114 573.772664,376.894261 573.793555,376.439293 C573.611533,376.990152 573.548519,377.344093 573.529683,377.909678 C573.14338,378.426119 572.177278,379.289309 571.644056,379.66825 C570.617167,380.398049 567.961501,380.597536 567.00105,379.749415 C566.075874,378.9328 564.928264,379.014479 563.901717,380.177328 C565.810119,379.081603 566.126559,381.234868 567.369545,381.391719 C566.598651,381.679391 565.803954,381.836413 565.583234,382.731966 C565.9144,382.664157 566.379129,382.468266 566.457212,382.569807 C566.881187,383.121009 567.439923,383.028885 567.944206,382.917755 C568.289414,382.841727 569.212707,382.547205 569.212707,382.547205 C569.212707,382.547205 569.183426,382.050113 569.28805,382.000455 C569.68086,384.220159 569.634798,384.546531 570.673845,385.032322 C570.647646,385.328556 570.62042,385.634893 570.587886,386.000649 C571.481213,385.239172 571.501932,383.375463 570.833949,382.660219 C570.833949,382.660219 570.669051,382.867754 570.544221,382.800631 C571.131724,381.697542 571.628474,381.431787 573.092695,381.77494 C574.660683,382.142237 576.163089,382.336245 577.589296,381.166032 C577.436897,382.043263 577.51909,382.44104 577.589296,382.830768 C577.733646,381.359527 579.204031,380.586577 579.669787,378.586908 C580.146502,379.474413 580.184173,379.945649 579.920987,380.608666 C580.883664,379.231946 580.789656,377.783821 580.710889,376.337238 C581.802847,376.579534 582.159698,376.888611 582.699085,377.994439 C583.067238,378.74958 583.515699,379.428694 584.411252,379.883662 C584.219128,379.390166 584.083853,379.042904 583.95577,378.713964 C586.240886,380.883325 588.080451,380.454556 589.251691,381.340691 C589.025491,380.831613 588.511961,380.491029 588.37035,380.171164 C592.366777,380.730927 597.482046,380.210376 601.015114,378.060535 C598.941301,378.814649 596.224505,378.536052 594.543673,377.902315 C597.89472,378.112248 601.095594,377.969781 603.359648,374.783804 C602.334642,375.232779 601.708269,374.913599 600.958265,374.972504 C602.838755,374.197499 604.74767,372.932937 605.614798,370.256039 C604.332941,371.537895 603.003139,372.015295 601.888407,372.371633 C603.807938,371.026591 605.032945,368.495755 605.840998,366.372626 C603.65417,368.634796 602.183785,369.38891 600.510831,369.844906 C601.250218,368.958086 601.919914,368.559454 602.296971,366.825026 C599.438393,369.775728 594.977066,370.961522 591.250504,370.083949 C592.632532,369.610658 593.923293,369.014764 594.933059,367.930169 C591.890918,369.351239 589.638337,368.923668 587.701682,367.954998 C586.678902,367.443523 585.586944,366.815437 585.636259,365.47947 C585.684547,364.175524 586.719313,363.489562 587.80819,363.088361 C589.029601,362.638358 590.307005,362.304623 591.586293,362.055478 C593.483393,361.686127 595.17741,360.97876 596.632897,359.623444 C593.323632,360.340229 591.18612,359.030461 588.510762,359.790397 C589.107683,359.433545 589.716762,359.060084 590.360601,358.98457 C592.050851,358.786453 593.75497,358.658198 595.456521,358.617102 C596.824508,358.584054 598.230852,358.54467 599.258597,357.616069 C600.810147,356.214006 602.194059,354.626497 603.649376,353.117756 C600.567509,353.705773 597.424512,352.752856 594.487166,353.954918 C595.395562,353.45971 596.326389,353.034879 597.303278,352.836761 C598.639245,352.565698 600.016478,352.505595 601.364431,352.284189 C602.927968,352.027339 604.560854,351.687611 605.463085,350.263287 C606.565488,348.522867 607.650769,346.918063 608.489643,343.835854 C605.577127,346.324224 601.985839,343.948868 596.753617,347.17714 C597.411327,346.718575 597.937699,346.287409 598.520922,345.956756 C600.539084,344.812058 602.745432,344.279863 605.037569,344.075923 C607.036039,343.898183 608.642041,342.83756 608.986735,341.210154 C609.474409,338.906887 609.816706,336.572627 610.239139,334.148298 C606.178671,334.932036 602.416835,336.1817 598.966986,338.366815 C599.05911,338.172636 599.233597,338.081197 599.381372,337.957738" id="37"></path>
        </g>
    </g>
</svg>
