<?xml version="1.0" encoding="UTF-8"?>
<svg width="61px" height="60px" viewBox="0 0 61 60" version="1.1" xmlns="http://www.w3.org/2000/svg" xmlns:xlink="http://www.w3.org/1999/xlink">
    <title>dragonfly-svgrepo-com</title>
    <g id="页面-1" stroke="none" stroke-width="1" fill="none" fill-rule="evenodd">
        <g id="形状库素材-动物" transform="translate(-552.000000, -402.000000)" fill="#545458" fill-rule="nonzero">
            <g id="dragonfly-svgrepo-com" transform="translate(552.963589, 402.249517)">
                <path d="M14.0411254,0 C13.9566695,0 13.8722136,0.00191931924 13.7881376,0.00635103797 C13.5960542,0.0167339218 13.4051104,0.0396522387 13.2158127,0.0759923322 C11.6996585,0.366713081 10.5501972,1.73472134 10.2782163,3.48309769 C10.1014541,4.61863065 10.188569,5.94865275 10.5486778,7.51266959 C10.2390906,7.37262728 9.933302,7.24651323 9.63359119,7.13698647 C8.73078678,6.80777308 7.8609037,6.60391401 7.0457207,6.57137254 C6.23066432,6.53883106 5.47018138,6.67798703 4.78681035,7.03505694 C3.4200683,7.74919675 2.75531049,9.39349102 2.95840983,11.1882105 C3.16125593,12.9824235 4.05051194,15.1028109 5.72342245,17.6724481 C8.18935737,21.460428 11.8489441,26.1666601 15.6703518,29.3916851 C17.5591503,30.9858376 19.4837825,32.233683 21.4422223,32.7772649 C21.3352279,31.9841139 21.3682759,31.1496846 21.5216134,30.3157617 C20.2190679,29.8285259 18.7146893,28.8646904 17.1962559,27.5832906 C13.6794971,24.6153053 10.0742307,20.0183467 7.70655327,16.3811719 C6.15608482,13.9996928 5.445617,12.1235564 5.30962654,10.9218009 C5.17376271,9.720172 5.43054915,9.36842016 5.88296433,9.13201962 C6.33525288,8.8957457 7.3774665,8.83294191 8.82258667,9.35993658 C9.64030208,9.65838118 10.5689371,10.1281434 11.5639212,10.7755542 C13.0745042,14.8417194 15.4537041,19.8770382 18.340399,23.6933811 C19.575709,25.3265328 20.900413,26.7439231 22.3507246,27.7528355 C22.6727206,27.0536369 23.0708156,26.3620355 23.5413375,25.6896805 C22.4454368,24.8834876 21.3092707,23.6957869 20.2276781,22.2658612 C18.4110533,19.8641229 16.743081,16.8081363 15.4047019,13.8683873 C19.5054346,17.5874857 21.9978332,20.712987 24.5505032,24.4029626 C24.7738618,24.1487086 25.0076033,23.8985064 25.2524874,23.6537489 C25.5817008,23.3245355 25.9205374,23.0162145 26.2664647,22.7263801 C23.422061,18.6560364 20.5097887,15.1152198 15.4973882,10.7904954 C14.8313642,10.216018 14.1729374,9.70130554 13.5255266,9.24445865 C12.6518449,6.75509893 12.449252,4.92264655 12.6163911,3.84687849 C12.7885951,2.74110135 13.0928642,2.50925915 13.6616437,2.40011225 C14.2305497,2.29121859 15.3426579,2.52799899 16.6748325,3.40168068 C18.0068806,4.27536238 19.5351904,5.72795315 21.0160176,7.73045691 C24.8632559,12.9338012 26.7529408,16.7420404 28.5141058,21.1762915 C29.2286255,20.7808556 29.9556806,20.4649374 30.6818493,20.2337283 C28.8721887,15.7042585 26.8595553,11.6532877 22.9187443,6.32357615 C21.3030663,4.13810572 19.6096433,2.4965971 17.972693,1.42285496 C16.6298822,0.542209142 15.3093567,0.00445172994 14.0411254,0 L14.0411254,0 Z M34.3943634,12.8409883 C33.675412,12.8409883 32.9565873,13.115375 32.4080671,13.6638952 C31.3109002,14.7610621 31.3109002,16.5400806 32.4080671,17.6372476 C33.0306603,18.2599674 33.8725602,18.5286561 34.6849576,18.4448333 C34.0961721,19.9455399 34.4108241,21.7075913 35.630813,22.9277068 C36.8138286,24.1107224 38.5063653,24.4433546 39.9759232,23.9261097 C39.9214764,24.7091311 40.1924444,25.5107657 40.7909796,26.1093009 C41.8881466,27.2065945 43.6670385,27.2064679 44.764332,26.1093009 C45.8613723,25.012134 45.8613723,23.2331155 44.764332,22.1359486 C44.1607319,21.5324751 43.3512468,21.2616338 42.5621477,21.3220318 C43.0666039,19.8582984 42.7315659,18.1789302 41.5555144,17.0030053 C40.7324809,16.1799718 39.6629173,15.7684551 38.5933536,15.7684551 C38.114728,15.7684551 37.6361024,15.8516448 37.179762,16.0163781 C37.2886556,15.1809358 37.0230057,14.3057347 36.3811662,13.6637686 C35.8325195,13.1151218 35.1136947,12.8409883 34.3944901,12.8409883 L34.3943634,12.8409883 Z M32.4459266,22.2296478 C32.3388057,22.2480077 32.2302919,22.2689001 32.1200054,22.292958 C30.4693801,22.6538265 28.5636144,23.6888228 26.9255246,25.326786 C25.2874347,26.9650025 24.2525651,28.8708948 23.8916965,30.5215201 C23.6162969,31.7813944 23.7194926,32.8294326 24.1350612,33.6068827 C18.2459401,38.1373654 5.19832709,48.7304394 0.686204329,51.2460096 C-1.10079128,57.1721038 0.363701826,61.2979074 7.92383411,58.4836393 C10.3101247,53.8838952 21.2438079,40.6162156 25.8184812,34.9562777 C26.5132481,35.1664678 27.3616057,35.1816623 28.3379766,34.9680534 C29.9886019,34.6071849 31.8943676,33.5721887 33.5324575,31.9342254 C35.1702941,30.2960089 36.2051637,28.3901166 36.5660322,26.7394914 C36.6045249,26.5629823 36.6340275,26.3916647 36.6579587,26.2236393 C35.668166,25.9206364 34.7371252,25.3805998 33.957396,24.6009971 C33.2650349,23.9083828 32.7620981,23.0961121 32.4455468,22.2296478 L32.4459266,22.2296478 Z M38.647294,28.1118047 C38.4206432,28.8398728 38.1078905,29.5694603 37.7157467,30.286639 C42.6416654,32.1830348 46.6386958,34.0548661 52.2703973,38.2191623 C54.2726478,39.6997362 55.7253652,41.2282993 56.5990469,42.5603473 C57.4727286,43.8926486 57.7091292,45.00501 57.5999823,45.5739161 C57.4908354,46.1428221 57.2589932,46.4469647 56.153216,46.619042 C55.0474389,46.7912459 53.1447121,46.5744715 50.5484847,45.6379861 C50.3186684,45.5550496 50.0841672,45.4679347 49.8470069,45.378414 C49.5299491,44.9630986 49.1908593,44.5443645 48.8266986,44.1223383 C44.1974519,38.7564132 40.4523963,35.7909603 36.0053565,32.743204 C35.7524953,33.0369637 35.486972,33.3260383 35.2056212,33.6075158 C34.9111018,33.9020352 34.6084788,34.1790809 34.3002844,34.4421984 C38.0824398,37.0110758 41.2104735,39.3844511 44.8304279,43.2210533 C42.3081469,41.9996716 39.7833334,40.5572105 37.734993,39.007755 C35.9436923,37.6525354 34.5314935,36.2114671 33.7759487,34.8715686 C33.1327164,35.3727327 32.4679586,35.806408 31.791805,36.1689226 C32.803503,37.9028642 34.4099378,39.4594104 36.3075997,40.8949074 C39.8547474,43.5782498 44.4556311,45.8233585 48.3526314,47.3401459 C49.256702,48.6055915 49.8885384,49.7858215 50.2570042,50.7966333 C50.7842521,52.2418801 50.7214483,53.2842203 50.4851744,53.7367621 C50.2487739,54.1890507 49.897022,54.4458371 48.6953931,54.3098466 C47.4937643,54.1739828 45.6180077,53.4633884 43.236402,51.9129199 C39.599607,49.5451159 35.0029017,45.9394696 32.035043,42.422331 C30.5510503,40.6639516 29.4912365,38.9235523 29.1066899,37.4942597 C29.082632,37.4053721 29.0608533,37.3182572 29.0411005,37.2325351 C28.9752578,37.2483627 28.9094151,37.2657097 28.8435724,37.2800178 C28.1184166,37.4385467 27.389209,37.5050225 26.6830462,37.471468 C26.7197662,37.6850769 26.7647165,37.8981792 26.8215691,38.1090024 C27.3546415,40.0906138 28.6138828,42.0380376 30.2263953,43.9487415 C33.4511671,47.7701493 38.1573991,51.4299892 41.9451258,53.896304 C44.5146363,55.5689612 46.6351504,56.4583439 48.4293634,56.6613166 C50.2239562,56.8644159 51.8683771,56.1991516 52.5825169,54.8325362 C53.2966568,53.4659208 53.138761,51.7916174 52.4799543,49.9860086 C52.3073705,49.5124478 52.0952811,49.0253386 51.8458387,48.5278465 C53.6919661,49.0201472 55.2291394,49.1579103 56.5168702,48.95747 C58.2651199,48.6854891 59.6332548,47.5357746 59.9239756,46.0198736 C60.2148229,44.5038459 59.6509817,42.8999436 58.5774928,41.26312 C57.5037507,39.6261697 55.8623687,37.9327466 53.6772781,36.3168154 C47.9122451,32.0538818 43.6438669,30.04606 38.6470407,28.1118047 L38.647294,28.1118047 Z" id="形状"></path>
            </g>
        </g>
    </g>
</svg>
