<?xml version="1.0" encoding="UTF-8"?>
<svg width="57px" height="60px" viewBox="0 0 57 60" version="1.1" xmlns="http://www.w3.org/2000/svg" xmlns:xlink="http://www.w3.org/1999/xlink">
    <title>flying-dragon-fly-legend-myth-svgrepo-com</title>
    <g id="页面-1" stroke="none" stroke-width="1" fill="none" fill-rule="evenodd">
        <g id="形状库素材-动物" transform="translate(-719.000000, -68.000000)" fill="#545458" fill-rule="nonzero">
            <g id="flying-dragon-fly-legend-myth-svgrepo-com" transform="translate(719.578612, 67.999564)">
                <path d="M50.8523437,9.478125 C50.8523437,5.53125 52.9125,2.06484375 56.015625,0.10078125 C55.3054687,0.0328125 54.5179687,0 53.7914062,0 C47.0039062,0 40.9734375,2.94140625 36.7664062,7.6171875 C38.1492187,9.8296875 38.9695312,12.5882812 38.9695312,15.5742187 C38.9695312,19.5210937 37.5375,23.0601562 35.2710937,25.48125 C33.046875,22.4765625 29.1703125,20.5453125 27.3492187,19.3710937 C26.7515625,18.984375 26.2570312,18.346875 26.2570312,17.5921875 C26.2570312,16.5585937 27.0984375,15.7171875 28.1320312,15.7171875 C28.9710937,15.7171875 29.475,16.396875 29.9578125,17.0273437 C30.4148437,17.6226562 31.55625,18.9492187 32.1070312,19.5890625 C32.371875,19.8960937 32.8007812,20.00625 33.1804687,19.8632812 L34.2164062,19.4765625 L33.3890625,19.1226562 C33.3890625,19.1226562 32.56875,17.3203125 32.2734375,16.584375 L34.9453125,17.9226562 L34.8117187,19.0546875 L36.1453125,17.7398437 C36.4195312,17.4679687 36.4171875,17.025 36.1382812,16.7601562 L35.0671875,15.7359375 C34.3265625,14.8617187 34.2375,13.565625 33.6585937,12.2601562 C32.821875,10.3617187 31.6734375,9.2484375 31.6734375,9.2484375 C31.6734375,10.6335937 31.209375,11.5570312 31.209375,11.5570312 C31.209375,11.5570312 29.5626562,10.68 27.4153125,10.9389844 C25.4435156,10.9514062 23.6053125,9.76570312 22.8454687,7.87945312 C22.8454687,7.8796875 22.8454687,7.8796875 22.8454687,7.87992187 L22.8452344,7.87921875 C22.8452344,7.87921875 22.2604687,10.4423437 24.474375,12.0541406 C24.440625,12.076875 24.4071094,12.0996094 24.3735937,12.1232812 C22.9966406,12.5742187 21.4453125,12.1483594 20.5017187,10.9917187 C20.5017187,10.9917187 20.2828125,12.6653906 21.3501562,13.6685156 C21.6775781,13.97625 22.036875,14.1086719 22.378125,14.1457031 C21.7422656,15.0771094 21.2983594,16.1730469 21.2744531,17.3296875 C21.2064844,20.5148437 22.2051562,21.744375 24.3728906,24.0070312 C24.7403906,24.3904687 24.8908594,24.8765625 24.8908594,25.2585937 C24.8908594,26.2359375 24.1010156,27.028125 23.1236719,27.028125 C22.6267969,27.028125 22.0509375,26.7578906 21.6822656,26.4332812 C19.1496094,24.2022656 17.0671875,20.1117187 17.0671875,15.5742187 C17.0671875,12.5953125 17.8828125,9.84375 19.2632812,7.63359375 C15.05625,2.9484375 9.0234375,0 2.22890625,0 C1.50234375,0 0.71015625,0.0328125 0,0.10078125 C3.103125,2.06484375 5.16328125,5.53125 5.16328125,9.478125 C5.16328125,12.8953125 3.6140625,15.9539062 1.18359375,17.990625 C6.0234375,18.815625 9.71015625,23.0296875 9.71015625,28.10625 C9.71015625,28.6828125 9.65859375,29.2476562 9.5671875,29.7984375 C9.9375,29.7703125 10.3148437,29.765625 10.6945312,29.75625 C16.2,29.6273437 22.44375,32.165625 23.446875,37.8773437 C24.1502344,41.8811719 25.4744531,46.0448437 27.9103125,49.9825781 C29.5244531,52.5921094 30.0309375,54.7802344 28.0054687,56.3948437 C26.3650781,57.7026562 22.8864844,57.7284375 21.3834375,51.7228125 C22.5328125,51.7732031 23.5914844,52.1857031 24.4396875,52.85625 L20.949375,46.1819531 L17.7039844,52.9788281 C18.5060156,52.2958594 19.5164062,51.8482031 20.6282812,51.7403906 C20.6486719,53.8085156 20.9990625,56.3842969 22.396875,57.8010937 C23.7274219,59.1496875 25.5117187,60 27.3070312,60 C29.1820312,60 30.9086719,59.2575 32.3414062,57.9023437 C34.0964062,56.2425 35.8284375,53.5155469 33.7514062,47.9336719 C32.0873437,43.4617969 31.8103125,40.5377344 32.7691406,37.2735937 C34.1648437,32.521875 39.8301562,29.75625 45.3210937,29.75625 C45.7007812,29.75625 46.0757812,29.7703125 46.4484375,29.7984375 C46.3570312,29.2453125 46.3054687,28.6828125 46.3054687,28.10625 C46.3054687,23.0296875 49.9921875,18.815625 54.8320312,17.990625 C52.4015625,15.9539062 50.8523437,12.8953125 50.8523437,9.478125 Z" id="路径"></path>
            </g>
        </g>
    </g>
</svg>
