<?xml version="1.0" encoding="UTF-8"?>
<svg width="61px" height="48px" viewBox="0 0 61 48" version="1.1" xmlns="http://www.w3.org/2000/svg" xmlns:xlink="http://www.w3.org/1999/xlink">
    <title>illustration-of-dove-svgrepo-com</title>
    <g id="页面-1" stroke="none" stroke-width="1" fill="none" fill-rule="evenodd">
        <g id="形状库素材-动物" transform="translate(-480.000000, -408.000000)" fill="#545458" fill-rule="nonzero">
            <g id="illustration-of-dove-svgrepo-com" transform="translate(480.619846, 408.044340)">
                <path d="M44.5958729,26.8396495 C45.6857137,25.4185206 46.3975086,23.873642 47.944145,22.8846994 C51.3380029,20.7156819 55.9398262,20.7401741 58.9759116,17.978541 C60.1603224,16.9037002 60.5171574,15.2562829 58.9600913,14.3935508 C57.9474769,13.8333961 56.6674414,13.8587086 55.3523669,14.1646843 C56.7350584,12.8198442 57.6002513,11.2346533 56.7771286,9.64254825 C55.4996711,7.16837535 52.6354993,8.25036457 50.0674595,9.85653204 C50.7556998,8.77817563 51.2431984,7.60864758 51.3158545,6.35755727 C51.4124167,4.67779625 50.0736704,3.50217447 48.4585967,3.43186217 C46.779656,3.36002643 45.9248927,4.5804137 45.1771213,5.9130663 C43.4516573,8.98161257 41.3606865,13.0662889 37.9511255,14.5400348 C36.5185123,15.1589003 35.0885943,15.7813986 33.6473092,16.3741314 C33.6866841,14.9765571 33.2887164,13.8578883 32.1068837,12.8409379 C31.6097757,12.4148453 31.7631738,10.9051229 31.5062995,10.2353982 C31.2283315,9.51293923 30.6515362,8.93075333 30.1227876,8.38805951 C29.5730626,7.82345168 29.3284929,7.77517056 29.9044679,6.92134478 C30.2893106,6.35310415 30.5655208,5.74126989 30.8171217,5.10646695 C31.1977456,4.1490477 31.2827063,3.0951834 31.06966,2.09311584 C30.7286453,0.498432714 29.2907587,-0.236330896 27.7810362,0.0670667095 C26.1713532,0.393198627 24.4687406,2.48674757 23.2230409,3.48717451 C21.2976556,5.0309984 19.3899655,6.6222831 17.7785246,8.50114514 C16.6291528,9.84164927 15.7094678,11.41102 15.6884913,13.2118353 C15.6797022,14.071872 16.1320448,14.8292528 16.5678639,15.5307352 C17.4717286,16.9791688 18.3713746,18.1827983 18.8560607,19.7933017 C18.8472717,19.7933017 18.8394201,19.7933017 18.8323889,19.7933017 C16.6406371,19.7635361 15.5069683,19.0051007 13.6010361,18.1696733 C10.9867073,17.0228796 8.21441023,17.5295969 6.01293189,19.297014 C4.85746631,20.2245505 4.17356194,21.6098201 3.78965674,23.0064569 C3.53008714,23.9507512 3.78344582,24.250516 3.01200262,24.813366 C2.37989498,21.819468 2.53938673,19.1129129 3.59758696,16.1382336 C4.1007887,14.7241359 4.7048886,13.3563271 5.26516051,11.9746903 C5.51769888,13.2809758 6.58023502,14.2340591 7.95929374,14.3085901 C9.52854725,14.393668 10.7569033,13.068867 10.8376452,11.5679336 C10.9217856,10.0003207 9.58467991,8.76762878 8.08913713,8.68618369 C7.37019379,8.64844942 6.72589869,8.90626121 6.22785318,9.33938502 C6.33308726,9.00446407 6.42941512,8.66438688 6.51718832,8.32243469 C6.72929711,8.37411423 6.95113244,8.40481727 7.17988182,8.41794224 C9.07890004,8.5188404 10.545732,6.89685266 10.6429973,5.09252167 C10.7445986,3.19362063 9.11042339,1.7242106 7.30972521,1.62600775 C5.41070698,1.52428927 3.94317194,3.14803482 3.84660971,4.95049081 C3.8457894,4.96806889 3.84836752,4.98564697 3.84930501,5.00310786 C3.84836752,5.02584217 3.84496909,5.04963117 3.8457894,5.07330298 C3.91586733,6.36376819 4.60586544,7.42899964 5.64648758,7.99102935 C5.44223033,8.8387614 5.1756295,9.66551694 4.87856,10.4809053 C4.5121157,9.57528281 3.59325103,8.93614394 2.58766785,8.88176909 C1.18399983,8.80559743 0.0731825608,9.98297701 0.000148325304,11.3295749 C-0.000528174529,11.3470358 0.00122963315,11.3637935 0.00298744083,11.3812544 C0.00122963315,11.4049262 -0.000528174529,11.4268402 0.000148325304,11.4522699 C0.0731825608,12.8076568 1.09892193,13.8457008 2.45782446,13.9194115 C2.86727646,13.940388 3.24954103,13.8554273 3.59219634,13.690545 C3.1310648,14.7917529 2.67872229,15.8971795 2.30606706,17.0317858 C1.37935085,19.8583405 1.48903805,22.5919659 2.1630987,25.4351612 C1.72563897,25.7850821 1.31630415,26.1689873 0.940133308,26.5906268 C0.609665464,26.9650398 0.946344228,27.342031 1.33294473,27.4506635 C1.87481824,27.604999 2.42102768,27.7444517 2.96723712,27.8776935 C3.42661086,28.9192532 4.00082804,29.8792506 4.80039616,30.7042483 C5.18172323,31.09788 5.91836184,30.5069051 5.50000361,30.0756563 C4.95027856,29.5101109 4.51633443,28.8569096 4.15867917,28.1599975 C4.21293683,28.1731224 4.26649137,28.1863646 4.32086622,28.1993723 C5.63769855,28.50277 6.50921959,28.9271047 7.65765394,29.6478059 C9.42858658,30.7559278 11.4669404,31.7291674 13.3913882,32.5261574 C16.8860271,33.9727159 20.6752745,34.2926369 24.4100299,34.0928327 C24.4810453,34.2260746 24.5504201,34.3575586 24.611709,34.4786129 C25.4893238,36.2118113 25.1044811,37.927666 25.5857688,39.7003564 C26.4993601,43.0599956 29.2907587,45.4059658 32.4285626,46.6640873 C35.2805469,47.8064279 38.7996779,47.5469755 41.813029,47.5267021 C44.6886852,47.5065459 47.589771,47.4311946 50.4505444,47.1331876 C51.9821808,46.9735787 53.4743251,46.2186589 53.881199,44.6335851 C54.4115882,42.5626533 52.0251885,41.074962 50.4935521,40.3841436 C49.0127749,39.7143017 45.7636432,39.7932859 45.4207535,37.8810255 C45.2077072,36.6833725 45.4786439,35.7181017 44.9946609,34.5205659 C44.5624746,33.4492408 43.6208756,32.339361 42.5670113,31.8430733 C41.7420136,31.4537775 41.1537339,31.264403 40.5724855,30.6972171 C42.1507624,29.6407746 43.4385323,28.3519501 44.5958729,26.8396495 Z M9.87049943,11.2944187 C10.0397177,12.3343377 9.17698571,13.189101 8.21956646,13.3450772 C7.07980397,13.530936 6.26007965,12.545509 6.17066583,11.5153166 C6.34351692,9.28067425 9.49350828,8.98876099 9.87049943,11.2944187 Z M4.80566958,5.02677967 C5.0266846,2.0888971 9.18143882,1.7434293 9.67151561,4.7550226 C9.89428843,6.12177666 8.76237747,7.24396108 7.50437311,7.44915583 C6.00590066,7.69466297 4.90750524,6.38837749 4.80566958,5.02677967 Z M2.68669102,12.9567189 C1.72317803,13.11457 1.04103147,12.2852363 0.961227,11.4172309 C1.11380471,9.54094697 3.75977401,9.27973675 4.0779372,11.2296142 C4.22008525,12.1045337 3.49141537,12.8252348 2.68669102,12.9567189 Z M17.5752049,14.8891354 C16.338177,13.0251562 17.2473151,11.2348876 18.4721555,9.63223578 C20.7131259,6.70396257 23.9104609,4.64803071 26.6730315,2.25987319 C27.42092,1.61194528 28.362519,0.680893151 29.3804069,1.43135984 C30.6375909,2.35983386 29.6863826,4.66127286 29.1927902,5.67119196 C28.5746278,6.93892286 27.7549035,7.51149941 28.8341974,8.74583196 C29.2444697,9.21399474 29.6995075,9.62520455 30.0738034,10.1266485 C30.7375516,11.0156304 30.2062249,11.995784 30.6323175,12.8541801 C30.8434888,13.2758195 31.1398552,13.5643344 31.4966901,13.8693726 C32.4470781,14.6855813 32.5067264,15.7165941 32.3611799,16.8897549 C30.2297795,17.7296354 28.066973,18.4844381 25.8303385,19.0351006 C23.9515936,19.4971697 22.0349973,19.7268565 20.1079714,19.7794736 C19.5934024,17.9303771 18.6544988,16.5135841 17.5752049,14.8891354 Z M39.8616281,29.7986258 C39.427684,29.1235104 39.0654584,28.3151533 38.9918649,27.5488663 C38.9357322,26.9623445 37.7495636,26.6616422 37.8188212,27.385859 C38.0063207,29.343588 39.5836601,31.8720185 41.5247485,32.4673294 C43.4378292,33.0539684 44.3311471,34.9221664 44.239038,36.8018488 C44.1996631,37.6092684 44.291655,38.2852041 44.7519662,38.9630147 C46.4326648,41.4380079 50.5629269,40.373714 52.4181171,42.870504 C54.1031515,45.1359665 50.5130051,46.0767452 48.9962515,46.1967449 C46.1329,46.4246739 43.2519704,46.494869 40.3806501,46.5017831 C36.7940193,46.5088143 33.2958649,46.4895956 30.1974359,44.4432731 C28.3931049,43.2508936 27.0279914,41.3589066 26.6309613,39.2284437 C26.3109231,37.5083702 26.4468602,36.0372024 25.7165497,34.3766601 C25.6245578,34.1680669 25.5175659,33.9488097 25.3982693,33.7261541 C25.2843634,33.445608 25.1720981,33.2492022 25.0143641,33.0615856 C24.0420621,31.4957305 22.5253085,29.9036255 20.8182428,29.7318291 C19.9986357,29.6476887 20.2896115,30.6883108 20.9367191,30.7540528 C22.1001534,30.8698338 23.0873382,31.9675261 23.8105003,33.0764683 C20.0117607,33.2256476 16.2988021,32.7346333 12.7953742,31.1311612 C10.7631142,30.1983512 8.60288572,29.1453073 6.84414055,27.7680063 C6.31375138,27.3524606 5.15031707,27.3331247 4.50848289,27.1875782 C3.83782067,27.0367584 3.16973657,26.871876 2.50434777,26.7000796 C3.16106472,26.0932844 3.89137521,25.5918404 4.6619981,25.1140683 C4.8374273,25.0062561 4.9215677,24.8589518 4.91102085,24.6502415 C4.72164637,20.9609547 8.16976191,18.2413919 11.6794007,18.6166252 C12.7753352,18.7341639 13.9387695,19.4478339 14.8986497,19.9537309 C16.075209,20.5735339 16.9344254,20.7102913 18.2960232,20.801463 C18.6895377,20.8268926 19.0815289,20.8417753 19.4734028,20.8488066 C19.6434414,20.9049392 19.8294174,20.9014236 19.9783623,20.8417753 C24.5268655,20.8040411 28.9271268,19.4425604 33.1503184,17.7626822 C33.219576,17.7486198 33.2861383,17.7223698 33.3449663,17.6846356 C34.3172683,17.2936991 35.2825391,16.8895206 36.2355052,16.4808889 C37.5330017,15.9258904 38.9069042,15.484915 40.0089324,14.5941753 C41.3231866,13.533397 42.4768944,12.2866426 43.5149384,10.9592634 C44.7554819,9.370674 45.6225498,7.58028829 46.6342267,5.84966803 C47.4768025,4.41014073 49.75539,3.69998643 50.0674595,5.97072239 C50.4365991,8.66227751 47.2777015,11.5098088 45.5627843,13.0896091 C45.051731,13.5612875 45.9538379,14.1977311 46.4193054,13.8839038 C48.1561366,12.7091023 54.2124872,7.23657829 55.8388108,10.3875071 C56.4324811,11.5376993 54.4851817,13.2017572 53.7995196,13.8382008 C52.6168665,14.9323775 51.2184719,15.816086 49.7692181,16.5121778 C49.0555482,16.8769815 49.9227333,17.6695184 50.5100755,17.3889723 C50.8019887,17.2488165 51.1431206,17.0769029 51.512143,16.8752237 C53.6048716,15.8258125 57.8184538,13.9216381 58.7503263,15.6023366 C59.7795813,17.4609252 54.4219007,19.1671706 53.658309,19.4318964 C51.0430427,20.3322455 47.4834822,21.0643138 45.6125889,23.2841905 C43.6709145,25.5885592 42.4136133,28.0530056 39.8616281,29.7986258 Z" id="形状"></path>
                <path d="M8.60897946,24.0596181 C8.04343413,24.0596181 7.58593539,24.5173512 7.58593539,25.0810215 C7.58593539,25.1371542 7.59378693,25.1897712 7.60175566,25.2414508 C7.60175566,25.2449664 7.59906035,25.2467242 7.59906035,25.2467242 C7.53601365,25.3676614 7.62531028,25.546489 7.69562259,25.6395356 C7.75784898,25.7210979 7.83320034,25.7867227 7.91734073,25.8306679 C8.09968398,25.999769 8.34085519,26.1041828 8.60909664,26.1041828 C8.8362054,26.1041828 9.04479857,26.0261361 9.21495436,25.900863 C9.21764966,25.900863 9.21846997,25.900863 9.22116528,25.900863 C9.36132114,25.900863 9.42014911,25.7991446 9.42975846,25.6851214 C9.5235082,25.5589108 9.58667209,25.4116066 9.61467982,25.2494195 C9.64807817,25.1854353 9.66905467,25.1152402 9.66202344,25.0363732 C9.65323441,24.9364125 9.61901575,24.8469987 9.57354712,24.7609833 C9.43913343,24.3541095 9.06050166,24.0596181 8.60897946,24.0596181 Z" id="路径"></path>
            </g>
        </g>
    </g>
</svg>
