<?xml version="1.0" encoding="UTF-8"?>
<svg width="48px" height="48px" viewBox="0 0 48 48" version="1.1" xmlns="http://www.w3.org/2000/svg" xmlns:xlink="http://www.w3.org/1999/xlink">
    <title>基础-16</title>
    <g id="V1.4" stroke="none" stroke-width="1" fill="none" fill-rule="evenodd">
        <g id="形状汇集备份" transform="translate(-47.000000, -315.000000)" stroke="#3D4242">
            <g id="基础-16" transform="translate(47.000000, 315.000000)">
                <path d="M40.7631651,0.499953473 C42.6312167,0.525439373 44.3156888,1.29570965 45.5331035,2.52490887 C46.7498552,3.7534386 47.5,5.44044828 47.5,7.3 L47.5,40.7 C47.5,42.577531 46.7356482,44.2772215 45.5001493,45.5075915 C44.263896,46.7387127 42.5559792,47.5 40.6695691,47.5 L7.13725219,47.5 C5.27187597,47.4474909 3.60017786,46.6544576 2.40100826,45.4098073 C1.20113599,44.1644278 0.474409181,42.4668505 0.500740385,40.6 L0.500695619,7.20669061 C0.525100349,5.38304989 1.269994,3.73154081 2.46628924,2.52343248 C3.66184703,1.31606887 5.30819583,0.551508453 7.13725494,0.5 Z" id="19"></path>
            </g>
        </g>
    </g>
</svg>