<?xml version="1.0" encoding="UTF-8"?>
<svg width="30px" height="48px" viewBox="0 0 30 48" version="1.1" xmlns="http://www.w3.org/2000/svg" xmlns:xlink="http://www.w3.org/1999/xlink">
    <title>基础-18</title>
    <g id="V1.4" stroke="none" stroke-width="1" fill="none" fill-rule="evenodd">
        <g id="形状汇集备份" transform="translate(-196.000000, -315.000000)" stroke="#3D4242">
            <g id="基础-18" transform="translate(196.000000, 315.000000)">
                <path d="M29.5,0.5 L29.5,14.1304802 L22.6390548,14.1304802 C19.1101164,14.1304801 15.8497734,16.0020823 14.0854421,19.0390191 C13.2027175,20.5584496 12.761412,22.2541824 12.761412,23.9498956 C12.761412,25.6456088 13.2027175,27.3413416 14.0854421,28.8607721 C15.8497734,31.897709 19.1101164,33.7693111 22.6390547,33.7693111 L29.5,33.7693111 L29.5,47.5 L22.6551824,47.5 C16.4265584,47.0957046 10.8893968,44.3254277 6.9084587,40.1051757 C2.92514669,35.8824072 0.5,30.2078726 0.5,24 C0.5,17.7921274 2.92514669,12.1175928 6.9084587,7.89482426 C10.8893968,3.67457235 16.4265584,0.90429539 22.6551824,0.5 L29.5,0.5 Z" id="21"></path>
            </g>
        </g>
    </g>
</svg>