<?xml version="1.0" encoding="UTF-8"?>
<svg width="44px" height="61px" viewBox="0 0 44 61" version="1.1" xmlns="http://www.w3.org/2000/svg" xmlns:xlink="http://www.w3.org/1999/xlink">
    <title>66</title>
    <g id="页面-1" stroke="none" stroke-width="1" fill="none" fill-rule="evenodd">
        <g id="形状库素材-节日" transform="translate(-739.000000, -705.000000)" fill="#545458">
            <path d="M755.182563,705.586469 C760.873967,705.586469 765.487586,710.963577 765.487586,717.596827 C765.487586,720.29755 764.722705,722.789668 763.432839,724.795393 C764.051697,725.523072 764.816577,726.453792 765.612748,727.49542 C770.504504,719.613677 775.198088,712.906025 776.797383,710.655887 C777.061614,710.281443 777.638751,710.300565 777.868215,710.690306 L778.372341,711.540714 L778.379836,711.549097 C778.620237,711.820614 784.549012,718.71122 782.45402,735.595154 C782.45402,735.595154 782.393105,734.892204 782.253595,733.741865 L782.201063,733.317703 C781.63323,728.824981 780.026655,718.95904 776.564442,715.526783 C772.712227,720.400808 769.524067,724.993219 766.888707,729.22996 C768.978221,732.202215 770.859131,735.60628 770.452354,737.797314 C770.202029,739.14246 769.294603,740.337411 768.136853,741.356093 C768.578397,743.328093 768.950407,745.301484 769.256359,747.22933 C770.188122,753.085879 770.601853,758.415703 768.922593,764.052523 C768.647932,764.972813 767.851761,765.580197 766.975625,765.537433 C765.255709,765.45314 761.391406,765.447667 757.366911,765.471603 L756.358598,765.478171 C752.489409,765.505478 748.624957,765.556014 746.511603,765.586291 C745.586793,765.599319 744.808006,764.897368 744.728041,763.97673 L743.55986,750.909099 C743.403408,748.849833 743.243478,746.785352 743.149606,744.720523 C743.118316,744.072808 743.107886,743.425094 743.118316,742.779813 C741.616369,741.698203 740.32998,740.163575 739.714599,737.985405 C737.976235,731.833334 744.27259,725.425724 746.250848,723.598703 C745.374713,721.832873 744.874064,719.782994 744.874064,717.596827 C744.874064,710.963577 749.487682,705.586469 755.182563,705.586469 Z M757.397239,723.008702 L752.936597,723.008702 L752.937258,723.032035 C752.946517,723.244726 753.0854,724.839617 755.168656,724.830856 C757.838783,724.819382 757.397239,723.008702 757.397239,723.008702 Z M755.00525,711.568528 C751.521568,711.568528 748.694988,713.547134 748.694988,715.987797 C748.694988,717.97579 750.568945,719.656789 753.148677,720.21237 L752.950503,720.21237 L752.950503,722.025484 L757.411146,722.025484 L757.411146,720.21237 L756.861823,720.21237 C759.438078,719.656789 761.312035,717.97579 761.312035,715.987797 C761.312035,713.547134 758.488932,711.568528 755.00525,711.568528 Z M754.935715,717.929898 C755.113028,717.244287 755.711026,717.244287 755.888339,717.929898 L756.12128,718.829675 L754.706251,718.829675 Z M751.900531,714.831785 C752.874015,714.831785 753.666709,715.34947 753.666709,715.987797 C753.666709,716.626125 752.874015,717.143809 751.900531,717.143809 C750.923571,717.143809 750.130877,716.626125 750.130877,715.987797 C750.130877,715.34947 750.923571,714.831785 751.900531,714.831785 Z M758.464594,714.831785 C759.438078,714.831785 760.230772,715.34947 760.230772,715.987797 C760.230772,716.626125 759.438078,717.143809 758.464594,717.143809 C757.487634,717.143809 756.69494,716.626125 756.69494,715.987797 C756.69494,715.34947 757.487634,714.831785 758.464594,714.831785 Z" id="66"></path>
        </g>
    </g>
</svg>
