<?xml version="1.0" encoding="UTF-8"?>
<svg width="40px" height="61px" viewBox="0 0 40 61" version="1.1" xmlns="http://www.w3.org/2000/svg" xmlns:xlink="http://www.w3.org/1999/xlink">
    <title>25</title>
    <g id="页面-1" stroke="none" stroke-width="1" fill="none" fill-rule="evenodd">
        <g id="形状库素材-节日" transform="translate(-569.000000, -398.000000)" fill="#545458">
            <path d="M579.732784,427.876451 L581.476361,427.876451 L583.785023,448.85178 C583.785023,448.85219 584.376315,451.614558 585.764461,453.141109 C587.152606,454.668479 587.522779,453.650096 589.142282,454.773716 C590.71455,455.863493 590.499255,456.395476 592.093295,456.803226 L592.243292,456.839964 C593.863703,457.220726 595.994986,458.253356 596.319336,458.412995 L596.345532,458.426178 C596.234758,458.375205 595.526313,458.084718 593.60605,458.000028 C591.497625,457.907894 591.919392,458.463152 590.253208,457.813304 C588.587433,457.163865 587.56946,458.185523 586.551077,458.370609 C585.533103,458.555695 584.052415,458.323928 583.5897,457.813304 C583.126575,457.30227 581.692158,456.427206 581.321986,454.761022 C580.951814,453.095247 582.837071,451.112942 582.837071,451.112942 L579.732784,427.876451 Z M591.045556,398.433844 L595.194432,408.544375 L595.25135,408.541509 C601.140381,407.140596 604.721661,404.982511 605.490229,404.488989 L605.646472,404.386081 C603.980697,405.902394 601.408738,407.530497 597.367146,408.803578 C598.158676,408.964504 599.102123,409.254418 600.053351,409.778965 L600.296752,409.910937 C602.552639,411.113314 604.35286,411.484982 604.70671,410.318663 C605.073606,409.110689 604.396322,408.85681 603.635094,408.969418 L603.633633,408.942345 C603.635792,408.84547 603.712137,408.535559 604.650611,408.800302 C605.750071,409.110689 606.124747,410.464438 604.80908,411.366938 C603.890611,411.997541 602.692056,411.911549 601.726087,411.687562 C602.077832,412.444286 602.990159,413.876656 604.875826,413.93644 C607.442462,414.017518 608.457569,411.395192 608.457569,411.395192 L608.504267,411.765688 C608.603058,412.625654 608.789541,414.749137 608.344961,415.607947 C607.780694,416.696761 605.044942,417.60786 603.409469,416.362624 L603.42685,416.393411 C603.507027,416.518037 603.905632,416.986358 605.440093,417.152925 C607.216837,417.345382 608.034574,416.759003 608.034574,416.759003 L607.951481,416.845908 C607.528201,417.273387 605.519183,419.124536 602.648241,418.925165 C600.246627,418.757687 599.315873,417.957967 598.993611,417.553399 C598.111585,418.212665 597.021953,418.732299 595.796781,419.016479 L596.077277,420.195379 L603.734598,425.993241 L598.573072,430.688367 L600.934148,440.617088 L600.887091,440.660209 C600.71138,440.81656 600.043412,441.371789 598.880184,441.890169 L597.657469,449.571241 L598.083741,449.708008 L597.1665,455.906344 L598.840874,457.813304 L595.902837,456.839964 L595.854109,448.992642 L595.880315,449.001241 L595.857794,442.750492 C595.339389,442.827475 594.780446,442.876203 594.181782,442.890944 L594.307123,444.431449 C594.386694,445.436906 594.480453,446.675365 594.568045,447.963759 L594.639174,449.045056 L594.857838,448.992642 L595.349626,456.839964 L592.473831,456.839964 L594.11258,455.906344 L591.862064,449.708008 L593.044649,449.425875 L591.349802,442.610449 C587.066615,441.449566 584.754268,437.02388 584.754268,437.02388 L591.395664,424.074407 L587.212574,426.144462 C586.864707,426.313862 586.633819,426.423893 586.608404,426.430159 L586.587419,426.431986 C586.407005,426.439685 585.172914,426.409243 583.81418,426.371691 L581.040262,426.291345 L581.476361,427.876451 L578.626363,427.536171 L578.371255,425.442078 L579.590694,424.897876 L579.154643,423.255265 C578.769551,421.820341 578.227831,419.84085 577.643671,417.827355 L577.263368,416.533142 C576.263662,413.176907 575.213591,410.032075 574.64906,409.494784 C574.223175,409.0898 573.5269,408.289869 572.786255,407.401282 L572.398298,406.932821 L571.730181,406.114225 C570.599468,404.718054 569.617749,403.455737 569.617749,403.455737 L570.79542,401.422247 L576.361515,410.230214 L580.525542,424.480204 L580.540693,424.473652 L580.786383,425.367962 L586.225538,424.985096 L593.103615,420.744905 L593.866071,419.258484 L593.876718,419.25357 C592.875533,419.280596 591.982452,419.177816 591.21672,418.948096 L591.154168,419.054424 C590.940364,419.400737 590.192339,420.496117 589.124674,420.882081 C587.850365,421.343159 586.225538,421.262081 586.225538,421.262081 C587.474869,421.099107 587.992046,419.906285 587.992046,419.906285 L587.918113,419.978599 C587.556614,420.31733 585.904164,421.698034 583.729743,420.909107 C581.262611,420.014798 582.049227,416.308981 582.049227,416.308981 L582.054959,416.307753 C581.810089,416.2234 581.574227,416.119801 581.357201,415.98549 C579.401923,414.775879 579.116104,411.850537 581.023064,411.227304 C582.930433,410.603662 583.788708,412.606441 583.788708,412.606441 L583.71929,412.525791 C583.470969,412.249809 582.591003,411.377679 581.64302,411.700256 C580.593517,412.057735 580.652892,414.850814 583.07498,415.031396 C582.787524,414.877021 582.531188,414.624371 582.286317,414.248466 C581.616404,413.220665 582.581144,412.894307 582.581144,412.894307 C581.799852,414.713228 585.03722,414.628875 585.975344,414.568681 C587.345502,414.078662 588.189074,413.258528 588.713872,412.248899 L588.770881,412.135946 C589.096829,411.470946 589.626699,410.866141 590.209393,410.379266 C590.024307,410.405746 589.837765,410.431498 589.64916,410.456764 L589.364631,410.494331 C581.374662,411.523143 577.732618,409.697017 577.028048,409.282821 L576.898756,409.202004 C582.296554,410.000904 587.041227,409.880926 591.045556,409.326896 L591.045556,398.433844 Z M598.227059,429.235114 L601.538953,426.198392 L596.680854,422.733352 L598.227059,429.235114 Z" id="25"></path>
        </g>
    </g>
</svg>
