<?xml version="1.0" encoding="UTF-8"?>
<svg width="53px" height="61px" viewBox="0 0 53 61" version="1.1" xmlns="http://www.w3.org/2000/svg" xmlns:xlink="http://www.w3.org/1999/xlink">
    <title>47</title>
    <g id="页面-1" stroke="none" stroke-width="1" fill="none" fill-rule="evenodd">
        <g id="形状库素材-节日" transform="translate(-802.000000, -551.000000)" fill="#545458">
            <path d="M840.911345,596.890927 C840.818663,596.834756 840.785897,596.746179 840.756587,596.660482 C840.760836,596.59711 840.766957,596.533738 840.770774,596.469646 C840.896006,594.396366 840.196751,593.757603 838.984326,592.328128 C838.930244,592.179059 838.874433,592.029991 838.815093,591.883082 C838.76454,591.757058 838.725796,591.624553 838.733502,591.481245 C838.7667,590.858325 838.75705,590.823758 838.263467,590.586833 C837.839017,590.382313 837.411327,590.190036 837.017627,589.914223 C836.892755,589.58584 836.845154,589.22217 836.918752,588.803049 C837.009706,588.28527 837.240582,587.825101 837.488526,587.370694 C837.552906,587.670991 837.607061,587.97489 837.647965,588.283109 C837.698446,588.663342 837.863934,588.903869 838.192029,589.003968 C838.324175,589.043576 838.455024,589.090385 838.588826,589.122071 C839.075495,589.238013 839.424403,589.559195 839.677243,590.029446 C839.96285,590.561628 840.175651,591.125497 840.292458,591.734734 C840.396302,592.276998 840.505259,592.818543 840.615224,593.359367 C840.814198,594.338035 840.930933,595.330386 841.005035,596.329219 C841.018862,596.515734 841.059694,596.723134 840.911345,596.890927 Z M837.004377,599.434456 C836.839465,599.430856 836.674697,599.426535 836.509857,599.422934 C836.147052,599.413572 835.856908,599.118316 835.852083,598.756086 C835.850066,598.600536 835.847906,598.445706 835.84553,598.290156 C835.839552,597.902722 836.15807,597.588741 836.545432,597.603144 C836.70984,597.609625 836.874896,597.616827 837.039447,597.624028 C837.39534,597.639871 837.679291,597.929367 837.684476,598.285835 C837.68678,598.439225 837.689661,598.592614 837.693189,598.745284 C837.702119,599.129118 837.387923,599.443098 837.004377,599.434456 Z M835.711656,596.602871 C835.592761,596.384669 835.661966,595.948985 835.643747,595.699817 C835.614581,595.30014 835.937131,594.963116 836.337672,594.976078 C836.563796,594.984 836.7928,594.992641 837.021876,595.002003 C837.3957,595.017846 837.682603,595.334707 837.666472,595.708459 C837.659919,595.860408 837.653942,596.011637 837.648541,596.163587 C837.63529,596.533738 837.329663,596.826114 836.959368,596.816752 C836.56646,596.807391 835.895939,596.942057 835.711656,596.602871 Z M834.478922,584.915741 C834.17704,584.863171 833.981811,584.457013 834.037765,584.007646 C834.060666,583.823291 834.083134,583.639655 834.105098,583.4553 C834.159397,583.000172 834.449181,582.666028 834.755168,582.711396 C834.942692,582.738762 835.129928,582.767567 835.314787,582.797093 C835.642018,582.848943 835.842865,583.311992 835.747159,583.790164 C835.687531,584.088302 835.665207,584.626245 835.529461,584.870372 C835.31882,585.249165 834.799312,584.971192 834.478922,584.915741 Z M835.316012,586.88604 C835.286126,587.073276 835.256384,587.260512 835.226786,587.447748 C835.157581,587.885593 834.869094,588.193092 834.573261,588.141242 C834.438811,588.118198 834.304433,588.094433 834.170127,588.070668 C833.857515,588.015938 833.659189,587.583134 833.735451,587.120805 C833.765985,586.93573 833.795943,586.751374 833.825397,586.566299 C833.89381,586.136376 834.176176,585.835358 834.467688,585.876406 C834.602498,585.89585 834.737596,585.916013 834.872046,585.936177 C835.188835,585.984427 835.39069,586.41867 835.316012,586.88604 Z M835.010673,596.188071 C834.997422,596.558223 834.691795,596.850599 834.3215,596.841237 C833.928592,596.831875 833.258071,596.966541 833.073716,596.628076 C832.954893,596.409154 833.024098,595.97347 833.005879,595.724302 C832.976641,595.324625 833.299263,594.9876 833.699804,595.001283 C833.925928,595.008484 834.154932,595.017126 834.384008,595.026488 C834.757832,595.042331 835.044735,595.359192 835.028604,595.733664 C835.022051,595.884893 835.016074,596.036122 835.010673,596.188071 Z M834.128647,599.424375 C833.963807,599.420774 833.798967,599.417173 833.6342,599.412852 C833.271394,599.404211 832.981178,599.108954 832.976425,598.746004 C832.974409,598.591174 832.972176,598.435624 832.9698,598.280794 C832.963823,597.89336 833.282412,597.578659 833.669775,597.593782 C833.834182,597.600263 833.999166,597.606745 834.163718,597.614666 C834.519682,597.630509 834.803561,597.920005 834.808818,598.275753 C834.81105,598.429143 834.813931,598.582532 834.817532,598.735922 C834.826389,599.119756 834.512265,599.433016 834.128647,599.424375 Z M832.239219,587.66163 C832.104841,587.637865 831.970463,587.614821 831.836158,587.591056 C831.523473,587.535605 831.325147,587.102802 831.401482,586.640473 C831.432016,586.456117 831.461901,586.271042 831.491355,586.085966 C831.559768,585.656043 831.842207,585.355025 832.133719,585.396794 C832.268529,585.415517 832.403555,585.435681 832.538077,585.456565 C832.854866,585.504814 833.056721,585.938338 832.982042,586.406428 C832.952156,586.593664 832.922415,586.78018 832.892817,586.967416 C832.823612,587.40598 832.535124,587.712759 832.239219,587.66163 Z M831.902842,583.526593 C831.925671,583.342958 831.948139,583.158603 831.970175,582.974247 C832.024402,582.51984 832.314186,582.185695 832.620172,582.230344 C832.807697,582.257709 832.995005,582.286515 833.179792,582.31604 C833.507095,582.36861 833.70787,582.83166 833.612236,583.309832 C833.552608,583.607249 833.530284,584.145913 833.394466,584.39004 C833.183897,584.768112 832.664389,584.490859 832.343999,584.434688 C832.042117,584.382118 831.846888,583.97668 831.902842,583.526593 Z M833.540366,575.8744 C833.649755,575.880161 833.758856,575.891683 833.868245,575.895284 C834.193531,575.907526 834.492677,575.837673 834.735652,575.56546 C834.80817,575.484085 834.882344,575.372463 835.051433,575.438716 C835.03703,575.987462 834.891922,576.523245 834.795783,577.06839 C834.762801,576.909959 834.729171,576.75657 834.690355,576.613262 C834.579454,576.203503 833.362707,576.189821 832.817562,576.148773 C832.983482,575.884482 833.251806,575.857837 833.540366,575.8744 Z M836.331119,578.838491 C836.187667,578.823368 836.042776,578.803204 835.904581,578.775118 C835.965217,578.630371 836.037951,578.497865 836.200702,578.540353 C836.311315,578.569879 836.32399,578.702384 836.331119,578.838491 Z M835.413878,575.174425 C835.53839,574.326102 835.58916,574.26561 836.339329,574.181354 C836.638258,574.147507 836.941076,574.11078 837.238206,574.196477 C837.453599,574.258409 837.498248,574.388034 837.390083,574.607676 C837.357317,574.674649 837.313028,574.735861 837.266363,574.792032 C836.879145,575.255081 836.667928,575.815349 836.544496,576.427466 C836.499127,576.65215 836.427186,576.870352 836.373967,577.093595 C836.315276,577.339882 836.203943,577.547282 836.033558,577.712914 C835.772868,577.966403 835.595209,578.281103 835.482796,578.641173 C835.326598,578.566278 835.20367,578.464019 835.138353,578.322151 C835.056474,578.144997 834.994902,577.944078 834.942404,577.735958 C835.154484,576.895557 835.28735,576.035711 835.413878,575.174425 Z M838.060316,575.409911 C838.641828,575.72029 839.245448,575.968018 839.844099,576.230869 C839.992304,576.295681 840.11732,576.432507 840.247809,576.544129 C840.531472,576.786816 840.810165,577.045345 841.149135,577.179291 C841.543555,577.335561 841.735328,577.658183 841.821744,578.092427 C841.851702,578.242216 841.89131,578.390564 841.920043,578.541073 C842.040018,579.169034 841.440431,580.281649 840.883764,580.432158 C840.683565,580.486888 840.542274,580.586267 840.419778,580.771343 C840.24961,581.027712 840.074328,581.280481 839.89667,581.531089 C840.324288,580.635237 840.896438,579.412441 840.719644,578.963795 C840.483511,578.364639 838.874649,577.814454 838.341242,578.178844 C838.087249,578.352397 837.478372,578.973877 837.126872,578.916266 C836.978236,578.891781 836.780774,578.878818 836.567829,578.860815 C836.572438,578.578521 836.592457,578.297667 836.687876,578.026174 C836.899524,577.424858 837.105556,576.820662 837.328079,576.224387 C837.412335,575.998264 837.532526,575.789424 837.642996,575.576983 C837.738342,575.393347 837.882658,575.314852 838.060316,575.409911 Z M829.534378,599.434456 C829.369539,599.430856 829.204699,599.426535 829.039931,599.422934 C828.677053,599.413572 828.386909,599.118316 828.382156,598.756086 C828.380068,598.600536 828.377908,598.445706 828.375531,598.290156 C828.369554,597.902722 828.688143,597.588741 829.075506,597.603144 C829.239914,597.609625 829.404897,597.616827 829.569449,597.624028 C829.925414,597.639871 830.209292,597.929367 830.214549,598.285835 C830.216782,598.439225 830.219662,598.592614 830.223263,598.745284 C830.232121,599.129118 829.917924,599.443098 829.534378,599.434456 Z M828.241657,596.602871 C828.122835,596.384669 828.191968,595.948985 828.17382,595.699817 C828.144583,595.30014 828.467133,594.963116 828.867674,594.976078 C829.093869,594.984 829.322874,594.992641 829.551878,595.002003 C829.925702,595.017846 830.212605,595.334707 830.196474,595.708459 C830.189921,595.860408 830.184015,596.011637 830.178614,596.163587 C830.165292,596.533738 829.859737,596.826114 829.489442,596.816752 C829.096462,596.807391 828.426013,596.942057 828.241657,596.602871 Z M827.540674,596.188071 C827.527424,596.558223 827.221869,596.850599 826.851574,596.841237 C826.458594,596.831875 825.788073,596.966541 825.603789,596.628076 C825.484895,596.409154 825.5541,595.97347 825.535952,595.724302 C825.506715,595.324625 825.829265,594.9876 826.229806,595.001283 C826.45593,595.008484 826.685006,595.017126 826.91401,595.026488 C827.287834,595.042331 827.574737,595.359192 827.558606,595.733664 C827.552053,595.884893 827.546147,596.036122 827.540674,596.188071 Z M826.658649,599.424375 C826.493809,599.420774 826.329041,599.417173 826.164201,599.412852 C825.801396,599.404211 825.51118,599.108954 825.506427,598.746004 C825.50441,598.591174 825.50225,598.435624 825.499873,598.280794 C825.493896,597.89336 825.812414,597.578659 826.199776,597.593782 C826.364184,597.600263 826.529168,597.606745 826.693791,597.614666 C827.049756,597.630509 827.333563,597.920005 827.33882,598.275753 C827.341124,598.429143 827.344005,598.582532 827.347533,598.735922 C827.356463,599.119756 827.042266,599.433016 826.658649,599.424375 Z M820.772595,574.11078 C820.628495,574.132385 820.484468,574.153989 820.340296,574.174873 C820.023075,574.220962 819.726882,574.019323 819.669271,573.718305 C819.64457,573.5894 819.619797,573.461215 819.59488,573.33231 C819.532516,573.011129 819.763609,572.702909 820.10301,572.657541 C820.24711,572.638817 820.391858,572.620093 820.536174,572.60137 C820.848426,572.561762 821.138354,572.76052 821.195461,573.055777 C821.220017,573.182522 821.24515,573.309986 821.270859,573.436731 C821.335168,573.754312 821.107892,574.061091 820.772595,574.11078 Z M819.037205,571.210062 C818.952877,570.881679 819.183969,570.554015 819.534749,570.505766 C819.732787,570.478401 819.933418,570.451756 820.134336,570.425111 C820.462143,570.383343 820.758697,570.603705 820.799744,570.916965 C820.81638,571.04371 820.833591,571.170454 820.851234,571.297199 C820.894227,571.606858 820.6712,571.894914 820.347497,571.942443 C820.003991,571.993573 819.440051,572.204573 819.229482,571.950364 C819.093808,571.786173 819.089775,571.413861 819.037205,571.210062 Z M818.267161,574.529901 C818.123133,574.551505 817.979033,574.572389 817.834934,574.593273 C817.517712,574.640082 817.221519,574.437723 817.163836,574.136705 C817.139208,574.008521 817.114435,573.879616 817.089518,573.750711 C817.027154,573.429529 817.258174,573.12131 817.597648,573.076661 C817.741748,573.057217 817.886423,573.038494 818.030811,573.02049 C818.343063,572.980883 818.632991,573.178921 818.690098,573.474178 C818.714655,573.601642 818.739788,573.728387 818.765497,573.855131 C818.829805,574.172712 818.602457,574.480211 818.267161,574.529901 Z M818.65726,602.219233 C818.56681,603.151812 818.623485,604.089433 818.413205,605.01049 C818.193779,605.972595 817.667645,605.989159 816.794549,605.987778 C816.536524,605.986998 816.327395,605.806243 816.325451,605.58156 C816.305503,603.215905 816.259486,600.849529 816.23529,598.483153 C816.232769,598.239746 816.231617,597.995619 816.230605,597.752213 C816.229312,597.442553 816.610914,597.240194 816.923094,597.389263 C817.172982,597.508806 817.411996,597.678038 817.629622,597.902722 C818.732946,599.041981 818.801432,600.735027 818.65726,602.219233 Z M817.241467,570.916965 C817.439505,570.89032 817.640208,570.862955 817.841055,570.83703 C818.168862,570.794542 818.465415,571.015624 818.506535,571.328885 C818.52317,571.455629 818.540309,571.582374 818.557953,571.709118 C818.601017,572.018778 818.37799,572.306833 818.054288,572.354362 C817.71071,572.404772 817.146769,572.616493 816.9362,572.362284 C816.800526,572.198092 816.796566,571.82578 816.743995,571.621261 C816.659595,571.293598 816.89076,570.965215 817.241467,570.916965 Z M814.930614,605.987718 L813.70573,605.987718 C812.886717,605.987718 812.82997,602.161622 812.823921,601.47821 C812.810526,599.954397 813.112264,598.210221 814.597118,597.438232 C814.908722,597.276921 815.304366,597.472799 815.306887,597.78822 C815.326114,600.197803 815.37314,602.606667 815.397696,605.016251 C815.399641,605.202767 815.400433,605.390003 815.401156,605.576519 C815.402017,605.803363 815.191305,605.987718 814.930614,605.987718 Z M809.819142,591.933492 C809.558092,592.162496 809.144876,592.106325 809.038368,591.834113 C808.950655,591.60943 808.867839,591.383306 808.787759,591.155742 C808.716106,590.951943 808.850772,590.713577 809.091946,590.609877 C809.264059,590.534983 809.435812,590.460088 809.606845,590.383754 C809.903614,590.250528 810.234734,590.385914 810.254898,590.655966 C810.255042,590.658127 810.255186,590.659567 810.25533,590.661727 C810.29717,591.239278 810.181156,591.615911 809.819142,591.933492 Z M808.308867,589.751472 C808.151949,589.297065 807.987109,588.846258 807.796057,588.406253 C807.746871,588.292471 807.83444,588.151324 807.980196,588.118918 C807.981204,588.118918 807.98214,588.118198 807.983149,588.118198 C808.884114,587.917279 809.375249,588.238461 809.675979,588.879384 C809.714146,588.96076 809.752169,589.042135 809.789544,589.123511 C809.882154,589.32587 809.754186,589.58368 809.508546,589.697462 C809.321238,589.783878 809.133066,589.868134 808.944174,589.951671 C808.679307,590.068333 808.386426,589.976155 808.308867,589.751472 Z M807.892771,592.719884 C807.412079,592.746529 807.065692,592.558573 806.69122,592.116407 C806.690068,592.114967 806.688843,592.114247 806.687691,592.112807 C806.512841,591.905407 806.654709,591.577024 806.959687,591.463962 C807.135473,591.399149 807.310827,591.332897 807.485821,591.265203 C807.730956,591.170865 807.993807,591.24648 808.085048,591.442358 C808.187092,591.66056 808.286471,591.880922 808.380881,592.102725 C808.495311,592.371336 808.239446,592.70044 807.892771,592.719884 Z M805.947677,590.691973 C805.917287,590.607717 805.887473,590.522741 805.857803,590.438484 C805.623974,589.769475 805.750143,589.196965 806.534302,588.709431 C806.535166,588.709431 806.535958,588.708711 806.536822,588.707991 C806.663783,588.629496 806.825166,588.669104 806.86931,588.784326 C807.040847,589.232252 807.238741,589.670096 807.444557,590.10434 C807.546384,590.318941 807.401565,590.589713 807.13072,590.691973 C806.937651,590.764707 806.744006,590.836001 806.549641,590.905134 C806.294711,590.995872 806.023003,590.901533 805.947677,590.691973 Z M851.61563,599.535996 C851.666904,599.034059 851.713641,598.547246 851.767291,598.061152 C851.810284,597.671557 851.835632,597.629789 852.185188,597.720526 C852.278662,597.745011 852.370335,597.760134 852.460713,597.768776 C852.517244,597.777417 852.574711,597.780298 852.63297,597.777417 C852.988142,597.775257 853.32099,597.660035 853.644189,597.485761 C853.74472,597.440393 853.843955,597.392143 853.93959,597.338133 C854.190126,597.196266 854.465723,597.037835 854.634883,596.797309 C854.797131,596.566864 854.841563,596.275208 854.788921,596.000835 C854.679244,595.430486 854.160744,595.007764 853.645197,594.798924 C853.54913,594.760036 853.381842,594.944392 853.48403,595.009925 C853.915465,595.286458 854.41805,595.55651 854.514548,596.112457 C854.621921,596.730336 854.042497,596.980224 853.558132,597.161699 C853.299386,597.258197 853.029262,597.333092 852.75561,597.37342 C852.621376,597.393584 852.514723,597.405106 852.407495,597.313648 C852.319206,597.238034 852.242943,597.148016 852.156526,597.069521 C851.82519,596.770664 851.44647,596.510694 851.038223,596.325618 C850.629544,595.891374 850.304546,595.371434 849.996686,594.82989 C849.454998,593.876426 849.69538,593.976526 848.602714,594.008212 C848.405036,594.013973 848.138153,594.119113 848.031644,593.89803 C847.921391,593.669026 848.098185,593.416978 848.226514,593.230462 C848.540566,592.773894 848.756968,592.261875 848.966888,591.742655 C849.129711,591.340098 849.425544,591.095971 849.774812,590.93394 C850.009001,590.824479 850.097578,590.879209 850.159726,591.160063 C850.262562,591.625273 850.300009,592.102005 850.326942,592.579457 C850.332199,592.673075 850.272139,592.797659 850.406229,592.860311 C850.543128,592.593139 850.569557,592.307244 850.55537,592.011267 C850.536934,591.626713 850.508201,591.242159 850.501504,590.857605 C850.497975,590.653086 850.498551,590.545785 850.539959,590.487454 C850.630696,590.462249 850.72129,590.436324 850.812531,590.412559 C850.834208,590.411119 850.857108,590.410399 850.881881,590.408959 C850.904997,590.408238 850.92761,590.393116 850.922425,590.394556 C850.917312,590.392395 850.912127,590.390955 850.907014,590.388075 C850.981044,590.368631 851.055002,590.349907 851.129104,590.330464 C851.381369,590.266371 851.637882,590.193637 851.846219,590.030166 C852.230412,589.728428 852.412896,589.227211 852.314525,588.748319 C852.218602,588.281669 851.828503,587.789094 851.318213,587.771811 C850.901757,587.758128 850.452822,588.273747 850.795968,588.642458 C850.839249,588.689267 850.948854,588.570445 850.91119,588.519315 C850.729355,588.273027 851.0038,588.019539 851.251672,588.049784 C851.521076,588.08147 851.73971,588.298232 851.866959,588.524356 C852.109933,588.956439 852.026685,589.544792 851.572206,589.801162 C851.344138,589.930066 851.06602,589.963913 850.814188,590.022244 C850.55789,590.082016 850.302529,590.146828 850.051345,590.226043 C850.038238,590.229644 850.025492,590.235405 850.012385,590.239006 C849.805129,590.25917 849.595929,590.304539 849.386585,590.359989 C848.972145,590.46945 848.571028,590.6214 848.200445,590.863366 C847.91599,591.049162 847.626926,591.222715 847.319715,591.358101 C847.200892,591.410671 847.057224,591.447399 847.012648,591.613751 C847.093807,591.700887 847.177055,591.685764 847.258647,591.687925 C847.390216,591.690805 847.567875,591.589986 847.639889,591.743376 C847.714495,591.901806 847.567587,592.054475 847.50227,592.202824 C847.472312,592.270517 847.423055,592.328128 847.379126,592.386459 C846.992052,592.9064 846.5972,593.418418 846.218551,593.94556 C845.808072,594.51663 845.328315,595.025768 845.013471,595.683974 C844.944482,595.828002 844.874052,595.988593 844.745003,596.108136 C844.68516,595.778312 844.631221,595.447769 844.593558,595.112184 C844.551358,594.735552 844.512758,594.354598 844.500948,593.975805 C844.495547,593.802972 844.496411,593.605654 844.608177,593.463067 C844.728656,593.308957 844.859505,593.380971 845.020888,593.352885 C845.091246,593.340643 845.192929,593.233342 845.14396,593.157008 C844.934688,592.831505 844.464077,593.11812 844.311624,593.353606 C844.221894,593.492592 844.17703,593.652463 844.157154,593.819535 C844.15521,593.814494 844.153913,593.808733 844.151969,593.803692 C844.082692,594.028376 844.118627,594.145038 844.132813,594.26026 C844.145056,594.359639 844.157442,594.459018 844.169828,594.558398 C844.171989,594.586483 844.174221,594.615289 844.176022,594.641934 C844.216349,595.254052 844.28145,595.880572 844.394296,596.49413 C844.386878,596.567584 844.362465,596.640318 844.300822,596.710892 C844.132381,596.540219 844.10768,596.317696 844.054894,596.118218 C843.855416,595.364953 843.63995,594.618169 843.392079,593.882908 C843.065064,592.912881 842.878044,591.901806 842.727967,590.88209 C842.666971,590.46729 842.650696,590.046729 842.806678,589.652813 C842.963524,589.257457 843.077738,588.846258 843.205059,588.439379 C843.315024,588.088672 843.449402,587.750927 843.611361,587.427585 C843.775336,586.966696 843.999732,586.52165 844.244075,586.088847 C844.256245,585.940498 844.270648,585.79215 844.289443,585.643801 C844.327899,585.339903 844.445858,585.123861 844.751124,585.096496 C844.88651,585.084253 845.019016,585.034564 845.15397,585.010079 C845.544501,584.939505 845.936545,584.904219 846.245196,584.552791 C846.393977,584.383558 846.508335,584.464214 846.510495,584.725624 C846.514456,585.203076 846.501205,585.680528 846.497965,586.1587 C846.496956,586.309929 846.495516,586.464039 846.593887,586.651995 C846.609442,586.434513 846.624061,586.281844 846.630686,586.128454 C846.651354,585.650282 846.69305,585.174991 846.769313,584.70402 C846.790629,584.572235 846.779971,584.398681 846.930336,584.364835 C847.051679,584.33747 847.118796,584.418125 847.173527,584.515344 C847.186057,584.556392 847.199092,584.596719 847.212342,584.637047 C847.308121,584.925103 847.429536,585.207397 847.556713,585.48321 C847.578821,585.531459 847.603666,585.578989 847.630815,585.625077 C847.65782,585.693491 847.694763,585.755423 847.758567,585.797911 C847.838287,585.881447 847.93565,585.945539 848.058145,585.970024 C848.282756,586.014672 848.501318,585.89729 848.663278,585.7403 C848.691291,585.720136 848.718152,585.698532 848.743861,585.675487 C848.833806,585.593391 848.904956,585.472408 848.929873,585.352865 C848.957094,585.22252 848.944996,585.090735 848.881696,584.972632 C848.826461,584.868932 848.732843,584.784676 848.628495,584.732826 C848.573044,584.70546 848.509816,584.688177 848.4481,584.683136 C848.420303,584.680976 848.392145,584.680256 848.365212,584.687457 C848.323732,584.698259 848.354986,584.688177 848.362548,584.687457 C848.355202,584.688177 848.348073,584.689617 848.3408,584.691058 C848.296799,584.70114 848.256975,584.724184 848.220176,584.749389 C848.154212,584.796198 848.105746,584.935905 848.219528,584.952468 C848.241204,584.956069 848.262016,584.96255 848.283476,584.966151 C848.290102,584.966871 848.323372,584.971192 848.293558,584.96543 C848.320636,584.970471 848.360315,584.979833 848.379399,584.986314 C848.402371,584.994236 848.424696,585.004318 848.4463,585.01512 C848.458182,585.020881 848.469488,585.028083 848.480939,585.034564 C848.483099,585.035284 848.482307,585.034564 848.483675,585.036004 C848.484971,585.036724 848.484107,585.036004 848.486268,585.038164 C848.506864,585.054728 848.526883,585.071291 848.545103,585.090014 C848.546183,585.091455 848.557921,585.105857 848.563971,585.112339 C848.566851,585.11666 848.569732,585.12026 848.572396,585.124581 C848.580822,585.137544 848.608331,585.17211 848.606675,585.188673 C848.599473,585.16851 848.598609,585.166349 848.604226,585.182912 C848.605955,585.187953 848.607539,585.193714 848.608979,585.198755 C848.61258,585.211718 848.614452,585.22468 848.617549,585.236923 C848.617981,585.239083 848.618197,585.239083 848.618557,585.240523 C848.618557,585.241244 848.618485,585.241244 848.618485,585.241964 C848.618269,585.257807 848.618629,585.27293 848.617333,585.288053 C848.616973,585.292373 848.616541,585.295974 848.616181,585.299575 C848.615316,585.306056 848.615316,585.306776 848.615172,585.308216 C848.613012,585.314698 848.610131,585.321179 848.609195,585.32478 C848.607035,585.331981 848.604658,585.339903 848.602066,585.347104 C848.599041,585.355025 848.598321,585.357186 848.598609,585.356466 C848.595513,585.361507 848.592056,585.367268 848.591264,585.368708 C848.585647,585.37879 848.579165,585.388872 848.573476,585.398954 C848.571892,585.401114 848.572684,585.399674 848.571676,585.401834 C848.570164,585.403275 848.568723,585.405435 848.567211,585.406875 C848.56001,585.415517 848.526379,585.442162 848.520618,585.453684 C848.516873,585.456565 848.513201,585.459446 848.509312,585.462326 C848.499734,585.468807 848.489796,585.474568 848.479858,585.48033 C848.479066,585.48105 848.478994,585.48105 848.478274,585.48177 C848.476906,585.48249 848.47633,585.48249 848.474457,585.48321 C848.462359,585.488971 848.450261,585.494732 848.437658,585.499053 C848.431825,585.501214 848.409141,585.506255 848.404964,585.509855 C848.405612,585.509855 848.405396,585.509855 848.405972,585.509855 C848.390417,585.512016 848.375366,585.514896 848.36154,585.522098 C848.305873,585.548023 848.255031,585.598432 848.241276,585.660364 C848.212111,585.663965 848.182513,585.663965 848.152339,585.655323 C847.971584,585.603473 847.88488,585.342063 847.819563,585.189394 C847.717303,584.950308 847.61778,584.709781 847.542454,584.461333 C847.4937,584.300022 847.464751,584.140872 847.444803,583.979561 C847.492404,583.968038 847.552248,583.959397 847.629663,583.953636 C848.039998,583.92339 848.450045,583.961557 848.859731,583.991803 C849.124166,584.011247 849.354971,584.068138 849.342368,584.457013 C849.340064,584.529747 849.375423,584.616883 849.457951,584.618324 C849.545736,584.620484 849.560138,584.531187 849.570436,584.456292 C849.595641,584.273377 849.648787,584.124308 849.846177,584.127909 C850.03435,584.13079 850.199621,584.193442 850.298064,584.387159 C850.387578,584.563593 850.408678,584.765952 850.454046,584.959669 C850.492142,585.122421 850.467801,585.316138 850.636025,585.494732 C850.633361,585.158428 850.643083,584.881174 850.625583,584.606801 C850.617518,584.478617 850.618958,584.359074 850.651869,584.256094 C850.808139,584.274097 850.964265,584.292101 851.120607,584.309384 C851.342626,584.333149 851.571198,584.345391 851.787959,584.401562 C851.951647,584.44405 852.11591,584.524706 852.182379,584.689617 C852.229116,584.80628 852.231349,584.953188 852.148101,585.054728 C852.109429,585.102257 852.081344,585.235482 852.187636,585.204516 C852.419665,585.136823 852.523149,584.919342 852.504281,584.688897 C852.484765,584.452692 852.332384,584.274817 852.133122,584.161036 C851.90527,584.03069 851.629961,584.007646 851.374888,583.9738 C851.06314,583.932031 850.751608,583.890984 850.439356,583.853536 C850.413359,583.850656 850.38765,583.852816 850.363093,583.858577 C849.620702,583.705908 848.908557,583.548198 848.180929,583.504269 C847.87739,583.486266 847.860323,583.451699 847.870981,583.104592 C847.882935,582.713557 847.820211,582.340525 847.734155,581.964613 C847.640033,581.554134 847.557145,581.140054 847.477425,580.725254 C847.474977,580.736776 847.473609,580.748298 847.469864,580.760541 C847.435945,580.870002 847.397418,580.978743 847.358458,581.088204 C847.364508,581.393543 847.399506,581.698881 847.352625,582.00206 C847.344848,582.05247 847.329077,582.092797 847.308049,582.125204 C847.31489,582.287235 847.315826,582.449266 847.308553,582.612737 C847.303512,582.72796 847.266209,582.838861 847.167694,582.874148 C846.772554,583.015295 846.388288,583.214053 845.953396,583.209732 C846.130478,583.012414 846.332621,582.848943 846.506606,582.656666 C846.494004,582.594014 846.497821,582.524881 846.527634,582.452867 C846.631766,582.203699 846.56933,581.837868 846.637095,581.564216 C846.687577,581.359696 846.755486,581.162378 846.823683,580.96434 C846.818786,580.80591 846.823107,580.648199 846.855225,580.491209 C846.950068,580.02744 847.238843,579.814999 847.609283,579.811398 C847.741068,579.66809 847.881207,579.536305 848.051088,579.448448 C848.293342,579.323144 848.397763,579.357711 848.510968,579.624162 C848.587519,579.804197 848.642178,579.996474 848.702885,580.18443 C848.728234,580.262925 848.752575,580.34214 848.777492,580.420635 C848.773171,580.644598 848.77922,580.865681 848.91691,581.061559 C849.095577,581.315768 849.401492,581.417307 849.698981,581.446833 C849.825869,581.459795 849.95571,581.466277 850.0862,581.469877 C850.093473,581.472038 850.100962,581.474918 850.108092,581.477079 C850.370294,581.558454 850.591953,581.518847 850.830895,581.458355 C850.835864,581.458355 850.840977,581.458355 850.845946,581.458355 C850.963256,581.451154 851.075022,581.425949 851.180666,581.385621 C851.297473,581.38058 851.415144,581.392823 851.527557,581.358976 C851.644508,581.323689 851.734813,581.245914 851.805459,581.148696 C851.878409,581.048596 851.919025,580.933374 851.973251,580.823193 C852.044977,580.677725 852.14522,580.552421 852.235886,580.418475 C852.384954,580.198833 852.499888,579.954706 852.468058,579.703377 C852.471731,579.697616 852.47598,579.691855 852.479076,579.686094 C852.563909,579.540626 852.603876,579.363472 852.518756,579.207922 C852.432267,579.049491 852.25893,578.981798 852.098339,578.924187 C851.890795,578.850013 851.701183,578.741992 851.506313,578.641173 C851.46044,578.617408 851.413415,578.594364 851.365382,578.572039 C851.300569,578.538193 851.233597,578.510107 851.164103,578.492104 C850.901037,578.401367 850.620543,578.36608 850.355315,578.478421 C850.201926,578.543234 850.087208,578.646934 850.004464,578.772238 C850.003384,578.773678 850.001943,578.774398 850.000935,578.775839 C849.977459,578.807525 849.959455,578.839931 849.944836,578.873777 L849.943756,578.876658 C849.940155,578.8853 849.936771,578.893941 849.93353,578.902583 C849.860004,579.068215 849.831054,579.258332 849.842649,579.447008 C849.853595,579.624162 849.876279,579.844524 850.000719,579.984231 C850.010729,580.006556 850.02614,580.019518 850.044576,580.025279 C850.04796,580.02816 850.050625,580.03176 850.054153,580.034641 C850.126095,580.089372 850.214744,580.108095 850.298713,580.098013 C850.312179,580.102334 850.325502,580.105935 850.340913,580.108095 C850.427545,580.119617 850.518427,580.098733 850.598722,580.066327 C850.782214,579.993593 850.970458,579.836603 850.95944,579.620561 C850.954399,579.523343 850.904061,579.432605 850.811091,579.393718 C850.700694,579.346909 850.574526,579.390117 850.484508,579.45997 C850.451382,579.485175 850.421424,579.514701 850.391394,579.543506 C850.382897,579.513261 850.373895,579.483015 850.368278,579.452049 C850.35762,579.392997 850.357692,579.390837 850.356252,579.333946 C850.356252,579.331786 850.35654,579.330345 850.35654,579.328185 C850.362661,579.280656 850.370366,579.233127 850.38124,579.184877 C850.394635,579.125106 850.41091,579.066055 850.429994,579.008443 C850.448285,578.952273 850.467369,578.903303 850.486309,578.860815 C850.488037,578.857214 850.488397,578.852893 850.489909,578.848573 C850.634513,578.819767 850.789775,578.793842 850.936971,578.806805 C850.999407,578.811846 851.058171,578.829129 851.114414,578.854334 C851.122263,578.857214 851.130329,578.860815 851.138034,578.864416 C851.31634,578.950832 851.465265,579.115024 851.596762,579.254011 C851.799265,579.468612 851.894612,579.699777 851.825839,579.993593 C851.763691,580.260044 851.63565,580.512813 851.46044,580.722373 C851.379497,580.818872 851.289623,580.918971 851.180594,580.985224 C851.177426,580.986664 851.173969,580.987384 851.170728,580.989545 C851.132057,580.992425 851.093458,580.997466 851.053922,581.004668 C850.969378,581.020511 850.88793,581.046436 850.806122,581.071641 C850.779837,581.072361 850.753552,581.073081 850.727339,581.073081 C850.546152,581.074521 850.363021,581.078842 850.180538,581.077402 C850.05617,581.034193 849.935835,580.970821 849.81838,580.903848 C849.703302,580.838316 849.58095,580.779264 849.507784,580.664762 C849.440307,580.558902 849.401348,580.430717 849.367357,580.311894 C849.281013,580.007276 849.301753,579.71994 849.30809,579.409561 C849.312915,579.172635 849.277916,578.904743 849.095721,578.734071 C849.013841,578.657016 848.89545,578.602285 848.781596,578.606606 C848.732339,578.608046 848.688843,578.621729 848.644554,578.641173 C848.631087,578.646934 848.588527,578.67934 848.555833,578.700944 C848.46632,578.676459 848.37371,578.73191 848.328989,578.812566 C848.242357,578.83561 848.139449,578.870897 848.015009,578.919146 C847.841743,578.986119 847.665958,579.011324 847.514224,578.849293 C847.266353,578.584282 847.011208,578.325032 846.849392,577.977925 C846.710838,577.680508 846.654379,577.376609 846.774282,577.046066 C846.882591,576.746488 846.975201,576.438989 847.062121,576.130769 C847.301711,575.281006 847.448188,574.427641 847.14717,573.551953 C847.083653,573.366877 847.055928,573.164518 847.026186,572.9672 C846.979593,572.658981 846.946251,572.353642 847.099785,572.109515 C847.115988,572.099433 847.132119,572.088631 847.144001,572.072788 C847.152283,572.061266 847.16042,572.048303 847.168702,572.036781 C847.182096,572.035341 847.198444,572.03318 847.203485,572.03174 C847.226385,572.025979 847.248421,572.018057 847.268369,572.004375 C847.292854,571.987812 847.311649,571.964047 847.331597,571.942443 C847.356946,571.915078 847.383231,571.888432 847.41038,571.862507 C847.422551,571.850985 847.434937,571.840183 847.447323,571.828661 C847.454237,571.82218 847.461078,571.816419 847.468063,571.809937 C847.473825,571.804896 847.499101,571.790494 847.476561,571.802016 C847.453805,571.814258 847.479802,571.799855 847.485491,571.794814 C847.492764,571.789053 847.499966,571.783292 847.507311,571.777531 C847.52193,571.766009 847.536765,571.754487 847.551744,571.743685 C847.610219,571.700476 847.671503,571.660869 847.735091,571.625582 C847.767569,571.607578 847.799183,571.588855 847.831373,571.570131 C847.845632,571.56221 847.860179,571.553568 847.874078,571.544926 C847.897986,571.529803 847.920239,571.506759 847.934857,571.482274 C847.935289,571.481554 847.935722,571.480114 847.936226,571.479394 C847.947388,571.467871 847.957542,571.455629 847.965679,571.441946 C848.047271,571.454909 848.128215,571.480834 848.20635,571.504599 C848.347065,571.546367 848.485691,571.596776 848.612508,571.671671 C848.863764,571.820019 849.012257,572.132559 848.868517,572.409813 C848.813499,572.516393 848.70807,572.616493 848.578733,572.574004 C848.391713,572.512793 848.497502,572.280188 848.45523,572.142641 C848.436146,572.079989 848.348289,572.110955 848.314154,572.132559 C848.14773,572.23842 848.108483,572.519274 848.191083,572.687066 C848.269146,572.845497 848.448964,572.929753 848.619205,572.931193 C849.014057,572.934794 849.272443,572.525035 849.288286,572.168566 C849.305569,571.779692 849.064683,571.465711 848.733563,571.289997 C848.579093,571.207901 848.410293,571.153171 848.243293,571.102761 C848.049792,571.04443 847.858811,571.012024 847.659404,571.060273 C847.376678,571.129406 847.135936,571.35841 846.962526,571.607578 C846.709109,571.560769 846.479241,571.428984 846.251101,571.288557 C846.196731,571.255431 846.131414,571.210062 846.076684,571.297199 C846.086189,571.40666 846.167997,571.452028 846.230433,571.503158 C846.530947,571.750166 846.671014,572.072068 846.64977,572.495509 C846.634215,572.807329 846.705293,573.106907 846.813962,573.394242 C847.166253,574.326822 847.041165,575.19963 846.55608,576.02851 C846.4953,576.13221 846.43164,576.233029 846.338742,576.302162 C846.293517,576.336009 846.240443,576.361934 846.18492,576.328807 C846.128173,576.294961 846.124717,576.230869 846.12839,576.170377 C846.141856,575.943533 846.253766,575.767099 846.364811,575.590665 C846.613763,575.194589 846.622045,575.029677 846.380798,574.632161 C846.053567,574.092777 845.661092,573.618206 845.173558,573.261737 C844.438944,572.725234 843.994763,571.911477 843.531425,571.117164 C843.478423,570.968815 843.427437,570.819747 843.377532,570.669958 C843.35744,570.501445 843.374867,570.323571 843.433919,570.137055 C843.552742,569.761143 843.579531,569.353544 843.599695,568.953147 C843.612441,568.698938 843.577874,568.452651 843.421028,568.260374 C843.125195,567.898144 842.784786,567.592805 842.413626,567.332115 C842.4034,567.324914 842.37085,567.35804 842.333619,567.381805 C842.378628,567.654737 842.56752,567.818929 842.722278,568.007605 C843.050085,568.408002 843.216869,568.842246 843.028337,569.396033 C843.00666,569.460125 842.988585,569.524217 842.973246,569.58831 C842.822809,569.304575 842.622827,569.053967 842.325913,568.891215 C841.845365,568.627645 841.212435,568.764471 840.964707,569.28009 C840.861439,569.494692 840.847253,569.794989 841.018718,569.981505 C841.230294,570.21195 841.639909,570.081605 841.910609,570.05856 C842.074009,570.044877 842.130324,569.763303 841.931853,569.773385 C841.722869,569.784187 841.273863,569.90013 841.223525,569.619996 C841.187446,569.419797 841.346237,569.237602 841.515109,569.156226 C841.946328,568.948826 842.396919,569.337701 842.601582,569.688409 C842.757492,569.95558 842.852767,570.256598 842.939976,570.558336 C842.955243,570.672118 842.97519,570.7859 843.000179,570.898962 C843.089116,571.3044 843.220254,571.693275 843.341597,572.086471 C843.507013,572.622254 843.755893,573.078102 844.167236,573.43241 C844.524209,573.739909 844.864618,574.078374 845.111554,574.516939 C845.366267,574.968466 845.451171,575.422153 845.168013,575.898885 C844.939801,576.282719 844.953267,576.682396 845.111626,577.088554 C845.199699,577.313957 845.287916,577.540081 845.390391,577.758283 C845.506622,578.00457 845.512383,578.231414 845.326083,578.432332 C845.151809,578.619569 845.146624,578.83705 845.219286,579.069655 C845.264439,579.215123 845.316433,579.357711 845.375341,579.496697 C845.565817,579.944624 845.681399,580.421355 845.783155,580.900248 C845.873748,581.32657 845.805623,581.435311 845.44685,581.600222 C845.155554,581.734168 844.861738,581.863073 844.576923,582.012862 C844.30255,582.15689 844.034226,582.31316 843.799317,582.529201 C843.739834,582.658106 843.653489,582.748124 843.554254,582.804294 C843.471726,582.926718 843.384301,583.064985 843.243946,582.986489 C843.196201,582.959844 843.174957,582.917356 843.167971,582.866946 C843.078386,582.851823 842.991105,582.817977 842.913114,582.766847 L842.913042,582.767567 C842.908722,582.825898 842.903104,582.892151 842.813951,582.928158 C842.699233,582.870547 842.685551,582.755325 842.660562,582.655946 C842.634061,582.550085 842.615193,582.444225 842.600574,582.339085 C842.66229,582.244747 842.74561,582.161931 842.835051,582.094958 C843.075938,581.915643 843.350959,581.835708 843.623891,581.722646 C843.948386,581.58798 844.026233,581.261757 843.914971,580.948497 C843.86521,580.80879 843.782466,580.672684 843.642687,580.607151 C843.579387,580.577626 843.499235,580.566823 843.430102,580.577626 C843.328274,580.593469 843.283194,580.665482 843.231344,580.720213 C843.134701,580.823193 843.218381,580.959299 843.347862,580.878644 C843.327194,580.891606 843.410658,580.896647 843.416131,580.898087 C843.436655,580.901688 843.456099,580.907449 843.474463,580.918251 C843.522496,580.945616 843.554182,581.001067 843.574274,581.051477 C843.601927,581.12061 843.647008,581.263918 843.602431,581.335932 C843.556486,581.409386 843.388982,581.428109 843.310631,581.455475 C843.180862,581.500843 843.05527,581.555574 842.932342,581.616786 C842.692896,581.737049 842.473686,581.901961 842.316119,582.120883 C842.233159,582.235385 842.171444,582.36573 842.150776,582.506877 C842.148327,582.52416 842.146455,582.542164 842.145159,582.560167 C842.141486,582.569529 842.136589,582.578171 842.13306,582.587533 C841.839604,583.366002 841.908017,584.18192 841.521518,584.896297 C841.359055,585.79647 841.123282,586.673599 840.846532,587.537046 C840.777039,587.754527 840.695591,587.966968 840.610111,588.177249 C840.548827,588.327038 840.446928,588.403372 840.324936,588.256464 C839.985103,587.847425 839.510099,587.700517 839.095587,587.436946 C838.830864,587.269154 838.582489,587.092 838.427731,586.777299 C838.283343,586.484203 838.200239,586.204789 838.179715,585.935457 C838.349452,585.48177 838.519116,585.028083 838.688781,584.575115 C838.959769,584.257534 839.254018,583.964438 839.547186,583.672061 C839.95961,583.261582 840.333866,582.815817 840.626818,582.287955 C840.662969,582.223142 840.701281,582.15761 840.747225,582.101439 C840.826225,582.00422 840.880883,581.832107 841.024551,581.876756 C841.030456,581.878196 841.034417,581.881797 841.039602,581.884677 C841.087275,581.773776 841.141285,581.666475 841.203865,581.562055 C841.646679,580.828234 842.260453,580.318376 842.928093,579.888453 C842.967773,579.807077 843.006084,579.724261 843.041299,579.640005 C843.157674,579.361311 843.206571,579.058853 843.266198,578.759275 C843.143055,578.267421 843.063839,577.765484 843.013574,577.257066 C842.992402,577.043185 842.955603,576.830744 842.918804,576.619023 C842.889422,576.449791 842.795084,576.350412 842.63975,576.328087 C842.503932,576.308644 842.368834,576.284159 842.232871,576.266876 C841.759308,576.207824 841.329962,576.022749 840.950953,575.697246 C840.915018,575.66628 840.880451,575.633153 840.844804,575.602188 C840.739808,575.327095 840.642877,575.054162 840.58289,574.758185 C840.509292,574.395235 840.442967,574.037326 840.1395,573.790319 C839.849933,573.554833 839.488495,573.476338 839.140812,573.366877 C838.9319,573.300624 838.725868,573.201965 838.544753,573.07162 C838.426507,572.950637 838.336273,572.805889 838.295225,572.628015 C838.183316,572.141921 838.633042,571.66951 839.040353,571.478674 C839.280663,571.366332 839.586794,571.35481 839.779719,571.56509 C840.043578,571.852426 839.720308,572.177208 839.632523,572.460943 C839.598172,572.571124 839.702736,572.622974 839.790377,572.562482 C840.279135,572.228338 840.38838,571.436905 839.814142,571.138048 C839.248041,570.842791 838.578528,571.249669 838.217738,571.688234 C837.826775,572.164246 837.783855,572.774203 838.179211,573.261017 C838.363422,573.48786 838.606685,573.664294 838.8722,573.784558 C839.131018,573.90266 839.456737,573.982596 839.622369,574.233204 C839.723692,574.386593 839.758259,574.57455 839.802475,574.750263 C839.819543,574.817957 839.839995,574.883489 839.860951,574.949022 C839.397397,574.951902 839.008307,574.721458 838.63009,574.459327 C838.374008,574.281453 838.128945,574.083415 837.877905,573.896899 C837.496807,573.612444 837.079559,573.494342 836.626952,573.577878 C836.290287,573.64053 835.954487,573.707503 835.615589,573.739189 C835.53767,573.731987 835.458383,573.729827 835.381616,573.724786 C835.26769,573.717585 835.153764,573.710383 835.039838,573.703182 C834.855195,573.69094 834.648731,573.682298 834.492317,573.570676 C834.4023,573.506584 834.318187,573.38416 834.277716,573.260297 C834.230691,573.116269 834.212039,572.969361 834.280236,572.830374 C834.301408,572.787165 834.285133,572.730995 834.23638,572.719472 C834.184026,572.70723 834.124038,572.750438 834.099121,572.793647 C834.002119,572.962879 833.942275,573.161638 833.972953,573.356075 C834.001975,573.53971 834.097465,573.714704 834.239548,573.834967 C834.412958,573.981876 834.636993,574.030845 834.857571,574.053169 C835.029036,574.184235 835.031341,574.298016 834.911366,574.560147 C834.635553,575.161463 834.28074,575.650437 833.588759,575.594266 C833.426944,575.581304 833.257783,575.594986 833.099281,575.634594 C832.837438,575.698686 832.697155,575.858557 832.676271,576.13437 C832.666549,576.13365 832.654595,576.13221 832.645953,576.130769 C832.547366,576.115646 832.448563,576.157414 832.391528,576.23951 C831.982418,576.827143 830.777986,578.954433 830.521544,577.346363 C830.379821,576.457712 830.723039,575.276685 830.81104,574.372191 C830.814569,574.336184 830.825587,574.301617 830.843302,574.269931 C831.240603,573.564195 831.637831,572.857739 832.035132,572.152003 C832.310585,571.662309 833.168486,567.977359 832.280267,567.780041 C831.696523,567.650416 830.55071,567.684263 830.529322,566.933158 C830.471135,564.893005 830.412947,562.853573 830.35476,560.81342 C830.35152,560.698198 830.352456,560.570733 830.429151,560.485037 C830.517224,560.386378 830.667733,560.382057 830.800094,560.386378 C831.171686,560.39646 831.543277,560.406542 831.914869,560.416624 C832.257079,560.425985 832.691682,560.373415 832.790989,560.045752 C832.917014,559.629512 832.341119,559.343617 831.909828,559.395467 C831.478537,559.448037 831.00843,559.633833 830.636479,559.40987 C830.101704,559.086527 830.27821,558.294375 830.299166,557.670015 C830.30327,557.546871 830.29182,557.407884 830.199138,557.325068 C830.075058,557.215607 829.863554,557.276099 829.765327,557.410045 C829.6671,557.54327 829.655002,557.721144 829.660979,557.886776 C829.681719,558.457126 829.783834,559.20247 829.263606,559.437235 C829.000612,559.556058 828.697217,559.4646 828.412546,559.417791 C828.127875,559.370982 827.776664,559.401948 827.638037,559.654717 C827.50762,559.893083 827.659785,560.209944 827.897935,560.341009 C828.136157,560.471354 828.426229,560.459112 828.694049,560.413743 C828.979079,560.365494 829.358664,560.329487 829.472086,560.595218 C829.509101,560.682355 829.503052,560.781014 829.496283,560.874632 C829.496283,561.817293 829.643119,567.125435 828.734664,567.401248 C828.111312,567.590645 827.118385,567.400528 826.457226,567.401969 C826.329689,567.402689 826.221164,567.494866 826.200496,567.620891 C826.200352,568.276217 825.974517,568.997076 825.868296,569.64376 C825.654199,570.947931 826.09334,572.100873 826.505403,573.315747 C826.515773,573.346713 826.520382,573.379119 826.518942,573.411526 C826.443399,575.112493 826.292242,576.828584 826.292242,578.531712 C826.290226,578.579241 826.275031,578.62533 826.248458,578.664937 C825.81587,579.310902 825.431172,580.061286 824.899494,580.633076 C823.928747,581.675837 824.076159,580.085771 823.975916,579.264093 C823.837073,578.126994 824.111446,577.577528 824.812357,576.695358 C825.133251,576.2892 824.748553,575.085848 824.720755,574.593993 C824.33829,574.494614 823.563421,574.398836 823.298482,574.084855 C822.953463,573.675817 823.011074,572.730995 822.95764,572.212495 C822.829239,570.966655 822.83104,569.69417 822.651437,568.454091 C823.149629,568.361193 824.954584,568.341029 824.954584,567.708748 C822.504025,562.512947 819.748918,557.371157 817.568338,552.059414 C817.535068,551.963636 817.501221,551.868578 817.466727,551.772799 C816.887807,550.358447 816.206628,553.930335 816.090974,554.377541 C815.707068,555.861026 815.322442,557.345232 814.938464,558.828718 C814.20241,561.673265 813.468589,564.517813 812.746218,567.365962 C812.646911,567.757717 812.332066,568.415924 812.40372,568.790396 C812.541626,569.512695 814.422268,568.521064 814.775712,569.650962 C814.956107,570.228513 814.88971,571.026426 814.931983,571.628462 C814.96799,572.141201 815.404826,574.895732 814.745827,575.158582 C813.265078,575.749096 813.414434,575.961537 813.375547,577.478869 C813.373819,577.545122 813.397295,577.609934 813.441296,577.658904 C813.856672,578.126274 814.641479,578.705985 814.900368,579.266973 C815.170997,579.852446 815.037123,580.898087 815.079251,581.543332 C815.188136,583.212613 815.296949,584.881174 815.405906,586.549736 C815.541724,588.630216 813.864377,589.852291 812.587211,591.309852 C812.456578,591.458921 812.213891,591.413552 812.145838,591.227036 C811.606598,589.750032 811.07348,588.272307 810.510835,586.803944 C810.43198,586.597985 810.352045,586.375462 810.40872,586.162301 C810.525166,585.725177 811.306516,585.818795 811.612431,585.540101 C812.153184,585.047526 809.28696,582.964885 808.848827,582.578171 C808.101755,581.918524 807.354612,581.259597 806.60718,580.59995 C806.089616,580.143382 805.630744,579.488056 805.026115,579.143829 C804.143945,578.641893 804.29035,579.143109 804.184849,579.966948 C803.997181,581.43099 803.446635,582.821578 803.13928,584.259695 C802.940306,585.191554 802.741259,586.123413 802.542213,587.055273 C802.50455,587.231707 801.950259,588.988845 802.584485,588.762722 C803.603049,588.399052 803.744412,588.473226 804.122197,589.456935 C804.413133,590.214521 804.744397,590.959145 805.055065,591.708809 C805.086463,591.784423 805.080486,591.87012 805.039078,591.940694 C804.537069,592.795498 803.656844,593.810894 803.699116,594.77804 C803.751686,595.982112 804.502862,597.466318 804.849609,598.626461 C805.101298,599.469023 805.60986,600.428968 805.576805,601.326981 C805.543175,602.240837 804.847161,602.963136 804.395202,603.703439 C804.364092,603.753848 804.351417,603.81362 804.359123,603.872671 C804.469016,604.714513 805.230202,606.560229 804.649411,607.317094 C804.089503,608.046595 802.827388,607.39919 802.297366,608.28136 C801.822002,609.072792 803.210358,610.530353 803.52261,611.282898 C803.563009,611.380117 803.658068,611.443489 803.763568,611.443489 L846.963678,611.443489 C847.028419,611.443489 847.086318,611.419724 847.131399,611.380837 L854.510876,611.380837 L852.294649,609.241305 L850.60614,609.360128 C850.60614,609.360128 849.128559,607.577064 848.811986,607.101773 C848.495413,606.625761 846.436105,606.063333 846.436105,606.063333 C845.643088,605.394324 845.280786,604.49127 845.274449,603.388018 C845.266816,602.064403 845.464926,600.784716 845.842566,599.529515 C846.009063,598.976448 846.362651,598.637983 846.729057,598.293037 C846.860699,598.169173 846.947331,598.220303 846.975777,598.421221 C846.990756,598.527082 846.98377,598.636543 846.987803,598.744564 C846.999685,599.068626 846.987587,599.417893 847.153795,599.685785 C847.423991,600.121469 847.402171,600.539869 847.215583,600.988516 C847.151995,601.141185 847.101657,601.302496 847.057512,601.463807 C847.032812,601.553825 846.962454,601.655364 847.071555,601.764105 C847.177848,601.668327 847.186993,601.522138 847.232938,601.399715 C847.286228,601.257848 847.330085,601.110939 847.388056,600.971953 C847.616844,600.423927 847.709094,600.418166 848.034237,600.910021 C848.139953,601.070612 848.221689,601.279452 848.442987,601.304657 C848.446732,601.290254 848.448028,601.278011 848.450261,601.264329 C848.518818,601.290974 848.595513,601.305377 848.68445,601.302496 C849.135617,601.288814 849.286054,600.770314 849.101194,600.421046 C849.042287,600.310145 848.908773,600.467135 848.907189,600.538429 C848.90438,600.665894 848.961415,600.914341 848.820556,600.978434 C848.644842,601.058369 848.465456,600.890577 848.377671,600.758792 C848.272026,600.600361 848.212975,600.416005 848.119645,600.251094 C848.031644,600.094824 847.916278,599.988963 847.782836,599.873741 C847.622965,599.735474 847.608923,599.535276 847.586454,599.336518 C847.561249,599.114715 847.550447,598.890752 847.550159,598.667509 C847.549943,598.475232 847.559953,598.282955 847.577597,598.091398 C847.801128,597.289163 847.951925,596.471086 848.045903,595.636445 C848.067147,595.447769 848.119645,595.269174 848.276131,595.168355 C848.955078,594.729791 849.028388,594.67362 849.514626,595.331827 C849.523411,595.343349 849.531693,595.355591 849.539902,595.367833 C849.964856,596.013078 850.397876,596.640318 851.073582,596.995347 C851.334416,597.132893 851.446181,597.414468 851.443877,597.762295 C851.440564,598.25559 851.473259,598.748164 851.495871,599.240739 C851.500336,599.338678 851.462169,599.461822 851.61563,599.535996 L851.61563,599.535996 Z" id="47"></path>
        </g>
    </g>
</svg>
