<?xml version="1.0" encoding="UTF-8"?>
<svg width="34px" height="60px" viewBox="0 0 34 60" version="1.1" xmlns="http://www.w3.org/2000/svg" xmlns:xlink="http://www.w3.org/1999/xlink">
    <title>40</title>
    <g id="页面-1" stroke="none" stroke-width="1" fill="none" fill-rule="evenodd">
        <g id="形状库素材-节日" transform="translate(-252.000000, -555.000000)" fill="#545458">
            <path d="M266.125778,555.039532 C266.315581,554.976006 266.062253,557.32801 266.189304,557.582888 C266.315581,557.836991 266.315581,557.011156 266.506933,556.94763 C266.69751,556.884104 266.761811,557.201733 266.761811,557.201733 L266.51907,558.040595 C266.449519,558.291485 266.371102,558.583548 266.29234,558.895238 C266.538696,561.470357 266.019644,567.357339 266.232688,569.160077 L266.354951,570.160869 C266.577011,571.910654 266.781833,573.178514 266.87461,573.726583 L266.926823,574.027547 C266.926823,574.027547 266.579755,564.988291 267.101132,561.511416 L267.1174,561.423874 C267.004294,560.630577 266.977954,559.757484 267.206492,559.045531 L267.27129,559.012741 C267.408346,558.94855 267.739131,558.820747 268.032327,558.918479 C268.225972,558.982896 268.337766,559.733787 268.417488,560.599441 L268.471871,561.258965 L268.560398,562.45904 C268.574726,562.63448 268.589305,562.792296 268.604834,562.924478 C268.6273,563.109632 268.617229,563.282391 268.58779,563.438107 C269.163396,565.71419 269.711887,568.940061 269.882322,571.246357 L269.930647,571.948707 C270.02718,573.481756 270.013538,574.290366 269.961342,574.709288 L270.035159,574.570747 C270.557578,573.53967 271.503416,570.590644 271.285361,562.934507 L271.273692,562.554169 C271.21404,560.728189 271.308554,559.507255 271.499131,558.763538 C271.434056,558.225118 271.342641,557.693671 271.21249,557.265259 L271.784997,557.011156 L271.784997,556.312372 L271.948308,556.256506 C272.166904,556.185265 272.54242,556.076266 272.674358,556.120245 C272.864936,556.184546 273.882898,557.265259 274.009949,557.836991 C274.099815,558.241387 274.12538,559.53127 273.977412,560.702624 C274.635136,562.813695 274.997698,565.694047 274.402725,567.943016 L274.233505,568.57613 C272.752986,574.066575 271.677665,576.871954 273.185663,578.547175 C274.749793,580.285613 279.443729,577.85149 280.660016,575.0703 L280.602359,575.034945 C280.313843,574.848925 279.01638,573.903152 278.400202,571.594199 C278.259205,571.065851 278.313435,570.848159 278.503237,570.838088 C277.447315,569.921612 275.948261,569.21663 275.790996,568.9021 L275.918047,568.265293 L276.998761,568.582922 L277.136396,568.534603 C277.679871,568.35867 279.692247,567.850375 280.62283,569.600884 C281.6191,571.47567 281.481203,572.862391 281.453313,573.068463 L281.837327,573.391672 C282.540637,573.97456 283.232513,574.491059 283.789049,574.722458 C285.874554,575.591676 276.314696,581.32914 274.054882,581.154832 C272.880507,581.064052 272.973256,586.930692 273.406453,593.150375 L273.540945,594.96093 L273.677481,596.620766 C273.90281,599.249545 274.158784,601.752707 274.373286,603.694094 C274.967485,603.687897 275.533019,604.021794 275.852198,604.7934 L276.164459,604.670278 C276.731006,604.454185 277.263591,604.305634 277.740153,604.464926 C278.692505,604.78349 278.316014,605.144494 278.029092,605.322282 L277.878892,605.404929 L277.925611,605.383827 C278.544928,605.123178 278.814672,605.464597 278.932885,605.813007 L278.968835,605.93609 C278.99595,605.670366 279.169484,605.374429 279.804742,605.351963 C280.883905,605.314777 280.271889,606.75108 280.140189,606.942432 L280.208804,606.902116 C280.625745,606.686692 282.444795,606.110399 284.67686,608.174987 C287.24888,610.554106 284.714821,611.441143 283.897507,610.796588 L282.834612,609.962231 C282.875672,610.046674 282.910533,610.165979 282.922929,610.352682 C282.962439,610.957727 281.013281,609.385076 282.221821,610.513821 C283.428811,611.642566 280.078212,613.739692 279.181879,613.578553 C278.326288,613.424739 278.749041,612.75634 278.450324,612.801006 L278.402526,612.81237 C278.012849,612.933224 277.428722,612.610947 277.428722,612.610947 L277.37515,612.789231 C277.208835,613.301837 276.645993,614.757931 275.55781,614.99084 C274.765416,615.159514 274.502703,614.852001 274.311257,614.482614 L274.145645,614.144305 C274.075063,614.007147 273.995316,613.878622 273.882898,613.779977 C273.407907,613.363815 272.932916,613.444705 272.68262,613.589216 L272.635623,613.618838 C272.402437,613.780751 270.414544,614.183598 269.479476,613.618838 C268.584321,613.079374 268.901929,612.391061 268.693267,612.332228 L268.661387,612.32818 C268.388691,612.32818 267.842524,611.682851 267.99824,612.2081 C268.15473,612.732576 265.5432,612.85343 264.725887,611.400858 C263.92802,609.986287 267.089273,610.869373 266.350396,610.579491 L266.283818,610.554106 C265.310014,610.190769 264.803357,609.425361 264.803357,609.425361 L264.889641,609.818661 L264.920338,609.949836 C264.959073,610.110974 263.517347,610.352682 262.777504,609.949836 C262.036886,609.54544 263.946534,609.143368 263.556857,609.223163 C263.166406,609.303732 262.309582,608.538324 262.309582,608.538324 L262.318183,608.574541 C262.341235,608.712822 262.331274,609.206673 261.062308,609.344791 C259.581847,609.50593 260.048994,605.473591 261.881171,606.884329 C263.712573,608.295841 264.920338,607.973564 264.725887,607.731856 C264.538408,607.499444 265.216275,605.338018 266.444182,605.668817 C266.706807,605.382951 267.098808,605.138919 267.684484,605.123425 C268.256217,605.108705 268.655964,605.329496 268.934858,605.609165 L269.25072,601.761266 C269.426881,599.526117 269.63193,596.764442 269.806993,593.978764 L269.923773,592.033327 C270.193773,587.297097 270.335947,582.833212 270.055856,581.154832 C269.778512,579.485343 268.607933,578.512314 267.094934,577.677957 L267.07944,577.676407 C266.822238,577.58964 265.957667,577.128691 265.422346,576.837402 L264.617088,576.45131 C262.901604,575.618775 261.116361,574.646748 259.800313,572.984795 C257.679946,570.305865 257.497891,567.559537 257.912358,565.381841 L257.841764,565.082152 C257.621063,564.080059 257.300127,561.958073 258.050255,560.316821 L258.362254,560.119172 C258.658556,559.938644 259.075867,559.705385 259.194494,559.745089 C259.304502,559.7815 259.224708,560.893202 259.148787,562.131955 C259.938985,561.966942 259.841373,571.581804 262.407195,573.506171 C264.880053,575.359954 265.841605,574.879139 266.024754,574.749405 L266.058379,574.722458 L265.916313,574.486283 L265.766962,574.221082 C264.83788,572.525933 262.130129,566.764456 264.288178,560.515146 C264.250218,559.759808 264.252542,558.842558 264.408258,558.15462 L264.466753,557.914104 C264.642235,557.244387 264.726609,557.419129 264.763933,557.619275 L264.789479,557.833403 L264.817937,557.124106 C264.845978,556.515527 264.895206,555.702091 264.965323,555.464317 L264.981539,555.420687 C265.107816,555.167358 265.935201,555.103832 266.125778,555.039532 Z M263.558266,600.199052 L263.598691,600.059954 C263.953506,598.641469 267.146065,600.592176 264.840543,602.010661 C263.022117,603.129692 263.299185,601.271398 263.497778,600.435122 L263.558266,600.199052 Z M263.243876,596.15854 L263.516109,596.102851 C264.059516,596.008472 265.170014,595.911365 264.485728,596.86817 C263.599466,598.110022 263.243876,596.15854 263.243876,596.15854 Z M266.08162,584.455849 C266.436435,582.505142 270.692663,587.115411 268.032327,588.711303 C265.372765,590.307195 266.08162,584.455849 266.08162,584.455849 Z M263.776099,582.859182 C263.953506,581.440698 266.08162,581.97292 265.01795,583.391405 C263.953506,584.809889 263.776099,582.859182 263.776099,582.859182 Z M267.500105,581.97292 C268.386367,580.376253 269.450811,582.504368 268.387142,583.568037 C267.323472,584.632482 267.500105,581.97292 267.500105,581.97292 Z M256.683676,600.059954 C255.087009,598.818102 254.909602,602.010661 254.909602,602.010661 C255.264417,604.315408 258.278793,601.301806 256.683676,600.059954 Z M252.072633,606.443522 L252.099923,606.544175 C252.200614,606.877307 252.592992,607.873215 253.491117,606.975744 C254.555562,605.912074 251.717818,605.558034 252.072633,606.443522 Z" id="40"></path>
        </g>
    </g>
</svg>
