<?xml version="1.0" encoding="UTF-8"?>
<svg width="60px" height="57px" viewBox="0 0 60 57" version="1.1" xmlns="http://www.w3.org/2000/svg" xmlns:xlink="http://www.w3.org/1999/xlink">
    <title>57</title>
    <g id="页面-1" stroke="none" stroke-width="1" fill="none" fill-rule="evenodd">
        <g id="形状库素材-节日" transform="translate(-795.000000, -635.000000)" fill="#545458">
            <path d="M838.89801,680.776785 C838.730538,681.201907 838.556285,681.638556 838.373896,682.071815 C838.20778,682.10097 838.047765,682.105716 837.941993,682.028421 C837.549416,681.739582 837.771809,681.06359 837.818593,680.668301 C837.859274,680.324541 837.890463,679.979426 837.914872,679.632277 C838.147435,679.746863 838.37932,679.864162 838.608493,679.986885 C839.053956,680.22216 839.074975,680.343526 838.89801,680.776785 Z M837.977759,678.777286 L837.988947,678.87899 C837.982844,678.877376 837.977759,678.875761 837.971657,678.874147 C837.973691,678.84186 837.975725,678.809573 837.977759,678.777286 Z M833.325992,682.154534 C833.323958,682.154534 829.390051,682.154534 829.389373,682.154534 C829.355472,682.154534 829.352082,675.70515 829.357506,675.23799 C829.370389,674.251462 829.230037,673.098818 829.56905,672.161108 C830.167747,670.506725 832.061474,669.889043 833.264292,671.317644 C834.446769,672.721836 833.803323,675.222396 833.79044,676.888306 C833.786372,677.394113 833.995204,682.056898 833.325992,682.154534 Z M823.835662,668.366197 C823.689887,668.391962 823.544111,668.417727 823.398335,668.442814 C823.077629,668.498412 822.765059,668.165501 822.689798,667.690883 C822.657931,667.488153 822.626064,667.284745 822.593519,667.082015 C822.512155,666.57553 822.731158,666.10498 823.074917,666.052094 C823.220693,666.030397 823.367146,666.0087 823.512922,665.987681 C823.828882,665.942254 824.13535,666.269062 824.209255,666.734866 C824.241122,666.935562 824.273667,667.136257 824.30689,667.336275 C824.389609,667.837336 824.174675,668.30653 823.835662,668.366197 Z M822.146021,664.89606 C821.99889,664.631629 821.975159,664.047849 821.910068,663.725109 C821.80633,663.207097 822.023977,662.704679 822.379262,662.648403 C822.57928,662.616536 822.78201,662.585347 822.985418,662.555514 C823.316972,662.506696 823.631576,662.868762 823.690565,663.361687 C823.714296,663.561704 823.738704,663.761044 823.763113,663.961062 C823.824136,664.448562 823.612592,664.887923 823.285105,664.944877 C822.937956,665.005222 822.374516,665.306265 822.146021,664.89606 Z M821.305269,668.886921 C821.159494,668.912686 821.014396,668.937773 820.86862,668.96286 C820.547914,669.018458 820.235344,668.686225 820.160083,668.210929 C820.127538,668.008199 820.095671,667.805469 820.063125,667.602739 C819.98244,667.095576 820.200765,666.625026 820.544524,666.572818 C820.6903,666.550443 820.836753,666.528746 820.982529,666.507727 C821.299167,666.462978 821.604957,666.789786 821.678861,667.25559 C821.711407,667.456286 821.743274,667.656303 821.776497,667.856321 C821.859216,668.357382 821.644282,668.826576 821.305269,668.886921 Z M819.831919,665.417462 C819.684787,665.153031 819.660378,664.569251 819.595966,664.246511 C819.492228,663.727821 819.709874,663.226081 820.064482,663.169805 C820.265177,663.13726 820.467907,663.106071 820.671315,663.076238 C821.00287,663.02742 821.316796,663.390164 821.375784,663.883089 C821.399515,664.082428 821.423924,664.282446 821.449011,664.481786 C821.509355,664.969286 821.297811,665.409325 820.971002,665.466279 C820.623175,665.526624 820.060413,665.827667 819.831919,665.417462 Z M818.987098,654.43683 C818.98642,654.436152 818.985064,654.436152 818.983708,654.436152 C817.944294,654.375808 817.510358,653.875425 817.382211,653.086202 C817.365938,652.986533 817.349665,652.886185 817.334749,652.785837 C817.296779,652.538357 817.515104,652.298336 817.816825,652.250874 C818.046676,652.214939 818.277205,652.181038 818.508412,652.14917 C818.83183,652.105099 819.121347,652.294946 819.135586,652.563444 C819.165419,653.104509 819.204745,653.644896 819.275937,654.181892 C819.294244,654.32021 819.155927,654.446323 818.987098,654.43683 Z M817.30356,650.978898 C817.304238,650.976864 817.304238,650.974829 817.304916,650.972795 C817.438487,650.332739 817.680542,649.960503 818.172111,649.72794 C818.52604,649.560467 818.957265,649.748958 818.988454,650.077123 C819.014219,650.348333 819.033882,650.619544 819.050833,650.891432 C819.065071,651.134166 818.845391,651.351134 818.551127,651.389781 C818.341617,651.416902 818.132107,651.445379 817.922597,651.475891 C817.559175,651.528099 817.241859,651.278585 817.30356,650.978898 Z M820.505876,649.47029 C821.035415,649.5903 821.353409,649.900836 821.623263,650.496821 C821.623941,650.498855 821.624619,650.500211 821.625975,650.502245 C821.75141,650.781592 821.495794,651.093484 821.12966,651.121961 C820.918794,651.138234 820.707928,651.155862 820.49774,651.174847 C820.202121,651.20129 819.940403,651.037886 819.901755,650.797187 C819.85904,650.528688 819.819036,650.259512 819.785135,649.989658 C819.743775,649.662171 820.12347,649.38418 820.505876,649.47029 Z M821.989397,652.272571 C821.996178,652.373597 822.00228,652.474623 822.008382,652.576327 C822.055166,653.373685 821.74124,653.956788 820.739117,654.242915 C820.738439,654.242915 820.737083,654.243593 820.736405,654.243593 C820.573679,654.289699 820.410953,654.196809 820.398748,654.057814 C820.351287,653.518783 820.271957,652.982464 820.183136,652.447502 C820.139064,652.183072 820.379764,651.934236 820.705216,651.907115 C820.937101,651.88813 821.169664,651.870502 821.402227,651.855585 C821.706661,651.835922 821.972447,652.02238 821.989397,652.272571 Z M838.230832,659.006726 C838.243037,658.931465 838.255241,658.856204 838.268802,658.780943 C838.300669,658.594486 838.514925,658.475153 838.742064,658.513801 C838.914961,658.542956 839.087857,658.574145 839.260754,658.60669 C839.502809,658.652796 839.664179,658.858238 839.610615,659.053509 C839.502131,659.447442 839.400427,659.84341 839.322454,660.244801 C839.302792,660.347861 839.173289,660.404815 839.054634,660.357353 C839.053956,660.357353 839.053278,660.356675 839.0526,660.356675 C838.323044,660.063768 838.133197,659.602032 838.230832,659.006726 Z M838.679686,657.481167 C838.680364,657.479811 838.68172,657.478455 838.682398,657.477099 C838.931233,657.051299 839.193629,656.842467 839.601123,656.794327 C839.894708,656.759069 840.157104,656.997735 840.100828,657.23979 C840.054722,657.439807 840.003871,657.638469 839.950306,657.837131 C839.902845,658.014096 839.693335,658.116477 839.473654,658.073762 C839.31703,658.042573 839.160406,658.012739 839.003782,657.984262 C838.731216,657.934766 838.563743,657.680507 838.679686,657.481167 Z M840.15507,660.425156 C840.250672,660.027833 840.322543,659.625763 840.386955,659.22166 C840.418822,659.021642 840.650707,658.901632 840.890051,658.96062 C841.060913,659.001979 841.231098,659.045373 841.401282,659.090801 C841.623675,659.149789 841.768772,659.346417 841.72131,659.530162 C841.701648,659.604067 841.681985,659.677293 841.661644,659.751198 C841.504342,660.333622 841.139564,660.67467 840.35441,660.639412 C840.353732,660.639412 840.353054,660.638734 840.351698,660.638734 C840.224907,660.63331 840.130661,660.527538 840.15507,660.425156 Z M840.581549,657.974092 C840.61545,657.771362 840.651385,657.56931 840.692067,657.367937 C840.740885,657.123847 841.07922,657.016041 841.332123,657.169953 C841.681985,657.382175 841.835219,657.681185 841.885393,658.171398 C841.885393,658.173432 841.885393,658.174788 841.885393,658.176144 C841.908446,658.405995 841.650796,658.568043 841.382297,658.50024 C841.227707,658.461593 841.07244,658.423623 840.917172,658.38701 C840.699525,658.334802 840.551716,658.155125 840.581549,657.974092 Z M854.80111,670.393494 C854.789584,670.272806 854.635672,670.399597 854.622789,670.459263 C854.541426,670.823363 854.476336,671.185429 854.332594,671.5319 C854.191565,671.872947 853.992903,672.194332 853.752882,672.475034 C853.668129,672.574026 853.576595,672.666916 853.483028,672.757093 C853.510149,672.575382 853.524387,672.385535 853.569815,672.21196 C853.517607,672.231623 853.455907,672.237047 853.447092,672.260778 C853.203003,672.949653 852.602272,673.193742 851.987302,673.361892 C850.745837,673.674462 849.921357,674.930845 848.545642,674.740997 C848.533438,674.684043 848.528692,674.626411 848.530048,674.568101 C848.808038,673.538179 849.214854,672.580128 849.345035,671.582074 C849.429788,671.284421 849.521322,670.989479 849.629806,670.702674 C849.838638,670.150083 850.285457,669.523587 850.952635,669.566303 C851.595403,669.607662 851.901871,670.316878 851.744569,670.878961 C851.656426,671.194243 851.429965,671.557665 851.09163,671.64513 C850.836014,671.711577 850.462422,671.447825 850.62447,671.162376 C850.705155,671.021347 850.537005,670.920321 850.432589,671.036263 C850.221045,671.272894 850.275287,671.599025 850.501069,671.809891 C850.765499,672.056692 851.154686,672.000416 851.437423,671.814637 C852.076124,671.395617 852.334452,670.415869 851.899837,669.768354 C851.446238,669.092363 850.57972,669.102533 849.985769,669.589356 C849.31927,670.135845 849.127389,671.073555 848.89686,671.860065 L848.424276,673.470377 C848.386306,673.599879 848.337488,673.738197 848.292061,673.880582 C848.237818,673.971438 848.181542,674.062293 848.119842,674.153149 C848.111028,674.141622 848.104925,674.130774 848.096111,674.119247 C848.094077,675.255619 847.44724,677.103918 845.998977,676.475388 C845.480965,676.232654 844.969055,676.327578 844.428668,676.320798 C843.920827,676.280116 843.939812,676.286897 843.721487,676.751344 C843.281448,677.455135 842.399336,680.131304 841.673849,680.171986 C841.323309,680.220125 840.968702,680.255383 840.591041,680.289962 C840.862929,679.860094 840.98294,679.423445 840.885982,678.914925 C840.639859,677.745331 841.34365,676.791348 841.963366,675.881437 C843.278736,675.75329 843.89913,675.713965 844.69242,675.18985 C844.79887,675.137642 844.905321,675.085434 845.011771,675.033226 C845.179921,674.950507 845.348072,674.868466 845.515544,674.785747 C845.665388,674.71252 845.836928,674.603358 846.009147,674.603358 C846.283069,674.60268 846.493257,674.868466 846.468171,675.132218 C846.455288,675.261721 846.394266,675.387156 846.297986,675.475299 C846.188146,675.577003 845.953549,675.638026 845.893204,675.448178 C845.841674,675.286808 845.611824,675.412921 845.642335,675.551238 C845.684372,675.74651 845.861337,675.862452 846.057287,675.855672 C846.262729,675.848214 846.456644,675.725491 846.584113,675.568189 C846.837017,675.254263 846.858714,674.798629 846.574621,674.497586 C846.445118,674.360625 846.262051,674.274515 846.074237,674.264345 C845.825402,674.250784 845.605721,674.372151 845.388075,674.476567 C845.287727,674.525385 845.186701,674.574203 845.086354,674.622343 C845.116187,674.553862 845.137883,674.504366 845.137883,674.504366 L843.783188,675.199343 C843.783188,675.199343 842.521381,675.11798 842.389844,675.251551 C843.091601,674.313841 844.4863,674.199254 845.25586,673.322567 C844.476808,673.446646 843.608935,674.305705 842.755978,674.134842 C841.968112,674.648108 841.705716,675.39258 840.734783,675.825161 C840.978194,674.273159 841.781655,672.819472 843.381118,672.465542 C844.27001,672.336717 845.002956,671.781414 845.89117,671.598347 C846.445796,671.452571 847.001777,671.31222 847.555046,671.162376 C847.676413,670.933203 847.80117,670.705386 847.927283,670.478926 C847.2757,670.669451 846.632253,670.917609 845.969143,671.028805 C845.999655,671.008464 846.018639,670.995582 846.021351,670.994226 C846.041014,670.983377 846.695987,669.459853 846.695987,669.459853 L847.590982,668.925568 L847.695398,668.688937 L846.717684,668.985234 C846.363755,669.492398 845.707425,670.619277 845.291795,671.302049 C844.158814,671.711577 843.113298,672.145514 841.951161,672.501477 C842.715297,670.59419 843.375016,670.508759 844.975835,669.550708 L845.82608,668.35128 L846.706836,667.931582 L846.728533,667.883442 C846.75701,667.873272 846.785487,667.863101 846.814642,667.856321 C846.978046,667.819708 847.145519,667.806825 847.311635,667.78784 C847.473683,667.769534 847.635053,667.746481 847.793033,667.703765 C847.960506,667.658338 848.111706,667.577652 848.269686,667.507138 C848.427666,667.436623 848.595816,667.375601 848.768713,667.433233 C848.931439,667.486797 849.063654,667.611554 849.186377,667.72614 C849.305709,667.837336 849.448773,667.966161 849.495557,668.128888 C849.552511,668.328905 849.379614,668.424507 849.295539,668.577741 C849.245365,668.669274 849.302997,668.77708 849.413516,668.733009 C849.812873,668.572995 849.89288,668.091596 849.660317,667.764788 C849.441993,667.45832 849.0684,667.101678 848.671077,667.092186 C848.44665,667.08744 848.244599,667.182363 848.044581,667.271863 C847.841851,667.363396 847.643868,667.418316 847.422831,667.444759 C847.349604,667.453574 847.2757,667.461032 847.202473,667.46849 C847.274343,667.411536 847.346214,667.353226 847.418763,667.29695 C847.538096,667.204738 847.681159,667.116595 847.755064,666.981668 C847.778795,666.938952 847.784897,666.860301 847.710992,666.880642 C847.558436,666.922679 847.432324,667.0393 847.304177,667.128121 C847.182132,667.213552 847.057375,667.292203 846.927872,667.366108 C846.854645,667.407468 846.781419,667.452218 846.708192,667.495611 C845.363666,667.924802 845.793535,667.77089 844.869385,669.059817 L843.667245,669.438156 L843.634022,669.423239 C844.470028,668.168891 844.529694,666.782328 844.42121,665.331352 C844.43138,665.2188 844.442229,665.106926 844.449687,664.994373 C844.470706,664.695364 844.434092,664.312957 844.670724,664.087853 C844.856503,663.911566 845.141274,663.850543 845.374515,663.964452 C845.605043,664.077004 845.763702,664.337366 845.754887,664.594338 C845.750819,664.729943 845.689797,664.918434 845.542665,664.962506 C845.41045,665.001832 845.279591,664.90962 845.234163,664.790287 C845.192126,664.679769 845.03957,664.831647 845.044316,664.904196 C845.059232,665.129979 845.281625,665.257447 845.493847,665.233038 C845.742683,665.204561 845.927106,664.987593 846.000333,664.761132 C846.155601,664.279734 845.834216,663.727143 845.344681,663.613234 C844.777852,663.481697 844.262552,663.908176 844.175087,664.453987 C844.11881,664.805882 844.120844,665.169982 844.086265,665.52459 C844.051008,665.879875 844.006936,666.233805 843.95405,666.586378 C843.893028,666.991838 843.817767,667.394585 843.729623,667.795299 C843.695722,667.948533 843.656397,668.101089 843.617071,668.254322 C843.552659,668.433321 843.481466,668.61232 843.401459,668.791319 C843.179066,669.496466 842.998033,669.048291 842.781065,669.331706 C842.111853,670.291113 841.744363,671.69666 840.812078,672.397739 C840.46425,673.199166 840.13812,673.966692 839.761137,674.756592 C839.859451,675.067806 839.803853,675.407497 839.763171,675.74651 C839.56451,676.94865 839.585528,678.211812 839.2655,679.380729 C839.05938,679.298688 838.855294,679.216647 838.650531,679.135284 L838.175912,677.857883 L837.988099,677.775842 C838.01183,676.164174 837.959622,674.541658 838.029459,672.948974 C838.095905,671.447825 839.184815,671.853284 839.947594,670.889809 C841.246014,669.248309 840.30288,665.978867 842.196607,664.807916 C842.780387,664.447206 843.187203,664.28109 843.42519,663.633575 C843.578424,663.217945 843.712673,662.60501 843.166862,662.422621 C842.947859,662.346682 842.673937,662.383973 842.515279,662.215145 C841.977604,661.641535 843.364167,658.206655 843.554015,657.458792 C843.605545,657.256062 843.663855,657.041128 843.818445,656.899421 C844.258484,656.495995 845.750819,657.249282 846.371891,657.126559 C847.807272,656.843145 846.137972,653.811012 845.885068,653.08349 C845.382651,651.639295 844.855825,650.203914 844.305268,648.777347 C843.911334,647.758952 843.621139,645.983202 842.55257,645.532993 C842.381708,645.4618 842.174232,645.408236 841.949127,645.372979 C842.002691,644.786486 842.097615,643.731478 842.184402,642.634431 C843.111264,642.365255 845.711494,641.744183 845.782008,643.246689 C845.868118,645.076003 846.782775,644.687494 847.934741,644.446117 C849.087385,644.20474 849.511829,644.368822 849.511829,644.368822 C849.290793,644.034555 848.421563,643.924715 848.421563,643.924715 C850.083405,643.258215 851.225201,644.523412 851.225201,644.523412 C851.225201,644.523412 850.332919,642.348982 849.291471,642.757832 C848.249345,643.166004 846.679037,642.940221 846.904141,641.369913 C847.119076,639.872153 844.11542,639.454489 842.372893,639.722988 C842.389844,639.247692 842.385776,638.914103 842.350519,638.823247 C842.176266,638.37914 841.783011,639.378551 841.433827,645.328907 C840.82835,645.314668 840.191006,645.428577 839.802497,645.702499 C839.287197,646.065243 838.683754,647.478927 838.364404,648.069488 C837.880971,648.96516 837.39686,649.860833 836.91275,650.755827 C836.152683,652.162731 835.392616,653.569635 834.632548,654.975861 C834.431853,655.349453 835.554664,655.471498 835.725526,655.499975 C836.33575,655.601679 836.90258,655.449801 837.106665,655.995612 C837.302615,656.519726 836.933769,657.868998 836.849015,658.430403 C836.746634,659.111142 836.623233,659.865107 836.200823,660.431258 C835.958767,660.756711 835.51466,661.183867 835.382445,661.566274 C835.20209,662.087676 835.337695,662.187346 835.526865,662.754853 C835.843503,663.702734 835.872658,664.669599 835.288878,665.523912 C834.729506,666.342967 833.013422,665.837838 832.026216,665.778849 C831.898748,665.771391 831.76382,665.761221 831.658726,665.68935 C831.258691,665.415427 831.550242,663.435592 831.549564,662.965719 C831.548208,662.108017 831.772635,660.886214 831.541428,660.065802 C831.243774,659.006726 829.660584,659.778319 828.88899,659.014862 C828.602863,658.731447 828.565572,658.047319 828.501159,657.679151 C828.332331,656.711608 828.309956,655.726436 828.156722,654.758215 C827.852966,652.838045 825.474451,654.293767 824.317061,653.420469 C823.714974,652.96687 823.761757,650.822274 823.647849,650.04729 C823.525126,649.217386 825.652772,649.005842 826.271132,648.823453 C826.672523,648.706154 827.572942,648.770567 827.561415,648.148817 C827.541074,647.110759 826.110439,646.096432 825.50903,645.360096 C824.435715,644.047438 823.3624,642.734779 822.289085,641.422121 C822.289085,641.112941 821.347307,640.270155 821.137119,640.013861 C820.676739,639.450421 820.216359,638.886982 819.755302,638.323542 C819.306448,637.773663 818.077187,635.323277 817.224231,635.730771 C816.683166,635.989777 816.00175,638.093691 815.711555,638.657131 C815.215917,639.616538 814.72028,640.576622 814.224643,641.536707 C813.46661,643.00599 812.708577,644.474594 811.950544,645.943876 C811.513895,646.788697 810.283956,648.365107 810.228358,649.3157 C810.193101,649.925923 814.319567,649.877783 814.927078,649.914397 C815.028104,649.920499 815.138623,649.930669 815.210493,650.00254 C815.269482,650.062206 815.28711,650.151028 815.301349,650.233747 C815.392204,650.743623 816.342119,654.844324 815.713589,654.994168 L814.850461,655.198931 C814.473479,655.289109 814.532467,656.60787 815.008442,656.4187 C816.480436,655.83492 816.216684,656.919083 816.381444,658.124614 C816.396361,658.231742 816.344153,658.336158 816.250585,658.389722 C815.676297,658.715852 814.685701,659.018252 814.421949,659.63051 C814.252443,660.024443 814.400252,660.708571 814.440934,661.116065 C814.520941,661.918169 814.562978,663.076916 814.984711,663.790877 C815.477636,664.624171 816.840468,663.933263 817.332037,664.559759 C817.617486,664.923859 817.569346,666.210074 817.635792,666.684692 C817.736818,667.397976 817.805977,668.114649 817.900901,668.82861 C817.919207,668.964894 817.828352,669.093041 817.693425,669.12084 C817.414078,669.179828 816.038363,669.243562 816.171256,669.725639 C816.290589,670.160254 816.336016,670.715557 816.709609,670.967104 C817.068285,671.208482 817.608671,671.05118 817.974805,671.362394 C818.155838,671.514949 818.628422,672.152972 818.113801,672.26349 C817.15575,672.468932 815.698672,672.346209 814.929112,673.051356 C814.027338,673.87787 813.162855,676.088235 813.145904,677.295799 C813.128953,678.443697 814.313465,680.548968 813.389315,681.54431 C813.165567,681.783653 812.730952,681.924005 812.294303,682.035201 C811.645433,681.393788 810.972153,680.776107 810.271074,680.182834 C809.28319,679.348184 809.361841,679.708216 809.742213,678.422 C810.01139,677.509377 810.290737,676.599467 810.563981,675.6882 C810.575507,675.649552 810.587712,675.610227 810.599238,675.571579 C810.631106,675.484114 810.655515,675.39258 810.679245,675.301047 C811.250143,674.436564 812.08954,673.727348 812.861811,673.058137 C813.453728,672.544871 814.131076,672.027537 814.583997,671.3807 C814.963692,670.839636 814.880295,670.154151 814.836223,669.529689 C814.826731,669.394762 814.720959,669.420527 814.672141,669.521553 C814.539248,669.795476 814.585353,670.087705 814.601626,670.382646 C814.630103,670.886419 814.319567,671.177971 813.983944,671.508169 C813.3466,672.136699 812.629926,672.674374 811.958681,673.264935 C811.766121,673.434441 811.576952,673.612084 811.395241,673.796507 C811.524066,673.337483 811.597293,672.862865 811.766799,672.414012 C811.965461,671.88583 812.215652,671.362394 812.462454,670.855908 C812.509238,670.759628 812.45364,670.529778 812.35058,670.695216 C812.1926,670.949476 812.034619,671.198989 811.888844,671.455283 C811.852908,671.460029 811.814261,671.489863 811.788496,671.549529 C811.532202,672.136021 811.279298,672.71709 810.95927,673.266969 C810.95249,673.190352 810.942998,673.113735 810.930115,673.037118 C810.875873,672.721836 810.671109,672.428251 810.65009,672.111612 C810.625681,671.748868 810.901638,671.386803 811.092841,671.10271 C811.155898,671.008464 811.111148,670.763697 811.004698,670.922355 C810.704332,671.369852 810.439902,671.840402 810.470413,672.397739 C810.489398,672.759805 810.631106,673.104242 810.646022,673.469698 C810.65009,673.568012 810.648056,673.666326 810.642632,673.763284 C810.633818,673.775488 810.626359,673.788371 810.617545,673.800575 C810.43041,674.064327 810.23446,674.323333 810.070378,674.597256 C810.005966,674.477245 809.957148,674.347064 809.906974,674.216205 C809.652714,673.549706 809.388962,672.886596 809.176062,672.203824 C809.054695,671.813959 809.036388,671.458673 809.198437,671.072198 C809.54084,670.253821 809.859512,669.426629 810.258191,668.633339 C810.652802,667.848185 810.814173,667.547141 811.209462,667.512562 C811.574918,667.567482 811.93495,667.637997 812.299728,667.72614 C812.787228,667.844117 813.28829,667.953957 813.792063,667.897003 C814.219897,667.848185 814.657902,667.676644 814.835545,667.25559 C814.993525,666.881998 814.910128,666.432466 814.60366,666.160578 C814.432797,666.008022 814.209049,665.913099 813.981232,665.892758 C813.725616,665.869705 813.522209,665.951068 813.36355,666.15312 C813.289646,666.247365 813.407622,666.292115 813.476781,666.220922 C813.562212,666.133457 813.804945,666.148374 813.919532,666.16329 C814.032762,666.178207 814.142602,666.21482 814.24295,666.271096 C814.428051,666.375512 814.572471,666.549087 814.619255,666.758597 C814.666038,666.968107 814.619255,667.213552 814.461953,667.368142 C814.286344,667.540361 814.014455,667.591213 813.779858,667.614266 C813.383213,667.653591 812.987924,667.581043 812.600771,667.490865 C812.150562,667.235927 811.671876,667.127443 811.170814,667.051504 C811.196579,666.907085 811.199969,666.796566 811.236583,666.698931 C811.506437,665.975477 811.532202,665.218122 811.547119,664.460767 C811.563391,663.59764 811.27523,662.851811 810.65348,662.238876 C810.283956,661.874776 809.920534,661.503895 809.560503,661.130303 C808.862814,660.406849 808.595672,659.57898 808.87434,658.578891 C809.036388,657.997145 809.12521,657.393702 809.226914,656.797039 C809.269629,656.546169 809.285224,656.293265 809.28319,656.04104 C809.305565,655.930522 809.328618,655.820003 809.350314,655.709485 C809.375401,655.588796 809.39642,655.466752 809.424897,655.346063 C809.443204,655.26809 809.463545,655.171132 809.523211,655.112144 C809.666953,654.969081 809.957148,655.207746 810.0697,655.299957 C810.161912,655.37454 810.311755,655.208424 810.237172,655.12028 C810.074446,654.928399 809.856122,654.734484 809.581521,654.792116 C809.318447,654.847036 809.194368,655.097228 809.138092,655.335893 C809.130634,655.36776 809.123854,655.398949 809.117074,655.430816 L809.084528,655.424714 C809.033676,655.710163 808.982824,655.99629 808.931972,656.283773 C808.868916,656.573968 808.784841,656.8723 808.77467,657.171309 C808.643133,657.912392 808.508206,658.672459 808.365143,659.477276 C807.867472,658.530751 807.950869,657.593719 807.925104,656.689911 C808.07766,656.183425 808.286492,655.68372 808.357006,655.162996 C808.420741,654.69109 808.364465,654.205623 808.116985,653.790671 C807.942732,653.49912 807.626094,653.127562 807.268097,653.009585 C806.687028,652.688201 805.963575,652.636671 805.405559,653.045521 C805.021118,653.326902 804.748552,653.789993 804.789233,654.276816 C804.827203,654.730416 805.186557,655.136553 805.621849,655.256564 C806.101892,655.390135 806.673468,655.11011 806.771782,654.595488 C806.860603,654.129684 806.328353,653.711342 805.924249,654.018488 C805.826613,654.093071 805.863227,654.243593 805.990696,654.163586 C806.17105,654.048999 806.417174,654.177146 806.515488,654.341229 C806.649737,654.564977 806.512098,654.836188 806.31208,654.965013 C805.939166,655.205034 805.449631,654.983997 805.211644,654.656511 C804.947892,654.293089 804.991963,653.823895 805.267242,653.480136 C805.560149,653.114002 806.022563,652.966192 806.478874,653.031282 C806.945356,653.097729 807.378615,653.363515 807.674234,653.726937 C808.024774,654.157484 808.058675,654.664647 807.902729,655.183337 C807.761021,655.653887 807.551511,656.094604 807.457944,656.58007 C807.373191,657.018075 807.348782,657.462182 807.387429,657.906967 C807.470826,658.85078 807.817976,659.776963 808.415995,660.516011 C808.86417,661.193359 809.426931,661.775106 810.013424,662.324985 C810.452107,662.735869 810.740268,663.173195 810.866381,663.729177 C811.104368,664.782151 811.0108,665.812073 810.620257,666.868437 C810.559235,666.774192 810.516519,666.738934 810.519231,666.707745 C810.606019,665.684604 810.469735,664.679091 810.299551,663.674935 C810.260225,663.441694 810.244631,663.204385 810.204627,662.971144 C810.189711,662.88639 810.119196,662.813842 810.026306,662.810452 C809.925959,662.806383 809.879853,662.889103 809.852732,662.973856 C809.782895,663.187434 809.826967,663.403724 809.854088,663.617302 C809.924602,664.17464 810.032409,664.729265 810.073768,665.288637 C810.132756,666.085995 810.17954,666.890134 809.855444,667.654269 C809.568639,668.330939 809.274376,669.004897 808.980112,669.678855 C808.923158,669.809036 808.917056,669.988035 808.687205,670.000917 C808.243776,669.246952 807.798991,668.481461 807.344035,667.72275 C807.250468,667.566126 807.132491,667.305764 806.922981,667.433233 C806.698555,667.570872 806.919591,667.776992 806.998242,667.934294 C807.377259,668.688937 807.765768,669.437478 808.151564,670.188053 C808.28378,670.444346 808.377347,670.702674 808.246488,670.992191 C807.995618,671.546817 808.083084,672.088559 808.312935,672.626234 C808.533293,673.143568 808.733311,673.669716 808.961806,674.18366 C809.186232,674.688111 809.209285,675.177646 808.969942,675.685487 C808.720428,676.21367 808.50346,676.756769 808.261405,677.287663 C808.064777,677.716853 807.986126,677.74194 807.577276,677.51548 C806.858569,677.116122 806.153422,676.691678 805.424544,676.312662 C805.019762,676.101795 804.814998,675.793294 804.729567,675.362069 C804.551924,674.469787 804.267831,673.608016 803.978992,672.744889 C803.696256,671.900746 803.253505,671.127119 802.962631,670.287722 C802.839231,669.932437 802.839909,669.615121 803.026366,669.293058 C803.123324,669.12423 803.195194,668.936417 803.313849,668.785895 C803.714562,668.278731 803.806774,667.755295 803.69829,667.218299 C803.793891,667.075913 803.913902,666.948444 804.060355,666.83996 C804.379028,666.603329 804.703802,666.450095 804.918736,666.098878 C805.107906,665.790376 805.198083,665.42153 805.286227,665.07438 C805.360131,664.782151 805.43268,664.491278 805.497771,664.198371 C805.505229,664.167182 805.512687,664.135992 805.520146,664.104803 C805.615069,663.706802 805.678804,663.277611 805.868651,662.911477 C806.027309,662.60501 806.343947,662.268709 806.725676,662.359564 C806.887724,662.397534 807.016549,662.511442 807.124355,662.632809 C807.24301,662.76638 807.426755,662.975212 807.435569,663.162347 C807.440993,663.277611 807.596939,663.175908 807.616602,663.120309 C807.693897,662.902663 807.540663,662.729088 807.415906,662.562294 C807.30471,662.414484 807.179953,662.276845 807.014515,662.188024 C806.630752,661.981226 806.183255,662.194804 805.910688,662.486355 C805.58388,662.83486 805.455055,663.306089 805.345215,663.758332 C805.234019,664.21939 805.12011,664.680447 805.028577,665.145573 C804.96552,665.381526 804.899074,665.614089 804.751264,665.813429 C804.59464,666.023617 804.370891,666.119218 804.155279,666.253468 C803.92814,666.394497 803.730157,666.571462 803.566753,666.774192 C803.535563,666.694863 803.501662,666.614855 803.463693,666.53417 C803.417587,666.436535 803.375549,666.336187 803.324019,666.241263 C803.138918,665.899538 803.120611,665.543574 803.210789,665.171338 C803.358599,664.561115 803.543022,663.963096 803.758634,663.372535 C803.999333,662.712816 804.212233,662.044282 804.341058,661.354052 C804.349195,661.318794 804.358009,661.283537 804.362755,661.245567 C804.364789,661.227261 804.366823,661.209632 804.368857,661.191325 C804.393944,661.041482 804.416319,660.89096 804.431914,660.738404 C804.442762,660.632632 804.457001,660.525504 804.455645,660.417698 C804.482766,660.156658 804.49158,659.903076 804.372925,659.656953 C804.148499,659.193861 803.630487,658.909768 803.126714,658.884681 C802.618194,658.859594 802.129337,659.105717 801.866263,659.545756 C801.749643,659.74035 801.677772,659.96681 801.685908,660.194627 C801.696079,660.445497 801.976782,660.623818 802.174765,660.737048 C802.399192,660.865195 802.690065,660.907911 802.913135,660.751287 C803.142986,660.590594 803.185024,660.31735 803.210111,660.057666 C803.216213,659.987829 803.092812,660.075295 803.087388,660.126825 C803.066369,660.340403 803.010771,660.612291 802.77075,660.673992 C802.547679,660.730946 802.325287,660.615681 802.153746,660.484144 C802.077129,660.425834 801.988308,660.360744 801.926608,660.285483 C801.846601,660.187169 801.864229,660.041393 801.887282,659.925451 C801.923896,659.735604 802.020853,659.562029 802.155102,659.423712 C802.743629,658.818234 803.947803,659.123346 804.197317,659.930197 C804.221726,660.009526 804.231218,660.091567 804.233252,660.174964 C804.042727,661.908677 803.176888,663.419319 802.71583,665.129979 C801.971357,664.201761 801.389611,663.266763 800.393591,662.72841 C800.733282,663.274221 801.09467,663.804438 801.51708,664.279734 C802.237822,665.091331 802.721932,665.999208 802.883302,667.080659 C802.933476,667.418994 802.919238,667.720716 802.730068,668.010233 C802.398514,668.517396 802.081876,669.033374 801.744219,669.535792 C801.707605,669.590034 801.67506,669.637495 801.645905,669.682245 C801.6337,669.668007 801.621496,669.654446 801.609291,669.640208 C801.485213,669.493754 801.37266,669.337808 801.270956,669.175082 C801.161794,669.000829 801.070939,668.814372 800.95364,668.644865 C800.563775,668.084816 799.850492,667.954635 799.360957,667.511884 C799.207723,667.146428 799.000247,666.815551 798.931089,666.414838 C798.895831,666.210074 798.892441,665.995818 798.937869,665.791732 C798.975838,665.620869 799.047709,665.412037 799.192807,665.302197 C799.518259,665.055396 799.996268,665.376102 800.228152,665.611377 C800.365792,665.750372 800.464784,665.931405 800.420034,666.132101 C800.375962,666.331441 800.214592,666.469758 800.15696,666.660283 C800.123736,666.772158 800.230187,666.823687 800.31833,666.766055 C800.47631,666.662317 800.58276,666.458231 800.651919,666.288047 C800.723111,666.11176 800.740062,665.917845 800.67565,665.73749 C800.552927,665.39034 800.171198,665.099467 799.830151,664.986237 C799.454525,664.86148 799.06805,664.965896 798.849726,665.305587 C798.631401,665.64799 798.58733,666.085317 798.644962,666.47925 C798.647674,666.495523 798.651742,666.512474 798.654454,666.528746 C798.689033,666.844028 798.775821,667.153208 798.939903,667.425775 C799.022622,667.607486 799.118902,667.782416 799.228742,667.945821 C799.525039,668.389928 799.95762,668.662494 800.36308,668.994727 C800.538688,669.138468 800.694634,669.304585 800.841766,669.480871 C800.477666,669.32696 800.089835,669.234748 799.692512,669.24763 C799.302647,669.261191 798.893797,669.364251 798.554106,669.114737 C798.531731,669.098465 798.508679,669.099821 798.48766,669.112025 C798.467319,669.099143 798.446978,669.087616 798.426637,669.074056 C797.842179,668.685547 797.262467,668.268561 796.705807,667.838692 C796.600713,667.727496 796.496975,667.615622 796.393915,667.501035 C796.105754,667.178973 795.620966,667.221011 795.348399,667.547141 C794.983621,667.983112 795.130075,668.524177 795.290089,669.008287 C795.332127,669.136434 795.547061,668.988625 795.51994,668.88014 C795.432474,668.526211 795.27585,667.909207 795.648765,667.655625 C795.822339,667.537649 796.013543,667.579008 796.150504,667.725462 C796.290855,667.875984 796.41968,668.036676 796.563422,668.184486 C796.857007,668.486885 797.177035,668.764198 797.518082,669.011677 C797.568934,669.048969 797.621142,669.085582 797.67335,669.122874 C797.810312,669.248987 797.949985,669.373743 798.093049,669.492398 C798.554106,669.874127 799.06805,669.994137 799.652508,670.036853 C800.232899,670.079568 800.790914,670.110758 801.324521,670.370442 C801.332657,670.37451 801.340115,670.379256 801.348251,670.383324 C801.441819,670.455195 801.533353,670.530456 801.622852,670.607751 C801.860161,670.813871 802.066281,671.114236 802.30698,671.333917 C802.436483,671.556987 802.552426,671.787516 802.653452,672.026859 C803.223671,673.384945 803.558616,674.808122 803.742361,676.261132 C803.717952,676.259097 803.694221,676.255707 803.669813,676.255029 C803.016873,676.22723 802.404616,676.592008 801.750999,676.469286 C801.315028,676.387244 800.933978,676.122814 800.63429,675.79126 C800.498685,675.597344 800.374606,675.39258 800.251883,675.188494 C800.00915,674.782357 799.763027,674.380965 799.498596,673.990422 C799.365025,673.761928 799.231454,673.532077 799.100595,673.301548 C799.051099,673.214761 798.97177,673.312396 798.946005,673.410032 C798.914138,673.475123 798.895831,673.570046 798.910748,673.604626 C799.242981,674.359269 799.638948,675.080688 800.053222,675.79465 C800.151536,675.963478 800.252561,676.132307 800.361724,676.294355 C800.121024,676.214348 799.883037,676.126882 799.658611,676.019754 C799.156871,675.780411 798.79684,675.354611 798.445622,674.937625 C798.046943,674.463685 797.665214,673.969404 797.246194,673.513092 C797.13771,673.395794 796.99329,673.745655 797.060415,673.839223 C797.433329,674.362659 797.848281,674.86033 798.24357,675.366815 C798.605636,675.829907 798.972448,676.26859 799.504699,676.539122 C800.092547,676.83881 800.743452,677.040183 801.361134,677.269356 C801.524538,677.358178 801.694723,677.428692 801.869653,677.484969 C802.114421,677.586672 802.378851,677.672104 802.608024,677.647695 C802.821602,677.677528 803.037892,677.695157 803.25147,677.708039 C803.778975,677.739228 804.287494,677.769061 804.796692,677.851781 C805.894416,678.61795 806.981292,679.400392 807.962395,680.319117 C808.158345,680.502862 808.363787,680.65135 808.278355,680.965276 C808.203094,681.239877 808.354294,681.411417 808.55838,681.565329 C808.765178,681.721275 808.978078,681.876543 809.155043,682.063678 C809.356417,682.277256 809.549654,682.496259 809.738823,682.717973 C808.86756,682.970877 808.078338,683.355996 807.92307,684.329641 C807.802381,685.086996 807.807805,685.934529 807.213176,686.496612 C806.457855,687.209896 805.261818,687.514329 804.376994,688.039121 C803.19316,688.740878 803.128748,689.155152 803.128748,690.482727 C803.128748,690.626469 803.244012,690.743767 803.387754,690.745801 C803.387754,690.745801 849.444027,691.517395 849.715915,691.522165 C850.208162,691.530277 849.158578,689.485351 849.06162,689.296182 C848.530726,688.262192 848.22697,686.898682 847.39232,686.076236 C847.268241,685.953513 847.125856,685.857912 846.96991,685.782651 C846.033556,685.332442 844.815143,685.586023 843.821157,685.629417 C843.642836,685.636875 843.459091,685.643656 843.292975,685.579921 C842.829883,685.4016 842.467139,684.682215 842.159315,684.301842 C841.660966,683.686872 841.174821,683.061732 840.683253,682.441339 C840.996501,682.343703 841.297544,682.20403 841.592485,682.020963 C842.577657,681.405993 843.495704,680.643214 844.684284,680.404549 C844.770393,680.38692 844.831416,680.251993 844.920237,680.155035 C844.436805,679.796359 843.856414,680.369291 843.417731,679.902131 C843.509265,679.254616 843.832683,678.709484 844.189325,678.184013 C844.769037,677.196129 845.745395,678.352164 846.225437,678.864073 C846.537329,679.264109 846.749551,679.742117 847.000421,680.188936 C847.103481,680.370647 847.129246,680.622873 847.519111,680.65135 C847.411983,680.140796 847.315703,679.679739 847.212643,679.180712 C847.491312,679.207833 847.696076,679.228173 847.902196,679.248514 C847.920502,679.213257 847.939487,679.178678 847.957794,679.144098 C847.260105,678.767794 846.617336,678.334535 846.164415,677.591419 C846.676325,677.415132 847.106871,677.384621 847.564539,677.15816 C847.809306,677.016453 848.06221,676.915427 848.320538,676.8422 C848.535472,676.802874 848.753796,676.771007 848.976867,676.745242 C849.589124,676.674049 850.204094,676.602179 850.776348,676.884237 C851.248254,677.117478 851.87814,677.659221 851.597437,678.241646 C851.524211,678.394879 851.401488,678.545401 851.253,678.66948 C851.203504,678.692533 851.151974,678.71423 851.099088,678.732536 C850.863813,678.812543 850.603451,678.877634 850.353938,678.839665 C850.217654,678.819324 850.088829,678.754233 850.00272,678.657954 C849.95797,678.593541 849.924747,678.52167 849.902372,678.447087 C849.894236,678.394201 849.89288,678.338603 849.907796,678.278259 C849.985091,677.960943 850.361396,678.04434 850.545141,678.210456 C850.603451,678.26402 850.686848,678.15079 850.681424,678.093158 C850.783806,678.04773 850.848219,677.876868 850.709901,677.857205 C850.391229,677.811099 850.056962,677.483612 849.752529,677.778554 C849.54234,677.981962 849.529458,678.339959 849.614889,678.605068 C849.649469,678.77593 849.73151,678.901365 849.844062,678.989508 C850.201382,679.347506 850.805503,679.321741 851.25978,679.03697 C851.268595,679.031546 851.276053,679.025444 851.284189,679.020019 C851.605574,678.895263 851.88492,678.687109 852.034086,678.36708 C852.176472,678.062647 852.205627,677.703293 852.083582,677.386655 C851.942553,677.021877 851.62727,676.783212 851.393351,676.482846 C851.339787,676.415043 851.295038,676.33707 851.215709,676.295711 C851.141804,676.257741 851.050948,676.264522 850.970941,676.263166 C850.73092,676.260454 850.490899,676.260454 850.250878,676.259776 C849.560647,676.257063 848.779561,676.240113 848.088653,676.442843 C848.621581,675.376308 849.59387,675.806176 850.358006,675.018988 C850.87534,674.513859 851.494377,674.189084 852.1324,673.889397 C852.304618,673.894143 852.482939,673.796507 852.631427,673.724636 C852.80229,673.642595 852.966372,673.548349 853.122996,673.440543 C853.456585,673.211371 853.754916,672.92999 854.001718,672.609283 C854.466165,672.005162 854.875693,671.176614 854.80111,670.393494 L854.80111,670.393494 Z" id="57"></path>
        </g>
    </g>
</svg>
