<?xml version="1.0" encoding="UTF-8"?>
<svg width="55px" height="60px" viewBox="0 0 55 60" version="1.1" xmlns="http://www.w3.org/2000/svg" xmlns:xlink="http://www.w3.org/1999/xlink">
    <title>109</title>
    <g id="页面-1" stroke="none" stroke-width="1" fill="none" fill-rule="evenodd">
        <g id="形状库素材-节日" transform="translate(-724.000000, -954.000000)" fill="#545458">
            <path d="M741.234742,954.054669 L741.239856,954.232371 C741.280126,955.588787 741.888021,964.415719 751.008992,965.468508 C744.683747,972.364641 752.058077,980.247318 753.025252,981.225521 L753.127354,981.326815 C753.127354,981.326815 748.762788,981.902109 745.017622,985.66006 C745.399873,985.679236 745.78532,985.715032 746.172046,985.789821 C749.985608,986.528115 752.647942,989.83414 752.718895,993.56716 C755.363675,991.275686 756.781758,988.657254 757.101898,988.023526 L757.147022,987.932764 C757.163911,987.898155 757.172312,987.880057 757.172312,987.880057 C757.172312,987.880057 764.304044,999.563005 771.759858,996.634118 C771.010697,1002.91186 778.725394,1009.2516 778.725394,1009.2516 L778.558558,1009.19024 C777.28524,1008.72041 768.869963,1005.98713 764.48622,1014.05467 C760.177266,1005.03533 748.984596,1010.096 748.984596,1010.096 C748.984596,1010.096 750.064231,1005.89252 748.036638,1001.05749 C747.208215,1001.44358 746.312034,1001.69223 745.378779,1001.77853 C745.543696,1002.50723 745.58972,1003.27301 745.484249,1004.05158 C745.46763,1004.17431 745.448453,1004.29896 745.423524,1004.4236 C744.747233,1007.91884 741.36706,1010.20339 737.872466,1009.52646 C734.377234,1008.85017 732.091398,1005.46808 732.768328,1001.97349 C733.084739,1000.32687 734.007767,998.945523 735.258713,998.022495 C735.857658,997.577601 736.535866,997.245209 737.257541,997.029154 C736.599788,995.562792 736.366474,993.889325 736.69567,992.192207 C737.138647,989.902536 738.511682,988.034108 740.343036,986.885437 C735.833368,982.361066 729.461025,982.030592 729.461025,982.030592 L729.472894,982.014503 C729.817544,981.545147 737.512403,970.921403 732.132308,965.228802 C738.23618,963.578347 741.234742,954.054669 741.234742,954.054669 Z M757.661951,994.413968 C757.499591,994.417957 757.348736,994.483796 757.235594,994.601412 L752.915134,999.109162 L751.177745,998.470585 C750.922698,998.822793 750.646557,999.156464 750.341012,999.460092 L752.455538,1000.23738 L752.126981,1005.65793 C752.116753,1005.82093 752.171087,1005.97754 752.279114,1006.09963 C752.387142,1006.22172 752.53544,1006.29331 752.697801,1006.3029 C752.860801,1006.31249 753.017409,1006.25815 753.13886,1006.15013 C753.26095,1006.0421 753.332542,1005.8938 753.34213,1005.73208 L753.648315,1000.67588 L761.777223,1003.66358 L764.482385,1009.92278 C764.544389,1010.07299 764.660726,1010.18997 764.81286,1010.25261 C764.963075,1010.31334 765.135024,1010.31206 765.28524,1010.24686 C765.434817,1010.1823 765.549876,1010.0634 765.609962,1009.91191 C765.669409,1009.76042 765.666852,1009.59486 765.602291,1009.44656 L763.35353,1004.24271 L770.741587,1006.95809 C770.89436,1007.01435 771.059917,1007.00795 771.207575,1006.93956 C771.355873,1006.87116 771.467736,1006.74971 771.523348,1006.59694 C771.584713,1006.4301 771.57065,1006.24537 771.484356,1006.09068 C771.432579,1005.99799 771.357791,1005.92065 771.267662,1005.86631 C771.234422,1005.8465 771.199266,1005.82924 771.16283,1005.81582 L763.671859,1003.06271 L768.217963,1000.52247 C768.360508,1000.44257 768.463422,1000.31344 768.507527,1000.1562 C768.551633,1000.00023 768.531818,999.83659 768.453194,999.694684 C768.400778,999.600719 768.326629,999.524013 768.237139,999.470319 C768.191116,999.442194 768.141257,999.42046 768.088841,999.405758 C767.932233,999.361013 767.767315,999.37955 767.62477,999.459452 L762.165867,1002.50915 L754.162244,999.56748 L758.115795,995.44262 C758.301167,995.247659 758.337603,994.960012 758.207203,994.72542 L758.096618,994.583514 C758.063379,994.550914 758.027583,994.523427 757.98923,994.500416 C757.89143,994.440968 757.778928,994.411565 757.661951,994.413968 Z M736.21434,1004.80841 C736.845886,1006.42307 735.395505,1006.97727 735.395505,1006.97727 C735.395505,1006.97727 737.050435,1006.80021 737.538157,1008.00385 C737.299729,1006.47676 738.534055,1005.71482 738.534055,1005.71482 C738.534055,1005.71482 736.840772,1006.42627 736.21434,1004.80841 Z M743.034646,991.318669 L742.919289,991.500685 C741.232186,994.019456 738.870922,992.554642 738.870922,992.554642 C738.870922,992.554642 741.014852,994.823859 739.772855,996.918569 C741.781272,994.828973 744.320237,995.806334 744.320237,995.806334 C744.320237,995.806334 741.335738,994.086204 743.038609,991.313924 L743.034646,991.318669 Z M724.971172,990.750136 C725.504278,987.996394 728.169169,986.195723 730.922911,986.728829 C733.677293,987.262574 735.477325,989.926826 734.944218,992.681207 C734.411112,995.434949 731.746221,997.23562 728.992479,996.701875 C726.238098,996.168769 724.438066,993.503878 724.971172,990.750136 Z M728.28295,990.696442 C727.380377,992.176227 726.061035,991.357391 726.061035,991.357391 C726.061035,991.357391 727.203953,992.567427 726.541726,993.684137 C727.613051,992.569984 728.966271,993.091584 728.966271,993.091584 C728.966271,993.091584 727.375263,992.174309 728.28295,990.696442 Z M741.435456,960.781777 C741.099868,960.791365 740.834593,961.071981 740.844181,961.408848 L741.136303,971.228482 L736.07627,966.548144 C735.828254,966.324418 735.444725,966.338481 735.216524,966.583301 C734.990242,966.828759 735.004944,967.213567 735.251042,967.443046 L741.18744,972.93391 L741.429064,981.073686 L735.400619,977.685841 C735.108497,977.522202 734.736473,977.626394 734.571556,977.918516 C734.491654,978.061061 734.472477,978.22534 734.516583,978.381948 C734.561328,978.537916 734.66616,978.656171 734.80423,978.747579 L741.471891,982.494023 L741.583115,986.244303 C741.973036,986.085138 742.376382,985.957934 742.789954,985.860774 L742.687041,982.389831 L746.994717,978.395371 C747.200544,978.204246 747.249764,977.8987 747.112971,977.653241 L747.027317,977.535626 C746.988324,977.492798 746.94294,977.457002 746.895638,977.428237 C746.669356,977.292084 746.370842,977.314457 746.166932,977.503026 L742.63846,980.774533 L742.403229,972.862958 L745.753359,968.609615 C745.905493,968.416572 745.927226,968.152576 745.807693,967.937799 C745.76934,967.867485 745.718202,967.80676 745.651724,967.753705 C745.631269,967.738364 745.610814,967.723662 745.58972,967.710877 C745.330838,967.554269 744.988857,967.612438 744.797092,967.855979 L742.346978,970.967043 L742.061248,961.371134 C742.058052,961.273973 742.031205,961.177452 741.983903,961.093714 C741.930848,960.998471 741.85606,960.921765 741.767209,960.868071 C741.66877,960.809903 741.55435,960.777942 741.435456,960.781777 Z" id="109"></path>
        </g>
    </g>
</svg>
