<?xml version="1.0" encoding="UTF-8"?>
<svg width="53px" height="61px" viewBox="0 0 53 61" version="1.1" xmlns="http://www.w3.org/2000/svg" xmlns:xlink="http://www.w3.org/1999/xlink">
    <title>105</title>
    <g id="页面-1" stroke="none" stroke-width="1" fill="none" fill-rule="evenodd">
        <g id="形状库素材-节日" transform="translate(-395.000000, -954.000000)" fill="#545458">
            <path d="M421.790541,987.548216 C420.099315,987.548216 418.727652,986.177373 418.727652,984.485328 C418.727652,982.794102 420.099315,981.422439 421.790541,981.422439 C423.482586,981.422439 424.853429,982.794102 424.853429,984.485328 C424.853429,986.177373 423.482586,987.548216 421.790541,987.548216 Z M430.361384,988.323361 C434.609113,989.439373 440.432534,989.532784 447.021268,985.649684 C439.796686,980.475222 433.437383,980.638281 429.103617,981.891132 C440.076918,975.268803 447.960291,970.045177 447.653839,969.524044 C447.366232,969.034867 439.935163,972.842583 429.81321,978.584884 C432.581937,975.334355 435.046669,970.390961 434.720551,963.204891 C426.878147,967.110934 424.016829,972.700008 423.053224,977.089493 C422.905733,964.220118 422.396891,954.726639 421.790541,954.726639 C421.203036,954.726639 420.706485,963.648182 420.543426,975.918581 C419.061145,971.804413 415.862237,966.996219 409.018673,963.75798 C408.839226,970.839988 411.159745,975.554771 413.865378,978.639783 C403.694262,972.867164 396.216488,969.033228 395.928062,969.524044 C395.642094,970.009944 402.475826,974.583791 412.297062,980.567813 C408.326287,979.893453 403.233764,980.367881 397.415259,983.963375 C403.935983,988.429882 409.933115,988.605232 414.285727,987.678499 C403.41321,994.245109 395.623248,999.411377 395.928062,999.928414 C396.228779,1000.44135 404.378455,996.233774 415.247693,990.026878 C412.247898,993.172525 409.474255,998.271603 410.003583,1006.24839 C416.018741,1003.09455 419.05459,998.796833 420.563091,994.934218 C420.744996,1006.477 421.225979,1014.72664 421.790541,1014.72664 C422.39771,1014.72664 422.908192,1005.19219 423.054044,992.279387 C423.110582,992.27529 423.16712,992.273651 423.223658,992.268735 C424.347864,996.628721 427.42796,1002.14815 435.477669,1005.75265 C435.506348,999.07133 433.207133,994.428653 430.55558,991.288742 C440.296515,996.794239 447.373606,1000.40612 447.653839,999.928414 C447.948,999.427765 440.673436,994.58106 430.361384,988.323361 L430.361384,988.323361 Z" id="105"></path>
        </g>
    </g>
</svg>
