<?xml version="1.0" encoding="UTF-8"?>
<svg width="61px" height="52px" viewBox="0 0 61 52" version="1.1" xmlns="http://www.w3.org/2000/svg" xmlns:xlink="http://www.w3.org/1999/xlink">
    <title>swan-love-heart-svgrepo-com</title>
    <g id="页面-1" stroke="none" stroke-width="1" fill="none" fill-rule="evenodd">
        <g id="形状库素材-节日" transform="translate(-558.000000, -801.000000)" fill="#545458" fill-rule="nonzero">
            <g id="swan-love-heart-svgrepo-com" transform="translate(558.415469, 801.634718)">
                <path d="M23.2939966,8.44030451 C21.5574493,6.68485302 21.2586459,3.86387957 22.7643863,1.90370601 C24.5835844,-0.464592793 27.9709507,-0.623153483 30,1.42817049 C32.0291958,-0.623153483 35.4164156,-0.464739337 37.2356137,1.90370601 C38.7413541,3.86387957 38.4424042,6.68485302 36.7060034,8.44030451 L31.943321,13.2550101 C30.8709114,14.3391432 29.1290886,14.3391432 28.056679,13.2550101 L23.2939966,8.44030451 Z M27.97183,19.9768403 L30,23.447004 L26.7994774,21.5829634 C25.521613,22.309822 23.5872313,21.864328 22.2273022,20.4340578 C20.9259908,20.4340578 19.7067441,20.949893 18.7805856,21.8877751 C16.8110332,23.8807745 16.8110332,27.1281912 18.7805856,29.1211906 L25.0409485,35.4284476 C30.5510057,40.9736755 26.611901,50.4111139 18.7923091,50.4111139 L16.0958981,50.4111139 C12.9891637,50.4111139 10.0113881,49.1801437 7.80736519,46.9761208 L0.339479095,39.5082347 C-0.38737952,38.7813761 0.128455626,37.5152353 1.17184944,37.5152353 L4.8772164,37.5152353 C3.92277483,36.5196148 3.02445965,35.3028594 3.02445965,33.2362948 L3.02445965,30.9735077 C3.02445965,30.3386788 3.27754127,29.7479596 3.70794122,29.3174132 C2.41146578,28.0209377 1.85210704,26.5527126 1.85210704,25.041257 L1.85210704,22.8253641 C1.85210704,21.8761981 2.41996534,21.0272682 3.29922979,20.6632528 C4.17732189,20.2963064 5.17689903,20.4954598 5.84660546,21.1635542 L13.0546689,28.4170464 C12.0268088,25.0616267 12.8141901,21.2593941 15.4276571,18.6051878 C18.3585386,15.6274122 22.7079668,14.9708947 26.2601952,16.6356354 C27.502889,17.2218117 28.2766417,18.6638054 27.97183,19.9768403 Z M14.5888388,33.2339501 L4.18875233,22.8212608 L4.19681225,25.0411105 C4.19681225,25.96214 4.57123237,26.8648515 5.22496549,27.5185846 C5.22511203,27.5187312 14.9518285,37.2460338 14.9610608,37.2551196 C15.419011,37.7130698 15.419011,38.4550224 14.9610608,38.9129727 C14.7320124,39.1420211 14.4321832,39.256472 14.1322075,39.256472 C13.8322318,39.256472 13.532256,39.1420211 13.3033542,38.9129727 L5.36828559,30.9783437 L5.36945795,33.2360017 C5.36945795,34.721519 6.04839665,35.3918116 7.07640334,36.4056035 L7.34018268,36.6693829 C7.35527672,36.6835977 7.36890531,36.6975193 7.38312009,36.7123203 L12.094219,41.4223934 C15.5092822,44.8387755 20.9019576,39.7509117 17.4328197,36.1479791 L14.5888388,33.2339501 Z M59.6605209,39.5082347 L52.1926348,46.9761208 C49.9886119,49.1801437 47.0108363,50.4111139 43.9041019,50.4111139 L41.2076909,50.4111139 C33.388099,50.4111139 29.4489943,40.9736755 34.9590515,35.4284476 L41.2194144,29.1211906 C43.1889668,27.1281912 43.1889668,23.8807745 41.2194144,21.8877751 C40.2932559,20.949893 39.0740092,20.4340578 37.7726978,20.4340578 C36.4127687,21.864328 34.478387,22.309822 33.2005226,21.5829634 L30,23.447004 L32.02817,19.9768403 C31.7233583,18.6638054 32.497111,17.2218117 33.7398048,16.6356354 C37.2920332,14.9708947 41.6414614,15.6274122 44.5723429,18.6051878 C47.1713021,21.2447397 47.9664502,25.0198616 46.9643818,28.3616527 L54.1533945,21.1647266 C54.8209028,20.4956063 55.8203334,20.2963064 56.7007702,20.6632528 C57.5800347,21.0272682 58.147893,21.8761981 58.147893,22.8253641 L58.147893,25.041257 C58.147893,26.5584278 57.5845775,28.0248944 56.2920588,29.3174132 C56.7226053,29.7479596 56.9755404,30.3386788 56.9755404,30.9735077 L56.9755404,33.2362948 C56.9755404,35.3030059 56.0772252,36.5196148 55.1227836,37.5152353 L58.8281506,37.5152353 C59.8715444,37.5152353 60.3873795,38.7813761 59.6605209,39.5082347 Z M45.0390858,37.2554126 L52.9776714,29.3174132 C52.9791369,29.3159477 52.9795765,29.3137495 52.9810419,29.3122841 L54.7750345,27.5188777 C55.4287676,26.8651446 55.8031877,25.9624331 55.8031877,25.0414036 L55.8031877,22.8255106 L42.5626374,36.1535477 C39.0965769,39.7523771 44.4864681,44.842146 47.905781,41.4228331 C54.1558858,35.1740471 54.6308351,35.080552 54.6308351,33.2364414 L54.6308351,30.9799557 L46.6967923,38.9134123 C46.467744,39.1424607 46.1679148,39.2569116 45.8679391,39.2569116 C45.5679633,39.2569116 45.2679876,39.1424607 45.0390858,38.9134123 C44.5811355,38.455169 44.5811355,37.7133629 45.0390858,37.2554126 Z" id="形状"></path>
            </g>
        </g>
    </g>
</svg>
