<?xml version="1.0" encoding="UTF-8"?>
<svg width="53px" height="61px" viewBox="0 0 53 61" version="1.1" xmlns="http://www.w3.org/2000/svg" xmlns:xlink="http://www.w3.org/1999/xlink">
    <title>115</title>
    <g id="页面-1" stroke="none" stroke-width="1" fill="none" fill-rule="evenodd">
        <g id="形状库素材-节日" transform="translate(-387.000000, -1035.000000)" fill="#545458">
            <path d="M414.469188,1069.91347 L414.469188,1067.07153 L416.565169,1068.28168 L414.469188,1069.91347 Z M410.23263,1068.27155 L412.578953,1066.91747 L412.578953,1070.04827 L410.23263,1068.27155 Z M409.471468,1064.18601 L411.499543,1065.35765 L409.471468,1066.52827 L409.471468,1064.18601 Z M412.578953,1060.94271 L412.578953,1063.79681 L410.305604,1062.48429 L412.578953,1060.94271 Z M416.456721,1062.49544 L414.469188,1063.64275 L414.469188,1061.18291 L416.456721,1062.49544 Z M417.310114,1066.52827 L415.281026,1065.35765 L417.310114,1064.18601 L417.310114,1066.52827 Z M439.092915,1079.10518 L431.72556,1074.85139 L435.870901,1073.624 C436.370571,1073.47603 436.656387,1072.95 436.508411,1072.44932 C436.359422,1071.94965 435.832387,1071.66079 435.333729,1071.81181 L429.469441,1073.549 L426.048775,1071.57363 L430.193102,1070.34726 C430.693786,1070.19827 430.978588,1069.67225 430.831626,1069.17156 C430.682637,1068.67189 430.159656,1068.38608 429.655931,1068.53405 L423.791643,1070.27124 L419.200349,1067.61985 L419.200349,1063.09443 L423.644681,1060.52817 L429.631606,1062.48023 C429.728905,1062.51165 429.828231,1062.52686 429.924516,1062.52686 C430.322834,1062.52686 430.693786,1062.27347 430.823518,1061.87516 C430.985683,1061.37853 430.714057,1060.84541 430.21844,1060.68223 L425.846069,1059.25721 L429.321466,1057.25042 L435.309405,1059.20349 C435.406704,1059.23491 435.505016,1059.2491 435.602315,1059.2491 C435.999619,1059.2491 436.370571,1058.99673 436.501317,1058.59638 C436.662468,1058.10077 436.390842,1057.56765 435.894212,1057.40549 L431.522854,1055.97945 L438.959129,1051.68613 C439.411163,1051.42565 439.566233,1050.84794 439.304742,1050.39489 C439.043252,1049.94185 438.464526,1049.78678 438.013504,1050.04928 L430.648177,1054.30205 L431.65664,1050.09996 C431.778264,1049.59218 431.465083,1049.08237 430.957304,1048.95973 C430.448512,1048.83912 429.939719,1049.15028 429.818096,1049.65907 L428.390031,1055.60546 L424.970379,1057.57981 L425.979855,1053.3767 C426.102492,1052.86892 425.789311,1052.3581 425.281533,1052.23648 C424.771727,1052.11283 424.263948,1052.42702 424.141311,1052.9348 L422.71426,1058.88321 L418.288171,1061.43832 L414.469188,1058.91869 L414.469188,1053.56522 L418.905411,1049.354 C419.284472,1048.99419 419.299675,1048.39621 418.940885,1048.01816 C418.581082,1047.64113 417.983099,1047.62492 417.604038,1047.98269 L414.469188,1050.95842 L414.469188,1047.0097 L418.905411,1042.7995 C419.284472,1042.43969 419.299675,1041.84171 418.940885,1041.46265 C418.581082,1041.0846 417.983099,1041.0694 417.604038,1041.42819 L414.469188,1044.40391 L414.469188,1036.45581 C414.469188,1035.93384 414.046546,1035.5112 413.523564,1035.5112 C413.001595,1035.5112 412.578953,1035.93384 412.578953,1036.45581 L412.578953,1044.48398 L409.157274,1041.40995 C408.772132,1041.06433 408.173135,1041.09474 407.822454,1041.48191 C407.473799,1041.87009 407.506232,1042.46807 407.894415,1042.81673 L412.578953,1047.0249 L412.578953,1051.03849 L409.157274,1047.96546 C408.772132,1047.61883 408.173135,1047.64924 407.822454,1048.03742 C407.473799,1048.42459 407.506232,1049.02257 407.894415,1049.37224 L412.578953,1053.58042 L412.578953,1058.65922 L408.486316,1061.43427 L403.583869,1058.60449 L402.155804,1052.65608 C402.03418,1052.14932 401.524375,1051.84019 401.015582,1051.95776 C400.508817,1052.07938 400.195636,1052.5902 400.31726,1053.09798 L401.326736,1057.30109 L397.907084,1055.32673 L396.480033,1049.37934 C396.357395,1048.87156 395.848603,1048.55939 395.339811,1048.68 C394.832032,1048.80264 394.518851,1049.31244 394.641488,1049.82022 L395.650965,1054.02435 L388.766051,1050.04928 C388.31503,1049.78678 387.736304,1049.94286 387.474813,1050.39489 C387.214336,1050.84794 387.369406,1051.42565 387.82144,1051.68613 L394.775274,1055.70174 L390.402903,1057.12676 C389.906273,1057.28893 389.634647,1057.82205 389.796812,1058.31766 C389.926543,1058.71801 390.297496,1058.97038 390.695813,1058.97038 C390.792099,1058.97038 390.891425,1058.95619 390.98771,1058.92477 L396.975649,1056.97169 L400.452059,1058.97849 L396.079688,1060.4025 C395.583058,1060.56567 395.312445,1061.09879 395.473597,1061.59441 C395.603329,1061.99374 395.975294,1062.24712 396.372598,1062.24712 C396.469897,1062.24712 396.56821,1062.23192 396.665509,1062.2005 L402.652434,1060.24945 L407.581234,1063.09443 L407.581234,1067.61985 L402.505472,1070.54996 L396.641184,1068.81277 C396.1405,1068.66176 395.614477,1068.95061 395.466502,1069.45028 C395.318526,1069.95097 395.603329,1070.47699 396.104013,1070.62598 L400.249353,1071.85336 L396.828687,1073.82772 L390.964399,1072.09053 C390.461688,1071.94154 389.937692,1072.22837 389.788703,1072.72804 C389.641741,1073.22873 389.926543,1073.75475 390.427228,1073.90272 L394.572568,1075.13011 L387.688668,1079.10518 C387.236633,1079.36565 387.081563,1079.94438 387.34204,1080.39641 C387.517381,1080.69946 387.83563,1080.86872 388.161987,1080.86872 C388.322125,1080.86872 388.485303,1080.82818 388.633278,1080.74203 L395.587112,1076.72743 L394.635407,1081.2265 C394.527973,1081.73833 394.854329,1082.23901 395.365149,1082.34746 C395.431028,1082.36064 395.496908,1082.36773 395.561774,1082.36773 C395.998606,1082.36773 396.390842,1082.06266 396.4851,1081.61772 L397.787487,1075.45748 L401.263897,1073.44968 L400.312192,1077.94975 C400.203744,1078.45956 400.530101,1078.96227 401.04092,1079.0697 C401.107813,1079.08389 401.172679,1079.08997 401.237545,1079.08997 C401.675391,1079.08997 402.067627,1078.78591 402.161885,1078.34097 L403.464272,1072.17972 L408.456924,1069.29724 L412.578953,1072.4179 L412.578953,1076.88352 L407.894415,1081.0917 C407.506232,1081.44136 407.473799,1082.03935 407.822454,1082.42652 C408.008944,1082.63429 408.267394,1082.74071 408.525844,1082.74071 C408.751861,1082.74071 408.977879,1082.66064 409.157274,1082.49848 L412.578953,1079.42545 L412.578953,1083.43903 L407.894415,1087.64721 C407.506232,1087.99587 407.473799,1088.59385 407.822454,1088.98102 C408.008944,1089.18879 408.267394,1089.29521 408.525844,1089.29521 C408.751861,1089.29521 408.977879,1089.21514 409.157274,1089.05399 L412.578953,1085.97995 L412.578953,1094.56659 C412.578953,1095.08855 413.001595,1095.5112 413.523564,1095.5112 C414.046546,1095.5112 414.469188,1095.08855 414.469188,1094.56659 L414.469188,1086.06002 L417.604038,1089.03575 C417.983099,1089.39555 418.580068,1089.38035 418.940885,1089.00129 C419.299675,1088.62223 419.284472,1088.02425 418.905411,1087.66444 L414.469188,1083.45322 L414.469188,1079.50552 L417.604038,1082.48125 C417.983099,1082.84105 418.580068,1082.82382 418.940885,1082.44577 C419.299675,1082.06773 419.284472,1081.46974 418.905411,1081.10994 L414.469188,1076.89872 L414.469188,1072.30844 L418.332767,1069.30231 L422.833856,1071.901 L424.136243,1078.06124 C424.230501,1078.50618 424.622738,1078.81024 425.060583,1078.81024 C425.124435,1078.81024 425.190315,1078.80416 425.256194,1078.78997 C425.767014,1078.68253 426.093371,1078.17982 425.985936,1077.67002 L425.034231,1073.17095 L428.510641,1075.17775 L429.812015,1081.33798 C429.906273,1081.78292 430.298509,1082.088 430.736354,1082.088 C430.80122,1082.088 430.866086,1082.08192 430.932979,1082.06773 C431.442785,1081.95928 431.770156,1081.45859 431.661708,1080.94676 L430.711016,1076.44871 L438.14729,1080.74203 C438.296279,1080.82818 438.458444,1080.86872 438.619596,1080.86872 C438.945953,1080.86872 439.263188,1080.69845 439.438528,1080.39641 C439.700019,1079.94438 439.544949,1079.36565 439.092915,1079.10518 L439.092915,1079.10518 Z" id="115"></path>
        </g>
    </g>
</svg>
