<?xml version="1.0" encoding="UTF-8"?>
<svg width="61px" height="47px" viewBox="0 0 61 47" version="1.1" xmlns="http://www.w3.org/2000/svg" xmlns:xlink="http://www.w3.org/1999/xlink">
    <title>arrows-and-heart-svgrepo-com</title>
    <g id="页面-1" stroke="none" stroke-width="1" fill="none" fill-rule="evenodd">
        <g id="形状库素材-节日" transform="translate(-156.000000, -167.000000)" fill="#545458" fill-rule="nonzero">
            <g id="arrows-and-heart-svgrepo-com" transform="translate(156.932108, 167.154814)">
                <path d="M57.9918027,5.66689572 C53.5317043,-0.689004099 46.6180872,-1.24653917 41.0429187,1.76415022 C39.5933275,0.983601116 37.9205401,1.42962917 36.6941452,2.54451711 C36.4709489,2.76771334 36.6941452,2.99054517 36.9171592,2.87922036 C37.6977083,2.4331923 38.5897644,2.32150309 39.4818205,2.54451711 C38.4782574,3.2137414 37.5862013,3.9941083 36.8056522,4.7746574 C35.690582,4.32862934 34.4640049,4.66333259 33.5719488,5.5552065 C33.1261029,6.00123456 33.6834558,6.78178366 34.2411731,6.44726261 C34.6870189,6.11274157 35.2447362,6.00123456 35.8020891,6.00123456 C35.133047,6.89329067 34.4640049,7.8968538 34.0179768,8.90041693 C32.7915819,8.78890992 31.6763295,9.457952 31.2303015,10.795854 C31.1187945,11.130375 31.5648225,11.4650783 31.7878365,11.130375 C32.2338646,10.5728399 32.9029067,10.3500081 33.460624,10.1268119 C33.0145959,11.4650783 32.6800749,12.9144872 32.5685679,14.4755854 C32.5685679,15.1446275 33.572131,15.2561345 33.683638,14.5870925 C34.018159,13.1375013 34.4641871,11.6879101 35.0217222,10.2383189 C35.5794394,10.5728399 36.0254675,11.130375 36.2482993,11.9109241 C36.3598063,12.3569522 36.9173414,12.2454452 36.9173414,11.7995993 C37.0288484,10.5730221 36.3598063,9.68078383 35.5792572,9.12343096 C36.1367923,8.11986783 36.6943274,7.22781171 37.3633695,6.44726261 C37.6978905,6.89310847 37.8093975,7.45082574 37.9209045,8.00817861 C38.0324116,8.45420667 38.7014536,8.45420667 38.8129607,8.00817861 C39.0359747,7.1161225 38.7014536,6.22406639 38.1439186,5.5550243 C39.0359747,4.66296819 39.9280308,3.88241909 40.9315939,3.32488401 C41.489129,4.10543311 41.489129,4.88598221 41.600636,5.77803833 C41.712143,6.3357556 42.4926921,6.44726261 42.827031,5.88954534 C43.3847482,4.7744752 43.0502272,3.54789804 42.2694959,2.65584193 C43.161552,2.32132089 44.1651151,1.98679984 45.1686783,1.87529283 C54.0892394,0.760222685 59.1070551,9.12324876 56.6539007,17.0402468 C53.5317043,27.0758781 45.2801853,33.5432849 37.9207223,40.2337057 C38.0322293,39.8991847 38.2552434,39.5646637 38.4784396,39.2301426 C39.2588065,38.0035655 37.3633695,36.5539743 36.3598063,37.6690444 C34.9102152,39.2301426 33.5719488,41.0142548 32.7915819,43.1328881 C32.3455538,44.1364512 33.460624,45.5860424 34.5756941,45.4747176 C36.6943274,45.2515214 38.8129607,45.1400144 40.9315939,44.6941685 C42.9387202,44.3596475 42.3811851,41.2372689 40.4855659,41.2372689 C46.0609166,37.2231986 50.7442112,31.6476656 54.3124356,26.1838219 C58.4378308,20.4971464 62.5635903,12.3571344 57.9918027,5.66689572 Z" id="路径"></path>
                <path d="M24.4283736,43.5792806 C23.6478245,43.2447595 22.9787824,42.9102385 22.1982333,42.5757174 C22.6442614,42.1296894 23.2017964,42.0180002 23.8708385,41.9066754 C24.5398806,41.7951683 24.7628946,40.90293 24.0938526,40.6800982 C22.8672754,40.3455772 21.6406982,40.9031122 20.8601491,41.9066754 C19.968093,41.4606473 18.9645299,41.0146192 18.0724738,40.4570842 C18.6300089,39.8993669 19.410558,39.8993669 20.3026141,39.8993669 C20.6371351,39.8993669 20.8601491,39.4533388 20.5256281,39.2303248 C19.410558,38.3382687 17.7379527,38.7842968 16.7343896,39.7878599 C15.8423335,39.342014 15.0617844,38.7842968 14.1697283,38.2269439 C14.8387704,37.5579018 15.7308265,37.4463948 16.6228826,37.6692266 C17.2919247,37.7807336 17.7379527,36.8888597 17.0689107,36.5543387 C15.7308265,35.6622826 13.7237002,35.9966214 12.7201371,37.3347056 C7.70232146,33.7664811 3.68806895,28.9718617 2.46149179,22.2812586 C1.23491463,15.2563167 4.35711103,7.33931873 11.828081,5.33237467 C18.7415159,3.54826244 23.9823455,8.6774029 25.5434437,14.9219779 C25.5434437,14.9219779 25.4319367,14.8104709 25.4319367,14.6987817 C25.3204297,14.0297396 24.6513876,13.9184148 24.0938526,14.0297396 C23.8708385,13.9184148 23.7593315,13.6952185 23.5363175,13.5838937 C22.7557684,12.6918376 21.1946702,13.8069078 21.8637123,14.9219779 C23.3133035,17.0406112 24.9859087,18.8247234 27.216049,20.2743146 C28.2196121,20.9433567 29.5576963,20.0511184 29.5576963,18.9362304 C29.5576963,16.4828939 29.5576963,14.1414288 29.4461892,11.6882745 C29.3346822,9.90416226 26.8815279,9.90416226 26.6585139,11.5767675 C25.2089227,7.22799392 21.1946702,3.77127647 16.6228826,3.10223439 C10.1554758,1.98716424 4.13409701,6.22443079 1.56943568,11.9112885 C-3.00235191,22.3929479 3.01902686,32.9862964 11.828081,39.3421962 C11.828081,40.2342523 12.162602,41.1263085 12.8316441,41.6838435 C13.2776722,42.1298716 13.9467143,41.5725187 13.7237002,41.0148014 C13.6121932,40.7917874 13.6121932,40.6802804 13.5006862,40.4572664 C14.2812353,40.9031122 15.0617844,41.3493225 15.8423335,41.7953505 C15.8423335,42.7989137 16.3998686,43.9139838 17.2919247,44.4715189 C17.8494598,44.8060399 18.2954878,44.1369978 17.8494598,43.691152 C17.6264457,43.3564487 17.4034317,43.0219277 17.2919247,42.5760818 C18.1839808,43.0219277 19.1875439,43.468138 20.1911071,43.691152 C20.1911071,44.8060399 20.8601491,45.6982782 21.8637123,46.2556311 C22.3097403,46.4788273 22.5327544,45.9211101 22.1982333,45.698096 C21.7522053,45.363575 21.4176842,44.6945329 21.4176842,44.1369978 C22.1982333,44.3601941 22.9787824,44.5830259 23.7593315,44.6947151 C24.5398806,44.8056755 24.9859087,43.9138016 24.4283736,43.5792806 Z" id="路径"></path>
                <path d="M52.4166342,13.4722045 C46.8411013,4.10561531 33.2372455,18.8245412 27.9965981,24.734413 C23.2017964,19.4934011 10.0439688,6.11274157 7.70232146,16.8174149 C5.58368819,26.4070182 19.856586,35.3275793 28.1081051,37.5577196 C28.6656401,38.3382687 29.6692033,38.7841146 30.6727664,38.1152547 C36.2479349,34.5470302 57.6572817,22.2812586 52.4166342,13.4722045 Z" id="路径"></path>
            </g>
        </g>
    </g>
</svg>
