<?xml version="1.0" encoding="UTF-8"?>
<svg width="48px" height="37px" viewBox="0 0 48 37" version="1.1" xmlns="http://www.w3.org/2000/svg" xmlns:xlink="http://www.w3.org/1999/xlink">
    <title>1</title>
    <g id="页面-1" stroke="none" stroke-width="1" fill="none" fill-rule="evenodd">
        <g id="形状库素材-节日" transform="translate(-318.000000, -249.000000)" fill="#545458" fill-rule="nonzero">
            <path d="M344.686379,249.838193 L344.700236,249.839593 C344.835882,249.851104 344.967194,249.90983 345.061603,250.020793 C345.111172,250.075314 345.15066,250.13971 345.174439,250.212801 L345.820403,251.432506 L346.315562,252.346128 L346.848054,253.313575 C347.123382,253.810063 347.412147,254.325179 347.713505,254.856588 C349.72233,258.398921 351.877028,261.941011 354.091166,265.244979 C356.485945,268.818503 358.807408,271.895838 360.99854,274.325874 C362.481657,275.9707 363.884933,277.295416 365.192679,278.266549 C365.438188,278.448864 365.489416,278.795683 365.307101,279.041192 C365.124787,279.2867 364.777967,279.337929 364.532459,279.155614 C363.84501,278.645114 363.137077,278.045951 362.409644,277.362102 L362.525503,277.396143 C359.067609,276.332069 356.834459,277.157814 355.458033,279.184597 C355.117929,279.685398 354.859015,280.225161 354.67189,280.764856 C354.595311,280.985724 354.542262,281.170479 354.509055,281.306176 L354.727934,281.779173 C355.119214,282.597338 355.455006,283.144316 355.727007,283.392062 C355.953084,283.597979 355.969427,283.948181 355.763509,284.174258 C355.557592,284.400336 355.20739,284.416678 354.981313,284.210761 C354.555524,283.822941 354.061399,282.99401 353.498858,281.750406 L353.475658,281.737131 C353.283139,281.632853 353.004698,281.500715 352.658077,281.367441 C351.292204,280.842272 349.882626,280.706789 348.589158,281.184749 C348.085217,281.370965 347.608442,281.648847 347.161368,282.027914 L347.337234,284.695724 C347.360092,285.000667 347.131416,285.266403 346.826472,285.289261 C346.521529,285.312119 346.255793,285.083443 346.232935,284.778499 L346.053381,282.041308 L345.992645,281.979484 C345.913656,281.900689 345.814591,281.805868 345.696159,281.698224 C345.29576,281.334297 344.828736,280.969376 344.301102,280.628783 C341.749883,278.981943 338.847626,278.498811 335.694315,279.861101 C335.280012,280.930797 334.863035,281.977915 334.443474,283.005384 C334.327869,283.288489 334.004651,283.424276 333.721546,283.308671 C333.43844,283.193067 333.302654,282.869849 333.418258,282.586743 C333.835733,281.564383 334.250684,280.522333 334.663188,279.460537 L334.604184,279.325091 C334.479049,279.053819 334.328243,278.750504 334.151832,278.423261 C333.647167,277.487106 333.040456,276.55081 332.333344,275.679287 C330.196594,273.045722 327.637953,271.569239 324.648355,271.788667 C324.307807,271.984493 323.9677,272.173984 323.62759,272.359408 C322.621587,272.90787 321.676718,273.386678 320.810369,273.796678 L320.383819,273.995947 C320.125948,274.114822 319.889508,274.220822 319.675953,274.314016 L319.138905,274.541004 C318.854766,274.654044 318.532788,274.515341 318.419748,274.231202 C318.306708,273.947063 318.445411,273.625085 318.72955,273.512045 L319.034945,273.38462 L319.756267,273.06542 L319.920213,272.990265 C320.877963,272.548756 321.94631,272.014743 323.097509,271.387121 C324.360823,270.698376 325.624178,269.952431 326.875025,269.148847 L326.931014,269.110801 C328.159322,268.321763 329.37428,267.475893 330.565146,266.574088 C330.588588,266.551863 330.614924,266.531395 330.64322,266.513326 C331.355305,265.973649 332.057642,265.413257 332.748749,264.832796 L333.158793,264.484881 L333.576992,264.121287 C334.271693,263.514262 334.943033,262.893853 335.590656,262.260592 L335.60647,262.241551 C336.903571,260.975451 338.103555,259.656388 339.199066,258.285568 C339.214418,258.259926 339.233601,258.236287 339.254819,258.214224 C341.237453,255.723305 342.874484,253.061639 344.110227,250.227687 C344.137632,250.126066 344.192842,250.043005 344.264106,249.979995 C344.382627,249.865508 344.53707,249.823285 344.686379,249.838193 Z M348.207203,276.930982 C347.74155,277.130072 347.302475,277.461463 346.893993,277.945273 L347.075027,280.713994 C347.353684,280.533167 347.641826,280.379531 347.938613,280.252346 L348.205322,280.146002 C349.730275,279.582503 351.334158,279.709652 352.873237,280.265841 C352.554649,279.468558 352.21791,278.559526 351.86261,277.544387 L351.83923,277.526571 C351.688231,277.424664 351.475433,277.297844 351.21419,277.17007 C350.191433,276.669838 349.152163,276.526961 348.207203,276.930982 Z M337.133136,276.217954 L337.057485,276.26038 C336.782117,277.007892 336.505654,277.746442 336.228072,278.476049 C339.277451,277.467912 342.12453,277.996087 344.636903,279.532007 L344.901681,279.698389 C345.280337,279.942816 345.630662,280.198615 345.951458,280.458654 L345.789381,278.019308 L345.585995,277.832945 C345.553493,277.804163 345.519044,277.774037 345.482685,277.742672 C345.114487,277.425044 344.692541,277.106699 344.225056,276.809839 C341.923694,275.348443 339.503281,274.951742 337.133136,276.217954 Z M353.636176,275.414833 C353.380014,275.828825 353.180979,276.276324 353.033775,276.72405 L352.95844,276.968195 L352.906067,277.164879 C353.247723,278.139194 353.570146,279.012433 353.871512,279.777495 C354.008509,279.465783 354.167593,279.158448 354.350624,278.859173 L354.541922,278.562449 C355.908636,276.549967 358.025882,275.511638 360.95553,275.910226 C360.698493,275.639724 360.438388,275.358326 360.176108,275.067449 C359.969229,274.838014 359.761314,274.60305 359.552402,274.362674 L359.646119,274.405356 C356.664432,272.939997 354.800916,273.532461 353.636176,275.414833 Z M327.584561,270.115973 L327.390787,270.133694 C327.06836,270.340096 326.745148,270.542731 326.421353,270.741612 C329.029746,271.096625 331.287416,272.632555 333.193293,274.981566 C333.9474,275.91101 334.591057,276.904323 335.126609,277.897775 L335.205545,278.049422 C335.479261,277.329622 335.751904,276.601025 336.023496,275.863615 L336.017908,275.845483 C335.955228,275.664549 335.857464,275.415351 335.72085,275.116153 C335.399478,274.412312 334.981398,273.707985 334.457704,273.052603 C332.837483,271.024965 330.597135,269.900795 327.584561,270.115973 Z M346.533909,272.210086 L346.798348,276.497156 C347.037029,276.307915 347.285428,276.148827 347.542789,276.019273 L347.771854,275.912748 C348.942016,275.412442 350.163862,275.518668 351.339119,276.011059 L350.971766,274.898176 C350.722928,274.134193 350.466231,273.326381 350.201772,272.476483 L349.969505,271.720033 C349.91356,271.686005 349.840844,271.646379 349.752552,271.605498 C348.873973,271.198697 347.803244,271.274007 346.533909,272.210086 Z M338.770749,271.572155 L338.720168,271.599923 C338.345456,272.683785 337.968746,273.750445 337.589975,274.79995 C339.954877,273.91582 342.33587,274.376359 344.565214,275.718235 L344.818692,275.875 C345.12805,276.071447 345.419045,276.276212 345.690289,276.484459 L345.63343,275.629057 L345.422066,272.261411 L345.304707,272.187791 C345.030199,272.019502 344.716417,271.850511 344.369896,271.692658 C342.498898,270.840352 340.56318,270.666506 338.770749,271.572155 Z M351.440073,270.66027 C351.196652,270.921983 351.067047,271.177066 351.013667,271.355477 L351.379439,272.532335 L351.770438,273.765423 C351.963199,274.366097 352.151779,274.942736 352.335852,275.494302 C352.392593,275.371953 352.454085,275.251459 352.519452,275.132355 L352.694475,274.832144 C353.857646,272.952307 355.669428,272.071077 358.134901,272.666713 C357.442079,271.810266 356.740199,270.89847 356.030135,269.936357 L356.236482,269.975288 C353.728401,269.462494 352.225912,269.815377 351.440073,270.66027 Z M331.327035,267.451791 L331.192149,267.488376 C330.494756,268.015515 329.789464,268.523741 329.078512,269.013173 C331.712899,269.209749 333.780791,270.431516 335.322828,272.36131 C335.828507,272.994144 336.24394,273.664493 336.578008,274.340213 C336.943628,273.327518 337.307047,272.298004 337.668629,271.252313 L337.559326,271.050372 C337.517141,270.975215 337.469277,270.8926 337.41594,270.803683 C337.120089,270.310472 336.767405,269.81698 336.360637,269.358346 C334.940519,267.757148 333.271059,266.993098 331.327035,267.451791 Z M346.782696,267.78571 C346.612554,267.884073 346.446486,268.015961 346.285173,268.185078 L346.455156,270.936224 C347.570615,270.28038 348.622762,270.137177 349.556688,270.367534 L349.073265,268.74979 C348.991902,268.474434 348.910148,268.196303 348.82801,267.915531 C348.763827,267.875619 348.680954,267.83108 348.584002,267.785923 C347.970548,267.500195 347.351485,267.45688 346.782696,267.78571 Z M340.904447,267.471371 C340.577427,267.570767 340.263555,267.717435 339.963232,267.915314 C339.710267,268.685757 339.455729,269.44622 339.200267,270.198604 C340.970146,269.607115 342.801724,269.822678 344.559825,270.566645 L344.828967,270.684898 C345.011994,270.768273 345.182434,270.851811 345.339369,270.933548 L345.176758,268.307788 L345.126973,268.276452 C344.906314,268.141898 344.655676,268.00674 344.381114,267.880569 C343.19833,267.337036 341.996302,267.139507 340.904447,267.471371 Z M350.295945,267.013265 C350.108524,267.225074 349.973901,267.437543 349.890411,267.603232 L350.375563,269.245529 C350.446764,269.484165 350.517636,269.720605 350.58817,269.954801 L350.6292,269.906073 C351.52644,268.941408 352.996274,268.471871 355.121825,268.68371 C354.733497,268.14061 354.341911,267.580857 353.948304,267.007398 L354.03815,267.061745 C352.266678,265.927593 351.109767,266.093547 350.295945,267.013265 Z M334.266223,265.089997 L334.146175,265.095563 L333.460968,265.680777 L332.805851,266.221789 C334.471253,266.334738 335.939328,267.214383 337.18913,268.623548 C337.544958,269.024748 337.861897,269.447051 338.140405,269.874109 C338.401352,269.107489 338.661227,268.331125 338.920173,267.546244 L338.871092,267.407376 C338.859098,267.376543 338.845695,267.343662 338.830795,267.308923 C338.701661,267.007859 338.513281,266.704826 338.254943,266.421164 C337.45522,265.543047 336.177241,265.03087 334.266223,265.089997 Z M341.124533,264.462341 L341.065426,264.510735 C340.857635,265.166383 340.649247,265.816471 340.440248,266.461006 L340.582406,266.411835 C341.976599,265.988077 343.437263,266.228107 344.843516,266.874332 L345.097344,266.995616 L344.938515,264.431932 C344.842157,264.347738 344.706841,264.246608 344.539054,264.144206 C343.529499,263.528063 342.396889,263.500056 341.124533,264.462341 Z M346.604454,263.874551 C346.404387,263.959789 346.218231,264.106112 346.047336,264.32992 L346.202381,266.843308 L346.228442,266.826998 C346.951366,266.409058 347.706157,266.357532 348.434004,266.554437 L348.004585,265.058565 C347.894756,264.672086 347.784902,264.283426 347.675085,263.892866 L347.649953,263.882032 C347.292181,263.757273 346.926717,263.73725 346.604454,263.874551 Z M349.02002,263.446982 C348.917461,263.517497 348.829133,263.587501 348.75663,263.651086 L349.325424,265.651521 L349.496381,266.246308 L349.58598,266.150328 C350.402214,265.306213 351.482719,264.957502 352.79185,265.289326 L353.171236,265.861466 C352.663566,265.103913 352.159131,264.334158 351.658929,263.554979 L351.736648,263.609709 C350.702354,262.844784 349.815002,262.900399 349.02002,263.446982 Z M336.445018,263.034909 L336.32449,263.091959 C336.006561,263.402092 335.683131,263.709146 335.354336,264.013129 C337.004148,264.155426 338.231189,264.750434 339.073684,265.675516 C339.195807,265.80961 339.304806,265.943994 339.401692,266.076977 L340.00366,264.19545 C339.922661,264.002797 339.781902,263.750371 339.578276,263.499467 C338.885184,262.645453 337.910377,262.373499 336.445018,263.034909 Z M343.10568,259.473023 C342.892926,259.52964 342.693852,259.647964 342.505508,259.844396 C342.192407,260.886908 341.878155,261.913906 341.562532,262.927941 C342.728583,262.423651 343.851166,262.524467 344.855178,263.051059 L344.659759,259.861027 C344.589839,259.813938 344.503828,259.762813 344.406245,259.711398 C343.946113,259.468964 343.492735,259.370021 343.10568,259.473023 Z M345.943584,259.601803 C345.88435,259.63311 345.824703,259.678493 345.764846,259.740842 L345.962614,262.957131 L346.004281,262.93467 L346.170399,262.855765 C346.556087,262.691443 346.950153,262.644064 347.337315,262.682952 C347.055596,261.672888 346.774516,260.649863 346.495074,259.62096 L346.50842,259.624923 C346.302084,259.530487 346.108794,259.514483 345.943584,259.601803 Z M340.055898,259.016536 L340.016301,259.037189 C339.323773,259.900449 338.59125,260.743184 337.821001,261.565521 C338.899045,261.531577 339.778076,261.988323 340.438133,262.801633 C340.774244,261.736601 341.106489,260.652209 341.437266,259.553179 C341.407325,259.458475 341.356974,259.340203 341.285317,259.225233 C341.040843,258.832987 340.707633,258.711821 340.055898,259.016536 Z M347.68255,259.392739 L347.595928,259.450179 L347.722259,259.913028 C347.959777,260.783708 348.198326,261.649457 348.437287,262.507341 L348.392622,262.534459 C349.07498,262.065309 349.840104,261.842017 350.649097,261.955959 C350.130768,261.130693 349.618718,260.294255 349.113198,259.45274 L349.161582,259.494496 C349.120645,259.455274 349.079751,259.419703 349.038927,259.387636 C348.606853,259.048236 348.16154,259.09023 347.68255,259.392739 Z M344.581089,258.570451 L344.288653,253.727629 L344.149664,254.219936 C343.750087,255.627121 343.348402,257.012389 342.944518,258.375811 L342.820894,258.402871 C343.407957,258.246644 344.003109,258.329503 344.581089,258.570451 Z M345.53684,256.048388 L345.688986,258.510934 C345.850852,258.458153 346.013492,258.433718 346.174949,258.433508 L345.53684,256.048388 Z M346.75022,255.402858 L346.302381,254.608308 L346.537961,255.501126 C346.78827,256.44823 347.040989,257.395326 347.295339,258.338744 C347.612881,258.167799 347.942387,258.063055 348.274804,258.040085 C347.758338,257.164732 347.249788,256.283788 346.75022,255.402858 Z M342.69884,255.261388 L342.50972,255.565617 C342.032172,256.314463 341.525974,257.049505 340.992364,257.770813 C341.317412,257.822096 341.604205,257.964293 341.846275,258.181708 C342.030527,257.563057 342.214241,256.937584 342.397511,256.307528 L342.69884,255.261388 Z" id="1"></path>
        </g>
    </g>
</svg>
