<?xml version="1.0" encoding="UTF-8"?>
<svg width="29px" height="61px" viewBox="0 0 29 61" version="1.1" xmlns="http://www.w3.org/2000/svg" xmlns:xlink="http://www.w3.org/1999/xlink">
    <title>3</title>
    <g id="页面-1" stroke="none" stroke-width="1" fill="none" fill-rule="evenodd">
        <g id="形状库素材-节日" transform="translate(-499.000000, -238.000000)" fill="#545458">
            <path d="M505.975647,238.145279 L520.63292,238.227152 L527.087982,251.061897 L527.01701,263.817672 L521.372557,298.145279 L504.571066,298.052566 L499.307104,263.663785 L499.378191,250.908506 L505.975647,238.145279 Z M506.826454,239.410495 L500.713372,251.391759 L500.643722,263.98558 L505.558685,296.853617 L520.367672,296.935514 L525.659515,264.12375 L525.729356,251.533024 L519.780784,239.482709 L506.826454,239.410495 Z M507.305321,240.19764 L519.291099,240.264329 L524.943902,251.713314 L524.875451,264.049476 L519.72177,296.147698 L506.213304,296.072632 L501.428498,263.917921 L501.496683,251.582867 L507.305321,240.19764 Z M517.724459,291.740516 C517.571945,291.771019 517.472701,291.91896 517.503318,292.071971 L517.582517,292.471672 C517.610956,292.615246 517.743004,292.711359 517.884937,292.69847 L517.91359,292.693425 C518.066334,292.663915 518.165349,292.51498 518.13435,292.362581 L518.055418,291.961772 C518.024915,291.809258 517.876706,291.711122 517.724459,291.740516 Z M516.694835,291.939512 C516.540293,291.945372 516.418735,292.07597 516.424825,292.231505 L516.441559,292.639349 C516.447189,292.786096 516.562313,292.901811 516.704478,292.910317 L516.733781,292.910353 C516.888819,292.904378 517.009537,292.772404 517.003448,292.616869 L516.987707,292.208796 C516.98135,292.054369 516.85037,291.933422 516.694835,291.939512 Z M518.716873,291.192908 L518.661365,291.205625 C518.514049,291.256376 518.435857,291.416198 518.4855,291.563247 L518.617116,291.949799 C518.658314,292.071595 518.773816,292.145895 518.896074,292.140687 L518.973745,292.125894 C519.12129,292.076136 519.199979,291.9162 519.150221,291.768654 L519.018605,291.382102 C518.981961,291.2746 518.887001,291.203647 518.781243,291.192346 L518.716873,291.192908 Z M519.513153,290.741579 L519.460816,290.764198 C519.32481,290.839017 519.275962,291.010375 519.351889,291.146647 L519.549446,291.503852 C519.603096,291.600278 519.705377,291.653565 519.809335,291.648397 L519.932621,291.613657 C520.068282,291.537347 520.117246,291.366487 520.04193,291.230597 L519.843761,290.87301 C519.788648,290.774731 519.682492,290.721613 519.576395,290.729442 L519.513153,290.741579 Z M517.112446,288.962703 C516.960737,288.996694 516.865046,289.146431 516.898147,289.298869 L517.321189,291.230967 C517.351919,291.370873 517.482897,291.464618 517.622117,291.451309 L517.656466,291.446007 C517.807679,291.412131 517.903981,291.262776 517.871492,291.11072 L517.447724,289.177743 C517.414242,289.025917 517.264504,288.930226 517.112446,288.962703 Z M516.523254,289.100311 C516.367414,289.10961 516.249524,289.2425 516.258593,289.397347 L516.37607,291.372264 C516.384718,291.516222 516.49904,291.628459 516.639103,291.636928 L516.674099,291.636695 C516.828831,291.62713 516.946836,291.494736 516.937767,291.339889 L516.820672,289.364361 C516.811602,289.209514 516.678215,289.091738 516.523254,289.100311 Z M517.770593,288.798132 L517.715588,288.813007 C517.570412,288.868495 517.496881,289.03038 517.552369,289.175556 L518.192817,290.866517 C518.236955,290.982926 518.350548,291.053481 518.468603,291.048198 L518.555366,291.029736 C518.701154,290.97463 518.77457,290.812249 518.719578,290.666958 L518.078366,288.977219 C518.038101,288.870553 517.94086,288.802631 517.834859,288.795175 L517.770593,288.798132 Z M518.387022,288.68423 L518.33451,288.706737 C518.198008,288.781671 518.149044,288.952531 518.224361,289.088422 L519.004959,290.502723 C519.058953,290.600639 519.161005,290.652933 519.263969,290.647995 L519.38737,290.613751 C519.523757,290.53832 519.572606,290.366963 519.497902,290.231454 L518.717188,288.816657 C518.66227,288.71757 518.556492,288.664437 518.450348,288.672168 L518.387022,288.68423 Z M509.458981,291.899388 C509.30333,291.891379 509.171456,292.011281 509.1636,292.165327 L509.142854,292.573977 C509.134616,292.728634 509.254136,292.861121 509.409405,292.86974 L509.438709,292.869776 C509.581291,292.861969 509.697846,292.748219 509.704939,292.602196 L509.725532,292.195151 C509.733426,292.039004 509.614402,291.906403 509.458981,291.899388 Z M508.431687,291.689277 C508.279549,291.657962 508.130289,291.754675 508.097866,291.906546 L508.014845,292.306032 C507.982537,292.458399 508.079861,292.608042 508.231617,292.639967 L508.260845,292.644206 C508.402398,292.659131 508.535536,292.565094 508.565323,292.422202 L508.649453,292.022983 C508.681149,291.870234 508.584436,291.720973 508.431687,291.689277 Z M509.662886,289.061909 C509.507884,289.052181 509.373106,289.168569 509.36227,289.323303 L509.223195,291.297289 C509.211634,291.451144 509.328517,291.585808 509.483863,291.597026 L509.518477,291.597405 C509.658195,291.590782 509.773718,291.479363 509.783982,291.335747 L509.923171,289.362258 C509.934389,289.206913 509.817734,289.073242 509.662886,289.061909 Z M507.500602,291.143596 C507.354498,291.093102 507.193239,291.169567 507.141752,291.315899 L507.005814,291.701446 C506.954326,291.847778 507.031288,292.008922 507.178002,292.059799 L507.255867,292.075303 C507.378011,292.0832 507.494837,292.009146 507.537082,291.888489 L507.672408,291.502561 C507.72401,291.356725 507.64766,291.195962 507.500602,291.143596 Z M509.074199,288.918464 C508.922748,288.883329 508.771425,288.977902 508.73629,289.129353 L508.292139,291.057635 C508.257004,291.209086 508.351462,291.359913 508.503295,291.394437 L508.537184,291.400738 C508.676636,291.415625 508.808131,291.323537 508.840593,291.183166 L509.284973,289.255877 C509.32072,289.104808 509.225535,288.953102 509.074199,288.918464 Z M506.706149,290.693493 C506.571161,290.616369 506.399049,290.663951 506.322421,290.798824 L506.120155,291.153124 C506.043527,291.287998 506.090116,291.460339 506.225104,291.537464 L506.34897,291.573213 C506.451973,291.579774 506.554665,291.52834 506.60971,291.431407 L506.811365,291.076725 C506.888604,290.942233 506.8419,290.769395 506.706149,290.693493 Z M508.473018,288.761686 C508.328519,288.704544 508.165731,288.776654 508.108589,288.921153 L507.448897,290.604672 C507.391869,290.749668 507.463367,290.912073 507.608363,290.969101 L507.694825,290.987852 C507.813263,290.995558 507.927415,290.925784 507.972907,290.810131 L508.632484,289.126115 C508.689512,288.981119 508.617899,288.818217 508.473018,288.761686 Z M516.474947,278.922165 L516.122814,278.863764 C515.796814,278.814382 515.53349,278.816267 515.548264,279.142054 C515.558791,279.359864 515.661626,279.601352 515.825089,279.813149 L515.804038,279.81487 C516.207572,281.095983 516.642603,284.573271 516.429446,287.341216 C516.118937,287.623203 515.939846,288.207041 515.954739,288.538932 C515.980504,289.096923 516.716673,288.517351 517.234579,288.410861 C517.349754,288.387061 517.480696,288.381088 517.614422,288.380073 L517.815475,288.380661 C518.215265,288.382836 518.581682,288.371714 518.564174,287.999796 C518.545606,287.590806 518.22114,287.338755 517.752679,287.117856 C517.352737,284.619624 517.471218,281.425732 517.713387,280.027458 C518.016828,279.74658 518.202967,279.347351 518.18796,279.021764 C518.162654,278.465759 517.354571,278.926442 516.830391,278.949109 C516.720085,278.954091 516.598282,278.940905 516.474947,278.922165 Z M507.855718,288.648388 C507.720348,288.571875 507.548121,288.61896 507.471608,288.75433 L506.675228,290.160756 C506.5986,290.295629 506.64645,290.466634 506.781438,290.543758 L506.903317,290.579966 C507.007581,290.58519 507.110885,290.534138 507.165433,290.437319 L507.961431,289.031505 C508.038441,288.89602 507.990706,288.725513 507.855718,288.648388 Z M509.015255,278.82071 L508.827592,278.770295 L508.660534,278.729414 C508.363379,278.664571 508.126108,278.668855 508.109373,278.965708 C508.090988,279.29168 508.273038,279.692747 508.572444,279.976739 C508.799823,281.378561 508.88238,284.573121 508.454596,287.066273 C507.983808,287.281682 507.6566,287.529859 507.633371,287.939082 C507.602133,288.497156 508.442176,288.251949 508.958346,288.364531 C509.475623,288.47738 510.205025,289.064915 510.236874,288.507224 C510.255487,288.175444 510.08259,287.58969 509.775657,287.30482 C509.593193,284.534046 510.066618,281.062557 510.484773,279.785302 L510.46292,279.783547 C510.628942,279.573629 510.734787,279.334184 510.747031,279.115303 C510.764194,278.816888 510.544273,278.7882 510.255923,278.820836 L509.822904,278.88566 C509.699373,278.903028 509.577466,278.914827 509.467312,278.908539 C509.32965,278.90081 509.17257,278.862641 509.015255,278.82071 Z M517.856681,267.661986 C517.826092,266.994726 516.972824,267.178117 516.377526,267.427503 L516.154592,267.528444 C515.570774,267.812601 514.829499,268.328247 514.856927,268.916904 C514.872738,269.252768 515.061198,269.572838 515.349898,269.765138 C515.736731,270.992039 516.193791,274.29736 515.984908,277.006774 C515.674398,277.288761 515.482224,277.693568 515.497766,278.02374 C515.523187,278.580242 516.268384,278.123614 516.792105,278.09896 C517.316056,278.0753 518.162768,278.459455 518.13708,277.904061 C518.121115,277.5562 517.871097,277.146239 517.507279,276.895949 C517.072904,274.298424 517.113853,270.56477 517.359257,269.035488 C517.680753,268.576761 517.874826,268.039685 517.856681,267.661986 Z M510.047682,267.39165 L509.872534,267.321109 C509.30135,267.10749 508.600866,267.007309 508.56601,267.610784 C508.544497,267.986654 508.732176,268.527667 509.048524,268.989276 C509.27775,270.521455 509.276992,274.254723 508.814145,276.847519 C508.447279,277.093865 508.192256,277.500627 508.172728,277.848835 C508.141298,278.403814 508.991836,278.029586 509.515448,278.05884 C510.039174,278.088592 510.778956,278.553409 510.810767,277.997819 C510.829724,277.667529 510.642096,277.260427 510.33417,276.975785 C510.155724,274.263199 510.649413,270.963328 511.050878,269.74067 C511.341529,269.551678 511.533368,269.233788 511.552287,268.898799 C511.590927,268.232297 510.641499,267.647954 510.047682,267.39165 Z M521.925575,272.828119 C521.777375,272.831992 521.659675,272.954376 521.662058,273.102919 L521.669965,273.492922 C521.672192,273.615868 521.756789,273.717181 521.869384,273.747162 L521.944765,273.756439 C522.093193,273.75356 522.210779,273.630679 522.2079,273.48225 L522.200489,273.092133 C522.197113,272.943819 522.074615,272.825622 521.925575,272.828119 Z M521.063204,272.91317 C520.914431,272.914559 520.794897,273.035797 520.796172,273.184073 L520.798997,273.574726 C520.799698,273.713718 520.906188,273.828287 521.042354,273.840271 L521.069786,273.841261 C521.218292,273.84098 521.338093,273.718634 521.336933,273.570855 L521.334337,273.181195 C521.332833,273.031926 521.21148,272.911895 521.063204,272.91317 Z M520.184283,272.922001 C520.036121,272.916972 519.911964,273.034046 519.90766,273.183087 L519.896655,273.572747 C519.892542,273.711282 519.995136,273.829366 520.130194,273.847883 L520.157741,273.84937 C520.30617,273.853291 520.430328,273.736218 520.43486,273.58817 L520.445751,273.198013 C520.449672,273.049583 520.332713,272.925922 520.184283,272.922001 Z M522.656296,272.413022 C522.509014,272.427669 522.401286,272.559259 522.416659,272.707419 L522.424096,272.973025 C522.434192,273.077936 522.503887,273.162288 522.596616,273.196855 L522.719104,273.213043 C522.866653,273.197289 522.974496,273.066195 522.959123,272.918035 L522.951419,272.653537 C522.936161,272.505874 522.80457,272.398146 522.656296,272.413022 Z M521.840116,271.687535 C521.691802,271.690911 521.57372,271.813906 521.576599,271.962335 L521.584621,272.352834 C521.586619,272.474787 521.670719,272.576215 521.783543,272.607189 L521.859191,272.615358 C522.007123,272.612593 522.12532,272.490095 522.122326,272.341169 L522.114305,271.95067 C522.11154,271.802738 521.988545,271.684655 521.840116,271.687535 Z M521.042886,271.773763 C520.894495,271.774542 520.774961,271.895779 520.77635,272.044552 L520.778947,272.434212 C520.779762,272.573701 520.886864,272.688651 521.022418,272.700253 L521.04985,272.701244 C521.198852,272.700848 521.317661,272.578731 521.316997,272.430837 L521.314286,272.040681 C521.312897,271.891908 521.191659,271.772374 521.042886,271.773763 Z M522.560149,271.377963 C522.412256,271.392228 522.304643,271.524315 522.319405,271.672093 L522.339835,271.978118 C522.351039,272.083298 522.420849,272.168146 522.513081,272.202828 L522.634462,272.218748 C522.782737,272.203872 522.89035,272.071785 522.875588,271.924007 L522.854661,271.618096 C522.840129,271.471311 522.707316,271.36282 522.560149,271.377963 Z M520.202058,271.802573 C520.054011,271.798041 519.929624,271.914121 519.925435,272.063659 L519.914316,272.452823 C519.910547,272.592847 520.013025,272.710434 520.148352,272.727843 L520.175401,272.729445 C520.324557,272.734245 520.448218,272.617286 520.452635,272.468742 L520.463411,272.078088 C520.467447,271.930155 520.350488,271.806494 520.202058,271.802573 Z M521.735289,269.751548 C521.587013,269.759624 521.47344,269.886286 521.481515,270.034562 L521.54524,271.228292 C521.55186,271.347608 521.634814,271.444069 521.743588,271.473363 L521.828253,271.482066 C521.977025,271.473876 522.090713,271.34771 522.082523,271.198938 L522.018302,270.005322 C522.010838,269.857428 521.883564,269.743473 521.735289,269.751548 Z M521.000051,269.671233 C520.850858,269.675335 520.733884,269.798597 520.738101,269.948287 L520.762447,271.268291 C520.766625,271.40648 520.872579,271.516464 521.005651,271.528639 L521.039272,271.529247 C521.187471,271.525375 521.304063,271.402724 521.300458,271.253416 L521.275882,269.932419 C521.271895,269.783723 521.148136,269.666863 521.000051,269.671233 Z M522.365531,269.764555 C522.2189,269.791084 522.121297,269.930276 522.147215,270.076525 L522.242695,270.936488 C522.260585,271.04117 522.337424,271.12021 522.432368,271.148512 L522.553786,271.15553 C522.700417,271.129002 522.79802,270.989809 522.772714,270.843942 L522.677004,269.982986 C522.651201,269.837234 522.511398,269.73925 522.365531,269.764555 Z M520.294051,269.703965 C520.145316,269.696452 520.019477,269.810775 520.01185,269.959014 L519.945229,271.283802 C519.938785,271.421305 520.035571,271.539161 520.167574,271.562568 L520.200279,271.566004 C520.349014,271.573516 520.475464,271.459575 520.482862,271.310343 L520.548604,269.986281 C520.556728,269.837927 520.44229,269.711592 520.294051,269.703965 Z M506.405241,272.801114 C506.256353,272.802007 506.138004,272.92611 506.140768,273.074042 L506.147567,273.463778 C506.150561,273.612703 506.272678,273.731511 506.421107,273.728632 L506.448844,273.726413 C506.583785,273.710431 506.688037,273.593244 506.685235,273.454214 L506.678818,273.063867 C506.676435,272.915324 506.552829,272.796859 506.405241,272.801114 Z M505.526699,272.782132 C505.37762,272.77993 505.255679,272.897539 505.252866,273.046235 L505.245185,273.436698 C505.242639,273.584287 505.361088,273.707604 505.509288,273.710532 L505.537369,273.709803 C505.672846,273.698405 505.780843,273.586108 505.78274,273.44704 L505.790306,273.05608 C505.793119,272.907383 505.675014,272.785557 505.526699,272.782132 Z M504.664847,272.688151 C504.516303,272.683733 504.391916,272.799813 504.387001,272.948472 L504.375003,273.338362 C504.371196,273.487288 504.487162,273.611178 504.636203,273.615482 L504.711391,273.608063 C504.824324,273.578328 504.909972,273.477992 504.91317,273.355886 L504.925435,272.964888 C504.929471,272.816955 504.812894,272.692683 504.664847,272.688151 Z M521.374253,262.51833 C520.956971,262.516841 520.349468,262.176333 520.346759,262.620054 C520.345476,262.793508 520.418086,262.990184 520.539061,263.165231 L520.521869,263.165538 C520.79124,264.200887 521.021922,266.199366 520.739292,268.392207 C520.480506,268.603662 520.311361,268.917881 520.310042,269.181844 C520.307722,269.624954 520.919363,269.292278 521.33676,269.294264 C521.754769,269.296631 522.412244,269.636065 522.414801,269.193949 C522.416489,268.868169 522.164905,268.462754 521.801436,268.268359 C521.584698,266.264568 521.782783,264.514462 522.032697,263.412587 C522.284682,263.201133 522.449549,262.89104 522.450908,262.631776 C522.453609,262.188055 521.792262,262.520698 521.374253,262.51833 Z M506.399787,271.680771 C506.251128,271.682657 506.13255,271.805767 506.135314,271.953699 L506.142839,272.344313 C506.144229,272.493086 506.267224,272.611168 506.415653,272.608289 L506.443619,272.607064 C506.57856,272.591081 506.682316,272.474009 506.680125,272.335361 L506.673593,271.944518 C506.670829,271.796585 506.54833,271.678389 506.399787,271.680771 Z M503.939052,272.263524 C503.790965,272.247492 503.658096,272.354022 503.641337,272.50123 L503.630856,272.766264 C503.61383,272.91458 503.720245,273.046952 503.868064,273.064093 L503.989748,273.049602 C504.082126,273.014673 504.153372,272.931263 504.164786,272.826617 L504.175535,272.560475 C504.191796,272.413382 504.086374,272.28078 503.939052,272.263524 Z M505.559182,271.642568 C505.410599,271.640252 505.288276,271.758471 505.285119,271.905678 L505.277553,272.296638 C505.275351,272.445716 505.392959,272.567658 505.541656,272.570471 L505.569737,272.569743 C505.705328,272.558841 505.81321,272.446048 505.815604,272.306864 L505.822903,271.917013 C505.825716,271.768316 505.707993,271.645878 505.559182,271.642568 Z M504.763119,271.548046 C504.614575,271.543628 504.490418,271.660702 504.485388,271.808864 L504.47339,272.198754 C504.469584,272.34768 504.58555,272.47157 504.733597,272.476103 L504.809052,272.467576 C504.922712,272.43872 505.007633,272.337505 505.011557,272.216278 L505.023441,271.825891 C505.027744,271.67685 504.911281,271.553075 504.763119,271.548046 Z M504.046771,271.230051 C503.899066,271.213407 503.766312,271.320433 503.749438,271.467145 L503.725856,271.772869 C503.708601,271.920192 503.815246,272.053558 503.962339,272.069819 L504.084023,272.055328 C504.177853,272.022157 504.247379,271.938098 504.259786,271.833222 L504.284362,271.527269 C504.300127,271.38029 504.193864,271.246312 504.046771,271.230051 Z M506.331545,269.58149 C506.182811,269.587579 506.067174,269.712102 506.072881,269.861448 L506.124468,271.186148 C506.129678,271.335608 506.255195,271.451016 506.404043,271.445424 L506.436518,271.441065 C506.569319,271.420345 506.666771,271.303159 506.661715,271.165696 L506.610776,269.839276 C506.604306,269.691153 506.479782,269.575516 506.331545,269.58149 Z M505.625997,269.541402 C505.477606,269.53538 505.353104,269.650964 505.347578,269.79924 L505.307242,271.120053 C505.301946,271.269323 505.417033,271.393939 505.566418,271.399732 L505.599198,271.398965 C505.732573,271.387529 505.839653,271.27806 505.845219,271.141283 L505.884332,269.819706 C505.889858,269.67143 505.774159,269.546432 505.625997,269.541402 Z M504.889245,269.613145 C504.741045,269.603417 504.613754,269.715983 504.602917,269.863916 L504.526809,271.056972 C504.517081,271.205173 504.628653,271.332693 504.776969,271.342918 L504.861441,271.334925 C504.971126,271.306987 505.055208,271.211197 505.063297,271.092147 L505.139901,269.898977 C505.150012,269.750165 505.037675,269.623867 504.889245,269.613145 Z M504.258661,269.61905 C504.113248,269.591938 503.972775,269.688191 503.944898,269.834827 L503.839722,270.69351 C503.812839,270.839916 503.909474,270.979778 504.055614,271.007769 L504.17726,271.00218 C504.272696,270.975962 504.349558,270.896487 504.369109,270.7931 L504.474667,269.933806 C504.501551,269.7874 504.405297,269.646926 504.258661,269.61905 Z M510.080534,262.868362 C509.655271,262.911612 508.734783,263.331809 508.617756,264.114234 L508.588599,264.334825 C508.501612,265.090166 508.538894,266.017582 509.367286,266.26862 C510.939502,266.745539 511.822167,267.501574 512.210542,268.191584 L512.267785,268.299934 C512.452647,268.675361 512.624799,268.746342 512.890168,268.76749 L513.157029,268.779943 C513.564186,268.797009 513.854504,268.796475 514.090395,268.41419 L514.148269,268.310455 C514.510621,267.595898 515.410672,266.79487 517.070358,266.311259 C517.985091,266.045147 517.951482,264.950138 517.84363,264.165747 C517.736275,263.381242 516.819795,262.950941 516.395669,262.903949 C515.969939,262.856805 515.072281,263.101712 514.937209,263.343719 C514.575691,263.991645 513.990806,264.458344 513.229213,264.454213 C512.468118,264.449967 511.888608,263.976921 511.533539,263.324936 C511.401439,263.081311 510.506753,262.826983 510.080534,262.868362 Z M505.00752,262.341412 L504.837933,262.305163 L504.687827,262.275896 C504.445825,262.235171 504.25405,262.246431 504.252795,262.485363 C504.251062,262.745238 504.412357,263.056408 504.662319,263.271253 C504.900635,264.376024 505.078265,266.128846 504.839668,268.129471 C504.474669,268.320457 504.218614,268.722749 504.216193,269.04765 C504.213872,269.49076 504.875219,269.158117 505.292846,269.161096 C505.71074,269.162967 506.318509,269.502367 506.320837,269.059258 C506.322264,268.795791 506.156345,268.480457 505.900461,268.264887 C505.642328,266.068199 505.89491,264.073762 506.175854,263.040578 L506.157935,263.040006 C506.282125,262.866426 506.356264,262.670921 506.357057,262.497582 C506.359377,262.054472 505.748232,262.387033 505.330721,262.384551 C505.232366,262.383994 505.120747,262.364748 505.00752,262.341412 Z M512.846513,261.672646 C512.710785,261.645848 512.639391,261.731164 512.661014,261.835759 L512.676059,261.881495 C512.731698,262.004664 512.83227,262.562649 512.828205,262.807892 C512.824295,263.018198 512.75415,263.324508 512.685981,263.494304 L512.652377,263.566749 C512.574947,263.704946 512.661146,263.77921 512.806491,263.892133 C513.083579,264.104377 513.308647,264.095836 513.680217,263.897055 L513.803037,263.828215 C513.9144,263.760596 513.983293,263.69447 513.93678,263.610259 C513.875258,263.497864 513.831403,263.147026 513.836721,262.818838 C513.841515,262.511291 513.920654,262.144418 514.004504,261.981567 L514.036033,261.930576 C514.129969,261.809493 514.024587,261.688391 513.889646,261.711174 C513.617779,261.757199 513.002013,261.702661 512.846513,261.672646 Z M521.03536,253.883229 C520.499359,253.74593 520.58519,254.373756 520.313254,254.908928 C520.057935,255.414108 519.632824,255.455754 519.635501,256.024827 C519.637375,256.311599 519.893584,256.338242 520.101777,256.442409 C520.791265,257.55497 521.056872,258.791549 520.78077,260.937893 C520.522214,261.150341 520.353184,261.465057 520.351642,261.728027 C520.34943,262.171633 520.960345,261.838079 521.378354,261.840446 C521.795751,261.842432 522.453456,262.182859 522.456283,261.739635 C522.457208,261.462682 522.275356,261.125916 521.996549,260.913022 C521.819321,259.370408 521.912237,257.336978 521.615272,255.379958 C521.883093,254.559581 521.347355,253.963431 521.03536,253.883229 Z M515.669659,258.567367 C514.303301,258.47477 514.337693,258.959101 514.301062,259.856364 C514.298471,259.931248 514.314601,260.003379 514.336805,260.07463 L514.397947,259.96142 L514.491336,259.769747 C514.611717,259.545684 514.773013,259.449266 515.66478,259.500198 C516.780889,259.564775 517.341457,260.127989 517.533369,260.988706 C517.55655,260.889713 517.571479,260.788963 517.572234,260.685732 C517.577526,259.682183 517.036514,258.659849 515.669659,258.567367 Z M512.861171,259.098575 C512.725009,259.071878 512.65356,259.157206 512.675253,259.262135 L512.690335,259.308035 C512.74586,259.430708 512.846546,259.989189 512.842481,260.234432 C512.838426,260.452527 512.762821,260.915719 512.691607,261.11267 L512.665257,261.173048 C512.59677,261.295346 512.65987,261.429013 512.800501,261.427437 L512.856767,261.42022 C513.036062,261.378827 513.577746,261.420649 513.773554,261.457576 C513.94662,261.490162 514.000371,261.362223 513.96689,261.254103 L513.950309,261.214839 C513.888672,261.101947 513.845565,260.573069 513.851112,260.245875 C513.855702,259.937445 513.934909,259.570867 514.019045,259.407662 L514.050691,259.356505 C514.144246,259.236034 514.038748,259.114435 513.903923,259.137715 C513.632437,259.183129 513.016175,259.128705 512.861171,259.098575 Z M515.927261,256.732897 C514.307331,256.638682 514.348027,257.123126 514.306085,258.020046 C514.303265,258.093936 514.322948,258.167862 514.348743,258.238808 C514.653393,257.802279 514.46861,257.593312 515.92177,257.665346 C517.245336,257.731203 517.909411,258.37567 518.13599,259.391079 C518.16406,259.27474 518.181662,259.15611 518.182643,259.03347 C518.188874,257.848176 517.546464,256.826235 515.927261,256.732897 Z M505.765006,253.753914 C505.452442,253.829868 504.910436,254.421113 505.168822,255.243466 C504.850828,257.197029 504.921356,259.231437 504.72669,260.772023 C504.445669,260.982333 504.259333,261.317262 504.25767,261.593336 C504.255083,262.037554 504.916431,261.704911 505.334325,261.706782 C505.752448,261.709646 506.359606,262.048665 506.361933,261.605555 C506.36336,261.342089 506.197327,261.026258 505.941673,260.811681 C505.689619,258.661718 505.968634,257.427572 506.670521,256.323362 C506.879344,256.221791 507.136351,256.197507 507.141405,255.911231 C507.150598,255.341507 506.72609,255.295127 506.476101,254.787855 C506.209756,254.248263 506.303302,253.622446 505.765006,253.753914 Z M511.122608,258.542617 C509.755769,258.62015 509.203372,259.635441 509.198194,260.639487 C509.196943,260.742834 509.211318,260.843619 509.233142,260.942684 C509.43475,260.084757 510.000256,259.527321 511.117729,259.475447 C512.344966,259.418635 512.18754,259.624998 512.439128,260.064416 C512.46193,259.993237 512.479077,259.920224 512.476969,259.84538 L512.464234,259.461306 C512.429759,258.812949 512.280005,258.476818 511.122608,258.542617 Z M512.875263,256.590027 C512.739434,256.562795 512.667735,256.648524 512.689207,256.752896 L512.704197,256.798494 C512.760219,256.921052 512.860523,257.480145 512.855961,257.725502 C512.852246,257.943054 512.776769,258.406578 512.70558,258.603609 L512.679233,258.664003 C512.610746,258.786302 512.673756,258.919576 512.814528,258.91861 L512.870858,258.911672 C513.050536,258.869667 513.591723,258.911605 513.786919,258.948149 C513.960427,258.980633 514.014016,258.853559 513.980842,258.745551 L513.9644,258.70629 C513.902,258.594621 513.859656,258.064521 513.864974,257.736334 C513.86987,257.429228 513.948929,257.062012 514.032761,256.899079 L514.064286,256.848071 C514.158223,256.726989 514.052725,256.60539 513.918396,256.628555 C513.645918,256.674199 513.030266,256.620157 512.875263,256.590027 Z M516.493287,254.800019 C514.873969,254.706185 514.359299,255.098606 514.317128,255.994533 C514.314537,256.069416 514.333608,256.14296 514.359404,256.213906 C514.66455,255.777263 515.03563,255.660204 516.488523,255.733346 C517.751817,255.795735 518.529699,256.57793 518.79508,257.645297 L518.828922,257.798189 L518.853437,257.66743 C518.860216,257.623026 518.865696,257.578283 518.869576,257.533153 L518.876114,257.396559 C518.883591,256.060314 518.113217,254.894235 516.493287,254.800019 Z M510.886057,256.704526 C509.265761,256.780936 508.612234,257.795511 508.605477,258.98092 C508.604677,259.101955 508.621804,259.221461 508.64726,259.338521 C508.886295,258.325475 509.55747,257.688714 510.881178,257.637356 L511.199653,257.629104 C512.308147,257.616566 512.172807,257.823018 512.44736,258.228404 C512.475091,258.158179 512.495715,258.084364 512.492728,258.010245 L512.47869,257.651158 L512.465733,257.491456 C512.403967,256.930712 512.159717,256.645179 510.886057,256.704526 Z M516.750676,252.731234 C515.130861,252.637514 514.370528,253.028583 514.328968,253.924892 C514.325766,253.999393 514.345334,254.072823 514.371129,254.143768 C514.675779,253.70724 515.292255,253.592641 516.745682,253.663567 C518.06898,253.730532 519.049084,254.690205 519.274851,256.017067 C519.301963,255.864853 519.320478,255.709392 519.320769,255.549769 C519.329258,254.000375 518.37072,252.825946 516.750676,252.731234 Z M510.340832,254.766632 C508.720307,254.842049 507.938079,255.999335 507.930698,257.336076 C507.930079,257.473807 507.946215,257.607144 507.972512,257.73918 C508.21142,256.596426 509.011405,255.749445 510.33645,255.699348 L510.706694,255.688383 C511.856378,255.667172 512.186778,255.802958 512.458632,256.203884 C512.486515,256.132054 512.506757,256.05885 512.504267,255.984617 C512.471517,255.0882 511.96151,254.68961 510.340832,254.766632 Z M512.889841,253.972555 C512.753678,253.945857 512.68223,254.031186 512.703769,254.135449 L512.718775,254.181021 C512.774529,254.304688 512.874719,254.863284 512.870654,255.108526 C512.866837,255.325637 512.790865,255.78881 512.719997,255.986037 L512.693811,256.04653 C512.625426,256.169271 512.688055,256.302685 512.82909,256.301664 L512.885551,256.294697 C513.064731,256.252806 513.606033,256.29524 513.801726,256.33167 C513.975132,256.363712 514.028921,256.235714 513.995257,256.128364 L513.978596,256.089429 C513.917074,255.977034 513.873737,255.447164 513.879055,255.118976 C513.884494,254.81221 513.963705,254.445424 514.047483,254.282234 L514.078979,254.231096 C514.172915,254.110013 514.067418,253.988414 513.932707,254.012191 C513.660113,254.057337 513.044729,254.002188 512.889841,253.972555 Z M510.107278,252.694531 C508.486485,252.771056 507.51384,253.93516 507.505209,255.484057 C507.504449,255.643795 507.52093,255.799023 507.546848,255.952073 C507.786579,254.627077 508.778576,253.678223 510.102284,253.626864 L510.513627,253.615792 C511.675445,253.599352 512.201368,253.737685 512.469746,254.133364 C512.497974,254.063025 512.518101,253.989324 512.515611,253.915091 C512.483243,253.018062 511.727191,252.618731 510.107278,252.694531 Z M512.903818,251.46351 C512.767855,251.437682 512.696169,251.521978 512.717466,251.626712 L512.73237,251.672588 C512.788506,251.795643 512.889307,252.354621 512.884516,252.598985 C512.880902,252.816978 512.804954,253.28025 512.734007,253.477138 L512.707788,253.537486 C512.639301,253.659784 512.702401,253.793451 512.843194,253.792573 L512.899528,253.785652 C513.078823,253.744258 513.620507,253.786081 513.815207,253.82274 C513.989156,253.855122 514.042613,253.727252 514.009136,253.619497 L513.992573,253.580385 C513.931051,253.467989 513.887829,252.938615 513.893414,252.60932 C513.898072,252.303199 513.977498,251.936002 514.061414,251.773061 L514.092955,251.722051 C514.187007,251.601465 514.081395,251.47937 513.946569,251.502649 C513.67409,251.548293 513.058936,251.494137 512.903818,251.46351 Z M506.888677,253.087626 C506.530287,252.95841 506.048112,253.428919 506.258132,253.671755 L506.302546,253.712076 C506.614746,253.938186 506.656377,254.61022 506.834012,254.790496 C506.999775,254.957221 507.195387,254.45804 507.377712,254.216428 L507.419532,254.165664 C507.870427,253.676016 507.514278,253.31619 506.888677,253.087626 Z M511.111852,248.979049 L510.790753,248.773303 L510.925968,249.163463 L511.387371,250.420435 C511.466952,250.632846 511.531758,250.802508 511.56259,250.877026 C511.68201,251.16543 512.004526,251.395436 512.30745,251.30039 C512.610488,251.20584 513.275572,251.199818 513.619233,251.21098 C514.103759,251.227286 514.498163,251.290556 514.748875,251.361366 C515.091322,251.460172 515.496803,251.102376 515.619082,250.91145 L515.76593,250.65286 L516.792213,248.746339 L516.359167,248.912231 L515.887236,249.976953 L515.598032,250.120098 L515.521934,249.795013 L514.945335,249.803625 L514.786678,250.330955 L514.542774,250.341752 L514.501535,249.777917 L513.814025,249.786501 L513.688988,250.300838 L513.478401,250.335854 L513.436631,249.808237 L512.893612,249.792357 L512.890869,250.272182 L512.657356,250.282672 L512.536939,249.946894 L511.828212,249.822792 L511.748619,250.121568 L511.460385,250.012862 L511.111852,248.979049 Z M516.551087,242.136741 C515.285727,241.047272 512.234815,241.069985 511.134469,242.05484 C509.988777,243.078936 510.101172,244.644365 510.157971,245.311851 L510.02964,245.562953 C509.925985,245.77676 509.855835,245.990679 509.865047,246.406012 L509.87231,246.571596 C509.867042,247.430231 510.663118,248.070904 511.266492,248.393532 L511.548438,249.485615 L512.259033,249.561157 L512.276632,248.601849 L512.546521,248.651491 L512.652124,249.491853 L513.504803,249.532501 L513.55848,248.70454 L513.865652,248.682276 L513.861407,249.450172 L514.811505,249.443741 L515.011408,248.748378 L515.208662,248.725857 L515.217164,249.349564 L515.902942,249.197517 L516.228766,248.451635 C516.870517,248.156474 517.496377,247.475246 517.634553,246.514781 C517.710685,245.983485 517.688831,245.571592 517.519908,245.40186 L517.548325,245.139033 L517.564242,244.913186 C517.603038,244.150081 517.506199,242.959607 516.551087,242.136741 Z M513.677268,247.147991 C514.004234,247.166147 514.082822,247.558664 514.105999,247.822205 C514.124244,248.043987 513.971681,248.118758 513.739978,248.121459 L513.505213,248.112784 C513.314994,248.101624 513.195062,248.071224 513.216958,247.87784 C513.256621,247.530737 513.437374,247.135368 513.677268,247.147991 Z M515.201586,245.391457 C515.862746,245.506661 516.395694,246.086191 516.392554,246.68434 C516.388891,247.282603 515.849769,247.673345 515.18922,247.558522 C514.528557,247.443203 513.995227,246.864284 513.999236,246.26541 C514.002527,245.667758 514.541419,245.276023 515.201586,245.391457 Z M512.220625,245.375003 C512.883101,245.267048 513.416872,245.664337 513.413619,246.261988 C513.410795,246.861627 512.871346,247.434495 512.209252,247.541839 C511.546776,247.649794 511.01312,247.253002 511.015766,246.654968 C511.019311,246.056208 511.558645,245.482843 512.220625,245.375003 Z" id="3"></path>
        </g>
    </g>
</svg>
