<?xml version="1.0" encoding="UTF-8"?>
<svg width="45px" height="61px" viewBox="0 0 45 61" version="1.1" xmlns="http://www.w3.org/2000/svg" xmlns:xlink="http://www.w3.org/1999/xlink">
    <title>61</title>
    <g id="页面-1" stroke="none" stroke-width="1" fill="none" fill-rule="evenodd">
        <g id="形状库素材-节日" transform="translate(-330.000000, -716.000000)" fill="#545458">
            <path d="M355.998875,731.46948 C357.766933,731.46948 359.20348,732.902573 359.20348,734.670631 C359.20348,734.976064 359.160776,735.271437 359.081033,735.551139 L359.206721,735.556824 C364.377768,735.753749 367.936717,736.166376 367.936717,736.642429 C367.936717,736.697681 367.891825,736.74948 367.805494,736.801278 C365.346789,738.255091 364.773551,741.611638 366.348228,743.990919 C367.056141,745.061422 367.871105,746.076674 368.627364,746.93653 C369.065926,747.437249 369.521753,747.927609 370.008659,748.379983 C372.86794,751.045883 374.570386,754.374803 374.570386,757.98689 C374.570386,760.808185 373.530962,763.460271 371.718012,765.753221 C370.920314,766.761566 370.875422,768.16358 371.635134,769.199552 C371.655854,769.227178 371.680026,769.258257 371.700746,769.289336 C373.489523,771.775667 374.090386,774.407034 373.037149,775.163293 C371.983911,775.923005 369.680602,774.52099 367.888372,772.031206 C367.808947,771.920703 367.732976,771.810199 367.657005,771.699695 C367.073408,770.836386 365.958012,770.529048 365.022185,770.991782 C362.187077,772.397249 358.871969,773.343436 355.287508,773.678401 C354.817868,773.723293 354.427652,774.058257 354.296429,774.514084 C353.875134,775.985163 353.160314,776.95207 352.352256,776.95207 C351.544199,776.95207 350.829379,775.985163 350.408084,774.510631 C350.276861,774.058257 349.890098,773.723293 349.417005,773.678401 C345.832544,773.343436 342.517436,772.397249 339.682328,770.991782 C338.749954,770.529048 337.631105,770.836386 337.047508,771.699695 C336.971537,771.810199 336.895566,771.920703 336.816141,772.031206 C335.027364,774.52099 332.720602,775.923005 331.667364,775.163293 C330.61758,774.407034 331.21499,771.775667 333.003767,769.289336 C333.02794,769.258257 333.048659,769.227178 333.069379,769.199552 C333.829091,768.16358 333.787652,766.761566 332.989954,765.753221 C331.173551,763.460271 330.13758,760.808185 330.13758,757.98689 C330.13758,754.875523 331.398012,751.974803 333.573551,749.529911 C333.963767,749.087897 334.385062,748.663149 334.83053,748.255667 C335.448659,747.689336 336.052976,747.105739 336.6124,746.484156 C337.406645,745.596674 338.048947,744.785163 338.566933,744.042717 C340.279738,741.577106 339.37499,738.30689 336.829954,736.714947 C336.791969,736.690775 336.767796,736.666602 336.767796,736.642429 C336.767796,735.975954 343.746789,735.433796 352.352256,735.433796 C352.532324,735.433796 352.711677,735.434033 352.890267,735.434504 C352.829404,735.189932 352.797724,734.934022 352.797724,734.670631 C352.797724,732.902573 354.230818,731.46948 355.998875,731.46948 Z M348.242904,726.558976 C349.755422,726.558976 350.984774,727.788329 350.984774,729.300847 C350.984774,730.813365 349.755422,732.039264 348.242904,732.039264 C346.730386,732.039264 345.504487,730.813365 345.504487,729.300847 C345.504487,727.788329 346.730386,726.558976 348.242904,726.558976 Z M356.247508,723.109192 C356.247508,721.910919 355.277149,720.937106 354.078875,720.937106 C352.880602,720.937106 351.906789,721.910919 351.906789,723.109192 C351.906789,724.307465 352.880602,725.277825 354.078875,725.277825 C355.277149,725.277825 356.247508,724.307465 356.247508,723.109192 M348.028803,720.156674 C348.912832,720.156674 349.631105,719.438401 349.631105,718.554372 C349.631105,717.670343 348.912832,716.95207 348.028803,716.95207 C347.144774,716.95207 346.429954,717.670343 346.429954,718.554372 C346.429954,719.438401 347.144774,720.156674 348.028803,720.156674" id="61"></path>
        </g>
    </g>
</svg>
