<?xml version="1.0" encoding="UTF-8"?>
<svg width="53px" height="60px" viewBox="0 0 53 60" version="1.1" xmlns="http://www.w3.org/2000/svg" xmlns:xlink="http://www.w3.org/1999/xlink">
    <title>55</title>
    <g id="页面-1" stroke="none" stroke-width="1" fill="none" fill-rule="evenodd">
        <g id="形状库素材-节日" transform="translate(-638.000000, -628.000000)" fill="#545458">
            <path d="M662.507417,677.241838 C662.432025,677.274257 662.019253,675.815044 661.994751,675.733055 C661.936322,676.106434 661.932552,677.645185 661.627215,677.819906 C661.565016,677.856283 660.924184,676.31282 660.854446,676.151104 C660.796017,676.273427 660.360628,677.44125 660.226807,677.422402 C660.013825,677.391868 659.697178,675.957346 659.621786,675.731924 C659.54074,675.927189 659.029959,677.491386 658.865981,677.471972 C658.68881,677.466129 658.35897,675.960173 658.293002,675.744364 C658.153526,676.013702 657.887769,676.217072 657.735101,676.478871 C657.627667,676.621173 656.875631,673.720841 656.918982,673.760045 C657.209241,674.026179 657.501385,674.292124 657.791645,674.558258 C657.846304,674.383537 658.000858,673.494665 658.174259,673.438121 C658.277923,673.404949 658.945143,674.87057 658.994148,674.966695 C659.048807,674.863785 659.668906,673.708213 659.710372,673.794914 C659.908276,674.197507 660.104295,674.600478 660.302199,675.003448 C660.403979,674.68831 660.62827,674.410113 660.750782,674.102137 C660.7734,674.05709 661.374651,675.145939 661.459467,675.315948 C661.521666,675.111259 661.661141,674.147183 661.868469,674.052189 C661.947631,674.016378 662.334015,674.688121 662.369826,674.78745 C662.556421,674.345464 662.726054,673.851081 662.997465,673.506162 C663.185945,673.764192 662.737362,677.144582 662.507417,677.241838 Z M657.910387,669.65721 C658.014051,669.651368 658.49656,670.092788 658.807552,670.390775 C658.447555,670.081856 658.049862,669.862842 658.049862,670.562857 C658.049862,671.250998 658.982839,671.427227 659.274983,670.859525 C659.674561,671.22593 659.989323,671.35127 659.303255,672.014719 C658.713312,672.585626 657.616358,672.461794 657.205472,671.739916 C656.915212,671.227438 657.26767,669.692645 657.910387,669.65721 Z M660.609422,670.859525 C660.901566,671.427227 661.832658,671.250998 661.832658,670.562857 C661.832658,669.862842 661.43685,670.081856 661.076853,670.390775 C661.38596,670.092788 661.868469,669.651368 661.972133,669.65721 C662.61485,669.692645 662.969193,671.227438 662.677049,671.739916 C662.268047,672.461794 661.171093,672.585626 660.58115,672.014719 C659.893198,671.35127 660.209844,671.22593 660.609422,670.859525 Z M687.109724,643.167464 C688.374425,642.411659 689.674938,641.71824 691.007492,641.091732 C689.147193,641.623058 687.320821,642.276141 685.545339,643.043255 C685.737589,641.238747 687.062604,639.584646 688.779657,638.99998 C687.087106,639.376375 685.707432,640.725516 685.134452,642.33457 C684.738644,643.443776 684.670791,643.553659 683.639805,643.643188 C683.127139,643.687857 682.59751,643.623774 682.081075,643.662978 C682.524003,642.177755 683.196877,641.014456 684.512468,640.179489 C685.826174,639.345653 687.503647,638.93552 688.304687,637.463491 C687.166268,638.928923 685.092987,638.998284 683.54368,639.78123 C683.232688,638.591355 683.54368,638.552152 684.393725,638.119401 C685.198535,637.710211 685.890257,637.374528 686.404808,636.593466 C685.735704,637.4028 684.683985,637.920743 683.636035,637.958251 C683.705773,637.728871 685.15707,634.371475 684.998747,634.384291 C685.115604,634.374679 683.588915,636.728041 683.568183,636.761968 C683.044208,637.565835 682.60128,638.39854 682.542851,639.377129 C682.474998,640.549287 682.574892,640.28843 681.826627,641.189177 C681.410085,641.691665 681.084015,642.269168 680.786216,642.846294 C680.218891,643.938159 680.13219,643.908379 678.984347,644.260083 C679.148324,643.019695 678.782673,640.719484 679.480049,639.905062 C679.917323,639.393715 680.774908,639.363935 681.212181,638.630371 C681.50998,638.132783 681.65511,637.525501 681.596681,636.948563 C681.519404,638.214018 680.499727,639.285716 679.219947,639.338868 C679.406542,637.563008 679.913554,635.817117 680.703285,634.215225 C680.09261,635.071301 679.572405,635.9941 679.14644,636.95516 C679.191675,635.871776 679.395233,634.787262 679.751461,633.762684 C678.716705,635.951126 678.362362,638.728946 677.940167,641.110203 C677.52928,640.793557 676.635885,640.214735 676.426672,639.694906 C676.219344,639.182241 676.485101,638.120721 676.454944,637.514003 C676.379552,636.083251 676.130758,634.659849 675.702908,633.291672 C675.955472,635.0615 675.921545,636.876564 675.601129,638.635271 C674.728466,637.382633 674.447631,635.665202 673.490152,634.511138 C674.379778,636.028403 674.389202,638.033077 675.25621,639.628938 C674.457055,639.358846 673.682402,639.020525 672.941675,638.618497 C674.517368,639.707723 677.58017,641.186349 677.516087,643.319756 C677.452003,645.453539 674.628572,646.101533 673.083035,647.047515 C673.352561,645.835211 673.578737,644.739765 673.884075,643.540843 C674.183759,642.363973 674.212031,641.120758 673.912347,639.939365 C674.112136,641.34373 673.865227,642.820095 673.233819,644.089508 C673.018952,642.070321 672.251838,640.171384 671.492263,638.306939 C672.055818,640.758311 672.683457,643.404006 671.984196,645.89609 C671.23216,644.423495 670.941901,642.708703 671.168077,641.070623 C670.879703,642.219974 670.8552,643.436236 671.064413,644.601232 C671.264202,645.721746 671.884301,646.37728 671.349018,647.407889 C670.826928,648.411545 669.530185,649.359977 668.5859,649.968203 C668.944012,648.551775 669.077833,647.181524 669.304009,645.760007 C669.549033,644.218806 669.765785,642.878147 669.501913,641.319039 C669.360553,640.478041 669.079718,639.647221 669.023174,638.792841 C668.991132,638.319944 668.934588,637.749792 669.124953,637.303659 C669.490604,636.43929 669.709241,636.588189 670.743997,636.546346 C671.563885,636.513362 673.352561,636.179941 673.277169,637.611071 C673.678632,635.764719 670.687453,636.159397 669.778979,635.895336 C670.284105,635.122379 671.151114,633.945887 672.042625,633.510121 C672.870052,633.106208 674.176219,633.401556 675.160085,633.296384 C676.543529,633.14805 677.906241,632.777875 679.165288,632.183975 C677.25033,632.846482 675.16574,633.021015 673.165966,632.684201 C674.760508,631.618157 676.549184,630.845954 678.418906,630.419047 C676.558608,630.536659 674.720927,630.988634 673.011412,631.72823 C673.663554,630.573412 675.657673,629.179225 675.721756,627.806713 C675.54647,628.631879 674.509829,629.1649 673.940619,629.655891 C673.233819,630.265624 672.640107,630.957346 672.063358,631.686953 C671.418756,632.498736 670.968288,632.740179 670.125782,633.333892 C669.741283,631.963076 671.096455,630.428283 671.433834,629.006389 C671.058759,630.066024 670.510282,631.074204 669.826099,631.965338 C669.639503,630.812593 669.615001,629.626111 669.756361,628.467147 C669.256889,630.190044 669.671545,631.844145 669.34359,633.499754 C669.162649,634.418972 668.003496,635.141227 667.479522,636.073073 C666.802878,634.635535 667.340046,634.550531 667.798053,633.23494 C668.354069,631.634555 667.598264,629.959156 667.594494,628.337284 C667.421093,629.995721 668.16182,632.173797 666.985704,633.594937 C666.772721,631.682052 666.267595,629.800644 665.483517,628.042878 C665.958487,629.840979 666.158276,631.716355 666.06969,633.574392 C665.108442,632.136289 663.953059,630.835588 662.626159,629.72544 C664.222585,631.785151 665.347812,634.194303 665.911367,636.738596 C664.6052,635.452219 662.882492,634.46628 662.09276,632.739237 C662.814639,635.372869 665.813358,636.797967 666.299636,639.518112 C666.567278,641.012194 666.416494,644.534887 665.304461,645.850101 C664.477034,643.482602 664.331904,640.874226 664.865303,638.425305 C664.262166,639.953313 663.936096,641.592713 663.888976,643.233997 C663.116207,641.9774 662.243544,641.315081 662.024908,639.848518 C661.86093,638.751941 661.679989,637.65574 661.416117,636.5782 C660.828059,634.176398 660.707432,631.691476 660.24754,629.252355 C660.279582,630.536847 660.266388,631.823224 660.209844,633.10715 C659.369223,631.369741 658.138448,629.760121 656.474169,628.742705 C657.638976,629.745042 658.479597,631.079293 659.033728,632.503637 C657.968816,631.784397 656.753119,631.273239 655.490303,631.032173 C657.859497,631.755559 659.403149,632.903969 659.78011,635.377204 C658.100752,633.889719 655.88988,633.314478 653.763825,632.792388 C654.860779,633.259254 655.969042,633.729888 656.98495,634.359035 C656.166946,634.298344 655.333864,634.41916 654.576174,634.732414 C657.586201,634.025614 660.019479,636.133387 660.021364,639.096482 C657.27144,637.160415 653.908955,635.472952 650.819766,634.145864 C652.274832,634.966506 653.682779,635.872907 655.030411,636.859035 C653.124877,636.410641 651.119449,636.34995 649.198837,636.744439 C652.046771,636.62777 654.919208,637.491763 657.256361,639.117969 C654.578059,638.708779 651.799862,638.872756 649.198837,639.645902 C651.255155,639.381653 653.356708,639.486636 655.379099,639.941061 C654.035236,640.620909 652.983517,641.741235 651.664157,642.459909 C652.942052,642.012646 654.04843,641.199355 655.313131,640.722877 C654.736382,641.562744 654.321726,642.530778 654.123822,643.530288 C654.461201,642.454067 655.239624,640.670856 656.428934,640.418482 C657.324214,640.229059 658.952682,640.982226 659.668906,641.511478 C661.638523,642.96579 662.416946,646.482829 662.475375,648.799249 C661.67245,647.540202 661.024078,646.70957 660.426596,645.350629 C659.889428,644.124754 659.088388,643.018188 658.070595,642.145148 C659.10912,643.252091 659.855502,644.642321 660.20419,646.12057 C658.78682,644.84324 657.094268,643.869175 655.267896,643.314667 C658.091328,644.516604 662.266162,647.907927 662.264277,651.30528 C662.262392,653.035339 660.596228,654.893188 659.844193,656.358997 C659.471002,657.086153 659.176973,657.861938 658.792474,658.581178 C658.321274,659.462699 658.44944,659.584646 657.420339,659.113257 C657.182854,659.003938 656.760658,658.877845 656.583487,658.687669 C654.346228,656.272485 658.709543,652.442381 660.518952,651.377091 C658.847133,652.026028 657.473113,653.217222 656.18014,654.426322 C656.721078,651.805318 659.459693,648.71236 657.55416,646.071 C658.245882,647.455386 657.697405,649.079707 656.964217,650.322545 C656.875631,648.631313 656.357311,646.949882 655.443183,645.521957 C656.278149,647.45237 656.739926,650.563234 655.586427,652.476119 C655.13973,650.485392 654.340574,648.565722 653.226657,646.855077 C653.912724,648.409095 654.355652,650.066024 654.549787,651.753109 C654.75523,653.552906 654.33115,655.05283 654.218062,656.823978 C653.876913,656.477551 652.881738,655.657663 652.787498,655.129542 C652.71776,654.737691 653.141841,653.70859 653.1965,653.238521 C653.358593,651.849799 653.226657,650.426963 652.770535,649.10176 C653.177652,650.890436 653.026868,652.800493 652.348339,654.504542 C651.432326,653.136553 650.297676,651.5062 650.412649,649.83589 C650.540815,647.971821 651.485101,646.071 652.76865,644.73411 C651.306044,645.832195 650.227938,647.404308 649.63988,649.128524 C649.259151,648.184238 648.578737,647.079557 649.044283,646.034623 C649.536216,644.927679 651.215574,644.325862 652.348339,643.868798 C651.255155,644.178283 650.192127,644.609525 649.189413,645.146693 C649.406165,643.838264 649.984799,642.124415 649.541871,640.851043 C649.798204,642.31478 648.761563,644.246889 648.292248,645.636176 C647.513825,643.600591 648.45811,641.511478 647.302727,639.402008 C647.862513,640.747756 647.94356,642.305356 647.530788,643.702936 C646.9465,642.309502 645.964519,640.666898 644.264428,640.583779 C646.414986,641.042351 646.786292,643.692758 647.161367,645.47446 C646.139805,644.637985 645.246409,643.634517 644.535839,642.521166 C645.23887,644.154346 646.693937,645.286922 647.432779,646.780439 C648.150888,648.232301 648.17539,650.392283 648.622088,651.976458 C647.540212,650.999 646.888071,649.387495 646.079491,648.181411 C644.942956,646.487164 644.042022,644.601986 642.956376,642.853079 C643.478466,644.105529 643.957206,645.376074 644.396364,646.660188 C643.772495,646.241763 643.401189,646.181072 643.052501,645.627883 C642.833864,645.27976 642.784859,644.758047 642.554914,644.379579 C642.108216,643.647523 641.439111,643.039109 640.622993,642.743384 C641.674712,643.332761 642.40413,644.504165 642.462558,645.710249 C641.293982,645.318964 640.006663,645.195321 638.789081,645.407173 C641.297751,645.380032 643.891237,646.769695 645.103165,649.002242 C643.448309,648.927227 641.812302,648.362352 640.459015,647.408643 C641.286443,648.220238 642.275963,648.859563 643.348415,649.300418 C643.832809,649.500207 644.418982,649.563159 644.882643,649.790843 C645.806195,650.24508 645.546093,649.971972 645.955095,651.090602 C644.079718,651.729926 640.796394,649.671723 639.088765,648.964735 C640.474093,649.821377 641.842459,650.709495 643.24852,651.531833 C641.806648,651.779873 640.313885,651.779873 638.872013,651.532776 C640.628647,652.136666 642.319313,652.194718 644.15134,652.209796 C644.647043,652.213943 644.916569,652.208289 645.519706,652.330424 C646.667549,652.563385 646.053104,652.123472 646.856029,652.964659 C647.817278,653.973028 649.257266,654.754843 649.97726,655.77339 C650.863116,657.028667 651.385206,658.492592 652.372842,659.717524 C651.149606,659.990255 650.207206,660.069605 649.2158,659.154911 C648.13204,658.15672 648.910462,656.87204 647.971832,655.614878 C648.36764,656.375395 648.427953,657.295743 648.154657,658.105831 C646.631738,656.312631 645.33311,653.758914 642.756587,653.371211 C644.213538,653.838641 645.184211,655.108432 645.900435,656.390096 C644.801596,655.643715 643.561397,655.090149 642.266539,654.783492 C643.691449,655.28843 645.327456,656.155627 646.303783,657.347198 C647.067127,658.278667 647.496862,659.441589 648.354446,660.329707 C647.630683,660.368157 646.89938,660.360241 646.179386,660.275614 C645.089971,660.147636 645.189865,660.157437 644.782748,659.39937 C644.177727,658.266604 644.047676,657.006049 643.220248,655.921346 C643.859196,657.117441 644.19846,658.487691 644.183382,659.84456 C642.694389,659.355077 643.027999,658.207233 642.183608,656.949505 C642.511563,657.664033 642.701928,658.441702 642.739624,659.227099 C641.808532,658.734035 640.950948,658.081894 640.230954,657.314591 C641.367489,659.002431 643.078888,660.374377 645.001385,661.06478 C643.672601,661.558409 642.40413,662.231849 641.256286,663.064742 C642.181723,662.598631 643.156165,662.227702 644.156994,661.95761 C643.851657,662.900387 644.025058,664.030137 644.647043,664.809502 C643.715951,663.346143 644.109874,661.741612 645.85143,661.60176 C646.857914,661.520902 647.760734,661.787789 648.784181,661.866386 C647.641991,662.853456 646.786292,664.214848 646.501687,665.707045 C647.018122,664.295706 648.149003,662.905853 649.534332,662.253147 C650.482386,661.805695 651.558608,661.929338 652.600903,661.874867 C653.036292,661.852061 653.959844,661.648503 654.380155,661.755182 C654.651566,661.823978 655.543077,662.637835 655.744751,662.767321 C656.666418,663.361787 656.826627,663.077747 656.860553,664.076126 C656.883171,664.699618 656.396892,665.858583 656.257417,666.475289 C654.670414,673.463566 654.5234,680.673684 654.3745,687.806713 C658.78305,687.806713 663.191599,687.806713 667.600149,687.806713 C666.514503,682.290654 665.274304,676.828313 664.897344,671.201616 C664.791795,669.634027 664.75033,668.063611 664.799335,666.492818 C664.808759,666.148088 664.644781,664.824958 664.901114,664.552227 C665.161216,664.27535 666.444766,664.258387 666.893348,664.153592 C668.39365,663.803396 669.607462,663.861259 670.928707,664.624792 C672.372465,665.45957 672.191524,666.87449 673.03403,668.217599 C672.645761,667.418255 672.4177,666.541257 672.368695,665.654082 C673.720098,666.484902 675.194012,667.088227 676.662272,667.68062 C674.928255,666.753675 673.162196,665.805054 671.727863,664.440458 C674.602184,664.905439 677.493469,665.274294 680.394178,665.543632 C678.57723,665.071867 676.769706,664.559955 674.975375,664.008839 C676.933683,663.874264 678.875028,663.476194 680.725903,662.820095 C677.751687,663.525387 674.181874,663.801699 671.251008,662.802755 C672.93979,662.144017 674.441976,661.173156 676.081753,660.434502 C677.749802,659.681524 679.826853,659.866989 681.645686,660.131615 C680.286744,659.781419 678.884452,659.584269 677.48216,659.542615 C679.385809,658.256426 681.645686,658.400991 683.92441,658.165767 C682.4128,658.158417 680.901189,658.151066 679.391464,658.143715 C680.448837,657.304413 681.451551,656.393489 682.384528,655.417728 C680.364021,656.941212 678.143725,658.199317 675.802803,659.160565 C677.009075,657.292162 677.827079,655.16196 678.158804,652.962774 C677.440695,655.688574 675.849923,659.300229 672.994449,660.155363 C673.380833,659.123623 673.209317,657.456894 673.689941,656.575749 C674.251611,655.543821 675.346681,655.177416 675.529506,653.770789 C675.290137,654.762948 674.6003,655.666333 673.706904,656.158077 C673.738946,655.054338 673.855803,653.482791 673.493921,652.444454 C673.299787,654.671535 673.098113,656.987201 672.123671,659.033341 C671.56954,657.860807 671.015408,656.688083 670.461277,655.51536 C670.832582,656.586116 671.701476,658.060407 671.729748,659.173759 C671.790061,661.532776 667.06675,661.3524 665.293152,661.401028 C665.492941,660.240933 665.760583,659.094597 666.086654,657.963151 C666.49754,656.529383 666.785915,656.277008 667.931874,655.409623 C669.598038,654.147183 671.119072,652.707572 672.65707,651.293406 C673.657899,650.37155 673.931195,649.94992 675.243017,649.876978 C675.929084,649.838905 676.841328,649.792539 677.382266,650.037563 C679.150209,650.838604 679.872088,652.859487 681.638146,653.676737 C680.818258,653.183673 680.149154,652.404119 679.783502,651.519394 C681.436473,651.980228 683.577607,651.918595 684.665137,653.479964 C684.225978,652.564516 683.323158,651.980228 682.418454,651.595163 C683.245882,651.589508 684.073309,651.444002 684.849847,651.154685 C682.923581,651.645298 680.156693,651.328463 678.763825,649.765586 C681.911443,649.514531 684.798958,649.143225 686.827003,652.044688 C686.412347,651.288883 685.852561,650.613935 685.194766,650.057354 C686.355803,650.423759 687.452757,651.068926 688.208563,652.038656 C687.556421,650.847274 686.446274,649.982339 685.236231,649.406909 C686.214443,648.648653 687.582809,648.386101 688.774003,648.724988 C687.187,648.082459 686.493394,648.894808 685.051521,649.051435 C684.007341,649.1649 682.591856,648.499 681.413855,648.343127 C682.804838,647.239199 684.619902,646.684691 686.391614,646.829821 C684.949742,646.472839 683.389127,646.593278 682.001913,647.109148 C682.305366,646.595917 682.610704,646.082497 682.916041,645.569454 C682.522118,646.094183 682.150812,646.814554 681.658879,647.245231 C680.218891,648.507293 678.413252,648.116763 676.660387,647.870796 C680.477109,645.023427 686.118318,643.186877 690.262996,646.508462 C689.094419,645.212473 687.518725,644.374302 685.833713,643.959646 C687.153074,643.109035 688.954944,643.718203 690.506135,643.076616 C689.41295,643.396279 688.217987,643.427755 687.109724,643.167464 L687.109724,643.167464 Z" id="55"></path>
        </g>
    </g>
</svg>
