<?xml version="1.0" encoding="UTF-8"?>
<svg width="33px" height="61px" viewBox="0 0 33 61" version="1.1" xmlns="http://www.w3.org/2000/svg" xmlns:xlink="http://www.w3.org/1999/xlink">
    <title>102</title>
    <g id="页面-1" stroke="none" stroke-width="1" fill="none" fill-rule="evenodd">
        <g id="形状库素材-节日" transform="translate(-174.000000, -954.000000)" fill="#545458">
            <path d="M205.714099,962.314995 C205.700177,963.257587 205.575335,964.81024 205.007041,964.962698 C204.438518,965.115156 204.022682,964.491402 204.022682,964.491402 C204.022682,964.491402 205.367417,962.508991 205.298035,961.718856 C205.228881,960.928722 205.492259,960.013745 206.116014,959.653369 C206.739768,959.292765 206.847036,958.488708 206.523177,958.156176 C206.19909,957.823416 205.201037,959.279071 205.201037,959.279071 C205.201037,959.279071 204.105986,957.823416 204.327827,956.852979 C204.549438,955.882542 206.143858,955.591548 206.143858,955.009104 C206.143858,954.426887 204.410902,954.82903 203.981144,955.452784 C203.551386,956.076539 202.941554,957.379735 203.703844,958.696626 C204.466363,960.013745 204.799123,961.150562 204.189062,962.217997 C203.579002,963.285431 202.109653,964.879622 202.109653,964.879622 C202.109653,964.879622 202.373031,963.534887 201.679895,962.786291 C200.986758,962.037694 200.404542,962.605989 200.681842,963.202127 C200.959142,963.798266 200.986758,964.92116 200.986758,964.92116 C200.986758,964.92116 199.808403,965.572759 198.948887,966.307433 C198.08937,967.042108 197.673534,969.010597 197.673534,969.010597 L197.032206,969.097553 C196.714737,968.40008 195.862296,967.720637 194.898706,967.285173 C195.04272,966.766861 195.354483,965.467316 195.136751,964.574478 C194.85945,963.437889 193.570176,963.590348 193.833554,964.560784 C194.028463,965.27857 193.798634,966.366545 193.665804,966.884857 C193.399915,966.83282 193.138591,966.80452 192.890961,966.806574 C191.061008,966.820267 189.646891,966.820267 189.355897,965.752833 C189.064675,964.685398 188.316078,964.131026 187.60902,963.035747 C186.902189,961.940696 187.345641,959.944363 187.747784,958.377788 C188.149698,956.811441 188.371538,955.258788 187.88632,955.064564 C187.401101,954.870568 186.818885,955.05087 186.916111,956.353839 C186.963127,956.988092 186.846045,957.866095 186.707052,958.829685 C186.445728,958.552613 186.098133,958.100716 185.987213,957.561863 C185.802118,956.662407 185.061281,957.191445 185.3258,957.998469 C185.551749,958.687497 185.971465,959.672997 186.566918,959.814728 C186.46741,960.539132 186.38091,961.28111 186.361511,961.982234 C186.350556,962.370227 186.374064,962.704813 186.422677,963.001969 C185.97078,962.903602 185.302749,962.651635 184.955382,962.006427 C184.399869,960.974596 183.500412,962.138801 184.558717,963.382201 C185.429417,964.405359 186.353751,964.763909 186.963355,964.446669 C187.219202,964.873004 187.519325,965.254149 187.789322,965.725217 C188.44092,966.862034 188.399382,968.331383 191.07493,968.220462 C193.193367,968.132594 194.846898,969.215776 195.445318,969.671553 C195.084486,969.914847 194.776831,970.219991 194.5203,970.569869 C193.897686,970.268376 192.185272,969.56748 190.076649,969.787038 C190.209023,971.989691 192.253513,972.843046 193.797265,971.995625 C193.558536,972.702684 193.440541,973.455617 193.426162,974.156969 C193.383483,976.247106 194.364646,979.403535 194.364646,979.403535 C194.364646,979.403535 193.938083,980.171303 192.445227,980.512508 C190.952142,980.853941 190.610937,983.45577 188.435443,984.266217 C186.260176,985.076664 179.904638,985.503227 179.008833,988.019927 C178.155707,986.740237 177.942539,985.887111 177.942539,985.887111 C177.942539,985.887111 175.041956,987.422647 176.406775,990.451267 C175.895082,990.792472 174.999277,994.503502 175.809724,996.721448 C176.620171,998.939621 177.430618,999.963236 177.430618,999.963236 C177.430618,999.963236 176.236287,1002.73578 176.193608,1002.94918 C176.150929,1003.16234 175.169765,1003.97279 175.255123,1005.08176 C175.340482,1006.19097 175.681687,1007.04409 175.212444,1008.87815 C174.743202,1010.71221 174.572714,1011.73606 174.999277,1012.29066 C174.444676,1012.93039 174.359318,1014.29543 175.468519,1014.59396 C176.577492,1014.89249 177.515748,1014.59396 177.515748,1014.59396 L176.66285,1012.24798 C176.66285,1012.24798 176.236287,1010.37101 176.66285,1008.11038 C177.089413,1005.84976 177.771823,1005.59369 177.89986,1004.6552 C178.027669,1003.71694 180.544368,1001.49877 181.141648,998.640867 C181.781378,998.768905 182.421109,1000.26176 182.421109,1000.26176 C182.421109,1000.26176 181.141648,1003.37574 181.482853,1004.05815 C181.824058,1004.74056 183.658119,1004.10083 184.937808,1005.55101 C186.217497,1007.00141 187.32647,1007.98235 187.32647,1007.98235 C187.32647,1007.98235 186.772098,1008.62231 187.198661,1009.30472 C187.624996,1009.98713 190.141695,1010.49905 190.141695,1010.49905 C190.141695,1010.49905 190.355091,1008.92083 189.715132,1008.32355 C189.075401,1007.7265 187.539866,1005.84976 187.027944,1004.91128 C186.516023,1003.97279 185.236334,1003.07699 185.236334,1003.07699 L186.558702,998.9823 C186.558702,998.9823 190.696295,998.9823 192.530357,996.59341 C192.743752,998.683547 193.767367,1001.32828 193.767367,1001.32828 C193.767367,1001.32828 193.042278,1002.01069 193.639329,1002.86382 C194.236609,1003.71694 194.449776,1004.314 194.492684,1005.80708 C194.535135,1007.29994 194.279288,1007.85454 194.236609,1008.57963 C194.19393,1009.30472 194.961698,1009.94445 194.961698,1009.94445 C194.961698,1009.94445 194.407325,1010.54173 194.620493,1011.22414 C194.833889,1011.90677 196.838666,1012.16262 196.838666,1012.16262 C196.838666,1012.16262 196.539913,1010.0298 196.454554,1009.6886 C196.369424,1009.34739 195.601656,1008.11038 195.644336,1006.57485 C195.686786,1005.03931 196.028219,1003.50355 195.900182,1002.86382 C195.772145,1002.22409 195.473619,1000.56052 195.601656,999.451314 C195.729466,998.342342 196.156029,995.399079 196.156029,995.399079 C196.156029,995.399079 196.881346,997.489216 196.625271,999.451314 C196.369424,1001.41364 196.326745,1001.8402 196.497233,1002.73578 C196.66795,1003.63159 196.625271,1006.06293 196.454554,1006.66021 C196.284066,1007.25726 197.009155,1008.32355 197.009155,1009.134 C197.009155,1009.94445 197.54641,1011.01211 199.42064,1010.84755 C199.387774,1008.47989 197.947639,1008.70744 197.819602,1007.42798 C197.691564,1006.14829 197.862281,1002.65042 198.374202,1001.8402 C198.886123,1001.02953 198.928803,1000.68832 198.672728,999.536673 C198.416881,998.385021 199.7817,997.233369 200.037775,995.783192 C200.293622,994.332786 200.037775,991.730957 200.037775,991.730957 C200.037775,991.730957 202.170362,990.195193 202.255721,987.84921 C202.341079,985.503227 201.018711,983.45577 201.018711,983.45577 C201.018711,983.45577 202.127683,982.688002 202.042553,982.005593 C201.957195,981.322955 201.146748,979.702061 201.146748,979.702061 C201.146748,979.702061 201.871837,979.958136 201.829158,979.531573 C201.786478,979.10501 200.140479,976.781394 200.140479,976.781394 C200.140479,976.781394 201.254929,977.162767 201.852209,976.90692 C202.44926,976.651074 202.639605,975.436659 202.639605,975.436659 C202.639605,975.436659 202.788867,975.221209 202.830405,974.985675 C202.872172,974.749913 201.180754,973.47456 201.180754,973.47456 C201.180754,973.47456 201.347134,973.100262 201.236214,972.961497 C201.125522,972.822961 201.070062,972.559583 201.070062,972.559583 C201.070062,972.559583 201.790815,972.185285 201.776893,971.810987 C201.762971,971.436689 200.861916,970.535634 200.861916,970.535634 C200.861916,970.535634 201.984811,969.884036 202.151191,969.038441 C202.317571,968.192847 201.984811,967.236332 201.984811,967.236332 L199.733316,969.254575 C199.733316,969.254575 198.935193,969.038441 199.032191,968.483841 C199.129189,967.929468 200.210318,966.265895 201.874119,966.265895 C203.537464,966.265895 205.672333,966.432275 205.908095,965.08754 C206.143858,963.742806 206.684308,961.566398 206.47639,961.41394 C206.268472,961.261254 205.727793,961.372174 205.714099,962.314995" id="102"></path>
        </g>
    </g>
</svg>
