<?xml version="1.0" encoding="UTF-8"?>
<svg width="50px" height="61px" viewBox="0 0 50 61" version="1.1" xmlns="http://www.w3.org/2000/svg" xmlns:xlink="http://www.w3.org/1999/xlink">
    <title>witch-2-svgrepo-com</title>
    <g id="页面-1" stroke="none" stroke-width="1" fill="none" fill-rule="evenodd">
        <g id="形状库素材-节日" transform="translate(-80.000000, -156.000000)" fill="#545458" fill-rule="nonzero">
            <g id="witch-2-svgrepo-com" transform="translate(80.000000, 156.560612)">
                <path d="M21.2410941,31.4079279 C20.7106292,31.4079279 20.281289,31.8372682 20.281289,32.3667957 C20.281289,32.8962059 20.7106292,33.3255462 21.2410941,33.3255462 C21.7706216,33.3255462 22.1998447,32.8962059 22.1998447,32.3667957 C22.1999619,31.8372682 21.7706216,31.4079279 21.2410941,31.4079279 Z" id="路径"></path>
                <path d="M28.2359189,31.4079279 C27.7073288,31.4079279 27.2781058,31.8372682 27.2781058,32.3667957 C27.2781058,32.8962059 27.707446,33.3255462 28.2359189,33.3255462 C28.7662666,33.3255462 29.1956069,32.8962059 29.1956069,32.3667957 C29.1956069,31.8372682 28.7662666,31.4079279 28.2359189,31.4079279 Z" id="路径"></path>
                <path d="M26.0929673,37.952086 L23.3840458,37.952086 C23.1346909,37.952086 22.9325589,38.1542181 22.9325589,38.4035729 C22.9325589,38.6518731 23.1348081,38.8550598 23.3840458,38.8550598 L26.0929673,38.8550598 C26.3423221,38.8550598 26.5444542,38.6518731 26.5444542,38.4035729 C26.544337,38.1542181 26.3423221,37.952086 26.0929673,37.952086 Z" id="路径"></path>
                <polygon id="路径" points="26.4530553 23.0239577 26.458797 23.018216 26.458797 20.6086844 26.4530553 20.6020052 23.0248951 20.6020052 23.0191534 20.6086844 23.0191534 21.3566317 24.1205096 21.3566317 24.1205096 22.2702687 23.0191534 22.2702687 23.0191534 23.018216 23.0248951 23.0239577"></polygon>
                <path d="M49.4779505,24.4545842 C49.4779505,22.2809319 44.2122046,20.391202 36.4636908,19.4265925 L26.4202455,1.12233108 C26.1391354,0.44281574 25.4749704,0 24.7394439,0 C24.0029801,0 23.3386979,0.44281574 23.0575878,1.12233108 L13.0142597,19.4264753 C5.26668331,20.3910848 0,22.2808147 0,24.454467 C0,26.4211829 4.3060579,28.1540115 10.860762,29.181194 C10.8203356,30.5269836 10.8222104,31.8102001 10.8222104,32.9481158 C10.8222104,36.5494651 7.97267534,36.5426688 6.15043994,35.6686379 C6.42662854,37.8856461 9.19624823,40.9323918 11.6885075,40.9323918 C13.4368036,40.9323918 14.850908,40.3422833 15.8241886,39.2853375 C16.210173,40.0487523 16.6857986,40.7082302 17.163299,41.2655289 C17.6051773,41.7834557 18.0499851,42.2205298 18.4321026,42.5882344 C18.6707943,42.8154426 18.8806601,43.0127704 19.0510369,43.1802177 C19.0510369,44.184199 19.0510369,43.5335095 19.0510369,44.1583027 L19.0471701,44.1909953 C19.034632,44.2777071 18.9508497,44.5066729 18.7930109,44.7598946 C18.5599438,45.145879 18.1807558,45.599358 17.7763744,45.9642503 C17.3767974,46.3328924 16.9340988,46.6102528 16.6799397,46.6949725 C16.158146,46.8797622 15.4044569,47.0722857 14.5794065,47.3361706 C13.3424753,47.7357476 11.9109114,48.3055844 10.7460447,49.4511167 C10.1646074,50.022008 9.66402289,50.7400749 9.31940233,51.6112935 C8.97372717,52.4825121 8.78507056,53.4999688 8.78507056,54.6736239 C8.78507056,54.9970352 8.79960063,55.3340392 8.82842642,55.6834641 L8.82842642,55.6825266 C8.85537737,55.9771122 8.96505599,56.2052578 9.08153095,56.3813764 C9.3078017,56.7086546 9.57156943,56.917583 9.88349732,57.1303783 C10.4311874,57.4914037 11.1493715,57.8234863 12.0610165,58.1507645 C14.7834134,59.1211157 19.2280929,59.9923342 24.7382722,59.9952637 C29.2145897,59.9943263 32.9940496,59.4147638 35.7087128,58.6812294 C37.0679778,58.3125873 38.1577334,57.9091434 38.968371,57.4923412 C39.3754474,57.2816551 39.7124514,57.0727267 39.9983658,56.8224344 C40.1427291,56.6952963 40.2765464,56.5576121 40.3948962,56.3814935 C40.5113711,56.2052578 40.6221044,55.9771122 40.6481179,55.6826438 C40.6769437,55.3350938 40.6913566,54.9990273 40.6913566,54.6766705 C40.6933486,53.1123439 40.3515403,51.824206 39.759557,50.7990155 C39.3177958,50.0298589 38.7438579,49.4185412 38.1201193,48.9401033 C37.1853902,48.2199272 36.1514114,47.7858998 35.2061363,47.4614339 C34.2616814,47.1398974 33.3895254,46.918431 32.8148844,46.7009485 C32.5818173,46.6161117 32.2882864,46.4477268 31.9966303,46.2254401 C31.5576814,45.8932405 31.1254117,45.4369492 30.8318808,45.0153427 C30.6844708,44.8045395 30.5729173,44.6024074 30.5054228,44.4416391 C30.437108,44.2836832 30.4226951,44.1681456 30.42457,44.1586542 C30.42457,43.533861 30.42457,44.1845506 30.42457,43.1795147 C30.5958842,43.0130047 30.8068047,42.8156769 31.0435043,42.5884687 C31.6182625,42.0378492 32.3324625,41.3292737 32.9659269,40.4301668 C33.2123522,40.0807419 33.4395604,39.6907735 33.6474342,39.2798302 C34.6216523,40.3397053 36.0377487,40.9326261 37.786865,40.9326261 C40.2801789,40.9326261 43.0488612,37.8857632 43.3270418,35.6688723 C41.5028144,36.5429031 38.6543339,36.5495823 38.6543339,32.9483502 C38.6543339,31.8105516 38.6563259,30.5272179 38.6157823,29.1814283 C45.1710723,28.1550661 49.4779505,26.4213001 49.4779505,24.4545842 Z M21.8764334,20.6086844 C21.8773708,19.9742826 22.3895559,19.4612772 23.0248951,19.4603398 L26.4530553,19.4603398 C27.0883945,19.4612772 27.6004625,19.9743997 27.6015171,20.6086844 L27.6015171,23.0183332 C27.6005797,23.652735 27.0873399,24.1657404 26.4530553,24.166795 L23.0248951,24.166795 C22.3904933,24.1658575 21.877488,23.652735 21.8764334,23.0183332 L21.8764334,20.6086844 Z M23.492787,48.3054672 C23.2954592,48.4969361 23.0606344,48.6779761 22.8092876,48.8060517 C22.5580579,48.9330727 22.2922982,49.0100586 22.0025169,49.0100586 C21.6724264,49.0081838 21.2911292,48.9149101 20.8193704,48.6135282 C20.4036228,48.3449562 19.9213181,47.8934693 19.3975323,47.2195785 C19.7181314,46.9019089 20.0155292,46.5622098 20.2707429,46.2058714 C20.281289,46.1905211 20.2899601,46.1741162 20.3014436,46.1578284 L23.7429621,48.0368952 C23.6690227,48.1245443 23.5861779,48.2159432 23.492787,48.3054672 Z M28.6575254,48.6135282 C28.1848293,48.9149101 27.8047038,49.0081838 27.4743789,49.0100586 C27.1749891,49.0100586 26.9025502,48.9292058 26.6426494,48.7935136 C26.2825613,48.6067319 25.9658291,48.3064046 25.7338166,48.0359577 L29.1646719,46.165445 C29.4245727,46.5399459 29.7298215,46.898042 30.0696377,47.2319993 C29.5499532,47.8993282 29.0704608,48.3469482 28.6575254,48.6135282 Z M30.7705967,39.9466903 C30.398908,40.3828269 30.0051898,40.7708033 29.6404146,41.120111 C29.2745849,41.4715278 28.9394557,41.7747846 28.654596,42.0895247 L28.3946951,42.379306 L28.3946951,42.7682198 C28.3946951,43.9868712 28.3946951,43.4478523 28.3946951,44.1584199 C28.3975074,44.4491385 28.4543387,44.7129063 28.538121,44.9641359 L24.7385065,47.0366636 L20.9359626,44.9630813 C21.0216197,44.7137265 21.0793885,44.4518336 21.0822007,44.1583027 C21.0822007,43.4478523 21.0822007,43.9868712 21.0822007,42.7681026 L21.0822007,42.3791888 L20.8213625,42.0894076 C20.5373229,41.7746674 20.2033656,41.4714107 19.8375358,41.1199938 C19.2898457,40.5973798 18.678528,39.9831326 18.1702098,39.2592068 C17.6706799,38.5496939 17.2759071,37.7469073 17.1016634,36.8159279 C17.2441519,36.2326157 17.319263,35.5962219 17.319263,34.9117851 C17.319263,33.1375927 17.319263,31.3172321 17.319263,29.9020732 C19.6614172,30.0715126 22.1537937,30.1638489 24.7395611,30.1638489 C27.3242739,30.1638489 29.815713,30.0713954 32.1578672,29.9020732 C32.1578672,31.3171149 32.1578672,33.1375927 32.1578672,34.9117851 C32.1578672,35.5971593 32.2329784,36.2344906 32.3753496,36.8188574 C32.1442746,38.0617646 31.5060059,39.0861349 30.7705967,39.9466903 Z" id="形状"></path>
            </g>
        </g>
    </g>
</svg>
