<?xml version="1.0" encoding="UTF-8"?>
<svg width="61px" height="14px" viewBox="0 0 61 14" version="1.1" xmlns="http://www.w3.org/2000/svg" xmlns:xlink="http://www.w3.org/1999/xlink">
    <title>18</title>
    <g id="页面-1" stroke="none" stroke-width="1" fill="none" fill-rule="evenodd">
        <g id="形状库素材-节日" transform="translate(-802.000000, -339.000000)" fill="#545458">
            <path d="M833.260969,347.554383 C833.260969,347.554383 834.079694,346.389025 835.386193,346.775134 C835.386193,346.775134 834.660481,348.040535 833.260969,347.554383 Z M830.13478,346.058615 C831.56782,346.12513 832.27082,347.428925 832.27082,347.428925 C830.258076,347.413243 830.13478,346.058615 830.13478,346.058615 Z M835.9394,346.485823 C837.121523,345.425374 836.422308,343.45481 836.422308,343.45481 C834.639931,343.849571 834.433898,345.955328 834.433898,345.955328 C832.825109,344.876493 831.250929,345.378327 831.250929,345.378327 C831.693819,343.502938 830.156411,342.615535 830.156411,342.615535 C828.867217,343.883099 829.75462,345.548669 829.75462,345.548669 C818.3141,335.799676 802.666934,340.89697 802.666934,340.89697 C808.392061,340.32754 809.490904,345.537313 809.490904,345.537313 C815.007835,338.454314 819.316686,346.344682 819.316686,346.344682 C823.654739,340.555744 828.875869,346.447969 828.875869,346.447969 C829.345798,348.538584 832.260005,348.994453 832.260005,348.994453 L832.535256,350.049494 L833.333973,349.131267 C836.011864,348.890625 836.723516,347.603053 836.723516,347.603053 C842.567612,344.557439 844.746914,350.371793 844.746914,350.371793 C851.882367,344.078858 854.7306,352.730088 854.7306,352.730088 C857.535572,347.511122 862.666934,350.935815 862.666934,350.935815 C850.898167,341.342564 835.9394,346.485823 835.9394,346.485823 L835.9394,346.485823 Z" id="18"></path>
        </g>
    </g>
</svg>
