<?xml version="1.0" encoding="UTF-8"?>
<svg width="61px" height="33px" viewBox="0 0 61 33" version="1.1" xmlns="http://www.w3.org/2000/svg" xmlns:xlink="http://www.w3.org/1999/xlink">
    <title>swans-couple-fidelity-symbol-of-love-svgrepo-com</title>
    <g id="页面-1" stroke="none" stroke-width="1" fill="none" fill-rule="evenodd">
        <g id="形状库素材-节日" transform="translate(-83.000000, -964.000000)" fill="#545458" fill-rule="nonzero">
            <g id="swans-couple-fidelity-symbol-of-love-svgrepo-com" transform="translate(83.588565, 964.061259)">
                <path d="M29.6888441,0.955947277 L29.6779711,0.955947277 C29.6779711,0.955947277 28.1391853,-0.791806896 26.7964238,0.439118205 C25.4537659,1.66993975 26.5687125,4.37130621 29.6185322,5.60202421 L29.7274691,5.63961366 C32.7772887,4.40879211 33.9141884,1.6698362 32.5714269,0.439014653 C31.2286654,-0.791703343 29.6888441,0.955947277 29.6888441,0.955947277 Z" id="路径"></path>
                <path d="M50.3943153,14.9962806 C43.8856448,13.2049309 40.5407013,18.7581252 40.3613489,20.5504068 C40.1822036,22.3417565 39.7642669,23.2378973 39.0473749,23.2378973 C38.330483,23.2378973 37.7938755,20.7890946 39.7038959,18.0421652 C41.61402,15.2953393 48.9605314,9.80158402 43.4657406,4.72483345 C37.8521754,0.00730549641 32.5377725,7.05372262 33.6121266,9.97990092 C33.9854323,11.2641554 34.9707316,11.8316215 34.9707316,11.8316215 C34.9707316,11.8316215 33.7011815,13.4733382 34.0299598,13.9071184 C34.358738,14.3398631 36.6580113,12.0405899 36.7470662,11.8316215 C36.8362246,11.6226532 38.4195379,11.1443455 38.0908632,8.45789056 C37.7620849,5.77050365 43.1667853,6.39730517 40.8376891,10.5780185 C38.5085928,14.7587318 30.8048263,16.9679146 31.4623828,24.4925358 C31.4623828,24.4925358 32.0594648,35.0026708 49.0189348,32.4350938 C49.0189348,32.4350938 61.2609805,30.4645988 59.8875675,17.3857478 C56.0078805,18.4601019 55.2315496,16.5490459 50.3943153,14.9962806 Z" id="路径"></path>
                <path d="M28.534237,24.4915003 C29.190758,16.9668791 21.4879234,14.7576963 19.1588271,10.576983 C16.8297309,6.39626965 22.2344313,5.76946813 21.905653,8.45695859 C21.5768748,11.1443455 23.1592561,11.6217212 23.24945,11.830586 C23.3395405,12.0395543 25.6377782,14.3388276 25.9665564,13.9060829 C26.2953347,13.4733382 25.0258882,11.830586 25.0258882,11.830586 C25.0258882,11.830586 26.0111874,11.2632234 26.3844931,9.9788654 C27.4598828,7.05279065 22.1444444,0.00637352654 16.5308792,4.72379793 C11.0371239,9.79972008 18.3825998,15.2932683 20.2927238,18.0411297 C22.2038834,20.7879556 21.6661368,23.2368617 20.9492448,23.2368617 C20.2323529,23.2368617 19.8145197,22.3407209 19.6352709,20.5493713 C19.456022,18.7581252 16.1121141,13.2038954 9.60240804,14.995245 C4.76517373,16.5479068 3.98884283,18.4589628 0.107188298,17.3835732 C-1.26425715,30.4634597 10.9777885,32.4339547 10.9777885,32.4339547 C27.937155,35.0017388 28.534237,24.4915003 28.534237,24.4915003 Z" id="路径"></path>
            </g>
        </g>
    </g>
</svg>
