<?xml version="1.0" encoding="UTF-8"?>
<svg width="50px" height="61px" viewBox="0 0 50 61" version="1.1" xmlns="http://www.w3.org/2000/svg" xmlns:xlink="http://www.w3.org/1999/xlink">
    <title>17</title>
    <g id="页面-1" stroke="none" stroke-width="1" fill="none" fill-rule="evenodd">
        <g id="形状库素材-节日" transform="translate(-723.000000, -318.000000)" fill="#545458">
            <path d="M751.723312,365.720085 C751.723312,365.720085 752.469624,363.151384 755.535867,363.566277 C755.535867,363.566277 754.458963,365.803559 751.723312,365.720085 Z M746.337139,363.896869 C748.905841,363.137333 750.232342,365.722564 750.232342,365.722564 C747.125602,365.974641 746.337139,363.896869 746.337139,363.896869 Z M772.358876,340.527308 C758.27069,330.83104 770.867079,318.897489 770.867079,318.897489 C753.961421,323.207584 753.46388,337.792485 753.46388,337.792485 C764.568471,346.908564 756.281352,362.157128 756.281352,362.157128 C757.773976,357.682563 754.789555,355.527102 754.789555,355.527102 C751.806787,357.350317 752.303502,362.157128 752.303502,362.157128 C750.646408,360.830627 748.989315,362.157128 748.989315,362.157128 C749.154611,356.521358 745.50818,355.527102 745.50818,355.527102 C743.188249,357.682563 745.50818,362.157128 745.50818,362.157128 C736.339206,351.399658 744.182505,338.290026 744.182505,338.290026 C734.90113,323.041462 723.464293,322.378624 723.464293,322.378624 C734.735007,330.499621 726.116469,340.609956 726.116469,340.609956 C743.188249,343.924969 731.419994,359.173533 731.419994,359.173533 C741.198911,356.024643 744.477558,366.300274 744.477558,366.300274 C744.275071,372.763351 750.31499,374.090679 750.31499,374.090679 L751.309246,378.897489 L752.469624,374.090679 C757.939272,372.432759 757.441731,365.306018 757.441731,365.306018 C758.27069,357.515614 767.883484,358.842115 767.883484,358.842115 C757.607027,344.588633 772.358876,340.527308 772.358876,340.527308 L772.358876,340.527308 Z" id="17"></path>
        </g>
    </g>
</svg>
