<?xml version="1.0" encoding="UTF-8"?>
<svg width="61px" height="22px" viewBox="0 0 61 22" version="1.1" xmlns="http://www.w3.org/2000/svg" xmlns:xlink="http://www.w3.org/1999/xlink">
    <title>64</title>
    <g id="页面-1" stroke="none" stroke-width="1" fill="none" fill-rule="evenodd">
        <g id="形状库素材-节日" transform="translate(-557.000000, -740.000000)" fill="#545458">
            <path d="M607.980795,753.688794 L603.799223,753.7152 L604.498981,748.049235 L608.378771,747.864394 L607.980795,753.688794 Z M596.863886,753.756695 L596.550787,748.426463 L601.079409,748.211444 L600.398512,753.735948 L596.863886,753.756695 Z M589.540004,753.800076 L589.264628,748.771627 L593.180254,748.586785 L593.483923,753.777443 L589.540004,753.800076 Z M582.676341,753.841571 L581.565404,749.137538 L585.894096,748.931949 L586.161927,753.820824 L582.676341,753.841571 Z M574.69231,753.890611 L574.356577,749.47893 L578.136402,749.299746 L579.215274,753.862319 L574.69231,753.890611 Z M567.211879,753.935878 L566.749774,749.841069 L570.984159,749.639252 L571.310461,753.911359 L567.211879,753.935878 Z M617.109713,747.451329 L616.949391,744.080797 L612.002046,744.314678 L612.201976,741.393047 L608.835217,741.162938 L608.60888,744.476886 L604.917704,744.652297 L605.370377,740.996958 L602.022479,740.582007 L601.500018,744.814505 L596.352742,745.057817 L596.173559,741.983409 L592.804913,742.181454 L592.98221,745.218139 L589.079786,745.402981 L588.870425,741.58732 L585.501778,741.772162 L585.71114,745.563303 L580.775112,745.797184 L579.794319,741.649562 L576.512435,742.426652 L577.347995,745.959392 L574.100062,746.114056 L573.830344,742.577543 L570.467356,742.834058 L570.72953,746.274378 L566.37066,746.479967 L566.023611,743.409331 L562.67194,743.786559 L562.99447,746.640289 L557.109713,746.919438 L557.270035,750.28997 L563.373584,750.00139 L563.818713,753.95474 L559.297635,753.983032 L559.316497,757.35545 L564.199713,757.327158 L564.69011,761.674711 L568.04178,761.297483 L567.592879,757.306411 L571.566976,757.281891 L571.815946,760.539255 L575.178934,760.28274 L574.948825,757.261143 L580.011225,757.230965 L580.729844,760.273309 L584.013614,759.496219 L583.472292,757.210218 L586.346769,757.193242 L586.490116,759.784799 L589.858762,759.599957 L589.724846,757.172495 L593.681968,757.149861 L593.893215,760.744844 L597.261861,760.546799 L597.060044,757.129114 L599.981675,757.112138 L599.596903,760.224269 L602.944801,760.63922 L603.382386,757.091391 L607.750686,757.064985 L607.548869,760.041314 L610.913743,760.271423 L611.134421,757.044237 L616.387321,757.012173 L616.366574,753.639754 L611.36453,753.669933 L611.771937,747.704072 L617.109713,747.451329 L617.109713,747.451329 Z" id="64"></path>
        </g>
    </g>
</svg>
