<?xml version="1.0" encoding="UTF-8"?>
<svg width="35px" height="61px" viewBox="0 0 35 61" version="1.1" xmlns="http://www.w3.org/2000/svg" xmlns:xlink="http://www.w3.org/1999/xlink">
    <title>4</title>
    <g id="页面-1" stroke="none" stroke-width="1" fill="none" fill-rule="evenodd">
        <g id="形状库素材-节日" transform="translate(-562.000000, -238.000000)" fill="#545458">
            <path d="M579.443606,238.145279 L579.834067,240.463286 C579.834067,240.463286 580.658163,240.52741 581.550827,240.52741 C581.550827,240.150282 581.619396,239.257618 581.722884,238.158612 C582.100012,238.536375 583.369805,238.982708 583.919625,239.531893 C584.468811,240.081713 584.845939,240.768036 584.468811,241.488643 C584.231994,241.940055 583.451707,242.312739 582.477776,243.223815 C582.722211,245.466269 583.106323,248.98169 583.432025,251.224779 C583.757727,253.467868 584.784354,257.6512 585.191957,259.413672 C585.598926,261.175509 586.005895,261.095512 586.331596,259.573031 C586.643727,258.114595 586.904546,254.314467 586.925739,252.942522 L586.927097,252.782279 L586.945208,252.977734 C587.14852,255.114104 588.016591,261.24756 588.568336,262.875762 C589.138473,264.558237 589.6775,264.253487 589.83051,262.495459 C590.019709,260.296813 589.147362,251.747934 588.800073,249.893401 C588.33025,247.387465 587.949947,246.597654 587.379175,245.235167 C589.805114,247.480795 590.946023,250.008318 591.992967,252.815829 C592.933249,255.340177 594.394145,259.478431 594.798574,261.004087 C595.210254,262.556175 595.704327,264.962351 596.247806,267.429451 L596.453863,268.35592 C596.48857,268.510291 596.523454,268.664513 596.558507,268.818392 C597.271495,271.95351 596.748341,274.994663 595.891866,280.18875 C595.472199,282.739129 594.037968,292.541929 592.896425,296.191313 C592.138993,298.612808 590.545404,298.746136 590.422869,296.799544 C590.010821,290.249318 587.760113,284.431763 587.760113,284.431763 L585.614798,286.350419 C586.507463,287.453869 586.645235,289.054443 586.301121,290.029644 C587.115693,290.831518 587.617262,292.682876 587.441395,293.955843 C587.282671,295.099291 586.718883,296.02624 586.393181,296.827479 C585.637655,295.250397 584.976093,293.427609 584.080254,292.547008 C582.645388,293.782516 579.500112,293.665695 577.545901,292.6251 C576.650697,294.06695 575.53074,295.520227 575.123771,296.801448 C574.213965,294.389477 573.762553,291.853066 574.621568,290.248683 C574.777753,288.652554 575.147262,287.086264 575.95993,285.944086 C575.715495,285.383472 574.819656,284.582868 574.005719,283.621 C572.86608,286.024718 571.318202,291.3115 571.074402,294.997073 C570.829967,298.682011 569.445893,298.762643 568.224353,296.038303 C567.002812,293.314598 564.071496,282.414062 563.695002,280.18875 C563.028996,276.258742 562.009352,270.666575 562.172521,268.022867 C562.335689,265.379793 567.602789,252.376481 568.661161,249.572779 C569.720168,246.769076 570.762033,245.962758 572.065475,245.00089 C570.680132,247.72523 569.972222,251.786662 569.638267,254.299582 C569.433195,255.84238 569.012894,260.388873 569.746834,261.910719 C570.478869,263.432566 570.805206,262.711324 571.293441,260.948851 C571.817231,259.0594 572.523236,254.416403 573.003852,251.975861 C573.084484,253.658972 573.274953,257.691198 573.682556,259.132413 C574.089525,260.574263 574.57776,260.734256 575.066631,258.571799 C575.492646,256.686157 576.387215,254.062131 577.058935,251.318744 C577.64431,248.928359 577.942076,247.66809 578.247461,246.311951 C578.571258,244.874546 578.641732,244.892323 578.722999,243.12985 C578.147148,242.553999 577.70272,242.052431 577.225913,241.763554 C576.57324,241.368648 576.658951,240.373131 577.465904,239.566177 C577.808748,239.223333 578.242382,238.900806 579.443606,238.145279 Z M580.395316,289.017619 C579.66328,288.409388 579.136316,288.206222 578.472215,288.43161 C577.622723,288.719853 577.304005,289.19793 576.960526,290.39217 C579.11346,290.347092 580.395316,289.017619 580.395316,289.017619 Z M581.261949,289.017619 C581.261949,289.017619 582.54444,290.347092 584.697373,290.39217 C584.353894,289.19793 584.035176,288.719853 583.185685,288.43161 C582.521583,288.206222 581.994619,288.409388 581.261949,289.017619 Z M580.566103,242.942556 C580.044853,246.171639 579.611853,250.560677 579.700739,252.379655 C579.924857,256.933132 580.285478,256.652508 580.729906,252.459652 C580.872758,251.106688 580.685463,245.375479 580.566103,242.942556 Z" id="4"></path>
        </g>
    </g>
</svg>
