<?xml version="1.0" encoding="UTF-8"?>
<svg width="49px" height="60px" viewBox="0 0 49 60" version="1.1" xmlns="http://www.w3.org/2000/svg" xmlns:xlink="http://www.w3.org/1999/xlink">
    <title>13</title>
    <g id="页面-1" stroke="none" stroke-width="1" fill="none" fill-rule="evenodd">
        <g id="形状库素材-节日" transform="translate(-487.000000, -318.000000)" fill="#545458">
            <path d="M510.860015,327.511592 C510.860015,327.511592 511.883311,324.881213 514.587081,325.173106 C514.587081,325.173106 513.491229,327.87771 510.860015,327.511592 Z M505.789405,325.634298 C508.569901,325.654314 509.736642,327.569137 509.736642,327.569137 C506.73931,328.479845 505.789405,325.634298 505.789405,325.634298 Z M515.723798,323.627738 C517.149074,320.448598 514.738032,318.25606 514.738032,318.25606 C511.558058,319.790587 512.21607,323.408401 512.21607,323.408401 C510.133617,322.420966 507.502404,323.627738 507.502404,323.627738 C507.172981,319.790587 503.556835,319.571249 503.556835,319.571249 C502.788738,322.311714 504.761939,324.504253 504.761939,324.504253 C478.971046,343.253002 489.334106,378.25606 489.334106,378.25606 C485.094976,362.615562 498.030871,358.523212 498.030871,358.523212 C485.972325,343.467335 501.026534,342.59082 501.026534,342.59082 C497.518806,333.236044 504.580131,328.850133 504.580131,328.850133 C505.605095,338.129851 510.674871,338.694456 510.674871,338.694456 L511.697333,342.736767 L512.427902,338.694456 C517.3976,335.675442 515.789683,327.973618 515.789683,327.973618 C525.29124,328.996914 520.17476,340.836122 520.17476,340.836122 C537.130448,342.298093 526.021808,358.084538 526.021808,358.084538 C536.253933,359.838402 533.184045,376.794089 533.184045,376.794089 C543.562117,330.458884 515.723798,323.627738 515.723798,323.627738 L515.723798,323.627738 Z" id="13"></path>
        </g>
    </g>
</svg>
