<?xml version="1.0" encoding="UTF-8"?>
<svg width="38px" height="61px" viewBox="0 0 38 61" version="1.1" xmlns="http://www.w3.org/2000/svg" xmlns:xlink="http://www.w3.org/1999/xlink">
    <title>112</title>
    <g id="页面-1" stroke="none" stroke-width="1" fill="none" fill-rule="evenodd">
        <g id="形状库素材-节日" transform="translate(-160.000000, -1035.000000)" fill="#545458">
            <path d="M184.856128,1045.74601 C184.755509,1046.38299 184.188334,1047.20239 183.56635,1047.93863 C183.224682,1047.46717 182.842112,1046.83673 182.592609,1046.10867 C182.281481,1045.20092 182.800664,1044.51568 183.396471,1043.74399 C184.272592,1044.51786 184.949657,1045.15375 184.856128,1045.74601 Z M161.423902,1084.9446 C161.046786,1087.58469 160.971526,1093.31752 160.971526,1093.31752 L162.404733,1093.77017 L162.781849,1095.27864 L165.723796,1095.27864 C165.723796,1095.27864 165.120355,1093.77017 164.290316,1093.01594 C163.46055,1092.26143 163.158966,1091.28087 163.158966,1091.28087 C163.158966,1091.28087 162.404733,1084.79381 163.083434,1082.07819 C163.762407,1079.36284 165.497199,1078.03761 165.497199,1078.03761 C165.497199,1078.03761 167.005938,1089.62134 166.628821,1090.75296 C166.251705,1091.88431 167.684912,1091.73352 167.684912,1091.73352 C167.684912,1091.73352 168.137561,1093.84543 168.66547,1094.07175 C169.193651,1094.29808 171.607416,1093.84543 171.607416,1093.84543 C171.607416,1093.84543 170.325001,1091.65799 169.872352,1091.28087 C169.419703,1090.90376 168.816534,1089.47055 168.816534,1089.47055 C168.816534,1089.47055 167.458587,1078.53307 167.835704,1077.62778 C168.212821,1076.72248 171.833468,1076.34536 172.286117,1075.13848 C172.738766,1073.9316 172.965091,1072.49839 172.965091,1072.49839 C172.965091,1072.49839 177.038387,1075.13848 178.773178,1074.98769 C180.508242,1074.83689 181.941449,1074.08239 181.941449,1074.08239 C181.941449,1074.08239 184.355214,1082.68163 184.732603,1083.20981 C185.10972,1083.73772 186.165538,1084.2659 186.165538,1084.2659 C186.165538,1084.2659 187.825069,1090.97929 188.051394,1091.3564 C188.277718,1091.73352 189.484601,1092.71108 189.484601,1092.71108 L189.93725,1094.44914 L193.482638,1094.14729 C193.482638,1094.14729 191.823106,1092.11064 190.917808,1091.80878 C190.012782,1091.5072 188.504043,1087.96181 188.051394,1085.69911 C187.598745,1083.43614 188.202186,1082.53084 187.900602,1082.07819 C187.598745,1081.62554 185.863953,1079.66442 185.713161,1077.32592 C185.562097,1074.98769 185.637629,1072.95104 185.637629,1072.95104 C185.637629,1072.95104 187.221628,1074.68583 188.88116,1073.25262 C190.540691,1071.81942 194.991104,1070.91439 194.991104,1070.91439 C194.991104,1070.91439 194.086079,1073.40369 193.105248,1074.30871 C192.12469,1075.21401 190.088042,1076.49643 190.088042,1076.87354 C190.088042,1077.25066 190.389899,1078.03761 190.389899,1078.03761 L188.277718,1078.45754 C188.277718,1078.45754 189.484601,1080.56972 191.219665,1080.04154 C192.954456,1079.51363 192.728131,1077.17513 192.728131,1077.17513 C192.728131,1077.17513 196.95222,1072.04574 197.404869,1070.98992 C197.857518,1069.93383 196.801428,1068.50062 194.915572,1068.80221 C193.029988,1069.10407 188.730367,1067.89718 188.730367,1067.89718 C188.730367,1067.89718 191.294925,1063.82389 190.540691,1059.67506 C190.011146,1056.76283 188.444871,1053.3726 187.55757,1051.60891 C188.016763,1051.63536 188.564578,1051.57537 189.214102,1051.36977 C189.214102,1050.51546 188.606025,1050.11026 188.025762,1049.91611 C188.575212,1049.57444 189.146477,1049.0299 189.258276,1048.2094 C186.995304,1047.15331 186.014746,1048.58652 186.014746,1048.58652 C186.014746,1048.58652 185.636811,1048.33565 185.056002,1048.16196 C185.246333,1047.53915 185.71507,1046.95262 186.71417,1046.62895 C188.287808,1046.11931 188.653199,1044.94433 188.490954,1043.72627 C189.039041,1043.19345 189.757008,1042.17881 189.31363,1040.77096 C189.31363,1041.72125 188.597572,1042.16217 188.11411,1042.3525 C187.92078,1041.87013 187.681094,1041.42076 187.443044,1041.04964 C186.239707,1039.1736 188.5973,1037.14922 188.5973,1037.14922 C188.5973,1037.14922 184.975561,1038.66178 186.234799,1041.40794 C187.143642,1043.38978 187.801346,1045.42779 185.93076,1046.0645 C186.792429,1044.94051 185.784331,1043.9395 184.135707,1042.69717 C184.307222,1042.40377 184.453106,1042.08719 184.546908,1041.73679 C185.050003,1039.85966 184.860218,1038.57997 183.681149,1037.6275 C184.233871,1039.33939 183.923016,1040.79796 183.368657,1042.04928 C181.895639,1040.43311 181.48171,1037.00088 182.826296,1035.27864 C180.119946,1036.87082 181.353823,1040.2935 181.353823,1040.2935 C181.353823,1040.2935 180.995522,1039.77595 180.000512,1038.78094 C180.166029,1040.68343 181.534338,1042.0801 182.777759,1043.1959 C182.39628,1043.85552 181.999803,1044.44887 181.712398,1044.98332 C181.147132,1044.93806 180.221928,1044.84862 179.463059,1044.70274 C179.815089,1045.46542 180.734021,1045.77164 181.341007,1045.89353 C181.290562,1046.11222 181.278564,1046.32027 181.322738,1046.51688 C181.527248,1047.42572 181.924816,1048.0837 182.27112,1048.51453 C182.007165,1048.68577 181.762298,1048.92328 181.4888,1049.18996 C178.939513,1051.6768 180.034324,1052.95922 180.034324,1052.95922 C180.034324,1052.95922 178.632203,1054.97787 178.782995,1055.43052 C178.933787,1055.88317 179.240279,1055.90335 179.240279,1055.90335 C179.240279,1055.90335 179.678476,1057.33655 180.885359,1056.88418 C182.092241,1056.43153 183.751773,1055.60176 184.732603,1056.58232 C185.713161,1057.56288 185.939213,1060.50482 183.600981,1061.33459 C182.101512,1061.86659 180.432982,1060.05217 179.150568,1061.33459 C177.868153,1062.61673 175.756245,1062.7678 173.115883,1062.23962 C170.475793,1061.71171 166.251705,1060.12771 164.215056,1063.37124 C162.178408,1066.61477 162.404733,1068.953 162.404733,1068.953 L163.9132,1068.19877 C163.9132,1068.19877 166.176172,1071.14071 164.89403,1073.10183 C163.611615,1075.06322 160.971526,1077.02433 160.971526,1078.08042 C160.971526,1079.13651 161.801292,1082.30451 161.423902,1084.9446 L161.423902,1084.9446 Z" id="112"></path>
        </g>
    </g>
</svg>
