<?xml version="1.0" encoding="UTF-8"?>
<svg width="50px" height="61px" viewBox="0 0 50 61" version="1.1" xmlns="http://www.w3.org/2000/svg" xmlns:xlink="http://www.w3.org/1999/xlink">
    <title>19</title>
    <g id="页面-1" stroke="none" stroke-width="1" fill="none" fill-rule="evenodd">
        <g id="形状库素材-节日" transform="translate(-85.000000, -398.000000)" fill="#545458">
            <path d="M110.501984,418.146909 C107.193941,418.146909 107.193941,413.015446 110.501984,413.015446 C113.811154,413.015446 113.811154,418.146909 110.501984,418.146909 Z M105.801613,420.301246 C105.251211,421.279364 104.071616,421.927691 102.978689,421.675564 C102.263954,421.510105 101.665152,420.996847 101.266701,420.381161 C100.879505,419.782359 100.663396,419.090135 100.500189,418.394534 C102.302223,417.847508 104.145903,417.48395 106.00309,417.141777 C106.338509,418.178425 106.335132,419.354643 105.801613,420.301246 Z M98.4539068,418.980955 C98.4539068,420.37891 97.2866931,421.546124 95.8887379,421.546124 C94.4907827,421.546124 93.3224434,420.37891 93.3224434,418.980955 C93.3224434,418.944937 93.3224434,418.908918 93.3224434,418.874026 C93.3224434,417.474945 94.4907827,416.307731 95.8887379,416.307731 C97.2866931,416.307731 98.4539068,417.474945 98.4539068,418.874026 C98.4539068,418.908918 98.4539068,418.944937 98.4539068,418.980955 Z M131.890023,436.544314 C130.044092,432.349323 128.577477,427.995627 127.279697,423.603662 C125.584592,417.86214 124.774184,411.065962 120.787423,406.34308 C117.684232,402.666975 112.78351,399.088795 107.869281,398.533891 C102.907779,397.972232 96.9332648,399.824917 93.0219168,402.848192 C89.563047,405.522541 87.3468041,410.386119 86.4947493,414.585613 C85.0112509,421.899552 86.0467733,428.816166 87.2995302,436.014172 C88.1133157,440.684152 89.6350833,445.229195 91.7837922,449.454577 C93.4755206,452.781755 95.9720299,458.284656 100.360619,458.432105 C102.476686,458.503016 104.659162,456.392576 103.933171,454.403698 C105.335628,456.30028 107.66893,457.691482 109.99773,457.317793 C112.32653,456.944105 114.234367,454.326034 113.333913,452.145809 C114.495499,454.26863 117.357818,455.267009 119.587567,454.328285 C121.818443,453.389561 123.103841,450.644302 122.39811,448.329009 C123.145487,450.20533 125.585718,451.11704 127.456412,450.357282 C129.328231,449.597524 130.438041,447.41955 130.14877,445.420542 C130.51683,446.783604 132.59688,447.051489 133.590756,446.048608 C136.115404,443.500323 132.940178,438.930518 131.890023,436.544314 L131.890023,436.544314 Z" id="19"></path>
        </g>
    </g>
</svg>
