<?xml version="1.0" encoding="UTF-8"?>
<svg width="47px" height="61px" viewBox="0 0 47 61" version="1.1" xmlns="http://www.w3.org/2000/svg" xmlns:xlink="http://www.w3.org/1999/xlink">
    <title>68</title>
    <g id="页面-1" stroke="none" stroke-width="1" fill="none" fill-rule="evenodd">
        <g id="形状库素材-节日" transform="translate(-566.000000, -877.000000)" fill="#545458">
            <path d="M611.243234,933.203141 C610.981062,932.023231 608.358796,933.203141 608.358796,933.203141 C608.358796,933.203141 606.392371,927.565762 605.474633,924.287931 C603.941789,924.468362 602.718958,924.1835 601.774155,923.732422 C601.822543,923.119229 601.874212,922.535015 601.928615,922.015866 C600.865985,921.733191 600.052678,921.278285 599.428551,920.76105 C599.808823,919.654952 600.438965,917.256312 599.908607,914.654277 C602.01391,915.656763 603.376438,913.12526 602.205549,909.685588 C600.388116,910.059845 599.314278,911.075454 598.744553,911.82643 C595.735181,908.274671 584.378684,907.529709 584.378684,907.529709 C584.378684,907.529709 582.006562,907.2443 581.74439,903.179953 C581.536621,899.961718 584.780006,895.759861 586.335268,894.083492 C586.953381,895.297848 588.105679,896.621283 590.120767,896.172119 C590.090695,894.833101 589.73284,893.906068 589.246769,893.26089 C590.322248,893.813392 591.690791,894.045766 592.982787,892.895107 C591.158245,889.786772 588.71149,890.420741 587.816443,890.791992 C587.804414,890.639992 587.774616,890.497014 587.721306,890.369619 C587.630271,890.150914 587.459135,889.931116 587.239337,889.71788 C587.831752,889.346356 588.470916,889.002716 589.109806,888.705825 C589.820868,888.376949 590.554621,888.098374 591.30259,887.865454 C591.618891,888.655797 592.494802,890.067807 594.733242,890.067807 C594.828378,890.067807 594.925701,890.065346 595.026032,890.060152 C595.173111,890.052224 595.28629,889.926469 595.278636,889.77939 C595.270708,889.632312 595.141945,889.506557 594.997874,889.526787 C592.883003,889.632858 592.088832,888.414128 591.808071,887.717555 C591.866848,887.701152 591.924804,887.682289 591.983581,887.666433 C592.970758,887.407815 593.980625,887.255815 594.99678,887.185557 C596.012115,887.153845 597.037839,887.172161 598.039778,887.366261 L599.610622,887.634994 L600.015772,887.702792 C600.152189,887.716188 600.289973,887.720289 600.426936,887.729584 L601.248991,887.775785 C602.348527,887.754735 603.445603,887.601642 604.491283,887.261556 C606.567334,886.536551 608.387228,885.213663 609.671023,883.428763 C609.757137,883.309295 609.729799,883.142533 609.610332,883.056692 C609.493325,882.972491 609.331211,882.996821 609.243729,883.110001 L609.227873,883.130778 C607.992193,884.737708 606.197724,885.959992 604.267658,886.555415 C604.06399,886.614192 603.858134,886.66094 603.651732,886.704954 C604.618132,885.707935 605.797768,883.810402 604.76275,881.03641 C604.711081,880.89808 604.557168,880.827821 604.419111,880.879216 C604.28078,880.930885 604.210795,881.084799 604.26219,881.223129 C605.450849,884.408831 603.479229,886.269732 602.688066,886.861601 C602.215664,886.91409 601.739982,886.937327 601.264574,886.93186 L600.50731,886.863514 C600.381555,886.850939 600.25498,886.843831 600.129498,886.827428 L599.756061,886.751155 L598.897646,886.575371 C599.501817,886.209588 600.180074,885.644511 600.373627,884.873305 C600.409713,884.730327 600.322778,884.584615 600.1798,884.548802 C600.037642,884.515176 599.891657,884.599924 599.855844,884.742629 C599.646708,885.574799 598.638208,886.146984 598.072037,886.408883 C597.049594,886.193732 596.000633,886.135502 594.956867,886.135776 C593.864438,886.174322 592.775017,886.303358 591.709654,886.545846 C589.977242,886.958924 588.327938,887.577584 586.762561,888.465524 C587.445192,887.663152 588.24483,886.930219 589.104338,886.323861 C590.398795,885.389174 591.892272,884.745636 593.455188,884.415939 C595.116248,884.134084 596.780588,883.375727 598.028843,882.199917 C598.663632,881.620624 599.202192,880.944008 599.641787,880.213808 C600.08357,879.480329 600.43131,878.713223 600.664504,877.867111 C600.703597,877.725226 600.620489,877.578421 600.478332,877.539328 C600.339728,877.501054 600.196203,877.579788 600.153282,877.715931 L600.145901,877.739715 C599.674593,879.240027 598.781459,880.674728 597.587333,881.7133 C597.43424,881.848897 597.275953,881.977112 597.113838,882.099313 C597.320514,880.811418 596.866703,879.37289 596.842372,879.298257 C596.797264,879.15774 596.647178,879.079553 596.506387,879.126028 C596.366143,879.170862 596.28905,879.321768 596.334157,879.462012 C596.340445,879.481696 596.922199,881.328107 596.448704,882.541643 C595.498433,883.113008 594.43389,883.484532 593.307563,883.650474 C592.552759,883.789625 591.810805,884.002041 591.092634,884.277335 C590.968519,881.702092 593.135606,879.767378 593.159117,879.746875 C593.270109,879.649825 593.281045,879.480875 593.183721,879.36961 C593.086671,879.259164 592.918269,879.247955 592.807003,879.345279 C592.700931,879.437955 590.313226,881.570322 590.571298,884.491392 C589.879645,884.793204 589.214237,885.154887 588.59175,885.58136 C588.546095,885.612252 588.502628,885.645058 588.45752,885.676497 C588.415146,885.000153 588.145046,884.069293 587.106747,883.407165 C586.982086,883.328979 586.816964,883.365065 586.737957,883.48918 C586.658677,883.613294 586.695036,883.77869 586.819698,883.85797 C587.885608,884.537594 587.970083,885.537073 587.930443,886.059229 C586.98646,886.77658 586.138434,887.602188 585.40386,888.564488 C584.898927,888.348517 584.393446,888.194331 583.975174,888.138561 C582.71243,887.970432 579.708526,887.759656 579.708526,887.759656 L579.218901,887.12842 C579.218901,887.12842 578.503191,886.917917 578.250861,887.12842 C577.998257,887.338923 577.64669,889.671952 578.151897,890.976797 C578.656831,892.281642 580.48684,894.142269 580.48684,894.142269 C580.48684,894.142269 578.411335,896.892476 575.972508,900.990722 C574.354643,903.708944 573.845882,907.351192 574.759793,910.881354 C572.152837,910.24301 567.657369,909.241344 566.841601,909.707458 C566.325732,910.002162 565.522267,911.665409 566.675659,913.126354 C568.035454,914.848377 568.551869,917.35719 569.751463,919.931613 C570.905128,922.406527 572.173887,924.660822 572.173887,924.660822 C572.173887,924.660822 571.674148,926.736873 572.981179,928.708766 C574.229981,927.352252 575.436956,925.836084 574.980684,925.296705 C574.524139,924.757325 573.980932,923.545703 573.980932,923.545703 C573.980932,923.545703 568.717811,914.200739 569.668629,913.248282 C569.826916,913.089721 570.802884,914.342897 571.90324,915.46075 C571.762996,915.514879 571.652277,915.573656 571.584479,915.638447 C571.154451,916.048244 570.773086,917.855562 572.243326,918.997472 C573.976011,920.343324 575.078828,922.654756 576.860995,924.866677 C578.57427,926.992757 580.346596,928.876895 580.346596,928.876895 C580.346596,928.876895 580.359171,931.012543 582.101151,932.613186 C582.988271,930.996687 583.796383,929.23557 583.223925,928.821399 C582.651466,928.407227 581.833512,927.361274 581.833512,927.361274 C581.833512,927.361274 574.483405,919.550794 575.178065,918.398222 C575.378999,918.064425 579.004571,921.2843 580.564753,921.027049 C581.251758,920.913869 582.088029,920.30013 582.809207,919.648118 C586.837741,920.990416 591.135008,920.872862 591.135008,920.872862 C591.135008,920.872862 592.051926,924.258679 594.280797,926.618499 C595.273441,927.669647 597.219363,927.994696 599.072883,928.032423 C599.069602,929.586317 599.052926,931.165636 599.002897,931.74739 C598.892725,933.031731 603.189992,935.929564 603.189992,935.929564 C603.189992,935.929564 603.707502,932.946983 603.887112,931.822843 C604.066723,930.698976 601.361624,930.822544 601.361624,930.822544 C601.361624,930.822544 601.413019,929.585224 601.502141,927.942481 C602.698728,927.837229 603.54402,927.681402 603.54402,927.681402 C603.54402,927.681402 605.998976,933.727758 606.392371,935.038617 C606.785492,936.34975 612.160972,937.52966 612.160972,937.52966 C612.160972,937.52966 611.505405,934.383324 611.243234,933.203141" id="68"></path>
        </g>
    </g>
</svg>
