<?xml version="1.0" encoding="UTF-8"?>
<svg width="61px" height="54px" viewBox="0 0 61 54" version="1.1" xmlns="http://www.w3.org/2000/svg" xmlns:xlink="http://www.w3.org/1999/xlink">
    <title>snowflake-svgrepo-com的副本2</title>
    <g id="页面-1" stroke="none" stroke-width="1" fill="none" fill-rule="evenodd">
        <g id="形状库素材-节日" transform="translate(-319.000000, -808.000000)" fill="#545458" fill-rule="nonzero">
            <g id="snowflake-svgrepo-com的副本2" transform="translate(319.846284, 808.056126)">
                <path d="M55.7356638,21.9280512 L55.7356638,21.9280512 C54.6121011,21.9466481 53.5660255,22.397623 52.7865055,23.2019388 C52.1185669,23.8884744 51.734231,24.7656281 51.6427962,25.701672 L43.4198673,25.701672 L50.1860391,18.9355002 C50.5006367,18.6224524 50.5006367,18.1094879 50.1860391,17.7948904 C49.8745411,17.4818426 49.3600268,17.4818426 49.0454293,17.7948904 L41.1370979,25.7032218 L37.5897394,25.7032218 L42.1211838,19.5042554 L34.4918059,20.3364666 L36.2678098,17.2602296 L47.067959,14.366862 C47.4972374,14.2521811 47.7529448,13.808955 47.6382639,13.3796766 C47.5251328,12.9488484 47.080357,12.7008898 46.6510785,12.8078219 L37.4068699,15.284309 L41.5276328,8.15239817 C42.0653931,8.39415786 42.6372478,8.55533099 43.2276993,8.55533099 C44.6968544,8.55533099 46.0776741,7.77271148 46.8323983,6.51122182 C48.0164009,4.52755258 47.3639597,1.94568307 45.3802904,0.757031266 C43.4632601,-0.386678034 40.7667097,0.301407236 39.6260999,2.20913914 C39.055795,3.17152868 38.8853234,4.29974056 39.1642769,5.38765916 C39.3378479,6.09434133 39.7082362,6.71733745 40.194855,7.23185167 L36.0105527,14.4784434 L33.5325159,5.232685 C33.4193848,4.8003071 32.9777084,4.55699767 32.5453305,4.66083035 C32.1145023,4.77551123 31.858795,5.21873733 31.9750256,5.64956549 L34.8683932,16.4528142 L33.0908395,19.5275015 L29.9960056,12.5025228 L26.8980721,19.5275015 L25.123618,16.4543639 L28.0185353,5.6573142 C28.1347659,5.22493629 27.8790585,4.78635942 27.4466806,4.66857906 C27.018952,4.56319663 26.5757259,4.80960555 26.4594952,5.24043371 L23.9830082,14.4815429 L19.8513971,7.32328642 C21.3314003,6.03390141 21.7482808,3.83016886 20.7285508,2.06346343 C19.6158363,0.137134626 16.9378829,-0.592793667 14.9976064,0.530768992 C12.9953402,1.68532648 12.307255,4.25789754 13.4618124,6.26016368 C14.2087879,7.55574766 15.6035553,8.36006355 17.1006057,8.36006355 C17.5593292,8.36006355 18.0056548,8.26088009 18.4411322,8.11055515 L22.5835915,15.284309 L13.3440321,12.8078219 C12.9163034,12.705539 12.4699778,12.9503982 12.3552969,13.3796766 C12.2406161,13.8136042 12.4963234,14.2537308 12.9271516,14.3699615 L23.7257511,17.263329 L25.5017549,20.3395661 L17.872377,19.5073549 L22.4038215,25.701672 L18.8518137,25.701672 L10.9434824,17.7948904 C10.6288848,17.4818426 10.1174701,17.4818426 9.80287254,17.7948904 C9.48672525,18.1094879 9.48672525,18.6224524 9.80287254,18.9355002 L16.5674946,25.7001223 L8.19888998,25.7001223 C7.67507732,23.9737102 6.07109477,22.6998226 4.13546751,22.6998226 C4.13546751,22.6998226 4.13546751,22.6998226 4.13391777,22.6998226 C1.82325304,22.7354666 -0.0302379088,24.6478478 0.00037378803,26.9647114 C0.0348512383,29.2412819 1.91778728,31.0963225 4.19590743,31.0963225 L4.26099658,31.0963225 C6.40893843,31.063778 8.13845006,29.4086539 8.3523144,27.321152 L16.5705941,27.321152 L9.80597202,34.0826746 C9.48982473,34.3972721 9.48982473,34.9086869 9.80597202,35.2232844 C9.96404566,35.3813581 10.1701613,35.4588451 10.3778267,35.4588451 C10.5839423,35.4588451 10.7916077,35.3782586 10.9496813,35.2232844 L18.856463,27.3196023 L22.4084707,27.3196023 L17.8739268,33.5154692 L25.5048544,32.6848077 L23.7334998,35.753296 L12.9256019,38.6528626 C12.4947737,38.7690932 12.2390663,39.2092198 12.3537472,39.6431475 C12.4699778,40.0739756 12.9163034,40.323484 13.3424823,40.2134524 L22.5882407,37.7338658 L18.4752265,44.8611274 C16.6031387,44.0444136 14.2196361,44.749546 13.1627123,46.5116022 C12.5877582,47.4739918 12.4219358,48.6022036 12.6962401,49.6901222 C12.9705444,50.7749414 13.6508809,51.6892889 14.6148202,52.2657928 C15.2641619,52.6547779 16.0064882,52.8593438 16.7612123,52.8593438 C18.2303673,52.8593438 19.6127369,52.078274 20.367461,50.8167844 C20.9424151,49.8528451 21.1066878,48.726183 20.8323835,47.6382644 C20.6541632,46.9300325 20.2884242,46.3085861 19.8018053,45.7894226 L23.9861076,38.5443807 L26.4625947,47.7839401 C26.5586787,48.1419304 26.8841244,48.3821403 27.240565,48.3821403 C27.3103034,48.3821403 27.3800417,48.3697424 27.4497801,48.3526952 C27.8806083,48.2380144 28.1363156,47.7932385 28.0216348,47.3639601 L25.1282672,36.5653606 L26.9042711,33.4906733 L30.0006548,40.5141022 L33.0954888,33.4906733 L34.8714926,36.5591617 L31.9781251,47.3562114 C31.8634442,47.790139 32.1176018,48.2287159 32.54843,48.3464963 C32.6181684,48.3650932 32.6894565,48.3774911 32.7576451,48.3774911 C33.1171851,48.3774911 33.4379817,48.1388309 33.5371651,47.7792909 L36.0136522,38.5335325 L40.146813,45.6948884 C38.6668098,46.9858232 38.2499293,49.1864562 39.2681096,50.9531616 C40.015085,52.2487456 41.4114022,53.0515118 42.9069028,53.0515118 C43.6399306,53.0515118 44.3636599,52.8577941 45.0006037,52.4889556 C45.9753912,51.9263994 46.6665759,51.0259995 46.9563776,49.9411804 C47.247729,48.857911 47.0974041,47.7250499 46.5379474,46.7564614 C45.5631599,45.0641436 43.379574,44.300121 41.5493292,44.8952217 L37.4099694,37.7292166 L46.6572775,40.2119026 C47.0881057,40.3203845 47.529782,40.0693264 47.6460126,39.6415977 C47.7591438,39.2061203 47.5018867,38.7690932 47.074158,38.6513128 L36.2693596,35.7548458 L34.4949054,32.6817082 L42.1304823,33.5123697 L37.5928389,27.3196023 L41.1479461,27.3196023 L49.0500785,35.2263839 C49.2112516,35.3844575 49.4173673,35.4619446 49.6219332,35.4619446 C49.8280488,35.4619446 50.0357142,35.3813581 50.1922381,35.2263839 C50.5083854,34.9117864 50.5083854,34.4003716 50.1922381,34.0857741 L43.4322652,27.321152 L51.8024196,27.321152 C52.3246825,29.0475642 53.9209164,30.3245512 55.8054022,30.3245512 L55.8689416,30.3245512 C58.181156,30.2889072 60.034647,28.376526 59.9995085,26.0658613 C59.9587096,23.7830919 58.0819726,21.9280512 55.7356638,21.9280512 Z M40.7295159,4.99092531 C40.560594,4.32143694 40.6613272,3.62560297 41.0146683,3.03515142 C41.4857898,2.24788268 42.3149015,1.77676124 43.235448,1.77676124 C43.2695424,1.77676124 43.3020869,1.78915917 43.3361812,1.79225865 C43.7623602,1.80775607 44.1823402,1.92088721 44.5542781,2.14250026 C44.6503621,2.20294018 44.7324984,2.27422829 44.8223834,2.34396666 C45.8250663,3.13278514 46.1195172,4.56009715 45.448479,5.68211007 C44.819284,6.73283487 43.4617103,7.18380968 42.3272995,6.77157841 C42.1816238,6.71733745 42.0390475,6.65534779 41.90422,6.57631097 C41.5524287,6.36399637 41.2703757,6.07264495 41.0596108,5.73480128 C40.9185844,5.50388978 40.7977045,5.26058035 40.7295159,4.99092531 Z M14.8627789,5.45119857 C14.2893745,4.4578142 14.466045,3.23816757 15.2021723,2.43075219 C15.3757433,2.23858423 15.5710108,2.06191369 15.8081212,1.92708617 C16.037483,1.79535814 16.2838919,1.71012235 16.541149,1.65278191 C16.7224688,1.61403837 16.9084378,1.57839431 17.0944068,1.57839431 C18.016503,1.57839431 18.8750599,2.07431162 19.3337834,2.86932906 C19.905638,3.85651446 19.7351664,5.06221343 19.0145366,5.8696288 C18.8363163,6.07109521 18.6333002,6.25086523 18.388441,6.3949912 C18.1451316,6.53446795 17.8801257,6.61815399 17.6104707,6.66774572 C16.5581962,6.85991368 15.4067382,6.3949912 14.8627789,5.45119857 Z M1.65433121,27.2638116 C1.63883379,27.1584291 1.61868715,27.0483975 1.61713741,26.9368161 C1.61093844,26.4889408 1.72871881,26.0720603 1.92553599,25.7001223 C2.35481441,24.8927069 3.19477436,24.3270512 4.19590743,24.3131036 C5.17999335,24.3131036 6.03545071,24.8834085 6.46937836,25.7001223 C6.65534735,26.0519136 6.77312771,26.4377993 6.77932668,26.8577793 C6.78087642,27.0143032 6.76382926,27.1646281 6.74058314,27.314953 C6.54066647,28.520652 5.5023396,29.4535964 4.23620071,29.4768426 L4.19745717,30.2796087 L4.19745717,29.4768426 C2.90652242,29.4768426 1.83875046,28.5098038 1.65433121,27.2638116 Z M19.2671445,48.0272495 C19.4360663,48.6967379 19.3337834,49.3941216 18.9804423,49.9845731 C18.5093208,50.7687424 17.6786593,51.2383141 16.7596626,51.2383141 C16.727118,51.2383141 16.6945734,51.2259162 16.6604791,51.2243664 C16.2327504,51.2073193 15.8127705,51.0957379 15.4423822,50.8741248 C15.3447485,50.8152346 15.2610624,50.7439465 15.1742769,50.6757579 C14.7279513,50.3239666 14.4025056,49.8481959 14.2630289,49.2887392 C14.0956568,48.6192508 14.19639,47.9265163 14.5512808,47.3329653 C15.0224022,46.5441468 15.851514,46.0745751 16.7720605,46.0745751 C17.0804591,46.0745751 17.3780095,46.1536119 17.6662614,46.2574446 C17.8103874,46.3116856 17.9576128,46.3581778 18.0924403,46.4403141 C18.4457814,46.651079 18.7262847,46.9424304 18.9385993,47.2802741 C19.0796257,47.514285 19.1989558,47.7575945 19.2671445,48.0272495 Z M42.8945049,46.272942 C43.8181509,46.272942 44.6720585,46.7688593 45.1323318,47.5654265 C45.4779241,48.162077 45.5693589,48.857911 45.3895889,49.5242999 C45.2795572,49.9334317 45.0687924,50.291422 44.7898389,50.5920719 C44.6178176,50.7811403 44.4210004,50.9578109 44.1838899,51.0910887 C43.9560779,51.2243664 43.7081192,51.3034033 43.4555114,51.352995 C42.3939384,51.5715085 41.2130353,51.1050363 40.6613272,50.147296 C40.0894726,49.1616604 40.2599442,47.9590609 40.9790243,47.1469963 C41.1541451,46.9455299 41.358711,46.7657598 41.6051199,46.6231836 C41.8437801,46.4821571 42.1087859,46.3984711 42.3768912,46.3426804 C42.5489125,46.3085861 42.7209338,46.272942 42.8945049,46.272942 Z M32.500388,30.8421649 L32.0959054,31.7611617 L29.999105,36.5126694 L27.9038544,31.7565125 L27.5009216,30.8421649 L26.5059875,30.9490971 L21.339149,31.5116533 L24.4107368,27.3165028 L24.9996387,26.5121869 L24.4076374,25.701672 L21.339149,21.5065215 L26.5044377,22.0690777 L27.4978221,22.1744602 L27.9007549,21.2616624 L29.999105,16.5055054 L32.0943557,21.2616624 L32.4972885,22.1775596 L33.4922226,22.0690777 L38.6575114,21.5065215 L35.589023,25.701672 L34.9985714,26.5121869 L35.5859235,27.3165028 L38.6559616,31.5116533 L33.4891231,30.9490971 L32.500388,30.8421649 Z M53.5226328,27.3165028 C53.3382135,26.9662612 53.2235326,26.5803755 53.2157839,26.1588458 C53.2142342,26.0038717 53.2328311,25.8535467 53.2529777,25.701672 C53.3366638,25.1856081 53.5737742,24.7098374 53.9426128,24.3239518 C54.4230326,23.8280344 55.0677252,23.5506307 55.8038524,23.5413323 C57.0854887,23.5413323 58.1563602,24.5099207 58.3392297,25.7512638 C58.3547271,25.8612954 58.3717742,25.9713271 58.3748737,26.0813587 C58.3810727,26.5261346 58.2632923,26.9430151 58.0726741,27.314953 C57.6433957,28.1223684 56.8127342,28.6880241 55.8332975,28.7035215 L55.7976534,29.5047379 L55.7976534,28.7035215 C54.8120178,28.706621 53.9581102,28.1378658 53.5226328,27.3165028 Z" id="形状"></path>
            </g>
        </g>
    </g>
</svg>
