<?xml version="1.0" encoding="UTF-8"?>
<svg width="49px" height="61px" viewBox="0 0 49 61" version="1.1" xmlns="http://www.w3.org/2000/svg" xmlns:xlink="http://www.w3.org/1999/xlink">
    <title>33</title>
    <g id="页面-1" stroke="none" stroke-width="1" fill="none" fill-rule="evenodd">
        <g id="形状库素材-节日" transform="translate(-402.000000, -478.000000)" fill="#545458">
            <path d="M444.877375,515.317624 C444.696174,517.317272 444.358432,519.290115 443.990668,521.258669 C443.585377,523.427724 442.790879,525.47026 441.69831,527.387348 C440.923112,528.745822 439.915246,529.908084 438.671497,530.876278 C436.82839,532.309806 434.792288,533.326249 432.517085,533.848409 C431.450249,534.09287 430.382341,534.340547 429.304783,534.522821 C428.490985,534.660062 427.661104,534.742621 426.835512,534.76621 C425.28726,534.808025 423.736862,534.809098 422.187537,534.791942 C419.123198,534.759776 416.206821,534.055343 413.435191,532.763345 C411.505236,531.863772 409.944117,530.505298 408.692863,528.790854 C407.960552,527.786206 407.512374,526.635738 407.092073,525.482054 C406.418733,523.637875 406.088496,521.721858 405.9341,519.768315 C405.805436,518.136431 405.825808,516.51098 405.956616,514.884457 C405.995215,514.406257 406.059547,513.928057 406.146395,513.45629 C406.224665,513.029555 406.479848,512.74864 406.974131,512.646781 C407.014875,512.734701 407.052401,512.831199 407.087784,512.930913 C407.087784,512.930913 407.087784,512.930913 407.087784,512.931985 C407.288285,513.489528 407.420165,514.199323 407.422309,514.775092 C407.577778,515.618912 407.733247,516.463803 407.891932,517.30655 C407.955191,517.647509 408.045256,517.983107 408.119238,518.322993 C408.484857,519.999909 409.237539,521.494552 410.317242,522.815499 C410.66785,523.246523 410.80402,523.665752 410.723605,524.209356 C410.606735,525.003854 410.572425,525.804785 410.791153,526.597139 C410.949838,527.172909 411.248981,527.665047 411.648911,528.096071 C411.837618,528.103576 412.009169,528.268694 412.220392,528.137886 C412.501308,527.965263 412.743624,527.758329 412.8487,527.444175 C413.026684,526.916654 413.177864,526.380555 413.339766,525.846601 C413.383726,525.700782 413.384798,525.52387 413.637837,525.486343 C413.82011,525.886272 413.918752,526.323729 414.027044,526.755824 C414.039911,526.809434 414.043127,526.868405 414.042055,526.926304 C414.184657,527.27584 414.343343,527.61251 414.526688,527.938458 C414.7229,528.289066 414.952351,528.616086 415.246133,528.89593 C415.320114,528.966695 415.39624,529.013872 415.475583,529.050326 C415.593524,529.014944 415.694311,528.981706 415.789737,528.963478 C416.435199,528.834815 416.912327,528.48099 417.175015,527.878415 C417.365866,527.440958 417.510613,526.984202 417.674659,526.534952 C417.746497,526.338739 417.815117,526.142527 417.885882,525.946315 C418.218263,526.01708 418.247213,526.288346 418.330844,526.494208 C418.475591,526.85125 418.607471,527.216869 418.707185,527.587849 C418.900181,527.979201 419.10497,528.365192 419.299038,528.756544 C419.490961,529.14468 419.75365,529.475989 420.053865,529.786926 C420.369091,530.112874 420.740071,530.190072 421.153939,530.074275 C421.840145,529.881279 422.433071,529.542465 422.8523,528.940962 C423.016346,528.704007 423.161092,528.457401 423.290828,528.202218 C423.290828,528.13467 423.300478,528.068194 423.322994,528.011367 C423.49669,527.571766 423.627498,527.110721 423.964168,526.536024 C424.096048,526.869477 424.173247,527.032451 424.226857,527.20293 C424.34587,527.584633 424.452018,527.970624 424.564599,528.353398 C424.746872,528.976345 425.008488,529.553187 425.500627,530.001365 C425.543515,530.042109 425.563886,530.105368 425.586403,530.161123 C425.866246,530.317663 426.168606,530.314447 426.578185,530.165411 C427.276185,529.910228 427.833728,529.469555 428.265823,528.865908 C428.411642,528.663263 428.532801,528.448824 428.647526,528.231168 C428.646453,528.176485 428.651814,528.120731 428.671114,528.072482 C428.872687,527.561044 429.082838,527.053895 429.328371,526.45132 C429.688629,526.987419 429.646813,527.544961 429.86983,528.009223 C430.089631,528.46169 430.291204,528.925951 430.517438,529.424523 C430.777982,529.692572 431.059969,529.68185 431.588563,529.483494 C432.168621,529.265838 432.60715,528.893785 432.876271,528.34482 C433.076772,527.938458 433.234385,527.511723 433.407009,527.092494 C433.476702,526.922015 433.536745,526.746174 433.632171,526.492064 C433.779062,526.864116 433.894859,527.151465 434.009584,527.440958 C434.169341,527.844104 434.398792,528.20329 434.708657,528.50565 C434.993861,528.784421 435.253333,528.814443 435.488144,528.596787 C435.495649,528.557116 435.502082,528.517444 435.522454,528.48635 C436.330891,527.257612 436.689005,525.858395 437.041758,524.459178 C437.094295,524.251171 437.138255,524.041021 437.210093,523.839448 C437.377355,523.37197 437.602517,523.155386 438.176142,522.929152 C439.102521,522.331938 439.816604,521.508491 440.423468,520.594979 C441.047487,519.656806 441.542842,518.65323 441.918111,517.588538 C442.295524,516.521702 442.650421,515.44736 442.960286,514.362296 C442.968864,514.318336 442.976369,514.273304 442.983875,514.229344 C443.185448,513.126053 443.452425,512.036701 443.692597,510.940915 C443.741918,510.716826 443.86951,510.555996 444.10861,510.504531 C444.422763,510.434838 444.637203,510.547419 444.731556,510.847634 C444.771227,510.974153 444.801249,511.107106 444.813043,511.238986 C444.933129,512.596388 445.00175,513.948428 444.877375,515.317624 Z M409.786504,518.161091 C409.849764,517.822277 409.921601,517.479174 410.045976,517.158587 C410.985221,514.741854 412.073501,512.399103 413.538122,510.249348 C414.0056,509.56207 414.536338,508.930545 415.187162,508.408385 C415.730766,507.972001 416.314041,507.601021 416.99167,507.40052 C417.410899,507.276145 417.488097,507.266495 418.057434,507.343693 C418.17752,507.340477 418.296534,507.331899 418.418764,507.339405 C419.362298,507.388726 420.10533,507.773645 420.599613,508.607814 C421.16895,509.570647 421.463804,510.612823 421.544219,511.71933 C421.574241,512.117116 421.54958,512.519189 421.54958,512.919119 C421.577457,514.263654 421.32978,515.572807 421.077813,516.885177 C420.844074,518.108554 420.553509,519.315848 420.210406,520.511348 C420.2029,520.814779 420.110691,521.102128 419.977739,521.376611 C419.901613,521.534224 419.767588,521.693981 419.618553,521.781901 C419.32906,521.951308 419.126414,521.958814 418.99239,521.851594 C418.985956,521.845161 418.976307,521.8398 418.969874,521.832295 C418.87552,521.741158 418.818694,521.587834 418.798322,521.379827 C418.660009,519.944155 418.351216,518.538505 417.978091,517.148937 C417.832272,516.610694 417.637132,516.083173 417.423765,515.568518 C417.185737,514.992748 416.836201,514.493105 416.292597,514.153218 C416.267937,514.139279 416.247565,514.115691 416.222904,514.087814 C416.125334,514.040637 416.024548,513.998822 415.915184,513.966656 C415.670723,513.899107 415.446633,513.901252 415.224689,514.038493 C414.747561,514.332275 414.260783,514.608902 413.861926,515.014192 C413.096377,515.792608 412.299735,516.538857 411.576001,517.356943 C411.284364,517.778317 410.94555,518.162163 410.578858,518.529927 C410.519887,518.58997 410.455555,518.636075 410.388007,518.667168 C410.300087,518.720778 410.198228,518.718634 410.10173,518.674674 C410.094225,518.671457 410.08672,518.672529 410.079214,518.668241 C409.859414,518.573887 409.7404,518.410913 409.786504,518.161091 Z M423.277962,521.462386 C423.777606,520.30763 424.178608,519.120708 424.578537,517.932713 C424.677179,517.641076 424.873391,517.464163 425.139296,517.361232 C425.218639,517.270095 425.337653,517.222919 425.473822,517.205764 C425.689334,517.178959 425.841586,517.267951 425.893051,517.477029 C425.938083,517.657159 425.97561,517.842649 425.991693,518.027067 C426.083902,519.114275 426.176111,520.201483 426.252237,521.289763 C426.267248,521.496697 426.238299,521.715425 426.177183,521.912709 C426.141801,522.022073 426.012065,522.125004 425.900556,522.181831 C425.886618,522.189336 425.871607,522.196842 425.857668,522.205419 C425.844802,522.212925 425.830864,522.22043 425.816925,522.226863 C425.676467,522.300845 425.531721,522.369465 425.367674,522.368393 C425.21435,522.401631 425.053521,522.416642 424.899124,522.404848 C424.446657,522.366249 424.003839,522.265462 423.583538,522.086405 C423.252229,521.943803 423.142865,521.772251 423.277962,521.462386 Z M429.136448,519.588186 C429.585698,517.088894 430.175407,514.62284 430.890562,512.186808 C431.139312,511.339773 431.426661,510.506675 431.831951,509.719683 C431.978842,509.436622 432.135383,509.15249 432.326234,508.898379 C432.944892,508.074932 433.752257,507.686797 434.679707,507.628898 C434.879136,507.439119 435.078565,507.476646 435.262983,507.500234 C436.024243,507.602093 436.622529,507.999878 437.044974,508.616392 C437.450265,509.209317 437.846978,509.821541 438.14076,510.474509 C438.59966,511.495241 438.973857,512.554572 439.373787,513.602109 C439.698662,514.449144 440.016033,515.299397 440.321609,516.152866 C440.493161,516.629994 440.659351,517.110338 440.783726,517.600332 C440.853419,517.875887 440.828758,518.139647 440.604669,518.32621 C440.496377,518.477389 440.337692,518.598548 440.137191,518.665024 C440.023538,518.702551 439.923824,518.671457 439.832687,518.615703 C439.651486,518.504194 439.474573,518.384108 439.297661,518.26295 C438.635043,517.812627 437.973497,517.362304 437.311951,516.909837 C436.713665,516.500258 436.060697,516.193609 435.401296,515.904116 C435.134319,515.787247 434.84697,515.711121 434.562838,515.640356 C434.180063,515.543858 433.859476,515.636067 433.565694,515.892322 C433.542106,515.942715 433.522806,515.975953 433.497074,516.002758 C433.030668,516.490608 432.687565,517.062089 432.364833,517.647509 C431.756898,518.745439 431.155395,519.847657 430.539954,520.941299 C430.35768,521.266174 430.156107,521.583545 429.93309,521.881616 C429.774405,522.093911 429.57176,522.167892 429.344454,522.138943 C429.261895,522.141087 429.193274,522.126077 429.139664,522.089622 C429.116076,522.081044 429.091415,522.073539 429.067827,522.062817 C429.067827,522.043517 429.065683,522.023146 429.06461,522.003846 C429.024939,521.940586 428.999206,521.854811 428.987412,521.740086 C428.972401,521.5814 428.970257,521.420571 428.956318,521.147161 C429.006712,520.701126 429.037805,520.137151 429.136448,519.588186 Z M450.020705,509.336908 C448.952797,504.486288 446.466371,500.508436 442.613967,497.379765 C442.447776,497.24574 442.275152,497.114932 442.089662,497.013073 C441.737982,496.819006 441.359496,496.887626 441.194378,497.243596 C441.174006,497.287556 441.147201,497.327227 441.124685,497.370115 C439.091799,495.641733 436.93561,494.081686 434.644325,492.713562 C433.428453,491.988757 432.197571,491.289684 430.960255,490.603478 C430.609647,490.410483 430.361969,490.17996 430.262255,489.786464 C430.130374,489.268593 429.9674,488.761443 429.837665,488.243572 C429.62537,487.404042 429.597492,486.548428 429.719723,485.696032 C429.866614,484.669939 430.30407,483.759643 430.922728,482.932979 C431.098569,482.697096 431.288347,482.471935 431.462043,482.236051 C431.901644,481.631332 431.915583,481.302167 431.486704,480.713531 C431.284059,480.433688 431.041742,480.181721 430.808003,479.925466 C430.519582,479.611312 430.21615,479.311097 429.928801,478.994799 C429.524583,478.550909 429.273689,478.501588 428.739735,478.800731 C426.577113,480.005881 425.042799,481.754635 424.180752,484.083447 C423.642509,485.537346 423.498835,487.042711 423.589971,488.57917 C423.616776,489.029493 423.636076,489.479816 423.659664,489.933355 C423.376604,490.112412 423.133215,490.27753 422.881249,490.424421 C421.337285,491.334717 419.86623,492.353304 418.415548,493.402985 C416.85014,494.533081 415.483088,495.890483 414.069932,497.195347 C413.905886,497.345454 413.771861,497.532017 413.648559,497.721796 C413.427686,497.727157 413.203597,497.798994 412.974147,497.968401 C412.845483,498.062754 412.700736,498.135664 412.568856,498.225728 C411.702521,498.810076 410.899445,499.472694 410.143546,500.19321 C407.613161,502.605654 405.674628,505.426605 404.350464,508.663568 C403.256823,511.337628 402.677837,514.123197 402.614577,517.011696 C402.580267,518.595331 402.760396,520.160739 403.088488,521.705775 C404.063116,526.276552 406.306152,530.121451 409.840114,533.17078 C413.809388,536.59645 418.495962,538.27015 423.693974,538.577871 C425.514565,538.687235 427.326579,538.522116 429.119292,538.209035 C432.012081,537.70403 434.744039,536.731547 437.313024,535.301236 C441.171861,533.153625 444.325193,530.244754 446.695821,526.519941 C449.14472,522.668608 450.505338,518.475245 450.461378,513.48095 C450.509627,512.342277 450.34987,510.829407 450.020705,509.336908 L450.020705,509.336908 Z" id="33"></path>
        </g>
    </g>
</svg>
