<?xml version="1.0" encoding="UTF-8"?>
<svg width="61px" height="61px" viewBox="0 0 61 61" version="1.1" xmlns="http://www.w3.org/2000/svg" xmlns:xlink="http://www.w3.org/1999/xlink">
    <title>snowflake-svgrepo-com的副本</title>
    <g id="页面-1" stroke="none" stroke-width="1" fill="none" fill-rule="evenodd">
        <g id="形状库素材-节日" transform="translate(-712.000000, -801.000000)" fill="#545458" fill-rule="nonzero">
            <g id="snowflake-svgrepo-com的副本" transform="translate(712.419187, 801.634718)">
                <path d="M58.4801176,28.5835462 L56.1102083,28.5835462 L57.925415,26.7083444 C58.5073881,26.1069789 58.4918338,25.1478646 57.8906703,24.5660935 C57.2891028,23.9839183 56.3299885,23.9994726 55.7484194,24.6008381 L51.8927717,28.5835462 L49.0812819,28.5835462 L50.8674001,26.6956182 C51.4425051,26.0877885 51.4158406,25.1288762 50.8080109,24.5539732 C50.1999793,23.9792722 49.241471,24.0051287 48.666366,24.6133624 L44.9097002,28.5835462 L42.3133446,28.5835462 L45.6680227,24.9446487 C45.9381019,24.6517431 46.0690004,24.280864 46.0673844,23.911601 C46.0675864,23.9023088 46.0690004,23.8934206 46.0690004,23.8841284 C46.0752625,23.0474284 45.4023876,22.4002081 44.5656877,22.3935419 L39.927477,22.3529392 L41.5748185,20.7053957 L46.9658975,20.7053957 C47.8027995,20.7053957 48.4809265,20.0272687 48.4809265,19.1903667 C48.4809265,18.3534647 47.8027995,17.6753378 46.9658975,17.6753378 L44.6052804,17.6753378 L46.625319,15.6552992 L52.015994,15.6552992 C52.852896,15.6552992 53.531023,14.9771722 53.531023,14.1402702 C53.531023,13.3033682 52.852896,12.6252413 52.015994,12.6252413 L49.6553769,12.6252413 L51.280498,11.0001202 C51.8721673,10.4082489 51.8721673,9.44913457 51.280498,8.85746527 C50.6888287,8.26619997 49.7297143,8.26579596 49.137843,8.85746527 L47.462423,10.5328853 L47.4195982,7.88865475 C47.4062659,7.06043893 46.730563,6.3631216 45.9053773,6.3631216 C45.8968931,6.3631216 45.8886109,6.3631216 45.8801268,6.3631216 C45.0434268,6.3631216 44.37641,7.11013188 44.3899443,7.94683186 L44.479634,13.5154723 L42.491512,15.5035943 L42.4198006,12.9060266 C42.3967722,12.0695286 41.7010709,11.4162482 40.8635629,11.4334185 C40.0270649,11.4564469 39.3679263,12.1535623 39.3909548,12.9896562 L39.5420537,18.4532546 L37.8021944,20.1931139 L37.7535115,15.6664094 C37.8048205,15.2452313 37.6811941,14.8050649 37.3739462,14.4661024 C36.8117695,13.8457486 35.8203345,13.7986817 35.2003847,14.3600504 L31.344535,17.8217906 L31.344535,14.9842423 L35.3484535,11.2279806 C35.9562831,10.6528756 35.999714,9.69396325 35.424609,9.08613364 C34.849302,8.47810202 33.8651392,8.45163951 33.2577136,9.0267445 L31.344535,10.8128626 L31.344535,8.0011709 L35.3609778,4.14572523 C35.9621412,3.5637521 35.9944619,2.60463777 35.4124887,2.00347429 C34.8309196,1.4025128 33.8465548,1.38635249 33.2449873,1.96872962 L31.344535,3.78393631 L31.344535,1.51502895 C31.344535,0.678126959 30.666408,0 29.829506,0 C28.9926041,0 28.3144771,0.678126959 28.3144771,1.51502895 L28.3144771,3.64172559 L26.6923861,1.98610195 C26.1007168,1.39423064 25.1583688,1.39443265 24.5666995,1.98589995 C23.9748282,2.57756926 23.9495777,3.53688559 24.541247,4.12835289 L28.3144771,7.92703549 L28.3144771,10.7118607 L26.6923861,9.05623707 C26.1007168,8.46436575 25.1583688,8.46456776 24.5666995,9.05603506 C23.9748282,9.64770437 23.9495777,10.6070207 24.541247,11.198488 L28.3144771,14.9971706 L28.3144771,17.6272609 L24.9387906,14.3307599 C24.3370211,13.7487867 23.3946731,13.764947 22.813508,14.3669186 C22.4785856,14.7131532 22.3515251,15.1779641 22.4105103,15.6207565 L22.2682995,20.0294908 L20.6385324,18.4290142 L20.6385324,13.029249 C20.6385324,12.192347 19.9604054,11.51422 19.1235035,11.51422 C18.2866015,11.51422 17.6084745,12.192347 17.6084745,13.029249 L17.6084745,15.3987543 L15.5884359,13.3787157 L15.5884359,7.97915248 C15.5884359,7.14225049 14.9103089,6.46412353 14.0734069,6.46412353 C13.236505,6.46412353 12.558378,7.14225049 12.558378,7.97915248 L12.558378,10.3486578 L10.9673956,8.72394072 C10.3757263,8.13267542 9.43358028,8.13227141 8.84150696,8.72394072 C8.24983766,9.31581203 8.25832182,10.2749264 8.84999112,10.8665957 L10.4926865,12.505049 L7.9225914,12.5640341 C7.08589141,12.5775684 6.41988468,13.3080143 6.43341894,14.1443103 C6.4467512,14.9725261 7.12346413,15.6550972 7.9488519,15.6550972 C7.95713406,15.6550972 7.96541622,15.6550972 7.97390038,15.6550972 L13.5241584,15.5328848 L15.5042003,17.5129267 L12.9066326,17.58484 C12.0701347,17.6078685 11.4109961,18.3047818 11.4340245,19.1410778 C11.4566489,19.9632335 12.1303318,20.6142919 12.9476394,20.6142919 C12.9617797,20.6142919 12.976122,20.6140899 12.9902622,20.6136859 L18.4538607,20.462385 L20.3593631,22.3680895 L15.6643893,22.4731315 C15.2496754,22.4846457 14.7418377,22.5919097 14.3970171,22.919964 C13.7903995,23.496483 13.7661591,24.4553953 14.3426781,25.0618109 L14.3737867,25.0945356 C14.4061073,25.1321083 14.4398419,25.167459 14.4753946,25.2013956 L17.6900841,28.5835462 L14.9844444,28.5835462 L11.2279806,24.6133624 C10.6526736,24.0051287 9.69376125,23.9788682 9.08613364,24.5539732 C8.47830402,25.1290782 8.45163951,26.0879905 9.0267445,26.6956182 L10.8128626,28.5835462 L8.00137291,28.5835462 L4.14572523,24.6006361 C3.56415611,23.9994726 2.60504178,23.9835143 2.00347429,24.5658915 C1.4023108,25.1478646 1.3867565,26.1069789 1.96872962,26.7081424 L3.78393631,28.5833442 L1.51502895,28.5833442 C0.678126959,28.5833442 0,29.2614712 0,30.0983732 C0,30.9352752 0.678126959,31.6134021 1.51502895,31.6134021 L3.64172559,31.6134021 L1.98610195,33.2690258 C1.39423064,33.8606951 1.39423064,34.8200114 1.98589995,35.4114787 C2.28183561,35.7074144 2.66948101,35.8552812 3.05732843,35.8552812 C3.44497383,35.8552812 3.83282125,35.7074144 4.1285549,35.4116807 L7.92703549,31.6136041 L10.7118607,31.6136041 L9.05623707,33.2692278 C8.46436575,33.8608971 8.46436575,34.8202134 9.05603506,35.4116807 C9.35197072,35.7076164 9.73961612,35.8554832 10.1274635,35.8554832 C10.5151089,35.8554832 10.9029564,35.7076164 11.19869,35.4118827 L14.9971706,31.6136041 L17.6611975,31.6136041 L14.3778268,35.0270654 C13.7978737,35.6300469 13.816458,36.5891612 14.4194396,37.1691143 C14.7006289,37.4393955 15.0585798,37.5781721 15.4197627,37.5898883 C15.4274388,37.5902924 15.434509,37.5915044 15.4421851,37.5917064 L20.2777535,37.7173528 L18.3815433,39.613563 L12.9181469,39.4622621 C12.0806389,39.4450918 11.3847356,40.0983723 11.3617071,40.9346683 C11.3384767,41.7711663 11.9978173,42.4680796 12.8341133,42.491108 L15.4318829,42.5630214 L13.3997241,44.5951802 L7.90117899,44.5416492 C7.89269483,44.5416492 7.88441267,44.5416492 7.87613051,44.5416492 C7.05074274,44.5416492 6.37503983,45.158771 6.36170757,45.9867848 C6.34817331,46.8234848 7.01519006,47.4674731 7.85189005,47.4812094 L10.4749102,47.5195901 L8.85706126,49.137439 C8.26539195,49.7293103 8.26539195,50.6884247 8.85706126,51.280094 C9.15299691,51.5758276 9.54084433,51.7236944 9.92848973,51.7236944 C10.3161351,51.7236944 10.6702479,51.5758276 10.9661836,51.280094 L12.3555661,49.8569768 L12.3555661,52.2179979 C12.3555661,53.0548999 13.0336931,53.7330268 13.8705951,53.7330268 C14.7074971,53.7330268 15.385624,53.0548999 15.385624,52.2179979 L15.385624,46.8273229 L17.4056626,44.8072843 L17.4056626,47.1679014 C17.4056626,48.0048034 18.0837896,48.6829303 18.9206916,48.6829303 C19.7575936,48.6829303 20.4357205,48.0048034 20.4357205,47.1679014 L20.4357205,41.7772264 L22.3933399,39.8531396 L22.5129262,44.4414553 C22.4751515,44.8676834 22.6250384,45.3409785 22.9484465,45.6702448 C23.2449882,45.9724425 23.6455619,46.1576801 24.0378534,46.1576801 C24.0394694,46.1576801 24.0412874,46.1576801 24.0427015,46.1576801 C24.0443175,46.1576801 24.0459335,46.1576801 24.0473475,46.1576801 C24.5042803,46.1653562 24.9157621,45.8528563 25.1632169,45.5641927 L28.3136691,42.4341429 L28.3136691,44.89657 L24.5489231,48.6952526 C23.9572538,49.2869219 23.9742221,50.2462382 24.5658915,50.8377055 C24.8616251,51.1334392 25.2577547,51.281306 25.6454001,51.281306 C26.0330455,51.281306 26.3914003,51.1334392 26.687336,50.8375035 L28.3136691,49.1818799 L28.3136691,51.9667051 L24.5489231,55.7653877 C23.9572538,56.357057 23.9742221,57.3163733 24.5658915,57.9078406 C24.8616251,58.2035743 25.2577547,58.3514411 25.6454001,58.3514411 C26.0330455,58.3514411 26.3914003,58.2035743 26.687336,57.9076386 L28.3136691,56.252015 L28.3136691,58.4801176 C28.3136691,59.3170196 28.991796,59.9951465 29.828698,59.9951465 C30.6656,59.9951465 31.343727,59.3170196 31.343727,58.4801176 L31.343727,56.1102083 L33.2526635,57.925415 C33.5469831,58.2102404 33.9435167,58.3518451 34.3230819,58.3518451 C34.7190095,58.3518451 35.1232192,58.1975142 35.4201649,57.8906703 C36.002138,57.2893048 35.9570911,56.3301905 35.3559277,55.7484194 L31.343727,51.8929737 L31.343727,49.0812819 L33.2651877,50.8674001 C33.5580933,51.1445494 33.9491728,51.281912 34.3230819,51.281912 C34.7248676,51.281912 35.1341274,51.123137 35.4322851,50.8080109 C36.0073901,50.2001813 35.951233,49.241269 35.3434034,48.666366 L31.343727,44.9101042 L31.343727,42.2652677 L34.8450599,45.5643947 C35.2290692,45.8972971 35.5973223,46.1578821 36.10617,46.1578821 C36.1098061,46.1578821 36.1130381,46.1578821 36.1166742,46.1578821 C36.9485261,46.1578821 37.625845,45.4666249 37.6315011,44.6333589 L37.6650338,39.6745682 L39.613361,41.6228954 L39.4620601,47.0862918 C39.4388297,47.9227898 40.0979683,48.6197031 40.9344663,48.6427316 C40.9488085,48.6431356 40.9631508,48.6433376 40.9772911,48.6433376 C41.7945987,48.6433376 42.4682816,47.9922791 42.490906,47.1703254 L42.5628194,44.5725558 L44.5515474,46.5612838 L44.4610497,52.0978056 C44.4475154,52.9345056 45.1145321,53.6320249 45.9512321,53.6320249 C45.9597163,53.6320249 45.9679985,53.6320249 45.9762806,53.6320249 C46.8016684,53.6320249 47.4773713,52.9963188 47.4907036,52.1683049 L47.5335284,49.5432648 L49.137439,51.1471754 C49.4333747,51.4429091 49.8212221,51.5907759 50.2088675,51.5907759 C50.5965129,51.5907759 50.9843603,51.4429091 51.280296,51.1471754 C51.8719653,50.5553041 51.8719653,49.5961898 51.280296,49.0045205 L49.8476846,47.5719091 L52.2171899,47.5719091 C53.0540919,47.5719091 53.7322188,46.8937821 53.7322188,46.0568802 C53.7322188,45.2199782 53.0540919,44.5418512 52.2171899,44.5418512 L46.8176267,44.5418512 L44.7975881,42.5218126 L47.1670934,42.5218126 C48.0039954,42.5218126 48.6821223,41.8436856 48.6821223,41.0067836 C48.6821223,40.1698816 48.0039954,39.4917547 47.1670934,39.4917547 L41.7675302,39.4917547 L39.9329311,37.6571556 L44.5778079,37.4543438 C44.9705034,37.4379814 45.367845,37.258602 45.6126737,37.0196314 C46.2114131,36.4350323 46.2227253,35.4759179 45.6383282,34.8773805 L42.4525253,31.6136041 L44.896974,31.6136041 L48.6956566,35.4120847 C48.9913902,35.7078184 49.3792376,35.8556852 49.766883,35.8556852 C50.1545285,35.8556852 50.5423759,35.7078184 50.8383115,35.4118827 C51.4299808,34.8202134 51.4299808,33.8608971 50.8381095,33.2694298 L49.1824859,31.6138061 L51.9673111,31.6138061 L55.7659937,35.4122867 C56.0617273,35.7080204 56.4495748,35.8558872 56.8372202,35.8558872 C57.2248656,35.8558872 57.612713,35.7080204 57.9086486,35.4120847 C58.5003179,34.8204154 58.5003179,33.8610991 57.9084466,33.2696318 L56.252823,31.6140081 L58.4801176,31.6140081 C59.3170196,31.6140081 59.9951465,30.9358812 59.9951465,30.0989792 C59.9951465,29.2620772 59.3170196,28.5835462 58.4801176,28.5835462 Z M23.3005393,25.3096697 L26.5744158,28.5835462 L21.8705539,28.5835462 L18.9132174,25.4726868 L23.3005393,25.3096697 Z M23.231858,34.7634503 L18.942912,34.6519442 L21.8655039,31.6136041 L26.3817042,31.6136041 L23.231858,34.7634503 Z M28.3142751,38.1884258 L25.4510724,41.0324381 L25.3413843,36.888935 L28.3144771,33.8990758 L28.3144771,38.1884258 L28.3142751,38.1884258 Z M28.3142751,26.1051609 L25.2272521,22.9846052 L25.3141138,18.9247317 L28.3140731,21.8414654 L28.3140731,26.1051609 L28.3142751,26.1051609 Z M31.344333,21.9093387 L34.7240596,18.8788768 L34.7537541,23.1908512 L31.344333,26.583506 L31.344333,21.9093387 L31.344333,21.9093387 Z M34.5921511,41.1172798 L31.344333,38.1254006 L31.344333,33.4205287 L34.6054833,36.6649127 L34.5921511,41.1172798 Z M37.0275096,34.7509261 L33.8901876,31.6136041 L38.2179183,31.6136041 L41.1073816,34.5727587 L37.0275096,34.7509261 Z M38.1918598,28.5835462 L33.6968699,28.5835462 L36.9499401,25.3304761 L41.180103,25.3421923 L38.1918598,28.5835462 Z" id="形状"></path>
            </g>
        </g>
    </g>
</svg>
