<?xml version="1.0" encoding="UTF-8"?>
<svg width="53px" height="61px" viewBox="0 0 53 61" version="1.1" xmlns="http://www.w3.org/2000/svg" xmlns:xlink="http://www.w3.org/1999/xlink">
    <title>50</title>
    <g id="页面-1" stroke="none" stroke-width="1" fill="none" fill-rule="evenodd">
        <g id="形状库素材-节日" transform="translate(-245.000000, -632.000000)" fill="#545458">
            <path d="M268.987564,646.649318 L268.987564,650.100578 C268.414899,649.85115 267.880412,649.510097 267.402937,649.082507 C266.6572,648.41058 266.111514,647.575762 265.795912,646.649318 L268.987564,646.649318 Z M268.987564,642.785739 L265.827981,642.785739 C266.079954,642.088361 266.466312,641.441886 266.977383,640.876857 C267.545467,640.245653 268.230628,639.756979 268.987564,639.431196 L268.987564,642.785739 Z M273.598915,642.785739 L273.598915,639.426106 C274.17158,639.675533 274.706576,640.016587 275.183033,640.449267 C275.903318,641.095742 276.438824,641.900018 276.759007,642.785739 L273.598915,642.785739 Z M273.598915,646.649318 L276.791076,646.649318 C276.540631,647.382329 276.142565,648.064436 275.609096,648.654917 C275.040503,649.286121 274.355851,649.774795 273.598915,650.100578 L273.598915,646.649318 Z M297.209503,688.716001 L292.096752,688.716001 L292.096752,685.137483 C292.096752,685.030585 291.933352,684.944049 291.731264,684.944049 L287.67018,684.944049 C287.880921,683.493298 288.227065,680.515442 288.150201,677.054001 C288.049921,672.543948 287.188633,666.272632 283.657454,661.981463 C281.229865,659.039239 277.850888,657.369603 273.598915,657.018368 L273.598915,653.704548 C277.002326,652.823917 279.616222,650.064945 280.329381,646.649318 L283.277205,646.649318 C283.386648,646.649318 283.47522,646.562782 283.47522,646.450794 L283.47522,642.984263 C283.47522,642.872275 283.386648,642.785739 283.277205,642.785739 L280.30902,642.785739 C279.901791,640.912489 278.924952,639.217401 277.473184,637.90918 C276.349233,636.8962 275.024214,636.188641 273.598915,635.822135 L273.598915,633.078435 C273.598915,632.971537 273.510343,632.885001 273.400391,632.885001 L269.185579,632.885001 C269.076136,632.885001 268.987564,632.971537 268.987564,633.078435 L268.987564,635.827226 C265.615204,636.692586 263.020142,639.415925 262.278987,642.785739 L259.309274,642.785739 C259.199832,642.785739 259.11075,642.872275 259.11075,642.984263 L259.11075,646.450794 C259.11075,646.562782 259.199832,646.649318 259.309274,646.649318 L262.257607,646.649318 C262.977892,650.115849 265.631494,652.834098 268.987564,653.699458 L268.987564,657.104905 C264.462239,657.61903 260.989091,659.426106 258.642438,662.50068 C255.320982,666.852932 254.890847,672.986808 255.114314,677.369603 C255.283822,680.688514 255.84427,683.528931 256.167508,684.944049 L250.855215,684.944049 C250.653637,684.944049 250.489727,685.030585 250.489727,685.137483 L250.489727,688.716001 L245.375449,688.716001 C245.172853,688.716001 245.009452,688.802537 245.009452,688.914525 L245.009452,692.686477 C245.009452,692.798465 245.172853,692.885001 245.375449,692.885001 L297.209503,692.885001 C297.413117,692.885001 297.576009,692.798465 297.576009,692.686477 L297.576009,688.914525 C297.576009,688.802537 297.413117,688.716001 297.209503,688.716001 L297.209503,688.716001 Z" id="50"></path>
        </g>
    </g>
</svg>
