<?xml version="1.0" encoding="UTF-8"?>
<svg width="43px" height="61px" viewBox="0 0 43 61" version="1.1" xmlns="http://www.w3.org/2000/svg" xmlns:xlink="http://www.w3.org/1999/xlink">
    <title>Fill 43</title>
    <g id="页面-1" stroke="none" stroke-width="1" fill="none" fill-rule="evenodd">
        <g id="形状库素材-节日" transform="translate(-484.000000, -472.000000)" fill="#545458">
            <path d="M523.337031,510.859427 C523.267263,511.303842 523.194628,511.752079 523.088542,512.189803 C522.58965,514.252269 521.925418,516.263126 521.00505,518.17363 C520.468885,519.285144 519.8209,520.343138 519.195852,521.409733 C518.884284,521.941119 518.481922,522.413249 517.927598,522.876779 C517.92282,522.8137 517.924731,522.759224 517.92282,522.699969 C517.918997,522.702836 517.91613,522.705703 517.911351,522.707614 C517.915174,522.687544 517.918041,522.665562 517.921864,522.644536 C517.912307,522.2049 517.978252,521.83121 518.114922,521.441272 C518.125435,521.372459 518.136903,521.302691 518.147416,521.232923 C518.234388,520.66713 518.295555,520.098471 518.238211,519.525033 C518.152195,518.667743 517.788062,518.464172 516.979514,518.784342 C516.706175,518.892339 516.469154,519.031876 516.265584,519.204863 C515.895716,519.571864 515.699791,520.03826 515.528716,520.516125 C514.998285,521.993684 514.476457,523.472199 514.16011,525.015703 C514.059758,525.505992 513.975654,525.657954 513.58476,525.782198 C512.930085,526.097589 512.263941,526.381441 511.56817,526.593613 C511.474508,526.623241 511.385625,526.642356 511.280495,526.592658 C511.186833,526.371884 511.258513,526.13773 511.271893,525.906443 C511.33306,524.826468 511.222195,523.764652 510.891513,522.733419 C510.805497,522.463903 510.684119,522.201077 510.543627,521.954499 C510.317119,521.555959 509.960631,521.415467 509.511438,521.509129 C509.204649,521.574118 508.919841,521.690717 508.651281,521.846501 C508.415216,521.983171 508.249874,522.185786 508.199221,522.459125 C508.146655,522.740109 508.089312,523.02205 508.071153,523.305901 C508.057773,523.534321 508.044392,523.763696 508.031968,523.993071 C508.064463,524.393522 508.070197,524.796841 508.044392,525.200159 C508.026233,525.494524 508.011897,525.789844 507.99565,526.083253 C508.00234,526.300204 508.00903,526.516199 508.025278,526.73315 C508.035791,526.874598 508.034835,527.018913 508.029101,527.160361 C508.024322,527.269315 507.950731,527.331437 507.848468,527.345773 C507.707975,527.363932 507.564616,527.375401 507.422212,527.381135 C507.356267,527.384002 507.300834,527.370622 507.259738,527.340039 C507.251136,527.340039 507.246358,527.340039 507.238712,527.339083 C507.038008,527.030382 507.067636,526.714991 507.037053,526.412025 C506.943391,525.492612 506.865977,524.571288 506.746511,523.655699 C506.649982,522.913096 506.497065,522.179096 505.995307,521.610436 C505.789825,521.472811 505.537512,521.447962 505.184848,521.523465 C504.954517,521.572207 504.731831,521.665868 504.510102,521.749973 C504.058997,521.919137 503.771323,522.241218 503.601203,522.693278 C503.244715,523.642319 503.08702,524.623853 503.060259,525.630237 C503.046879,526.176915 503.068861,526.725504 503.069817,527.272182 C503.070772,527.450903 502.997181,527.522583 502.809858,527.523701 C501.947789,527.528318 501.096234,527.427966 500.268571,527.189033 C499.74961,527.039939 499.228737,526.910916 498.696395,526.830634 C498.597955,526.840192 498.50047,526.825856 498.406809,526.784759 C498.284475,526.75991 498.229999,526.723593 498.20515,526.631843 C498.175522,526.586923 498.154496,526.53627 498.148762,526.490395 C498.111488,526.185517 498.072303,525.87586 498.079949,525.569071 C498.110533,524.18135 497.89167,522.824213 497.598261,521.475678 C497.461592,520.846808 497.271401,520.236096 496.896755,519.698976 C496.889109,519.688463 496.887198,519.671259 496.881463,519.659791 C496.87095,519.649278 496.86426,519.636853 496.852792,519.62634 C496.60239,519.405566 496.329051,519.321462 495.999325,519.465777 C495.007277,519.904458 494.366937,520.587805 494.322974,521.733725 C494.297169,522.397002 494.327752,523.054544 494.408034,523.710175 C494.562862,524.104892 494.615427,524.519679 494.645055,524.942112 C494.620206,524.957403 494.597268,524.966005 494.574331,524.974606 C494.572419,524.982252 494.572419,524.988942 494.569552,524.996588 C494.557128,524.994677 494.54757,524.987987 494.536102,524.986075 C494.375539,525.022393 494.282833,524.892414 494.189172,524.814044 C493.271671,524.045637 492.466946,523.169232 491.796979,522.179096 C489.950508,519.453353 488.665051,516.477209 487.864149,513.28507 C487.572651,512.124814 487.462742,510.94162 487.349966,509.759382 C487.293578,509.171607 487.454141,508.968037 488.135576,508.66507 C488.182407,508.674628 488.234017,508.675583 488.273202,508.698521 C488.76827,508.989063 488.982353,509.035894 489.111377,509.212704 C489.311125,509.310188 489.509916,509.408629 489.706797,509.510892 C491.721476,510.570796 493.849887,511.30862 496.072916,511.782662 C496.676937,511.911686 497.279047,512.056957 497.877334,512.211785 C498.175522,512.288244 498.464153,512.402931 498.756606,512.504239 C498.895187,512.552981 498.930549,512.668624 498.888497,512.790002 C498.717421,513.288893 498.613247,513.798297 498.557814,514.322993 C498.429746,515.518612 498.503338,516.70085 498.767119,517.87162 C498.887541,518.413519 499.110226,518.908587 499.465758,519.341533 C499.610073,519.515475 499.765857,519.631119 499.9398,519.693241 C500.067868,519.668392 500.169175,519.649278 500.26666,519.633986 C501.248195,519.487759 502.002266,519.001293 502.459105,518.113419 C502.676056,517.692898 502.868158,517.253262 503.00865,516.801202 C503.276254,515.941044 503.499895,515.065596 503.740739,514.196837 C503.772278,514.082149 503.792349,513.964594 503.830578,513.851818 C503.908948,513.623399 504.027458,513.523047 504.248232,513.545029 C504.528261,513.571789 504.818803,513.567011 505.112212,513.736175 C505.112212,513.738086 505.113168,513.739998 505.113168,513.741909 C505.190582,513.75529 505.26704,513.769625 505.344454,513.781094 C506.690123,514.001868 508.045348,514.079282 509.406308,514.094574 C509.688248,513.989443 509.95872,514.032451 510.226324,514.062079 C510.383064,514.080238 510.479593,514.190147 510.499663,514.346887 C510.526424,514.558103 510.533114,514.772186 510.562741,514.983403 C510.689854,515.879878 510.926875,516.748637 511.229841,517.598281 C511.457305,518.237664 511.822394,518.789121 512.391053,519.283233 C512.542059,519.326241 512.708356,519.322418 512.899502,519.270809 C513.667909,519.065327 514.199295,518.627602 514.510863,517.887867 C514.914181,516.930225 515.076655,515.924797 515.185608,514.904077 C515.233395,514.453928 515.27927,514.004735 515.333747,513.555542 C515.370064,513.243974 515.396825,513.212435 515.722729,513.149357 C515.932034,513.10826 516.146117,513.089146 516.359245,513.066208 C517.721161,512.926671 519.022865,512.581653 520.250023,511.961384 C520.851177,511.657462 521.379696,511.253188 521.903436,510.840312 C522.004743,510.669237 522.138546,510.521098 522.311533,510.396854 C522.465405,510.285989 522.602075,510.150275 522.757859,510.042278 C523.00826,509.867379 523.301669,509.988757 523.342766,510.292679 C523.367615,510.477135 523.365703,510.67306 523.337031,510.859427 Z M495.083735,506.447776 C495.041683,505.927859 495.021613,505.402208 495.055063,504.88229 C495.142035,503.528976 495.285394,502.182352 495.727897,500.887338 C496.100632,499.79685 496.603346,498.781864 497.358373,497.902593 C497.752134,497.443842 498.207061,497.072063 498.779544,496.858935 C498.844533,496.834086 498.916213,496.825485 498.985981,496.814016 C498.99745,496.81306 499.011786,496.81975 499.041414,496.834086 C499.438998,496.688815 499.863342,496.599932 500.305845,496.553102 C500.772241,496.504359 501.189895,496.703151 501.54925,497.007073 C501.975505,497.368339 502.274649,497.822311 502.497334,498.329804 C502.900652,499.251128 503.157744,500.21546 503.317351,501.205596 C503.386163,501.628029 503.441596,502.054285 503.472179,502.481496 C503.529523,503.264239 503.564885,504.049849 503.602158,504.713126 C503.551505,505.691794 503.495117,506.547172 503.4674,507.403507 C503.444463,508.095455 503.116647,508.560896 502.515493,508.877243 C501.98124,509.158227 501.433606,509.361798 500.820983,509.376134 C500.010524,509.393337 499.204844,509.379001 498.399163,509.262402 C497.811389,509.178298 497.214058,509.151537 496.624372,509.075079 C496.583276,509.0703 496.542179,509.061698 496.501083,509.055964 C496.450429,509.065521 496.39213,509.065521 496.324273,509.054053 C496.020351,509.004355 495.719296,508.933631 495.420152,508.859084 C495.315022,508.831367 495.23474,508.782625 495.165928,508.72337 C495.159238,508.71668 495.151592,508.711901 495.144902,508.705211 C495.035948,508.600081 494.97287,508.460544 494.97287,508.286601 C494.97287,507.979812 495.004409,507.671111 495.054107,507.367189 C495.104761,507.059444 495.107628,506.7603 495.083735,506.447776 Z M510.073408,508.457677 C510.090611,508.341078 510.125017,508.22639 510.153689,508.111703 C510.386887,507.187512 510.523556,506.247073 510.636333,505.301856 C510.786382,504.045071 511.079791,502.824603 511.65323,501.682506 C511.999204,500.992468 512.446486,500.38558 513.011322,499.864707 C513.433755,499.474769 513.907797,499.239659 514.420069,499.124972 C515.395869,498.757015 516.105021,498.93287 516.648831,499.685029 C516.883941,500.008066 517.066485,500.377934 517.222269,500.747801 C517.652348,501.764698 517.861653,502.837028 517.939067,503.934206 C518.030817,505.239733 518.107276,506.544305 518.187557,507.848877 C518.199026,508.038111 518.205716,508.231169 518.193291,508.419448 C518.153151,509.00531 517.902749,509.379957 517.382832,509.608376 C516.820863,509.949572 516.211107,510.160788 515.555476,510.216221 C513.870524,510.355757 512.235269,510.123515 510.66596,509.480308 C510.045691,509.227996 509.975923,509.103751 510.073408,508.457677 Z M494.799883,483.774033 C494.992941,483.594356 495.21467,483.457686 495.454558,483.3516 C496.030864,483.098332 496.632974,483.005626 497.303896,483.092597 C497.644136,483.129871 497.999668,483.243603 498.295944,483.507384 C498.456507,483.652655 498.469887,483.781679 498.319837,483.925994 C497.948058,484.28726 497.494087,484.481273 496.986594,484.531927 C496.23539,484.60743 495.526238,484.433487 494.855315,484.098981 C494.680417,484.011054 494.666081,483.898278 494.799883,483.774033 Z M519.345902,482.094815 C519.497863,481.971526 519.607772,482.004976 519.665116,482.178919 C519.748264,482.429321 519.780759,482.687368 519.776936,482.948282 C519.76929,483.579064 519.604905,484.165882 519.247462,484.740276 C519.072563,485.034641 518.821206,485.310847 518.458029,485.470454 C518.260192,485.557425 518.137859,485.515373 518.067135,485.319449 C517.893192,484.832026 517.904661,484.337914 518.069046,483.85527 C518.311802,483.139428 518.762907,482.566946 519.345902,482.094815 Z M525.910813,507.991281 C525.619315,505.579973 524.896783,503.289088 523.810118,501.122448 C522.806601,499.12306 521.539303,497.341579 520.008223,495.783739 C519.913606,495.519001 519.817077,495.252353 519.726283,494.985704 C519.063962,493.035059 518.005013,491.331947 516.562816,489.863946 C515.911963,489.201625 515.253465,488.545994 514.608347,487.876983 C514.253771,487.508071 513.89824,487.140115 513.54462,486.770247 C513.835162,485.907223 514.216498,485.077649 514.643709,484.265278 C514.987772,483.611559 515.388223,482.99129 515.893805,482.445568 C516.549435,481.738328 517.363718,481.329275 518.305112,481.163934 C518.491479,481.131439 518.684537,481.094165 518.862303,481.197384 C518.899576,481.219366 518.938761,481.262374 518.946407,481.301559 C518.952141,481.333098 518.919646,481.384707 518.890019,481.406689 C518.833631,481.449697 518.765774,481.477413 518.703651,481.513731 C518.00119,481.916093 517.492741,482.503867 517.115228,483.210152 C516.812261,483.7769 516.735803,484.379966 516.871517,485.009792 C516.942241,485.332829 517.122874,485.56316 517.416283,485.718944 C517.760346,485.902444 518.132125,485.976991 518.51155,486.010442 C519.349725,486.082121 520.020648,485.757173 520.438302,485.037508 C521.034677,484.01201 521.197151,482.942548 520.549166,481.857794 C520.50138,481.779424 520.468885,481.691497 520.428744,481.606437 C521.437995,481.19834 522.614499,481.277666 524.101616,481.868307 C523.91716,481.582544 523.716456,481.491749 523.519576,481.422937 C522.454892,481.051158 521.367271,480.795978 520.23282,481.002415 C519.845749,481.073139 519.50073,481.049246 519.123217,480.941249 C517.429663,480.456693 515.665385,481.089387 514.660913,482.532539 C513.881037,483.651699 513.335315,484.866433 512.972137,486.153801 C512.781947,485.948319 512.587934,485.74666 512.402522,485.537355 C511.308211,484.311153 511.201169,483.955622 511.242266,482.31081 C511.27476,481.01484 511.543321,479.760922 511.90841,478.524207 C512.429283,476.758973 513.120275,475.065419 514.066448,473.481774 C514.297735,473.097571 514.506084,472.699031 514.714433,472.327252 C514.651355,472.246015 514.631285,472.19345 514.594011,472.175291 C514.171579,471.980322 513.767305,471.987012 513.397437,472.302403 C513.234007,472.440028 513.060064,472.568096 512.905236,472.715279 C512.219022,473.376644 511.520383,474.025585 510.859018,474.710843 C508.667528,476.980703 506.935745,479.554484 505.799382,482.509602 C505.651244,482.897628 505.442895,483.227355 505.159999,483.526499 C504.208091,484.532883 503.181637,485.454207 502.050052,486.255109 C501.506242,486.640268 500.95383,487.014914 500.406196,487.395295 C500.349808,487.43448 500.29342,487.473665 500.237032,487.512849 C499.752477,487.51954 499.26601,487.507115 498.779544,487.479399 C498.04172,487.437347 497.311542,487.329349 496.605257,487.095195 C495.689668,486.791273 494.97956,486.219747 494.439573,485.431269 C494.332531,485.275485 494.218799,485.115878 494.238869,484.910396 C494.243648,484.867388 494.266586,484.813867 494.29908,484.79093 C494.324885,484.772771 494.385096,484.780417 494.418547,484.798576 C494.480669,484.832026 494.53419,484.88268 494.591534,484.923776 C495.250032,485.396863 495.995502,485.615725 496.794492,485.666379 C497.435787,485.707475 498.015915,485.528754 498.532965,485.142639 C498.797703,484.944802 498.932461,484.6858 498.953487,484.354161 C498.978336,483.964223 498.89232,483.595311 498.765208,483.235957 C498.482312,482.443656 497.909829,481.967703 497.081211,481.884554 C495.899929,481.766999 494.860094,482.063276 494.141385,483.102155 C494.08882,483.177657 494.022874,483.243603 493.962663,483.315282 C493.17323,482.56599 492.757488,481.462122 492.679118,479.864141 C492.495618,480.149904 492.496573,480.370678 492.515688,480.578071 C492.616995,481.70201 492.835858,482.797277 493.4934,483.74345 C493.717997,484.066486 493.839374,484.390479 493.897674,484.779461 C494.158588,486.521757 495.465071,487.864558 497.194943,488.181861 C497.809478,488.294637 498.421145,488.350069 499.031856,488.362494 C498.131559,489.007612 497.24942,489.675667 496.422713,490.414446 C495.49661,491.242109 494.63263,492.130938 493.963619,493.185108 C493.837463,493.382944 493.716085,493.583648 493.59184,493.783395 C492.687719,494.396974 491.839031,495.084144 491.048642,495.84395 C489.137182,497.682775 487.660578,499.833168 486.615965,502.272191 C485.082018,505.853312 484.531518,509.582571 485.022763,513.453279 C485.346756,516.005078 486.098915,518.425943 487.274463,520.71874 C488.721439,523.541967 490.674952,525.949451 493.186611,527.878115 C496.718989,530.591433 500.71872,532.000179 505.196316,532.044143 C506.02589,531.978197 506.859287,531.942835 507.685038,531.841528 C510.24066,531.527093 512.664392,530.754863 514.939986,529.561156 C518.146461,527.879071 520.753693,525.527974 522.710072,522.462947 C523.912381,520.579203 524.816502,518.573125 525.397586,516.415087 C525.860159,514.702418 526.099092,512.957255 526.129675,511.192977 C526.14879,510.126382 526.038881,509.052141 525.910813,507.991281 L525.910813,507.991281 Z" id="Fill-43"></path>
        </g>
    </g>
</svg>
