<?xml version="1.0" encoding="UTF-8"?>
<svg width="61px" height="48px" viewBox="0 0 61 48" version="1.1" xmlns="http://www.w3.org/2000/svg" xmlns:xlink="http://www.w3.org/1999/xlink">
    <title>46</title>
    <g id="页面-1" stroke="none" stroke-width="1" fill="none" fill-rule="evenodd">
        <g id="形状库素材-节日" transform="translate(-717.000000, -562.000000)" fill="#545458">
            <path d="M766.403002,602.222036 C766.322082,602.226274 766.21162,602.240018 766.083819,602.256973 C765.999688,602.268147 765.923906,602.204311 765.918126,602.117161 C765.877666,601.483547 765.85583,600.848777 765.829499,600.214071 C765.826288,600.13649 765.880235,600.068094 765.954732,600.055892 C766.166023,600.021083 766.377955,599.988202 766.59053,599.962192 C766.668881,599.952559 766.740168,600.008817 766.75237,600.08948 C766.860263,600.841584 766.993202,602.191273 766.403002,602.222036 Z M765.910419,596.581546 C766.065194,596.140469 766.347129,596.665548 766.423553,596.853269 C766.555208,597.177076 766.562915,597.542307 766.589246,597.888206 C766.624568,598.348229 766.648972,598.80915 766.658606,599.270521 C766.660532,599.357734 766.59053,599.429149 766.505757,599.42825 C766.327862,599.426452 766.149325,599.429406 765.970788,599.433966 C765.884088,599.436214 765.816013,599.360753 765.824362,599.271548 C765.900786,598.417139 765.624631,597.395495 765.910419,596.581546 Z M765.210399,602.186585 C765.062047,602.190824 764.922043,602.185108 764.804516,602.162566 C764.683137,602.139382 764.585519,602.098537 764.525793,602.032838 C764.22716,601.706847 764.292667,600.740306 764.27918,600.287862 C764.345329,600.215034 764.383862,600.172776 764.450011,600.099884 C764.668366,600.087296 764.885436,600.063085 765.102506,600.0329 C765.188564,600.020955 765.26563,600.086461 765.268841,600.175666 C765.29453,600.791812 765.315723,601.408022 765.354257,602.023204 C765.360037,602.109647 765.29453,602.184209 765.210399,602.186585 Z M764.378082,598.282851 C764.349824,597.707871 764.566895,597.125377 764.927823,596.681796 C765.006816,596.58405 765.212326,596.486176 765.223886,596.708448 C765.264346,597.455029 765.232235,598.271483 765.282328,599.014725 C765.288108,599.099562 765.293246,599.184463 765.297741,599.269365 C765.302237,599.348486 765.247006,599.418938 765.171224,599.430305 C764.94452,599.464214 764.717174,599.49061 764.488544,599.502619 C764.405055,599.506986 764.335696,599.436663 764.335696,599.350413 C764.337622,598.994302 764.395422,598.638705 764.378082,598.282851 Z M758.311029,593.883772 C758.19543,593.889809 758.07983,593.895717 757.96423,593.901497 C757.709911,593.914277 757.490914,593.722831 757.468437,593.468898 C757.458803,593.360298 757.44917,593.251699 757.439537,593.143164 C757.415132,592.872018 757.621927,592.635424 757.893586,592.625598 C758.009186,592.62136 758.125428,592.617506 758.241027,592.614038 C758.490851,592.606524 758.705352,592.794502 758.727188,593.043684 C758.736821,593.150934 758.747097,593.258185 758.757372,593.365372 C758.783703,593.633563 758.580119,593.869707 758.311029,593.883772 Z M757.257788,591.968607 C757.16274,591.821732 757.188429,591.513016 757.16274,591.339553 C757.121638,591.06115 757.329717,590.807923 757.611009,590.796427 C757.769638,590.789941 757.930193,590.783968 758.09139,590.778702 C758.354058,590.770096 758.571771,590.977212 758.580119,591.23988 C758.583331,591.346296 758.587184,591.452776 758.591037,591.559192 C758.601313,591.819098 758.402225,592.03983 758.142768,592.052995 C757.866613,592.066995 757.404215,592.196467 757.257788,591.968607 Z M756.296385,592.208284 C756.020873,592.222284 755.557832,592.351756 755.411406,592.123896 C755.316357,591.976956 755.342046,591.668305 755.316357,591.494842 C755.275255,591.216439 755.483334,590.963212 755.764627,590.951716 C755.923255,590.94523 756.084452,590.939257 756.245007,590.933991 C756.507675,590.925385 756.725388,591.132501 756.733737,591.395169 C756.736948,591.501585 756.740801,591.608065 756.744655,591.714481 C756.75493,591.974387 756.556484,592.195118 756.296385,592.208284 Z M756.296385,594.027501 C756.180785,594.033602 756.065186,594.03951 755.949586,594.04529 C755.695267,594.058006 755.47627,593.86656 755.453792,593.612626 C755.444159,593.504091 755.434526,593.395492 755.424892,593.286957 C755.400488,593.015811 755.607283,592.779217 755.879584,592.769327 C755.994542,592.765153 756.110783,592.7613 756.226383,592.757832 C756.476207,592.750318 756.690708,592.938231 756.712544,593.187477 C756.722177,593.294728 756.732452,593.401978 756.742728,593.509165 C756.769059,593.777356 756.565475,594.013436 756.296385,594.027501 Z M750.944123,597.472176 C750.845221,597.519957 750.739897,597.573133 750.685951,597.668696 C750.635215,597.758028 750.638426,597.866949 750.643564,597.969512 C750.675033,598.637613 750.718062,599.305458 750.752741,599.973688 C750.79577,600.807867 749.153614,600.944275 748.339278,600.917558 C749.51133,598.585079 749.747025,596.710054 749.566561,594.088961 C749.465732,592.617892 749.426557,593.149843 750.222268,592.140209 C750.748246,591.472557 751.273582,590.728994 751.642858,589.910934 L751.714145,589.910934 C751.913875,589.910934 752.076357,590.073159 752.076357,590.273339 L752.076357,593.818843 C752.076357,593.969958 751.982593,594.105145 751.841304,594.158192 L751.586985,594.253562 C751.445697,594.306609 751.351933,594.441861 751.351933,594.592911 L751.351933,594.601774 C751.351933,594.772283 751.470743,594.919737 751.637078,594.955958 L751.791211,594.989418 C751.957546,595.025575 752.076357,595.173029 752.076357,595.343602 C752.076357,596.646538 752.204801,596.863287 750.944123,597.472176 Z M751.563865,584.86591 C751.669189,584.756733 751.778367,584.644344 751.888829,584.53125 C751.9036,584.583783 751.917086,584.634005 751.927362,584.679089 C751.978097,584.904379 751.807909,585.119074 751.577352,585.121257 L751.366062,585.123184 C751.420008,585.033915 751.484872,584.948243 751.563865,584.86591 Z M739.996162,606.992896 C739.996162,606.992896 739.964087,600.437627 741.820745,600.216447 C742.759028,600.104636 743.818049,599.482775 744.29843,606.992896 L739.996162,606.992896 Z M737.347682,580.887036 C737.34704,580.887164 737.346398,580.887357 737.345756,580.88755 C737.251349,580.91234 737.15887,580.856916 737.15309,580.776767 C737.131896,580.465162 737.092079,580.155098 737.046481,579.845612 C737.024003,579.692507 737.165934,579.551604 737.353462,579.539594 C737.487686,579.531117 737.62191,579.523667 737.756134,579.517566 C737.932102,579.509538 738.083024,579.620129 738.090089,579.764692 C738.0933,579.823006 738.095226,579.881448 738.097795,579.93989 C738.115777,580.40049 737.928249,580.733096 737.347682,580.887036 Z M736.902624,578.890695 C736.880788,578.735149 736.860879,578.579475 736.844182,578.42348 C736.824273,578.234282 737.045839,578.07803 737.265478,578.132105 C737.56989,578.207052 737.749712,578.389892 737.898707,578.736305 C737.899349,578.737397 737.899349,578.738553 737.899991,578.739645 C737.969351,578.901998 737.81843,579.079315 737.607139,579.091453 C737.485117,579.098453 737.363738,579.106417 737.241716,579.115022 C737.071528,579.12716 736.92189,579.0298 736.902624,578.890695 Z M736.334901,580.979452 C736.334259,580.979387 736.333617,580.979323 736.332975,580.979323 C735.733783,580.932762 735.489097,580.63946 735.424233,580.183034 C735.415884,580.12517 735.407535,580.067306 735.399829,580.009378 C735.380562,579.865906 735.509648,579.729884 735.684332,579.705993 C735.817272,579.687819 735.950211,579.670928 736.083793,579.65513 C736.270679,579.632973 736.43573,579.746004 736.44151,579.90065 C736.452427,580.213283 736.469125,580.525402 736.504447,580.835787 C736.513438,580.915615 736.431876,580.986901 736.334901,580.979452 Z M735.402398,578.966862 C735.402398,578.965642 735.402398,578.964486 735.40304,578.96333 C735.487171,578.595723 735.631028,578.383405 735.916816,578.254769 C736.122969,578.162032 736.368939,578.275641 736.38371,578.465353 C736.39527,578.621797 736.404261,578.778563 736.410683,578.935458 C736.416463,579.075783 736.287377,579.198447 736.117189,579.217328 C735.995809,579.230815 735.874429,579.244944 735.753692,579.260036 C735.543686,579.286238 735.363222,579.139041 735.402398,578.966862 Z M734.735131,594.707034 C734.735131,594.760466 734.735773,594.813899 734.735131,594.867396 C734.722287,595.791101 734.528336,595.946647 733.63565,595.831368 C733.245823,595.781082 733.077561,595.610316 733.060221,595.217663 C733.040312,594.762714 733.011412,594.308921 733.086552,593.858789 C733.16683,593.380528 733.333165,593.235772 733.758957,593.228386 C734.261173,593.219588 734.577787,593.412061 734.666414,593.830596 C734.72614,594.115613 734.72614,594.413282 734.753113,594.7053 C734.747333,594.705878 734.741553,594.706456 734.735131,594.707034 Z M734.638798,598.353559 C734.613751,598.353816 734.589347,598.354009 734.564943,598.354201 C734.588063,598.781213 734.632376,599.208482 734.629165,599.635238 C734.623385,600.236291 734.536043,600.297559 733.82061,600.325496 C733.238116,600.34823 733.116094,600.292871 733.094259,599.744672 C733.055726,598.757837 733.079488,597.768432 733.08591,596.78012 C733.087837,596.449441 733.284356,596.303978 733.603539,596.307061 C733.764094,596.308602 733.925292,596.31663 734.085847,596.309565 C734.510354,596.290941 734.647789,596.522269 734.640725,596.909014 C734.631734,597.390357 734.638798,597.872023 734.638798,598.353559 Z M732.618374,599.683404 C732.612594,600.250356 732.527821,600.309761 731.946612,600.328835 C731.786057,600.334102 731.624859,600.322477 731.464304,600.316577 C731.11301,600.303532 730.918417,600.135656 730.920344,599.768434 C730.922271,599.260181 730.920986,598.751928 730.920986,598.130388 C730.903004,597.816278 730.86704,597.388623 730.858049,596.960455 C730.845846,596.386696 730.905573,596.336153 731.504122,596.317722 C731.584399,596.315217 731.664677,596.317272 731.744954,596.319584 C732.39745,596.338401 732.549014,596.458496 732.577914,597.116707 C732.615805,597.97131 732.628007,598.827967 732.618374,599.683404 Z M730.76878,594.078172 C730.8786,593.518927 731.128423,593.338527 731.728899,593.358372 C732.213775,593.374427 732.36855,593.531 732.452039,594.11921 C732.482223,594.328766 732.482865,594.542497 732.488003,594.610572 C732.488003,595.642556 731.977438,596.031163 731.109799,595.813579 C730.897866,595.760467 730.791258,595.63517 730.773918,595.428311 C730.736027,594.9785 730.681438,594.526698 730.76878,594.078172 Z M776.467232,607.124102 C775.471791,606.625546 774.117349,606.579114 773.040346,606.351768 C772.473266,606.232186 771.797008,606.159423 771.269103,605.909728 C770.460548,605.527286 770.714225,604.864964 770.718721,604.009206 C770.720005,603.81776 770.718721,603.617195 770.62881,603.448291 C770.248616,602.734463 769.270515,603.21889 768.756738,602.767602 C768.378471,602.43551 768.537099,601.650139 768.537099,601.157877 C768.537099,600.094618 768.537099,599.031358 768.537099,597.968163 C768.537099,597.771644 768.693159,597.61096 768.889678,597.605822 C769.312259,597.594905 771.150935,597.813067 770.995518,597.103092 C770.876065,596.55682 770.34238,595.92494 770.103474,595.409815 C769.761171,594.673895 769.463823,593.918002 769.108675,593.188119 C768.458748,591.8532 767.809464,590.518282 767.160179,589.183363 C766.964945,588.782425 766.438966,587.193509 765.93097,586.649034 C765.859684,586.207444 765.756286,585.698934 765.828215,585.320153 C765.864179,585.128835 765.782617,585.205837 765.93675,585.121257 C766.026661,585.071999 766.270062,585.10867 766.376029,585.102697 C766.646403,585.087348 766.916136,585.065641 767.185226,585.037704 C767.235961,585.032502 767.289266,585.025566 767.327157,584.992299 C767.379819,584.945803 767.38303,584.866103 767.38303,584.79578 C767.381745,584.660785 767.369543,584.505111 767.273852,584.417255 C767.264861,584.408393 767.253944,584.400237 767.243026,584.392915 C767.156968,584.337235 767.045864,584.346097 766.944393,584.356951 C766.696497,584.383282 766.449242,584.409356 766.201987,584.436008 C765.451232,584.516928 765.668944,583.3425 765.6272,582.843303 C765.622062,582.783383 765.616282,582.721088 765.585456,582.669261 C765.436461,582.421236 764.829563,582.581405 764.749928,582.774135 C764.674146,582.958902 764.763414,583.292086 764.780754,583.482376 C764.804516,583.74453 764.848187,584.015354 764.839838,584.278729 C764.825067,584.736118 764.453864,584.469725 764.089725,584.588664 C763.826415,584.674657 763.627969,585.321116 764.008163,585.281748 C764.214316,585.260555 764.792956,585.102119 764.90984,585.341667 C764.943236,585.409678 764.947089,585.487836 764.949658,585.56349 C764.970209,586.066541 764.995898,586.568436 765.021587,587.070588 C764.848187,587.400881 764.710752,587.775809 764.633044,587.946255 C764.185416,588.929815 763.727513,589.909264 763.267041,590.887558 C762.551608,592.405767 761.836175,593.924103 761.121384,595.442311 C760.858716,595.999052 760.188881,595.459009 760.063648,595.147982 C759.949975,594.865855 760.063648,594.302242 760.063648,594.00194 C760.063648,593.210211 760.063648,592.418482 760.063648,591.626818 C760.063648,591.473199 760.160623,591.336213 760.305123,591.285093 L761.421943,590.891026 C761.624243,590.819676 761.720576,590.589247 761.62938,590.395104 C760.465678,587.919281 759.424639,585.37898 758.139557,582.961664 C757.559632,581.870853 757.231457,582.45964 756.724746,583.298958 C756.413911,583.813312 756.175648,584.363309 755.894355,584.892434 C755.831418,585.009575 755.710038,585.083238 755.577741,585.084458 L754.104488,585.097944 C753.886133,585.1 753.715945,584.910031 753.741634,584.693217 C753.741634,584.693217 753.900262,583.34462 753.966411,582.777668 C754.647164,582.380455 754.959925,582.503761 755.778756,583.131916 C755.911695,583.23435 756.083168,583.453347 756.313083,583.407493 C756.009313,582.852615 755.584163,582.460347 755.060754,582.106291 C755.121764,582.018628 755.208464,581.908937 755.282962,581.839705 C755.833987,581.327342 756.286109,580.769895 756.640615,580.109886 C757.045214,579.357204 757.088885,578.653973 756.87631,577.835784 C756.74915,577.348853 756.568686,576.893648 756.451802,576.401707 C756.225099,575.44968 756.352258,574.699503 756.975212,573.929738 C757.338066,573.482175 757.69514,573.038079 758.025241,572.564442 C758.271212,572.211093 758.461309,571.834238 758.61801,571.432015 C758.576908,571.398813 758.535164,571.366124 758.494062,571.333049 C757.71826,572.377556 756.943101,573.422063 756.167299,574.466698 C756.262347,573.232865 756.885301,572.280067 757.291184,571.139934 C756.914843,571.542285 756.601439,571.99216 756.318863,572.463935 C755.909768,573.147 755.749856,573.857295 755.738938,574.644914 C755.725451,575.683705 756.01445,576.649411 756.307945,577.618714 C756.475564,578.172243 756.555842,578.639715 756.407489,579.196135 C756.126839,580.250532 755.460214,581.000773 754.672853,581.72372 C754.663219,581.687499 754.645879,581.577358 754.663219,581.551605 C755.233511,580.71293 755.645816,579.852163 755.970779,578.900585 C756.046561,578.679597 756.124912,578.478582 756.192988,578.257145 C756.217392,578.176611 756.191703,578.087984 756.113994,578.04457 C756.036286,578.001092 755.961146,578.042387 755.903989,578.105645 C755.758205,578.265879 755.706185,578.456554 755.625265,578.652688 C755.413332,579.165822 755.268833,579.665341 755.01066,580.169933 C754.643311,580.888513 754.237427,581.554238 753.59585,582.086254 C753.584932,582.095694 753.57273,582.105071 753.561812,582.114511 C752.93629,581.939121 751.834882,582.054849 751.602399,582.278791 C751.317895,582.552955 751.457257,583.173532 751.637721,583.751209 C751.598545,583.760907 751.555517,583.762127 751.506066,583.748769 C751.365419,582.939892 751.248535,582.121704 751.102109,581.311865 C751.071925,581.145144 751.057154,580.891339 750.83045,580.933661 C750.603746,580.976112 750.70907,581.2181 750.724484,581.384371 C750.798339,582.181623 750.870268,582.946828 750.948619,583.75275 C750.975592,584.028263 750.938343,584.271664 750.733475,584.503698 C750.341721,584.947151 750.219057,585.451551 750.270434,586.033659 C750.292912,586.285538 750.329518,586.537609 750.371905,586.787561 L749.629499,589.451233 C749.565277,589.68224 749.739318,589.910934 749.978866,589.910934 L750.039235,589.910934 C749.888955,590.124858 749.727116,590.322212 749.536377,590.498309 C749.241598,590.770738 749.153614,590.726939 748.956452,590.377764 C748.610295,589.763866 748.294965,589.06847 747.91156,588.441342 C747.698985,588.092745 747.657883,587.764571 747.752932,587.35644 C747.948166,586.511856 748.061839,585.631629 748.122208,584.767522 C748.183219,583.903351 748.090739,583.045217 748.138906,582.188752 C748.158815,581.82654 748.285974,581.566826 748.551211,581.33415 C748.690573,581.212256 748.839568,581.09062 748.986636,580.99814 C749.480504,580.687241 749.755374,580.333507 749.910791,579.775482 C750.05529,579.688782 750.203001,579.625652 750.367409,579.584614 C750.725768,579.495153 751.074494,579.475308 751.391108,579.257981 C751.669189,579.066792 751.888829,578.778563 752.096908,578.51307 C752.359576,578.178345 752.625455,577.83328 752.857297,577.485774 C752.951703,577.344936 752.805919,577.321302 752.71665,577.420396 C752.419945,577.749855 752.140579,578.11926 751.854791,578.468885 C751.70708,578.650055 751.563223,578.831033 751.352575,578.950421 C751.141927,579.069746 750.910728,579.071994 750.670537,579.112197 C750.429705,579.1524 750.187588,579.231007 749.96538,579.342497 C749.969233,579.253806 749.967949,579.18663 749.967949,579.092802 C749.967306,578.998973 749.960884,578.890053 749.958957,578.788389 C749.950609,578.422709 750.047584,578.1156 750.267865,577.822233 C750.628793,577.341082 751.014767,576.907198 751.424504,576.465736 C752.017915,575.827305 752.553526,575.193498 753.009503,574.430091 C753.145011,574.203837 753.256115,573.950931 753.162993,573.67118 C752.26517,575.158818 750.977518,576.286878 749.853633,577.598548 C749.58647,576.553399 749.372611,575.552756 748.758006,574.647932 C748.843421,575.249243 748.969939,575.830324 749.138842,576.414423 C749.426557,577.410314 749.494632,578.337487 749.252515,579.348855 C749.177376,579.665405 749.034161,579.9081 748.77085,580.097683 C748.310379,580.428812 747.822934,580.744784 747.356682,581.062426 C747.305946,581.096849 747.260349,581.131144 747.217962,581.148741 C747.203191,581.15497 747.20576,581.118621 747.19998,581.101859 C747.142823,580.929166 747.111354,580.752748 747.076032,580.567788 C747.04071,580.382893 747.049701,580.174686 746.995754,579.98979 C746.812721,579.358103 746.310505,578.934559 746.023433,578.354698 C745.976551,577.960182 746.010589,577.567786 746.024717,577.173591 C746.026002,577.131911 746.012515,577.13403 745.982973,577.119452 C745.931595,577.094213 745.862236,577.135251 745.841685,577.195748 C745.731223,577.513454 745.689479,577.836812 745.714525,578.173528 C745.728012,578.362854 745.729296,578.550447 745.769114,578.731938 C745.877649,579.2242 746.126188,579.629055 746.355461,580.070774 C746.454363,580.262541 746.523722,580.467795 746.589871,580.672984 C746.315001,580.408133 746.034993,580.184255 745.677276,580.040397 C745.320202,579.89654 744.97533,579.823841 744.741562,579.492776 C744.726148,579.47062 744.705597,579.472161 744.686331,579.46317 C744.666422,579.454115 744.659358,579.428683 744.646513,579.409416 C744.266319,578.830647 743.934291,578.228309 743.58107,577.629375 C743.521344,577.527583 743.344733,577.717231 743.38712,577.805728 C743.67355,578.409287 743.891262,579.052856 744.203381,579.645047 C744.466049,580.143602 744.862941,580.437097 745.347817,580.705866 C745.833336,580.974635 746.297661,581.221183 746.67914,581.634323 C746.68492,581.640553 746.691984,581.646076 746.695837,581.653975 C746.751711,581.757437 746.805657,581.849146 746.855108,581.958644 C746.986763,582.248799 747.064472,582.567276 747.190989,582.86212 C747.21732,583.111237 747.247504,583.360675 747.244293,583.611334 C747.225027,585.034686 747.002819,586.386623 746.589229,587.748194 C746.570604,587.736955 746.55198,587.725973 746.532071,587.717111 C746.003524,587.479361 745.412039,587.581538 744.899548,587.286887 C744.556602,587.090111 744.354303,586.734129 744.230997,586.354512 C744.16549,586.153433 744.15971,585.911573 744.128884,585.69264 C744.067231,585.257793 744.012,584.81434 743.938787,584.376282 C743.897685,584.129477 743.895758,583.884534 743.854014,583.628738 C743.8386,583.532405 743.723001,583.630857 743.688321,583.670739 C743.652999,583.710557 743.588777,583.791284 743.589419,583.827119 C743.595199,584.620004 743.656852,585.380457 743.737772,586.15902 C743.757038,586.343787 743.782085,586.523866 743.811627,586.707669 C743.645292,586.547114 743.47125,586.401137 743.326751,586.218683 C743.003072,585.811515 742.856646,585.33852 742.708935,584.847607 C742.541316,584.290096 742.426358,583.722694 742.219564,583.178413 C742.166259,583.037959 741.934418,583.296068 741.956253,583.400428 C742.080202,583.981894 742.232408,584.576205 742.38333,585.154524 C742.520765,585.683007 742.672329,586.188884 743.00821,586.620841 C743.379413,587.097946 743.848876,587.463883 744.270814,587.879143 C744.389625,587.996412 744.493665,588.109379 744.607338,588.215859 C744.771104,588.369478 744.94065,588.493876 745.133958,588.572227 C745.315706,588.645761 745.462133,588.741837 745.624614,588.816527 C746.02536,589.000523 746.389498,589.202758 746.750426,589.447316 C747.244293,590.508841 747.628341,591.554761 747.851191,592.715573 C747.895504,592.947608 747.88266,593.180477 747.674581,593.340454 C747.467144,593.500431 747.442097,593.658417 747.48063,593.90702 C747.519163,594.155623 747.560266,594.36762 747.542926,594.632215 C747.431179,596.347135 746.957863,597.778772 745.922604,599.03701 C745.704892,598.703569 745.491675,598.379697 745.259191,598.11825 C744.268888,597.003998 744.234208,595.48823 744.183473,594.049208 C744.169344,593.630609 743.603548,589.440893 742.728844,590.375002 L742.424432,590.700608 C742.199655,590.940541 741.796983,590.781592 741.796983,590.452904 L741.796983,585.534205 C741.796983,585.317776 741.608812,585.149579 741.393669,585.174112 L740.640344,585.260041 C740.425201,585.284574 740.23703,585.116376 740.23703,584.899948 L740.23703,584.198194 C740.23703,584.108155 740.270426,584.021391 740.330794,583.954664 L741.457248,582.712547 C741.517617,582.645884 741.551655,582.559056 741.551655,582.469081 L741.551655,581.521999 C741.551655,581.321883 741.389173,581.159594 741.1888,581.159594 L740.599242,581.159594 C740.39887,581.159594 740.23703,580.997369 740.23703,580.797189 L740.23703,578.5543 C740.23703,578.35412 740.39887,578.191895 740.599242,578.191895 L742.082771,578.191895 C742.349292,578.191895 742.524618,577.914777 742.410303,577.674266 C741.469451,575.688329 740.628784,573.65718 739.715548,571.658719 C739.258929,570.658911 738.785613,569.665975 738.273121,568.693525 C738.023298,568.219695 737.703472,567.245383 737.264194,567.029661 C737.262267,566.691789 737.259698,566.328421 737.255203,565.962292 C737.906414,565.862491 739.551781,565.756588 739.368749,567.278136 C739.237094,568.377938 740.705851,567.637587 741.387246,567.429507 C742.068,567.221364 742.320392,567.152004 742.320392,567.152004 C742.168828,566.962806 741.034025,567.025872 741.034025,567.025872 C741.676888,566.698019 742.683889,566.612347 743.284364,566.591603 C742.993439,566.432653 742.749395,566.319623 742.749395,566.319623 C743.108396,566.319623 743.382624,566.35366 743.589419,566.397267 C743.212436,566.054257 742.340301,565.38667 741.474588,565.619474 C740.821451,565.795314 740.578049,565.866536 740.605022,564.906996 C740.649336,563.315125 737.996967,563.293032 737.207036,563.910463 C737.183916,563.393347 737.15309,563.021694 737.110061,562.935958 C736.950148,562.615619 736.729224,563.288858 736.805649,567.096452 C736.752986,567.136719 736.69904,567.187519 736.643167,567.252897 C736.037553,567.965825 735.67791,569.18797 735.257898,570.028829 C733.973458,572.603296 732.696082,575.181232 731.415496,577.75769 C731.299896,577.989532 731.457882,578.263888 731.716697,578.280714 L733.205363,578.377369 C733.392891,578.389571 733.53996,578.54319 733.543813,578.731168 L733.588768,580.78929 C733.593264,580.992489 733.429498,581.159594 733.226556,581.159594 L732.784709,581.159594 C732.559932,581.159594 732.389743,581.361894 732.427634,581.583395 L732.627365,582.744722 C732.640851,582.824421 732.680669,582.897313 732.740396,582.951709 L733.538675,583.676069 C733.611888,583.742924 733.654917,583.837074 733.657486,583.93649 L733.784645,589.807986 C733.789141,589.999304 733.643999,590.160822 733.45326,590.177006 L731.120717,590.374553 C730.908784,590.392471 730.727678,590.225622 730.727678,590.013368 L730.727678,588.906823 C730.727678,588.706643 730.889517,588.544354 731.08989,588.544354 L731.762294,588.544354 C732.033311,588.544354 732.208637,588.257988 732.084689,588.016835 C731.055852,586.00508 730.07454,583.959802 728.992399,581.976113 C728.373941,580.775033 727.327765,584.034043 727.121612,584.5089 C726.558385,585.805864 725.995158,587.102956 725.431931,588.399919 C725.327892,588.639274 725.503218,588.906695 725.763959,588.906695 L727.12675,588.906695 C727.327123,588.906695 727.488962,589.068984 727.488962,589.2691 L727.488962,595.138862 C727.488962,595.189919 727.478687,595.240397 727.457493,595.287023 L727.059959,596.174699 C727.036197,596.22871 727.025279,596.287794 727.029133,596.346814 C727.077299,597.069247 727.286021,597.825076 727.228221,598.566583 C727.148586,599.578401 726.623892,599.666835 725.778088,600.0907 C724.86742,600.550209 726.311131,602.373792 725.266881,602.754565 C725.135226,602.802731 724.995864,602.813842 724.854575,602.808897 C724.640074,602.577954 724.433921,602.338149 724.226484,602.100913 C723.978587,601.81763 723.861061,601.488107 724.015194,601.119601 C724.183456,600.718599 724.39603,600.335193 724.545025,599.927705 C724.690167,599.528758 724.789069,599.113113 724.9021,598.708771 C724.923293,598.68289 724.94256,598.653797 724.960542,598.622392 C725.248256,598.581933 725.4923,598.547702 725.754326,598.510775 C725.702306,598.407506 725.690746,598.338788 725.656066,598.323439 C725.408169,598.21439 725.204585,598.115745 725.035039,598.017806 C724.990084,597.704275 724.927789,597.414698 725.085132,597.095835 C725.316974,596.626886 725.568724,596.246885 726.090207,596.096798 C726.778025,595.898866 727.058033,595.470954 726.91546,594.760209 C726.868578,594.525285 726.671416,594.861488 726.681692,594.981005 C726.71894,595.396457 726.377279,595.347969 726.09984,595.412512 C725.903963,595.458238 725.742766,595.518158 725.580926,595.63928 C725.563586,595.652125 725.547531,595.666703 725.530833,595.680318 C725.548173,595.56215 725.559091,595.443082 725.562944,595.324014 C725.579642,594.818266 725.408169,594.394272 725.290643,593.912479 C725.135868,593.273855 725.449913,592.762006 725.837172,592.279121 C725.925156,592.169686 725.889192,591.868678 725.739555,592.052802 C725.39404,592.477502 725.060728,592.920763 724.941917,593.466329 C724.80962,594.07464 725.040819,594.626756 725.092839,595.226333 C725.151281,595.898352 724.860355,596.35998 724.513557,596.89938 C724.457684,596.986337 724.405664,597.075092 724.358139,597.165452 C724.230338,596.996548 724.110885,596.820837 723.998496,596.642621 C723.552153,595.937527 723.153335,595.136229 723.05957,594.296848 C723.017184,593.922048 723.039662,593.521046 723.207281,593.177073 C723.286916,593.013885 723.393525,592.872532 723.518116,592.750382 C723.624082,592.560991 723.807757,592.376674 724.078774,592.149071 C724.19052,592.055692 724.284926,591.942212 724.439701,591.784804 C723.812895,591.608129 723.681882,592.257028 723.143059,592.407436 C723.557291,591.633882 723.536098,590.952615 723.442976,590.237246 C723.398663,589.899631 723.609311,589.522327 723.731975,589.172445 C723.787206,589.014845 723.908585,588.8803 724.056938,588.644476 C723.097461,589.120682 722.727543,589.897961 722.90608,590.772408 C722.96388,591.055049 722.976082,591.388683 722.881033,591.652571 C722.64855,592.295754 722.357624,592.917809 722.0789,593.556111 C722.151471,593.695087 721.97165,593.879084 721.831003,593.807861 C721.580538,593.680638 721.320439,593.568377 721.048779,593.494265 C720.841342,593.437814 720.624272,593.41052 720.410413,593.429144 C720.25628,593.546927 720.104074,593.663298 719.95251,593.779411 C719.947372,593.84267 719.942234,593.905928 719.936454,593.969187 C720.924189,593.786411 721.542004,594.297233 722.06734,594.957371 C722.337715,595.297105 722.657541,595.634078 722.803967,596.028466 C723.151408,596.966107 723.412791,597.936116 723.697295,598.896556 C723.72491,598.990641 723.690873,599.118315 723.649771,599.215097 C723.363983,599.885382 722.961311,600.481234 722.495059,601.135977 C722.259364,600.85019 722.082754,600.636459 721.834215,600.335579 C721.62742,599.951788 721.483562,599.541345 721.348054,599.122553 C721.269061,598.877546 721.193921,598.629136 721.089239,598.393569 C720.963364,598.112149 720.789965,597.972466 720.615281,597.721936 C720.324355,597.304942 720.053981,596.907858 719.688557,596.547765 C719.586444,596.446744 719.436165,596.772221 719.528002,596.862902 C719.974345,597.303722 720.398211,597.796626 720.559408,598.406735 C720.640327,598.712689 720.738587,599.017872 720.840058,599.321834 C720.834278,599.317788 720.828498,599.313293 720.822718,599.309311 C720.42711,599.047927 719.948656,598.903685 719.523507,598.697275 C719.017437,598.451498 718.557608,598.080166 718.128605,597.719624 C717.993739,597.606593 717.844101,597.975227 717.944288,598.077661 C718.315491,598.459718 718.667427,598.825655 719.137533,599.090057 C719.606995,599.353753 720.1349,599.478986 720.527297,599.865923 C720.94474,600.278164 721.099515,600.835675 721.406496,601.320808 C721.426405,601.352663 721.44824,601.383296 721.468791,601.414444 C721.233097,601.414573 720.998044,601.417013 720.768772,601.404875 C720.249858,601.377388 719.678282,601.250164 719.345612,600.817501 C719.019364,600.392736 718.874222,599.880437 718.485037,599.495169 C718.379071,599.389781 718.230076,599.714873 718.322555,599.8096 C718.718805,600.216447 718.885782,600.784747 719.198543,601.252348 C719.459927,601.643652 719.795808,601.891293 720.251784,602.014021 C720.859325,602.17753 721.536224,602.114914 722.153398,602.236807 C722.163673,602.290818 722.173307,602.345214 722.183582,602.39916 C722.347348,602.493759 722.610016,602.578083 722.775067,602.754244 C722.941402,602.931817 723.102599,603.114465 723.261228,603.299617 C723.195721,603.547064 723.205997,603.867147 723.243245,604.237258 C723.167463,604.21189 723.090397,604.188835 723.011404,604.171045 C722.494417,604.05551 721.994127,604.213111 721.47714,604.237451 C720.879233,604.26558 720.351971,604.094172 719.834341,603.805494 C719.724522,603.744033 719.594793,604.077024 719.691768,604.143109 C720.107285,604.4253 720.457295,604.676858 720.97364,604.731575 C721.47136,604.784301 721.951099,604.731061 722.447535,604.839596 C722.786627,604.913773 723.085901,605.046455 723.358203,605.217158 C723.444902,606.058145 723.499491,607.136432 723.183519,607.382531 C723.091039,607.454524 722.970302,607.478093 722.855344,607.499479 C721.95431,607.666649 721.052633,607.833819 720.151598,608.000989 C719.869663,608.05333 719.571031,608.11357 719.359741,608.30842 C718.863305,608.767093 719.375796,609.221528 719.891499,609.215866 C725.571293,609.15281 731.265216,609.142406 736.950148,609.116461 C743.608686,609.08602 750.267223,609.055643 756.925761,609.025266 C762.347382,609.000476 767.769004,608.975686 773.191268,608.950961 C774.654887,608.944282 776.119791,608.930859 777.584053,608.930859 C778.676469,608.925336 776.706138,607.244132 776.467232,607.124102 L776.467232,607.124102 Z" id="46"></path>
        </g>
    </g>
</svg>
