<?xml version="1.0" encoding="UTF-8"?>
<svg width="61px" height="61px" viewBox="0 0 61 61" version="1.1" xmlns="http://www.w3.org/2000/svg" xmlns:xlink="http://www.w3.org/1999/xlink">
    <title>27</title>
    <g id="页面-1" stroke="none" stroke-width="1" fill="none" fill-rule="evenodd">
        <g id="形状库素材-节日" transform="translate(-717.000000, -398.000000)" fill="#545458">
            <path d="M776.111284,406.05317 C776.50557,407.499475 776.298113,408.438335 775.811886,409.068957 C775.412885,409.585831 774.828234,409.895248 774.237099,410.105063 C774.228848,410.10801 774.221186,410.111546 774.212935,410.114493 C773.853422,410.240617 773.49273,410.33079 773.170346,410.407997 C773.829847,409.964794 774.707413,408.724178 775.016241,407.662729 C775.139419,407.241332 775.172423,406.848815 775.068106,406.544702 C774.699752,405.470287 773.226926,404.918051 772.582748,404.918051 C772.834408,405.422548 773.269949,406.354336 773.132038,407.42934 C773.050116,408.056426 772.774292,408.730661 772.1531,409.398413 C772.428924,408.109469 772.613395,406.697937 771.355099,405.592875 C771.271409,405.519204 771.181825,405.454374 771.088705,405.398974 C769.78267,404.616295 767.650932,405.521562 767.335621,406.66729 C768.010445,406.482818 768.992329,406.206995 770.127449,407.035644 C770.244143,407.119923 770.348461,407.226009 770.438045,407.347418 C770.511126,407.444664 770.573599,407.554286 770.628999,407.669212 C770.646091,407.705164 770.659057,407.743472 770.67497,407.780602 C770.709153,407.863703 770.74039,407.947982 770.765732,408.035798 C770.778698,408.082358 770.790486,408.130097 770.801094,408.177835 C770.820543,408.262115 770.835278,408.348162 770.846475,408.435388 C770.852959,408.485484 770.860031,408.534991 770.863567,408.585677 C770.87064,408.682333 770.87064,408.779578 770.867693,408.876824 C770.866514,408.924562 770.868871,408.97289 770.865335,409.020629 C770.864746,409.023576 770.864746,409.026523 770.864156,409.030059 C770.858263,409.100783 770.843529,409.170328 770.831741,409.239873 C770.817007,409.328278 770.798737,409.414915 770.774573,409.499784 C770.761607,409.546933 770.747462,409.594082 770.731549,409.640053 C770.700313,409.729636 770.662593,409.816273 770.620748,409.900553 C770.594816,409.951828 770.573599,410.006049 770.543541,410.054967 C770.462798,410.186985 770.366142,410.310162 770.252984,410.416837 C770.229409,410.439233 770.206424,410.459861 770.182849,410.4799 C770.158685,410.500527 770.133932,410.519977 770.109178,410.538247 C770.085014,410.557696 770.059082,410.576556 770.031971,410.593647 C770.006039,410.611918 769.978928,410.627831 769.951228,410.643743 C769.922939,410.661424 769.894649,410.676748 769.865181,410.690303 C769.83807,410.705038 769.810959,410.717414 769.783848,410.729791 C769.779133,410.732148 769.775597,410.733327 769.771472,410.736274 C769.742593,410.748651 769.713124,410.760438 769.683067,410.770457 C769.654188,410.781655 769.62413,410.792264 769.594072,410.801104 C769.492112,410.83293 769.383669,410.856505 769.268742,410.871239 C768.504924,410.967895 767.940311,410.762795 767.534237,410.412123 C766.66669,409.663038 766.514045,408.254453 766.660207,407.710468 C765.824486,408.29453 765.090136,410.269496 765.764371,411.523667 C765.832737,411.65156 765.916427,411.772969 766.01603,411.88377 C766.083807,411.959209 766.157478,412.026986 766.236453,412.08828 C766.268868,412.114212 766.305409,412.134251 766.340182,412.157825 C766.38792,412.19024 766.43448,412.223834 766.485166,412.252124 C766.527011,412.275698 766.572392,412.294558 766.616005,412.314597 C766.662565,412.336993 766.708535,412.359978 766.756863,412.378838 C766.804013,412.397108 766.85293,412.411842 766.901258,412.427755 C766.948997,412.443668 766.996736,412.459581 767.045653,412.472547 C767.09516,412.486102 767.144666,412.496121 767.194763,412.50673 C767.245448,412.517928 767.295544,412.528537 767.346819,412.537377 C767.395736,412.545039 767.444064,412.551522 767.493571,412.558005 C767.547204,412.564488 767.600836,412.570971 767.654468,412.576275 C767.699849,412.579811 767.744641,412.582758 767.790612,412.585116 C767.848959,412.588652 767.907306,412.591599 767.965064,412.592188 C768.003373,412.593367 768.041092,412.593367 768.078812,412.593367 C768.146,412.593367 768.211419,412.592188 768.276839,412.59042 C768.289805,412.589831 768.30336,412.589831 768.316326,412.589241 C768.336954,412.589241 768.356403,412.588063 768.37762,412.586884 C768.388818,412.586294 768.399427,412.585116 768.410625,412.584526 C768.466615,412.58099 768.520836,412.576865 768.575058,412.57215 C768.607473,412.569203 768.639888,412.566845 768.671714,412.563899 C768.727115,412.558594 768.778979,412.552701 768.830254,412.546218 C768.858543,412.542681 768.886833,412.539735 768.913354,412.535609 C768.96345,412.529126 769.008832,412.522054 769.054213,412.51557 C769.079556,412.511445 769.105488,412.507319 769.129652,412.503783 C769.174444,412.496121 769.213931,412.489049 769.253419,412.481387 C769.266385,412.47903 769.282887,412.476672 769.295264,412.473725 C769.301157,412.473136 769.306462,412.471957 769.312355,412.470779 C769.323553,412.468421 769.334751,412.466653 769.34536,412.464296 C769.347717,412.463706 769.350664,412.463706 769.353022,412.463117 C769.390152,412.455455 769.421977,412.448383 769.451446,412.442489 L769.452035,412.4419 C769.537493,412.42304 769.592894,412.409485 769.603502,412.406538 L769.60586,412.405359 C769.60586,412.405359 769.534546,412.731868 769.350664,413.226346 C768.755404,414.830601 766.980233,418.202365 762.64073,417.897663 C758.497486,417.606516 756.158881,416.419532 755.194088,415.797751 C757.202059,414.130434 758.282956,412.303399 758.282956,412.303399 C758.282956,412.303399 756.948042,411.515416 756.257894,410.394442 C756.952757,410.845307 757.383583,410.830573 757.93582,410.891867 C757.60047,410.456325 757.124852,409.635927 756.614461,408.557976 C756.701097,408.536759 756.785377,408.520846 756.87555,408.488431 C758.057818,408.058783 759.392143,406.477514 759.653233,404.806071 C759.731029,404.311004 759.725725,403.82124 759.662073,403.36625 C759.512374,402.27828 759.026147,401.377728 758.518113,401.03177 C758.671349,401.430771 758.732643,401.492065 758.610055,402.351361 C758.534026,400.982263 757.296947,400.220213 757.245082,400.189566 C757.272193,400.236126 757.848004,401.246299 757.428375,402.549977 C757.278676,403.013809 757.064736,403.365071 756.809541,403.65445 C756.348067,404.180164 755.753986,404.504316 755.172871,404.932196 C754.927695,404.190184 754.697842,403.411631 754.499225,402.607146 C753.762518,399.455805 753.885106,398.821647 753.885106,398.821647 L752.738788,399.538316 C752.738788,399.538316 753.271576,398.740904 753.291025,398.535215 C752.228397,399.312589 748.186524,402.075538 747.961975,402.075538 C747.772789,402.075538 743.594772,399.128117 742.756104,398.433844 C742.69481,398.903569 742.899909,399.455805 742.899909,399.455805 L742.08128,398.903569 C742.08128,398.903569 741.483073,402.915974 740.608453,405.25399 C740.020855,404.819037 739.418523,404.493707 738.951745,403.962688 C738.69655,403.67272 738.483199,403.321458 738.3335,402.857627 C737.913871,401.553949 738.489093,400.544364 738.516203,400.497215 C738.464929,400.528451 737.227849,401.290502 737.151231,402.65901 C737.028643,401.799714 737.089937,401.73842 737.243172,401.339419 C736.735728,401.685967 736.248912,402.586518 736.099802,403.673899 C736.035561,404.129479 736.030846,404.619242 736.108053,405.11372 C736.369732,406.785163 737.704057,408.366432 738.885736,408.79608 C738.908721,408.804332 738.929349,408.8061 738.951745,408.813761 C738.354128,409.934147 737.765351,410.878901 737.335114,411.340964 C738.246863,411.340964 739.369606,410.669676 739.438562,410.627831 L739.440919,410.626652 C739.392002,410.686767 737.82193,412.591599 737.622135,412.712419 C738.250399,413.393137 739.343674,414.567154 740.80707,415.679288 C739.976064,416.253331 737.609169,417.587067 733.182439,417.897663 C728.842347,418.202365 727.067765,414.830601 726.472505,413.226346 C726.288034,412.731868 726.21672,412.405359 726.21672,412.405359 L726.219667,412.406538 C726.230276,412.409485 726.285087,412.42304 726.371134,412.4419 L726.371724,412.442489 C726.401192,412.448383 726.433018,412.455455 726.470148,412.463117 C726.472505,412.463706 726.474863,412.463706 726.47781,412.464296 C726.488418,412.466653 726.499616,412.468421 726.510814,412.470779 C726.516708,412.471957 726.522012,412.473136 726.527316,412.473725 C726.540282,412.476672 726.556195,412.47903 726.569751,412.481387 C726.608649,412.489049 726.648136,412.496121 726.693518,412.503783 C726.717682,412.507319 726.743614,412.511445 726.768956,412.51557 C726.814338,412.522054 726.859719,412.529126 726.909226,412.535609 C726.936336,412.539735 726.964626,412.542681 726.992326,412.546218 C727.04419,412.552701 727.096055,412.558594 727.150866,412.563899 C727.182692,412.566845 727.215696,412.569203 727.248111,412.57215 C727.302333,412.576865 727.355965,412.58099 727.412544,412.584526 C727.423742,412.585116 727.434351,412.586294 727.445549,412.586884 C727.466766,412.588063 727.486215,412.589241 727.506843,412.589241 C727.519809,412.589831 727.533364,412.589831 727.54633,412.59042 C727.61175,412.592188 727.67717,412.593367 727.743768,412.593367 C727.782077,412.593367 727.819796,412.593367 727.858105,412.592188 C727.915863,412.591599 727.973621,412.588652 728.032558,412.585116 C728.077939,412.582758 728.122731,412.579811 728.168701,412.576275 C728.222333,412.570971 728.275966,412.564488 728.329598,412.558005 C728.378516,412.551522 728.427433,412.545039 728.47635,412.537377 C728.527625,412.528537 728.577721,412.517928 728.628407,412.50673 C728.678503,412.496121 728.72801,412.486102 728.777516,412.472547 C728.826434,412.459581 728.873583,412.443668 728.921911,412.427755 C728.970239,412.411842 729.019157,412.397108 729.066306,412.378838 C729.114634,412.359978 729.160604,412.336993 729.207164,412.314597 C729.250777,412.294558 729.295569,412.275698 729.338004,412.252124 C729.388689,412.223834 729.435249,412.19024 729.482988,412.157825 C729.51776,412.134251 729.554301,412.114212 729.586716,412.08828 C729.665102,412.026986 729.739362,411.959209 729.807139,411.88377 C729.906742,411.772969 729.989843,411.65156 730.058799,411.523667 C730.732444,410.269496 729.998683,408.29453 729.162373,407.710468 C729.309125,408.254453 729.156479,409.663038 728.288932,410.412123 C727.882859,410.762795 727.318246,410.967895 726.554427,410.871239 C726.438911,410.856505 726.331057,410.83293 726.229097,410.801104 C726.19845,410.792264 726.168982,410.781655 726.139513,410.770457 C726.110045,410.760438 726.080577,410.748651 726.051108,410.736274 C726.047572,410.733327 726.044036,410.732148 726.039321,410.729791 C726.01221,410.717414 725.985099,410.705038 725.957989,410.690303 C725.92852,410.676748 725.900231,410.661424 725.871941,410.643743 C725.843652,410.627831 725.816541,410.611918 725.791198,410.593647 C725.764087,410.576556 725.738155,410.557696 725.713402,410.538247 C725.689238,410.519977 725.664484,410.500527 725.639731,410.4799 C725.616746,410.459861 725.593171,410.439233 725.570186,410.416837 C725.457027,410.310162 725.360371,410.186985 725.279039,410.054967 C725.248981,410.006049 725.228353,409.951238 725.202421,409.899963 C725.160576,409.815684 725.122857,409.729636 725.09162,409.640053 C725.075118,409.594082 725.061563,409.546933 725.048597,409.499784 C725.024433,409.414915 725.006162,409.328278 724.991428,409.240463 C724.979641,409.170328 724.964907,409.100783 724.958423,409.029469 C724.958423,409.026523 724.958423,409.023576 724.957834,409.021218 C724.953709,408.97289 724.956655,408.924562 724.955477,408.876234 C724.95194,408.778989 724.95253,408.681743 724.959602,408.585677 C724.963138,408.534991 724.970211,408.485484 724.976104,408.435388 C724.987892,408.348162 725.002626,408.262115 725.022075,408.177835 C725.032684,408.130097 725.043882,408.082358 725.057437,408.035798 C725.08278,407.947982 725.114016,407.863703 725.148199,407.780602 C725.163523,407.743472 725.177078,407.705164 725.19417,407.669212 C725.24957,407.554286 725.312043,407.444664 725.384535,407.347418 C725.474708,407.226009 725.578437,407.119923 725.695131,407.035644 C726.83084,406.206995 727.812724,406.482818 728.487548,406.66729 C728.172237,405.521562 726.0405,404.616295 724.734464,405.398974 C724.640755,405.454374 724.551171,405.519204 724.468071,405.592875 C723.209774,406.697937 723.393656,408.109469 723.670069,409.398413 C723.048877,408.730661 722.773054,408.056426 722.690542,407.42934 C722.55322,406.354336 722.988762,405.422548 723.240421,404.918051 C722.596244,404.918051 721.123418,405.470287 720.755064,406.544702 C720.650746,406.848815 720.68375,407.241332 720.806339,407.662729 C721.115756,408.724178 721.993322,409.964794 722.652823,410.407997 C722.33044,410.33079 721.969158,410.240617 721.610234,410.114493 C721.601983,410.111546 721.593732,410.10801 721.58607,410.105063 C720.994936,409.895248 720.409695,409.585831 720.011284,409.068957 C719.525057,408.438335 719.3176,407.499475 719.711886,406.05317 C718.791296,406.851172 717.656176,408.048175 717.962647,409.459707 C718.053409,409.876978 718.272064,410.258887 718.594447,410.583628 C718.68521,410.675569 718.784813,410.762206 718.890899,410.844128 C718.928618,410.873596 718.971642,410.900118 719.011719,410.928997 C719.083032,410.979682 719.155524,411.029778 719.232731,411.075749 C719.282238,411.105807 719.335281,411.132328 719.387734,411.160028 C719.462584,411.200695 719.538612,411.240182 719.618766,411.276133 C719.674756,411.301476 719.733692,411.325051 719.792629,411.348625 C719.87514,411.38163 719.95883,411.412866 720.044878,411.441156 C720.106172,411.461194 720.168055,411.480054 720.231117,411.498324 C720.322469,411.524257 720.416178,411.547242 720.511656,411.56787 C720.574718,411.582014 720.63778,411.596159 720.70261,411.607947 C720.80516,411.626217 720.910656,411.639772 721.016742,411.652738 C721.079805,411.6604 721.141099,411.669241 721.20475,411.674545 C721.324392,411.684564 721.44698,411.68869 721.570747,411.691047 C721.625558,411.692226 721.67919,411.696351 721.73459,411.696351 C721.74461,411.695762 721.754039,411.696941 721.764059,411.696941 C721.935564,411.694583 722.111195,411.685743 722.289184,411.668651 C722.182509,412.080029 722.08821,412.504962 722.009235,412.940504 C721.451105,416.008744 721.6509,419.567337 723.639422,422.255436 C725.91025,425.323677 730.727729,425.38556 731.12673,425.29303 C730.740106,424.935874 730.267434,424.522139 730.237966,424.496796 C730.303386,424.51153 732.254777,424.981255 733.642734,424.710146 C733.090498,424.341793 733.090498,424.341793 733.090498,424.341793 C733.090498,424.341793 734.931678,424.249851 738.123096,422.255436 C738.378292,422.095718 738.621111,421.929517 738.857446,421.760958 C738.869234,422.543636 739.023058,423.505482 739.524609,424.482062 C739.954257,425.321319 740.641458,426.168238 741.712926,426.91968 C741.816654,428.517452 741.897987,429.595403 741.95987,430.327985 C741.920972,430.349202 741.176602,430.751739 741.176602,431.068229 C741.176602,431.393559 740.997435,432.636532 740.997435,432.636532 C740.997435,432.636532 736.08271,438.595025 736.099213,441.875437 C736.099802,442.135347 736.132217,442.379934 736.200584,442.602125 C737.131193,445.624985 741.641612,449.346832 741.641612,449.346832 C741.641612,449.346832 738.339983,455.81159 737.828413,456.13692 C735.595894,455.998419 734.758405,456.835319 734.433074,457.857869 C734.844452,457.857869 735.249347,457.860227 735.64599,457.864942 C735.858162,457.867889 736.067976,457.870246 736.275433,457.873782 C737.104082,457.888516 737.892065,457.910323 738.626415,457.933898 C738.951156,457.945096 739.265877,457.955704 739.567633,457.965723 C741.890914,458.047645 743.52228,458.121316 743.921281,457.950989 C744.571941,457.672219 746.622346,450.55739 746.61881,450.090612 C746.61881,450.090612 746.806818,449.12582 746.847484,448.102091 C746.88874,447.08013 746.254582,446.36405 746.233954,446.589188 C746.213915,446.813736 746.193288,447.856914 746.193288,447.856914 C746.193288,447.856914 745.906856,446.138912 745.559129,446.138912 C745.399411,446.138912 745.400001,446.867369 745.445971,447.655351 C744.310263,445.510648 742.759051,442.742395 742.759051,442.742395 C742.760229,442.740626 742.760229,442.738269 742.761408,442.73709 C743.28064,441.689197 743.853504,440.6637 744.457604,439.661188 C744.643844,439.35236 744.85189,438.982238 745.081154,438.596203 C745.123588,438.525479 745.166022,438.454166 745.210225,438.382263 C745.236746,438.338061 745.264446,438.293859 745.291557,438.249656 C745.332813,438.183058 745.374658,438.117049 745.417682,438.05045 C745.444792,438.006837 745.473082,437.963813 745.501372,437.92079 C745.552057,437.842993 745.604511,437.765197 745.657554,437.688579 C745.677592,437.659111 745.697631,437.628464 745.718848,437.598996 C745.789572,437.497625 745.862653,437.398611 745.936913,437.301366 C745.962845,437.267772 745.989367,437.235357 746.015888,437.202352 C746.068342,437.135754 746.121385,437.070924 746.175607,437.007272 C746.206254,436.970731 746.23749,436.93478 746.268726,436.900007 C746.333557,436.827515 746.399566,436.75797 746.466164,436.690782 C746.487381,436.670155 746.50742,436.647759 746.528048,436.627131 C746.614095,436.54403 746.7025,436.466234 746.792673,436.393153 C746.819194,436.371935 746.846305,436.352486 746.873416,436.331858 C746.942961,436.278816 747.014275,436.229309 747.086177,436.183928 C747.115056,436.165657 747.143935,436.146208 747.173404,436.129706 C747.271828,436.072537 747.371431,436.020084 747.473391,435.978828 C747.922488,435.798482 748.382783,435.834433 748.853097,435.84681 C749.257992,435.85624 749.541477,435.812037 749.972304,435.905157 C750.064245,435.925196 750.16149,435.967041 750.261093,436.019494 C750.292919,436.036586 750.326513,436.058982 750.358928,436.07902 C750.428473,436.121455 750.499197,436.169783 750.571689,436.225773 C750.611177,436.25583 750.650664,436.287656 750.69133,436.321839 C750.758518,436.378418 750.826295,436.442659 750.895251,436.508668 C750.941222,436.552871 750.986013,436.593537 751.031984,436.641865 C751.106244,436.717893 751.181094,436.802173 751.256533,436.887041 C751.341401,436.983108 751.426859,437.084479 751.513496,437.190565 C751.570665,437.261289 751.628423,437.331424 751.68677,437.406273 C751.748064,437.484659 751.809358,437.56717 751.871241,437.650271 C751.926053,437.723941 751.980274,437.797612 752.035085,437.87364 C752.096379,437.959099 752.157673,438.045735 752.218968,438.133551 C752.274368,438.213705 752.329179,438.294448 752.38399,438.37578 C752.442927,438.463007 752.501863,438.549054 752.560211,438.638048 C752.62622,438.739419 752.691639,438.841969 752.757059,438.944519 C752.846643,439.084788 752.934458,439.225057 753.021684,439.366505 C753.078853,439.458446 753.136021,439.550977 753.191422,439.642918 C753.245054,439.731912 753.297508,439.819728 753.349372,439.907543 C753.401825,439.995948 753.45369,440.083174 753.504375,440.169811 C753.553293,440.25468 753.60221,440.338959 753.649949,440.42147 C753.702402,440.512822 753.753088,440.601817 753.803184,440.690221 C753.84385,440.762714 753.885695,440.835795 753.925183,440.90593 C753.995907,441.032643 754.063094,441.154642 754.127925,441.272515 C754.163876,441.338524 754.198059,441.400408 754.232242,441.46347 C754.286464,441.563662 754.339507,441.662086 754.388424,441.752849 C754.417893,441.80766 754.443825,441.857167 754.470346,441.907852 C754.509834,441.981523 754.547553,442.053425 754.581737,442.118256 C754.604133,442.16069 754.625939,442.202535 754.645978,442.241433 C754.678982,442.305085 754.709629,442.364021 754.737329,442.416475 C754.750885,442.444175 754.767387,442.475412 754.779764,442.499576 C754.813358,442.565585 754.844005,442.6257 754.863454,442.664598 C754.889386,442.715284 754.902941,442.742395 754.902941,442.742395 C754.902941,442.742395 753.511448,445.218322 752.398724,447.306446 C752.29146,446.47544 752.125258,445.566048 751.921338,445.668598 C751.552984,445.85248 751.38914,448.245896 751.38914,448.245896 C751.38914,448.245896 751.041414,446.609226 750.857532,447.264012 C750.67306,447.918798 751.042593,450.090612 751.042593,450.090612 C750.941811,450.748934 753.088872,457.672219 753.740711,457.950989 C754.107297,458.10835 755.524133,458.058843 757.56393,457.983994 L757.565108,457.983994 C757.763725,457.9781 757.968824,457.971028 758.179817,457.962187 C759.057973,457.932719 760.033374,457.900304 761.075373,457.879676 C761.24629,457.87555 761.418974,457.873782 761.593426,457.870246 C762.123856,457.862584 762.670198,457.857869 763.228328,457.857869 C762.903587,456.835319 762.066098,455.998419 759.833579,456.13692 C759.32142,455.81159 756.018611,449.346832 756.018611,449.346832 C756.018611,449.346832 760.530799,445.624985 761.460819,442.602125 C761.549224,442.313925 761.577513,441.988595 761.555707,441.636154 C761.351786,438.290322 756.666325,432.473278 756.666325,432.473278 C756.666325,432.473278 756.483621,431.393559 756.483621,431.068229 C756.483621,430.742899 755.693281,430.324449 755.693281,430.324449 L755.434549,430.366883 L755.613717,427.011621 C755.613717,427.011621 757.899868,425.443318 758.653668,422.816513 C761.252773,424.263407 762.732671,424.341793 762.732671,424.341793 C762.732671,424.341793 762.732671,424.341793 762.179846,424.710146 C763.568392,424.981255 765.519784,424.51153 765.585203,424.496796 C765.555735,424.522139 765.083063,424.935874 764.696439,425.29303 C765.09544,425.38556 769.912919,425.323677 772.183747,422.255436 C774.172269,419.567337 774.372064,416.008744 773.813934,412.940504 C773.734959,412.504962 773.640661,412.080029 773.533985,411.668651 C773.711974,411.685743 773.887016,411.694583 774.059111,411.696941 C774.06913,411.696941 774.07856,411.695762 774.088579,411.696351 C774.143979,411.696351 774.197612,411.692226 774.252423,411.691047 C774.3756,411.68869 774.498778,411.684564 774.61783,411.674545 C774.682071,411.669241 774.743365,411.6604 774.806427,411.652738 C774.912513,411.639772 775.018009,411.626217 775.120559,411.607947 C775.185389,411.596159 775.248452,411.582014 775.312103,411.56787 C775.406991,411.546652 775.5007,411.524257 775.591463,411.498324 C775.655114,411.480054 775.716998,411.461194 775.778292,411.441156 C775.864339,411.412866 775.948029,411.38163 776.030541,411.348625 C776.089477,411.325051 776.147824,411.302065 776.204404,411.276133 C776.284557,411.239593 776.360586,411.200105 776.436024,411.160028 C776.487889,411.132328 776.540932,411.105807 776.590438,411.075749 C776.667645,411.029778 776.740137,410.979093 776.811451,410.928407 C776.851528,410.900118 776.893962,410.873596 776.932271,410.844128 C777.038357,410.762206 777.13796,410.675569 777.228133,410.583628 C777.551105,410.258887 777.76976,409.876978 777.860523,409.459707 C778.166993,408.048175 777.031874,406.851172 776.111284,406.05317" id="27"></path>
        </g>
    </g>
</svg>
