<?xml version="1.0" encoding="UTF-8"?>
<svg width="54px" height="61px" viewBox="0 0 54 61" version="1.1" xmlns="http://www.w3.org/2000/svg" xmlns:xlink="http://www.w3.org/1999/xlink">
    <title>110</title>
    <g id="页面-1" stroke="none" stroke-width="1" fill="none" fill-rule="evenodd">
        <g id="形状库素材-节日" transform="translate(-806.000000, -950.000000)" fill="#545458">
            <path d="M838.38872,965.26194 L838.380437,965.26194 C839.217006,961.06253 840.956406,955.570994 843.913387,954.65988 C844.435207,954.502505 844.973593,954.419677 845.511979,954.419677 C846.779256,954.419677 848.029968,954.850385 848.965931,955.64554 C849.719672,956.28332 850.564523,957.434638 850.316038,959.26515 C850.03442,961.261319 842.811767,966.810835 838.38872,965.26194 Z M825.252104,956.208774 C825.67453,954.668163 826.999788,953.309774 828.623228,952.746539 C829.128483,952.572599 829.633737,952.48977 830.122426,952.48977 C830.909297,952.48977 831.638189,952.713408 832.242838,953.160682 C833.253347,953.897857 834.123047,956.589786 834.263856,964.706988 C826.933525,960.101718 824.871093,957.592012 825.252104,956.208774 Z M858.640311,967.779929 C858.060511,967.340938 852.063721,967.067603 844.38551,966.968209 C844.402076,966.959926 844.418641,966.951643 844.426924,966.94336 C849.462903,964.077491 852.055438,961.658896 852.345338,959.546767 C852.643521,957.401506 851.914629,955.463317 850.291189,954.080079 C848.444111,952.498053 845.702485,951.959667 843.308738,952.696842 C839.788523,953.773614 837.858617,958.627369 836.831542,962.727385 C836.781845,962.04819 836.715582,961.335865 836.632753,960.59869 C836.069519,955.637257 835.025879,952.655428 833.460418,951.50411 C831.936372,950.377641 829.923637,950.120873 827.952317,950.80835 C825.67453,951.595222 823.87715,953.458865 823.272501,955.662106 C822.261992,959.32313 828.416157,964.210017 831.936372,966.65346 C831.936372,966.65346 808.537294,967.639121 808.015473,968.368012 C806.756479,970.107413 806.168396,974.903189 807.419107,975.905415 L811.56882,975.905415 L810.649423,1008.28311 C810.649423,1008.28311 813.896304,1008.97887 819.437537,1009.58352 L819.437537,974.406217 L823.504421,974.406217 L823.504421,1009.95625 C826.809282,1010.2213 830.644246,1010.41181 834.893353,1010.42837 C849.39664,1010.48635 855.824139,1007.72816 855.824139,1007.72816 L856.602728,975.300766 C858.507786,975.118543 859.659103,974.903189 859.725366,974.671269 C860.238903,972.915302 860.11466,968.889833 858.640311,967.779929 L858.640311,967.779929 Z" id="110"></path>
        </g>
    </g>
</svg>
