<?xml version="1.0" encoding="UTF-8"?>
<svg width="38px" height="61px" viewBox="0 0 38 61" version="1.1" xmlns="http://www.w3.org/2000/svg" xmlns:xlink="http://www.w3.org/1999/xlink">
    <title>37</title>
    <g id="页面-1" stroke="none" stroke-width="1" fill="none" fill-rule="evenodd">
        <g id="形状库素材-节日" transform="translate(-802.000000, -476.000000)" fill="#545458">
            <path d="M820.554921,483.989631 C820.643064,483.932548 820.735404,483.88218 820.831102,483.83601 C822.650203,482.962137 825.281058,485.019643 825.09218,486.978094 C825.005716,487.870435 824.231738,488.636858 823.331002,488.72752 C822.459647,488.815662 821.660485,488.315347 821.010746,487.717654 C819.912738,486.708628 819.409064,484.889527 820.46426,484.05259 C820.493641,484.030764 820.523862,484.009778 820.554921,483.989631 Z M812.852914,489.653439 C814.656905,488.521853 817.622702,491.217346 816.76226,493.649249 C816.76226,493.649249 816.583456,494.61966 815.853129,495.00581 C814.138121,495.913261 811.6718,493.441064 811.953017,491.135918 C812.019334,490.594469 812.287121,490.078204 812.718601,489.747458 C812.750501,489.723954 812.802547,489.687018 812.852914,489.653439 Z M822.97927,491.506118 C823.992493,490.94872 824.326596,494.683459 822.028166,495.16027 C821.272656,495.316408 820.470136,494.973071 819.917774,494.40308 C819.917774,494.40308 819.665938,493.455335 820.366044,493.661001 C820.991438,493.844842 821.662164,494.894162 822.558702,493.842324 C822.96332,493.368031 823.035513,492.657012 822.792071,492.061838 C822.792071,492.061838 822.656079,491.708427 822.97927,491.506118 Z M818.724068,512.062713 L818.912106,512.208778 C819.348623,514.487061 819.189127,516.86524 818.670343,518.937856 L818.524278,519.035233 C818.524278,519.035233 818.421864,518.94793 818.469713,518.664194 C818.771917,516.798083 818.739178,514.878248 818.494897,513.009619 C818.324487,511.710141 818.557017,511.942671 818.724068,512.062713 Z M812.084812,504.572248 C812.084812,504.572248 813.312096,506.141191 813.966033,507.245076 C816.296362,511.178766 817.307906,516.029981 816.155333,520.843421 L816.015984,520.987807 C816.015984,520.987807 816.205701,519.53303 816.280412,518.404802 C816.591011,513.666073 814.379045,508.899643 811.801076,505.142239 L811.645777,504.902155 L811.704539,504.67802 C811.704539,504.67802 811.873269,504.567212 812.084812,504.572248 Z M807.643251,503.172036 C807.643251,503.172036 797.470725,491.493527 805.244086,481.364652 C813.018287,471.235778 826.008027,479.490987 830.733323,485.793621 C835.45862,492.096256 843.211834,505.03227 838.493253,522.6961 C838.493253,522.6961 837.494301,528.316257 835.189994,529.217832 C832.885688,530.119408 832.286317,527.568302 832.54319,523.994738 C832.800064,520.422014 829.700793,521.285814 828.990613,523.55906 C828.281273,525.833146 826.685467,535.679963 823.552618,536.505148 C820.41893,537.330333 819.546735,533.121302 820.481049,528.765366 C820.481049,528.765366 821.427116,526.528216 821.525332,524.82412 C821.624388,523.120025 820.669927,522.503025 819.686085,523.591799 C818.700563,524.680573 817.248305,528.838398 815.20339,529.34459 C813.156797,529.850782 811.93371,527.871345 812.887332,525.285821 C813.840954,522.699458 815.716298,517.348766 813.861101,513.778561 C812.005903,510.209194 807.643251,503.172036 807.643251,503.172036 L807.643251,503.172036 Z" id="37"></path>
        </g>
    </g>
</svg>
