<?xml version="1.0" encoding="UTF-8"?>
<svg width="34px" height="61px" viewBox="0 0 34 61" version="1.1" xmlns="http://www.w3.org/2000/svg" xmlns:xlink="http://www.w3.org/1999/xlink">
    <title>39</title>
    <g id="页面-1" stroke="none" stroke-width="1" fill="none" fill-rule="evenodd">
        <g id="形状库素材-节日" transform="translate(-174.000000, -554.000000)" fill="#545458">
            <path d="M188.716331,563.380887 C188.735961,563.348018 188.764265,563.319258 188.800786,563.295519 C188.837307,563.270867 188.882958,563.25352 188.937283,563.24302 C189.032238,563.224759 189.107563,563.232977 189.16554,563.267215 C189.222148,563.300997 189.259125,563.358518 189.274647,563.439777 C189.27556,563.443886 189.27693,563.454386 189.278756,563.471277 C189.280582,563.487711 189.280582,563.507798 189.278756,563.53108 C189.27693,563.553906 189.271451,563.578558 189.263234,563.605492 C189.25456,563.632883 189.240865,563.658448 189.220778,563.684012 C189.200692,563.709577 189.173757,563.732403 189.139975,563.752946 C189.106193,563.773032 189.063281,563.788554 189.010782,563.799054 C188.968783,563.806814 188.929523,563.809554 188.893914,563.805901 C188.85785,563.802706 188.825437,563.793119 188.797134,563.777598 C188.76883,563.762076 188.744634,563.740163 188.725004,563.710947 C188.705374,563.68173 188.691222,563.645209 188.682549,563.60047 C188.675244,563.563036 188.674331,563.525602 188.679353,563.487255 C188.684375,563.449364 188.696701,563.413756 188.716331,563.380887 Z M190.50906,562.639052 C191.185157,562.325884 191.17694,564.230916 191.284677,565.347092 C191.284677,565.347092 189.83342,562.952221 190.50906,562.639052 Z M193.034038,562.860005 C193.81559,563.283193 191.660388,565.406895 191.660388,565.406895 C191.965796,564.321306 192.25203,562.437273 193.034038,562.860005 Z M194.14291,563.832379 C194.16254,563.79951 194.190387,563.771206 194.226909,563.747011 C194.263886,563.722816 194.309538,563.705468 194.363863,563.694969 C194.458361,563.676708 194.534142,563.684925 194.591663,563.718707 C194.648727,563.752946 194.685248,563.810467 194.701226,563.891726 C194.701683,563.895378 194.703052,563.905878 194.705335,563.922769 C194.707161,563.93966 194.707161,563.959747 194.705335,563.982572 C194.703052,564.005398 194.698031,564.030506 194.689357,564.057441 C194.68114,564.084375 194.666988,564.110396 194.646901,564.135504 C194.627271,564.161069 194.600337,564.183895 194.566555,564.204895 C194.532773,564.224981 194.489861,564.240503 194.437361,564.250546 C194.395362,564.258763 194.356102,564.261046 194.320037,564.257394 C194.283973,564.254198 194.252017,564.245068 194.223713,564.22909 C194.195409,564.214025 194.171214,564.191656 194.151584,564.162895 C194.131497,564.133222 194.117802,564.096701 194.109128,564.051962 C194.101824,564.014985 194.100454,563.977094 194.105932,563.939203 C194.110498,563.900856 194.12328,563.865705 194.14291,563.832379 Z M187.801933,604.358935 L187.815172,604.273567 L187.857628,604.334283 L187.801933,604.358935 Z M194.863745,604.729167 L194.948657,604.620974 L194.965548,604.786232 L194.863745,604.729167 Z M207.416962,562.154691 L200.64184,566.647243 C200.541407,567.358492 200.373867,567.984829 200.17437,568.53721 C199.639336,570.019967 198.865545,570.940299 198.467465,571.345683 C196.992469,570.211703 195.827446,569.379478 195.827446,569.379478 L195.748013,569.376739 L195.179653,567.29321 L195.16687,567.245276 C195.16687,567.245276 197.842954,567.738311 197.81465,567.207842 C197.805064,567.032541 197.575894,566.319923 197.123945,565.416026 C197.24903,565.395026 197.370006,565.373113 197.486874,565.351657 C197.486874,565.351657 197.48733,565.351657 197.487787,565.351657 C197.637523,565.323353 197.780412,565.295049 197.91691,565.266289 C197.917366,565.265833 197.917823,565.265833 197.917823,565.265833 C200.76236,564.665973 200.850011,563.903595 200.850011,563.903595 C201.232113,559.485455 195.370932,554.596649 195.370932,554.596649 C194.362493,554.156569 197.16914,560.369266 197.199726,560.818019 C197.218443,561.090101 196.106832,561.3809 195.224848,561.568984 C195.184218,561.577658 195.142675,561.586788 195.102959,561.595005 C195.064155,561.603222 195.027634,561.610527 194.989743,561.617831 C194.903006,561.635635 194.820377,561.652069 194.742769,561.667134 C194.7204,561.671243 194.696205,561.676265 194.674749,561.680373 C194.632749,561.688134 194.594859,561.695438 194.556968,561.702286 C194.534599,561.706395 194.51086,561.71096 194.490317,561.714612 C194.456992,561.720546 194.426405,561.726481 194.397645,561.731503 C194.375732,561.735611 194.353819,561.739264 194.334646,561.742916 C194.324603,561.744742 194.315472,561.746111 194.306342,561.747481 C193.525703,561.113383 192.612676,560.618522 191.564064,560.411721 C191.564064,560.411721 189.294734,560.263811 187.822477,561.966151 C187.810607,561.963868 187.797368,561.961129 187.784129,561.957934 C187.76313,561.953825 187.738935,561.948347 187.713826,561.942869 C187.687349,561.937391 187.659501,561.930999 187.629371,561.924608 C187.605633,561.91913 187.579155,561.913195 187.55359,561.907261 C187.518895,561.8995 187.484656,561.891739 187.446766,561.883065 C187.416179,561.876218 187.38331,561.868457 187.351354,561.861153 C187.28379,561.845631 187.213487,561.82874 187.139075,561.810936 C187.099359,561.801349 187.059642,561.791763 187.018099,561.781719 C186.979296,561.772133 186.938666,561.761633 186.899406,561.751589 C186.024269,561.531093 184.923157,561.199664 184.951461,560.928495 C184.998482,560.481112 188.03019,554.37524 187.006686,554.777885 C187.006686,554.777885 180.970661,559.44939 181.190701,563.878487 C181.190701,563.878487 181.255526,564.719386 184.49723,565.447982 C184.498143,565.448438 184.499056,565.448438 184.499969,565.448438 C184.633728,565.479025 184.774334,565.508698 184.919505,565.538371 C184.95557,565.545676 184.992091,565.55298 185.028612,565.560284 C185.145936,565.583566 185.266456,565.606848 185.390628,565.629674 C185.433996,565.637891 185.475996,565.645652 185.520278,565.653869 C185.586929,565.665739 185.655406,565.677608 185.724339,565.689477 C185.178805,567.001042 184.903071,568.073849 185.235413,568.006741 C185.876358,567.877548 188.03019,567.076366 188.03019,567.076366 C188.03019,567.076366 187.924279,568.144609 187.927931,569.167656 C187.617045,569.402304 186.335611,570.373765 184.860615,571.578049 C184.824551,571.549288 184.788942,571.520985 184.749682,571.487659 C184.733704,571.474877 184.716813,571.459812 184.700835,571.446116 C184.657466,571.408682 184.611815,571.368965 184.564794,571.326053 C184.541512,571.305054 184.51686,571.282228 184.492665,571.259402 C184.448383,571.218772 184.403188,571.175404 184.35708,571.130209 C184.331059,571.104644 184.305038,571.078623 184.278103,571.051688 C184.226974,571.000102 184.174475,570.944864 184.121519,570.8878 C184.098694,570.863148 184.076324,570.840323 184.053042,570.814758 C183.977261,570.731216 183.900567,570.643109 183.822503,570.549067 C183.806525,570.529893 183.790547,570.508437 183.774569,570.488807 C183.71157,570.411656 183.648571,570.33131 183.585116,570.246855 C183.557725,570.21079 183.53079,570.172899 183.5034,570.135465 C183.449987,570.06151 183.396119,569.985272 183.342707,569.906295 C183.313946,569.863383 183.284729,569.820014 183.255969,569.775732 C183.201644,569.69219 183.147775,569.604996 183.094363,569.516433 C183.068798,569.47352 183.042777,569.432434 183.017669,569.388609 C182.942801,569.258959 182.868845,569.124744 182.797173,568.983681 C182.793977,568.978659 182.791238,568.973638 182.788499,568.967703 C182.54609,568.491103 182.323768,567.948764 182.143902,567.335666 L174.787182,563.876205 C174.787182,563.876205 178.153971,566.623505 176.42424,570.884148 C176.42424,570.884148 179.490643,568.643122 178.917262,573.062175 C178.917262,573.062175 180.17861,570.980016 181.026356,571.523724 C181.055116,571.541984 181.08342,571.564353 181.111267,571.589005 C181.115376,571.592201 181.119485,571.595853 181.123137,571.599505 C181.148245,571.622331 181.17244,571.648808 181.196635,571.677112 C181.203483,571.685786 181.210331,571.693547 181.216722,571.702221 C181.238178,571.729611 181.259178,571.759285 181.279721,571.790784 C181.288851,571.804936 181.297981,571.820001 181.306655,571.835066 C181.324916,571.865196 181.34272,571.897152 181.360067,571.931847 C181.370567,571.953303 181.381067,571.976585 181.391567,571.999868 C181.406175,572.033193 181.421697,572.066519 181.435849,572.10304 C181.447718,572.133626 181.459131,572.167865 181.470544,572.200734 C181.482413,572.235429 181.494739,572.268754 181.506152,572.306188 C181.519847,572.35047 181.53263,572.399774 181.545412,572.448621 C181.553629,572.480577 181.562759,572.509793 181.57052,572.542662 C181.591063,572.628487 181.610237,572.718877 181.627584,572.816114 C181.627584,572.816114 182.902627,570.867257 184.381732,571.971107 C182.217857,573.76338 179.833029,575.918125 179.544055,576.93113 C179.05376,578.649447 181.670497,588.046784 183.309381,589.713059 C182.927736,591.39303 182.656567,593.527689 183.08432,595.382048 L183.702896,593.659621 C183.702896,593.659621 183.032734,597.074344 184.693531,600.515089 L184.754704,598.682186 C184.754704,598.682186 186.154375,601.822088 185.937075,603.855857 L186.37898,603.604774 C186.37898,603.604774 186.456587,604.849687 186.960122,605.532175 C186.955557,605.553631 186.951448,605.572805 186.946427,605.594718 C186.940948,605.618913 186.935927,605.642652 186.930449,605.667303 C186.911275,605.752671 186.891645,605.842148 186.870645,605.935733 C186.868363,605.94532 186.866537,605.953994 186.864254,605.963581 C186.839602,606.073601 186.813581,606.189099 186.786647,606.308705 C186.301373,608.449298 185.439475,612.058496 184.84555,613.43169 C184.84555,613.43169 185.327629,614.021962 186.571629,614.183112 L187.230378,612.200472 L187.313007,614.222372 C187.857628,614.213698 188.504508,614.127873 189.268712,613.916964 L189.758095,605.66776 C190.176262,604.848774 191.292438,602.355752 191.298373,599.082548 C191.300199,597.965003 191.428936,596.682655 191.612911,595.41309 C191.738452,596.742459 191.806472,598.090087 191.746669,599.251915 C191.60515,602.004237 192.278964,604.24435 192.718587,605.386091 L192.437375,614.062135 C193.178753,614.341978 193.815133,614.486693 194.356559,614.545127 L194.624076,612.539662 L195.098393,614.574344 C196.35198,614.52778 196.886558,613.984072 196.886558,613.984072 C196.405392,612.515923 195.858489,608.652904 195.578646,606.510028 C195.560842,606.373074 195.544407,606.246619 195.528886,606.12473 C196.239678,605.575088 196.418631,604.029332 196.418631,604.029332 L196.846385,604.30324 C196.737734,602.260797 198.302207,599.199872 198.302207,599.199872 L198.266143,601.033688 C199.701422,598.423799 199.721052,595.762324 199.659879,594.712342 C199.660336,594.712342 199.660792,594.712342 199.660792,594.712342 C199.659423,594.685407 199.657597,594.665321 199.655771,594.640669 C199.653488,594.604605 199.651205,594.570366 199.648923,594.538867 C199.646184,594.505085 199.643901,594.477237 199.641619,594.448933 C199.63888,594.421543 199.636597,594.395521 199.634771,594.373609 C199.632032,594.347131 199.630206,594.33024 199.627923,594.311523 C199.626554,594.296914 199.625184,594.282762 199.623815,594.273176 C199.621076,594.251719 199.619706,594.240307 199.619706,594.240307 L200.14561,595.992863 C200.25426,595.615783 200.331868,595.22455 200.387562,594.827383 L200.387562,594.826927 C200.614906,593.184847 200.430018,591.428182 200.169349,590.028054 C200.288042,590.090596 200.398062,590.128487 200.497582,590.135791 C202.034207,590.250376 205.039438,578.898704 204.45647,577.011476 C204.118649,575.919038 201.281416,573.535123 198.950457,571.720025 C200.281651,570.108074 201.948839,571.994389 201.948839,571.994389 C201.953861,571.855609 201.964361,571.73235 201.977143,571.615483 C201.980795,571.586723 201.983991,571.558419 201.987643,571.531028 C202.002708,571.420095 202.020056,571.31601 202.042881,571.225164 C202.528155,569.253024 204.666466,571.84374 204.666466,571.84374 C203.456704,567.554793 206.816646,569.326066 206.816646,569.326066 C204.48523,565.362614 207.416962,562.154691 207.416962,562.154691 L207.416962,562.154691 Z" id="39"></path>
        </g>
    </g>
</svg>
