<?xml version="1.0" encoding="UTF-8"?>
<svg width="48px" height="61px" viewBox="0 0 48 61" version="1.1" xmlns="http://www.w3.org/2000/svg" xmlns:xlink="http://www.w3.org/1999/xlink">
    <title>8</title>
    <g id="页面-1" stroke="none" stroke-width="1" fill="none" fill-rule="evenodd">
        <g id="形状库素材-节日" transform="translate(-90.000000, -318.000000)" fill="#545458">
            <path d="M95.8522359,373.687377 C96.4243755,373.401955 96.6303327,373.103885 97.0185702,372.618021 C97.4077808,372.131832 97.6503887,371.20843 98.3311829,371.403035 C99.011977,371.597316 99.4978415,371.742945 99.8380764,371.257405 C100.178311,370.771216 100.032357,370.38233 100.761154,370.090422 C101.490275,369.799163 102.024791,369.799163 102.365026,370.090422 C102.705261,370.38233 103.240101,370.673914 103.580336,370.868519 C103.920895,371.062476 104.115176,371.354059 104.552389,370.673914 C104.990251,369.99312 105.330486,369.652885 105.865002,369.604558 C106.399842,369.555906 106.885707,369.750187 107.225942,369.99312 C107.565852,370.236376 107.85776,370.52796 108.440927,369.896141 C109.024419,369.264323 108.440927,368.291945 109.121073,368.291945 C109.802191,368.291945 110.62829,368.048689 110.725269,367.417194 C110.822571,366.785376 110.239729,366.639746 109.802191,365.959277 C109.364329,365.278482 107.955063,363.480005 107.371571,363.140095 C106.788404,362.79986 106.49682,361.633525 106.788404,361.147337 C107.079988,360.661148 107.469198,359.980678 107.225942,359.348535 C106.982685,358.717041 107.323244,358.182201 107.906087,357.98792 C108.489578,357.793315 109.364329,356.675956 109.655913,356.044138 C109.947821,355.41167 111.458931,353.663142 110.91955,352.738442 C110.579315,352.155275 110.482661,351.620759 110.62829,351.134571 C110.774244,350.648382 110.774244,350.454101 110.288056,350.308471 C109.802191,350.162842 109.2187,350.211169 108.684184,350.162842 C108.149344,350.113542 107.469198,349.870934 107.225942,349.531023 C106.982685,349.190464 106.885707,348.752926 106.49682,349.287767 C106.10761,349.822282 105.621745,351.085919 105.670721,351.572108 C105.719048,352.058297 106.350866,352.981375 106.594123,353.467239 C106.836731,353.953752 106.739753,355.41167 106.447845,355.557949 C106.156586,355.703578 105.816351,356.383724 105.476116,356.481026 C105.135881,356.578329 105.378489,356.967215 105.524767,357.16182 C105.670721,357.356101 106.010956,357.356101 106.010956,357.112845 C106.010956,356.869913 106.253888,356.675956 106.49682,356.432699 C106.739753,356.189443 106.934358,356.335397 106.739753,356.675956 C106.545472,357.015867 106.691101,357.258799 106.49682,357.599034 C106.302864,357.939269 105.670721,358.13355 105.378489,357.98792 C105.087229,357.84229 104.843973,357.502055 104.498549,356.919861 C104.27832,356.549138 104.550443,356.255284 104.95879,356.19074 C105.367137,356.126196 105.781646,355.802178 105.723264,355.098356 C105.665532,354.394533 105.606501,353.727037 105.467358,353.354368 C105.327243,352.980726 105.229616,352.912939 104.866677,353.196738 C104.171936,353.738065 104.170963,354.197658 103.460005,354.950456 C102.827538,355.619249 102.46395,356.229986 101.865215,356.801476 C101.267128,357.373292 101.02225,358.443945 100.766992,359.011544 C100.582117,359.421836 100.31713,359.894403 99.7897494,359.342373 C99.2617204,358.789694 98.4083763,358.782234 97.5981696,358.763746 C96.787963,358.744934 96.3773458,358.568817 96.3925899,357.893536 C96.407834,357.218256 96.1412248,356.885805 95.7536359,356.302963 C95.6300616,356.118088 95.5895188,355.962728 95.6206556,355.544651 C95.6819563,354.73639 94.8892641,354.390317 95.3767504,353.687468 C95.6900649,353.234686 95.856128,352.948616 96.1785241,352.339177 C96.4756215,351.775795 96.6066557,351.315554 97.5070295,351.112515 C98.1271717,350.9724 98.7372592,350.481021 99.1663638,349.849527 C99.4174047,349.480101 99.6382817,349.463884 99.7232593,349.492751 C100.640499,349.811579 100.769263,349.58908 100.926244,350.566972 C101.011222,351.103109 101.035548,351.694709 101.343673,352.017106 C101.651473,352.339177 101.605092,352.383288 101.145175,352.823096 C100.685258,353.262579 100.891215,353.79223 100.602226,354.599193 C100.437461,355.058462 100.08036,355.248526 99.8487797,354.758445 C99.3891869,353.78477 98.9980303,353.409182 99.013923,352.689467 C99.0191125,352.468914 99.1287402,352.493564 99.3454007,352.674871 C99.5614126,352.856179 99.6846626,353.255768 99.8815383,353.32615 C100.078414,353.396857 100.257775,353.246362 100.419622,352.91975 C100.581469,352.592813 100.765695,352.244145 100.685258,351.889315 C100.60547,351.535133 100.458219,351.201385 100.017438,351.213386 C99.576008,351.224738 99.2662612,351.284417 99.0223559,351.367448 C98.7774776,351.449831 98.7080684,351.602272 98.4618927,351.773525 C98.2150684,351.943804 97.2731788,352.671628 97.0918716,352.888289 C96.91024,353.104949 96.8395334,353.323556 96.9446202,353.546379 C97.0500314,353.769526 97.3769683,354.879101 97.4347012,355.255013 C97.4927584,355.630601 97.5602216,356.53584 97.6416315,356.846236 C97.722717,357.15728 98.0010026,357.516002 98.3065329,357.677524 C98.6107658,357.838398 99.2078796,357.763799 99.6340652,357.443025 C100.060251,357.121602 100.662878,356.782665 100.935326,356.414212 C101.208746,356.045435 101.397189,355.498918 101.805211,355.023108 C102.212585,354.546974 102.640717,354.138303 102.93976,353.572002 C103.239452,353.005376 103.22583,352.630437 103.302375,352.169222 C103.378595,351.708008 103.94814,349.618271 103.902732,349.06916 C103.884893,348.851526 104.066525,348.558645 104.358433,348.315389 C104.649692,348.072457 104.698343,347.780873 104.358433,347.8292 C104.017873,347.878176 102.430867,346.864606 101.15004,347.149055 C100.566873,347.278791 100.178311,347.602485 99.9188376,347.79709 C99.6596882,347.991371 99.1413895,347.537941 98.9467842,347.149055 C98.7525033,346.760168 98.2342046,346.24187 98.1044677,346.565563 C97.9750552,346.889905 97.7807743,347.213923 97.2618268,347.149055 C96.566113,347.062131 95.5123254,347.586592 95.0744635,347.489289 C94.6372503,347.392311 94.6372503,347.052076 94.5701115,346.460476 C94.5373529,346.168893 94.6670898,345.943475 94.577247,345.551994 C94.4870799,345.160513 94.2940963,344.843631 94.124141,344.489773 C93.9535371,344.135592 93.9279141,343.77395 93.8215298,343.506368 C93.7157943,343.23911 93.4057232,342.936499 93.1991173,342.673133 C92.9925113,342.409767 92.6431949,342.268678 92.4320481,342.31733 C92.2212257,342.365657 91.9948349,342.537882 91.8952619,342.712703 C91.7960132,342.888172 91.6091921,343.425282 91.5135112,343.643889 C91.4178303,343.862496 91.040296,344.481989 90.9410473,344.60005 C90.8414743,344.717786 90.8492585,344.862118 90.9238572,345.022343 C90.9984559,345.182568 91.4518862,345.77579 91.5738388,345.919149 C91.6951428,346.06186 91.7126573,346.166298 91.8475836,346.255816 C91.9825099,346.34501 92.1605738,346.431285 92.4258856,346.509127 C92.6911975,346.587943 92.833908,346.40923 92.9399679,346.207489 C93.0460278,346.005424 92.9902409,345.764762 92.9451574,345.540642 C92.8997495,345.316197 92.8147719,345.196191 92.6847107,345.207218 C92.5540008,345.218246 92.4145337,345.44042 92.2543086,345.515343 C92.0937593,345.589942 92.0237014,345.587347 92.0564599,345.453069 C92.1625198,345.014235 92.4599416,344.850442 92.8958574,344.334413 C93.115437,344.074615 93.3006364,344.24749 93.3265837,344.552371 C93.3716673,345.08786 93.1611692,345.375227 93.3690726,345.716111 C93.5763272,346.056995 93.5977338,346.09105 93.359018,346.236356 C93.1206265,346.381985 93.0106745,346.736491 92.8721804,347.047535 C92.6195179,347.61481 92.5773534,347.459126 91.9701849,347.504209 C91.9140737,347.508101 91.7823908,347.462693 91.6899533,347.198355 C91.5319987,346.746222 91.2417125,346.3502 90.8885039,346.165325 C90.375719,345.897094 90.3708539,345.597077 90.2816598,345.207867 C90.1846815,344.786546 90.1308407,344.586103 90.0134288,344.261436 C89.8314729,343.75676 90.3676105,343.67535 90.4613453,343.175863 C90.5096723,342.917363 90.5592967,342.82979 90.6640592,342.737353 C90.9929421,342.447391 91.2083053,342.288463 91.3078783,341.877197 C91.4077757,341.465607 91.6847639,341.425065 92.1784126,341.544422 C92.67271,341.664429 93.1906844,341.797409 93.5996798,341.547666 C94.0086752,341.298247 94.0930042,341.626805 94.1384121,341.90574 C94.2013345,342.290734 94.1766845,342.978988 94.4471858,343.422363 C94.7173628,343.86509 94.8393154,344.293222 95.1150063,344.800817 C95.4241043,345.371335 95.4108063,345.610051 95.6839024,346.090402 C95.8554794,346.392689 96.0306241,346.370958 96.2897735,346.306414 C96.5489228,346.24187 97.3912394,346.047264 97.6503887,345.723246 C97.9098624,345.399229 98.1044677,345.593834 98.3636171,345.723246 C98.6227664,345.853308 99.3359948,346.177001 99.9616508,346.091699 C100.208799,346.058292 101.924894,345.816008 102.073767,345.399229 C102.22264,344.9818 100.851646,343.70519 100.420919,344.135592 C100.032357,344.524478 99.8380764,344.524478 99.9502988,343.774923 C100.001545,343.433391 100.615849,343.163538 101.004411,343.357495 C101.393297,343.5521 102.997169,344.23257 103.240101,344.767086 C103.483358,345.301602 103.920895,345.593834 104.26113,345.690812 C104.601365,345.788115 104.990251,345.739464 105.427789,345.98272 C105.865002,346.225328 105.952574,345.751789 105.374272,345.332739 C104.823539,344.933798 105.356758,344.356469 105.695695,343.858604 C106.034309,343.361387 105.77743,342.563181 105.745644,342.266732 C105.713858,341.970284 105.250049,341.646266 104.851757,341.633617 C104.453789,341.621292 103.661746,341.6787 103.291996,340.974553 C102.931976,340.289543 103.099985,339.74627 103.129176,339.036609 C103.158367,338.327273 103.075335,338.30911 102.794779,337.987687 C102.51325,337.665615 102.101011,336.896924 101.910298,336.401978 C101.719261,335.907032 101.587902,335.704642 101.349511,335.514253 C101.110795,335.323865 100.675203,335.317378 100.192258,335.127313 C99.7089882,334.937249 99.1660395,334.699182 98.7667743,334.771186 C98.3665361,334.84319 98.409025,335.218778 98.4278368,335.624205 C98.4463243,336.029633 98.4641631,336.435061 98.6435243,336.822974 C98.8225612,337.20959 99.0547902,337.347111 99.4790297,337.489497 C99.9022961,337.632208 99.9318113,337.65556 100.075171,337.476848 C100.218205,337.298135 100.015167,337.18494 99.8241297,336.934548 C99.6327678,336.68448 99.7044474,336.595286 99.9370008,336.73151 C100.169554,336.868706 100.223395,336.862544 100.557467,336.933899 C100.891864,337.005254 100.825698,337.148614 100.682988,337.32765 C100.539628,337.506363 100.278533,337.834273 100.248369,338.055474 C100.21853,338.275702 100.015492,338.40771 99.8611047,338.234187 C99.7057448,338.061637 99.3655099,337.936441 99.013923,337.94909 C98.6620118,337.961415 98.5248151,337.705185 98.3516164,337.371112 C98.1784177,337.038013 97.6659571,336.823298 97.3847525,336.746105 C97.1048452,336.668587 97.0510045,336.430196 97.2478801,336.245321 C97.4444315,336.060446 97.5868177,335.63653 97.7476914,335.373813 C97.9079164,335.111745 97.9192683,334.485765 97.8359124,333.978818 C97.7519078,333.472195 98.3723743,333.673936 98.6344427,333.835134 C98.8968355,333.995359 99.3917816,334.0492 99.7076909,334.203911 C100.023924,334.358622 100.602551,334.429978 100.966787,334.524686 C101.330699,334.620042 101.872999,334.613555 102.337781,334.642746 C102.803537,334.672586 102.839539,335.238238 103.012737,335.571986 C103.18626,335.906059 103.484331,336.633234 103.723695,337.068501 C103.962735,337.503119 104.086958,337.970496 104.303619,338.361329 C104.505684,338.727511 104.85273,338.768702 105.083986,339.071314 C105.314593,339.374249 105.437519,339.185806 105.40768,338.607829 C105.377516,338.029851 105.168315,337.494038 104.719101,337.136289 C104.269887,336.778863 104.536821,336.168776 104.631853,335.766267 C104.726561,335.363759 104.610122,334.061849 104.724939,333.708317 C104.838459,333.354784 104.963006,332.884812 104.844622,332.509872 C104.726237,332.134933 104.054524,331.639338 103.867703,331.235208 C103.681855,330.831077 103.702613,330.597875 103.903705,330.322833 C104.104797,330.047467 104.669801,329.770154 104.981494,329.704313 C105.292538,329.638471 105.227345,329.327427 105.379137,329.070873 C105.531578,328.814318 105.328216,328.725448 104.958466,328.825021 C104.595527,328.922 104.244589,328.920702 103.835918,328.932379 C103.426922,328.944055 102.814889,329.018978 102.508385,329.033898 C102.202206,329.048493 101.865863,329.215854 101.51752,328.968056 C101.169177,328.720908 100.785804,328.419269 100.473787,328.24899 C100.16177,328.079359 99.7102856,327.783234 99.3992415,327.659336 C99.0888461,327.53641 98.7061224,327.279855 98.4310802,327.188067 C98.1557138,327.095629 97.6020617,326.819938 97.9397019,326.698959 C98.2773421,326.577979 98.6120631,326.364562 98.6409296,326.188768 C98.6701204,326.013299 98.8005059,325.794368 98.7609362,325.624738 C98.7220151,325.454782 98.8916461,325.405482 99.1339296,325.535219 C99.3762132,325.664632 99.8598073,325.876751 100.166311,325.862156 C100.472814,325.847561 100.71153,325.838803 100.956408,326.037625 C101.200638,326.236447 101.511682,326.382725 101.71699,326.411267 C101.922623,326.439809 101.995276,326.595169 101.895703,326.685012 C101.795481,326.773882 101.802941,327.027517 101.806833,327.165363 C101.810401,327.303857 101.779264,327.387861 101.501627,327.226663 C101.224315,327.065141 101.189286,327.033355 100.948624,326.950324 C100.706989,326.866968 100.704719,326.798207 100.978463,326.820587 C101.252208,326.843615 101.458814,326.918538 101.454922,326.780044 C101.45103,326.641874 101.416325,326.633117 101.036196,326.446296 C100.655419,326.259799 100.414108,326.176443 100.074197,326.20531 C99.7336382,326.233852 99.4988145,326.358075 99.2633421,326.481649 C99.0281941,326.606197 98.7923974,326.706743 99.0379244,326.951621 C99.2837757,327.196175 99.8020744,327.417376 100.251288,327.621712 C100.700826,327.825723 101.014465,328.064763 101.289507,328.133848 C101.563901,328.202609 101.768885,328.207798 102.176259,328.15039 C102.584281,328.092332 103.299456,328.066061 103.675693,328.114063 C104.052578,328.163363 104.121663,328.203582 104.489791,327.952541 C104.85792,327.701825 105.09177,327.51176 105.667478,327.402132 C105.891274,327.358995 106.197777,327.28991 106.354434,327.116063 C106.511416,326.942215 106.619422,326.787504 106.778025,326.332776 C106.936953,325.8774 106.849056,325.720418 106.750132,325.472621 C106.614881,325.133684 106.156586,324.645224 105.702182,324.270933 C105.422275,324.040651 105.078472,323.855776 104.773591,323.593058 C104.468385,323.330017 103.941653,322.970321 103.705532,322.776365 C103.47006,322.582733 103.02636,322.45851 103.081498,322.084543 C103.136636,321.710252 103.232966,321.280823 103.219019,320.975942 C103.204748,320.67106 103.246264,320.200115 103.17653,319.922803 C103.106796,319.646463 103.147988,319.244279 103.064632,319.008482 C102.980952,318.773334 102.925814,318.246927 103.313402,318.399043 C103.70164,318.55116 104.200478,318.64749 104.43595,318.563809 C104.671747,318.480778 105.031443,318.438938 105.211453,318.313417 C105.391787,318.189194 105.571797,318.27255 105.585743,318.507374 C105.59969,318.74317 105.68337,319.186546 105.918843,319.380178 C106.154964,319.573486 106.335298,319.725603 106.266213,320.002915 C106.197128,320.280552 106.238968,320.571163 106.350218,320.723279 C106.461143,320.87572 106.322324,321.014538 106.142639,321.000916 C105.962305,320.986969 105.658072,321.13941 105.49136,321.22309 C105.325297,321.306122 105.200425,321.33434 105.200425,321.057027 C105.200101,320.780039 105.214047,320.738523 105.144638,320.53062 C105.075229,320.323041 105.15826,320.281525 105.324648,320.475482 C105.491035,320.66879 105.546498,320.8488 105.712561,320.765768 C105.878949,320.682412 105.865002,320.654519 105.823162,320.294499 C105.780997,319.934803 105.711588,319.726576 105.434276,319.518997 C105.156963,319.311418 104.838135,319.229035 104.519631,319.145679 C104.200802,319.062972 103.909543,318.966318 103.78532,319.271524 C103.661097,319.576081 103.758724,320.04735 103.828133,320.462508 C103.897867,320.878639 103.829106,321.224388 103.940356,321.446238 C104.050956,321.667763 104.190099,321.805933 104.550443,322.04173 C104.910463,322.276554 105.451466,322.732903 105.660018,323.010216 C105.867597,323.286879 105.868245,323.553813 106.435844,323.452618 C106.836731,323.381263 107.225942,323.381263 107.225942,323.867452 C107.225942,324.353316 107.517201,324.790854 107.711806,325.228391 C107.906087,325.665605 107.906087,326.297747 107.663479,326.734961 C107.420222,327.172823 106.982685,328.0959 106.934358,328.582089 C106.885707,329.068278 106.399842,330.477545 106.49682,330.915406 C106.594123,331.35262 106.64245,331.206666 106.934358,331.109363 C107.225942,331.012385 108.295298,330.720477 108.586557,330.52652 C108.878465,330.331915 109.412981,330.234288 109.412981,329.797075 C109.412981,329.359537 109.2187,329.019302 109.2187,328.679067 C109.2187,328.339157 109.510283,327.901619 109.680238,327.804317 C110.107397,327.559763 110.215079,327.220825 110.579315,326.953567 C110.9442,326.686309 110.91955,326.637658 110.968525,326.370076 C111.017177,326.103467 111.235783,325.592952 111.406063,325.301368 C111.576018,325.00946 111.62467,324.863831 111.62467,324.669226 C111.62467,324.474945 111.45439,324.256338 111.357412,323.940104 C111.259785,323.62452 111.162806,323.259635 110.968525,323.089679 C110.774244,322.919724 110.604289,323.089679 110.40936,323.259635 C110.215079,323.430239 110.020798,323.59987 109.899169,323.843126 C109.777541,324.085734 109.802191,324.256338 109.899169,324.523596 C109.996472,324.790854 109.996472,324.814855 110.142102,324.814855 C110.288056,324.814855 110.26373,324.669226 110.312057,324.474945 C110.361033,324.280339 110.433685,324.280339 110.457687,324.450295 C110.482661,324.620574 110.506987,324.645224 110.604289,324.839505 C110.700943,325.03411 110.604289,325.058112 110.457687,325.058112 C110.312057,325.058112 110.044799,325.058112 109.923171,325.131089 C109.802191,325.204066 109.655913,325.15509 109.680238,325.00946 C109.704888,324.863831 109.631911,324.645224 109.485957,324.474945 C109.340004,324.304665 109.412981,324.13471 109.510283,323.915779 C109.607586,323.697497 109.510283,323.356937 109.437631,323.186982 C109.364329,323.016378 109.461632,322.895398 109.631911,322.919724 C109.802191,322.94405 110.069449,322.846423 110.26373,322.822421 C110.457687,322.798096 110.774244,322.555164 110.992527,322.311907 C111.211458,322.068975 111.357412,322.457861 111.381413,322.652142 C111.406063,322.846423 111.576018,323.113681 111.62467,323.332612 C111.673645,323.551867 111.867602,323.867452 111.964904,324.085734 C112.061883,324.304665 112.280814,324.571923 112.450769,324.814855 C112.620724,325.058112 112.353466,325.301368 112.256164,325.519975 C112.15951,325.738582 111.916253,326.176443 111.794625,326.467703 C111.673645,326.759286 111.521204,327.021355 111.381413,327.269801 C111.162806,327.658363 110.91955,328.679067 111.017177,329.213908 C111.114155,329.748423 111.552017,329.554142 111.843276,329.311535 C112.13486,329.068278 113.301518,329.359537 113.739056,329.359537 C114.176269,329.359537 114.954042,329.068278 115.099671,328.727719 C115.245625,328.387808 115.051669,328.242179 114.759761,328.0959 C114.467853,327.949946 114.419201,327.804317 114.56548,327.512733 C114.711109,327.220825 115.002369,327.367103 115.301088,327.43781 C115.453528,327.474461 115.525208,327.532194 115.499585,327.680742 C115.474935,327.829615 115.539479,328.010274 115.789223,328.070926 C116.03929,328.132551 116.277033,328.188986 116.422014,328.183797 C116.566995,328.178283 116.602024,328.152011 116.545588,327.993732 C116.438555,327.691446 116.279628,327.638253 116.101564,327.305803 C115.943285,327.010003 115.773978,326.8141 115.645539,326.541328 C115.516775,326.268557 115.174594,326.060329 115.007882,325.90724 C114.887227,325.795666 114.754571,325.649712 115.006261,325.530678 C115.258274,325.411969 115.359145,325.117791 115.458394,324.840154 C115.558615,324.562193 115.666946,324.440564 115.898526,324.523596 C116.130106,324.606628 116.275736,324.552787 116.521911,324.485648 C116.600078,324.464241 116.658459,324.468458 116.7989,324.527488 C117.071671,324.641332 117.282818,324.407806 117.469963,324.656576 C117.58997,324.81745 117.669434,324.907617 117.843606,325.089573 C118.003506,325.257258 118.147514,325.355209 118.114107,325.68993 C118.091403,325.920862 118.190327,326.18812 118.359634,326.409321 C118.458558,326.538734 118.438773,326.617224 118.418664,326.642847 C118.202652,326.923403 118.264926,326.993461 117.908798,326.93508 C117.713869,326.90297 117.50629,326.842642 117.359363,326.912376 C117.21276,326.981461 117.202381,326.960703 117.103781,326.750853 C117.004532,326.541328 116.797602,326.551383 116.5524,326.358075 C116.412608,326.247799 116.387958,326.103467 116.583861,326.07979 C116.973071,326.032436 117.14854,325.940647 117.39504,326.029516 C117.471261,326.056761 117.44953,326.091466 117.362282,326.145631 C117.274709,326.199796 117.122269,326.19558 117.075239,326.255907 C117.028209,326.315586 117.059346,326.395374 117.154379,326.488785 C117.248438,326.58252 117.347362,326.686309 117.479369,326.698959 C117.611052,326.712257 117.743384,326.700256 117.790089,326.546194 C117.836794,326.392455 117.851714,326.278287 117.851065,326.184552 C117.851065,326.090168 117.806631,326.048977 117.775818,325.94389 C117.74533,325.839452 117.601971,325.429484 117.54813,325.341911 C117.494289,325.254014 117.426826,325.204714 117.337308,325.215418 C117.248438,325.226121 116.826793,325.211201 116.690569,325.187524 C116.553697,325.164496 116.233247,325.083735 116.116484,325.075951 C115.999396,325.068166 115.843388,325.12298 115.752572,325.209904 C115.661756,325.297152 115.618943,325.511866 115.680568,325.695768 C115.742193,325.880319 115.79052,326.127468 115.886201,326.26434 C115.98253,326.401213 116.149242,326.529976 116.266978,326.724906 C116.384715,326.920809 116.476503,327.116063 116.637702,327.285045 C116.7989,327.453703 116.930582,327.4923 117.080753,327.571763 C117.231572,327.651227 117.822848,327.943784 118.016156,327.889943 C118.501696,327.755665 119.698518,327.449162 119.731925,327.116387 C119.778306,326.662308 120.142218,326.506948 120.43964,326.211797 C120.737386,325.915997 120.708844,325.874805 120.716304,325.622791 C120.723764,325.370453 120.853825,324.871939 120.969939,324.581005 C121.08573,324.289745 121.110055,324.149305 121.083135,323.970593 C121.056214,323.79188 120.870366,323.614789 120.737386,323.33845 C120.60473,323.06211 120.464939,322.741012 120.263198,322.611599 C120.060808,322.482511 119.928477,322.661872 119.773117,322.844801 C119.61873,323.028054 119.46337,323.210983 119.385528,323.450348 C119.307686,323.690685 119.353418,323.843126 119.479263,324.075031 C119.606081,324.306935 119.609,324.329315 119.742629,324.309206 C119.876906,324.289097 119.834742,324.158711 119.852256,323.973836 C119.869771,323.788637 119.936261,323.778258 119.982318,323.931347 C120.02805,324.083788 120.053997,324.102924 120.170436,324.268014 C120.286226,324.433105 120.2006,324.468458 120.066322,324.488891 C119.932369,324.508676 119.687491,324.545651 119.585647,324.629332 C119.484452,324.713012 119.344012,324.688686 119.346283,324.551489 C119.348229,324.414617 119.25125,324.223904 119.09362,324.08768 C118.936314,323.951456 118.9801,323.785718 119.038806,323.571327 C119.097837,323.356937 118.961613,323.058218 118.871121,322.91194 C118.78063,322.76631 118.853283,322.641114 119.01221,322.640141 C119.172111,322.638519 119.404016,322.512675 119.579485,322.463375 C119.754305,322.414075 120.01086,322.147466 120.177896,321.894479 C120.345256,321.641167 120.532078,321.977835 120.581378,322.152655 C120.631002,322.3278 120.823985,322.54965 120.898584,322.743606 C120.973183,322.937887 121.195682,323.200929 121.314715,323.388399 C121.434073,323.57522 121.671816,323.790907 121.86188,323.990053 C122.05162,324.189848 121.840149,324.449646 121.780795,324.66436 C121.721764,324.878426 121.558945,325.313045 121.487914,325.597493 C121.416883,325.882265 121.271902,326.132009 121.219359,326.391158 C121.564783,326.200445 122.050323,326.151793 122.341907,325.908861 C122.633815,325.665605 122.77912,325.471324 122.876747,324.985459 C122.973725,324.499595 123.071028,323.867452 123.265633,323.478566 C123.459914,323.089679 123.459914,322.992377 123.119679,322.798096 C122.77912,322.603491 122.536512,322.555164 122.487536,322.895398 C122.439209,323.235309 122.147301,323.186982 122.196277,322.846423 C122.244928,322.506512 122.196277,322.263256 122.487536,322.068975 C122.77912,321.874694 122.925398,321.874694 123.119679,322.068975 C123.313636,322.263256 123.556892,322.603491 123.751498,322.652142 C123.945778,322.700793 124.334989,322.895398 124.286013,323.138006 C124.237362,323.381263 123.897452,323.62452 123.751498,323.867452 C123.605868,324.110708 123.605868,324.742203 123.751498,324.985459 C123.897452,325.228391 123.702522,325.519975 123.459914,325.616953 C123.216657,325.71458 122.682142,326.103467 122.682142,326.39505 C122.682142,326.686309 122.147301,326.783936 121.904045,326.734961 C121.661437,326.686309 120.932316,326.832263 120.883664,327.026544 C120.835337,327.220825 120.494778,327.707338 120.349149,327.998922 C120.203195,328.290181 119.765981,328.436135 119.328444,328.339157 C118.890582,328.242179 118.453693,328.339157 118.696625,328.582089 C118.939558,328.825021 119.085512,329.068278 118.939558,329.359537 C118.793928,329.651445 118.793928,329.99168 119.085512,330.088658 C119.377095,330.185961 119.617433,330.43765 119.886312,330.652041 C120.015725,330.755181 120.282334,330.95822 120.41726,331.112931 C120.552511,331.267966 120.626785,331.324726 120.738683,331.36235 C120.850906,331.400622 121.010158,331.344835 121.21125,331.350674 C121.412666,331.356187 121.641652,331.371431 121.777551,331.292616 C121.913775,331.213801 121.849231,331.082443 121.788903,330.937137 C121.728576,330.791832 121.668572,330.646851 121.552134,330.529115 C121.435695,330.411703 121.332878,330.392243 121.160004,330.39581 C120.986805,330.399702 120.972534,330.395162 120.944641,330.478842 C120.915774,330.563171 121.004644,330.577766 121.106812,330.643932 C121.209953,330.709449 121.195682,330.751938 121.092865,330.732802 C120.989724,330.713341 120.971237,330.722747 120.840203,330.74091 C120.708844,330.759073 120.714033,330.698097 120.742251,330.613768 C120.770793,330.530412 120.823012,330.37635 120.805174,330.291372 C120.786037,330.207043 120.842797,330.132444 120.922261,330.174933 C121.001401,330.217422 121.142165,330.218395 121.268334,330.167149 C121.394828,330.116552 121.478832,330.192123 121.586189,330.290399 C121.693222,330.389323 121.908261,330.399702 122.020484,330.390945 C122.13303,330.382188 122.183952,330.461976 122.136598,330.555062 C122.089893,330.648473 122.093461,330.821672 122.069459,330.938759 C122.045458,331.055522 122.123949,331.284832 122.221251,331.458355 C122.318878,331.631878 122.066216,331.639987 121.949128,331.615985 C121.832689,331.592308 121.64522,331.638365 121.509645,331.62377 C121.373745,331.60885 121.153841,331.659123 121.008536,331.672421 C120.863555,331.685719 120.667004,331.759993 120.493481,331.810591 C120.320606,331.861188 120.231737,331.659447 120.125028,331.560847 C120.017671,331.462247 119.837012,331.203098 119.668679,331.109363 C119.231141,330.866755 118.890582,330.817779 118.356066,330.720477 C117.82155,330.623498 117.82155,330.623498 117.82155,330.234288 C117.82155,329.84605 117.918853,329.505491 117.627269,329.262235 C117.335686,329.019302 116.849821,328.922324 116.606565,329.213908 C116.363632,329.505491 115.877768,329.943029 115.58586,330.283264 C115.294601,330.623498 115.099671,330.769128 114.56548,330.574847 C114.030639,330.380891 113.496124,330.088658 113.00961,330.040331 C112.52407,329.99168 111.843276,330.088658 111.648671,330.283264 C111.45439,330.477545 111.211458,330.817779 110.774244,330.720477 C110.336707,330.623498 110.044799,330.720477 109.655913,331.012385 C109.267675,331.303644 108.538554,331.741506 108.149344,332.130392 C107.760457,332.518954 108.198319,332.713235 108.246322,333.151097 C108.295298,333.58831 108.101017,334.025847 107.663479,334.074174 C107.225942,334.12315 106.885707,334.220128 106.399842,334.511712 C105.913329,334.80362 105.816351,335.240833 106.156586,335.629719 C106.49682,336.018606 107.079988,336.50447 107.031336,336.893681 C106.982685,337.282242 107.517201,337.914061 107.274268,338.40025 C107.031336,338.886114 107.274268,339.615235 107.711806,339.858168 C108.149344,340.101424 109.121073,340.150076 109.316002,340.538962 C109.510283,340.927524 109.947821,341.656645 109.75354,342.094182 C109.558934,342.531396 108.975443,343.843684 109.267675,344.184243 C109.558934,344.524478 110.09345,344.913364 110.482661,345.010342 C110.871547,345.107645 110.676617,345.350902 110.676617,345.642161 C110.676617,345.934069 111.017177,346.468585 111.503041,346.905798 C111.988906,347.343335 112.6697,347.975154 113.058262,348.412691 C113.447148,348.850229 113.739056,348.655624 114.127942,348.36404 C114.516828,348.072457 115.051669,347.294684 115.245625,346.905798 C115.44023,346.51756 115.489206,346.620377 115.926095,346.565563 C116.314981,346.51756 116.363632,346.565563 116.363632,346.274304 C116.363632,345.98272 116.26633,345.885418 116.557913,345.690812 C116.849821,345.496531 117.189732,345.544858 117.287359,345.301602 C117.384337,345.058994 117.238383,344.767086 116.942259,344.642214 C116.65554,344.521235 116.09378,344.233219 115.785006,344.000665 C115.476557,343.767463 115.317305,343.69254 115.096103,343.666269 C114.875226,343.639997 114.603428,343.803465 114.230759,343.871577 C113.858414,343.939365 113.431255,344.000665 113.211027,344.198838 C112.991123,344.397012 113.161727,344.613023 113.329087,344.856929 C113.496448,345.101158 113.66316,345.345388 113.923282,345.516641 C114.183405,345.687569 114.379632,345.683028 114.697163,345.609078 C115.014369,345.534155 115.041938,345.537398 115.061399,345.37166 C115.081508,345.205921 114.912201,345.213705 114.697811,345.131971 C114.483421,345.050885 114.493151,344.967854 114.689378,344.963637 C114.886578,344.958448 114.917715,344.934446 115.15189,344.849793 C115.38639,344.765464 115.400336,344.879633 115.380551,345.045371 C115.360767,345.21111 115.324765,345.515343 115.391255,345.662919 C115.457745,345.811468 115.382497,345.970071 115.220326,345.923041 C115.058155,345.875687 114.79933,345.928879 114.585913,346.071914 C114.37282,346.214625 114.189243,346.108889 113.953446,345.968449 C113.718298,345.828333 113.31806,345.893202 113.114697,345.952881 C112.911335,346.013208 112.786139,345.885742 112.83706,345.695677 C112.887658,345.505289 112.813059,345.188406 112.811762,344.963962 C112.810464,344.739841 112.577262,344.347387 112.330438,344.065858 C112.083289,343.784329 112.545477,343.670809 112.769922,343.669836 C112.994366,343.668539 113.320979,343.511557 113.576236,343.48561 C113.831493,343.459987 114.216812,343.281599 114.479205,343.200513 C114.740949,343.119428 115.074048,342.907308 115.37374,342.746434 C115.673432,342.585561 115.913446,342.922552 116.148918,343.062668 C116.384715,343.203108 116.849173,343.538478 117.164109,343.715569 C117.479369,343.893633 117.712571,344.186838 118.020696,344.294195 C118.249358,344.373983 118.361904,344.486206 118.570132,344.542317 C118.778684,344.598104 118.906475,344.731084 118.912313,344.417445 C118.917827,344.103806 118.382662,341.897307 118.313577,341.346898 C118.245141,340.796489 117.83647,340.26619 117.581537,339.895467 C117.326604,339.524744 116.963341,339.360951 116.679217,339.173157 C116.395094,338.984714 115.739274,339.103748 115.190487,339.067746 C114.6417,339.031744 113.906416,339.247756 113.430607,339.480633 C113.155564,339.615235 113.129617,339.170238 112.680728,339.125479 C112.252272,339.08299 111.577316,339.255864 111.252325,339.278893 C110.927334,339.30257 110.492067,339.532853 110.258865,339.202997 C110.025663,338.872168 109.784677,338.467713 109.549204,338.24262 C109.313732,338.016877 108.998796,337.621504 108.741268,337.458036 C108.483416,337.294567 108.218428,336.953035 107.98101,336.832056 C107.742619,336.711076 107.311892,336.344894 107.724131,336.175911 C108.137343,336.008227 108.594341,335.71567 108.715645,335.477603 C108.836625,335.239536 109.085395,334.94179 109.133073,334.71248 C109.180103,334.483494 109.380871,334.415382 109.564773,334.586959 C109.748999,334.759185 110.14048,335.041363 110.466119,335.017361 C110.790786,334.993684 111.043124,334.979089 111.193294,335.244725 C111.344762,335.510361 111.591262,335.705291 111.789435,335.741293 C111.98696,335.777619 111.982095,335.98682 111.832573,336.109097 C111.683051,336.23105 111.559152,336.573555 111.492014,336.760376 C111.424875,336.947521 111.348654,337.060717 111.143994,336.846327 C110.939983,336.631936 110.920198,336.589448 110.713268,336.479171 C110.506338,336.369544 110.540069,336.275809 110.811544,336.304027 C111.083343,336.331596 111.259136,336.430196 111.326275,336.243699 C111.393414,336.056878 111.362925,336.045202 111.065179,335.79708 C110.767109,335.548634 110.560503,335.439006 110.192375,335.482144 C109.824571,335.52593 109.51677,335.696209 109.208645,335.866813 C108.901493,336.037742 108.604396,336.177209 108.732186,336.50447 C108.860626,336.832704 109.283244,337.125261 109.643263,337.396411 C110.003608,337.666912 110.2047,337.986389 110.454119,338.075908 C110.703538,338.16575 110.905603,338.11191 111.364871,338.087908 C111.761542,338.067799 111.891927,338.011688 112.232162,337.865734 C112.572397,337.71978 112.426768,337.573826 112.815329,337.865734 C113.204216,338.157318 113.35017,338.351598 113.822087,338.41971 C114.076696,338.456361 114.368928,338.216348 114.653052,338.404142 C114.937176,338.592585 115.328008,338.678211 115.618943,338.500147 C115.910202,338.322083 116.048696,337.880005 115.686406,337.664642 C115.324116,337.44863 115.123348,336.974766 115.209947,336.531066 C115.296222,336.088015 115.331251,335.591771 115.074697,335.325811 C114.818142,335.05985 114.630672,334.502306 114.312493,334.407598 C114.069561,334.334946 113.809438,334.260671 113.551586,334.148773 C113.29341,334.036875 112.8669,333.906814 112.669376,333.826701 C112.471527,333.746589 112.149779,333.75567 112.108588,333.494899 C112.067397,333.233804 112.042098,332.927301 111.969445,332.727182 C111.896468,332.526414 111.825762,332.203693 111.721648,332.033414 C111.617534,331.863134 111.561423,331.586146 111.456985,331.447003 C111.351573,331.306887 111.204646,330.967301 111.495257,330.988383 C111.786192,331.008493 112.138752,330.969247 112.278543,330.864809 C112.418335,330.759722 112.649591,330.656581 112.743974,330.535926 C112.837709,330.414946 112.975555,330.432785 113.033936,330.587172 C113.092318,330.741235 113.240866,331.01952 113.438066,331.099308 C113.635266,331.179421 113.788032,331.243641 113.799384,331.442787 C113.81106,331.641933 113.899605,331.827781 114.005341,331.906272 C114.111076,331.984438 114.047505,332.105742 113.924255,332.134284 C113.80133,332.162826 113.630077,332.327916 113.536666,332.418083 C113.443256,332.508575 113.366062,332.55301 113.308005,332.368135 C113.249948,332.183584 113.250597,332.152772 113.160754,332.028549 C113.071235,331.904326 113.117941,331.859242 113.269084,331.953626 C113.420876,332.048658 113.495475,332.156988 113.58921,332.067145 C113.682296,331.976978 113.667376,331.96141 113.56456,331.729505 C113.461095,331.498249 113.371901,331.374026 113.143888,331.293265 C112.915227,331.212828 112.685917,331.223856 112.455958,331.234559 C112.226,331.24656 112.011285,331.242343 111.992149,331.471653 C111.972364,331.700639 112.135508,331.994817 112.268489,332.257858 C112.401793,332.520251 112.428389,332.765778 112.548396,332.89065 C112.668727,333.014873 112.789706,333.078768 113.079344,333.160503 C113.368657,333.241913 113.824682,333.433923 114.021234,333.575336 C114.217461,333.716749 114.232056,333.762806 114.631321,333.708317 C115.030586,333.654476 115.351036,333.484196 115.734084,333.697938 C115.912797,333.798159 115.829117,334.084229 115.746085,334.317755 C115.663702,334.551606 115.604348,334.969034 115.75614,335.233698 C115.908256,335.497712 116.209894,336.183047 116.336388,336.42079 C116.462557,336.658533 116.743113,337.056176 116.92215,337.294567 C117.100862,337.532959 117.35839,337.553717 117.144324,337.188832 C117.016209,336.970225 116.896202,336.727617 116.794683,336.464576 C116.693164,336.202508 116.486882,335.807134 116.405473,335.609934 C116.323738,335.413059 116.091509,335.190236 116.248491,334.977792 C116.405473,334.765672 116.606565,334.532146 116.698354,334.340135 C116.790142,334.147476 116.970801,333.870488 117.018804,333.676855 C117.066806,333.482899 117.225409,333.249048 117.250708,333.076498 C117.27698,332.903624 117.416123,332.560794 117.605538,332.78232 C117.794306,333.003521 118.069672,333.227641 118.242222,333.253589 C118.415096,333.279861 118.650893,333.372298 118.802685,333.354784 C118.955126,333.337269 119.038806,333.44787 118.970046,333.597391 C118.901285,333.746913 118.806577,334.047903 118.888312,334.245103 C118.969397,334.441978 119.030698,334.595392 118.897069,334.743617 C118.763116,334.891517 118.692733,335.084825 118.711545,335.215534 C118.729708,335.345271 118.598674,335.38549 118.49229,335.317378 C118.385906,335.250239 118.147514,335.243752 118.017777,335.240184 C117.88804,335.236941 117.801765,335.21294 117.892257,335.042336 C117.983721,334.871407 118.006425,334.850325 118.031724,334.699182 C118.057347,334.548363 118.122215,334.549984 118.160812,334.72448 C118.200058,334.898652 118.174759,335.028065 118.30482,335.030984 C118.434557,335.034227 118.435206,335.013145 118.527643,334.777024 C118.620729,334.541227 118.646677,334.390408 118.543536,334.171477 C118.441044,333.951573 118.271737,333.795889 118.102755,333.63988 C117.933124,333.483547 117.785548,333.328188 117.608458,333.475439 C117.431691,333.62269 117.336659,333.945086 117.242275,334.223696 C117.14854,334.502955 116.992207,334.693992 116.987667,334.867191 C116.98345,335.040065 117.023344,335.1711 117.168325,335.435114 C117.312658,335.698155 117.495911,336.158073 117.53321,336.396788 C117.569536,336.636477 117.547157,336.67929 117.865337,336.92579 C118.184489,337.17229 118.282116,337.461279 118.647001,337.704212 C118.95091,337.906601 119.156543,338.11937 119.098485,338.43236 C119.040752,338.744701 118.876311,339.160508 118.845174,339.447875 C118.813389,339.733945 118.72906,340.072882 119.116324,340.367709 C119.503264,340.662212 120.149354,341.066342 120.19541,341.433173 C120.240818,341.800004 120.468506,342.248569 120.593703,342.538531 C120.719223,342.828493 121.012104,342.545991 121.046484,342.102291 C121.08054,341.658267 121.245306,340.592478 121.07827,340.324572 C120.883664,340.012555 120.641056,339.761189 120.64657,339.425171 C120.651111,339.171535 120.630029,338.901358 120.655328,338.621451 C120.681599,338.34122 120.672193,337.895573 120.686789,337.682481 C120.70106,337.470037 120.591756,337.167101 120.827229,337.046446 C121.062377,336.92579 121.345852,336.806757 121.513212,336.675074 C121.681222,336.543391 121.966318,336.375706 122.095407,336.223265 C122.224819,336.071149 122.470022,335.931682 122.569919,335.788647 C122.670141,335.645612 122.946805,335.400409 123.017836,335.682911 C123.088867,335.965089 123.236767,336.288134 123.379477,336.388356 C123.522188,336.488577 123.692467,336.676696 123.8368,336.728266 C123.981132,336.779512 124.006755,336.916385 123.877991,337.019525 C123.7502,337.123639 123.532242,337.351003 123.517323,337.563771 C123.503051,337.775891 123.489105,337.940333 123.303581,338.013634 C123.118057,338.086611 122.969509,338.228997 122.928317,338.353869 C122.886153,338.478416 122.751226,338.456361 122.686034,338.348679 C122.620517,338.240349 122.410018,338.128451 122.295201,338.068123 C122.180384,338.007471 122.113894,337.947793 122.2712,337.834921 C122.429479,337.722699 122.458345,337.713293 122.548513,337.589719 C122.638355,337.46582 122.69544,337.495984 122.652951,337.669183 C122.610138,337.842381 122.530349,337.947793 122.645491,338.00812 C122.759984,338.069421 122.770038,338.04996 122.958157,337.880005 C123.146275,337.71005 123.235794,337.586151 123.241632,337.343867 C123.247146,337.101908 123.164763,336.887194 123.08238,336.672155 C122.999997,336.457116 122.937399,336.252456 122.713278,336.305 C122.489482,336.358516 122.260821,336.604692 122.052593,336.813244 C121.84469,337.021471 121.619921,337.12299 121.538187,337.27608 C121.45775,337.429494 121.434722,337.56442 121.447371,337.864761 C121.46002,338.165102 121.419802,338.658426 121.346825,338.889033 C121.273524,339.119641 121.063026,339.306137 121.410072,339.510473 C121.644571,339.647994 121.95302,340.101424 122.390558,340.198403 C122.828095,340.29603 122.77912,340.344032 122.828095,340.587289 C122.876747,340.830545 122.536512,341.17078 122.584839,341.462364 C122.633815,341.753623 123.313636,342.288139 123.605868,342.482744 C123.897452,342.67735 124.091732,342.531396 124.334989,342.337115 C124.577921,342.142509 124.917832,341.899901 125.112437,341.656645 C125.306718,341.413388 125.647277,340.927524 125.89021,340.733243 C126.133466,340.538962 126.570679,339.809516 126.619331,339.517933 C126.667982,339.226674 127.056868,338.983417 127.445754,338.692158 C127.834316,338.40025 127.785665,338.108342 127.785665,337.670804 C127.785665,337.233591 127.834316,337.03931 127.931619,336.699075 C128.028597,336.35884 127.542408,336.35884 127.183037,336.449008 C126.967025,336.503497 126.726364,336.394518 126.486026,336.334839 C126.246013,336.274511 125.858424,336.223265 125.675171,336.182723 C125.492566,336.141856 125.215254,336.196021 125.141952,335.976441 C125.068327,335.755888 125.002485,335.49382 124.910696,335.330676 C124.818908,335.167532 124.710577,334.898003 124.59576,334.765672 C124.480943,334.633016 124.392398,334.401436 124.281797,334.295376 C124.170872,334.189965 123.994754,333.916868 124.248714,333.892867 C124.503971,333.868542 124.804312,333.78324 124.910048,333.672639 C125.015459,333.56139 125.201631,333.439113 125.265851,333.321052 C125.329746,333.202991 125.451375,333.197802 125.524676,333.323322 C125.597004,333.448843 125.765987,333.668422 125.948267,333.708965 C126.131196,333.750157 126.27196,333.783888 126.310557,333.954817 C126.350127,334.125096 126.453592,334.273645 126.55576,334.326188 C126.659225,334.378732 126.621601,334.493224 126.519109,334.535713 C126.416617,334.578202 126.291745,334.745887 126.224282,334.837351 C126.15617,334.92914 126.095194,334.979089 126.018325,334.827297 C125.942104,334.675505 125.937564,334.648584 125.842207,334.554201 C125.746526,334.459169 125.780906,334.413436 125.925563,334.474088 C126.069895,334.534092 126.150332,334.617123 126.218444,334.525334 C126.286556,334.434194 126.271312,334.422518 126.149035,334.23667 C126.026109,334.051146 125.930752,333.956438 125.721227,333.919463 C125.512027,333.882488 125.314178,333.924977 125.116978,333.968115 C124.918805,334.010928 124.732957,334.038497 124.749174,334.239913 C124.765391,334.441654 124.948969,334.672586 125.102707,334.881138 C125.255472,335.089365 125.313529,335.298566 125.435806,335.388733 C125.558083,335.479549 125.672252,335.517173 125.934644,335.546039 C126.197362,335.57523 126.619979,335.6761 126.810368,335.770159 C127.001081,335.864219 127.020218,335.902167 127.358506,335.797729 C127.696147,335.69329 127.927078,335.627125 128.311748,335.629071 C128.462891,335.630368 128.540409,335.578149 128.565383,335.426357 C128.590682,335.274889 128.565383,335.047201 128.590682,334.895409 C128.615981,334.744265 128.742474,334.466304 128.590682,334.163369 C128.439214,333.859784 128.337695,333.809187 128.439214,333.480953 C128.540409,333.15207 128.767773,333.253589 128.64128,332.899732 C128.51511,332.545874 128.312397,332.267913 128.035084,332.015575 C127.757123,331.762912 127.504136,331.535224 127.251474,331.383756 C126.998811,331.232289 126.543759,330.928704 126.317044,330.878431 C126.089356,330.827834 125.962862,330.549873 125.962862,330.19634 C125.962862,329.842483 125.609005,329.867781 125.373857,329.729612 C125.115356,329.578144 125.052758,329.370565 124.912642,329.133795 C124.772851,328.896377 124.742038,328.908702 124.583111,328.862969 C124.423859,328.817237 124.128383,328.653769 123.961671,328.532789 C123.795932,328.412458 123.709982,328.37451 123.59257,328.362509 C123.474185,328.350833 123.331474,328.441 123.134274,328.48057 C122.937074,328.52014 122.710359,328.557439 122.595867,328.664796 C122.481049,328.772478 122.573811,328.885349 122.664951,329.013788 C122.756092,329.141579 122.847556,329.269694 122.987347,329.357591 C123.127463,329.446137 123.231577,329.44192 123.399911,329.398783 C123.567271,329.356294 123.582191,329.357591 123.591273,329.269694 C123.599705,329.180825 123.510187,329.186987 123.395046,329.145796 C123.280228,329.104929 123.284445,329.060494 123.389207,329.056277 C123.493646,329.051736 123.510187,329.038438 123.633761,328.991085 C123.757011,328.944055 123.766093,329.004058 123.757011,329.092928 C123.748254,329.180825 123.732361,329.342996 123.769012,329.421162 C123.805987,329.499004 123.768039,329.584306 123.681115,329.560954 C123.594192,329.537277 123.457644,329.568414 123.345097,329.646256 C123.233523,329.724422 123.134923,329.669933 123.00843,329.597929 C122.881612,329.525925 122.669817,329.564197 122.562459,329.597929 C122.454778,329.631985 122.38699,329.565494 122.41164,329.463975 C122.436939,329.362456 122.394126,329.194447 122.391207,329.075413 C122.388288,328.95638 122.259848,328.750098 122.126219,328.602847 C121.992266,328.455596 122.236171,328.391052 122.355529,328.387808 C122.474887,328.384889 122.647437,328.29829 122.782688,328.282073 C122.917614,328.265531 123.120976,328.166931 123.259146,328.121199 C123.397965,328.075467 123.572785,327.959352 123.730415,327.870807 C123.888046,327.78291 124.01908,327.959352 124.145573,328.031032 C124.272067,328.10336 124.522459,328.277207 124.691441,328.368023 C124.861072,328.459488 124.99762,328.589225 125.152656,328.666418 C125.455915,328.818535 125.937564,329.185365 126.089356,329.337158 C126.241148,329.48895 126.468512,329.918379 126.543759,330.120444 C126.619979,330.322833 127.175577,330.777237 127.40359,330.979302 C127.630629,331.182016 127.908266,331.181367 127.83237,330.979302 C127.756799,330.777237 127.655928,330.449002 127.504136,330.246937 C127.352668,330.044223 127.478837,329.538898 127.529435,329.210664 C127.580032,328.882106 127.377967,328.755936 127.226499,328.629767 C127.074707,328.503274 126.796421,328.377105 126.619979,328.250287 C126.443213,328.124442 126.443213,327.922053 126.496405,327.678472 C126.560949,327.385915 126.472079,327.197473 126.511973,326.925025 C126.551543,326.652578 126.520082,326.642523 126.424725,326.506948 C126.329693,326.372022 126.201578,326.059356 126.147737,325.861507 C126.093572,325.662686 126.051083,325.57933 125.966754,325.495974 C125.882425,325.413591 125.71474,325.393482 125.536028,325.30072 C125.35764,325.208282 125.158169,325.094762 125.001188,325.106763 C124.844531,325.118115 124.845828,325.264393 124.836746,325.421375 C124.827016,325.578681 124.818259,325.735338 124.871451,325.89232 C124.925292,326.048328 125.009621,326.110602 125.166602,326.182606 C125.324233,326.25461 125.334611,326.264989 125.39721,326.201742 C125.459159,326.138495 125.385858,326.086925 125.322286,325.982487 C125.258391,325.878373 125.289528,325.846912 125.373857,325.908861 C125.458186,325.971135 125.478944,325.971135 125.604788,326.011678 C125.730633,326.052869 125.699496,326.105088 125.637223,326.168659 C125.575273,326.231582 125.461105,326.347696 125.440996,326.431701 C125.420238,326.515381 125.336882,326.557545 125.284014,326.485217 C125.231146,326.412565 125.105302,326.350615 124.969402,326.340885 C124.833503,326.331479 124.79069,326.22769 124.737173,326.092115 C124.683981,325.95654 124.49489,325.853399 124.389803,325.812207 C124.284716,325.77134 124.273688,325.677281 124.35672,325.61371 C124.439752,325.550463 124.51208,325.392833 124.584408,325.298125 C124.657061,325.203417 124.686576,324.962431 124.674251,324.763933 C124.66225,324.565436 124.892858,324.667928 124.98789,324.740905 C125.082598,324.813233 125.271365,324.853128 125.387155,324.92578 C125.502296,324.998109 125.722849,325.048706 125.859073,325.099303 C125.995296,325.151522 126.204821,325.17001 126.382885,325.200174 C126.560949,325.230013 126.552516,325.449593 126.606033,325.585168 C126.659225,325.720743 126.744851,326.013299 126.819774,326.19039 C126.894048,326.367805 126.950484,326.543599 126.991027,326.712257 C127.059139,326.992813 127.175577,326.860805 127.150279,326.659065 C127.125304,326.456675 127.074707,326.128117 127.02411,325.95135 C126.973188,325.774584 126.796421,325.294233 126.746148,325.092492 C126.695551,324.890103 126.468512,324.713336 126.317044,324.637764 C126.164927,324.561544 125.988161,324.460349 126.028704,324.32672 C126.115627,324.040326 126.354343,323.971566 126.576193,323.808422 C126.797719,323.646251 126.783123,323.616411 126.812639,323.453591 C126.842478,323.290772 126.975458,322.980376 127.079248,322.802961 C127.183037,322.625221 127.212228,322.536352 127.212228,322.417967 C127.212228,322.299906 127.108439,322.166602 127.049408,321.974591 C126.990378,321.782256 126.931348,321.560082 126.812639,321.456617 C126.694254,321.353152 126.591113,321.456617 126.472728,321.560082 C126.354343,321.664196 126.235958,321.767337 126.161684,321.915237 C126.087734,322.063137 126.102654,322.166602 126.161684,322.329421 C126.220714,322.492241 126.220714,322.507161 126.309908,322.507161 C126.398778,322.507161 126.383534,322.417967 126.413373,322.299906 C126.443213,322.181521 126.487323,322.181521 126.501919,322.284987 C126.516514,322.388776 126.531758,322.403371 126.591113,322.521756 C126.650143,322.640141 126.591113,322.654737 126.501919,322.654737 C126.413373,322.654737 126.250554,322.654737 126.176604,322.699171 C126.102654,322.743606 126.013784,322.714091 126.028704,322.625221 C126.043623,322.536352 125.998864,322.403371 125.910319,322.299906 C125.821773,322.196117 125.865884,322.092976 125.925563,321.959996 C125.984269,321.827015 125.925563,321.619437 125.880804,321.515971 C125.836369,321.412506 125.895723,321.338232 125.998864,321.353152 C126.102654,321.367747 126.265473,321.308717 126.383534,321.294121 C126.501919,321.278877 126.694254,321.131302 126.827558,320.983077 C126.960539,320.835502 127.049408,321.071947 127.064652,321.190332 C127.079248,321.308717 127.183037,321.471536 127.212228,321.604517 C127.242068,321.737497 127.360452,321.930156 127.419158,322.063137 C127.478837,322.196117 127.611818,322.358937 127.715283,322.507161 C127.818748,322.654737 127.656252,322.802961 127.596574,322.935941 C127.537868,323.069246 127.389643,323.335531 127.316018,323.51327 C127.242068,323.690685 127.149306,323.850262 127.064652,324.001081 C126.953079,324.198605 127.125304,324.561544 127.125304,324.814207 C127.125304,325.067193 127.377967,325.294233 127.630629,325.471324 C127.882968,325.64809 128.009785,325.976649 127.933565,326.25461 C127.857669,326.532247 128.13563,326.684363 128.363318,326.633766 C128.591007,326.583169 128.742474,326.35548 128.793072,326.128117 C128.843345,325.900753 129.070709,325.850155 129.208554,325.741501 C129.444351,325.556301 129.657443,325.56668 129.928593,325.518678 C130.199743,325.470675 130.199419,325.437268 130.297695,325.304612 C130.39597,325.171632 130.652525,324.951403 130.823453,324.837883 C130.995355,324.724364 131.060872,324.657874 131.113091,324.551814 C131.16531,324.445754 131.131254,324.280339 131.16304,324.081518 C131.194825,323.882696 131.239909,323.657602 131.178932,323.512622 C131.118929,323.367641 130.980435,323.41467 130.828643,323.454889 C130.676202,323.49608 130.52441,323.536623 130.392727,323.636845 C130.261044,323.736742 130.22861,323.836315 130.209798,324.008216 C130.190986,324.180118 130.184499,324.193416 130.264288,324.232661 C130.344076,324.272231 130.369699,324.185956 130.448514,324.09287 C130.527005,323.999459 130.566899,324.019244 130.534789,324.118817 C130.502355,324.21839 130.509166,324.237851 130.510139,324.370182 C130.510788,324.502838 130.451109,324.48954 130.37132,324.450295 C130.291857,324.411374 130.145903,324.340018 130.059628,324.34683 C129.973677,324.353965 129.907187,324.288124 129.960055,324.215147 C130.012274,324.141845 130.031086,324.003027 129.997678,323.870695 C129.963298,323.738688 130.048924,323.665062 130.161147,323.571976 C130.272396,323.478566 130.310993,323.26677 130.316831,323.153899 C130.322669,323.042001 130.408295,323.001458 130.494895,323.060164 C130.580846,323.119519 130.753396,323.138006 130.865942,323.177252 C130.978813,323.216173 131.21688,323.167846 131.401431,323.094545 C131.586306,323.02027 131.561656,323.27196 131.522411,323.384506 C131.483814,323.497377 131.504572,323.689388 131.472138,323.82172 C131.440028,323.954051 131.46111,324.17882 131.455921,324.32445 C131.450082,324.470404 131.497761,324.675064 131.525005,324.853776 C131.552899,325.031516 131.341103,325.093141 131.22953,325.185903 C131.117632,325.279313 130.86724,325.452836 130.722907,325.579654 C130.577926,325.706147 130.43327,325.823559 130.281478,325.906591 C130.178337,325.963026 130.031086,326.02757 129.904592,326.077519 C129.568574,326.212445 129.096007,326.431701 128.843345,326.709013 C128.590682,326.987299 128.211851,327.239961 128.161253,327.467325 C128.110331,327.694689 128.009785,327.947676 128.060058,328.250611 C128.110331,328.553871 128.161253,329.008599 128.388617,329.312183 C128.615981,329.614794 129.399591,330.954327 129.551059,331.10612 C129.702203,331.257587 129.702203,331.131418 129.778423,331.0046 C129.85367,330.878431 129.856265,330.769777 129.931188,330.622201 C130.03141,330.423379 130.007084,330.168122 130.077791,329.931677 C130.148173,329.694583 130.217907,329.309264 130.267207,329.128606 C130.316182,328.947947 130.274991,328.66804 130.498138,328.605117 C130.72161,328.542519 130.986273,328.488679 131.153634,328.40435 C131.320994,328.320021 131.595063,328.22434 131.732909,328.116009 C131.870754,328.007679 132.105902,327.929837 132.216827,327.824102 C132.328077,327.718366 132.608633,327.554898 132.620958,327.810155 C132.633607,328.066061 132.704313,328.369321 132.810049,328.48057 C132.916109,328.591819 133.029304,328.783181 133.145094,328.85259 C133.259912,328.922 133.258614,329.043628 133.130175,329.110767 C133.001735,329.177906 132.774696,329.335536 132.725396,329.516519 C132.675447,329.696853 132.635229,329.835996 132.463003,329.867133 C132.290777,329.897945 132.138012,329.994275 132.080279,330.094496 C132.023519,330.195043 131.910648,330.152229 131.873349,330.048116 C131.83605,329.943677 131.673878,329.811346 131.585333,329.739342 C131.497112,329.666689 131.450082,329.604091 131.605442,329.534358 C131.760478,329.464624 131.787074,329.462029 131.886323,329.371213 C131.985571,329.280073 132.029357,329.315751 131.962219,329.457813 C131.895729,329.59955 131.808805,329.676095 131.89735,329.748423 C131.985571,329.820752 131.997572,329.805832 132.188609,329.691988 C132.379971,329.578144 132.478896,329.487004 132.525925,329.279749 C132.572306,329.071846 132.538899,328.873024 132.505167,328.673554 C132.47176,328.474083 132.452948,328.286938 132.250883,328.293749 C132.048818,328.30056 131.809454,328.473434 131.593766,328.616469 C131.378403,328.759829 131.16758,328.80848 131.071251,328.926216 C130.974921,329.043952 130.931784,329.156175 130.890917,329.41727 C130.849725,329.678365 130.72907,330.095794 130.626578,330.281642 C130.523437,330.46749 130.48484,330.485329 130.573386,330.82751 C130.661931,331.170015 130.850698,331.435327 130.697284,331.788211 C130.586684,332.041198 130.334345,332.116445 130.182553,332.217964 C130.031086,332.31851 129.95519,332.419705 129.929891,332.747939 C129.904592,333.076822 129.929891,333.202991 129.980488,333.354784 C130.031086,333.505927 130.20396,333.633718 130.332075,333.721615 C130.66258,333.948005 130.756963,334.130934 130.919134,334.388786 C131.080332,334.646638 131.134822,334.640151 131.384241,334.712804 C131.633336,334.785457 132.074117,334.997901 132.313481,335.145801 C132.55317,335.293377 132.682907,335.34592 132.87362,335.37803 C133.064658,335.409815 133.325753,335.346569 133.662744,335.341379 C134.000709,335.336514 134.385379,335.339757 134.606256,335.253482 C134.827133,335.167856 134.707126,335.040065 134.593931,334.898003 C134.480411,334.756266 134.366891,334.614204 134.161907,334.502955 C133.956923,334.391705 133.783075,334.378083 133.493762,334.390732 C133.204125,334.403706 133.180123,334.399814 133.140229,334.485116 C133.099687,334.570742 133.249857,334.580148 133.427272,334.6408 C133.604687,334.701452 133.584254,334.744265 133.410406,334.730643 C133.236883,334.716696 133.206071,334.726426 132.988437,334.751725 C132.770804,334.776375 132.774047,334.715723 132.814265,334.630097 C132.854484,334.544471 132.92811,334.388138 132.890486,334.305106 C132.852213,334.221426 132.94011,334.143908 133.076658,334.182505 C133.213206,334.220777 133.44803,334.213966 133.655285,334.156557 C133.862864,334.099149 134.010115,334.17018 134.197585,334.262617 C134.385703,334.356352 134.746696,334.355055 134.934166,334.340784 C135.120987,334.326188 135.213749,334.403057 135.142718,334.499063 C135.071687,334.594095 135.093418,334.766969 135.063578,334.884705 C135.033739,335.002766 135.185206,335.228184 135.36327,335.396517 C135.541334,335.564527 135.119365,335.585609 134.921516,335.568094 C134.723992,335.55058 134.41457,335.606042 134.186233,335.598258 C133.957896,335.590798 133.593984,335.652423 133.352025,335.673505 C133.11039,335.694263 132.787345,335.778268 132.5016,335.837623 C132.215854,335.897626 132.051413,335.70075 131.863943,335.607664 C131.675825,335.514902 131.31321,335.300512 131.060223,335.18083 C130.807885,335.061472 130.587332,334.96644 130.386889,334.806215 C130.182553,334.643395 130.031086,334.643395 130.055736,334.84546 C130.081034,335.047525 129.95519,335.224292 130.131956,335.351109 C130.309047,335.476954 130.586684,335.805188 130.637281,336.032877 C130.687878,336.260565 130.636957,336.411708 130.409917,336.613773 C130.182553,336.816163 129.626631,336.942332 129.44954,337.144721 C129.272774,337.347111 129.222176,337.675345 129.197202,337.928008 C129.171903,338.18067 128.742474,338.963632 128.691553,339.241918 C128.64128,339.519555 128.64128,339.974282 128.262124,340.075477 C127.882968,340.176996 127.605331,340.454957 127.428889,340.80849 C127.251474,341.162023 127.276772,341.31414 127.504136,341.187646 C127.7315,341.060828 127.960485,341.130238 128.187525,340.95639 C128.429808,340.771191 128.635441,340.51269 128.903997,340.305435 C129.172876,340.098505 129.559168,339.725187 129.75799,339.563016 C129.958433,339.401494 130.136172,339.057691 130.435216,339.166022 C130.734584,339.274676 131.072224,339.427441 131.325859,339.467335 C131.580144,339.507554 131.961894,339.621398 132.201907,339.611343 C132.442245,339.60064 132.766587,339.703132 132.975463,339.673941 C133.183367,339.644751 133.627391,339.688212 133.435705,339.982391 C133.244667,340.276893 133.08055,340.671942 133.109092,340.88017 C133.138283,341.088397 133.111363,341.39263 133.184015,341.562261 C133.256019,341.732217 133.157744,341.866819 132.960544,341.838601 C132.763992,341.810059 132.384188,341.803572 132.184393,341.965094 C131.984923,342.126617 131.82859,342.249542 131.611605,342.145753 C131.394944,342.041963 131.147796,342.027044 131.003463,342.092561 C130.859131,342.158402 130.768315,342.020881 130.809831,341.874603 C130.851347,341.728324 130.777397,341.450688 130.736854,341.299868 C130.696636,341.148401 130.694365,341.041368 130.923026,341.087749 C131.151688,341.134778 131.184122,341.152941 131.367051,341.131535 C131.550304,341.10948 131.570089,341.184727 131.381971,341.288516 C131.194176,341.393279 131.035898,341.408847 131.076765,341.559667 C131.116983,341.711134 131.142282,341.704647 131.44619,341.730919 C131.751072,341.757515 131.933677,341.735136 132.151959,341.542152 C132.370565,341.348195 132.492518,341.099425 132.615119,340.85033 C132.738045,340.60156 132.866485,340.378412 132.635877,340.223701 C132.405919,340.069314 132.000491,340.069963 131.645985,340.056665 C131.291803,340.044016 131.01741,339.92855 130.815994,339.982391 C130.614577,340.036232 130.477056,340.126723 130.221799,340.384575 C129.966542,340.641778 129.498191,341.010555 129.234501,341.135427 C128.970811,341.25965 128.913403,341.247974 128.737609,341.700755 C128.56214,342.152564 128.517705,342.53918 128.105466,342.869036 C127.681227,343.208622 127.2012,342.955959 126.947889,342.854765 C126.695551,342.753894 126.317044,342.82979 126.215525,343.006557 C126.11433,343.183323 125.735498,343.613077 125.811394,344.017207 C125.887615,344.421337 126.039083,344.850766 125.609005,345.028181 C125.1799,345.204948 124.648952,345.609078 124.39629,345.76087 C124.143627,345.912338 123.941562,345.735247 123.89064,345.45761 C123.840692,345.179649 123.613003,344.901364 123.133301,344.951961 C122.652951,345.002883 122.198223,345.05348 121.945236,345.154026 C121.692574,345.255545 121.64749,345.322684 121.847285,345.567238 C122.228063,346.033318 122.542026,346.026506 123.066487,346.500695 C123.53354,346.922339 123.956482,347.161055 124.356071,347.560969 C124.755985,347.960883 125.491269,348.112026 125.882425,348.277116 C126.165576,348.397447 126.492513,348.57097 126.123736,348.939747 C125.754635,349.309173 125.762094,349.892016 125.762094,350.445992 C125.762094,350.99932 125.647926,351.282795 125.186711,351.282795 C124.725173,351.282795 124.50235,351.46994 124.11022,351.744334 C123.985348,351.830933 123.879937,351.861421 123.593543,351.846177 C123.040864,351.816986 122.817068,352.363827 122.329257,352.04208 C122.01497,351.834825 121.817121,351.725846 121.395476,351.515024 C121.006266,351.320419 120.690032,351.238036 120.537267,350.626327 C120.431207,350.205006 120.08708,349.795686 119.64857,349.511887 C119.392339,349.346472 119.37742,349.195653 119.39688,349.137596 C119.600243,348.505778 119.44618,348.421449 120.11173,348.299172 C120.476939,348.232357 120.880421,348.207059 121.095784,347.991371 C121.311147,347.776657 121.341635,347.807145 121.649436,348.114945 C121.957561,348.422422 122.315311,348.2729 122.870909,348.458099 C123.187467,348.563511 123.322717,348.804172 122.991564,348.970236 C122.333798,349.299119 122.083082,349.572539 121.591379,349.572539 C121.440884,349.572539 121.455804,349.497292 121.576135,349.346472 C121.69679,349.195653 121.967616,349.105811 122.012699,348.970236 C122.058107,348.834661 121.952372,348.71433 121.726954,348.608918 C121.500563,348.503507 121.259901,348.382852 121.019239,348.44318 C120.777929,348.503507 120.552511,348.608918 120.567106,348.909908 C120.582026,349.210897 120.627758,349.422044 120.687762,349.587134 C120.748089,349.753197 120.853176,349.798281 120.973832,349.96402 C121.094162,350.129434 121.606623,350.762226 121.756469,350.882881 C121.907288,351.003212 122.058107,351.047971 122.208602,350.973048 C122.359097,350.897477 123.112219,350.65649 123.368125,350.611731 C123.624031,350.565999 124.241254,350.505671 124.452077,350.445992 C124.662899,350.38534 124.903885,350.189762 125.009621,349.97894 C125.114708,349.768442 125.05438,349.361717 124.828638,349.075322 C124.602896,348.789253 124.362234,348.382852 124.106003,348.202518 C123.850098,348.02121 123.473212,347.90088 123.142059,347.62973 C122.810905,347.358904 122.52516,347.072834 122.133355,346.877256 C121.741874,346.681353 121.485968,346.696273 121.16941,346.651189 C120.853176,346.606106 119.686193,346.606106 119.317741,346.681353 C118.453693,346.857471 118.16211,347.052076 117.96718,347.440314 C117.772899,347.8292 117.82155,348.36404 117.870202,348.655624 C117.918853,348.947532 117.48164,349.04451 117.189732,349.093161 C116.898473,349.141813 116.218003,349.190464 115.974746,349.579026 C115.559264,350.244251 115.44023,351.592217 115.974746,352.106624 C116.412284,352.527944 117.092429,353.240848 117.740789,353.499998 C118.295414,353.721848 119.101404,354.472376 119.555159,354.990674 C120.009238,355.509297 121.564134,355.703578 122.147301,355.184631 C122.730469,354.666656 123.832583,354.925481 124.091732,355.184631 C124.350557,355.444429 125.452348,355.833315 126.165576,355.768447 C126.878156,355.703578 127.33191,356.157009 127.685443,356.583194 C127.901455,356.843641 127.944917,357.013272 128.275746,356.985703 C129.120333,356.914672 129.637659,357.020732 130.396619,357.192957 C131.155904,357.36421 131.19223,357.277611 131.593766,357.038895 C131.99595,356.800179 132.906379,356.506974 133.477545,356.398643 C134.048712,356.290638 134.292617,356.188794 134.545279,355.96889 C134.797942,355.749635 134.890379,355.281609 135.190072,354.798664 C135.491061,354.31507 135.854973,353.776986 135.855946,353.331989 C135.857243,352.886667 135.44468,352.858449 135.003899,352.798446 C134.563118,352.737469 134.122337,352.677466 133.669231,352.793581 C133.21645,352.910344 133.022817,353.13414 132.785075,353.56292 C132.547981,353.991052 132.516195,354.018297 132.680636,354.207712 C132.845727,354.397452 133.007898,354.20155 133.315374,354.045217 C133.622202,353.888235 133.705233,353.982943 133.511601,354.206415 C133.318293,354.430535 133.313752,354.489241 133.171366,354.83499 C133.028007,355.181712 132.886918,355.082139 132.722152,354.893372 C132.557386,354.703631 132.256073,354.356585 132.023519,354.281014 C131.79129,354.205118 131.689771,353.961537 131.906756,353.828556 C132.123417,353.694603 132.325157,353.352746 132.381917,352.97132 C132.437704,352.589569 132.741288,352.491942 133.13504,352.370639 C133.528791,352.250308 133.861242,351.739793 134.000385,351.45275 C134.138879,351.165707 134.406461,351.155004 134.56701,351.40345 C134.727884,351.651896 135.15634,351.889315 135.407381,352.114084 C135.658422,352.339177 136.331107,352.475401 136.894165,352.485456 C137.456899,352.494213 137.116339,353.124085 136.89157,353.374153 C136.666801,353.625843 136.511441,354.149006 136.281807,354.458753 C136.052497,354.7685 135.861784,355.378587 135.687612,355.75223 C135.513765,356.125872 135.413219,356.711634 135.289645,357.207553 C135.166395,357.702499 134.548523,357.630495 134.154123,357.751474 C133.760371,357.871805 132.917406,358.050518 132.401702,358.222095 C131.88535,358.393996 131.355375,358.431296 130.892538,358.591521 C130.248395,358.814019 129.146929,358.749151 128.692526,358.360265 C128.239744,357.972027 126.878156,356.999649 126.554462,356.869913 C126.23012,356.740176 125.398507,356.882886 124.545163,356.740176 C124.156601,356.675956 123.55819,356.566977 123.662952,357.009704 C123.776148,357.489082 123.53354,357.790071 123.373963,358.213338 C123.214387,358.636604 123.261092,358.664498 123.366503,358.914565 C123.471915,359.165606 123.566947,359.712123 123.583488,360.049114 C123.600354,360.38643 123.639275,360.534979 123.745335,360.697798 C123.851395,360.860618 124.113463,360.95111 124.367099,361.163229 C124.621059,361.374376 124.901939,361.626714 125.157521,361.663365 C125.413427,361.699367 125.462727,361.464543 125.533109,361.215448 C125.603167,360.967002 125.6729,360.718232 125.642088,360.448379 C125.611275,360.178851 125.49808,360.049114 125.270392,359.87851 C125.043028,359.707258 125.02973,359.686824 124.907777,359.766612 C124.7855,359.845752 124.885398,359.954731 124.951239,360.144471 C125.016756,360.334211 124.95578,360.373456 124.84226,360.244692 C124.72874,360.114956 124.695333,360.108144 124.507863,359.998192 C124.320394,359.88824 124.38883,359.815263 124.510458,359.735151 C124.632735,359.655687 124.856531,359.509733 124.918156,359.382915 C124.98043,359.255125 125.129303,359.216204 125.188658,359.351779 C125.247688,359.487354 125.428346,359.630388 125.643385,359.693635 C125.858424,359.756558 125.89021,359.938838 125.928158,360.175283 C125.966106,360.41108 126.233364,360.643309 126.387426,360.74645 C126.541164,360.848618 126.52592,361.003977 126.370236,361.075981 C126.214552,361.148958 126.043299,361.375998 125.893777,361.502816 C125.744256,361.628985 125.611924,362.005222 125.561975,362.328266 C125.510729,362.651311 125.176657,362.405135 125.050163,362.255614 C124.923346,362.106092 124.635006,361.974733 124.474781,361.817752 C124.31488,361.661419 123.97951,361.502816 123.778742,361.372106 C123.577975,361.242045 123.248767,361.137931 122.973401,361.027006 C122.698359,360.916405 122.789499,360.566764 122.751551,360.330319 C122.713927,360.093873 122.678249,359.594386 122.621165,359.284315 C122.563757,358.973596 122.677276,358.629469 122.529376,358.386536 C122.277038,357.972027 121.564134,357.19393 121.240116,357.064194 C120.916099,356.935105 120.073458,356.805044 119.490291,356.935105 C118.907123,357.064194 118.194544,356.28707 118.064807,356.027596 C117.935394,355.768447 117.889987,355.092842 117.481315,355.055543 C116.768736,354.990674 115.990963,354.925481 115.990963,355.639034 C115.990963,356.35129 116.57413,357.19393 116.120376,357.583141 C115.666946,357.972027 114.954042,358.424809 114.759761,358.911322 C114.418877,359.76272 114.273572,360.22361 115.099671,360.612821 C115.926095,361.001383 118.259088,361.876133 118.404717,362.557252 C118.550996,363.236749 119.133839,365.910301 119.620352,367.028633 C119.949559,367.78662 122.196277,368.438223 122.828095,368.535202 C123.459914,368.632504 124.820854,369.215672 125.161088,369.410277 C125.501323,369.604558 125.647277,369.361301 125.841234,369.264323 C126.036164,369.167345 126.619331,369.118045 126.862263,369.118045 C127.10552,369.118045 128.320505,368.875437 128.514462,368.778134 C128.709391,368.681156 129.389861,368.48655 129.389861,368.48655 C129.389861,368.48655 129.729447,368.291945 130.02168,368.48655 C130.313263,368.681156 131.382295,369.167345 131.819832,369.313299 C132.25737,369.458604 132.694908,369.799163 132.889188,370.090422 C133.083794,370.38233 133.375377,370.868519 133.812591,370.965173 C134.250128,371.062476 135.076227,371.548665 135.076227,371.548665 C135.465114,372.034529 135.99963,372.715647 136.38884,372.860628 C135.610743,372.618021 135.076227,372.326761 134.736317,372.034529 C134.395758,371.742945 133.958869,371.597316 133.521007,371.597316 C133.083794,371.597316 132.597281,371.20843 132.354673,370.819219 C132.111416,370.430657 131.5769,369.896141 131.139363,369.896141 C130.701825,369.896141 130.459217,370.090422 130.215961,370.236376 C129.972704,370.38233 129.972704,370.52796 129.632793,370.187401 C129.292559,369.84749 128.709391,369.458604 128.223203,369.555906 C127.737338,369.652885 127.250825,369.944793 126.76496,370.38233 C127.348452,370.625262 128.417808,370.868519 128.757718,370.965173 C129.097953,371.062476 129.243907,370.965173 129.292559,371.403035 C129.34121,371.840572 129.438188,371.937875 129.87605,372.375088 C130.313263,372.812626 131.188014,372.958255 131.479922,373.347142 C131.771181,373.735704 131.917135,374.221892 132.597281,374.318871 C133.278075,374.416498 134.006871,374.611103 134.298131,374.853711 C134.590363,375.096643 134.784644,375.485854 135.271157,375.728786 C134.784644,375.923391 134.15315,375.874416 133.909893,375.631159 C133.666961,375.388227 133.083794,374.951338 132.840537,374.902362 C132.597281,374.853711 131.72253,374.562127 131.382295,374.076263 C131.04206,373.590074 130.507544,373.201188 129.924377,373.006907 C130.02168,373.590074 130.118658,373.929984 130.36159,374.270544 C130.604847,374.611103 131.382295,375.19427 131.965786,375.533856 C132.549278,375.874416 132.597281,376.020369 132.694908,376.506234 C132.111416,376.068696 131.284992,375.680459 130.798803,375.437202 C130.313263,375.19427 129.632793,374.756733 129.681445,374.464825 C129.729447,374.173241 129.486839,373.201188 129.243907,372.860628 C128.466135,372.520394 127.737338,371.888899 127.10552,372.131832 C126.473377,372.375088 125.744256,372.472391 124.966808,372.277786 C125.647277,372.812626 126.036164,373.006907 125.987512,373.687377 C125.938537,374.367846 126.084491,374.65943 126.570679,375.047992 C127.056868,375.437202 127.737338,375.777113 128.271854,376.068696 C128.806694,376.360604 129.486839,376.311953 129.778747,376.749491 C128.952324,376.506234 128.125576,376.409256 127.494081,376.214975 C126.862263,376.020369 126.279096,375.728786 125.792907,375.19427 C125.306718,374.65943 125.06411,374.318871 124.723551,373.833006 C124.382992,373.347142 124.043081,372.812626 123.800149,372.423415 C123.556892,372.034529 123.022376,370.771216 122.439209,370.673914 C121.856042,370.576935 121.807391,370.625262 121.856042,370.965173 C121.904045,371.305732 121.95302,371.888899 121.758739,372.083505 C121.564783,372.277786 121.710413,372.569369 122.050323,372.860628 C122.390558,373.152861 121.856042,373.785004 121.467156,374.027611 C121.07827,374.270544 120.54343,374.80506 120.446127,375.096643 C120.349149,375.388227 120.883664,376.020369 121.029294,376.165999 C121.175572,376.311953 121.710413,376.554885 122.196277,376.798142 C122.682142,377.041074 122.925398,377.42996 122.584839,377.624566 C122.244928,377.818847 121.710413,378.013128 121.41818,378.25606 C121.564783,377.818847 122.099299,377.527263 121.856042,377.332333 C121.612786,377.138701 121.07827,376.603861 120.592405,376.506234 C120.105892,376.409256 119.668679,375.826089 119.5717,375.3399 C119.474398,374.853711 119.911611,374.611103 120.203195,374.367846 C120.494778,374.124914 120.54343,373.881982 120.203195,373.444444 C119.863284,373.006907 119.474398,372.375088 118.696625,372.472391 C117.918853,372.569369 117.724572,372.715647 116.898473,373.152861 C116.071725,373.590074 115.58586,373.735704 114.90539,373.444444 C114.225245,373.152861 113.398497,372.76365 112.572397,373.152861 C111.745973,373.541747 110.62829,374.562127 110.142102,375.096643 C109.655913,375.631159 108.732186,376.020369 108.003714,376.020369 C107.274268,376.020369 106.885707,376.506234 106.545472,377.041074 C106.205237,377.57559 105.719048,377.527263 105.184532,377.624566 C105.476116,377.186704 106.059607,377.284331 106.10761,376.895445 C106.156586,376.506234 106.545472,375.971718 106.691101,375.631159 C106.836731,375.291248 107.420222,375.096643 107.711806,375.3399 C108.003714,375.582832 108.684184,375.291248 108.975443,375.145619 C109.267675,374.99934 109.996472,374.076263 110.239729,373.444444 C110.482661,372.812626 110.871547,372.520394 111.357412,372.423415 C111.843276,372.326761 113.739056,371.791921 114.273572,371.354059 C113.00961,370.965173 111.648671,370.916846 111.211458,371.20843 C110.774244,371.500013 109.850194,372.034529 109.412981,372.472391 C108.975443,372.909928 108.635208,373.29849 107.955063,373.250163 C107.274268,373.201188 106.982685,373.492771 106.64245,373.833006 C106.302864,374.173241 106.10761,374.708081 105.524767,374.853711 C105.670721,374.367846 105.962305,373.881982 106.253888,373.541747 C106.545472,373.201188 106.788404,372.860628 107.274268,372.860628 C107.760457,372.860628 108.538554,372.860628 108.732186,372.423415 C108.927116,371.986202 109.024419,371.500013 109.2187,371.062476 C108.586557,371.354059 108.101017,371.694618 107.760457,371.986202 C107.420222,372.277786 106.739753,372.569369 106.205237,372.520394 C105.670721,372.472391 104.746995,372.326761 104.358433,372.131832 C103.969546,371.937875 103.434706,372.131832 102.705261,372.277786 C101.976464,372.423415 101.976464,372.034529 101.442273,371.888899 C100.907432,371.742945 100.566873,371.888899 100.323941,372.375088 C100.081009,372.860628 100.032357,373.687377 99.6917981,373.929984 C99.3515632,374.173241 98.6714178,374.756733 98.3798342,374.756733 C98.0882506,374.756733 97.5530861,374.951338 97.1648485,375.388227 C96.7759623,375.826089 96.1924708,375.874416 95.4633497,375.923391 C95.7552576,375.388227 96.4357274,375.631159 96.6783353,375.19427 C96.9215919,374.756733 97.0185702,374.270544 97.5530861,374.221892 C98.0882506,374.173241 98.4771368,374.076263 98.7690447,373.735704 C99.060304,373.395469 99.2545849,373.152861 99.3515632,372.715647 C99.4491902,372.277786 99.3035606,372.083505 98.8170474,372.229134 C98.3311829,372.375088 97.4564321,372.812626 97.2131755,373.103885 C96.9702433,373.395469 96.5327057,373.638725 95.8522359,373.687377" id="8"></path>
        </g>
    </g>
</svg>
