<?xml version="1.0" encoding="UTF-8"?>
<svg width="53px" height="61px" viewBox="0 0 53 61" version="1.1" xmlns="http://www.w3.org/2000/svg" xmlns:xlink="http://www.w3.org/1999/xlink">
    <title>118</title>
    <g id="页面-1" stroke="none" stroke-width="1" fill="none" fill-rule="evenodd">
        <g id="形状库素材-节日" transform="translate(-638.000000, -1042.000000)" fill="#545458">
            <path d="M687.570687,1084.7995 C686.905047,1084.7995 686.302431,1085.04469 685.825001,1085.43751 L681.561795,1082.89582 L685.829317,1082.32601 L685.594487,1080.56305 L679.103847,1081.42985 L675.830037,1079.47783 L688.538499,1077.78222 L688.303669,1076.01926 L673.372089,1078.01187 L670.927091,1076.55454 C671.342361,1075.68601 671.581508,1074.7182 671.581508,1073.69168 C671.581508,1072.90431 671.437329,1072.15147 671.186095,1071.45043 L673.372089,1070.14678 L688.303669,1072.13938 L688.538499,1070.37729 L675.8309,1068.68168 L679.102984,1066.72965 L685.594487,1067.59645 L685.829317,1065.8335 L681.560932,1065.26455 L685.999397,1062.61753 C686.445747,1062.92834 686.986202,1063.11223 687.570687,1063.11223 C689.095358,1063.11223 690.33167,1061.87678 690.33167,1060.35211 C690.33167,1058.82744 689.095358,1057.59113 687.570687,1057.59113 C686.046017,1057.59113 684.810568,1058.82744 684.810568,1060.35211 C684.810568,1060.64047 684.866686,1060.91242 684.948704,1061.17315 L680.56981,1063.78478 L682.209305,1059.80043 L680.56463,1059.12357 L678.022937,1065.3034 L674.50221,1067.4022 L679.500123,1055.2575 L677.855448,1054.58064 L671.95361,1068.92255 L670.366779,1069.86792 C669.236659,1068.26382 667.416724,1067.18723 665.336059,1067.06204 L665.336059,1064.38739 L674.632575,1051.97419 L673.208916,1050.90796 L665.336059,1061.4218 L665.336059,1057.32349 L669.34285,1051.97419 L667.919192,1050.90796 L665.336059,1054.35703 L665.336059,1047.84135 C666.404882,1047.46062 667.174987,1046.44964 667.174987,1045.25045 C667.174987,1043.72578 665.938674,1042.48947 664.414004,1042.48947 C662.889334,1042.48947 661.653885,1043.72578 661.653885,1045.25045 C661.653885,1046.47381 662.455071,1047.49947 663.558428,1047.86121 L663.558428,1054.26293 L660.882917,1050.88897 L659.490339,1051.99319 L663.558428,1057.12492 L663.558428,1060.93487 L655.593192,1050.88897 L654.200614,1051.99319 L663.558428,1063.79686 L663.558428,1067.18464 C661.923249,1067.52825 660.514268,1068.47534 659.561996,1069.77813 L657.634143,1068.62815 L652.310748,1054.60395 L650.648806,1055.23419 L655.175332,1067.16219 L651.903249,1065.21103 L649.600703,1059.14688 L647.938761,1059.77712 L649.444437,1063.74506 L644.41458,1060.7458 C644.433574,1060.61629 644.454294,1060.48679 644.454294,1060.35211 C644.454294,1058.82744 643.218845,1057.59113 641.694175,1057.59113 C640.169505,1057.59113 638.933192,1058.82744 638.933192,1060.35211 C638.933192,1061.87678 640.169505,1063.11223 641.694175,1063.11223 C642.43838,1063.11223 643.110927,1062.81438 643.607351,1062.33608 L648.700233,1065.37247 L644.352419,1065.83091 L644.538038,1067.59904 L651.247968,1066.89196 L654.767833,1068.98989 L641.643237,1070.3747 L641.828857,1072.14284 L657.315568,1070.50938 L658.715053,1071.34338 C658.438782,1072.07463 658.28079,1072.86373 658.28079,1073.69168 C658.28079,1074.75791 658.537204,1075.76285 658.983554,1076.65555 L657.316432,1077.65012 L641.828857,1076.01667 L641.643237,1077.78481 L654.768696,1079.16961 L651.247968,1081.26841 L644.538038,1080.56046 L644.352419,1082.3286 L648.700233,1082.7879 L643.753256,1085.73795 C643.247335,1085.16642 642.516944,1084.7995 641.694175,1084.7995 C640.169505,1084.7995 638.933192,1086.03495 638.933192,1087.55962 C638.933192,1089.08429 640.169505,1090.3206 641.694175,1090.3206 C643.218845,1090.3206 644.454294,1089.08429 644.454294,1087.55962 C644.454294,1087.50523 644.441344,1087.45342 644.438754,1087.3999 L649.444437,1084.41444 L647.938761,1088.38152 L649.600703,1089.01263 L651.903249,1082.94848 L655.175332,1080.99732 L650.648806,1092.92618 L652.310748,1093.55642 L657.63328,1079.53136 L659.986763,1078.12842 C660.91227,1079.16012 662.151173,1079.90346 663.558428,1080.19872 L663.558428,1082.12053 L654.239464,1093.87672 L655.632043,1094.98094 L663.558428,1084.98425 L663.558428,1088.79334 L659.529189,1093.87672 L660.921767,1094.98094 L663.558428,1091.65706 L663.558428,1097.11773 C662.455071,1097.47947 661.653885,1098.50512 661.653885,1099.72935 C661.653885,1101.25402 662.889334,1102.48947 664.414004,1102.48947 C665.938674,1102.48947 667.174987,1101.25402 667.174987,1099.72935 C667.174987,1098.5293 666.404882,1097.51918 665.336059,1097.13845 L665.336059,1091.46194 L667.957179,1094.96195 L669.380837,1093.89572 L665.336059,1088.49376 L665.336059,1084.39631 L673.247767,1094.96195 L674.672289,1093.89572 L665.336059,1081.42899 L665.336059,1080.32218 C667.17844,1080.21081 668.816209,1079.35351 669.952373,1078.04381 L671.95361,1079.23695 L677.855448,1093.57973 L679.500123,1092.902 L674.50221,1080.75731 L678.02121,1082.85524 L680.56463,1089.03594 L682.209305,1088.35821 L680.570673,1084.37473 L684.883953,1086.9475 C684.839059,1087.14521 684.810568,1087.3481 684.810568,1087.55962 C684.810568,1089.08429 686.046017,1090.3206 687.570687,1090.3206 C689.095358,1090.3206 690.33167,1089.08429 690.33167,1087.55962 C690.33167,1086.03495 689.095358,1084.7995 687.570687,1084.7995" id="118"></path>
        </g>
    </g>
</svg>
