<?xml version="1.0" encoding="UTF-8"?>
<svg width="40px" height="60px" viewBox="0 0 40 60" version="1.1" xmlns="http://www.w3.org/2000/svg" xmlns:xlink="http://www.w3.org/1999/xlink">
    <title>103</title>
    <g id="页面-1" stroke="none" stroke-width="1" fill="none" fill-rule="evenodd">
        <g id="形状库素材-节日" transform="translate(-249.000000, -952.000000)" fill="#545458">
            <path d="M254.048304,990.144148 L254.868263,988.814061 L255.138217,989.048246 C258.999016,992.362921 266.273705,997.143357 276.129313,997.143357 C279.387385,997.143357 282.932318,996.607077 286.723427,995.335512 L286.976682,995.843748 C287.81929,997.551713 288.344572,998.802499 288.234092,999.078565 C287.983927,999.70389 283.889906,1000.14794 279.547349,1000.41072 L278.872007,1000.45004 L278.298937,1000.48108 L277.271389,1000.53168 L276.527557,1000.56443 C274.680904,1000.64178 272.944185,1000.68513 271.609405,1000.69448 L271.862951,1005.05165 L266.943266,1005.05165 L266.943266,1000.59306 L266.062315,1000.55633 C265.312831,1000.52351 264.527246,1000.48521 263.722771,1000.44179 L262.77826,1000.38892 C261.856041,1000.33543 260.91825,1000.27558 259.989682,1000.20986 L258.379027,1000.08895 C253.832184,999.726943 249.877537,999.225458 249.614545,998.646946 C249.352811,998.070763 251.632598,994.089699 254.048304,990.144148 Z M256.562012,994.652705 C256.44261,994.652705 256.340601,995.037447 256.294609,995.587584 L256.140489,995.461422 C255.79099,995.185388 255.518123,995.041796 255.444344,995.115575 C255.360025,995.199894 255.559619,995.544245 255.916353,995.965545 L255.718233,995.985355 C255.276043,996.037376 254.981474,996.128729 254.981474,996.232948 C254.981474,996.352351 255.366216,996.454654 255.916353,996.500351 L255.790192,996.654472 C255.514157,997.003971 255.370565,997.276837 255.444344,997.350616 C255.528663,997.434935 255.873015,997.235341 256.294609,996.878607 C256.340601,997.428744 256.44261,997.813486 256.562012,997.813486 C256.68112,997.813486 256.783423,997.428744 256.829415,996.878607 C257.250715,997.235341 257.595067,997.434935 257.679386,997.350616 C257.763705,997.266297 257.56411,996.921946 257.207376,996.500351 L257.405497,996.480639 C257.847687,996.428811 258.142255,996.337426 258.142255,996.232948 C258.142255,996.11384 257.757513,996.011537 257.207376,995.965545 L257.333538,995.811522 C257.609573,995.46222 257.753165,995.189354 257.679386,995.115575 C257.595067,995.031256 257.250715,995.23085 256.829415,995.587584 L256.809606,995.389464 C256.757585,994.947273 256.666232,994.652705 256.562012,994.652705 Z M258.174391,977.808671 C260.385847,979.378595 264.549021,981.695892 269.891185,981.695892 C273.202915,981.695892 276.964837,980.79875 280.983843,978.28127 L281.17238,978.569657 C282.003022,979.851691 282.583869,980.910101 282.51662,981.279014 C282.30081,982.46567 279.388269,982.034052 279.388269,982.034052 L281.201423,985.196703 C281.677135,986.034213 282.215603,986.988107 282.777768,987.994898 L283.481533,989.261055 L284.091546,990.369004 L284.646923,991.387889 C285.197717,992.40384 285.730793,993.404539 286.210438,994.331939 C271.131204,999.310589 260.191854,992.041177 255.467045,987.852943 L257.288417,984.972069 C258.479186,983.106925 259.32331,981.818243 259.32331,981.818243 L259.026448,981.890754 C258.287744,982.059949 256.389188,982.422509 255.871246,981.818243 C255.612392,981.516345 256.735073,979.781026 258.174391,977.808671 Z M277.177698,991.534968 C276.456859,991.534968 275.872523,992.119304 275.872523,992.840438 C275.872523,993.561276 276.456859,994.145612 277.177698,994.145612 C277.898831,994.145612 278.483462,993.561276 278.483462,992.840438 C278.483462,992.119304 277.898831,991.534968 277.177698,991.534968 Z M263.01359,986.574302 C262.292752,986.574302 261.708416,987.158639 261.708416,987.879477 C261.708416,988.60061 262.292752,989.184946 263.01359,989.184946 C263.734724,989.184946 264.31906,988.60061 264.31906,987.879477 C264.31906,987.158639 263.734724,986.574302 263.01359,986.574302 Z M272.086721,985.52975 C271.365588,985.52975 270.781251,986.114381 270.781251,986.835219 C270.781251,987.556058 271.365588,988.140689 272.086721,988.140689 C272.807559,988.140689 273.39219,987.556058 273.39219,986.835219 C273.39219,986.114381 272.807559,985.52975 272.086721,985.52975 Z M277.880552,983.949212 C277.761149,983.949212 277.659141,984.333954 277.613149,984.884091 C277.191554,984.527652 276.847203,984.327763 276.763179,984.412082 C276.678565,984.496696 276.878454,984.840752 277.235188,985.262347 L277.036971,985.282144 C276.594582,985.334113 276.300014,985.425273 276.300014,985.52975 C276.300014,985.649153 276.684756,985.751161 277.234893,985.797153 C276.878454,986.218748 276.678565,986.563099 276.763179,986.647418 C276.847203,986.731737 277.191554,986.531848 277.613149,986.175409 L277.632946,986.373529 C277.684915,986.81572 277.776075,987.110288 277.880552,987.110288 C277.999955,987.110288 278.101963,986.725546 278.147955,986.175409 L278.302063,986.301486 C278.651506,986.57738 278.924146,986.721197 278.997925,986.647418 C279.082244,986.563099 278.88265,986.218748 278.526211,985.797153 L278.724331,985.777356 C279.166522,985.725387 279.46109,985.634227 279.46109,985.52975 C279.46109,985.410347 279.076348,985.308339 278.526211,985.262347 L278.652276,985.108239 C278.928113,984.758792 279.071705,984.486119 278.997925,984.412082 C278.913607,984.327763 278.56955,984.527652 278.147955,984.884091 C278.101963,984.333954 277.999955,983.949212 277.880552,983.949212 Z M263.050148,967.577187 L263.327953,967.73593 C265.059556,968.706638 267.942493,969.976739 271.191643,969.976739 C273.18552,969.976739 275.313542,969.494411 277.392328,968.172431 L277.719186,968.576116 C278.737184,969.849093 279.400062,970.839386 279.280364,971.13863 C278.848746,972.217382 276.259919,971.785763 276.259919,971.785763 L277.020517,972.776291 C277.587785,973.521889 278.405324,974.610156 279.237294,975.76465 L279.443886,976.052306 L279.753132,976.486834 L280.359411,977.355235 C270.302756,983.662351 262.153891,979.364444 258.82005,976.93541 L259.09057,976.575569 L259.742632,975.719567 L260.74059,974.434349 C262.098271,972.703187 263.206993,971.354439 263.206993,971.354439 L262.955855,971.416564 C262.331031,971.561522 260.725835,971.872146 260.294452,971.354439 C260.095153,971.115339 261.367602,969.508267 263.050148,967.577187 Z M266.016347,974.041737 C265.295214,974.041737 264.710877,974.626368 264.710877,975.347206 C264.710877,976.06834 265.295214,976.652676 266.016347,976.652676 C266.737185,976.652676 267.321816,976.06834 267.321816,975.347206 C267.321816,974.626368 266.737185,974.041737 266.016347,974.041737 Z M273.39219,972.736267 C272.671057,972.736267 272.086721,973.320898 272.086721,974.041737 C272.086721,974.76287 272.671057,975.347206 273.39219,975.347206 C274.113029,975.347206 274.69766,974.76287 274.69766,974.041737 C274.69766,973.320898 274.113029,972.736267 273.39219,972.736267 Z M270.002923,952 L270.950184,953.640387 L272.844412,953.640387 L271.897445,955.281068 L272.844412,956.921455 L270.950184,956.921455 L270.194557,958.230167 L270.665976,960.71905 L271.874964,961.996489 C273.25167,963.462088 275.141315,965.511398 276.669131,967.30772 C274.124822,968.890322 271.227316,969.281844 268.017595,968.465189 C266.294364,968.026495 264.819667,967.310668 263.799584,966.726037 C264.238809,966.231504 264.693542,965.726616 265.147985,965.22692 L266.163326,964.117921 C267.60997,962.547634 268.928402,961.155327 269.576316,960.474643 L269.859639,958.313602 L269.055956,956.921455 L267.161728,956.921455 L268.10899,955.281068 L267.161728,953.640387 L269.055956,953.640387 L270.002923,952 Z M270.003218,963.779297 C269.883815,963.779297 269.781512,964.164039 269.73552,964.714176 L269.581497,964.588098 C269.232195,964.312205 268.959328,964.168387 268.885549,964.242166 C268.80123,964.326485 269.000825,964.670837 269.357559,965.092431 L269.159439,965.112241 C268.717248,965.164262 268.42268,965.255615 268.42268,965.359835 C268.42268,965.479237 268.807422,965.581245 269.357559,965.627238 L269.231397,965.781358 C268.955362,966.130857 268.81177,966.403724 268.885549,966.477503 C268.969868,966.561822 269.31422,966.361933 269.73552,966.005494 L269.75533,966.203614 C269.807355,966.645804 269.89874,966.940372 270.003218,966.940372 C270.122325,966.940372 270.224628,966.55563 270.270326,966.005494 C270.69192,966.361933 271.036272,966.561822 271.120591,966.477503 C271.20491,966.393184 271.005316,966.048832 270.648582,965.627238 L270.846702,965.60744 C271.288892,965.555472 271.583461,965.464312 271.583461,965.359835 C271.583461,965.240727 271.198719,965.138424 270.648582,965.092431 C271.005316,964.670837 271.20491,964.326485 271.120591,964.242166 C271.036272,964.157847 270.69192,964.357736 270.270326,964.71447 L270.250614,964.516253 C270.19879,964.073865 270.107437,963.779297 270.003218,963.779297 Z M270.002923,954.135687 C269.447184,954.135687 268.996402,954.586469 268.996402,955.142502 C268.996402,955.698535 269.447184,956.149022 270.002923,956.149022 C270.558956,956.149022 271.009738,955.698535 271.009738,955.142502 C271.009738,954.586469 270.558956,954.135687 270.002923,954.135687 Z M270.003218,954.568779 C270.319856,954.568779 270.57694,954.825569 270.57694,955.142502 C270.57694,955.459435 270.319856,955.716225 270.003218,955.716225 C269.686284,955.716225 269.4292,955.459435 269.4292,955.142502 C269.4292,954.825569 269.686284,954.568779 270.003218,954.568779 Z M264.494184,1007.12925 L265.817932,1007.12925 L266.943266,1012 L272.086721,1012 L273.237704,1007.12925 L273.958837,1007.12925 L273.958837,1005.82379 L264.494184,1005.82379 L264.494184,1007.12925 Z" id="103"></path>
        </g>
    </g>
</svg>
