<?xml version="1.0" encoding="UTF-8"?>
<svg width="52px" height="61px" viewBox="0 0 52 61" version="1.1" xmlns="http://www.w3.org/2000/svg" xmlns:xlink="http://www.w3.org/1999/xlink">
    <title>113</title>
    <g id="页面-1" stroke="none" stroke-width="1" fill="none" fill-rule="evenodd">
        <g id="形状库素材-节日" transform="translate(-223.000000, -1035.000000)" fill="#545458">
            <path d="M250.843025,1035.5141 C253.356997,1035.66318 253.377326,1040.54205 253.377326,1040.54205 C253.377326,1040.54205 257.217872,1038.62959 259.076638,1039.7117 C260.486089,1040.53162 259.160558,1044.02345 256.503764,1046.10427 C264.268776,1050.97688 269.635532,1064.14618 269.444756,1077.81588 C267.141455,1077.57977 264.284314,1077.47836 261.16694,1077.46898 L260.174198,1077.46903 C258.506353,1077.47404 256.774982,1077.5033 255.022893,1077.5506 L253.969495,1077.58109 C242.186441,1077.9446 229.857632,1079.06166 229.857632,1079.06166 C229.857632,1079.06166 230.587899,1053.54611 243.418386,1046.02973 C241.894782,1044.25072 239.857229,1041.40471 241.179632,1040.15267 C243.173922,1038.26524 247.705641,1040.96895 247.705641,1040.96895 C247.705641,1040.96895 248.329052,1035.36554 250.843025,1035.5141 Z M252.918108,1051.4851 L252.055966,1051.7353 L253.359082,1056.23001 L252.208691,1058.13933 L249.694718,1052.89194 L247.256847,1058.92694 L245.61909,1056.49324 L246.641255,1051.90574 L245.764518,1051.71028 L244.928438,1055.46742 L242.921638,1052.48641 L242.176777,1052.98837 L244.135101,1055.89641 L240.492629,1055.40018 L240.371699,1056.29047 L244.806466,1056.89408 L246.238852,1059.0218 L240.518691,1058.58135 L244.118942,1063.18761 L241.636765,1063.26475 L238.523359,1059.89437 L237.864503,1060.50319 L240.449886,1063.30176 L237.392774,1063.39663 L237.420922,1064.29422 L240.400889,1064.20143 L237.896299,1066.9385 L238.557761,1067.54471 L241.653445,1064.16286 L244.486942,1064.07477 L240.858023,1069.37272 L245.863555,1068.66852 L245.208348,1069.75532 L240.82362,1070.63622 L241.000323,1071.51609 L244.580245,1070.79677 L242.505683,1074.24012 L243.274001,1074.70299 L245.416325,1071.14965 L246.493742,1074.86771 L247.356405,1074.61751 L246.046512,1070.10299 L247.008213,1068.50745 L247.483068,1068.44021 L250.373903,1074.47416 L252.723161,1068.65601 L253.728646,1070.14886 L252.771116,1074.44706 L253.646811,1074.64253 L254.41982,1071.17519 L256.667435,1074.51482 L257.411776,1074.0139 L254.991106,1070.41782 L258.918179,1070.9521 L259.038587,1070.06285 L254.31974,1069.42016 L253.583219,1068.32502 L259.54993,1068.78423 L255.59888,1063.72971 L258.043527,1063.6536 L261.337285,1066.82747 L261.959653,1066.18113 L259.295561,1063.61451 L263.358679,1063.48837 L263.330532,1062.5913 L259.176196,1062.72057 L261.587483,1059.75676 L260.890055,1059.19017 L257.989317,1062.75706 L255.902766,1062.82169 L259.210077,1057.99286 L252.801349,1058.89462 L254.182652,1056.60218 L258.587187,1055.7171 L258.410484,1054.83619 L254.810755,1055.56021 L256.398472,1052.92426 L255.629633,1052.46139 L253.989791,1055.18282 L252.918108,1051.4851 Z M249.978276,1058.80392 L251.245948,1061.44925 L254.150335,1061.04059 L252.49277,1063.46022 L254.299412,1065.77143 L251.374696,1065.54625 L250.276429,1068.26559 L249.009279,1065.62027 L246.104892,1066.02945 L247.761935,1063.6093 L245.955815,1061.29809 L248.880531,1061.52379 L249.978276,1058.80392 Z M263.888266,1080.30535 C262.114985,1084.01298 258.188955,1091.80457 256.378143,1095.3871 C253.356997,1095.46998 250.160191,1095.5122 247.010298,1095.51118 L253.273077,1080.29076 C257.069317,1080.23967 260.739415,1080.24384 263.888266,1080.30535 Z M250.607421,1080.3361 C248.918582,1083.88527 244.953458,1091.75766 243.06863,1095.48927 C239.705546,1095.4507 236.528026,1095.36365 233.842563,1095.23073 L239.817093,1080.71088 C243.217185,1080.5347 246.924813,1080.4096 250.607421,1080.3361 Z M266.521083,1080.37676 C270.4247,1080.5102 273.11329,1080.75258 273.493801,1081.11068 C275.139898,1082.65565 274.044237,1091.35839 272.293369,1093.69514 C271.723647,1094.45459 266.817151,1094.96333 260.402689,1095.2448 Z M237.088366,1080.86621 C235.451652,1084.28715 232.012987,1091.12487 230.066131,1094.98105 C227.816951,1094.78506 226.318888,1094.53747 226.001449,1094.23932 C224.120269,1092.47386 222.728019,1086.60149 225.635534,1082.61708 C226.196916,1081.84772 230.867808,1081.26236 237.088366,1080.86621 Z" id="113"></path>
        </g>
    </g>
</svg>
