<?xml version="1.0" encoding="UTF-8"?>
<svg width="49px" height="61px" viewBox="0 0 49 61" version="1.1" xmlns="http://www.w3.org/2000/svg" xmlns:xlink="http://www.w3.org/1999/xlink">
    <title>christmas-tree-14-svgrepo-com</title>
    <g id="页面-1" stroke="none" stroke-width="1" fill="none" fill-rule="evenodd">
        <g id="形状库素材-节日" transform="translate(-245.000000, -883.000000)" fill="#545458" fill-rule="nonzero">
            <g id="christmas-tree-14-svgrepo-com" transform="translate(245.009452, 883.512772)">
                <polygon id="路径" points="20.6548525 11.3870085 24.3555687 9.19824026 28.0548789 11.3870085 27.1166344 7.19168383 30.3424282 4.34929659 26.0621494 3.94550113 24.3555687 0 22.6489881 3.94550113 18.3687093 4.34929659 21.5930969 7.19168383"></polygon>
                <path d="M19.4623318,31.3977334 C18.1827478,31.3977334 17.1450193,32.435462 17.1450193,33.715749 C17.1450193,34.995333 18.1827478,36.0330616 19.4623318,36.0330616 C20.7426188,36.0330616 21.7804646,34.995333 21.7804646,33.715749 C21.7804646,32.435462 20.742736,31.3977334 19.4623318,31.3977334 Z M18.725282,33.820389 C18.2597338,33.820389 17.8828892,33.4435445 17.8828892,32.9779962 C17.8828892,32.5125651 18.2597338,32.1356034 18.725282,32.1356034 C19.1908303,32.1356034 19.5676748,32.5125651 19.5676748,32.9779962 C19.5676748,33.4434273 19.1908303,33.820389 18.725282,33.820389 Z" id="形状"></path>
                <path d="M32.0171364,46.3569139 C32.0171364,47.6364979 33.0549822,48.6743436 34.3345662,48.6743436 C35.6148532,48.6743436 36.6525818,47.6364979 36.6525818,46.3569139 C36.6525818,45.0759238 35.6148532,44.0388983 34.3345662,44.0388983 C33.054865,44.0388983 32.0171364,45.0759238 32.0171364,46.3569139 Z M33.5966962,46.4607336 C33.1319681,46.4607336 32.7543034,46.0845922 32.7543034,45.6191611 C32.7543034,45.1536128 33.1319681,44.775948 33.5966962,44.775948 C34.0628303,44.775948 34.4404951,45.1536128 34.4404951,45.6191611 C34.4403779,46.0845922 34.0628303,46.4607336 33.5966962,46.4607336 Z" id="形状"></path>
                <path d="M27.8218118,25.6598773 C27.8218118,24.6700746 27.0200798,23.8683425 26.030277,23.8683425 C25.0411773,23.8683425 24.2394453,24.6700746 24.2394453,25.6598773 C24.2394453,26.648977 25.0411773,27.450709 26.030277,27.450709 C27.0200798,27.4508262 27.8218118,26.6490941 27.8218118,25.6598773 Z M25.4602059,25.7404958 C25.1014068,25.7404958 24.8095164,25.4493084 24.8095164,25.0898062 C24.8095164,24.7303041 25.1014068,24.4382964 25.4602059,24.4382964 C25.8204112,24.4382964 26.1123016,24.7303041 26.1123016,25.0898062 C26.1123016,25.4493084 25.820294,25.7404958 25.4602059,25.7404958 Z" id="形状"></path>
                <path d="M13.1413978,45.3482455 C12.0368778,45.3482455 11.1399972,46.244423 11.1399972,47.3496461 C11.1399972,48.4548692 12.0368778,49.3510467 13.1413978,49.3510467 C14.246035,49.3510467 15.1427984,48.4548692 15.1427984,47.3496461 C15.1427984,46.244423 14.246035,45.3482455 13.1413978,45.3482455 Z M12.5046525,47.440459 C12.1022631,47.440459 11.776977,47.1150557 11.776977,46.7134866 C11.776977,46.3112145 12.1022631,45.985108 12.5046525,45.985108 C12.9069246,45.985108 13.233031,46.3112145 13.233031,46.7134866 C13.233031,47.1150557 12.9069246,47.440459 12.5046525,47.440459 Z" id="形状"></path>
                <path d="M23.6759362,43.8435625 C22.6287163,43.8435625 21.7804646,44.6918142 21.7804646,45.7390342 C21.7804646,46.786137 22.6285991,47.6343887 23.6759362,47.6343887 C24.7231562,47.6343887 25.5712907,46.786137 25.5712907,45.7390342 C25.5712907,44.691697 24.723039,43.8435625 23.6759362,43.8435625 Z M23.0723522,45.8245741 C22.691758,45.8245741 22.3838142,45.5167475 22.3838142,45.1361533 C22.3838142,44.754856 22.691758,44.4462091 23.0723522,44.4462091 C23.4536495,44.4462091 23.7622964,44.754856 23.7622964,45.1361533 C23.7622964,45.5167475 23.4536495,45.8245741 23.0723522,45.8245741 Z" id="形状"></path>
                <path d="M48.8136683,47.594431 C48.762813,46.9466709 48.354682,46.3838648 47.7562538,46.1333382 C43.9167988,44.5319834 40.2908421,41.9946105 37.7455012,39.8878669 C39.2501841,39.5342236 40.9212599,38.9779796 42.4063741,38.1093389 C42.9342611,37.7985828 43.2589614,37.2314412 43.2589614,36.6198891 L43.2575552,36.5494651 C43.2313074,35.90897 42.8544628,35.3387818 42.2807593,35.0622417 C40.4841858,34.1973507 38.6395694,32.7790279 37.0534478,31.3294186 C36.0716131,30.4333583 35.1864504,29.5262833 34.4558454,28.7332224 C35.4994329,28.4797664 36.7020309,28.061558 37.9904032,27.3693874 C38.5546154,27.0665994 38.9018139,26.4797719 38.9018139,25.8458388 L38.8981813,25.7383866 L38.8981813,25.7354571 C38.8545911,25.0614491 38.4224386,24.4740357 37.7906147,24.2314772 C36.3708858,23.6904663 34.8930366,22.7660489 33.4943997,21.6723093 C29.2860683,18.3927308 25.8277934,13.6317878 25.8140836,13.60554 L25.8154897,13.6077663 C25.4902035,13.1538187 24.9673552,12.8859497 24.4102909,12.8859497 C23.8532266,12.8859497 23.3289721,13.1546389 23.0042718,13.6099927 L23.0087246,13.6027277 C22.9913822,13.6274523 21.4626778,15.742164 19.187315,18.1284944 C18.0508054,19.3201948 16.7284514,20.5779837 15.3282912,21.6710203 C13.9295372,22.7646428 12.4502819,23.6898804 11.0290296,24.2315944 L11.0261002,24.2322975 C10.3965027,24.4741529 9.96446733,25.0615663 9.92087711,25.7355743 L9.91724459,25.845956 C9.91724459,26.4798891 10.2651461,27.0667166 10.8293583,27.3703249 C12.1176135,28.0616752 13.3209146,28.4800007 14.364502,28.7333396 C13.633194,29.5264004 12.747914,30.4334755 11.7660794,31.3295358 C10.1792546,32.7791451 8.33545849,34.1973507 6.5387679,35.0623588 C5.96576738,35.3390161 5.5882198,35.9090872 5.56267499,36.5495823 L5.56267499,36.5466528 L5.56126885,36.6200063 C5.56126885,37.2321442 5.88585197,37.7987 6.41245,38.1086358 L6.41385613,38.1093389 C7.8982673,38.9778624 9.56922587,39.5341065 11.0739088,39.8878669 C8.52716173,41.9953136 4.89968175,44.5335067 1.06245311,46.1333382 C0.464024961,46.3838648 0.0558939158,46.9466709 0.00503865488,47.5937279 L0,47.7288341 C0,48.326442 0.310053042,48.8835064 0.819777432,49.1994183 L0.821886636,49.2009416 C2.03678835,49.9480687 3.56924251,50.6220766 5.3301938,51.2321054 C8.94091732,52.4782937 13.5196485,53.4455982 18.1194717,53.9335275 L19.4063207,59.5013583 C19.4731122,59.7911396 19.7135615,59.9951465 19.9902188,59.9951465 L28.8274335,59.9951465 C29.1033878,59.9951465 29.344423,59.7910224 29.4112144,59.5013583 L30.6973604,53.9305981 C33.0575601,53.6793684 35.4119009,53.3061564 37.6319556,52.8311167 C39.7409257,52.3800985 41.7284992,51.8406109 43.4881616,51.2319882 C45.2492301,50.6219595 46.781567,49.9479515 47.9964687,49.2008244 L47.9971718,49.2001214 C48.5091226,48.8835064 48.8184726,48.326442 48.8184726,47.7288341 L48.8136683,47.594431 Z M42.8448542,49.3692093 C37.8398295,51.104147 30.615453,52.3162365 24.4100565,52.3124954 C20.2713288,52.3131898 15.6824032,51.7787409 11.5989835,50.9044757 C9.55762524,50.4672845 7.64117872,49.9458423 5.97385266,49.3692093 C4.51053354,48.8645235 3.25555694,48.3140212 2.26868366,47.756371 C7.09653528,45.6445887 11.3920472,42.3272789 13.9214519,40.0266057 C14.2046712,39.768111 14.3121234,39.3715805 14.1981092,39.0056336 C14.0849152,38.6395694 13.7704094,38.3738097 13.3906355,38.3215483 C11.8256058,38.1123855 9.59336454,37.5741869 7.80757151,36.6236388 C9.7226119,35.6258679 11.5316062,34.2089513 13.0944094,32.7848868 C14.7675944,31.2577057 16.1525214,29.7253687 17.0260836,28.7035764 C17.2643065,28.4239896 17.3281685,28.0354273 17.1901328,27.6942049 C17.0520971,27.3535684 16.7361851,27.1175719 16.3702382,27.08277 C15.3579373,26.9862153 13.8916887,26.6841304 12.2119418,25.8599002 C13.7238898,25.2121401 15.1821702,24.284676 16.5408494,23.2244493 C18.7935968,21.4649042 20.7840999,19.374917 22.2299595,17.7104032 C23.301904,16.4751125 24.0716464,15.474295 24.4100565,15.0218707 C24.9038447,15.6806455 26.2974429,17.4837809 28.2095538,19.4896343 C29.3948095,20.7328931 30.7796194,22.0531378 32.2814901,23.2259726 C33.6395833,24.2861994 35.0955202,25.2128431 36.6060621,25.8606032 C34.9270182,26.6848334 33.4615899,26.9862153 32.449992,27.0828872 C32.0839279,27.1178062 31.768016,27.3529825 31.6300974,27.6943221 C31.4921789,28.0355445 31.5553379,28.4241068 31.7941467,28.7036936 C32.6671229,29.7254859 34.0519328,31.2578229 35.7252349,32.785004 C37.287921,34.2090685 39.0970324,35.6266882 41.0120728,36.623756 C39.2271,37.5743041 36.9947416,38.1116825 35.4288917,38.3216655 C35.0491177,38.3739269 34.7346119,38.6396866 34.6205977,39.0057508 C34.5074037,39.3718149 34.6147388,39.7682281 34.8980753,40.0267229 C37.4260739,42.3258728 41.7200624,45.6432997 46.5501404,47.7564882 C45.56315,48.3140212 44.3082905,48.8645235 42.8448542,49.3692093 Z" id="形状"></path>
                <path d="M28.7572439,35.0607183 C27.6519036,35.0607183 26.7558433,35.9568958 26.7558433,37.0621189 C26.7558433,38.167342 27.6519036,39.0635195 28.7572439,39.0635195 C29.862467,39.0635195 30.7586445,38.167342 30.7586445,37.0621189 C30.7586445,35.9568958 29.862467,35.0607183 28.7572439,35.0607183 Z M28.1202642,37.1529319 C27.717992,37.1529319 27.3932917,36.8276457 27.3932917,36.4259595 C27.3932917,36.0236873 27.7178749,35.6975809 28.1202642,35.6975809 C28.5226535,35.6975809 28.8479397,36.0235701 28.8479397,36.4259595 C28.8479397,36.8276457 28.5225363,37.1529319 28.1202642,37.1529319 Z" id="形状"></path>
            </g>
        </g>
    </g>
</svg>
