<?xml version="1.0" encoding="UTF-8"?>
<svg width="60px" height="61px" viewBox="0 0 60 61" version="1.1" xmlns="http://www.w3.org/2000/svg" xmlns:xlink="http://www.w3.org/1999/xlink">
    <title>116</title>
    <g id="页面-1" stroke="none" stroke-width="1" fill="none" fill-rule="evenodd">
        <g id="形状库素材-节日" transform="translate(-466.000000, -1042.000000)" fill="#545458">
            <path d="M496.021925,1083.25182 C496.021925,1077.30774 491.204223,1072.4889 485.260142,1072.4889 C491.204223,1072.4889 496.021925,1067.67005 496.021925,1061.72597 C496.021925,1067.67005 500.841914,1072.4889 506.785995,1072.4889 C500.841914,1072.4889 496.021925,1077.30774 496.021925,1083.25182 Z M521.450655,1067.91705 C519.070964,1067.91705 517.139537,1069.74099 516.921123,1072.0635 C506.513835,1070.18925 498.321569,1061.99699 496.448463,1051.5897 C498.769833,1051.37128 500.593768,1049.43986 500.593768,1047.06131 C500.593768,1044.53525 498.546845,1042.48947 496.021925,1042.48947 C493.497006,1042.48947 491.450083,1044.53525 491.450083,1047.06131 C491.450083,1049.43986 493.274017,1051.37128 495.596531,1051.5897 C493.722282,1061.99699 485.530016,1070.1904 475.122728,1072.0635 C474.905456,1069.74099 472.972887,1067.91705 470.593196,1067.91705 C468.068276,1067.91705 466.021353,1069.96398 466.021353,1072.4889 C466.021353,1075.01382 468.068276,1077.06074 470.593196,1077.06074 C472.972887,1077.06074 474.905456,1075.23681 475.122728,1072.91429 C485.530016,1074.78854 493.722282,1082.98081 495.596531,1093.38924 C493.274017,1093.60651 491.450083,1095.53908 491.450083,1097.91763 C491.450083,1100.44255 493.497006,1102.48947 496.021925,1102.48947 C498.546845,1102.48947 500.593768,1100.44255 500.593768,1097.91763 C500.593768,1095.53908 498.769833,1093.60651 496.448463,1093.38924 C498.321569,1082.98195 506.513835,1074.78968 516.921123,1072.91543 C517.139537,1075.23681 519.070964,1077.06074 521.450655,1077.06074 C523.975574,1077.06074 526.022497,1075.01382 526.022497,1072.4889 C526.022497,1069.96398 523.975574,1067.91705 521.450655,1067.91705 L521.450655,1067.91705 Z" id="116"></path>
        </g>
    </g>
</svg>
