<?xml version="1.0" encoding="UTF-8"?>
<svg width="49px" height="61px" viewBox="0 0 49 61" version="1.1" xmlns="http://www.w3.org/2000/svg" xmlns:xlink="http://www.w3.org/1999/xlink">
    <title>day-of-the-dead-illustration-2-svgrepo-com</title>
    <g id="页面-1" stroke="none" stroke-width="1" fill="none" fill-rule="evenodd">
        <g id="形状库素材-节日" transform="translate(-568.000000, -156.000000)" fill="#545458" fill-rule="nonzero">
            <g id="day-of-the-dead-illustration-2-svgrepo-com" transform="translate(568.751044, 156.558244)">
                <path d="M15.8987038,24.4933528 C13.037455,24.4933528 10.719253,26.8124924 10.719253,29.6737411 C10.719253,32.5340523 13.037455,34.8540122 15.8987038,34.8540122 C18.759015,34.8540122 21.079092,32.5340523 21.079092,29.6737411 C21.079092,26.8124924 18.7591321,24.4933528 15.8987038,24.4933528 Z" id="路径"></path>
                <path d="M15.8987038,38.5366277 C16.1405786,38.5366277 16.3787035,38.4390106 16.5503831,38.267331 C16.7219456,38.0957686 16.8196799,37.858464 16.8196799,37.6156516 C16.8196799,37.3737767 16.7220628,37.1364721 16.5503831,36.9649097 C16.3788207,36.7933473 16.1405786,36.6957301 15.8987038,36.6957301 C15.6560085,36.6957301 15.418704,36.7933473 15.2479619,36.9649097 C15.0763994,37.1364721 14.9778448,37.3737767 14.9778448,37.6156516 C14.9778448,37.858464 15.0762822,38.0957686 15.2479619,38.267331 C15.418704,38.4390106 15.6560085,38.5366277 15.8987038,38.5366277 Z" id="路径"></path>
                <path d="M8.55808207,32.84706 C8.11734008,33.1025286 7.96675421,33.6657315 8.22140253,34.1056532 C8.47687117,34.5455748 9.04007404,34.696981 9.47999572,34.4413952 C9.9207377,34.1868641 10.0703861,33.6236612 9.81573775,33.1829192 C9.56214412,32.743935 8.99800375,32.5924117 8.55808207,32.84706 Z" id="路径"></path>
                <path d="M12.3858928,35.7557696 C11.9459712,35.500301 11.3828855,35.6507697 11.1282372,36.0906913 C10.873706,36.530613 11.0232372,37.0936987 11.4631589,37.3492845 C11.9040181,37.6038157 12.4662834,37.453347 12.7217521,37.0134253 C12.9773379,36.5735036 12.8266348,36.0104179 12.3858928,35.7557696 Z" id="路径"></path>
                <path d="M8.87671474,29.6737411 C8.87671474,29.4309287 8.7790976,29.1936241 8.60741799,29.0220617 C8.43679306,28.8504993 8.19855098,28.7519447 7.95573859,28.7519447 C7.7138637,28.7519447 7.47655912,28.8504993 7.3049967,29.0220617 C7.13343428,29.1936241 7.03487963,29.4309287 7.03487963,29.6737411 C7.03487963,29.915616 7.13331709,30.1538581 7.3049967,30.3253033 C7.47655912,30.4960454 7.7138637,30.5946001 7.95573859,30.5946001 C8.19855098,30.5946001 8.43667587,30.4961626 8.60741799,30.3253033 C8.7790976,30.1538581 8.87671474,29.915616 8.87671474,29.6737411 Z" id="路径"></path>
                <path d="M32.0138527,24.4933528 C29.154479,24.4933528 26.8344019,26.8124924 26.8344019,29.6737411 C26.8344019,32.5340523 29.1543618,34.8540122 32.0138527,34.8540122 C34.8751014,34.8540122 37.194241,32.5340523 37.194241,29.6737411 C37.1941238,26.8124924 34.8749842,24.4933528 32.0138527,24.4933528 Z" id="路径"></path>
                <path d="M32.0138527,36.6958473 C31.7719778,36.6958473 31.5346732,36.7934645 31.3631108,36.9650269 C31.1915484,37.1365893 31.0928766,37.3738939 31.0928766,37.6157688 C31.0928766,37.8585812 31.1915484,38.0958857 31.3631108,38.2674482 C31.5346732,38.4390106 31.7719778,38.5367449 32.0138527,38.5367449 C32.2566651,38.5367449 32.49479,38.4391278 32.6655321,38.2674482 C32.8370945,38.0958857 32.9347117,37.8585812 32.9347117,37.6157688 C32.9347117,37.3738939 32.8370945,37.1365893 32.6655321,36.9650269 C32.49479,36.7934645 32.2566651,36.6958473 32.0138527,36.6958473 Z" id="路径"></path>
                <path d="M35.5276011,35.7557696 C35.086742,36.0104179 34.9360389,36.5735036 35.1917419,37.0134253 C35.446273,37.453347 36.0094759,37.6038157 36.4503351,37.3492845 C36.8902568,37.0936987 37.0399051,36.530613 36.7852568,36.0906913 C36.5306085,35.6507697 35.9675228,35.500301 35.5276011,35.7557696 Z" id="路径"></path>
                <path d="M39.3554119,32.84706 C38.9145527,32.5924117 38.3513499,32.743935 38.0968187,33.1829192 C37.8431079,33.6236612 37.9927563,34.1868641 38.4326779,34.4413952 C38.8734199,34.696981 39.4366228,34.5455748 39.6911539,34.1056532 C39.9467398,33.6657315 39.7953336,33.1026458 39.3554119,32.84706 Z" id="路径"></path>
                <path d="M39.3059588,30.3253033 C39.4765837,30.4960454 39.7140055,30.5946001 39.9576382,30.5946001 C40.1995131,30.5946001 40.4368177,30.4961626 40.6083801,30.3253033 C40.779005,30.1538581 40.8776768,29.915616 40.8776768,29.6737411 C40.8776768,29.4309287 40.7791222,29.1936241 40.6083801,29.0220617 C40.4368177,28.8504993 40.1995131,28.7519447 39.9576382,28.7519447 C39.7140055,28.7519447 39.4765837,28.8504993 39.3059588,29.0220617 C39.1343964,29.1936241 39.036662,29.4309287 39.036662,29.6737411 C39.0367792,29.915616 39.1343964,30.1538581 39.3059588,30.3253033 Z" id="路径"></path>
                <path d="M26.8060426,37.1566284 L23.956747,32.7046772 L21.1074514,37.1567455 C20.2184674,38.5796355 23.2449504,40.3611191 23.956747,37.3338158 C24.669481,40.3610019 27.6950265,38.5795183 26.8060426,37.1566284 Z" id="路径"></path>
                <path d="M15.0645635,43.3336959 L15.0645635,46.1730305 L18.1730777,46.1730305 L18.1730777,42.0295168 L16.3695629,42.0295168 C15.6487429,42.0295168 15.0645635,42.613579 15.0645635,43.3336959 Z" id="路径"></path>
                <rect id="矩形" x="19.9564363" y="42.0295168" width="3.10757672" height="4.14351375"></rect>
                <rect id="矩形" x="24.8493638" y="42.0295168" width="3.10769391" height="4.14351375"></rect>
                <path d="M31.5438139,42.0295168 L29.7404162,42.0295168 L29.7404162,46.1730305 L32.8489305,46.1730305 L32.8489305,43.3336959 C32.8489305,42.613579 32.2648682,42.0295168 31.5438139,42.0295168 Z" id="路径"></path>
                <path d="M15.0645635,50.278224 C15.0645635,50.9991612 15.6486257,51.5832234 16.3695629,51.5832234 L18.1730777,51.5832234 L18.1730777,47.4388893 L15.0645635,47.4388893 L15.0645635,50.278224 Z" id="路径"></path>
                <rect id="矩形" x="19.9564363" y="47.4388893" width="3.10757672" height="4.14433406"></rect>
                <rect id="矩形" x="24.8493638" y="47.4388893" width="3.10769391" height="4.14433406"></rect>
                <path d="M29.7404162,51.5832234 L31.5438139,51.5832234 C32.2648682,51.5832234 32.8489305,50.9991612 32.8489305,50.278224 L32.8489305,47.4388893 L29.7404162,47.4388893 L29.7404162,51.5832234 Z" id="路径"></path>
                <path d="M9.40241763,17.1345671 C8.78636322,17.8966371 8.61480079,18.7709726 9.03644123,19.1935505 C9.45901916,19.615191 10.3324172,19.4436285 11.0954247,18.8275741 C11.1994871,19.8023393 11.6950728,20.5424952 12.292846,20.5424952 C12.8897989,20.5424952 13.3853846,19.8023393 13.4893298,18.8275741 C14.2523373,19.4436285 15.1266729,19.615191 15.5483133,19.1935505 C15.9699537,18.7709726 15.7983913,17.8966371 15.1823369,17.1345671 C16.1571021,17.0305046 16.8963205,16.5349189 16.897258,15.9379661 C16.8963205,15.3401929 16.1571021,14.8446072 15.1823369,14.7405447 C15.7983913,13.9775373 15.9700709,13.1041392 15.5483133,12.6815613 C15.1266729,12.2599209 14.2523373,12.4314833 13.4893298,13.0475377 C13.3852674,12.0728897 12.8896817,11.3327338 12.292846,11.3327338 C11.6950728,11.3327338 11.1994871,12.0728897 11.0954247,13.0484752 C10.3324172,12.4316005 9.45901916,12.260038 9.03644123,12.6815613 C8.61480079,13.1041392 8.78636322,13.9776545 9.40323794,14.7405447 C8.42765244,14.8446072 7.68737934,15.3401929 7.68737934,15.9379661 C7.68737934,16.5349189 8.42765244,17.0305046 9.40241763,17.1345671 Z M12.2927288,14.9486696 C12.8395254,14.9486696 13.2820252,15.3904663 13.2820252,15.9379661 C13.2820252,16.4838252 12.8394083,16.9272625 12.2927288,16.9272625 C11.7461666,16.9272625 11.3024949,16.483708 11.3024949,15.9379661 C11.3026121,15.3904663 11.7461666,14.9486696 12.2927288,14.9486696 Z" id="形状"></path>
                <path d="M35.620648,13.6307796 C35.7428745,13.4592172 35.85889,13.2775766 35.9656478,13.0831627 C36.7533818,11.6347258 36.7076787,10.0905468 35.8662729,9.63234392 C35.0238123,9.17425819 33.703227,9.97640626 32.9154929,11.4230853 C32.8096727,11.6192571 32.7202587,11.8146086 32.6435009,12.0107803 C32.5586572,11.8181242 32.459165,11.6274602 32.3432666,11.4376165 C31.482642,10.0338281 30.1227989,9.29918 29.3041274,9.79933603 C28.4873309,10.2994921 28.5220184,11.8446085 29.3817055,13.2500376 C29.4976039,13.4398813 29.6226429,13.6151937 29.75401,13.778553 C29.5460023,13.7566389 29.3286196,13.746678 29.1078384,13.7539436 C27.4594798,13.7958967 26.1444022,14.6063651 26.1690116,15.564724 C26.1926835,16.523083 27.5480735,17.2668717 29.1963149,17.2249186 C29.4181508,17.2194108 29.6326038,17.1974967 29.8407287,17.1665593 C29.7175647,17.3362467 29.6015491,17.5197622 29.4947914,17.7141762 C28.7071745,19.1616755 28.7519401,20.7059717 29.5941663,21.1640575 C30.4375644,21.6221432 31.7572122,20.8209326 32.5440087,19.3724958 C32.6515868,19.176324 32.741118,18.9809725 32.8168211,18.7846835 C32.9026023,18.9764022 33.0020945,19.1689412 33.1189303,19.3569098 C33.9786175,20.7624561 35.3385778,21.4980417 36.1563118,20.9961278 C36.9749833,20.4969093 36.9402958,18.9516756 36.0796712,17.5462466 C35.9637728,17.3554654 35.8387338,17.1812077 35.7072495,17.0169109 C35.9163119,17.0388249 36.1326399,17.0489031 36.3535383,17.0416374 C38.0017797,17.0005046 39.3169744,16.189216 39.2914276,15.230857 C39.2677557,14.2734356 37.9123657,13.5296468 36.2649445,13.5715999 C36.0432259,13.5768734 35.8278354,13.5979671 35.620648,13.6307796 Z M33.4385005,16.5557783 C32.7995946,16.9464812 31.9645168,16.745622 31.5729935,16.1077707 C31.1815875,15.4669897 31.3840874,14.6328495 32.0220558,14.2413262 C32.6618993,13.8496858 33.4959224,14.0514825 33.8885003,14.6912088 C34.2772111,15.3291773 34.0772893,16.1643722 33.4385005,16.5557783 Z" id="形状"></path>
                <path d="M18.8712805,21.0379638 C18.6905775,21.2880418 18.5819447,21.592026 18.5819447,21.9233149 C18.5819447,22.7602677 19.2601085,23.4373767 20.0960065,23.4373767 C20.5989751,23.4373767 21.0398342,23.191869 21.3145216,22.816752 C21.5901465,23.1917519 22.0310057,23.4373767 22.5329195,23.4373767 C23.3706926,23.4373767 24.0479188,22.7601505 24.0479188,21.9233149 C24.0479188,21.592026 23.9391689,21.2880418 23.758583,21.0379638 C24.3628015,20.8390967 24.8008482,20.2768313 24.8008482,19.6069878 C24.8008482,18.7700351 24.1228016,18.0919885 23.2858489,18.0919885 C23.125302,18.0919885 22.9728412,18.1230432 22.8295209,18.1686291 C22.8258881,17.3344889 22.1505369,16.6599579 21.3145216,16.6599579 C20.4794439,16.6599579 19.8031551,17.3344889 19.8003426,18.1686291 C19.6571396,18.1230432 19.5046787,18.0919885 19.3441319,18.0919885 C18.5071791,18.0919885 17.8299529,18.7700351 17.8299529,19.6069878 C17.8299529,20.2768313 18.2679996,20.8390967 18.8712805,21.0379638 Z M21.3146388,19.581441 C21.7509277,19.581441 22.1040134,19.9346439 22.1040134,20.3690578 C22.1040134,20.8044092 21.7508105,21.1576121 21.3146388,21.1576121 C20.8801078,21.1576121 20.5260844,20.8044092 20.5260844,20.3690578 C20.5259673,19.9346439 20.8801078,19.581441 21.3146388,19.581441 Z" id="形状"></path>
                <path d="M42.3215434,8.57824283 L42.3224809,8.57730533 C40.7554503,6.62601715 38.5358029,4.48031499 35.5138902,2.82117512 C32.492915,1.16191806 28.6688542,-0.00187047993 23.956747,2.25688427e-06 C19.2446397,-0.00187047993 15.4204618,1.16191806 12.3996038,2.82117512 C9.37687076,4.48031499 7.15816083,6.62601715 5.5910131,8.57730533 C2.08734281,12.950858 0.00632812214,18.6468711 0,23.9567515 L0,37.7701046 C0.00187499915,38.7111198 0.23730458,39.695846 0.64078096,40.6715486 C1.24945256,42.1345167 2.24249899,43.5829536 3.52382653,44.7520155 C4.60816198,45.7377963 5.90964577,46.5244757 7.36710605,46.8922099 L7.36710605,49.3955681 C7.36991854,50.3347083 7.66007466,51.4537313 8.30355093,52.6500979 C8.94878502,53.8440036 9.95554238,55.1051749 11.4121823,56.2625182 C13.5932751,58.0002908 17.554328,60.0054852 23.956747,59.9999887 C30.359166,60.0054852 34.3201017,58.0002908 36.5014288,56.2626353 C37.9579516,55.1052921 38.964709,53.8441208 39.6090055,52.6502151 C40.2524818,51.4527938 40.5427551,50.3348255 40.5454504,49.3956853 L40.5454504,46.8931474 C42.5779495,46.3793976 44.3010737,45.0577576 45.5706825,43.4998677 C46.2898619,42.6146337 46.867596,41.6480716 47.272713,40.672369 C47.6761894,39.695846 47.911619,38.7111198 47.913494,37.7701046 L47.913494,23.9567515 C47.9070487,18.6468711 45.8261512,12.950858 42.3215434,8.57824283 Z M44.21623,37.7699875 C44.21623,39.6619788 41.727403,43.4212349 38.7958418,43.4212349 C38.1605687,43.4212349 37.5044362,43.2442819 36.849124,42.8352977 C36.849124,42.8352977 36.849124,48.0147484 36.849124,49.3955681 C36.849124,50.7773253 34.0865471,56.3027134 23.956747,56.3027134 C13.8269469,56.3027134 11.06437,50.7773253 11.06437,49.3955681 C11.06437,48.0147484 11.06437,42.8352977 11.06437,42.8352977 C10.4081203,43.2441647 9.75292528,43.4212349 9.11765213,43.4212349 C6.18620814,43.4212349 3.69726395,39.6619788 3.69726395,37.7699875 C3.69726395,35.4672541 3.69726395,31.7847558 3.69726395,23.9566343 C3.69726395,16.1296847 9.68343312,3.69726847 23.956747,3.69726847 C38.2300608,3.69726847 44.21623,16.1296847 44.21623,23.9567515 C44.21623,31.7847558 44.21623,35.4673713 44.21623,37.7699875 Z" id="形状"></path>
            </g>
        </g>
    </g>
</svg>
