<?xml version="1.0" encoding="UTF-8"?>
<svg width="61px" height="56px" viewBox="0 0 61 56" version="1.1" xmlns="http://www.w3.org/2000/svg" xmlns:xlink="http://www.w3.org/1999/xlink">
    <title>jack-o-lantern-illustration-svgrepo-com</title>
    <g id="页面-1" stroke="none" stroke-width="1" fill="none" fill-rule="evenodd">
        <g id="形状库素材-节日" transform="translate(-483.000000, -158.000000)" fill="#545458" fill-rule="nonzero">
            <g id="jack-o-lantern-illustration-svgrepo-com" transform="translate(483.199993, 158.937606)">
                <path d="M54.2454166,7.7607003 C52.1665613,6.12735587 50.1182895,5.58200936 48.3122247,5.58200936 C44.6989232,5.58200936 42.0507,7.7607003 42.0507,7.7607003 C40.2279959,5.25566858 37.7284715,4.30828428 35.2318766,4.30828428 C34.4212391,4.30828428 33.6143512,4.42194696 32.8277352,4.60134651 L32.8277352,1.44468782 C32.8277352,0.647877276 32.2064573,0 31.4412848,0 L28.5546043,0 C27.7891975,0 27.1670994,0.647877276 27.1670994,1.44468782 L27.1670994,4.60122933 C26.3806005,4.42276721 25.5734783,4.3081671 24.7620205,4.3081671 C22.266363,4.3081671 19.7669558,5.25473115 17.9431971,7.76058312 C17.9431971,7.76058312 15.2949738,5.58189219 11.6817896,5.58189219 C9.87560757,5.58189219 7.8282732,6.12630127 5.74941794,7.76058312 C-5.46194071,16.569558 2.19341655,42.3353642 7.93174139,49.086693 C11.09297,52.8061578 13.7754093,53.6991715 15.6221349,53.6991715 C17.3275438,53.6991715 18.320276,52.9375143 18.320276,52.9375143 C18.320276,52.9375143 21.3178069,54.5245734 25.5189905,54.5245734 C26.9027457,54.5245734 28.4168029,54.3526733 29.9974173,53.8950931 C31.5780316,54.3525561 33.0920888,54.5245734 34.475844,54.5245734 C38.6769104,54.5245734 41.6745585,52.9375143 41.6745585,52.9375143 C41.6745585,52.9375143 42.6672907,53.6991715 44.3726996,53.6991715 C46.218605,53.6991715 48.9009271,52.806275 52.0640306,49.086693 C57.8022382,42.3353642 65.4567752,16.569558 54.2454166,7.7607003 Z M49.1801623,46.6335712 C46.6631784,49.5933708 44.9800333,49.9131496 44.3726996,49.9131496 C44.1452571,49.9131496 43.9798017,49.8724889 43.8837158,49.8390931 C43.2818894,49.2642177 42.6191306,49.0127537 41.9175858,49.0127537 C41.2724036,49.0127537 40.5948803,49.2253146 39.9025925,49.5913788 C39.8812661,49.6025107 37.5964119,50.7385516 34.475844,50.7385516 C33.3037123,50.7385516 32.1511493,50.5767288 31.0502618,50.2588248 C30.7063443,50.1589891 30.3514121,50.1090713 29.9974173,50.1090713 C29.6433053,50.1090713 29.2883731,50.1589891 28.9446899,50.2588248 C27.8438024,50.5767288 26.6911222,50.7385516 25.5189905,50.7385516 C22.3938527,50.7385516 20.092242,49.5913788 20.0913046,49.5913788 L20.092242,49.5913788 C19.3999543,49.2253146 18.7224309,49.0127537 18.0772488,49.0127537 C17.375704,49.0127537 16.7129451,49.2641006 16.1112359,49.8390931 C16.0150328,49.8723717 15.84864,49.9131496 15.6222521,49.9131496 C15.0150356,49.9131496 13.3308359,49.5933708 10.8165471,46.635446 C7.37057585,42.5813209 2.9587062,29.6091281 3.9247218,19.9960777 C4.35828048,15.6832234 5.75949525,12.5681629 8.08887712,10.737022 C9.26089168,9.81553407 10.4366559,9.36803121 11.6817896,9.36803121 C13.8188823,9.36803121 15.5371808,10.6842919 15.5381182,10.6842919 C16.2230238,11.2758066 17.0669399,11.5771884 17.9533916,11.5771884 C18.1049028,11.5771884 18.2574686,11.5679314 18.4109718,11.5514093 C19.4628789,11.4294269 20.3816717,10.8451773 21.0045901,9.98930907 C21.93264,8.71370914 23.1619546,8.09430612 24.7620205,8.09430612 C25.892554,8.09430612 27.1496398,8.41232727 28.3013826,8.98907749 C28.8355972,9.2571808 29.4160971,9.39029503 29.9975344,9.39029503 C30.5789718,9.39029503 31.1604091,9.25706362 31.6936863,8.98907749 C32.845429,8.41232727 34.1025149,8.09430612 35.2319938,8.09430612 C36.8328799,8.09430612 38.0623117,8.71359196 38.9894242,9.98731705 C39.6124597,10.8442399 40.5136759,11.4431368 41.5654658,11.5641817 C41.723539,11.5826958 41.8807919,11.5919529 42.0359356,11.5919529 C42.9140676,11.5919529 43.7413445,11.2998281 44.4226175,10.7119459 C44.4392568,10.6981189 46.164,9.36791403 48.3122247,9.36791403 C49.5582958,9.36791403 50.73406,9.81529971 51.9059574,10.7378423 C54.2353393,12.5680458 55.6366712,15.6829891 56.0702299,19.9978353 C57.0361283,29.6091281 52.6250789,42.5813209 49.1801623,46.6335712 Z" id="形状"></path>
                <polygon id="路径" points="33.1650907 30.9864386 29.9974173 26.1022243 26.8297438 30.9864386 29.9974173 30.9864386"></polygon>
                <path d="M45.8487912,32.1750924 C44.691541,32.6372425 42.7772037,33.5966962 39.9636423,34.4027638 L39.9636423,38.6427333 L36.0046657,38.6427333 L36.0046657,35.2772633 C34.240199,35.558139 32.2445402,35.7394134 29.9974173,35.7394134 C27.7502944,35.7394134 25.7555729,35.5582562 23.9911063,35.2772633 L23.9911063,38.6427333 L20.0302548,38.6427333 L20.0302548,34.4027638 C17.2175136,33.5968133 15.3041137,32.6373597 14.1459262,32.1750924 C12.8250955,31.6454478 13.0542957,36.3623318 17.049246,40.3573992 C18.6548192,41.962035 20.5081068,43.0703048 22.3419428,43.830087 L22.3419428,42.2059997 L26.3009194,42.2059997 L26.3009194,45.003039 C27.7705662,45.2839147 29.0665551,45.3754308 29.9973001,45.3754308 C30.9272249,45.3754308 32.224034,45.2839147 33.6936807,45.003039 L33.6936807,42.2059997 L37.6535948,42.2059997 L37.6535948,43.830087 C39.4883682,43.0703048 41.3416558,41.962035 42.9445339,40.3573992 C46.9405388,36.3623318 47.1688016,31.6454478 45.8487912,32.1750924 Z" id="路径"></path>
                <polygon id="路径" points="44.5103838 25.1778069 39.462589 16.6056488 34.4147943 25.1778069 39.462589 25.1778069"></polygon>
                <polygon id="路径" points="25.5791028 25.1778069 20.5330657 16.6056488 15.485271 25.1778069 20.5330657 25.1778069"></polygon>
            </g>
        </g>
    </g>
</svg>
