<?xml version="1.0" encoding="UTF-8"?>
<svg width="52px" height="60px" viewBox="0 0 52 60" version="1.1" xmlns="http://www.w3.org/2000/svg" xmlns:xlink="http://www.w3.org/1999/xlink">
    <title>32</title>
    <g id="页面-1" stroke="none" stroke-width="1" fill="none" fill-rule="evenodd">
        <g id="形状库素材-节日" transform="translate(-323.000000, -476.000000)" fill="#545458">
            <path d="M370.906466,515.546357 C370.75801,516.772606 370.516521,517.981042 370.17804,519.167703 C369.845498,520.328632 369.494151,521.483623 369.136866,522.637624 C368.762756,523.847049 368.16992,524.956514 367.515722,526.033317 C367.363307,526.283714 367.161406,526.505409 366.979299,526.737991 C366.916948,526.819147 366.837771,526.87457 366.713067,526.84092 C366.858555,525.944244 366.914968,525.03668 366.830843,524.124168 C366.813028,523.928205 366.790265,523.731253 366.743748,523.53925 C366.633891,523.082994 366.449805,522.964229 365.992559,523.117633 C365.30768,523.346256 364.699009,523.719377 364.167535,524.211262 C363.940891,524.421081 363.84489,524.703148 363.803322,525.00204 C363.725135,525.563205 363.651896,526.12635 363.575689,526.687515 C363.508388,527.176432 363.425253,527.662379 363.376757,528.154265 C363.336179,528.564004 363.178815,528.795596 362.744333,528.921289 C361.63091,529.243935 360.5066,529.519074 359.368434,529.732851 C357.623576,530.060445 355.858924,530.255418 354.095262,530.462267 C354.070519,530.465236 354.046766,530.466226 354.022024,530.468205 C353.770637,530.48602 353.688492,530.420699 353.724121,530.190097 C353.827051,529.526992 353.802308,528.861907 353.79637,528.196822 C353.791421,527.700978 353.706306,527.214041 353.628119,526.727104 C353.605356,526.583596 353.552901,526.442067 353.506385,526.301529 C353.419291,526.046184 353.239164,525.885851 352.969963,525.85418 C352.143555,525.761147 351.348819,525.874964 350.605547,526.266889 C350.376924,526.387633 350.227478,526.579637 350.187889,526.8429 C350.159188,527.038862 350.11762,527.232845 350.105744,527.428808 C350.04933,528.33934 350.000834,529.250863 349.950359,530.162385 C349.9464,530.235624 349.951349,530.309852 349.9464,530.38309 C349.929575,530.676044 349.884049,530.742355 349.60594,530.753242 C349.014094,530.776995 348.422248,530.786892 347.830402,530.794809 C347.440456,530.799758 347.048531,530.79184 346.714009,530.789861 C346.527944,530.614682 346.589306,530.463257 346.606131,530.324697 C346.706092,529.482455 346.616028,528.64714 346.50617,527.816774 C346.396313,526.9775 346.16868,526.830033 345.313571,526.930984 C344.744488,526.998284 344.206086,527.166535 343.690447,527.410993 C343.196582,527.646544 342.923422,528.014716 342.981815,528.585778 C343.014476,528.904464 343.03427,529.22513 343.057033,529.544806 C343.077817,529.83974 343.099591,530.134673 343.111467,530.429607 C343.117405,530.578063 343.023383,530.649322 342.882844,530.654271 C342.784863,530.658229 342.684902,530.65625 342.586921,530.648332 C342.268235,530.625569 341.948559,530.597857 341.628882,530.573114 C341.211225,530.540454 340.791588,530.473154 340.374921,530.484041 C339.28723,530.508783 338.205478,530.434555 337.122736,530.354389 C336.608087,530.31579 336.096407,530.229685 335.584727,530.153478 C335.402621,530.126756 335.275938,530.025805 335.263072,529.812028 C335.241298,529.442866 335.20171,529.075684 335.171029,528.706523 C335.117584,528.092903 335.06315,527.479283 335.013665,526.864673 C334.999809,526.686526 334.905786,526.596462 334.737536,526.583596 C334.024945,526.523224 333.313344,526.460872 332.599764,526.414356 C332.358274,526.39753 332.229612,526.514316 332.198931,526.750857 C332.138559,527.218 332.188044,527.687122 332.212787,528.154265 C332.226643,528.400702 332.249406,528.64615 332.261283,528.891598 C332.265242,528.9876 332.138559,529.048962 332.047506,529.002446 C331.752572,528.853989 331.534836,528.620418 331.356689,528.350227 C330.652015,527.277382 329.993859,526.179794 329.491086,524.993133 C328.586492,522.850412 327.933284,520.634453 327.449316,518.36208 C327.140526,516.912155 326.867367,515.460252 326.844603,513.976677 C327.411707,515.065358 328.08174,516.070902 328.576595,517.173439 C329.020974,518.164138 329.559376,519.108321 330.206646,519.984213 C331.169633,521.28865 332.295923,522.416919 333.759703,523.157222 C334.242681,523.40168 334.749412,523.599622 335.254164,523.795584 C335.462993,523.875751 335.569881,523.98165 335.602542,524.210273 C335.692605,524.844676 335.806422,525.476111 335.994467,526.090721 C336.044942,526.256002 336.096407,526.420294 336.15381,526.582606 C336.25476,526.862694 336.46161,527.040842 336.749615,527.074492 C337.611652,527.173463 338.465771,527.202164 339.290199,526.826075 C339.786044,526.598441 340.073059,526.245115 340.153226,525.715621 C340.204691,525.374171 340.247248,525.030742 340.293764,524.689292 C340.347209,524.306274 340.347209,524.299347 340.755959,524.293408 C342.260317,524.270645 343.765665,524.265696 345.269034,524.229077 C347.861083,524.166725 350.437296,523.906432 352.998664,523.518466 C354.386237,523.307658 355.758964,522.999858 357.138619,522.733626 C357.210867,522.71977 357.281137,522.695028 357.354375,522.68612 C357.490955,522.668305 357.599823,522.707894 357.626545,522.859319 C357.682959,523.174047 357.722547,523.493723 357.788858,523.806471 C357.870014,524.192458 357.965026,524.573496 358.063997,524.955524 C358.129318,525.208889 358.321321,525.300932 358.56578,525.30786 C358.639018,525.30984 358.715226,525.312809 358.786485,525.296974 C359.531736,525.131692 360.275997,524.961462 361.020259,524.791232 C361.091518,524.774407 361.158818,524.740757 361.230077,524.719973 C361.954545,524.499268 362.321727,524.007382 362.366264,523.255203 C362.399914,522.689089 362.461276,522.124955 362.493936,521.557851 C362.505813,521.328239 362.596866,521.218381 362.819551,521.140194 C363.818167,520.788847 364.79699,520.37218 365.807483,520.059431 C367.275222,519.604165 368.323325,518.647116 369.1913,517.437691 C369.595101,516.874547 369.913788,516.262906 370.2107,515.638399 C370.370044,515.304867 370.532356,514.972325 370.704565,514.645721 C370.744154,514.571493 370.772855,514.451738 370.954962,514.481429 C370.99554,514.832776 370.950013,515.191051 370.906466,515.546357 Z M332.358274,517.399093 C333.378665,515.914528 334.283259,514.360685 335.153214,512.784078 C335.256144,512.599002 335.293753,512.441638 335.19973,512.232809 C333.891334,509.331971 333.397469,506.256944 333.256931,503.105709 C333.217342,502.21794 333.22526,501.33116 333.305426,500.444381 C333.3272,500.203881 333.417264,500.016826 333.636979,499.908948 C333.728032,499.86639 333.83888,499.859462 333.878468,499.983176 C333.915087,500.097982 333.928943,500.221696 333.944779,500.34343 C334.080369,501.397471 334.320868,502.42083 334.673205,503.429344 C335.316516,505.268224 335.994467,507.090279 336.770399,508.877695 C336.856504,509.074647 336.888174,509.310198 337.092055,509.442819 C337.234573,509.411148 337.267233,509.283475 337.326616,509.185494 C338.47072,507.285252 339.580184,505.364226 340.64808,503.419447 C340.95687,502.858282 341.292381,502.310973 341.622944,501.762674 C341.829793,501.419244 342.18312,501.307407 342.573065,501.446956 C342.676985,501.484565 342.731419,501.568691 342.724491,501.675579 C342.710635,501.846799 342.696779,502.019998 342.65818,502.186269 C342.55822,502.618772 342.472115,503.057213 342.329597,503.475861 C341.891155,504.758524 341.540798,506.068899 341.05881,507.336717 C340.593646,508.559998 340.093843,509.763484 339.439645,510.899671 C339.181331,511.347019 338.977451,511.826039 338.7419,512.285264 C338.631053,512.50201 338.634022,512.695993 338.758725,512.91274 C339.835529,514.779332 341.046933,516.542004 342.645314,518.009743 C343.117405,518.442246 343.600384,518.864852 344.080393,519.290427 C344.234787,519.427997 344.345635,519.578433 344.302088,519.803097 C344.279324,519.917903 344.211034,519.978275 344.102166,519.971347 C344.031897,519.966399 343.961628,519.930769 343.895317,519.900088 C343.492505,519.714023 343.078807,519.547752 342.690841,519.334964 C340.803465,518.298738 339.037823,517.089313 337.482,515.589904 C337.392926,515.504789 337.31078,515.413735 337.227645,515.322682 C337.147478,515.235588 337.092055,515.118802 336.952506,515.099998 C336.784255,515.172246 336.713986,515.341487 336.604128,515.470149 C335.688647,516.542994 334.683102,517.521816 333.559782,518.376925 C333.106495,518.720355 332.629455,519.025185 332.080166,519.198384 C331.6922,519.321108 331.552651,519.31418 331.141922,519.159786 C331.550672,518.568929 331.956452,517.985 332.358274,517.399093 Z M360.546188,505.885803 C361.214242,504.484374 361.875368,503.079977 362.544411,501.678548 C362.671094,501.411327 362.824499,501.156971 362.961079,500.895688 C363.074896,500.674983 363.257002,500.587888 363.499481,500.572053 C363.981469,500.541372 364.086379,500.619559 364.204154,501.114414 C364.296197,501.504359 364.307084,501.899253 364.25067,502.291178 C364.171494,502.826611 364.095286,503.366993 363.956727,503.889559 C363.50344,505.603736 363.023431,507.311974 362.54936,509.022192 C362.338552,509.782289 362.103991,510.536447 361.706128,511.224296 C361.575486,511.450939 361.59627,511.628097 361.774417,511.82109 C362.30985,512.40106 362.85617,512.969153 363.464841,513.474895 C364.35558,514.217177 365.278979,514.916901 366.252853,515.546357 C366.542837,515.734401 366.823915,515.936302 367.108951,516.130285 C367.322728,516.276762 367.367265,516.470745 367.290068,516.712234 C367.212871,516.947785 367.104992,517.039828 366.851627,516.99925 C366.390422,516.925022 365.927238,516.849804 365.472962,516.738956 C364.058667,516.392558 362.673074,515.961045 361.384472,515.259341 C360.930195,515.011913 360.483836,514.75261 360.06123,514.451738 C359.923661,514.353757 359.810834,514.211239 359.622789,514.199362 C359.44959,514.264683 359.362496,514.422047 359.254617,514.553678 C357.913561,516.198575 356.209281,517.337731 354.252626,518.117622 C353.497478,518.418493 352.722535,518.662951 351.932747,518.862873 C351.665526,518.930173 351.400283,518.959864 351.130093,518.896523 C351.091494,518.887615 351.044978,518.841099 351.034091,518.80349 C351.024194,518.766871 351.042998,518.70254 351.07269,518.677797 C351.263704,518.523402 351.454717,518.366039 351.658598,518.227479 C352.507768,517.652458 353.147121,516.873557 353.789442,516.091686 C354.854369,514.794177 355.808449,513.415512 356.765498,512.038826 C356.848634,511.918082 356.932759,511.796348 357.010946,511.670654 C357.06637,511.579601 357.062411,511.478651 357.013915,511.388587 C356.921872,511.214398 356.817953,511.046148 356.721951,510.874928 C355.320522,508.367994 354.464424,505.685882 354.124953,502.837498 C354.090314,502.545534 354.098231,502.247631 354.080417,501.951708 C354.057653,501.576608 354.203141,501.282665 354.495105,501.053052 C354.842493,500.778902 354.972145,500.775933 355.153262,501.190622 C356.105362,503.363034 357.33953,505.38501 358.491551,507.450534 C358.668709,507.76823 358.833001,508.099783 359.169502,508.418469 C359.747493,507.578206 360.144366,506.730025 360.546188,505.885803 Z M361.409215,485.443355 C361.959493,486.10745 362.096073,487.014024 361.776397,487.667232 C361.717014,487.788966 361.566579,487.792925 361.487402,487.67416 C361.293419,487.382196 361.194448,487.059551 361.177623,486.710183 C361.156839,486.289557 361.200386,485.879817 361.409215,485.443355 Z M374.565422,508.595627 C374.460513,507.118981 374.33383,505.648273 374.089372,504.186472 C373.657858,501.608279 372.820564,499.169635 371.629944,496.848766 C371.116285,495.84916 370.421509,494.990092 369.590153,494.238903 C368.968615,493.676748 368.252066,493.301648 367.406854,493.251173 C366.994145,493.22643 366.572529,493.271957 366.15883,493.322432 C365.055304,493.457032 364.057677,493.843019 363.225331,494.607075 C363.104587,494.716932 362.951182,494.79215 362.833407,494.869348 C362.766106,494.834708 362.738394,494.828769 362.723549,494.810955 C362.628537,494.699118 362.525607,494.590249 362.444451,494.468515 C361.895162,493.640128 361.108343,493.354102 360.146346,493.434269 C359.642583,493.474847 359.154657,493.572828 358.676627,493.716336 C358.648915,493.538188 358.616255,493.36103 358.572708,493.185852 C358.270846,491.939808 357.599823,491.01146 356.503225,490.470089 C356.538855,490.281055 356.570525,490.091031 356.608134,489.901006 C356.82785,488.809357 357.165341,487.757296 357.723537,486.783422 C358.178803,485.987695 358.825083,485.400798 359.626748,484.977202 C359.868237,484.849529 360.121603,484.754517 360.399711,484.752538 C360.5739,484.750559 360.671881,484.88021 360.60953,485.040543 C360.546188,485.199887 360.466022,485.354281 360.408619,485.516594 C360.205728,486.087656 360.154263,486.667626 360.313606,487.259472 C360.551137,488.141303 360.928216,488.38972 361.821924,488.246212 C361.871409,488.238294 361.920894,488.235325 361.968401,488.224439 C362.571134,488.091818 362.92347,487.728594 362.99275,487.117943 C363.09469,486.217308 362.807674,485.471067 362.066382,484.91584 C361.741757,484.672371 361.735819,484.656536 361.949596,484.341809 C362.254427,483.89347 362.576082,483.456019 362.894769,483.018567 C363.067968,482.781037 363.251064,482.551424 363.53709,482.178304 C362.928419,482.341606 362.591917,482.625652 362.267293,482.920586 C361.846666,483.305583 361.491361,483.747983 361.169705,484.216115 C361.032135,484.417026 360.873782,484.518967 360.620416,484.50808 C360.30074,484.494224 359.981064,484.513028 359.667326,484.600123 C358.439097,484.939593 357.517677,485.673957 356.89713,486.777483 C356.373573,487.7088 356.055877,488.717314 355.859914,489.765416 C355.834182,489.907934 355.817357,490.050452 355.795583,490.191981 C355.352193,490.048473 354.903855,489.918821 354.449578,489.817871 C353.679584,489.647641 352.899693,489.526896 352.129699,489.358646 C351.746682,489.27452 351.363664,489.159714 351.00242,489.008288 C350.440265,488.771748 350.257169,488.437226 350.347233,487.832514 C350.385831,487.570241 350.480843,487.306978 350.59367,487.064499 C351.062793,486.045098 351.705114,485.146442 352.531521,484.384366 C354.012127,483.018567 355.714427,482.071415 357.682959,481.61219 C358.089729,481.517178 358.486603,481.380598 358.886445,481.253915 C359.17841,481.159893 359.319938,480.940177 359.337753,480.643264 C359.34864,480.445323 359.353588,480.247381 359.339732,480.051418 C359.300144,479.485304 359.260556,478.918201 359.199194,478.355056 C359.14278,477.841397 359.052717,477.330707 358.989375,476.817048 C358.9389,476.418195 358.696421,476.211346 358.333198,476.109406 C357.871993,475.978764 357.400892,475.978764 356.938697,476.065858 C355.505598,476.335059 354.113077,476.732923 352.780928,477.345553 C351.333973,478.010637 350.144342,478.985501 349.19818,480.25134 C348.191646,481.599324 347.343465,483.04331 346.774382,484.638721 C346.617018,485.079142 346.445798,485.515604 346.284476,485.955035 C345.812384,487.23275 345.058226,488.306584 344.009134,489.182477 C343.622157,489.506112 343.225284,489.812922 342.813565,490.098948 C342.808616,490.095979 342.804657,490.094 342.799709,490.091031 C342.315741,489.790159 341.865423,489.44673 341.449745,489.059753 C340.999427,488.640117 340.551089,488.217511 340.107699,487.788966 C339.716764,487.411887 339.310983,487.052623 338.866604,486.741854 C337.746252,485.958004 336.518023,485.504717 335.107687,485.545295 C334.535635,485.507686 333.956655,485.622493 333.378665,485.753134 C332.120744,486.036191 331.290378,486.818061 330.819276,487.989877 C330.608468,488.514423 330.462981,489.065692 330.56789,489.647641 C330.582736,489.727807 330.641129,489.777293 330.714367,489.782241 C330.750986,489.78521 330.811359,489.742653 330.827194,489.706034 C331.046909,489.177529 331.396277,488.73018 331.715953,488.263037 C332.106888,487.689995 332.626486,487.29906 333.295529,487.115964 C334.68805,486.732946 336.066716,486.733936 337.424597,487.281245 C338.443998,487.692965 339.32187,488.316482 340.126504,489.057774 C340.597605,489.490277 341.083553,489.907934 341.573459,490.319653 C341.70509,490.430501 341.848598,490.526503 341.997054,490.614587 C341.920847,490.658134 341.847608,490.70564 341.769421,490.747208 C341.269618,491.014429 340.782681,491.305404 340.280898,491.570646 C338.789406,492.358455 337.735366,493.574808 336.90302,495.005927 C336.741697,495.284036 336.601159,495.572041 336.492291,495.871923 C336.485363,495.88182 336.478435,495.888748 336.471507,495.898645 C336.361649,496.05403 336.229028,496.195558 336.08453,496.371726 C335.939043,496.25692 335.819288,496.175764 335.715369,496.076793 C335.482787,495.857078 335.250205,495.634393 335.032469,495.399832 C334.626688,494.96337 334.117978,494.751572 333.542957,494.647653 C332.871934,494.526908 332.211797,494.600147 331.561558,494.744644 C329.548489,495.190013 327.948129,496.281663 326.705054,497.907755 C325.549074,499.420031 324.784028,501.134208 324.305009,502.957253 C323.651801,505.444393 323.301444,507.986956 323.27868,510.564159 C323.264824,512.092271 323.257896,513.620382 323.401404,515.147504 C323.536994,516.598418 323.699307,518.042404 323.966528,519.473523 C324.455445,522.100212 325.245233,524.645745 326.160714,527.14971 C326.68526,528.586768 327.347376,529.968402 328.126277,531.289664 C328.656761,532.18832 329.292155,533.002851 330.074025,533.695648 C331.117179,534.620036 332.30582,534.909031 333.649845,534.494343 C334.240702,534.312237 334.805826,534.076686 335.3373,533.753051 C335.958837,533.374982 336.170635,533.402694 336.73279,533.854001 C336.905989,533.99256 337.062363,534.151904 337.223686,534.303329 C337.807614,534.854597 338.490514,535.061447 339.268426,534.838762 C339.835529,534.67546 340.394715,534.479497 340.947962,534.275617 C341.318114,534.139037 341.673419,533.965838 342.035653,533.807485 C342.678964,533.527397 343.287635,533.605584 343.866615,533.983653 C344.051691,534.104398 344.229839,534.238008 344.406997,534.371619 C344.642548,534.549767 344.869191,534.74177 345.10969,534.91398 C345.607514,535.270275 346.160762,535.434567 346.777351,535.417742 C347.46025,535.399927 348.114448,535.237615 348.682541,534.887258 C349.3694,534.465642 350.024587,534.477518 350.723322,534.786307 C350.994503,534.905073 351.270632,535.011961 351.54676,535.119839 C351.983222,535.28809 352.416715,535.467227 352.861095,535.614694 C354.152665,536.041259 355.472938,536.093714 356.809045,535.890823 C358.216412,535.677046 359.526787,535.210893 360.738192,534.447827 C361.604187,533.901507 361.52699,533.718411 362.777983,534.248895 C363.789466,534.677439 364.79699,534.636861 365.796597,534.214255 C366.855586,533.766907 367.784923,533.120626 368.61232,532.331828 C369.807889,531.192673 370.665967,529.809059 371.372619,528.333402 C372.150531,526.70632 372.755243,525.009958 373.227335,523.268069 C373.706354,521.503417 374.036917,519.712043 374.26554,517.896916 C374.479317,516.206493 374.619856,514.51211 374.659444,512.8108 C374.692105,511.405412 374.665383,510.002004 374.565422,508.595627 L374.565422,508.595627 Z" id="32"></path>
        </g>
    </g>
</svg>
