<?xml version="1.0" encoding="UTF-8"?>
<svg width="59px" height="61px" viewBox="0 0 59 61" version="1.1" xmlns="http://www.w3.org/2000/svg" xmlns:xlink="http://www.w3.org/1999/xlink">
    <title>48</title>
    <g id="页面-1" stroke="none" stroke-width="1" fill="none" fill-rule="evenodd">
        <g id="形状库素材-节日" transform="translate(-81.000000, -635.000000)" fill="#545458">
            <path d="M132.542844,692.676938 L132.542844,687.757374 C132.542844,687.586123 132.405325,687.451198 132.23615,687.451198 L127.948137,687.451198 L127.948137,681.919283 C127.948137,681.748033 127.810618,681.613108 127.641443,681.613108 L119.785709,681.613108 L119.785709,658.982075 L127.371075,658.982075 C127.540768,658.982075 127.677769,658.841961 127.677769,658.6759 L127.677769,647.430441 C127.677769,647.264379 127.540768,647.124265 127.371075,647.124265 L119.785709,647.124265 L119.785709,635.432516 C119.785709,635.261266 119.648708,635.126341 119.479014,635.126341 L101.532984,635.126341 C101.363809,635.126341 101.226809,635.261266 101.226809,635.432516 L101.226809,647.124265 L93.6409241,647.124265 C93.4717493,647.124265 93.3342298,647.264379 93.3342298,647.430441 L93.3342298,658.6759 C93.3342298,658.841961 93.4717493,658.982075 93.6409241,658.982075 L101.226809,658.982075 L101.226809,681.613108 L93.3705557,681.613108 C93.2013808,681.613108 93.0643803,681.748033 93.0643803,681.919283 L93.0643803,687.451198 L88.7758489,687.451198 C88.606674,687.451198 88.4696735,687.586123 88.4696735,687.757374 L88.4696735,692.676938 L81.2626159,692.676938 L81.2626159,695.126341 L139.749902,695.126341 L139.749902,692.676938 L132.542844,692.676938" id="48"></path>
        </g>
    </g>
</svg>
