<?xml version="1.0" encoding="UTF-8"?>
<svg width="61px" height="53px" viewBox="0 0 61 53" version="1.1" xmlns="http://www.w3.org/2000/svg" xmlns:xlink="http://www.w3.org/1999/xlink">
    <title>120</title>
    <g id="页面-1" stroke="none" stroke-width="1" fill="none" fill-rule="evenodd">
        <g id="形状库素材-节日" transform="translate(-796.000000, -1046.000000)" fill="#545458">
            <path d="M808.77004,1046.44745 C809.189155,1046.18423 809.742229,1046.30174 810.017983,1046.71381 L816.608661,1056.57985 L818.55539,1048.97389 L820.329773,1049.42826 L817.951395,1058.71616 L821.135101,1063.78235 L826.491152,1051.63429 L831.279245,1062.49367 L833.747713,1058.67542 L831.379519,1049.42826 L833.153119,1048.97389 L835.100631,1056.58141 L840.961971,1047.10002 C841.229891,1046.65897 841.808818,1046.52579 842.242034,1046.80625 C842.658015,1047.07495 842.784141,1047.62568 842.527972,1048.04871 L836.749672,1057.40319 L844.136276,1056.15838 L844.440232,1057.9641 L835.403021,1059.48623 L832.439448,1064.07221 L845.562049,1062.64565 L838.510737,1072.27746 L842.768473,1072.27981 L848.912617,1065.19324 L850.296088,1066.3934 L845.191505,1072.28059 L855.79315,1072.42395 C856.294521,1072.43022 856.697184,1072.83837 856.697184,1073.33974 C856.697184,1073.84973 856.28042,1074.26101 855.770432,1074.25474 L845.377169,1074.11138 L850.64313,1079.51365 L849.332515,1080.79293 L842.82096,1074.11059 L837.833103,1074.10824 L845.562049,1084.6668 L833.428089,1083.34757 L834.860913,1085.62803 L844.440232,1087.24025 L844.136276,1089.04597 L836.165261,1087.70401 L842.112774,1097.25826 C842.379127,1097.68678 842.249084,1098.24926 841.822135,1098.51718 C841.392837,1098.78745 840.825661,1098.65662 840.558524,1098.22575 L834.95022,1089.21204 L833.153119,1096.23124 L831.379519,1095.77687 L833.607486,1087.07573 L831.65449,1083.96723 L826.491152,1095.67816 L820.985473,1083.19168 L820.013283,1083.29743 L817.950612,1086.48819 L820.329773,1095.77687 L818.55539,1096.23124 L816.597694,1088.5822 L809.902041,1098.27667 C809.620804,1098.68325 809.067729,1098.79371 808.652531,1098.52501 C808.219315,1098.24455 808.103373,1097.66093 808.397145,1097.23633 L814.916534,1087.80977 L807.57145,1089.04597 L807.267494,1087.24025 L816.263185,1085.72595 L817.667807,1083.55282 L807.420255,1084.6668 L815.156252,1074.09884 L809.374819,1074.09649 L802.847596,1080.79293 L801.536981,1079.51365 L806.81861,1074.09493 L797.61297,1074.09258 C797.107682,1074.09258 796.697184,1073.68286 796.697184,1073.17757 C796.697184,1072.6715 797.107682,1072.26179 797.61297,1072.26179 L806.976072,1072.26414 L801.884807,1066.3934 L803.269061,1065.19324 L809.399104,1072.26571 L814.463734,1072.26727 L807.420255,1062.64565 L819.052061,1063.91005 L816.268669,1059.48075 L807.267494,1057.9641 L807.57145,1056.15838 L814.964321,1057.40398 L808.496636,1047.73143 C808.209914,1047.30213 808.33369,1046.72242 808.77004,1046.44745 Z M826.697184,1065.33425 C822.339958,1065.33425 818.806859,1068.86657 818.806859,1073.22458 C818.806859,1077.58181 822.339958,1081.11412 826.697184,1081.11412 C831.055195,1081.11412 834.587509,1077.58181 834.587509,1073.22458 C834.587509,1068.86657 831.055195,1065.33425 826.697184,1065.33425 Z M826.697184,1067.64526 C829.778265,1067.64526 832.276503,1070.14271 832.276503,1073.22458 C832.276503,1076.30566 829.778265,1078.80311 826.697184,1078.80311 C823.616103,1078.80311 821.117866,1076.30566 821.117866,1073.22458 C821.117866,1070.14271 823.616103,1067.64526 826.697184,1067.64526 Z" id="120"></path>
        </g>
    </g>
</svg>
