<?xml version="1.0" encoding="UTF-8"?>
<svg width="61px" height="61px" viewBox="0 0 61 61" version="1.1" xmlns="http://www.w3.org/2000/svg" xmlns:xlink="http://www.w3.org/1999/xlink">
    <title>11</title>
    <g id="页面-1" stroke="none" stroke-width="1" fill="none" fill-rule="evenodd">
        <g id="形状库素材-节日" transform="translate(-319.000000, -318.000000)" fill="#545458">
            <path d="M326.105454,339.884761 C327.844934,340.575067 329.583831,341.266541 331.323311,341.956848 C332.904073,344.172482 333.636977,346.949465 333.559368,349.658759 C333.492847,351.992265 332.927414,354.470484 331.402086,356.299243 C329.810238,356.985465 328.219556,357.672854 326.627707,358.35966 C328.30475,355.951464 328.968215,352.824951 328.995057,349.945852 C329.027734,346.400954 328.126192,342.819294 326.105454,339.884761 Z M326.226244,359.170756 C328.042749,358.387086 329.859837,357.603415 331.676342,356.819745 C333.967834,357.690944 336.082519,359.412918 337.809745,361.092295 C339.552142,362.785677 341.818543,365.267981 341.513944,367.912504 L341.515111,367.965604 C340.857482,369.622808 340.199269,371.280011 339.539888,372.936631 C339.370083,371.777756 338.877591,370.66031 338.288233,369.658986 C337.259483,367.91192 335.906879,366.358 334.446906,364.958714 C332.981098,363.554759 331.398585,362.265175 329.712206,361.134892 C328.611683,360.397904 327.456309,359.684839 326.226244,359.170756 Z M339.807142,373.772235 C340.555217,371.889792 341.302709,370.007349 342.049618,368.124906 C344.388375,367.019715 347.239465,366.683606 349.787124,366.533641 C351.27744,366.445529 352.795765,366.429774 354.273827,366.662016 C355.334087,366.828903 356.512218,367.083319 357.318062,367.843648 C357.354824,367.879243 357.406174,367.907252 357.461609,367.925341 C358.265119,369.789112 359.07038,371.654049 359.87389,373.517819 C358.850392,372.784331 357.582398,372.405626 356.357585,372.180969 C354.328094,371.809266 352.240251,371.765502 350.183919,371.869952 C348.035973,371.979071 345.889778,372.235821 343.783846,372.667044 C342.446413,372.940132 341.082721,373.259319 339.807142,373.772235 Z M360.154564,373.35735 C359.367393,371.53326 358.580805,369.710336 357.793633,367.886829 L357.85607,367.793465 C358.729019,365.286653 360.061784,362.866786 361.712569,360.787696 C363.278743,358.814808 365.325155,356.895603 367.871647,356.418281 C369.775097,357.174526 371.677963,357.930771 373.581412,358.686433 C370.160805,359.287461 367.338307,361.757511 365.217204,364.397949 C363.073343,367.068147 361.330945,370.133973 360.154564,373.35735 Z M373.847499,358.326983 C372.084678,357.626756 370.321273,356.926529 368.558453,356.226303 C368.579459,356.16795 368.564871,356.096177 368.512354,356.036074 C366.507372,353.768507 365.66885,350.560885 365.64726,347.583754 C365.63734,346.262076 365.754628,344.908888 366.147338,343.640894 C366.405255,342.810541 366.778126,341.918919 367.470767,341.357571 C369.00368,340.695857 370.537177,340.034726 372.07009,339.373012 C371.575846,340.074405 371.247323,340.912927 371.008079,341.709435 C370.472989,343.497347 370.272258,345.385042 370.304935,347.247645 C370.372623,351.14499 371.362277,355.247736 373.847499,358.326983 Z M372.74931,338.482557 C370.924635,339.269145 369.100545,340.055733 367.275871,340.842904 C364.738132,339.933776 362.276835,338.620268 360.248511,336.832939 C358.570301,335.354293 356.996542,333.460764 356.762549,331.155267 C357.411426,329.521988 358.059719,327.888709 358.70918,326.25543 C359.344635,328.933214 361.282513,331.22529 363.312587,332.995696 C366.067396,335.396891 369.324617,337.216313 372.74931,338.482557 Z M358.036962,326.306197 C357.415511,327.87062 356.793476,329.435627 356.172608,331.00005 C354.640862,332.611155 352.282265,333.473601 350.131402,333.806209 C347.424442,334.225761 344.53834,333.83947 342.414319,331.986203 L342.348965,331.944773 C341.443922,329.847593 340.538879,327.749831 339.634419,325.652068 C342.355384,327.924304 346.053748,328.780331 349.553715,328.678798 C352.330697,328.599439 355.69587,328.053846 358.036962,326.306197 Z M339.300644,325.969504 C340.164841,327.971569 341.02787,329.973634 341.891483,331.975699 L341.875728,332.036386 C341.680248,334.699581 339.714362,337.12295 337.792239,338.823917 C336.802002,339.699784 335.712566,340.506795 334.505842,341.058807 C333.746679,341.404836 332.827048,341.75495 331.968687,341.634744 C330.216369,340.939185 328.464052,340.243043 326.711151,339.546901 C327.880529,339.412108 329.016064,338.919031 330.017972,338.333758 C331.616239,337.401873 333.056956,336.195149 334.32495,334.852464 C336.600103,332.444851 338.788312,329.337595 339.300644,325.969504 Z M332.458262,355.844096 C333.660318,354.038678 334.150476,351.735515 334.163314,349.606242 C334.179653,347.039911 333.572789,344.463077 332.183423,342.298792 C332.814794,342.549123 333.446749,342.800038 334.07812,343.051536 C334.547272,343.23768 335.016424,343.423823 335.484992,343.609967 C336.660789,345.21407 337.307332,347.24181 337.481222,349.210614 C337.6201,350.796628 337.574002,352.734505 336.571511,354.069021 C335.972817,354.328105 335.371789,354.586605 334.772511,354.845689 C334.001095,355.178297 333.229678,355.511488 332.458262,355.844096 Z M342.057204,366.600746 C341.652823,364.424207 339.878331,362.431479 338.393267,360.988428 C336.638032,359.282209 334.528015,357.540395 332.217851,356.585752 C332.998603,356.249644 333.779356,355.912951 334.560109,355.575675 C335.265004,355.27166 335.969899,354.967062 336.675377,354.663046 C338.254389,355.326511 339.620415,356.792319 340.667254,358.078402 C341.936998,359.639325 343.184569,361.58187 343.224832,363.662711 C342.836206,364.642445 342.446413,365.621012 342.057204,366.600746 Z M357.118498,367.131167 C356.362253,366.678354 355.460127,366.444945 354.607601,366.301982 C353.092194,366.047567 351.539441,366.016056 350.007695,366.098916 C348.370331,366.187028 346.732384,366.381925 345.126531,366.71745 C344.176557,366.916431 343.210244,367.147506 342.298198,367.500537 C342.753346,366.355666 343.208493,365.209628 343.663057,364.064174 C343.708572,363.952138 343.751752,363.840102 343.797267,363.728649 C345.396118,362.506753 347.492714,361.819364 349.431759,361.395727 C350.443003,361.173988 351.485173,361.005934 352.524427,361.03511 C353.267251,361.05495 354.123278,361.143062 354.694546,361.671149 L354.784409,361.721332 C354.989808,362.196903 355.195208,362.673057 355.400608,363.148628 C355.973627,364.476141 356.546646,365.804238 357.118498,367.131167 Z M367.136409,356.12652 C364.74105,356.743303 362.757074,358.55514 361.249252,360.454505 C359.662072,362.453069 358.364901,364.725305 357.463359,367.119497 C357.019299,366.091914 356.576406,365.064331 356.132929,364.036165 C355.789234,363.239657 355.445539,362.443149 355.101845,361.646641 C355.159613,361.604628 355.204545,361.55036 355.224968,361.492008 C355.793319,359.873317 356.68144,358.311811 357.784297,356.997719 C358.89649,355.670789 360.323786,354.401628 362.084273,354.119204 C362.703973,354.36545 363.32309,354.611113 363.942208,354.857359 C365.006552,355.280413 366.07148,355.702883 367.136409,356.12652 Z M356.356418,332.176431 C356.886839,334.102055 358.289627,335.762176 359.772357,337.041256 C361.813518,338.802327 364.200124,340.140343 366.720941,341.082732 C365.911595,341.431678 365.101666,341.781208 364.291154,342.130738 C363.521488,342.462762 362.752406,342.79537 361.982156,343.127394 C360.230422,342.492522 358.512533,341.626575 357.072983,340.437356 C355.912941,339.479213 354.763402,338.246813 354.56092,336.696978 C354.879523,335.894052 355.198709,335.091708 355.517896,334.289365 C355.79682,333.585054 356.07691,332.881326 356.356418,332.176431 Z M342.713083,332.790296 C344.78342,334.201253 347.383595,334.600966 349.866483,334.280612 C351.866797,334.022112 354.063175,333.368567 355.729715,332.115161 C355.537152,332.600652 355.344006,333.086142 355.150861,333.572216 C354.740644,334.604467 354.330428,335.637302 353.920796,336.669553 C352.873957,337.698886 351.315369,338.245063 349.893325,338.446962 C348.049394,338.708963 346.126688,338.406699 344.684805,337.160295 L344.576269,337.107194 C344.195229,336.226076 343.814773,335.343207 343.434316,334.461504 C343.194489,333.904824 342.953494,333.34756 342.713083,332.790296 Z M334.895634,342.797704 C334.264263,342.546789 333.633476,342.296458 333.002688,342.045544 C334.873461,341.816219 336.765823,340.433272 338.043154,339.323996 C339.891752,337.716975 341.813291,335.51943 342.347214,333.030124 C342.451081,333.272869 342.556699,333.515615 342.661149,333.757776 C343.167647,334.933574 343.675895,336.109371 344.182392,337.285169 L344.144463,337.396038 C343.990997,339.270312 342.134229,340.775799 340.669004,341.708851 C339.846821,342.232854 338.962201,342.704924 338.027982,342.997852 C337.399529,343.195666 336.647952,343.406901 335.986821,343.231261 C335.622703,343.086547 335.259169,342.941834 334.895634,342.797704 Z M337.347012,353.735246 C338.095671,352.406566 338.209458,350.719603 338.078749,349.240957 C337.917696,347.409281 337.411783,345.576437 336.460058,343.997426 C337.76248,344.51501 339.064901,345.032594 340.36849,345.550179 C341.666244,347.515482 341.609059,350.570805 340.215607,352.497595 C339.258631,352.909562 338.302821,353.322696 337.347012,353.735246 Z M341.163247,357.742877 C340.136248,356.504059 338.843746,355.101272 337.333591,354.379455 C338.362924,353.935394 339.39109,353.491334 340.41984,353.047857 C341.430501,353.538599 342.330292,354.38529 343.045107,355.207473 C344.02134,356.330753 344.84469,357.672271 345.006909,359.175424 C344.569851,360.276531 344.132792,361.378221 343.695151,362.479911 C343.348539,360.722342 342.275441,359.083228 341.163247,357.742877 Z M354.41679,360.867639 C353.942386,360.684997 353.414882,360.618475 352.918888,360.596301 C351.799108,360.546702 350.667659,360.696083 349.574138,360.934744 C347.713285,361.342626 345.714138,361.955908 344.079108,363.017335 C344.561098,361.803609 345.043087,360.590466 345.525077,359.377323 L345.624859,359.335309 C347.371341,357.714868 351.157234,355.65095 353.098613,358.015966 L353.20248,358.053311 C353.607444,358.991615 354.012409,359.929919 354.41679,360.867639 Z M361.420224,353.854868 C359.901316,354.312933 358.594809,355.356271 357.564309,356.555993 C356.425857,357.882922 355.479384,359.403582 354.838093,361.035693 C354.405703,360.034369 353.973896,359.032461 353.54209,358.030554 C353.628451,358.009547 353.696139,357.978037 353.703725,357.937774 C354.182797,355.523158 355.741969,353.127216 358.248197,352.595627 C359.306123,353.015763 360.362298,353.435315 361.420224,353.854868 Z M360.259598,347.647941 C360.19191,349.66051 360.546108,351.840549 361.72774,353.512924 C360.823864,353.153474 359.920572,352.794608 359.016696,352.435742 L359.020197,352.398396 C358.025875,351.251192 357.652421,349.633668 357.657672,348.143935 C357.659423,347.40753 357.683931,346.071848 358.219021,345.348863 C359.15324,344.94565 360.088043,344.543019 361.021678,344.139805 C360.420067,345.160969 360.29461,346.639031 360.259598,347.647941 Z M354.175211,337.668543 C354.601766,338.913196 355.566328,339.961202 356.576989,340.772882 C357.993198,341.908999 359.604303,342.777864 361.298268,343.421489 C360.259598,343.869634 359.221512,344.31778 358.183426,344.765925 C356.121842,343.964165 353.501243,342.435337 353.20423,340.114668 C353.527502,339.299488 353.850773,338.483724 354.175211,337.668543 Z M344.991154,338.069423 C346.39861,338.913196 348.100161,339.129683 349.73519,338.897441 C351.055118,338.71013 352.466074,338.280658 353.592273,337.496404 C353.238658,338.385692 352.885043,339.275563 352.532013,340.164851 C350.838047,341.819137 347.491547,341.334814 345.830259,339.911603 L345.777158,339.892346 C345.515157,339.2849 345.253155,338.677453 344.991154,338.069423 Z M337.087344,343.667736 C337.370936,343.619303 337.64986,343.546363 337.915946,343.462336 C338.997213,343.123893 340.027713,342.624398 340.975937,342.005864 C342.361219,341.101405 343.996832,339.793148 344.547093,338.130693 C344.806761,338.732304 345.066428,339.333916 345.325512,339.934944 L345.237984,340.00555 C345.137618,341.213441 344.446144,342.357145 343.691066,343.273858 C343.283184,343.769269 342.83854,344.244839 342.326207,344.634049 C342.021025,344.866874 341.580466,345.216987 341.152744,345.282925 C339.797805,344.744918 338.442283,344.206327 337.087344,343.667736 Z M341.832548,349.57765 C341.969092,348.309072 341.816792,347.008984 341.220433,345.888038 C341.887982,346.153541 342.556699,346.419627 343.224832,346.685129 C344.25825,348.295651 343.843949,349.956356 342.671069,351.438502 C342.113222,351.678913 341.554791,351.919325 340.997527,352.160319 C341.110147,351.968924 341.214597,351.772277 341.302709,351.567461 C341.572297,350.934922 341.75844,350.262705 341.832548,349.57765 Z M345.418292,358.140256 C345.112526,357.105671 344.519668,356.152779 343.82586,355.33293 C343.017681,354.376537 342.025693,353.411391 340.872653,352.880386 L340.837642,352.866965 C341.579882,352.547195 342.320956,352.227424 343.062613,351.907654 C344.527837,352.06112 346.924363,352.875134 346.756309,354.723149 L346.757476,354.768664 C346.311665,355.893111 345.864687,357.016392 345.418292,358.140256 Z M352.847115,357.229961 C351.880802,356.704207 350.667075,356.740969 349.571804,356.990717 C348.209279,357.301151 346.890519,357.91735 345.767238,358.766375 C346.25623,357.536894 346.745222,356.306245 347.23363,355.075597 C347.942026,354.742405 348.719861,354.518916 349.492445,354.396377 C350.163495,354.290176 351.149648,354.11687 351.713914,354.60236 C352.092037,355.478227 352.469576,356.354094 352.847115,357.229961 Z M358.025875,352.506932 C355.585585,353.051941 353.92313,354.975231 353.254997,357.364755 C352.862286,356.45446 352.469576,355.544165 352.076865,354.634454 L352.09262,354.607028 C352.650468,353.106209 354.198552,351.894817 355.772895,351.612392 C356.523889,351.910572 357.274882,352.208752 358.025875,352.506932 Z M357.519961,345.650544 C357.029219,346.618608 356.984288,347.881934 357.08407,348.936942 C357.189688,350.048552 357.480282,351.154327 358.109902,352.075709 C357.412593,351.799119 356.7147,351.521946 356.016224,351.244189 C355.366764,350.485027 354.98514,349.469698 354.867269,348.482962 C354.808917,347.981716 354.679958,346.96347 355.218549,346.648951 L355.237222,346.63553 C355.998135,346.307007 356.759048,345.979068 357.519961,345.650544 Z M352.834861,341.043052 C353.28534,342.112649 354.25282,342.982097 355.184705,343.608216 C355.919359,344.10246 356.704197,344.527848 357.530465,344.848785 C357.575979,344.86629 357.69035,344.898384 357.79305,344.933979 C356.828487,345.35003 355.863925,345.766665 354.898779,346.182717 C353.502994,345.642959 352.275846,344.458408 352.088536,342.921411 C352.3377,342.295291 352.585697,341.669172 352.834861,341.043052 Z M346.076505,340.586154 C347.151937,341.175512 348.429851,341.375077 349.651163,341.298635 C350.519444,341.243784 351.510848,341.097903 352.326029,340.681852 C352.070446,341.326061 351.81428,341.970269 351.558697,342.614478 C350.487934,343.694578 348.377334,343.979337 347.142601,343.056788 C346.787819,342.233438 346.43187,341.409504 346.076505,340.586154 Z M341.423498,345.390877 C342.197833,345.185477 342.930737,344.630547 343.455323,344.125801 C344.380789,343.232428 345.309173,342.050795 345.682044,340.761211 C346.0094,341.520374 346.33734,342.28012 346.665279,343.039282 C346.559078,343.894142 345.974972,344.658557 345.350604,345.221072 C344.928717,345.600945 344.202232,346.210142 343.544602,346.233483 C342.837373,345.952809 342.130144,345.671551 341.423498,345.390877 Z M344.394794,348.958532 C344.411716,348.224461 344.199898,347.550493 343.848617,346.931959 C344.182392,347.065003 344.517334,347.198046 344.851692,347.331089 L344.860445,347.349761 C345.255489,347.731385 345.759069,348.194702 345.864687,348.763636 C345.966803,349.312147 345.737479,349.806974 345.429963,350.247533 C344.867447,350.490862 344.304348,350.734191 343.740666,350.976936 C344.112369,350.36132 344.377872,349.683851 344.394794,348.958532 Z M347.11109,353.880543 C346.603426,352.668567 345.107858,351.923409 343.771009,351.602472 C344.37087,351.342805 344.971314,351.084304 345.571175,350.82522 C346.535154,350.968183 347.45887,351.763524 347.559235,352.75026 C347.409854,353.127216 347.259889,353.503588 347.11109,353.880543 Z M351.468251,354.032842 C350.86664,353.771424 350.128484,353.79885 349.500614,353.885795 C348.832481,353.978575 348.15968,354.131458 347.518389,354.360198 C347.732542,353.82044 347.947278,353.280682 348.16143,352.740924 C349.023293,352.105468 350.075384,351.860389 350.826377,352.838956 C350.846217,352.865798 350.894065,352.86113 350.952418,352.837789 C351.124557,353.236334 351.296696,353.63488 351.468251,354.032842 Z M354.930289,351.27745 C353.599858,351.676579 352.37913,352.663899 351.759429,353.897465 C351.581455,353.486082 351.404064,353.074115 351.225506,352.662148 C351.287943,352.60613 351.333458,352.551279 351.332874,352.518602 C351.329957,351.405825 351.956076,350.680507 353.068269,350.538127 C353.689137,350.784374 354.310005,351.03062 354.930289,351.27745 Z M354.360771,348.450284 C354.513071,349.357078 354.828756,350.224776 355.345757,350.97752 C354.740644,350.737108 354.135532,350.497281 353.530419,350.25687 L353.543257,350.179261 C353.181473,349.748622 352.934059,349.218783 352.831943,348.664437 C352.785261,348.408271 352.742664,348.138684 352.768923,347.876099 C352.774758,347.815412 352.780009,347.752975 352.789929,347.691122 C353.299928,347.471134 353.809926,347.251146 354.319925,347.031158 C354.230062,347.514315 354.297167,348.07683 354.360771,348.450284 Z M351.79269,343.665985 C352.253672,344.862789 353.278921,345.813347 354.434295,346.383448 C353.877031,346.623276 353.320935,346.864271 352.763087,347.104099 C352.001591,346.745232 351.345128,346.106275 351.153149,345.274173 C351.367302,344.738499 351.580288,344.202242 351.79269,343.665985 Z M347.393515,343.637393 C348.51913,344.227917 350.008279,344.209828 351.157234,343.625722 C350.913322,344.239588 350.669409,344.85462 350.424913,345.468486 C349.601564,346.070097 348.583317,345.540259 347.971786,344.820776 L347.897678,344.807355 C347.729624,344.417562 347.56157,344.027185 347.393515,343.637393 Z M344.370286,346.561423 C344.830102,346.395119 345.260741,346.088186 345.606186,345.792924 C346.190876,345.294012 346.768563,344.655639 347.042235,343.915149 C347.20387,344.289187 347.364923,344.662641 347.526558,345.036679 L347.464121,345.141713 C347.58316,346.174547 346.606344,347.156616 345.564756,347.035826 C345.166794,346.877108 344.767665,346.718974 344.370286,346.561423 Z M346.36885,348.419358 C346.310498,348.201704 346.213633,348.00564 346.09226,347.823582 C346.952372,348.165526 347.813068,348.506886 348.672596,348.84883 C347.745379,349.248543 346.818746,349.649423 345.890945,350.049136 C346.204297,349.584068 346.524067,349.00113 346.36885,348.419358 Z M347.908182,351.873226 C347.74888,351.509108 347.493297,351.181752 347.1922,350.950094 C346.940702,350.756365 346.651275,350.579557 346.339674,350.49378 C347.191033,350.126744 348.042392,349.759125 348.893751,349.392089 L347.908182,351.873226 Z M350.549787,351.902402 C349.820384,351.644486 348.977778,351.982928 348.273467,352.459666 C348.674347,351.447255 349.076977,350.434844 349.479024,349.423016 C349.835556,350.249284 350.192672,351.075551 350.549787,351.902402 Z M352.650468,350.371823 C351.859795,350.666502 351.212669,351.23777 350.950084,352.022608 C350.546286,351.086638 350.142489,350.151252 349.739275,349.215282 C350.709672,349.60099 351.68007,349.986115 352.650468,350.371823 Z M352.299771,347.902941 C352.101957,348.494632 352.323695,349.290557 352.63763,349.901504 C351.775184,349.55956 350.912155,349.217033 350.049125,348.873922 C350.798951,348.550067 351.548777,348.226795 352.299771,347.902941 Z M350.82696,346.096355 C351.097131,346.650118 351.56745,347.086009 352.120629,347.381272 C351.395311,347.694623 350.669993,348.007975 349.943508,348.320159 C350.238186,347.579086 350.532865,346.838012 350.82696,346.096355 Z M348.371498,345.905544 C348.76596,346.103358 349.207102,346.170463 349.68209,346.015829 C349.91083,345.942306 350.124399,345.840773 350.325715,345.718817 C350.000693,346.536915 349.675087,347.355597 349.350649,348.174278 C349.023876,347.418034 348.697687,346.661789 348.371498,345.905544 Z M348.97311,348.389598 C348.003296,348.004473 347.032315,347.618765 346.063084,347.23364 C346.361848,347.119854 346.644856,346.964053 346.869512,346.808253 C347.287898,346.52116 347.645013,346.178049 347.836992,345.754995 C348.215698,346.63378 348.59382,347.511397 348.97311,348.389598 Z M365.581322,343.421489 C365.160602,344.778179 365.025225,346.204891 365.048566,347.621099 C365.095831,350.543962 365.892923,353.60337 367.753775,355.907116 C366.740781,355.503902 365.727202,355.101272 364.713624,354.699225 C364.027402,354.426136 363.340596,354.153631 362.653207,353.880543 C362.68355,353.824525 362.684134,353.760921 362.625781,353.694983 C361.269675,352.145731 360.81161,349.944102 360.833784,347.933284 C360.843704,347.008401 360.930649,346.068346 361.197902,345.179058 C361.326277,344.753087 361.507753,344.131052 361.863701,343.776854 C362.577349,343.468755 363.292164,343.161238 364.005812,342.852555 C364.760889,342.52695 365.515967,342.201344 366.270462,341.875155 C365.962362,342.351893 365.744124,342.896903 365.581322,343.421489 Z M319.440463,337.236736 C321.487459,338.049583 323.533872,338.863013 325.579701,339.67586 C327.637201,342.61156 328.557415,346.271996 328.465219,349.834983 C328.384109,353.006427 327.592853,356.410696 325.467665,358.859739 C323.562464,359.681922 321.656097,360.503521 319.750897,361.325121 C319.471389,361.446493 319.850679,361.92148 320.098092,361.814696 C322.028384,360.982009 323.958676,360.149323 325.888968,359.316637 C327.24449,359.815548 328.507232,360.595718 329.694117,361.405647 C331.330897,362.522508 332.881899,363.777665 334.292272,365.168198 C336.572094,367.41651 339.458195,370.669647 339.044478,374.141021 L339.047979,374.177199 C338.451619,375.679186 337.85526,377.181172 337.258316,378.683158 C337.206383,378.813284 337.796324,378.834874 337.848841,378.701831 C338.409606,377.289124 338.970954,375.877 339.531136,374.465459 L339.536971,374.463709 C340.926921,373.795576 342.462752,373.411618 343.965905,373.09885 C345.931792,372.689217 347.930356,372.418463 349.934755,372.293589 C351.89539,372.17105 353.889869,372.148876 355.839417,372.428383 C357.270214,372.632616 358.972932,372.938381 360.061784,373.974717 L360.076956,373.988138 C360.678567,375.382173 361.279595,376.775624 361.881207,378.169659 C361.948895,378.327793 362.368448,378.490596 362.371949,378.497598 C361.746997,377.048712 361.121461,375.599243 360.495925,374.149774 L360.500593,374.141604 C361.656551,370.810859 363.423456,367.602653 365.630921,364.85368 C367.836052,362.108207 370.766501,359.470687 374.389591,359.00737 C375.974437,359.636991 377.560451,360.267195 379.145881,360.896232 C379.459233,361.021105 379.722985,360.661072 379.351281,360.513441 C377.699329,359.856978 376.048545,359.201099 374.396593,358.54522 C371.840182,355.505069 370.847611,351.269864 370.830688,347.373102 C370.822519,345.549012 370.994658,343.678823 371.553089,341.933507 C371.924209,340.774632 372.469803,339.491467 373.493884,338.759146 C375.337815,337.963805 377.182329,337.167881 379.026843,336.37254 C379.391544,336.214989 379.079943,335.751089 378.753171,335.891717 C376.871311,336.703981 374.989452,337.51566 373.108176,338.32734 C369.711493,337.131119 366.429763,335.385804 363.708215,333.012618 C361.459904,331.054318 359.330631,328.482735 359.04879,325.399986 C359.884394,323.295222 360.720581,321.190457 361.556185,319.085108 C361.662386,318.820189 361.074195,318.660304 360.965077,318.934559 C360.151063,320.986224 359.335883,323.036721 358.521285,325.087219 C356.421189,327.333779 352.785261,328.104029 349.846059,328.26333 C346.179205,328.462312 342.128393,327.74808 339.400427,325.108809 C338.584662,323.219364 337.768898,321.329918 336.954885,319.440473 C336.876693,319.261332 336.317095,319.053014 336.422129,319.296927 C337.234975,321.18112 338.047822,323.065314 338.860668,324.949507 C338.58758,328.562094 336.248823,331.97745 333.814368,334.518106 C332.522449,335.866626 331.077065,337.116531 329.439117,338.028576 C328.332176,338.643609 327.101527,339.16236 325.822446,339.19387 C323.778951,338.381607 321.734872,337.569928 319.691377,336.758248 C319.368106,336.629873 319.071093,337.090856 319.440463,337.236736 L319.440463,337.236736 Z" id="11"></path>
        </g>
    </g>
</svg>
