<svg width="24" height="24" viewBox="0 0 24 24" fill="none" xmlns="http://www.w3.org/2000/svg">
<g id="&#229;&#191;&#171;&#233;&#128;&#159;&#229;&#164;&#141;&#229;&#136;&#182;icon">
<g id="Group 1321317529">
<g id="Group 1321317530">
<g id="Group 1321317747">
<path id="&#229;&#189;&#162;&#231;&#138;&#182;" d="M4.05772 5.96704C3.5345 5.96704 3.11035 6.39119 3.11035 6.91441V20.1776C3.11035 20.7008 3.5345 21.1249 4.05772 21.1249H17.3209C17.8441 21.1249 18.2682 20.7008 18.2682 20.1776V6.91441C18.2682 6.39119 17.8441 5.96704 17.3209 5.96704H4.05772Z" fill="#545458"/>
<path id="&#232;&#183;&#175;&#229;&#190;&#132;" d="M19.2153 3.125C20.23 3.125 21.0584 3.92267 21.11 5.01974V17.8092C21.11 18.0708 20.898 18.2829 20.6364 18.2829H19.689C19.4274 18.2829 19.2153 18.0708 19.2153 17.8092V5.01974H6.42583C6.16422 5.01974 5.95215 4.80766 5.95215 4.54605V3.59868C5.95215 3.33708 6.16422 3.125 6.42583 3.125H19.2153Z" fill="#545458"/>
<g id="&#231;&#188;&#150;&#231;&#187;&#132; 2">
<path id="&#229;&#189;&#162;&#231;&#138;&#182;&#231;&#187;&#147;&#229;&#144;&#136;" fill-rule="evenodd" clip-rule="evenodd" d="M11.1158 9.7093C11.1158 9.34305 10.8189 9.04614 10.4526 9.04614C10.0864 9.04614 9.78945 9.34305 9.78945 9.7093V12.6461H6.85261C6.48636 12.6461 6.18945 12.943 6.18945 13.3093C6.18945 13.6756 6.48636 13.9725 6.85261 13.9725H9.78945V16.9093C9.78945 17.2756 10.0864 17.5725 10.4526 17.5725C10.8189 17.5725 11.1158 17.2756 11.1158 16.9093V13.9725H14.0526C14.4189 13.9725 14.7158 13.6756 14.7158 13.3093C14.7158 12.943 14.4189 12.6461 14.0526 12.6461H11.1158V9.7093Z" fill="white"/>
</g>
</g>
</g>
</g>
</g>
</svg>
