<svg width="24" height="24" viewBox="0 0 24 24" fill="none" xmlns="http://www.w3.org/2000/svg">
<path fill-rule="evenodd" clip-rule="evenodd" d="M9.21101 3.42032L8.06867 5.70545H4.69369C4.52341 5.70545 4.38623 5.84266 4.38623 6.01298V7.85338C4.38623 8.0237 4.52341 8.1609 4.69369 8.1609H18.8062C18.9764 8.1609 19.1136 8.0237 19.1136 7.85338V6.01298C19.1136 5.84266 18.9764 5.70545 18.8062 5.70545H15.4312L14.2888 3.42032C14.2368 3.31624 14.1304 3.25 14.0145 3.25H9.48536C9.36947 3.25 9.26304 3.31624 9.21101 3.42032ZM17.5787 8.97723H5.92117C5.75089 8.97723 5.61371 9.10196 5.61608 9.25679V20.134C5.61608 20.7511 6.16478 21.2501 6.84356 21.2501H16.6587C17.3374 21.2501 17.8861 20.7511 17.8861 20.134V9.25679C17.8861 9.10196 17.749 8.97723 17.5787 8.97723ZM9.29379 12.4549V17.3634C9.29379 17.7017 9.56814 17.9761 9.90634 17.9761C10.2445 17.9761 10.5189 17.7017 10.5189 17.3634V12.4549C10.5189 12.1166 10.2445 11.8422 9.90634 11.8422C9.5705 11.8422 9.29379 12.1166 9.29379 12.4549ZM12.9762 17.3634V12.4549C12.9762 12.1166 13.2506 11.8422 13.5888 11.8422C13.927 11.8422 14.2013 12.1166 14.2013 12.4549V17.3634C14.2013 17.7017 13.927 17.9761 13.5888 17.9761C13.2506 17.9761 12.9762 17.7017 12.9762 17.3634Z" fill="#545458"/>
</svg>
