<svg width="24" height="24" viewBox="0 0 24 24" fill="none" xmlns="http://www.w3.org/2000/svg">
<path fill-rule="evenodd" clip-rule="evenodd" d="M3 3.81818C3 3.36631 3.36631 3 3.81818 3H7.09091C7.54278 3 7.90909 3.36631 7.90909 3.81818V7.09091C7.90909 7.54278 7.54278 7.90909 7.09091 7.90909H3.81818C3.36631 7.90909 3 7.54278 3 7.09091V3.81818ZM4.63636 4.63636V6.27273H6.27273V4.63636H4.63636Z" fill="#1A1A1E"/>
<path fill-rule="evenodd" clip-rule="evenodd" d="M16.0909 16.909C16.0909 16.4571 16.4573 16.0908 16.9091 16.0908H20.1819C20.6337 16.0908 21 16.4571 21 16.909V20.1817C21 20.6336 20.6337 20.9999 20.1819 20.9999H16.9091C16.4573 20.9999 16.0909 20.6336 16.0909 20.1817V16.909ZM17.7273 17.7272V19.3635H19.3637V17.7272H17.7273Z" fill="#1A1A1E"/>
<path fill-rule="evenodd" clip-rule="evenodd" d="M3 16.909C3 16.4571 3.36631 16.0908 3.81818 16.0908H7.09091C7.54278 16.0908 7.90909 16.4571 7.90909 16.909V20.1817C7.90909 20.6336 7.54278 20.9999 7.09091 20.9999H3.81818C3.36631 20.9999 3 20.6336 3 20.1817V16.909ZM4.63636 17.7272V19.3635H6.27273V17.7272H4.63636Z" fill="#1A1A1E"/>
<path fill-rule="evenodd" clip-rule="evenodd" d="M16.0909 3.81818C16.0909 3.36631 16.4573 3 16.9091 3H20.1819C20.6337 3 21 3.36631 21 3.81818V7.09091C21 7.54278 20.6337 7.90909 20.1819 7.90909H16.9091C16.4573 7.90909 16.0909 7.54278 16.0909 7.09091V3.81818ZM17.7273 4.63636V6.27273H19.3637V4.63636H17.7273Z" fill="#1A1A1E"/>
<path fill-rule="evenodd" clip-rule="evenodd" d="M5.45453 6.27246C5.9064 6.27246 6.27272 6.63877 6.27272 7.09064V16.9088C6.27272 17.3607 5.9064 17.727 5.45453 17.727C5.00266 17.727 4.63635 17.3607 4.63635 16.9088V7.09064C4.63635 6.63877 5.00266 6.27246 5.45453 6.27246Z" fill="#1A1A1E"/>
<path fill-rule="evenodd" clip-rule="evenodd" d="M18.5455 6.27246C18.9973 6.27246 19.3637 6.63877 19.3637 7.09064V16.9088C19.3637 17.3607 18.9973 17.727 18.5455 17.727C18.0936 17.727 17.7273 17.3607 17.7273 16.9088V7.09064C17.7273 6.63877 18.0936 6.27246 18.5455 6.27246Z" fill="#1A1A1E"/>
<path fill-rule="evenodd" clip-rule="evenodd" d="M6.27271 5.4549C6.27271 5.00303 6.63902 4.63672 7.09089 4.63672H16.9091C17.3609 4.63672 17.7273 5.00303 17.7273 5.4549C17.7273 5.90677 17.3609 6.27308 16.9091 6.27308H7.09089C6.63902 6.27308 6.27271 5.90677 6.27271 5.4549Z" fill="#1A1A1E"/>
<path fill-rule="evenodd" clip-rule="evenodd" d="M6.27271 18.5457C6.27271 18.0939 6.63902 17.7275 7.09089 17.7275H16.9091C17.3609 17.7275 17.7273 18.0939 17.7273 18.5457C17.7273 18.9976 17.3609 19.3639 16.9091 19.3639H7.09089C6.63902 19.3639 6.27271 18.9976 6.27271 18.5457Z" fill="#1A1A1E"/>
<path fill-rule="evenodd" clip-rule="evenodd" d="M8.72729 8.72754H12.6546V11.3457H15.2727V15.273H11.3455V12.6548H8.72729V8.72754Z" fill="#1A1A1E"/>
<path fill-rule="evenodd" clip-rule="evenodd" d="M7.90906 8.72736C7.90906 8.27549 8.27537 7.90918 8.72724 7.90918H12.6545C13.1064 7.90918 13.4727 8.27549 13.4727 8.72736V10.5274H15.2727C15.7246 10.5274 16.0909 10.8937 16.0909 11.3455V15.2728C16.0909 15.7247 15.7246 16.091 15.2727 16.091H11.3454C10.8936 16.091 10.5272 15.7247 10.5272 15.2728V13.4728H8.72724C8.27537 13.4728 7.90906 13.1065 7.90906 12.6546V8.72736ZM9.54542 9.54554V11.8365H11.3454C11.7973 11.8365 12.1636 12.2028 12.1636 12.6546V14.4546H14.4545V12.1637H12.6545C12.2026 12.1637 11.8363 11.7974 11.8363 11.3455V9.54554H9.54542Z" fill="#1A1A1E"/>
</svg>
