<svg width="24" height="24" viewBox="0 0 24 24" fill="none" xmlns="http://www.w3.org/2000/svg">
<path d="M18.838 3C19.3851 3 19.8285 3.44772 19.8285 4V5.757L17.8475 7.757V5H3.98094V13.1L7.94283 9.1005L12.2296 13.429L10.9154 14.7562L10.9093 18.995L15.1152 19.0012L16.4322 17.671L17.748 19H17.8475V16.242L19.8285 14.242V20C19.8285 20.5523 19.3851 21 18.838 21H2.99047C2.44345 21 2 20.5523 2 20V4C2 3.44772 2.44345 3 2.99047 3H18.838ZM20.5993 7.80761L22 9.22183L14.2959 17L12.8931 16.9979L12.8952 15.5858L20.5993 7.80761ZM14.3809 7C15.2014 7 15.8666 7.67157 15.8666 8.5C15.8666 9.32843 15.2014 10 14.3809 10C13.5604 10 12.8952 9.32843 12.8952 8.5C12.8952 7.67157 13.5604 7 14.3809 7Z" fill="#1A1A1E"/>
</svg>
