<svg xmlns="http://www.w3.org/2000/svg" width="24" height="24" viewBox="0 0 24 24" fill="none">
  <path d="M8 10C7.44772 10 7 9.55228 7 9C7 8.44772 7.44772 8 8 8C8.55228 8 9 8.44772 9 9C9 9.55228 8.55228 10 8 10Z" fill="#1A1A1E"/>
  <path d="M16 16C15.4477 16 15 15.5523 15 15C15 14.4477 15.4477 14 16 14C16.5523 14 17 14.4477 17 15C17 15.5523 16.5523 16 16 16Z" fill="#1A1A1E"/>
  <path fill-rule="evenodd" clip-rule="evenodd" d="M2.9375 3C2.38522 3 1.9375 3.44772 1.9375 4V20C1.9375 20.5523 2.38522 21 2.9375 21H21C21.5523 21 22 20.5523 22 20V4C22 3.44772 21.5523 3 21 3H2.9375ZM5 9C5 7.34315 6.34315 6 8 6C9.30622 6 10.4175 6.83481 10.8293 8H19V10H10.8293C10.4175 11.1652 9.30622 12 8 12C6.34315 12 5 10.6569 5 9ZM13.1707 16H5V14H13.1707C13.5825 12.8348 14.6938 12 16 12C17.6569 12 19 13.3431 19 15C19 16.6569 17.6569 18 16 18C14.6938 18 13.5825 17.1652 13.1707 16Z" fill="#1A1A1E"/>
</svg>