<svg xmlns="http://www.w3.org/2000/svg" width="24" height="24" viewBox="0 0 24 24" fill="none">
    <path fill-rule="evenodd" clip-rule="evenodd" d="M1.5 4C1.5 3.44772 1.94772 3 2.5 3H20.5C21.0523 3 21.5 3.44772 21.5 4V10.9024L17.6912 14.7111L17.6849 14.7025L13.9711 18.5678L13.9437 18.5414L13.6039 20.9197C13.6001 20.9465 13.5967 20.9733 13.5937 21H2.5C1.94772 21 1.5 20.5523 1.5 20V4ZM13.8448 15.8126L16.4834 13.0662L14.0425 9.74182L10.0018 15.142L7.5283 11.8126L4.5 15.8126L13.8448 15.8126Z" fill="black"/>
    <path d="M23.5 15.5553L21.3787 13.434L15.7218 19.0908L15.4626 20.9057C15.4154 21.2357 15.6983 21.5185 16.0282 21.4714L17.8431 21.2121L23.5 15.5553Z" fill="black"/>
</svg>