<svg xmlns="http://www.w3.org/2000/svg" width="24" height="24" viewBox="0 0 24 24" fill="none">
    <path d="M18 15L13.5425 8.9292L10.5053 12.9881L9.0283 11L6 15L18 15Z" fill="black"/>
    <path fill-rule="evenodd" clip-rule="evenodd" d="M1.5 4C1.5 5.02516 2.11705 5.9062 3 6.29198V17.708C2.11705 18.0938 1.5 18.9748 1.5 20C1.5 21.3807 2.61929 22.5 4 22.5C5.02516 22.5 5.9062 21.883 6.29198 21H17.708C18.0938 21.883 18.9748 22.5 20 22.5C21.3807 22.5 22.5 21.3807 22.5 20C22.5 18.9748 21.883 18.0938 21 17.708V6.29198C21.883 5.9062 22.5 5.02516 22.5 4C22.5 2.61929 21.3807 1.5 20 1.5C18.9748 1.5 18.0938 2.11705 17.708 3H6.29198C5.9062 2.11705 5.02516 1.5 4 1.5C2.61929 1.5 1.5 2.61929 1.5 4ZM19 17.708V6.29198C18.4233 6.04 17.96 5.57672 17.708 5H6.29198C6.04 5.57672 5.57672 6.04 5 6.29198V17.708C5.57672 17.96 6.04 18.4233 6.29198 19H17.708C17.96 18.4233 18.4233 17.96 19 17.708Z" fill="black"/>
</svg>