<svg width="24" height="24" viewBox="0 0 24 24" fill="none" xmlns="http://www.w3.org/2000/svg">
<path d="M16 15.25H15.25V16V20V20.75H16H20H20.75V20V16V15.25H20H16ZM8 8.75H8.75V8V4V3.25H8H4H3.25V4V8V8.75H4H8ZM14.75 15C14.75 14.8619 14.8619 14.75 15 14.75H21C21.1381 14.75 21.25 14.8619 21.25 15V21C21.25 21.1381 21.1381 21.25 21 21.25H15C14.8619 21.25 14.75 21.1381 14.75 21V15ZM9.25 9C9.25 9.13807 9.13807 9.25 9 9.25H3C2.86193 9.25 2.75 9.13807 2.75 9V3C2.75 2.86193 2.86193 2.75 3 2.75H9C9.13807 2.75 9.25 2.86193 9.25 3V9ZM8.75 15V12.75H11.25V15.25H9C8.86193 15.25 8.75 15.1381 8.75 15ZM12.75 11.25V8.75H15C15.1381 8.75 15.25 8.86193 15.25 9V11.25H12.75Z" fill="#545458" stroke="#1A1A1E" stroke-width="1.5"/>
</svg>
