<svg width="24" height="24" viewBox="0 0 24 24" fill="none" xmlns="http://www.w3.org/2000/svg">
<path d="M2.03125 2.96875C2.03125 2.41647 2.47897 1.96875 3.03125 1.96875H15.0312C15.5835 1.96875 16.0312 2.41647 16.0312 2.96875V14.9688C16.0312 15.521 15.5835 15.9688 15.0312 15.9688H3.03125C2.47897 15.9688 2.03125 15.521 2.03125 14.9688V2.96875Z" fill="#1A1A1E"/>
<path d="M8 18V20.9688C8 21.521 8.44772 21.9688 9 21.9688H21C21.5523 21.9688 22 21.521 22 20.9688V8.96875C22 8.41647 21.5523 7.96875 21 7.96875H18V9.96875H20V19.9688H10V18H8Z" fill="#1A1A1E"/>
</svg>
