<svg width="24" height="24" viewBox="0 0 24 24" fill="none" xmlns="http://www.w3.org/2000/svg">
<path d="M8 9.00049C8 8.4482 8.44772 8.00049 9 8.00049H15C15.5523 8.00049 16 8.4482 16 9.00049V15.0005C16 15.5528 15.5523 16.0005 15 16.0005H9C8.44772 16.0005 8 15.5528 8 15.0005V9.00049Z" fill="#1A1A1E"/>
<path d="M14 18.0005V21.0005C14 21.5528 14.4477 22.0005 15 22.0005H21C21.5523 22.0005 22 21.5528 22 21.0005V15.0005C22 14.4482 21.5523 14.0005 21 14.0005H18V16.0005H20V20.0005H16V18.0005H14Z" fill="#1A1A1E"/>
<path d="M10 6.00049V3.00049C10 2.4482 9.55228 2.00049 9 2.00049H3C2.44772 2.00049 2 2.4482 2 3.00049V9.00049C2 9.55277 2.44772 10.0005 3 10.0005H6V8.00049H4V4.00049H8V6.00049H10Z" fill="#1A1A1E"/>
</svg>
