<?xml version="1.0" encoding="UTF-8"?>
<svg width="53px" height="60px" viewBox="0 0 53 60" version="1.1" xmlns="http://www.w3.org/2000/svg" xmlns:xlink="http://www.w3.org/1999/xlink">
    <title>16</title>
    <g id="页面-1" stroke="none" stroke-width="1" fill="none" fill-rule="evenodd">
        <g id="6-基础形状1" transform="translate(-483.000000, -181.000000)" stroke="#545458">
            <path d="M509.241952,182.190772 L516.027223,197.282028 C516.176096,197.626587 516.426556,197.90448 516.733317,198.088537 C517.041894,198.273683 517.407441,198.363879 517.783866,198.331468 L534.159614,196.576924 L524.336212,209.908713 C524.102878,210.219824 523.986212,210.589268 523.986212,210.958713 C523.986212,211.328157 524.102878,211.697601 524.333684,212.005312 L534.160299,225.341432 L517.669476,223.587089 C517.318069,223.542601 516.970566,223.606257 516.6671,223.75799 C516.354033,223.914524 516.087834,224.164796 515.912573,224.486774 L509.230474,239.726648 L502.479731,224.712066 C502.441606,224.359855 502.236632,224.071087 501.901124,223.869782 C501.58815,223.681998 501.148925,223.579316 500.708154,223.583857 L484.312811,225.340501 L494.162929,211.972484 C494.514793,211.296636 494.514793,210.620789 494.162929,209.944941 L484.312125,196.575993 L500.802947,198.330336 C501.154354,198.374824 501.501858,198.311168 501.805323,198.159435 C502.118391,198.002901 502.384589,197.752629 502.559851,197.430651 L509.241952,182.190772 Z" id="16"></path>
        </g>
    </g>
</svg>
