<?xml version="1.0" encoding="UTF-8"?>
<svg width="61px" height="61px" viewBox="0 0 61 61" version="1.1" xmlns="http://www.w3.org/2000/svg" xmlns:xlink="http://www.w3.org/1999/xlink">
    <title>19</title>
    <g id="页面-1" stroke="none" stroke-width="1" fill="none" fill-rule="evenodd">
        <g id="6-基础形状1" transform="translate(-720.000000, -180.000000)" stroke="#545458">
            <path d="M771.728204,181.458666 C774.097395,181.490989 776.233734,182.46794 777.777735,184.026887 C779.321088,185.58518 780.272542,187.725031 780.272542,190.083713 L780.272542,231.833713 C780.272542,234.215203 779.303069,236.371144 777.735933,237.931774 C776.168043,239.493155 774.001974,240.458713 771.609504,240.458713 L729.692355,240.458713 C727.325842,240.392568 725.205026,239.386637 723.683785,237.8077 C722.161836,236.228028 721.240082,234.074765 721.273468,231.708713 L721.273423,189.965403 C721.304378,187.652267 722.249174,185.557442 723.766582,184.02505 C725.283248,182.493408 727.371912,181.523596 729.692357,181.458713 Z" id="19"></path>
        </g>
    </g>
</svg>
