<?xml version="1.0" encoding="UTF-8"?>
<svg width="61px" height="54px" viewBox="0 0 61 54" version="1.1" xmlns="http://www.w3.org/2000/svg" xmlns:xlink="http://www.w3.org/1999/xlink">
    <title>6</title>
    <g id="页面-1" stroke="none" stroke-width="1" fill="none" fill-rule="evenodd">
        <g id="6-基础形状1" transform="translate(-479.000000, -103.000000)" stroke="#545458">
            <path d="M523.067626,104.322948 C527.469598,104.441908 531.415546,106.318062 534.246421,109.265273 C537.078851,112.214105 538.794981,116.235172 538.734741,120.637301 C538.515533,130.830461 529.447513,142.294105 511.621555,154.764079 L511.070311,155.094826 L509.230092,156.353923 L507.309944,155.105827 L506.871695,154.777141 C488.605322,142.309633 479.630144,130.958167 479.739758,120.764119 C479.649114,116.341975 481.338348,112.308513 484.151475,109.340179 C486.962884,106.373657 490.896816,104.470963 495.299098,104.322933 C500.228499,104.325945 504.833499,106.794821 507.726395,110.75916 C508.080637,111.218478 508.615238,111.481196 509.18186,111.481196 C509.748483,111.481196 510.283084,111.218478 510.632133,110.766147 C513.633976,106.799426 518.133627,104.325045 523.067626,104.322948 Z" id="6"></path>
        </g>
    </g>
</svg>
