<svg width="62" height="10" viewBox="0 0 62 10" fill="none" xmlns="http://www.w3.org/2000/svg">
<g id="17">
<path id="&#232;&#183;&#175;&#229;&#190;&#132;" opacity="0.539458" fill-rule="evenodd" clip-rule="evenodd" d="M47.6667 1C48.8513 1 49.9157 1.51501 50.6482 2.33336L58.3333 2.33333C59.8061 2.33333 61 3.52724 61 5C61 6.47276 59.8061 7.66667 58.3333 7.66667L50.6479 7.66697C49.9155 8.48513 48.8512 9 47.6667 9C46.4821 9 45.4179 8.48513 44.6855 7.66697H7.9812C7.24878 8.48513 6.18452 9 5 9C2.79086 9 1 7.20914 1 5C1 2.79086 2.79086 1 5 1C6.18468 1 7.24907 1.51501 7.9815 2.33336H44.6852C45.4176 1.51501 46.482 1 47.6667 1Z" stroke="#1A1A1E"/>
<circle id="&#230;&#164;&#173;&#229;&#156;&#134;&#229;&#189;&#162;" opacity="0.539458" cx="10.3333" cy="4.99999" r="1.33333" stroke="#1A1A1E"/>
<circle id="&#230;&#164;&#173;&#229;&#156;&#134;&#229;&#189;&#162;_2" opacity="0.539458" cx="5.00004" cy="5.00001" r="2.66667" stroke="#1A1A1E"/>
<circle id="&#230;&#164;&#173;&#229;&#156;&#134;&#229;&#189;&#162;_3" opacity="0.539458" cx="15.6667" cy="4.99999" r="1.33333" stroke="#1A1A1E"/>
<circle id="&#230;&#164;&#173;&#229;&#156;&#134;&#229;&#189;&#162;_4" opacity="0.539458" cx="21" cy="4.99999" r="1.33333" stroke="#1A1A1E"/>
<circle id="&#230;&#164;&#173;&#229;&#156;&#134;&#229;&#189;&#162;_5" opacity="0.539458" cx="26.3333" cy="4.99999" r="1.33333" stroke="#1A1A1E"/>
<circle id="&#230;&#164;&#173;&#229;&#156;&#134;&#229;&#189;&#162;_6" opacity="0.539458" cx="37" cy="4.99999" r="1.33333" stroke="#1A1A1E"/>
<circle id="&#230;&#164;&#173;&#229;&#156;&#134;&#229;&#189;&#162;_7" opacity="0.539458" cx="31.6667" cy="4.99999" r="1.33333" stroke="#1A1A1E"/>
<circle id="&#230;&#164;&#173;&#229;&#156;&#134;&#229;&#189;&#162;_8" opacity="0.539458" cx="42.3333" cy="4.99999" r="1.33333" stroke="#1A1A1E"/>
<circle id="&#230;&#164;&#173;&#229;&#156;&#134;&#229;&#189;&#162;_9" opacity="0.539458" cx="53" cy="4.99999" r="1.33333" stroke="#1A1A1E"/>
<circle id="&#230;&#164;&#173;&#229;&#156;&#134;&#229;&#189;&#162;_10" opacity="0.539458" cx="47.6667" cy="5.00001" r="2.66667" stroke="#1A1A1E"/>
<circle id="&#230;&#164;&#173;&#229;&#156;&#134;&#229;&#189;&#162;_11" opacity="0.539458" cx="58.3333" cy="4.99999" r="1.33333" stroke="#1A1A1E"/>
</g>
</svg>
