<svg width="62" height="62" viewBox="0 0 62 62" fill="none" xmlns="http://www.w3.org/2000/svg">
<g id="30">
<path id="&#232;&#183;&#175;&#229;&#190;&#132;" opacity="0.539458" fill-rule="evenodd" clip-rule="evenodd" d="M7 1C10.3137 1 13 3.68629 13 7V46C13 47.6569 14.3431 49 16 49H55C58.3137 49 61 51.6863 61 55C61 58.3137 58.3137 61 55 61H7C3.68629 61 1 58.3137 1 55V7C1 3.68629 3.68629 1 7 1Z" stroke="#1A1A1E"/>
<circle id="&#230;&#164;&#173;&#229;&#156;&#134;&#229;&#189;&#162;" opacity="0.539458" cx="6.9813" cy="6.98125" r="3.05625" stroke="#1A1A1E"/>
<circle id="&#230;&#164;&#173;&#229;&#156;&#134;&#229;&#189;&#162;_2" opacity="0.539458" cx="7" cy="19" r="3" stroke="#1A1A1E"/>
<circle id="&#230;&#164;&#173;&#229;&#156;&#134;&#229;&#189;&#162;_3" opacity="0.539458" cx="7" cy="31" r="3" stroke="#1A1A1E"/>
<circle id="&#230;&#164;&#173;&#229;&#156;&#134;&#229;&#189;&#162;_4" opacity="0.539458" cx="7" cy="43" r="3" stroke="#1A1A1E"/>
<circle id="&#230;&#164;&#173;&#229;&#156;&#134;&#229;&#189;&#162;_5" opacity="0.539458" cx="7" cy="55" r="3" stroke="#1A1A1E"/>
<circle id="&#230;&#164;&#173;&#229;&#156;&#134;&#229;&#189;&#162;_6" opacity="0.539458" cx="19" cy="55" r="3" stroke="#1A1A1E"/>
<circle id="&#230;&#164;&#173;&#229;&#156;&#134;&#229;&#189;&#162;_7" opacity="0.539458" cx="31" cy="55" r="3" stroke="#1A1A1E"/>
<circle id="&#230;&#164;&#173;&#229;&#156;&#134;&#229;&#189;&#162;_8" opacity="0.539458" cx="43" cy="55" r="3" stroke="#1A1A1E"/>
<circle id="&#230;&#164;&#173;&#229;&#156;&#134;&#229;&#189;&#162;_9" opacity="0.539458" cx="55" cy="55" r="3" stroke="#1A1A1E"/>
</g>
</svg>
