<svg width="60" height="60" viewBox="0 0 60 60" fill="none" xmlns="http://www.w3.org/2000/svg">
<g id="37">
<path id="&#232;&#183;&#175;&#229;&#190;&#132;" opacity="0.539458" fill-rule="evenodd" clip-rule="evenodd" d="M29.6369 0.850625C29.7734 0.530917 30.2266 0.530943 30.363 0.850666L30.8648 2.02654C30.9948 2.33129 31.4198 2.34989 31.576 2.05767L32.1788 0.929813C32.3426 0.623239 32.7941 0.662798 32.9021 0.993196L33.2995 2.20858C33.4024 2.52353 33.8242 2.57911 34.0053 2.30159L34.7042 1.23028C34.8941 0.939158 35.3404 1.01788 35.4192 1.35642L35.7093 2.60197C35.7845 2.92469 36.1998 3.01677 36.4043 2.75607L37.1938 1.74981C37.4083 1.47633 37.8461 1.59362 37.8951 1.93774L38.0756 3.20352C38.1224 3.53154 38.5281 3.65946 38.7545 3.41761L39.6284 2.48433C39.866 2.23059 40.2919 2.38564 40.3107 2.73275L40.38 4.00934C40.398 4.3402 40.791 4.50304 41.0377 4.28186L41.99 3.42803C42.2489 3.196 42.6595 3.38755 42.6481 3.73495L42.6059 5.01316C42.595 5.34434 42.9723 5.54078 43.2374 5.3419L44.2603 4.57431C44.5383 4.36567 44.9308 4.59227 44.8891 4.93737L44.7358 6.20669C44.6961 6.53563 45.0548 6.76421 45.3362 6.58922L46.422 5.91384C46.7172 5.73025 47.0884 5.99021 47.0168 6.33035L46.7534 7.58156C46.6851 7.90579 47.0226 8.16477 47.3181 8.01496L48.4588 7.43677C48.7688 7.27961 49.116 7.57093 49.015 7.90354L48.6435 9.12716C48.5472 9.44421 48.8608 9.73162 49.1683 9.60813L50.355 9.13151C50.6775 9.00195 50.998 9.32243 50.8684 9.64498L50.3916 10.8314C50.2681 11.1388 50.5555 11.4525 50.8725 11.3563L52.0963 10.9849C52.4289 10.884 52.7202 11.2312 52.5629 11.5412L51.9846 12.6815C51.8347 12.977 52.0936 13.3146 52.4178 13.2464L53.6696 12.9831C54.0098 12.9115 54.2697 13.2827 54.086 13.5779L53.4106 14.6635C53.2355 14.9448 53.464 15.3036 53.793 15.2639L55.0627 15.1108C55.4078 15.0691 55.6343 15.4616 55.4257 15.7396L54.6581 16.7623C54.4592 17.0274 54.6556 17.4047 54.9868 17.3938L56.2649 17.3518C56.6123 17.3404 56.8038 17.7512 56.5717 18.0099L55.7179 18.9617C55.4967 19.2084 55.6594 19.6014 55.9903 19.6194L57.2673 19.6891C57.6144 19.708 57.7694 20.1338 57.5156 20.3714L56.5822 21.2452C56.3403 21.4716 56.4682 21.8773 56.7962 21.9241L58.0623 22.1048C58.4064 22.1539 58.5236 22.5916 58.2501 22.8062L57.244 23.5954C56.9832 23.7999 57.0753 24.2152 57.398 24.2904L58.6434 24.5806C58.982 24.6595 59.0606 25.1059 58.7694 25.2957L57.6982 25.9941C57.4207 26.1751 57.4761 26.5969 57.7911 26.7L59.0068 27.0977C59.3372 27.2058 59.3767 27.6573 59.0701 27.8211L57.9419 28.4237C57.6496 28.5798 57.6681 29.0049 57.9729 29.1349L59.1494 29.637C59.4691 29.7734 59.4691 30.2266 59.1494 30.3631L57.9734 30.8651C57.6687 30.9952 57.6501 31.4201 57.9424 31.5763L59.0701 32.1788C59.3767 32.3426 59.3372 32.7941 59.0068 32.9022L57.7911 33.2997C57.4762 33.4028 57.4206 33.8246 57.6982 34.0056L58.7695 34.7042C59.0606 34.8941 58.9819 35.3404 58.6434 35.4193L57.398 35.7093C57.0753 35.7845 56.9832 36.1998 57.2439 36.4043L58.2502 37.1937C58.5236 37.4083 58.4063 37.846 58.0622 37.8951L56.796 38.0756C56.4679 38.1224 56.34 38.5281 56.5819 38.7546L57.5155 39.6285C57.7693 39.8661 57.6143 40.292 57.2672 40.3108L55.9904 40.3803C55.6595 40.3983 55.4967 40.7913 55.7179 41.038L56.5717 41.99C56.8038 42.2488 56.6123 42.6595 56.2648 42.6481L54.9871 42.6059C54.656 42.595 54.4595 42.9723 54.6583 43.2373L55.4258 44.2602C55.6344 44.5383 55.4077 44.9307 55.0627 44.889L53.7928 44.7355C53.4638 44.6958 53.2352 45.0546 53.4103 45.3359L54.086 46.422C54.2696 46.7171 54.0097 47.0884 53.6695 47.0168L52.4182 46.7534C52.0939 46.6851 51.8349 47.0226 51.9848 47.3182L52.5631 48.4588C52.7203 48.7688 52.429 49.116 52.0964 49.015L50.8726 48.6435C50.5555 48.5472 50.2681 48.8609 50.3916 49.1683L50.8684 50.3549C50.998 50.6775 50.6775 50.998 50.3549 50.8684L49.1683 50.3916C48.8609 50.2681 48.5472 50.5555 48.6435 50.8726L49.0149 52.0962C49.1159 52.4289 48.7687 52.7202 48.4587 52.5629L47.3182 51.9845C47.0227 51.8347 46.6851 52.0936 46.7534 52.4179L47.0168 53.6695C47.0884 54.0096 46.7171 54.2696 46.422 54.0859L45.3362 53.4103C45.0549 53.2352 44.6961 53.4638 44.7358 53.7928L44.8891 55.0625C44.9308 55.4077 44.5383 55.6342 44.2603 55.4256L43.2374 54.6579C42.9724 54.4589 42.595 54.6554 42.6059 54.9866L42.6481 56.2649C42.6595 56.6124 42.2488 56.8039 41.99 56.5718L41.0377 55.7179C40.791 55.4967 40.398 55.6595 40.38 55.9904L40.3107 57.2671C40.2919 57.6143 39.866 57.7693 39.6284 57.5155L38.7543 56.5819C38.5278 56.34 38.1221 56.4679 38.0753 56.796L37.895 58.062C37.846 58.4061 37.4082 58.5235 37.1936 58.2499L36.4044 57.2437C36.1998 56.983 35.7845 57.075 35.7093 57.3978L35.4192 58.6433C35.3404 58.9819 34.8941 59.0606 34.7042 58.7694L34.0056 57.6982C33.8246 57.4206 33.4028 57.4762 33.2997 57.7911L32.9022 59.0067C32.7941 59.3371 32.3426 59.3766 32.1788 59.07L31.5763 57.9421C31.4201 57.6499 30.9951 57.6684 30.8651 57.9732L30.3631 59.1494C30.2266 59.4691 29.7734 59.4691 29.6369 59.1494L29.1349 57.9732C29.0049 57.6684 28.5799 57.6499 28.4237 57.9421L27.8212 59.07C27.6574 59.3766 27.2059 59.3371 27.0978 59.0067L26.7003 57.7911C26.5972 57.4762 26.1754 57.4206 25.9944 57.6982L25.2957 58.7696C25.1059 59.0607 24.6596 58.9821 24.5807 58.6435L24.2904 57.398C24.2152 57.0753 23.7999 56.9832 23.5954 57.244L22.8062 58.2501C22.5916 58.5236 22.1539 58.4064 22.1048 58.0623L21.9241 56.7959C21.8773 56.4679 21.4716 56.34 21.2451 56.5819L20.3714 57.5155C20.1339 57.7693 19.708 57.6143 19.6891 57.2672L19.6194 55.9903C19.6014 55.6595 19.2084 55.4967 18.9617 55.7179L18.0099 56.5717C17.7512 56.8038 17.3404 56.6123 17.3518 56.2649L17.3938 54.9868C17.4047 54.6556 17.0274 54.4592 16.7623 54.6581L15.7397 55.4256C15.4617 55.6343 15.0692 55.4077 15.1109 55.0626L15.2642 53.7928C15.3039 53.4638 14.9451 53.2352 14.6638 53.4103L13.5779 54.086C13.2828 54.2696 12.9115 54.0097 12.9831 53.6695L13.2464 52.4181C13.3146 52.0939 12.9771 51.8349 12.6816 51.9848L11.5412 52.5631C11.2311 52.7203 10.884 52.429 10.9849 52.0964L11.3563 50.8725C11.4525 50.5555 11.1388 50.2681 10.8314 50.3916L9.64498 50.8684C9.32243 50.998 9.00195 50.6775 9.13151 50.355L9.60813 49.1683C9.73162 48.8608 9.44421 48.5472 9.12715 48.6435L7.90353 49.015C7.57093 49.116 7.27961 48.7688 7.43677 48.4588L8.01496 47.3181C8.16477 47.0226 7.90579 46.6851 7.58156 46.7534L6.33035 47.0168C5.9902 47.0884 5.73026 46.7172 5.91384 46.422L6.58922 45.3362C6.76421 45.0548 6.53563 44.6961 6.20669 44.7358L4.93737 44.8891C4.59227 44.9308 4.36567 44.5383 4.57431 44.2603L5.3419 43.2374C5.54078 42.9723 5.34434 42.595 5.01316 42.6059L3.73495 42.6481C3.38755 42.6595 3.196 42.2489 3.42803 41.99L4.28186 41.0377C4.50304 40.791 4.3402 40.398 4.00934 40.38L2.73274 40.3107C2.38564 40.2919 2.23059 39.866 2.48433 39.6284L3.41787 38.7543C3.65974 38.5278 3.53178 38.1221 3.20374 38.0753L1.93783 37.895C1.59369 37.846 1.47635 37.4082 1.74983 37.1937L2.75583 36.4043C3.0165 36.1998 2.92441 35.7845 2.60171 35.7093L1.35638 35.4192C1.01785 35.3404 0.939133 34.8941 1.23025 34.7042L2.30159 34.0053C2.57911 33.8242 2.52353 33.4025 2.20858 33.2995L0.993197 32.9021C0.6628 32.7941 0.623238 32.3426 0.929812 32.1788L2.05767 31.576C2.34989 31.4198 2.33129 30.9948 2.02654 30.8648L0.850722 30.363C0.530991 30.2266 0.530976 29.7734 0.850699 29.6369L2.02683 29.1349C2.33159 29.0049 2.35014 28.5799 2.05788 28.4237L0.929809 27.8211C0.623219 27.6573 0.662688 27.2058 0.993049 27.0977L2.20867 26.7C2.52359 26.5969 2.57908 26.1751 2.30152 25.9942L1.23048 25.2957C0.9393 25.1059 1.01796 24.6595 1.3565 24.5807L2.60201 24.2904C2.92472 24.2152 3.01676 23.7999 2.75604 23.5954L1.74986 22.8062C1.47636 22.5916 1.5936 22.1539 1.93771 22.1048L3.20383 21.9241C3.53185 21.8773 3.65972 21.4716 3.41782 21.2452L2.48438 20.3714C2.2306 20.1338 2.38556 19.708 2.73265 19.6891L4.00943 19.6194C4.34027 19.6014 4.50303 19.2084 4.28182 18.9617L3.42818 18.0099C3.1961 17.7511 3.3876 17.3404 3.73501 17.3518L5.01294 17.3938C5.34409 17.4047 5.5405 17.0274 5.34164 16.7624L4.57426 15.7397C4.36564 15.4616 4.59223 15.0692 4.93732 15.1109L6.20696 15.2642C6.53592 15.3039 6.76449 14.9452 6.58946 14.6638L5.91391 13.5779C5.7303 13.2827 5.9902 12.9115 6.33035 12.9831L7.5816 13.2464C7.90583 13.3146 8.16477 12.9771 8.01495 12.6816L7.43678 11.5411C7.27961 11.2311 7.57088 10.884 7.90349 10.9849L9.1272 11.3563C9.44425 11.4525 9.73163 11.1389 9.60812 10.8314L9.13151 9.64494C9.00194 9.32239 9.32239 9.00194 9.64494 9.13151L10.8314 9.60812C11.1389 9.73163 11.4525 9.44425 11.3563 9.1272L10.9849 7.90349C10.884 7.57088 11.2311 7.27961 11.5411 7.43678L12.6816 8.01495C12.9771 8.16477 13.3146 7.90583 13.2464 7.5816L12.9831 6.3303C12.9115 5.99016 13.2827 5.73026 13.5779 5.91385L14.6636 6.5892C14.9449 6.76421 15.3036 6.53568 15.2639 6.20674L15.1108 4.9372C15.0691 4.59212 15.4616 4.36557 15.7396 4.57418L16.7624 5.34164C17.0274 5.5405 17.4047 5.34409 17.3938 5.01294L17.3518 3.73491C17.3404 3.38751 17.7511 3.19601 18.0099 3.42805L18.962 4.28184C19.2087 4.50304 19.6017 4.34023 19.6197 4.00939L19.6892 2.7327C19.708 2.3856 20.1339 2.2306 20.3715 2.48436L21.2452 3.41758C21.4716 3.65945 21.8773 3.53157 21.9241 3.20357L22.1048 1.93759C22.1539 1.5935 22.5916 1.47625 22.8061 1.74972L23.5954 2.7558C23.7999 3.01649 24.2152 2.92444 24.2904 2.60176L24.5806 1.35646C24.6595 1.01793 25.1058 0.939275 25.2957 1.23045L25.9942 2.30152C26.1751 2.57908 26.5969 2.52359 26.7 2.20867L27.0978 0.99298C27.2059 0.66263 27.6573 0.623148 27.8211 0.929719L28.4237 2.05763C28.5799 2.34987 29.0048 2.33132 29.1349 2.02658L29.6369 0.850625Z" stroke="#1A1A1E"/>
<circle id="&#230;&#164;&#173;&#229;&#156;&#134;&#229;&#189;&#162;" opacity="0.539458" cx="29.9999" cy="29.8026" r="3.15789" stroke="#1A1A1E" stroke-linejoin="round"/>
<circle id="&#230;&#164;&#173;&#229;&#156;&#134;&#229;&#189;&#162;_2" opacity="0.539458" cx="23.6842" cy="17.171" r="1.57895" stroke="#1A1A1E" stroke-linejoin="round"/>
<circle id="&#230;&#164;&#173;&#229;&#156;&#134;&#229;&#189;&#162;_3" opacity="0.539458" cx="30.0001" cy="17.171" r="1.57895" stroke="#1A1A1E" stroke-linejoin="round"/>
<circle id="&#230;&#164;&#173;&#229;&#156;&#134;&#229;&#189;&#162;_4" opacity="0.539458" cx="36.3158" cy="17.171" r="1.57895" stroke="#1A1A1E" stroke-linejoin="round"/>
<circle id="&#230;&#164;&#173;&#229;&#156;&#134;&#229;&#189;&#162;_5" opacity="0.539458" cx="23.6842" cy="42.4342" r="1.57895" stroke="#1A1A1E" stroke-linejoin="round"/>
<circle id="&#230;&#164;&#173;&#229;&#156;&#134;&#229;&#189;&#162;_6" opacity="0.539458" cx="30.0001" cy="42.4342" r="1.57895" stroke="#1A1A1E" stroke-linejoin="round"/>
<circle id="&#230;&#164;&#173;&#229;&#156;&#134;&#229;&#189;&#162;_7" opacity="0.539458" cx="36.3158" cy="42.4342" r="1.57895" stroke="#1A1A1E" stroke-linejoin="round"/>
<circle id="&#230;&#164;&#173;&#229;&#156;&#134;&#229;&#189;&#162;_8" opacity="0.539458" cx="17.3685" cy="23.4868" r="1.57895" stroke="#1A1A1E" stroke-linejoin="round"/>
<circle id="&#230;&#164;&#173;&#229;&#156;&#134;&#229;&#189;&#162;_9" opacity="0.539458" cx="23.6842" cy="23.4868" r="1.57895" stroke="#1A1A1E" stroke-linejoin="round"/>
<circle id="&#230;&#164;&#173;&#229;&#156;&#134;&#229;&#189;&#162;_10" opacity="0.539458" cx="17.3685" cy="29.8026" r="1.57895" stroke="#1A1A1E" stroke-linejoin="round"/>
<circle id="&#230;&#164;&#173;&#229;&#156;&#134;&#229;&#189;&#162;_11" opacity="0.539458" cx="23.6842" cy="29.8026" r="1.57895" stroke="#1A1A1E" stroke-linejoin="round"/>
<circle id="&#230;&#164;&#173;&#229;&#156;&#134;&#229;&#189;&#162;_12" opacity="0.539458" cx="36.3158" cy="29.8026" r="1.57895" stroke="#1A1A1E" stroke-linejoin="round"/>
<circle id="&#230;&#164;&#173;&#229;&#156;&#134;&#229;&#189;&#162;_13" opacity="0.539458" cx="42.6317" cy="29.8026" r="1.57895" stroke="#1A1A1E" stroke-linejoin="round"/>
<circle id="&#230;&#164;&#173;&#229;&#156;&#134;&#229;&#189;&#162;_14" opacity="0.539458" cx="30.0001" cy="23.4868" r="1.57895" stroke="#1A1A1E" stroke-linejoin="round"/>
<circle id="&#230;&#164;&#173;&#229;&#156;&#134;&#229;&#189;&#162;_15" opacity="0.539458" cx="36.3158" cy="23.4868" r="1.57895" stroke="#1A1A1E" stroke-linejoin="round"/>
<circle id="&#230;&#164;&#173;&#229;&#156;&#134;&#229;&#189;&#162;_16" opacity="0.539458" cx="42.6317" cy="23.4868" r="1.57895" stroke="#1A1A1E" stroke-linejoin="round"/>
<circle id="&#230;&#164;&#173;&#229;&#156;&#134;&#229;&#189;&#162;_17" opacity="0.539458" cx="17.3685" cy="36.1184" r="1.57895" stroke="#1A1A1E" stroke-linejoin="round"/>
<circle id="&#230;&#164;&#173;&#229;&#156;&#134;&#229;&#189;&#162;_18" opacity="0.539458" cx="23.6842" cy="36.1184" r="1.57895" stroke="#1A1A1E" stroke-linejoin="round"/>
<circle id="&#230;&#164;&#173;&#229;&#156;&#134;&#229;&#189;&#162;_19" opacity="0.539458" cx="30.0001" cy="36.1184" r="1.57895" stroke="#1A1A1E" stroke-linejoin="round"/>
<circle id="&#230;&#164;&#173;&#229;&#156;&#134;&#229;&#189;&#162;_20" opacity="0.539458" cx="36.3158" cy="36.1184" r="1.57895" stroke="#1A1A1E" stroke-linejoin="round"/>
<circle id="&#230;&#164;&#173;&#229;&#156;&#134;&#229;&#189;&#162;_21" opacity="0.539458" cx="42.6317" cy="36.1184" r="1.57895" stroke="#1A1A1E" stroke-linejoin="round"/>
</g>
</svg>
