<svg width="62" height="28" viewBox="0 0 62 28" fill="none" xmlns="http://www.w3.org/2000/svg">
<g id="46">
<rect id="&#231;&#159;&#169;&#229;&#189;&#162;" opacity="0.539458" x="1" y="1" width="60" height="25.7143" rx="12.8571" stroke="#1A1A1E"/>
<circle id="&#230;&#164;&#173;&#229;&#156;&#134;&#229;&#189;&#162;" opacity="0.539458" cx="13.8571" cy="13.8571" r="4.28571" stroke="#1A1A1E"/>
<circle id="&#230;&#164;&#173;&#229;&#156;&#134;&#229;&#189;&#162;_2" opacity="0.539458" cx="5.28568" cy="13.8196" r="2.14286" stroke="#1A1A1E"/>
<circle id="&#230;&#164;&#173;&#229;&#156;&#134;&#229;&#189;&#162;_3" opacity="0.539458" cx="13.8571" cy="5.28573" r="1.60714" transform="rotate(90 13.8571 5.28573)" stroke="#1A1A1E"/>
<circle id="&#230;&#164;&#173;&#229;&#156;&#134;&#229;&#189;&#162;_4" opacity="0.539458" cx="13.8571" cy="22.4286" r="1.60714" transform="rotate(90 13.8571 22.4286)" stroke="#1A1A1E"/>
<circle id="&#230;&#164;&#173;&#229;&#156;&#134;&#229;&#189;&#162;_5" opacity="0.539458" cx="7.80957" cy="7.76416" r="2.14286" transform="rotate(45 7.80957 7.76416)" stroke="#1A1A1E"/>
<circle id="&#230;&#164;&#173;&#229;&#156;&#134;&#229;&#189;&#162;_6" opacity="0.539458" cx="19.9048" cy="19.9125" r="2.14286" transform="rotate(45 19.9048 19.9125)" stroke="#1A1A1E"/>
<circle id="&#230;&#164;&#173;&#229;&#156;&#134;&#229;&#189;&#162;_7" opacity="0.539458" cx="2.14286" cy="2.14286" r="2.14286" transform="matrix(-0.707107 0.707107 0.707107 0.707107 19.9048 4.7337)" stroke="#1A1A1E"/>
<circle id="&#230;&#164;&#173;&#229;&#156;&#134;&#229;&#189;&#162;_8" opacity="0.539458" cx="2.14286" cy="2.14286" r="2.14286" transform="matrix(-0.707107 0.707107 0.707107 0.707107 7.80957 16.8821)" stroke="#1A1A1E"/>
<circle id="&#230;&#164;&#173;&#229;&#156;&#134;&#229;&#189;&#162;_9" opacity="0.539458" cx="48.1616" cy="13.8571" r="4.28571" transform="rotate(90 48.1616 13.8571)" stroke="#1A1A1E"/>
<circle id="&#230;&#164;&#173;&#229;&#156;&#134;&#229;&#189;&#162;_10" opacity="0.539458" cx="48.1616" cy="5.28574" r="2.14286" transform="rotate(90 48.1616 5.28574)" stroke="#1A1A1E"/>
<circle id="&#230;&#164;&#173;&#229;&#156;&#134;&#229;&#189;&#162;_11" opacity="0.539458" cx="48.1616" cy="22.4286" r="2.14286" transform="rotate(90 48.1616 22.4286)" stroke="#1A1A1E"/>
<circle id="&#230;&#164;&#173;&#229;&#156;&#134;&#229;&#189;&#162;_12" opacity="0.539458" cx="56.7332" cy="13.8572" r="1.60714" transform="rotate(180 56.7332 13.8572)" stroke="#1A1A1E"/>
<circle id="&#230;&#164;&#173;&#229;&#156;&#134;&#229;&#189;&#162;_13" opacity="0.539458" cx="39.5901" cy="13.8572" r="1.60714" transform="rotate(180 39.5901 13.8572)" stroke="#1A1A1E"/>
<circle id="&#230;&#164;&#173;&#229;&#156;&#134;&#229;&#189;&#162;_14" opacity="0.539458" cx="54.2547" cy="7.80951" r="2.14286" transform="rotate(135 54.2547 7.80951)" stroke="#1A1A1E"/>
<circle id="&#230;&#164;&#173;&#229;&#156;&#134;&#229;&#189;&#162;_15" opacity="0.539458" cx="42.1063" cy="19.9048" r="2.14286" transform="rotate(135 42.1063 19.9048)" stroke="#1A1A1E"/>
<circle id="&#230;&#164;&#173;&#229;&#156;&#134;&#229;&#189;&#162;_16" opacity="0.539458" cx="2.14286" cy="2.14286" r="2.14286" transform="matrix(0.707107 0.707107 0.707107 -0.707107 51.2241 19.9048)" stroke="#1A1A1E"/>
<circle id="&#230;&#164;&#173;&#229;&#156;&#134;&#229;&#189;&#162;_17" opacity="0.539458" cx="2.14286" cy="2.14286" r="2.14286" transform="matrix(0.707107 0.707107 0.707107 -0.707107 39.0757 7.80951)" stroke="#1A1A1E"/>
<circle id="&#230;&#164;&#173;&#229;&#156;&#134;&#229;&#189;&#162;_18" opacity="0.539458" cx="30.9999" cy="13.8571" r="4.28571" transform="rotate(90 30.9999 13.8571)" stroke="#1A1A1E"/>
<circle id="&#230;&#164;&#173;&#229;&#156;&#134;&#229;&#189;&#162;_19" opacity="0.539458" cx="31" cy="5.28574" r="2.14286" transform="rotate(90 31 5.28574)" stroke="#1A1A1E"/>
<circle id="&#230;&#164;&#173;&#229;&#156;&#134;&#229;&#189;&#162;_20" opacity="0.539458" cx="31" cy="22.4286" r="2.14286" transform="rotate(90 31 22.4286)" stroke="#1A1A1E"/>
<circle id="&#230;&#164;&#173;&#229;&#156;&#134;&#229;&#189;&#162;_21" opacity="0.539458" cx="22.4287" cy="13.8195" r="2.14286" transform="rotate(180 22.4287 13.8195)" stroke="#1A1A1E"/>
</g>
</svg>
