<svg width="60" height="60" viewBox="0 0 60 60" fill="none" xmlns="http://www.w3.org/2000/svg">
<g id="34">
<path id="&#232;&#183;&#175;&#229;&#190;&#132;" opacity="0.539458" fill-rule="evenodd" clip-rule="evenodd" d="M29.5401 1.07746C29.7129 0.672495 30.287 0.672527 30.4598 1.07751L30.7786 1.82461C30.9433 2.21063 31.4816 2.23419 31.6795 1.86404L32.0625 1.14732C32.2701 0.758992 32.8419 0.809103 32.9787 1.22761L33.2312 1.99988C33.3617 2.39881 33.8959 2.46921 34.1252 2.11769L34.5694 1.43682C34.81 1.06806 35.3753 1.16778 35.4752 1.5966L35.6595 2.38812C35.7547 2.79689 36.2808 2.91354 36.5399 2.58332L37.0416 1.94384C37.3133 1.59742 37.8678 1.74599 37.9299 2.18187L38.0446 2.98619C38.1039 3.40167 38.6177 3.56371 38.9046 3.25736L39.4599 2.66437C39.7608 2.34296 40.3002 2.53935 40.3241 2.97902L40.3681 3.7901C40.3909 4.20919 40.8886 4.41546 41.2011 4.1353L41.8064 3.59263C42.1343 3.29873 42.6545 3.54136 42.6399 3.9814L42.6132 4.79372C42.5993 5.2132 43.0773 5.46203 43.413 5.21012L44.063 4.72232C44.4152 4.45805 44.9123 4.74508 44.8595 5.1822L44.7621 5.98874C44.7118 6.4054 45.1662 6.69493 45.5226 6.47327L46.2126 6.04408C46.5865 5.81154 47.0567 6.14081 46.966 6.57166L46.7986 7.36672C46.7122 7.77741 47.1396 8.10545 47.514 7.9157L48.2388 7.54826C48.6316 7.3492 49.0712 7.7182 48.9433 8.1395L48.7073 8.91706C48.5853 9.31867 48.9826 9.68272 49.372 9.5263L50.1261 9.22343C50.5347 9.05932 50.9406 9.46527 50.7764 9.87383L50.4735 10.6276C50.317 11.0171 50.681 11.4144 51.0826 11.2925L51.8603 11.0566C52.2816 10.9287 52.6506 11.3685 52.4514 11.7612L52.0839 12.4857C51.894 12.86 52.222 13.2876 52.6327 13.2012L53.4283 13.0338C53.8592 12.9432 54.1884 13.4134 53.9558 13.7873L53.5265 14.4771C53.3048 14.8335 53.5943 15.2879 54.011 15.2377L54.8179 15.1403C55.255 15.0876 55.542 15.5847 55.2777 15.9368L54.7899 16.5867C54.538 16.9224 54.7867 17.4004 55.2062 17.3866L56.0184 17.3599C56.4585 17.3455 56.701 17.8657 56.407 18.1935L55.8645 18.7983C55.5843 19.1107 55.7905 19.6086 56.2095 19.6314L57.0211 19.6756C57.4607 19.6996 57.657 20.239 57.3356 20.5399L56.7425 21.0951C56.4361 21.3819 56.598 21.8958 57.0135 21.9551L57.8182 22.07C58.254 22.1322 58.4025 22.6866 58.0561 22.9584L57.4167 23.4599C57.0865 23.7189 57.2031 24.245 57.6118 24.3402L58.4032 24.5247C58.832 24.6246 58.9317 25.19 58.5628 25.4304L57.8822 25.8742C57.5306 26.1035 57.6009 26.6377 57.9998 26.7683L58.7724 27.021C59.1909 27.158 59.2409 27.7298 58.8525 27.9373L58.1356 28.3202C57.7653 28.518 57.7888 29.0564 58.1749 29.2211L58.9225 29.5402C59.3275 29.713 59.3275 30.2871 58.9226 30.4599L58.1753 30.7789C57.7893 30.9436 57.7658 31.482 58.136 31.6797L58.8526 32.0626C59.2409 32.2701 59.1909 32.842 58.7724 32.9788L57.9998 33.2315C57.6009 33.362 57.5306 33.8962 57.8821 34.1255L58.5628 34.5694C58.9317 34.81 58.832 35.3753 58.4031 35.4752L57.6119 35.6595C57.2031 35.7547 57.0865 36.2808 57.4167 36.5399L58.0561 37.0415C58.4025 37.3133 58.254 37.8678 57.8181 37.9299L57.0133 38.0446C56.5978 38.1039 56.4358 38.6178 56.7422 38.9046L57.3354 39.4599C57.6569 39.7609 57.4606 40.3003 57.0209 40.3242L56.2096 40.3684C55.7905 40.3912 55.5843 40.889 55.8645 41.2015L56.407 41.8064C56.701 42.1342 56.4584 42.6544 56.0183 42.6399L55.2065 42.6132C54.7871 42.5993 54.5382 43.0772 54.7901 43.4129L55.2778 44.063C55.542 44.4152 55.2549 44.9123 54.8178 44.8594L54.0108 44.7619C53.5941 44.7115 53.3046 45.166 53.5263 45.5224L53.9557 46.2126C54.1883 46.5864 53.859 47.0567 53.4282 46.966L52.633 46.7986C52.2223 46.7122 51.8943 47.1397 52.0841 47.514L52.4516 48.2388C52.6507 48.6315 52.2817 49.0712 51.8604 48.9433L51.0827 48.7072C50.6811 48.5853 50.317 48.9826 50.4735 49.3721L50.7764 50.126C50.9406 50.5346 50.5346 50.9406 50.126 50.7764L49.3721 50.4735C48.9826 50.317 48.5853 50.6811 48.7072 51.0827L48.9433 51.8602C49.0712 52.2816 48.6314 52.6505 48.2387 52.4514L47.514 52.0839C47.1397 51.894 46.7122 52.222 46.7986 52.6328L46.966 53.4281C47.0567 53.859 46.5864 54.1882 46.2126 53.9556L45.5227 53.5263C45.1663 53.3046 44.7118 53.5941 44.7621 54.0108L44.8596 54.8177C44.9123 55.2548 44.4152 55.5418 44.063 55.2775L43.413 54.7897C43.0773 54.5377 42.5993 54.7865 42.6132 55.206L42.6399 56.0185C42.6545 56.4585 42.1342 56.7011 41.8064 56.4072L41.2012 55.8645C40.8887 55.5843 40.3909 55.7906 40.3681 56.2097L40.3241 57.0208C40.3002 57.4605 39.7608 57.6569 39.4598 57.3355L38.9044 56.7422C38.6175 56.4358 38.1036 56.5979 38.0444 57.0134L37.9298 57.8177C37.8677 58.2537 37.3132 58.4023 37.0414 58.0558L36.5399 57.4165C36.2808 57.0862 35.7547 57.2029 35.6595 57.6117L35.4752 58.4031C35.3753 58.832 34.81 58.9316 34.5694 58.5628L34.1255 57.8821C33.8962 57.5306 33.362 57.6009 33.2315 57.9998L32.9789 58.7723C32.842 59.1908 32.2701 59.2408 32.0626 58.8525L31.6798 58.1358C31.482 57.7656 30.9436 57.7891 30.7789 58.1751L30.4599 58.9225C30.287 59.3275 29.713 59.3275 29.5401 58.9225L29.2211 58.1751C29.0564 57.7891 28.518 57.7656 28.3203 58.1358L27.9374 58.8525C27.7299 59.2408 27.158 59.1908 27.0211 58.7723L26.7685 57.9998C26.638 57.6009 26.1038 57.5306 25.8745 57.8821L25.4305 58.563C25.1899 58.9318 24.6246 58.8322 24.5247 58.4034L24.3402 57.6118C24.245 57.2031 23.7189 57.0865 23.4599 57.4167L22.9584 58.0561C22.6866 58.4025 22.1322 58.254 22.07 57.8181L21.9551 57.0133C21.8958 56.5978 21.3819 56.4358 21.0951 56.7423L20.5399 57.3354C20.2391 57.6569 19.6996 57.4606 19.6756 57.021L19.6314 56.2095C19.6086 55.7905 19.1107 55.5843 18.7983 55.8645L18.1935 56.407C17.8657 56.701 17.3455 56.4585 17.3599 56.0184L17.3866 55.2062C17.4004 54.7867 16.9224 54.538 16.5867 54.7899L15.937 55.2776C15.5848 55.5419 15.0877 55.2549 15.1404 54.8177L15.2379 54.0108C15.2882 53.5941 14.8337 53.3046 14.4773 53.5263L13.7873 53.9557C13.4135 54.1883 12.9432 53.8591 13.0339 53.4282L13.2012 52.633C13.2876 52.2223 12.8601 51.8943 12.4857 52.0841L11.7611 52.4516C11.3684 52.6507 10.9287 52.2818 11.0565 51.8604L11.2925 51.0826C11.4144 50.681 11.0171 50.317 10.6276 50.4735L9.87383 50.7764C9.46527 50.9406 9.05932 50.5347 9.22343 50.1261L9.5263 49.372C9.68272 48.9826 9.31867 48.5853 8.91706 48.7073L8.1395 48.9433C7.7182 49.0712 7.3492 48.6316 7.54826 48.2388L7.9157 47.514C8.10545 47.1396 7.77741 46.7122 7.36672 46.7986L6.57165 46.966C6.14081 47.0567 5.81154 46.5865 6.04408 46.2126L6.47327 45.5226C6.69493 45.1662 6.4054 44.7118 5.98874 44.7621L5.1822 44.8595C4.74508 44.9123 4.45805 44.4152 4.72232 44.063L5.21012 43.413C5.46203 43.0773 5.2132 42.5993 4.79372 42.6132L3.9814 42.6399C3.54136 42.6545 3.29873 42.1343 3.59263 41.8064L4.1353 41.2011C4.41546 40.8886 4.20919 40.3909 3.7901 40.3681L2.97901 40.3241C2.53935 40.3002 2.34295 39.7608 2.66435 39.4599L3.2576 38.9043C3.56397 38.6175 3.40188 38.1036 2.98636 38.0444L2.18199 37.9298C1.74609 37.8677 1.59746 37.3132 1.94386 37.0414L2.58311 36.5398C2.91329 36.2808 2.79664 35.7547 2.38789 35.6595L1.59655 35.4752C1.16774 35.3753 1.06803 34.81 1.43678 34.5695L2.11769 34.1252C2.46921 33.8959 2.39881 33.3617 1.99988 33.2312L1.22761 32.9787C0.809103 32.8419 0.758993 32.2701 1.14732 32.0625L1.86404 31.6795C2.23419 31.4816 2.21063 30.9433 1.82461 30.7786L1.07758 30.4598C0.672587 30.287 0.672569 29.7129 1.07755 29.5401L1.82488 29.2211C2.21091 29.0564 2.23441 28.518 1.86421 28.3202L1.14732 27.9373C0.75897 27.7298 0.808964 27.158 1.22742 27.021L1.99999 26.7683C2.39889 26.6377 2.46917 26.1035 2.1176 25.8742L1.43707 25.4305C1.06824 25.1899 1.16788 24.6246 1.5967 24.5247L2.38817 24.3402C2.79693 24.245 2.91352 23.7189 2.58328 23.4599L1.94389 22.9584C1.59746 22.6866 1.74596 22.1322 2.18184 22.07L2.98648 21.9551C3.40197 21.8958 3.56394 21.3819 3.25754 21.0951L2.66442 20.5399C2.34297 20.239 2.53925 19.6996 2.97889 19.6756L3.79023 19.6314C4.20929 19.6086 4.41545 19.1108 4.13524 18.7983L3.59282 18.1935C3.29886 17.8657 3.54142 17.3455 3.98147 17.3599L4.79353 17.3866C5.21299 17.4004 5.46177 16.9225 5.20989 16.5868L4.72226 15.9369C4.45801 15.5848 4.74503 15.0877 5.18214 15.1404L5.98898 15.2379C6.40566 15.2882 6.69519 14.8337 6.47348 14.4774L6.04416 13.7873C5.81159 13.4134 6.14081 12.9432 6.57166 13.0339L7.36678 13.2012C7.77747 13.2876 8.10546 12.8601 7.91569 12.4858L7.54828 11.7611C7.3492 11.3684 7.71814 10.9287 8.13944 11.0565L8.91712 11.2925C9.31872 11.4144 9.68273 11.0171 9.52629 10.6277L9.22344 9.87378C9.05932 9.46521 9.46521 9.05932 9.87378 9.22344L10.6277 9.52629C11.0171 9.68273 11.4144 9.31872 11.2925 8.91712L11.0565 8.13944C10.9287 7.71814 11.3684 7.3492 11.761 7.54828L12.4858 7.91569C12.8601 8.10546 13.2876 7.77747 13.2012 7.36678L13.0339 6.5716C12.9432 6.14075 13.4134 5.81154 13.7872 6.04409L14.4772 6.47325C14.8335 6.69492 15.2879 6.40545 15.2376 5.9888L15.1403 5.18199C15.0876 4.74489 15.5846 4.45792 15.9368 4.72216L16.5868 5.20989C16.9225 5.46177 17.4004 5.21299 17.3866 4.79353L17.3599 3.98134C17.3455 3.54131 17.8657 3.29874 18.1934 3.59266L18.7986 4.13527C19.1111 4.41546 19.6088 4.20924 19.6316 3.79016L19.6758 2.97896C19.6997 2.5393 20.2391 2.34297 20.54 2.6644L21.0951 3.25733C21.382 3.56369 21.8958 3.40172 21.9551 2.98625L22.07 2.18169C22.1322 1.74584 22.6866 1.59732 22.9583 1.94372L23.4599 2.58307C23.7189 2.91327 24.245 2.79668 24.3402 2.38795L24.5247 1.59665C24.6246 1.16783 25.1899 1.06821 25.4304 1.43703L25.8742 2.1176C26.1035 2.46917 26.6377 2.39889 26.7683 1.99999L27.0211 1.22733C27.158 0.80889 27.7298 0.75888 27.9373 1.1472L28.3203 1.86399C28.518 2.23416 29.0564 2.21066 29.2211 1.82466L29.5401 1.07746Z" stroke="#1A1A1E"/>
<path id="&#232;&#183;&#175;&#229;&#190;&#132;_2" opacity="0.539458" fill-rule="evenodd" clip-rule="evenodd" d="M32.6005 4.12844C42.3048 5.09213 50.4393 11.3916 54.0287 20.0515C54.1475 20.3382 54.269 20.676 54.3894 21.0424C55.2029 23.5171 53.2195 25.9434 50.6145 25.9435V25.9435C46.4482 25.9436 38.1157 25.9437 38.1157 25.9437L36.9933 25.8039C35.224 25.5834 33.6481 24.5866 32.6903 23.0898L32.5996 22.9434L31.6667 22.9439C31.3208 23.5414 30.6746 23.9434 29.9346 23.9434C28.83 23.9434 27.9346 23.0479 27.9346 21.9434C27.9346 20.8388 28.83 19.9434 29.9346 19.9434C30.6748 19.9434 31.3212 20.3455 31.667 20.9433L32.5996 20.9434L32.6001 14.9434L31.6667 14.9439C31.3208 15.5414 30.6746 15.9434 29.9346 15.9434C28.83 15.9434 27.9346 15.0479 27.9346 13.9434C27.9346 12.8388 28.83 11.9434 29.9346 11.9434C30.6748 11.9434 31.3212 12.3455 31.667 12.9433L32.6001 12.9434V6.94337L31.6667 6.94392C31.3208 7.54142 30.6746 7.94337 29.9346 7.94337C28.83 7.94337 27.9346 7.04794 27.9346 5.94337C27.9346 5.01122 28.5723 4.22802 29.4352 4.00622C30.1103 3.83268 32.6005 4.12844 32.6005 4.12844Z" stroke="#1A1A1E" stroke-linejoin="round"/>
<path id="&#232;&#183;&#175;&#229;&#190;&#132;_3" opacity="0.539458" fill-rule="evenodd" clip-rule="evenodd" d="M4.18468 27.0269C5.14837 17.3226 11.4479 9.1881 20.1077 5.59868C20.3944 5.47986 20.7322 5.35842 21.0986 5.23796C23.5733 4.42448 25.9997 6.40796 25.9997 9.01291V9.01291C25.9998 13.1792 26 21.5117 26 21.5117L25.8601 22.6341C25.6397 24.4034 24.6428 25.9793 23.146 26.9371L22.9996 27.0278L23.0002 27.9607C23.5977 28.3066 23.9996 28.9528 23.9996 29.6928C23.9996 30.7974 23.1042 31.6928 21.9996 31.6928C20.895 31.6928 19.9996 30.7974 19.9996 29.6928C19.9996 28.9526 20.4018 28.3063 20.9996 27.9604L20.9996 27.0278L14.9996 27.0273L15.0002 27.9607C15.5977 28.3066 15.9996 28.9528 15.9996 29.6928C15.9996 30.7974 15.1042 31.6928 13.9996 31.6928C12.895 31.6928 11.9996 30.7974 11.9996 29.6928C11.9996 28.9526 12.4018 28.3063 12.9996 27.9604L12.9996 27.0273H6.99961L7.00017 27.9607C7.59766 28.3066 7.99961 28.9528 7.99961 29.6928C7.99961 30.7974 7.10418 31.6928 5.99961 31.6928C5.06747 31.6928 4.28427 31.0551 4.06246 30.1922C3.88893 29.5171 4.18468 27.0269 4.18468 27.0269Z" stroke="#1A1A1E" stroke-linejoin="round"/>
<path id="&#232;&#183;&#175;&#229;&#190;&#132;_4" opacity="0.539458" fill-rule="evenodd" clip-rule="evenodd" d="M55.8153 32.4751C54.8516 42.1794 48.5521 50.314 39.8923 53.9034C39.6056 54.0222 39.2678 54.1437 38.9014 54.2641C36.4267 55.0776 34.0003 53.0941 34.0003 50.4892V50.4892C34.0002 46.3229 34 37.9903 34 37.9903L34.1399 36.868C34.3603 35.0987 35.3572 33.5228 36.854 32.565L37.0004 32.4742L36.9998 31.5413C36.4023 31.1955 36.0004 30.5493 36.0004 29.8092C36.0004 28.7047 36.8958 27.8092 38.0004 27.8092C39.105 27.8092 40.0004 28.7047 40.0004 29.8092C40.0004 30.5495 39.5982 31.1958 39.0004 31.5416L39.0004 32.4742L45.0004 32.4747L44.9998 31.5413C44.4023 31.1955 44.0004 30.5493 44.0004 29.8092C44.0004 28.7047 44.8958 27.8092 46.0004 27.8092C47.105 27.8092 48.0004 28.7047 48.0004 29.8092C48.0004 30.5495 47.5982 31.1958 47.0004 31.5416L47.0004 32.4747H53.0004L52.9998 31.5413C52.4023 31.1955 52.0004 30.5493 52.0004 29.8092C52.0004 28.7047 52.8958 27.8092 54.0004 27.8092C54.9325 27.8092 55.7157 28.4469 55.9375 29.3099C56.1111 29.985 55.8153 32.4751 55.8153 32.4751Z" stroke="#1A1A1E" stroke-linejoin="round"/>
<path id="&#232;&#183;&#175;&#229;&#190;&#132;_5" opacity="0.539458" fill-rule="evenodd" clip-rule="evenodd" d="M27.1849 55.7586C17.4806 54.795 9.34609 48.4955 5.75667 39.8356C5.63785 39.5489 5.51641 39.2111 5.39595 38.8447C4.58247 36.37 6.56595 33.9437 9.1709 33.9436V33.9436C13.3372 33.9435 21.6697 33.9434 21.6697 33.9434L22.7921 34.0832C24.5614 34.3037 26.1373 35.3005 27.0951 36.7973L27.1858 36.9437L28.1187 36.9432C28.4646 36.3457 29.1108 35.9437 29.8508 35.9437C30.9554 35.9437 31.8508 36.8391 31.8508 37.9437C31.8508 39.0483 30.9554 39.9437 29.8508 39.9437C29.1106 39.9437 28.4642 39.5415 28.1184 38.9438L27.1858 38.9437L27.1853 44.9437L28.1187 44.9432C28.4646 44.3457 29.1108 43.9437 29.8508 43.9437C30.9554 43.9437 31.8508 44.8391 31.8508 45.9437C31.8508 47.0483 30.9554 47.9437 29.8508 47.9437C29.1106 47.9437 28.4642 47.5415 28.1184 46.9438L27.1853 46.9437V52.9437L28.1187 52.9432C28.4646 52.3457 29.1108 51.9437 29.8508 51.9437C30.9554 51.9437 31.8508 52.8391 31.8508 53.9437C31.8508 54.8759 31.2131 55.6591 30.3502 55.8809C29.6751 56.0544 27.1849 55.7586 27.1849 55.7586Z" stroke="#1A1A1E" stroke-linejoin="round"/>
<circle id="&#230;&#164;&#173;&#229;&#156;&#134;&#229;&#189;&#162;" opacity="0.539458" cx="30" cy="29.9434" r="4" stroke="#1A1A1E" stroke-linejoin="round"/>
</g>
</svg>
