<svg width="62" height="62" viewBox="0 0 62 62" fill="none" xmlns="http://www.w3.org/2000/svg">
<g id="41">
<path id="&#232;&#183;&#175;&#229;&#190;&#132;" opacity="0.539458" fill-rule="evenodd" clip-rule="evenodd" d="M33.8327 27.9987C34.6294 28.7508 35.1266 29.8169 35.1266 30.999C35.1266 32.1812 34.6294 33.2472 33.8327 33.9994H28.1691C27.3724 33.2472 26.8752 32.1812 26.8752 30.999C26.8752 29.8169 27.3724 28.7508 28.1691 27.9987H33.8327Z" stroke="#1A1A1E" stroke-linejoin="round"/>
<circle id="&#230;&#164;&#173;&#229;&#156;&#134;&#229;&#189;&#162;" opacity="0.539458" cx="30.9856" cy="6.78253" r="3.00049" stroke="#1A1A1E" stroke-linejoin="round"/>
<circle id="&#230;&#164;&#173;&#229;&#156;&#134;&#229;&#189;&#162;_2" opacity="0.539458" cx="30.9856" cy="54.7903" r="3.00049" stroke="#1A1A1E" stroke-linejoin="round"/>
<circle id="&#230;&#164;&#173;&#229;&#156;&#134;&#229;&#189;&#162;_3" opacity="0.539458" cx="18.9836" cy="18.7845" r="3.00049" stroke="#1A1A1E" stroke-linejoin="round"/>
<circle id="&#230;&#164;&#173;&#229;&#156;&#134;&#229;&#189;&#162;_4" opacity="0.539458" cx="30.9856" cy="18.7845" r="3.00049" stroke="#1A1A1E" stroke-linejoin="round"/>
<circle id="&#230;&#164;&#173;&#229;&#156;&#134;&#229;&#189;&#162;_5" opacity="0.539458" cx="42.9875" cy="18.7845" r="3.00049" stroke="#1A1A1E" stroke-linejoin="round"/>
<circle id="&#230;&#164;&#173;&#229;&#156;&#134;&#229;&#189;&#162;_6" opacity="0.539458" cx="6.98169" cy="30.7864" r="3.00049" stroke="#1A1A1E" stroke-linejoin="round"/>
<circle id="&#230;&#164;&#173;&#229;&#156;&#134;&#229;&#189;&#162;_7" opacity="0.539458" cx="18.9836" cy="30.7864" r="3.00049" stroke="#1A1A1E" stroke-linejoin="round"/>
<circle id="&#230;&#164;&#173;&#229;&#156;&#134;&#229;&#189;&#162;_8" opacity="0.539458" cx="42.9875" cy="30.7864" r="3.00049" stroke="#1A1A1E" stroke-linejoin="round"/>
<circle id="&#230;&#164;&#173;&#229;&#156;&#134;&#229;&#189;&#162;_9" opacity="0.539458" cx="54.9895" cy="30.7864" r="3.00049" stroke="#1A1A1E" stroke-linejoin="round"/>
<circle id="&#230;&#164;&#173;&#229;&#156;&#134;&#229;&#189;&#162;_10" opacity="0.539458" cx="18.9836" cy="42.7884" r="3.00049" stroke="#1A1A1E" stroke-linejoin="round"/>
<circle id="&#230;&#164;&#173;&#229;&#156;&#134;&#229;&#189;&#162;_11" opacity="0.539458" cx="30.9856" cy="42.7884" r="3.00049" stroke="#1A1A1E" stroke-linejoin="round"/>
<circle id="&#230;&#164;&#173;&#229;&#156;&#134;&#229;&#189;&#162;_12" opacity="0.539458" cx="42.9875" cy="42.7884" r="3.00049" stroke="#1A1A1E" stroke-linejoin="round"/>
<path id="&#232;&#183;&#175;&#229;&#190;&#132;_2" opacity="0.539458" fill-rule="evenodd" clip-rule="evenodd" d="M31.7405 1.24345C31.8018 1.09743 31.9482 1.00565 32.1063 1.01412L33.1473 1.06988C33.3052 1.07834 33.4408 1.18488 33.4864 1.33627L33.8062 2.39841C33.849 2.54055 33.9717 2.64407 34.119 2.66245L34.9982 2.7721C35.146 2.79053 35.2907 2.71975 35.3669 2.59174L35.932 1.64223C36.0131 1.50594 36.1712 1.43541 36.3268 1.46606L37.3277 1.66322C37.4827 1.69375 37.6019 1.81809 37.6259 1.9742L37.7947 3.07207C37.8173 3.21872 37.9242 3.3383 38.0674 3.37708L38.8612 3.59207C39.005 3.63103 39.1583 3.58113 39.2516 3.46495L39.9438 2.6033C40.0432 2.47966 40.2095 2.43186 40.3593 2.4839L41.33 2.82111C41.4791 2.87293 41.5798 3.0126 41.5819 3.17047L41.5965 4.28185C41.5985 4.43016 41.6876 4.56339 41.824 4.62174L42.5707 4.94122C42.7077 4.99986 42.8665 4.97178 42.9751 4.86968L43.7803 4.1128C43.8958 4.00417 44.0672 3.97997 44.2083 4.05236L45.1296 4.52497C45.2701 4.59703 45.3504 4.74935 45.3305 4.90598L45.1903 6.00871C45.1716 6.15569 45.2412 6.2999 45.3679 6.37672L46.1301 6.83884C46.2578 6.91624 46.4192 6.91057 46.5411 6.82439L47.4411 6.18821C47.5708 6.09649 47.7443 6.09648 47.874 6.18818L48.7058 6.77601C48.8345 6.867 48.8926 7.02876 48.8512 7.18086L48.5588 8.25454C48.5198 8.3975 48.5687 8.54999 48.6835 8.64367L49.321 9.16401C49.4367 9.25841 49.5973 9.27522 49.73 9.20682L50.7105 8.7014C50.8516 8.62867 51.0232 8.65264 51.1389 8.76123L51.8896 9.46535C52.0047 9.57335 52.0399 9.74188 51.9776 9.88693L51.5392 10.9075C51.4806 11.0439 51.508 11.202 51.6089 11.3107L52.1612 11.9056C52.2626 12.0148 52.4191 12.0536 52.5598 12.0045L53.6034 11.64C53.753 11.5877 53.9193 11.6351 54.0189 11.7584L54.6697 12.5642C54.7691 12.6873 54.7806 12.8594 54.6985 12.9946L54.1229 13.9424C54.0459 14.0693 54.0509 14.2297 54.1358 14.3515L54.6471 15.0851C54.7322 15.2073 54.8816 15.2676 55.0277 15.2386L56.1117 15.0236C56.2672 14.9928 56.4253 15.0631 56.5066 15.1992L57.0259 16.0684C57.1068 16.204 57.0942 16.3757 56.9943 16.498L56.2916 17.3584C56.1978 17.4733 56.1805 17.6327 56.2475 17.7651L56.6233 18.5073C56.6907 18.6403 56.8304 18.7208 56.9792 18.7123L58.0823 18.6496C58.2406 18.6405 58.3875 18.7321 58.4492 18.8783L58.8451 19.8172C58.9065 19.9627 58.8701 20.1311 58.7542 20.2383L57.9385 20.993C57.8296 21.0937 57.7903 21.2492 57.8382 21.3895L58.1045 22.1692C58.1526 22.3103 58.2798 22.4094 58.4284 22.4217L59.5292 22.5129C59.6873 22.526 59.8201 22.6372 59.8607 22.7906L60.1238 23.7828C60.1643 23.9355 60.1048 24.0972 59.975 24.1872L59.0618 24.8204C58.94 24.9048 58.8794 25.053 58.907 25.1986L59.0754 26.0852C59.1033 26.2318 59.2155 26.348 59.3611 26.381L60.4357 26.6243C60.5907 26.6594 60.7068 26.7884 60.7254 26.9462L60.8436 27.9493C60.862 28.1058 60.7807 28.2571 60.6399 28.3281L59.6461 28.829C59.5138 28.8957 59.4331 29.034 59.4403 29.182L59.4803 30.0128C59.4875 30.1619 59.5824 30.2925 59.7219 30.3455L60.7529 30.7364C60.9011 30.7926 60.998 30.9359 60.9949 31.0943L60.9753 32.1159C60.9722 32.2739 60.8705 32.4131 60.7208 32.4638L59.6701 32.8204C59.5295 32.8682 59.4302 32.9944 59.4171 33.1423L59.3442 33.9613C59.331 34.1097 59.4068 34.2518 59.5374 34.3234L60.5072 34.8552C60.6461 34.9314 60.7222 35.0867 60.6973 35.2431L60.5359 36.2558C60.511 36.4119 60.3909 36.5357 60.2355 36.5652L59.1456 36.7723C58.9998 36.7999 58.8841 36.911 58.8503 37.0555L58.6444 37.9378C58.6105 38.0829 58.6657 38.2343 58.7851 38.3235L59.6696 38.9845C59.7967 39.0795 59.8503 39.2442 59.8034 39.3958L59.5066 40.3546C59.4599 40.5053 59.324 40.6107 59.1664 40.6183L58.0552 40.6721C57.9072 40.6793 57.7773 40.7729 57.7237 40.911L57.4196 41.6941C57.3656 41.8332 57.3992 41.9911 57.5052 42.0962L58.2887 42.8731C58.4014 42.9849 58.4315 43.1556 58.3639 43.2992L57.9317 44.2171C57.8645 44.3598 57.7152 44.4452 57.5582 44.4308L56.4501 44.3293C56.3026 44.3158 56.1609 44.3905 56.0886 44.5198L55.6849 45.2416C55.6121 45.3718 55.6234 45.5329 55.7137 45.6517L56.3817 46.5302C56.4777 46.6565 56.4838 46.8297 56.397 46.9625L55.8361 47.82C55.7497 47.9521 55.5898 48.016 55.4362 47.9798L54.3543 47.7249C54.2101 47.6909 54.0594 47.745 53.9697 47.8629L53.4225 48.5827C53.3321 48.7015 53.3208 48.8626 53.3937 48.9929L53.932 49.9547C54.0095 50.0933 53.9914 50.2658 53.8866 50.3852L53.2215 51.1435C53.1176 51.262 52.9506 51.3029 52.8036 51.2457L51.7669 50.8427C51.6287 50.789 51.4719 50.8216 51.3668 50.926L50.7751 51.5133C50.6691 51.6184 50.6356 51.7763 50.6897 51.9154L51.0897 52.9437C51.1472 53.0916 51.1055 53.2597 50.9854 53.3634L50.2142 54.0299C50.0948 54.1331 49.9237 54.1505 49.7859 54.0735L48.8159 53.5311C48.6864 53.4587 48.5265 53.4694 48.4078 53.5584L47.7493 54.0523C47.6301 54.1417 47.5751 54.2931 47.6092 54.4382L47.8623 55.5145C47.8986 55.6688 47.834 55.8292 47.701 55.9152L46.8415 56.4715C46.7087 56.5574 46.5364 56.5508 46.4106 56.4551L45.5278 55.7832C45.4097 55.6933 45.2497 55.6815 45.1197 55.7531L44.3249 56.1908C44.1943 56.2627 44.1187 56.4051 44.1323 56.5536L44.2332 57.6525C44.2477 57.8106 44.1611 57.9607 44.017 58.0273L43.1051 58.4486C42.9619 58.5147 42.7926 58.4842 42.6815 58.3722L41.898 57.5824C41.7937 57.4772 41.6372 57.4433 41.4987 57.4959L40.7136 57.7938C40.5741 57.8467 40.4792 57.9774 40.4721 58.1265L40.4193 59.2283C40.4117 59.3869 40.305 59.5236 40.1529 59.5694L39.1815 59.8623C39.0305 59.9078 38.8672 59.8541 38.7728 59.7278L38.1062 58.8361C38.0175 58.7175 37.8673 58.6622 37.7229 58.6949L36.9181 58.8772C36.7726 58.9102 36.6604 59.0263 36.6325 59.1729L36.4263 60.2569C36.3967 60.4129 36.272 60.5332 36.1151 60.5575L35.1013 60.7139C34.9455 60.738 34.7912 60.662 34.7153 60.5237L34.18 59.5482C34.1088 59.4184 33.9679 59.3427 33.8204 59.3548L32.9223 59.4289C32.7734 59.4412 32.646 59.5407 32.598 59.6822L32.2445 60.7248C32.1934 60.8753 32.053 60.9773 31.8941 60.9794L30.8814 60.9924C30.7238 60.9944 30.5817 60.8976 30.5258 60.7502L30.1318 59.7103C30.0792 59.5716 29.95 59.4769 29.8019 59.4687L28.9731 59.4225C28.8241 59.4142 28.6844 59.4949 28.6173 59.6281L28.1202 60.6142C28.0488 60.7558 27.8961 60.8372 27.7387 60.8175L26.7246 60.6905C26.5679 60.6709 26.4403 60.5552 26.4054 60.4011L26.1604 59.318C26.1276 59.1733 26.0126 59.0615 25.867 59.0328L25.0622 58.8745C24.916 58.8457 24.7667 58.9062 24.6817 59.0286L24.0515 59.9368C23.9611 60.0671 23.7985 60.1264 23.6455 60.085L22.6532 59.8168C22.5007 59.7756 22.3903 59.6432 22.3773 59.4857L22.2854 58.3785C22.2731 58.2308 22.175 58.1042 22.0351 58.0553L21.1835 57.7583C21.0426 57.7091 20.8859 57.7482 20.7846 57.8578L20.0363 58.6671C19.9284 58.7838 19.7586 58.8198 19.6126 58.757L18.6851 58.3578C18.5404 58.2955 18.45 58.1495 18.4589 57.9922L18.5216 56.8797C18.53 56.7319 18.4506 56.5931 18.3191 56.5253L17.5823 56.1452C17.4496 56.0767 17.2889 56.0935 17.1732 56.188L16.3194 56.8852C16.1964 56.9857 16.0233 56.9977 15.8875 56.9153L15.0117 56.3834C14.877 56.3016 14.8078 56.1444 14.8384 55.9898L15.0553 54.8976C15.0842 54.7524 15.0248 54.6037 14.9039 54.5183L14.2396 54.0489C14.1177 53.9628 13.9563 53.9571 13.8287 54.0345L12.8853 54.6067C12.7496 54.6891 12.5768 54.677 12.4538 54.5767L11.6502 53.9213C11.5279 53.8216 11.4811 53.6561 11.5331 53.5071L11.8995 52.4571C11.9483 52.3172 11.9103 52.1618 11.8024 52.0603L11.1545 51.451C11.0457 51.3487 10.8866 51.3206 10.7494 51.3796L9.73712 51.8147C9.59115 51.8774 9.42149 51.8414 9.31362 51.7247L8.62134 50.976C8.51436 50.8603 8.49111 50.6901 8.56313 50.55L9.07199 49.5598C9.13968 49.428 9.12352 49.2688 9.03073 49.1534L8.5174 48.5147C8.42393 48.3984 8.27042 48.3486 8.12647 48.3878L7.06129 48.678C6.90823 48.7197 6.74548 48.6606 6.65486 48.5304L6.06617 47.6846C5.97597 47.555 5.97659 47.3828 6.06771 47.2539L6.70888 46.3467C6.79453 46.2255 6.80067 46.0652 6.72456 45.9378L6.30894 45.2423C6.23249 45.1143 6.08754 45.0438 5.93968 45.0626L4.84312 45.202C4.68585 45.222 4.53299 45.1409 4.4613 44.9995L3.99244 44.0746C3.92103 43.9338 3.94551 43.7633 4.05366 43.6482L4.81485 42.8383C4.91632 42.7303 4.94472 42.5727 4.88732 42.4361L4.54219 41.6148C4.48441 41.4773 4.35065 41.3871 4.20151 41.3851L3.09835 41.3701C2.93954 41.3679 2.7993 41.266 2.74827 41.1156L2.42159 40.1527C2.37096 40.0034 2.41903 39.8384 2.5419 39.7397L3.41039 39.0422C3.5258 38.9495 3.57589 38.7976 3.53827 38.6544L3.32973 37.8609C3.29177 37.7165 3.17173 37.6083 3.02414 37.5856L1.93448 37.4176C1.77745 37.3933 1.65271 37.2728 1.62313 37.1167L1.43105 36.103C1.40171 35.9482 1.47228 35.7915 1.60767 35.7109L2.56473 35.141C2.69195 35.0653 2.7627 34.9218 2.74532 34.7747L2.65084 33.9755C2.63331 33.8272 2.52947 33.7034 2.38647 33.6604L1.3303 33.3425C1.17828 33.2967 1.07154 33.1602 1.06379 33.0016L1.01282 31.959C1.00512 31.8014 1.09677 31.6559 1.24216 31.5949L2.42202 31.0991C2.46466 31.0812 2.49233 31.0394 2.49216 30.9932V30.9932L2.51549 29.946C2.51882 29.7967 2.43324 29.6596 2.29762 29.597L1.29583 29.135C1.15174 29.0685 1.06507 28.9185 1.07939 28.7605L1.17199 27.7391C1.18624 27.5819 1.29734 27.4505 1.44993 27.4102L2.52479 27.1269C2.6682 27.0891 2.77587 26.9704 2.79948 26.824L2.92919 26.0198C2.95294 25.8725 2.88716 25.7251 2.76166 25.6445L1.83274 25.0476C1.69924 24.9618 1.63417 24.8013 1.67026 24.6468L1.90549 23.6397C1.9414 23.486 2.06973 23.3712 2.2265 23.3526L3.33047 23.2215C3.47772 23.204 3.60085 23.1014 3.6446 22.9597L3.8822 22.1902C3.92619 22.0478 3.88162 21.8928 3.76868 21.7955L2.93171 21.0742C2.81153 20.9706 2.76951 20.8026 2.82678 20.6547L3.20277 19.6833C3.25975 19.5361 3.40282 19.4403 3.56065 19.4437L4.67257 19.4677C4.82064 19.4709 4.95672 19.3867 5.0199 19.2527L5.39682 18.4535C5.46048 18.3185 5.43805 18.1587 5.3397 18.0464L4.6132 17.2172C4.50849 17.0976 4.49045 16.9251 4.56819 16.7865L5.06942 15.8929C5.14649 15.7555 5.30122 15.6809 5.45672 15.7062L6.55632 15.8849C6.70244 15.9086 6.84886 15.8442 6.93008 15.7205L7.37544 15.0417C7.45737 14.9168 7.45742 14.7553 7.37556 14.6304L6.77109 13.708C6.68405 13.5752 6.69008 13.4019 6.78616 13.2755L7.41438 12.4487C7.50978 12.3232 7.67352 12.2707 7.82412 12.3174L8.88671 12.647C9.02829 12.6909 9.18245 12.6473 9.28007 12.5357L9.80606 11.9347C9.9043 11.8224 9.92667 11.6626 9.86305 11.5277L9.39198 10.5288C9.32434 10.3853 9.35423 10.2148 9.46663 10.103L10.2091 9.36399C10.321 9.2526 10.4907 9.22323 10.6335 9.29052L11.6386 9.76403C11.7727 9.82722 11.9314 9.80548 12.0436 9.70856L12.7078 9.13469C12.8207 9.03721 12.8651 8.88214 12.8209 8.73973L12.4937 7.68549C12.4467 7.53395 12.5002 7.3692 12.6272 7.2741L13.4495 6.65844C13.5758 6.56391 13.7477 6.55848 13.8797 6.64486L14.8102 7.25389C14.9343 7.33508 15.0945 7.33558 15.219 7.25518L15.9017 6.81444C16.027 6.73354 16.0925 6.58607 16.0685 6.43887L15.8904 5.34891C15.8648 5.19235 15.9405 5.03662 16.0794 4.96001L16.9864 4.4598C17.1247 4.38355 17.2959 4.40206 17.4147 4.5061L18.2505 5.2383C18.3621 5.33606 18.5209 5.35885 18.6555 5.29642L19.385 4.9581C19.5201 4.89542 19.6054 4.75867 19.6021 4.60971L19.5781 3.50412C19.5747 3.34563 19.6713 3.20209 19.8194 3.14557L20.7908 2.77485C20.9383 2.71856 21.1052 2.76067 21.2084 2.88019L21.935 3.72199C22.0318 3.83411 22.1855 3.87878 22.3273 3.83599L23.1756 3.58003C23.3184 3.53695 23.422 3.41338 23.4397 3.26529L23.5701 2.16965C23.5889 2.01195 23.7049 1.88316 23.8599 1.84815L24.857 1.62281C25.0108 1.58807 25.1698 1.65314 25.2551 1.78567L25.8578 2.72221C25.938 2.84671 26.0838 2.91242 26.2302 2.88994L27.0369 2.76601C27.1845 2.74334 27.3046 2.63524 27.3427 2.49081L27.6235 1.42457C27.6639 1.27098 27.7967 1.15952 27.955 1.14631L28.9857 1.06029C29.1428 1.04718 29.2914 1.13371 29.3575 1.27683L29.8238 2.28692C29.886 2.42153 30.0216 2.50689 30.1698 2.50472L30.972 2.49298C31.121 2.4908 31.2546 2.40058 31.3123 2.26315L31.7405 1.24345Z" stroke="#1A1A1E" stroke-linejoin="round"/>
</g>
</svg>
