<svg width="62" height="38" viewBox="0 0 62 38" fill="none" xmlns="http://www.w3.org/2000/svg">
<g id="21">
<rect id="&#231;&#159;&#169;&#229;&#189;&#162;" opacity="0.539458" x="1" y="1" width="60" height="36" rx="3" stroke="#1A1A1E"/>
<circle id="&#230;&#164;&#173;&#229;&#156;&#134;&#229;&#189;&#162;" opacity="0.539458" cx="7" cy="7" r="3" stroke="#1A1A1E"/>
<circle id="&#230;&#164;&#173;&#229;&#156;&#134;&#229;&#189;&#162;_2" opacity="0.539458" cx="7" cy="19" r="3" stroke="#1A1A1E"/>
<circle id="&#230;&#164;&#173;&#229;&#156;&#134;&#229;&#189;&#162;_3" opacity="0.539458" cx="55" cy="19" r="3" stroke="#1A1A1E"/>
<circle id="&#230;&#164;&#173;&#229;&#156;&#134;&#229;&#189;&#162;_4" opacity="0.539458" cx="19" cy="7" r="3" stroke="#1A1A1E"/>
<circle id="&#230;&#164;&#173;&#229;&#156;&#134;&#229;&#189;&#162;_5" opacity="0.539458" cx="31" cy="7" r="3" stroke="#1A1A1E"/>
<circle id="&#230;&#164;&#173;&#229;&#156;&#134;&#229;&#189;&#162;_6" opacity="0.539458" cx="43" cy="7" r="3" stroke="#1A1A1E"/>
<circle id="&#230;&#164;&#173;&#229;&#156;&#134;&#229;&#189;&#162;_7" opacity="0.539458" cx="55" cy="7" r="3" stroke="#1A1A1E"/>
<circle id="&#230;&#164;&#173;&#229;&#156;&#134;&#229;&#189;&#162;_8" opacity="0.539458" cx="7" cy="31" r="3" stroke="#1A1A1E"/>
<circle id="&#230;&#164;&#173;&#229;&#156;&#134;&#229;&#189;&#162;_9" opacity="0.539458" cx="19" cy="31" r="3" stroke="#1A1A1E"/>
<circle id="&#230;&#164;&#173;&#229;&#156;&#134;&#229;&#189;&#162;_10" opacity="0.539458" cx="31" cy="31" r="3" stroke="#1A1A1E"/>
<circle id="&#230;&#164;&#173;&#229;&#156;&#134;&#229;&#189;&#162;_11" opacity="0.539458" cx="43" cy="31" r="3" stroke="#1A1A1E"/>
<circle id="&#230;&#164;&#173;&#229;&#156;&#134;&#229;&#189;&#162;_12" opacity="0.539458" cx="55" cy="31" r="3" stroke="#1A1A1E"/>
<path id="&#232;&#183;&#175;&#229;&#190;&#132;" opacity="0.539458" fill-rule="evenodd" clip-rule="evenodd" d="M43 13C46.3137 13 49 15.6863 49 19C49 22.3137 46.3137 25 43 25C40.7795 25 38.8407 23.7938 37.8032 22.0009H24.1968C23.1593 23.7938 21.2205 25 19 25C15.6863 25 13 22.3137 13 19C13 15.6863 15.6863 13 19 13C21.2208 13 23.1598 14.2065 24.1972 15.9999H37.8028C38.8402 14.2065 40.7792 13 43 13Z" stroke="#1A1A1E"/>
</g>
</svg>
