<svg width="62" height="48" viewBox="0 0 62 48" fill="none" xmlns="http://www.w3.org/2000/svg">
<g id="31">
<path id="&#232;&#183;&#175;&#229;&#190;&#132;" opacity="0.539458" fill-rule="evenodd" clip-rule="evenodd" d="M20.8868 1.94493L32.7579 22.5069C33.3485 23.5298 34.4399 24.16 35.6211 24.16L59.1108 24.1602C60.1542 24.1602 61 25.006 61 26.0494V44.9416C61 45.985 60.1542 46.8309 59.1108 46.8309L23.4335 46.8306L22.4379 46.8307C21.1789 46.8308 20.0292 46.1159 19.4724 44.9868L18.9646 43.9571L1.25342 13.2802C0.731729 12.3766 1.04133 11.2212 1.94493 10.6995L18.306 1.25342C19.2096 0.731729 20.3651 1.04133 20.8868 1.94493Z" stroke="#1A1A1E"/>
<circle id="&#230;&#164;&#173;&#229;&#156;&#134;&#229;&#189;&#162;" opacity="0.539458" cx="49.6646" cy="27.9387" r="1.88922" stroke="#1A1A1E"/>
<circle id="&#230;&#164;&#173;&#229;&#156;&#134;&#229;&#189;&#162;_2" opacity="0.539458" cx="57.3426" cy="27.9387" r="1.88922" stroke="#1A1A1E"/>
<circle id="&#230;&#164;&#173;&#229;&#156;&#134;&#229;&#189;&#162;_3" opacity="0.539458" cx="57.3426" cy="35.4955" r="1.88922" stroke="#1A1A1E"/>
<circle id="&#230;&#164;&#173;&#229;&#156;&#134;&#229;&#189;&#162;_4" opacity="0.539458" cx="57.3426" cy="43.0524" r="1.88922" stroke="#1A1A1E"/>
<circle id="&#230;&#164;&#173;&#229;&#156;&#134;&#229;&#189;&#162;_5" opacity="0.539458" cx="49.7684" cy="43.0524" r="1.88922" stroke="#1A1A1E"/>
<circle id="&#230;&#164;&#173;&#229;&#156;&#134;&#229;&#189;&#162;_6" opacity="0.539458" cx="42.1944" cy="43.0524" r="1.88922" stroke="#1A1A1E"/>
<circle id="&#230;&#164;&#173;&#229;&#156;&#134;&#229;&#189;&#162;_7" opacity="0.539458" cx="34.6202" cy="43.0524" r="1.88922" stroke="#1A1A1E"/>
<circle id="&#230;&#164;&#173;&#229;&#156;&#134;&#229;&#189;&#162;_8" opacity="0.539458" cx="27.1497" cy="35.4955" r="1.88922" stroke="#1A1A1E"/>
<circle id="&#230;&#164;&#173;&#229;&#156;&#134;&#229;&#189;&#162;_9" opacity="0.539458" cx="34.6202" cy="35.4955" r="1.88922" stroke="#1A1A1E"/>
<circle id="&#230;&#164;&#173;&#229;&#156;&#134;&#229;&#189;&#162;_10" opacity="0.539458" cx="42.1944" cy="35.4955" r="1.88922" stroke="#1A1A1E"/>
<circle id="&#230;&#164;&#173;&#229;&#156;&#134;&#229;&#189;&#162;_11" opacity="0.539458" cx="49.6647" cy="35.4955" r="3.77844" stroke="#1A1A1E"/>
<circle id="&#230;&#164;&#173;&#229;&#156;&#134;&#229;&#189;&#162;_12" opacity="0.539458" cx="42.1944" cy="27.9387" r="1.88922" stroke="#1A1A1E"/>
<circle id="&#230;&#164;&#173;&#229;&#156;&#134;&#229;&#189;&#162;_13" opacity="0.539458" cx="9.24863" cy="19.5716" r="1.88922" transform="rotate(-120 9.24863 19.5716)" stroke="#1A1A1E"/>
<circle id="&#230;&#164;&#173;&#229;&#156;&#134;&#229;&#189;&#162;_14" opacity="0.539458" cx="5.40976" cy="12.9223" r="1.88922" transform="rotate(-120 5.40976 12.9223)" stroke="#1A1A1E"/>
<circle id="&#230;&#164;&#173;&#229;&#156;&#134;&#229;&#189;&#162;_15" opacity="0.539458" cx="11.9542" cy="9.14385" r="1.88922" transform="rotate(-120 11.9542 9.14385)" stroke="#1A1A1E"/>
<circle id="&#230;&#164;&#173;&#229;&#156;&#134;&#229;&#189;&#162;_16" opacity="0.539458" cx="18.4986" cy="5.36541" r="1.88922" transform="rotate(-120 18.4986 5.36541)" stroke="#1A1A1E"/>
<circle id="&#230;&#164;&#173;&#229;&#156;&#134;&#229;&#189;&#162;_17" opacity="0.539458" cx="22.2857" cy="11.9248" r="1.88922" transform="rotate(-120 22.2857 11.9248)" stroke="#1A1A1E"/>
<circle id="&#230;&#164;&#173;&#229;&#156;&#134;&#229;&#189;&#162;_18" opacity="0.539458" cx="26.0728" cy="18.4843" r="1.88922" transform="rotate(-120 26.0728 18.4843)" stroke="#1A1A1E"/>
<circle id="&#230;&#164;&#173;&#229;&#156;&#134;&#229;&#189;&#162;_19" opacity="0.539458" cx="23.3155" cy="28.8221" r="1.88922" transform="rotate(-120 23.3155 28.8221)" stroke="#1A1A1E"/>
<circle id="&#230;&#164;&#173;&#229;&#156;&#134;&#229;&#189;&#162;_20" opacity="0.539458" cx="16.6095" cy="32.711" r="1.88922" transform="rotate(-120 16.6095 32.711)" stroke="#1A1A1E"/>
<circle id="&#230;&#164;&#173;&#229;&#156;&#134;&#229;&#189;&#162;_21" opacity="0.539458" cx="19.5284" cy="22.2627" r="1.88922" transform="rotate(-120 19.5284 22.2627)" stroke="#1A1A1E"/>
<circle id="&#230;&#164;&#173;&#229;&#156;&#134;&#229;&#189;&#162;_22" opacity="0.539458" cx="15.7932" cy="15.7931" r="3.77844" transform="rotate(-120 15.7932 15.7931)" stroke="#1A1A1E"/>
<circle id="&#230;&#164;&#173;&#229;&#156;&#134;&#229;&#189;&#162;_23" opacity="0.539458" cx="12.984" cy="26.0411" r="1.88922" transform="rotate(-120 12.984 26.0411)" stroke="#1A1A1E"/>
<path id="&#232;&#183;&#175;&#229;&#190;&#132;_2" opacity="0.539458" fill-rule="evenodd" clip-rule="evenodd" d="M28.741 23.3554C29.6342 22.8844 30.7332 23.2003 31.2442 24.0577L31.2934 24.1452C31.9503 25.3909 33.1464 26.0812 35.1008 26.1616C36.1433 26.2044 36.9537 27.0843 36.9108 28.1268C36.868 29.1693 35.9886 29.972 34.9456 29.9368C31.7171 29.8279 29.2646 28.3983 27.9512 25.9077C27.4645 24.9848 27.8181 23.842 28.741 23.3554Z" stroke="#1A1A1E"/>
<path id="&#232;&#183;&#175;&#229;&#190;&#132;_3" opacity="0.539458" fill-rule="evenodd" clip-rule="evenodd" d="M19.4411 37.578C20.3122 37.0036 21.484 37.2441 22.0584 38.1151C23.2758 39.9611 25.284 41.1499 27.5161 41.2962C28.5572 41.3644 29.346 42.2637 29.2778 43.3049C29.2096 44.346 28.3102 45.1347 27.2691 45.0665C23.8456 44.8423 20.7666 43.0196 18.9041 40.1952C18.3297 39.3242 18.5701 38.1524 19.4411 37.578Z" stroke="#1A1A1E"/>
</g>
</svg>
