<svg width="62" height="62" viewBox="0 0 62 62" fill="none" xmlns="http://www.w3.org/2000/svg">
<g id="43">
<circle id="&#230;&#164;&#173;&#229;&#156;&#134;&#229;&#189;&#162;" opacity="0.539458" cx="31" cy="31" r="30" stroke="#1A1A1E"/>
<circle id="&#230;&#164;&#173;&#229;&#156;&#134;&#229;&#189;&#162;_2" opacity="0.539458" cx="24.3333" cy="5.99998" r="1.66667" stroke="#1A1A1E"/>
<circle id="&#230;&#164;&#173;&#229;&#156;&#134;&#229;&#189;&#162;_3" opacity="0.539458" cx="12.75" cy="12.6667" r="1.66667" stroke="#1A1A1E"/>
<circle id="&#230;&#164;&#173;&#229;&#156;&#134;&#229;&#189;&#162;_4" opacity="0.539458" cx="6.0673" cy="24.3395" r="1.66667" stroke="#1A1A1E"/>
<circle id="&#230;&#164;&#173;&#229;&#156;&#134;&#229;&#189;&#162;_5" opacity="0.539458" cx="6.0673" cy="37.6122" r="1.66667" stroke="#1A1A1E"/>
<circle id="&#230;&#164;&#173;&#229;&#156;&#134;&#229;&#189;&#162;_6" opacity="0.539458" cx="12.75" cy="49.1429" r="1.66667" stroke="#1A1A1E"/>
<circle id="&#230;&#164;&#173;&#229;&#156;&#134;&#229;&#189;&#162;_7" opacity="0.539458" cx="24.3333" cy="55.8782" r="1.66667" stroke="#1A1A1E"/>
<circle id="&#230;&#164;&#173;&#229;&#156;&#134;&#229;&#189;&#162;_8" opacity="0.539458" cx="37.6667" cy="55.8782" r="1.66667" stroke="#1A1A1E"/>
<circle id="&#230;&#164;&#173;&#229;&#156;&#134;&#229;&#189;&#162;_9" opacity="0.539458" cx="49.1791" cy="49.1429" r="1.66667" stroke="#1A1A1E"/>
<circle id="&#230;&#164;&#173;&#229;&#156;&#134;&#229;&#189;&#162;_10" opacity="0.539458" cx="55.8584" cy="37.6122" r="1.66667" stroke="#1A1A1E"/>
<circle id="&#230;&#164;&#173;&#229;&#156;&#134;&#229;&#189;&#162;_11" opacity="0.539458" cx="55.8584" cy="24.3395" r="1.66667" stroke="#1A1A1E"/>
<circle id="&#230;&#164;&#173;&#229;&#156;&#134;&#229;&#189;&#162;_12" opacity="0.539458" cx="49.1791" cy="12.6667" r="1.66667" stroke="#1A1A1E"/>
<circle id="&#230;&#164;&#173;&#229;&#156;&#134;&#229;&#189;&#162;_13" opacity="0.539458" cx="31" cy="17.5834" r="1.66667" stroke="#1A1A1E"/>
<circle id="&#230;&#164;&#173;&#229;&#156;&#134;&#229;&#189;&#162;_14" opacity="0.539458" cx="25.2083" cy="20.6667" r="1.66667" stroke="#1A1A1E"/>
<circle id="&#230;&#164;&#173;&#229;&#156;&#134;&#229;&#189;&#162;_15" opacity="0.539458" cx="36.7917" cy="20.9167" r="1.66667" stroke="#1A1A1E"/>
<circle id="&#230;&#164;&#173;&#229;&#156;&#134;&#229;&#189;&#162;_16" opacity="0.539458" cx="19.4583" cy="24.3334" r="1.66667" stroke="#1A1A1E"/>
<circle id="&#230;&#164;&#173;&#229;&#156;&#134;&#229;&#189;&#162;_17" opacity="0.539458" cx="19.4583" cy="31" r="1.66667" stroke="#1A1A1E"/>
<circle id="&#230;&#164;&#173;&#229;&#156;&#134;&#229;&#189;&#162;_18" opacity="0.539458" cx="23.9166" cy="31" r="1.25" stroke="#1A1A1E"/>
<circle id="&#230;&#164;&#173;&#229;&#156;&#134;&#229;&#189;&#162;_19" opacity="0.539458" cx="38.0834" cy="31.0061" r="1.25" stroke="#1A1A1E"/>
<circle id="&#230;&#164;&#173;&#229;&#156;&#134;&#229;&#189;&#162;_20" opacity="0.539458" cx="18.0834" cy="18.0833" r="1.25" stroke="#1A1A1E"/>
<circle id="&#230;&#164;&#173;&#229;&#156;&#134;&#229;&#189;&#162;_21" opacity="0.539458" cx="43.9166" cy="18.0833" r="1.25" stroke="#1A1A1E"/>
<circle id="&#230;&#164;&#173;&#229;&#156;&#134;&#229;&#189;&#162;_22" opacity="0.539458" cx="18.0834" cy="43.9167" r="1.25" stroke="#1A1A1E"/>
<circle id="&#230;&#164;&#173;&#229;&#156;&#134;&#229;&#189;&#162;_23" opacity="0.539458" cx="43.9166" cy="43.9167" r="1.25" stroke="#1A1A1E"/>
<circle id="&#230;&#164;&#173;&#229;&#156;&#134;&#229;&#189;&#162;_24" opacity="0.539458" cx="19.4583" cy="37.6667" r="1.66667" stroke="#1A1A1E"/>
<circle id="&#230;&#164;&#173;&#229;&#156;&#134;&#229;&#189;&#162;_25" opacity="0.539458" cx="42.5417" cy="24.3395" r="1.66667" stroke="#1A1A1E"/>
<circle id="&#230;&#164;&#173;&#229;&#156;&#134;&#229;&#189;&#162;_26" opacity="0.539458" cx="42.5417" cy="31.0061" r="1.66667" stroke="#1A1A1E"/>
<circle id="&#230;&#164;&#173;&#229;&#156;&#134;&#229;&#189;&#162;_27" opacity="0.539458" cx="42.5417" cy="37.6728" r="1.66667" stroke="#1A1A1E"/>
<circle id="&#230;&#164;&#173;&#229;&#156;&#134;&#229;&#189;&#162;_28" opacity="0.539458" cx="25.1667" cy="40.75" r="1.66667" stroke="#1A1A1E"/>
<circle id="&#230;&#164;&#173;&#229;&#156;&#134;&#229;&#189;&#162;_29" opacity="0.539458" cx="36.7917" cy="40.75" r="1.66667" stroke="#1A1A1E"/>
<circle id="&#230;&#164;&#173;&#229;&#156;&#134;&#229;&#189;&#162;_30" opacity="0.539458" cx="31" cy="24.3334" r="1.66667" stroke="#1A1A1E"/>
<circle id="&#230;&#164;&#173;&#229;&#156;&#134;&#229;&#189;&#162;_31" opacity="0.539458" cx="31" cy="31" r="3.33333" stroke="#1A1A1E"/>
<circle id="&#230;&#164;&#173;&#229;&#156;&#134;&#229;&#189;&#162;_32" opacity="0.539458" cx="31" cy="37.625" r="1.66667" stroke="#1A1A1E"/>
<circle id="&#230;&#164;&#173;&#229;&#156;&#134;&#229;&#189;&#162;_33" opacity="0.539458" cx="31" cy="44.3334" r="1.66667" stroke="#1A1A1E"/>
<circle id="&#230;&#164;&#173;&#229;&#156;&#134;&#229;&#189;&#162;_34" opacity="0.539458" cx="37.6667" cy="5.99998" r="1.66667" stroke="#1A1A1E"/>
<path id="&#232;&#183;&#175;&#229;&#190;&#132;" opacity="0.539458" fill-rule="evenodd" clip-rule="evenodd" d="M20.8763 48.3287C21.2738 47.4985 22.2691 47.1478 23.0993 47.5454C25.5459 48.717 28.231 49.3333 31.007 49.3333C33.7797 49.3333 36.4617 48.7185 38.906 47.5496C39.7364 47.1524 40.7315 47.5037 41.1286 48.3341C41.5257 49.1645 41.1745 50.1596 40.3441 50.5567C37.4531 51.9392 34.2801 52.6667 31.007 52.6667C27.73 52.6667 24.5533 51.9375 21.6596 50.5518C20.8294 50.1542 20.4787 49.1589 20.8763 48.3287Z" stroke="#1A1A1E"/>
<path id="&#232;&#183;&#175;&#229;&#190;&#132;_2" opacity="0.539458" fill-rule="evenodd" clip-rule="evenodd" d="M48.3358 20.8692C49.1659 20.4717 50.1612 20.8224 50.5588 21.6526C51.9445 24.5462 52.6737 27.723 52.6737 31C52.6737 34.277 51.9445 37.4537 50.5588 40.3474C50.1612 41.1776 49.1659 41.5283 48.3358 41.1307C47.5056 40.7332 47.1548 39.7379 47.5524 38.9077C48.724 36.4611 49.3404 33.776 49.3404 31C49.3404 28.224 48.724 25.5389 47.5524 23.0923C47.1548 22.2621 47.5056 21.2668 48.3358 20.8692Z" stroke="#1A1A1E"/>
<path id="&#232;&#183;&#175;&#229;&#190;&#132;_3" opacity="0.539458" fill-rule="evenodd" clip-rule="evenodd" d="M11.4503 21.6629C11.8474 20.8325 12.8425 20.4813 13.6729 20.8784C14.5033 21.2755 14.8546 22.2706 14.4574 23.101C13.2885 25.5453 12.6737 28.2273 12.6737 31C12.6737 33.7727 13.2885 36.4547 14.4574 38.8989C14.8546 39.7293 14.5033 40.7244 13.6729 41.1216C12.8425 41.5187 11.8474 41.1674 11.4503 40.337C10.0678 37.4461 9.34033 34.273 9.34033 31C9.34033 27.7269 10.0678 24.5538 11.4503 21.6629Z" stroke="#1A1A1E"/>
<path id="&#232;&#183;&#175;&#229;&#190;&#132;_4" opacity="0.539458" fill-rule="evenodd" clip-rule="evenodd" d="M31.007 9.33331C34.2801 9.33331 37.4531 10.0607 40.3441 11.4433C41.1745 11.8404 41.5257 12.8355 41.1286 13.6659C40.7315 14.4963 39.7364 14.8475 38.906 14.4504C36.4617 13.2815 33.7797 12.6666 31.007 12.6666C28.231 12.6666 25.5459 13.283 23.0993 14.4546C22.2691 14.8522 21.2738 14.5014 20.8763 13.6713C20.4787 12.8411 20.8294 11.8458 21.6596 11.4482C24.5533 10.0625 27.73 9.33331 31.007 9.33331Z" stroke="#1A1A1E"/>
</g>
</svg>
