<?xml version="1.0" encoding="UTF-8"?>
<svg width="61px" height="43px" viewBox="0 0 61 43" version="1.1" xmlns="http://www.w3.org/2000/svg" xmlns:xlink="http://www.w3.org/1999/xlink">
    <title>18</title>
    <g id="页面-1" stroke="none" stroke-width="1" fill="none" fill-rule="evenodd">
        <g id="花环" transform="translate(-640.000000, -246.000000)" fill="#545458">
            <path d="M691.430153,246.159955 L695.065338,249.795401 C695.300536,248.54092 695.384766,247.111802 694.825527,246.290389 L695.479698,246.944561 C695.978115,247.442977 696.26326,248.073481 696.336874,248.723301 C697.496684,247.820444 698.956779,247.702105 698.956779,247.702105 C698.956779,247.702105 698.83844,249.1622 697.935582,250.32201 C698.585403,250.395624 699.215907,250.680769 699.714323,251.179185 L700.368494,251.833357 C699.547082,251.274118 698.117964,251.358347 696.863569,251.593546 L700.370409,255.100385 L700.370409,279.719351 L700.332123,279.757463 L696.717038,283.372722 C698.005106,283.628543 699.514887,283.742358 700.368494,283.161278 L699.714323,283.815362 C699.21582,284.313779 698.585403,284.598924 697.935582,284.67245 C698.83844,285.832347 698.956779,287.292443 698.956779,287.292443 C698.956779,287.292443 697.496684,287.174104 696.336874,286.271246 C696.26326,286.921154 695.978115,287.551571 695.479698,288.049987 L694.825527,288.704071 C695.406694,287.850551 695.292879,286.340857 695.036971,285.052789 L691.338527,288.751494 L649.355129,288.751494 L649.31693,288.713208 L645.716464,285.112741 C645.468996,286.38741 645.367537,287.863777 645.939655,288.704071 L645.285483,288.049987 C644.787154,287.551571 644.502009,286.921154 644.428482,286.271246 C643.268585,287.174104 641.80849,287.292443 641.80849,287.292443 C641.80849,287.292443 641.926829,285.832347 642.829773,284.67245 C642.179778,284.598924 641.549362,284.313779 641.050858,283.815362 L640.396861,283.161278 C641.237155,283.733395 642.713435,283.631937 643.988104,283.384469 L640.370409,279.766774 L640.370409,255.05305 L640.408695,255.014938 L643.84105,251.582495 C642.601448,251.355911 641.20496,251.28308 640.396861,251.833357 L641.050858,251.179185 C641.549362,250.680769 642.179778,250.395624 642.829773,250.32201 C641.926829,249.1622 641.80849,247.702105 641.80849,247.702105 C641.80849,247.702105 643.268585,247.820444 644.428482,248.723301 C644.502009,248.073481 644.787154,247.442977 645.285483,246.944561 L645.939655,246.290389 C645.389465,247.098576 645.462296,248.495064 645.688793,249.734752 L649.263416,246.159955 L691.430153,246.159955 Z M694.482779,282.98229 L690.305061,287.160181 L650.3899,287.160181 L646.264826,283.03502 C646.144486,283.398043 645.9427,284.051953 645.779288,284.806713 L649.463201,288.490626 L691.230281,288.490626 L694.973016,284.747805 C694.803686,283.98008 694.597376,283.323559 694.482779,282.98229 Z M696.576719,286.882467 C696.576719,286.882467 696.917814,287.049708 697.060343,287.377055 C697.202785,287.704402 697.092625,288.068034 697.092625,288.068034 C697.092625,288.068034 696.751443,287.900793 696.609001,287.573446 C696.466472,287.246099 696.576719,286.882467 696.576719,286.882467 Z M644.188619,286.882433 C644.188619,286.882433 644.298779,287.246064 644.15625,287.573498 C644.013808,287.900845 643.672626,288.067999 643.672626,288.067999 C643.672626,288.067999 643.562466,287.704454 643.704908,287.37702 C643.847437,287.049674 644.188619,286.882433 644.188619,286.882433 Z M690.177934,248.272656 L650.517027,248.272656 L642.751287,256.038571 L642.751287,278.784124 L650.605782,286.638793 L690.089179,286.638793 L697.989531,278.738181 L697.989531,256.084427 L690.177934,248.272656 Z M698.546804,284.912339 C698.546804,284.912339 698.910348,284.802093 699.237782,284.944622 C699.565216,285.087151 699.73237,285.428333 699.73237,285.428333 C699.73237,285.428333 699.368825,285.538405 699.041304,285.395963 C698.713958,285.253521 698.546804,284.912339 698.546804,284.912339 Z M641.527469,284.944613 C641.854903,284.802084 642.218447,284.912331 642.218447,284.912331 C642.218447,284.912331 642.051206,285.253513 641.72386,285.396042 C641.396513,285.538397 641.032881,285.428324 641.032881,285.428324 C641.032881,285.428324 641.200122,285.087142 641.527469,284.944613 Z M644.14995,251.642448 L640.631277,255.161208 L640.631277,279.658702 L644.294219,283.321558 C645.048979,283.158145 645.702889,282.956447 646.065912,282.836106 L642.229986,279.000093 L642.229986,255.822602 L645.936348,252.116152 C645.531472,251.985718 644.881216,251.793243 644.14995,251.642448 Z M696.555975,251.654891 C695.816356,251.810559 695.165143,252.006428 694.775842,252.133381 L698.510832,255.868458 L698.510832,278.954063 L694.646626,282.818443 C694.987895,282.93304 695.644416,283.13935 696.412054,283.308767 L700.109541,279.611193 L700.109541,255.208631 L696.555975,251.654891 Z M691.321994,246.420736 L649.371575,246.420736 L645.748746,250.043652 C645.899541,250.774831 646.092016,251.425087 646.22245,251.829963 L650.301059,247.751268 L690.393903,247.751268 L694.525503,251.883042 C694.652456,251.493741 694.848325,250.842528 695.003993,250.102909 L691.321994,246.420736 Z M641.032847,249.566241 C641.032847,249.566241 641.396478,249.456081 641.723912,249.598523 C642.051259,249.741052 642.218413,250.082234 642.218413,250.082234 C642.218413,250.082234 641.854955,250.192394 641.527434,250.049865 C641.200087,249.907423 641.032847,249.566241 641.032847,249.566241 Z M699.041357,249.598532 C699.36879,249.45609 699.732335,249.56625 699.732335,249.56625 C699.732335,249.56625 699.565181,249.907432 699.237747,250.049874 C698.9104,250.192403 698.546769,250.082243 698.546769,250.082243 C698.546769,250.082243 698.71401,249.741061 699.041357,249.598532 Z M643.672591,246.926453 C643.672591,246.926453 644.013773,247.093694 644.156302,247.421128 C644.298831,247.748475 644.188584,248.112106 644.188584,248.112106 C644.188584,248.112106 643.847402,247.944865 643.704873,247.617431 C643.562518,247.290085 643.672591,246.926453 643.672591,246.926453 Z M697.09259,246.926488 C697.09259,246.926488 697.202837,247.290032 697.060308,247.617466 C696.917779,247.9449 696.576684,248.112141 696.576684,248.112141 C696.576684,248.112141 696.466524,247.748509 696.608966,247.421076 C696.751408,247.093729 697.09259,246.926488 697.09259,246.926488 Z" id="18"></path>
        </g>
    </g>
</svg>
