<?xml version="1.0" encoding="UTF-8"?>
<svg width="41px" height="61px" viewBox="0 0 41 61" version="1.1" xmlns="http://www.w3.org/2000/svg" xmlns:xlink="http://www.w3.org/1999/xlink">
    <title>8</title>
    <g id="页面-1" stroke="none" stroke-width="1" fill="none" fill-rule="evenodd">
        <g id="花环" transform="translate(-650.000000, -158.000000)" fill="#545458">
            <path d="M652.8162,184.762222 C652.95781,184.762222 653.415184,185.100268 653.415184,185.794538 C653.415184,186.488808 652.8162,187.559238 652.8162,187.559238 L652.737407,187.410348 C652.574756,187.092109 652.216923,186.331019 652.216923,185.794538 C652.216923,185.100268 652.67459,184.762222 652.8162,184.762222 Z M653.924745,186.286801 C654.148154,186.063685 654.403814,186.102092 654.449259,186.147537 C654.494996,186.192981 654.533111,186.448934 654.309994,186.67205 C654.086878,186.89546 653.55005,187.046745 653.55005,187.046745 L653.585305,186.935166 C653.642506,186.765715 653.765376,186.446379 653.924745,186.286801 Z M651.182848,186.147537 C651.228585,186.102092 651.484246,186.063685 651.707655,186.286801 C651.930771,186.510211 652.082056,187.046745 652.082056,187.046745 L651.915455,186.992461 C651.738757,186.929485 651.465733,186.815671 651.322112,186.67205 C651.098996,186.448934 651.137111,186.192981 651.182848,186.147537 Z M651.538485,169.068439 L651.538485,185.212266 L651.337651,185.212266 L651.337651,169.068439 L651.538485,169.068439 Z M653.001202,171.683093 L653.001202,184.38225 L652.627973,184.38225 L652.627973,171.683093 L653.001202,171.683093 Z M653.621002,164.628982 C654.625647,164.674558 655.357521,165.502914 655.01281,165.491903 L654.97172,165.487438 C654.158709,165.347 654.025308,166.150923 653.324882,165.914613 C652.798315,165.737234 653.348923,165.656021 653.131671,165.425868 C652.815907,165.092513 652.078245,165.252887 651.64462,165.924875 C651.284878,166.481932 651.529103,167.243929 652.072674,167.296409 C652.431244,166.832586 653.334557,167.080623 653.029055,167.777238 C652.652601,168.6354 651.262009,167.889236 651.122451,166.784796 C651.051206,167.552656 651.37342,168.220539 652.375831,168.688467 C652.504541,168.748278 652.613314,168.820402 652.70772,168.89927 C653.10499,169.143789 654.204153,169.352832 654.591748,168.60872 C654.096846,169.259305 652.940512,168.852653 652.643219,168.58937 C652.945867,168.727012 653.316452,168.730825 653.724461,168.375069 L653.812454,168.29325 C654.405574,167.70658 655.277222,168.159556 655.158774,168.204414 C654.825419,168.331657 654.899596,168.860862 654.512881,169.220018 C654.093328,169.609958 653.41577,169.534316 652.889204,169.083978 C653.627468,170.002676 652.854563,171.60061 652.763635,171.23846 L652.757562,171.202557 C652.728901,170.929316 652.619789,170.759765 652.494971,170.609327 L652.333343,170.422628 C652.105576,170.153753 651.915495,169.831103 652.140694,168.961426 C650.771771,168.196933 650.599888,166.814071 651.456089,165.579554 L651.539365,165.464276 C651.756324,165.157014 652.481965,164.577088 653.621002,164.628982 Z M654.768834,165.905817 C655.068766,166.687457 654.636899,167.043681 654.691432,167.343613 C654.708144,167.435381 654.51464,167.332472 654.459813,167.136035 C654.371271,167.324555 653.96198,167.302273 653.883698,167.704527 C653.850275,167.875163 653.367394,167.12079 653.916536,166.425933 C654.253702,165.999344 654.767368,165.902592 654.768834,165.905817 Z M655.688272,164.267481 L655.714453,164.327192 C655.766798,164.452481 655.877221,164.749573 655.851285,164.971719 C655.816982,165.260217 655.610284,165.423229 655.551647,165.429973 C655.492716,165.437009 655.319148,165.318854 655.352865,165.030357 C655.387168,164.741567 655.688272,164.267481 655.688272,164.267481 Z M655.926341,163.445088 L656.112312,163.482693 C656.430698,163.553592 657.074035,163.726703 657.365896,164.018564 C657.7617,164.414369 657.623901,164.93771 657.521872,165.040326 C657.419256,165.142648 656.895915,165.280154 656.499818,164.884349 C656.104013,164.487959 655.926341,163.445088 655.926341,163.445088 Z M655.753067,159.865845 C656.490619,160.868635 656.438147,161.879502 656.29702,162.314491 L656.278167,162.367914 C655.697809,164.020501 654.300509,164.806994 652.713107,164.072655 L652.583995,164.009769 C651.402162,165.334183 650.988549,164.434006 650.152468,164.803201 L650.070198,164.84301 C649.572951,165.104534 650.618461,163.256275 651.9941,163.377948 C651.234449,163.164214 650.733977,162.569628 650.838059,161.925493 C650.933638,161.33208 651.482193,161.067331 651.391891,160.670647 C651.359641,160.53021 652.340355,161.069677 652.159751,162.003188 C652.024885,162.69951 652.273508,163.084466 652.618298,163.298494 C652.180861,163.183271 651.063814,162.344459 651.367557,161.464015 C650.907544,162.301947 651.800889,163.211417 652.284063,163.433361 C652.385213,163.462826 652.487188,163.502846 652.590234,163.556266 L652.693647,163.614258 C653.771407,164.268068 654.608167,164.151379 655.290709,163.597839 C654.155777,164.164279 652.568749,163.318431 653.143984,162.419222 C653.61074,161.688597 654.417301,162.387851 654.204446,163.021138 C654.598492,163.502553 655.474538,163.251877 655.775349,162.558487 C656.13773,161.722607 655.823139,160.92191 655.307128,160.833953 C654.951783,160.773263 655.223569,161.34674 654.721631,160.960024 C654.09196,160.474341 654.661082,159.880914 654.180911,159.242476 L654.084826,159.129357 C653.736225,158.762578 655.050001,158.909758 655.753067,159.865845 Z M657.911519,163.069807 C657.904776,163.129031 657.741763,163.335729 657.452973,163.369739 C657.164475,163.403455 656.749028,163.206726 656.749028,163.206726 L656.9004,163.117391 C657.064025,163.02572 657.326252,162.893475 657.511904,162.871612 C657.800401,162.837309 657.918262,163.011169 657.911519,163.069807 Z M659.940089,158.561158 C660.09929,158.881026 660.61882,158.755541 661.014038,159.105022 C661.442972,159.484408 661.433883,160.166363 661.037199,160.734269 C661.87922,159.909636 663.545414,160.523012 663.193313,160.648791 L663.158124,160.658333 C662.291166,160.836006 662.576731,161.740198 660.988237,161.491281 C660.341464,162.973055 658.915982,163.25217 657.56673,162.431536 C657.239825,162.245362 656.591585,161.579531 656.531775,160.441081 C656.478839,159.437002 657.232189,158.627798 657.254915,158.971662 L657.254484,159.012961 C657.194087,159.83594 658.007099,159.89018 657.840568,160.610251 C657.715083,161.151769 657.58051,160.611423 657.372932,160.850079 C657.071828,161.197213 657.30374,161.915525 658.014721,162.281424 C658.604323,162.584874 659.338467,162.267644 659.338173,161.721727 C658.841512,161.409775 658.999834,160.486818 659.72313,160.722542 C660.613836,161.013678 660.006936,162.470237 658.921553,162.717102 C659.657869,162.713463 660.268094,162.361207 660.641815,161.422164 L660.693583,161.283997 C660.740786,161.15001 660.801476,161.034494 660.871255,160.932758 C661.075607,160.513792 661.176171,159.399383 660.397756,159.086258 C661.093492,159.514899 660.802062,160.70583 660.568978,161.027457 C660.684201,160.690291 660.638757,160.290675 660.15998,159.892819 C659.517898,159.359803 659.883797,158.44828 659.940089,158.561158 Z M653.816558,159.586436 L653.836477,159.634434 C653.889706,159.780151 654.0206,160.237229 653.863175,160.722542 C653.552103,161.682733 652.531514,161.702377 652.672244,161.563112 C653.004134,161.234448 652.724139,160.860633 652.846398,160.657454 C652.625628,160.729578 652.40603,160.611423 652.503075,160.569204 C652.822357,160.431113 652.885979,159.79636 653.816558,159.586436 Z M668.685602,160.69293 L668.685602,161.065865 L663.553928,161.065865 L663.553928,160.69293 L668.685602,160.69293 Z M668.953283,160.05847 C668.992864,160.027099 669.214807,160.001005 669.408605,160.153756 C669.602109,160.306801 669.733457,160.674166 669.733457,160.674166 L669.605573,160.641665 C669.453267,160.599663 669.203275,160.519655 669.074077,160.417626 C668.880572,160.264875 668.913703,160.089548 668.953283,160.05847 Z M659.12913,159.110592 C659.218846,159.085378 659.135287,159.287678 658.945008,159.361562 C659.141151,159.43134 659.159035,159.840924 659.567153,159.879625 C659.740134,159.895751 659.036483,160.45017 658.291198,159.971393 C657.833824,159.677619 657.687816,159.17568 657.690748,159.173921 C658.439258,158.799227 658.835649,159.194444 659.12913,159.110592 Z M669.02101,159.402608 L669.02101,159.603149 L662.49757,159.603149 L662.49757,159.402608 L669.02101,159.402608 Z M660.988237,215.61208 C662.521955,215.371746 662.308632,216.206369 663.072425,216.424133 L663.158124,216.445028 C663.641298,216.544125 661.903278,217.217286 661.037199,216.369092 C661.433883,216.937291 661.442972,217.618954 661.014038,217.998339 C660.61882,218.34782 660.09929,218.222628 659.940089,218.54191 C659.885962,218.65101 659.545586,217.812182 660.090292,217.273385 L660.15998,217.210249 C660.638757,216.812979 660.684201,216.41307 660.568978,216.075904 C660.802062,216.397531 661.093492,217.588462 660.397756,218.017103 C661.176171,217.703978 661.075607,216.589863 660.871255,216.170603 C660.818921,216.094301 660.771699,216.010248 660.731445,215.916588 L660.693583,215.819657 C660.325925,214.776493 659.692931,214.390071 658.921553,214.38626 C660.006936,214.632831 660.613836,216.089977 659.72313,216.380526 C658.999834,216.616543 658.841512,215.693586 659.338173,215.381634 C659.338467,214.83601 658.604323,214.518487 658.014721,214.821937 C657.30374,215.187836 657.071828,215.906441 657.372932,216.253283 C657.58051,216.491938 657.715083,215.951299 657.840568,216.493404 C657.997847,217.173193 657.281399,217.25934 657.252187,217.959862 L657.254484,218.090107 C657.287028,218.533115 656.476949,217.702512 656.531775,216.66228 C656.591585,215.52383 657.239825,214.858293 657.567316,214.671825 C658.915982,213.850898 660.341464,214.130306 660.988237,215.61208 Z M650.031327,212.243007 L650.070198,212.260351 C650.962664,212.729746 651.364038,211.726455 652.583995,213.093592 C654.181215,212.276569 655.605266,212.998057 656.229603,214.603904 L656.27846,214.736033 C656.432091,215.136235 656.522686,216.191127 655.753067,217.237516 C655.072681,218.162761 653.820349,218.330446 654.056203,218.007885 L654.084826,217.974005 C654.732185,217.292635 654.05492,216.657589 654.721631,216.143337 C655.223569,215.756328 654.951783,216.330098 655.307128,216.269408 C655.823139,216.181451 656.13773,215.380754 655.775349,214.544874 C655.474538,213.851191 654.598492,213.600808 654.204446,214.082223 C654.417301,214.715803 653.61074,215.414764 653.143984,214.684432 C652.568749,213.78493 654.155777,212.939082 655.290709,213.505522 C654.608167,212.952276 653.771407,212.835587 652.693647,213.489103 C652.555262,213.572955 652.41893,213.63042 652.284063,213.670001 C651.800889,213.891944 650.907544,214.801414 651.367557,215.639346 C651.063814,214.758902 652.180861,213.92009 652.618298,213.804867 C652.273508,214.018895 652.024885,214.404144 652.159751,215.100173 C652.340355,216.033685 651.359641,216.573151 651.391891,216.432714 C651.482193,216.03603 650.933638,215.771281 650.838059,215.177868 C650.733977,214.533733 651.234449,213.939147 651.9941,213.725413 C650.657765,213.843895 649.632964,212.10285 650.031327,212.243007 L650.031327,212.243007 Z M659.58327,217.219868 L659.567153,217.224029 C659.159035,217.26273 659.141151,217.672314 658.945008,217.742093 C659.135287,217.815683 659.218846,218.018276 659.12913,217.992769 C658.835649,217.908917 658.439258,218.304135 657.690748,217.92944 L657.696948,217.906814 C657.729184,217.805737 657.890996,217.389277 658.291198,217.131968 C659.007818,216.671606 659.685946,217.166762 659.58327,217.219868 L659.58327,217.219868 Z M669.02101,217.500212 L669.02101,217.700753 L662.49757,217.700753 L662.49757,217.500212 L669.02101,217.500212 Z M653.863175,216.380526 C654.054334,216.970128 653.82037,217.517804 653.816558,217.516926 C652.885979,217.307001 652.822357,216.672249 652.503075,216.534157 C652.40603,216.491938 652.625628,216.373783 652.846398,216.4462 C652.724139,216.243021 653.004134,215.869206 652.672244,215.540249 C652.531514,215.400984 653.552103,215.420628 653.863175,216.380526 Z M669.733457,216.428902 L669.705552,216.49913 C669.657189,216.61348 669.549335,216.8383 669.408605,216.949605 C669.214807,217.102356 668.992864,217.075969 668.953283,217.044891 C668.913703,217.014106 668.880572,216.83878 669.074077,216.685735 C669.267874,216.532984 669.733457,216.428902 669.733457,216.428902 Z M668.685602,216.037203 L668.685602,216.410431 L663.553928,216.410431 L663.553928,216.037203 L668.685602,216.037203 Z M657.452973,213.733916 C657.741763,213.767632 657.904776,213.97433 657.911519,214.033554 C657.918262,214.092485 657.800401,214.265759 657.511904,214.231749 C657.223113,214.198033 656.749028,213.896635 656.749028,213.896635 L656.851224,213.853212 C656.992669,213.797416 657.253244,213.71037 657.452973,213.733916 Z M657.521872,212.063329 C657.623901,212.165358 657.7617,212.688993 657.365896,213.084797 C656.969798,213.481187 655.926341,213.658273 655.926341,213.658273 L655.963991,213.472403 C656.034959,213.154184 656.208172,212.511166 656.499818,212.219305 C656.895915,211.822914 657.419256,211.960713 657.521872,212.063329 Z M655.551647,211.673388 C655.610284,211.680132 655.816982,211.843144 655.851285,212.131642 C655.885002,212.420432 655.688272,212.836173 655.688272,212.836173 L655.627778,212.735398 C655.537992,212.580274 655.377367,212.279367 655.352865,212.073297 C655.319148,211.7848 655.492716,211.666352 655.551647,211.673388 Z M652.889204,208.019383 C653.41577,207.569339 654.093328,207.493403 654.512881,207.883343 C654.899596,208.242499 654.825419,208.771704 655.158774,208.899241 C655.272667,208.942373 654.471159,209.362834 653.882055,208.873305 L653.812454,208.810112 C653.369739,208.372675 652.967485,208.366224 652.643219,208.513698 C652.940512,208.250708 654.096846,207.844349 654.591748,208.494641 C654.204153,207.750822 653.10499,207.959572 652.70772,208.204091 C652.613314,208.282959 652.504541,208.35479 652.375831,208.414894 C651.37342,208.882822 651.051206,209.550412 651.122451,210.318565 C651.262009,209.214125 652.652601,208.467961 653.029055,209.326123 C653.334557,210.022738 652.431244,210.270776 652.072674,209.806659 C651.529103,209.859726 651.284878,210.621429 651.64462,211.17878 C652.078245,211.850474 652.815907,212.011141 653.131671,211.6772 C653.348923,211.447633 652.798315,211.36642 653.324882,211.188455 C653.986396,210.96555 654.142137,211.670246 654.842297,211.630679 L654.97172,211.61563 C655.40945,211.540281 654.661527,212.427469 653.621002,212.474672 C652.481965,212.526566 651.756324,211.946053 651.539072,211.638792 C650.590314,210.376323 650.728993,208.930319 652.140694,208.141935 C651.915495,207.272422 652.105576,206.949753 652.333343,206.68088 L652.494971,206.494189 C652.601957,206.365254 652.697405,206.222291 652.740542,206.012063 L652.757562,205.901097 C652.809163,205.410593 653.648561,207.074437 652.889204,208.019383 Z M653.883698,209.398834 C653.96198,209.801381 654.371271,209.779099 654.459813,209.967326 C654.51464,209.77089 654.708144,209.668274 654.691432,209.759455 C654.636899,210.059973 655.068766,210.415904 654.768834,211.197544 L654.74562,211.193546 C654.641709,211.171271 654.211556,211.050986 653.916536,210.677721 C653.367394,209.982571 653.850275,209.228198 653.883698,209.398834 Z M651.538485,191.891095 L651.538485,208.034922 L651.337651,208.034922 L651.337651,191.891095 L651.538485,191.891095 Z M653.001202,192.721404 L653.001202,205.420269 L652.627973,205.420269 L652.627973,192.721404 L653.001202,192.721404 Z M652.8162,189.544416 L652.894954,189.693268 C653.057526,190.011427 653.415184,190.772342 653.415184,191.308823 C653.415184,192.003386 652.957517,192.34114 652.8162,192.34114 C652.67459,192.341432 652.216923,192.003386 652.216923,191.308823 C652.216923,190.614553 652.8162,189.544416 652.8162,189.544416 Z M652.082056,190.056616 L652.027786,190.223217 C651.964833,190.399916 651.851087,190.67294 651.707655,190.81656 C651.484246,191.03997 651.228585,191.001562 651.182848,190.956118 C651.137111,190.91038 651.098996,190.654427 651.322112,190.431311 C651.545522,190.208194 652.082056,190.056616 652.082056,190.056616 Z M653.55005,190.056616 L653.661681,190.09187 C653.8312,190.149072 654.150625,190.271942 654.309994,190.431311 C654.533111,190.654427 654.494996,190.91038 654.449259,190.956118 C654.403814,191.001562 654.148154,191.03997 653.924745,190.81656 C653.701629,190.593151 653.55005,190.056616 653.55005,190.056616 Z M653.415184,188.551681 C653.415184,188.882397 653.146916,189.150664 652.8162,189.150664 C652.48519,189.150664 652.216923,188.882397 652.216923,188.551681 C652.216923,188.220671 652.48519,187.952404 652.8162,187.952404 C653.146916,187.952404 653.415184,188.220671 653.415184,188.551681 Z M687.924618,184.762222 C688.066228,184.762222 688.523894,185.100268 688.523894,185.794538 C688.523894,186.488808 687.924618,187.559238 687.924618,187.559238 L687.845825,187.410348 C687.683173,187.092109 687.325341,186.331019 687.325341,185.794538 C687.325634,185.100268 687.783008,184.762222 687.924618,184.762222 Z M689.033162,186.286801 C689.256572,186.063685 689.512232,186.102092 689.557676,186.147537 C689.603414,186.192981 689.641821,186.448934 689.418705,186.67205 C689.195296,186.89546 688.658761,187.046745 688.658761,187.046745 L688.713031,186.880144 C688.775984,186.703446 688.889731,186.430421 689.033162,186.286801 Z M686.291559,186.147537 C686.337003,186.102092 686.592663,186.063685 686.816073,186.286801 C687.039482,186.510211 687.190474,187.046745 687.190474,187.046745 L687.023873,186.992461 C686.847175,186.929485 686.57415,186.815671 686.43053,186.67205 C686.207707,186.448934 686.245821,186.192981 686.291559,186.147537 Z M689.402873,169.068439 L689.402873,185.212266 L689.202332,185.212266 L689.202332,169.068439 L689.402873,169.068439 Z M688.112844,171.683093 L688.112844,184.38225 L687.739616,184.38225 L687.739616,171.683093 L688.112844,171.683093 Z M689.201746,165.464862 C690.150503,166.727038 690.011825,168.173042 688.600123,168.961426 C688.989356,170.464572 688.138003,170.333555 687.995436,171.115201 L687.982962,171.202557 C687.931654,171.692475 687.091963,170.028924 687.851614,169.083978 C687.325048,169.534316 686.647489,169.609958 686.227937,169.220018 C685.841515,168.860862 685.915691,168.331657 685.58175,168.204414 C685.468421,168.161281 686.26968,167.74082 686.859025,168.230088 L686.928657,168.29325 C687.371078,168.730686 687.773332,168.736843 688.097599,168.58937 C687.800306,168.852653 686.643678,169.259305 686.149069,168.60872 C686.536664,169.352832 687.635827,169.143789 688.033097,168.89927 C688.127211,168.820402 688.23657,168.748278 688.364986,168.688467 C689.367104,168.220539 689.689904,167.552656 689.618366,166.784796 C689.478809,167.889236 688.088217,168.6354 687.711763,167.777238 C687.406554,167.080623 688.309574,166.832586 688.668143,167.296409 C689.211714,167.243929 689.45594,166.481932 689.095905,165.924875 C688.662572,165.252887 687.924618,165.092513 687.609147,165.425868 C687.391601,165.656021 687.942795,165.737234 687.415936,165.914613 C686.754422,166.137794 686.598681,165.433115 685.898767,165.472435 L685.76939,165.487438 C685.331367,165.56308 686.079291,164.676186 687.119816,164.628982 C688.258559,164.577088 688.9842,165.157014 689.201746,165.464862 Z M685.971984,165.905817 L685.995113,165.909743 C686.098879,165.931934 686.529225,166.052668 686.823989,166.425933 C687.373424,167.12079 686.890542,167.875163 686.857119,167.704527 C686.778838,167.302273 686.369547,167.324555 686.281004,167.136035 C686.226178,167.332472 686.032674,167.435381 686.049385,167.343613 C686.103918,167.043681 685.671759,166.687457 685.971984,165.905817 Z M685.052252,164.267481 L685.112856,164.368205 C685.202795,164.523261 685.36366,164.824078 685.387953,165.030357 C685.421669,165.318854 685.248102,165.437009 685.189171,165.429973 C685.130533,165.423229 684.923835,165.260217 684.889826,164.971719 C684.855523,164.682929 685.052252,164.267481 685.052252,164.267481 Z M684.814476,163.445088 L684.776826,163.630964 C684.705859,163.949197 684.532645,164.592272 684.241,164.884349 C683.844609,165.280154 683.321268,165.142648 683.218946,165.040326 C683.116623,164.93771 682.979118,164.414369 683.375215,164.018564 C683.771019,163.622467 684.814476,163.445088 684.814476,163.445088 Z M686.684614,159.095476 L686.655992,159.129357 C686.008339,159.810726 686.685897,160.445772 686.019187,160.960024 C685.517249,161.34674 685.789034,160.773263 685.43369,160.833953 C684.917679,160.92191 684.603087,161.722607 684.965175,162.558487 C685.265986,163.251877 686.142326,163.502553 686.536078,163.021138 C686.323516,162.387851 687.129784,161.688597 687.596833,162.419222 C688.171775,163.318431 686.58504,164.164279 685.450108,163.597839 C686.104212,164.128315 686.899948,164.257585 687.913441,163.691995 L688.046877,163.614258 C688.185262,163.530699 688.322181,163.472648 688.457048,163.433361 C688.939929,163.211417 689.833273,162.301947 689.373261,161.464015 C689.676711,162.344459 688.559957,163.183271 688.12252,163.298494 C688.467309,163.084466 688.71564,162.69951 688.581066,162.003188 C688.400462,161.069677 689.381177,160.53021 689.348926,160.670647 C689.258331,161.067331 689.80718,161.33208 689.902759,161.925493 C690.006841,162.569628 689.506662,163.164214 688.746718,163.377948 C690.083053,163.259751 691.107854,165.000527 690.70949,164.860355 L690.670619,164.84301 C689.778154,164.373615 689.376779,165.376906 688.156823,164.009769 C686.559602,164.826792 685.135551,164.105304 684.511485,162.499457 L684.46265,162.367621 C684.308726,161.967419 684.218424,160.912234 684.987751,159.865845 C685.668136,158.9406 686.920468,158.772915 686.684614,159.095476 L686.684614,159.095476 Z M683.228914,162.871612 C683.517704,162.905622 683.99179,163.206726 683.99179,163.206726 L683.889593,163.250158 C683.748149,163.305973 683.487574,163.393081 683.287845,163.369739 C682.999054,163.335729 682.836335,163.129031 682.829005,163.069807 C682.822262,163.011169 682.940417,162.837309 683.228914,162.871612 Z M680.580837,159.892819 C680.102061,160.290675 680.056324,160.690291 680.17184,161.027457 C679.938755,160.70583 679.647326,159.514899 680.342769,159.086258 C679.564354,159.399383 679.66521,160.513792 679.869563,160.932758 C679.939048,161.034494 680.000031,161.15001 680.046942,161.283997 C680.414893,162.326868 681.047886,162.71329 681.819265,162.717102 C680.733882,162.470237 680.126689,161.013678 681.017688,160.722542 C681.74069,160.486818 681.899305,161.409775 681.402644,161.721727 C681.402058,162.267644 682.136494,162.584874 682.726389,162.281424 C683.437078,161.915525 683.66899,161.197213 683.367592,160.850079 C683.160308,160.611423 683.025441,161.151769 682.899957,160.610251 C682.742678,159.930184 683.459387,159.844022 683.48838,159.143252 L683.48604,159.012961 C683.453789,158.570246 684.263575,159.401142 684.209042,160.441081 C684.149232,161.579531 683.5007,162.245362 683.173501,162.431536 C681.824542,163.25217 680.399354,162.973055 679.75258,161.491281 C678.218579,161.731615 678.432166,160.896993 677.668391,160.679228 L677.582694,160.658333 C677.09952,160.559236 678.83754,159.886075 679.703618,160.734269 C679.306934,160.166363 679.297552,159.484408 679.72678,159.105022 C680.121998,158.755541 680.641527,158.881026 680.800729,158.561158 C680.857314,158.44828 681.222627,159.359803 680.580837,159.892819 Z M686.924259,159.586435 C687.854546,159.79636 687.918754,160.431113 688.237743,160.569204 C688.334788,160.611423 688.11519,160.729578 687.894419,160.657454 C688.016972,160.860633 687.736684,161.234448 688.06828,161.563112 C688.209303,161.702377 687.188422,161.682733 686.877642,160.722542 C686.686483,160.133233 686.920448,159.585557 686.924259,159.586435 Z M677.18689,160.69293 L677.18689,161.065865 L672.055215,161.065865 L672.055215,160.69293 L677.18689,160.69293 Z M671.332213,160.153756 C671.52601,160.001005 671.747954,160.027099 671.787534,160.05847 C671.827115,160.089548 671.860245,160.264875 671.666448,160.417626 C671.472943,160.57067 671.00736,160.674166 671.00736,160.674166 L671.035218,160.603991 C671.083512,160.489726 671.191269,160.265061 671.332213,160.153756 Z M683.050069,159.173921 L683.043869,159.196643 C683.011629,159.297912 682.849785,159.71434 682.449326,159.971393 C681.704042,160.45017 681.00039,159.895751 681.173664,159.879625 C681.581489,159.840924 681.599374,159.43134 681.79581,159.361562 C681.605237,159.287678 681.521972,159.085378 681.611394,159.110592 C681.904876,159.194444 682.301266,158.799227 683.050069,159.173921 Z M678.24354,159.402608 L678.24354,159.603149 L671.720101,159.603149 L671.720101,159.402608 L678.24354,159.402608 Z M683.173795,214.671825 C683.5007,214.858293 684.149232,215.52383 684.209042,216.66228 C684.261695,217.666642 683.508609,218.475582 683.485638,218.131436 L683.48604,218.090107 C683.54673,217.267421 682.733426,217.213181 682.899957,216.493404 C683.025441,215.951299 683.160308,216.491938 683.367592,216.253283 C683.66899,215.906441 683.437078,215.187836 682.726389,214.821937 C682.136494,214.518487 681.402058,214.83601 681.402644,215.381634 C681.899305,215.693586 681.74069,216.616543 681.017688,216.380526 C680.126689,216.089977 680.733882,214.632831 681.819265,214.38626 C681.082949,214.389898 680.472724,214.742154 680.098748,215.681452 L680.046942,215.819657 C680.000031,215.953351 679.939048,216.068867 679.869563,216.170603 C679.66521,216.589863 679.564354,217.703978 680.342769,218.017103 C679.647326,217.588462 679.938755,216.397531 680.17184,216.075904 C680.064025,216.390592 680.096679,216.759937 680.490775,217.130779 L680.580837,217.210249 C681.222627,217.743559 680.857314,218.655374 680.800729,218.54191 C680.641527,218.222628 680.121998,218.34782 679.72678,217.998339 C679.297552,217.618954 679.306934,216.937291 679.703618,216.369092 C678.861598,217.193725 677.195404,216.580349 677.547505,216.45457 L677.582694,216.445028 C678.449652,216.267356 678.163793,215.363163 679.75258,215.61208 C680.399354,214.130306 681.824542,213.850898 683.173795,214.671825 Z M688.746718,213.725413 C689.506662,213.939147 690.006841,214.533733 689.902759,215.177868 C689.80718,215.771281 689.258331,216.03603 689.348926,216.432714 C689.381177,216.573151 688.400462,216.033685 688.581066,215.100173 C688.71564,214.404144 688.467309,214.018895 688.12252,213.804867 C688.559957,213.92009 689.676711,214.758902 689.373261,215.639346 C689.833273,214.801414 688.939929,213.891944 688.457048,213.670001 C688.322181,213.63042 688.185262,213.572955 688.046877,213.489103 C686.96941,212.835587 686.132651,212.952276 685.450108,213.505522 C686.58504,212.939082 688.171775,213.78493 687.596833,214.684432 C687.129784,215.414764 686.323516,214.715803 686.536078,214.082223 C686.142326,213.600808 685.265986,213.851191 684.965175,214.544874 C684.603087,215.380754 684.917679,216.181451 685.43369,216.269408 C685.789034,216.330098 685.517249,215.756328 686.019187,216.143337 C686.648858,216.62902 686.079474,217.222447 686.559862,217.860885 L686.655992,217.974005 C687.004593,218.340783 685.690816,218.193603 684.987751,217.237516 C684.25048,216.234726 684.302694,215.224128 684.443799,214.788904 L684.511485,214.603904 C685.135551,212.998057 686.559602,212.276569 688.156823,213.093592 C689.338656,211.769178 689.752269,212.669355 690.588349,212.30016 L690.670619,212.260351 C691.167866,211.998827 690.122357,213.847379 688.746718,213.725413 Z M682.449326,217.131968 C682.906993,217.426036 683.053001,217.927974 683.050069,217.92944 C682.301266,218.304135 681.904876,217.908917 681.611394,217.992769 C681.521972,218.018276 681.605237,217.815683 681.79581,217.742093 C681.615743,217.678129 681.58571,217.328634 681.267826,217.24102 L681.173664,217.224029 C681.00039,217.207904 681.704042,216.653191 682.449326,217.131968 Z M678.24354,217.500212 L678.24354,217.700753 L671.720101,217.700753 L671.720101,217.500212 L678.24354,217.500212 Z M688.06828,215.540249 C687.736684,215.869206 688.016972,216.243021 687.894419,216.4462 C688.11519,216.373783 688.334788,216.491938 688.237743,216.534157 C687.918754,216.672249 687.854546,217.307001 686.924259,217.516925 L686.90434,217.468925 C686.851111,217.323201 686.720217,216.866081 686.877642,216.380526 C687.188422,215.420628 688.209303,215.400984 688.06828,215.540249 Z M671.00736,216.428902 L671.083131,216.447552 C671.223147,216.483985 671.521319,216.571172 671.666448,216.685735 C671.860245,216.83878 671.827115,217.014106 671.787534,217.044891 C671.747954,217.075969 671.52601,217.102356 671.332213,216.949605 C671.138415,216.79656 671.00736,216.428902 671.00736,216.428902 Z M677.18689,216.037203 L677.18689,216.410431 L672.055215,216.410431 L672.055215,216.037203 L677.18689,216.037203 Z M683.99179,213.896635 L683.840417,213.986042 C683.676792,214.077776 683.414565,214.210074 683.228914,214.231749 C682.940417,214.265759 682.822262,214.092485 682.829005,214.033554 C682.836335,213.97433 682.999054,213.767632 683.287845,213.733916 C683.576342,213.699906 683.99179,213.896635 683.99179,213.896635 Z M684.241,212.219305 C684.636804,212.615402 684.814476,213.658273 684.814476,213.658273 L684.628511,213.620713 C684.31014,213.549883 683.66686,213.376874 683.375215,213.084797 C682.979118,212.688993 683.116623,212.165358 683.218946,212.063329 C683.321268,211.960713 683.844609,211.822914 684.241,212.219305 Z M685.189171,211.673388 C685.248102,211.666352 685.421669,211.7848 685.387953,212.073297 C685.353943,212.361794 685.052252,212.836173 685.052252,212.836173 L685.008837,212.733902 C684.953061,212.592351 684.866077,212.331573 684.889826,212.131642 C684.923835,211.843144 685.130533,211.680132 685.189171,211.673388 Z M687.976913,205.865147 L687.982962,205.901097 C688.07561,206.781249 689.003257,206.585399 688.600123,208.141935 C690.011825,208.930319 690.150503,210.376323 689.201746,211.639085 C688.9842,211.946053 688.258559,212.526566 687.119816,212.474672 C686.115171,212.429096 685.383296,211.600467 685.728272,211.611195 L685.76939,211.61563 C686.582108,211.756361 686.715509,210.952438 687.415936,211.188455 C687.942795,211.36642 687.391601,211.447633 687.609147,211.6772 C687.924618,212.011141 688.662572,211.850474 689.095905,211.17878 C689.45594,210.621429 689.211714,209.859726 688.668143,209.806659 C688.309574,210.270776 687.406554,210.022738 687.711763,209.326123 C688.088217,208.467961 689.478809,209.214125 689.618366,210.318565 C689.689904,209.550412 689.367104,208.882822 688.364986,208.414894 C688.23657,208.35479 688.127211,208.282959 688.033097,208.204091 C687.635827,207.959572 686.536664,207.750822 686.149069,208.494641 C686.643678,207.844349 687.800306,208.250708 688.097599,208.513698 C687.773332,208.366224 687.371078,208.372675 686.928657,208.810112 C686.335244,209.397074 685.463888,208.944099 685.58175,208.899241 C685.915691,208.771704 685.841515,208.242499 686.227937,207.883343 C686.647489,207.493403 687.325048,207.569339 687.851614,208.019383 C687.113064,207.100685 687.886239,205.502474 687.976913,205.865147 L687.976913,205.865147 Z M686.823989,210.677721 C686.487115,211.10431 685.973156,211.200476 685.971984,211.197544 C685.671759,210.415904 686.103918,210.059973 686.049385,209.759455 C686.032674,209.668274 686.226178,209.77089 686.281004,209.967326 C686.369547,209.779099 686.778838,209.801381 686.857119,209.398834 C686.890542,209.228198 687.373424,209.982571 686.823989,210.677721 Z M689.402873,191.891095 L689.402873,208.034922 L689.202332,208.034922 L689.202332,191.891095 L689.402873,191.891095 Z M688.112844,192.721404 L688.112844,205.420269 L687.739616,205.420269 L687.739616,192.721404 L688.112844,192.721404 Z M687.924618,189.544416 L688.034027,189.753874 C688.206922,190.10017 688.523894,190.8039 688.523894,191.308823 C688.523894,192.003386 688.066228,192.34114 687.924618,192.34114 C687.783008,192.341432 687.325341,192.003386 687.325341,191.308823 C687.325341,190.614553 687.924618,189.544416 687.924618,189.544416 Z M687.190474,190.056616 L687.155329,190.168195 C687.098281,190.337646 686.975651,190.656982 686.816073,190.81656 C686.592663,191.03997 686.337003,191.001562 686.291559,190.956118 C686.245821,190.91038 686.207707,190.654427 686.430823,190.431311 C686.65394,190.208194 687.190474,190.056616 687.190474,190.056616 Z M688.658761,190.056616 L688.77034,190.09187 C688.939791,190.149072 689.259127,190.271942 689.418705,190.431311 C689.641821,190.654427 689.603414,190.91038 689.557676,190.956118 C689.512232,191.001562 689.256572,191.03997 689.033162,190.81656 C688.810046,190.593151 688.658761,190.056616 688.658761,190.056616 Z M688.523894,188.551681 C688.523894,188.882397 688.255627,189.150664 687.924618,189.150664 C687.593608,189.150664 687.325341,188.882397 687.325341,188.551681 C687.325341,188.220671 687.593608,187.952404 687.924618,187.952404 C688.255627,187.952404 688.523894,188.220671 688.523894,188.551681 Z M670.043064,161.963901 C670.043064,162.263246 670.29286,162.409254 670.370262,162.409254 C670.447957,162.409254 670.697753,162.263246 670.697753,161.963901 C670.697753,161.664262 670.370262,161.202784 670.370262,161.202784 L670.296393,161.315697 C670.199887,161.471449 670.043064,161.756459 670.043064,161.963901 Z M670.890378,159.816883 C670.890378,159.341038 670.493401,159.10942 670.370262,159.109712 C670.247416,159.109712 669.850733,159.341038 669.850733,159.816883 C669.850733,160.292434 670.370262,161.025405 670.370262,161.025405 L670.478774,160.860386 C670.63122,160.616514 670.890378,160.152566 670.890378,159.816883 Z M670.697753,215.13946 C670.697753,214.839822 670.447957,214.693814 670.370262,214.694106 C670.29286,214.694106 670.043064,214.839822 670.043064,215.13946 C670.043064,215.438805 670.370262,215.90087 670.370262,215.90087 L670.444197,215.787833 C670.54079,215.631928 670.697753,215.346699 670.697753,215.13946 Z M669.850733,217.286771 C669.850733,217.762323 670.247416,217.993941 670.370262,217.993941 C670.493401,217.993941 670.890378,217.762323 670.890378,217.286771 C670.890378,216.81122 670.370262,216.078249 670.370262,216.078249 L670.297509,216.187087 C670.154541,216.408925 669.850733,216.923114 669.850733,217.286771 Z" id="8"></path>
        </g>
    </g>
</svg>
