<?xml version="1.0" encoding="UTF-8"?>
<svg width="42px" height="61px" viewBox="0 0 42 61" version="1.1" xmlns="http://www.w3.org/2000/svg" xmlns:xlink="http://www.w3.org/1999/xlink">
    <title>5</title>
    <g id="页面-1" stroke="none" stroke-width="1" fill="none" fill-rule="evenodd">
        <g id="花环" transform="translate(-410.000000, -157.000000)" fill="#545458">
            <path d="M448.894453,157.864768 L451.941334,160.911649 L451.941334,214.817887 L448.894453,217.864768 L413.447483,217.864768 L410.400602,214.817887 L410.400602,160.911649 L413.447483,157.864768 L448.894453,157.864768 Z M448.802033,158.088365 L413.539903,158.088365 L410.624199,161.004069 L410.624199,214.725169 L413.539903,217.641171 L448.802033,217.641171 L451.717737,214.725169 L451.717737,161.004069 L448.802033,158.088365 Z M438.66236,215.366743 L438.744392,215.501148 C438.89205,215.748516 439.187365,216.270447 439.187365,216.488007 C439.187365,216.777789 438.66236,216.947424 438.66236,216.947424 L438.580328,216.916391 C438.43267,216.855097 438.137354,216.705343 438.137354,216.488007 C438.137354,216.197927 438.66236,215.366743 438.66236,215.366743 Z M442.353796,215.366743 L442.475562,215.568375 C442.630654,215.833391 442.878802,216.288577 442.878802,216.488007 C442.878802,216.777789 442.353796,216.947424 442.353796,216.947424 L442.271764,216.916391 C442.124106,216.855097 441.82879,216.705343 441.82879,216.488007 C441.82879,216.197927 442.353796,215.366743 442.353796,215.366743 Z M446.045232,215.366743 L446.166929,215.568375 C446.321933,215.833391 446.56994,216.288577 446.56994,216.488007 C446.56994,216.777789 446.045232,216.947424 446.045232,216.947424 L445.9632,216.916391 C445.815542,216.855097 445.520227,216.705343 445.520227,216.488007 C445.520227,216.197927 446.045232,215.366743 446.045232,215.366743 Z M427.588349,215.366743 L427.710046,215.568375 C427.86505,215.833391 428.113057,216.288577 428.113057,216.488007 C428.113057,216.777789 427.588349,216.947424 427.588349,216.947424 L427.506317,216.916391 C427.358659,216.855097 427.063344,216.705343 427.063344,216.488007 C427.063344,216.197927 427.588349,215.366743 427.588349,215.366743 Z M431.279487,215.366743 L431.401254,215.568375 C431.556346,215.833391 431.804493,216.288577 431.804493,216.488007 C431.804493,216.777789 431.279487,216.947424 431.279487,216.947424 L431.197502,216.916391 C431.049928,216.855097 430.75478,216.705343 430.75478,216.488007 C430.75478,216.197927 431.279487,215.366743 431.279487,215.366743 Z M434.970923,215.366743 L435.09269,215.568375 C435.247782,215.833391 435.495929,216.288577 435.495929,216.488007 C435.495929,216.777789 434.970923,216.947424 434.970923,216.947424 L434.888891,216.916391 C434.741234,216.855097 434.445918,216.705343 434.445918,216.488007 C434.445918,216.197927 434.970923,215.366743 434.970923,215.366743 Z M423.896913,215.366743 L424.01861,215.568375 C424.173614,215.833391 424.42162,216.288577 424.42162,216.488007 C424.42162,216.777789 423.896913,216.947424 423.896913,216.947424 L423.814881,216.916391 C423.667223,216.855097 423.371907,216.705343 423.371907,216.488007 C423.371907,216.197927 423.896913,215.366743 423.896913,215.366743 Z M420.205477,215.366743 L420.327243,215.568375 C420.482335,215.833391 420.730482,216.288577 420.730482,216.488007 C420.730482,216.777789 420.205477,216.947424 420.205477,216.947424 L420.123445,216.916391 C419.975787,216.855097 419.680471,216.705343 419.680471,216.488007 C419.680471,216.197927 420.205477,215.366743 420.205477,215.366743 Z M416.51404,215.366743 L416.680155,215.645032 C416.833966,215.914038 417.039046,216.306707 417.039046,216.488007 C417.039046,216.777789 416.51404,216.947424 416.51404,216.947424 L416.432008,216.916391 C416.28435,216.855097 415.989035,216.705343 415.989035,216.488007 C415.989035,216.197927 416.51404,215.366743 416.51404,215.366743 Z M447.726383,215.007199 C447.726383,215.476753 448.107094,215.857464 448.576648,215.857464 L448.489719,215.861854 C448.060992,215.9054 447.726383,216.267522 447.726383,216.707728 C447.726383,216.238175 447.345672,215.857464 446.876118,215.857464 C447.345672,215.857464 447.726383,215.476753 447.726383,215.007199 Z M414.615852,215.007199 C414.615852,215.476753 414.996264,215.857464 415.465818,215.857464 C414.996264,215.857464 414.615852,216.238175 414.615852,216.707728 L414.611461,216.620799 C414.567916,216.192073 414.205793,215.857464 413.765587,215.857464 C414.23514,215.857464 414.615852,215.476753 414.615852,215.007199 Z M444.800543,214.66435 C444.468725,214.996466 444.468725,215.534888 444.800543,215.866706 L444.731547,215.804766 C444.397852,215.536363 443.908162,215.557009 443.598187,215.866706 C443.930303,215.534888 443.930303,214.996466 443.598187,214.66435 C443.930303,214.996466 444.468725,214.996466 444.800543,214.66435 Z M426.34366,214.66435 C426.011544,214.996466 426.011544,215.534888 426.34366,215.866706 L426.274612,215.804766 C425.940709,215.536363 425.451279,215.557009 425.141304,215.866706 C425.47342,215.534888 425.47342,214.996466 425.141304,214.66435 C425.47342,214.996466 426.011544,214.996466 426.34366,214.66435 Z M430.035096,214.66435 C429.70298,214.996466 429.70298,215.534888 430.035096,215.866706 L429.966048,215.804766 C429.632144,215.536363 429.142696,215.557009 428.832442,215.866706 C429.164857,215.534888 429.164857,214.996466 428.832442,214.66435 C429.164857,214.996466 429.70298,214.996466 430.035096,214.66435 Z M418.960787,214.66435 C418.628969,214.996466 418.628969,215.534888 418.960787,215.866706 L418.891791,215.804766 C418.558097,215.536363 418.068407,215.557009 417.758432,215.866706 C418.090548,215.534888 418.090548,214.996466 417.758432,214.66435 C418.090548,214.996466 418.628969,214.996466 418.960787,214.66435 Z M437.41767,214.66435 C437.085852,214.996466 437.085852,215.534888 437.41767,215.866706 L437.348674,215.804766 C437.01498,215.536363 436.52529,215.557009 436.215315,215.866706 C436.547431,215.534888 436.547431,214.996466 436.215613,214.66435 C436.547431,214.996466 437.085852,214.996466 437.41767,214.66435 Z M441.109106,214.66435 C440.777289,214.996466 440.777289,215.534888 441.109106,215.866706 L441.04011,215.804766 C440.706416,215.536363 440.216726,215.557009 439.906751,215.866706 C440.238867,215.534888 440.238867,214.996466 439.906751,214.66435 C440.238867,214.996466 440.777289,214.996466 441.109106,214.66435 Z M433.726234,214.66435 C433.394416,214.996466 433.394416,215.534888 433.726234,215.866706 L433.657238,215.804766 C433.323543,215.536363 432.833854,215.557009 432.523879,215.866706 C432.855995,215.534888 432.855995,214.996466 432.523879,214.66435 C432.855995,214.996466 433.394416,214.996466 433.726234,214.66435 Z M422.652223,214.66435 C422.320405,214.996466 422.320405,215.534888 422.652223,215.866706 L422.583227,215.804766 C422.249533,215.536363 421.759843,215.557009 421.449868,215.866706 C421.781984,215.534888 421.781984,214.996466 421.449868,214.66435 C421.781984,214.996466 422.320405,214.996466 422.652223,214.66435 Z M430.53327,214.945188 C430.710359,214.945188 431.217774,215.265677 431.217774,215.265677 L431.040254,215.371437 C430.876319,215.464797 430.642247,215.586166 430.53327,215.586166 C430.356479,215.586166 430.253028,215.265677 430.253028,215.265677 L430.268024,215.225231 C430.302628,215.139064 430.395766,214.945188 430.53327,214.945188 Z M446.79145,214.945188 C446.967942,214.945188 447.071691,215.265677 447.071691,215.265677 L447.056661,215.306123 C447.021988,215.39229 446.928722,215.586166 446.79145,215.586166 C446.614361,215.586166 446.106945,215.265677 446.106945,215.265677 L446.284465,215.159917 C446.4484,215.066557 446.682472,214.945188 446.79145,214.945188 Z M437.916142,214.945188 C438.093231,214.945188 438.600647,215.265677 438.600647,215.265677 L438.480933,215.338031 C438.319665,215.432559 438.038742,215.586166 437.916142,215.586166 C437.739053,215.586166 437.635901,215.265677 437.635901,215.265677 L437.650862,215.225231 C437.685398,215.139064 437.778407,214.945188 437.916142,214.945188 Z M432.025705,214.945188 C432.202495,214.945188 432.306244,215.265677 432.306244,215.265677 L432.291211,215.306123 C432.256527,215.39229 432.163209,215.586166 432.025705,215.586166 C431.848914,215.586166 431.3412,215.265677 431.3412,215.265677 L431.518802,215.159917 C431.682796,215.066557 431.91691,214.945188 432.025705,214.945188 Z M434.224706,214.945188 C434.401795,214.945188 434.909211,215.265677 434.909211,215.265677 L434.789497,215.338031 C434.628228,215.432559 434.347306,215.586166 434.224706,215.586166 C434.047915,215.586166 433.944464,215.265677 433.944464,215.265677 L433.95946,215.225231 C433.994064,215.139064 434.087202,214.945188 434.224706,214.945188 Z M417.260258,214.945188 C417.437049,214.945188 417.540499,215.265677 417.540499,215.265677 L417.525504,215.306123 C417.490899,215.39229 417.397762,215.586166 417.260258,215.586166 C417.083169,215.586166 416.575753,215.265677 416.575753,215.265677 L416.753274,215.159917 C416.917208,215.066557 417.15128,214.945188 417.260258,214.945188 Z M415.767823,214.945188 C415.944912,214.945188 416.452328,215.265677 416.452328,215.265677 L416.274807,215.371437 C416.110873,215.464797 415.876801,215.586166 415.767823,215.586166 C415.590734,215.586166 415.487581,215.265677 415.487581,215.265677 L415.502543,215.225231 C415.537078,215.139064 415.630087,214.945188 415.767823,214.945188 Z M439.408577,214.945188 C439.585368,214.945188 439.688819,215.265677 439.688819,215.265677 L439.673823,215.306123 C439.639219,215.39229 439.546081,215.586166 439.408577,215.586166 C439.231488,215.586166 438.724072,215.265677 438.724072,215.265677 L438.901593,215.159917 C439.065527,215.066557 439.299599,214.945188 439.408577,214.945188 Z M426.842132,214.945188 C427.018922,214.945188 427.526338,215.265677 427.526338,215.265677 L427.406633,215.338031 C427.245384,215.432559 426.964525,215.586166 426.842132,215.586166 C426.665043,215.586166 426.561592,215.265677 426.561592,215.265677 L426.576591,215.225231 C426.611207,215.139064 426.704396,214.945188 426.842132,214.945188 Z M428.334268,214.945188 C428.511059,214.945188 428.614808,215.265677 428.614808,215.265677 L428.599775,215.306123 C428.56509,215.39229 428.471772,215.586166 428.334268,215.586166 C428.157478,215.586166 427.650062,215.265677 427.650062,215.265677 L427.827565,215.159917 C427.991473,215.066557 428.225474,214.945188 428.334268,214.945188 Z M420.951694,214.945188 C421.128485,214.945188 421.231936,215.265677 421.231936,215.265677 L421.21694,215.306123 C421.182336,215.39229 421.089198,215.586166 420.951694,215.586166 C420.774605,215.586166 420.267189,215.265677 420.267189,215.265677 L420.44471,215.159917 C420.608644,215.066557 420.842716,214.945188 420.951694,214.945188 Z M419.459259,214.945188 C419.636348,214.945188 420.143764,215.265677 420.143764,215.265677 L420.02405,215.338031 C419.862781,215.432559 419.581859,215.586166 419.459259,215.586166 C419.28217,215.586166 419.17872,215.265677 419.17872,215.265677 L419.193718,215.225231 C419.228334,215.139064 419.321523,214.945188 419.459259,214.945188 Z M443.100013,214.945188 C443.276804,214.945188 443.380255,215.265677 443.380255,215.265677 L443.365259,215.306123 C443.330655,215.39229 443.237517,215.586166 443.100013,215.586166 C442.922925,215.586166 442.415509,215.265677 442.415509,215.265677 L442.593029,215.159917 C442.756964,215.066557 442.991036,214.945188 443.100013,214.945188 Z M441.607578,214.945188 C441.784667,214.945188 442.292083,215.265677 442.292083,215.265677 L442.114563,215.371437 C441.950628,215.464797 441.716556,215.586166 441.607578,215.586166 C441.43049,215.586166 441.327039,215.265677 441.327039,215.265677 L441.360418,215.182587 C441.404188,215.087628 441.489519,214.945188 441.607578,214.945188 Z M424.64313,214.945188 C424.819623,214.945188 424.923372,215.265677 424.923372,215.265677 L424.908342,215.306123 C424.873669,215.39229 424.780402,215.586166 424.64313,215.586166 C424.466042,215.586166 423.958626,215.265677 423.958626,215.265677 L424.136146,215.159917 C424.300081,215.066557 424.534153,214.945188 424.64313,214.945188 Z M423.150695,214.945188 C423.327486,214.945188 423.8352,215.265677 423.8352,215.265677 L423.657598,215.371437 C423.493604,215.464797 423.25949,215.586166 423.150695,215.586166 C422.973607,215.586166 422.870156,215.265677 422.870156,215.265677 L422.885155,215.225231 C422.91977,215.139064 423.01296,214.945188 423.150695,214.945188 Z M445.299015,214.945188 C445.476103,214.945188 445.983519,215.265677 445.983519,215.265677 L445.863805,215.338031 C445.702537,215.432559 445.421615,215.586166 445.299015,215.586166 C445.121926,215.586166 445.018475,215.265677 445.018475,215.265677 L445.033474,215.225231 C445.06809,215.139064 445.161279,214.945188 445.299015,214.945188 Z M435.717141,214.945188 C435.893932,214.945188 435.997681,215.265677 435.997681,215.265677 L435.982647,215.306123 C435.947963,215.39229 435.854645,215.586166 435.717141,215.586166 C435.540052,215.586166 435.032636,215.265677 435.032636,215.265677 L435.210157,215.159917 C435.374091,215.066557 435.608163,214.945188 435.717141,214.945188 Z M414.52045,214.020391 L414.465268,214.24623 C414.374786,214.598895 414.186827,215.258754 414.006177,215.439188 C413.756345,215.689021 413.158,215.382544 413.158,215.382544 L413.114016,215.285149 C413.03953,215.105153 412.913981,214.72174 413.101355,214.534366 C413.351485,214.284534 414.52045,214.020391 414.52045,214.020391 Z M447.821784,214.020391 L448.134169,214.098126 C448.499101,214.194896 449.074225,214.367811 449.240581,214.534366 C449.490712,214.784198 449.184235,215.382544 449.184235,215.382544 L449.127368,215.40918 C448.972097,215.477915 448.53899,215.642177 448.335759,215.439188 C448.085927,215.189356 447.821784,214.020391 447.821784,214.020391 Z M416.51404,213.58393 L416.596073,213.614963 C416.74373,213.676257 417.039046,213.826011 417.039046,214.043347 C417.039046,214.333129 416.51404,215.164611 416.51404,215.164611 L416.347925,214.886244 C416.194115,214.617176 415.989035,214.224461 415.989035,214.043347 C415.989035,213.753566 416.51404,213.58393 416.51404,213.58393 Z M427.588349,213.58393 L427.670335,213.614963 C427.817909,213.676257 428.113057,213.826011 428.113057,214.043347 C428.113057,214.333129 427.588349,215.164611 427.588349,215.164611 L427.422234,214.886244 C427.268424,214.617176 427.063344,214.224461 427.063344,214.043347 C427.063344,213.753566 427.588349,213.58393 427.588349,213.58393 Z M420.205477,213.58393 L420.287509,213.614963 C420.435167,213.676257 420.730482,213.826011 420.730482,214.043347 C420.730482,214.333129 420.205477,215.164611 420.205477,215.164611 L420.123445,215.030164 C419.975787,214.782726 419.680471,214.260683 419.680471,214.043347 C419.680471,213.753566 420.205477,213.58393 420.205477,213.58393 Z M446.045232,213.58393 L446.127218,213.614963 C446.274792,213.676257 446.56994,213.826011 446.56994,214.043347 C446.56994,214.333129 446.045232,215.164611 446.045232,215.164611 L445.923466,214.962919 C445.768374,214.697835 445.520227,214.242572 445.520227,214.043347 C445.520227,213.753566 446.045232,213.58393 446.045232,213.58393 Z M442.353796,213.58393 L442.435828,213.614963 C442.583486,213.676257 442.878802,213.826011 442.878802,214.043347 C442.878802,214.333129 442.353796,215.164611 442.353796,215.164611 L442.23203,214.962919 C442.076938,214.697835 441.82879,214.242572 441.82879,214.043347 C441.82879,213.753566 442.353796,213.58393 442.353796,213.58393 Z M438.66236,213.58393 L438.744392,213.614963 C438.89205,213.676257 439.187365,213.826011 439.187365,214.043347 C439.187365,214.333129 438.66236,215.164611 438.66236,215.164611 L438.540593,214.962919 C438.385501,214.697835 438.137354,214.242572 438.137354,214.043347 C438.137354,213.753566 438.66236,213.58393 438.66236,213.58393 Z M431.279487,213.58393 L431.361519,213.614963 C431.509177,213.676257 431.804493,213.826011 431.804493,214.043347 C431.804493,214.333129 431.279487,215.164611 431.279487,215.164611 L431.15779,214.962919 C431.002786,214.697835 430.75478,214.242572 430.75478,214.043347 C430.75478,213.753566 431.279487,213.58393 431.279487,213.58393 Z M423.896913,213.58393 L423.978898,213.614963 C424.126472,213.676257 424.42162,213.826011 424.42162,214.043347 C424.42162,214.333129 423.896913,215.164611 423.896913,215.164611 L423.775146,214.962919 C423.620054,214.697835 423.371907,214.242572 423.371907,214.043347 C423.371907,213.753566 423.896913,213.58393 423.896913,213.58393 Z M434.970923,213.58393 L435.052956,213.614963 C435.200613,213.676257 435.495929,213.826011 435.495929,214.043347 C435.495929,214.333129 434.970923,215.164611 434.970923,215.164611 L434.849157,214.962919 C434.694065,214.697835 434.445918,214.242572 434.445918,214.043347 C434.445918,213.753566 434.970923,213.58393 434.970923,213.58393 Z M447.681664,213.986405 L447.627687,214.201353 C447.567561,214.424464 447.465861,214.754343 447.367733,214.85247 C447.215091,215.005112 446.849883,214.817887 446.849883,214.817887 L446.823061,214.758443 C446.777643,214.648587 446.701116,214.414593 446.815598,214.300335 C446.967942,214.147692 447.681664,213.986405 447.681664,213.986405 Z M414.660571,213.986405 L414.80562,214.02194 C415.022585,214.077863 415.417819,214.191304 415.526636,214.300335 C415.679279,214.452679 415.492053,214.817887 415.492053,214.817887 L415.432651,214.844756 C415.322865,214.890258 415.088983,214.966952 414.974501,214.85247 C414.821859,214.699828 414.660571,213.986405 414.660571,213.986405 Z M412.68308,213.074725 C412.68308,213.544279 413.064089,213.92499 413.533344,213.92499 C413.093417,213.92499 412.731051,214.259599 412.687473,214.68808 L412.682804,214.771935 L412.678693,214.68808 C412.63518,214.259599 412.27332,213.92499 411.833113,213.92499 C412.302667,213.92499 412.68308,213.544279 412.68308,213.074725 Z M449.659155,213.074725 C449.659155,213.544279 450.039568,213.92499 450.509121,213.92499 L450.422192,213.92938 C450.022048,213.970022 449.70389,214.288165 449.663247,214.68808 L449.65883,214.771935 L449.654466,214.68808 C449.610921,214.259599 449.248799,213.92499 448.808592,213.92499 C449.278146,213.92499 449.658857,213.544279 449.659155,213.074725 Z M414.240507,213.013907 C414.393149,213.166549 414.554437,213.879972 414.554437,213.879972 L414.409381,213.844444 C414.192399,213.788538 413.797103,213.675158 413.688073,213.56634 C413.535729,213.413698 413.722656,213.04849 413.722656,213.04849 L413.782105,213.021621 C413.891975,212.976119 414.126025,212.899425 414.240507,213.013907 Z M448.61928,213.04849 L448.646154,213.107939 C448.69167,213.217809 448.768419,213.451859 448.654161,213.56634 C448.501519,213.718684 447.787798,213.879972 447.787798,213.879972 L447.841774,213.665024 C447.9019,213.441913 448.003601,213.112034 448.101728,213.013907 C448.25437,212.861265 448.61928,213.04849 448.61928,213.04849 Z M416.057008,212.483833 L416.100945,212.581228 C416.175347,212.761224 416.300729,213.144637 416.113355,213.332011 C415.863522,213.581843 414.69426,213.846284 414.69426,213.846284 L414.772071,213.533889 C414.86893,213.168934 415.041978,212.593743 415.208532,212.427189 C415.458365,212.177356 416.057008,212.483833 416.057008,212.483833 Z M447.133702,212.427189 C447.383534,212.677021 447.647677,213.846284 447.647677,213.846284 L447.421838,213.791052 C447.069173,213.7005 446.409314,213.512445 446.22888,213.332011 C445.978749,213.082179 446.285226,212.483833 446.285226,212.483833 L446.342093,212.457197 C446.497364,212.388462 446.930471,212.2242 447.133702,212.427189 Z M449.051567,212.024118 L449.157327,212.201638 C449.250688,212.365573 449.372056,212.599645 449.372056,212.708623 C449.372056,212.885711 449.051567,212.989162 449.051567,212.989162 L449.011122,212.974163 C448.924955,212.939548 448.731078,212.846358 448.731078,212.708623 C448.731078,212.531534 449.051567,212.024118 449.051567,212.024118 Z M413.290667,212.024118 L413.396427,212.201638 C413.489787,212.365573 413.611156,212.599645 413.611156,212.708623 C413.611156,212.885711 413.290667,212.989162 413.290667,212.989162 L413.250221,212.974163 C413.164054,212.939548 412.970178,212.846358 412.970178,212.708623 C412.970178,212.531534 413.290667,212.024118 413.290667,212.024118 Z M444.422515,163.231094 L446.575008,165.383289 L446.575008,210.345948 L444.422515,212.498441 L417.919422,212.498441 L415.766929,210.345948 L415.766929,165.383289 L417.919422,163.231094 L444.422515,163.231094 Z M447.829238,211.437698 C448.119317,211.437698 448.950502,211.962703 448.950502,211.962703 L448.672213,212.128724 C448.403206,212.282447 448.010537,212.487411 447.829238,212.487411 C447.539158,212.487411 447.36982,211.962703 447.36982,211.962703 L447.400812,211.880671 C447.462035,211.733013 447.611678,211.437698 447.829238,211.437698 Z M414.512997,211.437698 C414.803077,211.437698 414.972116,211.962703 414.972116,211.962703 L414.941171,212.044689 C414.880031,212.192263 414.730557,212.487411 414.512997,212.487411 C414.222917,212.487411 413.391435,211.962703 413.391435,211.962703 L413.593136,211.840937 C413.85824,211.685845 414.313567,211.437698 414.512997,211.437698 Z M450.273897,211.437698 C450.563977,211.437698 450.733016,211.962703 450.733016,211.962703 L450.702071,212.044689 C450.640932,212.192263 450.491457,212.487411 450.273897,212.487411 C449.984116,212.487411 449.152633,211.962703 449.152633,211.962703 L449.354325,211.840937 C449.619409,211.685845 450.074672,211.437698 450.273897,211.437698 Z M412.068337,211.437698 C412.358417,211.437698 413.189601,211.962703 413.189601,211.962703 L412.911312,212.128724 C412.642306,212.282447 412.249637,212.487411 412.068337,212.487411 C411.778257,212.487411 411.60892,211.962703 411.60892,211.962703 L411.639911,211.880671 C411.701135,211.733013 411.850777,211.437698 412.068337,211.437698 Z M444.330095,163.454691 L418.011842,163.454691 L415.990525,165.476007 L415.990525,210.25323 L418.011842,212.274845 L444.330095,212.274845 L446.351411,210.25323 L446.351411,165.476007 L444.330095,163.454691 Z M413.290667,210.935946 L413.331113,210.950979 C413.41728,210.985664 413.611156,211.078982 413.611156,211.216486 C413.611156,211.393575 413.290667,211.900991 413.290667,211.900991 L413.184907,211.72347 C413.091547,211.559535 412.970178,211.325463 412.970178,211.216486 C412.970178,211.039695 413.290667,210.935946 413.290667,210.935946 Z M449.051567,210.935946 L449.092013,210.950979 C449.17818,210.985664 449.372056,211.078982 449.372056,211.216486 C449.372056,211.393575 449.051567,211.900991 449.051567,211.900991 L448.945808,211.72347 C448.852447,211.559535 448.731078,211.325463 448.731078,211.216486 C448.731078,211.039695 449.051567,210.935946 449.051567,210.935946 Z M413.891696,209.515658 C413.559878,209.847774 413.559878,210.386196 413.891696,210.718014 C413.559878,210.386196 413.021456,210.386196 412.68934,210.718014 L412.751335,210.649018 C413.01998,210.315323 412.999315,209.825633 412.68934,209.515658 C413.021456,209.847774 413.559878,209.847774 413.891696,209.515658 Z M449.652596,209.515658 C449.320778,209.847774 449.320778,210.386196 449.652596,210.718014 C449.320778,210.386196 448.782357,210.386196 448.450241,210.718014 L448.512236,210.649018 C448.780881,210.315323 448.760216,209.825633 448.450241,209.515658 C448.782357,209.847774 449.320778,209.847774 449.652596,209.515658 Z M449.051567,208.332682 L449.157327,208.510284 C449.250688,208.674278 449.372056,208.908392 449.372056,209.017186 C449.372056,209.194275 449.051567,209.297726 449.051567,209.297726 L449.011122,209.282727 C448.924955,209.248111 448.731078,209.154922 448.731078,209.017186 C448.731078,208.840396 449.051567,208.332682 449.051567,208.332682 Z M413.290667,208.332682 L413.363021,208.452454 C413.457549,208.613791 413.611156,208.894793 413.611156,209.017186 C413.611156,209.194275 413.290667,209.297726 413.290667,209.297726 L413.250221,209.282727 C413.164054,209.248111 412.970178,209.154922 412.970178,209.017186 C412.970178,208.840396 413.290667,208.332682 413.290667,208.332682 Z M414.512997,207.746261 C414.803077,207.746261 414.972116,208.271267 414.972116,208.271267 L414.941171,208.353253 C414.880031,208.500827 414.730557,208.795974 414.512997,208.795974 C414.222917,208.795974 413.391435,208.271267 413.391435,208.271267 L413.593136,208.149501 C413.85824,207.994409 414.313567,207.746261 414.512997,207.746261 Z M450.273897,207.746261 C450.563977,207.746261 450.733016,208.271267 450.733016,208.271267 L450.702071,208.353253 C450.640932,208.500827 450.491457,208.795974 450.273897,208.795974 C449.984116,208.795974 449.152633,208.271267 449.152633,208.271267 L449.354325,208.149501 C449.619409,207.994409 450.074672,207.746261 450.273897,207.746261 Z M447.829238,207.746261 C448.119317,207.746261 448.950502,208.271267 448.950502,208.271267 L448.816097,208.353253 C448.568728,208.500827 448.046797,208.795974 447.829238,208.795974 C447.539158,208.795974 447.36982,208.271267 447.36982,208.271267 L447.400812,208.189235 C447.462035,208.041577 447.611678,207.746261 447.829238,207.746261 Z M412.068337,207.746261 C412.358417,207.746261 413.189601,208.271267 413.189601,208.271267 L413.055196,208.353253 C412.807828,208.500827 412.285897,208.795974 412.068337,208.795974 C411.778257,208.795974 411.60892,208.271267 411.60892,208.271267 L411.639911,208.189235 C411.701135,208.041577 411.850777,207.746261 412.068337,207.746261 Z M413.290667,207.244808 L413.331113,207.259804 C413.41728,207.294408 413.611156,207.387546 413.611156,207.52505 C413.611156,207.702138 413.290667,208.209554 413.290667,208.209554 L413.184907,208.032034 C413.091547,207.868099 412.970178,207.634027 412.970178,207.52505 C412.970178,207.348259 413.290667,207.244808 413.290667,207.244808 Z M449.051567,207.244808 L449.092013,207.259804 C449.17818,207.294408 449.372056,207.387546 449.372056,207.52505 C449.372056,207.702138 449.051567,208.209554 449.051567,208.209554 L448.979213,208.08984 C448.884686,207.928572 448.731078,207.647649 448.731078,207.52505 C448.731078,207.348259 449.051567,207.244808 449.051567,207.244808 Z M413.891696,205.824222 C413.559878,206.156338 413.559878,206.69476 413.891696,207.026577 C413.559878,206.69476 413.021456,206.69476 412.68934,207.026577 L412.751335,206.957582 C413.01998,206.623887 412.999315,206.134197 412.68934,205.824222 C413.021456,206.156338 413.559878,206.156338 413.891696,205.824222 Z M449.652596,205.824222 C449.320778,206.156338 449.320778,206.69476 449.652596,207.026577 C449.320778,206.69476 448.782357,206.69476 448.450241,207.026577 L448.512236,206.957582 C448.780881,206.623887 448.760216,206.134197 448.450241,205.824222 C448.782357,206.156338 449.320778,206.156338 449.652596,205.824222 Z M413.290667,204.641544 L413.396427,204.819064 C413.489787,204.982999 413.611156,205.217071 413.611156,205.326048 C413.611156,205.502839 413.290667,205.60629 413.290667,205.60629 L413.250221,205.591294 C413.164054,205.55669 412.970178,205.463552 412.970178,205.326048 C412.970178,205.148959 413.290667,204.641544 413.290667,204.641544 Z M449.051567,204.641544 L449.157327,204.819064 C449.250688,204.982999 449.372056,205.217071 449.372056,205.326048 C449.372056,205.502839 449.051567,205.60629 449.051567,205.60629 L449.011122,205.591294 C448.924955,205.55669 448.731078,205.463552 448.731078,205.326048 C448.731078,205.148959 449.051567,204.641544 449.051567,204.641544 Z M412.068337,204.054825 C412.358417,204.054825 413.189601,204.579831 413.189601,204.579831 L412.987969,204.701528 C412.722953,204.856532 412.267767,205.104538 412.068337,205.104538 C411.778257,205.104538 411.60892,204.579831 411.60892,204.579831 L411.639911,204.497799 C411.701135,204.350141 411.850777,204.054825 412.068337,204.054825 Z M450.273897,204.054825 C450.563977,204.054825 450.733016,204.579831 450.733016,204.579831 L450.702071,204.661816 C450.640932,204.80939 450.491457,205.104538 450.273897,205.104538 C449.984116,205.104538 449.152633,204.579831 449.152633,204.579831 L449.354325,204.458064 C449.619409,204.302972 450.074672,204.054825 450.273897,204.054825 Z M414.512997,204.054825 C414.803077,204.054825 414.972116,204.579831 414.972116,204.579831 L414.941171,204.661816 C414.880031,204.80939 414.730557,205.104538 414.512997,205.104538 C414.222917,205.104538 413.391435,204.579831 413.391435,204.579831 L413.47008,204.531381 C413.684207,204.401411 414.277307,204.054825 414.512997,204.054825 Z M447.829238,204.054825 C448.119317,204.054825 448.950502,204.579831 448.950502,204.579831 L448.74887,204.701528 C448.483854,204.856532 448.028667,205.104538 447.829238,205.104538 C447.539158,205.104538 447.36982,204.579831 447.36982,204.579831 L447.400812,204.497799 C447.462035,204.350141 447.611678,204.054825 447.829238,204.054825 Z M449.051567,203.553372 L449.092013,203.568367 C449.17818,203.602972 449.372056,203.696109 449.372056,203.833613 C449.372056,204.010702 449.051567,204.518118 449.051567,204.518118 L448.979213,204.398404 C448.884686,204.237136 448.731078,203.956213 448.731078,203.833613 C448.731078,203.656823 449.051567,203.553372 449.051567,203.553372 Z M413.290667,203.553372 L413.331113,203.568367 C413.41728,203.602972 413.611156,203.696109 413.611156,203.833613 C413.611156,204.010702 413.290667,204.518118 413.290667,204.518118 L413.184907,204.340597 C413.091547,204.176663 412.970178,203.942591 412.970178,203.833613 C412.970178,203.656823 413.290667,203.553372 413.290667,203.553372 Z M413.891696,202.133084 C413.559878,202.464902 413.559878,203.003323 413.891696,203.335439 C413.559878,203.003323 413.021456,203.003323 412.68934,203.335439 L412.751335,203.266388 C413.01998,202.932452 412.999315,202.442781 412.68934,202.133084 C413.021456,202.464902 413.559878,202.464902 413.891696,202.133084 Z M449.652596,202.133084 C449.320778,202.464902 449.320778,203.003323 449.652596,203.335439 C449.320778,203.003323 448.782357,203.003323 448.450241,203.335439 L448.512236,203.266388 C448.780881,202.932452 448.760216,202.442781 448.450241,202.133084 C448.782357,202.464902 449.320778,202.464902 449.652596,202.133084 Z M413.290667,200.950107 L413.363021,201.069821 C413.457549,201.23109 413.611156,201.512012 413.611156,201.634612 C413.611156,201.811403 413.290667,201.914854 413.290667,201.914854 L413.250221,201.899858 C413.164054,201.865254 412.970178,201.772116 412.970178,201.634612 C412.970178,201.457523 413.290667,200.950107 413.290667,200.950107 Z M449.051567,200.950107 L449.157327,201.127628 C449.250688,201.291562 449.372056,201.525634 449.372056,201.634612 C449.372056,201.811403 449.051567,201.914854 449.051567,201.914854 L449.011122,201.899858 C448.924955,201.865254 448.731078,201.772116 448.731078,201.634612 C448.731078,201.457523 449.051567,200.950107 449.051567,200.950107 Z M450.273897,200.363687 C450.563977,200.363687 450.733016,200.888395 450.733016,200.888395 L450.702071,200.970427 C450.640932,201.118084 450.491457,201.4134 450.273897,201.4134 C449.984116,201.4134 449.152633,200.888395 449.152633,200.888395 L449.354325,200.766697 C449.619409,200.611693 450.074672,200.363687 450.273897,200.363687 Z M414.512997,200.363687 C414.803077,200.363687 414.972116,200.888395 414.972116,200.888395 L414.941171,200.970427 C414.880031,201.118084 414.730557,201.4134 414.512997,201.4134 C414.222917,201.4134 413.391435,200.888395 413.391435,200.888395 L413.593136,200.766697 C413.85824,200.611693 414.313567,200.363687 414.512997,200.363687 Z M447.829238,200.363687 C448.119317,200.363687 448.950502,200.888395 448.950502,200.888395 L448.871883,200.936845 C448.657831,201.066814 448.064927,201.4134 447.829238,201.4134 C447.539158,201.4134 447.36982,200.888395 447.36982,200.888395 L447.400812,200.806409 C447.462035,200.658835 447.611678,200.363687 447.829238,200.363687 Z M412.068337,200.363687 C412.358417,200.363687 413.189601,200.888395 413.189601,200.888395 L412.987969,201.010161 C412.722953,201.165253 412.267767,201.4134 412.068337,201.4134 C411.778257,201.4134 411.60892,200.888395 411.60892,200.888395 L411.639911,200.806409 C411.701135,200.658835 411.850777,200.363687 412.068337,200.363687 Z M413.290667,199.861936 L413.331113,199.876931 C413.41728,199.911535 413.611156,200.004673 413.611156,200.142177 C413.611156,200.319266 413.290667,200.826682 413.290667,200.826682 L413.184907,200.649161 C413.091547,200.485227 412.970178,200.251155 412.970178,200.142177 C412.970178,199.965386 413.290667,199.861936 413.290667,199.861936 Z M449.051567,199.861936 L449.092013,199.876931 C449.17818,199.911535 449.372056,200.004673 449.372056,200.142177 C449.372056,200.319266 449.051567,200.826682 449.051567,200.826682 L448.945808,200.649161 C448.852447,200.485227 448.731078,200.251155 448.731078,200.142177 C448.731078,199.965386 449.051567,199.861936 449.051567,199.861936 Z M412.68934,198.44135 C413.021456,198.773466 413.559878,198.773764 413.891696,198.441648 C413.559878,198.773764 413.559878,199.311887 413.891696,199.643705 C413.559878,199.311887 413.021456,199.311887 412.68934,199.644003 L412.751335,199.574713 C413.000791,199.264886 413.000791,198.820747 412.751335,198.510696 L412.68934,198.44135 Z M448.450241,198.44135 C448.782357,198.773466 449.320778,198.773764 449.652596,198.441648 C449.320778,198.773764 449.320778,199.311887 449.652596,199.643705 C449.320778,199.311887 448.782357,199.311887 448.450241,199.644003 L448.512236,199.574713 C448.761692,199.264886 448.761692,198.820747 448.512236,198.510696 L448.450241,198.44135 Z M449.051567,197.258671 L449.157327,197.436192 C449.250688,197.600126 449.372056,197.834198 449.372056,197.943176 C449.372056,198.119966 449.051567,198.223417 449.051567,198.223417 L449.011122,198.208422 C448.924955,198.173817 448.731078,198.08068 448.731078,197.943176 C448.731078,197.766087 449.051567,197.258671 449.051567,197.258671 Z M413.290667,197.258671 L413.363021,197.378385 C413.457549,197.539653 413.611156,197.820576 413.611156,197.943176 C413.611156,198.119966 413.290667,198.223417 413.290667,198.223417 L413.250221,198.208422 C413.164054,198.173817 412.970178,198.08068 412.970178,197.943176 C412.970178,197.766087 413.290667,197.258671 413.290667,197.258671 Z M450.273897,196.672251 C450.563977,196.672251 450.733016,197.196958 450.733016,197.196958 L450.702071,197.27899 C450.640932,197.426648 450.491457,197.721964 450.273897,197.721964 C449.984116,197.721964 449.152633,197.196958 449.152633,197.196958 L449.28708,197.114973 C449.534518,196.967399 450.056561,196.672251 450.273897,196.672251 Z M414.512997,196.672251 C414.803077,196.672251 414.972116,197.196958 414.972116,197.196958 L414.941171,197.27899 C414.880031,197.426648 414.730557,197.721964 414.512997,197.721964 C414.222917,197.721964 413.391435,197.196958 413.391435,197.196958 L413.593136,197.075261 C413.85824,196.920257 414.313567,196.672251 414.512997,196.672251 Z M412.068337,196.672251 C412.358417,196.672251 413.189601,197.196958 413.189601,197.196958 L412.987969,197.318725 C412.722953,197.473817 412.267767,197.721964 412.068337,197.721964 C411.778257,197.721964 411.60892,197.196958 411.60892,197.196958 L411.639911,197.114973 C411.701135,196.967399 411.850777,196.672251 412.068337,196.672251 Z M447.829238,196.672251 C448.119317,196.672251 448.950502,197.196958 448.950502,197.196958 L448.74887,197.318725 C448.483854,197.473817 448.028667,197.721964 447.829238,197.721964 C447.539158,197.721964 447.36982,197.196958 447.36982,197.196958 L447.400812,197.114973 C447.462035,196.967399 447.611678,196.672251 447.829238,196.672251 Z M449.051567,196.170499 L449.092013,196.185498 C449.17818,196.220114 449.372056,196.313303 449.372056,196.451039 C449.372056,196.62783 449.051567,197.135246 449.051567,197.135246 L448.979213,197.01554 C448.884686,196.854291 448.731078,196.573432 448.731078,196.451039 C448.731078,196.27395 449.051567,196.170499 449.051567,196.170499 Z M413.290667,196.170499 L413.331113,196.185498 C413.41728,196.220114 413.611156,196.313303 413.611156,196.451039 C413.611156,196.62783 413.290667,197.135246 413.290667,197.135246 L413.184907,196.957742 C413.091547,196.793835 412.970178,196.559833 412.970178,196.451039 C412.970178,196.27395 413.290667,196.170499 413.290667,196.170499 Z M413.891696,194.750212 C413.559878,195.082328 413.559878,195.620451 413.891696,195.952567 C413.559878,195.620451 413.021456,195.620451 412.68934,195.952567 L412.751335,195.883519 C413.01998,195.549617 412.999315,195.060187 412.68934,194.750212 C413.021456,195.082029 413.559878,195.082029 413.891696,194.750212 Z M449.652596,194.750212 C449.320778,195.082328 449.320778,195.620451 449.652596,195.952567 C449.320778,195.620451 448.782357,195.620451 448.450241,195.952567 L448.512236,195.883519 C448.780881,195.549617 448.760216,195.060187 448.450241,194.750212 C448.782357,195.082029 449.320778,195.082029 449.652596,194.750212 Z M449.051567,193.567235 L449.157327,193.744755 C449.250688,193.90869 449.372056,194.142762 449.372056,194.25174 C449.372056,194.42853 449.051567,194.531981 449.051567,194.531981 L449.011122,194.516985 C448.924955,194.482381 448.731078,194.389243 448.731078,194.25174 C448.731078,194.074651 449.051567,193.567235 449.051567,193.567235 Z M413.290667,193.567235 L413.396427,193.744755 C413.489787,193.90869 413.611156,194.142762 413.611156,194.25174 C413.611156,194.42853 413.290667,194.531981 413.290667,194.531981 L413.250221,194.516985 C413.164054,194.482381 412.970178,194.389243 412.970178,194.25174 C412.970178,194.074651 413.290667,193.567235 413.290667,193.567235 Z M450.273897,192.980815 C450.563977,192.980815 450.733016,193.50582 450.733016,193.50582 L450.702071,193.587806 C450.640932,193.73538 450.491457,194.030528 450.273897,194.030528 C449.984116,194.030528 449.152633,193.50582 449.152633,193.50582 L449.354325,193.384054 C449.619409,193.228962 450.074672,192.980815 450.273897,192.980815 Z M412.068337,192.980815 C412.358417,192.980815 413.189601,193.50582 413.189601,193.50582 L412.987969,193.627517 C412.722953,193.782521 412.267767,194.030528 412.068337,194.030528 C411.778257,194.030528 411.60892,193.50582 411.60892,193.50582 L411.639911,193.423788 C411.701135,193.27613 411.850777,192.980815 412.068337,192.980815 Z M447.829238,192.980815 C448.119317,192.980815 448.950502,193.50582 448.950502,193.50582 L448.871883,193.554243 C448.657831,193.684139 448.064927,194.030528 447.829238,194.030528 C447.539158,194.030528 447.36982,193.50582 447.36982,193.50582 L447.400812,193.423788 C447.462035,193.27613 447.611678,192.980815 447.829238,192.980815 Z M414.512997,192.980815 C414.803077,192.980815 414.972116,193.50582 414.972116,193.50582 L414.941171,193.587806 C414.880031,193.73538 414.730557,194.030528 414.512997,194.030528 C414.222917,194.030528 413.391435,193.50582 413.391435,193.50582 L413.593136,193.384054 C413.85824,193.228962 414.313567,192.980815 414.512997,192.980815 Z M413.290667,192.479063 L413.331113,192.494062 C413.41728,192.528678 413.611156,192.621867 413.611156,192.759603 C413.611156,192.936393 413.290667,193.444107 413.290667,193.444107 L413.184907,193.266505 C413.091547,193.102511 412.970178,192.868397 412.970178,192.759603 C412.970178,192.582514 413.290667,192.479063 413.290667,192.479063 Z M449.051567,192.479063 L449.092013,192.494062 C449.17818,192.528678 449.372056,192.621867 449.372056,192.759603 C449.372056,192.936393 449.051567,193.444107 449.051567,193.444107 L448.945808,193.266505 C448.852447,193.102511 448.731078,192.868397 448.731078,192.759603 C448.731078,192.582514 449.051567,192.479063 449.051567,192.479063 Z M413.891696,191.058775 C413.559878,191.390593 413.559878,191.929015 413.891696,192.261131 C413.559878,191.929313 413.021456,191.929313 412.68934,192.261131 L412.751335,192.192131 C413.01998,191.858403 412.999315,191.368472 412.68934,191.058775 C413.021456,191.390593 413.559878,191.390593 413.891696,191.058775 Z M449.652596,191.058775 C449.320778,191.390593 449.320778,191.929015 449.652596,192.261131 C449.320778,191.929313 448.782357,191.929313 448.450241,192.261131 L448.512236,192.192131 C448.780881,191.858403 448.760216,191.368472 448.450241,191.058775 C448.782357,191.390593 449.320778,191.390593 449.652596,191.058775 Z M449.051567,189.875799 L449.157327,190.053319 C449.250688,190.217254 449.372056,190.451326 449.372056,190.560303 C449.372056,190.737094 449.051567,190.840843 449.051567,190.840843 L449.011122,190.82581 C448.924955,190.791125 448.731078,190.697807 448.731078,190.560303 C448.731078,190.383215 449.051567,189.875799 449.051567,189.875799 Z M413.290667,189.875799 L413.363021,189.995513 C413.457549,190.156781 413.611156,190.437703 413.611156,190.560303 C413.611156,190.737094 413.290667,190.840843 413.290667,190.840843 L413.250221,190.82581 C413.164054,190.791125 412.970178,190.697807 412.970178,190.560303 C412.970178,190.383215 413.290667,189.875799 413.290667,189.875799 Z M447.829238,189.289378 C448.119317,189.289378 448.950502,189.814384 448.950502,189.814384 L448.74887,189.936081 C448.483854,190.091085 448.028667,190.339091 447.829238,190.339091 C447.539158,190.339091 447.36982,189.814384 447.36982,189.814384 L447.400812,189.732352 C447.462035,189.584694 447.611678,189.289378 447.829238,189.289378 Z M414.512997,189.289378 C414.803077,189.289378 414.972116,189.814384 414.972116,189.814384 L414.941171,189.896369 C414.880031,190.043943 414.730557,190.339091 414.512997,190.339091 C414.222917,190.339091 413.391435,189.814384 413.391435,189.814384 L413.593136,189.692618 C413.85824,189.537526 414.313567,189.289378 414.512997,189.289378 Z M412.068337,189.289378 C412.358417,189.289378 413.189601,189.814384 413.189601,189.814384 L412.987969,189.936081 C412.722953,190.091085 412.267767,190.339091 412.068337,190.339091 C411.778257,190.339091 411.60892,189.814384 411.60892,189.814384 L411.639911,189.732352 C411.701135,189.584694 411.850777,189.289378 412.068337,189.289378 Z M450.273897,189.289378 C450.563977,189.289378 450.733016,189.814384 450.733016,189.814384 L450.702071,189.896369 C450.640932,190.043943 450.491457,190.339091 450.273897,190.339091 C449.984116,190.339091 449.152633,189.814384 449.152633,189.814384 L449.28708,189.732352 C449.534518,189.584694 450.056561,189.289378 450.273897,189.289378 Z M449.051567,188.787627 L449.092013,188.80266 C449.17818,188.837345 449.372056,188.930663 449.372056,189.068166 C449.372056,189.245255 449.051567,189.752671 449.051567,189.752671 L448.979213,189.632957 C448.884686,189.471689 448.731078,189.190766 448.731078,189.068166 C448.731078,188.891376 449.051567,188.787627 449.051567,188.787627 Z M413.290667,188.787627 L413.331113,188.80266 C413.41728,188.837345 413.611156,188.930663 413.611156,189.068166 C413.611156,189.245255 413.290667,189.752671 413.290667,189.752671 L413.184907,189.575151 C413.091547,189.411216 412.970178,189.177144 412.970178,189.068166 C412.970178,188.891376 413.290667,188.787627 413.290667,188.787627 Z M449.652596,187.367339 C449.320778,187.699455 449.320778,188.237578 449.652596,188.569694 C449.320778,188.237578 448.782357,188.237877 448.450241,188.569694 L448.512236,188.500647 C448.780881,188.166744 448.760216,187.677314 448.450241,187.367339 C448.782357,187.699455 449.320778,187.699455 449.652596,187.367339 Z M413.891696,187.367339 C413.559878,187.699455 413.559878,188.237578 413.891696,188.569694 C413.559878,188.237578 413.021456,188.237877 412.68934,188.569694 L412.751335,188.500647 C413.01998,188.166744 412.999315,187.677314 412.68934,187.367339 C413.021456,187.699455 413.559878,187.699455 413.891696,187.367339 Z M449.051567,186.184362 L449.157327,186.361964 C449.250688,186.525958 449.372056,186.760073 449.372056,186.868867 C449.372056,187.045956 449.051567,187.149407 449.051567,187.149407 L449.011122,187.134408 C448.924955,187.099792 448.731078,187.006603 448.731078,186.868867 C448.731078,186.692076 449.051567,186.184362 449.051567,186.184362 Z M413.290667,186.184362 L413.363021,186.304135 C413.457549,186.465472 413.611156,186.746474 413.611156,186.868867 C413.611156,187.045956 413.290667,187.149407 413.290667,187.149407 L413.250221,187.134408 C413.164054,187.099792 412.970178,187.006603 412.970178,186.868867 C412.970178,186.692076 413.290667,186.184362 413.290667,186.184362 Z M412.068337,185.597942 C412.358417,185.597942 413.189601,186.12265 413.189601,186.12265 L412.987969,186.244416 C412.722953,186.399508 412.267767,186.647655 412.068337,186.647655 C411.778257,186.647655 411.60892,186.12265 411.60892,186.12265 L411.639911,186.040664 C411.701135,185.89309 411.850777,185.597942 412.068337,185.597942 Z M447.829238,185.597942 C448.119317,185.597942 448.950502,186.12265 448.950502,186.12265 L448.74887,186.244416 C448.483854,186.399508 448.028667,186.647655 447.829238,186.647655 C447.539158,186.647655 447.36982,186.12265 447.36982,186.12265 L447.400812,186.040664 C447.462035,185.89309 447.611678,185.597942 447.829238,185.597942 Z M450.273897,185.597942 C450.563977,185.597942 450.733016,186.12265 450.733016,186.12265 L450.702071,186.204682 C450.640932,186.35234 450.491457,186.647655 450.273897,186.647655 C449.984116,186.647655 449.152633,186.12265 449.152633,186.12265 L449.28708,186.040664 C449.534518,185.89309 450.056561,185.597942 450.273897,185.597942 Z M414.512997,185.597942 C414.803077,185.597942 414.972116,186.12265 414.972116,186.12265 L414.941171,186.204682 C414.880031,186.35234 414.730557,186.647655 414.512997,186.647655 C414.222917,186.647655 413.391435,186.12265 413.391435,186.12265 L413.593136,186.000952 C413.85824,185.845948 414.313567,185.597942 414.512997,185.597942 Z M449.051567,185.096489 L449.092013,185.111484 C449.17818,185.146089 449.372056,185.239226 449.372056,185.37673 C449.372056,185.553819 449.051567,186.061235 449.051567,186.061235 L448.945808,185.883714 C448.852447,185.71978 448.731078,185.485708 448.731078,185.37673 C448.731078,185.19994 449.051567,185.096489 449.051567,185.096489 Z M413.290667,185.096489 L413.331113,185.111484 C413.41728,185.146089 413.611156,185.239226 413.611156,185.37673 C413.611156,185.553819 413.290667,186.061235 413.290667,186.061235 L413.184907,185.883714 C413.091547,185.71978 412.970178,185.485708 412.970178,185.37673 C412.970178,185.19994 413.290667,185.096489 413.290667,185.096489 Z M449.652596,183.675903 C449.320778,184.008019 449.320778,184.54644 449.652596,184.878258 C449.320778,184.54644 448.782357,184.54644 448.450241,184.878258 L448.512236,184.809262 C448.780881,184.475568 448.760216,183.985878 448.450241,183.675903 C448.782357,184.008019 449.320778,184.008019 449.652596,183.675903 Z M413.891696,183.675903 C413.559878,184.008019 413.559878,184.54644 413.891696,184.878258 C413.559878,184.54644 413.021456,184.54644 412.68934,184.878258 L412.751335,184.809262 C413.01998,184.475568 412.999315,183.985878 412.68934,183.675903 C413.021456,184.008019 413.559878,184.008019 413.891696,183.675903 Z M449.051567,182.493224 L449.157327,182.670745 C449.250688,182.834679 449.372056,183.068751 449.372056,183.177729 C449.372056,183.35452 449.051567,183.45797 449.051567,183.45797 L449.011122,183.442975 C448.924955,183.408371 448.731078,183.315233 448.731078,183.177729 C448.731078,183.00064 449.051567,182.493224 449.051567,182.493224 Z M413.290667,182.493224 L413.363021,182.612938 C413.457549,182.774207 413.611156,183.055129 413.611156,183.177729 C413.611156,183.35452 413.290667,183.45797 413.290667,183.45797 L413.207577,183.424602 C413.112618,183.380854 412.970178,183.295589 412.970178,183.177729 C412.970178,183.00064 413.290667,182.493224 413.290667,182.493224 Z M450.273897,181.906506 C450.563977,181.906506 450.733016,182.431511 450.733016,182.431511 L450.702071,182.513497 C450.640932,182.661071 450.491457,182.956219 450.273897,182.956219 C449.984116,182.956219 449.152633,182.431511 449.152633,182.431511 L449.354325,182.309745 C449.619409,182.154653 450.074672,181.906506 450.273897,181.906506 Z M414.512997,181.906506 C414.803077,181.906506 414.972116,182.431511 414.972116,182.431511 L414.941171,182.513497 C414.880031,182.661071 414.730557,182.956219 414.512997,182.956219 C414.222917,182.956219 413.391435,182.431511 413.391435,182.431511 L413.593136,182.309745 C413.85824,182.154653 414.313567,181.906506 414.512997,181.906506 Z M412.068337,181.906506 C412.358417,181.906506 413.189601,182.431511 413.189601,182.431511 L413.055196,182.513497 C412.807828,182.661071 412.285897,182.956219 412.068337,182.956219 C411.778257,182.956219 411.60892,182.431511 411.60892,182.431511 L411.639911,182.349479 C411.701135,182.201822 411.850777,181.906506 412.068337,181.906506 Z M447.829238,181.906506 C448.119317,181.906506 448.950502,182.431511 448.950502,182.431511 L448.816097,182.513497 C448.568728,182.661071 448.046797,182.956219 447.829238,182.956219 C447.539158,182.956219 447.36982,182.431511 447.36982,182.431511 L447.400812,182.349479 C447.462035,182.201822 447.611678,181.906506 447.829238,181.906506 Z M413.290667,181.405053 L413.331113,181.420048 C413.41728,181.454652 413.611156,181.54779 413.611156,181.685294 C413.611156,181.862383 413.290667,182.369799 413.290667,182.369799 L413.184907,182.192278 C413.091547,182.028344 412.970178,181.794272 412.970178,181.685294 C412.970178,181.508503 413.290667,181.405053 413.290667,181.405053 Z M449.051567,181.405053 L449.092013,181.420048 C449.17818,181.454652 449.372056,181.54779 449.372056,181.685294 C449.372056,181.862383 449.051567,182.369799 449.051567,182.369799 L448.979213,182.250085 C448.884686,182.088816 448.731078,181.807894 448.731078,181.685294 C448.731078,181.508503 449.051567,181.405053 449.051567,181.405053 Z M413.891696,179.984765 C413.559878,180.316583 413.559878,180.855004 413.891696,181.186822 C413.559878,180.855004 413.021456,180.855004 412.68934,181.186822 L412.751335,181.117826 C413.01998,180.784133 412.999315,180.294461 412.68934,179.984765 C413.021456,180.316583 413.559878,180.316583 413.891696,179.984765 Z M449.652596,179.984765 C449.320778,180.316583 449.320778,180.855004 449.652596,181.186822 C449.320778,180.855004 448.782357,180.855004 448.450241,181.186822 L448.512236,181.117826 C448.780881,180.784133 448.760216,180.294461 448.450241,179.984765 C448.782357,180.316583 449.320778,180.316583 449.652596,179.984765 Z M413.290667,178.801788 L413.363021,178.921502 C413.457549,179.08277 413.611156,179.363693 413.611156,179.486293 C413.611156,179.663083 413.290667,179.766534 413.290667,179.766534 L413.250221,179.751539 C413.164054,179.716934 412.970178,179.623797 412.970178,179.486293 C412.970178,179.309204 413.290667,178.801788 413.290667,178.801788 Z M449.051567,178.801788 L449.157327,178.979309 C449.250688,179.143243 449.372056,179.377315 449.372056,179.486293 C449.372056,179.663083 449.051567,179.766534 449.051567,179.766534 L449.011122,179.751539 C448.924955,179.716934 448.731078,179.623797 448.731078,179.486293 C448.731078,179.309204 449.051567,178.801788 449.051567,178.801788 Z M414.512997,178.215368 C414.803077,178.215368 414.972116,178.740075 414.972116,178.740075 L414.941171,178.822107 C414.880031,178.969765 414.730557,179.265081 414.512997,179.265081 C414.222917,179.265081 413.391435,178.740075 413.391435,178.740075 L413.593136,178.618378 C413.85824,178.463374 414.313567,178.215368 414.512997,178.215368 Z M412.068337,178.215368 C412.358417,178.215368 413.189601,178.740075 413.189601,178.740075 L412.987969,178.861842 C412.722953,179.016934 412.267767,179.265081 412.068337,179.265081 C411.778257,179.265081 411.60892,178.740075 411.60892,178.740075 L411.639911,178.65809 C411.701135,178.510516 411.850777,178.215368 412.068337,178.215368 Z M447.829238,178.215368 C448.119317,178.215368 448.950502,178.740075 448.950502,178.740075 L448.74887,178.861842 C448.483854,179.016934 448.028667,179.265081 447.829238,179.265081 C447.539158,179.265081 447.36982,178.740075 447.36982,178.740075 L447.400812,178.65809 C447.462035,178.510516 447.611678,178.215368 447.829238,178.215368 Z M450.273897,178.215368 C450.563977,178.215368 450.733016,178.740075 450.733016,178.740075 L450.702071,178.822107 C450.640932,178.969765 450.491457,179.265081 450.273897,179.265081 C449.984116,179.265081 449.152633,178.740075 449.152633,178.740075 L449.28708,178.65809 C449.534518,178.510516 450.056561,178.215368 450.273897,178.215368 Z M449.051567,177.713616 L449.134657,177.746985 C449.229617,177.790732 449.372056,177.875997 449.372056,177.993858 C449.372056,178.170947 449.051567,178.678362 449.051567,178.678362 L448.979213,178.558648 C448.884686,178.39738 448.731078,178.116458 448.731078,177.993858 C448.731078,177.817067 449.051567,177.713616 449.051567,177.713616 Z M413.290667,177.713616 L413.331113,177.728612 C413.41728,177.763216 413.611156,177.856354 413.611156,177.993858 C413.611156,178.170947 413.290667,178.678362 413.290667,178.678362 L413.184907,178.500842 C413.091547,178.336907 412.970178,178.102835 412.970178,177.993858 C412.970178,177.817067 413.290667,177.713616 413.290667,177.713616 Z M413.891696,176.293329 C413.559878,176.625146 413.559878,177.163568 413.891696,177.495386 C413.559878,177.163568 413.021456,177.163568 412.68934,177.495386 L412.751335,177.42639 C413.01998,177.092697 412.999315,176.603025 412.68934,176.293329 L412.758392,176.355026 C413.092328,176.623672 413.581999,176.603025 413.891696,176.293329 Z M449.652596,176.293329 C449.320778,176.625146 449.320778,177.163568 449.652596,177.495386 C449.320778,177.163568 448.782357,177.163568 448.450241,177.495386 L448.512236,177.42639 C448.780881,177.092697 448.760216,176.603025 448.450241,176.293329 L448.519292,176.355026 C448.853228,176.623672 449.342899,176.603025 449.652596,176.293329 Z M449.051567,175.110352 L449.157327,175.287872 C449.250688,175.451807 449.372056,175.685879 449.372056,175.794856 C449.372056,175.971647 449.051567,176.075098 449.051567,176.075098 L449.011122,176.060102 C448.924955,176.025498 448.731078,175.93236 448.731078,175.794856 C448.731078,175.617768 449.051567,175.110352 449.051567,175.110352 Z M413.290667,175.110352 L413.396427,175.287872 C413.489787,175.451807 413.611156,175.685879 413.611156,175.794856 C413.611156,175.971647 413.290667,176.075098 413.290667,176.075098 L413.250221,176.060102 C413.164054,176.025498 412.970178,175.93236 412.970178,175.794856 C412.970178,175.617768 413.290667,175.110352 413.290667,175.110352 Z M414.512997,174.523932 C414.803077,174.523932 414.972116,175.048639 414.972116,175.048639 L414.941171,175.130671 C414.880031,175.278329 414.730557,175.573645 414.512997,175.573645 C414.222917,175.573645 413.391435,175.048639 413.391435,175.048639 L413.593136,174.926942 C413.85824,174.771938 414.313567,174.523932 414.512997,174.523932 Z M450.273897,174.523932 C450.563977,174.523932 450.733016,175.048639 450.733016,175.048639 L450.702071,175.130671 C450.640932,175.278329 450.491457,175.573645 450.273897,175.573645 C449.984116,175.573645 449.152633,175.048639 449.152633,175.048639 L449.354325,174.926942 C449.619409,174.771938 450.074672,174.523932 450.273897,174.523932 Z M412.068337,174.523932 C412.358417,174.523932 413.189601,175.048639 413.189601,175.048639 L412.911312,175.214754 C412.642306,175.368564 412.249637,175.573645 412.068337,175.573645 C411.778257,175.573645 411.60892,175.048639 411.60892,175.048639 L411.639911,174.966653 C411.701135,174.819079 411.850777,174.523932 412.068337,174.523932 Z M447.829238,174.523932 C448.119317,174.523932 448.950502,175.048639 448.950502,175.048639 L448.672213,175.214754 C448.403206,175.368564 448.010537,175.573645 447.829238,175.573645 C447.539158,175.573645 447.36982,175.048639 447.36982,175.048639 L447.400812,174.966653 C447.462035,174.819079 447.611678,174.523932 447.829238,174.523932 Z M449.051567,174.02218 L449.092013,174.037179 C449.17818,174.071795 449.372056,174.164984 449.372056,174.30272 C449.372056,174.47951 449.051567,174.986926 449.051567,174.986926 L448.945808,174.809423 C448.852447,174.645515 448.731078,174.411514 448.731078,174.30272 C448.731078,174.125631 449.051567,174.02218 449.051567,174.02218 Z M413.290667,174.02218 L413.331113,174.037179 C413.41728,174.071795 413.611156,174.164984 413.611156,174.30272 C413.611156,174.47951 413.290667,174.986926 413.290667,174.986926 L413.184907,174.809423 C413.091547,174.645515 412.970178,174.411514 412.970178,174.30272 C412.970178,174.125631 413.290667,174.02218 413.290667,174.02218 Z M449.652596,172.601892 C449.320778,172.93371 449.320778,173.472132 449.652596,173.804248 C449.320778,173.472132 448.782357,173.472132 448.450241,173.804248 L448.512236,173.735196 C448.761692,173.425112 448.761692,172.98073 448.512236,172.670646 L448.450722,172.601705 L448.519292,172.663589 C448.829375,172.913046 449.273741,172.913063 449.5836,172.663832 L449.652596,172.601892 Z M413.891696,172.601892 C413.559878,172.93371 413.559878,173.472132 413.891696,173.804248 C413.559878,173.472132 413.021456,173.472132 412.68934,173.804248 L412.751335,173.735196 C413.000791,173.425112 413.000791,172.98073 412.751335,172.670646 L412.689406,172.601705 L412.758392,172.663589 C413.068475,172.913046 413.51284,172.913063 413.8227,172.663832 L413.891696,172.601892 Z M413.290667,171.418916 L413.363021,171.53863 C413.457549,171.699898 413.611156,171.98082 413.611156,172.10342 C413.611156,172.280211 413.290667,172.383662 413.290667,172.383662 L413.207577,172.350293 C413.112618,172.306546 412.970178,172.221281 412.970178,172.10342 C412.970178,171.926331 413.290667,171.418916 413.290667,171.418916 Z M449.051567,171.418916 L449.157327,171.596436 C449.250688,171.760371 449.372056,171.994443 449.372056,172.10342 C449.372056,172.280211 449.051567,172.383662 449.051567,172.383662 L449.011122,172.368666 C448.924955,172.334062 448.731078,172.240924 448.731078,172.10342 C448.731078,171.926331 449.051567,171.418916 449.051567,171.418916 Z M412.068337,170.832495 C412.358417,170.832495 413.189601,171.357203 413.189601,171.357203 L413.055196,171.439235 C412.807828,171.586893 412.285897,171.882208 412.068337,171.882208 C411.778257,171.882208 411.60892,171.357203 411.60892,171.357203 L411.639911,171.275217 C411.701135,171.127643 411.850777,170.832495 412.068337,170.832495 Z M450.273897,170.832495 C450.563977,170.832495 450.733016,171.357203 450.733016,171.357203 L450.702071,171.439235 C450.640932,171.586893 450.491457,171.882208 450.273897,171.882208 C449.984116,171.882208 449.152633,171.357203 449.152633,171.357203 L449.354325,171.235505 C449.619409,171.080502 450.074672,170.832495 450.273897,170.832495 Z M414.512997,170.832495 C414.803077,170.832495 414.972116,171.357203 414.972116,171.357203 L414.941171,171.439235 C414.880031,171.586893 414.730557,171.882208 414.512997,171.882208 C414.222917,171.882208 413.391435,171.357203 413.391435,171.357203 L413.593136,171.235505 C413.85824,171.080502 414.313567,170.832495 414.512997,170.832495 Z M447.829238,170.832495 C448.119317,170.832495 448.950502,171.357203 448.950502,171.357203 L448.816097,171.439235 C448.568728,171.586893 448.046797,171.882208 447.829238,171.882208 C447.539158,171.882208 447.36982,171.357203 447.36982,171.357203 L447.400812,171.275217 C447.462035,171.127643 447.611678,170.832495 447.829238,170.832495 Z M449.051567,170.330744 L449.092013,170.345743 C449.17818,170.380358 449.372056,170.473548 449.372056,170.611283 C449.372056,170.788074 449.051567,171.295788 449.051567,171.295788 L448.979213,171.176015 C448.884686,171.014679 448.731078,170.733677 448.731078,170.611283 C448.731078,170.434195 449.051567,170.330744 449.051567,170.330744 Z M413.290667,170.330744 L413.331113,170.345743 C413.41728,170.380358 413.611156,170.473548 413.611156,170.611283 C413.611156,170.788074 413.290667,171.295788 413.290667,171.295788 L413.184907,171.118186 C413.091547,170.954192 412.970178,170.720078 412.970178,170.611283 C412.970178,170.434195 413.290667,170.330744 413.290667,170.330744 Z M413.891696,168.910456 C413.559878,169.242572 413.559878,169.780695 413.891696,170.112811 C413.559878,169.780695 413.021456,169.780695 412.68934,170.112811 L412.751335,170.043763 C413.01998,169.709861 412.999315,169.220431 412.68934,168.910456 C413.021456,169.242274 413.559878,169.242274 413.891696,168.910456 Z M449.652596,168.910456 C449.320778,169.242572 449.320778,169.780695 449.652596,170.112811 C449.320778,169.780695 448.782357,169.780695 448.450241,170.112811 L448.512236,170.043763 C448.780881,169.709861 448.760216,169.220431 448.450241,168.910456 C448.782357,169.242274 449.320778,169.242274 449.652596,168.910456 Z M413.290667,167.727479 L413.396427,167.905 C413.489787,168.068934 413.611156,168.303006 413.611156,168.411984 C413.611156,168.588775 413.290667,168.692524 413.290667,168.692524 L413.250221,168.67749 C413.164054,168.642806 412.970178,168.549488 412.970178,168.411984 C412.970178,168.234895 413.290667,167.727479 413.290667,167.727479 Z M449.051567,167.727479 L449.157327,167.905 C449.250688,168.068934 449.372056,168.303006 449.372056,168.411984 C449.372056,168.588775 449.051567,168.692524 449.051567,168.692524 L449.011122,168.67749 C448.924955,168.642806 448.731078,168.549488 448.731078,168.411984 C448.731078,168.234895 449.051567,167.727479 449.051567,167.727479 Z M414.512997,167.141059 C414.803077,167.141059 414.972116,167.665767 414.972116,167.665767 L414.941171,167.747799 C414.880031,167.895456 414.730557,168.190772 414.512997,168.190772 C414.222917,168.190772 413.391435,167.665767 413.391435,167.665767 L413.593136,167.544069 C413.85824,167.389065 414.313567,167.141059 414.512997,167.141059 Z M412.068337,167.141059 C412.358417,167.141059 413.189601,167.665767 413.189601,167.665767 L412.987969,167.787533 C412.722953,167.942625 412.267767,168.190772 412.068337,168.190772 C411.778257,168.190772 411.60892,167.665767 411.60892,167.665767 L411.639911,167.583781 C411.701135,167.436207 411.850777,167.141059 412.068337,167.141059 Z M450.273897,167.141059 C450.563977,167.141059 450.733016,167.665767 450.733016,167.665767 L450.702071,167.747799 C450.640932,167.895456 450.491457,168.190772 450.273897,168.190772 C449.984116,168.190772 449.152633,167.665767 449.152633,167.665767 L449.28708,167.583781 C449.534518,167.436207 450.056561,167.141059 450.273897,167.141059 Z M447.829238,167.141059 C448.119317,167.141059 448.950502,167.665767 448.950502,167.665767 L448.74887,167.787533 C448.483854,167.942625 448.028667,168.190772 447.829238,168.190772 C447.539158,168.190772 447.36982,167.665767 447.36982,167.665767 L447.400812,167.583781 C447.462035,167.436207 447.611678,167.141059 447.829238,167.141059 Z M413.290667,166.639308 L413.331113,166.654341 C413.41728,166.689025 413.611156,166.782343 413.611156,166.919847 C413.611156,167.096936 413.290667,167.604352 413.290667,167.604352 L413.184907,167.426831 C413.091547,167.262897 412.970178,167.028825 412.970178,166.919847 C412.970178,166.743057 413.290667,166.639308 413.290667,166.639308 Z M449.051567,166.639308 L449.092013,166.654341 C449.17818,166.689025 449.372056,166.782343 449.372056,166.919847 C449.372056,167.096936 449.051567,167.604352 449.051567,167.604352 L448.945808,167.426831 C448.852447,167.262897 448.731078,167.028825 448.731078,166.919847 C448.731078,166.743057 449.051567,166.639308 449.051567,166.639308 Z M413.891696,165.21902 C413.559878,165.550838 413.559878,166.089259 413.891696,166.421375 C413.559878,166.089557 413.021456,166.089557 412.68934,166.421375 L412.751335,166.352375 C413.01998,166.018648 412.999315,165.528717 412.68934,165.21902 C413.021456,165.550838 413.559878,165.550838 413.891696,165.21902 Z M449.652596,165.21902 C449.320778,165.550838 449.320778,166.089259 449.652596,166.421375 C449.320778,166.089557 448.782357,166.089557 448.450241,166.421375 L448.512236,166.352375 C448.780881,166.018648 448.760216,165.528717 448.450241,165.21902 C448.782357,165.550838 449.320778,165.550838 449.652596,165.21902 Z M413.290667,164.036043 L413.363021,164.155816 C413.457549,164.317152 413.611156,164.598154 413.611156,164.720548 C413.611156,164.897637 413.290667,165.001087 413.290667,165.001087 L413.250221,164.986089 C413.164054,164.951473 412.970178,164.858283 412.970178,164.720548 C412.970178,164.543757 413.290667,164.036043 413.290667,164.036043 Z M449.051567,164.036043 L449.157327,164.213645 C449.250688,164.377639 449.372056,164.611754 449.372056,164.720548 C449.372056,164.897637 449.051567,165.001087 449.051567,165.001087 L449.011122,164.986089 C448.924955,164.951473 448.731078,164.858283 448.731078,164.720548 C448.731078,164.543757 449.051567,164.036043 449.051567,164.036043 Z M414.512997,163.449623 C414.803077,163.449623 414.972116,163.97433 414.972116,163.97433 L414.941171,164.056362 C414.880031,164.20402 414.730557,164.499336 414.512997,164.499336 C414.222917,164.499336 413.391435,163.97433 413.391435,163.97433 L413.593136,163.852633 C413.85824,163.697629 414.313567,163.449623 414.512997,163.449623 Z M447.829238,163.449623 C448.119317,163.449623 448.950502,163.97433 448.950502,163.97433 L448.672213,164.140445 C448.403206,164.294256 448.010537,164.499336 447.829238,164.499336 C447.539158,164.499336 447.36982,163.97433 447.36982,163.97433 L447.400812,163.892345 C447.462035,163.744771 447.611678,163.449623 447.829238,163.449623 Z M412.068337,163.449623 C412.358417,163.449623 413.189601,163.97433 413.189601,163.97433 L412.911312,164.140445 C412.642306,164.294256 412.249637,164.499336 412.068337,164.499336 C411.778257,164.499336 411.60892,163.97433 411.60892,163.97433 L411.639911,163.892345 C411.701135,163.744771 411.850777,163.449623 412.068337,163.449623 Z M450.273897,163.449623 C450.563977,163.449623 450.733016,163.97433 450.733016,163.97433 L450.702071,164.056362 C450.640932,164.20402 450.491457,164.499336 450.273897,164.499336 C449.984116,164.499336 449.152633,163.97433 449.152633,163.97433 L449.354325,163.852633 C449.619409,163.697629 450.074672,163.449623 450.273897,163.449623 Z M449.051567,162.948169 L449.092013,162.963165 C449.17818,162.997769 449.372056,163.090907 449.372056,163.228411 C449.372056,163.4055 449.051567,163.912916 449.051567,163.912916 L448.979213,163.793202 C448.884686,163.631933 448.731078,163.351011 448.731078,163.228411 C448.731078,163.05162 449.051567,162.948169 449.051567,162.948169 Z M413.290667,162.948169 L413.331113,162.963165 C413.41728,162.997769 413.611156,163.090907 413.611156,163.228411 C413.611156,163.4055 413.290667,163.912916 413.290667,163.912916 L413.184907,163.735395 C413.091547,163.571461 412.970178,163.337389 412.970178,163.228411 C412.970178,163.05162 413.290667,162.948169 413.290667,162.948169 Z M414.69426,161.883252 L414.920154,161.938428 C415.272906,162.028893 415.93292,162.216792 416.113355,162.397227 C416.363187,162.647059 416.057008,163.245702 416.057008,163.245702 L416.000116,163.272313 C415.84478,163.340983 415.411521,163.505094 415.208532,163.302347 C414.9587,163.052217 414.69426,161.883252 414.69426,161.883252 Z M447.647677,161.883252 L447.592501,162.109097 C447.502035,162.461779 447.314136,163.121697 447.133702,163.302347 C446.883572,163.551881 446.285226,163.245702 446.285226,163.245702 L446.241243,163.148261 C446.166757,162.968181 446.041207,162.584601 446.228582,162.397227 C446.478712,162.147394 447.647677,161.883252 447.647677,161.883252 Z M447.787798,161.849265 L448.002833,161.903241 C448.226032,161.963368 448.556034,162.065068 448.654161,162.163195 C448.806505,162.315539 448.61928,162.681046 448.61928,162.681046 L448.559878,162.707868 C448.450092,162.753286 448.216209,162.829812 448.101728,162.715331 C447.949085,162.562986 447.787798,161.849265 447.787798,161.849265 Z M414.554437,161.849265 L414.500461,162.064287 C414.440334,162.287462 414.338634,162.617395 414.240507,162.715331 C414.087865,162.867973 413.722656,162.681046 413.722656,162.681046 L413.695829,162.621555 C413.650397,162.511615 413.573815,162.277453 413.688073,162.163195 C413.840716,162.010553 414.554437,161.849265 414.554437,161.849265 Z M412.682804,160.956336 C412.68308,161.423835 413.064089,161.804546 413.533344,161.804546 C413.064089,161.804546 412.68308,162.184959 412.68308,162.65481 C412.68308,162.184959 412.302667,161.804546 411.833113,161.804546 L411.920039,161.800155 C412.320153,161.759513 412.638081,161.441355 412.678693,161.04121 L412.682804,160.956336 Z M449.65883,160.956336 L449.663247,161.04121 C449.706793,161.469936 450.068915,161.804546 450.509121,161.804546 C450.039568,161.804546 449.659155,162.184959 449.659155,162.65481 C449.659155,162.184959 449.278146,161.804546 448.808592,161.804546 C449.248799,161.804546 449.610921,161.469936 449.654466,161.04121 L449.65883,160.956336 Z M445.828194,160.564626 L445.994309,160.84301 C446.148119,161.112103 446.3532,161.504889 446.3532,161.686188 C446.3532,161.97597 445.828194,162.145307 445.828194,162.145307 L445.746162,162.114321 C445.598504,162.053111 445.303188,161.903525 445.303188,161.686188 C445.303188,161.396109 445.828194,160.564626 445.828194,160.564626 Z M434.754184,160.564626 L434.875881,160.766327 C435.030885,161.031431 435.278891,161.486759 435.278891,161.686188 C435.278891,161.97597 434.754184,162.145307 434.754184,162.145307 L434.672151,162.114321 C434.524494,162.053111 434.229178,161.903525 434.229178,161.686188 C434.229178,161.396109 434.754184,160.564626 434.754184,160.564626 Z M419.988439,160.564626 L420.110205,160.766327 C420.265297,161.031431 420.513444,161.486759 420.513444,161.686188 C420.513444,161.97597 419.988439,162.145307 419.988439,162.145307 L419.906453,162.114321 C419.758879,162.053111 419.463731,161.903525 419.463731,161.686188 C419.463731,161.396109 419.988439,160.564626 419.988439,160.564626 Z M438.445322,160.564626 L438.567088,160.766327 C438.72218,161.031431 438.970327,161.486759 438.970327,161.686188 C438.970327,161.97597 438.445322,162.145307 438.445322,162.145307 L438.363336,162.114321 C438.215762,162.053111 437.920614,161.903525 437.920614,161.686188 C437.920614,161.396109 438.445322,160.564626 438.445322,160.564626 Z M431.062747,160.564626 L431.184514,160.766327 C431.339606,161.031431 431.587753,161.486759 431.587753,161.686188 C431.587753,161.97597 431.062747,162.145307 431.062747,162.145307 L430.980715,162.114321 C430.833057,162.053111 430.537742,161.903525 430.537742,161.686188 C430.537742,161.396109 431.062747,160.564626 431.062747,160.564626 Z M427.371311,160.564626 L427.419761,160.643272 C427.549731,160.857398 427.896317,161.450499 427.896317,161.686188 C427.896317,161.97597 427.371311,162.145307 427.371311,162.145307 L427.289279,162.114321 C427.141621,162.053111 426.846305,161.903525 426.846305,161.686188 C426.846305,161.396109 427.371311,160.564626 427.371311,160.564626 Z M416.297002,160.564626 L416.345453,160.643272 C416.475422,160.857398 416.822008,161.450499 416.822008,161.686188 C416.822008,161.97597 416.297002,162.145307 416.297002,162.145307 L416.215017,162.114321 C416.067443,162.053111 415.772295,161.903525 415.772295,161.686188 C415.772295,161.396109 416.297002,160.564626 416.297002,160.564626 Z M442.136758,160.564626 L442.21879,160.699078 C442.366448,160.94653 442.661763,161.468629 442.661763,161.686188 C442.661763,161.97597 442.136758,162.145307 442.136758,162.145307 L442.054772,162.114321 C441.907198,162.053111 441.61205,161.903525 441.61205,161.686188 C441.61205,161.396109 442.136758,160.564626 442.136758,160.564626 Z M423.679875,160.564626 L423.801641,160.766327 C423.956733,161.031431 424.20488,161.486759 424.20488,161.686188 C424.20488,161.97597 423.679875,162.145307 423.679875,162.145307 L423.597843,162.114321 C423.450185,162.053111 423.154869,161.903525 423.154869,161.686188 C423.154869,161.396109 423.679875,160.564626 423.679875,160.564626 Z M415.492053,160.91135 L415.518922,160.970841 C415.564424,161.080781 415.641118,161.314943 415.526636,161.429201 C415.374292,161.581843 414.660571,161.743131 414.660571,161.743131 L414.70804,161.552439 C414.767136,161.329659 414.87274,160.978529 414.974501,160.876767 C415.127143,160.724423 415.492053,160.91135 415.492053,160.91135 Z M447.367733,160.876767 C447.469495,160.978529 447.575099,161.329659 447.634195,161.552439 L447.681664,161.743131 L447.466642,161.689155 C447.243467,161.629028 446.913534,161.527328 446.815598,161.429201 C446.662956,161.276857 446.849883,160.91135 446.849883,160.91135 L446.95022,160.86853 C447.069737,160.824429 447.265972,160.775205 447.367733,160.876767 Z M449.184235,160.346694 L449.210869,160.403559 C449.279596,160.558821 449.443812,160.991883 449.240581,161.194871 C448.991047,161.445002 447.821784,161.709144 447.821784,161.709144 L447.87696,161.48325 C447.967426,161.130498 448.155325,160.470484 448.335759,160.290049 C448.58589,160.040217 449.184235,160.346694 449.184235,160.346694 Z M414.006177,160.290049 C414.256308,160.539881 414.52045,161.709144 414.52045,161.709144 L414.208121,161.631399 C413.843233,161.534606 413.268109,161.361625 413.101355,161.194871 C412.851523,160.945039 413.158,160.346694 413.158,160.346694 L413.255395,160.30271 C413.43539,160.228225 413.818803,160.102675 414.006177,160.290049 Z M433.509494,159.862532 C433.177676,160.194648 433.177676,160.732771 433.509494,161.064887 C433.177676,160.732771 432.639255,160.732771 432.307139,161.064887 C432.639255,160.732771 432.639255,160.194648 432.307139,159.862532 L432.37619,159.924527 C432.710126,160.193172 433.199797,160.172507 433.509494,159.862532 Z M444.583505,159.862532 C444.251687,160.194648 444.251687,160.732771 444.583505,161.064887 C444.251687,160.732771 443.713265,160.732771 443.381149,161.064887 C443.713265,160.732771 443.713265,160.194648 443.381149,159.862532 L443.450201,159.924527 C443.784137,160.193172 444.273808,160.172507 444.583505,159.862532 Z M422.435185,159.862532 C422.103367,160.194648 422.103367,160.732771 422.435185,161.064887 C422.103367,160.732771 421.564946,160.732771 421.23283,161.064887 C421.564946,160.732771 421.564946,160.194648 421.23283,159.862532 L421.301882,159.924527 C421.635817,160.193172 422.125489,160.172507 422.435185,159.862532 Z M418.743749,159.862532 C418.411931,160.194648 418.411931,160.732771 418.743749,161.064887 C418.411931,160.732771 417.873808,160.732771 417.541394,161.064887 C417.873808,160.732771 417.873808,160.194648 417.541394,159.862532 L417.610497,159.924527 C417.944641,160.193172 418.434052,160.172507 418.743749,159.862532 Z M426.126621,159.862532 C425.794804,160.194648 425.794804,160.732771 426.126621,161.064887 C425.794804,160.732771 425.256382,160.732771 424.924266,161.064887 C425.256382,160.732771 425.256382,160.194648 424.924266,159.862532 L424.993318,159.924527 C425.327253,160.193172 425.816925,160.172507 426.126621,159.862532 Z M440.892366,159.862532 C440.56025,160.194648 440.56025,160.732771 440.892366,161.064887 C440.56025,160.732771 440.022127,160.732771 439.689713,161.064887 C440.022127,160.732771 440.022127,160.194648 439.689713,159.862532 L439.758817,159.924527 C440.092961,160.193172 440.582391,160.172507 440.892366,159.862532 Z M429.818058,159.862532 C429.48624,160.194648 429.48624,160.732771 429.818058,161.064887 C429.48624,160.732771 428.947818,160.732771 428.615702,161.064887 C428.947818,160.732771 428.947818,160.194648 428.615702,159.862532 L428.684754,159.924527 C429.01869,160.193172 429.508361,160.172507 429.818058,159.862532 Z M437.20093,159.862532 C436.868814,160.194648 436.868814,160.732771 437.20093,161.064887 C436.868814,160.732771 436.330691,160.732771 435.998277,161.064887 C436.330691,160.732771 436.330691,160.194648 435.998277,159.862532 L436.06738,159.924527 C436.401525,160.193172 436.890955,160.172507 437.20093,159.862532 Z M419.242221,160.14337 C419.41931,160.14337 419.926726,160.463859 419.926726,160.463859 L419.807012,160.536146 C419.645743,160.630585 419.364821,160.784049 419.242221,160.784049 C419.06543,160.784049 418.96198,160.463859 418.96198,160.463859 L418.976975,160.423413 C419.011579,160.337246 419.104717,160.14337 419.242221,160.14337 Z M439.191539,160.14337 C439.36833,160.14337 439.471781,160.463859 439.471781,160.463859 L439.456785,160.504267 C439.422181,160.590354 439.329043,160.784049 439.191539,160.784049 C439.014748,160.784049 438.507332,160.463859 438.507332,160.463859 L438.684836,160.358099 C438.848743,160.264738 439.082745,160.14337 439.191539,160.14337 Z M437.699402,160.14337 C437.876193,160.14337 438.383609,160.463859 438.383609,160.463859 L438.263903,160.536146 C438.102655,160.630585 437.821796,160.784049 437.699402,160.784049 C437.522313,160.784049 437.418863,160.463859 437.418863,160.463859 L437.452242,160.380769 C437.496012,160.285809 437.581343,160.14337 437.699402,160.14337 Z M434.007966,160.14337 C434.184757,160.14337 434.692471,160.463859 434.692471,160.463859 L434.572698,160.536146 C434.411361,160.630585 434.13036,160.784049 434.007966,160.784049 C433.830877,160.784049 433.727426,160.463859 433.727426,160.463859 L433.742425,160.423413 C433.777041,160.337246 433.87023,160.14337 434.007966,160.14337 Z M417.04322,160.14337 C417.22001,160.14337 417.323461,160.463859 417.323461,160.463859 L417.308466,160.504267 C417.273861,160.590354 417.180724,160.784049 417.04322,160.784049 C416.866429,160.784049 416.358715,160.463859 416.358715,160.463859 L416.536317,160.358099 C416.700311,160.264738 416.934426,160.14337 417.04322,160.14337 Z M426.625094,160.14337 C426.802182,160.14337 427.309598,160.463859 427.309598,160.463859 L427.132078,160.56952 C426.968143,160.662794 426.734071,160.784049 426.625094,160.784049 C426.448005,160.784049 426.344852,160.463859 426.344852,160.463859 L426.359813,160.423413 C426.394349,160.337246 426.487358,160.14337 426.625094,160.14337 Z M420.734358,160.14337 C420.911447,160.14337 421.014898,160.463859 421.014898,160.463859 L420.999899,160.504267 C420.965283,160.590354 420.872094,160.784049 420.734358,160.784049 C420.557567,160.784049 420.050151,160.463859 420.050151,160.463859 L420.227655,160.358099 C420.391562,160.264738 420.625564,160.14337 420.734358,160.14337 Z M415.551083,160.14337 C415.727874,160.14337 416.23529,160.463859 416.23529,160.463859 L416.057786,160.56952 C415.893879,160.662794 415.659877,160.784049 415.551083,160.784049 C415.373994,160.784049 415.270543,160.463859 415.270543,160.463859 L415.285542,160.423413 C415.320158,160.337246 415.413347,160.14337 415.551083,160.14337 Z M424.426092,160.14337 C424.602883,160.14337 424.706334,160.463859 424.706334,160.463859 L424.691338,160.504267 C424.656734,160.590354 424.563596,160.784049 424.426092,160.784049 C424.249004,160.784049 423.741588,160.463859 423.741588,160.463859 L423.919108,160.358099 C424.083043,160.264738 424.317115,160.14337 424.426092,160.14337 Z M435.500401,160.14337 C435.676893,160.14337 435.780344,160.463859 435.780344,160.463859 L435.765352,160.504267 C435.730759,160.590354 435.637673,160.784049 435.500401,160.784049 C435.323312,160.784049 434.815896,160.463859 434.815896,160.463859 L434.993417,160.358099 C435.157351,160.264738 435.391423,160.14337 435.500401,160.14337 Z M445.081977,160.14337 C445.259065,160.14337 445.766481,160.463859 445.766481,160.463859 L445.588961,160.56952 C445.425026,160.662794 445.190954,160.784049 445.081977,160.784049 C444.904888,160.784049 444.801735,160.463859 444.801735,160.463859 L444.816696,160.423413 C444.851232,160.337246 444.944241,160.14337 445.081977,160.14337 Z M431.808965,160.14337 C431.985755,160.14337 432.088908,160.463859 432.088908,160.463859 L432.07395,160.504267 C432.039426,160.590354 431.946469,160.784049 431.808965,160.784049 C431.631876,160.784049 431.12446,160.463859 431.12446,160.463859 L431.301981,160.358099 C431.465915,160.264738 431.699987,160.14337 431.808965,160.14337 Z M441.39054,160.14337 C441.567629,160.14337 442.075045,160.463859 442.075045,160.463859 L441.955331,160.536146 C441.794063,160.630585 441.51314,160.784049 441.39054,160.784049 C441.21375,160.784049 441.110299,160.463859 441.110299,160.463859 L441.125294,160.423413 C441.159899,160.337246 441.253037,160.14337 441.39054,160.14337 Z M446.574412,160.14337 C446.751202,160.14337 446.854653,160.463859 446.854653,160.463859 L446.839657,160.504267 C446.805053,160.590354 446.711915,160.784049 446.574412,160.784049 C446.397323,160.784049 445.889907,160.463859 445.889907,160.463859 L446.067427,160.358099 C446.231362,160.264738 446.465434,160.14337 446.574412,160.14337 Z M442.882975,160.14337 C443.059766,160.14337 443.163217,160.463859 443.163217,160.463859 L443.148221,160.504267 C443.113617,160.590354 443.020479,160.784049 442.882975,160.784049 C442.705887,160.784049 442.198471,160.463859 442.198471,160.463859 L442.375991,160.358099 C442.539926,160.264738 442.773998,160.14337 442.882975,160.14337 Z M422.933657,160.14337 C423.110746,160.14337 423.618162,160.463859 423.618162,160.463859 L423.498448,160.536146 C423.33718,160.630585 423.056257,160.784049 422.933657,160.784049 C422.756569,160.784049 422.653416,160.463859 422.653416,160.463859 L422.668377,160.423413 C422.702913,160.337246 422.795922,160.14337 422.933657,160.14337 Z M430.31653,160.14337 C430.493619,160.14337 431.001035,160.463859 431.001035,160.463859 L430.88132,160.536146 C430.720052,160.630585 430.43913,160.784049 430.31653,160.784049 C430.139441,160.784049 430.03599,160.463859 430.03599,160.463859 L430.050989,160.423413 C430.085605,160.337246 430.178794,160.14337 430.31653,160.14337 Z M428.117529,160.14337 C428.294319,160.14337 428.397472,160.463859 428.397472,160.463859 L428.382514,160.504267 C428.34799,160.590354 428.255032,160.784049 428.117529,160.784049 C427.94044,160.784049 427.433024,160.463859 427.433024,160.463859 L427.610544,160.358099 C427.774479,160.264738 428.008551,160.14337 428.117529,160.14337 Z M447.726383,159.021807 L447.730773,159.108736 C447.774319,159.537463 448.136441,159.872072 448.576648,159.872072 C448.107094,159.872072 447.726383,160.252485 447.726383,160.722038 C447.726383,160.252485 447.345672,159.872072 446.876118,159.872072 C447.345672,159.872072 447.726383,159.491361 447.726383,159.021807 Z M414.615852,159.021807 C414.615852,159.491361 414.996264,159.872072 415.465818,159.872072 C414.996264,159.872072 414.615852,160.252485 414.615852,160.722038 C414.615852,160.252485 414.23514,159.872072 413.765587,159.872072 L413.852516,159.867682 C414.281242,159.824136 414.615852,159.462014 414.615852,159.021807 Z M442.136758,158.782111 L442.21879,158.813103 C442.366448,158.874327 442.661763,159.023969 442.661763,159.241529 C442.661763,159.53131 442.136758,160.362793 442.136758,160.362793 L442.015061,160.161101 C441.860057,159.896017 441.61205,159.440753 441.61205,159.241529 C441.61205,158.951449 442.136758,158.782111 442.136758,158.782111 Z M438.445322,158.782111 L438.527354,158.813103 C438.675012,158.874327 438.970327,159.023969 438.970327,159.241529 C438.970327,159.53131 438.445322,160.362793 438.445322,160.362793 L438.323624,160.161101 C438.16862,159.896017 437.920614,159.440753 437.920614,159.241529 C437.920614,158.951449 438.445322,158.782111 438.445322,158.782111 Z M423.679875,158.782111 L423.761907,158.813103 C423.909565,158.874327 424.20488,159.023969 424.20488,159.241529 C424.20488,159.53131 423.679875,160.362793 423.679875,160.362793 L423.597843,160.228346 C423.450185,159.980908 423.154869,159.458865 423.154869,159.241529 C423.154869,158.951449 423.679875,158.782111 423.679875,158.782111 Z M416.297002,158.782111 L416.379034,158.813103 C416.526692,158.874327 416.822008,159.023969 416.822008,159.241529 C416.822008,159.53131 416.297002,160.362793 416.297002,160.362793 L416.175305,160.161101 C416.020301,159.896017 415.772295,159.440753 415.772295,159.241529 C415.772295,158.951449 416.297002,158.782111 416.297002,158.782111 Z M431.062747,158.782111 L431.144779,158.813103 C431.292437,158.874327 431.587753,159.023969 431.587753,159.241529 C431.587753,159.53131 431.062747,160.362793 431.062747,160.362793 L430.940981,160.161101 C430.785889,159.896017 430.537742,159.440753 430.537742,159.241529 C430.537742,158.951449 431.062747,158.782111 431.062747,158.782111 Z M427.371311,158.782111 L427.453343,158.813103 C427.601001,158.874327 427.896317,159.023969 427.896317,159.241529 C427.896317,159.53131 427.371311,160.362793 427.371311,160.362793 L427.249545,160.161101 C427.094453,159.896017 426.846305,159.440753 426.846305,159.241529 C426.846305,158.951449 427.371311,158.782111 427.371311,158.782111 Z M434.754184,158.782111 L434.836169,158.813103 C434.983743,158.874327 435.278891,159.023969 435.278891,159.241529 C435.278891,159.53131 434.754184,160.362793 434.754184,160.362793 L434.672151,160.228346 C434.524494,159.980908 434.229178,159.458865 434.229178,159.241529 C434.229178,158.951449 434.754184,158.782111 434.754184,158.782111 Z M419.988439,158.782111 L420.070471,158.813103 C420.218128,158.874327 420.513444,159.023969 420.513444,159.241529 C420.513444,159.53131 419.988439,160.362793 419.988439,160.362793 L419.822418,160.084425 C419.668695,159.815358 419.463731,159.422642 419.463731,159.241529 C419.463731,158.951449 419.988439,158.782111 419.988439,158.782111 Z M445.828194,158.782111 L445.910226,158.813103 C446.057884,158.874327 446.3532,159.023969 446.3532,159.241529 C446.3532,159.53131 445.828194,160.362793 445.828194,160.362793 L445.662079,160.084425 C445.508269,159.815358 445.303188,159.422642 445.303188,159.241529 C445.303188,158.951449 445.828194,158.782111 445.828194,158.782111 Z" id="5"></path>
        </g>
    </g>
</svg>
