<?xml version="1.0" encoding="UTF-8"?>
<svg width="60px" height="38px" viewBox="0 0 60 38" version="1.1" xmlns="http://www.w3.org/2000/svg" xmlns:xlink="http://www.w3.org/1999/xlink">
    <title>29</title>
    <g id="页面-1" stroke="none" stroke-width="1" fill="none" fill-rule="evenodd">
        <g id="花环" transform="translate(-80.000000, -410.000000)" fill="#545458">
            <path d="M109.999684,410 C114.168377,415.456525 125.135263,415.112241 129.814704,420.319841 L129.898671,420.413962 L130.033776,420.400958 C134.490988,419.947693 140,423.679703 140,429 C140,434.143821 134.919663,437.932799 129.903722,437.586038 L129.819123,437.67954 C125.135894,442.88714 114.167745,442.544095 109.999684,448 C105.827204,442.543475 94.8634742,442.88714 90.1802456,437.67954 L90.0962783,437.586038 L89.961173,437.599042 C85.4654503,438.031873 80,434.305436 80,429 C80,423.636358 85.5311089,419.962554 89.961173,420.400958 L90.0962783,420.413962 L90.1802456,420.32046 C94.8634742,415.112241 105.827204,415.456525 109.999684,410 Z M109.999684,411.540607 L109.85574,411.678692 C107.441523,413.995177 103.808832,415.171066 100.294201,416.308565 C96.7303261,417.462163 93.0446037,418.65539 90.9485779,420.986117 L90.5167461,421.466008 L89.8582657,421.40161 C89.6549765,421.381795 89.4447426,421.371268 89.2326147,421.371268 C85.3581237,421.371268 81.0252849,424.633913 81.0252849,429 C81.0252849,433.365467 85.362543,436.627493 89.240822,436.627493 C89.4497932,436.627493 89.6587645,436.617586 89.8607911,436.597771 L90.5167461,436.534611 L90.9492093,437.014503 C93.045235,439.34461 96.7309574,440.537837 100.299252,441.692674 C103.810726,442.830172 107.442154,444.006062 109.85574,446.321927 L109.999684,446.459393 L110.142997,446.321927 C112.555952,444.005443 116.188642,442.829553 119.702642,441.692054 L120.496205,441.434473 C123.805274,440.354818 127.110073,439.171917 129.051422,437.013264 L129.471259,436.547614 L129.975694,436.58291 C132.276903,436.742667 134.638088,435.924684 136.390669,434.398938 C138.056757,432.947497 138.974715,431.030407 138.974715,429 C138.974715,424.632675 134.647558,421.369411 130.778118,421.369411 C130.560939,421.369411 130.344392,421.380557 130.135421,421.40161 L129.476941,421.466008 L129.045109,420.984878 C126.95224,418.65539 123.266517,417.461543 119.700748,416.307326 C116.188011,415.170447 112.555952,413.995177 110.142997,411.678692 L109.999684,411.540607 Z M109.999242,412.101493 C112.477225,414.393208 116.082768,415.560429 119.573408,416.689877 L120.385235,416.953519 C123.634755,418.014536 126.872978,419.175598 128.737839,421.251017 L129.308564,421.886951 L130.176647,421.801499 C130.37236,421.781684 130.575018,421.771777 130.778307,421.771777 C134.453297,421.771777 138.563907,424.862899 138.563907,428.999876 C138.563907,430.91387 137.695824,432.724456 136.118122,434.097875 C134.446984,435.553031 132.198175,436.333242 130.004924,436.181534 L129.297831,436.132616 L128.744152,436.746878 C126.954202,438.736917 123.904433,439.887207 120.791902,440.913598 L119.979301,441.179012 L119.573408,441.310494 L118.661154,441.606704 C115.464769,442.65144 112.261748,443.806443 109.999242,445.898879 C107.520629,443.607783 103.915717,442.440562 100.424445,441.309875 C96.9117081,440.172996 93.2790176,438.997106 91.2568579,436.748116 L90.6855014,436.114659 L89.8212065,436.197634 C89.6318066,436.21621 89.4360933,436.224879 89.2403801,436.224879 C85.5559203,436.224879 81.4358408,433.134995 81.4358408,428.999876 C81.4358408,424.864138 85.5521323,421.773634 89.2328041,421.773634 C89.4310426,421.773634 89.6273872,421.782923 89.8174185,421.801499 L90.6855014,421.886951 L91.2562265,421.252255 C93.1228356,419.176265 96.3611931,418.014632 99.612213,416.95353 L100.424445,416.689877 C103.913823,415.560429 107.519366,414.393208 109.999242,412.101493 Z" id="29"></path>
        </g>
    </g>
</svg>
