<?xml version="1.0" encoding="UTF-8"?>
<svg width="56px" height="61px" viewBox="0 0 56 61" version="1.1" xmlns="http://www.w3.org/2000/svg" xmlns:xlink="http://www.w3.org/1999/xlink">
    <title>24</title>
    <g id="页面-1" stroke="none" stroke-width="1" fill="none" fill-rule="evenodd">
        <g id="花环" transform="translate(-322.000000, -318.000000)" fill="#545458" fill-rule="nonzero">
            <path d="M365.012981,371.953144 C365.265923,371.953144 365.500417,371.998198 365.717528,372.088661 C366.512538,372.377433 366.909511,373.054663 366.909511,374.120707 C366.909511,374.319371 366.891773,374.527259 366.855588,374.744015 C366.656924,376.098476 366.015524,377.345091 364.931742,378.48315 L364.389674,378.076599 C365.039943,377.38979 365.374479,376.776061 365.392571,376.233993 C365.374479,375.926774 365.148499,375.710017 364.714986,375.583724 C364.588692,375.547539 364.453175,375.502839 364.308435,375.448207 C363.604243,375.12325 363.251614,374.572313 363.251614,373.795395 C363.251614,373.506624 363.315116,373.235589 363.441764,372.982648 C363.766721,372.296194 364.290697,371.953144 365.012981,371.953144 Z M369.37507,371.953144 C369.628366,371.953144 369.86286,371.998198 370.079971,372.088661 C370.874981,372.377433 371.271954,373.054663 371.271954,374.120707 C371.271954,374.319371 371.254216,374.527259 371.218031,374.744015 C371.019367,376.098476 370.377612,377.345091 369.294185,378.48315 L368.752117,378.076599 C369.402386,377.38979 369.736922,376.776061 369.754659,376.233993 C369.736922,375.926774 369.510587,375.710017 369.077074,375.583724 C368.951136,375.547539 368.815618,375.502839 368.670878,375.448207 C367.966686,375.12325 367.614058,374.572313 367.614058,373.795395 C367.614058,373.506624 367.677559,373.235589 367.803852,372.982648 C368.129164,372.296194 368.65314,371.953144 369.37507,371.953144 Z M327.788716,321.878527 L327.788716,322.58804 L323.989627,322.587242 L323.988562,336.545144 L324.522471,336.546297 L324.522471,356.500297 C324.522471,366.347965 332.505689,374.331078 342.353252,374.331078 L342.353252,374.863213 L361.727225,374.863213 L361.727225,375.572727 L342.353252,375.572727 L342.353252,376.104862 C331.52606,376.104862 322.748688,367.327604 322.748688,356.500297 L322.748688,336.546297 L323.279492,336.545144 L323.280823,321.878527 L327.788716,321.878527 Z M357.902948,321.346392 C368.730317,321.346392 377.507512,330.123472 377.507512,340.950602 L377.507512,353.737452 L376.974579,353.737097 L376.975377,375.572727 L372.961305,375.572727 L372.961305,374.863213 L376.265243,374.862858 L376.265509,353.737097 L375.733729,353.737452 L375.733729,340.950602 C375.733729,331.103111 367.750689,323.120175 357.902948,323.120175 L357.902948,322.58804 L339.850444,322.58804 L339.850444,321.878527 L357.902948,321.878527 L357.902948,321.346392 Z M336.191483,318.48315 L336.733551,318.889702 C336.082928,319.576156 335.748747,320.19024 335.730654,320.731953 C335.748747,321.039172 335.974727,321.256284 336.40824,321.382222 C336.534178,321.418762 336.669695,321.463816 336.814791,321.517739 C337.518983,321.843051 337.871256,322.394343 337.871256,323.170551 C337.871256,323.460032 337.807755,323.730711 337.681461,323.983298 C337.356504,324.670462 336.832529,325.012802 336.110244,325.012802 C335.856948,325.012802 335.622453,324.968458 335.405697,324.87764 C334.610687,324.588868 334.21336,323.911637 334.21336,322.845594 C334.21336,322.647285 334.231098,322.439042 334.267638,322.222286 C334.466301,320.86747 335.107701,319.62121 336.191483,318.48315 Z M331.82904,318.48315 L332.371108,318.889702 C331.720839,319.576156 331.386304,320.19024 331.368566,320.731953 C331.386304,321.039172 331.612284,321.256284 332.045796,321.382222 C332.17209,321.418762 332.307607,321.463816 332.452348,321.517739 C333.15654,321.843051 333.509168,322.394343 333.509168,323.170551 C333.509168,323.460032 333.445312,323.730711 333.319373,323.983298 C332.994061,324.670462 332.470085,325.012802 331.747801,325.012802 C331.494505,325.012802 331.26001,324.968458 331.043254,324.87764 C330.248244,324.588868 329.851272,323.911637 329.851272,322.845594 C329.851272,322.647285 329.869009,322.439042 329.905195,322.222286 C330.103858,320.86747 330.745258,319.62121 331.82904,318.48315 Z" id="24"></path>
        </g>
    </g>
</svg>
