<?xml version="1.0" encoding="UTF-8"?>
<svg width="43px" height="61px" viewBox="0 0 43 61" version="1.1" xmlns="http://www.w3.org/2000/svg" xmlns:xlink="http://www.w3.org/1999/xlink">
    <title>1</title>
    <g id="页面-1" stroke="none" stroke-width="1" fill="none" fill-rule="evenodd">
        <g id="花环" transform="translate(-88.000000, -158.000000)" fill="#545458">
            <path d="M109.588516,162.216953 L109.659695,162.320772 C109.787815,162.516293 110.044057,162.950573 110.044057,163.296477 C110.044057,163.75798 109.588516,163.887666 109.588516,163.887666 L109.534763,163.867812 C109.414317,163.81685 109.133274,163.659086 109.133274,163.296477 C109.133274,162.835272 109.588516,162.216953 109.588516,162.216953 Z M110.766721,161.662732 C111.227925,161.662732 111.357909,162.118273 111.357909,162.118273 L111.338023,162.172061 C111.286993,162.292587 111.129096,162.573813 110.766721,162.573813 C110.305218,162.573813 109.687197,162.118273 109.687197,162.118273 L109.790974,162.047095 C109.986425,161.918974 110.420593,161.662732 110.766721,161.662732 Z M108.410312,161.662732 C108.871815,161.662732 109.490134,162.118273 109.490134,162.118273 L109.386311,162.189451 C109.190776,162.317572 108.75644,162.573813 108.410312,162.573813 C107.949108,162.573813 107.819123,162.118273 107.819123,162.118273 L107.83901,162.064484 C107.89004,161.943959 108.047937,161.662732 108.410312,161.662732 Z M108.410312,214.529274 C108.871815,214.529274 109.490134,214.984814 109.490134,214.984814 L109.386311,215.055993 C109.190776,215.184113 108.75644,215.440355 108.410312,215.440355 C107.949108,215.440355 107.819123,214.984814 107.819123,214.984814 L107.83901,214.931026 C107.89004,214.8105 108.047937,214.529274 108.410312,214.529274 Z M110.766721,214.529274 C111.227925,214.529274 111.357909,214.984814 111.357909,214.984814 L111.338023,215.038603 C111.286993,215.159128 111.129096,215.440355 110.766721,215.440355 C110.305218,215.440355 109.687197,214.984814 109.687197,214.984814 L109.790974,214.913636 C109.986425,214.785515 110.420593,214.529274 110.766721,214.529274 Z M109.588516,213.215421 L109.642305,213.235307 C109.76283,213.286338 110.044057,213.444235 110.044057,213.80661 C110.044057,214.268113 109.588516,214.886432 109.588516,214.886432 L109.517385,214.782609 C109.389348,214.587074 109.133274,214.152738 109.133274,213.80661 C109.133274,213.345405 109.588516,213.215421 109.588516,213.215421 Z M92.3653313,188.650224 L92.4709864,188.807708 C92.6055577,189.02133 92.8208718,189.412669 92.8208718,189.729748 C92.8208718,190.191251 92.3653313,190.320937 92.3653313,190.320937 L92.3115782,190.301083 C92.1911314,190.25012 91.910089,190.092357 91.910089,189.729748 C91.910089,189.268543 92.3653313,188.650224 92.3653313,188.650224 Z M93.5435354,188.096003 C94.0047403,188.096003 94.1347243,188.551544 94.1347243,188.551544 L94.1148383,188.605332 C94.0638078,188.725858 93.9059107,189.007084 93.5435354,189.007084 C93.0820324,189.007084 92.4637137,188.551544 92.4637137,188.551544 L92.567537,188.480365 C92.7630721,188.352245 93.1974081,188.096003 93.5435354,188.096003 Z M92.3653313,186.782151 L92.4191196,186.80204 C92.5396453,186.853081 92.8208718,187.011028 92.8208718,187.373638 C92.8208718,187.834843 92.3653313,188.453161 92.3653313,188.453161 L92.2941997,188.349343 C92.1661628,188.153821 91.910089,187.719541 91.910089,187.373638 C91.910089,186.912135 92.3653313,186.782151 92.3653313,186.782151 Z M126.811702,188.650224 L126.88288,188.754043 C127.011001,188.949564 127.267242,189.383844 127.267242,189.729748 C127.267242,190.191251 126.811702,190.320937 126.811702,190.320937 L126.757949,190.301083 C126.637502,190.25012 126.356459,190.092357 126.356459,189.729748 C126.356459,189.268543 126.811702,188.650224 126.811702,188.650224 Z M125.633498,188.096003 C126.095001,188.096003 126.713319,188.551544 126.713319,188.551544 L126.609496,188.622722 C126.413961,188.750843 125.979625,189.007084 125.633498,189.007084 C125.172293,189.007084 125.042309,188.551544 125.042309,188.551544 L125.062195,188.497755 C125.113225,188.37723 125.271122,188.096003 125.633498,188.096003 Z M126.811702,186.782151 L126.86549,186.80204 C126.986016,186.853081 127.267242,187.011028 127.267242,187.373638 C127.267242,187.834843 126.811702,188.453161 126.811702,188.453161 L126.74057,188.349343 C126.612533,188.153821 126.356459,187.719541 126.356459,187.373638 C126.356459,186.912135 126.811702,186.782151 126.811702,186.782151 Z M95.8170638,160.172388 C96.4267367,160.125581 96.949058,160.424008 97.0453535,160.920392 C97.1338977,161.377721 96.80536,161.716395 96.977082,161.980836 C97.0379003,162.07415 96.1807806,161.943569 96.063318,161.216434 C95.9756682,160.674138 95.6921479,160.46038 95.3841811,160.396878 C95.7166655,160.365362 96.6719072,160.647252 96.7744904,161.296889 L96.7829326,161.394258 L96.7923448,161.299217 C96.8130699,160.659527 96.0607102,160.278163 95.650504,160.216498 L95.5916786,160.209654 C95.4831598,160.216809 95.3680822,160.211443 95.2452532,160.187294 C94.2873662,159.999175 93.7098911,160.307142 93.3610807,160.891772 C94.0351494,160.177158 95.4148884,160.369153 95.2366075,161.176485 C95.091717,161.832069 94.3189678,161.538711 94.3046576,161.021458 C93.8899608,160.776396 93.3196408,161.192285 93.2856542,161.776617 C93.2451087,162.481095 93.6875315,162.979566 94.0861294,162.905928 C94.3607058,162.855247 94.0104047,162.51061 94.4784666,162.658184 C95.1584978,162.872538 94.0294849,163.757085 95.1251074,164.743891 C95.4101183,164.648192 95.571704,164.354535 95.9279676,164.206365 C96.6920711,163.88856 97.2647761,164.628813 97.0909671,164.596914 C96.6810404,164.521785 96.5501619,164.917402 96.3390869,164.931414 C96.5045483,165.05633 96.5355536,165.267703 96.4496926,165.227754 C96.1250306,165.077199 95.7309046,165.200922 95.2503214,164.888782 C95.1075178,164.812461 94.9697824,164.733158 94.8353264,164.652366 C94.9164174,164.786523 94.9957196,164.924259 95.0720405,165.067361 C95.383883,165.547944 95.2601596,165.94207 95.4110127,166.266732 C95.4506638,166.352295 95.2395888,166.321289 95.1146729,166.155828 C95.1006609,166.367201 94.7050443,166.497781 94.7801727,166.907708 C94.8120724,167.081517 94.0718192,166.508812 94.3893261,165.744709 C94.5377941,165.388445 94.8311526,165.227157 94.92715,164.941848 C93.9403445,163.846226 93.0557971,164.975239 92.8414426,164.295208 C92.693869,163.827146 93.0385056,164.177447 93.0891875,163.90287 C93.1628252,163.504272 92.6643543,163.062148 91.9598765,163.102693 C91.3755445,163.136382 90.9596551,163.706702 91.2044187,164.121399 C91.7219699,164.135709 92.0153284,164.908756 91.3597437,165.053348 C90.5521134,165.231629 90.3604167,163.852189 91.0747328,163.177822 C90.4904008,163.526632 90.182434,164.104107 90.3705531,165.062292 C90.3944034,165.185121 90.4000678,165.299901 90.3926146,165.40842 C90.4254088,165.818943 90.8484532,166.710943 91.5803588,166.600039 C90.8591858,166.586027 90.5470452,165.550031 90.5801375,165.20122 C90.6436389,165.509187 90.857397,165.792409 91.3996929,165.880059 C92.1265303,165.99782 92.2574088,166.854641 92.1637964,166.794121 C91.8996545,166.622399 91.5609805,166.950639 91.1036512,166.862094 C90.6072672,166.766097 90.3085424,166.243478 90.3556467,165.633805 C90.0867645,166.632386 88.5611873,166.915841 88.7511619,166.669716 L88.7770559,166.642374 C89.3566179,166.118562 88.7341254,165.559273 90.0536424,165.036653 C89.8807279,163.619946 90.8392112,162.768789 92.2329622,162.78787 L92.3967742,162.791237 C92.6668221,162.806585 92.9196517,162.870103 93.1571608,162.9742 C93.032543,162.688891 92.9660604,162.381818 92.9711286,162.049405 L92.9718538,161.920335 C93.0055179,160.597152 93.8474681,159.702872 95.2196142,159.870383 C95.723856,158.597992 96.261918,159.131372 96.7693775,158.651436 L96.8256327,158.593797 C97.1175006,158.271222 96.8500793,159.894234 95.8170638,160.172388 Z M94.0929863,164.838398 C93.9442202,165.183333 92.9914013,165.904804 92.2752965,165.532441 C92.9451914,166.034191 93.7206238,165.565533 94.1135572,165.006244 C93.8333164,165.735467 93.3384229,166.131679 92.6077098,166.033297 C92.0931399,165.964131 91.9500382,165.382781 91.6012278,165.402457 C91.4778026,165.409314 92.0511038,164.675023 92.8265362,164.953475 C93.4052037,165.161271 93.8705824,165.093298 94.0929863,164.838398 Z M94.9864776,159.067821 L94.9864776,159.216886 L89.4061072,159.216886 L89.4061072,164.796958 L89.2570429,164.796958 L89.2570429,159.067821 L94.9864776,159.067821 Z M95.6155289,161.387858 C95.5958524,161.736966 96.1775012,161.880068 96.2463689,162.394638 C96.3447514,163.125053 95.9488366,163.619946 95.2196142,163.900187 C95.7789033,163.507552 96.2472633,162.732119 95.7458111,162.062225 C96.1178755,162.778031 95.3964044,163.731148 95.0514697,163.879616 C95.3063696,163.657511 95.3743429,163.191834 95.1665473,162.613464 C94.8883933,161.838032 95.622684,161.264433 95.6155289,161.387858 Z M90.5354182,159.82149 C90.6526666,159.938914 90.6879685,160.100877 90.6962617,160.221716 L92.7701899,160.220983 L92.7701899,160.519111 L90.7083328,160.519111 L90.7083328,162.58067 L90.4102042,162.58067 L90.4096824,160.517557 C90.2852457,160.510246 90.1199122,160.475712 90.0005756,160.356631 C89.8014257,160.157481 89.8386917,159.82954 89.8434618,159.79287 L89.8586664,159.679879 L89.9716571,159.664675 C90.0083269,159.660203 90.3365664,159.622639 90.5354182,159.82149 Z M92.3882872,160.769539 L92.3882872,161.067668 L91.2568893,161.067668 L91.2568893,162.199066 L90.9587608,162.199066 L90.9587608,160.769539 L92.3882872,160.769539 Z M122.324383,158.567903 L122.351698,158.593797 C122.875212,159.173359 123.434799,158.550866 123.957419,159.870383 C125.329854,159.702872 126.171533,160.597152 126.205451,161.920607 L126.205907,162.049144 C126.210376,162.326416 126.164953,162.585829 126.077399,162.829715 L126.019872,162.9742 C126.257381,162.870103 126.510418,162.806585 126.780535,162.791237 L126.944633,162.78721 L127.073438,162.788595 C128.353939,162.821173 129.232768,163.61074 129.136579,164.905502 L129.123689,165.036653 C130.39608,165.540608 129.862423,166.078659 130.342339,166.586119 L130.399977,166.642374 C130.72285,166.93454 129.099838,166.66682 128.821684,165.633805 C128.868491,166.243478 128.569766,166.766097 128.073382,166.862094 C127.616351,166.950639 127.277677,166.622399 127.013237,166.794121 C126.919624,166.854641 127.050503,165.99782 127.77734,165.880059 C128.319636,165.792409 128.533692,165.508889 128.597194,165.20122 C128.630286,165.550031 128.317847,166.586027 127.596674,166.600039 C128.328878,166.710943 128.751922,165.818943 128.784418,165.40842 C128.777263,165.299901 128.78263,165.185121 128.806778,165.062292 C128.994897,164.104107 128.68693,163.526632 128.1023,163.177822 C128.816914,163.852189 128.62492,165.231629 127.817587,165.053348 C127.161705,164.908756 127.455361,164.135709 127.972614,164.121399 C128.217676,163.706702 127.801787,163.136382 127.217156,163.102693 C126.512679,163.062148 126.014506,163.504272 126.087845,163.90287 C126.138527,164.177447 126.483164,163.827146 126.335888,164.295208 C126.121534,164.975239 125.236688,163.846226 124.249883,164.941848 C124.34588,165.227157 124.639537,165.388445 124.787707,165.744709 C125.105214,166.508812 124.365259,167.081517 124.397158,166.907708 C124.472287,166.497781 124.07667,166.367201 124.06236,166.155828 C123.937742,166.321289 123.726369,166.352295 123.766318,166.266732 C123.916873,165.94207 123.79315,165.547944 124.104992,165.067361 C124.181611,164.924259 124.260914,164.786523 124.341706,164.652366 C124.207549,164.733158 124.069813,164.812461 123.926712,164.888782 C123.446128,165.200922 123.052002,165.077199 122.72734,165.227754 C122.641777,165.267703 122.672485,165.05633 122.838244,164.931414 C122.626871,164.917402 122.496291,164.521785 122.086364,164.596914 C121.912555,164.628813 122.48526,163.888858 123.249065,164.206365 C123.605627,164.354535 123.766915,164.648192 124.051926,164.743891 C125.147548,163.757085 124.018833,162.872538 124.698865,162.658184 C125.166926,162.51061 124.816327,162.855247 125.090904,162.905928 C125.489501,162.979566 125.931924,162.481095 125.891379,161.776617 C125.85769,161.192285 125.28737,160.776396 124.872375,161.021458 C124.858065,161.538711 124.085316,161.832069 123.940425,161.176485 C123.762145,160.369153 125.141884,160.177158 125.81625,160.891772 C125.467142,160.307142 124.889965,159.999175 123.93178,160.187294 C123.808951,160.211443 123.693873,160.216809 123.585652,160.209654 C123.19379,160.240673 122.363225,160.627543 122.384986,161.299217 L122.393443,161.394258 L122.402802,161.296889 C122.500035,160.679734 123.367234,160.39447 123.738532,160.394508 L123.792852,160.396878 C123.506883,160.455844 123.241992,160.644368 123.135433,161.105191 L123.113715,161.216434 C122.996252,161.943569 122.139431,162.07415 122.199951,161.980836 C122.371673,161.716395 122.043135,161.377721 122.131978,160.920392 C122.227975,160.424008 122.750296,160.125581 123.359969,160.172388 C122.361388,159.903506 122.07849,158.377928 122.324383,158.567903 L122.324383,158.567903 Z M125.114158,164.868211 C125.321735,165.106117 125.74097,165.18119 126.266423,165.021439 L126.380608,164.983586 C127.15604,164.705134 127.729341,165.439425 127.605916,165.432568 C127.257106,165.412593 127.114004,165.994242 126.599434,166.063408 C125.868721,166.161492 125.373828,165.765578 125.093587,165.036355 C125.48652,165.595644 126.261953,166.064302 126.931847,165.562552 C126.215743,165.934915 125.262924,165.213444 125.114158,164.868211 Z M129.91999,159.067821 L129.91999,164.796958 L129.770926,164.796958 L129.770926,159.216886 L124.190853,159.216886 L124.190853,159.067821 L129.91999,159.067821 Z M123.591615,161.417969 C123.584771,161.29991 124.256574,161.819582 124.071316,162.543617 L124.040597,162.643575 C123.832801,163.221945 123.900774,163.687323 124.155674,163.909727 C123.81074,163.760961 123.089268,162.808142 123.461333,162.092336 C122.959881,162.761932 123.428539,163.537365 123.98753,163.930298 C123.258605,163.650057 122.862393,163.155164 122.960477,162.424749 C123.029941,161.909881 123.611292,161.767077 123.591615,161.417969 Z M129.194941,159.65424 L129.307634,159.669147 L129.322838,159.782137 C129.327609,159.818807 129.365173,160.147047 129.166023,160.346197 C129.049192,160.463278 128.887666,160.498556 128.7669,160.506817 L128.766829,162.58067 L128.4687,162.58067 L128.4687,160.519111 L126.407141,160.519111 L126.407141,160.220983 L128.46996,160.221338 C128.476813,160.099516 128.510625,159.931728 128.63118,159.811354 C128.830032,159.612204 129.158272,159.64947 129.194941,159.65424 Z M128.218272,160.769539 L128.218272,162.199066 L127.920144,162.199066 L127.920144,161.067668 L126.789044,161.067668 L126.789044,160.769539 L128.218272,160.769539 Z M124.787707,211.358379 C124.639537,211.714642 124.34588,211.876228 124.249883,212.161239 C125.236688,213.256861 126.121534,212.128147 126.335888,212.808178 C126.483164,213.27624 126.138527,212.92564 126.087845,213.200217 C126.014506,213.598815 126.512679,214.041238 127.217156,214.000692 C127.801787,213.967004 128.217676,213.396684 127.972614,212.981689 C127.455361,212.967378 127.161705,212.194629 127.817587,212.049739 C128.62492,211.871458 128.816914,213.250899 128.1023,213.925266 C128.68693,213.576455 128.994897,212.99898 128.806778,212.041093 C128.78263,211.918264 128.777263,211.803186 128.784418,211.694668 C128.751922,211.284443 128.328878,210.392144 127.596674,210.503048 C128.317847,210.51706 128.630286,211.553355 128.597194,211.901867 C128.533692,211.594198 128.319636,211.310678 127.777638,211.223028 C127.050503,211.105566 126.919624,210.248446 127.013237,210.309264 C127.277677,210.480986 127.616351,210.152449 128.073382,210.241291 C128.569766,210.337288 128.868491,210.85961 128.821684,211.469282 C129.090567,210.470701 130.616144,210.187524 130.4259,210.433399 L130.399977,210.460713 C129.820415,210.984525 130.443206,211.543815 129.123689,212.066732 C129.296305,213.483439 128.337822,214.334596 126.944071,214.315218 C126.612254,214.320286 126.305181,214.254101 126.019872,214.129185 C126.144788,214.414196 126.211271,214.721269 126.205904,215.053682 L126.205451,215.182752 C126.171533,216.505936 125.329854,217.400224 123.957419,217.233002 C123.453464,218.505393 122.915135,217.971736 122.407924,218.451652 L122.351698,218.50929 C122.05983,218.832164 122.326954,217.209152 123.359969,216.930998 C122.750296,216.977804 122.227975,216.679079 122.131978,216.182695 C122.043135,215.725664 122.371673,215.386692 122.199951,215.12255 C122.142313,215.033395 122.91673,215.14786 123.092084,215.786833 L123.113715,215.886653 C123.201365,216.428949 123.484885,216.642707 123.792852,216.706507 C123.460651,216.737739 122.505153,216.456106 122.402802,215.806237 L122.393443,215.708161 L122.384986,215.803871 C122.364261,216.443561 123.116621,216.824936 123.526827,216.886848 L123.585652,216.893732 C123.693873,216.886278 123.808951,216.891943 123.93178,216.916091 C124.889965,217.10421 125.467142,216.795945 125.81625,216.211613 C125.141884,216.925929 123.762145,216.733935 123.940425,215.926603 C124.085316,215.271018 124.858065,215.564376 124.872375,216.081629 C125.28737,216.326989 125.85769,215.9111 125.891379,215.32647 C125.931924,214.621992 125.489501,214.123819 125.090904,214.197159 C124.816327,214.247841 125.166926,214.592477 124.698865,214.444904 C124.018833,214.230847 125.147548,213.346002 124.051926,212.359196 C123.766915,212.454895 123.605627,212.74885 123.249065,212.896722 C122.48526,213.214527 121.912555,212.474274 122.086364,212.506174 C122.496291,212.581302 122.626871,212.185983 122.838244,212.171673 C122.672485,212.047056 122.641777,211.835682 122.72734,211.875334 C123.052002,212.025888 123.446128,211.902463 123.926712,212.214306 C124.069813,212.290627 124.207549,212.369929 124.341706,212.45102 C124.260914,212.316564 124.181611,212.179127 124.104992,212.036025 C123.79315,211.555143 123.916873,211.161316 123.766318,210.836654 C123.726369,210.751091 123.937742,210.781798 124.06236,210.947259 C124.07667,210.736184 124.472287,210.605604 124.397158,210.195677 C124.365259,210.02157 125.105214,210.594275 124.787707,211.358379 Z M129.91999,212.306129 L129.91999,218.035564 L124.190853,218.035564 L124.190853,217.8865 L129.770926,217.8865 L129.770926,212.306129 L129.91999,212.306129 Z M128.766829,214.522417 L128.766275,216.585296 C128.888198,216.592152 129.056239,216.62594 129.176756,216.746456 C129.375607,216.945904 129.338341,217.273846 129.333571,217.310515 L129.318367,217.423208 L129.170346,217.441953 C129.15298,217.443257 129.130397,217.444375 129.104012,217.444375 C128.982376,217.444375 128.780543,217.420525 128.641615,217.281597 C128.524366,217.164173 128.489168,217.002211 128.48102,216.881372 L126.407141,216.882403 L126.407141,216.584274 L128.4687,216.584274 L128.4687,214.522417 L128.766829,214.522417 Z M128.218272,214.90432 L128.218272,216.333846 L126.789044,216.333846 L126.789044,216.035718 L127.920144,216.035718 L127.920144,214.90432 L128.218272,214.90432 Z M123.957717,213.2029 C123.398428,213.595833 122.92977,214.371266 123.43152,215.041161 C123.059157,214.325056 123.780629,213.372237 124.125563,213.223471 C123.870663,213.445875 123.80269,213.911253 124.010486,214.489623 C124.288938,215.265055 123.554647,215.838655 123.561504,215.715229 C123.581479,215.366121 122.99983,215.223317 122.930664,214.708449 C122.832282,213.978034 123.228494,213.483141 123.957717,213.2029 Z M125.063774,212.096843 C125.344015,211.367621 125.838908,210.971706 126.569323,211.06979 C127.084191,211.138956 127.226995,211.720605 127.575805,211.700928 C127.699528,211.693773 127.125929,212.428064 126.350497,212.14991 C125.772127,211.942114 125.306451,212.010088 125.084345,212.264988 C125.233111,211.920053 126.185632,211.198284 126.901736,211.570646 C126.231842,211.069194 125.456707,211.537554 125.063774,212.096843 Z M94.7801727,210.195677 C94.7050443,210.605604 95.1006609,210.736184 95.1146729,210.947259 C95.2392906,210.781798 95.4506638,210.751091 95.4110127,210.836654 C95.2601596,211.161316 95.383883,211.555143 95.0720405,212.036025 C94.9957196,212.179127 94.9164174,212.316564 94.8353264,212.45102 C94.9697824,212.369929 95.1075178,212.290627 95.2503214,212.214306 C95.7309046,211.902463 96.1250306,212.025888 96.4496926,211.875334 C96.5355536,211.835682 96.5045483,212.047056 96.3390869,212.171673 C96.5501619,212.185983 96.6810404,212.581302 97.0909671,212.506174 C97.2647761,212.474274 96.6920711,213.214527 95.9279676,212.896722 C95.571704,212.74885 95.4101183,212.454895 95.1251074,212.359196 C94.0294849,213.346002 95.1584978,214.230847 94.4784666,214.444904 C94.0104047,214.592477 94.3607058,214.247841 94.0861294,214.197159 C93.6875315,214.123819 93.2451087,214.621992 93.2856542,215.32647 C93.3193427,215.9111 93.8899608,216.326989 94.3046576,216.081629 C94.3189678,215.564376 95.091717,215.271018 95.2366075,215.926603 C95.4148884,216.733935 94.0351494,216.925929 93.3610807,216.211613 C93.7098911,216.795945 94.2873662,217.10421 95.2452532,216.916091 C95.3680822,216.891943 95.4831598,216.886278 95.5916786,216.893732 C95.9835415,216.862428 96.8141061,216.475545 96.7923448,215.803871 L96.7829326,215.708161 L96.7744904,215.806237 C96.6770364,216.423612 95.810058,216.708655 95.43854,216.708838 L95.3841811,216.706507 C95.6921479,216.642707 95.9756682,216.428949 96.063318,215.886653 C96.1807806,215.159816 97.0379003,215.028937 96.977082,215.12255 C96.80536,215.38699 97.1338977,215.725664 97.0453535,216.182695 C96.949058,216.679079 96.4267367,216.977804 95.8170638,216.930998 C96.8156454,217.19988 97.0988218,218.725457 96.8529476,218.535213 L96.8256327,218.50929 C96.3018208,217.929728 95.7425317,218.552519 95.2196142,217.233002 C93.8032054,217.405618 92.9517502,216.447135 92.9711286,215.053384 L92.9744963,214.889572 C92.9898444,214.619524 93.0533623,214.366695 93.1574589,214.129185 C92.8721499,214.254101 92.5650774,214.320286 92.2326641,214.315218 L92.1035945,214.314493 C90.7804109,214.280846 89.8861315,213.439167 90.0536424,212.066732 C88.781251,211.56249 89.3146312,211.024428 88.8346954,210.516969 L88.7770559,210.460713 C88.4544808,210.168846 90.0774927,210.436267 90.3556467,211.469282 C90.3085424,210.85961 90.6072672,210.337288 91.1036512,210.241291 C91.5609805,210.152449 91.8996545,210.480986 92.1637964,210.309264 C92.2574088,210.248446 92.1265303,211.105566 91.3996929,211.223028 C90.857397,211.310678 90.6436389,211.594198 90.5801375,211.901867 C90.5470452,211.553355 90.8594839,210.51706 91.5803588,210.503048 C90.8484532,210.392144 90.4254088,211.284443 90.3926146,211.694966 C90.4000678,211.803186 90.3944034,211.918264 90.3705531,212.041093 C90.182434,212.99898 90.4904008,213.576455 91.0747328,213.925266 C90.3604167,213.250899 90.5521134,211.871458 91.3597437,212.049739 C92.0153284,212.194629 91.7219699,212.967378 91.2044187,212.981689 C90.9596551,213.396684 91.3755445,213.967004 91.9598765,214.000692 C92.6643543,214.041238 93.1628252,213.598815 93.0891875,213.200217 C93.0385056,212.92564 92.693869,213.27624 92.8414426,212.808178 C93.0557971,212.128147 93.9403445,213.256861 94.92715,212.161239 C94.8311526,211.876228 94.5377941,211.714642 94.3893261,211.358379 C94.0718192,210.594275 94.8120724,210.02157 94.7801727,210.195677 Z M89.4061072,212.306129 L89.4061072,217.8865 L94.9864776,217.8865 L94.9864776,218.035564 L89.2570429,218.035564 L89.2570429,212.306129 L89.4061072,212.306129 Z M90.7083328,214.522417 L90.7083328,216.584274 L92.7701899,216.584274 L92.7701899,216.882403 L90.7073593,216.881533 C90.7004087,217.003331 90.6665496,217.171334 90.5458527,217.292031 C90.4069248,217.430959 90.2050918,217.45481 90.0834553,217.45481 L89.9820916,217.448847 L89.8691009,217.433941 L89.849688,217.274586 C89.8433904,217.169286 89.8480899,216.92013 90.0110101,216.757189 C90.1282181,216.640156 90.289801,216.604769 90.4105685,216.596452 L90.4102042,214.522417 L90.7083328,214.522417 Z M91.2568893,214.90432 L91.2568893,216.035718 L92.3882872,216.035718 L92.3882872,216.333846 L90.9587608,216.333846 L90.9587608,214.90432 L91.2568893,214.90432 Z M95.1895032,213.173087 C95.9187256,213.45303 96.3149385,213.948221 96.2165561,214.678338 C96.1470921,215.193206 95.5657414,215.336308 95.585716,215.685118 C95.5922749,215.803177 94.9207327,215.283778 95.1060138,214.559766 L95.1367344,214.45981 C95.34453,213.881441 95.2765567,213.415764 95.0213587,213.19336 C95.3665915,213.342126 96.0880627,214.294945 95.7157001,215.01105 C96.2171523,214.341155 95.7487924,213.565722 95.1895032,213.173087 Z M94.0834462,212.06703 C93.6905128,211.507741 92.9153785,211.039083 92.2454836,211.540833 C92.9612903,211.168471 93.9141092,211.889942 94.0628753,212.234877 C93.8555766,211.99697 93.4361005,211.921897 92.9108559,212.081648 L92.7967233,212.119501 C92.021291,212.398251 91.4476916,211.663662 91.5711168,211.670817 C91.9202254,211.690494 92.063029,211.109143 92.577897,211.039679 C93.308312,210.941595 93.8032054,211.337808 94.0834462,212.06703 Z M97.4773418,160.519111 L121.699691,160.519111 L121.699691,160.220983 L97.4773418,160.220983 L97.4773418,160.519111 Z M97.4773418,159.216886 L121.699691,159.216886 L121.699691,159.067821 L97.4773418,159.067821 L97.4773418,159.216886 Z M97.4773418,161.067668 L121.699691,161.067668 L121.699691,160.769539 L97.4773418,160.769539 L97.4773418,161.067668 Z M97.4773418,216.882403 L121.699691,216.882403 L121.699691,216.584274 L97.4773418,216.584274 L97.4773418,216.882403 Z M97.4773418,218.035564 L121.699691,218.035564 L121.699691,217.8865 L97.4773418,217.8865 L97.4773418,218.035564 Z M97.4773418,216.333846 L121.699691,216.333846 L121.699691,216.035718 L97.4773418,216.035718 L97.4773418,216.333846 Z M89.2570429,209.50223 L89.4061072,209.50223 L89.4061072,167.326281 L89.2570429,167.326281 L89.2570429,209.50223 Z M90.4102042,209.50223 L90.7083328,209.50223 L90.7083328,167.326281 L90.4102042,167.326281 L90.4102042,209.50223 Z M90.9587608,209.50223 L91.2568893,209.50223 L91.2568893,167.326281 L90.9587608,167.326281 L90.9587608,209.50223 Z M129.770926,209.50223 L129.91999,209.50223 L129.91999,167.326281 L129.770926,167.326281 L129.770926,209.50223 Z M128.4687,209.50223 L128.766829,209.50223 L128.766829,167.326281 L128.4687,167.326281 L128.4687,209.50223 Z M127.920144,209.50223 L128.218272,209.50223 L128.218272,167.326281 L127.920144,167.326281 L127.920144,209.50223 Z M92.3516174,185.255136 L92.5006817,185.255136 L92.5006817,168.291323 L92.3516174,168.291323 L92.3516174,185.255136 Z M92.3516174,208.812063 L92.5006817,208.812063 L92.5006817,191.848249 L92.3516174,191.848249 L92.3516174,208.812063 Z M126.676649,185.255136 L126.825714,185.255136 L126.825714,168.291323 L126.676649,168.291323 L126.676649,185.255136 Z M126.676649,208.812063 L126.825714,208.812063 L126.825714,191.848249 L126.676649,191.848249 L126.676649,208.812063 Z M98.6835699,215.059347 L106.620945,215.059347 L106.620945,214.910282 L98.6835699,214.910282 L98.6835699,215.059347 Z M112.556386,215.059347 L120.493463,215.059347 L120.493463,214.910282 L112.556386,214.910282 L112.556386,215.059347 Z M98.6835699,162.291485 L106.620945,162.291485 L106.620945,162.142421 L98.6835699,162.142421 L98.6835699,162.291485 Z M112.556386,162.291485 L120.493463,162.291485 L120.493463,162.142421 L112.556386,162.142421 L112.556386,162.291485 Z" id="1"></path>
        </g>
    </g>
</svg>
