<?xml version="1.0" encoding="UTF-8"?>
<svg width="60px" height="36px" viewBox="0 0 60 36" version="1.1" xmlns="http://www.w3.org/2000/svg" xmlns:xlink="http://www.w3.org/1999/xlink">
    <title>36</title>
    <g id="页面-1" stroke="none" stroke-width="1" fill="none" fill-rule="evenodd">
        <g id="花环" transform="translate(-641.000000, -412.000000)" fill="#545458">
            <path d="M659.342635,414.46219 C670.149486,410.536782 675.777673,412.015291 681.402166,414.012616 L681.994427,414.224566 C682.290775,414.331288 682.587615,414.438972 682.885703,414.546907 L683.483765,414.762898 C687.084795,416.058317 690.937857,417.321382 696.346689,417.321382 L696.535819,417.321382 L696.535819,420.682652 C699.069447,421.465339 701,425.33774 701,429.986189 C701,434.634639 699.069447,438.507643 696.535819,439.29033 L696.535819,442.650997 L696.346689,442.650997 C690.406633,442.650997 686.382456,444.143165 682.547984,445.551269 L681.959329,445.767025 C676.181027,447.877919 670.634295,449.611427 659.342635,445.510188 C652.120993,442.887013 648.753877,442.696312 646.918443,442.687897 L646.598013,442.687885 C646.564206,442.687997 646.530976,442.688127 646.498306,442.688257 L646.131829,442.688561 C645.875199,442.686931 645.657447,442.679057 645.464181,442.650997 L645.464181,439.289726 C642.930553,438.507643 641,434.634639 641,429.986189 C641,425.33774 642.930553,421.465339 645.464181,420.682652 L645.464181,417.321382 C645.676753,417.290541 645.93925,417.288371 646.275323,417.289109 L646.781433,417.289498 C648.598218,417.280848 652.088351,417.097517 659.342635,414.46219 Z M671.4303,412.980093 C667.970649,412.980093 664.123222,413.767005 659.668557,415.385484 C651.726287,418.270021 648.150065,418.270021 646.623346,418.270021 L646.430053,418.270021 L646.430053,421.408614 L645.745497,421.620428 C643.887503,422.194319 641.965871,425.48076 641.965871,429.986189 C641.965871,434.492222 643.887503,437.778663 645.745497,438.352554 L646.430053,438.563764 L646.430053,441.708393 L646.770249,441.707789 L646.940491,441.707928 C648.516338,441.711597 652.028852,441.812506 659.668557,444.587498 C664.17437,446.224081 668.043208,447.020044 671.495128,447.020044 C675.711299,447.020044 678.908666,445.845712 682.294569,444.601982 C686.00342,443.239973 689.838357,441.831498 695.381412,441.683651 L695.569947,441.678823 L695.569947,438.564368 L696.254503,438.352554 C698.112497,437.778663 700.034129,434.492222 700.034129,429.986189 C700.034129,425.480156 698.112497,422.194319 696.254503,421.620428 L695.569947,421.408614 L695.569947,418.293555 L695.381412,418.288728 C689.933517,418.14088 686.092632,416.749302 682.377239,415.403587 C678.93662,414.157443 675.686915,412.980093 671.4303,412.980093 Z M671.430241,413.372101 C675.619649,413.372101 678.839021,414.538588 682.248119,415.773267 C685.948049,417.113551 689.772876,418.499094 695.183301,418.674701 L695.183301,421.69924 L696.142036,421.995539 C697.865617,422.52779 699.648077,425.66216 699.648077,429.986551 C699.648077,434.31034 697.865617,437.445312 696.142036,437.977564 L695.183301,438.273259 L695.183301,441.297195 C689.678905,441.472802 685.858836,442.875846 682.161881,444.234233 C678.809879,445.465291 675.643438,446.627554 671.495069,446.627554 C668.087755,446.627554 664.262334,445.839436 659.798747,444.218543 C652.176809,441.449947 648.613579,441.321813 646.991976,441.315615 L646.81658,441.315299 L646.81658,438.273259 L645.857845,437.97696 C644.134859,437.444709 642.352398,434.31034 642.352398,429.986551 C642.352398,425.662763 644.134859,422.52779 645.857845,421.995539 L646.81658,421.69924 L646.81658,418.662028 C648.463438,418.657804 652.109245,418.547371 659.798747,415.754559 C664.211185,414.151771 668.015791,413.372101 671.430241,413.372101 Z" id="36"></path>
        </g>
    </g>
</svg>
