<?xml version="1.0" encoding="UTF-8"?>
<svg width="61px" height="38px" viewBox="0 0 61 38" version="1.1" xmlns="http://www.w3.org/2000/svg" xmlns:xlink="http://www.w3.org/1999/xlink">
    <title>9</title>
    <g id="页面-1" stroke="none" stroke-width="1" fill="none" fill-rule="evenodd">
        <g id="花环" transform="translate(-723.000000, -169.000000)" fill="#545458">
            <path d="M753.052356,169.264768 C757.632633,169.264768 762.071529,170.292039 765.89885,172.237013 L768.743313,172.237013 C771.765712,172.237013 774.224737,174.714306 774.224737,177.759296 L774.224737,177.895038 L776.791814,177.895038 L776.791814,181.721989 L776.961328,181.721989 C780.321141,181.721989 783.054506,184.477625 783.054506,187.864678 C783.054506,189.505496 782.419278,191.046132 781.26601,192.203008 C780.119194,193.363133 778.589807,194.003034 776.961328,194.003034 L776.791814,194.003034 L776.791814,197.830166 L774.224737,197.830166 L774.224737,197.97024 C774.224737,201.01523 771.765712,203.492522 768.743313,203.492522 L765.89885,203.492522 C762.071529,205.437497 757.632633,206.464768 753.052356,206.464768 C748.474767,206.464768 744.037304,205.437497 740.209984,203.492522 L737.3657,203.492522 C734.345451,203.492522 731.888397,201.01523 731.888397,197.97024 L731.888397,197.830166 L729.32132,197.830166 L729.32132,194.003034 L729.151986,194.003034 C725.789843,194.003034 723.054506,191.249384 723.054506,187.864678 C723.054506,186.221332 723.689556,184.679072 724.842823,183.522376 C725.995015,182.361709 727.525657,181.721989 729.151986,181.721989 L729.32132,181.721989 L729.32132,177.895038 L731.888397,177.895038 L731.888397,177.759296 C731.888397,174.714306 734.345451,172.237013 737.3657,172.237013 L740.209984,172.237013 C744.037304,170.292039 748.474767,169.264768 753.052356,169.264768 Z M753.052356,170.303231 C748.592674,170.303231 744.275627,171.311368 740.567647,173.218616 L740.457445,173.275476 L737.3657,173.275476 C734.913842,173.275476 732.919278,175.286877 732.919278,177.759296 L732.919278,178.933501 L730.352201,178.933501 L730.352201,182.760452 L729.151986,182.760452 C727.801072,182.760452 726.52936,183.292048 725.571052,184.257405 C724.612743,185.21861 724.085387,186.499495 724.085387,187.864678 C724.085387,190.676812 726.358234,192.964571 729.151986,192.964571 L730.352201,192.964571 L730.352201,196.791703 L732.919278,196.791703 L732.919278,197.97024 C732.919278,200.442658 734.913842,202.45406 737.3657,202.45406 L740.457445,202.45406 L740.567647,202.51092 C744.275627,204.418168 748.592674,205.426305 753.052356,205.426305 C757.514726,205.426305 761.833386,204.418168 765.541187,202.51092 L765.651568,202.45406 L768.743313,202.45406 C771.197321,202.45406 773.193857,200.442658 773.193857,197.97024 L773.193857,196.791703 L775.760933,196.791703 L775.760933,192.964571 L776.961328,192.964571 C778.313675,192.964571 779.583595,192.433156 780.537065,191.468521 C781.49627,190.506593 782.023626,189.227333 782.023626,187.864678 C782.023626,185.050196 779.75275,182.760452 776.961328,182.760452 L775.760933,182.760452 L775.760933,178.933501 L773.193857,178.933501 L773.193857,177.759296 C773.193857,175.286877 771.197321,173.275476 768.743313,173.275476 L765.651568,173.275476 L765.541187,173.218616 C761.833386,171.311368 757.514726,170.303231 753.052356,170.303231 Z M753.052213,172.047173 C757.206914,172.047173 761.220413,172.982024 764.65907,174.750461 L765.062247,174.959309 L768.425645,174.959309 C770.070072,174.959309 771.407905,176.307163 771.407905,177.963866 L771.407905,180.502892 L773.923017,180.502892 L773.923017,184.252224 L776.477192,184.252224 C778.452225,184.252224 780.058843,185.872825 780.058843,187.864732 C780.058843,188.829547 779.684336,189.735517 779.004488,190.415852 C778.332884,191.097089 777.434963,191.472907 776.477192,191.472907 L773.923017,191.472907 L773.923017,195.222601 L771.407905,195.222601 L771.407905,197.765598 C771.407905,199.422301 770.070072,200.770335 768.425645,200.770335 L765.061351,200.770335 L764.658174,200.975211 C761.22328,202.745995 757.209781,203.68229 753.052213,203.68229 C748.897691,203.68229 744.885626,202.745995 741.449656,200.97467 L741.043791,200.770335 L737.68326,200.770335 C736.041163,200.770335 734.705122,199.422301 734.705122,197.765598 L734.705122,195.222601 L732.19001,195.222601 L732.19001,191.472907 L729.636014,191.472907 C727.658831,191.472907 726.050062,189.854111 726.050062,187.864732 C726.050062,186.899014 726.422957,185.99178 727.099937,185.309821 C727.781397,184.627681 728.682006,184.252224 729.636014,184.252224 L732.19001,184.252224 L732.19001,180.502892 L734.705122,180.502892 L734.705122,177.963866 C734.705122,176.307163 736.041163,174.959309 737.68326,174.959309 L741.042716,174.959309 L741.450194,174.750281 C744.888493,172.982024 748.900558,172.047173 753.052213,172.047173 Z M753.052213,172.504039 C748.971876,172.504039 745.031307,173.421561 741.656083,175.157326 L741.151663,175.416175 L737.68326,175.416175 C736.291133,175.416175 735.158831,176.558971 735.158831,177.963866 L735.158831,180.959758 L732.643719,180.959758 L732.643719,184.70909 L729.636014,184.70909 C728.802601,184.70909 728.015598,185.037254 727.42015,185.633291 C726.82936,186.228607 726.503772,187.021037 726.503772,187.864732 C726.503772,189.602302 727.908801,191.015861 729.636014,191.015861 L732.643719,191.015861 L732.643719,194.765554 L735.158831,194.765554 L735.158831,197.765598 C735.158831,199.170311 736.291133,200.313288 737.68326,200.313288 L741.150767,200.313288 L741.654471,200.566902 C745.028619,202.306458 748.969188,203.225244 753.052213,203.225244 C757.138284,203.225244 761.080465,202.306458 764.452643,200.567985 L764.953479,200.313288 L768.425645,200.313288 C769.819923,200.313288 770.954375,199.170311 770.954375,197.765598 L770.954375,194.765554 L773.469307,194.765554 L773.469307,191.015861 L776.477192,191.015861 C777.313293,191.015861 778.096712,190.688058 778.683738,190.092923 C779.278291,189.497788 779.605134,188.706982 779.605134,187.864732 C779.605134,186.124634 778.202075,184.70909 776.477192,184.70909 L773.469307,184.70909 L773.469307,180.959758 L770.954375,180.959758 L770.954375,177.963866 C770.954375,176.558971 769.819923,175.416175 768.425645,175.416175 L764.952583,175.416175 L764.452284,175.157146 C761.077598,173.421561 757.135417,172.504039 753.052213,172.504039 Z" id="9"></path>
        </g>
    </g>
</svg>
