<?xml version="1.0" encoding="UTF-8"?>
<svg width="60px" height="34px" viewBox="0 0 60 34" version="1.1" xmlns="http://www.w3.org/2000/svg" xmlns:xlink="http://www.w3.org/1999/xlink">
    <title>35</title>
    <g id="页面-1" stroke="none" stroke-width="1" fill="none" fill-rule="evenodd">
        <g id="花环" transform="translate(-560.000000, -411.000000)" fill="#545458">
            <path d="M610.96349,411 L610.96349,413.520287 L615.10341,413.520287 L615.10341,417.294152 C618.012415,419.30286 620,423.339976 620,427.997911 C620,432.655249 618.012415,436.696543 615.10341,438.705848 L615.10341,442.479116 L610.96349,442.479116 L610.96349,445 L569.040628,445 L569.040628,442.479116 L564.900709,442.475534 L564.900709,438.705848 C561.991115,436.696543 560,432.655249 560,427.997911 C560,423.339976 561.991115,419.30286 564.900709,417.294152 L564.900709,413.520287 L569.040628,413.520287 L569.040628,411 L610.96349,411 Z M610.007943,411.969433 L569.996175,411.969433 L569.996175,414.490317 L565.856256,414.490317 L565.856256,417.806925 L565.438498,418.095844 C562.673061,420.004863 560.955547,423.799621 560.955547,427.997911 C560.955547,432.199185 562.673061,435.99454 565.438498,437.904156 L565.856256,438.192479 L565.856256,441.506698 L569.996175,441.51028 L569.996175,444.030567 L610.007943,444.030567 L610.007943,441.509683 L614.147863,441.509683 L614.147863,438.192479 L614.56562,437.904156 C617.328116,435.996331 619.044453,432.200379 619.044453,427.997911 C619.044453,423.79783 617.328116,420.003669 614.56562,418.095247 L614.147863,417.806925 L614.147863,414.490317 L610.007943,414.490317 L610.007943,411.969433 Z M609.625254,412.357027 L609.625254,414.877911 L613.765173,414.877911 L613.765173,418.011855 L614.350622,418.415984 C617.01015,420.252773 618.662352,423.923964 618.662352,427.99809 C618.662352,432.074007 617.01015,435.746988 614.350622,437.58318 L613.765173,437.98731 L613.765173,441.12185 L609.625254,441.12185 L609.625254,443.642734 L570.378394,443.642734 L570.378394,441.123044 L566.238475,441.118865 L566.238475,437.98731 L565.653614,437.58318 C562.991733,435.745197 561.337766,432.072216 561.337766,427.99809 C561.337766,423.925755 562.991733,420.254564 565.653614,418.415984 L566.238475,418.011855 L566.238475,414.877911 L570.378394,414.877911 L570.378394,412.357027 L609.625254,412.357027 Z" id="35"></path>
        </g>
    </g>
</svg>
