<?xml version="1.0" encoding="UTF-8"?>
<svg width="61px" height="44px" viewBox="0 0 61 44" version="1.1" xmlns="http://www.w3.org/2000/svg" xmlns:xlink="http://www.w3.org/1999/xlink">
    <title>19</title>
    <g id="页面-1" stroke="none" stroke-width="1" fill="none" fill-rule="evenodd">
        <g id="花环" transform="translate(-720.000000, -246.000000)" fill="#545458">
            <path d="M723.814421,250.089193 C724.344885,250.15493 724.858146,250.391283 725.26553,250.798667 C724.857897,250.391117 724.621378,249.877523 724.555724,249.346893 L776.569431,249.346893 C776.503944,249.877773 776.267425,250.391532 775.859791,250.799249 C776.271913,250.387127 776.792404,250.150193 777.329267,250.087614 L777.329267,285.235764 C776.792321,285.173352 776.271829,284.936501 775.859791,284.524462 C776.316873,284.981544 776.558461,285.571927 776.585554,286.170288 L724.540017,286.170288 C724.56686,285.571761 724.808282,284.981045 725.26553,284.523881 C724.858146,284.931265 724.344802,285.167784 723.814421,285.233604 L723.814421,250.089193 Z M779.247097,284.645797 C778.769738,285.059746 778.172707,285.261444 777.578501,285.25197 L777.578501,269.86985 C777.760336,268.305468 779.035261,267.073841 780.621084,266.961233 C779.035261,266.848541 777.760336,265.617829 777.578501,264.052782 L777.578501,250.071326 C778.172457,250.061852 778.769239,250.263383 779.246515,250.677333 C778.398505,249.699594 778.439891,248.219149 779.368432,247.290608 C778.439891,248.219149 776.958864,248.260037 775.981126,247.41186 C776.399147,247.893873 776.600928,248.497968 776.587216,249.097992 L752.955025,249.097992 C751.647606,248.723434 750.671529,247.563445 750.571885,246.159955 C750.472159,247.563445 749.49683,248.723434 748.189161,249.097992 L724.537856,249.097992 C724.523895,248.497968 724.725509,247.893956 725.143614,247.41186 C724.165875,248.260037 722.68543,248.21865 721.75689,247.290027 C722.68543,248.21865 722.726235,249.699511 721.878141,250.677333 C722.360404,250.259062 722.964998,250.057281 723.565353,250.071326 L723.565353,264.554907 C723.198026,265.873878 722.032801,266.860924 720.621084,266.961233 C722.032801,267.061458 723.198026,268.04784 723.565353,269.367143 L723.565353,285.251554 C722.965164,285.265599 722.360902,285.063985 721.878723,284.645797 C722.726817,285.623536 722.68543,287.103898 721.75689,288.032521 C722.68543,287.103898 724.166374,287.063093 725.144196,287.911187 C724.7713,287.481281 724.570268,286.954141 724.540931,286.419439 L748.235285,286.419439 C749.519268,286.807792 750.473405,287.957144 750.571885,289.343929 C750.670366,287.957144 751.623754,286.807792 752.908153,286.419439 L776.584723,286.419439 C776.555469,286.954058 776.354603,287.481198 775.981707,287.911187 C776.959363,287.063093 778.439891,287.104479 779.368432,288.033103 C778.439891,287.104479 778.399003,285.623619 779.247097,284.645797 L779.247097,284.645797 Z" id="19"></path>
        </g>
    </g>
</svg>
