<?xml version="1.0" encoding="UTF-8"?>
<svg width="42px" height="61px" viewBox="0 0 42 61" version="1.1" xmlns="http://www.w3.org/2000/svg" xmlns:xlink="http://www.w3.org/1999/xlink">
    <title>2</title>
    <g id="页面-1" stroke="none" stroke-width="1" fill="none" fill-rule="evenodd">
        <g id="花环" transform="translate(-170.000000, -158.000000)" fill="#545458">
            <path d="M209.282523,181.66141 C210.677508,182.147808 211.455627,183.059913 211.313724,184.446102 C211.213454,185.423295 210.122798,185.728503 210.181142,186.387002 C210.201665,186.620086 208.779121,185.579857 209.259362,184.09721 C209.617343,182.991308 209.461074,182.115264 208.965881,181.710079 C209.627018,181.970723 211.047804,183.728967 210.386666,185.104894 C211.29496,183.808713 210.362918,182.37063 209.282523,181.66141 Z M173.144562,181.66141 C172.063874,182.37063 171.131832,183.808713 172.040126,185.104894 C171.378989,183.728967 172.799774,181.970723 173.460911,181.710079 C172.965718,182.115264 172.809449,182.991308 173.167724,184.09721 C173.647671,185.579857 172.22542,186.620086 172.245943,186.387002 C172.303994,185.728503 171.213338,185.423295 171.113361,184.446102 C170.971165,183.059913 171.749284,182.147808 173.144562,181.66141 Z M207.517243,171.378749 C208.196016,172.385348 208.232071,173.063842 208.083157,173.921498 L208.058174,174.05848 C207.757657,175.635827 208.581513,176.484604 209.51033,175.909664 C208.922489,175.393654 209.508864,174.850085 209.958906,174.929246 C210.498664,175.023652 210.75315,175.751929 210.241832,176.243897 C209.954802,176.519786 209.59594,176.654066 209.232388,176.673417 C209.476613,176.866847 209.651252,177.066338 209.74943,177.222001 L209.859061,177.416966 C210.695353,178.994491 210.296285,180.600485 208.57301,181.301377 C208.706577,182.318953 208.459079,182.680919 208.16586,182.958971 L207.973022,183.132996 C207.804706,183.284965 207.644928,183.449576 207.554519,183.730535 L207.523987,183.84155 C207.392639,184.409161 206.648823,182.334861 207.67703,181.336559 C206.993904,181.788654 206.187932,181.778978 205.751963,181.260624 C205.35059,180.783022 205.514481,180.172606 205.141254,179.974998 C205.014032,179.907428 206.021723,179.528528 206.641711,180.196086 L206.708926,180.274635 C207.164539,180.852507 207.635691,180.918181 208.037651,180.79211 C207.650643,181.058031 206.234256,181.36705 205.748445,180.532053 C206.095285,181.461164 207.415214,181.375553 207.916857,181.146574 C208.039116,181.06712 208.177208,180.998807 208.336701,180.946913 C209.580695,180.543488 210.056244,179.806708 210.084097,178.895189 C209.759832,180.170553 208.019766,180.844591 207.702831,179.78296 C207.445412,178.921283 208.541346,178.761496 208.89493,179.357839 C209.540235,179.374843 209.93721,178.516391 209.59594,177.810103 C209.184599,176.958688 208.342272,176.663448 207.923308,177.009116 C207.634811,177.247184 208.269855,177.42251 207.625722,177.554737 C206.812421,177.721297 206.73577,176.860674 205.895083,176.814414 L205.755775,176.814146 C205.230969,176.839654 206.237188,175.907025 207.465056,176.002604 C207.584969,176.011986 207.694915,176.032509 207.806033,176.052153 C207.716317,175.941621 207.639502,175.819069 207.582038,175.683323 C206.947287,174.18455 208.363088,173.55713 207.517243,171.378749 Z M174.909549,171.378749 C174.063704,173.55713 175.479798,174.18455 174.845048,175.683323 C174.787583,175.819069 174.710768,175.941621 174.621053,176.052153 C174.731877,176.032509 174.841823,176.011986 174.962029,176.002604 C176.151527,175.910012 177.132736,176.782369 176.71604,176.813791 L176.671311,176.814146 C175.69705,176.767236 175.657176,177.730063 174.80107,177.554737 C174.157231,177.42251 174.791981,177.247184 174.503485,177.009116 C174.08452,176.663448 173.242193,176.958688 172.831145,177.810103 C172.489875,178.516391 172.88685,179.374843 173.532155,179.357839 C173.885739,178.761496 174.981673,178.921283 174.724255,179.78296 C174.407319,180.844591 172.66696,180.170553 172.342988,178.895189 C172.370548,179.806708 172.846097,180.543488 174.090091,180.946913 C174.249585,180.998807 174.387676,181.06712 174.509935,181.146574 C175.011871,181.375553 176.3318,181.461164 176.678641,180.532053 C176.192536,181.36705 174.776149,181.058031 174.389435,180.79211 C174.767474,180.910765 175.207064,180.85957 175.637564,180.371361 L175.718159,180.274635 C176.329161,179.500034 177.417472,179.904926 177.285538,179.974998 C176.912311,180.172606 177.076202,180.783022 176.674829,181.260624 C176.239153,181.778978 175.432888,181.788654 174.749762,181.336559 C175.753488,182.311092 175.068569,184.310995 174.913197,183.877651 L174.902806,183.84155 C174.83069,183.529884 174.681628,183.347529 174.516426,183.190779 L174.261033,182.958971 C173.967859,182.680919 173.720373,182.318953 173.853782,181.301377 C172.082638,180.581016 171.71029,178.904571 172.64028,177.285591 C172.727357,177.123459 172.91529,176.89448 173.194697,176.673417 C172.830852,176.654066 172.471991,176.519786 172.18496,176.243897 C171.673642,175.751929 171.928128,175.023652 172.467886,174.929246 C172.917928,174.850085 173.504596,175.393654 172.916756,175.909664 C173.819772,176.468633 174.623578,175.681883 174.391374,174.188224 L174.368912,174.05848 C174.192706,173.134354 174.195052,172.438327 174.909549,171.378749 Z M205.93286,177.334847 L205.984025,177.351781 C206.134553,177.408821 206.582511,177.615927 206.857279,178.068401 C207.400848,178.963502 206.724758,179.778855 206.710392,179.573624 C206.676969,179.090159 206.193503,179.057029 206.116688,178.823065 C206.024041,179.045594 205.782161,179.137948 205.814998,179.03328 C205.922598,178.688785 205.467571,178.208252 205.93286,177.334847 Z M176.493933,177.334847 C176.959514,178.208252 176.504487,178.688785 176.612087,179.03328 C176.644631,179.137948 176.402751,179.045594 176.310104,178.823065 C176.233289,179.057029 175.749823,179.090159 175.7164,179.573624 C175.702327,179.778855 175.025944,178.963502 175.569513,178.068401 C175.90316,177.518968 176.492173,177.331329 176.493933,177.334847 Z M195.185943,158.8285 L195.388921,158.954934 C196.04602,159.387466 196.493356,159.941689 196.686459,160.550614 L196.726488,160.692075 C196.781314,160.573334 196.846109,160.454007 196.926442,160.337319 C197.831511,159.018563 199.390974,159.448668 199.114498,159.597021 C198.462156,159.947087 198.719575,160.640768 198.441927,160.894668 C198.809877,160.884113 199.09075,161.162641 198.923926,161.183164 C198.505841,161.233592 198.181576,161.790941 197.379123,162.006434 C197.942922,162.018454 198.507307,162.097908 199.056447,162.266491 C199.484793,162.397838 199.890858,162.589583 200.271415,162.823839 L200.245907,162.788657 C202.071226,164.095067 203.419801,163.69927 203.979935,163.331659 L204.070534,163.267432 C204.331764,163.066892 204.098387,163.754122 203.855042,163.844131 C204.979415,163.784321 205.133045,164.395616 205.884484,164.055519 C206.146593,163.936778 205.362024,165.657787 203.024443,164.882893 C202.786961,164.804026 202.405231,164.619611 201.988319,164.36014 C202.698418,165.21009 203.255474,166.157378 203.83921,167.058049 L204.103987,167.457258 C204.639007,168.252248 205.215137,169.013482 205.982115,169.503524 L206.062155,169.548968 C206.267973,169.38918 206.593117,169.125019 206.950512,168.717489 C207.65035,167.919726 208.541639,168.482059 208.469222,168.590832 C208.263698,168.899851 208.374229,169.150819 207.983411,169.529324 C207.647418,169.854469 207.128477,169.909881 206.681073,169.848605 C206.926764,169.937734 207.182717,169.999596 207.445119,170.031847 C207.969045,170.091657 208.511441,170.059993 209.005755,169.902551 C209.501827,169.750094 209.953922,169.467755 210.28493,169.074591 C210.617991,168.684358 210.820877,168.186233 210.857818,167.673449 C210.895639,167.160665 210.750219,166.635273 210.442079,166.21367 C210.291381,166.000523 210.102275,165.81259 209.887955,165.654269 C209.67774,165.49067 209.440844,165.375448 209.185478,165.305376 C208.677092,165.164646 207.97872,165.180185 207.625136,165.493895 C206.842913,166.188456 208.176621,167.150696 207.615754,167.349184 C207.024396,167.558813 206.871059,166.641723 206.957842,166.234486 C207.043453,165.831354 207.296766,165.520575 207.540112,165.355511 C208.030321,165.029487 208.656569,164.8955 209.253498,165.014241 C209.549324,165.07581 209.8387,165.19719 210.087322,165.367238 C210.338584,165.53113 210.569322,165.733429 210.760773,165.97267 C211.143383,166.451738 211.348614,167.075347 211.32897,167.695145 C211.31607,168.316115 211.077709,168.924186 210.689529,169.407065 C210.300763,169.890824 209.763644,170.253496 209.177856,170.437032 C208.591774,170.627603 207.977547,170.66689 207.3771,170.603562 C206.77372,170.535836 206.176205,170.325327 205.668698,169.989921 C205.45086,169.848312 205.251493,169.686472 205.062973,169.514958 C205.826433,170.72758 206.828253,170.692104 207.21614,172.046336 C207.534541,173.159861 206.739418,174.402388 205.656677,174.303584 C204.984106,174.242601 204.713494,173.469467 205.041864,173.027047 C205.315407,172.658218 206.074176,172.711578 205.973613,173.534261 C206.967595,173.387142 207.055935,172.198492 205.966005,171.123432 L205.863667,171.026045 C205.379615,170.58128 205.024566,170.168765 204.802623,169.50968 C204.777995,170.838112 203.518756,171.446475 203.626356,171.181434 C203.894915,170.520297 203.276877,170.201602 203.327012,169.847139 C203.060211,170.089898 202.680241,170.075239 202.791652,169.954739 C203.127351,169.5906 202.911859,168.803686 203.789954,167.983641 C203.648931,167.773133 203.513479,167.560572 203.382131,167.346545 L202.720357,166.255392 C202.353186,165.653714 201.977654,165.065622 201.547952,164.521393 C200.864532,163.653852 200.00696,162.91678 198.966732,162.524495 C198.451015,162.323662 197.873437,162.290239 197.314915,162.237172 C197.113202,162.220753 196.83614,162.23424 196.565235,162.248606 C196.458515,162.485795 196.317785,162.72269 196.131025,162.955481 C196.774092,163.820215 196.698117,164.258514 196.564534,164.659011 L196.499553,164.847422 C196.426617,165.062127 196.367293,165.28368 196.425227,165.572979 L196.452651,165.68476 C196.614491,166.244455 194.954465,164.795817 195.365806,163.422821 C194.989354,164.150512 194.280721,164.53488 193.647729,164.294466 C193.064287,164.07311 192.91007,163.460056 192.487881,163.469731 C192.338649,163.472663 193.091846,162.588703 194.002779,162.967501 C194.682387,163.24984 195.125686,163.07774 195.415355,162.771945 C195.206899,163.192376 194.12064,164.152271 193.289455,163.660009 C194.044998,164.302383 195.155884,163.584367 195.482495,163.139895 C195.53351,163.043363 195.595409,162.947821 195.671285,162.854258 L195.751934,162.761391 C196.604681,161.842334 196.691642,161.000557 196.327888,160.219543 L196.277448,160.118181 L196.299987,160.211336 C196.558671,161.458612 195.405952,162.807349 194.631079,162.05393 C193.986361,161.426509 194.865629,160.753058 195.464904,161.101365 C196.036619,160.801727 195.965081,159.858837 195.323001,159.408209 C194.548987,158.865519 193.669425,159.017976 193.47211,159.524018 C193.336365,159.872324 193.976099,159.716055 193.477974,160.145281 C192.8508,160.685795 192.365721,159.976932 191.612407,160.339315 L191.484301,160.410029 C191.038363,160.687678 191.462605,159.383288 192.581114,158.868451 C193.756772,158.327204 194.774631,158.593859 195.185943,158.8285 L195.185943,158.8285 Z M189.845678,158.868451 C190.928106,159.36668 191.360336,160.604345 190.983202,160.432039 L190.942784,160.410029 C190.114824,159.894313 189.611128,160.715823 188.949111,160.145281 C188.450986,159.716055 189.090721,159.872324 188.954682,159.524018 C188.75766,159.017976 187.878098,158.865519 187.104084,159.408209 C186.462004,159.858837 186.390467,160.801727 186.962182,161.101365 C187.561456,160.753058 188.440432,161.426509 187.795713,162.05393 C187.021127,162.807349 185.868414,161.458612 186.126826,160.211336 L186.148243,160.118181 L186.098906,160.219543 C185.735174,161.000557 185.822392,161.842334 186.674858,162.761391 C186.788908,162.884236 186.876278,163.011186 186.94459,163.139895 C187.271201,163.584367 188.381794,164.302383 189.137631,163.660009 C188.306152,164.152271 187.220186,163.192376 187.01173,162.771945 C187.301106,163.07774 187.744698,163.24984 188.424306,162.967501 C189.335239,162.588703 190.088437,163.472663 189.938911,163.469731 C189.516722,163.460056 189.362505,164.07311 188.779356,164.294466 C188.146072,164.53488 187.437438,164.150512 187.060986,163.422821 C187.461788,164.759685 185.898252,166.168263 185.965079,165.724812 L185.974141,165.68476 C186.074118,165.339175 186.009327,165.088965 185.92732,164.847422 L185.843768,164.601498 C185.723278,164.215805 185.683616,163.779037 186.29606,162.955481 C186.1093,162.72269 185.968277,162.485795 185.86185,162.248606 L185.539006,162.233647 C185.381305,162.228236 185.233081,162.227321 185.111877,162.237172 L184.690677,162.276212 C184.268433,162.317414 183.846848,162.37387 183.460061,162.524495 C182.419832,162.91678 181.56226,163.653852 180.87884,164.521393 C180.191316,165.392159 179.642763,166.375216 179.044661,167.346545 C178.913607,167.560572 178.777861,167.773133 178.636838,167.983641 C179.514934,168.803686 179.299734,169.5906 179.635433,169.954739 C179.746551,170.075239 179.366874,170.089898 179.100074,169.847139 C179.149915,170.201602 178.53217,170.520297 178.800729,171.181434 C178.908036,171.446475 177.648797,170.838112 177.624462,169.50968 C177.42243,170.108848 177.110634,170.504239 176.692158,170.905335 L176.563418,171.026045 C175.366628,172.125497 175.429077,173.382683 176.453473,173.534261 C176.352616,172.711578 177.111385,172.658218 177.384928,173.027047 C177.713591,173.469467 177.44298,174.242601 176.770115,174.303584 C175.687375,174.402388 174.892251,173.159861 175.210945,172.046336 C175.598832,170.692104 176.600653,170.72758 177.364112,169.514958 C177.1753,169.686472 176.976226,169.848312 176.758387,169.989921 C176.25088,170.325327 175.653365,170.535836 175.049986,170.603562 C174.449538,170.66689 173.835018,170.627603 173.248937,170.437032 C172.663149,170.253496 172.12603,169.890824 171.737557,169.407065 C171.349377,168.924186 171.111016,168.316115 171.097822,167.695145 C171.078472,167.075347 171.28341,166.451738 171.666312,165.97267 C171.85747,165.733429 172.088208,165.53113 172.33947,165.367238 C172.588093,165.19719 172.877468,165.07581 173.173588,165.014241 C173.770517,164.8955 174.396765,165.029487 174.88668,165.355511 C175.130026,165.520575 175.383339,165.831354 175.469243,166.234486 C175.555734,166.641723 175.402397,167.558813 174.811038,167.349184 C174.250171,167.150696 175.583879,166.188456 174.801656,165.493895 C174.448072,165.180185 173.7497,165.164646 173.241314,165.305376 C172.986241,165.375448 172.749346,165.49067 172.538837,165.654269 C172.324811,165.81259 172.135705,166.000523 171.984713,166.21367 C171.676867,166.635273 171.531446,167.160665 171.568974,167.673449 C171.605916,168.186233 171.809094,168.684358 172.142155,169.074591 C172.47287,169.467755 172.924965,169.750094 173.421038,169.902551 C173.915351,170.059993 174.457747,170.091657 174.981966,170.031847 C175.244369,169.999596 175.500028,169.937734 175.746012,169.848605 C175.298608,169.909881 174.779374,169.854469 174.443674,169.529324 C174.052563,169.150819 174.163094,168.899851 173.957863,168.590832 C173.885446,168.482059 174.776442,167.919726 175.476573,168.717489 C175.833968,169.125019 176.159113,169.38918 176.364637,169.548968 L176.444677,169.503524 C177.339484,168.931808 177.974528,167.990971 178.587582,167.058049 C179.171318,166.157378 179.728374,165.21009 180.438473,164.36014 C180.021561,164.619611 179.639831,164.804026 179.40235,164.882893 C177.064768,165.657787 176.280492,163.936778 176.542602,164.055519 C177.29404,164.395616 177.447377,163.784321 178.57175,163.844131 C178.34149,163.75886 178.119914,163.137577 178.319344,163.242929 L178.447148,163.331659 C179.007254,163.69927 180.355583,164.095067 182.181178,162.788657 L182.155377,162.823839 C182.535934,162.589583 182.941999,162.397838 183.370345,162.266491 C183.919485,162.097908 184.484163,162.018454 185.047962,162.006434 C184.245216,161.790941 183.921244,161.233592 183.502866,161.183164 C183.336336,161.162641 183.616916,160.884113 183.985159,160.894668 C183.707511,160.640768 183.964636,159.947087 183.312587,159.597021 C183.035819,159.448668 184.595575,159.018563 185.500643,160.337319 C185.580684,160.454007 185.645478,160.573334 185.700304,160.692075 C185.877682,159.980217 186.398383,159.334325 187.193213,158.85731 C187.567906,158.617483 188.621035,158.304652 189.845678,158.868451 Z M174.181565,171.229223 C173.104689,170.986464 171.668658,171.267631 171.411532,172.594889 C171.86392,171.372299 173.786935,171.201371 174.3393,171.452632 C173.827037,171.392268 173.235796,171.767328 172.778727,172.547185 L172.699504,172.689002 C172.074135,173.863804 170.591195,173.607558 170.746291,173.482074 C171.185192,173.126731 170.725181,172.276195 171.265818,171.634701 C172.033089,170.724648 173.05514,170.66132 174.181565,171.229223 Z M211.160974,171.634701 C211.701611,172.276195 211.2416,173.126731 211.680795,173.482074 C211.831191,173.603755 210.441321,173.848394 209.786459,172.791904 L209.727288,172.689002 C209.260828,171.812959 208.630182,171.388717 208.087492,171.452632 C208.639857,171.201371 210.562872,171.372299 211.01526,172.594889 C210.758428,171.267631 209.322104,170.986464 208.245227,171.229223 C209.371945,170.66132 210.393703,170.724648 211.160974,171.634701 Z M205.890641,165.936608 C206.024041,165.90553 205.878327,166.186697 205.592469,166.280223 C205.869824,166.390169 205.846663,166.96892 206.436555,167.046615 C206.686644,167.079159 205.595694,167.822388 204.567487,167.104666 C203.936255,166.664005 203.783504,165.947163 203.788195,165.94511 C204.923123,165.458126 205.453205,166.038051 205.890641,165.936608 Z M178.63889,165.94511 L178.635174,165.966179 C178.607956,166.087769 178.427444,166.708071 177.859599,167.104666 C176.831391,167.822388 175.740441,167.079159 175.99053,167.046615 C176.58013,166.96892 176.556968,166.390169 176.834323,166.280223 C176.548759,166.186697 176.403045,165.90553 176.536152,165.936608 C176.973587,166.038051 177.503962,165.458126 178.63889,165.94511 Z M184.500582,162.811232 C183.26773,163.199705 181.980052,164.329942 182.501338,165.824317 C182.239229,164.32056 184.084842,163.015291 184.791717,162.944339 C184.205342,163.199412 183.816576,163.99952 183.860261,165.161128 C183.919192,166.718538 182.267375,167.332472 182.35064,167.114048 C182.585776,166.496302 181.619138,165.906117 181.788307,164.938306 C182.028721,163.565603 183.02585,162.899482 184.500582,162.811232 Z M197.92621,162.811232 C199.401235,162.899482 200.398072,163.565603 200.638485,164.938306 C200.807947,165.906117 199.841309,166.496302 200.076152,167.114048 C200.159417,167.332472 198.5076,166.718538 198.566531,165.161128 C198.610216,163.99952 198.221743,163.199412 197.635075,162.944339 C198.34195,163.015291 200.187563,164.32056 199.925454,165.824317 C200.447034,164.329942 199.159062,163.199705 197.92621,162.811232 Z M191.309855,163.527196 L191.398168,163.696492 C191.533849,163.968972 191.778075,164.513901 191.778075,164.906055 C191.778075,165.448744 191.420679,165.712906 191.309855,165.712906 C191.19903,165.712906 190.841635,165.448744 190.841635,164.906055 C190.841635,164.363072 191.309855,163.527196 191.309855,163.527196 Z M190.736381,163.927396 L190.699211,164.04263 C190.651193,164.179863 190.559784,164.405096 190.443486,164.521393 C190.26904,164.695547 190.069086,164.665935 190.033611,164.630166 C189.997842,164.59469 189.967937,164.394736 190.142383,164.22029 C190.31683,164.045551 190.736381,163.927396 190.736381,163.927396 Z M191.883329,163.927396 L191.951609,163.948588 C192.077785,163.99001 192.346491,164.089235 192.477326,164.22029 C192.651772,164.394736 192.621867,164.59469 192.586099,164.630166 C192.550623,164.665935 192.350669,164.695547 192.176223,164.521393 C192.001776,164.346947 191.883329,163.927396 191.883329,163.927396 Z M191.309855,162.373211 C191.379633,162.373211 191.604508,162.488433 191.604508,162.724449 C191.604508,162.960465 191.309855,163.324603 191.309855,163.324603 L191.263769,163.264019 C191.180816,163.150542 191.014908,162.901461 191.014908,162.724449 C191.014908,162.488433 191.240076,162.373211 191.309855,162.373211 Z M203.575341,160.323246 C204.153213,161.308062 203.483281,162.600138 202.410215,162.779275 C200.805015,163.047248 200.524728,161.524141 198.209136,161.83873 C199.346365,161.413418 200.014721,161.536625 200.813723,161.881317 L200.941054,161.937535 C202.404938,162.597499 203.422591,161.99412 203.079855,160.956823 C202.441,161.408038 202.049009,160.711132 202.230785,160.292168 C202.448623,159.789059 203.216187,159.711364 203.575341,160.323246 Z M180.196007,160.292168 C180.377783,160.711132 179.985792,161.408038 179.346937,160.956823 C179.013722,161.965306 179.966645,162.563643 181.364823,161.989625 L181.485738,161.937535 C182.34331,161.551114 183.020573,161.391034 184.217656,161.83873 C181.902064,161.524141 181.62207,163.047248 180.016577,162.779275 C178.943512,162.600138 178.273579,161.308062 178.851451,160.323246 C179.210605,159.711364 179.978169,159.789059 180.196007,160.292168 Z M193.05725,160.968258 C193.936772,161.467323 193.786985,162.455351 193.674274,162.367993 L193.662389,162.354447 C193.397641,161.948382 192.959619,162.155079 192.778429,161.988256 C192.805696,162.227497 192.639752,162.426278 192.617176,162.318971 C192.543586,161.965681 191.911768,161.767779 191.892418,160.778272 L191.913957,160.773263 C192.026448,160.75224 192.560266,160.686277 193.05725,160.968258 Z M190.534375,160.778272 C190.515317,161.767779 189.883499,161.965681 189.809616,162.318971 C189.787334,162.426278 189.621096,162.227497 189.648656,161.988256 C189.467466,162.155079 189.029151,161.948382 188.764403,162.354447 C188.652113,162.526548 188.458609,161.485147 189.369542,160.968258 C189.928943,160.651029 190.534668,160.774168 190.534375,160.778272 Z M207.21614,205.056576 C206.828253,206.410808 205.826433,206.375332 205.062973,207.588248 C205.251493,207.416733 205.45086,207.254601 205.668698,207.113285 C206.176205,206.777879 206.77372,206.56737 207.3771,206.499644 C207.977547,206.436022 208.591774,206.475603 209.177856,206.666467 C209.763644,206.849709 210.300763,207.212675 210.689529,207.696141 C211.077709,208.17902 211.31607,208.787384 211.32897,209.408354 C211.348614,210.027565 211.143383,210.651468 210.760773,211.130536 C210.569322,211.369776 210.338584,211.572076 210.087322,211.735967 C209.8387,211.906016 209.549324,212.027689 209.253498,212.089258 C208.656569,212.207706 208.030321,212.073719 207.540112,211.747695 C207.296766,211.58263 207.043453,211.271852 206.957842,210.86872 C206.871059,210.461776 207.024396,209.544686 207.615754,209.754022 C208.176621,209.952803 206.842913,210.915043 207.625136,211.60931 C207.97872,211.923021 208.677092,211.93856 209.185478,211.79783 C209.440844,211.727758 209.67774,211.612535 209.887955,211.44923 C210.102275,211.290616 210.291381,211.10239 210.442079,210.889829 C210.750219,210.467639 210.895639,209.942248 210.857818,209.429464 C210.820877,208.916972 210.617991,208.41914 210.28493,208.028615 C209.953922,207.635451 209.501827,207.352819 209.005755,207.200654 C208.511441,207.043213 207.969045,207.011842 207.445119,207.071066 C207.182717,207.103609 206.926764,207.165472 206.681073,207.254308 C207.128477,207.193032 207.647418,207.248737 207.983411,207.573882 C208.374229,207.952386 208.263698,208.203355 208.469222,208.512374 C208.541639,208.621146 207.65035,209.18348 206.950512,208.385717 C206.593117,207.97848 206.267973,207.714318 206.062155,207.554531 L205.982115,207.599682 C205.087308,208.171104 204.452264,209.111942 203.83921,210.04545 L203.184285,211.070636 C202.816161,211.642743 202.432131,212.21203 201.988319,212.743065 C202.405231,212.483301 202.786961,212.298887 203.024443,212.220313 C205.362024,211.445712 206.146593,213.166428 205.884484,213.047687 C205.133045,212.707883 204.979415,213.319178 203.855042,213.259075 C204.098387,213.349083 204.331764,214.036314 204.070534,213.835774 C203.576807,213.45639 202.178597,212.931292 200.245907,214.314256 L200.271415,214.279073 C199.890858,214.513916 199.484793,214.705074 199.056447,214.837008 C198.507014,215.005298 197.942922,215.084752 197.37883,215.096479 C198.181576,215.312265 198.505841,215.869614 198.923926,215.920335 C199.09075,215.940272 198.809877,216.219093 198.441927,216.208538 C198.719575,216.462438 198.462156,217.156119 199.114498,217.506185 C199.390974,217.654831 197.831511,218.084643 196.926442,216.765887 C196.846109,216.649198 196.781314,216.529871 196.726488,216.41113 C196.560935,217.075805 196.096566,217.68276 195.388921,218.148565 L195.233579,218.246189 C194.859179,218.485723 193.805757,218.798261 192.581114,218.235048 C191.498686,217.736819 191.066456,216.498879 191.443856,216.671167 L191.484301,216.693177 C192.312262,217.208893 192.815957,216.387675 193.477974,216.957925 C193.976099,217.387151 193.336365,217.230882 193.47211,217.579188 C193.669425,218.085523 194.548987,218.237687 195.323001,217.694997 C195.965081,217.244662 196.036619,216.301478 195.464904,216.001548 C194.865629,216.350147 193.986361,215.676696 194.631079,215.049276 C195.405952,214.295856 196.558671,215.644594 196.299987,216.89187 L196.277448,216.98443 L196.327888,216.883663 C196.675826,216.136607 196.611391,215.333966 195.858845,214.461513 L195.751934,214.342108 C195.637884,214.21897 195.550514,214.09202 195.482495,213.96331 C195.155884,213.518839 194.044998,212.80053 193.289455,213.443196 C194.12064,212.950935 195.206899,213.911123 195.415355,214.331554 C195.125686,214.025466 194.682387,213.853365 194.002779,214.135998 C193.091846,214.514502 192.338649,213.63025 192.487881,213.633768 C192.91007,213.642857 193.064287,213.030096 193.647729,212.808739 C194.280721,212.568326 194.989354,212.952694 195.365806,213.680092 C194.96529,212.343513 196.528555,210.934665 196.461714,211.378642 L196.452651,211.418739 C196.363783,211.725836 196.405129,211.957602 196.473042,212.174928 L196.583154,212.501754 C196.703722,212.887401 196.74347,213.324169 196.131025,214.147725 C196.317785,214.380809 196.458515,214.617704 196.565235,214.8546 L196.88806,214.86954 C197.045734,214.874923 197.193887,214.875768 197.314915,214.865741 L197.736115,214.826829 C198.15836,214.785682 198.579944,214.729115 198.966732,214.57871 C200.00696,214.186426 200.864532,213.449353 201.547952,212.581812 C202.235476,211.711046 202.784322,210.72799 203.382131,209.75666 C203.513479,209.542927 203.648931,209.330073 203.789954,209.119565 C202.911859,208.29952 203.127351,207.512606 202.791652,207.14876 C202.680241,207.027967 203.060211,207.013308 203.327012,207.256067 C203.276877,206.901897 203.894915,206.582909 203.626356,205.921772 C203.518756,205.656731 204.777995,206.264801 204.802623,207.593525 C205.004389,206.994624 205.316161,206.599015 205.734855,206.198097 L205.863667,206.077454 C207.060458,204.977709 206.997716,203.720816 205.973613,203.568945 C206.074176,204.391921 205.315407,204.444695 205.041864,204.076452 C204.713494,203.633739 204.984106,202.860897 205.656677,202.799621 C206.739418,202.70111 207.534541,203.943051 207.21614,205.056576 Z M176.669476,202.794268 L176.770115,202.799621 C177.44298,202.860897 177.713591,203.633739 177.384928,204.076452 C177.111385,204.444695 176.352616,204.391921 176.453473,203.568945 C175.459206,203.716349 175.371133,204.90473 176.461079,205.980042 L176.563418,206.077454 C177.047177,206.521926 177.402227,206.934734 177.624462,207.593525 C177.648797,206.264801 178.908036,205.656731 178.800729,205.921772 C178.53217,206.582909 179.149915,206.901897 179.100074,207.256067 C179.366874,207.013308 179.746551,207.027967 179.635433,207.14876 C179.299734,207.512606 179.514934,208.29952 178.636838,209.119565 C178.777861,209.330073 178.913607,209.542927 179.044661,209.75666 C179.642763,210.72799 180.191316,211.711046 180.87884,212.581812 C181.56226,213.449353 182.419832,214.186426 183.460061,214.57871 C183.975777,214.77925 184.553356,214.812967 185.111877,214.865741 C185.313883,214.882452 185.590945,214.868966 185.86185,214.8546 C185.968277,214.617704 186.1093,214.380809 186.29606,214.147725 C185.652993,213.282991 185.728875,212.844691 185.862376,212.444248 L185.92732,212.255867 C186.000215,212.0412 186.059507,211.819704 186.001566,211.530488 L185.974141,211.418739 C185.812301,210.858458 187.472621,212.307389 187.060986,213.680092 C187.437438,212.952694 188.146072,212.568326 188.779356,212.808739 C189.362505,213.030096 189.516722,213.642857 189.938911,213.633768 C190.088437,213.63025 189.335239,214.514502 188.424306,214.135998 C187.744698,213.853365 187.301106,214.025466 187.01173,214.331554 C187.220186,213.911123 188.306152,212.950935 189.137631,213.443196 C188.381794,212.80053 187.271201,213.518839 186.94459,213.96331 C186.876278,214.09202 186.788908,214.21897 186.674858,214.342108 C185.822392,215.260884 185.735174,216.10265 186.098906,216.883663 L186.148243,216.98443 L186.126826,216.89187 C185.868414,215.644594 187.021127,214.295856 187.795713,215.049276 C188.440432,215.676696 187.561456,216.350147 186.962182,216.001548 C186.390467,216.301478 186.462004,217.244662 187.104084,217.694997 C187.878098,218.237687 188.75766,218.085523 188.954682,217.579188 C189.090721,217.230882 188.450986,217.387151 188.949111,216.957925 C189.576285,216.417689 190.061364,217.126303 190.814678,216.763893 L190.942784,216.693177 C191.388429,216.415528 190.964187,217.720211 189.845678,218.235048 C188.670021,218.775732 187.652431,218.509325 187.241141,218.274704 L187.037923,218.148565 C186.330482,217.68276 185.865857,217.075805 185.700304,216.41113 C185.645478,216.529871 185.580684,216.649198 185.500643,216.765887 C184.595575,218.084643 183.035819,217.654831 183.312587,217.506185 C183.964636,217.156119 183.707511,216.462438 183.985159,216.208538 C183.616916,216.219093 183.336336,215.940272 183.502866,215.920335 C183.921244,215.869614 184.245216,215.312265 185.047962,215.096479 C184.484163,215.084752 183.919778,215.005298 183.370345,214.837008 C182.941999,214.705074 182.535934,214.513916 182.155377,214.279073 L182.181178,214.314256 C180.248195,212.931292 178.850278,213.45639 178.356551,213.835774 C178.095321,214.036314 178.328698,213.349083 178.57175,213.259075 C177.447377,213.319178 177.29404,212.707883 176.542602,213.047687 C176.280492,213.166428 177.064768,211.445712 179.40235,212.220313 C179.639831,212.298887 180.021561,212.483301 180.438473,212.743065 C179.728374,211.893409 179.171318,210.945828 178.587582,210.04545 L178.322805,209.646025 C177.787786,208.85067 177.211655,208.089472 176.444677,207.599682 L176.364637,207.554531 L176.210858,207.676944 C176.013011,207.838789 175.754547,208.068977 175.476573,208.385717 C174.776442,209.18348 173.885446,208.621146 173.957863,208.512374 C174.163094,208.203355 174.052563,207.952386 174.443674,207.573882 C174.779374,207.248737 175.298608,207.193032 175.746012,207.254308 C175.500028,207.165472 175.244369,207.103609 174.981966,207.071066 C174.457747,207.011842 173.915351,207.043213 173.421038,207.200654 C172.924965,207.352819 172.47287,207.635451 172.142155,208.028615 C171.809094,208.41914 171.605916,208.916972 171.568974,209.429464 C171.531446,209.942248 171.676867,210.467639 171.984713,210.889829 C172.135705,211.10239 172.324811,211.290616 172.538837,211.44923 C172.749346,211.612535 172.986241,211.727758 173.241314,211.79783 C173.7497,211.93856 174.448072,211.923021 174.801656,211.60931 C175.583879,210.915043 174.250171,209.952803 174.811038,209.754022 C175.402397,209.544686 175.555734,210.461776 175.469243,210.86872 C175.383339,211.271852 175.130026,211.58263 174.88668,211.747695 C174.396765,212.073719 173.770517,212.207706 173.173588,212.089258 C172.877468,212.027689 172.588093,211.906016 172.33947,211.735967 C172.088208,211.572076 171.85747,211.369776 171.666312,211.130536 C171.28341,210.651468 171.078472,210.027565 171.097822,209.408354 C171.111016,208.787384 171.349377,208.17902 171.737557,207.696141 C172.12603,207.212675 172.663149,206.849709 173.248937,206.666467 C173.835018,206.475603 174.449538,206.436022 175.049986,206.499644 C175.653365,206.56737 176.25088,206.777879 176.758387,207.113285 C176.976226,207.254601 177.1753,207.416733 177.364112,207.588248 C176.600653,206.375332 175.598832,206.410808 175.210945,205.056576 C174.912169,204.012647 175.592335,202.855851 176.570673,202.7965 L176.669476,202.794268 Z M202.410215,214.323931 C203.483281,214.503068 204.153213,215.795144 203.575341,216.780253 C203.216187,217.392135 202.448623,217.314147 202.230785,216.811038 C202.049009,216.392073 202.441,215.694874 203.079855,216.146676 C203.41307,215.137623 202.460425,214.539547 201.061992,215.11358 L200.941054,215.165671 C200.083775,215.552092 199.406219,215.712172 198.209136,215.264475 C200.524728,215.579358 200.805015,214.055958 202.410215,214.323931 Z M184.217656,215.264475 C183.080427,215.689787 182.412336,215.566581 181.613109,215.221889 L181.485738,215.165671 C180.022147,214.505707 179.004201,215.108793 179.346937,216.146676 C179.985792,215.694874 180.377783,216.392073 180.196007,216.811038 C179.978169,217.314147 179.210605,217.392135 178.851451,216.780253 C178.273579,215.795144 178.943512,214.503068 180.016577,214.323931 C181.62207,214.055958 181.902064,215.579358 184.217656,215.264475 Z M188.764403,214.748759 C189.029151,215.154823 189.467466,214.948419 189.648656,215.115243 C189.621096,214.875709 189.787334,214.676928 189.809616,214.784528 C189.883499,215.137525 190.515317,215.335427 190.534375,216.324933 L190.451948,216.339166 C190.267744,216.36202 189.804632,216.381681 189.369542,216.134948 C188.458609,215.618352 188.652113,214.576658 188.764403,214.748759 Z M193.05725,216.134948 C192.498142,216.452177 191.892418,216.329038 191.892418,216.324933 C191.911768,215.335427 192.543586,215.137525 192.617176,214.784528 C192.639752,214.676928 192.805696,214.875709 192.778429,215.115243 C192.946677,214.960335 193.336377,215.127241 193.603162,214.826757 L193.662389,214.748759 C193.774973,214.576658 193.968183,215.618352 193.05725,216.134948 Z M191.309855,213.744006 L191.355894,213.804545 C191.438765,213.91794 191.604508,214.166856 191.604508,214.343867 C191.604508,214.580176 191.37934,214.695106 191.309855,214.695106 C191.240076,214.695106 191.014908,214.580176 191.014908,214.343867 C191.014908,214.107852 191.309855,213.744006 191.309855,213.744006 Z M200.076152,209.989451 C199.841309,210.607197 200.807947,211.197089 200.638485,212.164607 C200.398072,213.537603 199.401235,214.203724 197.92621,214.291973 C199.159062,213.9035 200.447034,212.773557 199.925454,211.278888 C200.187563,212.782646 198.34195,214.088208 197.635075,214.158866 C198.221743,213.904087 198.610216,213.103686 198.566531,211.942078 C198.5076,210.384667 200.159417,209.77044 200.076152,209.989451 Z M183.860261,211.942078 C183.816576,213.103686 184.205342,213.904087 184.791717,214.158866 C184.084842,214.088208 182.239229,212.782646 182.501338,211.278888 C181.980052,212.773557 183.26773,213.9035 184.500582,214.291973 C183.02585,214.203724 182.028721,213.537603 181.788307,212.164607 C181.619138,211.197089 182.585776,210.607197 182.35064,209.989451 C182.267375,209.77044 183.919192,210.384667 183.860261,211.942078 Z M191.309855,211.355703 C191.420679,211.355703 191.778075,211.619865 191.778075,212.162555 C191.778075,212.704951 191.309855,213.541414 191.309855,213.541414 L191.221542,213.37202 C191.085861,213.099403 190.841635,212.554285 190.841635,212.162555 C190.841635,211.619865 191.19903,211.355703 191.309855,211.355703 Z M192.586099,212.438151 C192.621867,212.473919 192.651772,212.673873 192.477326,212.84832 C192.30288,213.022473 191.883329,213.141214 191.883329,213.141214 L191.904562,213.072933 C191.946053,212.946757 192.045388,212.678051 192.176223,212.547216 C192.350669,212.372477 192.550623,212.402675 192.586099,212.438151 Z M190.443486,212.547216 C190.617933,212.721663 190.736381,213.141214 190.736381,213.141214 L190.565944,213.08395 C190.429308,213.032643 190.244144,212.949909 190.142383,212.84832 C189.967937,212.673873 189.997842,212.473919 190.033611,212.438151 C190.069086,212.402675 190.26904,212.372477 190.443486,212.547216 Z M206.436555,210.056884 C205.846663,210.134579 205.869824,210.71333 205.592469,210.822982 C205.878327,210.916509 206.024041,211.197969 205.890641,211.166598 C205.453205,211.064862 204.923123,211.645372 203.788195,211.158095 L203.791832,211.137027 C203.818839,211.015436 203.999378,210.395134 204.567487,209.99854 C205.595694,209.280818 206.686644,210.024047 206.436555,210.056884 Z M177.859599,209.99854 C178.490537,210.4392 178.643288,211.156043 178.63889,211.158095 C177.503962,211.645372 176.973587,211.064862 176.536152,211.166598 C176.403045,211.197969 176.548759,210.916509 176.834323,210.822982 C176.556968,210.71333 176.58013,210.134579 175.99053,210.056884 C175.740441,210.024047 176.831391,209.280818 177.859599,209.99854 Z M211.680795,203.621425 C211.2416,203.976475 211.701611,204.827011 211.160974,205.468798 C210.393703,206.378851 209.371945,206.442179 208.245227,205.873689 C209.322104,206.116741 210.758428,205.835575 211.01526,204.50861 C210.562872,205.730907 208.639857,205.901835 208.087492,205.650574 C208.600032,205.710661 209.191027,205.335847 209.648068,204.556018 L209.727288,204.414203 C210.35295,203.239402 211.835891,203.495648 211.680795,203.621425 Z M172.640359,204.311302 L172.699504,204.414203 C173.165965,205.290247 173.796903,205.714195 174.3393,205.650574 C173.786935,205.901835 171.86392,205.730907 171.411532,204.50861 C171.668658,205.835575 173.104689,206.116741 174.181565,205.873689 C173.05514,206.442179 172.033089,206.378851 171.265818,205.468798 C170.725181,204.827011 171.185192,203.976475 170.746291,203.621425 C170.595895,203.499459 171.985764,203.254812 172.640359,204.311302 Z M174.749762,195.766647 C175.432888,195.314845 176.239153,195.324227 176.674829,195.842582 C177.076202,196.319891 176.912311,196.9306 177.285538,197.128208 C177.41276,197.195777 176.405341,197.574405 175.785373,196.90709 L175.718159,196.828571 C175.262253,196.250699 174.791101,196.185318 174.389435,196.311095 C174.776149,196.045468 176.192536,195.736448 176.678641,196.571446 C176.3318,195.642042 175.011871,195.727653 174.509935,195.956925 C174.387676,196.036086 174.249585,196.104398 174.090091,196.156293 C172.846097,196.560011 172.370548,197.296791 172.342988,198.208017 C172.66696,196.932359 174.407319,196.258908 174.724255,197.320246 C174.981673,198.181923 173.885739,198.34171 173.532155,197.745367 C172.88685,197.728656 172.489875,198.587108 172.831145,199.293102 C173.242193,200.144225 174.08452,200.439758 174.503485,200.09409 C174.791981,199.856022 174.157231,199.680696 174.80107,199.548468 C175.614371,199.381909 175.691022,200.242532 176.531961,200.288791 L176.671311,200.289059 C177.195823,200.263845 176.189897,201.196181 174.962029,201.100602 C174.841823,201.09122 174.731877,201.070696 174.621053,201.051053 C174.710768,201.161584 174.787583,201.284137 174.845048,201.419882 C175.479798,202.918362 174.063704,203.546076 174.909549,205.724457 C174.230777,204.717579 174.194721,204.039071 174.343887,203.181666 L174.368912,203.044726 C174.669429,201.467672 173.845573,200.618602 172.916756,201.193835 C173.504596,201.709551 172.917928,202.25312 172.467886,202.174253 C171.928128,202.079554 171.673642,201.351277 172.18496,200.859602 C172.471991,200.583419 172.830852,200.448846 173.194697,200.429789 C172.91529,200.208726 172.727357,199.979747 172.64028,199.817321 C171.71029,198.198928 172.082638,196.52219 173.853782,195.801829 C173.707032,194.682495 174.021165,194.356346 174.35002,194.0627 L174.453838,193.970163 C174.622124,193.81823 174.781872,193.653701 174.872274,193.372901 L174.902806,193.261948 C175.034153,192.693752 175.777969,194.768344 174.749762,195.766647 Z M207.513595,193.225807 L207.523987,193.261948 C207.596102,193.573435 207.745192,193.755694 207.910423,193.912395 L208.16586,194.144162 C208.459079,194.422201 208.706577,194.784253 208.57301,195.801829 C210.344154,196.52219 210.716502,198.198928 209.786512,199.817908 L209.74943,199.881205 C209.651252,200.036868 209.476613,200.236359 209.232388,200.429789 C209.59594,200.448846 209.954802,200.583419 210.241832,200.859602 C210.75315,201.351277 210.498664,202.079554 209.958906,202.174253 C209.508864,202.25312 208.922489,201.709551 209.51033,201.193835 C208.607313,200.63458 207.803508,201.4216 208.035711,202.915005 L208.058174,203.044726 C208.234086,203.968559 208.23174,204.664585 207.517243,205.724457 C208.363088,203.546076 206.947287,202.918362 207.582038,201.419882 C207.639502,201.284137 207.716317,201.161584 207.806033,201.051053 C207.694915,201.070696 207.584969,201.09122 207.465056,201.100602 C206.275559,201.193194 205.294075,200.321112 205.71102,200.28944 L205.755775,200.289059 C206.729742,200.335969 206.769616,199.373143 207.625722,199.548468 C208.269855,199.680696 207.634811,199.856022 207.923308,200.09409 C208.342272,200.439758 209.184599,200.144225 209.59594,199.293102 C209.93721,198.587108 209.540235,197.728656 208.89493,197.745367 C208.541346,198.34171 207.445412,198.181923 207.702831,197.320246 C208.019766,196.258908 209.759832,196.932359 210.084097,198.208017 C210.056244,197.296791 209.580695,196.560011 208.336701,196.156293 C208.177208,196.104398 208.039116,196.036086 207.916857,195.956925 C207.415214,195.727653 206.095285,195.642042 205.748445,196.571446 C206.234256,195.736448 207.650643,196.045468 208.037651,196.311095 C207.659336,196.192717 207.219729,196.243668 206.789472,196.731848 L206.708926,196.828571 C206.097924,197.602878 205.00932,197.19828 205.141254,197.128208 C205.514481,196.9306 205.35059,196.319891 205.751963,195.842582 C206.187932,195.324227 206.993904,195.314845 207.67703,195.766647 C206.673304,194.792113 207.358223,192.791932 207.513595,193.225807 L207.513595,193.225807 Z M175.7164,197.529581 C175.749823,198.01334 176.233289,198.046177 176.310104,198.280141 C176.402751,198.057612 176.644631,197.965258 176.612087,198.069925 C176.504487,198.41442 176.959514,198.894954 176.493933,199.768359 L176.442767,199.751552 C176.292239,199.694668 175.844281,199.48752 175.569513,199.034804 C175.025944,198.139997 175.702327,197.32435 175.7164,197.529581 Z M206.857279,199.034804 C206.523632,199.58453 205.934619,199.77217 205.93286,199.768359 C205.467571,198.894954 205.922598,198.41442 205.814998,198.069925 C205.782161,197.965258 206.024041,198.057612 206.116688,198.280141 C206.193503,198.046177 206.676969,198.01334 206.710392,197.529581 C206.724758,197.32435 207.400848,198.139997 206.857279,199.034804 Z M172.245943,190.716204 C172.22542,190.48312 173.647671,191.523642 173.167724,193.005996 C172.809449,194.111898 172.965718,194.987942 173.460911,195.392833 C172.799774,195.132483 171.378989,193.374239 172.040126,191.998312 C171.131832,193.294492 172.063874,194.732282 173.144562,195.441795 C171.749284,194.955398 170.971165,194.043586 171.113361,192.65681 C171.213338,191.679617 172.303994,191.374702 172.245943,190.716204 Z M209.259362,193.005996 C208.779121,191.523642 210.201665,190.48312 210.181142,190.716204 C210.122798,191.374702 211.213454,191.679617 211.313724,192.65681 C211.455627,194.043586 210.677508,194.955398 209.282523,195.441795 C210.362918,194.732282 211.29496,193.294492 210.386666,191.998312 C211.047804,193.374239 209.627018,195.132483 208.965881,195.392833 C209.461074,194.987942 209.617343,194.111898 209.259362,193.005996 Z M211.170649,188.551603 C211.170649,188.448108 210.999721,188.113581 210.649069,188.113581 C210.298417,188.113581 209.758073,188.551603 209.758073,188.551603 L209.859503,188.628435 C210.032767,188.754066 210.391924,188.989625 210.649069,188.989625 C210.999721,188.989625 211.170649,188.655098 211.170649,188.551603 Z M207.40935,187.856163 C206.603379,187.856163 206.211094,188.387125 206.211094,188.551603 C206.211094,188.716081 206.603379,189.24675 207.40935,189.24675 C208.215322,189.24675 209.457263,188.551603 209.457263,188.551603 L209.250616,188.44294 C208.863541,188.247348 208.013829,187.856163 207.40935,187.856163 Z M207.818933,186.656148 C207.766159,186.708921 207.721595,187.00592 207.980479,187.265097 C208.239656,187.524275 208.862679,187.699601 208.862679,187.699601 L208.826908,187.585455 C208.762938,187.393331 208.617653,187.007757 208.427589,186.817694 C208.168705,186.558809 207.871707,186.603374 207.818933,186.656148 Z M207.818933,190.447058 C207.871707,190.499832 208.168705,190.544396 208.427589,190.285219 C208.686767,190.026335 208.862679,189.403605 208.862679,189.403605 L208.748482,189.439325 C208.556274,189.50321 208.170543,189.648338 207.980479,189.838402 C207.721595,190.097579 207.765866,190.394284 207.818933,190.447058 Z M171.256436,188.551603 C171.256436,188.655098 171.427071,188.989625 171.777723,188.989625 C172.128375,188.989625 172.668719,188.551603 172.668719,188.551603 L172.609718,188.506049 C172.460169,188.393915 172.058245,188.113581 171.777723,188.113581 C171.427071,188.113581 171.256436,188.448108 171.256436,188.551603 Z M175.017442,189.24675 C175.823413,189.24675 176.215991,188.716081 176.215991,188.551603 C176.215991,188.387125 175.823413,187.856163 175.017442,187.856163 C174.211763,187.856163 172.969822,188.551603 172.969822,188.551603 L173.176464,188.66022 C173.563526,188.85573 174.413183,189.24675 175.017442,189.24675 Z M173.999203,190.285219 C174.25838,190.544396 174.555086,190.500125 174.607859,190.447058 C174.660633,190.394284 174.705491,190.097579 174.446313,189.838402 C174.187136,189.579224 173.564406,189.403605 173.564406,189.403605 L173.600126,189.517745 C173.664012,189.709854 173.809139,190.09537 173.999203,190.285219 Z M174.607859,186.656148 C174.555086,186.603374 174.25838,186.558809 173.999203,186.817694 C173.740025,187.076871 173.564406,187.699601 173.564406,187.699601 L173.678552,187.663933 C173.870676,187.600131 174.25625,187.455161 174.446313,187.265097 C174.705491,187.00592 174.660926,186.708921 174.607859,186.656148 Z" id="2"></path>
        </g>
    </g>
</svg>
