<?xml version="1.0" encoding="UTF-8"?>
<svg width="61px" height="43px" viewBox="0 0 61 43" version="1.1" xmlns="http://www.w3.org/2000/svg" xmlns:xlink="http://www.w3.org/1999/xlink">
    <title>12</title>
    <g id="页面-1" stroke="none" stroke-width="1" fill="none" fill-rule="evenodd">
        <g id="花环" transform="translate(-161.000000, -249.000000)" fill="#545458">
            <path d="M221.213543,249.195212 L221.213543,291.861338 L161.213543,291.861338 L161.213543,249.195212 L221.213543,249.195212 Z M220.696318,249.712523 L161.730853,249.712523 L161.730853,291.344028 L220.696318,291.344028 L220.696318,249.712523 Z M216.541186,250.902113 L216.544034,251.093105 C216.567077,252.624324 217.784492,253.841825 219.31571,253.864782 L219.506703,253.86763 L219.506703,287.097714 L219.31571,287.100562 C217.786131,287.123519 216.541703,288.385985 216.541703,289.914959 L216.5474,290.154541 L165.971013,290.154541 L165.976019,289.925316 C165.976623,288.361819 164.713122,287.098232 163.159982,287.098232 L162.9204,287.103928 L162.9204,253.861416 L163.149539,253.866508 C164.689647,253.866508 165.951422,252.622339 165.974379,251.093105 L165.977141,250.902113 L216.541186,250.902113 Z M216.164465,251.289966 L166.353602,251.289966 C166.233552,252.892645 164.917146,254.176773 163.308253,254.251513 L163.308253,286.713744 C164.957623,286.789261 166.28568,288.117318 166.361197,289.766601 L216.157302,289.766601 C216.232042,288.157709 217.51617,286.841389 219.118849,286.721253 L219.118849,254.24435 C217.530669,254.128529 216.280286,252.878232 216.164465,251.289966 Z M219.118918,287.653732 L219.118918,289.752059 L217.020591,289.752059 C217.020591,288.593159 217.960018,287.653732 219.118918,287.653732 Z M163.331047,287.653732 C164.48986,287.653732 165.429374,288.593159 165.429374,289.752059 L163.331047,289.752059 L163.331047,287.653732 Z M214.990971,288.227823 L214.990971,288.40889 L167.530531,288.40889 L167.530531,288.227823 L214.990971,288.227823 Z M217.761094,255.389994 L217.761094,285.583618 L217.580027,285.583618 L217.580027,255.389994 L217.761094,255.389994 Z M164.847058,255.41787 L164.847058,285.54435 L164.665991,285.54435 L164.665991,255.41787 L164.847058,255.41787 Z M165.429374,251.312699 C165.429374,252.471599 164.48986,253.411026 163.331047,253.411026 L163.331047,251.312699 L165.429374,251.312699 Z M219.118918,251.312699 L219.118918,253.411026 C217.960018,253.411026 217.020591,252.471599 217.020591,251.312699 L219.118918,251.312699 Z M215.018848,252.647661 L215.018848,252.828728 L167.491349,252.828728 L167.491349,252.647661 L215.018848,252.647661 Z" id="12"></path>
        </g>
    </g>
</svg>
