<?xml version="1.0" encoding="UTF-8"?>
<svg width="60px" height="39px" viewBox="0 0 60 39" version="1.1" xmlns="http://www.w3.org/2000/svg" xmlns:xlink="http://www.w3.org/1999/xlink">
    <title>39</title>
    <g id="页面-1" stroke="none" stroke-width="1" fill="none" fill-rule="evenodd">
        <g id="花环" transform="translate(-80.000000, -485.000000)" fill="#545458">
            <path d="M110,485.5 C113.051419,487.678639 121.029655,486.163764 124.569174,490.659461 L124.630902,490.738005 L126.424844,490.736717 C134.045437,490.736717 134.866998,498.340709 140,504.5 C134.861907,510.665729 134.048619,518.263283 126.42548,518.263283 L124.630902,518.261995 L124.569174,518.340539 C121.030291,522.835592 113.052055,521.320717 110,523.5 C106.951763,521.323292 98.9677994,522.833661 95.4314624,518.340539 L95.3690976,518.261995 L93.5745195,518.263283 C85.9545628,518.263283 85.1330024,510.659291 80,504.5 C81.6297569,502.544118 82.8318697,500.435009 83.926435,498.511317 C86.2994782,494.339455 88.3486063,490.736717 93.5745195,490.736717 L95.3690976,490.738005 L95.4314624,490.659461 C98.9697085,486.164408 106.947945,487.679283 110,485.5 Z M110,486.720012 L109.908362,486.766366 C108.526155,487.460389 106.690213,487.719843 104.746086,487.994104 C101.636757,488.433824 98.1125111,488.931485 96.2390225,491.311636 L95.8661067,491.784189 L93.5745195,491.782258 C88.9461627,491.782258 87.2164948,494.823597 84.8218149,499.033444 C83.8774341,500.693176 82.8076874,502.574377 81.4305715,504.371883 L81.3325697,504.5 L81.4299351,504.628117 C82.7936872,506.410172 83.8678885,508.293948 84.8160876,509.956899 C87.2203131,514.17254 88.956981,517.217742 93.5738832,517.217742 L95.8661067,517.215811 L96.2396589,517.689652 C98.1125111,520.067871 101.638666,520.56682 104.749268,521.00654 C106.692758,521.281445 108.527428,521.540899 109.907726,522.234278 L110,522.279988 L110.092274,522.234278 C111.472572,521.540255 113.308515,521.280801 115.253277,521.005896 C118.363243,520.56682 121.887489,520.068515 123.761614,517.688364 L124.133893,517.215811 L126.42548,517.217742 C131.044928,517.217742 132.779687,514.174471 135.180731,509.962049 C136.12893,508.299099 137.203131,506.414035 138.570065,504.628117 L138.668067,504.5 L138.570065,504.371883 C137.206313,502.589828 136.132111,500.706052 135.183912,499.043101 C132.780323,494.82746 131.043019,491.782258 126.426117,491.782258 L124.133893,491.784189 L123.760341,491.310992 C121.887489,488.931485 118.363243,488.43318 115.252005,487.99346 C113.308515,487.719199 111.473209,487.459745 110.092274,486.766366 L110,486.720012 Z M110.000191,487.185806 C111.428217,487.875966 113.259068,488.134132 115.196194,488.408393 C118.229159,488.836524 121.666858,489.322598 123.437253,491.571412 L123.934899,492.202341 L126.426308,492.20041 C130.804569,492.20041 132.490963,495.158054 134.82646,499.253304 C135.758114,500.887283 136.811315,502.733718 138.145794,504.499678 C136.808133,506.269501 135.754932,508.117867 134.822642,509.753134 C132.490963,513.843877 130.805842,516.79959 126.425671,516.79959 L123.934899,516.797015 L123.43789,517.427945 C121.666858,519.677402 118.229159,520.162832 115.194922,520.591607 C113.259068,520.865224 111.428217,521.124034 110.000191,521.814194 C108.572165,521.124678 106.74195,520.865868 104.806733,520.592251 C101.772496,520.162832 98.3328879,519.676759 96.5631284,517.428588 L96.065483,516.797015 L93.5734377,516.79959 C89.1958127,516.79959 87.508782,513.841946 85.1739213,509.746696 C84.242268,508.112717 83.1890671,506.266282 81.8545883,504.500322 C83.202431,502.719555 84.2511773,500.874407 85.1809215,499.241071 C87.5056001,495.153548 89.1849943,492.20041 93.5747104,492.20041 L96.065483,492.202341 L96.562492,491.572055 C98.3328879,489.322598 101.770587,488.837168 104.803551,488.408393 C106.740041,488.134776 108.570892,487.875966 110.000191,487.185806 Z" id="39"></path>
        </g>
    </g>
</svg>
