<?xml version="1.0" encoding="UTF-8"?>
<svg width="60px" height="60px" viewBox="0 0 60 60" version="1.1" xmlns="http://www.w3.org/2000/svg" xmlns:xlink="http://www.w3.org/1999/xlink">
    <title>4</title>
    <g id="页面-1" stroke="none" stroke-width="1" fill="none" fill-rule="evenodd">
        <g id="花环" transform="translate(-320.000000, -158.000000)" fill="#545458">
            <path d="M329.757936,206.758674 C330.028403,206.860209 330.269926,207.004302 330.501348,207.167004 C330.616078,207.249261 330.724934,207.33952 330.830147,207.434736 C330.937112,207.528155 331.039194,207.627748 331.136841,207.732415 L331.209215,207.811867 L331.28008,207.892902 C331.327838,207.946331 331.37458,208.000866 331.420175,208.056379 C331.481041,208.130374 331.540004,208.206112 331.597157,208.283226 L331.681544,208.399887 C331.766537,208.515212 331.84803,208.632641 331.925261,208.751836 C332.0026,208.870997 332.075457,208.992296 332.147971,209.109424 C332.301888,209.363434 332.441809,209.627866 332.582887,209.890088 L332.996335,210.691257 C333.132629,210.963164 333.278577,211.226297 333.42726,211.495461 C333.501142,211.630758 333.581469,211.759179 333.66179,211.890836 C333.736609,212.011197 333.813193,212.132023 333.893196,212.250628 C333.889163,212.124325 333.896503,211.99813 333.915169,211.874345 C333.94762,211.65771 334.013382,211.448908 334.108855,211.25614 C334.299742,210.870643 334.609299,210.549401 335.005524,210.356416 C335.196796,210.264238 335.402283,210.197119 335.607539,210.162783 C335.813554,210.127347 336.019657,210.12434 336.225328,210.141854 C336.633214,210.183104 337.025093,210.328369 337.350399,210.578636 C337.529667,210.711994 337.677626,210.890265 337.795183,211.082945 C337.912345,211.27612 337.994282,211.493022 338.03199,211.715726 C338.108369,212.156529 338.010747,212.622033 337.625861,212.960743 C337.455207,213.111267 337.241306,213.204894 337.016404,213.228108 C336.79154,213.251689 336.554666,213.207091 336.350472,213.070154 C336.139586,212.931882 335.984277,212.744351 335.908468,212.530534 C335.83147,212.318511 335.830088,212.087684 335.918544,211.865116 C335.970273,211.735714 336.162119,211.706715 336.272998,211.768002 C336.407692,211.84238 336.429298,211.990997 336.380763,212.120911 C336.328823,212.258802 336.408833,212.43011 336.504469,212.535705 C336.785329,212.849832 337.214806,212.711054 337.419221,212.41193 C337.535496,212.243534 337.568069,212.048649 337.546279,211.857366 C337.52424,211.666038 337.447382,211.479158 337.344284,211.317437 C337.240838,211.156528 337.105369,211.027976 336.952843,210.92343 C336.800841,210.817951 336.628699,210.742046 336.446571,210.696328 C336.087205,210.597228 335.684435,210.620473 335.337535,210.767359 C334.976862,210.922806 334.704027,211.213856 334.555645,211.562837 C334.407278,211.911152 334.383315,212.320882 334.51676,212.702519 C334.595126,212.92105 334.72213,213.112829 334.88155,213.27905 C335.04266,213.442384 335.237976,213.576983 335.448371,213.688613 C335.660252,213.797628 335.890658,213.877502 336.119688,213.937511 C336.349943,213.99522 336.582956,214.025318 336.799353,214.039332 C336.945852,214.049584 337.093912,214.048348 337.240037,214.044407 C337.386246,214.040276 337.531307,214.031884 337.675278,214.020937 C337.964459,213.996385 338.251414,213.956492 338.53364,213.923058 C338.72803,213.896426 338.921159,213.873064 339.113493,213.85275 L339.401455,213.824537 C339.546005,213.809429 339.690079,213.796445 339.833723,213.785903 L340.264707,213.758342 C340.551149,213.739727 340.833056,213.736081 341.117427,213.72835 L341.329492,213.72671 L341.54068,213.72896 C341.681732,213.729928 341.8231,213.730849 341.963465,213.736011 L342.338766,213.75132 C342.464927,213.756131 342.590892,213.764092 342.715547,213.778037 C342.96419,213.808841 343.210869,213.850803 343.444076,213.94391 C343.503172,213.96734 343.559374,213.993803 343.612865,214.023127 C343.66666,214.051014 343.717721,214.081604 343.76609,214.114954 C343.862837,214.181605 343.948958,214.258758 344.024973,214.34435 C344.09004,214.417221 344.147077,214.497509 344.197813,214.580949 C344.608742,214.888762 345.074502,215.135525 345.566705,215.30847 C345.711614,215.356605 345.858161,215.398352 346.00586,215.435012 C346.079703,215.453084 346.153772,215.471042 346.228294,215.485844 C346.302889,215.499939 346.377777,215.512956 346.452823,215.525077 C346.602922,215.549267 346.753853,215.569907 346.905351,215.588489 L347.133469,215.609086 L347.590704,215.64606 L347.819698,215.661683 C347.921478,215.669243 348.023177,215.678045 348.124645,215.688762 L348.276655,215.706357 C348.428583,215.723371 348.580008,215.74266 348.73037,215.770903 C348.880757,215.798997 349.030148,215.835083 349.178533,215.874843 C349.396402,215.934114 349.616342,216.027088 349.826631,216.134076 C350.036869,216.241928 350.237429,216.37473 350.415425,216.529591 C350.770432,216.830921 351.037808,217.22249 351.09009,217.685902 C351.105643,217.824307 351.042835,217.959509 350.874696,217.994337 C350.7367,218.022931 350.544816,217.940818 350.532344,217.8027 C350.489475,217.349939 350.197408,216.98406 349.805538,216.727126 C349.574023,216.574578 349.329233,216.460985 349.074901,216.385259 C348.863018,216.319382 348.644559,216.271429 348.422102,216.239564 L348.288168,216.222362 C348.019845,216.183255 347.746148,216.167085 347.474114,216.147305 L346.867325,216.100523 C346.800928,216.093782 346.735017,216.08574 346.669612,216.077736 C345.881184,215.983627 345.130117,215.737085 344.461368,215.358786 C344.501136,215.681402 344.470021,216.016929 344.368466,216.319422 C344.295891,216.535444 344.182375,216.735095 344.035046,216.907613 C343.887951,217.079093 343.706085,217.228305 343.501197,217.330202 C343.296092,217.43391 343.066228,217.499292 342.822969,217.516594 C342.580854,217.528859 342.325596,217.491905 342.070632,217.397627 C341.622211,217.221421 341.290704,216.868816 341.217482,216.436892 C341.148489,216.044189 341.27263,215.613725 341.594025,215.360476 C341.682579,215.290638 341.777679,215.239574 341.876539,215.204173 C341.97577,215.167246 342.07843,215.146693 342.181526,215.140857 C342.387844,215.128179 342.594215,215.179308 342.78047,215.265409 C342.965997,215.353899 343.128667,215.488846 343.242235,215.657553 C343.356493,215.822631 343.421497,216.022623 343.406568,216.244663 C343.397469,216.384057 343.21354,216.466591 343.080023,216.438856 C342.919139,216.40218 342.852279,216.26314 342.864415,216.125156 C342.874619,216.006298 342.782803,215.880471 342.679657,215.798873 C342.618937,215.75086 342.551375,215.714018 342.481166,215.689293 C342.411396,215.662952 342.338885,215.648967 342.267683,215.648826 C342.125377,215.648561 341.988058,215.703625 341.889824,215.8261 C341.699656,216.062967 341.706622,216.444513 341.918718,216.687529 C341.980824,216.758851 342.055812,216.818218 342.139,216.865986 C342.222215,216.913604 342.314461,216.946072 342.409553,216.969077 C342.599998,217.013901 342.803186,217.015207 342.981932,216.971721 C343.430039,216.858577 343.729271,216.505052 343.861028,216.114097 C343.988226,215.737954 343.984171,215.287423 343.801972,214.921834 C343.7061,214.847889 343.612127,214.771609 343.521347,214.691476 C343.474212,214.650536 343.454764,214.59137 343.454521,214.530971 C343.249669,214.396024 342.999566,214.329212 342.741766,214.297665 C342.216585,214.22836 341.664024,214.237896 341.129525,214.241324 L340.915283,214.24509 L340.700344,214.252817 C340.557565,214.256989 340.414878,214.262102 340.271418,214.270725 C340.128292,214.278328 339.983458,214.291845 339.840326,214.301811 C339.697016,214.312207 339.553209,214.325135 339.408914,214.340545 C339.223757,214.361959 339.039361,214.3841 338.853573,214.408233 L338.573578,214.446085 C338.291277,214.487518 338.010491,214.518022 337.723556,214.5441 C337.651954,214.550309 337.5801,214.555909 337.508038,214.56065 C337.436544,214.564207 337.364935,214.566665 337.29306,214.568306 C337.149336,214.571437 337.004759,214.570669 336.859502,214.564438 C336.71361,214.559482 336.569654,214.543824 336.424511,214.522666 C336.279452,214.501317 336.133951,214.473161 335.988251,214.436803 C335.749227,214.373231 335.510929,214.283385 335.283263,214.172507 C335.149495,214.103943 335.020875,214.025963 334.898091,213.94136 L334.828194,214.041922 C334.148187,213.511902 333.620668,212.814744 333.177662,212.08294 C332.735088,211.347513 332.375674,210.578999 331.994836,209.882314 C331.864921,209.639168 331.721865,209.398376 331.574381,209.155621 C331.524596,209.075432 331.473373,208.996153 331.420579,208.91811 L331.340193,208.802016 C331.260779,208.68444 331.177747,208.569923 331.09057,208.459708 C330.913978,208.241504 330.730958,208.029201 330.522157,207.846454 C330.417697,207.755121 330.312778,207.66494 330.199135,207.584673 C330.086674,207.503228 329.965716,207.431276 329.842414,207.363018 C329.664933,207.265265 329.454014,207.181383 329.240111,207.1468 C329.028502,207.11026 328.814423,207.122132 328.628197,207.223831 C328.374874,207.36183 328.170815,207.673451 328.278205,207.984275 L328.294,208.024799 C328.36785,208.1868 328.284926,208.316755 328.163785,208.364453 C328.042766,208.412328 327.881956,208.377565 327.809823,208.2096 C327.697174,207.950291 327.6897,207.688493 327.764873,207.452177 C327.839924,207.215685 327.992451,207.008694 328.190333,206.859741 C328.415407,206.690421 328.677695,206.619257 328.951109,206.609642 C329.224938,206.599998 329.501527,206.659775 329.757936,206.758674 Z M373.769065,205.327197 C373.886861,205.401365 373.953193,205.534661 373.87533,205.687751 C373.811431,205.813412 373.627318,205.912145 373.511661,205.835734 C373.320034,205.709903 373.110658,205.650487 372.89004,205.637423 C372.669685,205.62461 372.441794,205.661011 372.218662,205.734209 C372.087926,205.778107 371.961226,205.829396 371.840612,205.889258 C371.720137,205.949197 371.605807,206.017668 371.496445,206.093181 C371.27661,206.24324 371.070568,206.416384 370.879006,206.607545 C370.487168,206.981652 370.134468,207.415011 369.75719,207.78424 C369.65071,207.888565 369.542738,207.990571 369.430392,208.086823 C369.316787,208.181773 369.200907,208.273035 369.082935,208.360434 C369.023847,208.403987 368.964688,208.447066 368.904268,208.488277 C368.843106,208.528742 368.781505,208.568204 368.719415,208.606656 C368.595285,208.683568 368.469316,208.756354 368.341882,208.824926 C368.212828,208.89162 368.081133,208.952916 367.948826,209.010406 L367.819673,209.064549 C368.095828,209.234327 368.337785,209.467463 368.510924,209.736168 C368.634438,209.927947 368.719777,210.141854 368.763108,210.365551 C368.805157,210.58779 368.803866,210.818351 368.757786,211.045062 C368.734755,211.158367 368.700477,211.27056 368.654669,211.379741 C368.607532,211.487147 368.548916,211.59155 368.478764,211.690937 C368.408613,211.790324 368.326976,211.884703 368.233987,211.972147 C368.140038,212.058343 368.033359,212.135819 367.916171,212.205071 C367.812671,212.265952 367.704932,212.314475 367.595738,212.349695 C367.485642,212.383626 367.373295,212.403239 367.262816,212.409621 C367.041662,212.422042 366.82617,212.378703 366.636222,212.275101 C366.2856,212.082055 366.028264,211.717685 366.030918,211.307737 C366.031504,211.080596 366.105552,210.877777 366.226256,210.711037 C366.34742,210.544892 366.509765,210.406873 366.696893,210.31987 C366.884503,210.23362 367.087772,210.186091 367.289819,210.202041 C367.491206,210.21736 367.688789,210.292466 367.853048,210.443155 C367.956258,210.537504 367.904496,210.73121 367.798354,210.816999 C367.66997,210.920692 367.520743,210.887461 367.420727,210.791879 C367.334648,210.71011 367.179915,210.704363 367.050426,210.732147 C366.747501,210.799783 366.512492,211.062532 366.578217,211.366257 C366.643364,211.66161 366.94674,211.896242 367.269463,211.883159 C367.457016,211.873589 367.63947,211.793312 367.794965,211.674373 C367.951594,211.556867 368.074494,211.392518 368.153157,211.226727 C368.201726,211.122554 368.232853,211.01602 368.248634,210.909499 C368.263882,210.802216 368.262979,210.693981 368.249676,210.588848 C368.222764,210.378272 368.144091,210.17751 368.032674,210.003585 C367.817562,209.667833 367.462472,209.389706 367.063755,209.306876 C366.947326,209.335682 366.830045,209.361461 366.71076,209.381133 C366.649194,209.391837 366.590453,209.371346 366.543374,209.334165 C366.310898,209.410593 366.103921,209.565439 365.91712,209.745011 L365.846552,209.815507 L365.777139,209.887749 C365.730681,209.935638 365.684296,209.983695 365.638945,210.033166 C365.548019,210.131916 365.459794,210.234275 365.373598,210.339099 C365.257594,210.477202 365.144044,210.617952 365.032852,210.759553 L364.867822,210.972367 C364.514329,211.419558 364.185054,211.892702 363.870524,212.378568 C363.820441,212.456466 363.771314,212.535537 363.722792,212.615536 L363.431937,213.097718 C363.359047,213.219068 363.28638,213.342359 363.211426,213.464064 C363.135622,213.584181 363.058364,213.7044 362.978638,213.823773 C362.898478,213.942402 362.817408,214.063284 362.729853,214.176703 C362.64259,214.29079 362.551756,214.403013 362.456228,214.512456 C362.26656,214.73395 362.05196,214.931214 361.813993,215.114593 C361.61674,215.264633 361.397012,215.39252 361.168848,215.501865 C361.032499,215.565113 360.891437,215.616948 360.748746,215.659968 L360.783811,215.777316 C359.946537,215.979545 359.07366,215.959645 358.225422,215.849943 C357.375127,215.739106 356.550474,215.542391 355.768867,215.407212 C355.633451,215.382686 355.496142,215.359881 355.357758,215.339967 L355.149371,215.311649 C355.079359,215.301547 355.009188,215.292342 354.938968,215.284002 C354.79841,215.267403 354.657443,215.254584 354.516647,215.246624 C354.375646,215.237498 354.234203,215.229423 354.093774,215.229285 C353.531853,215.229617 352.978643,215.297339 352.459628,215.524068 C352.272677,215.601908 352.075607,215.713609 351.915196,215.859007 C351.75511,216.006055 351.630619,216.177108 351.594059,216.38706 C351.543841,216.669454 351.659794,217.026445 351.968058,217.13386 L352.011289,217.146931 C352.184022,217.19063 352.233883,217.336736 352.195611,217.461117 C352.157421,217.584742 352.030044,217.689999 351.853903,217.642924 C351.580935,217.568993 351.371508,217.408737 351.233899,217.204914 C351.096096,217.001315 351.029465,216.750234 351.036617,216.503295 C351.040657,216.362905 351.069753,216.230021 351.118081,216.104488 C351.166399,215.978131 351.234012,215.85965 351.315555,215.750358 C351.397198,215.641083 351.492813,215.541055 351.597634,215.451694 C351.650021,215.406855 351.704745,215.365356 351.76114,215.325437 C351.817509,215.284794 351.875606,215.24687 351.934863,215.211976 C352.058883,215.138897 352.186509,215.076523 352.31716,215.023775 C352.447897,214.971709 352.580961,214.922161 352.716851,214.885131 C352.852508,214.846211 352.991187,214.820152 353.130679,214.794134 C353.270297,214.768858 353.411738,214.7513 353.554313,214.740415 C353.697181,214.73107 353.840107,214.721685 353.983762,214.719825 C354.127313,214.717382 354.27156,214.722356 354.414835,214.729059 C354.557853,214.734021 354.700467,214.743894 354.841715,214.757739 L354.947447,214.768805 L355.259775,214.805613 C355.35793,214.818218 355.455955,214.832604 355.553976,214.848473 L355.701022,214.873352 C355.84809,214.899318 355.993895,214.922546 356.140764,214.951097 L357.024609,215.126107 L357.247713,215.171098 L357.470819,215.211416 C357.620073,215.238077 357.77027,215.264339 357.921576,215.289257 C358.073029,215.314509 358.223728,215.332384 358.376643,215.351371 C358.517271,215.367571 358.659717,215.383938 358.802003,215.394216 L358.764608,215.366451 C358.677399,215.298094 358.596052,215.222964 358.52149,215.142818 C358.372285,214.982407 358.249897,214.800843 358.158581,214.606017 C357.975933,214.216463 357.917448,213.773992 358.013239,213.343658 C358.05987,213.135383 358.13558,212.93332 358.236562,212.751232 C358.337464,212.568719 358.462888,212.403737 358.604879,212.253957 C358.891256,211.960315 359.249296,211.744048 359.64751,211.644387 C360.082003,211.537161 360.565978,211.601502 360.961543,211.819383 C361.353184,212.033026 361.656751,212.401501 361.680986,212.912868 C361.691577,213.138901 361.633118,213.368306 361.510386,213.557341 C361.449447,213.652498 361.373218,213.738895 361.283216,213.811713 C361.193661,213.885484 361.089115,213.942688 360.972222,213.980246 C360.492903,214.141249 359.997031,213.983016 359.761153,213.567318 C359.692224,213.446149 359.789087,213.278127 359.906165,213.229608 C360.048469,213.171007 360.177912,213.246359 360.248807,213.364228 C360.324265,213.490866 360.508108,213.535294 360.650324,213.526452 C360.754705,213.52002 360.843758,213.489309 360.916719,213.441579 C360.989328,213.393222 361.044957,213.325892 361.08453,213.250076 C361.163624,213.097871 361.176208,212.907213 361.123706,212.733262 C361.064605,212.537343 360.932557,212.390235 360.769335,212.28786 C360.687624,212.236654 360.598082,212.196702 360.505448,212.167607 C360.413115,212.139131 360.317005,212.120158 360.221634,212.110099 C360.031405,212.091151 359.845506,212.114933 359.669605,212.171403 C359.492307,212.224442 359.325508,212.311696 359.176133,212.425603 C359.026289,212.538092 358.891854,212.672358 358.783677,212.828571 C358.675752,212.985394 358.591288,213.156735 358.541292,213.339247 C358.438151,213.718354 358.495891,214.11318 358.676377,214.446825 C358.856256,214.77954 359.162211,215.054899 359.543074,215.186662 C359.762709,215.261552 359.991873,215.282033 360.221021,215.260647 C360.448382,215.234837 360.675731,215.167417 360.893917,215.072184 C361.11013,214.972132 361.316892,214.843856 361.506377,214.701794 C361.693671,214.554978 361.863523,214.394142 362.009165,214.233243 C362.204922,214.010976 362.378213,213.775238 362.540247,213.535818 C362.646579,213.37279 362.749081,213.210273 362.849377,213.047245 L362.998369,212.802191 C363.300869,212.298379 363.616647,211.816791 363.949737,211.345297 L364.075253,211.17203 L364.202268,211.000529 C364.286368,210.885164 364.372021,210.771769 364.459167,210.660384 L364.722995,210.328397 C364.81169,210.218415 364.902069,210.110528 364.994289,210.004713 C365.154849,209.813883 365.318822,209.619699 365.496593,209.442745 C365.584314,209.352573 365.675912,209.267195 365.77296,209.189046 C365.870312,209.111207 365.972892,209.040404 366.080115,208.975865 C366.395114,208.793914 366.726898,208.74103 367.051228,208.78381 C367.23762,208.735664 367.423035,208.677329 367.602507,208.60495 C367.752098,208.545478 367.902505,208.482246 368.046218,208.408072 C368.18984,208.333832 368.331001,208.253455 368.468652,208.167373 C368.940475,207.864106 369.35001,207.483587 369.733478,207.073993 L369.837441,206.961601 C370.047598,206.740026 370.248822,206.507988 370.468629,206.294847 C370.576989,206.186847 370.68615,206.08012 370.802029,205.980126 C370.917908,205.880132 371.038551,205.78514 371.162324,205.693937 C371.531804,205.431354 371.981859,205.220598 372.444105,205.133527 C372.901357,205.043931 373.374445,205.079177 373.769065,205.327197 Z M321.470565,182.971862 C321.742536,183.042124 321.967262,183.203798 322.143454,183.411453 C322.319959,183.619369 322.444958,183.872947 322.530307,184.135757 C322.573603,184.273101 322.605713,184.411604 322.627771,184.550952 C322.651041,184.690411 322.668125,184.831192 322.67414,184.972176 C322.681824,185.1133 322.675699,185.254452 322.670488,185.396536 C322.663865,185.538473 322.649383,185.680461 322.62819,185.822086 C322.60537,185.963629 322.582134,186.105201 322.552135,186.245836 C322.532169,186.339598 322.509608,186.432948 322.484902,186.525737 L322.446292,186.664481 C322.409651,186.802916 322.368395,186.939868 322.323521,187.07464 C322.279053,187.209433 322.228766,187.342017 322.182766,187.471814 C322.08145,187.750514 321.960117,188.024858 321.844116,188.298654 L321.476231,189.121617 C321.231592,189.662869 321,190.214847 320.817208,190.795939 C321.082498,190.570178 321.398687,190.415558 321.728082,190.34448 C322.147999,190.253583 322.592277,190.295659 322.990854,190.485358 C323.087535,190.531399 323.179515,190.584315 323.266397,190.643162 C323.354485,190.701863 323.438473,190.766364 323.51649,190.835923 C323.673672,190.974935 323.80489,191.134327 323.917505,191.306409 C324.031208,191.478427 324.117887,191.664319 324.177747,191.858266 C324.24155,192.051676 324.275787,192.253581 324.277477,192.459345 C324.284876,192.68281 324.242775,192.908786 324.160972,193.121843 C324.083931,193.33379 323.966281,193.533019 323.816375,193.70123 C323.66543,193.869513 323.486044,194.005808 323.279993,194.089829 C323.073751,194.173766 322.841295,194.2052 322.588799,194.159848 C322.36653,194.11973 322.160642,194.010488 322.000859,193.849237 C321.921408,193.768587 321.852661,193.675239 321.802401,193.571029 C321.753465,193.46659 321.720976,193.351803 321.709144,193.229568 C321.697435,193.104016 321.702329,192.981806 321.727754,192.86656 C321.75377,192.751162 321.796765,192.643385 321.855204,192.547272 C321.97215,192.354956 322.151101,192.210058 322.379949,192.14054 C322.5132,192.100425 322.656082,192.23234 322.677958,192.357273 C322.704462,192.508963 322.602263,192.61841 322.470564,192.661368 C322.400294,192.684198 322.343371,192.737893 322.300843,192.803684 C322.259687,192.869254 322.233349,192.946842 322.222169,193.017037 C322.189631,193.223384 322.263997,193.391486 322.393297,193.502615 C322.524784,193.613565 322.708257,193.668253 322.889548,193.655779 C323.298916,193.626251 323.57529,193.276343 323.698124,192.914787 C323.81416,192.553366 323.777482,192.167447 323.623907,191.824942 C323.549948,191.653367 323.446001,191.492677 323.317904,191.352277 C323.19132,191.211733 323.044389,191.090865 322.876277,191.001392 C322.529114,190.816097 322.13137,190.783983 321.766466,190.885364 C321.401514,190.986429 321.069401,191.222735 320.852717,191.565306 C320.729114,191.763074 320.661109,191.981701 320.631009,192.210052 C320.623681,192.26711 320.618549,192.324813 320.616398,192.382785 C320.615186,192.440667 320.61633,192.498861 320.619682,192.557343 C320.626354,192.674198 320.641751,192.791926 320.664407,192.908932 C320.757807,193.376933 320.978903,193.83024 321.232507,194.184911 C321.511701,194.579837 321.844916,194.921788 322.180957,195.25138 L322.404841,195.469724 C322.614207,195.674042 322.824494,195.878368 323.021755,196.087895 C323.17512,196.243338 323.322351,196.401483 323.467233,196.561612 L323.611473,196.722375 C323.708304,196.828618 323.801288,196.936378 323.892969,197.044801 L324.166644,197.3712 C324.256836,197.480611 324.344674,197.591148 324.430042,197.702893 C324.517728,197.813711 324.604536,197.925144 324.687971,198.038243 L324.87896,198.297683 C325.111582,198.617467 325.332654,198.949984 325.44778,199.326805 C325.523798,199.569167 325.537376,199.804459 325.496982,200.030941 C325.480301,200.128879 325.454204,200.224333 325.420287,200.317276 L325.424739,200.414682 C325.433856,200.574192 325.447873,200.735594 325.471677,200.895334 C325.522916,201.212836 325.596318,201.53271 325.708461,201.836567 C325.91203,202.415349 326.234454,202.934061 326.579016,203.440707 L326.70929,203.629474 L326.837684,203.819952 C326.922981,203.947248 327.010044,204.073263 327.090453,204.203548 C327.249606,204.465417 327.404474,204.728019 327.519884,205.015655 C327.608582,205.223889 327.678814,205.449562 327.722628,205.683926 C327.768552,205.916506 327.792351,206.154373 327.782796,206.389896 C327.772414,206.626043 327.736616,206.853234 327.658843,207.06613 C327.581566,207.278549 327.464969,207.47442 327.300241,207.639088 C327.201874,207.737551 327.056886,207.772923 326.924269,207.663726 C326.815097,207.574386 326.759542,207.373186 326.860693,207.276397 C327.190371,206.95804 327.289246,206.505239 327.246861,206.037204 C327.225099,205.758039 327.153509,205.501613 327.058057,205.252173 C326.963826,205.001921 326.832589,204.76861 326.695179,204.534517 C326.648569,204.45708 326.600024,204.380533 326.550049,204.304678 L326.474078,204.191389 C326.398441,204.077716 326.32259,203.9638 326.24467,203.851727 C326.087249,203.628688 325.936066,203.403156 325.795554,203.179969 C325.714918,203.054472 325.643007,202.924301 325.574697,202.792915 C325.506603,202.661466 325.441308,202.529277 325.382599,202.394656 C325.325512,202.258986 325.272673,202.122217 325.224195,201.984574 C325.199985,201.915732 325.176706,201.846849 325.154894,201.777505 C325.134326,201.707508 325.114824,201.637289 325.096518,201.566972 C325.059817,201.426272 325.027616,201.285082 325.000028,201.143628 C324.991493,201.097381 324.984765,201.050785 324.977613,201.004268 C324.749911,201.237179 324.468365,201.422366 324.168508,201.53174 C323.741361,201.68788 323.262738,201.672408 322.838853,201.482761 C322.629123,201.387173 322.436642,201.246962 322.272016,201.066878 C322.188919,200.977211 322.116941,200.87569 322.054083,200.764632 C321.991157,200.653666 321.93756,200.533148 321.895337,200.403698 C321.751648,199.943563 321.821637,199.463626 322.112879,199.137404 C322.376871,198.838577 322.790522,198.667572 323.18848,198.761414 C323.406231,198.813781 323.589137,198.930266 323.726529,199.084327 C323.795112,199.161415 323.852374,199.24801 323.897698,199.340613 C323.943415,199.433028 323.980356,199.530109 324.002933,199.630664 C324.091091,200.032556 323.993737,200.476431 323.628108,200.731424 C323.513522,200.811254 323.335081,200.718365 323.274022,200.596221 C323.199171,200.448939 323.267655,200.309192 323.382824,200.232753 C323.48207,200.1666 323.52351,200.016068 323.523307,199.884329 C323.519817,199.575721 323.323964,199.284463 323.009552,199.282986 C322.706206,199.281614 322.412313,199.524976 322.354153,199.842733 C322.337377,199.935672 322.336313,200.032052 322.352527,200.126193 C322.368791,200.220343 322.399329,200.313571 322.440718,200.402295 C322.523921,200.579662 322.648275,200.740154 322.796539,200.851703 C322.979457,200.992023 323.186667,201.066364 323.396276,201.08745 C323.605593,201.108741 323.820929,201.075157 324.014661,201.005141 C324.205885,200.935966 324.390391,200.828005 324.547478,200.689828 C324.69764,200.557465 324.823659,200.396389 324.908645,200.213634 C324.907042,200.093051 324.908473,199.972439 324.913853,199.852421 C324.916586,199.78998 324.949489,199.73718 324.996201,199.699507 C324.992147,199.658417 324.986421,199.617494 324.977985,199.576812 C324.939289,199.375456 324.847514,199.180908 324.733782,198.997687 C324.461893,198.54286 324.109054,198.116733 323.773497,197.700284 L323.636977,197.534935 L323.496962,197.371511 C323.405333,197.262103 323.311699,197.153882 323.215586,197.046918 C323.0208,196.833822 322.828041,196.621752 322.623207,196.415306 L322.325469,196.120389 L322.173748,195.973827 L322.019871,195.82727 C321.915518,195.729792 321.815364,195.630333 321.714263,195.529834 C321.613271,195.429303 321.512533,195.327326 321.413162,195.223126 C321.215886,195.014265 321.0316,194.794291 320.858269,194.559608 C320.691398,194.323498 320.538723,194.071762 320.416164,193.797914 C320.31851,193.570891 320.23465,193.329354 320.183269,193.081428 C320.154192,192.933855 320.132241,192.78487 320.12128,192.636129 L320.000318,192.644051 C319.990538,191.781321 320.207579,190.933728 320.502445,190.13085 C320.797983,189.32619 321.177807,188.56569 321.483871,187.833569 C321.592253,187.580309 321.691611,187.318266 321.789335,187.051516 C321.820938,186.962582 321.85095,186.873093 321.879008,186.783137 L321.919582,186.647864 C321.961496,186.512415 321.999763,186.376116 322.031531,186.239132 C322.157175,185.690842 322.213941,185.13563 322.109647,184.578537 C322.041092,184.179849 321.847217,183.70659 321.460856,183.541649 C321.322306,183.483336 321.15514,183.464556 321.001639,183.499606 C320.861656,183.5313 320.73321,183.607779 320.65183,183.73879 L320.628863,183.779739 C320.46626,184.098163 320.015267,183.841268 320.179473,183.515782 C320.4463,183.015227 320.990687,182.846655 321.470565,182.971862 Z M378.600617,180.011096 C378.658944,180.139434 378.621435,180.34516 378.489718,180.388217 C378.272391,180.459923 378.094625,180.587309 377.948269,180.751677 C377.80103,180.916403 377.68749,181.117642 377.605668,181.338093 C377.581541,181.403127 377.560529,181.468248 377.542307,181.533553 C377.522753,181.599137 377.506047,181.664864 377.491933,181.73074 C377.463703,181.862493 377.445905,181.994752 377.436751,182.127459 C377.428871,182.259928 377.423942,182.393997 377.427105,182.52816 C377.430118,182.662295 377.439891,182.796803 377.454456,182.931489 C377.477995,183.201723 377.521626,183.472679 377.564079,183.742451 L377.624874,184.145573 C377.634663,184.212382 377.644454,184.278884 377.654157,184.34501 L377.675993,184.54303 C377.759844,185.333365 377.688292,186.121173 377.468216,186.857484 C377.773038,186.747601 378.10625,186.703804 378.423309,186.736003 C378.649924,186.759013 378.869818,186.82573 379.070929,186.931508 C379.171276,186.984412 379.26796,187.047045 379.356543,187.118675 C379.444443,187.19039 379.525946,187.271043 379.599497,187.359846 C379.673047,187.448649 379.738695,187.545611 379.794898,187.649586 C379.851399,187.753614 379.898238,187.86472 379.9303,187.98164 C379.963375,188.098637 379.985362,188.221483 379.994744,188.348885 C380.003977,188.476259 380.002133,188.608254 379.980438,188.743112 C379.944224,188.981119 379.860086,189.201316 379.733169,189.38206 C379.603179,189.562776 379.433575,189.704137 379.233317,189.787897 C378.866719,189.941732 378.419962,189.915193 378.101068,189.657069 C378.013221,189.585929 377.941706,189.504214 377.885477,189.415542 C377.829714,189.326849 377.788631,189.231142 377.758815,189.131774 C377.700611,188.933086 377.700849,188.720163 377.748705,188.5195 C377.837095,188.119245 378.128225,187.762183 378.564125,187.692137 C378.701302,187.670231 378.825381,187.831701 378.823603,187.968279 C378.823353,188.13348 378.703664,188.229463 378.56651,188.248034 C378.448494,188.264283 378.346735,188.381718 378.290628,188.500432 C378.154653,188.779537 378.208013,189.127257 378.491413,189.2658 C378.763675,189.399396 379.135078,189.308614 379.323142,189.04785 C379.433056,188.89518 379.488548,188.70244 379.490373,188.50644 C379.491484,188.310417 379.445611,188.111646 379.364969,187.946544 C379.158993,187.533558 378.743744,187.319342 378.334596,187.277099 C377.940077,187.236 377.502671,187.339374 377.187911,187.597493 C377.136869,187.707548 377.082882,187.816261 377.02443,187.922644 C376.993934,187.977513 376.940932,188.010686 376.882347,188.024278 C376.86768,188.062987 376.854684,188.102402 376.844364,188.142649 C376.793615,188.340797 376.794379,188.5559 376.81185,188.770255 C376.819948,188.858323 376.830632,188.946596 376.843505,189.035004 L376.864406,189.16771 C376.885926,189.30049 376.907754,189.433274 376.935024,189.566042 L376.962837,189.698732 L377.022643,189.963421 C377.051251,190.095296 377.081799,190.22664 377.113047,190.356926 C377.246993,190.913194 377.402414,191.46524 377.590142,192.01508 C377.680924,192.278797 377.775345,192.540794 377.877761,192.806925 C377.978685,193.072793 378.072009,193.340144 378.161871,193.614331 C378.250406,193.888182 378.319581,194.165909 378.374093,194.452295 C378.425745,194.738023 378.448571,195.029499 378.444185,195.330091 C378.435213,195.577171 378.401472,195.829689 378.34434,196.076331 C378.307788,196.222127 378.260529,196.364902 378.205491,196.503479 L378.319058,196.549214 C377.954496,197.330284 377.397629,198.002199 376.781102,198.59706 C376.233138,199.127298 375.645268,199.599555 375.105574,200.068706 L374.905619,200.244599 C374.696461,200.424948 374.492975,200.61796 374.291784,200.817181 C374.088516,201.015367 373.901622,201.227231 373.721725,201.444235 C373.633153,201.553519 373.54957,201.665945 373.472202,201.78183 C373.392042,201.896092 373.317675,202.013586 373.250716,202.135059 C373.119442,202.379602 373.004753,202.631954 372.932307,202.906403 C372.880329,203.103666 372.841019,203.325152 372.855089,203.541628 C372.861554,203.649458 372.880458,203.755425 372.915049,203.854198 C372.948533,203.952261 372.998248,204.043533 373.068331,204.122889 C373.167856,204.235541 373.310243,204.325095 373.463847,204.36028 C373.603973,204.39268 373.75198,204.378883 373.882397,204.296253 L373.920969,204.269377 C374.206077,204.053177 374.500748,204.480334 374.211174,204.702371 C373.75401,205.038593 373.189952,204.953434 372.811937,204.63181 C372.597854,204.450493 372.465342,204.20694 372.396791,203.94345 C372.362533,203.811605 372.344226,203.674563 372.340015,203.537031 C372.336275,203.399736 372.341776,203.258628 372.362074,203.122958 C372.382494,202.980478 372.414413,202.842339 372.454176,202.70687 C372.491957,202.570126 372.5392,202.437056 372.59472,202.307399 C372.62245,202.242591 372.652242,202.178609 372.684027,202.115545 C372.714979,202.051973 372.746594,201.988416 372.78064,201.926213 C372.848526,201.801514 372.923469,201.680166 373.004354,201.562077 C373.318936,201.084952 373.720619,200.652896 374.117109,200.267231 C374.18825,200.198359 374.26132,200.13097 374.334975,200.064231 L374.445728,199.964508 C374.55502,199.864327 374.666762,199.765965 374.780414,199.668712 C375.010621,199.475487 375.234625,199.280191 375.468263,199.086135 C375.70003,198.891336 375.925511,198.690857 376.154931,198.485782 C376.367555,198.285754 376.581966,198.080238 376.783959,197.861896 C376.448783,197.950651 376.095465,197.952424 375.76821,197.874096 C375.349919,197.774198 374.967927,197.544228 374.691857,197.201155 C374.556529,197.034206 374.447273,196.849464 374.367727,196.65687 C374.327788,196.560492 374.295047,196.461995 374.269497,196.362302 C374.243606,196.262497 374.221609,196.160401 374.208649,196.058565 C374.158243,195.651524 374.21114,195.236013 374.382582,194.862442 C374.472502,194.657494 374.612697,194.473033 374.774628,194.315216 C374.936442,194.157481 375.129299,194.028907 375.337692,193.942371 C375.751492,193.769645 376.225013,193.76105 376.641403,194.061455 C376.826406,194.194592 376.963462,194.382034 377.037246,194.596572 C377.110884,194.810775 377.119923,195.051738 377.032206,195.281474 C376.944527,195.517996 376.797234,195.71158 376.605805,195.833215 C376.416427,195.955726 376.19188,196.008692 375.955387,195.972124 C375.8178,195.950605 375.746725,195.769933 375.781684,195.648049 C375.823932,195.49992 375.964317,195.445809 376.101114,195.463952 C376.247,195.483804 376.395982,195.367464 376.477372,195.250594 C376.720517,194.906377 376.489782,194.518298 376.152582,194.385409 C375.962585,194.309485 375.765573,194.321186 375.584235,194.385224 C375.40316,194.449513 375.237798,194.566196 375.103422,194.703041 C374.969933,194.840094 374.874615,195.001094 374.807365,195.173471 C374.73849,195.345459 374.702894,195.530411 374.698983,195.71844 C374.692993,195.905743 374.714464,196.094761 374.768975,196.276822 C374.79578,196.367645 374.830934,196.456809 374.872472,196.542066 C374.91295,196.62693 374.961153,196.708432 375.017063,196.784926 C375.248726,197.101872 375.593086,197.302801 375.966271,197.369463 C376.338195,197.436005 376.744818,197.368444 377.084479,197.152219 C377.27993,197.026979 377.438496,196.860298 377.564874,196.667747 C377.686489,196.473687 377.77503,196.253548 377.836446,196.023381 C377.894738,195.792303 377.921256,195.549913 377.928362,195.313137 C377.933663,195.075835 377.910219,194.84178 377.875482,194.627562 C377.863207,194.554766 377.850475,194.482814 377.834751,194.41095 C377.818472,194.339039 377.801024,194.267641 377.782616,194.196742 C377.745792,194.054992 377.70501,193.915318 377.662045,193.777261 C377.620373,193.639433 377.570812,193.502112 377.522177,193.366239 L377.37558,192.961375 C377.301122,192.755181 377.225378,192.548586 377.155558,192.342322 L377.08798,192.136196 C376.997222,191.860977 376.908891,191.584799 376.834515,191.308055 C376.751863,191.032264 376.683576,190.757365 376.616809,190.481708 C376.582532,190.34385 376.550831,190.205933 376.521848,190.068033 L376.437203,189.653766 C376.389357,189.409084 376.344094,189.159928 376.312213,188.910257 C376.297606,188.785426 376.289155,188.660604 376.289809,188.53595 C376.288311,188.411276 376.294006,188.286845 376.312875,188.162789 C376.33131,188.037114 376.36605,187.919969 376.410145,187.810896 C376.45311,187.701829 376.508811,187.600867 376.574924,187.507804 C376.631619,187.427718 376.696972,187.353835 376.768163,187.285554 L376.810011,187.193908 C376.871604,187.04637 376.924915,186.89516 376.973717,186.740997 C376.997915,186.663905 377.020648,186.586093 377.041892,186.507709 C377.062828,186.429322 377.079273,186.350502 377.095756,186.271175 C377.128017,186.112447 377.153881,185.951871 377.173173,185.790443 C377.187999,185.638345 377.195348,185.48616 377.198037,185.333923 C377.199327,185.25782 377.199288,185.181688 377.198169,185.105571 C377.195902,185.02956 377.19125,184.953692 377.186407,184.877739 C377.176355,184.725872 377.162647,184.574079 377.146746,184.422206 L377.116149,184.195004 L377.049943,183.74069 L377.013795,183.513792 C376.998428,183.412798 376.984327,183.311617 376.972132,183.210224 L376.955352,183.057973 C376.936509,182.906198 376.92278,182.753938 376.91647,182.600933 L376.913207,182.486061 L376.912846,182.370892 C376.911905,182.294344 376.913101,182.217608 376.91676,182.140588 C376.941873,181.687605 377.05698,181.20382 377.276237,180.787479 C377.490937,180.373415 377.813571,180.024535 378.25246,179.869903 C378.384123,179.823651 378.529573,179.854726 378.600617,180.011096 Z M335.456538,162.276833 C335.66986,162.401564 335.837527,162.595848 335.938943,162.822199 C336.053697,163.078592 336.067231,163.354353 336.014429,163.620405 C335.987541,163.752703 335.945134,163.884829 335.890595,164.012707 C335.835786,164.140075 335.768042,164.261923 335.690791,164.375107 C335.60925,164.492259 335.522997,164.606729 335.428917,164.712319 C335.335075,164.81831 335.233757,164.916046 335.127485,165.008696 C335.022457,165.103312 334.911436,165.191167 334.795477,165.272964 L334.707591,165.333179 L334.618061,165.391371 C334.558728,165.430772 334.498222,165.468681 334.436773,165.505242 C334.354841,165.553991 334.271133,165.600257 334.18601,165.644242 L334.05731,165.708532 C333.929556,165.773966 333.799032,165.834442 333.666747,165.890343 L333.567193,165.931438 L333.467168,165.970833 C333.400737,165.997217 333.334994,166.023774 333.268636,166.048579 C333.136066,166.098523 333.002945,166.144312 332.870591,166.186332 L332.587436,166.276038 C332.540167,166.290583 332.492726,166.304773 332.444914,166.318385 C332.302571,166.360593 332.156122,166.396683 332.013363,166.437175 C331.822565,166.490432 331.627592,166.53825 331.432951,166.587512 L330.701683,166.778621 C330.555329,166.818837 330.410079,166.861816 330.263377,166.905464 C329.980121,166.987874 329.702375,167.084457 329.424231,167.191757 C329.765996,167.259086 330.082467,167.408862 330.343589,167.622626 C330.676221,167.894528 330.920604,168.26863 331.021362,168.699509 C331.116557,169.115639 331.089613,169.550166 330.956239,169.936315 C330.892621,170.132653 330.802439,170.317522 330.687256,170.484671 C330.575089,170.654511 330.439642,170.808221 330.279588,170.937604 C330.108239,171.081585 329.906666,171.19059 329.688887,171.259031 C329.474136,171.329805 329.246162,171.362596 329.021147,171.349731 C328.795927,171.336572 328.576462,171.279947 328.382966,171.171147 C328.188992,171.061852 328.019651,170.899222 327.89786,170.673177 C327.791953,170.474953 327.748158,170.244855 327.774826,170.019391 C327.788641,169.907129 327.817758,169.794231 327.869117,169.691115 C327.920181,169.587639 327.989554,169.490631 328.077622,169.405195 C328.256748,169.228121 328.479312,169.123181 328.701936,169.094839 C328.925007,169.066576 329.149052,169.115843 329.346626,169.252484 C329.460524,169.331306 329.446708,169.525754 329.362805,169.620761 C329.260981,169.736232 329.111879,169.724442 328.996263,169.648091 C328.873327,169.566389 328.685651,169.60347 328.563103,169.6746 C328.381576,169.77759 328.297292,169.941207 328.290169,170.11105 C328.284914,170.282816 328.356843,170.460967 328.479365,170.595144 C328.756791,170.897004 329.203706,170.896706 329.562317,170.767247 C329.740538,170.70081 329.896871,170.598096 330.03413,170.473729 C330.102096,170.41094 330.163925,170.341622 330.219365,170.266914 C330.247131,170.229593 330.273107,170.190775 330.297746,170.151104 C330.323052,170.112014 330.346715,170.07176 330.368669,170.030434 C330.456638,169.865413 330.516702,169.683138 330.547055,169.495617 C330.579579,169.310328 330.580943,169.118407 330.54622,168.93121 C330.473648,168.542806 330.252216,168.212924 329.944829,167.989706 C329.638303,167.766846 329.247279,167.654606 328.845178,167.698824 C328.382945,167.752304 327.983876,168.022349 327.677764,168.387553 C327.521552,168.567389 327.394179,168.775791 327.285477,168.986565 C327.175564,169.196355 327.09522,169.417735 327.034186,169.626498 C326.86913,170.194026 326.816304,170.775823 326.759571,171.34455 L326.714249,171.780866 L326.688768,171.997551 L326.660336,172.212636 C326.624384,172.501028 326.581036,172.785956 326.530907,173.069175 C326.507604,173.210838 326.482292,173.351376 326.454732,173.490695 L326.369507,173.907946 L326.323979,174.115312 L326.208247,174.595136 C326.196926,174.640767 326.185312,174.686258 326.173129,174.73145 L326.124518,174.912357 L326.074379,175.094074 C326.041572,175.215978 326.005732,175.337038 325.9643,175.455468 C325.878831,175.691096 325.783456,175.922355 325.640441,176.128663 C325.438497,176.4292 325.161174,176.61955 324.852129,176.722524 C324.705578,176.848076 324.565212,176.98222 324.430047,177.124422 C324.318674,177.241957 324.217912,177.367427 324.118486,177.495803 C324.02006,177.624613 323.924915,177.757239 323.842198,177.896219 C323.762658,178.026771 323.689007,178.160315 323.620036,178.296124 C323.551496,178.432111 323.493037,178.572344 323.434914,178.712996 C323.316794,178.993866 323.226546,179.28577 323.133728,179.57799 L323.001162,180.017549 C322.956717,180.16416 322.905097,180.308682 322.857648,180.453993 C322.759361,180.743758 322.638824,181.025536 322.494624,181.297436 C322.440507,181.396982 322.379494,181.495466 322.312322,181.591629 C322.24491,181.687699 322.176321,181.782584 322.099432,181.873025 C321.948273,182.054472 321.769554,182.219907 321.584463,182.360331 C321.211228,182.639869 320.769643,182.813596 320.306605,182.761786 C320.168322,182.746257 320.05075,182.655074 320.054419,182.48366 C320.057637,182.342904 320.180685,182.174215 320.318053,182.192614 C320.544646,182.222452 320.76102,182.185301 320.962824,182.100633 C321.167034,182.016286 321.356822,181.884448 321.526328,181.721496 C321.723771,181.528702 321.888832,181.314935 322.020572,181.083778 C322.149799,180.852023 322.262765,180.607124 322.352897,180.351722 C322.397226,180.223838 322.442119,180.095079 322.484298,179.965122 C322.52617,179.835161 322.565327,179.704002 322.603305,179.572841 C322.683138,179.311818 322.761814,179.051824 322.847263,178.802324 C323.113503,178.053308 323.5203,177.374518 324.037272,176.805894 C323.713646,176.773101 323.393268,176.668249 323.121037,176.501834 C322.7331,176.265114 322.443593,175.879448 322.329365,175.430062 C322.274374,175.20672 322.262276,174.967683 322.300067,174.726256 C322.340678,174.486303 322.435158,174.245845 322.583819,174.017676 C322.718736,173.818311 322.892765,173.657647 323.084736,173.549258 C323.275569,173.440051 323.49408,173.388433 323.710075,173.399192 C324.107868,173.419654 324.499182,173.637195 324.674034,174.007496 C324.722221,174.109491 324.751034,174.213972 324.762976,174.318094 C324.776753,174.423157 324.773841,174.527995 324.756525,174.629828 C324.722497,174.833856 324.627263,175.024099 324.501631,175.186476 C324.374321,175.347889 324.205273,175.47589 324.017204,175.549885 C323.830773,175.624478 323.621316,175.64333 323.408284,175.579314 C323.274508,175.539359 323.235397,175.341525 323.292411,175.217372 C323.362433,175.067726 323.514093,175.034097 323.645379,175.076539 C323.75894,175.112976 323.902061,175.051489 324.004591,174.969017 C324.064914,174.920493 324.116066,174.862852 324.155703,174.799786 C324.196564,174.737348 324.226662,174.669876 324.242646,174.600375 C324.27468,174.461589 324.251749,174.315255 324.154391,174.192045 C323.966307,173.953422 323.593198,173.87496 323.309047,174.027737 C323.225745,174.072408 323.151133,174.132431 323.086011,174.202965 C323.021591,174.27388 322.968869,174.356465 322.925247,174.444202 C322.839259,174.62041 322.791259,174.817811 322.795211,175.002863 C322.8052,175.465742 323.081433,175.835863 323.434382,176.052126 C323.607843,176.158724 323.807044,176.235708 324.01286,176.27251 C324.210876,176.308141 324.415352,176.306798 324.609703,176.259492 C324.702834,176.182603 324.797813,176.108044 324.89582,176.037563 C324.946139,176.000681 325.007936,175.993614 325.066638,176.006752 C325.096367,175.978099 325.125076,175.948239 325.152331,175.916735 C325.28571,175.761068 325.377667,175.566703 325.452511,175.364898 C325.499287,175.240889 325.541031,175.113988 325.57884,174.984954 C325.597794,174.920445 325.615533,174.85526 325.632792,174.789888 C325.651315,174.725201 325.668946,174.660048 325.685856,174.594613 L325.734448,174.397349 L325.867663,173.804904 L325.911563,173.594868 L325.95265,173.383758 C325.98112,173.243932 326.007208,173.103069 326.030871,172.96111 C326.075753,172.67563 326.122732,172.393397 326.155803,172.10388 L326.201349,171.687276 C326.215352,171.54772 326.227771,171.406961 326.240009,171.265193 C326.26511,170.982179 326.296509,170.700123 326.334701,170.413873 C326.376061,170.130031 326.432294,169.847994 326.507924,169.566248 C326.589796,169.289559 326.689485,169.01165 326.828513,168.746389 C326.886302,168.637063 326.949939,168.528923 327.01881,168.423403 C327.087608,168.317716 327.161418,168.214455 327.243438,168.118191 C327.324568,168.021154 327.41057,167.928212 327.500792,167.840742 L327.552933,167.792932 L327.470535,167.702207 C328.138538,167.157732 328.9358,166.800093 329.747133,166.531285 C330.558693,166.260309 331.388484,166.081928 332.152437,165.86624 C332.678944,165.713826 333.232335,165.541913 333.737531,165.297489 C334.247804,165.0592 334.710535,164.747898 335.083806,164.324489 C335.347971,164.01506 335.602706,163.579094 335.486899,163.168108 C335.408165,162.889666 335.150245,162.622468 334.824673,162.660085 L334.781833,162.666744 C334.430001,162.735556 334.349924,162.224242 334.708234,162.152157 C334.983464,162.095503 335.243392,162.151979 335.456538,162.276833 Z M361.458651,160.296059 L361.491155,160.302846 C361.627647,160.337578 361.764777,160.495754 361.716333,160.625736 C361.637059,160.840165 361.625039,161.060253 361.662921,161.275849 C361.700759,161.491693 361.78618,161.708337 361.907301,161.909916 C361.978294,162.029858 362.058924,162.137324 362.143687,162.242592 C362.228813,162.347257 362.320817,162.444044 362.418564,162.534448 C362.615344,162.712607 362.828929,162.876937 363.057413,163.02222 C363.172074,163.094089 363.287198,163.167117 363.40446,163.237031 C363.521723,163.306944 363.640704,163.374387 363.759977,163.440751 L364.112374,163.645109 C364.228941,163.713032 364.343911,163.781397 364.45518,163.852127 C365.124691,164.279719 365.694875,164.827845 366.132934,165.459228 C366.237186,165.151613 366.410786,164.863126 366.6336,164.634951 C366.792796,164.471977 366.981823,164.341545 367.189662,164.250288 C367.397594,164.158792 367.624607,164.106106 367.854016,164.103053 C368.083603,164.099569 368.321548,164.138089 368.545894,164.231687 C368.768897,164.326793 368.986191,164.46743 369.171887,164.667158 C369.335189,164.843978 369.455002,165.046867 369.516791,165.259287 C369.577077,165.473547 369.581917,165.694352 369.522651,165.903274 C369.414509,166.286018 369.115376,166.619169 368.714803,166.708037 C368.493267,166.757888 368.282848,166.72654 368.091099,166.648611 C367.899503,166.570402 367.733678,166.437055 367.606297,166.275104 C367.477218,166.115217 367.388956,165.923446 367.359737,165.722479 C367.331373,165.520738 367.357456,165.315203 367.468055,165.121047 C367.536229,165.000251 367.739822,165.003632 367.845835,165.08964 C367.974668,165.19293 367.974974,165.346518 367.903992,165.465483 C367.843142,165.568002 367.871379,165.720922 367.929054,165.838975 C368.062856,166.118918 368.36744,166.294229 368.652313,166.158633 C368.925868,166.029308 369.087128,165.681215 369.000403,165.371727 C368.949522,165.190615 368.833783,165.026662 368.681406,164.903497 C368.529087,164.780291 368.345343,164.692167 368.166194,164.652266 C367.714359,164.557232 367.289464,164.747209 367.001237,165.041449 C366.723216,165.324649 366.531247,165.731734 366.536622,166.139504 C366.590765,166.247893 366.642194,166.357703 366.689009,166.469523 C366.712854,166.527617 366.705703,166.589791 366.679814,166.644138 C366.700876,166.679858 366.723434,166.71466 366.748532,166.747857 C366.871353,166.911519 367.040263,167.044538 367.218601,167.16453 C367.329397,167.23736 367.444122,167.305952 367.561861,167.371121 C367.678625,167.437453 367.796347,167.502722 367.917062,167.564102 C368.15981,167.685502 368.403222,167.804296 368.646022,167.917538 L369.035931,168.095844 L369.232819,168.181813 L369.432036,168.264611 C369.696174,168.375867 369.965034,168.480406 370.238712,168.577989 C370.497331,168.675121 370.767845,168.758326 371.036143,168.847408 L371.440041,168.983289 C371.575522,169.029298 371.711265,169.07674 371.843592,169.129589 C372.108817,169.234667 372.378059,169.346363 372.629746,169.487524 C372.756658,169.557138 372.881826,169.631992 373.004501,169.713134 C373.127176,169.794276 373.243006,169.885151 373.357745,169.981637 C373.452006,170.061821 373.5443,170.14705 373.632093,170.237444 C373.718112,170.329167 373.800441,170.42553 373.877691,170.525671 C373.954532,170.626099 374.0282,170.7291 374.092281,170.837291 L374.126457,170.899366 L374.232917,170.839162 C374.617625,171.610036 374.788164,172.46848 374.869405,173.320558 C374.950737,174.17445 374.946026,175.021265 374.986715,175.815125 C375.000326,176.089872 375.019294,176.371781 375.052809,176.652097 C375.067256,176.793286 375.085479,176.934011 375.108333,177.073499 L375.12641,177.177896 L375.146274,177.28176 C375.159029,177.35125 375.172366,177.420638 375.187503,177.489419 C375.217529,177.626938 375.253131,177.762513 375.295314,177.895398 C375.336563,178.028631 375.380473,178.160742 375.434034,178.288752 C375.542856,178.544149 375.670299,178.790556 375.838699,179.018564 C375.868892,179.059543 375.901478,179.100637 375.935904,179.141182 C375.969298,179.182059 376.00479,179.222381 376.042097,179.261432 C376.116869,179.33951 376.199117,179.412435 376.287431,179.474515 C376.464677,179.598372 376.664644,179.679755 376.874896,179.66921 C377.173865,179.654348 377.512743,179.443738 377.519786,179.092506 C377.528545,178.734437 378.045678,178.769601 378.038824,179.134723 C378.018071,179.701854 377.598963,180.09123 377.112974,180.18695 C376.837576,180.24193 376.565105,180.194027 376.316464,180.083658 C376.192151,180.028423 376.073744,179.957434 375.963651,179.875072 C375.852858,179.792895 375.746905,179.700425 375.653323,179.600072 C375.264432,179.179343 375.002188,178.672078 374.833123,178.12466 C374.788,177.988945 374.749192,177.850595 374.715857,177.710592 L374.691879,177.60525 L374.669917,177.499378 C374.654668,177.42919 374.640043,177.358958 374.627016,177.288392 C374.609502,177.194347 374.594137,177.10002 374.580715,177.005708 L374.562013,176.864289 C374.543383,176.723544 374.525942,176.584498 374.513686,176.446316 C374.461574,175.852257 374.448253,175.258217 374.434201,174.651719 C374.412786,174.061386 374.389622,173.459135 374.297466,172.859342 C374.157617,173.177057 373.942199,173.452408 373.674669,173.660873 C373.505089,173.793352 373.315916,173.898383 373.114289,173.970395 C372.913129,174.042079 372.698462,174.081482 372.476015,174.083762 C372.260725,174.085609 372.049969,174.054715 371.850654,173.996152 C371.651866,173.937219 371.457257,173.855138 371.283568,173.747216 C371.110775,173.638578 370.947416,173.511625 370.808769,173.362942 C370.671695,173.2132 370.550276,173.047987 370.457768,172.864302 C370.358866,172.662434 370.295424,172.442788 370.275392,172.216167 C370.26507,172.103137 370.26651,171.987714 370.276134,171.875072 C370.285397,171.762725 370.305278,171.651278 370.335936,171.543325 C370.459151,171.112287 370.751577,170.73388 371.243065,170.598192 C371.46024,170.538427 371.695008,170.546029 371.909871,170.621206 C372.121933,170.698304 372.311758,170.844569 372.44094,171.053119 C372.570112,171.269886 372.625116,171.508897 372.604747,171.731518 C372.583557,171.955021 372.481861,172.165645 372.306025,172.32753 C372.203044,172.421891 372.019306,172.363458 371.946326,172.259757 C371.855367,172.135468 371.899242,171.992968 371.999146,171.897139 C372.105853,171.795321 372.1094,171.605275 372.070185,171.467778 C372.011715,171.266525 371.867756,171.150343 371.703679,171.10586 C371.538551,171.061808 371.351224,171.090783 371.192731,171.180993 C370.83905,171.383288 370.733133,171.825086 370.784616,172.200366 C370.811241,172.388085 370.870943,172.567776 370.965392,172.726737 C371.060603,172.885165 371.17967,173.030803 371.322716,173.152166 C371.394127,173.212905 371.471067,173.267891 371.55242,173.316465 C371.632318,173.366015 371.716003,173.409505 371.803372,173.445477 C371.977876,173.517587 372.165528,173.560788 372.356398,173.567932 C372.747057,173.585491 373.118379,173.441838 373.403673,173.191359 C373.546324,173.066094 373.667465,172.91407 373.759043,172.742547 C373.850729,172.570992 373.908766,172.382451 373.931205,172.181873 C373.956619,171.950126 373.928149,171.720423 373.852269,171.504385 C373.7776,171.287585 373.66562,171.077809 373.519591,170.889451 C373.375201,170.699944 373.208196,170.523755 373.023125,170.373809 C372.839293,170.222951 372.64909,170.089615 372.455899,169.986365 C372.196045,169.844377 371.931622,169.724544 371.658517,169.622542 C371.522923,169.570761 371.387262,169.52169 371.252105,169.473838 L370.84278,169.337306 L370.635461,169.266639 L370.429484,169.194474 C370.291206,169.14715 370.154331,169.098276 370.018951,169.04761 L369.61451,168.892448 C369.479805,168.840065 369.345771,168.786415 369.214104,168.729676 L368.820739,168.561084 C368.690313,168.503846 368.562189,168.444034 368.434503,168.383479 C368.30524,168.324596 368.177516,168.263674 368.051548,168.200648 L367.675486,168.008401 C367.454127,167.893757 367.231473,167.773645 367.016587,167.642936 C366.909993,167.57655 366.807183,167.505284 366.710261,167.427097 C366.611467,167.351096 366.518242,167.268527 366.433057,167.176437 C366.261851,166.988257 366.147471,166.782783 366.084629,166.562934 C366.0577,166.468443 366.040657,166.371433 366.031676,166.273227 C365.795728,165.817709 365.483455,165.393762 365.115261,165.024817 C364.895911,164.812213 364.661729,164.616817 364.410885,164.444933 C364.285749,164.358528 364.16074,164.271117 364.030041,164.192411 C363.899848,164.112869 363.768228,164.035027 363.63603,163.957545 L363.370445,163.805916 C362.928135,163.551959 362.490615,163.287564 362.104845,162.949264 C362.020009,162.874135 361.937692,162.792567 361.859124,162.705447 C361.779778,162.619832 361.703326,162.530311 361.632242,162.435369 C361.489685,162.246237 361.367575,162.036573 361.271774,161.824671 C361.082657,161.397249 361.011415,160.926688 361.163376,160.488602 C361.202768,160.375271 361.295514,160.286407 361.427502,160.292848 L361.458651,160.296059 Z M351.607205,158 C352.448754,158.183825 353.224788,158.584663 353.940766,159.049994 C354.577856,159.468397 355.167864,159.938188 355.744951,160.360346 L355.96082,160.516228 C356.072136,160.597471 356.185903,160.677914 356.301882,160.756282 C356.417765,160.835197 356.536542,160.909333 356.655525,160.987255 C356.893862,161.141573 357.142222,161.275983 357.393722,161.403346 C357.519956,161.465443 357.648103,161.52192 357.778266,161.571612 C357.9079,161.622855 358.038572,161.670532 358.171885,161.708453 C358.439244,161.782472 358.711315,161.835852 358.994199,161.846762 C359.198278,161.852334 359.422738,161.840959 359.630023,161.779654 C359.836692,161.719525 360.025844,161.611408 360.148532,161.440395 C360.316082,161.206675 360.365088,160.83613 360.132992,160.60718 L360.099585,160.576863 C359.825517,160.346276 360.175077,159.963677 360.455896,160.197306 C360.671595,160.378189 360.78925,160.618399 360.825456,160.861283 C360.861435,161.105461 360.814421,161.357588 360.700868,161.578138 C360.572212,161.82792 360.36508,162.011042 360.124079,162.136458 C360.003445,162.199347 359.874604,162.246765 359.741329,162.282356 C359.607466,162.319538 359.469814,162.343261 359.333039,162.354143 C358.761816,162.396803 358.202425,162.285141 357.669302,162.076464 C357.133884,161.877038 356.623191,161.581197 356.158908,161.280297 C356.075951,161.226064 355.993859,161.170294 355.912426,161.113194 L355.790746,161.026573 C355.668772,160.942319 355.547961,160.855547 355.427869,160.766437 L354.707408,160.224857 L354.526002,160.08732 L354.342556,159.95379 C354.219786,159.865029 354.095903,159.776174 353.970501,159.688078 C353.845313,159.598478 353.717511,159.516431 353.588015,159.433519 C353.468418,159.357338 353.346812,159.282651 353.22339,159.209544 C353.384107,159.518484 353.464237,159.862507 353.460301,160.199597 C353.455374,160.629742 353.31569,161.053763 353.042049,161.400096 C352.975636,161.484373 352.903659,161.561196 352.826775,161.634122 C352.749879,161.707405 352.668271,161.774514 352.583085,161.835136 C352.412519,161.957476 352.227831,162.049275 352.034828,162.121269 C351.841773,162.193562 351.641126,162.236982 351.438696,162.251477 C351.235925,162.270534 351.031494,162.259094 350.830636,162.214538 C350.611276,162.170722 350.400509,162.080446 350.211268,161.952724 C350.022156,161.828056 349.854377,161.670838 349.724195,161.486613 C349.464795,161.118232 349.351853,160.657465 349.552556,160.185916 C349.641419,159.979395 349.79389,159.80157 349.98664,159.681761 C350.179238,159.559613 350.41188,159.504686 350.655175,159.536137 C350.905214,159.566005 351.125916,159.674472 351.286842,159.831559 C351.447944,159.988522 351.549084,160.195459 351.565579,160.434297 C351.574928,160.57325 351.41444,160.683243 351.287913,160.676724 C351.134239,160.66875 351.05049,160.544604 351.038067,160.406495 C351.025291,160.259027 350.879313,160.135656 350.747382,160.084059 C350.55373,160.006154 350.373376,160.042165 350.236249,160.142465 C350.098789,160.244659 350.004444,160.412663 349.975988,160.592043 C349.913144,160.997015 350.191873,161.347132 350.516583,161.54716 C350.679585,161.645542 350.857298,161.703219 351.040035,161.733532 C351.222754,161.763072 351.411167,161.752112 351.594995,161.718821 C351.778802,161.685064 351.958609,161.619523 352.124004,161.525961 C352.28935,161.433263 352.439864,161.317553 352.564545,161.173398 C352.822549,160.876236 352.942322,160.495339 352.924912,160.116572 C352.9078,159.737857 352.751771,159.360914 352.466698,159.072754 C352.136584,158.746336 351.677162,158.600548 351.200987,158.58895 C350.963165,158.578292 350.720884,158.609276 350.488492,158.655207 C350.256103,158.699957 350.03305,158.774453 349.83187,158.857331 C349.695361,158.91449 349.562453,158.973055 349.432437,159.041428 C349.302368,159.109227 349.175192,159.180413 349.05016,159.253416 C348.799954,159.396725 348.558466,159.559296 348.318479,159.713347 L347.949328,159.948674 C347.826114,160.026903 347.702636,160.103969 347.578596,160.177019 L347.205416,160.397958 L347.01762,160.505004 L346.828686,160.608459 C346.703436,160.67716 346.578069,160.746816 346.452019,160.812191 C346.326171,160.87904 346.199347,160.939193 346.072899,161.004498 C345.819991,161.134592 345.563824,161.247056 345.307251,161.36474 C345.193552,161.415345 345.078615,161.465988 344.962491,161.51375 C344.846367,161.561513 344.729931,161.611634 344.611558,161.652938 C344.493375,161.695201 344.373516,161.730079 344.252304,161.758656 C344.131475,161.788842 344.008836,161.81008 343.883831,161.819393 C343.630104,161.835822 343.398608,161.798852 343.187425,161.710353 C343.096062,161.672288 343.008983,161.624757 342.926043,161.570047 C342.423781,161.471709 341.898267,161.453248 341.381625,161.512634 C341.230074,161.531951 341.079931,161.557835 340.930955,161.588753 C340.781419,161.618185 340.635944,161.661279 340.489707,161.703159 C340.196841,161.786235 339.912162,161.896542 339.626193,162.006313 C339.05961,162.23507 338.489805,162.467265 337.884462,162.577508 C337.773084,162.597446 337.656977,162.60869 337.541173,162.618498 C337.425142,162.627855 337.3071,162.630847 337.188531,162.627222 C337.070052,162.623665 336.950825,162.61299 336.833125,162.596266 C336.716184,162.581063 336.600298,162.558701 336.487106,162.528905 C336.260896,162.469496 336.044616,162.378761 335.854662,162.256255 C335.665232,162.134561 335.500488,161.977879 335.376542,161.780682 C335.302397,161.662906 335.299738,161.513063 335.434861,161.406656 C335.547133,161.321897 335.756397,161.314054 335.827714,161.433026 C336.065251,161.825901 336.48175,162.017275 336.949532,162.084407 C337.087236,162.103225 337.222718,162.109887 337.356377,162.106211 C337.491065,162.104566 337.624319,162.093575 337.75592,162.073612 C337.887846,162.054426 338.017053,162.02387 338.147428,161.991927 C338.277738,161.959768 338.406847,161.921027 338.535044,161.877554 L338.631039,161.844107 L338.918797,161.739076 C339.046522,161.690999 339.173468,161.640062 339.29965,161.588219 C339.553196,161.487723 339.805273,161.387121 340.053702,161.299076 C340.804766,161.040892 341.588335,160.935869 342.354693,160.985707 C342.178871,160.71242 342.061272,160.39671 342.02154,160.080007 C341.993162,159.853865 342.008839,159.624662 342.066849,159.405092 C342.124889,159.185938 342.224661,158.973998 342.365176,158.792675 C342.505324,158.610516 342.683821,158.449255 342.896444,158.33054 C343.109643,158.214958 343.355266,158.133814 343.626806,158.111233 C343.866839,158.09331 344.100438,158.127364 344.304749,158.209719 C344.509881,158.295866 344.685601,158.430138 344.812098,158.606726 C345.044009,158.930137 345.118103,159.371974 344.938041,159.740582 C344.738448,160.143753 344.32119,160.342527 343.909442,160.339531 C343.704044,160.340865 343.499154,160.290357 343.323768,160.187991 C343.148646,160.085877 343.003933,159.936379 342.921058,159.729174 C342.868961,159.600138 342.998581,159.443961 343.13153,159.413141 C343.292563,159.376698 343.41287,159.472164 343.461662,159.601901 C343.503969,159.713388 343.641166,159.786667 343.769384,159.815058 C344.071245,159.88315 344.398324,159.755571 344.469669,159.447745 C344.538639,159.151365 344.367373,158.810821 344.071054,158.68474 C343.984293,158.647642 343.89099,158.627007 343.795331,158.620339 C343.699609,158.613146 343.60176,158.621244 343.50634,158.643229 C343.315108,158.685641 343.131701,158.774533 342.98896,158.889817 C342.633568,159.185759 342.517406,159.63561 342.568141,160.044866 C342.616533,160.438863 342.8154,160.842684 343.137477,161.092637 C343.255981,161.117618 343.3738,161.145612 343.490411,161.178427 C343.550642,161.195996 343.59473,161.240251 343.621138,161.294276 C343.662179,161.299879 343.703411,161.30382 343.745064,161.30537 C343.949705,161.312121 344.158441,161.260935 344.363346,161.196539 C344.489246,161.155331 344.614319,161.108326 344.738577,161.056915 L344.986909,160.953157 C345.028203,160.935479 345.069404,160.917379 345.110444,160.898513 C345.2337,160.843175 345.355978,160.783195 345.477664,160.724241 C345.599626,160.666928 345.720683,160.60776 345.840531,160.548173 C346.352124,160.293064 346.85501,160.01921 347.34882,159.712676 C347.585686,159.568192 347.819809,159.414801 348.056502,159.255853 C348.29341,159.102387 348.533186,158.947785 348.780672,158.799526 C349.028235,158.658113 349.283607,158.522188 349.550889,158.40809 C349.684486,158.353191 349.821072,158.302877 349.961075,158.258509 C350.100992,158.214639 350.244392,158.174004 350.391296,158.147857 C350.512738,158.12497 350.63684,158.107381 350.762242,158.095518 C350.887668,158.083814 351.014423,158.076505 351.140695,158.080976 C351.267087,158.084184 351.393246,158.093669 351.517855,158.109917 L351.587818,158.12001 L351.607205,158 Z" id="4"></path>
        </g>
    </g>
</svg>
