<?xml version="1.0" encoding="UTF-8"?>
<svg width="60px" height="40px" viewBox="0 0 60 40" version="1.1" xmlns="http://www.w3.org/2000/svg" xmlns:xlink="http://www.w3.org/1999/xlink">
    <title>11</title>
    <g id="页面-1" stroke="none" stroke-width="1" fill="none" fill-rule="evenodd">
        <g id="1-边框-花环" transform="translate(-80.000000, -141.000000)" fill="#545458">
            <g id="编组-2" transform="translate(79.625000, 49.115526)">
                <path d="M4.55492478,114.811693 C4.32040805,113.695014 4.19824014,112.5489 4.19824014,111.381496 C4.19824014,110.316281 4.29871469,109.263656 4.49521093,108.22945 C3.36441557,107.362135 0.367191329,104.843497 2.71783903,104.153811 C4.15999131,103.730613 4.65277329,105.444694 4.81775706,106.849521 C5.29307017,105.142198 6.03886534,103.495966 7.0426974,101.940908 C6.2666457,100.920957 4.06225697,97.7418831 6.60003852,97.5721226 C8.29018024,97.4591033 8.01604458,99.6213737 7.65684807,101.045732 C8.10567244,100.42806 8.59594256,99.8262154 9.12857183,99.2427912 C10.1594635,98.1136158 11.3382126,97.1422603 12.632165,96.2991044 C12.4851068,95.2702673 12.0705351,91.3117204 14.5426656,92.0758275 C16.2338349,92.5985305 14.5264527,94.6754578 13.4323077,95.8025042 C14.3964067,95.2324091 15.4167942,94.7256269 16.4829662,94.2730867 C17.3824506,93.5800432 20.3184545,91.4687415 21.4330139,92.5164626 C21.4426908,92.5255592 21.5050498,92.5948669 21.5659954,92.6834394 C21.6341797,92.782532 21.7026637,92.9057375 21.7351589,92.9957181 C22.3569594,94.718407 17.7414546,94.5962738 16.5879383,94.533331 C14.7503958,95.4544249 12.9680696,96.5263465 11.5142714,97.7817777 C12.9571088,96.8584623 14.9924034,95.8957151 15.527202,97.3772776 C16.137014,99.0670142 11.5921392,98.9487187 10.3291285,98.8842024 C8.64743576,100.570514 7.31112429,102.477774 6.38481747,104.53443 C7.52154996,103.327039 9.5394899,101.576488 10.5525702,103.076656 C11.5608551,104.569881 7.41468158,105.250311 6.00872297,105.435345 C5.46890063,106.839802 5.11655466,108.30637 4.9716658,109.813572 C5.35164227,108.625342 6.07551571,107.712578 7.452017,108.301556 C9.56963226,109.207562 6.18078563,111.960107 4.96538614,112.871296 C5.11050336,114.443571 5.48294423,115.967897 6.05736179,117.421413 C5.73024863,115.704 5.53398074,112.907766 7.88634107,113.430377 C10.3335813,113.973999 7.29742321,117.626995 6.52867875,118.501067 C7.30689979,120.13684 8.34418531,121.67107 9.60228649,123.068678 C8.89622444,121.452807 7.94228712,118.510138 10.4632849,118.697763 C12.9124661,118.880112 10.9202157,122.669177 10.278092,123.78493 C11.9483672,125.475037 13.9524918,126.941234 16.2117991,128.115673 C15.2407354,127.09313 12.1196306,123.550376 15.042869,123.116348 C17.632943,122.731842 16.6936202,127.440056 16.5093407,128.267661 C18.6715986,129.356479 21.0596959,130.180012 23.6064974,130.680777 C22.5077854,129.852061 18.1278943,126.354663 21.2221679,125.468373 C23.8899954,124.704266 23.8730974,129.840306 23.8506048,130.727892 C25.0290114,130.949117 26.3544762,131.102401 27.5927108,131.179877 C27.7836125,131.191817 27.9280446,131.324275 27.915942,131.479225 C27.9037252,131.636212 27.7354304,131.756359 27.5420169,131.744325 C24.6619368,131.564291 21.8081171,130.990771 19.2866627,130.09254 C18.0446603,130.744923 13.2636703,133.086951 12.9744635,130.645974 C12.7802507,129.005943 16.1358723,129.323064 18.1377134,129.654069 C16.0675952,128.812579 14.1617758,127.747087 12.4674095,126.497673 C10.8539938,126.821921 5.73767005,127.679887 6.40365645,125.362296 C6.83227173,123.870644 9.50272535,124.774984 11.296196,125.577504 C10.1020332,124.576158 9.03312101,123.477066 8.10955441,122.297074 C6.34782457,122.316512 1.35012926,122.191737 2.61108482,120.094076 C3.43155084,118.72905 5.75342628,120.058069 7.28223786,121.15892 C6.25648407,119.640054 5.46205009,118.006503 4.93672806,116.290109 C3.68467819,115.801376 -1.42273989,113.662247 1.03489036,112.179018 C2.52020103,111.282639 3.81655104,113.271353 4.55492478,114.811693 Z M55.8200752,114.811693 C56.0545919,113.695014 56.1767599,112.5489 56.1767599,111.381496 C56.1767599,110.316281 56.0762853,109.263656 55.8797891,108.22945 C57.0105844,107.362135 60.0078087,104.843497 57.657161,104.153811 C56.2150087,103.730613 55.7222267,105.444694 55.5572429,106.849521 C55.0819298,105.142198 54.3361347,103.495966 53.3323026,101.940908 C54.1083543,100.920957 56.312743,97.7418831 53.7749615,97.5721226 C52.0848198,97.4591033 52.3589554,99.6213737 52.7181519,101.045732 C52.2693276,100.42806 51.7790574,99.8262154 51.2464282,99.2427912 C50.2155365,98.1136158 49.0367874,97.1422603 47.742835,96.2991044 C47.8898932,95.2702673 48.3044649,91.3117204 45.8323344,92.0758275 C44.1411651,92.5985305 45.8485473,94.6754578 46.9426923,95.8025042 C45.9785933,95.2324091 44.9582058,94.7256269 43.8920338,94.2730867 C42.9925494,93.5800432 40.0565455,91.4687415 38.9419861,92.5164626 C38.9323092,92.5255592 38.8699502,92.5948669 38.8090046,92.6834394 C38.7408203,92.782532 38.6723363,92.9057375 38.6398411,92.9957181 C38.0180406,94.718407 42.6335454,94.5962738 43.7870617,94.533331 C45.6246042,95.4544249 47.4069304,96.5263465 48.8607286,97.7817777 C47.4178912,96.8584623 45.3825966,95.8957151 44.847798,97.3772776 C44.237986,99.0670142 48.7828608,98.9487187 50.0458715,98.8842024 C51.7275642,100.570514 53.0638757,102.477774 53.9901825,104.53443 C52.85345,103.327039 50.8355101,101.576488 49.8224298,103.076656 C48.8141449,104.569881 52.9603184,105.250311 54.366277,105.435345 C54.9060994,106.839802 55.2584453,108.30637 55.4033342,109.813572 C55.0233577,108.625342 54.2994843,107.712578 52.922983,108.301556 C50.8053677,109.207562 54.1942144,111.960107 55.4096139,112.871296 C55.2644966,114.443571 54.8920558,115.967897 54.3176382,117.421413 C54.6447514,115.704 54.8410193,112.907766 52.4886589,113.430377 C50.0414187,113.973999 53.0775768,117.626995 53.8463212,118.501067 C53.0681002,120.13684 52.0308147,121.67107 50.7727135,123.068678 C51.4787756,121.452807 52.4327129,118.510138 49.9117151,118.697763 C47.4625339,118.880112 49.4547843,122.669177 50.096908,123.78493 C48.4266328,125.475037 46.4225082,126.941234 44.1632009,128.115673 C45.1342646,127.09313 48.2553694,123.550376 45.332131,123.116348 C42.742057,122.731842 43.6813798,127.440056 43.8656593,128.267661 C41.7034014,129.356479 39.3153041,130.180012 36.7685026,130.680777 C37.8672146,129.852061 42.2471057,126.354663 39.1528321,125.468373 C36.4850046,124.704266 36.5019026,129.840306 36.5243952,130.727892 C35.3459886,130.949117 34.0205238,131.102401 32.7822892,131.179877 C32.5913875,131.191817 32.4469554,131.324275 32.459058,131.479225 C32.4712748,131.636212 32.6395696,131.756359 32.8329831,131.744325 C35.7130632,131.564291 38.5668829,130.990771 41.0883373,130.09254 C42.3303397,130.744923 47.1113297,133.086951 47.4005365,130.645974 C47.5947493,129.005943 44.2391277,129.323064 42.2372866,129.654069 C44.3074048,128.812579 46.2132242,127.747087 47.9075905,126.497673 C49.5210062,126.821921 54.63733,127.679887 53.9713436,125.362296 C53.5427283,123.870644 50.8722747,124.774984 49.078804,125.577504 C50.2729668,124.576158 51.341879,123.477066 52.2654456,122.297074 C54.0271754,122.316512 59.0248707,122.191737 57.7639152,120.094076 C56.9434492,118.72905 54.6215737,120.058069 53.0927621,121.15892 C54.1185159,119.640054 54.9129499,118.006503 55.4382719,116.290109 C56.6903218,115.801376 61.7977399,113.662247 59.3401096,112.179018 C57.854799,111.282639 56.558449,113.271353 55.8200752,114.811693 Z" id="11"></path>
            </g>
        </g>
    </g>
</svg>
