<?xml version="1.0" encoding="UTF-8"?>
<svg width="60px" height="60px" viewBox="0 0 60 60" version="1.1" xmlns="http://www.w3.org/2000/svg" xmlns:xlink="http://www.w3.org/1999/xlink">
    <title>41</title>
    <g id="页面-1" stroke="none" stroke-width="1" fill="none" fill-rule="evenodd">
        <g id="花环" transform="translate(-80.000000, -475.000000)" fill="#545458">
            <path d="M92.8826244,524.647864 C93.0491238,524.657955 93.2151187,524.673092 93.3760681,524.699832 C93.7070488,524.755837 94.0249113,524.837573 94.3155285,524.960177 C94.6116957,525.075213 94.8816265,525.229603 95.1364211,525.406194 C95.262557,525.496002 95.3826384,525.594388 95.5001971,525.696306 C95.6167467,525.799233 95.7262327,525.912251 95.8316823,526.030314 C96.0440952,526.262909 96.2302718,526.531326 96.3977803,526.817907 C96.5814343,527.14586 96.7368337,527.492482 96.849347,527.870385 C96.8840711,527.979475 96.9150975,528.091295 96.9424912,528.205155 C96.9583286,528.254239 96.9726694,528.304115 96.9845647,528.355251 C97.0045714,528.440567 97.0179749,528.528818 97.0244408,528.618284 C97.0473979,528.759169 97.0648972,528.902034 97.0774007,529.045467 C97.0885007,529.170738 97.0214195,529.257697 96.9331801,529.297045 C96.9075897,529.368842 96.8750375,529.439453 96.8362288,529.507125 C96.7262383,529.69986 96.5688207,529.86636 96.3841577,529.979378 C96.1994947,530.092395 95.9865772,530.15395 95.7655871,530.143354 C95.5430833,530.134777 95.3473204,530.030337 95.2090754,529.876955 C95.1399529,529.79976 95.0854622,529.709447 95.0506487,529.610556 C95.0168443,529.510152 95.0022125,529.401171 95.0102852,529.287648 C95.0279442,529.056567 95.1328893,528.874932 95.3104887,528.730127 C95.4174519,528.642337 95.5809241,528.699855 95.6439921,528.800764 C95.7176554,528.922863 95.6651829,529.061108 95.5592287,529.149908 C95.4860699,529.211462 95.4956562,529.342644 95.5203789,529.420848 C95.5562015,529.535884 95.6379375,529.608033 95.753478,529.632756 C96.0148317,529.685733 96.2988898,529.493502 96.4270439,529.262926 C96.5214488,529.093858 96.5599265,528.894912 96.5497444,528.702606 L96.5212568,528.547378 L96.489,528.398216 L96.4795797,528.366575 C96.4001383,528.15712 96.2551386,527.987223 96.0471225,527.916298 C95.8115006,527.830022 95.5461106,527.87644 95.3034251,527.999044 C95.0617486,528.120639 94.8447948,528.316906 94.7100817,528.541428 C94.5370232,528.831541 94.476478,529.165044 94.5067506,529.491484 C94.5213823,529.655461 94.5572049,529.818933 94.6096775,529.976855 C94.6359138,530.055564 94.6661864,530.133263 94.7004954,530.207936 C94.7348043,530.282104 94.7731496,530.353749 94.8145222,530.422367 C94.9260264,530.60703 95.0561987,530.782611 95.205039,530.939524 C95.354384,531.096437 95.5178561,531.24326 95.6899055,531.380496 C95.8644777,531.5142 96.047627,531.639326 96.2327946,531.758903 C96.4194757,531.876462 96.6106978,531.984939 96.7978835,532.09392 C97.4951629,532.489483 98.2847738,532.834086 99.0955755,532.799777 C99.4669197,532.779595 99.8423002,532.677677 100.156126,532.474346 L100.098847,532.402879 L100.046,532.335216 L100.059,532.350216 L100.020946,532.3031 C99.9361453,532.194381 99.8557547,532.081475 99.7787277,531.966775 C99.7572485,531.934629 99.7473018,531.897663 99.7465928,531.859762 L99.7352562,531.839041 C99.6748926,531.708106 99.6306945,531.571213 99.609201,531.431959 C99.5738829,531.19886 99.6021374,530.957183 99.7166688,530.726607 C99.9199999,530.323981 100.362485,530.140327 100.738874,530.292195 C100.934133,530.365354 101.085496,530.499058 101.189936,530.672116 C101.294377,530.845679 101.354922,531.051028 101.359968,531.277064 C101.372533,531.749008 101.18533,532.172888 100.881651,532.509303 C100.889633,532.517245 100.897995,532.525316 100.906383,532.533378 C101.036555,532.658 101.172782,532.778586 101.315063,532.892613 C101.454232,532.99993 101.598637,533.102488 101.747352,533.199362 C102.203039,533.485382 102.708049,533.701159 103.233338,533.826523 C103.437679,533.876473 103.645551,533.909269 103.853423,533.936009 C103.941238,533.947499 104.000722,533.992512 104.034207,534.051503 L103.796409,534.014214 C104.510843,534.146404 105.24445,534.15044 105.948288,534.000086 C106.318119,533.926928 106.688454,533.804323 107.056266,533.717542 C107.425592,533.620165 107.792395,533.557602 108.169289,533.566179 C108.532561,533.582324 108.895328,533.659519 109.212686,533.832073 C109.530044,533.997564 109.802497,534.249331 109.980097,534.603016 C110.042156,534.727134 109.94932,534.887579 109.829238,534.930465 C109.686452,534.981928 109.561325,534.901201 109.50078,534.776579 C109.437208,534.646407 109.348408,534.53793 109.242958,534.44913 C109.137509,534.357303 109.015409,534.284649 108.885237,534.229149 C108.755569,534.173649 108.61682,534.135809 108.478575,534.112095 C108.339825,534.085354 108.201076,534.074254 108.069894,534.076777 C107.977058,534.078795 107.884727,534.085354 107.792395,534.096454 C107.700568,534.10705 107.609246,534.119159 107.517923,534.135809 C107.335783,534.168099 107.154147,534.214013 106.972512,534.263458 C106.609745,534.354781 106.243951,534.474357 105.874625,534.534903 C104.413971,534.796761 102.826172,534.477889 101.567335,533.687269 L101.432528,533.601382 C101.255003,533.488516 101.084105,533.3659 100.921015,533.234189 C100.772174,533.112594 100.628379,532.986963 100.493666,532.85124 C100.258549,533.014713 99.9931587,533.137821 99.7247415,533.214512 C99.4850832,533.281112 99.2413886,533.308862 98.9951713,533.312393 C98.933617,533.312898 98.8720626,533.311889 98.8105083,533.308862 C98.7494585,533.304825 98.6884087,533.299275 98.6268544,533.292212 C98.5047548,533.278084 98.3821507,533.258407 98.2600511,533.23318 C97.7731665,533.130758 97.2988954,532.935499 96.8599424,532.705932 C96.8009108,532.67465 96.7408701,532.643873 96.6808294,532.612591 C96.6217977,532.579796 96.5622616,532.547001 96.5022209,532.514205 C96.3831486,532.447605 96.2635717,532.379492 96.1444994,532.30936 C95.9063548,532.169097 95.6752738,532.012689 95.4532745,531.849217 C95.2343026,531.680699 95.0269351,531.499568 94.840254,531.304309 C94.6566001,531.104006 94.4921188,530.891593 94.3594238,530.660512 C94.1485245,530.283618 94.009775,529.849205 94.0011978,529.411261 C93.9900978,528.97584 94.1021065,528.548996 94.3700192,528.187743 C94.603623,527.871899 94.9426763,527.617609 95.2988842,527.4834 C95.5804274,527.379021 95.8771861,527.342478 96.1514717,527.415731 L96.0965678,527.30126 C95.8210869,526.761903 95.4563018,526.288136 95.0032216,525.93546 C94.7776905,525.753824 94.5304641,525.610029 94.2731468,525.489443 C94.0117932,525.373398 93.7408532,525.281571 93.4537679,525.223549 C93.3094684,525.195294 93.1651689,525.170067 93.016833,525.154426 C92.8690017,525.138785 92.7176386,525.130713 92.5642573,525.130208 C92.2600175,525.126172 91.9466959,525.151399 91.6283288,525.208412 C90.9340767,525.327485 90.23932,525.595397 89.6399221,526.012151 C89.3699912,526.200345 89.0818967,525.780565 89.3573776,525.596911 C89.6601038,525.392571 89.9845254,525.22254 90.3185333,525.085808 C90.6535504,524.948068 90.9946219,524.846655 91.3422525,524.770469 C91.5158155,524.733132 91.688874,524.703869 91.861428,524.683182 C91.9477049,524.672587 92.0329728,524.664514 92.1187453,524.657451 C92.2055268,524.649883 92.2912992,524.644837 92.3770716,524.641305 C92.5481119,524.635251 92.7166295,524.636764 92.8826244,524.647864 Z M130.955996,525.930919 C131.088187,525.97431 131.135614,526.153423 131.081123,526.269468 C131.017046,526.406704 130.870728,526.437985 130.740052,526.393081 C130.602816,526.345654 130.464571,526.33304 130.325317,526.343131 C130.186063,526.352718 130.048827,526.388036 129.917645,526.441013 C129.657301,526.548985 129.414111,526.720025 129.233484,526.909734 C129.105835,527.045961 128.988276,527.187737 128.883331,527.341119 C128.778386,527.493491 128.683027,527.655449 128.587164,527.816399 C128.492309,527.977853 128.400987,528.144352 128.306637,528.308329 C128.209765,528.470287 128.110874,528.631237 128.003911,528.785627 C127.576563,529.390071 127.03216,529.924382 126.406526,530.340126 C125.781396,530.75587 125.083612,531.064147 124.359592,531.230646 L124.269793,531.250427 C124.043069,531.303929 123.813421,531.343259 123.582595,531.367882 C123.392382,531.389073 123.199142,531.396641 123.008929,531.39765 C122.983701,531.539427 122.947374,531.680194 122.898938,531.814908 C122.850502,531.948612 122.790966,532.07727 122.722852,532.197856 C122.600753,532.41481 122.450399,532.612087 122.276836,532.784136 C122.103777,532.957195 121.911546,533.116126 121.701656,533.248821 C121.492775,533.382525 121.272289,533.505634 121.041713,533.60402 C120.811136,533.704424 120.576523,533.796251 120.338883,533.866887 C120.08308,533.945596 119.821726,534.028341 119.5523,534.092922 C119.418596,534.126222 119.283378,534.158009 119.147656,534.186768 C119.011933,534.214517 118.874697,534.236213 118.737966,534.255385 C118.60073,534.274558 118.464503,534.290199 118.327772,534.298776 C118.190536,534.305879 118.054309,534.307858 117.918587,534.303822 C117.783369,534.299281 117.649665,534.290704 117.516466,534.271531 C117.383266,534.251349 117.252085,534.224608 117.122922,534.18929 C116.709196,534.080309 116.300516,533.85831 115.986689,533.562142 C115.67135,533.263453 115.447837,532.876972 115.381741,532.433478 C115.352982,532.239229 115.353487,532.037916 115.381237,531.841648 C115.408482,531.645885 115.462973,531.456682 115.541177,531.280596 C115.665568,531.002617 115.851153,530.77315 116.096424,530.630149 C116.057485,530.615323 116.017062,530.601715 115.976599,530.588866 C115.398896,530.394617 114.809084,530.329531 114.237941,530.392599 C113.95136,530.429935 113.673357,530.493003 113.406957,530.595426 C113.273758,530.648403 113.142577,530.700875 113.014422,530.76697 C112.886268,530.831552 112.761646,530.906729 112.639546,530.986447 C112.394338,531.141846 112.162248,531.335087 111.943781,531.547499 C111.725818,531.758399 111.521982,532.002093 111.336815,532.264456 C111.132979,532.552046 110.956389,532.865872 110.813603,533.198366 C110.671322,533.531365 110.562845,533.876978 110.498768,534.238736 C110.440745,534.562148 109.940742,534.469817 110.005324,534.145395 C110.075455,533.78616 110.184437,533.436511 110.323691,533.103512 C110.393318,532.937013 110.470513,532.77455 110.554772,532.617132 C110.638526,532.459714 110.72884,532.307342 110.825207,532.157493 C111.017439,531.857794 111.233383,531.586349 111.465978,531.335087 C111.582527,531.209455 111.703113,531.090887 111.82824,530.980392 C111.890804,530.925397 111.954376,530.872925 112.018453,530.820957 C112.083035,530.768484 112.148121,530.71803 112.214216,530.669593 C112.350947,530.570198 112.490202,530.481903 112.631978,530.403194 C112.773251,530.320954 112.917046,530.249309 113.062859,530.188763 C113.208672,530.129227 113.355999,530.074232 113.505343,530.029832 C113.654184,529.984423 113.806556,529.95516 113.958424,529.926401 C114.569426,529.823978 115.203133,529.854755 115.84794,530.034373 C116.207175,530.128218 116.565401,530.276049 116.910004,530.455162 C117.013198,530.509475 117.115851,530.569021 117.217099,530.631641 C117.261805,530.654538 117.305872,530.67943 117.348957,530.706425 L117.451666,530.774672 L117.546,530.848216 L117.519,530.830216 L117.583327,530.875615 C117.691935,530.954212 117.798674,531.037742 117.902946,531.126205 C117.999127,531.207741 118.013025,531.315981 117.978741,531.405373 C118.010968,531.474091 118.038107,531.547236 118.05885,531.622676 C118.117377,531.837612 118.123432,532.064657 118.072978,532.276061 C118.022523,532.486455 117.917074,532.68575 117.752088,532.830554 C117.587607,532.976872 117.377212,533.049526 117.170349,533.037417 C116.962981,533.023794 116.761164,532.931463 116.612828,532.759918 C116.46197,532.585346 116.407983,532.383024 116.430688,532.153961 C116.444815,532.016725 116.59971,531.937007 116.71626,531.966775 C116.855009,532.002598 116.916059,532.137816 116.90395,532.274547 C116.895373,532.369906 116.995272,532.456183 117.067927,532.495033 C117.17489,532.551541 117.283367,532.54246 117.382257,532.476869 C117.604256,532.329038 117.670352,531.996543 117.597697,531.741749 C117.545645,531.559566 117.435489,531.394054 117.296111,531.26538 L117.163519,531.171547 L117.03,531.084216 L116.983014,531.061587 C116.903333,531.0281 116.821036,531.006124 116.738964,530.998051 C116.615351,530.983924 116.491233,530.999565 116.375693,531.055065 C116.26217,531.109556 116.167316,531.192805 116.089616,531.293714 C116.011412,531.393109 115.951371,531.511677 115.908485,531.639831 C115.823722,531.896139 115.80909,532.190793 115.873167,532.444074 C115.955408,532.772532 116.147639,533.046499 116.40092,533.260425 C116.463988,533.313907 116.531092,533.363352 116.600719,533.409266 C116.670346,533.453666 116.742496,533.494029 116.816664,533.530356 C116.965,533.603515 117.121408,533.660528 117.277312,533.701397 C118.118891,533.914818 119.030601,533.709469 119.861585,533.478388 C120.054825,533.422888 120.250588,533.366379 120.443324,533.297257 C120.63505,533.226621 120.824759,533.148921 121.008413,533.060626 C121.372693,532.876972 121.712756,532.65245 121.985209,532.350228 C122.235968,532.080298 122.424162,531.732162 122.504385,531.370909 L122.30303,531.347003 C122.161148,531.330224 122.019978,531.308254 121.87976,531.2811 C121.841974,531.273401 121.808903,531.254458 121.781628,531.228498 C121.637245,531.178211 121.49986,531.107823 121.379757,531.019747 C121.189544,530.879988 121.03919,530.691289 120.957454,530.446585 C120.8848,530.23165 120.896909,530.013182 120.971581,529.830537 C121.009422,529.73871 121.062904,529.65647 121.130512,529.586338 C121.197112,529.514693 121.277839,529.456166 121.37118,529.415298 C121.561897,529.331039 121.764724,529.320948 121.959478,529.365348 C122.154736,529.411261 122.344444,529.518225 122.508421,529.673624 C122.85175,530.000365 123.019292,530.431776 123.041483,530.882536 C123.407346,530.87858 123.774744,530.836128 124.137332,530.759131 C124.662859,530.637758 125.172905,530.431776 125.634574,530.149409 C125.813182,530.038914 125.98725,529.92186 126.150722,529.789669 C126.203788,529.747489 126.259459,529.731407 126.312033,529.734258 L126.363,529.742216 L126.386722,529.726286 C126.459251,529.671858 126.530644,529.616106 126.600775,529.559093 C126.738516,529.441534 126.871715,529.31893 126.999365,529.191785 C127.127519,529.066154 127.246087,528.928413 127.359609,528.789664 C127.472627,528.6494 127.581104,528.507624 127.677976,528.354747 C127.780903,528.195816 127.877775,528.031334 127.974648,527.867358 C128.068997,527.700354 128.162338,527.532341 128.260724,527.370382 C128.360119,527.209937 128.459514,527.047979 128.571523,526.898129 C128.627023,526.823457 128.686054,526.750803 128.748113,526.681176 C128.810172,526.611548 128.87324,526.542426 128.942362,526.478349 C129.074048,526.352718 129.222384,526.244745 129.376775,526.150396 C129.53066,526.055541 129.695646,525.97986 129.8682,525.928396 C130.210785,525.822442 130.580616,525.805792 130.955996,525.930919 Z M100.199013,530.851229 C99.9654088,531.120151 100.109204,531.513695 100.265108,531.767985 C100.30718,531.836089 100.352404,531.90296 100.400137,531.968526 C100.444322,532.025828 100.490314,532.082745 100.537561,532.138825 L100.618382,532.044475 C100.669584,531.974512 100.715329,531.899839 100.75502,531.820458 C100.885192,531.558599 100.950278,531.179687 100.778229,530.934983 C100.715665,530.845175 100.612234,530.777566 100.504766,530.753348 C100.397803,530.72913 100.28428,530.752339 100.199013,530.851229 Z M121.386821,530.195322 C121.399939,530.372417 121.501352,530.50713 121.635056,530.602994 C121.76876,530.698857 121.936773,530.758393 122.081073,530.793711 C122.162484,530.813173 122.245683,530.829955 122.329617,530.843489 C122.399957,530.852589 122.470855,530.860026 122.541925,530.865964 C122.532135,530.740734 122.506908,530.611571 122.464526,530.485435 C122.370681,530.206422 122.1507,529.897137 121.855542,529.84416 C121.639092,529.804806 121.367143,529.934473 121.386821,530.195322 Z M80.8013256,504.951992 C81.1600562,505.021619 81.5097049,505.130601 81.8427038,505.270359 C82.0092032,505.339986 82.1716663,505.417181 82.3290839,505.500936 C82.4865015,505.58469 82.6388737,505.675508 82.7887232,505.771371 C83.0884222,505.964107 83.3598667,506.179547 83.6111294,506.412646 C83.7367608,506.528691 83.8553286,506.649782 83.9658237,506.774404 C84.0213235,506.836967 84.0732915,506.90054 84.1252595,506.965121 C84.177732,507.029199 84.2281864,507.094285 84.2766226,507.160884 C84.3760177,507.297111 84.4643128,507.43687 84.5430216,507.578142 C84.6252623,507.719414 84.6969075,507.863209 84.7579573,508.009022 C84.8169889,508.15534 84.8719841,508.302162 84.916384,508.451507 C84.9617929,508.600852 84.9910565,508.75272 85.02032,508.905092 C85.1222378,509.51559 85.0914606,510.149801 84.9123476,510.794104 C84.817998,511.153843 84.6701667,511.512069 84.4910536,511.856673 C84.436741,511.959867 84.3771953,512.062519 84.3145748,512.163767 C84.2919517,512.208277 84.2671575,512.252407 84.2402954,512.295626 C84.1971971,512.365932 84.1481593,512.433962 84.0938403,512.498499 L84.157,512.404216 L84.0706193,512.529865 C83.9920599,512.638323 83.908642,512.744838 83.8205151,512.84911 C83.7389791,512.945687 83.6304293,512.95967 83.5409032,512.92516 C83.471903,512.957777 83.3988823,512.984829 83.3235395,513.005519 C83.1091085,513.064046 82.8820638,513.069596 82.6701554,513.019646 C82.4597607,512.969191 82.260466,512.863237 82.1156619,512.698251 C81.9698488,512.53377 81.89669,512.323376 81.9093036,512.116513 C81.9224217,511.909145 82.0147532,511.707328 82.186298,511.559496 C82.3608702,511.408638 82.5636967,511.354652 82.792255,511.377356 C82.9294909,511.390979 83.0097134,511.545874 82.9794407,511.662928 C82.9436181,511.801677 82.808905,511.862223 82.6716691,511.850114 C82.5768149,511.842041 82.4900333,511.941436 82.451688,512.014595 C82.3946746,512.121558 82.4037564,512.22953 82.4693471,512.328421 C82.6171784,512.550925 82.9501772,512.616515 83.2044672,512.543861 C83.3874525,512.492033 83.5531914,512.381567 83.682057,512.24156 C83.7456143,512.154999 83.8054162,512.066732 83.8616228,511.97718 L83.853,511.992216 L83.8850032,511.92929 C83.9183405,511.849721 83.9400919,511.767537 83.9481646,511.685128 C83.9622919,511.561515 83.946651,511.437397 83.8911512,511.321856 C83.837165,511.208334 83.7534108,511.11348 83.652502,511.03578 C83.5531069,510.95808 83.4345391,510.897535 83.306385,510.855153 C83.0500769,510.769885 82.7554233,510.755758 82.5021424,510.819331 C82.174189,510.901571 81.8997172,511.094307 81.6857907,511.347083 C81.6328136,511.410656 81.5828638,511.47776 81.5369503,511.547387 C81.4925505,511.61651 81.452187,511.689164 81.4158598,511.763332 C81.342701,511.911668 81.2856875,512.067572 81.245324,512.223476 C81.0313975,513.065559 81.2367468,513.976765 81.4678278,514.808253 C81.5233276,515.000989 81.5803411,515.197256 81.648959,515.389488 C81.7195951,515.581214 81.7972949,515.771427 81.8860945,515.954577 C82.0692439,516.318857 82.2942704,516.65892 82.5959875,516.931373 C82.8664229,517.182636 83.2145581,517.370326 83.5753068,517.451053 L83.6023509,517.22337 C83.6186992,517.090194 83.6396236,516.957646 83.6651156,516.825923 C83.6729,516.787866 83.6921756,516.754587 83.7185767,516.727215 L83.7251079,516.704341 C83.7757721,516.568647 83.8432195,516.439746 83.9264693,516.325921 C84.0662279,516.135708 84.2549272,515.985858 84.4996309,515.903618 C84.715071,515.831468 84.9330339,515.843072 85.1156787,515.918249 C85.2075057,515.955586 85.2897463,516.009572 85.3598779,516.076676 C85.4315231,516.14378 85.4900502,516.224507 85.5314228,516.317343 C85.615177,516.508565 85.6252679,516.711392 85.580868,516.905641 C85.5349546,517.1009 85.4279913,517.291113 85.2725918,517.454585 C84.9458513,517.797914 84.5144396,517.965455 84.0636801,517.988145 C84.0679654,518.354298 84.1104187,518.721479 84.1870987,519.083986 C84.308458,519.609464 84.5144398,520.119396 84.7968071,520.580738 C84.9073022,520.759851 85.0243563,520.933918 85.1565468,521.096886 C85.2127873,521.16764 85.2226304,521.243026 85.2030625,521.309539 L85.165,521.257216 L85.2199301,521.332949 C85.2743577,521.405414 85.3301098,521.476807 85.3871233,521.546939 C85.5046819,521.684679 85.6272861,521.817879 85.7544311,521.945528 C85.880567,522.074187 86.0178029,522.19225 86.1570569,522.306277 C86.2968155,522.41879 86.4390969,522.527772 86.5914691,522.62414 C86.7504003,522.727067 86.9148816,522.824443 87.0793628,522.920811 C87.2463668,523.015161 87.4138753,523.108502 87.5758338,523.206888 C87.7362787,523.306787 87.8982372,523.405678 88.0480867,523.517687 C88.1232637,523.573691 88.1954135,523.632218 88.2650405,523.694277 C88.3346675,523.756336 88.40379,523.819908 88.4678671,523.888526 C88.5934984,524.020717 88.7014708,524.168548 88.796325,524.322938 C88.8906747,524.477329 88.9663562,524.64181 89.0183242,524.814364 C89.1237739,525.157454 89.1404238,525.52678 89.015297,525.902665 C88.9719062,526.03435 88.7927932,526.082282 88.6772527,526.027791 C88.5395123,525.96321 88.5082306,525.817397 88.553135,525.68672 C88.6005621,525.549484 88.6131757,525.410734 88.6030848,525.27148 C88.5934984,525.132226 88.5581804,524.99499 88.5052033,524.863809 C88.3972309,524.603969 88.2261906,524.360779 88.0364822,524.179648 C87.9002554,524.051998 87.7584786,523.934944 87.6056019,523.829999 C87.4527251,523.724549 87.2907666,523.629191 87.1303217,523.533327 C86.9683632,523.438473 86.8018638,523.347655 86.6378871,523.252801 C86.4759286,523.156433 86.3154837,523.057543 86.1605887,522.950075 C85.5561454,522.522726 85.0218336,521.978828 84.6060896,521.353194 C84.1903456,520.728064 83.8820694,520.030281 83.71557,519.30626 L83.6943738,519.210393 C83.6415933,518.985654 83.6027395,518.758049 83.5783341,518.529263 C83.5571433,518.33905 83.5495751,518.14581 83.5490706,517.955092 C83.4072938,517.93037 83.2660216,517.893538 83.1313084,517.845606 C82.9981088,517.796666 82.8694502,517.737129 82.7483597,517.669016 C82.5314059,517.546916 82.3341293,517.397067 82.1620799,517.223504 C81.9890215,517.049941 81.8300902,516.85771 81.6978997,516.648324 C81.5636911,516.438938 81.4405825,516.218957 81.3421964,515.987876 C81.2417922,515.757804 81.1504698,515.523192 81.0793292,515.285552 C81.0006204,515.029748 80.9183797,514.76789 80.8537981,514.498968 C80.8199937,514.364759 80.7882075,514.229542 80.7594485,514.094324 C80.7316986,513.958602 80.7100032,513.820861 80.6908305,513.68413 C80.6721624,513.547399 80.6565216,513.410667 80.6474398,513.273936 C80.6403371,513.137205 80.638358,513.000473 80.6423943,512.865255 C80.6469352,512.729533 80.6555125,512.595829 80.6746851,512.463134 C80.6948669,512.329935 80.7221122,512.198249 80.7569257,512.06959 C80.8664117,511.655864 81.088411,511.247184 81.3845781,510.932853 C81.683268,510.617513 82.0697484,510.394 82.5132424,510.32841 C82.7069871,510.299146 82.9088046,510.300155 83.1045676,510.327401 C83.3003305,510.355151 83.490039,510.409641 83.6656202,510.487341 C83.9439736,510.611899 84.1736845,510.797817 84.316645,511.04358 L84.3573496,510.923267 C84.5515989,510.34506 84.616685,509.755248 84.5536171,509.184105 C84.5162808,508.897524 84.4532129,508.61952 84.3507905,508.353121 C84.2978134,508.220426 84.2453409,508.08874 84.1792456,507.961091 C84.1146641,507.832937 84.039487,507.70781 83.9597691,507.58571 C83.8048742,507.341007 83.6111294,507.108916 83.3992211,506.890449 C83.1883218,506.671982 82.9446272,506.46865 82.68176,506.283483 C82.3946746,506.079647 82.0803439,505.902552 81.7478496,505.760271 C81.4148507,505.617485 81.0692383,505.509513 80.707985,505.444931 C80.384068,505.387413 80.476904,504.886906 80.8013256,504.951992 Z M139.984301,505.116978 C140.035765,505.259764 139.954533,505.384891 139.830415,505.445436 C139.700243,505.509008 139.591766,505.598313 139.502462,505.703258 C139.41114,505.808707 139.338485,505.930807 139.282985,506.060979 C139.226981,506.191151 139.189645,506.329396 139.165427,506.468146 C139.139191,506.606391 139.128091,506.74514 139.130613,506.876322 C139.132127,506.969158 139.139191,507.061994 139.15029,507.153821 C139.160886,507.245648 139.17249,507.33697 139.18914,507.428293 C139.221431,507.610433 139.267345,507.792069 139.317294,507.974209 C139.408617,508.336471 139.528194,508.702265 139.588739,509.071591 C139.850093,510.532245 139.531221,512.120044 138.740601,513.378881 L138.647974,513.524573 C138.536989,513.698199 138.416638,513.865446 138.287521,514.025201 C138.165926,514.174546 138.040294,514.317837 137.904572,514.453054 C138.068044,514.687667 138.191657,514.953562 138.267844,515.221475 C138.334948,515.461637 138.362698,515.704827 138.365725,515.951045 C138.36623,516.012599 138.365725,516.074153 138.362193,516.135708 C138.358661,516.196757 138.353111,516.258312 138.346048,516.319362 C138.331921,516.441966 138.311739,516.564065 138.287016,516.686165 C138.184089,517.17305 137.989335,517.647321 137.759264,518.086274 C137.728486,518.14581 137.697205,518.205346 137.666427,518.265387 C137.633632,518.324418 137.600837,518.383954 137.567537,518.443995 C137.500937,518.563067 137.433328,518.683149 137.363197,518.802221 C137.222429,519.039861 137.06602,519.270942 136.903053,519.492941 C136.734535,519.712418 136.553404,519.919785 136.357641,520.105962 C136.157842,520.289616 135.945429,520.454097 135.713843,520.587297 C135.337454,520.797691 134.902537,520.936441 134.464593,520.945523 C134.029172,520.956118 133.602328,520.844109 133.241075,520.576197 C132.925735,520.342593 132.671445,520.004044 132.536732,519.647332 C132.43288,519.366133 132.396382,519.069755 132.469044,518.79575 L132.355096,518.849648 C131.815739,519.125634 131.341972,519.489914 130.988792,519.942994 C130.807156,520.168525 130.663361,520.415752 130.542775,520.673574 C130.427235,520.934423 130.335408,521.205867 130.276881,521.492953 C130.249131,521.637252 130.223903,521.781047 130.208263,521.929383 C130.192117,522.077214 130.184044,522.228577 130.184044,522.381959 C130.179504,522.686199 130.204731,522.99952 130.262249,523.317887 C130.380817,524.012139 130.649234,524.707401 131.065482,525.306294 C131.253677,525.576225 130.833897,525.864319 130.650747,525.589343 C130.446407,525.286112 130.276376,524.961691 130.13914,524.627683 C130.0014,524.29317 129.900491,523.952099 129.824305,523.603964 C129.786969,523.4304 129.757705,523.257342 129.736514,523.084788 C129.725919,522.998511 129.717846,522.913243 129.711287,522.827471 C129.703719,522.741194 129.698169,522.654917 129.695142,522.569649 C129.688583,522.398609 129.690601,522.229586 129.701196,522.063592 C129.711287,521.897092 129.726928,521.731097 129.753164,521.570148 C129.809673,521.239672 129.891409,520.921305 130.013509,520.630687 C130.129049,520.33452 130.282935,520.064589 130.459525,519.809795 C130.549334,519.683659 130.648225,519.563578 130.750142,519.446019 C130.853069,519.329469 130.965583,519.219983 131.08415,519.115038 C131.316745,518.902121 131.584658,518.715944 131.871743,518.548436 C132.199192,518.365286 132.545814,518.209382 132.924221,518.096869 C133.033312,518.062145 133.145087,518.031119 133.258898,518.003725 C133.307807,517.988156 133.357584,517.973914 133.408583,517.962156 C133.494163,517.941857 133.582801,517.928412 133.672665,517.921968 C133.812775,517.898818 133.955691,517.881319 134.099304,517.868815 C134.224575,517.857715 134.311222,517.924796 134.350681,518.013036 C134.422439,518.038626 134.493095,518.071178 134.560961,518.109987 C134.753697,518.219978 134.919692,518.377395 135.033214,518.562563 C135.145727,518.746721 135.207282,518.959639 135.196686,519.180629 C135.188109,519.403133 135.083668,519.598896 134.930287,519.737645 C134.853596,519.806768 134.763283,519.860754 134.664392,519.895567 C134.563988,519.929876 134.454502,519.944508 134.34098,519.935931 C134.109899,519.918272 133.928768,519.813327 133.783459,519.635727 C133.696173,519.529269 133.753187,519.365292 133.8546,519.302224 C133.976699,519.228561 134.114944,519.281033 134.203744,519.386987 C134.265298,519.460146 134.395975,519.45056 134.47418,519.425837 C134.58972,519.390015 134.66187,519.308783 134.686592,519.192738 C134.739065,518.931384 134.546834,518.647326 134.316257,518.519172 C134.146303,518.424272 133.946414,518.385887 133.753317,518.39682 C133.729617,518.40156 133.706089,518.405634 133.682614,518.409875 L133.45,518.457216 L133.420251,518.466954 C133.210576,518.546078 133.040987,518.691077 132.96963,518.899094 C132.883858,519.134715 132.930276,519.400105 133.05288,519.642791 C133.174475,519.884467 133.370238,520.101421 133.595264,520.236134 C133.884872,520.409697 134.218376,520.469738 134.54532,520.439465 C134.708792,520.425338 134.872769,520.389516 135.030187,520.337043 C135.1094,520.310302 135.1871,520.280534 135.261772,520.246225 C135.335436,520.211412 135.407585,520.173066 135.476203,520.131694 C135.660866,520.02019 135.835943,519.890017 135.993361,519.741177 C136.150274,519.591832 136.297096,519.428864 136.434332,519.25631 C136.567531,519.081738 136.693163,518.899094 136.81274,518.713421 C136.930298,518.52674 137.038775,518.335518 137.147252,518.148837 C137.542814,517.451053 137.887922,516.661442 137.853613,515.850641 C137.832927,515.479296 137.731514,515.10442 137.527678,514.79009 C137.480592,514.828615 137.432905,514.86654 137.384618,514.903401 L137.421,514.872216 L137.356563,514.925532 C137.247993,515.010295 137.135311,515.090798 137.020612,515.167488 C136.988609,515.188776 136.951954,515.198736 136.914393,515.199602 C136.776994,515.266428 136.632461,515.3143 136.485291,515.337015 C136.252192,515.372333 136.010515,515.344079 135.780443,515.229547 C135.377817,515.026216 135.194163,514.583731 135.345526,514.207846 C135.418685,514.012588 135.552894,513.861225 135.725448,513.75628 C135.899515,513.651839 136.10436,513.591798 136.330396,513.586248 C136.80234,513.573683 137.22622,513.760886 137.562635,514.064565 L137.587214,514.039833 C137.711836,513.909661 137.832422,513.773434 137.945945,513.631153 C138.050805,513.495788 138.150712,513.35547 138.245241,513.211049 C138.535071,512.752043 138.753592,512.242667 138.88036,511.712878 C138.929805,511.508537 138.9626,511.30117 138.989846,511.092793 C139.001335,511.004978 139.0462,510.945494 139.105056,510.912009 L139.116621,510.84259 C139.197872,510.226379 139.182798,509.601218 139.053923,508.997928 C138.980764,508.628097 138.857655,508.257762 138.771378,507.88995 C138.673497,507.521129 138.610933,507.153821 138.619511,506.776927 C138.63616,506.413655 138.713356,506.050888 138.88591,505.73353 C139.0514,505.416172 139.303167,505.143719 139.656348,504.966119 C139.780466,504.90406 139.94091,504.996897 139.984301,505.116978 Z M84.7508937,516.333489 C84.5737988,516.346102 84.4390856,516.447516 84.3437269,516.58122 C84.247359,516.715428 84.1878229,516.882937 84.1525048,517.027741 C84.1328877,517.109801 84.1159941,517.193526 84.1024868,517.278087 C84.0936873,517.348461 84.0863317,517.418692 84.0804522,517.489092 C84.2059865,517.478803 84.3346451,517.453576 84.4612856,517.411194 C84.7397937,517.317349 85.049079,517.096863 85.1025606,516.801705 C85.1414105,516.585256 85.0117427,516.313812 84.7508937,516.333489 Z M135.98882,514.167987 C135.899011,514.230551 135.831402,514.333982 135.807184,514.44145 C135.782966,514.548918 135.80567,514.661936 135.904561,514.747203 C136.173987,514.980807 136.567531,514.837012 136.821317,514.681108 C136.890031,514.638823 136.957222,514.593353 137.023108,514.545352 C137.080087,514.501535 137.136705,514.455926 137.192661,514.409159 L137.09818,514.327853 C137.028068,514.276688 136.953171,514.231055 136.873789,514.191701 C136.611931,514.061024 136.233019,513.996442 135.98882,514.167987 Z M131.3228,483.865093 C131.46054,483.929674 131.491822,484.075488 131.446917,484.206164 C131.39949,484.3434 131.386877,484.48215 131.396463,484.620899 C131.406554,484.760153 131.441367,484.897389 131.494344,485.028571 C131.602821,485.288915 131.773862,485.532105 131.96357,485.713236 C132.099292,485.840886 132.241574,485.95794 132.39445,486.062885 C132.547327,486.168335 132.708781,486.263189 132.869731,486.359052 C133.031689,486.454411 133.198189,486.545229 133.362165,486.640083 C133.524124,486.736451 133.684569,486.835342 133.839464,486.942809 C134.443402,487.369653 134.978219,487.914056 135.393458,488.53969 C135.809707,489.16482 136.117478,489.862604 136.284482,490.586624 L136.304264,490.676481 C136.357765,490.903172 136.397095,491.132795 136.421718,491.363621 C136.442909,491.553834 136.450477,491.747074 136.450982,491.937792 C136.592758,491.962515 136.734031,491.999346 136.868744,492.047278 C137.001943,492.096219 137.130602,492.15525 137.251188,492.223364 C137.468646,492.345968 137.665923,492.495817 137.837972,492.66938 C138.011031,492.842439 138.169458,493.03467 138.302153,493.24456 C138.436361,493.453441 138.558965,493.673927 138.657856,493.905008 C138.757755,494.13508 138.849582,494.369693 138.920219,494.607333 C138.998927,494.863136 139.081673,495.124995 139.146254,495.393916 C139.180059,495.528125 139.211845,495.662838 139.240604,495.79856 C139.268354,495.934283 139.289545,496.071519 139.309222,496.20825 C139.32789,496.345486 139.343531,496.482217 139.352613,496.618444 C139.359715,496.75568 139.361694,496.892411 139.357658,497.027629 C139.353117,497.162847 139.34454,497.297055 139.325367,497.42975 C139.305185,497.56295 139.27794,497.694131 139.243127,497.823294 C139.133641,498.23702 138.911641,498.6457 138.615474,498.959527 C138.316784,499.275371 137.930304,499.498884 137.48681,499.564475 C137.292561,499.593234 137.091248,499.592729 136.895485,499.564979 C136.699722,499.537734 136.510013,499.483243 136.334432,499.405039 C136.056079,499.280481 135.826368,499.094881 135.683407,498.848997 L135.642703,498.969618 C135.448453,499.54732 135.382863,500.137636 135.446435,500.708275 C135.483771,500.99536 135.546839,501.273364 135.649262,501.539763 C135.701734,501.672458 135.754711,501.804144 135.820807,501.931794 C135.885388,502.059948 135.960565,502.18457 136.040283,502.307174 C136.195178,502.551878 136.388418,502.783968 136.600831,503.002435 C136.81173,503.220903 137.055425,503.424234 137.318292,503.609401 C137.605378,503.813237 137.919204,503.989827 138.252203,504.132613 C138.585202,504.274894 138.930814,504.383371 139.292067,504.447953 C139.615984,504.505471 139.523148,505.005474 139.198727,504.940892 C138.839996,504.871265 138.490347,504.761779 138.157349,504.622525 C137.990849,504.552898 137.828386,504.475703 137.670464,504.391949 C137.513551,504.30769 137.361179,504.217376 137.210825,504.121009 C136.911126,503.928778 136.639681,503.713337 136.388923,503.480238 C136.262787,503.363689 136.144219,503.243103 136.034229,503.117976 C135.978729,503.055917 135.926761,502.992344 135.874793,502.927763 C135.821816,502.863686 135.771361,502.798095 135.72343,502.732 C135.62353,502.595269 135.535235,502.456014 135.456526,502.314238 C135.37479,502.172965 135.303145,502.029675 135.242095,501.883862 C135.183063,501.737544 135.127564,501.590217 135.083668,501.440873 C135.038259,501.292032 135.008491,501.140164 134.979732,500.987792 C134.87731,500.377294 134.908592,499.743083 135.087705,499.098276 C135.18155,498.739041 135.329886,498.380815 135.508999,498.036212 C135.564603,497.929973 135.625946,497.824307 135.690671,497.720158 C135.711415,497.678729 135.734685,497.637597 135.759757,497.597259 C135.802477,497.527569 135.851033,497.460116 135.904784,497.396084 L135.842,497.487216 L135.929433,497.362907 C136.007992,497.254337 136.09141,497.14771 136.179537,497.043774 C136.261073,496.947198 136.369623,496.933215 136.459149,496.96748 C136.527769,496.935248 136.600974,496.908109 136.676513,496.887366 C136.890944,496.828839 137.117988,496.822784 137.329392,496.873238 C137.540292,496.923693 137.739082,497.029647 137.88439,497.194128 C138.030203,497.359114 138.103362,497.569004 138.090749,497.775867 C138.077126,497.983235 137.984795,498.185052 137.81325,498.333388 C137.639182,498.484246 137.436356,498.538233 137.207797,498.515528 C137.070561,498.501906 136.990339,498.346506 137.020107,498.229956 C137.05593,498.091207 137.191147,498.030662 137.328383,498.042266 C137.423237,498.050843 137.509514,497.950944 137.548364,497.878289 C137.605378,497.771326 137.596296,497.663354 137.530705,497.563959 C137.382874,497.34196 137.049875,497.276369 136.795585,497.348519 C136.6126,497.400699 136.446861,497.511271 136.317995,497.65131 C136.255105,497.736669 136.195967,497.824012 136.140325,497.912589 L136.173483,497.846503 C136.106883,497.961035 136.063492,498.084143 136.051888,498.207252 C136.03776,498.33137 136.053401,498.454983 136.108901,498.570523 C136.162887,498.684046 136.246642,498.779405 136.34755,498.8566 C136.446945,498.934804 136.565513,498.995349 136.693667,499.037731 C136.949975,499.122494 137.244629,499.137126 137.49791,499.073554 C137.825863,498.990808 138.100335,498.798577 138.313757,498.545296 C138.367239,498.482228 138.417189,498.415124 138.462597,498.345497 C138.506997,498.27587 138.547865,498.20372 138.584192,498.129552 C138.657351,497.981216 138.714365,497.825312 138.754728,497.668904 C138.96815,496.827325 138.763305,495.915615 138.53172,495.084631 C138.476725,494.891391 138.419711,494.695628 138.351093,494.502892 C138.280457,494.311166 138.202253,494.121457 138.113958,493.937803 C137.930304,493.573523 137.705782,493.23346 137.40356,492.961511 C137.133629,492.710248 136.785494,492.522054 136.424745,492.441831 L136.401461,492.637863 C136.384623,492.781692 136.362447,492.924807 136.334937,493.066961 C136.327239,493.104595 136.308304,493.137557 136.282353,493.164754 C136.232047,493.309175 136.161659,493.446356 136.073583,493.566459 C135.933824,493.756672 135.745125,493.907026 135.500421,493.989267 C135.284981,494.061416 135.067018,494.049812 134.884374,493.974635 C134.792547,493.936794 134.709801,493.883313 134.640174,493.815704 C134.568529,493.749104 134.510002,493.668377 134.46863,493.575036 C134.384371,493.384319 134.374784,493.181492 134.419184,492.986738 C134.465098,492.79148 134.571556,492.601772 134.72746,492.438299 C135.053214,492.094978 135.483827,491.927922 135.934357,491.904841 C135.932064,491.53721 135.889211,491.16702 135.811467,490.801881 C135.689693,490.27881 135.484175,489.771253 135.202741,489.311642 C135.09275,489.133034 134.975191,488.958966 134.843001,488.795494 C134.7869,488.72474 134.777158,488.649353 134.796799,488.582852 L134.833,488.633216 L134.780059,488.559746 C134.725568,488.487344 134.66969,488.416077 134.612424,488.345945 C134.49537,488.2077 134.372766,488.074501 134.245117,487.947356 C134.119485,487.818697 133.982249,487.700129 133.842995,487.586607 C133.702732,487.473589 133.560955,487.365112 133.408583,487.26824 C133.249147,487.165313 133.085171,487.068441 132.920689,486.971568 C132.753686,486.877219 132.586177,486.784383 132.424218,486.685997 C132.263269,486.586097 132.101311,486.487206 131.951966,486.375198 C131.876789,486.319193 131.804134,486.260666 131.735012,486.198607 C131.665385,486.136044 131.596262,486.072976 131.531681,486.004358 C131.406554,485.872168 131.298077,485.723832 131.203727,485.569946 C131.109378,485.415556 131.033696,485.25057 130.981728,485.078016 C130.875774,484.735431 130.859628,484.3656 130.984251,483.99022 C131.028146,483.858534 131.207259,483.810602 131.3228,483.865093 Z M89.3493049,484.303541 C89.5536451,484.606772 89.7236763,484.931194 89.8609122,485.265202 C89.9981481,485.599714 90.0995614,485.940786 90.1757475,486.288921 C90.2130837,486.461979 90.2423472,486.635542 90.2635381,486.807592 C90.2741335,486.893869 90.2817017,486.979641 90.2887653,487.065414 C90.2963334,487.15169 90.3013789,487.237967 90.3049107,487.323235 C90.3114697,487.494276 90.3094516,487.663298 90.2988561,487.829293 C90.2882607,487.995288 90.2731244,488.161787 90.2463836,488.322736 C90.1903792,488.653213 90.1086432,488.97158 89.986039,489.261692 C89.8710031,489.558364 89.7166127,489.828295 89.540527,490.083089 C89.4507182,490.209225 89.3518276,490.329307 89.2499098,490.446361 C89.1469829,490.563415 89.0339651,490.672901 88.9159019,490.777846 C88.6833072,490.990763 88.4153945,491.17694 88.1283092,491.344449 C87.8003558,491.527598 87.4542388,491.683502 87.075831,491.796015 C86.9651597,491.831243 86.8516794,491.862664 86.7361098,491.890348 C86.6887381,491.905729 86.6406727,491.919384 86.5914691,491.930728 C86.5020927,491.951871 86.4096274,491.965577 86.3159798,491.971684 C86.1789211,491.995057 86.0401035,492.011921 85.9007487,492.024069 C85.7752669,492.034791 85.6882259,491.96738 85.6489729,491.879149 C85.577317,491.853807 85.5068154,491.82143 85.4390913,491.782897 C85.2463556,491.672402 85.0798561,491.515489 84.9668384,491.330321 C84.8538206,491.146163 84.7927708,490.932741 84.8033662,490.711751 C84.8119434,490.489752 84.9158794,490.293484 85.0697653,490.155239 C85.1464559,490.086117 85.2367692,490.03213 85.3356598,489.996812 C85.436064,489.963008 85.54555,489.948376 85.6590723,489.956953 C85.8901533,489.974108 86.0712845,490.079558 86.2160885,490.256652 C86.3038792,490.363616 86.2463612,490.527592 86.1454524,490.590156 C86.0233529,490.663819 85.8851079,490.611347 85.7963082,490.505897 C85.7347539,490.432234 85.604077,490.442324 85.5253682,490.466543 C85.4103323,490.50287 85.3381825,490.584101 85.3134599,490.700146 C85.2604828,490.9615 85.4527139,491.245558 85.6832904,491.373712 C85.8502887,491.466962 86.0464391,491.505645 86.2365473,491.49659 L86.3953966,491.468067 L86.547,491.435216 L86.5797998,491.42593 C86.7894664,491.346807 86.9589931,491.201807 87.0299175,490.993791 C87.1161945,490.757664 87.0697765,490.492274 86.9471724,490.249589 C86.8255773,490.008417 86.6293098,489.790959 86.4047879,489.65675 C86.1146753,489.483187 85.7816764,489.423146 85.4547321,489.452914 C85.2907554,489.467546 85.1272832,489.503369 84.9693611,489.555841 C84.8906523,489.582077 84.8129525,489.61235 84.7382801,489.646659 C84.6641121,489.681473 84.5924669,489.719818 84.523849,489.760686 C84.339186,489.872695 84.1641093,490.002867 84.0066917,490.151707 C83.8497786,490.300548 83.7029564,490.46402 83.5657205,490.636574 C83.4320164,490.811146 83.3068896,490.993791 83.1873127,491.179463 C83.0697541,491.366144 82.9612772,491.556862 82.8528003,491.744047 C82.457238,492.441831 82.1121301,493.231442 82.1464391,494.042244 C82.1666208,494.413588 82.2685387,494.788464 82.4723743,495.102795 C82.524981,495.059318 82.5783371,495.01734 82.6324423,494.976215 L82.579,495.019216 L82.6434894,494.967353 C82.7520597,494.882589 82.8647411,494.802087 82.9794407,494.725396 C83.0113004,494.703966 83.0478932,494.693944 83.085439,494.693062 C83.2230583,494.626456 83.3675913,494.578585 83.5147616,494.555869 C83.7478608,494.520047 83.9890327,494.548301 84.2196091,494.663337 C84.622235,494.866164 84.8058889,495.309153 84.6545258,495.685038 C84.5808624,495.880296 84.4471583,496.03166 84.2740999,496.136605 C84.1005368,496.241045 83.8951875,496.301086 83.6696565,496.306636 C83.1972096,496.318698 82.7738283,496.131494 82.4369185,495.827815 L82.4128382,495.852547 C82.2882159,495.982719 82.1676299,496.11945 82.053603,496.261731 C81.9474888,496.398856 81.8460279,496.541565 81.7501141,496.688964 C81.4625226,497.14635 81.2457461,497.652874 81.1196927,498.180007 C81.0702474,498.383842 81.0369475,498.591714 81.0102067,498.799586 C80.9987168,498.887675 80.9537043,498.947136 80.8947931,498.980623 L80.9320024,498.742573 C80.799812,499.457007 80.7957756,500.191118 80.9461296,500.894956 C81.0192885,501.264787 81.1418926,501.634617 81.2286741,502.00243 C81.326051,502.371756 81.389119,502.739063 81.3800372,503.115453 C81.3638918,503.479229 81.2866966,503.841996 81.1141427,504.159354 C80.9486524,504.476207 80.696885,504.749166 80.3431999,504.92626 C80.2195867,504.988824 80.0591418,504.895988 80.0157511,504.775906 C79.9642876,504.633121 80.0450146,504.507489 80.1696369,504.446944 C80.2998092,504.383371 80.4082861,504.294572 80.4975903,504.189122 C80.5889127,504.083672 80.661567,503.962077 80.7170668,503.831905 C80.7730711,503.701733 80.8104074,503.563488 80.8346255,503.424738 C80.8608617,503.286493 80.8719617,503.147239 80.869439,503.016563 C80.8679254,502.923222 80.8608617,502.83089 80.8497618,502.739063 C80.8391664,502.646732 80.8275619,502.55541 80.8109119,502.464592 C80.7786211,502.281947 80.7327077,502.100311 80.6827578,501.918675 C80.5914354,501.556413 80.4718586,501.190619 80.4113133,500.820788 C80.1494551,499.360134 80.4688313,497.77284 81.2589467,496.513499 L81.3558261,496.361929 C81.4657855,496.190393 81.584884,496.025115 81.7125315,495.867178 C81.833622,495.718338 81.9592534,495.574543 82.0954802,495.43983 C81.9315035,495.204712 81.8083948,494.939322 81.7322087,494.67141 C81.6651044,494.431247 81.6373545,494.188057 81.6343272,493.941335 C81.6338227,493.880285 81.6343272,493.818226 81.6373545,493.757177 C81.6413908,493.695622 81.6469408,493.634572 81.6540044,493.573523 C81.6681317,493.450919 81.6878089,493.328819 81.7130361,493.206719 C81.815963,492.719835 82.0107168,492.245564 82.2407888,491.806611 C82.2715659,491.747074 82.3023431,491.687538 82.3336248,491.627498 C82.3664201,491.568466 82.3992155,491.508425 82.4325154,491.448889 C82.4991151,491.329312 82.566724,491.209735 82.6368556,491.090663 C82.7771187,490.853023 82.9340318,490.621942 83.0969994,490.399943 C83.265517,490.180466 83.4466482,489.973099 83.6419066,489.786922 C83.8422105,489.602764 84.0546234,489.438787 84.2857044,489.305588 C84.6625985,489.094688 85.0975152,488.955939 85.5349546,488.947362 C85.9708803,488.936262 86.3972197,489.048775 86.7589776,489.316183 C87.0743174,489.550291 87.3286074,489.88884 87.4633206,490.245048 C87.5672996,490.526991 87.6037597,490.823833 87.5304895,491.097884 L87.6449563,491.043236 C88.1843135,490.767251 88.65808,490.402466 89.0112606,489.94989 C89.1923918,489.723854 89.3366913,489.476628 89.4567727,489.219311 C89.5728178,488.958461 89.6646447,488.687017 89.7226672,488.399932 C89.7509217,488.255632 89.7761489,488.111837 89.7917897,487.963501 C89.8074306,487.815165 89.8155033,487.664307 89.8160078,487.510421 C89.8205487,487.206181 89.794817,486.893364 89.7378036,486.574493 C89.6187312,485.880745 89.3508185,485.185484 88.9340654,484.586086 C88.7458706,484.316659 89.165651,484.028565 89.3493049,484.303541 Z M83.1782309,495.211776 C83.1070155,495.25577 83.0371488,495.303211 82.9687123,495.353363 C82.914638,495.39557 82.8607144,495.439159 82.8073913,495.483725 L82.901741,495.564695 C82.9717044,495.615747 83.0463769,495.661493 83.1257584,495.701183 C83.3876166,495.83186 83.7665289,495.896442 84.0112326,495.724897 C84.1010414,495.661829 84.1686502,495.558902 84.1928683,495.451434 C84.2170864,495.343967 84.194382,495.230949 84.0954914,495.145681 C83.8260651,494.911573 83.432521,495.055872 83.1782309,495.211776 Z M135.919285,492.40494 C135.794066,492.414081 135.665407,492.439308 135.538767,492.48169 C135.260259,492.575535 134.950469,492.796021 134.897492,493.091179 C134.858642,493.307628 134.987805,493.579073 135.249159,493.559395 C135.425749,493.546277 135.560967,493.445369 135.656325,493.31116 C135.752189,493.177456 135.812229,493.009947 135.847043,492.865143 C135.867435,492.779839 135.885048,492.692573 135.898951,492.604555 C135.906816,492.538139 135.91371,492.471616 135.919285,492.40494 Z M110.499272,475.115801 C110.562845,475.245973 110.651644,475.354954 110.757094,475.443754 C110.862544,475.535581 110.984139,475.608235 111.114311,475.663735 C111.244483,475.719235 111.382728,475.756571 111.521478,475.780789 C111.660227,475.807025 111.798977,475.81863 111.929654,475.816107 C112.022994,475.814089 112.115326,475.80753 112.207153,475.79643 C112.299484,475.78533 112.390806,475.773726 112.482129,475.757076 C112.664269,475.724785 112.845905,475.678871 113.027541,475.628922 C113.390308,475.537599 113.756102,475.418022 114.125428,475.357477 C115.586082,475.096123 117.173881,475.414995 118.432717,476.205615 L118.578405,476.298242 C118.752035,476.409227 118.919282,476.529578 119.079038,476.658695 C119.227878,476.78029 119.371673,476.905922 119.506386,477.041644 C119.741504,476.878172 120.006894,476.754559 120.274806,476.678372 C120.514969,476.611268 120.758664,476.583518 121.004881,476.580491 C121.065931,476.579986 121.12799,476.580491 121.189544,476.584023 C121.250594,476.588059 121.311644,476.593105 121.373198,476.600168 C121.495297,476.614295 121.617902,476.634477 121.739497,476.659704 C122.226381,476.762127 122.701157,476.957385 123.139605,477.186952 C123.199142,477.21773 123.258678,477.249011 123.318718,477.280293 C123.378255,477.312584 123.437791,477.345884 123.497327,477.378679 C123.616904,477.445279 123.736481,477.513392 123.855553,477.583019 C124.093193,477.723787 124.324274,477.880196 124.546778,478.043668 C124.76575,478.212185 124.973117,478.392812 125.159798,478.588575 C125.343452,478.788374 125.507933,479.000787 125.640628,479.232373 C125.851528,479.608762 125.990277,480.043679 125.998854,480.481623 C126.009954,480.917044 125.897946,481.343888 125.630033,481.705141 C125.396429,482.020481 125.057376,482.275276 124.701168,482.409484 C124.41957,482.513736 124.123109,482.550001 123.849337,482.477224 L123.903485,482.59112 C124.178965,483.130477 124.54375,483.604244 124.996831,483.957424 C125.222362,484.13906 125.469588,484.282855 125.726905,484.403441 C125.987755,484.518981 126.259199,484.610808 126.546284,484.669336 C126.690584,484.69759 126.834379,484.722313 126.982715,484.737953 C127.131051,484.754099 127.281909,484.762172 127.435795,484.762676 C127.740035,484.766712 128.052852,484.741485 128.371724,484.684472 C129.065471,484.5654 129.760732,484.297487 130.36013,483.880734 C130.630061,483.692539 130.918156,484.112319 130.642675,484.295469 C130.339444,484.500313 130.015527,484.66984 129.681519,484.807076 C129.346502,484.944816 129.00543,485.04623 128.657295,485.122416 C128.484237,485.159752 128.310674,485.189016 128.138624,485.209702 C128.052347,485.220297 127.967079,485.22837 127.880802,485.235434 C127.794526,485.242497 127.708753,485.248047 127.622981,485.251074 C127.45194,485.257633 127.282918,485.255615 127.117428,485.24502 C126.950928,485.234929 126.784429,485.219288 126.62348,485.193052 C126.293003,485.136543 125.975141,485.054807 125.684524,484.932707 C125.388357,484.817671 125.117921,484.663281 124.863127,484.486691 C124.736991,484.396882 124.617414,484.297991 124.499855,484.196074 C124.383306,484.093651 124.27382,483.980633 124.16837,483.86257 C123.955957,483.629471 123.769276,483.361558 123.602272,483.074473 C123.418618,482.747024 123.262714,482.400403 123.150201,482.021995 C123.115626,481.912904 123.084704,481.801129 123.057372,481.687318 C123.041524,481.638608 123.027246,481.588769 123.015488,481.537633 C122.994442,481.447886 122.980703,481.354776 122.974605,481.260471 C122.951363,481.124635 122.934439,480.9861 122.922147,480.846912 C122.911455,480.72178 122.978462,480.635185 123.066576,480.595666 C123.092409,480.523671 123.124786,480.453289 123.163319,480.38576 C123.273814,480.193024 123.431232,480.026524 123.615895,479.913002 C123.800558,479.800489 124.013475,479.738935 124.234465,479.74953 C124.456464,479.758107 124.652732,479.862548 124.790977,480.015929 C124.860099,480.093124 124.91459,480.182933 124.949404,480.281824 C124.983208,480.382228 124.99784,480.491714 124.989263,480.605236 C124.972108,480.836317 124.866658,481.017448 124.689564,481.162757 C124.5826,481.250043 124.419128,481.193029 124.35606,481.091616 C124.282397,480.970021 124.334869,480.831776 124.440319,480.742472 C124.513982,480.681422 124.503892,480.550241 124.479673,480.472036 C124.443851,480.357001 124.362115,480.284346 124.24607,480.260128 C123.985221,480.207151 123.701162,480.399382 123.572504,480.629959 C123.479609,480.796957 123.440782,480.993107 123.44972,481.18304 C123.46679,481.28893 123.487476,481.393459 123.51117,481.49708 L123.486227,481.418056 C123.552827,481.676382 123.710244,481.893336 123.952425,481.976586 C124.188552,482.062863 124.453942,482.01594 124.696627,481.893841 C124.938304,481.772246 125.155257,481.575978 125.289466,481.350952 C125.463029,481.061344 125.52307,480.72784 125.493302,480.4014 C125.47867,480.237424 125.442847,480.073952 125.390375,479.916029 C125.364139,479.837321 125.333866,479.759116 125.299557,479.684444 C125.264743,479.61078 125.226398,479.539135 125.18553,479.470013 C125.074026,479.28535 124.943854,479.110273 124.794509,478.95336 C124.645668,478.795942 124.482196,478.64912 124.309642,478.512389 C124.135575,478.378685 123.952425,478.253558 123.767258,478.133476 C123.580577,478.015918 123.389354,477.907441 123.202169,477.798964 C122.504385,477.403402 121.714774,477.058798 120.903972,477.093107 C120.532628,477.113289 120.157752,477.214702 119.843421,477.418538 L119.901165,477.490247 L119.941,477.542216 L119.916,477.512216 L119.978863,477.589672 C120.063627,477.698279 120.144129,477.811073 120.22082,477.926109 C120.242247,477.957963 120.252309,477.994549 120.253252,478.032077 C120.319994,478.169222 120.367951,478.313755 120.390347,478.460925 C120.426169,478.694025 120.397915,478.935701 120.282879,479.166277 C120.080052,479.568399 119.637063,479.752053 119.261178,479.60069 C119.06592,479.527531 118.914556,479.393322 118.810116,479.220768 C118.705675,479.047205 118.64513,478.841856 118.63958,478.61582 C118.627506,478.14342 118.815083,477.719178 119.119281,477.382607 L119.093669,477.359002 C118.963497,477.23438 118.82727,477.114298 118.684989,477.000271 C118.549589,476.895384 118.409234,476.795903 118.264774,476.700976 C117.805756,476.411245 117.296551,476.192811 116.766714,476.066361 C116.562374,476.016411 116.354502,475.983616 116.14663,475.956875 C116.058435,475.945097 115.998938,475.900014 115.965473,475.840997 L116.152,475.869216 L115.896398,475.829596 C115.280081,475.748354 114.65455,475.763491 114.05126,475.892798 C113.681429,475.965452 113.311599,476.088561 112.943786,476.175342 C112.57446,476.272719 112.207153,476.335283 111.830763,476.326705 C111.466987,476.31056 111.10422,476.23286 110.787367,476.060306 C110.470009,475.894816 110.19705,475.643553 110.019956,475.289868 C109.957392,475.16575 110.050228,475.005306 110.170814,474.961915 C110.313096,474.910451 110.438727,474.991683 110.499272,475.115801 Z M93.3992772,480.333792 C93.2615367,480.45135 93.1283372,480.573954 93.0006876,480.701099 C92.872029,480.826731 92.7539658,480.963967 92.6404434,481.103221 C92.5274257,481.243484 92.4184442,481.385261 92.3220764,481.537633 C92.2191495,481.697069 92.1217725,481.86155 92.0254047,482.025527 C91.931055,482.192531 91.8377144,482.360039 91.7393284,482.521998 C91.6399333,482.682947 91.5405382,482.844906 91.4285295,482.99425 C91.3725251,483.069427 91.3139981,483.142082 91.2519392,483.211709 C91.1898803,483.280831 91.1268123,483.350458 91.0576899,483.414535 C90.926004,483.539662 90.7776681,483.648139 90.6232777,483.742489 C90.4693919,483.837343 90.3044061,483.91252 90.1318522,483.964488 C89.789267,484.070442 89.4194365,484.086588 89.0435514,483.961965 C88.9118655,483.918574 88.8639339,483.739461 88.9184246,483.623416 C88.9830062,483.486181 89.1288193,483.454394 89.2600007,483.499803 C89.3972366,483.54723 89.5354815,483.559844 89.6747356,483.549753 C89.8139896,483.539662 89.9512255,483.504849 90.0824069,483.451872 C90.3427514,483.343899 90.5859415,483.172354 90.7665681,482.98315 C90.8942177,482.846924 91.0112718,482.705147 91.1162169,482.551766 C91.2216666,482.398889 91.3170253,482.237435 91.4128886,482.076485 C91.5077428,481.915031 91.5990652,481.748532 91.6934149,481.584051 C91.7897828,481.422597 91.8891779,481.261647 91.9961411,481.107257 C92.4234896,480.502814 92.9673878,479.967997 93.5930219,479.552758 C94.2181516,479.137014 94.9164401,478.828738 95.6399557,478.661734 L95.747047,478.638162 C95.9681737,478.586662 96.1920156,478.548614 96.416953,478.524498 C96.6076705,478.503812 96.8004062,478.496243 96.9911237,478.495234 C97.0158464,478.353458 97.0526781,478.21269 97.1011143,478.077977 C97.1495505,477.944273 97.2090866,477.815614 97.2772,477.695028 C97.3992996,477.478074 97.5491491,477.280293 97.7232166,477.108748 C97.8962751,476.93569 98.0885063,476.776758 98.2978919,476.644063 C98.5072775,476.509855 98.7277631,476.387251 98.9583396,476.28836 C99.1889161,476.188461 99.4230244,476.096634 99.6606644,476.025997 C99.9164681,475.947289 100.178326,475.864543 100.447248,475.799962 C100.581457,475.766662 100.716674,475.734876 100.851892,475.705612 C100.988119,475.678367 101.125355,475.656671 101.262086,475.636994 C101.398817,475.618326 101.535549,475.602685 101.67228,475.593603 C101.809011,475.586501 101.945743,475.584522 102.080961,475.588558 C102.216683,475.593099 102.350387,475.601676 102.483586,475.621353 C102.616281,475.641031 102.747967,475.668276 102.877131,475.703594 C103.290856,475.812575 103.699032,476.034575 104.013363,476.330742 C104.328703,476.629432 104.552216,477.015912 104.618311,477.459406 C104.64707,477.653655 104.646061,477.854968 104.618815,478.050731 C104.591065,478.246999 104.537079,478.436203 104.458875,478.612288 C104.334484,478.890267 104.1489,479.119417 103.903628,479.262538 C103.942488,479.277277 103.982704,479.290782 104.022949,479.303513 C104.601156,479.498267 105.190968,479.563353 105.762111,479.499781 C106.048692,479.462445 106.326696,479.399881 106.593095,479.297459 C106.726294,479.244482 106.857476,479.191505 106.98563,479.125409 C107.113279,479.060828 107.238406,478.986155 107.360506,478.906437 C107.605714,478.751038 107.837804,478.557798 108.055767,478.345385 C108.274234,478.134486 108.477566,477.890791 108.662733,477.628428 C108.866569,477.340838 109.043664,477.027012 109.185945,476.694013 C109.328731,476.361014 109.437208,476.015907 109.501285,475.654149 C109.559307,475.330232 110.05931,475.423068 109.994224,475.747489 C109.924597,476.10622 109.815615,476.455869 109.676361,476.789372 C109.606734,476.955871 109.529035,477.118335 109.44528,477.275752 C109.361526,477.432665 109.270708,477.585037 109.174845,477.735391 C108.982109,478.03509 108.766669,478.306535 108.534074,478.557293 C108.417525,478.683429 108.296434,478.801997 108.171812,478.911987 C108.109249,478.967487 108.045676,479.01996 107.981599,479.071423 C107.917017,479.1244 107.851931,479.174855 107.785836,479.222786 C107.649105,479.322686 107.509851,479.410981 107.368074,479.48969 C107.226802,479.571931 107.083007,479.643071 106.937194,479.704121 C106.791381,479.763153 106.644054,479.818652 106.494709,479.863052 C106.345364,479.907957 106.193496,479.937725 106.041629,479.966484 C105.430626,480.068906 104.796919,480.038129 104.152112,479.858511 C103.792877,479.764666 103.434651,479.616835 103.089543,479.437217 C102.986011,479.383029 102.883024,479.323392 102.781453,479.260486 C102.737295,479.237929 102.693477,479.213247 102.65059,479.186459 L102.547006,479.117439 L102.45,479.041216 L102.496,479.072216 L102.416351,479.016783 C102.307893,478.938224 102.201378,478.854806 102.097106,478.766679 C102.000176,478.684844 101.986445,478.57611 102.021437,478.48653 C101.988809,478.417753 101.961847,478.344884 101.941202,478.269703 C101.88217,478.055272 101.87662,477.828228 101.927075,477.616824 C101.977529,477.405924 102.082979,477.207134 102.247965,477.061826 C102.412446,476.916013 102.62284,476.843358 102.829703,476.855467 C103.037071,476.86909 103.238888,476.961421 103.387224,477.132966 C103.538083,477.307538 103.591564,477.50986 103.56886,477.738923 C103.555237,477.875655 103.400342,477.955877 103.283793,477.926109 C103.145043,477.890286 103.083993,477.755069 103.096102,477.618337 C103.10468,477.522979 103.00478,477.436702 102.932126,477.397852 C102.824658,477.340838 102.716686,477.34992 102.617795,477.415511 C102.395796,477.563847 102.329701,477.896341 102.402355,478.150631 C102.454183,478.333616 102.564895,478.499601 102.704878,478.628443 C102.790565,478.691348 102.878156,478.750699 102.967015,478.806526 L102.899835,478.772733 C103.014366,478.839333 103.13798,478.882724 103.261088,478.894833 C103.384701,478.90896 103.508819,478.893319 103.62436,478.837819 C103.737882,478.783329 103.832736,478.699574 103.910436,478.598666 C103.98864,478.499271 104.048681,478.380703 104.091567,478.252549 C104.176331,477.996241 104.190458,477.702092 104.126885,477.448306 C104.044645,477.120353 103.851909,476.845881 103.599133,476.632459 C103.53556,476.578977 103.46896,476.529028 103.399333,476.483619 C103.329706,476.439219 103.257556,476.398855 103.182884,476.362024 C103.034548,476.289369 102.878644,476.232356 102.72274,476.191488 C101.881161,475.978066 100.969451,476.183415 100.137963,476.414496 C99.9452271,476.469491 99.7489596,476.526505 99.5567284,476.595627 C99.3650018,476.665759 99.1752934,476.743963 98.9916395,476.832258 C98.6273589,477.015912 98.2872965,477.240434 98.0148429,477.542656 C97.7635801,477.812587 97.5758899,478.160722 97.4956674,478.521471 L97.7198756,478.548649 C97.8540426,478.565053 97.9875799,478.5861 98.1202925,478.611784 C98.1579359,478.619341 98.1909048,478.638181 98.2181174,478.664068 C98.3630954,478.714739 98.5001005,478.785229 98.6202953,478.873138 C98.8105083,479.012896 98.9603578,479.201091 99.0425984,479.445795 C99.1147482,479.661235 99.1031437,479.879198 99.0279666,480.062347 C98.9906304,480.153669 98.9371488,480.236415 98.8695399,480.306042 C98.8029402,480.377687 98.7222132,480.436214 98.6288726,480.477586 C98.4381551,480.561845 98.2348239,480.571432 98.0405746,480.527536 C97.8453162,480.481118 97.6551032,480.37466 97.4916311,480.218756 C97.1483022,479.892518 96.9807606,479.461108 96.9585695,479.009849 C96.5923707,479.014308 96.2246348,479.056835 95.8617233,479.133965 C95.3363321,479.255177 94.8268532,479.461288 94.3654783,479.743475 C94.1863653,479.853466 94.0122978,479.971025 93.8493301,480.103215 C93.7789388,480.159167 93.7039628,480.169196 93.6377014,480.150019 L93.8336893,480.006847 C93.6848489,480.110783 93.5395403,480.219765 93.3992772,480.333792 Z M97.458127,479.026921 C97.467413,479.15215 97.4926402,479.281313 97.5355264,479.407449 C97.6293715,479.686462 97.8493526,479.995747 98.1445106,480.048724 C98.3609599,480.088079 98.6324044,479.958411 98.6127272,479.697562 C98.6001136,479.520467 98.4987003,479.385754 98.3649962,479.289891 C98.2312921,479.194027 98.0632791,479.134491 97.9189796,479.099173 C97.8408736,479.080564 97.7614061,479.064269 97.6812843,479.050997 C97.6074539,479.041072 97.5328854,479.033166 97.458127,479.026921 Z M119.459,477.749216 C119.377728,477.844877 119.304569,477.953354 119.245033,478.072427 C119.11486,478.334285 119.049774,478.713197 119.221824,478.957901 C119.284387,479.04771 119.387314,479.115318 119.494782,479.139032 C119.60225,479.163755 119.715772,479.140546 119.800535,479.041655 C120.034643,478.772733 119.890849,478.379189 119.73444,478.124899 C119.692154,478.056185 119.646823,477.988994 119.598882,477.923108 C119.554949,477.866308 119.509257,477.809812 119.462491,477.75406 Z" id="41"></path>
        </g>
    </g>
</svg>
