<?xml version="1.0" encoding="UTF-8"?>
<svg width="60px" height="58px" viewBox="0 0 60 58" version="1.1" xmlns="http://www.w3.org/2000/svg" xmlns:xlink="http://www.w3.org/1999/xlink">
    <title>10</title>
    <g id="页面-1" stroke="none" stroke-width="1" fill="none" fill-rule="evenodd">
        <g id="花环" transform="translate(-800.000000, -161.000000)" fill="#545458">
            <path d="M807.349074,178.022669 C807.463889,178.495002 807.302523,178.89078 807.029471,179.27905 C806.664604,179.798085 806.255025,180.290564 805.866055,180.792383 C805.74572,181.014539 805.631826,181.239259 805.520139,181.464529 C805.516275,181.506835 805.513699,181.548776 805.506156,181.591449 C805.488124,181.692911 805.432741,181.75335 805.363741,181.783935 L805.335774,181.840893 L805.451149,181.783385 C806.254187,181.393038 807.699405,180.892041 807.673646,181.987776 C807.646966,183.113757 805.863111,182.914494 804.907428,182.789589 C804.659767,183.37126 804.439154,183.961539 804.240253,184.557678 L804.371631,184.506805 C805.190911,184.202251 806.53628,183.932457 806.673988,184.908952 C806.852281,186.173208 804.801997,185.919184 803.87649,185.752339 C803.695252,186.411847 803.544742,187.078864 803.4222,187.751375 C803.720092,187.45999 804.068951,187.231241 804.478714,187.092233 C804.888476,186.953226 805.683299,186.8136 805.936526,187.268603 C806.621732,188.499892 803.933713,188.685236 803.264698,188.741828 C803.01391,190.557169 802.973798,192.408407 803.157612,194.269535 C803.195699,194.654874 802.591268,194.651028 802.553732,194.269535 C802.468173,193.403072 802.433214,192.538624 802.442046,191.678388 C801.81627,191.495425 801.206503,191.256054 800.635742,190.940676 L800.557475,190.89598 C800.193618,190.680757 799.861101,190.371215 800.059278,189.908833 C800.513936,188.848052 801.803206,189.677703 802.495957,190.301681 C802.527052,189.84638 802.574524,189.393461 802.630827,188.941823 C802.561092,188.902996 802.505341,188.837613 802.471853,188.757945 C802.43763,188.676078 802.396414,188.598241 802.351703,188.522419 C802.317847,188.509599 802.284176,188.491284 802.252344,188.46308 C801.682178,187.95709 801.174411,187.391332 800.744671,186.763645 L800.63887,186.605432 C800.38477,186.216064 800.008679,185.594101 800.433713,185.184403 C801.437235,184.217393 802.54306,187.243695 802.749137,187.818956 C802.776369,187.895145 802.766985,187.962725 802.737178,188.019684 L802.760913,188.051185 C802.894127,187.243329 803.069293,186.443165 803.283834,185.652707 C803.210603,185.637689 802.041667,183.789198 801.830622,183.263021 L801.728655,183.01042 C801.566265,182.5947 801.401557,182.04287 801.776711,181.754265 C802.217385,181.415262 802.684738,181.811773 802.877384,182.209932 C803.203611,182.884824 803.444464,183.615576 803.679245,184.331676 C803.873362,183.753851 804.086799,183.181521 804.32526,182.617248 C804.263437,182.533917 804.246509,182.425678 804.280916,182.332273 C803.488071,181.387607 803.240963,180.133242 803.677037,178.968617 C803.786699,178.675767 804.144574,178.693532 804.259389,178.968617 C804.591872,179.764935 804.787829,180.585612 804.857932,181.433028 L804.938891,181.274057 C804.683812,179 805.949037,178.256913 806.905456,177.843186 C807.076022,177.769379 807.298843,177.815898 807.349074,178.022669 Z M805.685222,189.647356 C806.377604,190.007603 805.773357,190.787072 805.40297,191.118749 C804.870481,191.595844 804.229618,191.921111 803.535027,192.089422 C803.35011,192.13411 803.150289,191.992538 803.149921,191.806462 C803.132257,191.767085 803.121401,191.722031 803.126737,191.666538 C803.132257,191.607382 803.143113,191.551156 803.153417,191.494747 C803.08497,191.402259 803.064178,191.275888 803.132625,191.168748 C803.231432,191.013807 803.345694,190.875348 803.468236,190.747513 C803.62997,190.516932 803.839175,190.314556 804.084812,190.136172 L804.165039,190.07854 C804.569691,189.791599 805.20998,189.400126 805.685222,189.647356 Z M803.084657,175.800579 C803.373165,175.868893 803.347037,176.220166 803.151264,176.344522 C803.207513,176.762599 802.875945,177.107171 802.549108,177.36083 L802.506537,177.393399 C801.879105,177.867014 801.230514,178.307113 800.445765,178.461688 C800.24852,178.500515 799.977123,178.32268 800.074458,178.091917 L800.141384,177.937385 C800.978421,175.578947 802.974994,175.774756 803.084657,175.800579 Z M811.444325,173.798975 C812.160811,173.797697 812.270657,174.516361 812.169643,175.173488 C812.231466,175.10957 812.297153,175.049865 812.370568,175.000598 C812.673244,174.796391 813.124589,174.797856 813.34465,175.121841 C813.611815,175.514872 813.348698,175.981894 813.111526,176.316318 C812.999655,176.473823 812.862209,176.60056 812.705995,176.669423 C812.796154,176.79268 812.866073,176.929307 812.897353,177.084065 C812.956048,177.373252 812.870305,177.740094 812.541685,177.815 C812.21233,177.89009 811.90027,177.616836 811.723265,177.356586 L811.682943,177.434635 C811.364787,178.031661 810.843281,178.581534 810.400691,177.976535 C810.214485,177.721962 810.221293,177.391933 810.325252,177.100915 C809.991664,177.113002 809.641885,176.954398 809.540687,176.613747 C809.406,176.160461 809.628637,175.953506 809.976025,175.876035 C809.770499,175.619631 809.701684,175.265061 809.905002,174.978071 C810.152294,174.629362 810.497106,174.655552 810.829221,174.840529 C810.758566,174.299333 810.866388,173.800078 811.444325,173.798975 Z M806.423033,172.190277 C807.139704,172.188999 807.24955,172.907663 807.148535,173.56479 C807.210359,173.500689 807.276046,173.441167 807.349277,173.391717 C807.652137,173.187693 808.103298,173.189158 808.323543,173.513143 C808.590708,173.906174 808.327591,174.373196 808.090235,174.70762 C807.978548,174.865125 807.840918,174.991679 807.684888,175.060725 C807.775047,175.183799 807.844966,175.320426 807.876245,175.475367 C807.934757,175.764555 807.849014,176.131396 807.520578,176.206302 C807.191039,176.281392 806.879163,176.008138 806.702158,175.747888 L806.661814,175.825917 C806.343511,176.422795 805.822174,176.972836 805.379584,176.367837 C805.193378,176.113264 805.200186,175.783235 805.304145,175.492217 C804.970373,175.504304 804.620594,175.3457 804.519579,175.005049 C804.384893,174.551763 804.60753,174.344808 804.954918,174.267337 C804.749392,174.010933 804.680393,173.656363 804.883894,173.369374 C805.131187,173.020664 805.475814,173.046854 805.808114,173.231831 C805.737459,172.690635 805.845097,172.19138 806.423033,172.190277 Z M811.568155,175.524762 C811.447452,175.510843 811.325462,175.543626 811.250023,175.644722 C811.120489,175.818344 811.169064,176.072185 811.328038,176.210643 C811.444877,176.312472 811.608082,176.325658 811.740376,176.269066 C811.919406,176.224196 812.022445,176.00552 811.979757,175.82274 C811.935414,175.633733 811.758592,175.506264 811.568155,175.524762 Z M806.228916,174.036024 C806.099382,174.209647 806.147773,174.463487 806.306747,174.601945 C806.423769,174.703774 806.586975,174.71696 806.719269,174.660368 C806.898115,174.615315 807.001337,174.396638 806.95865,174.214042 C806.914307,174.025036 806.737485,173.897566 806.547048,173.916064 C806.426345,173.902145 806.304355,173.934928 806.228916,174.036024 Z M815.961131,172.825577 C816.18432,173.013485 815.976587,173.310364 815.747694,173.338568 C814.802867,173.455599 813.861904,173.467686 812.914501,173.374831 C812.629489,173.34681 812.487259,172.977039 812.762151,172.814771 C812.790487,172.797922 812.819374,172.785834 812.848078,172.770267 C812.843478,172.675214 812.881014,172.579795 812.991596,172.519357 C813.968623,171.984755 815.113455,172.112041 815.961131,172.825577 Z M810.070507,166.311642 C811.07219,166.309633 811.225828,167.314554 811.084701,168.233214 C811.17118,168.143656 811.262995,168.060507 811.365482,167.991278 C811.788676,167.705937 812.419603,167.707952 812.727431,168.160871 C813.100946,168.710492 812.732951,169.363407 812.401387,169.830978 C812.24499,170.051119 812.052712,170.228221 811.834491,170.324556 C811.960529,170.496896 812.058232,170.687917 812.102207,170.904213 C812.183902,171.308598 812.06412,171.82159 811.604678,171.926349 C811.144133,172.031292 810.708059,171.64925 810.460582,171.285339 L810.414148,171.375665 C809.970194,172.217412 809.234975,173.004131 808.611591,172.151985 C808.351235,171.796133 808.360619,171.334788 808.505977,170.927838 C808.039543,170.944688 807.550478,170.722898 807.409168,170.246719 C807.220938,169.613034 807.532078,169.323847 808.017832,169.215425 C807.730427,168.857009 807.634197,168.361233 807.918657,167.95996 C808.264204,167.472426 808.746278,167.509055 809.210503,167.767657 C809.11188,167.010899 809.262574,166.313113 810.070507,166.311642 Z M802.9425,169.626532 C803.266704,169.561882 803.603051,169.547413 803.927071,169.589903 C804.334073,169.607851 804.732428,169.668839 805.057367,169.797224 C805.698047,170.050332 806.075057,170.632552 806.412877,171.19774 C806.558235,171.440775 806.321798,171.662931 806.105969,171.637473 C806.092537,171.743698 806.033842,171.846077 805.910196,171.894976 C805.436218,172.082701 804.944025,172.112004 804.475199,172.013105 C803.753193,171.911643 802.980956,171.622639 802.709192,171.497916 L802.414132,171.365791 C801.962682,171.1591 801.309799,170.814815 801.34209,170.384023 C801.377418,169.914987 802.167503,169.756749 802.51397,169.689901 C802.646632,169.664444 802.792358,169.643931 802.9425,169.626532 Z M826.5475,167.496546 C826.724689,168.954387 825.513986,169.924694 824.542111,170.805259 C824.380562,170.951409 824.092973,170.902143 824.037406,170.672478 C823.870153,169.980919 823.997847,169.220132 824.30825,168.58077 C824.606142,167.967414 825.173039,167.61962 825.753551,167.303877 C825.844077,167.254611 825.930924,167.256992 826.004891,167.287394 C826.057147,167.256992 826.110138,167.228604 826.165337,167.20681 C826.367918,167.126775 826.526708,167.325305 826.5475,167.496546 Z M809.798927,168.891989 C809.617874,169.134658 809.685585,169.489777 809.907854,169.683179 C810.071243,169.825667 810.2994,169.843981 810.484502,169.764862 C810.734738,169.702043 810.878992,169.39619 810.819009,169.140885 C810.757186,168.876605 810.509893,168.698404 810.243833,168.724411 C810.074923,168.704814 809.904358,168.750601 809.798927,168.891989 Z M828.76892,165.304984 C829.485406,165.303705 829.595252,166.022369 829.494238,166.679496 C829.556061,166.615578 829.621748,166.555873 829.695163,166.506607 C829.997839,166.302399 830.449185,166.303864 830.669246,166.627849 C830.93641,167.02088 830.673294,167.487902 830.436121,167.822326 C830.32425,167.979832 830.186804,168.106569 830.03059,168.175431 C830.120749,168.298689 830.190668,168.435315 830.222132,168.590074 C830.280643,168.879261 830.1949,169.246102 829.866281,169.321008 C829.536925,169.396098 829.224865,169.122845 829.04786,168.862594 C828.73488,169.487671 828.18712,170.113847 827.725286,169.482543 C827.539081,169.22797 827.545888,168.897942 827.649847,168.606923 C827.31626,168.619011 826.96648,168.460406 826.865282,168.119755 C826.730596,167.666469 826.953233,167.459514 827.300804,167.382044 C827.095095,167.12564 827.02628,166.771069 827.229597,166.48408 C827.476889,166.13537 827.821701,166.16156 828.153816,166.346537 C828.083161,165.805341 828.190984,165.306086 828.76892,165.304984 Z M805.181234,166.306117 C805.304329,166.044585 805.646012,166.168208 805.733227,166.37791 C806.100854,167.262688 806.244004,168.188307 806.164517,169.141947 C806.147405,169.349268 805.952184,169.495968 805.755307,169.419962 C805.631292,169.466664 805.47931,169.445053 805.38584,169.305496 C804.775888,168.395994 804.718849,167.28961 805.181234,166.306117 Z M820.409841,164.678811 C820.823099,165.080816 821.125223,165.569083 821.33406,166.100389 C821.821285,166.047826 822.312191,166.018889 822.80512,166.007168 L822.596835,165.847166 L822.493796,165.765782 C822.246872,165.565237 821.91862,165.360663 821.741614,165.091622 C821.524313,164.76141 821.647592,164.072416 822.091946,163.997875 C822.559667,163.919123 823.163915,164.434129 823.454263,164.755183 C823.785274,165.121292 823.993744,165.549303 824.100278,166.016692 C824.442329,166.031343 824.785117,166.052039 825.129192,166.08702 C825.512643,166.125847 825.515403,166.727297 825.129192,166.688104 C824.764509,166.651109 824.401298,166.629681 824.038823,166.615212 C824.008095,166.631329 823.975528,166.641585 823.939464,166.646347 C823.771659,167.041392 823.54847,167.407684 823.257938,167.731486 L823.162304,167.836465 C822.897511,168.120414 822.452451,168.528062 822.109241,168.214075 C821.78559,167.918112 822.020555,167.285526 822.214304,166.976742 C822.299679,166.840482 822.406949,166.723818 822.523052,166.617227 C822.09673,166.635541 821.671695,166.663563 821.249973,166.712279 L821.194699,166.924359 C821.085836,167.353641 820.980102,167.807701 820.751892,168.179277 C820.527967,168.544104 820.078829,168.8897 819.633371,168.699045 C818.859662,168.367734 819.382031,167.488085 819.915256,166.923813 C819.15921,167.071612 818.411444,167.263915 817.676742,167.51281 C817.680422,167.530026 817.685942,167.545959 817.68723,167.564823 C817.718878,168.045581 817.680238,168.643186 817.405162,169.059293 C817.197245,169.374121 816.753995,169.543164 816.426663,169.299214 C815.996845,168.979075 816.118652,168.465717 816.39888,168.003457 C816.048733,168.153454 815.701161,168.313523 815.357454,168.487146 C815.33427,168.499416 815.307407,168.50601 815.278335,168.510405 L815.249632,168.51828 C815.158001,168.898674 814.378403,169.183832 814.110135,169.262585 C813.851435,169.338407 813.509935,169.384926 813.285458,169.195187 C813.061166,169.005631 813.107165,168.713514 813.302018,168.521577 C813.77526,168.05602 814.51217,167.862618 815.161865,167.915181 C815.753601,167.620866 816.355272,167.359883 816.965408,167.132416 C816.593365,166.917769 816.245242,166.64012 815.96759,166.314853 C815.747161,166.056801 815.563715,165.691608 815.781016,165.369271 C816.018925,165.015983 816.440647,165.122757 816.760251,165.285207 C817.309299,165.564321 817.980706,166.107532 818.090737,166.75422 C818.775759,166.548181 819.47127,166.388661 820.173404,166.26577 L819.951834,166.124969 C819.544681,165.864636 819.13839,165.589243 818.832614,165.24986 C818.519267,164.901883 818.368021,164.198969 818.925717,163.990916 C819.456182,163.792935 820.069629,164.347684 820.409841,164.678811 Z M814.268631,164.963731 C814.287766,165.029664 814.298254,165.095963 814.31279,165.162261 C814.339654,165.210246 814.355845,165.264823 814.349589,165.327642 C814.495867,166.2311 814.215455,167.135658 813.572568,167.816227 C813.422058,167.975198 813.157838,167.896262 813.080743,167.714765 C812.957833,167.720809 812.839154,167.660737 812.808795,167.502499 C812.616333,166.495746 812.955441,165.480569 813.763926,164.831134 C813.937251,164.691943 814.200184,164.729854 814.268631,164.963731 Z M828.574618,167.150731 C828.445084,167.324353 828.49366,167.578193 828.652633,167.716651 C828.769472,167.81848 828.932677,167.831667 829.064972,167.775075 C829.244001,167.730204 829.347224,167.511345 829.304352,167.328748 C829.260009,167.139742 829.083187,167.012272 828.89275,167.03077 C828.772048,167.016851 828.650057,167.049634 828.574618,167.150731 Z M826.069254,162.355533 C826.762924,162.880246 827.338836,163.721435 827.559265,164.557312 C827.608944,164.745586 827.487138,164.878917 827.34086,164.918293 C827.420347,165.246856 827.402683,165.564431 827.142327,165.740068 C826.505328,166.169362 825.331608,165.502894 824.863702,165.095029 C824.091097,164.421418 823.70415,163.442504 823.371115,162.502966 C823.317019,162.350039 823.43257,162.173303 823.581976,162.133194 L823.740555,162.09209 C824.55829,161.887386 825.350387,161.81204 826.069254,162.355533 Z M829.920946,161.130251 C830.507576,161.311416 830.217619,162.133596 830.029213,162.604944 L829.963818,162.766842 C829.77154,163.246501 828.718707,164.379075 828.674179,164.408195 C828.466262,164.544639 828.131387,164.312959 828.230562,164.068826 L828.421367,163.599606 C828.427623,162.892175 828.477547,162.432052 828.571141,162.219236 C828.762682,161.783899 829.339146,160.950585 829.920946,161.130251 Z M809.546115,205.913485 C810.234265,205.912206 810.339696,206.6023 810.242729,207.23342 C810.30216,207.171883 810.365271,207.114742 810.435742,207.067307 C810.726458,206.871341 811.159772,206.872623 811.371186,207.183787 C811.627678,207.561251 811.375049,208.009775 811.147077,208.33083 C811.039806,208.482108 810.907696,208.603717 810.757738,208.669833 C810.844401,208.788145 810.91156,208.91946 810.941735,209.067992 C810.997855,209.345641 810.915424,209.698013 810.600052,209.76999 C810.283576,209.842149 809.984029,209.579701 809.814199,209.329707 L809.773731,209.407898 C809.467975,209.979893 808.968394,210.50497 808.544064,209.925114 C808.365219,209.680614 808.371843,209.363772 808.471569,209.084292 C808.15123,209.09583 807.81525,208.943636 807.7181,208.616537 C807.588933,208.1812 807.802738,207.982486 808.136326,207.908129 C807.938897,207.661798 807.872657,207.32133 808.068063,207.045696 C808.30542,206.710905 808.636615,206.735996 808.955483,206.913647 C808.887772,206.39388 808.991178,205.914587 809.546115,205.913485 Z M809.665161,207.570775 C809.549242,207.557222 809.432036,207.588906 809.359725,207.685973 C809.235343,207.852636 809.281894,208.096403 809.434428,208.229367 C809.546667,208.327167 809.703432,208.339804 809.830575,208.28541 C810.002428,208.242187 810.101419,208.032302 810.060387,207.856848 C810.017884,207.675351 809.848054,207.553009 809.665161,207.570775 Z M804.483976,201.911917 C805.829734,203.448693 805.577657,205.427034 804.916002,207.214171 C804.809651,207.50171 804.442209,207.495117 804.333834,207.214171 C804.188163,206.83668 803.988794,206.520764 803.786542,206.219388 L803.615857,205.966793 C803.257175,205.433869 802.935377,204.905054 802.944285,204.108385 C802.953485,203.293752 803.277137,202.501097 803.977799,202.08792 C804.028398,201.871075 804.304394,201.706793 804.483976,201.911917 Z M805.939654,202.484705 C806.332543,201.402464 808.551752,202.801904 809.131631,203.237766 L809.254904,203.333938 C809.649187,203.647341 810.169878,204.110208 809.955031,204.659379 C809.765605,205.14394 809.152875,205.114227 808.718499,205.060588 L808.674224,205.054974 C807.745957,204.934464 806.637188,204.306457 806.347392,203.388896 C806.057412,203.165275 805.797976,202.874989 805.939654,202.484705 Z M804.496856,195.76138 C805.517122,195.759371 805.67352,196.782607 805.529634,197.718299 C805.617768,197.627092 805.711239,197.542296 805.81575,197.471968 C806.246672,197.181315 806.889191,197.18333 807.202539,197.644674 C807.583045,198.204368 807.208243,198.869187 806.870607,199.345183 C806.711265,199.569537 806.515676,199.749752 806.293223,199.847918 C806.421653,200.023372 806.521196,200.217873 806.565907,200.43838 C806.649258,200.849909 806.527084,201.372424 806.059362,201.479015 C805.590353,201.585972 805.146183,201.196787 804.89429,200.826283 L804.846998,200.918275 C804.394844,201.775546 803.646191,202.576747 803.01126,201.708863 C802.74612,201.346417 802.755688,200.876648 802.903622,200.462373 C802.428724,200.479405 801.930827,200.253769 801.786757,199.768799 C801.595032,199.12321 801.912059,198.828895 802.406644,198.718458 C802.113904,198.353448 802.015834,197.848699 802.30563,197.439917 C802.657433,196.943409 803.148338,196.980771 803.621212,197.244134 C803.520749,196.47364 803.674203,195.762851 804.496856,195.76138 Z M810.194595,198.150871 C810.439312,198.154534 810.549894,198.399583 810.45532,198.603058 C809.841688,199.925554 808.853806,201.004832 807.597471,201.749686 C807.396368,201.868907 806.536507,200.315789 807.822132,198.837851 C808.412455,198.159222 809.352071,198.138051 810.194595,198.150871 Z M804.220308,198.389162 C804.035942,198.636226 804.104941,198.997755 804.331258,199.19482 C804.497776,199.339872 804.730165,199.358553 804.918578,199.277969 C805.173231,199.213868 805.320244,198.902703 805.259341,198.642453 C805.19623,198.373411 804.944338,198.192097 804.673309,198.218287 C804.501456,198.198507 804.327762,198.245209 804.220308,198.389162 Z M844.483739,169.797902 C844.966549,169.442233 845.688003,170.052841 846.009998,170.390745 C846.424545,170.825533 846.674413,171.35629 846.774508,171.936496 L846.844427,172.044368 C846.848659,172.016897 846.734138,170.949205 847.676648,170.632497 C848.619157,170.315789 848.130385,173.036286 847.925228,173.51155 C847.949516,173.576933 848.147497,174.093404 848.256424,174.271055 C848.329287,173.50111 848.752849,172.813215 849.423704,172.379525 C849.631621,172.245096 849.858674,172.42696 849.877993,172.639043 C849.972752,173.682974 849.635669,174.680203 848.961502,175.46773 C849.260866,175.99574 849.545142,176.531807 849.808994,177.078864 C849.951592,176.360383 850.360251,175.712596 850.99173,175.252534 C851.057238,175.204775 851.406397,175.070547 851.530536,175.315789 C851.798662,175.845484 851.719391,177.211537 850.412322,178.464179 L850.481321,178.633589 C850.618767,178.996584 850.034759,179.152075 849.898969,178.793475 C849.885844,178.758677 849.81709,178.589634 849.692708,178.286344 L848.051082,178.061624 C847.665608,178.008878 847.251061,178.015288 847.121895,177.592038 C847.092824,177.496986 847.120607,177.36567 847.199542,177.299738 C847.738103,176.849382 848.486237,176.74737 849.1041,177.004507 C848.900415,176.598472 848.687714,176.197383 848.463973,175.802154 C847.705903,176.095737 846.702013,175.87761 846.050846,175.507106 C845.835937,175.384948 845.877704,175.118471 846.050846,174.988071 C846.545247,174.616102 847.158879,174.48442 847.744543,174.581671 C847.658432,174.441381 847.135082,174.196169 846.964577,174.183932 L846.723725,174.164464 C845.983503,174.110253 845.247329,174.019596 844.513915,173.906046 C844.277846,173.869417 844.239391,173.551842 844.380701,173.403677 C844.967653,172.788124 845.799505,172.619813 846.517464,172.896729 C846.558863,172.868342 846.601918,172.854789 846.645158,172.847463 L846.4676,172.572012 C845.707779,172.421053 844.994572,171.734864 844.698075,171.336159 C844.401579,170.937455 843.973321,170.173905 844.483739,169.797902 Z M839.406403,165.659002 C840.570555,165.65681 840.748848,166.824365 840.584906,167.891922 C840.685369,167.788078 840.792088,167.691194 840.911134,167.610976 C841.402959,167.279299 842.136005,167.28168 842.493696,167.808041 C842.927746,168.44667 842.50032,169.205443 842.114846,169.748471 C841.93324,170.004509 841.709867,170.210181 841.456135,170.322084 C841.602597,170.522262 841.716307,170.744235 841.76709,170.995877 C841.862217,171.465463 841.722931,172.061603 841.189154,172.183394 C840.65409,172.30537 840.14736,171.861424 839.859772,171.43854 L839.810185,171.535182 C839.294675,172.516437 838.437571,173.438711 837.71105,172.445476 C837.408558,172.032116 837.419598,171.496048 837.588324,171.023166 C837.046451,171.042762 836.478267,170.785076 836.313957,170.231793 C836.095184,169.49518 836.456739,169.159291 837.021243,169.033286 C836.687288,168.616813 836.575417,168.040819 836.905877,167.57453 C837.307543,167.007877 837.867632,167.050367 838.407112,167.351092 C838.292482,166.471809 838.467464,165.660839 839.406403,165.659002 Z M832.660062,168.550459 C833.340484,168.961621 833.101656,170.330087 832.935506,170.933003 C832.879019,171.138126 832.585337,171.219791 832.430801,171.065601 C831.415558,170.052632 831.778346,168.433063 831.853233,168.210174 C831.927384,167.989667 832.474241,167.947368 832.660062,168.550459 Z M834.826319,170.122235 C834.684178,170.267746 834.360253,170.19879 834.321798,169.989454 C834.133937,168.970797 834.560075,167.970088 835.440687,167.411494 C835.760714,167.208507 836.179632,168.736842 834.826319,170.122235 Z M839.090847,168.657471 C838.880354,168.939516 838.959105,169.35196 839.217437,169.577046 C839.407323,169.742427 839.672463,169.763855 839.887556,169.671733 C840.178088,169.598658 840.345894,169.243538 840.276343,168.946658 C840.2044,168.639706 839.916996,168.432568 839.607696,168.462604 C839.411555,168.439894 839.213389,168.493373 839.090847,168.657471 Z M834.083448,162.272234 C834.962956,162.27059 835.097642,163.152621 834.973627,163.959195 C835.049618,163.880625 835.130209,163.80755 835.220184,163.746929 C835.591859,163.496385 836.145691,163.498034 836.4158,163.895826 C836.743867,164.378232 836.420768,164.951479 836.129684,165.361909 C835.992421,165.555311 835.823696,165.710618 835.63197,165.795232 C835.742737,165.94651 835.82848,166.114089 835.866935,166.304194 C835.938878,166.659131 835.833632,167.109486 835.430309,167.201425 C835.026067,167.293548 834.643168,166.958208 834.425867,166.638618 L834.382832,166.722244 C833.992923,167.459678 833.348739,168.146301 832.802457,167.399589 C832.573932,167.087142 832.582396,166.682024 832.709906,166.324889 C832.300328,166.339724 831.871062,166.14504 831.746864,165.726918 C831.581818,165.170521 831.85487,164.916681 832.281376,164.821445 C832.029116,164.506801 831.944477,164.071646 832.194162,163.719274 C832.497573,163.291262 832.920768,163.323496 833.328506,163.550597 C833.241843,162.886144 833.374137,162.273521 834.083448,162.272234 Z M844.243144,166.14178 L844.336576,166.15664 C844.713409,166.221332 845.286712,166.378463 845.423488,166.749824 C845.797555,167.765551 842.93897,167.506766 842.497192,167.465924 C842.340794,167.451456 842.187157,167.338455 842.195252,167.165382 C842.224692,166.532064 842.603359,166.283718 843.08764,166.235551 C843.458579,166.121451 843.845526,166.08354 844.243144,166.14178 Z M838.877281,162.879862 C839.062383,163.852732 838.82634,164.789474 837.76888,165.581446 C837.589299,165.749024 837.231056,165.688403 837.263439,165.38841 C837.370526,164.397957 837.739257,163.518674 838.372576,162.747264 C838.51223,162.577305 838.836986,162.668328 838.877281,162.879862 Z M833.844987,164.537569 C833.686013,164.750568 833.745444,165.062282 833.940666,165.232241 C834.084,165.357147 834.284373,165.373447 834.446843,165.303851 C834.666536,165.248725 834.793126,164.980233 834.740503,164.756062 C834.686223,164.524017 834.469106,164.36761 834.23543,164.39032 C834.087312,164.373288 833.937538,164.41358 833.844987,164.537569 Z M852.400323,186.76751 C853.568339,186.765318 853.747368,187.936719 853.582691,189.007755 C853.683521,188.903362 853.790608,188.806295 853.910022,188.725711 C854.403503,188.393118 855.138941,188.395316 855.497736,188.923325 C855.933258,189.564152 855.50436,190.325306 855.117598,190.870165 C854.93544,191.127119 854.711331,191.333341 854.456863,191.445793 C854.603877,191.64652 854.717771,191.869226 854.768922,192.121601 C854.864233,192.592835 854.724579,193.190806 854.188962,193.312964 C853.652058,193.435489 853.143673,192.989895 852.855349,192.565729 L852.805599,192.662685 C852.288409,193.647125 851.428472,194.572394 850.699634,193.576145 C850.396038,193.161136 850.407078,192.62342 850.57654,192.149073 C850.032827,192.168669 849.462619,191.91025 849.297941,191.355135 C849.078432,190.616142 849.441275,190.279154 850.00762,190.152783 C849.672376,189.734844 849.560138,189.157019 849.891885,188.689082 C850.294656,188.12078 850.856584,188.163453 851.397905,188.465094 L851.384839,188.352902 C851.299233,187.515114 851.49852,186.769269 852.400323,186.76751 Z M849.11928,189.298097 L849.19844,189.322937 C849.211687,189.327379 849.225017,189.332345 849.23851,189.338389 C849.38258,189.40249 849.429132,189.624096 849.346885,189.749551 L849.297958,189.820133 C848.868616,190.418066 846.672481,193.101203 846.30927,191.83375 C846.143305,191.25446 846.653714,190.46327 847.009749,190.047712 C847.461463,189.520802 848.07215,189.162569 848.747973,189.00781 C848.965642,188.957995 849.106584,189.127954 849.11928,189.298097 Z M852.083847,189.775686 C851.872802,190.058646 851.951737,190.472556 852.210805,190.698191 C852.401427,190.864121 852.667303,190.88555 852.883132,190.793244 C853.174768,190.719986 853.342942,190.363584 853.273207,190.065789 C853.20108,189.757738 852.912756,189.55005 852.602352,189.580269 C852.405659,189.557376 852.206758,189.611038 852.083847,189.775686 Z M857.939604,186.919692 C858.51478,186.951376 859.834226,187.349352 859.987128,188.02809 C860.153921,188.768637 858.652915,188.8086 858.197618,188.855582 L857.71024,188.914828 C856.919223,189.006936 855.828008,189.075025 855.44147,188.450241 C855.336959,188.281564 855.439262,188.062888 855.621971,188.00886 L855.751322,187.972414 C856.268355,187.276277 857.050528,186.870792 857.939604,186.919692 Z M848.661881,183.678904 C849.407622,183.677443 849.521885,184.42541 849.416638,185.109094 C849.481037,185.042429 849.549484,184.980525 849.625843,184.929061 C849.940847,184.716795 850.410409,184.718261 850.639485,185.055249 C850.917506,185.464397 850.643717,185.950466 850.396793,186.29826 C850.280506,186.462358 850.137356,186.59404 849.974887,186.66565 C850.068725,186.794035 850.141404,186.936156 850.174156,187.097325 C850.235059,187.398233 850.14582,187.780092 849.803769,187.857929 C849.461166,187.936133 849.13641,187.651707 848.952229,187.380835 L848.911151,187.460408 C848.580169,188.082383 848.036912,188.65618 847.575927,188.025874 C847.382178,187.761045 847.38917,187.417647 847.49736,187.114907 C847.150157,187.127361 846.78621,186.962346 846.680964,186.607959 C846.540942,186.136176 846.772594,185.920979 847.134149,185.840212 C846.92016,185.573368 846.848401,185.204513 847.060182,184.905802 C847.317411,184.542807 847.676206,184.570096 848.021753,184.762582 C847.948338,184.199408 848.060577,183.680007 848.661881,183.678904 Z M854.392077,181.282294 C855.301209,181.28065 855.440679,182.192533 855.312433,183.026213 C855.390999,182.944896 855.47435,182.86944 855.567269,182.806621 C855.951456,182.547653 856.523872,182.549484 856.80318,182.960647 C857.142103,183.459353 856.808332,184.05183 856.507312,184.475995 C856.36545,184.675991 856.19102,184.836609 855.992855,184.92397 C856.107302,185.080377 856.195988,185.253632 856.235732,185.450148 C856.310067,185.816989 856.201324,186.282546 855.784386,186.377598 C855.366528,186.472834 854.970749,186.126139 854.746272,185.795927 L854.701775,185.882348 C854.298636,186.644437 853.632937,187.354129 853.068215,186.582355 C852.831963,186.259469 852.840426,185.840798 852.972353,185.471576 C852.549158,185.486777 852.105356,185.285683 851.97711,184.853459 C851.806361,184.278198 852.088613,184.015933 852.529471,183.917584 C852.268562,183.592317 852.181163,183.142327 852.439312,182.778234 C852.753028,182.335753 853.19039,182.368903 853.611744,182.603696 L853.599819,182.498561 C853.537893,181.853788 853.696449,181.283688 854.392077,181.282294 Z M848.459667,185.599558 C848.324981,185.78014 848.375396,186.044419 848.54081,186.188555 C848.662433,186.294414 848.832262,186.308149 848.970076,186.249176 C849.156282,186.202474 849.263552,185.974824 849.219025,185.784719 C849.173026,185.58802 848.989028,185.455423 848.790863,185.474653 C848.665192,185.460184 848.538234,185.494249 848.459667,185.599558 Z M854.145705,183.624001 C853.981395,183.844325 854.04285,184.166479 854.244511,184.342116 C854.392813,184.471234 854.599994,184.4879 854.767984,184.416107 C854.994853,184.358965 855.125859,184.081682 855.071396,183.84982 C855.015277,183.610082 854.790984,183.448364 854.549395,183.471807 C854.396309,183.454042 854.241383,183.495799 854.145705,183.624001 Z M848.044845,179.754551 C848.354487,179.526316 849.104043,179.582007 850.079489,180.300142 C851.530536,181.368421 851.599311,182.918628 851.530536,183.473684 C851.33464,183.708102 851.075793,183.762707 850.780519,183.637792 C849.692506,183.17751 848.888492,182.519925 848.368479,181.665038 C848.045963,181.186211 847.494541,180.160177 848.044845,179.754551 Z M833.695931,214.384367 C834.328882,214.887102 834.60543,215.723346 834.927242,216.43267 C835.046656,216.696033 834.795499,217.000605 834.513983,216.844015 C834.347834,216.751527 834.1769,216.661785 834.00523,216.572044 C833.972295,216.562886 833.941383,216.548052 833.914336,216.524426 L833.660632,216.390002 C832.874034,215.967247 832.126028,215.490703 831.790821,214.642419 C831.588791,214.536561 831.555856,214.170086 831.842156,214.079246 C832.476027,213.877969 833.168226,213.965329 833.695931,214.384367 Z M845.778346,208.258524 C846.147261,210.135402 845.617716,212.130776 845.340432,213.99172 C845.293144,214.309295 844.843086,214.243912 844.75808,213.99172 C844.360645,212.812628 844.060729,211.172923 844.364325,209.795117 C844.032394,210.192177 843.660351,210.599127 843.25482,210.998202 C843.29392,211.112668 843.308295,211.240656 843.315509,211.363653 L843.335648,211.834462 C843.356234,212.436822 843.322948,213.259723 842.622421,213.327817 C842.503191,213.339355 842.348633,213.225805 842.331153,213.107126 C842.268594,212.682777 842.263074,212.265388 842.317353,211.853493 C841.761681,212.321247 841.165345,212.754204 840.545825,213.121228 C840.556865,213.515175 840.528898,213.909671 840.398811,214.283472 C840.274061,214.641339 839.966785,215.221362 839.490784,215.033088 C839.06483,214.864777 839.123893,214.194097 839.20798,213.840625 L839.227483,213.776524 C837.85339,214.322848 836.424098,214.452149 835.100788,213.823959 C834.906119,213.731653 834.900415,213.395581 835.100788,213.304924 C835.817826,212.981122 836.973644,212.684211 837.548875,213.622682 C838.219729,213.540632 838.898496,213.3117 839.560887,212.986616 L839.464472,212.983686 C838.875312,212.953467 838.318168,212.812994 837.979613,212.295973 C837.848606,212.095978 838.023404,211.853127 838.240337,211.843786 C838.986079,211.811736 839.719309,211.88591 840.442603,212.052023 C840.585201,211.905506 840.82955,212.000376 840.908852,212.182972 C841.307023,211.906239 841.69029,211.603316 842.055525,211.288305 L841.913388,211.299126 C841.154392,211.34914 840.162975,211.286602 840.330916,210.605721 C840.431931,210.196756 841.019619,210.112143 841.372342,210.094561 C841.926542,210.066906 842.473383,210.23888 842.99152,210.4147 C843.586936,209.813065 844.098449,209.205571 844.484659,208.668038 C844.585122,208.528664 844.744832,208.511998 844.871054,208.563828 C844.961213,208.427567 845.058364,208.296069 845.171706,208.175559 C845.217889,208.126293 845.269041,208.104681 845.320376,208.093876 C845.481006,207.993512 845.737314,208.049554 845.778346,208.258524 Z M849.058229,208.844975 C849.247747,208.877758 849.302762,209.035996 849.264491,209.179766 C849.267987,209.190754 849.274979,209.197531 849.277554,209.209618 L849.305338,209.366574 C849.59219,209.718581 849.744172,210.313255 849.789803,210.660866 C849.879778,211.34345 849.723012,212.004973 849.350969,212.581882 C849.250323,212.738106 849.013702,212.790852 848.876808,212.642687 C848.264096,211.979516 847.902357,211.130635 847.932717,210.220583 C847.956085,209.517853 848.205217,208.698092 849.058229,208.844975 Z M834.298582,208.564262 L834.384523,208.567509 C834.596672,208.579597 834.70707,208.749007 834.675607,208.947903 C834.581881,209.542831 834.150775,210.011876 833.716588,210.421056 L833.310115,210.795856 C832.903194,211.166159 832.44443,211.545437 831.890437,211.590148 C831.761087,211.862669 831.281221,211.83245 831.318941,211.487769 C831.413883,210.619109 831.680864,210.03469 832.323751,209.439649 C832.877853,208.926965 833.529476,208.549668 834.298582,208.564262 L834.298582,208.564262 Z M852.427683,209.199051 C852.564209,209.348315 852.532746,209.560581 852.366596,209.671201 C851.849738,210.014968 851.426971,209.791796 851.008895,209.514475 L850.826654,209.391717 C850.594671,209.235309 850.36014,209.085158 850.107843,209.028542 C849.87527,208.976346 849.829639,208.684961 849.974629,208.526173 C850.179602,208.301453 850.401135,208.224715 850.619724,208.240466 L850.630948,208.237535 C851.380554,208.159332 851.957386,208.685876 852.427683,209.199051 Z M847.647337,202.970183 C848.597316,202.968357 848.742858,203.921265 848.609092,204.792489 C848.690971,204.70751 848.778185,204.628574 848.875336,204.563007 C849.276634,204.292501 849.874994,204.294333 850.166814,204.723809 C850.521009,205.245042 850.17215,205.864258 849.857699,206.307471 C849.709397,206.516441 849.527055,206.684202 849.320058,206.775592 C849.439656,206.938958 849.532391,207.120089 849.573974,207.325396 C849.651437,207.70872 849.537911,208.195155 849.102205,208.29442 C848.665579,208.394052 848.251953,208.031606 848.017356,207.686559 L847.97171,207.775282 C847.550541,208.572468 846.854334,209.315602 846.26386,208.508518 C846.016935,208.17098 846.025951,207.733445 846.163765,207.34774 C845.721435,207.363673 845.257762,207.153422 845.123627,206.701784 C844.945334,206.100883 845.240282,205.82653 845.701012,205.723786 C845.428327,205.383867 845.337065,204.913915 845.606805,204.533338 C845.934504,204.071078 846.391554,204.105692 846.832044,204.350925 C846.738389,203.633542 846.881171,202.971653 847.647337,202.970183 Z M840.081048,208.258762 C841.307207,207.160436 842.875601,206.714293 844.500299,206.984433 C844.736736,207.02381 844.763968,207.259152 844.661665,207.418855 L844.657433,207.44358 C844.435034,208.040517 843.628992,208.182067 843.073774,208.322041 L842.802544,208.393551 C841.992926,208.610833 841.022502,208.885197 840.214262,208.761131 C839.990337,208.726699 839.923914,208.399418 840.081048,208.258762 Z M847.389924,205.4172 C847.218071,205.647231 847.28247,205.984036 847.493147,206.167548 C847.648073,206.302526 847.864454,206.319925 848.039987,206.244836 C848.27716,206.185313 848.414054,205.895393 848.357199,205.653091 C848.298504,205.402548 848.064091,205.233687 847.811647,205.258046 C847.651569,205.239548 847.489835,205.283137 847.389924,205.4172 Z M843.005669,202.894879 C844.119755,202.947368 844.384425,203.473684 844.71979,203.835516 C845.105632,204.64795 843.5837,204.917498 842.891829,204.834451 C842.199959,204.751405 840.725745,204.156641 841.664328,203.368494 C842.033243,203.058611 842.527374,202.872344 843.005669,202.894879 Z M852.848762,195.22812 L852.867897,195.44643 C853.607751,195.597342 854.204087,196.111799 854.414028,196.854821 C854.462603,197.026795 854.321109,197.255911 854.122944,197.235215 C853.713182,197.192359 853.323475,197.091995 852.950696,196.943097 C852.957872,197.38631 852.942416,197.828974 852.916473,198.271637 L852.955712,198.27663 C852.96237,198.277823 852.969219,198.279574 852.976456,198.282443 C853.531944,198.505881 853.934347,198.920706 854.112272,199.494319 C854.175935,199.700358 853.95753,199.945407 853.740781,199.86409 C853.422098,199.744496 853.113534,199.605671 852.813986,199.449448 C852.800554,199.561167 852.787858,199.672886 852.771667,199.784788 L852.738488,200.022596 C852.621531,200.888308 852.487446,202.082121 852.07266,202.896985 C852.030157,203.407595 851.265865,204.789474 851.001194,204.789474 C850.757492,204.789474 850.697222,203.747223 850.736524,203.473684 C851.001194,201.631579 851.726929,201.932539 851.82132,201.96459 C852.072844,201.137686 852.169995,200.079653 852.239546,199.315019 C851.872471,199.586258 851.488652,199.833138 851.083122,200.047969 C850.796086,200.200163 850.555601,199.903466 850.670047,199.636806 C850.931324,199.02748 851.468964,198.631152 852.100076,198.493976 L852.319401,198.30497 C852.351232,197.748939 852.356936,197.193458 852.336881,196.637977 L852.274873,196.603179 C851.918102,197.047491 851.382486,197.314334 850.79811,197.332649 C850.619632,197.338326 850.432691,197.13302 850.507026,196.952255 C850.812093,196.210148 851.4743,195.720416 852.280577,195.66767 L852.258007,195.374718 C852.254041,195.325879 852.249727,195.27702 852.244698,195.22812 C852.20569,194.842964 852.809938,194.846994 852.848762,195.22812 Z M847.83794,198.835964 C848.346325,198.354291 848.742655,199.114712 848.894269,199.51745 C849.217001,200.375122 849.41317,202.947368 848.883828,202.947368 C848.873549,202.947368 848.402076,202.596681 848.08284,202.173614 C847.763605,201.750547 847.55348,201.256603 847.478961,200.71852 C847.406466,200.195456 847.41217,199.239435 847.83794,198.835964 Z M825.320439,214.603519 C825.2358,214.574765 825.165145,214.571469 825.100194,214.578062 C825.016107,214.560663 824.92558,214.578062 824.847933,214.661943 C824.038061,215.536385 823.605841,216.692714 823.723151,217.882112 L823.752522,218.132091 C823.795709,218.476205 823.885222,218.982267 824.280853,218.999568 C824.728335,219.019165 824.998443,218.366799 825.135522,218.054902 C825.424373,217.398166 825.606637,216.699949 825.67618,215.986756 L825.702657,215.665333 C825.732123,215.275207 825.744296,214.747325 825.320439,214.603519 Z M811.755759,211.037194 C811.727055,211.067047 811.704423,211.101661 811.679032,211.134078 C810.980577,211.463008 810.718749,212.491921 810.619206,213.189157 C810.476056,214.191697 810.732733,215.128488 811.410395,215.885613 C811.564585,216.058136 811.856405,215.961069 811.9151,215.753016 L811.987685,215.49307 C812.381828,214.063578 812.679773,212.636711 812.260464,211.169791 C812.199377,210.95606 811.9151,210.872179 811.755759,211.037194 Z M809.969474,210.977653 C809.932307,210.951463 809.893115,210.933332 809.853188,210.918497 C809.806637,210.850733 809.731014,210.804763 809.618039,210.816668 C808.826666,210.89945 808.047069,211.141569 807.473733,211.718844 C807.144745,212.050338 806.440403,213.084196 806.863597,213.550119 C807.269739,213.99734 808.258851,213.253383 808.652233,212.979202 L808.818964,212.865077 C809.342462,212.502696 810.01673,211.961058 810.108208,211.317022 C810.128816,211.171971 810.090913,211.062999 809.969474,210.977653 Z M818.438547,203.575339 C817.977633,203.400984 817.261147,203.739071 816.904192,204.005915 C816.425247,204.363965 816.119995,204.886663 816.0153,205.470715 C815.958629,205.786458 817.026215,205.696045 817.652679,205.315789 C818.279143,204.935534 818.634872,204.31653 818.660264,203.865259 C818.668176,203.724419 818.559065,203.620942 818.438547,203.575339 Z M824.89132,212.369799 C825.010182,212.567597 825.37229,212.506426 825.439449,212.27438 C825.712133,211.330813 825.581863,210.35721 825.069798,209.518036 C824.977615,209.366941 824.722042,209.302107 824.595452,209.457231 L824.502182,209.573093 C824.24107,209.903221 824.014271,210.25194 824.013275,210.691268 C824.011996,211.233563 824.268121,211.795271 824.482478,212.283355 C824.567301,212.476024 824.758106,212.469431 824.89132,212.369799 Z M815.663092,213.169927 C815.481119,213.14392 815.270626,213.244101 815.280929,213.459847 L815.289761,213.526146 C815.286449,213.537317 815.279458,213.544277 815.277066,213.556365 C815.161515,214.146094 815.285713,214.712381 815.637333,215.203578 C815.918849,215.596792 816.405338,216.103923 816.910043,216.17535 C817.086313,216.200258 817.309686,216.101725 817.292206,215.885613 L817.281677,215.771562 C817.182519,214.817205 816.756135,213.326359 815.663092,213.169927 Z M815.581195,210.176738 C815.406029,210.251645 815.190016,210.234246 815.035274,210.099451 C814.824965,209.916305 814.76075,209.580232 814.932052,209.350384 C815.031963,209.216688 815.193512,209.173282 815.353222,209.19178 C815.605115,209.167238 815.839343,209.335916 815.897855,209.58591 C815.954526,209.827845 815.818,210.117216 815.581195,210.176738 Z M816.415072,208.49784 C816.318105,208.563223 816.231258,208.641976 816.149195,208.726773 C816.282961,207.857013 816.137603,206.905937 815.18928,206.907581 C814.424403,206.90905 814.281805,207.569657 814.375092,208.286124 C813.935522,208.041258 813.479208,208.006643 813.15206,208.468171 C812.882872,208.848015 812.973951,209.317235 813.246083,209.656604 C812.786273,209.759166 812.491693,210.032969 812.669803,210.632954 C812.803569,211.083859 813.266507,211.293744 813.708101,211.277811 C813.570655,211.662966 813.561639,212.099586 813.808011,212.436574 C814.419435,213.272086 815.144201,212.443351 815.558563,211.616081 C815.792792,211.960578 816.205682,212.322291 816.641572,212.222843 C817.076542,212.123761 817.190069,211.638059 817.112606,211.255467 C817.071023,211.050527 816.978472,210.869762 816.859057,210.706579 C817.065871,210.615372 817.247844,210.447794 817.395778,210.239191 C817.709678,209.796711 818.057985,209.178593 817.704526,208.658276 C817.413074,208.229532 816.815818,208.2277 816.415072,208.49784 Z M813.376151,204.887505 C813.269432,204.933292 813.13769,204.922669 813.043299,204.840437 C812.915053,204.728718 812.876046,204.523778 812.980556,204.383854 C813.041275,204.302354 813.139714,204.275798 813.237233,204.28697 C813.390871,204.272135 813.533469,204.37488 813.569164,204.527441 C813.603756,204.674873 813.520405,204.851242 813.376151,204.887505 Z M814.482344,204.9256 C814.673701,204.655826 814.886034,204.279095 814.670389,203.961886 C814.492832,203.700537 814.1287,203.699438 813.884536,203.864086 C813.825289,203.904012 813.772297,203.951996 813.722434,204.003643 C813.803945,203.473436 813.715258,202.893597 813.137138,202.894692 C812.670888,202.895611 812.584042,203.298349 812.640897,203.734969 C812.372997,203.585705 812.094792,203.564643 811.895339,203.845955 C811.731213,204.077634 811.786781,204.363525 811.952746,204.57048 C811.672334,204.632933 811.492753,204.799778 811.601311,205.165704 C811.683006,205.440422 811.965258,205.568441 812.234446,205.558735 C812.150544,205.793528 812.145024,206.059638 812.295166,206.265128 C812.667945,206.774457 813.109722,206.269157 813.362351,205.764957 C813.505133,205.974842 813.756842,206.19535 814.022534,206.134728 C814.287674,206.07429 814.356857,205.778326 814.30957,205.544999 C814.284362,205.420093 814.227875,205.309839 814.155196,205.210391 C814.28105,205.154898 814.392001,205.052703 814.482344,204.9256 Z M829.064567,212.756567 C828.922521,212.817371 828.747539,212.803269 828.622237,212.693931 C828.451671,212.545583 828.399784,212.273245 828.538702,212.086986 C828.619477,211.978563 828.750299,211.943399 828.879833,211.958417 C829.084071,211.938638 829.273772,212.075264 829.321243,212.277824 C829.367059,212.47379 829.256476,212.708399 829.064567,212.756567 Z M829.74039,211.39616 C829.661639,211.449089 829.591168,211.513007 829.524929,211.581686 L829.538539,211.483006 C829.620925,210.80692 829.479622,210.106323 828.746987,210.107542 C828.1271,210.108828 828.011549,210.644163 828.087356,211.224552 C827.731137,211.026205 827.361302,210.998001 827.096162,211.372168 C826.878125,211.679853 826.951908,212.060246 827.172337,212.335148 C826.799742,212.418296 826.561097,212.640086 826.705351,213.126338 C826.81391,213.491531 827.189081,213.661673 827.546772,213.64867 C827.435453,213.960934 827.428093,214.314771 827.627731,214.587659 C828.123052,215.264749 828.710372,214.593153 829.046167,213.922839 C829.236053,214.201954 829.57056,214.49517 829.923835,214.414586 C830.27619,214.334185 830.368189,213.940788 830.305446,213.630722 C830.271774,213.464609 830.196887,213.318092 830.100105,213.185861 C830.267542,213.112053 830.414924,212.976159 830.534891,212.807298 L830.589627,212.728358 C830.826778,212.377546 831.051135,211.91768 830.784943,211.526193 C830.548875,211.178766 830.064961,211.1773 829.74039,211.39616 Z M821.367345,213.992105 C821.207267,214.060602 821.010022,214.044668 820.868896,213.921594 C820.676619,213.754199 820.618108,213.447429 820.774689,213.237544 C820.865768,213.115386 821.013334,213.075643 821.159244,213.092676 C821.389241,213.070149 821.603046,213.224175 821.656589,213.452558 C821.708293,213.673431 821.583542,213.937711 821.367345,213.992105 Z M822.128911,212.458991 C822.040224,212.518697 821.960921,212.590673 821.886034,212.667961 C822.008208,211.873841 821.875362,211.00518 821.00947,211.006824 C820.310832,211.00811 820.180746,211.611393 820.26612,212.265589 C819.864638,212.041968 819.447884,212.010284 819.149072,212.431886 C818.903251,212.778764 818.986418,213.207325 819.234998,213.517208 C818.814932,213.610796 818.545928,213.86079 818.708582,214.408762 C818.83094,214.820474 819.253766,215.012044 819.656905,214.997576 C819.531234,215.349216 819.523139,215.748107 819.748167,216.055792 C820.306416,216.818778 820.968255,216.062019 821.346738,215.306543 C821.560543,215.621187 821.937553,215.951399 822.335724,215.860559 C822.732791,215.770085 822.836381,215.326689 822.765726,214.977246 C822.727823,214.790071 822.643368,214.624874 822.534257,214.475976 C822.723039,214.392645 822.889188,214.239718 823.024427,214.049247 L823.08198,213.966343 C823.350663,213.57018 823.607699,213.048916 823.306311,212.605508 C823.04025,212.213942 822.494882,212.212294 822.128911,212.458991 Z" id="10"></path>
        </g>
    </g>
</svg>
