<?xml version="1.0" encoding="UTF-8"?>
<svg width="61px" height="58px" viewBox="0 0 61 58" version="1.1" xmlns="http://www.w3.org/2000/svg" xmlns:xlink="http://www.w3.org/1999/xlink">
    <title>35</title>
    <g id="页面-1" stroke="none" stroke-width="1" fill="none" fill-rule="evenodd">
        <g id="花环" transform="translate(-398.000000, -406.000000)" fill="#545458">
            <path d="M409.667718,412.655143 L409.291841,413.255306 L408.918211,413.877276 C408.890899,413.923712 408.862682,413.972431 408.833759,414.023522 L408.436674,414.740158 L408.325472,414.952492 C408.017388,415.543283 407.660017,416.27562 407.295595,417.136037 L407.534962,417.00527 C407.864148,416.82329 408.261721,416.569446 408.573521,416.279669 C408.799547,415.62941 408.905026,415.190109 409.109028,414.8389 C409.213348,414.663874 409.344327,414.513191 409.529784,414.372939 C409.7164,414.236164 409.965608,414.114458 410.295954,413.996229 C411.088783,413.719203 412.242094,413.578951 413.182129,413.589383 C413.64809,413.584746 414.065369,413.617201 414.359782,413.646179 L414.832697,413.699498 L414.708812,413.758102 L414.46284,413.885845 C414.394258,413.922157 414.316811,413.964367 414.232206,414.014849 L414.100142,414.097071 C413.637658,414.381052 412.98624,414.860923 412.262958,415.610865 L411.972747,415.892528 C411.879004,415.98004 411.787145,416.060598 411.693836,416.132463 C411.50722,416.275033 411.334513,416.396739 411.160647,416.489468 C410.814074,416.676084 410.490684,416.768812 410.190475,416.796631 C409.58774,416.853427 409.08121,416.647106 408.736955,416.497581 C408.586271,416.575241 408.405451,416.691152 408.209562,416.822131 C408.011354,416.95311 407.805033,417.103794 407.619576,417.256796 C407.431801,417.408639 407.260253,417.558164 407.129274,417.687984 L407.018558,417.811579 C406.759654,418.467784 406.50126,419.189244 406.259944,419.969106 C405.926121,421.042439 405.623595,422.224728 405.397569,423.49279 L405.356412,423.730906 C405.422341,423.678755 405.495923,423.618969 405.573753,423.553064 C405.856575,423.308492 406.222853,422.986261 406.466265,422.638529 C406.524221,422.297751 406.552039,422.012611 406.585653,421.764562 C406.623904,421.517672 406.662154,421.306715 406.730541,421.113144 C406.87543,420.72948 407.126956,420.409566 407.748237,420.050243 C408.473838,419.616737 409.607444,419.242346 410.539366,419.023275 L410.991289,418.925481 C411.20611,418.881563 411.402386,418.845084 411.571857,418.815897 L411.938154,418.758401 L412.216091,418.721737 C412.224707,418.720748 412.162116,418.768271 412.046205,418.865636 L411.789579,419.098227 C411.721423,419.162599 411.645849,419.235391 411.562857,419.316529 L411.326917,419.561434 C410.993171,419.918164 410.587694,420.397175 410.169343,421.016749 L410.011973,421.255714 C409.386055,422.232841 408.764774,422.67562 408.17247,422.846009 C407.579008,423.016397 407.044659,422.90976 406.672586,422.825145 C406.447057,423.006959 406.134666,423.304589 405.859502,423.615115 L405.725596,423.770976 C405.510076,424.020948 405.334428,424.266489 405.242675,424.438698 C405.097716,425.423251 404.996668,426.452532 404.975654,427.510254 C404.956559,428.513963 404.997521,429.542647 405.109613,430.579268 L405.224684,430.430139 L405.286295,430.346588 C405.507684,430.039425 405.796301,429.640692 405.955099,429.247755 L405.894603,428.524213 L405.879757,428.370311 C405.851939,428.123422 405.84962,427.910146 405.878598,427.708461 C405.930758,427.305092 406.128965,426.941133 406.665632,426.467058 C406.987863,426.187713 407.401664,425.899096 407.857193,425.635979 C408.194493,425.43951 408.552657,425.256733 408.898433,425.095473 L409.238848,424.941674 C409.603967,424.779399 409.952987,424.646102 410.22688,424.546477 L410.66009,424.395202 C410.784716,424.353717 410.855802,424.331984 410.855802,424.331984 L410.759958,424.442219 L410.575567,424.672919 C410.498705,424.770868 410.408155,424.889514 410.312181,425.028607 L410.103774,425.339275 C409.848515,425.735648 409.555771,426.251066 409.277226,426.888709 L409.15887,427.169477 C409.048755,427.430276 408.945594,427.657461 408.828525,427.859145 C408.709137,428.06083 408.594385,428.235855 408.47152,428.388857 C408.226948,428.694861 407.951081,428.909296 407.67985,429.057662 C407.144343,429.354393 406.585653,429.377575 406.203148,429.381052 C406.12317,429.481025 406.034063,429.60447 405.942186,429.742585 L405.84962,429.885264 C405.788188,429.982629 405.723278,430.08463 405.666482,430.18895 L405.504207,430.501909 C405.359389,430.800699 405.239073,431.088135 405.194324,431.275819 L405.277022,431.814017 C405.51232,433.267537 405.886712,434.721057 406.390923,436.127054 C406.521184,436.494137 406.660819,436.857761 406.809245,437.217253 L406.892252,437.035225 L406.935703,436.932633 C407.089865,436.57215 407.242867,436.120099 407.322845,435.686593 L407.055878,434.926562 C406.962291,434.65224 406.894104,434.420848 406.863839,434.194823 C406.83602,433.993138 406.860361,433.786817 406.92759,433.56195 C407.001772,433.334765 407.116524,433.085557 407.328641,432.787667 C407.580167,432.43298 407.913989,432.050475 408.294176,431.684197 C408.681318,431.316761 409.098597,430.970188 409.484579,430.678093 L409.776094,430.468562 C410.436351,430.004652 410.940417,429.720671 410.940417,429.720671 L410.817491,429.951005 C410.752699,430.078863 410.665287,430.259866 410.562548,430.493795 C410.460547,430.749957 410.344636,431.074507 410.227566,431.462808 L410.105536,431.959666 C410.044335,432.224527 409.986472,432.513422 409.948222,432.823599 L409.914897,433.028471 L409.876357,433.22465 C409.850857,433.350993 409.826516,433.47154 409.796379,433.586292 C409.734946,433.814636 409.658445,434.019798 409.571512,434.202936 C409.406919,434.568055 409.199439,434.8474 408.968777,435.062994 C408.50977,435.49534 407.968467,435.657615 407.594076,435.756139 C407.442233,436.074894 407.297345,436.555923 407.190707,437.007975 C407.113176,437.356866 407.077715,437.679112 407.08978,437.865093 L407.185396,438.079045 C408.028844,439.911144 409.097096,441.616856 410.307779,443.101575 L410.342627,442.897456 C410.348392,442.860739 410.354101,442.822794 410.359705,442.783803 C410.387523,442.587914 410.410705,442.370002 410.424615,442.143976 C410.44316,441.915632 410.448956,441.681493 410.429251,441.463581 L409.93779,440.71248 C409.799856,440.499204 409.686264,440.314906 409.619035,440.116699 C409.481102,439.727239 409.472988,439.312279 409.739583,438.621451 C409.819561,438.419767 409.915767,438.203014 410.0282,437.982783 C410.147588,437.757917 410.282044,437.527254 410.424615,437.301229 C410.568344,437.074044 410.721346,436.848018 410.875507,436.633583 C411.030827,436.417989 411.19658,436.205873 411.353059,436.013461 C411.616756,435.689877 411.865964,435.408955 412.067815,435.190817 L412.182979,435.06763 C412.405528,434.83465 412.546939,434.699034 412.546939,434.699034 L412.485506,434.918105 L412.439754,435.123573 C412.423675,435.202745 412.406817,435.292747 412.389328,435.394025 L412.362641,435.554455 C412.279396,436.064462 412.2201,436.792879 412.2849,437.710968 L412.308163,437.992056 C412.340618,438.273719 412.342936,438.540314 412.3383,438.777931 C412.335982,439.015547 412.31164,439.234619 412.27339,439.435144 C412.188775,439.841991 412.062432,440.161904 411.889725,440.433135 C411.548948,440.97212 411.058646,441.27001 410.71555,441.461263 C410.683095,441.63397 410.655277,441.849563 410.639049,442.076748 C410.626299,442.300456 410.623981,442.539232 410.630936,442.764099 C410.640208,442.988965 410.65064,443.206877 410.683095,443.374948 C410.701466,443.472247 410.721835,443.555965 410.744434,443.620008 L410.785097,443.667043 C411.704268,444.72183 412.694146,445.651433 413.704887,446.436149 C414.270816,446.876171 414.843649,447.270771 415.412806,447.620761 L415.367046,447.29041 C415.338068,447.093362 415.29634,446.877768 415.248817,446.651742 C415.200134,446.424558 415.138702,446.197373 415.059882,445.992211 L414.758125,445.737912 L414.379487,445.40918 C414.28444,445.325724 414.195189,445.249223 414.117529,445.169245 C414.041028,445.086948 413.973799,445.005811 413.913526,444.921196 C413.792979,444.750807 413.706046,444.56651 413.657363,444.333529 C413.613317,444.094753 413.606363,443.807295 413.646931,443.439858 C413.689818,443.010988 413.820797,442.487072 413.984231,441.973588 C414.147665,441.461263 414.365577,440.936187 414.578853,440.477181 C414.756583,440.094676 414.929483,439.758857 415.076759,439.491189 L415.428478,438.885727 L415.420365,439.112912 C415.416192,439.204018 415.417444,439.315988 415.423619,439.451325 L415.442388,439.753898 C415.45282,439.892991 415.46557,440.052948 415.487593,440.222178 L415.546664,440.576778 L415.582639,440.770435 C415.601185,440.868959 415.622049,440.974438 415.645231,441.079917 L415.732164,441.39983 C415.773892,441.545105 415.81665,441.702228 415.867994,441.86021 L415.952395,442.096453 C416.052078,442.353775 416.118147,442.611096 416.172625,442.838281 C416.229421,443.064307 416.261876,443.282219 416.274626,443.487381 C416.28274,443.589383 416.285058,443.689066 416.28274,443.786431 C416.28274,443.881477 416.278104,443.970729 416.268831,444.05998 C416.252603,444.237323 416.218989,444.404235 416.172625,444.558396 C415.994122,445.180836 415.610458,445.61666 415.334591,445.905278 C415.350818,446.082621 415.383273,446.294738 415.429637,446.517286 C415.480638,446.731721 415.544389,446.958906 415.616254,447.168704 C415.686959,447.377343 415.761142,447.580187 415.839961,447.727394 C415.891528,447.825908 415.941561,447.906537 415.986667,447.960795 C416.240197,448.102976 416.492761,448.237796 416.742905,448.363743 C417.737419,448.871432 418.702955,449.221482 419.569967,449.474167 C420.402048,449.725908 421.155986,449.852406 421.782404,449.948302 L421.611154,449.642238 C421.510311,449.467213 421.393241,449.271324 421.26574,449.08123 C421.13592,448.894614 421.001463,448.689452 420.854257,448.524859 C420.689664,448.462267 420.540139,448.413585 420.399887,448.364902 L420.020859,448.216537 C419.78672,448.123808 419.588512,448.044989 419.423919,447.916328 C419.255849,447.794622 419.116756,447.648574 418.996209,447.444571 C418.876821,447.23941 418.782933,446.956588 418.709909,446.594946 C418.667022,446.378193 418.633408,446.145213 418.614863,445.886732 C418.597476,445.627092 418.590521,445.355861 418.595158,445.082312 C418.599794,444.808763 418.614863,444.532895 418.638045,444.262824 C418.664704,443.986956 418.697159,443.718043 418.73541,443.465358 C418.799161,443.041318 418.874181,442.666379 418.943029,442.367373 L419.037049,441.979909 C419.08546,441.78871 419.116756,441.679175 419.116756,441.679175 L419.158484,441.895928 C419.18978,442.03618 419.244258,442.228591 419.328872,442.485913 C419.408851,442.752508 419.535193,443.037648 419.703264,443.392334 C419.759674,443.510563 419.823811,443.623641 419.893615,443.742556 L420.002313,443.926683 C420.060269,444.019411 420.119383,444.123731 420.184293,444.218777 L420.509133,444.665034 L420.61664,444.82499 C420.687345,444.925833 420.751096,445.023198 420.810211,445.122881 C420.929599,445.31877 421.026964,445.516977 421.105783,445.707071 C421.266899,446.07103 421.349195,446.426876 421.374696,446.756062 C421.428015,447.416753 421.233285,447.970806 421.077964,448.344038 C421.230967,448.680179 421.501038,449.073116 421.780383,449.41853 C421.849929,449.505463 421.919476,449.585442 421.989022,449.661943 C422.05625,449.732648 422.123479,449.794081 422.18607,449.848559 C422.278879,449.929337 422.362131,449.98909 422.427325,450.021679 C422.808003,450.057572 423.12031,450.079221 423.357927,450.079221 L423.881844,450.096608 C424.64492,450.096608 425.435107,450.112465 426.280609,450.112577 C426.312612,449.92449 426.679165,449.892241 426.727115,449.420722 L426.732087,449.293347 C426.723973,448.814636 427.509848,449.49619 428.282972,449.503145 C429.054937,449.508941 429.812993,448.841295 429.833857,449.293347 C429.861561,449.907874 430.203586,449.971397 430.286952,450.105948 L430.936116,450.112321 C431.119809,450.112845 431.300799,450.112531 431.479389,450.111693 L433.517117,450.095521 C433.585523,450.093348 433.754825,450.087914 434.014754,450.079221 C434.252951,450.079221 434.566203,450.057466 434.946687,450.020289 C435.012485,449.989165 435.095394,449.928961 435.18777,449.848559 C435.250362,449.794081 435.31759,449.732648 435.385978,449.661943 C435.454365,449.585442 435.525071,449.505463 435.593458,449.41853 C435.872803,449.074276 436.142874,448.67902 436.295876,448.344038 C436.140556,447.970806 435.945826,447.416753 435.999145,446.756062 C436.024646,446.428035 436.106942,446.07103 436.266899,445.707071 C436.346877,445.516977 436.444242,445.31877 436.56363,445.122881 C436.621585,445.023198 436.686495,444.925833 436.757201,444.826149 L436.864129,444.665178 L437.189548,444.218777 L437.283146,444.072295 L437.371528,443.926683 C437.48512,443.73543 437.587121,443.569678 437.670577,443.392334 C437.805033,443.108585 437.912042,442.869345 437.991603,442.648503 L438.046128,442.485913 C438.130742,442.228591 438.184061,442.03618 438.215357,441.895928 L438.255926,441.679175 L438.363417,442.082184 L438.391541,442.197295 C438.468042,442.518368 438.560771,442.95651 438.638431,443.465358 C438.676682,443.718043 438.710296,443.988115 438.735796,444.262824 C438.758978,444.532895 438.775206,444.808763 438.778683,445.082312 C438.78216,445.355861 438.776365,445.627092 438.758978,445.886732 C438.740433,446.145213 438.706818,446.378193 438.665091,446.594946 C438.589749,446.956588 438.49702,447.23941 438.377632,447.444571 C438.258244,447.648574 438.117992,447.794622 437.95224,447.916328 C437.827056,448.012824 437.684269,448.081283 437.522411,448.148602 L436.973954,448.366061 L436.679112,448.466431 C436.627252,448.484677 436.574062,448.503995 436.519584,448.524859 C436.372378,448.689452 436.237921,448.894614 436.10926,449.08123 C436.022714,449.207959 435.941834,449.337264 435.867651,449.461245 L435.699445,449.751679 L435.592531,449.947083 L435.760213,449.921757 L436.290029,449.83251 C436.750717,449.748803 437.257645,449.638326 437.798079,449.475326 C438.665091,449.2238 439.627149,448.87375 440.620504,448.36722 C440.875819,448.23867 441.133502,448.101105 441.392612,447.95435 C441.436049,447.900685 441.484595,447.822348 441.535039,447.727394 C441.61154,447.580187 441.686882,447.377343 441.758746,447.168704 C441.828293,446.958906 441.894362,446.731721 441.943044,446.517286 C441.990568,446.294738 442.023023,446.082621 442.03925,445.905278 C441.763383,445.61666 441.379719,445.180836 441.200057,444.558396 C441.156011,444.404235 441.122397,444.237323 441.10501,444.05998 C441.095737,443.970729 441.093419,443.881477 441.09226,443.786431 C441.089942,443.689066 441.09226,443.589383 441.098056,443.487381 C441.111965,443.282219 441.145579,443.065466 441.200057,442.838281 C441.242654,442.667893 441.290467,442.480552 441.352787,442.288973 L441.420287,442.096453 C441.514175,441.862314 441.577926,441.617742 441.642836,441.39983 L441.727451,441.079917 C441.752951,440.974438 441.772656,440.870118 441.792361,440.770435 C441.829452,440.571069 441.860748,440.389089 441.886248,440.222178 C441.90943,440.052948 441.919862,439.892991 441.931453,439.753898 C441.948144,439.530423 441.957417,439.351457 441.956898,439.211066 L441.946574,438.887685 L442.153911,439.237598 L442.211957,439.338938 C442.37655,439.626397 442.582871,440.018175 442.796147,440.477181 C443.009423,440.936187 443.227335,441.461263 443.387291,441.973588 C443.553044,442.487072 443.684023,443.010988 443.72691,443.439858 C443.768637,443.807295 443.761683,444.094753 443.717637,444.334688 C443.667795,444.56651 443.579703,444.750807 443.460315,444.921196 C443.401201,445.005811 443.332813,445.086948 443.257471,445.170404 L443.131998,445.288053 L442.470994,445.861918 C442.421014,445.904258 442.369132,445.947701 442.315118,445.992211 C442.23398,446.197373 442.174866,446.424558 442.127342,446.651742 C442.094887,446.802426 442.064493,446.948474 442.039594,447.087481 L442.006795,447.29041 C441.987965,447.410851 441.972838,447.522144 441.960912,447.618582 C442.526248,447.271304 443.094271,446.880534 443.656204,446.444262 C444.538574,445.758651 445.406745,444.963884 446.224997,444.070056 L446.632096,443.612264 C446.653625,443.549276 446.673106,443.468372 446.690745,443.374948 C446.722041,443.206877 446.734792,442.988965 446.744064,442.764099 C446.751019,442.539232 446.746383,442.300456 446.734792,442.076748 C446.719723,441.849563 446.690745,441.63397 446.658291,441.461263 L446.411021,441.316487 C446.104724,441.125708 445.749422,440.852345 445.485275,440.433135 C445.311409,440.161904 445.183907,439.841991 445.10161,439.435144 C445.062201,439.234619 445.039018,439.015547 445.035541,438.777931 C445.032064,438.599718 445.03315,438.405205 445.047114,438.200261 L445.065678,437.992056 C445.157353,437.03632 445.113,436.267382 445.035381,435.71398 L445.0112,435.554455 C444.964836,435.272792 444.924267,435.062994 444.889494,434.918105 L444.828061,434.699034 L445.11182,434.984901 L445.192021,435.06763 C445.409933,435.298292 445.704346,435.62516 446.020782,436.013461 C446.177261,436.205873 446.344173,436.417989 446.499493,436.633583 C446.652495,436.848018 446.805497,437.074044 446.948067,437.301229 C447.091796,437.527254 447.226253,437.757917 447.345641,437.982783 C447.459233,438.203014 447.556598,438.419767 447.634258,438.621451 C447.902012,439.312279 447.893898,439.727239 447.755965,440.116699 C447.705543,440.265354 447.62839,440.406186 447.535263,440.557286 L447.260562,440.984879 C447.166118,441.129758 447.06166,441.288324 446.943431,441.463581 C446.924885,441.681493 446.930681,441.915632 446.948067,442.143976 C446.964295,442.370002 446.986318,442.587914 447.015295,442.783803 L447.064753,443.096056 C448.323894,441.550952 449.42817,439.768669 450.285749,437.853606 C450.294912,437.666502 450.257991,437.350045 450.181975,437.007975 C450.076496,436.555923 449.931608,436.074894 449.779765,435.756139 C449.405373,435.657615 448.864071,435.49534 448.406223,435.062994 C448.174402,434.8474 447.968081,434.568055 447.802329,434.202936 C447.715396,434.019798 447.638895,433.814636 447.578621,433.586292 L447.536459,433.409962 L447.458364,433.028616 L447.426778,432.823599 C447.363027,432.307797 447.245958,431.848791 447.147434,431.462808 C447.029205,431.074507 446.913294,430.749957 446.812452,430.493795 L446.64565,430.12993 C446.514897,429.857388 446.434583,429.720671 446.434583,429.720671 L446.769051,429.92065 C447.03706,430.086487 447.44134,430.348182 447.889262,430.678093 C448.275244,430.970188 448.693682,431.316761 449.079664,431.684197 C449.459851,432.050475 449.793674,432.43298 450.0452,432.787667 C450.257317,433.085557 450.370909,433.334765 450.446251,433.56195 C450.513479,433.786817 450.53898,433.993138 450.511161,434.194823 C450.456683,434.601669 450.277022,435.025902 450.052155,435.686593 C450.11521,436.033398 450.226485,436.392072 450.346809,436.706236 L450.438138,436.932633 C450.481526,437.036098 450.523762,437.130723 450.561745,437.212963 C450.70511,436.864448 450.840276,436.513039 450.96669,436.158349 C451.472061,434.753512 451.847611,433.30347 452.084069,431.853427 C452.117028,431.653432 452.147227,431.453436 452.174735,431.253575 C452.126481,431.067186 452.009151,430.790119 451.869634,430.503068 C451.818634,430.397589 451.764156,430.293269 451.708518,430.18895 L451.52538,429.885264 C451.401355,429.689375 451.277331,429.51435 451.171852,429.381052 C450.789347,429.377575 450.230657,429.354393 449.69515,429.057662 C449.423919,428.909296 449.148052,428.694861 448.90348,428.388857 C448.780615,428.235855 448.665863,428.06083 448.545316,427.859145 C448.457514,427.707882 448.377536,427.542275 448.296579,427.3589 L448.214971,427.169477 C447.824352,426.208577 447.390846,425.498045 447.062819,425.028607 L446.880552,424.777757 C446.795482,424.666038 446.721346,424.574932 446.666404,424.50469 L446.519198,424.331984 L446.992113,424.490781 L447.320398,424.610255 C447.56175,424.70058 447.843284,424.811854 448.136152,424.941674 C448.580089,425.136404 449.068073,425.374021 449.516648,425.635979 C449.973336,425.899096 450.387137,426.187713 450.708209,426.467058 C451.243717,426.942292 451.444242,427.305092 451.495243,427.708461 C451.524221,427.910146 451.520743,428.123422 451.495243,428.370311 C451.469742,428.619519 451.447719,428.9035 451.419901,429.247755 C451.578699,429.640692 451.864998,430.039425 452.087546,430.346588 L452.258345,430.57432 C452.367944,429.554288 452.409553,428.543357 452.392391,427.557778 C452.372655,426.474992 452.268909,425.422755 452.119305,424.415576 C452.042583,424.27977 451.918525,424.10196 451.766268,423.913668 L451.647086,423.770976 C451.346877,423.407016 450.963213,423.037261 450.701255,422.825145 C450.329181,422.90976 449.794833,423.016397 449.20253,422.846009 C448.647549,422.686979 448.070356,422.290668 447.486969,421.445035 L447.361868,421.256873 C446.784633,420.355088 446.215512,419.724534 445.810984,419.316529 L445.584763,419.098227 C445.516552,419.033855 445.455611,418.977903 445.402162,418.930444 L445.151317,418.720994 L445.533063,418.772552 L445.641754,418.789135 C445.944281,418.837818 446.363877,418.915478 446.836793,419.023275 C447.766397,419.242346 448.901162,419.616737 449.626763,420.050243 C450.248044,420.410726 450.49957,420.730639 450.644459,421.113144 C450.711687,421.306715 450.749937,421.517672 450.788188,421.764562 L450.876354,422.44059 C450.885692,422.504443 450.895985,422.570373 450.907576,422.638529 C451.152147,422.986261 451.517266,423.308492 451.800088,423.553064 L452.008991,423.724223 L451.977431,423.54495 C451.751405,422.281524 451.453515,421.100394 451.120851,420.027061 C450.869561,419.214321 450.60062,418.464354 450.330628,417.783219 L450.244567,417.687984 C450.114747,417.558164 449.94204,417.408639 449.755424,417.256796 C449.569967,417.103794 449.361327,416.95311 449.165438,416.822131 L448.883631,416.639862 C448.794814,416.584804 448.711648,416.536411 448.635727,416.497581 C448.291472,416.647106 447.786101,416.853427 447.183366,416.796631 C446.884316,416.768812 446.559766,416.676084 446.212034,416.489468 C446.040487,416.396739 445.866621,416.275033 445.681164,416.132463 C445.541201,416.024666 445.403847,415.897309 445.259321,415.75626 L445.112042,415.610865 C444.453459,414.929099 443.855226,414.470534 443.403557,414.179433 L443.27254,414.097071 C443.046514,413.948706 442.855261,413.859454 442.733555,413.792226 L442.542303,413.699498 L443.014059,413.646179 L443.347495,413.617545 C443.593226,413.599686 443.88223,413.586292 444.192871,413.589383 C445.131747,413.578951 446.285058,413.719203 447.077887,413.996229 C447.409392,414.114458 447.65744,414.236164 447.845216,414.372939 C448.030673,414.513191 448.160493,414.663874 448.265972,414.8389 C448.469974,415.190109 448.574294,415.630569 448.801479,416.279669 C449.049064,416.511491 449.35377,416.720315 449.634886,416.887746 L450.062257,417.127424 C449.760687,416.416405 449.465264,415.794683 449.198791,415.270291 L449.068073,415.016243 C448.956799,414.797172 448.848785,414.598964 448.748921,414.420643 L448.480406,413.939433 L448.053855,413.2289 L447.636577,412.571687 L447.357232,412.148613 L447.102228,411.738289 L446.808334,411.755035 C446.443426,411.768569 446.007388,411.747433 445.562935,411.548196 C445.28359,411.413739 444.990336,411.21785 444.713309,410.8933 C444.603774,410.77681 444.49815,410.639456 444.392038,410.483683 L444.285599,410.321861 C444.212575,410.211746 444.139552,410.092358 444.066528,409.961379 L443.84282,409.542941 C443.279494,408.440631 442.624599,407.647802 442.123865,407.150545 L441.88921,406.921986 C441.852763,406.887556 441.817474,406.855359 441.783088,406.825995 L441.391524,406.507756 C441.32421,406.45521 441.288149,406.428421 441.288149,406.428421 L441.850316,406.502604 C442.031137,406.524627 442.232821,406.57331 442.46812,406.621992 C442.58519,406.648652 442.711532,406.674152 442.837875,406.708925 L443.230812,406.823677 C443.774433,406.984792 444.363259,407.22125 444.92079,407.497118 C445.196657,407.63621 445.462092,407.789213 445.712459,407.942215 C445.955872,408.101012 446.183057,408.25981 446.382423,408.417448 C447.039637,408.962229 447.287685,409.360961 447.390846,409.80374 C447.439528,410.026289 447.45112,410.260428 447.455756,410.536295 C447.461551,410.809845 447.444165,411.133235 447.447642,411.518059 L447.622957,411.739014 L448.001652,412.251645 L448.480732,412.973661 L448.876821,413.63111 L449.258022,414.307594 C449.294027,414.372721 449.330865,414.440058 449.368264,414.509659 L449.481874,414.725307 C449.796521,415.32514 450.16089,416.067548 450.532499,416.939439 C450.555569,416.862165 450.579928,416.772593 450.60389,416.674925 C450.683868,416.30517 450.761528,415.814867 450.712846,415.366293 C450.330341,414.733421 450.004632,414.379893 449.81222,413.992752 C449.712537,413.80034 449.645309,413.599815 449.615172,413.352925 C449.580399,413.107194 449.575762,412.818577 449.610535,412.439549 C449.673385,411.650326 449.865367,410.571698 450.001687,409.593609 L450.11861,408.718559 L450.27934,407.297751 L450.399887,407.595642 C450.464604,407.757917 450.566348,407.980562 450.684995,408.264248 L451.107028,409.276604 C451.363233,409.900976 451.664086,410.657229 451.994818,411.522695 C452.13507,411.872746 452.217366,412.197295 452.278799,412.488231 C452.341391,412.778008 452.362255,413.041125 452.362255,413.277583 C452.364573,413.747021 452.261412,414.109821 452.109569,414.393803 C451.81052,414.958288 451.326013,415.212132 450.99335,415.384839 L450.951187,415.684468 C450.936553,415.794583 450.922065,415.913392 450.909894,416.036257 L450.841507,416.794313 C450.828467,416.982088 450.817383,417.158779 450.813145,417.31314 L450.812673,417.620903 C451.079399,418.2894 451.344698,419.025063 451.592608,419.82074 C451.934544,420.910301 452.244026,422.112294 452.478165,423.401221 L452.519522,423.649298 L452.615103,423.487507 C452.631786,423.458258 452.648769,423.427923 452.665941,423.396584 C452.857193,423.058125 453.044969,422.602596 453.127265,422.149386 C453.020627,421.791222 452.918626,421.501445 452.827056,421.24876 C452.73201,420.998393 452.657827,420.78164 452.616099,420.567205 C452.52453,420.139495 452.577849,419.715262 452.840966,419.00357 C453.020627,418.53542 453.274701,417.977474 453.544753,417.408041 L454.193643,416.059439 L455.010813,414.323097 L455.080274,415.165081 L455.360773,418.116666 C455.380279,418.331514 455.40008,418.554223 455.419978,418.784499 C455.548639,420.284383 455.188157,421.122417 454.750014,421.58606 C454.309554,422.05318 453.762456,422.166772 453.39386,422.245591 C453.239698,422.574778 453.050764,423.092899 452.883853,423.555382 L452.73386,424.012572 C452.690741,424.152021 452.656517,424.275324 452.637231,424.372891 C452.786324,425.373367 452.889838,426.419914 452.915149,427.498663 C452.9376,428.525606 452.897415,429.579394 452.784324,430.640768 L453.012514,430.438158 C453.30229,430.171563 453.623363,429.791376 453.844752,429.375257 C453.858661,428.991593 453.833161,428.675156 453.823888,428.400448 L453.814326,428.0149 C453.812587,427.893919 453.814036,427.779167 453.823888,427.666734 C453.869093,427.217 454.026732,426.818267 454.489215,426.190032 C454.704346,425.894228 454.97808,425.563558 455.26769,425.21998 L455.487206,424.960219 C455.862757,424.523236 456.253376,424.073503 456.604585,423.663179 L457.87033,422.184159 L457.808897,422.495959 L457.355177,425.119061 C457.268576,425.608981 457.16965,426.15352 457.056637,426.747562 C456.98709,427.131226 456.886248,427.469685 456.778451,427.76178 C456.674132,428.052716 456.54663,428.299606 456.414492,428.505927 C456.150215,428.918569 455.869712,429.17705 455.584571,429.338165 C455.007336,429.655761 454.449806,429.593169 454.070778,429.551441 C453.945594,429.688216 453.799547,429.865559 453.648863,430.055653 L453.189857,430.642161 C452.9652,430.93439 452.781072,431.202701 452.693812,431.37516 C452.670507,431.548232 452.644338,431.722852 452.616099,431.897473 C452.379641,433.383448 451.999454,434.869423 451.487129,436.307874 C451.354819,436.683081 451.212945,437.054772 451.062086,437.422276 L451.244611,437.345109 C451.277618,437.330514 451.311777,437.315093 451.346877,437.29891 C451.699246,437.131999 452.159411,436.882791 452.488597,436.547809 C452.763306,435.818731 452.834011,435.313361 453.026423,434.89956 C453.124947,434.692079 453.232744,434.500827 453.410087,434.309574 C453.583953,434.117162 453.830843,433.923592 454.147279,433.695248 C454.371914,433.532509 454.636607,433.362677 454.920579,433.187754 L457.001,431.931087 L458.6875,430.877459 L458.428317,431.359694 C458.336486,431.534992 458.222615,431.756228 458.09056,432.020338 L457.385823,433.357948 L456.77038,434.479448 C456.714786,434.579904 456.657786,434.681937 456.599133,434.78542 L456.417969,435.100085 C456.319445,435.273951 456.220921,435.435067 456.124715,435.581114 C456.021555,435.727162 455.919553,435.858141 455.81987,435.979847 C455.618185,436.2221 455.423455,436.415671 455.23568,436.57215 C454.849698,436.879314 454.486897,437.027679 454.163506,437.086794 C453.516725,437.202705 453.003241,436.956974 452.650872,436.79354 C452.387175,436.947122 452.015617,437.173952 451.677062,437.4036 L451.198094,437.737941 C451.02242,437.863919 450.874714,437.977631 450.783498,438.067962 C449.911856,440.03202 448.783564,441.861664 447.493226,443.449489 L447.701682,443.434839 C447.73967,443.431589 447.779104,443.42788 447.819715,443.42363 C448.019082,443.402766 448.249744,443.370311 448.481565,443.313515 C448.709909,443.25556 448.944049,443.174422 449.161961,443.070103 C449.315659,442.8865 449.440564,442.714164 449.551198,442.554847 L449.757742,442.254092 C449.917699,442.018793 450.063746,441.821745 450.21443,441.645561 C450.523911,441.297829 450.918008,441.072962 451.678382,440.836504 C451.829838,440.790913 451.992113,440.745836 452.163833,440.701618 L452.428324,440.635979 C452.604508,440.590387 452.787904,440.545826 452.976109,440.502295 L454.981836,440.052948 L456.371605,439.731875 L456.934931,439.593942 L455.183453,441.29068 C454.685749,441.766567 454.087897,442.325956 453.403132,442.947237 C453.09481,443.218468 452.817784,443.441017 452.544234,443.609087 C452.271844,443.777158 452.018,443.902341 451.78502,443.990433 C451.324854,444.167777 450.920326,444.190959 450.59114,444.141117 C449.931608,444.040275 449.521284,443.633429 449.236144,443.359879 C449.143415,443.377266 449.041993,443.399289 448.934921,443.4245 L448.599794,443.508245 C448.362177,443.563882 448.116447,443.627633 447.890421,443.691384 L447.724252,443.740175 L447.291163,443.882637 C447.189884,443.917803 447.104823,443.952542 447.042193,443.985819 L447.006023,444.028684 C446.065987,445.112449 445.052928,446.069871 444.014368,446.878927 C443.43221,447.334247 442.842021,447.742479 442.254454,448.104853 L442.463113,448.16971 C442.501465,448.181028 442.541458,448.192459 442.582871,448.203786 C442.777601,448.255946 443.011741,448.311583 443.251676,448.338243 C443.490452,448.366061 443.743137,448.374175 443.991186,448.350993 C444.134452,448.271246 444.262881,448.190016 444.381072,448.110641 L445.090405,447.615905 L445.200134,447.543096 C445.306772,447.470072 445.409933,447.404003 445.515411,447.347207 C445.726369,447.232455 445.947758,447.153636 446.21783,447.108431 C446.483265,447.05743 446.798542,447.042361 447.210025,447.05743 C447.603194,447.075048 448.044582,447.109729 448.514011,447.155537 L450.225224,447.335652 L451.755329,447.488729 L452.690282,447.569755 L451.052722,448.364645 C450.978024,448.401478 450.901007,448.439471 450.821802,448.478495 L449.598944,449.049934 L448.627323,449.479963 C448.457514,449.555595 448.282199,449.631806 448.096742,449.70483 C447.699168,449.865945 447.351436,449.987652 447.024568,450.058357 C446.696541,450.129063 446.406764,450.162677 446.150602,450.167313 C446.0231,450.169631 445.902553,450.163836 445.79012,450.153404 C445.676527,450.140654 445.567571,450.11979 445.469047,450.096608 C445.27084,450.045607 445.098133,449.976061 444.949767,449.892605 C444.357464,449.558782 444.121006,449.019798 443.952935,448.655838 C443.811235,448.631497 443.647366,448.609112 443.474532,448.588193 L442.81143,448.508503 C442.730851,448.499745 442.651259,448.491631 442.573598,448.48429 L442.241804,448.458935 C442.138064,448.452705 442.041568,448.448358 441.953476,448.444881 C441.83792,448.440319 441.740315,448.441741 441.667855,448.451763 C441.406476,448.600579 441.145103,448.740535 440.885939,448.871432 C439.861289,449.397666 438.864457,449.762785 437.96499,450.024743 C437.102379,450.287762 436.320136,450.421119 435.670808,450.520635 C435.743437,450.58926 435.831798,450.670169 435.933076,450.757298 C436.089555,450.891755 436.279649,451.038961 436.490606,451.174577 C436.702723,451.312511 436.933385,451.417989 437.174479,451.502604 C437.384278,451.48174 437.577849,451.457399 437.754033,451.430739 L438.240858,451.333375 C438.541066,451.270783 438.800706,451.231373 439.047596,451.201236 C439.295645,451.178054 439.537898,451.189645 439.813765,451.256873 C440.090792,451.320624 440.39216,451.420308 440.779301,451.595333 L441.014385,451.704589 L441.514175,451.951178 C441.771497,452.077521 442.03925,452.215455 442.316277,452.358025 L443.151993,452.793849 L444.392129,453.416681 C444.740891,453.589517 445.054087,453.742329 445.297499,453.859068 L445.845757,454.117549 L444.410783,454.256642 C443.954095,454.308801 443.371064,454.341256 442.716169,454.391098 L442.377452,454.410374 L441.652109,454.438621 C441.464333,454.444417 441.27424,454.456008 441.072555,454.458326 L440.460547,454.459485 C440.232203,454.460644 440.022405,454.45369 439.824197,454.439781 C439.624831,454.420076 439.438215,454.391098 439.266667,454.359802 C438.921253,454.293733 438.632636,454.210277 438.385746,454.107117 C437.890807,453.888046 437.577849,453.621451 437.373846,453.340947 C436.972795,452.782258 436.997136,452.180682 437.004091,451.770358 L436.317501,451.32629 C436.151684,451.220988 435.983381,451.11639 435.825279,451.022734 L435.365715,450.760776 C435.338326,450.74545 435.311795,450.731025 435.286295,450.717889 C435.173805,450.659126 435.078339,450.61617 435.006061,450.596067 C434.688562,450.628994 434.416606,450.649837 434.193621,450.657671 L433.516528,450.677451 C432.43985,450.732247 431.270745,450.671977 429.868659,450.721658 L429.607831,450.965938 L429.743075,451.09821 C430.267713,451.640421 432.119831,453.839902 431.720882,457.517209 C431.25608,461.791994 431.783474,463.920114 431.783474,463.920114 L431.644577,463.682585 C431.132805,462.773505 429.391002,459.363902 429.567133,455.348938 L429.614181,454.562351 C429.792978,451.437834 429.460677,451.344275 428.923158,451.511281 L428.754043,451.567097 C428.606717,451.616053 428.447986,451.66372 428.282972,451.66372 C428.183963,451.66372 428.087189,451.64656 427.993763,451.622257 L427.813549,451.567709 C427.177903,451.35684 426.752772,451.118461 426.950441,454.561443 L426.981295,455.054107 C427.307004,459.886423 424.78131,463.920114 424.78131,463.920114 L424.814778,463.760874 C424.923148,463.194558 425.235497,461.117028 424.845061,457.517209 C424.380259,453.243582 426.959272,450.965938 426.959272,450.965938 L426.68052,450.701732 L425.825272,450.700434 C425.273344,450.702378 424.755735,450.706553 424.259493,450.692631 L423.339382,450.661093 C423.091647,450.659499 422.764534,450.637104 422.367826,450.597668 C422.313127,450.611545 422.246095,450.639176 422.168541,450.676915 L422.008126,450.760776 L421.548562,451.022734 C421.154465,451.256873 420.693141,451.5594 420.370909,451.770358 L420.372818,452.011731 C420.370718,452.398019 420.328128,452.883838 419.999995,453.340947 C419.797151,453.621451 419.484193,453.888046 418.988095,454.107117 C418.742364,454.210277 418.452588,454.292574 418.107174,454.359802 C417.936785,454.391098 417.74901,454.418917 417.549644,454.439781 C417.419051,454.449053 417.281246,454.455235 417.136916,454.457983 L416.300127,454.458326 L416.007162,454.449778 L414.996604,454.41003 C414.880221,454.40475 414.766628,454.398439 414.656513,454.389939 L413.614615,454.315675 C413.37693,454.297731 413.158285,454.278996 412.963058,454.256642 L411.895521,454.155799 C411.655586,454.130299 411.529243,454.117549 411.529243,454.117549 L412.077501,453.859068 L412.982466,453.416681 L414.223007,452.793849 L415.331714,452.217258 L415.859666,451.951178 C416.115829,451.823677 416.367355,451.697334 416.59454,451.595333 C416.981681,451.420308 417.284208,451.320624 417.560076,451.256873 C417.837102,451.189645 418.079355,451.178054 418.327404,451.201236 C418.511702,451.223839 418.703824,451.251657 418.915017,451.29056 L419.619808,451.430739 C419.797151,451.457399 419.989563,451.48174 420.200521,451.502604 C420.440456,451.417989 420.669959,451.312511 420.882075,451.174577 C421.094192,451.038961 421.284285,450.891755 421.440765,450.757298 L421.624764,450.593252 L421.701796,450.520145 L421.528119,450.494093 C420.91607,450.397505 420.198637,450.266417 419.414646,450.027061 C418.516339,449.767421 417.521825,449.402303 416.496016,448.878386 C416.233464,448.745329 415.968477,448.603063 415.702069,448.451451 C415.654621,448.444953 415.595902,448.442199 415.52825,448.442418 L415.420365,448.444881 C415.246499,448.451835 415.033223,448.462267 414.800242,448.48429 L414.562153,448.508503 L414.074642,448.567746 C413.838184,448.594405 413.610999,448.623383 413.420905,448.655838 L413.320728,448.869434 C413.155125,449.20901 412.908896,449.619477 412.425233,449.892605 C412.276867,449.976061 412.105319,450.045607 411.903635,450.095449 C411.805111,450.11979 411.696155,450.140654 411.583721,450.153404 C411.470129,450.163836 411.3519,450.169631 411.223239,450.167313 C410.965917,450.162677 410.6773,450.129063 410.350432,450.058357 C410.022405,449.987652 409.674673,449.865945 409.27594,449.70483 L409.005488,449.593374 L407.776056,449.049934 L406.554357,448.478495 L404.6824,447.569755 L405.618336,447.488729 L407.149106,447.335652 L408.502816,447.191886 C409.105551,447.126976 409.672354,447.079453 410.164975,447.05743 C410.575298,447.041202 410.891735,447.05743 411.154852,447.108431 C411.426083,447.153636 411.647472,447.232455 411.859589,447.347207 L412.015778,447.438631 L412.340328,447.653935 L412.822908,447.993135 C412.986426,448.108415 413.16822,448.231373 413.383814,448.350993 C413.629545,448.374175 413.883389,448.366061 414.122165,448.338243 C414.363259,448.311583 414.59624,448.255946 414.792129,448.203786 L415.020189,448.136348 C415.054959,448.125288 415.088008,448.114413 415.119189,448.103866 C414.535903,447.746122 413.949883,447.341942 413.371064,446.891678 C412.332504,446.08378 411.319445,445.128676 410.380569,444.048389 L410.325289,443.982475 C410.28397,443.96097 410.233423,443.938873 410.175311,443.916459 L410.082678,443.882637 C409.957495,443.840039 409.810795,443.789618 409.649426,443.740175 L409.251899,443.627934 L408.439065,443.4245 C408.331847,443.399289 408.230426,443.377266 408.137697,443.359879 L407.951146,443.536379 C407.679525,443.783556 407.311022,444.059516 406.781542,444.141117 C406.454674,444.190959 406.050146,444.167777 405.588821,443.989274 C405.355841,443.902341 405.103156,443.777158 404.829606,443.609087 C404.557216,443.441017 404.277872,443.217309 403.970708,442.947237 L403.473708,442.493219 C402.753356,441.830611 402.147491,441.253174 401.673803,440.791675 L400.43891,439.593942 L401.003395,439.731875 L402.392005,440.052948 L403.236994,440.244201 L404.113279,440.437771 C404.304918,440.480272 404.49295,440.523803 404.67566,440.568364 L404.945517,440.635979 C405.215589,440.700889 405.469433,440.768117 405.696618,440.836504 C406.456992,441.072962 406.849929,441.297829 407.159411,441.645561 C407.310095,441.821745 407.454983,442.018793 407.618417,442.254092 L407.823477,442.554847 C407.933833,442.714164 408.058878,442.8865 408.21188,443.070103 C408.429792,443.174422 408.663931,443.25556 408.892276,443.313515 C409.124097,443.370311 409.355918,443.402766 409.554125,443.42363 L409.778674,443.4429 C409.813336,443.445236 409.846505,443.447176 409.878013,443.448783 C408.584173,441.858438 407.454077,440.026145 406.579167,438.059471 C406.465236,437.947014 406.266545,437.800182 406.03699,437.639251 L405.895985,437.541164 C405.511161,437.267615 405.040564,436.977838 404.722969,436.79354 L404.492427,436.897924 C404.159828,437.040801 403.727528,437.179522 403.209175,437.086794 C402.888103,437.027679 402.525302,436.879314 402.138161,436.570991 C401.950385,436.415671 401.755655,436.2221 401.553971,435.979847 C401.454288,435.858141 401.351127,435.727162 401.250285,435.581114 C401.185375,435.483749 401.120465,435.379687 401.055212,435.269615 L400.957031,435.100085 C400.582639,434.462576 400.278954,433.871432 399.988018,433.357948 L399.283281,432.020338 L398.894044,431.260052 C398.761683,431.009172 398.6875,430.877459 398.6875,430.877459 L400.372841,431.931087 L402.45366,433.187754 C402.737604,433.362677 403.002854,433.532509 403.22888,433.695248 C403.544157,433.923592 403.789888,434.117162 403.962595,434.309574 C404.141097,434.500827 404.248894,434.692079 404.347418,434.89956 C404.540989,435.313361 404.610535,435.818731 404.886403,436.547809 C405.213271,436.882791 405.674595,437.131999 406.026964,437.29891 L406.220883,437.384589 C406.251158,437.397383 406.280303,437.409424 406.308155,437.420695 C406.1599,437.064979 406.022304,436.705463 405.893666,436.342647 C405.379023,434.906514 404.996518,433.422858 404.757742,431.94036 C404.725789,431.744822 404.696418,431.549303 404.669569,431.353917 C404.594895,431.210574 404.458207,431.007179 404.289101,430.780597 L403.726137,430.055653 L403.505037,429.783552 C403.433752,429.698358 403.365655,429.619828 403.303063,429.551441 L403.079149,429.573853 C402.719869,429.603323 402.261553,429.597805 401.78927,429.337006 C401.505288,429.17705 401.223625,428.918569 400.959349,428.505927 C400.827211,428.299606 400.699709,428.052716 400.59539,427.76178 C400.488752,427.469685 400.385591,427.131226 400.317204,426.746403 L400.072375,425.419183 L399.564944,422.495959 L399.50467,422.184159 L401.886635,424.960219 L402.320122,425.474566 C402.529707,425.726157 402.724437,425.967483 402.885785,426.190032 C403.347109,426.818267 403.504748,427.217 403.548794,427.666734 C403.559226,427.779167 403.560964,427.893919 403.559226,428.0149 L403.548794,428.400448 C403.542998,428.675156 403.516339,428.991593 403.529089,429.375257 C403.750478,429.791376 404.071551,430.171563 404.362486,430.438158 L404.583622,430.633826 C404.470866,429.590222 404.430129,428.555214 404.450579,427.545027 C404.472033,426.441891 404.578291,425.371849 404.730535,424.349257 C404.691036,424.156541 404.595813,423.868154 404.489988,423.555382 L404.267724,422.949355 C404.16752,422.683497 404.068073,422.433698 403.979981,422.245591 L403.74013,422.191577 C403.397553,422.107194 402.976195,421.959756 402.623826,421.58606 C402.186843,421.122417 401.826361,420.284383 401.953863,418.78334 L402.318681,414.868178 L402.361868,414.323097 L403.181357,416.059439 L403.829191,417.408041 C404.099355,417.977474 404.353858,418.53542 404.532875,419.00357 C404.797151,419.715262 404.85047,420.139495 404.757742,420.567205 C404.726446,420.728031 404.676894,420.890161 404.614465,421.066798 L404.433275,421.571789 C404.37366,421.744208 404.31079,421.934487 404.245417,422.149386 C404.330031,422.602596 404.517807,423.058125 404.7079,423.396584 C404.756498,423.484725 404.803445,423.564926 404.846306,423.635345 L404.87713,423.452222 C405.111269,422.164454 405.414955,420.963619 405.754574,419.8729 C406.011503,419.048182 406.285847,418.28715 406.561043,417.595826 L406.562471,417.45964 C406.562471,417.275342 406.552039,417.04468 406.531175,416.794313 L406.465106,416.036257 C406.440765,415.790526 406.407151,415.561023 406.380491,415.384839 C406.050146,415.212132 405.563321,414.958288 405.264272,414.393803 C405.113588,414.109821 405.010427,413.747021 405.011577,413.277583 C405.011577,413.041125 405.03245,412.778008 405.093883,412.488231 C405.156475,412.197295 405.23993,411.872746 405.379023,411.522695 L405.737875,410.596315 C406.082673,409.718401 406.382809,408.989468 406.61579,408.44179 L406.757287,408.101356 C406.823871,407.945778 406.883114,407.812126 406.93009,407.700256 L407.094501,407.297751 L407.238453,408.580683 L407.325163,409.2323 C407.45962,410.297519 407.693759,411.551673 407.764465,412.439549 C407.798079,412.818577 407.793442,413.107194 407.759828,413.352925 C407.727373,413.599815 407.661304,413.80034 407.561621,413.992752 C407.370368,414.379893 407.044659,414.733421 406.659836,415.366293 C406.612313,415.814867 406.688814,416.30517 406.772269,416.674925 L406.805158,416.806015 L406.837411,416.923669 L406.990653,416.571159 C407.244398,415.994106 407.491344,415.481208 407.717969,415.036926 L407.851398,414.778626 C407.927899,414.63026 408.002082,414.490878 408.073077,414.360768 L408.451815,413.685588 L408.887639,412.958828 L409.321145,412.29466 L409.622513,411.876223 L409.759116,411.695273 C409.836561,411.596363 409.889107,411.536605 409.930835,411.49024 L409.849773,411.266927 C409.726392,410.907593 409.613451,410.440827 409.760446,409.896469 C409.842743,409.560328 410.036314,409.203323 410.3655,408.831249 C410.537048,408.64927 410.739892,408.461494 410.98794,408.279515 C411.115442,408.190263 411.252217,408.102171 411.398264,408.014079 L411.626608,407.8831 L411.750633,407.821812 L411.878134,407.761394 C412.953072,407.25531 413.851243,406.903586 414.529109,406.661983 L415.200263,406.429237 L415.962826,406.18385 L415.493732,406.715662 L415.192021,407.087953 C415.120156,407.178363 415.041337,407.267615 414.967154,407.369616 L414.736492,407.681416 C414.417737,408.10333 414.101301,408.588996 413.797615,409.046843 L413.505177,409.504132 C413.457095,409.577714 413.409314,409.649579 413.361791,409.719125 C413.270608,409.8644 413.17994,410.001432 413.091161,410.128505 L412.959581,410.311429 C412.529552,410.917642 412.231662,411.177281 411.838725,411.325647 C411.695285,411.383892 411.538806,411.427141 411.359507,411.469087 L411.172238,411.511104 C410.911439,411.566741 410.617026,411.638606 410.247271,411.752198 L409.667718,412.655143 Z" id="35"></path>
        </g>
    </g>
</svg>
