<?xml version="1.0" encoding="UTF-8"?>
<svg width="61px" height="56px" viewBox="0 0 61 56" version="1.1" xmlns="http://www.w3.org/2000/svg" xmlns:xlink="http://www.w3.org/1999/xlink">
    <title>37</title>
    <g id="页面-1" stroke="none" stroke-width="1" fill="none" fill-rule="evenodd">
        <g id="花环" transform="translate(-559.000000, -401.000000)" fill="#545458">
            <path d="M609.788678,437.558908 L610.516631,437.134113 C611.149419,436.771442 611.846823,436.3922 612.602967,436.034764 L612.609403,435.928953 C612.621839,435.79433 612.655854,435.577252 612.743633,435.313522 L612.792153,435.177935 C612.864165,434.966779 612.965471,434.728771 613.114379,434.482219 C613.164828,434.400035 613.22016,434.316224 613.281459,434.231508 L613.378019,434.103847 C613.440674,434.016781 613.509838,433.92863 613.586236,433.840117 L613.706348,433.707167 C614.273905,433.112757 614.607117,432.539097 614.840242,432.103359 L614.967739,431.828184 C615.098171,431.531492 615.167893,431.322747 615.212511,431.230663 C615.273539,431.111049 615.290627,431.479656 615.23082,432.008156 C615.200306,432.271796 615.131955,432.570831 615.048957,432.868647 C615.005017,433.017554 614.957416,433.164021 614.90127,433.305605 C614.86384,433.399995 614.820985,433.490044 614.774875,433.575393 L614.387722,434.239024 C614.278177,434.425463 614.162835,434.614649 614.037118,434.794681 C613.790566,435.157186 613.542793,435.49772 613.266948,435.730846 C613.493971,435.633202 613.728318,435.537999 613.957782,435.446457 L614.125568,435.311597 C614.452547,435.059406 615.009086,434.680356 615.688528,434.328429 C616.523387,433.918323 617.552314,433.539951 618.726487,433.619287 L618.517275,433.791431 C618.45037,433.844954 618.368864,433.908966 618.274882,433.980571 L617.953288,434.213381 C617.893933,434.254925 617.831821,434.297509 617.767131,434.340635 C617.569401,434.468793 617.349702,434.601833 617.112914,434.733653 C616.878568,434.864253 616.627134,434.99119 616.369597,435.105922 C616.11328,435.223096 615.836215,435.32074 615.565252,435.402517 C615.022105,435.564851 614.477738,435.650289 613.983413,435.608791 C613.773478,435.707656 613.542793,435.824829 613.298683,435.950546 C613.877225,436.010353 614.513134,436.403371 615.044075,436.663349 C615.426108,436.847653 615.751996,437.289494 615.957049,437.683733 C616.163323,438.080413 616.231674,438.418506 616.145015,438.372125 C616.055914,438.326965 615.876493,438.152425 615.551825,437.971783 C615.228379,437.78748 614.752363,437.599514 614.084719,437.496988 C613.592836,437.420093 613.266948,437.200393 613.048469,436.961165 C612.827549,436.720715 612.718919,436.463179 612.660333,436.288639 C611.707417,436.788708 610.61997,437.448532 609.389652,438.20734 C608.972605,438.867713 608.529531,439.49923 608.064946,440.099209 C607.192027,441.21581 606.246071,442.222857 605.2646,443.104149 L606.153005,442.928523 C606.925735,442.781578 607.774578,442.636381 608.663018,442.517127 L608.702505,442.425302 C608.72012,442.386987 608.742266,442.341406 608.769177,442.289889 L608.813146,442.208327 C608.892482,442.066743 608.996229,441.88488 609.145137,441.692032 C609.449055,441.31244 609.884793,440.859615 610.571965,440.481243 C610.949116,440.260322 611.278665,440.03452 611.558172,439.816041 C611.831576,439.591459 612.054938,439.376641 612.244124,439.186235 C612.356903,439.071991 612.452106,438.964338 612.532897,438.867231 L612.833856,438.48551 C612.861919,438.450241 612.885647,438.421924 612.905664,438.401419 C613.002088,438.29523 612.909326,438.689469 612.671318,439.216749 C612.545601,439.477947 612.388149,439.772101 612.207507,440.05649 C612.024424,440.337217 611.801063,440.598416 611.580142,440.803469 C611.273783,441.097623 610.899073,441.418628 610.536569,441.720105 C610.358368,441.871454 610.1643,442.006935 609.978775,442.128991 C609.795692,442.249826 609.611389,442.353573 609.43807,442.432909 C609.699268,442.404836 609.961688,442.381646 610.230209,442.368219 L610.58396,442.242731 C611.005795,442.097867 611.623472,441.908376 612.361297,441.79578 C613.324314,441.638328 614.515575,441.605373 615.653131,442.086271 L615.500562,442.150961 C615.425498,442.18117 615.327091,442.22099 615.205341,442.264758 L615.075809,442.309633 C614.713305,442.434129 614.211657,442.586699 613.656305,442.703872 C613.088747,442.816163 612.462603,442.885734 611.866973,442.874749 C611.26646,442.862544 610.678153,442.755135 610.198475,442.5452 C609.953144,442.578155 609.684622,442.624536 609.397792,442.672137 C609.956805,442.930895 610.462115,443.55948 610.899073,444.014747 C611.212756,444.338194 611.379971,444.910634 611.433676,445.395194 C611.489821,445.878533 611.445881,446.26911 611.372648,446.187333 C611.301856,446.107997 611.185903,445.862666 610.927146,445.557527 C610.667168,445.249948 610.263164,444.889884 609.633359,444.55057 C609.164666,444.297916 608.921775,443.957381 608.786294,443.632714 C608.650812,443.306826 608.625181,442.998025 608.630063,442.797854 C607.8859,442.933962 607.039706,443.105143 606.116376,443.300878 L604.676688,443.610712 L604.468956,443.784885 C603.484874,444.586157 602.476029,445.26139 601.484939,445.811403 C600.922264,446.131188 600.359588,446.397269 599.818883,446.638938 L599.183549,446.900713 L600.905057,447.225506 C601.517815,447.344605 602.164477,447.475975 602.82999,447.623926 L602.981293,447.470949 C603.120889,447.335061 603.338961,447.142213 603.641658,446.957503 L603.931213,446.786879 C604.084915,446.69938 604.253644,446.611354 604.444783,446.535191 C604.549751,446.492065 604.660685,446.451651 604.776864,446.413588 L604.954975,446.358211 C605.075403,446.318339 605.201798,446.282265 605.333798,446.250712 L605.535958,446.206862 C605.767864,446.160481 605.992446,446.110438 606.197499,446.049411 C606.334201,446.007912 606.466021,445.964243 606.591512,445.919489 L606.774821,445.851681 C606.956683,445.78455 607.122679,445.713758 607.27891,445.644187 C607.43392,445.572174 607.569401,445.4965 607.69756,445.428149 C607.951435,445.286564 608.158929,445.157186 608.317601,445.053439 L608.603543,444.855064 C608.620054,444.843845 608.634945,444.834227 608.648371,444.826415 C608.781412,444.747079 608.55683,445.135216 608.11743,445.600247 C608.008801,445.716199 607.890407,445.839475 607.76347,445.963972 C607.634091,446.088468 607.487624,446.204421 607.342378,446.320374 C607.048225,446.546176 606.746748,446.762214 606.435507,446.889152 L605.753675,447.189256 C605.517955,447.291325 605.27476,447.3908 605.026987,447.473797 C604.782876,447.561677 604.544868,447.643454 604.310522,447.703262 C604.072514,447.759407 603.846711,447.797244 603.641658,447.814332 C603.911401,447.883904 604.189687,447.954696 604.464312,448.037693 L604.868773,448.030065 C605.028818,448.028539 605.213122,448.02976 605.418785,448.038914 C605.557115,448.04461 605.702496,448.053561 605.855291,448.066489 L606.09009,448.088957 C606.328098,448.110927 606.577091,448.138999 606.840731,448.182939 C607.359466,448.264716 607.930685,448.411183 608.477494,448.626 C609.025523,448.8457 609.573551,449.1545 610.056891,449.606105 L609.635697,449.636952 C609.560502,449.640914 609.476721,449.644621 609.385586,449.647604 C608.979141,449.665913 608.396937,449.645163 607.78666,449.574371 C607.177604,449.507241 606.50874,449.357112 605.908227,449.13253 C605.60675,449.020239 605.322361,448.88842 605.063604,448.73585 C604.799964,448.579619 604.564397,448.401419 604.363006,448.20735 C604.100587,448.151205 603.810095,448.098721 603.500074,448.043796 C603.959002,448.510048 604.209216,449.337584 604.46065,449.96861 C604.646174,450.422656 604.561956,451.067109 604.404505,451.588285 C604.247053,452.107021 604.022471,452.491495 603.984634,452.380425 C603.9529,452.273016 603.945576,451.977642 603.817418,451.565095 C603.691701,451.153768 603.443929,450.632591 602.955707,450.052828 C602.595643,449.625634 602.491896,449.181353 602.491896,448.799319 C602.491896,448.417286 602.595643,448.095059 602.681082,447.894889 L600.679373,447.556795 C600.321751,447.506752 599.939718,447.426196 599.558905,447.366389 C599.198708,447.31427 598.818728,447.236874 598.436695,447.169658 L598.238265,447.23823 C597.35077,447.521246 596.537099,447.7267 595.828324,447.847232 L595.531076,447.893668 C595.330643,447.924734 595.140111,447.951155 594.959995,447.97365 L594.324467,448.048166 C593.459304,448.143736 592.2272,448.242821 590.633864,448.282393 C591.166995,448.876167 591.639772,449.595731 591.94875,450.40923 L592.052688,450.409917 C592.188283,450.415867 592.413476,450.4431 592.679862,450.54105 C592.989069,450.670157 593.359032,450.90149 593.656024,451.334487 L594.018657,451.923633 C594.099976,452.054232 594.178092,452.175372 594.254376,452.284001 L594.471635,452.580596 C594.539986,452.674579 594.603455,452.758797 594.664483,452.834471 C594.787759,452.983379 594.896388,453.098111 594.978165,453.185991 L595.123544,453.35128 C595.135006,453.364726 595.144771,453.376702 595.152704,453.387382 C595.180777,453.428881 595.125852,453.430102 595.019664,453.397147 L594.824223,453.323456 C594.748396,453.293094 594.663262,453.256783 594.572941,453.214063 C594.274922,453.064546 593.913333,452.866714 593.637211,452.619863 L592.974015,451.945908 L592.790932,451.771368 L592.612884,451.592252 L592.443074,451.407643 C592.334445,451.286808 592.233139,451.170856 592.148921,451.04758 C592.207507,451.263618 592.255109,451.479656 592.289284,451.701797 L592.380894,451.905151 C592.431015,452.025048 592.485794,452.171222 592.537057,452.338926 C592.580997,452.482952 592.621275,452.63308 592.651789,452.808839 C592.682303,452.983379 592.706714,453.173785 592.716478,453.372735 C592.737228,453.771857 592.711596,454.213697 592.602967,454.699478 C592.496778,455.180376 592.314916,455.689347 592.042732,456.217847 L592.020084,455.490668 C592.014388,455.266357 592.00815,455.002989 592.002454,454.719007 L591.99269,454.017188 C591.990249,453.776739 591.990249,453.524084 591.997572,453.268988 C592.008557,452.755135 592.047615,452.219312 592.156244,451.738414 C592.107422,451.541904 592.042732,451.328307 591.964617,451.098843 C591.855988,451.672504 591.467851,452.334044 591.216417,452.886955 C591.124876,453.084685 590.994276,453.278753 590.855133,453.456954 C590.714769,453.642478 590.565862,453.810914 590.431601,453.950058 L590.282078,454.102061 C590.097023,454.28239 589.976334,454.367731 590.005628,454.290592 L590.045448,454.196438 C590.099458,454.079207 590.193288,453.891776 590.302222,453.62539 C590.423972,453.314607 590.570954,452.896357 590.676935,452.346929 L590.719652,452.103359 C590.796547,451.607814 590.963763,451.242869 591.161492,450.987773 C591.356781,450.729015 591.576481,450.576446 591.72905,450.49711 C591.627744,450.279851 591.511791,450.052828 591.37631,449.818482 C591.242049,449.584135 591.082156,449.358333 590.900294,449.116663 C590.722093,448.872552 590.51704,448.644309 590.285134,448.408742 L590.168635,448.292028 C589.890839,448.296651 589.602964,448.299444 589.305029,448.300113 L588.499136,448.292962 L588.392055,448.398977 C588.157709,448.630883 587.950214,448.857906 587.767131,449.100796 C587.585269,449.340025 587.424156,449.562165 587.286233,449.796512 C587.145869,450.029638 587.027475,450.25544 586.926169,450.470258 C587.076298,450.552035 587.295997,450.707045 587.488845,450.968244 C587.654143,451.190036 587.798816,451.489844 587.881358,451.884578 L587.917259,452.089933 C588.016124,452.760017 588.18212,453.258003 588.320042,453.615626 L588.432319,453.886738 C588.518968,454.084518 588.5856,454.213174 588.611755,454.282048 C588.643489,454.379693 588.44698,454.2198 588.184561,453.939073 C588.053961,453.797488 587.906274,453.62539 587.769572,453.442307 C587.629209,453.260445 587.50105,453.066376 587.41195,452.867426 C587.16906,452.312074 586.787026,451.646872 586.682059,451.06955 C586.601502,451.299014 586.535592,451.513832 586.484329,451.70912 C586.588076,452.191239 586.61981,452.727062 586.629575,453.239695 C586.63283,453.411386 586.63283,453.580365 586.630298,453.744824 L586.608825,454.690934 L586.550239,456.188554 C586.284158,455.656392 586.107178,455.147421 586.005872,454.664082 C585.902125,454.177081 585.881375,453.736461 585.907007,453.336119 C585.921653,453.137169 585.947285,452.949203 585.977799,452.773443 C586.008313,452.598904 586.053473,452.447555 586.096193,452.305971 C586.185293,452.025244 586.284158,451.807985 586.35495,451.670062 C586.387905,451.447922 586.441609,451.231884 586.498975,451.017066 C586.44283,451.098436 586.377463,451.177094 586.307575,451.255933 L586.19994,451.374688 C586.09131,451.499185 585.972917,451.618799 585.850861,451.735972 L585.666558,451.90685 L585.485916,452.085051 C585.366301,452.201004 585.25279,452.315736 585.149043,452.421924 C584.864654,452.739268 584.413048,452.982158 584.054206,453.159139 C583.872343,453.242136 583.71123,453.300723 583.605042,453.336119 C583.498853,453.369074 583.442708,453.367853 583.473222,453.325134 L583.64532,453.127404 L583.790108,452.97575 C583.843965,452.918079 583.902857,452.852779 583.965105,452.778326 L584.060003,452.659322 L584.305052,452.335717 C584.330186,452.30231 584.355682,452.267727 584.381314,452.231517 C584.458819,452.124109 584.53785,452.003884 584.620543,451.874048 L584.881741,451.458907 C585.197865,450.916981 585.625059,450.646018 585.972917,450.504433 C586.330539,450.377496 586.611266,450.376275 586.70769,450.381157 C587.021746,449.576703 587.497563,448.86815 588.030608,448.282525 L587.302488,448.260533 C585.899902,448.208573 584.819414,448.111705 584.063982,448.022768 L583.881898,448.00073 C583.719106,447.982675 583.545495,447.961033 583.36222,447.935329 L583.080203,447.893668 C582.30271,447.783818 581.387295,447.561677 580.374235,447.23823 L580.175062,447.169896 L579.418678,447.307166 C579.294662,447.328834 579.171992,447.349016 579.051154,447.366389 C578.672782,447.426196 578.288308,447.506752 577.933127,447.556795 L575.932638,447.894889 C576.016857,448.095059 576.120604,448.417286 576.120604,448.799319 C576.118163,449.181353 576.016857,449.625634 575.656793,450.052828 C575.169792,450.632591 574.917137,451.153768 574.792641,451.565095 C574.663262,451.977642 574.6596,452.273016 574.625425,452.380425 C574.586367,452.491495 574.364226,452.107021 574.206775,451.588285 C574.049323,451.067109 573.966326,450.422656 574.15307,449.96861 L574.410607,449.292739 C574.592334,448.826036 574.80444,448.354631 575.108764,448.043796 L574.520819,448.152199 C574.42756,448.170327 574.336967,448.188635 574.249494,448.20735 C574.049323,448.401419 573.811315,448.579619 573.547676,448.73585 C573.288918,448.88842 573.003308,449.020239 572.703052,449.13253 C572.10254,449.357112 571.433676,449.507241 570.82584,449.574371 C570.301699,449.63505 569.79908,449.658963 569.410986,449.653027 L569.226914,449.647604 C568.815587,449.634178 568.55683,449.606105 568.55683,449.606105 C569.038949,449.1545 569.583316,448.8457 570.135006,448.626 C570.680594,448.411183 571.253034,448.264716 571.771769,448.182939 C571.945088,448.153646 572.114609,448.131405 572.278887,448.113323 L572.52119,448.088957 C572.761639,448.063325 572.985,448.047458 573.191274,448.038914 C573.603821,448.020606 573.929709,448.034032 574.148188,448.037693 C574.422813,447.954696 574.698658,447.883904 574.969621,447.814332 C574.764568,447.797244 574.538766,447.759407 574.301978,447.703262 C574.067632,447.643454 573.828403,447.561677 573.585513,447.473797 C573.089968,447.307802 572.612731,447.075897 572.176993,446.889152 C571.865752,446.762214 571.563055,446.546176 571.26646,446.320374 C571.122435,446.204421 570.977189,446.088468 570.84903,445.963972 L570.60492,445.718415 L570.493849,445.600247 C570.05445,445.135216 569.831088,444.747079 569.964129,444.826415 C570.031259,444.865473 570.135006,444.949691 570.293678,445.053439 L570.567845,445.226605 C570.67083,445.289616 570.785562,445.357357 570.912499,445.428149 L571.183101,445.57136 C571.231064,445.595771 571.2807,445.620182 571.33237,445.644187 C571.48738,445.713758 571.655817,445.78455 571.834018,445.851681 C572.01588,445.920032 572.208728,445.987162 572.41134,446.049411 C572.550483,446.090096 572.696136,446.125899 572.84649,446.158989 L573.075321,446.206862 C573.214464,446.233714 573.346555,446.265449 573.471956,446.301342 L573.655084,446.358211 C573.835726,446.411915 574.009045,446.470502 574.166497,446.535191 C574.485061,446.662129 574.741378,446.822021 574.969621,446.957503 C575.422447,447.234569 575.687307,447.529943 575.78129,447.623926 C577.111913,447.328115 578.368084,447.098584 579.428426,446.900093 L578.792397,446.638938 C578.251691,446.397269 577.689016,446.131188 577.123899,445.811403 C576.065291,445.222652 574.984198,444.49042 573.934774,443.613703 L572.495821,443.301501 C571.572901,443.105136 570.727,442.933959 569.983658,442.797854 C569.984878,442.998025 569.960467,443.306826 569.826206,443.632714 C569.690725,443.957381 569.446614,444.297916 568.977921,444.55057 C568.345674,444.889884 567.945332,445.249948 567.684134,445.557527 C567.424156,445.862666 567.309423,446.107997 567.237411,446.187333 C567.165398,446.26911 567.119017,445.878533 567.177604,445.395194 C567.233749,444.910634 567.398524,444.338194 567.713427,444.014747 L568.172581,443.521824 C568.49309,443.181515 568.841626,442.844642 569.213488,442.672137 L568.66677,442.582178 C568.58002,442.568662 568.495395,442.556185 568.412804,442.5452 C567.933127,442.755135 567.343599,442.862544 566.744307,442.874749 C566.148676,442.885734 565.522532,442.816163 564.954975,442.703872 C564.400843,442.586699 563.897975,442.434129 563.533029,442.309633 L563.405443,442.264758 L562.959369,442.086271 C564.095704,441.605373 565.286965,441.638328 566.247541,441.79578 C567.23619,441.945908 568.005139,442.232738 568.382291,442.368219 C568.650812,442.381646 568.913232,442.404836 569.170768,442.432909 C568.999891,442.353573 568.815587,442.249826 568.630063,442.128991 C568.44698,442.006935 568.251691,441.871454 568.075931,441.720105 C567.713427,441.418628 567.339937,441.097623 567.032358,440.803469 C566.810217,440.598416 566.588076,440.337217 566.404993,440.05649 C566.22313,439.772101 566.064458,439.477947 565.941182,439.216749 C565.701954,438.689469 565.610412,438.29523 565.706836,438.401419 L565.777257,438.48551 L565.933859,438.688249 C566.040047,438.82373 566.17919,438.995828 566.368376,439.186235 C566.5539,439.376641 566.780924,439.591459 567.051887,439.816041 C567.335055,440.03452 567.662164,440.260322 568.036874,440.481243 C568.726487,440.859615 569.162225,441.31244 569.466143,441.692032 C569.578739,441.836668 569.665245,441.975125 569.734931,442.095044 L569.799354,442.208327 C569.87991,442.351132 569.927512,442.460982 569.948261,442.517127 C570.836412,442.636342 571.684992,442.781483 572.458459,442.928394 L573.346528,443.103938 L573.305107,443.067356 C572.337096,442.194863 571.407281,441.200302 570.547554,440.099209 C570.082327,439.499526 569.638934,438.868334 569.221551,438.210453 L568.841125,437.973948 L568.056719,437.494818 C567.293014,437.032906 566.591331,436.624699 565.950947,436.288639 C565.89236,436.463179 565.78129,436.720715 565.564031,436.961165 C565.345552,437.200393 565.018443,437.420093 564.52656,437.496988 C563.860137,437.599514 563.384121,437.78748 563.058233,437.971783 C562.732345,438.152425 562.554145,438.326965 562.466265,438.372125 C562.379605,438.418506 562.447956,438.080413 562.655451,437.683733 C562.860504,437.289494 563.186392,436.847653 563.565984,436.663349 C564.098146,436.403371 564.734054,436.010353 565.312597,435.950546 L564.843995,435.713397 C564.769179,435.676735 564.696217,435.641746 564.625425,435.608791 C564.135983,435.650289 563.589174,435.564851 563.046028,435.402517 C562.775065,435.32074 562.497999,435.223096 562.242903,435.105922 C561.984146,434.99119 561.732712,434.864253 561.498365,434.733653 C561.261578,434.601833 561.041878,434.468793 560.844148,434.340635 C560.64886,434.211256 560.479203,434.08676 560.337618,433.980571 L560.033267,433.74151 C559.938376,433.664493 559.886013,433.619287 559.886013,433.619287 C561.058966,433.539951 562.085452,433.918323 562.922752,434.328429 C563.739303,434.750741 564.376432,435.212111 564.653498,435.446457 C564.881741,435.537999 565.117308,435.633202 565.345552,435.730846 C565.069707,435.49772 564.820714,435.157186 564.574162,434.794681 C564.323948,434.434618 564.114013,434.037937 563.905298,433.699844 C563.835726,433.579009 563.766155,433.447189 563.710009,433.305605 C563.655084,433.164021 563.606262,433.017554 563.563543,432.868647 C563.480545,432.570831 563.408532,432.271796 563.38168,432.008156 L563.358524,431.776782 C563.326019,431.377794 563.346754,431.129451 563.396327,431.230663 L563.443475,431.337492 C563.507021,431.493896 563.603957,431.758756 563.771037,432.103359 C564.004163,432.539097 564.338595,433.112757 564.904932,433.707167 C564.987116,433.795861 565.06279,433.884555 565.132678,433.972525 L565.233261,434.103847 C565.334567,434.232006 565.418785,434.358943 565.494459,434.482219 C565.647029,434.728771 565.745894,434.966779 565.820347,435.177935 C565.976578,435.595365 566.004651,435.921253 566.009533,436.034764 C567.067617,436.53493 568.010683,437.077792 568.824008,437.558071 C567.747773,435.746681 566.871429,433.754464 566.273047,431.674426 L566.293922,431.698135 C565.434652,430.641135 564.61566,429.734264 563.93215,428.995828 C563.728318,429.259468 563.218126,429.775762 562.30271,429.606105 C561.682669,429.486491 561.204212,429.501138 560.861236,429.554842 C560.51704,429.609767 560.305884,429.701309 560.211901,429.714735 C560.119139,429.72572 560.291237,429.455977 560.585391,429.181353 C560.875883,428.905507 561.295753,428.626 561.692433,428.585722 L562.35091,428.500975 C562.730534,428.45518 563.119871,428.428576 563.452472,428.506386 L563.11135,428.154505 C563.05742,428.099535 563.004529,428.046644 562.952045,427.996195 C562.50044,427.881462 562.032968,427.639793 561.594789,427.328551 C561.167595,427.01609 560.762371,426.636497 560.414513,426.259346 C560.073979,425.882195 559.804236,425.512367 559.608947,425.236522 L559.350855,424.849747 C559.321526,424.803168 559.30625,424.777593 559.30625,424.777593 C559.837191,424.930163 560.310766,425.171832 560.724534,425.450119 C561.138302,425.729626 561.482498,426.04697 561.799842,426.35577 C562.048835,426.603786 562.262676,426.848678 562.439491,427.071698 L562.56513,427.234569 C562.770183,427.498208 562.927634,427.719129 563.019176,427.863154 C563.203479,428.014503 563.376798,428.169513 563.546455,428.324524 C563.384121,428.036473 563.24864,427.662983 563.130246,427.272406 C563.026499,426.879388 562.942281,426.470502 562.855621,426.11288 C562.798255,425.859004 562.78605,425.569733 562.793373,425.284123 C562.798255,424.997293 562.826328,424.716566 562.876371,424.477337 C562.922752,424.236888 562.976456,424.037937 563.019176,423.915882 L563.061669,423.818464 C563.086984,423.772264 563.105428,423.76494 563.111938,423.804812 L563.143441,424.23613 C563.154962,424.362014 563.17144,424.510597 563.196156,424.679949 C563.22667,424.906972 563.295021,425.169391 563.376798,425.462324 C563.420738,425.610011 563.472001,425.763801 563.525706,425.924914 L563.590757,426.08779 L563.744185,426.426562 C563.893092,426.732921 563.978531,427.019751 564.040779,427.28217 C564.109131,427.543369 564.133542,427.780156 564.137203,427.98643 C564.139644,428.401419 564.084719,428.693131 564.052985,428.791996 C564.709764,429.433178 565.311184,430.06944 565.827116,430.654059 L566.075931,430.940384 L565.992562,430.609995 C565.646418,429.168766 565.427482,427.698684 565.343111,426.239817 C565.310578,425.691582 565.298795,425.145197 565.3055,424.602663 C564.876859,423.403249 564.439901,422.348691 564.052985,421.494303 C563.794228,421.656636 563.201038,421.938584 562.443074,421.491862 C561.42147,420.877923 560.745283,420.932848 560.574406,420.897452 C560.488967,420.875482 560.719652,420.707045 561.061407,420.572784 C561.401941,420.436082 561.851105,420.337217 562.207507,420.427538 C562.709155,420.554476 563.351166,420.646018 563.779581,420.920642 L563.578144,420.511711 C563.545234,420.447203 563.512686,420.384819 563.480545,420.325012 C562.751874,419.845334 562.131833,418.91039 561.732712,418.065766 C561.565903,417.714857 561.438083,417.38429 561.341484,417.11574 L561.25044,416.859534 L561.138302,416.492472 C561.566716,416.776861 561.920677,417.121057 562.216051,417.481121 C562.507763,417.838743 562.734787,418.212233 562.927634,418.569855 C563.297462,419.283879 563.502515,419.927111 563.576969,420.23347 C563.697804,420.418994 563.808874,420.60818 563.915062,420.794925 C563.880887,420.644797 563.862579,420.478802 563.850373,420.303042 C563.84305,420.128503 563.845491,419.947861 563.852814,419.761116 C563.860137,419.391288 563.902857,419.016578 563.926047,418.683367 C563.939473,418.446579 564.006604,418.195145 564.08594,417.952255 C564.166497,417.710585 564.267803,417.47868 564.37155,417.284611 L564.479079,417.090641 C564.634322,416.825128 564.755247,416.682323 564.74626,416.773199 L564.64585,417.273016 C564.630689,417.3567 564.615355,417.449691 564.601014,417.551913 C564.554633,417.96324 564.524119,418.522253 564.622984,419.217969 C564.660821,419.526769 564.670585,419.805056 564.648615,420.050387 C564.627866,420.294498 564.581485,420.506874 564.531442,420.687516 C564.425254,421.050021 564.270244,421.279485 564.220201,421.35638 C564.668287,422.223008 565.032941,423.068977 565.32955,423.814788 C565.365701,422.977659 565.445101,422.153807 565.557928,421.349057 C565.74898,420.016857 566.02042,418.735336 566.358201,417.524456 C566.313451,416.336241 566.202381,415.286564 566.070561,414.422412 C565.80326,414.491984 565.20885,414.570099 564.653498,413.961043 C563.905298,413.127404 563.304785,412.980938 563.163201,412.896719 C563.026499,412.807619 564.1311,412.591581 564.712084,412.961409 L565.283752,413.298452 C565.544701,413.457004 565.79768,413.631667 565.974137,413.840208 C565.938741,413.620508 565.899683,413.415455 565.859405,413.22871 C565.595765,412.915028 565.388271,412.511024 565.221055,412.075286 C565.05506,411.638328 564.948872,411.174517 564.869536,410.743662 C564.807491,410.38665 564.774265,410.055066 564.754318,409.789878 L564.743819,409.63906 C564.731613,409.496256 564.729172,409.380303 564.729172,409.302187 L564.729172,409.177691 C565.03309,409.553622 565.262554,409.957625 565.434652,410.357967 C565.603089,410.758309 565.71538,411.153768 565.798377,411.524817 C565.950947,412.25837 565.976578,412.883293 565.966814,413.176226 C566.0254,413.372735 566.077884,413.569245 566.126706,413.765754 C566.13403,413.62417 566.158441,413.4716 566.192616,413.314149 C566.228012,413.157918 566.273173,412.995584 566.324436,412.834471 C566.422081,412.508583 566.549018,412.186357 566.652765,411.897086 C566.790688,411.485759 567.114135,411.064668 567.380216,410.770514 C567.65484,410.481243 567.87454,410.32013 567.836703,410.415333 L567.675268,410.734042 C567.504197,411.077941 567.250989,411.671207 567.138546,412.559846 C566.998182,413.704726 566.392787,414.238108 566.254865,414.346738 C566.400303,415.062861 566.494041,415.751856 566.554644,416.381898 L566.586611,416.749734 L566.735539,416.277587 C567.116352,415.103656 567.542898,414.006203 567.999037,413.002908 C568.366504,412.192368 568.748002,411.442487 569.129269,410.757158 L569.186505,410.529602 C569.409597,409.612704 569.562719,408.785283 569.666313,408.071869 C569.4161,408.057222 568.876615,407.954696 568.560491,407.241892 C568.152826,406.275213 567.669487,405.951766 567.573063,405.837034 C567.481522,405.711317 568.493361,405.851681 568.891262,406.358211 L569.292934,406.833127 C569.475384,407.053553 569.646959,407.285309 569.743208,407.52384 C569.772502,407.316346 569.792031,407.118616 569.811559,406.941636 C569.676078,406.585234 569.606506,406.156819 569.589419,405.712538 C569.580875,405.275579 569.616271,404.81421 569.688283,404.405324 C569.748294,404.063569 569.816781,403.74809 569.887386,403.501267 L570.00923,403.112808 C570.046478,403.001897 570.070317,402.939439 570.070317,402.939439 C570.3425,403.819458 570.332736,404.683611 570.2534,405.393973 C570.214342,405.751595 570.145991,406.064057 570.088625,406.328918 C570.028818,406.592557 569.969011,406.798831 569.92263,406.92821 C569.915307,407.119837 569.907983,407.313905 569.895778,407.50187 C570.080081,407.002663 570.536569,406.439988 570.880765,405.988383 C570.999159,405.826049 571.162713,405.675921 571.33237,405.544101 C571.506909,405.413502 571.677787,405.293888 571.841341,405.209669 L572.024033,405.118655 C572.249201,405.014137 572.391567,404.978985 572.341768,405.037571 C572.22919,405.16853 571.688463,405.571946 571.200906,406.538849 L571.110229,406.726818 C570.994276,406.968488 570.878324,407.174762 570.747724,407.339536 C570.619566,407.503091 570.487746,407.632469 570.369353,407.736217 C570.130124,407.94127 569.920189,408.031591 569.846955,408.058443 C569.776926,408.77027 569.668525,409.436496 569.547653,410.034597 C570.052739,409.181236 570.548542,408.448078 571.000899,407.841797 L571.192006,407.58975 C572.135494,406.343564 572.825108,405.672259 572.916649,405.561189 L572.864922,405.455826 C572.761062,405.210585 572.6168,404.623193 573.149775,403.784062 C573.877225,402.670917 574.112792,401.977642 574.205554,401.793338 C574.255597,401.703017 574.297096,401.939805 574.28489,402.287663 C574.272685,402.6343 574.209216,403.087126 574.055426,403.461836 L573.884549,403.873163 L573.722215,404.312562 L573.636929,404.528448 L573.545234,404.736094 C573.489089,404.874017 573.42562,405.004616 573.354828,405.12179 C573.509838,404.980205 573.664849,404.8374 573.838167,404.710463 L573.970397,404.546459 C574.049519,404.451315 574.148676,404.338682 574.270244,404.21858 C574.480179,404.023291 574.736495,403.786503 575.069707,403.58145 C575.7166,403.157918 576.639339,402.791752 577.669487,402.855221 L577.306982,403.061494 L577.04827,403.200502 C576.85931,403.306012 576.638526,403.433763 576.392787,403.563142 L575.730122,403.928056 C575.152032,404.245008 574.519585,404.576551 573.91018,404.791019 C573.761273,404.914295 573.613586,405.066865 573.456134,405.229198 C573.580631,405.181597 573.71245,405.14498 573.850373,405.116907 C573.988296,405.088835 574.135983,405.074188 574.280008,405.061982 C574.569279,405.040012 574.854889,405.032689 575.113647,405.03513 C575.844758,405.016822 576.667412,405.669818 576.506299,405.656392 L576.257306,405.612808 C576.167857,405.598653 576.058007,405.585426 575.927756,405.580718 C575.772746,405.574615 575.586001,405.577056 575.369963,405.599026 C575.153925,405.625878 574.911035,405.678362 574.630307,405.758919 C574.222642,405.887077 573.88699,405.905385 573.618468,405.865107 C573.354828,405.829711 573.166863,405.743052 573.055792,405.674701 L572.556738,406.231578 C572.270366,406.558687 571.877958,407.027685 571.42147,407.639793 C570.906323,408.322774 570.320048,409.193379 569.722849,410.234778 C570.218187,409.803095 570.819,409.384678 571.497145,409.070282 L571.499038,408.974545 C571.505763,408.868716 571.529925,408.701326 571.605774,408.499063 C571.653376,408.356258 571.740035,408.20613 571.857208,408.047458 C571.945088,407.928454 572.052192,407.80533 572.188303,407.689416 L572.334445,407.576324 C572.722581,407.283391 573.020147,407.028121 573.234061,406.812051 L573.506237,406.529765 C573.630001,406.395326 573.706348,406.297183 573.749067,406.254464 C573.811315,406.194657 573.761273,406.426562 573.635556,406.729259 C573.570866,406.879388 573.492751,407.056368 573.401209,407.222363 C573.309668,407.3908 573.196156,407.547031 573.077762,407.682512 C572.739669,408.053561 572.361297,408.572296 571.981705,408.871332 C572.146479,408.807863 572.314916,408.754159 572.488235,408.711439 L572.64304,408.619575 C572.734933,408.568195 572.847566,408.510048 572.976456,408.451461 C573.196156,408.356258 573.467119,408.263496 573.771037,408.200027 C574.077396,408.137779 574.425254,408.113368 574.786538,408.14144 C575.153925,408.171954 575.545723,408.269599 575.9363,408.442917 L575.610412,408.511268 L574.978224,408.630277 C574.915087,408.641575 574.849519,408.652853 574.781656,408.663838 L574.249799,408.745157 C574.064275,408.772467 573.871122,408.797488 573.672172,408.812745 C573.281595,408.846921 572.883694,408.864009 572.512646,408.812745 C572.356415,408.864009 572.194081,408.931139 572.018321,409.012916 C572.452839,409.055636 572.93984,409.324157 573.347505,409.508461 C573.637997,409.63906 573.905298,409.914906 574.089602,410.14437 C574.275126,410.375055 574.373991,410.565461 574.30686,410.534947 L574.2338,410.496209 C574.052698,410.390719 573.654799,410.132694 572.915745,410.002103 L572.723802,409.972272 C571.986587,409.885612 571.661919,409.46208 571.554511,409.235057 C570.880765,409.59512 570.095949,410.140708 569.340426,410.948715 L569.30652,410.986337 C568.977101,411.602073 568.648599,412.26828 568.331027,412.982158 C567.890582,413.971853 567.473451,415.053912 567.108843,416.212193 L566.925437,416.814179 L566.967412,416.762305 C567.420449,416.198725 567.989408,415.626285 568.669121,415.153524 L568.652844,415.050713 C568.639304,414.936415 568.631458,414.753705 568.671562,414.526159 C568.698414,414.365046 568.757001,414.186845 568.848542,413.996439 C568.923728,413.844113 569.019224,413.682414 569.150654,413.523215 L569.256207,413.40447 C569.605634,413.021565 569.859111,412.688876 570.038928,412.416398 L570.122801,412.285222 C570.310766,411.99473 570.404749,411.790897 570.456012,411.715223 C570.508496,411.638328 570.506055,411.893424 570.441365,412.244943 C570.404749,412.418262 570.36447,412.620874 570.301002,412.818604 C570.238753,413.015113 570.154535,413.209181 570.059332,413.375177 C569.778604,413.838987 569.48201,414.46269 569.142696,414.853268 C569.30625,414.758064 569.468584,414.665302 569.644343,414.587187 L569.808979,414.443737 C570.040707,414.252197 570.40936,413.988708 570.895411,413.786503 C571.202991,413.653463 571.567937,413.552157 571.960955,413.500894 C572.353974,413.44841 572.784829,413.456954 573.246199,413.546054 L572.909326,413.699844 C572.742354,413.776983 572.520701,413.876776 572.261241,413.982349 L572.05982,414.062349 C571.718065,414.202712 571.322605,414.346738 570.91494,414.465131 C570.508496,414.583525 570.088625,414.675067 569.688283,414.692155 C569.535714,414.776373 569.378263,414.88134 569.208606,414.997293 C569.673637,414.965559 570.242415,415.160847 570.706226,415.2768 C571.365325,415.447678 572.078128,416.227612 571.923118,416.187333 C571.775024,416.155436 571.283504,415.886437 570.344361,415.889414 L570.136227,415.8944 C569.342867,415.940781 568.919334,415.54166 568.759442,415.32074 C568.184927,415.773321 567.542195,416.401882 566.946029,417.240235 L566.706714,417.592404 L566.64056,417.848507 C566.541695,418.203689 566.467241,418.569855 566.380582,418.936021 C566.225571,419.673236 566.077884,420.426318 565.979019,421.200149 L565.939962,421.490336 L565.908227,421.782353 C565.885037,421.977642 565.865508,422.172931 565.844758,422.36944 L565.784725,423.161806 L565.758578,423.723021 C566.117521,423.020675 566.612715,422.288344 567.259381,421.655416 L567.222942,421.549964 C567.187393,421.431805 567.145172,421.240253 567.143428,420.992655 C567.140987,420.819336 567.17028,420.622827 567.231308,420.405568 C567.261822,420.29816 567.299659,420.185869 567.353363,420.069916 C567.386725,419.992614 567.428224,419.91477 567.47569,419.836022 L567.551093,419.717176 C568.254132,418.649191 568.429892,417.924182 568.511669,417.741099 C568.554389,417.653219 568.594667,417.922961 568.592226,418.303774 C568.584903,418.684587 568.545845,419.178911 568.394496,419.556063 C568.184561,420.090665 567.986831,420.793705 567.703662,421.257515 C567.857452,421.131798 568.010022,421.008522 568.18212,420.895011 L568.310903,420.738672 C568.517674,420.499795 568.864898,420.152181 569.355072,419.851437 C569.654108,419.662251 570.021495,419.493814 570.426719,419.376641 C570.833163,419.258248 571.294533,419.192338 571.79618,419.206984 L571.187231,419.609796 C571.027817,419.711708 570.841951,419.826538 570.635433,419.94664 C570.301002,420.148031 569.907983,420.362849 569.502759,420.556917 C569.096315,420.747324 568.669121,420.913319 568.24925,420.998758 C568.106445,421.11349 567.956317,421.247751 567.800086,421.399099 C568.288308,421.286808 568.924217,421.392997 569.43929,421.432054 C569.752101,421.458209 570.096297,421.600043 570.373495,421.749178 L570.506055,421.823852 C570.802649,421.997171 570.986953,422.154622 570.899073,422.150961 C570.738448,422.145265 570.16635,421.958818 569.177817,422.127494 L568.959613,422.169269 C568.128415,422.358455 567.603577,422.019141 567.391201,421.811647 C566.815333,422.445585 566.208288,423.318153 565.743599,424.474519 L565.741011,424.765388 C565.753217,425.168171 565.76054,425.573395 565.78129,425.978619 C565.876465,427.543728 566.128872,429.119019 566.530888,430.653309 L566.572209,430.482463 C566.602723,430.354305 566.630795,430.224926 566.673515,430.093107 L566.805335,429.700088 C566.901758,429.435228 567.003064,429.172809 567.130002,428.912831 C567.259381,428.649191 567.403406,428.392875 567.560858,428.142661 L567.503492,428.059816 C567.479996,428.023047 567.452839,427.977276 567.424156,427.922961 C567.36801,427.814332 567.314306,427.669086 567.274027,427.493326 C567.233749,427.316346 567.205676,427.106411 567.213,426.872064 C567.227646,426.683611 567.264165,426.478753 567.332555,426.261865 L567.551856,425.652425 C567.602051,425.512672 567.646907,425.381157 567.681692,425.257271 C567.753705,425.010719 567.797645,424.79224 567.841585,424.607936 L567.89514,424.322213 C567.92939,424.110573 567.941845,423.966099 567.96364,423.896353 C567.991713,423.798709 568.085696,424.06601 568.166252,424.450485 L568.19463,424.600003 L568.217516,424.756844 C568.232162,424.866694 568.24925,424.978985 568.257794,425.090055 C568.278543,425.315858 568.276102,425.545322 568.234603,425.750375 L568.153504,426.377559 L568.051686,427.096851 C568.020225,427.287199 567.98024,427.468671 567.920921,427.631249 C568.052741,427.466474 568.189443,427.30414 568.335909,427.151571 L568.430507,426.962844 C568.487161,426.854342 568.560247,426.72633 568.660577,426.586455 C568.822911,426.354549 569.038949,426.093351 569.312353,425.840696 C569.583316,425.586821 569.933615,425.34393 570.332736,425.147421 C570.736739,424.948471 571.192006,424.794681 571.727829,424.709242 L571.438558,424.982646 C571.317316,425.094937 571.160272,425.237607 570.97538,425.399081 L570.678153,425.653951 C570.374235,425.921253 570.019054,426.221509 569.632138,426.505898 C569.244002,426.787846 568.850983,427.053927 568.432333,427.23823 C568.311498,427.389579 568.184561,427.560457 568.052741,427.753304 C568.538521,427.52262 569.231796,427.476238 569.781046,427.3908 C570.169182,427.330993 570.632992,427.420093 570.989394,427.515296 C571.344575,427.610499 571.578922,427.717908 571.48738,427.734996 C571.395839,427.754525 571.167595,427.755745 570.82584,427.811891 C570.525736,427.863154 570.134987,427.956469 569.668311,428.155615 L569.463701,428.247629 C568.641048,428.64797 568.012463,428.433153 567.740279,428.27326 C567.629209,428.47099 567.518138,428.687028 567.408288,428.920154 C567.309423,429.152059 567.213,429.401052 567.121458,429.665913 C567.076298,429.801394 567.032358,429.939317 566.988418,430.080901 L566.882229,430.516639 C566.848054,430.666767 566.815099,430.821777 566.785806,430.979229 L566.752191,431.167574 L566.72429,431.354396 L566.732347,431.384029 C567.321923,433.401639 568.181397,435.326589 569.223222,437.069108 C569.219355,436.728588 569.235352,436.373436 569.265972,436.016456 C569.294044,435.721082 569.347749,435.417164 569.411218,435.119348 C569.444173,434.96922 569.477128,434.820313 569.519847,434.671405 C569.560125,434.521277 569.611389,434.368708 569.663872,434.2198 L569.585662,434.148531 C569.486053,434.052355 569.330661,433.880486 569.19518,433.62417 C569.031625,433.276312 568.874174,432.78809 568.973039,432.155843 C568.99745,431.980083 569.014538,431.815308 569.026743,431.660298 C569.043831,431.504067 569.058478,431.358821 569.065801,431.220899 C569.073734,431.084196 569.07587,430.957869 569.075413,430.840696 L569.069462,430.515418 C569.065801,430.115077 569.021861,429.861201 569.021861,429.757454 C569.024302,429.651266 569.200062,429.895377 569.37216,430.272528 L569.546021,430.684081 C569.575179,430.756952 569.603252,430.831542 569.628476,430.907216 C569.70293,431.134239 569.745649,431.372247 569.770061,431.591947 C569.811559,432.21565 569.96657,433.001687 569.912865,433.605861 C569.955585,433.502114 570.004407,433.403249 570.05445,433.304384 C570.105713,433.204299 570.161858,433.104214 570.221666,433.00779 L570.264023,432.829945 C570.351722,432.492682 570.532093,431.962589 570.912499,431.411305 C571.026011,431.24653 571.151728,431.080535 571.296974,430.918201 C571.44344,430.754647 571.611877,430.593534 571.798622,430.438523 C572.170891,430.129723 572.615172,429.851437 573.142452,429.624414 L572.909326,429.979595 L572.288064,430.868158 C571.769328,431.5773 571.117552,432.478069 570.340059,433.0737 C570.244856,433.260445 570.169182,433.466718 570.084964,433.694962 C570.525584,433.337339 571.240828,433.112757 571.786416,432.883293 C572.174552,432.72096 572.685964,432.689225 573.07288,432.692887 L573.287375,432.702222 C573.550117,432.719837 573.709277,432.756356 573.637997,432.790531 L573.52488,432.832244 C573.403252,432.874251 573.214813,432.937521 572.971574,433.045627 C572.628598,433.195755 572.179434,433.432543 571.670463,433.847531 C571.294533,434.15389 570.932028,434.300357 570.614684,434.349179 C570.301002,434.401663 570.034921,434.360164 569.87991,434.311342 C569.634137,435.197295 569.463552,436.348089 569.605961,437.689476 C569.993179,438.294326 570.400613,438.873525 570.82584,439.424243 C571.644984,440.487956 572.530477,441.447006 573.446341,442.287494 L573.622862,442.445816 L573.54036,442.138592 C573.329783,441.300295 573.222113,440.366814 573.324314,439.404714 L573.222551,439.355434 C573.179373,439.332396 573.127805,439.302187 573.070439,439.26313 C572.96181,439.182573 572.82999,439.070282 572.693288,438.917713 C572.559027,438.767585 572.422325,438.578399 572.319798,438.335509 C572.216051,438.092618 572.123289,437.816773 572.097657,437.481121 C572.076603,437.201004 572.042504,436.951782 572.005143,436.725731 L571.967058,436.507118 C571.934103,436.293827 571.894969,436.105938 571.85326,435.941392 L571.733989,435.510364 C571.660928,435.26406 571.602112,435.101345 571.583804,435.021704 C571.563831,434.932826 571.720345,435.055567 571.922317,435.290989 L572.062261,435.463545 C572.201404,435.62954 572.349091,435.829711 572.476029,436.044528 C572.599305,436.263008 572.726243,436.476605 572.789711,436.701187 C572.976456,437.330993 573.33652,438.081633 573.42562,438.711439 C573.474442,438.479534 573.526926,438.248849 573.596498,438.021826 L573.598939,437.717908 C573.606262,437.594632 573.620909,437.451827 573.642879,437.296817 C573.691701,436.981914 573.768596,436.619409 573.924827,436.22395 C574.082278,435.82727 574.301978,435.412281 574.609558,435.004616 C574.913476,434.600613 575.316259,434.194168 575.805701,433.82312 L575.457233,434.713514 C575.409631,434.832518 575.357418,434.961015 575.300776,435.097288 L575.212511,435.307314 C574.852448,436.150717 574.381314,437.251657 573.739303,438.056002 C573.694142,438.267158 573.655084,438.502725 573.62335,438.760261 C573.993178,438.275701 574.668144,437.855831 575.171013,437.472577 C575.527414,437.204055 576.04737,437.018531 576.439168,436.911122 L576.641687,436.859848 C576.923517,436.795068 577.096825,436.785627 577.029917,436.84155 L576.944516,436.905896 C576.834094,436.983363 576.65124,437.103054 576.419639,437.290714 C576.149439,437.510719 575.808218,437.818566 575.445854,438.271491 L575.289406,438.474652 C574.980606,438.894522 574.644954,439.142295 574.336154,439.277776 C574.028574,439.415699 573.749067,439.44011 573.570866,439.437669 C573.563543,439.690324 573.561102,439.964948 573.578189,440.248117 C573.598939,440.527624 573.633114,440.825439 573.681937,441.137901 L573.722215,441.375909 L573.775919,441.612696 C573.813756,441.771368 573.855255,441.934923 573.900416,442.102139 C573.950458,442.266913 573.995619,442.442673 574.057867,442.609889 C574.094715,442.714416 574.134805,442.820332 574.176997,442.927068 C575.127419,443.722012 576.097445,444.38775 577.042122,444.927721 C577.879255,445.40871 578.697204,445.789174 579.462505,446.092235 C578.894707,445.263625 578.425751,444.253431 578.224839,443.146933 L578.111785,443.125211 C577.965776,443.091169 577.727768,443.015418 577.459552,442.855221 C577.111694,442.626977 576.70647,442.243723 576.477006,441.588285 L576.285531,441.083739 C576.223741,440.92583 576.163323,440.779058 576.102295,440.646018 L575.927756,440.278631 L575.819082,440.061915 C575.801632,440.028146 575.784544,439.995462 575.767864,439.963728 C575.717211,439.869745 575.668388,439.786442 575.623075,439.712446 L575.408105,439.367029 C575.383084,439.325378 575.36386,439.291813 575.351655,439.265571 C575.329685,439.213087 575.388271,439.225293 575.499342,439.282659 L575.650085,439.373155 C575.737057,439.426879 575.839144,439.493082 575.946064,439.570709 C576.297584,439.839231 576.733322,440.199295 576.977433,440.603298 L577.167206,440.889812 C577.200523,440.939222 577.234563,440.9894 577.269145,441.040257 L577.422935,441.272162 L577.58771,441.496744 L577.744856,441.727581 L577.889187,441.962995 C577.98561,442.114344 578.07227,442.262031 578.13818,442.41338 C578.119871,442.168049 578.112548,441.922717 578.119871,441.674945 C578.074711,441.512611 578.013683,441.255074 577.978287,440.931627 C577.959979,440.769294 577.947773,440.595975 577.950214,440.398245 C577.952655,440.201736 577.964861,439.993021 577.992934,439.773321 C578.049079,439.335142 578.167473,438.862788 578.384732,438.357479 C578.597108,437.855831 578.898585,437.341978 579.298927,436.822021 L579.230576,437.283391 L579.04139,438.457564 L578.91079,439.221631 L578.811247,439.757771 C578.792939,439.848996 578.773682,439.940944 578.753339,440.033299 C578.634945,440.58621 578.483597,441.161091 578.27122,441.660298 C578.279357,441.809206 578.294004,441.96842 578.314075,442.136857 L578.347871,442.39504 L578.450081,442.168714 C578.718629,441.634838 579.185873,441.084959 579.522288,440.603298 C579.661431,440.40801 579.840853,440.224926 580.028818,440.05771 C580.155756,439.943792 580.285948,439.838011 580.409631,439.74326 L580.589052,439.609767 C580.934469,439.360774 581.179801,439.230175 581.122435,439.326599 L581.058832,439.421039 C580.975587,439.537297 580.836215,439.720838 580.665947,439.988139 C580.467302,440.301058 580.222867,440.726116 579.998056,441.300108 L579.903101,441.55533 C579.720018,442.077728 579.463701,442.440232 579.197621,442.679461 C578.935202,442.918689 578.665459,443.039524 578.483597,443.09567 C578.545845,443.350766 578.628842,443.621729 578.727707,443.903677 C578.826572,444.185625 578.95473,444.46269 579.101197,444.761726 C579.246443,445.061982 579.425864,445.353695 579.628476,445.653951 C579.729782,445.8053 579.83597,445.96031 579.953144,446.11288 L580.147432,446.346254 L580.725754,446.540073 L580.945138,446.604446 L581.587702,446.778743 L581.849346,446.841542 L582.496359,446.977012 C583.927526,447.231522 586.332096,447.416041 588.879315,447.436523 L589.305029,447.438401 C591.876696,447.436428 594.350303,447.263846 595.885644,447.016014 L596.132703,446.974028 L596.737837,446.847169 L596.808996,446.828124 L597.024179,446.778521 L597.666729,446.604446 C597.739194,446.58442 597.812292,446.563264 597.885525,446.540073 L598.461728,446.347643 L598.475053,446.333647 L598.658136,446.11288 C598.775309,445.96031 598.882718,445.8053 598.984024,445.653951 C599.186636,445.353695 599.366057,445.061982 599.510083,444.761726 C599.655328,444.46269 599.783487,444.185625 599.884793,443.903677 C599.983658,443.621729 600.062994,443.350766 600.128903,443.09567 C599.947041,443.039524 599.677298,442.918689 599.413659,442.679461 C599.180838,442.470136 598.956428,442.166428 598.781312,441.743806 L598.709399,441.55533 C598.457965,440.84985 598.172355,440.345761 597.946553,439.988139 L597.786965,439.748147 C597.639812,439.534856 597.53248,439.399832 597.487624,439.326599 C597.436583,439.238941 597.635705,439.338905 597.93093,439.544877 L598.022227,439.609767 C598.194325,439.734264 598.389614,439.886833 598.58002,440.05771 C598.769206,440.224926 598.949848,440.40801 599.087771,440.603298 C599.426322,441.084959 599.893832,441.634838 600.161596,442.168714 L600.262188,442.39504 L600.298063,442.136857 C600.318496,441.96842 600.333143,441.809206 600.34128,441.660298 C600.128903,441.161091 599.976334,440.58621 599.85794,440.033299 C599.796913,439.756234 599.74687,439.482829 599.700489,439.221631 L599.435312,437.616557 L599.312353,436.822021 C599.712695,437.341978 600.015392,437.855831 600.227768,438.357479 C600.442586,438.862788 600.5622,439.335142 600.618346,439.773321 C600.647639,439.993021 600.658624,440.201736 600.661065,440.398245 C600.663506,440.595975 600.65008,440.769294 600.632992,440.931627 C600.597596,441.255074 600.536569,441.512611 600.493849,441.674945 C600.499952,441.922717 600.493849,442.168049 600.4731,442.41338 C600.53901,442.262031 600.625669,442.114344 600.719652,441.962995 C600.813634,441.805544 600.91494,441.648093 601.02357,441.496744 L601.188344,441.272162 L601.542893,440.743978 C601.574582,440.696196 601.605367,440.649272 601.635067,440.603298 C601.877958,440.199295 602.313695,439.839231 602.666436,439.570709 C602.844636,439.441331 603.00575,439.343686 603.111938,439.282659 C603.221788,439.225293 603.281595,439.213087 603.259625,439.265571 C603.236434,439.318055 603.18273,439.399832 603.111938,439.517005 L602.919186,439.830592 C602.894908,439.872415 602.869963,439.916736 602.844636,439.963728 L602.739217,440.166611 L602.568384,440.516594 C602.548449,440.558273 602.528513,440.601264 602.508984,440.646018 C602.447346,440.779058 602.386929,440.92583 602.324986,441.083739 L602.131833,441.588285 C601.90603,442.243723 601.499586,442.626977 601.152948,442.855221 C600.795326,443.068818 600.488967,443.132286 600.383999,443.146933 C600.187047,444.253431 599.717234,445.263625 599.150264,446.092919 C599.913081,445.789823 600.732279,445.40912 601.569157,444.927721 C602.515576,444.387379 603.484448,443.721097 604.433865,442.92713 L604.353241,443.127404 C604.425254,442.952865 604.491164,442.779546 604.554633,442.609889 C604.61444,442.442673 604.663262,442.266913 604.710864,442.102139 C604.757245,441.934923 604.797523,441.771368 604.836581,441.612696 L604.889065,441.375909 L604.928122,441.137901 C604.978165,440.825439 605.012341,440.527624 605.034311,440.248117 C605.051398,439.964948 605.048957,439.690324 605.041634,439.437669 C604.863433,439.44011 604.582706,439.415699 604.276346,439.277776 C604.005078,439.15923 603.71512,438.954711 603.439997,438.624153 L603.323094,438.474652 C602.899561,437.908315 602.501661,437.542148 602.190419,437.290714 C601.880399,437.040501 601.661919,436.911122 601.578922,436.84155 C601.499586,436.773199 601.776652,436.802493 602.170891,436.911122 C602.563909,437.018531 603.083865,437.204055 603.441487,437.472577 L604.052334,437.920666 C604.404924,438.179831 604.756024,438.457411 604.987929,438.760261 C604.954975,438.502725 604.915917,438.267158 604.871977,438.056002 C604.310217,437.3522 603.879285,436.421317 603.539115,435.63458 L603.398768,435.307314 C603.246199,434.948267 603.120753,434.632449 603.024549,434.3867 L602.805579,433.82312 C603.295021,434.194168 603.699024,434.600613 604.004163,435.004616 C604.310522,435.412281 604.529001,435.82727 604.686453,436.22395 C604.843904,436.619409 604.920799,436.981914 604.969621,437.296817 C604.990371,437.451827 605.005017,437.594632 605.012341,437.717908 L605.016319,437.934624 C605.016138,437.966223 605.015595,437.995381 605.014782,438.021826 C605.081912,438.248849 605.138058,438.479534 605.183218,438.711439 C605.27598,438.081633 605.634823,437.330993 605.819127,436.701187 C605.885037,436.476605 606.011974,436.263008 606.13525,436.044528 C606.219062,435.901317 606.31318,435.764615 606.408202,435.640209 L606.550239,435.463545 C606.813878,435.120569 607.050666,434.913075 607.028696,435.021704 L606.997133,435.129056 C606.954166,435.264137 606.879788,435.482463 606.799232,435.78455 C606.758038,435.933763 606.716158,436.105632 606.67874,436.302218 L606.643001,436.507118 C606.594179,436.789067 606.544136,437.107631 606.513622,437.481121 C606.487991,437.816773 606.396449,438.092618 606.292702,438.335509 C606.191396,438.578399 606.049812,438.767585 605.917992,438.917713 C605.783731,439.070282 605.64947,439.182573 605.538399,439.26313 C605.42855,439.341245 605.333346,439.383965 605.286965,439.404714 C605.389166,440.366814 605.281497,441.300295 605.070001,442.138592 L604.985244,442.446792 L605.164068,442.287494 C606.080516,441.447006 606.965075,440.487956 607.784219,439.424243 C608.104068,439.010541 608.413805,438.580766 608.711773,438.136631 L609.004285,437.688584 L609.02095,437.540078 C609.135076,436.262553 608.969283,435.164227 608.73381,434.311342 C608.576359,434.360164 608.310278,434.401663 607.994154,434.349179 C607.680472,434.300357 607.315526,434.15389 606.942037,433.847531 C606.431845,433.432543 605.983902,433.195755 605.639705,433.045627 L605.403585,432.947582 C605.189092,432.863993 605.041024,432.82074 604.973283,432.790531 C604.884182,432.747812 605.155145,432.701431 605.538399,432.692887 C605.922874,432.689225 606.437948,432.72096 606.826084,432.883293 C607.370451,433.112757 608.083255,433.337339 608.528757,433.694962 C608.443318,433.466718 608.366423,433.260445 608.272441,433.0737 C607.492507,432.478069 606.843172,431.5773 606.323216,430.868158 L605.703174,429.979595 L605.489026,429.65597 L605.468828,429.624414 C605.997328,429.851437 606.44283,430.129723 606.813878,430.438523 C606.996962,430.593534 607.167839,430.754647 607.313085,430.918201 C607.460772,431.080535 607.586489,431.24653 607.69756,431.411305 C608.156488,432.072845 608.322483,432.703872 608.389614,433.00779 C608.450642,433.104214 608.503125,433.204299 608.55683,433.304384 C608.606872,433.403249 608.653254,433.502114 608.698414,433.605861 C608.64593,433.001687 608.79972,432.21565 608.841219,431.591947 C608.86563,431.372247 608.90957,431.134239 608.984024,430.907216 C609.058478,430.680193 609.159784,430.462934 609.24034,430.272528 L609.333066,430.081309 C609.469804,429.818189 609.588642,429.670573 609.590639,429.757454 C609.590639,429.848233 609.555129,430.053953 609.544616,430.372163 L609.535104,430.840696 C609.534799,430.899283 609.535256,430.960158 609.537011,431.023474 L609.546699,431.220899 C609.552802,431.358821 609.568669,431.504067 609.585757,431.660298 C609.595521,431.815308 609.61383,431.980083 609.638241,432.155843 C609.737106,432.78809 609.580875,433.276312 609.4161,433.62417 C609.235458,433.965925 609.02064,434.157552 608.947407,434.2198 C609.001111,434.368708 609.048713,434.521277 609.092653,434.671405 C609.131711,434.820313 609.167107,434.96922 609.198841,435.119348 C609.261089,435.417164 609.317235,435.721082 609.344087,436.016456 C609.376915,436.373089 609.392869,436.727899 609.388045,437.067502 C610.339853,435.478611 611.138539,433.737433 611.718893,431.912567 L611.886746,431.36709 L611.868803,431.221661 L611.826694,430.979229 L611.730271,430.516639 C611.694874,430.367731 611.659478,430.221265 611.622862,430.080901 L611.489821,429.665913 C611.39828,429.401052 611.301856,429.152059 611.202991,428.920154 C611.094362,428.687028 610.983291,428.47099 610.872221,428.27326 C610.618183,428.422493 610.053679,428.619572 609.309701,428.319693 L609.147578,428.247629 C608.589785,427.983989 608.128415,427.870477 607.78666,427.811891 L607.520465,427.775509 C607.323771,427.753553 607.190507,427.748945 607.12512,427.734996 C607.033578,427.717908 607.264263,427.610499 607.619444,427.515296 C607.979508,427.420093 608.440877,427.330993 608.832675,427.3908 C609.380704,427.476238 610.072758,427.52262 610.558539,427.753304 C610.427939,427.560457 610.299781,427.389579 610.178946,427.23823 C609.759076,427.053927 609.364837,426.787846 608.979141,426.505898 C608.688955,426.292606 608.417305,426.070389 608.170887,425.859843 L607.636442,425.399081 C607.497773,425.277975 607.374463,425.167447 607.270326,425.07238 L606.88345,424.709242 C607.419273,424.794681 607.875761,424.948471 608.278543,425.147421 C608.677665,425.34393 609.027964,425.586821 609.300147,425.840696 C609.57111,426.093351 609.785928,426.354549 609.950703,426.586455 C610.117918,426.81958 610.210681,427.019751 610.27537,427.151571 C610.423057,427.30414 610.558539,427.466474 610.687917,427.631249 C610.616515,427.428027 610.571202,427.195282 610.536016,426.952583 L610.503614,426.707289 C610.45235,426.37774 610.420616,426.042087 610.376676,425.750375 C610.336398,425.545322 610.333957,425.315858 610.353485,425.090055 C610.36325,424.978985 610.379117,424.866694 610.393764,424.756844 C610.409631,424.650656 610.425498,424.546909 610.445027,424.450485 L610.496061,424.231385 C610.54727,424.031233 610.596964,423.894286 610.626812,423.877796 L610.638711,423.878585 L610.647639,423.896353 C610.673794,423.980048 610.684704,424.171352 610.739554,424.457196 L610.838808,424.909261 C610.863677,425.017737 610.89236,425.133995 610.929587,425.257271 C611.000379,425.505044 611.109008,425.78333 611.220079,426.097012 C611.326267,426.375299 611.379971,426.636497 611.39828,426.872064 C611.405603,427.106411 611.379971,427.316346 611.337252,427.493326 C611.294533,427.669086 611.243269,427.814332 611.185903,427.922961 L611.107178,428.059816 C611.083682,428.096585 611.063848,428.124353 611.050422,428.142661 C611.207873,428.392875 611.353119,428.649191 611.482498,428.912831 C611.605774,429.172809 611.709521,429.435228 611.803504,429.700088 C611.852326,429.831908 611.895045,429.963728 611.937765,430.093107 C611.978043,430.224926 612.008557,430.354305 612.041512,430.482463 L612.080081,430.651357 L612.18733,430.233086 C612.527083,428.832141 612.743483,427.401174 612.82999,425.978619 C612.849519,425.573395 612.859283,425.168171 612.871489,424.765388 L612.868071,424.481212 L612.748734,424.192984 C612.303649,423.175238 611.748246,422.393074 611.220079,421.811647 C611.020605,422.00432 610.555923,422.310654 609.826032,422.20196 L609.652887,422.169269 C608.531198,421.931261 607.885525,422.144858 607.712206,422.150961 C607.624326,422.154622 607.80863,421.997171 608.102784,421.823852 C608.399378,421.650534 608.808264,421.462568 609.171989,421.432054 L609.879128,421.367329 C610.205026,421.342107 610.53343,421.334933 610.812414,421.399099 C610.652521,421.247751 610.506055,421.11349 610.36325,420.998758 C609.943379,420.913319 609.514965,420.747324 609.109741,420.556917 C608.805823,420.411366 608.508084,420.254143 608.237636,420.099667 L607.977067,419.94664 C607.700733,419.786503 607.461895,419.63574 607.273676,419.512474 L606.81632,419.206984 C607.317967,419.192338 607.779337,419.258248 608.184561,419.376641 C608.587344,419.493814 608.957172,419.662251 609.256207,419.851437 C609.870146,420.227367 610.257062,420.676531 610.43038,420.895011 C610.602478,421.008522 610.753827,421.131798 610.906396,421.257515 C610.625669,420.793705 610.425498,420.090665 610.218004,419.556063 C610.062994,419.178911 610.027597,418.684587 610.016613,418.303774 L610.02044,418.090587 C610.02914,417.894674 610.051198,417.756497 610.075277,417.729313 L610.087433,417.725217 L610.09961,417.741099 L610.135478,417.834769 C610.233299,418.110793 610.443959,418.782689 611.060186,419.717176 C611.137081,419.83679 611.205432,419.953963 611.259137,420.069916 C611.309179,420.185869 611.350678,420.29816 611.381192,420.405568 C611.440999,420.622827 611.471513,420.819336 611.466631,420.992655 C611.466631,421.339292 611.383633,421.57608 611.350678,421.655416 C611.996964,422.288933 612.493866,423.022038 612.85347,423.724982 L612.844636,423.560701 C612.832431,423.160359 612.797035,422.7649 612.766521,422.36944 L612.704273,421.782353 L612.670707,421.490336 L612.629819,421.200149 C612.533395,420.426318 612.383267,419.673236 612.231918,418.936021 L612.062849,418.206944 L611.906946,417.599514 L611.86209,417.527502 C611.212756,416.543735 610.490188,415.823608 609.851838,415.32074 C609.704245,415.524666 609.333052,415.880433 608.651859,415.897479 L608.475053,415.8944 C607.398524,415.846799 606.845613,416.153158 606.688161,416.187333 C606.533151,416.227612 607.245955,415.447678 607.905054,415.2768 L608.323686,415.165128 C608.686009,415.067786 609.071729,414.974626 609.403894,414.997293 C609.233017,414.88134 609.075565,414.776373 608.924217,414.692155 C608.523875,414.675067 608.100343,414.583525 607.69756,414.465131 C607.390895,414.376336 607.091783,414.273123 606.817731,414.16785 L606.55268,414.062349 C606.343965,413.981792 606.153705,413.902114 605.9906,413.830434 L605.365081,413.546054 C605.82645,413.456954 606.258526,413.44841 606.650324,413.500894 C607.043343,413.552157 607.408288,413.653463 607.717089,413.786503 C608.342012,414.046481 608.771647,414.407765 608.966936,414.587187 C609.143916,414.665302 609.305029,414.758064 609.467363,414.853268 C609.12927,414.46269 608.832675,413.838987 608.551948,413.375177 C608.455524,413.209181 608.373747,413.015113 608.310278,412.818604 C608.245588,412.620874 608.206531,412.418262 608.171135,412.244943 L608.139146,412.047487 C608.106494,411.804665 608.113525,411.653707 608.156488,411.715223 L608.349215,412.058419 C608.368978,412.09236 608.390368,412.128311 608.41353,412.166152 L608.488479,412.285222 C608.642269,412.537353 608.869591,412.85136 609.188123,413.217248 L609.355072,413.40447 C609.544258,413.600979 609.669975,413.806032 609.763958,413.996439 C609.855499,414.186845 609.912865,414.365046 609.938497,414.526159 C609.995863,414.844724 609.959246,415.075409 609.943379,415.153524 C610.6455,415.641871 611.228657,416.236577 611.688418,416.818011 L611.681448,416.79761 C611.278665,415.417164 610.795326,414.136802 610.280252,412.982158 C609.962019,412.266794 609.632577,411.599299 609.302146,410.982491 L609.272074,410.948715 C608.516551,410.140708 607.730515,409.59512 607.057989,409.235057 C606.957716,409.444617 606.674403,409.821616 606.05061,409.946536 L605.887478,409.972272 C604.891506,410.106533 604.444783,410.476361 604.30564,410.534947 C604.234848,410.565461 604.336154,410.375055 604.519237,410.14437 C604.70354,409.914906 604.973283,409.63906 605.263775,409.508461 L605.628731,409.337092 C605.944794,409.189149 606.283809,409.04343 606.594179,409.012916 C606.417198,408.931139 606.253644,408.864009 606.098634,408.812745 C605.727585,408.864009 605.330905,408.846921 604.937887,408.812745 C604.541207,408.782231 604.167717,408.71266 603.827183,408.663838 L603.63204,408.630277 L602.761639,408.462446 C602.706104,408.450241 602.6762,408.442917 602.6762,408.442917 C603.066777,408.269599 603.454913,408.171954 603.8223,408.14144 C604.184805,408.113368 604.531442,408.137779 604.841463,408.200027 C605.145381,408.263496 605.416344,408.356258 605.634823,408.451461 C605.849641,408.549106 606.016857,408.645529 606.120604,408.711439 C606.295143,408.754159 606.466021,408.807863 606.628354,408.871332 C606.248762,408.572296 605.872831,408.053561 605.532297,407.682512 C605.416344,407.547031 605.302832,407.3908 605.21007,407.222363 C605.119749,407.056368 605.041634,406.879388 604.975724,406.729259 C604.851227,406.426562 604.799964,406.194657 604.863433,406.254464 L605.105373,406.529765 L605.27598,406.707289 C605.464294,406.91025 605.732418,407.152667 606.091111,407.433003 L606.278055,407.576324 C606.485549,407.72279 606.638119,407.888786 606.755292,408.047458 C606.871245,408.20613 606.956683,408.356258 607.007947,408.499063 C607.110473,408.782231 607.117796,408.997049 607.115355,409.070282 C607.792946,409.384421 608.391964,409.802412 608.887874,410.233264 C608.364022,409.32288 607.849245,408.542782 607.383738,407.904585 L607.187368,407.639793 C606.278055,406.415577 605.621397,405.763801 605.555487,405.674701 C605.444417,405.743052 605.256451,405.829711 604.992812,405.865107 C604.72429,405.905385 604.389858,405.887077 603.982193,405.758919 C603.701465,405.678362 603.457355,405.625878 603.243758,405.599026 C603.025278,405.577056 602.838534,405.574615 602.684744,405.580718 C602.379605,405.591703 602.187978,405.649069 602.106201,405.656392 C601.943867,405.669818 602.7653,405.016822 603.498853,405.03513 C603.75639,405.032689 604.042,405.040012 604.331271,405.061982 C604.476517,405.074188 604.620543,405.088835 604.762127,405.116907 C604.898829,405.14498 605.031869,405.181597 605.155145,405.229198 C604.997694,405.066865 604.851227,404.914295 604.701099,404.791019 C603.849152,404.490763 602.950825,403.961043 602.217272,403.563142 C601.909082,403.401419 601.641577,403.242238 601.426765,403.125861 L601.132082,402.966156 C601.00967,402.896944 600.941793,402.855221 600.941793,402.855221 C601.973161,402.791752 602.892238,403.157918 603.542793,403.58145 C603.874784,403.786503 604.1311,404.023291 604.341036,404.21858 C604.544868,404.41875 604.684012,404.598172 604.770671,404.710463 C604.947651,404.8374 605.101441,404.980205 605.256451,405.12179 C605.209257,405.043674 605.165317,404.959591 605.123908,404.87135 L605.063604,404.736094 C605.000135,404.601833 604.94521,404.457808 604.886623,404.312562 C604.83414,404.166096 604.780435,404.017188 604.72429,403.873163 C604.669365,403.730358 604.61444,403.592435 604.557074,403.461836 C604.402063,403.087126 604.338595,402.6343 604.326389,402.287663 C604.314184,401.939805 604.356903,401.703017 604.406946,401.793338 L604.588262,402.210704 C604.742846,402.556642 605.004407,403.088346 605.459063,403.784062 C606.101075,404.791019 605.765422,405.435472 605.69341,405.561189 L606.236861,406.149801 C606.504841,406.449786 606.856963,406.861882 607.264083,407.387373 L607.419273,407.58975 C607.920766,408.240405 608.485253,409.057688 609.062424,410.027863 C608.942332,409.433898 608.834217,408.768882 608.764324,408.058443 L608.670338,408.018688 C608.568139,407.970613 608.411584,407.882683 608.240706,407.736217 C608.122312,407.632469 607.991713,407.503091 607.864776,407.339536 C607.765911,407.215955 607.676658,407.069031 607.589293,406.901338 L607.502271,406.726818 C606.989638,405.623437 606.386685,405.176714 606.270732,405.037571 C606.207263,404.964338 606.447712,405.037571 606.769939,405.209669 C606.934713,405.293888 607.106811,405.413502 607.276468,405.544101 C607.448567,405.675921 607.613341,405.826049 607.730515,405.988383 L608.146078,406.534092 C608.380593,406.853069 608.602295,407.189866 608.716722,407.50187 C608.704517,407.313905 608.695973,407.119837 608.686209,406.92821 L608.627134,406.737295 C608.594472,406.624633 608.558294,406.487101 608.523875,406.328918 C608.465288,406.064057 608.396937,405.751595 608.3591,405.393973 C608.278543,404.683611 608.27,403.819458 608.542183,402.939439 L608.62663,403.185056 L608.682547,403.361751 C608.766765,403.622949 608.850983,403.995218 608.924217,404.405324 C608.996229,404.81421 609.027964,405.275579 609.023081,405.712538 C609.003553,406.156819 608.936422,406.585234 608.797279,406.941636 L608.86563,407.52384 C609.037728,407.106411 609.435629,406.70973 609.717577,406.358211 C610.115477,405.851681 611.129758,405.711317 611.038216,405.837034 L610.984877,405.890691 C610.822426,406.042679 610.408716,406.396048 610.052009,407.241892 C609.734665,407.954696 609.1964,408.057222 608.944966,408.071869 C609.057157,408.844484 609.227437,409.750813 609.481771,410.759698 C609.864002,411.443912 610.245125,412.193139 610.612243,413.002908 C611.056163,413.979329 611.472905,415.044931 611.844047,416.183418 L612.0254,416.757545 L612.031499,416.676242 C612.090029,415.969083 612.188894,415.176104 612.356415,414.346738 L612.284254,414.285727 C612.088548,414.108817 611.662598,413.636093 611.505266,412.767391 L611.473954,412.559846 C611.309179,411.26728 610.84781,410.599637 610.774577,410.415333 C610.736739,410.32013 610.956439,410.481243 611.231064,410.770514 C611.494704,411.064668 611.820592,411.485759 611.958514,411.897086 L612.180836,412.510889 C612.21795,412.617619 612.253888,412.725842 612.286843,412.834471 C612.338106,412.995584 612.383267,413.157918 612.419884,413.314149 C612.452839,413.4716 612.474809,413.62417 612.485794,413.765754 C612.533395,413.569245 612.5871,413.372735 612.642024,413.176226 L612.642337,412.962414 C612.650031,412.628979 612.690847,412.111659 612.812902,411.524817 C612.8959,411.153768 613.008191,410.758309 613.177848,410.357967 C613.347505,409.957625 613.578189,409.553622 613.882107,409.177691 L613.874002,409.537163 L613.868681,409.63906 C613.849152,409.92345 613.818639,410.315247 613.742964,410.743662 C613.663628,411.174517 613.55744,411.638328 613.390224,412.075286 C613.223008,412.511024 613.015514,412.915028 612.753095,413.22871 C612.711596,413.415455 612.673759,413.620508 612.634701,413.840208 C612.945942,413.475262 613.489089,413.214063 613.899195,412.961409 C614.480179,412.591581 615.58478,412.807619 615.449299,412.896719 L615.374797,412.93244 C615.153524,413.028291 614.610321,413.231609 613.957782,413.961043 C613.40243,414.570099 612.805579,414.491984 612.538277,414.422412 C612.407678,415.286564 612.299049,416.336241 612.252668,417.527502 C612.590915,418.739432 612.862984,420.018986 613.055792,421.349057 C613.167459,422.154433 613.246604,422.97894 613.283773,423.815081 C613.578921,423.070457 613.943821,422.223767 614.392299,421.35638 L614.336955,421.270407 C614.26704,421.156438 614.160394,420.959395 614.079837,420.687516 C614.029794,420.506874 613.980972,420.294498 613.960223,420.050387 C613.938253,419.805056 613.950458,419.526769 613.988296,419.217969 C614.087161,418.522253 614.056647,417.96324 614.009045,417.551913 L613.96459,417.273016 C613.919105,417.021963 613.874479,416.854671 613.86624,416.773199 C613.851594,416.662129 614.037118,416.900137 614.23973,417.284611 C614.343477,417.47868 614.442342,417.710585 614.525339,417.952255 C614.604675,418.195145 614.673027,418.446579 614.685232,418.683367 L614.728409,419.20851 C614.743208,419.390067 614.756024,419.576202 614.759686,419.761116 C614.767009,419.947861 614.767009,420.128503 614.759686,420.303042 C614.74626,420.478802 614.727951,420.644797 614.696217,420.794925 C614.802405,420.60818 614.913476,420.418994 615.031869,420.23347 L615.086742,420.034556 C615.188776,419.690868 615.381059,419.154057 615.683645,418.569855 C615.876493,418.212233 616.104737,417.838743 616.396449,417.481121 C616.690602,417.121057 617.045784,416.776861 617.472978,416.492472 L617.391506,416.767554 L617.326511,416.962385 C617.225205,417.252877 617.078739,417.644675 616.878568,418.065766 C616.478226,418.91039 615.859405,419.845334 615.131955,420.325012 C615.034311,420.504433 614.935446,420.707045 614.831699,420.920642 C615.261334,420.646018 615.904566,420.554476 616.403772,420.427538 C616.758954,420.337217 617.210559,420.436082 617.549873,420.572784 C617.892848,420.707045 618.122312,420.875482 618.035653,420.897452 L617.673808,420.934554 C617.34566,420.977396 616.829243,421.094607 616.168205,421.491862 C615.410241,421.938584 614.814611,421.656636 614.559515,421.494303 C614.170372,422.348221 613.736118,423.402091 613.304277,424.602295 C613.312474,425.145197 613.300284,425.691582 613.266948,426.239817 C613.178402,427.810651 612.931674,429.394486 612.536973,430.941305 C613.101435,430.28139 613.792644,429.540042 614.555853,428.791996 L614.53108,428.682775 C614.503903,428.53957 614.473466,428.297671 614.475297,427.98643 C614.477738,427.780156 614.503369,427.543369 614.569279,427.28217 C614.621031,427.072235 614.685281,426.846677 614.785776,426.607995 L614.868315,426.426562 C614.947651,426.252023 615.024546,426.086027 615.083133,425.924914 C615.141719,425.763801 615.191762,425.610011 615.235702,425.462324 C615.317479,425.169391 615.382168,424.906972 615.416344,424.679949 L615.453704,424.369509 C615.482712,424.087904 615.489577,423.894522 615.500562,423.804812 C615.507886,423.745004 615.544502,423.791386 615.589663,423.915882 L615.645554,424.096993 C615.674613,424.203738 615.704639,424.333067 615.732468,424.477337 C615.78251,424.716566 615.814245,424.997293 615.819127,425.284123 C615.824009,425.569733 615.814245,425.859004 615.755658,426.11288 C615.666558,426.470502 615.582339,426.879388 615.481033,427.272406 C615.36264,427.662983 615.228379,428.036473 615.066045,428.324524 C615.235702,428.169513 615.4078,428.014503 615.589663,427.863154 L615.703671,427.694763 C615.770531,427.599017 615.851935,427.486896 615.946816,427.36267 L616.04615,427.234569 C616.24388,426.970929 616.500196,426.665791 616.811437,426.35577 C617.127561,426.04697 617.470537,425.729626 617.889187,425.450119 C618.300513,425.171832 618.774088,424.930163 619.30625,424.777593 L619.132722,425.047927 C619.095247,425.103939 619.05207,425.167255 619.003553,425.236522 L618.782994,425.540485 C618.619892,425.759733 618.424603,426.007912 618.196766,426.259346 C617.848908,426.636497 617.443684,427.01609 617.017711,427.328551 C616.577091,427.639793 616.110839,427.881462 615.659234,427.996195 C615.501783,428.147543 615.339449,428.320862 615.160028,428.506386 C615.690969,428.38189 616.369597,428.524694 616.920067,428.585722 C617.314306,428.626 617.734176,428.905507 618.025889,429.181353 C618.320042,429.455977 618.49214,429.72572 618.399378,429.714735 C618.305396,429.701309 618.09424,429.609767 617.750043,429.554842 C617.405847,429.501138 616.929831,429.486491 616.30979,429.606105 C615.391933,429.775762 614.885403,429.259468 614.68035,428.995828 L614.147813,429.576529 C613.593149,430.1878 612.976468,430.889942 612.337076,431.675395 L612.462603,431.225781 C611.864379,433.468285 610.93901,435.617565 609.788678,437.558908 Z" id="37"></path>
        </g>
    </g>
</svg>
