<?xml version="1.0" encoding="UTF-8"?>
<svg width="61px" height="53px" viewBox="0 0 61 53" version="1.1" xmlns="http://www.w3.org/2000/svg" xmlns:xlink="http://www.w3.org/1999/xlink">
    <title>25</title>
    <g id="页面-1" stroke="none" stroke-width="1" fill="none" fill-rule="evenodd">
        <g id="花环" transform="translate(-398.000000, -322.000000)" fill="#545458">
            <path d="M418.8953,323.91273 C419.260454,324.027559 421.140979,323.958541 421.390477,323.909734 L421.416003,323.901237 L421.28197,324.013171 C421.069713,324.200357 420.641473,324.619331 420.165461,325.324362 L419.797806,325.896745 C419.223147,326.809232 418.935583,327.268542 417.846853,327.6835 C417.324448,327.882281 416.644474,327.125945 416.644474,327.125945 L416.713476,327.063122 C415.017455,328.226833 413.39101,329.507071 411.889497,330.943986 C409.105358,333.604494 406.755141,336.828617 405.501854,340.611508 C404.527345,343.547157 404.207357,346.654921 404.567343,349.745717 C404.92733,352.836512 405.892143,355.855794 407.342999,358.559937 C408.995059,361.636187 411.274975,364.314876 413.998511,366.354801 C417.280814,368.816528 423.969052,371.690361 427.127723,371.291588 C427.387107,371.25765 427.611342,374.236934 427.370138,374.138756 C423.893903,372.731535 419.00075,369.921942 416.319637,368.389877 C413.26278,366.638427 410.568334,364.208213 408.501744,361.23499 C406.686053,358.629025 405.352769,355.632772 404.630371,352.481373 C403.986759,349.668144 403.814644,346.737343 404.281293,343.87563 C404.89218,340.138798 406.48,336.695289 408.745371,333.782669 C411.402212,330.368327 414.80982,327.696512 418.388175,325.458704 C418.477344,325.393705 418.567773,325.339295 418.657126,325.291189 L419.215842,324.949441 L418.795269,325.088901 C418.312261,325.254105 417.709785,325.482796 417.453415,325.672741 L417.381416,325.734481 C417.051731,326.077499 416.530538,326.151436 416.291759,326.226584 C416.211762,326.252038 416.36206,324.98057 416.913555,324.801182 C417.462625,324.620583 418.508647,323.787886 418.8953,323.91273 Z M415.559665,368.724308 C415.677236,368.723198 415.791172,368.742591 415.907531,368.778954 C416.020254,368.814104 416.132977,368.868647 416.240852,368.935312 C416.349939,368.99834 416.459026,369.072276 416.559628,369.157122 C416.662655,369.238331 416.758409,369.324388 416.851739,369.410446 L417.105063,369.667406 L417.179358,369.746505 L417.307479,369.890428 C417.420202,370.018908 417.489291,370.10739 417.489291,370.10739 L417.19718,370.278292 L416.639315,370.587265 C416.584112,370.617189 416.527145,370.647976 416.468722,370.67949 L416.005709,370.919481 L415.522091,371.163108 L414.610609,371.615213 C414.343952,371.750965 414.061539,371.832174 413.780337,371.875809 C413.6361,371.895202 413.493075,371.908535 413.353686,371.914596 L413.145057,371.918232 L412.838553,371.912323 L412.546443,371.895202 L412.360238,371.880051 L412.184032,371.868537 C411.956162,371.853992 411.756169,371.847931 411.594963,371.879445 L412.053052,371.975275 C412.093581,371.983154 412.136458,371.991259 412.181608,371.999441 L412.575982,372.063861 C412.789778,372.096452 413.025797,372.128235 413.271916,372.152999 L413.520952,372.175192 C413.647008,372.186101 413.773064,372.197009 413.897908,372.20307 L414.087144,372.209888 L414.273652,372.213979 C414.437686,372.218827 414.598488,372.216133 414.752467,372.209489 L415.056956,372.190798 L415.285736,372.16792 L415.426185,372.147769 L415.554817,372.123073 C415.609764,372.112568 415.659863,372.101525 415.705473,372.088865 L415.770566,372.068529 C415.814201,372.056409 415.852449,372.041056 415.885669,372.025703 L415.931773,372.003077 C416.103887,371.906111 416.295396,371.837023 416.488116,371.7946 C416.684472,371.744905 416.885677,371.715815 417.074761,371.696422 L417.266763,371.678779 L417.618983,371.656423 C417.785038,371.645515 417.930487,371.633394 418.040786,371.622485 C418.079572,371.620061 418.086845,371.740057 418.062603,371.92308 C418.038362,372.10974 417.983818,372.357004 417.890488,372.613964 C417.797158,372.8685 417.666254,373.129096 417.484443,373.330301 C417.397173,373.430903 417.295359,373.515749 417.180211,373.579989 C417.092033,373.62726 416.999082,373.664304 416.89829,373.682428 L416.794771,373.693924 C416.652958,373.703621 416.495388,373.724226 416.322061,373.753316 L415.775415,373.852706 L415.179073,373.965429 L414.869994,374.01876 L414.405162,374.083152 L414.100022,374.116333 L413.95124,374.125423 C413.850637,374.131484 413.754883,374.13512 413.661553,374.138756 C413.565799,374.138756 413.471257,374.138756 413.3852,374.132696 C413.208237,374.122999 413.044606,374.102394 412.899157,374.07088 C412.804615,374.046638 412.717615,374.016471 412.64103,373.97966 L412.345238,373.810283 L412.08343,373.673319 L411.87612,373.571863 C411.838994,373.554266 411.800612,373.536354 411.761017,373.518173 L411.583903,373.430449 L411.39497,373.339998 C410.980925,373.138308 410.505597,372.902486 410.032907,372.655494 L409.463223,372.350943 L409.041724,372.11777 L408.460533,371.786115 L407.487565,371.212726 C407.45289,371.193352 407.426593,371.179912 407.409682,371.173105 L407.391482,371.167956 C407.352695,371.163108 407.424208,371.172805 407.58299,371.175229 L407.811267,371.173348 C407.94511,371.169653 408.107576,371.160199 408.294479,371.137655 C408.450836,371.119473 408.625375,371.091596 408.813247,371.056445 L408.954151,371.024931 L409.100509,370.989781 C409.203536,370.964328 409.306562,370.938874 409.412013,370.908572 C409.624126,370.841908 409.845936,370.766759 410.077443,370.674641 C410.306526,370.581311 410.547729,370.473437 410.792568,370.343744 C411.279823,370.086784 411.68102,369.846793 412.042219,369.638316 C412.399782,369.433475 412.72583,369.256512 413.059151,369.121971 L413.185056,369.072579 L413.313687,369.028641 C413.397321,368.99834 413.485802,368.96925 413.574284,368.947432 C413.666402,368.921979 413.757307,368.898949 413.850637,368.879556 L413.993965,368.852739 L414.142748,368.828649 C414.545157,368.764409 415.000898,368.740167 415.559665,368.724308 Z M401.798809,362.901729 L401.756122,362.861254 L401.914108,362.92826 L402.113044,362.997766 C402.230217,363.03599 402.373485,363.078316 402.540751,363.119769 C402.815893,363.188857 403.166183,363.251885 403.56738,363.287035 C403.768585,363.304004 403.984335,363.316125 404.212205,363.316125 L404.560071,363.306428 L404.929754,363.280975 C405.17823,363.255521 405.408524,363.228855 405.624274,363.200978 L406.03225,363.145851 L406.22304,363.122193 C406.412124,363.097951 406.590299,363.078558 406.75999,363.066437 C406.930893,363.055529 407.099371,363.045832 407.264214,363.049468 C407.429056,363.051892 407.59511,363.066437 407.764801,363.089467 C407.93328,363.113708 408.105395,363.15007 408.28963,363.200978 C408.471442,363.251885 408.664162,363.311277 408.870215,363.38885 L409.028088,363.449605 L409.191415,363.514906 C409.301714,363.55854 409.416861,363.611872 409.536857,363.662779 C409.941691,363.839742 410.21562,364.320936 410.404704,364.765768 C410.452581,364.876673 410.4947,364.986063 410.531063,365.087272 L410.622878,365.359686 C410.673785,365.514832 410.696814,365.617858 410.696814,365.617858 L410.047141,365.650584 L409.310513,365.674242 L407.935268,365.696643 C407.861237,365.698537 407.789649,365.700885 407.721166,365.703916 C407.452085,365.713612 407.185429,365.672402 406.930893,365.600889 C406.803624,365.564527 406.681205,365.524528 406.561209,365.477257 L406.381822,365.404533 L406.210919,365.325748 L405.59276,365.016668 C405.4061,364.922126 405.235198,364.84819 405.09096,364.817888 L405.546701,365.122119 C405.637203,365.182723 405.740095,365.247636 405.852863,365.3165 L406.029108,365.422714 C406.147083,365.49463 406.274755,365.568163 406.406378,365.642234 L406.757566,365.83482 L406.913923,365.914817 L407.223003,366.065114 C407.429056,366.163293 407.630261,366.250562 407.81692,366.324499 C408.007216,366.394799 408.179331,366.451767 408.325993,366.490553 C408.436898,366.519643 408.53553,366.537142 408.616266,366.541517 L408.690828,366.541461 C408.779309,366.536612 408.870215,366.540248 408.962333,366.547521 C409.050814,366.560854 409.14172,366.574187 409.231414,366.596004 C409.414437,366.63479 409.5914,366.696606 409.762303,366.758422 L409.926966,366.822707 L410.489729,367.063417 C410.527932,367.079353 410.563486,367.093763 410.596212,367.106288 C410.624494,367.116389 410.600589,367.188777 410.539227,367.293992 L410.498034,367.360824 C410.409552,367.502637 410.268951,367.684449 410.090776,367.852927 C409.916237,368.022618 409.70776,368.177764 409.476253,368.266245 C409.364742,368.30988 409.247171,368.337758 409.123539,368.341394 C409.036269,368.344121 408.944227,368.333894 408.854572,368.306111 L408.765976,368.272306 C408.642345,368.223823 408.504168,368.177764 408.350234,368.129281 L408.194954,368.082638 L407.323605,367.845655 L406.911045,367.725811 L406.774535,367.683237 C406.595147,367.626269 406.416972,367.566877 406.249706,367.502637 C406.082439,367.434761 405.921233,367.368097 405.780632,367.295372 C405.542257,367.173154 405.344284,367.041678 405.218279,366.897435 L405.151564,366.809329 C405.078082,366.700243 404.942102,366.53576 404.766706,366.333933 L403.743703,365.18474 L403.274058,364.649409 L402.898583,364.20947 L401.883538,362.99681 C401.848769,362.956677 401.820251,362.924624 401.798809,362.901729 L401.798809,362.901729 Z M415.993588,360.29563 L416.108565,360.677112 L416.142674,360.781673 C416.238428,361.078632 416.377817,361.474981 416.542659,361.884663 C416.666291,362.19556 416.80424,362.515321 416.941167,362.806617 L417.142031,363.219007 L417.596257,364.091399 C417.611408,364.121929 417.625422,364.151132 417.638301,364.17937 L417.673526,364.261545 C417.719585,364.365783 417.746251,364.457901 417.755948,364.563352 C417.760493,364.644258 417.75822,364.729255 417.746573,364.833171 L417.698932,365.14732 C417.679441,365.259229 417.655588,365.387806 417.62868,365.539073 L417.437755,366.519329 L417.214149,367.595967 L417.033657,367.269734 L416.785074,366.791148 C416.724471,366.677213 416.665079,366.556005 416.604475,366.43601 C416.579021,366.372982 416.545083,366.312378 416.515993,366.250562 L416.265094,365.701795 C416.212974,365.585435 416.163885,365.474833 416.118432,365.374231 L416.057222,365.217115 L416.003285,365.051819 C415.983892,364.996063 415.969347,364.936671 415.954802,364.879704 L415.919652,364.699104 C415.897834,364.576685 415.878441,364.453053 415.863896,364.329421 C415.851776,364.205789 415.842079,364.082157 415.836019,363.96095 L415.825783,363.723428 L415.82011,362.886122 C415.819504,362.848642 415.818443,362.814022 415.816625,362.782811 L415.784998,362.983175 L415.749153,363.283174 L415.723295,363.565813 C415.70875,363.718534 415.697842,363.889437 415.692993,364.0664 C415.686933,364.240939 415.684509,364.423963 415.688145,364.611835 C415.695418,364.79607 415.70875,364.977882 415.72572,365.158481 C415.763294,365.507559 415.83117,365.83482 415.929348,366.059054 L416.025462,366.282794 L416.244034,366.760846 L416.452965,367.191134 L416.686896,367.635966 C416.652958,367.630309 416.609862,367.61765 416.557967,367.598346 L416.473571,367.564453 C416.427512,367.547484 416.377817,367.524455 416.322061,367.500213 L416.153583,367.415368 L415.969347,367.315977 L415.775415,367.20083 L415.576634,367.077198 L415.280281,366.878115 L415.092258,366.741908 L414.832419,366.547521 L414.684546,366.422677 C414.623942,366.369346 414.568725,366.321401 414.523564,366.278844 L414.463948,366.219048 C414.409404,366.162081 414.374254,366.118446 414.370618,366.097841 C414.356073,366.051782 414.351225,365.926938 414.351225,365.756035 L414.364861,365.311676 L414.385612,364.923338 L414.454422,364.092441 C414.457736,364.056628 414.460918,364.023978 414.463948,363.994888 L414.482129,363.539147 C414.495462,363.354911 414.514855,363.146434 414.554854,362.939169 C414.576671,362.833719 414.603337,362.72948 414.633639,362.626453 C414.667577,362.523427 414.708787,362.421613 414.756058,362.323434 C414.824238,362.178894 414.912189,362.045263 415.019912,361.929187 L415.134226,361.81921 C415.295432,361.679822 415.427549,361.513767 415.537848,361.342864 C415.645723,361.171962 415.732992,360.999847 415.798444,360.843489 L415.877819,360.648722 C415.95766,360.43861 415.993588,360.29563 415.993588,360.29563 Z M412.745223,356.155177 L412.77704,356.55395 L412.826736,357.055295 L412.878552,357.511491 L412.927035,357.837539 C412.971579,358.168436 413.028395,358.510242 413.086745,358.826139 L413.172177,359.275971 L413.250659,359.658078 L413.32702,360.010792 L413.369443,360.23336 C413.381564,360.29957 413.39126,360.358658 413.397321,360.413202 C413.411866,360.522289 413.409441,360.616831 413.390048,360.712585 C413.365807,360.836822 413.311737,360.965322 413.220144,361.145429 L412.846886,361.841179 L412.17384,363.012989 C412.108165,363.124138 412.068885,363.188857 412.068885,363.188857 L411.948719,362.510208 L411.882494,362.091569 L411.807076,361.578007 L411.713746,360.859246 C411.699201,360.756219 411.690717,360.648345 411.690717,360.533197 C411.690717,360.422898 411.695565,360.307751 411.70405,360.19018 L411.721019,360.016853 L411.733443,359.929129 L411.747685,359.842314 C411.764654,359.724742 411.786471,359.609595 411.807076,359.499296 L411.905748,359.073274 L412.044246,358.51401 L412.064036,358.416912 C412.064036,358.416912 412.023073,358.509524 411.963282,358.664218 L411.8998,358.825836 L411.799804,359.106583 C411.753745,359.239912 411.70405,359.388997 411.653143,359.546567 C411.559813,359.860495 411.471331,360.208361 411.416788,360.535621 L411.380425,360.779249 L411.361032,361.007119 C411.351335,361.156205 411.351335,361.291957 411.363456,361.408317 L411.417551,361.852341 C411.435687,361.992807 411.453778,362.124923 411.471376,362.246265 L411.598599,363.043408 L411.564661,363.020227 L411.527087,362.988864 C411.495573,362.967047 411.466483,362.941593 411.431333,362.908867 C411.363456,362.845839 411.282247,362.76463 411.194978,362.672512 L410.92226,362.361009 L410.783023,362.187379 L410.644695,362.008294 C410.278648,361.528312 409.975629,361.033785 409.980477,360.947727 C409.980477,360.91282 409.995992,360.833695 410.025159,360.72649 L410.049565,360.641072 C410.0932,360.487138 410.150168,360.298054 410.21562,360.104122 L410.500458,359.282334 L410.568334,359.096887 L410.689542,358.688417 C410.740449,358.525999 410.804689,358.344187 410.889534,358.163588 C410.970743,357.986625 411.076194,357.809661 411.201038,357.663 C411.294671,357.550277 411.402621,357.452553 411.525401,357.378011 L411.653143,357.311498 C412.005857,357.151504 412.274938,356.859393 412.459173,356.610918 L412.582104,356.434883 C412.688635,356.271764 412.745223,356.155177 412.745223,356.155177 Z M398.519991,353.718903 L398.783974,353.927739 C398.845043,353.972363 398.91608,354.021758 398.997163,354.074294 L399.126332,354.155251 C399.239055,354.227975 399.368747,354.303124 399.51056,354.379485 C399.651161,354.457058 399.809943,354.530995 399.982058,354.60978 C400.323864,354.761289 400.726273,354.90189 401.174741,355.015825 L401.686238,355.134163 C401.927247,355.186873 402.147311,355.231817 402.351668,355.277634 C402.694685,355.353994 402.991644,355.427931 403.28133,355.53823 C403.568592,355.648529 403.842522,355.792766 404.134632,355.992759 L404.244476,356.070786 L404.35523,356.155177 C404.431591,356.214569 404.509164,356.277597 404.590373,356.343049 C404.746731,356.476377 404.913997,356.626675 405.093385,356.797578 C405.170957,356.871514 405.235198,356.95636 405.287317,357.053326 C405.340648,357.146656 405.381859,357.252106 405.415797,357.363617 C405.482461,357.583003 405.513975,357.822994 405.533368,358.046016 L405.541398,358.211919 L405.547689,358.462073 L405.539429,358.764374 L405.530944,358.881137 L404.386289,358.470698 L403.319056,358.075561 C403.183152,358.025714 403.05346,357.978746 402.933464,357.938142 C402.694685,357.858145 402.477723,357.735725 402.276519,357.59876 C402.077738,357.455735 401.898351,357.294529 401.731084,357.135747 L401.42178,356.824378 C401.373522,356.774817 401.327059,356.726873 401.282616,356.681218 C401.143227,356.545466 401.018383,356.429106 400.900812,356.360018 L401.209891,356.756367 L401.422948,357.013866 L401.544425,357.156352 C401.670481,357.305438 401.808657,357.463008 401.95047,357.619365 C402.097131,357.778147 402.246217,357.933293 402.395302,358.081167 L402.690331,358.361919 C402.738455,358.406138 402.785995,358.44883 402.832862,358.489636 C402.972251,358.610844 403.106791,358.717507 403.220726,358.798716 C403.309814,358.861441 403.388675,358.907803 403.456797,358.939336 L403.521321,358.965982 C403.832825,359.069009 404.124935,359.290819 404.374623,359.516265 L404.496684,359.627776 L404.98551,360.104122 C405.033993,360.146545 404.722489,360.391384 404.312807,360.547742 C404.109178,360.624103 403.877672,360.678647 403.655862,360.66895 C403.543139,360.667738 403.43284,360.649557 403.329813,360.611982 C403.260321,360.584509 403.194599,360.550032 403.133367,360.50496 L403.044975,360.428959 C402.902435,360.296115 402.721884,360.152411 402.516355,360.001571 L402.357728,359.887161 C402.180765,359.757872 401.990873,359.623736 401.802776,359.484392 L401.420338,359.194307 L401.221103,359.033556 L401.126258,358.95265 C400.99899,358.844775 400.882631,358.7369 400.780816,358.632661 C400.611126,358.45388 400.480154,358.283516 400.414556,358.125778 L400.383255,358.032684 C400.359014,357.939354 400.305682,357.808449 400.241442,357.646031 L399.994179,357.077567 L399.361475,355.661862 L398.870668,354.523155 C398.842605,354.457024 398.815838,354.393626 398.790587,354.333426 L398.599079,353.893442 C398.570716,353.827263 398.54759,353.777228 398.530747,353.745695 L398.505749,353.707995 C398.49484,353.69648 398.499385,353.701025 398.519991,353.718903 Z M409.980477,351.429291 L409.946084,351.710493 L409.901692,352.145628 L409.879875,352.417133 C409.860481,352.606217 409.850785,352.811058 409.833816,353.025596 L409.802453,353.666784 C409.797984,353.773144 409.794007,353.878291 409.790692,353.980788 L409.778689,354.635413 L409.768364,355.35157 C409.766545,355.415507 409.763515,355.472172 409.757455,355.523685 C409.745334,355.627924 409.724729,355.712769 409.687154,355.797614 C409.632611,355.923064 409.535115,356.046469 409.369098,356.230212 L409.179294,356.436379 C408.953363,356.684612 408.718124,356.930518 408.514533,357.135621 L408.09085,357.559974 L407.980551,357.663 L407.985399,357.602396 C407.990247,357.561186 407.990247,357.504218 407.995096,357.431494 L408.03873,356.864242 C408.071456,356.418198 408.129636,355.873975 408.164786,355.484899 C408.18418,355.288542 408.230239,355.080065 408.292054,354.875224 C408.325993,354.770986 408.362355,354.669171 408.401141,354.568569 L408.459472,354.421302 L408.522349,354.274034 C408.578913,354.145554 408.636015,354.023 408.690424,353.909244 L408.9208,353.43024 C408.934303,353.40043 408.946576,353.372552 408.957484,353.346796 L408.776885,353.615877 C408.721129,353.697086 408.659314,353.800112 408.590225,353.910411 L408.449624,354.149684 C408.425383,354.191748 408.400737,354.234844 408.375688,354.278883 L408.265389,354.483724 L408.162362,354.689777 C408.093274,354.83159 408.02661,354.975827 407.96843,355.11764 C407.91025,355.259453 407.862979,355.396417 407.821769,355.528533 C407.784194,355.659438 407.758741,355.780645 407.744196,355.887308 L407.678744,356.48971 C407.65935,356.672734 407.648442,356.835152 407.636321,356.970905 L407.61814,357.153928 L407.599959,357.40604 C407.475115,357.282408 407.20361,356.764852 406.983012,356.247295 C406.898469,356.053666 406.823472,355.860036 406.763134,355.689929 L406.70787,355.528533 C406.641206,355.326117 406.601208,355.178243 406.612116,355.140669 C406.6272,355.074948 406.762953,354.823434 406.926585,354.545318 L407.499356,353.612241 L407.681168,353.271647 C407.759953,353.135895 407.852071,352.984385 407.957521,352.842572 C408.169635,352.552886 408.450836,352.299562 408.796278,352.236534 C409.139296,352.17593 409.428982,351.968665 409.642308,351.782005 L409.784121,351.648658 C409.908889,351.523378 409.980477,351.429291 409.980477,351.429291 Z M398.574837,344.06229 L398.651153,344.204956 L398.699681,344.29016 C398.753012,344.381066 398.818465,344.484092 398.891189,344.598028 L399.014821,344.773779 C399.057244,344.833171 399.105727,344.896199 399.155422,344.960439 C399.258448,345.088919 399.368747,345.223459 399.496015,345.358 C399.623283,345.494964 399.762672,345.633141 399.915394,345.77253 C399.98933,345.844042 400.071752,345.904646 400.155385,345.968886 L400.413557,346.154334 L400.548401,346.2463 L401.361401,346.772493 C401.640179,346.948244 401.878958,347.10945 402.099556,347.299746 C402.320154,347.486406 402.518934,347.697307 402.720139,347.965176 L402.794681,348.069718 L402.869224,348.179714 C402.918919,348.252438 402.972251,348.331223 403.021946,348.414857 L403.233386,348.771925 C403.269613,348.835716 403.305976,348.901707 403.341934,348.969988 C403.386781,349.057257 403.423143,349.150587 403.442536,349.252401 C403.46193,349.35058 403.46799,349.45603 403.470414,349.561481 C403.470414,349.772382 403.43284,349.99298 403.391629,350.192973 C403.367388,350.294787 403.344358,350.389329 403.320117,350.475387 L403.24618,350.705681 L403.168607,350.91537 L402.961342,350.743256 L402.724987,350.556596 L401.463215,349.503604 C401.358068,349.416335 401.257162,349.334217 401.163833,349.262098 C400.980809,349.113013 400.819603,348.939686 400.685062,348.753026 C400.550522,348.565154 400.434163,348.367586 400.334772,348.174865 L400.190535,347.894876 L400.064479,347.635491 C399.980846,347.473073 399.900849,347.33126 399.81964,347.230658 L400.022208,347.780486 L400.165082,348.133655 L400.396588,348.665756 C400.562643,349.030591 400.751727,349.400275 400.932326,349.702082 C400.989698,349.803088 401.048147,349.895475 401.104441,349.977807 L401.186862,350.093583 C401.247769,350.176307 401.301858,350.242668 401.351174,350.291132 L401.398975,350.333574 C401.521395,350.429328 401.632906,350.549323 401.731084,350.676591 C401.829263,350.808708 401.916532,350.946884 401.994105,351.083849 L402.139823,351.353918 C402.162584,351.397103 402.184401,351.438987 402.205006,351.478986 L402.28864,351.651101 L402.362576,351.79049 C402.395302,351.843821 402.058345,351.951696 401.660784,351.946847 C401.263223,351.943211 400.802634,351.824428 400.59052,351.426867 C400.380831,351.03173 399.951756,350.488719 399.584497,349.939649 C399.216026,349.396639 398.916643,348.845144 398.925127,348.499702 C398.9324,348.326375 398.893613,347.979721 398.843918,347.549434 L398.760285,346.853702 L398.649077,345.870708 L398.617108,345.521327 L398.554232,344.630754 L398.516792,344.021124 C398.51365,343.980602 398.510687,343.950455 398.507744,343.931986 L398.50328,343.911184 C398.51127,343.928153 398.535243,343.980677 398.574837,344.06229 Z M408.909001,345.635565 L408.813247,345.869496 L408.737947,346.096609 L408.635072,346.433111 C408.580529,346.591894 408.532046,346.770069 408.478714,346.953092 C408.401444,347.2249 408.326902,347.51239 408.262756,347.780789 L408.095698,348.493642 C408.066608,348.622122 408.046003,348.728784 408.029034,348.799085 L407.96834,349.041321 C407.959003,349.075977 407.949845,349.108164 407.940552,349.138466 C407.91025,349.229372 407.877524,349.299672 407.827829,349.367549 C407.728439,349.498453 407.570869,349.609964 407.261789,349.825714 L406.89006,350.073443 C406.768115,350.153226 406.649894,350.229209 406.540672,350.298365 L405.97214,350.647501 L406.13274,350.095401 L406.549088,348.760298 C406.601208,348.590608 406.683629,348.417281 406.774535,348.250014 C406.872713,348.082748 406.980588,347.919117 407.092099,347.767608 C407.202398,347.61731 407.30906,347.477921 407.407239,347.356714 L407.543446,347.187175 C407.583596,347.135207 407.61814,347.088239 407.646018,347.047634 L407.438753,347.245203 C407.30906,347.367622 407.13937,347.540949 406.961194,347.743366 C406.872713,347.841544 406.784231,347.953055 406.69575,348.058506 C406.609692,348.171229 406.523635,348.283952 406.44485,348.396675 L406.302094,348.620057 C406.280277,348.656598 406.259806,348.692826 406.241221,348.728784 C406.183041,348.835447 406.13577,348.936049 406.103044,349.028167 L405.902586,349.638705 L405.71518,350.240244 L405.687302,350.340846 C405.671949,350.316605 405.656057,350.283744 405.639627,350.241905 L405.5867,350.092326 L405.507157,349.819805 L405.443675,349.557845 L405.40201,349.373003 L405.36489,349.184525 C405.266711,348.682725 405.217016,348.194259 405.247318,348.133655 L405.300498,348.056233 C405.327012,348.021538 405.361859,347.978509 405.403676,347.928814 L405.827813,347.471233 L406.311521,346.972486 L406.540604,346.713101 C406.633934,346.607651 406.744233,346.497352 406.863016,346.393113 C406.926044,346.342206 406.989072,346.293723 407.054524,346.247664 C407.122401,346.205241 407.192701,346.165243 407.261789,346.132517 C407.404814,346.070701 407.558748,346.034338 407.713894,346.042823 C407.870252,346.053732 408.024186,346.02949 408.164786,345.987067 L408.268116,345.953432 L408.458109,345.874344 L408.544166,345.831922 C408.7684,345.732531 408.909001,345.635565 408.909001,345.635565 Z M408.129636,340.331518 C408.231451,340.336064 408.334629,340.35629 408.430989,340.394243 L408.524773,340.438181 C408.774461,340.57757 409.053238,340.604236 409.268988,340.604236 C409.378075,340.604236 409.470193,340.593327 409.534433,340.587267 L409.639883,340.570297 L409.395044,340.821197 L409.094662,341.155003 C409.020464,341.239073 408.942697,341.328573 408.864155,341.421175 C408.732442,341.575513 408.601807,341.739547 408.481587,341.897117 L408.310236,342.126604 C408.270237,342.179935 408.230239,342.234479 408.1963,342.285386 L408.142818,342.356747 L407.83775,342.787859 C407.820422,342.810754 407.803588,342.831628 407.786619,342.850213 C407.736923,342.908393 407.690864,342.949604 407.630261,342.984754 C407.570869,343.016268 407.501781,343.041721 407.404814,343.069599 L407.031495,343.154445 L406.558785,343.253835 L405.724876,343.417465 L406.007896,343.021874 L406.082439,342.922938 C406.183041,342.785973 406.299401,342.6381 406.4097,342.497499 L406.729688,342.103574 C406.913923,341.874492 407.202398,341.68056 407.472691,341.526626 L407.738091,341.387462 L408.069796,341.224864 C408.099873,341.209466 408.127212,341.194921 408.151454,341.181184 L407.917523,341.253909 C407.774498,341.298755 407.58299,341.370268 407.374513,341.45875 C407.169672,341.550867 406.945437,341.661166 406.750293,341.78601 L406.609692,341.87934 L406.482424,341.975094 C406.402427,342.038122 406.334551,342.103574 406.28122,342.166602 L406.079656,342.408389 L405.925475,342.601889 L405.763663,342.811427 L405.614577,343.01142 L405.56367,343.084144 C405.544277,343.015056 405.544277,342.867182 405.551549,342.678099 C405.558014,342.555275 405.570404,342.413596 405.588361,342.268506 L405.619426,342.050243 C405.633971,341.93752 405.654576,341.832069 405.672757,341.730255 L405.703059,341.584806 L405.734573,341.455113 C405.755178,341.372692 405.775784,341.303604 405.791541,341.253909 C405.80851,341.201789 405.825479,341.167851 405.8376,341.160579 C405.877079,341.125255 406.058148,341.03383 406.277,340.939733 L406.689083,340.772714 L407.082402,340.623629 L407.419699,340.479721 C407.511817,340.443029 407.613049,340.407152 407.718742,340.380001 C407.786619,340.36182 407.854495,340.348487 407.923583,340.341215 C407.990247,340.331518 408.060548,340.329094 408.129636,340.331518 Z M402.567321,334.221242 L402.571607,334.201948 L402.569841,334.348709 C402.566932,334.446645 402.568678,334.588021 402.581904,334.767874 L402.594083,334.9099 C402.606204,335.033532 402.619536,335.168073 402.641354,335.314734 C402.664383,335.463819 402.694685,335.623813 402.73226,335.793504 C402.809832,336.131673 402.918919,336.503781 403.075277,336.896494 C403.155274,337.09285 403.234059,337.271025 403.307996,337.438292 L403.415871,337.673889 L403.6095,338.108267 L403.774797,338.508555 L403.842522,338.707336 C403.864339,338.774 403.886156,338.839452 403.90555,338.906116 L403.955245,339.115806 C403.989183,339.257619 404.013424,339.40428 404.03403,339.563062 L404.047969,339.686542 L404.069786,339.943048 L404.077664,340.080619 C404.087361,340.267278 404.097058,340.470907 404.099482,340.690293 C404.106754,341.066037 403.875248,341.434508 403.648589,341.730255 C403.592228,341.803585 403.535866,341.872068 403.482838,341.933278 L403.262925,342.172932 L403.195273,342.239327 L403.089822,341.999336 L402.896821,341.535527 L402.766198,341.20785 L402.543176,340.615144 C402.442573,340.343639 402.349243,340.083043 402.269246,339.864869 C402.10198,339.423673 402.085011,338.947327 402.099556,338.518252 L402.136372,337.923274 C402.146827,337.743129 402.151069,337.584347 402.135918,337.456473 L402.109252,337.581317 L402.033789,338.059908 L401.972591,338.531282 L401.932289,338.965508 C401.908654,339.26277 401.8932,339.568895 401.894109,339.851157 L401.900775,340.124253 C401.901987,340.212735 401.906835,340.298792 401.911684,340.376365 L401.922592,340.488937 L401.937137,340.593327 C401.950773,340.693323 401.966454,340.77832 401.986738,340.845249 L402.00865,340.906043 C402.065617,341.05028 402.106828,341.204214 402.133494,341.36542 C402.158947,341.524202 402.173492,341.689044 402.183189,341.845402 L402.203794,342.28781 L402.210528,342.533188 C402.21174,342.569416 402.213087,342.60295 402.214703,342.633252 C402.219551,342.695068 401.906835,342.6381 401.589271,342.452652 C401.428065,342.359322 401.265647,342.233266 401.140803,342.07206 C401.018383,341.910854 400.932326,341.712074 400.927478,341.479355 C400.925862,341.403398 400.921013,341.320977 400.912933,341.232091 L400.898388,341.093915 C400.887479,340.95695 400.869298,340.80544 400.847481,340.645446 C400.81233,340.331518 400.77112,339.988501 400.746878,339.652756 C400.694759,338.983689 400.711728,338.341289 400.87657,338.051603 C400.960204,337.906153 401.091108,337.587377 401.24989,337.198301 C401.368977,336.908311 401.506471,336.575369 401.64908,336.243961 L402.006845,335.436229 C402.286565,334.822988 402.529979,334.330552 402.567321,334.221242 Z M410.819234,334.861417 C410.941654,334.863841 411.068922,334.878386 411.186493,334.917173 C411.27649,334.943535 411.359669,334.985579 411.433984,335.043304 L411.505269,335.106257 C411.683444,335.285644 411.917375,335.374126 412.111307,335.418972 L412.26287,335.446946 C412.375862,335.463201 412.450689,335.463819 412.450689,335.463819 L412.154942,335.649267 L411.491936,336.092887 C411.242249,336.261366 410.987713,336.445601 410.771963,336.599535 L410.3441,336.917593 L410.291981,336.953461 C410.112593,337.080729 410.016839,337.148606 409.89442,337.171635 C409.792403,337.191836 409.671027,337.177527 409.467864,337.144139 L409.335652,337.12194 C409.053238,337.072245 408.763552,337.012853 408.539318,336.965582 L408.174483,336.883161 L408.635072,336.595899 L409.445951,336.107432 C409.502919,336.07107 409.563523,336.040768 409.630187,336.011678 C409.694427,335.982588 409.764727,335.957134 409.833816,335.934105 C409.973205,335.885622 410.119866,335.850472 410.260467,335.82017 L410.530984,335.768544 C410.573856,335.761317 410.615201,335.754718 410.654392,335.748657 L410.867088,335.709332 C410.89775,335.703137 410.925897,335.696942 410.95135,335.690478 L410.728328,335.696538 C410.625605,335.701083 410.492201,335.70631 410.347035,335.718867 L410.198651,335.734112 C409.785333,335.775323 409.308987,335.871077 409.050814,336.015314 L408.410838,336.391058 L408.158726,336.547416 C408.172867,336.450315 408.277928,336.201435 408.415171,335.934225 L408.610528,335.574876 L408.75128,335.34049 L408.818096,335.239585 C408.899305,335.115953 408.967181,335.033532 408.99021,335.021411 C409.037481,335.002018 409.277473,334.976564 409.532009,334.955959 L410.201075,334.915961 L410.465308,334.88081 C410.573182,334.867478 410.69439,334.858993 410.819234,334.861417 Z M408.607194,328.093182 C408.516289,328.507712 408.421747,329.124659 408.436292,329.887055 L408.455685,330.416733 L408.467806,330.653391 L408.47629,330.877322 C408.489623,331.159736 408.492047,331.416696 408.471442,331.666384 C408.431443,332.169395 408.28963,332.65665 407.957521,333.375411 C407.887221,333.529345 407.769649,333.650553 407.632685,333.749943 C407.499356,333.850545 407.342999,333.926906 407.197549,333.988722 C407.048464,334.049326 406.909075,334.091749 406.806049,334.119626 L406.638782,334.159625 L406.712719,333.32814 C406.752717,332.856643 406.818169,332.285755 406.849683,331.866376 C406.874935,331.519924 406.980992,331.197041 407.103322,330.911754 L407.23573,330.624452 L407.398754,330.296737 C407.46057,330.159772 407.510265,330.037353 407.539355,329.929478 L407.239972,330.414309 L407.019374,330.798537 L406.784231,331.237309 C406.749081,331.310033 406.710295,331.385182 406.671508,331.457906 L406.567876,331.678353 L406.475152,331.890618 C406.436365,331.980311 406.40135,332.06785 406.372619,332.148925 L406.334551,332.265149 C406.307885,332.340298 406.289839,332.405212 406.279334,332.461326 L406.269099,332.539079 C406.256978,332.677255 406.227888,332.816644 406.185465,332.951185 C406.144255,333.088149 406.092136,333.220266 406.03638,333.343897 C405.923657,333.593585 405.801237,333.810547 405.736997,333.95842 C405.71518,334.004479 405.504278,333.797214 405.343072,333.489347 C405.261863,333.332989 405.193987,333.153601 405.166109,332.968154 C405.153988,332.874824 405.14914,332.782706 405.161261,332.688164 C405.173382,332.596046 405.200047,332.505141 405.240046,332.417871 C405.282468,332.330601 405.324588,332.229393 405.366859,332.118185 L405.773359,330.964591 C405.964868,330.437338 406.180617,329.958568 406.395155,329.814331 C406.487619,329.755112 406.647761,329.613077 406.839708,329.428678 L407.721166,328.567104 L408.647221,327.649983 C408.683569,327.612235 408.712652,327.580919 408.733254,327.557222 L408.7684,327.510173 C408.786582,327.467751 408.700524,327.67744 408.607194,328.093182 Z M414.253032,330.000005 L414.945327,330.046652 L415.029988,330.050686 C415.149983,330.056746 415.363309,330.039777 415.583907,330.071291 C415.804505,330.097957 416.027527,330.169469 416.160855,330.348856 C416.300244,330.522183 416.501449,330.617937 416.667503,330.673693 C416.835982,330.728236 416.96931,330.739145 416.96931,330.739145 L416.020254,331.215491 C415.522091,331.470027 414.986353,331.757289 414.804541,331.848195 C414.437282,332.032431 414.411829,332.036067 413.925786,331.863952 L413.570799,331.728957 L412.956125,331.470027 L413.814275,331.144736 C413.95124,331.091859 414.084568,331.03974 414.197291,330.994893 C414.423949,330.903987 414.703939,330.867625 414.960899,330.84702 C415.216647,330.828839 415.454214,330.828839 415.592391,330.810658 L415.461293,330.795298 L415.179982,330.776113 L414.917265,330.767023 C414.731817,330.75975 414.533036,330.75975 414.346377,330.776719 C414.162141,330.78884 413.988814,330.816718 413.867606,330.860353 L413.002184,331.179129 C413.037334,331.076102 413.250659,330.783992 413.468833,330.516123 C413.542366,330.426429 413.615898,330.340507 413.682967,330.264819 L413.777913,330.159772 C413.867606,330.065231 413.93427,330.002203 413.958512,329.997354 C413.990545,329.988697 414.106682,329.991789 414.253032,330.000005 L414.253032,330.000005 Z M415.594815,322.841255 L415.526455,322.961864 C415.483918,323.040813 415.425259,323.156395 415.35846,323.306692 C415.206951,323.644861 415.013019,324.158782 414.872418,324.826636 L414.696667,325.697361 C414.644244,325.950231 414.591216,326.172647 414.517279,326.385366 C414.370618,326.809593 414.137899,327.196245 413.679734,327.719863 C413.58398,327.832586 413.4555,327.900462 413.314899,327.946521 C413.175511,327.988943 413.025213,328.007125 412.891885,328.011973 C412.611895,328.019245 412.387661,327.975611 412.387661,327.975611 L412.864957,326.800032 C412.966161,326.5473 413.064484,326.294218 413.137936,326.084771 C413.260356,325.736905 413.465197,325.455704 413.659129,325.220561 L413.883431,324.954835 C413.987166,324.832018 414.074144,324.72264 414.125779,324.619371 L413.895484,324.841181 C413.790033,324.943904 413.657993,325.075263 413.517771,325.219917 L413.375503,325.368434 C413.03297,325.733875 412.671784,326.151351 412.540236,326.398192 L412.505232,326.473848 C412.337966,326.930801 411.899194,327.294424 411.711322,327.495628 C411.68102,327.528354 411.569509,327.279879 411.524662,326.964739 C411.497997,326.805957 411.491936,326.630206 411.519814,326.465363 C411.54648,326.300521 411.605872,326.144163 411.713746,326.027804 C411.807249,325.927028 411.910771,325.79041 412.020303,325.636745 L412.480991,324.975721 C412.724483,324.630953 412.963188,324.324492 413.157945,324.220636 L413.228842,324.191508 C413.375173,324.147432 413.722167,323.961033 414.107103,323.743278 L414.547581,323.490928 C415.082107,323.174576 415.57421,322.877617 415.594815,322.841255 Z M440.088457,324.801182 C440.639952,324.98057 440.789037,326.252038 440.710252,326.226584 C440.496927,326.159785 440.062375,326.093944 439.737745,325.839225 L439.621808,325.734481 C439.408023,325.514477 438.601393,325.219682 438.050338,325.036536 L437.784854,324.949441 L438.334512,325.285203 C438.432029,325.337228 438.531376,325.396937 438.628738,325.467873 C442.201345,327.704224 445.605768,330.373254 448.255428,333.782669 C450.524436,336.695289 452.107408,340.138798 452.719506,343.87563 C453.187368,346.737343 453.016465,349.668144 452.37164,352.481373 C451.648031,355.632772 450.314746,358.629025 448.500268,361.23499 C446.431253,364.208213 443.740444,366.638427 440.682375,368.389877 L438.419883,369.676674 C435.734093,371.18977 432.273521,373.069268 429.630661,374.138756 C429.388246,374.236934 429.614904,371.25765 429.875501,371.291588 C433.035384,371.690361 439.72241,368.816528 443.002289,366.354801 C445.725825,364.314876 448.006953,361.636187 449.657801,358.559937 C451.111081,355.855794 452.077106,352.836512 452.434668,349.745717 C452.794655,346.654921 452.472243,343.547157 451.498945,340.611508 C450.243234,336.828617 447.896654,333.604494 445.112514,330.943986 C443.611789,329.507071 441.984085,328.226833 440.287637,327.060675 L440.357538,327.125945 L440.291127,327.194433 C440.107306,327.375993 439.577415,327.845009 439.153946,327.6835 C437.91884,327.213215 437.715211,326.685961 436.957663,325.506611 C436.271507,324.439741 435.656039,323.95605 435.586638,323.903557 C435.648621,323.950305 437.722484,324.033938 438.106712,323.91273 C438.492152,323.787886 439.540598,324.620583 440.088457,324.801182 Z M441.444771,368.724308 L441.968567,368.744147 C442.215696,368.756616 442.442018,368.773824 442.653593,368.799716 L442.860476,368.828649 C442.961078,368.844406 443.058044,368.860163 443.151374,368.879556 L443.290763,368.911222 L443.559238,368.984855 L443.688324,369.028641 C443.774382,369.056519 443.859227,369.086821 443.941648,369.121971 C444.274969,369.256512 444.601018,369.433475 444.961005,369.638316 L445.66239,370.044468 C445.832391,370.140891 446.013329,370.24096 446.208231,370.343744 C446.451859,370.473437 446.693062,370.581311 446.924568,370.674641 C447.154863,370.766759 447.377885,370.841908 447.591211,370.908572 L447.901502,370.989781 C447.99968,371.014023 448.097859,371.037052 448.191188,371.056445 C448.377848,371.091596 448.551175,371.119473 448.706321,371.137655 C449.020249,371.175229 449.262664,371.176441 449.421446,371.175229 L449.612954,371.167956 C449.599864,371.167956 449.566265,371.183665 449.513729,371.212726 L448.540266,371.786115 L447.960742,372.11777 L447.538788,372.350943 L447.319705,372.468515 C446.740333,372.782442 446.124598,373.087886 445.605829,373.339998 L445.417654,373.430449 L444.918582,373.673319 L444.656773,373.810283 L444.522637,373.885701 C444.502974,373.897283 444.484659,373.908461 444.467689,373.91937 C444.369511,373.984822 444.247092,374.034517 444.102854,374.07088 C443.957405,374.102394 443.793775,374.122999 443.6156,374.132696 C443.529542,374.138756 443.436212,374.138756 443.340458,374.138756 L442.902899,374.116333 L442.598516,374.083152 L442.132018,374.01876 L441.822939,373.965429 L440.682375,373.753316 C440.565207,373.733922 440.456659,373.7183 440.354934,373.707167 L440.207241,373.693924 C440.067852,373.687864 439.93816,373.643017 439.823012,373.579989 C439.707865,373.515749 439.607263,373.430903 439.516357,373.330301 C439.335758,373.129096 439.204853,372.8685 439.113948,372.613964 C439.018194,372.357004 438.962438,372.10974 438.938196,371.92308 C438.915167,371.740057 438.923652,371.620061 438.960014,371.622485 L439.384241,371.656423 L439.736102,371.678779 C439.798367,371.683762 439.862203,371.689553 439.927251,371.696422 C440.118759,371.715815 440.31754,371.744905 440.513896,371.7946 C440.643184,371.822882 440.770317,371.863015 440.892064,371.915359 L441.070239,372.003077 C441.096905,372.017622 441.130573,372.033783 441.16945,372.048328 L441.231445,372.068529 C441.293261,372.090347 441.367198,372.107316 441.448407,372.123073 L441.576735,372.147769 L441.790515,372.176253 L442.026567,372.197009 C442.1704,372.206706 442.325008,372.214248 442.485361,372.216044 L442.729572,372.213979 C442.851991,372.211554 442.975623,372.20913 443.104103,372.20307 L443.29243,372.190949 L443.479847,372.175192 C443.982859,372.136406 444.465265,372.061257 444.820404,371.999441 L445.407049,371.879445 C445.284326,371.85581 445.143195,371.85331 444.983655,371.859673 L444.81798,371.868537 C444.705256,371.875809 444.581625,371.883082 444.455569,371.895202 C444.392541,371.897627 444.328301,371.902475 444.264061,371.907323 L444.162549,371.912323 L444.062856,371.914596 C443.927103,371.919444 443.786502,371.919444 443.649538,371.914596 C443.508937,371.908535 443.363488,371.895202 443.222887,371.875809 C442.942897,371.832174 442.656847,371.750965 442.393827,371.615213 L441.482345,371.163108 C441.318715,371.084323 441.153872,371.00069 440.99509,370.919481 L440.535713,370.67949 C440.239967,370.52192 439.985431,370.382531 439.803619,370.278292 L439.511509,370.10739 L439.640713,369.95111 L439.821351,369.746505 C439.844695,369.720872 439.869071,369.694475 439.894525,369.667406 L440.149061,369.410446 C440.242391,369.324388 440.340569,369.238331 440.441171,369.157122 C440.544198,369.072276 440.649648,368.99834 440.759947,368.935312 C440.871458,368.868647 440.981757,368.814104 441.095693,368.778954 C441.21084,368.742591 441.327199,368.723198 441.444771,368.724308 Z M455.193983,362.88512 L455.242634,362.862224 L455.229103,362.87439 C455.194237,362.908059 455.112235,363.002332 454.99619,363.140374 L454.102081,364.20947 C453.980604,364.352854 453.85401,364.500728 453.724318,364.649409 L453.257174,365.18474 L452.23505,366.333933 C452.059512,366.53576 451.923626,366.700243 451.851659,366.809329 C451.737724,366.988717 451.508642,367.148711 451.223804,367.295372 C451.079567,367.368097 450.919573,367.434761 450.751094,367.502637 C450.585039,367.566877 450.405652,367.626269 450.226265,367.683237 L449.677194,367.845655 L448.807058,368.082638 C448.753727,368.098036 448.701877,368.113524 448.651777,368.129281 L448.365279,368.224451 L448.238459,368.272306 C448.120888,368.325637 447.997256,368.34503 447.876049,368.341394 C447.757265,368.337758 447.639694,368.30988 447.524546,368.266245 C447.296676,368.177764 447.088199,368.022618 446.910024,367.852927 C446.735485,367.684449 446.59246,367.502637 446.502766,367.360824 C446.41186,367.220223 446.37065,367.118409 446.404588,367.106288 L446.63596,367.011387 L446.771847,366.952354 C446.912448,366.891751 447.07123,366.820238 447.242133,366.758422 C447.410611,366.696606 447.586362,366.63479 447.768174,366.596004 C447.859079,366.574187 447.951197,366.560854 448.042103,366.547521 L448.17725,366.539945 L448.312396,366.541461 C448.40209,366.547521 448.525722,366.52934 448.674807,366.490553 C448.82268,366.451767 448.996007,366.394799 449.185091,366.324499 C449.308723,366.275208 449.440435,366.219991 449.574841,366.159567 L449.777797,366.065114 C449.880823,366.017843 449.98385,365.966936 450.086876,365.914817 L450.395956,365.753611 C450.594736,365.6421 450.793517,365.530589 450.974116,365.422714 L451.148431,365.3165 L451.45531,365.122119 C451.595911,365.032425 451.707422,364.954852 451.787419,364.902733 L451.908627,364.817888 C451.765602,364.84819 451.597123,364.922126 451.408039,365.016668 L450.95548,365.244842 L450.62019,365.404533 L450.531254,365.442259 L450.43959,365.477257 C450.322019,365.524528 450.197175,365.564527 450.073543,365.600889 C449.816583,365.672402 449.55235,365.713612 449.278421,365.703916 L448.837528,365.692098 L447.690646,365.674242 L446.952446,365.650584 L446.303985,365.617858 L446.380346,365.359686 L446.471403,365.087272 C446.507008,364.986063 446.548219,364.876673 446.596096,364.765768 C446.786392,364.320936 447.059109,363.839742 447.463943,363.662779 L447.809384,363.514906 C447.919683,363.470059 448.027558,363.427636 448.130585,363.38885 C448.336638,363.311277 448.53057,363.251885 448.713593,363.200978 C448.895405,363.15007 449.068732,363.113708 449.238423,363.089467 C449.406901,363.066437 449.571744,363.051892 449.736586,363.049468 C449.90264,363.045832 450.071119,363.055529 450.24081,363.066437 C450.355553,363.074518 450.472451,363.08583 450.5933,363.099657 L451.170113,363.172471 C451.238618,363.181719 451.308649,363.191281 451.380162,363.200978 L451.828181,363.255117 C451.907011,363.263871 451.98822,363.27249 452.072257,363.280975 L452.441941,363.306428 L452.792231,363.316125 C453.018889,363.316125 453.232215,363.304004 453.437055,363.287035 C453.834617,363.251885 454.184907,363.188857 454.463684,363.119769 C454.685737,363.064498 454.865124,363.007676 454.996261,362.961093 L455.193983,362.88512 Z M440.859338,360.781673 L441.009635,360.29563 L441.065417,360.486836 C441.096276,360.581441 441.140809,360.705043 441.201143,360.843489 C441.271444,360.999847 441.355077,361.171962 441.462952,361.342864 C441.545676,361.471042 441.640673,361.596491 441.751521,361.71001 L441.867785,361.81921 C442.028992,361.957387 442.152623,362.130714 442.247165,362.323434 C442.295648,362.421613 442.333223,362.523427 442.367161,362.626453 C442.401099,362.72948 442.426553,362.833719 442.445946,362.939169 C442.487156,363.146434 442.505338,363.354911 442.517458,363.539147 L442.540488,363.994888 L442.580486,364.489415 C442.591799,364.62436 442.604728,364.77331 442.614963,364.923338 L442.627757,365.147573 C442.637757,365.313021 442.645711,365.476424 442.649063,365.619885 L442.650787,365.756035 C442.650787,365.926938 442.645938,366.051782 442.632606,366.097841 C442.625333,366.118446 442.595031,366.162081 442.540488,366.219048 L442.478851,366.278844 L442.16838,366.547521 L441.910814,366.741908 L441.624158,366.945082 L441.425377,367.077198 L441.229021,367.20083 L441.031453,367.315977 L440.67995,367.500213 L440.601468,367.53506 L440.528441,367.564453 C440.436323,367.60324 440.364811,367.627481 440.315115,367.635966 L440.549046,367.191134 L440.727221,366.828723 L440.789037,366.689334 L440.976505,366.282794 C441.008558,366.210698 441.040745,366.136223 441.072663,366.059054 C441.170841,365.83482 441.238718,365.507559 441.276292,365.158481 C441.293261,364.977882 441.30417,364.79607 441.311442,364.611835 L441.313563,364.334118 L441.306594,364.0664 C441.304978,363.948425 441.299591,363.833143 441.291869,363.724146 L441.253038,363.283174 C441.248818,363.240168 441.244778,363.199362 441.241142,363.160979 L441.18781,362.782811 L441.183321,362.924534 L441.182962,363.285823 C441.182962,363.487028 441.182962,363.719746 441.165993,363.96095 C441.158721,364.082157 441.151448,364.205789 441.136903,364.329421 C441.122358,364.453053 441.105389,364.576685 441.08236,364.699104 L441.045997,364.879704 L440.999939,365.051819 C440.967213,365.16333 440.928426,365.273629 440.883579,365.374231 L440.656372,365.880121 L440.396324,366.43601 L440.219361,366.791148 L439.968374,367.269734 L439.78665,367.595967 L439.518781,366.285712 L439.373332,365.539073 C439.335515,365.337384 439.305456,365.176032 439.284395,365.040745 L439.270305,364.943944 C439.247276,364.786374 439.237579,364.671226 439.247276,364.563352 C439.256973,364.457901 439.283638,364.365783 439.326061,364.261545 L439.376205,364.150797 L439.860132,363.219007 L439.924827,363.087043 C440.104214,362.72948 440.293298,362.299193 440.45814,361.884663 L440.644218,361.404952 C440.729888,361.173804 440.80334,360.959848 440.859338,360.781673 Z M444.202851,356.785457 L444.256788,356.155177 L444.330422,356.289869 C444.378905,356.372745 444.45072,356.48668 444.54405,356.610918 C444.701967,356.823897 444.922218,357.068934 445.203279,357.235353 L445.348869,357.311498 C445.52462,357.389071 445.67613,357.512703 445.799761,357.663 C445.928242,357.809661 446.031268,357.986625 446.112477,358.163588 C446.194898,358.344187 446.260351,358.525999 446.311258,358.688417 L446.433678,359.096887 L446.720311,359.906105 L446.786392,360.104122 C446.82841,360.23341 446.869352,360.360544 446.904547,360.476544 L446.952446,360.641072 C446.997293,360.79137 447.022776,360.904093 447.022776,360.947727 C447.025171,361.033785 446.723364,361.528312 446.358529,362.008294 C446.265199,362.127078 446.171869,362.249498 446.078539,362.361009 C445.985209,362.47252 445.890667,362.57797 445.80461,362.672512 L445.641294,362.840048 C445.616199,362.864828 445.592496,362.887858 445.570679,362.908867 L445.477349,362.988864 C445.449471,363.013106 445.424018,363.030075 445.4022,363.043408 L445.482197,362.575546 L445.556892,362.056474 C445.583406,361.859209 445.610678,361.640429 445.636131,361.408317 C445.649464,361.291957 445.649464,361.156205 445.642192,361.007119 L445.620374,360.779249 L445.585224,360.535621 C445.529468,360.208361 445.439775,359.860495 445.346445,359.546567 L445.20342,359.106583 C445.18039,359.036283 445.157361,358.972043 445.133119,358.915075 L445.101757,358.825836 L444.939187,358.416912 C444.961005,358.536907 445.002215,358.695689 445.047062,358.882349 L445.145465,359.280898 C445.162075,359.352231 445.17837,359.425359 445.193723,359.499296 L445.255539,359.842314 L445.280993,360.016853 L445.290235,360.103516 L445.307658,360.364416 L445.311295,360.533197 C445.311295,360.648345 445.301598,360.756219 445.287053,360.859246 L445.193723,361.578007 L445.12046,362.091569 L445.053312,362.510208 L444.931915,363.188857 L444.530852,362.502732 L444.154368,361.841179 L443.840705,361.260064 C443.712642,361.016892 443.640144,360.86167 443.611963,360.712585 C443.59257,360.616831 443.590146,360.522289 443.604691,360.413202 C443.612872,360.331387 443.629917,360.239345 443.652246,360.128383 L443.859227,359.132037 C443.915589,358.837502 443.974677,358.504787 444.026778,358.170709 L444.099067,357.672242 L444.140732,357.353163 L444.202851,356.785457 Z M458.5,353.701732 C458.487197,353.713701 458.465588,353.753511 458.435642,353.819199 L458.210213,354.333426 L457.949616,354.949009 C457.85265,355.174607 457.747806,355.416416 457.641749,355.661862 L457.006621,357.077567 C456.936623,357.237561 456.870717,357.385965 456.814526,357.518687 L456.761781,357.646031 C456.695117,357.808449 456.645422,357.939354 456.62118,358.032684 C456.572697,358.215707 456.423612,358.418124 456.219983,358.632661 C456.119381,358.7369 456.001809,358.844775 455.878178,358.95265 L455.684245,359.112644 L455.58137,359.194307 L455.198696,359.484392 L454.64186,359.887161 C454.373991,360.079881 454.136424,360.262904 453.95946,360.428959 C453.869767,360.513804 453.774013,360.570772 453.670986,360.611982 C453.56796,360.649557 453.458873,360.667738 453.34615,360.66895 C453.12434,360.678647 452.892833,360.624103 452.689204,360.547742 C452.27831,360.391384 451.966807,360.146545 452.016502,360.104122 L452.184397,359.941794 L452.283159,359.843526 C452.383761,359.742923 452.502545,359.626564 452.626176,359.516265 C452.83627,359.328393 453.072456,359.143047 453.32702,359.026861 L453.481902,358.965982 C453.561899,358.936893 453.664926,358.882349 453.778861,358.798716 C453.896432,358.717507 454.028549,358.610844 454.170362,358.489636 C454.309751,358.367217 454.457624,358.227828 454.606709,358.081167 C454.755795,357.933293 454.906092,357.778147 455.050329,357.619365 L455.32776,357.307907 L455.689677,356.87946 L456.099988,356.360018 C456.012718,356.411834 455.918631,356.49024 455.820793,356.583476 L455.270927,357.135747 C455.102449,357.294529 454.926697,357.455735 454.724281,357.59876 C454.523076,357.735725 454.307326,357.858145 454.069759,357.938142 L453.682652,358.075561 L452.256144,358.601535 L451.471067,358.881137 L451.463795,358.814473 L451.453694,358.551138 L451.45531,358.366005 C451.45531,358.266614 451.461371,358.161164 451.468643,358.046016 C451.488036,357.822994 451.520763,357.583003 451.588639,357.363617 C451.621365,357.252106 451.662575,357.146656 451.714695,357.053326 C451.768026,356.95636 451.829842,356.871514 451.906203,356.797578 C452.086802,356.626675 452.254069,356.476377 452.412851,356.343049 C452.492848,356.277597 452.567997,356.214569 452.64557,356.155177 L452.866167,355.992759 C453.160702,355.792766 453.432207,355.648529 453.719469,355.53823 C453.937643,355.455506 454.159226,355.393235 454.402115,355.335056 L454.652768,355.277634 C454.99215,355.201273 455.373954,355.127336 455.82727,355.015825 C456.275739,354.90189 456.678148,354.761289 457.018742,354.60978 C457.192068,354.530995 457.349638,354.457058 457.491451,354.379485 C457.586801,354.328578 457.675148,354.278209 457.756851,354.228739 L457.874468,354.155251 C458.056764,354.044709 458.198722,353.943477 458.300963,353.864585 L458.5,353.701732 Z M447.057442,351.710493 L447.022747,351.429291 L447.074456,351.491994 C447.130527,351.557297 447.22986,351.6661 447.360916,351.782005 C447.571817,351.968665 447.861504,352.17593 448.205733,352.236534 C448.551175,352.299562 448.829953,352.552886 449.04449,352.842572 C449.152365,352.984385 449.243271,353.135895 449.320844,353.271647 L449.505079,353.612241 L449.929787,354.301046 L450.134799,354.648054 C450.270319,354.88341 450.376428,355.083163 450.388683,355.140669 C450.39838,355.178243 450.363229,355.326117 450.295353,355.528533 L450.173237,355.867006 C450.126875,355.989123 450.075361,356.118209 450.020212,356.247295 L449.882384,356.554677 C449.695278,356.956117 449.502898,357.307135 449.402053,357.40604 L449.39478,357.290893 L449.381448,357.153928 C449.376599,357.100597 449.372963,357.039993 449.368115,356.970905 L449.323268,356.48971 L449.257816,355.887308 C449.243271,355.780645 449.217817,355.659438 449.177819,355.528533 C449.13782,355.396417 449.089337,355.259453 449.03237,355.11764 L448.939494,354.903708 L448.787379,354.585841 L448.679201,354.378576 L448.6239,354.278883 C448.551175,354.146766 448.478451,354.023134 448.411786,353.910411 L448.226339,353.615877 L448.044527,353.346796 L448.228763,353.745569 C448.28371,353.849808 448.339196,353.964281 448.394862,354.086118 L448.478451,354.274034 C448.523297,354.371 448.563296,354.471603 448.60087,354.568569 C448.640869,354.669171 448.674807,354.770986 448.708745,354.875224 C448.772985,355.080065 448.81662,355.288542 448.838437,355.484899 L448.940407,356.586861 L449.009834,357.498966 L449.020249,357.663 L448.633596,357.281196 C448.45033,357.0989 448.222072,356.866181 447.992883,356.621516 L447.632705,356.230212 C447.467655,356.046469 447.370613,355.923064 447.312433,355.797614 C447.277283,355.712769 447.255465,355.627924 447.246981,355.523685 L447.235618,355.35157 L447.216679,354.278883 L447.198195,353.666784 C447.18971,353.454065 447.179105,353.236497 447.166984,353.025596 L447.138971,352.611245 C447.134123,352.54494 447.129005,352.480161 447.123349,352.417133 C447.113652,352.323803 447.10638,352.231685 447.10032,352.145628 L447.057442,351.710493 Z M458.350185,344.204956 L458.494877,343.917953 L458.4877,343.968285 L458.432932,344.873321 L458.367783,345.720411 L458.241727,346.853702 L458.184086,347.32731 L458.107726,347.993494 C458.084573,348.215337 458.071127,348.391373 458.075672,348.499702 C458.086581,348.8106 457.843208,349.2884 457.524925,349.776706 L457.416303,349.939649 C457.050256,350.488719 456.623605,351.03173 456.411491,351.426867 C456.198166,351.824428 455.740001,351.943211 455.340016,351.946847 C454.942454,351.951696 454.609133,351.843821 454.639435,351.79049 L454.932174,351.221038 C454.956326,351.175832 454.981241,351.129908 455.006695,351.083849 C455.083055,350.946884 455.172749,350.808708 455.270927,350.676591 C455.369105,350.549323 455.479404,350.429328 455.604248,350.333574 C455.648792,350.297211 455.700836,350.242441 455.757311,350.170796 L455.81515,350.093583 C455.893935,349.985708 455.983628,349.853591 456.07211,349.702082 C456.204832,349.475727 456.345054,349.211191 456.475902,348.939155 L456.665421,348.528186 L456.83693,348.133655 C456.869656,348.050022 456.90117,347.966388 456.935108,347.892452 L457.115727,347.417734 L457.182372,347.230658 C457.099951,347.33126 457.021166,347.473073 456.937532,347.635491 L456.810264,347.894876 L456.666027,348.174865 C456.567849,348.367586 456.450278,348.565154 456.315737,348.753026 C456.182409,348.939686 456.021203,349.113013 455.838179,349.262098 L455.69309,349.37717 L454.275812,350.556596 L453.832192,350.91537 L453.755832,350.705681 C453.734014,350.639017 453.707349,350.561444 453.683107,350.475387 C453.660078,350.389329 453.633412,350.294787 453.612807,350.192973 C453.56796,349.99298 453.530385,349.772382 453.53281,349.561481 C453.53281,349.45603 453.540082,349.35058 453.561899,349.252401 C453.580081,349.150587 453.615231,349.057257 453.660078,348.969988 C453.769164,348.765147 453.879463,348.580911 453.980066,348.414857 L454.055821,348.293194 L454.131575,348.179714 C454.182483,348.103353 454.229754,348.034265 454.283085,347.965176 C454.481865,347.697307 454.680646,347.486406 454.903668,347.299746 C455.068207,347.157024 455.243655,347.030665 455.438194,346.902261 L456.325434,346.330085 C456.409067,346.277966 456.495124,346.217362 456.587242,346.154334 L456.846627,345.968886 C456.93026,345.904646 457.011469,345.844042 457.089042,345.77253 C457.239339,345.633141 457.381152,345.494964 457.507208,345.358 C457.592054,345.268306 457.669896,345.178612 457.742172,345.090714 L457.919617,344.865291 L458.10961,344.598028 L458.244196,344.385061 L458.350185,344.204956 Z M448.176644,345.83677 L448.09301,345.635565 L448.220112,345.712912 C448.260708,345.735754 448.310124,345.762102 448.367031,345.78975 L448.500268,345.851315 L448.542691,345.874344 L448.633596,345.914343 C448.699048,345.942221 448.766925,345.966462 448.838437,345.987067 C448.976614,346.02949 449.130548,346.053732 449.285693,346.042823 C449.444476,346.034338 449.595985,346.070701 449.73901,346.132517 C449.809311,346.165243 449.880823,346.205241 449.947487,346.247664 C450.015364,346.293723 450.075967,346.342206 450.136571,346.393113 C450.257779,346.497352 450.368078,346.607651 450.461408,346.713101 L450.688066,346.972486 L451.173974,347.471233 L451.505454,347.827538 L451.597123,347.928814 C451.681969,348.028204 451.740148,348.100929 451.755905,348.133655 C451.782351,348.188749 451.743684,348.597449 451.661762,349.048313 L451.63591,349.184525 C451.614092,349.310581 451.586215,349.436637 451.559549,349.557845 L451.473492,349.902074 L451.389858,350.172367 C451.363193,350.248728 451.336527,350.304484 451.31471,350.340846 L451.234847,350.07199 L451.038899,349.449543 C450.996564,349.318096 450.950117,349.176525 450.900179,349.028167 C450.868665,348.936049 450.821394,348.835447 450.760791,348.728784 C450.702611,348.62091 450.63231,348.510611 450.554738,348.396675 C450.480801,348.283952 450.393531,348.171229 450.30505,348.058506 L450.173994,347.898209 L450.038393,347.743366 C449.932942,347.621916 449.829237,347.510938 449.735655,347.415146 L449.355994,347.047634 L449.402829,347.113143 L449.800691,347.621216 C449.83665,347.668621 449.873147,347.717509 449.909913,347.767608 C450.022636,347.919117 450.130511,348.082748 450.223841,348.250014 C450.319595,348.417281 450.400804,348.590608 450.454135,348.760298 L450.509083,348.940359 L450.735337,349.652387 L450.779881,349.805866 L450.86912,350.095401 L451.032296,350.647501 L450.617766,350.396602 L450.291688,350.189889 C450.116451,350.07705 449.92664,349.952254 449.73901,349.825714 L449.510285,349.66343 C449.346372,349.54466 449.244829,349.461052 449.17297,349.367549 C449.125699,349.299672 449.091761,349.229372 449.061459,349.138466 L449.033357,349.041321 L448.958755,348.739769 L448.802075,348.041537 C448.722078,347.705792 448.621476,347.315503 448.523297,346.953092 L448.419418,346.597819 L448.368152,346.433111 C448.341486,346.351902 448.319669,346.274329 448.299063,346.200393 L448.228763,345.999188 L448.181492,345.851315 C448.179068,345.847679 448.176644,345.840406 448.176644,345.83677 Z M448.975856,340.331821 L449.07964,340.341215 C449.149941,340.348487 449.215393,340.36182 449.280845,340.380001 C449.494171,340.434303 449.687327,340.523511 449.827424,340.584328 L450.511709,340.851651 L450.804956,340.97479 C450.987222,341.05581 451.131989,341.129671 451.165624,341.160579 C451.172897,341.165427 451.182324,341.182127 451.192829,341.208164 L451.226722,341.309844 L451.282893,341.517687 L451.329254,341.730255 L451.38501,342.050243 C451.415312,342.267205 451.439553,342.493863 451.448038,342.678099 L451.452576,342.882813 C451.452401,342.972876 451.448038,343.042691 451.437129,343.084144 L451.387434,343.01142 L451.135322,342.675674 L451.012902,342.521741 C450.929269,342.411442 450.828667,342.291446 450.720792,342.166602 C450.669885,342.103574 450.599584,342.038122 450.522012,341.975094 L450.393531,341.87934 L450.250506,341.78601 C450.056574,341.661166 449.83234,341.550867 449.626287,341.45875 C449.470838,341.392388 449.323571,341.335572 449.198803,341.292392 L448.850558,341.181184 L448.931408,341.224864 L449.142668,341.327845 C449.257816,341.383601 449.391144,341.451477 449.528109,341.526626 C449.799614,341.68056 450.0893,341.874492 450.272324,342.103574 L450.589888,342.497499 L450.758366,342.711582 L451.062598,343.114446 L451.141068,343.22461 C451.153099,343.240906 451.164816,343.256259 451.176533,343.270804 L451.249257,343.379891 L451.279559,343.417465 L450.442014,343.253835 L449.759918,343.10884 C449.698406,343.095053 449.645074,343.082326 449.598409,343.069599 C449.502655,343.041721 449.429931,343.016268 449.370539,342.984754 C449.313571,342.949604 449.265088,342.908393 449.215393,342.850213 L449.165339,342.787859 L448.905101,342.423562 C448.876012,342.38114 448.843286,342.333869 448.804499,342.285386 L448.750865,342.206904 L448.691776,342.126604 C448.53057,341.906006 448.334213,341.652682 448.140281,341.421175 L447.908842,341.155003 C447.79673,341.028899 447.692298,340.915012 447.605755,340.821197 L447.36334,340.570297 L447.466367,340.587267 L447.629413,340.601183 C447.661646,340.603024 447.696257,340.604236 447.733024,340.604236 C447.912815,340.604236 448.135534,340.585718 448.349275,340.49888 L448.476026,340.438181 C448.60087,340.371517 448.735411,340.337579 448.871163,340.331518 L448.975856,340.331821 Z M454.431705,334.430228 L454.42834,334.206198 L454.447009,334.256399 C454.517518,334.427742 454.779951,334.960351 455.064543,335.591904 L455.352761,336.243961 L456.023748,337.845026 C456.062297,337.931491 456.09597,338.001734 456.124229,338.051603 C456.292708,338.341289 456.308465,338.983689 456.256345,339.652756 C456.22968,339.988501 456.189681,340.331518 456.153319,340.645446 L456.133118,340.802388 L456.102412,341.093915 C456.089079,341.23694 456.079382,341.36542 456.076958,341.479355 C456.069686,341.712074 455.983628,341.910854 455.859996,342.07206 C455.736365,342.233266 455.575158,342.359322 455.415164,342.452652 C455.092752,342.6381 454.781248,342.695068 454.786097,342.633252 L454.796332,342.416963 L454.810159,341.999425 L454.820035,341.845402 C454.827307,341.689044 454.841852,341.524202 454.870942,341.36542 C454.887911,341.257949 454.910806,341.15371 454.941781,341.053422 L454.994574,340.906043 C455.024876,340.833318 455.047905,340.726655 455.064874,340.593327 L455.078207,340.488937 L455.096691,340.2544 L455.100024,340.124253 C455.118206,339.773963 455.100024,339.361857 455.072147,338.965508 L455.028663,338.531282 L454.968088,338.059908 L454.870241,337.464901 C454.833368,337.712221 454.884275,338.091601 454.901244,338.518252 C454.915789,338.947327 454.89882,339.423673 454.730341,339.864869 L454.460048,340.615144 L454.235208,341.20785 L454.050337,341.667362 L453.856075,342.127277 L453.806739,342.239327 L453.76674,342.201752 L453.664926,342.092666 C453.599474,342.026304 453.519704,341.938126 453.436866,341.836311 L453.353422,341.730255 C453.12434,341.434508 452.895257,341.066037 452.90253,340.690293 C452.904146,340.544036 452.908455,340.404782 452.914022,340.27289 L452.931923,339.943048 L452.942528,339.81275 C452.947377,339.726692 452.957073,339.645483 452.96677,339.563062 C452.988587,339.40428 453.014041,339.257619 453.045555,339.115806 L453.126461,338.806726 L453.15949,338.707336 C453.199488,338.574008 453.25282,338.443103 453.307363,338.309775 L453.392512,338.108267 L453.695228,337.438292 L453.845974,337.087059 L453.923098,336.896494 C454.083092,336.503781 454.192179,336.131673 454.26854,335.793504 C454.307326,335.623813 454.335204,335.463819 454.359446,335.314734 C454.383687,335.168073 454.395808,335.033532 454.407929,334.9099 C454.426352,334.71112 454.431588,334.549574 454.431705,334.430228 L454.431705,334.430228 Z M446.18399,334.861417 C446.267219,334.859801 446.349371,334.863033 446.426854,334.869318 L446.539128,334.88081 C446.644579,334.892931 446.735485,334.9099 446.802149,334.915961 L447.468791,334.955959 L447.774648,334.984265 C447.893834,334.997269 447.982884,335.010329 448.010589,335.021411 C448.031922,335.031108 448.078077,335.085797 448.137266,335.170584 L448.249671,335.34049 L448.390423,335.574876 L448.462694,335.70381 C448.656626,336.046828 448.825104,336.422572 448.843286,336.547416 L448.664981,336.437992 C448.642283,336.423683 448.617637,336.408027 448.591174,336.391058 L447.953621,336.015314 C447.729214,335.891682 447.348078,335.803671 446.984243,335.755096 L446.804573,335.734112 C446.701546,335.721992 446.602762,335.714113 446.512614,335.708507 L446.155124,335.692139 L446.051873,335.690478 L446.235032,335.728187 C446.270317,335.734651 446.307622,335.741385 446.346408,335.748657 C446.466404,335.766838 446.600944,335.789868 446.742757,335.82017 C446.88457,335.850472 447.027595,335.885622 447.166984,335.934105 C447.237284,335.957134 447.305161,335.982588 447.373037,336.011678 C447.438489,336.040768 447.497881,336.07107 447.557272,336.107432 L448.6942,336.798315 L448.825104,336.883161 L448.460269,336.965582 L447.878189,337.083191 L447.665147,337.12194 C447.380309,337.170423 447.232436,337.195877 447.108804,337.171635 C447.009899,337.153211 446.930386,337.106086 446.80883,337.022811 L446.708819,336.953461 C446.66276,336.924371 446.59852,336.873464 446.514887,336.814072 C446.436102,336.751044 446.337923,336.679532 446.230049,336.599535 L445.759494,336.264912 L445.085422,335.805945 L444.551323,335.463819 L444.675937,335.454942 C444.733777,335.448582 444.808283,335.437673 444.891916,335.418972 C445.045123,335.383095 445.227807,335.319291 445.385357,335.203359 L445.497954,335.106257 C445.58886,335.015351 445.696735,334.952323 445.814306,334.917173 C445.93309,334.878386 446.059146,334.863841 446.18399,334.861417 Z M448.234892,327.513225 C448.23746,327.522826 448.262748,327.552801 448.305981,327.598903 L448.664661,327.960751 L449.278421,328.567104 L449.684467,328.961029 L449.940978,329.215655 L450.341875,329.597457 C450.452255,329.698565 450.54279,329.774852 450.604433,329.814331 C450.799442,329.942541 450.989664,330.335075 451.16403,330.791028 L451.302286,331.164432 L451.506218,331.758501 C451.593487,332.013037 451.679545,332.243332 451.763178,332.417871 C451.803176,332.505141 451.829842,332.596046 451.840751,332.688164 C451.851659,332.782706 451.848023,332.874824 451.835902,332.968154 C451.808025,333.153601 451.740148,333.332989 451.657727,333.489347 C451.496521,333.797214 451.289256,334.004479 451.266226,333.95842 L451.032693,333.489492 C451.009897,333.442464 450.986964,333.393835 450.964419,333.343897 C450.909876,333.220266 450.856545,333.088149 450.816546,332.951185 C450.787456,332.861491 450.764831,332.769643 450.749747,332.677435 L450.732913,332.539079 C450.728065,332.467566 450.705035,332.377872 450.669885,332.265149 C450.634735,332.15485 450.585039,332.025158 450.52686,331.890618 C450.46868,331.753653 450.400804,331.60578 450.329291,331.457906 L450.158692,331.124434 L450.041575,330.905957 L449.86749,330.597332 L449.608779,330.160895 L449.463869,329.929478 C449.490534,330.037353 449.54023,330.159772 449.605682,330.296737 L449.823855,330.745205 C449.977789,331.06883 450.120814,331.450634 450.152328,331.866376 L450.201684,332.426297 L450.261512,333.035322 L450.365654,334.159625 L450.194751,334.119626 L450.017636,334.066447 C449.951427,334.044781 449.879611,334.019024 449.806886,333.988722 C449.660225,333.926906 449.502655,333.850545 449.368115,333.749943 C449.23115,333.650553 449.117215,333.529345 449.04449,333.375411 C448.711169,332.65665 448.569356,332.169395 448.53057,331.666384 C448.509965,331.416696 448.514813,331.159736 448.523297,330.877322 L448.560153,330.073131 C448.562219,330.012842 448.564104,329.950891 448.56572,329.887055 C448.579726,329.20937 448.505625,328.646607 448.426842,328.238778 L448.397241,328.093182 C448.341243,327.843737 448.287427,327.66847 448.256999,327.577332 L448.234892,327.513225 Z M443.0435,329.997354 C443.061923,330.001233 443.109049,330.042347 443.172464,330.107042 L443.222887,330.159772 C443.283491,330.223609 443.352714,330.300912 443.424092,330.385219 L443.531966,330.516123 C443.75014,330.783992 443.964678,331.076102 443.999828,331.179129 L443.134405,330.860353 C443.010773,330.816718 442.839871,330.78884 442.656847,330.776719 C442.532407,330.765407 442.401503,330.761636 442.273472,330.762534 L441.822332,330.776113 L441.607189,330.78884 C441.484769,330.799749 441.407196,330.810658 441.407196,330.810658 C441.549009,330.828839 441.784152,330.828839 442.043536,330.84702 C442.300497,330.867625 442.578062,330.903987 442.803508,330.994893 L443.187131,331.144736 L444.045887,331.470027 L443.740444,331.602144 L443.429849,331.728957 C443.373033,331.751456 443.314323,331.774296 443.254666,331.796966 L443.073801,331.863952 C442.638545,332.018855 442.57342,332.0314 442.297899,331.898053 L440.71497,331.079097 L440.031489,330.739145 L440.119668,330.726873 C440.174211,330.717328 440.249663,330.700965 440.333297,330.673693 C440.468079,330.629089 440.623807,330.558885 440.750212,330.443844 L440.838732,330.348856 C440.974485,330.169469 441.198719,330.097957 441.418105,330.071291 C441.594583,330.04608 441.767183,330.051898 441.88936,330.05213 L442.055938,330.046652 L442.748325,330.000005 C442.894835,329.991789 443.0106,329.988697 443.0435,329.997354 Z M441.409165,322.846851 C441.428268,322.87482 441.848349,323.130432 442.332304,323.418377 L442.894015,323.743278 C443.278332,323.961033 443.625406,324.147432 443.774382,324.191508 C443.955385,324.242146 444.190019,324.515925 444.432315,324.84855 L444.523445,324.975721 C444.796162,325.362374 445.068879,325.792661 445.287053,326.027804 C445.397352,326.144163 445.457956,326.300521 445.484622,326.465363 C445.507651,326.630206 445.502803,326.805957 445.479773,326.964739 C445.43129,327.279879 445.320991,327.528354 445.289477,327.495628 L445.001185,327.204396 C444.850272,327.047745 444.685004,326.856966 444.569468,326.640695 L444.493143,326.473848 C444.40951,326.244765 444.009525,325.77448 443.625296,325.368434 C443.433788,325.166017 443.247128,324.978145 443.108952,324.841181 L442.875021,324.619371 C442.963503,324.791486 443.14895,324.98057 443.342882,325.220561 C443.536815,325.455704 443.740444,325.736905 443.864075,326.084771 L443.974418,326.38603 L444.333149,327.292 L444.616775,327.975611 L444.466932,327.996519 C444.374966,328.006519 444.24891,328.015609 444.112551,328.011973 C443.975586,328.007125 443.826501,327.988943 443.688324,327.946521 C443.546511,327.900462 443.419243,327.832586 443.323489,327.719863 C442.8629,327.196245 442.632606,326.809593 442.484732,326.385366 C442.335647,325.959927 442.273831,325.495702 442.132018,324.826636 C441.988993,324.158782 441.797485,323.644861 441.645975,323.306692 L441.551081,323.107522 C441.479196,322.963644 441.42718,322.875507 441.409165,322.846851 Z" id="25"></path>
        </g>
    </g>
</svg>
