<?xml version="1.0" encoding="UTF-8"?>
<svg width="61px" height="39px" viewBox="0 0 61 39" version="1.1" xmlns="http://www.w3.org/2000/svg" xmlns:xlink="http://www.w3.org/1999/xlink">
    <title>15</title>
    <g id="页面-1" stroke="none" stroke-width="1" fill="none" fill-rule="evenodd">
        <g id="花环" transform="translate(-398.000000, -249.000000)" fill="#000000">
            <path d="M439.314542,249.170379 C439.757172,249.197529 440.21687,249.254616 440.625652,249.385265 C441.789507,249.757718 442.661748,250.421405 443.346522,251.256583 C443.764561,251.766648 444.1907,252.274159 444.648663,252.76125 C445.172586,253.318654 445.82438,253.737056 446.67203,253.97654 C447.427393,254.189569 448.143122,254.49287 448.987879,254.796634 C448.864348,254.611684 448.784501,254.489853 448.701761,254.369415 C448.346211,253.85146 447.966649,253.34302 447.640897,252.813231 C447.364904,252.364662 447.210418,251.881053 447.280139,251.37122 C447.380237,250.639772 448.012937,250.173335 448.820953,250.209768 C449.238703,250.228797 449.535814,250.40841 449.78982,250.642093 C450.367553,251.173739 450.730335,251.794727 450.838823,252.492294 C450.915198,252.983098 450.912305,253.481559 450.950493,253.976076 C450.985788,254.432767 451.0179,254.88969 451.070263,255.344988 C451.150978,256.044412 451.468051,256.650085 452.011936,257.222573 C452.540199,257.778584 452.910214,258.431829 453.343296,259.045159 C453.469431,259.223612 453.531081,259.352444 453.779518,259.752026 C453.779518,259.614415 453.803863,259.310402 453.813988,259.173487 C453.864037,258.508176 453.859987,257.835671 453.988147,257.179874 C454.130194,256.452371 454.650645,256.057639 455.329344,256.012388 C456.047676,255.964352 456.753859,256.359547 457.073536,257.000261 C457.342874,257.539796 457.355314,258.093256 457.047209,258.616315 C456.753569,259.114545 456.396862,259.590032 456.048834,260.066448 C455.676215,260.576745 455.265119,261.069172 454.901179,261.583182 C454.708698,261.854845 454.611397,262.296529 454.609275,262.908235 L454.773265,264.347209 C454.887664,264.132955 454.967622,263.98282 455.013138,263.896804 C455.254126,263.441041 455.470233,262.974836 455.749408,262.534389 C455.8848,262.320663 456.110455,262.127591 456.344499,261.972808 C457.063121,261.498248 457.984832,261.698051 458.314634,262.400259 C458.6265,263.063714 458.536238,263.712782 458.108652,264.331449 C457.624653,265.032033 456.919917,265.566464 456.118844,266.027796 C455.751722,266.239433 455.379103,266.445037 455.014296,266.659459 C454.576295,266.917044 454.294516,267.24471 454.194418,267.690494 C454.061629,268.281547 453.868377,268.864014 453.793737,269.482913 C453.951695,269.321401 454.092295,269.146197 454.271083,269.000928 C454.669739,268.67651 455.060294,268.338401 455.508131,268.062716 C455.758376,267.908629 456.109297,267.823928 456.429264,267.78587 C457.109987,267.705114 457.571132,268.053898 457.589358,268.605965 C457.602087,268.985844 457.434583,269.31119 457.160326,269.615187 C456.559738,270.280498 455.733496,270.729531 454.889607,271.162784 C454.809471,271.203858 454.724127,271.238667 454.639652,271.273476 C451.841249,272.430751 452.861033,271.911869 451.437096,274.108765 C451.419449,274.135916 451.442593,274.180007 451.454744,274.286058 C451.651179,274.145431 451.7993,274.012925 451.977509,273.916853 C452.447333,273.663445 452.897195,273.355272 453.415911,273.197472 C454.283812,272.933157 454.914776,273.421176 454.64023,274.13638 C454.513806,274.466367 454.226531,274.78011 453.928551,275.039319 C453.323045,275.565628 452.549456,275.91534 451.725529,276.179654 C450.935184,276.433135 450.301404,276.534434 449.556094,277.133806 C448.810784,277.733177 447.289107,278.903324 447.251498,278.95136 C447.230958,278.977582 447.228644,279.012855 447.202028,279.093379 C447.431443,279.027011 447.62296,278.964123 447.819974,278.916087 C448.319595,278.794488 448.817192,278.663839 449.324914,278.568463 C449.57458,278.521588 449.847391,278.522284 450.105157,278.541313 C450.757819,278.589581 451.282321,278.879654 451.371425,279.247466 C451.490328,279.736413 451.108162,280.040178 450.680286,280.297066 C450.002745,280.703633 449.198201,280.791119 448.382084,280.824767 C447.645525,280.855399 446.907809,280.872107 446.171251,280.904827 C445.234496,280.946598 444.44731,281.213465 443.761957,281.7653 C442.957702,282.413207 442.054796,282.981982 441.196731,283.58719 C440.987277,283.735011 440.786792,283.890955 440.459883,284.13392 C440.78766,284.107929 441.854556,283.926685 442.599866,283.926685 C443.593613,283.926685 444.58736,284.126476 444.58736,284.725848 C444.58736,285.325219 443.84205,285.7248 442.599866,285.7248 C441.109246,285.7248 440.632595,285.547619 440.111565,285.510954 C438.555997,285.401655 437.280471,285.886425 436.146414,286.684009 C435.877943,286.872905 435.626252,287.078277 435.344763,287.253249 C435.251318,287.311495 435.053726,287.346304 434.968961,287.30523 C434.890561,287.267404 434.831254,287.080133 434.880146,287.015853 C435.222726,286.564809 435.306796,286.071282 435.365845,285.574057 L435.415777,285.147863 C435.443125,284.935217 435.47813,284.723928 435.539172,284.517048 C435.610051,284.275939 435.638402,284.026709 435.710728,283.785832 C435.772059,283.582781 435.852195,283.38089 435.952872,283.188282 C436.174476,282.764079 436.471588,282.577736 436.819616,282.619971 C437.167066,282.662205 437.391563,282.930233 437.436694,283.368591 C437.492818,283.909983 437.397927,284.434435 437.151154,284.941483 C437.049899,285.149175 436.955587,285.359188 436.807176,285.677804 C437.075357,285.546923 438.260029,284.960575 438.624879,284.725848 C439.867063,283.926685 440.114458,283.058793 440.261423,281.941896 C440.343873,281.316035 440.340691,280.683211 440.418802,280.057118 C440.475794,279.60298 440.583125,279.151162 440.70492,278.704914 C440.827005,278.257273 441.178215,277.916843 441.622581,277.643247 C442.31343,277.217652 443.168602,277.465258 443.280851,278.162593 C443.345943,278.567535 443.323956,279.015872 443.172074,279.401785 C442.850661,280.217702 442.421339,281.006237 442.029048,281.803589 C441.943704,281.977401 441.828273,282.141698 441.787193,282.367491 C441.800528,282.360198 441.828587,282.342473 441.869088,282.315909 L442.025633,282.211289 C442.562006,281.848753 443.83245,280.962588 444.435738,280.530517 C445.36931,279.862189 445.686383,279.02469 445.502099,278.049117 C445.398819,277.501923 445.227264,276.957978 445.195441,276.408464 C445.157831,275.764966 445.185894,275.111722 445.290331,274.473793 C445.346745,274.130115 445.563431,273.777154 445.81194,273.485456 C446.319083,272.890227 447.197688,272.962397 447.548899,273.630493 C447.719876,273.955607 447.792779,274.331077 447.812452,274.687055 C447.866262,275.666573 447.683713,276.628223 447.343207,277.569916 C447.29229,277.710776 447.239058,277.851403 447.186984,277.992262 C447.229222,278.015004 447.27146,278.037978 447.313409,278.06072 C447.723347,277.705438 448.163952,277.36965 448.535413,276.990234 C449.019702,276.495718 449.443527,275.963608 449.903804,275.453544 C450.306221,275.007759 450.428884,274.504657 450.296963,273.98415 C450.174879,273.501468 449.965425,273.032478 449.780852,272.560704 C449.539575,271.942964 449.24391,271.336596 449.048054,270.709806 C448.862901,270.118521 448.980357,269.529093 449.364548,268.99327 C449.877478,268.278298 450.816258,268.231887 451.356092,268.93015 C451.610677,269.259209 451.768924,269.666007 451.834306,270.052617 C451.938743,270.671052 451.929486,271.301787 451.96912,271.942268 C452.294004,271.661942 452.809338,270.417499 452.842173,270.167912 C452.916969,269.599382 452.7305,269.048422 452.36199,268.510125 C452.110298,268.142544 451.809715,267.797009 451.548188,267.433606 C451.120891,266.839536 450.6583,266.256838 450.309114,265.633761 C450.134955,265.322571 450.079699,264.920413 450.144502,264.58068 C450.300435,263.767083 451.170072,263.460534 452.075293,263.855033 C452.612524,264.088948 453.044739,264.423576 453.277336,264.878875 C453.52787,265.369214 453.720544,265.878582 453.951117,266.408372 C454.133954,265.73285 454.224505,265.051294 454.131061,264.371131 C454.09837,264.133503 453.875609,263.870581 453.645615,263.701875 C453.227287,263.395094 452.740684,263.148184 452.27896,262.879924 C451.586086,262.477767 450.849527,262.115756 450.210463,261.664634 C449.813543,261.384772 449.503413,260.996074 449.261557,260.612714 C448.977175,260.161592 448.996269,259.672645 449.471011,259.282091 C449.959929,258.879934 450.574692,258.83445 451.186562,259.047712 C451.548477,259.173952 451.915599,259.354029 452.178573,259.584695 C452.592851,259.947866 452.9241,260.372069 453.284279,260.774226 C453.403182,260.906964 453.50328,261.05084 453.653137,261.173599 C453.528738,260.467445 453.289302,259.810139 452.778293,259.208296 C451.543588,257.75412 448.700968,257.835692 447.767032,257.763037 C445.084233,257.554329 445.059469,256.762865 445.082613,256.327523 C445.107204,255.868976 445.487055,255.610231 445.958326,255.429225 C446.811472,255.102023 447.675613,255.218748 448.534835,255.417622 C448.754992,255.468675 448.96705,255.54131 449.182868,255.603965 C449.203697,255.572173 449.224816,255.540381 449.245646,255.508589 C449.01652,255.394649 448.79752,255.263304 448.555954,255.170016 C448.020459,254.963716 447.472524,254.777837 446.931532,254.58082 C446.356692,254.371503 445.804707,254.426037 445.311161,254.717734 C444.660813,255.102255 443.954154,255.730896 443.345177,256.155795 C442.571009,256.696259 442.059887,257.025248 441.109246,257.354539 C440.158605,257.683829 438.624879,257.75412 438.085594,257.076376 C437.763081,256.671059 437.821463,256.178774 438.195528,255.780794 C438.420315,255.54131 438.709615,255.327352 439.015406,255.153076 C440.165953,254.497975 441.494131,254.203029 442.857315,253.991624 C443.179595,253.941499 443.50448,253.900425 443.821264,253.825934 C442.196842,253.549552 440.602797,253.653515 439.021481,254.004851 C438.369398,254.149655 438.128006,254.35768 437.70285,254.976247 C436.889189,256.160059 437.134259,258.353491 436.885822,259.552235 C436.637386,260.750978 435.395202,261.550141 434.401455,261.35035 C433.407708,261.15056 433.140078,260.718781 432.949355,260.149989 C432.413962,258.553282 433.71253,256.983088 434.352173,256.356531 C435.058934,255.664533 435.832234,255.015929 436.576025,254.348297 C436.635332,254.295156 436.691745,254.240158 436.815276,254.124361 C435.876207,254.218809 435.039551,254.339247 434.197108,254.377073 C433.467492,254.409793 431.171778,254.35768 430.606312,253.586914 C430.12563,252.931714 430.314407,252.2911 431.153668,251.946029 C431.916553,251.632286 432.74048,251.566381 433.586395,251.635999 C434.909076,251.744834 436.151621,252.079463 437.297829,252.597417 C438.485407,253.133936 439.742707,253.311925 441.074357,253.270386 C441.54418,253.255766 442.013426,253.233489 442.507261,253.149484 C442.320952,253.085668 442.130882,253.027885 441.948622,252.957107 L440.564284,252.428536 C440.103898,252.25078 439.647527,252.067279 439.20403,251.865505 C438.782808,251.674057 438.416843,251.370524 438.106135,251.065135 C437.717026,250.682703 437.664952,250.21905 437.958881,249.773498 C438.239791,249.347671 438.721477,249.133713 439.314542,249.170379 Z M418.190233,249.166457 C419.394591,249.22099 419.989682,250.19726 419.312719,251.003663 C419.054663,251.311372 418.692748,251.60307 418.295539,251.78802 C417.414041,252.198068 416.481047,252.537337 415.566858,252.901901 C415.37997,252.976391 415.183824,253.035102 414.992886,253.185476 C415.301858,253.206361 415.610253,253.233744 415.919515,253.247204 C417.365438,253.310091 418.754948,253.199167 420.055642,252.5986 C421.153537,252.091553 422.353555,251.773865 423.620691,251.639735 C424.4397,251.552945 425.242509,251.601677 426.005394,251.854621 C427.210041,252.254458 427.378414,253.293383 426.353133,253.94802 C425.787262,254.309567 425.106538,254.445321 424.409324,254.413065 C423.295807,254.361316 422.186629,254.247839 421.075715,254.158961 C420.91255,254.145966 420.750542,254.125777 420.410614,254.090504 C420.673299,254.236004 420.795962,254.301677 420.916022,254.370598 C421.708705,254.824736 422.538129,255.243602 423.281631,255.744616 C423.978845,256.214302 424.737101,256.437774 425.629304,256.447521 C426.509645,256.457499 427.390275,256.481633 428.269748,256.516906 C429.21171,256.554732 430.10478,256.757087 430.906432,257.156691 C431.244335,257.324934 431.567483,257.54098 431.817728,257.787194 C432.479647,258.438582 432.181089,259.334095 431.187342,259.59841 C430.781454,259.706317 430.291379,259.707245 429.863504,259.647374 C428.811318,259.500249 427.930977,259.025457 427.04514,258.576424 C426.813121,258.459003 426.581391,258.341349 426.299323,258.266626 C426.952853,259.144967 427.507442,260.078074 428.62038,260.653579 C429.739973,261.232565 430.904117,261.758177 432.002302,262.361297 C432.900869,262.854653 433.74441,263.219447 434.898329,264.147418 C436.140512,265.146371 436.223194,266.687097 435.607563,267.18347 C434.956059,267.708618 433.159272,267.943439 431.371337,266.443204 C430.367297,265.600725 429.699471,264.402946 429.098594,263.270501 C428.931378,262.955134 428.744345,262.646438 428.550659,262.340063 L427.9628,261.423549 C427.879482,261.291972 427.754793,261.177335 427.581792,260.977068 C427.755661,261.799715 427.933002,262.522577 428.056534,263.251009 C428.199448,264.091756 428.145928,264.933664 427.824226,265.744476 C427.68999,266.083049 427.488058,266.428352 427.211487,266.701949 C426.32941,267.574024 424.818105,267.386289 424.263516,266.350148 C423.964958,265.792048 423.955411,265.202852 424.04307,264.605069 C424.220121,263.394421 424.782811,262.283093 425.351864,261.168285 C425.584173,260.713682 425.784658,260.23541 425.878391,259.752728 C425.940591,259.432256 425.891988,259.043094 425.713201,258.756734 C424.921096,257.488535 423.627634,256.576545 422.172743,255.784298 L422.620869,256.256769 C423.371603,257.031612 424.033523,257.850778 424.297943,258.82171 C424.412795,259.24336 424.442304,259.692393 424.412506,260.124486 C424.374318,260.680498 423.904205,261.104236 423.331391,261.214 C422.665421,261.341864 422.04979,261.177799 421.713044,260.622715 C421.34274,260.011938 421.071955,259.352428 420.857004,258.69315 C420.568572,257.808311 420.377055,256.903283 420.139539,256.007538 C420.100195,255.858789 420.04002,255.71352 419.988525,255.566859 C419.64744,254.594999 418.916088,254.010908 417.618576,253.839881 C416.177571,253.650289 415.042067,253.59065 413.388715,253.814586 C414.080143,253.923422 414.664819,254.002089 415.241395,254.109068 C416.336107,254.312352 417.396972,254.596159 418.322444,255.12502 C418.628813,255.299992 418.921874,255.50838 419.154472,255.743688 C419.541845,256.135866 419.571932,256.591629 419.304329,257.038806 C419.029494,257.498513 418.548098,257.738694 417.91453,257.666291 C417.427927,257.610829 416.901979,257.549102 416.488858,257.357422 C415.712086,256.996803 414.989993,256.55566 414.271371,256.119854 C413.570106,255.694723 412.908476,255.227822 412.217048,254.791784 C411.622247,254.416314 410.983761,254.358299 410.278736,254.617508 L409.734354,254.813396 C409.099533,255.041843 408.475077,255.284702 407.959125,255.69658 C408.170315,255.62673 408.382661,255.559201 408.592404,255.487031 C409.241594,255.264255 409.928393,255.160757 410.615771,255.253812 C411.043357,255.311827 411.493219,255.453847 411.841537,255.658522 C412.46469,256.02471 412.4563,256.622261 411.879435,257.036949 C411.407007,257.376218 410.827828,257.565114 410.21509,257.657937 C409.327806,257.792299 408.430685,257.885122 407.540219,258.007185 C407.119576,258.064736 406.693147,258.122286 406.288705,258.227409 C405.336618,258.475015 404.62031,258.960945 404.235251,259.710726 C404.003232,260.162543 403.836884,260.635943 403.641317,261.099595 C403.687316,261.115839 403.733604,261.132083 403.779603,261.14856 C404.002364,260.867769 404.201981,260.573055 404.453383,260.310133 C404.770457,259.978985 405.106624,259.6548 405.477796,259.363102 C405.825535,259.08997 406.277712,258.950038 406.769522,258.930081 C407.737232,258.890631 408.404937,259.483077 408.249872,260.249565 C408.147171,260.758005 407.836173,261.195667 407.355066,261.522638 C406.739435,261.940575 406.081566,262.319294 405.429772,262.701726 C404.912214,263.005259 404.362543,263.274446 403.851928,263.585405 C403.342181,263.895899 403.122312,264.317549 403.201002,264.842233 C403.28027,265.368541 403.324244,265.898099 403.392808,266.507252 C403.637556,265.918056 403.81779,265.417506 404.05386,264.934824 C404.287614,264.457712 404.72359,264.100806 405.280783,263.853432 C406.232002,263.431086 407.15082,263.79565 407.252075,264.667957 C407.290263,264.994927 407.219963,265.368541 407.048119,265.664648 C406.698644,266.267536 406.251964,266.834454 405.834793,267.411351 C405.560536,267.790767 405.247802,268.15301 404.987721,268.538227 C404.47537,269.29729 404.333034,270.083968 404.782318,270.902902 C404.97181,271.248437 405.140761,271.601166 405.440476,271.940435 C405.440476,271.825566 405.433822,271.710233 405.441344,271.595364 C405.4804,271.005936 405.459281,270.407457 405.586862,269.830096 C405.669892,269.452769 405.893521,269.057574 406.190343,268.756826 C406.678103,268.262542 407.420159,268.318236 407.880436,268.834101 C408.361542,269.373637 408.525286,269.996482 408.338109,270.632554 C408.148039,271.279069 407.843695,271.90377 407.597789,272.540074 L407.309248,273.275322 C407.215623,273.520985 407.128544,273.767895 407.05998,274.018054 C406.945706,274.435295 407.027868,274.857409 407.309068,275.234272 C408.058645,276.237692 408.925099,277.168478 409.984228,277.977898 C410.013447,278.000176 410.067257,278.0018 410.16938,278.028951 C410.121067,277.866046 410.08693,277.726347 410.038038,277.59036 C409.679595,276.592277 409.488367,275.576326 409.569082,274.537168 C409.591069,274.254985 409.662815,273.968393 409.770724,273.699205 C409.902067,273.371539 410.195707,273.137392 410.635443,273.086339 C411.095142,273.032966 411.396014,273.252957 411.630926,273.537925 C412.080499,274.083494 412.238457,274.706571 412.235853,275.338002 C412.234291,275.713797 412.192423,276.089676 412.141682,276.465288 L412.037682,277.21605 C411.981269,277.651856 411.861788,278.084181 411.836618,278.520451 C411.792645,279.286939 412.145302,279.94088 412.854088,280.459066 C413.747158,281.111847 414.650643,281.755809 415.655673,282.342916 C415.56194,282.178155 415.471678,282.012233 415.373605,281.849096 C414.803973,280.902298 414.247069,279.949698 414.071175,278.894297 C414.024887,278.617219 414.03154,278.317399 414.113702,278.047283 C414.293936,277.45507 415.062896,277.243897 415.68576,277.599411 C416.205922,277.896213 416.601974,278.286304 416.698311,278.802866 C416.83544,279.536866 416.90574,280.278525 417.027246,281.014382 C417.142387,281.71195 417.247114,282.41323 417.431109,283.099891 C417.56737,283.608331 417.900065,284.045529 418.444818,284.376908 C419.124384,284.790204 419.767788,285.24179 420.532699,285.624222 C420.480046,285.496822 420.417557,285.37151 420.376766,285.241558 C420.220833,284.745185 420.050435,284.2509 419.931243,283.748726 C419.884087,283.54962 419.936161,283.329396 419.981003,283.124025 C420.038284,282.863423 420.210418,282.654571 420.5651,282.6128 C420.889695,282.574278 421.133865,282.720707 421.257975,282.935825 C421.436184,283.244463 421.600796,283.56772 421.688454,283.898868 C421.830789,284.4391 421.901957,284.991399 422.011602,285.537664 C422.109096,286.022666 422.082192,286.530642 422.466961,286.963663 C422.530896,287.035369 422.438899,287.195953 422.418937,287.315463 C422.288173,287.296667 422.12819,287.30943 422.032143,287.252808 C421.803306,287.11775 421.622204,286.929782 421.390474,286.799134 L420.646283,286.37766 C420.272294,286.168891 419.892535,285.967808 419.493821,285.795713 C419.111655,285.630487 418.637781,285.551123 418.198623,285.532791 C417.392343,285.499142 416.580855,285.526989 415.772839,285.552284 C415.064632,285.574561 414.398373,285.48081 413.786214,285.18772 C413.644457,285.119727 413.49836,285.046861 413.386401,284.951949 C412.990638,284.616856 413.073088,284.238369 413.623338,284.113754 C414.094319,284.007239 414.604934,283.970574 415.097034,283.975679 C415.654516,283.981713 416.21113,284.068502 416.937563,284.136031 C416.602264,283.89005 416.383263,283.72552 416.158766,283.5654 L414.232733,282.199985 C413.912734,281.971546 413.594118,281.741885 413.278202,281.509827 C412.776266,281.141086 412.176546,280.980269 411.531985,280.929449 C410.751453,280.867953 409.963977,280.863312 409.18113,280.817596 C408.708124,280.789749 408.231936,280.753548 407.767609,280.67929 C407.169914,280.583682 406.65062,280.350927 406.263247,279.962461 C405.777801,279.475835 405.916375,278.967627 406.608382,278.68382 C407.074734,278.492371 407.577828,278.473111 408.072242,278.561989 C408.580543,278.653652 409.075825,278.793119 409.575157,278.91611 C409.771014,278.964378 409.96282,279.024017 410.156362,279.078551 C410.174009,279.05697 410.191657,279.03562 410.209304,279.014039 C409.959927,278.791263 409.72299,278.558276 409.458859,278.347335 C408.305129,277.426295 407.069237,276.601328 405.52177,276.121663 C404.622624,275.843193 403.836016,275.414581 403.194059,274.83049 C402.870621,274.53624 402.651042,274.203932 402.682286,273.794117 C402.717292,273.332321 403.04073,273.061509 403.608626,273.143426 C404.036791,273.205153 404.444126,273.388015 404.841046,273.548367 C405.048185,273.632141 405.216269,273.78089 405.395924,273.905737 C405.56719,274.025015 405.730645,274.151487 405.994197,274.223425 C405.628232,273.591298 405.333146,272.92297 404.86824,272.342128 C404.620888,272.033258 404.087418,271.865248 403.668511,271.65245 C402.846609,271.234977 401.987676,270.860667 401.197018,270.40885 C400.781004,270.17099 400.420247,269.837058 400.140493,269.491523 C399.932776,269.23533 399.819081,268.893276 399.799697,268.583942 C399.764692,268.032108 400.264893,267.709314 400.960081,267.772202 C401.528557,267.823487 402.004166,268.046727 402.39154,268.366968 C402.819415,268.720393 403.206209,269.10561 403.716535,269.574136 C403.546716,269.000255 403.345363,268.541012 403.286056,268.069933 C403.181908,267.244501 402.609093,266.726779 401.781116,266.306985 C400.809356,265.814093 399.927568,265.234876 399.332767,264.419887 C398.91791,263.851576 398.755612,263.257042 398.968827,262.607279 C399.104219,262.194447 399.349546,261.862139 399.89777,261.746806 C400.440498,261.632633 400.877052,261.803428 401.245042,262.11253 C401.752186,262.538589 401.997802,263.078589 402.243129,263.617429 C402.344384,263.839973 402.43262,264.06623 402.646413,264.269513 C402.700223,263.633905 402.828672,262.994352 402.779491,262.363617 C402.749983,261.98513 402.492505,261.598289 402.25065,261.25461 C401.830297,260.65706 401.322575,260.099192 400.890649,259.506282 C400.628254,259.146592 400.388424,258.765552 400.22873,258.370589 C399.963442,257.713863 400.101438,257.081504 400.640115,256.532222 C401.015627,256.149094 401.513224,255.943258 402.138112,256.014036 C402.756058,256.083885 403.124337,256.417817 403.269277,256.862673 C403.424053,257.337697 403.497535,257.833838 403.550766,258.324873 C403.595608,258.737937 403.560024,259.156802 403.650575,259.603515 C403.757327,259.448268 403.879122,259.298126 403.967648,259.136613 C404.420403,258.310718 405.001029,257.54887 405.67886,256.829257 C405.873559,256.622725 406.049454,256.369317 406.102974,256.11939 C406.247335,255.445029 406.337597,254.762081 406.418022,254.080061 C406.48514,253.511518 406.467782,252.935085 406.561515,252.370023 C406.670292,251.713762 407.044068,251.136865 407.580431,250.630977 C407.951314,250.281033 408.422874,250.123001 408.980934,250.226499 C409.541309,250.330694 409.849125,250.655575 410.019812,251.086972 C410.203518,251.551089 410.117306,252.002906 409.909589,252.431982 C409.694928,252.874518 409.418067,253.299185 409.141785,253.720603 C408.921917,254.056159 408.662125,254.374775 408.343316,254.804315 C408.622202,254.707779 408.781028,254.655102 408.937539,254.598247 C409.521926,254.385914 410.088666,254.131114 410.694171,253.969137 C411.523306,253.747289 412.161792,253.340723 412.673854,252.801651 C413.16335,252.286018 413.617552,251.74741 414.063074,251.20625 C414.75132,250.36968 415.640629,249.720148 416.805353,249.356745 C417.235253,249.222615 417.732271,249.145804 418.190233,249.166457 Z" id="15"></path>
        </g>
    </g>
</svg>