<?xml version="1.0" encoding="UTF-8"?>
<svg width="61px" height="59px" viewBox="0 0 61 59" version="1.1" xmlns="http://www.w3.org/2000/svg" xmlns:xlink="http://www.w3.org/1999/xlink">
    <title>22</title>
    <g id="页面-1" stroke="none" stroke-width="1" fill="none" fill-rule="evenodd">
        <g id="花环" transform="translate(-159.000000, -319.000000)" fill="#545458">
            <path d="M198.391872,321.017548 C198.754994,321.178274 199.107401,321.434245 199.447902,321.716409 C199.738399,321.962855 200.007466,322.27002 200.257484,322.60814 L200.674799,322.746863 C200.97288,322.849692 201.309942,322.97404 201.681397,323.124844 C203.229129,323.75108 205.399525,324.854732 207.555634,326.765585 C208.630712,327.715654 209.695075,328.859785 210.664193,330.187262 C211.641645,331.509978 212.489326,333.032707 213.178662,334.684018 C213.865616,336.337709 214.347794,338.13784 214.620433,339.996309 C214.864498,341.853587 214.912121,343.775155 214.687105,345.66815 C214.272789,349.461282 212.790538,353.09488 210.702291,355.974851 C209.647452,357.409479 208.465224,358.673857 207.216323,359.721552 C205.966233,360.766866 204.667329,361.607403 203.405332,362.25626 C202.143336,362.905117 200.918247,363.361102 199.809833,363.676601 C198.825634,363.955987 197.935505,364.13754 197.172891,364.240494 L196.49804,364.325017 C196.43472,364.332602 196.372678,364.339348 196.311959,364.344507 L195.351175,364.415941 L194.304671,364.437371 C192.815277,364.58262 191.631857,365.204093 190.688932,366.102968 L191.544655,365.997787 C194.01814,365.714503 198.185743,365.419315 198.314486,366.624435 C198.327369,366.744646 198.337096,366.865507 198.341177,366.98497 L198.343206,367.127522 C198.333206,368.543709 197.366869,369.640486 191.142536,366.878025 C192.762892,368.94127 194.061796,372.334374 194.059415,377.91216 L192.260474,377.91216 L192.252269,377.318543 C192.201428,375.613371 191.858703,370.614903 189.624568,367.360203 C187.140523,370.980555 186.995755,376.758493 186.989706,377.761406 L186.989781,377.905921 L185.189722,377.91216 C185.187341,372.476051 186.423145,369.116283 187.983973,367.041132 L187.392421,367.292202 C181.36317,369.795523 181.013778,368.156854 181.181098,366.624435 C181.318012,365.320769 186.190986,365.773182 188.523298,366.066061 C187.647679,365.246001 186.569823,364.66344 185.237459,364.472286 L184.939268,364.437195 L183.899152,364.415941 L182.939559,364.344507 L182.752861,364.325017 L182.356183,364.275455 C181.537076,364.1814 180.547718,363.99091 179.441685,363.676601 C178.332081,363.361102 177.108182,362.905117 175.844995,362.25626 C174.582999,361.607403 173.284095,360.766866 172.032814,359.721552 C170.786294,358.673857 169.602875,357.409479 168.549227,355.974851 C166.458599,353.09488 164.976348,349.461282 164.564414,345.66815 C164.339397,343.775155 164.384639,341.853587 164.631085,339.996309 C164.903724,338.13784 165.384711,336.337709 166.071666,334.684018 C166.762192,333.032707 167.609873,331.509978 168.587325,330.187262 C169.556443,328.859785 170.619616,327.715654 171.695884,326.765585 C173.743057,324.950275 175.804198,323.863463 177.33218,323.222402 L177.56893,323.124844 C178.127304,322.898637 178.60591,322.731959 178.994034,322.60814 C179.242861,322.27002 179.51431,321.962855 179.802426,321.716409 C180.142927,321.434245 180.495333,321.178274 180.859646,321.017548 C181.577555,320.666332 182.303798,320.553229 182.924081,320.587755 C183.236009,320.610376 183.521744,320.665142 183.771762,320.7461 C184.02178,320.83182 184.238463,320.950877 184.413475,321.074695 C184.765882,321.333047 184.9528,321.647356 184.948038,321.95214 C184.942085,322.259305 184.744452,322.56647 184.425381,322.815298 C184.265846,322.942688 184.074165,323.046267 183.857483,323.146274 C183.63961,323.247472 183.397925,323.329621 183.130049,323.380815 C182.112118,323.609403 180.812023,323.524873 179.117852,322.881969 C179.023798,322.909352 178.926172,322.942688 178.821402,322.977215 L178.228731,323.19383 C178.157849,323.219985 178.085406,323.247206 178.011515,323.275865 L177.785613,323.366529 C176.261692,323.993955 174.11987,325.078558 172.00424,326.970362 C169.991594,328.757992 168.007152,331.268092 166.685665,334.337055 L166.37645,335.084493 L166.035949,336.023401 L165.835935,336.662733 L165.737118,336.987757 L165.482337,337.972352 L165.341851,338.640258 C165.238272,339.084338 165.188268,339.542704 165.109691,339.996309 C164.87396,341.820251 164.846577,343.702531 165.071593,345.553856 C165.501386,349.26484 166.962207,352.804383 169.018309,355.592681 C170.050527,356.986829 171.213706,358.204775 172.429271,359.216753 C173.649598,360.222779 174.915166,361.029981 176.142636,361.647883 C177.368916,362.269356 178.555907,362.70034 179.627413,362.99679 C180.566023,363.255142 181.415304,363.42143 182.144149,363.515594 L182.829851,363.598068 C182.891143,363.604903 182.951464,363.610724 183.010993,363.614692 L183.93606,363.675411 L185.211981,363.68966 C185.890202,363.711795 187.7711,363.911619 189.624568,365.356485 C191.677677,363.756811 193.765343,363.683268 194.215707,363.687351 L194.509834,363.686595 L195.315458,363.675411 L196.240526,363.614692 L196.420874,363.598068 L196.802471,363.551592 C197.595386,363.467062 198.550217,363.29205 199.621724,362.99679 C200.695611,362.70034 201.881412,362.269356 203.108882,361.647883 C204.335162,361.029981 205.60073,360.222779 206.821057,359.216753 C208.039002,358.204775 209.199801,356.986829 210.233209,355.592681 C212.288121,352.804383 213.751322,349.26484 214.178734,345.553856 C214.40256,343.702531 214.375177,341.820251 214.141827,339.996309 L213.996137,339.088394 C213.970386,338.937898 213.941812,338.788284 213.907286,338.640258 L213.76799,337.972352 L213.59774,337.315161 L213.5144,336.987757 L213.412012,336.662733 C213.346531,336.450813 213.28105,336.235321 213.213188,336.023401 L212.986981,335.395974 C212.937771,335.257075 212.887503,335.118176 212.833002,334.981747 L212.747678,334.779263 C211.432106,331.508787 209.354574,328.843117 207.246087,326.970362 C205.130457,325.078558 202.987445,323.993955 201.465905,323.366529 C201.081354,323.206993 200.731328,323.092699 200.431306,322.977215 L200.133666,322.881969 C198.438304,323.524873 197.1394,323.609403 196.119088,323.380815 C195.853593,323.329621 195.610718,323.247472 195.394035,323.146274 C195.177353,323.046267 194.985672,322.942688 194.824946,322.815298 C194.505876,322.56647 194.308242,322.259305 194.304671,321.95214 C194.299908,321.647356 194.484446,321.333047 194.836852,321.074695 C195.013055,320.950877 195.228547,320.83182 195.478565,320.7461 C195.729774,320.665142 196.015509,320.610376 196.325056,320.587755 C196.946529,320.553229 197.671582,320.666332 198.391872,321.017548 Z M205.525724,362.752725 C206.379358,362.740819 207.140127,362.870591 207.740171,363.071796 C208.956926,363.48254 209.59983,364.312362 209.256948,365.077894 C209.096222,365.463636 208.674763,365.81128 208.122342,366.056536 C207.849703,366.185117 207.528251,366.262504 207.197274,366.314888 C206.865107,366.362511 206.517463,366.379179 206.159104,366.330366 C205.801935,366.287506 205.443575,366.195832 205.100693,366.051774 C204.75424,365.906525 204.41731,365.695796 204.107764,365.435063 C203.488671,364.908834 202.975539,364.151636 202.602893,363.139658 C202.785446,363.094416 202.963766,363.054466 203.139616,363.019808 L203.40176,362.971788 C203.658922,362.921785 203.90775,362.878924 204.153005,362.84916 L204.333227,362.828326 L204.512555,362.811062 C204.630421,362.796776 204.745906,362.78487 204.8602,362.776536 C205.087597,362.759868 205.310232,362.751534 205.525724,362.752725 Z M173.724603,362.752725 C173.940095,362.751534 174.163921,362.759868 174.391318,362.776536 L174.563057,362.791567 L174.736582,362.811062 C174.856828,362.821777 174.975885,362.833683 175.099703,362.84916 C175.262413,362.869003 175.426711,362.894666 175.594007,362.924386 L175.847377,362.971788 C176.1093,363.015839 176.374796,363.071796 176.647435,363.139658 C176.274789,364.151636 175.762847,364.908834 175.142563,365.435063 C174.834208,365.695796 174.494897,365.906525 174.149634,366.051774 C173.805561,366.195832 173.447202,366.287506 173.092414,366.330366 C172.731674,366.379179 172.38522,366.362511 172.053053,366.314888 C171.723267,366.262504 171.400625,366.185117 171.129176,366.056536 C170.575565,365.81128 170.155296,365.463636 169.99338,365.077894 C169.651688,364.312362 170.292211,363.48254 171.510157,363.071796 C172.112581,362.870591 172.87097,362.740819 173.724603,362.752725 Z M168.657233,359.709907 L168.921873,359.722743 C169.282614,359.742982 169.671928,359.791795 170.073147,359.883469 C170.393171,359.959665 170.737577,360.045766 171.086859,360.163718 L171.349431,360.258496 C171.572066,360.338264 171.804226,360.421603 172.035195,360.523991 C172.154251,360.573995 172.270926,360.628761 172.386411,360.684717 C172.507848,360.737102 172.631667,360.791868 172.755485,360.851396 C172.189968,361.725269 171.545873,362.337218 170.848204,362.708674 C170.16244,363.069414 169.421909,363.195614 168.737336,363.133705 C167.364617,363.009886 166.239535,362.126489 166.085953,361.34667 C165.999042,360.960928 166.151434,360.593044 166.477648,360.310881 C166.801481,360.027527 167.300327,359.829893 167.918229,359.747744 C168.072407,359.727505 168.233728,359.714706 168.4013,359.710242 L168.657233,359.709907 Z M211.330908,359.747744 C211.950001,359.829893 212.450037,360.027527 212.77387,360.310881 C213.101275,360.593044 213.250095,360.960928 213.165565,361.34667 C213.010792,362.126489 211.886901,363.009886 210.512992,363.133705 C209.828418,363.195614 209.089079,363.069414 208.402124,362.708674 C207.705645,362.337218 207.06036,361.725269 206.496033,360.851396 C206.618661,360.791868 206.742479,360.737102 206.861536,360.684717 C206.980592,360.628761 207.097267,360.573995 207.213942,360.523991 C207.368715,360.455732 207.524018,360.39594 207.676322,360.340027 L207.902088,360.258496 C208.340215,360.089436 208.778342,359.978714 209.17718,359.883469 C209.5784,359.791795 209.968904,359.742982 210.329645,359.722743 C210.685623,359.69655 211.023743,359.707265 211.330908,359.747744 Z M177.679653,357.554728 C177.776088,357.724978 177.857046,357.930946 177.913003,358.178583 C177.968959,358.42622 178.002295,358.711955 178.009438,359.020311 C178.016582,359.642975 177.898716,360.407316 177.516546,361.258569 C177.465351,361.374053 177.408204,361.489538 177.345104,361.609785 L177.286767,361.718126 L177.189141,361.64312 C176.696248,361.284761 176.349794,360.868064 176.106919,360.472797 C175.873569,360.063244 175.747369,359.660833 175.697366,359.292949 C175.609264,358.53218 175.823565,357.908325 176.092632,357.515439 C176.300981,357.214227 176.550999,357.027309 176.791493,356.982067 C177.12485,356.929682 177.458208,357.126125 177.679653,357.554728 Z M202.359841,356.9738 L202.460025,356.982067 C202.699328,357.027309 202.949347,357.214227 203.158886,357.515439 C203.427953,357.908325 203.638682,358.53218 203.552962,359.292949 C203.502958,359.660833 203.377949,360.063244 203.142218,360.472797 C202.934039,360.811597 202.651512,361.166142 202.264645,361.486199 L201.964751,361.718126 L201.906414,361.609785 C201.842123,361.489538 201.786167,361.374053 201.732591,361.258569 C201.352802,360.407316 201.233746,359.642975 201.24208,359.020311 C201.246842,358.711955 201.281368,358.42622 201.337325,358.178583 C201.395662,357.930946 201.47543,357.724978 201.571865,357.554728 C201.749021,357.211846 201.997039,357.017546 202.260449,356.980362 L202.359841,356.9738 Z M205.116171,355.036688 C205.361427,355.031925 205.631684,355.153363 205.890037,355.397428 C206.225775,355.71888 206.551989,356.270111 206.611518,357.002307 C206.647234,357.373762 206.601993,357.774982 206.457935,358.209537 C206.424599,358.319069 206.381739,358.429792 206.335307,358.544086 C206.282922,358.651236 206.223394,358.763149 206.159104,358.873871 C206.025761,359.095316 205.879321,359.337 205.675735,359.551302 L205.593586,359.644166 L205.513819,359.551302 C205.429289,359.451294 205.349521,359.353668 205.276897,359.254851 C204.735191,358.528608 204.475648,357.844035 204.349448,357.2428 C204.224439,356.637995 204.263728,356.148673 204.368497,355.771265 C204.510174,355.329566 204.774479,355.047403 205.116171,355.036688 Z M174.134157,355.036688 C174.474658,355.047403 174.740153,355.329566 174.883021,355.771265 C174.98779,356.148673 175.027079,356.637995 174.900879,357.2428 C174.77468,357.844035 174.513946,358.528608 173.97224,359.254851 C173.899616,359.353668 173.819848,359.451294 173.737699,359.551302 L173.655551,359.644166 L173.574592,359.551302 C173.372197,359.337 173.223376,359.095316 173.091224,358.873871 C173.026933,358.763149 172.968596,358.651236 172.916211,358.544086 C172.868589,358.429792 172.826919,358.319069 172.791202,358.209537 C172.648334,357.774982 172.604284,357.373762 172.63881,357.002307 C172.700719,356.270111 173.023362,355.71888 173.360291,355.397428 C173.617453,355.153363 173.891282,355.031925 174.134157,355.036688 Z M216.206263,356.94516 C216.199119,357.321378 215.990771,357.778554 215.612172,358.182154 C215.228811,358.580993 214.69782,358.944115 214.059678,359.131033 C213.742988,359.223897 213.412012,359.288187 213.061986,359.291759 C212.70958,359.29414 212.346458,359.248899 211.985718,359.144129 C211.258284,358.938162 210.527278,358.494082 209.815322,357.783316 C210.220113,357.451149 210.63562,357.182082 211.01779,356.934445 C211.210661,356.814198 211.404723,356.704666 211.596404,356.608231 C211.780941,356.504652 211.966669,356.412978 212.148825,356.330829 C212.271056,356.276857 212.392229,356.227118 212.511991,356.181965 L212.690531,356.117719 C212.866734,356.054619 213.035794,355.998662 213.204854,355.95223 C213.538212,355.861748 213.862045,355.806982 214.163257,355.787933 C215.349057,355.691497 216.2015,356.170103 216.206263,356.94516 Z M165.088261,355.787933 C165.388283,355.806982 165.710925,355.861748 166.045474,355.95223 L166.299361,356.028724 L166.558606,356.117719 C166.738381,356.178437 166.918156,356.249871 167.101503,356.330829 C167.284849,356.412978 167.468196,356.504652 167.652733,356.608231 C167.844414,356.704666 168.040857,356.814198 168.233728,356.934445 C168.614708,357.182082 169.030214,357.451149 169.436196,357.783316 C168.72424,358.494082 167.993234,358.938162 167.2658,359.144129 C166.901488,359.248899 166.540748,359.29414 166.189532,359.291759 C165.835935,359.288187 165.50972,359.223897 165.19065,359.131033 C164.552508,358.944115 164.022708,358.580993 163.636965,358.182154 C163.259557,357.778554 163.052399,357.321378 163.042874,356.94516 C163.048827,356.170103 163.90127,355.691497 165.088261,355.787933 Z M208.162821,352.719853 C208.35212,352.837718 208.550944,353.012731 208.728338,353.244891 C208.909304,353.478241 209.065267,353.767548 209.161703,354.104477 C209.209325,354.277109 209.243852,354.460455 209.26171,354.656898 C209.272425,354.756905 209.275997,354.858103 209.275997,354.965254 C209.273616,355.067642 209.264091,355.174793 209.250995,355.283134 C209.223612,355.503388 209.174799,355.735548 209.103365,355.978423 C209.020026,356.215345 208.912875,356.461791 208.777151,356.717762 L208.718814,356.827294 L208.621187,356.753479 C208.51999,356.677283 208.427126,356.601087 208.336643,356.52251 C207.679452,355.95104 207.279423,355.342662 207.049645,354.802147 C206.823438,354.264013 206.74367,353.768738 206.782959,353.396092 C206.813913,353.172266 206.865107,352.969871 206.965115,352.823432 C207.06155,352.675802 207.202037,352.579366 207.359191,352.536506 C207.583017,352.475787 207.869942,352.540078 208.162821,352.719853 Z M171.891137,352.536506 C172.050672,352.579366 172.188777,352.675802 172.284022,352.823432 C172.382839,352.969871 172.436414,353.172266 172.466178,353.396092 C172.507848,353.768738 172.425699,354.264013 172.201873,354.802147 C171.968523,355.342662 171.572066,355.95104 170.914875,356.52251 C170.824392,356.601087 170.730338,356.677283 170.631521,356.753479 L170.532705,356.827294 L170.473176,356.717762 C170.338643,356.461791 170.229111,356.215345 170.148153,355.978423 C170.075528,355.735548 170.026715,355.503388 169.999332,355.283134 C169.985046,355.174793 169.977902,355.067642 169.974331,354.965254 C169.974331,354.858103 169.979093,354.756905 169.987427,354.656898 C170.004095,354.460455 170.042193,354.277109 170.089815,354.104477 C170.18387,353.767548 170.343405,353.478241 170.521989,353.244891 C170.700574,353.012731 170.898207,352.837718 171.088697,352.719853 C171.379195,352.540078 171.667311,352.475787 171.891137,352.536506 Z M163.114308,351.359039 C164.242962,351.667395 165.532341,352.535315 166.833626,354.084238 C166.022853,354.612847 165.241844,354.887867 164.512029,354.940252 C163.77388,355.000971 163.123833,354.824768 162.557125,354.525936 C162.27139,354.378307 162.033277,354.189007 161.816595,353.986611 C161.604675,353.784216 161.416566,353.565152 161.279651,353.338945 C161.012965,352.881769 160.883194,352.423403 160.961771,352.063853 C161.114163,351.3388 162.013038,351.045921 163.114308,351.359039 Z M218.288557,352.063853 C218.367134,352.423403 218.238553,352.881769 217.969486,353.338945 C217.834952,353.565152 217.645653,353.784216 217.433733,353.986611 C217.21705,354.189007 216.980128,354.378307 216.693203,354.525936 C216.127685,354.824768 215.476448,355.000971 214.739489,354.940252 C214.008484,354.887867 213.228665,354.612847 212.416701,354.084238 C213.719177,352.535315 215.007366,351.667395 216.136019,351.359039 C217.23729,351.045921 218.136165,351.3388 218.288557,352.063853 Z M170.177917,349.58391 C170.456509,349.732731 170.612472,350.075613 170.556516,350.526836 C170.52318,350.892339 170.364835,351.342372 170.032668,351.816216 C169.711216,352.281726 169.219514,352.775809 168.484937,353.186553 L168.331205,353.268851 L168.058715,353.400855 L168.021808,353.281798 C167.978947,353.148455 167.945612,353.017493 167.915848,352.891294 C167.892036,352.762713 167.874178,352.636513 167.861082,352.512695 C167.83727,352.26982 167.832508,352.042422 167.847986,351.830502 C167.892036,351.395947 168.00633,351.029254 168.161104,350.726851 C168.487318,350.11133 168.971877,349.75297 169.375478,349.600578 C169.686214,349.486284 169.974331,349.481522 170.177917,349.58391 Z M209.87485,349.600578 C210.278451,349.75297 210.761819,350.11133 211.089224,350.726851 C211.243997,351.029254 211.357101,351.395947 211.402342,351.830502 C211.417819,352.042422 211.413057,352.26982 211.386865,352.512695 C211.374959,352.636513 211.358291,352.762713 211.333289,352.891294 C211.304716,353.017493 211.270189,353.148455 211.22971,353.281798 L211.192803,353.400855 L211.079699,353.34847 C210.971358,353.296085 210.865398,353.24251 210.766581,353.186553 C210.030814,352.775809 209.537921,352.281726 209.216469,351.816216 C208.886683,351.342372 208.727148,350.892339 208.693812,350.526836 C208.636665,350.075613 208.791438,349.732731 209.07122,349.58391 C209.275997,349.481522 209.562923,349.486284 209.87485,349.600578 Z M162.057088,346.649173 C163.061923,347.14921 164.107237,348.213573 165.040639,349.930364 C164.171528,350.268484 163.376232,350.376825 162.679753,350.283961 C161.990417,350.192288 161.390373,349.907743 160.91891,349.51962 C160.466497,349.126734 160.11409,348.639794 159.948602,348.162379 C159.781923,347.687344 159.741444,347.23374 159.889074,346.909907 C160.168856,346.257478 161.072493,346.147946 162.057088,346.649173 Z M219.361254,346.909907 C219.510074,347.23374 219.469595,347.687344 219.302916,348.162379 C219.137428,348.639794 218.785021,349.126734 218.332608,349.51962 C217.861145,349.907743 217.261101,350.192288 216.570575,350.283961 C215.875286,350.376825 215.0788,350.268484 214.210879,349.930364 C215.141899,348.213573 216.188404,347.14921 217.19443,346.649173 C218.176644,346.147946 219.081472,346.257478 219.361254,346.909907 Z M169.069503,346.30391 C169.194512,346.401536 169.265946,346.543213 169.298091,346.709892 C169.333808,346.876571 169.319521,347.071823 169.25404,347.283743 C169.136174,347.630197 168.919492,348.024273 168.511129,348.410016 C168.103957,348.795758 167.551535,349.162451 166.776479,349.406517 C166.67171,349.439852 166.562178,349.468426 166.447884,349.496999 L166.326446,349.525573 L166.31335,349.401754 C166.222867,348.315961 166.528842,347.517094 166.943158,347.000389 C167.369379,346.478923 167.892036,346.228905 168.30159,346.163424 C168.61947,346.114611 168.89449,346.165805 169.069503,346.30391 Z M210.948738,346.163424 C211.358291,346.228905 211.879758,346.478923 212.30717,347.000389 C212.721485,347.517094 213.028651,348.315961 212.936977,349.401754 L212.922691,349.525573 L212.803634,349.496999 C212.68934,349.468426 212.578618,349.439852 212.473848,349.406517 C211.697602,349.162451 211.147562,348.795758 210.739199,348.410016 C210.330836,348.024273 210.115344,347.630197 209.996287,347.283743 C209.931997,347.071823 209.91652,346.876571 209.953427,346.709892 C209.983191,346.543213 210.055816,346.401536 210.179634,346.30391 C210.355837,346.165805 210.628476,346.114611 210.948738,346.163424 Z M217.325392,341.846443 C218.159976,341.194015 219.033849,341.136868 219.420782,341.695242 C219.79819,342.247663 219.662466,343.421558 218.93027,344.324004 C218.56953,344.776418 218.048063,345.157398 217.415874,345.375271 C216.782495,345.593144 216.014582,345.64791 215.129994,345.494327 C215.253812,345.041914 215.413348,344.629979 215.577645,344.257333 C215.7348,343.882306 215.913384,343.545376 216.108636,343.241783 C216.469377,342.638167 216.907504,342.170276 217.325392,341.846443 Z M159.830736,341.695242 C160.215288,341.136868 161.090351,341.194015 161.924936,341.846443 C162.341633,342.170276 162.780951,342.638167 163.141691,343.241783 C163.335753,343.545376 163.516718,343.882306 163.672682,344.257333 C163.83817,344.629979 163.995325,345.041914 164.120334,345.494327 C163.234555,345.64791 162.467833,345.593144 161.835644,345.375271 C161.203455,345.157398 160.680798,344.776418 160.318867,344.324004 C159.58548,343.421558 159.452137,342.247663 159.830736,341.695242 Z M167.918229,342.532207 C168.228966,342.544113 168.478984,342.645311 168.61947,342.81199 C168.718287,342.928665 168.763528,343.079866 168.758766,343.247736 C168.762338,343.415605 168.711144,343.601333 168.609946,343.789442 C168.434933,344.10256 168.146817,344.438298 167.695594,344.726414 C167.24437,345.014531 166.635993,345.257405 165.863317,345.335983 L165.701252,345.350269 L165.410904,345.362175 L165.426381,345.237166 C165.549009,344.190661 165.989517,343.491801 166.477648,343.077485 C166.977684,342.660788 167.5182,342.517921 167.918229,342.532207 Z M212.771489,343.077485 C213.262001,343.491801 213.700128,344.190661 213.825137,345.237166 L213.839424,345.362175 L213.716796,345.357413 C213.603692,345.356222 213.494161,345.346698 213.388201,345.335983 C212.614335,345.257405 212.005957,345.014531 211.554734,344.726414 C211.10232,344.438298 210.815395,344.10256 210.639191,343.789442 C210.539184,343.601333 210.48918,343.415605 210.491561,343.247736 C210.48799,343.079866 210.529659,342.928665 210.630857,342.81199 C210.772534,342.645311 211.022552,342.544113 211.332099,342.532207 C211.730937,342.517921 212.271453,342.660788 212.771489,343.077485 Z M168.242062,338.868846 C168.532559,338.936708 168.750432,339.080766 168.852821,339.266494 C168.925445,339.396265 168.939732,339.548657 168.902824,339.707002 C168.87306,339.866537 168.793292,340.033216 168.659949,340.196323 C168.437314,340.457057 168.099194,340.722552 167.621779,340.911851 C167.141982,341.09877 166.52408,341.215445 165.777597,341.142821 C165.674018,341.133296 165.570439,341.119009 165.462098,341.102342 L165.341851,341.080911 L165.38233,340.961855 C165.545437,340.479677 165.74188,340.090363 165.996661,339.78796 C166.246679,339.485557 166.500269,339.262922 166.780051,339.115292 C167.330091,338.81408 167.865844,338.780744 168.242062,338.868846 Z M212.469086,339.115292 C212.75125,339.262922 213.00603,339.485557 213.252476,339.78796 C213.507257,340.090363 213.706081,340.479677 213.867997,340.961855 L213.908477,341.080911 L213.787039,341.102342 C213.681079,341.119009 213.57631,341.133296 213.475112,341.142821 C212.726248,341.215445 212.108346,341.09877 211.628549,340.911851 C211.149943,340.722552 210.813013,340.457057 210.590378,340.196323 C210.458226,340.033216 210.377267,339.866537 210.348694,339.707002 C210.308215,339.548657 210.324883,339.396265 210.397507,339.266494 C210.499895,339.080766 210.717768,338.936708 211.008266,338.868846 C211.384484,338.780744 211.919046,338.81408 212.469086,339.115292 Z M218.477856,336.582965 C218.938604,337.030617 219.030277,338.164033 218.508811,339.147438 C218.25403,339.64033 217.83019,340.095125 217.276578,340.418959 C216.719395,340.743982 216.012201,340.939234 215.147852,340.963046 C215.176426,340.513013 215.255003,340.095125 215.337152,339.712955 C215.394299,339.425434 215.470197,339.155995 215.557815,338.90313 L215.649079,338.655735 C215.874096,338.018784 216.203881,337.494936 216.532477,337.112766 C217.200382,336.344853 218.012346,336.12817 218.477856,336.582965 Z M162.71666,337.112766 C163.047637,337.494936 163.377423,338.018784 163.602439,338.655735 C163.728639,338.978378 163.83698,339.329594 163.913176,339.712955 C163.995325,340.095125 164.072711,340.513013 164.101285,340.963046 C163.239317,340.939234 162.530932,340.743982 161.973749,340.418959 C161.418947,340.095125 160.996297,339.64033 160.743898,339.147438 C160.22005,338.164033 160.311723,337.030617 160.772471,336.582965 C161.236791,336.12817 162.049945,336.344853 162.71666,337.112766 Z M169.281423,335.319778 C169.545728,335.441216 169.721931,335.61861 169.786222,335.815052 C169.875514,336.093644 169.723122,336.400809 169.424291,336.661543 C169.170701,336.871082 168.786149,337.052047 168.307543,337.141339 C167.821793,337.22825 167.219368,337.219916 166.530033,337.005615 L166.388504,336.960225 L166.128813,336.863938 L166.191913,336.752025 C166.31216,336.541296 166.437169,336.353187 166.569321,336.185317 C166.707426,336.024591 166.850294,335.884105 166.995543,335.763858 C167.13722,335.644802 167.282468,335.544795 167.422955,335.462646 C167.572966,335.385259 167.720595,335.32335 167.863463,335.278109 C168.434933,335.097143 168.944494,335.165005 169.281423,335.319778 Z M211.386865,335.278109 C211.529732,335.32335 211.677362,335.385259 211.824992,335.462646 C211.96905,335.544795 212.113108,335.644802 212.255975,335.763858 C212.400034,335.884105 212.542901,336.024591 212.682197,336.185317 C212.811968,336.353187 212.939358,336.541296 213.059605,336.752025 L213.122705,336.863938 L213.008411,336.906798 C212.909594,336.944896 212.814349,336.978232 212.721485,337.005615 C212.030959,337.219916 211.428534,337.22825 210.943975,337.141339 C210.464179,337.052047 210.079627,336.871082 209.826037,336.661543 C209.528396,336.400809 209.376004,336.093644 209.464106,335.815052 C209.528396,335.61861 209.70579,335.441216 209.968904,335.319778 C210.304643,335.165005 210.815395,335.097143 211.386865,335.278109 Z M216.55986,331.767139 C216.689631,331.849288 216.811068,331.975488 216.905123,332.136214 C216.999177,332.29813 217.074183,332.491001 217.125377,332.706493 C217.175381,332.920794 217.207526,333.155335 217.198001,333.404163 C217.186096,333.6518 217.146807,333.910152 217.072992,334.164932 C216.931315,334.674493 216.625341,335.180483 216.161021,335.591227 C215.696702,336.005542 215.069275,336.324613 214.263264,336.513913 C214.068012,334.79474 214.344222,333.486312 214.831163,332.632678 C215.318103,331.782616 216.040774,331.426638 216.55986,331.767139 Z M164.419165,332.632678 C164.906105,333.486312 165.184697,334.79474 164.987063,336.513913 C164.181052,336.324613 163.553626,336.005542 163.089306,335.591227 C162.626177,335.180483 162.319012,334.674493 162.176145,334.164932 C162.10352,333.910152 162.063041,333.6518 162.054707,333.404163 C162.042802,333.155335 162.074947,332.920794 162.124951,332.706493 C162.176145,332.491001 162.25115,332.29813 162.345205,332.136214 C162.44045,331.975488 162.561887,331.849288 162.690468,331.767139 C163.209553,331.426638 163.933415,331.782616 164.419165,332.632678 Z M209.369486,331.704565 L209.554589,331.718326 C210.124868,331.780235 210.798727,332.075495 211.413057,332.78388 L211.495206,332.880315 L211.392817,332.946987 C211.309478,333.001753 211.224948,333.050566 211.142799,333.096998 C210.536803,333.429165 209.976048,333.552983 209.505776,333.563698 C209.02836,333.577985 208.631902,333.480359 208.360454,333.326776 C208.017572,333.142239 207.819939,332.875553 207.852084,332.592199 C207.873514,332.393375 207.999714,332.195742 208.22473,332.030254 C208.447894,331.867279 208.786293,331.728791 209.191753,331.706659 L209.369486,331.704565 Z M171.026788,332.030254 C171.250614,332.195742 171.376813,332.393375 171.399434,332.592199 C171.431579,332.875553 171.232755,333.142239 170.892254,333.326776 C170.618425,333.480359 170.221968,333.577985 169.743361,333.563698 C169.27547,333.552983 168.713525,333.429165 168.107528,333.096998 L167.984156,333.025117 L167.755122,332.880315 L167.83727,332.78388 C168.451601,332.075495 169.12665,331.780235 169.69812,331.718326 C170.262447,331.651655 170.739862,331.820714 171.026788,332.030254 Z M166.96816,328.583574 C167.118171,329.028845 167.189604,329.572932 167.168174,330.20274 L167.151953,330.442787 L167.124123,330.687299 C167.102693,330.852787 167.082454,331.030181 167.049118,331.206384 C166.981256,331.561172 166.877677,331.932627 166.755049,332.331466 C166.035949,331.998108 165.50972,331.575459 165.152552,331.095662 C164.788239,330.615865 164.621561,330.09678 164.575129,329.586028 C164.483455,328.566907 164.963252,327.652554 165.510911,327.441825 C166.057379,327.221571 166.670519,327.693033 166.96816,328.583574 Z M213.739417,327.441825 C214.288266,327.652554 214.766872,328.566907 214.676389,329.586028 C214.627576,330.09678 214.460898,330.615865 214.096585,331.095662 C213.740607,331.575459 213.213188,331.998108 212.495279,332.331466 C212.373841,331.932627 212.269072,331.561172 212.2024,331.206384 C212.167874,331.030181 212.146444,330.852787 212.125014,330.687299 C212.103583,330.523001 212.089297,330.361085 212.083344,330.20274 C212.061914,329.572932 212.134538,329.028845 212.283358,328.583574 C212.579809,327.693033 213.192948,327.221571 213.739417,327.441825 Z M172.054444,328.581374 L172.220922,328.589527 C172.773344,328.644293 173.184088,328.89193 173.410295,329.141948 C173.59007,329.341963 173.673409,329.556264 173.650788,329.747945 C173.613881,330.006297 173.391246,330.238457 173.025743,330.339654 C172.726912,330.420613 172.353075,330.452758 171.904233,330.343226 C171.458962,330.234885 170.956545,330.008678 170.456509,329.578885 L170.354715,329.487212 L170.164821,329.301484 L170.266018,329.225288 C170.635093,328.963364 170.973213,328.776446 171.312523,328.684772 C171.511109,328.629054 171.701123,328.597337 171.879736,328.586022 L172.054444,328.581374 Z M207.940186,328.684772 C208.277115,328.776446 208.616425,328.963364 208.984309,329.225288 L209.086697,329.301484 L208.998596,329.388395 C208.929543,329.457447 208.861681,329.519357 208.793819,329.578885 C208.293783,330.008678 207.792556,330.234885 207.346095,330.343226 C206.898443,330.452758 206.523416,330.420613 206.223394,330.339654 C205.860272,330.238457 205.637637,330.006297 205.599539,329.747945 C205.575728,329.556264 205.661448,329.341963 205.838842,329.141948 C206.06624,328.89193 206.478175,328.644293 207.029405,328.589527 C207.300853,328.565716 207.604447,328.591908 207.940186,328.684772 Z M169.873133,324.08801 C170.075528,324.327313 170.214824,324.6821 170.271971,325.132133 C170.386265,326.03458 170.131485,327.217999 169.340951,328.593099 C168.734955,328.141876 168.320639,327.638268 168.088479,327.126326 C167.852748,326.613193 167.786076,326.085774 167.839652,325.598834 C167.903942,325.122609 168.084908,324.688053 168.320639,324.360648 C168.564704,324.042768 168.858773,323.830848 169.131412,323.780844 C169.40167,323.72846 169.671928,323.851088 169.873133,324.08801 Z M210.01725,323.769285 L210.117725,323.780844 C210.392745,323.830848 210.685623,324.042768 210.930879,324.360648 C211.166611,324.688053 211.347576,325.122609 211.410676,325.598834 C211.465442,326.085774 211.396389,326.613193 211.160658,327.126326 C210.928498,327.638268 210.515373,328.141876 209.910567,328.593099 C209.117652,327.217999 208.865253,326.03458 208.978356,325.132133 C209.036694,324.6821 209.173609,324.327313 209.378385,324.08801 C209.528396,323.910318 209.718589,323.796917 209.91732,323.773422 L210.01725,323.769285 Z M174.94493,325.956002 C175.091369,325.975051 175.228284,326.007197 175.354484,326.046485 C175.858092,326.208402 176.190259,326.514376 176.353366,326.795349 C176.479565,327.017984 176.516473,327.239429 176.456945,327.415632 C176.374796,327.662079 176.104538,327.810899 175.750941,327.847807 C175.167565,327.883524 174.272262,327.629934 173.500777,326.623908 C173.448393,326.556046 173.39958,326.483422 173.348385,326.407226 L173.282904,326.303647 L173.398389,326.251262 C173.593641,326.16197 173.776988,326.085774 173.960335,326.040532 C174.143681,325.995291 174.316313,325.966718 174.481801,325.952431 C174.644908,325.939335 174.800872,325.941716 174.94493,325.956002 Z M204.608065,325.944361 L204.769717,325.952431 C204.931634,325.966718 205.106646,325.995291 205.289993,326.040532 C205.41143,326.070693 205.533926,326.114612 205.659949,326.166997 L205.968614,326.303647 L205.900752,326.407226 L205.74955,326.623908 C204.979256,327.629934 204.081572,327.883524 203.501768,327.847807 C203.14698,327.810899 202.876722,327.662079 202.793383,327.415632 C202.735045,327.239429 202.769572,327.017984 202.896962,326.795349 C203.060069,326.514376 203.393426,326.208402 203.895844,326.046485 C204.022044,326.007197 204.160149,325.975051 204.305398,325.956002 L204.453556,325.945817 L204.608065,325.944361 Z M178.171355,323.949904 C178.483282,323.999908 178.749968,324.098725 178.966651,324.221353 C179.401206,324.465418 179.651224,324.82854 179.742898,325.12499 C179.816713,325.359531 179.802426,325.564307 179.710753,325.721462 C179.582172,325.938144 179.301199,326.03458 178.954745,325.979814 C178.680916,325.948859 178.35113,325.817897 178.021344,325.561926 C177.689177,325.298812 177.364153,324.933309 177.115326,324.383269 C177.0808,324.307073 177.048654,324.230877 177.01889,324.149919 L176.97603,324.033244 L177.097467,324.00348 C177.501068,323.91895 177.861809,323.912997 178.171355,323.949904 Z M202.15167,324.00348 L202.275488,324.033244 L202.232628,324.149919 L202.137383,324.383269 C201.884983,324.933309 201.562341,325.298812 201.230174,325.561926 C200.900388,325.817897 200.570602,325.948859 200.295582,325.979814 C199.95151,326.03458 199.666965,325.938144 199.539575,325.721462 C199.447902,325.564307 199.433615,325.359531 199.506239,325.12499 C199.600294,324.82854 199.850312,324.465418 200.283677,324.221353 C200.50155,324.098725 200.765855,323.999908 201.080163,323.949904 C201.388519,323.912997 201.749259,323.91895 202.15167,324.00348 Z M173.4222,320.950877 C173.960335,320.974688 174.299645,321.591399 174.216306,322.435508 C174.174636,322.853396 174.046055,323.354623 173.787703,323.858231 C173.657932,324.108249 173.510302,324.38565 173.319812,324.649955 C173.12456,324.91426 172.912639,325.198805 172.655478,325.479777 C172.181634,324.93569 171.901852,324.388031 171.783986,323.859421 C171.726839,323.593926 171.705409,323.335574 171.719696,323.086746 C171.732792,322.839109 171.785177,322.606949 171.860182,322.389077 C172.011383,321.95214 172.262592,321.577113 172.55428,321.331857 C172.843587,321.081839 173.150752,320.931828 173.4222,320.950877 Z M205.828127,320.950877 C206.100766,320.931828 206.406741,321.081839 206.696047,321.331857 C206.987735,321.577113 207.237754,321.95214 207.390146,322.389077 C207.466342,322.606949 207.517536,322.839109 207.533013,323.086746 C207.544919,323.335574 207.52587,323.593926 207.466342,323.859421 C207.347285,324.388031 207.067503,324.93569 206.59604,325.479777 C206.337688,325.198805 206.123387,324.91426 205.931706,324.649955 C205.741216,324.38565 205.593586,324.108249 205.465006,323.858231 C205.204272,323.354623 205.075692,322.853396 205.035212,322.435508 C204.951873,321.591399 205.289993,320.974688 205.828127,320.950877 Z M178.207072,319.097171 C178.699965,319.225751 178.888074,319.867465 178.640437,320.64014 C178.579718,320.83182 178.493998,321.033026 178.377322,321.235421 C178.261838,321.44377 178.123732,321.660452 177.952291,321.871182 C177.608219,322.289069 177.158186,322.727196 176.564095,323.139131 C176.239072,322.539087 176.090251,321.969998 176.089061,321.453294 C176.090251,320.943733 176.236691,320.486557 176.465279,320.106768 C176.923645,319.360285 177.71656,318.959065 178.207072,319.097171 Z M202.78743,320.106768 C203.013637,320.486557 203.161267,320.943733 203.161267,321.453294 C203.160076,321.969998 203.012446,322.539087 202.686232,323.139131 C202.092141,322.727196 201.642109,322.289069 201.298036,321.871182 C201.127786,321.660452 200.987299,321.44377 200.874196,321.235421 C200.757521,321.033026 200.670609,320.83182 200.611081,320.64014 C200.363444,319.867465 200.550363,319.225751 201.044446,319.097171 C201.533767,318.959065 202.327873,319.360285 202.78743,320.106768 Z" id="22"></path>
        </g>
    </g>
</svg>
