<?xml version="1.0" encoding="UTF-8"?>
<svg width="60px" height="44px" viewBox="0 0 60 44" version="1.1" xmlns="http://www.w3.org/2000/svg" xmlns:xlink="http://www.w3.org/1999/xlink">
    <title>14</title>
    <g id="页面-1" stroke="none" stroke-width="1" fill="none" fill-rule="evenodd">
        <g id="花环" transform="translate(-319.000000, -246.000000)" fill="#231F20">
            <path d="M338.657723,287.043545 C337.468929,285.661172 335.355263,282.88627 335.04393,280.313767 C335.367685,280.210589 335.622355,279.972692 335.691314,279.664868 C335.796529,279.194846 335.430053,278.741825 334.872798,278.653081 C334.315543,278.564337 333.77857,278.873444 333.673355,279.343466 C333.568141,279.81338 333.93449,280.266402 334.491745,280.355145 C334.570212,280.367655 334.647918,280.371397 334.724357,280.368831 C334.850234,281.625252 335.338149,284.051915 337.189287,286.296065 C336.897222,286.135898 335.558884,285.326674 334.857967,284.861515 C334.390689,284.55141 333.930408,284.208409 333.477124,283.832514 C332.570127,283.131652 331.749836,282.354983 330.966687,281.55415 L330.399163,280.939358 L330.257568,280.785393 L330.255286,280.782613 L330.259469,280.774808 C330.462545,280.394064 330.712398,280.033208 330.985067,279.684862 C333.264034,276.772888 331.273329,273.926562 330.839796,273.520479 C330.020646,272.753326 330.244511,271.042815 330.244511,271.042815 C328.429882,274.587544 329.656198,274.920494 330.033449,277.306099 C330.25123,278.683554 330.179101,279.839041 330.079211,280.570376 C329.028927,279.191468 328.319386,278.213004 327.950586,277.634986 C327.397388,276.767959 326.865992,275.618255 326.809455,275.497008 C326.797159,275.469315 326.784356,275.44173 326.771933,275.414145 C326.692579,274.436786 326.575322,271.487924 327.80316,269.539195 C328.051998,269.588164 328.324034,269.530534 328.516208,269.365556 C328.809667,269.113866 328.805611,268.709172 328.507081,268.461652 C328.208678,268.214131 327.728876,268.217553 327.435417,268.46935 C327.141958,268.721041 327.146014,269.125734 327.444544,269.373254 C327.486503,269.40811 327.532265,269.437407 327.580435,269.462319 C327.035476,270.291807 326.129619,271.997079 326.208847,274.066735 C325.795088,272.960616 325.454219,271.671905 325.18624,270.200604 C325.039509,269.394998 324.976825,268.558949 324.953374,267.73299 L325.191437,267.605113 C325.608872,267.380795 326.052546,267.194753 326.507249,267.029668 C330.306752,265.649969 330.494236,262.349125 330.395867,261.808964 C330.210158,260.788517 331.510125,259.462063 331.510125,259.462063 C327.686917,261.585714 328.495672,262.431668 327.258961,264.600653 C326.4426,266.03253 325.497699,267.047096 324.949571,267.57154 C324.946529,267.403889 324.945008,267.236131 324.947543,267.068374 C324.958698,266.020448 325.048701,264.972415 325.218945,263.931973 C325.402373,262.893243 325.664268,261.864028 326.003362,260.851706 C326.128225,260.472674 326.268172,260.09717 326.420416,259.725194 C327.364049,258.763018 330.002011,256.279581 332.829106,255.464741 C332.996054,255.675588 333.28457,255.810842 333.606931,255.799722 C334.09903,255.782722 334.481731,255.432451 334.461575,255.017386 C334.44142,254.602322 334.02614,254.279636 333.534042,254.29653 C333.041943,254.31353 332.659369,254.663801 332.679397,255.078866 C332.682186,255.137244 332.693722,255.193484 332.711215,255.247479 C331.442813,255.592404 328.831851,256.761577 326.880697,258.685715 C327.489672,257.438714 328.682016,255.53039 329.017307,255.084639 C329.675847,254.187685 330.391938,253.317033 331.196257,252.505615 C331.685947,252.008115 332.199468,251.526652 332.733779,251.061656 C333.32374,250.684762 334.284866,250.146632 335.557071,249.689441 C337.780388,248.890425 338.597764,249.500192 340.875082,246.853594 C340.875082,246.853594 339.49462,247.730233 338.478225,247.558412 C337.940111,247.467423 334.621805,247.474159 333.091635,250.132519 C332.90846,250.450607 332.704877,250.759927 332.463772,251.049253 L332.306711,251.237337 C331.894854,251.591457 331.435587,252.026505 331.048196,252.400191 C330.21713,253.196213 329.47125,254.054248 328.781019,254.941794 C329.025927,253.45635 329.537294,251.600427 330.608071,250.253766 C330.892276,250.336202 331.218947,250.296321 331.467405,250.122789 C331.84681,249.85784 331.899671,249.383649 331.585549,249.063743 C331.271301,248.743731 330.709229,248.699145 330.329823,248.964094 C329.950545,249.229042 329.897684,249.703234 330.211806,250.023246 C330.25592,250.068153 330.305358,250.107179 330.358219,250.141179 C329.609676,251.048184 328.401613,253.251918 328.199298,255.727872 C328.128955,255.828077 327.46712,256.854434 326.855851,257.973316 C326.263102,259.058297 325.72226,260.230196 325.539532,260.734308 C325.459924,260.950501 325.384499,261.167763 325.311863,261.38588 C325.03501,260.813108 324.650027,259.853605 324.45874,258.639205 C324.140435,256.618518 325.055546,256.117169 322.640942,253.558673 C322.640942,253.558673 323.273242,254.915064 322.805228,255.695261 C322.557404,256.108187 321.677788,258.806963 324.305482,260.761466 C324.619984,260.9953 324.919021,261.243569 325.184972,261.516858 L325.247594,261.581117 C325.005474,262.330628 324.803919,263.089762 324.64483,263.856167 C324.478135,264.710995 324.365569,265.573414 324.304849,266.439254 C323.589645,264.230174 322.042995,262.64198 321.162618,261.876538 C321.208126,261.835801 321.249578,261.790574 321.284565,261.740214 C321.533403,261.38171 321.39054,260.920991 320.9655,260.711106 C320.540333,260.501222 319.994106,260.621721 319.745268,260.980225 C319.49643,261.338728 319.639293,261.799555 320.064333,262.009333 C320.342834,262.146832 320.672801,262.1417 320.937612,262.021628 C323.099575,263.968112 324.034587,267.483224 324.270622,268.516181 C324.295088,269.104564 324.33084,269.698999 324.416781,270.278549 C324.690676,272.125568 325.028545,273.536382 325.430388,274.510989 C324.882513,273.93672 324.15121,273.06147 323.501164,271.921379 C322.264452,269.752501 323.073208,268.90644 319.25,266.782896 C319.25,266.782896 320.549967,268.10935 320.364257,269.12969 C320.266015,269.669958 320.453372,272.970802 324.253002,274.350394 C324.707705,274.515479 325.151253,274.701521 325.568814,274.92584 L325.581617,274.932789 C326.431106,277.027151 327.369077,278.755304 328.395529,280.117248 C326.455023,278.844575 324.42312,278.226469 323.250424,277.951684 C323.267664,277.888815 323.277678,277.8237 323.277678,277.756341 C323.277678,277.278086 322.817905,276.890286 322.250762,276.890286 C321.683746,276.890286 321.223972,277.278086 321.223972,277.756341 C321.223972,278.234702 321.683746,278.622502 322.250762,278.622502 C322.622308,278.622502 322.946697,278.455492 323.126956,278.206261 C326.217086,278.979509 329.199594,281.44616 330.500321,282.633831 C331.157974,283.319297 331.849599,283.983593 332.603212,284.597208 C333.356825,285.210824 335.556437,286.739464 335.570255,286.748338 C334.480209,286.513648 333.096705,286.136219 331.591507,285.532333 C328.084323,284.125476 328.084323,282.646341 321.882765,283.151325 C321.882765,283.151325 324.603505,283.619957 325.440402,284.834999 C325.883316,285.478125 329.425488,288.840447 334.848459,287.564247 C335.36908,287.441716 335.896039,287.340249 336.429589,287.271606 C337.187005,287.7103 337.974464,288.112534 338.7746,288.49456 C339.574735,288.876587 342.294704,289.887082 342.299658,289.888694 C342.698965,290.018602 343.147584,289.850844 343.301602,289.514045 C343.455621,289.17714 343.256728,288.798749 342.85742,288.66884 C340.302615,287.735932 338.902716,287.194167 338.657723,287.043545 Z M359.467277,287.043545 C360.656071,285.661172 362.769737,282.88627 363.08107,280.313767 C362.757315,280.210589 362.502645,279.972692 362.433686,279.664868 C362.328471,279.194846 362.694947,278.741825 363.252202,278.653081 C363.809457,278.564337 364.34643,278.873444 364.451645,279.343466 C364.556859,279.81338 364.19051,280.266402 363.633255,280.355145 C363.554788,280.367655 363.477082,280.371397 363.400643,280.368831 C363.274766,281.625252 362.786851,284.051915 360.935713,286.296065 C361.227778,286.135898 362.566116,285.326674 363.267033,284.861515 C363.734311,284.55141 364.194592,284.208409 364.647876,283.832514 C365.554873,283.131652 366.375164,282.354983 367.158313,281.55415 L367.725837,280.939358 L367.867432,280.785393 L367.869714,280.782613 L367.865531,280.774808 C367.662455,280.394064 367.412602,280.033208 367.139933,279.684862 C364.860966,276.772888 366.851671,273.926562 367.285204,273.520479 C368.104354,272.753326 367.880489,271.042815 367.880489,271.042815 C369.695118,274.587544 368.468802,274.920494 368.091551,277.306099 C367.87377,278.683554 367.945899,279.839041 368.045789,280.570376 C369.096073,279.191468 369.805614,278.213004 370.174414,277.634986 C370.727612,276.767959 371.259008,275.618255 371.315545,275.497008 C371.327841,275.469315 371.340644,275.44173 371.353067,275.414145 C371.432421,274.436786 371.549678,271.487924 370.32184,269.539195 C370.073002,269.588164 369.800966,269.530534 369.608792,269.365556 C369.315333,269.113866 369.319389,268.709172 369.617919,268.461652 C369.916322,268.214131 370.396124,268.217553 370.689583,268.46935 C370.983042,268.721041 370.978986,269.125734 370.680456,269.373254 C370.638497,269.40811 370.592735,269.437407 370.544565,269.462319 C371.089524,270.291807 371.995381,271.997079 371.916153,274.066735 C372.329912,272.960616 372.670781,271.671905 372.93876,270.200604 C373.085491,269.394998 373.148175,268.558949 373.171626,267.73299 L372.933563,267.605113 C372.516128,267.380795 372.072454,267.194753 371.617751,267.029668 C367.818248,265.649969 367.630764,262.349125 367.729133,261.808964 C367.914842,260.788517 366.614875,259.462063 366.614875,259.462063 C370.438083,261.585714 369.629328,262.431668 370.866039,264.600653 C371.6824,266.03253 372.627301,267.047096 373.175429,267.57154 C373.178471,267.403889 373.179992,267.236131 373.177457,267.068374 C373.166302,266.020448 373.076299,264.972415 372.906055,263.931973 C372.722627,262.893243 372.460732,261.864028 372.121638,260.851706 C371.996775,260.472674 371.856828,260.09717 371.704584,259.725194 C370.760951,258.763018 368.122989,256.279581 365.295894,255.464741 C365.128946,255.675588 364.84043,255.810842 364.518069,255.799722 C364.02597,255.782722 363.643269,255.432451 363.663425,255.017386 C363.68358,254.602322 364.09886,254.279636 364.590958,254.29653 C365.083057,254.31353 365.465631,254.663801 365.445603,255.078866 C365.442814,255.137244 365.431278,255.193484 365.413785,255.247479 C366.682187,255.592404 369.293149,256.761577 371.244303,258.685715 C370.635328,257.438714 369.442984,255.53039 369.107693,255.084639 C368.449153,254.187685 367.733062,253.317033 366.928743,252.505615 C366.439053,252.008115 365.925532,251.526652 365.391221,251.061656 C364.80126,250.684762 363.840134,250.146632 362.567929,249.689441 C360.344612,248.890425 359.527236,249.500192 357.249918,246.853594 C357.249918,246.853594 358.63038,247.730233 359.646775,247.558412 C360.184889,247.467423 363.503195,247.474159 365.033365,250.132519 C365.21654,250.450607 365.420123,250.759927 365.661228,251.049253 L365.818289,251.237337 C366.230146,251.591457 366.689413,252.026505 367.076804,252.400191 C367.90787,253.196213 368.65375,254.054248 369.343981,254.941794 C369.099073,253.45635 368.587706,251.600427 367.516929,250.253766 C367.232724,250.336202 366.906053,250.296321 366.657595,250.122789 C366.27819,249.85784 366.225329,249.383649 366.539451,249.063743 C366.853699,248.743731 367.415771,248.699145 367.795177,248.964094 C368.174455,249.229042 368.227316,249.703234 367.913194,250.023246 C367.86908,250.068153 367.819642,250.107179 367.766781,250.141179 C368.515324,251.048184 369.723387,253.251918 369.925702,255.727872 C369.996045,255.828077 370.65788,256.854434 371.269149,257.973316 C371.861898,259.058297 372.40274,260.230196 372.585468,260.734308 C372.665076,260.950501 372.740501,261.167763 372.813137,261.38588 C373.08999,260.813108 373.474973,259.853605 373.66626,258.639205 C373.984565,256.618518 373.069454,256.117169 375.484058,253.558673 C375.484058,253.558673 374.851758,254.915064 375.319772,255.695261 C375.567596,256.108187 376.447212,258.806963 373.819518,260.761466 C373.505016,260.9953 373.205979,261.243569 372.940028,261.516858 L372.877406,261.581117 C373.119526,262.330628 373.321081,263.089762 373.48017,263.856167 C373.646865,264.710995 373.759431,265.573414 373.820151,266.439254 C374.535355,264.230174 376.082005,262.64198 376.962382,261.876538 C376.916874,261.835801 376.875422,261.790574 376.840435,261.740214 C376.591597,261.38171 376.73446,260.920991 377.1595,260.711106 C377.584667,260.501222 378.130894,260.621721 378.379732,260.980225 C378.62857,261.338728 378.485707,261.799555 378.060667,262.009333 C377.782166,262.146832 377.452199,262.1417 377.187388,262.021628 C375.025425,263.968112 374.090413,267.483224 373.854378,268.516181 C373.829912,269.104564 373.79416,269.698999 373.708219,270.278549 C373.434324,272.125568 373.096455,273.536382 372.694612,274.510989 C373.242487,273.93672 373.97379,273.06147 374.623836,271.921379 C375.860548,269.752501 375.051792,268.90644 378.875,266.782896 C378.875,266.782896 377.575033,268.10935 377.760743,269.12969 C377.858985,269.669958 377.671628,272.970802 373.871998,274.350394 C373.417295,274.515479 372.973747,274.701521 372.556186,274.92584 L372.543383,274.932789 C371.693894,277.027151 370.755923,278.755304 369.729471,280.117248 C371.669977,278.844575 373.70188,278.226469 374.874576,277.951684 C374.857336,277.888815 374.847322,277.8237 374.847322,277.756341 C374.847322,277.278086 375.307095,276.890286 375.874238,276.890286 C376.441254,276.890286 376.901028,277.278086 376.901028,277.756341 C376.901028,278.234702 376.441254,278.622502 375.874238,278.622502 C375.502692,278.622502 375.178303,278.455492 374.998044,278.206261 C371.907914,278.979509 368.925406,281.44616 367.624679,282.633831 C366.967026,283.319297 366.275401,283.983593 365.521788,284.597208 C364.768175,285.210824 362.568563,286.739464 362.554745,286.748338 C363.644791,286.513648 365.028295,286.136219 366.533493,285.532333 C370.040677,284.125476 370.040677,282.646341 376.242235,283.151325 C376.242235,283.151325 373.521495,283.619957 372.684598,284.834999 C372.241684,285.478125 368.699512,288.840447 363.276541,287.564247 C362.75592,287.441716 362.228961,287.340249 361.695411,287.271606 C360.937995,287.7103 360.150536,288.112534 359.3504,288.49456 C358.550265,288.876587 355.830296,289.887082 355.825342,289.888694 C355.426035,290.018602 354.977416,289.850844 354.823398,289.514045 C354.669379,289.17714 354.868272,288.798749 355.26758,288.66884 C357.822385,287.735932 359.222284,287.194167 359.467277,287.043545 Z" id="14"></path>
        </g>
    </g>
</svg>