<?xml version="1.0" encoding="UTF-8"?>
<svg width="60px" height="60px" viewBox="0 0 60 60" version="1.1" xmlns="http://www.w3.org/2000/svg" xmlns:xlink="http://www.w3.org/1999/xlink">
    <title>7</title>
    <g id="页面-1" stroke="none" stroke-width="1" fill="none" fill-rule="evenodd">
        <g id="花环" transform="translate(-560.000000, -157.000000)" fill="#545458">
            <path d="M615.916876,193.573795 C616.03605,193.023385 616.136466,192.469892 616.219961,191.913637 C616.276541,192.355263 616.321782,192.799972 616.358275,193.245967 C616.193677,193.345265 616.047556,193.451344 615.916876,193.573795 Z M614.245502,178.159304 C614.253267,178.148664 614.259359,178.136796 614.26166,178.123892 C614.395801,178.307876 614.512835,178.501808 614.612978,178.705539 L614.410695,178.402672 C614.397306,178.380099 614.3849,178.357322 614.369416,178.335883 C614.366577,178.33164 614.362192,178.328627 614.358705,178.324833 L614.245502,178.159304 Z M592.639768,214.190787 C592.537512,214.176147 592.435106,214.164478 592.332904,214.160154 L592.324588,214.16114 L592.218514,214.104232 C592.362659,214.11643 592.503261,214.136819 592.642049,214.161014 C592.64045,214.171042 592.639833,214.180867 592.639768,214.190787 Z M613.221527,200.120613 L612.648334,201.437221 C611.879001,203.194671 611.077137,204.951127 610.096034,206.599939 C609.020259,205.89968 607.556876,207.439641 607.002738,208.217056 C606.863412,208.412397 607.031598,208.644293 607.262563,208.584675 C608.003668,208.393424 608.918471,208.021071 609.559101,207.464495 C609.345768,207.791417 609.123937,208.112922 608.892387,208.428422 C607.673085,210.088891 606.181349,211.455627 604.457192,212.495315 C604.291471,212.107372 603.576991,212.009239 603.213929,211.967871 C602.318413,211.865912 601.46207,212.066495 600.679195,212.497265 C600.490277,212.601318 600.591807,212.876876 600.772872,212.915562 C601.822923,213.140221 603.202015,213.194743 604.158392,212.615817 C604.172257,212.627229 604.183973,212.639016 604.195008,212.651435 C603.390208,213.114925 602.536828,213.509043 601.637192,213.828196 C599.572967,214.560674 597.441573,214.903462 595.286608,214.984657 C595.298687,214.914802 595.28243,214.840383 595.222878,214.7869 C594.207101,213.873348 592.744427,213.534966 591.403701,213.626181 C591.202512,213.639831 591.108319,213.91856 591.271169,214.04346 C591.831571,214.473785 592.46763,214.798302 593.14071,214.984657 C591.717059,214.932246 590.289379,214.783989 588.869512,214.576002 C588.398094,213.79108 587.581198,213.297113 586.657404,213.257125 C586.531735,213.251708 586.390266,213.390081 586.493224,213.512222 C586.782922,213.855627 587.118629,214.141651 587.493268,214.354788 C585.603311,214.029463 583.734511,213.618406 581.91663,213.203109 C580.508533,212.881363 579.11583,212.501958 577.774565,211.976357 C579.133272,212.247646 580.528284,212.373252 581.903738,212.52031 L582.247161,212.557618 C585.738408,212.943999 589.249748,213.252741 592.766576,213.169843 C594.304575,213.133632 595.835508,213.010736 597.356418,212.790146 C596.976258,213.142891 596.604435,213.505148 596.227709,213.860929 C596.041247,214.037183 596.285919,214.305088 596.495006,214.238658 C597.443593,213.93797 598.336234,213.348121 598.769403,212.434929 C600.764468,211.849308 602.667477,210.968979 604.41135,209.846339 C604.102155,210.273484 603.904141,210.774544 603.8627,211.311521 C603.846601,211.52066 604.121853,211.707319 604.275057,211.503154 L604.396528,211.339704 C604.748076,210.861276 605.151373,210.257528 605.32646,209.653752 C605.388248,209.59069 605.429397,209.5319 605.486177,209.432171 C605.545171,209.328518 605.505937,209.221608 605.428675,209.154918 C606.987766,208.022927 608.395569,206.686347 609.594565,205.182187 C612.792611,201.170221 614.395497,196.137327 614.877426,191.099035 C614.952064,190.318608 615.003658,189.528355 615.031742,188.731942 C615.06981,188.835837 615.106518,188.937809 615.137254,189.036116 C615.221128,189.305598 615.623689,189.152025 615.549199,188.885116 C615.502243,188.716425 615.465523,188.543943 615.432078,188.370743 L615.327035,187.809258 C615.298072,187.642799 615.198075,187.058063 615.196308,187.057755 C615.300183,187.076051 615.361051,186.912008 615.254953,186.876459 C615.173476,186.849325 615.106391,186.858243 615.052458,186.888944 C615.021065,184.118617 614.698166,181.30478 614.032797,178.588841 C614.082228,178.668294 614.135644,178.744507 614.189028,178.820902 L614.197213,178.833385 C614.435907,179.174082 614.710111,179.487613 615.01368,179.775531 C615.139802,179.895152 615.382825,179.774296 615.352916,179.600237 C615.187021,178.633769 614.6853,177.74387 613.926893,177.109807 C613.824774,177.024354 613.709502,177.052982 613.638211,177.125819 C613.026531,175.054515 612.205256,173.057798 611.152813,171.201432 C611.624517,171.568695 612.166758,171.836567 612.748941,171.917634 C612.921076,171.941646 613.061557,171.747256 612.953699,171.599524 C612.320237,170.732945 611.475751,170.097556 610.454848,169.743427 C610.384256,169.71894 610.319299,169.729729 610.266737,169.758045 C608.848944,167.616296 607.087503,165.70323 604.941865,164.135834 C597.137118,158.433984 586.01642,158.912342 577.635941,163.076453 C573.442176,165.160237 569.885474,168.162574 567.196542,171.79499 C568.677962,169.499028 570.509545,167.42396 572.640417,165.663986 C577.222897,161.879316 582.755358,159.954512 588.696977,159.797355 C595.268131,159.623452 602.015535,160.558558 607.366856,164.602812 C607.899117,165.005182 608.412263,165.431954 608.905925,165.879878 C608.901087,165.992972 608.900796,166.104984 608.905117,166.215552 C608.904024,166.242909 608.906732,166.270179 608.910174,166.297577 C608.953844,167.0366 609.19052,167.724005 609.551798,168.390967 C609.651306,168.57491 609.919989,168.437539 609.910123,168.260416 C609.890296,167.903528 609.826634,167.553617 609.726774,167.210324 C609.675882,167.035044 609.616071,166.863081 609.545806,166.694542 C609.509356,166.607045 609.401616,166.453337 609.357168,166.324717 L609.368551,166.310773 C610.789654,167.676151 612.025686,169.229082 613.018359,170.928109 C613.394423,171.571601 613.726597,172.234052 614.022745,172.910649 C613.477521,173.748461 613.43891,174.871358 613.643609,175.81873 C613.691159,176.038215 614.063538,176.108005 614.0857,175.836208 C614.144836,175.108736 614.196683,174.380742 614.249999,173.653005 C614.264914,173.638364 614.278134,173.621554 614.287531,173.600705 L614.300179,173.573301 C615.114408,175.626508 615.601392,177.800505 615.870805,179.999351 C615.960998,180.735428 616.034581,181.477605 616.09284,182.222919 C616.053557,182.181028 615.984584,182.166568 615.942074,182.223434 C615.376652,182.982391 615.161398,183.895343 615.114144,184.82259 C615.102644,185.050522 615.380582,185.153133 615.503538,184.945569 C615.783168,184.472979 616.015826,183.967651 616.173292,183.441345 C616.293436,185.675822 616.264908,187.928794 616.064106,190.134118 C615.742841,193.660203 614.628679,196.887837 613.221527,200.120613 Z M606.401996,211.811543 C606.376482,211.772052 606.340783,211.73978 606.300321,211.718297 C606.384678,211.650736 606.466455,211.580664 606.549237,211.511329 C606.50142,211.612807 606.452329,211.712939 606.401996,211.811543 Z M597.679071,215.215841 C597.66135,215.210128 597.642938,215.206169 597.623543,215.205598 C597.530337,215.202842 597.436568,215.204298 597.342346,215.208298 C597.455327,215.194638 597.568416,215.182495 597.681322,215.167135 L597.742219,215.157887 L597.679071,215.215841 Z M588.27055,214.950945 C588.263176,214.921175 588.249939,214.892445 588.227134,214.870666 L588.237814,214.869155 C588.258257,214.865973 588.274942,214.858387 588.291811,214.850834 L588.514928,214.88617 L588.27055,214.950945 Z M580.972548,211.319721 C580.961834,211.327786 580.951153,211.335668 580.942319,211.345934 C580.844172,211.280663 580.74758,211.213039 580.65277,211.141791 C580.736654,211.179839 580.81827,211.221053 580.899573,211.262961 L580.972548,211.319721 Z M598.162671,212.748364 C597.959315,212.972645 597.73393,213.173971 597.485137,213.33992 L597.545725,213.283582 C597.756292,213.086794 597.937832,212.887194 598.162671,212.748364 Z M612.11408,175.216269 C612.115424,175.279844 612.116735,175.3436 612.117313,175.407228 C612.066631,175.548123 612.024113,175.694189 611.991076,175.842282 C612.000234,175.716636 612.015342,175.590528 612.040818,175.463604 C612.057499,175.380685 612.084288,175.298403 612.11408,175.216269 Z M569.828482,170.02642 C569.877675,169.874772 569.948389,169.73512 570.046337,169.612585 C570.009945,169.721115 569.96228,169.825993 569.899679,169.925457 C569.876922,169.96178 569.852513,169.994629 569.828482,170.02642 Z M564.989827,178.259647 C565.187757,178.082769 565.40236,177.924913 565.633657,177.787021 C565.421505,177.948115 565.206632,178.105361 564.989827,178.259647 Z M564.292172,194.394143 C564.279683,194.092693 564.284453,193.768766 564.349273,193.48173 C564.327356,193.785053 564.307728,194.089337 564.292172,194.394143 Z M570.897838,204.954543 C570.7666,204.919858 570.612155,204.869883 570.52807,204.789448 L570.775595,204.897606 C570.816795,204.916011 570.857685,204.934862 570.897838,204.954543 Z M570.995569,203.752751 L570.888712,203.631241 C570.910192,203.628614 570.929653,203.62245 570.943703,203.611594 C570.953984,203.610201 570.964125,203.607471 570.974211,203.603982 C570.983203,203.653336 570.990628,203.702979 570.995569,203.752751 Z M576.086584,211.215845 C575.063472,210.44531 574.167599,209.622561 573.430344,208.552552 L573.436349,208.549663 C573.479988,208.553335 573.525852,208.54559 573.568273,208.523189 C573.965245,208.313922 574.270199,207.969991 574.425128,207.550246 L574.4497,207.479288 C574.536244,207.211233 574.57579,206.864231 574.307894,206.691957 C574.026519,206.510976 573.704523,206.744558 573.549319,206.977983 C573.311134,207.33599 573.209472,207.809434 573.2248,208.244619 C572.99058,207.875655 572.779016,207.496398 572.584505,207.109621 C572.604257,207.105006 572.623956,207.096446 572.64237,207.078106 C573.123815,206.600034 573.309159,205.885568 573.24519,205.226398 C573.233991,205.110883 573.075944,205.015306 572.976336,205.103633 C572.522814,205.505805 572.306813,206.075877 572.371393,206.669003 C572.137929,206.168431 571.926507,205.657834 571.725463,205.142112 L571.742753,205.135382 C572.092793,204.917558 572.329502,204.509446 572.448435,204.125965 L572.466222,204.065731 C572.533608,203.825108 572.582802,203.482129 572.303774,203.365213 C572.045566,203.257047 571.804777,203.517153 571.706692,203.723244 C571.588927,203.970691 571.528653,204.269388 571.503928,204.565101 L571.373679,204.220259 C571.381035,204.201302 571.379925,204.179933 571.361611,204.1595 L571.343265,204.139248 L571.306579,204.041403 C571.299496,204.02274 571.2875,204.011467 571.273645,204.005303 L571.271596,203.949761 C571.241719,203.438001 570.896433,202.167373 570.220786,202.576879 C569.917073,202.761016 570.102994,203.047937 570.262866,203.251462 L570.280497,203.273724 C570.502177,203.551675 570.74158,203.816226 571.007832,204.052287 C571.014994,204.144798 571.08945,204.187949 571.159181,204.177993 C571.182321,204.196831 571.204501,204.216814 571.228106,204.235171 C571.30981,204.500901 571.398187,204.773792 571.493053,205.050624 L571.494324,205.087013 L571.442587,205.077806 C571.417366,205.017565 571.387285,204.9591 571.354493,204.902037 C571.351365,204.85483 571.327557,204.810014 571.277517,204.780677 C571.154045,204.605861 570.993141,204.457315 570.79707,204.363728 C570.587426,204.263466 570.285388,204.24398 570.166134,204.48386 C569.917062,204.984639 570.690193,205.188008 571.228857,205.25624 C571.273679,205.305282 571.345677,205.304903 571.399794,205.274234 L571.494869,205.281111 C571.524282,205.282819 571.551288,205.283966 571.575494,205.284625 C571.726114,205.709476 571.894098,206.142039 572.079664,206.572608 C571.925083,206.366321 571.738091,206.186803 571.51359,206.044597 C571.262893,205.885831 570.865495,205.791815 570.727181,206.141747 C570.604357,206.45259 570.855147,206.784902 571.100347,206.951142 C571.469772,207.202005 571.94585,207.314421 572.389483,207.25215 C572.527448,207.537808 572.674981,207.819699 572.831306,208.095814 L572.765795,208.056622 C572.363346,207.822428 571.804015,207.617679 571.73604,208.102391 C571.652628,208.697452 572.779284,208.721833 573.179438,208.674095 C573.689095,209.469618 574.288142,210.190586 574.996144,210.75702 C572.750852,209.670914 570.885749,207.888008 569.314386,205.943988 C568.417017,204.833511 567.614492,203.645495 566.904703,202.404496 C566.924489,202.380585 566.933337,202.350083 566.924711,202.316722 L566.928481,202.304074 C567.006486,201.309477 566.95638,200.324217 566.742063,199.347996 C566.697567,199.145346 566.432699,199.126531 566.374603,199.333409 C566.193088,199.978643 566.164162,200.647105 566.297646,201.286911 C565.742227,200.207749 565.253085,199.095541 564.832789,197.963478 C564.707766,197.626481 564.588985,197.287386 564.475495,196.946216 C564.539046,196.960293 564.615616,196.921545 564.601173,196.843319 L564.552039,196.581768 C564.638282,196.569442 564.713449,196.514146 564.718415,196.409883 C564.779261,195.165493 564.756446,193.920011 564.832961,192.674792 C564.843441,192.504589 564.664751,192.350693 564.502992,192.466976 C563.940647,192.871165 563.931926,193.545211 563.933856,194.182884 C563.935219,194.635873 563.971149,195.098823 564.047479,195.554948 C562.627697,190.543806 562.427705,185.172814 563.642097,180.104238 C563.686459,180.105975 563.730381,180.086835 563.750709,180.038657 C563.843309,179.819804 563.948403,179.611563 564.063399,179.412543 C564.085872,179.411776 564.108518,179.408977 564.132039,179.401272 C565.317652,179.013351 566.287296,178.24222 566.941005,177.190949 C567.051906,177.012766 566.829632,176.846399 566.665245,176.892513 C565.544908,177.205236 564.539025,177.942876 563.950818,178.933607 C564.28954,177.757149 564.707417,176.607046 565.201273,175.491551 C565.844165,174.282292 566.577149,173.121908 567.389351,172.016187 C567.855249,172.00599 568.286077,171.769159 568.685905,171.514722 L569.097847,171.24793 C569.391188,171.06145 569.678159,170.865051 569.963435,170.666482 C569.966522,170.683137 569.97313,170.700217 569.983852,170.716516 C570.27894,171.167677 570.895005,171.297564 571.385699,171.123188 C571.531016,171.071501 571.554402,170.885183 571.445632,170.787139 C571.153411,170.523688 570.782334,170.3861 570.395394,170.363994 C570.612339,170.211045 570.829436,170.058309 571.048164,169.908106 C571.250076,169.769401 571.453565,169.632471 571.657928,169.497004 C572.048364,169.919812 572.647754,170.072091 573.213032,169.94651 C573.35297,169.915436 573.468397,169.719302 573.318375,169.614817 C572.942612,169.353855 572.533921,169.22339 572.08455,169.220196 C572.394166,169.024185 572.708739,168.835409 573.031842,168.661425 C573.262176,168.53742 573.495144,168.429427 573.730108,168.330404 L573.765247,168.376071 C574.051879,168.736161 574.84429,169.467917 575.207616,168.956027 C575.373954,168.721733 575.206692,168.423097 575.008802,168.26754 C574.860735,168.151027 574.676736,168.079972 574.485412,168.040434 C574.730246,167.954 574.977099,167.871103 575.226695,167.786624 C575.245415,167.850416 575.296414,167.904095 575.387222,167.9203 L575.458382,167.930353 C575.977068,167.989479 577.729505,167.950626 577.389076,167.150152 C577.092304,166.452646 575.842981,167.1426 575.421022,167.460136 C575.410827,167.458922 575.401044,167.456466 575.389478,167.457636 C574.952747,167.506681 574.521292,167.621673 574.099228,167.779529 C574.40772,167.478379 574.659262,167.133569 574.844804,166.739587 C574.919126,166.581825 574.763081,166.447431 574.610627,166.486067 C574.026339,166.634382 573.571195,167.178319 573.574975,167.773775 C573.56372,167.809293 573.568209,167.842495 573.579772,167.873182 C573.582297,167.90042 573.58427,167.927562 573.588879,167.954789 C573.590995,167.967338 573.595897,167.977 573.600334,167.987144 C573.039892,168.242684 572.500363,168.560338 571.992507,168.882952 C572.265069,168.475468 572.439558,168.026713 572.508835,167.533194 C572.533894,167.354476 572.345589,167.25025 572.196414,167.336307 C571.583868,167.689768 571.196586,168.466663 571.422906,169.156947 C571.432903,169.187924 571.450795,169.207534 571.471161,169.221766 C571.058061,169.494935 570.653814,169.781078 570.250172,170.068077 C570.306454,169.984939 570.360057,169.899836 570.39459,169.805974 C570.476651,169.583597 570.50949,169.36126 570.511228,169.125443 C570.512408,168.972358 570.324486,168.926479 570.214729,168.989987 C569.701454,169.286732 569.360343,169.894961 569.515441,170.483628 C569.524012,170.51623 569.54711,170.536373 569.57483,170.547577 C569.000993,170.967378 568.270979,171.638799 567.557578,171.786157 C569.568545,169.105399 572.066735,166.765377 574.985421,164.908872 C576.16994,164.155324 577.418204,163.482594 578.712812,162.896789 L578.992248,162.772635 C578.998564,162.791351 579.005495,162.8098 579.015342,162.82782 C579.258099,163.264611 580.006195,163.262351 580.443547,163.272444 C581.131242,163.288325 581.789234,163.131121 582.408448,162.842163 C582.607678,162.749278 582.592886,162.470289 582.370019,162.418693 C581.792453,162.285211 581.093319,162.175323 580.413288,162.187575 C585.142739,160.380827 590.367743,159.723573 595.335002,160.555041 C595.774143,161.678022 596.520952,162.789987 597.762744,163.093235 C597.952837,163.139679 598.111725,162.889844 597.991026,162.738748 C597.411417,162.01386 596.784062,161.332744 596.107416,160.696631 C597.944092,161.063858 599.740113,161.637818 601.455671,162.440054 C603.927209,163.59596 606.007285,165.179661 607.73415,167.061588 C606.935405,168.028171 606.755583,169.310287 607.048012,170.499141 C607.087112,170.657749 607.347561,170.702404 607.439225,170.567342 C608.001241,169.73939 608.482152,168.464039 608.06951,167.481166 C608.044559,167.421534 607.986819,167.386544 607.925805,167.376282 L607.961415,167.313528 C609.78334,169.364006 611.196889,171.753503 612.250671,174.3209 C611.86978,174.521726 611.722677,175.101374 611.63802,175.490081 C611.506357,176.095657 611.563279,176.704126 611.746217,177.29165 C611.802453,177.471985 612.079795,177.47817 612.154712,177.309643 C612.425533,176.699654 612.653745,175.913581 612.595871,175.201128 C613.453869,177.500334 614.033098,179.924471 614.367996,182.364294 C614.346517,182.366921 614.324832,182.374947 614.304916,182.393213 C613.112631,183.490392 612.544947,185.138716 612.498402,186.718978 C612.493322,186.888623 612.72881,186.975588 612.853515,186.88133 C613.918475,186.075656 614.297128,184.823892 614.514173,183.568691 C614.642108,184.795769 614.710345,186.022184 614.720398,187.234146 C614.728433,188.196331 614.700992,189.1632 614.63461,190.128715 C614.078013,190.044368 613.52276,190.754954 613.184932,191.240499 L612.876148,191.692114 C612.585978,192.125072 612.17168,192.842905 612.750864,193.081077 C612.843085,193.119079 612.968842,193.105959 613.03305,193.020831 L614.055648,191.66582 C614.225842,191.439777 614.395773,191.213521 614.565224,190.98689 C614.209202,194.806564 613.221676,198.580798 611.359005,201.950981 C610.480842,203.540119 609.401623,205.006317 608.158627,206.316721 L608.152829,206.304653 C608.254746,206.237343 608.221847,206.055642 608.091266,206.035313 C607.019104,205.868828 605.858895,206.323393 604.976969,206.895621 C604.819638,206.997685 604.863971,207.213986 605.010928,207.296387 C605.404762,207.517586 605.78879,207.378772 606.190776,207.246462 C606.715228,207.073848 607.248372,206.911932 607.766584,206.719116 C605.851182,208.635838 603.574605,210.193884 601.055825,211.277006 C600.29892,211.60249 599.522818,211.881713 598.734344,212.122049 C598.697369,212.110731 598.657865,212.11996 598.626783,212.155206 L598.553422,212.175962 C598.504666,212.156405 598.456201,212.147956 598.407692,212.143997 C598.43149,212.060444 598.416099,211.963126 598.344572,211.892938 C597.463012,211.029207 596.218863,210.747661 595.039775,211.113857 C594.840817,211.175494 594.852683,211.449663 595.020655,211.536289 C595.907543,211.993361 596.868461,212.183929 597.853624,212.248108 L597.971548,212.271477 C597.885831,212.324371 597.803234,212.387367 597.72609,212.453749 C594.396957,212.934043 591.026829,212.961748 587.673201,212.748338 C586.092612,212.647633 584.515505,212.497687 582.940775,212.330166 C582.937615,212.28314 582.909963,212.23653 582.851196,212.218977 C582.792061,212.201359 582.733672,212.182747 582.675467,212.164168 C582.682987,212.122002 582.673002,212.07716 582.636375,212.036294 C582.086055,211.419955 581.375838,210.97738 580.606224,210.683175 C580.563171,210.657117 580.520398,210.630546 580.476383,210.605632 C580.448555,210.589724 580.419311,210.593434 580.394785,210.606773 C580.204111,210.541301 580.010564,210.48451 579.81531,210.436228 C579.60862,210.385204 579.526512,210.653485 579.652764,210.77875 C580.297779,211.418157 581.068044,211.926295 581.923294,212.223248 L581.019825,212.130167 C579.81417,212.00389 578.606881,211.860824 577.427807,211.603703 C576.966846,211.503104 576.52037,211.372236 576.086584,211.215845 Z M568.408487,206.737663 C567.799592,206.128165 567.244783,205.472252 566.735873,204.782926 C567.257104,205.238655 567.909094,205.532219 568.620374,205.565517 L568.625039,205.564831 C569.765116,207.060369 571.068066,208.419579 572.539468,209.576158 C572.853764,209.823031 573.176539,210.055267 573.508051,210.27141 C571.61937,209.38596 569.88756,208.218464 568.408487,206.737663 Z M566.231846,204.067279 C565.455172,202.909443 564.79737,201.670948 564.235985,200.398102 C563.494552,198.716826 562.929388,196.965272 562.534377,195.176667 C562.573169,195.158694 562.60058,195.122807 562.589473,195.070461 L562.571393,194.975485 C562.675695,194.927704 562.720099,194.827317 562.688921,194.717689 L562.675761,194.671544 C562.666574,194.639209 562.637678,194.606999 562.604322,194.586005 C562.60858,194.425211 562.668455,194.136189 562.675189,194.06128 C562.688626,193.911644 562.697775,193.761635 562.704074,193.611691 C562.720848,193.216209 562.713086,192.822447 562.679494,192.428117 C562.659698,192.197353 562.342301,192.206673 562.287186,192.412758 C562.227706,192.635886 562.182318,192.862782 562.15273,193.091307 C561.862426,191.077528 561.784327,189.032906 561.921107,187.000819 C562.101465,184.322127 562.655056,181.713748 563.542444,179.240769 C562.285355,183.934228 562.239614,188.94137 563.2825,193.678797 C564.123784,197.500313 565.678872,201.372807 567.977454,204.675551 C567.539919,204.302438 567.014997,204.059511 566.423377,203.968741 C566.341575,203.956167 566.268213,204.002408 566.231846,204.067279 Z M575.320722,212.678391 C575.312029,212.67725 575.304081,212.6783 575.295765,212.679287 C575.256848,212.647017 575.216732,212.615099 575.179349,212.582721 L575.165354,212.572036 C575.208827,212.507295 575.236375,212.547012 575.288947,212.592377 L575.303936,212.604816 C575.337789,212.631518 575.369525,212.6616 575.400645,212.691949 C575.374792,212.687255 575.349339,212.682443 575.320722,212.678391 Z M562.442651,178.195447 C562.473704,178.374765 562.481838,178.588129 562.483712,178.767607 C562.461375,178.577628 562.447904,178.386758 562.442651,178.195447 Z M564.63994,174.248136 C564.695152,174.161439 564.761303,174.087706 564.847949,174.033849 C564.783824,174.160969 564.703609,174.275352 564.607931,174.375608 L564.63994,174.248136 Z M617.846255,177.295911 C617.975059,177.382455 618.094002,177.483959 618.201842,177.598894 C618.129479,177.580094 618.058812,177.557093 617.990208,177.529954 C617.982695,177.495663 617.96611,177.461289 617.931869,177.430396 C617.898233,177.400357 617.86168,177.373934 617.825473,177.346633 C617.834276,177.330178 617.841761,177.31368 617.846255,177.295911 Z M617.191935,180.221795 C617.231022,180.047209 617.302051,179.881377 617.399019,179.730374 C617.35138,179.905156 617.281786,180.06824 617.191935,180.221795 Z M617.121594,202.552491 C616.880477,202.016291 616.622383,201.486127 616.365013,200.957213 C616.332589,200.890656 616.26012,200.848039 616.185402,200.835013 C616.292555,200.42418 616.3785,200.00384 616.449995,199.58173 C616.542193,199.754654 616.67449,199.907584 616.842276,200.022849 C616.934009,200.085878 617.108241,200.089642 617.151211,199.95696 C617.311233,199.464081 617.11883,198.939184 616.648703,198.693629 C616.631231,198.684399 616.61243,198.679435 616.593208,198.676833 L616.594548,198.658702 C616.596796,198.641853 616.594713,198.625936 616.590136,198.611271 C616.648019,198.129632 616.691269,197.652564 616.725295,197.191128 C616.740616,196.983164 616.751671,196.775769 616.760394,196.568717 C616.813622,196.692683 616.872693,196.81467 616.956388,196.9164 C616.976774,196.94113 617.00295,196.95675 617.030487,196.967922 C617.173658,197.238184 617.370871,197.482448 617.596673,197.67679 C617.73123,197.792634 617.942082,197.677039 617.927778,197.5057 C617.880529,196.933211 617.528232,196.433474 617.050022,196.127104 C617.021411,196.056153 616.950669,196.028266 616.89003,196.042431 C616.84961,196.035572 616.809199,196.043519 616.773107,196.061214 C616.782939,195.405352 616.757641,194.753298 616.699957,194.103469 C616.868193,194.380724 617.057088,194.648275 617.230119,194.91456 C617.293415,195.011797 617.456793,195.022289 617.528475,194.928157 C617.998518,194.311297 617.395572,193.710894 616.88907,193.385913 C616.790718,193.322855 616.687736,193.342006 616.625852,193.402429 C616.556948,192.860083 616.464524,192.319072 616.347305,191.778049 C616.336424,191.727616 616.285994,191.710017 616.247937,191.721747 C616.476082,190.12517 616.56723,188.509208 616.583142,186.892685 L616.602127,186.897681 C616.594381,186.92519 616.592391,186.956513 616.598727,186.992099 C616.786268,188.030365 617.192863,189.007874 617.836943,189.851005 C617.956334,190.007307 618.24525,189.926308 618.21529,189.713262 C618.123004,189.056851 617.946088,188.430252 617.644258,187.840154 L617.47251,187.518054 C617.277901,187.159188 616.930531,186.575096 616.609439,186.646532 C616.60176,186.648192 616.593855,186.651124 616.585917,186.654238 C616.589126,186.033389 616.582282,185.412662 616.566722,184.793039 C616.484287,181.481044 616.189826,178.134148 615.190483,174.956896 C614.984419,174.301626 614.744089,173.659122 614.474547,173.029702 C615.337786,174.195696 616.090392,175.442847 616.702767,176.754566 C616.473116,176.842897 616.418575,177.144468 616.359452,177.36241 C616.272512,177.683257 616.253811,178.012064 616.27457,178.342503 C616.285731,178.521913 616.535204,178.598386 616.648489,178.458848 C616.885447,178.167153 617.008176,177.834556 617.027754,177.484913 L617.045925,177.52631 C617.274287,178.075653 617.467951,178.628504 617.636875,179.185288 C617.026148,179.493528 616.687828,180.158275 616.771826,180.850546 C616.794639,181.038921 617.007388,181.078259 617.13337,180.963047 C617.427853,180.693749 617.638163,180.359366 617.764599,179.992185 C617.783867,179.967996 617.799204,179.93825 617.807501,179.901281 L617.820887,179.832591 C617.974388,180.408986 618.104216,180.989687 618.214282,181.576125 C617.85158,181.743955 617.548056,182.028918 617.318471,182.350383 L617.257839,182.436779 C617.099139,182.668719 616.929154,182.979528 617.14955,183.216879 C617.362843,183.446332 617.717616,183.315536 617.920331,183.141554 C618.107407,182.980961 618.256854,182.75965 618.376831,182.527393 C618.447038,182.97964 618.50946,183.435215 618.566049,183.894833 C618.54513,183.899619 618.524233,183.908531 618.505322,183.927535 L618.493,183.940378 C618.422978,183.939228 618.354293,183.974103 618.316413,184.059136 L618.229063,184.254917 L618.150407,184.361411 C617.654258,185.050606 617.060978,186.210718 617.970531,186.436872 C618.051955,186.456876 618.163622,186.401759 618.193813,186.322694 C618.40236,185.775309 618.556005,185.219477 618.650322,184.647118 C618.752053,185.091369 619.081973,185.487323 619.519677,185.656765 C619.641843,185.70411 619.823815,185.620959 619.793095,185.467373 C619.674013,184.868869 619.36242,184.337248 618.876873,183.959513 C618.873853,183.920196 618.846264,183.88915 618.812032,183.876249 C618.807073,183.421134 618.778896,182.964596 618.731378,182.508246 C618.972606,182.890987 619.314746,183.208866 619.727867,183.432303 C619.889975,183.519968 620.033436,183.340715 619.993136,183.192017 C619.848919,182.656969 619.360039,181.871252 618.749747,181.784348 C618.724834,181.780755 618.702534,181.782676 618.681648,181.787281 C618.654969,181.722475 618.630418,181.656354 618.608545,181.589014 C618.509787,180.986931 618.374593,180.387492 618.209798,179.793761 C618.314174,179.886729 618.430797,179.965153 618.517973,180.020828 C618.848914,180.232749 619.21615,180.323943 619.606774,180.336009 C619.793706,180.341799 619.811719,180.102823 619.713726,179.999537 C619.297547,179.56081 618.633648,179.117502 618.003749,179.102326 C617.844593,178.606463 617.663256,178.116102 617.462814,177.633093 C617.800286,177.873138 618.204774,178.022922 618.621313,178.061619 C618.805285,178.078699 618.915473,177.901329 618.825077,177.744835 C618.445947,177.088815 617.784423,176.656603 617.032071,176.544746 C617.011596,176.541739 616.991056,176.542281 616.971348,176.545591 C616.197303,174.959074 615.215486,173.477259 614.09146,172.187845 C613.698003,171.372289 613.24908,170.584355 612.753502,169.82558 C613.534148,170.536605 614.532591,170.994384 615.592992,171.169501 C615.761045,171.197298 615.924842,170.987859 615.802664,170.844002 C614.960057,169.851012 613.546909,168.771115 612.16902,168.775646 L612.153512,168.778751 L612.144842,168.768994 C612.101196,168.718659 612.041013,168.717537 611.996702,168.742045 C611.596126,168.205218 611.172189,167.684746 610.720918,167.185931 C609.184987,165.487957 607.38532,164.023789 605.404158,162.861922 C606.103492,163.039682 606.833007,163.107642 607.554226,163.089452 C607.725133,163.085328 607.822932,162.820345 607.671105,162.721729 C606.606431,162.030338 605.308888,161.670334 604.039356,161.922754 C603.958718,161.93868 603.905831,161.987928 603.879789,162.046916 C600.85448,160.57634 597.531965,159.876438 594.18709,159.601214 C592.312976,159.447089 590.402052,159.368815 588.50079,159.434834 C589.010858,159.256902 589.485492,158.978344 589.892498,158.625781 L590.009232,158.523495 C590.407909,158.168787 590.878493,157.679218 590.708741,157.135476 C590.673751,157.023872 590.539415,156.976841 590.434725,157.010874 C589.19815,157.413897 588.112701,158.255914 587.496456,159.400669 C587.481195,159.428929 587.480706,159.457141 587.486578,159.483651 C586.187775,159.565871 584.897205,159.721862 583.630233,159.975853 C580.915109,160.520086 578.310504,161.541023 575.929816,162.940933 C575.536028,163.17268 575.148967,163.415533 574.767704,163.667267 C575.089253,163.219272 575.390498,162.757551 575.665953,162.280143 L575.782411,162.074573 C575.927055,161.814384 576.360161,161.242244 575.826362,161.121264 C575.397417,161.024022 575.10981,161.587252 574.926126,161.885607 L574.907493,161.915488 C574.500137,162.559767 574.167161,163.251869 573.957193,163.983405 C573.933114,164.067471 573.99367,164.128063 574.065947,164.146285 C570.081758,166.962222 566.869932,170.862533 564.919941,175.306082 C564.838672,175.491117 564.759692,175.677113 564.682818,175.864039 C564.456267,176.311776 564.241789,176.766115 564.03893,177.226415 C564.158117,176.4159 564.310477,175.619977 564.495082,174.83642 C564.911796,174.614104 565.240068,174.229638 565.36877,173.7744 C565.406384,173.640972 565.269709,173.538063 565.151221,173.541207 C565.040152,173.544144 564.925161,173.569073 564.813873,173.610388 C564.850332,173.482381 564.887157,173.354437 564.925387,173.227113 C565.492321,173.186711 565.929184,172.742094 566.293226,172.332194 C566.427061,172.181434 566.284141,171.995732 566.113084,171.990085 C565.803875,171.980031 565.494894,172.069525 565.245398,172.23835 C565.360439,171.90535 565.47982,171.573481 565.608704,171.24458 C565.629859,171.250142 565.652645,171.251866 565.677116,171.247324 C565.769871,171.230325 565.852443,171.201431 565.931485,171.166862 C566.512268,171.202709 567.091997,170.93985 567.44895,170.458252 C567.522706,170.358859 567.494877,170.238946 567.388198,170.177997 C566.842851,169.867044 566.4994,170.312205 566.11433,170.624554 C566.007415,170.670005 565.902476,170.720298 565.798918,170.773455 C566.003724,170.279951 566.224426,169.790716 566.46219,169.305581 C566.510371,169.359143 566.585519,169.390983 566.658177,169.363547 L566.85152,169.289874 C566.890321,169.296263 566.927772,169.299607 566.960331,169.298536 C567.366551,169.285774 568.012144,169.146085 568.262887,168.788768 C568.49014,168.464461 568.141326,168.142608 567.804411,168.195561 C567.566579,168.233181 567.326857,168.405585 567.131273,168.536398 C566.976103,168.64015 566.829927,168.755027 566.689085,168.876081 L566.68253,168.869316 C566.91392,168.418862 567.158397,167.97144 567.419851,167.527539 C567.487483,167.553759 567.588556,167.503916 567.580616,167.415767 C567.577487,167.381303 567.576259,167.346795 567.575031,167.312287 C567.603173,167.321128 567.635408,167.321876 567.669891,167.30896 C568.451004,167.018617 569.113326,166.024129 568.750312,165.217253 C568.712447,165.133445 568.604387,165.060074 568.508854,165.107509 C567.684371,165.517909 567.207506,166.348149 567.324586,167.238081 C567.319358,167.242979 567.313505,167.246081 567.30912,167.252625 C567.029602,167.666205 566.764608,168.09281 566.513156,168.52946 L566.52218,168.195475 L566.529861,167.775096 C566.530017,167.616152 566.516385,167.456599 566.402367,167.332544 C566.153861,167.061721 565.754556,167.284074 565.674702,167.585355 C565.617123,167.802067 565.689964,168.027274 565.73541,168.239459 C565.776688,168.432553 565.799648,168.659371 565.904632,168.831713 C565.976338,168.949718 566.082302,169.036965 566.214653,169.064349 C565.917953,169.615668 565.645311,170.182799 565.396189,170.76134 C565.434584,170.111957 565.207684,169.509836 564.731172,169.053845 C564.619238,168.947004 564.434556,169.031556 564.40747,169.169631 C564.255425,169.94256 564.568798,170.723166 565.227752,171.161302 C565.009638,171.696525 564.812916,172.241287 564.638321,172.79253 C564.499027,172.74782 564.371662,172.639414 564.268073,172.440142 C564.104852,172.126282 564.08619,171.772409 563.700015,171.646244 C563.567266,171.60305 563.376385,171.678839 563.407126,171.849294 C563.523547,172.491373 563.881057,173.025564 564.480445,173.313705 C564.41778,173.53028 564.36004,173.747902 564.304837,173.966153 C564.148373,174.155694 564.066387,174.392513 564.129453,174.642814 C564.131666,174.651632 564.136719,174.658323 564.140261,174.666061 L564.132709,174.698851 L564.114156,174.706298 C563.917809,174.202452 563.519857,173.77721 563.057227,173.501291 C562.926198,173.422979 562.752634,173.558755 562.771682,173.69925 C562.866478,174.399962 563.345881,175.009561 564.026648,175.215004 C563.848271,176.152562 563.735163,177.097751 563.696817,178.038732 C563.436728,178.683011 563.201044,179.33904 562.987886,180.004618 L562.948586,179.477291 C562.91554,179.037338 562.87852,178.597156 562.813278,178.164674 C562.766179,177.851381 562.663109,177.535639 562.308611,177.489768 C562.1952,177.475056 562.096295,177.560508 562.104859,177.675938 C562.167794,178.536192 562.268507,179.375672 562.557515,180.187824 L562.573044,180.422341 C562.581381,180.545415 562.691612,180.61298 562.800132,180.616907 C562.48938,181.668375 562.235991,182.743148 562.047675,183.839385 C561.90233,184.686192 561.794412,185.55133 561.722185,186.427562 C561.655241,186.194763 561.559733,185.965043 561.4532,185.724968 C561.130599,184.998222 560.801043,184.274387 560.474749,183.549246 C560.388946,183.358509 560.055665,183.346508 560.030201,183.589058 C559.866487,185.150205 560.363623,186.837429 561.637706,187.842673 C561.527854,190.901891 561.870409,194.055533 562.711617,197.042182 C562.706888,197.033674 562.702893,197.025294 562.696814,197.016926 L562.667685,196.974353 C562.404088,196.57621 561.179988,194.512395 560.743361,195.397206 C560.551555,195.785974 561.038605,196.147855 561.281771,196.353094 C561.800661,196.791174 562.310419,197.292127 562.892145,197.647463 C563.392774,199.277952 564.041939,200.853567 564.855658,202.328003 C564.15153,201.675106 563.305849,201.241709 562.347416,201.031898 C562.142291,200.986956 562.049917,201.217279 562.130583,201.368891 C562.678858,202.401082 563.643509,203.109891 564.778935,203.250676 C564.976478,203.296732 565.178591,203.32672 565.384799,203.335871 C565.405479,203.336665 565.424389,203.33359 565.441549,203.327586 C566.871747,205.624788 568.724712,207.634953 571.032599,209.177788 C570.071782,208.932517 569.04009,208.821436 568.075127,208.697063 C567.903067,208.674751 567.740864,208.921947 567.915303,209.033875 C568.940866,209.6909 570.147647,209.761669 571.339537,209.7026 C571.379246,209.700715 571.407768,209.679826 571.426798,209.651661 L571.517607,209.661495 C571.580997,209.666924 571.636907,209.634694 571.67352,209.588606 C572.597354,210.14844 573.566379,210.611959 574.584819,210.986272 C574.634385,211.00447 574.678328,210.989456 574.708794,210.960849 C575.292243,211.252395 575.900253,211.495378 576.535482,211.681264 C576.523414,211.746811 576.546788,211.817411 576.625434,211.855109 C578.62954,212.816151 580.812597,213.421228 583.020829,213.889397 C582.333839,213.952345 581.646322,213.993837 580.957004,214.012529 C580.945634,213.990308 580.930701,213.968965 580.909396,213.950446 L580.792425,213.850379 C580.405044,213.526449 579.919135,213.207722 579.413777,213.463525 C579.310133,213.516105 579.247315,213.638018 579.325329,213.744005 C579.362052,213.793883 579.401659,213.840329 579.442907,213.884999 C579.44435,213.928914 579.458482,213.972792 579.484656,214.010712 C579.117153,213.997429 578.752762,213.97307 578.391212,213.937026 C578.39171,213.914063 578.38857,213.890278 578.380289,213.865597 C578.142232,213.165771 577.649088,212.604562 576.986735,212.267215 C576.885724,212.215874 576.736205,212.283694 576.724737,212.401067 C576.661914,213.047316 577.052951,213.512392 577.55482,213.837878 C577.172429,213.78602 576.791118,213.727041 576.409106,213.664567 C576.407163,213.653172 576.406689,213.642033 576.402727,213.630286 C576.254527,213.199298 576.029465,212.808693 575.703934,212.484715 L575.660974,212.443098 C575.46348,212.256925 575.12474,212.008896 574.880784,212.243393 C574.61964,212.494516 574.904962,212.985577 575.080373,213.2088 C575.162631,213.313278 575.2607,213.408707 575.368942,213.491667 L575.24009,213.470141 C575.235254,213.444186 575.223561,213.417412 575.20163,213.390726 C574.689237,212.769755 573.828762,212.565776 573.081233,212.866284 C572.965419,212.912807 572.900673,213.100723 573.02519,213.180523 C573.596818,213.546842 574.243246,213.725123 574.896495,213.592391 L574.902261,213.598269 C574.960916,213.662089 575.040429,213.673702 575.108022,213.653441 C575.250015,213.701057 575.39379,213.745049 575.53831,213.788046 C575.457207,213.81401 575.381729,213.844515 575.319384,213.873562 C574.977362,214.032629 574.712641,214.304867 574.564004,214.64794 C574.49992,214.796055 574.610825,214.93626 574.766418,214.934151 C575.450066,214.924966 576.111347,214.583749 576.515076,214.038346 C576.928447,214.128774 577.349043,214.200973 577.774058,214.256889 C577.358364,214.544597 577.069027,214.997317 576.961769,215.491524 C576.935138,215.614311 577.053916,215.751766 577.184047,215.730039 C577.759464,215.633586 578.257242,215.215704 578.439612,214.675 C578.458351,214.645284 578.468893,214.613766 578.468497,214.582027 C578.489379,214.502088 578.504029,214.419939 578.510484,214.335986 C579.085315,214.385037 579.664933,214.401942 580.242901,214.393073 C580.127713,214.454135 580.019013,214.528696 579.92001,214.617878 C579.702315,214.813236 579.480462,215.1338 579.642087,215.432203 C580.007403,216.10624 581.132312,214.666185 581.329521,214.342637 C582.110668,214.282423 582.881009,214.173477 583.622943,214.013666 C584.54046,214.198167 585.459761,214.363115 586.370132,214.522946 C585.74805,214.646495 585.136619,214.85042 584.607769,215.056186 C584.487787,215.102732 584.41635,215.241132 584.464686,215.363871 C584.7015,215.964535 585.390868,215.874454 585.933182,215.816081 C586.882107,215.714093 587.871022,215.486587 588.728043,215.064619 C588.790497,215.033905 588.807359,214.976503 588.793854,214.928049 C591.436442,215.323334 594.12421,215.525793 596.784805,215.269264 C595.693238,215.453576 594.585558,216.006313 593.697716,216.546964 C593.527621,216.65055 593.592627,216.944102 593.791836,216.967025 C595.411618,217.153644 597.173047,216.546032 598.141425,215.198248 C598.166871,215.162768 598.174541,215.127188 598.172352,215.093825 C600.880835,214.662183 603.535627,213.728141 605.764574,212.123001 C605.362131,212.649514 604.963154,213.17888 604.564242,213.707883 C604.338363,214.007506 603.851471,214.412106 604.023367,214.820615 C604.080558,214.956328 604.259956,215.030892 604.388096,214.933297 C605.588821,214.018052 606.561751,212.738149 606.925704,211.264193 C606.932467,211.236888 606.92721,211.213297 606.916866,211.192754 C608.871076,209.436275 610.304415,207.177469 611.47908,204.84602 C611.727622,204.352457 611.97394,203.854383 612.217105,203.352761 C611.988888,204.192991 611.97439,205.089407 612.139539,205.952863 C612.17367,206.130844 612.464436,206.23794 612.539747,206.022632 C612.987322,204.743156 613.154556,203.428674 613.04823,202.081494 L613.060177,202.05378 C613.087007,201.992494 613.051883,201.929402 613.001605,201.899274 C612.982407,201.875313 612.957884,201.856796 612.930585,201.843229 C613.894127,199.749887 614.768172,197.600089 615.435275,195.42827 C615.472748,195.306248 615.508385,195.183907 615.543655,195.061501 C615.713546,195.070505 615.896959,194.933635 616.001895,194.804822 C616.180931,194.585297 616.315499,194.333845 616.415037,194.069727 C616.447928,194.70043 616.459167,195.332605 616.445785,195.962737 C615.862297,196.101259 615.378602,196.631223 615.110566,197.134318 C615.036051,197.274056 615.165052,197.447587 615.319632,197.429935 C615.775142,197.378542 616.161091,197.133434 616.412774,196.780404 C616.403667,196.941851 616.394894,197.103545 616.382482,197.264416 C616.347647,197.711282 616.289574,198.149411 616.216803,198.582917 L616.200486,198.581009 C615.595289,198.632168 615.04443,198.970897 614.679097,199.444288 C614.597371,199.550162 614.628266,199.688974 614.745894,199.752207 C615.161251,199.975846 615.734209,199.835863 616.045189,199.486798 C615.965274,199.870148 615.878512,200.251554 615.79012,200.633614 C615.253103,200.869251 614.829435,201.324789 614.639861,201.881478 C614.58825,202.032892 614.715099,202.238655 614.896574,202.159353 C615.09076,202.074583 615.330588,201.935555 615.532514,201.760685 C615.492509,201.941483 615.453324,202.122985 615.41603,202.305567 C615.405889,202.305111 615.394842,202.306558 615.38334,202.31055 C614.859515,202.48496 614.531801,203.017005 614.467985,203.54146 C614.455092,203.647715 614.518345,203.746256 614.62777,203.767394 C615.341405,203.905295 615.579248,203.134206 615.614232,202.58992 C615.616568,202.554535 615.610469,202.522926 615.599219,202.494729 L615.601455,202.491746 C615.745391,202.184583 615.870398,201.863627 615.979768,201.533761 C616.025936,202.116556 616.240269,202.677695 616.89615,202.819958 C617.041028,202.851399 617.183547,202.690159 617.121594,202.552491 Z" id="7"></path>
        </g>
    </g>
</svg>
