<?xml version="1.0" encoding="UTF-8"?>
<svg width="60px" height="60px" viewBox="0 0 60 60" version="1.1" xmlns="http://www.w3.org/2000/svg" xmlns:xlink="http://www.w3.org/1999/xlink">
    <title>8</title>
    <g id="页面-1" stroke="none" stroke-width="1" fill="none" fill-rule="evenodd">
        <g id="花环" transform="translate(-640.000000, -159.000000)" fill="#545458">
            <path d="M698.415981,199.757658 C698.409152,199.760173 698.402683,199.760532 698.395494,199.764483 C697.677582,200.156187 697.179626,200.795199 696.901806,201.558313 C696.855083,201.686546 696.976023,201.824478 697.103432,201.822861 C697.500036,201.817473 697.783427,201.560109 697.958637,201.218153 C698.053161,201.033706 698.107251,200.834172 698.183805,200.64236 C698.235559,200.51305 698.316425,200.402596 698.375188,200.283343 C698.310495,200.950372 698.203033,201.614527 698.067537,202.283891 C698.00518,202.07412 697.652244,202.098725 697.640204,202.353216 C697.640024,202.382131 697.637329,202.410328 697.636251,202.439064 C697.595458,202.465465 697.560416,202.492584 697.537414,202.517369 C697.210355,202.869741 697.053115,203.346754 697.054553,203.821792 C697.0382,203.80922 697.022386,203.79611 697.004595,203.784795 C696.652019,203.557962 696.061516,203.855916 696.342211,204.282642 C696.399896,204.370466 696.573848,204.348016 696.560191,204.223734 L696.640367,204.208547 C697.186664,204.113574 697.124537,204.316734 696.453986,204.818025 C696.295489,204.769893 696.157836,204.687277 696.04103,204.56982 C695.833653,204.376213 695.68414,204.115975 695.596265,203.847834 C695.435971,203.359147 695.477482,202.84316 695.674616,202.374408 C695.696899,202.321606 695.644246,202.282454 695.596445,202.285507 C696.369346,199.553814 697.036942,196.73322 697.380534,193.933998 L697.652424,194.783678 L697.640563,194.79194 C697.627086,194.805051 697.614327,194.819957 697.602107,194.835942 C697.543704,194.853722 697.493567,194.894491 697.481347,194.956811 C697.475057,194.989678 697.472901,195.022365 697.469846,195.055052 C697.399762,195.18095 697.339022,195.313314 697.294276,195.44963 C697.188072,195.773446 697.19544,196.082535 697.334709,196.393779 C697.415216,196.573557 697.653861,196.489505 697.710468,196.344748 C697.796545,196.12492 697.87256,195.851751 697.897359,195.580916 C698.009134,195.962204 698.111924,196.345467 698.196384,196.735195 C698.152177,196.747408 698.111384,196.774348 698.083171,196.819607 L698.044535,196.884981 C697.887475,196.951073 697.724844,197.084155 697.637868,197.156534 C697.261031,197.470112 697.020769,197.915337 696.913307,198.389118 C696.867482,198.590627 697.09247,198.702697 697.242342,198.58057 C697.651166,198.246876 698.051903,197.792133 698.305104,197.302368 C698.338169,197.503697 698.367101,197.706284 698.387408,197.912284 C698.449046,198.53567 698.452101,199.14864 698.415981,199.757658 Z M695.317906,182.33032 C695.354386,182.296735 695.379724,182.25435 695.387631,182.20963 C695.455738,182.265664 695.500484,182.326907 695.485029,182.386714 C695.476583,182.419041 695.406859,182.387073 695.317906,182.33032 Z M694.158823,205.610054 L694.145346,205.610234 C694.074723,205.508222 693.934015,205.45991 693.831046,205.560485 C693.757547,205.548452 693.684049,205.548632 693.627083,205.56264 C693.146558,205.680457 692.749595,206.117241 692.552101,206.549355 C692.462789,206.744937 692.644289,206.935671 692.84304,206.840304 C693.204782,206.666812 693.532739,206.443032 693.826014,206.17579 C693.838234,206.232722 693.851711,206.289116 693.866447,206.345151 C693.7137,206.709556 693.551608,207.07019 693.378015,207.425975 C692.694246,208.826304 691.822509,210.082775 690.779334,211.177967 C690.723626,211.161444 690.660371,211.162701 690.599811,211.190179 C690.575192,211.201314 690.550034,211.209037 690.525235,211.219095 C690.039858,210.938741 689.388256,210.960293 688.874126,211.132708 C688.706464,211.188922 688.652732,211.432098 688.822731,211.52513 C689.253658,211.760943 689.722143,211.835836 690.18326,211.768846 C689.351057,212.546866 688.423611,213.232034 687.404517,213.813215 C686.97988,214.055314 686.548234,214.277657 686.110658,214.482579 C686.129347,214.364942 686.061779,214.235272 685.905078,214.23617 C685.836611,214.236349 685.769582,214.234374 685.703272,214.230961 C685.300918,213.862605 684.707539,213.689472 684.178674,213.743351 C683.973094,213.764364 683.906784,214.001075 684.075704,214.123202 C684.543111,214.460668 685.116183,214.658406 685.694107,214.671157 C683.86707,215.472885 681.939219,215.97576 679.964466,216.278025 C679.93805,216.237615 679.898515,216.20403 679.841729,216.18625 L679.775239,216.162543 C679.384565,215.67637 678.787233,215.402841 678.152524,215.393682 C677.92502,215.390449 677.875242,215.680501 678.043264,215.796701 C678.386317,216.03431 678.748418,216.231688 679.127411,216.394764 C676.875017,216.675656 674.572306,216.716784 672.298708,216.662186 C672.294395,216.618723 672.263845,216.579032 672.208856,216.581366 C672.12835,216.584958 672.048023,216.581187 671.968055,216.574003 C671.790329,216.107047 671.135312,215.871054 670.68318,215.864589 C670.552537,215.862793 670.430159,216.031975 670.519831,216.148893 C670.670961,216.345913 670.854437,216.507731 671.058759,216.623931 C670.22422,216.592681 669.395431,216.552092 668.576705,216.508988 L668.343451,216.495339 C668.613365,216.417932 668.860636,216.261322 669.048784,216.02497 C669.10557,215.95349 669.115095,215.878059 669.095148,215.81502 L669.102156,215.814481 L669.114735,215.81484 C669.122822,215.815379 669.129111,215.813224 669.1363,215.812326 L669.17835,215.809632 L669.208001,215.814301 C669.229206,215.816636 669.246098,215.811787 669.261013,215.804244 C671.092184,215.684452 672.924073,215.53754 674.746259,215.316634 C674.412551,215.569329 674.077585,215.821306 673.753222,216.085136 C673.599935,216.209957 673.765441,216.503241 673.951613,216.425834 L673.999594,216.403744 L674.006602,216.400511 C674.357562,216.246415 674.691988,216.017248 674.924344,215.710493 L675.201985,215.49749 C675.282492,215.436247 675.300462,215.346447 675.282851,215.266526 C675.284828,215.260779 675.286445,215.254852 675.287703,215.248746 C676.488117,215.092854 677.683679,214.902839 678.871514,214.664512 C680.563954,214.324891 682.227642,213.875177 683.85449,213.297947 C683.90283,213.280885 683.928348,213.244965 683.938591,213.205454 C684.831714,212.790941 685.691412,212.30782 686.515169,211.769923 L686.48262,212.089541 L686.452632,212.409294 C686.429271,212.671508 686.412738,213.040044 686.729015,213.133794 C687.510901,213.365476 687.30604,211.848946 687.168208,211.325417 C688.343823,210.492439 689.432822,209.537873 690.414717,208.48363 C690.414178,208.737403 690.450299,208.992433 690.514093,209.232915 C690.543385,209.343727 690.693436,209.419518 690.794789,209.34714 C691.301011,208.985788 691.377025,208.272063 691.040442,207.780682 C691.980467,206.676331 692.8071,205.475894 693.495002,204.197512 C693.724841,203.770248 693.938148,203.336158 694.13654,202.896321 C694.199077,203.029583 694.284975,203.15207 694.392617,203.252645 C694.49307,203.346575 694.693978,203.318557 694.722731,203.16554 C694.75957,202.970376 694.781933,202.772593 694.788156,202.574166 L694.790834,202.328852 C694.791363,202.158811 694.780667,201.98608 694.655881,201.86381 C694.635215,201.843515 694.610057,201.83238 694.58382,201.826274 C696.05307,198.033333 696.45183,193.863955 696.125849,189.81778 C696.071339,189.142041 695.996613,188.461812 695.904478,187.779587 L695.845154,187.355665 C695.59968,185.665643 695.241892,183.966821 694.761367,182.296196 L694.828932,182.362229 C695.193272,182.709054 695.616033,182.959105 695.837426,182.577088 C695.982446,182.326728 695.786031,182.009198 695.591773,181.849894 C695.290771,181.602946 694.869188,181.464655 694.488758,181.392456 C694.033391,179.950999 693.486196,178.536302 692.843939,177.17279 C693.111336,177.361907 693.387539,177.540249 693.654039,177.730084 C693.820982,177.848978 694.045251,177.6155 693.934554,177.449731 C693.741015,177.160398 693.487813,176.916683 693.203883,176.716071 L693.110351,176.651198 C692.916502,176.520012 692.684157,176.387072 692.453265,176.37645 C691.581887,174.655538 690.552729,173.027298 689.358964,171.542737 C689.672725,171.635589 689.995471,171.700245 690.329898,171.734009 C690.511398,171.752328 690.595498,171.532141 690.524516,171.394927 C690.162954,170.695571 689.339197,170.407495 688.618769,170.659472 C688.608166,170.645643 688.595587,170.634148 688.58175,170.62445 C687.296516,169.178862 685.838408,167.894912 684.200418,166.825044 L685.027769,166.819117 C685.23892,166.817501 685.349797,166.50051 685.141342,166.399934 C684.542932,166.111679 683.892408,165.977878 683.229664,166.066779 C683.161916,166.075759 683.111959,166.103417 683.076917,166.140235 C682.76657,165.964947 682.450473,165.796663 682.128266,165.636641 C678.220092,163.695181 673.854574,163.165007 669.572618,163.698594 C669.455272,163.680634 669.334332,163.676323 669.211595,163.688895 C669.145285,163.69572 669.091014,163.726252 669.053457,163.768457 C668.961988,163.781748 668.87034,163.795577 668.778871,163.809765 C668.754072,163.80761 668.730351,163.810483 668.709326,163.820721 C666.992985,164.092453 665.296772,164.534086 663.654289,165.119936 C663.443677,165.145798 663.237918,165.226797 663.050667,165.340842 C660.6856,166.243145 658.444887,167.447173 656.43653,168.8845 C656.274078,168.945204 656.118635,169.033567 655.975053,169.150126 C655.929408,169.187123 655.909641,169.230945 655.906047,169.275306 L655.885741,169.290931 C655.83201,169.297038 655.797686,169.329365 655.781693,169.370673 C653.294248,171.262204 651.173936,173.521194 649.474487,176.042218 C649.332522,176.190925 649.21284,176.361185 649.12227,176.547249 C649.114902,176.562514 649.112386,176.577242 649.112386,176.59125 C648.555667,177.460686 648.047109,178.359038 647.591383,179.283431 C648.608859,176.835504 649.996344,174.540954 651.72149,172.498021 C655.431093,168.105222 660.357283,165.336173 665.971555,164.192849 C672.180284,162.928296 678.744285,162.697153 684.509327,165.679026 C685.352852,166.11545 686.166905,166.608628 686.945018,167.152272 C686.936212,167.169334 686.929923,167.188372 686.930462,167.211181 C686.942861,167.772426 687.170005,168.246925 687.464718,168.713342 C687.579188,168.894378 687.85036,168.816971 687.860423,168.606122 C687.874979,168.303678 687.830593,168.013986 687.740202,167.735429 C688.913122,168.63845 689.991877,169.66288 690.945559,170.796864 C691.207746,171.108468 691.457712,171.428333 691.697076,171.754843 C691.698334,171.774599 691.701569,171.794714 691.709116,171.815727 C691.733915,171.885052 691.755479,171.954377 691.775247,172.023881 C691.697615,172.464975 691.748112,172.928878 691.873903,173.357041 C691.931768,173.55406 692.274101,173.589441 692.309862,173.357041 C692.343826,173.136673 692.357663,172.919898 692.351374,172.705457 C693.60462,174.647097 694.513916,176.795813 695.189418,179.014034 C695.72062,180.757935 696.163587,182.554818 696.49999,184.368044 C696.467105,184.407017 696.437813,184.448684 696.408701,184.490351 C696.302138,184.453713 696.1679,184.515494 696.159454,184.658634 C696.153523,184.76334 696.157657,184.867507 696.162149,184.972034 C696.029529,185.348472 695.990713,185.766039 696.009402,186.151277 C696.020723,186.383319 696.334125,186.423549 696.40924,186.205337 C696.553721,185.785076 696.65759,185.24215 696.568816,184.784353 L696.572231,184.771961 C696.80261,186.076924 696.97782,187.388891 697.088876,188.694751 C697.373771,192.044044 696.8941,195.247179 696.138299,198.496782 L695.835561,199.77981 C695.369308,201.745652 694.877347,203.721972 694.158823,205.610054 Z M685.501825,215.860823 C685.470018,215.773173 685.529499,215.629135 685.599224,215.499645 L685.548766,215.690813 C685.523454,215.784374 685.501933,215.861357 685.501825,215.860823 Z M683.511797,213.092486 C683.500117,213.106854 683.492389,213.123018 683.488795,213.139721 C682.493063,213.469464 681.484751,213.753948 680.467634,214.000716 C680.646078,213.894753 680.804576,213.77083 680.924078,213.625535 C680.951034,213.592848 680.975833,213.552977 680.993623,213.51131 C681.016086,213.480778 681.029923,213.447193 681.036033,213.413249 C681.873987,213.416302 682.709425,213.314829 683.511797,213.092486 Z M690.190449,207.650652 C690.028357,207.692319 689.865546,207.717463 689.701118,207.727341 C689.859256,207.680107 690.023505,207.653526 690.190449,207.650652 Z M679.77488,166.499252 C679.82286,166.503922 679.87138,166.510387 679.920439,166.519727 C680.026104,166.539842 680.127456,166.568039 680.226113,166.601803 C680.097985,166.583843 679.970216,166.558161 679.843167,166.522061 C679.819985,166.515416 679.797702,166.506975 679.77488,166.499252 Z M649.145092,180.36677 C649.119754,180.364794 649.094416,180.368027 649.069437,180.377725 L649.059242,180.160107 C649.059012,180.116485 649.064891,180.115121 649.085261,180.175165 L649.122809,180.296906 C649.129638,180.320433 649.137545,180.343601 649.145092,180.36677 Z M648.068493,200.341892 C648.071548,200.189593 648.089159,200.045196 648.137858,199.919656 C648.123303,200.062796 648.099402,200.203242 648.068493,200.341892 Z M667.989796,215.599142 C666.676529,215.692534 665.355894,215.781794 664.044423,215.726119 C663.898505,215.720012 663.753664,215.709595 663.609363,215.697203 C663.233605,215.514372 662.918945,215.205283 662.812741,214.79508 C662.698091,214.351831 662.921102,213.99443 663.415104,214.036097 C663.639014,214.055134 663.854118,214.132362 663.972183,214.336385 C664.061315,214.434446 664.085036,214.551724 664.043345,214.68786 C663.819975,214.88883 663.649257,214.906611 663.530833,214.74138 C663.44817,214.653197 663.268287,214.744433 663.317166,214.865662 C663.512324,215.34986 664.193577,215.238149 664.343808,214.770655 C664.56628,214.0792 663.752586,213.6232 663.165857,213.708868 C662.493948,213.806929 662.334013,214.498204 662.580745,215.051008 C662.682996,215.280175 662.836821,215.473962 663.022634,215.629495 C661.882959,215.464444 660.796836,215.11279 659.765522,214.629311 C659.779539,214.592313 659.783492,214.551544 659.770734,214.510057 C659.583124,213.89601 659.210061,213.375534 658.69701,212.991732 C658.55163,212.883075 658.397625,213.061955 658.422244,213.20276 C658.47957,213.531605 658.602307,213.85111 658.789736,214.125716 C657.930218,213.640801 657.112571,213.070755 656.335716,212.452757 C656.002907,212.072547 655.753659,211.589067 655.75923,211.075416 C655.76552,210.490284 656.41191,210.467475 656.661517,210.906054 L656.67039,210.923976 C656.728201,211.053576 656.856485,211.558158 656.416403,211.23454 C656.353866,211.188563 656.312714,211.026565 656.277493,210.960832 C656.224301,210.862232 656.042262,210.901205 656.055739,211.020818 C656.095993,211.380554 656.47876,211.936591 656.875723,211.580088 C657.271249,211.224842 656.88345,210.592835 656.519552,210.395276 C656.034535,210.132165 655.548259,210.407669 655.499919,210.950595 C655.46919,211.295065 655.556525,211.638098 655.717719,211.945391 C655.605764,211.850024 655.493989,211.754298 655.383831,211.657495 C655.078696,211.389354 654.780389,211.113132 654.488552,210.829905 C654.495021,210.789854 654.499334,210.749445 654.501491,210.708496 C654.828729,210.206698 654.68946,209.433706 654.442009,208.938194 C654.387919,208.830076 654.201028,208.79703 654.121959,208.897066 C653.914761,209.15928 653.880798,209.434425 653.935427,209.760935 C653.971008,209.973938 654.062297,210.211906 654.099496,210.444307 C653.420759,209.756983 652.780837,209.030328 652.178474,208.273141 C652.188358,208.253744 652.1871,208.230217 652.164277,208.210281 C652.147026,208.195015 652.131392,208.177954 652.114859,208.16161 C652.134826,208.118826 652.119012,208.059864 652.065272,208.04237 L652.043337,208.037867 C652.026984,208.036071 652.01135,208.030683 651.995536,208.025474 C651.639545,207.544689 651.621395,206.795764 652.036509,206.347486 C652.252152,206.114367 652.572742,206.004453 652.872306,206.131968 C653.060275,206.212069 653.198287,206.38161 653.188583,206.589225 C653.168995,207.013078 652.344519,207.148495 652.510385,206.524211 C652.550998,206.371193 652.335175,206.320726 652.278928,206.460453 C652.083411,206.946986 652.620183,207.461715 653.102146,207.21782 C653.598125,206.966741 653.57728,206.25158 653.15408,205.951651 C652.327447,205.36616 651.578806,206.187643 651.469726,207.038222 C651.35274,206.557796 651.279062,206.000681 651.234675,205.591556 C651.794629,205.171116 652.278568,204.66375 652.662234,204.076822 C652.749928,203.942662 652.605088,203.772223 652.45881,203.812274 C651.861838,203.975349 651.394611,204.394173 651.170701,204.943744 C651.12901,204.50714 651.109962,204.069997 651.105828,203.632675 C651.114814,203.625731 651.12292,203.617669 651.129136,203.607851 L651.14087,203.58113 C651.151653,203.578616 651.162794,203.577 651.173037,203.57233 C651.760845,203.296467 652.192131,202.453611 652.371834,201.862912 C652.426284,201.683672 652.208664,201.597645 652.085028,201.695885 C651.663266,202.031016 651.309072,202.468877 651.108883,202.969418 C651.111579,202.819274 651.114814,202.669129 651.119306,202.518805 C651.19532,202.520781 651.271694,202.48109 651.286969,202.397038 C651.427496,201.61776 651.103852,200.703963 650.766909,200.01179 C650.682269,199.83758 650.416669,199.929534 650.415231,200.106977 C650.408582,200.882304 650.515505,201.609498 650.821,202.325737 C650.843822,202.379437 650.892701,202.398295 650.94194,202.393266 C650.902405,202.665358 650.875809,202.938886 650.858557,203.212774 C650.738696,202.964928 650.517302,202.739891 650.335083,202.55706 C650.073796,202.294846 649.777825,202.071964 649.459572,201.883386 C649.301074,201.789276 649.131794,201.973904 649.214457,202.128358 C649.574043,202.799518 650.135973,203.403687 650.838431,203.718164 C650.831063,204.246722 650.866285,204.77546 650.934212,205.300427 L650.893599,205.334012 C650.882817,205.343171 650.873652,205.352869 650.865925,205.363107 C650.806238,205.235078 650.715929,205.114839 650.626889,205.003043 L650.522693,204.872982 C650.323043,204.620108 650.100392,204.377829 649.846652,204.178475 C649.715828,204.075745 649.50899,204.158719 649.537024,204.335085 C649.008877,203.394348 648.532126,202.423618 648.103176,201.431516 C648.425383,200.810465 648.586217,200.12799 648.52997,199.426299 C648.518828,199.288368 648.379559,199.191025 648.249813,199.265559 C647.737301,199.56028 647.747724,200.081295 647.793728,200.603926 C647.782946,200.606441 647.773601,200.61147 647.763717,200.615959 C647.31482,199.492032 646.92828,198.342422 646.613261,197.173775 C646.669508,197.150966 646.717848,197.107683 646.737076,197.041411 C646.942296,196.33972 646.958649,195.602288 646.742467,194.900417 C646.690533,194.731774 646.408759,194.704116 646.3721,194.900417 C646.316572,195.19891 646.283686,195.499019 646.279014,195.798589 C646.062292,194.815827 645.893911,193.823006 645.776205,192.824439 C645.860127,192.272353 646.225822,191.76373 646.870236,191.918544 C647.216523,192.001698 647.48392,192.31366 647.365317,192.68076 C647.29074,192.911723 647.056947,193.113413 646.804824,192.994518 C646.600502,192.898254 646.503642,192.671959 646.557193,192.458417 C646.585766,192.344911 646.434996,192.285284 646.3721,192.380471 C646.070019,192.836651 646.596548,193.41891 647.092887,193.309534 C647.639902,193.189203 647.831286,192.471707 647.542324,192.037797 C647.236829,191.579282 646.550904,191.499181 646.097694,191.773608 C645.928593,191.875979 645.799926,192.016066 645.707559,192.176986 C645.675931,191.846345 645.648976,191.515345 645.629029,191.183806 C645.650953,191.174647 645.672697,191.162793 645.693363,191.145732 C646.317829,190.63208 646.638419,189.817242 646.477226,189.018926 C646.443262,188.850104 646.227978,188.860341 646.144057,188.975464 C645.999756,189.17374 645.874143,189.38423 645.77351,189.604417 C645.699652,189.690804 645.636037,189.782579 645.57997,189.877766 C645.568649,189.100105 645.588236,188.321905 645.641788,187.545141 C646.126087,187.132783 646.592056,186.682171 647.035921,186.202104 C647.638824,186.461085 648.285394,186.394633 648.890274,186.169956 C649.02559,186.119668 649.076625,185.923726 648.932684,185.844882 C648.484685,185.599371 648.000386,185.54172 647.525611,185.648581 C647.759045,185.373796 647.98601,185.091826 648.203809,184.801954 C648.248376,184.813628 648.298153,184.808599 648.346493,184.778786 C648.434368,184.729396 648.518109,184.673541 648.597538,184.6114 C648.999353,184.638699 649.404942,184.560214 649.778005,184.406658 L649.947099,184.336097 C650.224431,184.214205 650.59563,184.004896 650.417208,183.696705 C650.220613,183.357443 649.685997,183.549075 649.417521,183.647315 C649.209066,183.723645 649.010315,183.818473 648.821088,183.928567 C649.160007,183.419046 649.474487,182.894079 649.758597,182.358157 C649.821673,182.359594 649.885647,182.301943 649.838026,182.237467 L649.828681,182.224177 L649.87181,182.13797 C650.003532,182.28973 650.290338,182.261174 650.487471,182.19167 C651.024782,182.002552 651.518066,181.607077 651.897419,181.191665 C652.014046,181.063971 651.901732,180.838934 651.722748,180.891736 C651.213111,181.04206 650.558634,181.271227 650.115666,181.643535 C650.328614,181.194898 650.521974,180.741771 650.689996,180.28613 C650.751634,180.320253 650.830344,180.322229 650.892162,180.286489 C651.132315,180.148078 651.181882,179.753672 651.245083,179.49377 L651.256419,179.44938 C651.382391,178.982065 651.47332,178.507925 651.541787,178.029116 C651.554187,177.942549 651.534779,177.84377 651.448342,177.799409 C650.960139,177.548555 650.725176,178.224939 650.607199,178.618776 L650.549803,178.815607 C650.453007,179.160205 650.284106,179.862111 650.504723,180.128622 C650.270391,180.601684 650.034261,181.072053 649.789506,181.537033 L649.770812,181.404565 C649.649096,180.583008 649.354644,179.320221 648.84391,179.788462 C648.561957,180.046905 648.749207,180.69328 648.839238,180.994287 C648.965929,181.417421 649.174384,181.805174 649.473768,182.122165 C649.144014,182.719869 648.794672,183.306617 648.408131,183.875765 L648.34847,183.960894 C648.423945,183.352774 648.3181,182.669222 648.235078,182.092711 C648.204888,181.882581 647.93156,181.946697 647.870101,182.092711 C647.602165,182.727951 647.562271,183.569729 647.948991,184.169049 C647.952405,184.202454 647.954382,184.23586 647.958515,184.269085 C647.965524,184.326018 647.998229,184.369481 648.039381,184.397678 C647.725081,184.829253 647.392631,185.245742 647.052095,185.655406 C647.106006,185.438092 647.099716,185.202818 647.116249,184.980834 L647.185254,184.055543 C647.196396,183.906476 646.97626,183.810032 646.878322,183.928567 C646.55899,184.315242 646.392945,184.79926 646.460154,185.303573 C646.48693,185.504004 646.579836,185.854222 646.77068,185.991076 C646.409837,186.41385 646.040368,186.82998 645.665688,187.242518 C645.777284,185.862663 645.997599,184.497175 646.322861,183.159526 C647.120382,180.670471 648.26994,178.300489 649.745479,176.123396 C649.915298,175.989595 650.10776,175.886326 650.319988,175.834063 C650.566541,175.773179 650.877426,175.785931 651.003218,176.056945 C651.038009,176.131658 651.005518,176.268785 650.975489,176.370578 L650.954519,176.438771 C650.951823,176.447212 650.689457,177.144773 650.519458,176.837839 C650.459617,176.729721 650.255295,176.77013 650.272008,176.904829 C650.316035,177.25774 650.702576,177.330118 650.950565,177.104363 C651.239168,176.84179 651.456249,176.187872 651.244379,175.828855 C651.031971,175.469478 650.552344,175.456906 650.197431,175.575262 C650.163827,175.586576 650.13184,175.601124 650.099134,175.614234 C650.290158,175.345914 650.484956,175.079749 650.686043,174.817715 C650.708506,174.836214 650.737258,174.847349 650.769245,174.840165 C651.469906,174.68571 652.119711,174.351657 652.747952,174.016526 C652.866735,173.953308 652.878056,173.747667 652.747952,173.687682 C652.388007,173.521733 652.001467,173.510597 651.655539,173.627336 C652.329963,172.844287 653.049852,172.093027 653.819699,171.382535 C654.499873,170.755018 655.21509,170.15911 655.959059,169.596428 C656.042981,169.616543 656.127261,169.630731 656.212081,169.639352 L656.244607,169.647255 C656.25467,169.651745 656.263116,169.649589 656.270484,169.645459 C656.746517,169.679762 657.22812,169.547039 657.65096,169.32721 C657.79023,169.254832 657.795621,169.022252 657.65096,168.95131 C657.462991,168.859356 657.268733,168.807632 657.075193,168.793084 C658.803574,167.609171 660.669427,166.604317 662.61974,165.813186 C662.654962,165.871915 662.736727,165.904243 662.800521,165.841383 C662.868269,165.774393 662.94626,165.710815 663.029822,165.652805 C663.26649,165.56103 663.504237,165.472488 663.743242,165.386999 C664.003092,165.377301 664.250183,165.478953 664.420721,165.761821 C664.617855,166.088511 664.469241,166.43765 664.1553,166.627845 C663.990692,166.727522 663.830757,166.778887 663.658242,166.678132 C663.516816,166.595517 663.370358,166.314446 663.652492,166.236679 C663.802544,166.195372 663.779182,165.941958 663.614574,165.956685 C663.173764,165.996556 663.01886,166.544691 663.299017,166.868507 C663.684299,167.314091 664.410118,166.987221 664.682727,166.583664 C665.000442,166.113654 664.795042,165.509665 664.312719,165.243141 C664.290616,165.230928 664.268333,165.221409 664.24605,165.210992 C665.71494,164.716737 667.221747,164.342993 668.746345,164.106821 C669.182303,164.559589 669.835703,164.813182 670.458912,164.805998 C670.626574,164.804202 670.708519,164.631787 670.640052,164.490803 C670.527019,164.258402 670.357919,164.066771 670.154675,163.928121 C671.141063,163.830778 672.131944,163.791446 673.121926,163.814614 C673.534703,163.966914 673.993843,164.37119 673.737767,164.843893 C673.640009,165.024749 673.416459,165.18064 673.204769,165.164117 C673.009791,165.149031 672.755332,164.839583 673.017159,164.723203 C673.132349,164.672017 673.078078,164.463144 672.951208,164.479667 C672.608515,164.523849 672.51507,164.897054 672.669974,165.179383 C672.867826,165.540376 673.346554,165.544686 673.662112,165.347846 C674.190259,165.018642 674.162764,164.46494 673.865715,164.070003 C674.109033,164.155492 674.353069,164.237209 674.597465,164.318388 C674.60052,164.545221 674.787051,164.809051 674.920211,164.967277 C675.104226,165.186028 675.336043,165.337609 675.598229,165.446446 C675.744867,165.50733 675.902286,165.298098 675.80938,165.17202 C675.685924,165.004454 675.55528,164.842097 675.426973,164.678303 C675.400017,164.644 675.37396,164.607003 675.347185,164.570185 C675.750437,164.708835 676.151354,164.855387 676.545263,165.025826 L676.539692,165.048635 C676.492969,165.091739 676.477694,165.170044 676.508244,165.228414 C676.524776,165.260023 676.544364,165.289118 676.56521,165.317315 C676.586414,165.395081 676.614628,165.470512 676.636731,165.534988 C676.749944,165.865809 676.918864,166.175975 677.130195,166.454173 C677.238556,166.596774 677.493913,166.566422 677.491757,166.356292 C677.488702,166.040737 677.366863,165.588508 677.124085,165.298277 L677.189137,165.330964 C677.700751,165.598566 678.175166,165.901549 678.612562,166.244043 C678.569793,166.264517 678.537986,166.306004 678.536728,166.36186 C678.53529,166.428491 678.546612,166.49117 678.564941,166.551875 C678.508694,167.101985 678.741589,167.667181 679.144482,168.059963 C679.289862,168.201487 679.501552,168.055473 679.467049,167.872283 C679.410914,167.5737 679.324924,167.284468 679.213291,167.002902 L679.089573,166.70319 C679.076894,166.673184 679.063856,166.64335 679.050139,166.614016 C679.525632,167.045052 679.95009,167.533021 680.313449,168.096062 C680.297814,168.108634 680.287392,168.128031 680.285235,168.151558 C680.283438,168.174008 680.283618,168.196638 680.285235,168.219267 C680.265468,168.280869 680.274992,168.34768 680.326387,168.398686 C680.42145,168.64725 680.655063,168.891325 680.817694,169.049192 C681.09839,169.321642 681.432457,169.516327 681.797613,169.652642 C681.96276,169.714424 682.098795,169.503935 682.018288,169.365824 C681.692667,168.806554 681.185905,168.344447 680.595402,168.076307 L680.582823,168.071996 L680.597379,168.065172 C680.606544,168.0614 680.599895,168.045595 680.59055,168.049008 L680.559102,168.062298 C680.557485,168.048469 680.554789,168.034281 680.547781,168.019733 C680.345615,167.592828 680.079655,167.207948 679.770746,166.858809 C680.200955,166.981654 680.671596,167.01452 681.029025,166.998357 C681.178537,166.991532 681.3099,166.77745 681.166497,166.666279 C680.617865,166.240451 679.699045,165.891671 678.979875,166.108626 C678.688038,165.872992 678.377152,165.659989 678.058719,165.463867 C678.327015,165.473745 678.598186,165.436209 678.854263,165.351798 C679.028035,165.294326 679.032348,165.050252 678.854263,164.994576 L678.677299,164.940822 C678.071941,164.762612 677.32166,164.602888 676.72227,164.725179 C676.715082,164.726615 676.71005,164.730746 676.703401,164.733081 C676.022148,164.403158 675.286625,164.098559 674.54625,163.891303 C675.886113,164.004809 677.219148,164.235234 678.531517,164.593892 C680.126737,165.029957 681.602097,165.656037 682.965142,166.434238 C682.884994,166.498354 682.860914,166.617608 682.907098,166.722493 C682.944835,166.807982 682.980237,166.89401 683.016177,166.979858 C682.977182,167.48435 683.189051,167.95831 683.547918,168.340137 C683.6915,168.492975 683.95171,168.334569 683.895822,168.137729 C683.76985,167.692864 683.609915,167.257876 683.432908,166.830432 L683.625729,166.828995 C684.439962,167.337798 685.210168,167.90461 685.939761,168.518478 C685.892858,168.510037 685.845057,168.504829 685.795819,168.506086 C685.721961,168.507882 685.697701,168.630188 685.777489,168.641323 C686.316957,168.716755 686.54482,169.366901 686.591183,169.845531 C686.614544,170.086912 686.589925,170.332602 686.413277,170.510046 C686.290181,170.63343 686.131683,170.686771 685.95845,170.647618 L685.80696,170.590685 C685.560947,170.459399 685.585387,170.300813 685.880459,170.114929 C685.990617,170.179046 686.120362,170.050633 686.05531,169.94 C685.817024,169.534646 685.26929,169.806199 685.247546,170.219635 C685.218434,170.769745 685.832298,171.097871 686.313542,170.952397 C686.992279,170.747116 687.023188,169.839066 686.70188,169.189278 C687.244402,169.691615 687.762485,170.221251 688.254691,170.77639 C688.213539,170.829192 688.192154,170.899774 688.205992,170.974667 L688.210843,171.002864 C687.997357,171.56393 688.042282,172.186957 688.286498,172.74479 C688.356762,172.90553 688.64231,172.866737 688.670882,172.694682 C688.748514,172.228264 688.757859,171.766337 688.707721,171.303332 C689.444682,172.184622 690.120904,173.123024 690.741237,174.103272 C690.732791,174.122669 690.731533,174.145837 690.742855,174.170981 L690.910538,174.529505 C691.148117,175.044453 691.445138,175.772472 691.223559,176.146744 C691.046732,176.445416 690.652644,176.440028 690.365838,176.273361 C690.170681,176.160034 689.987744,175.9605 689.984689,175.720198 C689.980017,175.344478 690.668817,175.071847 690.615086,175.657877 C690.60071,175.813589 690.84852,175.842863 690.885539,175.694515 C691.016722,175.168471 690.396568,174.774971 689.957913,175.08837 C689.442346,175.456906 689.640379,176.171349 690.08676,176.494985 C690.501334,176.795633 691.237756,176.845382 691.525999,176.34107 C691.690786,176.052994 691.574878,175.697209 691.488621,175.402667 L691.448547,175.282336 C691.657721,175.650873 691.861324,176.02318 692.055224,176.401235 C692.036714,176.412729 692.019283,176.427995 692.004188,176.449547 C691.582965,177.0521 691.606865,177.845925 691.929971,178.484039 C691.997,178.616403 692.222527,178.622329 692.287759,178.484039 C692.406722,178.232421 692.476626,177.971105 692.467282,177.690393 L692.464583,177.626978 C692.452505,177.399127 692.405039,177.022564 692.185149,176.976848 C692.237442,176.987804 692.288298,176.974873 692.32927,176.948472 C692.71006,177.72757 693.059402,178.523909 693.378734,179.332103 C693.359865,179.349344 693.349442,179.374667 693.359685,179.40484 C693.524832,179.894964 693.723044,180.613897 693.210173,180.980996 C693.01268,181.12234 692.66172,181.163828 692.482916,180.956751 C692.265655,180.705133 692.489026,180.403228 692.745462,180.323127 C692.850049,180.29044 692.863347,180.123593 692.745462,180.097551 C692.397018,180.020683 692.125487,180.342524 692.096735,180.669752 C692.062412,181.05966 692.361437,181.350251 692.735937,181.396587 C693.170459,181.450467 693.54406,181.174424 693.70148,180.781103 C693.750179,180.659515 693.776955,180.53667 693.7863,180.414004 C693.920538,180.789904 694.048666,181.167958 694.169965,181.54745 C694.148241,181.606518 694.154772,181.671688 694.208996,181.72694 L694.234299,181.749139 C694.688946,183.201013 695.050868,184.67408 695.322398,186.139963 C695.346299,186.269453 695.367504,186.399842 695.390326,186.529691 C695.355284,186.548908 695.331743,186.59291 695.356362,186.634218 C695.384755,186.681991 695.410093,186.730842 695.433994,186.780411 C695.487905,187.101353 695.538761,187.423194 695.584225,187.746112 C695.568591,187.844173 695.545589,187.942054 695.509649,188.038857 C695.425188,188.266588 695.277652,188.50725 695.068658,188.639076 C694.791916,188.813645 694.460005,188.678946 694.288928,188.42679 L694.177512,188.191875 C694.035368,187.855667 694.20339,187.747189 694.681579,187.866084 C694.675109,187.963965 694.817434,187.996472 694.863078,187.915294 C695.112326,187.472224 694.536738,187.092733 694.146604,187.32657 C693.545318,187.687024 693.853688,188.606927 694.297194,188.965586 C694.804855,189.375789 695.410453,188.859622 695.667248,188.385303 C695.706243,188.703192 695.742543,189.021441 695.772913,189.340587 C695.683781,190.310419 695.495632,191.234992 695.197146,192.130829 C695.114842,192.114306 695.032718,192.101016 694.935139,192.113408 C694.746631,192.137115 694.558123,192.20213 694.385608,192.279357 C694.023507,192.441535 693.71388,192.68974 693.462475,192.995057 C693.33866,193.145201 693.424918,193.336833 693.613066,193.358564 C693.954322,193.398076 694.483366,193.285468 694.853374,193.036365 C694.721113,193.345633 694.575374,193.652208 694.413642,193.956448 C694.381295,194.017691 694.345894,194.076958 694.312469,194.137483 C694.2697,194.134969 694.224774,194.147541 694.182185,194.178072 C693.932757,194.157239 693.700042,194.181485 693.415932,194.299481 C693.022563,194.462916 692.711498,194.733211 692.461891,195.074089 C692.375633,195.191906 692.489924,195.399881 692.638179,195.381382 C693.043049,195.331274 693.44163,195.205555 693.797801,195.005842 C693.606777,195.30649 693.408744,195.602288 693.206579,195.895034 C693.183397,195.897907 693.159676,195.904373 693.136315,195.915867 L692.968832,195.995968 L692.92594,195.99589 C692.487155,196.00572 690.834566,196.30587 691.300832,196.911022 C691.511443,197.184012 691.982085,197.032431 692.241575,196.945865 C692.350655,196.909406 692.456859,196.866841 692.560008,196.818529 C692.368266,197.09116 692.176882,197.364149 691.989812,197.640731 C691.968966,197.620796 691.939854,197.610918 691.907867,197.622592 L691.868475,197.638294 C691.438366,197.822006 689.786742,198.854322 690.409506,199.316564 C690.69721,199.530107 691.056436,199.248137 691.272978,199.074286 C691.67659,198.750111 692.019283,198.369182 692.318129,197.947665 C692.383001,197.85607 692.355327,197.75729 692.289736,197.691198 C692.526045,197.403122 692.763612,197.103552 692.997764,196.794463 C692.981771,197.133365 693.022204,197.489689 693.036221,197.784769 C693.046104,197.995977 693.335246,198.035848 693.401916,197.834338 C693.485882,197.581015 693.532425,197.317378 693.558038,197.051851 L693.580987,196.773874 C693.597813,196.551028 693.602356,196.316803 693.484759,196.129589 C693.714778,195.803798 693.936531,195.46741 694.14858,195.124377 C694.121805,195.491117 694.16062,195.863963 694.244901,196.231422 C694.298093,196.462924 694.619042,196.391264 694.636833,196.17844 C694.663249,195.862886 694.678344,195.546792 694.694337,195.230519 C694.708175,194.953579 694.768375,194.649878 694.671695,194.386407 C694.66253,194.361442 694.645818,194.34007 694.62605,194.321931 C694.631442,194.312232 694.634317,194.300918 694.634137,194.289783 C694.823723,193.938488 694.996418,193.580189 695.152579,193.21722 C695.173605,193.52146 695.24872,193.825341 695.348276,194.131736 C695.40632,194.310436 695.695102,194.338095 695.739309,194.131736 C695.869953,193.523077 695.779382,192.925732 695.491139,192.375622 L695.482693,192.362691 L695.48467,192.347066 C695.668686,191.792825 695.8049,191.229604 695.872648,190.660816 C696.01084,193.124009 695.871929,195.603186 695.375411,198.011782 L695.136226,198.33883 C695.015287,198.504241 694.809707,198.862001 694.555787,198.841347 C694.358653,198.825363 694.276529,198.60715 694.2573,198.437969 C694.248136,198.358945 694.251011,198.272199 694.266825,198.193894 C694.279584,198.129598 694.300789,198.068175 694.330799,198.009626 C694.378959,197.869719 694.455692,197.869001 694.560998,198.007651 C694.531886,198.093678 694.647076,198.150072 694.707276,198.09278 C694.959938,197.851759 694.596759,197.521837 694.321454,197.618281 C693.946595,197.749568 693.873456,198.292674 693.960432,198.623314 C694.050822,198.966707 694.349668,199.238798 694.720035,199.122419 C694.925076,199.057943 695.068838,198.88463 695.185106,198.712934 L695.240095,198.627625 C695.069018,199.361823 694.865414,200.089018 694.622996,200.805975 C694.518049,201.1165 694.405735,201.423973 694.286233,201.728392 C694.210757,201.641287 694.06412,201.622968 693.972292,201.752818 C693.939766,201.798975 693.90688,201.842617 693.873995,201.885721 C693.361303,201.969952 692.907374,202.310112 692.643211,202.777068 C692.556055,202.931164 692.699458,203.108786 692.86748,203.068916 C693.275585,202.971753 693.696628,202.741867 693.998529,202.420206 C693.523395,203.512524 692.953018,204.558685 692.301237,205.550428 C691.983702,205.937103 691.548462,206.098024 691.062546,206.204705 C690.757231,206.271875 690.290004,206.258225 690.211474,205.90262 C690.178768,205.753733 690.178948,205.592274 690.203747,205.442848 C690.204645,205.362747 690.224233,205.287316 690.26233,205.216734 C690.304739,205.004987 690.438977,205.025102 690.665403,205.277258 C690.516789,205.260017 690.488036,205.501577 690.630361,205.53588 C691.075125,205.64328 691.374869,205.058508 691.049967,204.742773 C690.559917,204.266478 689.956655,204.879807 689.874172,205.375499 C689.779648,205.943748 689.988463,206.65873 690.681756,206.583299 C691.054639,206.542709 691.487543,206.425072 691.846589,206.214763 C691.512701,206.682617 691.161562,207.138258 690.790116,207.577017 C690.777537,207.577017 690.765317,207.576658 690.753098,207.579172 C690.741776,207.571809 690.730096,207.566421 690.717517,207.562829 C690.719314,207.515056 690.695054,207.465846 690.633056,207.442498 C690.036982,207.217461 689.38556,207.33402 688.872868,207.704173 C688.739169,207.800797 688.733239,208.041459 688.922466,208.084024 C689.413414,208.194117 689.908854,208.177594 690.385785,208.039124 C689.407304,209.12803 688.31579,210.117797 687.122025,210.980408 C687.149519,210.939101 687.154371,210.882168 687.111782,210.840321 C686.584534,210.321821 685.792045,210.254112 685.145654,210.584753 C684.996142,210.661262 685.025074,210.862412 685.145654,210.945566 C685.564901,211.23454 686.080468,211.335295 686.575189,211.257888 L686.561352,211.369957 L686.420465,211.465324 C685.808757,211.8696 685.173868,212.236879 684.524063,212.575961 C684.517414,212.575782 684.510944,212.575243 684.504116,212.577039 C684.352267,212.615293 684.200598,212.650854 684.049288,212.684798 C684.046593,212.637384 684.014785,212.592664 683.954944,212.595537 L683.865074,212.599088 C683.223468,212.619713 682.335169,212.541788 682.215781,211.756274 C682.16205,211.403901 682.37392,210.984 682.775555,211.002858 C683.342338,211.029798 683.32868,211.849126 682.746983,211.770821 C682.570515,211.747114 682.498094,211.978257 682.672226,212.041835 C683.168745,212.223589 683.652864,211.655699 683.496702,211.180122 C683.336048,210.691255 682.671687,210.528898 682.267536,210.811586 C681.771377,211.15875 681.758977,211.872833 682.11389,212.320393 C682.370685,212.644388 682.745904,212.814827 683.142329,212.862241 C682.550568,212.9612 681.961682,213.025855 681.374952,213.048844 C681.384477,212.903908 681.265693,212.774238 681.114384,212.761846 C681.056879,212.662528 681.010515,212.545968 680.952651,212.462814 C680.852557,212.318597 680.739164,212.182281 680.612654,212.060514 C680.366641,211.823803 680.08289,211.648155 679.767512,211.519922 C679.608475,211.455267 679.465252,211.640971 679.50281,211.78465 C679.637946,212.301894 679.922955,212.743527 680.338068,213.045432 C679.711516,213.017306 679.087294,212.940884 678.464614,212.807915 L678.256751,212.761127 C678.315334,212.76885 678.376253,212.731493 678.380926,212.676716 C678.456221,212.622298 678.488388,212.555128 678.490365,212.451679 C678.491623,212.386844 678.451729,212.300996 678.388293,212.274056 L678.373019,212.267591 C678.383621,212.166836 678.369604,211.971253 678.365471,211.940542 C678.343727,211.785189 678.308685,211.633069 678.255853,211.48508 C678.156297,211.206343 678.004808,210.957958 677.811987,210.734179 C677.688531,210.590859 677.475763,210.716039 677.46534,210.877678 C677.427603,211.460834 677.59239,212.068416 677.974079,212.512024 C677.996721,212.582965 678.03967,212.647262 678.123951,212.702219 C678.144078,212.71533 678.16654,212.722514 678.189722,212.727003 L678.193855,212.730955 C678.169775,212.72413 678.143718,212.721795 678.116403,212.725207 C677.693563,212.620502 677.271261,212.491729 676.849679,212.332605 C676.863516,212.290579 676.849859,212.241549 676.794151,212.229156 L676.780853,212.226103 C676.779415,212.179947 676.762164,212.132712 676.721191,212.089788 C676.18388,211.527286 675.391571,211.287522 674.631968,211.452393 C674.456578,211.490468 674.432498,211.745677 674.58255,211.830448 C675.159575,212.155701 675.779729,212.377505 676.434386,212.401032 C676.500337,212.457606 676.575093,212.462635 676.638708,212.436593 C676.984636,212.594999 677.342603,212.734187 677.707759,212.856314 C677.204053,213.058183 676.727122,213.392236 676.33519,213.739041 C676.191248,213.866556 676.342738,214.13326 676.526573,214.067527 C677.073768,213.872123 677.582686,213.634515 678.055843,213.293637 C678.103644,213.259154 678.122513,213.210662 678.121076,213.163967 L678.251719,213.102185 C678.283707,213.086919 678.306708,213.066624 678.323421,213.043456 C678.90997,213.202041 679.512693,213.311058 680.119729,213.36817 C679.709827,213.538789 679.334788,213.7843 679.014917,214.102189 C678.944294,214.172412 678.94034,214.261493 678.973765,214.334769 C677.673256,214.60255 676.360708,214.813758 675.042049,214.982401 C674.948604,214.427801 674.194212,214.101111 673.697334,214.108475 C673.51242,214.111169 673.454556,214.31645 673.557525,214.445761 C673.765262,214.706538 674.017205,214.919183 674.300776,215.07256 L673.964911,215.111353 C673.177813,215.198279 672.389458,215.272094 671.600203,215.337827 C671.581514,215.324896 671.557973,215.318789 671.531377,215.327051 C670.894691,215.527483 670.26627,214.282686 670.761351,213.869789 C670.942312,213.718746 671.214741,213.687137 671.436315,213.760054 C671.574686,213.805672 671.721862,213.901039 671.798775,214.029631 C671.866343,214.131464 671.881438,214.238145 671.844419,214.349496 C671.615658,214.59824 671.474052,214.578484 671.419422,214.290229 C671.410078,214.149603 671.225523,214.126076 671.177902,214.257362 C670.980588,214.801186 671.821417,215.009521 672.071923,214.537895 C672.363221,213.989581 671.785836,213.461382 671.264159,213.428156 C670.638794,213.388465 670.18181,213.867274 670.324134,214.49084 C670.392421,214.789692 670.596564,215.177086 670.874744,215.394759 C670.288374,215.439839 669.702004,215.482224 669.115274,215.521017 C669.110961,215.510241 669.106469,215.499286 669.1,215.48833 C668.76126,214.916129 668.121339,214.567529 667.452665,214.638111 C667.306567,214.653377 667.170172,214.851833 667.315372,214.969111 C667.596966,215.196303 667.907492,215.389192 668.237247,215.537181 C668.153505,215.552267 668.070842,215.573101 667.989796,215.599142 Z M667.265594,216.40554 L667.306387,216.422422 C666.342641,216.341243 665.383748,216.219655 664.436714,216.02533 C665.412859,216.049396 666.394216,215.995516 667.37108,215.930142 C667.319505,215.970911 667.268829,216.013476 667.220848,216.059453 C667.126145,216.15033 667.136208,216.345913 667.265594,216.40554 Z M650.114588,205.32126 C650.254936,205.450571 650.415231,205.556534 650.59098,205.632504 C650.624585,205.668065 650.659986,205.70165 650.699521,205.729667 C650.749298,205.765048 650.815249,205.755529 650.864667,205.722304 L650.880301,205.726255 C650.92361,205.735594 650.963324,205.717454 650.990819,205.68818 C651.00843,205.795939 651.024064,205.904057 651.04455,206.011457 C651.11086,206.357723 651.182022,206.726618 651.279062,207.08348 C650.869519,206.509663 650.481361,205.921299 650.114588,205.32126 Z M654.658192,212.569675 C654.588287,212.520106 654.520719,212.468202 654.451893,212.417735 C654.47166,212.098588 653.993112,211.851281 653.573147,211.725922 C652.740764,211.022973 651.976488,210.242977 651.275288,209.407844 C651.283554,209.374439 651.279062,209.337441 651.252466,209.307628 L651.191187,209.236327 C651.214369,209.204 651.227847,209.165027 651.224432,209.121923 C651.177889,208.535534 651.006992,207.994943 650.655673,207.517929 C650.542101,207.363654 650.323223,207.420946 650.303815,207.613116 C650.284587,207.806364 650.291416,208.001408 650.322684,208.191244 C650.081882,207.862758 649.848449,207.529244 649.623461,207.19088 C649.240874,206.615088 648.883804,206.023849 648.547401,205.421117 C648.559261,205.407467 648.570942,205.392381 648.582802,205.37478 C648.615868,205.326289 648.589631,205.27654 648.54794,205.253013 C648.552433,205.246188 648.558003,205.2408 648.561597,205.232538 C648.781374,204.727867 648.527813,204.026894 648.296536,203.561195 C648.2216,203.410153 647.957617,203.440505 647.92563,203.609687 C647.893642,203.778509 647.873695,203.948948 647.865429,204.119387 C647.300624,202.965467 646.815067,201.773472 646.41433,200.55292 C646.416127,200.531369 646.40804,200.509098 646.392047,200.487367 C645.784292,198.621159 645.370077,196.691014 645.157669,194.73806 C644.875176,192.140528 644.959097,189.548203 645.382836,187.030053 C644.991011,191.658251 645.761684,196.381561 647.490505,200.688122 L647.604141,200.966536 C647.536933,200.864524 647.458043,200.770594 647.402335,200.698754 C647.227844,200.472999 647.023881,200.285857 646.793323,200.118651 C646.646326,200.012149 646.456201,200.187797 646.49879,200.344945 C646.633567,200.840278 646.955774,201.237191 647.397483,201.439239 C647.434143,201.473722 647.476553,201.5012 647.528127,201.517364 C647.55652,201.526165 647.582757,201.524728 647.606837,201.517364 C647.648169,201.529577 647.691657,201.537479 647.734426,201.546639 C647.77414,201.58651 647.826613,201.610935 647.880704,201.614527 C649.331803,204.928837 651.389579,208.144548 653.990237,210.756988 C653.590039,210.560687 653.162526,210.450054 652.707698,210.434788 C652.542192,210.429221 652.469952,210.638632 652.576695,210.751061 C653.074472,211.275668 653.813589,211.497831 654.505804,211.259504 C655.883584,212.565185 657.404049,213.702582 659.060548,214.599677 C659.400546,214.783765 659.746474,214.952408 660.097792,215.104169 C658.154847,214.571121 656.313074,213.741555 654.658192,212.569675 Z M695.177558,176.185896 C694.962274,176.520309 694.91663,176.934463 695.000191,177.322036 C694.719676,176.549045 694.40861,175.787727 694.057291,175.043111 C694.463779,175.396202 694.837561,175.777669 695.177558,176.185896 Z M641.25183,193.959681 C641.340424,194.019846 641.427759,194.082346 641.512759,194.148798 C641.581765,194.202857 641.648794,194.265537 641.715284,194.33109 C641.545465,194.225846 641.388944,194.10318 641.25183,193.959681 Z M641.750326,189.451938 C641.773867,189.548203 641.795072,189.645007 641.812862,189.742708 C641.83856,189.88513 641.85024,190.030066 641.860663,190.175181 C641.795072,189.937932 641.756975,189.696731 641.750326,189.451938 Z M643.178603,191.510855 C643.08947,191.604785 642.991532,191.690274 642.888203,191.770016 C642.873288,191.748464 642.851185,191.731941 642.824768,191.722602 C642.934567,191.640705 643.052272,191.568866 643.178603,191.510855 Z M643.067547,193.285288 C642.982727,193.450339 642.894852,193.613774 642.801407,193.774155 C642.786132,193.800377 642.767623,193.828035 642.747676,193.856771 C642.817221,193.646461 642.925402,193.453392 643.067547,193.285288 Z M643.858238,195.361088 C643.842604,195.465434 643.823736,195.569781 643.797319,195.673948 C643.774317,195.765005 643.743229,195.853547 643.709624,195.94137 C643.734783,195.741657 643.784201,195.54769 643.858238,195.361088 Z M657.758782,165.146696 C657.702176,164.976616 657.661563,164.802586 657.643233,164.623885 C657.63928,164.585451 657.640717,164.542527 657.642874,164.498884 L657.739194,164.939799 C657.763454,165.050431 657.78448,165.16304 657.807302,165.275289 C657.790769,165.232544 657.773158,165.1898 657.758782,165.146696 Z M662.753978,159.794123 C662.645078,160.02778 662.52935,160.257666 662.406253,160.484679 C662.471845,160.229829 662.586675,159.994734 662.753978,159.794123 Z M681.37621,163.137528 L681.397415,163.142018 C681.617192,163.216551 681.027228,163.321616 680.955526,163.332572 L680.914914,163.337062 C681.075208,163.286774 681.229034,163.219425 681.37621,163.137528 Z M698.265569,191.061679 L698.26503,191.068145 C698.279959,191.151534 698.258446,191.16407 698.200773,191.105894 L698.185602,191.089876 C698.166014,191.071019 698.148583,191.050006 698.129894,191.03025 C698.173741,191.045875 698.219206,191.055753 698.265569,191.061679 Z M699.971847,197.665336 C699.623583,197.166052 699.121853,196.774348 698.553273,196.554879 C698.52524,196.544103 698.498284,196.54069 698.472946,196.542846 C698.375547,196.103548 698.254967,195.669279 698.115877,195.242014 C698.324871,195.417661 698.544288,195.58343 698.767838,195.725313 C698.959042,195.846901 699.269029,195.918382 699.393204,195.666046 C699.537325,195.372761 699.179537,195.088637 698.980606,194.935978 C698.7062,194.725488 698.294681,194.489496 697.936534,194.520746 C697.912094,194.522901 697.889631,194.531163 697.868247,194.542118 C697.73347,194.190465 697.586473,193.844917 697.426897,193.507811 C697.526452,192.54642 697.559158,191.584311 697.541907,190.623459 C697.615764,190.838798 697.723766,191.041924 697.865012,191.229245 C698.03537,191.455 698.341404,191.714161 698.574299,191.396092 C698.771612,191.126874 698.641148,190.733912 698.493972,190.474213 C698.299533,190.130821 697.982358,189.891057 697.608756,189.774318 C697.577128,189.764619 697.545321,189.765158 697.514771,189.770905 C697.492488,189.315084 697.458525,188.859443 697.416115,188.40452 C697.45547,188.454089 697.49734,188.501862 697.542805,188.546403 C697.972654,188.9681 698.638812,189.105493 698.974856,188.507609 C699.228237,188.056817 699.121134,187.224558 698.44671,187.282209 C698.009493,187.319566 697.826735,187.987133 698.285876,188.136918 C698.400526,188.174454 698.493972,188.014252 698.40448,187.933254 C698.254967,187.828907 698.297736,187.712168 698.532967,187.583036 C698.696317,187.630989 698.78527,187.745753 698.799826,187.926788 C698.816897,188.079806 698.750048,188.263894 698.668822,188.387997 C698.450124,188.72223 698.069693,188.591482 697.812,188.38207 C697.403356,188.049633 697.249351,187.502576 697.383049,187.000778 C697.409466,186.901999 697.314942,186.85243 697.242522,186.880447 C697.166328,186.317047 697.078453,185.754904 696.981594,185.194377 C697.222934,185.538667 697.573714,185.827282 697.903289,186.019632 C698.051004,186.105839 698.251373,185.96234 698.19872,185.792619 C698.093774,185.454256 697.927009,185.148938 697.691599,184.882953 L697.634298,184.819377 C697.441128,184.60906 697.141238,184.326591 696.865326,184.350803 C696.853286,184.351701 696.841785,184.354754 696.830643,184.357807 C696.776193,184.068653 696.720126,183.780039 696.661902,183.491963 C696.27069,181.557867 695.800408,179.625207 695.154376,177.756665 C695.185824,177.818267 695.220148,177.878433 695.258424,177.935186 C695.33354,178.046716 695.513602,178.06737 695.584046,177.935186 C695.756021,177.612268 695.798072,177.242295 695.715768,176.898004 C696.02234,177.345564 696.292973,177.820602 696.521734,178.324735 C696.552823,178.393521 696.581575,178.463026 696.610687,178.532171 C696.573489,178.566115 696.548151,178.614966 696.546354,178.679442 C696.545455,178.718415 696.54258,178.756669 696.540423,178.795103 C696.29441,179.263496 696.238882,179.862277 696.181198,180.369104 C696.158735,180.565765 696.467464,180.63958 696.552284,180.4695 C696.73001,180.112817 696.846098,179.730811 696.909892,179.339287 C697.075398,179.847371 697.209457,180.362818 697.342976,180.878266 C697.051498,181.381681 696.909353,181.99932 696.953201,182.572059 C696.967756,182.761356 697.198315,182.827089 697.306496,182.667606 C697.436421,182.475615 697.564369,182.222201 697.635891,181.95891 C697.693216,182.154313 697.753596,182.348998 697.819547,182.542246 C697.701662,182.757046 697.758987,183.109598 697.808406,183.31865 C697.914969,183.769442 698.196564,184.133488 698.568368,184.400013 C698.705482,184.498433 698.87584,184.363913 698.882848,184.219696 C698.914296,183.579427 698.707099,182.855466 698.247599,182.393 C698.201236,182.346304 698.13834,182.332116 698.079218,182.341634 C698.026565,181.964478 697.950551,181.581574 697.857824,181.198849 C698.199798,181.600611 698.690746,181.915806 699.126166,182.156289 C699.290055,182.246627 699.457358,182.067926 699.375234,181.907365 C699.064348,181.300502 698.531709,180.866772 697.893405,180.638502 C697.820985,180.61264 697.760964,180.629342 697.718015,180.666879 C697.560057,180.110303 697.369033,179.559834 697.158601,179.03361 C697.385206,179.160047 697.636969,179.262778 697.849198,179.356348 C698.086945,179.461234 698.38615,179.48548 698.538358,179.230091 C698.897404,178.627538 697.499137,178.382925 697.174055,178.301926 C697.037661,178.267802 696.936129,178.369994 696.928761,178.484398 C696.882038,178.378076 696.834956,178.27301 696.787155,178.169741 C696.516703,177.584609 696.187847,177.03881 695.808315,176.533958 C695.816042,176.536293 695.823589,176.539167 695.832215,176.540424 C695.978313,176.56431 696.12513,176.582091 696.272127,176.598793 C696.478606,176.64513 696.689038,176.678715 696.902884,176.704756 C697.063538,176.724333 697.124996,176.503067 697.028137,176.402672 C696.59703,175.956729 695.994127,175.790241 695.389967,175.91165 C695.364089,175.916858 695.342525,175.929789 695.322938,175.945594 C694.893448,175.469478 694.412564,175.038262 693.874713,174.664697 C693.813794,174.541313 693.753234,174.41757 693.689979,174.295084 C693.388977,173.712466 693.058863,173.14709 692.703771,172.598596 C692.855619,172.676363 693.012859,172.745328 693.177108,172.803698 C693.336504,172.860271 693.535614,172.676901 693.468585,172.512389 C693.21772,171.896726 692.700536,171.449525 692.033479,171.350387 C691.964294,171.34015 691.904633,171.357391 691.856652,171.38918 C691.601115,171.051355 691.335155,170.721433 691.059311,170.399952 C691.186361,170.43641 691.317544,170.461015 691.453399,170.468379 C691.873724,170.491727 692.491003,170.291295 692.403847,169.759144 C692.329989,169.30925 691.715945,169.026742 691.303707,169.154436 C690.93909,169.267224 690.75759,169.712269 691.04817,169.992802 C691.141435,170.082601 691.305684,169.966042 691.232005,169.851099 C690.738362,169.080621 692.650579,169.488489 691.953152,170.079728 C691.796811,170.212271 691.510005,170.202393 691.319161,170.182278 C691.092197,170.158392 690.882663,170.088528 690.691639,169.984361 C689.9536,169.169523 689.150689,168.411976 688.288834,167.7216 C688.605291,167.76632 688.921568,167.812117 689.238204,167.8554 C689.409461,167.878928 689.638581,167.698072 689.50075,167.514163 C689.064791,166.932444 688.131595,166.516135 687.455014,166.960641 C687.422308,166.982013 687.401462,167.008234 687.385649,167.035533 C686.76208,166.587794 686.114611,166.173102 685.447375,165.793251 C685.753229,165.7981 686.059263,165.728416 686.333489,165.571806 C686.81653,165.295763 687.07674,164.740444 686.713381,164.254451 C685.983069,163.277435 684.6707,164.562462 685.487988,165.299355 C685.569393,165.372811 685.713515,165.277264 685.647205,165.176689 C685.493199,164.94357 685.466244,164.628914 685.63211,164.391844 C685.980733,163.893817 686.6778,164.358618 686.566025,164.872809 C686.410582,165.58797 685.429405,165.630355 684.808712,165.44447 C683.556184,164.785344 682.240041,164.246908 680.882567,163.844787 C680.611935,163.764506 680.339685,163.692308 680.066717,163.623881 L680.196103,163.580418 L680.241024,163.590938 C680.694123,163.687077 682.247778,163.764963 681.95647,162.982355 C681.881714,162.781743 681.720161,162.688173 681.516558,162.66267 C681.444857,162.587418 681.330027,162.549523 681.223283,162.608431 C681.169912,162.638065 681.115462,162.664645 681.061551,162.692842 C680.561079,162.79647 680.004899,163.086342 679.785482,163.225172 C679.67209,163.297011 679.654299,163.431172 679.699404,163.533183 C679.329397,163.447695 678.957592,163.373341 678.584349,163.307608 C678.64419,163.274202 678.697921,163.240438 678.74069,163.208649 C679.199472,162.86831 679.426616,162.207028 679.078352,161.705769 C678.796758,161.300415 678.107778,161.206306 677.803002,161.639317 C677.559864,161.984326 677.724831,162.575924 678.171572,162.629264 C678.291254,162.643453 678.319108,162.469422 678.229616,162.414824 C677.958984,162.249952 677.818276,161.80832 678.214701,161.666616 C678.601601,161.528326 678.927042,161.883931 678.927761,162.249952 C678.92866,162.701463 678.486052,163.139863 678.028529,163.216192 C677.875602,163.193383 677.722495,163.171652 677.569209,163.151716 L677.551059,163.143814 C677.530033,163.13214 677.505594,163.132858 677.484748,163.141479 C675.92996,162.945537 674.355765,162.90423 672.785522,162.975171 C673.136302,162.851428 673.45186,162.619566 673.686911,162.329155 C673.801741,162.187272 673.732556,161.971215 673.535781,161.964391 C673.407114,161.96008 673.280244,161.96906 673.156609,161.989714 C673.105393,161.975526 673.049506,161.980016 672.996493,162.013241 L672.9681,162.031381 C672.477332,162.164463 672.04946,162.486483 671.768585,162.923447 C671.744864,162.960623 671.735879,163.000135 671.737676,163.038928 C671.5418,163.053655 671.345924,163.06964 671.150408,163.0876 C670.697736,163.129087 670.243268,163.177578 669.78862,163.229842 C669.895544,163.143096 669.978386,163.062276 670.013608,163.011809 C670.329526,162.558143 670.26645,161.807781 669.66768,161.628542 C669.16649,161.478756 668.472837,161.907278 668.708068,162.488818 C668.904663,162.974991 669.680799,162.718166 669.454553,162.234148 C669.391477,162.09909 669.215189,162.204155 669.233339,162.327359 C669.126236,162.498696 669.045729,162.486663 668.991819,162.29126 C668.992358,162.189428 669.029017,162.104478 669.101797,162.036769 C669.183202,161.95595 669.315104,161.916438 669.426519,161.918413 C669.707574,161.923442 669.877753,162.143271 669.878472,162.416081 C669.87937,162.66716 669.753578,162.877829 669.57136,163.041982 C669.438919,163.161415 669.266943,163.227866 669.110243,163.311379 L668.863511,163.344425 C668.845361,163.336703 668.824156,163.335625 668.803131,163.348556 L668.794505,163.353765 C667.065226,163.586524 665.337564,163.911238 663.660578,164.385019 L663.783495,164.251039 C664.251441,163.99116 664.644451,163.615978 664.912567,163.140222 C664.999004,162.986845 664.855601,162.788389 664.680751,162.838856 C664.169496,162.986126 663.746297,163.327004 663.515738,163.78947 L663.134768,164.062101 C663.014008,164.149206 663.014008,164.329164 663.097031,164.422735 C663.079959,164.466736 663.086249,164.51002 663.105836,164.548094 C662.458547,164.745114 661.819165,164.964224 661.191463,165.210633 C659.898143,165.717999 658.655499,166.345336 657.475571,167.074327 C657.646648,166.733449 657.831382,166.40191 658.025281,166.076478 L658.030852,166.081865 C658.097522,166.139876 658.206781,166.069653 658.16491,165.987576 C658.236971,165.971053 658.302562,165.911786 658.302742,165.830428 C658.302922,165.768825 658.298429,165.707941 658.291421,165.647417 C658.481007,165.352336 658.677782,165.062285 658.888753,164.781932 L658.899894,164.792528 C659.614212,165.253378 660.555675,165.1986 661.292276,164.822701 C661.492285,164.720509 661.37494,164.453087 661.18733,164.435307 L660.732933,164.391028 C660.216948,164.343065 659.64065,164.309102 659.167651,164.425429 C659.454457,164.069824 659.758334,163.726252 660.085752,163.399023 C660.433881,163.051411 660.798108,162.734324 661.175783,162.439702 L661.373322,162.288566 C661.542962,162.348731 661.880084,162.404946 661.96095,162.4256 L662.160715,162.477352 C662.327272,162.519757 662.494616,162.557528 662.667002,162.569458 C663.047253,162.5955 663.382758,162.500313 663.663454,162.241332 C663.770377,162.142552 663.723654,161.92901 663.573602,161.900992 L663.352106,161.859943 C662.971623,161.791013 662.540162,161.725285 662.14227,161.749232 C662.754697,161.34729 663.395337,160.984681 664.057542,160.63608 C664.063652,160.64075 664.068144,160.646497 664.074793,160.650448 C664.190881,160.71654 664.311282,160.773653 664.434558,160.821426 C664.958751,161.11022 665.59975,161.135723 666.176596,160.957921 C666.334914,160.90907 666.382715,160.675053 666.224577,160.590822 C665.567044,160.240425 664.85614,160.133205 664.124391,160.271316 C664.043884,160.286402 663.99788,160.348184 663.982965,160.418407 C663.482134,160.599442 662.99478,160.825736 662.524318,161.089567 C662.890552,160.513953 663.176459,159.879612 663.404502,159.239343 C663.462366,159.076268 663.260201,158.945161 663.123088,159.023106 C662.420989,159.421995 661.963286,160.244556 662.089258,161.048977 L662.085664,161.055263 C662.022049,161.1641 662.069131,161.26234 662.151255,161.308856 C661.410341,161.764857 660.717767,162.316763 660.086831,162.9353 C660.231312,162.37154 660.176862,161.690683 660.130858,161.136262 C660.115403,160.950737 659.857889,160.846211 659.756178,161.034789 C659.427501,161.644526 659.228031,162.560478 659.589234,163.207931 C659.619244,163.26181 659.662193,163.298807 659.708556,163.322335 C659.149142,163.91932 658.647592,164.570005 658.214149,165.253198 C658.192764,165.166811 658.170301,165.080245 658.150175,164.993499 C658.078473,164.685667 658.036423,164.350536 657.929859,164.053301 C657.850251,163.831137 657.620591,163.581675 657.387516,163.814614 C657.145097,164.056533 657.275382,164.637175 657.344567,164.924892 C657.43334,165.294326 657.594174,165.616167 657.838211,165.889516 C657.590401,166.336177 657.369187,166.792537 657.184452,167.255721 L657.069982,167.331691 C657.197031,167.081151 657.222729,166.778708 657.123353,166.505718 C656.957128,166.048999 656.465462,165.858086 656.015486,165.998891 C655.577551,166.135925 655.200355,166.606113 655.383831,167.078457 C655.635415,167.726628 656.346498,167.205254 656.528358,166.805109 C656.579034,166.693758 656.43599,166.550797 656.343084,166.662328 L656.262718,166.75882 C656.179577,166.857259 656.087592,166.957139 655.982061,167.018831 C655.72311,167.169693 655.584918,166.879462 655.673332,166.656042 C655.774325,166.400473 656.07353,166.238655 656.340209,166.238296 C657.066567,166.237398 657.099812,167.248896 656.61749,167.598754 C656.596645,167.613841 656.586581,167.633776 656.583886,167.65425 C655.81997,168.174188 655.084446,168.735972 654.383246,169.338884 C654.012879,169.657312 653.652755,169.987414 653.301436,170.326676 C653.388951,169.847866 653.372958,169.361334 653.241056,168.884141 C653.204037,168.749981 653.022537,168.695203 652.923881,168.800448 C652.452341,169.303503 652.284858,170.209937 652.804738,170.745858 C652.818215,170.759688 652.834928,170.766692 652.852179,170.770643 C652.604549,171.021722 652.364107,171.279625 652.126899,171.540582 C652.234541,171.200781 652.170387,170.807281 651.883402,170.567697 C651.523098,170.26669 650.903843,170.280698 650.645071,170.708861 C650.413434,171.092304 650.551625,171.701322 651.021368,171.823449 C651.451397,171.935519 651.950431,171.553872 651.843328,171.097871 C651.813138,170.96892 651.631998,171.006995 651.623192,171.127685 C651.602886,171.404805 651.261092,171.660374 651.002859,171.483829 C650.768167,171.323447 650.786317,170.911269 651.011844,170.750887 C651.239527,170.58871 651.582759,170.66001 651.765697,170.855773 C652.022492,171.130379 651.960494,171.534116 651.776119,171.826682 C651.754735,171.860626 651.764978,171.895828 651.78762,171.919894 C650.655314,173.215876 649.648979,174.62303 648.78946,176.114955 L648.628986,175.156618 C648.578849,174.856149 648.570762,174.510961 648.468871,174.224322 C648.380637,173.976296 648.131569,173.810707 647.891306,173.989407 C647.56263,174.233841 647.695071,174.756293 647.778094,175.077594 C647.917363,175.61603 648.163376,176.098612 648.522243,176.522823 C648.530149,176.532162 648.538955,176.53773 648.54794,176.543297 C647.950608,177.625558 647.431627,178.750383 646.992613,179.905022 C646.980932,179.787924 646.953079,179.671364 646.90366,179.556421 C646.748757,179.196147 646.4084,178.951354 646.005866,179.013315 C645.243926,179.130414 645.003664,180.264937 645.793277,180.534514 C645.914397,180.576002 646.012335,180.404306 645.91871,180.319356 C645.763087,180.178371 645.62238,180.009369 645.635319,179.783972 C645.654726,179.44489 646.023297,179.246793 646.325736,179.373051 C646.933491,179.626824 646.688017,180.472194 646.555936,180.935737 C646.541559,180.986025 646.55935,181.02392 646.58954,181.046191 C646.375514,181.69957 646.18467,182.360313 646.024375,183.028778 C645.978551,183.219871 645.935242,183.411323 645.893731,183.603134 C645.789683,183.951735 645.693183,184.30285 645.602972,184.65612 L645.304306,184.013157 C645.206368,183.802488 645.123346,183.545842 644.980122,183.361395 C644.809764,183.142105 644.458446,183.033268 644.311628,183.346488 C644.175593,183.636539 644.393573,184.067037 644.51613,184.327455 C644.703021,184.724188 644.961613,185.010468 645.31401,185.262804 C645.397212,185.322251 645.466578,185.200124 645.414284,185.133134 L645.38661,185.095777 C645.418957,185.118586 645.453459,185.127027 645.487423,185.124333 C645.252192,186.116794 645.073208,187.126497 644.948495,188.148413 C644.877333,187.731385 644.690801,187.343093 644.306237,187.11195 C643.874771,186.85243 643.243116,186.928759 642.984344,187.397332 C642.775889,187.774848 642.959006,188.342918 643.401614,188.452652 C643.835416,188.560411 644.2685,188.125963 644.107846,187.703008 C644.069749,187.602972 643.894179,187.605307 643.904961,187.730487 C643.944496,188.19421 643.33728,188.340044 643.208254,187.871472 C643.105104,187.49647 643.465229,187.216656 643.817266,187.231203 C644.522779,187.260837 644.761604,188.089684 644.812999,188.656856 C644.817132,188.703192 644.84894,188.729054 644.883802,188.736238 C644.785864,189.710201 644.736266,190.694401 644.742556,191.686862 C644.760166,194.450164 645.185343,197.333977 646.018804,200.110031 C645.639092,199.7212 645.284179,199.317822 644.953886,198.901153 C645.02397,198.872597 645.082912,198.809917 645.092976,198.71904 C645.171686,198.017708 645.116157,197.324638 644.901772,196.651143 C644.843908,196.469749 644.611732,196.485554 644.548117,196.651143 C644.349546,197.16713 644.312527,197.74849 644.482705,198.269865 C644.140551,197.787104 643.828947,197.288898 643.552744,196.77363 C643.578621,196.780275 643.605756,196.779556 643.631274,196.771834 C643.673145,196.777222 643.717531,196.766266 643.755808,196.727473 C644.23831,196.23663 644.31037,195.290326 644.25628,194.641616 C644.241365,194.462197 644.02662,194.401852 643.922931,194.551278 C643.511592,195.14539 643.321287,195.864502 643.448337,196.576969 C643.144639,195.987347 642.884789,195.377431 642.671302,194.748118 C642.748934,194.726386 642.783437,194.672327 642.815244,194.593124 C642.828722,194.55936 642.822432,194.519489 642.80572,194.484467 C642.856576,194.38479 642.959545,194.270386 643.001775,194.200702 C643.105644,194.029365 643.20448,193.854615 643.298105,193.677531 C643.461994,193.367185 643.605217,193.048218 643.737658,192.723325 C643.801452,192.567074 643.594974,192.44369 643.467565,192.515888 C642.914979,192.828749 642.535986,193.377961 642.440744,193.989674 C642.318007,193.541396 642.215756,193.085036 642.139562,192.618978 C642.148906,192.596169 642.157891,192.57318 642.167955,192.55073 C642.404444,192.528281 642.69682,192.32282 642.833035,192.2332 C643.203402,191.989126 643.502247,191.669082 643.734783,191.292643 C643.807203,191.175365 643.68788,191.042822 643.564065,191.070839 C642.951638,191.208232 642.414148,191.610892 642.129498,192.161361 L642.091401,192.146275 C642.084393,192.143401 642.076486,192.143401 642.068939,192.142144 C642.020059,191.758342 641.984658,191.369691 641.967946,190.974754 C642.015567,190.992534 642.06822,190.973676 642.097511,190.934165 C642.153758,190.929675 642.20695,190.896988 642.222764,190.832871 C642.392763,190.137106 642.085651,189.235522 641.826699,188.595074 C641.771531,188.458759 641.54205,188.416553 641.505391,188.595074 C641.349768,189.350465 641.447886,190.118608 641.828496,190.786355 L641.826699,190.794617 C641.809089,191.286537 641.825621,191.782588 641.870906,192.27828 C641.857608,192.320485 641.863359,192.364846 641.882946,192.406513 L641.894088,192.525766 C641.384631,192.008882 640.822341,191.540669 640.246214,191.101191 C640.126532,191.009776 639.97091,191.160099 640.004694,191.286716 C640.206679,192.04121 641.00438,192.663878 641.743317,192.856946 L641.750505,192.857485 L641.766499,192.872751 C641.822926,192.92663 641.888877,192.930761 641.943326,192.907233 C642.008019,193.356768 642.100387,193.803969 642.214138,194.246679 C642.068579,194.107849 641.900557,193.985722 641.755357,193.873114 C641.445011,193.632273 641.112381,193.420167 640.758187,193.249728 C640.600408,193.173758 640.427175,193.329469 640.515049,193.492725 C640.882362,194.175019 641.522642,194.706451 642.302193,194.822831 C642.326273,194.833427 642.353228,194.837378 642.380004,194.834684 C642.552878,195.39557 642.764388,195.945501 643.012378,196.477472 C642.523047,196.207894 641.924997,196.026679 641.446808,195.905989 C641.276629,195.862886 641.158205,196.069963 641.277528,196.19658 C641.767937,196.716158 642.459612,197.096727 643.190463,197.069787 C643.205379,197.069249 643.217958,197.064579 643.229638,197.058114 C643.260727,197.071583 643.292175,197.084335 643.323803,197.096368 C643.59156,197.596729 643.892921,198.077874 644.22591,198.533515 C643.73658,198.360921 643.226943,198.281359 642.697,198.302551 C642.489263,198.310993 642.447033,198.554349 642.597983,198.668394 C643.115527,199.0592 643.819962,199.289086 644.468689,199.145048 C644.519544,199.133733 644.583339,199.117749 644.640305,199.092066 L644.658814,199.08596 C645.112563,199.633376 645.614293,200.13733 646.164363,200.581477 C646.292132,200.982879 646.429425,201.381408 646.574625,201.777064 C646.270568,201.548614 645.879175,201.390029 645.594346,201.330941 C645.119751,201.232701 644.538054,201.399009 644.330857,201.875484 C643.862551,202.953254 645.723732,203.46493 645.818436,202.280658 C645.826882,202.174156 645.655625,202.124228 645.611238,202.224623 C645.445912,202.598547 644.940228,202.851961 644.686309,202.409789 C644.455211,202.007489 644.885419,201.645957 645.273757,201.620095 C645.686893,201.592616 646.463928,201.908709 646.773556,202.302928 C647.111576,203.170748 647.491108,204.021326 647.91341,204.846941 L647.930841,204.927221 C647.81637,204.833471 647.692196,204.749059 647.582757,204.673269 C647.316437,204.488821 647.029991,204.338677 646.727552,204.223195 C646.561147,204.159617 646.427987,204.372801 646.506517,204.510553 C646.872212,205.15136 647.546457,205.691772 648.308217,205.724279 C648.334813,205.725536 648.355838,205.717634 648.373988,205.706678 C649.00133,206.827014 649.710437,207.89347 650.500769,208.887188 C650.123753,208.72968 649.637118,208.721778 649.292628,208.77907 C649.147788,208.803136 649.120293,208.999257 649.209965,209.09193 C649.256148,209.139524 649.304668,209.183705 649.354446,209.22609 C649.372236,209.262908 649.402786,209.292003 649.445196,209.299007 C649.903078,209.645094 650.484057,209.774764 651.056051,209.625697 C651.073302,209.621207 651.0866,209.614023 651.098461,209.605761 C651.728498,210.331339 652.406696,211.010401 653.130898,211.636841 C653.106638,211.635224 653.083996,211.634506 653.064229,211.634865 C652.552435,211.648515 652.01153,212.070391 652.145948,212.627865 C652.261317,213.106854 652.945086,213.482754 653.411774,213.305311 C653.646106,213.21623 653.739192,212.972874 653.63784,212.741192 C653.526064,212.485982 653.242314,212.421686 652.989292,212.42438 C652.902316,212.425278 652.885604,212.550279 652.968806,212.575063 C653.117421,212.58099 653.181215,212.671148 653.160549,212.845179 C653.296764,213.037888 653.281669,213.114936 653.115264,213.076682 C653.006903,213.088535 652.837983,213.014361 652.745436,212.963535 C652.397172,212.772083 652.248558,212.33943 652.605268,212.063926 C652.848945,211.875707 653.144915,211.870858 653.434596,211.948803 C653.46209,211.956167 653.499648,211.96802 653.542597,211.982927 C654.830706,213.035015 656.259882,213.920435 657.832999,214.589799 C658.9326,215.057473 660.066165,215.3944 661.241061,215.60938 C661.291018,215.618539 661.330373,215.596808 661.354454,215.5643 C661.865887,215.718755 662.389182,215.834057 662.923258,215.910027 C662.708513,215.945947 662.494847,215.98492 662.281719,216.025509 C662.24488,216.004496 662.198337,215.997851 662.147302,216.022636 C662.116932,216.037183 662.08782,216.053347 662.058529,216.069331 C661.497677,216.179066 660.939879,216.296164 660.379027,216.397637 C660.378308,216.382012 660.374894,216.365848 660.368065,216.349684 C660.214761,215.979783 659.718604,215.704542 659.369701,215.49578 L659.315906,215.463366 C659.085168,215.3231 658.622972,214.976474 658.386304,215.294723 C658.161855,215.596448 658.560795,215.976658 658.773024,216.155179 C658.984355,216.333161 659.227133,216.464807 659.488241,216.539879 C659.030718,216.601841 658.568702,216.644944 658.09824,216.654463 C657.677556,216.662904 657.260287,216.647279 656.84733,216.608665 C656.851283,216.581546 656.851643,216.552631 656.844095,216.52156 C656.657025,215.753238 656.096891,215.130031 655.347711,214.872667 C655.196401,214.820763 655.059647,214.980785 655.096846,215.123386 C655.20916,215.552626 655.421209,215.954568 655.733353,216.273175 L655.795384,216.33527 C655.841813,216.380835 655.897721,216.433557 655.959059,216.486359 C655.647275,216.429606 655.338007,216.360101 655.033051,216.273894 C655.005557,216.203491 654.944997,216.144224 654.851013,216.134346 C654.805368,216.129497 654.759903,216.126264 654.714438,216.123211 L654.70743,216.119978 C654.633572,216.098785 654.555581,216.093218 654.475793,216.098247 C654.111176,215.970911 653.75249,215.821665 653.401351,215.648173 C653.43208,215.594473 653.437651,215.525866 653.397936,215.453847 C653.053446,214.828306 652.397711,214.451867 651.697769,214.386134 C651.575212,214.37464 651.450139,214.528556 651.499557,214.646193 C651.746289,215.235815 652.358536,215.722527 653.011216,215.631829 C653.01499,215.657512 653.029007,215.682476 653.058119,215.700616 C653.326594,215.869438 653.604235,216.018864 653.889064,216.15033 C653.463708,216.207981 653.049133,216.331006 652.649295,216.516531 C652.514518,216.579032 652.516674,216.806224 652.649295,216.869263 C653.453644,217.252706 654.4111,217.22846 655.135302,216.678709 C655.158843,216.660749 655.172501,216.639018 655.182384,216.616388 C655.959958,216.827416 656.768081,216.933739 657.577642,216.958703 C657.512499,217.005398 657.448885,217.054564 657.387067,217.10319 L657.207274,217.244444 C656.920469,217.464811 656.649657,217.702061 656.391065,217.954576 C656.203635,218.137947 656.440663,218.404111 656.658103,218.300483 C657.325878,217.982953 657.913686,217.588016 658.327721,216.962654 L658.329338,216.958344 C659.348612,216.935355 660.411913,216.814126 661.436757,216.588371 C661.145998,216.943437 660.961264,217.386506 660.892977,217.84556 C660.867459,218.017795 661.035122,218.200088 661.210871,218.089814 C661.857621,217.683922 662.323411,217.083344 662.548398,216.353456 C662.555227,216.331545 662.557743,216.310891 662.558102,216.291135 C662.793513,216.218218 663.026048,216.141171 663.252294,216.056041 C663.270444,216.075438 663.293266,216.091961 663.325253,216.10112 C664.262043,216.367105 665.221656,216.556402 666.193308,216.69164 C665.81755,216.934098 665.511337,217.364595 665.44251,217.72954 C665.32768,218.338738 665.730214,218.897469 666.351626,218.955299 C666.879413,219.004509 667.483933,218.588559 667.364071,218.002709 C667.269548,217.541141 666.561699,217.372498 666.396013,217.870165 C666.35522,217.992651 666.536181,218.106876 666.62118,218.001092 C666.71211,217.847356 666.847246,217.881121 667.026769,218.102206 C667.014011,218.265282 666.940872,218.393336 666.807532,218.486727 C666.707977,218.553897 666.587217,218.581914 666.468793,218.58389 C666.156649,218.589457 665.868765,218.396209 665.807846,218.080295 C665.730035,217.676917 665.987369,217.293834 666.296098,217.065744 C666.416319,216.976842 666.556667,216.917934 666.686592,216.845915 C666.698048,216.848878 666.710313,216.848306 666.721112,216.841849 L666.795852,216.778386 L666.808071,216.769406 C668.196634,216.930506 669.605683,216.992108 671.006466,217.015097 C670.684978,217.230615 670.395656,217.508993 670.188639,217.749116 C670.065363,217.892076 670.179294,218.151955 670.385233,218.086761 C670.906731,217.92153 671.438291,217.595739 671.774156,217.146743 C671.859514,217.111182 671.942896,217.072209 672.022325,217.026771 C672.662067,217.030542 673.298753,217.029824 673.92915,217.030363 C674.167616,217.030722 674.406261,217.029105 674.645086,217.026591 C674.428544,217.173323 674.255131,217.376629 674.167257,217.641357 C673.989171,218.178536 674.23177,218.889746 674.844017,218.989423 C675.336402,219.069524 675.92996,218.685722 675.855384,218.141359 C675.785839,217.634173 675.003773,217.413087 674.955612,218.023901 C674.944471,218.163809 675.142683,218.170813 675.185452,218.055152 C675.46471,218.035755 675.57379,218.119627 675.512691,218.30641 C675.485735,218.384356 675.441169,218.448831 675.378812,218.500017 C675.298665,218.573473 675.184374,218.624299 675.076912,218.642618 C674.705286,218.705657 674.464125,218.39154 674.433756,218.051739 C674.384337,217.500731 674.777527,217.173503 675.238285,217.017432 C676.481827,216.99121 677.728245,216.921346 678.964959,216.780362 C678.689475,217.033775 678.433039,217.306944 678.199606,217.607592 C678.086393,217.753426 678.144796,217.999117 678.360619,217.996064 C679.035942,217.986365 679.763738,217.54132 679.891686,216.837833 C679.903367,216.773716 679.8836,216.713371 679.847479,216.665598 C680.726585,216.53952 681.599042,216.37393 682.460177,216.15931 C682.35595,216.309095 682.288202,216.484024 682.276341,216.675296 C682.24076,217.253783 682.781486,217.752528 683.348268,217.737083 C683.858624,217.723074 684.397552,217.088732 684.004722,216.616388 C683.739121,216.296882 682.997848,216.504678 683.16551,216.970018 C683.213205,217.102033 683.376468,217.080367 683.410042,216.959971 L683.414758,216.936253 C683.443151,216.708163 683.754037,216.694873 683.803095,216.946311 C683.838497,217.127705 683.645137,217.315745 683.494007,217.368906 C683.248353,217.455113 682.961368,217.33137 682.791729,217.150694 C682.382366,216.714808 682.705112,216.202054 683.149696,215.975222 C683.281419,215.937865 683.412781,215.899431 683.543964,215.85956 L683.567326,215.857046 C683.59482,215.855789 683.615126,215.845731 683.6313,215.83262 L683.875516,215.757369 C684.345798,215.605788 684.811767,215.436965 685.271806,215.252158 C685.035497,215.607943 684.921565,216.002161 685.227779,216.246775 C685.484394,216.452056 685.781982,216.28 685.923947,216.030538 C686.109041,215.705465 686.116948,215.249644 686.158639,214.870152 C687.640108,214.189115 689.031725,213.317164 690.24975,212.23652 C690.210036,212.401032 690.177151,212.565724 690.15954,212.729338 C690.132225,212.981674 690.194941,213.292918 690.478332,213.369786 C690.791374,213.454737 691.040981,213.176538 691.074406,212.891695 C691.118254,212.519747 690.977007,212.05746 690.872061,211.675454 L690.882124,211.639535 L691.036695,211.487209 C691.062346,211.461692 691.087764,211.43593 691.112683,211.409649 C691.469393,211.034108 691.79735,210.638094 692.104642,210.22807 C692.098172,210.411081 692.126565,210.598043 692.202041,210.785364 C692.436912,211.368521 693.218439,211.737955 693.759704,211.309971 C694.143728,211.00627 694.224055,210.330801 693.789355,210.031769 C693.433004,209.786438 692.706107,209.961187 692.750134,210.475018 C692.759658,210.586728 692.890482,210.621032 692.955354,210.530514 C693.155543,210.251598 693.688182,210.086726 693.724662,210.598761 C693.764196,211.150488 693.093546,211.256631 692.737914,210.977714 C692.310761,210.642763 692.333942,210.133063 692.50466,209.666466 C693.103789,208.781943 693.609113,207.836716 694.040399,206.85539 C694.115515,207.032654 694.20339,207.205607 694.307797,207.373352 C694.396929,207.516492 694.596579,207.5129 694.686431,207.373352 C694.842952,207.129996 694.836303,206.857905 694.732075,206.592817 C694.645997,206.373887 694.527753,206.160703 694.415978,205.9477 C694.677831,205.275437 694.911825,204.591826 695.123168,203.904446 L695.226976,203.560477 C695.239735,203.517553 695.252314,203.474269 695.264894,203.431345 C695.274777,203.731993 695.351331,204.032102 695.499585,204.315329 C695.767522,204.826825 696.366651,205.357 696.974585,205.059406 C697.326263,204.886991 697.431749,204.490617 697.308293,204.161593 C697.348367,204.155846 697.387542,204.136269 697.420428,204.098374 C697.796545,203.66644 698.015064,203.144706 698.06592,202.582742 L698.084878,202.586267 L698.103837,202.59262 C698.149841,202.612556 698.192969,202.588849 698.19854,202.538382 L698.19854,202.534251 C698.229629,202.523834 698.257303,202.500846 698.27096,202.459358 C698.477259,201.841001 698.61599,201.207377 698.695418,200.56657 C698.843134,200.903317 699.078544,201.20163 699.357263,201.446064 C699.454842,201.531732 699.658984,201.516646 699.682705,201.360216 C699.783878,200.693187 699.400931,200.028134 698.784731,199.758197 L698.764424,199.751552 C698.800544,198.975327 698.753103,198.193894 698.635937,197.421441 C698.702786,197.487713 698.772151,197.547519 698.835047,197.595831 C699.120235,197.81548 699.445857,197.925933 699.801848,197.961314 C699.946329,197.975503 700.053252,197.781716 699.971847,197.665336 Z" id="8"></path>
        </g>
    </g>
</svg>
