<?xml version="1.0" encoding="UTF-8"?>
<svg width="61px" height="55px" viewBox="0 0 61 55" version="1.1" xmlns="http://www.w3.org/2000/svg" xmlns:xlink="http://www.w3.org/1999/xlink">
    <title>26</title>
    <g id="页面-1" stroke="none" stroke-width="1" fill="none" fill-rule="evenodd">
        <g id="花环" transform="translate(-479.000000, -321.000000)" fill="#545458">
            <path d="M526.481054,321.082609 L526.708652,321.340769 C526.778226,321.422387 526.860473,321.521085 526.950677,321.633535 C527.220072,321.973314 527.559851,322.428374 527.831673,322.92712 C528.360757,323.942815 528.616804,325.060443 527.670278,325.593166 C528.626512,326.455961 529.500228,327.28235 530.29628,328.11238 L530.265942,328.005593 C530.123963,327.494712 530.123963,326.947426 530.193133,326.429264 C530.268369,325.906248 530.383651,325.439053 530.490439,325.09442 L530.558284,324.883732 C530.633406,324.662282 530.690665,324.530146 530.690665,324.530146 L530.81611,324.697911 C530.894532,324.805305 531.004353,324.959723 531.12995,325.147814 C531.375076,325.530065 531.655393,326.068856 531.871395,326.619782 C531.981823,326.892819 532.055846,327.187698 532.099532,327.470442 C532.143218,327.753186 532.152926,328.026222 532.114094,328.277415 C532.077689,328.524968 531.991531,328.749464 531.850766,328.93877 C531.733057,329.089243 531.578943,329.215446 531.389638,329.312526 C532.072835,330.109791 532.690503,330.930113 533.252351,331.812323 L533.264486,331.664277 C533.272981,331.527152 533.292396,331.388814 533.319093,331.252903 C533.371274,330.97744 533.451364,330.704403 533.542376,330.441075 C533.633388,330.177747 533.74867,329.922913 533.842109,329.69599 C533.907638,329.545517 533.973167,329.403673 534.036178,329.274413 L534.128494,329.090456 C534.308091,328.743397 534.444002,328.524968 534.444002,328.524968 L534.582923,328.803334 C534.639132,328.92047 534.708544,329.07007 534.783781,329.243357 C534.958524,329.682641 535.132053,330.291815 535.232773,330.902203 C535.301943,331.523512 535.270392,332.159383 535.073806,332.655702 C534.900276,333.048874 534.624813,333.357101 534.226787,333.534272 C534.5355,334.146843 534.82169,334.79514 535.088465,335.486618 L535.284711,336.011498 L535.349876,335.862057 L535.422079,335.712493 C535.550709,335.440671 535.695115,335.179769 535.857723,334.927363 C536.0394,334.642365 536.241286,334.371632 536.431002,334.131013 L536.823664,333.647126 C537.09306,333.32191 537.289646,333.121684 537.289646,333.121684 L537.341826,333.340112 L537.38291,333.532194 C537.397006,333.605062 537.41083,333.686434 537.422363,333.775301 L537.437692,333.914095 C537.463176,334.154367 537.483805,334.432257 537.493513,334.73199 C537.498367,334.878823 537.498367,335.035364 537.49594,335.189477 C537.486232,335.346018 537.465602,335.504986 537.442546,335.66274 C537.349107,336.297398 537.179218,336.925987 536.816383,337.394396 C536.583392,337.712332 536.288513,337.95503 535.923252,338.093369 C536.114984,338.865151 536.261816,339.644214 536.364963,340.428131 L536.442627,340.322557 L536.589156,340.13219 L536.744787,339.946374 C536.845507,339.823811 536.951081,339.704889 537.059082,339.59082 C537.493513,339.128479 537.964349,338.72924 538.324756,338.444068 L538.762828,338.107931 L538.929076,337.986581 L538.932649,338.13088 L538.931503,338.207437 C538.92762,338.317137 538.917524,338.467222 538.901215,338.644644 L538.887818,338.782633 C538.861121,339.020478 538.825929,339.295941 538.773749,339.59082 C538.725209,339.886913 538.62813,340.193927 538.526196,340.500941 C538.420622,340.807955 538.291992,341.112542 538.139092,341.395286 C537.980124,341.675603 537.788392,341.934077 537.574817,342.15372 C537.287219,342.443745 536.951081,342.66096 536.559122,342.767748 C536.585819,343.585643 536.573684,344.404751 536.526358,345.225073 C536.608876,345.115859 536.696247,345.009071 536.789686,344.905924 C537.010542,344.654731 537.253241,344.42174 537.505648,344.204525 C537.939385,343.832155 538.39452,343.513279 538.773236,343.270821 L539.283154,342.955341 C539.503993,342.823277 539.63897,342.749545 539.63897,342.749545 L539.620331,342.891049 C539.60674,342.981682 539.584606,343.112079 539.550434,343.271134 L539.489711,343.529822 C539.436317,343.761599 539.363507,344.032209 539.272495,344.318593 C539.223955,344.462999 539.174202,344.611045 539.118381,344.761519 C539.05892,344.913205 538.990965,345.07096 538.919368,345.2275 C538.776176,345.536941 538.6075,345.843955 538.418195,346.126699 C538.322329,346.267465 538.224036,346.402162 538.112395,346.528366 C537.99954,346.655783 537.879404,346.774705 537.755628,346.881493 C537.339399,347.237046 536.858855,347.461543 536.309143,347.485813 C536.182939,348.455394 536.011837,349.420122 535.805543,350.378783 L535.86379,350.302332 C536.288513,349.765968 536.835799,349.285424 537.42313,348.870409 C537.716796,348.664115 538.014102,348.47481 538.299273,348.306135 L538.700484,348.072537 L539.05892,347.875344 C539.504273,347.632645 539.8125,347.495521 539.8125,347.495521 L539.743082,347.764823 C539.703586,347.906504 539.646472,348.097303 539.569801,348.320697 C539.380496,348.813375 539.1111,349.463808 538.722782,350.085117 C538.521342,350.398198 538.294419,350.701572 538.04808,350.975822 C537.7981,351.251285 537.545693,351.496411 537.238679,351.691783 C536.671977,352.060685 536.053095,352.240282 535.397809,352.123787 L535.30437,352.485408 C535.076233,353.343348 534.799556,354.190367 534.471913,355.020397 C534.531374,354.958509 534.593262,354.897834 534.661218,354.835946 C534.750207,354.75262 534.84513,354.672529 534.943827,354.594596 L535.094435,354.479179 C535.246122,354.363897 535.392955,354.252256 535.553136,354.146682 C535.871071,353.931893 536.21085,353.736521 536.555482,353.55935 C536.894047,353.380967 537.248387,353.220786 537.559042,353.07638 C537.791122,352.969896 538.015012,352.87365 538.218936,352.78918 L538.673261,352.607957 C539.032093,352.470746 539.26036,352.396823 539.26036,352.396823 L539.091805,352.764938 C539.028904,352.89582 538.949154,353.056081 538.85384,353.236561 C538.727636,353.485327 538.529837,353.770498 538.328397,354.069018 C538.120889,354.36511 537.889112,354.680619 537.629424,354.979138 C537.349107,355.278871 537.049374,355.565256 536.737506,355.816449 C536.580965,355.942653 536.419571,356.061575 536.256962,356.167149 C536.175658,356.219329 536.096781,356.270296 536.011837,356.317622 C535.925679,356.364949 535.837093,356.407421 535.749722,356.447466 C535.081087,356.752053 534.40153,356.845492 533.755951,356.62585 C533.294823,357.56024 532.758459,358.470361 532.135937,359.351358 C532.23423,359.277334 532.33495,359.206952 532.442951,359.14021 L532.703548,358.988826 L532.973248,358.846544 C533.149204,358.749464 533.331228,358.659666 533.51932,358.573508 C533.893076,358.402405 534.286248,358.254359 534.680634,358.122088 L534.974906,358.025919 L535.812824,357.768961 L536.319154,357.625314 L536.772697,357.50806 C537.336972,357.369722 537.711942,357.300553 537.711942,357.300553 L537.522381,357.561315 C537.437992,357.674293 537.327364,357.819077 537.194442,357.985803 L537.090633,358.114807 C536.906182,358.357506 536.644067,358.623261 536.357682,358.899938 C536.070084,359.179041 535.749722,359.465426 535.414798,359.737249 C535.061671,360.00179 534.678207,360.249343 534.293529,360.458064 C534.104224,360.562425 533.910065,360.657077 533.718333,360.740808 C533.525387,360.823326 533.333655,360.894922 533.132215,360.945889 C532.356793,361.152183 531.634764,361.135194 531.034084,360.791775 C530.427337,361.547782 529.787826,362.308643 529.111909,363.053728 L529.195641,363.018537 L529.797534,362.800108 C529.998974,362.733365 530.207695,362.671477 530.420056,362.615657 C530.843565,362.505229 531.284064,362.417857 531.717281,362.346261 L532.654307,362.203258 C532.753302,362.188962 532.850988,362.175462 532.947764,362.163023 C533.235362,362.126618 533.506578,362.096357 533.754245,362.071727 L533.993796,362.048955 C534.600543,361.995561 534.996142,361.982213 534.996142,361.982213 L534.860598,362.107691 C534.772444,362.187753 534.643527,362.30246 534.480476,362.441043 L534.15155,362.71395 C534.02292,362.819524 533.877301,362.933592 533.7244,363.052514 C533.569073,363.167796 533.390689,363.280651 533.208665,363.399574 C532.843404,363.633778 532.445378,363.871623 532.03279,364.091265 C531.927216,364.145873 531.826496,364.201693 531.717281,364.25266 L531.384784,364.392212 C531.162714,364.483224 530.940645,364.566955 530.717362,364.639765 C530.27565,364.789024 529.835152,364.898239 529.42135,364.949206 C528.715097,365.023229 528.076799,364.932217 527.58412,364.632484 C527.027127,365.167635 526.44829,365.68337 525.846397,366.171194 C526.032062,366.144497 526.216513,366.120227 526.403391,366.102025 C526.859664,366.055912 527.340208,366.048631 527.775852,366.029215 C528.665344,366.002518 529.514789,366.040137 530.143379,366.083823 L530.646902,366.123402 L531.176063,366.174835 L531.108107,366.222161 L530.899386,366.347151 C530.790172,366.411223 530.652998,366.490149 530.491798,366.579472 L530.138525,366.77066 C529.821803,366.940549 529.444407,367.133495 529.034246,367.324013 C528.61195,367.498757 528.148395,367.672286 527.675132,367.825187 C527.440928,367.901637 527.200656,367.972019 526.962811,368.036334 C526.843889,368.069099 526.724967,368.098223 526.604831,368.126133 C526.485908,368.151616 526.359705,368.172246 526.240783,368.191662 C525.757812,368.269325 525.286976,368.309371 524.852545,368.297236 C524.262787,368.28146 523.744625,368.162538 523.338105,367.918626 C523.112395,368.049683 522.884258,368.1771 522.653694,368.299663 C522.616076,368.319079 522.586952,368.32636 522.557828,368.328787 C519.90149,369.848081 516.587437,371.006968 512.638728,371.454747 L513.86956,371.682146 C516.184392,372.104606 518.809532,372.554266 521.573684,372.975255 L525.011513,375.899776 L523.578109,375.435432 C521.444637,374.75607 517.207101,373.450469 512.775627,372.3328 L512.097781,372.163724 L511.418432,371.998212 C510.965367,371.889202 510.512307,371.782997 510.061266,371.680457 C509.61015,371.782997 509.157009,371.889202 508.70386,371.998212 L508.024381,372.163724 L507.3464,372.3328 L506.671429,372.504797 C502.26966,373.637957 498.158013,374.917218 496.239743,375.531699 L495.107379,375.899776 L498.546421,372.975255 L500.122362,372.729815 C502.718987,372.316834 505.155919,371.88756 507.283578,371.491152 C504.09573,371.111328 500.224683,370.051948 497.095082,368.328787 C497.064745,368.333641 497.0247,368.32636 496.972519,368.298449 C496.739529,368.1771 496.511392,368.049683 496.285682,367.918626 C495.880375,368.162538 495.360999,368.28146 494.771241,368.297236 C494.338024,368.309371 493.869615,368.268112 493.380577,368.191662 C493.264082,368.172246 493.139092,368.151616 493.018956,368.126133 C492.89882,368.098223 492.781111,368.069099 492.662189,368.036334 C492.42313,367.972019 492.184072,367.901637 491.948654,367.825187 C491.475391,367.672286 491.014264,367.498757 490.590754,367.3228 C490.282223,367.180821 489.99417,367.036795 489.734786,366.901983 L489.485261,366.77066 C489.229942,366.63572 489.013455,366.513982 488.844497,366.415388 L488.572848,366.256139 L488.448937,366.174835 L488.978011,366.123402 C489.121504,366.110471 489.290859,366.096928 489.481621,366.083823 L489.992009,366.052935 C490.538422,366.024892 491.184153,366.008283 491.850361,366.029215 L492.76183,366.066609 C492.916618,366.075058 493.071136,366.085845 493.222823,366.100811 C493.410914,366.120227 493.595365,366.144497 493.778603,366.169981 C493.174283,365.68337 492.59666,365.167635 492.042093,364.63127 C491.548201,364.932217 490.90869,365.023229 490.202436,364.949206 C489.789848,364.898239 489.350563,364.789024 488.907638,364.639765 C488.683142,364.566955 488.461072,364.483224 488.240216,364.392212 C488.126148,364.347313 488.01572,364.3012 487.906505,364.251447 C487.798504,364.201693 487.697784,364.145873 487.594637,364.091265 C487.178409,363.871623 486.780383,363.633778 486.415121,363.399574 C486.233097,363.280651 486.054713,363.167796 485.899386,363.052514 L485.608237,362.82222 L485.247858,362.526971 C484.859623,362.202027 484.627644,361.982213 484.627644,361.982213 L485.219962,362.016001 C485.342772,362.024761 485.481641,362.035606 485.633631,362.048955 L486.125855,362.098253 C486.300749,362.117214 486.485504,362.138753 486.677236,362.163023 C487.065554,362.212777 487.466007,362.279519 487.908932,362.346261 C488.340936,362.417857 488.781435,362.505229 489.204944,362.615657 C489.418519,362.671477 489.62724,362.732152 489.82868,362.800108 L490.129626,362.906895 C490.232773,362.9433 490.331066,362.979705 490.431786,363.018537 L490.515518,363.053728 C489.835961,362.308643 489.197663,361.547782 488.592129,360.791775 C487.990236,361.135194 487.266994,361.152183 486.492785,360.945889 C486.291345,360.894922 486.098399,360.823326 485.909094,360.739595 C485.714935,360.657077 485.523203,360.562425 485.331471,360.458064 C484.94922,360.249343 484.564543,360.00179 484.210202,359.737249 C483.983684,359.556034 483.767951,359.368346 483.564444,359.180659 L483.268531,358.899938 C483.038453,358.678596 482.824683,358.464245 482.65394,358.263096 L482.273656,357.785874 C482.044646,357.48963 481.914272,357.300553 481.914272,357.300553 L482.358141,357.392239 C482.462501,357.415295 482.582713,357.44275 482.715989,357.474662 L483.305391,357.625314 C483.466331,357.668848 483.63622,357.716781 483.810963,357.768961 L484.358249,357.93521 C484.552408,357.993458 484.746567,358.056559 484.943153,358.120875 C485.337538,358.254359 485.734351,358.402405 486.10568,358.573508 C486.293772,358.659666 486.478223,358.749464 486.650539,358.846544 C486.836204,358.93877 487.01216,359.035849 487.180836,359.14021 C487.288837,359.205738 487.39077,359.277334 487.489063,359.351358 C486.868968,358.469147 486.33139,357.559027 485.867835,356.62585 C485.222256,356.845492 484.545127,356.752053 483.872851,356.446253 C483.786693,356.407421 483.698108,356.363735 483.61195,356.317622 L483.366824,356.167149 C483.204216,356.061575 483.045248,355.942653 482.889921,355.816449 C482.574412,355.564043 482.274679,355.277658 481.996789,354.979138 C481.737102,354.680619 481.506538,354.36511 481.297817,354.067804 L481.061137,353.718415 C480.948719,353.548186 480.848096,353.385821 480.772374,353.236561 L480.640244,352.98215 C480.460496,352.626715 480.36464,352.396823 480.36464,352.396823 L480.837507,352.564579 C480.947438,352.605584 481.07332,352.653753 481.211659,352.708691 L481.616359,352.877518 C481.760461,352.938952 481.912451,353.00539 482.068385,353.07638 L482.557424,353.304668 C482.727313,353.384911 482.901449,353.469552 483.071945,353.55935 C483.41415,353.736521 483.756356,353.931893 484.071864,354.146682 C484.233259,354.252256 484.376451,354.363897 484.530565,354.479179 C484.682252,354.592034 484.829084,354.710956 484.966209,354.833519 L485.155514,355.020397 C484.892429,354.356373 484.662739,353.681476 484.465201,352.998813 L484.323057,352.485408 C484.291507,352.366486 484.257529,352.24635 484.228405,352.123787 C483.570691,352.240282 482.951809,352.060685 482.387534,351.691783 C482.08052,351.496411 481.825687,351.250071 481.57692,350.975822 C481.331795,350.701572 481.106085,350.396985 480.902218,350.085117 C480.512686,349.461381 480.245717,348.813375 480.053985,348.320697 L479.937427,347.95736 C479.851653,347.672029 479.8125,347.495521 479.8125,347.495521 L480.107903,347.635752 C480.200342,347.681404 480.31137,347.737649 480.436464,347.803669 L480.56608,347.872917 C480.790576,347.993053 481.042983,348.139886 481.326941,348.306135 C481.607258,348.47481 481.906991,348.664115 482.200656,348.870409 C482.789201,349.285424 483.3377,349.764755 483.763637,350.302332 L483.815817,350.378783 C483.61195,349.420122 483.440847,348.455394 483.31343,347.485813 C482.766145,347.460329 482.284387,347.237046 481.869372,346.880279 C481.744383,346.774705 481.624247,346.655783 481.511392,346.528366 C481.403391,346.402162 481.302671,346.267465 481.206805,346.126699 C481.0175,345.843955 480.851251,345.536941 480.706845,345.2275 C480.635249,345.069746 480.56608,344.913205 480.505405,344.761519 C480.450798,344.611045 480.399831,344.462999 480.354932,344.318593 C480.261493,344.032209 480.188683,343.761599 480.130435,343.529822 L480.072421,343.271134 C480.006562,342.953024 479.984816,342.749545 479.984816,342.749545 L480.341583,342.954805 L480.669227,343.156066 C481.079388,343.408473 481.614539,343.770094 482.118139,344.204525 C482.370545,344.42174 482.613244,344.654731 482.8341,344.904711 C482.927539,345.009071 483.016124,345.115859 483.098642,345.22386 C483.052529,344.404751 483.037967,343.585643 483.063451,342.767748 C482.675132,342.659747 482.337781,342.442531 482.051397,342.15372 C481.835395,341.934077 481.643663,341.675603 481.485908,341.395286 C481.334222,341.112542 481.204378,340.807955 481.098804,340.500941 C480.99687,340.193927 480.898577,339.886913 480.851251,339.59082 C480.797857,339.295941 480.762666,339.020478 480.738396,338.782633 L480.697661,338.29708 C480.695535,338.264811 480.693739,338.234862 480.692283,338.207437 L480.69471,337.985368 L480.860959,338.106717 C480.943476,338.17079 481.060166,338.256608 481.195495,338.361687 L481.300244,338.444068 C481.663078,338.72924 482.133914,339.128479 482.564705,339.589607 L482.725948,339.76526 L482.878999,339.946374 C482.985787,340.068937 483.088934,340.193927 483.1848,340.321344 L483.260037,340.428131 C483.363184,339.644214 483.508803,338.865151 483.700535,338.093369 C483.3377,337.95503 483.042821,337.712332 482.80983,337.393183 C482.445782,336.924774 482.274679,336.297398 482.18124,335.66274 C482.159398,335.504986 482.141195,335.346018 482.131487,335.189477 L482.12815,334.957093 L482.133914,334.73199 C482.139375,334.50719 482.152344,334.294677 482.16975,334.101106 L482.188521,333.914095 C482.206724,333.673823 482.251623,333.476024 482.28196,333.340112 L482.335354,333.121684 L482.496155,333.294178 C482.536205,333.338456 482.582567,333.390558 482.633884,333.449658 L483.054471,333.956019 C483.281409,334.236166 483.539834,334.569382 483.766064,334.927363 C483.928672,335.178556 484.071864,335.440671 484.202921,335.710066 C484.252675,335.812 484.301215,335.911506 484.34126,336.012226 C484.661622,335.121522 485.011109,334.299986 485.397,333.533058 C484.998974,333.357101 484.72351,333.04766 484.549981,332.655702 C484.355822,332.159383 484.323057,331.523512 484.394654,330.902203 C484.495374,330.291815 484.668903,329.682641 484.842433,329.243357 L484.948813,329.001823 C485.082705,328.706701 485.179784,328.524968 485.179784,328.524968 L485.290813,328.711611 C485.331812,328.783148 485.38204,328.873336 485.437811,328.978805 L485.495293,329.089243 C485.585091,329.263986 485.683384,329.47028 485.781677,329.69599 C485.877543,329.922913 485.991612,330.177747 486.082624,330.441075 C486.176063,330.704403 486.251299,330.97744 486.304693,331.252903 L486.339885,331.458135 L486.360514,331.664277 C486.365368,331.712817 486.370222,331.763784 486.372649,331.812323 C486.934497,330.930113 487.553379,330.109791 488.235362,329.312526 C488.046057,329.214233 487.891943,329.089243 487.776661,328.93877 C487.632256,328.749464 487.548525,328.524968 487.509693,328.277415 C487.470861,328.026222 487.481782,327.753186 487.524255,327.470442 C487.566727,327.187698 487.641964,326.892819 487.752392,326.619782 C487.968394,326.068856 488.252351,325.527638 488.496263,325.146601 L488.670362,324.892089 C488.723263,324.81672 488.770361,324.751381 488.809648,324.69776 L488.935548,324.530146 L489.007126,324.716789 C489.041916,324.812171 489.086561,324.940711 489.134561,325.09442 C489.240135,325.437839 489.356631,325.906248 489.430654,326.429264 C489.499823,326.947426 489.50225,327.494712 489.359058,328.004379 L489.327507,328.11238 C490.127199,327.28235 490.998488,326.455961 491.955935,325.593166 C491.00941,325.060443 491.264243,323.942815 491.792113,322.92712 C492.017621,322.511498 492.294534,322.126214 492.535772,321.8127 L492.675537,321.633535 C492.944933,321.296184 493.146373,321.082609 493.146373,321.082609 L493.201379,321.287277 C493.278471,321.599604 493.408773,322.232216 493.403633,322.92348 C493.395139,323.412518 493.315048,323.925826 493.112395,324.407583 L493.045046,324.548955 L492.967746,324.68523 L493.08647,324.584887 C493.970532,323.847187 495.356145,323.118852 495.356145,323.118852 C489.32508,328.170628 484.721083,334.279357 484.034246,341.281218 C483.784266,343.825915 484.09128,346.363331 484.488093,348.887398 C484.933445,351.733042 485.651833,354.573831 487.126229,357.211968 C489.321934,361.141801 492.225434,364.314327 496.130383,366.821652 L496.585415,367.108012 C496.585415,367.108012 502.879808,370.196354 509.455733,370.29222 L509.92763,370.292523 L510.16684,370.291006 C516.826496,370.225478 523.035945,367.109225 523.035945,367.109225 C527.176386,364.558461 530.217403,361.292948 532.498771,357.213181 C533.97438,354.573831 534.691555,351.734255 535.136907,348.887398 C535.532506,346.364544 535.83952,343.825915 535.593181,341.283645 C534.90513,334.279357 530.298707,328.170628 524.268855,323.118852 L524.539942,323.266788 C525.01578,323.532449 526.011801,324.115922 526.655797,324.685473 C526.602404,324.596888 526.553864,324.503449 526.511392,324.407583 C526.309952,323.925826 526.228648,323.412518 526.223794,322.92348 C526.214086,321.94419 526.481054,321.082609 526.481054,321.082609 Z M523.206737,361.212916 L523.393925,360.962878 L523.492218,361.152183 L523.61017,361.422598 C523.639876,361.494631 523.67133,361.574236 523.703366,361.660637 C523.862334,362.087787 524.032223,362.682399 524.077123,363.34618 C524.108673,363.681104 524.069842,364.007534 524.005526,364.344886 C523.936357,364.67981 523.822289,365.013521 523.65604,365.329029 C523.609927,365.407906 523.566242,365.48557 523.515275,365.56202 C523.465522,365.636043 523.40606,365.706426 523.345386,365.774382 C523.222823,365.913933 523.086911,366.044991 522.932798,366.16634 C522.628211,366.409039 522.258095,366.612906 521.823664,366.757312 C521.273951,366.28769 521.153815,365.678516 521.244827,365.051139 C521.289727,364.736844 521.390447,364.417695 521.526358,364.105827 L521.634359,363.871623 L521.737506,363.633778 C521.809102,363.47481 521.889193,363.319483 521.970497,363.167796 C522.133105,362.865636 522.312702,362.581679 522.483805,362.325631 C522.59939,362.121764 522.712928,361.935645 522.820322,361.770856 L522.925517,361.61331 C523.032304,361.453129 523.129772,361.3178 523.206737,361.212916 L523.206737,361.212916 Z M496.233502,360.962878 L496.263839,361.010204 L496.479132,361.2972 C496.544544,361.387018 496.619393,361.493175 496.699483,361.61331 C496.835395,361.813537 496.989508,362.053809 497.139982,362.325631 C497.313511,362.581679 497.490681,362.865636 497.654503,363.167796 C497.738234,363.319483 497.815898,363.47481 497.88628,363.632565 C497.923899,363.711442 497.956663,363.791532 497.989427,363.871623 C498.027046,363.9505 498.064664,364.025737 498.098642,364.105827 C498.232126,364.416482 498.332846,364.736844 498.381386,365.051139 C498.472398,365.678516 498.349835,366.28769 497.800122,366.756098 C497.366905,366.611692 496.996789,366.409039 496.692202,366.16634 C496.538089,366.044991 496.400964,365.913933 496.278401,365.774382 C496.217726,365.705212 496.158265,365.636043 496.107298,365.56202 C496.059972,365.48557 496.013859,365.407906 495.971387,365.329029 C495.801498,365.013521 495.688643,364.67981 495.61826,364.344886 C495.552731,364.007534 495.51754,363.681104 495.546664,363.34618 C495.592777,362.682399 495.762666,362.087787 495.92042,361.659423 L496.014898,361.422336 C496.044721,361.350477 496.072718,361.286075 496.098425,361.229982 L496.194446,361.033649 C496.218648,360.987779 496.233502,360.962878 496.233502,360.962878 Z M493.413341,357.807793 L493.527885,358.068597 C493.573959,358.179559 493.630557,358.322557 493.691231,358.49099 L493.804086,358.835623 L493.949706,359.21666 C494.047999,359.483628 494.139011,359.779721 494.216674,360.090375 L494.272495,360.325793 L494.334383,360.556357 C494.375642,360.709257 494.408406,360.867012 494.43389,361.025979 C494.483643,361.343915 494.499419,361.66185 494.469081,361.970078 C494.422968,362.569544 494.197259,363.124111 493.566242,363.506361 C493.367229,363.415349 493.186418,363.310989 493.026237,363.195707 C492.863629,363.084065 492.741066,362.945727 492.622143,362.809816 C492.392793,362.533139 492.228971,362.228552 492.125824,361.91183 C492.100341,361.83538 492.077284,361.756503 492.059082,361.676412 C492.042093,361.595108 492.032385,361.510163 492.025104,361.427646 C492.010542,361.260184 492.009329,361.093935 492.017823,360.9289 C492.034812,360.598829 492.097914,360.27604 492.184072,359.971453 C492.264162,359.67172 492.404928,359.371987 492.538412,359.111086 C492.641256,358.9145 492.74683,358.734978 492.848991,358.575594 L492.949787,358.423035 C493.208261,358.03957 493.413341,357.807793 493.413341,357.807793 Z M526.211659,357.807793 L526.347267,357.971766 C526.431301,358.077796 526.547796,358.231909 526.67764,358.424248 C526.806271,358.617194 526.94825,358.848971 527.085374,359.111086 C527.220072,359.371987 527.358411,359.67172 527.440928,359.971453 C527.529513,360.27604 527.588974,360.598829 527.605963,360.9289 C527.615671,361.093935 527.615671,361.260184 527.599896,361.427646 C527.591401,361.510163 527.58412,361.595108 527.567132,361.676412 C527.548929,361.756503 527.524659,361.83538 527.501603,361.91183 C527.397242,362.228552 527.234634,362.533139 527.00043,362.811029 C526.886361,362.945727 526.761371,363.084065 526.599977,363.195707 C526.437369,363.310989 526.256558,363.415349 526.059972,363.506361 C525.426528,363.124111 525.200818,362.569544 525.155919,361.970078 C525.126795,361.66185 525.14257,361.343915 525.193537,361.025979 C525.217807,360.867012 525.249358,360.709257 525.289403,360.556357 C525.308819,360.47748 525.330662,360.402243 525.352505,360.325793 L525.407112,360.090375 C525.483562,359.780934 525.578215,359.484842 525.676508,359.21666 L525.820914,358.835623 L525.877644,358.656481 L526.021693,358.258242 C526.130112,357.975547 526.211659,357.807793 526.211659,357.807793 Z M528.255183,354.48646 L528.4231,354.623281 C528.507195,354.694635 528.618375,354.792588 528.746156,354.914035 L528.844941,355.009476 C529.016043,355.174511 529.207775,355.375951 529.401935,355.606515 C529.497801,355.721797 529.598521,355.846787 529.687106,355.974204 C529.774477,356.100407 529.860635,356.232678 529.939512,356.37223 C530.099694,356.648906 530.239245,356.948639 530.339965,357.260507 C530.389719,357.415835 530.429764,357.574802 530.457674,357.734983 C530.47709,357.891524 530.481944,358.050492 530.472236,358.208246 C530.455247,358.522541 530.378797,358.83805 530.230751,359.136569 C530.162795,359.287042 530.054794,359.425381 529.929804,359.558865 C529.807242,359.692349 529.664049,359.816126 529.500228,359.933835 C528.812176,359.665653 528.446915,359.169333 528.263677,358.609913 C528.219991,358.470361 528.177519,358.322315 528.143541,358.169414 C528.110777,358.018941 528.08408,357.866041 528.067091,357.711927 C528.030686,357.402486 528.033113,357.094259 528.045248,356.793312 C528.037967,356.485085 528.052529,356.190206 528.079226,355.918383 L528.143048,355.355075 C528.148774,355.297377 528.153249,355.241253 528.155676,355.186646 L528.184873,354.926016 C528.219946,354.65163 528.255183,354.48646 528.255183,354.48646 Z M491.369817,354.48646 L491.41164,354.71888 C491.430118,354.837399 491.451391,354.996802 491.46811,355.186646 C491.477818,355.405075 491.520291,355.647774 491.548201,355.918383 C491.573684,356.190206 491.585819,356.485085 491.578538,356.793312 C491.5931,357.091832 491.5931,357.402486 491.556695,357.711927 C491.54092,357.866041 491.515437,358.018941 491.482672,358.169414 C491.449908,358.321101 491.402582,358.470361 491.360109,358.609913 C491.178085,359.169333 490.812824,359.665653 490.127199,359.933835 C489.963378,359.816126 489.816545,359.691136 489.693982,359.557652 C489.570206,359.425381 489.462205,359.287042 489.394249,359.136569 C489.244989,358.83805 489.17218,358.522541 489.15155,358.208246 C489.144269,358.050492 489.146696,357.891524 489.166112,357.734983 C489.195236,357.573589 489.235281,357.415835 489.286248,357.260507 C489.384541,356.948639 489.52652,356.648906 489.684274,356.37223 C489.764365,356.232678 489.850523,356.100407 489.939108,355.97299 C490.026479,355.846787 490.129626,355.721797 490.225492,355.606515 C490.369292,355.433592 490.513091,355.277051 490.64921,355.139964 L490.973112,354.827403 C491.20983,354.608392 491.369817,354.48646 491.369817,354.48646 Z M489.895422,350.955192 L489.883645,351.189526 C489.877478,351.27889 489.868149,351.391131 489.854087,351.521529 L489.838388,351.657805 C489.821399,351.765806 489.814118,351.878661 489.801983,351.998797 L489.759511,352.382261 C489.723106,352.64923 489.668499,352.939255 489.595689,353.236561 C489.542295,353.5278 489.467059,353.825106 489.361485,354.118771 C489.308091,354.26439 489.247416,354.408796 489.180674,354.548348 L489.072673,354.754642 C489.036268,354.820171 489.001077,354.884486 488.959818,354.948801 C488.650377,355.456042 488.179542,355.87227 487.458726,356.023957 C487.33495,355.888046 487.229376,355.74728 487.143218,355.601661 C487.0607,355.457255 486.989104,355.310422 486.962407,355.157522 C486.893238,354.851722 486.898092,354.541067 486.955126,354.240121 C486.98425,354.086007 487.027936,353.936747 487.080116,353.791128 C487.135937,353.643082 487.217241,353.495035 487.299758,353.35427 C487.466007,353.069099 487.666234,352.800917 487.884662,352.555791 C488.100664,352.309452 488.319093,352.091023 488.559365,351.893223 C488.735929,351.744873 488.907031,351.612223 489.065506,351.496809 L489.219506,351.387196 C489.615105,351.108092 489.895422,350.955192 489.895422,350.955192 Z M529.729578,350.955192 L529.91858,351.066682 C530.01396,351.125294 530.140989,351.206331 530.289258,351.308162 L530.404281,351.38841 C530.604507,351.525534 530.832644,351.695424 531.068062,351.893223 C531.304693,352.091023 531.523122,352.309452 531.742765,352.557004 C531.957553,352.800917 532.158993,353.069099 532.325242,353.35427 C532.407759,353.495035 532.489063,353.643082 532.543671,353.791128 C532.599491,353.936747 532.639537,354.086007 532.671087,354.240121 C532.728122,354.541067 532.730549,354.852935 532.662593,355.157522 C532.634683,355.310422 532.561873,355.457255 532.481782,355.601661 C532.395624,355.74728 532.292477,355.888046 532.163847,356.023957 C531.445458,355.873484 530.973409,355.456042 530.663968,354.950015 L530.55354,354.754642 L530.445539,354.548348 C530.37637,354.408796 530.316909,354.26439 530.263515,354.118771 C530.157941,353.826319 530.082705,353.5278 530.030524,353.236561 C529.958928,352.941682 529.900681,352.64923 529.865489,352.382261 C529.847287,352.248777 529.832725,352.120146 529.821803,351.998797 L529.807545,351.823751 L529.787826,351.657805 C529.732005,351.231869 529.729578,350.955192 529.729578,350.955192 Z M530.246526,346.948235 L530.447663,347.039399 C530.57508,347.099315 530.756194,347.1879 530.970982,347.302575 C531.185771,347.419071 531.439391,347.559836 531.689371,347.727298 C531.941778,347.893547 532.203892,348.084065 532.455086,348.296427 C532.959899,348.723577 533.444083,349.244166 533.667366,349.810867 C533.783862,350.094825 533.854244,350.392131 533.84939,350.691864 C533.839682,350.990384 533.738962,351.29133 533.561792,351.584996 C532.840977,351.537669 532.304612,351.202745 531.895665,350.753752 C531.699079,350.530469 531.501279,350.270782 531.345952,350.000172 C531.239165,349.819766 531.143164,349.633967 531.058669,349.447808 L530.940645,349.168929 C530.700373,348.604654 530.523203,348.051301 530.42491,347.639926 L530.323651,347.276148 C530.270796,347.071202 530.246526,346.948235 530.246526,346.948235 Z M489.177944,347.039399 L489.380901,346.948235 L489.30108,347.276148 C489.274652,347.378621 489.241753,347.501588 489.202517,347.639926 C489.118266,347.992533 488.974281,348.449451 488.78279,348.928148 L488.683142,349.168929 C488.572714,349.446819 488.439229,349.729563 488.280262,350.000172 C488.121294,350.270782 487.924708,350.530469 487.728122,350.752539 C487.322815,351.202745 486.785237,351.537669 486.064421,351.584996 C485.884824,351.29133 485.781677,350.990384 485.774396,350.691864 C485.771969,350.392131 485.839925,350.093611 485.95642,349.809654 C486.180917,349.244166 486.665101,348.723577 487.168701,348.296427 C487.423535,348.082852 487.683222,347.893547 487.934416,347.726085 C488.121901,347.601398 488.313481,347.490363 488.486631,347.394004 L488.652804,347.302575 C488.867593,347.1879 489.049617,347.099315 489.177944,347.039399 Z M530.790786,343.50998 L530.712508,343.281056 L531.002669,343.391144 C531.123591,343.439781 531.276783,343.504339 531.451526,343.584429 C531.885957,343.785869 532.457513,344.081962 533.004798,344.461786 C533.277835,344.652304 533.54723,344.864666 533.786289,345.092802 C534.020493,345.318512 534.226787,345.566065 534.386968,345.82818 C534.545936,346.089081 534.666072,346.366971 534.706117,346.656996 C534.737668,346.943381 534.70369,347.243114 534.582341,347.546487 C533.885795,347.579252 533.311812,347.315924 532.840977,346.920324 C532.723268,346.820818 532.61284,346.71403 532.508479,346.599962 C532.400478,346.488321 532.292477,346.364544 532.196611,346.240768 C531.993958,345.992002 531.821642,345.726246 531.667528,345.462918 L531.5571,345.26345 L531.453953,345.064892 C531.382357,344.931408 531.316828,344.799137 531.257367,344.670506 C531.134804,344.413246 531.036511,344.172974 530.95642,343.96668 L530.790786,343.50998 Z M488.779823,343.330178 L488.914919,343.281056 L488.718789,343.833011 C488.703262,343.875278 488.686917,343.919488 488.669793,343.965466 L488.534337,344.298874 C488.484129,344.41719 488.428915,344.541876 488.368847,344.670506 L488.273436,344.865879 L488.169834,345.064892 C488.103091,345.197163 488.032709,345.329434 487.957472,345.461705 C487.803358,345.726246 487.627402,345.992002 487.430816,346.240768 C487.332523,346.364544 487.226949,346.488321 487.116521,346.599962 C487.009733,346.71403 486.900519,346.820818 486.785237,346.919111 C486.314401,347.315924 485.739205,347.579252 485.042659,347.546487 C484.920096,347.243114 484.886119,346.943381 484.917669,346.656996 C484.958928,346.366971 485.079064,346.089081 485.236818,345.82818 C485.397,345.566065 485.606934,345.318512 485.837498,345.091589 C486.07777,344.863452 486.347165,344.652304 486.618988,344.461786 C487.168701,344.081962 487.740257,343.785869 488.174688,343.584429 L488.418959,343.475991 C488.569471,343.411531 488.693461,343.362797 488.779823,343.330178 L488.779823,343.330178 Z M488.596623,339.547571 L488.912492,339.46583 L488.674002,339.939036 C488.652577,339.980579 488.629748,340.024341 488.605478,340.070151 C488.530848,340.206669 488.443249,340.359569 488.342681,340.523732 L487.933517,341.167778 C487.879808,341.249802 487.823583,341.332184 487.763313,341.413488 C487.59221,341.659828 487.393197,341.906167 487.173555,342.134304 C486.964834,342.364868 486.737911,342.579656 486.485504,342.756826 C485.986758,343.114807 485.401854,343.328382 484.736859,343.247078 C484.579105,342.646398 484.729578,342.083337 485.106975,341.599153 C485.291426,341.357668 485.518349,341.131958 485.764688,340.928091 C485.892105,340.824944 486.019522,340.729078 486.155433,340.638066 C486.293772,340.547054 486.436964,340.462109 486.578943,340.383232 C487.068848,340.109676 487.564993,339.900311 487.973385,339.752845 L488.169834,339.684259 C488.335475,339.626922 488.478592,339.581188 488.596623,339.547571 Z M530.796239,339.629652 L530.712508,339.46583 L530.918802,339.519224 C531.018915,339.543797 531.147015,339.58134 531.296957,339.630828 L531.453953,339.684259 C531.893238,339.833519 532.475715,340.064083 533.046057,340.383232 C533.186822,340.462109 533.331228,340.547054 533.47078,340.638066 C533.604264,340.729078 533.734108,340.827371 533.859098,340.928091 C534.109078,341.131958 534.333574,341.357668 534.516812,341.599153 C534.892995,342.083337 535.044682,342.646398 534.888141,343.247078 C534.22436,343.329596 533.638242,343.114807 533.139496,342.756826 C532.887089,342.579656 532.66138,342.364868 532.450232,342.134304 C532.231803,341.906167 532.035217,341.659828 531.856833,341.413488 C531.677236,341.169576 531.535257,340.915956 531.384784,340.691459 C531.240378,340.464536 531.117815,340.252175 531.019522,340.070151 L530.889678,339.822143 C530.852363,339.747968 530.821116,339.683046 530.796239,339.629652 Z M489.759511,335.446738 L489.65151,335.58629 L489.44332,335.843285 L489.359058,335.953979 C489.237708,336.110519 489.092089,336.290117 488.9222,336.481849 C488.834828,336.576501 488.743816,336.677221 488.645523,336.774301 C488.554511,336.876234 488.463499,336.983022 488.362779,337.087382 C487.965967,337.503611 487.470861,337.914985 486.967261,338.212291 C486.447885,338.50353 485.862981,338.667351 485.233178,338.543575 C485.188279,338.25355 485.222256,337.976873 485.318123,337.718399 C485.361808,337.589769 485.432191,337.469633 485.515922,337.35071 C485.596013,337.234215 485.689452,337.122573 485.793812,337.016999 C486.000106,336.802211 486.248872,336.611692 486.513414,336.44423 C486.787664,336.279195 487.089824,336.140857 487.382276,336.021934 C487.895064,335.820148 488.391804,335.680769 488.807541,335.593865 L489.008358,335.554739 C489.462205,335.472222 489.759511,335.446738 489.759511,335.446738 Z M529.865489,335.446738 L530.070873,335.469795 C530.175719,335.483143 530.316873,335.503093 530.485325,335.531663 L530.616642,335.554739 C531.070489,335.636043 531.644472,335.786517 532.241511,336.021934 C532.53639,336.140857 532.83855,336.279195 533.110372,336.44423 C533.376128,336.611692 533.622467,336.802211 533.829974,337.016999 C533.933121,337.122573 534.028987,337.234215 534.109078,337.35071 C534.192809,337.469633 534.263192,337.590982 534.308091,337.719613 C534.40153,337.976873 534.436721,338.25355 534.394249,338.544788 C533.760805,338.667351 533.174688,338.50353 532.656526,338.212291 C532.152926,337.914985 531.660247,337.504824 531.262221,337.087382 C531.162714,336.984235 531.070489,336.876234 530.979477,336.774301 C530.883611,336.677221 530.790172,336.576501 530.705227,336.481849 C530.532911,336.290117 530.386078,336.110519 530.265942,335.955192 L530.103334,335.745258 L529.905069,335.499423 C529.879032,335.465523 529.865489,335.446738 529.865489,335.446738 Z M527.817111,332.031966 L528.100195,332.02253 C528.189751,332.021307 528.298092,332.021219 528.421613,332.023709 L528.550062,332.027112 C528.774558,332.031966 529.036673,332.046528 529.323057,332.074438 C529.610655,332.101135 529.900681,332.150888 530.207695,332.21763 C530.513495,332.284373 530.825363,332.371744 531.125096,332.484599 C531.274356,332.541633 531.422402,332.603522 531.564381,332.671477 C531.705146,332.743073 531.828923,332.820737 531.951486,332.905682 C532.425962,333.246673 532.81428,333.690812 532.831269,334.256301 C532.257286,334.460168 531.674809,334.387358 531.12995,334.193199 C530.55354,334.00268 530.018389,333.687172 529.549981,333.361955 C529.215865,333.150807 528.924357,332.929952 528.674377,332.731747 L528.054956,332.235653 C527.902865,332.110169 527.817111,332.031966 527.817111,332.031966 Z M491.074938,332.027112 L491.321248,332.022025 C491.622273,332.01954 491.807889,332.031966 491.807889,332.031966 L491.641678,332.176495 C491.555752,332.248972 491.438717,332.344913 491.295794,332.455475 L490.952286,332.731703 C490.702126,332.929817 490.409539,333.150403 490.073806,333.360742 C489.605397,333.687172 489.072673,334.00268 488.496263,334.193199 C487.948978,334.387358 487.365287,334.460168 486.794945,334.255087 C486.808293,333.690812 487.197825,333.246673 487.675941,332.905682 C487.796077,332.820737 487.919854,332.743073 488.060619,332.671477 C488.201384,332.603522 488.348217,332.541633 488.49869,332.484599 C488.799637,332.371744 489.111505,332.284373 489.416092,332.21763 C489.723106,332.150888 490.013131,332.101135 490.301943,332.074438 C490.590754,332.046528 490.850442,332.031966 491.074938,332.027112 Z M525.565076,328.745787 L525.701991,328.733689 C526.135209,328.697284 526.732248,328.66816 527.337781,328.723981 C527.946955,328.777375 528.604669,328.901151 529.159236,329.147491 C529.687106,329.405965 530.140952,329.777294 530.326617,330.296669 C530.081491,330.437435 529.819376,330.510244 529.545127,330.538155 C529.267237,330.568492 528.973571,330.549076 528.685973,330.499323 C528.393521,330.448356 528.101069,330.365839 527.817111,330.262692 C527.534367,330.161972 527.262544,330.039409 526.9798,329.918059 C526.611707,329.754642 526.27867,329.574506 525.990039,329.40965 L525.274077,328.991309 C525.098615,328.884162 524.999378,328.816207 524.999378,328.816207 L525.232714,328.782582 C525.321928,328.771171 525.434198,328.758172 525.565076,328.745787 L525.565076,328.745787 Z M492.289646,328.722768 C492.807634,328.674921 493.319382,328.688592 493.727074,328.717928 L493.921795,328.733689 C494.353799,328.76888 494.628049,328.816207 494.628049,328.816207 L494.256192,329.047526 L493.635366,329.409381 C493.347273,329.573966 493.013697,329.753833 492.643986,329.918059 C492.361242,330.039409 492.09306,330.160758 491.807889,330.262692 C491.523931,330.364625 491.230266,330.448356 490.94024,330.499323 C490.649002,330.549076 490.358977,330.567279 490.07866,330.538155 C489.806837,330.510244 489.542295,330.436221 489.30081,330.296669 C489.482834,329.777294 489.936681,329.405965 490.466978,329.147491 C491.019118,328.901151 491.679258,328.777375 492.289646,328.722768 Z M495.260279,325.252175 C496.064826,325.1683 496.807077,325.205191 497.208343,325.238537 L497.519805,325.270377 L497.33699,325.402047 C497.289932,325.434939 497.234478,325.473079 497.171439,325.5154 L496.960384,325.653841 C496.663945,325.845227 496.26052,326.080298 495.81583,326.304033 L495.59035,326.414702 C494.552812,326.93165 493.251947,327.339384 492.34668,326.792099 C492.533558,326.290926 492.980124,325.937799 493.501926,325.689032 C494.017661,325.439053 494.660813,325.315276 495.260279,325.252175 Z M522.222607,325.356776 L522.103981,325.270377 L522.392311,325.240493 C522.787868,325.206684 523.543952,325.166655 524.365934,325.252175 C524.966614,325.315276 525.608552,325.439053 526.125501,325.689032 C526.643663,325.937799 527.090228,326.290926 527.279533,326.793312 C526.423413,327.309047 525.217676,326.97401 524.210259,326.499704 L524.03465,326.414702 C523.57803,326.196273 523.15083,325.957338 522.8203,325.75292 L522.663402,325.653841 C522.469917,325.529795 522.318755,325.425225 522.222607,325.356776 Z" id="26"></path>
        </g>
    </g>
</svg>
