<svg width="20" height="20" viewBox="0 0 20 20" fill="none" xmlns="http://www.w3.org/2000/svg">
<g id="Frame">
<path id="Vector" d="M5.44551 2.5H17.4995C17.9597 2.5 18.3328 2.8731 18.3328 3.33333V16.6667C18.3328 17.1269 17.9597 17.5 17.4995 17.5H5.44551C5.16687 17.5 4.90668 17.3608 4.75213 17.1289L0.307683 10.4622C0.121072 10.1823 0.121072 9.81767 0.307683 9.53775L4.75213 2.87108C4.90668 2.63925 5.16687 2.5 5.44551 2.5ZM5.89149 4.16667L2.0026 10L5.89149 15.8333H16.6662V4.16667H5.89149ZM10.8328 8.8215L13.1898 6.46447L14.3684 7.64297L12.0113 10L14.3684 12.357L13.1898 13.5355L10.8328 11.1785L8.47583 13.5355L7.29731 12.357L9.65433 10L7.29731 7.64297L8.47583 6.46447L10.8328 8.8215Z" fill="black"/>
</g>
</svg>
