<?xml version="1.0" encoding="UTF-8"?>
<svg width="61px" height="60px" viewBox="0 0 61 60" version="1.1" xmlns="http://www.w3.org/2000/svg" xmlns:xlink="http://www.w3.org/1999/xlink">
    <title>pattern-31</title>
    <g id="1.4" stroke="none" stroke-width="1" fill="none" fill-rule="evenodd">
        <g id="pattern-31" transform="translate(0.804216, 0.000400)" fill="#545458" fill-rule="nonzero">
            <path d="M10.696,2.8553 C9.436,7.5843 5.125,11.0693 0,11.0693 L0,7.0823 C2.894,7.0823 5.382,5.3433 6.48,2.8553 L10.696,2.8553 Z M3.705,0.0001 L3.705,3.7049 L0,3.7049 L0,0.0001 L3.705,0.0001 Z M0,56.296 C2.047,56.296 3.705,57.954 3.705,60 L0,60 L0,56.296 Z M0,48.9315 C5.125,48.9315 9.436,52.4165 10.696,57.1475 L6.48,57.1475 C5.382,54.6575 2.894,52.9205 0,52.9205 L0,48.9315 Z M2.8526,19.3046 C7.5826,20.5646 11.0686,24.8746 11.0686,30.0006 C11.0686,35.1276 7.5826,39.4366 2.8526,40.6966 L2.8526,36.4806 C5.3426,35.3846 7.0806,32.8946 7.0806,30.0006 C7.0806,27.1056 5.3426,24.6166 2.8526,23.5196 L2.8526,19.3046 Z M0,26.2965 C2.046,26.2965 3.704,27.9545 3.704,30.0005 C3.704,32.0475 2.046,33.7065 0,33.7065 L0,26.2965 Z M53.5187,2.8553 C54.6167,5.3433 57.1057,7.0823 59.9987,7.0823 L59.9987,11.0693 C54.8737,11.0693 50.5627,7.5843 49.3037,2.8553 L53.5187,2.8553 Z M59.9991,0.0001 L59.9991,3.7051 C57.9531,3.7051 56.2941,2.0471 56.2941,0.0001 L59.9991,0.0001 Z M59.9991,56.2961 L59.9991,60.0001 L56.2941,60.0001 C56.2941,57.9541 57.9531,56.2961 59.9991,56.2961 Z M59.9991,48.9314 L59.9991,52.9204 C57.1061,52.9204 54.6171,54.6574 53.5191,57.1474 L49.3041,57.1474 C50.5631,52.4174 54.8731,48.9314 59.9991,48.9314 Z M57.1456,19.305 L57.1456,23.52 C54.6566,24.617 52.9186,27.105 52.9186,30.001 C52.9186,32.895 54.6566,35.385 57.1456,36.481 L57.1456,40.696 C52.4166,39.437 48.9306,35.127 48.9306,30.001 C48.9306,24.875 52.4166,20.565 57.1456,19.305 Z M59.9991,26.2965 L59.9991,33.7065 C57.9531,33.7065 56.2941,32.0475 56.2941,30.0005 C56.2941,27.9545 57.9531,26.2965 59.9991,26.2965 Z M22.9191,0 C22.9191,2.896 24.6571,5.383 27.1461,6.481 L27.1461,10.696 C22.4151,9.436 18.9311,5.127 18.9311,0 L22.9191,0 Z M41.0671,0.0005 C41.0671,5.1265 37.5821,9.4365 32.8531,10.6955 L32.8531,6.4805 C35.3421,5.3835 37.0801,2.8965 37.0801,0.0005 L41.0671,0.0005 Z M33.7047,0 C33.7047,2.047 32.0457,3.705 29.9987,3.705 C27.9527,3.705 26.2957,2.047 26.2957,0 L33.7047,0 Z M27.1461,49.305 L27.1461,53.52 C24.6571,54.617 22.9191,57.106 22.9191,60 L18.9311,60 C18.9311,54.874 22.4151,50.565 27.1461,49.305 Z M29.9987,56.296 C32.0457,56.296 33.7047,57.954 33.7047,60 L26.2957,60 C26.2957,57.954 27.9527,56.296 29.9987,56.296 Z M32.8531,49.305 C37.5821,50.565 41.0671,54.874 41.0671,60 L37.0801,60 C37.0801,57.106 35.3421,54.617 32.8531,53.52 L32.8531,49.305 Z M23.5181,32.8549 C24.6161,35.3429 27.1041,37.0829 29.9991,37.0829 C32.8951,37.0829 35.3831,35.3429 36.4811,32.8549 L40.6951,32.8549 C39.4361,37.5849 35.1251,41.0699 29.9991,41.0699 C24.8731,41.0699 20.5641,37.5849 19.3041,32.8549 L23.5181,32.8549 Z M29.9985,26.2975 C32.0455,26.2975 33.7045,27.9545 33.7045,30.0005 C33.7045,32.0475 32.0455,33.7065 29.9985,33.7065 C27.9535,33.7065 26.2955,32.0475 26.2955,30.0005 C26.2955,27.9545 27.9535,26.2975 29.9985,26.2975 Z M29.9987,18.9328 C35.1257,18.9328 39.4357,22.4178 40.6947,27.1468 L36.4807,27.1468 C35.3827,24.6578 32.8947,22.9208 29.9987,22.9208 C27.1047,22.9208 24.6167,24.6578 23.5177,27.1468 L19.3037,27.1468 C20.5637,22.4178 24.8727,18.9328 29.9987,18.9328 Z" id="31"></path>
        </g>
    </g>
</svg>
