<?xml version="1.0" encoding="UTF-8"?>
<svg width="61px" height="60px" viewBox="0 0 61 60" version="1.1" xmlns="http://www.w3.org/2000/svg" xmlns:xlink="http://www.w3.org/1999/xlink">
    <title>pattern-32</title>
    <g id="1.4" stroke="none" stroke-width="1" fill="none" fill-rule="evenodd">
        <g id="pattern-32" transform="translate(0.526032, 0.000500)" fill="#545458" fill-rule="nonzero">
            <path d="M23.2387,54.183 L20.3547,51.301 C20.3547,51.28 23.2337,48.402 23.2337,48.402 C23.5687,47.924 23.9867,47.509 24.4627,47.172 L30.3517,41.285 C30.3517,41.28 24.4657,35.394 24.4657,35.394 C23.9897,35.058 23.5737,34.645 23.2387,34.168 L20.3547,31.285 L23.2367,28.405 C23.5737,27.925 23.9897,27.509 24.4687,27.173 L26.8187,24.823 C26.8197,24.825 30.3517,21.292 30.3517,21.292 C30.3517,21.29 26.8197,17.757 26.8197,17.757 C26.8187,17.758 24.4677,15.408 24.4677,15.408 C23.9897,15.072 23.5737,14.655 23.2367,14.177 L20.3547,11.297 L23.2367,8.415 C23.5737,7.938 23.9897,7.522 24.4667,7.185 L30.3517,1.301 C30.3517,1.297 29.0527,0 29.0527,0 L21.9877,0 L23.2877,1.299 L20.3877,4.2 C20.0617,4.661 19.6577,5.062 19.1997,5.389 L16.8237,7.765 L13.2907,11.297 L16.8237,14.828 L19.1727,17.179 C19.6517,17.515 20.0707,17.933 20.4057,18.414 L23.2837,21.291 L20.4057,24.169 C20.0707,24.649 19.6517,25.067 19.1727,25.403 L16.8237,27.753 L13.2907,31.285 L16.8237,34.817 L19.1727,37.166 C19.6517,37.503 20.0707,37.921 20.4077,38.401 L23.2877,41.282 L20.3887,44.183 C20.0617,44.642 19.6577,45.045 19.1987,45.374 L16.8237,47.748 L13.2907,51.28 C13.2907,51.301 16.8237,54.834 16.8237,54.834 L19.1707,57.182 C19.6517,57.52 20.0707,57.938 20.4077,58.418 L21.9877,60 L29.0527,60 L24.4667,55.412 C23.9897,55.076 23.5737,54.662 23.2387,54.183 M4.453,55.398 C3.982,55.065 3.571,54.655 3.238,54.184 L0.355,51.301 C0.355,51.28 3.257,48.379 3.257,48.379 C3.586,47.916 3.99,47.51 4.454,47.181 L7.327,44.306 L10.35,41.285 C10.35,41.28 7.327,38.258 7.327,38.258 L4.459,35.389 C3.992,35.058 3.584,34.65 3.253,34.181 L0.355,31.285 L3.255,28.387 C3.584,27.921 3.99,27.514 4.455,27.184 L6.818,24.823 C6.819,24.825 7.327,24.314 7.327,24.314 L10.35,21.292 C10.35,21.29 7.327,18.268 7.327,18.268 L6.819,17.757 C6.818,17.758 4.461,15.402 4.461,15.402 C3.992,15.071 3.584,14.661 3.253,14.194 L0.355,11.297 L3.255,8.397 C3.586,7.933 3.99,7.527 4.455,7.197 L7.327,4.323 L10.35,1.301 C10.35,1.297 9.051,0 9.051,0 L1.988,0 L3.288,1.299 L0.389,4.199 C0.272,4.363 0.134,4.511 0,4.659 L0,17.928 C0.142,18.084 0.287,18.24 0.409,18.415 L3.283,21.291 L0.409,24.166 C0.287,24.342 0.142,24.496 0,24.654 L0,37.916 C0.142,38.071 0.287,38.228 0.409,38.402 L3.288,41.282 L0.39,44.181 C0.273,44.346 0.134,44.494 0,44.642 L0,57.933 C0.142,58.089 0.287,58.245 0.409,58.42 L1.988,60 L9.051,60 L7.327,58.276 L4.453,55.398 Z M59.1958,5.3901 L56.8218,7.7651 L53.2908,11.2961 L56.8218,14.8281 L59.1708,17.1781 C59.4768,17.3921 59.7458,17.6511 59.9978,17.9271 L59.9978,4.6591 C59.7548,4.9291 59.4928,5.1791 59.1958,5.3901 M59.1705,25.4053 L56.8225,27.7533 L53.2905,31.2853 L56.8225,34.8173 L59.1705,37.1643 C59.4765,37.3803 59.7465,37.6393 59.9985,37.9163 L59.9985,24.6533 C59.7465,24.9323 59.4765,25.1893 59.1705,25.4053 M59.1958,45.3741 L56.8218,47.7481 L53.2908,51.2801 C53.2908,51.3011 56.8218,54.8341 56.8218,54.8341 L59.1708,57.1811 C59.4768,57.3971 59.7458,57.6551 59.9978,57.9331 L59.9978,44.6421 C59.7548,44.9121 59.4928,45.1631 59.1958,45.3741 M43.2365,54.183 L40.3545,51.301 C40.3545,51.28 43.2335,48.402 43.2335,48.402 C43.5685,47.924 43.9845,47.509 44.4625,47.172 L50.3495,41.285 C50.3495,41.28 44.4645,35.394 44.4645,35.394 C43.9885,35.058 43.5735,34.645 43.2375,34.168 L40.3545,31.285 L43.2355,28.405 C43.5715,27.925 43.9905,27.509 44.4665,27.173 L46.8165,24.823 C46.8175,24.825 50.3495,21.292 50.3495,21.292 C50.3495,21.29 46.8175,17.757 46.8175,17.757 C46.8165,17.758 44.4665,15.408 44.4665,15.408 C43.9905,15.072 43.5715,14.655 43.2365,14.177 L40.3545,11.297 L43.2365,8.415 C43.5715,7.938 43.9885,7.522 44.4665,7.185 L50.3495,1.301 C50.3495,1.297 49.0515,0 49.0515,0 L41.9875,0 L43.2875,1.299 L40.3855,4.2 C40.0605,4.661 39.6575,5.062 39.1975,5.389 L36.8225,7.765 L33.2895,11.297 L36.8225,14.828 L39.1725,17.179 C39.6525,17.515 40.0695,17.933 40.4065,18.414 L43.2845,21.291 L40.4065,24.169 C40.0695,24.649 39.6525,25.067 39.1715,25.403 L36.8225,27.753 L33.2895,31.285 L36.8225,34.817 L39.1715,37.166 C39.6525,37.503 40.0715,37.921 40.4065,38.401 L43.2875,41.282 L40.3875,44.183 C40.0605,44.642 39.6575,45.045 39.1975,45.374 L36.8225,47.748 L33.2895,51.28 C33.2895,51.301 36.8225,54.834 36.8225,54.834 L39.1715,57.182 C39.6525,57.52 40.0715,57.938 40.4085,58.418 L41.9875,60 L49.0515,60 L44.4655,55.412 C43.9885,55.076 43.5715,54.662 43.2365,54.183" id="32"></path>
        </g>
    </g>
</svg>
