<?xml version="1.0" encoding="UTF-8"?>
<svg width="61px" height="61px" viewBox="0 0 61 61" version="1.1" xmlns="http://www.w3.org/2000/svg" xmlns:xlink="http://www.w3.org/1999/xlink">
    <title>pattern-1</title>
    <g id="1.4" stroke="none" stroke-width="1" fill="none" fill-rule="evenodd">
        <g id="pattern-1" transform="translate(0.877505, 0.901125)" fill="#545458" fill-rule="nonzero">
            <path d="M20,0 L19.9961582,0.279904844 C19.8479317,5.67332921 15.4292399,10 10,10 L10.0038418,9.72009516 C10.1520683,4.32667079 14.5707601,0 20,0 Z" id="形状结合"></path>
            <path d="M10,0 L9.9961582,0.279904844 C9.84793172,5.67332921 5.42923991,10 0,10 L0.00384179753,9.72009516 C0.152068282,4.32667079 4.57076009,0 10,0 Z" id="形状结合" transform="translate(5.000000, 5.000000) scale(-1, 1) translate(-5.000000, -5.000000) "></path>
            <path d="M20,10 L19.9961582,10.2799048 C19.8479317,15.6733292 15.4292399,20 10,20 L10.0038418,19.7200952 C10.1520683,14.3266708 14.5707601,10 20,10 Z" id="形状结合" transform="translate(15.000000, 15.000000) scale(-1, 1) rotate(-180.000000) translate(-15.000000, -15.000000) "></path>
            <path d="M10,10 L9.9961582,10.2799048 C9.84793172,15.6733292 5.42923991,20 0,20 L0.00384179753,19.7200952 C0.152068282,14.3266708 4.57076009,10 10,10 Z" id="形状结合" transform="translate(5.000000, 15.000000) rotate(180.000000) translate(-5.000000, -15.000000) "></path>
            <path d="M40,0 L39.9961582,0.279904844 C39.8479317,5.67332921 35.4292399,10 30,10 L30.0038418,9.72009516 C30.1520683,4.32667079 34.5707601,0 40,0 Z" id="形状结合"></path>
            <path d="M30,0 L29.9961582,0.279904844 C29.8479317,5.67332921 25.4292399,10 20,10 L20.0038418,9.72009516 C20.1520683,4.32667079 24.5707601,0 30,0 Z" id="形状结合" transform="translate(25.000000, 5.000000) scale(-1, 1) translate(-25.000000, -5.000000) "></path>
            <path d="M40,10 L39.9961582,10.2799048 C39.8479317,15.6733292 35.4292399,20 30,20 L30.0038418,19.7200952 C30.1520683,14.3266708 34.5707601,10 40,10 Z" id="形状结合" transform="translate(35.000000, 15.000000) scale(-1, 1) rotate(-180.000000) translate(-35.000000, -15.000000) "></path>
            <path d="M30,10 L29.9961582,10.2799048 C29.8479317,15.6733292 25.4292399,20 20,20 L20.0038418,19.7200952 C20.1520683,14.3266708 24.5707601,10 30,10 Z" id="形状结合" transform="translate(25.000000, 15.000000) rotate(180.000000) translate(-25.000000, -15.000000) "></path>
            <path d="M60,0 L59.9961582,0.279904844 C59.8479317,5.67332921 55.4292399,10 50,10 L50.0038418,9.72009516 C50.1520683,4.32667079 54.5707601,0 60,0 Z" id="形状结合"></path>
            <path d="M50,0 L49.9961582,0.279904844 C49.8479317,5.67332921 45.4292399,10 40,10 L40.0038418,9.72009516 C40.1520683,4.32667079 44.5707601,0 50,0 Z" id="形状结合" transform="translate(45.000000, 5.000000) scale(-1, 1) translate(-45.000000, -5.000000) "></path>
            <path d="M60,10 L59.9961582,10.2799048 C59.8479317,15.6733292 55.4292399,20 50,20 L50.0038418,19.7200952 C50.1520683,14.3266708 54.5707601,10 60,10 Z" id="形状结合" transform="translate(55.000000, 15.000000) scale(-1, 1) rotate(-180.000000) translate(-55.000000, -15.000000) "></path>
            <path d="M50,10 L49.9961582,10.2799048 C49.8479317,15.6733292 45.4292399,20 40,20 L40.0038418,19.7200952 C40.1520683,14.3266708 44.5707601,10 50,10 Z" id="形状结合" transform="translate(45.000000, 15.000000) rotate(180.000000) translate(-45.000000, -15.000000) "></path>
            <path d="M20,20 L19.9961582,20.2799048 C19.8479317,25.6733292 15.4292399,30 10,30 L10.0038418,29.7200952 C10.1520683,24.3266708 14.5707601,20 20,20 Z" id="形状结合"></path>
            <path d="M10,20 L9.9961582,20.2799048 C9.84793172,25.6733292 5.42923991,30 0,30 L0.00384179753,29.7200952 C0.152068282,24.3266708 4.57076009,20 10,20 Z" id="形状结合" transform="translate(5.000000, 25.000000) scale(-1, 1) translate(-5.000000, -25.000000) "></path>
            <path d="M20,30 L19.9961582,30.2799048 C19.8479317,35.6733292 15.4292399,40 10,40 L10.0038418,39.7200952 C10.1520683,34.3266708 14.5707601,30 20,30 Z" id="形状结合" transform="translate(15.000000, 35.000000) scale(-1, 1) rotate(-180.000000) translate(-15.000000, -35.000000) "></path>
            <path d="M10,30 L9.9961582,30.2799048 C9.84793172,35.6733292 5.42923991,40 0,40 L0.00384179753,39.7200952 C0.152068282,34.3266708 4.57076009,30 10,30 Z" id="形状结合" transform="translate(5.000000, 35.000000) rotate(180.000000) translate(-5.000000, -35.000000) "></path>
            <path d="M40,20 L39.9961582,20.2799048 C39.8479317,25.6733292 35.4292399,30 30,30 L30.0038418,29.7200952 C30.1520683,24.3266708 34.5707601,20 40,20 Z" id="形状结合"></path>
            <path d="M30,20 L29.9961582,20.2799048 C29.8479317,25.6733292 25.4292399,30 20,30 L20.0038418,29.7200952 C20.1520683,24.3266708 24.5707601,20 30,20 Z" id="形状结合" transform="translate(25.000000, 25.000000) scale(-1, 1) translate(-25.000000, -25.000000) "></path>
            <path d="M40,30 L39.9961582,30.2799048 C39.8479317,35.6733292 35.4292399,40 30,40 L30.0038418,39.7200952 C30.1520683,34.3266708 34.5707601,30 40,30 Z" id="形状结合" transform="translate(35.000000, 35.000000) scale(-1, 1) rotate(-180.000000) translate(-35.000000, -35.000000) "></path>
            <path d="M30,30 L29.9961582,30.2799048 C29.8479317,35.6733292 25.4292399,40 20,40 L20.0038418,39.7200952 C20.1520683,34.3266708 24.5707601,30 30,30 Z" id="形状结合" transform="translate(25.000000, 35.000000) rotate(180.000000) translate(-25.000000, -35.000000) "></path>
            <path d="M60,20 L59.9961582,20.2799048 C59.8479317,25.6733292 55.4292399,30 50,30 L50.0038418,29.7200952 C50.1520683,24.3266708 54.5707601,20 60,20 Z" id="形状结合"></path>
            <path d="M50,20 L49.9961582,20.2799048 C49.8479317,25.6733292 45.4292399,30 40,30 L40.0038418,29.7200952 C40.1520683,24.3266708 44.5707601,20 50,20 Z" id="形状结合" transform="translate(45.000000, 25.000000) scale(-1, 1) translate(-45.000000, -25.000000) "></path>
            <path d="M60,30 L59.9961582,30.2799048 C59.8479317,35.6733292 55.4292399,40 50,40 L50.0038418,39.7200952 C50.1520683,34.3266708 54.5707601,30 60,30 Z" id="形状结合" transform="translate(55.000000, 35.000000) scale(-1, 1) rotate(-180.000000) translate(-55.000000, -35.000000) "></path>
            <path d="M50,30 L49.9961582,30.2799048 C49.8479317,35.6733292 45.4292399,40 40,40 L40.0038418,39.7200952 C40.1520683,34.3266708 44.5707601,30 50,30 Z" id="形状结合" transform="translate(45.000000, 35.000000) rotate(180.000000) translate(-45.000000, -35.000000) "></path>
            <path d="M20,40 L19.9961582,40.2799048 C19.8479317,45.6733292 15.4292399,50 10,50 L10.0038418,49.7200952 C10.1520683,44.3266708 14.5707601,40 20,40 Z" id="形状结合"></path>
            <path d="M10,40 L9.9961582,40.2799048 C9.84793172,45.6733292 5.42923991,50 0,50 L0.00384179753,49.7200952 C0.152068282,44.3266708 4.57076009,40 10,40 Z" id="形状结合" transform="translate(5.000000, 45.000000) scale(-1, 1) translate(-5.000000, -45.000000) "></path>
            <path d="M20,50 L19.9961582,50.2799048 C19.8479317,55.6733292 15.4292399,60 10,60 L10.0038418,59.7200952 C10.1520683,54.3266708 14.5707601,50 20,50 Z" id="形状结合" transform="translate(15.000000, 55.000000) scale(-1, 1) rotate(-180.000000) translate(-15.000000, -55.000000) "></path>
            <path d="M10,50 L9.9961582,50.2799048 C9.84793172,55.6733292 5.42923991,60 0,60 L0.00384179753,59.7200952 C0.152068282,54.3266708 4.57076009,50 10,50 Z" id="形状结合" transform="translate(5.000000, 55.000000) rotate(180.000000) translate(-5.000000, -55.000000) "></path>
            <path d="M40,40 L39.9961582,40.2799048 C39.8479317,45.6733292 35.4292399,50 30,50 L30.0038418,49.7200952 C30.1520683,44.3266708 34.5707601,40 40,40 Z" id="形状结合"></path>
            <path d="M30,40 L29.9961582,40.2799048 C29.8479317,45.6733292 25.4292399,50 20,50 L20.0038418,49.7200952 C20.1520683,44.3266708 24.5707601,40 30,40 Z" id="形状结合" transform="translate(25.000000, 45.000000) scale(-1, 1) translate(-25.000000, -45.000000) "></path>
            <path d="M40,50 L39.9961582,50.2799048 C39.8479317,55.6733292 35.4292399,60 30,60 L30.0038418,59.7200952 C30.1520683,54.3266708 34.5707601,50 40,50 Z" id="形状结合" transform="translate(35.000000, 55.000000) scale(-1, 1) rotate(-180.000000) translate(-35.000000, -55.000000) "></path>
            <path d="M30,50 L29.9961582,50.2799048 C29.8479317,55.6733292 25.4292399,60 20,60 L20.0038418,59.7200952 C20.1520683,54.3266708 24.5707601,50 30,50 Z" id="形状结合" transform="translate(25.000000, 55.000000) rotate(180.000000) translate(-25.000000, -55.000000) "></path>
            <path d="M60,40 L59.9961582,40.2799048 C59.8479317,45.6733292 55.4292399,50 50,50 L50.0038418,49.7200952 C50.1520683,44.3266708 54.5707601,40 60,40 Z" id="形状结合"></path>
            <path d="M50,40 L49.9961582,40.2799048 C49.8479317,45.6733292 45.4292399,50 40,50 L40.0038418,49.7200952 C40.1520683,44.3266708 44.5707601,40 50,40 Z" id="形状结合" transform="translate(45.000000, 45.000000) scale(-1, 1) translate(-45.000000, -45.000000) "></path>
            <path d="M60,50 L59.9961582,50.2799048 C59.8479317,55.6733292 55.4292399,60 50,60 L50.0038418,59.7200952 C50.1520683,54.3266708 54.5707601,50 60,50 Z" id="形状结合" transform="translate(55.000000, 55.000000) scale(-1, 1) rotate(-180.000000) translate(-55.000000, -55.000000) "></path>
            <path d="M50,50 L49.9961582,50.2799048 C49.8479317,55.6733292 45.4292399,60 40,60 L40.0038418,59.7200952 C40.1520683,54.3266708 44.5707601,50 50,50 Z" id="形状结合" transform="translate(45.000000, 55.000000) rotate(180.000000) translate(-45.000000, -55.000000) "></path>
        </g>
    </g>
</svg>
