<?xml version="1.0" encoding="UTF-8"?>
<svg width="61px" height="60px" viewBox="0 0 61 60" version="1.1" xmlns="http://www.w3.org/2000/svg" xmlns:xlink="http://www.w3.org/1999/xlink">
    <title>pattern-28</title>
    <g id="1.4" stroke="none" stroke-width="1" fill="none" fill-rule="evenodd">
        <g id="pattern-28" transform="translate(0.246848, 0.000500)" fill="#545458" fill-rule="nonzero">
            <path d="M13.5923,13.900106 C10.7203,14.401092 7.8943,12.757139 6.9073,10.017216 C7.0823,9.987217 7.2623,9.962218 7.4433,9.948218 C10.2123,9.723225 12.6933,11.409177 13.5923,13.900106 Z M11.8246,5.915132 C11.9806,6.00513 12.1326,6.100127 12.2816,6.205124 C14.5466,7.813079 15.3576,10.696997 14.4456,13.182926 C11.9276,11.718968 10.8216,8.646055 11.8246,5.915132 Z M0,1.362761 C1.855,3.588698 1.852,6.832606 0,9.053543 L0,1.362761 Z M1.0471538,0.976272 C3.9182,1.488258 6.0122,4.000187 6.00230616,6.912104 C5.8262,6.881105 5.6492,6.843106 5.4732,6.793108 C2.7942,6.059128 1.0412,3.626197 1.0471538,0.976272 Z M7.5744,0.0001 C8.1874,0.34809 8.7474,0.807077 9.2204,1.374061 C9.0644,1.464059 8.9054,1.546056 8.7394,1.623054 C6.2144,2.781021 3.3074,2.045042 1.6314,0.0001 L7.5744,0.0001 Z M8.126,55.06214 C8.064,55.230135 7.996,55.39713 7.918,55.562126 C6.727,58.071055 4.027,59.377018 1.42,58.911031 C2.423,56.172108 5.259,54.547154 8.126,55.06214 Z M28.592,58.900631 C25.72,59.400617 22.895,57.755664 21.906,55.015741 C22.083,54.986742 22.264,54.961743 22.444,54.946743 C25.212,54.72275 27.693,56.407702 28.592,58.900631 Z M3.2302,50.930757 C3.2912,51.099752 3.3462,51.272747 3.3922,51.447742 C4.0942,54.134666 2.8642,56.871589 0.5662,58.189551 C-0.4248,55.447629 0.7032,52.378716 3.2302,50.930757 Z M26.8255,50.914757 C26.9785,51.004755 27.1325,51.099752 27.2825,51.204749 C29.5465,52.812704 30.3595,55.695622 29.4455,58.183551 C26.9265,56.718593 25.8205,53.64468 26.8255,50.914757 Z M14.9967,46.356887 C16.8647,48.593823 16.8557,51.859731 14.9747,54.085668 C14.8607,53.946672 14.7517,53.804676 14.6487,53.65468 C13.0707,51.370744 13.2897,48.379829 14.9967,46.356887 Z M16.0486191,45.974797 C18.9187,46.488783 21.0107,48.999712 21.0027686,51.912629 C20.8257,51.87963 20.6487,51.841631 20.4727,51.793633 C17.7947,51.057653 16.0407,48.624722 16.0486191,45.974797 Z M13.9491,45.967698 C13.9491,46.150692 13.9411,46.330687 13.9251,46.509682 C13.6771,49.189606 11.6531,51.412543 8.9631,51.87853 C8.9641,51.698535 8.9721,51.51854 8.9901,51.335545 C9.2481,48.571624 11.3401,46.420685 13.9491,45.967698 Z M24.2204,46.374586 C24.0654,46.461584 23.9044,46.545581 23.7394,46.622579 C21.2144,47.779546 18.3074,47.043567 16.6104,45.010625 C19.1384,43.559666 22.3554,44.137649 24.2204,46.374586 Z M13.3892,45.001825 C11.5102,47.227762 8.2952,47.782746 5.7802,46.320788 C5.8952,46.184791 6.0142,46.049795 6.1432,45.922799 C8.1202,43.971854 11.0992,43.674863 13.3892,45.001825 Z M1.6313,60.000025 L7.5743,60.000025 C5.7743,58.979025 3.5143,58.927025 1.6313,60.000025 Z M8.1268,25.06149 C8.0638,25.230485 7.9958,25.39748 7.9178,25.562476 C6.7268,28.071405 4.0268,29.377368 1.4198,28.911381 C2.4228,26.171458 5.2588,24.547504 8.1268,25.06149 Z M28.5918,28.901081 C25.7198,29.401067 22.8948,27.756114 21.9068,25.016191 C22.0828,24.986192 22.2638,24.961193 22.4438,24.947193 C25.2128,24.7232 27.6928,26.408152 28.5918,28.901081 Z M3.2302,20.931607 C3.2912,21.101602 3.3462,21.271597 3.3922,21.448592 C4.0942,24.136516 2.8642,26.871439 0.5662,28.190401 C-0.4248,25.447479 0.7032,22.377566 3.2302,20.931607 Z M26.8255,20.915607 C26.9785,21.006605 27.1325,21.101602 27.2825,21.206599 C29.5465,22.813554 30.3595,25.696472 29.4455,28.183401 C26.9265,26.719443 25.8205,23.64553 26.8255,20.915607 Z M14.9967,16.355837 C16.8647,18.593773 16.8557,21.860681 14.9747,24.084618 C14.8607,23.947621 14.7517,23.805626 14.6487,23.65563 C13.0707,21.370694 13.2897,18.380779 14.9967,16.355837 Z M16.0482191,15.976047 C18.9183,16.488033 21.0103,19.000962 21.0023686,21.912879 C20.8253,21.87888 20.6483,21.841881 20.4723,21.792883 C17.7953,21.057903 16.0403,18.623972 16.0482191,15.976047 Z M13.9491,15.968648 C13.9491,16.151642 13.9411,16.331637 13.9251,16.510632 C13.6771,19.188556 11.6531,21.414493 8.9631,21.87848 C8.9641,21.699485 8.9721,21.51849 8.9901,21.336495 C9.2481,18.571574 11.3401,16.420635 13.9491,15.968648 Z M24.22,16.373836 C24.065,16.461834 23.905,16.546831 23.74,16.621829 C21.215,17.780796 18.307,17.044817 16.61,15.009875 C19.138,13.557916 22.355,14.137899 24.22,16.373836 Z M13.3892,15.002675 C11.5102,17.227612 8.2952,17.783596 5.7802,16.321638 C5.8952,16.185641 6.0142,16.050645 6.1432,15.923649 C8.1202,13.972704 11.0992,13.674713 13.3892,15.002675 Z M13.5923,43.900156 C10.7203,44.401142 7.8943,42.756189 6.9073,40.017266 C7.0823,39.986267 7.2623,39.962268 7.4433,39.947268 C10.2123,39.723275 12.6933,41.408227 13.5923,43.900156 Z M11.824,35.915482 C11.98,36.00448 12.132,36.099477 12.282,36.206474 C14.546,37.813429 15.358,40.695347 14.446,43.183276 C11.927,41.720318 10.821,38.645405 11.824,35.915482 Z M0,31.361911 C1.855,33.588848 1.852,36.830756 0,39.052694 L0,31.361911 Z M1.0471538,30.975322 C3.9182,31.488308 6.0122,33.999237 6.00230616,36.912154 C5.8262,36.880155 5.6492,36.841156 5.4732,36.794157 C2.7942,36.058178 1.0412,33.625247 1.0471538,30.975322 Z M9.2204,31.374011 C9.0644,31.463009 8.9054,31.547006 8.7394,31.623004 C6.2144,32.779971 3.3074,32.044992 1.6094,30.01105 C4.1374,28.558091 7.3544,29.138074 9.2204,31.374011 Z M53.1246,10.064215 C53.0636,10.23021 52.9946,10.398205 52.9156,10.564201 C51.7276,13.07213 49.0266,14.378093 46.4186,13.910106 C47.4216,11.172183 50.2596,9.548229 53.1246,10.064215 Z M48.2299,5.930632 C48.2909,6.100627 48.3459,6.272622 48.3909,6.448617 C49.0929,9.135541 47.8639,11.871464 45.5659,13.190426 C44.5749,10.448504 45.7029,7.379591 48.2299,5.930632 Z M60.0003,1.362961 L60.0003,9.053743 L59.9743,9.085743 C59.8603,8.947746 59.7513,8.804751 59.6473,8.653755 C58.0693,6.371819 58.2893,3.379904 60.0003,1.362961 Z M58.9506,0.968673 C58.9486,1.150667 58.9396,1.330662 58.9246,1.509657 C58.6756,4.189581 56.6536,6.412518 53.9626,6.879505 C53.9626,6.69851 53.9706,6.519515 53.9886,6.33652 C54.2466,3.572599 56.3386,1.42266 58.9506,0.968673 Z M52.3494,0 L58.3874,0.003 C56.5094,2.227937 53.2944,2.782921 50.7774,1.321963 C50.8944,1.185966 51.0154,1.05197 51.1434,0.923974 C51.5134,0.557984 51.9194,0.249993 52.3494,0 Z M38.125,55.06214 C38.064,55.230135 37.994,55.39713 37.915,55.562126 C36.727,58.071055 34.027,59.377018 31.42,58.911031 C32.424,56.172108 35.26,54.547154 38.125,55.06214 Z M58.5918,58.901031 C55.7188,59.401017 52.8928,57.756064 51.9058,55.016141 C52.0828,54.987142 52.2618,54.962143 52.4448,54.947143 C55.2118,54.72315 57.6918,56.407102 58.5918,58.901031 Z M33.2302,50.930757 C33.2912,51.099752 33.3472,51.272747 33.3922,51.447742 C34.0942,54.134666 32.8642,56.871589 30.5672,58.189551 C29.5752,55.447629 30.7032,52.378716 33.2302,50.930757 Z M56.8247,50.914757 C56.9787,51.004755 57.1327,51.099752 57.2807,51.204749 C59.5447,52.812704 60.3577,55.695622 59.4447,58.183551 C56.9267,56.718593 55.8197,53.64468 56.8247,50.914757 Z M44.9958,46.356887 C46.8638,48.593823 46.8538,51.859731 44.9748,54.085668 C44.8608,53.946672 44.7508,53.804676 44.6468,53.65468 C43.0688,51.370744 43.2888,48.379829 44.9958,46.356887 Z M46.0477191,45.974797 C48.9178,46.488783 51.0098,48.999712 51.0018686,51.912629 C50.8258,51.87963 50.6478,51.841631 50.4728,51.793633 C47.7938,51.057653 46.0398,48.624722 46.0477191,45.974797 Z M43.9501,45.967698 C43.9491,46.150692 43.9391,46.330687 43.9241,46.509682 C43.6761,49.189606 41.6521,51.412543 38.9641,51.87853 C38.9641,51.698535 38.9711,51.51854 38.9881,51.335545 C39.2461,48.571624 41.3381,46.420685 43.9501,45.967698 Z M54.2194,46.374586 C54.0654,46.461584 53.9044,46.545581 53.7384,46.622579 C51.2144,47.779546 48.3074,47.043567 46.6084,45.010625 C49.1384,43.559666 52.3564,44.137649 54.2194,46.374586 Z M43.3883,45.001825 C41.5073,47.227762 38.2933,47.782746 35.7783,46.320788 C35.8943,46.184791 36.0133,46.049795 36.1443,45.922799 C38.1193,43.971854 41.0983,43.674863 43.3883,45.001825 Z M52.3497,60.000026 L58.3837,60.000026 C56.5247,58.922026 54.2107,58.918026 52.3497,60.000026 Z M38.1241,25.06149 C38.0641,25.230485 37.9941,25.39748 37.9151,25.562476 C36.7271,28.071405 34.0271,29.377368 31.4201,28.911381 C32.4241,26.171458 35.2601,24.547504 38.1241,25.06149 Z M58.5918,28.901081 C55.7188,29.401067 52.8928,27.756114 51.9058,25.016191 C52.0828,24.986192 52.2618,24.961193 52.4448,24.947193 C55.2118,24.7232 57.6918,26.408152 58.5918,28.901081 Z M33.2298,20.931807 C33.2918,21.101802 33.3468,21.271797 33.3918,21.448792 C34.0938,24.135716 32.8648,26.871639 30.5668,28.190601 C29.5748,25.447679 30.7038,22.377766 33.2298,20.931807 Z M56.8247,20.915607 C56.9787,21.006605 57.1327,21.101602 57.2807,21.206599 C59.5447,22.813554 60.3577,25.696472 59.4447,28.183401 C56.9267,26.719443 55.8197,23.64553 56.8247,20.915607 Z M44.9958,16.355837 C46.8638,18.593773 46.8538,21.860681 44.9748,24.084618 C44.8608,23.947621 44.7508,23.805626 44.6468,23.65563 C43.0688,21.370694 43.2888,18.380779 44.9958,16.355837 Z M46.0473191,15.976047 C48.9174,16.488033 51.0094,19.000962 51.0014686,21.912879 C50.8254,21.87888 50.6474,21.841881 50.4724,21.792883 C47.7944,21.057903 46.0394,18.623972 46.0473191,15.976047 Z M43.9501,15.968648 C43.9491,16.151642 43.9391,16.331637 43.9241,16.510632 C43.6761,19.188556 41.6521,21.414493 38.9641,21.87848 C38.9641,21.699485 38.9711,21.51849 38.9881,21.336495 C39.2461,18.571574 41.3381,16.420635 43.9501,15.968648 Z M54.2191,16.373836 C54.0651,16.461834 53.9041,16.546831 53.7391,16.621829 C51.2141,17.780796 48.3071,17.044817 46.6081,15.009875 C49.1381,13.557916 52.3561,14.137899 54.2191,16.373836 Z M43.3883,15.002675 C41.5073,17.227612 38.2933,17.783596 35.7783,16.321638 C35.8943,16.185641 36.0133,16.050645 36.1443,15.923649 C38.1193,13.972704 41.0983,13.674713 43.3883,15.002675 Z M53.1245,40.062365 C53.0635,40.23036 52.9945,40.397355 52.9155,40.563351 C51.7275,43.07328 49.0265,44.378243 46.4185,43.910256 C47.4215,41.172333 50.2595,39.547379 53.1245,40.062365 Z M48.2304,35.931382 C48.2914,36.099377 48.3454,36.272372 48.3904,36.449367 C49.0924,39.135291 47.8644,41.871214 45.5654,43.190176 C44.5754,40.448254 45.7034,37.379341 48.2304,35.931382 Z M60.0003,31.361911 L60.0003,39.052694 L59.9743,39.084693 C59.8603,38.946697 59.7513,38.804701 59.6473,38.654705 C58.0693,36.370769 58.2893,33.380854 60.0003,31.361911 Z M58.9512,30.967323 C58.9492,31.150317 58.9402,31.330312 58.9242,31.509307 C58.6752,34.188231 56.6532,36.412168 53.9632,36.877155 C53.9632,36.69916 53.9712,36.517165 53.9882,36.33617 C54.2462,33.572249 56.3382,31.42231 58.9512,30.967323 Z M58.3878,30.00275 C56.5088,32.226687 53.2948,32.782671 50.7778,31.320713 C50.8948,31.184716 51.0148,31.05172 51.1438,30.922724 C53.1188,28.973779 56.0988,28.674788 58.3878,30.00275 Z M23.1265,10.064215 C23.0645,10.23021 22.9955,10.398205 22.9155,10.564201 C21.7275,13.07213 19.0265,14.378093 16.4195,13.910106 C17.4245,11.172183 20.2595,9.548229 23.1265,10.064215 Z M43.5923,13.900106 C40.7183,14.401092 37.8933,12.757139 36.9053,10.017216 C37.0823,9.987217 37.2623,9.962218 37.4423,9.948218 C40.2123,9.723225 42.6923,11.409177 43.5923,13.900106 Z M18.2316,5.930632 C18.2916,6.100627 18.3466,6.272622 18.3926,6.448617 C19.0946,9.135541 17.8656,11.871464 15.5666,13.190426 C14.5756,10.448504 15.7036,7.379591 18.2316,5.930632 Z M41.8235,5.915132 C41.9785,6.00513 42.1325,6.100127 42.2815,6.205124 C44.5455,7.813079 45.3575,10.696997 44.4455,13.182926 C41.9275,11.718968 40.8215,8.646055 41.8235,5.915132 Z M29.9952,1.356962 C31.8642,3.593898 31.8552,6.860806 29.9752,9.085743 C29.8602,8.947746 29.7502,8.804751 29.6482,8.653755 C28.0702,6.371819 28.2882,3.379904 29.9952,1.356962 Z M31.0480374,0.976272 C33.9181,1.488258 36.0111,4.000187 36.0002285,6.912104 C35.8251,6.881105 35.6481,6.843106 35.4731,6.793108 C32.7961,6.059128 31.0411,3.626197 31.0480374,0.976272 Z M28.9496,0.968673 C28.9496,1.150667 28.9406,1.330662 28.9246,1.509657 C28.6766,4.189581 26.6546,6.412518 23.9636,6.879505 C23.9646,6.69851 23.9706,6.519515 23.9896,6.33652 C24.2486,3.572599 26.3396,1.42266 28.9496,0.968673 Z M37.5735,0.0001 C38.1875,0.34809 38.7465,0.807077 39.2205,1.374061 C39.0635,1.464059 38.9035,1.546056 38.7375,1.623054 C36.2145,2.781021 33.3075,2.045042 31.6305,0.0001 L37.5735,0.0001 Z M22.3504,0 L28.3894,0.003 C26.5104,2.227937 23.2934,2.782921 20.7784,1.321963 C20.8954,1.185966 21.0154,1.05197 21.1434,0.923974 C21.5144,0.557984 21.9204,0.249993 22.3504,0 Z M31.6304,60.000025 L37.5734,60.000025 C35.7744,58.979025 33.5134,58.927025 31.6304,60.000025 Z M22.3506,60.000026 L28.3856,60.000026 C26.5246,58.922026 24.2116,58.918026 22.3506,60.000026 Z M23.1265,40.062365 C23.0645,40.23036 22.9955,40.397355 22.9155,40.563351 C21.7275,43.07328 19.0265,44.378243 16.4195,43.910256 C17.4245,41.172333 20.2595,39.547379 23.1265,40.062365 Z M43.5923,43.900156 C40.7183,44.401142 37.8933,42.756189 36.9053,40.017266 C37.0823,39.986267 37.2623,39.962268 37.4423,39.947268 C40.2123,39.723275 42.6923,41.408227 43.5923,43.900156 Z M18.2313,35.931382 C18.2923,36.099377 18.3463,36.272372 18.3923,36.449367 C19.0943,39.135291 17.8663,41.871214 15.5663,43.190176 C14.5753,40.448254 15.7043,37.379341 18.2313,35.931382 Z M41.8231,35.915482 C41.9781,36.00448 42.1321,36.099477 42.2811,36.206474 C44.5451,37.813429 45.3581,40.695347 44.4451,43.183276 C41.9271,41.720318 40.8211,38.645405 41.8231,35.915482 Z M29.9955,31.356412 C31.8645,33.595348 31.8555,36.859256 29.9755,39.084193 C29.8605,38.946197 29.7505,38.804201 29.6485,38.655205 C28.0705,36.37027 28.2885,33.381354 29.9955,31.356412 Z M31.0480374,30.975322 C33.9181,31.488308 36.0111,33.999237 36.0002285,36.912154 C35.8251,36.880155 35.6481,36.841156 35.4731,36.794157 C32.7961,36.058178 31.0411,33.625247 31.0480374,30.975322 Z M28.9496,30.967723 C28.9496,31.150717 28.9406,31.329712 28.9246,31.509707 C28.6766,34.187631 26.6546,36.412568 23.9636,36.877555 C23.9646,36.69856 23.9706,36.517565 23.9896,36.33657 C24.2486,33.572649 26.3396,31.42271 28.9496,30.967723 Z M39.2205,31.374011 C39.0635,31.463009 38.9035,31.547006 38.7375,31.623004 C36.2145,32.779971 33.3075,32.044992 31.6095,30.01105 C34.1395,28.558091 37.3555,29.138074 39.2205,31.374011 Z M28.3896,30.00275 C26.5096,32.226687 23.2936,32.782671 20.7786,31.320713 C20.8956,31.184716 21.0146,31.05172 21.1436,30.922724 C23.1196,28.973779 26.0996,28.674788 28.3896,30.00275 Z" id="28"></path>
        </g>
    </g>
</svg>
