<?xml version="1.0" encoding="UTF-8"?>
<svg width="61px" height="60px" viewBox="0 0 61 60" version="1.1" xmlns="http://www.w3.org/2000/svg" xmlns:xlink="http://www.w3.org/1999/xlink">
    <title>pattern-25</title>
    <g id="1.4" stroke="none" stroke-width="1" fill="none" fill-rule="evenodd">
        <g id="pattern-25" transform="translate(0.540034, 0.000500)" fill="#545458" fill-rule="nonzero">
            <path d="M0,0 L0,8.463318 L6.509476,8.463318 L3.254738,0 L0,0 Z M0,60.000499 L3.254738,60.000499 L0,51.53818 L0,60.000499 Z M0,48.462253 L6.509476,48.462253 L0,31.537614 L0,48.462253 Z M0,28.462386 L6.509476,28.462386 L0,11.538746 L0,28.462386 Z M56.744164,0 L53.490424,8.463318 L59.9999,8.463318 L59.9999,0 L56.744164,0 Z M56.744164,60.000499 L59.9999,60.000499 L59.9999,51.53818 L56.744164,60.000499 Z M53.490524,48.462253 L60,48.462253 L60,31.537614 L53.490524,48.462253 Z M53.490524,28.462386 L60,28.462386 L60,11.538746 L53.490524,28.462386 Z M11.744912,0 L8.491173,8.463318 L21.508129,8.463318 L18.255387,0 L11.744912,0 Z M11.744912,60.000499 L18.255387,60.000499 L15.000649,51.53818 L11.744912,60.000499 Z M8.491173,48.462253 L21.509127,48.462253 L14.999651,31.537614 L8.491173,48.462253 Z M8.491173,28.462386 L21.509127,28.462386 L14.999651,11.538746 L8.491173,28.462386 Z M26.745262,0 L23.490524,8.463318 L36.508478,8.463318 L33.254738,0 L26.745262,0 Z M26.745262,60.000499 L33.254738,60.000499 L30,51.53818 L26.745262,60.000499 Z M23.490424,48.462253 L36.509377,48.462253 L29.9999,31.537614 L23.490424,48.462253 Z M23.490424,28.462386 L36.509377,28.462386 L29.9999,11.538746 L23.490424,28.462386 Z M41.744713,0 L38.489975,8.463318 L51.508927,8.463318 L48.254189,0 L41.744713,0 Z M41.744713,60.000499 L48.254189,60.000499 L45.000449,51.53818 L41.744713,60.000499 Z M38.490574,48.462253 L51.509526,48.462253 L45.00005,31.537614 L38.490574,48.462253 Z M38.490574,28.462386 L51.509526,28.462386 L45.00005,11.538746 L38.490574,28.462386 Z" id="25"></path>
        </g>
    </g>
</svg>
