<?xml version="1.0" encoding="UTF-8"?>
<svg width="61px" height="60px" viewBox="0 0 61 60" version="1.1" xmlns="http://www.w3.org/2000/svg" xmlns:xlink="http://www.w3.org/1999/xlink">
    <title>pattern-7</title>
    <g id="1.4" stroke="none" stroke-width="1" fill="none" fill-rule="evenodd">
        <g id="pattern-7" transform="translate(0.598820, 0.000500)" fill="#545458" fill-rule="nonzero">
            <path d="M33.963796,0 L33.964794,59.999301 L34.959175,59.999301 L40.039902,59.999301 L41.035281,59.999301 L41.035281,0 L33.963796,0 Z M42.293233,0 L44.998827,2.7055944 L47.703423,0 L42.293233,0 Z M18.964519,0 L18.965518,59.999301 L19.959899,59.999301 L25.040626,59.999301 L26.035006,59.999301 L26.035006,0 L18.964519,0 Z M27.293956,0 L29.999551,2.7055944 L32.704147,0 L27.293956,0 Z M3.964345,0 L3.965343,59.999301 L4.960722,59.999301 L10.041449,59.999301 L11.034832,59.999301 L11.034832,0 L3.964345,0 Z M12.29468,0 L14.999276,2.7055944 L17.703872,0 L12.29468,0 Z M0,0 L0,1.2709305 L0,2.7055944 L2.704596,0 L0,0 Z M57.293407,0 L60,2.7055944 L60,0 L57.293407,0 Z M48.963072,0 L48.965069,59.999301 L49.960448,59.999301 L55.039178,59.999301 L56.034557,59.999301 L56.034557,0 L48.963072,0 Z M0,58.729269 L0,59.999201 L1.270931,59.999201 L2.704596,59.999201 L0,57.294605 L0,58.729269 Z M0,52.062126 L0,54.603987 L0,56.037652 L2.704596,53.332058 L0,50.62846 L0,52.062126 Z M0,45.39588 L0,47.936743 L0,49.371407 L2.704596,46.666811 L0,43.961216 L0,45.39588 Z M0,38.729635 L0,41.270498 L0,42.705162 L2.704596,40.000566 L0,37.294971 L0,38.729635 Z M0,32.062492 L0,34.604353 L0,36.038018 L2.704596,33.333422 L0,30.628826 L0,32.062492 Z M0,25.396246 L0,27.936111 L0,29.371773 L2.704596,26.666179 L0,23.961583 L0,25.396246 Z M0,18.730001 L0,21.270864 L0,22.705528 L2.704596,20.000932 L0,17.295337 L0,18.730001 Z M0,12.0628576 L0,14.6037203 L0,16.038384 L2.704596,13.3327898 L0,10.6281938 L0,12.0628576 Z M0,5.3966125 L0,7.9374751 L0,9.372139 L2.704596,6.6665446 L0,3.9619486 L0,5.3966125 Z M57.293407,59.998902 L58.727073,59.998902 L60,59.998902 L60,57.294306 L57.293407,59.998902 Z M57.293407,53.331758 L60,56.037353 L60,50.62816 L57.293407,53.331758 Z M57.293407,46.666412 L60,49.372006 L60,43.960817 L57.293407,46.666412 Z M57.293407,40.000166 L60,42.704762 L60,37.294572 L57.293407,40.000166 Z M57.293407,33.333023 L60,36.038617 L60,30.628427 L57.293407,33.333023 Z M57.293407,26.665879 L60,29.371473 L60,23.961283 L57.293407,26.665879 Z M57.293407,20.000532 L60,22.706127 L60,17.294938 L57.293407,20.000532 Z M57.293407,13.3324903 L60,16.039083 L60,10.6278942 L57.293407,13.3324903 Z M57.293407,6.6662451 L60,9.3728379 L60,3.9616491 L57.293407,6.6662451 Z M42.293233,59.998902 L43.727896,59.998902 L46.269757,59.998902 L47.703423,59.998902 L44.998827,57.294306 L42.293233,59.998902 Z M42.293332,53.332157 L44.998927,56.037752 L47.702524,53.332157 L44.998927,50.627561 L42.293332,53.332157 Z M42.293332,46.666412 L44.998927,49.372006 L47.702524,46.666412 L44.998927,43.960817 L42.293332,46.666412 Z M42.293332,39.999767 L44.998927,42.705361 L47.702524,39.999767 L44.998927,37.294173 L42.293332,39.999767 Z M42.293332,33.333023 L44.998927,36.038617 L47.702524,33.333023 L44.998927,30.628427 L42.293332,33.333023 Z M42.293332,26.665779 L44.998927,29.371374 L47.702524,26.665779 L44.998927,23.961183 L42.293332,26.665779 Z M42.293332,20.000433 L44.998927,22.706027 L47.702524,20.000433 L44.998927,17.294838 L42.293332,20.000433 Z M42.293332,13.3328896 L44.998927,16.038484 L47.702524,13.3328896 L44.998927,10.6282936 L42.293332,13.3328896 Z M42.293332,6.6666445 L44.998927,9.3722389 L47.702524,6.6666445 L44.998927,3.9620485 L42.293332,6.6666445 Z M27.293956,59.998902 L28.72862,59.998902 L31.269483,59.998902 L32.704147,59.998902 L29.999551,57.294306 L27.293956,59.998902 Z M27.294256,53.332157 L29.998852,56.037752 L32.703448,53.332157 L29.998852,50.627561 L27.294256,53.332157 Z M27.294256,46.666412 L29.998852,49.372006 L32.703448,46.666412 L29.998852,43.960817 L27.294256,46.666412 Z M27.294256,39.999767 L29.998852,42.705361 L32.703448,39.999767 L29.998852,37.294173 L27.294256,39.999767 Z M27.294256,33.333023 L29.998852,36.038617 L32.703448,33.333023 L29.998852,30.628427 L27.294256,33.333023 Z M27.294256,26.665779 L29.998852,29.371374 L32.703448,26.665779 L29.998852,23.961183 L27.294256,26.665779 Z M27.294256,20.000433 L29.998852,22.706027 L32.703448,20.000433 L29.998852,17.294838 L27.294256,20.000433 Z M27.294256,13.3328896 L29.998852,16.038484 L32.703448,13.3328896 L29.998852,10.6282936 L27.294256,13.3328896 Z M27.294256,6.6666445 L29.998852,9.3722389 L32.703448,6.6666445 L29.998852,3.9620485 L27.294256,6.6666445 Z M12.29468,59.998902 L13.728346,59.998902 L16.270207,59.998902 L17.703872,59.998902 L14.999276,57.294306 L12.29468,59.998902 Z M12.294381,53.332157 L14.998977,56.037752 L17.703573,53.332157 L14.998977,50.627561 L12.294381,53.332157 Z M12.294381,46.666412 L14.998977,49.372006 L17.703573,46.666412 L14.998977,43.960817 L12.294381,46.666412 Z M12.294381,39.999767 L14.998977,42.705361 L17.703573,39.999767 L14.998977,37.294173 L12.294381,39.999767 Z M12.294381,33.333023 L14.998977,36.038617 L17.703573,33.333023 L14.998977,30.628427 L12.294381,33.333023 Z M12.294381,26.665779 L14.998977,29.371374 L17.703573,26.665779 L14.998977,23.961183 L12.294381,26.665779 Z M12.294381,20.000433 L14.998977,22.706027 L17.703573,20.000433 L14.998977,17.294838 L12.294381,20.000433 Z M12.294381,13.3328896 L14.998977,16.038484 L17.703573,13.3328896 L14.998977,10.6282936 L12.294381,13.3328896 Z M12.294381,6.6666445 L14.998977,9.3722389 L17.703573,6.6666445 L14.998977,3.9620485 L12.294381,6.6666445 Z" id="7"></path>
        </g>
    </g>
</svg>
