<?xml version="1.0" encoding="UTF-8"?>
<svg width="61px" height="60px" viewBox="0 0 61 60" version="1.1" xmlns="http://www.w3.org/2000/svg" xmlns:xlink="http://www.w3.org/1999/xlink">
    <title>pattern-16</title>
    <g id="1.4" stroke="none" stroke-width="1" fill="none" fill-rule="evenodd">
        <g id="pattern-16" transform="translate(0.008446, 0.000500)" fill="#545458" fill-rule="nonzero">
            <path d="M6.4061,0 L0.0001,0 L0.0001,11.617 C3.6811,11.597 7.2791,8.468 6.6531,1.643 C6.6031,1.102 6.5181,0.552 6.4061,0 Z M0,60 L6.406,60 C5.165,53.818 0.433,47.17 0,46.569 L0,60 Z M0,16.5696 L0,41.6166 C3.681,41.5966 7.279,38.4666 6.653,31.6426 C6.049,25.0556 0.472,17.2246 0,16.5696 Z M53.5914,0 C53.4794,0.552 53.3954,1.102 53.3444,1.643 C52.7184,8.468 56.3164,11.597 59.9984,11.617 L59.9984,0 L53.5914,0 Z M59.9983,60 L59.9983,46.569 L59.57218,47.177808 C58.28428,49.059918 54.655014,54.701143 53.5913,60 L59.9983,60 Z M59.9983,41.617 L59.9983,16.57 L59.549543,17.210947 C58.104559,19.325024 53.867266,25.949017 53.3443,31.642 C52.7183,38.467 56.3163,41.596 59.9983,41.617 Z M15,31.1942 L14.707691,31.607815 C13.443308,33.42908 8.888475,40.350064 8.345,46.2672 C7.718,53.0922 11.318,56.2222 15,56.2422 C18.681,56.2222 22.28,53.0922 21.654,46.2672 C21.049,39.6802 15.472,31.8492 15,31.1942 Z M15,1.1942 L14.707691,1.607842 C13.443308,3.429263 8.888475,10.350963 8.345,16.2672 C7.718,23.0922 11.318,26.2212 15,26.2422 C18.681,26.2212 22.28,23.0922 21.654,16.2672 C21.049,9.6812 15.472,1.8492 15,1.1942 Z M36.4061,0 L23.5911,0 C23.4821,0.552 23.3941,1.102 23.3451,1.643 C22.7181,8.468 26.3171,11.597 29.9981,11.617 C33.6811,11.597 37.2791,8.468 36.6531,1.643 C36.6031,1.102 36.5181,0.552 36.4061,0 Z M23.5912,60 L36.4062,60 C35.1652,53.818 30.4332,47.17 29.9982,46.569 L29.784726,46.869965 C28.747193,48.353428 24.722307,54.369964 23.5912,60 Z M29.9982,16.5696 L29.549797,17.210854 C28.105459,19.325389 23.868166,25.948753 23.3452,31.6426 C22.7182,38.4666 26.3172,41.5966 29.9982,41.6166 C33.6812,41.5966 37.2792,38.4666 36.6522,31.6426 C36.0462,25.0556 30.4732,17.2246 29.9982,16.5696 Z M45.0001,31.1942 L44.707546,31.607815 C43.442611,33.42908 38.888676,40.350064 38.3461,46.2672 C37.7181,53.0922 41.3171,56.2222 45.0001,56.2422 C48.6811,56.2222 52.2791,53.0922 51.6531,46.2672 C51.0461,39.6802 45.4721,31.8492 45.0001,31.1942 Z M45.0001,1.1942 L44.707546,1.607842 C43.442611,3.429263 38.888676,10.350963 38.3461,16.2672 C37.7181,23.0922 41.3171,26.2212 45.0001,26.2422 C48.6811,26.2212 52.2791,23.0922 51.6531,16.2672 C51.0461,9.6812 45.4721,1.8492 45.0001,1.1942 Z" id="16"></path>
        </g>
    </g>
</svg>
