<?xml version="1.0" encoding="UTF-8"?>
<svg width="61px" height="61px" viewBox="0 0 61 61" version="1.1" xmlns="http://www.w3.org/2000/svg" xmlns:xlink="http://www.w3.org/1999/xlink">
    <title>pattern-2</title>
    <g id="1.4" stroke="none" stroke-width="1" fill="none" fill-rule="evenodd">
        <g id="pattern-2" transform="translate(0.025048, 0.901571)" fill="#545458" fill-rule="nonzero">
            <path d="M8.5442764e-13,48.9992721 L7,59.9991087 L0.000445643675,59.9991087 L8.5442764e-13,48.9992721 Z M59.9995544,48.9992721 L60,59.9991087 L52.999,59.9991087 L59.9995544,48.9992721 Z M29.9997772,33.9994949 L44.0001188,55.9991681 L16.0003268,55.9991681 L29.9997772,33.9994949 Z M59.9995544,18.9997178 L60,40.999 L46.000104,40.999391 L59.9995544,18.9997178 Z M0,18.9997178 L14.0003417,40.999391 L0,40.999 L0,18.9997178 Z M29.9997772,3.99994058 L44.0001188,25.9996138 L16.0003268,25.9996138 L29.9997772,3.99994058 Z M60,0 L60,10.999 L46.000104,10.9998366 L53,0 L60,0 Z M7,0 L14.0003417,10.9998366 L0,10.999 L0.000445643675,0 L7,0 Z" id="å½¢çŠ¶ç»“åˆ"></path>
        </g>
    </g>
</svg>
