<?xml version="1.0" encoding="UTF-8"?>
<svg width="61px" height="60px" viewBox="0 0 61 60" version="1.1" xmlns="http://www.w3.org/2000/svg" xmlns:xlink="http://www.w3.org/1999/xlink">
    <title>pattern-24</title>
    <g id="1.4" stroke="none" stroke-width="1" fill="none" fill-rule="evenodd">
        <g id="pattern-24" transform="translate(0.377889, 0.000500)" fill="#545458" fill-rule="nonzero">
            <path d="M58.0011192,52.7544504 L53.4531192,57.2034504 L48.9061192,52.7544504 C48.4671192,52.3244504 47.7351192,52.3454504 47.2711192,52.7994504 C46.8051192,53.2564504 46.7841192,53.9724504 47.2221192,54.4014504 L52.6321192,59.6924504 C52.8551192,59.9104504 53.1531192,60.0114504 53.4541192,59.9994504 C53.7541192,60.0114504 54.0531192,59.9104504 54.2751192,59.6924504 L59.6841192,54.4014504 C60.1231192,53.9724504 60.1021192,53.2564504 59.6371192,52.7994504 C59.1721192,52.3454504 58.4401192,52.3244504 58.0011192,52.7544504 Z M11.0941192,52.7544504 L6.54611919,57.2034504 L1.99911919,52.7544504 C1.56111919,52.3244504 0.829119185,52.3454504 0.363119185,52.7994504 C-0.101880815,53.2564504 -0.122880815,53.9724504 0.315119185,54.4014504 L5.72511919,59.6924504 C5.94811919,59.9104504 6.24611919,60.0114504 6.54711919,59.9994504 C6.84811919,60.0114504 7.14611919,59.9104504 7.36811919,59.6924504 L12.7771192,54.4014504 C13.2161192,53.9724504 13.1951192,53.2564504 12.7311192,52.7994504 C12.2651192,52.3454504 11.5331192,52.3244504 11.0941192,52.7544504 Z M26.7299192,52.7544504 L22.1819192,57.2034504 L17.6349192,52.7544504 C17.1959192,52.3244504 16.4639192,52.3454504 15.9989192,52.7994504 C15.5339192,53.2564504 15.5119192,53.9724504 15.9509192,54.4014504 L21.3609192,59.6924504 C21.5839192,59.9104504 21.8829192,60.0114504 22.1829192,59.9994504 C22.4829192,60.0114504 22.7809192,59.9104504 23.0039192,59.6924504 L28.4129192,54.4014504 C28.8519192,53.9724504 28.8309192,53.2564504 28.3659192,52.7994504 C27.9009192,52.3454504 27.1689192,52.3244504 26.7299192,52.7544504 Z M42.3652192,52.7544504 L37.8172192,57.2034504 L33.2702192,52.7544504 C32.8312192,52.3244504 32.0992192,52.3454504 31.6342192,52.7994504 C31.1682192,53.2564504 31.1482192,53.9724504 31.5862192,54.4014504 L36.9962192,59.6924504 C37.2192192,59.9104504 37.5172192,60.0114504 37.8182192,59.9994504 C38.1182192,60.0114504 38.4172192,59.9104504 38.6392192,59.6924504 L44.0482192,54.4014504 C44.4872192,53.9724504 44.4662192,53.2564504 44.0012192,52.7994504 C43.5372192,52.3454504 42.8042192,52.3244504 42.3652192,52.7544504 Z M58.0011192,44.0126504 L53.4531192,48.4626504 L48.9061192,44.0126504 C48.4671192,43.5846504 47.7351192,43.6046504 47.2711192,44.0596504 C46.8051192,44.5136504 46.7841192,45.2316504 47.2221192,45.6606504 L52.6321192,50.9536504 C52.8551192,51.1696504 53.1531192,51.2706504 53.4541192,51.2586504 C53.7541192,51.2706504 54.0531192,51.1696504 54.2751192,50.9516504 L59.6841192,45.6606504 C60.1231192,45.2316504 60.1021192,44.5136504 59.6371192,44.0596504 C59.1721192,43.6046504 58.4401192,43.5846504 58.0011192,44.0126504 Z M11.0941192,44.0126504 L6.54611919,48.4626504 L1.99911919,44.0126504 C1.56111919,43.5846504 0.829119185,43.6046504 0.363119185,44.0596504 C-0.101880815,44.5136504 -0.122880815,45.2316504 0.315119185,45.6606504 L5.72511919,50.9536504 C5.94811919,51.1696504 6.24611919,51.2706504 6.54711919,51.2586504 C6.84811919,51.2706504 7.14611919,51.1696504 7.36811919,50.9516504 L12.7771192,45.6606504 C13.2161192,45.2316504 13.1951192,44.5136504 12.7311192,44.0596504 C12.2651192,43.6046504 11.5331192,43.5846504 11.0941192,44.0126504 Z M26.7299192,44.0126504 L22.1819192,48.4626504 L17.6349192,44.0126504 C17.1959192,43.5846504 16.4639192,43.6046504 15.9989192,44.0596504 C15.5339192,44.5136504 15.5119192,45.2316504 15.9509192,45.6606504 L21.3609192,50.9536504 C21.5839192,51.1696504 21.8829192,51.2706504 22.1829192,51.2586504 C22.4829192,51.2706504 22.7809192,51.1696504 23.0039192,50.9516504 L28.4129192,45.6606504 C28.8519192,45.2316504 28.8309192,44.5136504 28.3659192,44.0596504 C27.9009192,43.6046504 27.1689192,43.5846504 26.7299192,44.0126504 Z M42.3652192,44.0126504 L37.8172192,48.4626504 L33.2702192,44.0126504 C32.8312192,43.5846504 32.0992192,43.6046504 31.6342192,44.0596504 C31.1682192,44.5136504 31.1482192,45.2316504 31.5862192,45.6606504 L36.9962192,50.9536504 C37.2192192,51.1696504 37.5172192,51.2706504 37.8182192,51.2586504 C38.1182192,51.2706504 38.4172192,51.1696504 38.6392192,50.9516504 L44.0482192,45.6606504 C44.4872192,45.2316504 44.4662192,44.5136504 44.0012192,44.0596504 C43.5372192,43.6046504 42.8042192,43.5846504 42.3652192,44.0126504 Z M58.0011192,35.2718504 L53.4531192,39.7218504 L48.9061192,35.2718504 C48.4671192,34.8438504 47.7351192,34.8638504 47.2711192,35.3188504 C46.8051192,35.7738504 46.7841192,36.4908504 47.2221192,36.9198504 L52.6321192,42.2118504 C52.8551192,42.4288504 53.1531192,42.5288504 53.4541192,42.5168504 C53.7541192,42.5288504 54.0531192,42.4278504 54.2751192,42.2118504 L59.6841192,36.9198504 C60.1231192,36.4908504 60.1021192,35.7738504 59.6371192,35.3188504 C59.1721192,34.8638504 58.4401192,34.8438504 58.0011192,35.2718504 Z M11.0941192,35.2718504 L6.54611919,39.7218504 L1.99911919,35.2718504 C1.56111919,34.8438504 0.829119185,34.8638504 0.363119185,35.3188504 C-0.101880815,35.7738504 -0.122880815,36.4908504 0.315119185,36.9198504 L5.72511919,42.2118504 C5.94811919,42.4288504 6.24611919,42.5288504 6.54711919,42.5168504 C6.84811919,42.5288504 7.14611919,42.4278504 7.36811919,42.2118504 L12.7771192,36.9198504 C13.2161192,36.4908504 13.1951192,35.7738504 12.7311192,35.3188504 C12.2651192,34.8638504 11.5331192,34.8438504 11.0941192,35.2718504 Z M26.7299192,35.2718504 L22.1819192,39.7218504 L17.6349192,35.2718504 C17.1959192,34.8438504 16.4639192,34.8638504 15.9989192,35.3188504 C15.5339192,35.7738504 15.5119192,36.4908504 15.9509192,36.9198504 L21.3609192,42.2118504 C21.5839192,42.4288504 21.8829192,42.5288504 22.1829192,42.5168504 C22.4829192,42.5288504 22.7809192,42.4278504 23.0039192,42.2118504 L28.4129192,36.9198504 C28.8519192,36.4908504 28.8309192,35.7738504 28.3659192,35.3188504 C27.9009192,34.8638504 27.1689192,34.8438504 26.7299192,35.2718504 Z M42.3652192,35.2718504 L37.8172192,39.7218504 L33.2702192,35.2718504 C32.8312192,34.8438504 32.0992192,34.8638504 31.6342192,35.3188504 C31.1682192,35.7738504 31.1482192,36.4908504 31.5862192,36.9198504 L36.9962192,42.2118504 C37.2192192,42.4288504 37.5172192,42.5288504 37.8182192,42.5168504 C38.1182192,42.5288504 38.4172192,42.4278504 38.6392192,42.2118504 L44.0482192,36.9198504 C44.4872192,36.4908504 44.4662192,35.7738504 44.0012192,35.3188504 C43.5372192,34.8638504 42.8042192,34.8438504 42.3652192,35.2718504 Z M58.0011192,26.5309504 L53.4531192,30.9809504 L48.9061192,26.5309504 C48.4671192,26.1019504 47.7351192,26.1229504 47.2711192,26.5789504 C46.8051192,27.0339504 46.7841192,27.7499504 47.2221192,28.1789504 L52.6321192,33.4709504 C52.8551192,33.6879504 53.1531192,33.7889504 53.4541192,33.7769504 C53.7541192,33.7879504 54.0531192,33.6879504 54.2751192,33.4699504 L59.6841192,28.1789504 C60.1231192,27.7499504 60.1021192,27.0339504 59.6371192,26.5789504 C59.1721192,26.1229504 58.4401192,26.1019504 58.0011192,26.5309504 Z M11.0941192,26.5309504 L6.54611919,30.9809504 L1.99911919,26.5309504 C1.56111919,26.1019504 0.829119185,26.1229504 0.363119185,26.5789504 C-0.101880815,27.0339504 -0.122880815,27.7499504 0.315119185,28.1789504 L5.72511919,33.4709504 C5.94811919,33.6879504 6.24611919,33.7889504 6.54711919,33.7769504 C6.84811919,33.7879504 7.14611919,33.6879504 7.36811919,33.4699504 L12.7771192,28.1789504 C13.2161192,27.7499504 13.1951192,27.0339504 12.7311192,26.5789504 C12.2651192,26.1229504 11.5331192,26.1019504 11.0941192,26.5309504 Z M26.7299192,26.5309504 L22.1819192,30.9809504 L17.6349192,26.5309504 C17.1959192,26.1019504 16.4639192,26.1229504 15.9989192,26.5789504 C15.5339192,27.0339504 15.5119192,27.7499504 15.9509192,28.1789504 L21.3609192,33.4709504 C21.5839192,33.6879504 21.8829192,33.7889504 22.1829192,33.7769504 C22.4829192,33.7879504 22.7809192,33.6879504 23.0039192,33.4699504 L28.4129192,28.1789504 C28.8519192,27.7499504 28.8309192,27.0339504 28.3659192,26.5789504 C27.9009192,26.1229504 27.1689192,26.1019504 26.7299192,26.5309504 Z M42.3652192,26.5309504 L37.8172192,30.9809504 L33.2702192,26.5309504 C32.8312192,26.1019504 32.0992192,26.1229504 31.6342192,26.5789504 C31.1682192,27.0339504 31.1482192,27.7499504 31.5862192,28.1789504 L36.9962192,33.4709504 C37.2192192,33.6879504 37.5172192,33.7889504 37.8182192,33.7769504 C38.1182192,33.7879504 38.4172192,33.6879504 38.6392192,33.4699504 L44.0482192,28.1789504 C44.4872192,27.7499504 44.4662192,27.0339504 44.0012192,26.5789504 C43.5372192,26.1229504 42.8042192,26.1019504 42.3652192,26.5309504 Z M58.0011192,17.7901504 L53.4531192,22.2391504 L48.9061192,17.7901504 C48.4671192,17.3611504 47.7351192,17.3821504 47.2711192,17.8371504 C46.8051192,18.2921504 46.7841192,19.0091504 47.2221192,19.4371504 L52.6321192,24.7301504 C52.8551192,24.9471504 53.1531192,25.0481504 53.4541192,25.0361504 C53.7541192,25.0471504 54.0531192,24.9471504 54.2751192,24.7301504 L59.6841192,19.4371504 C60.1231192,19.0091504 60.1021192,18.2921504 59.6371192,17.8371504 C59.1721192,17.3821504 58.4401192,17.3611504 58.0011192,17.7901504 Z M11.0941192,17.7901504 L6.54611919,22.2391504 L1.99911919,17.7901504 C1.56111919,17.3611504 0.829119185,17.3821504 0.363119185,17.8371504 C-0.101880815,18.2921504 -0.122880815,19.0091504 0.315119185,19.4371504 L5.72511919,24.7301504 C5.94811919,24.9471504 6.24611919,25.0481504 6.54711919,25.0361504 C6.84811919,25.0471504 7.14611919,24.9471504 7.36811919,24.7301504 L12.7771192,19.4371504 C13.2161192,19.0091504 13.1951192,18.2921504 12.7311192,17.8371504 C12.2651192,17.3821504 11.5331192,17.3611504 11.0941192,17.7901504 Z M26.7299192,17.7901504 L22.1819192,22.2391504 L17.6349192,17.7901504 C17.1959192,17.3611504 16.4639192,17.3821504 15.9989192,17.8371504 C15.5339192,18.2921504 15.5119192,19.0091504 15.9509192,19.4371504 L21.3609192,24.7301504 C21.5839192,24.9471504 21.8829192,25.0481504 22.1829192,25.0361504 C22.4829192,25.0471504 22.7809192,24.9471504 23.0039192,24.7301504 L28.4129192,19.4371504 C28.8519192,19.0091504 28.8309192,18.2921504 28.3659192,17.8371504 C27.9009192,17.3821504 27.1689192,17.3611504 26.7299192,17.7901504 Z M42.3652192,17.7901504 L37.8172192,22.2391504 L33.2702192,17.7901504 C32.8312192,17.3611504 32.0992192,17.3821504 31.6342192,17.8371504 C31.1682192,18.2921504 31.1482192,19.0091504 31.5862192,19.4371504 L36.9962192,24.7301504 C37.2192192,24.9471504 37.5172192,25.0481504 37.8182192,25.0361504 C38.1182192,25.0471504 38.4172192,24.9471504 38.6392192,24.7301504 L44.0482192,19.4371504 C44.4872192,19.0091504 44.4662192,18.2921504 44.0012192,17.8371504 C43.5372192,17.3821504 42.8042192,17.3611504 42.3652192,17.7901504 Z M58.0011192,9.05015041 L53.4531192,13.4991504 L48.9061192,9.05015041 C48.4671192,8.62015041 47.7351192,8.64015041 47.2711192,9.09615041 C46.8051192,9.55115041 46.7841192,10.2671504 47.2221192,10.6971504 L52.6321192,15.9891504 C52.8232622,16.1751504 53.0695072,16.2751914 53.3255132,16.2924224 L53.4541192,16.2941504 C53.7541192,16.3061504 54.0531192,16.2061504 54.2751192,15.9891504 L59.6841192,10.6971504 C60.1231192,10.2671504 60.1021192,9.55115041 59.6371192,9.09615041 C59.1721192,8.64015041 58.4401192,8.62015041 58.0011192,9.05015041 Z M11.0941192,9.05015041 L6.54611919,13.4991504 L1.99911919,9.05015041 C1.56111919,8.62015041 0.829119185,8.64015041 0.363119185,9.09615041 C-0.101880815,9.55115041 -0.122880815,10.2671504 0.315119185,10.6971504 L5.72511919,15.9891504 C5.91626219,16.1751504 6.16250719,16.2751914 6.41851319,16.2924224 L6.54711919,16.2941504 C6.84811919,16.3061504 7.14611919,16.2061504 7.36811919,15.9891504 L12.7771192,10.6971504 C13.2161192,10.2671504 13.1951192,9.55115041 12.7311192,9.09615041 C12.2651192,8.64015041 11.5331192,8.62015041 11.0941192,9.05015041 Z M26.7299192,9.05015041 L22.1819192,13.4991504 L17.6349192,9.05015041 C17.1959192,8.62015041 16.4639192,8.64015041 15.9989192,9.09615041 C15.5339192,9.55115041 15.5119192,10.2671504 15.9509192,10.6971504 L21.3609192,15.9891504 C21.5520622,16.1751504 21.7990422,16.2751914 22.0546282,16.2924224 L22.1829192,16.2941504 C22.4829192,16.3061504 22.7809192,16.2061504 23.0039192,15.9891504 L28.4129192,10.6971504 C28.8519192,10.2671504 28.8309192,9.55115041 28.3659192,9.09615041 C27.9009192,8.64015041 27.1689192,8.62015041 26.7299192,9.05015041 Z M42.3652192,9.05015041 L37.8172192,13.4991504 L33.2702192,9.05015041 C32.8312192,8.62015041 32.0992192,8.64015041 31.6342192,9.09615041 C31.1682192,9.55115041 31.1482192,10.2671504 31.5862192,10.6971504 L36.9962192,15.9891504 C37.1873622,16.1751504 37.4336072,16.2751914 37.6896132,16.2924224 L37.8182192,16.2941504 C38.1182192,16.3061504 38.4172192,16.2061504 38.6392192,15.9891504 L44.0482192,10.6971504 C44.4872192,10.2671504 44.4662192,9.55115041 44.0012192,9.09615041 C43.5372192,8.64015041 42.8042192,8.62015041 42.3652192,9.05015041 Z M11.0941192,0.309350414 L6.54611919,4.75835041 L1.99911919,0.309350414 C1.56111919,-0.120649586 0.829119185,-0.0996495855 0.363119185,0.355350414 C-0.101880815,0.810350414 -0.122880815,1.52735041 0.315119185,1.95535041 L5.72511919,7.24835041 C5.94811919,7.46435041 6.24611919,7.56635041 6.54711919,7.55435041 C6.84811919,7.56635041 7.14611919,7.46435041 7.36811919,7.24735041 L12.7771192,1.95535041 C13.2161192,1.52735041 13.1951192,0.810350414 12.7311192,0.355350414 C12.2651192,-0.0996495855 11.5331192,-0.120649586 11.0941192,0.309350414 Z M26.7299192,0.309350414 L22.1819192,4.75835041 L17.6349192,0.309350414 C17.1959192,-0.120649586 16.4639192,-0.0996495855 15.9989192,0.355350414 C15.5339192,0.810350414 15.5119192,1.52735041 15.9509192,1.95535041 L21.3609192,7.24835041 C21.5839192,7.46435041 21.8829192,7.56635041 22.1829192,7.55435041 C22.4829192,7.56635041 22.7809192,7.46435041 23.0039192,7.24735041 L28.4129192,1.95535041 C28.8519192,1.52735041 28.8309192,0.810350414 28.3659192,0.355350414 C27.9009192,-0.0996495855 27.1689192,-0.120649586 26.7299192,0.309350414 Z M42.3652192,0.309350414 L37.8172192,4.75835041 L33.2702192,0.309350414 C32.8312192,-0.120649586 32.0992192,-0.0996495855 31.6342192,0.355350414 C31.1682192,0.810350414 31.1482192,1.52735041 31.5862192,1.95535041 L36.9962192,7.24835041 C37.2192192,7.46435041 37.5172192,7.56635041 37.8182192,7.55435041 C38.1182192,7.56635041 38.4172192,7.46435041 38.6392192,7.24735041 L44.0482192,1.95535041 C44.4872192,1.52735041 44.4662192,0.810350414 44.0012192,0.355350414 C43.5372192,-0.0996495855 42.8042192,-0.120649586 42.3652192,0.309350414 Z M52.6325192,7.24805041 C52.8228052,7.43319341 53.0696622,7.53458141 53.3252312,7.55221441 L53.4535192,7.55405041 C53.7545192,7.56605041 54.0525192,7.46405041 54.2745192,7.24705041 L59.6835192,1.95505041 C60.1225192,1.52705041 60.1015192,0.811050414 59.6365192,0.356050414 C59.1725192,-0.0989495855 58.4405192,-0.120949586 58.0015192,0.309050414 L53.4525192,4.75805041 L48.9055192,0.309050414 C48.4675192,-0.120949586 47.7345192,-0.0989495855 47.2705192,0.356050414 C46.8045192,0.811050414 46.7835192,1.52705041 47.2225192,1.95505041 L52.6325192,7.24805041 Z" id="24"></path>
        </g>
    </g>
</svg>
