<?xml version="1.0" encoding="UTF-8"?>
<svg width="61px" height="61px" viewBox="0 0 61 61" version="1.1" xmlns="http://www.w3.org/2000/svg" xmlns:xlink="http://www.w3.org/1999/xlink">
    <title>pattern-9</title>
    <g id="1.4" stroke="none" stroke-width="1" fill="none" fill-rule="evenodd">
        <g id="pattern-9" transform="translate(0.433075, 0.901254)" fill="#545458" fill-rule="nonzero">
            <path d="M24.0445199,51.9352134 L28.0065066,55.8992068 L23.9065203,60.0002 L15.9785467,60.0002 L24.0445199,51.9352134 Z M60,55.9792067 L60,60.0002 L55.9780134,60.0002 L60,55.9792067 Z M44.0432532,51.9352134 L48.00624,55.8992068 L43.9042537,60.0002 L35.9782801,60.0002 L44.0432532,51.9352134 Z M4.04298652,51.9350134 L8.00597331,55.8990068 L3.90498698,60 L0,60 L0,55.9790067 L4.04298652,51.9350134 Z M5.95608015,41.9356301 L18.00704,53.98561 L14.0430532,57.9486034 L1.99209336,45.8976235 L5.95608015,41.9356301 Z M25.9569135,41.9356301 L38.0068733,53.98561 L34.0438865,57.9486034 L21.9929267,45.8976235 L25.9569135,41.9356301 Z M45.9557468,41.9356301 L58.0077066,53.98561 L54.0437199,57.9486034 L41.99376,45.8976235 L45.9557468,41.9356301 Z M24.0437199,31.9347468 L28.0077066,35.8977402 L15.9567468,47.9487201 L11.99376,43.9857267 L24.0437199,31.9347468 Z M59.9998,35.97964 L59.9998,43.9056268 L55.9558135,47.9486201 L51.9928267,43.9856267 L59.9998,35.97964 Z M44.0427532,31.9347468 L48.00674,35.8977402 L35.9557801,47.9487201 L31.9937934,43.9857267 L44.0427532,31.9347468 Z M4.04298652,31.9352468 L8.00597331,35.8982402 L0,43.9052268 L0,35.97924 L4.04298652,31.9352468 Z M25.9569135,21.9360634 L38.0068733,33.9850434 L34.0438865,37.9490368 L21.9929267,25.8980568 L25.9569135,21.9360634 Z M45.9562468,21.9360634 L58.0082066,33.9850434 L54.0432199,37.9490368 L41.99426,25.8980568 L45.9562468,21.9360634 Z M5.95598015,21.9358634 L18.00694,33.9848434 L14.0439532,37.9488368 L1.99199336,25.8978568 L5.95598015,21.9358634 Z M24.0440199,11.9351801 L28.0070066,15.8981735 L15.9570468,27.9491534 L11.99306,23.98616 L24.0440199,11.9351801 Z M59.9998,15.9798734 L59.9998,23.9058602 L55.9558135,27.9498534 L51.9928267,23.98586 L59.9998,15.9798734 Z M44.0430532,11.9351801 L48.00604,15.8981735 L35.9560801,27.9491534 L31.9930934,23.98616 L44.0430532,11.9351801 Z M4.04298652,11.9344801 L8.00597331,15.8984735 L0,23.9054602 L0,15.9794734 L4.04298652,11.9344801 Z M5.95598015,1.93529677 L18.00694,13.9852767 L14.0439532,17.9492701 L1.99199336,5.89829017 L5.95598015,1.93529677 Z M25.9569135,1.93529677 L38.0068733,13.9852767 L34.0438865,17.9492701 L21.9929267,5.89829017 L25.9569135,1.93529677 Z M45.9557468,1.93529677 L58.0077066,13.9852767 L54.0437199,17.9492701 L41.99376,5.89829017 L45.9557468,1.93529677 Z M23.9065203,0 L15.9565468,7.94898675 L11.99356,3.98499336 L15.9785467,0 L23.9065203,0 Z M60,0 L60,3.90499349 L55.9550135,7.94898675 L51.9930267,3.98499336 L55.9780134,0 L60,0 Z M43.9042537,0 L35.9552801,7.94898675 L31.9932934,3.98499336 L35.9782801,0 L43.9042537,0 Z M3.90498698,0 L0,3.90499349 L0,0 L3.90498698,0 Z" id="å½¢çŠ¶ç»“åˆ"></path>
        </g>
    </g>
</svg>
