<?xml version="1.0" encoding="UTF-8"?>
<svg width="61px" height="60px" viewBox="0 0 61 60" version="1.1" xmlns="http://www.w3.org/2000/svg" xmlns:xlink="http://www.w3.org/1999/xlink">
    <title>pattern-39</title>
    <g id="1.4" stroke="none" stroke-width="1" fill="none" fill-rule="evenodd">
        <g id="pattern-39" transform="translate(0.214335, 0.000500)" fill="#545458" fill-rule="nonzero">
            <path d="M6.2,0.0007 L6.2,6.2007 L0,6.2007 L0,4.6677 L4.667,4.6677 L4.667,0.0007 L6.2,0.0007 Z M3.3896,0.0007 L3.3896,3.3917 L0.0006,3.3917 L0.0006,2.1237 L2.1236,2.1237 L2.1236,0.0007 L3.3896,0.0007 Z M1.0205,0 L1.0205,1.021 L0.0005,1.021 L0.0005,0 L1.0205,0 Z M6.1995,23.8012 L6.1995,36.2012 L0.0005,36.2012 L0.0005,34.6682 L4.6675,34.6682 L4.6675,25.3352 L0.0005,25.3352 L0.0005,23.8012 L6.1995,23.8012 Z M3.3895,26.6092 L3.3895,33.3912 L0.0005,33.3912 L0.0005,32.1232 L2.1235,32.1232 L2.1235,27.8782 L0.0005,27.8782 L0.0005,26.6092 L3.3895,26.6092 Z M1.0205,28.9816 L1.0205,31.0206 L0.0005,31.0206 L0.0005,28.9816 L1.0205,28.9816 Z M21.1995,8.8 L21.1995,21.2 L8.7995,21.2 L8.7995,8.8 L21.1995,8.8 Z M19.6665,10.334 L10.3335,10.334 L10.3335,19.667 L19.6665,19.667 L19.6665,10.334 Z M18.3915,11.609 L18.3915,18.392 L11.6075,18.392 L11.6075,11.609 L18.3915,11.609 Z M17.1225,12.878 L12.8775,12.878 L12.8775,17.124 L17.1225,17.124 L17.1225,12.878 Z M16.0195,13.981 L16.0195,16.021 L13.9795,16.021 L13.9795,13.981 L16.0195,13.981 Z M36.2001,23.8007 L36.2001,36.2007 L23.8001,36.2007 L23.8001,23.8007 L36.2001,23.8007 Z M34.6661,25.3347 L25.3331,25.3347 L25.3331,34.6677 L34.6661,34.6677 L34.6661,25.3347 Z M33.3915,26.609 L33.3915,33.392 L26.6075,33.392 L26.6075,26.609 L33.3915,26.609 Z M32.1235,27.878 L27.8785,27.878 L27.8785,32.124 L32.1235,32.124 L32.1235,27.878 Z M31.0198,28.9816 L31.0198,31.0216 L28.9808,31.0216 L28.9808,28.9816 L31.0198,28.9816 Z M25.3328,0.0007 L25.3328,4.6677 L34.6658,4.6677 L34.6658,0.0007 L36.2008,0.0007 L36.2008,6.2007 L23.7998,6.2007 L23.7998,0.0007 L25.3328,0.0007 Z M27.8783,0.0007 L27.8783,2.1237 L32.1233,2.1237 L32.1233,0.0007 L33.3913,0.0007 L33.3913,3.3917 L26.6083,3.3917 L26.6083,0.0007 L27.8783,0.0007 Z M31.0195,0.0007 L31.0195,1.0217 L28.9805,1.0217 L28.9805,0.0007 L31.0195,0.0007 Z M55.3338,0.0007 L55.3338,4.6677 L60.0008,4.6677 L60.0008,6.2007 L53.7998,6.2007 L53.7998,0.0007 L55.3338,0.0007 Z M57.8768,0.0007 L57.8768,2.1237 L60.0008,2.1237 L60.0008,3.3917 L56.6078,3.3917 L56.6078,0.0007 L57.8768,0.0007 Z M60.0015,0 L60.0015,1.021 L58.9805,1.021 L58.9805,0 L60.0015,0 Z M51.2005,8.8 L51.2005,21.2 L38.7995,21.2 L38.7995,8.8 L51.2005,8.8 Z M49.6675,10.334 L40.3335,10.334 L40.3335,19.667 L49.6675,19.667 L49.6675,10.334 Z M48.3925,11.609 L48.3925,18.392 L41.6095,18.392 L41.6095,11.609 L48.3925,11.609 Z M47.1215,12.878 L42.8765,12.878 L42.8765,17.124 L47.1215,17.124 L47.1215,12.878 Z M46.0195,13.981 L46.0195,16.021 L43.9805,16.021 L43.9805,13.981 L46.0195,13.981 Z M60.0008,23.8012 L60.0008,25.3352 L55.3338,25.3352 L55.3338,34.6682 L60.0008,34.6682 L60.0008,36.2012 L53.7998,36.2012 L53.7998,23.8012 L60.0008,23.8012 Z M60.0008,26.6092 L60.0008,27.8782 L57.8768,27.8782 L57.8768,32.1232 L60.0008,32.1232 L60.0008,33.3912 L56.6078,33.3912 L56.6078,26.6092 L60.0008,26.6092 Z M60.0012,28.9816 L60.0012,31.0206 L58.9802,31.0206 L58.9802,28.9816 L60.0012,28.9816 Z M3.3895,56.6098 L3.3895,60.0008 L2.1235,60.0008 L2.1235,57.8778 L0.0005,57.8778 L0.0005,56.6098 L3.3895,56.6098 Z M1.0205,58.981 L1.0205,60.001 L0.0005,60.001 L0.0005,58.981 L1.0205,58.981 Z M6.1995,53.8018 L6.1995,60.0008 L4.6675,60.0008 L4.6675,55.3348 L0.0005,55.3348 L0.0005,53.8018 L6.1995,53.8018 Z M21.1995,38.801 L21.1995,51.201 L8.7995,51.201 L8.7995,38.801 L21.1995,38.801 Z M19.6665,40.334 L10.3335,40.334 L10.3335,49.667 L19.6665,49.667 L19.6665,40.334 Z M18.3915,41.609 L18.3915,48.392 L11.6075,48.392 L11.6075,41.609 L18.3915,41.609 Z M17.1225,42.878 L12.8775,42.878 L12.8775,47.124 L17.1225,47.124 L17.1225,42.878 Z M16.0195,43.981 L16.0195,46.021 L13.9795,46.021 L13.9795,43.981 L16.0195,43.981 Z M31.0202,58.9813 L31.0202,60.0013 L28.9802,60.0013 L28.9802,58.9813 L31.0202,58.9813 Z M33.3912,56.6098 L33.3912,60.0008 L32.1232,60.0008 L32.1232,57.8778 L27.8782,57.8778 L27.8782,60.0008 L26.6082,60.0008 L26.6082,56.6098 L33.3912,56.6098 Z M36.2002,53.8018 L36.2002,60.0008 L34.6662,60.0008 L34.6662,55.3348 L25.3332,55.3348 L25.3332,60.0008 L23.8002,60.0008 L23.8002,53.8018 L36.2002,53.8018 Z M51.2005,38.801 L51.2005,51.201 L38.7995,51.201 L38.7995,38.801 L51.2005,38.801 Z M49.6675,40.334 L40.3335,40.334 L40.3335,49.667 L49.6675,49.667 L49.6675,40.334 Z M48.3925,41.609 L48.3925,48.392 L41.6095,48.392 L41.6095,41.609 L48.3925,41.609 Z M47.1215,42.878 L42.8765,42.878 L42.8765,47.124 L47.1215,47.124 L47.1215,42.878 Z M46.0195,43.981 L46.0195,46.021 L43.9805,46.021 L43.9805,43.981 L46.0195,43.981 Z M60.0008,56.6098 L60.0008,57.8778 L57.8768,57.8778 L57.8768,60.0008 L56.6078,60.0008 L56.6078,56.6098 L60.0008,56.6098 Z M60.0015,58.981 L60.0015,60.001 L58.9805,60.001 L58.9805,58.981 L60.0015,58.981 Z M60.0008,53.8018 L60.0008,55.3348 L55.3338,55.3348 L55.3338,60.0008 L53.7998,60.0008 L53.7998,53.8018 L60.0008,53.8018 Z" id="39"></path>
        </g>
    </g>
</svg>
