<svg width="21" height="20" viewBox="0 0 21 20" fill="none" xmlns="http://www.w3.org/2000/svg">
    <g id="&#230;&#151;&#139;&#232;&#189;&#172;">
        <path id="Union" fill-rule="evenodd" clip-rule="evenodd" d="M4.97516 4.32957C4.94913 4.35494 4.94288 4.39434 4.95947 4.42668L5.64273 5.75852C5.66973 5.81115 5.74147 5.81971 5.78093 5.77565C6.94056 4.48097 8.62516 3.66628 10.5 3.66628C13.9699 3.66628 16.788 6.45669 16.8328 9.91592C16.8334 9.96194 16.7961 9.99961 16.75 9.99961H14.6C14.5365 9.99961 14.4963 10.0679 14.5272 10.1234L16.9186 14.428C16.9484 14.4817 17.0242 14.4857 17.0587 14.4348C17.9159 13.1695 18.4167 11.643 18.4167 9.99961C18.4167 5.62736 14.8723 2.08295 10.5 2.08295C8.35083 2.08295 6.40165 2.93937 4.97516 4.32957ZM16.0231 15.6697C16.0491 15.6443 16.0554 15.6049 16.0388 15.5725L15.3555 14.2407C15.3285 14.1881 15.2568 14.1795 15.2173 14.2236C14.0577 15.5183 12.3731 16.3329 10.4982 16.3329C7.02832 16.3329 4.21021 13.5425 4.16541 10.0833C4.16482 10.0373 4.20218 9.99961 4.2482 9.99961H6.39824C6.46178 9.99961 6.50195 9.93135 6.47109 9.87581L4.07969 5.57125C4.04982 5.51748 3.97406 5.51354 3.93956 5.56446C3.08231 6.82977 2.58154 8.35622 2.58154 9.99961C2.58154 14.3719 6.12599 17.9163 10.4982 17.9163C12.6474 17.9163 14.5966 17.0599 16.0231 15.6697Z" fill="#545458"/>
    </g>
</svg>
