<?xml version="1.0" encoding="UTF-8"?>
<svg width="48px" height="48px" viewBox="0 0 48 48" version="1.1" xmlns="http://www.w3.org/2000/svg" xmlns:xlink="http://www.w3.org/1999/xlink">
    <title>其他-15</title>
    <g id="V1.4" stroke="none" stroke-width="1" fill="none" fill-rule="evenodd">
        <g id="形状汇集备份" transform="translate(-1178.000000, -775.000000)" fill="#3D4242" fill-rule="nonzero">
            <g id="ball-football-svgrepo-com" transform="translate(1178.000000, 775.000000)">
                <path d="M24,0 C30.6289062,0 36.6289062,2.6875 40.96875,7.03125 C45.3125,11.375 48,17.375 48,24 C48,30.6289062 45.3125,36.6289062 40.96875,40.96875 C36.625,45.3125 30.625,48 24,48 C17.375,48 11.3710937,45.3125 7.03125,40.96875 C2.6875,36.6289062 0,30.6289062 0,24 C0,17.3710937 2.6875,11.3710937 7.03125,7.03125 C11.3710937,2.6875 17.3710937,0 24,0 L24,0 Z M30.0195312,45.734375 L29.9726562,45.703125 L32.6640625,36.6835937 L27.1132812,30.5273438 L20.5703125,30.46875 L15.3828125,36.9609375 L17.984375,45.6796875 L17.9257812,45.71875 C19.859375,46.2578125 21.8945312,46.546875 24,46.546875 C26.0859375,46.546875 28.1054687,46.265625 30.0195312,45.734375 L30.0195312,45.734375 Z M4.7734375,35.7851562 L14.28125,35.8320312 L19.25,29.609375 L17.1953125,23.3125 L8.828125,19.6796875 L1.4765625,25.03125 C1.65234375,28.9609375 2.8359375,32.6289062 4.7734375,35.7851562 L4.7734375,35.7851562 Z M6.55078125,9.71875 L9.44140625,18.3671875 L17.2460937,21.7578125 L23.2773437,17.0820312 L23.2773437,8.1796875 L15.8242187,2.98046875 C12.8867187,4.125 10.2460937,5.8671875 8.0546875,8.05859375 C7.52734375,8.5859375 7.0234375,9.140625 6.55078125,9.71875 L6.55078125,9.71875 Z M31.9140625,2.87890625 L24.7265625,8.11328125 L24.7265625,17.0703125 L30.390625,21.4492187 L38.5195312,17.9648437 L41.3242187,9.5703125 C40.8867187,9.04296875 40.4257812,8.5390625 39.9414062,8.0546875 C37.6875,5.80078125 34.9570312,4.01953125 31.9140625,2.87890625 L31.9140625,2.87890625 Z M46.5195312,25.140625 L46.5117187,25.1445312 L38.7070312,19.4609375 L30.96875,22.7773437 L28.59375,29.8203125 L33.9570312,35.7695312 C33.9804687,35.7929687 33.9921875,35.8203125 34,35.8515625 L43.21875,35.8085937 C45.140625,32.6757812 46.3242187,29.0390625 46.5195312,25.140625 L46.5195312,25.140625 Z" id="形状"></path>
            </g>
        </g>
    </g>
</svg>