<?xml version="1.0" encoding="UTF-8"?>
<svg width="48px" height="44px" viewBox="0 0 48 44" version="1.1" xmlns="http://www.w3.org/2000/svg" xmlns:xlink="http://www.w3.org/1999/xlink">
    <title>其他-7</title>
    <g id="V1.4" stroke="none" stroke-width="1" fill="none" fill-rule="evenodd">
        <g id="形状汇集备份" transform="translate(-967.000000, -707.000000)" fill="#3D4242" fill-rule="nonzero">
            <g id="champagne-toast-svgrepo-com" transform="translate(967.000000, 707.500000)">
                <path d="M47.4250789,36.1715595 C46.5505138,35.573233 45.2385322,36.062684 44.3638778,36.5522239 C42.9972303,35.0292109 41.6305828,33.56068 40.3732671,31.9287915 C39.3346149,30.5689584 38.5145371,29.1003387 37.475885,27.7405056 C42.8332326,23.4434332 34.0866885,7.45179632 31.0253087,1.41413751 C29.7133271,3.8074437 24.5200666,4.29698361 22.2240987,4.13380364 C22.3334305,4.56895022 22.4974282,5.0040968 22.60676,5.38485006 C22.60676,5.38485006 22.60676,5.38485006 22.6614259,5.43924338 C22.7707577,5.54803003 22.7707577,5.65681667 22.7707577,5.76560332 C23.8094098,8.97480935 24.9027279,12.1296221 26.2147988,15.2844348 C27.6906888,18.9831807 30.6974026,28.8827654 36.382567,28.3388322 C37.3666425,31.7656115 40.0998482,35.3554819 42.8332326,37.6944837 C42.4505713,38.0752369 42.1225759,38.5103835 41.8491571,38.9455301 C41.2479215,40.0333077 42.7784774,41.2843541 43.5984659,40.3053632 C44.090459,39.7070366 44.6917839,39.2174967 45.4024406,38.8367435 C46.1677632,38.5103835 47.0424176,38.5647768 47.6437425,37.9664503 C48.2450674,37.4226059 48.0264038,36.5522239 47.4250789,36.1715595 Z M36.7652283,25.9456149 C31.626723,29.7531475 27.745444,17.6234365 26.9253662,14.6318038 C26.8707896,14.5230171 26.9253662,14.4142305 26.9800321,14.3598372 C27.034698,14.1966572 27.1440298,14.0878706 27.3626934,14.0334772 C28.6200091,13.7615106 29.8226589,13.2719707 30.9706428,12.6192508 C31.7907207,12.1297109 32.6106198,11.2050245 33.5400295,10.9330578 C33.7040272,10.7154846 34.0866885,10.6610912 34.1960203,10.9330578 C35.9453291,14.0334772 40.4825989,22.5732289 36.8746494,25.8368282 C36.8745601,25.8368282 36.8198942,25.8912216 36.7652283,25.9456149 Z" id="形状"></path>
                <path d="M33.7586038,11.9121376 C33.2666107,12.6736442 32.3373797,13.2719707 31.5720571,13.7071173 C30.3147413,14.4142305 29.0027597,14.7949837 27.5814463,15.012557 L27.5814463,15.012557 C28.9480938,18.4937297 31.4080594,25.8368282 35.5626678,25.6192549 C39.0064409,22.8995888 35.289249,15.5020969 33.7586038,11.9121376 Z M32.0639608,15.012557 C32.2279585,14.5230171 32.8292834,14.4142305 33.2120341,14.6861971 C34.1412651,15.2845237 33.9226015,16.9707167 32.8839493,17.2970766 C32.6106198,17.3514699 32.3919562,17.0795033 32.5013774,16.8075367 C32.6653751,16.5355701 32.8293728,16.3179968 32.8839493,16.0460302 C32.8839493,15.9372435 32.8839493,15.8284569 32.8839493,15.7740636 C32.8293728,15.8284569 32.7746175,15.8828502 32.6106198,15.8828502 C32.1732033,15.8284569 31.954629,15.4477036 32.0639608,15.012557 Z M29.7133271,17.0795033 C29.2212447,16.5899634 29.3852424,15.5564903 30.1506543,15.5020969 C30.3693179,15.5020969 30.4239838,15.7740636 30.2599861,15.8828502 C30.0959884,15.9916368 30.1506543,16.3179968 30.314652,16.4267834 C30.5880708,16.5899634 30.9706428,16.0460302 31.0799746,15.8828502 C31.2986382,15.6108836 31.8452079,15.6652769 31.7906313,16.1004235 C31.7906313,17.0795033 30.5333156,17.8954031 29.7133271,17.0795033 Z M31.7359654,20.3431027 C31.1346405,19.7991694 31.1893064,18.4937297 32.1186267,18.3305497 C32.5559539,18.2761564 32.6652857,18.7656963 32.2826244,18.9288763 C32.0639608,19.0376629 32.2826244,19.4728095 32.4466221,19.5272028 C32.8839493,19.6359895 33.2119448,18.9288763 33.4852743,18.711303 C33.8132697,18.4393364 34.4145946,18.6025163 34.4145946,19.0920562 C34.4145946,20.3431027 32.6106198,21.2133958 31.7359654,20.3431027 Z" id="形状"></path>
                <path d="M30.4786497,0.163179968 C30.4786497,0.108786645 30.4239838,0.0543933226 30.4239838,0 C29.221334,0.489539903 27.8546865,0.707113194 26.6520367,1.25104642 C25.5587187,1.79497965 24.5200666,2.39330619 23.5360803,3.15481271 C26.1053777,2.8828461 29.0573363,2.23012623 30.4786497,0.163179968 Z" id="路径"></path>
                <path d="M12.8215638,2.55648616 C11.7829117,6.41841207 10.4162642,10.2259446 9.15894848,14.0334772 C7.84696686,18.0585831 5.55099904,22.6820155 5.93366034,27.0878747 C6.31632165,28.1213478 7.02697835,29.0460343 7.95629866,29.6987541 C5.71499674,32.3096336 4.07501972,35.7364129 2.4350427,38.8368323 C1.88838369,38.6193479 1.34172469,38.456168 0.795065682,38.4016858 C-0.079588728,38.3472924 -0.24358643,39.4895522 0.357738477,39.9246988 C0.904397483,40.2510587 1.45105649,40.5230253 1.88838369,40.9581719 C2.3803768,41.3933185 2.6537063,41.8828584 3.03636761,42.4267916 C3.91102202,43.7322314 5.93366034,42.5899716 5.16833773,41.1757452 C4.94967413,40.794992 4.73101053,40.468632 4.40301512,40.1422721 C6.15232394,37.0418527 8.22962817,33.7782533 9.26828028,30.351474 C10.6349278,30.8410139 11.8922435,30.6235295 13.3682228,30.4058673 C13.4775546,30.4058673 13.5868864,30.4058673 13.6962182,30.4601718 C18.8894788,25.6191661 21.3494443,17.1338966 22.9894213,10.6066979 C23.0440872,10.4979113 23.0987531,10.3891246 23.153419,10.3347313 C22.8800895,9.41004481 22.60676,8.48535833 22.3334305,7.56067184 C18.7254811,8.37657168 14.7348703,5.33054561 12.8215638,2.55648616 Z M20.2561263,15.9916368 C20.2561263,16.0460302 20.2561263,16.0460302 20.2561263,16.1004235 C20.0374627,18.548123 13.6962182,32.3096336 9.97893699,29.0460343 C2.81770401,28.1757411 10.2522665,14.4142305 11.7829117,11.3682044 C11.8922435,11.1506311 12.2202389,11.3138111 12.165573,11.5313844 L12.165573,11.5857777 C12.2202389,11.5857777 12.2749048,11.5857777 12.3295707,11.640171 C14.898868,13.1631841 17.4681654,14.1422639 20.2561263,15.0669504 C20.8027853,15.2301303 20.6934535,15.8284569 20.2561263,15.9916368 Z" id="形状"></path>
                <path d="M17.3588336,5.38493894 C18.8894788,6.14644545 20.5294558,6.36401874 22.1147669,6.90795197 C22.0054351,6.52719871 21.9507692,6.20083878 21.8414374,5.82008552 C20.5841217,5.11297232 19.4361378,4.13389252 18.0694903,3.53556597 C16.5388451,2.82845278 14.9535339,2.39330619 13.258891,2.12133958 C14.4615408,3.42677932 15.7735225,4.5690391 17.3588336,5.38493894 Z" id="路径"></path>
                <path d="M11.8922435,12.3472842 C10.4162642,16.69875 5.55099904,26.4895481 10.9082573,28.0669545 C11.0175891,28.1213478 11.1269209,28.17583 11.1815868,28.2845278 C14.7348703,27.7949878 18.1241562,17.9497965 19.4361378,15.9372435 C16.7575087,15.338917 14.0242136,13.9790839 11.8922435,12.3472842 L11.8922435,12.3472842 Z M13.5322205,21.1046092 C13.0402274,21.757329 12.1109071,21.6485424 11.618914,21.0502158 C11.0175891,20.234316 11.618914,19.2552362 12.2202389,18.6569097 C12.4389025,18.4393364 12.8762297,18.711303 12.712232,19.0376629 C12.4935684,19.3640228 12.0562412,19.9623494 12.3295707,20.397496 C12.4389025,20.6150693 12.7668979,20.7238559 12.9855615,20.5606759 C13.3135569,20.2887093 13.80555,20.7782492 13.5322205,21.1046092 Z M14.5708726,16.1004235 C15.5548589,16.0460302 16.4295133,16.8075367 16.4841792,17.7866165 C16.4841792,18.6569097 15.6641907,19.8535627 14.6802044,19.5272028 C14.2975431,19.4184162 14.2428772,18.9288763 14.5708726,18.6569097 C14.898868,18.384943 15.3908611,18.3305497 15.445527,17.8410098 C15.500193,17.3514699 15.0081998,16.9707167 14.5708726,16.9707167 C14.0242136,16.9707167 14.0242136,16.1004235 14.5708726,16.1004235 Z M13.0948933,15.8284569 C13.3682228,16.1004235 13.0402274,16.4267834 12.712232,16.3179968 C12.5482343,16.2636035 12.4389025,16.5899634 12.4935684,16.69875 C12.6575661,16.86193 13.0402274,16.6443567 13.1495592,16.5355701 C13.4228887,16.2092101 13.9695477,16.6443567 13.7508841,17.02511 C13.3135569,17.7866165 11.9469094,17.9497965 11.618914,16.9707167 C11.4002504,16.1004235 12.4389025,15.2301303 13.0948933,15.8284569 Z" id="形状"></path>
            </g>
        </g>
    </g>
</svg>