<?xml version="1.0" encoding="UTF-8"?>
<svg width="48px" height="48px" viewBox="0 0 48 48" version="1.1" xmlns="http://www.w3.org/2000/svg" xmlns:xlink="http://www.w3.org/1999/xlink">
    <title>其他-28</title>
    <g id="V1.4" stroke="none" stroke-width="1" fill="none" fill-rule="evenodd">
        <g id="形状汇集备份" transform="translate(-1037.000000, -985.000000)" fill="#3D4242">
            <g id="其他-28" transform="translate(1037.000000, 985.000000)">
                <path d="M0.894318127,5.12254932 C1.8814849,5.6930255 3.14348365,5.35430527 3.71320292,4.36711405 C4.15293409,3.60573633 4.0496864,2.68168376 3.52750564,2.03692682 C3.97837865,2.10897915 4.45673485,2.03321278 4.8845814,1.78734349 C5.54492095,1.4040548 5.90665926,0.711758179 5.90665926,0.000148561507 L1.79383578,0.000148561507 C1.79309299,0.349268102 1.87702816,0.705815719 2.06421103,1.03116542 C2.11992021,1.12698759 2.18380008,1.21538169 2.25287947,1.30080455 C1.43209747,1.167842 0.578632742,1.54147419 0.13815878,2.30359472 C0.0824495948,2.3994169 0.0386250354,2.49969591 0,2.60071774 L0,4.07370508 C0.163413611,4.50081941 0.46721437,4.87668002 0.894318127,5.12254932 Z M3.52750564,45.9632217 C3.8171934,45.6074169 3.98952048,45.1565328 3.98952048,44.6625658 C3.98952048,43.5253274 3.06549079,42.600532 1.92605225,42.600532 C1.04584711,42.600532 0.297115657,43.1509524 0,43.9257007 L0,45.3994308 C0.296372868,46.1756647 1.04584711,46.7275707 1.92605225,46.7275707 C2.03747062,46.7275707 2.14666062,46.7156858 2.25213668,46.6986012 C1.95204987,47.0677765 1.79532136,47.5298028 1.79383578,48 L5.90669919,48 C5.90814484,47.6493948 5.82792361,47.2928472 5.63925517,46.9682403 C5.199524,46.2061198 4.34828764,45.8324876 3.52750564,45.9632217 Z M0.894318127,37.1227722 C1.8814849,37.6939912 3.14348365,37.3537853 3.71320292,36.3680797 C4.15293409,35.6059592 4.0496864,34.6819066 3.52750564,34.0371497 C3.97837865,34.109202 4.45673485,34.0334356 4.8845814,33.7875663 C5.87100538,33.217833 6.20823165,31.9543173 5.63925517,30.9686117 C5.199524,30.2064912 4.34828764,29.832859 3.52750564,29.9635931 C3.8171934,29.6085311 3.98952048,29.1561614 3.98952048,28.66368 C3.98952048,27.5234704 3.06549079,26.5994178 1.92605225,26.5994178 C1.04584711,26.5994178 0.297115657,27.1498382 0,27.9260721 L0,29.400545 C0.296372868,30.1745505 1.04584711,30.7279421 1.92605225,30.7279421 C2.03747062,30.7279421 2.14666062,30.7160572 2.25213668,30.6989726 C1.72698476,31.3444724 1.62447985,32.2692677 2.06421103,33.0313883 C2.11992021,33.1272104 2.18380008,33.2163473 2.25287947,33.3002846 C1.43209747,33.1680648 0.578632742,33.541697 0.13815878,34.3038176 C0.0824495948,34.4011254 0.0386250354,34.4999188 0,34.6009406 L0,36.0739279 C0.163413611,36.5002994 0.46721437,36.8761601 0.894318127,37.1227722 Z M0.894318127,21.1234407 C1.8814849,21.6931741 3.14348365,21.3544538 3.71320292,20.3672626 C4.15293409,19.6058849 4.0496864,18.6818323 3.52750564,18.0370754 C3.97837865,18.1083849 4.45673485,18.0326185 4.8845814,17.7867492 C5.87100538,17.2170159 6.20823165,15.9542431 5.63925517,14.966309 C5.199524,14.2056741 4.34828764,13.8320419 3.52750564,13.9627761 C3.8171934,13.6077141 3.98952048,13.1560871 3.98952048,12.6628629 C3.98952048,11.5233961 3.06549079,10.6000864 1.92605225,10.6000864 C1.04584711,10.6000864 0.297115657,11.1497639 0,11.925255 L0,13.3982423 C0.296372868,14.175219 1.04584711,14.727125 1.92605225,14.727125 C2.03747062,14.727125 2.14666062,14.7152401 2.25213668,14.6981555 C1.72698476,15.3443981 1.62447985,16.2684506 2.06421103,17.031314 C2.11992021,17.127879 2.18380008,17.2155302 2.25287947,17.2994675 C1.43209747,17.1687334 0.578632742,17.5416228 0.13815878,18.3044861 C0.0824495948,18.4003083 0.0386250354,18.4991017 0,18.6008663 L0,20.0745964 C0.163413611,20.5017108 0.46721437,20.8768286 0.894318127,21.1234407 Z M44.4715287,2.03529264 C44.1825838,2.39109745 44.0087711,2.84198162 44.0087711,3.33520583 C44.0087711,4.47541539 44.9328008,5.39946796 46.0722393,5.39946796 C46.9517017,5.39946796 47.7011759,4.84830477 47.9982916,4.0720709 L47.9997772,2.59982637 C47.7026615,1.8235925 46.9524445,1.27242931 46.0722393,1.27242931 C45.9623065,1.27242931 45.8531165,1.2820858 45.7468977,1.30065599 C46.0462417,0.93073784 46.2029702,0.469454361 46.203713,0 L42.0916323,0 C42.0916323,0.349119541 42.1718536,0.705667157 42.3590364,1.03101686 C42.7995104,1.79313739 43.6507467,2.16602677 44.4715287,2.03529264 Z M47.1047162,42.8758908 C46.1175495,42.3061574 44.8555507,42.6441348 44.2858315,43.6313261 C43.8461003,44.3934466 43.9478624,45.3174992 44.4715287,45.9622561 C44.0199129,45.8902038 43.5415567,45.9667129 43.114453,46.2118394 C42.4533706,46.5943853 42.0923751,47.2866819 42.0916323,47.9997772 L46.203713,47.9997772 C46.2051986,47.649172 46.122749,47.2933672 45.9348233,46.9680175 C45.8783714,46.8707097 45.8144915,46.7830584 45.7468977,46.6991212 C46.5661941,46.8298553 47.4204016,46.4577087 47.8601328,45.6955882 C47.9165848,45.5982804 47.9589238,45.499487 47.9990344,45.3977224 L47.9997772,43.924735 C47.834878,43.4983635 47.53182,43.1225029 47.1047162,42.8758908 Z M47.1047162,26.8758165 C46.1175495,26.3045975 44.8555507,26.6448034 44.2858315,27.6319946 C43.8461003,28.3933723 43.9478624,29.3174249 44.4715287,29.9629246 C44.0199129,29.8908723 43.5415567,29.9658958 43.114453,30.212508 C42.128029,30.7822413 41.7893171,32.0450141 42.3590364,33.0314625 C42.7995104,33.7935831 43.6507467,34.1657296 44.4715287,34.0357383 C44.1825838,34.3915431 44.0087711,34.8431701 44.0087711,35.3363943 C44.0087711,36.4751183 44.9328008,37.3999136 46.0722393,37.3999136 C46.9517017,37.3999136 47.7011759,36.8487505 47.9982916,36.0740022 L47.9997772,34.5995292 C47.7026615,33.8240382 46.9524445,33.2721322 46.0722393,33.2713894 C45.9623065,33.2713894 45.8531165,33.2832743 45.7468977,33.3003589 C46.2698213,32.6548591 46.3745545,31.7300637 45.9348233,30.968686 C45.8783714,30.8713782 45.8144915,30.7829841 45.7468977,30.6997897 C46.5661941,30.8305238 47.4204016,30.4568916 47.8601328,29.6947711 C47.9165848,29.5982061 47.9589238,29.4986699 47.9990344,29.3983909 L47.9997772,27.9246607 C47.834878,27.4975464 47.53182,27.1231714 47.1047162,26.8758165 Z M46.0724622,17.2707951 C45.9625294,17.2707951 45.8533394,17.2841657 45.7471205,17.3005074 C46.2700441,16.6550077 46.3740346,15.7309551 45.9343034,14.9666062 C45.8778514,14.870784 45.8139716,14.7823899 45.7471205,14.6984526 C46.566417,14.8306724 47.4198817,14.457783 47.8596129,13.6949197 C47.9160648,13.5983547 47.9591466,13.4988185 47.9992572,13.3985395 L48,11.9255521 C47.8351008,11.497695 47.5320428,11.1225772 47.1049391,10.8767079 C46.1177723,10.3062317 44.8550308,10.6442091 44.2860543,11.6314003 C43.8463231,12.3935209 43.9480852,13.3168306 44.4717516,13.9615876 C44.019393,13.890278 43.5417796,13.9667872 43.1146758,14.2119137 C42.127509,14.7816471 41.7887972,16.0444199 42.3592593,17.0316111 C42.7997332,17.7929888 43.6502268,18.166621 44.4717516,18.0358869 C44.1828066,18.3916917 44.0089939,18.8425759 44.0089939,19.3365429 C44.0089939,20.4752668 44.9330236,21.3993194 46.0724622,21.3993194 C46.9519245,21.3993194 47.700656,20.8481562 47.9985144,20.073408 L48,18.6004206 C47.7021416,17.8234439 46.9526673,17.2722807 46.0724622,17.2707951 Z M20.4708974,2.03529264 C20.1819524,2.39109745 20.0103681,2.84198162 20.0103681,3.33520583 C20.0103681,4.47541539 20.9329122,5.39950871 22.0730935,5.39950871 C22.9532987,5.39950871 23.7012873,4.84830477 23.998403,4.0720709 C24.1618166,4.49918523 24.4663602,4.87578865 24.8942067,5.12240075 C25.8806307,5.69287694 27.1426294,5.3541567 27.7123487,4.36696549 C28.1535655,3.60558777 28.049575,2.6815352 27.5266514,2.03677826 C27.9782672,2.1095734 28.4558806,2.03306422 28.8837272,1.78719493 C29.5455523,1.40390624 29.9058051,0.711609618 29.9065478,0 L25.7944671,0 C25.7929816,0.349119541 25.876174,0.705667157 26.0640996,1.03101686 C26.1198088,1.12683903 26.1844314,1.21523313 26.2520253,1.30065599 C25.431986,1.16769344 24.5785213,1.54132563 24.1380474,2.30344616 C24.0815954,2.39926833 24.0385136,2.49954735 23.9991458,2.60056918 C23.7035157,1.8243353 22.9540415,1.27242931 22.0730935,1.27242931 C21.9616752,1.27242931 21.8539707,1.2820858 21.7470091,1.30065599 C22.0470959,0.93073784 22.2030816,0.469454361 22.2045672,0 L18.0924764,0 C18.0917437,0.349119541 18.171965,0.705667157 18.3598906,1.03101686 C18.798879,1.79313739 19.6508582,2.16602677 20.4708974,2.03529264 Z M27.5266514,45.9632217 C27.8163392,45.6074169 27.9901519,45.1565328 27.9901519,44.6625658 C27.9901519,43.5253274 27.0653794,42.600532 25.9259408,42.600532 C25.0457357,42.600532 24.2962614,43.1509524 23.9991458,43.9257007 C23.8357322,43.4985863 23.5319314,43.1227257 23.1048277,42.8761136 C22.1176609,42.3063803 20.8556621,42.6443577 20.2859429,43.6308061 C19.8469545,44.3936694 19.9487166,45.317722 20.4723829,45.9624789 C20.0200244,45.8896838 19.5416681,45.9669358 19.1153072,46.2120623 C18.4542248,46.5946081 18.0932293,47.2869048 18.0924865,48 L22.2045672,48 C22.2060528,47.6493948 22.1236032,47.29359 21.9349348,46.9682403 C21.8784828,46.8709325 21.8146029,46.7832813 21.7470091,46.699344 C22.5677911,46.8300781 23.4205131,46.4579316 23.8602442,45.695811 C23.9166962,45.5985032 23.9605208,45.4997098 23.998403,45.3979452 C24.2955187,46.1756647 25.0442501,46.7275707 25.9259408,46.7275707 C26.0373592,46.7275707 26.1450636,46.7156858 26.2512825,46.6986012 C25.9511957,47.0677765 25.7952099,47.5298028 25.7944671,48 L29.9065581,48 C29.9072906,47.6493948 29.8278122,47.2928472 29.6391437,46.9682403 C29.1986698,46.2061198 28.3481762,45.8324876 27.5266514,45.9632217 Z M24.1384188,34.3038918 C24.0819668,34.4011996 24.0381422,34.499993 23.9995172,34.6010149 C23.7031443,33.8240382 22.9536701,33.2721322 22.0734649,33.2713894 C21.9613038,33.2713894 21.8543421,33.2832743 21.7466377,33.3003589 C22.2710469,32.6548591 22.3742945,31.7300637 21.9345634,30.968686 C21.8788542,30.8713782 21.8142315,30.7829841 21.7466377,30.6997897 C22.5681625,30.8305238 23.4201417,30.4568916 23.8598728,29.6947711 C23.9163248,29.5982061 23.9608922,29.4986699 23.9980316,29.3983909 C24.2958901,30.1746248 25.0446215,30.7280164 25.9255694,30.7280164 C26.0377306,30.7280164 26.1446922,30.7161315 26.2516539,30.6983041 C25.7272447,31.3445466 25.623997,32.269342 26.064471,33.0314625 C26.1201802,33.1272847 26.1848028,33.2164216 26.2523967,33.3003589 C25.4316147,33.1681391 24.5788927,33.5417713 24.1384188,34.3038918 Z M27.52628,29.9636674 C27.8159678,29.6086054 27.9905232,29.1562356 27.9905232,28.6637542 C27.9905232,27.5235447 27.065008,26.5987493 25.9255694,26.5987493 C25.0461071,26.5987493 24.2966328,27.1499125 23.9995172,27.9261464 C23.8361036,27.499032 23.5323028,27.1231714 23.1044563,26.8758165 C22.1172895,26.3045975 20.8552907,26.6448034 20.2855715,27.6319946 C19.8473259,28.3933723 19.9483452,29.3174249 20.4720116,29.9629246 C20.019653,29.8908723 19.5412968,29.9658958 19.1149358,30.212508 C18.127769,30.7822413 17.7898,32.0450141 18.360262,33.0314625 C18.7985076,33.7935831 19.6512295,34.1657296 20.4712688,34.0357383 C20.1823238,34.3915431 20.0099967,34.8431701 20.0099967,35.3363943 C20.0099967,36.4751183 20.9332836,37.3999136 22.0734649,37.3999136 C22.9529273,37.3999136 23.700916,36.8487505 23.9980316,36.0740022 C24.1614452,36.5003737 24.4659888,36.8762343 24.8945781,37.1228464 C25.8810021,37.6940654 27.1430008,37.3538596 27.7119773,36.368154 C28.1531941,35.6060335 28.0499464,34.6819809 27.52628,34.0372239 C27.9778958,34.1092763 28.4555093,34.0335099 28.8840986,33.7876406 C29.8712654,33.2179072 30.2092344,31.9543916 29.6387724,30.968686 C29.1982984,30.2058227 28.3478048,29.8329333 27.52628,29.9636674 Z M24.1384188,18.3044861 C24.0819668,18.4003083 24.0381422,18.4991017 23.9995172,18.6001235 C23.7031443,17.8238896 22.9536701,17.2719836 22.0734649,17.270498 C21.9613038,17.270498 21.8543421,17.2838685 21.7466377,17.3002103 C22.2710469,16.6547106 22.3742945,15.730658 21.9345634,14.966309 C21.8788542,14.8704869 21.8142315,14.7828356 21.7466377,14.6981555 C22.5681625,14.8303753 23.4201417,14.4574859 23.8598728,13.6946225 C23.9163248,13.5980576 23.9608922,13.4985213 23.9980316,13.3982423 C24.2958901,14.175219 25.0446215,14.727125 25.9255694,14.727125 C26.0377306,14.727125 26.1446922,14.7152401 26.2516539,14.6981555 C25.7272447,15.3443981 25.623997,16.2684506 26.064471,17.031314 C26.1201802,17.127879 26.1848028,17.2155302 26.2523967,17.2994675 C25.4316147,17.1687334 24.5788927,17.5416228 24.1384188,18.3044861 Z M27.52628,13.9627761 C27.8159678,13.6077141 27.9905232,13.1560871 27.9905232,12.6628629 C27.9905232,11.5233961 27.065008,10.6000864 25.9255694,10.6000864 C25.0461071,10.6000864 24.2966328,11.1497639 23.9995172,11.925255 C23.8361036,11.4988835 23.5323028,11.12228 23.1044563,10.8764108 C22.1172895,10.3059346 20.8552907,10.643912 20.2855715,11.631846 C19.8473259,12.3932237 19.9483452,13.3165335 20.4720116,13.9612904 C20.019653,13.8907237 19.5412968,13.9664901 19.1149358,14.2116166 C18.127769,14.7820928 17.7898,16.0441228 18.360262,17.031314 C18.7985076,17.7934345 19.6512295,18.1663239 20.4712688,18.0363326 C20.1823238,18.3913946 20.0099967,18.8430216 20.0099967,19.3369886 C20.0099967,20.4757125 20.9332836,21.3990223 22.0734649,21.3990223 C22.9529273,21.3990223 23.700916,20.8486019 23.9980316,20.0731108 C24.1614452,20.500968 24.4659888,20.8760858 24.8945781,21.1234407 C25.8810021,21.6931741 27.1430008,21.353711 27.7119773,20.3672626 C28.1531941,19.6058849 28.0499464,18.6818323 27.52628,18.0370754 C27.9778958,18.1083849 28.4555093,18.0326185 28.8840986,17.7867492 C29.8712654,17.2170159 30.2092344,15.9542431 29.6387724,14.966309 C29.1982984,14.2056741 28.3478048,13.8320419 27.52628,13.9627761 Z M12.1384373,10.3033347 C12.0827281,10.3998997 12.0381608,10.5001787 11.9995358,10.5997149 C11.7039057,9.82422388 10.9529459,9.27157508 10.0734835,9.27157508 C9.96206514,9.27157508 9.85361792,9.28346 9.74665629,9.29905896 C10.2710654,8.65504482 10.3743131,7.72950664 9.93383915,6.96812891 C9.87961554,6.87156393 9.81573568,6.78316984 9.74665629,6.69997539 C10.5674383,6.82922391 11.4194174,6.45707733 11.8606342,5.6949568 C11.9163434,5.59913463 11.9609107,5.49885561 11.998793,5.3985766 C12.2959086,6.17481047 13.0461257,6.72597366 13.9248452,6.72597366 C14.0370064,6.72597366 14.1461964,6.71557435 14.2516724,6.69848978 C13.7280061,7.34398953 13.6247584,8.26952771 14.0644896,9.03016263 C14.1201988,9.12821322 14.1840786,9.21586451 14.2516724,9.29905896 C13.4316332,9.16832483 12.5789113,9.54195702 12.1384373,10.3033347 Z M15.5277842,5.96236751 C15.8167292,5.60879113 15.9905418,5.15493572 15.9905418,4.66245433 C15.9905418,3.52373038 15.0650265,2.59967781 13.9248452,2.59967781 C13.0468684,2.59967781 12.2966514,3.15009819 11.9995358,3.92484645 C11.8361221,3.49773212 11.5323214,3.1218715 11.1059604,2.87600221 C10.1180509,2.30478322 8.85605211,2.64350345 8.28633283,3.63143747 C7.84734445,4.39281519 7.94984935,5.31686777 8.47203012,5.9608819 C8.01967153,5.88957237 7.54205811,5.96533874 7.11495436,6.21269365 C6.12778759,6.78168422 5.79130411,8.04371422 6.36028059,9.03016263 C6.79926897,9.79228316 7.6527337,10.1651725 8.47128733,10.035924 C8.18308514,10.390986 8.01001527,10.8433558 8.01001527,11.33658 C8.01001527,12.475304 8.93404497,13.3986137 10.0734835,13.3986137 C10.9522031,13.3986137 11.7024201,12.8481934 11.998793,12.0734451 C12.1622066,12.5005594 12.4667501,12.87642 12.8938539,13.1222893 C13.8802779,13.6927655 15.1422766,13.3540453 15.7134815,12.3675969 C16.1524699,11.6062192 16.0499649,10.6821666 15.5277842,10.0374096 C15.9786572,10.1087192 16.4570134,10.0336956 16.8833744,9.7863407 C17.8712839,9.21660732 18.2085102,7.95457732 17.6380481,6.96812891 C17.1998025,6.20600838 16.3478234,5.833119 15.5277842,5.96236751 Z M12.1384373,42.3043004 C12.0827281,42.4008654 12.0381608,42.5004016 11.9995358,42.5999378 C11.7039057,41.8244467 10.9529459,41.2717979 10.0734835,41.2717979 C9.96206514,41.2717979 9.85361792,41.28294 9.74665629,41.3000246 C10.2710654,40.6552677 10.3743131,39.7304723 9.93383915,38.9676089 C9.87961554,38.871044 9.81573568,38.7833927 9.74665629,38.6994554 C10.5674383,38.8309324 11.4194174,38.458043 11.8606342,37.6951796 C11.9163434,37.5986147 11.9609107,37.4990785 11.998793,37.3987994 C12.2959086,38.1757761 13.0461257,38.7276821 13.9248452,38.7276821 C14.0370064,38.7276821 14.1461964,38.7157972 14.2516724,38.6979698 C13.7280061,39.3434696 13.6247584,40.2697506 14.0644896,41.0318711 C14.1201988,41.1284361 14.1840786,41.2153445 14.2516724,41.3000246 C13.4316332,41.1692905 12.5789113,41.5421799 12.1384373,42.3043004 Z M15.5277842,37.9625904 C15.8167292,37.6082712 15.9905418,37.1559014 15.9905418,36.6626772 C15.9905418,35.5239532 15.0650265,34.5999006 13.9248452,34.5999006 C13.0468684,34.5999006 12.2966514,35.150321 11.9995358,35.9250693 C11.8361221,35.497955 11.5323214,35.1220943 11.1059604,34.8762251 C10.1180509,34.3064917 8.85605211,34.6437263 8.28633283,35.6324031 C7.84734445,36.393038 7.94984935,37.3178334 8.47203012,37.9618475 C8.01967153,37.8912808 7.54205811,37.9663044 7.11495436,38.2129165 C6.12778759,38.7826499 5.79130411,40.0446799 6.36028059,41.0318711 C6.79926897,41.792506 7.6527337,42.1661382 8.47128733,42.0368897 C8.18308514,42.3912089 8.01001527,42.8443215 8.01001527,43.3368029 C8.01001527,44.4762696 8.93404497,45.3995794 10.0734835,45.3995794 C10.9522031,45.3995794 11.7024201,44.849159 11.998793,44.0729251 C12.1622066,44.5015251 12.4667501,44.8766429 12.8938539,45.123255 C13.8802779,45.6937312 15.1422766,45.3542681 15.7134815,44.3678197 C16.1524699,43.606442 16.0499649,42.6823894 15.5277842,42.0376325 C15.9786572,42.1081992 16.4570134,42.0339184 16.8833744,41.7873063 C17.8712839,41.217573 18.2085102,39.9548002 17.6380481,38.9676089 C17.1998025,38.2062312 16.3478234,37.8333418 15.5277842,37.9625904 Z M12.1384373,26.3034833 C12.0827281,26.4000483 12.0381608,26.5010701 11.9995358,26.6006063 C11.7039057,25.8243724 10.9529459,25.2724664 10.0734835,25.2724664 C9.96206514,25.2724664 9.85361792,25.2828658 9.74665629,25.2992075 C10.2710654,24.6551934 10.3743131,23.730398 9.93383915,22.9675347 C9.87961554,22.8709697 9.81573568,22.7833184 9.74665629,22.6986383 C10.5674383,22.8301153 11.4194174,22.4564831 11.8606342,21.6951054 C11.9163434,21.5977976 11.9609107,21.499747 11.998793,21.3979823 C12.2959086,22.1742162 13.0461257,22.7276078 13.9248452,22.7276078 C14.0370064,22.7276078 14.1461964,22.7164657 14.2516724,22.6986383 C13.7280061,23.3433953 13.6247584,24.2696763 14.0644896,25.0317968 C14.1201988,25.1268762 14.1840786,25.2152703 14.2516724,25.2992075 C13.4316332,25.1692162 12.5789113,25.5421056 12.1384373,26.3034833 Z M15.5277842,21.9632589 C15.8167292,21.6081969 15.9905418,21.1558271 15.9905418,20.6618601 C15.9905418,19.5238789 15.0650265,18.5990428 13.9248452,18.5990428 C13.0468684,18.5990428 12.2966514,19.1517324 11.9995358,19.9257378 C11.8361221,19.4986235 11.5323214,19.1220201 11.1059604,18.8761508 C10.1180509,18.3056746 8.85605211,18.6443948 8.28633283,19.631586 C7.84734445,20.3922209 7.94984935,21.3177591 8.47203012,21.9625161 C8.01967153,21.8904637 7.54205811,21.9654873 7.11495436,22.2120994 C6.12778759,22.7825756 5.79130411,24.0446056 6.36028059,25.0317968 C6.79926897,25.7931745 7.6527337,26.1653211 8.47128733,26.0360726 C8.18308514,26.3903918 8.01001527,26.8427616 8.01001527,27.3359858 C8.01001527,28.4754525 8.93404497,29.4002479 10.0734835,29.4002479 C10.9522031,29.4002479 11.7024201,28.8483419 11.998793,28.0735937 C12.1622066,28.500708 12.4667501,28.8765686 12.8938539,29.1231807 C13.8802779,29.6929141 15.1422766,29.3541938 15.7134815,28.3662598 C16.1524699,27.6063677 16.0499649,26.6815723 15.5277842,26.0375582 C15.9786572,26.1088677 16.4570134,26.0338442 16.8833744,25.7864893 C17.8712839,25.2174987 18.2085102,23.9547259 17.6380481,22.9675347 C17.1998025,22.2061569 16.3478234,21.8325248 15.5277842,21.9632589 Z M36.1384002,10.3033347 C36.082691,10.3998997 36.0373809,10.5001787 35.9994986,10.5997149 C35.7031257,9.82422388 34.9529087,9.27157508 34.0734464,9.27157508 C33.9612852,9.27157508 33.8535808,9.28346 33.7473619,9.29905896 C34.2710283,8.65504482 34.3750188,7.72950664 33.933802,6.96812891 C33.8780928,6.87156393 33.8149557,6.78316984 33.7473619,6.69997539 C34.5674012,6.82922391 35.4193803,6.45707733 35.8598543,5.6949568 C35.9155634,5.59913463 35.959388,5.49885561 35.998013,5.3985766 C36.2958715,6.17481047 37.0446029,6.72597366 37.9248081,6.72597366 C38.0369692,6.72597366 38.1446737,6.71557435 38.2508925,6.69848978 C37.7272262,7.34398953 37.6239785,8.26952771 38.0651952,9.03016263 C38.1194188,9.12821322 38.1840415,9.21586451 38.2516353,9.29905896 C37.4301105,9.16832483 36.5788741,9.54195702 36.1384002,10.3033347 Z M39.5270043,5.96236751 C39.8152064,5.60879113 39.9890191,5.15493572 39.9890191,4.66245433 C39.9890191,3.52373038 39.0642466,2.59967781 37.9248081,2.59967781 C37.0460885,2.59967781 36.2966143,3.15009819 35.9994986,3.92484645 C35.8368278,3.49773212 35.5322842,3.1218715 35.1051805,2.87600221 C34.1172709,2.30478322 32.856015,2.64350345 32.2855529,3.63143747 C31.8465645,4.39281519 31.9483266,5.31686777 32.4712502,5.9608819 C32.0203772,5.88957237 31.5412782,5.96533874 31.11566,6.21269365 C30.1277504,6.78168422 29.7897814,8.04371422 30.3595007,9.03016263 C30.798489,9.79228316 31.651211,10.1651725 32.4712502,10.035924 C32.183048,10.390986 32.0092353,10.8433558 32.0092353,11.33658 C32.0092353,12.475304 32.933265,13.3986137 34.0734464,13.3986137 C34.9521659,13.3986137 35.7008974,12.8481934 35.998013,12.0734451 C36.1614267,12.5005594 36.4659702,12.87642 36.8945595,13.1222893 C37.8802407,13.6927655 39.1422395,13.3540453 39.7119588,12.3675969 C40.1531755,11.6062192 40.0499278,10.6821666 39.5270043,10.0374096 C39.9778773,10.1087192 40.4562335,10.0336956 40.8833372,9.7863407 C41.870504,9.21660732 42.2084731,7.95457732 41.6387538,6.96812891 C41.1982798,6.20600838 40.3477863,5.833119 39.5270043,5.96236751 Z M36.1384002,42.3043004 C36.082691,42.4008654 36.0373809,42.5004016 35.9994986,42.5999378 C35.7031257,41.8244467 34.9529087,41.2717979 34.0734464,41.2717979 C33.9612852,41.2717979 33.8535808,41.28294 33.7473619,41.3000246 C34.2710283,40.6552677 34.3750188,39.7304723 33.933802,38.9676089 C33.8780928,38.871044 33.8149557,38.7833927 33.7473619,38.6994554 C34.5674012,38.8309324 35.4193803,38.458043 35.8598543,37.6951796 C35.9155634,37.5986147 35.959388,37.4990785 35.998013,37.3987994 C36.2958715,38.1757761 37.0446029,38.7276821 37.9248081,38.7276821 C38.0369692,38.7276821 38.1446737,38.7157972 38.2508925,38.6979698 C37.7272262,39.3434696 37.6239785,40.2697506 38.0651952,41.0318711 C38.1194188,41.1284361 38.1840415,41.2153445 38.2516353,41.3000246 C37.4301105,41.1692905 36.5788741,41.5421799 36.1384002,42.3043004 Z M39.5270043,37.9625904 C39.8152064,37.6082712 39.9890191,37.1559014 39.9890191,36.6626772 C39.9890191,35.5239532 39.0642466,34.5999006 37.9248081,34.5999006 C37.0460885,34.5999006 36.2966143,35.150321 35.9994986,35.9250693 C35.8368278,35.497955 35.5322842,35.1220943 35.1051805,34.8762251 C34.1172709,34.3064917 32.856015,34.6437263 32.2855529,35.6324031 C31.8465645,36.393038 31.9483266,37.3178334 32.4712502,37.9618475 C32.0203772,37.8912808 31.5412782,37.9663044 31.11566,38.2129165 C30.1277504,38.7826499 29.7897814,40.0446799 30.3595007,41.0318711 C30.798489,41.792506 31.651211,42.1661382 32.4712502,42.0368897 C32.183048,42.3912089 32.0092353,42.8443215 32.0092353,43.3368029 C32.0092353,44.4762696 32.933265,45.3995794 34.0734464,45.3995794 C34.9521659,45.3995794 35.7008974,44.849159 35.998013,44.0729251 C36.1614267,44.5015251 36.4659702,44.8766429 36.8945595,45.123255 C37.8802407,45.6937312 39.1422395,45.3542681 39.7119588,44.3678197 C40.1531755,43.606442 40.0499278,42.6823894 39.5270043,42.0376325 C39.9778773,42.1081992 40.4562335,42.0339184 40.8833372,41.7873063 C41.870504,41.217573 42.2084731,39.9548002 41.6387538,38.9676089 C41.1982798,38.2062312 40.3477863,37.8333418 39.5270043,37.9625904 Z M36.1384002,26.3034833 C36.082691,26.4000483 36.0373809,26.5010701 35.9994986,26.6006063 C35.7031257,25.8243724 34.9529087,25.2724664 34.0734464,25.2724664 C33.9612852,25.2724664 33.8535808,25.2828658 33.7473619,25.2992075 C34.2710283,24.6551934 34.3750188,23.730398 33.933802,22.9675347 C33.8780928,22.8709697 33.8149557,22.7833184 33.7473619,22.6986383 C34.5674012,22.8301153 35.4193803,22.4564831 35.8598543,21.6951054 C35.9155634,21.5977976 35.959388,21.499747 35.998013,21.3979823 C36.2958715,22.1742162 37.0446029,22.7276078 37.9248081,22.7276078 C38.0369692,22.7276078 38.1446737,22.7164657 38.2508925,22.6986383 C37.7272262,23.3433953 37.6239785,24.2696763 38.0651952,25.0317968 C38.1194188,25.1268762 38.1840415,25.2152703 38.2516353,25.2992075 C37.4301105,25.1692162 36.5788741,25.5421056 36.1384002,26.3034833 Z M39.5270043,21.9632589 C39.8152064,21.6081969 39.9890191,21.1558271 39.9890191,20.6618601 C39.9890191,19.5238789 39.0642466,18.5990428 37.9248081,18.5990428 C37.0460885,18.5990428 36.2966143,19.1517324 35.9994986,19.9257378 C35.8368278,19.4986235 35.5322842,19.1220201 35.1051805,18.8761508 C34.1172709,18.3056746 32.856015,18.6443948 32.2855529,19.631586 C31.8465645,20.3922209 31.9483266,21.3177591 32.4712502,21.9625161 C32.0203772,21.8904637 31.5412782,21.9654873 31.11566,22.2120994 C30.1277504,22.7825756 29.7897814,24.0446056 30.3595007,25.0317968 C30.798489,25.7931745 31.651211,26.1653211 32.4712502,26.0360726 C32.183048,26.3903918 32.0092353,26.8427616 32.0092353,27.3359858 C32.0092353,28.4754525 32.933265,29.4002479 34.0734464,29.4002479 C34.9521659,29.4002479 35.7008974,28.8483419 35.998013,28.0735937 C36.1614267,28.500708 36.4659702,28.8765686 36.8945595,29.1231807 C37.8802407,29.6929141 39.1422395,29.3541938 39.7119588,28.3662598 C40.1531755,27.6063677 40.0499278,26.6815723 39.5270043,26.0375582 C39.9778773,26.1088677 40.4562335,26.0338442 40.8833372,25.7864893 C41.870504,25.2174987 42.2084731,23.9547259 41.6387538,22.9675347 C41.1982798,22.2061569 40.3477863,21.8325248 39.5270043,21.9632589 Z" id="3"></path>
            </g>
        </g>
    </g>
</svg>