<?xml version="1.0" encoding="UTF-8"?>
<svg width="32px" height="48px" viewBox="0 0 32 48" version="1.1" xmlns="http://www.w3.org/2000/svg" xmlns:xlink="http://www.w3.org/1999/xlink">
    <title>其他-25</title>
    <g id="V1.4" stroke="none" stroke-width="1" fill="none" fill-rule="evenodd">
        <g id="形状汇集备份" transform="translate(-1186.000000, -915.000000)" fill="#3D4242">
            <g id="其他-25" transform="translate(1186.000000, 915.000000)">
                <path d="M7.33380778,48 L0.0445630681,48 C0.0190984578,48 0,47.9805653 0,47.9567421 L0,0.043257928 C0,0.0194347213 0.0190984578,0 0.0445630681,0 L7.33380778,0 C7.35927239,0 7.37837085,0.0194347213 7.37837085,0.043257928 L7.37837085,47.9567421 C7.37837085,47.9805653 7.35927239,48 7.33380778,48 M12.5604191,48 L10.5805456,48 C10.555081,48 10.5359825,47.9818191 10.5359825,47.9586229 L10.5359825,0.0413771485 C10.5359825,0.0181808683 10.555081,0 10.5805456,0 L12.5604191,0 C12.5858837,0 12.6049821,0.0181808683 12.6049821,0.0413771485 L12.6049821,47.9586229 C12.6049821,47.9818191 12.5858837,48 12.5604191,48 M28.0620006,26.7108302 C25.7892841,24.8902356 22.3770263,24.3567212 19.8623961,25.8525678 C19.3021746,26.1842119 18.6719255,26.7421765 18.0735072,26.1534925 C17.7997626,25.885168 17.6278765,25.5102659 17.481455,25.1384985 C17.1949781,23.8094143 17.481455,22.8621284 17.481455,22.8621284 C17.6278765,22.4897341 17.7997626,22.114832 18.0735072,21.8471344 C18.6719255,21.2578235 19.3021746,21.8157881 19.8623961,22.1474322 C22.3770263,23.6432788 25.7892841,23.1097644 28.0620006,21.2891698 C33.2695134,17.1119586 33.0466981,8.44532679 28.953262,3.43430333 C27.3107946,1.41810773 25.076275,0.0946659004 22.4406879,0.128519931 C19.9451561,0.161120109 17.0612889,1.22376051 14.9540924,4.66934852 C14.9540924,4.66934852 13.8145511,6.67990178 14.7440094,9.1035996 C15.3042308,10.6383157 16.647489,11.7147484 18.2135626,11.6946868 C20.2570975,11.6683559 21.8995649,9.78005329 21.8741003,7.47797921 C21.861368,5.81787785 20.9764728,4.40729324 19.7159746,3.75278199 C20.8746143,3.19356355 22.1478449,3.04184734 23.3892446,3.19042892 C24.363266,3.30703725 25.3563858,3.40859934 25.9675364,4.35588527 C27.5463422,6.79964474 27.9092129,10.1819132 27.7182284,13.1278408 C27.5590746,15.6067081 26.8333332,18.5676819 24.5542505,19.5450603 C24.4396598,19.5920798 24.3314352,19.633457 24.2168444,19.6704456 C21.8677341,20.426519 18.8629101,19.4760984 18.3854487,16.4411473 C18.3281533,16.0950839 18.2453933,15.6543545 17.939818,15.5947965 C17.7488334,15.5571809 17.5578488,15.7170472 17.4687227,15.914529 C17.3795966,16.1120109 17.3604981,16.3402121 17.3477658,16.5615172 C17.2395412,17.8717935 16.895769,19.2178047 16.0681691,20.1914216 C15.5652431,20.7788517 14.979557,21.0866726 14.2665479,21.0985842 C14.0246342,21.1023457 12.7195729,20.8779061 12.6049821,21.2001463 C12.6049821,21.2014001 12.6049821,22.0195392 12.6049821,22.5054072 C12.6049821,22.7079045 12.6049821,22.8589938 12.6049821,22.8589938 L12.6049821,25.1410062 C12.6049821,25.1410062 12.6049821,25.2883339 12.6049821,25.4876966 C12.6049821,25.9729377 12.6049821,26.7985999 12.6049821,26.7998537 C12.7195729,27.1227209 14.0246342,26.8976543 14.2665479,26.9014158 C14.979557,26.9133274 15.5652431,27.2217752 16.0681691,27.8085784 C16.895769,28.7821953 17.2395412,30.1288334 17.3477658,31.4384828 C17.3604981,31.6597879 17.3795966,31.8879891 17.4687227,32.085471 C17.5578488,32.2829528 17.7488334,32.4428191 17.939818,32.4052035 C18.2453933,32.3462724 18.3281533,31.9049161 18.3854487,31.5588527 C18.8629101,28.5239016 21.8677341,27.5741079 24.2168444,28.3301813 C24.3314352,28.366543 24.4396598,28.4079202 24.5542505,28.4549397 C26.8333332,29.4323181 27.5590746,32.3932919 27.7182284,34.8721592 C27.9092129,37.8180868 27.5463422,41.2003553 25.9675364,43.6441147 C25.3563858,44.5914007 24.363266,44.6929628 23.3892446,44.8095711 C22.1478449,44.9581527 20.8746143,44.8064364 19.7159746,44.247218 C20.9764728,43.5927068 21.861368,42.1821221 21.8741003,40.5220208 C21.8995649,38.2199467 20.2570975,36.3316441 18.2135626,36.3053132 C16.647489,36.2852516 15.3042308,37.3616843 14.7440094,38.8964004 C13.8145511,41.3200982 14.9540924,43.3306515 14.9540924,43.3306515 C17.0612889,46.7762395 19.9451561,47.8388799 22.4406879,47.8714801 C25.076275,47.9053341 27.3107946,46.5818923 28.953262,44.5656967 C33.0466981,39.5546732 33.2695134,30.8880414 28.0620006,26.7108302" id="34"></path>
            </g>
        </g>
    </g>
</svg>