<?xml version="1.0" encoding="UTF-8"?>
<svg width="16px" height="48px" viewBox="0 0 16 48" version="1.1" xmlns="http://www.w3.org/2000/svg" xmlns:xlink="http://www.w3.org/1999/xlink">
    <title>其他-5</title>
    <g id="V1.4" stroke="none" stroke-width="1" fill="none" fill-rule="evenodd">
        <g id="形状汇集备份" transform="translate(-1194.000000, -635.000000)" fill="#3D4242">
            <g id="其他-5" transform="translate(1194.000000, 635.000000)">
                <path d="M5.78428546,0.332980752 C6.92963825,1.06407477 7.93863953,1.98946448 8.76583877,3.06667594 C8.76583877,3.06667594 14.7289454,10.8601924 14.8107563,10.9605032 C15.4561535,11.8081746 16.5469657,12.6332535 15.6561358,13.7764352 C15.228901,14.3159446 14.601684,14.6973064 14.1471789,15.224164 C13.7290342,15.7040292 13.3199797,16.193835 12.9291053,16.6917742 C12.0019149,17.8584521 11.0747246,19.0865816 10.4384175,20.4421329 C10.2111649,20.9436869 10.1566243,21.420841 10.0202728,21.9332394 C9.72029943,23.0113545 9.64757862,24.1888768 9.72029943,25.2986215 C9.77484004,26.3017295 9.97482228,27.3265263 10.3838768,28.2492049 C10.7838413,29.1474836 11.5110494,29.9065923 12.101906,30.6837751 C12.6473121,31.4022173 13.1927182,32.1143336 13.7472144,32.8309684 C14.1471789,33.3596334 14.5471434,33.8882984 14.9561979,34.4169634 C15.2470812,34.8046511 15.9288388,35.4047085 15.9924695,35.8999366 C16.0106497,36.0174177 15.9924695,36.1376099 15.9742893,36.2541873 C15.8015774,37.0422145 15.1925406,37.6729977 14.3926116,37.8456046 C14.3471611,37.8573527 14.2835304,37.8663897 14.2380799,37.8519305 C14.1835393,37.8374713 14.1471789,37.802227 14.1017284,37.7669826 C12.4746002,36.3382315 10.0748134,35.1833018 7.84773851,35.5529155 C7.02053927,35.690278 6.55694409,36.4466756 6.20243013,37.1316809 C5.41159129,38.6535132 5.60248343,40.4618187 6.21152023,42.010762 C6.87509764,43.6943568 7.99318014,45.2686037 8.89310019,46.8329099 C8.9203705,46.8844209 8.9567309,46.9368355 8.9567309,46.9946724 C9.02945172,47.5495447 7.86591872,47.9137362 7.48413445,47.9932619 C7.11144029,48.0727876 6.57512429,47.4266414 6.30242125,47.1998125 C5.87518647,46.841947 5.4661319,46.473237 5.05707733,46.0927789 C4.2662385,45.3490331 3.51176007,44.5619096 2.81182225,43.7305048 C1.54829813,42.2276502 0.212053198,40.4817001 0.0484313703,38.4601212 C-0.0242894422,37.6612496 -0.0242894422,36.7485117 0.112062081,35.9595809 C0.33931462,34.6347554 0.930171222,33.3677667 1.9482626,32.4640658 C2.60274991,31.8856973 3.39358875,31.4718022 4.22987809,31.2323215 C4.65711286,31.1121293 5.08434764,31.0353147 5.52067251,31.0036852 C6.15697962,30.9575964 6.638755,31.0479665 7.26597201,31.191655 C7.74774739,31.3046176 8.58403674,31.3886618 8.70220806,30.7452267 C8.80219918,30.1505916 8.30224359,29.4339567 8.00227024,28.9721656 C6.93872836,27.2343488 5.79337556,25.5371985 4.54803164,23.9195739 C4.06625626,23.2860796 3.56630068,22.6598149 3.02089458,22.0769278 C2.5391192,21.5654331 2.06643392,20.997909 1.4119466,20.7060136 C1.26650498,20.6427545 1.12106335,20.593051 0.993801933,20.5108142 C0.521116652,20.2125929 0.693828581,19.3703437 0.8029098,18.9157821 C0.939261324,18.3690431 1.26650498,17.9434 1.68464965,17.5864381 C3.39358875,16.1513611 5.00253672,14.5129514 6.33878165,12.7308532 C7.34778293,11.3834352 8.74765857,9.41969318 7.91136922,7.67103196 C7.04780957,5.84917097 5.91154688,3.99477675 4.59348215,2.45667784 C4.32986921,2.14309363 4.04807606,1.84035383 3.74810271,1.55388065 C3.42085905,1.24029644 3.7299225,0.627587242 4.01171565,0.340210359 C4.49349104,-0.152306625 5.11161794,-0.0483810226 5.67520424,0.262492083 L5.78428546,0.332980752" id="29"></path>
            </g>
        </g>
    </g>
</svg>