<?xml version="1.0" encoding="UTF-8"?>
<svg width="38px" height="48px" viewBox="0 0 38 48" version="1.1" xmlns="http://www.w3.org/2000/svg" xmlns:xlink="http://www.w3.org/1999/xlink">
    <title>其他-16</title>
    <g id="V1.4" stroke="none" stroke-width="1" fill="none" fill-rule="evenodd">
        <g id="形状汇集备份" transform="translate(-902.000000, -845.000000)" fill="#3D4242" fill-rule="nonzero">
            <g id="robot-svgrepo-com" transform="translate(902.000000, 845.000000)">
                <path d="M20.5881939,0 L20.5881939,12.6144375 L23.7824116,11.2673438 L23.7824116,0.44728125 C22.7610776,0.222375 21.6953583,0.07265625 20.5881939,0 Z" id="路径"></path>
                <path d="M27.8061017,21.8873437 C27.0389394,21.8873437 26.4148909,22.5042187 26.4148909,23.2624687 C26.4148909,24.0207187 27.0389394,24.6375937 27.8061017,24.6375937 C28.5732641,24.6375937 29.1973125,24.0207187 29.1973125,23.2624687 C29.1973125,22.5043125 28.5731692,21.8873437 27.8061017,21.8873437 Z" id="路径"></path>
                <path d="M33.6073816,6.5626875 C33.4944269,6.41625 33.3790064,6.27253125 33.2620684,6.1306875 L33.2620684,14.3338125 L33.2619736,14.3338125 L30.0853961,14.3338125 L30.0853961,3.17784375 C29.1180261,2.49496875 28.0742149,1.917 26.9588943,1.4476875 L26.9588943,13.3415625 L20.5880991,16.0281563 L20.5880991,35.823 L23.8012848,35.823 L23.8012848,38.9630625 L20.5880991,38.9630625 L20.5880991,47.9999063 C22.7119504,47.749125 24.7545236,46.996125 26.6561644,45.7779375 L28.6471446,32.0115938 L36.7665084,30.3595313 C37.5703739,27.384 38,24.263625 38,21.1855313 C38,15.3439688 36.4810394,10.2875625 33.6073816,6.5626875 Z M27.8061017,27.7776563 C25.2874307,27.7776563 23.2383134,25.7520938 23.2383134,23.2624688 C23.2383134,20.7728438 25.2874307,18.7472813 27.8061017,18.7472813 C30.3247728,18.7472813 32.37389,20.7728438 32.37389,23.2624688 C32.37389,25.7520938 30.3247728,27.7776563 27.8061017,27.7776563 Z" id="形状"></path>
                <path d="M31.4757534,34.6420312 L30.3151939,42.6660937 C31.245671,41.653125 32.121046,40.50675 32.9303174,39.2318437 C33.9903463,37.561875 34.9005276,35.7285 35.6461612,33.7935 L31.4757534,34.6420312 Z" id="路径"></path>
                <path d="M14.2174935,0.44728125 L14.2174935,11.2674375 L17.4117113,12.6145313 L17.4117113,0 C16.3045468,0.07265625 15.2388276,0.222375 14.2174935,0.44728125 Z" id="路径"></path>
                <path d="M10.1938034,21.8873437 C9.42664111,21.8873437 8.80259263,22.5042187 8.80259263,23.2624687 C8.80259263,24.0207187 9.42664111,24.6375937 10.1938034,24.6375937 C10.9609658,24.6375937 11.5850143,24.0207187 11.5850143,23.2624687 C11.5850143,22.5043125 10.9609658,21.8873437 10.1938034,21.8873437 Z" id="路径"></path>
                <path d="M17.4119009,35.8231875 L17.4119009,16.0283437 L11.0410109,13.34175 L11.0410109,1.44778125 C9.92569021,1.917 8.88178419,2.4950625 7.91450905,3.1779375 L7.91450905,14.3338125 L4.73793159,14.3338125 L4.73793159,6.13078125 L4.73783675,6.13078125 C4.62089879,6.272625 4.50566795,6.41625 4.3925236,6.56278125 C1.51886571,10.2876562 0,15.3440625 0,21.185625 C0,24.2637187 0.42953124,27.3841875 1.23349157,30.359625 L9.35285544,32.0116875 L11.3438356,45.7780312 C13.2453815,46.9964062 15.2880496,47.7492187 17.4119009,48 L17.4119009,38.9631562 L14.1987152,38.9631562 L14.1987152,35.8230937 L17.4119009,35.8230937 L17.4119009,35.8231875 Z M10.1938034,27.7776562 C7.6751324,27.7776562 5.62601516,25.7521875 5.62601516,23.2624687 C5.62601516,20.77275 7.6751324,18.7472812 10.1938034,18.7472812 C12.7124745,18.7472812 14.7615917,20.7728437 14.7615917,23.2624687 C14.7615917,25.7520937 12.7124745,27.7776562 10.1938034,27.7776562 Z" id="形状"></path>
                <path d="M6.5241518,34.6420312 L2.35374394,33.7935 C3.09937755,35.7285 4.00955889,37.561875 5.06958774,39.2318437 C5.87885912,40.5068437 6.75423412,41.653125 7.68471126,42.6660937 L6.5241518,34.6420312 Z" id="路径"></path>
            </g>
        </g>
    </g>
</svg>